<svg xmlns="http://www.w3.org/2000/svg" fill="none" viewBox="0 0 24 24"><path fill="currentColor" fill-rule="evenodd" d="M4.5 1.75A2.75 2.75 0 0 0 1.75 4.5v15a2.75 2.75 0 0 0 2.75 2.75h15a2.75 2.75 0 0 0 2.75-2.75v-15a2.75 2.75 0 0 0-2.75-2.75zM3.25 4.5c0-.69.56-1.25 1.25-1.25h15c.69 0 1.25.56 1.25 1.25v15c0 .69-.56 1.25-1.25 1.25h-15c-.69 0-1.25-.56-1.25-1.25zM7.75 9A.25.25 0 0 1 8 8.75h1a.75.75 0 0 0 0-1.5H8A1.75 1.75 0 0 0 6.25 9v6c0 .966.783 1.75 1.75 1.75h1a.75.75 0 1 0 0-1.5H8a.25.25 0 0 1-.25-.25zM15 7.25a.75.75 0 1 0 0 1.5h1a.25.25 0 0 1 .25.25v6a.25.25 0 0 1-.25.25h-1a.75.75 0 0 0 0 1.5h1A1.75 1.75 0 0 0 17.75 15V9A1.75 1.75 0 0 0 16 7.25z" clip-rule="evenodd"/></svg>