<svg xmlns="http://www.w3.org/2000/svg" fill="none" viewBox="0 0 24 24"><path fill="currentColor" fill-rule="evenodd" d="M4.5 1.75A2.75 2.75 0 0 0 1.75 4.5v15a2.75 2.75 0 0 0 2.75 2.75h15a2.75 2.75 0 0 0 2.75-2.75v-15a2.75 2.75 0 0 0-2.75-2.75zM3.25 4.5c0-.69.56-1.25 1.25-1.25h15c.69 0 1.25.56 1.25 1.25v15c0 .69-.56 1.25-1.25 1.25h-15c-.69 0-1.25-.56-1.25-1.25zm14.28 6.03a.75.75 0 1 0-1.06-1.06l-2.793 2.793a.25.25 0 0 1-.354 0l-1.586-1.586a1.75 1.75 0 0 0-2.474 0L6.47 13.47a.75.75 0 1 0 1.06 1.06l2.793-2.793a.25.25 0 0 1 .354 0l1.586 1.586a1.75 1.75 0 0 0 2.474 0z" clip-rule="evenodd"/></svg>