<svg xmlns="http://www.w3.org/2000/svg" fill="none" viewBox="0 0 24 24"><path fill="currentColor" fill-rule="evenodd" d="M3.25 4.5c0-.69.56-1.25 1.25-1.25h9a.75.75 0 0 0 0-1.5h-9A2.75 2.75 0 0 0 1.75 4.5v15a2.75 2.75 0 0 0 2.75 2.75h15a2.75 2.75 0 0 0 2.75-2.75v-9a.75.75 0 0 0-1.5 0v9c0 .69-.56 1.25-1.25 1.25h-15c-.69 0-1.25-.56-1.25-1.25zM19 3.25a1.75 1.75 0 1 0 0 3.5 1.75 1.75 0 0 0 0-3.5M15.75 5a3.25 3.25 0 1 1 6.5 0 3.25 3.25 0 0 1-6.5 0m1.28 4.97a.75.75 0 0 1 0 1.06l-2.793 2.793a1.75 1.75 0 0 1-2.474 0l-1.586-1.586a.25.25 0 0 0-.354 0L7.03 15.03a.75.75 0 0 1-1.06-1.06l2.793-2.793a1.75 1.75 0 0 1 2.474 0l1.586 1.586a.25.25 0 0 0 .354 0L15.97 9.97a.75.75 0 0 1 1.06 0" clip-rule="evenodd"/></svg>