<svg xmlns="http://www.w3.org/2000/svg" fill="none" viewBox="0 0 24 24"><path fill="currentColor" fill-rule="evenodd" d="M11.25 2a.75.75 0 0 1 .75-.75c5.937 0 10.75 4.813 10.75 10.75S17.937 22.75 12 22.75 1.25 17.937 1.25 12a.75.75 0 0 1 1.5 0A9.25 9.25 0 1 0 12 2.75a.75.75 0 0 1-.75-.75M12 7.25a.75.75 0 0 1 .75.75v3.25H16a.75.75 0 0 1 0 1.5h-3.25V16a.75.75 0 0 1-1.5 0v-3.25H8a.75.75 0 0 1 0-1.5h3.25V8a.75.75 0 0 1 .75-.75M8.8 3.187a.75.75 0 1 0-.6-1.374 12.4 12.4 0 0 0-2.474 1.443.75.75 0 0 0 .901 1.2A11 11 0 0 1 8.8 3.187m-4.344 3.44a.75.75 0 0 0-1.2-.9A12.4 12.4 0 0 0 1.813 8.2a.75.75 0 1 0 1.374.6 11 11 0 0 1 1.269-2.173" clip-rule="evenodd"/></svg>