<svg xmlns="http://www.w3.org/2000/svg" fill="none" viewBox="0 0 24 24"><path fill="currentColor" fill-rule="evenodd" d="M2 1.25a.75.75 0 0 0-.75.75v3a.75.75 0 0 0 1.5 0V3.81l1.72 1.72a.75.75 0 0 0 1.06-1.06L3.81 2.75H5a.75.75 0 0 0 0-1.5zm17 0a.75.75 0 0 0 0 1.5h1.19l-1.72 1.72a.75.75 0 0 0 1.06 1.06l1.72-1.72V5a.75.75 0 0 0 1.5 0V2a.75.75 0 0 0-.75-.75zM2 22.75a.75.75 0 0 1-.75-.75v-3a.75.75 0 0 1 1.5 0v1.19l1.72-1.72a.75.75 0 0 1 1.06 1.06l-1.72 1.72H5a.75.75 0 0 1 0 1.5zm20 0h-3a.75.75 0 0 1 0-1.5h1.19l-1.72-1.72a.75.75 0 1 1 1.06-1.06l1.72 1.72V19a.75.75 0 0 1 1.5 0v3a.75.75 0 0 1-.75.75m-10-17a6.25 6.25 0 1 0 0 12.5 6.25 6.25 0 0 0 0-12.5M4.25 12a7.75 7.75 0 1 1 15.5 0 7.75 7.75 0 0 1-15.5 0m8.5-4a.75.75 0 0 0-1.5 0v.327a3 3 0 0 0-1.038.424c-.548.364-.962.956-.962 1.749 0 .424.09.808.282 1.14.193.332.463.567.754.728.55.306 1.206.365 1.689.382.451.015.795.073 1.01.193a.46.46 0 0 1 .185.17c.037.063.08.178.08.387 0 .207-.089.365-.293.5-.225.15-.572.25-.957.25-.615 0-1.137-.3-1.372-.66a.75.75 0 0 0-1.256.82c.415.635 1.106 1.079 1.878 1.255V16a.75.75 0 0 0 1.5 0v-.327a3 3 0 0 0 1.038-.424c.548-.364.962-.957.962-1.749 0-.424-.09-.808-.282-1.14a1.95 1.95 0 0 0-.753-.728c-.55-.306-1.207-.365-1.69-.382-.451-.015-.795-.073-1.01-.193a.46.46 0 0 1-.185-.17c-.037-.063-.08-.178-.08-.387 0-.207.089-.365.293-.5.225-.15.572-.25.957-.25.616 0 1.137.3 1.372.66a.75.75 0 1 0 1.256-.82c-.415-.635-1.106-1.079-1.878-1.255z" clip-rule="evenodd"/></svg>