<svg xmlns="http://www.w3.org/2000/svg" fill="none" viewBox="0 0 24 24"><path fill="currentColor" fill-rule="evenodd" d="M7.75 4.5a1.75 1.75 0 1 1 3.5 0v15a1.75 1.75 0 1 1-3.5 0 .75.75 0 0 0-.75-.75 2.25 2.25 0 0 1-.75-4.372.75.75 0 1 0-.5-1.414 3.75 3.75 0 0 0-1.614 1.115 2.252 2.252 0 0 1 .438-4.289.75.75 0 0 0 .5-1.125A2.25 2.25 0 0 1 6.36 5.343 3.26 3.26 0 0 0 7.55 7.1a.75.75 0 1 0 .9-1.2c-.426-.32-.7-.828-.7-1.4M1.25 12a3.75 3.75 0 0 0 2.164 3.399 3.75 3.75 0 0 0 2.909 4.79 3.251 3.251 0 0 0 6.427-.689v-15a3.25 3.25 0 0 0-6.427-.69A3.75 3.75 0 0 0 3.414 8.6 3.75 3.75 0 0 0 1.25 12M20 3.25a1.75 1.75 0 0 0-1.649 2.338l-.662.662H15.5a.75.75 0 0 0 0 1.5H18a.75.75 0 0 0 .53-.22l.882-.881q.277.1.588.101a1.75 1.75 0 1 0 0-3.5m-1.582 8a1.75 1.75 0 1 1 0 1.5H15.5a.75.75 0 0 1 0-1.5zM20 20.75a1.75 1.75 0 0 1-1.649-2.338l-.662-.662H15.5a.75.75 0 0 1 0-1.5H18a.75.75 0 0 1 .53.22l.882.881q.277-.1.588-.101a1.75 1.75 0 1 1 0 3.5" clip-rule="evenodd"/></svg>