<svg xmlns="http://www.w3.org/2000/svg" fill="none" viewBox="0 0 24 24"><path fill="currentColor" fill-rule="evenodd" d="M5.33 10.44c.19.49.64.81 1.17.81s.99-.32 1.17-.81l.71-1.92c.03-.07.07-.12.14-.14l1.92-.71c.49-.19.81-.64.81-1.17s-.32-.99-.81-1.17l-1.92-.71c-.07-.03-.12-.07-.14-.14l-.71-1.92c-.19-.49-.64-.81-1.17-.81s-.99.32-1.17.81l-.71 1.92c-.03.07-.07.12-.14.14l-1.92.71c-.49.19-.81.64-.81 1.17s.32.99.81 1.17l1.92.71c.07.03.12.07.14.14zM5 6.97 3.73 6.5 5 6.03c.48-.18.86-.55 1.03-1.03l.47-1.27L6.97 5c.18.48.55.86 1.03 1.03l1.27.47L8 6.97c-.48.18-.86.55-1.03 1.03L6.5 9.27 6.03 8A1.72 1.72 0 0 0 5 6.97m1 15.28h3.98v-.01c.2 0 .39-.08.53-.22l11.23-11.23c.33-.33.51-.77.51-1.23s-.18-.9-.51-1.23l-2.57-2.57c-.66-.66-1.81-.66-2.47 0L5.47 16.99a.75.75 0 0 0-.22.53v3.98c0 .41.34.75.75.75m3.67-1.5H6.75v-2.92l7.7-7.7.96.96c.29.29.77.29 1.06 0s.29-.77 0-1.06l-.96-.96 2.25-2.25c.13-.12.23-.12.35 0l2.57 2.57c.1.1.1.25 0 .35z" clip-rule="evenodd"/></svg>