<svg xmlns="http://www.w3.org/2000/svg" fill="none" viewBox="0 0 24 24"><path fill="currentColor" fill-rule="evenodd" d="M1.25 12C1.25 6.07 6.07 1.25 12 1.25S22.75 6.09 22.75 12s-4.79 10.72-10.69 10.75h-.12C6.04 22.72 1.25 17.93 1.25 12m15.49 4.14c-.36 1.9-.95 3.45-1.69 4.58h.02a9.25 9.25 0 0 0 6.16-7.97h-1.71c-.41 0-.75-.34-.75-.75s.34-.75.75-.75h1.71c-.3-3.7-2.78-6.78-6.16-7.97.74 1.13 1.33 2.68 1.69 4.58.08.41-.19.8-.6.88q-.037 0-.07.005a.76.76 0 0 1-.81-.605c-.6-3.17-1.95-5.39-3.26-5.39S9.36 4.97 8.76 8.14c-.08.41-.47.67-.88.6a.76.76 0 0 1-.6-.88c.36-1.9.95-3.45 1.69-4.58a9.25 9.25 0 0 0-6.16 7.97h1.71c.41 0 .75.34.75.75s-.34.75-.75.75H2.81c.3 3.7 2.78 6.78 6.16 7.97-.74-1.13-1.33-2.68-1.69-4.58a.75.75 0 0 1 .6-.88c.4-.07.8.19.88.6.6 3.17 1.94 5.39 3.25 5.39 1.31-.01 2.65-2.23 3.25-5.39.08-.41.47-.67.88-.6.41.08.67.47.6.88m-2.72-6.02 1.92.71c.49.18.81.64.81 1.17s-.32.98-.81 1.17l-1.92.71c-.07.02-.11.07-.14.14l-.71 1.92c-.18.49-.64.81-1.17.81s-.98-.32-1.17-.81l-.71-1.92c-.02-.07-.07-.11-.14-.14l-1.92-.71c-.49-.18-.81-.64-.81-1.17s.32-.98.81-1.17l1.92-.71c.07-.02.11-.07.14-.14l.71-1.92c.18-.49.64-.81 1.17-.81s.98.32 1.17.81l.71 1.92c.02.07.07.11.14.14m-1.55 3.38c.17-.48.55-.85 1.03-1.03l1.27-.47-1.27-.47a1.72 1.72 0 0 1-1.03-1.03L12 9.23l-.47 1.27c-.17.48-.55.85-1.03 1.03L9.23 12l1.27.47c.48.17.85.55 1.03 1.03l.47 1.27z" clip-rule="evenodd"/></svg>