<svg xmlns="http://www.w3.org/2000/svg" fill="none" viewBox="0 0 24 24"><path fill="currentColor" fill-rule="evenodd" d="M3.75 11.25c0-4.399 3.674-8 8.25-8s8.25 3.601 8.25 8c0 1.796-.61 3.454-1.643 4.791a.75.75 0 1 0 1.186.918 9.3 9.3 0 0 0 1.957-5.71c0-5.266-4.385-9.499-9.75-9.499s-9.75 4.233-9.75 9.5c0 2.143.73 4.12 1.957 5.709a.75.75 0 1 0 1.186-.918A7.8 7.8 0 0 1 3.75 11.25m4 .05c0-2.208 1.874-4.05 4.25-4.05s4.25 1.842 4.25 4.05c0 1.028-.402 1.97-1.072 2.689a.75.75 0 1 0 1.097 1.022A5.43 5.43 0 0 0 17.75 11.3c0-3.094-2.604-5.55-5.75-5.55S6.25 8.206 6.25 11.3c0 1.43.561 2.732 1.475 3.711a.75.75 0 0 0 1.097-1.022A3.93 3.93 0 0 1 7.75 11.3m3.5.2a.75.75 0 1 1 1.5 0 .75.75 0 0 1-1.5 0M12 9.25a2.25 2.25 0 1 0 0 4.5 2.25 2.25 0 0 0 0-4.5m1.422 7.264a1.705 1.705 0 0 0-2.843 0L8.54 19.59c-.752 1.132.051 2.66 1.42 2.66h4.083c1.37 0 2.173-1.528 1.421-2.66zm-1.593.83a.205.205 0 0 1 .343 0l2.041 3.075a.212.212 0 0 1-.171.331H9.96a.212.212 0 0 1-.172-.331z" clip-rule="evenodd"/></svg>