<svg xmlns="http://www.w3.org/2000/svg" fill="none" viewBox="0 0 24 24"><path fill="currentColor" fill-rule="evenodd" d="M1.25 6.129c0-1.223.5-2.223 1.321-2.902.807-.667 1.878-.988 2.992-.977 1.303.013 2.703.517 3.785 1.403 1.093.894 1.902 2.215 1.902 3.854V20a1.75 1.75 0 0 1-1.75 1.75H8.333A1.75 1.75 0 0 1 6.583 20v-8.148a5.2 5.2 0 0 1-2.07-.006c-1.906-.4-3.263-1.954-3.263-3.79zM8.083 20V8.589a.75.75 0 1 0-1.5 0v1.723a3.7 3.7 0 0 1-1.762.066c-1.288-.27-2.071-1.27-2.071-2.322V6.129c0-.783.306-1.356.777-1.746.485-.4 1.192-.641 2.021-.633.952.01 2.025.388 2.85 1.064.816.667 1.352 1.588 1.352 2.693V20a.25.25 0 0 1-.25.25H8.333a.25.25 0 0 1-.25-.25M22.75 6.129c0-1.223-.5-2.223-1.321-2.902-.807-.667-1.878-.988-2.992-.977-1.303.013-2.703.517-3.785 1.403-1.093.894-1.902 2.215-1.902 3.854V20c0 .966.784 1.75 1.75 1.75h1.167a1.75 1.75 0 0 0 1.75-1.75v-8.148a5.2 5.2 0 0 0 2.07-.006c1.906-.4 3.263-1.954 3.263-3.79zM15.917 20V8.589a.75.75 0 0 1 1.5 0v1.723c.574.16 1.182.188 1.762.066 1.288-.27 2.071-1.27 2.071-2.322V6.129c0-.783-.306-1.356-.777-1.746-.485-.4-1.192-.641-2.021-.633-.952.01-2.025.388-2.85 1.064-.816.667-1.352 1.588-1.352 2.693V20c0 .138.112.25.25.25h1.167a.25.25 0 0 0 .25-.25" clip-rule="evenodd"/></svg>