<svg xmlns="http://www.w3.org/2000/svg" fill="none" viewBox="0 0 24 24"><path fill="currentColor" fill-rule="evenodd" d="M5.5 1.75A3.75 3.75 0 0 0 1.75 5.5v13a3.75 3.75 0 0 0 3.75 3.75h13a3.75 3.75 0 0 0 3.75-3.75v-13a3.75 3.75 0 0 0-3.75-3.75zM3.25 5.5A2.25 2.25 0 0 1 5.5 3.25h13a2.25 2.25 0 0 1 2.25 2.25v.75H3.25zm14.5 2.25h3V18.5a2.25 2.25 0 0 1-2.25 2.25h-13a2.25 2.25 0 0 1-2.25-2.25V7.75h3v.75A2.75 2.75 0 0 0 9 11.25h6a2.75 2.75 0 0 0 2.75-2.75zm-1.5 0h-8.5v.75c0 .69.56 1.25 1.25 1.25h6c.69 0 1.25-.56 1.25-1.25zM12 13a1 1 0 1 0 0 2h.009a1 1 0 1 0 0-2z" clip-rule="evenodd"/></svg>