<svg xmlns="http://www.w3.org/2000/svg" fill="none" viewBox="0 0 24 24"><path fill="currentColor" fill-rule="evenodd" d="M5.75 4a.75.75 0 0 0-1.5 0v15a.25.25 0 0 1-.25.25H2a.75.75 0 0 0 0 1.5h2A1.75 1.75 0 0 0 5.75 19zm4 0a.75.75 0 0 0-1.5 0v7a.75.75 0 0 0 1.5 0zm6.75 4.75a.75.75 0 0 0 0 1.5c.758 0 1.971.511 3.04 1.342.518.403.96.85 1.267 1.29q.133.192.225.368H13.75V4a.75.75 0 0 0-1.5 0v15a.25.25 0 0 1-.25.25h-2a.75.75 0 0 0 0 1.5h2A1.75 1.75 0 0 0 13.75 19v-4.25H22a.75.75 0 0 0 .75-.75c0-.712-.306-1.393-.713-1.976-.412-.591-.97-1.144-1.576-1.616-1.182-.919-2.72-1.658-3.961-1.658" clip-rule="evenodd"/></svg>