<svg xmlns="http://www.w3.org/2000/svg" fill="none" viewBox="0 0 24 24"><path fill="currentColor" fill-rule="evenodd" d="M10.971 5.161c-1.687.454-3.065 1.54-3.419 1.925A.75.75 0 1 1 6.448 6.07c.524-.57 2.142-1.823 4.134-2.358 1.011-.272 2.152-.368 3.31-.065 1.166.305 2.296 1.002 3.29 2.228l.013.017c.209.258.404.499.589.815q.081.139.158.295a6 6 0 0 1 .378-.686c.768-1.191 2.03-2.07 3.789-1.81a.75.75 0 1 1-.218 1.483c-1.04-.152-1.779.315-2.31 1.14-.555.86-.831 2.053-.831 3.081a1 1 0 0 1-.009.117c.009.327.009.68.009 1.076v8.807a.75.75 0 0 1-1.5 0v-.208c-.073-2.822-.561-4.42-1.096-5.307-.275-.456-.565-.729-.83-.89a7 7 0 0 1-.825 1.735c-.865 1.298-2.208 2.21-3.999 2.21-2.865 0-4.925-2.437-6.33-4.986-1.44-2.613-2.379-5.684-2.893-7.567a.75.75 0 1 1 1.447-.396c.507 1.858 1.41 4.788 2.76 7.24C6.871 14.556 8.55 16.25 10.5 16.25c1.21 0 2.116-.589 2.751-1.54.38-.57.656-1.264.82-2.02l.005-.02A8 8 0 0 0 14.25 11c0-1.055-.422-1.877-.955-2.325-.516-.434-1.124-.526-1.7-.204-.415.232-.643.665-.758 1.145a3.4 3.4 0 0 0-.088.832v.007a.75.75 0 0 1-1.497.093l.747-.048-.747.047v-.005l-.001-.008-.001-.026-.002-.082q-.002-.104.005-.276c.011-.226.043-.539.125-.884.162-.673.548-1.582 1.486-2.105 1.192-.665 2.47-.414 3.397.366.91.765 1.49 2.029 1.49 3.473q0 .651-.088 1.3c.544.224 1.101.636 1.587 1.331v-2.17c0-1.475-.006-2.084-.33-3-.179-.505-.309-.787-.43-.996-.124-.21-.252-.37-.474-.644-.809-.998-1.67-1.504-2.504-1.722-.844-.22-1.712-.16-2.54.062" clip-rule="evenodd"/></svg>