<svg xmlns="http://www.w3.org/2000/svg" fill="none" viewBox="0 0 24 24"><path fill="currentColor" fill-rule="evenodd" d="M5.769 5.755c3.212-3.208 7.87-4.544 12.289-3.808l.012.002c.977.18 1.885.661 2.596 1.37l.002.002a4.97 4.97 0 0 1 1.37 2.595l.001.008c.768 4.42-.575 9.096-3.818 12.287-3.169 3.199-7.898 4.645-12.31 3.803a4.97 4.97 0 0 1-2.593-1.369l-.002-.002a4.97 4.97 0 0 1-1.37-2.595l-.002-.013c-.73-4.42.613-9.074 3.825-12.28m12.036-2.33c-3.973-.659-8.131.55-10.976 3.391-2.845 2.84-4.06 6.994-3.406 10.967.081.436.251.856.497 1.234L8.938 14l-.968-.969a.75.75 0 1 1 1.06-1.06l.97.968L12.937 10l-.968-.969a.75.75 0 0 1 1.06-1.06l.97.968 5.025-5.025a3.4 3.4 0 0 0-1.22-.487m-3.806 7.635.97.97a.75.75 0 1 0 1.061-1.06l-.97-.97 5.023-5.024c.237.37.4.782.479 1.208.688 3.972-.527 8.14-3.396 10.96l-.008.008c-2.815 2.844-7.04 4.139-10.967 3.388h-.005a3.4 3.4 0 0 1-1.197-.47l5.01-5.01.97.97a.75.75 0 1 0 1.061-1.06l-.97-.97z" clip-rule="evenodd"/></svg>