<svg xmlns="http://www.w3.org/2000/svg" fill="none" viewBox="0 0 24 24"><path fill="currentColor" fill-rule="evenodd" d="M3.75 8.5a4.75 4.75 0 0 1 7.772-3.665.75.75 0 0 0 .956 0 4.75 4.75 0 0 1 6.687 6.687.75.75 0 0 0 0 .956 4.75 4.75 0 0 1-6.687 6.687.75.75 0 0 0-.956 0 4.75 4.75 0 0 1-6.687-6.687.75.75 0 0 0 0-.956A4.73 4.73 0 0 1 3.75 8.5M8.5 2.25A6.25 6.25 0 0 0 3.321 12 6.25 6.25 0 0 0 12 20.679 6.25 6.25 0 0 0 20.679 12 6.25 6.25 0 0 0 12 3.321 6.2 6.2 0 0 0 8.5 2.25m3.5 5A2.25 2.25 0 0 0 9.75 9.5v5a2.25 2.25 0 0 0 4.5 0v-5A2.25 2.25 0 0 0 12 7.25m-.75 2.25a.75.75 0 0 1 1.5 0v5a.75.75 0 0 1-1.5 0z" clip-rule="evenodd"/></svg>