<svg xmlns="http://www.w3.org/2000/svg" fill="none" viewBox="0 0 24 24"><path fill="currentColor" d="M21.39 11.356a.73.73 0 0 0-.73-.03l-2 1c-.37.19-.52.64-.34 1.01.19.37.64.52 1.01.34l.82-.41a8.254 8.254 0 0 1-7.4 6.95V8.656c1.43-.34 2.5-1.62 2.5-3.15 0-1.79-1.46-3.25-3.25-3.25s-3.25 1.46-3.25 3.25c0 1.53 1.07 2.81 2.5 3.15v11.56a8.254 8.254 0 0 1-7.4-6.95l.82.41c.37.19.82.04 1.01-.34s.04-.82-.34-1.01l-2-1a.76.76 0 0 0-.73.03c-.22.14-.36.38-.36.64 0 5.38 4.37 9.75 9.75 9.75s9.75-4.37 9.75-9.75c0-.26-.13-.5-.36-.64m-11.14-5.86c0-.96.79-1.75 1.75-1.75s1.75.79 1.75 1.75-.79 1.75-1.75 1.75-1.75-.79-1.75-1.75"/></svg>