<svg xmlns="http://www.w3.org/2000/svg" fill="none" viewBox="0 0 24 24"><path fill="currentColor" fill-rule="evenodd" d="M18 2.75a.25.25 0 0 0-.25.25v2c0 .137.112.25.25.25h2a.25.25 0 0 0 .25-.25V3a.25.25 0 0 0-.25-.25zM16.25 5v-.196c-1.33.199-2.145.933-2.665 1.824-.482.826-.712 1.799-.796 2.623h.212a1.75 1.75 0 0 1 1.749 1.75v.249h3.628a2.251 2.251 0 1 1 0 1.5H14.75V13A1.75 1.75 0 0 1 13 14.75h-.283c-.087 1.01-.36 2.27-1.007 3.378-.754 1.293-2.012 2.363-3.96 2.581V21A1.75 1.75 0 0 1 6 22.75H4A1.75 1.75 0 0 1 2.25 21v-2c0-.967.784-1.75 1.751-1.75l2 .001a1.75 1.75 0 0 1 1.749 1.75v.195c1.33-.199 2.145-.933 2.665-1.824.481-.826.712-1.799.796-2.623H11A1.75 1.75 0 0 1 9.25 13v-.249H5.622a2.25 2.25 0 1 1 0-1.5H9.25V11c0-.967.784-1.75 1.751-1.75h.282c.087-1.01.36-2.27 1.007-3.378.754-1.293 2.012-2.362 3.96-2.581V3c0-.967.784-1.75 1.751-1.75l2 .001a1.75 1.75 0 0 1 1.749 1.75V5A1.75 1.75 0 0 1 20 6.75h-2A1.75 1.75 0 0 1 16.25 5m-10 15v-.999a.25.25 0 0 0-.25-.25l-2-.001a.25.25 0 0 0-.25.25v2c0 .137.112.25.25.25h2a.25.25 0 0 0 .25-.25zM11 10.75a.25.25 0 0 0-.25.25v2c0 .137.112.25.25.25h2a.25.25 0 0 0 .25-.25v-2a.25.25 0 0 0-.25-.25zM19.75 12a.75.75 0 1 0 1.5 0 .75.75 0 0 0-1.5 0M3.5 11.25a.75.75 0 1 1 0 1.5.75.75 0 0 1 0-1.5" clip-rule="evenodd"/></svg>