<svg xmlns="http://www.w3.org/2000/svg" fill="none" viewBox="0 0 24 24"><path fill="currentColor" fill-rule="evenodd" d="M4.5 1.75c-1.52 0-2.75 1.23-2.75 2.75v15c0 1.52 1.23 2.75 2.75 2.75h15c1.52 0 2.75-1.23 2.75-2.75v-15c0-1.52-1.23-2.75-2.75-2.75zM3.25 4.5c0-.69.56-1.25 1.25-1.25h15c.69 0 1.25.56 1.25 1.25v15c0 .69-.56 1.25-1.25 1.25h-15c-.69 0-1.25-.56-1.25-1.25zm13.5 2c0-.23-.1-.44-.28-.58-.17-.14-.4-.2-.62-.16l-6.5 1.32a.75.75 0 0 0-.6.74v7.54l-1.57.6a1.443 1.443 0 1 0 1.05 2.69l.92-.37c.66-.27 1.1-.91 1.1-1.63v-6.54l5-.99v4.74l-1.57.6c-.56.21-.93.75-.93 1.35 0 1.02 1.03 1.71 1.98 1.34l.92-.37c.66-.27 1.1-.91 1.1-1.63z" clip-rule="evenodd"/></svg>