<svg xmlns="http://www.w3.org/2000/svg" fill="none" viewBox="0 0 24 24"><path fill="currentColor" fill-rule="evenodd" d="M2.75 4A.25.25 0 0 1 3 3.75h6a.25.25 0 0 1 .25.25v2.25h-6.5zm0 3.75h6.5V20a.25.25 0 0 1-.25.25H3a.25.25 0 0 1-.25-.25zM1.25 20V4c0-.966.784-1.75 1.75-1.75h6c.967 0 1.75.784 1.75 1.75v.398q.142-.067.298-.11l5.555-1.479a1.75 1.75 0 0 1 2.132 1.215l3.95 14.027a1.746 1.746 0 0 1-1.233 2.16l-5.554 1.48a1.75 1.75 0 0 1-2.133-1.215L10.75 9.768V20A1.75 1.75 0 0 1 9 21.75H3A1.75 1.75 0 0 1 1.25 20M6 16a1 1 0 1 0 0 2h.009a1 1 0 1 0 0-2zm11.276-.337a1 1 0 1 0 .518 1.932l.009-.002a1 1 0 0 0-.518-1.932zm.574-9.247-5.968 1.836-.622-2.209a.246.246 0 0 1 .174-.305l5.555-1.48a.25.25 0 0 1 .302.172l.722-.203-.722.203zm-5.562 3.28L15.21 20.07c.037.13.17.207.303.171l5.554-1.479a.247.247 0 0 0 .175-.305L18.257 7.86z" clip-rule="evenodd"/></svg>