<svg xmlns="http://www.w3.org/2000/svg" fill="none" viewBox="0 0 24 24"><path fill="currentColor" fill-rule="evenodd" d="M7 2.25a.75.75 0 0 1 .681.436l3 6.5a.75.75 0 0 1-1.362.628L7 4.79 4.681 9.814a.75.75 0 0 1-1.362-.628l3-6.5A.75.75 0 0 1 7 2.25M3.25 14a.75.75 0 0 1 .75-.75h5.4a.75.75 0 0 1 .618 1.174L6.025 20.25H10a.75.75 0 0 1 0 1.5H4.6a.75.75 0 0 1-.619-1.174l3.995-5.826H4a.75.75 0 0 1-.75-.75m15-10a.75.75 0 0 0-1.5 0v14.19l-1.22-1.22a.75.75 0 1 0-1.06 1.06l2.5 2.5a.75.75 0 0 0 1.06 0l2.5-2.5a.75.75 0 1 0-1.06-1.06l-1.22 1.22z" clip-rule="evenodd"/></svg>