<svg xmlns="http://www.w3.org/2000/svg" fill="none" viewBox="0 0 24 24"><path fill="currentColor" fill-rule="evenodd" d="M16.633 3.225a.25.25 0 0 1 .321.284L14.378 17.25h-4.74L8.013 7.084a1.25 1.25 0 0 1 .855-1.389zm-7.7 15.525a1 1 0 0 0 .13 0h5.872a1 1 0 0 0 .13 0H16c.69 0 1.25.56 1.25 1.25v1.25H6.75V20c0-.69.56-1.25 1.25-1.25zm-.813-1.5L6.53 7.321a2.75 2.75 0 0 1 1.883-3.055l7.765-2.47a1.75 1.75 0 0 1 2.25 1.99L15.904 17.25H16A2.75 2.75 0 0 1 18.75 20v1.25H20a.75.75 0 0 1 0 1.5H4a.75.75 0 0 1 0-1.5h1.25V20A2.75 2.75 0 0 1 8 17.25z" clip-rule="evenodd"/></svg>