<svg xmlns="http://www.w3.org/2000/svg" fill="none" viewBox="0 0 24 24"><path fill="currentColor" fill-rule="evenodd" d="M6.75 8a5.25 5.25 0 0 1 3.055-4.77 2.5 2.5 0 0 0-.055.52c0 1.4 1.162 2.5 2.55 2.5.646 0 1.24-.237 1.692-.63a.75.75 0 1 0-.984-1.131 1.07 1.07 0 0 1-.708.261c-.6 0-1.05-.467-1.05-1 0-.504.403-.95.955-.996A5.25 5.25 0 1 1 6.75 8M12 1.25q.093 0 .185.002l.115-.002q.076 0 .148.015a6.75 6.75 0 0 1 5.162 10.49 7.27 7.27 0 0 1 1.14 3.93c0 .907-.164 1.778-.464 2.578C17.31 20.87 14.88 22.75 12 22.75c-3.764 0-6.75-3.2-6.75-7.066 0-1.45.419-2.804 1.14-3.93A6.75 6.75 0 0 1 12 1.25m4.579 11.71a6.72 6.72 0 0 1-3.964 1.762c.56.589 1.094 1.037 1.665 1.39.765.473 1.634.798 2.788 1.032.118-.464.182-.954.182-1.46 0-.992-.244-1.92-.671-2.724m-6.071 1.624A6.73 6.73 0 0 1 7.42 12.96a5.8 5.8 0 0 0-.671 2.724c0 3.11 2.386 5.566 5.25 5.566 1.893 0 3.572-1.067 4.498-2.693-1.156-.257-2.122-.622-3.007-1.17-1.081-.668-1.996-1.581-2.983-2.802M10 7.25a.75.75 0 0 0 0 1.5h.008a.75.75 0 0 0 0-1.5zm3.992 0a.75.75 0 0 0 0 1.5H14a.75.75 0 0 0 0-1.5z" clip-rule="evenodd"/></svg>