<svg xmlns="http://www.w3.org/2000/svg" fill="none" viewBox="0 0 24 24"><path fill="currentColor" fill-rule="evenodd" d="M2.5 3.25a.75.75 0 1 0 0 1.5H3a.25.25 0 0 1 .25.25v11.919q-.423-.255-.82-.533a.75.75 0 1 0-.86 1.228C4.368 19.574 8.02 20.75 12 20.75s7.632-1.175 10.43-3.136a.75.75 0 1 0-.86-1.228q-.397.278-.82.533V5a.25.25 0 0 1 .25-.25h.5a.75.75 0 0 0 0-1.5H21A1.75 1.75 0 0 0 19.25 5v1.25H4.75V5A1.75 1.75 0 0 0 3 3.25zm14.25 4.5h2.5v6.5h-2.5zm-1.5 6.5v-6.5h-2.5v6.5zm-4 0v-6.5h-2.5v6.5zm-4 0v-6.5h-2.5v6.5zm-2.5 1.5v1.961c2.123.976 4.599 1.54 7.25 1.54 2.652 0 5.127-.564 7.25-1.54V15.75z" clip-rule="evenodd"/></svg>