<svg xmlns="http://www.w3.org/2000/svg" fill="none" viewBox="0 0 24 24"><path fill="currentColor" fill-rule="evenodd" d="M9.791 4.57a2.25 2.25 0 0 1 4.418 0A7.8 7.8 0 0 0 12 4.25c-.767 0-1.509.112-2.209.32m-1.541.646V5a3.75 3.75 0 1 1 7.5 0v.216a7.75 7.75 0 0 1 4 6.784v1.25h.75c.966 0 1.75.784 1.75 1.75v4a1.75 1.75 0 0 1-1.75 1.75h-.854a2.75 2.75 0 0 1-2.646 2H7a2.75 2.75 0 0 1-2.646-2H3.5A1.75 1.75 0 0 1 1.75 19v-4c0-.966.784-1.75 1.75-1.75h.75V12a7.75 7.75 0 0 1 4-6.784m-4 9.534H3.5a.25.25 0 0 0-.25.25v4c0 .138.112.25.25.25h.75zm15.5 4.5v-4.5h.75a.25.25 0 0 1 .25.25v4a.25.25 0 0 1-.25.25zM5.75 12a6.25 6.25 0 1 1 12.5 0v2.655c-1.706-.888-3.895-1.405-6.25-1.405s-4.544.517-6.25 1.405zm0 4.391V20c0 .69.56 1.25 1.25 1.25h10c.69 0 1.25-.56 1.25-1.25v-3.61c-1.5-.986-3.722-1.64-6.25-1.64s-4.75.654-6.25 1.641m4-6.391a.75.75 0 0 1 .75-.75h3a.75.75 0 0 1 0 1.5h-3a.75.75 0 0 1-.75-.75" clip-rule="evenodd"/></svg>