<svg xmlns="http://www.w3.org/2000/svg" fill="none" viewBox="0 0 24 24"><path fill="currentColor" fill-rule="evenodd" d="M12.014 3.25a.75.75 0 0 0-.618 1.176s.282.5.36.704c.172.451.197.815.087 1.036l-.011.024c-.178.39-.457.635-.856.83-.379.185-1.05.367-1.584.512-1.223.335-2.787.823-3.579 2.673-.42.983-.522 2.163-.34 3.241.075.437.199.875.378 1.286-.403.46-.76.985-1.036 1.603-.453 1.016-.66 2.23-.524 3.732a.75.75 0 0 0 1.494-.134c-.116-1.286.066-2.239.4-2.987q.222-.493.538-.91.13.129.275.244c.565.45 1.339.7 2.094.802.766.103 1.6.064 2.338-.143 1.413-.397 2.54-1.045 3.397-1.993.853-.943 1.396-2.134 1.726-3.546.402-1.646.176-3.624-.557-5.205-.73-1.574-2.067-2.945-3.982-2.945M1.25 9A2.75 2.75 0 0 1 4 6.25h1a.75.75 0 0 1 0 1.5H4c-.69 0-1.25.56-1.25 1.25v9a.75.75 0 0 1-1.5 0zM19 7.25a.75.75 0 0 1 .75.75v1.87l1.547.255a1.75 1.75 0 0 1 1.465 1.726v2.297a1.75 1.75 0 0 1-1.452 1.724l-1.56.27V17A2.75 2.75 0 0 1 17 19.75H9a.75.75 0 0 1 0-1.5h8c.69 0 1.25-.56 1.25-1.25V8a.75.75 0 0 1 .75-.75m.75 7.37v-3.23l1.302.214c.12.02.21.125.21.247v2.297a.25.25 0 0 1-.208.246z" clip-rule="evenodd"/></svg>