<svg xmlns="http://www.w3.org/2000/svg" fill="none" viewBox="0 0 24 24"><path fill="currentColor" fill-rule="evenodd" d="M17.75 5a1.25 1.25 0 1 1 2.5 0 1.25 1.25 0 0 1-2.5 0M19 2.25a2.75 2.75 0 1 0 0 5.5 2.75 2.75 0 0 0 0-5.5m-5.354 4.432c-1.092-.844-2.451-1.172-3.738-1.049-.551-.922-1.35-1.754-2.472-2.148-1.333-.469-2.939-.256-4.81.819a.75.75 0 0 0 .748 1.3c1.63-.936 2.773-.983 3.565-.704a2.8 2.8 0 0 1 1.081.71c-1.782.11-3.92.969-5.192 3.541a.75.75 0 1 0 1.344.665c1.035-2.092 2.78-2.705 4.183-2.721-1.056 2.255-2.501 6.508-2.6 11.38a12.8 12.8 0 0 0-3.236 1.95.75.75 0 1 0 .962 1.15c.88-.736 1.944-1.361 3.143-1.835a.7.7 0 0 0 .277-.106c1.525-.563 3.256-.884 5.099-.884 3.43 0 6.47 1.112 8.519 2.825a.75.75 0 1 0 .962-1.15c-2.35-1.966-5.743-3.175-9.481-3.175-1.664 0-3.26.24-4.727.68.194-4.468 1.548-8.323 2.483-10.29.502.654.994 1.94.994 4.36a.75.75 0 0 0 1.5 0c0-2.182-.378-3.752-.988-4.805a3.64 3.64 0 0 1 1.467.674c.855.66 1.521 1.816 1.521 3.628a.75.75 0 0 0 1.5 0c0-2.213-.834-3.833-2.104-4.815" clip-rule="evenodd"/></svg>