<svg xmlns="http://www.w3.org/2000/svg" fill="none" viewBox="0 0 24 24"><path fill="currentColor" fill-rule="evenodd" d="M2 4.25a.75.75 0 0 0-.75.75v14c0 .414.336.75.75.75h5.4c2.382 0 4.35-1.883 4.35-4.25 0-1.46-.75-2.737-1.882-3.5C11 11.237 11.75 9.96 11.75 8.5c0-2.367-1.968-4.25-4.35-4.25zm8.25 4.25c0 1.499-1.256 2.75-2.85 2.75H2.75v-5.5H7.4c1.594 0 2.85 1.251 2.85 2.75M7.4 12.75H2.75v5.5H7.4c1.594 0 2.85-1.251 2.85-2.75s-1.256-2.75-2.85-2.75m8.6-6.5a.75.75 0 0 0 0 1.5h4a.75.75 0 0 0 0-1.5zm2 3c-2.643 0-4.75 2.315-4.75 4.75v1a4.75 4.75 0 0 0 8.864 2.375.75.75 0 1 0-1.298-.75A3.25 3.25 0 0 1 14.75 15v-.25H22a.75.75 0 0 0 .75-.75c0-2.435-2.107-4.75-4.75-4.75m0 1.5c1.502 0 2.79 1.148 3.15 2.5h-6.3c.36-1.352 1.648-2.5 3.15-2.5" clip-rule="evenodd"/></svg>