<svg xmlns="http://www.w3.org/2000/svg" fill="none" viewBox="0 0 24 24"><path fill="currentColor" fill-rule="evenodd" d="M13 3.75A3.25 3.25 0 0 0 9.75 7v7A4.25 4.25 0 0 0 14 18.25h.5a3.75 3.75 0 0 0 0-7.5H13a.75.75 0 0 1 0-1.5h.5a2.75 2.75 0 0 0 0-5.5zm3.402 5.855A4.25 4.25 0 0 0 13.5 2.25H13A4.75 4.75 0 0 0 8.25 7v11.837c0 .78-.633 1.413-1.413 1.413h-.219c-.4 0-.768-.227-.947-.585a.75.75 0 1 0-1.342.67 2.56 2.56 0 0 0 2.29 1.415h.218a2.913 2.913 0 0 0 2.913-2.913v-.964A5.74 5.74 0 0 0 14 19.75h.5a5.25 5.25 0 0 0 1.902-10.145" clip-rule="evenodd"/></svg>