<svg xmlns="http://www.w3.org/2000/svg" fill="none" viewBox="0 0 24 24"><path fill="currentColor" fill-rule="evenodd" d="M17.697 4.985c-.545-.147-1.128-.188-1.722-.213l1.618 6.487q.201-.017.407-.017a4.749 4.749 0 1 1 0 9.496 4.749 4.749 0 0 1-1.863-9.117l-.432-1.734-4.07 6.507a.75.75 0 0 1-.635.352h-.31a4.75 4.75 0 0 1-9.44-.756 4.751 4.751 0 0 1 9.419-.879l.94-1.505L6.653 7.75H5a.75.75 0 0 1 0-1.5h5a.75.75 0 0 1 0 1.5H8.618l3.827 4.52L15.2 7.866l-.92-3.687a.76.76 0 0 1 .778-.942l.507.02c.735.023 1.681.054 2.522.28 1.117.3 2.202.98 2.63 2.468a.75.75 0 0 1-1.44.415c-.24-.834-.799-1.224-1.58-1.434m-1.19 8.12A3.248 3.248 0 0 0 18 19.237a3.249 3.249 0 1 0 0-6.496h-.037l.765 3.067a.75.75 0 0 1-1.455.363zm-7.343 2.141H6a.75.75 0 1 0 0 1.5h3.162a3.25 3.25 0 0 1-6.412-.756 3.25 3.25 0 0 1 6.414-.744" clip-rule="evenodd"/></svg>