<svg xmlns="http://www.w3.org/2000/svg" fill="none" viewBox="0 0 24 24"><path fill="currentColor" fill-rule="evenodd" d="M15 3.25a.75.75 0 0 0-.726.94l.95 3.639-2.78 4.449L8.618 7.75H9.5a.75.75 0 1 0 0-1.5l-4-.001a.75.75 0 1 0 0 1.5l1.152.001 4.958 5.863-.942 1.508a4.751 4.751 0 0 0-9.418.884 4.751 4.751 0 0 0 9.441.75H11a.75.75 0 0 0 .637-.353l4.109-6.577.463 1.777A4.754 4.754 0 0 0 18 20.758a4.75 4.75 0 0 0 4.75-4.752 4.75 4.75 0 0 0-5.08-4.74l-1.687-6.47c1.506.146 2.748.652 3.393 1.62a.75.75 0 1 0 1.248-.832C19.404 3.755 17.06 3.25 15 3.25m1.592 9.824.682 2.615a.75.75 0 1 0 1.452-.378l-.667-2.557a3.25 3.25 0 0 1 3.191 3.252 3.251 3.251 0 1 1-4.658-2.932m-7.43 2.18-2.661-.004a.75.75 0 0 0-.002 1.5l2.665.004a3.251 3.251 0 0 1-6.414-.748 3.251 3.251 0 0 1 6.413-.752" clip-rule="evenodd"/></svg>