<svg xmlns="http://www.w3.org/2000/svg" fill="none" viewBox="0 0 24 24"><path fill="currentColor" fill-rule="evenodd" d="M3.606 1.362a.75.75 0 0 1 .73-.033l4 2A.75.75 0 0 1 8.75 4v11.708l4.422-2.527-1.41-.47a.75.75 0 0 1-.49-.53l-1-4a.75.75 0 0 1 .929-.904l8.998 2.5a.75.75 0 0 1 .55.723V15a.75.75 0 0 1-.373.648l-11.998 7a.75.75 0 0 1-.776-.012l-4-2.5a.75.75 0 0 1-.352-.636V2a.75.75 0 0 1 .356-.638M4.75 3.214v15.87l3.263 2.04 11.235-6.555V11.07L12.04 9.067l.588 2.352 2.61.87a.75.75 0 0 1 .134 1.362l-7 4A.75.75 0 0 1 7.25 17V4.464z" clip-rule="evenodd"/></svg>