<svg xmlns="http://www.w3.org/2000/svg" fill="none" viewBox="0 0 24 24"><path fill="currentColor" fill-rule="evenodd" d="M7 1.25A2.75 2.75 0 0 0 4.25 4v16A2.75 2.75 0 0 0 7 22.75h10A2.75 2.75 0 0 0 19.75 20V4A2.75 2.75 0 0 0 17 1.25zM5.75 4c0-.69.56-1.25 1.25-1.25h10c.69 0 1.25.56 1.25 1.25v16c0 .69-.56 1.25-1.25 1.25H7c-.69 0-1.25-.56-1.25-1.25zM12 5.75a4.75 4.75 0 0 0-4.75 4.75V13a.75.75 0 0 0 1.5 0v-2.5a3.25 3.25 0 0 1 6.5 0V13a.75.75 0 0 0 1.5 0v-2.5A4.75 4.75 0 0 0 12 5.75M9.75 10.5a2.25 2.25 0 0 1 4.5 0v.5a.75.75 0 0 1-1.5 0v-.5a.75.75 0 0 0-1.5 0V14a.75.75 0 0 1-1.5 0zm3.75 2.25a.75.75 0 0 1 .75.75V15a.75.75 0 0 1-1.5 0v-1.5a.75.75 0 0 1 .75-.75M13 19a1 1 0 1 0-2 0v.01a1 1 0 1 0 2 0z" clip-rule="evenodd"/></svg>