<svg xmlns="http://www.w3.org/2000/svg" fill="none" viewBox="0 0 24 24"><path fill="currentColor" fill-rule="evenodd" d="M8.25 6.5a3.75 3.75 0 1 1 7.5 0v1.75h-7.5zm-1.5 1.75V6.5a5.25 5.25 0 1 1 10.5 0v1.75H18A2.75 2.75 0 0 1 20.75 11v9A2.75 2.75 0 0 1 18 22.75H6A2.75 2.75 0 0 1 3.25 20v-9A2.75 2.75 0 0 1 6 8.25zM6 9.75c-.69 0-1.25.56-1.25 1.25v9c0 .69.56 1.25 1.25 1.25h12c.69 0 1.25-.56 1.25-1.25v-9c0-.69-.56-1.25-1.25-1.25zm6 3A3.25 3.25 0 0 0 8.75 16v1.5a.75.75 0 0 1-1.5 0V16a4.75 4.75 0 1 1 9.5 0v1.5a.75.75 0 0 1-1.5 0V16A3.25 3.25 0 0 0 12 12.75M11.25 16a.75.75 0 0 1 1.5 0 .75.75 0 0 0 1.5 0 2.25 2.25 0 0 0-4.5 0v3a.75.75 0 0 0 1.5 0zm3 2a.75.75 0 0 0-1.5 0v1a.75.75 0 0 0 1.5 0z" clip-rule="evenodd"/></svg>