<svg xmlns="http://www.w3.org/2000/svg" fill="none" viewBox="0 0 24 24"><path fill="currentColor" fill-rule="evenodd" d="M4 3.25A2.75 2.75 0 0 0 1.25 6v12A2.75 2.75 0 0 0 4 20.75h16A2.75 2.75 0 0 0 22.75 18V6A2.75 2.75 0 0 0 20 3.25zM2.75 6c0-.69.56-1.25 1.25-1.25h2.24q.01.123.01.25a3.25 3.25 0 0 1-3.5 3.24zm0 3.744v4.513a4.75 4.75 0 0 1 4.993 4.993h8.513a4.75 4.75 0 0 1 4.994-4.993V9.743a4.75 4.75 0 0 1-4.994-4.993H7.744q.006.124.006.25a4.75 4.75 0 0 1-5 4.744m0 8.256v-2.24q.123-.01.25-.01a3.25 3.25 0 0 1 3.24 3.5H4c-.69 0-1.25-.56-1.25-1.25m18.5-2.24a3.25 3.25 0 0 0-3.49 3.49H20c.69 0 1.25-.56 1.25-1.25zm0-9.76v2.24q-.123.01-.25.01a3.25 3.25 0 0 1-3.24-3.5H20c.69 0 1.25.56 1.25 1.25m-8.5 2a.75.75 0 0 0-1.5 0v.25H9.5a.75.75 0 0 0 0 1.5h.25v4.5H9.5a.75.75 0 0 0 0 1.5h1.75V16a.75.75 0 0 0 1.5 0v-.25H13A2.25 2.25 0 0 0 14.677 12 2.25 2.25 0 0 0 13 8.25h-.25zm-1.5 3.25v-1.5H13a.75.75 0 0 1 0 1.5zm0 1.5H13a.75.75 0 0 1 0 1.5h-1.75z" clip-rule="evenodd"/></svg>