<svg xmlns="http://www.w3.org/2000/svg" fill="none" viewBox="0 0 24 24"><path fill="currentColor" fill-rule="evenodd" d="M3.75 10a7.25 7.25 0 0 1 14.5 0 .75.75 0 0 0 .126.416l1.606 2.41L18.55 13.9a.75.75 0 0 0-.3.6v3.367a.25.25 0 0 1-.281.248l-2.876-.36a.75.75 0 0 0-.843.745V22a.75.75 0 0 0 1.5 0v-2.65l2.033.254a1.75 1.75 0 0 0 1.967-1.737v-2.992l1.7-1.275a.75.75 0 0 0 .174-1.016l-1.877-2.816A8.75 8.75 0 1 0 5.25 16.595V22a.75.75 0 0 0 1.5 0v-4.35q.72.402 1.516.664a.75.75 0 1 0 .468-1.425 7.2 7.2 0 0 1-2.277-1.238A7.24 7.24 0 0 1 3.75 10m8-4a.75.75 0 0 0-1.5 0v.25H8.5a.75.75 0 0 0 0 1.5h.25v4.5H8.5a.75.75 0 0 0 0 1.5h1.75V14a.75.75 0 0 0 1.5 0v-.25H12A2.25 2.25 0 0 0 13.677 10 2.25 2.25 0 0 0 12 6.25h-.25zm-1.5 3.25v-1.5H12a.75.75 0 0 1 0 1.5zm0 1.5H12a.75.75 0 0 1 0 1.5h-1.75z" clip-rule="evenodd"/></svg>