<svg xmlns="http://www.w3.org/2000/svg" fill="none" viewBox="0 0 24 24"><path fill="currentColor" fill-rule="evenodd" d="M12 1.25a.75.75 0 0 1 .75.75v.78a9.25 9.25 0 0 1 8.47 8.47H22a.75.75 0 0 1 0 1.5h-.78a9.25 9.25 0 0 1-8.47 8.47V22a.75.75 0 0 1-1.5 0v-.78a9.25 9.25 0 0 1-8.47-8.47H2a.75.75 0 0 1 0-1.5h.78a9.25 9.25 0 0 1 8.47-8.47V2a.75.75 0 0 1 .75-.75m-7.714 11.5H5a.75.75 0 0 0 0-1.5h-.714a7.75 7.75 0 0 1 6.964-6.964V5a.75.75 0 0 0 1.5 0v-.714a7.75 7.75 0 0 1 6.964 6.964H19a.75.75 0 0 0 0 1.5h.714a7.75 7.75 0 0 1-6.964 6.964V19a.75.75 0 0 0-1.5 0v.714a7.75 7.75 0 0 1-6.964-6.964M12.75 8a.75.75 0 0 0-1.5 0v.25H9.5a.75.75 0 0 0 0 1.5h.25v4.5H9.5a.75.75 0 0 0 0 1.5h1.75V16a.75.75 0 0 0 1.5 0v-.25H13A2.25 2.25 0 0 0 14.677 12 2.25 2.25 0 0 0 13 8.25h-.25zm-1.5 3.25v-1.5H13a.75.75 0 0 1 0 1.5zm0 1.5H13a.75.75 0 0 1 0 1.5h-1.75z" clip-rule="evenodd"/></svg>