<svg xmlns="http://www.w3.org/2000/svg" fill="none" viewBox="0 0 24 24"><path fill="currentColor" fill-rule="evenodd" d="M1.25 11c0-5.385 4.365-9.75 9.75-9.75s9.75 4.365 9.75 9.75a9.7 9.7 0 0 1-2.346 6.344l4.126 4.126a.75.75 0 1 1-1.06 1.06l-4.126-4.126A9.7 9.7 0 0 1 11 20.75 9.75 9.75 0 0 1 1.25 11M11 2.75a8.25 8.25 0 1 0 0 16.5 8.25 8.25 0 0 0 0-16.5M11.75 7a.75.75 0 0 0-1.5 0v.25H8.5a.75.75 0 0 0 0 1.5h.25v4.5H8.5a.75.75 0 0 0 0 1.5h1.75V15a.75.75 0 0 0 1.5 0v-.25H12A2.25 2.25 0 0 0 13.677 11 2.25 2.25 0 0 0 12 7.25h-.25zm-1.5 3.25v-1.5H12a.75.75 0 0 1 0 1.5zm0 1.5H12a.75.75 0 0 1 0 1.5h-1.75z" clip-rule="evenodd"/></svg>