<svg xmlns="http://www.w3.org/2000/svg" fill="none" viewBox="0 0 24 24"><path fill="currentColor" fill-rule="evenodd" d="M4.941 1.394a.75.75 0 1 0-.882 1.213l5.5 4a.75.75 0 0 0 .971-.077L14 3.06l4.19 4.19H16.5a.75.75 0 1 0 0 1.5H20a.75.75 0 0 0 .75-.75V4.5a.75.75 0 0 0-1.5 0v1.69l-4.72-4.72a.75.75 0 0 0-1.06 0L9.923 5.017zM3.25 15.5a7.25 7.25 0 1 1 14.5 0 7.25 7.25 0 0 1-14.5 0m7.25-5.75a5.75 5.75 0 1 0 0 11.5 5.75 5.75 0 0 0 0-11.5m0 1.5a.75.75 0 0 1 .75.75v.25a2 2 0 0 1 1.561 3.25 2 2 0 0 1-1.561 3.25V19a.75.75 0 0 1-1.5 0v-.25H8.5a.75.75 0 0 1 0-1.5h.25v-3.5H8.5a.75.75 0 0 1 0-1.5h1.25V12a.75.75 0 0 1 .75-.75m-.25 2.5v1h1a.5.5 0 0 0 0-1zm1 2.5h-1v1h1a.5.5 0 0 0 0-1" clip-rule="evenodd"/></svg>