<svg xmlns="http://www.w3.org/2000/svg" fill="none" viewBox="0 0 24 24"><path fill="currentColor" fill-rule="evenodd" d="M1.25 12.5a5.75 5.75 0 0 1 4.603-5.635 6.252 6.252 0 0 1 12.394.938A5.251 5.251 0 0 1 17.5 18.25a.75.75 0 0 1 0-1.5 3.75 3.75 0 0 0 .614-7.45 6.2 6.2 0 0 1-1.293 2.678.75.75 0 1 1-1.156-.956A4.72 4.72 0 0 0 16.75 8a4.75 4.75 0 0 0-9.338-1.235c1.135.08 2.18.49 3.039 1.135a.75.75 0 1 1-.901 1.2 4.23 4.23 0 0 0-2.959-.83 4.25 4.25 0 0 0 0 8.46.75.75 0 1 1-.142 1.494A5.75 5.75 0 0 1 1.25 12.5m11.5 1a.75.75 0 0 0-1.5 0v.25H9.5a.75.75 0 0 0 0 1.5h.25v4.5H9.5a.75.75 0 0 0 0 1.5h1.75v.25a.75.75 0 0 0 1.5 0v-.25H13a2.25 2.25 0 0 0 1.677-3.75A2.25 2.25 0 0 0 13 13.75h-.25zm-1.5 3.25v-1.5H13a.75.75 0 0 1 0 1.5zm0 1.5H13a.75.75 0 0 1 0 1.5h-1.75z" clip-rule="evenodd"/></svg>