<svg xmlns="http://www.w3.org/2000/svg" fill="none" viewBox="0 0 24 24"><path fill="currentColor" fill-rule="evenodd" d="M4 2.25A2.75 2.75 0 0 0 1.25 5v2c0 1.255.85 2.414 2.063 2.726a.75.75 0 0 0 .374-1.452C3.174 8.142 2.75 7.609 2.75 7V5c0-.69.56-1.25 1.25-1.25h16c.69 0 1.25.56 1.25 1.25v2c0 .61-.424 1.142-.937 1.274a.75.75 0 1 0 .374 1.452C21.899 9.414 22.75 8.255 22.75 7V5A2.75 2.75 0 0 0 20 2.25zM5.25 7A.75.75 0 0 1 6 6.25h12a.75.75 0 0 1 .75.75v12A2.75 2.75 0 0 1 16 21.75H8A2.75 2.75 0 0 1 5.25 19zm1.5.75V19c0 .69.56 1.25 1.25 1.25h8c.69 0 1.25-.56 1.25-1.25V7.75zM12 9.25a.75.75 0 0 1 .75.75v.25H13A2.25 2.25 0 0 1 14.677 14 2.25 2.25 0 0 1 13 17.75h-.25V18a.75.75 0 0 1-1.5 0v-.25H9.5a.75.75 0 0 1 0-1.5h.25v-4.5H9.5a.75.75 0 0 1 0-1.5h1.75V10a.75.75 0 0 1 .75-.75m-.75 2.5v1.5H13a.75.75 0 0 0 0-1.5zm1.75 3h-1.75v1.5H13a.75.75 0 0 0 0-1.5" clip-rule="evenodd"/></svg>