<svg xmlns="http://www.w3.org/2000/svg" fill="none" viewBox="0 0 24 24"><path fill="currentColor" fill-rule="evenodd" d="M3.25 4.5c0-.69.56-1.25 1.25-1.25h15c.69 0 1.25.56 1.25 1.25v15c0 .69-.56 1.25-1.25 1.25h-15c-.69 0-1.25-.56-1.25-1.25zM4.5 1.75A2.75 2.75 0 0 0 1.75 4.5v15a2.75 2.75 0 0 0 2.75 2.75h15a2.75 2.75 0 0 0 2.75-2.75v-15a2.75 2.75 0 0 0-2.75-2.75zm5.5 4.5A3.75 3.75 0 0 0 6.25 10v4A3.75 3.75 0 0 0 10 17.75h4A3.75 3.75 0 0 0 17.75 14v-2A1.75 1.75 0 0 0 16 10.25h-.25V10A3.75 3.75 0 0 0 12 6.25zM7.75 10A2.25 2.25 0 0 1 10 7.75h2A2.25 2.25 0 0 1 14.25 10v1c0 .414.336.75.75.75h1a.25.25 0 0 1 .25.25v2A2.25 2.25 0 0 1 14 16.25h-4A2.25 2.25 0 0 1 7.75 14zm1.5 0a.75.75 0 0 1 .75-.75h1a.75.75 0 0 1 0 1.5h-1a.75.75 0 0 1-.75-.75m.75 3.25a.75.75 0 0 0 0 1.5h4a.75.75 0 0 0 0-1.5z" clip-rule="evenodd"/></svg>