<svg xmlns="http://www.w3.org/2000/svg" fill="none" viewBox="0 0 24 24"><path fill="currentColor" fill-rule="evenodd" d="M18.5 1.941a.75.75 0 0 1 .25.559v1.25a14 14 0 0 1 3.427.415.75.75 0 0 1 .573.729v14.5a.75.75 0 0 1-.927.728c-3.077-.747-5.411-.245-6.965.422a8.7 8.7 0 0 0-1.76 1.006 9 9 0 0 0-.556.468.75.75 0 0 1-1.084 0 9 9 0 0 0-.555-.468 8.6 8.6 0 0 0-1.761-1.006c-1.554-.667-3.888-1.17-6.965-.422a.75.75 0 0 1-.927-.728v-14.5a.75.75 0 0 1 .6-.735c3.642-.739 6.298-.197 8.067.568a9 9 0 0 1 1.824 1.046c.907-1.646 2.295-2.627 3.499-3.2a10 10 0 0 1 1.854-.66l.105-.027c.232-.058.523-.131.718-.131a.75.75 0 0 1 .583.186M11.25 7.31a5 5 0 0 0-.294-.249 7.4 7.4 0 0 0-1.635-.957c-1.395-.603-3.547-1.09-6.571-.586v12.951c2.98-.533 5.33-.013 6.983.696.54.232 1.074.537 1.517.82zm3.247 11.76c1.638-.66 3.908-1.11 6.753-.6V5.495a12.3 12.3 0 0 0-2.5-.246V16a.75.75 0 0 1-.512.711c-.417.19-1.643.752-2.26 1.163-.491.328-1.002.724-1.481 1.196M17.25 4.522v10.966c-.473.216-1.407.674-2.104 1.138a11.1 11.1 0 0 0-2.396 2.13V7.14c.675-1.684 1.962-2.654 3.135-3.213a8.3 8.3 0 0 1 1.365-.506z" clip-rule="evenodd"/></svg>