<svg xmlns="http://www.w3.org/2000/svg" fill="none" viewBox="0 0 24 24"><path fill="currentColor" fill-rule="evenodd" d="M2.25 5A3.75 3.75 0 0 1 6 1.25h12A3.75 3.75 0 0 1 21.75 5v12a3.75 3.75 0 0 1-2 3.317V22a.75.75 0 0 1-1.5 0v-1.258a4 4 0 0 1-.25.008H6q-.126 0-.25-.008V22a.75.75 0 0 1-1.5 0v-1.683a3.75 3.75 0 0 1-2-3.317zM6 2.75A2.25 2.25 0 0 0 3.75 5v5.25h2.5V6a.75.75 0 0 1 1.5 0v4.25h4.642l-1.588-3.971a.75.75 0 0 1 1.392-.557l1.812 4.528h2.242V6a.75.75 0 0 1 1.5 0v4.25h2.5V5A2.25 2.25 0 0 0 18 2.75zm14.25 9H3.75V17A2.25 2.25 0 0 0 6 19.25h1.25V15a.75.75 0 1 1 1.5 0v4.25h2.5V15a.75.75 0 1 1 1.5 0v4.25h2.589l.927-4.404a.75.75 0 1 1 1.468.309l-.862 4.095H18A2.25 2.25 0 0 0 20.25 17z" clip-rule="evenodd"/></svg>