<svg xmlns="http://www.w3.org/2000/svg" fill="none" viewBox="0 0 24 24"><path fill="currentColor" fill-rule="evenodd" d="M3.25 5.5A2.25 2.25 0 0 1 5.5 3.25h1a.75.75 0 0 0 0-1.5h-1A3.75 3.75 0 0 0 1.75 5.5v13a3.75 3.75 0 0 0 3.75 3.75h1a.75.75 0 0 0 0-1.5h-1a2.25 2.25 0 0 1-2.25-2.25v-5.75H4.4a.75.75 0 0 0 0-1.5H3.25zM10 1.75a.75.75 0 0 0 0 1.5h1.25V4.4a.75.75 0 0 0 1.5 0V3.25H14a.75.75 0 0 0 0-1.5zm7.75 0a.75.75 0 0 0 0 1.5h.75a2.25 2.25 0 0 1 2.25 2.25v.75a.75.75 0 0 0 1.5 0V5.5a3.75 3.75 0 0 0-3.75-3.75zm4.5 8.25a.75.75 0 0 0-1.5 0v1.25H19.6a.75.75 0 0 0 0 1.5h1.15V14a.75.75 0 0 0 1.5 0zm0 7.75a.75.75 0 0 0-1.5 0v.75a2.25 2.25 0 0 1-2.25 2.25h-.75a.75.75 0 0 0 0 1.5h.75a3.75 3.75 0 0 0 3.75-3.75zm-12.25 3a.75.75 0 0 0 0 1.5h4a.75.75 0 0 0 0-1.5h-1.25V19.6a.75.75 0 0 0-1.5 0v1.15zm2.75-11.6a.75.75 0 0 0-1.5 0v2.1h-2.1a.75.75 0 0 0 0 1.5h2.1v2.1a.75.75 0 0 0 1.5 0v-2.1h2.1a.75.75 0 0 0 0-1.5h-2.1z" clip-rule="evenodd"/></svg>