<svg xmlns="http://www.w3.org/2000/svg" fill="none" viewBox="0 0 24 24"><path fill="currentColor" fill-rule="evenodd" d="M2.25 4c0-.966.784-1.75 1.75-1.75h16c.966 0 1.75.784 1.75 1.75v1c0 .6-.303 1.13-.764 1.446l1.424 3.56c.225.562.34 1.16.34 1.765V21a.75.75 0 0 1-.75.75h-8a.75.75 0 0 1-.75-.75v-4.587a.25.25 0 0 0-.073-.176L12 15.06l-1.177 1.177a.25.25 0 0 0-.073.176V21a.75.75 0 0 1-.75.75H2a.75.75 0 0 1-.75-.75v-9.23c0-.604.115-1.202.34-1.764l1.424-3.56A1.75 1.75 0 0 1 2.25 5zm18.768 6.563L19.492 6.75h-6.217l1.88 3.386a.75.75 0 1 1-1.31.728L11.974 7.5l-.832 1.387a.75.75 0 1 1-1.286-.772l.819-1.364H4.507l-1.526 3.813a3.3 3.3 0 0 0-.232 1.207v8.48h6.5v-3.836c0-.464.184-.909.513-1.237L10.939 14l-1.47-1.47a.75.75 0 1 1 1.061-1.06l3.707 3.707c.329.328.513.773.513 1.237v3.836h6.5v-8.48a3.3 3.3 0 0 0-.233-1.207M12 5.25h8a.25.25 0 0 0 .25-.25V4a.25.25 0 0 0-.25-.25H4a.25.25 0 0 0-.25.25v1c0 .138.112.25.25.25z" clip-rule="evenodd"/></svg>