<svg xmlns="http://www.w3.org/2000/svg" fill="none" viewBox="0 0 24 24"><path fill="currentColor" fill-rule="evenodd" d="M2.75 11a8.25 8.25 0 1 1 16.5 0 .75.75 0 0 0 .08.335l1.757 3.517-1.617 1.618a.75.75 0 0 0-.205.383l-.655 3.272a1.25 1.25 0 0 1-1.315 1.001L12.72 20.8a.25.25 0 0 1-.22-.17l-.289-.866a.75.75 0 0 0-1.422.474l.288.867a1.75 1.75 0 0 0 1.536 1.192l4.576.326a2.75 2.75 0 0 0 2.892-2.203l.61-3.05 1.84-1.839a.75.75 0 0 0 .14-.865l-1.923-3.845C20.652 5.518 16.324 1.25 11 1.25A9.75 9.75 0 0 0 1.25 11c0 2.053.636 3.832 1.71 5.365l.582-.408-.582.408c.19.273.29.565.29.843V22a.75.75 0 0 0 1.5 0v-4.792c0-.638-.227-1.225-.562-1.703C3.276 14.203 2.75 12.72 2.75 11M8 5.25c.349 0 .683.065.991.184a3.25 3.25 0 0 1 5.516.831C15.73 6.4 16.75 7.447 16.75 8.75a2.5 2.5 0 0 1-1.602 2.334l-.103.517a2.67 2.67 0 0 1-2.622 2.149c-.648 0-1.173.525-1.173 1.173V15a.75.75 0 0 1-1.5 0v-.077a2.673 2.673 0 0 1 2.673-2.673c.56 0 1.041-.395 1.15-.943l.03-.142a2.5 2.5 0 0 1-1.103-.63.75.75 0 0 1 1.05-1.07 1 1 0 0 0 1.7-.714c0-.396-.248-.74-.586-.902A.75.75 0 0 1 13.25 7.5q0-.172-.032-.333a1.75 1.75 0 0 0-3.027-.829A2.74 2.74 0 0 1 10.75 8a.75.75 0 0 1-1.5 0A1.246 1.246 0 0 0 8 6.75a1.25 1.25 0 0 0-.826 2.189.75.75 0 0 1-.465 1.312 1 1 0 1 0 .945 1.427.75.75 0 1 1 1.355.644 2.5 2.5 0 1 1-3.531-3.225A2.75 2.75 0 0 1 8 5.25" clip-rule="evenodd"/></svg>