<svg xmlns="http://www.w3.org/2000/svg" fill="none" viewBox="0 0 24 24"><path fill="currentColor" fill-rule="evenodd" d="M8.135 3.253A1.75 1.75 0 0 1 9.868 1.75h4.265c.87 0 1.61.64 1.732 1.503l.286 1.997H19.5A2.75 2.75 0 0 1 22.25 8v11.5a2.75 2.75 0 0 1-2.75 2.75h-15a2.75 2.75 0 0 1-2.75-2.75V8A2.75 2.75 0 0 1 4.5 5.25h3.35zM20.75 10.75H18a.75.75 0 0 0 0 1.5h2.75v7.25c0 .69-.56 1.25-1.25 1.25h-15c-.69 0-1.25-.56-1.25-1.25v-7.25H6a.75.75 0 0 0 0-1.5H3.25V8c0-.69.56-1.25 1.25-1.25h15c.69 0 1.25.56 1.25 1.25zm-6.37-7.285.255 1.785h-5.27l.255-1.785a.25.25 0 0 1 .248-.215h4.265a.25.25 0 0 1 .248.215M12.75 10.5a.75.75 0 0 0-1.5 0v.334a2.95 2.95 0 0 0-1.114.505c-.504.378-.886.958-.886 1.661s.382 1.283.886 1.66c.504.379 1.165.59 1.864.59.406 0 .744.124.964.29.22.164.286.335.286.46s-.066.296-.286.46c-.22.166-.558.29-.964.29-.668 0-1.09-.321-1.208-.57a.75.75 0 1 0-1.357.64c.33.7 1.026 1.165 1.815 1.346v.334a.75.75 0 0 0 1.5 0v-.334a2.95 2.95 0 0 0 1.114-.505c.504-.378.886-.958.886-1.661s-.382-1.283-.886-1.66c-.504-.379-1.165-.59-1.864-.59-.406 0-.744-.124-.964-.29-.22-.164-.286-.335-.286-.46s.066-.296.286-.46c.22-.166.558-.29.964-.29.668 0 1.09.321 1.208.57a.75.75 0 1 0 1.357-.64c-.33-.7-1.026-1.165-1.815-1.345z" clip-rule="evenodd"/></svg>