<svg xmlns="http://www.w3.org/2000/svg" fill="none" viewBox="0 0 24 24"><path fill="currentColor" fill-rule="evenodd" d="M2.75 12A9.25 9.25 0 0 1 12 2.75a.75.75 0 0 0 0-1.5C6.063 1.25 1.25 6.063 1.25 12c0 1.714.44 3.196 1.148 4.569l.666-.344-.666.343c.184.357.227.739.128 1.069l-.71 2.369c-.401 1.335.843 2.58 2.178 2.179l2.37-.711c.33-.099.71-.056 1.068.128 1.372.708 2.854 1.148 4.568 1.148 5.027 0 9.037-3.443 10.226-8.063a.75.75 0 1 0-1.452-.374C19.742 18.32 16.292 21.25 12 21.25c-1.438 0-2.686-.364-3.88-.98-.65-.336-1.433-.46-2.188-.233l-2.369.711a.25.25 0 0 1-.311-.311l.71-2.37c.227-.754.104-1.536-.231-2.186-.616-1.195-.981-2.443-.981-3.881M18.5 2.75c-.69 0-1.25.56-1.25 1.25v.75H22a.75.75 0 0 1 .75.75V11a.75.75 0 0 1-.75.75h-7a.75.75 0 0 1-.75-.75V5.5a.75.75 0 0 1 .75-.75h.75V4a2.75 2.75 0 0 1 5.132-1.376.75.75 0 1 1-1.299.752A1.25 1.25 0 0 0 18.5 2.75m-2.75 3.5v4h5.5v-4zM7 11.982a1 1 0 0 1 1-1h.009a1 1 0 1 1 0 2H8a1 1 0 0 1-1-1m3.995 0a1 1 0 0 1 1-1h.009a1 1 0 1 1 0 2h-.01a1 1 0 0 1-1-1" clip-rule="evenodd"/></svg>