<svg xmlns="http://www.w3.org/2000/svg" fill="none" viewBox="0 0 24 24"><path fill="currentColor" fill-rule="evenodd" d="M10.612 2.742a.75.75 0 1 0-.224-1.484C5.205 2.038 1.25 6.621 1.25 12c0 1.714.44 3.196 1.148 4.569l.666-.344-.666.344c.184.356.227.738.128 1.068l-.71 2.369c-.401 1.335.843 2.58 2.178 2.179l2.37-.71c.33-.1.71-.056 1.068.127 1.372.708 2.854 1.148 4.568 1.148 5.937 0 10.75-4.813 10.75-10.75q-.002-1.104-.215-2.15a.75.75 0 0 0-1.47.3q.183.897.185 1.85A9.25 9.25 0 0 1 12 21.25c-1.438 0-2.686-.364-3.88-.98-.65-.336-1.433-.46-2.188-.233l-2.369.711a.25.25 0 0 1-.311-.311l.71-2.37c.227-.754.104-1.536-.231-2.186-.616-1.195-.981-2.443-.981-3.88 0-4.648 3.422-8.591 7.862-9.26M17.5 1.25c-1.532 0-2.835.911-3.69 1.698a10.6 10.6 0 0 0-1.402 1.589l-.021.03-.006.01-.002.003-.002.001a.75.75 0 0 0 0 .837L13 5c-.623.418-.622.419-.622.419v.001l.003.003.006.01.021.03.078.108a10.6 10.6 0 0 0 1.324 1.48c.854.788 2.158 1.699 3.69 1.699 1.531 0 2.835-.911 3.69-1.698a10.6 10.6 0 0 0 1.401-1.589l.022-.03.006-.01.002-.003.001-.001a.75.75 0 0 0 0-.837L22 5l.622-.419V4.58l-.003-.003-.006-.01-.022-.03-.077-.108a10.6 10.6 0 0 0-1.324-1.48c-.855-.789-2.16-1.699-3.69-1.699M22 5l.622.419zm-9 0-.623-.419zm1.826.948A9 9 0 0 1 13.939 5c.211-.26.515-.606.887-.948.774-.713 1.72-1.302 2.674-1.302s1.9.589 2.674 1.302c.372.342.676.687.887.948-.211.26-.515.606-.887.948-.774.713-1.72 1.302-2.674 1.302s-1.9-.589-2.674-1.302M16.5 5a1 1 0 0 1 1-1h.009a1 1 0 1 1 0 2H17.5a1 1 0 0 1-1-1M8 11a1 1 0 1 0 0 2h.009a1 1 0 1 0 0-2zm3.996 0a1 1 0 1 0 0 2h.008a1 1 0 1 0 0-2zm4 0a1 1 0 1 0 0 2h.008a1 1 0 1 0 0-2z" clip-rule="evenodd"/></svg>