<svg xmlns="http://www.w3.org/2000/svg" fill="none" viewBox="0 0 24 24"><path fill="currentColor" fill-rule="evenodd" d="M3.75 4c0-.69.56-1.25 1.25-1.25h8.03c.69 0 1.25.56 1.25 1.25v17.25h-2.53V17A1.75 1.75 0 0 0 10 15.25H8A1.75 1.75 0 0 0 6.25 17v4.25h-2.5zM7 22.75H3a.75.75 0 0 1-.75-.75V4A2.75 2.75 0 0 1 5 1.25h8.03A2.75 2.75 0 0 1 15.78 4v3.255H19a2.75 2.75 0 0 1 2.75 2.75V22a.75.75 0 0 1-.75.75zm3.25-1.5h-2.5V17a.25.25 0 0 1 .25-.25h2a.25.25 0 0 1 .25.25zm10 0h-4.47V8.755H19c.69 0 1.25.56 1.25 1.25zM6.75 6.01a.75.75 0 0 1 .75-.75h3a.75.75 0 0 1 0 1.5h-3a.75.75 0 0 1-.75-.75m4.5 2.985a.75.75 0 0 1-.745.755l-3 .02a.75.75 0 1 1-.01-1.5l3-.02a.75.75 0 0 1 .755.745m-4.5 3.015a.75.75 0 0 1 .75-.75h3a.75.75 0 0 1 0 1.5h-3a.75.75 0 0 1-.75-.75" clip-rule="evenodd"/></svg>