<svg xmlns="http://www.w3.org/2000/svg" fill="none" viewBox="0 0 24 24"><path fill="currentColor" fill-rule="evenodd" d="M3.25 2A.75.75 0 0 1 4 1.25h16a.75.75 0 0 1 0 1.5h-5.565l-1.143 2H15a.75.75 0 0 1 0 1.5H9a.75.75 0 0 1 0-1.5h2.565l1.143-2H4A.75.75 0 0 1 3.25 2M12 7.25h4.522c1.489 0 2.9.896 3.34 2.409.42 1.437.888 3.553.888 5.841q0 .21-.005.412a.8.8 0 0 1-.007.223 15.6 15.6 0 0 1-.848 4.56c-.476 1.357-1.787 2.055-3.089 2.055H7.2c-1.302 0-2.613-.698-3.09-2.055a15.6 15.6 0 0 1-.847-4.56.8.8 0 0 1-.007-.223 17 17 0 0 1-.005-.412c0-2.288.469-4.404.888-5.841.44-1.513 1.85-2.409 3.34-2.409zm-7.248 8c.032-2.002.446-3.867.826-5.172.23-.791.99-1.328 1.9-1.328h3.772v6.5zm.05 1.5c.12 1.442.43 2.614.723 3.449.222.632.868 1.051 1.674 1.051H16.8c.806 0 1.452-.42 1.674-1.051.293-.835.603-2.007.723-3.449zm14.446-1.5H12.75v-6.5h3.772c.91 0 1.67.537 1.9 1.328.38 1.305.794 3.17.826 5.172" clip-rule="evenodd"/></svg>