<svg xmlns="http://www.w3.org/2000/svg" fill="none" viewBox="0 0 24 24"><path fill="currentColor" fill-rule="evenodd" d="M6 2.25a.75.75 0 0 0-.643.364l-1.5 2.5a.75.75 0 0 0-.107.386c0 1.151.599 2.162 1.5 2.739V11a.75.75 0 0 0 1.5 0V8.74q.124.01.25.01a3.24 3.24 0 0 0 2.5-1.173A3.24 3.24 0 0 0 12 8.75a3.24 3.24 0 0 0 2.5-1.173 3.24 3.24 0 0 0 2.75 1.163V11a.75.75 0 0 0 1.5 0V8.239a3.25 3.25 0 0 0 1.5-2.739.75.75 0 0 0-.107-.386l-1.5-2.5A.75.75 0 0 0 18 2.25zm6 5a1.75 1.75 0 0 1-1.75-1.75.75.75 0 0 0-1.5 0 1.75 1.75 0 0 1-3.49.19l1.165-1.94h11.15l1.165 1.94A1.75 1.75 0 0 1 17 7.25a1.75 1.75 0 0 1-1.75-1.75.75.75 0 0 0-1.5 0A1.75 1.75 0 0 1 12 7.25M3.75 12a.75.75 0 0 0-1.5 0v9a.75.75 0 0 0 1.5 0v-3.25h3.5V21a.75.75 0 0 0 1.5 0v-4a.75.75 0 0 0-.75-.75H3.75zM21 11.25a.75.75 0 0 1 .75.75v9a.75.75 0 0 1-1.5 0v-3.25h-3.5V21a.75.75 0 0 1-1.5 0v-4a.75.75 0 0 1 .75-.75h4.25V12a.75.75 0 0 1 .75-.75m-14 2a.75.75 0 0 0 0 1.5h4.25v5.5H11a.75.75 0 0 0 0 1.5h2a.75.75 0 0 0 0-1.5h-.25v-5.5H17a.75.75 0 0 0 0-1.5z" clip-rule="evenodd"/></svg>