<svg xmlns="http://www.w3.org/2000/svg" fill="none" viewBox="0 0 24 24"><path fill="currentColor" fill-rule="evenodd" d="M4.25 4.5c0-.69.56-1.25 1.25-1.25h13c.69 0 1.25.56 1.25 1.25v4.25H4.25zm-1.5 5v-5A2.75 2.75 0 0 1 5.5 1.75h13a2.75 2.75 0 0 1 2.75 2.75v15a2.75 2.75 0 0 1-2.75 2.75h-13a2.75 2.75 0 0 1-2.75-2.75zm17 .75v9.25c0 .69-.56 1.25-1.25 1.25h-13c-.69 0-1.25-.56-1.25-1.25v-9.25zm-2.25-3.5h-2a.75.75 0 0 1 0-1.5h2a.75.75 0 0 1 0 1.5M6.25 13.5a.75.75 0 0 1 .75-.75h1a.75.75 0 0 1 0 1.5H7a.75.75 0 0 1-.75-.75m4.5 0a.75.75 0 0 1 .75-.75h1a.75.75 0 0 1 0 1.5h-1a.75.75 0 0 1-.75-.75m4.5 0a.75.75 0 0 1 .75-.75h1a.75.75 0 0 1 0 1.5h-1a.75.75 0 0 1-.75-.75M7 16.75a.75.75 0 0 0 0 1.5h1a.75.75 0 0 0 0-1.5zm4.5 0a.75.75 0 0 0 0 1.5h1a.75.75 0 0 0 0-1.5zm4.5 0a.75.75 0 0 0 0 1.5h1a.75.75 0 0 0 0-1.5z" clip-rule="evenodd"/></svg>