<svg xmlns="http://www.w3.org/2000/svg" fill="none" viewBox="0 0 24 24"><path fill="currentColor" fill-rule="evenodd" d="M6.75 2a.75.75 0 0 0-1.5 0v.75H4.5A2.75 2.75 0 0 0 1.75 5.5V20a2.75 2.75 0 0 0 2.75 2.75h7a.75.75 0 0 0 0-1.5h-7c-.69 0-1.25-.56-1.25-1.25V9.25h17.5V13a.75.75 0 0 0 1.5 0V5.5a2.75 2.75 0 0 0-2.75-2.75h-.75V2a.75.75 0 0 0-1.5 0v.75H6.75zm14 5.75V5.5c0-.69-.56-1.25-1.25-1.25h-.75V5a.75.75 0 0 1-1.5 0v-.75H6.75V5a.75.75 0 0 1-1.5 0v-.75H4.5c-.69 0-1.25.56-1.25 1.25v2.25zm-2.28 7.72a.75.75 0 0 1 1.06 0l2.5 2.5a.75.75 0 0 1 0 1.06l-2.5 2.5a.75.75 0 1 1-1.06-1.06l1.22-1.22H14a.75.75 0 0 1 0-1.5h5.69l-1.22-1.22a.75.75 0 0 1 0-1.06" clip-rule="evenodd"/></svg>