<svg xmlns="http://www.w3.org/2000/svg" fill="none" viewBox="0 0 24 24"><path fill="currentColor" fill-rule="evenodd" d="M2.25 4.024A1.73 1.73 0 0 1 3.988 2.25H7.34a1.75 1.75 0 0 1 1.6 1.04l1.484 3.34c.27.61.172 1.32-.255 1.832l-1.71 2.053a.24.24 0 0 0-.039.246c.632 1.404 1.168 2.284 1.852 2.967.683.684 1.563 1.22 2.967 1.852a.24.24 0 0 0 .246-.038l2.053-1.711a1.75 1.75 0 0 1 1.832-.255l3.34 1.485a1.75 1.75 0 0 1 1.04 1.6v3.352a1.73 1.73 0 0 1-1.774 1.736c-5.624-.163-10.005-1.696-13.017-4.708S2.414 9.649 2.251 4.024m1.737-.274a.23.23 0 0 0-.237.23c.157 5.388 1.616 9.346 4.27 12s6.612 4.113 12 4.27a.23.23 0 0 0 .23-.237V16.66a.25.25 0 0 0-.149-.229l-3.34-1.484a.25.25 0 0 0-.263.036l-2.053 1.711c-.504.42-1.21.529-1.821.254-1.469-.661-2.54-1.286-3.413-2.159s-1.498-1.944-2.159-3.413a1.74 1.74 0 0 1 .254-1.822l1.71-2.052a.25.25 0 0 0 .037-.263L7.57 3.9a.25.25 0 0 0-.23-.149z" clip-rule="evenodd"/></svg>