<svg xmlns="http://www.w3.org/2000/svg" fill="none" viewBox="0 0 24 24"><path fill="currentColor" fill-rule="evenodd" d="M14.083 1.255a.75.75 0 1 0-.165 1.49c3.822.423 6.914 3.515 7.337 7.337a.75.75 0 0 0 1.49-.164c-.5-4.52-4.142-8.164-8.662-8.663m.104 5.019a.75.75 0 1 0-.374 1.452c1.141.294 2.167 1.32 2.46 2.461a.75.75 0 1 0 1.454-.374c-.43-1.67-1.87-3.11-3.54-3.54M4.55 3.512a.25.25 0 0 1 .4.064l2.058 4.115a.25.25 0 0 1-.047.288l-3.054 3.054a16.2 16.2 0 0 1-1.137-5.24c-.015-.3.107-.609.347-.848zM8.02 9.04l-3.447 3.447a16.3 16.3 0 0 0 6.94 6.94l3.447-3.448a1.75 1.75 0 0 1 2.02-.327l4.114 2.057a1.75 1.75 0 0 1 .455 2.803l-1.433 1.433c-.51.51-1.22.82-1.98.784C9.02 22.292 1.707 14.98 1.27 5.865c-.036-.76.274-1.47.785-1.981l1.433-1.433a1.75 1.75 0 0 1 2.803.455L8.348 7.02a1.75 1.75 0 0 1-.328 2.02m10.187 12.191a16.2 16.2 0 0 1-5.24-1.138l3.053-3.053a.25.25 0 0 1 .289-.047l4.114 2.058a.25.25 0 0 1 .065.4l-1.433 1.433c-.24.24-.548.361-.848.347" clip-rule="evenodd"/></svg>