<svg xmlns="http://www.w3.org/2000/svg" fill="none" viewBox="0 0 24 24"><path fill="currentColor" fill-rule="evenodd" d="M2.53 1.47a.75.75 0 0 0-1.06 1.06l2.72 2.72H4A2.75 2.75 0 0 0 1.25 8v11A2.75 2.75 0 0 0 4 21.75h16q.319 0 .62-.07l.85.85a.75.75 0 1 0 1.06-1.06zm16.66 18.78-3.829-3.828a4.165 4.165 0 1 1-5.785-5.785L5.69 6.75H4c-.69 0-1.25.56-1.25 1.25v11c0 .69.56 1.25 1.25 1.25zm-8.523-8.522a2.664 2.664 0 1 0 3.603 3.603zM7.554 3.216A1.75 1.75 0 0 1 9.12 2.25h5.662a1.75 1.75 0 0 1 1.66 1.197l.601 1.803H20A2.75 2.75 0 0 1 22.75 8v10a.75.75 0 0 1-1.5 0V8c0-.69-.56-1.25-1.25-1.25h-2.458l.171.513a.75.75 0 0 1-1.423.474l-.485-1.454a1 1 0 0 1-.03-.092l-.757-2.27a.25.25 0 0 0-.237-.171H9.119a.25.25 0 0 0-.224.138l-.224.448a.75.75 0 1 1-1.341-.672zM11 6a1 1 0 1 1 1 1 1 1 0 0 1-1-1" clip-rule="evenodd"/></svg>