<svg xmlns="http://www.w3.org/2000/svg" fill="none" viewBox="0 0 24 24"><path fill="currentColor" fill-rule="evenodd" d="M9.22 3.75a.25.25 0 0 0-.236.17l-.772 2.317a.75.75 0 0 1-.712.513H4c-.69 0-1.25.56-1.25 1.25v11c0 .69.56 1.25 1.25 1.25h16c.69 0 1.25-.56 1.25-1.25V8c0-.69-.56-1.25-1.25-1.25h-3.5a.75.75 0 0 1-.711-.513l-.773-2.316a.25.25 0 0 0-.237-.171zm-1.66-.303A1.75 1.75 0 0 1 9.22 2.25h5.56a1.75 1.75 0 0 1 1.66 1.197l.6 1.803H20A2.75 2.75 0 0 1 22.75 8v11A2.75 2.75 0 0 1 20 21.75H4A2.75 2.75 0 0 1 1.25 19V8A2.75 2.75 0 0 1 4 5.25h2.96zM11 6a1 1 0 1 1 1 1 1 1 0 0 1-1-1m.5 4.25a.75.75 0 0 0-.7.48l-2.5 6.5a.75.75 0 1 0 1.4.54l.585-1.52h3.43l.585 1.52a.75.75 0 1 0 1.4-.54l-2.5-6.5a.75.75 0 0 0-.7-.48zm.5 1.54 1.139 2.96h-2.277z" clip-rule="evenodd"/></svg>