<svg xmlns="http://www.w3.org/2000/svg" fill="none" viewBox="0 0 24 24"><path fill="currentColor" fill-rule="evenodd" d="M8.984 3.92a.25.25 0 0 1 .237-.17h5.558a.25.25 0 0 1 .237.17l.767 2.3.011.034.494 1.483a.75.75 0 1 0 1.424-.474l-.171-.513H20c.69 0 1.25.56 1.25 1.25v11c0 .69-.56 1.25-1.25 1.25H4c-.69 0-1.25-.56-1.25-1.25V8c0-.69.56-1.25 1.25-1.25h2.46l-.172.513a.75.75 0 1 0 1.424.474l.494-1.483.011-.033zm7.455-.473.602 1.803H20A2.75 2.75 0 0 1 22.75 8v11A2.75 2.75 0 0 1 20 21.75H4A2.75 2.75 0 0 1 1.25 19V8A2.75 2.75 0 0 1 4 5.25h2.96l.6-1.803A1.75 1.75 0 0 1 9.22 2.25h5.56a1.75 1.75 0 0 1 1.66 1.197M11 6a1 1 0 0 1 1-1h.009a1 1 0 1 1 0 2H12a1 1 0 0 1-1-1m1.033 3.524a.75.75 0 0 1 .119.75 2.7 2.7 0 0 0-.187.99c0 1.518 1.267 2.78 2.87 2.78q.273 0 .531-.048a.75.75 0 0 1 .832 1.013c-.634 1.61-2.227 2.741-4.078 2.741-2.396 0-4.37-1.898-4.37-4.28 0-2.11 1.552-3.842 3.57-4.208a.75.75 0 0 1 .713.262m-1.568 1.674A2.76 2.76 0 0 0 9.25 13.47c0 1.518 1.267 2.78 2.87 2.78.77 0 1.465-.293 1.978-.767-2.05-.341-3.633-2.087-3.633-4.219z" clip-rule="evenodd"/></svg>