<svg xmlns="http://www.w3.org/2000/svg" fill="none" viewBox="0 0 24 24"><path fill="currentColor" fill-rule="evenodd" d="M9.22 3.75a.25.25 0 0 0-.236.17l-.767 2.3-.011.034-.494 1.483a.75.75 0 1 1-1.424-.474l.171-.513H4c-.69 0-1.25.56-1.25 1.25v11c0 .69.56 1.25 1.25 1.25h16c.69 0 1.25-.56 1.25-1.25V8c0-.69-.56-1.25-1.25-1.25h-2.46l.172.513a.75.75 0 1 1-1.424.474l-.494-1.483-.011-.033-.767-2.3a.25.25 0 0 0-.237-.171zm7.82 1.5-.6-1.803a1.75 1.75 0 0 0-1.66-1.197H9.22a1.75 1.75 0 0 0-1.66 1.197l-.6 1.803H4A2.75 2.75 0 0 0 1.25 8v11A2.75 2.75 0 0 0 4 21.75h16A2.75 2.75 0 0 0 22.75 19V8A2.75 2.75 0 0 0 20 5.25zM12 5a1 1 0 1 0 0 2 1 1 0 1 0 0-2m-.5 5.25a.75.75 0 0 0-.7.48l-2.5 6.5a.75.75 0 1 0 1.4.54l.585-1.52h3.43l.585 1.52a.75.75 0 1 0 1.4-.54l-2.5-6.5a.75.75 0 0 0-.7-.48zm.5 1.54 1.139 2.96h-2.277z" clip-rule="evenodd"/></svg>