<svg xmlns="http://www.w3.org/2000/svg" fill="none" viewBox="0 0 24 24"><path fill="currentColor" fill-rule="evenodd" d="M20 20.736h1v.02c.96 0 1.75-.79 1.75-1.75v-5.39c0-.56-.16-1.09-.46-1.53l-1.276-1.922 1.436-1.078a.75.75 0 0 0-.9-1.2l-1.229.922-1.611-3.872a2.745 2.745 0 0 0-2.54-1.69H7.84c-1.11 0-2.11.66-2.54 1.69L3.684 8.811 2.45 7.886a.75.75 0 0 0-.9 1.2l1.438 1.078-1.268 1.902c-.31.44-.47.97-.47 1.53v5.39c0 .96.79 1.75 1.75 1.75h1c.96 0 1.75-.79 1.75-1.75v-1.25h12.5v1.25c0 .96.79 1.75 1.75 1.75M4.324 10.842 2.96 12.896c-.14.2-.21.45-.21.69v5.39c0 .14.11.25.25.25h1c.14 0 .25-.11.25-.25v-2c0-.41.34-.75.75-.75v.01h14c.41 0 .75.34.75.75v2c0 .14.11.25.25.25h1c.14 0 .25-.11.25-.25v-5.39c0-.25-.07-.49-.21-.69l-1.372-2.062-1.488.372c-.06.01-.12.02-.18.02H6c-.06 0-.12 0-.18-.02zm.698-1.373 1.068.267h11.82l1.059-.264-1.659-3.976c-.2-.47-.65-.77-1.15-.77H7.83c-.5 0-.96.3-1.15.77zM18 14.996c-.55 0-1-.45-1-1s.45-1 1-1 1 .44 1 1-.45 1.01-1 1.01zm-13-1c0 .55.45 1 1 1v.01c.55 0 1-.45 1-1.01s-.45-1-1-1-1 .45-1 1" clip-rule="evenodd"/></svg>