<svg xmlns="http://www.w3.org/2000/svg" fill="none" viewBox="0 0 24 24"><path fill="currentColor" fill-rule="evenodd" d="M2.75 5c0-.69.56-1.25 1.25-1.25h16c.69 0 1.25.56 1.25 1.25v1.25H2.75zm-1.5 2V5A2.75 2.75 0 0 1 4 2.25h16A2.75 2.75 0 0 1 22.75 5v16a.75.75 0 0 1-1.5 0V7.75H2.75V21a.75.75 0 0 1-1.5 0zm4 10a2.75 2.75 0 0 0 2 2.646V21a.75.75 0 0 0 1.5 0v-1.25h6.5V21a.75.75 0 0 0 1.5 0v-1.354a2.75 2.75 0 0 0 2-2.646v-1a2.75 2.75 0 0 0-1.602-2.5l-.541-2.167a2.75 2.75 0 0 0-2.668-2.083h-3.877a2.75 2.75 0 0 0-2.668 2.083L6.852 13.5A2.75 2.75 0 0 0 5.25 16zm12 0c0 .69-.56 1.25-1.25 1.25H8c-.69 0-1.25-.56-1.25-1.25v-1c0-.69.56-1.25 1.25-1.25h8c.69 0 1.25.56 1.25 1.25zm-2.099-5.303.389 1.553H8.46l.389-1.553a1.25 1.25 0 0 1 1.213-.947h3.877c.573 0 1.073.39 1.212.947M9.75 16.5a.75.75 0 0 0-1.5 0v.01a.75.75 0 0 0 1.5 0zm6 0a.75.75 0 0 0-1.5 0v.01a.75.75 0 0 0 1.5 0z" clip-rule="evenodd"/></svg>