<svg xmlns="http://www.w3.org/2000/svg" fill="none" viewBox="0 0 24 24"><path fill="currentColor" fill-rule="evenodd" d="M11.025 2.017a2.75 2.75 0 0 0-3.556 1.61L6.493 6.25H5A2.75 2.75 0 0 0 2.25 9v11A2.75 2.75 0 0 0 5 22.75h9a2.75 2.75 0 0 0 2.742-2.546L21.01 8.737a2.75 2.75 0 0 0-1.599-3.53zm5.725 13.867 2.854-7.67a1.25 1.25 0 0 0-.726-1.604L10.49 3.418a1.25 1.25 0 0 0-1.616.733l-.78 2.099H14A2.75 2.75 0 0 1 16.75 9zM5 7.75c-.69 0-1.25.56-1.25 1.25v11c0 .69.56 1.25 1.25 1.25h9c.69 0 1.25-.56 1.25-1.25V9c0-.69-.56-1.25-1.25-1.25zm4.5 3.82q.134-.075.302-.142c.525-.209 1.265-.302 2.088.107 1.09.541 1.581 1.814 1.263 3.055-.325 1.265-1.44 2.436-3.408 3.119a.75.75 0 0 1-.492 0c-1.967-.683-3.083-1.854-3.407-3.119-.319-1.24.173-2.514 1.262-3.055.823-.409 1.564-.316 2.088-.107q.168.067.303.143m-.529 1.452-.007-.007-.062-.05c-.06-.043-.15-.1-.26-.143-.204-.081-.492-.13-.867.057-.361.179-.646.676-.477 1.339.156.606.738 1.415 2.201 1.983 1.463-.568 2.045-1.377 2.2-1.983.17-.663-.115-1.16-.476-1.34-.375-.185-.663-.137-.868-.056a1.2 1.2 0 0 0-.32.193l-.008.007a.75.75 0 0 1-1.056 0" clip-rule="evenodd"/></svg>