<svg xmlns="http://www.w3.org/2000/svg" fill="none" viewBox="0 0 24 24"><path fill="currentColor" fill-rule="evenodd" d="M1.25 5A2.75 2.75 0 0 1 4 2.25h16A2.75 2.75 0 0 1 22.75 5v11A2.75 2.75 0 0 1 20 18.75H4A2.75 2.75 0 0 1 1.25 16zM4 3.75c-.69 0-1.25.56-1.25 1.25v11c0 .69.56 1.25 1.25 1.25h16c.69 0 1.25-.56 1.25-1.25V5c0-.69-.56-1.25-1.25-1.25zM2.25 21a.75.75 0 0 1 .75-.75h18a.75.75 0 0 1 0 1.5H3a.75.75 0 0 1-.75-.75M18.5 9.5a1 1 0 1 0 0 2h.009a1 1 0 1 0 0-2zm-14.008 1a1 1 0 0 1 1-1h.01a1 1 0 0 1 0 2h-.01a1 1 0 0 1-1-1m5.707 0a1.75 1.75 0 1 1 3.5 0 1.75 1.75 0 0 1-3.5 0m1.75-3.25a3.25 3.25 0 1 0 0 6.5 3.25 3.25 0 0 0 0-6.5" clip-rule="evenodd"/></svg>