<svg xmlns="http://www.w3.org/2000/svg" fill="none" viewBox="0 0 24 24"><path fill="currentColor" fill-rule="evenodd" d="m12.307 4.684.007-.003.034-.015.15-.06c.133-.052.333-.126.59-.208a14 14 0 0 1 2.148-.5c1.672-.25 3.834-.261 6.014.6V15.9c-2.305-.78-4.531-.741-6.236-.486-.985.148-1.806.37-2.384.556a12 12 0 0 0-.915.336l-.015.007-.005.002h-.002L12 17l-.308-.684c-2.327 1.047-4.67 1.054-6.456.786a14 14 0 0 1-2.486-.614V5.068c.569.178 1.345.38 2.264.517 1.964.295 4.621.302 7.293-.9M2 17l-.308.684A.75.75 0 0 1 1.25 17V4a.75.75 0 0 1 1.057-.684l.007.003.034.014q.048.021.15.06c.133.053.333.127.59.21.517.165 1.258.365 2.148.499 1.785.268 4.129.261 6.456-.786L12 4l-.308-.684h.002l.001-.001.005-.002.015-.007a4 4 0 0 1 .237-.097c.16-.062.389-.147.678-.24a15 15 0 0 1 2.384-.554c1.965-.295 4.621-.302 7.294.901A.75.75 0 0 1 22.75 4v13a.75.75 0 0 1-1.058.684c-2.327-1.047-4.67-1.054-6.456-.786-.89.133-1.631.334-2.147.5a10 10 0 0 0-.74.268l-.035.015-.006.003c-2.673 1.202-5.33 1.196-7.294.901a15 15 0 0 1-2.384-.555 12 12 0 0 1-.915-.336l-.015-.007-.005-.002h-.002zm10.308 3.684.006-.003.035-.015.148-.06c.134-.052.334-.126.592-.208a14 14 0 0 1 2.147-.5c1.786-.268 4.129-.261 6.456.786a.75.75 0 1 0 .616-1.368c-2.672-1.203-5.33-1.196-7.294-.901a15 15 0 0 0-2.384.555 12 12 0 0 0-.915.336l-.015.007-.005.002h-.001s-.002.001.306.685l-.308-.684c-2.327 1.047-4.67 1.054-6.456.786a14 14 0 0 1-2.147-.5 10 10 0 0 1-.74-.269l-.035-.014-.006-.003a.75.75 0 0 0-.616 1.368L2 20l-.308.684.003.001.005.002.015.007a5 5 0 0 0 .237.097c.16.062.389.146.678.24.578.185 1.399.407 2.384.554 1.965.295 4.622.301 7.294-.901M10.25 10.5a1.75 1.75 0 1 1 3.5 0 1.75 1.75 0 0 1-3.5 0M12 7.25a3.25 3.25 0 1 0 0 6.5 3.25 3.25 0 0 0 0-6.5M5.5 10.5a1 1 0 0 1 1 1v.009a1 1 0 1 1-2 0V11.5a1 1 0 0 1 1-1m14-1.008a1 1 0 1 0-2 0v.01a1 1 0 1 0 2 0z" clip-rule="evenodd"/></svg>