<svg xmlns="http://www.w3.org/2000/svg" fill="none" viewBox="0 0 24 24"><path fill="currentColor" fill-rule="evenodd" d="m2.744 4.407.221 1.766A10.74 10.74 0 0 1 12 1.25c5.937 0 10.75 4.813 10.75 10.75S17.937 22.75 12 22.75 1.25 17.937 1.25 12a.75.75 0 0 1 1.5 0A9.25 9.25 0 1 0 4 7.352l2.318-.58a.75.75 0 0 1 .364 1.456l-4 1a.75.75 0 0 1-.926-.635l-.5-4a.75.75 0 0 1 1.488-.186M12.745 6.5a.75.75 0 0 0-1.5 0v.901c-1.51.288-2.3 1.246-2.525 1.947-.165.473-.246 1.22.134 1.909.41.744 1.237 1.213 2.47 1.3 1.37.097 2.142.223 2.564.445.177.093.25.182.29.27.05.104.09.287.063.622-.046.553-.293.834-.62 1.01-.373.2-.89.276-1.415.26-.509-.017-1.172-.145-1.69-.407-.52-.263-.75-.574-.767-.922a.75.75 0 0 0-1.498.077c.057 1.111.83 1.8 1.588 2.184.447.226.94.375 1.406.463v.941a.75.75 0 0 0 1.5 0v-.849c.52-.037 1.083-.156 1.586-.427.748-.402 1.315-1.118 1.405-2.206.04-.486 0-.957-.199-1.38-.205-.439-.541-.748-.95-.963-.75-.394-1.851-.521-3.156-.614-.907-.065-1.175-.368-1.263-.528-.115-.208-.104-.488-.03-.694l.005-.016.005-.016c.053-.171.488-.931 1.87-.988h.013q.075-.003.151-.003c1.148 0 1.744.905 1.8 1.342a.75.75 0 0 0 1.488-.193c-.127-.982-1.077-2.347-2.725-2.606zm-.587 10.163.024-.75z" clip-rule="evenodd"/></svg>