<svg xmlns="http://www.w3.org/2000/svg" fill="none" viewBox="0 0 24 24"><path fill="currentColor" fill-rule="evenodd" d="M13.79 6.888a67 67 0 0 1-.846-3.752l4.022 1.443c.645 2.293.155 4.89-1.096 8.077q-.129-.26-.256-.504c-.69-1.319-1.316-3.29-1.825-5.264m3.946 10.364a39 39 0 0 0-1.018-2.722C18.442 10.537 19.37 7 18.283 3.761a.75.75 0 0 0-.458-.467l-5.572-2a.8.8 0 0 0-.274-.044.8.8 0 0 0-.266.045l-5.496 2a.75.75 0 0 0-.456.468c-.995 2.99-.428 6.088.757 9.169q.304.787.66 1.584C6.22 16.8 5.467 19.422 5.29 21.25H4a.75.75 0 0 0 0 1.5h16a.75.75 0 0 0 0-1.5h-1.295c-.125-1.137-.497-2.57-.969-3.998m-.541 3.998c-.122-.937-.439-2.183-.883-3.527-.57-1.722-1.317-3.517-2.027-4.875-.775-1.481-1.435-3.593-1.948-5.586a69 69 0 0 1-.945-4.253L7.079 4.577c-.594 2.083-.343 4.298.432 6.673H10a.75.75 0 0 1 0 1.5H8.058q.27.672.578 1.352.048.076.076.161l1.783-.013a.75.75 0 1 1 .01 1.5l-1.079.008q.37.74.767 1.492H11.5a.75.75 0 0 1 0 1.5h-.506l.534.985q.409.75.82 1.515zm-6.552 0-.41-.757c-.748-1.376-1.495-2.751-2.173-4.115-.652 1.787-1.118 3.589-1.263 4.872z" clip-rule="evenodd"/></svg>