<svg xmlns="http://www.w3.org/2000/svg" fill="none" viewBox="0 0 24 24"><path fill="currentColor" fill-rule="evenodd" d="M2 2.25a.75.75 0 0 0-.728.932l.882 3.527c.13.522.495.956.987 1.174l.526.234a4.7 4.7 0 0 0-.417 1.88 3.75 3.75 0 0 0 5.554 3.288l.249.498a1.75 1.75 0 0 0 1.565.967h3.632V17A3.75 3.75 0 0 0 18 20.75h2.25V22a.75.75 0 0 0 1.5 0v-4a.75.75 0 0 0-1.5 0v1.25H18A2.25 2.25 0 0 1 15.75 17v-2.25h.804c3.429 0 6.196-2.805 6.196-6.25s-2.767-6.25-6.196-6.25zm6.132 9.691L6.99 9.656a.25.25 0 0 0-.122-.116l-1.83-.813a3.2 3.2 0 0 0-.288 1.27 2.25 2.25 0 0 0 3.382 1.944M3.61 6.345 2.961 3.75h13.593c2.16 0 3.989 1.48 4.532 3.5H17a.75.75 0 0 0 0 1.5h4.244c-.129 2.513-2.186 4.5-4.69 4.5h-5.936a.25.25 0 0 1-.224-.138L8.331 8.985a1.75 1.75 0 0 0-.854-.816L3.75 6.513a.25.25 0 0 1-.14-.168M13.691 7a1 1 0 1 0 0 2h.01a1 1 0 1 0 0-2z" clip-rule="evenodd"/></svg>