<svg xmlns="http://www.w3.org/2000/svg" fill="none" viewBox="0 0 24 24"><path fill="currentColor" fill-rule="evenodd" d="M15.379 4.046c.522-1.779 2.208-3.004 4.072-2.767.304.04.614.093.962.167 1.071.229 1.58 1.374 1.22 2.323l-3.942 10.393a2.06 2.06 0 0 1-2.002 1.588h-2.974v4.501H14a.75.75 0 0 1 0 1.5h-4a.75.75 0 0 1 0-1.5h1.215v-4.5H8a2.7 2.7 0 0 1-1.268-.313V17a2.75 2.75 0 0 1-2.75 2.75H3a.75.75 0 0 1 0-1.5h.982c.69 0 1.25-.56 1.25-1.25v-4q0-.092.022-.178c.074-1.454 1.268-2.657 2.788-2.567l.185.011V9.062a2.75 2.75 0 0 1 3.417-2.668l3.021.756c.202-1.177.456-2.225.714-3.104m-5.652 6.34c.758.075 1.577.177 2.398.316.754.128 1.477.286 2.137.453a29 29 0 0 1 .187-2.512l-3.169-.794a1.25 1.25 0 0 0-1.553 1.213zm6.026 1.185q.344.106.637.202.282.094.508.25l3.333-8.786a.28.28 0 0 0-.01-.223.18.18 0 0 0-.12-.1 10 10 0 0 0-.84-.147c-1.066-.136-2.109.564-2.443 1.701a27.2 27.2 0 0 0-1.065 7.103m-3.679 2.68a.8.8 0 0 0-.218 0H8c-.679 0-1.25-.564-1.25-1.284 0-.73.568-1.253 1.203-1.215 1.094.065 2.511.19 3.921.429a28.6 28.6 0 0 1 4.048 1.017c.261.086.426.41.267.734a.56.56 0 0 1-.5.318z" clip-rule="evenodd"/></svg>