<svg xmlns="http://www.w3.org/2000/svg" fill="none" viewBox="0 0 24 24"><path fill="currentColor" fill-rule="evenodd" d="M9.315 2.75a2.25 2.25 0 0 0-2.239 2.474l.579 5.79a12.75 12.75 0 0 1 8.69 0l.579-5.79a2.25 2.25 0 0 0-2.24-2.474zM5.583 5.373l.642 6.414A3 3 0 0 0 5.25 14v1c0 .414.336.75.75.75h.25V22a.75.75 0 0 0 1.5 0v-3.25h8.5V22a.75.75 0 0 0 1.5 0v-6.25H18a.75.75 0 0 0 .75-.75v-1a3 3 0 0 0-.975-2.214l.641-6.413a3.75 3.75 0 0 0-3.731-4.123h-5.37a3.75 3.75 0 0 0-3.732 4.123M16.25 17.25v-1.5h-8.5v1.5zm-8.577-4.635a11.25 11.25 0 0 1 8.654 0A1.5 1.5 0 0 1 17.25 14v.25H6.75V14a1.5 1.5 0 0 1 .923-1.385" clip-rule="evenodd"/></svg>