<svg xmlns="http://www.w3.org/2000/svg" fill="none" viewBox="0 0 24 24"><path fill="currentColor" fill-rule="evenodd" d="M14.19 2.75H9.81a1.25 1.25 0 0 0-1.244 1.126L7.86 10.94a12.75 12.75 0 0 1 8.28 0l-.706-7.065A1.25 1.25 0 0 0 14.19 2.75m3.538 8.995-.801-8.019A2.75 2.75 0 0 0 14.19 1.25H9.81a2.75 2.75 0 0 0-2.736 2.476l-.802 8.018A3 3 0 0 0 5.25 14v1c0 .414.336.75.75.75h1.006l-1.727 6.044a.75.75 0 1 0 1.442.412l1.845-6.456h6.868l1.845 6.456a.75.75 0 0 0 1.442-.412l-1.727-6.044H18a.75.75 0 0 0 .75-.75v-1a3 3 0 0 0-1.022-2.255m-1.727 2.505h1.249V14a1.5 1.5 0 0 0-.923-1.385 11.25 11.25 0 0 0-8.654 0A1.5 1.5 0 0 0 6.75 14v.25z" clip-rule="evenodd"/></svg>