<svg xmlns="http://www.w3.org/2000/svg" fill="none" viewBox="0 0 24 24"><path fill="currentColor" fill-rule="evenodd" d="M3.75 3a.75.75 0 0 0-1.5 0v18c0 .414.336.75.75.75h18a.75.75 0 0 0 0-1.5H3.75zm7.5 0a.75.75 0 0 1 .75-.75h.009a.75.75 0 0 1 0 1.5H12a.75.75 0 0 1-.75-.75m1.413 3.512-.043-.077a.75.75 0 0 0-.61-1.185H12a.8.8 0 0 0-.257.045 4 4 0 0 0-.502-.403c-.625-.418-1.37-.642-2.248-.642-1.792 0-2.905 1.147-3.636 2.364a.75.75 0 1 0 1.286.772C7.26 6.36 7.973 5.75 8.993 5.75c.608 0 1.058.15 1.413.389.363.243.672.607.944 1.1.173.312.323.66.458 1.036A.75.75 0 0 0 12 9.75h.009a.8.8 0 0 0 .23-.036c.111.433.218.888.329 1.357l.023.1c.347 1.474.736 3.097 1.486 4.341.383.637.877 1.205 1.535 1.61.662.41 1.448.628 2.37.628 1.803 0 2.909-1.154 3.655-2.354a.75.75 0 0 0-1.274-.792c-.642 1.032-1.352 1.646-2.381 1.646-.675 0-1.182-.157-1.582-.404-.405-.25-.745-.62-1.039-1.108-.606-1.006-.95-2.383-1.31-3.91l-.048-.206c-.33-1.406-.688-2.932-1.34-4.11M11.25 12a.75.75 0 0 1 .75-.75h.009a.75.75 0 0 1 0 1.5H12a.75.75 0 0 1-.75-.75m0 3a.75.75 0 0 1 .75-.75h.009a.75.75 0 0 1 0 1.5H12a.75.75 0 0 1-.75-.75m0 3a.75.75 0 0 1 .75-.75h.009a.75.75 0 0 1 0 1.5H12a.75.75 0 0 1-.75-.75" clip-rule="evenodd"/></svg>