<svg xmlns="http://www.w3.org/2000/svg" fill="none" viewBox="0 0 24 24"><path fill="currentColor" fill-rule="evenodd" d="M12 2.75a9.25 9.25 0 0 0-8.977 11.49c3.792-.135 6.83-1.725 8.962-3.338a19.3 19.3 0 0 0 2.397-2.152H12.5a.75.75 0 0 1 0-1.5H16a.75.75 0 0 1 .75.75v3.5a.75.75 0 0 1-1.5 0v-1.488a21 21 0 0 1-2.36 2.086c-2.209 1.672-5.382 3.365-9.363 3.62A9.25 9.25 0 0 0 21.25 12a.75.75 0 0 1 1.5-.001c0 5.937-4.813 10.75-10.75 10.75S1.25 17.937 1.25 12 6.063 1.25 12 1.25a.75.75 0 0 1 0 1.5m4-1.5a.75.75 0 0 1 .75.75v2a.75.75 0 0 1-1.5 0V2a.75.75 0 0 1 .75-.75m5.032 1.721a.75.75 0 0 1-.003 1.06l-1.5 1.493a.75.75 0 1 1-1.058-1.063l1.5-1.493a.75.75 0 0 1 1.06.003M19.25 8a.75.75 0 0 1 .75-.75h2a.75.75 0 0 1 0 1.5h-2a.75.75 0 0 1-.75-.75" clip-rule="evenodd"/></svg>