<svg xmlns="http://www.w3.org/2000/svg" fill="none" viewBox="0 0 24 24"><path fill="currentColor" fill-rule="evenodd" d="M17.538 6.209A2.24 2.24 0 0 0 19 6.75c1.24 0 2.25-1.01 2.25-2.25S20.24 2.25 19 2.25a2.253 2.253 0 0 0-2.212 2.665l-3.312 1.889a2.25 2.25 0 0 0-3.31.395l-2.92-.836A2.254 2.254 0 0 0 5 4.25c-1.24 0-2.25 1.01-2.25 2.25S3.76 8.75 5 8.75a2.25 2.25 0 0 0 1.833-.948l2.921.837A2.254 2.254 0 0 0 12 10.75a2.253 2.253 0 0 0 2.215-2.645zM18.25 4.5c0-.41.34-.75.75-.75s.75.34.75.75-.34.75-.75.75-.75-.34-.75-.75M5 5.75c-.41 0-.75.34-.75.75s.34.75.75.75.75-.34.75-.75-.34-.75-.75-.75M16.75 20c0 .96.79 1.75 1.75 1.75h1c.96 0 1.75-.79 1.75-1.75V10c0-.96-.79-1.75-1.75-1.75h-1c-.96 0-1.75.79-1.75 1.75zm1.5-10c0-.14.11-.25.25-.25h1c.14 0 .25.11.25.25v10c0 .14-.11.25-.25.25h-1c-.14 0-.25-.11-.25-.25zM4.5 21.75c-.96 0-1.75-.79-1.75-1.75v-8c0-.96.79-1.75 1.75-1.75h1c.96 0 1.75.79 1.75 1.75v8c0 .96-.79 1.75-1.75 1.75zm0-10c-.14 0-.25.11-.25.25v8c0 .14.11.25.25.25h1c.14 0 .25-.11.25-.25v-8c0-.14-.11-.25-.25-.25zm8 10h-1c-.96 0-1.75-.79-1.75-1.75v-6c0-.96.79-1.75 1.75-1.75h1c.96 0 1.75.79 1.75 1.75v6c0 .96-.79 1.75-1.75 1.75m-1-8c-.14 0-.25.11-.25.25v6c0 .14.11.25.25.25h1c.14 0 .25-.11.25-.25v-6c0-.14-.11-.25-.25-.25zm.5-6c-.41 0-.75.34-.75.75s.34.75.75.75.75-.34.75-.75-.34-.75-.75-.75" clip-rule="evenodd"/></svg>