<svg xmlns="http://www.w3.org/2000/svg" fill="none" viewBox="0 0 24 24"><path fill="currentColor" fill-rule="evenodd" d="M2.75 12a9.25 9.25 0 0 0 18.5 0c0-.968-.148-1.9-.423-2.775a.75.75 0 1 1 1.43-.45c.32 1.02.493 2.103.493 3.225 0 5.937-4.813 10.75-10.75 10.75S1.25 17.937 1.25 12 6.063 1.25 12 1.25c1.122 0 2.206.172 3.225.492a.75.75 0 1 1-.45 1.431A9.3 9.3 0 0 0 12 2.75 9.25 9.25 0 0 0 2.75 12m18.808-8.498a.75.75 0 1 0-1.116-1.004l-8.47 9.413L9.53 9.47a.75.75 0 0 0-1.06 1.06l3 3a.75.75 0 0 0 1.087-.028z" clip-rule="evenodd"/></svg>