<svg xmlns="http://www.w3.org/2000/svg" fill="none" viewBox="0 0 24 24"><path fill="currentColor" fill-rule="evenodd" d="M4.03 4.47a.75.75 0 0 0-1.06 1.06l8.906 8.907c-.32.437-.597.826-.823 1.15-.647-.985-1.334-1.64-1.924-2.068a5.5 5.5 0 0 0-.988-.58 4 4 0 0 0-.439-.161l-.011-.003-.005-.002h-.004a.75.75 0 0 0-.372 1.453c.038.012.138.047.222.084.166.075.417.205.715.422.591.43 1.387 1.213 2.082 2.604a.75.75 0 0 0 1.301.071l.001-.002.006-.008.023-.036a29 29 0 0 1 .459-.68c.215-.311.496-.71.83-1.17l4.02 4.02a.75.75 0 1 0 1.061-1.061l-4.626-4.626-.018-.018zm13.141 1.195a.75.75 0 0 1-.335 1.006c-1.401.7-2.887 1.934-4.3 3.36a.75.75 0 1 1-1.066-1.056c1.457-1.47 3.079-2.838 4.695-3.646a.75.75 0 0 1 1.006.336M1.773 13.318a.75.75 0 0 1 .91-.545h.003l.005.002.011.003a2 2 0 0 1 .128.04 4 4 0 0 1 .31.122 5.4 5.4 0 0 1 .989.579c.586.426 1.267 1.074 1.91 2.047l.168-.243a.75.75 0 1 1 1.229.86 26 26 0 0 0-.78 1.183l-.009.013-.001.003a.75.75 0 0 1-1.317-.046c-.695-1.391-1.49-2.174-2.082-2.604a4 4 0 0 0-.715-.421 3 3 0 0 0-.222-.085.75.75 0 0 1-.537-.908M22.17 5.665a.75.75 0 0 1-.335 1.006c-2.245 1.122-4.67 3.588-6.63 5.939a.75.75 0 1 1-1.152-.96c1.97-2.364 4.565-5.048 7.11-6.32a.75.75 0 0 1 1.007.335" clip-rule="evenodd"/></svg>