<svg xmlns="http://www.w3.org/2000/svg" fill="none" viewBox="0 0 24 24"><path fill="currentColor" fill-rule="evenodd" d="M8.969 3.414a.75.75 0 0 1 .117 1.055l-4 5a.75.75 0 0 1-1.116.061l-1.5-1.5a.75.75 0 0 1 1.06-1.06l.908.907 3.476-4.345a.75.75 0 0 1 1.055-.118M10.25 6a.75.75 0 0 1 .75-.75h10a.75.75 0 0 1 0 1.5H11a.75.75 0 0 1-.75-.75m0 6a.75.75 0 0 1 .75-.75h10a.75.75 0 0 1 0 1.5H11a.75.75 0 0 1-.75-.75m.75 5.25a.75.75 0 0 0 0 1.5h10a.75.75 0 0 0 0-1.5zm-1.914-1.781a.75.75 0 1 0-1.172-.937l-3.476 4.345-.908-.907a.75.75 0 1 0-1.06 1.06l1.5 1.5a.75.75 0 0 0 1.116-.062z" clip-rule="evenodd"/></svg>