<svg xmlns="http://www.w3.org/2000/svg" fill="none" viewBox="0 0 24 24"><path fill="currentColor" fill-rule="evenodd" d="M6.6 3.051a4.3 4.3 0 0 1 1.66.329A4.35 4.35 0 0 1 12 1.25c1.592 0 2.982.855 3.74 2.13a4.35 4.35 0 0 1 6.01 4.025 4.35 4.35 0 0 1-4 4.338v1.869q.268.09.522.19a.75.75 0 1 1-.544 1.397c-1.497-.583-3.502-.949-5.728-.949s-4.23.366-5.728.949a.75.75 0 1 1-.544-1.398q.254-.099.522-.19v-1.868a4.35 4.35 0 0 1-4-4.339A4.35 4.35 0 0 1 6.6 3.051m1.15 10.145A19.7 19.7 0 0 1 12 12.75a19.7 19.7 0 0 1 4.25.446V10a.75.75 0 0 1 1.5 0v.236a2.852 2.852 0 1 0-1.477-5.453 4.4 4.4 0 0 1-.06 1.907.75.75 0 1 1-1.453-.373 2.86 2.86 0 0 0-.07-1.66 2.852 2.852 0 0 0-5.163-.473c.33.301.615.653.84 1.043a.75.75 0 0 1-1.298.751 2.9 2.9 0 0 0-.885-.946A2.851 2.851 0 0 0 3.75 7.404a2.85 2.85 0 0 0 2.5 2.832V10a.75.75 0 0 1 1.5 0zM7 16.25a.75.75 0 0 1 .75.75v.454c0 2.031 1.834 3.796 4.25 3.796s4.25-1.765 4.25-3.796V17a.75.75 0 0 1 1.5 0v.454c0 2.99-2.643 5.296-5.75 5.296s-5.75-2.305-5.75-5.296V17a.75.75 0 0 1 .75-.75" clip-rule="evenodd"/></svg>