<svg xmlns="http://www.w3.org/2000/svg" fill="none" viewBox="0 0 24 24"><path fill="currentColor" fill-rule="evenodd" d="M12 2.75a9.25 9.25 0 1 0 0 18.5 9.25 9.25 0 0 0 0-18.5M1.25 12C1.25 6.063 6.063 1.25 12 1.25S22.75 6.063 22.75 12 17.937 22.75 12 22.75 1.25 17.937 1.25 12m5.72-5.03a.75.75 0 0 1 1.06 0l2.22 2.22V7.5a.75.75 0 0 1 1.5 0V11a.75.75 0 0 1-.75.75H7.5a.75.75 0 0 1 0-1.5h1.69L6.97 8.03a.75.75 0 0 1 0-1.06M13 12.25a.75.75 0 0 0-.75.75v3.5a.75.75 0 0 0 1.5 0v-1.69l2.22 2.22a.75.75 0 1 0 1.06-1.06l-2.22-2.22h1.69a.75.75 0 0 0 0-1.5z" clip-rule="evenodd"/></svg>