<svg xmlns="http://www.w3.org/2000/svg" fill="none" viewBox="0 0 24 24"><path fill="currentColor" fill-rule="evenodd" d="M12 2.75a9.25 9.25 0 1 0 0 18.5 9.25 9.25 0 0 0 0-18.5M1.25 12C1.25 6.063 6.063 1.25 12 1.25S22.75 6.063 22.75 12 17.937 22.75 12 22.75 1.25 17.937 1.25 12m8.7-4.6a.75.75 0 0 1 .15 1.05l-.6.8H15c.966 0 1.75.784 1.75 1.75v1a.75.75 0 1 1-1.5 0v-1a.25.25 0 0 0-.25-.25H8a.75.75 0 0 1-.6-1.2l1.5-2a.75.75 0 0 1 1.05-.15M8.75 13a.75.75 0 0 0-1.5 0v1c0 .966.784 1.75 1.75 1.75h5.5l-.6.8a.75.75 0 1 0 1.2.9l1.5-2a.75.75 0 0 0-.6-1.2H9a.25.25 0 0 1-.25-.25z" clip-rule="evenodd"/></svg>