<svg xmlns="http://www.w3.org/2000/svg" fill="none" viewBox="0 0 24 24"><path fill="currentColor" fill-rule="evenodd" d="M8 1.75A1.75 1.75 0 0 0 6.25 3.5v7.25H4a1.75 1.75 0 0 0-1.75 1.75v8.25H2a.75.75 0 0 0 0 1.5h20a.75.75 0 0 0 0-1.5h-.25V12.5A1.75 1.75 0 0 0 20 10.75h-2.25V3.5A1.75 1.75 0 0 0 16 1.75zm4.75 16.75v2.25h3.5V3.5a.25.25 0 0 0-.25-.25H8a.25.25 0 0 0-.25.25v17.25h3.5V18.5a.75.75 0 0 1 1.5 0m5-6.25H20a.25.25 0 0 1 .25.25v8.25h-2.5zM4 12.25h2.25v8.5h-2.5V12.5a.25.25 0 0 1 .25-.25m7-6.5a.75.75 0 0 0 0 1.5h2a.75.75 0 0 0 0-1.5zm0 3.5a.75.75 0 0 0 0 1.5h2a.75.75 0 0 0 0-1.5zm0 3.5a.75.75 0 0 0 0 1.5h2a.75.75 0 0 0 0-1.5z" clip-rule="evenodd"/></svg>