<svg xmlns="http://www.w3.org/2000/svg" fill="none" viewBox="0 0 24 24"><path fill="currentColor" fill-rule="evenodd" d="M21.514 2.454a.75.75 0 0 1 .032 1.06l-7.744 8.228.728.728c.141.14.22.331.22.53 0 2.68-.936 4.818-1.862 6.277a12 12 0 0 1-1.28 1.681 9 9 0 0 1-.593.596l-.011.01-.004.003-.001.001c-.001.001-.001.001-.49-.568l.489.57a.75.75 0 0 1-.67.159c-2.1-.52-4.013-1.45-5.46-3.155-1.444-1.703-2.357-4.1-2.616-7.427a.75.75 0 0 1 .966-.776c2.878.874 5.64.84 7.896-.514a.75.75 0 0 1 .916.113l.711.71 7.713-8.194a.75.75 0 0 1 1.06-.032M10.293 20.168q.09-.093.207-.22c.303-.333.712-.83 1.121-1.475.783-1.233 1.557-2.988 1.624-5.167L11.37 11.43c-2.308 1.186-4.925 1.265-7.511.665.192 1.454.53 2.65.98 3.637q.085.008.199.013A5.94 5.94 0 0 0 9.47 13.97a.75.75 0 0 1 1.06 1.06 7.44 7.44 0 0 1-4.812 2.203q.143.193.294.37c1.099 1.295 2.552 2.082 4.28 2.565M7.25 6.75a.5.5 0 1 0 0 1 .5.5 0 0 0 0-1m-2 .5a2 2 0 1 1 4 0 2 2 0 0 1-4 0M12 4a1 1 0 1 0-2 0v.1a1 1 0 1 0 2 0z" clip-rule="evenodd"/></svg>