<svg xmlns="http://www.w3.org/2000/svg" fill="none" viewBox="0 0 24 24"><path fill="currentColor" fill-rule="evenodd" d="M9.236 1.25c-1.64 0-2.986 1.317-2.986 2.96a2.96 2.96 0 0 0 1.859 2.74l1.084.503-.323 2.797H4.919c-1.792 0-3.016 1.748-2.58 3.45l1.648 7.55H3.5a.75.75 0 0 0 0 1.5H7a.75.75 0 0 0 .75-.75v-.25a1 1 0 1 1 2 0V22c0 .414.336.75.75.75h3a.75.75 0 0 0 .75-.75v-.25a1 1 0 1 1 2 0V22c0 .414.336.75.75.75h3.5a.75.75 0 0 0 0-1.5h-.489l1.65-7.55c.434-1.702-.79-3.45-2.581-3.45h-3.95l-.323-2.797 1.085-.503a2.96 2.96 0 0 0 1.858-2.74c0-1.643-1.345-2.96-2.986-2.96zm4.384 9-.365-3.164a.75.75 0 0 1 .43-.767l1.594-.738.04-.017a1.46 1.46 0 0 0 .931-1.354c0-.798-.657-1.46-1.486-1.46H9.236c-.83 0-1.486.662-1.486 1.46a1.46 1.46 0 0 0 .97 1.371l1.595.738a.75.75 0 0 1 .43.767l-.365 3.164zm-3.413 1.5h3.586l.873 7.569c-.94.224-1.673.98-1.866 1.931h-1.6a2.5 2.5 0 0 0-1.866-1.931zm-1.51 0H4.919c-.733 0-1.345.75-1.126 1.586l.008.03 1.722 7.884H6.3a2.5 2.5 0 0 1 1.51-1.817zm7.493 7.683-.887-7.683h3.777c.733 0 1.344.75 1.125 1.586l-.007.03-1.722 7.884H17.7a2.5 2.5 0 0 0-1.51-1.817" clip-rule="evenodd"/></svg>