<svg xmlns="http://www.w3.org/2000/svg" fill="none" viewBox="0 0 24 24"><path fill="currentColor" fill-rule="evenodd" d="M1.25 13.015a5.76 5.76 0 0 1 4.603-5.643A6.254 6.254 0 0 1 12 2.25a6.254 6.254 0 0 1 6.247 6.062 5.256 5.256 0 0 1 4.503 5.204 5.255 5.255 0 0 1-4.72 5.23.75.75 0 1 1-.15-1.492 3.755 3.755 0 0 0 3.37-3.738 3.756 3.756 0 0 0-3.135-3.707 6.24 6.24 0 0 1-1.293 2.682.75.75 0 1 1-1.158-.954 4.74 4.74 0 0 0 1.086-3.029A4.754 4.754 0 0 0 12 3.75a4.754 4.754 0 0 0-4.588 3.522 5.7 5.7 0 0 1 3.04 1.138.75.75 0 0 1-.902 1.198 4.22 4.22 0 0 0-2.958-.831 4.255 4.255 0 0 0-3.842 4.238c0 2.074 1.474 3.859 3.4 4.25a.75.75 0 0 1-.3 1.47c-2.639-.537-4.6-2.948-4.6-5.72m11.499 1.663-.227-.217a.75.75 0 0 0-1.044 0l-.227.217c-.366.347-.893.846-1.35 1.387a6.5 6.5 0 0 0-.776 1.11c-.208.39-.375.845-.375 1.328 0 1.582 1.222 3.247 3.25 3.247s3.25-1.665 3.25-3.247c0-.483-.167-.939-.375-1.329a6.5 6.5 0 0 0-.775-1.109c-.458-.54-.985-1.04-1.35-1.387m-2.499 3.825c0-.144.053-.35.198-.623.143-.267.35-.554.597-.846.31-.365.648-.702.955-.997.307.295.646.632.955.997.247.292.454.579.597.846.145.272.198.479.198.623 0 .88-.671 1.747-1.75 1.747s-1.75-.867-1.75-1.747" clip-rule="evenodd"/></svg>