<svg xmlns="http://www.w3.org/2000/svg" fill="none" viewBox="0 0 24 24"><path fill="currentColor" fill-rule="evenodd" d="M3.014 9.25a.24.24 0 0 0-.242.242c.13 4.252.748 8.077 3.23 10.916.184.212.479.342.819.342h6.357c.34 0 .634-.13.82-.342 2.481-2.84 3.099-6.664 3.229-10.916a.24.24 0 0 0-.243-.242zm-1.742.288A1.74 1.74 0 0 1 3.014 7.75h13.97c.973 0 1.773.799 1.742 1.788l-.007.212h1.332c.444 0 .862 0 1.204.055.39.062.782.21 1.087.576.289.348.379.73.376 1.119-.002.325-.072.7-.143 1.08l-.01.05c-.51 2.75-2.002 4.188-3.407 4.911a6.6 6.6 0 0 1-2.014.65 12.4 12.4 0 0 1-2.017 3.204c-.508.581-1.237.855-1.95.855H6.822c-.713 0-1.442-.274-1.95-.855-2.848-3.259-3.467-7.552-3.599-11.857M20 11.25h-1.356c-.123 1.803-.373 3.58-.88 5.255.223-.075.463-.172.708-.298 1.027-.528 2.2-1.594 2.619-3.85.084-.451.126-.693.127-.868 0-.115-.016-.134-.027-.145l-.003-.004-.019-.015a.6.6 0 0 0-.152-.04c-.208-.033-.504-.035-1.017-.035m-8.296-8.112a.75.75 0 1 0-.79-1.275c-.432.267-.84.773-1.136 1.368a5.1 5.1 0 0 0-.527 2.27.75.75 0 1 0 1.5 0c0-.625.159-1.176.37-1.603.222-.445.468-.69.583-.76m2.935.467a.75.75 0 0 1-.167.979l-.006.011a1.5 1.5 0 0 0-.102.255 2.4 2.4 0 0 0-.114.65.75.75 0 0 1-1.5 0c0-.342.074-.751.182-1.098.056-.176.127-.36.217-.526a1.36 1.36 0 0 1 .457-.513.75.75 0 0 1 1.033.242m-.155.96.004-.006-.005.006M8.09 3.49a.75.75 0 0 1-.029 1.05l-.023.026a1 1 0 0 0-.108.165c-.084.156-.18.41-.18.77a.75.75 0 1 1-1.5 0c0-.641.174-1.138.36-1.482a2.6 2.6 0 0 1 .361-.51l.035-.037.014-.012.005-.006.003-.002v-.001h.001s.001-.001.51.55L7.03 3.45a.75.75 0 0 1 1.06.04" clip-rule="evenodd"/></svg>