<svg xmlns="http://www.w3.org/2000/svg" fill="none" viewBox="0 0 24 24"><path fill="currentColor" fill-rule="evenodd" d="M14 2.75a7.25 7.25 0 1 0 0 14.5 7.25 7.25 0 0 0 0-14.5M5.25 10a8.75 8.75 0 1 1 17.5 0 8.75 8.75 0 0 1-17.5 0M14 5.25a.75.75 0 0 1 .75.75v.25H15A2.25 2.25 0 0 1 16.677 10 2.25 2.25 0 0 1 15 13.75h-.25V14a.75.75 0 0 1-1.5 0v-.25H11.5a.75.75 0 0 1 0-1.5h.25v-4.5h-.25a.75.75 0 0 1 0-1.5h1.75V6a.75.75 0 0 1 .75-.75m-.75 2.5v1.5H15a.75.75 0 0 0 0-1.5zm1.75 3h-1.75v1.5H15a.75.75 0 0 0 0-1.5m-11.265.65a.75.75 0 0 0-1.27-.8A7.929 7.929 0 0 0 13.4 21.534a.75.75 0 1 0-.799-1.269A6.429 6.429 0 0 1 3.735 11.4" clip-rule="evenodd"/></svg>