<svg xmlns="http://www.w3.org/2000/svg" fill="none" viewBox="0 0 24 24"><path fill="currentColor" fill-rule="evenodd" d="M12 2.75a5.25 5.25 0 0 0-1.979 10.115 6.75 6.75 0 0 1 7.058-3.53A5.25 5.25 0 0 0 12 2.75m6.524 6.988a6.75 6.75 0 1 0-13.048 0A6.752 6.752 0 1 0 12 21.438a6.75 6.75 0 1 0 6.524-11.7m-7.649 10.655A6.73 6.73 0 0 1 9.25 16c0-.6.079-1.183.226-1.738a6.77 6.77 0 0 1-3.455-3.126A5.252 5.252 0 0 0 8 21.25c1.062 0 2.05-.315 2.875-.857M16 10.75A5.25 5.25 0 0 0 10.75 16c0 1.555.675 2.951 1.75 3.913A5.25 5.25 0 1 0 16 10.75" clip-rule="evenodd"/></svg>