<svg xmlns="http://www.w3.org/2000/svg" fill="none" viewBox="0 0 24 24"><path fill="currentColor" fill-rule="evenodd" d="M2.75 4c0-.69.56-1.25 1.25-1.25h8a.75.75 0 0 0 0-1.5H4A2.75 2.75 0 0 0 1.25 4v11.997A2.75 2.75 0 0 0 4 18.747h1.249v1.286c0 1.43 1.623 2.257 2.78 1.416l3.714-2.702h8.255a2.75 2.75 0 0 0 2.75-2.75V12a.75.75 0 0 0-1.5 0v3.997c0 .69-.56 1.25-1.25 1.25H11.5a.75.75 0 0 0-.441.143l-3.912 2.845a.25.25 0 0 1-.397-.202v-2.036a.75.75 0 0 0-.75-.75H4c-.69 0-1.25-.56-1.25-1.25zm17.31 1 2.47-2.47a.75.75 0 0 0-1.06-1.06L19 3.94l-2.468-2.47a.75.75 0 0 0-1.061 1.061l2.468 2.47-2.47 2.469a.75.75 0 0 0 1.061 1.06L19 6.061l2.47 2.47a.75.75 0 0 0 1.06-1.061z" clip-rule="evenodd"/></svg>