<svg xmlns="http://www.w3.org/2000/svg" fill="none" viewBox="0 0 24 24"><path fill="currentColor" fill-rule="evenodd" d="M4 1.25A1.75 1.75 0 0 0 2.25 3v5c0 .966.784 1.75 1.75 1.75h1.615l-.25 1.5H2a.75.75 0 0 0 0 1.5h1.25V22a.75.75 0 0 0 1.5 0v-9.25h6.5V16c0 .966.784 1.75 1.75 1.75h6.25V22a.75.75 0 0 0 1.5 0v-9.25H22a.75.75 0 0 0 0-1.5h-1.892l.846-2.114a2.75 2.75 0 0 0-1.532-3.575l-.223-.089A2.75 2.75 0 0 0 16.5 3.25H16a.75.75 0 0 0-.75.75v4c0 .414.336.75.75.75h.5a2.75 2.75 0 0 0 2.545-1.707c.517.31.747.958.516 1.535l-1.069 2.672h-7.857l-.25-1.5H12A1.75 1.75 0 0 0 13.75 8V3A1.75 1.75 0 0 0 12 1.25zm14.983 11.5H12.75V16c0 .138.112.25.25.25h6.25v-3.5zm-12.098-1.5.25-1.5h1.73l.25 1.5zM4 8.25h8a.25.25 0 0 0 .25-.25V3a.25.25 0 0 0-.25-.25H4a.25.25 0 0 0-.25.25v5c0 .138.112.25.25.25M17.75 6c0 .605-.43 1.11-1 1.225v-2.45c.57.116 1 .62 1 1.225" clip-rule="evenodd"/></svg>