<svg xmlns="http://www.w3.org/2000/svg" fill="none" viewBox="0 0 24 24"><path fill="currentColor" fill-rule="evenodd" d="M2.75 5A2.25 2.25 0 0 1 5 2.75h5.5a.75.75 0 0 0 0-1.5H5A3.75 3.75 0 0 0 1.25 5v10A3.75 3.75 0 0 0 5 18.75h6.293a.8.8 0 0 0-.043.25v2.25H8a.75.75 0 0 0 0 1.5h8a.75.75 0 0 0 0-1.5h-3.25V19a.8.8 0 0 0-.043-.25H19A3.75 3.75 0 0 0 22.75 15v-1.5a.75.75 0 0 0-1.5 0V15A2.25 2.25 0 0 1 19 17.25H5A2.25 2.25 0 0 1 2.75 15zM11 14.25a.75.75 0 0 0 0 1.5h2a.75.75 0 0 0 0-1.5zM18.751 2a.75.75 0 0 0-1.5 0v.316a4.25 4.25 0 0 0-2.418 1.35l-.404-.281a.75.75 0 0 0-.858 1.23l.473.33a4.2 4.2 0 0 0-.293 1.555c0 .548.104 1.073.294 1.555l-.473.33a.75.75 0 0 0 .858 1.23l.404-.282a4.25 4.25 0 0 0 2.418 1.351V11a.75.75 0 0 0 1.5 0v-.316a4.25 4.25 0 0 0 2.417-1.35l.404.281a.75.75 0 0 0 .859-1.23l-.474-.33c.19-.483.293-1.007.293-1.555a4.2 4.2 0 0 0-.293-1.555l.473-.33a.75.75 0 1 0-.858-1.23l-.404.282a4.25 4.25 0 0 0-2.418-1.351zm-3.108 3.084a2.75 2.75 0 0 1 4.716 0c.249.413.392.897.392 1.416a2.75 2.75 0 0 1-2.75 2.75 2.749 2.749 0 0 1-2.358-4.166" clip-rule="evenodd"/></svg>