<svg xmlns="http://www.w3.org/2000/svg" fill="none" viewBox="0 0 24 24"><path fill="currentColor" fill-rule="evenodd" d="M4.25 4A2.75 2.75 0 0 1 7 1.25h12.5A2.75 2.75 0 0 1 22.25 4v16a2.75 2.75 0 0 1-2.75 2.75H7A2.75 2.75 0 0 1 4.25 20v-1.25H2.5a.75.75 0 0 1 0-1.5h1.75v-4.5H2.5a.75.75 0 0 1 0-1.5h1.75v-4.5H2.5a.75.75 0 0 1 0-1.5h1.75zm1.5 2v14c0 .69.56 1.25 1.25 1.25h12.5c.69 0 1.25-.56 1.25-1.25V4c0-.69-.56-1.25-1.25-1.25H7c-.69 0-1.25.56-1.25 1.25zm7.75 2.25a1 1 0 1 0 0 2 1 1 0 0 0 0-2m-2.5 1a2.5 2.5 0 1 1 5 0 2.5 2.5 0 0 1-5 0m5.15 6.5a2.753 2.753 0 0 0-5.296 0zm-6.9.75a4.25 4.25 0 0 1 4.252-4.25 4.25 4.25 0 0 1 4.251 4.25.75.75 0 0 1-.75.75H10a.75.75 0 0 1-.75-.75" clip-rule="evenodd"/></svg>