<svg xmlns="http://www.w3.org/2000/svg" fill="none" viewBox="0 0 24 24"><path fill="currentColor" fill-rule="evenodd" d="M2.75 5A.25.25 0 0 1 3 4.75h10.5a.25.25 0 0 1 .25.25v5c0 .966.783 1.75 1.75 1.75h5.75V17a.25.25 0 0 1-.25.25h-1.354a2.751 2.751 0 0 0-5.292 0H9.646a2.751 2.751 0 0 0-5.292 0H3.002a.25.25 0 0 1-.25-.25zm1.604 13.75H3.002A1.75 1.75 0 0 1 1.252 17L1.25 5c0-.966.783-1.75 1.75-1.75h10.5c.966 0 1.75.784 1.75 1.75v.25h2.209a2.75 2.75 0 0 1 2.253 1.173l2.902 4.147a.75.75 0 0 1 .136.447V17A1.75 1.75 0 0 1 21 18.75h-1.354a2.751 2.751 0 0 1-5.292 0H9.646a2.751 2.751 0 0 1-5.292 0M15.25 10V6.75h2.209c.408 0 .79.199 1.024.533l2.076 2.967H15.5a.25.25 0 0 1-.25-.25m-7 7.989v.022a1.25 1.25 0 1 1 0-.022m10 0v.022a1.25 1.25 0 1 1 0-.022M6.75 9a.75.75 0 0 0-1.5 0v2a.75.75 0 0 0 1.5 0zm4 0a.75.75 0 0 0-1.5 0v2a.75.75 0 0 0 1.5 0z" clip-rule="evenodd"/></svg>