<svg xmlns="http://www.w3.org/2000/svg" fill="none" viewBox="0 0 24 24"><path fill="currentColor" fill-rule="evenodd" d="M9 1.25a.75.75 0 0 1 .75.75v1.25h4.5V2a.75.75 0 0 1 1.5 0v1.25H18A2.75 2.75 0 0 1 20.75 6v2.25H22a.75.75 0 0 1 0 1.5h-1.25v4.5H22a.75.75 0 0 1 0 1.5h-1.25V18A2.75 2.75 0 0 1 18 20.75h-2.25V22a.75.75 0 0 1-1.5 0v-1.25h-4.5V22a.75.75 0 0 1-1.5 0v-1.25H6A2.75 2.75 0 0 1 3.25 18v-2.25H2a.75.75 0 0 1 0-1.5h1.25v-4.5H2a.75.75 0 0 1 0-1.5h1.25V6A2.75 2.75 0 0 1 6 3.25h2.25V2A.75.75 0 0 1 9 1.25m0 3.5h9c.69 0 1.25.56 1.25 1.25v12c0 .69-.56 1.25-1.25 1.25H6c-.69 0-1.25-.56-1.25-1.25V6c0-.69.56-1.25 1.25-1.25zm.53 8.78 4-4a.75.75 0 0 0-1.06-1.06l-4 4a.75.75 0 1 0 1.06 1.06m6 0a.75.75 0 1 0-1.06-1.06l-2 2a.75.75 0 1 0 1.06 1.06z" clip-rule="evenodd"/></svg>