<svg xmlns="http://www.w3.org/2000/svg" fill="none" viewBox="0 0 24 24"><path fill="currentColor" fill-rule="evenodd" d="M4 2.25A2.75 2.75 0 0 0 1.25 5v12A2.75 2.75 0 0 0 4 19.75h7a.75.75 0 0 0 0-1.5H4c-.69 0-1.25-.56-1.25-1.25V8.75h18.5v.75a.75.75 0 0 0 1.5 0V5A2.75 2.75 0 0 0 20 2.25zm17.25 5H2.75V5c0-.69.56-1.25 1.25-1.25h16c.69 0 1.25.56 1.25 1.25zm-.15 5.3a.75.75 0 0 0-1.2.9l.6.8H15a.75.75 0 0 0-.75.75v1a.75.75 0 1 0 1.5 0v-.25H22a.75.75 0 0 0 .6-1.2zM22.75 18a.75.75 0 0 0-1.5 0v.25H15a.75.75 0 0 0-.6 1.2l1.5 2a.75.75 0 1 0 1.2-.9l-.6-.8H22a.75.75 0 0 0 .75-.75z" clip-rule="evenodd"/></svg>