<svg xmlns="http://www.w3.org/2000/svg" fill="none" viewBox="0 0 24 24"><path fill="currentColor" fill-rule="evenodd" d="M3.75 4c0-.69.56-1.25 1.25-1.25h6.248V7a2.75 2.75 0 0 0 2.75 2.75h4.252V11a.75.75 0 0 0 1.5 0V9a.75.75 0 0 0-.22-.53l-7-7a.75.75 0 0 0-.53-.22H5A2.75 2.75 0 0 0 2.25 4v16A2.75 2.75 0 0 0 5 22.75h14a.75.75 0 0 0 0-1.5H5c-.69 0-1.25-.56-1.25-1.25zm13.44 4.25-4.442-4.441V7c0 .69.56 1.25 1.25 1.25zm1.018 5.502a.75.75 0 0 0-1.416.496l1.75 5a.75.75 0 0 0 1.416 0l1.75-5a.75.75 0 0 0-1.416-.496L19.25 16.73zM8 13.25A1.75 1.75 0 0 0 6.25 15v3c0 .967.784 1.75 1.75 1.75h1A1.75 1.75 0 0 0 10.75 18a.75.75 0 0 0-1.5 0 .25.25 0 0 1-.25.25H8a.25.25 0 0 1-.25-.25v-3a.25.25 0 0 1 .25-.25h1a.25.25 0 0 1 .25.25.75.75 0 0 0 1.5 0A1.75 1.75 0 0 0 9 13.25zm5.5 0A1.75 1.75 0 0 0 11.75 15v.5c0 .967.784 1.75 1.75 1.75h.5a.25.25 0 0 1 .25.25v.5a.25.25 0 0 1-.25.25h-1.5a.75.75 0 0 0 0 1.5H14A1.75 1.75 0 0 0 15.75 18v-.5A1.75 1.75 0 0 0 14 15.75h-.5a.25.25 0 0 1-.25-.25V15a.25.25 0 0 1 .25-.25H15a.75.75 0 0 0 0-1.5z" clip-rule="evenodd"/></svg>