<svg xmlns="http://www.w3.org/2000/svg" fill="none" viewBox="0 0 24 24"><path fill="currentColor" fill-rule="evenodd" d="M4.75 4c0-.69.56-1.25 1.251-1.25l6.249.007v4.24A2.75 2.75 0 0 0 15 9.748h4.25v3.25a.75.75 0 0 0 1.5 0v-4c0-.198-.08-.39-.22-.53l-7.004-6.99a.75.75 0 0 0-.53-.22L6.004 1.25A2.75 2.75 0 0 0 3.25 4v8.998a.75.75 0 0 0 1.5 0zm13.437 4.248L13.75 3.82v3.178c0 .69.56 1.25 1.25 1.25zm-1.985 7.489a.75.75 0 1 0-1.404.527l2.25 6a.75.75 0 0 0 1.404 0l2.25-6a.75.75 0 1 0-1.404-.527l-1.548 4.127zM5 15.25A1.75 1.75 0 0 0 3.25 17v4c0 .967.784 1.75 1.75 1.75h1.5A1.75 1.75 0 0 0 8.25 21a.75.75 0 0 0-1.5 0 .25.25 0 0 1-.25.25H5a.25.25 0 0 1-.25-.25v-4a.25.25 0 0 1 .25-.25h1.5a.25.25 0 0 1 .25.25.75.75 0 0 0 1.5 0 1.75 1.75 0 0 0-1.75-1.75zm6 0A1.75 1.75 0 0 0 9.25 17v1c0 .967.784 1.75 1.75 1.75h1a.25.25 0 0 1 .25.25v1a.25.25 0 0 1-.25.25h-2a.75.75 0 0 0 0 1.5h2A1.75 1.75 0 0 0 13.75 21v-1A1.75 1.75 0 0 0 12 18.25h-1a.25.25 0 0 1-.25-.25v-1a.25.25 0 0 1 .25-.25h2a.75.75 0 0 0 0-1.5z" clip-rule="evenodd"/></svg>