<svg xmlns="http://www.w3.org/2000/svg" fill="none" viewBox="0 0 24 24"><path fill="currentColor" fill-rule="evenodd" d="M6.97 1.97a.75.75 0 0 1 .53-.22h14a.75.75 0 0 1 .75.75v13.586c0 .464-.184.909-.513 1.237L17.03 22.03a.75.75 0 0 1-.53.22h-14a.75.75 0 0 1-.75-.75v-14a.75.75 0 0 1 .22-.53zm.84 1.28-3.5 3.5h11.88l3.5-3.5zm12.94 1.06v11.776a.25.25 0 0 1-.073.177l-3.427 3.426V7.811zm-5 3.94H3.25v11.44l4.5-4.5V10.5a.75.75 0 0 1 1.5 0v4.25H14a.75.75 0 0 1 0 1.5H8.81l-4.5 4.5h11.44z" clip-rule="evenodd"/></svg>