<svg xmlns="http://www.w3.org/2000/svg" fill="none" viewBox="0 0 24 24"><path fill="currentColor" fill-rule="evenodd" d="M13.996 5.75c-.688 0-1.246.558-1.246 1.246V17a2.75 2.75 0 1 1-5.5 0v-4c0-.69-.56-1.25-1.25-1.25H3.81l.72.72a.75.75 0 0 1-1.06 1.06l-1.996-1.996a.75.75 0 0 1-.004-1.064l2-2a.75.75 0 0 1 1.06 1.06l-.72.72H6A2.75 2.75 0 0 1 8.75 13v4a1.25 1.25 0 0 0 2.5 0V6.996a2.746 2.746 0 1 1 5.492.011l-.017 3.988a1.25 1.25 0 0 0 1.25 1.255h2.214l-.72-.72a.75.75 0 0 1 1.061-1.06l2 2a.75.75 0 0 1-.005 1.066L20.53 15.53a.75.75 0 1 1-1.06-1.06l.72-.72h-2.215a2.75 2.75 0 0 1-2.75-2.761L15.242 7a1.246 1.246 0 0 0-1.246-1.251" clip-rule="evenodd"/></svg>