<svg xmlns="http://www.w3.org/2000/svg" fill="none" viewBox="0 0 24 24"><path fill="currentColor" fill-rule="evenodd" d="M4.5 1.75A2.75 2.75 0 0 0 1.75 4.5v2a.75.75 0 0 0 1.5 0v-2c0-.69.56-1.25 1.25-1.25h2a.75.75 0 0 0 0-1.5zm13 0a.75.75 0 0 0 0 1.5h2c.69 0 1.25.56 1.25 1.25v2a.75.75 0 0 0 1.5 0v-2a2.75 2.75 0 0 0-2.75-2.75zM3.25 17.5a.75.75 0 0 0-1.5 0v2a2.75 2.75 0 0 0 2.75 2.75h2a.75.75 0 0 0 0-1.5h-2c-.69 0-1.25-.56-1.25-1.25zm19 0a.75.75 0 0 0-1.5 0v2c0 .69-.56 1.25-1.25 1.25h-2a.75.75 0 0 0 0 1.5h2a2.75 2.75 0 0 0 2.75-2.75zM10 1.75a.75.75 0 0 0 0 1.5h4a.75.75 0 0 0 0-1.5zM3.25 10a.75.75 0 0 0-1.5 0v4a.75.75 0 0 0 1.5 0zm19 0a.75.75 0 0 0-1.5 0v4a.75.75 0 0 0 1.5 0zM10 20.75a.75.75 0 0 0 0 1.5h4a.75.75 0 0 0 0-1.5z" clip-rule="evenodd"/></svg>