<svg xmlns="http://www.w3.org/2000/svg" fill="none" viewBox="0 0 24 24"><path fill="currentColor" fill-rule="evenodd" d="M4.5 1.75A2.75 2.75 0 0 0 1.75 4.5v15a2.75 2.75 0 0 0 2.75 2.75h15a2.75 2.75 0 0 0 2.75-2.75v-15a2.75 2.75 0 0 0-2.75-2.75zM3.25 4.5c0-.69.56-1.25 1.25-1.25h15c.69 0 1.25.56 1.25 1.25v15c0 .69-.56 1.25-1.25 1.25h-15c-.69 0-1.25-.56-1.25-1.25zM12 6.75A5.25 5.25 0 0 0 6.75 12a.75.75 0 0 1-1.5 0 6.75 6.75 0 0 1 10.126-5.847.75.75 0 1 1-.751 1.299A5.2 5.2 0 0 0 12 6.75m5.49 1.683a.75.75 0 0 1 .077 1.058l-3.12 3.606c.382.487.61 1.101.61 1.77 0 1.599-1.306 2.883-2.903 2.883S9.25 16.466 9.25 14.867c0-1.6 1.307-2.884 2.904-2.884.385 0 .753.075 1.09.21l3.189-3.684a.75.75 0 0 1 1.058-.076m-5.336 5.05c-.782 0-1.404.626-1.404 1.384s.622 1.383 1.404 1.383 1.404-.626 1.404-1.383c0-.758-.622-1.384-1.404-1.384" clip-rule="evenodd"/></svg>