<svg xmlns="http://www.w3.org/2000/svg" fill="none" viewBox="0 0 24 24"><path fill="currentColor" fill-rule="evenodd" d="M11.014 1.25c-2.278 0-4.374.344-5.927.925-.774.29-1.452.653-1.95 1.094-.498.44-.883 1.022-.883 1.728V18.99c0 .706.385 1.289.882 1.729.499.44 1.177.804 1.951 1.093 1.553.581 3.649.926 5.927.926q.26 0 .518-.006a.75.75 0 0 0-.035-1.5q-.24.005-.483.005c-2.146 0-4.056-.326-5.401-.83-.676-.253-1.17-.536-1.483-.812-.313-.277-.376-.483-.376-.605v-4.82c.392.244.843.457 1.333.64q.545.204 1.172.367l-.005 1.827a.75.75 0 1 0 1.5.004l.004-1.52c1.009.16 2.11.247 3.256.247a.75.75 0 0 0 0-1.5c-2.146 0-4.056-.327-5.401-.83-.676-.253-1.17-.536-1.483-.812-.313-.277-.376-.483-.376-.605V7.18c.392.243.843.456 1.333.639q.545.204 1.172.367L6.254 10a.75.75 0 1 0 1.5.004l.004-1.508c1.009.161 2.11.248 3.256.248 2.278 0 4.373-.344 5.926-.925a7.6 7.6 0 0 0 1.326-.635l-.012 3.822a.75.75 0 1 0 1.5.005l.02-6.005v-.009c0-.706-.386-1.288-.883-1.728-.498-.441-1.177-.804-1.95-1.094-1.554-.58-3.65-.925-5.927-.925m-7.26 3.747c0-.121.063-.327.376-.604.312-.277.807-.56 1.483-.812 1.345-.504 3.255-.83 5.4-.83 2.147 0 4.056.326 5.402.83.675.252 1.17.535 1.482.812.314.277.377.483.377.604 0 .122-.064.328-.377.605-.312.276-.806.559-1.482.812-1.346.503-3.255.83-5.401.83s-4.056-.327-5.401-.83c-.676-.253-1.17-.536-1.483-.812-.313-.277-.376-.483-.376-.605m9.992 12.985a3.26 3.26 0 0 1 3.252-3.268 3.26 3.26 0 0 1 3.252 3.268 3.26 3.26 0 0 1-3.252 3.268 3.26 3.26 0 0 1-3.252-3.268m3.252-4.768c-2.627 0-4.752 2.137-4.752 4.768s2.125 4.768 4.752 4.768 4.752-2.137 4.752-4.768-2.125-4.768-4.752-4.768m.756 3.287a.75.75 0 1 0-1.5 0v.75h-.75a.75.75 0 0 0 0 1.5h.75v.75a.75.75 0 1 0 1.5 0v-.75h.75a.75.75 0 0 0 0-1.5h-.75z" clip-rule="evenodd"/></svg>