<svg xmlns="http://www.w3.org/2000/svg" fill="none" viewBox="0 0 24 24"><path fill="currentColor" fill-rule="evenodd" d="M3.25 5.5A2.25 2.25 0 0 1 5.5 3.25h2.75v4.5h-5zm0 3.75v5.5h5v-5.5zm0 7v2.25a2.25 2.25 0 0 0 2.25 2.25h2.75v-4.5zm6.5 4.5h8.75a2.25 2.25 0 0 0 2.25-2.25V18a.75.75 0 0 1 1.5 0v.5a3.75 3.75 0 0 1-3.75 3.75h-13a3.75 3.75 0 0 1-3.75-3.75v-13A3.75 3.75 0 0 1 5.5 1.75h13a3.75 3.75 0 0 1 3.75 3.75V6a.75.75 0 0 1-1.5 0v-.5a2.25 2.25 0 0 0-2.25-2.25H9.75zM22.03 9.53a.75.75 0 0 0-1.06-1.06l-2.47 2.47-2.47-2.47a.75.75 0 1 0-1.06 1.06L17.44 12l-2.47 2.47a.75.75 0 1 0 1.06 1.06l2.47-2.47 2.47 2.47a.75.75 0 1 0 1.06-1.06L19.56 12z" clip-rule="evenodd"/></svg>