<svg xmlns="http://www.w3.org/2000/svg" fill="none" viewBox="0 0 24 24"><path fill="currentColor" fill-rule="evenodd" d="M2.75 5A.25.25 0 0 1 3 4.75h11a.25.25 0 0 1 .25.25v10.767a3.2 3.2 0 0 0-.413.983h-3.674a3.251 3.251 0 0 0-6.326 0H3a.25.25 0 0 1-.25-.25zm2.5 12.514v-.028a1.75 1.75 0 1 1 0 .028m-1.413.736H3a1.75 1.75 0 0 1-1.75-1.75V5c0-.967.784-1.75 1.75-1.75h11c.967 0 1.75.784 1.75 1.75v.75h2.18c.92 0 1.778.46 2.288 1.225l2.07 3.105c.301.452.462.983.462 1.525V17.5a.75.75 0 0 1-.75.75h-1.837a3.251 3.251 0 0 1-6.326 0h-3.674a3.251 3.251 0 0 1-6.326 0m11.774-1.814-.022.028a1.75 1.75 0 0 0-.339 1.022v.028a1.75 1.75 0 0 0 3.5-.01v-.006a1.75 1.75 0 0 0-3.14-1.062M17 14.25a3.25 3.25 0 0 1 3.163 2.5h1.087v-5.145a1.25 1.25 0 0 0-.21-.693l-2.07-3.105a1.25 1.25 0 0 0-1.04-.557h-2.18v7.249A3.2 3.2 0 0 1 17 14.25m-6.97-7.28a.75.75 0 1 0-1.06 1.06l.72.72H5.5a.75.75 0 0 0 0 1.5h4.19l-.72.72a.75.75 0 1 0 1.06 1.06l2-2a.75.75 0 0 0 0-1.06z" clip-rule="evenodd"/></svg>