<svg xmlns="http://www.w3.org/2000/svg" fill="none" viewBox="0 0 24 24"><path fill="currentColor" fill-rule="evenodd" d="M4.95 3.385c.342-.407.85-.635 1.377-.635h11.346a1.8 1.8 0 0 1 1.377.635l3.3 3.93c.525.626.535 1.524.02 2.161L13.398 20.59a1.81 1.81 0 0 1-2.796 0L1.63 9.476a1.69 1.69 0 0 1 .02-2.162zm1.377.865a.3.3 0 0 0-.228.1l-3.3 3.929a.193.193 0 0 0-.002.255l8.972 11.113c.05.063.132.103.231.103s.18-.04.231-.103l8.972-11.113a.193.193 0 0 0-.003-.255l-3.299-3.93a.3.3 0 0 0-.228-.099zM10 7.75a.75.75 0 0 0 0 1.5h4a.75.75 0 0 0 0-1.5z" clip-rule="evenodd"/></svg>