<svg xmlns="http://www.w3.org/2000/svg" fill="none" viewBox="0 0 24 24"><path fill="currentColor" fill-rule="evenodd" d="M1.25 6A2.75 2.75 0 0 1 4 3.25h16A2.75 2.75 0 0 1 22.75 6v4c0 5.937-4.813 10.75-10.75 10.75S1.25 15.937 1.25 10zm1.5 2.75H6.5a.75.75 0 0 0 0-1.5H2.75V6c0-.69.56-1.25 1.25-1.25h16c.69 0 1.25.56 1.25 1.25v1.25H17.5a.75.75 0 0 0 0 1.5h3.75V10q0 .381-.03.755a7.75 7.75 0 0 0-7.47 7.745v.585a9.3 9.3 0 0 1-3.5 0V18.5a7.75 7.75 0 0 0-7.47-7.745q-.03-.373-.03-.755zm.281 3.522a9.27 9.27 0 0 0 5.719 6.39V18.5a6.25 6.25 0 0 0-5.719-6.228M15.25 18.5a6.25 6.25 0 0 1 5.719-6.228 9.27 9.27 0 0 1-5.719 6.39z" clip-rule="evenodd"/></svg>