<svg xmlns="http://www.w3.org/2000/svg" fill="none" viewBox="0 0 24 24"><path fill="currentColor" fill-rule="evenodd" d="M5 2.25A2.75 2.75 0 0 0 2.25 5v14A2.75 2.75 0 0 0 5 21.75h14A2.75 2.75 0 0 0 21.75 19V5A2.75 2.75 0 0 0 19 2.25zM3.75 5c0-.69.56-1.25 1.25-1.25h14c.69 0 1.25.56 1.25 1.25v14c0 .69-.56 1.25-1.25 1.25H5c-.69 0-1.25-.56-1.25-1.25zm9.75 7a1.5 1.5 0 0 0-3 0v.01a1.5 1.5 0 0 0 3 0zM8 6.5A1.5 1.5 0 0 1 9.5 8v.01a1.5 1.5 0 1 1-3 0V8A1.5 1.5 0 0 1 8 6.5m9.5 9.5a1.5 1.5 0 0 0-3 0v.01a1.5 1.5 0 0 0 3 0z" clip-rule="evenodd"/></svg>