<svg xmlns="http://www.w3.org/2000/svg" fill="none" viewBox="0 0 24 24"><path fill="currentColor" fill-rule="evenodd" d="M20 3.25h2a.75.75 0 0 1 0 1.5h-1.599l-.886 1.33a3.75 3.75 0 0 1-3.12 1.67h-1.78l-.219 1.093a1.75 1.75 0 0 1-1.646 1.406v4.502a1.75 1.75 0 0 1 1.646 1.406l.227 1.134q.155.022.302.064.306.088.584.242c.337.188.612.463.961.812l.06.06c.438.439.56.55.69.623q.128.07.266.11c.144.041.309.048.928.048H19a.75.75 0 0 1 0 1.5h-.671c-.494 0-.883 0-1.254-.105a2.8 2.8 0 0 1-.584-.242c-.337-.188-.612-.463-.961-.812l-.06-.06c-.438-.438-.56-.55-.69-.623a1.3 1.3 0 0 0-.266-.11c-.144-.041-.309-.048-.928-.048h-3.172c-.619 0-.784.007-.928.048a1.3 1.3 0 0 0-.265.11c-.132.073-.253.185-.69.622l-.061.06c-.349.35-.624.625-.961.813q-.278.155-.584.242c-.371.106-.76.105-1.254.105H5a.75.75 0 0 1 0-1.5h.586c.619 0 .784-.007.928-.048q.14-.04.265-.11c.132-.073.253-.184.69-.622l.061-.06c.349-.35.624-.625.961-.813q.278-.155.584-.242.148-.042.302-.064l.227-1.134a1.75 1.75 0 0 1 1.646-1.406V10.25a1.75 1.75 0 0 1-1.646-1.406L9.385 7.75h-1.78a3.75 3.75 0 0 1-3.12-1.67L3.6 4.75H2a.75.75 0 0 1 0-1.5zm-7.985 5.5h-.695a.25.25 0 0 1-.245-.2l-.16-.8h2.17l-.16.8a.25.25 0 0 1-.245.2zM12 16.25h-.68a.25.25 0 0 0-.245.201l-.16.8h2.17l-.16-.8a.25.25 0 0 0-.245-.201zm-1.988-10H7.606a2.25 2.25 0 0 1-1.872-1.002L5.4 4.75h13.2l-.332.498a2.25 2.25 0 0 1-1.872 1.002h-6.383" clip-rule="evenodd"/></svg>