<svg xmlns="http://www.w3.org/2000/svg" fill="none" viewBox="0 0 24 24"><path fill="currentColor" fill-rule="evenodd" d="M1.75 4.5A2.75 2.75 0 0 1 4.5 1.75H9a.75.75 0 0 1 0 1.5H4.5c-.69 0-1.25.56-1.25 1.25V9a.75.75 0 0 1-1.5 0zm12.5-2a.75.75 0 0 1 .75-.75h4.5a2.75 2.75 0 0 1 2.75 2.75V9a.75.75 0 0 1-1.5 0V4.5c0-.69-.56-1.25-1.25-1.25H15a.75.75 0 0 1-.75-.75M2.5 14.25a.75.75 0 0 1 .75.75v4.5c0 .69.56 1.25 1.25 1.25H9a.75.75 0 0 1 0 1.5H4.5a2.75 2.75 0 0 1-2.75-2.75V15a.75.75 0 0 1 .75-.75m19 0a.75.75 0 0 1 .75.75v4.5a2.75 2.75 0 0 1-2.75 2.75H15a.75.75 0 0 1 0-1.5h4.5c.69 0 1.25-.56 1.25-1.25V15a.75.75 0 0 1 .75-.75M7 8a1 1 0 0 1 1-1h.009a1 1 0 1 1 0 2H8a1 1 0 0 1-1-1m7.991 8a1 1 0 0 1 1-1H16a1 1 0 1 1 0 2h-.009a1 1 0 0 1-1-1m1.54-7.47a.75.75 0 0 0-1.061-1.06l-8 8a.75.75 0 1 0 1.06 1.06z" clip-rule="evenodd"/></svg>