<svg xmlns="http://www.w3.org/2000/svg" fill="none" viewBox="0 0 24 24"><path fill="currentColor" fill-rule="evenodd" d="M1.75 4.5A2.75 2.75 0 0 1 4.5 1.75h15a2.75 2.75 0 0 1 2.75 2.75v15a2.75 2.75 0 0 1-2.75 2.75h-15a2.75 2.75 0 0 1-2.75-2.75zM4.5 3.25c-.69 0-1.25.56-1.25 1.25v15c0 .69.56 1.25 1.25 1.25h15c.69 0 1.25-.56 1.25-1.25v-15c0-.69-.56-1.25-1.25-1.25zm10.367 3.671c1.367-.456 2.67.844 2.214 2.212l-1.547 4.654a2.75 2.75 0 0 1-1.74 1.74L9.132 17.08c-1.368.455-2.669-.845-2.214-2.213l1.547-4.65a2.75 2.75 0 0 1 1.739-1.74zm.791 1.739a.25.25 0 0 0-.316-.316L10.68 9.9a1.25 1.25 0 0 0-.79.791l-1.548 4.65a.25.25 0 0 0 .317.316l4.66-1.553a1.25 1.25 0 0 0 .791-.79zM12.014 13a1 1 0 0 0-.031-2h-.006a1 1 0 0 0 .03 2z" clip-rule="evenodd"/></svg>