<svg xmlns="http://www.w3.org/2000/svg" fill="none" viewBox="0 0 24 24"><path fill="currentColor" fill-rule="evenodd" d="M4 1.25A2.75 2.75 0 0 0 1.25 4v16A2.75 2.75 0 0 0 4 22.75h16A2.75 2.75 0 0 0 22.75 20V4A2.75 2.75 0 0 0 20 1.25zM2.75 4c0-.69.56-1.25 1.25-1.25h16c.69 0 1.25.56 1.25 1.25v3.25H2.75zm0 4.75V20c0 .69.56 1.25 1.25 1.25h16c.69 0 1.25-.56 1.25-1.25V8.75zM4.25 5A.75.75 0 0 1 5 4.25h4a.75.75 0 0 1 0 1.5H5A.75.75 0 0 1 4.25 5M20 5a1 1 0 1 0-2 0 1 1 0 1 0 2 0M9 12.75a2.25 2.25 0 1 0 0 4.5 2.25 2.25 0 0 0 0-4.5M5.25 15a3.75 3.75 0 1 1 7.5 0 3.75 3.75 0 0 1-7.5 0m9.008-2.9c0-.512.46-.932.997-.836.454.081 1.456.325 2.135 1.011.336.34.454.766.507 1.067l.34 1.909a.85.85 0 0 1-.837.999h-1.644l-.006 1.752a.75.75 0 1 1-1.5-.005zm1.5.869v1.782h.866l-.204-1.144c-.03-.169-.077-.254-.097-.275a1.8 1.8 0 0 0-.565-.363" clip-rule="evenodd"/></svg>