<svg xmlns="http://www.w3.org/2000/svg" fill="none" viewBox="0 0 24 24"><path fill="currentColor" fill-rule="evenodd" d="M14.25 4.691c0-.738-.25-1.359-.688-1.798A2.2 2.2 0 0 0 12 2.25c-.561 0-1.131.211-1.562.643-.438.439-.688 1.06-.688 1.798 0 .67.28 1.252.593 1.696-4.168.7-7.42 3.986-7.592 8.082a.75.75 0 1 0 1.498.062C4.405 10.818 7.76 7.75 12 7.75s7.595 3.068 7.75 6.781a.75.75 0 1 0 1.5-.062c-.172-4.096-3.425-7.383-7.593-8.082.312-.444.593-1.026.593-1.696m-2.442 1.132q.098.108.192.199.094-.09.192-.2c.337-.375.558-.775.558-1.13 0-.39-.125-.615-.25-.74a.7.7 0 0 0-.5-.202.7.7 0 0 0-.5.203c-.125.124-.25.349-.25.738 0 .356.221.757.558 1.132M2 16.25a.75.75 0 0 0 0 1.5h.431l.561 1.994A2.75 2.75 0 0 0 5.64 21.75h12.72a2.75 2.75 0 0 0 2.647-2.006l.561-1.994H22a.75.75 0 0 0 0-1.5zm17.563 3.088.446-1.588H3.99l.447 1.588c.152.54.643.912 1.203.912h12.72a1.25 1.25 0 0 0 1.203-.912" clip-rule="evenodd"/></svg>