<svg xmlns="http://www.w3.org/2000/svg" fill="none" viewBox="0 0 24 24"><path fill="currentColor" fill-rule="evenodd" d="M7.5 2.25a.75.75 0 0 1 .75.75v1.294c2.468.291 4.583 1.997 4.583 4.336a.75.75 0 0 1-1.5 0c0-1.274-1.213-2.552-3.083-2.826v5.205c1.386.07 2.559.35 3.43.96 1.083.758 1.57 1.927 1.57 3.401 0 1.534-.635 2.683-1.744 3.414-.884.582-2.018.865-3.256.943V21a.75.75 0 0 1-1.5 0v-1.281c-1.274-.108-2.406-.492-3.276-1.106-1.046-.738-1.724-1.825-1.724-3.113a.75.75 0 0 1 1.5 0c0 .712.363 1.375 1.089 1.887.591.418 1.414.723 2.411.825v-5.74c-1.364-.074-2.449-.362-3.231-.927-.975-.705-1.352-1.742-1.352-2.915 0-2.339 2.115-4.045 4.583-4.336V3a.75.75 0 0 1 .75-.75m-.75 3.554c-1.87.274-3.083 1.552-3.083 2.826 0 .831.247 1.35.73 1.7.449.323 1.186.567 2.353.639zm1.5 6.707v5.713c1.033-.076 1.854-.313 2.431-.693.662-.436 1.069-1.101 1.069-2.16 0-1.119-.346-1.765-.93-2.173-.537-.376-1.366-.618-2.57-.687M18.53 8.97a.75.75 0 0 1 0 1.06l-1.22 1.22h4.19a.75.75 0 0 1 0 1.5h-4.19l1.22 1.22a.75.75 0 1 1-1.06 1.06l-2.5-2.5a.75.75 0 0 1 0-1.06l2.5-2.5a.75.75 0 0 1 1.06 0" clip-rule="evenodd"/></svg>