<svg xmlns="http://www.w3.org/2000/svg" fill="none" viewBox="0 0 24 24"><path fill="currentColor" fill-rule="evenodd" d="M6.75 15.2q0-.625.027-1.234c.628.608 1.371 1.035 2.142 1.363q.26.11.527.209c-.962.375-1.887.88-2.626 1.657a28 28 0 0 1-.07-1.995m.33 4.275q.15.925.357 1.775h9.126q.207-.85.356-1.775a.8.8 0 0 1-.102-.166c-.79-1.746-2.498-2.363-4.672-2.964l-.145-.04-.145.04c-2.174.6-3.882 1.218-4.671 2.964a.8.8 0 0 1-.103.166m7.474-3.937c.962.375 1.887.88 2.626 1.657a28 28 0 0 0 .044-3.228c-.63.607-1.372 1.034-2.143 1.362a12 12 0 0 1-.527.209m2.086-6.06a18 18 0 0 0-.907-2.904c-.424.708-1.003 1.212-1.648 1.596.865.307 1.764.698 2.555 1.307M12 7.474c1.482-.536 2.484-1.153 2.82-2.64l.005-.023c-.9-1.4-1.903-2.062-2.825-2.062s-1.924.662-2.825 2.062l.005.023c.336 1.487 1.338 2.104 2.82 2.64m-3.733-.901c.424.708 1.003 1.212 1.648 1.596-.865.307-1.764.698-2.555 1.307a18 18 0 0 1 .907-2.903M12 9.062l.082.027.475.155c1.685.549 3.153 1.026 4.078 2.376a.655.655 0 0 1 0 .742c-.512.716-1.24 1.204-2.142 1.587-.763.325-1.6.558-2.493.801-.893-.243-1.73-.476-2.493-.8-.901-.384-1.63-.871-2.142-1.588a.655.655 0 0 1 0-.742c.926-1.35 2.393-1.827 4.078-2.375zM6.84 22.75H21a.75.75 0 0 0 0-1.5h-2.896c.415-1.83.646-3.884.646-6.05 0-3.727-.685-7.137-1.825-9.644C15.817 3.116 14.132 1.25 12 1.25S8.183 3.117 7.075 5.556C5.935 8.063 5.25 11.473 5.25 15.2c0 2.166.231 4.22.646 6.05H3a.75.75 0 0 0 0 1.5z" clip-rule="evenodd"/></svg>