<svg xmlns="http://www.w3.org/2000/svg" fill="none" viewBox="0 0 24 24"><path fill="currentColor" fill-rule="evenodd" d="M2.88 10.443C3.62 6.076 7.422 2.75 12 2.75q.687 0 1.346.097a3.75 3.75 0 0 0 2.968 2.84c.378 1.99 2.36 3.337 4.328 3.007.335.875.541 1.815.594 2.797l-.276.37c-.268.358-.476.394-.565.389-.102-.007-.333-.084-.604-.497l-.213-.327c-.408-.622-.983-1.093-1.692-1.166-.494-.051-.947.1-1.333.38a4.752 4.752 0 0 0-9.269.787l-.324.434c-.268.358-.476.394-.565.389-.102-.007-.333-.084-.604-.497l-.214-.327c-.407-.622-.982-1.093-1.691-1.166a1.84 1.84 0 0 0-1.006.183m-1.62 2.042C1.515 18.197 6.227 22.75 12 22.75c5.937 0 10.75-4.813 10.75-10.75q0-.11-.002-.219a1 1 0 0 0-.005-.157 10.7 10.7 0 0 0-.984-4.139.75.75 0 0 0-.95-.384C19.386 7.648 17.75 6.546 17.75 5a.75.75 0 0 0-.75-.75 2.25 2.25 0 0 1-2.245-2.098.75.75 0 0 0-.599-.686A11 11 0 0 0 12 1.25C6.063 1.25 1.25 6.063 1.25 12q0 .143.004.284a.8.8 0 0 0 .007.201m1.51.12.436-.531c.253-.308.44-.33.526-.322.104.01.33.098.59.496l.214.326c.423.646 1.026 1.127 1.768 1.173a1.9 1.9 0 0 0 1.163-.322 4.752 4.752 0 0 0 9.234-.737l.505-.614c.253-.308.44-.33.526-.322.104.01.33.098.59.496l.215.326c.422.646 1.025 1.127 1.767 1.173.286.017.556-.032.806-.134a9.25 9.25 0 0 1-18.34-1.009M8.75 12a3.25 3.25 0 1 1 6.5 0 3.25 3.25 0 0 1-6.5 0" clip-rule="evenodd"/></svg>