<svg xmlns="http://www.w3.org/2000/svg" fill="none" viewBox="0 0 24 24"><path fill="currentColor" fill-rule="evenodd" d="M12.75 4a.75.75 0 0 0-1.5 0v8.19l-1.22-1.22a.75.75 0 1 0-1.06 1.06l2.5 2.5a.75.75 0 0 0 1.06 0l2.5-2.5a.75.75 0 1 0-1.06-1.06l-1.22 1.22zm8.921 10.336a.75.75 0 0 0-1.342-.671l-2.447 4.894a1.25 1.25 0 0 1-1.118.691H7.236a1.25 1.25 0 0 1-1.118-.69l-2.447-4.895a.75.75 0 1 0-1.342.67l2.448 4.895a2.75 2.75 0 0 0 2.46 1.52h9.527a2.75 2.75 0 0 0 2.46-1.52z" clip-rule="evenodd"/></svg>