<svg xmlns="http://www.w3.org/2000/svg" fill="none" viewBox="0 0 24 24"><path fill="currentColor" fill-rule="evenodd" d="M10.75 3.75a1 1 0 1 1 2 0V9.5a.75.75 0 0 0 .783.75c1.604-.072 4.335.307 6.256 2.24.416.42.553 1.167.401 2.181-.146.978-.533 1.995-.868 2.694l-.012.027-.998 2.31a.8.8 0 0 0-.062.298v2a.75.75 0 0 0 1.5 0v-1.845L20.681 18c.371-.777.818-1.937.993-3.107.17-1.14.115-2.518-.82-3.46-2.035-2.047-4.74-2.622-6.604-2.685V3.75a2.5 2.5 0 0 0-5 0v8.374l-.923-.97-.047-.045a2.4 2.4 0 0 0-3.503.337c-.707.91-.702 2.2.01 3.106h.001l4.462 5.704V22a.75.75 0 0 0 1.5 0v-2.003a.75.75 0 0 0-.16-.462l-4.622-5.908-.001-.002a1.03 1.03 0 0 1-.005-1.26.9.9 0 0 1 1.304-.15l2.19 2.302A.75.75 0 0 0 10.75 14zM5.53 1.47a.75.75 0 0 1 0 1.06l-.72.72H7a.75.75 0 0 1 0 1.5H4.81l.72.72a.75.75 0 0 1-1.06 1.06l-2-2a.75.75 0 0 1 0-1.06l2-2a.75.75 0 0 1 1.06 0m12.94 0a.75.75 0 0 1 1.06 0l2 2a.75.75 0 0 1 0 1.06l-2 2a.75.75 0 1 1-1.06-1.06l.72-.72H17a.75.75 0 0 1 0-1.5h2.19l-.72-.72a.75.75 0 0 1 0-1.06" clip-rule="evenodd"/></svg>