<svg xmlns="http://www.w3.org/2000/svg" fill="none" viewBox="0 0 24 24"><path fill="currentColor" fill-rule="evenodd" d="M12.75 3a.75.75 0 0 0-1.5 0v1.325a3.75 3.75 0 0 0-2.211 5.976l-2.416 5.313a10.7 10.7 0 0 1-2.996-3.026.75.75 0 1 0-1.253.825 12.1 12.1 0 0 0 3.622 3.582l-1.679 3.692a.75.75 0 1 0 1.366.621l1.633-3.592c1.216.564 2.541.916 3.934 1.009v.775a.75.75 0 0 0 1.5 0v-.775a11.1 11.1 0 0 0 3.935-1.01l1.632 3.593a.75.75 0 1 0 1.366-.62l-1.679-3.693a12.1 12.1 0 0 0 3.622-3.583.75.75 0 0 0-1.252-.824 10.7 10.7 0 0 1-2.997 3.026l-2.415-5.313a3.75 3.75 0 0 0-2.212-5.976zm3.314 13.35-2.293-5.044A3.7 3.7 0 0 1 12 11.75a3.7 3.7 0 0 1-1.77-.444L7.936 16.35a9.6 9.6 0 0 0 3.313.871v-.72a.75.75 0 0 1 1.5 0v.72a9.6 9.6 0 0 0 3.314-.87M9.75 8a2.25 2.25 0 1 1 4.5 0 2.25 2.25 0 0 1-4.5 0" clip-rule="evenodd"/></svg>