<svg xmlns="http://www.w3.org/2000/svg" fill="none" viewBox="0 0 24 24"><path fill="currentColor" fill-rule="evenodd" d="M9.221 1.304a.75.75 0 0 1 .855.216l1.732 2.078c.1.12.284.12.384 0l1.732-2.078a.75.75 0 0 1 .855-.216l2.5 1a.75.75 0 0 1 .251 1.226c-.364.365-.444.653-.454.95a3.5 3.5 0 0 0 .049.61l.035.23c.029.183.062.392.085.594.126 1.083 0 1.946-.524 2.61a2.95 2.95 0 0 1-.971.77v2.01c.536.135.982.519 1.198 1.039a48 48 0 0 0 2.075 4.377c.822 1.516 1.703 2.892 2.524 3.767a.75.75 0 0 1-.105 1.12c-1.572 1.144-3.917 1.396-5.498.494a1.94 1.94 0 0 0-1.87-.002l-.005.003c-.558.314-1.335.648-2.069.648s-1.511-.334-2.069-.648l-.005-.003a1.94 1.94 0 0 0-1.87.002c-1.581.902-3.926.65-5.498-.495a.75.75 0 0 1-.105-1.12c.821-.874 1.702-2.25 2.524-3.766a48 48 0 0 0 2.075-4.377c.216-.52.662-.904 1.198-1.04V9.296c-.368-.193-.706-.437-.97-.772-.525-.663-.65-1.526-.525-2.61.023-.2.056-.41.085-.593l.035-.23c.036-.243.055-.436.05-.61-.01-.297-.091-.586-.455-.95a.75.75 0 0 1 .251-1.226zm.529 9.946h4.5v-1.5h-4.5zm5.25 1.5H8.68a.26.26 0 0 0-.242.166 50 50 0 0 1-2.142 4.518c-.66 1.218-1.392 2.415-2.14 3.366 1.08.467 2.356.457 3.16-.003l.005-.003c1.03-.577 2.328-.582 3.348.002.49.275.99.454 1.331.454s.841-.179 1.33-.454c1.021-.584 2.318-.579 3.349-.002l.006.003c.803.46 2.08.47 3.159.003-.748-.951-1.48-2.148-2.14-3.366a50 50 0 0 1-2.142-4.518.26.26 0 0 0-.242-.166zm.544-5.157c-.187.236-.519.425-1.171.657H9.627c-.652-.232-.984-.42-1.17-.657-.17-.214-.317-.601-.212-1.507.02-.172.044-.326.07-.491q.023-.135.044-.287c.04-.267.075-.567.064-.878a2.7 2.7 0 0 0-.259-1.088L9.273 2.9l1.383 1.66a1.75 1.75 0 0 0 2.688 0l1.383-1.66 1.109.443c-.17.357-.247.719-.26 1.088-.01.31.026.61.065.878l.044.287c.026.165.05.319.07.491.105.906-.042 1.293-.211 1.507" clip-rule="evenodd"/></svg>