<svg xmlns="http://www.w3.org/2000/svg" fill="none" viewBox="0 0 24 24"><path fill="currentColor" fill-rule="evenodd" d="M6.75 2.54a1.92 1.92 0 0 1 2.16.09q.03.022.058.048L12 5.479l3.033-2.801.057-.048a1.92 1.92 0 0 1 2.16-.09l3.604 2.263a1.752 1.752 0 0 1 .215 2.842l-.032.026-2.299 1.748 2.367 1.804.031.025a1.71 1.71 0 0 1-.175 2.753l-2.212 1.462.001.037v2a1.75 1.75 0 0 1-.967 1.565l-5 2.5a1.75 1.75 0 0 1-1.565 0l-5-2.5A1.75 1.75 0 0 1 5.25 17.5v-2.037L3.04 14a1.71 1.71 0 0 1-.144-2.778L5.262 9.42 2.963 7.67l-.032-.026c-.928-.79-.805-2.201.215-2.842zm0 13.913V17.5a.25.25 0 0 0 .138.224l5 2.5a.25.25 0 0 0 .224 0l5-2.5a.25.25 0 0 0 .138-.224v-1.047a1.92 1.92 0 0 1-2.24-.138L12 13.657l-3.01 2.658-.029.024a1.92 1.92 0 0 1-2.211.114m1.235-12.64a.42.42 0 0 0-.438-.002L3.944 6.074a.28.28 0 0 0-.14.211.25.25 0 0 0 .088.207l2.74 2.084 4.092-2.234zM3.825 12.4l2.678-2.041 4.308 2.347-2.796 2.468a.42.42 0 0 1-.464.01L3.866 12.75c-.084-.056-.112-.124-.115-.179a.21.21 0 0 1 .074-.17m12.16 2.774-2.796-2.468 4.308-2.347 2.678 2.041a.21.21 0 0 1 .075.171c-.004.055-.032.123-.116.179l-3.684 2.435a.42.42 0 0 1-.465-.01m4.124-8.682-2.741 2.084-4.092-2.234 2.739-2.53a.42.42 0 0 1 .438-.001l.399-.635-.399.635 3.604 2.263a.28.28 0 0 1 .14.211.25.25 0 0 1-.088.207M8.066 9.502 12 11.646l3.934-2.144L12 7.355z" clip-rule="evenodd"/></svg>