<svg xmlns="http://www.w3.org/2000/svg" fill="none" viewBox="0 0 24 24"><path fill="currentColor" fill-rule="evenodd" d="M6.25 4.5a.75.75 0 0 1 1.5 0c0 .194-.114.37-.394.542a2 2 0 0 1-.527.228.75.75 0 0 0-.579.73v2.503c-.773-.31-1.841-.432-3.035.208-1.573.845-2.291 2.823-1.824 4.79.477 2.008 2.156 4.007 5.345 5.201a.75.75 0 0 0 .526 0c1.055-.395 1.945-.877 2.682-1.421a.75.75 0 0 0-.89-1.207 9.3 9.3 0 0 1-2.055 1.122c-2.646-1.063-3.823-2.669-4.149-4.042-.347-1.46.23-2.668 1.074-3.12.762-.41 1.376-.308 1.813-.12a2.4 2.4 0 0 1 .71.474.75.75 0 0 0 1.103 0c.029-.027.107-.1.17-.15a2.4 2.4 0 0 1 .54-.324c.438-.188 1.051-.29 1.813.12.31.165.579.425.783.765a.75.75 0 1 0 1.286-.772 3.55 3.55 0 0 0-1.36-1.316c-1.192-.639-2.26-.519-3.032-.21V6.528a4 4 0 0 0 .394-.208c.47-.29 1.106-.865 1.106-1.819a2.25 2.25 0 0 0-4.5 0 .75.75 0 0 0 1.5 0M17 6.75a.75.75 0 0 0-.75.75.75.75 0 0 1-1.5 0 2.25 2.25 0 0 1 4.5 0c0 .954-.636 1.528-1.106 1.819a3 3 0 0 1-.394.208v1.975c.773-.31 1.84-.43 3.032.21 1.574.844 2.292 2.823 1.825 4.788-.477 2.009-2.156 4.008-5.345 5.202a.75.75 0 0 1-.526 0c-3.189-1.194-4.868-3.193-5.345-5.202-.467-1.966.25-3.944 1.824-4.789 1.194-.64 2.262-.518 3.035-.208V9c0-.348.24-.65.579-.73a2 2 0 0 0 .527-.228c.28-.172.394-.348.394-.542a.75.75 0 0 0-.75-.75m-.555 6.635.002.003a.75.75 0 0 0 1.103 0l.003-.003.029-.028a2.4 2.4 0 0 1 .679-.443c.437-.188 1.05-.29 1.812.12.844.452 1.421 1.66 1.075 3.12-.327 1.373-1.504 2.979-4.15 4.042-2.645-1.063-3.822-2.669-4.148-4.042-.347-1.46.23-2.668 1.074-3.12.762-.41 1.376-.308 1.813-.12a2.4 2.4 0 0 1 .679.443z" clip-rule="evenodd"/></svg>