<svg xmlns="http://www.w3.org/2000/svg" fill="none" viewBox="0 0 24 24"><path fill="currentColor" fill-rule="evenodd" d="M6.433 4.612A9.2 9.2 0 0 1 12 2.75q.76 0 1.487.119c.027.47-.224.924-.659 1.097-.546.216-.936.512-1.193.899-.245.37-.319.757-.366 1.014l-.007.04c-.048.266-.071.394-.131.514-.044.089-.127.208-.376.34-.626.33-1.77.368-3.103-1.041l-.144-.153c-.31-.33-.616-.657-.952-.887zM5.175 5.756A9.22 9.22 0 0 0 2.75 12c0 4.624 3.393 8.456 7.825 9.141a2 2 0 0 1-.027-.244c-.034-.619.211-1.189.48-1.65.39-.67.508-.888.57-1.134.065-.262.07-.576.07-1.469 0-.492.072-.988.293-1.431a2.24 2.24 0 0 1 1.095-1.05c.935-.431 2.292-.401 4.093-.041.21.042.41.01.674-.098.195-.08.362-.172.568-.285a17 17 0 0 1 .43-.232c.4-.206.887-.42 1.474-.494a3.6 3.6 0 0 1 .9.002q.055-.5.055-1.015c0-4.07-2.63-7.527-6.282-8.764-.095.892-.618 1.74-1.587 2.124-.333.132-.446.259-.495.333-.06.091-.095.206-.14.455l-.013.07c-.039.22-.098.559-.258.881-.197.397-.518.735-1.02 1-1.373.726-3.227.424-4.893-1.336l-.151-.16c-.331-.352-.512-.543-.703-.674a1 1 0 0 0-.533-.173m15.735 8.737a2 2 0 0 0-.425.008c-.334.043-.64.166-.976.34q-.132.068-.294.158a9 9 0 0 1-.821.413c-.434.178-.946.3-1.54.18-1.77-.354-2.704-.282-3.168-.067a.74.74 0 0 0-.382.355c-.08.163-.136.405-.136.764v.1c0 .756 0 1.268-.115 1.732-.119.477-.356.884-.685 1.45l-.044.076c-.215.37-.288.63-.279.814.006.105.041.25.225.43 4.126-.118 7.575-2.938 8.64-6.753M12 1.25C6.063 1.25 1.25 6.063 1.25 12S6.063 22.75 12 22.75 22.75 17.937 22.75 12 17.937 1.25 12 1.25" clip-rule="evenodd"/></svg>