<svg xmlns="http://www.w3.org/2000/svg" fill="none" viewBox="0 0 24 24"><path fill="currentColor" fill-rule="evenodd" d="M2.75 5a1.25 1.25 0 1 1 2.5 0 1.25 1.25 0 0 1-2.5 0M4 2.25a2.75 2.75 0 1 0 2.646 3.5H8a.75.75 0 0 0 0-1.5H6.646A2.75 2.75 0 0 0 4 2.25m7 2a.75.75 0 0 0 0 1.5h2a.75.75 0 0 0 0-1.5zM4.688 21.3a.75.75 0 1 1-1.375-.601l.642.281-.642-.281.002-.004.004-.01.017-.038.064-.14q.084-.185.248-.523c.218-.447.54-1.084.961-1.847a43 43 0 0 1 3.675-5.599C11.438 8.501 16.134 4.25 22 4.25a.75.75 0 0 1 0 1.5c-5.133 0-9.438 3.75-12.534 7.712a41.4 41.4 0 0 0-3.544 5.4 39 39 0 0 0-1.16 2.272l-.057.127-.014.031z" clip-rule="evenodd"/></svg>