<svg xmlns="http://www.w3.org/2000/svg" fill="none" viewBox="0 0 24 24"><path fill="currentColor" fill-rule="evenodd" d="M10 5.75h1.25v2.5H9.5c-.41 0-.75.34-.75.75s.34.75.75.75h.25v1.96A5.72 5.72 0 0 0 6.25 17c0 3.17 2.58 5.75 5.75 5.75s5.75-2.58 5.75-5.75c0-2.33-1.39-4.4-3.5-5.29V9.75h.25c.41 0 .75-.34.75-.75s-.34-.75-.75-.75h-1.75v-1.5H14c1.52 0 2.75-1.23 2.75-2.75V3c0-.41-.34-.75-.75-.75h-2c-.579 0-1.115.178-1.558.483A2.75 2.75 0 0 0 10 1.25H8c-.41 0-.75.34-.75.75v1c0 1.52 1.23 2.75 2.75 2.75m2.75-.5H14c.69 0 1.25-.56 1.25-1.25v-.25H14c-.69 0-1.25.56-1.25 1.25zm-1.5 6.98V9.75h1.5v2.48c0 .33.22.62.53.72 1.77.56 2.97 2.19 2.97 4.06A4.26 4.26 0 0 1 12 21.26a4.26 4.26 0 0 1-4.25-4.25c0-1.87 1.19-3.5 2.97-4.06.32-.1.53-.39.53-.72m-2.5-9.48V3c0 .69.56 1.25 1.25 1.25h1.25V4c0-.69-.56-1.25-1.25-1.25z" clip-rule="evenodd"/></svg>