<svg xmlns="http://www.w3.org/2000/svg" fill="none" viewBox="0 0 24 24"><path fill="currentColor" fill-rule="evenodd" d="M3.75 3.5a.75.75 0 0 0-1.5 0v17a.75.75 0 0 0 1.5 0zm15.28 7.97a.75.75 0 0 0-1.06 0l-5.5 5.5a.75.75 0 0 0-.22.53V20c0 .414.336.75.75.75h2.5a.75.75 0 0 0 .53-.22l5.5-5.5a.75.75 0 0 0 0-1.06zm-5.28 7.78v-1.44l4.75-4.75 1.44 1.44-4.75 4.75zM16 2.75a.75.75 0 0 1 .75.75V10a.75.75 0 0 1-1.5 0V3.5a.75.75 0 0 1 .75-.75m-5.75.75a.75.75 0 0 0-1.5 0v3a.75.75 0 0 0 1.5 0zm0 7a.75.75 0 0 0-1.5 0v3a.75.75 0 0 0 1.5 0zm0 7a.75.75 0 0 0-1.5 0v3a.75.75 0 0 0 1.5 0z" clip-rule="evenodd"/></svg>