<svg xmlns="http://www.w3.org/2000/svg" fill="none" viewBox="0 0 24 24"><path fill="currentColor" fill-rule="evenodd" d="M12.495 4.884c2.177-1.912 4.6-2.655 6.327-1.735 1.355.721 2.18 2.391 2.38 4.557.2 2.14-.238 4.575-1.192 6.532-.793 1.626-1.807 2.594-2.88 3.082a.75.75 0 0 0 .622 1.366c1.451-.661 2.693-1.918 3.606-3.79 1.076-2.206 1.563-4.917 1.338-7.329-.221-2.387-1.166-4.676-3.169-5.742-2.585-1.377-5.707-.1-8.022 1.932a.75.75 0 0 0 .99 1.127M2.75 15.5c0-2.067.656-4.302 1.74-6.004C5.584 7.778 7.008 6.75 8.5 6.75s2.916 1.028 4.01 2.746c1.084 1.702 1.74 3.937 1.74 6.004 0 2.035-.664 3.445-1.66 4.353-1.006.918-2.434 1.397-4.09 1.397s-3.084-.48-4.09-1.397c-.996-.908-1.66-2.318-1.66-4.353M8.5 5.25c-2.223 0-4.048 1.513-5.275 3.44-1.238 1.944-1.975 4.46-1.975 6.81 0 2.383.79 4.223 2.148 5.461C4.744 22.189 6.566 22.75 8.5 22.75s3.755-.561 5.102-1.789c1.357-1.238 2.148-3.078 2.148-5.461 0-2.351-.737-4.866-1.975-6.81-1.227-1.927-3.052-3.44-5.275-3.44" clip-rule="evenodd"/></svg>