<svg xmlns="http://www.w3.org/2000/svg" fill="none" viewBox="0 0 24 24"><path fill="currentColor" fill-rule="evenodd" d="M20.586 8.537c-1.337-3.458-4.68-6.21-9.97-5.733a.75.75 0 1 1-.136-1.494c5.987-.54 9.937 2.63 11.505 6.686 1.45 3.748.868 8.297-2.032 11.254H21a.75.75 0 0 1 0 1.5h-3a.75.75 0 0 1-.75-.75v-2.5a.75.75 0 0 1 1.5 0v.832c2.537-2.469 3.133-6.442 1.837-9.795M2.249 4A.75.75 0 0 1 3 3.25h3a.75.75 0 0 1 .75.75v2.5a.75.75 0 1 1-1.5 0v-.832c-2.546 2.466-3.133 6.416-1.83 9.76 1.344 3.444 4.691 6.199 9.96 5.78a.75.75 0 0 1 .119 1.495c-5.955.474-9.901-2.694-11.476-6.73-1.458-3.74-.886-8.27 2.023-11.223H2.999A.75.75 0 0 1 2.25 4M10 7.75c-.69 0-1.25.56-1.25 1.25v4.378q.354-.126.75-.128h5.75v-5.5zm5.25 7H9.5a.75.75 0 0 0 0 1.5h5.75zm-8 .75V9A2.75 2.75 0 0 1 10 6.25h6a.75.75 0 0 1 .75.75v10a.75.75 0 0 1-.75.75H9.5a2.25 2.25 0 0 1-2.25-2.25M11 9.25a.75.75 0 0 0 0 1.5h2a.75.75 0 0 0 0-1.5z" clip-rule="evenodd"/></svg>