<svg xmlns="http://www.w3.org/2000/svg" fill="none" viewBox="0 0 24 24"><path fill="currentColor" fill-rule="evenodd" d="M11.306 3.331a1.25 1.25 0 0 1 1.36.006l7.81 5.116c.42.276.635.778.543 1.273l-1.941 10.492a1.25 1.25 0 0 1-1.23 1.023h-2.362a.75.75 0 0 0 0 1.5h2.363a2.75 2.75 0 0 0 2.704-2.25L22.494 10a2.75 2.75 0 0 0-1.197-2.8L13.49 2.083a2.75 2.75 0 0 0-2.994-.014L2.717 7.067a2.75 2.75 0 0 0-1.22 2.8l1.907 10.616a2.75 2.75 0 0 0 2.71 2.264l4.858-.006a1.75 1.75 0 0 0 1.748-1.75V18.75h.245a1.75 1.75 0 0 0 1.456-.78l1.535-2.302a1.75 1.75 0 0 0 .294-.97V12a.75.75 0 0 0-.75-.75h-.75V10a.75.75 0 0 0-1.5 0v1.25h-2.5V10a.75.75 0 0 0-1.5 0v1.25H8.5a.75.75 0 0 0-.75.75v2.697c0 .346.102.684.294.97l1.535 2.304a1.75 1.75 0 0 0 1.456.779h.185v2.24a.25.25 0 0 1-.25.25l-4.858.007a1.25 1.25 0 0 1-1.232-1.03L2.973 9.603c-.09-.498.13-1 .555-1.273zM9.25 14.697V12.75h5.5v1.947a.25.25 0 0 1-.042.139l-1.535 2.303a.25.25 0 0 1-.208.111h-1.93a.25.25 0 0 1-.208-.111l-1.535-2.303a.25.25 0 0 1-.042-.139" clip-rule="evenodd"/></svg>