<svg xmlns="http://www.w3.org/2000/svg" fill="none" viewBox="0 0 24 24"><path fill="currentColor" fill-rule="evenodd" d="M11.75 1.25C6.92 1.25 3 5.17 3 10v10c0 1.52 1.23 2.75 2.75 2.75h12c1.52 0 2.75-1.23 2.75-2.75V10c0-4.83-3.92-8.75-8.75-8.75M6 19v2.25h-.25c-.69 0-1.25-.56-1.25-1.25V10c0-4 3.25-7.25 7.25-7.25 3.75 0 6.84 2.85 7.21 6.5h-3.21c-.97 0-1.75.78-1.75 1.75v2.25h-2.25c-.97 0-1.75.78-1.75 1.75v2.25H7.75C6.78 17.25 6 18.03 6 19m13 1c0 .69-.56 1.25-1.25 1.25H7.5V19c0-.14.11-.25.25-.25H19zm0-2.75h-7.5V15c0-.14.11-.25.25-.25H19zm0-4h-3.5V11c0-.14.11-.25.25-.25H19z" clip-rule="evenodd"/></svg>