<svg xmlns="http://www.w3.org/2000/svg" fill="none" viewBox="0 0 24 24"><path fill="currentColor" fill-rule="evenodd" d="M12.75 2a.75.75 0 0 0-1.5 0v2.25H6.92a2.75 2.75 0 0 0-2.088.96L2.431 8.012a.75.75 0 1 0 1.138.976l2.402-2.801a1.25 1.25 0 0 1 .949-.437h4.33v1.5H10A1.75 1.75 0 0 0 8.25 9v1c0 .372.116.716.314 1a1.74 1.74 0 0 0-.314 1v1c0 .966.784 1.75 1.75 1.75h4A1.75 1.75 0 0 0 15.75 13v-1c0-.372-.116-.716-.314-1 .198-.284.314-.628.314-1V9A1.75 1.75 0 0 0 14 7.25h-1.25v-1.5h4.33c.365 0 .712.16.95.436l2.4 2.802a.75.75 0 1 0 1.14-.976L19.168 5.21a2.75 2.75 0 0 0-2.088-.96h-4.33zm-.753 6.75H14a.25.25 0 0 1 .25.25v1a.25.25 0 0 1-.25.25h-4a.25.25 0 0 1-.25-.25V9a.25.25 0 0 1 .25-.25zM14.25 12a.25.25 0 0 0-.25-.25h-4a.25.25 0 0 0-.25.25v1c0 .138.112.25.25.25h4a.25.25 0 0 0 .25-.25zM12 16.75h2.586c.464 0 .909.184 1.237.513l1.207 1.207a.75.75 0 1 1-1.06 1.06l-1.207-1.207a.25.25 0 0 0-.177-.073H12.75v3h5.75a.75.75 0 0 1 0 1.5h-13a.75.75 0 0 1 0-1.5h5.75v-3H9.414a.25.25 0 0 0-.177.073L8.03 19.53a.75.75 0 0 1-1.06-1.06l1.207-1.207a1.75 1.75 0 0 1 1.237-.513z" clip-rule="evenodd"/></svg>