<svg xmlns="http://www.w3.org/2000/svg" fill="none" viewBox="0 0 24 24"><path fill="currentColor" fill-rule="evenodd" d="M6.5 2.25a.75.75 0 0 1 .75.75v1.75h9.5V3a.75.75 0 0 1 1.5 0v5a.75.75 0 0 1-1.5 0V6.25h-2v3.029a2.75 2.75 0 0 1 1.977 1.335l2.92 5.008a.75.75 0 0 1 .103.378v1A2.75 2.75 0 0 1 17 19.75h-.25V21a.75.75 0 0 1-1.5 0v-1.25h-6.5V21a.75.75 0 0 1-1.5 0v-1.25H7A2.75 2.75 0 0 1 4.25 17v-1a.75.75 0 0 1 .102-.378l2.921-5.008A2.75 2.75 0 0 1 9.25 9.28V6.25h-2V8a.75.75 0 0 1-1.5 0V3a.75.75 0 0 1 .75-.75m1.5 16h9c.69 0 1.25-.56 1.25-1.25v-.25H5.75V17c0 .69.56 1.25 1.25 1.25zm2.75-12h2.5v3h-2.5zM4 3.25a.75.75 0 0 1 .75.75v3a.75.75 0 0 1-1.5 0v-.75H2.5a.75.75 0 0 1 0-1.5h.75V4A.75.75 0 0 1 4 3.25m16 0a.75.75 0 0 1 .75.75v.75h.75a.75.75 0 0 1 0 1.5h-.75V7a.75.75 0 0 1-1.5 0V4a.75.75 0 0 1 .75-.75m-10.351 7.5a1.25 1.25 0 0 0-1.08.62l-2.263 3.88h11.388l-2.263-3.88a1.25 1.25 0 0 0-1.08-.62z" clip-rule="evenodd"/></svg>