<svg xmlns="http://www.w3.org/2000/svg" fill="none" viewBox="0 0 24 24"><path fill="currentColor" fill-rule="evenodd" d="M3.25 5A3.75 3.75 0 0 1 7 1.25h10A3.75 3.75 0 0 1 20.75 5v14A3.75 3.75 0 0 1 17 22.75H7A3.75 3.75 0 0 1 3.25 19zM7 2.75A2.25 2.25 0 0 0 4.75 5v9.25h14.5V5A2.25 2.25 0 0 0 17 2.75zm12.25 13H4.75V19A2.25 2.25 0 0 0 7 21.25h10A2.25 2.25 0 0 0 19.25 19zM7.25 6A.75.75 0 0 1 8 5.25h2a.75.75 0 0 1 0 1.5H8A.75.75 0 0 1 7.25 6M8 8.25a.75.75 0 0 0 0 1.5h2a.75.75 0 0 0 0-1.5zm6.992 10.25a1 1 0 0 1 1-1h.01a1 1 0 1 1 0 2h-.01a1 1 0 0 1-1-1" clip-rule="evenodd"/></svg>