<svg xmlns="http://www.w3.org/2000/svg" fill="none" viewBox="0 0 24 24"><path fill="currentColor" fill-rule="evenodd" d="M9.782 2.67c.99-.957 2.352-1.42 3.861-1.42h4.356a.75.75 0 0 1 .751.75v3.5a.75.75 0 0 1-.75.75h-3c-.909 0-1.087.222-1.128.283a.7.7 0 0 0-.097.319 5 5 0 0 0-.025.648v1.25H18a.75.75 0 0 1 .728.932l-1 4a.75.75 0 0 1-.728.568h-3.25V22a.75.75 0 0 1-.75.75H9a.75.75 0 0 1-.75-.75v-7.75H5a.75.75 0 0 1-.75-.75v-4A.75.75 0 0 1 5 8.75h3.25V6.7c0-1.685.538-3.069 1.532-4.03m7.468.08h-3.607c-1.206 0-2.165.366-2.818.998-.649.628-1.075 1.594-1.075 2.952v2.8a.75.75 0 0 1-.75.75H5.75v2.5H9a.75.75 0 0 1 .75.75v7.75h2.5V13.5a.75.75 0 0 1 .75-.75h3.414l.625-2.5H13a.75.75 0 0 1-.75-.75V7.479c0-.243 0-.54.038-.825.04-.3.127-.643.34-.96.46-.681 1.28-.944 2.372-.944h2.25z" clip-rule="evenodd"/></svg>