<svg xmlns="http://www.w3.org/2000/svg" fill="none" viewBox="0 0 24 24"><path fill="currentColor" fill-rule="evenodd" d="M5.25 4A2.75 2.75 0 0 1 8 1.25h5.003a.75.75 0 0 1 0 1.5H8c-.69 0-1.25.56-1.25 1.25a.75.75 0 0 1-1.5 0m-3 6V8.008a1.75 1.75 0 0 1 1.747-1.75l3.976-.008A1.75 1.75 0 0 1 9.727 8v1.803a.75.75 0 0 1 0 .394v2.21l5.047-2.045a.75.75 0 0 1 1.032.695v1.36l4.893-2.051a.75.75 0 0 1 1.04.69l.01 9.94a1.75 1.75 0 0 1-1.75 1.752H4a1.75 1.75 0 0 1-1.751-1.75zm5.977.75v10.496L4 21.248a.25.25 0 0 1-.25-.25V10.75zm0-1.5H3.75V8.008a.25.25 0 0 1 .25-.25l3.976-.008a.25.25 0 0 1 .25.25zm7.773-8a.75.75 0 0 0 0 1.5h1a.75.75 0 0 0 0-1.5zM10.254 5a.75.75 0 0 1 .75-.75h6.003a.75.75 0 0 1 0 1.5h-6.003a.75.75 0 0 1-.75-.75m9.745 16.248-10.272-.003v-7.22l4.579-1.854v1.373a.75.75 0 0 0 1.04.692l4.894-2.051.009 8.813a.25.25 0 0 1-.25.25" clip-rule="evenodd"/></svg>