<svg xmlns="http://www.w3.org/2000/svg" fill="none" viewBox="0 0 24 24"><path fill="currentColor" fill-rule="evenodd" d="M16.53 2.53a.75.75 0 0 0-1.06-1.06l-5 5a.75.75 0 0 0 1.06 1.06zm6 0a.75.75 0 0 0-1.06-1.06l-8 8a.75.75 0 1 0 1.06 1.06zm-2 8a.75.75 0 1 0-1.06-1.06l-3 3a.75.75 0 1 0 1.06 1.06zm-11.9-.48a.775.775 0 0 0-1.261 0l-2.343 3.28-3.24.925a.775.775 0 0 0-.382 1.241l2.285 2.742-.458 3.666a.775.775 0 0 0 1.04.822L8 21.328l3.727 1.398a.775.775 0 0 0 1.042-.822l-.459-3.666 2.285-2.742a.775.775 0 0 0-.383-1.241l-3.24-.926zm-2.5 4.4L8 11.835l1.869 2.617a.78.78 0 0 0 .418.294l2.355.673-1.738 2.086a.78.78 0 0 0-.173.592l.34 2.728-2.8-1.05a.78.78 0 0 0-.544 0l-2.8 1.05.342-2.728a.78.78 0 0 0-.174-.592l-1.738-2.086 2.356-.673a.78.78 0 0 0 .417-.294" clip-rule="evenodd"/></svg>