<svg xmlns="http://www.w3.org/2000/svg" fill="none" viewBox="0 0 24 24"><path fill="currentColor" fill-rule="evenodd" d="M5.25 6A3.75 3.75 0 0 1 9 2.25h6A3.75 3.75 0 0 1 17.25 9a3.75 3.75 0 0 1-4.5 6v3a3.75 3.75 0 1 1-6-3 3.74 3.74 0 0 1-1.5-3c0-1.227.589-2.316 1.5-3a3.74 3.74 0 0 1-1.5-3m6 2.25v-4.5H9a2.25 2.25 0 0 0 0 4.5zm3.75 0a2.25 2.25 0 0 0 0-4.5h-2.25v4.5zm-6 1.5h2.25v4.5H9a2.25 2.25 0 0 1 0-4.5m6 0a2.25 2.25 0 1 0 0 4.5 2.25 2.25 0 0 0 0-4.5m-3.75 6H9A2.25 2.25 0 1 0 11.25 18z" clip-rule="evenodd"/></svg>