<svg xmlns="http://www.w3.org/2000/svg" fill="none" viewBox="0 0 24 24"><path fill="currentColor" fill-rule="evenodd" d="M12.25 2a.75.75 0 0 1 .75-.75h5A2.75 2.75 0 0 1 20.75 4v11.014c0 .2-.08.39-.22.531l-7.002 6.987a.75.75 0 0 1-.53.22H6a2.75 2.75 0 0 1-2.75-2.75V13a.75.75 0 0 1 1.5 0v7.002c0 .69.56 1.25 1.25 1.25h6.25V17A2.75 2.75 0 0 1 15 14.25h4.25V4c0-.69-.56-1.25-1.25-1.25h-5a.75.75 0 0 1-.75-.75M15 15.75h3.201l-4.451 4.442V17c0-.69.56-1.25 1.25-1.25M4 1.25a.75.75 0 0 0-.75.75v8a.75.75 0 0 0 1.166.624L7 8.901l2.584 1.723A.75.75 0 0 0 10.75 10V2a.75.75 0 0 0-.75-.75zm.75 7.349V2.75h4.5v5.849L7.416 7.376a.75.75 0 0 0-.832 0z" clip-rule="evenodd"/></svg>