<svg xmlns="http://www.w3.org/2000/svg" fill="none" viewBox="0 0 24 24"><path fill="currentColor" fill-rule="evenodd" d="M5 1.25A2.75 2.75 0 0 0 2.25 4v16A2.75 2.75 0 0 0 5 22.75h4a.75.75 0 0 0 0-1.5H5c-.69 0-1.25-.56-1.25-1.25V4c0-.69.56-1.25 1.25-1.25h6.25V7A2.75 2.75 0 0 0 14 9.75h4.25V13a.75.75 0 0 0 1.5 0V9a.75.75 0 0 0-.22-.53l-7-7a.75.75 0 0 0-.53-.22zm12.19 7-4.44-4.44V7c0 .69.56 1.25 1.25 1.25zm-1.19 7c-1.642 0-3.061.883-4.014 1.673a11 11 0 0 0-1.467 1.475l-.117.149-.003.004a.75.75 0 0 0 0 .898l.004.004c.023.03.081.106.116.149a11 11 0 0 0 1.467 1.476c.953.79 2.372 1.672 4.014 1.672s3.06-.883 4.014-1.673a11 11 0 0 0 1.467-1.475l.116-.148.004-.005a.75.75 0 0 0 0-.898l-.004-.005-.117-.148a11 11 0 0 0-1.466-1.476c-.953-.79-2.372-1.672-4.014-1.672m-3.057 4.673A10 10 0 0 1 11.98 19c.234-.257.563-.59.963-.923.857-.71 1.938-1.327 3.057-1.327 1.12 0 2.2.617 3.057 1.327.4.332.73.666.963.923-.234.257-.562.59-.963.923-.856.71-1.937 1.327-3.057 1.327s-2.2-.617-3.057-1.327M15.993 18a1 1 0 1 0 0 2H16a1 1 0 1 0 0-2z" clip-rule="evenodd"/></svg>