<svg xmlns="http://www.w3.org/2000/svg" fill="none" viewBox="0 0 24 24"><path fill="currentColor" fill-rule="evenodd" d="M17.997 1.25H6.025a.75.75 0 0 0 0 1.5h11.972c.69 0 1.25.56 1.25 1.25v10.703l-.272.271a.75.75 0 1 0 1.06 1.062l.492-.49a.75.75 0 0 0 .22-.531V4a2.75 2.75 0 0 0-2.75-2.75M3.274 4.335 1.47 2.53a.75.75 0 0 1 1.06-1.06l1.89 1.889a.75.75 0 0 1 .243.243l13.371 13.371 4.496 4.497a.75.75 0 1 1-1.06 1.06l-3.967-3.967-3.978 3.97a.75.75 0 0 1-.53.218H6a2.75 2.75 0 0 1-2.75-2.754zm1.498 1.498L4.75 20A1.25 1.25 0 0 0 6 21.252h6.25V17c0-1 .534-1.876 1.332-2.357zm8.978 14.356 2.692-2.686-1.721-1.722A1.25 1.25 0 0 0 13.75 17z" clip-rule="evenodd"/></svg>