<svg xmlns="http://www.w3.org/2000/svg" fill="none" viewBox="0 0 24 24"><path fill="currentColor" fill-rule="evenodd" d="M6 2.75c-.69 0-1.25.56-1.25 1.25v16c0 .69.56 1.25 1.25 1.25h12c.69 0 1.25-.56 1.25-1.25V9.75H15A2.75 2.75 0 0 1 12.25 7V2.75zm7.75 1.06V7c0 .69.56 1.25 1.25 1.25h3.19zM3.25 4A2.75 2.75 0 0 1 6 1.25h7a.75.75 0 0 1 .53.22l7 7c.141.14.22.331.22.53v11A2.75 2.75 0 0 1 18 22.75H6A2.75 2.75 0 0 1 3.25 20zM12 12.25a.75.75 0 0 1 0 1.5H8a.75.75 0 0 1 0-1.5zm4 4a.75.75 0 0 1 0 1.5H8a.75.75 0 0 1 0-1.5z" clip-rule="evenodd"/></svg>