<svg xmlns="http://www.w3.org/2000/svg" fill="none" viewBox="0 0 24 24"><path fill="currentColor" fill-rule="evenodd" d="M3.25 4A2.75 2.75 0 0 1 6 1.25h7a.75.75 0 0 1 .53.22l7 7c.141.14.22.331.22.53v4a.75.75 0 0 1-1.5 0V9.75H15A2.75 2.75 0 0 1 12.25 7V2.75H6c-.69 0-1.25.56-1.25 1.25v16c0 .69.56 1.25 1.25 1.25h4a.75.75 0 0 1 0 1.5H6A2.75 2.75 0 0 1 3.25 20zm10.5-.19 4.44 4.44H15c-.69 0-1.25-.56-1.25-1.25zm3.43 10.718c-.441-1.037-1.92-1.037-2.362 0l-.664 1.559-1.722.134c-1.122.088-1.62 1.497-.726 2.245l1.297 1.085-.396 1.623c-.276 1.132.96 1.957 1.907 1.393l1.485-.887 1.485.887c.947.564 2.184-.26 1.907-1.393l-.396-1.623 1.297-1.085c.894-.748.396-2.157-.725-2.245l-1.723-.134zm-1.824 2.565.643-1.51.643 1.51a.75.75 0 0 0 .631.454l1.628.127-1.227 1.027a.75.75 0 0 0-.247.753l.38 1.559-1.423-.85a.75.75 0 0 0-.77 0l-1.424.85.381-1.56a.75.75 0 0 0-.247-.752l-1.227-1.027 1.628-.127a.75.75 0 0 0 .631-.454" clip-rule="evenodd"/></svg>