<svg xmlns="http://www.w3.org/2000/svg" fill="none" viewBox="0 0 24 24"><path fill="currentColor" fill-rule="evenodd" d="M3.25 4A2.75 2.75 0 0 1 6 1.25h7a.75.75 0 0 1 .53.22l7 7c.141.14.22.331.22.53v4a.75.75 0 0 1-1.5 0V9.75H15A2.75 2.75 0 0 1 12.25 7V2.75H6c-.69 0-1.25.56-1.25 1.25v16c0 .69.56 1.25 1.25 1.25h4a.75.75 0 0 1 0 1.5H6A2.75 2.75 0 0 1 3.25 20zm10.5-.19 4.44 4.44H15c-.69 0-1.25-.56-1.25-1.25zm1.679 9.44a4.179 4.179 0 1 0 2.376 7.616l1.665 1.664a.75.75 0 1 0 1.06-1.06l-1.664-1.665a4.179 4.179 0 0 0-3.437-6.555m-2.679 4.179a2.679 2.679 0 1 1 4.822 1.606 2.67 2.67 0 0 1-2.143 1.072c-1.48 0-2.679-1.2-2.679-2.678" clip-rule="evenodd"/></svg>