<svg xmlns="http://www.w3.org/2000/svg" fill="none" viewBox="0 0 24 24"><path fill="currentColor" fill-rule="evenodd" d="M14.25 2a.75.75 0 0 1 .75-.75h3A2.75 2.75 0 0 1 20.75 4v11.015c0 .199-.08.39-.22.53l-7.002 6.987a.75.75 0 0 1-.53.22H6a2.75 2.75 0 0 1-2.75-2.75V11a.75.75 0 0 1 1.5 0v9.002c0 .69.56 1.25 1.25 1.25h6.25V17A2.75 2.75 0 0 1 15 14.25h4.25V4c0-.69-.56-1.25-1.25-1.25h-3a.75.75 0 0 1-.75-.75m3.951 13.75-4.451 4.442V17c0-.69.56-1.25 1.25-1.25zM7.588 1.612a3.4 3.4 0 0 1 .41.267c.12-.09.258-.182.412-.267.648-.357 1.604-.584 2.679-.024 1.332.695 1.932 2.321 1.541 3.92-.399 1.634-1.794 3.221-4.375 4.16a.75.75 0 0 1-.513 0c-2.58-.939-3.975-2.526-4.374-4.16-.39-1.599.209-3.225 1.541-3.92 1.074-.56 2.031-.333 2.679.024m.41 2.046a.83.83 0 0 1-.614-.316s-.058-.064-.107-.11a2 2 0 0 0-.413-.306c-.324-.18-.74-.28-1.262-.008-.601.314-1.038 1.167-.777 2.233.242.99 1.127 2.194 3.179 3.009 2.051-.815 2.927-2.018 3.17-3.009.26-1.066-.177-1.919-.779-2.233-.522-.272-.937-.171-1.261.008-.172.094-.314.21-.413.305-.049.047-.107.111-.107.111a.83.83 0 0 1-.615.316" clip-rule="evenodd"/></svg>