<svg xmlns="http://www.w3.org/2000/svg" fill="none" viewBox="0 0 24 24"><path fill="currentColor" fill-rule="evenodd" d="M11.81 2.383a7 7 0 0 1-.123-.49.75.75 0 0 0-1.266-.43s-.54.597-.75.868a11.8 11.8 0 0 0-1.386 2.296c-.766 1.684-1.282 3.961-.48 6.49-.338-.167-.636-.454-.905-.836-.524-.744-.835-1.729-.952-2.408a.75.75 0 0 0-1.358-.296C3.303 9.463 2.25 11.697 2.25 14c0 4.828 3.888 8.75 8.695 8.75a.75.75 0 0 0 0-1.5c-3.969 0-7.195-3.241-7.195-7.25 0-1.382.475-2.802 1.215-4.17.184.45.418.902.708 1.314.701.995 1.827 1.861 3.41 1.596a.75.75 0 0 0 .553-1.063c-1.19-2.492-.748-4.752.015-6.429.307-.676.665-1.25.983-1.696q.174.442.453.982c.73 1.403 2.039 3.238 4.361 5.056q.574.45 1 .918a.75.75 0 1 0 1.104-1.015 10 10 0 0 0-1.179-1.083c-2.147-1.682-3.32-3.347-3.956-4.569a8.6 8.6 0 0 1-.607-1.458M16.25 15a1.25 1.25 0 1 1 2.5 0v.75h-2.5zm4 0v.75H21a.75.75 0 0 1 .75.75V22a.75.75 0 0 1-.75.75h-7a.75.75 0 0 1-.75-.75v-5.5a.75.75 0 0 1 .75-.75h.75V15a2.75 2.75 0 1 1 5.5 0m-5.5 6.25v-4h5.5v4z" clip-rule="evenodd"/></svg>