<svg xmlns="http://www.w3.org/2000/svg" fill="none" viewBox="0 0 24 24"><path fill="currentColor" fill-rule="evenodd" d="M12.318 1.295a.75.75 0 0 1 .485.582l.001.009.014.063q.021.093.087.291c.089.262.249.654.527 1.133.555.956 1.59 2.275 3.498 3.613.796.559 1.483 1.213 1.978 1.883.482.651.842 1.399.842 2.131a.75.75 0 0 1-1.5 0c0-.268-.15-.7-.548-1.24-.385-.52-.949-1.065-1.634-1.546-2.085-1.462-3.268-2.943-3.933-4.087a9 9 0 0 1-.364-.697c-.265.34-.555.766-.806 1.26-.663 1.305-1.038 3.037-.015 4.957a.75.75 0 0 1-.55 1.095c-1.41.211-2.434-.476-3.089-1.308a5.4 5.4 0 0 1-.644-1.065c-.575.768-.938 1.45-.916 2.617a.75.75 0 0 1-1.5.028c-.037-2.005.866-3.132 1.705-4.178q.198-.246.386-.49a.75.75 0 0 1 1.333.313c.1.519.367 1.277.816 1.847.179.228.376.415.597.548-.591-1.965-.126-3.732.54-5.044a9.5 9.5 0 0 1 1.88-2.518l.042-.04.012-.01.005-.004.001-.002.495.564-.494-.565a.75.75 0 0 1 .75-.14M4 13.25A2.75 2.75 0 0 0 1.25 16v4A2.75 2.75 0 0 0 4 22.75h16A2.75 2.75 0 0 0 22.75 20v-4A2.75 2.75 0 0 0 20 13.25zM2.75 16c0-.69.56-1.25 1.25-1.25h7.25v2.5h-8.5zm18.5 1.25h-8.5v-2.5H20c.69 0 1.25.56 1.25 1.25zm-18.5 1.5V20c0 .69.56 1.25 1.25 1.25h2.25v-2.5zM20 21.25h-2.25v-2.5h3.5V20c0 .69-.56 1.25-1.25 1.25m-3.75 0h-8.5v-2.5h8.5z" clip-rule="evenodd"/></svg>