<svg xmlns="http://www.w3.org/2000/svg" fill="none" viewBox="0 0 24 24"><path fill="currentColor" fill-rule="evenodd" d="M6.25 2a.75.75 0 0 0-1.5 0v2.5q.001.102.026.197-.026.148-.026.303v10.118c0 4.174 3.206 7.632 7.25 7.632s7.25-3.458 7.25-7.632V5a1.75 1.75 0 0 0-1.75-1.75h-11q-.127 0-.25.018zm0 3a.25.25 0 0 1 .25-.25h11a.25.25 0 0 1 .25.25v10.118c0 3.427-2.614 6.132-5.75 6.132s-5.75-2.705-5.75-6.132zM8.5 6.25a.75.75 0 0 0-.75.75v3.5A2.25 2.25 0 0 0 10 12.75h4a2.25 2.25 0 0 0 2.25-2.25V7a.75.75 0 0 0-.75-.75zm.75 4.25V7.75h5.5v2.75a.75.75 0 0 1-.75.75h-4a.75.75 0 0 1-.75-.75m1 7.5a.75.75 0 0 1 .75-.75h2a.75.75 0 0 1 0 1.5h-2a.75.75 0 0 1-.75-.75" clip-rule="evenodd"/></svg>