<svg xmlns="http://www.w3.org/2000/svg" fill="none" viewBox="0 0 24 24"><path fill="currentColor" fill-rule="evenodd" d="M8.75 3A.25.25 0 0 1 9 2.75h6a.25.25 0 0 1 .25.25v2a.25.25 0 0 1-.25.25H9A.25.25 0 0 1 8.75 5zM9 1.25A1.75 1.75 0 0 0 7.25 3v.25H6A2.75 2.75 0 0 0 3.25 6v4A2.75 2.75 0 0 0 6 12.75h2.69l2.56 2.56v1.94H9A1.75 1.75 0 0 0 7.25 19v2c0 .966.784 1.75 1.75 1.75h6A1.75 1.75 0 0 0 16.75 21v-.25H18A2.75 2.75 0 0 0 20.75 18v-4A2.75 2.75 0 0 0 18 11.25h-2.69l-2.56-2.56V6.75H15A1.75 1.75 0 0 0 16.75 5V3A1.75 1.75 0 0 0 15 1.25zm2.25 5.5H9A1.75 1.75 0 0 1 7.25 5v-.25H6c-.69 0-1.25.56-1.25 1.25v4c0 .69.56 1.25 1.25 1.25h2.69l2.56-2.56zm1.5 10.5H15c.966 0 1.75.784 1.75 1.75v.25H18c.69 0 1.25-.56 1.25-1.25v-4c0-.69-.56-1.25-1.25-1.25h-2.69l-2.56 2.56zm-4 1.75a.25.25 0 0 1 .25-.25h6a.25.25 0 0 1 .25.25v2a.25.25 0 0 1-.25.25H9a.25.25 0 0 1-.25-.25zm1.31-7L12 13.94 13.94 12 12 10.06z" clip-rule="evenodd"/></svg>