<svg xmlns="http://www.w3.org/2000/svg" fill="none" viewBox="0 0 24 24"><path fill="currentColor" fill-rule="evenodd" d="M3 3.75a.25.25 0 0 0-.25.25v15c0 .69.56 1.25 1.25 1.25h16c.69 0 1.25-.56 1.25-1.25V8.994c0-.69-.56-1.25-1.25-1.25h-1.5a.75.75 0 0 1 0-1.5H20a2.75 2.75 0 0 1 2.75 2.75V19A2.75 2.75 0 0 1 20 21.75H4A2.75 2.75 0 0 1 1.25 19V4c0-.966.784-1.75 1.75-1.75h5.502a1.75 1.75 0 0 1 1.396.695l2.493 3.3H15a.75.75 0 0 1 .75.75v3.252H17a.75.75 0 0 1 0 1.5h-1.25v2.503H17a.75.75 0 0 1 0 1.5h-4a.75.75 0 0 1 0-1.5h1.25v-2.503H13a.75.75 0 0 1 0-1.5h1.25V7.744H8a.75.75 0 0 1 0-1.5h2.511L8.701 3.85a.25.25 0 0 0-.199-.099z" clip-rule="evenodd"/></svg>