<svg xmlns="http://www.w3.org/2000/svg" fill="none" viewBox="0 0 24 24"><path fill="currentColor" fill-rule="evenodd" d="M2.75 4A.25.25 0 0 1 3 3.75h4.032a.25.25 0 0 1 .192.09l1.175 1.41H7a.75.75 0 0 0 0 1.5h11c.69 0 1.25.56 1.25 1.25v2.25H6.677a1.75 1.75 0 0 0-1.625 1.1L2.75 17.106zM1.503 21.562A.75.75 0 0 0 2 21.75h16.477a.75.75 0 0 0 .696-.471l3.451-8.63A1.75 1.75 0 0 0 21 10.25h-.25V8A2.75 2.75 0 0 0 18 5.25h-7.649L8.376 2.88a1.75 1.75 0 0 0-1.344-.63H3A1.75 1.75 0 0 0 1.25 4v17a.75.75 0 0 0 .253.562M20 11.75H6.677a.25.25 0 0 0-.232.157L3.108 20.25h14.86l3.264-8.157A.25.25 0 0 0 21 11.75z" clip-rule="evenodd"/></svg>