<svg xmlns="http://www.w3.org/2000/svg" fill="none" viewBox="0 0 24 24"><path fill="currentColor" fill-rule="evenodd" d="M2.75 4A.25.25 0 0 1 3 3.75h5.502a.25.25 0 0 1 .2.1l1.81 2.394H8a.75.75 0 1 0 0 1.5h12c.688 0 1.25.563 1.25 1.256a.75.75 0 0 0 1.5 0A2.755 2.755 0 0 0 20 6.244h-7.609L9.898 2.945a1.75 1.75 0 0 0-1.396-.695H3A1.75 1.75 0 0 0 1.25 4v15A2.75 2.75 0 0 0 4 21.75h12a.75.75 0 0 0 0-1.5H4c-.69 0-1.25-.56-1.25-1.25zm14.996 10a1.75 1.75 0 1 1 2.74 1.445c-.364.249-.783.572-1.116.973-.335.405-.621.936-.62 1.583a.75.75 0 0 0 1.5-.002c0-.181.076-.384.275-.623.202-.243.488-.474.808-.693A3.25 3.25 0 1 0 16.246 14a.75.75 0 0 0 1.5 0m2.504 6.5a.75.75 0 0 0-1.5 0v.5a.75.75 0 0 0 1.5 0z" clip-rule="evenodd"/></svg>