<svg xmlns="http://www.w3.org/2000/svg" fill="none" viewBox="0 0 24 24"><path fill="currentColor" fill-rule="evenodd" d="M4 3.25A2.75 2.75 0 0 0 1.25 6v12A2.75 2.75 0 0 0 4 20.75h16A2.75 2.75 0 0 0 22.75 18V6A2.75 2.75 0 0 0 20 3.25zM2.75 6c0-.69.56-1.25 1.25-1.25h7.25v4.604a2.751 2.751 0 0 0 0 5.293v4.603H4c-.69 0-1.25-.56-1.25-1.25v-2.25H4.5A1.75 1.75 0 0 0 6.25 14v-4A1.75 1.75 0 0 0 4.5 8.25H2.75zm0 3.75v4.5H4.5a.25.25 0 0 0 .25-.25v-4a.25.25 0 0 0-.25-.25zm10 9.5H20c.69 0 1.25-.56 1.25-1.25v-2.25H19.5A1.75 1.75 0 0 1 17.75 14v-4c0-.966.784-1.75 1.75-1.75h1.75V6c0-.69-.56-1.25-1.25-1.25h-7.25v4.604a2.751 2.751 0 0 1 0 5.293zm8.5-9.5H19.5a.25.25 0 0 0-.25.25v4c0 .138.112.25.25.25h1.75zm-9.25 1a1.25 1.25 0 1 0 0 2.5 1.25 1.25 0 0 0 0-2.5" clip-rule="evenodd"/></svg>