<svg xmlns="http://www.w3.org/2000/svg" fill="none" viewBox="0 0 24 24"><path fill="currentColor" fill-rule="evenodd" d="M7.25 6.5a3.75 3.75 0 1 1 7.5 0v1.75h-7.5zm-1.5 1.75H5A2.75 2.75 0 0 0 2.25 11v9A2.75 2.75 0 0 0 5 22.75h11a.75.75 0 0 0 0-1.5H5c-.69 0-1.25-.56-1.25-1.25v-9c0-.69.56-1.25 1.25-1.25h14a.75.75 0 0 0 0-1.5h-2.75V6.5a5.25 5.25 0 1 0-10.5 0zM19 13.75a1.24 1.24 0 0 0-1.25 1.228.75.75 0 0 1-1.5 0c0-1.514 1.24-2.728 2.75-2.728s2.75 1.214 2.75 2.728c0 .544-.161 1.052-.438 1.478-.173.266-.376.52-.562.75l-.1.123a13 13 0 0 0-.428.54c-.324.44-.472.768-.472 1.065v.495a.75.75 0 0 1-1.5 0v-.495c0-.796.395-1.452.763-1.953.156-.212.327-.42.482-.61l.091-.112c.185-.228.343-.428.469-.621a1.2 1.2 0 0 0 .195-.66A1.24 1.24 0 0 0 19 13.75M18.25 22a.75.75 0 0 1 .75-.75h.012a.75.75 0 0 1 0 1.5H19a.75.75 0 0 1-.75-.75M12 14.492a1 1 0 0 1 1 1v.01a1 1 0 1 1-2 0v-.01a1 1 0 0 1 1-1m-3 1a1 1 0 1 0-2 0v.01a1 1 0 1 0 2 0z" clip-rule="evenodd"/></svg>