<svg xmlns="http://www.w3.org/2000/svg" fill="none" viewBox="0 0 24 24"><path fill="currentColor" fill-rule="evenodd" d="M17.843 2.53a.75.75 0 0 0-1.06-1.06l-4.204 4.202a5.17 5.17 0 0 0-1.513 3.575v.928l-9.071 8.506a2.351 2.351 0 1 0 3.325 3.323l8.505-9.07h.928a5.17 5.17 0 0 0 3.574-1.514l4.203-4.202a.75.75 0 0 0-1.06-1.061l-3.793 3.792-1.283-1.282L19.53 5.53a.75.75 0 0 0-1.06-1.06l-3.137 3.136-1.283-1.283zm-4.77 4.936a3.67 3.67 0 0 0-.507 1.799V10.5a.75.75 0 0 1-.237.547L3.02 19.776a.851.851 0 1 0 1.204 1.204l8.729-9.31a.75.75 0 0 1 .547-.236h1.235a3.67 3.67 0 0 0 1.798-.507z" clip-rule="evenodd"/></svg>