<svg xmlns="http://www.w3.org/2000/svg" fill="none" viewBox="0 0 24 24"><path fill="currentColor" fill-rule="evenodd" d="M6 1.25A2.75 2.75 0 0 0 3.25 4v16A2.75 2.75 0 0 0 6 22.75h12A2.75 2.75 0 0 0 20.75 20V4A2.75 2.75 0 0 0 18 1.25zm13.25 8V4c0-.69-.56-1.25-1.25-1.25H6c-.69 0-1.25.56-1.25 1.25v5.25zm-14.5 1.5h14.5V20c0 .69-.56 1.25-1.25 1.25H6c-.69 0-1.25-.56-1.25-1.25zM7 6a1 1 0 0 1 1-1h.009a1 1 0 1 1 0 2H8a1 1 0 0 1-1-1m.25 11a.75.75 0 0 0 1.5 0v-3a.75.75 0 0 0-1.5 0z" clip-rule="evenodd"/></svg>