<svg xmlns="http://www.w3.org/2000/svg" fill="none" viewBox="0 0 24 24"><path fill="currentColor" fill-rule="evenodd" d="M11.25 4A2.75 2.75 0 0 1 14 1.25h5A2.75 2.75 0 0 1 21.75 4v16A2.75 2.75 0 0 1 19 22.75H5A2.75 2.75 0 0 1 2.25 20V8a2.75 2.75 0 0 1 2-2.646V3.5A.75.75 0 0 1 5 2.75h4a.75.75 0 0 1 .75.75v1.75h1.5zm-3 1.25h-2.5v-1h2.5zM14 2.75c-.69 0-1.25.56-1.25 1.25v2a.75.75 0 0 1-.75.75H5c-.69 0-1.25.56-1.25 1.25v12c0 .69.56 1.25 1.25 1.25h14c.69 0 1.25-.56 1.25-1.25V4c0-.69-.56-1.25-1.25-1.25zm1 3h3a.75.75 0 0 0 0-1.5h-3a.75.75 0 0 0 0 1.5m-2.21 4.46-.276-.256a.75.75 0 0 0-1.028 0l-.276.256c-.44.405-1.065.981-1.608 1.605a7.4 7.4 0 0 0-.916 1.273c-.244.445-.436.96-.436 1.5A3.683 3.683 0 0 0 12 18.25c2.32 0 3.75-1.855 3.75-3.663 0-.54-.192-1.054-.436-1.5a7.4 7.4 0 0 0-.916-1.272c-.543-.624-1.168-1.2-1.608-1.605m-3.04 4.377c0-.192.072-.45.252-.778.176-.322.43-.664.731-1.009.412-.473.869-.908 1.267-1.277.398.369.855.804 1.267 1.277.3.345.555.687.731 1.009.18.328.252.586.252.778 0 1.065-.842 2.163-2.25 2.163s-2.25-1.098-2.25-2.163" clip-rule="evenodd"/></svg>