<svg xmlns="http://www.w3.org/2000/svg" fill="none" viewBox="0 0 24 24"><path fill="currentColor" fill-rule="evenodd" d="M12 2.25a.75.75 0 0 1 .75.75v5.75h.336c.198-.3.516-.752.898-1.18.406-.455.98-.995 1.637-1.203 1.359-.43 2.73.355 3.786 1.474 1.094 1.16 2.06 2.878 2.68 4.873s.801 3.961.56 5.542c-.232 1.524-.913 2.954-2.268 3.382-.949.3-2.154-.017-3.248-.766-1.125-.77-2.235-2.058-3.056-3.923-.059-.133-.174-.196-.268-.196l-3.613-.003c-.095 0-.21.063-.27.196-.82 1.864-1.93 3.153-3.055 3.924-1.093.75-2.299 1.069-3.248.768-1.355-.428-2.036-1.858-2.268-3.382-.241-1.58-.06-3.546.56-5.542S3.5 9 4.593 7.841C5.65 6.722 7.021 5.938 8.38 6.367c.657.208 1.231.748 1.637 1.202.382.429.7.88.898 1.18h.336V3a.75.75 0 0 1 .75-.75M10.25 13a.75.75 0 0 1 .75-.75h2a.75.75 0 0 1 0 1.5h-2a.75.75 0 0 1-.75-.75m-6.905.16c.569-1.827 1.434-3.33 2.34-4.29.943-1 1.738-1.232 2.241-1.072.248.078.594.348.97.77.355.397.654.833.822 1.094.228.354.624.588 1.07.588h2.425c.445 0 .841-.234 1.069-.588.168-.261.467-.697.821-1.094.377-.422.723-.692.97-.77.504-.16 1.3.072 2.243 1.072.905.96 1.77 2.463 2.339 4.29.568 1.826.71 3.559.51 4.87-.21 1.365-.732 2.018-1.238 2.178-.335.106-1.054.04-1.948-.574-.865-.592-1.808-1.646-2.531-3.29a1.8 1.8 0 0 0-1.64-1.09l-3.613-.003c-.74-.001-1.365.46-1.643 1.09-.724 1.644-1.667 2.699-2.531 3.292-.895.614-1.613.68-1.947.575-.507-.16-1.03-.813-1.238-2.179-.2-1.31-.059-3.043.51-4.87" clip-rule="evenodd"/></svg>