<svg xmlns="http://www.w3.org/2000/svg" fill="none" viewBox="0 0 24 24"><path fill="currentColor" fill-rule="evenodd" d="M1.25 4A2.75 2.75 0 0 1 4 1.25h16A2.75 2.75 0 0 1 22.75 4v16A2.75 2.75 0 0 1 20 22.75H4A2.75 2.75 0 0 1 1.25 20zM4 2.75c-.69 0-1.25.56-1.25 1.25v16c0 .69.56 1.25 1.25 1.25h16c.69 0 1.25-.56 1.25-1.25V4c0-.69-.56-1.25-1.25-1.25zM18 18a1 1 0 1 1-1 1 1 1 0 0 1 1-1m-12 .25a.75.75 0 0 0 0 1.5h4a.75.75 0 0 0 0-1.5zm1.309-9H7a.75.75 0 0 0 0 1.5h.309a4.75 4.75 0 0 0 3.941 3.941V15a.75.75 0 0 0 1.5 0v-.309a4.75 4.75 0 0 0 3.941-3.941H17a.75.75 0 0 0 0-1.5h-.309a4.75 4.75 0 0 0-3.941-3.941V5a.75.75 0 0 0-1.5 0v.309A4.75 4.75 0 0 0 7.309 9.25m1.512.072a.75.75 0 0 1 0 1.356 3.25 3.25 0 0 0 2.5 2.501.75.75 0 0 1 1.357 0 3.25 3.25 0 0 0 2.501-2.5.75.75 0 0 1 0-1.357 3.25 3.25 0 0 0-2.5-2.501.75.75 0 0 1-1.357 0 3.25 3.25 0 0 0-2.501 2.5" clip-rule="evenodd"/></svg>