<svg xmlns="http://www.w3.org/2000/svg" fill="none" viewBox="0 0 24 24"><path fill="currentColor" fill-rule="evenodd" d="M8.045 20.365a9.25 9.25 0 0 1-5.285-7.936 5 5 0 0 0 2.328.593c.634 0 1.1.03 1.446.096.346.064.52.154.614.231.16.13.31.41.31 1.407v.074c0 .923 0 1.471.073 1.961.076.505.227.94.469 1.631l.02.058c.281.807.321 1.398.025 1.884M12 21.25a9.3 9.3 0 0 1-2.537-.352c.481-.992.275-2.046-.027-2.912-.267-.766-.369-1.066-.421-1.416-.055-.366-.057-.796-.057-1.814 0-.99-.11-1.953-.86-2.568-.36-.295-.804-.454-1.287-.545-.483-.09-1.057-.121-1.723-.121-.85 0-1.62-.345-2.25-.807a9.26 9.26 0 0 1 6.423-7.553c-.022.282-.011.564.036.838.138.792.589 1.538 1.416 1.94.315.153.442.307.511.436.084.155.125.343.172.654l.015.104c.085.596.215 1.506 1.22 2.157.68.44 1.53.598 2.432.332.884-.26 1.756-.907 2.568-1.959.502-.649 1.182-.981 1.834-1.128a9.2 9.2 0 0 1 1.779 5.81c-.858-.204-1.834-.114-2.808.586-.9.647-1.635.703-2.31.734l-.092.004c-.306.012-.697.029-1.044.139a1.8 1.8 0 0 0-1.092.933c-.366.7-.306 1.319-.108 1.859.087.239.204.469.302.663l.007.013c.105.209.198.393.276.59.146.37.234.78.141 1.324-.08.475-.306 1.092-.814 1.903A9.3 9.3 0 0 1 12 21.25m2.615 1.18c4.673-1.168 8.135-5.395 8.135-10.43 0-5.937-4.813-10.75-10.75-10.75S1.25 6.063 1.25 12 6.063 22.75 12 22.75c.902 0 1.778-.111 2.615-.32m1.085-1.95q.213-.547.295-1.036a3.83 3.83 0 0 0-.224-2.127 8 8 0 0 0-.326-.702l-.008-.016a5 5 0 0 1-.239-.514c-.088-.24-.098-.405.03-.649.073-.141.132-.171.213-.197.15-.047.346-.056.753-.075h.001c.775-.035 1.862-.112 3.117-1.014.607-.437 1.196-.48 1.753-.3a9.27 9.27 0 0 1-5.366 6.63M10.842 2.823a2.1 2.1 0 0 0-.067.921c.07.402.272.692.593.847.564.274.94.637 1.176 1.073.222.41.29.837.335 1.146l.004.027c.095.634.137.92.564 1.196.32.207.72.292 1.193.152.49-.144 1.118-.548 1.804-1.437a4.5 4.5 0 0 1 1.938-1.443A9.22 9.22 0 0 0 12 2.75a9 9 0 0 0-1.158.072" clip-rule="evenodd"/></svg>