<svg xmlns="http://www.w3.org/2000/svg" fill="none" viewBox="0 0 24 24"><path fill="currentColor" fill-rule="evenodd" d="M8.734 9.42c0-3.135 2.528-5.67 5.637-5.67 3.59 0 6.361 2.769 5.807 6.124v.003l-1.111 6.373H12a.75.75 0 0 0 0 1.5h6.805l-.255 1.465a1.25 1.25 0 0 1-1.232 1.035H9.04a1.25 1.25 0 0 1-1.032-.544l-4.05-5.923a1.19 1.19 0 0 1 .065-1.429 1.165 1.165 0 0 1 1.833.048l1.527 2.047A.75.75 0 0 0 8.734 14zm5.637-7.17c-3.945 0-7.137 3.214-7.137 7.17v2.32l-.175-.235a2.665 2.665 0 0 0-4.191-.108 2.69 2.69 0 0 0-.15 3.232l4.052 5.923a2.75 2.75 0 0 0 2.27 1.198h8.278a2.75 2.75 0 0 0 2.71-2.278l1.628-9.343v-.006c.742-4.47-2.982-7.873-7.285-7.873" clip-rule="evenodd"/></svg>