<svg xmlns="http://www.w3.org/2000/svg" fill="none" viewBox="0 0 24 24"><path fill="currentColor" fill-rule="evenodd" d="M4.75 4c0-.69.56-1.25 1.25-1.25h8.172l.078.002V6c0 .966.784 1.75 1.75 1.75h3.247l.003.078V20c0 .69-.56 1.25-1.25 1.25H6c-.69 0-1.25-.56-1.25-1.25zm13.44 2.25-2.44-2.44V6c0 .138.112.25.25.25zM6 1.25A2.75 2.75 0 0 0 3.25 4v16A2.75 2.75 0 0 0 6 22.75h12A2.75 2.75 0 0 0 20.75 20V7.828c0-.729-.29-1.428-.805-1.944l-3.829-3.829a2.75 2.75 0 0 0-1.944-.805zM7.25 11a.75.75 0 0 1 .75-.75h8a.75.75 0 0 1 0 1.5H8a.75.75 0 0 1-.75-.75m0 3a.75.75 0 0 1 .75-.75h8a.75.75 0 0 1 0 1.5H8a.75.75 0 0 1-.75-.75m0 3a.75.75 0 0 1 .75-.75h4.17a.75.75 0 0 1 0 1.5H8a.75.75 0 0 1-.75-.75" clip-rule="evenodd"/></svg>