<svg xmlns="http://www.w3.org/2000/svg" fill="none" viewBox="0 0 24 24"><path fill="currentColor" fill-rule="evenodd" d="M15.47 1.47a.75.75 0 0 1 1.06 0L19 3.94l2.47-2.47a.75.75 0 1 1 1.06 1.06L20.06 5l2.47 2.47a.75.75 0 0 1-1.06 1.06L19 6.06l-2.47 2.47a.75.75 0 1 1-1.06-1.06L17.94 5l-2.47-2.47a.75.75 0 0 1 0-1.06m-5.674 8.856 3.878 3.878a2.765 2.765 0 0 0-3.878-3.878m4.945 4.944A4.265 4.265 0 0 0 8.73 9.26L5.69 6.22c-.695-.695-1.922-.719-2.555.181a10.34 10.34 0 0 0-1.885 5.966c0 5.733 4.647 10.38 10.38 10.38 2.22 0 4.278-.697 5.966-1.884.9-.633.877-1.86.182-2.556zM4.36 7.264a.12.12 0 0 1 .101-.053.23.23 0 0 1 .168.07l12.087 12.087a.23.23 0 0 1 .07.167.12.12 0 0 1-.054.1 8.84 8.84 0 0 1-5.103 1.613 8.88 8.88 0 0 1-8.88-8.88c0-1.901.596-3.66 1.612-5.104" clip-rule="evenodd"/></svg>