<svg xmlns="http://www.w3.org/2000/svg" fill="none" viewBox="0 0 24 24"><path fill="currentColor" fill-rule="evenodd" d="M11.396 2.9c.376-.2.832-.2 1.208 0l8.524 4.533a.21.21 0 0 1 .013.376l-.002.001-2.243 1.374C16.88 8.59 14.518 8.25 12 8.25s-4.88.34-6.896.934L2.861 7.81h-.002a.212.212 0 0 1 .013-.377zM4.25 10.42 2.079 9.09a1.71 1.71 0 0 1 .089-2.982l8.524-4.533a2.79 2.79 0 0 1 2.616 0l8.524 4.533a1.71 1.71 0 0 1 .09 2.982l-2.172 1.33V15c0 3.243-1.995 5.198-3.87 6.302-.937.553-1.868.91-2.56 1.128a12 12 0 0 1-1.09.29l-.098.018a.8.8 0 0 1-.264 0h-.004l-.094-.019-.244-.054a12 12 0 0 1-.845-.235 12.5 12.5 0 0 1-2.562-1.128C6.245 20.198 4.25 18.243 4.25 15zM12 13.25c2.295 0 4.433.298 6.25.809V15c0 2.507-1.505 4.052-3.13 5.01-.813.479-1.632.794-2.252.99a11 11 0 0 1-.868.235l-.128-.03a11 11 0 0 1-.74-.205 11 11 0 0 1-2.251-.99C7.255 19.052 5.75 17.507 5.75 15v-.941c1.817-.511 3.955-.809 6.25-.809m-6.25-2.691v1.946c1.867-.483 3.997-.755 6.25-.755s4.383.272 6.25.755V10.56c-1.817-.511-3.955-.809-6.25-.809s-4.433.298-6.25.809" clip-rule="evenodd"/></svg>