<svg xmlns="http://www.w3.org/2000/svg" fill="none" viewBox="0 0 24 24"><path fill="currentColor" fill-rule="evenodd" d="M9.77 1.25A2.25 2.25 0 0 0 7.5 3.494v1.774A1.75 1.75 0 0 0 6 7v1.692a4.75 4.75 0 0 0-2.7 3.944l-.542 7.154c-.12 1.585 1.117 2.96 2.714 2.96h8.557c1.596 0 2.833-1.375 2.713-2.96l-.542-7.153a4.75 4.75 0 0 0-2.7-3.945V7A1.75 1.75 0 0 0 12 5.268v-.436l4.78-.971a.25.25 0 0 1 .25.095l1.12 1.494a.75.75 0 0 0 1.2-.9l-1.12-1.494a1.75 1.75 0 0 0-1.749-.665l-4.49.912A2.253 2.253 0 0 0 9.77 1.25m.73 2.968v-.724a.751.751 0 0 0-1.5 0V5.25h1.5zM12 7v1.275a5 5 0 0 0-.48-.025H7.98a5 5 0 0 0-.48.025V7a.25.25 0 0 1 .25-.25h4A.25.25 0 0 1 12 7M5.472 21.25c-.701 0-1.274-.61-1.218-1.347l.542-7.153c.13-1.702 1.525-3 3.184-3h3.54c1.66 0 3.055 1.298 3.184 3l.542 7.153c.056.738-.517 1.347-1.218 1.347zM10.5 13.5a.75.75 0 0 0-1.5 0v1.75H7.25a.75.75 0 0 0 0 1.5H9v1.75a.75.75 0 0 0 1.5 0v-1.75h1.75a.75.75 0 0 0 0-1.5H10.5zm9.01-6.05a.75.75 0 0 0-1.02 0l-.006.006a8.5 8.5 0 0 0-.828.922 5.7 5.7 0 0 0-.595.935c-.166.338-.311.75-.311 1.187 0 .737.259 1.336.735 1.738.455.383 1.02.512 1.515.512s1.06-.13 1.515-.512c.476-.402.735-1.001.735-1.738 0-.436-.145-.849-.311-1.187a5.7 5.7 0 0 0-.595-.935 9 9 0 0 0-.566-.66c-.074-.077-.21-.211-.261-.262zm-.354 1.843A7 7 0 0 0 19 9.1a7 7 0 0 0-.156.194c-.169.22-.325.455-.437.681-.114.234-.157.41-.157.526 0 .368.116.518.202.59.108.091.293.16.548.16s.44-.069.548-.16c.086-.072.202-.222.202-.59 0-.116-.043-.292-.157-.526a4 4 0 0 0-.437-.68" clip-rule="evenodd"/></svg>