<svg xmlns="http://www.w3.org/2000/svg" fill="none" viewBox="0 0 24 24"><path fill="currentColor" fill-rule="evenodd" d="M13.625 4.967a1.03 1.03 0 0 0-1.26-.005.9.9 0 0 0-.15 1.304l2.302 2.19A.75.75 0 0 1 14 9.75H3.75a1 1 0 1 0 0 2H9.5a.75.75 0 0 1 .75.783c-.072 1.604.307 4.335 2.24 6.256.42.416 1.167.553 2.181.401.978-.146 1.995-.533 2.694-.868l.027-.012 2.31-.998A.8.8 0 0 1 20 17.25h2a.75.75 0 0 1 0 1.5h-1.845L18 19.681c-.777.371-1.937.818-3.107.993-1.14.17-2.518.115-3.46-.82-2.047-2.035-2.622-4.74-2.685-6.604H3.75a2.5 2.5 0 0 1 0-5h8.374l-.97-.923-.045-.047a2.4 2.4 0 0 1 .337-3.503l.46.592-.46-.592c.91-.707 2.2-.702 3.106.01v.001l5.704 4.462H22a.75.75 0 0 1 0 1.5h-2.003a.75.75 0 0 1-.462-.16l-5.908-4.622z" clip-rule="evenodd"/></svg>