<svg xmlns="http://www.w3.org/2000/svg" fill="none" viewBox="0 0 24 24"><path fill="currentColor" fill-rule="evenodd" d="M17.5 3.75a.75.75 0 1 0 0 1.5.75.75 0 0 0 0-1.5m2.25.75a2.25 2.25 0 0 1-1.5 2.122v.628H20a.75.75 0 0 1 0 1.5h-1.75v1.553a5.251 5.251 0 1 1-1.5 0V8.75H14C7.787 8.75 2.75 13.787 2.75 20v1a.75.75 0 0 1-1.5 0V6a.75.75 0 0 1 1.5 0v1.25h14v-.628a2.25 2.25 0 1 1 3-2.122m-17 4.25h5.245a12.8 12.8 0 0 0-5.245 5.245zm11 6.75a3.75 3.75 0 1 1 7.5 0 3.75 3.75 0 0 1-7.5 0m4.5-1.5a.75.75 0 0 0-1.5 0v2c0 .284.16.544.415.67l1 .5a.75.75 0 1 0 .67-1.34l-.585-.293z" clip-rule="evenodd"/></svg>