<svg xmlns="http://www.w3.org/2000/svg" fill="none" viewBox="0 0 24 24"><path fill="currentColor" fill-rule="evenodd" d="M12 4.25a7.25 7.25 0 0 0-7.25 7.25v.44c.374-.076.765-.02 1.104.15l.929.463c.592.297.967.903.967 1.565v4.764a1.75 1.75 0 0 1-.967 1.566l-.929.464a1.68 1.68 0 0 1-1.782-.163c-.443-.344-1.125-.922-1.703-1.628-.56-.686-1.119-1.606-1.119-2.62s.558-1.935 1.12-2.62c.281-.345.588-.66.88-.931V11.5a8.75 8.75 0 0 1 17.5 0v1.45c.292.271.599.586.88.93.562.686 1.12 1.606 1.12 2.62s-.558 1.935-1.12 2.62c-.577.707-1.259 1.285-1.702 1.63a1.68 1.68 0 0 1-1.783.162l-.928-.464a1.75 1.75 0 0 1-.967-1.566v-4.764c0-.662.375-1.268.967-1.565l.928-.464c.34-.17.731-.225 1.105-.15V11.5A7.25 7.25 0 0 0 12 4.25m-6.816 9.18c-.085-.042-.155-.023-.191.006-.401.311-.985.81-1.463 1.394-.494.604-.78 1.184-.78 1.67 0 .487.286 1.067.78 1.67.478.584 1.062 1.084 1.463 1.395.036.029.106.047.19.005l.929-.464a.25.25 0 0 0 .138-.224v-4.764a.25.25 0 0 0-.138-.223zm13.632 0c.085-.042.155-.023.192.006.4.311.984.81 1.462 1.394.494.604.78 1.184.78 1.67 0 .487-.286 1.067-.78 1.67-.478.584-1.062 1.084-1.462 1.395-.037.029-.107.047-.192.005l-.928-.464a.25.25 0 0 1-.138-.224v-4.764a.25.25 0 0 1 .138-.223z" clip-rule="evenodd"/></svg>