<svg xmlns="http://www.w3.org/2000/svg" fill="none" viewBox="0 0 24 24"><path fill="currentColor" fill-rule="evenodd" d="M4.75 5a.75.75 0 0 0-1.5 0v14a.75.75 0 0 0 1.5 0v-6.25h7.5V19a.75.75 0 0 0 1.5 0V5a.75.75 0 0 0-1.5 0v6.25h-7.5zm12 7.778c0-.337.133-.571.334-.735.216-.177.541-.293.916-.293.69 0 1.25.56 1.25 1.25 0 .464-.22.77-.48.986-.133.11-.41.253-.513.304a.75.75 0 0 0 0 1.42c.103.051.38.193.513.304.26.216.48.522.48.986 0 .69-.56 1.25-1.25 1.25-.375 0-.7-.116-.916-.293a.9.9 0 0 1-.334-.735.75.75 0 0 0-1.5 0c0 .802.347 1.457.885 1.897.523.428 1.199.631 1.865.631A2.75 2.75 0 0 0 20.75 17c0-.927-.424-1.58-.864-2 .44-.42.864-1.073.864-2A2.75 2.75 0 0 0 18 10.25c-.666 0-1.341.204-1.865.631a2.4 2.4 0 0 0-.885 1.897.75.75 0 0 0 1.5 0" clip-rule="evenodd"/></svg>