<svg xmlns="http://www.w3.org/2000/svg" fill="none" viewBox="0 0 24 24"><path fill="currentColor" fill-rule="evenodd" d="m11.979 3.901.02.018.02-.018a7.3 7.3 0 0 1 1.588-1.043c1.385-.664 3.357-1.017 5.605.191 2.727 1.465 4.092 4.934 3.323 8.538-.777 3.645-3.707 7.436-9.547 9.83a2.62 2.62 0 0 1-1.978 0c-5.84-2.395-8.77-6.185-9.547-9.83-.77-3.604.596-7.073 3.323-8.538 2.248-1.208 4.22-.855 5.605-.191.682.327 1.22.727 1.588 1.043m-.553 1.55h-.001l-.017-.02-.078-.083A5.8 5.8 0 0 0 9.743 4.21c-1.046-.502-2.504-.778-4.247.16-2.012 1.08-3.229 3.798-2.567 6.903.654 3.064 3.17 6.508 8.65 8.756.265.108.575.108.84 0 5.48-2.248 7.996-5.692 8.65-8.756.662-3.105-.556-5.823-2.567-6.904-1.744-.937-3.2-.661-4.247-.16a5.8 5.8 0 0 0-1.666 1.222l-.016.018v.001a.75.75 0 0 1-1.146.002zM12.75 9a.75.75 0 0 0-1.5 0v2.25H9a.75.75 0 0 0 0 1.5h2.25V15a.75.75 0 0 0 1.5 0v-2.25H15a.75.75 0 0 0 0-1.5h-2.25z" clip-rule="evenodd"/></svg>