<svg xmlns="http://www.w3.org/2000/svg" fill="none" viewBox="0 0 24 24"><path fill="currentColor" fill-rule="evenodd" d="M7.68 2.251c-4.035 0-6.43 3.358-6.43 6.999 0 3.162 1.465 5.698 3.479 7.714 2.004 2.005 4.589 3.533 6.936 4.707a.75.75 0 0 0 .67-1.342c-2.295-1.148-4.71-2.59-6.545-4.426C3.964 14.077 2.75 11.9 2.75 9.25c0-3.038 1.933-5.499 4.93-5.499 1.647 0 2.795.813 3.696 2.165a.75.75 0 0 0 1.248 0c.901-1.352 2.049-2.165 3.696-2.165 2.997 0 4.93 2.46 4.93 5.499 0 .898-.14 1.736-.39 2.522a.75.75 0 0 0 1.429.457 9.7 9.7 0 0 0 .461-2.98c0-3.64-2.395-6.998-6.43-6.998-1.878 0-3.273.805-4.32 2.01-1.047-1.205-2.442-2.01-4.32-2.01M19.25 14a.75.75 0 0 0-1.5 0v2.75H15a.75.75 0 0 0 0 1.5h2.75V21a.75.75 0 0 0 1.5 0v-2.75H22a.75.75 0 0 0 0-1.5h-2.75z" clip-rule="evenodd"/></svg>