<svg xmlns="http://www.w3.org/2000/svg" fill="none" viewBox="0 0 24 24"><path fill="currentColor" fill-rule="evenodd" d="M14.75 4.75H17a.75.75 0 0 0 0-1.5h-6a.75.75 0 0 0 0 1.5h2.25v2.5H6.118a.25.25 0 0 1-.224-.138l-.723-1.447A.75.75 0 0 0 4.5 5.25H2a.75.75 0 0 0-.728.932l.86 3.44A1.75 1.75 0 0 0 3.35 10.88l5.686 1.624c.305.088.565.287.728.56l2.011 3.351a2.75 2.75 0 0 0 2.187 1.33l-.502 1.505H12a.75.75 0 0 0 0 1.5h9a.75.75 0 0 0 0-1.5h-.96l.5-1.5H21A1.75 1.75 0 0 0 22.75 16v-2A6.75 6.75 0 0 0 16 7.25h-1.25zm5.235 11.5H21a.25.25 0 0 0 .25-.25v-1.75H19.5c-1.939 0-3.518-.698-4.61-1.862-.92-.981-1.46-2.257-1.602-3.638h-7.17a1.75 1.75 0 0 1-1.565-.967L4.036 6.75H2.961l.627 2.508a.25.25 0 0 0 .173.18l5.686 1.624a2.75 2.75 0 0 1 1.602 1.23l2.011 3.351a1.25 1.25 0 0 0 1.072.607zm-1.026 1.5h-3.418l-.5 1.5h3.418zm-4.16-9c.134 1.026.547 1.93 1.186 2.612.783.836 1.954 1.388 3.515 1.388h1.6a5.25 5.25 0 0 0-5.1-4z" clip-rule="evenodd"/></svg>