<svg xmlns="http://www.w3.org/2000/svg" fill="none" viewBox="0 0 24 24"><path fill="currentColor" fill-rule="evenodd" d="M11.15 1.61a1.75 1.75 0 0 1 1.7 0l8 4.445c.555.309.9.895.9 1.53v8.823a1.75 1.75 0 0 1-.9 1.53l-8 4.445a1.75 1.75 0 0 1-1.7 0l-8-4.445a1.75 1.75 0 0 1-.9-1.53V7.585c0-.635.345-1.221.9-1.53zm.971 1.312a.25.25 0 0 0-.242 0l-8 4.445a.25.25 0 0 0-.129.218v8.823c0 .091.05.175.129.219l8 4.444a.25.25 0 0 0 .242 0l8-4.444a.25.25 0 0 0 .129-.219V7.585a.25.25 0 0 0-.129-.218z" clip-rule="evenodd"/></svg>