<svg xmlns="http://www.w3.org/2000/svg" fill="none" viewBox="0 0 24 24"><path fill="currentColor" fill-rule="evenodd" d="M12 2.75a3.25 3.25 0 1 1 0 6.5 3.25 3.25 0 0 1 0-6.5M16.75 6a4.75 4.75 0 1 0-9.5 0 4.75 4.75 0 0 0 9.5 0M7 13.75c-.69 0-1.25.56-1.25 1.25v.325A3.751 3.751 0 0 1 5 22.75a3.75 3.75 0 0 1-.75-7.425v-.324A2.75 2.75 0 0 1 7 12.25h10A2.75 2.75 0 0 1 19.75 15v.325a3.751 3.751 0 1 1-1.5 0V15c0-.69-.56-1.25-1.25-1.25zm-2 3a2.25 2.25 0 1 1 0 4.5 2.25 2.25 0 0 1 0-4.5m14 0a2.25 2.25 0 1 1 0 4.5 2.25 2.25 0 0 1 0-4.5" clip-rule="evenodd"/></svg>