<svg xmlns="http://www.w3.org/2000/svg" fill="none" viewBox="0 0 24 24"><path fill="currentColor" fill-rule="evenodd" d="M8.75 3A.25.25 0 0 1 9 2.75h6a.25.25 0 0 1 .25.25v4a.25.25 0 0 1-.25.25H9A.25.25 0 0 1 8.75 7zM9 1.25A1.75 1.75 0 0 0 7.25 3v4c0 .966.784 1.75 1.75 1.75h2.25v2.5H7A2.75 2.75 0 0 0 4.25 14v1.25H3A1.75 1.75 0 0 0 1.25 17v4c0 .966.784 1.75 1.75 1.75h4A1.75 1.75 0 0 0 8.75 21v-4A1.75 1.75 0 0 0 7 15.25H5.75V14c0-.69.56-1.25 1.25-1.25h10c.69 0 1.25.56 1.25 1.25v1.25H17A1.75 1.75 0 0 0 15.25 17v4c0 .966.784 1.75 1.75 1.75h4A1.75 1.75 0 0 0 22.75 21v-4A1.75 1.75 0 0 0 21 15.25h-1.25V14A2.75 2.75 0 0 0 17 11.25h-4.25v-2.5H15A1.75 1.75 0 0 0 16.75 7V3A1.75 1.75 0 0 0 15 1.25zM2.75 17a.25.25 0 0 1 .25-.25h4a.25.25 0 0 1 .25.25v4a.25.25 0 0 1-.25.25H3a.25.25 0 0 1-.25-.25zm14 0a.25.25 0 0 1 .25-.25h4a.25.25 0 0 1 .25.25v4a.25.25 0 0 1-.25.25h-4a.25.25 0 0 1-.25-.25z" clip-rule="evenodd"/></svg>