<svg xmlns="http://www.w3.org/2000/svg" fill="none" viewBox="0 0 24 24"><path fill="currentColor" fill-rule="evenodd" d="M2 3.25a.75.75 0 0 0-.75.75v7.976a1 1 0 0 0 .013.162l1.5 8a.75.75 0 0 0 .737.612H5a.75.75 0 0 0 .725-.557l1.842-6.906c.659.39 1.215 1.02 1.838 1.835q.201.266.416.555c.509.685 1.075 1.447 1.743 2.132l.024.024c3.018 2.826 6.21 2.864 9.432 2.903q.483.004.965.014a.75.75 0 0 0 .03-1.5l-.942-.015-.323-.005v-2.112a1.75 1.75 0 0 0-.967-1.565l-2.448-1.224a.75.75 0 0 0-.785.071l-3.562 2.672q-.181-.154-.362-.322c-.585-.603-1.069-1.253-1.565-1.92a64 64 0 0 0-.464-.618c-.65-.852-1.379-1.717-2.354-2.266-.858-.484-1.811-.628-2.81-.674a31 31 0 0 0-1.59-.017h-.156q-.454.005-.937.004V7.75H8A1.75 1.75 0 0 0 9.75 6V5A1.75 1.75 0 0 0 8 3.25zm12.275 14.732c1.556.894 3.172 1.131 4.975 1.21v-2.074a.25.25 0 0 0-.138-.224l-2.033-1.016zm-8.14-5.147a9 9 0 0 0-.77-.064 30 30 0 0 0-1.513-.016h-.157q-.378.004-.79.004l1.218 6.491h.3zM8 6.25H2.75v-1.5H8a.25.25 0 0 1 .25.25v1a.25.25 0 0 1-.25.25" clip-rule="evenodd"/></svg>