<svg xmlns="http://www.w3.org/2000/svg" fill="none" viewBox="0 0 24 24"><path fill="currentColor" fill-rule="evenodd" d="M5.75 4.011A1.25 1.25 0 0 1 7.004 2.75h5.992c.694 0 1.254.561 1.254 1.25v12c0 .689-.56 1.25-1.254 1.25H7.004c-.698 0-1.26-.568-1.254-1.261l.003-.303a2 2 0 0 0 1.259-2.884 2 2 0 0 0 .612-2.252 2 2 0 0 0 0-3.6 2 2 0 0 0-1.872-2.7zm-1.5 11.964.002-.225H4.25a2 2 0 0 1-1.561-3.25 2 2 0 0 1-.439-1.25c0-.473.164-.908.439-1.25a2 2 0 0 1-.439-1.25c0-.473.164-.908.439-1.25A2 2 0 0 1 4.25 4.25h.002l-.002-.225A2.75 2.75 0 0 1 7.004 1.25h5.992c1.52 0 2.754 1.23 2.754 2.75A3.73 3.73 0 0 1 18 3.25a.75.75 0 0 1 .75.75v4.056c0 .59.189 1.144.499 1.764.476.953.579 2.137.586 3.208a32 32 0 0 1-.04 1.597l-.006.13c-.017.388-.033.746-.038 1.07l1.92 3.84a.75.75 0 1 1-1.342.67l-2-4A.75.75 0 0 1 18.25 16c0-.405.02-.854.04-1.306l.006-.135a31 31 0 0 0 .039-1.521c-.007-1.033-.115-1.921-.428-2.547-.356-.713-.657-1.51-.657-2.435V4.878A2.25 2.25 0 0 0 15.75 7v9c0 1.52-1.234 2.75-2.754 2.75h-2.38l1.782 1.114q.136.085.226.22l1 1.5a.75.75 0 1 1-1.248.832l-.91-1.366-3.681-2.3h-.781a2.75 2.75 0 0 1-2.754-2.775m0-9.225h1.5a.5.5 0 0 0 0-1h-1.5a.5.5 0 0 0 0 1m0 2.5h2.5a.5.5 0 0 0 0-1h-2.5a.5.5 0 0 0 0 1m0 2.5h1.5a.5.5 0 0 0 0-1h-1.5a.5.5 0 0 0 0 1m1 1.5h-1a.5.5 0 0 0 0 1h1a.5.5 0 0 0 0-1m4.75 1a.75.75 0 0 0 0 1.5h.009a.75.75 0 0 0 0-1.5z" clip-rule="evenodd"/></svg>