<svg xmlns="http://www.w3.org/2000/svg" fill="none" viewBox="0 0 24 24"><path fill="currentColor" fill-rule="evenodd" d="M10.753 3.38a2.25 2.25 0 0 1 4.494 0 2.25 2.25 0 0 1 3 2A2.25 2.25 0 0 1 21.25 7.5v9.097a4.75 4.75 0 0 1-1.041 2.967l-.96 1.2V22a.75.75 0 0 1-1.5 0v-1.5a.75.75 0 0 1 .165-.468l1.123-1.405a3.25 3.25 0 0 0 .713-2.03V7.5a.75.75 0 1 0-1.5 0v5a.75.75 0 0 1-1.5 0v-7a.75.75 0 0 0-1.5 0v6a.75.75 0 0 1-1.5 0v-8a.75.75 0 0 0-1.5 0v8a.75.75 0 0 1-1.5 0v-6a.75.75 0 0 0-1.5 0v8a.75.75 0 0 1-1.274.537l-2.112-2.062a.986.986 0 0 0-1.397.146.99.99 0 0 0 .004 1.242l.035.046 4.61 6.664a.75.75 0 0 1 .134.427V22a.75.75 0 0 1-1.5 0v-1.266l-4.463-6.45a2.49 2.49 0 0 1 .008-3.1 2.486 2.486 0 0 1 3.597-.302l.858.838V5.5a2.25 2.25 0 0 1 3.003-2.12" clip-rule="evenodd"/></svg>