<svg xmlns="http://www.w3.org/2000/svg" fill="none" viewBox="0 0 24 24"><path fill="currentColor" fill-rule="evenodd" d="M11.665 1.33a.75.75 0 0 1 .67 0l5 2.5a.75.75 0 0 1 .415.67v6a.75.75 0 0 1-.415.67l-5 2.5a.75.75 0 0 1-.67 0l-5-2.5a.75.75 0 0 1-.415-.67v-6a.75.75 0 0 1 .415-.67zM8.677 4.5 12 6.161 15.323 4.5 12 2.839zm7.573 1.214v4.323l-3.5 1.75V7.464zm-5 1.75-3.5-1.75v4.323l3.5 1.75zm-2.295 6.844a.75.75 0 0 1 .404.98l-1.666 4a.75.75 0 0 1-1.385-.576l1.667-4a.75.75 0 0 1 .98-.404m6.09 0a.75.75 0 0 1 .98.404l1.668 4a.75.75 0 0 1-1.385.577l-1.667-4a.75.75 0 0 1 .404-.981M12 15.584a.75.75 0 0 1 .75.75V19a.75.75 0 0 1-1.5 0v-2.666a.75.75 0 0 1 .75-.75M3 21.25a.75.75 0 0 0 0 1.5h18a.75.75 0 0 0 0-1.5z" clip-rule="evenodd"/></svg>