<svg xmlns="http://www.w3.org/2000/svg" fill="none" viewBox="0 0 24 24"><path fill="currentColor" fill-rule="evenodd" d="M10.75 4a.75.75 0 0 0-1.5 0v7.25H7.04l.672-2.013a.75.75 0 0 0-1.098-.88l-5 3a.75.75 0 0 0 0 1.286l5 3a.75.75 0 0 0 1.098-.88L7.04 12.75h2.21V20a.75.75 0 0 0 1.5 0zm-5.103 6.686-.353 1.06a.75.75 0 0 0 0 .508l.353 1.06L3.457 12zM14.75 4a.75.75 0 0 0-1.5 0v16a.75.75 0 0 0 1.5 0v-7.25h2.21l-.672 2.013a.75.75 0 0 0 1.098.88l5-3a.75.75 0 0 0 0-1.286l-5-3a.75.75 0 0 0-1.098.88l.671 2.013H14.75zm3.998 7.94a.8.8 0 0 0-.042-.192l-.353-1.062L20.543 12l-2.19 1.314.354-1.062a.75.75 0 0 0 .04-.313" clip-rule="evenodd"/></svg>