<svg xmlns="http://www.w3.org/2000/svg" fill="none" viewBox="0 0 24 24"><path fill="currentColor" fill-rule="evenodd" d="M11.25 5.772V4.25H9.5c-.41 0-.75-.34-.75-.75s.34-.75.75-.75h5c.41 0 .75.34.75.75s-.34.75-.75.75h-1.75v1.522c4.264.364 7.667 3.797 7.979 8.078.89.27 1.59 1.03 1.76 1.99l.24.97a.754.754 0 0 1-.73.93v.01h-20a.754.754 0 0 1-.73-.93l.25-1.02c.16-.93.86-1.68 1.75-1.95.312-4.282 3.716-7.715 7.981-8.078m9.799 10.478-.02-.09c-.1-.55-.52-.91-1.02-.91-.41 0-.75-.34-.75-.75 0-4-3.25-7.25-7.25-7.25s-7.25 3.25-7.25 7.25c0 .41-.34.75-.75.75-.5 0-.92.36-1.01.86l-.03.14zm1.701 4.25c0 .41-.34.75-.75.75H2c-.41 0-.75-.34-.75-.75s.34-.75.75-.75h20c.41 0 .75.34.75.75M20.5 9.25c-.28 0-.54-.15-.67-.42a.746.746 0 0 1 .34-1.01l1-.5c.37-.18.82-.04 1.01.34.19.37.04.82-.34 1.01l-1 .5a.8.8 0 0 1-.33.08zm-2-2c-.11 0-.23-.03-.33-.08a.763.763 0 0 1-.34-1.01l.5-1c.19-.37.64-.52 1.01-.34.37.19.52.64.34 1.01l-.5 1c-.13.26-.4.42-.67.42zM3.17 9.17c.1.05.22.08.33.08h.01c.27 0 .54-.16.67-.42.18-.37.03-.82-.34-1.01l-1-.5a.76.76 0 0 0-1.01.34c-.18.37-.03.82.34 1.01zm1.66-2.34c.13.27.39.42.67.42h.01a.8.8 0 0 0 .33-.08c.38-.19.53-.64.34-1.01l-.5-1a.745.745 0 0 0-1.01-.34c-.38.19-.53.64-.34 1.01z" clip-rule="evenodd"/></svg>