<svg xmlns="http://www.w3.org/2000/svg" fill="none" viewBox="0 0 24 24"><path fill="currentColor" fill-rule="evenodd" d="M6.5 2.75a.75.75 0 0 1 0-1.5H20a.75.75 0 0 1 0 1.5h-.25v2.583c0 2.765-1.578 5.16-3.888 6.432a.75.75 0 1 1-.724-1.314c1.874-1.032 3.112-2.947 3.112-5.118V2.75zm-2.5 20a.75.75 0 0 1 0-1.5h.25v-2.583c0-2.949 1.786-5.467 4.352-6.667C6.036 10.8 4.25 8.282 4.25 5.333v-.022L1.47 2.53a.75.75 0 0 1 1.06-1.06l20 20a.75.75 0 1 1-1.06 1.06l-9.774-9.773c-3.342.15-5.946 2.77-5.946 5.91v2.583H17.5a.75.75 0 0 1 0 1.5zm5.82-11.868-3.788-3.79c.574 1.743 1.977 3.152 3.789 3.79" clip-rule="evenodd"/></svg>