<svg xmlns="http://www.w3.org/2000/svg" fill="none" viewBox="0 0 24 24"><path fill="currentColor" fill-rule="evenodd" d="M6.17 4.508a1.25 1.25 0 0 1 1.149-.758h9.362c.5 0 .952.298 1.15.758l2.03 4.736-3.993-.007a.25.25 0 0 1-.161-.06L13.13 6.984a1.75 1.75 0 0 0-2.275.005l-2.562 2.2a.25.25 0 0 1-.163.06H4.139zm-3.663 4.74H2a.75.75 0 0 0 0 1.5h.25v9.502H2a.75.75 0 0 0 0 1.5h20a.75.75 0 0 0 0-1.5h-.25v-9.503h.249a.75.75 0 0 0 .002-1.5h-.508l-2.284-5.33a2.75 2.75 0 0 0-2.528-1.667H7.32a2.75 2.75 0 0 0-2.528 1.667zm17.743 1.497v9.505h-5V16a1.75 1.75 0 0 0-1.75-1.75h-3A1.75 1.75 0 0 0 8.75 16v4.25h-5v-9.502h4.38c.418 0 .822-.15 1.14-.422l2.562-2.2a.25.25 0 0 1 .325 0l2.577 2.194a1.75 1.75 0 0 0 1.132.417zM13.75 16v4.25h-3.5V16a.25.25 0 0 1 .25-.25h3a.25.25 0 0 1 .25.25M12 10.55a1 1 0 1 0 0 2h.009a1 1 0 1 0 0-2z" clip-rule="evenodd"/></svg>