<svg xmlns="http://www.w3.org/2000/svg" fill="none" viewBox="0 0 24 24"><path fill="currentColor" fill-rule="evenodd" d="M11.079 12.147c.2.08.4.11.6.11l-.01-.01c.72 0 1.4-.44 1.66-1.15l1.73-4.76c.16-.44.14-.91-.06-1.34s-.55-.75-.99-.91l-4.75-1.73c-.44-.16-.92-.14-1.34.06-.43.2-.75.55-.91 1l-1.73 4.75c-.16.44-.14.91.06 1.34s.55.75.99.91zm-2.53-8.37c.03-.01.11-.02.11-.02l-.01-.01c.03 0 .09.02.09.02l4.75 1.73c.08.03.12.09.14.13q0 .016.005.04a.3.3 0 0 1-.005.16l-1.73 4.76c-.05.13-.2.2-.33.15l-4.75-1.73a.26.26 0 0 1-.14-.13q0-.018-.006-.04a.3.3 0 0 1 .006-.16l1.73-4.75c.04-.09.1-.13.14-.15m8.45 16.981c-.47 0-.9-.18-1.23-.52l-3.51-3.5c-.67-.68-.67-1.78 0-2.45l3.52-3.52c.68-.67 1.77-.67 2.45 0l3.52 3.52c.67.67.67 1.76 0 2.45l-3.52 3.52c-.32.33-.76.51-1.22.51zm-3.68-5.08 3.52 3.51c.12.12.21.12.32 0l3.52-3.52c.09-.09.09-.24 0-.33l-3.52-3.52a.236.236 0 0 0-.33 0l-3.52 3.52c-.09.09-.09.24 0 .33zm-4.821 6.08h-5c-.96 0-1.75-.79-1.75-1.75v-5c0-.96.79-1.75 1.75-1.75h5c.96 0 1.75.79 1.75 1.75v5c0 .96-.79 1.75-1.75 1.75m-5-7c-.14 0-.25.11-.25.25v5c0 .14.11.25.25.25h5c.14 0 .25-.11.25-.25v-5c0-.14-.11-.25-.25-.25z" clip-rule="evenodd"/></svg>