<svg xmlns="http://www.w3.org/2000/svg" fill="none" viewBox="0 0 24 24"><path fill="currentColor" fill-rule="evenodd" d="M4.5 3.25c-.69 0-1.25.56-1.25 1.25v7.75H8.5a.75.75 0 0 1 .75.75v.5a2.75 2.75 0 1 0 5.5 0V13a.75.75 0 0 1 .75-.75h5.25V4.5c0-.69-.56-1.25-1.25-1.25H17a.75.75 0 0 1 0-1.5h2.5a2.75 2.75 0 0 1 2.75 2.75v15a2.75 2.75 0 0 1-2.75 2.75h-15a2.75 2.75 0 0 1-2.75-2.75v-15A2.75 2.75 0 0 1 4.5 1.75H7a.75.75 0 0 1 0 1.5zM3.25 19.5v-5.75h4.507a4.25 4.25 0 0 0 8.486 0h4.507v5.75c0 .69-.56 1.25-1.25 1.25h-15c-.69 0-1.25-.56-1.25-1.25m9.5-9.5a.75.75 0 0 1-1.5 0V4.31l-1.22 1.22a.75.75 0 1 1-1.06-1.06l2.5-2.5a.75.75 0 0 1 1.06 0l2.5 2.5a.75.75 0 0 1-1.06 1.06l-1.22-1.22z" clip-rule="evenodd"/></svg>