<svg xmlns="http://www.w3.org/2000/svg" fill="none" viewBox="0 0 24 24"><path fill="currentColor" fill-rule="evenodd" d="M4 2.25A2.75 2.75 0 0 0 1.25 5v14A2.75 2.75 0 0 0 4 21.75h1.5a.75.75 0 0 0 0-1.5H4c-.69 0-1.25-.56-1.25-1.25V5c0-.69.56-1.25 1.25-1.25h1.5a.75.75 0 0 0 0-1.5zm14.5 0a.75.75 0 0 0 0 1.5H20c.69 0 1.25.56 1.25 1.25v14c0 .69-.56 1.25-1.25 1.25h-1.5a.75.75 0 0 0 0 1.5H20A2.75 2.75 0 0 0 22.75 19V5A2.75 2.75 0 0 0 20 2.25zM6.75 12c0-1.351.808-2.25 1.95-2.25.191 0 .45.09.774.325.316.23.631.553.918.902.285.345.524.694.694.958l.04.065-.04.065c-.17.264-.41.613-.694.958-.287.349-.602.672-.918.902-.324.235-.583.325-.774.325-1.142 0-1.95-.899-1.95-2.25m6.164.065-.04-.065.04-.065c.17-.264.41-.613.694-.958.287-.349.602-.672.918-.902.324-.235.583-.325.774-.325 1.142 0 1.95.899 1.95 2.25s-.808 2.25-1.95 2.25c-.191 0-.45-.09-.774-.325-.316-.23-.631-.553-.918-.902a10 10 0 0 1-.694-.958m-1.364 1.912c.166-.2.317-.4.45-.588.133.187.284.387.45.588.33.401.737.828 1.195 1.161.45.327 1.018.612 1.655.612 2.172 0 3.45-1.787 3.45-3.75s-1.278-3.75-3.45-3.75c-.637 0-1.205.285-1.655.612-.458.333-.865.76-1.195 1.161-.166.2-.317.4-.45.588a11 11 0 0 0-.45-.588c-.33-.401-.737-.828-1.195-1.161-.45-.327-1.018-.612-1.655-.612-2.172 0-3.45 1.787-3.45 3.75s1.278 3.75 3.45 3.75c.637 0 1.205-.285 1.656-.612.457-.333.864-.76 1.194-1.161" clip-rule="evenodd"/></svg>