<svg xmlns="http://www.w3.org/2000/svg" fill="none" viewBox="0 0 24 24"><path fill="currentColor" fill-rule="evenodd" d="M12.16 3.11a.25.25 0 0 0-.32 0L9.48 5.076A.75.75 0 0 1 9 5.25H5.5a.25.25 0 0 0-.25.25V9a.75.75 0 0 1-.174.48L3.11 11.84a.25.25 0 0 0 0 .32l1.966 2.36a.75.75 0 0 1 .174.48v3.5c0 .138.112.25.25.25H9a.75.75 0 0 1 .48.174l2.36 1.966a.25.25 0 0 0 .32 0l2.36-1.966a.75.75 0 0 1 .48-.174h3.5a.25.25 0 0 0 .25-.25V15a.75.75 0 0 1 .174-.48l1.966-2.36a.25.25 0 0 0 0-.32l-1.966-2.36A.75.75 0 0 1 18.75 9V5.5a.25.25 0 0 0-.25-.25H15a.75.75 0 0 1-.48-.174zm-1.28-1.153a1.75 1.75 0 0 1 2.24 0l2.152 1.793H18.5c.966 0 1.75.784 1.75 1.75v3.23l1.793 2.15a1.75 1.75 0 0 1 0 2.241l-1.793 2.152V18.5a1.75 1.75 0 0 1-1.75 1.75h-3.228l-2.152 1.793a1.75 1.75 0 0 1-2.24 0L8.729 20.25H5.5a1.75 1.75 0 0 1-1.75-1.75v-3.228L1.957 13.12a1.75 1.75 0 0 1 0-2.24L3.75 8.729V5.5c0-.966.784-1.75 1.75-1.75h3.23zm-.13 9.543a.75.75 0 0 1 .75-.75h.5c.69 0 1.25.56 1.25 1.25v4.5a.75.75 0 0 1-1.5 0v-4.25h-.25a.75.75 0 0 1-.75-.75m1.25-4a1 1 0 1 0 0 2h.009a1 1 0 1 0 0-2z" clip-rule="evenodd"/></svg>