<svg xmlns="http://www.w3.org/2000/svg" fill="none" viewBox="0 0 24 24"><path fill="currentColor" fill-rule="evenodd" d="M1.25 12C1.25 6.063 6.063 1.25 12 1.25S22.75 6.063 22.75 12 17.937 22.75 12 22.75 1.25 17.937 1.25 12M12 2.75a9.25 9.25 0 1 0 0 18.5 9.25 9.25 0 0 0 0-18.5m-.253 9.001-.247-.001a.75.75 0 0 1 0-1.5h.036c.204 0 .43 0 .622.028.234.035.519.123.75.379.223.245.291.528.318.749.024.196.024.43.024.66V16.5a.75.75 0 0 1-1.5 0v-4.4c0-.132 0-.236-.002-.326zM12 7a1 1 0 1 0 0 2 1 1 0 1 0 0-2" clip-rule="evenodd"/></svg>