<svg xmlns="http://www.w3.org/2000/svg" fill="none" viewBox="0 0 24 24"><path fill="currentColor" fill-rule="evenodd" d="M3.25 5.5A2.25 2.25 0 0 1 5.5 3.25h2.75v4.5h-5zm0 3.75v5.5h5v-5.5zm0 7v2.25a2.25 2.25 0 0 0 2.25 2.25h2.75v-4.5zm6.5 4.5h8.75a2.25 2.25 0 0 0 2.25-2.25V17a.75.75 0 0 1 1.5 0v1.5a3.75 3.75 0 0 1-3.75 3.75h-13a3.75 3.75 0 0 1-3.75-3.75v-13A3.75 3.75 0 0 1 5.5 1.75h13a3.75 3.75 0 0 1 3.75 3.75V7a.75.75 0 0 1-1.5 0V5.5a2.25 2.25 0 0 0-2.25-2.25H9.75zM18.25 8a.75.75 0 0 0-1.5 0v3.25H13.5a.75.75 0 0 0 0 1.5h3.25V16a.75.75 0 0 0 1.5 0v-3.25h3.25a.75.75 0 0 0 0-1.5h-3.25z" clip-rule="evenodd"/></svg>