<svg xmlns="http://www.w3.org/2000/svg" fill="none" viewBox="0 0 24 24"><path fill="currentColor" fill-rule="evenodd" d="M5 1.25A2.75 2.75 0 0 0 2.25 4v15A2.75 2.75 0 0 0 5 21.75h3.5a.75.75 0 0 0 0-1.5H5c-.69 0-1.25-.56-1.25-1.25V4c0-.69.56-1.25 1.25-1.25h12c.69 0 1.25.56 1.25 1.25v5a.75.75 0 0 0 1.5 0V4A2.75 2.75 0 0 0 17 1.25zM6.75 7a.75.75 0 0 1 .75-.75H14a.75.75 0 0 1 0 1.5H7.5A.75.75 0 0 1 6.75 7m0 4a.75.75 0 0 1 .75-.75H10a.75.75 0 0 1 0 1.5H7.5a.75.75 0 0 1-.75-.75m3.5 5.5a5.25 5.25 0 1 1 9.45 3.15l1.829 1.818a.75.75 0 0 1-1.058 1.064l-1.833-1.823a5.25 5.25 0 0 1-8.388-4.21m5.25-3.75a3.75 3.75 0 1 0 0 7.5 3.75 3.75 0 0 0 0-7.5" clip-rule="evenodd"/></svg>