<svg xmlns="http://www.w3.org/2000/svg" fill="none" viewBox="0 0 24 24"><path fill="currentColor" fill-rule="evenodd" d="M4.75 4c0-.69.56-1.25 1.25-1.25h12c.69 0 1.25.56 1.25 1.25v16.287l-2.915-1.458a.75.75 0 0 0-.733.035L12 21.116l-3.602-2.252a.75.75 0 0 0-.733-.035L4.75 20.286zM6 1.25A2.75 2.75 0 0 0 3.25 4v17.5a.75.75 0 0 0 1.085.67l3.625-1.81 3.643 2.277a.75.75 0 0 0 .796 0l3.643-2.277 3.624 1.812a.75.75 0 0 0 1.085-.671V4A2.75 2.75 0 0 0 18 1.25zM7.75 7a.75.75 0 0 1 .75-.75h6a.75.75 0 0 1 0 1.5h-6A.75.75 0 0 1 7.75 7m0 4a.75.75 0 0 1 .75-.75h3a.75.75 0 0 1 0 1.5h-3a.75.75 0 0 1-.75-.75" clip-rule="evenodd"/></svg>