<svg xmlns="http://www.w3.org/2000/svg" fill="none" viewBox="0 0 24 24"><path fill="currentColor" fill-rule="evenodd" d="M9.25 5.5a2.75 2.75 0 1 1 5.5 0 2.75 2.75 0 0 1-5.5 0M12 1.25a4.25 4.25 0 0 0-.75 8.434v3.566h-.772a2.75 2.75 0 0 0-2.591 1.829l-.427 1.2a2.75 2.75 0 0 0-2.158 1.7l-.949 2.371a1.75 1.75 0 0 0 1.625 2.4h12.046a1.75 1.75 0 0 0 1.625-2.4l-.948-2.371a2.75 2.75 0 0 0-2.162-1.701l-.427-1.2a2.75 2.75 0 0 0-2.59-1.828h-.772V9.684A4.251 4.251 0 0 0 12 1.25m2.937 15-.238-.669a1.25 1.25 0 0 0-1.178-.831h-3.043c-.53 0-1 .333-1.178.831l-.238.669zm-7.082 1.5c-.51 0-.97.311-1.16.786l-.949 2.371a.25.25 0 0 0 .232.343h12.046a.25.25 0 0 0 .232-.343l-.948-2.371a1.25 1.25 0 0 0-1.16-.786z" clip-rule="evenodd"/></svg>