<svg xmlns="http://www.w3.org/2000/svg" fill="none" viewBox="0 0 24 24"><path fill="currentColor" fill-rule="evenodd" d="M6.856 3.864c.252-.272.87-.573 1.862-.793.95-.212 2.108-.321 3.282-.321s2.332.11 3.282.32c.993.221 1.61.522 1.862.794l.55-.51-.55.51c.205.221.372.486.489.78.16.401.169.805-.05 1.57-.158.548-.406 1.201-.744 2.088l-.124.326A8.7 8.7 0 0 0 12 7.25a8.7 8.7 0 0 0-4.715 1.377L7.161 8.3c-.338-.885-.586-1.538-.743-2.085-.22-.765-.21-1.169-.05-1.57.116-.294.283-.559.488-.78m-.81 5.725-.257-.675c-.354-.93-.638-1.676-.813-2.287-.265-.925-.334-1.703-.003-2.537.184-.461.448-.884.782-1.245.583-.63 1.599-1.008 2.637-1.239 1.081-.24 2.352-.356 3.608-.356s2.527.116 3.608.356c1.038.231 2.053.608 2.637 1.239.334.36.598.784.782 1.245.331.834.263 1.612-.003 2.537-.175.611-.46 1.358-.813 2.289l-.256.673A8.73 8.73 0 0 1 20.75 16c0 1.343-.418 2.712-1.023 3.868-.6 1.15-1.426 2.166-2.311 2.756a.75.75 0 0 1-.416.126H7a.75.75 0 0 1-.416-.126c-.885-.59-1.71-1.605-2.311-2.756C3.668 18.712 3.25 17.343 3.25 16a8.73 8.73 0 0 1 2.795-6.411M7.5 15.25a.75.75 0 0 0 0 1.5h.825a3.751 3.751 0 0 0 7.35 0h.825a.75.75 0 0 0 0-1.5h-.825a3.751 3.751 0 0 0-7.35 0zm4.5-1.5a2.25 2.25 0 1 1 0 4.5 2.25 2.25 0 0 1 0-4.5M4.75 16a7.25 7.25 0 1 1 14.5 0c0 1.047-.332 2.178-.852 3.174-.475.907-1.073 1.641-1.639 2.076H7.241c-.566-.435-1.164-1.169-1.639-2.076-.52-.996-.852-2.127-.852-3.174" clip-rule="evenodd"/></svg>