<svg xmlns="http://www.w3.org/2000/svg" fill="none" viewBox="0 0 24 24"><path fill="currentColor" fill-rule="evenodd" d="M7.207 4.177a2.715 2.715 0 0 1 4.086 0l5.27 5.998a2.77 2.77 0 0 1 0 3.65l-5.27 5.998a2.715 2.715 0 0 1-4.086 0l-2.77-3.152a.75.75 0 1 1 1.126-.99l2.77 3.152a1.215 1.215 0 0 0 1.833 0l5.27-5.998a1.27 1.27 0 0 0 0-1.67l-5.27-5.998a1.215 1.215 0 0 0-1.833 0L5.563 8.32a.75.75 0 1 1-1.126-.99zm6.507-.722a2.715 2.715 0 0 1 3.08.722l5.27 5.997a2.77 2.77 0 0 1 0 3.651l-5.27 5.998a2.715 2.715 0 0 1-3.08.721.75.75 0 1 1 .572-1.386 1.215 1.215 0 0 0 1.38-.325l5.27-5.998a1.27 1.27 0 0 0 0-1.67l-5.27-5.998a1.215 1.215 0 0 0-1.38-.325.75.75 0 0 1-.572-1.387M2 11.25a.75.75 0 0 0 0 1.5h7a.75.75 0 0 0 0-1.5z" clip-rule="evenodd"/></svg>