<svg xmlns="http://www.w3.org/2000/svg" fill="none" viewBox="0 0 24 24"><path fill="currentColor" fill-rule="evenodd" d="M16.532 4.414a.75.75 0 0 1 1.054.118l4.551 5.698a2.86 2.86 0 0 1 0 3.54l-4.55 5.698a.75.75 0 0 1-1.173-.936l4.551-5.698c.38-.476.38-1.192 0-1.668l-4.551-5.698a.75.75 0 0 1 .118-1.054M5.997 5.21a2.57 2.57 0 0 1 4.006 0l4.108 4.99a2.86 2.86 0 0 1 0 3.6l-4.108 4.99a2.57 2.57 0 0 1-4.006 0L1.89 13.8a2.86 2.86 0 0 1 0-3.6zm2.848.953a1.07 1.07 0 0 0-1.69 0l-4.108 4.99a1.36 1.36 0 0 0 0 1.694l4.108 4.99a1.07 1.07 0 0 0 1.69 0l4.108-4.99a1.36 1.36 0 0 0 0-1.694zm4.741-1.631a.75.75 0 0 0-1.172.936l4.551 5.698c.38.476.38 1.192 0 1.668l-4.551 5.698a.75.75 0 1 0 1.172.936l4.551-5.698a2.86 2.86 0 0 0 0-3.54z" clip-rule="evenodd"/></svg>