<svg xmlns="http://www.w3.org/2000/svg" fill="none" viewBox="0 0 24 24"><path fill="currentColor" fill-rule="evenodd" d="M19.75 2a.75.75 0 0 0-1.5 0v2.25H16a.75.75 0 0 0 0 1.5h2.25V8a.75.75 0 0 0 1.5 0V5.75H22a.75.75 0 0 0 0-1.5h-2.25zm-8.457 4.177a2.715 2.715 0 0 0-4.086 0l-5.27 5.998a2.77 2.77 0 0 0 0 3.65l5.27 5.998a2.715 2.715 0 0 0 4.086 0l5.27-5.998a2.77 2.77 0 0 0 0-3.65zm-2.96.99a1.215 1.215 0 0 1 1.833 0l5.27 5.998a1.27 1.27 0 0 1 0 1.67l-5.27 5.998a1.215 1.215 0 0 1-1.832 0l-5.27-5.998a1.27 1.27 0 0 1 0-1.67z" clip-rule="evenodd"/></svg>