<svg xmlns="http://www.w3.org/2000/svg" fill="none" viewBox="0 0 24 24"><path fill="currentColor" fill-rule="evenodd" d="M18.237 2.288A.75.75 0 0 0 17.25 3v18a.75.75 0 0 0 1.5 0v-6.25H22a.75.75 0 0 0 .746-.825l-.685-6.853a5.63 5.63 0 0 0-3.824-4.784m2.934 10.962H18.75V4.194a4.13 4.13 0 0 1 1.818 3.027zM1.433 2.509A.75.75 0 0 1 2 2.25h6a.75.75 0 0 1 .742.856l-.877 6.141a1.75 1.75 0 0 1-1.732 1.503H5.75V21a.75.75 0 0 1-1.5 0V10.75h-.383a1.75 1.75 0 0 1-1.732-1.503l-.877-6.14a.75.75 0 0 1 .175-.598m4.7 6.741a.25.25 0 0 0 .247-.215l.755-5.285h-4.27l.755 5.285a.25.25 0 0 0 .247.215zm5.869-7a.75.75 0 0 1 .75.75v10.328a4 4 0 0 1 1.885.99c.647.605 1.117 1.447 1.117 2.307 0 1.036-.387 2.265-.992 3.24-.583.938-1.53 1.885-2.76 1.885s-2.177-.947-2.76-1.886c-.605-.974-.992-2.203-.992-3.239 0-.86.47-1.702 1.117-2.307a4 4 0 0 1 1.885-.99V3a.75.75 0 0 1 .75-.75m-1.61 13.164c-.44.411-.642.882-.642 1.211 0 .714.285 1.672.766 2.448.504.811 1.059 1.177 1.486 1.177s.982-.366 1.485-1.177c.482-.776.767-1.734.767-2.448 0-.33-.202-.8-.641-1.21-.427-.4-1-.665-1.611-.665-.61 0-1.184.266-1.61.664" clip-rule="evenodd"/></svg>