<svg xmlns="http://www.w3.org/2000/svg" fill="none" viewBox="0 0 24 24"><path fill="currentColor" fill-rule="evenodd" d="M14 19.25H4c-1.52 0-2.75-1.23-2.75-2.75v-10c0-.96.79-1.75 1.75-1.75h14c3.17 0 5.75 2.58 5.75 5.75s-2.58 5.75-5.75 5.75h-.25v.25c0 1.52-1.23 2.75-2.75 2.75m-11-13c-.14 0-.25.11-.25.25v10c0 .69.56 1.25 1.25 1.25h10c.69 0 1.25-.56 1.25-1.25v-1c0-.41.34-.75.75-.75h1a4.26 4.26 0 0 0 4.25-4.25A4.26 4.26 0 0 0 17 6.25zm14 7.5h-1c-.41 0-.75-.34-.75-.75V8c0-.41.34-.75.75-.75h1c1.79 0 3.25 1.46 3.25 3.25s-1.46 3.25-3.25 3.25m-.25-1.5H17c.96 0 1.75-.79 1.75-1.75S17.96 8.75 17 8.75h-.25zm-8.291 3.77c.14.15.34.23.54.23.21 0 .4-.09.54-.23l3.41-3.5a2.85 2.85 0 0 0 0-3.95c-1.04-1.07-2.86-1.07-3.9 0l-.05.05-.05-.05c-1.04-1.06-2.86-1.06-3.9 0a2.85 2.85 0 0 0 0 3.95zm-2.34-4.55c-.5-.51-.5-1.34 0-1.85h.01c.47-.48 1.28-.48 1.75 0l.59.6c.28.29.79.29 1.07 0l.59-.6c.47-.48 1.28-.48 1.75 0 .5.51.5 1.34 0 1.85l-2.88 2.95z" clip-rule="evenodd"/></svg>