<svg xmlns="http://www.w3.org/2000/svg" fill="none" viewBox="0 0 24 24"><path fill="currentColor" fill-rule="evenodd" d="M7.33 1.87a.75.75 0 0 1 .744-.62h.04l.086.004q.109.004.293.024c.241.026.575.076.95.176.732.196 1.703.603 2.387 1.471.249.317.432.662.566 1.012l.088-.1a6.7 6.7 0 0 1 1.073-.943l.022-.015.008-.005.002-.002h.002l.408.627-.357-.55-.05-.078a.75.75 0 0 1 .949.11L14 3.5l.54-.52.001.002.002.002.006.006.018.02.061.067q.077.086.203.24c.163.203.38.494.594.85.418.692.879 1.713.819 2.834-.016.3-.07.585-.152.852a7 7 0 0 1 .642-.098l.028-.002.008-.001h.006l.05.748.726-.188v.005l.003.008.006.027a5 5 0 0 1 .081.405c.044.263.091.63.104 1.053.024.823-.078 1.959-.7 2.915-.19.292-.413.54-.653.753a7 7 0 0 1 .899.325l.025.012.008.004.003.001.002.001-.331.673.722.202v.002l-.001.003-.002.008-.008.027-.028.09a8 8 0 0 1-.552 1.287c-.398.737-1.064 1.684-2.09 2.211q-.145.075-.292.134a.8.8 0 0 1-.027.238l-.367-.103.367.103v.002l-.001.003-.002.008-.008.026-.028.09q-.036.114-.108.308a8 8 0 0 1-.445.98c-.397.737-1.063 1.684-2.09 2.211-1.044.537-2.166.472-2.96.312a6.7 6.7 0 0 1-1.373-.44l-.025-.01-.008-.005-.003-.001c-.001 0-.002-.001.329-.674l-.722-.202v-.002l.001-.003.002-.008.008-.027.028-.09a8 8 0 0 1 .553-1.287c.397-.737 1.063-1.684 2.09-2.212q.144-.075.29-.133a.8.8 0 0 1 .028-.238l.367.103-.367-.103v-.002l.001-.003.002-.008.008-.027.028-.09a8 8 0 0 1 .553-1.287c.32-.595.818-1.329 1.539-1.867a8 8 0 0 1-.156-1.33c-.02-.697.05-1.618.45-2.465l-.034-.041a8 8 0 0 1-.595-.85 6 6 0 0 1-.696-1.627 6 6 0 0 1-.82-.161c-.733-.196-1.704-.603-2.388-1.471s-.87-1.956-.91-2.747a7.6 7.6 0 0 1 .064-1.418zm-.052 19.434.722.202-.33.673a.75.75 0 0 1-.392-.875m10.444-6.608L17 14.494l.33-.673a.75.75 0 0 1 .392.875m-.17-6.384-.725.188-.05-.748a.75.75 0 0 1 .776.56m-8.8-5.479q-.005.195.005.418c.034.67.192 1.387.592 1.896.399.507 1.013.794 1.595.95q.16.041.305.07.004-.195-.006-.419c-.034-.67-.192-1.387-.592-1.895-.399-.507-1.013-.794-1.595-.95a5 5 0 0 0-.305-.07m4.862 6.115q.142-.13.293-.296c.436-.478.805-1.079.84-1.731.037-.683-.25-1.393-.605-1.98a6 6 0 0 0-.256-.389 5 5 0 0 0-.293.296c-.436.478-.805 1.079-.84 1.731-.036.683.25 1.393.605 1.98q.131.215.256.389m.173 4.188a6 6 0 0 1-.034-.49c-.021-.701.08-1.473.457-2.053.367-.563.993-.91 1.606-1.115a5 5 0 0 1 .397-.114c.016.148.03.314.034.49.021.701-.08 1.473-.457 2.053-.367.564-.993.91-1.606 1.115q-.211.07-.397.114m1.838 1.699c-.64-.13-1.367-.14-1.98.175-.63.324-1.115.958-1.455 1.589a7 7 0 0 0-.226.465 5 5 0 0 0 .411.102c.64.128 1.367.139 1.98-.176.63-.324 1.115-.958 1.455-1.589a7 7 0 0 0 .226-.465 5 5 0 0 0-.411-.101m-3 4c-.64-.13-1.367-.14-1.98.175-.63.323-1.115.958-1.455 1.589a7 7 0 0 0-.226.465q.188.056.411.102c.64.128 1.367.139 1.98-.176.63-.324 1.115-.958 1.455-1.589a7 7 0 0 0 .226-.465 5 5 0 0 0-.411-.102" clip-rule="evenodd"/></svg>