<svg xmlns="http://www.w3.org/2000/svg" fill="none" viewBox="0 0 24 24"><path fill="currentColor" fill-rule="evenodd" d="M2.636 2.344a.75.75 0 0 1 .761.02l4 2.5a.75.75 0 0 1 0 1.272l-4 2.5A.75.75 0 0 1 2.25 8V3a.75.75 0 0 1 .386-.656m1.114 2.01v2.293L5.585 5.5zm-1.114 10.99a.75.75 0 0 1 .761.02l4 2.5a.75.75 0 0 1 0 1.272l-4 2.5A.75.75 0 0 1 2.25 21v-5a.75.75 0 0 1 .386-.656m1.114 4.303L5.585 18.5 3.75 17.353zM11 4.75a.75.75 0 0 0 0 1.5h10a.75.75 0 0 0 0-1.5zM10.25 12a.75.75 0 0 1 .75-.75h10a.75.75 0 0 1 0 1.5H11a.75.75 0 0 1-.75-.75m.75 5.75a.75.75 0 0 0 0 1.5h10a.75.75 0 0 0 0-1.5z" clip-rule="evenodd"/></svg>