<svg xmlns="http://www.w3.org/2000/svg" fill="none" viewBox="0 0 24 24"><path fill="currentColor" fill-rule="evenodd" d="M20.015 3.696c-.178-1.222-1.29-2.116-2.535-1.919l-4.847.768a2.22 2.22 0 0 0-1.688 1.323A2.25 2.25 0 0 0 9 2.75H4A2.25 2.25 0 0 0 1.75 5v15A2.25 2.25 0 0 0 4 22.25h5A2.25 2.25 0 0 0 11.25 20V8.404l1.735 11.901c.178 1.222 1.29 2.116 2.534 1.919l4.848-.769c1.236-.195 2.035-1.38 1.858-2.595zM3.25 8.25V20c0 .414.336.75.75.75h5a.75.75 0 0 0 .75-.75V8.25zm6.5-1.5V5A.75.75 0 0 0 9 4.25H4a.75.75 0 0 0-.75.75v1.75zm7.965-3.491c.362-.058.75.2.816.653l.301 2.069-6.252 1.15-.321-2.206c-.067-.459.238-.84.608-.898zm-4.918 5.357 6.252-1.15 1.692 11.61c.067.459-.238.84-.609.898l-4.847.768c-.363.057-.75-.2-.816-.653zM6.5 17a1 1 0 1 0 0 2h.009a1 1 0 1 0 0-2zm10 1a1 1 0 0 1 1-1h.009a1 1 0 1 1 0 2H17.5a1 1 0 0 1-1-1" clip-rule="evenodd"/></svg>