<svg xmlns="http://www.w3.org/2000/svg" fill="none" viewBox="0 0 24 24"><path fill="currentColor" fill-rule="evenodd" d="M4.5 2.75c-.69 0-1.25.56-1.25 1.25v16c0 .69.56 1.25 1.25 1.25H11a.75.75 0 0 1 0 1.5H4.5A2.75 2.75 0 0 1 1.75 20V4A2.75 2.75 0 0 1 4.5 1.25h13A2.75 2.75 0 0 1 20.25 4v6a.75.75 0 0 1-1.5 0V4c0-.69-.56-1.25-1.25-1.25zm13.5 11a1 1 0 1 0 0 2 1 1 0 0 0 0-2m-2.5 1a2.5 2.5 0 1 1 5 0 2.5 2.5 0 0 1-5 0M13.75 22a4.25 4.25 0 0 1 8.5 0 .75.75 0 0 1-.75.75h-7a.75.75 0 0 1-.75-.75m6.897-.75a2.751 2.751 0 0 0-5.293 0zM7 6.25a.75.75 0 0 0 0 1.5h8a.75.75 0 0 0 0-1.5zm0 5a.75.75 0 0 0 0 1.5h6.5a.75.75 0 0 0 0-1.5z" clip-rule="evenodd"/></svg>