<svg xmlns="http://www.w3.org/2000/svg" fill="none" viewBox="0 0 24 24"><path fill="currentColor" fill-rule="evenodd" d="M4.5 1.75A2.75 2.75 0 0 0 1.75 4.5v15a2.75 2.75 0 0 0 2.75 2.75h15a2.75 2.75 0 0 0 2.75-2.75v-15a2.75 2.75 0 0 0-2.75-2.75zM3.25 4.5c0-.69.56-1.25 1.25-1.25h15c.69 0 1.25.56 1.25 1.25v15c0 .69-.56 1.25-1.25 1.25h-15c-.69 0-1.25-.56-1.25-1.25zM8.008 7a1 1 0 0 1-1 1h-.01a1 1 0 0 1 0-2h.01a1 1 0 0 1 1 1M7.75 9.5a.75.75 0 0 0-1.5 0V17a.75.75 0 0 0 1.5 0zm4 0a.75.75 0 0 0-1.5 0V17a.75.75 0 0 0 1.5 0v-4a2.25 2.25 0 0 1 4.5 0v4a.75.75 0 0 0 1.5 0v-4a3.75 3.75 0 0 0-6-3z" clip-rule="evenodd"/></svg>