<svg xmlns="http://www.w3.org/2000/svg" fill="none" viewBox="0 0 24 24"><path fill="currentColor" fill-rule="evenodd" d="M3.5 1.25a.75.75 0 0 0 0 1.5h.75V5a7.75 7.75 0 0 0 4.42 7 7.75 7.75 0 0 0-4.42 7v2.25H3.5a.75.75 0 0 0 0 1.5h17a.75.75 0 0 0 0-1.5h-.75V19a7.75 7.75 0 0 0-4.42-7 7.75 7.75 0 0 0 4.42-7V2.75h.75a.75.75 0 0 0 0-1.5zm12.25 20h2.5V19a6.25 6.25 0 1 0-12.5 0v2.25h2.5V19a3.75 3.75 0 1 1 7.5 0zm-6 0h4.5V19a2.25 2.25 0 0 0-4.5 0zm8.5-18.5H5.75V5a6.25 6.25 0 1 0 12.5 0z" clip-rule="evenodd"/></svg>