<svg xmlns="http://www.w3.org/2000/svg" fill="none" viewBox="0 0 24 24"><path fill="currentColor" fill-rule="evenodd" d="M12 2.75a8.04 8.04 0 0 0-4.117 1.119.75.75 0 1 1-.766-1.29A9.54 9.54 0 0 1 12 1.25c5.072 0 9.25 3.918 9.25 8.83 0 1.964-.712 3.584-1.727 4.996a.75.75 0 1 1-1.218-.875c.886-1.233 1.445-2.553 1.445-4.12 0-4.014-3.434-7.331-7.75-7.331M5.738 4.677 2.53 1.47a.75.75 0 0 0-1.06 1.06l2.759 2.76a8.5 8.5 0 0 0-1.479 4.79c0 2.708 1.327 4.707 2.924 6.41.684.73 1.438 1.427 2.17 2.103l.002.001.345.32c.849.786 1.655 1.555 2.344 2.375.75.89 2.176.92 2.951.034.757-.866 1.604-1.657 2.483-2.477q.464-.432.935-.88l4.566 4.564a.75.75 0 1 0 1.06-1.06l-5.084-5.084-.004-.004-3.29-3.291-.025-.025-4.693-4.693-.025-.024L5.752 4.69zM8 9.061 5.313 6.373a7 7 0 0 0-1.063 3.708c0 2.153 1.032 3.798 2.518 5.383.645.688 1.355 1.344 2.09 2.023l.353.327c.85.787 1.717 1.61 2.472 2.51.166.197.512.196.674.011.802-.918 1.752-1.806 2.67-2.664q.416-.387.816-.767L13.439 14.5A4.25 4.25 0 0 1 8 9.06m1.256 1.256q-.006.09-.006.183a2.75 2.75 0 0 0 2.933 2.744zM12 7.75a3 3 0 0 0-.52.05.75.75 0 1 1-.283-1.474q.392-.075.803-.076a4.25 4.25 0 0 1 4.174 5.053.75.75 0 1 1-1.473-.282q.049-.252.049-.521A2.75 2.75 0 0 0 12 7.75" clip-rule="evenodd"/></svg>