<svg xmlns="http://www.w3.org/2000/svg" fill="none" viewBox="0 0 24 24"><path fill="currentColor" fill-rule="evenodd" d="M4.25 10.08c0-4.013 3.434-7.33 7.75-7.33s7.75 3.317 7.75 7.33c0 2.111-1.016 3.782-2.49 5.393-.697.764-1.476 1.492-2.28 2.243l-.145.135c-.846.791-1.714 1.61-2.479 2.485-.16.184-.507.185-.673-.013-.755-.898-1.623-1.722-2.472-2.51l-.353-.326c-.735-.679-1.445-1.335-2.09-2.023-1.486-1.585-2.518-3.23-2.518-5.383M12 1.25c-5.072 0-9.25 3.918-9.25 8.83 0 2.708 1.327 4.707 2.924 6.41.684.73 1.438 1.427 2.17 2.103l.001.001.346.32c.849.786 1.655 1.555 2.344 2.375.75.89 2.176.92 2.95.034.708-.81 1.523-1.58 2.374-2.376l.156-.145c.794-.742 1.614-1.508 2.353-2.316 1.58-1.729 2.882-3.749 2.882-6.405 0-4.913-4.178-8.831-9.25-8.831m-.484 4.795c.185.077.347.166.484.252.137-.086.299-.175.484-.252.653-.272 1.576-.395 2.606.142 1.332.695 1.932 2.32 1.541 3.919-.4 1.634-1.794 3.222-4.375 4.161l-.256.094-.257-.094c-2.58-.94-3.975-2.527-4.374-4.161-.391-1.598.209-3.224 1.54-3.919 1.031-.537 1.954-.414 2.607-.142M9.603 7.517c.567-.295 1.016-.22 1.335-.088a1.8 1.8 0 0 1 .518.334c.165.177.248.265.34.307a.5.5 0 0 0 .407 0c.093-.042.176-.13.34-.307l.019-.017q.03-.03.1-.084a1.8 1.8 0 0 1 .4-.233c.319-.133.768-.207 1.334.088.602.314 1.039 1.167.778 2.233-.242.99-1.123 2.195-3.174 3.01-2.052-.815-2.932-2.02-3.174-3.01-.26-1.067.176-1.92.777-2.233" clip-rule="evenodd"/></svg>