<svg xmlns="http://www.w3.org/2000/svg" fill="none" viewBox="0 0 24 24"><path fill="currentColor" fill-rule="evenodd" d="M3.52 8.3A9.25 9.25 0 0 1 12 2.75c4.78 0 8.713 3.626 9.2 8.277l-1.018-.255a.75.75 0 0 0-.364 1.456l2 .5A.75.75 0 0 0 22.75 12c0-5.937-4.813-10.75-10.75-10.75-4.41 0-8.197 2.655-9.855 6.45a.75.75 0 1 0 1.374.6m-1.338 2.972A.75.75 0 0 0 1.25 12c0 5.937 4.813 10.75 10.75 10.75 4.41 0 8.197-2.655 9.855-6.45a.75.75 0 0 0-1.374-.6A9.25 9.25 0 0 1 12 21.25c-4.78 0-8.713-3.626-9.2-8.277l1.018.255a.75.75 0 0 0 .364-1.456zM12 7.75a3.75 3.75 0 0 0-3.75 3.75c0 1.153.605 2.153 1.422 2.976.813.82 1.766 1.389 2.283 1.664a.1.1 0 0 0 .045.012.1.1 0 0 0 .045-.012c.517-.275 1.47-.844 2.283-1.664.817-.823 1.422-1.823 1.422-2.976A3.75 3.75 0 0 0 12 7.75M6.75 11.5a5.25 5.25 0 1 1 10.5 0c0 1.707-.897 3.066-1.857 4.033-.964.97-2.063 1.623-2.644 1.932a1.59 1.59 0 0 1-1.498 0c-.581-.31-1.68-.962-2.644-1.932-.96-.967-1.857-2.326-1.857-4.033m4.25 0a1 1 0 0 1 1-1h.009a1 1 0 1 1 0 2H12a1 1 0 0 1-1-1" clip-rule="evenodd"/></svg>