<svg xmlns="http://www.w3.org/2000/svg" fill="none" viewBox="0 0 24 24"><path fill="currentColor" fill-rule="evenodd" d="M7.883 3.869A8.04 8.04 0 0 1 12 2.75c4.316 0 7.75 3.317 7.75 7.33 0 1.568-.56 2.888-1.445 4.12a.75.75 0 1 0 1.218.876c1.015-1.412 1.727-3.032 1.727-4.995 0-4.913-4.178-8.831-9.25-8.831a9.53 9.53 0 0 0-4.883 1.33.75.75 0 0 0 .766 1.289M4.23 5.289 1.469 2.53A.75.75 0 0 1 2.53 1.47l3.208 3.207.014.014 11.69 11.69.004.005 5.084 5.084a.75.75 0 1 1-1.06 1.06l-4.565-4.565q-.473.449-.936.88c-.88.821-1.726 1.612-2.483 2.478-.775.886-2.201.857-2.95-.034-.69-.82-1.496-1.589-2.345-2.375l-.345-.32h-.001c-.733-.677-1.487-1.373-2.171-2.104-1.597-1.703-2.924-3.702-2.924-6.41 0-1.767.545-3.413 1.479-4.79m1.084 1.084a7 7 0 0 0-1.063 3.708c0 2.153 1.032 3.798 2.518 5.383.645.688 1.355 1.344 2.09 2.023l.353.327c.85.787 1.717 1.61 2.472 2.51.166.197.512.196.674.011.802-.918 1.752-1.806 2.67-2.664q.416-.387.816-.767z" clip-rule="evenodd"/></svg>