<svg xmlns="http://www.w3.org/2000/svg" fill="none" viewBox="0 0 24 24"><path fill="currentColor" fill-rule="evenodd" d="M10.25 4.5a1.75 1.75 0 1 1 3.5 0 1.75 1.75 0 0 1-3.5 0m4.096 2.249a3.25 3.25 0 1 0-4.693 0A5.75 5.75 0 0 0 6.25 12v2c0 .414.336.75.75.75h1.442l1.34 4.465a.75.75 0 0 0 .718.535h3a.75.75 0 0 0 .718-.535l1.34-4.465H17a.75.75 0 0 0 .75-.75v-2a5.75 5.75 0 0 0-3.404-5.251M12 7.75A4.25 4.25 0 0 0 7.75 12v1.25H9a.75.75 0 0 1 .718.534l1.34 4.466h1.884l1.34-4.466A.75.75 0 0 1 15 13.25h1.25V12A4.25 4.25 0 0 0 12 7.75m-7 10.5a.75.75 0 0 1 .75.75c0 .162.073.378.334.643.265.268.684.544 1.262.792 1.153.495 2.798.82 4.654.82s3.501-.325 4.654-.82c.578-.248.997-.524 1.262-.792.26-.265.334-.481.334-.643a.75.75 0 0 1 1.5 0c0 .668-.319 1.242-.766 1.696-.444.45-1.05.822-1.738 1.118-1.381.592-3.236.94-5.246.94s-3.865-.348-5.246-.94c-.689-.296-1.294-.667-1.738-1.118-.447-.454-.766-1.028-.766-1.696a.75.75 0 0 1 .75-.75" clip-rule="evenodd"/></svg>