<svg xmlns="http://www.w3.org/2000/svg" fill="none" viewBox="0 0 24 24"><path fill="currentColor" fill-rule="evenodd" d="M5.75 8.869C5.75 5.503 8.535 2.75 12 2.75s6.25 2.753 6.25 6.119c0 1.716-.779 3.086-1.932 4.413-.58.667-1.237 1.303-1.922 1.963l-.046.044c-.662.639-1.35 1.302-1.967 2.003-.171.195-.55.196-.728-.013-.627-.735-1.333-1.415-2.013-2.064l-.124-.118c-.645-.615-1.262-1.203-1.813-1.822C6.542 11.971 5.75 10.621 5.75 8.87M12 1.25c-4.267 0-7.75 3.398-7.75 7.619 0 2.275 1.055 3.97 2.336 5.405.593.665 1.252 1.293 1.886 1.898l.135.128c.684.653 1.336 1.284 1.906 1.952.76.893 2.211.923 2.996.031.576-.654 1.225-1.28 1.903-1.934l.025-.024c.678-.653 1.382-1.334 2.012-2.059 1.267-1.456 2.301-3.165 2.301-5.397 0-4.221-3.483-7.619-7.75-7.619m0 6a1.75 1.75 0 1 0 0 3.5 1.75 1.75 0 0 0 0-3.5M8.75 9a3.25 3.25 0 1 1 6.5 0 3.25 3.25 0 0 1-6.5 0m-2.558 8.71a.75.75 0 0 1-.402.982c-.384.16-.665.368-.839.56-.086.096-.14.18-.17.244a.3.3 0 0 0-.03.094c.003.015.036.132.312.329.312.221.812.452 1.496.658 1.36.41 3.284.673 5.441.673s4.08-.264 5.44-.673c.685-.206 1.185-.437 1.496-.658.277-.197.31-.314.314-.33a.3.3 0 0 0-.031-.093 1 1 0 0 0-.17-.244 2.4 2.4 0 0 0-.839-.56.75.75 0 1 1 .58-1.384c.56.235 1.03.562 1.37.936.328.362.59.833.59 1.349 0 .695-.465 1.207-.944 1.548-.498.354-1.17.643-1.933.872-1.536.462-3.612.737-5.873.737s-4.337-.275-5.873-.737c-.763-.23-1.435-.518-1.933-.872-.48-.34-.944-.853-.944-1.548 0-.516.263-.987.59-1.349.34-.374.81-.701 1.37-.936a.75.75 0 0 1 .982.403" clip-rule="evenodd"/></svg>