<svg xmlns="http://www.w3.org/2000/svg" fill="none" viewBox="0 0 24 24"><path fill="currentColor" fill-rule="evenodd" d="M11 1.25H4A2.75 2.75 0 0 0 1.25 4v12A2.75 2.75 0 0 0 4 18.75h7.25l.003 2.496-3.254.004a.75.75 0 0 0 .002 1.5l4.002-.005h.001L16 22.75a.75.75 0 0 0 .002-1.5l-3.248-.004-.002-2.496H20A2.75 2.75 0 0 0 22.75 16v-1.5a.75.75 0 0 0-1.5 0V16c0 .69-.56 1.25-1.25 1.25H4c-.69 0-1.25-.56-1.25-1.25V4c0-.69.56-1.25 1.25-1.25h7a.75.75 0 0 0 0-1.5M17.25 4a1.25 1.25 0 1 1 2.5 0v.75h-2.5zm4 0v.75H22a.75.75 0 0 1 .75.75V11a.75.75 0 0 1-.75.75h-7a.75.75 0 0 1-.75-.75V5.5a.75.75 0 0 1 .75-.75h.75V4a2.75 2.75 0 1 1 5.5 0m-5.5 6.25v-4h5.5v4zM10.25 15a.75.75 0 0 1 .75-.75h2a.75.75 0 0 1 0 1.5h-2a.75.75 0 0 1-.75-.75" clip-rule="evenodd"/></svg>