<svg xmlns="http://www.w3.org/2000/svg" fill="none" viewBox="0 0 24 24"><path fill="currentColor" fill-rule="evenodd" d="M2.75 12c0-5.107 4.15-9.25 9.275-9.25a9.274 9.274 0 0 1 9.012 7.057l-1.258-.504a.75.75 0 1 0-.558 1.393l2.5 1a.75.75 0 0 0 1.025-.77c-.54-5.435-5.135-9.676-10.721-9.676C6.075 1.25 1.25 6.061 1.25 12s4.826 10.75 10.775 10.75c4.418 0 8.215-2.654 9.877-6.45a.75.75 0 1 0-1.374-.6 9.28 9.28 0 0 1-8.503 5.55C6.9 21.25 2.75 17.107 2.75 12M12 6.75c-1.465 0-2.679 1.168-2.679 2.64v1.587A3.64 3.64 0 0 0 8.25 13.56c0 2.052 1.693 3.69 3.75 3.69s3.75-1.638 3.75-3.69c0-1.01-.41-1.92-1.071-2.583V9.39c0-1.472-1.214-2.64-2.679-2.64m0 3.12c-.41 0-.807.065-1.179.186V9.39c0-.615.514-1.14 1.179-1.14s1.179.525 1.179 1.14v.666A3.8 3.8 0 0 0 12 9.87m-2.25 3.69c0-1.195.993-2.19 2.25-2.19s2.25.995 2.25 2.19-.993 2.19-2.25 2.19-2.25-.995-2.25-2.19" clip-rule="evenodd"/></svg>