<svg xmlns="http://www.w3.org/2000/svg" fill="none" viewBox="0 0 24 24"><path fill="currentColor" fill-rule="evenodd" d="M10.5 1.25A5.25 5.25 0 0 0 5.25 6.5v1.75H4.5A2.75 2.75 0 0 0 1.75 11v9a2.75 2.75 0 0 0 2.75 2.75h4a.75.75 0 0 0 0-1.5h-4c-.69 0-1.25-.56-1.25-1.25v-9c0-.69.56-1.25 1.25-1.25h12c.69 0 1.25.56 1.25 1.25a.75.75 0 0 0 1.5 0 2.75 2.75 0 0 0-2.75-2.75h-.75V6.5c0-2.9-2.35-5.25-5.25-5.25m3.75 5.25v1.75h-7.5V6.5a3.75 3.75 0 0 1 7.5 0m5.9 6.966a.75.75 0 0 0-1.052 0l-4.044 3.982a2.9 2.9 0 0 0-3.459.45 2.817 2.817 0 0 0 0 4.024 2.896 2.896 0 0 0 4.054 0 2.82 2.82 0 0 0 .47-3.417l1.255-1.236.599.59a.75.75 0 1 0 1.052-1.069l-.583-.574 1.182-1.163 1.35 1.328a.75.75 0 1 0 1.052-1.068zm-7.502 5.501a1.395 1.395 0 0 1 1.948 0c.53.522.53 1.364 0 1.887a1.396 1.396 0 0 1-1.948 0 1.317 1.317 0 0 1 0-1.887" clip-rule="evenodd"/></svg>