<svg xmlns="http://www.w3.org/2000/svg" fill="none" viewBox="0 0 24 24"><path fill="currentColor" fill-rule="evenodd" d="M1.25 12C1.25 6.063 6.063 1.25 12 1.25S22.75 6.063 22.75 12 17.937 22.75 12 22.75 1.25 17.937 1.25 12M12 2.75a9.25 9.25 0 0 0-9.062 11.113c.692.256 1.14.387 2.062.387 1.537 0 2.83-.372 3.585-.874a.75.75 0 1 1 .83 1.248c-1.07.713-2.68 1.126-4.415 1.126a6.7 6.7 0 0 1-1.524-.15A9.25 9.25 0 1 0 12 2.75M6.992 9a1 1 0 0 1 1-1h.01a1 1 0 0 1 0 2h-.01a1 1 0 0 1-1-1" clip-rule="evenodd"/></svg>