<svg xmlns="http://www.w3.org/2000/svg" fill="none" viewBox="0 0 24 24"><path fill="currentColor" fill-rule="evenodd" d="M4.5 1.75A2.75 2.75 0 0 0 1.75 4.5v15a2.75 2.75 0 0 0 2.75 2.75h15a2.75 2.75 0 0 0 2.75-2.75v-15a2.75 2.75 0 0 0-2.75-2.75zM3.25 4.5c0-.69.56-1.25 1.25-1.25h15c.69 0 1.25.56 1.25 1.25v15c0 .69-.56 1.25-1.25 1.25h-15c-.69 0-1.25-.56-1.25-1.25zm13.604 2.25A4.75 4.75 0 0 0 12.7 9.193l-2.714 4.885a3.25 3.25 0 0 1-2.84 1.672H6a.75.75 0 0 0 0 1.5h1.146a4.75 4.75 0 0 0 4.153-2.443l2.714-4.885a3.25 3.25 0 0 1 2.84-1.672H18a.75.75 0 0 0 0-1.5z" clip-rule="evenodd"/></svg>