<svg xmlns="http://www.w3.org/2000/svg" fill="none" viewBox="0 0 24 24"><path fill="currentColor" fill-rule="evenodd" d="M1.25 6A2.75 2.75 0 0 1 4 3.25h16A2.75 2.75 0 0 1 22.75 6v8a.75.75 0 0 1-1.5 0V8.214l-8.02 4.01a2.75 2.75 0 0 1-2.46 0l-8.02-4.01V18c0 .69.56 1.25 1.25 1.25h7.5a.75.75 0 0 1 0 1.5H4A2.75 2.75 0 0 1 1.25 18zm20 0v.537l-8.69 4.345a1.25 1.25 0 0 1-1.119 0L2.75 6.536V6c0-.69.56-1.25 1.25-1.25h16c.69 0 1.25.56 1.25 1.25M15 18.25a.75.75 0 0 0 0 1.5h7a.75.75 0 0 0 0-1.5z" clip-rule="evenodd"/></svg>