<svg xmlns="http://www.w3.org/2000/svg" fill="none" viewBox="0 0 24 24"><path fill="currentColor" fill-rule="evenodd" d="M1.25 5A2.75 2.75 0 0 1 4 2.25h16A2.75 2.75 0 0 1 22.75 5v5a.75.75 0 0 1-1.5 0V5c0-.69-.56-1.25-1.25-1.25H4c-.69 0-1.25.56-1.25 1.25v12c0 .69.56 1.25 1.25 1.25h6.5a.75.75 0 0 1 0 1.5H4A2.75 2.75 0 0 1 1.25 17zM18 11.25a.75.75 0 0 1 .75.75v.55a3.92 3.92 0 0 1 2.191 1.265l.666-.409a.75.75 0 0 1 .785 1.279l-.686.42a4.1 4.1 0 0 1 0 2.789l.686.421a.75.75 0 0 1-.784 1.279l-.666-.41a3.92 3.92 0 0 1-2.192 1.267V21a.75.75 0 0 1-1.5 0v-.55a3.92 3.92 0 0 1-2.191-1.265l-.667.409a.75.75 0 0 1-.784-1.279l.686-.42a4.1 4.1 0 0 1-.244-1.395c0-.49.086-.959.244-1.394l-.686-.421a.75.75 0 0 1 .785-1.279l.666.409a3.92 3.92 0 0 1 2.191-1.266V12a.75.75 0 0 1 .75-.75m0 2.727c-1.337 0-2.45 1.114-2.45 2.523s1.113 2.523 2.45 2.523 2.45-1.114 2.45-2.523-1.113-2.523-2.45-2.523M6.378 6.352a.75.75 0 0 0-.756 1.296l4.993 2.912c.856.5 1.915.5 2.77 0l4.993-2.912a.75.75 0 1 0-.756-1.296L12.63 9.264a1.25 1.25 0 0 1-1.26 0z" clip-rule="evenodd"/></svg>