<svg xmlns="http://www.w3.org/2000/svg" fill="none" viewBox="0 0 24 24"><path fill="currentColor" fill-rule="evenodd" d="M1.25 5A2.75 2.75 0 0 1 4 2.25h16A2.75 2.75 0 0 1 22.75 5v5a.75.75 0 0 1-1.5 0V7.214l-8.02 4.01a2.75 2.75 0 0 1-2.46 0l-8.02-4.01V17c0 .69.56 1.25 1.25 1.25h7a.75.75 0 0 1 0 1.5H4A2.75 2.75 0 0 1 1.25 17zm20 0v.537l-8.69 4.345a1.25 1.25 0 0 1-1.119 0L2.75 5.536V5c0-.69.56-1.25 1.25-1.25h16c.69 0 1.25.56 1.25 1.25m-6.5 12a3.25 3.25 0 0 1 6.5 0v.444a.583.583 0 1 1-1.167 0V17a2.083 2.083 0 1 0-1.01 1.786 2.083 2.083 0 0 0 3.677-1.342V17A4.75 4.75 0 1 0 18 21.75a.75.75 0 0 0 0-1.5A3.25 3.25 0 0 1 14.75 17m3.25-.583a.583.583 0 1 1 0 1.166.583.583 0 0 1 0-1.166" clip-rule="evenodd"/></svg>