<svg xmlns="http://www.w3.org/2000/svg" fill="none" viewBox="0 0 24 24"><path fill="currentColor" fill-rule="evenodd" d="M1.25 5A2.75 2.75 0 0 1 4 2.25h16A2.75 2.75 0 0 1 22.75 5v4.5a.75.75 0 0 1-1.5 0V5c0-.69-.56-1.25-1.25-1.25H4c-.69 0-1.25.56-1.25 1.25v12c0 .69.56 1.25 1.25 1.25h7a.75.75 0 0 1 0 1.5H4A2.75 2.75 0 0 1 1.25 17zm17.25 7.75a1 1 0 1 0 0 2 1 1 0 0 0 0-2m-2.5 1a2.5 2.5 0 1 1 5 0 2.5 2.5 0 0 1-5 0m5.15 6.5a2.753 2.753 0 0 0-5.296 0zm-6.9.75a4.25 4.25 0 0 1 4.252-4.25A4.25 4.25 0 0 1 22.753 21a.75.75 0 0 1-.75.75H15a.75.75 0 0 1-.75-.75M6.378 6.352a.75.75 0 0 0-.756 1.296l4.993 2.912c.856.5 1.915.5 2.77 0l4.993-2.912a.75.75 0 1 0-.756-1.296L12.63 9.264a1.25 1.25 0 0 1-1.26 0z" clip-rule="evenodd"/></svg>