<svg xmlns="http://www.w3.org/2000/svg" fill="none" viewBox="0 0 24 24"><path fill="currentColor" fill-rule="evenodd" d="M1.25 5A2.75 2.75 0 0 1 4 2.25h16A2.75 2.75 0 0 1 22.75 5v7.5a.75.75 0 0 1-1.5 0V7.214l-8.02 4.01a2.75 2.75 0 0 1-2.46 0l-8.02-4.01V17c0 .69.56 1.25 1.25 1.25h7.5a.75.75 0 0 1 0 1.5H4A2.75 2.75 0 0 1 1.25 17zm20 0v.537l-8.69 4.345a1.25 1.25 0 0 1-1.119 0L2.75 5.536V5c0-.69.56-1.25 1.25-1.25h16c.69 0 1.25.56 1.25 1.25m-4.72 9.53a.75.75 0 1 0-1.06-1.06l-2 2a.75.75 0 0 0 0 1.06l2 2a.75.75 0 1 0 1.06-1.06l-.72-.72H18A2.25 2.25 0 0 1 20.25 19v2a.75.75 0 0 0 1.5 0v-2A3.75 3.75 0 0 0 18 15.25h-2.19z" clip-rule="evenodd"/></svg>