<svg xmlns="http://www.w3.org/2000/svg" fill="none" viewBox="0 0 24 24"><path fill="currentColor" fill-rule="evenodd" d="M8.722 2.493a1.75 1.75 0 0 0-1.472.043L2.217 5.053a1.75 1.75 0 0 0-.967 1.565v11.994a1.75 1.75 0 0 0 2.303 1.66l4.414-1.47 6.714 2.877a.75.75 0 0 0 .34.07H21A1.75 1.75 0 0 0 22.75 20V7A1.75 1.75 0 0 0 21 5.25h-5.846zM15.75 20.25H21a.25.25 0 0 0 .25-.25V7a.25.25 0 0 0-.25-.25h-5.25V7a.75.75 0 0 1-1.5 0v-.506l-5.5-2.357V4.5a.75.75 0 0 1-1.5 0v-.287L2.888 6.394a.25.25 0 0 0-.138.224v11.994c0 .17.167.291.33.238l4.171-1.391a.75.75 0 0 1 1.499.041v.005l5.512 2.362A.75.75 0 0 1 15.75 20zM8 6.25a.75.75 0 0 1 .75.75v1a.75.75 0 0 1-1.5 0V7A.75.75 0 0 1 8 6.25m0 3.5a.75.75 0 0 1 .75.75v1a.75.75 0 0 1-1.5 0v-1A.75.75 0 0 1 8 9.75m0 3.5a.75.75 0 0 1 .75.75v1a.75.75 0 0 1-1.5 0v-1a.75.75 0 0 1 .75-.75m7-4.5a.75.75 0 0 1 .75.75v1a.75.75 0 0 1-1.5 0v-1a.75.75 0 0 1 .75-.75m0 3.5a.75.75 0 0 1 .75.75v1a.75.75 0 0 1-1.5 0v-1a.75.75 0 0 1 .75-.75m0 3.5a.75.75 0 0 1 .75.75v1a.75.75 0 0 1-1.5 0v-1a.75.75 0 0 1 .75-.75" clip-rule="evenodd"/></svg>