<svg xmlns="http://www.w3.org/2000/svg" fill="none" viewBox="0 0 24 24"><path fill="currentColor" fill-rule="evenodd" d="M14.75 6.04c0-1.824 1.462-3.29 3.25-3.29s3.25 1.466 3.25 3.29c0 .926-.41 1.674-1.063 2.438-.323.378-.688.74-1.08 1.129l-.026.026a21 21 0 0 0-1.066 1.115 16 16 0 0 0-1.075-1.134l-.131-.129c-.356-.349-.687-.673-.985-1.014-.658-.75-1.074-1.486-1.074-2.43M18 1.25c-2.63 0-4.75 2.152-4.75 4.79 0 1.463.674 2.538 1.446 3.42.338.386.711.752 1.061 1.095l.13.128c.397.39.76.756 1.071 1.142.523.65 1.548.673 2.091.022.321-.384.69-.753 1.09-1.15l.043-.043c.378-.375.781-.775 1.145-1.201.763-.893 1.423-1.978 1.423-3.413 0-2.638-2.12-4.79-4.75-4.79M6.534 12.255a.75.75 0 1 0-.166 1.49c.482.054 1.042.193 1.699.47a.75.75 0 0 0 .582-1.383c-.773-.325-1.473-.506-2.115-.577M4.338 14.03a.75.75 0 1 0-.55-1.396c-.354.14-.678.3-.95.435l-.025.012a9 9 0 0 1-.063-1.08c0-4.802 3.655-8.791 8.324-9.255a.75.75 0 1 0-.148-1.492C5.488 1.794 1.25 6.43 1.25 12c0 5.937 4.813 10.75 10.75 10.75 5.184 0 9.735-3.676 10.735-8.6a.75.75 0 1 0-1.47-.3 8.8 8.8 0 0 1-1.223 3.004.75.75 0 0 0-.409.095q-.38.215-.854.318a.75.75 0 0 0-.226 1.377A9.6 9.6 0 0 1 12 21.25a9.254 9.254 0 0 1-8.89-6.683.8.8 0 0 0 .22-.068l.19-.094c.27-.134.529-.261.818-.375m6.948.304a.75.75 0 1 0-.862 1.228q.285.203.603.44l.016.013c.215.16.442.329.668.486a.75.75 0 0 0 .859-1.23 26 26 0 0 1-.63-.46l-.024-.017a30 30 0 0 0-.63-.46m3.703 2.32a.75.75 0 0 0-.602 1.374q.95.416 1.849.625a.75.75 0 1 0 .339-1.462 9 9 0 0 1-1.586-.537M17 6a1 1 0 0 1 1-1h.009a1 1 0 1 1 0 2H18a1 1 0 0 1-1-1" clip-rule="evenodd"/></svg>