<svg xmlns="http://www.w3.org/2000/svg" fill="none" viewBox="0 0 24 24"><path fill="currentColor" d="m11.696 11.694-.25-.112-3.7 1.71 1.326.59a1 1 0 0 1 .104-.058l6.811-3.224-.61-.271-3.07 1.364q-.15.06-.3.06h-.01c-.1 0-.21-.02-.3-.06m9.61-4-4.082 1.814 4.072 1.806a.752.752 0 0 1 0 1.38l-4.063 1.805 4.073 1.815c.27.12.44.39.44.69s-.17.57-.45.69l-9 4q-.15.06-.3.06c-.1 0-.21-.02-.3-.06l-9-4a.758.758 0 0 1-.01-1.38l4.073-1.815-4.063-1.806a.76.76 0 0 1-.45-.69c0-.3.17-.57.45-.69l4.077-1.807-4.077-1.813a.76.76 0 0 1-.45-.69c0-.3.17-.57.45-.69l9-4c.19-.09.42-.09.61 0l9 4c.27.12.45.39.45.69s-.17.57-.45.69M8.604 15.318l-3.768 1.674 7.16 3.18 7.16-3.18-3.767-1.674-3.093 1.374q-.15.06-.3.06c-.1 0-.21-.02-.3-.06zm-3.758-3.315 1.068.474 3.7-1.71-.993-.441zm6.026 2.68 1.124.5 7.15-3.18-1.347-.599zm1.124-4.5 7.15-3.18-7.15-3.18-7.15 3.18z"/></svg>