<svg xmlns="http://www.w3.org/2000/svg" fill="none" viewBox="0 0 24 24"><path fill="currentColor" fill-rule="evenodd" d="M1.75 4.5A2.75 2.75 0 0 1 4.5 1.75h15a2.75 2.75 0 0 1 2.75 2.75v15a2.75 2.75 0 0 1-2.75 2.75h-15a2.75 2.75 0 0 1-2.75-2.75zM4.5 3.25c-.69 0-1.25.56-1.25 1.25v15c0 .69.56 1.25 1.25 1.25h15c.69 0 1.25-.56 1.25-1.25v-15c0-.69-.56-1.25-1.25-1.25zm8.052 5.5H18a.75.75 0 0 0 0-1.5h-6a.75.75 0 0 0-.716.526l-1.87 5.987-1.218-3.041a.75.75 0 0 0-1.112-.346l-1.5 1a.75.75 0 1 0 .832 1.248l.731-.487 1.657 4.142a.75.75 0 0 0 1.412-.055zm1.978 2.72a.75.75 0 1 0-1.06 1.06l.97.97-.97.97a.75.75 0 1 0 1.06 1.06l.97-.97.97.97a.75.75 0 1 0 1.06-1.06l-.97-.97.97-.97a.75.75 0 1 0-1.06-1.06l-.97.97z" clip-rule="evenodd"/></svg>