<svg xmlns="http://www.w3.org/2000/svg" fill="none" viewBox="0 0 24 24"><path fill="currentColor" fill-rule="evenodd" d="M5.5 1.75A3.75 3.75 0 0 0 1.75 5.5v13a3.75 3.75 0 0 0 3.75 3.75h13a3.75 3.75 0 0 0 3.75-3.75v-13a3.75 3.75 0 0 0-3.75-3.75zM3.25 5.5A2.25 2.25 0 0 1 5.5 3.25h7.75V9A2.75 2.75 0 0 0 16 11.75h1.5a.75.75 0 0 0 0-1.5H16c-.69 0-1.25-.56-1.25-1.25V3.25h3.75a2.25 2.25 0 0 1 2.25 2.25v8.75H11a.75.75 0 0 0 0 1.5h3.25v5H5.5a2.25 2.25 0 0 1-2.25-2.25v-2.75H6a.75.75 0 0 0 0-1.5H3.25v-3.5H7A2.75 2.75 0 0 0 9.75 8V7a.75.75 0 0 0-1.5 0v1c0 .69-.56 1.25-1.25 1.25H3.25zm12.5 15.25h2.75a2.25 2.25 0 0 0 2.25-2.25v-2.75h-5z" clip-rule="evenodd"/></svg>