<svg xmlns="http://www.w3.org/2000/svg" fill="none" viewBox="0 0 24 24"><path fill="currentColor" fill-rule="evenodd" d="M2.25 3A.75.75 0 0 1 3 2.25h18a.75.75 0 0 1 .75.75v5a.75.75 0 0 1-.445.685l-8.29 3.685.962 1.974 3.107.348a.75.75 0 0 1 .41 1.31l-2.27 1.986.6 2.858a.75.75 0 0 1-1.085.817L12 20.212l-2.74 1.45a.75.75 0 0 1-1.084-.816l.6-2.858-2.27-1.986a.75.75 0 0 1 .41-1.31l3.107-.348.962-1.974-8.29-3.685A.75.75 0 0 1 2.25 8zm1.5.75v3.763L12 11.179l8.25-3.666V3.75zm4.25 1a.75.75 0 0 1 .75.75v1a.75.75 0 0 1-1.5 0v-1A.75.75 0 0 1 8 4.75m4 0a.75.75 0 0 1 .75.75V8a.75.75 0 0 1-1.5 0V5.5a.75.75 0 0 1 .75-.75m4 0a.75.75 0 0 1 .75.75v1a.75.75 0 0 1-1.5 0v-1a.75.75 0 0 1 .75-.75m-4.81 10.622.81-1.66.81 1.66a.75.75 0 0 0 .59.416l1.826.205-1.32 1.156a.75.75 0 0 0-.24.718l.361 1.721-1.676-.888a.75.75 0 0 0-.702 0l-1.676.888.361-1.72a.75.75 0 0 0-.24-.72l-1.32-1.155 1.826-.205a.75.75 0 0 0 .59-.416" clip-rule="evenodd"/></svg>