<svg xmlns="http://www.w3.org/2000/svg" fill="none" viewBox="0 0 24 24"><path fill="currentColor" fill-rule="evenodd" d="M4.25 3c0-.966.784-1.75 1.75-1.75h8c.966 0 1.75.784 1.75 1.75v2c0 .815-.556 1.5-1.31 1.694q-.027.063-.054.144c-.066.2-.117.455-.133.733-.034.572.08 1.117.34 1.47l.264.327c.432.531.9 1.109 1.285 1.744a.75.75 0 0 1-1.284.776c-.325-.538-.714-1.018-1.142-1.546L13.4 9.95c-.557-.743-.69-1.694-.645-2.468.016-.253.05-.5.102-.732H7.143c.052.232.086.48.102.732.046.774-.088 1.725-.645 2.468l-.014.019-1.343 1.678a2.25 2.25 0 0 0-.493 1.405V21c0 .138.112.25.25.25h5a.75.75 0 0 1 0 1.5H5A1.75 1.75 0 0 1 3.25 21v-7.948c0-.851.29-1.677.822-2.342l1.334-1.668c.261-.354.375-.899.341-1.471a3 3 0 0 0-.133-.733 2 2 0 0 0-.054-.144A1.75 1.75 0 0 1 4.25 5zM6 2.75a.25.25 0 0 0-.25.25v2c0 .138.112.25.25.25h8a.25.25 0 0 0 .25-.25V3a.25.25 0 0 0-.25-.25zm7.486 13.19a3.25 3.25 0 0 1 3.938-.862l-4.008 4.893a3.25 3.25 0 0 1 .07-4.03m1.09 4.982 4.009-4.893a3.251 3.251 0 0 1-4.01 4.893m4.434-6.596a4.75 4.75 0 1 0-6.02 7.349 4.75 4.75 0 0 0 6.02-7.35" clip-rule="evenodd"/></svg>