<svg xmlns="http://www.w3.org/2000/svg" fill="none" viewBox="0 0 24 24"><path fill="currentColor" fill-rule="evenodd" d="M17.05 4.726c.493-.211.998-.083 1.26.25 1.05 1.341 1.94 3.217 1.94 6.027s-.89 4.686-1.94 6.027c-.262.333-.767.461-1.26.25l-8.8-3.771V8.498zM6.75 8.753H5c-.69 0-1.25.56-1.25 1.25v2c0 .69.56 1.25 1.25 1.25h1.75zm12.74-4.702c-.748-.954-2.02-1.137-3.03-.704L7.346 7.253H5a2.75 2.75 0 0 0-2.75 2.75v2A2.75 2.75 0 0 0 5 14.753h1.25v2.129c0 .663.375 1.269.967 1.565l4 2a1.75 1.75 0 0 0 2.533-1.565v-1.384l2.71 1.161c1.01.433 2.282.25 3.03-.704 1.242-1.585 2.26-3.782 2.26-6.952s-1.018-5.367-2.26-6.952m-7.24 12.804-4.5-1.929v1.956a.25.25 0 0 0 .138.224l4 2a.25.25 0 0 0 .362-.224z" clip-rule="evenodd"/></svg>