<svg xmlns="http://www.w3.org/2000/svg" fill="none" viewBox="0 0 24 24"><path fill="currentColor" fill-rule="evenodd" d="M4.133 22.247h.009l-.002.002c1.478-.002 2.53-.565 3.403-1.214.532.255 1.653.565 2.232.601 1.45.102 2.987.102 4.446 0 4.547-.305 8.197-4.002 8.49-8.603.052-.866.052-1.744 0-2.613-.292-4.599-3.943-8.296-8.493-8.601a36 36 0 0 0-4.439 0c-4.547.304-8.197 4.002-8.49 8.603a22 22 0 0 0 0 2.613c.094 1.463.664 2.983 1.696 4.519.31.601-.036 1.5-.369 2.125-.407.767-.7 1.321-.364 1.923l.01.015.008.016c.355.567 1.181.593 1.863.614m2.25-2.229c-.653.486-1.499.804-2.626.721.94-1.715 1.057-2.98.528-3.936-.893-1.323-1.422-2.66-1.499-3.862a21 21 0 0 1 0-2.427c.245-3.85 3.295-6.945 7.091-7.199a35 35 0 0 1 4.245 0c3.798.255 6.848 3.35 7.093 7.197a21 21 0 0 1 0 2.427c-.247 3.85-3.295 6.945-7.094 7.2h-.002c-1.39.097-2.856.097-4.244 0-.418-.027-.995-.18-1.372-.336-.56-.23-.841-.346-1.167-.297-.298.046-.517.202-.951.51zM8 11a1 1 0 1 0 0 2h.009a1 1 0 1 0 0-2zm3.996 0a1 1 0 0 0 0 2h.008a1 1 0 1 0 0-2zm3.995 0a1 1 0 0 0 0 2H16a1 1 0 1 0 0-2z" clip-rule="evenodd"/></svg>