<svg xmlns="http://www.w3.org/2000/svg" fill="none" viewBox="0 0 24 24"><path fill="currentColor" fill-rule="evenodd" d="M4.133 22.247h.009l-.002.003c1.478-.003 2.53-.566 3.403-1.215.532.255 1.653.566 2.232.602 1.45.101 2.987.101 4.446 0 4.547-.306 8.197-4.003 8.49-8.603.052-.867.052-1.745 0-2.613-.292-4.6-3.943-8.297-8.493-8.602a36 36 0 0 0-4.439 0c-4.547.304-8.197 4.003-8.49 8.604a22 22 0 0 0 0 2.613c.094 1.463.664 2.982 1.696 4.519.31.6-.036 1.5-.369 2.125-.407.767-.7 1.32-.364 1.922l.01.016.008.016c.355.567 1.181.592 1.863.613m2.25-2.228c-.653.486-1.499.803-2.626.72.94-1.714 1.057-2.98.528-3.935-.893-1.323-1.422-2.661-1.499-3.862a21 21 0 0 1 0-2.427c.245-3.85 3.295-6.945 7.091-7.2a35 35 0 0 1 4.245 0c3.798.256 6.848 3.35 7.093 7.198a21 21 0 0 1 0 2.427c-.247 3.849-3.295 6.945-7.094 7.199h-.002c-1.39.098-2.856.098-4.244 0-.418-.026-.995-.18-1.372-.335-.56-.231-.841-.346-1.167-.297-.298.046-.517.201-.951.51zM12.745 7.5a.75.75 0 0 0-1.5 0v.75h-3.25a.75.75 0 1 0 0 1.5h5.54a9.6 9.6 0 0 1-1.389 2.79c-.58-.79-.853-1.44-.923-1.721a.75.75 0 1 0-1.456.363c.135.538.562 1.49 1.399 2.546a15 15 0 0 1-2.587 2.149.75.75 0 1 0 .832 1.248 16.5 16.5 0 0 0 2.766-2.285q.389.376.85.746a.75.75 0 1 0 .937-1.171 11 11 0 0 1-.808-.716 11.1 11.1 0 0 0 1.936-3.949h.903a.75.75 0 0 0 0-1.5h-3.25z" clip-rule="evenodd"/></svg>