<svg xmlns="http://www.w3.org/2000/svg" fill="none" viewBox="0 0 24 24"><path fill="currentColor" fill-rule="evenodd" d="M18 2.75a3.25 3.25 0 1 0 0 6.5 3.25 3.25 0 0 0 0-6.5M13.25 6a4.75 4.75 0 1 1 9.5 0 4.75 4.75 0 0 1-9.5 0m6.28-1.53a.75.75 0 0 1 0 1.06l-1 1a.75.75 0 1 1-1.06-1.06l1-1a.75.75 0 0 1 1.06 0m-7.28-1.481a.75.75 0 0 1-.739.76q-.826.014-1.632.067c-3.8.252-6.84 3.324-7.09 7.2a19 19 0 0 0 0 2.423c.088 1.36.694 2.662 1.463 3.816l.032.053c.669 1.21.179 2.59-.32 3.536a22 22 0 0 0-.205.394l.259.007c1.068.026 1.746-.27 2.286-.668l.017-.013c.174-.128.331-.244.461-.328.114-.073.32-.202.572-.233.263-.033.519.057.646.102.163.057.37.142.61.24v.001l.02.008c.379.156.833.257 1.25.285 1.39.092 2.847.092 4.24 0 3.8-.253 6.84-3.325 7.091-7.2q.03-.472.037-.953a.75.75 0 1 1 1.5.02q-.007.519-.04 1.03c-.298 4.61-3.921 8.296-8.488 8.6-1.46.096-2.983.096-4.44 0a5.6 5.6 0 0 1-1.722-.395c-.238-.098-.4-.164-.518-.208-.08.056-.189.136-.346.252-.793.584-1.793.994-3.213.96l-.046-.002c-.273-.006-.565-.013-.803-.06-.287-.055-.642-.194-.864-.572-.242-.412-.145-.829-.051-1.091.088-.248.242-.538.398-.835l.022-.04c.466-.885.596-1.607.347-2.088-.833-1.257-1.581-2.805-1.692-4.521a21 21 0 0 1 0-2.617c.298-4.61 3.921-8.296 8.488-8.6.562-.037 1.135-.06 1.709-.069a.75.75 0 0 1 .76.739M8 11.5a1 1 0 1 0 0 2h.009a1 1 0 1 0 0-2zm3.996 0a1 1 0 0 0 0 2h.008a1 1 0 1 0 0-2z" clip-rule="evenodd"/></svg>