<svg xmlns="http://www.w3.org/2000/svg" fill="none" viewBox="0 0 24 24"><path fill="currentColor" fill-rule="evenodd" d="M9.39 2.25a4.75 4.75 0 0 0-4.685 3.97l-1.32 7.917c-.3 1.798.462 3.569 1.88 4.537L3.47 20.47a.75.75 0 1 0 1.06 1.06l2.216-2.215q.191.043.391.07c1.468.197 3.202.365 4.865.365 1.662 0 3.396-.168 4.864-.365q.198-.025.389-.07l2.215 2.215a.75.75 0 1 0 1.06-1.06l-1.795-1.795c1.42-.968 2.183-2.74 1.883-4.538l-1.32-7.918a4.75 4.75 0 0 0-4.686-3.969zM6.184 6.466A3.25 3.25 0 0 1 9.39 3.75h5.222a3.25 3.25 0 0 1 3.206 2.716l.386 2.313c-.862.958-1.999 1.57-3.13 1.947-1.225.408-2.394.524-3.074.524-.681 0-1.85-.116-3.075-.524-1.13-.377-2.265-.988-3.127-1.944zm-.683 4.099-.636 3.819c-.286 1.715.82 3.293 2.472 3.515 1.432.192 3.094.351 4.665.351 1.57 0 3.232-.16 4.664-.351 1.651-.222 2.758-1.8 2.472-3.516l-.637-3.82c-.922.756-1.967 1.257-2.952 1.586-1.4.466-2.731.6-3.55.6-.818 0-2.149-.134-3.548-.6-.985-.328-2.028-.83-2.95-1.584M9 14a1 1 0 1 0 0 2h.009a1 1 0 1 0 0-2zm5.991 0a1 1 0 0 0 0 2H15a1 1 0 1 0 0-2z" clip-rule="evenodd"/></svg>