<svg xmlns="http://www.w3.org/2000/svg" fill="none" viewBox="0 0 24 24"><path fill="currentColor" fill-rule="evenodd" d="M4 2.25A2.75 2.75 0 0 0 1.25 5v12A2.75 2.75 0 0 0 4 19.75h.25V21a.75.75 0 0 0 1.5 0v-1.25h12.5V21a.75.75 0 0 0 1.5 0v-1.25H20A2.75 2.75 0 0 0 22.75 17V5A2.75 2.75 0 0 0 20 2.25zm15 16h1c.69 0 1.25-.56 1.25-1.25V5c0-.69-.56-1.25-1.25-1.25H4c-.69 0-1.25.56-1.25 1.25v12c0 .69.56 1.25 1.25 1.25zm-13.5-13c-.69 0-1.25.56-1.25 1.25v9c0 .69.56 1.25 1.25 1.25h10c.69 0 1.25-.56 1.25-1.25v-9c0-.69-.56-1.25-1.25-1.25zm.25 10v-8.5h9.5v8.5zM19 5.25a.75.75 0 0 1 .75.75v.009a.75.75 0 0 1-1.5 0V6a.75.75 0 0 1 .75-.75m0 2.996a.75.75 0 0 1 .75.75v.008a.75.75 0 0 1-1.5 0v-.008a.75.75 0 0 1 .75-.75m0 2.995a.75.75 0 0 1 .75.75V12a.75.75 0 0 1-1.5 0v-.009a.75.75 0 0 1 .75-.75" clip-rule="evenodd"/></svg>