<svg xmlns="http://www.w3.org/2000/svg" fill="none" viewBox="0 0 24 24"><path fill="currentColor" fill-rule="evenodd" d="M15.15 15.861c.14.25.39.38.65.38v-.01c.12 0 .25-.03.37-.1l2.2-1.27a.746.746 0 0 0-.75-1.29l-2.2 1.27c-.35.2-.48.66-.27 1.02m-1.58-1.74c.15.04.31.06.46.06.3 0 .6-.08.87-.24l2.63-1.53c.4-.23.7-.61.82-1.06.13-.45.07-.93-.17-1.35l-3.8-6.61a3.3 3.3 0 0 0-4.5-1.2 3.31 3.31 0 0 0-1.2 4.51l.709 1.222c-.234.24-.415.532-.524.857-2.593.315-4.615 2.536-4.615 5.211 0 2.711 2.077 4.956 4.72 5.224l-.508 1.526H4c-.41 0-.75.34-.75.75s.34.75.75.75h4.896q.105.015.209 0h4.394l-.01.01a1 1 0 0 0 .128-.01H20c.41 0 .75-.34.75-.75s-.34-.75-.75-.75h-5.963l-.498-1.5H18c.41 0 .75-.34.75-.75s-.34-.75-.75-.75h-4.958l-.103-.31c-.25-.71-.92-1.18-1.72-1.18-.74 0-1.41.47-1.66 1.19l-.1.3a3.751 3.751 0 0 1-.563-7.451 2.255 2.255 0 0 0 2.66 1.382l.935 1.62c.24.41.62.71 1.08.83m-1.797 4.553-.254-.763a.26.26 0 0 0-.24-.17c-.17 0-.27.07-.3.18l-.932 2.82h2.413l-.654-1.969a1 1 0 0 1-.033-.098M11 10.241c-.41 0-.75-.34-.75-.75 0-.281.16-.53.393-.658a1 1 0 0 0 .09-.042.7.7 0 0 1 .267-.05c.41 0 .75.34.75.75s-.34.75-.75.75m1.799.6.982 1.7c.05.09.12.12.17.13.04.01.11.02.19-.02l2.64-1.53c.08-.05.11-.11.12-.16.01-.04.02-.12-.03-.21l-3.8-6.61a1.784 1.784 0 0 0-2.45-.65c-.85.49-1.15 1.6-.65 2.46l.757 1.307q.134-.017.272-.017c1.24 0 2.25 1.01 2.25 2.25 0 .506-.168.973-.451 1.35" clip-rule="evenodd"/></svg>