<svg xmlns="http://www.w3.org/2000/svg" fill="none" viewBox="0 0 24 24"><path fill="currentColor" fill-rule="evenodd" d="M5.75 3A.25.25 0 0 1 6 2.75h8.5a.25.25 0 0 1 .25.25v1.642c0 .41.144.806.406 1.12l1.241 1.488H8.311L5.75 4.69zm11.5 6.5v-.75h-8.5v12.5h1.75a.75.75 0 0 1 0 1.5H4A2.75 2.75 0 0 1 1.25 20V8a.75.75 0 0 1 .22-.53l2.78-2.78V3c0-.966.784-1.75 1.75-1.75h8.5c.966 0 1.75.784 1.75 1.75v1.642c0 .058.02.115.058.16l2.268 2.717A.75.75 0 0 1 18.75 8v1.5a.75.75 0 0 1-1.5 0M5 6.06l2.25 2.25v12.94H4c-.69 0-1.25-.56-1.25-1.25V8.31zm13.05 7.722-.004-.002-.02-.009a.4.4 0 0 0-.135-.02c-.148-.004-.37.033-.66.144-.577.222-1.29.688-1.969 1.367-.679.68-1.145 1.392-1.367 1.97-.111.29-.148.51-.145.659a.4.4 0 0 0 .03.155l.002.003.003.002.012.006a.3.3 0 0 0 .091.021c.103.01.265 0 .49-.066.45-.13 1.027-.441 1.626-.93q.286-.234.565-.513c.68-.679 1.146-1.392 1.367-1.969.112-.29.149-.511.145-.66a.4.4 0 0 0-.03-.154zm-3.849.42c.793-.793 1.677-1.393 2.492-1.707.407-.156.83-.254 1.235-.244.313.008.642.082.93.267a4 4 0 0 1 1.065.285c.44.18.903.45 1.259.807a5.355 5.355 0 0 1-7.572 7.572c-.356-.356-.626-.82-.807-1.259a4 4 0 0 1-.285-1.066 1.8 1.8 0 0 1-.267-.929c-.01-.405.088-.828.244-1.235.314-.815.915-1.7 1.707-2.492m5.92.468a2.2 2.2 0 0 0-.56-.386 3.7 3.7 0 0 1-.224.855c-.314.815-.915 1.699-1.707 2.491a9 9 0 0 1-.33.315c.041.153.096.293.175.426.134.226.37.483.848.722a.75.75 0 1 1-.67 1.341c-.706-.353-1.171-.797-1.468-1.298a3 3 0 0 1-.134-.253 5.4 5.4 0 0 1-1.255.57 3.3 3.3 0 0 1-.512.107c.114.228.25.424.386.561a3.854 3.854 0 0 0 5.451-5.45" clip-rule="evenodd"/></svg>