<svg xmlns="http://www.w3.org/2000/svg" fill="none" viewBox="0 0 24 24"><path fill="currentColor" fill-rule="evenodd" d="M11.033 2.529A.75.75 0 0 0 9.97 1.471L8.25 3.199V2.5a.75.75 0 0 0-1.5 0v2.45a.75.75 0 0 0 .748.82h2.657a.75.75 0 1 0 0-1.5h-.854zM2.843 6.25a.75.75 0 1 0 0 1.5h.848L1.97 9.47a.75.75 0 0 0 1.06 1.06l1.723-1.72v.857a.75.75 0 1 0 1.5 0V7a.75.75 0 0 0-.75-.75zm10.99-1.58c.079-.354.24-.586.42-.725.178-.136.42-.216.73-.19.225.019.457.154.626.39s.229.512.183.742l-1.283 5.468a.75.75 0 0 0 .565.903l3.27.739.031.006c1.204.22 1.79.582 2.073.949.268.347.375.847.25 1.639l-.902 4.253-.008.042c-.098.639-.335 1.245-.705 1.676-.352.41-.841.688-1.55.688H12.1a2.25 2.25 0 0 1-1.872-1.002l-3.716-5.576-.042-.056a.99.99 0 0 1-.004-1.243.987.987 0 0 1 1.413-.133l2.132 1.83a.75.75 0 0 0 1.214-.381l2.601-9.992zm1.276-2.41c-.651-.055-1.27.113-1.77.496-.492.378-.821.93-.967 1.576l-2.295 8.817-1.22-1.047a2.487 2.487 0 0 0-3.562.335l.586.468-.586-.468a2.49 2.49 0 0 0-.012 3.094L8.98 21.08a3.75 3.75 0 0 0 3.12 1.67h5.431c1.173 0 2.07-.488 2.69-1.211.596-.696.916-1.58 1.046-2.403l.902-4.253.007-.037c.16-1.004.085-1.996-.54-2.81-.61-.792-1.627-1.258-2.977-1.506l-2.518-.569 1.113-4.742.003-.016c.148-.699-.05-1.4-.429-1.929s-.984-.952-1.72-1.014" clip-rule="evenodd"/></svg>