<svg xmlns="http://www.w3.org/2000/svg" fill="none" viewBox="0 0 24 24"><path fill="currentColor" fill-rule="evenodd" d="M4.75 4c0-.69.56-1.25 1.25-1.25h12c.69 0 1.25.56 1.25 1.25v16c0 .69-.56 1.25-1.25 1.25H6c-.69 0-1.25-.56-1.25-1.25zM6 1.25A2.75 2.75 0 0 0 3.25 4v16A2.75 2.75 0 0 0 6 22.75h12A2.75 2.75 0 0 0 20.75 20V4A2.75 2.75 0 0 0 18 1.25zm3.25 8.386c0-1.621 1.258-2.886 2.75-2.886s2.75 1.265 2.75 2.886c0 .8-.337 1.449-.883 2.115a16 16 0 0 1-.936 1.013l-.034.036a21 21 0 0 0-.883.94 17 17 0 0 0-.927-.993l-.05-.05a16 16 0 0 1-.895-.952c-.55-.654-.892-1.292-.892-2.109M12 5.25c-2.374 0-4.25 1.991-4.25 4.386 0 1.31.576 2.28 1.244 3.074.307.366.649.71.965 1.03l.062.063c.342.345.656.666.927 1.002.527.652 1.565.676 2.112.02.276-.33.588-.648.926-.994l.017-.017c.336-.344.699-.715 1.024-1.112.659-.803 1.223-1.78 1.223-3.066 0-2.395-1.876-4.386-4.25-4.386M11 9.5a1 1 0 0 1 1-1h.009a1 1 0 1 1 0 2H12a1 1 0 0 1-1-1m0 8.75a.75.75 0 0 0 0 1.5h2a.75.75 0 0 0 0-1.5z" clip-rule="evenodd"/></svg>