<svg xmlns="http://www.w3.org/2000/svg" fill="none" viewBox="0 0 24 24"><path fill="currentColor" fill-rule="evenodd" d="M5 1.25A3.75 3.75 0 0 0 1.25 5v10A3.75 3.75 0 0 0 5 18.75h14A3.75 3.75 0 0 0 22.75 15V5A3.75 3.75 0 0 0 19 1.25zM2.75 5A2.25 2.25 0 0 1 5 2.75h14A2.25 2.25 0 0 1 21.25 5v10A2.25 2.25 0 0 1 19 17.25H5A2.25 2.25 0 0 1 2.75 15zm5.607 17.66A7.65 7.65 0 0 1 12 21.75c1.332 0 2.575.332 3.643.91a.75.75 0 0 0 .714-1.32A9.15 9.15 0 0 0 12 20.25a9.15 9.15 0 0 0-4.356 1.09.75.75 0 0 0 .713 1.32" clip-rule="evenodd"/></svg>