<svg xmlns="http://www.w3.org/2000/svg" fill="none" viewBox="0 0 24 24"><path fill="currentColor" fill-rule="evenodd" d="M1.25 5A3.75 3.75 0 0 1 5 1.25h14A3.75 3.75 0 0 1 22.75 5v10A3.75 3.75 0 0 1 19 18.75H5A3.75 3.75 0 0 1 1.25 15zM5 2.75A2.25 2.25 0 0 0 2.75 5v10A2.25 2.25 0 0 0 5 17.25h14A2.25 2.25 0 0 0 21.25 15V5A2.25 2.25 0 0 0 19 2.75zm7.75 3.75a.75.75 0 0 0-1.5 0v4a.75.75 0 0 0 1.5 0zm-.75 6a1 1 0 1 0 0 2h.009a1 1 0 1 0 0-2zM8.357 22.66A7.65 7.65 0 0 1 12 21.75c1.332 0 2.575.332 3.643.91a.75.75 0 0 0 .714-1.32A9.15 9.15 0 0 0 12 20.25a9.15 9.15 0 0 0-4.356 1.09.75.75 0 0 0 .713 1.32" clip-rule="evenodd"/></svg>