<svg xmlns="http://www.w3.org/2000/svg" fill="none" viewBox="0 0 24 24"><path fill="currentColor" fill-rule="evenodd" d="M12 1.25a.75.75 0 0 1 .75.75v4a.75.75 0 0 1-1.5 0V2a.75.75 0 0 1 .75-.75m-4 2a.75.75 0 0 1 .75.75v2a.75.75 0 0 1-1.5 0V4A.75.75 0 0 1 8 3.25m8 0a.75.75 0 0 1 .75.75v2a.75.75 0 0 1-1.5 0V4a.75.75 0 0 1 .75-.75M4 6.75c-.69 0-1.25.56-1.25 1.25v12c0 .69.56 1.25 1.25 1.25h16c.69 0 1.25-.56 1.25-1.25V8c0-.69-.56-1.25-1.25-1.25h-1a.75.75 0 0 1 0-1.5h1A2.75 2.75 0 0 1 22.75 8v12A2.75 2.75 0 0 1 20 22.75H4A2.75 2.75 0 0 1 1.25 20V8A2.75 2.75 0 0 1 4 5.25h1a.75.75 0 0 1 0 1.5zM18.5 13a1 1 0 1 1 0 2h-.009a1 1 0 1 1 0-2zM6.508 14a1 1 0 0 0-1-1h-.01a1 1 0 1 0 0 2h.01a1 1 0 0 0 1-1m3.742 0a1.75 1.75 0 1 1 3.5 0 1.75 1.75 0 0 1-3.5 0M12 10.75a3.25 3.25 0 1 0 0 6.5 3.25 3.25 0 0 0 0-6.5" clip-rule="evenodd"/></svg>