<svg xmlns="http://www.w3.org/2000/svg" fill="none" viewBox="0 0 24 24"><path fill="currentColor" fill-rule="evenodd" d="M4 2.25A2.75 2.75 0 0 0 1.25 5v12A2.75 2.75 0 0 0 4 19.75h1.25V21a.75.75 0 0 0 1.5 0v-1.25h10.5V21a.75.75 0 0 0 1.5 0v-1.25H20A2.75 2.75 0 0 0 22.75 17V5A2.75 2.75 0 0 0 20 2.25zm14 16H4c-.69 0-1.25-.56-1.25-1.25V5c0-.69.56-1.25 1.25-1.25h16c.69 0 1.25.56 1.25 1.25v12c0 .69-.56 1.25-1.25 1.25zm-.47-11.78a.75.75 0 1 0-1.06 1.06l.414.415c.152.152.237.237.296.306q.038.045.045.058l.003.004.002.004.001.002.003.01.009.073c.007.09.007.211.007.426v4.344c0 .215 0 .335-.007.425l-.01.074-.002.01v.002l-.006.008-.045.058a6 6 0 0 1-.296.306l-.414.415a.75.75 0 1 0 1.06 1.06l.415-.414.056-.056c.231-.23.48-.478.616-.805.135-.326.134-.678.133-1.003V8.748c.001-.325.002-.677-.133-1.003-.136-.327-.385-.575-.616-.805l-.056-.056zM10.25 7a.75.75 0 0 0-1.5 0v.837a3.25 3.25 0 0 0-1.623.943l-.755-.431a.75.75 0 1 0-.744 1.302l.754.43a3.25 3.25 0 0 0 0 1.837l-.754.43a.75.75 0 0 0 .744 1.303l.755-.43c.429.458.99.792 1.623.942V15a.75.75 0 1 0 1.5 0v-.837a3.25 3.25 0 0 0 1.624-.943l.754.431a.75.75 0 0 0 .744-1.302l-.754-.43a3.25 3.25 0 0 0 0-1.837l.754-.43a.75.75 0 1 0-.744-1.303l-.755.43a3.25 3.25 0 0 0-1.623-.942zm-2.27 3.132a1.75 1.75 0 0 1 3.27.868 1.75 1.75 0 1 1-3.5 0c0-.317.084-.613.23-.868" clip-rule="evenodd"/></svg>