<svg xmlns="http://www.w3.org/2000/svg" fill="none" viewBox="0 0 24 24"><path fill="currentColor" fill-rule="evenodd" d="M1.25 12C1.25 6.063 6.063 1.25 12 1.25q1.104.002 2.15.215a.75.75 0 0 1-.3 1.47 9.25 9.25 0 1 0 7.214 7.214.75.75 0 1 1 1.471-.298A11 11 0 0 1 22.75 12c0 5.937-4.813 10.75-10.75 10.75S1.25 17.937 1.25 12M12 7.25a.75.75 0 0 1 .75.75v.335c.789.18 1.485.645 1.815 1.345a.75.75 0 1 1-1.357.64c-.117-.249-.54-.57-1.208-.57-.406 0-.744.124-.964.29-.22.164-.286.335-.286.46s.066.296.286.46c.22.166.558.29.964.29.699 0 1.36.211 1.864.59.504.377.886.957.886 1.66s-.382 1.283-.886 1.66a2.95 2.95 0 0 1-1.114.506V16a.75.75 0 0 1-1.5 0v-.335c-.789-.18-1.485-.645-1.815-1.345a.75.75 0 1 1 1.357-.64c.117.249.54.57 1.208.57.406 0 .744-.124.964-.29.22-.164.286-.335.286-.46s-.066-.296-.286-.46c-.22-.166-.558-.29-.964-.29-.699 0-1.36-.211-1.864-.59-.504-.377-.886-.957-.886-1.66s.382-1.283.886-1.66a2.95 2.95 0 0 1 1.114-.506V8a.75.75 0 0 1 .75-.75m5.5-6a.75.75 0 0 0 0 1.5h2.69l-3.72 3.72a.75.75 0 0 0 1.06 1.06l3.72-3.72V6.5a.75.75 0 0 0 1.5 0V2a.75.75 0 0 0-.75-.75z" clip-rule="evenodd"/></svg>