<svg xmlns="http://www.w3.org/2000/svg" fill="none" viewBox="0 0 24 24"><path fill="currentColor" fill-rule="evenodd" d="M4 3.25A2.75 2.75 0 0 0 1.25 6v12A2.75 2.75 0 0 0 4 20.75h16A2.75 2.75 0 0 0 22.75 18V6A2.75 2.75 0 0 0 20 3.25zM2.75 6c0-.69.56-1.25 1.25-1.25h16c.69 0 1.25.56 1.25 1.25v12c0 .69-.56 1.25-1.25 1.25H4c-.69 0-1.25-.56-1.25-1.25zm7.55 6a1.75 1.75 0 1 1 3.5 0 1.75 1.75 0 0 1-3.5 0m1.75-3.25a3.25 3.25 0 1 0 0 6.5 3.25 3.25 0 0 0 0-6.5M19.513 12a1 1 0 0 0-1-1h-.01a1 1 0 0 0 0 2h.01a1 1 0 0 0 1-1M5.5 11a1 1 0 1 1 0 2h-.009a1 1 0 1 1 0-2z" clip-rule="evenodd"/></svg>