<svg xmlns="http://www.w3.org/2000/svg" fill="none" viewBox="0 0 24 24"><path fill="currentColor" fill-rule="evenodd" d="M12.75 2a.75.75 0 0 0-1.5 0v4a.75.75 0 0 0 1.5 0zm4 1a.75.75 0 0 0-1.5 0v2a.75.75 0 0 0 1.5 0zm-8 2a.75.75 0 0 0-1.5 0v2a.75.75 0 0 0 1.5 0zm9.508-.11a.75.75 0 0 1 .852-.632 12 12 0 0 1 3.2.936.75.75 0 0 1 .44.683v15.115a.75.75 0 0 1-1.06.683c-2.326-1.055-4.668-1.061-6.453-.791-.89.134-1.63.336-2.146.503a10 10 0 0 0-.74.27l-.035.016-.006.002c-2.674 1.212-5.332 1.206-7.297.91a15 15 0 0 1-2.385-.56 12 12 0 0 1-.915-.34l-.015-.006-.005-.002-.002-.001.309-.684-.31.683a.75.75 0 0 1-.44-.683V5.877a.75.75 0 0 1 1.06-.683L2 5.877l.31-.683.006.002.032.014q.045.02.142.058c.128.05.32.122.566.203.495.162 1.206.359 2.063.496a.75.75 0 1 1-.238 1.481c-.86-.138-1.59-.33-2.131-.5v13.534q.148.053.34.116c.516.167 1.257.369 2.147.503 1.785.27 4.127.263 6.453-.792l.31.683-.31-.683h.002l.001-.001.005-.002.015-.007.052-.022.185-.076c.16-.062.389-.147.678-.241.578-.187 1.4-.41 2.385-.56 1.705-.257 3.932-.296 6.237.49V6.372a10.5 10.5 0 0 0-2.36-.63.75.75 0 0 1-.632-.851M12 11.75a1.75 1.75 0 1 0 0 3.5 1.75 1.75 0 0 0 0-3.5M8.75 13.5a3.25 3.25 0 1 1 6.5 0 3.25 3.25 0 0 1-6.5 0m-2.25 1a1 1 0 1 0-2 0v.009a1 1 0 1 0 2 0zm12-3.008a1 1 0 0 1 1 1v.01a1 1 0 1 1-2 0v-.01a1 1 0 0 1 1-1" clip-rule="evenodd"/></svg>