<svg xmlns="http://www.w3.org/2000/svg" fill="none" viewBox="0 0 24 24"><path fill="currentColor" fill-rule="evenodd" d="M17.607 3.678a4.1 4.1 0 0 0-.692.984A9.24 9.24 0 0 1 21.25 12.5a9.27 9.27 0 0 1-3 6.838V20a2.75 2.75 0 0 1-2.75 2.75h-7A2.75 2.75 0 0 1 5.75 20v-.662a9.27 9.27 0 0 1-3-6.838 9.24 9.24 0 0 1 4.335-7.838 4.1 4.1 0 0 0-.692-.984C5.873 3.13 5.224 2.75 4.5 2.75a.75.75 0 0 1 0-1.5c1.276 0 2.293.67 2.982 1.397.391.413.712.88.934 1.323A9.2 9.2 0 0 1 12 3.25c1.27 0 2.482.256 3.584.72a5.7 5.7 0 0 1 .934-1.323c.69-.727 1.706-1.397 2.982-1.397a.75.75 0 0 1 0 1.5c-.724 0-1.374.38-1.893.928M8.31 5.683A7.75 7.75 0 0 0 4.25 12.5a7.77 7.77 0 0 0 2.736 5.929.75.75 0 0 1 .264.571v1c0 .69.56 1.25 1.25 1.25h7c.69 0 1.25-.56 1.25-1.25v-1a.75.75 0 0 1 .264-.571A7.77 7.77 0 0 0 19.75 12.5 7.748 7.748 0 0 0 8.31 5.683M8.25 11.5c0-1.354 1.493-2.75 3.75-2.75s3.75 1.396 3.75 2.75-1.493 2.75-3.75 2.75-3.75-1.396-3.75-2.75M12 7.25c-2.713 0-5.25 1.738-5.25 4.25s2.537 4.25 5.25 4.25 5.25-1.738 5.25-4.25S14.713 7.25 12 7.25m0 3.25a1 1 0 1 0 0 2h.009a1 1 0 1 0 0-2zm-1.98 6.959a.75.75 0 1 0-1.04 1.082A4.35 4.35 0 0 0 12 19.75a4.35 4.35 0 0 0 3.02-1.209.75.75 0 1 0-1.04-1.082 2.85 2.85 0 0 1-1.98.791 2.85 2.85 0 0 1-1.98-.791" clip-rule="evenodd"/></svg>