<svg xmlns="http://www.w3.org/2000/svg" fill="none" viewBox="0 0 24 24"><path fill="currentColor" fill-rule="evenodd" d="M10.448 4.726a7.5 7.5 0 0 1 4.472-.936 6.86 6.86 0 0 0 .157 6.702c1.26 2.142 3.5 3.373 5.833 3.474a7.2 7.2 0 0 1-1.852 2.466.75.75 0 1 0 .98 1.136 8.7 8.7 0 0 0 2.683-4.185.75.75 0 0 0-.812-.952c-2.172.265-4.385-.739-5.54-2.7a5.38 5.38 0 0 1 .382-6.027.75.75 0 0 0-.413-1.186 9 9 0 0 0-6.63.902c-3.025 1.714-4.644 4.913-4.441 8.127a.75.75 0 0 0 1.497-.094C6.597 8.8 7.932 6.15 10.447 4.726M9.75 13.96c0-.655.546-1.211 1.25-1.211s1.25.556 1.25 1.211c0 .219-.06.423-.164.6-.177.3-.615.678-1.338 1.008-.703.322-1.596.562-2.569.647-1.954.171-4.105-.292-5.654-1.81a.75.75 0 1 0-1.05 1.071c1.951 1.913 4.587 2.43 6.835 2.234 1.129-.099 2.19-.38 3.062-.778.85-.389 1.606-.931 2.006-1.61.236-.4.372-.867.372-1.362 0-1.511-1.245-2.711-2.75-2.711s-2.75 1.2-2.75 2.711a.75.75 0 0 0 1.5 0m4.361 4.898a.75.75 0 1 1 .14 1.349.75.75 0 0 0-.5 1.414 2.25 2.25 0 0 0 3-2.122 2.25 2.25 0 0 0-3.476-1.887c-1.065.733-3.078 1.695-5.356 1.942a.75.75 0 0 0 .162 1.492c2.554-.278 4.792-1.34 6.03-2.188m-11.791.373a.75.75 0 0 1 .996-.364c.601.279 1.214.47 1.827.59a.75.75 0 0 1-.286 1.472 9.4 9.4 0 0 1-2.173-.702.75.75 0 0 1-.364-.996m19.015.939a.75.75 0 1 0-.67-1.342c-.843.422-1.45.422-1.657.421H19a.75.75 0 0 0 0 1.5c.316 0 1.19-.006 2.335-.579" clip-rule="evenodd"/></svg>