<svg xmlns="http://www.w3.org/2000/svg" fill="none" viewBox="0 0 24 24"><path fill="currentColor" fill-rule="evenodd" d="m20.03 9.53 2.5-2.5a.75.75 0 0 0-1.06-1.06l-1.22 1.22V3a.75.75 0 0 0-1.5 0v4.19l-1.22-1.22a.75.75 0 1 0-1.06 1.06l2.5 2.5a.75.75 0 0 0 1.06 0m-8.7-3.743a6.5 6.5 0 0 0-4.116.94c-3.299 2.023-4.46 6.54-2.53 10.086q.216.398.468.753a.75.75 0 0 1-1.224.867 9 9 0 0 1-.562-.903c-2.292-4.214-.948-9.622 3.065-12.08a7.98 7.98 0 0 1 6.285-.923.75.75 0 0 1 .416 1.159 5.88 5.88 0 0 0-.358 6.17c1.087 1.998 3.143 2.985 5.127 2.723a.75.75 0 0 1 .823.937 9.1 9.1 0 0 1-1.363 2.919.75.75 0 1 1-1.223-.868c.32-.452.59-.941.803-1.455-2.213-.114-4.312-1.383-5.485-3.54a7.4 7.4 0 0 1-.127-6.784M2 20.25a.75.75 0 0 0 0 1.5h20a.75.75 0 0 0 0-1.5z" clip-rule="evenodd"/></svg>