<svg xmlns="http://www.w3.org/2000/svg" fill="none" viewBox="0 0 24 24"><path fill="currentColor" fill-rule="evenodd" d="M11 2.75a.25.25 0 0 0-.25.25v2c0 .138.112.25.25.25h2a.25.25 0 0 0 .25-.25V3a.25.25 0 0 0-.25-.25zM9.25 3c0-.966.784-1.75 1.75-1.75h2c.966 0 1.75.784 1.75 1.75v2A1.75 1.75 0 0 1 13 6.75h-2A1.75 1.75 0 0 1 9.25 5zM11 18.75a.25.25 0 0 0-.25.25v2c0 .138.112.25.25.25h2a.25.25 0 0 0 .25-.25v-2a.25.25 0 0 0-.25-.25zM9.25 19c0-.966.784-1.75 1.75-1.75h2c.966 0 1.75.784 1.75 1.75v2A1.75 1.75 0 0 1 13 22.75h-2A1.75 1.75 0 0 1 9.25 21zm1.5-8a.25.25 0 0 1 .25-.25h2a.25.25 0 0 1 .25.25v2a.25.25 0 0 1-.25.25h-2a.25.25 0 0 1-.25-.25zM11 9.25A1.75 1.75 0 0 0 9.25 11v2c0 .966.784 1.75 1.75 1.75h2A1.75 1.75 0 0 0 14.75 13v-2A1.75 1.75 0 0 0 13 9.25z" clip-rule="evenodd"/></svg>