<svg xmlns="http://www.w3.org/2000/svg" fill="none" viewBox="0 0 24 24"><path fill="currentColor" fill-rule="evenodd" d="M12.25 10.25V2.76q.605.016 1.208.05a.75.75 0 0 0 .084-1.497A37 37 0 0 0 11.5 1.25c-1.041 0-2.134.059-3.12.135-2.422.188-4.376 2.005-4.697 4.424a50 50 0 0 0-.416 5.032.8.8 0 0 0-.007.28q-.01.436-.01.879c0 2.388.224 4.657.46 6.391.314 2.301 2.128 4.073 4.468 4.242a47 47 0 0 0 6.644 0c2.34-.169 4.154-1.941 4.468-4.242.236-1.734.46-4.003.46-6.391q0-.443-.01-.878a.8.8 0 0 0-.007-.281q-.013-.444-.034-.878a.75.75 0 0 0-1.498.074l.01.213zm6 1.5H4.75V12c0 2.3.216 4.498.446 6.189.222 1.622 1.482 2.832 3.09 2.948.908.065 1.989.113 3.214.113a45 45 0 0 0 3.214-.113c1.608-.116 2.868-1.326 3.09-2.948.23-1.69.446-3.89.446-6.189zm-7.5-1.5H4.79c.068-1.564.219-3.026.38-4.243.226-1.707 1.6-2.992 3.326-3.127a44 44 0 0 1 2.254-.121zm6.75-7a1.75 1.75 0 1 1 0 3.5 1.75 1.75 0 0 1 0-3.5M20.75 5a3.25 3.25 0 1 0-6.5 0 3.25 3.25 0 0 0 6.5 0" clip-rule="evenodd"/></svg>