<svg xmlns="http://www.w3.org/2000/svg" fill="none" viewBox="0 0 24 24"><path fill="currentColor" fill-rule="evenodd" d="M12 1.25a.75.75 0 0 1 .75.75v2.273c2.582.161 4.357 1.17 5.47 2.805 1.178 1.73 1.53 4.042 1.53 6.422s-.352 4.692-1.53 6.422c-1.218 1.789-3.227 2.828-6.22 2.828s-5.002-1.04-6.22-2.828c-1.179-1.73-1.53-4.042-1.53-6.422s.351-4.692 1.53-6.422c1.113-1.635 2.887-2.644 5.47-2.805V2a.75.75 0 0 1 .75-.75m-.75 6.018V5.776c-2.15.154-3.437.981-4.23 2.146-.921 1.353-1.27 3.292-1.27 5.578s.349 4.225 1.27 5.578c.882 1.295 2.373 2.172 4.98 2.172s4.098-.877 4.98-2.172c.921-1.353 1.27-3.292 1.27-5.578s-.349-4.225-1.27-5.578c-.794-1.165-2.08-1.992-4.23-2.146v1.492c.848.121 1.5.85 1.5 1.732v2a1.75 1.75 0 0 1-1.75 1.75h-1A1.75 1.75 0 0 1 9.75 11V9a1.75 1.75 0 0 1 1.5-1.732M12 8.75h-.5a.25.25 0 0 0-.25.25v2c0 .138.112.25.25.25h1a.25.25 0 0 0 .25-.25V9a.25.25 0 0 0-.25-.25z" clip-rule="evenodd"/></svg>