<svg xmlns="http://www.w3.org/2000/svg" fill="none" viewBox="0 0 24 24"><path fill="currentColor" fill-rule="evenodd" d="M6 1.25a.75.75 0 0 1 .75.75v.5c0 .138.112.25.25.25h4c.966 0 1.75.784 1.75 1.75v.775c2.388.163 4.036 1.118 5.073 2.66 1.1 1.639 1.427 3.823 1.427 6.065s-.326 4.426-1.427 6.065C16.68 21.764 14.797 22.75 12 22.75s-4.681-.986-5.823-2.685C5.077 18.426 4.75 16.242 4.75 14s.326-4.426 1.427-6.065c1.037-1.542 2.685-2.497 5.073-2.66V4.5a.25.25 0 0 0-.25-.25H7A1.75 1.75 0 0 1 5.25 2.5V2A.75.75 0 0 1 6 1.25m5.25 5.529c-1.944.154-3.107.92-3.828 1.992C6.574 10.034 6.25 11.85 6.25 14s.324 3.966 1.172 5.229c.81 1.203 2.175 2.021 4.578 2.021s3.769-.818 4.578-2.021c.848-1.263 1.172-3.079 1.172-5.229s-.324-3.966-1.172-5.229C15.857 7.7 14.694 6.933 12.75 6.78v1.489c.848.121 1.5.85 1.5 1.732v2a1.75 1.75 0 0 1-1.75 1.75h-1A1.75 1.75 0 0 1 9.75 12v-2a1.75 1.75 0 0 1 1.5-1.732zm.25 2.971h1a.25.25 0 0 1 .25.25v2a.25.25 0 0 1-.25.25h-1a.25.25 0 0 1-.25-.25v-2a.25.25 0 0 1 .25-.25" clip-rule="evenodd"/></svg>