<svg xmlns="http://www.w3.org/2000/svg" fill="none" viewBox="0 0 24 24"><path fill="currentColor" fill-rule="evenodd" d="M11.25 2.76a46 46 0 0 0-2.254.12c-1.727.135-3.1 1.42-3.326 3.127a49 49 0 0 0-.38 4.243h5.96zm-6 9.24v-.25h13.5V12c0 2.3-.216 4.498-.446 6.189-.222 1.622-1.482 2.832-3.09 2.948A45 45 0 0 1 12 21.25c-1.225 0-2.306-.048-3.214-.113-1.608-.116-2.868-1.326-3.09-2.948-.23-1.69-.446-3.89-.446-6.189m13.08-5.993c.161 1.217.312 2.679.38 4.243h-5.076l4.441-5.182q.188.442.255.939m-1.15-2.199-4.43 5.168V2.76c.759.02 1.531.065 2.254.12.84.066 1.595.403 2.176.928M12 1.25c-1.041 0-2.134.059-3.12.135-2.422.188-4.376 2.005-4.697 4.424C3.957 7.516 3.75 9.703 3.75 12c0 2.388.224 4.657.46 6.391.314 2.301 2.128 4.073 4.468 4.242a47 47 0 0 0 6.644 0c2.34-.169 4.154-1.941 4.468-4.242.236-1.734.46-4.003.46-6.391 0-2.297-.207-4.484-.433-6.19-.32-2.42-2.275-4.237-4.697-4.425A41 41 0 0 0 12 1.25" clip-rule="evenodd"/></svg>