<svg xmlns="http://www.w3.org/2000/svg" fill="none" viewBox="0 0 24 24"><path fill="currentColor" fill-rule="evenodd" d="M11.88 1.26a.8.8 0 0 1 .24 0c1.265.182 3.134.771 4.709 1.968C18.43 4.446 19.75 6.318 19.75 9a10 10 0 0 1-.81 3.92 9 9 0 0 1-.719 1.355l-.419 3.353a5.848 5.848 0 0 1-11.604 0l-.42-3.353a9 9 0 0 1-.718-1.354A10 10 0 0 1 4.25 9c0-2.683 1.319-4.554 2.921-5.772 1.575-1.197 3.444-1.786 4.71-1.969m-.63 1.657c-.977.253-2.156.734-3.171 1.505-1.315 1-2.33 2.461-2.33 4.579a8.5 8.5 0 0 0 .939 3.859c1.207-.886 2.808-1.455 4.561-1.582V9.732A1.75 1.75 0 0 1 9.75 8V6.5a1.75 1.75 0 0 1 1.5-1.732zM12 6.25h-.5a.25.25 0 0 0-.25.25V8c0 .138.112.25.25.25h1a.25.25 0 0 0 .25-.25V6.5a.25.25 0 0 0-.25-.25zm.75 3.482A1.75 1.75 0 0 0 14.25 8V6.5a1.75 1.75 0 0 0-1.5-1.732v-1.85c.977.252 2.156.733 3.171 1.504 1.314.999 2.329 2.46 2.329 4.578a8.5 8.5 0 0 1-.939 3.859c-1.207-.886-2.808-1.455-4.561-1.582zm-5.064 7.71-.394-3.15C8.377 13.374 10.06 12.75 12 12.75s3.623.624 4.708 1.542l-.394 3.15a4.347 4.347 0 0 1-8.628 0" clip-rule="evenodd"/></svg>