<svg xmlns="http://www.w3.org/2000/svg" fill="none" viewBox="0 0 24 24"><path fill="currentColor" fill-rule="evenodd" d="M12.53 1.47a.75.75 0 0 0-1.06 0c-.41.41-1.317.99-2.43 1.547-1.095.547-2.292 1.023-3.222 1.255a.75.75 0 0 0-.489.393C4.778 5.767 3.75 8.882 3.75 12.5c0 3.818 2.2 8.098 7.994 10.205a.75.75 0 0 0 .512 0c5.794-2.107 7.994-6.387 7.994-10.205 0-3.618-1.028-6.733-1.58-7.835a.75.75 0 0 0-.488-.393c-.93-.232-2.127-.708-3.222-1.255-1.113-.557-2.02-1.138-2.43-1.547M5.25 12.5c0-3.07.801-5.732 1.285-6.867.996-.286 2.144-.76 3.175-1.275.54-.27 1.07-.562 1.54-.858v2.768A1.75 1.75 0 0 0 9.75 8v2a1.75 1.75 0 0 0 1.5 1.732V13a.75.75 0 0 0 1.5 0v-1.268A1.75 1.75 0 0 0 14.25 10V8a1.75 1.75 0 0 0-1.5-1.732V3.5c.47.296 1 .589 1.54.858 1.03.516 2.18.989 3.175 1.275.484 1.135 1.285 3.797 1.285 6.867 0 3.13-1.74 6.779-6.75 8.7-5.01-1.921-6.75-5.57-6.75-8.7m7.25-2.25h-1a.25.25 0 0 1-.25-.25V8a.25.25 0 0 1 .25-.25h1a.25.25 0 0 1 .25.25v2a.25.25 0 0 1-.25.25" clip-rule="evenodd"/></svg>