<svg xmlns="http://www.w3.org/2000/svg" fill="none" viewBox="0 0 24 24"><path fill="currentColor" fill-rule="evenodd" d="M11.25 2.76a46 46 0 0 0-2.254.12 3.65 3.65 0 0 0-2.176.928l4.43 5.168zM5.67 6.007q.067-.497.255-.939l4.441 5.182H5.29c.068-1.564.219-3.026.38-4.243m-.42 5.743V12c0 2.3.216 4.498.446 6.189.222 1.622 1.482 2.832 3.09 2.948.908.065 1.989.113 3.214.113a45 45 0 0 0 3.214-.113c1.608-.116 2.868-1.326 3.09-2.948.23-1.69.446-3.89.446-6.189v-.25zm13.46-1.5a49 49 0 0 0-.38-4.243c-.226-1.707-1.6-2.992-3.326-3.127a44 44 0 0 0-2.254-.121v7.49zm-6.71-9c-1.041 0-2.134.059-3.12.135-2.422.188-4.376 2.005-4.697 4.424C3.957 7.516 3.75 9.703 3.75 12c0 2.388.224 4.657.46 6.391.314 2.301 2.128 4.073 4.468 4.242a47 47 0 0 0 6.644 0c2.34-.169 4.154-1.941 4.468-4.242.236-1.734.46-4.003.46-6.391 0-2.297-.207-4.484-.433-6.19-.32-2.42-2.275-4.237-4.697-4.425A41 41 0 0 0 12 1.25" clip-rule="evenodd"/></svg>