<svg xmlns="http://www.w3.org/2000/svg" fill="none" viewBox="0 0 24 24"><path fill="currentColor" fill-rule="evenodd" d="M12.75 2.76v2.508c.848.121 1.5.85 1.5 1.732v2a1.75 1.75 0 0 1-1.5 1.732V12a.75.75 0 0 1-1.5 0v-1.268A1.75 1.75 0 0 1 9.75 9V7a1.75 1.75 0 0 1 1.5-1.732V2.76a46 46 0 0 0-2.254.12c-1.727.135-3.1 1.42-3.326 3.127C5.45 7.67 5.25 9.788 5.25 12c0 2.3.216 4.498.446 6.189.222 1.622 1.482 2.832 3.09 2.948.908.065 1.989.113 3.214.113a45 45 0 0 0 3.214-.113c1.608-.116 2.868-1.326 3.09-2.948.23-1.69.446-3.89.446-6.189 0-2.212-.2-4.33-.42-5.993-.226-1.706-1.599-2.992-3.326-3.126a44 44 0 0 0-2.254-.121M12 1.25c-1.041 0-2.134.059-3.12.135-2.422.188-4.376 2.005-4.697 4.424C3.957 7.516 3.75 9.703 3.75 12c0 2.388.224 4.657.46 6.391.314 2.301 2.128 4.073 4.468 4.242a47 47 0 0 0 6.644 0c2.34-.169 4.154-1.941 4.468-4.242.236-1.734.46-4.003.46-6.391 0-2.297-.207-4.484-.433-6.19-.32-2.42-2.275-4.237-4.697-4.425A41 41 0 0 0 12 1.25m.5 8h-1a.25.25 0 0 1-.25-.25V7a.25.25 0 0 1 .25-.25h1a.25.25 0 0 1 .25.25v2a.25.25 0 0 1-.25.25" clip-rule="evenodd"/></svg>