<svg xmlns="http://www.w3.org/2000/svg" fill="none" viewBox="0 0 24 24"><path fill="currentColor" fill-rule="evenodd" d="M4.5 1.75A2.75 2.75 0 0 0 1.75 4.5v15a2.75 2.75 0 0 0 2.75 2.75h15a2.75 2.75 0 0 0 2.75-2.75v-15a2.75 2.75 0 0 0-2.75-2.75zM3.25 4.5c0-.69.56-1.25 1.25-1.25h15c.69 0 1.25.56 1.25 1.25v15c0 .69-.56 1.25-1.25 1.25h-15c-.69 0-1.25-.56-1.25-1.25zM7 5.75a.75.75 0 0 1 .74.631A2.25 2.25 0 0 1 10.75 8.5V10a.75.75 0 0 1-1.5 0V8.5a.75.75 0 0 0-1.5 0V10a.75.75 0 0 1-1.5 0V6.5A.75.75 0 0 1 7 5.75m6.394 5.138a.25.25 0 0 1 .224-.138H18a.75.75 0 0 0 0-1.5h-4.382a1.75 1.75 0 0 0-1.565.967L9.5 15.323l-.709-1.418a1.75 1.75 0 0 0-2.802-.454l-.52.519a.75.75 0 1 0 1.061 1.06l.52-.519a.25.25 0 0 1 .4.065l1.38 2.76a.75.75 0 0 0 1.34 0z" clip-rule="evenodd"/></svg>