<svg xmlns="http://www.w3.org/2000/svg" fill="none" viewBox="0 0 24 24"><path fill="currentColor" fill-rule="evenodd" d="M3 2.25a.75.75 0 0 1 .72.54 3.2 3.2 0 0 1 1.78-.54c1.815 0 3.25 1.507 3.25 3.321V9a.75.75 0 0 1-1.5 0V5.571c0-1.026-.803-1.821-1.75-1.821s-1.75.795-1.75 1.821V9a.75.75 0 0 1-1.5 0V3A.75.75 0 0 1 3 2.25m9.49 5.674a.25.25 0 0 1 .239-.174H22a.75.75 0 0 0 0-1.5h-9.271c-.76 0-1.433.49-1.666 1.214L7.3 19.17l-2-3.427a1.75 1.75 0 0 0-2.749-.356L1.47 16.47a.75.75 0 0 0 1.06 1.06l1.083-1.082a.25.25 0 0 1 .393.05l2.846 4.88a.75.75 0 0 0 1.362-.148z" clip-rule="evenodd"/></svg>