<svg xmlns="http://www.w3.org/2000/svg" fill="none" viewBox="0 0 24 24"><path fill="currentColor" fill-rule="evenodd" d="M12 22.75C6.07 22.75 1.25 17.93 1.25 12S6.07 1.25 12 1.25 22.75 6.07 22.75 12 17.93 22.75 12 22.75m0-20C6.9 2.75 2.75 6.9 2.75 12S6.9 21.25 12 21.25s9.25-4.15 9.25-9.25S17.1 2.75 12 2.75m-4.43 15.5c-.47 0-.93-.19-1.28-.53a1.8 1.8 0 0 1-.39-1.97l2.25-5.46c.4-.97 1.16-1.74 2.14-2.15l5.46-2.25a1.8 1.8 0 0 1 1.97.4c.52.52.67 1.29.39 1.97l-2.25 5.46c-.4.97-1.16 1.74-2.14 2.15l-5.46 2.25c-.22.09-.46.14-.69.14zm8.74-10.98-5.46 2.25c-.61.25-1.08.73-1.33 1.33l-2.25 5.46c-.07.17.01.29.07.34s.18.14.34.07l5.46-2.25c.61-.25 1.08-.73 1.33-1.33l2.25-5.46c.07-.17-.01-.29-.07-.34s-.17-.14-.34-.07M11 12.01c0 .55.45 1 1 1v.01c.55 0 1-.45 1-1.01s-.45-1-1-1-1 .45-1 1" clip-rule="evenodd"/></svg>