<svg xmlns="http://www.w3.org/2000/svg" fill="none" viewBox="0 0 24 24"><path fill="currentColor" fill-rule="evenodd" d="M9.063 3.226a9 9 0 0 0-1.225.51.75.75 0 1 1-.676-1.338A10.7 10.7 0 0 1 12 1.25c5.937 0 10.75 4.813 10.75 10.75a10.7 10.7 0 0 1-1.148 4.838.75.75 0 1 1-1.34-.676c.526-1.04.86-2.192.958-3.412H16a.75.75 0 0 1-.75-.75c0-2.69-.437-5.092-1.118-6.793-.34-.852-.728-1.492-1.12-1.906-.39-.412-.732-.551-1.012-.551-.295 0-.684.154-1.117.586-.428.428-.848 1.083-1.184 1.938a.75.75 0 0 1-1.396-.548 8.4 8.4 0 0 1 .76-1.5m5.73-.047c.273.438.517.934.732 1.471.699 1.748 1.141 4.06 1.214 6.6h4.481a9.26 9.26 0 0 0-6.427-8.071M5.53 4.47l17 17a.75.75 0 0 1-1.06 1.06l-2.407-2.406A10.76 10.76 0 0 1 12 22.75c-5.931 0-10.75-4.77-10.75-10.667 0-2.714 1.021-5.19 2.7-7.072l-2.48-2.48A.75.75 0 0 1 2.53 1.47zm-.518 1.604a9.1 9.1 0 0 0-2.225 5.176H7.26q.02-.673.072-1.32.058-.71.154-1.382zM8.84 9.902q-.059.658-.08 1.348h1.428zm2.848 2.848H8.761q.012.366.033.724c.128 2.089.52 3.935 1.074 5.319.34.852.728 1.492 1.12 1.906.28.295.534.45.759.514.084.024.19.036.266.037.4-.007.92-.315 1.466-1.292.535-.955.98-2.363 1.282-4.087l.009-.04zm4.358 4.357c-.309 1.404-.729 2.637-1.259 3.584l-.095.165A9.3 9.3 0 0 0 18 19.06zM8.474 19.35a9.3 9.3 0 0 0 .736 1.476c-3.543-1.109-6.16-4.274-6.437-8.076H7.26c.073 2.54.515 4.852 1.214 6.6" clip-rule="evenodd"/></svg>