<svg xmlns="http://www.w3.org/2000/svg" fill="none" viewBox="0 0 24 24"><path fill="currentColor" fill-rule="evenodd" d="M1.25 3c0-.966.784-1.75 1.75-1.75h4.999c.966 0 1.75.784 1.75 1.75v4a1.75 1.75 0 0 1-1.75 1.75H6.25v3h4v-.25c0-.966.784-1.75 1.75-1.75h2c.966 0 1.75.784 1.75 1.75v2A1.75 1.75 0 0 1 14 15.25h-2a1.75 1.75 0 0 1-1.75-1.75v-.25h-4V18c0 .69.56 1.25 1.25 1.25h2.75V19c0-.966.784-1.75 1.75-1.75h2c.966 0 1.75.784 1.75 1.75v2A1.75 1.75 0 0 1 14 22.75h-2A1.75 1.75 0 0 1 10.25 21v-.25H7.5A2.75 2.75 0 0 1 4.75 18V8.75H3A1.75 1.75 0 0 1 1.25 7zM3 2.75a.25.25 0 0 0-.25.25v4c0 .138.112.25.25.25h4.999a.25.25 0 0 0 .25-.25V3a.25.25 0 0 0-.25-.25zm9 8.5a.25.25 0 0 0-.25.25v2c0 .138.112.25.25.25h2a.25.25 0 0 0 .25-.25v-2a.25.25 0 0 0-.25-.25zM11.75 19a.25.25 0 0 1 .25-.25h2a.25.25 0 0 1 .25.25v2a.25.25 0 0 1-.25.25h-2a.25.25 0 0 1-.25-.25zM18 11.75a.75.75 0 0 0 0 1.5h1.25v6.94l-.72-.72a.75.75 0 1 0-1.06 1.06l2 2a.75.75 0 0 0 1.06 0l2-2a.75.75 0 1 0-1.06-1.06l-.72.72V12.5a.75.75 0 0 0-.75-.75z" clip-rule="evenodd"/></svg>