<svg xmlns="http://www.w3.org/2000/svg" fill="none" viewBox="0 0 24 24"><path fill="currentColor" fill-rule="evenodd" d="M4.53 1.47a.75.75 0 0 0-1.06 1.06L5.44 4.5 3.47 6.47a.75.75 0 0 0 1.06 1.06L6.5 5.56l1.97 1.97a.75.75 0 0 0 1.06-1.06L7.56 4.5l1.97-1.97a.75.75 0 0 0-1.06-1.06L6.5 3.44zM6.5 8.25a.75.75 0 0 1 .75.75v1.75h5.5V10c0-.966.784-1.75 1.75-1.75h4c.966 0 1.75.784 1.75 1.75v3a1.75 1.75 0 0 1-1.75 1.75h-4A1.75 1.75 0 0 1 12.75 13v-.75h-5.5v5.25c0 .69.56 1.25 1.25 1.25h4.25V18c0-.966.784-1.75 1.75-1.75h4c.966 0 1.75.784 1.75 1.75v3a1.75 1.75 0 0 1-1.75 1.75h-4A1.75 1.75 0 0 1 12.75 21v-.75H8.5a2.75 2.75 0 0 1-2.75-2.75V9a.75.75 0 0 1 .75-.75m8 5a.25.25 0 0 1-.25-.25v-3a.25.25 0 0 1 .25-.25h4a.25.25 0 0 1 .25.25v3a.25.25 0 0 1-.25.25zm0 8a.25.25 0 0 1-.25-.25v-3a.25.25 0 0 1 .25-.25h4a.25.25 0 0 1 .25.25v3a.25.25 0 0 1-.25.25z" clip-rule="evenodd"/></svg>