<svg xmlns="http://www.w3.org/2000/svg" fill="none" viewBox="0 0 24 24"><path fill="currentColor" fill-rule="evenodd" d="M6.75 2a.75.75 0 0 0-1.5 0v.75H4.5A2.75 2.75 0 0 0 1.75 5.5V20a2.75 2.75 0 0 0 2.75 2.75H13a.75.75 0 0 0 0-1.5H4.5c-.69 0-1.25-.56-1.25-1.25V5.5c0-.69.56-1.25 1.25-1.25h.75v.25a.75.75 0 0 0 1.5 0v-.25h3.5v.25a.75.75 0 0 0 1.5 0v-.25h3.5v.25a.75.75 0 0 0 1.5 0v-.25h.75c.69 0 1.25.56 1.25 1.25V11a.75.75 0 0 0 1.5 0V5.5a2.75 2.75 0 0 0-2.75-2.75h-.75V2a.75.75 0 0 0-1.5 0v.75h-3.5V2a.75.75 0 0 0-1.5 0v.75h-3.5zm12 12a.75.75 0 0 0-1.5 0v2.75H14.5a.75.75 0 0 0 0 1.5h2.75V21a.75.75 0 0 0 1.5 0v-2.75h2.75a.75.75 0 0 0 0-1.5h-2.75zM7.5 10.25a.75.75 0 0 0 0 1.5h7a.75.75 0 0 0 0-1.5zm0 5a.75.75 0 0 0 0 1.5h3a.75.75 0 0 0 0-1.5z" clip-rule="evenodd"/></svg>