<svg xmlns="http://www.w3.org/2000/svg" fill="none" viewBox="0 0 24 24"><path fill="currentColor" fill-rule="evenodd" d="M15.75 5.5a2.75 2.75 0 1 1 5.5 0 2.75 2.75 0 0 1-5.5 0m2.75-4.25a4.25 4.25 0 1 0 0 8.5 4.25 4.25 0 0 0 0-8.5M2.75 5.111c0-.752.61-1.361 1.361-1.361H12a.75.75 0 0 0 0-1.5H4.111A2.86 2.86 0 0 0 1.25 5.111V19.89a2.86 2.86 0 0 0 2.861 2.861H18.89a2.86 2.86 0 0 0 2.861-2.861V12a.75.75 0 0 0-1.5 0v7.889c0 .752-.61 1.361-1.361 1.361H4.11c-.752 0-1.361-.61-1.361-1.361zM6.25 11a.75.75 0 0 1 .75-.75h4a.75.75 0 0 1 0 1.5H7a.75.75 0 0 1-.75-.75M7 15.25a.75.75 0 0 0 0 1.5h8a.75.75 0 0 0 0-1.5z" clip-rule="evenodd"/></svg>