<svg xmlns="http://www.w3.org/2000/svg" fill="none" viewBox="0 0 24 24"><path fill="currentColor" fill-rule="evenodd" d="M5.01 4.133A1.5 1.5 0 0 1 4.816 4c.042-.034.103-.08.194-.133.316-.186.823-.38 1.515-.554C7.898 2.97 9.834 2.75 12 2.75s4.102.22 5.475.563c.692.173 1.199.368 1.515.554q.133.082.194.133c-.042.034-.103.08-.194.133-.316.186-.823.38-1.515.554-1.373.343-3.309.563-5.475.563s-4.102-.22-5.475-.563c-.692-.173-1.199-.368-1.515-.554M12 1.25c-2.252 0-4.316.227-5.839.608-.755.19-1.42.426-1.914.718-.444.262-.997.719-.997 1.424s.553 1.162.997 1.424l.003.002v4.744c-.565.463-1 1.074-1 1.83 0 .706.384 1.288.881 1.729q.058.051.119.101v3.34c-.565.463-1 1.074-1 1.83 0 .706.384 1.288.881 1.729.498.441 1.176.805 1.949 1.095 1.551.581 3.645.926 5.92.926s4.369-.345 5.92-.926c.773-.29 1.451-.654 1.949-1.095.497-.44.881-1.023.881-1.729 0-.756-.435-1.367-1-1.83v-3.34l.119-.101c.497-.44.881-1.006.881-1.729 0-.756-.435-1.367-1-1.83V5.426l.003-.002c.444-.262.997-.719.997-1.424s-.553-1.162-.997-1.424c-.494-.292-1.159-.529-1.914-.718-1.523-.38-3.587-.608-5.839-.608m6.25 13.443a10 10 0 0 1-.33.13c-1.552.582-3.645.927-5.92.927s-4.369-.345-5.92-.926a9 9 0 0 1-.33-.131v2.854a.75.75 0 0 1-.33.62c-.558.378-.67.677-.67.833 0 .123.064.33.376.607s.806.56 1.48.812c1.344.504 3.251.831 5.394.831s4.05-.327 5.393-.83c.675-.254 1.169-.537 1.48-.814.313-.277.377-.483.377-.606 0-.156-.112-.455-.67-.832a.75.75 0 0 1-.33-.621zm-12.5-4.146V6.032q.2.057.411.11c1.523.38 3.587.608 5.839.608s4.316-.227 5.839-.608q.21-.053.411-.11v4.515c0 .249.124.481.33.62.558.378.67.677.67.833 0 .123-.064.33-.376.607s-.806.56-1.48.812c-1.344.504-3.251.831-5.394.831s-4.05-.327-5.394-.83c-.674-.254-1.168-.537-1.48-.813-.312-.278-.376-.484-.376-.607 0-.156.112-.455.67-.832a.75.75 0 0 0 .33-.621m5.719-2.576V7.97a.75.75 0 0 1 1.061 0h.001l.002.002.005.005.015.016a8 8 0 0 1 .239.255c.15.168.353.404.558.677.203.27.418.591.586.927.162.324.314.728.314 1.148a2.25 2.25 0 0 1-4.5 0c0-.42.152-.824.314-1.148a6 6 0 0 1 .586-.927 10 10 0 0 1 .797-.932l.016-.016.004-.005zM12 9.63q-.075.093-.15.193a5 5 0 0 0-.445.698c-.12.239-.155.397-.155.477a.75.75 0 1 0 1.5 0c0-.08-.036-.238-.155-.477a5 5 0 0 0-.445-.698q-.075-.1-.15-.193" clip-rule="evenodd"/></svg>