<svg xmlns="http://www.w3.org/2000/svg" fill="none" viewBox="0 0 24 24"><path fill="currentColor" fill-rule="evenodd" d="M10.695 1.315a.75.75 0 0 1 .61 0l9 4A.75.75 0 0 1 20.75 6v4.5a.75.75 0 0 1-1.5 0V7.154l-7.504 3.335v10.357l.634-.281a.75.75 0 1 1 .609 1.37l-1.688.75a.75.75 0 0 1-.61 0l-8.996-4A.75.75 0 0 1 1.25 18V6a.75.75 0 0 1 .461-.692zM2.75 7.155v10.358l7.496 3.333v-10.36zm5.344.733L11 9.179 18.153 6l-2.905-1.291zm-1.846-.82L3.847 6 11 2.82l2.4 1.068zm16.232 6.356a.75.75 0 0 1 .096 1.056l-5 6a.75.75 0 0 1-1.106.05l-2.5-2.5a.75.75 0 1 1 1.06-1.06l1.92 1.919 4.474-5.37a.75.75 0 0 1 1.056-.095m-18.15-1.76a.75.75 0 0 1 1.006-.335l2 1a.75.75 0 0 1-.671 1.342l-2-1a.75.75 0 0 1-.336-1.006" clip-rule="evenodd"/></svg>