<svg xmlns="http://www.w3.org/2000/svg" fill="none" viewBox="0 0 24 24"><path fill="currentColor" fill-rule="evenodd" d="M22 2.367c-.41 0-.75.34-.75.75v.25H8.75v-.25c0-.41-.34-.75-.75-.75s-.75.34-.75.75v2c0 .41.34.75.75.75s.75-.34.75-.75v-.25h12.5v.25c0 .41.34.75.75.75s.75-.34.75-.75v-2c0-.41-.34-.75-.75-.75m.66 7.418a.6.6 0 0 0-.11-.16l-.018-.02a.1.1 0 0 0-.032-.03.6.6 0 0 0-.21-.14l-7-3a.76.76 0 0 0-.59 0l-7 3a.8.8 0 0 0-.21.15l-.018.02q-.014.02-.032.03c-.04.05-.08.1-.11.16l-.015.035-.015.035c-.03.08-.05.17-.05.26v10c0 .3.18.57.45.69l6.98 2.99s.1.04.16.05q.031.005.068.006c.036 0 .07.002.082.014 0 0 .1 0 .15-.02a1 1 0 0 0 .16-.05l6.98-2.99c.28-.12.45-.39.45-.69v-10.01c0-.09-.02-.18-.05-.26 0-.015-.012-.036-.022-.054l-.008-.016zM15 7.935l1.6.68-5.1 2.18-1.6-.68zm-6.25 11.68v-8.37l2 .86v2.01c0 .41.34.75.75.75s.75-.34.75-.75v-1.36l2 .86v8.36zm6.25-7.32-1.6-.68 5.1-2.18 1.6.68zm.75 9.69v-8.37l5.5-2.36v8.37zm-9-13.868c0 .41-.34.75-.75.75h-.25v12.5H6c.41 0 .75.34.75.75s-.34.75-.75.75H4c-.41 0-.75-.34-.75-.75s.34-.75.75-.75h.25v-12.5H4c-.41 0-.75-.34-.75-.75s.34-.75.75-.75h2c.41 0 .75.34.75.75" clip-rule="evenodd"/></svg>