<svg xmlns="http://www.w3.org/2000/svg" fill="none" viewBox="0 0 24 24"><path fill="currentColor" fill-rule="evenodd" d="m12.65 1.378 8.33 3.45v.01c.47.2.77.66.77 1.17v12c0 .51-.3.97-.77 1.16l-8.33 3.45c-.2.09-.43.13-.65.13s-.44-.04-.65-.13l-8.33-3.45c-.46-.19-.77-.65-.77-1.16V5.998c0-.52.3-.98.77-1.17l8.33-3.45c.42-.17.88-.17 1.3 0m-.73 7.85c.05.02.11.02.16 0v-.01l7.8-3.23-3.12-1.29-7.61 3.38zm.16-6.46a.22.22 0 0 0-.16 0v.01l-7.8 3.23 3.12 1.29 7.61-3.38zm-8.33 4.69v10.38l7.5 3.11v-10.38l-3-1.24v1.16c0 .41-.34.75-.75.75s-.75-.34-.75-.75v-1.79zm9 3.12v10.37l7.5-3.1V7.467zM5.8 12.305l3.5 1.5c.27.12.45.39.45.69v3c0 .26-.13.49-.34.63-.12.08-.27.12-.41.12q-.15 0-.3-.06l-3.5-1.5a.76.76 0 0 1-.45-.69v-3a.752.752 0 0 1 1.05-.69m.45 3.19 2 .86v-1.37l-2-.86z" clip-rule="evenodd"/></svg>