<svg xmlns="http://www.w3.org/2000/svg" fill="none" viewBox="0 0 24 24"><path fill="currentColor" fill-rule="evenodd" d="M12 1.25C6.063 1.25 1.25 6.063 1.25 12S6.063 22.75 12 22.75l.175.002c.36.005.899.013 1.343-.111.288-.08.614-.233.864-.534.258-.309.368-.693.368-1.107 0-.862-.424-1.49-.732-1.948l-.002-.003c-.246-.365-.403-.605-.474-.86-.057-.206-.067-.462.129-.854.244-.487.514-.674.868-.778.436-.128 1.003-.132 1.895-.132.856 0 1.949-.008 3.172-.183 1.205-.172 2.064-.657 2.575-1.5.478-.786.574-1.766.574-2.742 0-5.938-4.818-10.75-10.755-10.75M2.75 12A9.25 9.25 0 0 1 12 2.75c5.11 0 9.255 4.142 9.255 9.25 0 .933-.106 1.552-.356 1.964-.215.355-.609.665-1.505.793-1.11.16-2.112.168-2.96.168h-.097c-.78 0-1.559-.001-2.22.192-.77.226-1.365.702-1.788 1.548-.352.703-.395 1.34-.232 1.925.14.506.43.933.641 1.247l.035.051c.32.476.477.757.477 1.112a.4.4 0 0 1-.02.147.3.3 0 0 1-.117.05c-.11.03-.262.048-.467.054-.137.004-.261.002-.397 0L12 21.25A9.25 9.25 0 0 1 2.75 12m4.515 3.967a1 1 0 0 0-.512-1.933l-.009.002a1 1 0 0 0 .512 1.933zM9.5 7.75a.75.75 0 1 0 0 1.5.75.75 0 0 0 0-1.5m-2.25.75a2.25 2.25 0 1 1 4.5 0 2.25 2.25 0 0 1-4.5 0m8.5 1a.75.75 0 1 1 1.5 0 .75.75 0 0 1-1.5 0m.75-2.25a2.25 2.25 0 1 0 0 4.5 2.25 2.25 0 0 0 0-4.5" clip-rule="evenodd"/></svg>