<svg xmlns="http://www.w3.org/2000/svg" fill="none" viewBox="0 0 24 24"><path fill="currentColor" fill-rule="evenodd" d="M3 1.25a.75.75 0 0 1 .75.75c0 4.029.982 7.64 2.53 10.22 1.371 2.285 3.123 3.671 4.97 3.968V3.81l-1.22 1.22a.75.75 0 1 1-1.06-1.06l2.5-2.5a.75.75 0 0 1 1.06 0l2.5 2.5a.75.75 0 0 1-1.06 1.06l-1.22-1.22v12.378c1.847-.297 3.599-1.683 4.97-3.969C19.27 9.64 20.25 6.03 20.25 2a.75.75 0 0 1 1.5 0c0 4.254-1.033 8.142-2.743 10.991-1.55 2.583-3.725 4.408-6.257 4.712V22a.75.75 0 0 1-1.5 0v-4.297c-2.532-.304-4.707-2.13-6.257-4.712C3.283 10.141 2.25 6.254 2.25 2A.75.75 0 0 1 3 1.25M2.75 20a.75.75 0 0 1 .75-.75h1a.75.75 0 0 1 0 1.5h-1a.75.75 0 0 1-.75-.75m4 0a.75.75 0 0 1 .75-.75h1a.75.75 0 0 1 0 1.5h-1a.75.75 0 0 1-.75-.75m8 0a.75.75 0 0 1 .75-.75h1a.75.75 0 0 1 0 1.5h-1a.75.75 0 0 1-.75-.75m4 0a.75.75 0 0 1 .75-.75h1a.75.75 0 0 1 0 1.5h-1a.75.75 0 0 1-.75-.75" clip-rule="evenodd"/></svg>