<svg xmlns="http://www.w3.org/2000/svg" fill="none" viewBox="0 0 24 24"><path fill="currentColor" fill-rule="evenodd" d="M4 2.75c-.69 0-1.25.56-1.25 1.25v.5a.75.75 0 0 1-1.5 0V4A2.75 2.75 0 0 1 4 1.25h.5a.75.75 0 0 1 0 1.5zM6.75 2a.75.75 0 0 1 .75-.75h2a.75.75 0 1 1 0 1.5h-2A.75.75 0 0 1 6.75 2m5 0a.75.75 0 0 1 .75-.75h.5A2.75 2.75 0 0 1 15.75 4v1a.75.75 0 0 1-1.5 0V4c0-.69-.56-1.25-1.25-1.25h-.5a.75.75 0 0 1-.75-.75M2 6.75a.75.75 0 0 1 .75.75v2a.75.75 0 0 1-1.5 0v-2A.75.75 0 0 1 2 6.75m0 5a.75.75 0 0 1 .75.75v.5c0 .69.56 1.25 1.25 1.25h1.5a.75.75 0 0 1 0 1.5H4A2.75 2.75 0 0 1 1.25 13v-.5a.75.75 0 0 1 .75-.75M8.25 11A2.75 2.75 0 0 1 11 8.25h4a.75.75 0 0 1 .75.75v3.999a2.75 2.75 0 0 1-2.75 2.75l-4 .001a.75.75 0 0 1-.75-.75zM11 9.75c-.69 0-1.25.56-1.25 1.25v3.25l3.25-.001c.69 0 1.25-.56 1.25-1.25V9.75zm7.5 0H20c.69 0 1.25.56 1.25 1.25v9c0 .69-.56 1.25-1.25 1.25h-9c-.69 0-1.25-.56-1.25-1.25v-1.5a.75.75 0 0 0-1.5 0V20A2.75 2.75 0 0 0 11 22.75h9A2.75 2.75 0 0 0 22.75 20v-9A2.75 2.75 0 0 0 20 8.25h-1.5a.75.75 0 0 0 0 1.5" clip-rule="evenodd"/></svg>