<svg xmlns="http://www.w3.org/2000/svg" fill="none" viewBox="0 0 24 24"><path fill="currentColor" fill-rule="evenodd" d="M12 1.25A6.75 6.75 0 0 0 5.25 8v6.25H3.5a.75.75 0 0 0-.416.126l-1.5 1a.75.75 0 1 0 .832 1.248l1.311-.874h.523v5.5H3a.75.75 0 0 0 0 1.5h18a.75.75 0 0 0 0-1.5h-1.25v-5.5h.523l1.311.874a.75.75 0 1 0 .832-1.248l-1.5-1a.75.75 0 0 0-.416-.126h-1.75V8A6.75 6.75 0 0 0 12 1.25m5.25 13V8q0-.126-.006-.25H6.756A5 5 0 0 0 6.75 8v6.25zm-10.201-8H10.5L8.731 3.892A5.26 5.26 0 0 0 7.05 6.25m2.986-3.12L12 5.75l1.965-2.62A5.2 5.2 0 0 0 12 2.75c-.695 0-1.358.135-1.965.38m5.234.762L13.5 6.25h3.451a5.26 5.26 0 0 0-1.682-2.358M6 15.75h-.25v5.5h3v-5.5zm4.25 0v5.5h3.5v-5.5zm5 0v5.5h3v-5.5z" clip-rule="evenodd"/></svg>