<svg xmlns="http://www.w3.org/2000/svg" fill="none" viewBox="0 0 24 24"><path fill="currentColor" fill-rule="evenodd" d="M2.987 1.25a.75.75 0 0 0 0 1.5h1.45a.25.25 0 0 1 .216.124l.51.878L2 3.753a.75.75 0 1 0 0 1.5l4.41-.002a1 1 0 0 0 .115 0h.377l-.343.843a.25.25 0 0 1-.232.156H5.013a.75.75 0 0 0 0 1.5h1.314a1.75 1.75 0 0 0 1.621-1.09l.574-1.41h.905c.275.599.868 1.042 1.584 1.042 1.005 0 1.739-.865 1.739-1.792 0-.929-.736-1.79-1.739-1.79-.715 0-1.309.441-1.584 1.04l-2.53.001-.947-1.63a1.75 1.75 0 0 0-1.513-.871zM10.76 4.5a.3.3 0 0 1 .087-.212.23.23 0 0 1 .163-.079c.046 0 .1.02.153.075a.32.32 0 0 1 .086.216c0 .08-.033.16-.086.217a.2.2 0 0 1-.153.075.23.23 0 0 1-.162-.08.3.3 0 0 1-.088-.212m8.175 2.647a1.355 1.355 0 1 1 1.917 1.917l-.864.864-1.917-1.917zm2.978 2.977-1.286 1.286a.8.8 0 0 1-.218.218l-8.938 8.938a5.7 5.7 0 0 1-2.654 1.503l-2.636.659a.75.75 0 0 1-.91-.91l.66-2.636a5.7 5.7 0 0 1 1.502-2.654l8.938-8.938a.8.8 0 0 1 .218-.218l1.286-1.286a2.855 2.855 0 0 1 4.038 4.038M17.01 9.072l1.917 1.917-8.516 8.516c-.54.54-1.217.923-1.957 1.108l-1.424.356.356-1.424a4.2 4.2 0 0 1 1.108-1.957z" clip-rule="evenodd"/></svg>