<svg xmlns="http://www.w3.org/2000/svg" fill="none" viewBox="0 0 24 24"><path fill="currentColor" fill-rule="evenodd" d="M6 21.75a.75.75 0 0 0 .75-.75v-7.786l1.914.957a.75.75 0 0 0 .67 0l1.916-.958V21a.75.75 0 0 0 1.5 0v-7.786l1.914.957a.75.75 0 0 0 .67 0l1.916-.958V21a.75.75 0 0 0 1.5 0v-9a.75.75 0 0 0-.126-.416l-6-9a.75.75 0 0 0-1.248 0l-6 9A.75.75 0 0 0 5.25 12v9c0 .414.336.75.75.75m10.905-10.041L12 4.352 7.095 11.71 9 12.662l2.665-1.333a.7.7 0 0 1 .333-.079H12c.13 0 .25.033.357.09L15 12.662z" clip-rule="evenodd"/></svg>