<svg xmlns="http://www.w3.org/2000/svg" fill="none" viewBox="0 0 24 24"><path fill="currentColor" fill-rule="evenodd" d="M5 2.75c-.69 0-1.25.56-1.25 1.25v6a.75.75 0 1 1-1.5 0V4A2.75 2.75 0 0 1 5 1.25h7A2.75 2.75 0 0 1 14.75 4v3.25H20A2.75 2.75 0 0 1 22.75 10v11a.75.75 0 0 1-.75.75h-8a.75.75 0 0 1-.75-.75V4c0-.69-.56-1.25-1.25-1.25zm9.75 6v11.5h6.5V10c0-.69-.56-1.25-1.25-1.25zM6 5.25a.75.75 0 0 0 0 1.5h1a.75.75 0 0 0 0-1.5zm4 0a.75.75 0 0 0 0 1.5h1a.75.75 0 0 0 0-1.5zm-4 3a.75.75 0 0 0 0 1.5h1a.75.75 0 0 0 0-1.5zm4 0a.75.75 0 0 0 0 1.5h1a.75.75 0 0 0 0-1.5zm7.5 2a.75.75 0 0 0 0 1.5h1a.75.75 0 0 0 0-1.5zm0 4a.75.75 0 0 0 0 1.5h1a.75.75 0 0 0 0-1.5zM4.75 14a1.25 1.25 0 1 1 2.5 0 1.25 1.25 0 0 1-2.5 0M6 11.25a2.75 2.75 0 1 0 0 5.5 2.75 2.75 0 0 0 0-5.5m0 7.5a3.25 3.25 0 0 1 3.163 2.5H2.837A3.25 3.25 0 0 1 6 18.75m0-1.5A4.75 4.75 0 0 0 1.25 22c0 .414.336.75.75.75h8a.75.75 0 0 0 .75-.75A4.75 4.75 0 0 0 6 17.25" clip-rule="evenodd"/></svg>