<svg xmlns="http://www.w3.org/2000/svg" fill="none" viewBox="0 0 24 24"><path fill="currentColor" fill-rule="evenodd" d="M16.25 15.47v5.499h.25c.41 0 .75.34.75.75s-.34.75-.75.75h-14c-.41 0-.75-.34-.75-.75s.34-.75.75-.75h.25V4.719c0-1.52 1.23-2.75 2.75-2.75h8c1.52 0 2.75 1.23 2.75 2.75v9.25h.25c1.52 0 2.75 1.23 2.75 2.75v.5c0 .41.34.75.75.75s.75-.34.75-.75v-5.19l-.78-.78a.75.75 0 0 1-.22-.53V8.03l-1.78-1.78a.754.754 0 0 1 0-1.06c.29-.29.77-.29 1.06 0l3 3c.14.14.22.33.22.53v8.5c0 1.24-1.01 2.25-2.25 2.25s-2.25-1.01-2.25-2.25v-.5c0-.69-.56-1.25-1.25-1.25zm-1.5-.75v-3.251H4.25v9.5h10.5zm0-4.751v-5.25c0-.69-.56-1.25-1.25-1.25h-8c-.69 0-1.25.56-1.25 1.25v5.25z" clip-rule="evenodd"/></svg>