<svg xmlns="http://www.w3.org/2000/svg" fill="none" viewBox="0 0 24 24"><path fill="currentColor" fill-rule="evenodd" d="M12.25 11.75v-8.5c2.17-.014 4.343.756 6.02 2.419 1.675 1.658 2.48 3.864 2.48 6.081zm7.076-7.147c-2.197-2.177-5.101-3.047-7.888-2.817a.75.75 0 0 0-.688.747V12.5c0 .414.336.75.75.75h9.972a.75.75 0 0 0 .748-.694c.214-2.835-.7-5.78-2.894-7.953m-10.97-.416a.75.75 0 0 0-.6-1.374C1.25 5.658-.27 14.501 4.673 19.397c5.047 5 13.814 3.131 16.518-3.277a.75.75 0 0 0-1.382-.584c-2.299 5.448-9.801 7.035-14.08 2.795C1.527 14.17 2.84 6.601 8.357 4.187" clip-rule="evenodd"/></svg>