<svg xmlns="http://www.w3.org/2000/svg" fill="none" viewBox="0 0 24 24"><path fill="currentColor" fill-rule="evenodd" d="M4.5 1.251c-1.52 0-2.75 1.23-2.75 2.75v15c0 1.52 1.23 2.75 2.75 2.75H11c.41 0 .75-.34.75-.75s-.34-.75-.75-.75H9.25v-11.5h11.5v3.75c0 .41.34.75.75.75s.75-.34.75-.75v-8.5c0-1.52-1.23-2.75-2.75-2.75zm-1.25 17.75V8.752h4.5v11.5H4.5c-.69 0-1.25-.56-1.25-1.25m0-11.75h4.5v-4.5H4.5c-.69 0-1.25.56-1.25 1.25zm17.5 0H9.25v-4.5H19.5c.69 0 1.25.56 1.25 1.25zm1.5 8.25c0-.41-.34-.75-.75-.75s-.75.34-.75.75v2c0 .69-.56 1.25-1.25 1.25h-3.69l1.22-1.22c.29-.29.29-.77 0-1.06a.754.754 0 0 0-1.06 0l-2.5 2.5c-.29.29-.29.77 0 1.06l2.5 2.5c.29.29.77.29 1.06 0s.29-.77 0-1.06l-1.22-1.22h3.69c1.52 0 2.75-1.23 2.75-2.75z" clip-rule="evenodd"/></svg>