<svg xmlns="http://www.w3.org/2000/svg" fill="none" viewBox="0 0 24 24"><path fill="currentColor" fill-rule="evenodd" d="M13.295 22.656c-.47 0-.93-.17-1.3-.49l-.011-.01c-.37.32-.83.49-1.299.49v.01c-.1 0-.2 0-.3-.02-2.68-.4-5.09-1.8-6.8-3.92a1.99 1.99 0 0 1-.4-1.63c-.56-.2-.99-.61-1.2-1.16-.49-1.24-.74-2.56-.74-3.93s.25-2.69.74-3.93c.21-.54.64-.96 1.2-1.15l.01-.004a2 2 0 0 1 .39-1.616c1.71-2.13 4.12-3.52 6.8-3.93a1.97 1.97 0 0 1 1.605.466 1.95 1.95 0 0 1 1.595-.456c2.69.4 5.1 1.8 6.8 3.92a1.97 1.97 0 0 1 .402 1.61l.027.01c.56.2.98.61 1.2 1.16.49 1.24.74 2.56.74 3.92s-.25 2.69-.74 3.93c-.21.54-.64.96-1.2 1.15l-.018.006a1.94 1.94 0 0 1-.411 1.614c-1.69 2.12-4.1 3.52-6.79 3.92-.1.02-.2.02-.3.02zm5.752-13.874.668-.386.065-.038a.74.74 0 0 1 .524-.032c.14.05.24.15.3.29.43 1.07.64 2.2.64 3.38s-.22 2.31-.64 3.38a.48.48 0 0 1-.3.29.68.68 0 0 1-.496-.02l-.083-.05-.68-.392v-.008a7.7 7.7 0 0 0 .002-6.414m.038-1.742a.66.66 0 0 0 .23-.384c.02-.1.02-.26-.1-.41a9.2 9.2 0 0 0-5.85-3.38.5.5 0 0 0-.4.12.7.7 0 0 0-.222.42l.002.09v.8a7.77 7.77 0 0 1 5.544 3.201l.695-.401q.05-.03.101-.056m-2.097 1.207a6.24 6.24 0 0 0-4.243-2.441v4.887zm-5.753-2.45a6.36 6.36 0 0 0-4.239 2.448l4.239 2.443zm-.743 6.208L6.244 9.556c-.33.77-.5 1.6-.5 2.45s.17 1.69.5 2.45l2.057-1.185zm-5.558 3.21a7.7 7.7 0 0 1 .01-6.399l-.68-.39a.7.7 0 0 0-.37-.1v-.02c-.07 0-.14.01-.21.04a.48.48 0 0 0-.3.29c-.42 1.07-.64 2.2-.64 3.38s.21 2.31.64 3.38c.06.14.16.24.3.29a.73.73 0 0 0 .444-.002q.061-.04.127-.078zm.767 1.289-.006.012-.68.39a.68.68 0 0 0-.34.46c-.02.11-.02.26.1.41a9.18 9.18 0 0 0 5.84 3.37c.2.03.33-.05.41-.12a.7.7 0 0 0 .222-.423l-.002-.107v-.791A7.77 7.77 0 0 1 5.708 16.5zm1.295-.747a6.24 6.24 0 0 0 4.249 2.449v-4.898zM5.004 7.096l.685.395a7.8 7.8 0 0 1 5.546-3.205v-.79c0-.21-.09-.4-.23-.53a.5.5 0 0 0-.33-.13l.01.02h-.08c-2.3.35-4.38 1.55-5.85 3.38a.47.47 0 0 0-.09.41.7.7 0 0 0 .263.408zm8.496 4.906 4.245 2.452a6.24 6.24 0 0 0 0-4.898zm-.755 7.724v.78c0 .21.09.41.23.53.12.1.24.14.4.12a9.2 9.2 0 0 0 5.84-3.38c.12-.15.12-.31.1-.41a.7.7 0 0 0-.34-.46l-.68-.39a7.8 7.8 0 0 1-5.55 3.21m0-1.51c1.68-.21 3.22-1.1 4.25-2.45l-4.25-2.45z" clip-rule="evenodd"/></svg>