<svg xmlns="http://www.w3.org/2000/svg" fill="none" viewBox="0 0 24 24"><path fill="currentColor" fill-rule="evenodd" d="M21.359 3.641a4.75 4.75 0 0 1-4.875 7.862l-2.364 2.023.442.499a.75.75 0 0 1 .063.911l-.016.02c-.06.075-.194.243-.273.322a3.5 3.5 0 0 1-.783.59c-.654.365-1.593.631-2.837.456L8.34 18.312a.26.26 0 0 0-.091.197v1.037a.75.75 0 0 1-.217.527c-.656.664-1.535 1.29-2.51 1.551-1.012.27-2.126.138-3.087-.727a3.6 3.6 0 0 1-.009-5.331l.012-.011 7.07-6.122a.75.75 0 0 1 1.053.07l.45.509 2.355-1.961a4.75 4.75 0 0 1 7.992-4.41m-9.353 7.495 1.12 1.266 1.944-1.663a4.8 4.8 0 0 1-1.106-1.233zm8.292-6.434a3.25 3.25 0 1 0-4.596 4.596 3.25 3.25 0 0 0 4.596-4.596m-1.59 1.59a1 1 0 1 0-1.415 1.415 1 1 0 1 0 1.414-1.414m-5.75 8.185L9.93 11.055l-6.502 5.63a2.1 2.1 0 0 0 .01 3.099c.53.476 1.1.552 1.698.393.552-.148 1.12-.5 1.614-.949v-.717c0-.52.23-1.013.628-1.347l2.64-2.21a.75.75 0 0 1 .63-.16c1.072.215 1.766-.007 2.174-.234q.073-.04.136-.083" clip-rule="evenodd"/></svg>