<svg xmlns="http://www.w3.org/2000/svg" fill="none" viewBox="0 0 24 24"><path fill="currentColor" fill-rule="evenodd" d="M12 1.75a.75.75 0 0 1 .75.75v5.298c1.413.184 2.45.894 3.2 1.878.847 1.109 1.316 2.545 1.64 3.885q.115.481.147.926l4.542 1.817a.75.75 0 0 1-.557 1.393l-.972-.39V18a.75.75 0 0 1-1.5 0v-1.292l-1.669-.667a3.93 3.93 0 0 1-1.316 1.947c-1.139.927-2.742 1.306-4.265 1.258-1.524.048-3.127-.33-4.266-1.258a3.93 3.93 0 0 1-1.316-1.947l-1.668.667V18a.75.75 0 0 1-1.5 0v-.692l-.971.389a.75.75 0 0 1-.557-1.393l4.54-1.817q.032-.444.148-.926c.324-1.34.792-2.776 1.639-3.885.75-.984 1.787-1.694 3.201-1.879V2.5a.75.75 0 0 1 .75-.75M7.868 13.913c.313-1.293.723-2.476 1.373-3.327C9.86 9.776 10.702 9.25 12 9.25s2.14.526 2.758 1.336c.65.851 1.06 2.034 1.373 3.327.34 1.405-.085 2.32-.813 2.912-.78.636-2 .966-3.292.92h-.053c-1.292.046-2.51-.284-3.292-.92-.727-.593-1.152-1.507-.813-2.912M12 12.5a1 1 0 1 0 0 2h.009a1 1 0 1 0 0-2zM4 20a1 1 0 1 0 0 2h.009a1 1 0 1 0 0-2zm15 1a1 1 0 0 1 1-1h.009a1 1 0 1 1 0 2H20a1 1 0 0 1-1-1" clip-rule="evenodd"/></svg>