<svg xmlns="http://www.w3.org/2000/svg" fill="none" viewBox="0 0 24 24"><path fill="currentColor" fill-rule="evenodd" d="M4.5 1.75A2.75 2.75 0 0 0 1.75 4.5v15a2.75 2.75 0 0 0 2.75 2.75h15a2.75 2.75 0 0 0 2.75-2.75v-15a2.75 2.75 0 0 0-2.75-2.75zM3.25 4.5c0-.69.56-1.25 1.25-1.25h15c.69 0 1.25.56 1.25 1.25v15c0 .69-.56 1.25-1.25 1.25h-15c-.69 0-1.25-.56-1.25-1.25zm3 3.002c0-1.306 1.38-2.156 2.547-1.556.823.424 2.054 1.03 3.393 1.69 1.966.97 4.164 2.054 5.644 2.84a1.717 1.717 0 0 1 0 3.041c-1.494.793-3.712 1.89-5.688 2.869-1.32.654-2.533 1.254-3.349 1.674-1.166.6-2.547-.25-2.547-1.556zm4.879 4.495L7.75 15.601V8.394zm.412 3.015c-.79.39-1.546.765-2.212 1.098l2.827-3.016 1.033 1.101zm5.59-2.82c-.725.385-1.605.834-2.541 1.304l-1.405-1.499 1.404-1.498c.936.469 1.816.917 2.542 1.302a.217.217 0 0 1 0 .391m-5.54-3.177c.524.258 1.061.522 1.596.787l-1.03 1.099-2.81-2.996c.676.337 1.444.715 2.245 1.11" clip-rule="evenodd"/></svg>