<svg xmlns="http://www.w3.org/2000/svg" fill="none" viewBox="0 0 24 24"><path fill="currentColor" fill-rule="evenodd" d="M3.25 4.5c0-.69.56-1.25 1.25-1.25h15c.69 0 1.25.56 1.25 1.25v15c0 .69-.56 1.25-1.25 1.25h-15c-.69 0-1.25-.56-1.25-1.25zM4.5 1.75A2.75 2.75 0 0 0 1.75 4.5v15a2.75 2.75 0 0 0 2.75 2.75h15a2.75 2.75 0 0 0 2.75-2.75v-15a2.75 2.75 0 0 0-2.75-2.75zm5.75 8.042a.25.25 0 0 1 .381-.213l3.592 2.21a.25.25 0 0 1 0 .426l-3.592 2.21a.25.25 0 0 1-.381-.212zm1.167-1.49c-1.166-.718-2.667.12-2.667 1.49v4.42c0 1.37 1.501 2.209 2.667 1.491l3.592-2.21a1.75 1.75 0 0 0 0-2.981z" clip-rule="evenodd"/></svg>