<svg xmlns="http://www.w3.org/2000/svg" fill="none" viewBox="0 0 24 24"><path fill="currentColor" fill-rule="evenodd" d="M20.03 1.47a.75.75 0 1 0-1.06 1.06l1.22 1.22H16a.75.75 0 0 0 0 1.5h4.19l-1.22 1.22a.75.75 0 0 0 1.06 1.06l2.5-2.5a.75.75 0 0 0 0-1.06zm-7.214 3.325a2.49 2.49 0 0 0-3.1-.008L3.266 9.25H2a.75.75 0 1 0 0 1.5h1.5a.75.75 0 0 0 .427-.133l6.664-4.611.046-.035a.99.99 0 0 1 1.242-.004.986.986 0 0 1 .147 1.397L9.964 9.476a.75.75 0 0 0 .536 1.274h10a.75.75 0 0 1 0 1.5h-7a.75.75 0 0 0 0 1.5h1.25V14c0 .69-.56 1.25-1.25 1.25h-1a.75.75 0 0 0 0 1.5h1q.127 0 .25-.011V17c0 .69-.56 1.25-1.25 1.25h-1a.75.75 0 0 0 0 1.5h1q.127 0 .25-.011v.26c0 .691-.56 1.25-1.25 1.25H7.403a3.25 3.25 0 0 1-2.03-.712l-1.404-1.123a.75.75 0 0 0-.469-.164H2a.75.75 0 0 0 0 1.5h1.237l1.199.959a4.75 4.75 0 0 0 2.967 1.04H11.5A2.75 2.75 0 0 0 14.25 20v-.878c.61-.504 1-1.267 1-2.121v-.879c.61-.504 1-1.267 1-2.121v-.25h4.25a2.25 2.25 0 0 0 0-4.5h-8.22l.838-.858.033-.035a2.486 2.486 0 0 0-.335-3.562" clip-rule="evenodd"/></svg>