<svg xmlns="http://www.w3.org/2000/svg" fill="none" viewBox="0 0 24 24"><path fill="currentColor" fill-rule="evenodd" d="M19.53 1.97a.75.75 0 1 0-1.06 1.06l1.22 1.22H15.5a.75.75 0 0 0 0 1.5h4.19l-1.22 1.22a.75.75 0 0 0 1.06 1.06l2.5-2.5a.75.75 0 0 0 0-1.06zm-7.467 3.325a2.49 2.49 0 0 0-3.094-.012l-5.995 4A2.75 2.75 0 0 0 1.75 11.57v6.93a3.75 3.75 0 0 0 3.75 3.75h5a3.75 3.75 0 0 0 3.75-3.75v-3.745h5.5a2.5 2.5 0 0 0 0-5h-8.12l.768-.896a2.49 2.49 0 0 0-.335-3.564M9.886 6.471a.99.99 0 0 1 1.375 1.412l-1.83 2.134a.75.75 0 0 0 .57 1.238h9.75a1 1 0 0 1 0 2H13.5a.75.75 0 0 0-.75.75V18.5a2.25 2.25 0 0 1-2.25 2.25h-5a2.25 2.25 0 0 1-2.25-2.25v-6.93c0-.418.209-.808.556-1.04l6.022-4.017z" clip-rule="evenodd"/></svg>