<svg xmlns="http://www.w3.org/2000/svg" fill="none" viewBox="0 0 24 24"><path fill="currentColor" fill-rule="evenodd" d="M5.03 2.53a.75.75 0 0 0-1.06-1.06l-2.5 2.5a.75.75 0 0 0 0 1.06l2.5 2.5a.75.75 0 0 0 1.06-1.06L3.81 5.25H8a.75.75 0 0 0 0-1.5H3.81zm7.076 5.06a2.46 2.46 0 0 1 3.297-.37l4.656 3.388a.75.75 0 0 0 .441.144H22a.75.75 0 0 0 0-1.5h-1.256l-4.459-3.244a3.96 3.96 0 0 0-5.308.594L8.66 9.252H3.5a2.25 2.25 0 0 0 0 4.5h4.25v.25c0 .854.39 1.617 1 2.121v.879c0 .854.39 1.617 1 2.121v.878a2.75 2.75 0 0 0 2.75 2.75h4.097a4.75 4.75 0 0 0 2.967-1.04l1.2-.96H22a.75.75 0 0 0 0-1.5h-1.5a.75.75 0 0 0-.468.165l-1.405 1.123a3.25 3.25 0 0 1-2.03.712H12.5c-.69 0-1.25-.56-1.25-1.25v-.26q.124.01.25.01h1a.75.75 0 0 0 0-1.5h-1a1.25 1.25 0 0 1-1.25-1.25v-.26q.123.01.25.01h1a.75.75 0 0 0 0-1.5h-1a1.25 1.25 0 0 1-1.25-1.25v-.25h1.25a.75.75 0 0 0 0-1.5h-7a.75.75 0 0 1 0-1.5h10a.75.75 0 0 0 0-1.5h-2.848z" clip-rule="evenodd"/></svg>