<svg xmlns="http://www.w3.org/2000/svg" fill="none" viewBox="0 0 24 24"><path fill="currentColor" fill-rule="evenodd" d="M2.867 10.527c2.01.751 3.798 1.28 5.486 1.596a3.751 3.751 0 0 1 7.296.009c1.69-.315 3.477-.845 5.485-1.6C20.431 6.122 16.61 2.75 12 2.75c-4.607 0-8.428 3.369-9.133 7.777M21.25 12.09c-1.99.729-3.805 1.25-5.556 1.559a3.751 3.751 0 0 1-7.39-.009c-1.746-.31-3.563-.831-5.554-1.556a9.25 9.25 0 0 0 18.5.006m-20-.09C1.25 6.063 6.063 1.25 12 1.25S22.75 6.063 22.75 12 17.937 22.75 12 22.75 1.25 17.937 1.25 12M12 10.75a2.25 2.25 0 1 0 0 4.5 2.25 2.25 0 0 0 0-4.5" clip-rule="evenodd"/></svg>