<svg xmlns="http://www.w3.org/2000/svg" fill="none" viewBox="0 0 24 24"><path fill="currentColor" fill-rule="evenodd" d="M18.53 3.53a.75.75 0 0 0-1.06-1.06l-1.415 1.414a2.75 2.75 0 0 0-.805 1.944v.422h-6.5v-.422c0-.331.132-.649.366-.883L10.53 3.53a.75.75 0 1 0-1.06-1.06L8.055 3.884a2.75 2.75 0 0 0-.805 1.944V17a.75.75 0 0 0 1.5 0v-1.25h6.5V17a.75.75 0 0 0 1.5 0V5.828c0-.331.132-.649.366-.883zm-3.28 4.22h-6.5v2.5h6.5zm0 4h-6.5v2.5h6.5zm-8.521 7.073a.75.75 0 0 0-1.458 0C5.097 19.538 4.207 20.25 3 20.25H2a.75.75 0 0 0 0 1.5h1c1.147 0 2.273-.46 3-1.242.727.782 1.853 1.242 3 1.242s2.273-.46 3-1.242c.727.782 1.853 1.242 3 1.242s2.273-.46 3-1.242c.727.782 1.853 1.242 3 1.242h1a.75.75 0 0 0 0-1.5h-1c-1.207 0-2.097-.712-2.271-1.427a.75.75 0 0 0-1.458 0c-.174.715-1.064 1.427-2.271 1.427s-2.097-.712-2.271-1.427a.75.75 0 0 0-1.458 0c-.174.715-1.064 1.427-2.271 1.427s-2.097-.712-2.271-1.427" clip-rule="evenodd"/></svg>