<svg xmlns="http://www.w3.org/2000/svg" fill="none" viewBox="0 0 24 24"><path fill="currentColor" fill-rule="evenodd" d="M10.484 4.42a.25.25 0 0 1 .237-.17h2.558a.25.25 0 0 1 .237.17l.443 1.33h-3.918zm4.455-.473.602 1.803H20a.75.75 0 0 1 0 1.5H4a.75.75 0 0 1 0-1.5h4.46l.6-1.803a1.75 1.75 0 0 1 1.66-1.197h2.56a1.75 1.75 0 0 1 1.66 1.197M1.25 9.5A.75.75 0 0 1 2 8.75h20a.75.75 0 0 1 0 1.5h-1.315l-.69 7.59a3.75 3.75 0 0 1-3.735 3.41H7.74a3.75 3.75 0 0 1-3.735-3.41l-.69-7.59H2a.75.75 0 0 1-.75-.75m4.249 8.204L4.82 10.25h14.36l-.678 7.454a2.25 2.25 0 0 1-2.24 2.046H7.74a2.25 2.25 0 0 1-2.241-2.046" clip-rule="evenodd"/></svg>