<svg xmlns="http://www.w3.org/2000/svg" fill="none" viewBox="0 0 24 24"><path fill="currentColor" fill-rule="evenodd" d="M1.75 4.5A2.75 2.75 0 0 1 4.5 1.75h15a2.75 2.75 0 0 1 2.75 2.75v15a2.75 2.75 0 0 1-2.75 2.75h-15a2.75 2.75 0 0 1-2.75-2.75zM4.5 3.25c-.69 0-1.25.56-1.25 1.25v15c0 .69.56 1.25 1.25 1.25h15c.69 0 1.25-.56 1.25-1.25v-15c0-.69-.56-1.25-1.25-1.25zm7.5 3.5a5.25 5.25 0 1 0 0 10.5 5.25 5.25 0 0 0 0-10.5M5.25 12a6.75 6.75 0 1 1 13.5 0 6.75 6.75 0 0 1-13.5 0m4.25-1a1 1 0 1 0 0 2h.009a1 1 0 1 0 0-2zm4.991 0a1 1 0 1 0 0 2h.01a1 1 0 1 0 0-2z" clip-rule="evenodd"/></svg>