<svg xmlns="http://www.w3.org/2000/svg" fill="none" viewBox="0 0 24 24"><path fill="currentColor" fill-rule="evenodd" d="M3.75 4c0-.69.56-1.25 1.25-1.25h6.248V7a2.75 2.75 0 0 0 2.75 2.75h4.252V11a.75.75 0 0 0 1.5 0V9a.75.75 0 0 0-.22-.53l-7-7a.75.75 0 0 0-.53-.22H5A2.75 2.75 0 0 0 2.25 4v16A2.75 2.75 0 0 0 5 22.75h14a.75.75 0 0 0 0-1.5H5c-.69 0-1.25-.56-1.25-1.25zm13.44 4.25-4.442-4.441V7c0 .69.56 1.25 1.25 1.25zM7 13.25a.75.75 0 0 0-.75.75v5a.75.75 0 0 0 1.5 0v-1.25h.75a2.25 2.25 0 0 0 0-4.5zm1.5 3h-.75v-1.5h.75a.75.75 0 0 1 0 1.5m3.5-3a.75.75 0 0 0-.75.75v5a.75.75 0 0 0 1.5 0v-1.25h.75a2.25 2.25 0 0 0 0-4.5zm1.5 3h-.75v-1.5h.75a.75.75 0 0 1 0 1.5m3.5-3a.75.75 0 0 0 0 1.5h1.25V19a.75.75 0 0 0 1.5 0v-4.25H21a.75.75 0 0 0 0-1.5z" clip-rule="evenodd"/></svg>