<svg xmlns="http://www.w3.org/2000/svg" fill="none" viewBox="0 0 24 24"><path fill="currentColor" fill-rule="evenodd" d="M5.75 3.5a.75.75 0 0 0-1.5 0v2a.75.75 0 0 0 1.5 0zM5 10.25h1.25v-1.5h-2.5v1.5zm.75 10.25v-8.75h.75c.69 0 1.25-.56 1.25-1.25v-2c0-.69-.56-1.25-1.25-1.25h-3c-.69 0-1.25.56-1.25 1.25v2c0 .69.56 1.25 1.25 1.25h.75v8.75a.75.75 0 0 0 1.5 0m5-5.25v-1.5h2.5v1.5zm.5-3h-.75c-.69 0-1.25.56-1.25 1.25v2c0 .69.56 1.25 1.25 1.25h3c.69 0 1.25-.56 1.25-1.25v-2c0-.69-.56-1.25-1.25-1.25h-.75V3.5a.75.75 0 0 0-1.5 0zm6.5-1.5v1.5h2.5v-1.5zm2.75 3h-.75v6.75a.75.75 0 0 1-1.5 0v-6.75h-.75c-.69 0-1.25-.56-1.25-1.25v-2c0-.69.56-1.25 1.25-1.25h3c.69 0 1.25.56 1.25 1.25v2c0 .69-.56 1.25-1.25 1.25m-1.5-11a.75.75 0 0 1 .75.75v4a.75.75 0 0 1-1.5 0v-4a.75.75 0 0 1 .75-.75M12.75 18.5a.75.75 0 0 0-1.5 0v2a.75.75 0 0 0 1.5 0z" clip-rule="evenodd"/></svg>