<svg xmlns="http://www.w3.org/2000/svg" fill="none" viewBox="0 0 24 24"><path fill="currentColor" fill-rule="evenodd" d="M12.75 2a.75.75 0 0 0-1.5 0v.75H5.5A3.75 3.75 0 0 0 1.75 6.5v8a3.75 3.75 0 0 0 3.75 3.75h5.75v1.5h-.618c-.355 0-.739-.002-1.089.157s-.602.448-.835.716l-.058.066-.714.817a.75.75 0 1 0 1.128.988l.715-.817c.155-.177.243-.276.314-.345l.06-.053.009-.006h.002l.01-.003.08-.011c.099-.008.23-.009.466-.009h.53V22a.75.75 0 0 0 1.5 0v-.75h.53c.235 0 .367 0 .466.009l.08.01.01.003h.001l.001.001.009.006q.014.01.06.053a7 7 0 0 1 .314.345l.715.817a.75.75 0 1 0 1.128-.988l-.714-.817-.058-.066c-.233-.268-.485-.557-.835-.716-.35-.16-.734-.158-1.09-.157h-.617v-1.5h5.75a3.75 3.75 0 0 0 3.75-3.75v-8a3.75 3.75 0 0 0-3.75-3.75h-5.75zm-9.5 4.5A2.25 2.25 0 0 1 5.5 4.25h13a2.25 2.25 0 0 1 2.25 2.25v8a2.25 2.25 0 0 1-2.25 2.25h-13a2.25 2.25 0 0 1-2.25-2.25z" clip-rule="evenodd"/></svg>