<svg xmlns="http://www.w3.org/2000/svg" fill="none" viewBox="0 0 24 24"><path fill="currentColor" fill-rule="evenodd" d="M9.74 3.354c.796-.365 1.494-.604 2.26-.604s1.464.24 2.26.604c1.2.552 1.867 1.45 1.975 2.346A19.6 19.6 0 0 0 12 5.25c-1.5 0-2.933.16-4.235.45.108-.896.775-1.794 1.976-2.346M6.25 6.117a14 14 0 0 0-.514.18.75.75 0 1 0 .561 1.393l.134 1.875a5.57 5.57 0 0 0 1.84 3.757l-.883 3.092-2.78.926A4.91 4.91 0 0 0 1.25 22a.75.75 0 0 0 1.5 0c0-1.469.94-2.773 2.333-3.237l2.781-.927 3.086 2.314a1.75 1.75 0 0 0 2.1 0l3.086-2.314 2.78.927A3.41 3.41 0 0 1 21.25 22a.75.75 0 0 0 1.5 0 4.91 4.91 0 0 0-3.359-4.66l-2.778-.926-.884-3.092a5.57 5.57 0 0 0 1.84-3.757l.134-1.876.033.013a.75.75 0 1 0 .528-1.404q-.253-.095-.514-.182v-.16c0-1.713-1.168-3.185-2.864-3.965-.86-.394-1.795-.74-2.885-.741-1.092 0-2.027.346-2.887.741-1.696.78-2.864 2.252-2.864 3.965zm9.981 1.123-.158 2.218a4.083 4.083 0 0 1-8.145 0L7.769 7.24A17.8 17.8 0 0 1 12 6.75c1.529 0 2.965.178 4.231.49M12 14.75c.865 0 1.686-.197 2.42-.55l.717 2.51-2.987 2.24a.25.25 0 0 1-.3 0l-2.987-2.24.717-2.51c.734.353 1.555.55 2.42.55" clip-rule="evenodd"/></svg>