<svg xmlns="http://www.w3.org/2000/svg" fill="none" viewBox="0 0 24 24"><path fill="currentColor" fill-rule="evenodd" d="M8.935 1.25h6.13c.57 0 1.054 0 1.454.041.425.044.819.14 1.19.37.372.23.634.539.864.9.216.34.432.772.687 1.282l.91 1.822a.75.75 0 0 1 .08.335v7.052c0 .899 0 1.648-.08 2.242-.084.628-.27 1.195-.726 1.65-.455.456-1.022.642-1.65.726-.594.08-1.343.08-2.242.08H8.448c-.899 0-1.648 0-2.242-.08-.628-.084-1.195-.27-1.65-.726-.456-.455-.642-1.022-.726-1.65-.08-.594-.08-1.344-.08-2.242V6a.75.75 0 0 1 .08-.335l.894-1.79.016-.032c.255-.51.471-.943.687-1.282.23-.361.492-.67.863-.9.372-.23.766-.326 1.191-.37.4-.041.884-.041 1.454-.041m-1.3 1.533c-.296.031-.445.085-.556.154s-.226.178-.386.43c-.17.265-.352.628-.628 1.18l-.351.703h12.573l-.352-.703c-.276-.552-.458-.915-.628-1.18-.16-.252-.274-.361-.386-.43-.111-.07-.26-.123-.557-.154-.313-.032-.72-.033-1.336-.033H8.972c-.617 0-1.023 0-1.336.033M18.75 6.75H5.25V13c0 .964.002 1.612.067 2.095.062.461.169.659.3.789s.327.237.788.3c.483.064 1.131.066 2.095.066h7c.964 0 1.612-.002 2.095-.067.461-.062.659-.169.789-.3s.237-.327.3-.788c.064-.483.066-1.131.066-2.095zM9.75 9a.75.75 0 0 1 .75-.75h3a.75.75 0 0 1 0 1.5h-3A.75.75 0 0 1 9.75 9M22 19.25a.75.75 0 0 1 .75.75v2a.75.75 0 0 1-1.5 0v-1.25h-3.5V22a.75.75 0 0 1-1.5 0v-1.25h-3.5V22a.75.75 0 0 1-1.5 0v-1.25h-3.5V22a.75.75 0 1 1-1.5 0v-1.25h-3.5V22a.75.75 0 1 1-1.5 0v-2a.75.75 0 0 1 .75-.75z" clip-rule="evenodd"/></svg>