<svg xmlns="http://www.w3.org/2000/svg" fill="none" viewBox="0 0 24 24"><path fill="currentColor" fill-rule="evenodd" d="M2.25 3A.75.75 0 0 1 3 2.25h18a.75.75 0 0 1 0 1.5h-4.75v2.566a4.25 4.25 0 0 1 3.5 4.184v5.75H20a.75.75 0 0 1 .728.568l1 4a.75.75 0 0 1-.728.932h-4a.75.75 0 0 1-.728-.932l1-4A.75.75 0 0 1 18 16.25h.25v-2.51a4.23 4.23 0 0 1-2.75 1.01 4.23 4.23 0 0 1-2.75-1.01v3.76a4.25 4.25 0 0 1-8.5 0V3.75H3A.75.75 0 0 1 2.25 3M19 17.75h-.414l-.625 2.5h2.078l-.625-2.5zm-3.5-10a2.75 2.75 0 1 1 0 5.5 2.75 2.75 0 0 1 0-5.5m-.75-1.434a4.25 4.25 0 0 0-3.5 4.184v3.76a4.23 4.23 0 0 0-2.75-1.01 4.23 4.23 0 0 0-2.75 1.01V3.75h9zM8.5 14.75a2.75 2.75 0 1 1 0 5.5 2.75 2.75 0 0 1 0-5.5" clip-rule="evenodd"/></svg>