<svg xmlns="http://www.w3.org/2000/svg" fill="none" viewBox="0 0 24 24"><path fill="currentColor" fill-rule="evenodd" d="M3.252 4.5c0-.69.56-1.25 1.25-1.25H19.5c.691 0 1.25.56 1.25 1.25l-.001 15c0 .69-.56 1.25-1.25 1.25H4.51c-.69 0-1.25-.56-1.25-1.25zm1.25-2.75a2.75 2.75 0 0 0-2.75 2.752l.009 15a2.75 2.75 0 0 0 2.75 2.748h14.988a2.75 2.75 0 0 0 2.75-2.75l.002-15a2.75 2.75 0 0 0-2.75-2.75zm8.726 6.068a.75.75 0 0 0-1.439-.055l-1.288 3.865-.789-2.365a.75.75 0 0 0-1.354-.149L7.076 11.25H5.501a.75.75 0 0 0 0 1.5h2a.75.75 0 0 0 .643-.364l.66-1.102.985 2.953a.75.75 0 0 0 1.423 0l1.186-3.556 1.375 5.5a.75.75 0 0 0 1.399.154l1.792-3.585h1.537a.75.75 0 0 0 0-1.5h-2a.75.75 0 0 0-.671.415l-1.093 2.186z" clip-rule="evenodd"/></svg>