<svg xmlns="http://www.w3.org/2000/svg" fill="none" viewBox="0 0 24 24"><path fill="currentColor" fill-rule="evenodd" d="M4 3.25A2.75 2.75 0 0 0 1.25 6v7.5a.75.75 0 0 0 1.5 0V6c0-.69.56-1.25 1.25-1.25h13a.25.25 0 0 1 .25.25v1.25H10a.75.75 0 1 0 0 1.5h10c.69 0 1.25.56 1.25 1.25v9c0 .69-.56 1.25-1.25 1.25h-7.5a.75.75 0 0 0 0 1.5H20A2.75 2.75 0 0 0 22.75 18V9A2.75 2.75 0 0 0 20 6.25h-1.25V5A1.75 1.75 0 0 0 17 3.25zM18.25 14a.75.75 0 1 0-1.5 0 .75.75 0 0 0 1.5 0m-.75-2.25a2.25 2.25 0 1 1 0 4.5 2.25 2.25 0 0 1 0-4.5m-13.5 9A2.754 2.754 0 0 1 1.25 18 2.754 2.754 0 0 1 4 15.25c.803 0 1.526.467 2.03 1.067.489-.585 1.176-1.067 1.97-1.067 1.589 0 2.75 1.234 2.75 2.75A2.754 2.754 0 0 1 8 20.75c-.794 0-1.481-.482-1.97-1.066-.503.6-1.226 1.066-2.03 1.066M5.25 18c0-.28-.606-1.25-1.25-1.25-.689 0-1.25.561-1.25 1.25s.561 1.25 1.25 1.25c.644 0 1.25-.97 1.25-1.25m1.959.76c-.266-.304-.42-.628-.454-.76.034-.132.188-.456.454-.76.273-.311.561-.49.792-.49.689 0 1.25.561 1.25 1.25s-.561 1.25-1.25 1.25c-.231 0-.52-.178-.792-.49" clip-rule="evenodd"/></svg>