<svg xmlns="http://www.w3.org/2000/svg" fill="none" viewBox="0 0 24 24"><path fill="currentColor" fill-rule="evenodd" d="M10 2.75A2.25 2.25 0 0 0 7.75 5v1a.75.75 0 0 1-.75.75H3a.25.25 0 0 0-.25.25v3.25H3a3.75 3.75 0 1 1 0 7.5h-.25V21c0 .138.112.25.25.25h3.25V21a3.75 3.75 0 1 1 7.5 0v.25H17a.25.25 0 0 0 .25-.25v-4a.75.75 0 0 1 .75-.75h1a2.25 2.25 0 0 0 0-4.5h-1a.75.75 0 0 1-.75-.75V7a.25.25 0 0 0-.25-.25h-4a.75.75 0 0 1-.75-.75V5A2.25 2.25 0 0 0 10 2.75M6.25 5a3.75 3.75 0 1 1 7.5 0v.25H17c.966 0 1.75.784 1.75 1.75v3.25H19a3.75 3.75 0 1 1 0 7.5h-.25V21A1.75 1.75 0 0 1 17 22.75h-4a.75.75 0 0 1-.75-.75v-1a2.25 2.25 0 0 0-4.5 0v1a.75.75 0 0 1-.75.75H3A1.75 1.75 0 0 1 1.25 21v-4a.75.75 0 0 1 .75-.75h1a2.25 2.25 0 0 0 0-4.5H2a.75.75 0 0 1-.75-.75V7c0-.966.784-1.75 1.75-1.75h3.25z" clip-rule="evenodd"/></svg>