<svg xmlns="http://www.w3.org/2000/svg" fill="none" viewBox="0 0 24 24"><path fill="currentColor" fill-rule="evenodd" d="M3.75 10.5c0-4.324 3.288-7.75 7.25-7.75s7.25 3.426 7.25 7.75c0 1.146-.232 2.23-.648 3.206a.75.75 0 1 0 1.38.588 9.7 9.7 0 0 0 .768-3.794c0-5.065-3.875-9.25-8.75-9.25S2.25 5.435 2.25 10.5s3.875 9.25 8.75 9.25c.725 0 1.43-.093 2.104-.27.406.914.88 1.622 1.413 2.145.8.783 1.709 1.122 2.631 1.122 1.684 0 2.893-.698 3.64-1.865.715-1.114.962-2.579.962-4.073a.75.75 0 0 0-1.3-.51 5.7 5.7 0 0 1-.872.768c-.357.25-.708.416-1.015.462a.88.88 0 0 1-.769-.223c-.277-.243-.61-.745-.886-1.736-.28-1.002-.666-1.828-1.146-2.48.25-.752.488-1.637.488-2.59 0-1.803-.547-3.465-1.468-4.693S12.532 3.75 11 3.75s-2.861.83-3.782 2.057C6.298 7.035 5.75 8.697 5.75 10.5q0 .276.017.546a.75.75 0 0 0 1.497-.092q-.014-.225-.014-.454c0-1.51.46-2.849 1.168-3.793C9.126 5.764 10.046 5.25 11 5.25s1.874.514 2.582 1.457S14.75 8.99 14.75 10.5c0 .479-.08.953-.203 1.421a4.16 4.16 0 0 0-2.007-.668c-1.844-.128-3.73.872-5.07 2.213a.75.75 0 0 0 .53 1.28c1.916 0 2.769.236 3.276.65.524.426.834 1.153 1.303 2.67A6.8 6.8 0 0 1 11 18.25c-3.962 0-7.25-3.426-7.25-7.75m6.3 2.871c.797-.442 1.632-.674 2.387-.621a2.67 2.67 0 0 1 1.696.75c.516.487.995 1.27 1.33 2.473.315 1.132.758 1.95 1.344 2.462a2.38 2.38 0 0 0 1.98.578c.482-.073.93-.27 1.317-.5-.119.615-.31 1.142-.578 1.56-.455.71-1.173 1.174-2.378 1.174-.522 0-1.057-.18-1.582-.694-.542-.53-1.093-1.44-1.553-2.928-.444-1.434-.856-2.632-1.79-3.392-.569-.464-1.278-.726-2.173-.862" clip-rule="evenodd"/></svg>