<svg xmlns="http://www.w3.org/2000/svg" fill="none" viewBox="0 0 24 24"><path fill="currentColor" fill-rule="evenodd" d="M6 1.25A2.75 2.75 0 0 0 3.25 4v16A2.75 2.75 0 0 0 6 22.75h14a.75.75 0 0 0 0-1.5h-.206a2 2 0 0 1-.186-.226c-.192-.265-.358-.613-.358-1.024 0-.41.166-.76.358-1.024.064-.09.13-.166.186-.226H20a.75.75 0 0 0 .75-.75V2a.75.75 0 0 0-.75-.75zM4.75 4v13.55c.375-.192.8-.3 1.25-.3h13.25V2.75H6c-.69 0-1.25.56-1.25 1.25M6 18.75h12.016A3.1 3.1 0 0 0 17.75 20c0 .479.112.899.266 1.25H6a1.25 1.25 0 1 1 0-2.5m5.208-12.637a.75.75 0 0 1-.255 1.03 2.48 2.48 0 1 0 3.405 3.405.75.75 0 0 1 1.284.774 3.98 3.98 0 1 1-5.464-5.464.75.75 0 0 1 1.03.255M13 8a1 1 0 1 1 1 1 1 1 0 0 1-1-1" clip-rule="evenodd"/></svg>