<svg xmlns="http://www.w3.org/2000/svg" fill="none" viewBox="0 0 24 24"><path fill="currentColor" fill-rule="evenodd" d="M12.083 2.94a.14.14 0 0 0-.166 0c-.882.577-2.825 1.947-4.539 3.836C5.651 8.68 4.25 11.004 4.25 13.502a7.75 7.75 0 0 0 15.5 0c0-2.498-1.401-4.823-3.128-6.726-1.714-1.889-3.657-3.259-4.539-3.835m-.987-1.255a1.64 1.64 0 0 1 1.808 0c.933.61 2.993 2.06 4.829 4.083 1.822 2.008 3.517 4.684 3.517 7.734a9.25 9.25 0 1 1-18.5 0c0-3.05 1.695-5.726 3.517-7.734 1.836-2.022 3.896-3.473 4.829-4.083" clip-rule="evenodd"/></svg>