<svg xmlns="http://www.w3.org/2000/svg" fill="none" viewBox="0 0 24 24"><path fill="currentColor" fill-rule="evenodd" d="M12.67 1.665a.75.75 0 0 0-1.33-.02l-3.5 6.5a.75.75 0 1 0 1.32.71l2.815-5.227L14.6 8.877l-.418-.105a.75.75 0 0 0-.364 1.456l2 .5a.75.75 0 0 0 .853-1.063zm-5 9a.75.75 0 0 0-1.326-.03l-5 9A.75.75 0 0 0 2 20.75h8a.75.75 0 0 0 0-1.5H3.275l3.69-6.643.364.728a.75.75 0 1 0 1.342-.67zM22 11.25c-1.704 0-3.975.195-5.771 1.03-.908.421-1.738 1.027-2.293 1.895-.564.881-.802 1.966-.633 3.256a3.8 3.8 0 0 0 .216.83l.353.948A6.5 6.5 0 0 0 13.25 22a.75.75 0 0 0 1.5 0c0-.666.128-1.272.337-1.817l.893.223.051.01c1.383.245 2.548.076 3.504-.435.95-.508 1.618-1.314 2.085-2.216.92-1.777 1.13-4.066 1.13-5.765a.75.75 0 0 0-.75-.75m-5.683 7.694-.475-.118a7 7 0 0 1 .688-.796 8.4 8.4 0 0 1 1.67-1.285l.108-.06.024-.013.004-.002a.75.75 0 0 0-.671-1.34l-.063.032-.146.08a10 10 0 0 0-1.986 1.527 9 9 0 0 0-.587.648 2 2 0 0 1-.092-.381c-.13-.986.06-1.707.408-2.253.357-.558.926-1.001 1.662-1.343 1.268-.59 2.903-.82 4.373-.876-.06 1.462-.31 3.082-.946 4.312-.368.71-.847 1.254-1.46 1.582-.603.323-1.409.476-2.511.286" clip-rule="evenodd"/></svg>