<svg xmlns="http://www.w3.org/2000/svg" fill="none" viewBox="0 0 24 24"><path fill="currentColor" fill-rule="evenodd" d="M5.306 2.217a.75.75 0 0 1 .977-.411l3 1.223a.75.75 0 0 1 .423.948l-1 2.777a.75.75 0 1 1-1.412-.508l.484-1.343a8.25 8.25 0 0 0-4.914 8.973.75.75 0 0 1-1.48.248A9.75 9.75 0 0 1 6.87 3.665l-1.153-.47a.75.75 0 0 1-.411-.978m6.455 1.284a.75.75 0 0 1 .863-.616c4.612.774 8.126 4.784 8.126 9.616 0 .72-.078 1.422-.226 2.098l1.054-.718a.75.75 0 1 1 .844 1.24l-2.935 2a.75.75 0 0 1-1.087-.273l-1.565-3a.75.75 0 1 1 1.33-.694l.795 1.524a8.25 8.25 0 0 0-6.584-10.313.75.75 0 0 1-.616-.864M3.516 16.75a.75.75 0 0 0-.75.75V21a.75.75 0 0 0 1.5 0v-1.45A9.72 9.72 0 0 0 11 22.25c2.497 0 4.776-.94 6.5-2.483a.75.75 0 0 0-1-1.117 8.22 8.22 0 0 1-5.5 2.1 8.22 8.22 0 0 1-5.916-2.5H7a.75.75 0 0 0 0-1.5z" clip-rule="evenodd"/></svg>