<svg xmlns="http://www.w3.org/2000/svg" fill="none" viewBox="0 0 24 24"><path fill="currentColor" fill-rule="evenodd" d="M2.64 16.43a.75.75 0 0 0 1.23-.86A6.25 6.25 0 0 1 9 5.75h9.5a.75.75 0 0 0 .48-1.326l-3-2.5a.75.75 0 1 0-.96 1.152l1.409 1.174H9a7.75 7.75 0 0 0-6.36 12.18m17.676-9.045a.75.75 0 0 1 1.044.186A7.75 7.75 0 0 1 15 19.751H7.572l1.408 1.173a.75.75 0 1 1-.96 1.152l-3-2.5a.75.75 0 0 1 .48-1.326H15a6.25 6.25 0 0 0 5.13-9.82.75.75 0 0 1 .186-1.045M7.75 12a.75.75 0 0 1 .75-.75h7a.75.75 0 1 1 0 1.5h-7a.75.75 0 0 1-.75-.75" clip-rule="evenodd"/></svg>