<svg xmlns="http://www.w3.org/2000/svg" fill="none" viewBox="0 0 24 24"><path fill="currentColor" fill-rule="evenodd" d="M10.436 1.28c-.7 0-1.33.424-1.593 1.072L7.854 4.78 3.5 4.781a.72.72 0 0 0 0 1.44h.822l.845 13.945a2.72 2.72 0 0 0 2.716 2.555H9.5a.72.72 0 1 0 0-1.44H7.883a1.28 1.28 0 0 1-1.278-1.203l-.84-13.857h12.734l-.301 5.238a.72.72 0 1 0 1.438.082l.306-5.32h.558a.72.72 0 0 0 0-1.44h-4.078l-.99-2.43A1.72 1.72 0 0 0 13.84 1.28zm4.43 3.5H9.41l.768-1.886a.28.28 0 0 1 .259-.174h3.404a.28.28 0 0 1 .26.174zm.634 9.97c-1.568 0-2.867 1.223-3.289 2.487a.75.75 0 0 1-1.382.098l-1-2a.75.75 0 1 1 1.342-.67l.35.7c.864-1.178 2.272-2.115 3.979-2.115 1.863 0 3.457 1.123 4.195 2.721a.75.75 0 1 1-1.361.63c-.51-1.105-1.595-1.851-2.834-1.851m3.947 3.502a.75.75 0 0 1 .724.413l1 2a.75.75 0 1 1-1.342.67l-.35-.7c-.865 1.178-2.272 2.115-3.98 2.115-1.862 0-3.456-1.122-4.195-2.721a.75.75 0 1 1 1.362-.63c.51 1.105 1.595 1.851 2.834 1.851 1.568 0 2.867-1.223 3.288-2.487a.75.75 0 0 1 .659-.511" clip-rule="evenodd"/></svg>