<svg xmlns="http://www.w3.org/2000/svg" fill="none" viewBox="0 0 24 24"><path fill="currentColor" fill-rule="evenodd" d="M16.065 2.25h-8.13c-.57 0-1.054 0-1.454.041-.425.044-.819.14-1.19.37-.373.23-.634.539-.864.9-.216.34-.432.772-.687 1.282l-.016.033-1.395 2.789A.75.75 0 0 0 2.25 8v9.052c0 .899 0 1.648.08 2.242.084.628.27 1.195.725 1.65.456.456 1.023.642 1.65.726.595.08 1.344.08 2.243.08h10.104c.899 0 1.648 0 2.242-.08.628-.084 1.195-.27 1.65-.726.456-.455.642-1.022.726-1.65.08-.594.08-1.343.08-2.242V8a.75.75 0 0 0-.087-.352L20.26 4.843c-.255-.51-.472-.943-.687-1.282-.23-.361-.492-.67-.863-.9-.372-.23-.766-.326-1.192-.37-.4-.041-.883-.041-1.453-.041m-8.093 1.5h3.278v3.5H4.213l.852-1.703c.276-.552.458-.915.628-1.18.16-.252.274-.361.386-.43.111-.07.26-.123.557-.154.313-.032.72-.033 1.336-.033m4.778 0v3.5h7.036l-.851-1.703c-.276-.552-.458-.915-.628-1.18-.16-.252-.274-.361-.386-.43-.111-.07-.26-.123-.557-.154-.314-.032-.72-.033-1.336-.033zm-9 5h16.5V17c0 .964-.002 1.612-.067 2.095-.062.461-.169.659-.3.789s-.327.237-.788.3c-.483.064-1.131.066-2.095.066H7c-.964 0-1.612-.002-2.095-.067-.461-.062-.659-.169-.789-.3s-.237-.327-.3-.788c-.064-.483-.066-1.131-.066-2.095zm6.78 3.28a.75.75 0 1 0-1.06-1.06l-2 2a.75.75 0 0 0 0 1.06l2 2a.75.75 0 1 0 1.06-1.06l-.72-.72H14a1.25 1.25 0 1 1 0 2.5h-1a.75.75 0 0 0 0 1.5h1a2.75 2.75 0 1 0 0-5.5H9.81z" clip-rule="evenodd"/></svg>