<svg xmlns="http://www.w3.org/2000/svg" fill="none" viewBox="0 0 24 24"><path fill="currentColor" fill-rule="evenodd" d="M4.75 4c0-.69.56-1.25 1.25-1.25h12c.69 0 1.25.56 1.25 1.25v16c0 .69-.56 1.25-1.25 1.25H6c-.69 0-1.25-.56-1.25-1.25zM6 1.25A2.75 2.75 0 0 0 3.25 4v16A2.75 2.75 0 0 0 6 22.75h12A2.75 2.75 0 0 0 20.75 20V4A2.75 2.75 0 0 0 18 1.25zm6.75 4.25a.75.75 0 0 0-1.5 0v2a.75.75 0 0 0 1.5 0zm0 5.5a.75.75 0 0 0-1.5 0v2a.75.75 0 0 0 1.5 0zm0 5.5a.75.75 0 0 0-1.5 0v2a.75.75 0 0 0 1.5 0z" clip-rule="evenodd"/></svg>