<svg xmlns="http://www.w3.org/2000/svg" fill="none" viewBox="0 0 24 24"><path fill="currentColor" fill-rule="evenodd" d="M2.75 12a9.25 9.25 0 1 1 18.5 0 9.25 9.25 0 0 1-18.5 0M12 1.25C6.063 1.25 1.25 6.063 1.25 12S6.063 22.75 12 22.75 22.75 17.937 22.75 12 17.937 1.25 12 1.25m.497 7.675a.25.25 0 0 1 .238-.175H18a.75.75 0 0 0 0-1.5h-5.265a1.75 1.75 0 0 0-1.67 1.228l-1.726 5.523-.548-1.095a1.75 1.75 0 0 0-2.802-.455l-.52.519a.75.75 0 1 0 1.061 1.06l.52-.519a.25.25 0 0 1 .4.065l1.38 2.76a.75.75 0 0 0 1.386-.112zm5.19 2.801a.75.75 0 0 0-.375-1.452c-.651.168-1.172.623-1.512 1.076l-.172.23-.18-.363a1.9 1.9 0 0 0-.526-.664A1.5 1.5 0 0 0 14 10.25a.75.75 0 1 0 .017 1.5.5.5 0 0 1 .089.138l.516 1.033-.622.829c-.21.281-.47.467-.687.524a.75.75 0 0 0 .374 1.452c.652-.168 1.173-.623 1.513-1.076l.172-.23.18.363c.262.522.77.892 1.36.962a.75.75 0 0 0 .176-1.49.26.26 0 0 1-.194-.143l-.516-1.033.622-.829c.21-.281.47-.467.688-.524" clip-rule="evenodd"/></svg>