<svg xmlns="http://www.w3.org/2000/svg" fill="none" viewBox="0 0 24 24"><path fill="currentColor" fill-rule="evenodd" d="M5.5 2.25A2.75 2.75 0 0 0 2.75 5v4.333c0 .27-.088.534-.25.75L1.4 11.55a.75.75 0 0 0 0 .9l1.1 1.467c.162.216.25.48.25.75V19a2.75 2.75 0 0 0 2.75 2.75H6a.75.75 0 0 0 0-1.5h-.5c-.69 0-1.25-.56-1.25-1.25v-4.333a2.75 2.75 0 0 0-.55-1.65L2.937 12l.763-1.017a2.75 2.75 0 0 0 .55-1.65V5c0-.69.56-1.25 1.25-1.25H6a.75.75 0 0 0 0-1.5zm12.5 0a.75.75 0 0 0 0 1.5h.5c.69 0 1.25.56 1.25 1.25v4.333c0 .595.193 1.174.55 1.65L21.062 12l-.762 1.017a2.75 2.75 0 0 0-.55 1.65V19c0 .69-.56 1.25-1.25 1.25H18a.75.75 0 0 0 0 1.5h.5A2.75 2.75 0 0 0 21.25 19v-4.333c0-.27.088-.534.25-.75l1.1-1.467a.75.75 0 0 0 0-.9l-1.1-1.467a1.25 1.25 0 0 1-.25-.75V5a2.75 2.75 0 0 0-2.75-2.75zm-5.503 6.675a.25.25 0 0 1 .238-.175H17a.75.75 0 0 0 0-1.5h-4.265a1.75 1.75 0 0 0-1.67 1.228l-1.726 5.523-.548-1.095a1.75 1.75 0 0 0-2.802-.455l-.52.519a.75.75 0 1 0 1.061 1.06l.52-.519a.25.25 0 0 1 .4.065l1.38 2.76a.75.75 0 0 0 1.386-.112zm4.69 2.801a.75.75 0 0 0-.375-1.452c-.651.168-1.172.623-1.512 1.076l-.172.23-.18-.363a1.9 1.9 0 0 0-.526-.664 1.5 1.5 0 0 0-.922-.303.75.75 0 1 0 .017 1.5.5.5 0 0 1 .089.138l.516 1.033-.622.829c-.21.281-.47.467-.687.524a.75.75 0 0 0 .374 1.452c.652-.168 1.173-.623 1.513-1.076l.172-.23.18.363c.262.522.77.892 1.36.962a.75.75 0 0 0 .176-1.49.26.26 0 0 1-.194-.143l-.516-1.033.622-.829c.21-.281.47-.467.688-.524" clip-rule="evenodd"/></svg>