<svg xmlns="http://www.w3.org/2000/svg" fill="none" viewBox="0 0 24 24"><path fill="currentColor" fill-rule="evenodd" d="M4 3.75c-.69 0-1.25.56-1.25 1.25v14c0 .69.56 1.25 1.25 1.25h1.5a.75.75 0 0 1 0 1.5H4A2.75 2.75 0 0 1 1.25 19V5A2.75 2.75 0 0 1 4 2.25h1.5a.75.75 0 0 1 0 1.5zM17.75 3a.75.75 0 0 1 .75-.75H20A2.75 2.75 0 0 1 22.75 5v14A2.75 2.75 0 0 1 20 21.75h-1.5a.75.75 0 0 1 0-1.5H20c.69 0 1.25-.56 1.25-1.25V5c0-.69-.56-1.25-1.25-1.25h-1.5a.75.75 0 0 1-.75-.75m-.437 7.274a.75.75 0 1 1 .375 1.452c-.218.057-.477.243-.688.524l-.622.83.517 1.032a.26.26 0 0 0 .194.143.75.75 0 0 1-.177 1.49 1.76 1.76 0 0 1-1.359-.962l-.18-.362-.173.23c-.34.452-.86.907-1.512 1.075a.75.75 0 0 1-.375-1.452c.218-.056.476-.243.687-.524l.622-.829-.622-1.17a.75.75 0 0 1 0-1.5c.344 0 .658.101.922.302.25.19.412.438.525.665l.181.361.172-.229c.34-.453.861-.908 1.513-1.076m-4.816-1.349a.25.25 0 0 1 .238-.175H18a.75.75 0 0 0 0-1.5h-5.265a1.75 1.75 0 0 0-1.67 1.228l-1.726 5.523-.548-1.095a1.75 1.75 0 0 0-2.802-.455l-.52.519a.75.75 0 1 0 1.061 1.06l.52-.519a.25.25 0 0 1 .4.065l1.38 2.76a.75.75 0 0 0 1.386-.112z" clip-rule="evenodd"/></svg>