<svg xmlns="http://www.w3.org/2000/svg" fill="none" viewBox="0 0 24 24"><path fill="currentColor" fill-rule="evenodd" d="M16.503 3.75c-2.105.011-4.687.838-7.216 2.54-2.525 1.702-4.456 3.915-5.544 6.092-1.098 2.197-1.282 4.23-.564 5.682.697 1.41 2.216 2.197 4.32 2.186s4.686-.837 7.215-2.54q.955-.647 1.794-1.378a.75.75 0 0 1 1.242.566V20.5a.75.75 0 0 1-1.5 0v-2.04q-.342.253-.698.493c-2.716 1.83-5.582 2.784-8.046 2.797-2.466.013-4.639-.933-5.672-3.02-1.012-2.046-.637-4.61.568-7.019 1.214-2.43 3.329-4.833 6.047-6.664 2.715-1.83 5.581-2.784 8.046-2.797 2.466-.013 4.639.933 5.672 3.02 1.09 2.206.572 5.014-.873 7.596a.75.75 0 0 1-1.31-.732c1.334-2.383 1.614-4.63.838-6.198-.697-1.41-2.216-2.197-4.32-2.186" clip-rule="evenodd"/></svg>