<svg xmlns="http://www.w3.org/2000/svg" fill="none" viewBox="0 0 24 24"><path fill="currentColor" fill-rule="evenodd" d="M21.48 2.424a.75.75 0 0 1 .096 1.056l-5 6a.75.75 0 0 1-1.106.05l-2.5-2.5a.75.75 0 0 1 1.06-1.06l1.92 1.919 4.474-5.37a.75.75 0 0 1 1.056-.095M2.045 11.25a.75.75 0 0 0 0 1.5c3.564 0 7.205 3.192 7.205 7.25a.75.75 0 0 0 1.5 0c0-4.942-4.369-8.75-8.705-8.75M2 14.485a.75.75 0 0 0 0 1.5c2.08 0 4.02 1.931 4.02 4.015a.75.75 0 0 0 1.5 0c0-2.916-2.614-5.515-5.52-5.515M3 18a1 1 0 1 0 0 2h.009a1 1 0 1 0 0-2zm.75-12c0-.69.56-1.25 1.25-1.25h6a.75.75 0 0 0 0-1.5H5A2.75 2.75 0 0 0 2.25 6v3a.75.75 0 0 0 1.5 0zm19 2a.75.75 0 0 0-1.5 0v10c0 .69-.56 1.25-1.25 1.25h-6.5a.75.75 0 0 0 0 1.5H20A2.75 2.75 0 0 0 22.75 18z" clip-rule="evenodd"/></svg>