<svg xmlns="http://www.w3.org/2000/svg" fill="none" viewBox="0 0 24 24"><path fill="currentColor" fill-rule="evenodd" d="M13.002 21.754h-4.01c-3.44 0-6.24-2.8-6.24-6.25 0-1.99.96-3.85 2.52-5.02-.24-.23-.46-.48-.65-.75-2.13-.15-3.13-1.41-3.36-2.6-.07-.36.13-.71.47-.84l2.29-.87a4.748 4.748 0 0 1 9.23 1.57c0 .79-.2 1.57-.56 2.25h4.29c1.1 0 1.27-1.1 1.27-1.75 0-.3.18-.58.46-.69s.6-.05.82.16c3.72 3.72 3.21 7.95 3.18 8.13 0 3.94-3.9 6.65-9.71 6.65zm-7.05-12.73c.28.35.63.64 1.03.85.25.13.41.39.4.68 0 .28-.17.54-.43.66-1.64.79-2.7 2.47-2.7 4.29 0 2.62 2.13 4.75 4.74 4.75h4.01c4.92 0 8.22-2.11 8.22-5.25l.002-.017c.03-.322.293-3.053-1.782-5.833-.44 1.01-1.31 1.6-2.46 1.6h-5.83c-.31 0-.59-.19-.7-.48a.75.75 0 0 1 .21-.83c.7-.62 1.1-1.5 1.1-2.44 0-1.79-1.46-3.25-3.25-3.25-1.38 0-2.59.86-3.05 2.13l.38.56c.54.78.57 1.78.12 2.58zm-2.98-1.59c.32.46.9.74 1.7.8.14-.3.12-.67-.08-.95l-.25-.37zm4.53-.67c-.41 0-.75-.34-.75-.75s.34-.75.75-.75.75.33.75.75-.34.76-.75.76zm3.5 11.99h1.5c2.63 0 5.75-3.12 5.75-5.75 0-.41-.34-.75-.75-.75h-6.5c-1.79 0-3.25 1.46-3.25 3.25s1.46 3.25 3.25 3.25m-1.75-3.25c0-.96.79-1.75 1.75-1.75h5.62c-.52 1.66-2.57 3.5-4.12 3.5h-1.5c-.96 0-1.75-.79-1.75-1.75" clip-rule="evenodd"/></svg>