<svg xmlns="http://www.w3.org/2000/svg" fill="none" viewBox="0 0 24 24"><path fill="currentColor" fill-rule="evenodd" d="M11.258 3.5a.75.75 0 1 1 1.497 0v6a.75.75 0 0 0 1.5 0v-4a.75.75 0 1 1 1.498 0v4a.75.75 0 0 0 1.5 0V8a.75.75 0 1 1 1.497 0v1.5a.75.75 0 0 0 1.5 0V8a2.25 2.25 0 0 0-2.997-2.122V5.5a2.25 2.25 0 0 0-3.001-2.121 2.25 2.25 0 0 0-4.494.121v.378A2.25 2.25 0 0 0 6.76 6v5.86l-1.39-1.738c-.952-1.19-2.648-1.19-3.6 0a2.38 2.38 0 0 0-.153 2.757l2.738 4.485c1.582 3.148 4.29 5.386 7.65 5.386a.75.75 0 0 0 0-1.5c-2.624 0-4.906-1.748-6.323-4.585l-.03-.056-2.758-4.517-.008-.012a.88.88 0 0 1 .056-1.021c.351-.44.905-.44 1.256 0l2.725 3.41A.75.75 0 0 0 8.26 14V6a.75.75 0 1 1 1.498 0v3.5a.75.75 0 0 0 1.5 0zm6.658 7.876a.75.75 0 0 0-.832 0c-1.405.937-2.814 1.41-4.321 1.913a.75.75 0 0 0-.513.711v.062c0 1.459 0 3.204.614 4.774.649 1.658 1.951 3.06 4.399 3.876a.75.75 0 0 0 .474 0c2.448-.816 3.75-2.218 4.399-3.876.614-1.57.614-3.315.614-4.774V14a.75.75 0 0 0-.513-.711c-1.507-.503-2.915-.976-4.321-1.913m-3.655 6.913c-.443-1.131-.502-2.414-.51-3.75 1.21-.408 2.476-.871 3.749-1.65 1.273.779 2.539 1.242 3.749 1.65-.008 1.336-.067 2.619-.51 3.75-.457 1.17-1.35 2.229-3.239 2.917-1.89-.688-2.781-1.747-3.24-2.917m5.27-1.759a.75.75 0 1 0-1.061-1.06L17 16.94l-.47-.47a.75.75 0 1 0-1.06 1.06l1 1a.75.75 0 0 0 1.06 0z" clip-rule="evenodd"/></svg>