<svg xmlns="http://www.w3.org/2000/svg" fill="none" viewBox="0 0 24 24"><path fill="currentColor" fill-rule="evenodd" d="M11.077 1.977a.75.75 0 0 0-.976-.085c-.762.55-1.34 1.445-1.729 2.469a9.7 9.7 0 0 0-.57 2.572 9.4 9.4 0 0 0-2.477-.218c-1.075.054-2.122.323-2.879.886a.75.75 0 0 0-.218.947l.616 1.19-1.18.592a.75.75 0 0 0-.379.897c.461 1.458 1.805 2.775 3.551 3.593-1.02 1.738-1.42 3.701-.928 5.196a.75.75 0 0 0 .839.504l1.32-.226.19 1.314a.75.75 0 0 0 .741.642c1.72.005 3.617-1.113 5.002-2.858 1.386 1.745 3.283 2.863 5.002 2.858a.75.75 0 0 0 .74-.642l.191-1.314 1.32.226a.75.75 0 0 0 .839-.504c.493-1.495.092-3.458-.928-5.196 1.746-.818 3.09-2.135 3.551-3.593a.75.75 0 0 0-.379-.897l-1.18-.591.617-1.191a.75.75 0 0 0-.219-.947c-.757-.563-1.804-.832-2.879-.886a9.4 9.4 0 0 0-2.474.217 9.6 9.6 0 0 0-.569-2.572c-.39-1.025-.972-1.919-1.733-2.468a.75.75 0 0 0-.976.085L12 2.925zM9.26 7.904c0-1.12.193-2.162.515-3.011.21-.557.467-1.006.742-1.341l.946.971a.75.75 0 0 0 1.075 0l.945-.972c.277.336.535.786.747 1.342.323.849.516 1.89.51 3.008a.75.75 0 0 0 .986.715 8 8 0 0 1 2.873-.403c.593.03 1.103.136 1.506.294l-.63 1.217a.75.75 0 0 0 .33 1.015l1.22.612c-.54.93-1.672 1.868-3.233 2.41a.75.75 0 0 0-.36 1.15c1.022 1.399 1.447 2.907 1.357 4.008l-1.36-.233a.75.75 0 0 0-.87.631l-.197 1.359c-1.079-.242-2.361-1.076-3.379-2.469a8 8 0 0 1-.344-.512.75.75 0 0 0-1.278 0q-.156.255-.344.512C10 19.6 8.717 20.434 7.638 20.676l-.197-1.359a.75.75 0 0 0-.87-.631l-1.36.233c-.09-1.101.335-2.61 1.357-4.007a.75.75 0 0 0-.36-1.151c-1.561-.542-2.692-1.48-3.233-2.41l1.22-.612a.75.75 0 0 0 .33-1.015l-.63-1.217c.403-.158.913-.264 1.507-.294a8 8 0 0 1 2.872.403.75.75 0 0 0 .986-.712m1.49 4.596a1.25 1.25 0 1 1 2.5 0 1.25 1.25 0 0 1-2.5 0M12 9.75a2.75 2.75 0 1 0 0 5.5 2.75 2.75 0 0 0 0-5.5" clip-rule="evenodd"/></svg>