<svg xmlns="http://www.w3.org/2000/svg" fill="none" viewBox="0 0 24 24"><path fill="currentColor" fill-rule="evenodd" d="M16.731 1.47a.75.75 0 0 0-1.06 0 4.85 4.85 0 0 0-.49 6.288l-1.097 1.097-.679-.678a1.75 1.75 0 0 0-2.475 0l-.846.846L9.06 8l.763-.763a1.75 1.75 0 0 0 0-2.475L7.237 2.177a1.75 1.75 0 0 0-2.475 0L2.177 4.762a1.75 1.75 0 0 0 0 2.475l2.585 2.586a1.75 1.75 0 0 0 2.475 0L8 9.061l1.023 1.023-2.76 2.76a3.46 3.46 0 1 0 4.893 4.893l2.76-2.76L14.939 16l-.762.762a1.75 1.75 0 0 0 0 2.475l2.585 2.586a1.75 1.75 0 0 0 2.475 0l2.586-2.586a1.75 1.75 0 0 0 0-2.475l-2.586-2.585a1.75 1.75 0 0 0-2.475 0l-.762.762-1.024-1.023.847-.847a1.75 1.75 0 0 0 0-2.474l-.679-.679 1.097-1.097a4.85 4.85 0 0 0 6.29-.49.75.75 0 0 0 0-1.06zm-.207 15.066.006-.006.006-.005 1.287-1.288a.25.25 0 0 1 .354 0l2.585 2.586a.25.25 0 0 1 0 .354l-2.585 2.585a.25.25 0 0 1-.354 0l-2.586-2.585a.25.25 0 0 1 0-.354zm.207-9.267a3.35 3.35 0 0 1-.47-4.149l4.619 4.62a3.35 3.35 0 0 1-4.149-.471m-4.387 1.968a.25.25 0 0 0-.353 0l-4.667 4.667a1.96 1.96 0 0 0 2.771 2.772l4.667-4.667a.25.25 0 0 0 0-.354zm-6.52-6a.25.25 0 0 1 .353 0l2.585 2.586a.25.25 0 0 1 0 .354L6.177 8.762a.25.25 0 0 1-.354 0L3.237 6.177a.25.25 0 0 1 0-.354z" clip-rule="evenodd"/></svg>