<svg xmlns="http://www.w3.org/2000/svg" fill="none" viewBox="0 0 24 24"><path fill="currentColor" fill-rule="evenodd" d="M19.529 2.893c.457-.116.842-.15 1.13-.113.277.036.4.128.463.215.07.098.167.334.102.857-.05.41-.198.95-.483 1.643a3.25 3.25 0 0 0-3.427 5.41c-3.324 4.203-7.064 7.091-9.494 8.665l-.021.014c-.355.248-1.069.677-1.879 1.043-.828.374-1.658.637-2.275.642-.369.004-.579-.072-.688-.15-.08-.06-.179-.17-.202-.47-.026-.324.045-.832.322-1.58.177-.48.433-1.038.78-1.685q.385.588.849 1.112a.75.75 0 0 0 1.124-.992 8.26 8.26 0 0 1-2.07-5.48c0-4.571 3.694-8.272 8.244-8.272 1.274 0 2.443.264 3.507.771a.75.75 0 0 0 .715-.037l.109-.067c.58-.359 1.968-1.217 3.194-1.526m-.883 8.744c-2.976 3.815-6.292 6.6-8.795 8.37a8 8 0 0 0 2.153.287c4.551 0 8.244-3.701 8.244-8.271q0-.18-.007-.358a3.26 3.26 0 0 1-1.594-.028m3.04-.731q.062.551.062 1.117c0 5.394-4.36 9.771-9.744 9.771a9.45 9.45 0 0 1-3.706-.743c-.45.283-1.076.633-1.76.942-.874.395-1.94.768-2.88.776-.542.005-1.116-.098-1.583-.438-.495-.36-.764-.908-.816-1.564-.049-.629.097-1.37.411-2.219.288-.775.73-1.682 1.35-2.735a9.8 9.8 0 0 1-.76-3.79c0-5.394 4.361-9.771 9.744-9.771 1.342 0 2.605.252 3.774.747.689-.421 2.08-1.231 3.383-1.56.559-.142 1.147-.217 1.69-.147.551.072 1.114.304 1.49.83.369.514.463 1.179.372 1.915-.083.662-.322 1.446-.73 2.367.479.566.767 1.297.767 2.096a3.24 3.24 0 0 1-1.065 2.406M17.75 8.5a1.75 1.75 0 1 1 3.5 0 1.75 1.75 0 0 1-3.5 0" clip-rule="evenodd"/></svg>