<svg xmlns="http://www.w3.org/2000/svg" fill="none" viewBox="0 0 24 24"><path fill="currentColor" fill-rule="evenodd" d="M15 3.25a.75.75 0 0 0 0 1.5c1.831 0 2.895.567 3.493 1.115q.21.196.356.385H16a.75.75 0 0 0-.67 1.085l1.733 3.468a.25.25 0 0 1-.019.255l-2.86 4.085a.25.25 0 0 1-.205.107h-1.265c-.313-3.272-2.648-6-5.714-6-3.298 0-5.75 3.156-5.75 6.75 0 .414.336.75.75.75h1.325a3.751 3.751 0 0 0 7.35 0h3.305a1.75 1.75 0 0 0 1.433-.746l2.86-4.086a1.75 1.75 0 0 0 .131-1.786l-1.19-2.382H20a.75.75 0 0 0 .75-.75c0-.296-.12-.67-.301-1.022a4.4 4.4 0 0 0-.942-1.218c-.902-.827-2.338-1.51-4.507-1.51M4.25 7A.75.75 0 0 1 5 6.25h4a.75.75 0 0 1 0 1.5H5A.75.75 0 0 1 4.25 7M7 18.25a2.25 2.25 0 0 1-2.122-1.5h4.244A2.25 2.25 0 0 1 7 18.25m4.208-3H2.792c.301-2.642 2.17-4.5 4.208-4.5 2.037 0 3.907 1.858 4.208 4.5M18.75 17a1.25 1.25 0 1 1 2.5 0 1.25 1.25 0 0 1-2.5 0M20 14.25a2.75 2.75 0 1 0 0 5.5 2.75 2.75 0 0 0 0-5.5" clip-rule="evenodd"/></svg>