<svg xmlns="http://www.w3.org/2000/svg" fill="none" viewBox="0 0 24 24"><path fill="currentColor" fill-rule="evenodd" d="M12 2.75a1.25 1.25 0 1 0 0 2.5 1.25 1.25 0 0 0 0-2.5m2.646.5a2.751 2.751 0 0 0-5.292 0H6a.75.75 0 0 0 0 1.5h3.354a2.751 2.751 0 0 0 5.293 0H18a.75.75 0 0 0 0-1.5zM6.893 9.333A2.75 2.75 0 0 1 9.56 7.25h4.877a2.75 2.75 0 0 1 2.668 2.083l2 8a2.75 2.75 0 0 1-2.668 3.417h-1.439a.75.75 0 0 1 0-1.5h1.439a1.25 1.25 0 0 0 1.212-1.553l-2-8a1.25 1.25 0 0 0-1.212-.947H9.56a1.25 1.25 0 0 0-1.213.947l-2 8A1.25 1.25 0 0 0 7.56 19.25h1.438a.75.75 0 0 1 0 1.5H7.56a2.75 2.75 0 0 1-2.668-3.417zM12.75 18a.75.75 0 0 0-1.5 0v4a.75.75 0 0 0 1.5 0z" clip-rule="evenodd"/></svg>