<svg xmlns="http://www.w3.org/2000/svg" fill="none" viewBox="0 0 24 24"><path fill="currentColor" fill-rule="evenodd" d="M2.53 1.47a.75.75 0 0 0-1.06 1.06l1.734 1.735a2.3 2.3 0 0 0-.954 1.858v4.928c0 3.49 1.78 6.158 3.742 8.032 1.96 1.873 4.16 3.015 5.161 3.479a2 2 0 0 0 1.694 0c1-.464 3.205-1.607 5.169-3.486l3.454 3.454a.75.75 0 1 0 1.06-1.06l-3.983-3.984-.004-.004zm14.425 16.545L4.298 5.36a.835.835 0 0 0-.549.763v4.928c0 2.938 1.49 5.239 3.278 6.948 1.792 1.712 3.827 2.77 4.756 3.202a.5.5 0 0 0 .432 0c.93-.431 2.953-1.486 4.739-3.186M13.166 1.54a2.5 2.5 0 0 0-2.332 0c-.72.381-1.901.95-3.374 1.454a.75.75 0 0 0 .486 1.42 25 25 0 0 0 3.59-1.549 1 1 0 0 1 .928 0c1.277.676 3.896 1.897 7.063 2.448.429.075.723.43.723.811v4.928c0 1.635-.46 3.065-1.17 4.306a.75.75 0 0 0 1.301.746c.823-1.438 1.369-3.122 1.369-5.052V6.123c0-1.168-.877-2.1-1.966-2.289-2.954-.513-5.416-1.659-6.618-2.295l-.35.663z" clip-rule="evenodd"/></svg>