<svg xmlns="http://www.w3.org/2000/svg" fill="none" viewBox="0 0 24 24"><path fill="currentColor" fill-rule="evenodd" d="M5.75 2a.75.75 0 0 0-1.5 0v2.25H2a.75.75 0 0 0 0 1.5h2.25V8a.75.75 0 0 0 1.5 0V5.75H8a.75.75 0 0 0 0-1.5H5.75zm6.75 2.25a.75.75 0 0 0 0 1.5h2a.75.75 0 0 0 0-1.5zm6.5 0a.75.75 0 0 0 0 1.5h1c.69 0 1.25.56 1.25 1.25v1a.75.75 0 0 0 1.5 0V7A2.75 2.75 0 0 0 20 4.25zM5.75 12.5a.75.75 0 0 0-1.5 0v2a.75.75 0 0 0 1.5 0zm17 0a.75.75 0 0 0-1.5 0v2a.75.75 0 0 0 1.5 0zm-17 6.5a.75.75 0 0 0-1.5 0v1A2.75 2.75 0 0 0 7 22.75h1a.75.75 0 0 0 0-1.5H7c-.69 0-1.25-.56-1.25-1.25zm17 0a.75.75 0 0 0-1.5 0v1c0 .69-.56 1.25-1.25 1.25h-1a.75.75 0 0 0 0 1.5h1A2.75 2.75 0 0 0 22.75 20zM12.5 21.25a.75.75 0 0 0 0 1.5h2a.75.75 0 0 0 0-1.5z" clip-rule="evenodd"/></svg>