<svg xmlns="http://www.w3.org/2000/svg" fill="none" viewBox="0 0 24 24"><path fill="currentColor" fill-rule="evenodd" d="M10.485 2.92a.25.25 0 0 1 .237-.17h2.559a.25.25 0 0 1 .237.17l.772 2.317a.75.75 0 0 0 .31.397l1.56.986a.75.75 0 0 0 .582.095l2.552-.632a.25.25 0 0 1 .275.115l1.39 2.339a.25.25 0 0 1-.039.304l-.627.625a.75.75 0 1 0 1.059 1.063l.627-.625a1.75 1.75 0 0 0 .27-2.134l-1.39-2.338a1.75 1.75 0 0 0-1.925-.805l-2.242.555-1.063-.673-.688-2.062a1.75 1.75 0 0 0-1.66-1.197h-2.559a1.75 1.75 0 0 0-1.66 1.197l-.687 2.062-1.064.673-2.241-.555a1.75 1.75 0 0 0-1.925.805L1.781 7.727a1.75 1.75 0 0 0 .348 2.207l1.536 1.352v1.428l-1.536 1.352a1.75 1.75 0 0 0-.347 2.207l1.364 2.295a1.75 1.75 0 0 0 1.924.805l2.265-.56.95.533.644 2.222c.202.7.844 1.182 1.573 1.182a.75.75 0 0 0 0-1.5.14.14 0 0 1-.133-.1l-.728-2.516a.75.75 0 0 0-.354-.446l-1.478-.829a.75.75 0 0 0-.547-.074l-2.552.632a.25.25 0 0 1-.275-.115l-1.364-2.295a.25.25 0 0 1 .05-.316l1.79-1.575a.75.75 0 0 0 .254-.563v-2.106a.75.75 0 0 0-.255-.563L3.12 8.81a.25.25 0 0 1-.05-.316l1.365-2.295a.25.25 0 0 1 .274-.115l2.553.632a.75.75 0 0 0 .58-.095l1.56-.986a.75.75 0 0 0 .311-.397zM9.252 12a2.75 2.75 0 0 1 4.714-1.925.75.75 0 1 0 1.071-1.05 4.25 4.25 0 1 0-6.01 6.01.75.75 0 1 0 1.05-1.07A2.74 2.74 0 0 1 9.252 12m3.498 5a4.25 4.25 0 1 1 8.5 0 4.25 4.25 0 0 1-8.5 0M17 11.25a5.75 5.75 0 1 0 0 11.5 5.75 5.75 0 0 0 0-11.5m.75 3.75a.75.75 0 0 0-1.5 0v2a.75.75 0 0 0 1.5 0zM17 18.25a.75.75 0 0 0 0 1.5h.009a.75.75 0 0 0 0-1.5z" clip-rule="evenodd"/></svg>