<svg xmlns="http://www.w3.org/2000/svg" fill="none" viewBox="0 0 24 24"><path fill="currentColor" fill-rule="evenodd" d="M7.572 2.75a.25.25 0 0 0-.216.123l-4.411 7.5a.25.25 0 0 0 0 .254l4.411 7.5a.25.25 0 0 0 .216.123H9a.75.75 0 1 1 0 1.5H7.572a1.75 1.75 0 0 1-1.508-.863l-4.412-7.5a1.75 1.75 0 0 1 0-1.774l4.412-7.5a1.75 1.75 0 0 1 1.508-.863h8.858c.62 0 1.194.328 1.508.863l4.709 8.007a.75.75 0 0 1-1.293.76l-4.709-8.007a.25.25 0 0 0-.215-.123zm4.428 5a2.75 2.75 0 0 0-1.925 4.714.75.75 0 1 1-1.05 1.072 4.25 4.25 0 1 1 6.815-4.858.75.75 0 1 1-1.354.644A2.75 2.75 0 0 0 12 7.75m5 3.5a5.75 5.75 0 1 0 0 11.5 5.75 5.75 0 0 0 0-11.5M12.75 17a4.25 4.25 0 1 1 8.5 0 4.25 4.25 0 0 1-8.5 0m6.826-1.02a.75.75 0 0 0-1.152-.96l-1.974 2.369-.92-.92a.75.75 0 1 0-1.06 1.061l1.5 1.5a.75.75 0 0 0 1.106-.05z" clip-rule="evenodd"/></svg>