<svg xmlns="http://www.w3.org/2000/svg" fill="none" viewBox="0 0 24 24"><path fill="currentColor" fill-rule="evenodd" d="M12 1.25a.75.75 0 0 0 0 1.5A9.25 9.25 0 0 1 21.25 12 9.25 9.25 0 0 1 12 21.25a.75.75 0 0 0 0 1.5c5.938 0 10.75-4.814 10.75-10.75S17.938 1.25 12 1.25M9.242 3.21a.75.75 0 0 0-.484-1.42 12.1 12.1 0 0 0-3.494 1.871.75.75 0 1 0 .918 1.186 10.6 10.6 0 0 1 3.06-1.637M3.933 7.337a.75.75 0 1 0-1.273-.792 10.4 10.4 0 0 0-1.397 3.564.75.75 0 0 0 1.474.275 8.9 8.9 0 0 1 1.196-3.047m-1.196 6.28a.75.75 0 1 0-1.474.275 10.4 10.4 0 0 0 1.397 3.564.75.75 0 0 0 1.273-.793 8.9 8.9 0 0 1-1.196-3.046m3.45 5.54a.75.75 0 0 0-.927 1.179 11.8 11.8 0 0 0 3.498 1.874.75.75 0 0 0 .484-1.42 10.3 10.3 0 0 1-3.055-1.633M12 8.203c-1.786 0-3.25 1.469-3.25 3.3 0 .998.509 1.87 1.21 2.595.7.724 1.526 1.235 2 1.493q.024.013.04.012a.1.1 0 0 0 .04-.012c.474-.258 1.3-.769 2-1.493.702-.726 1.21-1.597 1.21-2.595 0-1.831-1.464-3.3-3.25-3.3m-4.75 3.3c0-2.642 2.118-4.8 4.75-4.8s4.75 2.158 4.75 4.8c0 1.536-.785 2.762-1.631 3.637-.848.878-1.821 1.474-2.36 1.768-.475.26-1.043.26-1.518 0-.539-.294-1.512-.89-2.36-1.768-.846-.875-1.631-2.1-1.631-3.637m4.746-1.003a1 1 0 1 0 0 2h.006a1 1 0 1 0 0-2z" clip-rule="evenodd"/></svg>