<svg xmlns="http://www.w3.org/2000/svg" fill="none" viewBox="0 0 24 24"><path fill="currentColor" fill-rule="evenodd" d="M10.834 1.539a2.5 2.5 0 0 1 2.332 0l-.35.663.35-.663c1.202.636 3.664 1.782 6.618 2.295 1.089.19 1.966 1.12 1.966 2.29v4.927c0 3.49-1.78 6.158-3.742 8.032-1.96 1.873-4.16 3.015-5.161 3.479a2 2 0 0 1-1.694 0c-1.001-.465-3.201-1.606-5.16-3.479C4.03 17.21 2.25 14.542 2.25 11.051V6.123c0-1.168.877-2.1 1.966-2.289 2.954-.513 5.416-1.659 6.618-2.295m1.63 1.325a1 1 0 0 0-.928 0c-1.277.676-3.896 1.897-7.063 2.448-.429.075-.723.43-.723.811v4.928c0 2.938 1.49 5.239 3.278 6.948 1.792 1.712 3.827 2.77 4.756 3.202a.5.5 0 0 0 .432 0c.93-.431 2.964-1.49 4.756-3.202 1.789-1.71 3.278-4.01 3.278-6.948V6.123c0-.381-.294-.736-.723-.811-3.167-.55-5.786-1.772-7.063-2.448" clip-rule="evenodd"/></svg>