<svg xmlns="http://www.w3.org/2000/svg" fill="none" viewBox="0 0 24 24"><path fill="currentColor" fill-rule="evenodd" d="M12.041 2.75c1.45-.028 2.537.597 3.823 1.359l.055.033c1.104.654 2.358 1.397 3.983 1.554.754 4.312.232 7.762-1.147 10.324-1.406 2.613-3.742 4.377-6.71 5.206a10.47 10.47 0 0 1-6.602-5.032c-1.469-2.576-2.129-6.093-1.387-10.507 1.504-.09 2.766-.813 3.886-1.456l.05-.028c1.351-.776 2.547-1.452 4.035-1.452zm8.49 1.477c-1.502 0-2.617-.647-3.902-1.409l-.046-.027c-1.24-.735-2.66-1.575-4.564-1.54-1.903.002-3.41.867-4.693 1.604l-.081.047c-1.36.78-2.454 1.378-3.76 1.284a.75.75 0 0 0-.79.606c-.966 4.978-.303 9.08 1.444 12.145 1.749 3.067 4.551 5.038 7.743 5.793a.75.75 0 0 0 .364-.005c3.414-.9 6.178-2.926 7.83-5.994 1.645-3.058 2.144-7.074 1.19-11.9a.75.75 0 0 0-.735-.604m-8.899 2.12a.75.75 0 0 1 .736 0l4 2.25a.75.75 0 0 1 .382.653v4.5a.75.75 0 0 1-.382.654l-4 2.25a.75.75 0 0 1-.736 0l-4-2.25a.75.75 0 0 1-.382-.654v-4.5a.75.75 0 0 1 .382-.654zM8.75 13.31v-2.779l2.5 1.407v2.779zm6.5 0-2.5 1.406V11.94l2.5-1.406zM12 7.861l2.47 1.39L12 10.64 9.53 9.25z" clip-rule="evenodd"/></svg>