<svg xmlns="http://www.w3.org/2000/svg" fill="none" viewBox="0 0 24 24"><path fill="currentColor" fill-rule="evenodd" d="M3 3.25A1.75 1.75 0 0 0 1.25 5v11.495c0 .97.788 1.755 1.758 1.75l.827-.003a3.251 3.251 0 0 0 6.328.008h3.674a3.251 3.251 0 0 0 6.326 0H22a.75.75 0 0 0 .75-.75V13c0-3.812-2.999-6.876-7-7.218V5A1.75 1.75 0 0 0 14 3.25zm17.163 13.5h1.087V13c0-2.913-2.265-5.38-5.5-5.712V14.5a3.25 3.25 0 0 1 4.413 2.25m-4.556-.31a1.75 1.75 0 1 1-.015.02zm-1.357-.673V5a.25.25 0 0 0-.25-.25H3a.25.25 0 0 0-.25.25v11.495a.25.25 0 0 0 .251.25l.838-.004a3.251 3.251 0 0 1 6.324.009h3.674c.083-.353.225-.684.413-.983M8.75 17.5a1.75 1.75 0 1 0-3.5 0 1.75 1.75 0 0 0 3.5 0" clip-rule="evenodd"/></svg>