<svg xmlns="http://www.w3.org/2000/svg" fill="none" viewBox="0 0 24 24"><path fill="currentColor" fill-rule="evenodd" d="M11 9.25A1.75 1.75 0 0 0 9.25 11v7c0 .966.784 1.75 1.75 1.75h2A1.75 1.75 0 0 0 14.75 18v-7A1.75 1.75 0 0 0 13 9.25zM10.75 11a.25.25 0 0 1 .25-.25h2a.25.25 0 0 1 .25.25v7a.25.25 0 0 1-.25.25h-2a.25.25 0 0 1-.25-.25zm-8.5 4c0-.966.784-1.75 1.75-1.75h2c.966 0 1.75.784 1.75 1.75v3A1.75 1.75 0 0 1 6 19.75H4A1.75 1.75 0 0 1 2.25 18zM4 14.75a.25.25 0 0 0-.25.25v3c0 .138.112.25.25.25h2a.25.25 0 0 0 .25-.25v-3a.25.25 0 0 0-.25-.25zM17.25 19a.75.75 0 0 1 .75-.75h3a.75.75 0 0 1 0 1.5h-3a.75.75 0 0 1-.75-.75" clip-rule="evenodd"/></svg>