<svg xmlns="http://www.w3.org/2000/svg" fill="none" viewBox="0 0 24 24"><path fill="currentColor" fill-rule="evenodd" d="M1.347 4.63A.75.75 0 0 1 2 4.25h6a.75.75 0 0 1 .643 1.136L5.75 10.208V19a.75.75 0 0 1-1.5 0v-8.792L1.357 5.386a.75.75 0 0 1-.01-.756M5 8.542 6.675 5.75h-3.35zm4 4.708a.75.75 0 0 1 .75.75v5a.75.75 0 0 1-1.5 0v-5a.75.75 0 0 1 .75-.75M13.75 11a.75.75 0 0 0-1.5 0v8a.75.75 0 0 0 1.5 0zM17 9.25a.75.75 0 0 1 .75.75v9a.75.75 0 0 1-1.5 0v-9a.75.75 0 0 1 .75-.75M21.75 7a.75.75 0 0 0-1.5 0v12a.75.75 0 0 0 1.5 0z" clip-rule="evenodd"/></svg>