<svg xmlns="http://www.w3.org/2000/svg" fill="none" viewBox="0 0 24 24"><path fill="currentColor" fill-rule="evenodd" d="M8.782 3.033C7.868 1.702 6.603 1.079 5.317 1.29c-1.248.206-2.292 1.162-2.89 2.498-1.175 2.623-.775 6.865 2.9 11.58-1.104 2.34-2.46 4.54-3.887 6.132a.75.75 0 1 0 1.118 1c1.436-1.602 2.777-3.733 3.887-5.997.262.158.55.254.868.25.657-.007 1.141-.44 1.47-.803.283-.314.574-.722.862-1.126q.09-.128.181-.253c.362-.504.75-1.02 1.21-1.492.165-.17.27-.195.306-.2s.099-.003.21.065c.163.1.35.298.53.576q-.03.075-.056.149c-.26.712-.415 1.467-.371 2.09.021.308.096.661.305.957.237.334.604.535 1.039.535.502 0 .87-.281 1.068-.653.17-.32.21-.693.205-1.014-.01-.653-.212-1.434-.52-2.12.174-.336.378-.651.602-.92.39-.466.784-.723 1.135-.79.144-.028.328.01.692.361.171.166.344.363.548.596l.018.021c.203.233.435.497.69.739.507.483 1.194.966 2.121.974.913.007 1.872-.447 2.936-1.38a.75.75 0 0 0-.99-1.128c-.936.822-1.549 1.011-1.933 1.008-.37-.003-.706-.185-1.1-.56a10 10 0 0 1-.595-.64l-.034-.04c-.19-.216-.4-.457-.619-.668-.453-.438-1.12-.927-2.015-.757-.823.157-1.498.696-2.004 1.301q-.195.234-.367.488a2.7 2.7 0 0 0-.5-.403 1.8 1.8 0 0 0-1.195-.274c-.45.06-.845.297-1.18.641-.54.555-.982 1.146-1.353 1.662l-.206.287c-.286.4-.514.72-.734.963-.242.268-.355.303-.372.308-.017-.004-.085-.025-.21-.134.431-.98.816-1.97 1.143-2.94.626-1.859 1.054-3.675 1.194-5.234.135-1.516.014-2.955-.644-3.912m-1.973 8.666a34 34 0 0 1-.786 2.096C3.039 9.65 2.967 6.253 3.797 4.4c.455-1.015 1.146-1.529 1.764-1.63.58-.096 1.316.138 1.984 1.11.344.502.515 1.481.386 2.93-.126 1.407-.52 3.103-1.122 4.888M9 20.25a.75.75 0 0 0 0 1.5h10a.75.75 0 0 0 0-1.5z" clip-rule="evenodd"/></svg>