<svg xmlns="http://www.w3.org/2000/svg" fill="none" viewBox="0 0 24 24"><path fill="currentColor" fill-rule="evenodd" d="M12 1.25A2.75 2.75 0 0 0 9.25 4v1.25H4A2.75 2.75 0 0 0 1.25 8v12A2.75 2.75 0 0 0 4 22.75h10A2.75 2.75 0 0 0 16.75 20v-3.25H20A2.75 2.75 0 0 0 22.75 14V6.898a2.75 2.75 0 0 0-.923-2.055l-3.26-2.898a2.75 2.75 0 0 0-1.827-.695zm4.75 14H20c.69 0 1.25-.56 1.25-1.25V6.898a1.25 1.25 0 0 0-.42-.934l-3.26-2.898a1.25 1.25 0 0 0-.83-.316H12c-.69 0-1.25.56-1.25 1.25v1.424c.28.105.543.256.777.448l4.214 3.447a2.75 2.75 0 0 1 1.009 2.129zM2.75 8c0-.69.56-1.25 1.25-1.25h5.786c.289 0 .568.1.792.283l4.214 3.447c.29.238.458.593.458.968V20c0 .69-.56 1.25-1.25 1.25H4c-.69 0-1.25-.56-1.25-1.25z" clip-rule="evenodd"/></svg>