<svg xmlns="http://www.w3.org/2000/svg" fill="none" viewBox="0 0 24 24"><path fill="currentColor" fill-rule="evenodd" d="M9 2.75a1.25 1.25 0 1 0 0 2.5 1.25 1.25 0 0 0 0-2.5M6.25 4a2.75 2.75 0 1 1 5.47.408l4.894 1.223a2.75 2.75 0 1 1 3.208 3.994l.831 7.703a2.751 2.751 0 1 1-3.32 3.345L6.419 19.31a2.75 2.75 0 1 1-2.45-4.059l3.215-9.185A2.74 2.74 0 0 1 6.25 4m2.296 2.713L5.42 15.645a2.75 2.75 0 0 1 1.325 2.193l10.633 1.33a2.76 2.76 0 0 1 1.772-1.784l-.832-7.72a2.75 2.75 0 0 1-2.067-2.577l-5.167-1.292a2.74 2.74 0 0 1-2.538.918M19 5.75a1.25 1.25 0 1 0 0 2.5 1.25 1.25 0 0 0 0-2.5M18.75 20a1.25 1.25 0 1 1 2.5 0 1.25 1.25 0 0 1-2.5 0M4 16.75a1.25 1.25 0 1 0 0 2.5 1.25 1.25 0 0 0 0-2.5" clip-rule="evenodd"/></svg>