<svg xmlns="http://www.w3.org/2000/svg" fill="none" viewBox="0 0 24 24"><path fill="currentColor" fill-rule="evenodd" d="M9.488 1.43a.75.75 0 0 0-.767-.126l-2.5 1A.75.75 0 0 0 5.75 3c0 3.795-1.403 4.988-2.085 5.33A.75.75 0 0 0 3.25 9v12c0 .966.784 1.75 1.75 1.75h14A1.75 1.75 0 0 0 20.75 21V9a.75.75 0 0 0-.415-.67C19.653 7.987 18.25 6.794 18.25 3a.75.75 0 0 0-.471-.696l-2.5-1a.75.75 0 0 0-.782.14 4.2 4.2 0 0 1-2.486.812 4.26 4.26 0 0 1-2.523-.826m.337 1.896c.102.86.305 1.6.593 2.16.417.815.95 1.171 1.582 1.171.631 0 1.165-.356 1.582-1.17.287-.561.49-1.298.593-2.156a5.7 5.7 0 0 1-2.164.425 5.8 5.8 0 0 1-2.186-.43M4.75 9.43c1.16-.777 2.381-2.49 2.492-5.918l1.052-.42c.095 1.155.35 2.223.788 3.08.583 1.138 1.55 1.986 2.918 1.986s2.335-.848 2.918-1.987c.438-.856.693-1.924.788-3.08l1.052.421c.11 3.429 1.333 5.14 2.492 5.918V21a.25.25 0 0 1-.25.25H5a.25.25 0 0 1-.25-.25z" clip-rule="evenodd"/></svg>