<svg xmlns="http://www.w3.org/2000/svg" fill="none" viewBox="0 0 24 24"><path fill="currentColor" fill-rule="evenodd" d="M5.5 1.25a.75.75 0 0 0 0 1.5h.395l-1.24 1.487a1.75 1.75 0 0 0-.405 1.12v13.277c0 .41.144.805.406 1.12l1.968 2.362c.332.4.825.63 1.344.63h8.064c.519 0 1.012-.23 1.344-.63l1.968-2.362a1.75 1.75 0 0 0 .406-1.12V5.358c0-.41-.143-.806-.406-1.12l-1.24-1.488h.396a.75.75 0 0 0 0-1.5zm1.098 3 1.25-1.5h8.304l1.25 1.5zm-.848 1.5h12.5v12.5H5.75zm2.026 15.406L6.605 19.75h10.79l-1.171 1.406a.25.25 0 0 1-.192.09H7.968a.25.25 0 0 1-.192-.09M10.25 12a1.75 1.75 0 1 1 3.5 0 1.75 1.75 0 0 1-3.5 0M12 8.75a3.25 3.25 0 1 0 0 6.5 3.25 3.25 0 0 0 0-6.5" clip-rule="evenodd"/></svg>