<svg xmlns="http://www.w3.org/2000/svg" fill="none" viewBox="0 0 24 24"><path fill="currentColor" fill-rule="evenodd" d="M14.5 1.25a.75.75 0 0 0-.747.682l-.21 2.318H5a.75.75 0 0 0-.745.838L6.047 20.32a2.75 2.75 0 0 0 2.731 2.429h5.444a2.75 2.75 0 0 0 2.73-2.429l1.793-15.233A.75.75 0 0 0 18 4.25h-2.951l.136-1.5H19a.75.75 0 1 0 0-1.5zm-1.094 4.5-.273 3H6.196l-.353-3zm-1.153 12.682.744-8.182H6.373l1.164 9.896a1.25 1.25 0 0 0 1.241 1.104h5.444a1.25 1.25 0 0 0 1.24-1.104l1.165-9.896h-2.124l-.756 8.318a.75.75 0 0 1-1.494-.136M14.64 8.75h2.164l.353-3h-2.245zM10 15a1 1 0 1 0 0 2h.009a1 1 0 1 0 0-2z" clip-rule="evenodd"/></svg>