<svg xmlns="http://www.w3.org/2000/svg" fill="none" viewBox="0 0 24 24"><path fill="currentColor" fill-rule="evenodd" d="M7.75 5c0-.39-.081-.76-.227-1.096A9.2 9.2 0 0 1 12 2.75 9.25 9.25 0 0 1 21.25 12a9.2 9.2 0 0 1-1.154 4.477 2.75 2.75 0 0 0-3.619 3.62A9.2 9.2 0 0 1 12 21.25 9.25 9.25 0 0 1 2.75 12c0-1.625.419-3.151 1.154-4.477A2.75 2.75 0 0 0 7.75 5m15 7c0 1.987-.54 3.85-1.48 5.447a2.75 2.75 0 0 1-3.823 3.823A10.7 10.7 0 0 1 12 22.75C6.063 22.75 1.25 17.937 1.25 12c0-1.987.54-3.85 1.48-5.447A2.75 2.75 0 0 1 6.553 2.73 10.7 10.7 0 0 1 12 1.25c5.937 0 10.75 4.813 10.75 10.75m-19-7a1.25 1.25 0 1 1 2.5 0 1.25 1.25 0 0 1-2.5 0m14 14a1.25 1.25 0 1 1 2.5 0 1.25 1.25 0 0 1-2.5 0M12.508 6.448a.75.75 0 0 0-1.016 0l-1.161 1.07-1.565-.061a.75.75 0 0 0-.773.65L7.78 9.691l-1.244.979a.75.75 0 0 0-.173.985l.84 1.355-.333 1.566a.75.75 0 0 0 .5.87l1.495.486.733 1.412a.75.75 0 0 0 .953.348l1.449-.6 1.45.6a.75.75 0 0 0 .952-.347l.733-1.412 1.494-.487a.75.75 0 0 0 .502-.87l-.334-1.565.84-1.355a.75.75 0 0 0-.173-.985l-1.244-.979-.213-1.586a.75.75 0 0 0-.773-.65l-1.565.062zM11.12 8.831 12 8.02l.881.811a.75.75 0 0 0 .538.198l1.192-.047.163 1.211a.75.75 0 0 0 .28.49l.955.752-.646 1.041a.75.75 0 0 0-.096.552l.256 1.201-1.144.373a.75.75 0 0 0-.434.367l-.557 1.075-1.1-.457a.75.75 0 0 0-.575 0l-1.1.457-.558-1.075a.75.75 0 0 0-.434-.367l-1.144-.373.257-1.201a.75.75 0 0 0-.097-.552l-.646-1.041.955-.752a.75.75 0 0 0 .28-.49l.163-1.21 1.192.046a.75.75 0 0 0 .538-.198" clip-rule="evenodd"/></svg>