<svg xmlns="http://www.w3.org/2000/svg" fill="none" viewBox="0 0 24 24"><path fill="currentColor" fill-rule="evenodd" d="M7 2.75A2.25 2.25 0 0 0 4.75 5v14A2.25 2.25 0 0 0 7 21.25h10A2.25 2.25 0 0 0 19.25 19V5A2.25 2.25 0 0 0 17 2.75zM3.25 5A3.75 3.75 0 0 1 7 1.25h10A3.75 3.75 0 0 1 20.75 5v14A3.75 3.75 0 0 1 17 22.75H7A3.75 3.75 0 0 1 3.25 19zM12 11.75a2.75 2.75 0 1 0 0 5.5 2.75 2.75 0 0 0 0-5.5M7.75 14.5a4.25 4.25 0 1 1 8.5 0 4.25 4.25 0 0 1-8.5 0M9.5 5.25a.75.75 0 0 0 0 1.5h5a.75.75 0 0 0 0-1.5z" clip-rule="evenodd"/></svg>