<svg xmlns="http://www.w3.org/2000/svg" fill="none" viewBox="0 0 24 24"><path fill="currentColor" fill-rule="evenodd" d="M18.5 2.75h-13c-.69 0-1.25.56-1.25 1.25v16c0 .69.56 1.25 1.25 1.25h13c.69 0 1.25-.56 1.25-1.25V4c0-.69-.56-1.25-1.25-1.25m-13-1.5h13A2.75 2.75 0 0 1 21.25 4v16a2.75 2.75 0 0 1-2.75 2.75h-13A2.75 2.75 0 0 1 2.75 20V4A2.75 2.75 0 0 1 5.5 1.25m6.5 11a2.75 2.75 0 1 0 0 5.5 2.75 2.75 0 0 0 0-5.5M7.75 15a4.25 4.25 0 1 1 8.5 0 4.25 4.25 0 0 1-8.5 0m3.5-8a.75.75 0 1 1 1.5 0 .75.75 0 0 1-1.5 0M12 4.75a2.25 2.25 0 1 0 0 4.5 2.25 2.25 0 0 0 0-4.5" clip-rule="evenodd"/></svg>