<svg xmlns="http://www.w3.org/2000/svg" fill="none" viewBox="0 0 24 24"><path fill="currentColor" fill-rule="evenodd" d="M5 1.25a.75.75 0 0 1 .75.75v8a.75.75 0 0 1-1.5 0V2A.75.75 0 0 1 5 1.25m3 1.778a.75.75 0 0 1 .75.75v4.444a.75.75 0 1 1-1.5 0V3.778a.75.75 0 0 1 .75-.75m-6 .889a.75.75 0 0 1 .75.75v2.666a.75.75 0 1 1-1.5 0V4.667a.75.75 0 0 1 .75-.75m9 0a.75.75 0 0 1 .75.75v2.666a.75.75 0 0 1-1.5 0V4.667a.75.75 0 0 1 .75-.75M9.25 17a.75.75 0 0 1 .75-.75h6a.75.75 0 0 1 0 1.5h-6a.75.75 0 0 1-.75-.75M14.5 3.25a.75.75 0 0 0 0 1.5H19A2.25 2.25 0 0 1 21.25 7v12A2.25 2.25 0 0 1 19 21.25H7A2.25 2.25 0 0 1 4.75 19v-5.5a.75.75 0 0 0-1.5 0V19A3.75 3.75 0 0 0 7 22.75h12A3.75 3.75 0 0 0 22.75 19V7A3.75 3.75 0 0 0 19 3.25z" clip-rule="evenodd"/></svg>