<svg xmlns="http://www.w3.org/2000/svg" fill="none" viewBox="0 0 24 24"><path fill="currentColor" fill-rule="evenodd" d="M6.75 6.5a5.25 5.25 0 1 1 10.5 0v1.75H18A2.75 2.75 0 0 1 20.75 11v9A2.75 2.75 0 0 1 18 22.75H6A2.75 2.75 0 0 1 3.25 20v-9A2.75 2.75 0 0 1 6 8.25h.75zm.75 3.25H6c-.69 0-1.25.56-1.25 1.25v9c0 .69.56 1.25 1.25 1.25h12c.69 0 1.25-.56 1.25-1.25v-9c0-.69-.56-1.25-1.25-1.25zm8.25-1.5h-7.5V6.5a3.75 3.75 0 1 1 7.5 0zM12 13.75a.75.75 0 0 1 .75.75v2a.75.75 0 0 1-1.5 0v-2a.75.75 0 0 1 .75-.75" clip-rule="evenodd"/></svg>