<svg xmlns="http://www.w3.org/2000/svg" fill="none" viewBox="0 0 24 24"><path fill="currentColor" fill-rule="evenodd" d="M1.75 4.5A2.75 2.75 0 0 1 4.5 1.75h15a2.75 2.75 0 0 1 2.75 2.75v15a2.75 2.75 0 0 1-2.75 2.75h-15a2.75 2.75 0 0 1-2.75-2.75zM4.5 3.25c-.69 0-1.25.56-1.25 1.25v15c0 .69.56 1.25 1.25 1.25h15c.69 0 1.25-.56 1.25-1.25v-15c0-.69-.56-1.25-1.25-1.25zM7.25 7A.75.75 0 0 1 8 6.25h8a.75.75 0 0 1 0 1.5H8A.75.75 0 0 1 7.25 7m5.28 2.47a.75.75 0 0 0-1.06 0l-2.5 2.5a.75.75 0 1 0 1.06 1.06l1.22-1.22V17a.75.75 0 0 0 1.5 0v-5.19l1.22 1.22a.75.75 0 1 0 1.06-1.06z" clip-rule="evenodd"/></svg>