<svg xmlns="http://www.w3.org/2000/svg" fill="none" viewBox="0 0 24 24"><path fill="currentColor" fill-rule="evenodd" d="M2.75 12a9.25 9.25 0 1 1 18.5 0 9.25 9.25 0 0 1-18.5 0M12 1.25C6.063 1.25 1.25 6.063 1.25 12S6.063 22.75 12 22.75 22.75 17.937 22.75 12 17.937 1.25 12 1.25m4.25 6c-1.15 0-2 .98-2 2.083a.75.75 0 0 0 1.5 0c0-.368.269-.583.5-.583s.5.215.5.583c0 .203-.09.378-.218.481l-2 1.6A.75.75 0 0 0 15 12.75h2.5a.75.75 0 0 0 0-1.5h-.362l.33-.264a2.11 2.11 0 0 0 .782-1.653c0-1.104-.85-2.083-2-2.083m-9.25 3a.75.75 0 0 0 0 1.5h.5a.54.54 0 0 1 .456.265l.675 1.408-.82 1.139a1.62 1.62 0 0 1-1.311.688.75.75 0 0 0 0 1.5 3.12 3.12 0 0 0 2.529-1.312l.342-.475.321.67c.34.709 1.093 1.117 1.808 1.117h.5a.75.75 0 0 0 0-1.5h-.5a.54.54 0 0 1-.456-.265l-.675-1.408.82-1.139c.316-.44.804-.688 1.311-.688a.75.75 0 0 0 0-1.5 3.12 3.12 0 0 0-2.529 1.312l-.342.475-.321-.67c-.34-.709-1.093-1.117-1.808-1.117z" clip-rule="evenodd"/></svg>