<svg xmlns="http://www.w3.org/2000/svg" fill="none" viewBox="0 0 24 24"><path fill="currentColor" fill-rule="evenodd" d="m18.3 13.48 2.37 5.21h.02c.11.26.08.55-.09.77s-.44.33-.72.28l-2.42-.4-1.27 2.96a.751.751 0 0 1-1.38-.01l-2.32-5.56c-.16.01-.32.02-.49.02s-.329-.01-.488-.02h-.001l-2.32 5.56a.751.751 0 0 1-1.38.01l-1.27-2.96-2.42.4a.74.74 0 0 1-.72-.28.76.76 0 0 1-.09-.77l2.37-5.21A7.72 7.72 0 0 1 4.24 9c0-4.27 3.48-7.75 7.75-7.75S19.74 4.73 19.74 9c0 1.67-.54 3.21-1.44 4.48M7.68 18.2l.8 1.87v.01l1.5-3.6a7.7 7.7 0 0 1-3.21-1.77l-1.51 3.32 1.61-.27c.34-.06.67.12.81.44m4.31-15.45c-3.45 0-6.25 2.8-6.25 6.25s2.8 6.25 6.25 6.25 6.25-2.8 6.25-6.25-2.8-6.25-6.25-6.25M16.3 18.2c.13-.31.47-.5.81-.44v-.01l1.61.27-1.51-3.32c-.9.83-1.99 1.44-3.21 1.77l1.5 3.6zM13.73 6.38l1.57.26h.04c.41.07.75.36.88.76.13.41.03.85-.26 1.16l-1.15 1.2.25 1.68c.06.44-.12.86-.47 1.11-.34.24-.79.27-1.16.07l-1.41-.75-1.41.75c-.16.09-.34.13-.52.13-.22 0-.45-.06-.64-.2-.36-.25-.53-.68-.47-1.11l.25-1.68-1.15-1.2c-.3-.31-.4-.75-.26-1.16.13-.4.47-.69.88-.76l1.57-.26.73-1.5c.19-.39.58-.63 1-.63s.81.24 1 .63zm-.46 3.42c-.05-.35.06-.71.3-.96l.8-.84-1.09-.18a1.13 1.13 0 0 1-.82-.62l-.47-.97-.47.97c-.16.33-.47.56-.82.62L9.61 8l.8.84c.24.25.35.61.3.96l-.17 1.13.93-.49c.16-.09.34-.13.52-.13s.36.04.52.13l.93.49z" clip-rule="evenodd"/></svg>