<svg xmlns="http://www.w3.org/2000/svg" fill="none" viewBox="0 0 24 24"><path fill="currentColor" d="M11.699 22.73h-.02c-1.45-.04-2.85-.37-4.16-.97a.746.746 0 0 1-.37-.99c.17-.37.62-.54.99-.37 1.13.52 2.33.8 3.58.83.41.01.74.36.73.77s-.35.73-.75.73m3.92-.68c-.3 0-.58-.18-.7-.48-.15-.39.04-.82.43-.97 1.16-.45 2.2-1.12 3.09-1.99.3-.29.77-.28 1.06.02s.28.77-.02 1.06a10.7 10.7 0 0 1-3.59 2.31c-.09.03-.18.05-.27.05m-11-2.56c-.2 0-.4-.08-.55-.24-.98-1.07-1.72-2.3-2.21-3.66a.75.75 0 1 1 1.41-.51 9.3 9.3 0 0 0 1.9 3.15c.28.3.26.78-.05 1.06-.14.13-.33.2-.51.2zm16.58-2.87a.75.75 0 0 1-.69-1.04c.48-1.14.73-2.35.73-3.6 0-.41.34-.75.75-.75s.75.34.75.75c0 1.45-.29 2.86-.85 4.19-.12.29-.4.46-.69.46zm-19.19-4.46h-.04a.756.756 0 0 1-.71-.79c.08-1.44.45-2.83 1.09-4.13a.74.74 0 0 1 1-.34c.37.18.52.63.34 1a9.2 9.2 0 0 0-.93 3.55c-.02.4-.35.71-.75.71m19.58-2.24c-.33 0-.62-.21-.72-.54a9.3 9.3 0 0 0-1.72-3.25.76.76 0 0 1 .11-1.06.76.76 0 0 1 1.06.11c.92 1.12 1.59 2.39 1.99 3.78a.746.746 0 0 1-.72.96M5.449 5.17c-.21 0-.42-.09-.57-.26a.75.75 0 0 1 .08-1.06c1.09-.95 2.35-1.66 3.72-2.1.4-.13.82.09.95.48s-.09.82-.48.95c-1.18.38-2.26.99-3.2 1.81-.14.12-.32.18-.49.18zm11.21-1.28a.73.73 0 0 1-.35-.09c-1.1-.58-2.28-.93-3.52-1.04a.75.75 0 0 1-.68-.81.75.75 0 0 1 .81-.68c1.44.12 2.82.53 4.1 1.21.37.19.51.65.31 1.01-.13.25-.39.4-.66.4z"/></svg>