<svg xmlns="http://www.w3.org/2000/svg" fill="none" viewBox="0 0 24 24"><path fill="currentColor" fill-rule="evenodd" d="M17 1.25a5.75 5.75 0 1 0 0 11.5 5.75 5.75 0 0 0 0-11.5M12.75 7a4.25 4.25 0 1 1 8.5 0 4.25 4.25 0 0 1-8.5 0m6.826-1.02a.75.75 0 0 0-1.152-.96L16.45 7.389l-.92-.92a.75.75 0 1 0-1.06 1.061l1.5 1.5a.75.75 0 0 0 1.106-.05zm-16.28-.236A.75.75 0 0 1 4 5.25h5.5a.75.75 0 1 1 0 1.5H4.525l-1.684 4.632c.243.324.54.685.88 1.005.462.435.941.735 1.41.818.72.127 1.87.036 2.713-.868.357-.383.686-.967.88-1.87a.75.75 0 0 1 1.466.314c-.167.78-.43 1.428-.768 1.957a2.74 2.74 0 0 0 2.35.32.75.75 0 0 1 .457 1.428c-1.633.523-3.004-.032-3.828-.634-1.216.931-2.643.987-3.531.83a3.6 3.6 0 0 1-1.12-.41V20c0 .69.56 1.25 1.25 1.25h12c.69 0 1.25-.56 1.25-1.25v-5a.75.75 0 0 1 1.5 0v5A2.75 2.75 0 0 1 17 22.75H5A2.75 2.75 0 0 1 2.25 20v-6.974c-.36-.399-.652-.795-.863-1.093a.75.75 0 0 1-.092-.69z" clip-rule="evenodd"/></svg>