<svg xmlns="http://www.w3.org/2000/svg" fill="none" viewBox="0 0 24 24"><path fill="currentColor" fill-rule="evenodd" d="M5.844 2.75A3.1 3.1 0 0 0 2.75 5.857c0 .942.417 1.786 1.077 2.356a5.7 5.7 0 0 1 2.026-.84 6.26 6.26 0 0 1 2.186-3.706 3.08 3.08 0 0 0-2.195-.917M1.25 5.857c0 1.319.553 2.509 1.439 3.348a5.74 5.74 0 0 0-1.439 3.81c0 2.384 1.44 4.274 3.444 5.17a.75.75 0 0 0 .612-1.37c-1.529-.683-2.556-2.077-2.556-3.8A4.255 4.255 0 0 1 7 8.758c.958 0 1.84.316 2.55.85a.75.75 0 1 0 .901-1.198 5.7 5.7 0 0 0-3.04-1.138A4.754 4.754 0 0 1 12 3.75a4.754 4.754 0 0 1 4.73 5.192 4.74 4.74 0 0 1-1.066 2.595.75.75 0 1 0 1.158.954 6.24 6.24 0 0 0 1.293-2.682 3.756 3.756 0 0 1 3.135 3.707c0 1.582-.989 2.742-2.5 3.277a.75.75 0 0 0 .5 1.414c1.984-.702 3.5-2.349 3.5-4.691a5.256 5.256 0 0 0-4.503-5.204A6.254 6.254 0 0 0 9.325 2.85a4.58 4.58 0 0 0-3.481-1.6A4.6 4.6 0 0 0 1.25 5.857m11.266 6.599a.75.75 0 0 0-1.032 0l-1.093 1.036-.02.02a2.167 2.167 0 0 0 .042 3.078c.413.4.968.66 1.587.66.62 0 1.174-.26 1.587-.66a2.167 2.167 0 0 0 .022-3.098zm-1.08 2.113.564-.536.565.536c.252.266.25.68-.024.945a.78.78 0 0 1-.541.236.78.78 0 0 1-.541-.236.667.667 0 0 1-.024-.945m-2.42 3.387a.75.75 0 0 0-1.032 0L6.89 18.992l-.02.02a2.167 2.167 0 0 0 .042 3.078c.413.4.968.66 1.587.66.62 0 1.174-.26 1.587-.66a2.167 2.167 0 0 0 .022-3.098zm7 0a.75.75 0 0 0-1.032 0l-1.093 1.036-.02.02a2.167 2.167 0 0 0 .042 3.078c.413.4.968.66 1.587.66.62 0 1.174-.26 1.587-.66a2.167 2.167 0 0 0 .022-3.098zm-8.057 3.058a.667.667 0 0 1-.024-.945l.565-.536.565.536c.252.266.25.68-.024.945a.78.78 0 0 1-.541.236.78.78 0 0 1-.541-.236m7 0a.667.667 0 0 1-.024-.945l.565-.536.565.536c.252.266.25.68-.024.945a.78.78 0 0 1-.541.236.78.78 0 0 1-.541-.236" clip-rule="evenodd"/></svg>