<svg xmlns="http://www.w3.org/2000/svg" fill="none" viewBox="0 0 24 24"><path fill="currentColor" fill-rule="evenodd" d="M5.844 3.75A3.1 3.1 0 0 0 2.75 6.857c0 .88.363 1.673.949 2.238a5.8 5.8 0 0 1 2.158-.901 6.02 6.02 0 0 1 2.158-3.55 3.08 3.08 0 0 0-2.171-.894M1.25 6.857a4.6 4.6 0 0 0 1.328 3.24 5.46 5.46 0 0 0-1.328 3.57c0 3.107 2.599 5.583 5.75 5.583a.75.75 0 0 0 0-1.5c-2.371 0-4.25-1.852-4.25-4.083 0-2.101 1.664-3.865 3.84-4.065q.201-.019.41-.019c.964 0 1.85.308 2.56.824a.75.75 0 1 0 .881-1.214 5.83 5.83 0 0 0-3.02-1.095C7.973 6.181 9.8 4.75 12 4.75c2.648 0 4.75 2.068 4.75 4.567q0 .21-.02.413a4.45 4.45 0 0 1-1.057 2.483.75.75 0 1 0 1.14.974 6 6 0 0 0 1.297-2.59c1.798.281 3.14 1.784 3.14 3.553 0 1.964-1.655 3.6-3.75 3.6a.75.75 0 0 0 0 1.5c2.875 0 5.25-2.26 5.25-5.1 0-2.59-1.975-4.698-4.504-5.049C18.13 5.83 15.354 3.25 12 3.25c-.96 0-1.87.21-2.686.588a4.58 4.58 0 0 0-3.47-1.588A4.6 4.6 0 0 0 1.25 6.857m11.974 7.526a.75.75 0 1 0-1.29-.766l-2.079 3.5a.75.75 0 0 0 .645 1.133h1.683l-1.406 2.367a.75.75 0 0 0 1.29.766l2.078-3.5a.75.75 0 0 0-.645-1.133h-1.682z" clip-rule="evenodd"/></svg>