<svg xmlns="http://www.w3.org/2000/svg" fill="none" viewBox="0 0 24 24"><path fill="currentColor" fill-rule="evenodd" d="M7.455 1.25a.75.75 0 0 1 .75.75v.81a4.7 4.7 0 0 1 2.77 1.524 6.25 6.25 0 0 1 7.273 5.969A5.25 5.25 0 0 1 22.75 15.5c0 1.306-.242 2.505-1.207 3.517a.75.75 0 1 1-1.086-1.034c.59-.62.793-1.368.793-2.483a3.75 3.75 0 0 0-3.136-3.7 6.2 6.2 0 0 1-1.293 2.678.75.75 0 1 1-1.156-.956A4.72 4.72 0 0 0 16.75 10.5a4.75 4.75 0 0 0-9.338-1.235c1.135.08 2.18.49 3.039 1.135a.75.75 0 1 1-.901 1.2 4.23 4.23 0 0 0-2.959-.83 4.2 4.2 0 0 0-1.365.367 1 1 0 0 1-.144.07A4.25 4.25 0 0 0 2.75 15c0 1.172.474 2.155 1.283 2.973a.75.75 0 0 1-1.066 1.055C1.925 17.974 1.25 16.626 1.25 15c0-1.93.95-3.636 2.407-4.68a4.75 4.75 0 0 1-.863-2.07H2a.75.75 0 0 1 0-1.5h.794a4.74 4.74 0 0 1 .839-2.037l-.68-.685a.75.75 0 0 1 1.064-1.056l.673.678a4.7 4.7 0 0 1 2.015-.84V2a.75.75 0 0 1 .75-.75m0 3c.696 0 1.34.222 1.867.601a6.26 6.26 0 0 0-3.469 4.514 6 6 0 0 0-.85.241A3.25 3.25 0 0 1 4.235 7.5c0-.892.355-1.698.93-2.284l.012-.012.02-.02a3.2 3.2 0 0 1 2.258-.934m5.409 10.25a1 1 0 1 0-1.732 1l.005.008a1 1 0 0 0 1.731-1zm-3 2.997a1 1 0 0 0-1.73 1l.004.008a1 1 0 1 0 1.731-1zm5.999 0a1 1 0 0 0-1.732 1l.004.008a1 1 0 0 0 1.732-1zm-8.997 2.996a1 1 0 1 0-1.732 1l.005.009A1 1 0 0 0 6.87 20.5zm11.996 0a1 1 0 0 0-1.732 1l.004.009a1 1 0 1 0 1.732-1.001zm-5.998 1a1 1 0 1 0-1.732 1l.005.007a1 1 0 0 0 1.731-1z" clip-rule="evenodd"/></svg>