<svg xmlns="http://www.w3.org/2000/svg" fill="none" viewBox="0 0 24 24"><path fill="currentColor" fill-rule="evenodd" d="M7.955 2a.75.75 0 1 0-1.5 0v.81a4.7 4.7 0 0 0-2.017.841l-.408-.408a.75.75 0 1 0-1.06 1.06l.411.412a4.74 4.74 0 0 0-.837 2.035H2a.75.75 0 0 0 0 1.5h.544c.115.733.398 1.411.807 1.992A4.94 4.94 0 0 0 2.25 13.35c0 2.926 2.568 4.656 5.15 5.198 2.589.543 5.737.028 7.343-2.089l.04-.058c.534-.86.431-1.834-.029-2.562A2.67 2.67 0 0 0 12.5 12.6c-1.413 0-2.65 1.08-2.65 2.52a.75.75 0 1 0 1.5 0c0-.514.464-1.02 1.15-1.02.427 0 .788.226.986.54.189.299.213.64.04.942-1.12 1.44-3.528 1.978-5.818 1.498-2.31-.485-3.958-1.871-3.958-3.73 0-1.865 1.54-3.474 3.61-3.658a4 4 0 0 1 .39-.017 4.2 4.2 0 0 1 2.42.75.75.75 0 1 0 .86-1.23 5.7 5.7 0 0 0-2.82-1.002c.544-1.676 2.23-2.943 4.29-2.943 2.522 0 4.475 1.893 4.475 4.118q0 .187-.018.37a3.93 3.93 0 0 1-.988 2.23.75.75 0 1 0 1.123.995 5.5 5.5 0 0 0 1.237-2.356c1.694.266 2.921 1.63 2.921 3.186 0 1.736-1.527 3.233-3.525 3.233a.75.75 0 0 0 0 1.5c2.724 0 5.025-2.07 5.025-4.733 0-2.416-1.895-4.345-4.281-4.68-.143-3.03-2.808-5.363-5.969-5.363a6.3 6.3 0 0 0-1.896.29 5.46 5.46 0 0 0-2.649-1.228zM9.06 4.775c-.56-.32-1.23-.525-1.855-.525a3.2 3.2 0 0 0-2.276.952l-.015.014A3.25 3.25 0 0 0 3.985 7.5c0 .625.174 1.208.477 1.703a5.7 5.7 0 0 1 2.174-.921c.302-1.456 1.196-2.694 2.423-3.507m5.752 15.068a.55.55 0 0 1 .305-.093c.295 0 .634.278.634.75s-.34.75-.634.75a.5.5 0 0 1-.194-.036.75.75 0 0 0-.536 1.401c.228.087.474.135.73.135 1.234 0 2.134-1.065 2.134-2.25s-.9-2.25-2.134-2.25a2.05 2.05 0 0 0-1.187.38c-.977.728-2.821 1.681-4.901 1.926a.75.75 0 1 0 .175 1.49c2.38-.28 4.459-1.35 5.608-2.203m-10.98.368a.75.75 0 0 1 1.006-.333 6.8 6.8 0 0 0 1.664.582.75.75 0 1 1-.31 1.467 8.3 8.3 0 0 1-2.028-.71.75.75 0 0 1-.333-1.006M20 20.25a.75.75 0 0 0 0 1.5h2a.75.75 0 0 0 0-1.5z" clip-rule="evenodd"/></svg>