<svg xmlns="http://www.w3.org/2000/svg" fill="none" viewBox="0 0 24 24"><path fill="currentColor" fill-rule="evenodd" d="M2.75 12c0-1.106.194-2.167.55-3.15v.006c.05.497.15 1.173.357 1.86.203.678.526 1.42 1.051 2.005.545.605 1.302 1.029 2.292 1.029 1.583 0 2.899-1.087 3.737-1.99A11.6 11.6 0 0 0 12 10.12q.091.146.234.353c.241.349.592.816 1.029 1.287.838.903 2.154 1.99 3.737 1.99.99 0 1.747-.424 2.292-1.03.525-.584.848-1.326 1.051-2.005A10 10 0 0 0 20.7 8.85c.356.983.55 2.044.55 3.15a9.25 9.25 0 0 1-18.5 0m17.189-4.75A9.24 9.24 0 0 0 12 2.75a9.24 9.24 0 0 0-7.939 4.5c1.977 0 5.149.001 7.825 1.607q.062.038.114.084a1 1 0 0 1 .114-.084C14.79 7.25 17.962 7.25 19.94 7.25m-8.174 2.402L11.5 9.5zm.47 0L12.5 9.5zM20.343 8H20zM4 8h-.343zm8-6.75C6.063 1.25 1.25 6.063 1.25 12S6.063 22.75 12 22.75 22.75 17.937 22.75 12 17.937 1.25 12 1.25M9.45 15.4a.75.75 0 0 0-.9 1.2A5.73 5.73 0 0 0 12 17.75c1.294 0 2.49-.428 3.45-1.15a.75.75 0 1 0-.9-1.2c-.71.534-1.592.85-2.55.85s-1.84-.316-2.55-.85M4.799 8.753c.045.434.132.988.295 1.531.172.572.412 1.08.73 1.433.299.332.667.533 1.177.533.917 0 1.851-.663 2.638-1.51.315-.34.582-.682.785-.965-1.848-.871-3.918-1.002-5.625-1.022m14.109 1.531a8.5 8.5 0 0 0 .295-1.53c-1.707.019-3.777.15-5.625 1.02.203.284.47.626.785.966.787.847 1.721 1.51 2.638 1.51.51 0 .878-.201 1.177-.533.318-.353.558-.86.73-1.433" clip-rule="evenodd"/></svg>