<svg xmlns="http://www.w3.org/2000/svg" fill="none" viewBox="0 0 24 24"><path fill="currentColor" fill-rule="evenodd" d="M13.75 5.167c0-.524.166-.867.371-1.076.207-.211.507-.341.879-.341s.672.13.879.34c.205.21.371.553.371 1.077 0 .168-.063.388-.215.655a4.2 4.2 0 0 1-.583.767 7 7 0 0 1-.452.44 7 7 0 0 1-.452-.44 4.2 4.2 0 0 1-.583-.767c-.152-.267-.215-.487-.215-.655m.809 3.44.435-.6za.75.75 0 0 0 .882 0L15 8l.441.607.001-.001.002-.002.007-.005.021-.015.074-.056a9 9 0 0 0 1.003-.915c.273-.294.564-.652.79-1.05.224-.395.411-.875.411-1.396 0-.857-.282-1.597-.8-2.127-.517-.527-1.217-.79-1.95-.79s-1.433.263-1.95.79c-.519.53-.8 1.27-.8 2.127 0 .521.187 1.001.41 1.395.226.399.518.757.792 1.05a9 9 0 0 0 1.076.972l.021.015.007.005zm-11.749-.4c.14-.576.48-1.002.975-1.239.503-.242 1.24-.321 2.199-.038.83.246 1.656 1.094 2.321 2.036.299.422.542.83.716 1.145-.286.171-.665.38-1.094.572-.99.445-2.066.719-2.885.477-1.897-.561-2.494-1.865-2.232-2.953M10 10.37l.681-.314zm.438.609-.004.003-.008.006-.031.021-.11.075a12 12 0 0 1-1.744.966c-1.047.471-2.557.951-3.924.547-2.477-.731-3.757-2.7-3.265-4.742.239-.99.861-1.796 1.784-2.24.913-.438 2.045-.486 3.273-.123 1.355.4 2.432 1.633 3.122 2.609a14 14 0 0 1 1.127 1.907l.016.035.005.01.001.003.001.001a.75.75 0 0 1-.243.923m0 0L10 10.37zm4.828.067c-.6.183-1.233.457-1.89.833-.593.34-1.127.824-1.603 1.393.141 1.149.713 2.372 1.545 3.526a13.7 13.7 0 0 0 3.114 3.088 1 1 0 0 1 .075.06 5.5 5.5 0 0 0 1.27-.517 9.5 9.5 0 0 0 1.446-1.008c-2.253-1.757-3.787-4.432-3.957-7.375m1.488-.284c.087 2.603 1.45 5.015 3.51 6.567.317-.42.552-.846.713-1.268.442-1.157.34-2.328-.255-3.351s-1.568-1.7-2.803-1.9a5 5 0 0 0-1.165-.048m-2.297 9.478a15.3 15.3 0 0 1-2.356-2.565c-.605-.84-1.125-1.764-1.46-2.725a16 16 0 0 0-.83 1.741 22 22 0 0 0-.92 2.792q.165.046.365.099c.643.168 1.535.37 2.536.507a15.6 15.6 0 0 0 2.665.151m-7.193-.388.736.145zm.495.856h.002l.005.002.016.005.06.02.224.07a23.6 23.6 0 0 0 3.522.77c2.106.29 4.86.344 6.935-.845 1.96-1.123 3.259-2.57 3.856-4.134.6-1.576.466-3.22-.36-4.64S19.83 9.6 18.16 9.33c-1.66-.268-3.569.125-5.528 1.248-2.076 1.19-3.407 3.588-4.208 5.544a23 23 0 0 0-1.14 3.644l-.014.061-.003.018-.001.005v.002a.75.75 0 0 0 .494.856m.241-.71-.24.71c-.001 0-.002 0 .24-.71" clip-rule="evenodd"/></svg>