<svg xmlns="http://www.w3.org/2000/svg" fill="none" viewBox="0 0 24 24"><path fill="currentColor" fill-rule="evenodd" d="M12 3.25a9.22 9.22 0 0 0-6.584 2.753c1.349 1.93 1.704 4.496.936 6.747h11.299c-.768-2.25-.413-4.816.934-6.746A9.22 9.22 0 0 0 12 3.25M2.75 12.5c0-1.967.614-3.79 1.66-5.29.972 1.635 1.128 3.76.332 5.54H2.753zm18.497.25H19.26c-.796-1.78-.64-3.903.33-5.538a9.2 9.2 0 0 1 1.656 5.538M1.25 12.5C1.25 6.563 6.063 1.75 12 1.75S22.75 6.563 22.75 12.5q0 .543-.053 1.074a.75.75 0 0 1-.746.676H2.049a.75.75 0 0 1-.746-.676A11 11 0 0 1 1.25 12.5m15.795 3.471c-1.459-.582-2.956.02-3.74 1.188a2.29 2.29 0 0 0-2.61 0c-.784-1.169-2.281-1.77-3.74-1.188-.182.073-.39.142-.635.222l-.301.1a9 9 0 0 0-1.156.46c-.577.29-1.221.75-1.487 1.496H2a.75.75 0 0 0 0 1.5h1.376c.266.746.91 1.207 1.487 1.495.384.193.795.34 1.156.461l.301.1c.245.08.453.149.635.222 2.107.842 4.295-.789 4.295-3.028q0-.144-.012-.284c.199-.312.488-.466.762-.466s.563.154.762.466a3 3 0 0 0-.012.284c0 2.24 2.188 3.87 4.295 3.028.182-.073.39-.141.635-.222l.301-.1a9 9 0 0 0 1.156-.46c.577-.29 1.221-.75 1.487-1.496H22a.75.75 0 0 0 0-1.5h-1.376c-.266-.746-.91-1.207-1.487-1.495a9 9 0 0 0-1.156-.461l-.301-.1c-.245-.08-.453-.149-.635-.222M14.25 19c0-1.266 1.197-2.05 2.238-1.635.23.092.504.182.765.268l.25.083c.35.117.677.237.962.38.59.295.785.572.785.904s-.196.61-.785.904a8 8 0 0 1-.962.38l-.25.083a14 14 0 0 0-.765.268c-1.041.416-2.238-.369-2.238-1.635m-6.738-1.635c1.041-.416 2.238.369 2.238 1.635s-1.197 2.051-2.238 1.635c-.23-.092-.504-.182-.765-.268l-.25-.083a8 8 0 0 1-.963-.38c-.588-.295-.784-.572-.784-.904s.196-.61.784-.904c.286-.143.613-.263.963-.38l.25-.083c.261-.086.535-.176.765-.268" clip-rule="evenodd"/></svg>