<svg xmlns="http://www.w3.org/2000/svg" fill="none" viewBox="0 0 24 24"><path fill="currentColor" fill-rule="evenodd" d="M7.25 3.75a1 1 0 0 1 2 0V9.5a.75.75 0 0 0 .783.75c1.604-.072 4.335.307 6.256 2.24.416.42.553 1.167.401 2.181-.146.978-.533 1.995-.868 2.694l-.012.027-.998 2.31a.8.8 0 0 0-.062.298v2a.75.75 0 0 0 1.5 0v-1.845L17.181 18c.371-.777.817-1.937.993-3.107.17-1.14.115-2.518-.82-3.46-2.035-2.047-4.74-2.622-6.604-2.685V3.75a2.5 2.5 0 0 0-5 0v5.884a23 23 0 0 0-1.26 1.08 14 14 0 0 0-1.203 1.242c-.357.426-.701.916-.872 1.406-.303.872-.148 1.677.133 2.358.215.523.534 1.035.803 1.465l.183.296c.283.466.903 1.237 1.413 1.851.263.316.51.607.69.817l.113.13V22a.75.75 0 0 0 1.5 0v-2a.75.75 0 0 0-.186-.494v-.001l-.02-.021-.057-.067a67 67 0 0 1-.886-1.044c-.529-.635-1.071-1.318-1.285-1.67l-.226-.367c-.26-.42-.492-.792-.655-1.187-.196-.475-.246-.883-.103-1.294.08-.23.283-.55.605-.936a13 13 0 0 1 1.071-1.104l.242-.219V14a.75.75 0 0 0 1.5 0zm11.78-2.28a.75.75 0 1 0-1.06 1.06l1.22 1.22H15a.75.75 0 0 0 0 1.5h4.19l-1.22 1.22a.75.75 0 0 0 1.06 1.06l2.5-2.5a.75.75 0 0 0 0-1.06z" clip-rule="evenodd"/></svg>