<svg xmlns="http://www.w3.org/2000/svg" fill="none" viewBox="0 0 24 24"><path fill="currentColor" fill-rule="evenodd" d="M18.03 2.53a.75.75 0 0 0-1.06-1.06l-2.5 2.5a.75.75 0 0 0 0 1.06l2.5 2.5a.75.75 0 1 0 1.06-1.06l-1.22-1.22H21a.75.75 0 0 0 0-1.5h-4.19zM8.755 4.75a1 1 0 1 1 2 0V11c0 .414.336.75.75.75H16A2.25 2.25 0 0 1 18.25 14v5A2.25 2.25 0 0 1 16 21.25H9.07a1.25 1.25 0 0 1-1.04-.556l-4.017-6.022-.042-.057a.99.99 0 0 1 1.412-1.375l2.134 1.83a.75.75 0 0 0 1.238-.57zm1-2.5a2.5 2.5 0 0 0-2.5 2.5v8.12l-.896-.768a2.49 2.49 0 0 0-3.576 3.43l4 5.994A2.75 2.75 0 0 0 9.07 22.75H16A3.75 3.75 0 0 0 19.75 19v-5A3.75 3.75 0 0 0 16 10.25h-3.745v-5.5a2.5 2.5 0 0 0-2.5-2.5" clip-rule="evenodd"/></svg>