<svg xmlns="http://www.w3.org/2000/svg" fill="none" viewBox="0 0 24 24"><path fill="currentColor" fill-rule="evenodd" d="M3.22 5.944c-.433.307-.47.505-.47.556 0 .05.037.25.47.556.413.293 1.059.587 1.924.847 1.723.517 4.147.847 6.856.847 2.71 0 5.134-.33 6.856-.847.865-.26 1.511-.554 1.924-.847.433-.307.47-.505.47-.556 0-.05-.037-.25-.47-.556-.413-.293-1.059-.587-1.924-.847C17.133 4.58 14.709 4.25 12 4.25c-2.71 0-5.133.33-6.856.847-.865.26-1.511.554-1.924.847M4.713 3.66c1.898-.569 4.474-.91 7.287-.91s5.39.341 7.287.91c.943.283 1.762.636 2.361 1.06.58.412 1.102 1.002 1.102 1.78s-.522 1.368-1.102 1.78c-.6.424-1.418.777-2.361 1.06-1.728.518-4.018.847-6.537.902v6.508h.53a1.75 1.75 0 0 1 1.66 1.197l.771 2.316a.75.75 0 0 1-.711.987H9a.75.75 0 0 1-.712-.987l.773-2.316a1.75 1.75 0 0 1 1.66-1.197h.529v-6.508c-2.52-.055-4.81-.384-6.537-.902-.943-.283-1.762-.636-2.361-1.06-.58-.412-1.102-1.002-1.102-1.78s.522-1.368 1.102-1.78c.6-.424 1.418-.777 2.361-1.06m6.008 14.59a.25.25 0 0 0-.237.17l-.443 1.33h3.918l-.443-1.33a.25.25 0 0 0-.237-.17z" clip-rule="evenodd"/></svg>