<svg xmlns="http://www.w3.org/2000/svg" fill="none" viewBox="0 0 24 24"><path fill="currentColor" fill-rule="evenodd" d="M4 2.25A2.75 2.75 0 0 0 1.25 5v14A2.75 2.75 0 0 0 4 21.75h16A2.75 2.75 0 0 0 22.75 19v-.5a.75.75 0 0 0-1.5 0v.5c0 .69-.56 1.25-1.25 1.25H7.25V3.75H20c.69 0 1.25.56 1.25 1.25v.5a.75.75 0 0 0 1.5 0V5A2.75 2.75 0 0 0 20 2.25zm1.75 1.5H4c-.69 0-1.25.56-1.25 1.25v14c0 .69.56 1.25 1.25 1.25h1.75zM15.992 16a1 1 0 0 1 1-1H17a1 1 0 0 1 0 2h-.008a1 1 0 0 1-1-1M17 8.25c-2.162 0-4.397 1.087-5.53 2.22a.75.75 0 1 0 1.06 1.06c.867-.867 2.727-1.78 4.47-1.78s3.603.913 4.47 1.78a.75.75 0 1 0 1.06-1.06C21.397 9.337 19.162 8.25 17 8.25m0 3.5c-1.157 0-2.24.414-3.036 1.225a.75.75 0 0 0 1.072 1.05c.484-.495 1.168-.775 1.964-.775s1.48.28 1.964.775a.75.75 0 0 0 1.072-1.05c-.795-.811-1.88-1.225-3.036-1.225" clip-rule="evenodd"/></svg>