<svg xmlns="http://www.w3.org/2000/svg" fill="none" viewBox="0 0 24 24"><path fill="currentColor" fill-rule="evenodd" d="M2.444 5.276a.1.1 0 0 0-.037.036c-.399.821-.657 1.937-.657 3.188s.258 2.367.657 3.188c.005.01.014.023.037.036a.2.2 0 0 0 .11.026H4v-6.5H2.553a.2.2 0 0 0-.11.026M4.75 3.75H2.553c-.585 0-1.2.3-1.495.906C.545 5.712.25 7.057.25 8.5s.295 2.788.808 3.844c.295.607.91.906 1.495.906h8.394c.585 0 1.2-.3 1.495-.906.513-1.056.808-2.401.808-3.844s-.295-2.788-.808-3.844c-.295-.607-.91-.906-1.495-.906zm.75 1.5v6.5H8v-6.5zm4 0v6.5h1.447a.2.2 0 0 0 .11-.026.1.1 0 0 0 .036-.036c.399-.822.657-1.937.657-3.188s-.258-2.367-.657-3.188a.1.1 0 0 0-.037-.036.2.2 0 0 0-.11-.026zm6.25 3.25a.25.25 0 0 1 .25-.25h2.868c.439 0 .846.23 1.072.607l1.735 2.893H18.75V10a.75.75 0 0 0-1.5 0v2.5c0 .414.336.75.75.75h4.25v3.25a.25.25 0 0 1-.25.25h-.354a2.751 2.751 0 0 0-5.292 0h-.604zM22 18.25h-.354a2.751 2.751 0 0 1-5.292 0H7.646a2.751 2.751 0 0 1-5.292 0H2A1.75 1.75 0 0 1 .25 16.5V15a.75.75 0 0 1 .75-.75h13.25V8.5c0-.966.784-1.75 1.75-1.75h2.868a2.75 2.75 0 0 1 2.358 1.335l2.132 3.554c.256.428.392.917.392 1.415V16.5A1.75 1.75 0 0 1 22 18.25M3.75 17.5a1.25 1.25 0 1 0 2.5 0 1.25 1.25 0 0 0-2.5 0m3.896-.75h6.604v-1H7.121c.24.29.42.629.525 1m-4.767-1c-.24.29-.42.629-.525 1H2a.25.25 0 0 1-.25-.25v-.75zm16.121.5a1.25 1.25 0 1 1 0 2.5 1.25 1.25 0 0 1 0-2.5" clip-rule="evenodd"/></svg>