<svg xmlns="http://www.w3.org/2000/svg" fill="none" viewBox="0 0 24 24"><path fill="currentColor" fill-rule="evenodd" d="M6.998 1.25a.75.75 0 0 0-.372.099l-3.5 2a.75.75 0 0 0-.299.986c.209.417.56 1.473.819 2.698.26 1.23.391 2.487.246 3.33-.044.259-.153.52-.32.82-.083.15-.174.301-.275.466l-.024.038c-.092.15-.191.312-.285.477-.563.991-.798 1.892-.725 2.756.073.86.444 1.586.91 2.238q.014.021.032.042c.335.405.689.705 1.045.928V22a.75.75 0 0 0 1.5 0v-3.321c.492.077.936.061 1.274.04a.75.75 0 0 0-.091-1.497c-.758.047-1.72.038-2.555-.958-.373-.527-.58-.99-.62-1.47-.041-.484.076-1.082.534-1.889.081-.142.168-.284.263-.438l.02-.034c.1-.163.209-.34.31-.524.203-.368.4-.797.486-1.292.195-1.136.01-2.624-.257-3.893a18 18 0 0 0-.67-2.4L6.43 3.187a9 9 0 0 0-.154 1.117l-.001.006a.8.8 0 0 0-.017.3A9 9 0 0 0 6.25 5c0 1.945.606 3.734 1.62 5.053S10.338 12.25 12 12.25s3.115-.877 4.13-2.196S17.75 6.946 17.75 5q0-.195-.008-.388a.8.8 0 0 0-.016-.301l-.002-.008a9 9 0 0 0-.154-1.112l1.975 1.128a16 16 0 0 0-.644 2.172c-.269 1.199-.45 2.614-.304 3.887.1.86.552 1.606.9 2.18q.059.095.11.183c.583.975.684 1.646.624 2.131-.062.498-.308.922-.665 1.395-.567.749-1.284.948-2.614.978a.75.75 0 0 0 .035 1.5 9 9 0 0 0 1.263-.105V22a.75.75 0 0 0 1.5 0v-3.894a3.7 3.7 0 0 0 1.012-.934c.406-.536.845-1.22.957-2.114.113-.907-.123-1.913-.823-3.086l-.093-.155c-.38-.632-.656-1.093-.716-1.61-.12-1.038.027-2.269.278-3.388.25-1.12.59-2.054.804-2.484a.75.75 0 0 0-.299-.986l-3.5-2a.75.75 0 0 0-.372-.099c-1.904 0-3.79.806-4.996 1.752C10.79 2.058 8.904 1.25 6.998 1.25m8.942 1.6c-1.411.26-2.713.983-3.405 1.677a.75.75 0 0 1-1.06.003c-.701-.696-2.005-1.42-3.415-1.68q-.164.544-.244 1.136A4.79 4.79 0 0 1 10.75 8.41a4.8 4.8 0 0 1-.387 1.894A3.3 3.3 0 0 0 12 10.75a3.3 3.3 0 0 0 1.637-.447 4.8 4.8 0 0 1-.387-1.894 4.79 4.79 0 0 1 2.934-4.423 7 7 0 0 0-.244-1.136M9.06 9.14c-.688-.895-1.164-2.107-1.281-3.481a3.3 3.3 0 0 1 1.472 2.75q-.001.436-.106.837zm5.882 0-.085.106a3.3 3.3 0 0 1-.106-.837c0-1.151.586-2.163 1.472-2.75-.117 1.374-.593 2.586-1.28 3.48m-2.843 7.11c.875.015 1.691.221 2.64.539a.75.75 0 0 1-.476 1.422c-.896-.3-1.542-.45-2.187-.46-.642-.01-1.34.117-2.331.458a.75.75 0 0 1-.488-1.418c1.085-.373 1.965-.554 2.842-.54" clip-rule="evenodd"/></svg>