<svg xmlns="http://www.w3.org/2000/svg" fill="none" viewBox="0 0 24 24"><path fill="currentColor" fill-rule="evenodd" d="M9.5 3.25a.75.75 0 0 0-.75.75v10a.75.75 0 0 1-1.5 0v-3.19l-1.841 1.842a2.25 2.25 0 0 0-.659 1.59v.35c0 .444.131.878.378 1.248l2.605 3.908a2.25 2.25 0 0 0 1.873 1.002H17a2.25 2.25 0 0 0 2.25-2.25v-6a.75.75 0 0 0-.75-.75h-.75V13a.75.75 0 0 1-1.5 0v-1.5a.75.75 0 0 0-.75-.75h-.75v1.605a.75.75 0 0 1-1.5 0V10.5a.75.75 0 0 0-.75-.75h-.75v1.671a.75.75 0 0 1-1.5 0V4a.75.75 0 0 0-.75-.75m2.25 5V4a2.25 2.25 0 0 0-4.5 0v4.69l-2.902 2.9a3.75 3.75 0 0 0-1.098 2.652v.349c0 .74.22 1.464.63 2.08l2.605 3.908a3.75 3.75 0 0 0 3.12 1.67H17a3.75 3.75 0 0 0 3.75-3.75v-6a2.25 2.25 0 0 0-2.25-2.25h-1.129a2.25 2.25 0 0 0-1.871-1h-1.129a2.25 2.25 0 0 0-1.871-1z" clip-rule="evenodd"/></svg>