<svg xmlns="http://www.w3.org/2000/svg" fill="none" viewBox="0 0 24 24"><path fill="currentColor" fill-rule="evenodd" d="M6.79 6a3.25 3.25 0 0 1 6.5 0 .75.75 0 1 0 1.5 0 4.75 4.75 0 0 0-9.5 0 .75.75 0 0 0 1.5 0m2.46.018a.768.768 0 0 1 1.536 0V11.5c0 .414.335.75.75.75H16c.966 0 1.75.784 1.75 1.75v5.5A1.75 1.75 0 0 1 16 21.25H9.693a1.25 1.25 0 0 1-1.1-.656l-1.516-2.808-.005-.009-.001-.002-.006-.01-.026-.049-.097-.185c-.08-.159-.188-.38-.294-.627-.23-.534-.397-1.06-.397-1.374v-.016a2.5 2.5 0 0 1 .081-.687c.12-.448.422-.848 1.329-1.964l.089-.087V15a.75.75 0 0 0 1.5 0zM5.748 18.484l.01.016v.003l1.515 2.804a2.75 2.75 0 0 0 2.42 1.443H16a3.25 3.25 0 0 0 3.25-3.25V14A3.25 3.25 0 0 0 16 10.75h-3.714V6.018a2.268 2.268 0 1 0-4.536 0v4.665l-1.167 1.135-.059.065-.102.125c-.786.967-1.326 1.63-1.54 2.434a4 4 0 0 0-.131 1.097c.002.653.292 1.43.519 1.958a13 13 0 0 0 .478.987" clip-rule="evenodd"/></svg>