<svg xmlns="http://www.w3.org/2000/svg" fill="none" viewBox="0 0 24 24"><path fill="currentColor" fill-rule="evenodd" d="M12 2.75A9.25 9.25 0 1 0 21.25 12c0-.968-.148-1.9-.423-2.775a.75.75 0 1 1 1.43-.45c.32 1.02.493 2.103.493 3.225 0 5.937-4.813 10.75-10.75 10.75S1.25 17.937 1.25 12 6.063 1.25 12 1.25c1.174 0 2.306.189 3.366.538a.75.75 0 0 1-.47 1.424A9.2 9.2 0 0 0 12 2.75m0 5A4.25 4.25 0 1 0 16.25 12a.75.75 0 0 1 1.5 0A5.75 5.75 0 1 1 12 6.25a.75.75 0 0 1 0 1.5M19.75 2a.75.75 0 0 0-1.5 0v2.69l-6.78 6.78a.75.75 0 1 0 1.06 1.06l6.78-6.78H22a.75.75 0 0 0 0-1.5h-2.25z" clip-rule="evenodd"/></svg>