<svg xmlns="http://www.w3.org/2000/svg" fill="none" viewBox="0 0 24 24"><path fill="currentColor" fill-rule="evenodd" d="M3.25 4c0-.69.56-1.25 1.25-1.25h1.865l.256 1.538A1.75 1.75 0 0 0 8.347 5.75h5.306a1.75 1.75 0 0 0 1.726-1.462l.256-1.538H17.5c.69 0 1.25.56 1.25 1.25v8.5a.75.75 0 0 0 1.5 0V4a2.75 2.75 0 0 0-2.75-2.75h-13A2.75 2.75 0 0 0 1.75 4v16a2.75 2.75 0 0 0 2.75 2.75H12a.75.75 0 0 0 0-1.5H4.5c-.69 0-1.25-.56-1.25-1.25zm10.865-1.25h-6.23l.216 1.291a.25.25 0 0 0 .246.209h5.306a.25.25 0 0 0 .246-.209zM6.25 11a.75.75 0 0 1 .75-.75h8a.75.75 0 0 1 0 1.5H7a.75.75 0 0 1-.75-.75m0 5a.75.75 0 0 1 .75-.75h3.429a.75.75 0 0 1 0 1.5H7a.75.75 0 0 1-.75-.75m9.78-.53a.75.75 0 1 0-1.06 1.06L17.44 19l-2.47 2.47a.75.75 0 1 0 1.06 1.06l2.47-2.47 2.47 2.47a.75.75 0 1 0 1.06-1.06L19.56 19l2.47-2.47a.75.75 0 1 0-1.06-1.06l-2.47 2.47z" clip-rule="evenodd"/></svg>