<svg xmlns="http://www.w3.org/2000/svg" fill="none" viewBox="0 0 24 24"><path fill="currentColor" fill-rule="evenodd" d="M7.378 4.25H5.5c-.69 0-1.25.56-1.25 1.25V20c0 .69.56 1.25 1.25 1.25h13c.69 0 1.25-.56 1.25-1.25V5.5c0-.69-.56-1.25-1.25-1.25h-1.878a2.25 2.25 0 0 1-2.122 1.5h-5a2.25 2.25 0 0 1-2.122-1.5m9.244-1.5H18.5a2.75 2.75 0 0 1 2.75 2.75V20a2.75 2.75 0 0 1-2.75 2.75h-13A2.75 2.75 0 0 1 2.75 20V5.5A2.75 2.75 0 0 1 5.5 2.75h1.878A2.25 2.25 0 0 1 9.5 1.25h5c.98 0 1.813.626 2.122 1.5M8.75 3.5a.75.75 0 0 1 .75-.75h5a.75.75 0 0 1 0 1.5h-5a.75.75 0 0 1-.75-.75M7.25 11a.75.75 0 0 1 .75-.75h8a.75.75 0 0 1 0 1.5H8a.75.75 0 0 1-.75-.75m0 5a.75.75 0 0 1 .75-.75h3.429a.75.75 0 0 1 0 1.5H8a.75.75 0 0 1-.75-.75" clip-rule="evenodd"/></svg>