<svg xmlns="http://www.w3.org/2000/svg" fill="none" viewBox="0 0 24 24"><path fill="currentColor" fill-rule="evenodd" d="M6.378 4.25H4.5c-.69 0-1.25.56-1.25 1.25V20c0 .69.56 1.25 1.25 1.25h2a.75.75 0 0 1 0 1.5h-2A2.75 2.75 0 0 1 1.75 20V5.5A2.75 2.75 0 0 1 4.5 2.75h1.878A2.25 2.25 0 0 1 8.5 1.25h5c.98 0 1.813.626 2.122 1.5H17.5a2.75 2.75 0 0 1 2.75 2.75V11a.75.75 0 0 1-1.5 0V5.5c0-.69-.56-1.25-1.25-1.25h-1.878a2.25 2.25 0 0 1-2.122 1.5h-5a2.25 2.25 0 0 1-2.122-1.5m7.872-.75a.75.75 0 0 0-.75-.75h-5a.75.75 0 0 0 0 1.5h5a.75.75 0 0 0 .75-.75M9.5 21.25h1a.75.75 0 0 1 0 1.5h-1a.75.75 0 0 1 0-1.5m-2.5-11a.75.75 0 0 0 0 1.5h8a.75.75 0 0 0 0-1.5zm0 5a.75.75 0 0 0 0 1.5h3.429a.75.75 0 0 0 0-1.5zm12.53-1.78a.75.75 0 0 0-1.06 0l-5.5 5.5a.75.75 0 0 0-.22.53V22c0 .414.336.75.75.75H16a.75.75 0 0 0 .53-.22l5.5-5.5a.75.75 0 0 0 0-1.06zm-5.28 7.78v-1.44L19 15.06l1.44 1.44-4.75 4.75z" clip-rule="evenodd"/></svg>