<svg xmlns="http://www.w3.org/2000/svg" fill="none" viewBox="0 0 24 24"><path fill="currentColor" fill-rule="evenodd" d="M10.001 3.25a2.75 2.75 0 0 0-2.75 2.746L7.25 7a.75.75 0 1 0 1.5.002l.001-1.003a1.25 1.25 0 0 1 1.25-1.248h10.001c.69 0 1.25.56 1.25 1.25v8c0 .69-.56 1.25-1.25 1.25H16a.75.75 0 0 0 0 1.5h4.002a2.75 2.75 0 0 0 2.75-2.75V6a2.75 2.75 0 0 0-2.75-2.75zm3.71 10.987a.75.75 0 0 0-1.422-.474c-.437 1.309-1.1 1.876-1.84 2.163-.814.315-1.79.324-2.949.324h-.068c-1.076 0-2.32 0-3.421.426-1.197.463-2.159 1.396-2.722 3.087a.75.75 0 0 0 1.423.474c.436-1.309 1.1-1.876 1.84-2.162.814-.315 1.79-.325 2.948-.325h.068c1.076 0 2.321 0 3.422-.425 1.197-.464 2.158-1.397 2.722-3.088M8 10.75a1.25 1.25 0 1 0 0 2.5 1.25 1.25 0 0 0 0-2.5M5.25 12a2.75 2.75 0 1 1 5.5 0 2.75 2.75 0 0 1-5.5 0M12 7.25a.75.75 0 0 0 0 1.5h6a.75.75 0 0 0 0-1.5zm3.5 4a.75.75 0 0 0 0 1.5H18a.75.75 0 0 0 0-1.5z" clip-rule="evenodd"/></svg>