<svg xmlns="http://www.w3.org/2000/svg" fill="none" viewBox="0 0 24 24"><path fill="currentColor" fill-rule="evenodd" d="M7 4.25c-.317 0-.6.2-.706.498l-5 14a.75.75 0 0 0 1.413.504l1.607-4.502h7.372l1.608 4.502a.75.75 0 0 0 1.412-.504l-5-14A.75.75 0 0 0 9 4.25zm4.15 9h-6.3l2.679-7.5h.943zm6.104-1.529a2.181 2.181 0 0 1 3.996 1.21v.319h-2.689a3.31 3.31 0 0 0-3.311 3.311 3.19 3.19 0 0 0 3.189 3.189h.302a3.5 3.5 0 0 0 1.796-.497l.152-.092q.32-.193.597-.432a.75.75 0 0 0 1.464-.229v-5.569a3.681 3.681 0 0 0-6.744-2.042l-.13.195a.75.75 0 1 0 1.248.832zm1.307 3.029h2.689v.771c0 .964-.506 1.858-1.333 2.354l-.152.091c-.31.186-.663.284-1.024.284h-.302a1.69 1.69 0 0 1-1.689-1.689c0-1 .81-1.811 1.811-1.811" clip-rule="evenodd"/></svg>