<svg xmlns="http://www.w3.org/2000/svg" fill="none" viewBox="0 0 24 24"><path fill="currentColor" fill-rule="evenodd" d="M3 3.75a.25.25 0 0 0-.25.25v1.5a.75.75 0 0 1-1.5 0V4c0-.966.784-1.75 1.75-1.75h12c.966 0 1.75.784 1.75 1.75v1.5a.75.75 0 0 1-1.5 0V4a.25.25 0 0 0-.25-.25H9.75v16.5h1.75a.75.75 0 0 1 0 1.5h-5a.75.75 0 0 1 0-1.5h1.75V3.75zM18.75 7.5c0-.125.066-.296.286-.46.22-.166.558-.29.964-.29s.744.124.964.29c.22.164.286.335.286.46 0 .35-.133.605-.395.856-.29.28-.7.515-1.216.798l-.08.044c-.459.252-1.008.553-1.437.941-.486.44-.872 1.038-.872 1.861 0 .414.336.75.75.75h4a.75.75 0 0 0 0-1.5h-2.87c.295-.267.705-.492 1.229-.78l.002-.001c.484-.266 1.075-.59 1.534-1.03.488-.47.855-1.095.855-1.939 0-.703-.382-1.283-.886-1.66-.504-.378-1.165-.59-1.864-.59s-1.36.212-1.864.59c-.504.377-.886.957-.886 1.66a.75.75 0 0 0 1.5 0" clip-rule="evenodd"/></svg>