<svg xmlns="http://www.w3.org/2000/svg" fill="none" viewBox="0 0 24 24"><path fill="currentColor" fill-rule="evenodd" d="M3 2.25a.75.75 0 0 0 0 1.5h18a.75.75 0 0 0 0-1.5zm0 6a.75.75 0 0 0 0 1.5h13.5a3.75 3.75 0 1 1 0 7.5h-2.69l1.72-1.72a.75.75 0 1 0-1.06-1.06l-3 3a.75.75 0 0 0 0 1.06l3 3a.75.75 0 1 0 1.06-1.06l-1.72-1.72h2.69a5.25 5.25 0 1 0 0-10.5zM2.25 15a.75.75 0 0 1 .75-.75h6a.75.75 0 0 1 0 1.5H3a.75.75 0 0 1-.75-.75M3 20.25a.75.75 0 0 0 0 1.5h6a.75.75 0 0 0 0-1.5z" clip-rule="evenodd"/></svg>