<svg xmlns="http://www.w3.org/2000/svg" fill="none" viewBox="0 0 24 24"><path fill="currentColor" fill-rule="evenodd" d="M15.25 4a1.25 1.25 0 1 1 2.5 0v10.535a.75.75 0 0 0 .375.65 3.25 3.25 0 1 1-3.249 0 .75.75 0 0 0 .374-.65zm1.25-2.75A2.75 2.75 0 0 0 13.75 4v10.127a4.75 4.75 0 1 0 5.5 0V4a2.75 2.75 0 0 0-2.75-2.75m-5.83 2.415a.75.75 0 1 0-1.34.67l.5 1a.75.75 0 1 0 1.34-.67zM5.336 6.329a.75.75 0 0 0-.67 1.342l1 .5a.75.75 0 1 0 .67-1.342zm5.299 2.374q.378-.035.736.029a.75.75 0 1 0 .26-1.477 4.2 4.2 0 0 0-1.137-.046c-2.5.236-4.258 2.568-4.037 5.117.188 2.159 1.736 3.892 3.727 4.243a.75.75 0 1 0 .26-1.477c-1.279-.226-2.36-1.369-2.492-2.896l-.748.065.748-.065c-.158-1.82 1.092-3.343 2.683-3.493M3.5 11.75a.75.75 0 0 0 0 1.5h1a.75.75 0 0 0 0-1.5zm4.03 5.78a.75.75 0 0 0-1.06-1.06l-1 1a.75.75 0 0 0 1.06 1.06z" clip-rule="evenodd"/></svg>