<svg xmlns="http://www.w3.org/2000/svg" fill="none" viewBox="0 0 24 24"><path fill="currentColor" fill-rule="evenodd" d="m12.25 2.254-.066-.003a8 8 0 0 0-1.213.081 8.2 8.2 0 0 0-2.84.957C5.992 4.5 4 7.016 4 12s1.993 7.5 4.13 8.71a8.2 8.2 0 0 0 2.84.957 8 8 0 0 0 1.214.081h.09l.172.002c.145 0 .348-.006.596-.027a8.5 8.5 0 0 0 1.927-.394c1.515-.5 3.327-1.593 4.456-3.924l.03-.074c.38-1.058.556-2.722-.393-4.151-.513-.774-1.31-1.409-2.447-1.835-.032-.828-.202-1.55-.49-2.166-.482-1.03-1.271-1.71-2.164-2.06-1.728-.676-3.89-.108-4.854 1.5a.75.75 0 0 0 1.286.772c.535-.892 1.874-1.324 3.021-.875.545.213 1.037.626 1.352 1.299.144.308.255.68.312 1.123a13.6 13.6 0 0 0-2.328-.183v.75-.75h-.055l-.119.006a5 5 0 0 0-.398.04 5 5 0 0 0-1.217.324c-.451.188-.945.488-1.328.966-.392.49-.633 1.126-.633 1.914 0 1.49 1.443 2.75 3.25 2.75 1.811 0 3.842-1.24 4.24-3.627l.03-.193c.638.312 1.041.696 1.293 1.075.584.88.52 1.981.244 2.778-.914 1.858-2.341 2.715-3.558 3.117a7 7 0 0 1-1.584.324 6 6 0 0 1-.588.02l-.026-.002h-.003a1 1 0 0 0-.097 0h-.007l-.046.002a6.4 6.4 0 0 1-.962-.066 6.7 6.7 0 0 1-2.316-.777C7.257 18.493 5.5 16.51 5.5 12s1.757-6.493 3.37-7.406a6.7 6.7 0 0 1 2.315-.777 6.5 6.5 0 0 1 .963-.066l.046.002h.008m.098 0h.003l.032-.002h.144a6.7 6.7 0 0 1 2.393.497c1.364.563 2.933 1.77 3.654 4.452a.75.75 0 0 0 1.448-.39c-.856-3.185-2.787-4.729-4.529-5.449a8.2 8.2 0 0 0-2.952-.61 5 5 0 0 0-.243.003m.05 1.499h-.002zm2.77 8.709c-.638-.13-1.402-.207-2.318-.207h-.015l-.071.003a3.7 3.7 0 0 0-1.127.252c-.299.124-.555.293-.735.518-.17.213-.304.515-.304.977 0 .463.557 1.25 1.75 1.25 1.189 0 2.5-.814 2.76-2.373q.036-.217.06-.42m-2.317-.207" clip-rule="evenodd"/></svg>