<svg xmlns="http://www.w3.org/2000/svg" fill="none" viewBox="0 0 24 24"><path fill="currentColor" fill-rule="evenodd" d="M14.45 2.973a.75.75 0 0 0-1.068 0L6.687 9.75H3a1.75 1.75 0 0 0-1.75 1.75v8c0 .966.784 1.75 1.75 1.75h14.948a2.73 2.73 0 0 0 2.573-1.844l2.075-6c.614-1.775-.684-3.656-2.574-3.656h-4.464l.136-.31a5.795 5.795 0 0 0-1.174-6.395zM6.25 19.75v-8.5H3a.25.25 0 0 0-.25.25v8c0 .138.112.25.25.25zm1.5 0v-8.942l6.13-6.204a4.3 4.3 0 0 1 .441 4.232l-.598 1.362a.75.75 0 0 0 .687 1.052h5.612c.833 0 1.442.84 1.157 1.666l-2.075 6a1.23 1.23 0 0 1-1.156.834z" clip-rule="evenodd"/></svg>