<svg xmlns="http://www.w3.org/2000/svg" fill="none" viewBox="0 0 24 24"><path fill="currentColor" fill-rule="evenodd" d="M2.75 12a9.25 9.25 0 1 0 18.5 0 9.25 9.25 0 0 0-18.5 0M12 22.75C6.063 22.75 1.25 17.937 1.25 12S6.063 1.25 12 1.25 22.75 6.063 22.75 12 17.937 22.75 12 22.75m-3-5.5a1.75 1.75 0 0 1-1.75-1.75v-4.65c0-.397.135-.782.383-1.092l3.781-4.727A.75.75 0 0 1 12.45 4.9l.114.085a3.75 3.75 0 0 1 1.197 4.478l-.124.287h2.934a1.75 1.75 0 0 1 1.644 2.35l-1.458 4a1.75 1.75 0 0 1-1.644 1.15zm-.25-1.75c0 .138.112.25.25.25h6.113a.25.25 0 0 0 .235-.164l1.458-4a.25.25 0 0 0-.235-.336H12.5a.75.75 0 0 1-.69-1.045l.572-1.333c.33-.77.2-1.641-.298-2.276l-3.28 4.099a.25.25 0 0 0-.054.156z" clip-rule="evenodd"/></svg>