<svg xmlns="http://www.w3.org/2000/svg" fill="none" viewBox="0 0 24 24"><path fill="currentColor" fill-rule="evenodd" d="M4 4.75c-.69 0-1.25.56-1.25 1.25v2.837a3.251 3.251 0 0 1 0 6.326V18c0 .69.56 1.25 1.25 1.25h16c.69 0 1.25-.56 1.25-1.251V6.002c0-.691-.56-1.252-1.25-1.252zM1.25 6A2.75 2.75 0 0 1 4 3.25h16c1.52 0 2.75 1.234 2.75 2.752v11.997A2.75 2.75 0 0 1 20 20.75H4A2.75 2.75 0 0 1 1.25 18v-3.5a.75.75 0 0 1 .75-.75 1.75 1.75 0 1 0 0-3.5.75.75 0 0 1-.75-.75zm13 6c0 .414.336.75.75.75h3a.75.75 0 0 0 0-1.5h-3a.75.75 0 0 0-.75.75M11 16.75a.75.75 0 0 1 0-1.5h7a.75.75 0 0 1 0 1.5z" clip-rule="evenodd"/></svg>