<svg xmlns="http://www.w3.org/2000/svg" fill="none" viewBox="0 0 24 24"><path fill="currentColor" fill-rule="evenodd" d="M2.25 20c0 1.52 1.23 2.75 2.75 2.75h14c.41 0 .75-.34.75-.75s-.34-.75-.75-.75H5c-.69 0-1.25-.56-1.25-1.25V4c0-.69.56-1.25 1.25-1.25h6.25V7c0 1.52 1.23 2.75 2.75 2.75h4.25V11c0 .41.34.75.75.75s.75-.34.75-.75V9c0-.2-.08-.39-.22-.53l-7-7a.75.75 0 0 0-.53-.22H5C3.48 1.25 2.25 2.48 2.25 4zm10.5-13V3.81l4.44 4.44H14c-.69 0-1.25-.56-1.25-1.25m5.5 12c0 .41.34.75.75.75s.75-.34.75-.75v-1.75H21c.41 0 .75-.34.75-.75s-.34-.75-.75-.75h-1.25v-1H21c.41 0 .75-.34.75-.75s-.34-.75-.75-.75h-2c-.41 0-.75.34-.75.75zm-4.5 0c0 .41.34.75.75.75s.75-.34.75-.75v-1.75h1.25c.41 0 .75-.34.75-.75s-.34-.75-.75-.75h-1.25v-1h1.25c.41 0 .75-.34.75-.75s-.34-.75-.75-.75h-2c-.41 0-.75.34-.75.75zm-2.5 0c0 .41.34.75.75.75s.75-.34.75-.75v-5c0-.41-.34-.75-.75-.75s-.75.34-.75.75zm-4 0c0 .41.34.75.75.75s.75-.34.75-.75v-4.25h.75c.41 0 .75-.34.75-.75s-.34-.75-.75-.75h-3c-.41 0-.75.34-.75.75s.34.75.75.75h.75z" clip-rule="evenodd"/></svg>