<svg xmlns="http://www.w3.org/2000/svg" fill="none" viewBox="0 0 24 24"><path fill="currentColor" fill-rule="evenodd" d="M12 1.25a.75.75 0 0 0-.75.75v2.5a.75.75 0 0 0 1.5 0V2.78a9.25 9.25 0 1 1-7.225 2.614.75.75 0 0 0-1.05-1.071A10.72 10.72 0 0 0 1.25 12c0 5.937 4.813 10.75 10.75 10.75S22.75 17.937 22.75 12 17.937 1.25 12 1.25M8.465 6.411a.75.75 0 0 0-1.136.925l3.081 6.152a2.297 2.297 0 0 0 3.486.758 2.268 2.268 0 0 0-.012-3.555zm3.287 6.405-1.573-3.14 2.776 2.192c.392.31.394.895.004 1.207a.797.797 0 0 1-1.207-.259" clip-rule="evenodd"/></svg>