<svg xmlns="http://www.w3.org/2000/svg" fill="none" viewBox="0 0 24 24"><path fill="currentColor" fill-rule="evenodd" d="M12 2.75a9.25 9.25 0 1 0 0 18.5 9.25 9.25 0 0 0 0-18.5M1.25 12C1.25 6.063 6.063 1.25 12 1.25S22.75 6.063 22.75 12 17.937 22.75 12 22.75 1.25 17.937 1.25 12m7.758-3a1 1 0 0 0-1-1h-.01a1 1 0 0 0 0 2h.01a1 1 0 0 0 1-1M8.6 13.55a.75.75 0 0 0-1.2.9 5.8 5.8 0 0 0 1.85 1.6v1.45a2.75 2.75 0 1 0 5.5 0v-1.45a5.8 5.8 0 0 0 1.85-1.6.75.75 0 1 0-1.2-.9 4.24 4.24 0 0 1-3.4 1.7 4.24 4.24 0 0 1-3.4-1.7m2.15 3.95v-.886a5.8 5.8 0 0 0 2.5 0v.886a1.25 1.25 0 1 1-2.5 0m4.78-9.47a.75.75 0 0 0-1.06-1.06c-.325.324-.618.773-.828 1.195-.2.397-.392.903-.392 1.335a.75.75 0 0 0 1.28.53c.229-.228.516-.295.945-.28.25.008.484.052.67.115.198.066.297.137.325.165a.75.75 0 1 0 1.06-1.06c-.25-.25-.582-.418-.906-.527a3.9 3.9 0 0 0-1.28-.195q.097-.127.186-.218" clip-rule="evenodd"/></svg>