<svg xmlns="http://www.w3.org/2000/svg" fill="none" viewBox="0 0 24 24"><path fill="currentColor" fill-rule="evenodd" d="M5 2.25a.75.75 0 0 0-.53 1.28l1.78 1.78v.94h-.94L3.53 4.47A.75.75 0 0 0 2.25 5v3A2.75 2.75 0 0 0 5 10.75h2.19l1 1-4.806 4.805a2.75 2.75 0 0 0 0 3.89l.171.171a2.75 2.75 0 0 0 3.89 0l4.805-4.805 1 1V19A2.75 2.75 0 0 0 16 21.75h3a.75.75 0 0 0 .53-1.28l-1.78-1.78v-.94h.94l1.78 1.78a.75.75 0 0 0 1.28-.53v-3A2.75 2.75 0 0 0 19 13.25h-2.19l-2.5-2.5 4.19-4.19.47.47a.75.75 0 0 0 1.173-.144l1.5-2.5a.75.75 0 0 0-.113-.916l-1-1a.75.75 0 0 0-.916-.113l-2.5 1.5a.75.75 0 0 0-.145 1.173l.47.47-4.19 4.19-2.499-2.5V5A2.75 2.75 0 0 0 8 2.25zm6.19 12.5-1.94-1.94-4.806 4.806a1.25 1.25 0 0 0 0 1.768l.172.171a1.25 1.25 0 0 0 1.768 0zM7.53 4.47l-.72-.72H8c.69 0 1.25.56 1.25 1.25v2.5c0 .199.079.39.22.53l6.5 6.5c.14.141.331.22.53.22H19c.69 0 1.25.56 1.25 1.25v1.19l-.72-.72a.75.75 0 0 0-.53-.22h-2a.75.75 0 0 0-.75.75v2c0 .199.079.39.22.53l.72.72H16c-.69 0-1.25-.56-1.25-1.25v-2.5a.75.75 0 0 0-.22-.53l-6.5-6.5a.75.75 0 0 0-.53-.22H5c-.69 0-1.25-.56-1.25-1.25V6.81l.72.72c.14.141.331.22.53.22h2A.75.75 0 0 0 7.75 7V5a.75.75 0 0 0-.22-.53m12.525-.354-.704 1.174-.642-.641 1.174-.705z" clip-rule="evenodd"/></svg>