<svg xmlns="http://www.w3.org/2000/svg" fill="none" viewBox="0 0 24 24"><path fill="currentColor" fill-rule="evenodd" d="M5.25 8.75H3a.75.75 0 0 1 0-1.5h3.84a9.77 9.77 0 0 1-3.513-3.918.75.75 0 1 1 1.346-.664C6.01 5.38 8.778 7.24 11.973 7.25h.055c3.195-.01 5.963-1.87 7.3-4.582a.75.75 0 1 1 1.345.664A9.77 9.77 0 0 1 17.16 7.25H21a.75.75 0 0 1 0 1.5h-2.25v2.5H21a.75.75 0 0 1 0 1.5h-2.25V21a.75.75 0 0 1-1.5 0v-8.25H6.75V21a.75.75 0 0 1-1.5 0v-8.25H3a.75.75 0 0 1 0-1.5h2.25zm6.78 0h1.22v2.5h-2.5v-2.5zm-2.78 0v2.5h-2.5v-2.5zm5.5 0v2.5h2.5v-2.5z" clip-rule="evenodd"/></svg>