<svg xmlns="http://www.w3.org/2000/svg" fill="none" viewBox="0 0 24 24"><path fill="currentColor" fill-rule="evenodd" d="M3.25 4.5c0-.69.56-1.25 1.25-1.25h14c.69 0 1.25.56 1.25 1.25V8a.75.75 0 0 0 1.5 0V4.5a2.75 2.75 0 0 0-2.75-2.75h-14A2.75 2.75 0 0 0 1.75 4.5v10a2.75 2.75 0 0 0 2.75 2.75.75.75 0 0 0 0-1.5c-.69 0-1.25-.56-1.25-1.25zm8.412 2.35c0-.345.27-.6.573-.6s.574.255.574.6V13a.75.75 0 0 0 1.5 0v-2.414c.246.005.44.016.6.038.275.038.342.095.374.128.034.034.093.109.131.396.04.307.042.726.042 1.383v.919a.75.75 0 0 0 1.5 0v-.966c0-.357 0-.687-.012-.984h.586c.302 0 .573.255.573.6v1.8a.75.75 0 0 0 1.5 0v-1.05c.251.002.438.009.592.025.22.024.281.062.305.078a.6.6 0 0 1 .142.146c.02.028.058.097.082.327.025.242.026.565.026 1.073 0 .987 0 1.694-.035 2.251-.034.552-.1.908-.21 1.198v.002c-.007.012-.037.071-.115.189a9 9 0 0 1-.303.424c-.236.314-.507.648-.696.878a1.77 1.77 0 0 0-.406 1.125v.933a.75.75 0 1 0 1.5 0v-.933c0-.06.021-.12.064-.171.194-.236.48-.59.736-.93.128-.17.253-.342.357-.5.093-.14.205-.32.268-.49.183-.488.263-1.01.302-1.631.038-.61.038-1.425.038-2.381 0-.461 0-.863-.034-1.191-.036-.35-.117-.701-.337-1.022a2.1 2.1 0 0 0-.507-.517c-.319-.228-.67-.312-1.017-.35a9 9 0 0 0-.888-.034A2.07 2.07 0 0 0 17.53 10h-.941a1.8 1.8 0 0 0-.235-.298c-.356-.363-.794-.503-1.24-.564a7 7 0 0 0-.805-.052V6.85c0-1.146-.915-2.1-2.074-2.1s-2.073.954-2.073 2.1v5.695l-.637-.633a2.26 2.26 0 0 0-3.28.313 2.34 2.34 0 0 0 .001 2.882l3.867 5.272a.25.25 0 0 1 .049.148v.973a.75.75 0 0 0 1.5 0v-.973a1.75 1.75 0 0 0-.339-1.035L7.43 14.185a.84.84 0 0 1-.004-1.035.76.76 0 0 1 1.096-.122l1.86 1.853a.75.75 0 0 0 1.28-.531z" clip-rule="evenodd"/></svg>