<svg xmlns="http://www.w3.org/2000/svg" fill="none" viewBox="0 0 24 24"><path fill="currentColor" fill-rule="evenodd" d="M4.5 1.75A2.75 2.75 0 0 0 1.75 4.5v9.998a2.75 2.75 0 0 0 2.75 2.75H5a.75.75 0 0 0 0-1.5h-.5c-.69 0-1.25-.56-1.25-1.25V4.5c0-.69.56-1.25 1.25-1.25h15c.69 0 1.25.56 1.25 1.25V9a.75.75 0 0 0 1.5 0V4.5a2.75 2.75 0 0 0-2.75-2.75zM13.25 7a.75.75 0 0 1 1.5 0v5c0 .414.336.75.75.75H19c.966 0 1.75.784 1.75 1.75V19A1.75 1.75 0 0 1 19 20.75h-4.851a1.25 1.25 0 0 1-1.004-.505l-3.724-5.013-.014-.018a.75.75 0 0 1-.003-.912.65.65 0 0 1 .972-.079l1.647 1.356A.75.75 0 0 0 13.25 15zM14 4.75A2.25 2.25 0 0 0 11.75 7v6.411l-.412-.339a2.15 2.15 0 0 0-3.118.308 2.25 2.25 0 0 0 .003 2.755l3.718 5.005a2.75 2.75 0 0 0 2.208 1.11H19A3.25 3.25 0 0 0 22.25 19v-4.5A3.25 3.25 0 0 0 19 11.25h-2.75V7A2.25 2.25 0 0 0 14 4.75" clip-rule="evenodd"/></svg>