<svg xmlns="http://www.w3.org/2000/svg" fill="none" viewBox="0 0 24 24"><path fill="currentColor" fill-rule="evenodd" d="M3.5 1.25a.75.75 0 0 0-.75.75v4c0 .414.336.75.75.75a.75.75 0 1 1-.75.75.75.75 0 0 0-1.5 0 2.25 2.25 0 1 0 3-2.122V2.75h2.068l.857 9H2a.75.75 0 0 0-.75.75v4.965c0 .585.292 1.131.78 1.456l.802.535c.288.192.625.294.97.294h.552a2.751 2.751 0 0 0 5.292 0h4.708a2.751 2.751 0 0 0 5.293 0H21A1.75 1.75 0 0 0 22.75 18v-4.12a3.75 3.75 0 0 0-1.31-2.847l-2.18-1.869a1.3 1.3 0 0 1-.279-.342l-1.754-3.158a2.75 2.75 0 0 0-2.404-1.414H12a.75.75 0 0 0-.75.75v3.823L7.67 1.665A.75.75 0 0 0 7 1.25zm7.537 10.5L8.128 5.933l.554 5.817zm-3.047 1.5h13.17q.09.305.09.63v.87h-.75a.75.75 0 0 0 0 1.5h.75V18a.25.25 0 0 1-.25.25h-1.354a2.751 2.751 0 0 0-5.292 0H9.646a2.751 2.751 0 0 0-5.292 0h-.551a.25.25 0 0 1-.139-.042l-.803-.535a.25.25 0 0 1-.111-.208V13.25zm9.01 4.5a1.25 1.25 0 1 1 0 2.5 1.25 1.25 0 0 1 0-2.5m-10 0a1.25 1.25 0 1 1 0 2.5 1.25 1.25 0 0 1 0-2.5m5.75-6h7.223l-1.689-1.447a2.8 2.8 0 0 1-.614-.752l-1.754-3.158a1.25 1.25 0 0 0-1.093-.643H12.75z" clip-rule="evenodd"/></svg>