<svg xmlns="http://www.w3.org/2000/svg" fill="none" viewBox="0 0 24 24"><path fill="currentColor" fill-rule="evenodd" d="M21.25 14.996c0 .41.34.75.75.75v.01c.41 0 .75-.34.75-.75v-5c0-.86-.39-1.63-1.01-2.13v-.02l-.68-3.39a2.77 2.77 0 0 0-2.7-2.21h-6.72c-1.3 0-2.43.93-2.7 2.26l-.096.74H8.64c-1.3 0-2.43.93-2.7 2.26l-.096.74H5.66c-1.31 0-2.44.93-2.7 2.21l-.678 3.382a2.74 2.74 0 0 0-1.032 2.148v5c0 .414.336.75.75.75h1a.75.75 0 0 0 .75-.75v-1.25h10.5v1.25c0 .414.336.75.75.75h1a.75.75 0 0 0 .75-.75v-5c0-.848-.383-1.605-.985-2.11l-.005-.03-.423-2.11H17c.69 0 1.25.56 1.25 1.25v5c0 .41.34.75.75.75v.01c.41 0 .75-.34.75-.75v-5c0-.86-.39-1.63-1.01-2.13v-.02l-.424-2.11H20c.69 0 1.25.56 1.25 1.25zm-3.245-7.75h2.075l-.5-2.49a1.26 1.26 0 0 0-1.22-1.01h-6.72c-.59 0-1.11.42-1.22 1.01l-.064.5h5.004a2.77 2.77 0 0 1 2.645 1.99m-8.595-.5a.8.8 0 0 0 .183 0h5.767c.59 0 1.1.43 1.22 1.01l.5 2.49h-2.054a2.77 2.77 0 0 0-2.646-1.99H7.356l.064-.5c.11-.59.63-1.01 1.22-1.01zm-2.82 3a.7.7 0 0 1-.18 0h-.76c-.59 0-1.11.42-1.22 1.01l-.5 2.49H14l.09.001-.5-2.491a1.26 1.26 0 0 0-1.22-1.01zm8.66 8.5v-2.25c0-.69-.56-1.25-1.25-1.25H4c-.69 0-1.25.56-1.25 1.25v2.25h2.94l.78-.78a.75.75 0 0 1 .53-.22h4c.199 0 .39.079.53.22l.78.78z" clip-rule="evenodd"/></svg>