<svg xmlns="http://www.w3.org/2000/svg" fill="none" viewBox="0 0 24 24"><path fill="currentColor" fill-rule="evenodd" d="M4.75 6A3.25 3.25 0 0 1 8 2.75h8A3.25 3.25 0 0 1 19.25 6v5.4c-2.34.5-5.5.85-7.75.85-2.243 0-4.561-.286-6.75-.83zm-1.5 6V6A4.75 4.75 0 0 1 8 1.25h8A4.75 4.75 0 0 1 20.75 6v9a4.75 4.75 0 0 1-2.668 4.27l1.542 2.314a.75.75 0 1 1-1.248.832l-1.8-2.7q-.284.033-.576.034H8q-.293 0-.575-.035l-1.8 2.701a.75.75 0 1 1-1.249-.832l1.542-2.313A4.75 4.75 0 0 1 3.25 15zM19 16.25h-1.5a.75.75 0 0 1 0-1.5h1.75v-1.818c-2.405.486-5.493.818-7.75.818-2.242 0-4.55-.27-6.75-.787v1.787H6.5a.75.75 0 0 1 0 1.5H5a3.25 3.25 0 0 0 3 2h8a3.25 3.25 0 0 0 3-2" clip-rule="evenodd"/></svg>