<svg xmlns="http://www.w3.org/2000/svg" fill="none" viewBox="0 0 24 24"><path fill="currentColor" fill-rule="evenodd" d="M1.25 4A2.75 2.75 0 0 1 4 1.25h8A2.75 2.75 0 0 1 14.75 4v5.25H20A2.75 2.75 0 0 1 22.75 12v8A2.75 2.75 0 0 1 20 22.75h-8A2.75 2.75 0 0 1 9.25 20v-5.25H4A2.75 2.75 0 0 1 1.25 12zm12 0v5.25H12A2.75 2.75 0 0 0 9.25 12v1.25H4c-.69 0-1.25-.56-1.25-1.25V4c0-.69.56-1.25 1.25-1.25h8c.69 0 1.25.56 1.25 1.25M17 3.25a.75.75 0 0 0 0 1.5h2a.25.25 0 0 1 .25.25v2a.75.75 0 1 0 1.5 0V5A1.75 1.75 0 0 0 19 3.25zM4.75 17a.75.75 0 0 0-1.5 0v2c0 .966.784 1.75 1.75 1.75h2a.75.75 0 0 0 0-1.5H5a.25.25 0 0 1-.25-.25zM12 10.75c-.69 0-1.25.56-1.25 1.25v8c0 .69.56 1.25 1.25 1.25h8c.69 0 1.25-.56 1.25-1.25v-8c0-.69-.56-1.25-1.25-1.25zm3.5 1.5a.75.75 0 0 0-.711.513l-2 6a.75.75 0 0 0 1.423.474l.495-1.487h2.586l.496 1.487a.75.75 0 0 0 1.423-.474l-2-6a.75.75 0 0 0-.712-.513zm.5 1.622.793 2.378h-1.586zM8.75 5a.75.75 0 0 0-1.5 0v.25H5a.75.75 0 0 0 0 1.5h3.37c-.208.425-.481.913-.818 1.414a8 8 0 0 1-.427-.58.75.75 0 1 0-1.248.832c.249.374.5.693.739.962a9 9 0 0 1-1.085 1.036.75.75 0 0 0 .938 1.172c.459-.368.877-.773 1.253-1.194a5 5 0 0 0 .415.264l.017.009.006.003.003.002h.002a.75.75 0 1 0 .66-1.347 2 2 0 0 1-.173-.11 13.4 13.4 0 0 0 1.366-2.463H11a.75.75 0 0 0 0-1.5H8.75zm-.25 5-.335.67z" clip-rule="evenodd"/></svg>