<svg xmlns="http://www.w3.org/2000/svg" fill="none" viewBox="0 0 24 24"><path fill="currentColor" fill-rule="evenodd" d="M21.836 1.83a.75.75 0 0 1 .335 1.006l-1.144 2.287a2.75 2.75 0 0 1-1.394 1.305L16.35 14.23l1.418-.351h.003c1.283-.313 2.387-.028 3.227.616.816.625 1.338 1.552 1.583 2.477.244.92.24 1.932-.113 2.757-.372.87-1.142 1.522-2.276 1.522H18.75v.25a.75.75 0 0 1-1.5 0v-.25H7.31l-.78.78a.75.75 0 0 1-1.237-.78H2.93a1.6 1.6 0 0 1-1.24-.567 1.92 1.92 0 0 1-.437-1.119c-.047-.71.296-1.672 1.3-1.918h.002l11.976-2.966L17.71 7.13l-2.953 1.074a.75.75 0 1 1-.513-1.41l4.75-1.727c.302-.11.549-.33.692-.616l1.143-2.287a.75.75 0 0 1 1.007-.336m-3.71 13.505c.846-.207 1.483-.015 1.958.35.499.382.867.993 1.046 1.67.182.685.147 1.34-.042 1.783-.17.397-.445.612-.897.612H2.93a.2.2 0 0 1-.064-.01.1.1 0 0 1-.034-.029.43.43 0 0 1-.082-.245.5.5 0 0 1 .055-.28c.03-.05.06-.072.105-.083zM19 16.75a.75.75 0 0 0 0 1.5h.009a.75.75 0 0 0 0-1.5z" clip-rule="evenodd"/></svg>