<svg xmlns="http://www.w3.org/2000/svg" fill="none" viewBox="0 0 24 24"><path fill="currentColor" fill-rule="evenodd" d="M10.995 2.98A2.25 2.25 0 0 1 15.25 4v5.25H16c.78 0 1.467.397 1.871 1H19a2.25 2.25 0 0 1 2.25 2.25v6a3.75 3.75 0 0 1-3.75 3.75H9.595a2.75 2.75 0 0 1-2.317-1.27L3.14 14.506v-.002a2.433 2.433 0 0 1 3.503-3.266l.063.053 1.045.979V5a2.25 2.25 0 0 1 3.244-2.02M10.75 5a.75.75 0 0 0-1.5 0v9a.75.75 0 0 1-1.263.547l-2.273-2.13A.933.933 0 0 0 4.4 13.69l.002.004 4.14 6.48c.23.358.627.576 1.053.576h7.906a2.25 2.25 0 0 0 2.25-2.25v-6a.75.75 0 0 0-.75-.75h-.75V13a.75.75 0 0 1-1.5 0v-1.5a.75.75 0 0 0-.75-.75h-.75v1.605a.75.75 0 0 1-1.5 0V4a.75.75 0 0 0-1.5 0v7.421a.75.75 0 0 1-1.5 0z" clip-rule="evenodd"/></svg>