<svg xmlns="http://www.w3.org/2000/svg" fill="none" viewBox="0 0 24 24"><path fill="currentColor" fill-rule="evenodd" d="M5.64 4.25a2.75 2.75 0 0 0-2.697 2.21l-1.272 6.36a2.75 2.75 0 0 0 2.24 3.252l3.538.596a.25.25 0 0 1 .167.108l1.164 1.746a2.75 2.75 0 0 0 2.285 1.225l1.859.002a2.75 2.75 0 0 0 2.29-1.222l1.17-1.751a.25.25 0 0 1 .166-.108l3.54-.596a2.75 2.75 0 0 0 2.24-3.251l-1.273-6.36a2.75 2.75 0 0 0-2.696-2.211zM4.414 6.755A1.25 1.25 0 0 1 5.64 5.75h12.72c.596 0 1.11.42 1.226 1.005l.1.495H4.314zM4.015 8.75l-.873 4.365a1.25 1.25 0 0 0 1.018 1.478l3.29.554L9.136 8.75zm4.796 7.118.053.076 1.164 1.746a1.25 1.25 0 0 0 1.039.557l1.858.002a1.25 1.25 0 0 0 1.041-.555l1.17-1.752.054-.075-1.876-7.117h-2.627zm7.74-.721 3.29-.554a1.25 1.25 0 0 0 1.017-1.478l-.873-4.365h-5.12z" clip-rule="evenodd"/></svg>