<svg xmlns="http://www.w3.org/2000/svg" fill="none" viewBox="0 0 24 24"><path fill="currentColor" fill-rule="evenodd" d="M2.75 4a1.25 1.25 0 1 1 2.5 0 1.25 1.25 0 0 1-2.5 0M4 1.25a2.75 2.75 0 1 0 0 5.5 2.75 2.75 0 0 0 0-5.5M18.75 4a1.25 1.25 0 1 1 2.5 0 1.25 1.25 0 0 1-2.5 0M20 1.25a2.75 2.75 0 1 0 0 5.5 2.75 2.75 0 0 0 0-5.5m0 17.5a1.25 1.25 0 1 0 0 2.5 1.25 1.25 0 0 0 0-2.5M17.25 20a2.75 2.75 0 1 1 5.5 0 2.75 2.75 0 0 1-5.5 0m-14.5 0a1.25 1.25 0 1 1 2.5 0 1.25 1.25 0 0 1-2.5 0M4 17.25a2.75 2.75 0 1 0 0 5.5 2.75 2.75 0 0 0 0-5.5m7.1-10.087a1.75 1.75 0 0 1 1.8 0l3.7 2.22a1.3 1.3 0 0 1 0 2.23l-3.7 2.22a1.75 1.75 0 0 1-1.8 0l-3.7-2.22a1.3 1.3 0 0 1 0-2.23zm1.03 1.287a.25.25 0 0 0-.258 0l-3.414 2.048 3.414 2.048a.25.25 0 0 0 .257 0l3.414-2.048zm-4.744 4.407a.75.75 0 0 0-.772 1.286l4.486 2.691a1.75 1.75 0 0 0 1.8 0l4.486-2.69a.75.75 0 1 0-.772-1.287l-4.485 2.691a.25.25 0 0 1-.258 0z" clip-rule="evenodd"/></svg>