<svg xmlns="http://www.w3.org/2000/svg" fill="none" viewBox="0 0 24 24"><path fill="currentColor" fill-rule="evenodd" d="M14.75 6.5c0 1.52 1.23 2.75 2.75 2.75s2.75-1.23 2.75-2.75-1.23-2.75-2.75-2.75-2.75 1.23-2.75 2.75m1.5 0a1.25 1.25 0 1 1 2.5 0 1.25 1.25 0 0 1-2.5 0M8.75 11c0 1.79 1.46 3.25 3.25 3.25s3.25-1.46 3.25-3.25S13.79 7.75 12 7.75 8.75 9.21 8.75 11m1.5 0c0-.96.79-1.75 1.75-1.75s1.75.79 1.75 1.75-.79 1.75-1.75 1.75-1.75-.79-1.75-1.75m5.5 8.502c0 .41.34.75.75.75v-.01c.41 0 .75-.34.75-.75v-.73c0-.75-.29-1.42-.81-1.88a6.78 6.78 0 0 0-4.44-1.64c-1.64 0-3.21.59-4.45 1.65-.51.45-.8 1.12-.8 1.87v.73c0 .41.34.75.75.75s.75-.34.75-.75v-.73c0-.18.04-.52.29-.74 1.92-1.64 5.01-1.64 6.92 0 .25.23.29.57.29.75zm5.75-4.252c-.41 0-.75-.34-.75-.75v-.8c0-.17-.03-.47-.25-.68-.84-.82-1.9-1.27-3-1.27-.41 0-.75-.34-.75-.75s.34-.75.75-.75c1.49 0 2.93.6 4.05 1.69.45.44.7 1.07.7 1.76v.8c0 .41-.34.75-.75.75m-19 0c-.41 0-.75-.34-.75-.75v-.8c0-.69.25-1.31.7-1.75 1.12-1.09 2.56-1.7 4.05-1.7.41 0 .75.34.75.75s-.34.75-.75.75c-1.1 0-2.17.45-3 1.27-.21.21-.25.52-.25.68v.8c0 .41-.34.75-.75.75M3.75 6.5c0 1.52 1.23 2.75 2.75 2.75S9.25 8.02 9.25 6.5 8.02 3.75 6.5 3.75 3.75 4.98 3.75 6.5m1.5 0a1.25 1.25 0 1 1 2.5 0 1.25 1.25 0 0 1-2.5 0" clip-rule="evenodd"/></svg>