<svg xmlns="http://www.w3.org/2000/svg" fill="none" viewBox="0 0 24 24"><path fill="currentColor" fill-rule="evenodd" d="M6.75 7a3.25 3.25 0 1 1 6.5 0 3.25 3.25 0 0 1-6.5 0M10 2.25a4.75 4.75 0 1 0 0 9.5 4.75 4.75 0 0 0 0-9.5m1 12.5a6.25 6.25 0 0 1 6.206 5.5H2.795A6.25 6.25 0 0 1 9 14.75zm-2-1.5A7.75 7.75 0 0 0 1.25 21c0 .414.336.75.75.75h16a.75.75 0 0 0 .75-.75A7.75 7.75 0 0 0 11 13.25zm8.53-5.78a.75.75 0 1 0-1.06 1.06l1.97 1.97-1.97 1.97a.75.75 0 1 0 1.06 1.06l1.97-1.97 1.97 1.97a.75.75 0 1 0 1.06-1.06l-1.97-1.97 1.97-1.97a.75.75 0 0 0-1.06-1.06L19.5 9.44z" clip-rule="evenodd"/></svg>