<svg xmlns="http://www.w3.org/2000/svg" fill="none" viewBox="0 0 24 24"><path fill="currentColor" fill-rule="evenodd" d="M6.75 7a3.25 3.25 0 1 1 6.5 0 3.25 3.25 0 0 1-6.5 0M10 2.25a4.75 4.75 0 1 0 0 9.5 4.75 4.75 0 0 0 0-9.5m-1 12.5a6.25 6.25 0 0 0-6.205 5.5H11.5a.75.75 0 0 1 0 1.5H2a.75.75 0 0 1-.75-.75A7.75 7.75 0 0 1 9 13.25h2c.768 0 1.511.112 2.214.321a.75.75 0 0 1-.428 1.438A6.3 6.3 0 0 0 11 14.75zm7.53-.28a.75.75 0 1 0-1.06 1.06L17.94 18l-2.47 2.47a.75.75 0 1 0 1.06 1.06L19 19.06l2.47 2.47a.75.75 0 1 0 1.06-1.06L20.06 18l2.47-2.47a.75.75 0 1 0-1.06-1.06L19 16.94z" clip-rule="evenodd"/></svg>