<svg xmlns="http://www.w3.org/2000/svg" fill="none" viewBox="0 0 24 24"><path fill="currentColor" fill-rule="evenodd" d="M9.75 5a2.25 2.25 0 1 1 4.5 0 2.25 2.25 0 0 1-4.5 0M12 1.25a3.75 3.75 0 1 0 0 7.5 3.75 3.75 0 0 0 0-7.5M8.53 9.53a.75.75 0 0 0-1.06-1.06c-1.099 1.098-2.214 3.064-2.22 5.025-.005.528.022 1.83.592 2.866a.75.75 0 0 0 .657.389h1.416l1.36 5.432a.75.75 0 0 0 .727.568h4a.75.75 0 0 0 .727-.568l1.36-5.432h1.416a.75.75 0 0 0 .657-.389c.57-1.035.597-2.338.591-2.866-.006-1.964-1.125-3.928-2.223-5.025a.75.75 0 0 0-1.06 1.06c.902.902 1.78 2.508 1.783 3.972v.006c.005.42-.025 1.132-.236 1.742h-1.513a.75.75 0 0 0-.728.568l-1.36 5.432h-2.829l-1.36-5.432a.75.75 0 0 0-.727-.568H6.986c-.21-.61-.24-1.323-.236-1.742v-.006c.004-1.463.88-3.07 1.78-3.972" clip-rule="evenodd"/></svg>