<svg xmlns="http://www.w3.org/2000/svg" fill="none" viewBox="0 0 24 24"><path fill="currentColor" fill-rule="evenodd" d="M6.75 7a3.25 3.25 0 1 1 6.5 0 3.25 3.25 0 0 1-6.5 0M10 2.25a4.75 4.75 0 1 0 0 9.5 4.75 4.75 0 0 0 0-9.5m1 12.5a6.25 6.25 0 0 1 6.206 5.5H2.795A6.25 6.25 0 0 1 9 14.75zm-2-1.5A7.75 7.75 0 0 0 1.25 21c0 .414.336.75.75.75h16a.75.75 0 0 0 .75-.75A7.75 7.75 0 0 0 11 13.25zM16.75 10a2.25 2.25 0 0 1 3.218-2.032l-2.999 3.002a2.24 2.24 0 0 1-.219-.97m1.28 2.03 3-3.002a2.25 2.25 0 0 1-3 3.003M19 6.25a3.75 3.75 0 1 0 0 7.5 3.75 3.75 0 0 0 0-7.5" clip-rule="evenodd"/></svg>