<svg xmlns="http://www.w3.org/2000/svg" fill="none" viewBox="0 0 24 24"><path fill="currentColor" fill-rule="evenodd" d="M12 2.75a9.25 9.25 0 0 0 0 18.5.75.75 0 0 1 0 1.5C6.063 22.75 1.25 17.937 1.25 12S6.063 1.25 12 1.25 22.75 6.063 22.75 12a.75.75 0 0 1-1.5 0A9.25 9.25 0 0 0 12 2.75m-.008 5c-.97 0-1.754.785-1.754 1.75 0 .966.784 1.75 1.754 1.75.969 0 1.753-.784 1.753-1.75 0-.965-.784-1.75-1.753-1.75M8.738 9.5a3.25 3.25 0 0 1 3.254-3.25 3.25 3.25 0 0 1 3.253 3.25 3.25 3.25 0 0 1-3.253 3.25A3.25 3.25 0 0 1 8.738 9.5m4.153 6.436c-1.764-.258-3.631.307-4.849 1.582a.75.75 0 0 1-1.084-1.036c1.587-1.662 3.957-2.351 6.15-2.03a.75.75 0 0 1-.217 1.484M15.75 18.5a2.75 2.75 0 1 1 5.5 0 2.75 2.75 0 0 1-5.5 0m2.75-4.25a4.25 4.25 0 1 0 0 8.5 4.25 4.25 0 0 0 0-8.5" clip-rule="evenodd"/></svg>