<svg xmlns="http://www.w3.org/2000/svg" fill="none" viewBox="0 0 24 24"><path fill="currentColor" fill-rule="evenodd" d="M6.75 6a3.25 3.25 0 1 1 6.5 0 3.25 3.25 0 0 1-6.5 0M10 1.25a4.75 4.75 0 1 0 0 9.5 4.75 4.75 0 0 0 0-9.5m-1 12.5a6.25 6.25 0 0 0-6.205 5.5H11a.75.75 0 0 1 0 1.5H2a.75.75 0 0 1-.75-.75A7.75 7.75 0 0 1 9 12.25h2a7.7 7.7 0 0 1 3.876 1.037.75.75 0 1 1-.751 1.299A6.2 6.2 0 0 0 11 13.75zm11.03-.28a.75.75 0 0 0-1.06 0l-5.5 5.5a.75.75 0 0 0-.22.53V22c0 .414.336.75.75.75h2.5a.75.75 0 0 0 .53-.22l5.5-5.5a.75.75 0 0 0 0-1.06zm-5.28 7.78v-1.44l4.75-4.75 1.44 1.44-4.75 4.75z" clip-rule="evenodd"/></svg>