<svg xmlns="http://www.w3.org/2000/svg" fill="none" viewBox="0 0 24 24"><path fill="currentColor" fill-rule="evenodd" d="M4.386 3.5c0-.354.334-.75.887-.75h5.454c.553 0 .887.396.887.75 0 .28-.197.573-.557.696h-.002q-.045.006-.13.012a11 11 0 0 1-.397.023l-.38.014-.122.004h-.034l-.01.001a.75.75 0 0 0 .037 1.5l.177-.005a32 32 0 0 0 .627-.027c.858 1.598 1.534 3.025 1.954 4.54a.75.75 0 0 0 1.446-.401c-.444-1.6-1.139-3.083-1.963-4.633a2.19 2.19 0 0 0 .854-1.724c0-1.303-1.132-2.25-2.387-2.25H5.273c-1.255 0-2.387.947-2.387 2.25 0 .7.333 1.303.832 1.707-1.453 2.739-2.468 5.24-2.468 8.57V20A2.75 2.75 0 0 0 4 22.75h6.5a.75.75 0 0 0 0-1.5H4c-.69 0-1.25-.56-1.25-1.25v-6.223c0-3.046.93-5.324 2.398-8.063a19 19 0 0 0 .651.03l.18.006a.75.75 0 1 0 .04-1.5h-.01l-.034-.001a29 29 0 0 1-.511-.02 13 13 0 0 1-.535-.038h-.002c-.35-.127-.54-.415-.54-.691m13.66 8.63c.24-.066.502-.11.772-.11.998 0 1.99.647 2.696 1.56.727.94 1.236 2.255 1.236 3.805 0 3.283-2.933 5.365-5.75 5.365s-5.75-2.082-5.75-5.365c0-1.55.51-2.866 1.236-3.806.707-.912 1.698-1.56 2.696-1.56.454 0 .88.125 1.227.27a5.1 5.1 0 0 1 .643-1.473c.545-.837 1.435-1.566 2.675-1.566a.75.75 0 0 1 0 1.5c-.577 0-1.053.323-1.418.884q-.153.236-.264.497m-.601 1.96a.75.75 0 0 1-.912-.012l-.113-.082c-.082-.055-.2-.13-.34-.204-.298-.157-.623-.272-.898-.272-.366 0-.966.275-1.51.978-.522.675-.922 1.668-.922 2.887 0 2.255 2.046 3.865 4.25 3.865s4.25-1.61 4.25-3.865c0-1.22-.4-2.212-.923-2.887-.543-.703-1.143-.978-1.509-.978-.275 0-.602.115-.902.273a4 4 0 0 0-.342.205l-.125.09z" clip-rule="evenodd"/></svg>