<svg xmlns="http://www.w3.org/2000/svg" fill="none" viewBox="0 0 24 24"><path fill="currentColor" fill-rule="evenodd" d="M6 1.25A3.75 3.75 0 0 0 2.25 5v14A3.75 3.75 0 0 0 6 22.75h12A3.75 3.75 0 0 0 21.75 19V5A3.75 3.75 0 0 0 18 1.25zM3.75 5A2.25 2.25 0 0 1 6 2.75h12A2.25 2.25 0 0 1 20.25 5v6.25H3.75zm0 7.75V19A2.25 2.25 0 0 0 6 21.25h12A2.25 2.25 0 0 0 20.25 19v-6.25zm4.28 2.22a.75.75 0 0 0-1.06 1.06l.97.97-.97.97a.75.75 0 1 0 1.06 1.06l.97-.97.97.97a.75.75 0 1 0 1.06-1.06l-.97-.97.97-.97a.75.75 0 1 0-1.06-1.06l-.97.97zm7.961.53a1 1 0 0 1 1-1h.01a1 1 0 1 1 0 2h-.01a1 1 0 0 1-1-1M14 18.5a1 1 0 0 1 1-1h.009a1 1 0 1 1 0 2H15a1 1 0 0 1-1-1" clip-rule="evenodd"/></svg>