<svg xmlns="http://www.w3.org/2000/svg" fill="none" viewBox="0 0 24 24"><path fill="currentColor" fill-rule="evenodd" d="M4.5 1.75A2.75 2.75 0 0 0 1.75 4.5v15a2.75 2.75 0 0 0 2.75 2.75h15a2.75 2.75 0 0 0 2.75-2.75v-15a2.75 2.75 0 0 0-2.75-2.75zM3.25 4.5c0-.69.56-1.25 1.25-1.25h15c.69 0 1.25.56 1.25 1.25v15c0 .69-.56 1.25-1.25 1.25h-15c-.69 0-1.25-.56-1.25-1.25zm13.763 4.476c0-1.44-.795-2.692-1.95-3.096a2.23 2.23 0 0 0-1.854.164c-.592.333-1.067.923-1.4 1.72l-.016.04c-.281.797-.4 1.933.052 3.022.387.934 1.16 1.751 2.425 2.275a9.95 9.95 0 0 1-2.884 3.452c-1.282-1.13-2.174-2.766-2.757-4.444-.644-1.852-.879-3.659-.879-4.67a.75.75 0 0 0-1.5 0c0 1.185.265 3.158.962 5.163.695 1.998 1.853 4.124 3.704 5.5a.75.75 0 0 0 .878.012c2.04-1.432 3.144-2.974 3.94-4.587A12 12 0 0 0 18 13.72a.75.75 0 0 0 0-1.5c-1.024 0-1.843-.108-2.492-.282-1.404-.377-2.017-1.057-2.278-1.687-.274-.659-.214-1.39-.03-1.927.243-.57.524-.849.744-.972a.73.73 0 0 1 .624-.057c.437.154.945.746.945 1.681 0 .372-.05.786-.147 1.23a.75.75 0 0 0 1.465.321 7.3 7.3 0 0 0 .182-1.55" clip-rule="evenodd"/></svg>