<svg xmlns="http://www.w3.org/2000/svg" fill="none" viewBox="0 0 24 24"><path fill="currentColor" fill-rule="evenodd" d="M4.5 1.75A2.75 2.75 0 0 0 1.75 4.5v15a2.75 2.75 0 0 0 2.75 2.75h15a2.75 2.75 0 0 0 2.75-2.75v-15a2.75 2.75 0 0 0-2.75-2.75zM3.25 4.5c0-.69.56-1.25 1.25-1.25h15c.69 0 1.25.56 1.25 1.25v15c0 .69-.56 1.25-1.25 1.25h-15c-.69 0-1.25-.56-1.25-1.25zm14.978 3.682a.75.75 0 0 0-1.456-.364c-.472 1.89-1.764 2.956-2.94 3.502q-.305.14-.582.233V8a.75.75 0 0 0-.75-.75h-2a.75.75 0 0 0 0 1.5h1.25v6.199c-1.895-.826-4.5-2.94-4.5-6.949a.75.75 0 1 0-1.5 0c0 5.671 4.376 8.18 6.568 8.728A.75.75 0 0 0 13.25 16v-2.883a7 7 0 0 0 .932-.313 4.9 4.9 0 0 1 1.547.967c.59.556 1.021 1.287 1.021 2.23a.75.75 0 0 0 1.5 0c0-1.459-.685-2.56-1.492-3.322a6 6 0 0 0-1.008-.765 6.56 6.56 0 0 0 2.478-3.732" clip-rule="evenodd"/></svg>