<svg xmlns="http://www.w3.org/2000/svg" fill="none" viewBox="0 0 24 24"><path fill="currentColor" fill-rule="evenodd" d="M2.75 6A2.25 2.25 0 0 1 5 3.75h14A2.25 2.25 0 0 1 21.25 6v4A2.25 2.25 0 0 1 19 12.25h-3.095a2.25 2.25 0 0 1-1.728-.81l-1.6-1.92a.75.75 0 0 0-1.153 0l-1.6 1.92a2.25 2.25 0 0 1-1.73.81H5A2.25 2.25 0 0 1 2.75 10zM5 2.25A3.75 3.75 0 0 0 1.25 6v4A3.75 3.75 0 0 0 5 13.75h3.095a3.75 3.75 0 0 0 2.88-1.35L12 11.172l1.024 1.23a3.75 3.75 0 0 0 2.881 1.349H19A3.75 3.75 0 0 0 22.75 10V6A3.75 3.75 0 0 0 19 2.25zM4.25 6A.75.75 0 0 1 5 5.25h2a.75.75 0 0 1 0 1.5H5A.75.75 0 0 1 4.25 6m-2.585 8.33a.75.75 0 0 1 1.006.335c.397.794 1.359 1.696 2.894 2.403 1.219.561 2.76.98 4.567 1.121l-.66-.657a.75.75 0 0 1 1.057-1.063l2 1.99a.75.75 0 0 1 .003 1.061l-2 2.01a.75.75 0 0 1-1.063-1.059l.767-.77c-2.062-.136-3.854-.606-5.298-1.27-1.718-.791-3.006-1.89-3.609-3.095a.75.75 0 0 1 .336-1.007m20.67 0a.75.75 0 0 1 .336 1.006c-1.156 2.31-3.943 3.89-7.565 4.407a.75.75 0 1 1-.212-1.485c3.378-.483 5.59-1.904 6.435-3.593a.75.75 0 0 1 1.007-.336" clip-rule="evenodd"/></svg>