<svg xmlns="http://www.w3.org/2000/svg" fill="none" viewBox="0 0 24 24"><path fill="currentColor" fill-rule="evenodd" d="M5.252 3a.25.25 0 0 1 .25-.25H19.82l-.817 1.732a1.75 1.75 0 0 0-.167.746V21a.25.25 0 0 1-.25.25H4.085l1.056-2.817a1.8 1.8 0 0 0 .111-.614v-6.542a.25.25 0 0 1 .036-.129L6.337 9.4a1.75 1.75 0 0 0 0-1.8l-1.05-1.748a.25.25 0 0 1-.035-.129zm.25-1.75A1.75 1.75 0 0 0 3.752 3v2.723c0 .317.086.628.25.9L5.05 8.371a.25.25 0 0 1 0 .258l-1.048 1.748a1.75 1.75 0 0 0-.25.9v6.542a.3.3 0 0 1-.016.087l-1.183 3.155a1.25 1.25 0 0 0 1.17 1.689h14.863a1.75 1.75 0 0 0 1.75-1.75V5.228a.25.25 0 0 1 .024-.106l.985-2.089a1.25 1.25 0 0 0-1.131-1.783zm6.502 6a.75.75 0 1 0 0 1.5.75.75 0 0 0 0-1.5M9.754 8a2.25 2.25 0 1 1 4.5 0 2.25 2.25 0 0 1-4.5 0m4.372 5.75a2.251 2.251 0 0 0-4.244 0zm-5.872.75a3.75 3.75 0 1 1 7.5 0 .75.75 0 0 1-.75.75h-6a.75.75 0 0 1-.75-.75m0 3a.75.75 0 0 1 .75-.75h6a.75.75 0 0 1 0 1.5h-6a.75.75 0 0 1-.75-.75" clip-rule="evenodd"/></svg>