<svg xmlns="http://www.w3.org/2000/svg" fill="none" viewBox="0 0 24 24"><path fill="currentColor" fill-rule="evenodd" d="M6 1.25A3.75 3.75 0 0 0 2.25 5v12a3.75 3.75 0 0 0 3 3.675V22a.75.75 0 0 0 1.5 0v-1.25h10.5V22a.75.75 0 0 0 1.5 0v-1.325a3.75 3.75 0 0 0 3-3.675V5A3.75 3.75 0 0 0 18 1.25zm14.25 14V5A2.25 2.25 0 0 0 18 2.75h-5.25v12.5zm-9 0V2.75H6A2.25 2.25 0 0 0 3.75 5v10.25zm-7.5 1.5h16.5V17A2.25 2.25 0 0 1 18 19.25H6A2.25 2.25 0 0 1 3.75 17zm12-7.75a.75.75 0 0 0-1.5 0v1a.75.75 0 0 0 1.5 0zM9 8.25a.75.75 0 0 1 .75.75v1a.75.75 0 0 1-1.5 0V9A.75.75 0 0 1 9 8.25" clip-rule="evenodd"/></svg>