<svg xmlns="http://www.w3.org/2000/svg" fill="none" viewBox="0 0 24 24"><path fill="currentColor" fill-rule="evenodd" d="M12.008 1.25h5.422a1.75 1.75 0 0 1 1.632 1.12l.725 1.876H21a.75.75 0 0 1 0 1.5h-.805l-.447 5.812a.75.75 0 1 1-1.496-.115l.438-5.697H9.31L5.797 5.73l.834 13.347A1.25 1.25 0 0 0 7.88 20.25H9.5a.75.75 0 0 1 0 1.5H7.879a2.75 2.75 0 0 1-2.745-2.578l-.84-13.448-1.297-.006a.75.75 0 1 1 .006-1.5l5.93.026 1.662-2.276a1.75 1.75 0 0 1 1.413-.718m-1.22 2.996h7.39l-.515-1.336a.25.25 0 0 0-.233-.16h-5.422a.25.25 0 0 0-.202.103zm1.923 12.991c.422-1.264 1.72-2.487 3.289-2.487 1.24 0 2.324.746 2.834 1.85a.75.75 0 1 0 1.361-.629c-.738-1.598-2.332-2.721-4.195-2.721-1.707 0-3.114.937-3.979 2.115l-.35-.7a.75.75 0 1 0-1.342.67l1 2a.75.75 0 0 0 1.382-.098m7.96 1.428a.75.75 0 0 0-1.383.098c-.42 1.264-1.72 2.487-3.288 2.487-1.24 0-2.324-.746-2.834-1.85a.75.75 0 1 0-1.362.629c.739 1.599 2.333 2.721 4.196 2.721 1.707 0 3.114-.937 3.979-2.115l.35.7a.75.75 0 1 0 1.342-.67z" clip-rule="evenodd"/></svg>