<svg xmlns="http://www.w3.org/2000/svg" fill="none" viewBox="0 0 24 24"><path fill="currentColor" fill-rule="evenodd" d="M19.5 2.75c.69 0 1.25.56 1.25 1.25v3.25H3.25V4.008c0-.69.56-1.25 1.25-1.25zm-16.25 6v9.749c0 .69.56 1.25 1.25 1.25H5a.75.75 0 0 1 0 1.5h-.5a2.75 2.75 0 0 1-2.75-2.75V4.009a2.75 2.75 0 0 1 2.749-2.75l15-.009A2.75 2.75 0 0 1 22.25 4v14.499a2.75 2.75 0 0 1-2.75 2.75H19a.75.75 0 0 1 0-1.5h.5c.69 0 1.25-.56 1.25-1.25V8.75zM6.5 4a1 1 0 0 0 0 2h.009a1 1 0 0 0 0-2zm3.991 0a1 1 0 0 0 0 2h.009a1 1 0 1 0 0-2zM12 13.75c-.69 0-1.25.56-1.25 1.25v.75h2.5V15c0-.69-.56-1.25-1.25-1.25m2.75 2V15a2.75 2.75 0 1 0-5.5 0v.75H8.5a.75.75 0 0 0-.75.75V22c0 .414.336.75.75.75h7a.75.75 0 0 0 .75-.75v-5.5a.75.75 0 0 0-.75-.75zm-5.5 1.5v4h5.5v-4z" clip-rule="evenodd"/></svg>