<svg xmlns="http://www.w3.org/2000/svg" fill="none" viewBox="0 0 24 24"><path fill="currentColor" fill-rule="evenodd" d="M2.75 9.954C2.75 6.623 5.894 3.75 10 3.75s7.25 2.873 7.25 6.204q0 .2-.015.396a8 8 0 0 0-1.196-.1c-3.59-.025-6.766 2.394-6.789 5.684q0 .14.006.28a7.8 7.8 0 0 1-2.928-.898.75.75 0 0 0-.521-.067l-2.704.631.688-2.225a.75.75 0 0 0-.1-.65c-.638-.918-.941-1.887-.941-3.051m6.825 7.786a9.15 9.15 0 0 1-3.695-.968l-3.696.863a.76.76 0 0 1-.897-.96l.967-3.125c-.678-1.089-1.004-2.262-1.004-3.596 0-4.35 4.02-7.704 8.75-7.704s8.75 3.354 8.75 7.704q0 .396-.045.783c2.347.877 4.06 2.858 4.044 5.291-.007 1.019-.41 1.855-.897 2.573l.838 2.104a.76.76 0 0 1-.874 1.022l-2.758-.625a7.1 7.1 0 0 1-3.063.648c-2.899-.02-5.525-1.653-6.42-4.01M7 6a1 1 0 0 0 0 2h.009a1 1 0 0 0 0-2zm5.991 0a1 1 0 1 0 0 2H13a1 1 0 1 0 0-2zM14 13.5a1 1 0 1 0 0 2h.009a1 1 0 1 0 0-2zm3.991 0a1 1 0 1 0 0 2H18a1 1 0 1 0 0-2zm-1.962-1.75c-3.036-.021-5.264 1.982-5.279 4.194-.015 2.214 2.221 4.285 5.255 4.306a5.6 5.6 0 0 0 2.635-.61.75.75 0 0 1 .497-.058l1.64.372-.47-1.178a.75.75 0 0 1 .095-.725c.526-.707.842-1.328.847-2.033.015-2.212-2.184-4.247-5.22-4.268" clip-rule="evenodd"/></svg>