<svg xmlns="http://www.w3.org/2000/svg" fill="none" viewBox="0 0 24 24"><path fill="currentColor" fill-rule="evenodd" d="M1.25 6c0-1.52 1.23-2.75 2.75-2.75h10c.41 0 .75.34.75.75s-.34.75-.75.75H4c-.69 0-1.25.56-1.25 1.25v4.25l1.23-1.19a2.924 2.924 0 0 1 4.04 0 2.76 2.76 0 0 1 0 3.98c-.52.51-.52 1.31 0 1.82.54.52 1.42.52 1.96 0l.5-.48c.3-.29.77-.28 1.06.02.29.29.28.77-.02 1.06l-.5.48a2.924 2.924 0 0 1-4.04 0 2.76 2.76 0 0 1 0-3.98c.52-.51.52-1.31 0-1.82-.54-.52-1.42-.52-1.96 0l-2.27 2.19V18c0 .69.56 1.25 1.25 1.25h15c.69 0 1.25-.56 1.25-1.25v-5c0-.41.34-.75.75-.75s.75.34.75.75v5c0 1.52-1.23 2.75-2.75 2.75H4c-1.52 0-2.75-1.23-2.75-2.75zm18.52-1.18c.09-.09.24-.09.34 0l1.07 1.07c.09.1.09.25 0 .34l-6.02 6.02h-1.41v-1.41zm1.4-1.06c-.68-.68-1.78-.68-2.46 0L12.47 10a.75.75 0 0 0-.22.53V13c0 .41.34.75.75.75h2.47c.2 0 .39-.08.53-.22l6.24-6.24c.68-.68.68-1.78 0-2.46l-1.08-1.07z" clip-rule="evenodd"/></svg>