<svg xmlns="http://www.w3.org/2000/svg" fill="none" viewBox="0 0 24 24"><path fill="currentColor" fill-rule="evenodd" d="M22.576 3.48a.75.75 0 0 0-1.152-.96L16.95 7.889l-1.92-1.92a.75.75 0 1 0-1.06 1.061l2.5 2.5a.75.75 0 0 0 1.106-.05zM12.25 6.972a.75.75 0 0 1-.72.777c-3.06.117-6.146 1.376-9.045 3.824a.75.75 0 0 1-.968-1.146c3.11-2.625 6.507-4.045 9.956-4.176a.75.75 0 0 1 .777.72m6.748 6.466c-4.06-3.591-9.708-3.572-13.977-.014a.75.75 0 0 0 .96 1.152c3.73-3.109 8.547-3.09 12.023-.014a.75.75 0 1 0 .994-1.124M12 14.75c1.649 0 3.358.547 4.53 1.72a.75.75 0 1 1-1.06 1.06c-.828-.827-2.119-1.28-3.47-1.28s-2.642.453-3.47 1.28a.75.75 0 0 1-1.06-1.06c1.172-1.173 2.881-1.72 4.53-1.72M11 20a1 1 0 0 1 1-1h.012a1 1 0 1 1 0 2H12a1 1 0 0 1-1-1" clip-rule="evenodd"/></svg>