<svg xmlns="http://www.w3.org/2000/svg" fill="none" viewBox="0 0 24 24"><path fill="currentColor" fill-rule="evenodd" d="M12 2.75c-4.466 0-8.25 3.706-8.25 8.176 0 2.222 1.142 4.215 2.84 5.99 1.584 1.655 3.59 3.055 5.412 4.201 1.823-1.136 3.827-2.539 5.409-4.197 1.699-1.781 2.839-3.78 2.839-5.994 0-4.47-3.784-8.176-8.25-8.176m-9.75 8.176C2.25 5.61 6.725 1.25 12 1.25s9.75 4.36 9.75 9.676c0 2.756-1.422 5.109-3.254 7.03-1.834 1.922-4.151 3.489-6.104 4.684a.75.75 0 0 1-.787-.002c-1.946-1.205-4.263-2.767-6.098-4.684-1.833-1.916-3.257-4.263-3.257-7.028m5.277-2.03c1.267-1.03 2.802-1.646 4.468-1.646 1.67 0 3.21.62 4.48 1.656a.75.75 0 0 1-.95 1.162c-1.032-.844-2.244-1.318-3.53-1.318-1.282 0-2.49.47-3.522 1.31a.75.75 0 1 1-.946-1.164m1.903 2.46a4.84 4.84 0 0 1 2.565-.745c.934 0 1.81.275 2.576.753a.75.75 0 1 1-.794 1.272 3.35 3.35 0 0 0-1.782-.525c-.63 0-1.23.183-1.775.52a.75.75 0 0 1-.79-1.275M12 14a1 1 0 1 0 0 2h.006a1 1 0 0 0 0-2z" clip-rule="evenodd"/></svg>