<svg xmlns="http://www.w3.org/2000/svg" fill="none" viewBox="0 0 24 24"><path fill="currentColor" fill-rule="evenodd" d="M3.72 6.655A13.2 13.2 0 0 1 12 3.75c3.133 0 6.01 1.087 8.279 2.905.404.324.494.96.122 1.474l-.798 1.101c-4.826-2.64-10.38-2.64-15.206.003l-.8-1.104c-.372-.513-.282-1.15.122-1.474m1.565 3.803 1.35 1.864a13.97 13.97 0 0 1 10.729-.002l1.35-1.864c-4.28-2.275-9.148-2.275-13.429.002m15.101.248-2.127 2.935a1 1 0 0 1-.072.1l-2.368 3.267a1 1 0 0 1-.073.1l-2.33 3.215a1.75 1.75 0 0 1-2.834 0l-8.2-11.314c-.771-1.065-.718-2.63.4-3.525a14.7 14.7 0 0 1 9.217-3.234 14.7 14.7 0 0 1 9.218 3.234c1.117.896 1.17 2.46.398 3.525l-1.158 1.599a1 1 0 0 1-.071.098M14.9 15.719l1.556-2.146a12.47 12.47 0 0 0-8.912.002l1.555 2.146a9.2 9.2 0 0 1 5.801-.002m-4.868 1.288a7.7 7.7 0 0 1 3.936-.001l-1.766 2.437a.25.25 0 0 1-.405 0z" clip-rule="evenodd"/></svg>