<svg xmlns="http://www.w3.org/2000/svg" fill="none" viewBox="0 0 24 24"><path fill="currentColor" fill-rule="evenodd" d="M22.484 8.927C19.214 6.166 15.626 4.75 12 4.75S4.786 6.166 1.516 8.927a.75.75 0 1 0 .968 1.146C5.53 7.501 8.784 6.25 12 6.25s6.47 1.25 9.516 3.823a.75.75 0 1 0 .968-1.146M5.02 11.924c4.27-3.558 9.918-3.577 13.977.014a.75.75 0 0 1-.994 1.124c-3.476-3.075-8.292-3.095-12.023.014a.75.75 0 0 1-.96-1.152m11.493 3.029c-2.422-2.27-6.604-2.27-9.026 0a.75.75 0 0 0 1.026 1.094c1.845-1.73 5.13-1.73 6.974 0a.75.75 0 0 0 1.026-1.094M12 17.5a1 1 0 1 0 0 2h.012a1 1 0 1 0 0-2z" clip-rule="evenodd"/></svg>