<svg xmlns="http://www.w3.org/2000/svg" fill="none" viewBox="0 0 24 24"><path fill="currentColor" fill-rule="evenodd" d="M22.484 7.427C19.214 4.666 15.626 3.25 12 3.25S4.786 4.666 1.516 7.427a.75.75 0 1 0 .968 1.146C5.53 6.001 8.784 4.75 12 4.75S18.47 6 21.516 8.573a.75.75 0 0 0 .968-1.146M12.087 9.25c2.512 0 4.953 1.106 6.959 3.236a.75.75 0 1 1-1.092 1.028c-1.761-1.87-3.82-2.764-5.867-2.764-2.049 0-4.174.897-6.057 2.78a.75.75 0 0 1-1.06-1.06c2.117-2.117 4.608-3.22 7.117-3.22M8.97 14.47a.75.75 0 0 1 1.06 0L12 16.44l1.97-1.97a.75.75 0 1 1 1.06 1.06l-1.97 1.97 1.97 1.97a.75.75 0 1 1-1.06 1.06L12 18.56l-1.97 1.97a.75.75 0 1 1-1.06-1.06l1.97-1.97-1.97-1.97a.75.75 0 0 1 0-1.06" clip-rule="evenodd"/></svg>