<svg xmlns="http://www.w3.org/2000/svg" fill="none" viewBox="0 0 24 24"><path fill="currentColor" fill-rule="evenodd" d="M18.544 21.71c.16.03.31.04.47.04v-.02a2.744 2.744 0 0 0 2.74-2.74v-14a2.744 2.744 0 0 0-3.21-2.7l-14 2.33c-1.31.22-2.3 1.38-2.3 2.71v9.34c0 1.33.99 2.49 2.3 2.71zm.26-17.94c.07-.02.14-.02.21-.02.29 0 .57.1.8.29.28.24.44.59.44.96v6.25h-8.5V4.945zm-8.55 1.424-5.45.907c-.59.1-1.04.63-1.04 1.23v3.92h6.49zm-6.49 7.557v3.92c0 .6.45 1.13 1.04 1.23l5.45.907V12.75zm7.99 6.306v-6.306h8.5V19c0 .37-.16.72-.44.96-.28.23-.65.33-1.01.27z" clip-rule="evenodd"/></svg>