<svg xmlns="http://www.w3.org/2000/svg" fill="none" viewBox="0 0 24 24"><path fill="currentColor" fill-rule="evenodd" d="M12.57 3.44a.75.75 0 1 0-1.215-.88L8.1 7.047 7.142 8.26l-1.478 1.943a1.75 1.75 0 0 0-.334 1.347l.29 1.739a1.75 1.75 0 0 0 1.726 1.462h1.602a.75.75 0 0 0 0-1.5H7.346a.25.25 0 0 1-.246-.209l-.29-1.738a.25.25 0 0 1 .048-.193l1.027-1.35 4.332 3.124V21a.75.75 0 0 0 1.5 0v-8.342l1.208-2.75 5.638-6.413a.75.75 0 0 0-1.127-.99l-5.248 5.97-3.37-2.622zm.083 7.91L8.805 8.573l.48-.61.019-.023.633-.873 3.427 2.665zM4.75 5.5a.75.75 0 1 1 1.5 0 .75.75 0 0 1-1.5 0m.75-2.25a2.25 2.25 0 1 0 0 4.5 2.25 2.25 0 0 0 0-4.5" clip-rule="evenodd"/></svg>