<svg xmlns="http://www.w3.org/2000/svg" fill="none" viewBox="0 0 24 24"><path fill="currentColor" fill-rule="evenodd" d="M12.177 3.237a.25.25 0 0 0-.354 0L9.237 5.823a.25.25 0 0 0 0 .354l2.586 2.585a.25.25 0 0 0 .354 0l2.585-2.585a.25.25 0 0 0 0-.354zm-1.415-1.06a1.75 1.75 0 0 1 2.475 0l2.586 2.585a1.75 1.75 0 0 1 0 2.475L15.06 8l2.734 2.733a3.25 3.25 0 1 1-1.06 1.06L14 9.062l-.763.762q-.22.219-.487.344v6.083h.75c.966 0 1.75.784 1.75 1.75v3a1.75 1.75 0 0 1-1.75 1.75h-3A1.75 1.75 0 0 1 8.75 21v-3c0-.966.784-1.75 1.75-1.75h.75v-6.083a1.8 1.8 0 0 1-.488-.344L10 9.06l-2.733 2.733a3.25 3.25 0 1 1-1.061-1.06l2.733-2.734-.761-.762a1.75 1.75 0 0 1 0-2.475zM10.5 17.75a.25.25 0 0 0-.25.25v3c0 .138.112.25.25.25h3a.25.25 0 0 0 .25-.25v-3a.25.25 0 0 0-.25-.25zM2.75 13.5a1.75 1.75 0 1 1 3.5 0 1.75 1.75 0 0 1-3.5 0m16.75 1.75a1.75 1.75 0 1 1 0-3.5 1.75 1.75 0 0 1 0 3.5" clip-rule="evenodd"/></svg>