<svg xmlns="http://www.w3.org/2000/svg" fill="none" viewBox="0 0 24 24"><path fill="currentColor" fill-rule="evenodd" d="M15.5 3.75a.75.75 0 1 0 0 1.5.75.75 0 0 0 0-1.5m-2.25.75a2.25 2.25 0 1 1 4.5 0 2.25 2.25 0 0 1-4.5 0m.461 4.487c-.123-.176-.269-.235-.357-.235h-.946L11.36 10.37c-.356.55-.594.919-.75 1.219-.15.288-.186.448-.19.57a1.3 1.3 0 0 0 .077.463c.043.115.13.254.364.479.125.12.276.25.464.403l2.703-4.111a5 5 0 0 1-.317-.405m1.517 1.31c.577.286 1.26.454 2.021.373 1.088-.117 2.209-.73 3.312-1.972a.75.75 0 1 0-1.122-.996c-.934 1.052-1.736 1.41-2.35 1.476s-1.17-.148-1.639-.5a2.4 2.4 0 0 1-.508-.549c-.327-.468-.89-.877-1.588-.877H11.99c-1.806.022-3.195.33-4.285.952-1.103.628-1.828 1.534-2.375 2.611a.75.75 0 0 0 1.338.68c.453-.894.998-1.543 1.779-1.988.535-.305 1.214-.533 2.108-.655l-.474.731c-.332.513-.61.942-.803 1.314-.203.391-.347.784-.358 1.226-.008.346.049.69.168 1.016.153.414.416.74.734 1.044.302.29.702.605 1.18.982l1.492 1.468a4.16 4.16 0 0 1 1.114 1.938l.664 2.615a.75.75 0 0 0 1.454-.369l-.664-2.616a5.66 5.66 0 0 0-1.516-2.637L12.465 14.5zM9.664 16.35a.75.75 0 0 0-1.328-.698c-.629 1.198-2.071 1.847-3.484 1.511l-.678-.161a.75.75 0 1 0-.347 1.459l.678.161c2.044.487 4.195-.436 5.16-2.272" clip-rule="evenodd"/></svg>