<svg xmlns="http://www.w3.org/2000/svg" fill="none" viewBox="0 0 24 24"><path fill="currentColor" fill-rule="evenodd" d="M9 1.75H1.75V9h1.5V3.25H9zm6 1.5h5.75V9h1.5V1.75H15zM3.25 15v5.75H9v1.5H1.75V15zm17.5 0v5.75H15v1.5h7.25V15zm-9.085-9.17a.75.75 0 0 1 .67 0l5 2.5a.75.75 0 0 1 .415.67v6a.75.75 0 0 1-.415.67l-5 2.5a.75.75 0 0 1-.67 0l-5-2.5A.75.75 0 0 1 6.25 15V9a.75.75 0 0 1 .415-.67zm1.085 6.134 3.5-1.75v4.323l-3.5 1.75zm-1.5 0v4.323l-3.5-1.75v-4.324zM12 10.66 15.323 9 12 7.339 8.677 9z" clip-rule="evenodd"/></svg>