<svg xmlns="http://www.w3.org/2000/svg" fill="none" viewBox="0 0 24 24"><path fill="currentColor" fill-rule="evenodd" d="M2.75 12a9.25 9.25 0 1 1 18.5 0 9.25 9.25 0 0 1-18.5 0M12 1.25C6.063 1.25 1.25 6.063 1.25 12S6.063 22.75 12 22.75 22.75 17.937 22.75 12 17.937 1.25 12 1.25m-1.962 6.014h-2.73v2.98l-.849 1.233a.87.87 0 0 0-.009.99l.857 1.338v2.93h2.73v-1.5h-1.23v-1.87l-.88-1.374.88-1.28V8.764h1.23zm6.706 0h-2.73v1.5h1.23v1.947l.881 1.28-.88 1.375v1.87h-1.23v1.5h2.73v-2.931l.856-1.337a.87.87 0 0 0-.008-.992l-.849-1.232z" clip-rule="evenodd"/></svg>