<svg xmlns="http://www.w3.org/2000/svg" fill="none" viewBox="0 0 24 24"><path fill="currentColor" fill-rule="evenodd" d="M3.159 22.747h3.9v-1.5h-3.25V9.704h6.968V2.75h8.577v11.233h1.5V2.1a.85.85 0 0 0-.85-.85H9.717L2.309 8.643v13.254c0 .469.38.85.85.85M9.277 8.204H4.872l4.405-4.396zM9.035 21.24v1.5h.001c.656 0 1.986-.716 3.168-1.683 1.455.588 3.226.212 4.966-1.071.375 1.41 1.153 2.342 2.09 2.499.601.1 1.511-.073 2.428-1.473l-1.255-.822c-.423.646-.763.844-.926.816-.23-.04-.663-.517-.902-1.46l-.006-.022c-.184-.72-.295-1.154-.76-1.337-.514-.208-.9.087-1.44.501s-1.722 1.195-2.9 1.137c.85-.941 1.74-2.23 2.263-3.863.514-1.606-.147-2.261-.587-2.508-1.179-.662-3.209.324-4.366 1.66-1.28 1.48-1.418 3.18-.364 4.552q.214.278.45.512c-.964.724-1.734 1.038-1.899 1.064zm2.948-5.191c.828-.927 1.861-1.32 2.294-1.32l.001.002q.098 0 .152.026c.015.042.065.243-.097.748-.519 1.62-1.469 2.852-2.3 3.686a3.4 3.4 0 0 1-.399-.44c-.436-.566-.729-1.495.35-2.702" clip-rule="evenodd"/></svg>