<svg xmlns="http://www.w3.org/2000/svg" fill="none" viewBox="0 0 24 24"><path fill="currentColor" fill-rule="evenodd" d="M18.52 16.744H22v-1.5h-3.178l-5.688-6.79-1.74 1.416-.03.032c-.232.24-.62.48-.92.473-.103-.002-.243-.029-.414-.223-.586-.662-.087-1.362.002-1.475l1.77-1.85c.917-.908 1.766-.997 2.274-1.05l.045-.005c1.585-.168 2.618.665 3.53 1.4l.003.002.02.016c.321.259.625.504.941.694l.18.108h3.183v-1.5h-2.753c-.192-.132-.402-.302-.621-.478l-.008-.007c-1.025-.827-2.43-1.96-4.633-1.726l-.043.004c-.5.053-1.444.152-2.479.888l-1.543-.671-.006-.003-.006-.002c-1.285-.532-2.72-.128-3.662 1.03l-.658.735h-3.57v1.5h3.905a.75.75 0 0 0 .56-.25l.893-.998.026-.031c.52-.646 1.258-.877 1.926-.603l.936.407-1.316 1.375-.033.037c-.71.85-1.01 2.29.013 3.446.41.465.931.717 1.504.73.798.018 1.548-.446 1.998-.897l.525-.428 3.39 4.048-1.438 1.39c-1.582 1.528-2.253 2.15-2.992 2.24h-.006l-.109.01c-.78.056-1.656-.507-3.4-1.63L6.4 15.334a.75.75 0 0 0-.406-.12H1.996v1.5h3.777l1.794 1.156h.002c1.844 1.188 2.908 1.874 4.1 1.874v-.001a3 3 0 0 0 .385-.024l.012-.001c1.275-.153 2.194-1.04 3.862-2.651l1.362-1.316.577.688.008.01a.85.85 0 0 0 .644.295" clip-rule="evenodd"/></svg>