<svg xmlns="http://www.w3.org/2000/svg" fill="none" viewBox="0 0 24 24"><path fill="currentColor" fill-rule="evenodd" d="M19.44 9.015h-1.41l-.26-.7c-.31-.84-.46-1.22-.67-1.44-.2-.2-.56-.34-1.43-.66l-.69-.25v-1.41l.69-.26c.87-.32 1.23-.46 1.44-.67s.36-.6.67-1.44l.26-.69h1.41l.26.69c.31.84.46 1.23.67 1.45.2.2.56.34 1.43.66l.7.26v1.41l-.71.25c-.86.32-1.22.46-1.43.67s-.36.6-.67 1.44l-.26.7zm-2.12-3.77c.34.16.61.33.84.56.24.24.41.52.57.86.16-.34.33-.61.56-.85.24-.24.51-.41.85-.57-.34-.16-.61-.33-.84-.56-.24-.25-.41-.52-.57-.86-.16.34-.33.61-.56.85-.24.24-.51.41-.85.57m4.67 17.26H1.49v-17.5h11.5v1.5h-10v14.5h17.5v-11h1.5zm-10.5-13.5h1.5v9.5h-1.5zm-1.5 2h-1.5v5.5h1.5zm-4.5 1h1.5v3.5h-1.5zm10.5-1h-1.5v5.5h1.5zm1.5 1h1.5v3.5h-1.5z" clip-rule="evenodd"/></svg>