<svg xmlns="http://www.w3.org/2000/svg" fill="none" viewBox="0 0 24 24"><path fill="currentColor" fill-rule="evenodd" d="M14.5 1.25A3.24 3.24 0 0 0 12 2.423a3.251 3.251 0 0 0-5.677 1.388 3.75 3.75 0 0 0-2.909 4.79 3.75 3.75 0 0 0 0 6.798 3.75 3.75 0 0 0 2.909 4.79A3.251 3.251 0 0 0 12 21.577a3.251 3.251 0 0 0 5.677-1.388 3.75 3.75 0 0 0 2.909-4.79 3.75 3.75 0 0 0 0-6.798 3.75 3.75 0 0 0-2.909-4.79A3.25 3.25 0 0 0 14.5 1.25M11.25 4.5h1.5a1.75 1.75 0 0 1 3.5 0v.75H17a2.25 2.25 0 0 1 1.926 3.415l-.56.922 1.06.203a2.251 2.251 0 0 1 0 4.42l-1.06.203.56.922A2.25 2.25 0 0 1 17 18.75h-.75v.75a1.75 1.75 0 0 1-3.5 0h-1.5a1.75 1.75 0 1 1-3.5 0v-.75H7a2.25 2.25 0 0 1-1.926-3.415l.56-.922-1.06-.203a2.251 2.251 0 0 1 0-4.42l1.06-.203-.56-.922A2.25 2.25 0 0 1 7 5.25h.75V4.5a1.75 1.75 0 1 1 3.5 0m3.477 3.233v7.624h1.5V7.733zm-3.945.023 1.82 4.699 1.012 2.47-1.388.568-.823-2.01H8.774l-.764 1.994-1.4-.537.949-2.479 1.824-4.705zm-.7 2.347-.729 1.88h1.458z" clip-rule="evenodd"/></svg>