<svg xmlns="http://www.w3.org/2000/svg" fill="none" viewBox="0 0 24 24"><path fill="currentColor" fill-rule="evenodd" d="m12.585 1.25 1 4H15v1.5H3.75v10.5H15v1.5h-1.415l-1 4H5.414l-1-4H3a.75.75 0 0 1-.75-.75V6A.75.75 0 0 1 3 5.25h1.414l1-4zm-.546 17.5H5.96l.625 2.5h4.829zm-.625-16H6.585l-.625 2.5h6.079zm8.836 2.5a1.5 1.5 0 0 0-1.449 1.889L17.689 8.25H15v1.5h3c.199 0 .39-.079.53-.22l1.331-1.33q.187.049.389.05a1.5 1.5 0 0 0 0-3m-2.25 9h-3v1.5h2.689l1.112 1.111a1.5 1.5 0 1 0 1.06-1.06L18.53 14.47a.75.75 0 0 0-.53-.22m.951-3a1.499 1.499 0 0 1 2.799.75 1.5 1.5 0 0 1-2.799.75H12v-1.5z" clip-rule="evenodd"/></svg>