<svg xmlns="http://www.w3.org/2000/svg" fill="none" viewBox="0 0 24 24"><path fill="currentColor" fill-rule="evenodd" d="M1.306 12.3c.13.3 3.28 7.45 10.69 7.45v-.01c7.41 0 10.56-7.15 10.69-7.45l.14-.32-.16-.31c-.15-.3-3.79-7.41-10.67-7.41-7.41 0-10.56 7.15-10.69 7.45l-.13.3zm10.69 5.95c-5.69 0-8.53-4.96-9.17-6.25.64-1.29 3.48-6.25 9.17-6.25 5.2 0 8.41 4.97 9.16 6.28-.67 1.33-3.47 6.22-9.16 6.22m-.98-3.23.28.74h1.4l.28-.75a3.43 3.43 0 0 1 2.04-2.04l.74-.27v-1.41l-.74-.27a3.43 3.43 0 0 1-2.04-2.04l-.28-.74h-1.4l-.28.75c-.35.95-1.09 1.69-2.04 2.04l-.74.27v1.41l.74.27c.95.35 1.69 1.09 2.04 2.04m.98-1.4c-.41-.66-.96-1.21-1.62-1.62a4.9 4.9 0 0 0 1.62-1.62c.41.66.96 1.21 1.62 1.62-.66.41-1.22.96-1.62 1.62" clip-rule="evenodd"/></svg>