<svg xmlns="http://www.w3.org/2000/svg" fill="none" viewBox="0 0 24 24"><path fill="currentColor" fill-rule="evenodd" d="M2.75 11a9.25 9.25 0 0 1 18.5 0 9.2 9.2 0 0 1-1.85 5.55l1.2.901A10.7 10.7 0 0 0 22.75 11C22.75 5.063 17.937.25 12 .25S1.25 5.063 1.25 11c0 2.42.8 4.655 2.15 6.451l1.2-.9A9.2 9.2 0 0 1 2.75 11m8 0a1.25 1.25 0 1 1 2.5 0 1.25 1.25 0 0 1-2.5 0M12 8.25a2.75 2.75 0 1 0 0 5.5 2.75 2.75 0 0 0 0-5.5m0-2.5a5.25 5.25 0 0 0-3.913 8.75l-1.118 1a6.75 6.75 0 1 1 10.062 0l-1.118-1A5.25 5.25 0 0 0 12 5.75m.624 9.834a.75.75 0 0 0-1.248 0l-4 6A.75.75 0 0 0 8 22.75h8a.75.75 0 0 0 .624-1.166zM12 17.352l2.599 3.898H9.4z" clip-rule="evenodd"/></svg>