<svg xmlns="http://www.w3.org/2000/svg" fill="none" viewBox="0 0 24 24"><path fill="currentColor" fill-rule="evenodd" d="M12.747 2.927v-1.3h-1.5v1.3c-2.893.404-4.894 3.113-4.435 5.94H6v1.5h1.25v1.507H6l-.042.001a.84.84 0 0 0-.443.091l-3.8 1.93a.85.85 0 0 0-.466.757v7.707h4.605q.07.014.146.014h11.998q.06 0 .119-.01l4.637.001v-7.707a.85.85 0 0 0-.465-.758l-3.8-1.929a.84.84 0 0 0-.41-.092l-.081-.005h-1.25v-1.508h1.25v-1.5h-.814c.459-2.826-1.543-5.535-4.436-5.94M6.749 13.374v7.5h2.5v-5h5.5v5h2.498v-7.5zm8.905-4.508c.515-2.243-1.204-4.491-3.657-4.491-2.452 0-4.172 2.248-3.656 4.491zm-6.905 1.5v1.508h6.499v-1.508zm2 10.508h2.5v-3.5h-2.5zm8.004-7.086v7.077h2.5v-5.808zM5.249 20.86v-7.077l-2.5 1.27v5.807z" clip-rule="evenodd"/></svg>