<svg xmlns="http://www.w3.org/2000/svg" fill="none" viewBox="0 0 24 24"><path fill="currentColor" fill-rule="evenodd" d="M6.75 18.746h10.935l1.504 1.503H6.75zm-1.5 0H3a.75.75 0 0 1-.75-.75V3.31l-.781-.782 1.06-1.06 20 20-1.06 1.06-.78-.78H6a.75.75 0 0 1-.75-.75zm-1.5-8.455v-5.48l6.33 6.33a14.1 14.1 0 0 0-5.214-.889q-.559 0-1.116.039m1.121 1.461q-.563 0-1.121.043v5.45h11.168c-.631-1.375-1.71-2.616-3.16-3.578-1.925-1.275-4.36-1.961-6.872-1.915zM13 6h2.009v2H13zM6.145 2.234H18a.75.75 0 0 1 .75.75V5.25h2.272a.75.75 0 0 1 .75.75v11.847h-1.5V6.75H18.75v8.121h-1.5V3.734H6.145z" clip-rule="evenodd"/></svg>