<svg xmlns="http://www.w3.org/2000/svg" fill="none" viewBox="0 0 24 24"><path fill="currentColor" fill-rule="evenodd" d="M2.75 4a1.25 1.25 0 1 1 2.5 0 1.25 1.25 0 0 1-2.5 0M4 1.25a2.75 2.75 0 0 0-.75 5.396v10.708a2.751 2.751 0 1 0 3.396 3.396h10.708a2.751 2.751 0 1 0 3.396-3.396V6.646a2.751 2.751 0 1 0-3.396-3.396H6.646A2.75 2.75 0 0 0 4 1.25m2.646 18h10.708a2.76 2.76 0 0 1 1.896-1.896V6.646a2.76 2.76 0 0 1-1.896-1.896H6.646A2.76 2.76 0 0 1 4.75 6.646v10.708c.916.259 1.637.98 1.896 1.896M20 2.75a1.25 1.25 0 1 0 0 2.5 1.25 1.25 0 0 0 0-2.5m0 16a1.25 1.25 0 1 0 0 2.5 1.25 1.25 0 0 0 0-2.5M2.75 20a1.25 1.25 0 1 1 2.5 0 1.25 1.25 0 0 1-2.5 0" clip-rule="evenodd"/></svg>