<svg xmlns="http://www.w3.org/2000/svg" fill="none" viewBox="0 0 24 24"><path fill="currentColor" fill-rule="evenodd" d="M12 2.75a9.25 9.25 0 1 0 0 18.5 9.25 9.25 0 0 0 0-18.5M1.25 12C1.25 6.063 6.063 1.25 12 1.25S22.75 6.063 22.75 12 17.937 22.75 12 22.75 1.25 17.937 1.25 12M12 15.75a4.24 4.24 0 0 1 3.4 1.7l1.2-.9a5.74 5.74 0 0 0-4.6-2.3 5.74 5.74 0 0 0-4.6 2.3l1.2.9a4.24 4.24 0 0 1 3.4-1.7M7 9.01l-.067-.746h.003l.006-.001.018-.002a3 3 0 0 1 .26-.01c.167-.003.398.001.66.028.493.05 1.218.194 1.782.642.39.31.687.689.893 1 .28.425.243.925-.013 1.292a1.3 1.3 0 0 1-1.066.537c-.782 0-1.544-.728-1.259-1.633l.075-.236a3 3 0 0 0-.566-.11 4 4 0 0 0-.655-.014h-.004zm10 0 .067-.746h-.004l-.006-.001-.018-.002a3 3 0 0 0-.26-.01 6 6 0 0 0-.659.028c-.494.05-1.219.194-1.783.642a4.4 4.4 0 0 0-.893 1c-.28.425-.243.925.014 1.292.241.345.644.537 1.065.537.783 0 1.544-.728 1.26-1.633l-.075-.236c.17-.053.364-.09.565-.11a4 4 0 0 1 .655-.014h.005z" clip-rule="evenodd"/></svg>