<svg xmlns="http://www.w3.org/2000/svg" fill="none" viewBox="0 0 24 24"><path fill="currentColor" fill-rule="evenodd" d="M11.16 6.5h.75c2.54 0 4.25-2.46 4.25-4.75V1h-.75c-2.54 0-4.25 2.46-4.25 4.75zm3.37-3.82c-.85.36-1.48 1.21-1.74 2.14.85-.36 1.48-1.21 1.74-2.14m-.87 19.74c.58.26 1.31.58 2.15.58l-.01-.01c2.05 0 3.87-3.15 4.81-5.85l.23-.66-.65-.27c-1.36-.57-2.2-1.9-2.2-3.46 0-1.21.57-2.11 1.8-2.86l.67-.41-.43-.65c-1.44-2.16-3.56-2.33-4.18-2.33-1.169 0-1.903.3-2.488.537l-.032.013-.28.12c-.27.12-.39.17-.64.17-.354 0-.64-.116-1.048-.281l-.022-.009-.062-.025C10.689 6.79 9.968 6.5 8.8 6.5c-2.18 0-5.64 1.56-5.64 6.25S6.33 23 9.01 23c.84 0 1.57-.32 2.15-.58l.026-.011c.45-.196.87-.379 1.224-.379.353 0 .774.183 1.224.379zm.592-1.374c-.578-.248-1.175-.506-1.842-.506-.66 0-1.27.26-1.85.51l-.023.01c-.474.207-1.005.44-1.527.44-1.36 0-4.35-4.23-4.35-8.75C4.66 9.29 7.2 8 8.8 8c.91 0 1.45.22 1.98.44.48.2.98.4 1.63.4.57 0 .91-.15 1.25-.3l.24-.1c.52-.22 1.05-.44 1.95-.44.37 0 1.51.09 2.48 1.09-1.22.96-1.83 2.19-1.83 3.66 0 1.9.95 3.6 2.48 4.52-1.03 2.63-2.4 4.23-3.17 4.23-.52 0-1.07-.24-1.55-.45z" clip-rule="evenodd"/></svg>