<svg xmlns="http://www.w3.org/2000/svg" fill="none" viewBox="0 0 24 24"><path fill="currentColor" fill-rule="evenodd" d="M4.575 8.425c1.22-1.367 2.338-1.755 3.383-1.662 1.108.099 2.3.749 3.6 1.816 1.374 1.127 2.857 2.013 4.424 2.152 1.63.145 3.186-.528 4.641-2.16L19.5 7.575c-1.22 1.367-2.338 1.755-3.383 1.662-1.108-.098-2.3-.748-3.601-1.816C11.14 6.294 9.658 5.408 8.09 5.269c-1.63-.145-3.186.528-4.64 2.16zm0 8c1.22-1.367 2.338-1.755 3.383-1.662 1.108.099 2.3.749 3.6 1.816 1.374 1.127 2.857 2.013 4.424 2.152 1.63.145 3.186-.528 4.641-2.16l-1.124-.996c-1.22 1.367-2.338 1.755-3.383 1.662-1.108-.098-2.3-.748-3.601-1.816-1.374-1.127-2.857-2.013-4.424-2.152-1.63-.145-3.186.528-4.64 2.16z" clip-rule="evenodd"/></svg>