<svg xmlns="http://www.w3.org/2000/svg" fill="none" viewBox="0 0 24 24"><path fill="currentColor" fill-rule="evenodd" d="M12.78 5.493c.057-.517.203-1.124.48-1.637.356-.66.886-1.106 1.74-1.106v-1.5c-1.547 0-2.517.888-3.06 1.894-.422.78-.61 1.662-.67 2.368A6.1 6.1 0 0 0 9.5 5.25c-4.142 0-7.25 4.07-7.25 8.75s3.108 8.75 7.25 8.75c.88 0 1.723-.19 2.5-.533a6.15 6.15 0 0 0 2.501.533c4.142 0 7.25-4.07 7.25-8.75s-3.108-8.75-7.25-8.75a6.2 6.2 0 0 0-1.72.243M9.498 6.75q.42 0 .824.074c-1.675 1.409-2.819 3.628-3.07 6.1l1.493.152c.374-3.69 2.94-6.326 5.754-6.326 3.038 0 5.75 3.093 5.75 7.25s-2.712 7.25-5.75 7.25c-1.407 0-2.72-.643-3.747-1.758l-1.104 1.016q.328.357.692.664a4.6 4.6 0 0 1-.842.078c-3.038 0-5.75-3.093-5.75-7.25s2.712-7.25 5.75-7.25" clip-rule="evenodd"/></svg>