<svg xmlns="http://www.w3.org/2000/svg" fill="none" viewBox="0 0 24 24"><path fill="currentColor" fill-rule="evenodd" d="M19.038 1.887a.75.75 0 0 0-.855-.628l-7.697 1.17A.75.75 0 0 0 10 2.25H2a.75.75 0 0 0-.75.75v18a.75.75 0 0 0 .75.75h8a.75.75 0 0 0 .75-.75V10.585l1.6 10.525a.75.75 0 0 0 .854.63l7.91-1.203a.75.75 0 0 0 .628-.854zM2.75 20.25V7.75h6.5v12.5zm0-14h6.5v-2.5h-6.5zm10.97 13.894-1.802-11.86 6.426-.977 1.802 11.86zm4.399-14.32-6.427.977-.451-2.97 6.426-.977zM6 16a1 1 0 1 0 0 2h.009a1 1 0 1 0 0-2zm10.241-.462a1 1 0 1 0 .518 1.932l.009-.002a1 1 0 0 0-.518-1.932z" clip-rule="evenodd"/></svg>