<svg xmlns="http://www.w3.org/2000/svg" fill="none" viewBox="0 0 24 24"><path fill="currentColor" fill-rule="evenodd" d="M9.048 1.25a.75.75 0 0 0-.75.75v2.152l-1.143.672-1.823-1.069a.75.75 0 0 0-1.031.276L1.348 9.228a.75.75 0 0 0 .273 1.017l1.83 1.074v1.362l-1.83 1.074a.75.75 0 0 0-.273 1.017l2.953 5.197a.75.75 0 0 0 1.031.276l1.823-1.069 1.142.672V22c0 .414.336.75.75.75h5.906a.75.75 0 0 0 .75-.75v-2.152l1.143-.672 1.822 1.069a.75.75 0 0 0 1.031-.276l2.953-5.197a.75.75 0 0 0-.273-1.017l-1.83-1.074v-1.362l1.83-1.074a.75.75 0 0 0 .273-1.017L19.7 4.03a.75.75 0 0 0-1.031-.276l-1.822 1.069-1.143-.672V2a.75.75 0 0 0-.75-.75zm.75 3.332V2.75h4.405v1.832c0 .265.14.511.37.646l1.892 1.112a.75.75 0 0 0 .76 0l1.546-.906 2.212 3.891-1.564.918a.75.75 0 0 0-.37.646v2.222a.75.75 0 0 0 .37.646l1.564.918-2.212 3.891-1.546-.906a.75.75 0 0 0-.76 0l-1.892 1.112a.75.75 0 0 0-.37.647v1.831H9.798v-1.831a.75.75 0 0 0-.37-.647L7.534 17.66a.75.75 0 0 0-.76 0l-1.546.906-2.211-3.891 1.563-.918a.75.75 0 0 0 .37-.646v-2.222a.75.75 0 0 0-.37-.646l-1.563-.918 2.211-3.891 1.546.907a.75.75 0 0 0 .76 0l1.892-1.113a.75.75 0 0 0 .37-.646m4.953 3.676v7.565h1.5V8.258zm-4.021 0-1.394.002-2.842 7.16 1.394.554.803-2.022h2.693l.807 2.023 1.393-.556zm-.696 2.308-.748 1.886h1.5z" clip-rule="evenodd"/></svg>