<svg xmlns="http://www.w3.org/2000/svg" fill="none" viewBox="0 0 24 24"><path fill="currentColor" fill-rule="evenodd" d="M3.25 10.315c0-4.145 3.213-7.565 7.395-7.565 4.214 0 7.619 3.399 7.619 7.51v.227l2.152 3.242-1.535.733-1.001 3.446-3.14 1.085V22h1.5v-1.939l2.863-.988 1.031-3.547 1.675-.801.01-.005a.79.79 0 0 0 .27-1.187h-.002l-.02-.028v-.002L19.76 10.03c-.125-4.85-4.167-8.78-9.116-8.78-5.061 0-8.895 4.143-8.895 9.065 0 2.879 1.373 5.44 3.51 7.081V22h1.5v-3.668q.739.367 1.55.6l.41-1.443c-3.174-.905-5.47-3.786-5.47-7.174m6.775-4.105-1.39-.015-2.62 6.263 1.384.578.76-1.816h2.228l.71 1.802 1.396-.55zm-.23 3.51H8.788l.52-1.242zm3.462-3.468v6.58h1.5v-6.58z" clip-rule="evenodd"/></svg>