<svg xmlns="http://www.w3.org/2000/svg" fill="none" viewBox="0 0 24 24"><path fill="currentColor" fill-rule="evenodd" d="M8.612 3.39A9.25 9.25 0 1 0 12 2.75a2.25 2.25 0 1 0 1.5 3.927l1 1.118A3.75 3.75 0 0 1 8.612 3.39M12 1.25C6.063 1.25 1.25 6.063 1.25 12S6.063 22.75 12 22.75 22.75 17.937 22.75 12 17.937 1.25 12 1.25M9.996 15.438c.6.529 1.289.812 2.004.812s1.404-.283 2.004-.812l.992 1.124c-.832.735-1.863 1.188-2.996 1.188s-2.164-.453-2.996-1.188zM7.5 11.748a1.77 1.77 0 0 0-1.056.354l-.888-1.209a3.27 3.27 0 0 1 1.944-.646 3.27 3.27 0 0 1 1.944.646l-.888 1.209a1.77 1.77 0 0 0-1.056-.355m7.944.354a1.77 1.77 0 0 1 1.056-.355c.384 0 .746.127 1.056.355l.888-1.209a3.27 3.27 0 0 0-1.944-.646 3.27 3.27 0 0 0-1.944.646z" clip-rule="evenodd"/></svg>