<svg xmlns="http://www.w3.org/2000/svg" fill="none" viewBox="0 0 24 24"><path fill="currentColor" fill-rule="evenodd" d="M3.75 22.75h-1.5V9c0-2.62 2.13-4.75 4.75-4.75h1c.69 0 1.25-.56 1.25-1.25V1.25h1.5V3c0 1.52-1.23 2.75-2.75 2.75H7C5.21 5.75 3.75 7.21 3.75 9zm16.5 0h1.5V9c0-2.62-2.13-4.75-4.75-4.75h-1c-.69 0-1.25-.56-1.25-1.25V1.25h-1.5V3c0 1.52 1.23 2.75 2.75 2.75h1c1.79 0 3.25 1.46 3.25 3.25zm-4.75-12h.75v-1.5h-.75c-.41 0-.75-.34-.75-.75v-.75h-1.5v.75c0 1.24 1.01 2.25 2.25 2.25m-7.75 0h.75c1.24 0 2.25-1.01 2.25-2.25v-.75h-1.5v.75c0 .41-.34.75-.75.75h-.75zm3.5 1.5h1.5v10.5h-1.5zm6.99 10.5h-1.49v-5.52c-.048-2.758.438-5.471.503-5.833l.006-.037.14-.74 1.47.28-.14.74s-.53 2.82-.49 5.58zm-12.489 0h1.49v-5.51c.048-2.768-.439-5.482-.503-5.843l-.007-.037-.14-.74-1.47.28.14.74c.01.03.54 2.82.49 5.59z" clip-rule="evenodd"/></svg>