<svg xmlns="http://www.w3.org/2000/svg" fill="none" viewBox="0 0 24 24"><path fill="currentColor" fill-rule="evenodd" d="m11.522 3.518-.241-.803 1.436-.43.239.794q.348-.055.717-.074a8 8 0 0 1 2.692.32c1.866.56 3.709 1.91 4.351 4.503l.173.697L15.1 10.23l2.063 6.875c1.503.378 3.081.645 4.836.645v1.5c-3.126 0-5.723-.784-8.101-1.535l-.289-.091C11.324 16.9 9.267 16.25 7 16.25c-1.544 0-2.74.18-3.54.357a10 10 0 0 0-.9.24 5 5 0 0 0-.264.092l-.009.003h.001L2 16.25l-.29-.693h.003l.002-.001.008-.003.022-.01a5 5 0 0 1 .355-.124c.24-.078.587-.178 1.036-.277.898-.198 2.202-.392 3.864-.392 2.505 0 4.765.716 6.997 1.423l.354.111q.549.174 1.103.343l-1.792-5.973-6.043 1.78-.178-.779c-.237-1.039-.29-2.657.257-4.23.546-1.571 1.697-3.099 3.824-3.907M2 22.25h20v-1.5H2zM12.254 4.838c.29-.155.814-.3 1.498-.335a6.5 6.5 0 0 1 2.182.26c1.296.388 2.502 1.217 3.108 2.742l-10.254 3.02a6.6 6.6 0 0 1 .326-2.607c.43-1.237 1.32-2.414 3.039-3.034l.052-.02z" clip-rule="evenodd"/></svg>