<svg xmlns="http://www.w3.org/2000/svg" fill="none" viewBox="0 0 24 24"><path fill="currentColor" fill-rule="evenodd" d="M6.86 2.86c-.298 1.19.01 2.474.908 3.372s2.181 1.206 3.372.908c.073-.293.11-.593.11-.89a3.5 3.5 0 0 0-1.018-2.482c-.898-.898-2.181-1.206-3.373-.909m5.89 5.68v.003q0 .32.07.637a2.82 2.82 0 0 0 2.618-.742c.697-.697.95-1.686.742-2.618a2.82 2.82 0 0 0-2.618.742 2.8 2.8 0 0 0-.812 1.978m-.081-3.198a4.95 4.95 0 0 0-1.377-2.635C9.87 1.284 7.8.913 6.007 1.552l-.335.12-.12.335c-.64 1.792-.268 3.862 1.155 5.285 1.23 1.23 2.944 1.675 4.543 1.36v3.098H2a.75.75 0 0 0-.75.75v1.967c0 .414.336.75.75.75 2.305 0 3.76 2.497 2.621 4.436a.75.75 0 0 0 .277 1.032l3.464 1.967a.75.75 0 0 0 1.017-.272c1.175-2.002 4.069-2.002 5.244 0a.75.75 0 0 0 1.017.272l3.464-1.967a.75.75 0 0 0 .276-1.032c-1.138-1.94.315-4.436 2.62-4.436a.75.75 0 0 0 .75-.75V12.5a.75.75 0 0 0-.75-.75h-9.25v-1.057a4.3 4.3 0 0 0 3.75-1.194c1.222-1.223 1.539-3 .99-4.536l-.118-.334-.335-.12c-1.468-.523-3.154-.257-4.368.833M2.75 13.25v.528c2.733.454 4.483 3.34 3.495 5.947l2.265 1.287c1.795-2.178 5.186-2.178 6.981 0l2.266-1.287c-.988-2.607.76-5.494 3.493-5.947v-.528h-5.066a4.251 4.251 0 0 1-8.368 0zm9.25 2a2.75 2.75 0 0 1-2.646-2h5.293a2.75 2.75 0 0 1-2.647 2" clip-rule="evenodd"/></svg>