<svg xmlns="http://www.w3.org/2000/svg" fill="none" viewBox="0 0 24 24"><path fill="currentColor" fill-rule="evenodd" d="M12 2.75c-4.05 0-7.25 3.067-7.25 6.751h-1.5C3.25 4.9 7.214 1.25 12 1.25s8.75 3.65 8.75 8.251V11a.75.75 0 0 1-1.136.643l-2.5-1.498.772-1.287 1.364.818v-.175c0-3.684-3.2-6.751-7.25-6.751m-8.37 9.597a.75.75 0 0 1 .756.01l2.5 1.498-.772 1.287-1.364-.818v.175c0 3.684 3.2 6.751 7.25 6.751s7.25-3.067 7.25-6.751h1.5c0 4.601-3.964 8.251-8.75 8.251s-8.75-3.65-8.75-8.251V13c0-.27.145-.52.38-.653m10.48-6.171-.35-.66-.661.348c-1.65.868-3.465 2.284-4.317 3.99-.436.873-.634 1.855-.382 2.873.25 1.013.924 1.961 2.037 2.818.051.645.167 1.342.364 2.095l1.451-.381a10.6 10.6 0 0 1-.303-1.652q1.5-.23 2.424-.98c.83-.674 1.223-1.59 1.328-2.563.203-1.879-.644-4.106-1.59-5.888m-1.415 5.357a6.5 6.5 0 0 0-.759 2.555c.686-.132 1.163-.36 1.491-.625.462-.375.71-.893.783-1.56.132-1.22-.344-2.802-1.076-4.334-1.28.785-2.454 1.843-3.01 2.956-.315.632-.415 1.246-.268 1.841.09.366.284.763.633 1.179a8 8 0 0 1 .885-2.723z" clip-rule="evenodd"/></svg>