<svg xmlns="http://www.w3.org/2000/svg" fill="none" viewBox="0 0 24 24"><path fill="currentColor" fill-rule="evenodd" d="M12 1.25C6.063 1.25 1.25 6.063 1.25 12S6.063 22.75 12 22.75 22.75 17.937 22.75 12q0-.626-.07-1.234l-.105-.914-.874.287q-.331.11-.701.111c-.683 0-1.282-.206-1.703-.6-.411-.386-.737-1.03-.737-2.082v-1.08l-1.012.377h-.001l-.008.004-.033.012a9 9 0 0 1-.566.183c-.371.108-.732.186-.94.186a3.25 3.25 0 0 1-2.816-4.874l.651-1.126zm4 7.5c.364 0 .796-.093 1.144-.186.162.91.553 1.64 1.126 2.179.76.713 1.756 1.007 2.73 1.007a4 4 0 0 0 .247-.008l.003.258a9.25 9.25 0 1 1-9.839-9.232A4.755 4.755 0 0 0 16 8.75M8.692 7.471c-.627-.35-1.316-.25-1.861.059-.54.305-.986.831-1.268 1.47-.283.641-.375 1.335-.273 1.955.101.61.41 1.236 1.018 1.575.627.35 1.317.25 1.861-.06.54-.305.986-.83 1.268-1.47s.375-1.334.273-1.954c-.101-.61-.41-1.237-1.018-1.575M6.935 9.606c.175-.396.422-.65.635-.771.207-.118.329-.089.392-.054.084.047.215.188.268.509.05.31.009.71-.165 1.104-.175.396-.422.651-.635.772-.207.117-.329.088-.392.053-.084-.046-.215-.188-.268-.508-.05-.311-.009-.71.165-1.105M15.008 11a1 1 0 0 1-1 1h-.01a1 1 0 1 1 0-2h.01a1 1 0 0 1 1 1m-6 5a1 1 0 0 1-1 1h-.01a1 1 0 1 1 0-2h.01a1 1 0 0 1 1 1m3.504-.472c.56-1.083 1.893-1.6 3.016-1.066 1.145.543 1.531 1.914.962 3.012-.56 1.084-1.893 1.6-3.016 1.067-1.145-.544-1.531-1.915-.963-3.013m2.373.289c-.339-.16-.823-.02-1.042.401-.21.406-.043.817.274.967.338.161.823.02 1.041-.4.21-.407.044-.818-.273-.968" clip-rule="evenodd"/></svg>