<svg xmlns="http://www.w3.org/2000/svg" fill="none" viewBox="0 0 24 24"><path fill="currentColor" fill-rule="evenodd" d="M12.245 2.747V1.25h-1.5v1.497H7.746v1.5H8.87v4.488H7.746v1.5h2.999v1.497h1.5v-1.497h1.124a1.874 1.874 0 0 0 1.874-1.873v-.748c0-.422-.14-.81-.374-1.123.235-.313.374-.701.374-1.123V4.62c0-1.036-.84-1.873-1.875-1.873zM10.37 5.741V4.247h2.997c.208 0 .375.168.375.373v.748a.374.374 0 0 1-.375.373zm0 2.994V7.24h2.997c.208 0 .375.168.375.373v.748a.374.374 0 0 1-.375.373zm11.377-1.678a.85.85 0 0 0-.858-.85l-3.906.037.014 1.5 3.25-.03v2.93l-5.932 4.919-.975 3.897-2.79 1.45-.85-5.324-5.951-4.95V7.821h3.228v-1.5H3.1a.85.85 0 0 0-.85.85v4.169l6.059 5.04.903 5.657a.85.85 0 0 0 1.232.62l4.188-2.178 1.02-4.076 6.096-5.055z" clip-rule="evenodd"/></svg>