<svg xmlns="http://www.w3.org/2000/svg" fill="none" viewBox="0 0 24 24"><path fill="currentColor" fill-rule="evenodd" d="M16.75 1.25v1.5h1.125c1.035 0 1.875.84 1.875 1.875v.75c0 .422-.14.812-.375 1.125.235.313.375.703.375 1.125v.75c0 1.036-.84 1.875-1.875 1.875H16.75v1.5h-1.5v-1.5h-3v-1.5h1.125v-4.5H12.25v-1.5h3v-1.5zm-1.875 3v1.5h3a.375.375 0 0 0 .375-.375v-.75a.375.375 0 0 0-.375-.375zm3 3h-3v1.5h3a.375.375 0 0 0 .375-.375v-.75a.375.375 0 0 0-.375-.375M5.619 8.301c1.165-1.177 2.651-2.15 4.191-2.6l.421 1.44c-1.25.365-2.524 1.182-3.546 2.215-1.028 1.039-1.737 2.23-1.95 3.291l-.12.603H2.75v1.622c.668 1.211 1.734 2.057 2.69 2.612a9.6 9.6 0 0 0 1.645.756l.097.032.022.006.002.001h.001l.543.155v2.816h.849l1.072-1.609.516.133c1.606.413 4.02.413 5.626 0l.516-.133 1.072 1.61h.849v-2.6l.267-.225c1.524-1.281 2.733-3.177 2.733-4.926 0-.762-.155-1.496-.442-2.181l1.384-.58a7.1 7.1 0 0 1 .558 2.761c0 2.244-1.407 4.405-3 5.841v3.41h-3.151l-.937-1.406c-1.625.318-3.699.318-5.324 0l-.937 1.405H6.25v-3.217l-.097-.038c-.379-.15-.898-.383-1.467-.714-1.13-.657-2.514-1.734-3.354-3.382l-.082-.16V11.75h2.17c.39-1.233 1.2-2.44 2.199-3.449M7.5 11a1 1 0 1 0 0 2h.009a1 1 0 1 0 0-2z" clip-rule="evenodd"/></svg>