<svg xmlns="http://www.w3.org/2000/svg" fill="none" viewBox="0 0 24 24"><path fill="currentColor" fill-rule="evenodd" d="m12.338 2.75-9.316 9.21 9.005 9.017 9.225-9.328V2.751zm-.865-1.254a.85.85 0 0 1 .598-.245h10.68v10.666a.85.85 0 0 1-.245.597l-9.872 9.983a.85.85 0 0 1-1.206.003l-9.93-9.941a.85.85 0 0 1 .004-1.205zM15.76 5.97a2.253 2.253 0 0 1 2.255-2.25 2.253 2.253 0 0 1 2.255 2.25 2.253 2.253 0 0 1-2.255 2.25 2.253 2.253 0 0 1-2.255-2.25m2.255-.75a.753.753 0 0 0-.755.75c0 .411.335.75.755.75s.755-.339.755-.75a.753.753 0 0 0-.755-.75M12.944 8.4l-1.189-1.192-1.062 1.06.663.663-2.773 2.792-.67-.667-1.059 1.063.672.668-.005.005 1.064 1.057.004-.004.052.052-.964.934 1.044 1.077.983-.953.518.515c.73.825 1.92.633 2.547.025l.485-.47c.276-.268.435-.593.492-.928.334-.06.654-.217.915-.47l.486-.47c.325-.316.53-.739.572-1.172.041-.43-.079-.922-.472-1.277l-.638-.64.95-.96-1.067-1.054-.943.952-.077-.077.003-.002zm-1.377 2.448.848-.855 1.807 1.811.004.004v.033a.4.4 0 0 1-.123.239l-.486.47c-.112.11-.277.088-.348.015zm-1.058 1.064 1.688 1.702a.27.27 0 0 1 .074.181.2.2 0 0 1-.061.153l-.486.47a.38.38 0 0 1-.244.103c-.078.002-.116-.023-.138-.05l-.02-.024-1.224-1.217-.373-.385-.007.007-.072-.071z" clip-rule="evenodd"/></svg>