<svg xmlns="http://www.w3.org/2000/svg" fill="none" viewBox="0 0 24 24"><path fill="currentColor" fill-rule="evenodd" d="m12 1.999.38-.646.003.001.006.004.022.013a10 10 0 0 1 .36.225 26.6 26.6 0 0 1 4.002 3.178c2.16 2.097 4.477 5.159 4.477 8.725a9.25 9.25 0 1 1-18.5 0c0-3.566 2.316-6.628 4.478-8.726a26.6 26.6 0 0 1 4.284-3.355l.077-.047.022-.013.006-.004.003-.001zm-.38-.646.38.646.38-.646-.38-.224zm-.512 2.139c.365-.261.671-.466.892-.609a25 25 0 0 1 3.728 2.966c2.088 2.028 4.022 4.716 4.022 7.65a7.75 7.75 0 0 1-15.5 0c0-2.934 1.934-5.622 4.022-7.65a25 25 0 0 1 2.836-2.357M9.67 16.304l.921-2.258h2.825l.893 2.244 1.394-.554-2.975-7.48-1.392-.007-3.055 7.488zm2.352-5.764.798 2.006h-1.617z" clip-rule="evenodd"/></svg>