<svg xmlns="http://www.w3.org/2000/svg" fill="none" viewBox="0 0 24 24"><path fill="currentColor" fill-rule="evenodd" d="M19.678 1.47a.75.75 0 0 1 1.06 0l1.792 1.79a.75.75 0 0 1 0 1.061l-4.575 4.574.602.602-2.84 2.841-.474 4.734a.75.75 0 0 1-1.277.455l-.595-.595-2.7 5.401a.75.75 0 0 1-1.201.195l-8-8a.75.75 0 0 1 .195-1.2l5.403-2.702-.598-.599a.75.75 0 0 1 .455-1.276l4.73-.473 2.842-2.841.606.606zm-3.515 5.634.731.731 4.045-4.043-.73-.731zm-7.978 4.64-4.919 2.46 1.35 1.35 1.998-1.198.772 1.286-1.676 1.006 1.641 1.641 1.006-1.676 1.286.772-1.199 1.998 1.35 1.35 2.46-4.918zm4.153-2.026 2.159-2.16 1.939 1.94-2.16 2.16-.368 3.69-5.26-5.261z" clip-rule="evenodd"/></svg>