<svg xmlns="http://www.w3.org/2000/svg" fill="none" viewBox="0 0 24 24"><path fill="currentColor" fill-rule="evenodd" d="M9.165 1.33a.75.75 0 0 1 .717.025L12 2.609l2.118-1.254a.75.75 0 0 1 .717-.026l2 1a.75.75 0 0 1 .41.764 5 5 0 0 1-.046.296c2.096.57 4.093 2.03 5.285 3.038a.75.75 0 0 1 .218.836l-1.5 4a.75.75 0 0 1-1.038.408l-1.512-.756-.877 7.896 1.849 2.773A.75.75 0 0 1 19 22.75H5a.75.75 0 0 1-.624-1.166l1.848-2.772-.878-7.897-1.51.756a.75.75 0 0 1-1.038-.408l-1.5-4a.75.75 0 0 1 .218-.836C2.707 5.42 4.704 3.96 6.8 3.39a5 5 0 0 1-.045-.296.75.75 0 0 1 .409-.764zm7.163 16.92H7.671l-.895-8.05 3.467-1.733c.49.332 1.01.593 1.544.752a.75.75 0 0 0 .426 0 5.6 5.6 0 0 0 1.544-.752l3.466 1.733zm-8.927 1.5-1 1.5H17.6l-1-1.5zM7.25 4.822c-1.58.415-3.193 1.484-4.36 2.417l1.02 2.718L9 7.411a9.1 9.1 0 0 1-1.75-2.59m8.274 1.998a8.8 8.8 0 0 0 1.226-1.998c1.58.415 3.193 1.484 4.359 2.417l-1.02 2.718L15 7.411a9 9 0 0 0 .525-.592M8.343 3.417c.209.807.67 1.682 1.299 2.458.703.868 1.552 1.532 2.358 1.834.806-.302 1.655-.966 2.358-1.834.629-.776 1.09-1.651 1.299-2.458l-1.127-.563-2.148 1.272a.75.75 0 0 1-.764 0L9.47 2.854z" clip-rule="evenodd"/></svg>