<svg xmlns="http://www.w3.org/2000/svg" fill="none" viewBox="0 0 24 24"><path fill="currentColor" fill-rule="evenodd" d="M8.75 2.75H6.5v-1.5H14a.75.75 0 0 1 .53.22l1.5 1.5-1.06 1.06-1.28-1.28h-3.44v1.5h2v3.699c1.787.975 3 2.871 3 5.051v9a.75.75 0 0 1-.75.75h-10a.75.75 0 0 1-.75-.75v-9a5.75 5.75 0 0 1 3-5.051V4.25h2zm2 4.636V5.75h-2.5v1.636a5.8 5.8 0 0 1 2.5 0M9.5 8.75A4.25 4.25 0 0 0 5.25 13v1.25h8.5V13A4.25 4.25 0 0 0 9.5 8.75m-4.25 12.5v-5.5h8.5v5.5zm11.683-9.8a2.16 2.16 0 0 0 1.669.222c1.194-.327 1.897-1.625 1.565-2.894-.285-1.083-1.924-2.13-2.42-2.424l-.661-.393-.376.67c-.283.506-1.186 2.24-.901 3.329a2.44 2.44 0 0 0 1.124 1.49m.726-3.353c-.27.62-.46 1.246-.4 1.483a.93.93 0 0 0 .423.57.67.67 0 0 0 .524.076c.406-.111.635-.59.51-1.067-.056-.214-.502-.65-1.057-1.062" clip-rule="evenodd"/></svg>