<svg xmlns="http://www.w3.org/2000/svg" fill="none" viewBox="0 0 24 24"><path fill="currentColor" fill-rule="evenodd" d="m15.44 4.611 3.13-3.134 1.062 1.06-4.128 4.132-.53-.543c-.431-.44-1.56-.837-2.526-.084-.359.28-.571.704-.655 1.158-.088.478-.01.853.054.977l.025.049.018.051c.1.29.47.96 1.218 1.174.297.086.51.12.661.101.717-.087 1.252-.487 1.401-.653l1.114 1.004c-.294.326-.91.782-1.728 1.015.085.449.483 1.176 1.89 1.333.447.05 1.039-.21 1.466-.753.404-.513.565-1.163.332-1.787l-.056-.115-.01-.02a4 4 0 0 0-.09-.183 1.8 1.8 0 0 0-.25-.368l-.476-.526 4.112-4.15 1.066 1.055-3.173 3.203a5 5 0 0 1 .166.325l.014.028.024.051.013.026.024.042.017.046c.487 1.229.136 2.448-.534 3.3-.654.832-1.714 1.438-2.812 1.316-2.117-.236-3.121-1.583-3.239-2.76a5 5 0 0 1-.347-.088c-1.376-.396-2.006-1.544-2.203-2.075-.243-.509-.295-1.223-.172-1.89.132-.714.488-1.508 1.209-2.07 1.376-1.071 2.927-.826 3.912-.247M8.743 5.996V3.998h-1.5v1.998zm-2.75 1.249H3.991v1.5h2.001zm12.005 9.494h2v-1.5h-2zm-2.751 1.249v1.998h1.5v-1.998zM7.66 10.245c-1.099-.114-2.154.501-2.801 1.338-.663.858-1.005 2.08-.508 3.305l.019.045.024.042.013.027.024.05.014.028a6 6 0 0 0 .17.324l-3.147 3.229 1.074 1.047 4.078-4.184-.48-.523a2 2 0 0 1-.253-.365 4 4 0 0 1-.092-.183l-.01-.02-.057-.114c-.238-.623-.082-1.274.317-1.79.423-.547 1.013-.81 1.46-.764 1.408.145 1.812.868 1.901 1.316-.816.24-1.429.701-1.72 1.03l1.122.995c.149-.167.68-.572 1.396-.665.15-.02.364.012.662.095.75.21 1.125.877 1.228 1.165l.018.051.026.048c.065.123.145.498.061.977-.08.455-.289.881-.646 1.164-.96.76-2.091.373-2.525-.064l-.535-.538-4.094 4.165 1.07 1.052 3.105-3.16c.99.57 2.544.803 3.91-.28.717-.567 1.067-1.364 1.192-2.079.118-.668.06-1.382-.187-1.888-.202-.53-.84-1.673-2.22-2.057a5 5 0 0 0-.348-.086c-.127-1.175-1.142-2.515-3.261-2.733" clip-rule="evenodd"/></svg>