<svg xmlns="http://www.w3.org/2000/svg" fill="none" viewBox="0 0 24 24"><path fill="currentColor" fill-rule="evenodd" d="M16.749 5a1.25 1.25 0 1 1 2.5 0 1.25 1.25 0 0 1-2.5 0m1.25-2.75a2.75 2.75 0 1 0 0 5.5 2.75 2.75 0 0 0 0-5.5m-6.354 18.91c.65-2.945 1.95-7.858 3.968-10.729l-1.227-.862c-1.813 2.58-3.046 6.535-3.787 9.487-.67-.919-1.498-1.784-2.388-2.402-.705-.488-1.497-.856-2.319-.93-.85-.074-1.686.173-2.4.833l1.016 1.102c.394-.363.809-.48 1.252-.44.472.042 1.017.266 1.596.668 1.16.805 2.258 2.183 2.885 3.446a.75.75 0 0 0 1.404-.172" clip-rule="evenodd"/></svg>