<svg xmlns="http://www.w3.org/2000/svg" fill="none" viewBox="0 0 24 24"><path fill="currentColor" fill-rule="evenodd" d="M16.179 2.233c-.882-.217-1.635-.315-2.37-.269-.738.047-1.414.237-2.145.54l-.028.011-.027.014c-1.437.736-2.998 2.06-4.304 4.3l-.012.02-.01.022C6.418 8.595 6.02 9.6 5.387 11.267l-3.64 3.108.008.357c.039 1.596.719 3.254 1.775 4.629 1.059 1.378 2.539 2.528 4.25 3.061l.366.114 4.186-3.143a88 88 0 0 1 3.303-.873h.001q.644-.16 1.251-.317c1.395-.36 2.698-.729 3.462-1.185.902-.54 1.475-1.634 1.561-2.75a3.67 3.67 0 0 0-1.046-2.893q.066-.059.131-.12c.522-.508.91-1.038 1.11-1.67.2-.634.185-1.29.042-2.005a3.5 3.5 0 0 0-.504-1.22 10.3 10.3 0 0 0-5.412-4.112l-.026-.008zm2.379 10.683c.152-.216.43-.462.956-.735.717.543.954 1.28.9 1.971-.056.74-.436 1.34-.836 1.579-.539.322-1.607.644-3.065 1.02q-.578.148-1.212.306a93 93 0 0 0-3.288.866c-1.279-.45-2.578-1.372-3.574-2.508-1.005-1.146-1.623-2.417-1.684-3.526.643-1.695 1.019-2.65 1.858-4.324 1.157-1.977 2.493-3.087 3.653-3.687.615-.253 1.119-.384 1.638-.417.525-.033 1.11.032 1.889.222a8.8 8.8 0 0 1 4.597 3.501c.14.214.238.448.286.689.113.564.097.947-.002 1.26-.1.315-.308.641-.724 1.046-.211.204-.494.365-.864.54-.785.372-1.371.792-1.752 1.33-.394.555-.51 1.153-.51 1.758h1.5c0-.403.074-.666.234-.891m-13.094.257-2.188 1.868c.11 1.122.623 2.338 1.443 3.406.825 1.073 1.926 1.951 3.152 2.42l2.62-1.968a10.9 10.9 0 0 1-3.18-2.496c-.838-.956-1.518-2.075-1.847-3.23" clip-rule="evenodd"/></svg>