<svg xmlns="http://www.w3.org/2000/svg" fill="none" viewBox="0 0 24 24"><path fill="currentColor" fill-rule="evenodd" d="m8.621 6.004.102.01a4.86 4.86 0 0 1 1.566-1.956c1.13-.83 2.742-1.229 4.774-.549l.04.014.038.017c.723.336 1.708 1.04 2.298 2.118.206.378.359.792.437 1.24 1.472-.022 2.628.451 3.464 1.161.987.838 1.498 1.984 1.55 2.92.124 2.256-1.023 3.655-2.383 4.356-.662.34-1.37.516-2.003.562-.282.02-.569.017-.842-.018-.47 1.1-1.59 1.891-3.147 1.891-1.422 0-2.303.475-2.833 1.05a3 3 0 0 0-.778 2.01h-1.5c0-.98.342-2.122 1.175-3.026.848-.92 2.149-1.534 3.936-1.534 1.22 0 1.793-.697 1.878-1.399l.002-.01.001-.01c.102-.681-.371-1.567-1.44-1.721l.215-1.485c1.624.235 2.604 1.475 2.726 2.752.138.014.305.018.498.004.45-.033.958-.16 1.425-.4.898-.462 1.66-1.343 1.572-2.94-.028-.507-.336-1.276-1.022-1.858-.549-.466-1.362-.831-2.513-.804a5.5 5.5 0 0 1-.556 1.53l-1.325-.704c.662-1.246.515-2.174.146-2.848-.386-.706-1.061-1.21-1.576-1.459-1.564-.511-2.651-.177-3.37.35a3.4 3.4 0 0 0-.982 1.143c.755.348 1.48.934 2.09 1.84l-1.243.839C10.277 7.957 9.35 7.567 8.503 7.5a3.95 3.95 0 0 0-2.163.477c-.683.51-1.053 1.014-1.246 1.463-.196.455-.23.899-.176 1.313.113.855.6 1.555.782 1.796l-1.197.905a6 6 0 0 1-.587-.952c-.674.462-.912.948-.988 1.339-.104.532.055 1.063.235 1.42 1.176 1.625 3.515 1.218 4.12-.366l1.401.536c-1.063 2.78-4.959 3.254-6.779.65l-.027-.038L1.856 16c-.274-.522-.599-1.434-.4-2.449.183-.936.786-1.83 1.987-2.522l-.012-.082a3.95 3.95 0 0 1 .285-2.102c.319-.739.885-1.45 1.765-2.1l.031-.023.033-.02a5.44 5.44 0 0 1 3.076-.699m1.573 5.63c-.52-.275-.65-.71-.593-.95l-1.46-.348c-.252 1.06.38 2.11 1.352 2.624.97.512 2.196.458 2.983-.255l-1.007-1.112c-.234.212-.753.317-1.275.04" clip-rule="evenodd"/></svg>