<svg xmlns="http://www.w3.org/2000/svg" fill="none" viewBox="0 0 24 24"><path fill="currentColor" fill-rule="evenodd" d="M15.5 1.75a.75.75 0 0 1 .75.75v2.75h5.25a.75.75 0 0 1 .75.75v15.5a.75.75 0 0 1-.75.75h-19a.75.75 0 0 1-.75-.75V6a.75.75 0 0 1 .75-.75h5.25V2.5a.75.75 0 0 1 .75-.75zm-.75 1.5h-5.5v2h5.5zm-11.5 3.5v4.5H6v1.5H3.25v8h17.5v-8H18v-1.5h2.75v-4.5zm6.886 4.09a2.95 2.95 0 0 1 1.114-.506V9.5h1.5v.835c.789.18 1.485.645 1.815 1.345l-1.357.64c-.117-.249-.54-.57-1.208-.57-.406 0-.744.124-.964.29-.22.164-.286.335-.286.46s.066.296.286.46c.22.166.558.29.964.29.699 0 1.36.211 1.864.59.504.377.886.957.886 1.66s-.382 1.283-.886 1.66c-.318.24-.7.412-1.114.506v.834h-1.5v-.834c-.789-.181-1.485-.646-1.815-1.346l1.357-.64c.117.249.54.57 1.208.57.406 0 .744-.124.964-.29.22-.164.286-.335.286-.46s-.066-.296-.286-.46c-.22-.166-.558-.29-.964-.29-.699 0-1.36-.211-1.864-.59-.504-.377-.886-.957-.886-1.66s.382-1.283.886-1.66" clip-rule="evenodd"/></svg>