<svg xmlns="http://www.w3.org/2000/svg" fill="none" viewBox="0 0 24 24"><path fill="currentColor" fill-rule="evenodd" d="M8.702 4.799c0-1.065.965-2.049 2.272-2.049 1.404 0 2.272.82 2.272 1.801a.75.75 0 0 0 1.225.58c.4-.328.938-.535 1.54-.535 1.317 0 2.271.965 2.271 2.02 0 1.054-.954 2.019-2.272 2.019v1.5c1.3 0 2.487-.627 3.17-1.607.902.589 1.21 1.601 1.014 2.569-.232 1.152-1.167 2.153-2.673 2.153-1.571 0-2.775-1.198-2.775-2.591a.75.75 0 0 0-1.372-.42c-.428.635-.918.983-1.395 1.108-.466.123-1.013.057-1.621-.314a.75.75 0 0 0-1.104.405c-.332 1.009-1.4 1.812-2.739 1.812-1.334 0-2.218-.708-2.578-1.559a2.3 2.3 0 0 1 .027-1.874c.403.496.973.904 1.7 1.189l.547-1.397c-.75-.294-1.14-.717-1.318-1.122-.18-.412-.178-.889.005-1.355.367-.936 1.45-1.767 2.966-1.588a.75.75 0 0 0 .838-.745m12.963 6.595c.319-1.578-.256-3.36-1.92-4.276a3.4 3.4 0 0 0 .037-.503c0-2.004-1.751-3.519-3.772-3.519-.524 0-1.026.1-1.483.283-.543-1.358-2.018-2.129-3.553-2.129-1.758 0-3.3 1.165-3.681 2.772C5.46 4.084 4.047 5.194 3.5 6.584a3.4 3.4 0 0 0-.224 1.594C2.182 9.38 2 10.963 2.556 12.277c.6 1.417 2.036 2.473 3.96 2.473q.12 0 .24-.006l.055.055q.133.14.31.412c.232.366.487.882.724 1.536.474 1.307.864 3.115.906 5.267l.014.736h6.471l.014-.736c.042-2.152.431-3.96.906-5.267.237-.654.491-1.17.725-1.536q.175-.272.31-.412.03-.033.056-.057.136.008.274.008c2.308 0 3.788-1.594 4.144-3.356m-6.008 2.947a4.18 4.18 0 0 1-2.095-2.131 3.5 3.5 0 0 1-1.201.588c-.668.175-1.36.13-2.035-.119a4.23 4.23 0 0 1-1.963 1.692l.022.034c.305.478.604 1.098.87 1.83.475 1.31.859 3.02.968 5.015h3.555c.11-1.995.493-3.706.968-5.015.265-.732.565-1.352.87-1.83z" clip-rule="evenodd"/></svg>