<svg xmlns="http://www.w3.org/2000/svg" fill="none" viewBox="0 0 24 24"><path fill="currentColor" fill-rule="evenodd" d="M18.25 10.052V3.888l-1.72 1.715-1.06-1.062L19 1.023l3.53 3.518-1.06 1.062-1.72-1.715v6.164zM17 13.04h-2l-.009-2H17zm-3.995 0h-2.01v-2h2.01zm-3.996 0h-2l-.009-2h2.009zm-4.714 9.94h-.001m-.567-.237.567.237.228-.325 3.573-1.556c.172.053.33.103.485.153h.003c.92.295 1.588.509 3.207.509 3.001 0 5.789-1.093 7.849-3.077 1.978-1.905 3.112-4.51 3.112-7.143h-1.5c0 2.229-.967 4.438-2.653 6.062-1.779 1.714-4.197 2.658-6.808 2.658-1.385 0-1.87-.156-2.749-.437l-.003-.001a30 30 0 0 0-.779-.242l-.261-.077-2.883 1.256.71-2.805-.379-.302c-1.841-1.464-2.698-4.46-2.698-6.023 0-2.418.897-4.623 2.527-6.21 1.838-1.787 4.505-2.69 7.714-2.6l.041-1.5c-3.623-.097-6.666.949-8.8 3.026-1.922 1.87-2.981 4.458-2.981 7.284 0 1.8.901 5.01 2.891 6.874l-.849 3.352-.008.036a.765.765 0 0 0 .444.85" clip-rule="evenodd"/></svg>