<svg xmlns="http://www.w3.org/2000/svg" fill="none" viewBox="0 0 24 24"><path fill="currentColor" fill-rule="evenodd" d="M1 11.253C1 5.555 5.848 1 11.748 1s10.748 4.555 10.748 10.253-4.849 10.254-10.748 10.254c-1.407 0-2.753-.259-3.988-.73l-3.686 1.655a.76.76 0 0 1-1.045-.893l.888-3.276C2.13 16.403 1 14.003 1 11.253M11.748 2.5C6.604 2.5 2.5 6.455 2.5 11.253c0 2.445 1.057 4.588 2.775 6.248l.319.308-.708 2.614 2.845-1.277.3.124a9.7 9.7 0 0 0 3.717.736c5.144 0 9.248-3.954 9.248-8.753S16.892 2.5 11.748 2.5m-5.006 8.25h2.01v2h-2.01zm3.996 0h2.01v2h-2.01zm6.005 0h-2.009v2h2.01z" clip-rule="evenodd"/></svg>