<svg xmlns="http://www.w3.org/2000/svg" fill="none" viewBox="0 0 24 24"><path fill="currentColor" fill-rule="evenodd" d="M4.018 22.751h.161v.001l3.834-1.725c1.259.488 2.601.735 3.994.735 3.403 0 6.65-1.572 8.685-4.206 1.926-2.492 2.526-5.633 1.689-8.843l-1.452.378c.717 2.75.212 5.43-1.424 7.547-1.753 2.268-4.556 3.623-7.498 3.623a9.5 9.5 0 0 1-3.717-.741l-.302-.128-2.85 1.282.708-2.616-.319-.308C3.71 15.997 2.75 13.835 2.75 11.5c0-4.825 4.152-8.75 9.256-8.75v-1.5C6.075 1.25 1.25 5.848 1.25 11.5c0 2.612 1.008 5.027 2.919 7.013l-.886 3.274-.105.355.225.303a.76.76 0 0 0 .615.306M16.471 8.529l-3.531-3.53 3.53-3.53 1.06 1.06-1.719 1.72h6.19v1.5h-6.19l1.72 1.72zM17 13h-2l-.009-2H17zm-3.995 0h-2.01v-2h2.01zm-3.996 0h-2L7 11h2.009z" clip-rule="evenodd"/></svg>