<svg xmlns="http://www.w3.org/2000/svg" fill="none" viewBox="0 0 24 24"><path fill="currentColor" fill-rule="evenodd" d="m8.787 17.5.025-.023c.11-.097.31-.218.623-.335.62-.233 1.527-.392 2.565-.392 1.02 0 1.882.202 2.46.528.564.317.79.7.79 1.116h1.5c0-1.111-.67-1.925-1.554-2.423-.684-.386-1.535-.61-2.446-.69v-2.825c.8.605 1.615.982 2.43 1.164 1.264.283 2.457.08 3.491-.366 1.029-.442 1.911-1.128 2.59-1.841.675-.708 1.186-1.482 1.439-2.14a.75.75 0 0 0-.701-1.019 1 1 0 0 1-.2-.05 4 4 0 0 1-.51-.21 12 12 0 0 1-1.444-.832c-1.077-.713-2.23-1.666-3.022-2.636a.75.75 0 0 0-1.272.182c-.414.981-1.204 2.261-2.017 3.355-.269.361-.534.695-.784.985V5.622a2.25 2.25 0 1 0-1.5 0v3.426c-.25-.29-.515-.624-.784-.985-.813-1.094-1.603-2.374-2.017-3.355a.75.75 0 0 0-1.272-.182c-.791.97-1.945 1.923-3.022 2.636-.535.355-1.036.64-1.444.833a4 4 0 0 1-.51.21 1 1 0 0 1-.2.049H2a.75.75 0 0 0-.7 1.02c.253.657.764 1.431 1.438 2.139.68.713 1.562 1.399 2.59 1.841 1.035.445 2.228.649 3.492.366.815-.182 1.63-.56 2.43-1.164v2.819c-.883.058-1.694.22-2.342.462-.41.154-.796.356-1.091.618-.295.261-.567.646-.567 1.145s.272.884.567 1.145c.295.262.68.464 1.091.618.828.31 1.921.487 3.092.487.737 0 1.368.151 1.786.36.209.105.337.21.406.29a.3.3 0 0 1 .057.096v.002l.001.002v.004l-.005.014a.3.3 0 0 1-.053.081 1.3 1.3 0 0 1-.406.29c-.418.21-1.049.361-1.786.361a3.5 3.5 0 0 1-1.559-.387c-.492-.258-.655-.518-.676-.638l-1.477.26c.144.814.826 1.376 1.457 1.707A5 5 0 0 0 12 22.75c.92 0 1.79-.185 2.457-.518.622-.312 1.293-.88 1.293-1.732 0-.851-.67-1.42-1.293-1.732-.668-.333-1.537-.518-2.457-.518-1.038 0-1.945-.16-2.565-.392-.313-.117-.514-.238-.623-.335zm-.048.058.003-.005zm.003-.111-.003-.005zM12 2.75a.75.75 0 1 0 0 1.5.75.75 0 0 0 0-1.5m4.433 3.573a22.5 22.5 0 0 1-1.695 2.635 17 17 0 0 1-1.263 1.526q-.165.175-.34.34c.836.77 1.638 1.168 2.372 1.332.903.202 1.772.065 2.571-.28.805-.346 1.527-.899 2.098-1.498.295-.31.54-.622.73-.91a8 8 0 0 1-.259-.117 13.5 13.5 0 0 1-1.63-.939 17 17 0 0 1-2.584-2.09M3.825 10.378a6.7 6.7 0 0 1-.732-.91q.128-.055.26-.117c.487-.23 1.05-.554 1.63-.939a17 17 0 0 0 2.585-2.09 22.5 22.5 0 0 0 1.694 2.636c.429.576.865 1.107 1.263 1.526q.165.175.34.34c-.836.77-1.638 1.168-2.372 1.332-.903.202-1.772.065-2.571-.28-.805-.346-1.527-.899-2.097-1.498" clip-rule="evenodd"/></svg>