<svg xmlns="http://www.w3.org/2000/svg" fill="none" viewBox="0 0 24 24"><path fill="currentColor" fill-rule="evenodd" d="M5.75 4.75V6h1.5V4.75h9.5V6h1.5V4.75h2v3.5H3.75v-3.5zM20.25 12V9.75H3.75v11.5H12v1.5H3a.75.75 0 0 1-.75-.75V4A.75.75 0 0 1 3 3.25h2.75V2h1.5v1.25h9.5V2h1.5v1.25H21a.75.75 0 0 1 .75.75v8zm-4.839 2.887a3.73 3.73 0 0 1 1.837-.955V13h1.5v.932a3.73 3.73 0 0 1 1.837.955l.977-.697.872 1.22-.998.712a3.57 3.57 0 0 1 0 2.756l.998.712-.871 1.22-.978-.697a3.73 3.73 0 0 1-1.837.955V22h-1.5v-.932a3.73 3.73 0 0 1-1.837-.955l-.977.698-.871-1.221.997-.712a3.58 3.58 0 0 1 0-2.756l-.998-.711.872-1.221zm.74 1.432a2.23 2.23 0 0 1 1.847-.962 2.23 2.23 0 0 1 1.847.962 2.08 2.08 0 0 1 0 2.362 2.23 2.23 0 0 1-1.847.962 2.23 2.23 0 0 1-1.846-.962 2.08 2.08 0 0 1 0-2.363" clip-rule="evenodd"/></svg>