<svg xmlns="http://www.w3.org/2000/svg" fill="none" viewBox="0 0 24 24"><path fill="currentColor" fill-rule="evenodd" d="M11.735 20.92c1.303.702 3.389 1.825 5.517 1.825v.004c.928 0 1.864-.214 2.746-.769.525-.327 1.718-1.384 2.375-2.188h.078l.3-.564-.005-.946h-.572l-6.335-3.184-3.898 4.22c-2.037-1.194-3.742-2.782-4.699-3.927l-.033-.038a19 19 0 0 1-2.495-3.223l4.198-3.955L5.474 1.25H4.73l-.205.163c-2.36 1.874-3.51 3.956-3.236 5.864.206 1.434 1.09 5.187 4.818 9.093.997 1.188 2.726 2.806 4.795 4.071l-.02.02.846.455.005.004m7.468-.215c-1.747 1.099-3.902.348-5.897-.656l2.868-3.105 4.647 2.335c-.566.588-1.32 1.241-1.619 1.426M2.773 7.063c-.17-1.182.53-2.539 1.985-3.879v-.001l2.315 4.661-3.105 2.924C3.165 9.11 2.877 7.771 2.775 7.063M12.249 7a4.756 4.756 0 0 0 4.75 4.75A4.756 4.756 0 0 0 21.748 7a4.756 4.756 0 0 0-4.75-4.75A4.756 4.756 0 0 0 12.248 7m1.5 0c0-.625.177-1.209.484-1.705l4.471 4.471a3.23 3.23 0 0 1-1.705.484A3.254 3.254 0 0 1 13.748 7m6.016 1.706-4.471-4.471a3.23 3.23 0 0 1 1.705-.484 3.254 3.254 0 0 1 3.25 3.25c0 .625-.177 1.209-.484 1.705" clip-rule="evenodd"/></svg>