<svg xmlns="http://www.w3.org/2000/svg" fill="none" viewBox="0 0 24 24"><path fill="currentColor" fill-rule="evenodd" d="M10.475 3.266h-4.21v4.217h1.5V5.827l3.662 3.661a.76.76 0 0 0 1.073.002l5.01-4.98-1.058-1.064-4.487 4.46-3.139-3.14h1.649zm.892 10.434c1.25-.113 2.906-.02 4.679.443v4.301l5.545 2.237.022.007a.76.76 0 0 0 .976-.537c.109-.441.15-1.079.16-1.626.009-.546-.014-1.12-.071-1.442-.255-1.417-1.207-2.322-2.278-2.933-1.026-.584-2.261-.955-3.304-1.268l-.084-.025c-2.144-.645-4.19-.791-5.755-.653-3.917.095-6.8 1.277-8.406 2.43-.748.537-1.177 1.316-1.397 2.224-.217.892-.243 1.947-.167 3.113a.76.76 0 0 0 1.037.657l5.509-2.173.15-4.363c.984-.216 2.098-.36 3.333-.39h.025zm5.431-.133v.002l-.752.574zM3.726 15.853c.638-.458 1.558-.948 2.741-1.344l-.1 2.912-3.619 1.427q-.001-.959.163-1.636c.16-.662.433-1.086.815-1.36m13.82 1.579v-2.843c.763.244 1.492.512 2.111.865.86.49 1.398 1.08 1.544 1.895.03.17.056.62.048 1.151a12 12 0 0 1-.014.42z" clip-rule="evenodd"/></svg>