<svg xmlns="http://www.w3.org/2000/svg" fill="none" viewBox="0 0 24 24"><path fill="currentColor" fill-rule="evenodd" d="M11.58 20.95c1.3.702 3.38 1.824 5.51 1.824h-.001c.93 0 1.87-.214 2.757-.771.607-.381 2.084-1.712 2.622-2.512l.019-.03a.76.76 0 0 0 .072-.634l-.115-.335-.293-.118-6.467-3.251-3.897 4.222c-2.043-1.2-3.746-2.786-4.7-3.928l-.033-.038a19 19 0 0 1-2.495-3.221l4.199-3.954-3.235-6.51a.76.76 0 0 0-.517-.401l-.356-.074-.28.22C2.01 3.312.86 5.394 1.135 7.304c.207 1.435 1.09 5.19 4.818 9.095.994 1.186 2.72 2.804 4.796 4.073l-.02.02.848.457zm7.469-.218c-1.754 1.102-3.906.35-5.898-.652l2.869-3.11 4.648 2.338c-.551.573-1.29 1.217-1.62 1.424M2.619 7.089c-.167-1.163.549-2.546 1.984-3.875l2.316 4.66-3.104 2.924c-.806-1.66-1.094-3-1.196-3.71m2.685-4.474-.003.002zM18.314 7.5l1.06 1.06 3.531-3.53-3.53-3.53-1.06 1.06 1.718 1.72h-6.378l1.72-1.72-1.06-1.06-3.532 3.53 3.531 3.53 1.06-1.06-1.719-1.72h6.378z" clip-rule="evenodd"/></svg>