<svg xmlns="http://www.w3.org/2000/svg" fill="none" viewBox="0 0 24 24"><path fill="currentColor" fill-rule="evenodd" d="M7.467 6.752 9.444 2.75h5.082l2.015 4.002h4.714v14.5H2.75v-14.5zM9.04 1.25a.85.85 0 0 0-.762.474L6.535 5.252H2.1a.85.85 0 0 0-.85.85v15.8c0 .47.38.85.85.85h19.805c.47 0 .85-.38.85-.85v-15.8a.85.85 0 0 0-.85-.85h-4.44l-1.78-3.534a.85.85 0 0 0-.759-.468zm1.901 3.742h2.01v2h-2.01zm1.034 5.524a.75.75 0 0 1 .118.75 2.7 2.7 0 0 0-.187.99c0 1.518 1.267 2.78 2.87 2.78q.274 0 .532-.047A.75.75 0 0 1 16.139 16c-.633 1.611-2.226 2.741-4.078 2.741-2.395 0-4.37-1.898-4.37-4.28 0-2.11 1.552-3.842 3.57-4.208a.75.75 0 0 1 .714.262m-1.569 1.674a2.76 2.76 0 0 0-1.215 2.272c0 1.518 1.267 2.78 2.87 2.78.77 0 1.466-.293 1.979-.767-2.051-.341-3.634-2.086-3.634-4.219z" clip-rule="evenodd"/></svg>