<svg xmlns="http://www.w3.org/2000/svg" fill="none" viewBox="0 0 24 24"><path fill="currentColor" fill-rule="evenodd" d="m17.075 5.253-.997-4.003H7.896l-1 4.005-.094-.001c-.37-.004-.852-.003-1.367 0a332 332 0 0 0-2.915.03l-.002-.001c-.02-.001-.132-.007-.261.034a.76.76 0 0 0-.459.397c-.064.136-.07.259-.072.283v.002l-.002.041v.011L1.227 22.75h10.827l10.718-.01-.574-17.452-.714-.011c-.692-.011-1.875-.024-2.918-.028-.521-.002-1.01-.001-1.387.003zm-11.631 1.5c.393-.001.764-.002 1.078-.001l-.27 1.083 1.455.363 1.36-5.448h5.84l1.354 5.443 1.455-.363-.269-1.08c.323-.003.707-.002 1.114-.001.732.003 1.535.01 2.185.018l.476 14.474-9.17.009h-9.28l.431-14.474c.665-.009 1.491-.018 2.24-.022m5.536-1.737h2.01v2h-2.01zm1.034 5.524a.75.75 0 0 1 .118.75 2.7 2.7 0 0 0-.187.99c0 1.517 1.267 2.78 2.87 2.78q.274 0 .532-.048a.75.75 0 0 1 .831 1.012c-.633 1.611-2.227 2.742-4.078 2.742-2.395 0-4.37-1.899-4.37-4.28 0-2.11 1.552-3.842 3.57-4.208a.75.75 0 0 1 .714.262m-1.568 1.674a2.76 2.76 0 0 0-1.216 2.272c0 1.517 1.267 2.78 2.87 2.78.77 0 1.466-.294 1.979-.767-2.051-.342-3.634-2.087-3.634-4.22z" clip-rule="evenodd"/></svg>