<svg xmlns="http://www.w3.org/2000/svg" fill="none" viewBox="0 0 24 24"><path fill="currentColor" fill-rule="evenodd" d="M2.1 22.752h19.804a.85.85 0 0 0 .85-.85V6.101a.85.85 0 0 0-.85-.85h-4.439L15.686 1.72a.85.85 0 0 0-.76-.47H9.04a.85.85 0 0 0-.762.473L6.535 5.251H2.1a.85.85 0 0 0-.85.85v15.801c0 .47.381.85.85.85m19.154-1.5H2.75V6.751h4.717L9.443 2.75h5.082l2.016 4.001h4.713zm-5.313-8.26h-2l-.009-2h2.01zm-5.99 0h-2l-.01-2h2.01zm1.993 4.75c-2.224 0-3.545-1.726-3.6-1.8l1.197-.903c.009.012.94 1.203 2.403 1.203 1.438 0 2.363-1.153 2.402-1.202l1.198.902c-.055.074-1.376 1.8-3.6 1.8" clip-rule="evenodd"/></svg>