<svg xmlns="http://www.w3.org/2000/svg" fill="none" viewBox="0 0 24 24"><path fill="currentColor" fill-rule="evenodd" d="M7.467 6.752 9.444 2.75h5.082l2.015 4.002h4.714v14.5H2.75v-14.5zM9.04 1.25a.85.85 0 0 0-.762.474L6.535 5.252H2.1a.85.85 0 0 0-.85.85v15.8c0 .47.38.85.85.85h19.805c.47 0 .85-.38.85-.85v-15.8a.85.85 0 0 0-.85-.85h-4.44l-1.78-3.534a.85.85 0 0 0-.759-.468zm2.905 7a2.5 2.5 0 0 0-2.501 2.501v1.97a2.501 2.501 0 0 0 5.002 0v-1.97a2.5 2.5 0 0 0-2.501-2.501m-1.001 2.501a1.001 1.001 0 1 1 2.002 0v1.97a1.001 1.001 0 1 1-2.002 0zM7.742 14.75c.346.983.916 1.743 1.663 2.254.537.367 1.143.59 1.783.685v1.322h1.5v-1.323c1.55-.232 2.875-1.2 3.463-2.948l-1.422-.478c-.454 1.35-1.505 1.981-2.791 1.981-.66 0-1.23-.165-1.687-.477-.454-.31-.842-.797-1.094-1.514z" clip-rule="evenodd"/></svg>