<svg xmlns="http://www.w3.org/2000/svg" fill="none" viewBox="0 0 24 24"><path fill="currentColor" fill-rule="evenodd" d="m17.075 5.253-.997-4.003H7.896l-1 4.005-.094-.001c-.37-.004-.852-.003-1.367 0a332 332 0 0 0-2.915.03l-.002-.001c-.02-.001-.132-.007-.261.034a.76.76 0 0 0-.459.397c-.064.136-.07.259-.072.283v.002l-.002.041v.011L1.227 22.75h10.827l10.718-.01-.574-17.452-.714-.011c-.692-.011-1.875-.024-2.918-.028-.521-.002-1.01-.001-1.387.003zm-11.631 1.5c.393-.001.764-.002 1.078-.001l-.27 1.083 1.455.363 1.36-5.448h5.84l1.354 5.443 1.455-.363-.269-1.08c.323-.003.707-.002 1.114-.001.732.003 1.535.01 2.185.018l.476 14.474-9.17.009h-9.28l.431-14.474c.665-.009 1.491-.018 2.24-.022m5.536-1.737h2.01v2h-2.01zm1.75 9.75v3.25h-1.5v-3.25H7.98v-1.5h3.25v-3.25h1.5v3.25h3.25v1.5z" clip-rule="evenodd"/></svg>