<svg xmlns="http://www.w3.org/2000/svg" fill="none" viewBox="0 0 24 24"><path fill="currentColor" fill-rule="evenodd" d="M20 2.25a.75.75 0 0 1 .67.415l2 4A.75.75 0 0 1 22 7.75h-2.599l3.223 4.834a.75.75 0 0 1 .126.416v6a.75.75 0 0 1-.75.75h-2.354a2.751 2.751 0 0 1-5.292 0H9.647a2.751 2.751 0 0 1-5.293 0H2a.75.75 0 0 1-.75-.75V3A.75.75 0 0 1 2 2.25zM7 17.75a1.25 1.25 0 1 0 0 2.5 1.25 1.25 0 0 0 0-2.5m10 0a1.25 1.25 0 1 0 0 2.5 1.25 1.25 0 0 0 0-2.5m4.25-4H2.75v4.5h1.604a2.751 2.751 0 0 1 5.292 0h4.708a2.751 2.751 0 0 1 5.293 0h1.603zm-1.713-10H2.75v8.5h10.5V7a.75.75 0 0 1 .75-.75h6.787zm-1.938 4H14.75v4.5h5.849zM8 7.75H5v-1.5h3z" clip-rule="evenodd"/></svg>