<svg xmlns="http://www.w3.org/2000/svg" fill="none" viewBox="0 0 24 24"><path fill="currentColor" fill-rule="evenodd" d="M4 1.25a.75.75 0 0 0-.75.75v13.25H2v1.5h4.787L4.33 21.664l1.342.67 2.792-5.584h2.786V21h1.5v-4.25h2.786l2.792 5.585 1.342-.67-2.457-4.915H22v-1.5h-1.25V2a.75.75 0 0 0-.75-.75zm15.25 14V2.75H4.75v12.5zm-7.566-9.499a5.5 5.5 0 0 0-.879.057l-.213-1.485c.34-.048.74-.08 1.128-.071.37.009.81.057 1.175.225.19.086.405.226.565.453.17.242.235.528.203.819-.057.512-.41.991-.852 1.433-1.015 1.019-2.273 2.669-2.818 3.824a4 4 0 0 0-.185.46c.146-.038.341-.104.594-.213.965-.415 1.818-.668 2.538-.78.703-.108 1.352-.092 1.86.112.263.105.516.273.698.526.188.262.267.566.25.873-.032.571-.385 1.101-.828 1.546l-1.062-1.06c.24-.24.335-.409.37-.498-.156-.058-.492-.103-1.059-.016-.565.087-1.294.297-2.174.675-.492.212-.937.349-1.324.374-.388.026-.871-.056-1.182-.477-.28-.378-.26-.83-.206-1.135.058-.332.192-.685.354-1.027.64-1.358 2.018-3.146 3.112-4.243.136-.136.233-.25.3-.34a3 3 0 0 0-.365-.032" clip-rule="evenodd"/></svg>