<svg xmlns="http://www.w3.org/2000/svg" fill="none" viewBox="0 0 24 24"><path fill="currentColor" fill-rule="evenodd" d="M3 21.75a.75.75 0 0 1-.75-.75V3h1.5v17.195c1.28-.198 2.2-.914 2.97-1.978.922-1.275 1.579-2.984 2.289-4.833l.058-.153c.713-1.854 1.488-3.838 2.658-5.347C12.93 6.33 14.579 5.25 16.978 5.25c2.227 0 3.635 1.244 4.633 2.649l-1.222.869c-.852-1.2-1.864-2.018-3.41-2.018-1.856 0-3.093.796-4.069 2.053-1.01 1.304-1.714 3.07-2.442 4.966l-.093.242c-.68 1.773-1.4 3.647-2.439 5.085a7.6 7.6 0 0 1-1.015 1.154H21v1.5z" clip-rule="evenodd"/></svg>