<svg xmlns="http://www.w3.org/2000/svg" fill="none" viewBox="0 0 24 24"><path fill="currentColor" fill-rule="evenodd" d="M3.75 20.25V3h-1.5v18c0 .414.336.75.75.75h18v-1.5zm1.5-9h1.509v1.5H5.25zm2.998 0h1.51v1.5h-1.51zm4.362 0h-1.364v1.5h1.51v-.89c.31 1.274.686 2.599 1.32 3.652.384.637.879 1.205 1.536 1.61.663.41 1.448.628 2.37.628 1.803 0 2.909-1.154 3.655-2.354l-1.273-.792c-.643 1.032-1.353 1.646-2.382 1.646-.674 0-1.181-.157-1.582-.404-.405-.25-.744-.62-1.038-1.108-.338-.56-.594-1.236-.817-1.988h1.209v-1.5h-1.51v.382q-.096-.393-.192-.804l-.049-.206c-.33-1.406-.688-2.932-1.34-4.11-.35-.633-.805-1.206-1.422-1.62-.624-.418-1.37-.642-2.248-.642-1.792 0-2.905 1.147-3.636 2.364l1.286.772C7.26 6.36 7.973 5.75 8.993 5.75c.609 0 1.058.15 1.413.389.364.243.673.607.945 1.1.548.99.864 2.335 1.217 3.832l.023.1zm4.633 0h1.509v1.5h-1.51zm2.998 0h1.509v1.5h-1.509z" clip-rule="evenodd"/></svg>