<svg xmlns="http://www.w3.org/2000/svg" fill="none" viewBox="0 0 24 24"><path fill="currentColor" fill-rule="evenodd" d="M10.75 4a1.25 1.25 0 1 1 2.5 0 1.25 1.25 0 0 1-2.5 0M12 1.25a2.75 2.75 0 0 0-2.567 3.738L5.667 7.813a2.75 2.75 0 1 0 .9 1.2l3.766-2.826A2.74 2.74 0 0 0 12 6.75c.805 0 1.529-.346 2.03-.896l3.268 1.633a2.75 2.75 0 1 0 .671-1.341l-3.267-1.633q.048-.25.048-.513A2.75 2.75 0 0 0 12 1.25m6.881 6.191a1.25 1.25 0 1 1 2.237 1.118A1.25 1.25 0 0 1 18.88 7.44M2.75 10a1.25 1.25 0 1 1 2.5 0 1.25 1.25 0 0 1-2.5 0m8.5 9V9h1.5v10zm-8 0v-4h1.5v4zM22 22.75v-1.5H2v1.5zM19.25 19v-6h1.5v6z" clip-rule="evenodd"/></svg>