<svg xmlns="http://www.w3.org/2000/svg" fill="none" viewBox="0 0 24 24"><path fill="currentColor" fill-rule="evenodd" d="M3.75 20.25V3h-1.5v18c0 .414.336.75.75.75h18v-1.5h-1.261c-.093-3.111-.762-5.944-1.826-8.07C16.789 9.927 15.095 8.25 13 8.25s-3.788 1.678-4.913 3.93c-1.064 2.126-1.733 4.959-1.826 8.07zm4.012 0h10.476c-.093-2.918-.723-5.513-1.666-7.4-1.046-2.092-2.352-3.1-3.572-3.1s-2.526 1.008-3.572 3.1c-.943 1.887-1.573 4.482-1.666 7.4m-2.512-15h1.509v1.5H5.25zm2.998 0h1.51v1.5h-1.51zm2.998 0h1.51v1.5h-1.51zm2.999 0h1.509v1.5h-1.51zm2.998 0h1.509v1.5h-1.51zm2.998 0h1.509v1.5h-1.509z" clip-rule="evenodd"/></svg>