<svg xmlns="http://www.w3.org/2000/svg" fill="none" viewBox="0 0 24 24"><path fill="currentColor" fill-rule="evenodd" d="M7.41 17.29a8.75 8.75 0 0 1-3.74-5.54A2.244 2.244 0 0 1 1.5 9.5c0-1.22 1.01-2.25 2.25-2.25h.19a8.75 8.75 0 0 1 7.56-5.968V1.25H13v.032a8.76 8.76 0 0 1 7.57 5.988c1.09.16 1.93 1.09 1.93 2.23 0 1.04-.7 1.91-1.66 2.17a8.74 8.74 0 0 1-3.753 5.62A6.77 6.77 0 0 1 19 21.998v.75h-1.5v-.75c0-1.5-.65-2.94-1.78-3.94l-.019-.017a8.7 8.7 0 0 1-3.451.709 8.7 8.7 0 0 1-3.451-.709l-.02.017A5.27 5.27 0 0 0 7 21.998v.75H5.5v-.75c0-1.76.69-3.453 1.91-4.709m4.84-12.201a6.76 6.76 0 0 1-6 3.661h-2.5c-.41 0-.75.34-.75.75s.34.75.75.75h1.22l.08.66c.45 3.62 3.54 6.34 7.2 6.34s6.75-2.73 7.2-6.34l.08-.66h.66c.47 0 .81-.34.81-.75s-.34-.75-.75-.75h-2a6.76 6.76 0 0 1-6-3.661m6.707 2.161h-.707c-2.62 0-4.804-1.94-5.19-4.455a7.25 7.25 0 0 1 5.897 4.455m-13.416 0a7.25 7.25 0 0 1 5.899-4.455C11.054 5.311 8.87 7.25 6.25 7.25zm6.709 8.5c-.96 0-1.75-.79-1.75-1.75v-.75H14V14c0 .96-.79 1.75-1.75 1.75m-3-4.742c-.55 0-1-.45-1-1s.45-1 1-1 1 .44 1 1-.45 1.01-1 1.01zm5-1c0 .55.45 1 1 1v.01c.55 0 1-.45 1-1.01s-.45-1-1-1-1 .45-1 1" clip-rule="evenodd"/></svg>