<svg xmlns="http://www.w3.org/2000/svg" fill="none" viewBox="0 0 24 24"><path fill="currentColor" fill-rule="evenodd" d="M10 1.25A5.25 5.25 0 0 0 4.75 6.5v2.747A7.82 7.82 0 0 0 2.25 15c0 4.263 3.376 7.75 7.579 7.75q.552 0 1.084-.079l-.218-1.484a6 6 0 0 1-.866.063c-3.34 0-6.079-2.78-6.079-6.25s2.739-6.25 6.079-6.25c2.413 0 4.51 1.448 5.49 3.565l1.361-.63A7.8 7.8 0 0 0 15.168 9.5h.082v-3c0-2.9-2.35-5.25-5.25-5.25m3.75 7.117V6.5a3.75 3.75 0 1 0-7.5 0v1.666a7.4 7.4 0 0 1 3.579-.916c1.437 0 2.778.409 3.921 1.117m7.78 6.162L15 21.06l-2.531-2.53 1.06-1.06 1.47 1.47 5.47-5.47z" clip-rule="evenodd"/></svg>