<svg xmlns="http://www.w3.org/2000/svg" fill="none" viewBox="0 0 24 24"><path fill="currentColor" fill-rule="evenodd" d="M13.975 1.25c-1.541 0-2.896.796-3.886 2.002C9.223 4.306 8.61 5.697 8.346 7.25H3a.75.75 0 0 0-.75.75v10c0 .414.336.75.75.75h3.999l.254 3.308a.75.75 0 0 0 .748.692h12a.75.75 0 0 0 .748-.692l1-13A.75.75 0 0 0 21 8.25h-1.277c-.127-1.78-.7-3.4-1.587-4.637-1.01-1.407-2.471-2.363-4.162-2.363m4.244 7c-.123-1.486-.607-2.796-1.3-3.762-.81-1.127-1.86-1.738-2.944-1.738-.991 0-1.95.508-2.727 1.454-.638.777-1.13 1.828-1.377 3.046H11a.75.75 0 0 1 .75.75v.25zm-6.469 4v-2.5h8.44L20 12.25zm0 1.5V18a.75.75 0 0 1-.75.75H8.503l.192 2.5h10.611l.577-7.5zm-8-5v4.5h6.5v-4.5zm0 6v2.5h6.5v-2.5z" clip-rule="evenodd"/></svg>