<svg xmlns="http://www.w3.org/2000/svg" fill="none" viewBox="0 0 24 24"><path fill="currentColor" fill-rule="evenodd" d="M1.25 13.018a5.76 5.76 0 0 1 4.603-5.644A6.254 6.254 0 0 1 12 2.25a6.255 6.255 0 0 1 6.247 6.064 5.26 5.26 0 0 1 4.503 5.205 5.256 5.256 0 0 1-4.667 5.226l-.166-1.49a3.756 3.756 0 0 0 3.333-3.736 3.76 3.76 0 0 0-3.135-3.708 6.25 6.25 0 0 1-1.293 2.683l-1.158-.955A4.74 4.74 0 0 0 16.75 8.51c0-2.63-2.128-4.76-4.75-4.76a4.754 4.754 0 0 0-4.588 3.524 5.7 5.7 0 0 1 3.04 1.138L9.548 9.61a4.22 4.22 0 0 0-2.957-.831 4.256 4.256 0 0 0-3.842 4.24c0 2.06 1.46 3.78 3.4 4.173l-.3 1.47a5.76 5.76 0 0 1-4.6-5.644m14.28 2.45L12 11.938l-3.531 3.53 1.06 1.06 1.72-1.72v6.19h1.5v-6.19l1.72 1.72z" clip-rule="evenodd"/></svg>