<svg xmlns="http://www.w3.org/2000/svg" fill="none" viewBox="0 0 24 24"><path fill="currentColor" fill-rule="evenodd" d="M10.25 5.5c0-1.15.259-1.835.567-2.217.29-.362.687-.533 1.183-.533s.893.171 1.183.533c.308.382.567 1.067.567 2.217 0 1.008-.511 1.972-1.094 2.73-.231.3-.462.554-.656.75a8 8 0 0 1-.655-.75c-.584-.758-1.095-1.722-1.095-2.73m.769 4.62a10 10 0 0 1-.864-.975C9.49 8.278 8.75 6.992 8.75 5.5c0-1.35.3-2.415.898-3.158C10.262 1.58 11.115 1.25 12 1.25s1.738.329 2.352 1.092c.597.743.898 1.808.898 3.158 0 1.492-.739 2.778-1.405 3.645-.31.403-.62.733-.864.975l1.121 1.68c.21-.198.463-.42.753-.645.867-.666 2.153-1.405 3.645-1.405 1.35 0 2.415.3 3.157.898.764.614 1.093 1.467 1.093 2.352s-.329 1.738-1.093 2.352c-.742.597-1.807.898-3.157.898-1.492 0-2.778-.739-3.645-1.405a10 10 0 0 1-.859-.748c-.359.4-.716.84-1.067 1.302.677.96 1.303 1.948 1.838 2.84a61 61 0 0 1 1.866 3.352l.027.053.007.014.003.005L16 22l-.672.336-.001-.004-.006-.012-.025-.048-.098-.191a59 59 0 0 0-1.717-3.07A47 47 0 0 0 12 16.691a47 47 0 0 0-1.481 2.319 59 59 0 0 0-1.815 3.26l-.025.05-.006.011-.001.004L8 21.999l-.67-.336.002-.005.007-.014.027-.053.103-.2c.09-.173.22-.423.386-.732a60 60 0 0 1 1.377-2.42c.535-.892 1.16-1.88 1.838-2.84-.35-.462-.708-.901-1.067-1.302a10 10 0 0 1-.86.748c-.866.666-2.152 1.405-3.644 1.405-1.35 0-2.415-.3-3.158-.898C1.58 14.738 1.25 13.885 1.25 13s.329-1.738 1.092-2.352C3.085 10.05 4.15 9.75 5.5 9.75c1.492 0 2.778.739 3.645 1.406.29.223.544.446.753.645zM12 11.352l1.043 1.564c-.353.382-.702.798-1.043 1.232-.341-.434-.69-.85-1.042-1.232zm8.718.465c-.383-.308-1.068-.567-2.218-.567-1.008 0-1.972.511-2.73 1.095-.3.23-.554.461-.75.655.196.194.45.425.75.656.758.583 1.722 1.094 2.73 1.094 1.15 0 1.835-.259 2.218-.567.36-.29.532-.687.532-1.183s-.171-.893-.532-1.183M5.5 11.25c-1.15 0-1.835.259-2.217.567-.362.29-.533.687-.533 1.183s.171.893.533 1.183c.382.308 1.067.567 2.217.567 1.008 0 1.972-.511 2.73-1.094.3-.231.554-.462.75-.656a8 8 0 0 0-.75-.655c-.758-.584-1.722-1.095-2.73-1.095" clip-rule="evenodd"/></svg>