<svg xmlns="http://www.w3.org/2000/svg" fill="none" viewBox="0 0 24 24"><path fill="currentColor" fill-rule="evenodd" d="M3 2.25a.75.75 0 0 0-.75.75v18c0 .414.336.75.75.75h18a.75.75 0 0 0 .75-.75V3a.75.75 0 0 0-.75-.75zm.75 18V3.75h16.5v16.5zM7 7.25a.75.75 0 0 0-.75.75v2.69l-.78.78a.75.75 0 0 0 0 1.06l.78.78V16c0 .414.336.75.75.75h1.5v-1.5h-.75V13a.75.75 0 0 0-.22-.53L7.06 12l.47-.47a.75.75 0 0 0 .22-.53V8.75h.75v-1.5zm8.5 1.5h.75V11c0 .199.079.39.22.53l.47.47-.47.47a.75.75 0 0 0-.22.53v2.25h-.75v1.5H17a.75.75 0 0 0 .75-.75v-2.69l.78-.78a.75.75 0 0 0 0-1.06l-.78-.78V8a.75.75 0 0 0-.75-.75h-1.5zm-6.25 2.5h1.509v1.5H9.25zm3.991 0h1.509v1.5h-1.509z" clip-rule="evenodd"/></svg>