<svg xmlns="http://www.w3.org/2000/svg" fill="none" viewBox="0 0 24 24"><path fill="currentColor" fill-rule="evenodd" d="M3.648 3.649c-1.231 1.23-1.596 2.994-1.302 4.76.295 1.767 1.253 3.603 2.772 5.122l1.06-1.06c-1.323-1.324-2.114-2.884-2.352-4.309-.144-.867-.083-1.66.167-2.327a7.5 7.5 0 0 0 4.766 3.846l.395-1.448c-2.557-.697-3.748-2.646-4.131-3.797.79-.597 1.887-.818 3.138-.61 1.425.238 2.985 1.03 4.308 2.354l1.06-1.061c-1.517-1.519-3.353-2.477-5.12-2.772s-3.53.07-4.76 1.302m16.67 5.031c-1.258-1.259-3.063-1.633-4.873-1.332-1.812.302-3.695 1.285-5.254 2.843s-2.54 3.442-2.842 5.253.072 3.615 1.331 4.874c1.26 1.26 3.064 1.634 4.874 1.332 1.812-.302 3.695-1.284 5.254-2.843s2.54-3.441 2.843-5.253c.301-1.81-.073-3.615-1.332-4.874m-9.066 2.572c1.363-1.363 2.97-2.179 4.44-2.424.912-.152 1.746-.083 2.446.19a7.68 7.68 0 0 0-3.984 4.906c-.609 2.233-1.559 3.367-2.464 4.012-.756.54-1.5.765-2.198.978l-.039.012c-.613-.817-.84-1.948-.625-3.235.245-1.47 1.062-3.077 2.424-4.44m4.35 3.067c.721-2.646 2.744-3.875 3.93-4.265.624.819.855 1.957.639 3.253-.245 1.47-1.061 3.077-2.424 4.44-1.363 1.362-2.97 2.179-4.44 2.424-.876.146-1.681.087-2.364-.16a7.3 7.3 0 0 0 1.618-.853c1.226-.875 2.354-2.322 3.04-4.839" clip-rule="evenodd"/></svg>