<svg xmlns="http://www.w3.org/2000/svg" fill="none" viewBox="0 0 24 24"><path fill="currentColor" fill-rule="evenodd" d="M14 2.75a7.25 7.25 0 1 0 0 14.5 7.25 7.25 0 0 0 0-14.5M5.25 10a8.75 8.75 0 1 1 17.5 0 8.75 8.75 0 0 1-17.5 0m-1.466 1.407a6.361 6.361 0 0 0 8.805 8.805l.822 1.256A7.861 7.861 0 0 1 2.529 10.586zm8.352-4.568a2.95 2.95 0 0 1 1.114-.505V5.5h1.5v.835c.789.18 1.485.645 1.815 1.345l-1.357.64c-.117-.249-.54-.57-1.208-.57-.406 0-.744.124-.964.29-.22.164-.286.335-.286.46s.066.296.286.46c.22.166.558.29.964.29.699 0 1.36.212 1.864.59.504.377.886.957.886 1.66s-.382 1.283-.886 1.66a2.95 2.95 0 0 1-1.114.506v.834h-1.5v-.835c-.789-.18-1.485-.645-1.815-1.345l1.357-.64c.117.249.54.57 1.208.57.406 0 .744-.124.964-.29.22-.164.286-.335.286-.46s-.066-.296-.286-.46c-.22-.166-.558-.29-.964-.29-.699 0-1.36-.211-1.864-.59-.504-.377-.886-.957-.886-1.66s.382-1.283.886-1.66" clip-rule="evenodd"/></svg>