<svg xmlns="http://www.w3.org/2000/svg" fill="none" viewBox="0 0 24 24"><path fill="currentColor" fill-rule="evenodd" d="M14 1.25a8.75 8.75 0 1 1 0 17.5 8.75 8.75 0 0 1 0-17.5m0 1.5a7.25 7.25 0 1 0 0 14.5 7.25 7.25 0 0 0 0-14.5M3.735 11.4a6.429 6.429 0 0 0 8.865 8.865l.8 1.27A7.929 7.929 0 0 1 2.466 10.6zM14.75 4.75v1h.75c1.347 0 2.25 1.232 2.25 2.5 0 .645-.234 1.281-.641 1.75.407.469.641 1.105.641 1.75 0 1.268-.903 2.5-2.25 2.5h-.75v1h-1.5v-1h-2v-8.5h2v-1zm.75 6h-2.75v2h2.75c.31 0 .75-.335.75-1s-.44-1-.75-1m0-3.5h-2.75v2h2.75c.31 0 .75-.335.75-1s-.44-1-.75-1" clip-rule="evenodd"/></svg>