<svg xmlns="http://www.w3.org/2000/svg" fill="none" viewBox="0 0 24 24"><path fill="currentColor" fill-rule="evenodd" d="M10.564 8.3 8.52 2.166l-.625.096c-2.58.394-5.204 1.25-6.247 1.8l-.4.212v17.478l15.721-.05h5.783v-11.12l-.382-.215c-.813-.457-1.93-.823-2.9-1.09a30 30 0 0 0-2.305-.53l-.864-.159-.063 2.614-2.543-.166-1.171-2.86zm4.516 6.1-.75-1.82 3.37.22.058-2.4c.384.085.84.194 1.315.324.776.213 1.565.47 2.18.756v4.376c-2.022-.794-4.12-1.248-6.173-1.456m.654 1.587c1.865.251 3.737.725 5.518 1.49v2.726h-3.78zm-1.692-.17 1.809 4.389-3.083.01v-2.217h-1.5v2.221l-2.499.008v-2.229h-1.5v2.234l-4.521.014v-2.769c2.454-1.032 6.726-1.963 11.294-1.66m-8.772-.722c-.934.23-1.782.492-2.522.77v-4.4c.895-.358 2.156-.734 3.444-1.037 1.52-.358 2.981-.59 3.843-.59h.024l1.485-.096.94 2.296v.001l.925 2.243a29 29 0 0 0-2.64.017V12h-1.5v2.414c-.87.087-1.706.21-2.499.358V13h-1.5zm.578-6.127a30 30 0 0 0-3.1.895V5.2c.971-.418 2.812-1 4.751-1.353l1.516 4.551c-.935.1-2.065.31-3.167.569" clip-rule="evenodd"/></svg>