<svg xmlns="http://www.w3.org/2000/svg" fill="none" viewBox="0 0 24 24"><path fill="currentColor" fill-rule="evenodd" d="M17.5 1.25c-1.512 0-2.754 1.06-3.117 2.464-1.248.385-2.133 1.577-2.133 2.953 0 1.677 1.318 3.083 3 3.083h4.725c1.558 0 2.775-1.302 2.775-2.85 0-1.312-.875-2.448-2.09-2.763a4.5 4.5 0 0 0-.308-1.04 3.15 3.15 0 0 0-.97-1.258c-.486-.367-1.112-.589-1.882-.589m1.722 3.477.003.064v.759h.75c.679 0 1.275.579 1.275 1.35s-.596 1.35-1.275 1.35H15.25c-.803 0-1.5-.683-1.5-1.583 0-.846.618-1.503 1.358-1.576l.622-.062.052-.623c.078-.95.84-1.656 1.718-1.656.467 0 .77.129.98.287.218.164.38.397.5.666a3 3 0 0 1 .242 1.024M2 2.25a.75.75 0 0 0-.75.75v15c0 .415.336.75.75.75h9.25v2.499H8v1.5h8v-1.5h-3.25V18.75H22a.75.75 0 0 0 .75-.75v-7h-1.5v6.25H2.75V3.75H11v-1.5zm8.5 13.5h3v-1.5h-3z" clip-rule="evenodd"/></svg>