<svg xmlns="http://www.w3.org/2000/svg" fill="none" viewBox="0 0 24 24"><path fill="currentColor" fill-rule="evenodd" d="M15 1.25a2.75 2.75 0 1 1-.226 5.49l-1.142 3.047a2.75 2.75 0 0 1 1.07 2.725l3.268 1.633a2.75 2.75 0 1 1-.082 3.615l-4.165 1.85q.027.192.027.39a2.75 2.75 0 1 1-3.165-2.719l.344-2.747a2.75 2.75 0 0 1 1.299-5.275l1.142-3.044a2.8 2.8 0 0 1-.6-.606L6.743 7.801Q6.75 7.9 6.75 8a2.75 2.75 0 1 1-.52-1.609l6.027-2.192A2.75 2.75 0 0 1 15 1.25m-4 17.5a1.25 1.25 0 1 0 0 2.5 1.25 1.25 0 0 0 0-2.5m3.032-4.897a2.75 2.75 0 0 1-1.615.866l-.343 2.748c.405.173.761.44 1.04.773l4.163-1.85a2.8 2.8 0 0 1 .02-.904zM20 14.75a1.25 1.25 0 1 0 0 2.5 1.25 1.25 0 0 0 0-2.5m-8-4a1.25 1.25 0 1 0 0 2.5 1.25 1.25 0 0 0 0-2.5m-8-4a1.25 1.25 0 1 0 0 2.5 1.25 1.25 0 0 0 0-2.5m11-4a1.25 1.25 0 1 0 0 2.5 1.25 1.25 0 0 0 0-2.5" clip-rule="evenodd"/></svg>