<svg xmlns="http://www.w3.org/2000/svg" fill="none" viewBox="0 0 24 24"><path fill="currentColor" fill-rule="evenodd" d="M5 1.25a.75.75 0 0 0-.75.75v3.25H2v1.5h2.25v4.5H2v1.5h2.25v4.5H2v1.5h2.25V22c0 .414.336.75.75.75h17a.75.75 0 0 0 .75-.75V2a.75.75 0 0 0-.75-.75zm.75 20V2.75h15.5v18.5zm7.75-14a1.25 1.25 0 1 0 0 2.5 1.25 1.25 0 0 0 0-2.5M10.75 8.5a2.75 2.75 0 1 1 5.5 0 2.75 2.75 0 0 1-5.5 0m2.75 4.25c-2.592 0-4.75 1.85-4.75 4.75 0 .414.336.75.75.75h8a.75.75 0 0 0 .75-.75c0-2.9-2.158-4.75-4.75-4.75m0 1.5c1.586 0 2.87.936 3.179 2.5H10.32c.31-1.564 1.593-2.5 3.179-2.5" clip-rule="evenodd"/></svg>