<svg xmlns="http://www.w3.org/2000/svg" fill="none" viewBox="0 0 24 24"><path fill="currentColor" fill-rule="evenodd" d="M1.25 3A.75.75 0 0 1 2 2.25h20a.75.75 0 0 1 .75.75v7h-1.5V8.75H2.75v9.5H10v1.5H2a.75.75 0 0 1-.75-.75zm20 .75v3.5H2.75v-3.5zm-3 9.016V11.25h-1.5v1.516l-1.258-.652-.69 1.332 1.948 1.01v1.294h-1.294l-1.01-1.949-1.332.69.652 1.259H12.25v1.5h1.516l-.652 1.258 1.332.69 1.01-1.948h1.294v1.294l-1.949 1.01.69 1.332 1.259-.652v1.516h1.5v-1.516l1.258.652.69-1.332-1.948-1.01V17.25h1.294l1.01 1.949 1.332-.69-.652-1.259h1.516v-1.5h-1.516l.652-1.258-1.332-.69-1.01 1.948H18.25v-1.294l1.949-1.01-.69-1.332z" clip-rule="evenodd"/></svg>