<svg xmlns="http://www.w3.org/2000/svg" fill="none" viewBox="0 0 24 24"><path fill="currentColor" fill-rule="evenodd" d="M8.33 11.498c1.36-1.48 2.538-3.883 2.806-7.705H4.754v9.745c.226-.39.507-.962.766-1.669.404-1.1.73-2.455.73-3.84h1.5c0 1.608-.375 3.141-.822 4.357q-.078.212-.16.416a7.5 7.5 0 0 0 1.563-1.304m3.653-3.744c-.587 2.058-1.493 3.61-2.547 4.758a9 9 0 0 1-2.215 1.765c.763 1.203 1.134 2.225 1.316 3.257.142.801.168 1.622.195 2.48q.014.466.035.95l.039.786H4.104a.85.85 0 0 1-.85-.85V3.793H2v-1.5h20v1.5h-1.288V20.9a.85.85 0 0 1-.85.85H15.16l.039-.787q.021-.483.035-.95c.027-.857.053-1.678.195-2.48.182-1.03.553-2.053 1.316-3.256a9 9 0 0 1-2.215-1.765c-1.054-1.149-1.96-2.7-2.547-4.758m7.23-3.961v9.687a11 11 0 0 1-.734-1.61c-.404-1.101-.73-2.456-.73-3.84h-1.5c0 1.607.376 3.14.822 4.356q.084.228.171.443a7.5 7.5 0 0 1-1.606-1.331c-1.36-1.48-2.538-3.883-2.805-7.705zm-.783 11.202-.002.002-.003-.003a8 8 0 0 1-.296-.096c-.75 1.138-1.07 2.028-1.223 2.897-.122.688-.143 1.352-.168 2.163l-.01.292h2.484v-5.063a8 8 0 0 1-.782-.192m-12.858.002.014-.017q.125-.039.25-.082c.752 1.138 1.07 2.028 1.224 2.897.122.688.143 1.352.168 2.163l.01.292H4.754v-5.063q.39-.074.807-.2z" clip-rule="evenodd"/></svg>