<svg xmlns="http://www.w3.org/2000/svg" fill="none" viewBox="0 0 24 24"><path fill="currentColor" fill-rule="evenodd" d="M19.464 1.25H4.537l-3.19 6.381A.75.75 0 0 0 1.25 8v14c0 .414.336.75.75.75h10v-1.5H2.75V8.75h18.5V10h1.5V8a.75.75 0 0 0-.079-.335zm1.323 6-2.25-4.5H12.75v4.5zm-9.537 0v-4.5H5.464l-2.25 4.5zM9 12.75h3v-1.5H9zm9 0c-1.788 0-3.25 1.466-3.25 3.29 0 1.033.386 1.83 1.247 2.593a20.4 20.4 0 0 1 2.012 2.108c.64-.78 1.464-1.638 1.994-2.108.861-.764 1.247-1.56 1.247-2.593 0-1.824-1.462-3.29-3.25-3.29m-4.75 3.29c0-2.638 2.12-4.79 4.75-4.79s4.75 2.152 4.75 4.79c0 1.52-.614 2.707-1.753 3.716-.672.596-1.878 1.903-2.37 2.654a.75.75 0 0 1-1.267-.02c-.455-.745-1.671-2.026-2.357-2.634-1.139-1.009-1.753-2.197-1.753-3.716M18 15a1 1 0 1 0 0 2h.009a1 1 0 1 0 0-2z" clip-rule="evenodd"/></svg>