<svg xmlns="http://www.w3.org/2000/svg" fill="none" viewBox="0 0 24 24"><path fill="currentColor" fill-rule="evenodd" d="M19.464 1.25H4.537l-3.19 6.381A.75.75 0 0 0 1.25 8v14c0 .414.336.75.75.75h9v-1.5H2.75V8.75h18.5V14h1.5V8a.75.75 0 0 0-.079-.335zm1.323 6-2.25-4.5H12.75v4.5zm-9.537 0v-4.5H5.464l-2.25 4.5zM9 12.75h6v-1.5H9zm7 5.75a1 1 0 0 1 1-1h.009a1 1 0 1 1 0 2H17a1 1 0 0 1-1-1m6.598-.455.033.05.259.405-.259.404-.003.005-.114.17a12 12 0 0 1-1.457 1.71c-.941.91-2.374 1.961-4.057 1.961s-3.117-1.051-4.057-1.96a12 12 0 0 1-1.542-1.835l-.033-.05-.259-.405.259-.404.033-.051q.03-.046.085-.124a12 12 0 0 1 1.457-1.71c.94-.91 2.373-1.961 4.057-1.961 1.683 0 3.116 1.051 4.057 1.96a12 12 0 0 1 1.541 1.835m-9.68.455.068.089c.237.308.58.716.999 1.122.869.84 1.936 1.539 3.014 1.539s2.145-.699 3.014-1.54a10.5 10.5 0 0 0 1.067-1.21l-.068-.089a10.5 10.5 0 0 0-.999-1.122c-.869-.84-1.936-1.539-3.014-1.539s-2.145.699-3.014 1.54a10.5 10.5 0 0 0-1.067 1.21" clip-rule="evenodd"/></svg>