<svg xmlns="http://www.w3.org/2000/svg" fill="none" viewBox="0 0 24 24"><path fill="currentColor" fill-rule="evenodd" d="M6.5 1.25a5.25 5.25 0 1 0 5.244 5.5h2.506v11.017c-.188.299-.33.63-.413.983h-3.674a3.251 3.251 0 0 0-6.325-.003l-1.088-.005V12h-1.5v8.235l2.586.012a3.251 3.251 0 0 0 6.327.003h3.674a3.251 3.251 0 0 0 6.326 0h2.587V15a7.25 7.25 0 0 0-7-7.246V5.25H11.6a5.25 5.25 0 0 0-5.1-4M2.75 6.5a3.75 3.75 0 1 1 7.5 0 3.75 3.75 0 0 1-7.5 0M7.25 4v2.56l1.18.826-.86 1.228L5.75 7.34V4zm14 14.75h-1.087a3.25 3.25 0 0 0-4.413-2.25V9.254A5.75 5.75 0 0 1 21.25 15zm-16 .75a1.75 1.75 0 1 1 3.5 0 1.75 1.75 0 0 1-3.5 0m10 0a1.75 1.75 0 1 1 3.5 0 1.75 1.75 0 0 1-3.5 0" clip-rule="evenodd"/></svg>