<svg xmlns="http://www.w3.org/2000/svg" fill="none" viewBox="0 0 24 24"><path fill="currentColor" fill-rule="evenodd" d="m2.022 4.75 12.497.021v10.95a3.3 3.3 0 0 0-.508 1.53H10.66c-.123-1.658-1.468-3.001-3.157-3.001-1.683 0-3.024 1.333-3.155 2.983H3.5V12.82H2v5.913h2.573c.47 1.175 1.592 2.017 2.93 2.017 1.33 0 2.448-.834 2.922-1.999h3.82c.475 1.165 1.592 1.999 2.923 1.999 1.334 0 2.453-.837 2.925-2.005h2.678v-7.686L19.539 5.84h-3.52V3.274L2.025 3.25zm18.303 12.495h.946v-5.76L18.704 7.34h-2.685v7.13c.355-.142.742-.22 1.15-.22 1.686 0 3.03 1.34 3.156 2.995M1.92 6.25h7.3v1.5h-7.3zm0 3h5.366v1.5H1.92zm3.916 8.25c0-.99.77-1.75 1.666-1.75.897 0 1.667.76 1.667 1.75s-.77 1.75-1.667 1.75c-.896 0-1.666-.76-1.666-1.75m9.666 0c0-.99.77-1.75 1.666-1.75.897 0 1.667.76 1.667 1.75s-.77 1.75-1.667 1.75c-.896 0-1.666-.76-1.666-1.75" clip-rule="evenodd"/></svg>