<svg xmlns="http://www.w3.org/2000/svg" fill="none" viewBox="0 0 24 24"><path fill="currentColor" fill-rule="evenodd" d="M1.25 3.25h21.5V10c0 5.937-4.813 10.75-10.75 10.75S1.25 15.937 1.25 10zm1.5 5.5V10q0 .381.03.755a7.75 7.75 0 0 1 7.47 7.745v.585a9.3 9.3 0 0 0 3.5 0V18.5a7.75 7.75 0 0 1 7.47-7.745q.03-.373.03-.755V8.75H17v-1.5h4.25v-2.5H2.75v2.5H7v1.5zm6 9.913V18.5a6.25 6.25 0 0 0-5.719-6.228 9.27 9.27 0 0 0 5.719 6.39m12.219-6.39a9.27 9.27 0 0 1-5.719 6.39V18.5a6.25 6.25 0 0 1 5.719-6.228" clip-rule="evenodd"/></svg>