<svg xmlns="http://www.w3.org/2000/svg" fill="none" viewBox="0 0 24 24"><path fill="currentColor" fill-rule="evenodd" d="M12 22.751c-5.928 0-10.75-4.822-10.75-10.75S6.072 1.251 12 1.251s10.75 4.822 10.75 10.75-4.822 10.75-10.75 10.75m0-20c-5.1 0-9.25 4.15-9.25 9.25s4.15 9.25 9.25 9.25 9.25-4.15 9.25-9.25-4.15-9.25-9.25-9.25m4.258 5.76-.49-.57-1.135.98.49.57 1.47 1.7c.333.39.096 1.06-.545 1.06H14.25v1.5h1.798c1.818 0 2.922-2.1 1.681-3.54zM8.25 7.251h1.5v6.5h-1.5zm2.75 11H7.5v-1.5h.827a2 2 0 0 1-.019-.274c-.001-.552.227-1.073.661-1.507.86-.856 1.993-.424 2.471-.076l-.882 1.213s-.361-.244-.53-.075c-.221.22-.221.387-.221.44 0 .098.03.194.07.278h1.121v1.5zm0-6.24v2h2V12z" clip-rule="evenodd"/></svg>