<svg xmlns="http://www.w3.org/2000/svg" fill="none" viewBox="0 0 24 24"><path fill="currentColor" fill-rule="evenodd" d="M4.75 18.2a3.7 3.7 0 0 1 .53-.67c.419-.418.99-.78 1.72-.78h1.625L12 21.25l3.375-4.5H17c.73 0 1.301.362 1.72.78a3.8 3.8 0 0 1 .53.67v4.55h1.5v-4.927l-.08-.158-.02-.04.02.04v-.002l-.002-.004-.005-.009-.013-.025-.046-.083a5.3 5.3 0 0 0-.824-1.072c-.581-.582-1.51-1.22-2.78-1.22h-2.375L12 18.75l-2.625-3.5H7c-1.27 0-2.199.638-2.78 1.22a5.3 5.3 0 0 0-.87 1.155l-.014.025-.004.009-.002.003v.003l-.08.158v4.927h1.5zm13-16.95v1.322l-1.062 5.5v1.927c0 2.612-2.088 4.75-4.688 4.75S7.313 12.611 7.313 10V8.071l-1.063-5.5V1.25zm-8.937 7.5V10c0 1.805 1.438 3.25 3.187 3.25 1.75 0 3.188-1.445 3.188-3.25V8.75zm6.506-1.5.869-4.5H7.812l.87 4.5zm-2.57-3v-1h-1.5v1h-.999v1.5h1v1h1.5v-1h1v-1.5z" clip-rule="evenodd"/></svg>