<svg xmlns="http://www.w3.org/2000/svg" fill="none" viewBox="0 0 24 24"><path fill="currentColor" fill-rule="evenodd" d="M10.22 1.251h-.027C7.556 1.307 5.57 3.283 5.486 5.92v.024c0 1.88.988 3.55 2.67 4.32v2.806l-.629-.62-.015-.013c-.495-.436-1.076-.664-1.732-.572-.963.135-1.886.906-2.014 1.973-.039.33-.01.669.08 1.002.108.394.327.71.49.931l3.817 5.178v1.05h1.5v-1.543l-4.11-5.575c-.147-.2-.22-.327-.25-.437a1.1 1.1 0 0 1-.037-.428c.035-.29.337-.61.732-.665.137-.02.29.003.518.199l3.15 3.098v-10.3c0-.355.263-.596.55-.596.328 0 .605.282.605.595v7.148h1.5v-2.397l.66.026c.24.01.472.204.472.538l.02 2.305 1.5-.012-.017-1.945h.585a.55.55 0 0 1 .553.543l.021 1.863 1.5-.017-.012-1.023.62.013a.55.55 0 0 1 .54.55v2.094c0 1.047-.037 1.694-.202 2.269a1 1 0 0 1-.105.243c-.248.427-.543.785-.931 1.254q-.17.203-.361.44l-.168.207v1.55h1.5v-1.017l.141-.17c.403-.486.8-.966 1.117-1.51q.158-.272.248-.582c.23-.8.261-1.637.261-2.684v-2.094a2.05 2.05 0 0 0-2.007-2.05l-.78-.017a2.05 2.05 0 0 0-1.934-1.362h-.93a2 2 0 0 0-1.346-.863c.872-.713 1.51-1.742 1.687-2.897h2.225l-1.244 1.267 1.07 1.05 3.018-3.072-3.019-3.016-1.06 1.061 1.211 1.21h-2.222c-.393-2.363-2.31-3.962-4.7-3.998m2.09 7.232c.743-.61 1.222-1.543 1.18-2.51-.083-1.909-1.46-3.188-3.278-3.222-1.826.045-3.162 1.372-3.228 3.204.004 1.065.44 1.978 1.172 2.56V6.347c0-1.114.867-2.095 2.05-2.095 1.143 0 2.104.94 2.104 2.095z" clip-rule="evenodd"/></svg>