<svg xmlns="http://www.w3.org/2000/svg" fill="none" viewBox="0 0 24 24"><path fill="currentColor" fill-rule="evenodd" d="m15.85 1.335-.406-.21-3.459 2.452-3.41-2.41-.387.17c-1.328.579-2.859 1.63-4.146 2.907C2.762 5.513 1.648 7.08 1.27 8.72l-.028.118.012.122c.064.666.53 1.8 1.362 2.77.736.858 1.812 1.652 3.25 1.887l-.003.018c-.045.282-.15.646-.302 1.105q-.113.338-.246.72l-.003.007q-.132.379-.272.792c-.368 1.101-.749 2.403-.815 3.726l-.022.45.388.232c5.389 3.212 11.001 2.329 14.78-.028l.353-.22v-.417c0-.882-.216-1.833-.477-2.727a43 43 0 0 0-.584-1.795 61 61 0 0 1-.262-.775 12 12 0 0 1-.309-1.06c1.62-.315 2.68-1.118 3.378-2.009.649-.83.973-1.735 1.153-2.239q.044-.123.078-.211l.09-.236-.07-.242c-.36-1.24-1.583-4.638-6.87-7.374m2.115 10.805c1.151-.26 1.857-.831 2.323-1.427.487-.622.724-1.275.91-1.788l.011-.03c-.354-1.102-1.48-3.734-5.647-6.015l-3.576 2.534L8.41 2.888c-1.055.524-2.265 1.382-3.312 2.42-1.14 1.131-2.015 2.406-2.334 3.616.076.357.379 1.116.991 1.83.542.633 1.28 1.175 2.24 1.364a3 3 0 0 0-.052-.419c-.116-.597-.441-1.3-1.295-2.154l1.06-1.06c1.024 1.023 1.524 1.984 1.707 2.928.176.9.046 1.72-.06 2.39l-.006.039-.005.028c-.065.413-.204.876-.36 1.343q-.119.359-.253.74l-.001.005q-.133.379-.267.778c-.312.932-.596 1.91-.703 2.874 4.538 2.512 9.18 1.858 12.444-.02-.05-.569-.197-1.209-.397-1.892-.167-.572-.36-1.133-.549-1.687q-.144-.42-.282-.837c-.261-.793-.588-1.84-.518-3 .071-1.194.557-2.444 1.784-3.672l1.061 1.06c-.932.933-1.265 1.8-1.338 2.578" clip-rule="evenodd"/></svg>