<svg xmlns="http://www.w3.org/2000/svg" fill="none" viewBox="0 0 24 24"><path fill="currentColor" fill-rule="evenodd" d="M12 1.25C6.063 1.25 1.25 6.063 1.25 12S6.063 22.75 12 22.75a10.7 10.7 0 0 0 4.058-.792q.174.155.382.302c.68.486 1.6.608 2.4.377.83-.24 1.58-.88 1.815-1.936l.002-.006c.168-.79.103-1.501-.147-2.125A10.7 10.7 0 0 0 22.75 12c0-5.937-4.813-10.75-10.75-10.75m7.605 16.017A9.2 9.2 0 0 0 21.25 12 9.25 9.25 0 1 0 12 21.25a9.2 9.2 0 0 0 3.178-.56l-.014-.044c-.187-.569-.16-1.13-.134-1.579l.006-.104c.04-.67.075-1.26-.259-1.927A5.7 5.7 0 0 1 12 17.75a5.74 5.74 0 0 1-4.6-2.3l1.2-.9a4.24 4.24 0 0 0 3.4 1.7 4.23 4.23 0 0 0 2.568-.863 4.3 4.3 0 0 0 .832-.837l1.2.9-.134.172c.778.24 1.64.573 2.377 1.05.266.173.525.37.762.595M8.707 7.75c-.652 0-1.276.259-1.737.72l1.06 1.06c.18-.18.423-.28.677-.28H10v-1.5zM14 9.25h1.293c.254 0 .497.1.677.28l1.06-1.06a2.46 2.46 0 0 0-1.737-.72H14zm4.423 11.946c.369-.107.665-.363.767-.817.128-.603.04-1.058-.152-1.424-.2-.381-.545-.722-1.011-1.024-.478-.309-1.038-.55-1.6-.745.178.699.14 1.323.108 1.842l-.007.126c-.027.46-.027.758.061 1.026.078.238.25.523.721.859.274.195.711.273 1.113.157" clip-rule="evenodd"/></svg>