<svg xmlns="http://www.w3.org/2000/svg" fill="none" viewBox="0 0 24 24"><path fill="currentColor" fill-rule="evenodd" d="M14.907 1.45a.85.85 0 0 1 1.2.003l1.365 1.37.362-.362a2.586 2.586 0 0 1 3.658 0 2.57 2.57 0 0 1 0 3.657l-.368.368 1.378 1.381v.001A.85.85 0 0 1 22.5 9.07l-3.392 3.385a.85.85 0 0 1-1.203-.002l-1.352-1.356a6 6 0 0 1-.138.176c-.292.357-.752.833-1.346 1.111-.96.45-1.368.679-1.664.975-.297.297-.526.705-.975 1.664a2.8 2.8 0 0 1-.477.672 7 7 0 0 1-.56.545q-.147.13-.278.237l1.387 1.39v.001a.85.85 0 0 1-.002 1.202l-3.392 3.385a.85.85 0 0 1-1.203-.002l-1.372-1.376-.368.368a2.586 2.586 0 1 1-3.657-3.657l.373-.374-1.383-1.388a.85.85 0 0 1 .004-1.204l3.405-3.373a.85.85 0 0 1 1.2.004l1.377 1.381q.105-.127.232-.272c.16-.181.349-.381.544-.56.186-.169.42-.358.673-.477.895-.419 1.327-.674 1.646-.993s.573-.75.993-1.645c.255-.545.737-1.007 1.082-1.298q.117-.098.223-.18l-1.379-1.382a.85.85 0 0 1 .004-1.205zM8.548 13.901l1.503 1.508c.101-.082.223-.183.349-.294.159-.14.316-.29.445-.431.138-.152.206-.253.227-.298.433-.926.76-1.577 1.272-2.088.511-.512 1.162-.84 2.089-1.274.295-.138.585-.412.82-.7a4 4 0 0 0 .227-.304l-1.534-1.54a6 6 0 0 0-.325.255c-.313.264-.581.552-.69.787-.422.9-.77 1.548-1.292 2.07s-1.17.87-2.07 1.291a1.5 1.5 0 0 0-.298.227 6 6 0 0 0-.431.445c-.11.125-.21.246-.292.346M3.94 18.476l-.372.372a1.086 1.086 0 1 0 1.536 1.536l.37-.37zM20.065 5.423 18.53 3.885l.364-.364a1.086 1.086 0 0 1 1.536 0 1.07 1.07 0 0 1 0 1.536zm.916 3.044L15.502 2.97 13.02 5.429l5.488 5.505zM5.502 12.97l5.48 5.496-2.474 2.467-5.487-5.505z" clip-rule="evenodd"/></svg>