<svg xmlns="http://www.w3.org/2000/svg" fill="none" viewBox="0 0 24 24"><path fill="currentColor" fill-rule="evenodd" d="M10.674 2.228a.75.75 0 0 0-.864-.963A10.97 10.97 0 0 0 1.265 9.81l1.47.298a9.47 9.47 0 0 1 6.087-7.015l-.536 1.679 1.428.456zM22.735 9.81a10.97 10.97 0 0 0-8.545-8.545l-.298 1.47a9.47 9.47 0 0 1 7.015 6.087l-1.679-.536-.456 1.428 3 .96a.75.75 0 0 0 .963-.864M2.228 13.326a.75.75 0 0 0-.963.864 10.97 10.97 0 0 0 8.545 8.545l.298-1.47a9.47 9.47 0 0 1-7.015-6.087l1.679.536.456-1.428zm11.962 9.409a10.97 10.97 0 0 0 8.545-8.545l-1.47-.298a9.47 9.47 0 0 1-6.087 7.015l.536-1.679-1.428-.456-.96 3a.75.75 0 0 0 .864.963m2.05-15.288.006-.767-.767.01c-1.88.027-4.164.477-5.732 1.635-.8.591-1.44 1.388-1.702 2.422-.262 1.031-.126 2.205.448 3.507l.004.01a12.6 12.6 0 0 0-.688 2.091l1.458.35c.151-.63.334-1.189.54-1.685q1.445.492 2.627.235c1.055-.229 1.835-.878 2.39-1.71 1.074-1.61 1.396-4.028 1.415-6.098m-3.81 4.203a6.9 6.9 0 0 0-1.927 2.018c.667.198 1.196.212 1.613.122.592-.129 1.07-.491 1.46-1.077.71-1.065 1.05-2.742 1.14-4.485-1.505.123-3.049.543-4.077 1.304-.589.434-.981.958-1.14 1.584-.097.381-.116.834-.01 1.373a8.4 8.4 0 0 1 2.086-2.073z" clip-rule="evenodd"/></svg>