<svg xmlns="http://www.w3.org/2000/svg" fill="none" viewBox="0 0 24 24"><path fill="currentColor" fill-rule="evenodd" d="M9.5 11.162c-2.481 0-4.5-1.999-4.5-4.456S7.019 2.25 9.5 2.25 14 4.249 14 6.706s-2.019 4.456-4.5 4.456m0-7.412c-1.654 0-3 1.326-3 2.956s1.346 2.956 3 2.956 3-1.326 3-2.956-1.346-2.956-3-2.956M1.25 21.748v-.75c0-4.501 3.701-8.162 8.25-8.162s8.25 3.66 8.25 8.162v.75zm1.542-1.5h13.415c-.379-3.322-3.242-5.912-6.708-5.912s-6.329 2.59-6.708 5.912zm12.458-7.5h2.94l4.56-4.55v-.631l-2.224-2.233-.554-.162-.602.452v.066l-4.12 4.14zm2.32-1.5h-.82v-.797l3.375-3.393.82.823z" clip-rule="evenodd"/></svg>