<svg xmlns="http://www.w3.org/2000/svg" fill="none" viewBox="0 0 24 24"><path fill="currentColor" fill-rule="evenodd" d="M1.25 12c0 5.928 4.822 10.75 10.75 10.75S22.75 17.928 22.75 12 17.928 1.25 12 1.25 1.25 6.072 1.25 12m1.5 0c0-5.1 4.15-9.25 9.25-9.25S21.25 6.9 21.25 12 17.1 21.25 12 21.25 2.75 17.1 2.75 12m8.008 6.71q.12.041.241.04c.23 0 .45-.104.595-.292l5-6.5A.752.752 0 0 0 16 10.75h-2.25V6a.75.75 0 0 0-1.344-.457l-5 6.5A.752.752 0 0 0 8 13.25h2.25V18a.75.75 0 0 0 .508.71M11 11.75H9.522l2.727-3.544V11.5c0 .414.336.75.75.75h1.477l-2.727 3.545V12.5a.75.75 0 0 0-.75-.75" clip-rule="evenodd"/></svg>