<svg xmlns="http://www.w3.org/2000/svg" fill="none" viewBox="0 0 24 24"><path fill="currentColor" fill-rule="evenodd" d="M18.517 1.578a.75.75 0 0 0-.727-.32c-6.332.91-10.09 6.092-11.27 10.93a10.2 10.2 0 0 1-.487-4.163.75.75 0 0 0-1.287-.588c-2.92 3.027-3.055 6.887-1.556 9.95 1.486 3.038 4.613 5.363 8.295 5.363 4.619 0 8.096-2.86 9.533-6.938 1.432-4.066.841-9.313-2.502-14.234M5.252 13.092c.239.626.49 1.12.686 1.461.173.334.647.966 1.164.826a.75.75 0 0 0 .537-.67c.314-4.79 3.705-10.739 9.9-11.89 2.875 4.456 3.282 9.038 2.065 12.494-1.25 3.547-4.205 5.937-8.118 5.937-3.03 0-5.677-1.925-6.948-4.522-.984-2.012-1.125-4.385.022-6.526.122 1.141.398 2.118.692 2.89" clip-rule="evenodd"/></svg>