<svg xmlns="http://www.w3.org/2000/svg" fill="none" viewBox="0 0 24 24"><path fill="currentColor" fill-rule="evenodd" d="m11.999 3.748-.045-.036a7 7 0 0 0-1.592-.952c-1.385-.594-3.344-.873-5.576.324C2.004 4.576.638 8.148 1.512 11.828c.884 3.721 4.025 7.553 10.224 9.874l.263.099.263-.099c6.199-2.32 9.34-6.153 10.223-9.875.874-3.679-.491-7.25-3.274-8.743-2.232-1.197-4.19-.918-5.576-.324a7 7 0 0 0-1.592.952zm-2.228.39c-1.045-.448-2.516-.676-4.276.268-2.052 1.1-3.277 3.902-2.523 7.075.732 3.084 3.367 6.524 9.027 8.716 5.66-2.192 8.295-5.632 9.027-8.716.754-3.173-.472-5.975-2.524-7.075-1.76-.944-3.23-.716-4.275-.267a5.6 5.6 0 0 0-1.58 1.032q-.054.051-.077.077l-.016.016-.002.002-.553.61-.553-.61-.002-.002-.016-.016-.078-.077a5.6 5.6 0 0 0-1.58-1.033" clip-rule="evenodd"/></svg>