<svg xmlns="http://www.w3.org/2000/svg" fill="none" viewBox="0 0 24 24"><path fill="currentColor" fill-rule="evenodd" d="M12 1.25a2.75 2.75 0 0 1 2.22 4.374c.834.29 1.594.74 2.243 1.312A2.752 2.752 0 0 1 21.75 8a2.75 2.75 0 0 1-3.12 2.725 6.8 6.8 0 0 1 0 2.55q.181-.026.37-.026a2.75 2.75 0 1 1-2.537 3.815 6.8 6.8 0 0 1-1.41.957l1.632 3.674-1.371.61-1.669-3.758a6.76 6.76 0 0 1-3.29 0l-1.67 3.758-1.371-.61 1.633-3.674a6.8 6.8 0 0 1-1.41-.957 2.752 2.752 0 0 1-5.287-1.065 2.75 2.75 0 0 1 3.12-2.725 6.8 6.8 0 0 1 .055-2.807 2.75 2.75 0 1 1 2.183-3.592A6.7 6.7 0 0 1 9.78 5.624 2.75 2.75 0 0 1 12 1.25m-7 13.5a1.25 1.25 0 1 0 0 2.5 1.25 1.25 0 0 0 0-2.5m14 0a1.25 1.25 0 1 0 0 2.5 1.25 1.25 0 0 0 0-2.5m-7 .097-1.024 2.303a5.2 5.2 0 0 0 2.048 0zm0-8.097a5.25 5.25 0 0 0-2.442 9.898L12 11.153l2.442 5.495A5.25 5.25 0 0 0 12 6.75m7 0a1.25 1.25 0 1 0 0 2.5 1.25 1.25 0 0 0 0-2.5M5 6.5A1.25 1.25 0 1 0 5 9a1.25 1.25 0 0 0 0-2.5m7-3.75a1.25 1.25 0 1 0 0 2.5 1.25 1.25 0 0 0 0-2.5" clip-rule="evenodd"/></svg>