<svg xmlns="http://www.w3.org/2000/svg" fill="none" viewBox="0 0 24 24"><path fill="currentColor" fill-rule="evenodd" d="M3.76 14.695c0 4.55 3.7 8.25 8.25 8.25l-.02-.01c4.55 0 8.25-3.7 8.25-8.25 0-1.06 0-3.26-2.16-5.97l-1.25-1.56-.08 2.01c-.01.4-.18 1.33-.59 1.65-.09.08-.25.16-.57.09-.68-.14-.79-.65-.84-2.46V8.44c-.06-2.24-.143-5.307-3.95-6.936l-1.04-.45v1.14c0 2.11-1.21 3.52-2.61 5.15-1.59 1.84-3.39 3.94-3.39 7.35m4.53-6.38c1.23-1.43 2.5-2.91 2.87-4.94 1.998 1.289 2.05 3.217 2.1 5.096v.004c.04 1.63.09 3.48 2.03 3.89.87.18 1.46-.11 1.81-.38.34-.26.58-.61.75-.98.92 1.64.92 2.92.92 3.68 0 3.72-3.03 6.75-6.75 6.75s-6.75-3.03-6.75-6.75c0-2.844 1.463-4.552 3.01-6.358zm-.53 6.876c0 2.75 1.79 4.75 4.25 4.75 2.34 0 4.25-2.35 4.25-5.25v-1.08l-1.01.38c-.88.33-1.6.33-2.15-.02-.85-.53-1.25-1.82-1.34-2.84l-.09-.99-.93.35c-1.79.68-2.98 3.28-2.98 4.7m1.5 0c0-.7.52-1.94 1.22-2.71.24.93.76 2.1 1.81 2.76q1.035.645 2.37.45c-.32 1.58-1.39 2.75-2.65 2.75-1.64 0-2.75-1.31-2.75-3.25" clip-rule="evenodd"/></svg>