<svg xmlns="http://www.w3.org/2000/svg" fill="none" viewBox="0 0 24 24"><path fill="currentColor" fill-rule="evenodd" d="M3.25 13.64c0 4.82 3.92 8.75 8.75 8.75s8.75-3.93 8.75-8.75c0-3.29-1.78-7.38-4.23-9.71l-.61-.58-1.92 2.55-3.34-4.29-.59.42C6.68 4.45 3.25 9.21 3.25 13.64m1.5 0c0-3.22 2.37-7.39 5.61-9.96l3.65 4.69 2.06-2.74c1.85 2.11 3.18 5.4 3.18 8.01 0 4-3.25 7.25-7.25 7.25s-7.25-3.25-7.25-7.25m2.5.5c0 2.898 2.127 5.247 4.745 5.25h-.005.01-.005c2.618-.003 4.745-2.352 4.745-5.25 0-.88-.2-1.75-.58-2.51l-.42-.85-2.12 1.78-3.04-4.06-.61.61c-.81.81-2.72 2.72-2.72 5.03m3.179-3.338c-.9.99-1.679 2.119-1.679 3.338 0 2.07 1.46 3.75 3.25 3.75s3.25-1.68 3.25-3.75c0-.31-.03-.61-.1-.91l-1.78 1.49z" clip-rule="evenodd"/></svg>