<svg xmlns="http://www.w3.org/2000/svg" fill="none" viewBox="0 0 24 24"><path fill="currentColor" fill-rule="evenodd" d="M4.759 13.203V4.808c1.305-.847 4.015-1.816 7.009-.116l.027.016.03.013c2.892 1.334 5.498 1.074 7.42.425v8.468c-1.955.776-4.812.95-7.244-.36-2.533-1.364-5.264-1.184-7.242-.05m-1.2-9.386a8.16 8.16 0 0 1 8.921-.445c2.948 1.348 5.519.766 7.2-.012l1.065-.493V14.58l-.428.204c-2.3 1.094-5.92 1.466-9.027-.208-2.461-1.325-5.047-.833-6.54.464V21h-1.5v-7h.009V4.423c0-.224.1-.454.3-.606" clip-rule="evenodd"/></svg>