<svg xmlns="http://www.w3.org/2000/svg" fill="none" viewBox="0 0 24 24"><path fill="currentColor" fill-rule="evenodd" d="M18.803 1.277a.75.75 0 0 1 .915.508l1.5 5a.75.75 0 0 1-.541.944L10.276 10.25H21.5a.75.75 0 0 1 .75.75v11a.75.75 0 0 1-.75.75H4a.75.75 0 0 1-.75-.75V11.127l-1.462-4.39a.75.75 0 0 1 .515-.96zM3.462 7.015l1.03 3.094 2.851-.691.663-3.642zM9.61 5.34l-.672 3.69 4.397-1.066.697-3.832zm9.944 1.119-4.624 1.12.706-3.883 2.856-.779zM4.75 11.75v9.5h16v-9.5zm3.25 7h4v-1.5H8z" clip-rule="evenodd"/></svg>