<svg xmlns="http://www.w3.org/2000/svg" fill="none" viewBox="0 0 24 24"><path fill="currentColor" fill-rule="evenodd" d="M8 1.25a.75.75 0 0 0-.75.75v1.25H4.002a.75.75 0 0 0-.75.75v8c0 .414.336.75.75.75h4.687l2.561 2.56v1.94H8a.75.75 0 0 0-.75.75v4c0 .414.336.75.75.75h8a.75.75 0 0 0 .75-.75v-1.25H20a.75.75 0 0 0 .75-.75v-8a.75.75 0 0 0-.75-.75h-4.69l-2.56-2.56V6.75H16a.75.75 0 0 0 .75-.75V2a.75.75 0 0 0-.75-.75zm3.25 5.5H8A.75.75 0 0 1 7.25 6V4.75H4.752v6.5h3.937l2.561-2.56zm1.5 10.5H16a.75.75 0 0 1 .75.75v1.25h2.5v-6.5h-3.94l-2.56 2.56zm2.5-12h-6.5v-2.5h6.5zm-6.5 16v-2.5h6.5v2.5zM10.06 12 12 13.94 13.94 12 12 10.06z" clip-rule="evenodd"/></svg>