<svg xmlns="http://www.w3.org/2000/svg" fill="none" viewBox="0 0 24 24"><path fill="currentColor" fill-rule="evenodd" d="m11.81 6 1.22 1.219-1.06 1.06-2.5-2.5a.75.75 0 0 1 0-1.06l2.5-2.5 1.06 1.06-1.22 1.22H19a.75.75 0 0 1 .75.75v10.855a2.751 2.751 0 1 1-1.5 0V5.999zm-5.56-.75a1.25 1.25 0 1 1-2.5 0 1.25 1.25 0 0 1 2.5 0m-.5 2.646a2.751 2.751 0 1 0-1.5 0V18.75c0 .414.336.75.75.75h7.19l-1.22 1.22 1.06 1.06 2.5-2.5a.75.75 0 0 0 0-1.06l-2.5-2.5-1.06 1.06L12.19 18H5.75zm12 10.854a1.25 1.25 0 1 1 2.5 0 1.25 1.25 0 0 1-2.5 0" clip-rule="evenodd"/></svg>