<svg xmlns="http://www.w3.org/2000/svg" fill="none" viewBox="0 0 24 24"><path fill="currentColor" fill-rule="evenodd" d="M4 14.75h2.807l2.332 1.282a.75.75 0 0 0 .361.093h1c.813 0 1.36.442 1.605.883L10 17.709l-2.763-.92-.474 1.422 3 1a.74.74 0 0 0 .474 0l3-1a.75.75 0 0 0 .512-.67l3.699-1.233a1.25 1.25 0 0 1 1.555.721l.044.109-8.123 4.061-6.72-1.9-.408 1.443 7 1.98a.75.75 0 0 0 .539-.051l9-4.5a.75.75 0 0 0 .36-.95l-.299-.749a2.75 2.75 0 0 0-3.423-1.587l-3.658 1.22c-.55-.847-1.576-1.48-2.815-1.48h-.807l-2.331-1.282A.75.75 0 0 0 7 13.25H4zm9.4-13.386L13 2zm-.795 0L13 2zm0 0L13 1.116l.398.248.002.001.003.003.012.007.04.026.14.093a13 13 0 0 1 1.944 1.64c1.04 1.073 2.211 2.692 2.211 4.616 0 2.718-2.085 5-4.75 5s-4.75-2.282-4.75-5c0-1.924 1.171-3.543 2.212-4.616a13 13 0 0 1 2.083-1.733l.04-.026.012-.007.003-.003zm.226 1.674q.09-.069.171-.127l.171.127c.354.27.823.659 1.29 1.14.96.99 1.789 2.246 1.789 3.572 0 1.976-1.497 3.5-3.25 3.5s-3.25-1.524-3.25-3.5c0-1.326.829-2.582 1.788-3.572a11.6 11.6 0 0 1 1.29-1.14" clip-rule="evenodd"/></svg>