<svg xmlns="http://www.w3.org/2000/svg" fill="none" viewBox="0 0 24 24"><path fill="currentColor" d="M4.001 14.75h2.807l2.332 1.282a.75.75 0 0 0 .361.093h1c.813 0 1.36.442 1.605.883L10 17.709l-2.763-.92-.474 1.422 3 1a.74.74 0 0 0 .474 0l3-1a.75.75 0 0 0 .512-.67l3.698-1.233a1.25 1.25 0 0 1 1.556.721l.044.109-8.123 4.061-6.72-1.9-.408 1.443 7 1.98a.75.75 0 0 0 .539-.051l9-4.5a.75.75 0 0 0 .36-.95l-.299-.749a2.75 2.75 0 0 0-3.423-1.587l-3.658 1.22c-.55-.847-1.577-1.48-2.815-1.48h-.807l-2.332-1.282A.75.75 0 0 0 7 13.25H4z"/><path fill="currentColor" fill-rule="evenodd" d="m12.4 2.374.018.032 1.24 2.142 2.195.543.015.004.018.005h.001a.8.8 0 0 1 .281.121.763.763 0 0 1 .092 1.188l-1.501 1.59.59 2.565a.8.8 0 0 1-.08.574.765.765 0 0 1-.856.364 1 1 0 0 1-.22-.089l-.02-.01-2.413-1.01-2.464 1.022-.009.003-.029.012-.022.009-.014.006-.054.021a.77.77 0 0 1-.544.006.76.76 0 0 1-.502-.69 1 1 0 0 1 .02-.24l.587-2.548-1.459-1.56a.8.8 0 0 1-.24-.382.77.77 0 0 1 .142-.701.8.8 0 0 1 .427-.272l.011-.003 2.237-.55L11.08 2.41l.018-.033c.01-.016.045-.078.107-.143a.752.752 0 0 1 1.195.14M10.823 5.83l.925-1.588.93 1.608 1.659.41-1.22 1.293.454 1.971-1.808-.756-1.85.766.456-1.983-1.223-1.309z" clip-rule="evenodd"/></svg>