<svg xmlns="http://www.w3.org/2000/svg" fill="none" viewBox="0 0 24 24"><path fill="currentColor" fill-rule="evenodd" d="M6.25 7a5.75 5.75 0 1 1 11.5 0 5.75 5.75 0 0 1-11.5 0m3.578-3.654A4.25 4.25 0 0 0 7.75 7a4.25 4.25 0 0 0 2.078 3.654C9.46 9.66 9.25 8.376 9.25 7s.21-2.66.578-3.654m4.344 0A4.25 4.25 0 0 1 16.25 7a4.25 4.25 0 0 1-2.078 3.654c.368-.994.578-2.278.578-3.654s-.21-2.66-.578-3.654m-2.406-.438c.15-.158.23-.158.234-.158s.084 0 .234.158c.152.161.324.435.484.835.318.796.532 1.947.532 3.257s-.214 2.46-.532 3.257c-.16.4-.332.674-.484.835-.148.155-.227.158-.234.158s-.086-.003-.234-.158c-.152-.161-.324-.435-.484-.835-.318-.796-.532-1.947-.532-3.257s.214-2.46.532-3.257c.16-.4.332-.674.484-.835m-.516 18.067V14.5h1.5V21l8.5-2.58V5.03l-1.969.531-.39-1.448 2.897-.781a.76.76 0 0 1 .962.732v15.467L12.051 22.78 1.25 19.552V4.011a.76.76 0 0 1 .965-.732l3.063.835-.395 1.447L2.75 4.98v13.456z" clip-rule="evenodd"/></svg>