<svg xmlns="http://www.w3.org/2000/svg" fill="none" viewBox="0 0 24 24"><path fill="currentColor" fill-rule="evenodd" d="M8.3 21.693h10.545l.001-.001c.41 0 .761-.292.838-.702L21.72 9.427l.008-.055c.123-1.234-.345-3.274-1.665-4.837-1.167-1.382-2.809-2.183-4.748-2.316-2.274-.156-4.228.464-5.652 1.793C8.07 5.5 7.501 7.487 7.501 8.85v2.829c-.563-.71-1.064-1.13-1.813-1.283-.929-.19-1.903.087-2.544.724a3.07 3.07 0 0 0-.884 1.887c-.12 1.169.86 2.4 1.723 3.487l.002.003c.277.347.538.674.677.905l.02.03 2.933 3.913a.85.85 0 0 0 .685.347m10-1.5H8.623L5.921 16.59c-.187-.3-.453-.634-.758-1.019l-.009-.011-.003-.004c-.547-.688-1.46-1.836-1.402-2.395.05-.487.274-.801.451-.978.284-.282.75-.406 1.185-.317.498.102.845.57 1.776 1.907l.017.024q.211.304.458.655L9 16.383V8.852c0-1.001.442-2.582 1.686-3.743 1.128-1.053 2.65-1.522 4.525-1.393 1.546.107 2.793.708 3.705 1.788 1.097 1.299 1.39 2.908 1.321 3.694L19 16.218h-7.027v1.5h6.763z" clip-rule="evenodd"/></svg>