<svg xmlns="http://www.w3.org/2000/svg" fill="none" viewBox="0 0 24 24"><path fill="currentColor" fill-rule="evenodd" d="M11.25 2v2h1.5V2zM6.968 4.03l1.5 1.5 1.06-1.06-1.5-1.5zm9-1.06-1.5 1.5 1.06 1.06 1.5-1.5zm-7.18 4.293A.75.75 0 0 1 9.5 6.75h5a.75.75 0 0 1 .711.513l2 6a.75.75 0 0 1-.711.987h-9a.75.75 0 0 1-.712-.987zm1.252.987-1.5 4.5h6.918l-1.5-4.5zm-6.04 7a.75.75 0 0 0-.712.513l-2 6A.75.75 0 0 0 2 22.75h9a.75.75 0 0 0 .711-.987l-2-6A.75.75 0 0 0 9 15.25zm-.96 6 1.5-4.5h3.92l1.5 4.5zm11.96-6a.75.75 0 0 0-.711.513l-2 6a.75.75 0 0 0 .711.987h9a.75.75 0 0 0 .712-.987l-2-6A.75.75 0 0 0 20 15.25zm-.96 6 1.5-4.5h3.92l1.5 4.5z" clip-rule="evenodd"/></svg>