<svg xmlns="http://www.w3.org/2000/svg" fill="none" viewBox="0 0 24 24"><path fill="currentColor" fill-rule="evenodd" d="M12.363 1.345a.75.75 0 0 0-.73 0L1.63 6.918a.75.75 0 0 0-.106 1.238L4.25 10.36v4.89c0 3.016 2.024 4.903 3.87 5.99.931.55 1.857.92 2.545 1.154a14 14 0 0 0 1.15.333l.019.004.005.002h.003l.158.034.159-.034h.002l.005-.002.02-.004a6 6 0 0 0 .309-.077c.205-.055.494-.139.84-.256a14 14 0 0 0 2.546-1.154c1.845-1.087 3.869-2.974 3.869-5.99v-4.894l2.72-2.2a.75.75 0 0 0-.107-1.238zm6.37 7.905 1.93-1.562-8.665-4.83-8.667 4.83L5.263 9.25zm-12.983 5h12.5v1c0 2.234-1.476 3.722-3.13 4.698a12.4 12.4 0 0 1-2.267 1.025 12 12 0 0 1-.853.256l-.107-.028a12 12 0 0 1-.746-.228 12.4 12.4 0 0 1-2.266-1.025c-1.655-.976-3.131-2.464-3.131-4.698zm0-3.5v2h12.5v-2z" clip-rule="evenodd"/></svg>