<svg xmlns="http://www.w3.org/2000/svg" fill="none" viewBox="0 0 24 24"><path fill="currentColor" fill-rule="evenodd" d="M11.455 22.553c.157.13.35.197.544.197v.002a.86.86 0 0 0 .545-.196l2.737-2.276h4.133a.85.85 0 0 0 .85-.851v-4.147l2.286-2.73.006-.007a.85.85 0 0 0-.005-1.083l-2.286-2.746V4.575a.85.85 0 0 0-.85-.85h-4.139l-2.73-2.278a.85.85 0 0 0-1.09 0L8.725 3.73H4.59a.85.85 0 0 0-.85.85v4.135l-2.288 2.729a.854.854 0 0 0 0 1.092l2.288 2.732v4.14c0 .469.381.85.846.85l4.151.019zm-2.17-3.773-4.045-.018v-4.038L2.951 11.99l2.29-2.73V5.23h4.03l2.73-2.285 2.732 2.279h4.033v4.033l2.287 2.747-2.288 2.73v4.045H14.74l-2.737 2.276zm1.213-3.022h2.505l.001-.001a.75.75 0 0 0 .75-.75v-.754h3.76a.75.75 0 0 0 .585-1.218l-2.004-2.507-1.172.937 1.03 1.289h-2.199V8.99h-1.5v1.938l-1.179-1.415-1.153.96 2.331 2.799v.985h-1.755zm-4.008 0h2.004a.75.75 0 0 0 .75-.75V8.99h-1.5v5.267H6.49z" clip-rule="evenodd"/></svg>