<svg xmlns="http://www.w3.org/2000/svg" fill="none" viewBox="0 0 24 24"><path fill="currentColor" fill-rule="evenodd" d="M16.25 21.75h5.5V21c0-5.38-4.37-9.75-9.75-9.75-1.49 0-2.93.34-4.25.98V2.25h-5.5v19.5h5.5V21A4.26 4.26 0 0 1 12 16.75 4.26 4.26 0 0 1 16.25 21zm3.96-1.5h-2.52c-.37-2.82-2.79-5-5.7-5s-5.33 2.18-5.7 5H3.74V3.75h2.5v11.17l1.17-.78a8.2 8.2 0 0 1 4.58-1.39c4.3 0 7.84 3.3 8.22 7.5m.79-7.5h.75v-5.5H21A4.26 4.26 0 0 1 16.75 3v-.75h-5.5V3c0 5.38 4.37 9.75 9.75 9.75m-.75-1.53a8.27 8.27 0 0 1-7.47-7.47l.01.01h2.51c.33 2.57 2.38 4.61 4.95 4.95z" clip-rule="evenodd"/></svg>