<svg xmlns="http://www.w3.org/2000/svg" fill="none" viewBox="0 0 24 24"><path fill="currentColor" fill-rule="evenodd" d="M2.75 10A6.75 6.75 0 0 1 9.5 3.25h5A6.75 6.75 0 0 1 21.25 10v.55a2.75 2.75 0 0 1-.018 4.91 5.75 5.75 0 0 1-5.732 5.29h-7a5.75 5.75 0 0 1-5.732-5.29 2.75 2.75 0 0 1-.018-4.91zm1.5.25h15.5V10c0-2.9-2.35-5.25-5.25-5.25h-5A5.25 5.25 0 0 0 4.25 10zm.066 5.5a4.25 4.25 0 0 0 4.184 3.5h7a4.25 4.25 0 0 0 4.184-3.5H11.5v-1.5H20a1.25 1.25 0 1 0 0-2.5h-7.69L9 15.06l-3.31-3.31H4a1.25 1.25 0 1 0 0 2.5h2.5v1.5zM9 12.94l-1.19-1.19h2.38zM10.008 8a1 1 0 0 1-1 1h-.01a1 1 0 0 1 0-2h.01a1 1 0 0 1 1 1m4.96-2.031-2 2 1.061 1.06 2-2z" clip-rule="evenodd"/></svg>