<svg xmlns="http://www.w3.org/2000/svg" fill="none" viewBox="0 0 24 24"><path fill="currentColor" fill-rule="evenodd" d="M7.395 7.25c.327-1.532.916-2.84 1.655-3.793C9.925 2.329 10.96 1.75 12 1.75s2.076.579 2.95 1.707c.74.953 1.329 2.26 1.656 3.793zm-1.53 0c.35-1.844 1.046-3.483 2-4.712C8.927 1.167 10.358.25 12 .25c1.643 0 3.074.917 4.136 2.288.953 1.23 1.65 2.868 2 4.712H20a.75.75 0 0 1 .742.64l2 14a.75.75 0 0 1-.742.857H2a.75.75 0 0 1-.742-.856l2-14A.75.75 0 0 1 4 7.25zm-1.757 5.296-1.243 8.7h18.27l-1.243-8.7a6.8 6.8 0 0 1-1.078 1.698 5.5 5.5 0 0 1-1.395 1.157 4 4 0 0 1-.636.296l-.049.016-.016.005-.007.002h-.003c-.001.001-.002.001-.208-.72a49 49 0 0 0-.207-.72h-.005l-.002.001.01-.003.071-.027a3 3 0 0 0 .308-.152 4 4 0 0 0 1.01-.843c.673-.768 1.415-2.132 1.545-4.506h-6.48v5.5H14a.75.75 0 0 1 .75.75v3a.75.75 0 0 1-.75.75h-4a.75.75 0 0 1-.75-.75v-3a.75.75 0 0 1 .75-.75h1.25v-5.5H4.77c.13 2.374.872 3.738 1.544 4.506.376.43.746.691 1.011.843a2.6 2.6 0 0 0 .379.179l.01.003h-.001l-.003-.001h-.002c-.001-.001-.002-.001-.208.72s-.207.721-.207.72h-.004l-.007-.002-.016-.005a2 2 0 0 1-.2-.073 4 4 0 0 1-.485-.239 5.5 5.5 0 0 1-1.395-1.157c-.388-.443-.763-1-1.078-1.698m6.642 3.204h2.5v1.5h-2.5z" clip-rule="evenodd"/></svg>