<svg xmlns="http://www.w3.org/2000/svg" fill="none" viewBox="0 0 24 24"><path fill="currentColor" fill-rule="evenodd" d="M7.253 4.252a8.25 8.25 0 0 1 12.984 6.271A4.73 4.73 0 0 0 17 9.25h-2a.75.75 0 0 0-.75.75v1.818h1.5V10.75H17a3.25 3.25 0 0 1 2.37 5.473l1.095 1.026A4.74 4.74 0 0 0 21.75 14v-3A9.75 9.75 0 0 0 12 1.25a9.7 9.7 0 0 0-5.611 1.776zM5.227 6.288a8.2 8.2 0 0 0-1.463 4.235A4.73 4.73 0 0 1 7 9.25h1.19zM4.152 5.213A9.7 9.7 0 0 0 2.25 11v3A4.75 4.75 0 0 0 7 18.75h2a.75.75 0 0 0 .75-.75v-7.19l11.719 11.72 1.06-1.061-20-20-1.06 1.06zM7 10.75a3.25 3.25 0 0 0 0 6.5h1.25v-6.5zm11.5 10.5H12v1.5h6.5z" clip-rule="evenodd"/></svg>