<svg xmlns="http://www.w3.org/2000/svg" fill="none" viewBox="0 0 24 24"><path fill="currentColor" fill-rule="evenodd" d="M7.25 2A.75.75 0 0 1 8 1.25h8a.75.75 0 0 1 .75.75v8a.75.75 0 0 1-.75.75H8a.75.75 0 0 1-.75-.75zm1.5.75v6.5h6.5v-6.5zM2 15.25a.75.75 0 0 0-.75.75v6c0 .414.336.75.75.75h6a.75.75 0 0 0 .75-.75v-6a.75.75 0 0 0-.75-.75H5.75v-1.5h12.5v1.5H16a.75.75 0 0 0-.75.75v6c0 .414.336.75.75.75h6a.75.75 0 0 0 .75-.75v-6a.75.75 0 0 0-.75-.75h-2.25V13a.75.75 0 0 0-.75-.75H5a.75.75 0 0 0-.75.75v2.25zm.75 6v-4.5h4.5v4.5zm14 0v-4.5h4.5v4.5z" clip-rule="evenodd"/></svg>