<svg xmlns="http://www.w3.org/2000/svg" fill="none" viewBox="0 0 24 24"><path fill="currentColor" fill-rule="evenodd" d="M7.25 2A.75.75 0 0 1 8 1.25h8a.75.75 0 0 1 .75.75v5a.75.75 0 0 1-.75.75h-3.25v1.587a3.25 3.25 0 0 1 2.497 3.3l4.516 3.613H22a.75.75 0 0 1 .75.75v5a.75.75 0 0 1-.75.75h-5a.75.75 0 0 1-.75-.75v-5a.75.75 0 0 1 .75-.75h.362l-2.582-2.065A3.25 3.25 0 0 1 12 15.75a3.25 3.25 0 0 1-2.78-1.566L6.638 16.25H7a.75.75 0 0 1 .75.75v5a.75.75 0 0 1-.75.75H2a.75.75 0 0 1-.75-.75v-5a.75.75 0 0 1 .75-.75h2.237l4.516-3.613-.003-.137a3.25 3.25 0 0 1 2.5-3.163V7.75H8A.75.75 0 0 1 7.25 7zm1.5.75v3.5h6.5v-3.5zm-6 15v3.5h3.5v-3.5zm15 3.5v-3.5h3.5v3.5zM12 10.75a1.75 1.75 0 1 0 0 3.5 1.75 1.75 0 0 0 0-3.5" clip-rule="evenodd"/></svg>