<svg xmlns="http://www.w3.org/2000/svg" fill="none" viewBox="0 0 24 24"><path fill="currentColor" fill-rule="evenodd" d="M12 3.5V10h-1.5V5A.75.75 0 0 0 9 5v10.277l-2.901-2.91a.933.933 0 0 0-1.393.077.946.946 0 0 0-.02 1.153L9 19.247V22H7.5v-2.246l-4.013-5.256a2.446 2.446 0 0 1 .046-2.99 2.433 2.433 0 0 1 3.628-.2l.34.34V5a2.25 2.25 0 0 1 3.078-2.093 2.25 2.25 0 0 1 4.418.471 2.25 2.25 0 0 1 3 2A2.25 2.25 0 0 1 21 7.5v8.051a4.75 4.75 0 0 1-1.103 3.044L19 19.668V22h-1.5v-2.875l1.245-1.492a3.25 3.25 0 0 0 .755-2.083V7.5a.75.75 0 0 0-1.5 0V12h-1.5V5.5a.75.75 0 0 0-1.5 0V11h-1.5V3.5a.75.75 0 0 0-1.5 0" clip-rule="evenodd"/></svg>