<svg xmlns="http://www.w3.org/2000/svg" fill="none" viewBox="0 0 24 24"><path fill="currentColor" fill-rule="evenodd" d="M2.675 12.211q.208.35.493.632a4.1 4.1 0 0 0-1.597 1.893c-.457 1.092-.419 2.29.103 3.284.563 1.08 1.605 1.73 2.705 1.73q.272 0 .547-.055.706-.14 1.407-.327.105.44.34.838a3.13 3.13 0 0 0 2.711 1.54v.002c.351 0 .706-.058 1.052-.178a32.5 32.5 0 0 0 5.365-2.448 32 32 0 0 0 4.831-3.359 3.08 3.08 0 0 0-.343-4.988 18 18 0 0 0 1.762-1.941c.816-1.053.927-2.533.281-3.774a3.33 3.33 0 0 0-2.53-1.78 3.65 3.65 0 0 0-2.469.573l-.005-.01c-.466-.794-1.248-1.335-2.202-1.523-1.083-.214-2.268.068-3.17.755A31 31 0 0 1 8.47 5.383a31.5 31.5 0 0 1-3.78 1.83c-1.06.427-1.903 1.305-2.258 2.35-.311.912-.225 1.852.243 2.648M16.032 4.6q.091.157.145.318a31 31 0 0 1-.534.537l1.05 1.072c.34-.333.682-.683 1.015-1.04.503-.54 1.21-.808 1.897-.717a1.82 1.82 0 0 1 1.4.988c.369.709.313 1.577-.14 2.162-.635.824-1.275 1.446-1.79 1.946l-.01.01-.031.03-.362.355a4.06 4.06 0 0 0-2.716.814 31 31 0 0 1-3.487 2.308 31.5 31.5 0 0 1-3.78 1.83c-1.059.427-1.903 1.305-2.258 2.35a4 4 0 0 0-.073.243c-.57.164-1.15.304-1.726.42-.639.127-1.279-.226-1.63-.9-.315-.598-.332-1.332-.048-2.01.291-.697.857-1.231 1.511-1.43.442-.134.89-.284 1.332-.447L5.28 12.03q-.198.075-.399.143a1.63 1.63 0 0 1-.914-.724c-.242-.412-.283-.91-.115-1.404.216-.636.74-1.175 1.399-1.442a33 33 0 0 0 3.96-1.917 33 33 0 0 0 3.654-2.419 2.5 2.5 0 0 1 1.97-.476c.527.104.953.392 1.197.808M13.21 14.684a32 32 0 0 0 3.654-2.419l-.002-.002c.565-.43 1.302-.608 1.97-.476.527.104.953.392 1.198.81.394.675.245 1.502-.366 2.014a30.6 30.6 0 0 1-4.607 3.203 31 31 0 0 1-5.115 2.335c-.754.263-1.586-.032-1.977-.702-.242-.412-.283-.91-.115-1.404.216-.636.74-1.175 1.4-1.442a33 33 0 0 0 3.96-1.917M6.39 11.57l1.12.995.004.004q.155-.175.279-.373c.3-.449.445-.94.572-1.376.048-.166.094-.322.146-.47l.034-.097.328.122c.097.038.208.071.312.101l.01.003c1.08.294 2.037.01 2.498-.745.18-.298.31-.599.436-.89.135-.315.263-.613.439-.85q.089-.123.17-.218l.01-.012c.039-.045.19-.038.332.04.382.21.74.33 1.06.353.148.012.448.046.448.046l.019.002c.066.006.31.018.635-.072l-.401-1.445a.6.6 0 0 1-.121.021 23 23 0 0 0-.462-.047c-.05-.004-.193-.028-.454-.172-.784-.433-1.69-.305-2.205.31q-.121.141-.241.305c-.276.373-.445.765-.608 1.145l-.012.028a5.5 5.5 0 0 1-.327.673c-.104.17-.49.17-.818.081l-.017-.004a2 2 0 0 1-.174-.057l-.342-.127A1.3 1.3 0 0 0 8 8.833a1.59 1.59 0 0 0-.93 1.077q-.081.247-.15.486v.004c-.107.363-.208.707-.382.963l-.017.027a1.3 1.3 0 0 1-.133.178" clip-rule="evenodd"/></svg>