<svg xmlns="http://www.w3.org/2000/svg" fill="none" viewBox="0 0 24 24"><path fill="currentColor" fill-rule="evenodd" d="M11.238 5.773V4.25h-2.5v-1.5h6.5v1.5h-2.5v1.521c4.27.359 7.679 3.794 7.991 8.08.89.27 1.59 1.03 1.76 1.99l.47 1.9-.01.01H1.039l.48-1.95c.16-.93.86-1.68 1.75-1.95.312-4.279 3.71-7.71 7.97-8.078M2.99 16.11l-.03.14h18.08l-.02-.09c-.1-.55-.52-.91-1.02-.91h-.75v-.75c0-4-3.25-7.25-7.25-7.25S4.75 10.5 4.75 14.5v.75H4c-.5 0-.92.36-1.01.86m19.75 3.64H1.24v1.5h21.5zM20.16 9.51l-.67-1.34L21.83 7l.67 1.34zm-1.34-2-1.34-.67 1.17-2.34 1.34.67zm-17.34.83 2.34 1.17.67-1.34L2.15 7zm2.51-3.17 1.17 2.34 1.34-.67L5.33 4.5z" clip-rule="evenodd"/></svg>