<svg xmlns="http://www.w3.org/2000/svg" fill="none" viewBox="0 0 24 24"><path fill="currentColor" fill-rule="evenodd" d="M14.051 16.25H13A1.75 1.75 0 0 0 11.25 18v.86a24 24 0 0 1-4.255.39l1.544-5.405c.923.39 1.82.846 2.575 1.299l.68.408L18.212 3.35l-1.327-.698-5.686 10.812a22 22 0 0 0-3.863-1.66c-.79-.247-1.578-.428-2.295-.493-.702-.063-1.418-.022-2.008.252-.69.32-1.104 1.02-1.35 1.691-.259.702-.395 1.535-.426 2.352-.03.818.045 1.663.24 2.393.186.7.518 1.432 1.11 1.85.559.395 1.319.613 2.092.739.791.128 1.682.171 2.566.161a26 26 0 0 0 4.027-.371A1.75 1.75 0 0 0 13 21.75h6A1.75 1.75 0 0 0 20.75 20v-2A1.75 1.75 0 0 0 19 16.25h-3.247l6.908-12.895-1.322-.709zm-7.163-3.015.243.078-1.675 5.863a9 9 0 0 1-.518-.069c-.696-.113-1.187-.285-1.467-.483-.157-.111-.37-.42-.526-1.01-.149-.56-.215-1.252-.19-1.953.026-.702.144-1.371.334-1.889.201-.547.43-.782.574-.849.243-.113.65-.17 1.243-.118.577.052 1.254.203 1.982.43M12.75 18a.25.25 0 0 1 .25-.25h6a.25.25 0 0 1 .25.25v2a.25.25 0 0 1-.25.25h-6a.25.25 0 0 1-.25-.25z" clip-rule="evenodd"/></svg>