<svg xmlns="http://www.w3.org/2000/svg" fill="none" viewBox="0 0 24 24"><path fill="currentColor" fill-rule="evenodd" d="M2.75 10.08A4.26 4.26 0 0 1 7 5.83c.95 0 1.85.31 2.58.87l-3.01.86L6.98 9l3.73-1.06.14.19.48-.36.58-.14v-.02h.02l-.06-.23.19-.14-.36-.48-1.15-4.59-1.46.36.62 2.48c-.83-.44-1.76-.68-2.71-.68-3.17 0-5.75 2.58-5.75 5.75 0 1.25.4 2.44 1.15 3.45l.45.6 1.2-.9-.45-.6c-.56-.74-.85-1.63-.85-2.55m7.74 2.5h2v-2.01l-2 .01zm2.76-4.75v-1.5h9.5v15.5H5.25v-11.5h1.5v6.94L10 14.02l2.5 2.5 4.5-4.5 4.25 4.25V7.83zm-6.5 11.56v.94h14.5v-1.94L17 14.14l-4.5 4.5-2.5-2.5z" clip-rule="evenodd"/></svg>