<svg xmlns="http://www.w3.org/2000/svg" fill="none" viewBox="0 0 24 24"><path fill="currentColor" fill-rule="evenodd" d="M20.5 7.25h-.19c-1.18-3.56-4.51-6-8.31-6h-.75v.03a8.77 8.77 0 0 0-7.56 5.97H3.5c-1.24 0-2.25 1.03-2.25 2.25s.96 2.21 2.17 2.25a8.73 8.73 0 0 0 3.75 5.54A6.8 6.8 0 0 0 5.25 22v.75h1.5V22c0-1.5.65-2.94 1.78-3.94l.03-.02c1.06.46 2.22.71 3.44.71s2.38-.26 3.45-.71l.02.02c1.13 1 1.78 2.44 1.78 3.94v.75h1.5V22c0-1.76-.7-3.44-1.92-4.71a8.73 8.73 0 0 0 3.75-5.54c1.2-.04 2.17-1.01 2.17-2.25s-1.01-2.25-2.25-2.25m0 3h-1.22l-.08.66c-.45 3.61-3.54 6.34-7.2 6.34s-6.75-2.72-7.2-6.34l-.08-.66H3.5c-.41 0-.75-.34-.75-.75s.34-.75.75-.75h1.33l.15-.56c.82-3.2 3.71-5.44 7.01-5.44.57 0 1.25.56 1.25 1.25s-.68 1.25-1.25 1.25c-.35 0-.77-.14-1.04-.35l-.6-.45-.91 1.19.6.46c.54.41 1.27.65 1.95.65 1.46 0 2.75-1.29 2.75-2.75 0-.26-.05-.5-.13-.75 2.13.83 3.81 2.62 4.41 4.94l.15.56h1.33c.41 0 .75.34.75.75s-.34.75-.75.75M9 9.008c-.55 0-1 .45-1 1s.45 1 1 1 1-.44 1-1-.45-1-1-1M10.25 14c0 .96.79 1.75 1.75 1.75s1.75-.79 1.75-1.75v-.75h-3.5zM14 10.008c0-.55.45-1 1-1s1 .44 1 1-.45 1-1 1-1-.45-1-1" clip-rule="evenodd"/></svg>