<svg xmlns="http://www.w3.org/2000/svg" fill="none" viewBox="0 0 24 24"><path fill="currentColor" fill-rule="evenodd" d="m15.39 3.702-2.774-2.214a.95.95 0 0 0-1.262 0L8.579 3.702H4.613a.95.95 0 0 0-.95.95v3.96l-2.176 2.756a.95.95 0 0 0 0 1.258l2.175 2.756v3.976c0 .527.427.95.951.95H8.64l2.73 2.202a.95.95 0 0 0 1.276-.01l2.569-2.191h4.16a.95.95 0 0 0 .95-.95V15.4l2.188-2.756a.95.95 0 0 0 0-1.26l-2.188-2.757V4.653a.95.95 0 0 0-.95-.951zm-6.286 1.5 2.88-2.298 2.882 2.298h3.958V9.15l2.273 2.864-2.273 2.864v3.93h-4.163l-2.669 2.278-2.824-2.277H5.162v-3.947l-2.26-2.865 2.26-2.865v-3.93zm2.058 2.312v1.5h1.5v-1.5zm1.5 2.75h-2.75v1.5h1.25v4.25h1.5z" clip-rule="evenodd"/></svg>