<svg xmlns="http://www.w3.org/2000/svg" fill="none" viewBox="0 0 24 24"><path fill="currentColor" fill-rule="evenodd" d="m3.94 19-2.47 2.47 1.06 1.061L5 20.061l.47.47a.75.75 0 0 0 .952.09l1.866-1.272.682.682a.75.75 0 0 0 1.06 0l6.97-6.97.97.97 1.06-1.06-2.247-2.248 2.95-3.688c.108.097.213.183.326.258.296.196.626.333.974.403.272.055.55.055.906.055H22v-1.5c-.445 0-.564-.004-.67-.025a1.3 1.3 0 0 1-.442-.183c-.09-.06-.177-.142-.491-.456l-1.981-1.981c-.315-.315-.397-.402-.457-.492a1.3 1.3 0 0 1-.183-.442c-.021-.106-.025-.226-.025-.671h-1.5v.061c0 .356 0 .636.055.908a2.73 2.73 0 0 0 .66 1.298l-3.688 2.95-2.248-2.247-1.06 1.06.97.97-6.97 6.97a.75.75 0 0 0 0 1.06l.681.682-1.27 1.866a.75.75 0 0 0 .089.952zm1.79-2.207-.76 1.117 1.12 1.12 1.117-.761zm8.615-8.508 1.37 1.371 2.947-3.683-.634-.634zm-8.784 6.216L12 8.06 15.94 12 9.5 18.44z" clip-rule="evenodd"/></svg>