<svg xmlns="http://www.w3.org/2000/svg" fill="none" viewBox="0 0 24 24"><path fill="currentColor" fill-rule="evenodd" d="M15.72 2.153a3.2 3.2 0 0 1 1.716-.895l.246 1.48a1.7 1.7 0 0 0-.884.456c-.223.232-.412.6-.282 1.25.385 1.922-.11 3.194-.7 3.685l-.96-1.152.002-.003c.019-.023.134-.166.216-.505.09-.367.13-.934-.029-1.732-.225-1.128.105-1.995.674-2.584M4.226 6.56c.973-.402 2.299-.7 3.8-.866l.165 1.491c-1.423.158-2.597.432-3.393.761-.4.166-.665.329-.817.466a.6.6 0 0 0-.116.131c.02.037.085.126.278.258.301.206.786.422 1.452.615 1.322.382 3.193.63 5.291.63 2.126 0 4.019-.254 5.343-.646l.425 1.439c-1.499.443-3.541.707-5.768.707-1.724 0-3.338-.159-4.674-.436-.455.17-.787.35-1 .52a.9.9 0 0 0-.216.226.2.2 0 0 0-.024.051l-.003.014q-.002.002.008.028c.008.02.027.055.067.104.085.101.24.232.493.374.506.284 1.279.544 2.26.728.907.17 1.96.268 3.09.268 1.65 0 3.132-.21 4.227-.541l.434 1.436c-1.265.382-2.898.605-4.662.605-1.107 0-2.16-.088-3.1-.246-.52.308-.594.553-.594.622 0 .042.018.155.205.335.19.182.504.38.954.562.895.363 2.184.605 3.646.605.749 0 1.457-.064 2.092-.176l.261 1.477c-.726.129-1.521.199-2.353.199-1.606 0-3.095-.263-4.21-.715a6 6 0 0 1-.783-.385c-1.551.233-2.67.578-3.383.963-.756.409-.872.749-.872.905 0 .033.027.222.463.524.413.286 1.06.574 1.927.828 1.724.505 4.15.828 6.86.828s5.136-.323 6.86-.828c.867-.254 1.514-.542 1.927-.828.436-.302.463-.491.463-.524h1.5c0 .776-.532 1.358-1.109 1.757-.599.415-1.416.758-2.359 1.034-1.896.556-4.47.889-7.282.889s-5.386-.333-7.282-.889c-.943-.276-1.76-.62-2.36-1.034-.576-.4-1.108-.98-1.108-1.757 0-.994.738-1.727 1.659-2.224.733-.396 1.705-.717 2.89-.955a1.7 1.7 0 0 1-.106-.59c0-.397.131-.743.341-1.042a7 7 0 0 1-1.23-.523c-.65-.365-1.334-.955-1.334-1.814 0-.598.34-1.067.734-1.403a5 5 0 0 1-.907-.479c-.462-.316-.938-.808-.938-1.495 0-.532.29-.95.618-1.245.328-.297.766-.54 1.25-.74m-.37 2.004.001-.003zm15.09.947c.865-.225 1.419-.035 1.75.26.349.312.58.858.55 1.58-.06 1.424-1.173 3.377-3.948 4.384l.512 1.41c3.247-1.18 4.844-3.601 4.934-5.731.045-1.056-.288-2.082-1.05-2.762-.779-.696-1.88-.916-3.124-.593zm-5.982-8.246a3.08 3.08 0 0 0-1.738 1.076c-.542.675-.842 1.636-.633 2.893.168 1.009.119 1.568.037 1.874a.9.9 0 0 1-.272.473l1.061 1.06c.2-.199.496-.527.661-1.148.156-.587.18-1.38-.007-2.505-.146-.876.072-1.396.322-1.707a1.58 1.58 0 0 1 .863-.546z" clip-rule="evenodd"/></svg>