<svg xmlns="http://www.w3.org/2000/svg" fill="none" viewBox="0 0 24 24"><path fill="currentColor" fill-rule="evenodd" d="M10.942 6.657c-.133-1.368-.449-2.63-1.078-3.617.13-.149.227-.219.339-.264.202-.08.58-.128 1.455.029a2.97 2.97 0 0 1 1.522 1.554l-.767 1.177a.85.85 0 0 0 .002.93l.691 1.053-.686 1.027a.85.85 0 0 0 .005.952c.46.674.66 1.267.746 1.752h-2.287c.147-1.642.193-3.208.058-4.593M9.378 11.25c.152-1.642.197-3.153.071-4.448-.144-1.486-.506-2.588-1.093-3.288l-.368-.439.327-.47c.312-.45.68-.96 1.328-1.22.628-.253 1.389-.224 2.375-.04l.082.016.076.033a4.48 4.48 0 0 1 2.451 2.548 3 3 0 0 1 .103.326l.006.025.002.01v.004c.001 0 .001.002-.732.16l.733-.158.066.305L13.902 6l1.004 1.527-1.003 1.5c.505.85.707 1.61.784 2.224h.813v1.5h-2.75v4.463H16a.75.75 0 0 1 .67.414l2 3.99a.75.75 0 0 1-.67 1.087H6a.75.75 0 0 1-.67-1.086l2-3.991a.75.75 0 0 1 .67-.414h3.25V12.75H8.5v-1.5zm-2.163 9.954 1.248-2.491h7.074l1.248 2.49z" clip-rule="evenodd"/></svg>