<svg xmlns="http://www.w3.org/2000/svg" fill="none" viewBox="0 0 24 24"><path fill="currentColor" fill-rule="evenodd" d="M13.952 4.619A2.252 2.252 0 0 0 12 1.25a2.252 2.252 0 0 0-1.952 3.369 6 6 0 0 0-2.05 1.343c-.841.828-1.889 1.284-2.95 1.284H3v1.5h1.287L2.536 12.25H1.25V13a4.255 4.255 0 0 0 4.25 4.25A4.255 4.255 0 0 0 9.75 13v-.75H8.463L6.595 8.515A6 6 0 0 0 9.05 7.03c.66-.648 1.418-1.05 2.2-1.207V21.25H9v1.5h6v-1.5h-2.25V5.823c.782.156 1.54.559 2.2 1.207a6 6 0 0 0 2.453 1.484l-1.867 3.736H14.25V13a4.255 4.255 0 0 0 4.25 4.25A4.255 4.255 0 0 0 22.75 13v-.75h-1.287L19.71 8.746H21v-1.5h-2.048c-1.061 0-2.109-.456-2.95-1.284a6 6 0 0 0-2.05-1.343m5.833 7.631L18.5 9.678l-1.286 2.572zM5.5 9.678l1.286 2.572H4.213zm6.503-5.428a.75.75 0 1 0-.002 0zm-9.148 9.5c.327 1.153 1.39 2 2.646 2a2.755 2.755 0 0 0 2.646-2zm15.646 2a2.755 2.755 0 0 1-2.646-2h5.292a2.755 2.755 0 0 1-2.646 2" clip-rule="evenodd"/></svg>