<svg xmlns="http://www.w3.org/2000/svg" fill="none" viewBox="0 0 24 24"><path fill="currentColor" fill-rule="evenodd" d="M4.75 16A7.25 7.25 0 1 1 17 21.25H7A7.23 7.23 0 0 1 4.75 16m1.295-6.411A8.73 8.73 0 0 0 3.25 16a8.73 8.73 0 0 0 2.962 6.562l.213.188h11.15l.213-.188A8.73 8.73 0 0 0 20.75 16a8.73 8.73 0 0 0-2.795-6.411l.256-.673c.354-.931.638-1.678.813-2.29.266-.924.334-1.702.003-2.536a4 4 0 0 0-.782-1.245c-.584-.63-1.599-1.008-2.637-1.239-1.081-.24-2.352-.356-3.608-.356s-2.527.116-3.608.356c-1.038.231-2.053.608-2.637 1.239a4 4 0 0 0-.782 1.245c-.331.834-.262 1.612.003 2.537.175.61.459 1.357.813 2.287zm1.24-.962L7.161 8.3c-.338-.885-.586-1.538-.743-2.085-.22-.765-.21-1.169-.05-1.57.116-.294.283-.559.488-.78.252-.272.87-.573 1.862-.793.95-.212 2.108-.321 3.282-.321s2.332.11 3.282.32c.993.221 1.61.522 1.862.794.205.221.372.486.489.78.16.401.169.805-.05 1.57-.158.548-.406 1.201-.744 2.088l-.124.326A8.7 8.7 0 0 0 12 7.25a8.7 8.7 0 0 0-4.715 1.377M12 13.75a2.25 2.25 0 1 0 0 4.5 2.25 2.25 0 0 0 0-4.5m-5 3h1.325a3.751 3.751 0 0 0 7.35 0H17v-1.5h-1.325a3.751 3.751 0 0 0-7.35 0H7z" clip-rule="evenodd"/></svg>