<svg xmlns="http://www.w3.org/2000/svg" fill="none" viewBox="0 0 24 24"><path fill="currentColor" fill-rule="evenodd" d="m12.785 4.726 8.243 8.244a.75.75 0 0 1 0 1.06l-8.5 8.5a.75.75 0 0 1-1.06 0l-8.5-8.5a.75.75 0 0 1 0-1.06l8.125-8.125c-.28-.39-.897-.895-2.093-.895v-1.5c1.22 0 2.107.387 2.714.886q.12-.224.275-.443c.564-.793 1.502-1.496 2.936-1.64l.15 1.493c-.966.097-1.528.544-1.864 1.016a2.7 2.7 0 0 0-.426.964M4.559 13.5l2.94 2.94L10.936 13l-2.939-2.94zm7.44.56-3.44 3.44 3.439 3.44 3.44-3.44zm1.06-1.06 3.439 3.44 2.94-2.94-3.44-3.44zm-1.06-1.06L14.936 9l-2.939-2.94L9.058 9z" clip-rule="evenodd"/></svg>