<svg xmlns="http://www.w3.org/2000/svg" fill="none" viewBox="0 0 24 24"><path fill="currentColor" fill-rule="evenodd" d="M6.396 1.25h11.208l.129.59L17 2l.733-.16.006.027.017.078a130 130 0 0 1 .291 1.392c.189.921.44 2.19.691 3.58.498 2.757 1.012 6.072 1.012 8.083a7.75 7.75 0 0 1-15.5 0c0-2.01.514-5.326 1.012-8.083a162 162 0 0 1 .982-4.972l.017-.078.006-.027L7 2l-.733-.16zm1.21 1.5a160 160 0 0 0-.869 4.434C6.237 9.96 5.75 13.145 5.75 15a6.25 6.25 0 0 0 12.5 0c0-1.855-.486-5.04-.988-7.816a160 160 0 0 0-.869-4.434zm4.394 9a3.25 3.25 0 1 0 0 6.5 3.25 3.25 0 0 0 0-6.5M7.25 15a4.75 4.75 0 1 1 9.5 0 4.75 4.75 0 0 1-9.5 0m5.5-8.25v-2.5h-1.5v2.5z" clip-rule="evenodd"/></svg>