<svg xmlns="http://www.w3.org/2000/svg" fill="none" viewBox="0 0 24 24"><path fill="currentColor" fill-rule="evenodd" d="M4.752 3.75v16.5h4.543v-6.199c0-.706.878-1.029 1.336-.495l5.483 6.377 2.852-2.537-4.468-5.456 4.46-5.379-2.862-2.5-5.51 6.407c-.46.536-1.339.208-1.335-.499l.03-6.219zm-1.5-.74c0-.42.34-.76.76-.76h6.013a.76.76 0 0 1 .76.764l-.025 4.952 4.684-5.447.002-.003a.76.76 0 0 1 1.074-.074l3.968 3.464a.76.76 0 0 1 .086 1.057l-4.132 4.983 4.135 5.05a.76.76 0 0 1-.083 1.049l-3.945 3.509a.76.76 0 0 1-1.082-.073l-4.672-5.434v4.943a.76.76 0 0 1-.76.76H4.012a.76.76 0 0 1-.76-.76z" clip-rule="evenodd"/></svg>