<svg xmlns="http://www.w3.org/2000/svg" fill="none" viewBox="0 0 24 24"><path fill="currentColor" fill-rule="evenodd" d="M12.354 2.757c-.566.512-.65 1.023-.585 1.417.083.507.421.892.661 1.008.166.081.439.09.764.024a3 3 0 0 0 .476-.143q.017-.006.023-.01l.005.011.302.674.307.685h-.002l-.002.001-.005.002-.016.007a3 3 0 0 1-.22.085c-.14.05-.337.11-.566.157-.429.088-1.106.157-1.723-.144-.715-.348-1.328-1.17-1.484-2.113a2.84 2.84 0 0 1 .172-1.54 9.25 9.25 0 1 0 1.893-.12M12 1.25C6.063 1.25 1.25 6.063 1.25 12S6.063 22.75 12 22.75 22.75 17.937 22.75 12 17.937 1.25 12 1.25M7 9a1 1 0 0 1 1-1h.009a1 1 0 1 1 0 2H8a1 1 0 0 1-1-1m7.991 0a1 1 0 0 1 1-1H16a1 1 0 1 1 0 2h-.009a1 1 0 0 1-1-1m.41 5.55a4.24 4.24 0 0 1-3.4 1.7 4.24 4.24 0 0 1-3.401-1.7l-1.2.9a5.74 5.74 0 0 0 4.6 2.3 5.74 5.74 0 0 0 4.6-2.3z" clip-rule="evenodd"/></svg>