<svg xmlns="http://www.w3.org/2000/svg" fill="none" viewBox="0 0 24 24"><path fill="currentColor" fill-rule="evenodd" d="M12 1.487h-.047c-2.276.073-3.606.89-4.796 1.622l-.056.035c-1.163.714-2.2 1.334-4.08 1.334h-.593l-.136.578c-1.358 5.763-.086 10.122 2.121 13.11 2.182 2.953 5.267 4.546 7.522 4.815l.108.013.107-.018c2.382-.405 5.392-1.962 7.503-4.889 2.13-2.951 3.306-7.24 2.097-13.026l-.124-.597h-.61c-1.881 0-2.942-.619-4.127-1.33l-.06-.037c-1.209-.727-2.557-1.537-4.828-1.61M5.62 17.275C3.755 14.75 2.575 11.029 3.628 5.958c1.947-.127 3.152-.857 4.258-1.537l.03-.019c1.157-.71 2.199-1.351 4.06-1.416 1.866.065 2.93.704 4.11 1.413l.03.019c.488.293.994.595 1.57.854L5.736 17.43zm1.106 1.29c1.748 1.761 3.8 2.704 5.28 2.913 1.996-.371 4.592-1.72 6.43-4.268 1.789-2.479 2.897-6.146 1.96-11.266a8 8 0 0 1-1.118-.15z" clip-rule="evenodd"/></svg>