<svg xmlns="http://www.w3.org/2000/svg" fill="none" viewBox="0 0 24 24"><path fill="currentColor" fill-rule="evenodd" d="M15.751 4.5a1.75 1.75 0 1 1 3.5 0 1.75 1.75 0 0 1-3.5 0m1.75-3.25a3.25 3.25 0 1 0 0 6.5 3.25 3.25 0 0 0 0-6.5m-11.5.69.53.53c.266.265.528.56.773.836l.008.008c.253.285.488.55.72.78q.347.35.616.52c.181.113.293.136.353.136v1.5c-.44 0-.828-.164-1.148-.364s-.615-.464-.882-.73q-.11-.111-.22-.227v.917c.125.26.412.716.817 1.129.479.489.983.775 1.433.775v1.5c-.907 0-1.68-.47-2.25-.981v4.981h15.25v1.5h-20v-1.5h3.25V8.269c-.57.51-1.343.981-2.25.981v-1.5c.45 0 .954-.286 1.433-.775.405-.413.692-.87.817-1.129V4.93q-.11.116-.22.226a5 5 0 0 1-.883.731c-.319.2-.707.364-1.147.364v-1.5c.06 0 .172-.023.352-.136q.27-.17.618-.52c.231-.23.466-.495.72-.78l.007-.008a20 20 0 0 1 .773-.836zm7.184 16.02a1.25 1.25 0 0 0-1.313-.045l-1.354.773a2.75 2.75 0 0 1-2.89-.1l-.918-.612a1.25 1.25 0 0 0-1.337-.031l-.94.563a2.75 2.75 0 0 1-1.414.392H1.914v-1.5H3.02c.226 0 .449-.061.643-.178l.94-.564a2.75 2.75 0 0 1 2.94.07l.918.613c.394.262.903.28 1.314.045l1.353-.774a2.75 2.75 0 0 1 2.89.1l.862.575c.42.28.967.28 1.387 0l.718-.48a2.47 2.47 0 0 1 3.115.31.97.97 0 0 0 .686.283H22v1.5h-1.216a2.47 2.47 0 0 1-1.746-.723.97.97 0 0 0-1.223-.121l-.718.479a2.75 2.75 0 0 1-3.05 0zm0 3.85a1.25 1.25 0 0 0-1.313-.046l-1.354.774a2.75 2.75 0 0 1-2.89-.1l-.918-.612a1.25 1.25 0 0 0-1.337-.032l-.94.564a2.75 2.75 0 0 1-1.414.392H1.914v-1.5H3.02c.226 0 .449-.062.643-.178l.94-.564a2.75 2.75 0 0 1 2.94.07l.918.612c.394.263.903.28 1.314.045l1.353-.773a2.75 2.75 0 0 1 2.89.1l.862.574c.42.28.967.28 1.387 0l.718-.478a2.47 2.47 0 0 1 3.115.308.97.97 0 0 0 .686.284H22v1.5h-1.216c-.655 0-1.283-.26-1.746-.723a.97.97 0 0 0-1.223-.121l-.718.478a2.75 2.75 0 0 1-3.05 0z" clip-rule="evenodd"/></svg>