<svg xmlns="http://www.w3.org/2000/svg" fill="none" viewBox="0 0 24 24"><path fill="currentColor" fill-rule="evenodd" d="M3 2.25a.75.75 0 0 0-.75.75v18c0 .414.336.75.75.75h18a.75.75 0 0 0 .75-.75V3a.75.75 0 0 0-.75-.75zm.75 18V3.75h16.5v16.5zM7 7.63h3.75V6.5h1.5v1.13H17v1.5h-1.947c-.539 1.6-1.44 3.099-2.454 4.435l1.477 1.536-1.08 1.04-1.349-1.402a34 34 0 0 1-2.746 2.813l-1.016-1.104a32 32 0 0 0 2.75-2.834 24 24 0 0 1-.68-.898c-.338-.467-.666-.961-.828-1.308l1.36-.634c.095.205.346.596.684 1.065.135.188.279.38.422.566.762-1.037 1.418-2.14 1.864-3.276H7z" clip-rule="evenodd"/></svg>