<svg xmlns="http://www.w3.org/2000/svg" fill="none" viewBox="0 0 24 24"><path fill="currentColor" fill-rule="evenodd" d="m20.78 3.096-.336-1.252-.918.917q-.189.191-.395.406c-1.16 1.207-2.786 2.897-6.18 3.382-3.755.536-6.644 3.049-6.644 6.742 0 .825.148 1.616.42 2.347-.853.399-1.577.858-2.181 1.388-1.266 1.112-1.955 2.492-2.23 4.14l-.123.74 1.48.246.123-.74c.226-1.352.766-2.404 1.74-3.258.483-.424 1.084-.81 1.83-1.159l.007.015.312-.158c.72-.31 1.566-.588 2.553-.835 3.437-.86 5.82-3.013 7.426-5.233l.44-.608-1.216-.88-.44.609c-1.466 2.027-3.577 3.907-6.573 4.657q-.94.234-1.757.516a5.2 5.2 0 0 1-.311-1.787c0-2.736 2.11-4.794 5.356-5.257 3.36-.48 5.271-2.042 6.492-3.255 1.285 5.61.503 8.982-.897 10.953-1.506 2.12-3.863 2.81-5.701 2.81a5.2 5.2 0 0 1-2.625-.703l-.649-.375-.751 1.298.65.376a6.7 6.7 0 0 0 3.375.903c2.162 0 5.054-.81 6.923-3.44 1.87-2.633 2.58-6.897.8-13.505" clip-rule="evenodd"/></svg>