<svg xmlns="http://www.w3.org/2000/svg" fill="none" viewBox="0 0 24 24"><path fill="currentColor" fill-rule="evenodd" d="M7.364 7.202c.87-.871 2.104-1.52 3.52-1.992 1.41-.47 2.952-.748 4.396-.909a34 34 0 0 1 4.61-.189q.01.362.011.88c0 .964-.04 2.288-.2 3.73s-.44 2.987-.91 4.396c-.471 1.415-1.12 2.649-1.991 3.52a6.67 6.67 0 0 1-6.45 1.727l-.724-.193-.387 1.448.724.194a8.17 8.17 0 0 0 7.897-2.116c1.096-1.096 1.842-2.569 2.354-4.106.514-1.542.81-3.197.977-4.705a36 36 0 0 0 .174-5.423l-.005-.088-.002-.024v-.01l-.044-.654-.654-.044-.05.748.049-.748h-.009l-.024-.002a13 13 0 0 0-.42-.02 36 36 0 0 0-5.092.189c-1.507.168-3.162.463-4.705.977C8.874 4.3 7.4 5.045 6.304 6.142a8.17 8.17 0 0 0-.506 11.002L2.6 20.342l1.06 1.06L16.713 8.35l-1.06-1.06-8.79 8.79a6.673 6.673 0 0 1 .5-8.877m13.246-3.81.748-.05z" clip-rule="evenodd"/></svg>