<svg xmlns="http://www.w3.org/2000/svg" fill="none" viewBox="0 0 24 24"><path fill="currentColor" fill-rule="evenodd" d="M5.75 10.273c0-3.63 2.825-6.523 6.25-6.523s6.25 2.893 6.25 6.523c0 2.061-.767 3.653-2.38 5.123-1.037.945-2.735 2.79-3.858 4.281-1.118-1.516-2.855-3.345-3.882-4.281-1.613-1.47-2.38-3.062-2.38-5.123M12 2.25c-4.307 0-7.75 3.62-7.75 8.023 0 2.531.983 4.511 2.87 6.231 1.214 1.107 3.394 3.46 4.235 4.878a.75.75 0 0 0 1.278.02c.896-1.41 3.046-3.802 4.247-4.898 1.887-1.72 2.87-3.7 2.87-6.231 0-4.404-3.443-8.023-7.75-8.023M3.52 6.8a9.28 9.28 0 0 0 0 7.4l-1.375.6a10.78 10.78 0 0 1 0-8.6zm16.96 7.4a9.28 9.28 0 0 0 0-7.4l1.375-.6a10.78 10.78 0 0 1 0 8.6zM12 8.25a1.75 1.75 0 1 0 0 3.5 1.75 1.75 0 0 0 0-3.5M8.75 10a3.25 3.25 0 1 1 6.5 0 3.25 3.25 0 0 1-6.5 0" clip-rule="evenodd"/></svg>