<svg xmlns="http://www.w3.org/2000/svg" fill="none" viewBox="0 0 24 24"><path fill="currentColor" fill-rule="evenodd" d="M7.253 4.502A8.25 8.25 0 0 1 20.25 11.25c0 1.76-.627 3.328-1.569 4.697l1.236.85c1.068-1.553 1.833-3.413 1.833-5.547A9.75 9.75 0 0 0 12 1.5a9.7 9.7 0 0 0-5.613 1.777zM5.228 6.538A8.2 8.2 0 0 0 3.75 11.25c0 3.164 2.04 5.723 4.23 7.549a21.3 21.3 0 0 0 3.969 2.595l.05.025.21-.105c.332-.17.805-.427 1.357-.765.954-.584 2.132-1.404 3.232-2.439l-2.954-2.955a5.3 5.3 0 0 1-1.845.345 4.25 4.25 0 0 1-4.25-4.25c0-.58.104-1.256.34-1.85zM17.86 19.171c-1.209 1.143-2.491 2.033-3.51 2.657a23 23 0 0 1-1.882 1.032l-.117.055-.033.014-.009.004-.003.002L12 22.25l-.305.685-.003-.001-.007-.003-.023-.01-.082-.039-.302-.147a22.8 22.8 0 0 1-4.258-2.784c-2.31-1.924-4.77-4.865-4.77-8.701a9.7 9.7 0 0 1 1.902-5.786L1.47 2.78l1.06-1.06 20 20-1.06 1.06zm-6.165 3.764L12 22.25l.305.685-.305.136zm-2.392-12.32 3.326 3.326A3.7 3.7 0 0 1 12 14a2.75 2.75 0 0 1-2.75-2.75c0-.21.019-.427.054-.635m2.302-2.087a2.75 2.75 0 0 1 3.116 3.116l1.485.212q.042-.297.043-.606a4.25 4.25 0 0 0-4.856-4.207z" clip-rule="evenodd"/></svg>