<svg xmlns="http://www.w3.org/2000/svg" fill="none" viewBox="0 0 24 24"><path fill="currentColor" fill-rule="evenodd" d="M12 2.625a5.75 5.75 0 0 1 5.75 5.75v2.25H20a.75.75 0 0 1 .75.75v7.354a2.75 2.75 0 0 1 2 2.646h-1.5a1.25 1.25 0 0 0-2.5 0h-1.5a2.75 2.75 0 0 1 2-2.646v-6.604h-1.5v6.25a.75.75 0 0 1-.75.75H7a.75.75 0 0 1-.75-.75v-6.25h-1.5v6.604a2.75 2.75 0 0 1 2 2.646h-1.5a1.25 1.25 0 0 0-2.5 0h-1.5a2.75 2.75 0 0 1 2-2.646v-7.354a.75.75 0 0 1 .75-.75h2.25v-2.25A5.75 5.75 0 0 1 12 2.625m4.25 9.5h-8.5v5.5h8.5zm-4.25-8a4.25 4.25 0 0 0-4.25 4.25v2.25h8.5v-2.25A4.25 4.25 0 0 0 12 4.125m1.992 2.75a1 1 0 0 0 0 2h.009a1 1 0 0 0 0-2zM9 7.875a1 1 0 0 1 1-1h.009a1 1 0 0 1 0 2H10a1 1 0 0 1-1-1" clip-rule="evenodd"/></svg>