<svg xmlns="http://www.w3.org/2000/svg" fill="none" viewBox="0 0 24 24"><path fill="currentColor" fill-rule="evenodd" d="M1.25 2.5A.75.75 0 0 1 2 1.75h20a.75.75 0 0 1 .75.75V11h-1.5V7.212L12 11.838 2.75 7.213V18.75H10v1.5H2a.75.75 0 0 1-.75-.75zm20 .75v2.285L12 10.16 2.75 5.536V3.25zM13.75 17a3.75 3.75 0 1 1 7.5 0v.5a.75.75 0 0 1-1.5 0V17a2.25 2.25 0 1 0-1.023 1.886A2.25 2.25 0 0 0 22.75 17.5V17a5.25 5.25 0 1 0-5.25 5.25v-1.5A3.75 3.75 0 0 1 13.75 17m3.75-.75a.75.75 0 1 1 0 1.5.75.75 0 0 1 0-1.5" clip-rule="evenodd"/></svg>