<svg xmlns="http://www.w3.org/2000/svg" fill="none" viewBox="0 0 24 24"><path fill="currentColor" fill-rule="evenodd" d="M11 2.75A8.25 8.25 0 0 0 2.75 11c0 3.164 2.04 5.723 4.23 7.549a21.3 21.3 0 0 0 3.969 2.595l.051.025a20 20 0 0 0 1.243-.676l.761 1.293a22 22 0 0 1-1.565.837l-.096.045-.027.012-.008.004h-.002l-.001.001L11 22l-.305.685-.003-.001-.007-.003-.023-.01a10 10 0 0 1-.384-.186 22.8 22.8 0 0 1-4.258-2.784C3.71 17.777 1.25 14.836 1.25 11A9.75 9.75 0 0 1 11 1.25c5.099 0 9.282 3.913 9.713 8.9l-1.494.13A8.25 8.25 0 0 0 11 2.75m-.305 19.935L11 22l.305.685-.305.136zM8.25 11a2.75 2.75 0 0 1 5.469-.416l1.483-.225A4.25 4.25 0 1 0 11 15.25v-1.5A2.75 2.75 0 0 1 8.25 11m5.5 5.5a3.75 3.75 0 1 1 7.5 0c0 1.414-.914 2.598-1.98 3.486a10.3 10.3 0 0 1-1.77 1.178 10.3 10.3 0 0 1-1.77-1.177c-1.066-.889-1.98-2.073-1.98-3.487m3.445 6.185L17.5 22zl.305.136.305-.136L17.5 22l.305.685h.002l.004-.003.014-.006a6 6 0 0 0 .204-.098 11.8 11.8 0 0 0 2.201-1.44c1.184-.986 2.52-2.552 2.52-4.638a5.25 5.25 0 1 0-10.5 0c0 2.086 1.336 3.652 2.52 4.639a11.8 11.8 0 0 0 2.405 1.537l.014.006.004.002zM17.5 15a1.5 1.5 0 0 0 0 3h.009a1.5 1.5 0 0 0 0-3z" clip-rule="evenodd"/></svg>