<svg xmlns="http://www.w3.org/2000/svg" fill="none" viewBox="0 0 24 24"><path fill="currentColor" fill-rule="evenodd" d="M10.25 4.5a1.75 1.75 0 1 1 3.5 0 1.75 1.75 0 0 1-3.5 0M12 1.25a3.25 3.25 0 0 0-.75 6.413V11h1.5V7.663A3.251 3.251 0 0 0 12 1.25M1.25 9A.75.75 0 0 1 2 8.25h5v1.5H2.75v11.5h18.5V9.75H17v-1.5h5a.75.75 0 0 1 .75.75v13a.75.75 0 0 1-.75.75H2a.75.75 0 0 1-.75-.75zm7.83 5.665-3.458-2.017.756-1.296 7.396 4.314 3.81-2.54.832 1.248-3.2 2.134 3.162 1.844-.756 1.296-7.097-4.14-4.111 2.718-.828-1.252z" clip-rule="evenodd"/></svg>