<svg xmlns="http://www.w3.org/2000/svg" fill="none" viewBox="0 0 24 24"><path fill="currentColor" fill-rule="evenodd" d="M3 2.25a.75.75 0 0 0-.75.75v18c0 .414.336.75.75.75h18a.75.75 0 0 0 .75-.75V3a.75.75 0 0 0-.75-.75zm.75 16.94V8.81L8.94 14zm1.06 1.06h10.38L10 15.06zm12.5 0L3.75 6.69V3.75h16.5v16.5zM14.5 6.75c-1.576 0-2.75 1.166-2.75 2.482 0 .752.299 1.345 1.035 1.94a17 17 0 0 1 1.723 1.644 18 18 0 0 1 1.707-1.643c.736-.596 1.035-1.19 1.035-1.94 0-1.317-1.174-2.483-2.75-2.483m-4.25 2.482c0-2.254 1.96-3.982 4.25-3.982s4.25 1.728 4.25 3.982c0 1.29-.576 2.285-1.59 3.106-.585.474-1.63 1.511-2.05 2.098a.75.75 0 0 1-1.234-.02c-.181-.272-.53-.665-.938-1.073-.399-.4-.814-.775-1.098-1.005-1.014-.821-1.59-1.816-1.59-3.106m3.25.268a1 1 0 0 1 1-1h.009a1 1 0 1 1 0 2H14.5a1 1 0 0 1-1-1" clip-rule="evenodd"/></svg>