<svg xmlns="http://www.w3.org/2000/svg" fill="none" viewBox="0 0 24 24"><path fill="currentColor" fill-rule="evenodd" d="m12.872 1.708-.851 1.995-.896-2.008-1.37.611 1.463 3.28-.759 1.778a7 7 0 0 0-1.176.314L6.688 1.702 5.313 2.3l2.616 6.03C5.72 9.682 4.25 12.173 4.25 15c0 4.254 3.332 7.75 7.5 7.75h.5c4.168 0 7.5-3.496 7.5-7.75 0-2.825-1.47-5.316-3.677-6.67L18.69 2.3l-1.376-.597L14.72 7.68a7.3 7.3 0 0 0-2.47-.429h-.112l2.114-4.954zM5.75 15c0-3.478 2.712-6.25 6-6.25h.5c3.288 0 6 2.772 6 6.25s-2.712 6.25-6 6.25h-.5c-3.288 0-6-2.772-6-6.25m3.75 3.75h4.75v-7.5H9.5v1.5h3.25v1.5H10.5v1.5h2.25v1.5H9.5z" clip-rule="evenodd"/></svg>