<svg xmlns="http://www.w3.org/2000/svg" fill="none" viewBox="0 0 24 24"><path fill="currentColor" fill-rule="evenodd" d="M19.75 1.25H4.25v8.546l2.202 2.359a6.75 6.75 0 1 0 11.097 0l2.201-2.36zm-3.194 9.77 1.694-1.816V2.75h-5.5v6.541a6.73 6.73 0 0 1 3.806 1.728M11.25 2.75h-5.5v6.454l1.694 1.815a6.73 6.73 0 0 1 3.806-1.728zM6.75 16a5.25 5.25 0 1 1 10.5 0 5.25 5.25 0 0 1-10.5 0M12 12.75a3.25 3.25 0 1 0 0 6.5 3.25 3.25 0 0 0 0-6.5M10.25 16a1.75 1.75 0 1 1 3.5 0 1.75 1.75 0 0 1-3.5 0" clip-rule="evenodd"/></svg>