<svg xmlns="http://www.w3.org/2000/svg" fill="none" viewBox="0 0 24 24"><path fill="currentColor" fill-rule="evenodd" d="M13.488 15.94a3.25 3.25 0 0 1 3.938-.862l-4.009 4.893a3.25 3.25 0 0 1 .071-4.03m1.09 4.982 4.009-4.893a3.251 3.251 0 0 1-4.01 4.893m4.434-6.596a4.75 4.75 0 1 0-6.02 7.348 4.75 4.75 0 0 0 6.02-7.348m-4.613-7.413c.017-.048.037-.096.068-.163H15a.75.75 0 0 0 .75-.75V2a.75.75 0 0 0-.75-.75H5a.75.75 0 0 0-.75.75v4c0 .414.336.75.75.75h.533a2.25 2.25 0 0 1-.103 2.07c-.06.102-.14.21-.372.519l-.403.538-.043.057c-.41.545-.673.897-.867 1.288a4.8 4.8 0 0 0-.416 1.247c-.08.43-.08.87-.079 1.551V22c0 .414.336.75.75.75h6v-1.5H4.75v-7.158c0-.778.003-1.072.054-1.35a3.3 3.3 0 0 1 .285-.853c.125-.253.3-.49.766-1.112l.403-.538.027-.035c.196-.262.33-.441.44-.627A3.75 3.75 0 0 0 7.12 6.75h5.76a3.75 3.75 0 0 0 .396 2.827c.108.186.243.365.44.627l.43.573c.465.621.64.859.765 1.112l1.344-.667c-.194-.39-.458-.743-.867-1.288l-.043-.057-.403-.538c-.232-.31-.312-.417-.372-.52a2.25 2.25 0 0 1-.171-1.906M5.75 2.75v2.5h8.5v-2.5z" clip-rule="evenodd"/></svg>