<svg xmlns="http://www.w3.org/2000/svg" fill="none" viewBox="0 0 24 24"><path fill="currentColor" fill-rule="evenodd" d="M1.543 21.084.99 22.476l1.194-.384.493-.16 4.1-1.317c1.673.828 3.523.949 5.132.95 3.303.228 6.135-.663 8.19-2.577 1.872-1.744 2.904-4.193 2.906-6.895.052-2.364-.385-5.66-2.752-7.97-1.928-1.88-4.768-2.75-8.442-2.578-8.958.166-10.296 6.524-10.296 10.3 0 1.534.268 3.7 1.502 5.533l-1.252 3.15zm5.665-1.936-.284-.157-3.366 1.082 1.16-2.916-.258-.338c-1.195-1.568-1.446-3.571-1.446-4.975 0-2.582.633-4.637 1.881-6.108 1.468-1.73 3.807-2.635 6.953-2.692h.022c3.245-.154 5.714.573 7.335 2.154 1.984 1.936 2.346 4.804 2.3 6.87v.017c0 2.283-.863 4.345-2.43 5.805-1.747 1.628-4.197 2.38-7.087 2.177l-.053-.002c-1.519 0-3.268-.11-4.727-.917m8.056-6.375h2v-2h-2.01zm-4 0h2v-2h-2zm-3.99 0h2v-2h-2.01z" clip-rule="evenodd"/></svg>