<svg xmlns="http://www.w3.org/2000/svg" fill="none" viewBox="0 0 24 24"><path fill="currentColor" fill-rule="evenodd" d="M18.517 2.75c-.684 0-1.243.557-1.243 1.25v.749h5.48v6.998h-8.475V4.748h1.495v-.75a2.746 2.746 0 0 1 2.743-2.749c.82 0 1.556.362 2.057.931l-1.126.991a1.24 1.24 0 0 0-.931-.422m-2.738 3.499v3.997h5.475V6.25zM12.04 10.75H7.557v-1.5h4.483zm4.484 3.498v1.5H7.557v-1.5zM12.81 3.742l-3.094.014c-3.593.467-5.691 2.781-6.537 5.563-.862 2.835-.395 6.089 1.122 8.24l.236.333-1.165 2.888 3.272-1.106.302.192c.473.3 1.193.547 2.091.716.887.167 1.898.248 2.914.25a18 18 0 0 0 2.9-.226c.89-.15 1.597-.362 2.046-.6 1.867-.992 3.99-2.814 4.346-6.476l1.492.145c-.418 4.316-2.98 6.511-5.134 7.655-.655.348-1.544.594-2.501.755-.97.163-2.06.248-3.15.246a17.7 17.7 0 0 1-3.19-.275c-.84-.158-1.642-.395-2.295-.738l-4.072 1.377a1 1 0 0 1-.235.053.76.76 0 0 1-.818-.876 1 1 0 0 1 .067-.23l.001-.003 1.436-3.561c-1.622-2.551-2.039-6.108-1.1-9.195C2.738 5.61 5.28 2.8 9.574 2.262l.024-.003.025-.002q.255-.015.517-.015v.012l2.663-.012z" clip-rule="evenodd"/></svg>