<svg xmlns="http://www.w3.org/2000/svg" fill="none" viewBox="0 0 24 24"><path fill="currentColor" fill-rule="evenodd" d="m16.419 8.425-3.484-3.519 3.484-3.508 1.064 1.057-1.69 1.702h6.099v1.5H15.79l1.695 1.712zm.034 7.186h-8.89v-1.5h8.89zm-3.46-4.97h-5.43v-1.5h5.43zM1.586 22.324a.84.84 0 0 0 .628.281l.001-.002q.143 0 .283-.048l4.06-1.365c2.811 1.384 8.12 1.412 11.002.011l.105-.06c2.044-1.273 5.463-3.4 5.047-10.368V8.906h-1.5l.001 1.89v.048c.147 2.426.37 6.092-4.34 9.023l-.004.002c-2.768 1.323-7.817 1.025-9.878-.144L6.7 19.56l-3.324 1.118 1.213-2.917-.228-.334c-1.839-2.702-2.13-6.357-.746-9.313C4.83 5.526 7.075 3.945 9.94 3.657h.027l1.33-.009-.01-1.5-.916.007v-.007q-.132 0-.259.005l-.158.005h-.058l-.067.004c-3.38.327-6.14 2.264-7.572 5.316-1.547 3.301-1.289 7.356.64 10.449l-1.452 3.49a.84.84 0 0 0 .142.907" clip-rule="evenodd"/></svg>