<svg xmlns="http://www.w3.org/2000/svg" fill="none" viewBox="0 0 24 24"><path fill="currentColor" fill-rule="evenodd" d="m18.966 1.094 3.511 3.536-1.064 1.057-1.697-1.71v6.181h-1.5v-6.18L16.52 5.687 15.456 4.63zM7.043 11.656h2.009v2H7.043zm3.967 0h2.01v2h-2.01zm3.968 0h2.009v2h-2.01zm-.833-9.25H9.362l-.06.01c-4.212.695-6.67 3.553-7.607 6.815-.883 3.075-.44 6.573 1.17 9.067l-1.449 3.499-.005.012v.003l-.035.095a.8.8 0 0 0-.007.464.76.76 0 0 0 .796.54 1 1 0 0 0 .234-.053l4.029-1.348c.64.342 1.423.58 2.245.742a17 17 0 0 0 3.133.29 18.4 18.4 0 0 0 3.095-.233c.94-.158 1.816-.402 2.46-.753 1.01-.55 2.397-1.395 3.511-2.836 1.127-1.457 1.937-3.473 1.876-6.295l-1.5.032c.054 2.492-.653 4.17-1.562 5.346-.922 1.192-2.089 1.917-3.041 2.435-.433.236-1.121.445-1.992.591-.858.144-1.843.219-2.839.213a15.7 15.7 0 0 1-2.853-.262c-.88-.172-1.581-.42-2.04-.719l-.303-.196-3.225 1.08 1.172-2.832-.244-.34C2.818 15.68 2.323 12.48 3.137 9.646c.798-2.778 2.831-5.136 6.349-5.739h4.659z" clip-rule="evenodd"/></svg>