<svg xmlns="http://www.w3.org/2000/svg" fill="none" viewBox="0 0 24 24"><path fill="currentColor" fill-rule="evenodd" d="m22.46 2.451-6.474 6.475-2.511-2.512 1.06-1.06 1.451 1.45L21.4 1.392zm-15.4 8.877h2.01v2H7.06zm3.959 0h2.009v2h-2.01zm3.958 0h2.01v2h-2.01zm-4.463-9.172v.01l.931-.01.014 1.5-1.393.014c-3.375.2-5.675 2.326-6.71 5.077-1.044 2.779-.766 6.129.998 8.628l.235.332-1.168 2.935 3.253-1.195.315.205c.443.29 1.166.542 2.097.715.916.17 1.975.253 3.043.241 1.07-.012 2.13-.118 3.051-.318.935-.202 1.667-.487 2.126-.819l.037-.026.04-.022c1.007-.557 2.336-1.69 3.143-3.502.8-1.797 1.117-4.33.005-7.761l1.427-.463c1.211 3.738.906 6.658-.062 8.833-.95 2.137-2.51 3.49-3.75 4.185-.697.49-1.643.823-2.648 1.041-1.038.225-2.201.34-3.352.352a17.5 17.5 0 0 1-3.334-.266c-.855-.16-1.663-.397-2.305-.736l-3.935 1.446a.85.85 0 0 1-1.083-1.112l1.41-3.542C1.028 15 .796 11.294 1.952 8.22 3.162 5 5.927 2.406 9.996 2.172q.255-.015.517-.015" clip-rule="evenodd"/></svg>