<svg xmlns="http://www.w3.org/2000/svg" fill="none" viewBox="0 0 24 24"><path fill="currentColor" fill-rule="evenodd" d="M13.291 5.529c0-2.359 1.9-4.279 4.255-4.279s4.255 1.92 4.255 4.279c0 .91-.283 1.756-.767 2.451l1.49 1.495-1.063 1.059-1.486-1.492a4.2 4.2 0 0 1-2.429.765c-2.354 0-4.255-1.92-4.255-4.278m4.255-2.779a2.767 2.767 0 0 0-2.755 2.779 2.767 2.767 0 0 0 2.755 2.778 2.767 2.767 0 0 0 2.755-2.778 2.767 2.767 0 0 0-2.755-2.779m-10.47 8.758h2.01v2h-2.01zm3.972 0h2.008v2h-2.008zm3.97 0h2.01v2h-2.01zm-5.15-7.744 2.185-.014-.009-1.5-1.741.01v-.01q-.265 0-.524.015l-.022.001-.022.003c-4.216.494-6.847 3.218-7.92 6.467-1.018 3.08-.654 6.676 1.078 9.373l-1.397 3.367-.002.005c-.035.084-.078.22-.093.359v.003a.86.86 0 0 0 .061.442.776.776 0 0 0 .973.423l4.04-1.39c.628.348 1.405.597 2.227.77.986.206 2.093.312 3.199.323 2.172.022 4.5-.325 5.921-1.147 1.196-.691 2.445-1.606 3.386-3.04.946-1.44 1.541-3.34 1.541-5.939h-1.5c0 2.359-.536 3.961-1.294 5.116-.763 1.16-1.79 1.933-2.884 2.565-1.068.617-3.067.966-5.156.945a15 15 0 0 1-2.906-.292c-.886-.185-1.581-.446-2.022-.746l-.31-.21-3.272 1.125 1.186-2.858-.239-.339c-1.633-2.308-2.039-5.581-1.113-8.384.911-2.759 3.091-5.014 6.63-5.443M2.887 22.039l-.002.006z" clip-rule="evenodd"/></svg>