<svg xmlns="http://www.w3.org/2000/svg" fill="none" viewBox="0 0 24 24"><path fill="currentColor" fill-rule="evenodd" d="M16.366 3.36c.565-.316 1.013-.563 1.597-.61.473.007.905.214 1.53.528l.03.015c.44.222.982.494 1.616.613.243 1.584-.029 2.733-.552 3.552-.554.868-1.452 1.463-2.568 1.793-1.042-.285-1.952-.859-2.53-1.726-.544-.816-.847-1.97-.604-3.557.58-.104 1.06-.373 1.45-.59zm5.409-.894c-.524 0-.985-.215-1.609-.528l-.068-.035c-.565-.285-1.296-.653-2.16-.653h-.027l-.026.002c-.942.066-1.654.464-2.191.765l-.06.034c-.581.325-.92.487-1.324.458l-.648-.048-.139.635c-.48 2.187-.158 3.948.717 5.26.868 1.302 2.216 2.067 3.613 2.401l.184.044.182-.048c1.461-.387 2.795-1.176 3.633-2.488.842-1.32 1.114-3.059.657-5.206l-.127-.593zM9.756 3.786l1.559-.013-.013-1.5-1.122.01v-.01q-.261 0-.518.015l-.025.002-.025.003c-4.303.538-6.864 3.33-7.865 6.594-.945 3.082-.52 6.635 1.133 9.199L1.47 21.61a.77.77 0 0 0-.07.624.75.75 0 0 0 .736.521.8.8 0 0 0 .21-.034h.003l.057-.02 4.07-1.37c.639.33 1.429.56 2.258.713.988.183 2.092.27 3.183.273a19.6 19.6 0 0 0 3.162-.238c.962-.158 1.857-.401 2.515-.75 1.172-.62 2.532-1.566 3.563-3.039 1.04-1.485 1.713-3.46 1.573-6.07l-1.498.08c.123 2.288-.464 3.93-1.304 5.13-.849 1.213-1.99 2.02-3.035 2.574-.45.238-1.162.448-2.057.595a18 18 0 0 1-2.915.218 16.6 16.6 0 0 1-2.914-.248c-.895-.166-1.601-.405-2.052-.69l-.301-.19-3.235 1.089 1.154-2.886-.239-.334c-1.547-2.165-2.018-5.41-1.153-8.23.849-2.769 2.962-5.074 6.575-5.541m-2.668 7.737h2.009v2h-2.01zm3.995 0h2.01v2h-2.01zm3.996 0h2.009v2h-2.01z" clip-rule="evenodd"/></svg>