<svg xmlns="http://www.w3.org/2000/svg" fill="none" viewBox="0 0 24 24"><path fill="currentColor" fill-rule="evenodd" d="m16.99 22.015 1.42.483v-.002l.597-1.753c.563-.366 1.496-1.01 1.79-1.418.581-.805.852-1.82 1.392-3.846l.355-1.333a2.6 2.6 0 0 0-1.43-3.043l-.29-.133a1.5 1.5 0 0 0-.72-.136 2.6 2.6 0 0 0-1.778-1.666 1.65 1.65 0 0 0-.686-.039 2.6 2.6 0 0 0-1.745-1.576l-.168-.045.881-3.307a2.144 2.144 0 0 0-1.506-2.621 2.1 2.1 0 0 0-1.615.211 2.13 2.13 0 0 0-.999 1.304l-1.906 7.158-.148-.259a2.296 2.296 0 0 0-3.366-.709 2.33 2.33 0 0 0-.772 2.728l.01.024 2.775 5.786-.557 1.947 1.442.412.713-2.495-2.998-6.25a.825.825 0 0 1 .28-.948.794.794 0 0 1 1.169.249l1.961 3.428 2.844-10.685a.64.64 0 0 1 .3-.39.62.62 0 0 1 .473-.063.64.64 0 0 1 .448.787l-1.55 5.821 1.45.386.283-1.064.164.044c.583.157.93.765.773 1.354l-.239.895 1.45.387.238-.896a.173.173 0 0 1 .208-.124c.583.157.931.765.774 1.355l-.238.895 1.45.385.238-.895a.03.03 0 0 1 .018-.023.02.02 0 0 1 .021 0h.001l.29.133c.49.224.745.768.605 1.293l-.355 1.333c-.492 1.847-.739 2.774-1.156 3.352-.134.168-.884.72-1.604 1.177l-.222.142zM2.4 10.785l1.718-1.679v1.144h1.5V6.498H1.876v1.5h1.23L1.352 9.714zm3.735-4.781h3.737v-1.5H8.696l1.72-1.717-1.06-1.062-1.721 1.719V2.258h-1.5z" clip-rule="evenodd"/></svg>