<svg xmlns="http://www.w3.org/2000/svg" fill="none" viewBox="0 0 24 24"><path fill="currentColor" fill-rule="evenodd" d="M11.25 2v4h1.5V2zm4 1v2h1.5V3zm-8 2v2h1.5V5zm13.888-.129a11 11 0 0 1 1.102.414l.066.03.02.01.005.003h.003v.001l.416.208v16.677l-1.084-.542-.012-.006-.026-.012-.029-.013a6 6 0 0 0-.237-.1 10 10 0 0 0-.943-.32 12.5 12.5 0 0 0-3.419-.47c-1.826 0-3.465.36-4.683.93-1.447.675-3.309 1.07-5.317 1.07-.35 0-.814-.078-1.271-.172a42 42 0 0 1-1.513-.35l-.236-.058a56 56 0 0 0-1.18-.282c-.44-.098-.701-.138-.8-.138h-.75V4.893l1.029.411c1.171.469 2.086.704 2.825.823L5 7.628a13 13 0 0 1-2.249-.553v13.27q.187.038.375.08c.366.081.79.185 1.217.29l.231.057c.51.125 1.015.247 1.457.338.458.093.788.14.97.14 1.826 0 3.465-.36 4.683-.929 1.447-.676 3.309-1.07 5.317-1.07a14 14 0 0 1 4.25.656V6.497a10 10 0 0 0-.56-.194c-.447-.14-1.03-.29-1.723-.4l.133-1.497c.82.123 1.51.3 2.038.465M12 11.75a1.75 1.75 0 1 0 0 3.5 1.75 1.75 0 0 0 0-3.5M8.75 13.5a3.25 3.25 0 1 1 6.5 0 3.25 3.25 0 0 1-6.5 0M6.5 15.509V13.5h-2v2.009zm13-4.017v2.01h-2v-2.01z" clip-rule="evenodd"/></svg>