<svg xmlns="http://www.w3.org/2000/svg" fill="none" viewBox="0 0 24 24"><path fill="currentColor" fill-rule="evenodd" d="M17.607 3.678a4.1 4.1 0 0 0-.692.984A9.24 9.24 0 0 1 21.25 12.5c0 2.7-1.157 5.13-3 6.82v3.43H5.75v-3.43a9.23 9.23 0 0 1-3-6.82 9.24 9.24 0 0 1 4.335-7.838 4.1 4.1 0 0 0-.692-.984C5.873 3.13 5.224 2.75 4.5 2.75v-1.5c1.276 0 2.293.67 2.982 1.397.391.413.712.88.934 1.323A9.2 9.2 0 0 1 12 3.25c1.27 0 2.482.256 3.584.72a5.7 5.7 0 0 1 .934-1.323c.69-.727 1.706-1.397 2.982-1.397v1.5c-.724 0-1.374.38-1.893.928M12 4.75a7.75 7.75 0 0 0-5.014 13.66l.264.224v2.616h9.5v-2.616l.264-.225A7.75 7.75 0 0 0 12 4.75M8.25 11.5c0-1.354 1.493-2.75 3.75-2.75s3.75 1.396 3.75 2.75-1.493 2.75-3.75 2.75-3.75-1.396-3.75-2.75M12 7.25c-2.713 0-5.25 1.738-5.25 4.25s2.537 4.25 5.25 4.25 5.25-1.738 5.25-4.25S14.713 7.25 12 7.25m1.009 3.25H11v2h2.009zm-1.01 7.75a2.85 2.85 0 0 1-1.98-.791L8.98 18.541A4.35 4.35 0 0 0 12 19.75a4.35 4.35 0 0 0 3.02-1.209l-1.04-1.082a2.85 2.85 0 0 1-1.98.791" clip-rule="evenodd"/></svg>