<svg xmlns="http://www.w3.org/2000/svg" fill="none" viewBox="0 0 24 24"><path fill="currentColor" fill-rule="evenodd" d="M3.193 7.589A3.34 3.34 0 0 1 2.754 6.1a3.85 3.85 0 0 0 3.213-.314 3.9 3.9 0 0 0 1.87-2.647c.417.275.778.65 1.045 1.118q.185.325.292.667a6.26 6.26 0 0 0-3.298 4.322 3.28 3.28 0 0 1-2.683-1.657m.634 2.615a4.8 4.8 0 0 1-1.937-1.87 4.85 4.85 0 0 1-.493-3.595.75.75 0 0 1 1.182-.413 2.37 2.37 0 0 0 2.632.164 2.43 2.43 0 0 0 1.18-2.398.75.75 0 0 1 .95-.813 4.78 4.78 0 0 1 2.844 2.233q.248.437.4.899a6.25 6.25 0 0 1 7.663 5.892A5.25 5.25 0 0 1 22.75 15.5c0 2.702-2.02 4.968-4.672 5.246l-.156-1.492c1.873-.196 3.328-1.806 3.328-3.754a3.75 3.75 0 0 0-3.136-3.7 6.2 6.2 0 0 1-1.293 2.678l-1.156-.956A4.72 4.72 0 0 0 16.75 10.5a4.75 4.75 0 0 0-9.338-1.235c1.135.08 2.18.49 3.039 1.135l-.901 1.2a4.23 4.23 0 0 0-2.959-.83A4.25 4.25 0 0 0 2.75 15c0 2.069 1.473 3.85 3.4 4.24l-.3 1.47c-2.637-.535-4.6-2.941-4.6-5.71a5.74 5.74 0 0 1 2.577-4.796M12 14.954l.522.505.227.216c.366.347.893.847 1.35 1.387.286.338.566.714.776 1.11.208.39.375.846.375 1.329 0 1.581-1.222 3.246-3.25 3.246s-3.25-1.665-3.25-3.246c0-.483.167-.94.375-1.33a6.5 6.5 0 0 1 .775-1.109c.458-.54.985-1.04 1.35-1.387q.13-.121.228-.216zm-1.552 3.923c-.145.273-.198.48-.198.624 0 .88.671 1.746 1.75 1.746s1.75-.866 1.75-1.746c0-.145-.053-.351-.198-.624a5 5 0 0 0-.597-.846 14 14 0 0 0-.955-.997 14 14 0 0 0-.955.997 5 5 0 0 0-.597.846" clip-rule="evenodd"/></svg>