<svg xmlns="http://www.w3.org/2000/svg" fill="none" viewBox="0 0 24 24"><path fill="currentColor" fill-rule="evenodd" d="M8.5 2.25a.75.75 0 0 0-.75.75v7c0 .414.336.75.75.75h7a.75.75 0 0 0 .75-.75V3a.75.75 0 0 0-.75-.75zm.75 7v-5.5h5.5v5.5zm-8 4.75a.75.75 0 0 1 .75-.75h7a.75.75 0 0 1 .75.75v7a.75.75 0 0 1-.75.75H2a.75.75 0 0 1-.75-.75zm1.5.75v5.5h5.5v-5.5zm11.5-.75a.75.75 0 0 1 .75-.75h7a.75.75 0 0 1 .75.75v7a.75.75 0 0 1-.75.75h-7a.75.75 0 0 1-.75-.75zm1.5.75v5.5h5.5v-5.5z" clip-rule="evenodd"/></svg>