<svg xmlns="http://www.w3.org/2000/svg" fill="none" viewBox="0 0 24 24"><path fill="currentColor" fill-rule="evenodd" d="M2.25 2.25h4.5v4.5h-4.5zm1.5 1.5v1.5h1.5v-1.5zm13.5-1.5h4.5v4.5h-4.5zm1.5 1.5v1.5h1.5v-1.5zm-4.5-1.5h-4.5v4.5h4.5zm-3 3v-1.5h1.5v1.5zm-9 12h4.5v4.5h-4.5zm1.5 1.5v1.5h1.5v-1.5zm3-9h-4.5v4.5h4.5zm-3 3v-1.5h1.5v1.5zm13.5 4.5h4.5v4.5h-4.5zm1.5 1.5v1.5h1.5v-1.5zm3-9h-4.5v4.5h4.5zm-3 3v-1.5h1.5v1.5zm-9 4.5h4.5v4.5h-4.5zm1.5 1.5v1.5h1.5v-1.5zm3-9h-4.5v4.5h4.5zm-3 3v-1.5h1.5v1.5z" clip-rule="evenodd"/></svg>