<svg xmlns="http://www.w3.org/2000/svg" fill="none" viewBox="0 0 24 24"><path fill="currentColor" fill-rule="evenodd" d="M13.5 1.25c-.966 0-1.91.081-2.826.194-2.8.345-4.963 2.666-5.18 5.408C5.36 8.515 5.25 10.238 5.25 12s.111 3.485.243 5.148c.218 2.742 2.381 5.063 5.18 5.408.916.113 1.861.194 2.827.194s1.911-.081 2.827-.194c2.8-.345 4.962-2.666 5.18-5.408.132-1.663.243-3.386.243-5.148s-.11-3.485-.243-5.148c-.218-2.742-2.38-5.063-5.18-5.408A23 23 0 0 0 13.5 1.25m-.75 1.517c-.632.028-1.262.088-1.893.166-2.082.256-3.706 1.996-3.868 4.038C6.857 8.62 6.75 10.298 6.75 12s.107 3.379.239 5.03c.162 2.04 1.785 3.78 3.868 4.037.88.109 1.76.183 2.643.183.884 0 1.764-.074 2.643-.183 2.083-.256 3.707-1.996 3.869-4.038.131-1.65.238-3.327.238-5.029s-.107-3.378-.238-5.03c-.162-2.04-1.786-3.78-3.869-4.037a24 24 0 0 0-1.893-.166V5.25H15a.75.75 0 0 1 .75.75v4a.75.75 0 0 1-.75.75h-.75V12h-1.5v-1.25H12a.75.75 0 0 1-.75-.75V6a.75.75 0 0 1 .75-.75h.75zM4.452 1.489C3.305 2.719 2.52 4.222 2.259 5.884l1.482.232c.21-1.336.845-2.571 1.808-3.605zM12.75 6.75v2.5h1.5v-2.5z" clip-rule="evenodd"/></svg>