<svg xmlns="http://www.w3.org/2000/svg" fill="none" viewBox="0 0 24 24"><path fill="currentColor" fill-rule="evenodd" d="M12.25 7.87V6.39c-.413.022-.855.063-1.348.124-1.567.193-2.841 1.522-2.964 3.092-.091 1.203-.188 2.607-.188 4.012s.097 2.808.188 4.013c.123 1.57 1.397 2.9 2.964 3.092.803.1 1.469.145 2.098.145s1.296-.046 2.098-.145c1.567-.193 2.841-1.522 2.964-3.092.091-1.203.188-2.607.188-4.012s-.097-2.809-.188-4.015c-.123-1.568-1.397-2.897-2.964-3.09-.493-.06-.935-.101-1.348-.124v1.48h.75a.75.75 0 0 1 .75.75v4a.75.75 0 0 1-.75.75h-3a.75.75 0 0 1-.75-.75v-4a.75.75 0 0 1 .75-.75zm-1.532-2.844c.56-.07 1.06-.114 1.532-.138V3.87H5a.75.75 0 0 1-.75-.75v-1.5h1.5v.75H13a.75.75 0 0 1 .75.75v1.77c.471.023.972.068 1.532.137a4.9 4.9 0 0 1 4.276 4.464c.093 1.235.192 2.672.192 4.13s-.099 2.895-.192 4.127a4.9 4.9 0 0 1-4.276 4.466c-.865.107-1.59.157-2.282.157s-1.417-.05-2.282-.158a4.9 4.9 0 0 1-4.276-4.464v-.002c-.093-1.233-.192-2.67-.192-4.127s.099-2.895.192-4.127a4.9 4.9 0 0 1 4.276-4.466M13.75 9.37v2.5h-1.5v-2.5z" clip-rule="evenodd"/></svg>