<svg xmlns="http://www.w3.org/2000/svg" fill="none" viewBox="0 0 24 24"><path fill="currentColor" fill-rule="evenodd" d="M9.174 22.554c1.089.134 1.987.196 2.826.196.84 0 1.738-.063 2.827-.196a5.94 5.94 0 0 0 5.18-5.405c.12-1.514.243-3.308.243-5.15s-.123-3.637-.243-5.15a5.94 5.94 0 0 0-5.18-5.405 23 23 0 0 0-2.826-.196c-.84 0-1.738.063-2.827.196a5.94 5.94 0 0 0-5.18 5.405c-.12 1.514-.243 3.308-.243 5.15s.123 3.637.243 5.15a5.94 5.94 0 0 0 5.18 5.405m.182-19.62A22 22 0 0 1 12 2.75c.777 0 1.617.058 2.644.184 2.042.251 3.705 1.986 3.868 4.035.118 1.484.239 3.242.239 5.031s-.121 3.547-.239 5.031c-.163 2.049-1.826 3.784-3.868 4.035A22 22 0 0 1 12 21.25c-.777 0-1.617-.058-2.644-.184-2.043-.251-3.706-1.986-3.868-4.035-.118-1.484-.239-3.242-.239-5.031s.121-3.547.239-5.031C5.65 4.92 7.313 3.185 9.356 2.934m-.344 8.609 3.004 2.432 2.946-2.382-.942-1.166-1.254 1.013V7.561l1.297 1.027.932-1.176-2.977-2.357L9.021 7.41l.926 1.18 1.319-1.037v3.885l-1.31-1.061z" clip-rule="evenodd"/></svg>