<svg xmlns="http://www.w3.org/2000/svg" fill="none" viewBox="0 0 24 24"><path fill="currentColor" fill-rule="evenodd" d="M6.75 8a5.25 5.25 0 0 1 4.5-5.197V4.25h-.75a.75.75 0 0 0-.75.75v4c0 .414.336.75.75.75h.75V11h1.5V9.75h.75a.75.75 0 0 0 .75-.75V5a.75.75 0 0 0-.75-.75h-.75V2.803a5.25 5.25 0 0 1 4.294 6.66c-.45 1.556-.629 3.5-.206 5.146.108.419.26 1.004.408 1.49-.138 2.808-2.46 5.151-5.246 5.151s-5.108-2.343-5.246-5.15c.149-.487.3-1.072.408-1.49.423-1.648.245-3.591-.205-5.147A5.3 5.3 0 0 1 6.75 8m-1.5 0a6.75 6.75 0 1 1 13.235 1.88c-.4 1.381-.532 3.041-.194 4.356.12.463.278 1.075.424 1.538l.038.12-.003.126c-.096 3.617-3.057 6.73-6.75 6.73s-6.653-3.113-6.75-6.73l-.003-.126.038-.12a33 33 0 0 0 .424-1.538c.338-1.315.206-2.975-.193-4.356A6.8 6.8 0 0 1 5.25 8m6 .25v-2.5h1.5v2.5z" clip-rule="evenodd"/></svg>