<svg xmlns="http://www.w3.org/2000/svg" fill="none" viewBox="0 0 24 24"><path fill="currentColor" fill-rule="evenodd" d="M5.25 16.021c.103 3.71 3.131 6.729 6.75 6.729l.002-.001c3.62 0 6.647-3.018 6.75-6.729l.003-.124-.037-.118a40 40 0 0 1-.43-1.543c-.31-1.212-.239-2.838.193-4.352A6.5 6.5 0 0 0 18.751 8a6.76 6.76 0 0 0-6.75-6.75A6.76 6.76 0 0 0 5.251 8c0 .652.091 1.286.27 1.883.432 1.514.504 3.141.194 4.35a41 41 0 0 1-.43 1.546l-.038.118zM12 21.25c-2.776 0-5.106-2.3-5.246-5.152h.001a46 46 0 0 0 .412-1.489c.381-1.482.306-3.357-.205-5.143l-.003-.01a5 5 0 0 1-.208-1.455 5.26 5.26 0 0 1 4.499-5.196V4.25h-.75a.75.75 0 0 0-.75.75v4c0 .414.336.75.75.75h.75V11h1.5V9.75h.75a.75.75 0 0 0 .75-.75V5a.75.75 0 0 0-.75-.75h-.75V2.804a5.26 5.26 0 0 1 4.501 5.197c0 .507-.07.997-.208 1.455l-.003.01c-.51 1.787-.586 3.661-.205 5.146.11.419.265 1.003.411 1.486-.14 2.852-2.47 5.152-5.246 5.152m-.75-13h1.5v-2.5h-1.5zm-.75 9h3v1.5h-3z" clip-rule="evenodd"/></svg>