<svg xmlns="http://www.w3.org/2000/svg" fill="none" viewBox="0 0 24 24"><path fill="currentColor" fill-rule="evenodd" d="M3.863 4.546C5.143 2.482 7.277 1.25 10.5 1.25s5.357 1.232 6.637 3.296C18.375 6.542 18.75 9.216 18.75 12c0 2.785-.375 5.459-1.613 7.454-1.28 2.064-3.414 3.296-6.637 3.296s-5.357-1.232-6.637-3.296C2.625 17.46 2.25 14.784 2.25 12c0-2.785.375-5.458 1.613-7.454M3.76 11.25h5.99v-1.5H9A.75.75 0 0 1 8.25 9V5.5A.75.75 0 0 1 9 4.75h.75V2.777c-2.324.17-3.733 1.142-4.613 2.56C4.22 6.816 3.826 8.865 3.76 11.25m7.49-6.5H12a.75.75 0 0 1 .75.75V9a.75.75 0 0 1-.75.75h-.75v1.5h5.99c-.066-2.385-.46-4.434-1.377-5.913-.88-1.418-2.29-2.39-4.613-2.56zm5.99 8H3.76c.066 2.385.46 4.434 1.377 5.913.97 1.564 2.586 2.587 5.363 2.587s4.393-1.023 5.363-2.587c.917-1.479 1.311-3.528 1.377-5.913m1.495-11.13-.881 1.5 1.293.76.881-1.5zm2.447 3.652-2-.5-.364 1.456 2 .5zM9.75 8.25v-2h1.5v2z" clip-rule="evenodd"/></svg>