<svg xmlns="http://www.w3.org/2000/svg" fill="none" viewBox="0 0 24 24"><path fill="currentColor" fill-rule="evenodd" d="m18.02 1.259 2.034 2.025-1.058 1.063-.222-.221v1.411h1.42l-.205-.201 1.053-1.068 2.038 2.01-2.043 2.03-1.058-1.064.209-.207h-1.414v1.419l.225-.224 1.056 1.066-2.028 2.01-2.03-2.01 1.055-1.066.222.22V7.037h-1.42l.208.207-1.058 1.064-2.043-2.03 2.038-2.01 1.053 1.068-.205.201h1.427v-1.41l-.22.219-1.06-1.06z" clip-rule="evenodd"/><path fill="currentColor" fill-rule="evenodd" d="m20.068 3.27-2.033-2.032-2.025 2.034 1.063 1.058.214-.215.001 1.406h-1.417l.201-.198-1.055-1.066-2.033 2.013 2.038 2.034 1.06-1.062-.221-.22h1.428l.001 1.43-.22-.219-1.057 1.064 2.029 2.018 2.027-2.02-1.058-1.062-.22.22-.002-1.432h1.421l-.22.221 1.059 1.062 2.037-2.034-2.031-2.013-1.056 1.066.2.199h-1.41l-.002-1.41.22.22zM7.823 5.92c0-.389.37-.824.984-.824s.984.435.985.823v6.549h5.334c1.09.101 1.78.745 2.046 1.598.06.19.076.415.076.721v4.335c0 .263-.017.468-.067.64-.133.457-.358.826-.676 1.096-.31.263-.749.468-1.372.537H7.605a.25.25 0 0 1-.206-.109l-4.208-6.235-.01-.012c-.48-.653-.394-1.157-.189-1.389l.004-.004c.21-.242.462-.376.7-.409.224-.03.49.019.777.245l3.35 2.878zm.984-2.324c-1.301 0-2.484.973-2.484 2.323v7.175l-.893-.768-.01-.009c-.593-.473-1.27-.656-1.928-.566-.644.089-1.21.432-1.626.909-.846.96-.609 2.286.098 3.255l4.192 6.21c.325.482.87.77 1.45.77h7.605l.037-.004c.901-.092 1.65-.398 2.228-.89.577-.49.944-1.13 1.145-1.82.11-.377.127-.75.127-1.06v-4.333c0-.332-.013-.75-.144-1.168-.446-1.433-1.656-2.505-3.383-2.65l-.031-.002h-3.898v-5.05c-.002-1.35-1.184-2.322-2.485-2.322" clip-rule="evenodd"/></svg>