<svg xmlns="http://www.w3.org/2000/svg" fill="none" viewBox="0 0 24 24"><path fill="currentColor" fill-rule="evenodd" d="M11.447 22.54c.15.133.349.208.553.208v.002a.84.84 0 0 0 .552-.207l2.729-2.265h4.129a.85.85 0 0 0 .85-.85v-4.147l2.27-2.71a.84.84 0 0 0 .22-.564.84.84 0 0 0-.219-.563L20.26 8.717v-4.14a.85.85 0 0 0-.85-.85h-4.138l-2.719-2.27a.84.84 0 0 0-1.106 0L8.728 3.732H4.59a.85.85 0 0 0-.85.85v4.135l-2.27 2.71a.84.84 0 0 0-.22.565c0 .206.079.408.22.562l2.27 2.714v4.14c0 .469.382.85.847.85l4.15.018zm-2.163-3.763-4.043-.017v-4.036L2.955 11.99l2.286-2.73V5.23h4.032l2.728-2.28 2.728 2.275h4.032v4.032l2.287 2.747-2.287 2.73v4.041H14.74l-2.738 2.273zm2.827-2.11a.74.74 0 0 0 .338.08v.002a.751.751 0 0 0 .588-1.216c-.36-.454-.276-.666-.248-.735.268-.671 2.083-1.392 4.316-1.712a.749.749 0 0 0 .041-1.476l-2.556-.514c.361-.187.712-.36 1.011-.505.621-.296.991-.9.966-1.575a1.82 1.82 0 0 0-1.18-1.618c-.548-.21-1.1-.194-1.557.045-.438.229-.75.647-.883 1.184a2.7 2.7 0 0 0 .106 1.59 40 40 0 0 0-.988.568.75.75 0 0 0 .236 1.38l1.322.265c-1.205.483-1.935 1.078-2.228 1.813a2 2 0 0 0-.047.133c-.286-.323-.37-.67-.413-1.181v-.01c-.048-.498-.037-1.152-.023-1.98.008-.468.017-1.001.017-1.603h-1.5c0 .589-.008 1.115-.016 1.579v.049c-.011.693-.02 1.269.006 1.767-.348.358-.817.668-1.185.668h-.01c-.142-.002-.359-.046-.623-.4l-1.203.897c.606.813 1.313.994 1.798 1.002.556.008 1.096-.202 1.563-.51.4.88 1.164 1.413 2.352 2.013m2.415-7.896a.2.2 0 0 1 .104-.02c.062 0 .137.014.217.045.159.06.219.186.222.275.002.077-.03.125-.119.167q-.255.124-.547.27a1.2 1.2 0 0 1 .004-.533c.015-.06.05-.168.12-.204" clip-rule="evenodd"/></svg>