<svg xmlns="http://www.w3.org/2000/svg" fill="none" viewBox="0 0 24 24"><path fill="currentColor" fill-rule="evenodd" d="M11.943 1.25a.75.75 0 0 1 .646.36l3.051 5A.75.75 0 0 1 15 7.75H9a.75.75 0 0 1-.646-1.131l2.949-5a.75.75 0 0 1 .64-.369m.017 2.208L10.313 6.25h3.35zm-3.612 13.17A.75.75 0 0 1 9 16.25h6a.75.75 0 0 1 .64 1.14l-3.05 5a.75.75 0 0 1-1.287-.01l-2.95-5a.75.75 0 0 1-.005-.752m1.965 1.122 1.647 2.792 1.704-2.792zm7.068-9.396A.75.75 0 0 0 16.25 9v6a.75.75 0 0 0 1.14.64l5-3.05a.75.75 0 0 0-.01-1.287zm.369 5.31v-3.35l2.792 1.646zM7.37 8.349A.75.75 0 0 1 7.75 9v6a.75.75 0 0 1-1.141.64l-5-3.05a.75.75 0 0 1 .01-1.287l5-2.949a.75.75 0 0 1 .752-.005M3.457 11.96l2.793 1.704v-3.35zm7.293.04a1.25 1.25 0 1 1 2.5 0 1.25 1.25 0 0 1-2.5 0M12 9.25a2.75 2.75 0 1 0 0 5.5 2.75 2.75 0 0 0 0-5.5" clip-rule="evenodd"/></svg>