<svg xmlns="http://www.w3.org/2000/svg" fill="none" viewBox="0 0 24 24"><path fill="currentColor" fill-rule="evenodd" d="M9.75 3.5a2.25 2.25 0 0 1 4.5 0c0 .935-.557 1.698-1.344 2.03l-.035.241a6 6 0 0 0-.859-.061c-1.697 0-3.238.747-4.362 1.85-1.132 1.11-1.78 2.52-1.78 3.773v2.835l-2.118 2.58v1.462h16.496v-1.528l-1.984-2.261 1.127-.99 2.357 2.687v3.592h-6.065a3.751 3.751 0 0 1-7.366 0H2.252v-3.499l2.118-2.58v-2.298c0-1.74.877-3.517 2.23-4.844a8 8 0 0 1 3.387-1.993A2.2 2.2 0 0 1 9.75 3.5m.114 16.21a2.251 2.251 0 0 0 4.272 0zM12 2.75a.75.75 0 0 0-.75.75c0 .38.313.71.762.71.433 0 .738-.314.738-.71a.75.75 0 0 0-.75-.75m7.19 4H15v-1.5h6.25v1.56l-4.44 4.44H21v1.5h-6.25v-1.56z" clip-rule="evenodd"/></svg>