<svg xmlns="http://www.w3.org/2000/svg" fill="none" viewBox="0 0 24 24"><path fill="currentColor" fill-rule="evenodd" d="M10.413 3.932c.969-.27 2.857-.41 5.207.846a6.56 6.56 0 0 1 2.68 2.679c1.172 2.189 1.18 4.095.839 5.373l-.004.014a2 2 0 0 1-.295.273c-.354.265-.837.31-1.737-.146-.907-.46-2.001-1.317-3.364-2.448a8.5 8.5 0 0 1-1.158-1.165c-.972-1.181-1.818-2.289-2.312-3.238-.524-1.01-.488-1.519-.303-1.775l.05-.072.007-.009.033-.048q.034-.048.066-.086a.8.8 0 0 1 .181-.154.4.4 0 0 1 .11-.044m5.915-.477c-2.712-1.45-5-1.334-6.316-.969a2 2 0 0 0-.511.222c-.413.261-.623.571-.718.711l-.032.046c-.443.613-.484 1.314-.33 2.003a13.8 13.8 0 0 0-4.425 2.687c-1.397 1.277-2.53 2.926-2.7 4.789l.746.068-.747-.068c-.178 1.955.183 3.384.478 4.517.303 1.165.471 1.848.222 2.593l-.476 1.422 1.424-.473c.75-.248 1.437-.08 2.605.221 1.137.294 2.569.654 4.529.476 1.867-.169 3.52-1.297 4.802-2.69a13.8 13.8 0 0 0 2.647-4.283c.753.179 1.513.113 2.21-.406.146-.108.416-.346.592-.566.16-.198.226-.41.26-.538.44-1.648.385-3.945-.965-6.468q-.331-.617-.76-1.164c1.395-.736 2.364-.271 2.657-.026l.963-1.15c-.81-.678-2.593-1.235-4.686.058q-.677-.587-1.47-1.012m-.19 10.701c-1.01-.566-2.135-1.464-3.357-2.479-.494-.41-.934-.85-1.359-1.366-.954-1.16-1.879-2.355-2.455-3.446a12.3 12.3 0 0 0-3.959 2.397c-1.254 1.146-2.096 2.474-2.219 3.818-.153 1.685.15 2.903.436 4.003l.035.137c.18.69.369 1.409.353 2.166.76-.017 1.48.17 2.174.35l.136.036c1.104.285 2.327.588 4.019.434 1.35-.122 2.683-.963 3.833-2.212a12.3 12.3 0 0 0 2.364-3.838" clip-rule="evenodd"/></svg>