<svg xmlns="http://www.w3.org/2000/svg" fill="none" viewBox="0 0 24 24"><path fill="currentColor" fill-rule="evenodd" d="M12.435 2.388 12 2.08l-.434.308c-2.721 1.933-7.56 6.388-9.668 9.378-.675.958-.659 2.09-.647 2.93l.003.304v1.118l3.088-1.266 3.047 2.611-.1.3a.75.75 0 0 0 .711.988h3.25V21h1.5v-2.25H16a.75.75 0 0 0 .712-.986l-.1-.301 3.046-2.611 3.088 1.266V15l.003-.303c.013-.842.029-1.973-.646-2.93-2.109-2.99-6.947-7.446-9.668-9.379m5.663 11.825-2.977-1.221.978 2.934zM7.901 15.927l.978-2.935-2.977 1.22zm5.389-3.686L12 11.713l-1.29.528-1.67 5.01h5.92zm-10.166.39C5.002 9.967 9.317 5.933 12 3.928c2.684 2.005 6.999 6.04 8.877 8.703.253.359.335.753.36 1.247L12 10.091l-9.237 3.787c.026-.494.108-.888.361-1.247" clip-rule="evenodd"/></svg>