<svg xmlns="http://www.w3.org/2000/svg" fill="none" viewBox="0 0 24 24"><path fill="currentColor" fill-rule="evenodd" d="M2 1.25a.75.75 0 0 0-.75.75v3h1.5V2.75h2.232v-1.5zm7.953 0H6.97v1.5h2.983zm1.988 1.5h2.232V6h1.5V2a.75.75 0 0 0-.75-.75h-2.982zM1.25 7v3h1.5V7zm0 5v3c0 .414.336.75.75.75h3.976v-1.5H2.75V12zm20.623-3.719h-7.635v5.963H8.18v7.744c0 .416.336.76.76.76h13.048a.76.76 0 0 0 .76-.767l-.115-12.947a.76.76 0 0 0-.76-.753m-6.135 7.463V9.78h5.401l.103 11.467H9.68v-5.504z" clip-rule="evenodd"/></svg>