<svg xmlns="http://www.w3.org/2000/svg" fill="none" viewBox="0 0 24 24"><path fill="currentColor" fill-rule="evenodd" d="M4.75 4.5a.75.75 0 1 1 1.5 0 .75.75 0 0 1-1.5 0m.75-2.25a2.25 2.25 0 1 0 0 4.5 2.25 2.25 0 0 0 0-4.5m0 5.5c-2.235 0-4.25 1.575-4.25 3.75v.75h8.5v-.75c0-2.175-2.015-3.75-4.25-3.75m0 1.5c1.265 0 2.222.669 2.588 1.5H2.912c.366-.831 1.323-1.5 2.588-1.5m5.75-4h-2v1.5h2zm3.5 0h-2v1.5h2zm-10.5 8.5v5h2.5v1.5h-4v-6.5zm17 0v6.5h-4v-1.5h2.5v-5zm-2.75-10a.75.75 0 1 0 0 1.5.75.75 0 0 0 0-1.5m-2.25.75a2.25 2.25 0 1 1 4.5 0 2.25 2.25 0 0 1-4.5 0m-2 7c0-2.175 2.015-3.75 4.25-3.75s4.25 1.575 4.25 3.75v.75h-8.5zm6.838-.75c-.366-.831-1.323-1.5-2.588-1.5s-2.222.669-2.588 1.5zM11.25 15.5a.75.75 0 0 1 1.5 0v.75h-1.5zm3 0v.75h1.5v5.5h-7.5v-5.5h1.5v-.75a2.25 2.25 0 0 1 4.5 0m-4.5 4.75v-2.5h4.5v2.5z" clip-rule="evenodd"/></svg>