<svg xmlns="http://www.w3.org/2000/svg" fill="none" viewBox="0 0 24 24"><path fill="currentColor" fill-rule="evenodd" d="M5.878 1.354A.75.75 0 0 0 4.748 2v3.39L2.48 3.483l-.965 1.148L4.33 7 1.516 9.365l.965 1.149 2.267-1.906v3.39a.75.75 0 0 0 1.13.646l3.498-2.058a.75.75 0 0 0 .102-1.22L6.663 6.998l2.815-2.367a.75.75 0 0 0-.102-1.22zM7.701 9.83 6.248 8.61v2.076zM6.248 3.31v2.077L7.7 4.167zM5.25 22.75h4.042l10.274-10.223 2.935-2.895a.85.85 0 0 0 .006-1.194L19.66 5.522a.83.83 0 0 0-.558-.27.85.85 0 0 0-.66.243L15.39 8.497l.526.535-.531-.53L5.25 18.679zm3.423-1.5H6.751v-1.952l9.18-9.216 2.03 1.925zm10.355-10.3-2.031-1.927 2.032-1.999 1.952 2z" clip-rule="evenodd"/></svg>