<svg xmlns="http://www.w3.org/2000/svg" fill="none" viewBox="0 0 24 24"><path fill="currentColor" fill-rule="evenodd" d="M3 2.25a.75.75 0 0 0-.75.75v18c0 .414.336.75.75.75h18a.75.75 0 0 0 .75-.75V3a.75.75 0 0 0-.75-.75zm.75 18V3.75h16.5v16.5zm5-10.25c0-.618.583-1.25 1.472-1.25h.25l-.841 6.056c-.017.124-.194.337-.523.295-.206-.027-.326-.148-.362-.245l-.043-.117-1.406.521.043.117c.252.68.883 1.122 1.577 1.211 1 .129 2.05-.501 2.2-1.576l.87-6.262h1.93l-.993 7.147 1.486.206 1.02-7.353H17v-1.5h-6.778C8.657 7.25 7.25 8.409 7.25 10z" clip-rule="evenodd"/></svg>