<svg xmlns="http://www.w3.org/2000/svg" fill="none" viewBox="0 0 24 24"><path fill="currentColor" fill-rule="evenodd" d="M2.75 12a9.25 9.25 0 0 1 5.855-8.607l-.136.136 2.455 2.455-8.037 7.614A9.3 9.3 0 0 1 2.75 12m.584 3.241 3.916-3.71v8.408a9.28 9.28 0 0 1-3.916-4.698M8.75 10.11l3.235-3.065 3.265 3.266v4.939h-6.5zM12 2.75q-1.02.002-1.977.212l5.227 5.227V3.337A9.2 9.2 0 0 0 12 2.75M8.75 20.663V16.75h11.189A9.24 9.24 0 0 1 12 21.25a9.2 9.2 0 0 1-3.25-.587M21.25 12a9.24 9.24 0 0 0-4.5-7.939V15.25h3.913A9.2 9.2 0 0 0 21.25 12M12 1.25C6.063 1.25 1.25 6.063 1.25 12S6.063 22.75 12 22.75 22.75 17.937 22.75 12 17.937 1.25 12 1.25" clip-rule="evenodd"/></svg>