<svg xmlns="http://www.w3.org/2000/svg" fill="none" viewBox="0 0 24 24"><path fill="currentColor" fill-rule="evenodd" d="M12.01 3.25a.76.76 0 0 0-.76.76v6.24H2.01a.76.76 0 0 0-.76.76v5.98c0 .42.34.76.76.76h2.344a2.751 2.751 0 0 0 5.292 0h4.708a2.751 2.751 0 0 0 5.293 0h2.343c.42 0 .76-.34.76-.76v-5.986a.76.76 0 0 0-.183-.495l-5.995-6.994a.76.76 0 0 0-.577-.265zm7.637 13h1.603v-1.5H20v-1.5h1.25v-1.5h-4.752a.75.75 0 0 1-.63-.345l-3.118-4.85v9.695h1.604a2.751 2.751 0 0 1 5.293 0m-6.275-11.5 3.535 5.5h3.462l-4.714-5.5zm-3.726 11.5h1.604v-4.5h-8.5v4.5h1.604a2.751 2.751 0 0 1 5.292 0m6.104.75a1.25 1.25 0 1 1 2.5 0 1.25 1.25 0 0 1-2.5 0M7 15.75a1.25 1.25 0 1 0 0 2.5 1.25 1.25 0 0 0 0-2.5" clip-rule="evenodd"/></svg>