<svg xmlns="http://www.w3.org/2000/svg" fill="none" viewBox="0 0 24 24"><path fill="currentColor" fill-rule="evenodd" d="m2.53 1.469-1.06 1.06 4.913 4.914c-.937.534-1.784 1.382-2.915 2.515l-.544.618 4.7 4.74-5.155 5.154 1.06 1.06 5.151-5.15 4.716 4.754.533-.51c1.2-1.15 2.056-2.012 2.614-3.02l4.926 4.925 1.06-1.06zm12.893 15.015L7.5 8.56c-.747.315-1.427.925-2.495 1.984l8.415 8.484c1.076-1.057 1.663-1.752 2.003-2.544M15.3 11.09l.183 2.19h-.001l1.495-.125-.116-1.38c.65-.464 1.343-.794 2.069-1.14l.003-.001c.828-.396 1.684-.805 2.472-1.428l.296-.235-.012-.378c-.075-2.333-1.143-3.622-1.938-4.388-1.72-1.662-3.671-1.87-4.23-1.894l-.39-.017-.238.311c-.663.87-1.177 1.902-1.63 2.813l-.005.01-.014.027c-.323.647-.652 1.309-.941 1.684l-1.428-.126-.132 1.494 2.104.186.24-.205c.562-.48 1.001-1.363 1.51-2.384l.004-.009c.364-.733.77-1.55 1.245-2.247.644.095 1.8.41 2.863 1.437.648.623 1.315 1.462 1.457 2.973-.577.4-1.213.704-1.881 1.022-.883.421-1.797.857-2.674 1.56z" clip-rule="evenodd"/></svg>