<svg xmlns="http://www.w3.org/2000/svg" fill="none" viewBox="0 0 24 24"><path fill="currentColor" fill-rule="evenodd" d="M12.75 7.798V2.5h-1.5v5.297c-1.414.185-2.45.895-3.201 1.879-.846 1.109-1.315 2.545-1.639 3.885q-.049.204-.083.402l-4.604 1.842.557 1.392.97-.388V18.5h1.5v-2.29l1.562-.626c.17.99.68 1.8 1.422 2.404 1.139.927 2.742 1.306 4.266 1.258 1.524.048 3.126-.33 4.265-1.258.742-.604 1.253-1.415 1.422-2.405l1.563.625V18.5h1.5v-1.692l.973.39.557-1.393-4.608-1.843a6 6 0 0 0-.083-.4c-.323-1.341-.792-2.777-1.638-3.886-.75-.984-1.788-1.694-3.201-1.878m-4.882 6.115c.313-1.293.723-2.476 1.373-3.327C9.86 9.776 10.702 9.25 12 9.25s2.14.526 2.758 1.336c.65.851 1.06 2.034 1.373 3.327.34 1.405-.085 2.32-.813 2.912-.78.636-2 .966-3.292.92h-.053c-1.292.046-2.51-.284-3.292-.92-.727-.593-1.152-1.507-.813-2.912M12 12.5a1 1 0 1 0 0 2h.009a1 1 0 1 0 0-2zm-9 8a1 1 0 0 1 1-1h.009a1 1 0 1 1 0 2H4a1 1 0 0 1-1-1m17-1a1 1 0 1 0 0 2h.009a1 1 0 1 0 0-2z" clip-rule="evenodd"/></svg>