<svg xmlns="http://www.w3.org/2000/svg" fill="none" viewBox="0 0 24 24"><path fill="currentColor" fill-rule="evenodd" d="M5.03 6.47 3.81 5.25H8v-1.5H3.81l1.22-1.22-1.06-1.06L.94 4.5l3.03 3.03zm7.933-.498c.37-.288.898-.297 1.277-.02l.03.023 6.98 4.091V19A2.25 2.25 0 0 1 19 21.25h-6.5a.75.75 0 0 1-.75-.75v-.84h1.224v-1.5H11.5a.75.75 0 0 1-.75-.75v-.842h1.671v-1.5h-1.92a.75.75 0 0 1-.75-.75v-.84h1.67v-1.5H3.58a.813.813 0 0 1-.829-.796c0-.424.356-.796.83-.796h12.328l-3.03-2.956a.96.96 0 0 1 .085-1.458M9.25 17.41c0 .781.398 1.468 1 1.871v1.22a2.25 2.25 0 0 0 2.25 2.25H19A3.75 3.75 0 0 0 22.75 19V9.207l-7.658-4.489a2.57 2.57 0 0 0-3.052.072 2.46 2.46 0 0 0-.21 3.714l.393.382H3.58c-1.27 0-2.329 1.013-2.329 2.296s1.058 2.295 2.33 2.295h4.67v.841c0 .781.398 1.468 1 1.871z" clip-rule="evenodd"/></svg>