<svg xmlns="http://www.w3.org/2000/svg" fill="none" viewBox="0 0 24 24"><path fill="currentColor" fill-rule="evenodd" d="m23.06 4.497-3.025-3.025-1.06 1.06 1.214 1.215h-4.177v1.5h4.177l-1.214 1.215 1.06 1.06zM9.254 7.107c.308-.224.565-.313.76-.327a.73.73 0 0 1 .531.18l.004.003c.266.212.38.396.426.55.046.15.051.358-.055.667a.8.8 0 0 1-.158.247l-2.895 3.361h11.348c.558-.006 1 .423 1.005.919v.026l.002.025c.018.224-.07.487-.26.703-.186.213-.42.323-.631.326h-6.572v5.32a2.42 2.42 0 0 1-1.023 1.792c-.365.264-.883.35-1.555.35H5.337c-.73 0-1.338-.139-1.751-.482-.524-.435-.78-.92-.835-1.59v-7.482a4 4 0 0 1 .004-.269l6.484-4.309zm.658-1.823a2.23 2.23 0 0 1 1.574.508c.433.345.769.767.926 1.288.157.525.107 1.062-.075 1.589a2.3 2.3 0 0 1-.438.737l-.76.882h8.065c1.284-.011 2.486.979 2.516 2.378.045.675-.22 1.315-.629 1.783-.416.475-1.034.83-1.746.838h-5.086v3.88l-.002.03a3.92 3.92 0 0 1-1.642 2.917c-.77.558-1.704.634-2.434.634H5.337c-.865 0-1.898-.153-2.71-.828-.839-.696-1.293-1.562-1.374-2.66l-.002-.027v-7.526a3.4 3.4 0 0 1 .039-.636c.036-.198.146-.609.546-.835l6.546-4.35c.463-.336.982-.565 1.53-.602" clip-rule="evenodd"/></svg>