<svg xmlns="http://www.w3.org/2000/svg" fill="none" viewBox="0 0 24 24"><path fill="currentColor" fill-rule="evenodd" d="M5.046 6.848 3.83 5.633h4.183v-1.5H3.83L5.046 2.92l-1.06-1.062L.957 4.883 3.986 7.91zm14.096 1.954c-.989-.837-1.822-1.544-3.03-2.323-.616-.437-1.248-.723-1.91-.815-.675-.094-1.326.022-1.957.308-1.189.54-2.33 1.702-3.55 3.265h-5.14c-.333 0-.673.1-.958.238a2.35 2.35 0 0 0-.808.625c-.964 1.205-.48 2.984.954 3.595l.035.015.037.011c.344.107.848.122 1.2.125.195.001.384-.002.537-.005l.146-.004.178-.003h2.42v.938c0 .598.238 1.096.63 1.47q.12.116.255.213.201.152.433.257.068.034.139.064l.039 1.062c-.007.333.091.64.236.905.185.383.473.702.827.924q.19.14.4.248l.05 1.232.002.017c.068.788.533 1.324 1.081 1.625.516.283 1.119.373 1.636.337l3.076-.047c1.977.04 3.203-1.145 3.96-1.876q.122-.119.228-.218h1.715v-1.5h-2.265l-.207.169c-.244.2-.467.408-.683.612-.747.702-1.429 1.343-2.728 1.313h-.014l-3.151.048-.024.002a1.53 1.53 0 0 1-.82-.155c-.191-.105-.288-.236-.309-.427l-.043-1.035h1.261v-1.5h-1.97a.74.74 0 0 1-.357-.09 2 2 0 0 1-.14-.126 1.2 1.2 0 0 1-.187-.234 1 1 0 0 1-.05-.163l-.026-.145-.031-.844h1.788v-1.5h-2.51a.7.7 0 0 1-.291-.059 2 2 0 0 1-.171-.101.75.75 0 0 1-.28-.51v-.906h2.244v-1.5H4.876l-.24.004-.116.003c-.148.003-.32.006-.495.005a4.4 4.4 0 0 1-.734-.05c-.527-.251-.64-.872-.33-1.259a.9.9 0 0 1 .288-.211.8.8 0 0 1 .306-.09h10.598v-1.5h-3.519c.858-.987 1.58-1.602 2.232-1.898.405-.184.77-.238 1.13-.188.367.05.78.218 1.26.56l.015.01.015.01c1.128.728 1.863 1.35 2.818 2.16.42.356.883.748 1.44 1.201l.207.168h2.268v-1.5h-1.734c-.417-.342-.79-.658-1.143-.957" clip-rule="evenodd"/></svg>