<svg xmlns="http://www.w3.org/2000/svg" fill="none" viewBox="0 0 24 24"><path fill="currentColor" fill-rule="evenodd" d="M12.654 1.276A.75.75 0 0 0 11.71 2v2.005l-.523-.136-.376 1.452.699.181-.568 1.82A7.752 7.752 0 0 0 12 22.75a7.75 7.75 0 0 0 4.527-14.041l.525-1.769.759.197.377-1.452-.51-.132.972-1.694a.75.75 0 0 0-.456-1.097zm2.538 6.66.407-1.373-2.636-.684-.433 1.389c.944.064 1.84.296 2.662.668m.982-2.773-2.964-.77V2.979l3.654.98zM12 8.75a6.25 6.25 0 0 0-6.205 5.5h12.41A6.25 6.25 0 0 0 12 8.75m0 12.5a6.25 6.25 0 0 1-6.205-5.5h1.542a3.251 3.251 0 0 0 6.326 0h4.543A6.25 6.25 0 0 1 12 21.25m-1.5-4.5a1.75 1.75 0 0 1-1.582-1h3.164c-.281.591-.884 1-1.582 1M14.008 13a1 1 0 1 0 0-2h-.01a1 1 0 1 0 0 2z" clip-rule="evenodd"/></svg>