<svg xmlns="http://www.w3.org/2000/svg" fill="none" viewBox="0 0 24 24"><path fill="currentColor" fill-rule="evenodd" d="m8.25 7.015 9.54-4.139c1.454 1.579 2.238 3.446 2.46 6.154-.003 1.87-.247 3.253-.703 4.394-.4.998-.974 1.848-1.75 2.698l-9.547-4.12zm-.92-1.246H2.25v7.48h3.975v5.531L9.3 22.446a.85.85 0 0 0 1.25.057l2.904-2.88a.85.85 0 0 0-.136-1.317l-2.79-1.811L9.327 14.1l8.832 3.81.36-.368c1.049-1.073 1.87-2.184 2.42-3.562.55-1.374.811-2.967.811-4.98v-.03l-.002-.03c-.258-3.208-1.257-5.501-3.203-7.443a.85.85 0 0 0-.938-.178L7.37 5.761zm-.58 1.5v4.48h-3v-4.48zm.975 10.965v-3.98L9.37 17.53l2.456 1.594-1.831 1.816z" clip-rule="evenodd"/></svg>