<svg xmlns="http://www.w3.org/2000/svg" fill="none" viewBox="0 0 24 24"><path fill="currentColor" fill-rule="evenodd" d="M6.25 5a3.75 3.75 0 1 1 7.49.251h5.008v5.007q.125-.008.251-.008a3.75 3.75 0 1 1-.25 7.492v5.007h-6.98l.353-1q.125-.351.127-.749a2.25 2.25 0 1 0-4.372.75l.353.999H1.25v-6.98l1 .353q.351.126.75.128a2.25 2.25 0 1 0-.75-4.372l-1 .353V5.25h5.007A4 4 0 0 1 6.25 5M10 2.75a2.25 2.25 0 0 0-2.123 3l.354 1.001h-5.48v3.507q.123-.008.248-.008a3.75 3.75 0 1 1-.249 7.492v3.507h3.507a3.75 3.75 0 1 1 7.484 0h3.507v-5.481l1 .354q.353.126.751.128a2.25 2.25 0 1 0-.75-4.372l-1 .354V6.751h-5.482l.354-1q.126-.352.128-.751A2.25 2.25 0 0 0 10 2.75" clip-rule="evenodd"/></svg>