<svg xmlns="http://www.w3.org/2000/svg" fill="none" viewBox="0 0 24 24"><path fill="currentColor" fill-rule="evenodd" d="m12.616 1.49 2.775 2.213h3.983a.95.95 0 0 1 .95.95v3.975l2.189 2.757a.95.95 0 0 1 0 1.26L20.325 15.4v3.958a.95.95 0 0 1-.951.95h-4.16L12.646 22.5a.95.95 0 0 1-1.277.01l-2.729-2.2H4.614a.95.95 0 0 1-.951-.95v-3.977l-2.175-2.756a.95.95 0 0 1 0-1.258l2.175-2.757V4.654a.95.95 0 0 1 .95-.951H8.58l2.775-2.214a.95.95 0 0 1 1.262 0m-.63 1.415L9.103 5.203h-3.94v3.93l-2.26 2.865 2.26 2.865v3.947h4.005l2.825 2.277 2.669-2.277h4.163v-3.931l2.273-2.864-2.273-2.864V5.203h-3.958zM12 7.75c-.69 0-1.25.56-1.25 1.25v.75h-1.5V9a2.75 2.75 0 1 1 5.064 1.487 49 49 0 0 1-1.085 1.585c-.174.247-.33.464-.441.619l-.038.052v1.507h-1.5v-1.994l.144-.197.046-.065a74 74 0 0 0 .565-.789 46 46 0 0 0 1.047-1.53A1.25 1.25 0 0 0 12 7.75m.751 8.5h-1.509v1.5h1.51z" clip-rule="evenodd"/></svg>