<svg xmlns="http://www.w3.org/2000/svg" fill="none" viewBox="0 0 24 24"><path fill="currentColor" fill-rule="evenodd" d="M17.25 15.804V19l-4-3 9.2-6.9-.9-1.2L12 15.063 2.45 7.9l-.9 1.2 9.2 6.9-4 3v-3.196h-1.5V20.5a.75.75 0 0 0 1.2.6L12 16.937l5.55 4.163a.75.75 0 0 0 1.2-.6v-4.696zM18.579 3.02a.75.75 0 0 0-1.026-.12l-5.568 4.176L5.93 2.883a.75.75 0 0 0-1.051.201l-2 3a.75.75 0 0 0 .191 1.029l8.5 6a.75.75 0 0 0 .865 0l8.5-6a.75.75 0 0 0 .144-1.093zM4.531 6.308l1.172-1.757 5.871 4.066a.75.75 0 0 0 .877-.017l5.431-4.072 1.524 1.828L12 11.582z" clip-rule="evenodd"/></svg>