<svg xmlns="http://www.w3.org/2000/svg" fill="none" viewBox="0 0 24 24"><path fill="currentColor" fill-rule="evenodd" d="m12 .946.625.944c.183.275.488.575.923.913.431.334.948.673 1.523 1.04l.35.223c1.046.664 2.235 1.419 3.204 2.311 1.088 1.002 1.993 2.26 2.112 3.888.115 1.567-.512 3.308-2.06 5.3v7.488H5.323l-.001-7.489c-1.547-1.991-2.174-3.732-2.059-5.3.12-1.626 1.025-2.885 2.113-3.887.969-.892 2.157-1.647 3.204-2.311l.35-.223a21 21 0 0 0 1.522-1.04c.435-.338.74-.638.923-.914zm-7.24 9.428c-.081 1.098.356 2.539 1.897 4.46l.165.206v2.866l3.232-2.02 2.381 1.905 2.59-1.943 2.152 1.793V15.04l.165-.206c1.542-1.921 1.98-3.363 1.899-4.46-.08-1.092-.685-2.02-1.633-2.894-.863-.795-1.934-1.475-2.998-2.152l-.346-.22a22 22 0 0 1-1.635-1.12q-.332-.255-.629-.537a8 8 0 0 1-.629.537c-.49.38-1.06.753-1.635 1.12l-.345.22c-1.065.677-2.135 1.357-2.999 2.152-.947.873-1.553 1.802-1.633 2.894m6.436 8.346-.645.484.9 1.2 3.525-2.644 2.2 1.833v1.96H6.823v-1.878l3.126-1.953zm-.243-9.774a2.48 2.48 0 1 0 3.405 3.405l1.284.774a3.98 3.98 0 1 1-5.464-5.464zM14 8.304a1 1 0 1 0 0 2h.009a1 1 0 1 0 0-2z" clip-rule="evenodd"/></svg>