<svg xmlns="http://www.w3.org/2000/svg" fill="none" viewBox="0 0 24 24"><path fill="currentColor" fill-rule="evenodd" d="M12.646 1.577a.8.8 0 0 0-1.291 0L9.863 3.614l-2.47.676a.8.8 0 0 0-.41 1.275L8.54 7.493l-.061 2.41a.8.8 0 0 0 1.056.778l2.466-.835 2.472.835a.8.8 0 0 0 1.056-.783l-.075-2.403 1.634-1.991a.76.76 0 0 0-.394-1.217l-2.557-.676zm-1.882 3.346L12 3.234l1.24 1.692 1.956.517-1.26 1.535.06 1.96L12 8.261l-1.996.677.05-1.96-1.232-1.524zM9 12.234a.75.75 0 0 0-.75.75v1.258H3.5a.75.75 0 0 0-.75.75v6.258H2v1.5h1.46l.04.001H9l.04-.001H22v-1.5h-.75v-4.258a.75.75 0 0 0-.75-.75h-4.75v-3.258a.75.75 0 0 0-.75-.75zM4.25 21.25h4v-5.508h-4zm11.5-3.508v3.506h4v-3.506zm-1.5-.75v-3.258h-4.5v7.512h4.5z" clip-rule="evenodd"/></svg>