<svg xmlns="http://www.w3.org/2000/svg" fill="none" viewBox="0 0 24 24"><path fill="currentColor" fill-rule="evenodd" d="M2.12 22.75h17.5v-1.5h-16V2.75h7.5v7h7v2h1.5V8.69l-7.44-7.44H2.12zm14.94-14.5h-4.44V3.81zm2.1 9 1.38 2.76V20l1.34-.67-1.2-2.39a2 2 0 0 0 .94-1.69c0-1.1-.9-2-2-2h-2.5v6.5h1.5v-2.5zm.28-1.5h-.82l-.01-.01v-1h1c.28 0 .5.22.5.5q0 .195-.12.33l-.04-.08zm-11.28 1.5 1.38 2.76V20l1.34-.67-1.2-2.39a2 2 0 0 0 .94-1.69c0-1.1-.9-2-2-2h-2.5v6.5h1.5v-2.5zm.28-1.5h-.82l-.01-.01v-1h1c.28 0 .5.22.5.5q0 .195-.12.33l-.04-.08zm6.966 4.2.003.01h-.03zm-.597-1.7.597 1.7 1.393-.49-2.17-6.21h-1.56l-2.17 6.21 1.42.5.6-1.71zm-.94-2.69.42 1.19h-.84z" clip-rule="evenodd"/></svg>