<svg xmlns="http://www.w3.org/2000/svg" fill="none" viewBox="0 0 24 24"><path fill="currentColor" fill-rule="evenodd" d="m16.453 4.237-1.918-1.645.976-1.139 3.25 2.787h.007v.006l.004.003-.004.004V5.74c-.756 0-1.882-.003-3.146-.005l-.544-.001c-1.483-.003-3.104-.006-4.521-.006-1.829 0-3.047.146-4.013.531-.942.375-1.713 1.005-2.585 2.116-1.629 2.075-1.538 5.23-.053 7.153l-1.187.917c-1.893-2.451-2.005-6.365.06-8.996.975-1.243 1.945-2.08 3.21-2.584 1.24-.493 2.692-.637 4.568-.637 1.419 0 3.041.003 4.524.006h.543zM16 12.75H8v-1.5h8zm-6.503 8.697L7.58 19.802l.829.002.543.001c1.483.003 3.105.006 4.525.006 1.876 0 3.328-.144 4.568-.637 1.264-.504 2.234-1.341 3.21-2.584 2.064-2.63 1.952-6.545.06-8.996l-1.188.917c1.485 1.923 1.576 5.078-.053 7.153-.872 1.111-1.643 1.741-2.585 2.116-.966.385-2.184.531-4.012.531-1.418 0-3.04-.003-4.522-.006h-.543c-1.265-.003-2.39-.006-3.147-.006v1.487l-.004.004.004.003v.006h.007l3.25 2.787z" clip-rule="evenodd"/></svg>