<svg xmlns="http://www.w3.org/2000/svg" fill="none" viewBox="0 0 24 24"><path fill="currentColor" fill-rule="evenodd" d="M2 1.25a.75.75 0 0 0-.75.75v8c0 .414.336.75.75.75h8a.75.75 0 0 0 .75-.75V2a.75.75 0 0 0-.75-.75zm.75 8v-6.5h6.5v6.5zm11.25 4a.75.75 0 0 0-.75.75v8c0 .414.336.75.75.75h8a.75.75 0 0 0 .75-.75v-8a.75.75 0 0 0-.75-.75zm.75 1.5h6.5v6.5h-6.5zm-9.28-1.78a.75.75 0 0 1 1.06 0l4.5 4.5a.75.75 0 0 1 0 1.06l-4.5 4.5a.75.75 0 0 1-1.06 0l-4.5-4.5a.75.75 0 0 1 0-1.06zM2.56 18 6 21.44 9.44 18 6 14.56zM17.25 1.5v3.75H13.5v1.5h3.75v3.75h1.5V6.75h3.75v-1.5h-3.75V1.5z" clip-rule="evenodd"/></svg>