<svg xmlns="http://www.w3.org/2000/svg" fill="none" viewBox="0 0 24 24"><path fill="currentColor" fill-rule="evenodd" d="M5.5 2.25a.75.75 0 0 0-.67.415L2.345 7.634A.75.75 0 0 0 2.25 8v13c0 .414.336.75.75.75h18a.75.75 0 0 0 .75-.75V8a.75.75 0 0 0-.079-.335l-2.5-5a.75.75 0 0 0-.67-.415zm.464 1.5h5.286v3.5H4.214zm6.786 0v3.5h7.037l-1.75-3.5zm-9 5h16.5v11.5H3.75zm6.06 3.998 1.25-1.25-1.06-1.06-3.06 3.06 3.06 3.06 1.06-1.06-1.25-1.25H14a1.25 1.25 0 1 1 0 2.5h-1.75v1.5H14a2.75 2.75 0 0 0 0-5.5z" clip-rule="evenodd"/></svg>