<svg xmlns="http://www.w3.org/2000/svg" fill="none" viewBox="0 0 24 24"><path fill="currentColor" fill-rule="evenodd" d="M18.637 2.397 16.266 6.19c.403.413.702.928.856 1.487l4.302-5.162 1.152.96-4.83 5.797a3.27 3.27 0 0 1 1.416 1.977h1.6l-.011.76c-.06 4.329-3.115 6.62-4.857 7.531l.731 2.016.001.004.026.073c.012.034.032.1.045.178a.83.83 0 0 1-.058.466.78.78 0 0 1-.718.465H6.087a1 1 0 0 1-.225-.02.773.773 0 0 1-.549-1.034l.753-2.139c-1.736-.913-4.755-3.211-4.815-7.54l-.01-.76h1.595c.243-1.04.98-1.89 1.952-2.283C4.514 7.057 6.073 5.233 7.99 5.21c1.037-2.614 4.98-2.615 6.019-.003.348.002.682.063.995.172l2.361-3.778zM4.415 11.25h13.16c-.398-.81-1.41-1.251-2.273-.871l-.604-1.373a3.1 3.1 0 0 1 1.028-.258c.152-1.137-.92-2.26-2.103-1.999l-.764.17-.136-.771c-.292-1.646-2.497-1.838-3.236-.578.44.228.82.553 1.114.947L9.4 7.414a1.75 1.75 0 0 0-1.022-.665C7.063 6.46 5.837 7.92 6.4 9.196l.413.932-1.014.116a1.75 1.75 0 0 0-1.385 1.006m2.87 7.22c-1.203-.5-4.07-2.213-4.485-5.72h16.4c-.419 3.5-3.32 5.21-4.532 5.712l-.662.275.91 2.506H7.06l.88-2.5zm-.56 3.727.005-.017z" clip-rule="evenodd"/></svg>