<svg xmlns="http://www.w3.org/2000/svg" fill="none" viewBox="0 0 24 24"><path fill="currentColor" fill-rule="evenodd" d="M11.25 3.5c0-.41.34-.75.75-.75s.75.34.75.75-.34.75-.75.75-.75-.34-.75-.75m1.5 2.12c.87-.31 1.5-1.14 1.5-2.12 0-1.24-1.01-2.25-2.25-2.25S9.75 2.26 9.75 3.5c0 .98.63 1.81 1.5 2.12v1.66c-4.48.38-8 4.14-8 8.72v6.75h17.5V16c0-4.58-3.52-8.34-8-8.72zm6.5 12.13V16c0-4-3.25-7.25-7.25-7.25S4.75 12 4.75 16v1.75H8.6l1-1.5h4.8l1 1.5zm-14.5 1.5v2h14.5v-2H14.6l-1-1.5h-3.2l-1 1.5zm5-7v2.5h-1.5v-2.5zm6 0v2.5h-1.5v-2.5z" clip-rule="evenodd"/></svg>