<svg xmlns="http://www.w3.org/2000/svg" fill="none" viewBox="0 0 24 24"><path fill="currentColor" fill-rule="evenodd" d="M11.584 1.376a.75.75 0 0 1 .832 0c.868.578 1.569 1.414 2.054 2.295.482.876.78 1.854.78 2.742V8.6l1.166.777a.75.75 0 0 1 .334.624v2a.75.75 0 0 1-.75.75H8a.75.75 0 0 1-.75-.75v-2a.75.75 0 0 1 .334-.624L8.75 8.6V6.413c0-.888.298-1.866.78-2.742.485-.881 1.186-1.717 2.054-2.295m-.74 3.018c-.392.714-.594 1.443-.594 2.02V9a.75.75 0 0 1-.334.624l-1.166.777v.849h6.5v-.849l-1.166-.777A.75.75 0 0 1 13.75 9V6.413c0-.576-.202-1.305-.595-2.02A5.4 5.4 0 0 0 12 2.944a5.4 5.4 0 0 0-1.155 1.45m7.906 12.273c0-1.105-.828-1.917-1.75-1.917v-1.5c1.61 0 2.891 1.207 3.186 2.742 1.493.334 2.564 1.737 2.564 3.341 0 1.841-1.41 3.417-3.25 3.417v-1.5c.922 0 1.75-.812 1.75-1.917s-.828-1.916-1.75-1.916h-.75zM7 13.25c-1.61 0-2.891 1.207-3.186 2.742-1.493.334-2.564 1.737-2.564 3.341 0 1.841 1.41 3.417 3.25 3.417v-1.5c-.922 0-1.75-.812-1.75-1.917s.828-1.916 1.75-1.916h.75v-.75c0-1.105.828-1.917 1.75-1.917zM9.25 21v-6.5h1.5V21zm4-6.5V18h1.5v-3.5z" clip-rule="evenodd"/></svg>