<svg xmlns="http://www.w3.org/2000/svg" fill="none" viewBox="0 0 24 24"><path fill="currentColor" fill-rule="evenodd" d="M6 2.25H1.25v19.5H6v-1.5H2.75V3.75H6zm16.75 19.5V2.25H18v1.5h3.25v16.5H18v1.5zM12.005 7.266a.75.75 0 0 0-.716.526l-1.947 6.23-1.164-2.353a.75.75 0 0 0-1.198-.201l-1.513 1.49 1.052 1.068.775-.762 1.533 3.1a.75.75 0 0 0 1.388-.11l2.341-7.488h5.429v-1.5zm3.564 4.079-.024-.045c-.112-.216-.301-.578-.723-.802-.396-.21-.91-.254-1.54-.254v1.5c.3 0 .504.013.645.033.12.018.171.037.188.044l.002.004c.025.034.052.082.126.222.035.065.191.398.393.846-.28.365-.54.682-.807.928-.346.319-.609.428-.829.428v1.5c.763 0 1.375-.392 1.846-.825q.244-.228.473-.491c.05.117.114.253.195.387.245.406.635.772 1.294.913l.077.016h.806v-1.5h-.635a.4.4 0 0 1-.258-.204 2.4 2.4 0 0 1-.146-.309l-.015-.036c-.046-.11-.107-.257-.183-.4l-.09-.208q.122-.161.242-.313c.293-.35.547-.617.792-.797.238-.174.427-.238.602-.238v-1.5c-.588 0-1.082.23-1.49.53a5.5 5.5 0 0 0-.835.788 6 6 0 0 0-.106-.217" clip-rule="evenodd"/></svg>