<svg xmlns="http://www.w3.org/2000/svg" fill="none" viewBox="0 0 24 24"><path fill="currentColor" fill-rule="evenodd" d="M7.284 21.871a5.24 5.24 0 0 0 2.905.873v-.002a5.27 5.27 0 0 0 3.73-1.537l1.564-1.56c.75-.75 1.127-1.128 1.43-1.604.47-.734.752-1.58.816-2.444.044-.572-.033-1.109-.187-2.18L16.9 8.93a2.279 2.279 0 0 0-4.535.332l.013 1.093-6.8-4.737a2.123 2.123 0 0 0-2.943.53 2.107 2.107 0 0 0 .509 2.941l2.05 1.43a2.12 2.12 0 0 0-.602 2.598c-.254.15-.48.354-.66.61a2.1 2.1 0 0 0-.175 2.146 2.13 2.13 0 0 0-1.016 2.198c.098.553.405 1.033.865 1.354l.37.258zm.829-1.25-3.285-2.176v.001l-.363-.253a.6.6 0 0 1-.244-.384.62.62 0 0 1 .105-.464.62.62 0 0 1 .857-.162l.37.26.86-1.23-.371-.26a2 2 0 0 0-.4-.218l.029-.04-.37-.258a.6.6 0 0 1-.245-.385.6.6 0 0 1 .105-.463.62.62 0 0 1 .858-.16l.37.257.859-1.23-.371-.259-.43.615.429-.616-.741-.515a.6.6 0 0 1-.244-.384.62.62 0 0 1 .105-.464.62.62 0 0 1 .857-.16l1.113.774.857-1.23-4.82-3.358a.6.6 0 0 1-.244-.384.62.62 0 0 1 .105-.464.62.62 0 0 1 .858-.16l7.423 5.17 1.769 1.2-.048-3.967c0-.224.092-.43.259-.579a.78.78 0 0 1 1.291.47l.64 4.488c.139.962.208 1.446.177 1.855a3.8 3.8 0 0 1-.583 1.747c-.217.339-.555.677-1.228 1.35l-1.562 1.56a3.78 3.78 0 0 1-4.747.475m8.553-17.555c1.689.633 2.854 1.671 3.665 3.267l1.337-.68c-.979-1.925-2.443-3.23-4.476-3.992-1.388-.519-2.974-.539-4.47-.056-.813.233-1.711.748-2.47 1.39v-1h-1.5v3.751h3.258v-1.5h-.912c.676-.6 1.475-1.04 2.048-1.202l.028-.008c1.177-.383 2.417-.372 3.492.03" clip-rule="evenodd"/></svg>