<svg xmlns="http://www.w3.org/2000/svg" fill="none" viewBox="0 0 24 24"><path fill="currentColor" fill-rule="evenodd" d="M13.758 3.002c-.78-.66-1.688-1.165-2.475-1.391-1.436-.464-3.026-.486-4.473.056-2.005.75-3.49 2.045-4.48 3.993l1.337.68c.817-1.606 2.008-2.646 3.669-3.268 1.1-.412 2.344-.405 3.496-.03l.014.004.014.004c.612.173 1.397.62 2.052 1.204h-.915v1.5h3.26V2.001h-1.5zm5.094 3.872a.94.94 0 0 1 1.276.335.903.903 0 0 1-.34 1.242l-4.926 2.814 1.27 3.287.002.007c.347.871.593 1.49.754 1.987.159.492.214.805.21 1.062-.018 1.057-.384 1.918-1.318 2.451-.69.395-1.226.503-2.904.842l-.224.046-2.307.26-4.498-5.847L8.37 7.59a.924.924 0 0 1 .994-.556.905.905 0 0 1 .765 1.056l-.798 4.221 8.985-5.131zm2.572-.42a2.44 2.44 0 0 0-3.316-.882l-2.732 1.56-3.967 2.265.194-1.028a2.37 2.37 0 0 0-.117-1.3A2.42 2.42 0 0 0 9.588 5.55a2.42 2.42 0 0 0-2.624 1.516l-.007.019-2.781 8.564 5.496 7.144 3.213-.363.032-.007.392-.079c1.525-.306 2.307-.464 3.215-.982 1.518-.867 2.05-2.302 2.073-3.73.008-.495-.102-.99-.282-1.548-.178-.548-.442-1.213-.777-2.054l-.008-.022-.804-2.08 3.807-2.174a2.403 2.403 0 0 0 .89-3.3" clip-rule="evenodd"/></svg>