<svg xmlns="http://www.w3.org/2000/svg" fill="none" viewBox="0 0 24 24"><path fill="currentColor" fill-rule="evenodd" d="m2.33 5.66 1.338.68c.807-1.59 1.972-2.63 3.667-3.267 1.07-.403 2.311-.413 3.495-.03l.027.009c.58.164 1.38.604 2.055 1.208h-.917v1.5h3.26V2h-1.5v1.005c-.759-.643-1.656-1.157-2.475-1.392-1.502-.484-3.09-.464-4.473.056-2.039.767-3.504 2.073-4.477 3.992m5.517 15.687.732 1.308h.001l1.508-.843c.696.21 1.669.46 2.145.39.947-.144 1.856-.66 3.508-1.6l4.634-2.639c.477-.267.817-.704.96-1.233a2.03 2.03 0 0 0-.215-1.568 2 2 0 0 0-.358-.456 2.02 2.02 0 0 0 .749-1.106 2.05 2.05 0 0 0-.575-2.02c.366-.27.628-.652.747-1.1a2.03 2.03 0 0 0-.213-1.566 2.095 2.095 0 0 0-2.216-.995 2.1 2.1 0 0 0-.245-.636c-.575-.984-1.838-1.326-2.811-.764L11.38 9.252l.051-.2a2.22 2.22 0 0 0-.29-1.772 2.27 2.27 0 0 0-1.542-1 2.22 2.22 0 0 0-2.374 1.31l-2.32 5.884-1.259.68.713 1.32 1.741-.94L8.61 8.17a.71.71 0 0 1 .76-.406.75.75 0 0 1 .516.335.7.7 0 0 1 .096.574l-.956 3.64 7.918-4.49a.57.57 0 0 1 .77.218.56.56 0 0 1 .062.427.54.54 0 0 1-.25.325l-3.758 2.128.74 1.305 3.76-2.13-.37-.653.375.649 1.119-.645a.582.582 0 0 1 .84.647.5.5 0 0 1-.248.318l-1.494.852-.011.008-4.135 2.349.74 1.304 4.137-2.35-.37-.652.373.65.008-.005c.258-.144.608-.041.765.222a.56.56 0 0 1 .06.427.53.53 0 0 1-.244.322l-1.505.85.369.654-.372-.652-3.384 1.93.743 1.303 3.383-1.93a.58.58 0 0 1 .779.23.54.54 0 0 1 .058.418.5.5 0 0 1-.248.318l-4.638 2.64c-1.598.908-2.337 1.317-2.98 1.418h-.009c-.232 0-1.05-.198-1.78-.431l-.31-.1z" clip-rule="evenodd"/></svg>