<svg xmlns="http://www.w3.org/2000/svg" fill="none" viewBox="0 0 24 24"><path fill="currentColor" fill-rule="evenodd" d="M13.175 3.039c1.15-.375 2.393-.382 3.493.03 1.659.622 2.849 1.663 3.665 3.27l1.337-.68c-.99-1.948-2.473-3.244-4.476-3.995-1.446-.542-3.035-.52-4.47-.056-.787.226-1.693.732-2.472 1.391V2h-1.5v3.753h3.258v-1.5h-.914c.655-.584 1.44-1.031 2.051-1.205l.014-.004zm-9.31 4.14a.857.857 0 0 1 1.171-.32l9.197 5.29-.222-1.528c-.086-.59-.188-.977-.285-1.342l-.003-.013a10 10 0 0 1-.263-1.234.97.97 0 0 1 .08-.528.81.81 0 0 1 .981-.45l.031.01a.85.85 0 0 1 .55.527l2.288 6.429 2.25 1.227.719-1.317-1.748-.953-2.096-5.889a2.35 2.35 0 0 0-1.52-1.458l-.031-.01a2.31 2.31 0 0 0-2.799 1.282c-.18.411-.258.878-.19 1.349.06.4.125.709.19.977L5.784 5.56a2.357 2.357 0 0 0-3.222.874 2.363 2.363 0 0 0 .874 3.223l3.93 2.258a9.8 9.8 0 0 0-.84 1.788c-.263.768-.384 1.511-.48 2.393-.147 1.374.023 2.724.73 3.653l.01.013.01.013c.861 1.03 2.188 1.506 3.466 1.73 1.204.212 2.482.22 3.543.188l1.484.942.804-1.266-1.877-1.191-.232.008c-1.08.04-2.33.04-3.463-.158-1.14-.2-2.037-.582-2.561-1.201-.361-.485-.552-1.365-.422-2.57.09-.838.197-1.455.407-2.07s.535-1.26 1.096-2.133l.426-.663-5.284-3.035a.863.863 0 0 1-.319-1.177" clip-rule="evenodd"/></svg>