<svg xmlns="http://www.w3.org/2000/svg" fill="none" viewBox="0 0 24 24"><path fill="currentColor" fill-rule="evenodd" d="M18.5 1.25a2.71 2.71 0 0 0-2.719 2.702v.658H14.25v7.14h8.5V4.61h-5.469v-.658c0-.658.54-1.202 1.219-1.202.305 0 .581.11.794.29l.972-1.143A2.72 2.72 0 0 0 18.5 1.25m-2.75 9V6.11h5.5v4.14zM3 5.25a.75.75 0 0 0-.75.75v5.5h1.5V6.75h8.75v-1.5zm18.25 8.25v6.75H12.5v1.5H22a.75.75 0 0 0 .75-.75v-7.5zM1.984 21a1 1 0 0 1 1-1h.01a1 1 0 1 1 0 2h-.01a1 1 0 0 1-1-1m.061-6.25c3.564 0 7.205 3.192 7.205 7.25h1.5c0-4.942-4.369-8.75-8.705-8.75zM2 17.985c2.08 0 4.02 1.931 4.02 4.015h1.5c0-2.916-2.614-5.515-5.52-5.515z" clip-rule="evenodd"/></svg>