<svg xmlns="http://www.w3.org/2000/svg" fill="none" viewBox="0 0 24 24"><path fill="currentColor" fill-rule="evenodd" d="M13.051 21.75h-4.01c-3.44 0-6.24-2.8-6.24-6.25 0-2.04 1.02-3.96 2.66-5.12-.27-.18-.54-.39-.76-.64-2.15-.14-3.16-1.41-3.38-2.6l-.12-.62 2.87-1.09A4.748 4.748 0 0 1 13.301 7c0 .87-.34 1.6-.82 2.25h4.54c1.11 0 1.28-1.1 1.28-1.75v-.75h1.6l.22.26c3.17 3.71 2.66 7.91 2.63 8.09 0 3.94-3.9 6.65-9.7 6.65m-7.01-12.8c.2.16.44.31.67.45.13.08.26.16.38.24l.34.22v1.15l-.42.2c-1.64.79-2.7 2.47-2.7 4.29 0 2.62 2.13 4.75 4.74 4.75h4.01c4.91 0 8.21-2.11 8.21-5.25l.003-.052c.032-.435.247-3.344-1.653-6.138-.38 1.21-1.32 1.94-2.59 1.94h-6.58V9.32l.2-.22c.69-.74 1.16-1.38 1.16-2.11 0-1.79-1.46-3.25-3.25-3.25-1.38 0-2.59.86-3.05 2.13l.38.56c.52.76.56 1.73.15 2.51zm-3.02-1.52c.32.46.9.74 1.69.8.15-.3.13-.67-.07-.95l-.25-.37zm5.28-.67H6.8v-1.5l1.5-.01zm2.75 11.99h1.5c2.63 0 5.75-3.12 5.75-5.75v-.75h-7.25c-1.79 0-3.25 1.46-3.25 3.25s1.46 3.25 3.25 3.25M9.3 15.5c0-.96.79-1.75 1.75-1.75h5.62c-.52 1.66-2.57 3.5-4.12 3.5h-1.5c-.96 0-1.75-.79-1.75-1.75" clip-rule="evenodd"/></svg>