<svg xmlns="http://www.w3.org/2000/svg" fill="none" viewBox="0 0 24 24"><path fill="currentColor" fill-rule="evenodd" d="M16.431 16.05a2.25 2.25 0 0 1 2.505.683l-8.13 4.517H4v1.5h7a.75.75 0 0 0 .364-.094l9-5a.75.75 0 0 0 .28-1.042l-.228-.379a3.75 3.75 0 0 0-4.497-1.594l-2.745.998a2.5 2.5 0 0 0-.288-.316c-.54-.495-1.234-.697-1.886-.697H9.693l-2.5-1.376H4v1.5h2.807l2.5 1.375H11c.356 0 .662.11.87.303a1.1 1.1 0 0 1 .311.526l-2.64.755-2.262-.905-.558 1.393 2.739 1.095 4.29-1.226V17.5a4 4 0 0 0-.028-.465zM9 1.25h10a.75.75 0 0 1 .75.75v10a.75.75 0 0 1-.75.75H9a.75.75 0 0 1-.75-.75V2A.75.75 0 0 1 9 1.25m.75 1.5v8.5h8.5v-8.5zm2.75 3h3v-1.5h-3z" clip-rule="evenodd"/></svg>