<svg xmlns="http://www.w3.org/2000/svg" fill="none" viewBox="0 0 24 24"><path fill="currentColor" fill-rule="evenodd" d="M12.321 6.405 6.853.938l-.53.54A10.72 10.72 0 0 0 3.25 9.003a10.7 10.7 0 0 0 1.893 6.094L2.31 21.705A.75.75 0 0 0 3 22.75h6a.75.75 0 0 0 .69-1.045l-1.593-3.716A10.7 10.7 0 0 0 14 19.753c2.93 0 5.587-1.172 7.525-3.073l.541-.53-5.452-5.451 1.504-4.093a2.75 2.75 0 1 0-1.629-1.482zm1.2 1.2 1.925 1.925 1.042-2.837zm4.684-2.64-.018-.016a1.25 1.25 0 1 1 .018.015M6.635 14.6A9.24 9.24 0 0 0 14 18.253a9.2 9.2 0 0 0 5.912-2.135L6.886 3.09A9.2 9.2 0 0 0 4.75 9.003c0 2.06.673 3.963 1.811 5.5q.04.045.073.097m1.228 6.65H4.137L6 16.904z" clip-rule="evenodd"/></svg>