<svg xmlns="http://www.w3.org/2000/svg" fill="none" viewBox="0 0 24 24"><path fill="currentColor" fill-rule="evenodd" d="m2.587 2.531 1.51 1.887c1.05-1.276 2.786-1.465 4.155-.762a8.16 8.16 0 0 0 3.75.92 8.16 8.16 0 0 0 3.75-.92c1.368-.703 3.105-.514 4.155.762l1.509-1.887 1.171.937-1.338 1.674 1 .35-.495 1.416-1.013-.355c.024.326.007.65-.049.964-.147.823-.582 1.624-1.353 2.102-2.19 1.358-4.685 2.13-7.337 2.13s-5.148-.772-7.338-2.13c-.77-.478-1.205-1.28-1.353-2.102a4 4 0 0 1-.049-.964l-1.013.355-.495-1.416 1-.35-1.338-1.674zM5.03 5.712c.51-.96 1.59-1.209 2.538-.721q.287.147.583.276l-.917 1.908 1.353.65.99-2.063a9.5 9.5 0 0 0 1.676.284V8h1.5V6.046a9.5 9.5 0 0 0 1.667-.282l.896 2.038 1.373-.604-.846-1.926q.3-.13.594-.281c.949-.488 2.028-.238 2.539.721.252.474.33 1.037.24 1.54s-.335.886-.666 1.092c-1.97 1.222-4.194 1.906-6.547 1.906s-4.578-.684-6.547-1.906c-.332-.206-.577-.588-.667-1.092a2.43 2.43 0 0 1 .24-1.54m14.673 14.05c1.126-.622 1.6-1.828 1.487-2.996l.623.162.377-1.452-.885-.23 1.305-1.805-1.216-.879-1.385 1.916c-1.111-.94-2.72-1.014-3.993-.433q-.598.273-1.23.464a9.6 9.6 0 0 1-2.784.41 9.6 9.6 0 0 1-4.014-.874c-1.277-.583-2.892-.506-4.003.442L2.61 12.566l-1.22.872 1.294 1.811-.873.227.377 1.452.624-.162c-.113 1.168.36 2.375 1.487 2.996a15.89 15.89 0 0 0 15.402 0M4.573 16.086c.532-.888 1.722-1.165 2.79-.677q.308.14.623.262l-.672 1.53 1.373.603.741-1.685q.889.211 1.823.275v1.608h1.5v-1.608q.934-.064 1.822-.275l.741 1.685 1.373-.604-.672-1.529q.315-.12.623-.262c1.069-.488 2.259-.21 2.79.677.537.897.264 1.968-.45 2.362a14.39 14.39 0 0 1-13.954 0c-.714-.394-.988-1.465-.451-2.362" clip-rule="evenodd"/></svg>