<svg xmlns="http://www.w3.org/2000/svg" fill="none" viewBox="0 0 24 24"><path fill="currentColor" fill-rule="evenodd" d="M12.75 1.25v1.525c5.008.336 9 4.039 9 9.725v.75h-9v7.25a2.25 2.25 0 0 1-4.5 0V20h1.5v.5a.75.75 0 0 0 1.5 0v-7.25h-9v-.75c0-5.686 3.992-9.389 9-9.725V1.25zm2.488 10.5c-.073-2.34-.489-4.21-1.09-5.505C13.468 4.779 12.663 4.25 12 4.25c-.662 0-1.468.53-2.148 1.995-.601 1.294-1.017 3.165-1.09 5.505zM8.952 4.76q-.252.402-.46.853C7.777 7.151 7.334 9.25 7.26 11.75H3.777c.258-3.49 2.316-5.974 5.175-6.99m6.096 0q.252.402.46.853c.714 1.538 1.157 3.637 1.231 6.137h3.484c-.258-3.49-2.316-5.974-5.175-6.99m2.41 12.99 2.089-2.925-1.221-.872-3.783 5.296h4l-2.089 2.925 1.22.872 3.784-5.297z" clip-rule="evenodd"/></svg>