<svg xmlns="http://www.w3.org/2000/svg" fill="none" viewBox="0 0 24 24"><path fill="currentColor" fill-rule="evenodd" d="M20.292 3.705a1.553 1.553 0 0 0-2.317.136l-.006.007-3.994 4.938a5.5 5.5 0 0 1 1.236 1.236l4.945-4c.73-.576.794-1.66.136-2.317M16.8 2.908l-4.178 5.165a5.48 5.48 0 0 0-4.519.367l-5.967 3.316a.75.75 0 0 0-.166 1.185l9.089 9.09a.75.75 0 0 0 1.185-.167l3.316-5.968a5.48 5.48 0 0 0 .365-4.522l5.164-4.177a3.053 3.053 0 1 0-4.288-4.29M5.435 6.434a4.43 4.43 0 0 1 2.222-1.201l-.314-1.467a5.93 5.93 0 0 0-2.969 1.607 5.93 5.93 0 0 0-1.607 2.97l1.467.313a4.43 4.43 0 0 1 1.2-2.222m8.15 3.983a3.98 3.98 0 0 0-4.752-.666l-5.099 2.833 7.683 7.683 2.833-5.099a3.98 3.98 0 0 0-.666-4.751m6.653 6.215a5.66 5.66 0 0 1-1.644 3.06 5.94 5.94 0 0 1-2.942 1.538l-.303-1.469a4.44 4.44 0 0 0 2.203-1.148 4.16 4.16 0 0 0 1.21-2.254zM4.612 19.383a1.25 1.25 0 0 1 0-1.768l-1.06-1.06a2.75 2.75 0 0 0 3.889 3.889l-1.061-1.06a1.25 1.25 0 0 1-1.768 0" clip-rule="evenodd"/></svg>