<svg xmlns="http://www.w3.org/2000/svg" fill="none" viewBox="0 0 24 24"><path fill="currentColor" fill-rule="evenodd" d="M3 2.25a.75.75 0 0 0-.75.75v18c0 .414.336.75.75.75h18a.75.75 0 0 0 .75-.75V3a.75.75 0 0 0-.75-.75zm.75 18V3.75h16.5v16.5zm10-11.75a.75.75 0 1 1 1.5 0 .75.75 0 0 1-1.5 0m.75-2.25a2.25 2.25 0 0 0-2.054 3.17l-1.854 1.597L7.48 8.424l-.96 1.152L9.428 12 6.52 14.424l.96 1.152 3.122-2.602 1.873 1.544a2.25 2.25 0 1 0 1.075-1.058l-1.786-1.472 1.719-1.48A2.25 2.25 0 1 0 14.5 6.25m-.75 9.25a.75.75 0 1 1 1.5 0 .75.75 0 0 1-1.5 0" clip-rule="evenodd"/></svg>