<svg xmlns="http://www.w3.org/2000/svg" fill="none" viewBox="0 0 24 24"><path fill="currentColor" fill-rule="evenodd" d="M16.74 7.25V5.755q.167.003.301.012c.243.017.36.046.437.078.307.127.55.37.677.677.032.077.061.194.078.435q.009.13.012.293zM19 8.75h-.809c.318.33.632.707.924 1.125a8.94 8.94 0 0 1 1.611 4.472 2.751 2.751 0 1 1-3.465 2.403h-6.586a3.751 3.751 0 0 1-7.35 0H2a.75.75 0 0 1-.75-.75c0-1.777.63-3.231 1.7-4.24 1.063-1 2.506-1.51 4.05-1.51s2.987.51 4.05 1.51c.893.842 1.48 1.996 1.65 3.388.378-.12.693-.34.965-.636.444-.484.782-1.184 1.028-2.009.492-1.65.547-3.558.547-4.503V5.75h-2.296v-1.5h3.071c.448 0 .821 0 1.127.02.319.022.62.069.91.19a2.75 2.75 0 0 1 1.489 1.488c.12.29.167.59.188.907.021.304.021.675.021 1.12V8a.75.75 0 0 1-.75.75m-1.121 6.5a2.75 2.75 0 0 1 1.343-.889 7.45 7.45 0 0 0-1.337-3.627A7.7 7.7 0 0 0 16.7 9.395c-.06 1.03-.21 2.33-.57 3.537-.244.82-.6 1.644-1.127 2.318zM9 8.75H5v-1.5h4zm-4.122 8a2.25 2.25 0 0 0 4.244 0zm6.322-1.5c-.141-1.034-.577-1.83-1.179-2.397C9.275 12.15 8.217 11.75 7 11.75s-2.275.4-3.021 1.103c-.602.566-1.038 1.363-1.18 2.397zm8.8.5a1.25 1.25 0 1 0 0 2.5 1.25 1.25 0 0 0 0-2.5" clip-rule="evenodd"/></svg>