<svg xmlns="http://www.w3.org/2000/svg" fill="none" viewBox="0 0 24 24"><path fill="currentColor" fill-rule="evenodd" d="M16.029 16.75a.76.76 0 0 1-.65-.363c-.1-.162-.131-.352-.1-.532v-.257l.114-.076 1.344-3.516-1.477-3.85v-.14a.764.764 0 0 1 1.157-.657l.027.017 6.306 4.18v.824l-5.97 4.016v.167l-.546.156a.8.8 0 0 1-.204.028zm1.507-6.85.808 2.106-.788 2.063 3.11-2.093zM12 14.758a2.753 2.753 0 0 1-2.75-2.748A2.753 2.753 0 0 1 12 9.262a2.753 2.753 0 0 1 2.75 2.748A2.753 2.753 0 0 1 12 14.758m0-3.996c-.689 0-1.25.56-1.25 1.248a1.25 1.25 0 0 0 2.5 0A1.25 1.25 0 0 0 12 10.762m-4.368 5.905a.76.76 0 0 0 .744-.031.77.77 0 0 0 .365-.653v-.135l-1.43-3.854 1.44-3.84v-.137a.765.765 0 0 0-1.155-.659l-5.988 3.97a.76.76 0 0 0-.355.643c0 .263.132.502.35.642l5.987 4.033zm-4.289-4.69 3.147 2.12-.781-2.105.79-2.108z" clip-rule="evenodd"/></svg>