<svg xmlns="http://www.w3.org/2000/svg" fill="none" viewBox="0 0 24 24"><path fill="currentColor" fill-rule="evenodd" d="M10.25 2.75h3.5v2H17a2.75 2.75 0 0 1 2.75 2.75v5.25H20a2.75 2.75 0 0 1 2.75 2.75v3.75h-2.604a2.751 2.751 0 0 1-5.292 0H8.646a2.751 2.751 0 0 1-5.292 0H1.25v-6.5h11v-8.5h-2zm-6.896 15H2.75v-3.5h9.5v3.5H8.646a2.751 2.751 0 0 0-5.292 0m1.396.75a1.25 1.25 0 1 0 2.5 0 1.25 1.25 0 0 0-2.5 0m16.5-.75h-1.104a2.751 2.751 0 0 0-5.292 0H13.75v-8.5h1.5v5H20c.69 0 1.25.56 1.25 1.25zm-3.75 2a1.25 1.25 0 1 0 0-2.5 1.25 1.25 0 0 0 0 2.5m-3.75-12v-1.5H17c.69 0 1.25.56 1.25 1.25v.25zm4.5 1.5h-1.5v3.5h1.5z" clip-rule="evenodd"/></svg>