<svg xmlns="http://www.w3.org/2000/svg" fill="none" viewBox="0 0 24 24"><path fill="currentColor" fill-rule="evenodd" d="M7.523 3.904a9.3 9.3 0 0 1 6.328-.969l.298-1.47A10.8 10.8 0 0 0 6.553 2.73a2.75 2.75 0 1 0 .97 1.173M5 3.75a1.25 1.25 0 1 0 0 2.5 1.25 1.25 0 0 0 0-2.5m14 0c-.368 0-.697.158-.927.412A1.25 1.25 0 1 0 19 3.75m-2.04-.595a2.75 2.75 0 0 1 4.309 3.398A10.7 10.7 0 0 1 22.75 12q-.002 1.104-.215 2.15l-1.47-.3a9.3 9.3 0 0 0-.969-6.327 2.75 2.75 0 0 1-3.136-4.368M2.936 10.149a9.3 9.3 0 0 0 .969 6.328 2.75 2.75 0 1 1-1.173.97 10.8 10.8 0 0 1-1.265-7.596zM5 17.75c-.323 0-.616.122-.838.323A1.25 1.25 0 1 0 5 17.75m14 0a1.25 1.25 0 1 0 0 2.5 1.25 1.25 0 0 0 0-2.5M16.25 19a2.75 2.75 0 1 1 1.197 2.27 10.8 10.8 0 0 1-7.596 1.265l.298-1.47a9.3 9.3 0 0 0 6.328-.969A2.7 2.7 0 0 1 16.25 19M7.527 9.896c1.267-1.03 2.803-1.646 4.468-1.646 1.67 0 3.211.62 4.48 1.656l-.949 1.162c-1.033-.844-2.245-1.318-3.53-1.318-1.283 0-2.491.47-3.522 1.31zm1.903 2.46a4.84 4.84 0 0 1 2.565-.745 4.84 4.84 0 0 1 2.577.753l-.794 1.272a3.35 3.35 0 0 0-1.783-.525c-.629 0-1.23.183-1.774.52zM12 15a1 1 0 1 0 0 2h.006a1 1 0 0 0 0-2z" clip-rule="evenodd"/></svg>