<svg xmlns="http://www.w3.org/2000/svg" fill="none" viewBox="0 0 24 24"><path fill="currentColor" fill-rule="evenodd" d="M5 16.75H2v-1.5h2.25V6c0-.134.035-.26.097-.369l2.19-4.381h10.927l2.208 4.415c.05.1.078.215.078.335v9.325A3.751 3.751 0 0 1 19 22.75H2v-1.5h17a2.25 2.25 0 0 0 0-4.5zm.75-10v8.5h12.5v-8.5zm1.714-4-1.25 2.5h11.573l-1.25-2.5zm3.036 5.5v1.5h3v-1.5zM6 18a1 1 0 1 0 0 2h.009a1 1 0 1 0 0-2zm6 0a1 1 0 1 0 0 2h.009a1 1 0 1 0 0-2zm6 0a1 1 0 1 0 0 2h.009a1 1 0 1 0 0-2z" clip-rule="evenodd"/></svg>