<svg xmlns="http://www.w3.org/2000/svg" fill="none" viewBox="0 0 24 24"><path fill="currentColor" fill-rule="evenodd" d="M21.988 6.266H17.97l-2.3-4.602-1.342.67 1.965 3.932h-5.316v1.5h10.27v1.71l-1.412.477-.462 2.406 1.473.283.297-1.547 1.604-.542V7.026a.76.76 0 0 0-.76-.76M10.687 2.3l-3.5 8-1.375-.6.831-1.9H2.752v1.672l1.38.466 1.967 9.298 4.915-.007.003 1.5-5.517.008a.76.76 0 0 1-.744-.602l-1.915-9.05-1.59-.536.001-3.49c0-.42.34-.76.76-.76h5.287L9.312 1.7zm6.248 12.468c.516-.03.991.18 1.636.505l.11.056c.414.21.925.47 1.5.585.201 1.355.01 2.277-.267 2.915-.287.66-.681 1.069-1.012 1.411l-.11.116c-.09.094-.398.311-.83.527-.387.192-.747.32-.98.359-.229-.039-.547-.153-.894-.33a4.7 4.7 0 0 1-.91-.592c-.838-.736-1.23-1.686-1.375-2.61a5.9 5.9 0 0 1 0-1.79c.554-.11 1.055-.357 1.462-.558l.045-.022c.632-.31 1.115-.542 1.625-.572m3.863-.294c-.446.012-.874-.199-1.552-.54-.61-.308-1.426-.72-2.397-.663-.833.048-1.567.41-2.13.688l-.072.036c-.639.314-1.048.493-1.436.48l-.588-.02-.16.566c-.189.67-.325 1.754-.142 2.921.184 1.178.703 2.481 1.866 3.505.313.274.76.568 1.22.802.452.23.995.444 1.495.495l.072.008.073-.007c.51-.047 1.108-.283 1.583-.52.47-.234.972-.545 1.248-.835l.102-.106c.334-.344.91-.935 1.31-1.857.451-1.04.662-2.441.263-4.357l-.128-.614z" clip-rule="evenodd"/></svg>