<svg xmlns="http://www.w3.org/2000/svg" fill="none" viewBox="0 0 24 24"><path fill="currentColor" fill-rule="evenodd" d="M5.796 6.75a6.251 6.251 0 0 1 12.41 0h3.284a.76.76 0 0 1 .749.893v.002l-.796 4.475-1.477-.262.641-3.608H3.391l2.285 12.982h6.31v1.5h-7.57L1.762 7.642a.76.76 0 0 1 .748-.892zm1.514 0h9.382a4.751 4.751 0 0 0-9.382 0M17 14.734c.137-.086.299-.174.484-.252.653-.272 1.576-.395 2.606.143 1.332.694 1.932 2.32 1.541 3.919-.4 1.634-1.794 3.221-4.375 4.16l-.256.094-.257-.093c-2.58-.94-3.975-2.527-4.374-4.161-.391-1.599.209-3.225 1.54-3.92 1.031-.537 1.954-.414 2.607-.142.185.078.347.166.484.252m-1.062 1.133c-.32-.133-.768-.208-1.335.088-.601.313-1.038 1.166-.777 2.233.242.99 1.122 2.195 3.174 3.01 2.051-.815 2.932-2.02 3.174-3.01.26-1.067-.176-1.92-.778-2.233-.566-.296-1.015-.221-1.335-.088a1.8 1.8 0 0 0-.517.334l-.544.582-.544-.582-.002-.003a1 1 0 0 0-.116-.098 1.8 1.8 0 0 0-.4-.233" clip-rule="evenodd"/></svg>