<svg xmlns="http://www.w3.org/2000/svg" fill="none" viewBox="0 0 24 24"><path fill="currentColor" fill-rule="evenodd" d="M17 5.25a.75.75 0 0 0-.75.75v13c0 .414.336.75.75.75h4a.75.75 0 0 0 .75-.75V6a.75.75 0 0 0-.75-.75zm.75 13V6.75h2.5v11.5zM9.25 10a.75.75 0 0 1 .75-.75h4a.75.75 0 0 1 .75.75v9a.75.75 0 0 1-.75.75h-4a.75.75 0 0 1-.75-.75zm1.5.75v7.5h2.5v-7.5zM2.25 14a.75.75 0 0 1 .75-.75h4a.75.75 0 0 1 .75.75v5a.75.75 0 0 1-.75.75H3a.75.75 0 0 1-.75-.75zm1.5.75v3.5h2.5v-3.5z" clip-rule="evenodd"/></svg>