<svg xmlns="http://www.w3.org/2000/svg" fill="none" viewBox="0 0 24 24"><path fill="currentColor" fill-rule="evenodd" d="M13.257 2.29a.75.75 0 0 1 .474-.004l4.235 1.37.054.02a2.24 2.24 0 0 1 .872 3.504l.405.15a2.21 2.21 0 0 1 1.38 2.638c-.326 1.221-1.605 1.915-2.809 1.561l-2.194-.643-.066-.023c-.663-.264-1.772-.225-2.74.172-.977.4-1.5 1.021-1.5 1.689 0 .501.294.95.772 1.223.481.273 1.069.317 1.552.077l.358-.18c.72-.365 1.546-.783 2.386-.992 1.038-.257 2.163-.217 3.292.532.407.27.766.701.888 1.225.134.577-.044 1.186-.582 1.624l-.063.046-2.804 1.83c-.328.259-.804.528-1.268.76a15 15 0 0 1-1.451.628l-.003.001a3 3 0 0 0-.215.1 4 4 0 0 0-.562.344c-.437.318-.818.735-.94 1.235l-1.457-.354c.243-1 .952-1.685 1.514-2.094a5.7 5.7 0 0 1 1.089-.618l.023-.009.007-.003.003-.001h.001s-.004.013.001 0l.016-.007c.38-.137.86-.343 1.305-.565.458-.229.828-.449 1.023-.607l.064-.047 2.793-1.823c.04-.037.047-.06.047-.06s.005-.01-.002-.04a.6.6 0 0 0-.256-.315c-.706-.468-1.379-.505-2.102-.326-.661.164-1.312.492-2.04.86l-.397.199c-.99.492-2.107.37-2.961-.116-.858-.487-1.531-1.39-1.531-2.527 0-1.567 1.22-2.58 2.431-3.077 1.209-.495 2.714-.62 3.829-.192l2.162.635a.747.747 0 0 0 .937-.508.71.71 0 0 0-.453-.846l-2.333-.868-2.857-.585-3.172 1.403-.607-1.372 3.392-1.5a.75.75 0 0 1 .454-.049l3.148.645a1 1 0 0 1 .111.032.74.74 0 0 0 .562-1.37L13.505 3.79c-.62.206-1.28.402-1.903.588-.359.107-.706.21-1.027.31a19 19 0 0 0-1.29.44c-.373.148-.625.277-.771.383A13.8 13.8 0 0 0 6.44 7.374c-.659.734-1.157 1.485-1.366 2.154-.317 1.013-.325 2.188-.325 4.866V21h-1.5v-6.759c0-2.482 0-3.902.393-5.16.302-.966.96-1.906 1.682-2.709.73-.813 1.57-1.539 2.306-2.074.302-.22.696-.404 1.103-.565.417-.164.897-.323 1.396-.478q.537-.165 1.089-.328c.685-.204 1.377-.41 2.038-.637" clip-rule="evenodd"/></svg>