<svg xmlns="http://www.w3.org/2000/svg" fill="none" viewBox="0 0 24 24"><path fill="currentColor" fill-rule="evenodd" d="M10.83 2.828a9.3 9.3 0 0 1 2.41 0l.193-1.487a10.8 10.8 0 0 0-2.796 0zm4.732.62a9.2 9.2 0 0 1 2.082 1.205l.914-1.19a10.7 10.7 0 0 0-2.421-1.4zM6.426 4.654A9.2 9.2 0 0 1 8.508 3.45l-.575-1.386c-.871.362-1.684.835-2.421 1.401zm12.92 1.702a9.2 9.2 0 0 1 1.204 2.082l1.386-.574a10.7 10.7 0 0 0-1.4-2.422zM3.52 8.437a9.2 9.2 0 0 1 1.204-2.082l-1.19-.914a10.7 10.7 0 0 0-1.4 2.422zm17.65 2.323a9.3 9.3 0 0 1 0 2.409l1.488.194a10.8 10.8 0 0 0 0-2.797zM2.82 11.964q0-.613.078-1.204l-1.488-.194q-.09.688-.09 1.398c0 .4-.018.797-.036 1.206l-.002.03 1.499.067.002-.042c.018-.4.037-.826.037-1.26m17.73 3.527a9.2 9.2 0 0 1-1.205 2.082l1.19.914a10.7 10.7 0 0 0 1.4-2.421zm-17.333 1.08a3.2 3.2 0 0 1-.36-.962l-1.467.308c.083.399.213.795.409 1.183l-.102 1.017 1.493.15.124-1.246a.75.75 0 0 0-.097-.45m14.426 2.704a9.2 9.2 0 0 1-2.082 1.205l.575 1.385a10.7 10.7 0 0 0 2.421-1.4zM2.942 20.758l-.034.333.334-.033.149 1.492-1.246.125a.75.75 0 0 1-.82-.821l.124-1.246zm4.486.023a.75.75 0 0 0-.45-.097l-1.245.125.149 1.492 1.017-.101c.388.196.784.325 1.183.409l.308-1.468a3.2 3.2 0 0 1-.962-.36m5.811.32a9 9 0 0 1-1.204.078c-.435 0-.861.019-1.261.037l-.041.002.067 1.498.029-.001c.409-.019.805-.036 1.206-.036q.711 0 1.398-.09zm-7.471-9.12a6.247 6.247 0 1 1 6.246 6.247c-1.208 0-2.2-.261-3.128-.826l-.274-.166-2.53.672.683-2.54-.165-.273c-.561-.93-.832-1.92-.832-3.114m6.246-7.747a7.747 7.747 0 0 0-7.746 7.747c0 1.333.284 2.508.885 3.606L4.3 18.755a.76.76 0 0 0 .929.931l3.159-.838c1.108.608 2.29.88 3.625.88a7.747 7.747 0 0 0 0-15.494" clip-rule="evenodd"/></svg>