<svg xmlns="http://www.w3.org/2000/svg" fill="none" viewBox="0 0 24 24"><path fill="currentColor" fill-rule="evenodd" d="M19.56 7.75c-.936 0-1.784-.518-2.112-1.29l1.385-.586c.08.187.355.376.727.376.444 0 .753-.264.753-.5s-.31-.5-.753-.5c-1.245 0-2.257-.897-2.257-2s1.012-2 2.257-2c.935 0 1.784.518 2.112 1.29l-1.386.586c-.079-.187-.355-.376-.727-.376-.443 0-.752.264-.752.5s.309.5.752.5c1.245 0 2.257.897 2.257 2s-1.012 2-2.257 2m-8.261 5c.173 4.61 1.942 8 4.248 8l-.001.001c.847 0 1.589-.311 2.203-.925 1.499-1.5 1.911-4.617 2.022-7.076h2.296v-1.5h-2.259c.003-.352.002-.67 0-.943v-.305h-1.503v.31c.006 1.862.022 6.811-1.622 8.455-.33.33-.69.484-1.136.484-1.223 0-2.58-2.733-2.742-6.501h3.244v-1.5h-3.274c-.174-4.61-1.942-7.999-4.248-7.999-.846 0-1.587.311-2.201.925-1.5 1.499-1.912 4.615-2.023 7.074H2.006v1.5h2.259q-.003.527-.002.937v.314h1.505v-.316c-.006-1.863-.02-6.809 1.623-8.451.33-.33.691-.484 1.136-.484 1.223 0 2.58 2.733 2.742 6.5H8.024v1.5zm-5.74 10h.002l-.001.003c.97 0 1.841-.601 2.167-1.494l-1.414-.513a.79.79 0 0 1-.753.506h-.002a.8.8 0 0 1-.252-.039.76.76 0 0 1-.542-.711v-2c0-.33.227-.611.542-.711a.8.8 0 0 1 .252-.039h.002a.79.79 0 0 1 .754.506l1.414-.513a2.3 2.3 0 0 0-2.167-1.494h-.002c-.507 0-.976.161-1.356.434a2.26 2.26 0 0 0-.81 1.06 2.2 2.2 0 0 0-.134.756v2c0 .265.047.52.133.756.159.434.445.799.81 1.059.382.272.85.434 1.357.434" clip-rule="evenodd"/></svg>