<svg xmlns="http://www.w3.org/2000/svg" fill="none" viewBox="0 0 24 24"><path fill="currentColor" fill-rule="evenodd" d="M5.534 4.051c.627-.985 1.531-1.801 2.778-1.801.736 0 1.34.374 1.81.902.46.519.839 1.233 1.159 2.06.642 1.66 1.127 3.98 1.5 6.686.37 2.674.836 4.855 1.414 6.35.29.75.59 1.277.882 1.605.284.319.508.397.684.397.496 0 1.001-.31 1.507-1.105.502-.789.907-1.915 1.219-3.196.255-1.044.438-2.154.567-3.199h-1v-1.5h1.152c.073-.896.102-1.678.102-2.239h1.505c0 .57-.028 1.348-.098 2.239h1.352v1.5h-1.498a30 30 0 0 1-.62 3.553c-.327 1.344-.78 2.654-1.41 3.646-.627.985-1.532 1.801-2.778 1.801-.736 0-1.34-.374-1.81-.902-.461-.519-.84-1.233-1.16-2.06-.642-1.66-1.126-3.98-1.5-6.686-.37-2.674-.836-4.855-1.414-6.35-.29-.75-.59-1.277-.881-1.605-.284-.319-.509-.397-.684-.397-.497 0-1.001.31-1.507 1.105-.502.789-.907 1.915-1.22 3.196a28 28 0 0 0-.566 3.199h.999v1.5H4.867a29 29 0 0 0-.103 2.239H3.26c0-.57.028-1.348.097-2.24H2.006v-1.5h1.498a30 30 0 0 1 .62-3.552c.327-1.344.78-2.654 1.41-3.646m2.49 8.699h2.006v-1.5H8.024zm8.025 0h-2.007v-1.5h2.007z" clip-rule="evenodd"/></svg>