<svg xmlns="http://www.w3.org/2000/svg" fill="none" viewBox="0 0 24 24"><path fill="currentColor" fill-rule="evenodd" d="M12 2.75A9.24 9.24 0 0 0 4.153 7.1a7.6 7.6 0 0 0 2.575.074c1.022-.148 1.965-.496 3.059-.928l.329-.13c1.798-.714 3.909-1.552 7.041-1.796A9.2 9.2 0 0 0 12 2.75m-9.219 8.483c.08-.967.308-1.892.662-2.751 1.312.303 2.442.33 3.5.176 1.213-.176 2.301-.585 3.395-1.016l.322-.128c.681-.27 1.389-.551 2.167-.807q-.33.256-.662.517c-.372.293-.744.585-1.115.863-2.041 1.531-4.449 2.972-8.269 3.146m1.595 6.007a9.2 9.2 0 0 1-1.587-4.382c.71.182 1.52.588 2.436 1.181.935.604 1.904 1.348 2.919 2.133-1.239.6-2.481 1.002-3.768 1.068m1.16 1.376A9.22 9.22 0 0 0 12 21.25a9.2 9.2 0 0 0 3.494-.683 9.6 9.6 0 0 1-1.924-.71c-1.395-.677-2.785-1.667-4.11-2.673-1.252.668-2.557 1.196-3.925 1.432m5.334-2.248c1.14.847 2.26 1.609 3.355 2.14 1.326.643 2.52.901 3.6.643l.008.029a9.23 9.23 0 0 0 3.34-8.38c-1.134.135-2.256.54-3.395 1.119-1.41.716-2.797 1.673-4.242 2.67l-.089.062a63 63 0 0 1-2.577 1.717m9.988-7.04A9.2 9.2 0 0 0 18.82 5.75q-.527.004-1.016.03c-.974.148-1.842.561-2.735 1.15-.64.42-1.244.896-1.901 1.414-.383.3-.783.616-1.218.942-1.698 1.274-3.707 2.535-6.508 3.122q.3.178.598.37c1.04.672 2.127 1.514 3.206 2.35h.001l.338.261c1.005-.596 2.018-1.29 3.059-2.007l.083-.057c1.413-.976 2.871-1.982 4.37-2.745 1.195-.607 2.446-1.075 3.761-1.253M1.25 12C1.25 6.063 6.063 1.25 12 1.25S22.75 6.063 22.75 12 17.937 22.75 12 22.75 1.25 17.937 1.25 12" clip-rule="evenodd"/></svg>