<svg xmlns="http://www.w3.org/2000/svg" fill="none" viewBox="0 0 24 24"><path fill="currentColor" fill-rule="evenodd" d="M9 2.75a1.25 1.25 0 1 0 0 2.5 1.25 1.25 0 0 0 0-2.5M6.25 4a2.75 2.75 0 1 1 5.5.044l4.93 1.48a2.75 2.75 0 1 1 3.273 4.057l.594 7.723a2.75 2.75 0 1 1-3.265 3.115l-10.75-1.344a2.75 2.75 0 1 1-2.345-3.819l3.22-9.015A2.75 2.75 0 0 1 6.25 4m2.57 2.744-3.221 9.018a2.75 2.75 0 0 1 1.12 1.825l10.747 1.343c.295-.698.87-1.25 1.585-1.512l-.594-7.722A2.75 2.75 0 0 1 16.25 6.96l-4.932-1.48A2.75 2.75 0 0 1 8.82 6.745M19 5.75a1.25 1.25 0 1 0 0 2.5 1.25 1.25 0 0 0 0-2.5M18.75 20a1.25 1.25 0 1 1 2.5 0 1.25 1.25 0 0 1-2.5 0M4 16.75a1.25 1.25 0 1 0 0 2.5 1.25 1.25 0 0 0 0-2.5" clip-rule="evenodd"/></svg>