<svg xmlns="http://www.w3.org/2000/svg" fill="none" viewBox="0 0 24 24"><path fill="currentColor" fill-rule="evenodd" d="M3 2.25a.75.75 0 0 0-.75.75v18c0 .414.336.75.75.75h18a.75.75 0 0 0 .75-.75V3a.75.75 0 0 0-.75-.75zm.75 18V3.75h16.5v16.5zm8.255-13.008a.75.75 0 0 0-.716.526l-1.947 6.23-1.164-2.352a.75.75 0 0 0-1.198-.202l-1.513 1.49 1.052 1.069.775-.763 1.533 3.1a.75.75 0 0 0 1.388-.109l2.341-7.489h5.429v-1.5zm3.564 4.08-.024-.045c-.112-.216-.301-.579-.723-.802-.396-.21-.91-.254-1.54-.254v1.5c.3 0 .504.013.645.033.12.017.171.037.188.044l.002.003c.025.034.052.083.126.223.035.065.191.398.393.846-.28.365-.54.682-.807.927-.346.32-.609.429-.829.429v1.5c.763 0 1.375-.392 1.846-.826.163-.15.32-.317.473-.49.05.116.114.252.195.386.245.407.635.773 1.294.913l.077.017h.806v-1.5h-.635a.4.4 0 0 1-.258-.205 2.4 2.4 0 0 1-.146-.308l-.015-.036c-.046-.11-.107-.258-.183-.4l-.09-.208q.122-.162.242-.314c.293-.349.547-.616.792-.796.238-.175.427-.238.602-.238v-1.5c-.588 0-1.082.23-1.49.53a5.5 5.5 0 0 0-.835.787 6 6 0 0 0-.106-.217" clip-rule="evenodd"/></svg>