<svg xmlns="http://www.w3.org/2000/svg" fill="none" viewBox="0 0 24 24"><path fill="currentColor" fill-rule="evenodd" d="M12 3.75a3.25 3.25 0 0 0-1.624 6.066l.414.24-.198 2.194h2.816l-.198-2.195.414-.24A3.25 3.25 0 0 0 12 3.75m1.544 10h-3.088l-.135 1.5h3.358zm-4.332-2.904-.397 4.404H7A2.75 2.75 0 0 0 4.25 18v3c0 .414.336.75.75.75h14a.75.75 0 0 0 .75-.75v-3A2.75 2.75 0 0 0 17 15.25h-1.815l-.398-4.404a4.75 4.75 0 1 0-5.575 0M7 16.75c-.69 0-1.25.56-1.25 1.25v2.25h12.5V18c0-.69-.56-1.25-1.25-1.25z" clip-rule="evenodd"/></svg>