<svg xmlns="http://www.w3.org/2000/svg" fill="none" viewBox="0 0 24 24"><path fill="currentColor" fill-rule="evenodd" d="M12 1.25C6.063 1.25 1.25 6.063 1.25 12S6.063 22.75 12 22.75 22.75 17.937 22.75 12 17.937 1.25 12 1.25M2.75 12a9.25 9.25 0 1 1 18.5 0 9.25 9.25 0 0 1-18.5 0m10.054-5.295a.85.85 0 0 0-1.423.002l-.01.016-1.548 2.655-2.848.71-.015.004c-.612.178-.78.897-.44 1.346l.023.03L8.47 13.53l-.73 3.235a1 1 0 0 0-.02.163c-.001.06-.008.295.139.519a.8.8 0 0 0 .478.338.8.8 0 0 0 .49-.036l.008-.003 3.262-1.355 3.257 1.355.008.003.003.001c.012.005.052.02.093.033l.002.001c.034.01.166.05.332.033a.77.77 0 0 0 .602-.413.82.82 0 0 0 .069-.567l-.756-3.302 1.939-2.069.023-.03c.342-.45.172-1.17-.442-1.347l-.013-.004-2.855-.713-1.544-2.65zM10.8 10.68l1.293-2.217 1.289 2.211 2.391.597-1.706 1.82.63 2.758-2.6-1.082-2.613 1.085.624-2.766-1.693-1.811z" clip-rule="evenodd"/></svg>