<svg xmlns="http://www.w3.org/2000/svg" fill="none" viewBox="0 0 24 24"><path fill="currentColor" fill-rule="evenodd" d="M9.817 5.91c4.482-4.665 9.122-4.647 11.485-3.57l.262.12.114.262c1.051 2.4 1.077 7.156-3.566 11.749 1.086 2.146.662 4.037-.068 5.383a7.6 7.6 0 0 1-1.861 2.233l-.013.01-.005.003-.001.001s-.002.001-.453-.598l.451.6-.529.398-3.994-4.12-.003-.003-5.717-5.832-4.403-4.355.377-.521.076.055.531.385-.607-.44.001-.001.001-.002.004-.005.01-.013a3 3 0 0 1 .151-.19A7.5 7.5 0 0 1 4.133 5.73c1.412-.787 3.423-1.207 5.684.179M8.801 7.053c-1.605-.88-2.944-.566-3.938-.012a6 6 0 0 0-1.303.998l-.032.033 2.741 2.71a26 26 0 0 1 2.532-3.729m-1.43 4.833 4.938 5.036c8.77-5.01 8.965-10.91 8.103-13.327-2.349-.868-8.125-.685-13.04 8.29m6.017 6.144 2.356 2.43.008-.009c.3-.31.673-.758.973-1.312.504-.928.815-2.154.224-3.606a25.6 25.6 0 0 1-3.561 2.497M4.05 19.475c-.871-2.614.355-4.732 1.13-5.506l1.06 1.06c-.458.458-1.295 1.842-.872 3.603 1.76.423 3.145-.414 3.603-.872l1.06 1.06c-.774.775-2.892 2.001-5.506 1.13l-.356-.119zM14.25 8.5a1.25 1.25 0 1 0 2.5 0 1.25 1.25 0 0 0-2.5 0m1.25 2.75a2.75 2.75 0 1 1 0-5.5 2.75 2.75 0 0 1 0 5.5" clip-rule="evenodd"/></svg>