<svg xmlns="http://www.w3.org/2000/svg" fill="none" viewBox="0 0 24 24"><path fill="currentColor" fill-rule="evenodd" d="M11 2.25a.75.75 0 0 0-.75.75v17.998c0 .414.336.75.75.75h10a.75.75 0 0 0 .75-.75V3a.75.75 0 0 0-.75-.75zm.75 4.5v-3h8.5v16.498h-8.5v-2.999H14v-1.5h-2.25v-3H14v-1.5h-2.25V8.25H14v-1.5zm-5.452 0 .022-2.969H3.81V6.75zm-2.49 1.5h2.479l-.078 10.428-1.219 1.244-1.181-1.236zm-.74-5.969a.76.76 0 0 0-.76.76v16.246l2.67 2.791 2.726-2.783.122-16.248a.76.76 0 0 0-.76-.766z" clip-rule="evenodd"/></svg>