<svg xmlns="http://www.w3.org/2000/svg" fill="none" viewBox="0 0 24 24"><path fill="currentColor" fill-rule="evenodd" d="M3.25 1.75h17.5V4.8l2 3.5v.2c0 .985-.38 1.88-1 2.55V21.5a.75.75 0 0 1-.75.75H3a.75.75 0 0 1-.75-.75V11.05c-.62-.67-1-1.565-1-2.55v-.2l2-3.5zM19 12.25a3.8 3.8 0 0 0 1.25-.213v8.713H3.75v-8.713A3.8 3.8 0 0 0 5 12.25a3.75 3.75 0 0 0 3.063-1.585c.24.276.523.514.828.713.91.593 2.059.872 3.109.872s2.199-.279 3.108-.872c.306-.199.588-.437.83-.713A3.75 3.75 0 0 0 19 12.25M7.25 8.5h1.5c0 .69.354 1.226.96 1.622.625.407 1.477.628 2.29.628s1.665-.221 2.29-.628c.606-.396.96-.932.96-1.622h1.5a2.25 2.25 0 0 0 4.492.186L19.25 5.199V3.25H4.75V5.2L2.758 8.685A2.25 2.25 0 0 0 7.25 8.5M6 18.75h5v-1.5H6z" clip-rule="evenodd"/></svg>