<svg xmlns="http://www.w3.org/2000/svg" fill="none" viewBox="0 0 24 24"><path fill="currentColor" fill-rule="evenodd" d="M11.229 6.987c0 3.164 2.584 5.738 5.76 5.738s5.76-2.574 5.76-5.738-2.584-5.738-5.76-5.738-5.76 2.574-5.76 5.738m1.5 0c0-2.337 1.911-4.238 4.26-4.238 2.35 0 4.26 1.901 4.26 4.238s-1.91 4.238-4.26 4.238-4.26-1.901-4.26-4.238m1.472.533 2.04 2.021-.001-.002 3.528-3.518-1.059-1.062-2.472 2.466-.98-.971zM2.139 21.951c0 .441.36.8.802.8l-.002-.001 15.998-.05c.441 0 .8-.359.8-.8v-7.424h-1.5v6.726l-14.592.046.068-6.236q.191.06.388.085c1.233.234 2.33-.254 2.898-.748l.008-.007c.224-.2.423-.429.592-.676.501.516 1.042.83 1.204.918a4.56 4.56 0 0 0 4.52-.058l-.769-1.288c-.44.262-1.616.789-3.038.026-.483-.263-1.179-.851-1.292-1.361q.004-.077.004-.155h-1.5v.018h-.02q0 .086.007.172c-.059.454-.322.94-.703 1.282-.277.239-.942.541-1.647.4l-.067-.01c-.222-.024-.563-.203-.797-.42l-.017-.018a2 2 0 0 1-.117-.131l-.013-.019c-.309-.443-.553-.948-.599-1.168l1.953-3.689V6.739h4.27v-1.5h-5.77v2.554l-1.832 3.461c-.213.402-.257 1.182.742 2.618q.051.075.108.144z" clip-rule="evenodd"/></svg>