<svg xmlns="http://www.w3.org/2000/svg" fill="none" viewBox="0 0 24 24"><path fill="currentColor" fill-rule="evenodd" d="M20.75 1.75H3.25V4.8l-2 3.5v.2c0 .985.38 1.88 1 2.55V21.5c0 .414.336.75.75.75h18a.75.75 0 0 0 .75-.75V11.05c.62-.67 1-1.565 1-2.55v-.2l-2-3.5zm-.5 10.287a3.746 3.746 0 0 1-4.313-1.372 4 4 0 0 1-.829.713c-.91.593-2.058.872-3.108.872s-2.199-.279-3.109-.872a4 4 0 0 1-.828-.713 3.746 3.746 0 0 1-4.313 1.372v8.713h16.5zM8.75 8.5h-1.5a2.25 2.25 0 0 1-4.492.186L4.75 5.199V3.25h14.5V5.2l1.992 3.486A2.25 2.25 0 0 1 16.75 8.5h-1.5c0 .69-.354 1.226-.96 1.622-.625.407-1.477.628-2.29.628s-1.665-.221-2.29-.628c-.606-.396-.96-.932-.96-1.622m.748 7.938c.52.461 1.42.81 2.502.81s1.982-.349 2.502-.81l.996 1.121c-.848.753-2.127 1.19-3.498 1.19s-2.65-.437-3.498-1.19z" clip-rule="evenodd"/></svg>