<svg xmlns="http://www.w3.org/2000/svg" fill="none" viewBox="0 0 24 24"><path fill="currentColor" fill-rule="evenodd" d="M7.25 2A.75.75 0 0 1 8 1.25h8a.75.75 0 0 1 .75.75v2.25H20a.75.75 0 0 1 .75.75v5.25H22a.75.75 0 0 1 .75.75v4a.75.75 0 0 1-.75.75h-4a.75.75 0 0 1-.75-.75v-4a.75.75 0 0 1 .75-.75h1.25v-4.5h-2.5V7a.75.75 0 0 1-.75.75h-3.25v5.587a3.251 3.251 0 0 1 0 6.326V22h-1.5v-2.337a3.251 3.251 0 0 1 0-6.326V7.75H8A.75.75 0 0 1 7.25 7V5.75h-2.5v4.5H6a.75.75 0 0 1 .75.75v4a.75.75 0 0 1-.75.75H2a.75.75 0 0 1-.75-.75v-4a.75.75 0 0 1 .75-.75h1.25V5A.75.75 0 0 1 4 4.25h3.25zm1.5.75v3.5h6.5v-3.5zm-6 9v2.5h2.5v-2.5zm16 2.5v-2.5h2.5v2.5zm-8.5 2.25a1.75 1.75 0 1 1 3.5 0 1.75 1.75 0 0 1-3.5 0" clip-rule="evenodd"/></svg>