<svg xmlns="http://www.w3.org/2000/svg" fill="none" viewBox="0 0 24 24"><path fill="currentColor" fill-rule="evenodd" d="M8 2.25a.75.75 0 0 0-.75.75v6c0 .414.336.75.75.75h3.25v2.5H5.001a.75.75 0 0 0-.75.75v3.25H2a.75.75 0 0 0-.75.752l.008 4 1.5-.003-.007-3.249h4.496l-.007 3.248 1.5.004.01-4A.75.75 0 0 0 8 16.25H5.75l.001-2.5H18.25v2.5H16a.75.75 0 0 0-.75.752l.008 4 1.5-.003-.006-3.249h4.496l-.008 3.248 1.5.004.01-4a.75.75 0 0 0-.75-.752h-2.25V13a.75.75 0 0 0-.75-.75h-6.25v-2.5H16a.75.75 0 0 0 .75-.75V3a.75.75 0 0 0-.75-.75zm.75 6v-4.5h6.5v4.5z" clip-rule="evenodd"/></svg>