<svg xmlns="http://www.w3.org/2000/svg" fill="none" viewBox="0 0 24 24"><path fill="currentColor" fill-rule="evenodd" d="M6.705 3.31c-.744.12-1.43.414-2.015.84l-.913-.92-1.065 1.056.92.927a4.74 4.74 0 0 0-.838 2.037H1.5v1.5h1.294c.119.753.414 1.448.84 2.04a5.8 5.8 0 0 0-1.884 4.285c0 1.638.676 2.96 1.732 3.968l1.036-1.086c-.796-.759-1.268-1.702-1.268-2.882 0-2.234 1.691-4.062 3.842-4.268q.201-.02.408-.02c.956 0 1.838.318 2.548.856l.905-1.196A5.7 5.7 0 0 0 7.91 9.302c.542-2.048 2.395-3.552 4.59-3.552 2.618 0 4.75 2.14 4.75 4.791q0 .22-.02.437a4.8 4.8 0 0 1-1.067 2.614l1.16.95a6.3 6.3 0 0 0 1.292-2.697 3.774 3.774 0 0 1 3.135 3.733c0 1.182-.446 2.057-.78 2.392l1.06 1.06c.666-.665 1.22-1.948 1.22-3.452 0-2.658-1.953-4.865-4.503-5.23-.101-3.38-2.854-6.098-6.247-6.098-.636 0-1.25.096-1.828.273A4.7 4.7 0 0 0 8.205 3.31V2h-1.5zm-.353 6.093a5.7 5.7 0 0 0-1.488.527A3.25 3.25 0 0 1 4.235 8c0-1.8 1.447-3.25 3.22-3.25.62 0 1.198.176 1.69.482a6.3 6.3 0 0 0-2.793 4.17m7.016 5.097a1 1 0 1 0-1.732 1l.004.008a1 1 0 0 0 1.732-1zm-3 2.997a1 1 0 1 0-1.73 1l.004.008a1 1 0 1 0 1.731-1zm5.999 0a1 1 0 0 0-1.732 1l.004.008a1 1 0 0 0 1.732-1zM7.37 20.493a1 1 0 1 0-1.732 1l.005.009A1 1 0 0 0 7.374 20.5zm11.996 0a1 1 0 0 0-1.732 1l.004.009A1 1 0 1 0 19.37 20.5zm-5.998 1a1 1 0 1 0-1.732 1l.004.007a1 1 0 0 0 1.732-1z" clip-rule="evenodd"/></svg>