<svg xmlns="http://www.w3.org/2000/svg" fill="none" viewBox="0 0 24 24"><path fill="currentColor" fill-rule="evenodd" d="M4.69 4.15a4.7 4.7 0 0 1 2.015-.84V2h1.5v1.31a4.7 4.7 0 0 1 2.465 1.212 6.25 6.25 0 0 1 8.077 5.78A5.25 5.25 0 0 1 23.25 15.5c0 2.702-2.02 4.968-4.672 5.246l-.156-1.492c1.873-.196 3.328-1.806 3.328-3.754a3.75 3.75 0 0 0-3.136-3.7 6.2 6.2 0 0 1-1.293 2.678l-1.156-.956A4.72 4.72 0 0 0 17.25 10.5a4.75 4.75 0 0 0-9.338-1.235c1.135.08 2.18.49 3.039 1.135l-.901 1.2a4.23 4.23 0 0 0-2.959-.83A4.25 4.25 0 0 0 3.25 15c0 2.069 1.473 3.85 3.4 4.24l-.3 1.47c-2.637-.535-4.6-2.941-4.6-5.71 0-1.678.718-3.187 1.864-4.238a4.74 4.74 0 0 1-.82-2.012H1.5v-1.5h1.294a4.74 4.74 0 0 1 .839-2.037l-.92-.927 1.064-1.057zm.152 5.75c.47-.245.977-.427 1.511-.535A6.26 6.26 0 0 1 9.14 5.229a3.2 3.2 0 0 0-1.685-.479c-1.773 0-3.22 1.45-3.22 3.25 0 .71.225 1.366.607 1.9m7.593 4.717 1.29.766-1.406 2.367h3l-2.75 4.633-1.29-.766 1.405-2.367h-3z" clip-rule="evenodd"/></svg>