<svg xmlns="http://www.w3.org/2000/svg" fill="none" viewBox="0 0 24 24"><path fill="currentColor" fill-rule="evenodd" d="M5.844 2.75A3.1 3.1 0 0 0 2.75 5.857c0 .908.388 1.726 1.008 2.294a5.8 5.8 0 0 1 2.097-.874 6.13 6.13 0 0 1 2.171-3.623 3.08 3.08 0 0 0-2.182-.904M1.25 5.857a4.6 4.6 0 0 0 1.38 3.291 5.6 5.6 0 0 0-1.38 3.682c0 1.86.91 3.505 2.304 4.535l.892-1.206a4.13 4.13 0 0 1-1.696-3.33c0-2.153 1.675-3.942 3.84-4.145q.203-.02.41-.019c.961 0 1.845.312 2.555.836l.891-1.206a5.8 5.8 0 0 0-3.03-1.115C7.965 5.21 9.803 3.75 12 3.75c2.636 0 4.75 2.097 4.75 4.656q0 .214-.02.424a4.6 4.6 0 0 1-1.061 2.534l1.148.965a6.1 6.1 0 0 0 1.295-2.632c1.789.287 3.138 1.81 3.138 3.624a3.65 3.65 0 0 1-1.662 3.053l.824 1.253a5.15 5.15 0 0 0 2.338-4.306c0-2.617-1.966-4.764-4.503-5.121C18.136 4.884 15.37 2.25 12 2.25c-.958 0-1.868.213-2.68.594A4.58 4.58 0 0 0 5.843 1.25 4.6 4.6 0 0 0 1.25 5.857m7.543 12.132c.223-.176.43-.239.609-.239.178 0 .386.063.609.239l.253.2c.453.357.98.561 1.538.561.557 0 1.085-.204 1.538-.561l.253-.2c.223-.176.43-.239.609-.239.178 0 .386.063.608.239l.254.2q.305.241.654.385l.567-1.389a1.2 1.2 0 0 1-.292-.174l-.253-.2c-.453-.357-.98-.561-1.538-.561-.557 0-1.085.204-1.538.561l-.253.2c-.223.176-.431.239-.61.239-.177 0-.385-.063-.608-.239l-.253-.2c-.453-.357-.98-.561-1.538-.561-.557 0-1.085.204-1.538.561l-.327.258.93 1.178zm-.895 4.013c.453-.336.935-.336 1.387 0l.27.2.894-1.204-.27-.2c-.983-.73-2.192-.73-3.175 0l-.27.2c-.452.336-.934.336-1.387 0l-.27-.2c-.983-.73-2.191-.73-3.175 0l-.347.258.894 1.204.347-.258c.453-.336.935-.336 1.388 0l.269.2c.983.73 2.192.73 3.176 0zM17 20.798c-.984-.73-2.192-.73-3.176 0l-.27.2.895 1.204.27-.2c.452-.336.934-.336 1.387 0l.269.2c.984.73 2.192.73 3.176 0l.27-.2c.452-.336.934-.336 1.386 0l.348.258.894-1.204-.347-.258c-.984-.73-2.192-.73-3.176 0l-.27.2c-.452.336-.934.336-1.387 0z" clip-rule="evenodd"/></svg>