<svg xmlns="http://www.w3.org/2000/svg" fill="none" viewBox="0 0 24 24"><path fill="currentColor" fill-rule="evenodd" d="M2.985 11.35q-.156.048-.317.114c-.587.225-1.024.637-1.245 1.216-.21.548-.197 1.17-.065 1.796l.446 2.439.037.083c.3.667.747 1.18 1.427 1.48.522.231 1.131.315 1.82.312.655 1.17 1.503 2.098 2.57 2.763 1.192.743 2.611 1.129 4.247 1.2l.03.001h.029c2.967-.103 5.524-1.423 6.973-3.964.69.004 1.3-.08 1.823-.312.68-.3 1.127-.813 1.427-1.48l.038-.083.446-2.439c.131-.626.144-1.248-.065-1.796-.223-.583-.664-.996-1.258-1.22a4 4 0 0 0-.317-.106l.764-2.224-.046-.206c-.972-4.4-4.994-7.674-9.74-7.674S3.24 4.524 2.268 8.924l-.046.206zm1.61.069q.033.015.067.034c.551.29.864.799 1.044 1.234.184.443.269.904.31 1.237a6 6 0 0 1 .042.544v.054l-.75.001h-.75v-.019l-.003-.084a4 4 0 0 0-.027-.312 3.4 3.4 0 0 0-.208-.847c-.115-.278-.245-.422-.358-.482-.083-.043-.283-.11-.73.075l-.01.004-.012.005c-.228.086-.33.204-.386.352-.069.18-.098.484.003.96l.002.01.416 2.275c.17.346.37.53.63.647.32.14.81.215 1.617.17l.494-.027.22.443c.576 1.164 1.321 2.011 2.245 2.587.921.574 2.066.907 3.49.973 2.655-.1 4.77-1.314 5.882-3.56l.219-.443.494.027c.807.045 1.298-.03 1.617-.17.261-.116.46-.3.63-.647l.416-2.274.002-.01c.101-.477.072-.781.003-.96-.056-.149-.158-.267-.386-.353-.493-.187-.72-.117-.814-.068-.116.06-.24.199-.344.465a3 3 0 0 0-.177.826 4 4 0 0 0-.015.386v.018h-.014c-.04.003-.187.01-.735.033l-.749.032v-.018l-.001-.037v-.126c0-.104.005-.249.02-.418a4.6 4.6 0 0 1 .274-1.243c.173-.442.484-.954 1.046-1.247q.058-.03.116-.056l.812-2.363c-.894-3.602-4.248-6.297-8.229-6.297S4.675 5.445 3.78 9.047zm5.21-3.94a10.8 10.8 0 0 1 4.412 0 2 2 0 0 0-.64-1.166c-.409-.363-.975-.561-1.566-.561s-1.158.198-1.567.56a2 2 0 0 0-.64 1.167m-1.547.446c.02-1.168.475-2.099 1.19-2.734.717-.637 1.652-.939 2.563-.939.91 0 1.845.302 2.562.94.715.635 1.17 1.565 1.19 2.733.975.363 1.883.863 2.702 1.477l-.9 1.2a9.23 9.23 0 0 0-5.555-1.85 9.23 9.23 0 0 0-5.556 1.85l-.9-1.2a10.8 10.8 0 0 1 2.704-1.477M8.006 13a1 1 0 0 1 1-1h.009a1 1 0 0 1 0 2h-.01a1 1 0 0 1-1-1m7.006-1a1 1 0 1 0 0 2h.009a1 1 0 1 0 0-2zm-3 4.01.49.424c.301.261.702.349 1.126.308.447-.043.788-.215.895-.308l.982 1.135c-.394.34-1.053.6-1.733.666-.544.053-1.178-.013-1.76-.328-.584.315-1.218.38-1.762.328-.68-.065-1.339-.326-1.732-.666l.981-1.135c.107.093.449.265.895.308.424.04.825-.047 1.126-.308z" clip-rule="evenodd"/></svg>