<svg xmlns="http://www.w3.org/2000/svg" fill="none" viewBox="0 0 24 24"><path fill="currentColor" fill-rule="evenodd" d="M10.313 2.706c-.611-1.435-2.39-1.92-3.595-.955-.278.223-.487.52-.625.809a2.3 2.3 0 0 0-.238.959v5.145c-1.563 1.22-2.725 2.363-3.265 3.553-.286.63-.402 1.282-.308 1.957.092.663.378 1.296.815 1.913.779 1.208 1.485 2.042 2.323 3.032.3.353.615.727.957 1.144v1.736h1.5v-2.27l-.168-.206c-.453-.558-.845-1.021-1.2-1.442-.81-.956-1.433-1.691-2.16-2.82l-.01-.015-.01-.015c-.343-.481-.51-.895-.561-1.262-.05-.36.004-.727.188-1.132.296-.652.911-1.376 1.899-2.233v3.522h1.5V3.52c0-.051.02-.167.089-.308a.9.9 0 0 1 .211-.289c.387-.31 1.007-.196 1.26.331.026.119.046.382.049.736 0 .175-.002.347-.005.495l-.003.117-.004.24v6.168h1.5V8.763h.906a.75.75 0 0 1 .51.28q.051.075.101.172.058.136.059.291v2.513h1.5v-1.79l.843.03.146.027q.086.015.163.05c.066.04.146.099.234.187q.07.07.125.14c.058.107.091.23.091.359v1.97h1.5V11.73l1.035.043c.19.02.322.117.427.308.12.22.178.53.154.822l-.002.024-.047 3.154v.014c.03 1.3-.611 1.983-1.313 2.73-.204.218-.413.44-.612.685l-.169.206v2.267h1.5v-1.717l.218-.228c.731-.758 1.916-1.985 1.876-3.963l.047-3.079c.036-.518-.054-1.121-.337-1.637-.3-.548-.837-1.013-1.625-1.082l-.017-.002-1.232-.05a3 3 0 0 0-.248-.4 2.25 2.25 0 0 0-.924-.828 1.8 1.8 0 0 0-.905-.236l-1.062-.04-.064-.14a2.3 2.3 0 0 0-.257-.431 2.4 2.4 0 0 0-.212-.256 2 2 0 0 0-1.471-.632h-.938V4.841l.003-.178.004-.146c.003-.154.006-.343.005-.539-.003-.352-.018-.856-.125-1.2l-.011-.037zm11.75 1.797-3.03-3.033-1.062 1.06 1.221 1.223h-4.19v1.5h4.19l-1.22 1.222 1.06 1.06z" clip-rule="evenodd"/></svg>