<svg xmlns="http://www.w3.org/2000/svg" fill="none" viewBox="0 0 24 24"><path fill="currentColor" fill-rule="evenodd" d="M7.68 22.748h8.478c1.991 0 3.61-1.59 3.61-3.545v-5.565c.064-.96-.3-1.942-1.004-2.7-.7-.757-1.65-1.19-2.606-1.19h-3.9V4.664c0-1.361-.995-2.427-2.39-2.427s-2.53 1.065-2.53 2.375v8.294l-.953-.813a2.5 2.5 0 0 0-1.852-.589 2.52 2.52 0 0 0-1.742.926 2.5 2.5 0 0 0-.007 3.098zm8.478-1.5H8.476v.001L4.01 14.663l-.04-.054a.99.99 0 0 1-.01-1.233 1.025 1.025 0 0 1 1.452-.14l3.427 2.923V4.615c0-.482.462-.875 1.03-.875.516 0 .89.39.89.927v6.582h5.4c.54 0 1.087.258 1.506.71.427.461.648 1.043.606 1.597l-.002.028v5.619c0 1.128-.947 2.045-2.11 2.045M21.53 3.97 18.504.94l-3.026 3.03 1.06 1.06 1.216-1.216v4.183h1.5V3.814l1.215 1.216z" clip-rule="evenodd"/></svg>