<svg xmlns="http://www.w3.org/2000/svg" fill="none" viewBox="0 0 24 24"><path fill="currentColor" fill-rule="evenodd" d="m22.06 4.5-3.027-3.028-1.06 1.06 1.216 1.218h-4.181v1.5h4.181l-1.217 1.218 1.061 1.06zM7.677 22.748h8.478v-.001c1.99 0 3.61-1.59 3.61-3.545v-5.565c.064-.96-.301-1.943-1.004-2.701-.702-.757-1.652-1.191-2.607-1.191h-3.9V4.663c0-1.361-.994-2.427-2.39-2.427-1.394 0-2.53 1.065-2.53 2.375v8.294l-.952-.813-.004-.003a2.5 2.5 0 0 0-1.873-.583 2.5 2.5 0 0 0-1.717.924c-.72.903-.72 2.2-.007 3.099zm8.478-1.5H8.471l-4.467-6.585-.04-.054a.98.98 0 0 1-.007-1.24 1.025 1.025 0 0 1 1.452-.133l3.425 2.924V4.614c0-.483.462-.875 1.03-.875.516 0 .89.39.89.927v6.582h5.4c.538 0 1.087.259 1.506.71.428.46.648 1.044.606 1.598l-.001.028v5.619c0 1.128-.947 2.045-2.11 2.045" clip-rule="evenodd"/></svg>