<svg xmlns="http://www.w3.org/2000/svg" fill="none" viewBox="0 0 24 24"><path fill="currentColor" fill-rule="evenodd" d="M9.744 1.25A2.516 2.516 0 0 0 7.23 3.77v8.356l-.613-.658c-.362-.389-.902-.844-1.625-.944a2.3 2.3 0 0 0-.674.002c-.906.14-1.565.832-1.874 1.54q-.04.09-.07.178c-.306.848.002 1.697.428 2.268l4.324 5.803V22h1.5v-2.182l-4.622-6.202c-.245-.33-.296-.652-.22-.862q.017-.046.035-.089c.165-.379.466-.617.728-.657a.8.8 0 0 1 .24.002c.21.029.452.178.733.48l3.214 3.45v-4.244H8.73V3.768c0-.565.456-1.019 1.014-1.019.557 0 1.013.454 1.013 1.02v6.492h.776v.008q.17-.006.333-.008h.36c1.065.016 1.97.187 3.182.686 1.227.507 2.224 1.058 2.626 1.951.404.898.244 2.064-.478 3.897l-1.448 3.078V22h1.5v-1.79l1.326-2.819.008-.022c.738-1.868 1.14-3.572.46-5.085-.673-1.497-2.233-2.231-3.422-2.722-1.404-.58-2.494-.78-3.723-.8V3.77a2.516 2.516 0 0 0-2.513-2.52M20.47 4.97l-1.22 1.22V2h-1.5v4.19l-1.22-1.22-1.06 1.06 3.03 3.03 3.03-3.03z" clip-rule="evenodd"/></svg>