<svg xmlns="http://www.w3.org/2000/svg" fill="none" viewBox="0 0 24 24"><path fill="currentColor" fill-rule="evenodd" d="M7.754 19.746V22h-1.5v-1.755l-4.259-5.68-.006-.009-.055-.075c-.357-.461-.762-1.159-.668-1.973.126-1.102.95-2.061 2.09-2.227.64-.094 1.487.08 2.09.634l.013.012.795.806V3.566c0-1.252.984-2.315 2.257-2.315s2.256 1.063 2.256 2.315v4.18l1.012.042.04.006c.57.086 1.052.34 1.393.742q.09.104.162.218h1.068c1.002-.03 1.87.623 2.182 1.515l.991.023c1.267.03 2.11 1.088 2.111 2.263l.023 2.428-.001.021c-.005.102-.009.24-.014.396-.007.268-.016.59-.034.875-.03.483-.088 1.035-.234 1.521a2.6 2.6 0 0 1-.32.664l-.217.336-.463.606-.713.868V22h-1.5v-2.266l1.037-1.263.411-.537.183-.285c.08-.124.124-.212.145-.283.096-.317.146-.73.174-1.182.017-.283.024-.524.03-.757.004-.157.008-.31.015-.47l-.022-2.39v-.007c0-.487-.312-.76-.645-.767l-.834-.02v1.245h-1.5v-1.999a.76.76 0 0 0-.765-.765h-.747l.018 2.251-1.5.011-.02-2.541c-.014-.219-.081-.37-.164-.468-.076-.09-.205-.181-.439-.223l-.863-.037v2.74h-1.5v-8.42c0-.477-.365-.815-.756-.815s-.757.338-.757.815v8.296l.065 3.592-3.4-3.445a1.15 1.15 0 0 0-.847-.244c-.398.058-.76.416-.816.914-.026.223.083.52.364.885l.087.117zM19.03 6.47l-1.22-1.22H22v-1.5h-4.19l1.22-1.22-1.061-1.06-3.03 3.03 3.03 3.03z" clip-rule="evenodd"/></svg>