<svg xmlns="http://www.w3.org/2000/svg" fill="none" viewBox="0 0 24 24"><path fill="currentColor" fill-rule="evenodd" d="m18.03 6.47-1.22-1.22H21v-1.5h-4.19l1.22-1.22-1.06-1.06-3.03 3.03 3.03 3.03zM6.666 4.75a1 1 0 1 1 2 0v6H15A2.25 2.25 0 0 1 17.25 13v6A2.25 2.25 0 0 1 15 21.25H6.907l-2.291-3.517-.002-.002c-.416-.634-.622-1.06-.73-1.38a2.6 2.6 0 0 1-.133-.838 2.3 2.3 0 0 1 .086-.672c.058-.204.169-.42.4-.733.218-.293.513-.636.929-1.112v2.534h1.5zm-1.5 0v5.968l-1 1.144-.021.023c-.46.525-.834.953-1.113 1.33-.291.393-.511.773-.637 1.213a3.8 3.8 0 0 0-.144 1.12c.009.378.043.781.211 1.281.164.486.443 1.031.898 1.724v.001l2.733 4.196H15A3.75 3.75 0 0 0 18.75 19v-6A3.75 3.75 0 0 0 15 9.25h-4.834v-4.5a2.5 2.5 0 1 0-5 0" clip-rule="evenodd"/></svg>