<svg xmlns="http://www.w3.org/2000/svg" fill="none" viewBox="0 0 24 24"><path fill="currentColor" fill-rule="evenodd" d="m20.273 6.857.668-4.765-4.745.687-9.371 10.726-1.041-1.042-1.061 1.06 1.834 1.836-2.078 2.06a2.255 2.255 0 1 0 1.078 1.044l2.06-2.042 1.838 1.84 1.062-1.06-1.047-1.048zM8.407 15.089l-.52-.52L16.96 4.184l2.218-.321-.312 2.226zm-5.622 4.38a.755.755 0 1 1 1.51-.001.755.755 0 0 1-1.51.001m1.01-12.621-.65-4.703 4.768.646 3.249 3.748-1.134.983-2.878-3.32-2.248-.305.302 2.19 3.338 2.916-.987 1.13zm13.98 8.337-.202.189 2.03 2.034a2.257 2.257 0 0 1 3.178 2.06 2.257 2.257 0 0 1-2.259 2.256 2.257 2.257 0 0 1-2.01-3.286l-2.005-2.009-.21.221-1.699 1.612-1.032-1.088 1.084-1.03-1.401-1.212.981-1.134 1.487 1.286.25-.262.248-.232-1.107-1.293 1.14-.976 1.041 1.218 1.055-1.072 1.07 1.052zm3.506 4.283a.757.757 0 0 0-.759-.755c-.42 0-.759.34-.759.755 0 .416.338.756.76.756.42 0 .758-.34.758-.756" clip-rule="evenodd"/></svg>