<svg xmlns="http://www.w3.org/2000/svg" fill="none" viewBox="0 0 24 24"><path fill="currentColor" fill-rule="evenodd" d="M7.527 6.002a3.246 3.246 0 0 1 3.243-3.25 3.246 3.246 0 0 1 3.242 3.25h1.5a4.746 4.746 0 0 0-4.742-4.75 4.746 4.746 0 0 0-4.743 4.75zm2.261.078c0-.387.393-.824 1.048-.836.546.05.919.472.945.965l-.026 5.022h5.37c1.17.032 2.184 1.13 2.123 2.311v5.628c-.119 1.166-.93 1.969-2.123 2.078H9.438l-4.441-6.634-.022-.027a1 1 0 0 1-.005-1.255 1.01 1.01 0 0 1 1.436-.139l3.35 2.981.032-10.092zm1.075-2.336c-1.225 0-2.574.864-2.575 2.335v.001l-.021 6.761-.875-.779-.006-.005a2.51 2.51 0 0 0-3.586.337 2.5 2.5 0 0 0-.012 3.11l4.597 6.867a.85.85 0 0 0 .706.377h8.097l.03-.002c1.935-.159 3.353-1.542 3.526-3.474l.003-.033v-5.64c.091-2.012-1.576-3.822-3.597-3.867h-3.888l.02-3.552-.001-.017a2.52 2.52 0 0 0-2.366-2.417l-.026-.002z" clip-rule="evenodd"/></svg>