<svg xmlns="http://www.w3.org/2000/svg" fill="none" viewBox="0 0 24 24"><path fill="currentColor" fill-rule="evenodd" d="M13.97 6.19c-.84 0-1.583-.422-2.03-1.064q.04.215.04.438c0 .662-.261 1.283-.734 1.749a2.45 2.45 0 0 1-2.174.681 2.47 2.47 0 0 1-.003 4.053q.213-.039.437-.039c.662 0 1.28.259 1.745.73a2.44 2.44 0 0 1 .69 2.183 2.47 2.47 0 0 1 4.056-.002 2.47 2.47 0 0 1 .683-2.18 2.44 2.44 0 0 1 1.739-.73h.008q.229 0 .448.04a2.47 2.47 0 0 1 0-4.06q-.223.04-.45.04a2.462 2.462 0 0 1-2.43-2.897A2.47 2.47 0 0 1 13.97 6.19M11.5 3.718q0 .228.04.443a2.5 2.5 0 0 0-.29-.343 2.47 2.47 0 0 0-3.491 0 2.472 2.472 0 0 0 .329 3.767A2.473 2.473 0 0 0 5.19 10.02a2.473 2.473 0 0 0 2.91 2.43 2.5 2.5 0 0 0-.34.289 2.46 2.46 0 0 0-.719 1.624l-5.35 2.94-.056.033a.85.85 0 0 0-.382.63.84.84 0 0 0 .243.68l1.9 1.93.002.003L5.31 22.5a.847.847 0 0 0 1.315-.133l.017-.026 2.993-5.393a2.46 2.46 0 0 0 1.615-.717q.162-.16.29-.344a2.473 2.473 0 0 0 2.43 2.913 2.473 2.473 0 0 0 2.432-2.9q.123.175.278.331a2.494 2.494 0 0 0 3.501 0 2.472 2.472 0 0 0-.347-3.781q.218.04.447.04a2.473 2.473 0 0 0 2.47-2.47 2.473 2.473 0 0 0-2.907-2.431q.175-.12.331-.275l.005-.004a2.473 2.473 0 0 0-.005-3.495 2.49 2.49 0 0 0-3.497.004 2.5 2.5 0 0 0-.275.328q.037-.208.037-.427a2.473 2.473 0 0 0-2.47-2.47 2.473 2.473 0 0 0-2.47 2.47M8.144 16.543a2.5 2.5 0 0 1-.694-.694l-4.284 2.354.773.785.975-.963 1.054 1.068-.974.961.771.775zM13.97 2.749a.97.97 0 0 0 0 1.94.97.97 0 0 0 0-1.94m-5.15 3.5a.97.97 0 0 0 1.369 0 .95.95 0 0 0 .004-1.366.97.97 0 1 0-1.373 1.366m9.608-1.652a.968.968 0 0 0-.687 1.652.984.984 0 0 0 1.38-.002.97.97 0 0 0-.002-1.367 1 1 0 0 0-.691-.283M9.506 13.51a.95.95 0 0 0-.681.286.97.97 0 0 0-.004 1.373.97.97 0 0 0 1.369 0l.004-.004a.953.953 0 0 0 0-1.362l-.008-.008a.95.95 0 0 0-.681-.286zm8.917 0h.003c.26 0 .506.103.693.29a.967.967 0 0 1 .003 1.365.983.983 0 0 1-1.383.004.97.97 0 0 1 .005-1.373.95.95 0 0 1 .678-.286m.888-3.49a.971.971 0 0 1 1.94 0 .97.97 0 0 1-1.94 0M7.659 9.05a.971.971 0 0 0 0 1.94.97.97 0 0 0 0-1.94M13 16.33a.97.97 0 0 1 1.94 0 .97.97 0 0 1-1.94 0" clip-rule="evenodd"/></svg>