<svg xmlns="http://www.w3.org/2000/svg" fill="none" viewBox="0 0 24 24"><path fill="currentColor" fill-rule="evenodd" d="M18.404 3.194a.886.886 0 1 0-1.535.887l2.727 4.725a.886.886 0 1 0 1.535-.887zm-1.96-1.624a2.386 2.386 0 0 1 3.26.874l2.726 4.725a2.387 2.387 0 0 1-3.393 3.178l-4.256 2.515 4.874 8.774-1.311.728-4.345-7.82-4.344 7.82-1.311-.728 4.11-7.399-4.74 2.8-1.403-2.572-2.564 1.454.39.72-1.32.713-.739-1.367.66-.357-.66.357-.738-1.368 1.32-.713.374.694 2.56-1.45-1.598-2.928 11.255-6.65a2.39 2.39 0 0 1 1.192-2m-.748 3.479 2.38 4.124-9.788 5.784-2.281-4.183z" clip-rule="evenodd"/></svg>