<svg xmlns="http://www.w3.org/2000/svg" fill="none" viewBox="0 0 24 24"><path fill="currentColor" fill-rule="evenodd" d="m22.046 7.758-4.258-6.719-7.084 3.794a.76.76 0 0 0-.308 1.035l.163.298-4.413 2.68a.76.76 0 0 0-.268 1.022l.107.19-3.938 2.726 1.627 3.234 4.578-2.228.082.13a.76.76 0 0 0 1.002.268l1.134-.605-3.658 8.138 1.369.615 3.816-8.49 3.816 8.49 1.368-.615-4.248-9.451.879-.468.058.103a.76.76 0 0 0 1.064.275zm-14.51 2 3.763-2.286 1.768 3.027-3.828 2.04-.072-.114L7.62 9.906zm-.788 1.596.71 1.154-3.11 1.514-.375-.747zm8.014-.926-2.548-4.363-.143-.262 5.196-2.783 2.702 4.263-5.169 3.213z" clip-rule="evenodd"/></svg>