<svg xmlns="http://www.w3.org/2000/svg" fill="none" viewBox="0 0 24 24"><path fill="currentColor" fill-rule="evenodd" d="M7.25 7.667C7.25 5.614 9.256 3.75 12 3.75s4.75 1.864 4.75 3.917h1.5c0-3.103-2.918-5.417-6.25-5.417S5.75 4.564 5.75 7.667V9.5h1.5zm7.552 5.083c.859.257 1.44.654 1.817 1.176.396.547.631 1.315.631 2.407 0 1.433-.56 2.363-1.434 2.967-.913.63-2.242.95-3.816.95-3.086 0-5.25-1.918-5.25-3.917h-1.5c0 3.156 3.208 5.417 6.75 5.417 1.74 0 3.41-.347 4.669-1.216 1.298-.897 2.081-2.3 2.081-4.2 0-1.301-.28-2.41-.916-3.288a4 4 0 0 0-.235-.296H20v-1.5H4v1.5z" clip-rule="evenodd"/></svg>