<svg xmlns="http://www.w3.org/2000/svg" fill="none" viewBox="0 0 24 24"><path fill="currentColor" fill-rule="evenodd" d="M12.773 2.75a.795.795 0 0 0-.796.795v8.876h-1.5V5.58a.813.813 0 0 0-.795-.829.813.813 0 0 0-.796.829v10.33L5.93 12.88a.96.96 0 0 0-1.458.084c-.288.37-.297.898-.02 1.277l.023.03 4.091 6.98H17.5A2.25 2.25 0 0 0 19.75 19V7.545a.795.795 0 1 0-1.59 0v4.956h-1.5V5.545a.795.795 0 1 0-1.592 0v6.876h-1.5V3.545a.796.796 0 0 0-.795-.795m2.29.643a2.296 2.296 0 0 0-4.58.002 2.3 2.3 0 0 0-.801-.145c-1.283 0-2.296 1.058-2.296 2.329v6.644l-.382-.392a2.46 2.46 0 0 0-3.714.209 2.57 2.57 0 0 0-.072 3.052l4.489 7.658H17.5A3.75 3.75 0 0 0 21.25 19V7.545a2.295 2.295 0 0 0-3.096-2.152 2.296 2.296 0 0 0-3.09-2" clip-rule="evenodd"/></svg>