<svg xmlns="http://www.w3.org/2000/svg" fill="none" viewBox="0 0 24 24"><path fill="currentColor" fill-rule="evenodd" d="M10.034 2.943a2.3 2.3 0 0 1 4.51.46 2.3 2.3 0 0 1 3.1 2.155v4.715c.934-.065 1.779.055 2.372.595.665.607.781 1.523.715 2.453v4.493l.003.397c.006.542.012 1.083-.085 1.574-.136.685-.46 1.281-1.094 1.916l-.022.022-.024.02c-.436.369-.843.636-1.306.8-.46.164-.921.206-1.427.206H7.711l-.219-.364c-.612-1.019-1.303-2.04-1.948-2.994q-.268-.395-.52-.771a34 34 0 0 1-1.027-1.605c-.276-.47-.516-.933-.63-1.334l-.007-.023-.006-.024c-.116-.536-.14-1.04-.034-1.545.105-.503.33-.955.64-1.4.502-.719 1.305-1.521 2.359-2.574l.538-.538V5.068a2.3 2.3 0 0 1 3.177-2.125m1.419 2.823v7.788h-1.5V5.068a.799.799 0 1 0-1.596 0v9.44h-1.5V11.7c-.784.788-1.318 1.348-1.666 1.847-.232.333-.35.6-.404.85-.051.245-.05.522.028.892.063.208.217.527.475.966.26.442.596.957.98 1.53l.503.747a79 79 0 0 1 1.783 2.717h8.22c.425 0 .693-.037.925-.12.226-.08.47-.222.815-.51.443-.45.594-.783.662-1.125.064-.325.06-.664.056-1.177l-.003-.503v-4.548l.002-.028c.063-.835-.093-1.138-.228-1.261-.142-.13-.492-.275-1.36-.2v1.44h-1.5v-7.66a.799.799 0 1 0-1.596 0v6.968h-1.5V3.549a.799.799 0 1 0-1.596 0z" clip-rule="evenodd"/></svg>