<svg xmlns="http://www.w3.org/2000/svg" fill="none" viewBox="0 0 24 24"><path fill="currentColor" fill-rule="evenodd" d="M7.958 21.084c.38.43.92.67 1.49.67 1 0 1.85-.75 1.98-1.75l1.17-9.33 3.19 1.41c.95.41 2.05.02 2.51-.9s.13-2.05-.75-2.57l-10-5.99c-.62-.37-1.35-.47-2.05-.29s-1.28.62-1.64 1.25c-.38.66-.46 1.45-.22 2.16.23.71.76 1.3 1.45 1.6l3.65 1.62-1.27 10.56c-.07.57.11 1.13.49 1.56m-2.09-17.29c.1-.03.2-.04.3-.04l.02.01c.21 0 .42.06.6.17l10 5.99c.2.11.28.39.17.6-.11.2-.36.29-.57.2l-5.03-2.23-1.42 11.33c-.03.24-.24.43-.49.43a.495.495 0 0 1-.49-.55l1.4-11.66-4.67-2.06c-.3-.14-.53-.38-.63-.7-.11-.32-.07-.65.09-.94.16-.28.41-.47.72-.55m10.13 1.71c0 1.24 1.01 2.25 2.25 2.25s2.25-1.01 2.25-2.25-1.01-2.25-2.25-2.25-2.25 1.01-2.25 2.25m1.5 0c0-.41.34-.75.75-.75s.75.34.75.75-.34.75-.75.75-.75-.34-.75-.75" clip-rule="evenodd"/></svg>