<svg xmlns="http://www.w3.org/2000/svg" fill="none" viewBox="0 0 24 24"><path fill="currentColor" fill-rule="evenodd" d="M12 1.25h-.75v1.5H12A9.25 9.25 0 0 1 21.25 12v.75h1.5V12c0-5.937-4.813-10.75-10.75-10.75M9.34 3.436l-.702.263a9 9 0 0 0-.582.241l-.683.311-.622-1.365.683-.31q.333-.153.68-.282l.702-.263zM6.165 5.062l-.547.513a9 9 0 0 0-.414.414l-.514.547-1.093-1.027.513-.547q.234-.249.483-.482l.547-.513zm-2.308 2.72-.308.683a9 9 0 0 0-.22.533l-.265.702-1.404-.53.264-.702q.12-.316.257-.621l.309-.684zm-1.078 3.367-.023.75a9 9 0 0 0 0 .58l.023.749-1.5.047-.023-.75a11 11 0 0 1 0-.673l.024-.75zm19.187 4.032-.263.702q-.138.371-.304.73l-.314.68-1.362-.63.315-.68q.141-.306.26-.625l.263-.702zm-18.897-.487.266.701q.104.274.224.54l.31.682-1.365.62-.31-.682a11 11 0 0 1-.262-.628l-.265-.702zm16.988 4.13-.51.549q-.258.278-.536.536l-.548.512-1.023-1.097.548-.511q.238-.222.46-.461l.51-.55zm-15.353-.967.515.545q.19.201.39.39l.548.514-1.027 1.093-.547-.513a11 11 0 0 1-.455-.454l-.515-.546zm12.131 3.65-.683.308q-.304.137-.618.255l-.701.265-.53-1.404.702-.264q.27-.101.53-.22l.683-.308zm-9.423-1.362.684.308q.25.113.509.21l.701.266-.53 1.402-.702-.265q-.301-.114-.594-.245l-.684-.308zm3.327 1.07.75.026q.32.01.642 0l.75-.026.051 1.499-.75.026q-.372.012-.745 0l-.75-.026zm.512-11.337a2.25 2.25 0 1 0 2.872 2.872H16v-1.5h-1.878a2.26 2.26 0 0 0-1.372-1.372V6h-1.5zM12 11.25a.75.75 0 1 0 0 1.5.75.75 0 0 0 0-1.5" clip-rule="evenodd"/></svg>