<svg xmlns="http://www.w3.org/2000/svg" fill="none" viewBox="0 0 24 24"><path fill="currentColor" fill-rule="evenodd" d="M22.25 1.75H1.75v20.5h20.5zm-19 19V3.25h17.5v17.5zM9.04 12A6.8 6.8 0 0 0 12 9.03 6.77 6.77 0 0 0 14.97 12 6.77 6.77 0 0 0 12 14.97 6.8 6.8 0 0 0 9.04 12m2.26-5.26-.39 1.06a5.26 5.26 0 0 1-3.11 3.1l-1.06.4v1.4l1.06.39c1.44.54 2.57 1.67 3.11 3.11l.39 1.06h1.41l.39-1.06a5.26 5.26 0 0 1 3.1-3.11l1.06-.39v-1.4l-1.06-.4a5.22 5.22 0 0 1-3.1-3.1l-.39-1.06z" clip-rule="evenodd"/></svg>