<svg xmlns="http://www.w3.org/2000/svg" fill="none" viewBox="0 0 24 24"><path fill="currentColor" fill-rule="evenodd" d="M9.646 12.708 4.06 18.296l1.643 1.642 5.587-5.587zm-1.06-1.06-6.648 6.648 3.764 3.763 6.648-6.648 1.032 1.033a4.25 4.25 0 0 0 5.653 5.019l1.074-.416-2.017-2.016v-.94h.94l2.017 2.017.415-1.074a4.25 4.25 0 0 0-5.022-5.652L14.059 11l3.94-3.94 1.149 1.149 2.295-3.826-1.828-1.828-3.826 2.295L16.94 6 13 9.94l-2.382-2.382a4.25 4.25 0 0 0-5.652-5.022L3.89 2.95l2.016 2.017v.94h-.939L2.951 3.89l-.415 1.074a4.25 4.25 0 0 0 5.019 5.652zM6.83 3.768l.577.578v3.06h-3.06L3.77 6.83a2.75 2.75 0 0 0 3.723 2.235l.455-.176 7.162 7.163-.176.455a2.75 2.75 0 0 0 2.236 3.723l-.578-.577v-3.06h3.061l.577.577a2.75 2.75 0 0 0-3.725-2.234l-.456.176L8.888 7.95l.176-.456A2.75 2.75 0 0 0 6.83 3.769m12.02 2.02-.642-.641 1.174-.704.172.171z" clip-rule="evenodd"/></svg>