<svg xmlns="http://www.w3.org/2000/svg" fill="none" viewBox="0 0 24 24"><path fill="currentColor" fill-rule="evenodd" d="M6.658 4.971c-.498.446-.778.894-.86 1.328-.117.612-.01 1.057.21 1.401.231.361.634.684 1.226.944 1.198.525 2.964.7 4.803.56 1.831-.141 3.616-.586 4.825-1.198.61-.308 1.01-.628 1.218-.915.185-.255.205-.454.125-.666-.126-.33-.473-.635-1.186-.836-.704-.197-1.628-.25-2.633-.177-.997.072-2.028.263-2.924.518-.91.259-1.621.567-2.015.843l-.861-1.228c.595-.417 1.492-.78 2.466-1.058a16.4 16.4 0 0 1 3.226-.57c1.096-.08 2.212-.034 3.146.228.925.26 1.814.778 2.183 1.747.29.762.117 1.487-.312 2.08-.407.56-1.044 1.012-1.756 1.372-1.433.726-3.424 1.204-5.387 1.355-1.955.15-4.002-.016-5.52-.682-.767-.336-1.448-.821-1.887-1.508-.45-.704-.6-1.547-.421-2.49.165-.866.688-1.588 1.334-2.166.647-.58 1.463-1.056 2.312-1.434 1.689-.75 3.647-1.169 5.002-1.169v1.5c-1.116 0-2.867.361-4.392 1.04-.759.337-1.426.738-1.922 1.181m5.29 7.237c2.294-.163 4.487-.803 5.611-1.622l.884 1.212c-1.453 1.059-3.972 1.734-6.389 1.906-1.225.088-2.467.05-3.585-.152-1.109-.198-2.155-.566-2.934-1.184l.932-1.175c.51.404 1.286.707 2.266.883.97.174 2.084.213 3.215.132m1.933 8.753c-.936.18-1.927.282-2.889.292l.016 1.5a18 18 0 0 0 3.155-.319zm-3.082-5.903c1.349.003 2.766-.18 4.012-.502l.376 1.453c-1.37.354-2.915.553-4.392.549-1.468-.004-2.924-.208-4.088-.7l.584-1.381c.913.386 2.15.578 3.508.58m2.102 2.86c-1.65.214-3.347.183-4.685-.145l-.357 1.457c1.57.385 3.461.405 5.235.175z" clip-rule="evenodd"/></svg>