<svg xmlns="http://www.w3.org/2000/svg" fill="none" viewBox="0 0 24 24"><path fill="currentColor" fill-rule="evenodd" d="M2 18.75h4v-1.5H2.75V2.75h18.5v7.251h1.5V2a.75.75 0 0 0-.75-.75H2a.75.75 0 0 0-.75.75v16c0 .414.336.75.75.75m17.5 3.246h1.497v-1.035l.964-1.232a3.1 3.1 0 0 0 .514-.923l.01-.027c.197-.645.226-1.534.247-2.183l.002-.054q.006-.184.014-.329v-.023l-.02-2.064c0-1.188-.709-2.087-1.764-2.237l-.053-.007h-.95c-.308-.786-1.055-1.349-1.912-1.358l-1.002-.05q-.347-.493-1.02-.719l-.023-.007a1.8 1.8 0 0 0-.383-.072l-.832-.075V7.332c0-1.167-.889-2.081-2.03-2.081s-2.07.934-2.07 2.081v5.788l-.656-.666-.042-.04a2.23 2.23 0 0 0-1.795-.527c-1.036.143-1.812.926-1.933 1.953a2.53 2.53 0 0 0 .52 1.824l.033.043.003.003.004.006 3.825 5.219v1.057h1.5v-1.548l-4.08-5.565-.006-.009a2 2 0 0 0-.123-.162 1.03 1.03 0 0 1-.186-.696c.04-.339.294-.59.65-.639a.72.72 0 0 1 .584.157l3.201 3.25V7.331a.57.57 0 0 1 .57-.581c.364 0 .53.301.53.581v6.154h1.5v-2.379l.703.064h.011a.3.3 0 0 1 .061.011c.242.084.275.168.3.243.04.135.06.245.076.407l.01 2.143 1.5-.007-.009-1.972.552.028h.037c.333 0 .567.319.58.621v1.752h1.5v-1.015h.686c.402.089.434.589.434.751l.02 2.025-.01.282-.004.107c-.017.527-.043 1.321-.178 1.777a1.6 1.6 0 0 1-.253.454L19.5 20.443z" clip-rule="evenodd"/></svg>