<svg xmlns="http://www.w3.org/2000/svg" fill="none" viewBox="0 0 24 24"><path fill="currentColor" fill-rule="evenodd" d="M7.623 22.747h9.46l.028-.002c1.912-.137 3.567-1.64 3.567-3.72v-6.44c0-.551-.166-1.108-.547-1.55-.387-.45-.945-.722-1.61-.78l-.032-.002h-1.28c-.367-.58-.991-1.01-1.78-1.01H14.11c-.369-.578-.993-.992-1.776-.992h-.96V3.747c0-.333-.04-.653-.132-.96-.468-1.559-2.425-1.97-3.588-1.04-.427.343-.864.888-.864 1.597V9.66c-1.353 1.223-2.495 2.295-3.104 3.374-.324.574-.518 1.183-.507 1.844.011.658.225 1.303.609 1.953l.008.014zm-.832-11.049v2.81h1.5V3.344c0-.062.048-.222.302-.425.442-.354 1.09-.11 1.213.3.043.144.069.316.069.528v8.246h1.5V9.75h.96c.252 0 .49.16.6.485m0 0 .01.04.016.106c.01.086.015.169.015.222v1.903h1.5v-1.763h.952c.243 0 .49.165.605.501l.01.04.017.113c.01.09.016.176.016.228v1.566h1.5v-1.44h.845c.305.033.475.146.573.26.108.126.184.317.184.573v6.44c0 1.194-.94 2.123-2.15 2.222h-8.59l-3.365-5.192c-.281-.48-.387-.869-.393-1.204s.088-.682.314-1.08c.344-.612.945-1.265 1.797-2.073" clip-rule="evenodd"/></svg>