<svg xmlns="http://www.w3.org/2000/svg" fill="none" viewBox="0 0 24 24"><path fill="currentColor" fill-rule="evenodd" d="M7.44 22h1.501v-2.271l-.141-.196c-.096-.134-2.373-3.303-3.98-5.259-.477-.58-.657-1.101-.535-1.547.076-.276.25-.46.308-.516l.023-.021c.209-.159.75-.432 1.398.318.617.827 1.72 2.171 1.767 2.228l1.33 1.619V3.67a.93.93 0 0 1 .93-.92.92.92 0 0 1 .92.921l.01 6.643.783-.035c1.177-.053 1.533.005 2.392.145l.155.025c.139.026.27.051.395.09.538.161 1.89.629 2.83 1.517l1.03-1.091c-1.132-1.068-2.635-1.626-3.421-1.86a5 5 0 0 0-.565-.131l-.181-.03c-.68-.111-1.124-.183-1.901-.183h-.018l-.01-5.09a2.42 2.42 0 0 0-2.419-2.42 2.43 2.43 0 0 0-2.43 2.42v8.456a30 30 0 0 1-.408-.534l-.03-.038c-1.251-1.475-2.78-1.125-3.505-.527a2.62 2.62 0 0 0-.904 1.694c-.091.826.21 1.668.897 2.504 1.352 1.645 3.252 4.256 3.78 4.986zm10.81-6.5v.75h-1.5v-.75a.75.75 0 0 1 1.5 0m-3 0v.75h-1.5v6.5h7.5v-6.5h-1.5v-.75a2.25 2.25 0 0 0-2.25-2.25 2.25 2.25 0 0 0-2.25 2.25m4.5 5.75v-3.5h-4.5v3.5z" clip-rule="evenodd"/></svg>