<svg xmlns="http://www.w3.org/2000/svg" fill="none" viewBox="0 0 24 24"><path fill="currentColor" fill-rule="evenodd" d="M9.166 3.25a1 1 0 0 0-1 1v10.78h-1.5v-2.534c-.416.476-.711.819-.929 1.112-.231.313-.342.528-.4.733a2.3 2.3 0 0 0-.086.672c.006.292.03.532.133.838.108.32.314.746.73 1.38l.002.002 2.29 3.517H16.5a2.25 2.25 0 0 0 2.25-2.25v-6a2.25 2.25 0 0 0-2.25-2.25h-6.334v-6a1 1 0 0 0-1-1m-2.5 6.968V4.25a2.5 2.5 0 1 1 5 0v4.5H16.5a3.75 3.75 0 0 1 3.75 3.75v6a3.75 3.75 0 0 1-3.75 3.75H7.593L4.86 18.054c-.455-.694-.734-1.239-.898-1.725a4.1 4.1 0 0 1-.211-1.281 3.8 3.8 0 0 1 .144-1.12c.126-.44.346-.82.637-1.213.28-.377.654-.805 1.113-1.33l.02-.023z" clip-rule="evenodd"/></svg>