<svg xmlns="http://www.w3.org/2000/svg" fill="none" viewBox="0 0 24 24"><path fill="currentColor" fill-rule="evenodd" d="M13.5 2.25v1.5h-.992l1.088 3.626 3.654.913V6a.75.75 0 0 1 .75-.75h2v1.5h-1.25v1.914l2.432.608a.75.75 0 0 1 .568.728v5.45a3.75 3.75 0 1 1-6.425 3.3H13.85a.75.75 0 0 1-.735-.9 6.78 6.78 0 0 0-.842-4.85h-.023v-.037A6.75 6.75 0 0 0 6.5 9.75c-1.52 0-2.922.502-4.05 1.35l-.901-1.2a8.2 8.2 0 0 1 1.701-.985V3.75H2v-1.5zm5.5 13.5a2.25 2.25 0 1 0 0 4.5 2.25 2.25 0 0 0 0-4.5m-5.25-6.79v3.6a8.2 8.2 0 0 1 .966 4.69h.609a3.75 3.75 0 0 1 4.925-2.786V12.75H19v-1.5h1.25v-.664zm-2.808-5.21H7.75v4.594a8.23 8.23 0 0 1 4.5 2.24V8.11zm-4.692 0h-1.5v4.686a8.3 8.3 0 0 1 1.5-.182zm.25 7.5a5.25 5.25 0 1 1 0 10.5 5.25 5.25 0 0 1 0-10.5m0 1.5a3.75 3.75 0 1 0 0 7.5 3.75 3.75 0 0 0 0-7.5" clip-rule="evenodd"/></svg>