<svg xmlns="http://www.w3.org/2000/svg" fill="none" viewBox="0 0 24 24"><path fill="currentColor" fill-rule="evenodd" d="M4.776 9.148a7.25 7.25 0 1 1 14.5 0c0 2.028-.83 4.374-2.195 6.21q-.375.505-.79.94c-1.066-1.165-2.58-1.9-4.264-1.9s-3.199.735-4.265 1.9a10 10 0 0 1-.79-.94c-1.365-1.836-2.196-4.182-2.196-6.21m7.25-8.75a8.75 8.75 0 0 1 8.75 8.75c0 2.392-.96 5.045-2.49 7.105-1.526 2.052-3.723 3.645-6.26 3.645s-4.733-1.593-6.258-3.645c-1.531-2.06-2.492-4.713-2.492-7.105a8.75 8.75 0 0 1 8.75-8.75m0 15.5A4.26 4.26 0 0 0 8.89 17.29c.972.703 2.041 1.11 3.137 1.11s2.166-.407 3.139-1.11a4.27 4.27 0 0 0-3.138-1.39m0-10c-1.194 0-2.33.463-3.011 1.309-.162.201-.217.334-.233.401a.2.2 0 0 0-.006.04q0 .01.003.013c.005.012.039.066.16.143s.3.156.547.228a9 9 0 0 0 2.54.366 9 9 0 0 0 2.54-.366c.247-.072.426-.152.547-.228s.155-.131.16-.143c.003-.008.005-.022-.003-.053-.016-.067-.07-.2-.232-.401-.682-.846-1.817-1.309-3.012-1.309m0-1.5c1.548 0 3.156.597 4.18 1.868.49.61.77 1.354.406 2.073-.317.625-1 .95-1.623 1.133a10.54 10.54 0 0 1-5.924 0c-.624-.183-1.308-.508-1.624-1.133-.365-.72-.085-1.463.406-2.073C8.873 4.997 10.48 4.4 12.029 4.4M4.402 17.732l-2 3 1.248.832 2-3zm14 .832 2 3 1.248-.832-2-3z" clip-rule="evenodd"/></svg>