<svg xmlns="http://www.w3.org/2000/svg" fill="none" viewBox="0 0 24 24"><path fill="currentColor" fill-rule="evenodd" d="M21.338 5.234c-.53.32-1.145.455-1.791.499l-1.521 4.564c2.582.355 4.724 2.605 4.724 5.505 0 2.166-1.723 3.948-3.882 3.948h-.118V21h-1.5v-1.25H6.464l-.792 1.585-1.342-.67.457-.915H3.32c-1.158 0-2.07-.954-2.07-2.097 0-.856.515-1.636 1.314-1.953l2.58-1.025-1.23-4.925H2v-1.5h5v1.5H5.46l1.091 4.367 8.771-3.483q.556-.22 1.114-.313l2.024-6.07H19c.75 0 1.236-.104 1.562-.301.292-.177.55-.485.711-1.132l1.455.364c-.232.93-.68 1.622-1.39 2.052m-.088 10.568c0-2.868-2.809-4.793-5.374-3.774L3.118 17.094a.6.6 0 0 0-.368.559c0 .344.27.597.57.597h15.548c1.3 0 2.382-1.081 2.382-2.448m-4-.802a.75.75 0 0 1 .75-.75h.009a.75.75 0 0 1 0 1.5H18a.75.75 0 0 1-.75-.75" clip-rule="evenodd"/></svg>