<svg xmlns="http://www.w3.org/2000/svg" fill="none" viewBox="0 0 24 24"><path fill="currentColor" fill-rule="evenodd" d="M8.25 6.5a3.75 3.75 0 1 1 7.336 1.1l-.13.424.31.318A5.23 5.23 0 0 1 17.25 12a5.25 5.25 0 0 1-2.626 4.548l-.649.376.751 1.298.65-.376A6.75 6.75 0 0 0 18.75 12c0-1.674-.61-3.206-1.619-4.386q.118-.54.119-1.114A5.25 5.25 0 1 0 6.869 7.614 6.73 6.73 0 0 0 5.25 12c0 2.5 1.359 4.68 3.374 5.846l.65.376.75-1.298-.648-.376A5.25 5.25 0 0 1 6.75 12a5.23 5.23 0 0 1 1.484-3.658l.31-.318-.13-.424a3.8 3.8 0 0 1-.164-1.1m4.5 6.69V8.25h-1.5v2.94L9.5 9.44 8.44 10.5l2.81 2.81v7.94h-2v1.5h5.5v-1.5h-2v-5.94l2.81-2.81-1.06-1.06z" clip-rule="evenodd"/></svg>