<svg xmlns="http://www.w3.org/2000/svg" fill="none" viewBox="0 0 24 24"><path fill="currentColor" fill-rule="evenodd" d="M12 1.25A6.75 6.75 0 0 0 5.25 8v4c0 2.5 1.359 4.68 3.374 5.846l.65.376.75-1.298-.648-.376A5.25 5.25 0 0 1 6.75 12V8a5.25 5.25 0 0 1 10.5 0v4a5.25 5.25 0 0 1-2.626 4.548l-.649.376.751 1.298.65-.376A6.75 6.75 0 0 0 18.75 12V8A6.75 6.75 0 0 0 12 1.25m.75 11.94V8.25h-1.5v2.94L9.5 9.44 8.44 10.5l2.81 2.81v7.94h-2v1.5h5.5v-1.5h-2v-5.94l2.81-2.81-1.06-1.06z" clip-rule="evenodd"/></svg>