<svg xmlns="http://www.w3.org/2000/svg" fill="none" viewBox="0 0 24 24"><path fill="currentColor" fill-rule="evenodd" d="M9.83 4.407a2.251 2.251 0 0 1 4.343 0l.22.81.78-.31a2.25 2.25 0 0 1 2.883 3.012l-.325.726.744.282a2.751 2.751 0 0 1-.58 5.295l-.643.092v.65c0 1.255-1.019 2.286-2.25 2.286h-.75v1.5h.75c1.872 0 3.408-1.394 3.7-3.172a4.252 4.252 0 0 0 .956-7.741q.093-.406.094-.837a3.75 3.75 0 0 0-4.403-3.693 3.749 3.749 0 0 0-6.694 0 3.75 3.75 0 0 0-4.31 4.53 4.251 4.251 0 0 0 .956 7.741c.293 1.778 1.83 3.172 3.701 3.172h.75v-1.5h-.75c-1.231 0-2.25-1.031-2.25-2.285v-.65l-.644-.093a2.75 2.75 0 0 1-.58-5.295l.745-.282-.326-.726A2.25 2.25 0 0 1 8.83 4.907l.78.31zm2.92 8.782V8.25h-1.5v2.94L9.5 9.44 8.44 10.5l2.81 2.81v7.94h-2v1.5h5.5v-1.5h-2v-5.94l2.81-2.81-1.06-1.06z" clip-rule="evenodd"/></svg>