<svg xmlns="http://www.w3.org/2000/svg" fill="none" viewBox="0 0 24 24"><path fill="currentColor" fill-rule="evenodd" d="M11.5 19.25a.75.75 0 1 0 0 1.5.75.75 0 0 0 0-1.5M9.25 20c0-.707.326-1.337.836-1.75H8a.75.75 0 0 1-.743-.65L5.343 3.25H2v-1.5h4a.75.75 0 0 1 .743.65l1.914 14.35H22v1.5h-2.086a2.25 2.25 0 1 1-2.829 0h-4.17A2.25 2.25 0 1 1 9.25 20m8.5 0a.75.75 0 1 1 1.5 0 .75.75 0 0 1-1.5 0m-7.5-15.5a.75.75 0 0 1 .75-.75h10a.75.75 0 0 1 .75.75v10a.75.75 0 0 1-.75.75H11a.75.75 0 0 1-.75-.75zm1.5.75v8.5h8.5v-8.5zm2.75 3h3v-1.5h-3z" clip-rule="evenodd"/></svg>