<svg xmlns="http://www.w3.org/2000/svg" fill="none" viewBox="0 0 24 24"><path fill="currentColor" fill-rule="evenodd" d="M13.946 3.25a.75.75 0 0 1 .75.75v1.25h4.306a.75.75 0 0 1 .643.364l3 5 .045.088q.061.138.062.298v7a.75.75 0 0 1-.75.75h-2.354a2.751 2.751 0 0 1-5.292 0H9.647a2.751 2.751 0 0 1-5.293 0H2.002a.75.75 0 0 1-.75-.75L1.25 4A.75.75 0 0 1 2 3.25zm-6.944 13.5a1.25 1.25 0 1 0 0 2.5 1.25 1.25 0 0 0 0-2.5m10 0a1.25 1.25 0 1 0 0 2.5 1.25 1.25 0 0 0 0-2.5m-3.806-12H2.75l.002 12.5h1.603a2.751 2.751 0 0 1 5.293 0h4.708a2.751 2.751 0 0 1 5.292 0h1.604v-5.5h-4.25v-1.5h3.675l-2.1-3.5h-3.881V11a.75.75 0 0 1-.75.75H8.81l1.222 1.22-1.06 1.062L5.937 11l3.036-3.03 1.06 1.06-1.22 1.219h4.383z" clip-rule="evenodd"/></svg>