<svg xmlns="http://www.w3.org/2000/svg" fill="none" viewBox="0 0 24 24"><path fill="currentColor" fill-rule="evenodd" d="M6.803 9.25a5.251 5.251 0 0 1 10.394 0zm-1.546.432a6.75 6.75 0 0 1 13.486 0l2.787 2.788a.75.75 0 0 1 0 1.06l-2.672 2.673.683 2.047H21v1.5h-2a.75.75 0 0 1-.712-.513l-.83-2.487H6.542l-.83 2.487A.75.75 0 0 1 5 19.75H3v-1.5h1.46l.682-2.047L2.47 13.53a.75.75 0 0 1 0-1.06zm1.054 1.068L4.06 13l2.25 2.25h11.378L19.94 13l-2.25-2.25zm.939 1.5h1.512v1.5H7.25zm7.988 0h1.512v1.5h-1.512zm-3.994 0h1.512v1.5h-1.512z" clip-rule="evenodd"/></svg>