<svg xmlns="http://www.w3.org/2000/svg" fill="none" viewBox="0 0 24 24"><path fill="currentColor" fill-rule="evenodd" d="M2.75 4a1.25 1.25 0 1 1 2.5 0 1.25 1.25 0 0 1-2.5 0M4 1.25a2.75 2.75 0 1 0 0 5.5 2.75 2.75 0 0 0 0-5.5M18.75 4a1.25 1.25 0 1 1 2.5 0 1.25 1.25 0 0 1-2.5 0M20 1.25a2.75 2.75 0 1 0 0 5.5 2.75 2.75 0 0 0 0-5.5m0 17.5a1.25 1.25 0 1 0 0 2.5 1.25 1.25 0 0 0 0-2.5M17.25 20a2.75 2.75 0 1 1 5.5 0 2.75 2.75 0 0 1-5.5 0m-14.5 0a1.25 1.25 0 1 1 2.5 0 1.25 1.25 0 0 1-2.5 0M4 17.25a2.75 2.75 0 1 0 0 5.5 2.75 2.75 0 0 0 0-5.5m2.75-10.5h10.5v4.5H6.75zm1.5 1.5v1.5h7.5v-1.5zm9 4.5H6.75v4.5h10.5zm-9 3v-1.5h7.5v1.5z" clip-rule="evenodd"/></svg>