<svg xmlns="http://www.w3.org/2000/svg" fill="none" viewBox="0 0 24 24"><path fill="currentColor" fill-rule="evenodd" d="M10 11.75A4.26 4.26 0 0 1 5.75 7.5 4.26 4.26 0 0 1 10 3.25a4.26 4.26 0 0 1 4.25 4.25A4.26 4.26 0 0 1 10 11.75m0-7c-1.52 0-2.75 1.23-2.75 2.75s1.23 2.75 2.75 2.75 2.75-1.23 2.75-2.75S11.52 4.75 10 4.75m5.75 16h1.5v-5.12l-.29-.22c-1.78-1.37-4.31-2.16-6.96-2.16s-5.18.79-6.96 2.16l-.29.22v5.12h1.5v-4.37c1.5-1.04 3.58-1.63 5.75-1.63s4.25.59 5.75 1.63zm4 0h1.5v-5.13l-.3-.22a9.4 9.4 0 0 0-1.62-1l-.67-.33-.66 1.35.67.33c.38.19.75.4 1.08.63zm-4.969-10.618.43 1.44c1.82-.54 3.04-2.2 3.04-4.07s-1.25-3.55-3.04-4.08l-.43 1.44a2.76 2.76 0 0 1 1.96 2.64c0 1.22-.79 2.28-1.96 2.63" clip-rule="evenodd"/></svg>