<svg xmlns="http://www.w3.org/2000/svg" fill="none" viewBox="0 0 24 24"><path fill="currentColor" fill-rule="evenodd" d="M7.75 7.5A4.26 4.26 0 0 0 12 11.75a4.26 4.26 0 0 0 4.25-4.25A4.26 4.26 0 0 0 12 3.25 4.26 4.26 0 0 0 7.75 7.5m1.5 0c0-1.52 1.23-2.75 2.75-2.75s2.75 1.23 2.75 2.75-1.23 2.75-2.75 2.75S9.25 9.02 9.25 7.5m8.5 13.25h1.5v-5.12l-.29-.22c-1.78-1.37-4.31-2.16-6.96-2.16s-5.18.79-6.96 2.16l-.29.22v5.12h1.5v-4.37c1.5-1.04 3.58-1.63 5.75-1.63s4.25.59 5.75 1.63z" clip-rule="evenodd"/></svg>