<svg xmlns="http://www.w3.org/2000/svg" fill="none" viewBox="0 0 24 24"><path fill="currentColor" fill-rule="evenodd" d="M2.75 12a9.25 9.25 0 1 1 18.5 0 9.25 9.25 0 0 1-18.5 0M12 1.25C6.063 1.25 1.25 6.063 1.25 12S6.063 22.75 12 22.75 22.75 17.937 22.75 12 17.937 1.25 12 1.25M10.238 9.5c0-.965.784-1.75 1.753-1.75.97 0 1.754.785 1.754 1.75 0 .966-.784 1.75-1.754 1.75s-1.753-.784-1.753-1.75m1.753-3.25A3.25 3.25 0 0 0 8.737 9.5a3.25 3.25 0 0 0 3.254 3.25 3.25 3.25 0 0 0 3.254-3.25 3.25 3.25 0 0 0-3.254-3.25M8.042 17.518c2.05-2.148 5.86-2.23 7.906-.01l1.103-1.016c-2.667-2.895-7.481-2.747-10.094-.01z" clip-rule="evenodd"/></svg>