<svg xmlns="http://www.w3.org/2000/svg" fill="none" viewBox="0 0 24 24"><path fill="currentColor" fill-rule="evenodd" d="M6.75 5a3.25 3.25 0 1 1 6.5 0 3.25 3.25 0 0 1-6.5 0M10 .25a4.75 4.75 0 1 0 0 9.5 4.75 4.75 0 0 0 0-9.5m0 12.5c-3.793 0-6.77 2.47-7.197 5.5H13v1.5H1.25V19c0-4.371 4.015-7.75 8.75-7.75a9.7 9.7 0 0 1 3.25.552l-.5 1.414A8.2 8.2 0 0 0 10 12.75m4.469 1.78 2.97 2.97-2.97 2.969 1.06 1.06 2.97-2.97 2.97 2.97 1.06-1.06-2.97-2.97 2.97-2.97-1.06-1.06-2.97 2.97-2.97-2.97z" clip-rule="evenodd"/></svg>