<svg xmlns="http://www.w3.org/2000/svg" fill="none" viewBox="0 0 24 24"><path fill="currentColor" fill-rule="evenodd" d="M6.5 5.706c0-1.624 1.335-2.956 3-2.956s3 1.332 3 2.956-1.335 2.956-3 2.956-3-1.332-3-2.956m3-4.456C7.023 1.25 5 3.237 5 5.706s2.023 4.456 4.5 4.456S14 8.175 14 5.706 11.977 1.25 9.5 1.25m0 12.088c3.478 0 6.33 2.592 6.708 5.912H2.792c.378-3.32 3.23-5.912 6.708-5.912m0-1.5c-4.548 0-8.25 3.646-8.25 8.162v.75h16.5V20c0-4.516-3.702-8.162-8.25-8.162M21.241 7.08c1.211.619 1.755 2.068 1.402 3.486-.362 1.449-1.616 2.83-3.891 3.64l-.252.09-.252-.09c-2.275-.81-3.53-2.191-3.89-3.64-.354-1.418.19-2.867 1.4-3.486.928-.473 1.76-.365 2.35-.125.147.06.278.129.392.196q.171-.102.392-.196c.59-.24 1.422-.348 2.35.125m-.682 1.336c-.47-.24-.838-.179-1.1-.072a1.5 1.5 0 0 0-.41.254l-.011.011-.538.564-.538-.564-.012-.01a1.5 1.5 0 0 0-.41-.254c-.262-.108-.63-.169-1.1.071-.48.246-.843.92-.627 1.787.199.799.93 1.805 2.687 2.496 1.756-.69 2.488-1.697 2.687-2.496.216-.866-.147-1.541-.628-1.787" clip-rule="evenodd"/></svg>