<svg xmlns="http://www.w3.org/2000/svg" fill="none" viewBox="0 0 24 24"><path fill="currentColor" fill-rule="evenodd" d="m10.999 22.75-.001.001zM2 22.75h8.999v-1.499h-8.25v-7.47c0-2.931.842-5.148 2.403-8.075.289.017.71.032 1.333.044l.028-1.5c-.623-.012-1.386-.04-1.59-.066-.32-.112-.534-.383-.534-.684 0-.413.395-.75.88-.75h5.46c.485 0 .88.337.88.75 0 .302-.216.574-.541.69a31 31 0 0 1-1.583.06l.029 1.5a41 41 0 0 0 1.309-.041c.899 1.684 1.545 3.068 1.954 4.55l1.446-.399c-.426-1.546-1.072-2.96-1.96-4.638A2.2 2.2 0 0 0 13.11 3.5c0-1.241-1.068-2.25-2.38-2.25H5.27c-1.312 0-2.38 1.009-2.38 2.25 0 .673.314 1.291.829 1.707C2.38 7.733 1.25 10.348 1.25 13.78V22c0 .414.336.75.75.75M4.954 4.194l-.224.716.249-.707zM11.25 17.38c0 3.317 2.985 5.37 5.75 5.37s5.75-2.053 5.75-5.37c0-1.419-.439-2.768-1.237-3.799-.756-.977-1.763-1.561-2.693-1.561-.293 0-.58.037-.845.092.291-.723.867-1.362 1.755-1.362v-1.5c-1.763 0-2.975 1.391-3.354 2.947a4.5 4.5 0 0 0-1.196-.177c-.93 0-1.937.584-2.693 1.561-.798 1.03-1.237 2.38-1.237 3.799m1.5 0c0-2.498 1.605-3.86 2.43-3.86.711 0 1.471.374 1.483.38a.75.75 0 0 0 .677-.001c.052-.025.79-.379 1.48-.379.825 0 2.43 1.469 2.43 3.86s-2.206 3.87-4.25 3.87-4.25-1.372-4.25-3.87" clip-rule="evenodd"/></svg>