<svg xmlns="http://www.w3.org/2000/svg" fill="none" viewBox="0 0 24 24"><path fill="currentColor" fill-rule="evenodd" d="M16.901 2.968 6.098 20.237l1.271.795L18.173 3.763zM8.13 13.678 3.12 3.657l1.34-.67 3.67 7.33 3.67-7.33 1.34.67zm8 7.07h3c.96 0 1.75-.79 1.75-1.75v-2c0-.96-.79-1.75-1.75-1.75h-3c-.14 0-.25-.11-.25-.25v-2c0-.14.11-.25.25-.25h3c.14 0 .25.11.25.25v1.25h1.5v-1.25c0-.96-.79-1.75-1.75-1.75h-3c-.96 0-1.75.79-1.75 1.75v2c0 .96.79 1.75 1.75 1.75h3c.14 0 .25.11.25.25v2c0 .14-.11.25-.25.25h-3c-.14 0-.25-.11-.25-.25v-1.25h-1.5v1.25c0 .96.79 1.75 1.75 1.75" clip-rule="evenodd"/></svg>