<svg xmlns="http://www.w3.org/2000/svg" fill="none" viewBox="0 0 24 24"><path fill="currentColor" fill-rule="evenodd" d="M10.601 3.667c.962-1.393 2.567-2.469 4.94-2.407 2.357.062 3.798 1.545 4.523 3.227.71 1.647.796 3.593.416 4.907a.76.76 0 0 1-.957.514l-2.985-.934a.76.76 0 0 1-.532-.75c.024-.735-.12-1.173-.276-1.414-.147-.229-.321-.316-.477-.34-.371-.056-.744.209-.796.566-.135.906.002 1.546.265 2.011.265.47.705.84 1.317 1.122 1.256.577 3.073.703 4.907.603a.76.76 0 0 1 .801.759v3.04c0 .42-.34.76-.76.76h-2.492c-2.07 3.567-5.77 6.376-7.593 7.335a.76.76 0 0 1-.776-.041c-3.06-2.046-5.09-5.47-6.315-8.892C2.583 10.306 2.12 6.77 2.284 4.38a.76.76 0 0 1 .788-.708l3.52.14a.76.76 0 0 1 .728.82c-.212 2.63.428 5.284 1.348 7.533.774 1.893 1.73 3.456 2.487 4.432a11.3 11.3 0 0 0 1.686-1.51c.31-.336.562-.65.751-.913-3.368-1.407-4.174-4.781-4.162-6.377-.082-1.166.245-2.79 1.171-4.13m1.234.853c-.725 1.05-.973 2.345-.907 3.196l.003.034v.035c-.022 1.371.744 4.365 3.963 5.253l.781.216-.275.762c-.202.557-.776 1.348-1.455 2.086-.7.762-1.604 1.569-2.557 2.133l-.529.314-.41-.457c-.931-1.035-2.194-2.975-3.17-5.359-.89-2.179-1.564-4.781-1.495-7.452l-2.031-.08c-.023 2.136.424 5.107 1.47 8.025 1.116 3.115 2.878 6.07 5.37 7.895 1.821-1.077 5.092-3.715 6.8-6.895l.213-.395h2.641v-1.532c-1.674.034-3.45-.13-4.834-.768-.818-.375-1.537-.933-1.997-1.745-.461-.815-.616-1.808-.443-2.97.186-1.254 1.39-2 2.507-1.828.589.09 1.137.427 1.512 1.011.29.451.461 1.022.505 1.703l1.679.526a6.66 6.66 0 0 0-.49-3.147c-.565-1.311-1.573-2.28-3.185-2.321-1.823-.048-2.967.748-3.666 1.76" clip-rule="evenodd"/></svg>