<svg xmlns="http://www.w3.org/2000/svg" fill="none" viewBox="0 0 24 24"><path fill="currentColor" fill-rule="evenodd" d="M21.903 5.25a.76.76 0 0 1 .76.794c-.077 1.708-.75 3.299-1.515 4.578a16 16 0 0 1-1.686 2.305 14 14 0 0 1 1.96 2.326c.654.965 1.144 1.924 1.31 2.54.149.549-.304.957-.734.957h-4.59l-.182-.486c-.476-1.266-1.182-1.945-1.821-2.335a4 4 0 0 0-.732-.354v3.194l-.769-.02c-4.693-.116-7.836-2.268-9.806-4.916-1.949-2.618-2.748-5.71-2.836-7.791a.76.76 0 0 1 .76-.792h4.58l.131.586C7.261 8.18 8.296 9.794 9.2 10.803V8.087l-.877-1.734a.76.76 0 0 1 .68-1.103l4.958.01a.76.76 0 0 1 .758.766l-.035 4.537c.22-.194.457-.424.695-.683.956-1.04 1.81-2.428 1.81-3.88v-.75zm-3.266 1.5c-.238 1.691-1.235 3.146-2.154 4.146a10.3 10.3 0 0 1-1.494 1.345 4 4 0 0 1-.57.353 1.2 1.2 0 0 1-.357.113.8.8 0 0 1-.477-.083.77.77 0 0 1-.412-.685v-.006l.04-5.174-3.007-.006.494.976v6.224l-1.186-.845c-1.101-.785-3.137-2.779-4.1-6.358H2.826c.22 1.782.96 4.153 2.475 6.188 1.617 2.172 4.117 3.97 7.872 4.272v-2.618c0-.425.402-.879.951-.735l.133.033c.385.094 1.144.278 1.93.76.814.497 1.646 1.298 2.241 2.6h2.451a13 13 0 0 0-.699-1.155c-.61-.9-1.4-1.838-2.26-2.522l-.653-.518.583-.595a14.4 14.4 0 0 0 2.01-2.607c.563-.942 1.03-2.005 1.219-3.103z" clip-rule="evenodd"/></svg>