<svg xmlns="http://www.w3.org/2000/svg" fill="none" viewBox="0 0 24 24"><path fill="currentColor" fill-rule="evenodd" d="M13.244 18.64V5.363L7.221 9.267l-4.47-.025v5.52l4.47-.026zm1.501-14.515-.001.02v15.712l.001.02v.003a1 1 0 0 1 0 .16.767.767 0 0 1-1.203.58l-.003-.002-6.757-4.38-4.706.027h-.004a.81.81 0 0 1-.697-.39.9.9 0 0 1-.123-.458V8.586a.9.9 0 0 1 .123-.458.81.81 0 0 1 .697-.39h.004l4.706.026 6.76-4.381a.8.8 0 0 1 .237-.107.768.768 0 0 1 .966.687 1 1 0 0 1 0 .16zM2.752 15.415v-.006.008zM16.47 10.03 18.44 12l-1.97 1.97 1.06 1.06 1.97-1.97 1.97 1.97 1.06-1.06L20.56 12l1.97-1.97-1.06-1.06-1.97 1.97-1.97-1.97z" clip-rule="evenodd"/></svg>