<svg xmlns="http://www.w3.org/2000/svg" fill="none" viewBox="0 0 24 24"><path fill="currentColor" fill-rule="evenodd" d="M14.782 16.731q-.005.27-.014.564c-.02.741-.044 1.575.06 2.326.154 1.104.593 2.21 1.75 2.998l.845-1.24c-.7-.476-.993-1.13-1.109-1.964a6 6 0 0 1-.03-.267l1.45-.3C17.19 16.213 14.821 14.25 12 14.25c-2.82 0-5.189 1.964-5.734 4.597l1.451.301q-.012.135-.03.269c-.116.832-.41 1.485-1.11 1.963l.846 1.239c1.157-.79 1.596-1.893 1.75-2.996.103-.748.08-1.58.058-2.322q-.009-.296-.014-.57A4.4 4.4 0 0 1 12 15.75c1.06 0 2.03.37 2.782.982M11.25 19v2h1.5v-2zm-8.5-7a9.25 9.25 0 0 1 18.5 0 9.2 9.2 0 0 1-2.22 6.013l1.14.975A10.7 10.7 0 0 0 22.75 12c0-5.938-4.813-10.75-10.75-10.75S1.25 6.062 1.25 12c0 2.667.972 5.108 2.58 6.987l1.14-.975a9.2 9.2 0 0 1-2.22-6.013m4.728-3.46.961.93-.978 1.008 1.078 1.044 2.022-2.087L8.52 7.46zm9.044 0L15.478 7.46 13.44 9.434l2.022 2.087 1.078-1.044-.978-1.009z" clip-rule="evenodd"/></svg>