<svg xmlns="http://www.w3.org/2000/svg" fill="none" viewBox="0 0 24 24"><path fill="currentColor" fill-rule="evenodd" d="M7.75 20q0-.145.031-.28l.053-.173a1.25 1.25 0 0 1 2.414.389l-.017.282A1.25 1.25 0 0 1 7.75 20m-1.5 0q0-.102.007-.201c-2.043-.758-3.884-2.113-4.942-4.494l-.292-.655.641-.32C3.216 13.553 3.25 12.072 3.25 11c0-5.385 4.365-9.75 9.75-9.75s9.75 4.365 9.75 9.75a9.73 9.73 0 0 1-3.472 7.46 2.75 2.75 0 1 1-4.949 2.2q-.652.09-1.33.09-.653.001-1.346-.023A2.751 2.751 0 0 1 6.25 20m11.81-.664a9.7 9.7 0 0 1-2.262 1.007 1.25 1.25 0 1 0 2.262-1.007m-3.266-.281A8.3 8.3 0 0 1 13 19.25q-.667.002-1.36-.024a2.751 2.751 0 0 0-4.87-.836c-1.569-.583-2.913-1.54-3.79-3.107 1.771-1.277 1.77-3.314 1.77-4.242V11a8.25 8.25 0 1 1 13.032 6.724l-.05.034a8.2 8.2 0 0 1-2.886 1.285zm-3.98-4.498a5 5 0 0 1-.73-.815l1.224-.867c.107.15.273.356.504.56.454.405 1.158.811 2.189.811 1.03 0 1.734-.406 2.189-.81.23-.205.396-.41.503-.561l1.224.867a5 5 0 0 1-.73.815c-.67.595-1.717 1.189-3.186 1.189-1.47 0-2.516-.594-3.186-1.19m.686-4.547V8h-2v2.01zm7 0V8h-2v2.01z" clip-rule="evenodd"/></svg>