<svg xmlns="http://www.w3.org/2000/svg" fill="none" viewBox="0 0 24 24"><path fill="currentColor" fill-rule="evenodd" d="M3.01 1.25a.76.76 0 0 0-.76.76v17.978c0 .42.34.76.76.76H6v-1.5H3.75V8.75h16.5v10.498H18v1.5h2.99c.42 0 .76-.34.76-.76V2.01a.76.76 0 0 0-.76-.76zm17.24 6v-4.5H3.75v4.5zm-14-3h1.509v1.5H6.25zm5.509 0H10.25v1.5h1.509zm-1.95 9.678c.567-.29 1.31-.67 2.198-.67.805 0 1.565.369 2.142.65l.068.033c.665.322 1.133.532 1.569.532h.592l.137.575c.348 1.454.335 3.001-.216 4.364-.56 1.384-1.656 2.523-3.357 3.143l-.024.008c-.273.1-.52.19-.91.19-.263 0-.498-.076-.658-.134a7 7 0 0 1-.224-.088l-.008-.004-.183-.072-.008-.003-.009-.003c-1.359-.532-2.446-1.488-3.076-2.784s-.773-2.874-.354-4.613l.14-.576.591.002c.482.001.917-.207 1.543-.527zm-.968 1.988c-.208 1.233-.048 2.273.35 3.093.451.929 1.234 1.634 2.267 2.04.08.03.16.062.224.089h.003c.072.03.128.053.182.073.096.035.135.04.141.042h.001c.112 0 .142-.007.42-.108 1.306-.476 2.08-1.31 2.48-2.296.35-.867.425-1.892.25-2.944-.577-.12-1.108-.378-1.538-.586l-.058-.029c-.668-.324-1.13-.532-1.556-.532-.496 0-.94.211-1.563.53l-.055.028c-.423.216-.944.482-1.548.6" clip-rule="evenodd"/></svg>