<svg xmlns="http://www.w3.org/2000/svg" fill="none" viewBox="0 0 24 24"><path fill="currentColor" fill-rule="evenodd" d="M16.002 11.758c-3.053-.021-5.29 1.984-5.305 4.191-.015 2.208 2.192 4.244 5.246 4.265 1.035.007 1.89-.182 2.684-.572l.24-.117 1.984.456-.507-1.596.23-.309c.46-.614.668-1.259.674-2.054.015-2.207-2.192-4.243-5.246-4.264m-6.805 4.18c.023-3.29 3.214-5.705 6.816-5.68q.604.005 1.185.097.015-.199.015-.401c0-3.333-3.137-6.204-7.231-6.204-4.095 0-7.232 2.871-7.232 6.204 0 1.164.302 2.133.939 3.052l.208.3-.795 2.574 2.969-.695.248.131c.877.465 1.808.729 2.88.812zm.289 1.71c.855 2.398 3.502 4.045 6.446 4.066 1.142.008 2.154-.186 3.109-.61l2.744.63a.757.757 0 0 0 .89-.964l-.674-2.122c.505-.794.74-1.652.747-2.615.017-2.44-1.715-4.423-4.08-5.296q.045-.386.045-.783c0-4.349-4.01-7.704-8.731-7.704-4.722 0-8.732 3.355-8.732 7.704 0 1.334.325 2.507 1.002 3.596l-.965 3.125a.756.756 0 0 0 .897.96l3.688-.863c1.118.546 2.299.821 3.614.876m4.487-4.195a1 1 0 1 0 0 2h.009a1 1 0 1 0 0-2zm3.981 0a1 1 0 0 0 0 2h.009a1 1 0 1 0 0-2zM6.99 6.016a1 1 0 1 0 0 2H7a1 1 0 1 0 0-2zm5.977 0a1 1 0 1 0 0 2h.009a1 1 0 1 0 0-2z" clip-rule="evenodd"/></svg>