<svg xmlns="http://www.w3.org/2000/svg" fill="none" viewBox="0 0 24 24"><path fill="currentColor" fill-rule="evenodd" d="M2.75 16a4.25 4.25 0 1 1 8.5 0 4.25 4.25 0 0 1-8.5 0m2.403-5.447a5.75 5.75 0 1 0 7.46 4.197h3.137v2.628a2.251 2.251 0 1 0 1.5 0V14.75h.352l2.109 3.17 2.563-1.006-.548-1.397-1.437.564-1.883-2.831H17.25v-7H5.872l-.75-4H2v1.5h1.878zM15.75 13.25h-3.699a5.75 5.75 0 0 0-5.426-2.988L6.154 7.75h9.596zm0 6.25a.75.75 0 1 1 1.5 0 .75.75 0 0 1-1.5 0M8.008 16a1 1 0 0 1-1 1h-.01a1 1 0 1 1 0-2h.01a1 1 0 0 1 1 1" clip-rule="evenodd"/></svg>