<svg xmlns="http://www.w3.org/2000/svg" fill="none" viewBox="0 0 24 24"><path fill="currentColor" fill-rule="evenodd" d="M22.483 6.427C19.213 3.666 15.626 2.25 12 2.25S4.786 3.666 1.516 6.427l.967 1.146C5.53 5.001 8.783 3.75 12 3.75S18.47 5 21.517 7.573zM5.02 9.424c4.269-3.558 9.917-3.577 13.977.014l-.994 1.124c-3.476-3.075-8.293-3.095-12.023.014zm7.623 1.19a.75.75 0 0 0-1.286 0l-6 10A.75.75 0 0 0 6 21.75h12a.75.75 0 0 0 .643-1.136zM12 12.458l4.675 7.792h-9.35zm.75 4.792v-2.5h-1.5v2.5zm.009.5H11.25v1.5h1.509z" clip-rule="evenodd"/></svg>