<svg xmlns="http://www.w3.org/2000/svg" fill="none" viewBox="0 0 24 24"><path fill="currentColor" fill-rule="evenodd" d="m17.025 10.582 5.529-6.08-1.11-1.01-4.47 4.917-1.445-1.444-1.06 1.061zm-15.51-.155C4.786 7.666 8.374 6.25 12 6.25v1.5c-3.215 0-6.47 1.251-9.516 3.823zm17.482 3.011c-4.06-3.591-9.708-3.572-13.977-.014l.96 1.152c3.73-3.109 8.547-3.09 12.023-.014zM7.719 16.47c2.293-2.293 6.267-2.293 8.56 0l-1.06 1.06c-1.707-1.707-4.732-1.707-6.44 0zM11 20a1 1 0 0 1 1-1h.012a1 1 0 1 1 0 2H12a1 1 0 0 1-1-1" clip-rule="evenodd"/></svg>