<svg xmlns="http://www.w3.org/2000/svg" fill="none" viewBox="0 0 24 24"><path fill="currentColor" fill-rule="evenodd" d="M12 3.25c3.626 0 7.214 1.416 10.483 4.177l-.967 1.146C18.47 6 15.216 4.75 12 4.75S5.53 6.001 2.483 8.573l-.967-1.146C4.786 4.666 8.373 3.25 12 3.25m3.857 6.107c-1.825-.998-3.71-1.33-5.583-.96-1.862.37-3.644 1.422-5.305 3.07l1.056 1.065c1.512-1.5 3.041-2.365 4.541-2.663 1.49-.295 3.018-.045 4.571.804zm-2.698 4.018c-1.82-.396-3.747.152-5.19 1.595l1.06 1.06c1.093-1.093 2.505-1.473 3.81-1.19zM18.5 11.25A2.75 2.75 0 0 0 15.75 14v.75h-1.5v7h8.5v-7h-5.5V14a1.25 1.25 0 0 1 2.188-.827l1.124-.992a2.75 2.75 0 0 0-2.062-.931m-2.75 9v-4h5.5v4z" clip-rule="evenodd"/></svg>