<svg xmlns="http://www.w3.org/2000/svg" fill="none" viewBox="0 0 24 24"><path fill="currentColor" fill-rule="evenodd" d="M17.116 13.5v.75h2.5v-.75a1.25 1.25 0 1 0-2.5 0m-5.25-10.75c3.627 0 7.215 1.416 10.485 4.177l-.968 1.146c-3.046-2.572-6.3-3.823-9.516-3.823S5.397 5.501 2.35 8.073l-.968-1.146C4.653 4.166 8.24 2.75 11.867 2.75m3.86 6.107c-1.825-.998-3.71-1.33-5.582-.96-1.863.37-3.645 1.422-5.306 3.07l1.057 1.065c1.511-1.5 3.04-2.365 4.54-2.663 1.49-.295 3.019-.045 4.571.804zm-2.7 4.018c-1.82-.396-3.747.152-5.19 1.595l1.06 1.06c1.093-1.092 2.505-1.473 3.81-1.19zm5.34-2.125a2.75 2.75 0 0 1 2.75 2.75v.75h1.5v7h-8.5v-7h1.5v-.75a2.75 2.75 0 0 1 2.75-2.75m2.75 5h-5.5v4h5.5z" clip-rule="evenodd"/></svg>