<svg xmlns="http://www.w3.org/2000/svg" fill="none" viewBox="0 0 24 24"><path fill="currentColor" fill-rule="evenodd" d="M12 2.25c4.127 0 7.86 1.696 10.536 4.427a.75.75 0 0 1 .071.965l-10 13.798a.75.75 0 0 1-1.214 0l-10-13.798a.75.75 0 0 1 .071-.965A14.7 14.7 0 0 1 12 2.25m-1.968 14.757L12 19.722l1.968-2.716a7.7 7.7 0 0 0-3.936 0m-2.488-3.433L9.1 15.72a9.2 9.2 0 0 1 5.8 0l1.556-2.147a12.47 12.47 0 0 0-8.912 0M12 3.75a13.2 13.2 0 0 0-9.012 3.537l3.648 5.034a13.97 13.97 0 0 1 10.728 0l3.648-5.034A13.2 13.2 0 0 0 12 3.75" clip-rule="evenodd"/></svg>