<svg xmlns="http://www.w3.org/2000/svg" fill="none" viewBox="0 0 24 24"><path fill="currentColor" fill-rule="evenodd" d="M2.758 4.75V2h-1.5L1.25 15.5a.75.75 0 0 0 .75.75h3.25V18c0 .414.336.75.75.75h8a.75.75 0 0 0 .75-.75v-1.75h.94l2.56 2.56V22c0 .414.336.75.75.75h3v-1.5h-2.25v-2.44l2.78-2.78a.75.75 0 0 0 0-1.06l-2.78-2.78V5.5a.75.75 0 0 0-.75-.75h-4.25V3a.75.75 0 0 0-.75-.75H6a.75.75 0 0 0-.75.75v1.75zM5.25 13v1.75h-2.5l.007-8.5H5.25V8c0 .414.336.75.75.75h8a.75.75 0 0 0 .75-.75V6.25h3.5v5.94l-2.56 2.56h-.94V13a.75.75 0 0 0-.75-.75H6a.75.75 0 0 0-.75.75m1.5-9.25v3.5h6.5v-3.5zm0 10v3.5h6.5v-3.5zM19 17.44l-1.94-1.94L19 13.56l1.94 1.94z" clip-rule="evenodd"/></svg>