<svg xmlns="http://www.w3.org/2000/svg" fill="none" viewBox="0 0 24 24"><path fill="currentColor" fill-rule="evenodd" d="M12.665 6.33 9.859 7.733l-4.784-.478a.75.75 0 0 0-.771.467l-2 5a.75.75 0 0 0 .166.81l3.28 3.28V21h1.5v-4.5a.75.75 0 0 0-.22-.53l-.967-.968 1.497-3.906 1.92 1.85a.75.75 0 0 0 .52.21h1.5v-1.5h-1.197l-2.16-2.08.187-.49 1.595.16a.75.75 0 0 0 .41-.075l3-1.5zM6.783 8.933 4.9 13.842 3.88 12.82l1.607-4.017zM6.75 4.5a.75.75 0 1 1 1.5 0 .75.75 0 0 1-1.5 0m.75-2.25a2.25 2.25 0 1 0 0 4.5 2.25 2.25 0 0 0 0-4.5m9.175 4.848a1.125 1.125 0 0 0-1.33-.223l-.689-1.332a2.625 2.625 0 0 1 3.11.526c.094.1.185.22.299.369l.022.03 1.027 1.347c.207.272.534.435.886.435v1.5a2.61 2.61 0 0 1-2.08-1.026l-1.026-1.348a4 4 0 0 0-.22-.278M13.098 13.3a6 6 0 0 1 3.3 1.91l.678.768A5.24 5.24 0 0 0 21 17.749v-1.5a3.74 3.74 0 0 1-2.802-1.265l-.678-.767a7.5 7.5 0 0 0-4.12-2.387z" clip-rule="evenodd"/></svg>