<svg xmlns="http://www.w3.org/2000/svg" fill="none" viewBox="0 0 24 24"><path fill="currentColor" fill-rule="evenodd" d="m12.654 11.348.71-1.616-3.426-2.665-.633.872-.019.025-.48.609zm1.064 1.309 1.208-2.75 5.638-6.413-1.127-.99-5.248 5.97-3.37-2.622L12.57 3.44l-1.214-.88L8.1 7.046l-.957 1.212-1.74 2.287a.75.75 0 0 0-.143.577l.5 3a.75.75 0 0 0 .74.627h2.449v-1.5H7.135l-.342-2.054L7.886 9.76l4.332 3.124V21h1.5zM4.75 5.5a.75.75 0 1 1 1.5 0 .75.75 0 0 1-1.5 0m.75-2.25a2.25 2.25 0 1 0 0 4.5 2.25 2.25 0 0 0 0-4.5" clip-rule="evenodd"/></svg>