<svg xmlns="http://www.w3.org/2000/svg" fill="none" viewBox="0 0 24 24"><path fill="currentColor" fill-rule="evenodd" d="M3.75 19a2.25 2.25 0 1 1 4.5 0 2.25 2.25 0 0 1-4.5 0m-1.5 0a3.75 3.75 0 0 1 3-3.675v-6.65A3.751 3.751 0 0 1 6 1.25a3.75 3.75 0 0 1 .75 7.425v2.575h10.5V8.675A3.751 3.751 0 0 1 18 1.25a3.75 3.75 0 0 1 .75 7.425V12a.75.75 0 0 1-.75.75H6.75v2.575A3.751 3.751 0 0 1 6 22.75 3.75 3.75 0 0 1 2.25 19M6 2.75a2.25 2.25 0 1 0 0 4.5 2.25 2.25 0 0 0 0-4.5m12 0a2.25 2.25 0 1 0 0 4.5 2.25 2.25 0 0 0 0-4.5" clip-rule="evenodd"/></svg>