<svg xmlns="http://www.w3.org/2000/svg" fill="none" viewBox="0 0 24 24"><path fill="currentColor" fill-rule="evenodd" d="M9 22.713h6l.001.001a.76.76 0 0 0 .76-.76v-8.73c1.489-1.014 2.124-2.158 2.582-3.25l.024-.066c.543-1.734.495-3.278-.153-4.862a6.83 6.83 0 0 0-3.973-3.769l-.989-.349-.011 1.05a69 69 0 0 0 .003 1.445c.004.52.007 1.056-.003 1.57-.009.311.001.662.01.975l.001.037c.009.303.02.717.001.843-.142.696-.731 1.02-1.255 1.03h-.032c-.849 0-1.135-.736-1.215-1.028-.028-.3-.015-.901-.005-1.44l.001-.028.002-.105c.005-.29.011-.587.011-.863-.006-.52-.004-1.106-.002-1.638V2.65c.002-.246.002-.475.002-.673V.906l-.998.35c-1.655.578-3.201 2.041-3.938 3.724C4.492 8 5.488 11.326 8.24 13.211v8.742c0 .426.334.76.76.76m5.26-1.5H9.738V12.38l-.361-.219c-2.77-1.68-3.092-4.514-2.182-6.578.416-.95 1.184-1.83 2.059-2.408-.001.42-.001.853.004 1.247 0 .284-.006.611-.013.928-.015.684-.028 1.33.018 1.72l.005.045.011.044c.328 1.354 1.378 2.218 2.684 2.218h.065a2.784 2.784 0 0 0 2.696-2.249l.003-.015c.045-.256.038-.605.022-1.153a17 17 0 0 1-.01-.933c.011-.544.007-1.093.004-1.627l-.001-.08-.001-.142v-.004a5.33 5.33 0 0 1 2.084 2.443c.509 1.246.546 2.422.119 3.81-.455 1.075-1.03 1.955-2.325 2.746l-.359.22zm-3.01-1.463h1.51l-.01-1.5h-1.5z" clip-rule="evenodd"/></svg>