<svg xmlns="http://www.w3.org/2000/svg" fill="none" viewBox="0 0 24 24"><path fill="currentColor" fill-rule="evenodd" d="m12.17 14.453.73 7.466a.76.76 0 0 1-1.037.78l-4.988-1.972a.76.76 0 0 1-.23-1.27zM8.533 19.77l2.755 1.09-.322-3.294zm11.127-3.99-7.008-1.5 3.085 6.406a.76.76 0 0 0 1.277.146L20.094 17a.76.76 0 0 0-.434-1.219m-3.08 3.198-1.248-2.59 2.84.608zm.971-11.737 3.059 4.302a.76.76 0 0 1-.53 1.195l-7.512.886 3.708-6.327a.76.76 0 0 1 1.275-.056m-.56 1.801 1.673 2.353-3.277.386zm-5.844-5.921L6.708 4.838l3.906 4.39zm1.597-1.053a.76.76 0 0 0-1.03-.775l-6.542 2.53a.76.76 0 0 0-.294 1.214l6.928 7.785zM8.39 13.695 5.133 11.76l-.285 3.555zm-3.51-3.83a.76.76 0 0 0-1.146.593l-.48 5.995a.76.76 0 0 0 1.073.752l7.292-3.338z" clip-rule="evenodd"/></svg>