<svg xmlns="http://www.w3.org/2000/svg" fill="none" viewBox="0 0 24 24"><path fill="currentColor" fill-rule="evenodd" d="M8 2.25a4.75 4.75 0 0 1 .778 9.437l9.775 6.516c.66.44 1.224.816 1.584 1.135.181.16.386.37.506.629.145.314.157.689-.055 1.03-.187.3-.473.456-.718.542s-.526.13-.813.158c-.564.053-1.34.053-2.3.053H5.52c-.736 0-1.343-.006-1.835-.05-.57-.051-1.091-.16-1.532-.454-.482-.322-.714-.76-.816-1.265-.086-.427-.086-.949-.086-1.504v-7.615c.002-.504.013-.972.091-1.342.05-.24.141-.503.324-.733A1.4 1.4 0 0 1 2.4 8.31c.364-.1.715-.065 1.044.036A4.75 4.75 0 0 1 8 2.25m-5.17 7.5-.021.081c-.044.206-.055.504-.058.974l-.001 7.609c0 .64.004 1.01.056 1.27.04.2.092.256.178.313.128.085.347.165.834.209.433.039.991.044 1.762.044h11.134c.954 0 1.634 0 2.115-.039-.278-.205-.659-.46-1.16-.794L4.895 10.9c-.721-.481-1.204-.802-1.58-.99-.295-.148-.428-.164-.485-.16m5.17-6a3.25 3.25 0 1 0 0 6.5 3.25 3.25 0 0 0 0-6.5m7.377 5.596a.75.75 0 0 0-.746 1.3l4.305 2.469c-.235.041-.501.089-.808.146a.75.75 0 0 0 .276 1.475 71 71 0 0 1 1.06-.19c.331-.059.611-.107.826-.15a4.5 4.5 0 0 0 .601-.156c.169-.06.389-.158.565-.349.29-.31.312-.693.293-.94a3.3 3.3 0 0 0-.178-.763c-.077-.231-.177-.488-.277-.748l-.02-.053c-.11-.285-.225-.584-.334-.902a.75.75 0 1 0-1.42.486c.12.347.243.668.352.951z" clip-rule="evenodd"/></svg>