<svg xmlns="http://www.w3.org/2000/svg" fill="none" viewBox="0 0 24 24"><path fill="currentColor" fill-rule="evenodd" d="M14.715 10.688q.144.06.29.06v-.003a.75.75 0 0 0 .691-.46l1.815-4.32.007-.018c.197-.494.42-1.054-.029-1.503l-.014-.013-.015-.014c-.46-.414-.983-.189-1.491.029l-1.898.82-.597-2.699c-.134-.602-.273-1.225-.936-1.315-.686-.094-.974.495-1.249 1.058l-.688 1.38-1.785-1.026c-.62-.358-1.207-.696-1.723-.208-.525.48-.21 1.121.094 1.74L8.24 6.343l-.736.132c-.447.07-1.053.168-1.212.775-.159.59.28.955.632 1.248l.001.001.026.022.013.011 2.578 2.05a.75.75 0 0 0 .934-1.174L8.483 7.825l.45-.08h.002c.21-.038.7-.127.928-.574.227-.447.011-.895-.083-1.091l-.002-.003-.769-1.57 1.15.658.001.001c.22.128.551.32.95.2s.562-.455.68-.694l.426-.855.477 2.16c.042.194.141.65.564.87.422.218.85.038 1.04-.042l1.51-.653-1.493 3.554a.75.75 0 0 0 .401.982m-2.934-.45a.75.75 0 0 0 .71.513h.002a.75.75 0 0 0 .711-.988l-.5-1.5a.75.75 0 1 0-1.423.475zM5.496 22.75a2.75 2.75 0 0 1-2.637-2H2a.75.75 0 0 1 0-1.5h.859a2.75 2.75 0 0 1 2.637-2c1.252 0 2.348.846 2.658 2.026 1.024.023 1.389-.085 1.505-.139.106-.279.088-.904.073-1.418v-.008A23 23 0 0 1 9.718 17c.004-1.205-.316-1.887-1.103-2.352a7 7 0 0 0-.87-.36l-.002-.001c-.383-.139-.777-.283-1.211-.538H2a.75.75 0 0 1 0-1.5h2.98a16 16 0 0 1-.705-1.133l-.017-.03-.002-.003q-.184-.32-.361-.608l-.011-.019C3.043 9.01 1.899 8.743 1.851 8.733a.75.75 0 1 1 .323-1.465c.304.067 1.877.499 3.002 2.426.129.207.255.424.376.634l.004.006c.456.784.927 1.594 1.592 2.034l.005.003.002.002.008.005c.365.236.703.36 1.093.501.314.114.671.244 1.062.445l.034.019c1.261.733 1.872 1.931 1.866 3.661 0 .194.006.395.011.593l.002.071c.026.859.05 1.67-.299 2.277-.423.735-1.547.863-2.788.833-.319 1.165-1.352 1.973-2.648 1.973m-1.24-2.75c0 .689.557 1.25 1.241 1.25s1.224-.488 1.25-1.193l-.002-.057q0-.029.002-.055c-.025-.589-.462-1.195-1.25-1.195-.684 0-1.241.561-1.241 1.25m11.602.777c.32 1.165 1.352 1.973 2.648 1.973h.001a2.75 2.75 0 0 0 2.637-2h.86a.75.75 0 0 0 0-1.5h-.86c-.326-1.153-1.346-2-2.637-2a2.716 2.716 0 0 0-2.658 2.026c-1.024.022-1.389-.086-1.505-.139-.106-.279-.088-.904-.073-1.418v-.008q.012-.347.014-.714c-.004-1.199.316-1.885 1.103-2.359.291-.144.561-.24.846-.343l.005-.002c.39-.14.791-.284 1.232-.543h4.532a.75.75 0 0 0 0-1.5h-2.982c.262-.375.49-.766.706-1.136l.003-.006a22 22 0 0 1 .376-.63l.013-.021c.842-1.448 1.985-1.714 2.033-1.725a.75.75 0 0 0-.323-1.465c-.304.067-1.876.499-3 2.425-.133.213-.263.436-.39.652l-.005.009-.002.004c-.453.775-.92 1.576-1.577 2.01l-.007.005-.008.005c-.37.24-.713.363-1.109.505l-.014.005c-.304.11-.649.234-1.026.423l-.046.025c-1.275.754-1.867 1.92-1.86 3.666 0 .219-.007.446-.014.666-.026.859-.05 1.67.3 2.277.422.735 1.546.863 2.787.833m2.648.473c-.737 0-1.25-.514-1.25-1.25 0-.606.437-1.25 1.25-1.25.684 0 1.241.561 1.241 1.25s-.557 1.25-1.24 1.25" clip-rule="evenodd"/></svg>