<svg xmlns="http://www.w3.org/2000/svg" fill="none" viewBox="0 0 24 24"><path fill="currentColor" fill-rule="evenodd" d="M21.22 19.57c.003.044.014.173.018.253.006.103.012.23.014.365l-1.719-1.718a.75.75 0 0 0-1.06 1.06l1.719 1.72a9 9 0 0 1-.558-.026l-.05-.005h-.012l-.002-.001a.75.75 0 0 0-.147 1.493h.008l.019.002.064.006a10 10 0 0 0 .944.03c.27-.006.581-.026.869-.081.25-.049.639-.151.916-.428.277-.278.38-.666.428-.917.056-.288.076-.6.08-.87a10 10 0 0 0-.015-.717c-.005-.091-.019-.253-.024-.312v-.005a.75.75 0 0 0-1.492.15M19.57 2.782l.254-.019a9 9 0 0 1 .365-.013l-1.718 1.72a.75.75 0 0 0 1.06 1.06l1.72-1.719a9 9 0 0 1-.027.558l-.004.05v.012l-.001.002a.75.75 0 0 0 1.493.147v-.008l.002-.019a6 6 0 0 0 .021-.29c.01-.187.02-.443.014-.718a5 5 0 0 0-.08-.869c-.049-.25-.151-.639-.428-.916-.278-.277-.666-.38-.917-.428a5 5 0 0 0-.87-.08 10 10 0 0 0-1.029.038h-.005a.75.75 0 0 0 .15 1.493M2.765 4.177c.005.08.016.21.02.254a.75.75 0 0 1-1.493.15v-.005c-.005-.06-.019-.22-.024-.312a10 10 0 0 1-.016-.717c.005-.27.025-.582.08-.87.05-.251.152-.64.43-.917.276-.277.665-.379.915-.427a5 5 0 0 1 .87-.081 10 10 0 0 1 1.007.035l.018.001.006.001h.003a.75.75 0 1 1-.148 1.493h-.002L4.42 2.78l-.05-.005a8 8 0 0 0-.558-.025l1.72 1.719A.75.75 0 1 1 4.47 5.53L2.75 3.812c.003.136.008.262.014.365m1.667 17.04c-.045.003-.174.014-.254.018-.103.006-.23.012-.365.014L5.53 19.53a.75.75 0 1 0-1.06-1.06l-1.72 1.719a9 9 0 0 1 .026-.558l.005-.05v-.012l.001-.002a.75.75 0 0 0-1.493-.147v.009l-.002.018a7 7 0 0 0-.021.29c-.01.187-.02.443-.014.718.005.27.025.581.08.869.049.25.15.639.428.916s.666.38.917.428c.288.056.6.076.87.08.275.006.531-.004.717-.015.091-.005.252-.019.312-.024h.005a.75.75 0 0 0-.15-1.492M12 5.75a6.25 6.25 0 1 0 0 12.5 6.25 6.25 0 0 0 0-12.5M4.251 12a7.75 7.75 0 1 1 15.5 0 7.75 7.75 0 0 1-15.5 0m8.414-3.547a.75.75 0 0 0-1.5 0v.177c-.4.09-.765.254-1.07.48-.484.361-.844.913-.844 1.575 0 .576.22 1.136.78 1.51.5.331 1.18.451 1.97.451.716 0 .995.165 1.097.26.091.086.153.223.153.478 0 .104-.038.215-.202.328-.186.127-.543.255-1.134.255-.392 0-.59-.04-.722-.09-.127-.049-.25-.129-.464-.322a.75.75 0 0 0-1.006 1.113c.266.24.552.464.932.61q.244.092.51.136v.09a.75.75 0 1 0 1.5 0v-.093c.473-.075.891-.228 1.233-.463.535-.367.853-.923.853-1.564 0-.49-.124-1.098-.626-1.57-.49-.462-1.212-.668-2.124-.668-.687 0-1.008-.114-1.139-.2-.07-.047-.111-.092-.111-.261 0-.084.045-.226.24-.372.196-.146.513-.266.924-.266.345 0 .565.06.717.132.151.072.28.176.416.33a.75.75 0 1 0 1.123-.994 2.8 2.8 0 0 0-.898-.692 2.7 2.7 0 0 0-.608-.203z" clip-rule="evenodd"/></svg>