<svg xmlns="http://www.w3.org/2000/svg" fill="none" viewBox="0 0 24 24"><path fill="currentColor" fill-rule="evenodd" d="M10.32 14.253c-.788 0-1.571-.3-2.166-.885a2.98 2.98 0 0 1-.903-2.218 3 3 0 0 1 1.01-2.176l2.266-2.024c-1.024-.33-2.588-.644-4.513-.693a2.86 2.86 0 0 1-1.347-.37L1.629 4.151a.749.749 0 1 1 .744-1.302l3.039 1.736c.187.107.408.166.64.172 2.617.067 4.807.618 5.957 1.166a4.97 4.97 0 0 1 2.6-.418l1.304.143a3.47 3.47 0 0 0 2.268-.542l3.41-2.233a.75.75 0 1 1 .82 1.255l-3.41 2.233a4.97 4.97 0 0 1-3.251.778l-1.304-.143a3.47 3.47 0 0 0-2.068.42l-.017.01a3.4 3.4 0 0 0-.584.419L9.26 10.093a1.5 1.5 0 0 0-.054 2.204 1.596 1.596 0 0 0 2.035.164l1.664-1.168c.4-.28.904-.386 1.382-.292l.335.066a3.46 3.46 0 0 0 2.713-.604l.59-.435a.75.75 0 1 1 .89 1.208l-.59.435a4.96 4.96 0 0 1-2.874.96c.543 1.267 1.344 2.961 2.803 4.06.668-.178 2.286-.692 3.316-1.721a.75.75 0 0 1 1.06 1.06c-1.37 1.372-3.431 1.976-4.138 2.15-1.482 1.521-4.826 3.07-8.392 3.07-2.022 0-4.16-.928-6.18-2.684a16.2 16.2 0 0 1-2.434-2.636.75.75 0 1 1 1.229-.86c.032.046 3.336 4.68 7.386 4.68 1.816 0 5.02-.698 6.85-2.185-1.642-1.42-2.461-3.355-3.025-4.69l-.01-.022-.12-.282-1.593 1.118a3.1 3.1 0 0 1-1.781.563z" clip-rule="evenodd"/></svg>