<svg xmlns="http://www.w3.org/2000/svg" fill="none" viewBox="0 0 24 24"><path fill="currentColor" fill-rule="evenodd" d="M9.78 1.825c1.45-.1 2.99-.1 4.44 0 4.54.3 8.19 4 8.49 8.6.05.86.05 1.76 0 2.62-.3 4.6-3.95 8.3-8.49 8.6-1.45.1-2.99.1-4.44 0-.59-.04-1.2-.18-1.72-.4-.19-.08-.39-.16-.52-.21-.09.06-.2.14-.34.25-.89.65-1.86.96-3.04.96h-.217c-.719-.02-1.338-.037-1.684-.63-.35-.6-.05-1.17.37-1.96.34-.64.67-1.52.34-2.11-1.01-1.51-1.59-3.04-1.68-4.5a23 23 0 0 1 0-2.62c.3-4.6 3.95-8.3 8.49-8.6m4.34 1.48c-1.39-.09-2.86-.09-4.24 0-3.79.25-6.84 3.35-7.09 7.2-.05.79-.05 1.63 0 2.42.08 1.19.57 2.47 1.46 3.82.56 1 .45 2.19-.29 3.59-.07.13-.14.27-.2.39l-.01.01h.26c.91.03 1.63-.18 2.29-.67l.034-.025c.457-.334.693-.506 1.015-.545.33-.04.61.07 1.28.35.37.15.82.26 1.25.28 1.39.09 2.85.09 4.24 0 3.79-.25 6.84-3.35 7.09-7.2.05-.79.05-1.63 0-2.42-.25-3.85-3.3-6.95-7.09-7.2m-.63 2.94c.41 0 .75.34.75.75v1.24c.78.1 1.4.72 1.51 1.51h1.32c.41 0 .75.34.75.75s-.34.75-.75.75h-1.3v1.47h1.3c.41 0 .75.34.75.75s-.34.75-.75.75h-1.32a1.75 1.75 0 0 1-1.49 1.48v1.3c0 .41-.34.75-.75.75h-.01c-.41 0-.75-.34-.75-.75v-1.28h-1.53v1.28c0 .41-.34.75-.75.75s-.75-.34-.75-.75v-1.31c-.73-.13-1.31-.72-1.42-1.47H6.98c-.41 0-.75-.34-.75-.75s.34-.75.75-.75h1.3v-1.47h-1.3c-.41 0-.75-.34-.75-.75s.34-.75.75-.75H8.3c.1-.75.68-1.36 1.42-1.49v-1.26c0-.41.34-.75.75-.75s.75.34.75.75v1.23h1.52v-1.23c0-.41.34-.75.75-.75m.52 3.48h-3.97c-.14 0-.25.11-.25.25v3.99c0 .14.11.25.25.25h3.97c.14 0 .25-.11.25-.25v-3.99c0-.14-.11-.25-.25-.25" clip-rule="evenodd"/></svg>