<svg xmlns="http://www.w3.org/2000/svg" fill="none" viewBox="0 0 24 24"><path fill="currentColor" fill-rule="evenodd" d="M6.944 2.75c1.223 0 1.64.011 1.992.143.827.31 1.19 1.037 1.744 2.144l.107.213H7a.75.75 0 1 0 0 1.5h9.75c1.069 0 1.814 0 2.389.06.562.056.877.162 1.111.32.246.163.457.374.62.62.157.234.264.55.32 1.111.06.575.06 1.32.06 2.389 0 1.771 0 3.043-.102 4.032-.099.976-.289 1.592-.614 2.08a4.2 4.2 0 0 1-.529.643.75.75 0 1 0 1.06 1.06 6 6 0 0 0 .716-.87c.517-.775.749-1.667.86-2.761.109-1.074.109-2.422.109-4.142v-.082c0-1.02 0-1.841-.067-2.5-.07-.681-.216-1.271-.565-1.793a3.8 3.8 0 0 0-1.035-1.035c-.522-.349-1.112-.496-1.792-.565-.66-.067-1.482-.067-2.5-.067h-4.328l-.426-.852-.095-.192c-.472-.955-1.084-2.194-2.48-2.717-.638-.24-1.35-.24-2.38-.24l-.138.001H6.91c-.88 0-1.588 0-2.16.05-.59.052-1.106.162-1.577.425a3.75 3.75 0 0 0-1.448 1.448c-.263.47-.373.987-.425 1.577-.05.572-.05 1.28-.05 2.16v3.147c0 2.309 0 4.118.19 5.53.194 1.444.6 2.584 1.494 3.479a.75.75 0 0 0 1.06-1.06c-.569-.57-.896-1.341-1.068-2.62-.174-1.3-.176-3.008-.176-5.386V6.944c0-.921 0-1.564.045-2.063.043-.489.123-.767.24-.977a2.25 2.25 0 0 1 .869-.869c.21-.117.489-.197.977-.24.5-.044 1.142-.045 2.063-.045m12.806 18.5a1.5 1.5 0 0 0-1.889-1.45l-1.111-1.11V16a.75.75 0 0 0-1.5 0v3c0 .199.079.39.22.53l1.33 1.331a1.503 1.503 0 0 0 1.45 1.889 1.5 1.5 0 0 0 1.5-1.5M8.75 16v3a.75.75 0 0 1-.22.53L7.2 20.861a1.5 1.5 0 0 1-1.45 1.889 1.5 1.5 0 1 1 .389-2.95l1.111-1.11V16a.75.75 0 0 1 1.5 0m4.75 5.25a1.5 1.5 0 0 0-.75-1.3V16a.75.75 0 0 0-1.5 0v3.95a1.5 1.5 0 1 0 2.25 1.3" clip-rule="evenodd"/></svg>