<svg xmlns="http://www.w3.org/2000/svg" fill="none" viewBox="0 0 24 24"><path fill="currentColor" fill-rule="evenodd" d="M10.236 22.332c.63.25 1.06.415 1.77.415.668 0 1.08-.164 1.694-.409l.116-.046c5.89-2.39 8.9-8.62 7.66-15.89l-.005-.024c-.117-.676-.19-1.09-.506-1.476-.31-.36-.79-.53-1.84-.88-.686-.229-1.355-.612-2.066-1.02l-.181-.104c-1.36-.78-2.89-1.656-4.872-1.656-2.02 0-3.58.9-4.95 1.7-.75.44-1.46.85-2.18 1.09l-.013.005c-1.041.357-1.509.517-1.837.895-.307.376-.379.79-.496 1.465l-.004.025c-1.24 7.26 1.77 13.5 7.71 15.91m-2.43-18.08c1.32-.77 2.58-1.5 4.19-1.5 1.576 0 2.803.71 4.094 1.459l.106.061.086.05c.753.435 1.526.88 2.364 1.16.56.18 1.09.36 1.17.42.06.07.12.43.18.79 1.14 6.64-1.45 12.1-6.78 14.26-.57.23-.78.31-1.21.31-.413 0-.623-.082-1.178-.301l-.072-.029c-5.3-2.15-7.88-7.61-6.75-14.25.06-.36.13-.73.15-.76.11-.09.64-.27 1.2-.46.838-.28 1.61-.725 2.363-1.16zM12.717 16.5c0 .41.34.75.75.75h.01c.41 0 .75-.34.75-.75v-1.3c.77-.1 1.38-.71 1.49-1.48h1.32c.41 0 .75-.34.75-.75s-.34-.75-.75-.75h-1.3v-1.47h1.3c.41 0 .75-.34.75-.75s-.34-.75-.75-.75h-1.32a1.76 1.76 0 0 0-1.51-1.5V6.5c0-.41-.34-.75-.75-.75s-.75.34-.75.75v1.23h-1.51V6.5c0-.41-.34-.75-.75-.75s-.75.34-.75.75v1.26c-.74.13-1.32.74-1.42 1.49h-1.32c-.41 0-.75.34-.75.75s.34.75.75.75h1.3v1.47h-1.3c-.41 0-.75.34-.75.75s.34.75.75.75h1.32c.11.74.69 1.34 1.42 1.47v1.31c0 .41.34.75.75.75s.75-.34.75-.75v-1.28h1.52zm-2.96-3.03V9.48c0-.14.11-.25.25-.25h3.97c.14 0 .25.11.25.25v3.99c0 .14-.11.25-.25.25h-3.97c-.14 0-.25-.11-.25-.25" clip-rule="evenodd"/></svg>