<svg xmlns="http://www.w3.org/2000/svg" fill="none" viewBox="0 0 24 24"><path fill="currentColor" fill-rule="evenodd" d="M9.946 2.25h4.11c1.84 0 3.29 0 4.43.15 1.17.16 2.12.49 2.87 1.24s1.08 1.7 1.24 2.87c.09.67.13 1.46.14 2.36 0 .04.01.08.01.13v3.5c0 .41-.34.75-.75.75s-.75-.34-.75-.75V9.75h-12.5v4.5h3.25c.41 0 .75.34.75.75s-.34.75-.75.75h-3.25v4.5h3.25c.41 0 .75.34.75.75s-.34.75-.75.75h-4c-.04 0-.09 0-.13-.01-.91-.02-1.69-.05-2.36-.14-1.17-.16-2.12-.49-2.87-1.24s-1.08-1.7-1.24-2.87c-.09-.67-.13-1.46-.14-2.36 0-.04-.01-.08-.01-.13V9.01c0-.04 0-.09.01-.13.02-.91.05-1.69.14-2.36.16-1.17.49-2.12 1.24-2.87s1.7-1.08 2.87-1.24c.67-.09 1.46-.13 2.36-.14.04 0 .08-.01.13-.01h1.94zm-2.69 1.53c-.59.02-1.09.05-1.54.11-1.01.14-1.59.39-2.01.81s-.68 1-.81 2.01c-.06.45-.09.95-.11 1.54h4.47zm1.5 4.47v-4.5h5.25c1.91 0 3.26 0 4.29.14 1.01.14 1.59.39 2.01.81s.68 1 .81 2.01c.06.45.09.95.11 1.54zm-1.5 1.5h-4.5v4.5h4.5zm0 6h-4.47c.02.59.05 1.09.11 1.54.14 1.01.39 1.59.81 2.01s1 .68 2.01.81c.45.06.95.09 1.54.11zm9.65-2.8c.43-.93 1.76-.93 2.2 0l.63 1.34c.2.43.55.78.98.98l1.34.63c.93.43.93 1.76 0 2.2l-1.34.63c-.43.2-.78.55-.98.98l-.63 1.34c-.43.93-1.76.93-2.2 0l-.63-1.34c-.2-.43-.55-.78-.98-.98l-1.34-.63c-.93-.43-.93-1.76 0-2.2l1.34-.63c.43-.2.78-.55.98-.98zm1.1 1.19-.37.79a3.5 3.5 0 0 1-1.71 1.71l-.79.37.79.37c.75.35 1.36.95 1.71 1.71l.37.79.37-.79c.35-.75.95-1.36 1.71-1.71l.79-.37-.79-.37a3.5 3.5 0 0 1-1.71-1.71z" clip-rule="evenodd"/></svg>