<svg xmlns="http://www.w3.org/2000/svg" fill="none" viewBox="0 0 24 24"><path fill="currentColor" fill-rule="evenodd" d="M1.958 11.767q.155.012.34.012l-.001-.001c1.244 0 3.378-.387 3.985-.613.427-.122.986-.343 1.577-.577h.002c.207-.082.428-.17.647-.254a5.28 5.28 0 0 0 4.959 3.427v.002c2.915 0 5.285-2.352 5.285-5.245 0-2.597-1.912-4.76-4.413-5.173l-.275-.142C11.152 1.698 9.547.869 6.743 1.43l-.036.008c-.745.188-1.724.718-2.76 1.279l-.01.005c-.771.417-1.568.849-2.208 1.1a.75.75 0 1 0 .547 1.397c.729-.286 1.572-.742 2.386-1.183.9-.488 1.83-.992 2.395-1.14 1.843-.364 2.972-.032 4.85.89A5.33 5.33 0 0 0 9.642 5.77H8.295a.75.75 0 0 0 0 1.5h3.061c.214.022.734.16.912.573l.024.064c-.1.067-.274.095-.533.129a7 7 0 0 0-.31.046q-.511.091-1 .19l-.1.019-.168.033-.251.049h-.001l-.315.06c-.193.025-.419.08-.667.156a.76.76 0 0 0-.332.109c-.397.136-.836.31-1.288.489l-.017.007c-.546.216-1.11.439-1.464.536a1 1 0 0 0-.11.04c-.38.14-2.705.576-3.661.502a.749.749 0 1 0-.117 1.495m7.989-1.87a3.78 3.78 0 0 0 3.52 2.365c2.087 0 3.785-1.68 3.785-3.744 0-1.951-1.518-3.56-3.448-3.73a3.96 3.96 0 0 0-2.236.996c.623.082 1.647.463 2.078 1.466.295.687.185 1.336-.284 1.713-.45.432-.998.505-1.404.56h-.004l-.047.006-.191.029zm5.1 12.852c-.48 0-.959-.125-1.38-.37l-7.509-4.328a1.8 1.8 0 0 1-.856-1.185 1.84 1.84 0 0 1 .305-1.455 2.74 2.74 0 0 1 3.033-1.03l4.125 1.268a2.6 2.6 0 0 1 2.066-1.015h1.042c.18 0 .36-.041.521-.118l2.04-.987a2.7 2.7 0 0 1 1.173-.268H22a.75.75 0 0 1 0 1.5h-2.393c-.18 0-.36.04-.52.118l-2.04.987a2.7 2.7 0 0 1-1.174.268h-1.042c-.413 0-.772.22-.952.544l1.933.534c.281.078.58.05.84-.075l2.182-1.054a.75.75 0 0 1 .653 1.35l-2.182 1.055a2.68 2.68 0 0 1-1.892.17l-2.538-.701a.84.84 0 0 1-.617-.808q0-.045.002-.086L8.2 15.815a1.24 1.24 0 0 0-1.374.475.33.33 0 0 0-.054.263.3.3 0 0 0 .14.199l7.51 4.33c.3.174.647.216.977.118l6.391-1.895a.75.75 0 1 1 .426 1.438l-6.39 1.895a2.7 2.7 0 0 1-.777.112z" clip-rule="evenodd"/></svg>