<svg xmlns="http://www.w3.org/2000/svg" fill="none" viewBox="0 0 24 24"><path fill="currentColor" fill-rule="evenodd" d="M11.258 2.293a.75.75 0 0 1 .457.957l-.008.023a74 74 0 0 0-.673 1.96l.147-.004c3.258-.108 6.723-.65 9.51-1.912a.75.75 0 1 1 .619 1.366c-3.037 1.377-6.72 1.934-10.08 2.045q-.327.011-.65.016c-.351 1.276-.644 2.67-.768 4.145a9 9 0 0 1 2.283-.137 12 12 0 0 1 3.113.613c.095-.488.11-.91.055-1.243a.75.75 0 1 1 1.48-.244c.104.634.045 1.353-.133 2.095 1.19.637 2.122 1.495 2.656 2.524.569 1.093.66 2.34.146 3.6-.504 1.237-1.567 2.431-3.203 3.526a.75.75 0 1 1-.834-1.247c1.483-.992 2.293-1.975 2.648-2.845.345-.847.28-1.635-.088-2.343-.34-.654-.96-1.267-1.806-1.765a13.2 13.2 0 0 1-1.754 2.97c-.822 1.056-1.845 2.053-3.025 2.825q.346.69.783 1.38a.75.75 0 1 1-1.268.803 18 18 0 0 1-.828-1.456 8.5 8.5 0 0 1-2.821.759c-1.733.146-3.033-.4-3.634-1.576-.563-1.1-.362-2.486.225-3.713.777-1.623 2.345-3.233 4.47-4.077.09-1.65.385-3.2.749-4.598-2.49-.055-4.702-.336-6.2-.691a.75.75 0 1 1 .346-1.46c1.457.346 3.72.628 6.281.658.274-.881.557-1.68.805-2.38l.042-.117a.75.75 0 0 1 .957-.457M8.261 12.99c-1.466.736-2.544 1.91-3.1 3.072-.485 1.015-.505 1.87-.242 2.384.224.438.794.88 2.171.763a7 7 0 0 0 2.33-.63 16.5 16.5 0 0 1-1.16-5.59m2.475 4.834a11.3 11.3 0 0 0 2.457-2.353 11.7 11.7 0 0 0 1.573-2.674 10.5 10.5 0 0 0-2.77-.549c-.8-.054-1.552.02-2.246.191a15.1 15.1 0 0 0 .986 5.385" clip-rule="evenodd"/></svg>