<svg xmlns="http://www.w3.org/2000/svg" fill="none" viewBox="0 0 24 24"><path fill="currentColor" fill-rule="evenodd" d="M10.77 3.75c1.4.002 2.202.039 2.821.659.545.546.64 1.232.656 2.341l.722.001c1.073.006 1.735.054 2.365.412.715.403 1.144 1.075 1.92 2.291.49.766.975 1.279 1.632 1.729.81.557 1.297.892 1.592 1.493.237.484.267.976.27 1.776a1 1 0 0 1 0 .091l.001.274c0 1.385 0 2.148-.537 2.756l-.008.008-.017.018-.053.056c-.56.572-1.295.594-2.488.595a2.756 2.756 0 0 1-2.646 2 2.756 2.756 0 0 1-2.646-2H9.646a2.756 2.756 0 0 1-2.646 2 2.756 2.756 0 0 1-2.647-2.002c-1.17-.012-1.882-.095-2.444-.656-.659-.66-.659-1.524-.659-3.092V7.23c.002-1.399.039-2.2.659-2.821.66-.659 1.523-.659 3.09-.659zM7 16.25c-.689 0-1.25.561-1.25 1.25s.561 1.25 1.25 1.25 1.25-.561 1.25-1.25-.561-1.25-1.25-1.25m10 0c-.689 0-1.25.561-1.25 1.25s.561 1.25 1.25 1.25 1.25-.561 1.25-1.25-.561-1.25-1.25-1.25m-6.084-11H4.584c-.857.004-1.424.03-1.615.22-.19.19-.215.757-.218 1.614v7.832c.003.857.028 1.424.219 1.615.172.172.655.209 1.385.217A2.755 2.755 0 0 1 7 14.75c1.256 0 2.319.847 2.646 2h3.104V7.5c0-1.09 0-1.811-.22-2.031-.19-.19-.756-.215-1.614-.218m3.965 3h-.631v8.5h.104c.327-1.153 1.39-2 2.646-2s2.319.847 2.646 2c.75 0 1.286-.009 1.423-.15l.023-.025c.132-.157.154-.641.157-1.325H21a.75.75 0 0 1 0-1.5h.226a1.2 1.2 0 0 0-.095-.414c-.112-.228-.373-.422-1.093-.916-.822-.562-1.451-1.224-2.039-2.145-.675-1.058-1.012-1.585-1.404-1.807-.324-.184-.766-.213-1.714-.217M7.25 12.5a.75.75 0 0 0 1.5 0v-1.25H10a.75.75 0 0 0 0-1.5H8.75V8.5a.75.75 0 0 0-1.5 0v1.25H6a.75.75 0 0 0 0 1.5h1.25z" clip-rule="evenodd"/></svg>