<svg xmlns="http://www.w3.org/2000/svg" fill="none" viewBox="0 0 24 24"><path fill="currentColor" fill-rule="evenodd" d="M7 4.15q-.088.19-.21.462L4.685 9.307a.75.75 0 0 1-1.37-.614l2.106-4.695.021-.046c.177-.395.342-.761.506-1.024.155-.247.476-.678 1.052-.678s.898.43 1.053.678c.164.263.328.63.505 1.024l.02.046 2.107 4.695a.75.75 0 0 1-1.37.614L7.21 4.612Q7.088 4.34 7 4.15m1.852 10.602-.43-.002H4a.75.75 0 0 1 0-1.5h4.471c.422 0 .816 0 1.117.042.288.041.806.16 1.038.685.234.53-.034.993-.201 1.232-.174.247-.443.533-.73.836l-.034.038-3.638 3.863q-.164.172-.283.302.183.002.43.002H10a.75.75 0 0 1 0 1.5H6.12c-.421 0-.815 0-1.116-.042-.289-.041-.807-.16-1.038-.685-.235-.53.033-.993.2-1.232.175-.247.444-.533.73-.836l.035-.038 3.638-3.863zM18.25 4a.75.75 0 0 0-1.5 0v14.462l-.006-.007c-.21-.249-.417-.512-.61-.757l-.045-.057a9 9 0 0 0-.551-.664.75.75 0 1 0-1.076 1.046c.089.091.235.273.448.544l.047.06c.19.242.413.526.643.797.246.291.521.593.797.828.138.117.293.233.46.323.162.086.385.175.643.175s.48-.089.642-.175c.168-.09.323-.206.461-.323.276-.235.551-.537.797-.828.23-.27.453-.555.643-.797l.047-.06q.318-.407.448-.544a.75.75 0 1 0-1.076-1.046 9 9 0 0 0-.551.664l-.045.057c-.193.245-.4.508-.61.757l-.006.007z" clip-rule="evenodd"/></svg>