<svg xmlns="http://www.w3.org/2000/svg" fill="none" viewBox="0 0 24 24"><path fill="currentColor" fill-rule="evenodd" d="M2.471 2.47a.75.75 0 0 1 1.06 0L9.23 8.156l-.011-.137c-.03-.346-.072-.7-.112-1.03l-.01-.076c-.04-.33-.081-.672-.085-.909a.75.75 0 0 1 1.5-.023c.002.138.03.387.074.75l.01.081c.04.325.086.706.118 1.081.034.403.054.834.024 1.214a2.8 2.8 0 0 1-.101.58 1.4 1.4 0 0 1-.338.595 1.4 1.4 0 0 1-.595.34 3 3 0 0 1-.58.103 8 8 0 0 1-1.213-.021c-.375-.03-.756-.076-1.08-.114l-.081-.01a9 9 0 0 0-.75-.072.75.75 0 1 1 .018-1.5c.237.003.58.043.909.082l.076.01a28 28 0 0 0 1.169.12l-5.7-5.69a.75.75 0 0 1 0-1.06M10.3 13.698a1.4 1.4 0 0 0-.595-.34 2.8 2.8 0 0 0-.58-.1 8 8 0 0 0-1.213.022c-.375.031-.755.077-1.08.116l-.081.01a9 9 0 0 1-.75.073.75.75 0 1 0 .02 1.5 10 10 0 0 0 .91-.084l.076-.01a28 28 0 0 1 1.162-.12L2.47 20.46a.75.75 0 0 0 1.06 1.061l5.704-5.703-.01.144c-.03.346-.072.7-.111 1.03l-.01.076c-.039.33-.08.672-.083.909a.75.75 0 1 0 1.5.02c.002-.138.03-.387.073-.75l.01-.08c.039-.326.084-.706.115-1.082a8 8 0 0 0 .022-1.213 2.8 2.8 0 0 0-.102-.58 1.4 1.4 0 0 0-.339-.595m4.477 2.265-.01-.144 5.703 5.703a.75.75 0 0 0 1.061-1.06l-5.698-5.698.132.01c.347.03.7.072 1.03.112l.076.01c.33.039.672.08.909.083a.75.75 0 1 0 .021-1.5 9 9 0 0 1-.75-.073l-.08-.01h-.001c-.325-.04-.705-.085-1.08-.116a8 8 0 0 0-1.214-.023 2.8 2.8 0 0 0-.58.102 1.4 1.4 0 0 0-.595.339 1.4 1.4 0 0 0-.339.595c-.057.189-.086.39-.102.58-.03.38-.01.81.022 1.213.031.376.077.756.116 1.081l.01.08c.043.364.071.613.073.752a.75.75 0 1 0 1.5-.021 10 10 0 0 0-.084-.909l-.009-.076c-.04-.33-.082-.684-.11-1.03m6.75-12.432a.75.75 0 0 0-1.06-1.062l-5.696 5.688.01-.137c.03-.346.073-.7.113-1.03l.01-.076c.04-.33.08-.672.084-.909a.75.75 0 0 0-1.5-.023c-.002.138-.03.387-.074.75l-.01.081c-.04.325-.086.706-.117 1.081a8 8 0 0 0-.024 1.214c.014.19.044.39.1.58.055.182.152.408.339.595.186.187.412.284.594.34.189.057.39.087.58.103.38.03.81.012 1.213-.021.376-.03.756-.076 1.081-.114l.08-.01c.364-.043.613-.07.751-.072a.75.75 0 0 0-.019-1.5 10 10 0 0 0-.908.082l-.077.01a28 28 0 0 1-1.168.12z" clip-rule="evenodd"/></svg>