<svg xmlns="http://www.w3.org/2000/svg" fill="none" viewBox="0 0 24 24"><path fill="currentColor" fill-rule="evenodd" d="M20.75 3a.75.75 0 0 0-1.5 0v2.077c0 2.032-.003 2.953-.134 3.71-.738 4.25-4.412 7.649-9.18 8.338-.792.114-2.46.124-4.49.125q.147-.133.311-.272c.3-.254.618-.504.913-.735l.069-.054a11 11 0 0 0 .784-.651.75.75 0 1 0-1.046-1.076 10 10 0 0 1-.665.548l-.072.056c-.29.228-.63.494-.952.768a9 9 0 0 0-.976.94c-.137.16-.269.338-.37.526a1.5 1.5 0 0 0-.192.7c0 .276.095.518.193.7.1.188.232.366.37.527.273.32.628.645.975.94.323.273.661.539.952.767l.072.056a10 10 0 0 1 .665.548.75.75 0 1 0 1.046-1.076 11 11 0 0 0-.784-.651l-.07-.054c-.294-.231-.611-.48-.912-.735q-.164-.14-.31-.272c1.984 0 3.785-.008 4.703-.14 5.332-.77 9.582-4.6 10.444-9.566.156-.901.156-1.96.156-3.867z" clip-rule="evenodd"/></svg>