<svg xmlns="http://www.w3.org/2000/svg" fill="none" viewBox="0 0 24 24"><path fill="currentColor" d="M3.25 12c0 .374.166.72.323.98.169.282.396.572.646.854.501.567 1.155 1.176 1.79 1.727a44 44 0 0 0 2.487 2l.043.032.012.009.004.003a.75.75 0 0 0 .89-1.208l-.013-.01-.04-.029-.155-.116a44 44 0 0 1-2.245-1.813c-.616-.535-1.212-1.094-1.649-1.588l-.08-.092H20a.75.75 0 0 0 0-1.5H5.266l.077-.09c.437-.493 1.033-1.052 1.649-1.587a43 43 0 0 1 2.4-1.93l.04-.029.013-.01a.75.75 0 1 0-.89-1.207L8.55 6.4l-.012.009-.043.032a33 33 0 0 0-.739.565c-.475.37-1.11.88-1.749 1.435-.634.55-1.288 1.16-1.789 1.727a6 6 0 0 0-.646.853c-.156.259-.321.603-.323.974"/></svg>