<svg xmlns="http://www.w3.org/2000/svg" fill="none" viewBox="0 0 24 24"><path fill="currentColor" d="M15.445 6.604a52 52 0 0 0-2.953 2.37c-.74.642-1.462 1.318-1.992 1.918-.266.3-.468.565-.6.783-.124.205-.15.327-.15.327s.026.117.15.322q.2.33.6.784c.53.6 1.251 1.275 1.992 1.918a52 52 0 0 0 2.952 2.37.75.75 0 0 1-.889 1.208l-.002-.002a53 53 0 0 1-3.044-2.443c-.76-.66-1.539-1.385-2.134-2.058a7 7 0 0 1-.76-1.002c-.184-.306-.365-.693-.365-1.1 0-.406.181-.793.366-1.098.196-.326.463-.666.76-1.002.594-.673 1.373-1.399 2.132-2.058a53 53 0 0 1 2.093-1.717c.284-.222.783-.598.951-.726l.003-.002a.75.75 0 0 1 .89 1.208"/></svg>