<svg xmlns="http://www.w3.org/2000/svg" fill="none" viewBox="0 0 24 24"><path fill="currentColor" fill-rule="evenodd" d="M6.001 3.266a.75.75 0 1 0 0 1.5h11.997a.75.75 0 0 0 0-1.5zm4.963 5.52c.387-.45.625-.725.822-.898a.8.8 0 0 1 .179-.128c.021-.01.028-.01.032-.01H12c.004 0 .011 0 .033.01a.8.8 0 0 1 .178.128c.197.173.436.448.822.897l.761.886c.634.737 1.051 1.226 1.288 1.6.108.17.147.268.16.318-.047.024-.156.063-.383.095-.452.064-1.11.066-2.099.066h-1.522c-.988 0-1.646-.002-2.098-.066-.228-.031-.336-.07-.384-.095.014-.05.053-.148.16-.318.237-.374.655-.863 1.288-1.6zm1.855 4.464h-.07V20a.75.75 0 0 1-1.5 0v-6.75h-.072c-.912 0-1.678 0-2.248-.08-.562-.08-1.224-.273-1.539-.926-.32-.664-.044-1.299.258-1.775.303-.479.795-1.051 1.377-1.729l.04-.047.762-.886.032-.037c.344-.4.652-.759.94-1.01.312-.274.698-.51 1.2-.51.5 0 .886.236 1.2.51.287.251.595.61.938 1.01l.032.037.802.933c.583.678 1.075 1.25 1.377 1.729.302.476.579 1.111.258 1.775-.315.653-.976.847-1.54.926-.569.08-1.334.08-2.247.08" clip-rule="evenodd"/></svg>