<svg xmlns="http://www.w3.org/2000/svg" fill="none" viewBox="0 0 24 24"><path fill="currentColor" fill-rule="evenodd" d="M7.523 3.538a.75.75 0 1 0-1.046-1.076c-.116.113-.342.294-.665.548l-.072.056c-.29.228-.63.494-.952.768a9 9 0 0 0-.976.94c-.137.16-.269.338-.37.526a1.5 1.5 0 0 0-.192.7c0 .276.095.518.193.7.1.188.232.366.37.527.273.32.628.645.975.94.323.273.661.539.952.767l.072.056c.323.254.549.435.665.548a.75.75 0 1 0 1.046-1.076 11 11 0 0 0-.784-.651l-.07-.054a32 32 0 0 1-.912-.735q-.164-.14-.31-.272c2.029 0 3.697.01 4.488.125 4.77.689 8.443 4.087 9.18 8.338.132.757.135 1.678.135 3.71V21a.75.75 0 0 0 1.5 0v-2.177c0-1.906 0-2.966-.156-3.867-.862-4.965-5.112-8.795-10.444-9.566-.918-.132-2.72-.14-4.703-.14q.146-.133.31-.272c.3-.254.618-.504.913-.735l.069-.054c.296-.233.597-.47.784-.651" clip-rule="evenodd"/></svg>