<svg xmlns="http://www.w3.org/2000/svg" fill="none" viewBox="0 0 24 24"><path fill="currentColor" fill-rule="evenodd" d="M20.749 6a.75.75 0 1 0-1.5 0v12a.75.75 0 0 0 1.5 0zm-5.533 4.967c.45.386.724.625.897.822a.8.8 0 0 1 .128.178c.01.022.01.03.01.033v.002c0 .004 0 .01-.01.032a.8.8 0 0 1-.128.179c-.173.197-.448.435-.897.822l-.886.761c-.737.634-1.226 1.05-1.6 1.288-.17.107-.269.147-.318.16a1.3 1.3 0 0 1-.096-.384c-.063-.451-.065-1.11-.065-2.098V11.24c0-.989.002-1.647.065-2.099a1.3 1.3 0 0 1 .096-.383c.05.013.148.052.318.16.374.237.863.654 1.6 1.288zm-4.465 1.855v-.071h-6.75a.75.75 0 0 1 0-1.5h6.75v-.071c0-.913 0-1.678.08-2.248.08-.563.273-1.224.926-1.54.664-.32 1.299-.043 1.775.259.479.303 1.051.795 1.729 1.377l.047.04.886.762.037.032c.4.343.759.652 1.01.939.274.313.51.698.51 1.2s-.236.887-.51 1.2c-.251.287-.61.595-1.01.939l-.038.032-.933.802c-.677.582-1.25 1.074-1.728 1.377-.476.302-1.111.579-1.775.258-.653-.315-.847-.976-.926-1.54-.08-.569-.08-1.335-.08-2.247" clip-rule="evenodd"/></svg>