<svg xmlns="http://www.w3.org/2000/svg" fill="none" viewBox="0 0 24 24"><path fill="currentColor" fill-rule="evenodd" d="M5.47 6.53a.75.75 0 0 1 1.06-1.06l6.985 6.985.033-.034.044-.043c.677-.677 1.244-1.245 1.727-1.605s1.108-.687 1.812-.432c.703.254.974.906 1.114 1.492.14.585.213 1.384.3 2.338l.005.061.113 1.242.005.051c.051.562.097 1.061.076 1.463-.022.435-.126.895-.494 1.264-.369.368-.829.472-1.264.494-.402.02-.901-.025-1.463-.076l-.05-.005-1.304-.118c-.954-.087-1.752-.16-2.338-.3s-1.238-.41-1.492-1.114c-.255-.704.072-1.33.432-1.812.36-.483.928-1.05 1.605-1.727l.079-.079zm11.153 5.225-.003-.004-.005.001-.03.007c-.065.02-.182.076-.369.216-.385.287-.875.775-1.607 1.507l-1.129 1.129c-.732.732-1.22 1.222-1.507 1.607-.14.187-.196.304-.216.369l-.007.03v.005l.003.003.025.018c.057.038.175.091.402.145.467.112 1.155.177 2.186.27l1.242.113c.629.058 1.02.091 1.302.077a1 1 0 0 0 .24-.036c.028-.01.034-.016.039-.02v-.001c.005-.005.011-.011.021-.04a1 1 0 0 0 .036-.24c.014-.281-.02-.672-.077-1.301l-.113-1.242c-.093-1.031-.158-1.72-.27-2.186-.054-.228-.107-.345-.144-.402z" clip-rule="evenodd"/></svg>