<svg xmlns="http://www.w3.org/2000/svg" fill="none" viewBox="0 0 24 24"><path fill="currentColor" d="M17.999 5.965c-.247-.228-.572-.355-.85-.435a6 6 0 0 0-.98-.184c-.698-.081-1.515-.101-2.28-.095a41 41 0 0 0-2.887.131l-.049.004-.013.002h-.005a.75.75 0 1 0 .13 1.494h.014l.045-.005a28 28 0 0 1 .803-.055 40 40 0 0 1 1.974-.07c.74-.007 1.487.013 2.094.084l.1.013L5.47 17.474a.75.75 0 1 0 1.06 1.06L17.158 7.907l.005.043c.07.6.091 1.35.086 2.1a42 42 0 0 1-.123 2.831l-.004.046-.001.014a.75.75 0 1 0 1.495.124v-.004l.001-.014.004-.05q.006-.065.014-.186a45 45 0 0 0 .113-2.749c.006-.773-.014-1.595-.095-2.286a6 6 0 0 0-.184-.968c-.078-.264-.211-.602-.47-.843"/></svg>