<svg xmlns="http://www.w3.org/2000/svg" fill="none" viewBox="0 0 24 24"><path fill="currentColor" fill-rule="evenodd" d="M2.555 6.104a.75.75 0 0 1-.159-1.049l.002-.002.005-.007.017-.022a17 17 0 0 1 .287-.376c.188-.24.447-.564.73-.89.28-.322.596-.663.898-.93.15-.132.314-.262.481-.363.147-.088.393-.215.684-.215s.537.127.684.215c.167.101.331.231.481.364.302.266.619.607.898.93a23 23 0 0 1 1.04 1.296.75.75 0 0 1-1.207.89l-.004-.006-.014-.019a14 14 0 0 0-.267-.35 21 21 0 0 0-.861-1.033V14.5c0 3.307 2.357 5.75 5.75 5.75a.75.75 0 0 1 0 1.5c-4.237 0-7.25-3.13-7.25-7.25V4.537q-.09.1-.18.205a21 21 0 0 0-.948 1.178l-.014.02-.004.005a.75.75 0 0 1-1.049.159m18.89 11.792a.75.75 0 0 1 .159 1.049l-.002.003-.005.006-.017.022-.062.084a23 23 0 0 1-.955 1.182c-.28.322-.596.663-.898.93-.15.132-.314.262-.481.363-.147.088-.393.215-.684.215s-.537-.127-.684-.215a3.5 3.5 0 0 1-.481-.363 10 10 0 0 1-.898-.93 23 23 0 0 1-.955-1.183l-.086-.114a.75.75 0 1 1 1.208-.89l.004.006.014.019.057.075a22 22 0 0 0 1.071 1.308V9.5c0-3.307-2.357-5.75-5.75-5.75a.75.75 0 0 1 0-1.5c4.237 0 7.25 3.13 7.25 7.25v9.963q.09-.1.18-.205a21 21 0 0 0 .948-1.178l.014-.02.004-.005a.75.75 0 0 1 1.049-.159" clip-rule="evenodd"/></svg>