<svg xmlns="http://www.w3.org/2000/svg" fill="none" viewBox="0 0 24 24"><path fill="currentColor" fill-rule="evenodd" d="M6.259 2.413c.364.044.613.072.752.074a.75.75 0 1 1-.022 1.5c-.236-.004-.58-.045-.91-.084l-.076-.01a28 28 0 0 0-1.176-.122l4.706 4.706a.75.75 0 1 1-1.06 1.06l-4.701-4.7.01.136a28 28 0 0 0 .12 1.107c.04.33.081.673.084.91a.75.75 0 1 1-1.5.02 9 9 0 0 0-.082-.832 27 27 0 0 1-.116-1.082 8 8 0 0 1-.023-1.214 2.8 2.8 0 0 1 .102-.58 1.4 1.4 0 0 1 .34-.596 1.4 1.4 0 0 1 .594-.339c.19-.057.39-.087.58-.102a8 8 0 0 1 1.215.023c.376.03.757.076 1.082.116zM16.53 7.47a.75.75 0 0 1 0 1.06l-8 8a.75.75 0 0 1-1.06-1.06l8-8a.75.75 0 0 1 1.06 0m-2.072 6.988a.75.75 0 0 1 1.06 0l4.71 4.71-.01-.14c-.03-.347-.072-.701-.111-1.031l-.01-.077c-.04-.33-.08-.673-.084-.91a.75.75 0 0 1 1.5-.02c.002.138.03.387.074.751l.01.08c.038.326.084.707.115 1.083.034.403.053.834.023 1.214a2.8 2.8 0 0 1-.102.58 1.4 1.4 0 0 1-.34.596 1.4 1.4 0 0 1-.595.339 2.8 2.8 0 0 1-.58.102c-.38.03-.811.01-1.214-.023-.376-.03-.757-.076-1.082-.116l-.08-.01a9 9 0 0 0-.753-.073.75.75 0 1 1 .022-1.5 10 10 0 0 1 .986.094c.33.04.684.082 1.03.11q.072.007.14.011l-4.71-4.71a.75.75 0 0 1 0-1.06" clip-rule="evenodd"/></svg>