<svg xmlns="http://www.w3.org/2000/svg" fill="none" viewBox="0 0 24 24"><path fill="currentColor" fill-rule="evenodd" d="M17.524 3.922c-.373.045-.753.09-1.013.094a.75.75 0 1 1-.021-1.5c.162-.002.448-.034.855-.083l.09-.01c.367-.045.793-.096 1.215-.131A9 9 0 0 1 20 2.267c.211.017.43.049.634.11.197.06.435.164.63.359s.299.433.358.63c.062.204.095.423.111.633.034.42.013.9-.025 1.352-.035.42-.086.847-.13 1.214l-.011.09c-.049.407-.08.694-.083.856a.75.75 0 1 1-1.5-.022c.004-.26.049-.64.094-1.013l.01-.086c.045-.371.093-.771.125-1.163q.016-.185.025-.358L4.776 20.243q.215-.01.451-.03c.392-.032.792-.08 1.163-.125l.086-.01a11 11 0 0 1 1.013-.094.75.75 0 1 1 .022 1.5c-.162.002-.449.034-.856.083l-.09.01c-.366.045-.793.096-1.214.131a9 9 0 0 1-1.352.025 3 3 0 0 1-.633-.11 1.5 1.5 0 0 1-.63-.359 1.5 1.5 0 0 1-.358-.63A3 3 0 0 1 2.267 20c-.034-.42-.012-.9.025-1.352.035-.42.086-.847.13-1.214l.011-.09c.05-.407.081-.694.083-.856a.75.75 0 0 1 1.5.022c-.003.26-.049.64-.093 1.013l-.01.086a28 28 0 0 0-.126 1.163q-.016.188-.025.362L19.229 3.757q-.218.01-.456.03c-.392.032-.792.08-1.163.125z" clip-rule="evenodd"/></svg>