<svg xmlns="http://www.w3.org/2000/svg" fill="none" viewBox="0 0 24 24"><path fill="currentColor" fill-rule="evenodd" d="M12.851 22.747s-1.73-.02-2.14-.32c-.47-.33-.64-.82-.89-1.55l-.09-.26c-.22-.66-.37-1.07-.76-1.32l-.31-.17c-.48-.24-1.06-.07-1.74.13l-.37.1c-.55.16-1.08.2-1.34.21-.45 0-.85-.22-1.07-.59l-1.65-2.74c-.23-.4-.23-.85-.02-1.22.12-.21.37-.61.73-1.01l.3-.32c.63-.65 1.01-1.08 1.01-1.7s-.38-1.04-1-1.68l-.31-.33c-.26-.28-.5-.61-.73-.99-.23-.4-.21-.88.02-1.25l1.64-2.72c.22-.39.64-.61 1.09-.59.24 0 .75.05 1.32.19l.4.11c.67.2 1.25.37 1.74.12l.31-.18c.36-.22.51-.63.73-1.28l.09-.28c.25-.73.42-1.22.89-1.55.43-.3 1.15-.33 2.29-.33.41 0 .75.34.75.75s-.34.75-.75.75-1.26 0-1.48.08c-.02.02-.16.42-.28.78l-.09.26c-.23.7-.52 1.56-1.39 2.09l-.37.21c-1.048.524-2.047.236-2.843.007l-.027-.007-.36-.1c-.32-.08-.62-.12-.83-.13l-1.47 2.44c.14.22.29.42.45.59l.29.3.023.023c.655.684 1.397 1.46 1.397 2.697 0 1.25-.76 2.05-1.43 2.74l-.28.3c-.2.21-.35.43-.44.59l1.47 2.45c.2-.02.5-.05.82-.14l.35-.1c.81-.24 1.82-.53 2.85-.02l.37.2c.9.57 1.18 1.399 1.43 2.138v.002l.08.25c.12.36.26.76.33.81.14.04.91.05 1.32.04h.1c.41 0 .75.34.75.75s-.34.77-.75.77zM13 16.25A4.26 4.26 0 0 1 8.75 12 4.26 4.26 0 0 1 13 7.75c.41 0 .75.34.75.75s-.34.75-.75.75c-1.52 0-2.75 1.23-2.75 2.75s1.23 2.75 2.75 2.75c.41 0 .75.34.75.75s-.34.75-.75.75m3-8.5h2c.2 0 .39-.08.53-.22l1.33-1.33a1.498 1.498 0 0 0 1.89-1.45c0-.83-.67-1.5-1.5-1.5a1.498 1.498 0 0 0-1.45 1.89l-1.11 1.11H16c-.41 0-.75.34-.75.75s.34.75.75.75m4.25 13a1.498 1.498 0 0 1-1.45-1.89l-1.11-1.11H16c-.41 0-.75-.34-.75-.75s.34-.75.75-.75h2c.2 0 .39.08.53.22l1.33 1.33a1.498 1.498 0 0 1 1.89 1.45c0 .83-.67 1.5-1.5 1.5m-1.3-8c.26.45.75.75 1.3.75.83 0 1.5-.67 1.5-1.5s-.67-1.5-1.5-1.5c-.56 0-1.04.3-1.3.75H16c-.41 0-.75.34-.75.75s.34.75.75.75z" clip-rule="evenodd"/></svg>