<svg xmlns="http://www.w3.org/2000/svg" fill="none" viewBox="0 0 24 24"><path fill="currentColor" fill-rule="evenodd" d="M13.987 21.065c1.198.456 2.323.683 3.327.683 1.333 0 2.453-.4 3.244-1.19 2.58-2.582.844-8.362-3.952-13.159a23 23 0 0 0-1.884-1.688.75.75 0 0 0-.937 1.171 22 22 0 0 1 1.761 1.578c2.061 2.061 3.588 4.394 4.298 6.57.644 1.972.518 3.601-.347 4.466-.949.95-2.763 1.011-4.976.167a.75.75 0 0 0-.534 1.402m-4.7-2.77a.75.75 0 0 0 .467.164l.001.001a.75.75 0 0 0 .47-1.336 22 22 0 0 1-1.762-1.578c-2.06-2.06-3.588-4.394-4.298-6.569-.645-1.973-.518-3.602.347-4.467.88-.88 2.54-.996 4.554-.318a.75.75 0 1 0 .478-1.422c-2.612-.879-4.775-.638-6.093.68-2.58 2.581-.845 8.36 3.951 13.157a23 23 0 0 0 1.884 1.688m-2.6 3.45c-1.308 0-2.429-.384-3.238-1.192-1.317-1.317-1.558-3.481-.679-6.093a.75.75 0 1 1 1.422.478c-.678 2.015-.562 3.675.318 4.555.865.865 2.493.99 4.466.347 2.175-.71 4.508-2.237 6.57-4.298a22 22 0 0 0 1.281-1.4.75.75 0 1 1 1.151.963 23 23 0 0 1-1.37 1.497c-3.296 3.294-7.054 5.145-9.92 5.145zm-.084-11.62a.75.75 0 0 1-.575-1.232c.426-.508.887-1.012 1.372-1.498C12.197 2.599 17.976.863 20.557 3.443c1.226 1.227 1.52 3.22.83 5.613a.75.75 0 0 1-1.443-.417c.532-1.844.373-3.313-.449-4.136-.865-.865-2.493-.991-4.467-.347-2.175.71-4.507 2.237-6.569 4.298-.453.454-.885.925-1.283 1.4a.75.75 0 0 1-.575.269zm4.715 5.33a.75.75 0 0 1-.571-1.236l1.246-1.465h-.675c-.513 0-.997 0-1.282-.463-.336-.545.026-1.018.291-1.364l.001-.002.028-.035 1.751-2.07a.75.75 0 1 1 1.145.97l-1.24 1.465h.68c.512 0 .996 0 1.281.463.338.547-.028 1.022-.295 1.37l-.02.025-.007.008-1.762 2.07a.75.75 0 0 1-.57.264" clip-rule="evenodd"/></svg>