<svg xmlns="http://www.w3.org/2000/svg" fill="none" viewBox="0 0 24 24"><path fill="currentColor" fill-rule="evenodd" d="M10.943 2.25h2.114c2.073 0 3.705 0 4.98.171 1.31.176 2.354.545 3.175 1.367.822.821 1.19 1.866 1.367 3.174.171 1.276.171 2.908.171 4.981v.114c0 2.073 0 3.705-.171 4.98-.176 1.31-.545 2.354-1.367 3.175-.821.822-1.866 1.19-3.174 1.367-1.276.171-2.908.171-4.981.171h-2.114c-2.073 0-3.705 0-4.98-.171-1.31-.176-2.354-.545-3.175-1.367-.822-.821-1.19-1.866-1.367-3.174-.171-1.276-.171-2.908-.171-4.981v-.114c0-2.073 0-3.705.171-4.98.176-1.31.545-2.354 1.367-3.175.821-.822 1.866-1.19 3.174-1.367 1.276-.171 2.908-.171 4.981-.171m-4.78 1.658c-1.143.154-1.818.444-2.315.94-.496.497-.786 1.172-.94 2.314C2.752 8.326 2.75 9.857 2.75 12s.002 3.674.158 4.838c.154 1.142.444 1.817.94 2.314.497.496 1.172.786 2.314.94 1.164.156 2.695.158 4.838.158h2c2.143 0 3.674-.002 4.838-.158 1.142-.154 1.817-.444 2.314-.94.496-.497.786-1.172.94-2.314.156-1.164.158-2.696.158-4.838s-.002-3.674-.158-4.838c-.154-1.142-.444-1.817-.94-2.314-.497-.496-1.172-.786-2.314-.94-1.164-.156-2.696-.158-4.838-.158h-2c-2.143 0-3.674.002-4.838.158m9 4.342H16.5a2.25 2.25 0 0 1 1.077 4.226l.594 1.189a.75.75 0 1 1-1.342.67l-.793-1.585H14.75V14a.75.75 0 0 1-1.5 0v-3.837c0-.25 0-.507.029-.721.033-.247.116-.546.366-.797.25-.25.55-.333.797-.366.214-.03.47-.03.72-.029m-.413 3h1.75a.75.75 0 0 0 0-1.5h-1.3a15 15 0 0 0-.444.006l-.004.089c-.002.097-.002.21-.002.355zm-6.31-.855.06-.136.061.136 1.755 3.912a.75.75 0 1 0 1.368-.614L9.93 9.781l-.02-.044c-.145-.324-.285-.637-.427-.863-.132-.211-.432-.624-.983-.624s-.85.413-.983.624c-.141.226-.281.539-.427.863l-.02.044-1.754 3.912a.75.75 0 1 0 1.369.614z" clip-rule="evenodd"/></svg>