<svg xmlns="http://www.w3.org/2000/svg" fill="none" viewBox="0 0 24 24"><path fill="currentColor" d="M11.997 22.26H12q.764 0 1.442-.003a1 1 0 0 0 .121 0c3.393-.02 5.26-.171 6.676-1.378.24-.2.44-.41.64-.64 1.38-1.62 1.38-3.83 1.38-8.24s0-6.62-1.38-8.24c-.2-.24-.41-.44-.64-.64-1.62-1.38-3.83-1.38-8.24-1.38s-6.62 0-8.24 1.38c-.24.2-.44.41-.64.64-1.38 1.62-1.38 3.83-1.38 8.24s0 6.62 1.38 8.24c.2.24.41.44.64.64 1.62 1.38 3.84 1.38 8.24 1.38m.001-1.52c-.796 0-1.513 0-2.162-.009L20.73 9.828c.008.652.008 1.372.008 2.171v1.21l-7.53 7.529zm7.26-1.02c-.805.684-1.986.91-3.894.983l5.338-5.338c-.074 1.908-.299 3.088-.984 3.894-.14.17-.29.32-.46.46M10.806 3.26h1.192q1.198-.002 2.173.007L3.266 14.181c-.008-.654-.008-1.378-.008-2.182l.001-1.192zm-2.154.035L3.294 8.653c.073-1.92.297-3.105.984-3.914.14-.17.29-.32.46-.46.81-.687 1.991-.912 3.914-.984m10.265.735L4.029 18.918c-.402-.645-.594-1.5-.686-2.693L16.215 3.343c1.197.092 2.055.284 2.702.687M5.09 19.976 19.975 5.092c.398.646.588 1.501.68 2.691L7.792 20.656c-1.195-.09-2.054-.281-2.7-.68"/></svg>