<svg xmlns="http://www.w3.org/2000/svg" fill="none" viewBox="0 0 24 24"><path fill="currentColor" fill-rule="evenodd" d="M20.422 3.715c-1.093-.573-2.555-.912-4.07-.402-2.32-2.75-6.384-2.75-8.704 0-1.515-.51-2.977-.171-4.07.402l-.076.04c-.435.227-.94.49-1.167 1.156-.124.366-.1.702-.007 1.021.078.267.216.555.352.84l.02.04 4.407 9.206c.224.47.283.6.308.706.001.008.006.04.013.11.007.083.013.194.02.342.012.296.021.707.035 1.268.026 1.116.402 2.2 1.18 3.01.786.82 1.922 1.296 3.337 1.296s2.551-.476 3.338-1.295c.778-.811 1.153-1.895 1.18-3.011.013-.561.022-.972.035-1.268q.008-.22.02-.341a1 1 0 0 1 .012-.11v-.001c.026-.106.084-.237.308-.706l4.408-9.207.019-.04c.136-.284.274-.572.352-.839.093-.32.117-.655-.007-1.021l-.71.241.71-.241c-.227-.666-.732-.93-1.167-1.156zm-9.938 7.713L8.826 4.243c1.718-1.99 4.63-1.99 6.349 0l-1.658 7.182a1 1 0 0 0-.076.073c-.488.543-.996.752-1.442.752s-.955-.21-1.443-.752a1 1 0 0 0-.072-.07m-1.438.437L7.422 4.831c-1.119-.476-2.244-.262-3.146.212-.13.068-.225.119-.306.165s-.127.078-.156.101a.2.2 0 0 0-.036.035.2.2 0 0 0-.022.05l-.002.003c-.004.011-.011.03.014.115.04.134.121.31.284.652l2.606 5.442c.456.463.926.644 1.34.644.327 0 .687-.112 1.048-.385m-1.37 1.867q.16.018.323.018c.489 0 .962-.12 1.402-.344l.656 2.844H8.84c-.075-.243-.197-.497-.347-.81l-.033-.07zm3.303-.161a3.02 3.02 0 0 0 2.043-.001l-.618 2.68h-.807zm3.62-.164-.656 2.843h1.218c.074-.243.196-.497.346-.81l.033-.07.785-1.638a3.1 3.1 0 0 1-1.725-.325m2.746-1.806 2.603-5.437c.163-.341.245-.518.284-.652.025-.086.018-.104.014-.115l-.002-.003a.2.2 0 0 0-.022-.05.2.2 0 0 0-.036-.035 1 1 0 0 0-.156-.1 10 10 0 0 0-.306-.166c-.902-.474-2.027-.688-3.146-.212l-1.623 7.036c.36.271.718.383 1.044.383.416 0 .888-.183 1.346-.649m-8.38 6.149.016.65v.008c.02.81.289 1.514.763 2.008.466.486 1.19.834 2.255.834s1.79-.348 2.255-.834c.474-.494.743-1.197.763-2.008v-.011l.016-.647z" clip-rule="evenodd"/></svg>