<svg xmlns="http://www.w3.org/2000/svg" fill="none" viewBox="0 0 24 24"><path fill="currentColor" fill-rule="evenodd" d="M2.75 3.5a.75.75 0 0 0-1.5 0v17a.75.75 0 0 0 1.5 0v-4.25h2.5v.25c0 .43.021.826.097 1.172.078.353.223.7.502.979.28.28.626.424.98.502.345.076.741.097 1.171.097h9c.43 0 .826-.021 1.172-.097.353-.078.7-.223.979-.502.28-.28.424-.626.502-.98.076-.345.097-.741.097-1.171v-.25h1.5v4.25a.75.75 0 0 0 1.5 0v-12a.75.75 0 0 0-1.5 0v1.25H7.718c.024-.195.038-.398.027-.596a2.81 2.81 0 0 0-1.192-2.158 2.8 2.8 0 0 0-.636-.3 9 9 0 0 0-.715-.212l-.1-.026c-.586-.153-1.097-.287-1.678-.153a2.3 2.3 0 0 0-.674.277zm.318 4.696a1 1 0 0 1 .1-.08c.336-.258.474-.322.591-.35.184-.042.33-.02 1.065.17.223.058.43.118.598.177q.126.044.204.08.073.034.074.037c.312.215.523.586.547 1.008a2 2 0 0 1-.047.512h-.023zM2.75 14.75h2.5v-3.786l-2.5-1.25zm4 .75v-4.25h11.5v5.25c0 .397-.022.665-.062.85-.04.176-.084.226-.098.24s-.064.059-.24.098c-.185.04-.453.062-.85.062H8c-.397 0-.665-.022-.85-.062-.176-.04-.227-.084-.24-.098-.014-.014-.059-.064-.098-.24-.04-.185-.062-.453-.062-.85zm14.5-4.25h-1.5v3.5h1.5z" clip-rule="evenodd"/></svg>