<svg xmlns="http://www.w3.org/2000/svg" fill="none" viewBox="0 0 24 24"><path fill="currentColor" fill-rule="evenodd" d="M2.25 5.75H2a.75.75 0 0 1 0-1.5h6.648q.078-.185.218-.36c.223-.271.501-.421.786-.506q-.023-.075-.051-.15c-.114-.294-.266-.478-.436-.563a.75.75 0 0 1 .67-1.342c.63.315.978.88 1.164 1.363.073.188.127.378.166.558h1.67c.039-.18.093-.37.166-.558.186-.482.534-1.048 1.164-1.363a.75.75 0 1 1 .67 1.342c-.17.085-.322.27-.436.562q-.028.075-.051.15c.285.086.563.236.785.508q.141.173.219.36H22a.75.75 0 0 1 0 1.5h-.25v2.5H22a.75.75 0 0 1 0 1.5h-.25v11.5H22a.75.75 0 1 1 0 1.5H2a.75.75 0 0 1 0-1.5h.25V9.75H2a.75.75 0 0 1 0-1.5h.25zm1.5 15.5V9.75h1.5v11.5zm3 0V9.75h.86q.338.001.64-.004V21.25zm3 0V9.75h4.5v11.5zm6 0V9.746q.302.005.64.004h.86v11.5zm3 0V9.75h1.5v11.5zm-12.753-13H3.75v-2.5h4.842q.061.347.141.74l.01.05.043.215c.115.576.184.929.198 1.185a.8.8 0 0 1-.01.218l-.011.005a.8.8 0 0 1-.202.049c-.254.036-.613.038-1.2.038zm12 0H16.44c-.588 0-.947-.002-1.202-.038a.8.8 0 0 1-.2-.049l-.008-.003-.003-.002-.002-.005-.001-.006a.8.8 0 0 1-.008-.207c.014-.256.083-.609.198-1.185l.053-.265c.052-.261.102-.51.14-.74h4.843v2.5zm-4.479-.393q-.012.193.006.393h-3.048q.018-.2.006-.393c-.02-.376-.113-.836-.215-1.347l-.01-.05-.043-.215c-.115-.576-.184-.929-.198-1.185a.8.8 0 0 1 .01-.218l.006-.003.005-.002a.8.8 0 0 1 .201-.049c.255-.036.614-.038 1.202-.038h1.12c.588 0 .947.002 1.201.038a.8.8 0 0 1 .202.049l.006.003.004.002.003.011a.8.8 0 0 1 .008.207c-.014.256-.083.609-.198 1.185l-.053.265c-.102.511-.194.97-.215 1.347" clip-rule="evenodd"/></svg>