<svg xmlns="http://www.w3.org/2000/svg" fill="none" viewBox="0 0 24 24"><path fill="currentColor" fill-rule="evenodd" d="M8.247 3.64c.095-.055.17-.097.234-.132l.01-.006c.076.07.174.168.314.308 1.752 1.748 4.64 1.748 6.392 0 .14-.14.238-.237.314-.307l.01.005.234.131 1.725.98.237.136.013.008c-.024.106-.06.247-.113.45-.61 2.349.864 4.785 3.199 5.415.195.053.331.09.432.12v.014c.002.074.002.161.002.272v1.933c0 .11 0 .197-.002.272v.013c-.1.03-.237.068-.432.12-2.335.63-3.807 3.067-3.197 5.416.053.202.089.344.113.45l-.014.008c-.064.038-.14.081-.237.136l-1.725.98c-.095.053-.17.096-.234.13l-.01.006c-.075-.07-.174-.168-.313-.307-1.753-1.75-4.643-1.75-6.396 0-.14.14-.238.237-.314.307l-.01-.005-.234-.131-1.724-.98-.238-.136-.013-.008c.024-.106.06-.248.113-.45.61-2.349-.864-4.786-3.199-5.415a15 15 0 0 1-.432-.121v-.013l-.002-.272v-1.933l.001-.272v-.013c.102-.031.238-.068.433-.121 2.335-.63 3.81-3.066 3.2-5.415a15 15 0 0 1-.112-.45l.013-.008.237-.137zm.455-1.69a1.27 1.27 0 0 0-.687.115 6 6 0 0 0-.484.256l-.025.014-1.724.979-.026.014a6 6 0 0 0-.474.289 1.27 1.27 0 0 0-.456.536c-.123.292-.084.586-.054.756.031.185.09.41.153.653l.007.028c.397 1.526-.571 3.167-2.138 3.59l-.028.007a9 9 0 0 0-.633.187c-.162.059-.434.17-.625.42a1.27 1.27 0 0 0-.241.659c-.017.164-.017.36-.017.552v1.991c0 .191 0 .388.017.552.018.178.065.43.24.66.192.25.464.36.626.419.174.063.396.123.633.186l.028.008c1.566.422 2.533 2.064 2.137 3.59l-.007.028a9 9 0 0 0-.154.652c-.03.17-.069.464.054.756.113.268.31.433.456.537.135.096.307.193.475.288L7.53 21.68c.164.093.333.19.483.255.163.072.403.155.688.117.309-.042.538-.22.67-.33.14-.118.3-.279.471-.45l.02-.02c1.168-1.164 3.11-1.164 4.277 0l.02.02c.171.171.332.332.472.45.132.11.36.288.67.33a1.27 1.27 0 0 0 .688-.117c.15-.066.319-.162.483-.255l1.775-1.008c.167-.095.34-.192.474-.288.146-.104.343-.27.456-.537.124-.292.084-.586.054-.756-.031-.184-.09-.41-.153-.653l-.007-.027c-.397-1.527.57-3.168 2.135-3.59l.028-.008c.237-.063.46-.123.633-.186.162-.06.434-.17.625-.42a1.27 1.27 0 0 0 .241-.66c.017-.163.017-.36.017-.551v-1.991c0-.191 0-.388-.017-.552a1.27 1.27 0 0 0-.24-.66c-.192-.25-.464-.36-.626-.419a9 9 0 0 0-.633-.187l-.028-.007c-1.566-.423-2.533-2.064-2.137-3.59l.007-.028c.063-.242.122-.468.154-.652.03-.17.069-.465-.054-.757a1.27 1.27 0 0 0-.456-.536 6 6 0 0 0-.475-.289l-1.774-1.007a6 6 0 0 0-.484-.256 1.27 1.27 0 0 0-.687-.116c-.31.042-.539.22-.67.33a8 8 0 0 0-.472.449l-.02.02c-1.167 1.164-3.107 1.164-4.274 0l-.02-.02c-.171-.17-.332-.331-.472-.449-.132-.11-.36-.288-.67-.33M12.75 7.5a.75.75 0 0 0-1.5 0v.75H9a.75.75 0 0 0 0 1.5h.375v4.5H9a.75.75 0 0 0 0 1.5h2.25v.75a.75.75 0 0 0 1.5 0v-.75h1.125c1.036 0 1.875-.84 1.875-1.875v-.75c0-.422-.14-.812-.375-1.125.236-.313.375-.703.375-1.125v-.75c0-1.036-.84-1.875-1.875-1.875H12.75zm-1.875 3.75v-1.5h3c.207 0 .375.168.375.375v.75a.375.375 0 0 1-.375.375zm0 1.5h3c.207 0 .375.168.375.375v.75a.375.375 0 0 1-.375.375h-3z" clip-rule="evenodd"/></svg>