<svg xmlns="http://www.w3.org/2000/svg" fill="none" viewBox="0 0 24 24"><path fill="currentColor" fill-rule="evenodd" d="M11.137 3.1c.649-.315.761-.35.863-.35s.214.035.863.35l4.695 2.271c1.06.514 1.78.864 2.243 1.177.462.312.45.443.449.452v10c0 .01.013.14-.449.452-.463.313-1.182.663-2.243 1.177l-4.695 2.272c-.649.314-.761.349-.863.349s-.214-.035-.863-.35l-4.695-2.27c-1.06-.514-1.78-.864-2.243-1.177-.462-.312-.45-.443-.449-.452V7c0-.01-.013-.14.449-.452.463-.313 1.182-.663 2.244-1.177zM12 1.25c-.491 0-.935.216-1.414.449l-.103.05L5.79 4.02l-.057.027c-.99.48-1.809.876-2.373 1.257-.566.383-1.11.903-1.11 1.696v10c0 .793.544 1.313 1.11 1.695.563.381 1.382.777 2.372 1.257l4.751 2.3.103.05c.48.232.923.448 1.414.448s.935-.216 1.414-.449l.103-.05 4.75-2.3c.991-.479 1.81-.875 2.374-1.256.565-.382 1.109-.902 1.109-1.695V7c0-.793-.544-1.313-1.11-1.695-.563-.381-1.382-.777-2.372-1.257l-4.751-2.3-.103-.05c-.48-.232-.923-.448-1.414-.448m-.454 4.715c.207-.104.318-.16.404-.195l.05-.018.05.018c.086.035.197.09.404.195l3.129 1.59c.715.364 1.174.6 1.464.805.087.062.14.108.172.14a1.4 1.4 0 0 1-.172.14c-.29.206-.749.44-1.464.804l-3.13 1.59a6 6 0 0 1-.403.196l-.05.018-.05-.018a6 6 0 0 1-.404-.195l-3.129-1.59c-.715-.364-1.174-.6-1.464-.805a1.4 1.4 0 0 1-.172-.14 1.4 1.4 0 0 1 .172-.14c.29-.206.749-.44 1.464-.804zm4.77 4.79c.339-.173.654-.333.934-.487v5.198a1 1 0 0 1-.203.174c-.29.205-.749.44-1.464.804l-2.833 1.44v-5.323q.175-.082.36-.178zm.947 4.69-.006.011zm-8.846 1 2.833 1.439v-5.323q-.175-.082-.36-.178l-3.153-1.601-.052-.027c-.34-.173-.655-.333-.935-.487v5.198c.022.027.077.084.203.174.29.205.749.44 1.464.804m-1.68-1 .006.011zm12.013.055v-7c0-.656-.435-1.08-.835-1.363-.392-.278-.952-.563-1.6-.892l-3.204-1.628a6 6 0 0 0-.503-.239A1.6 1.6 0 0 0 12 4.25a1.6 1.6 0 0 0-.608.128c-.155.062-.327.15-.503.239l-.022.011-3.13 1.59-.052.027c-.648.33-1.208.614-1.6.892-.4.284-.835.707-.835 1.363v7c0 .657.435 1.08.835 1.363.392.278.952.563 1.6.892l3.182 1.617.022.011c.176.09.348.177.503.239.175.07.375.128.608.128s.433-.058.608-.128c.155-.062.328-.15.503-.239l3.204-1.628c.648-.33 1.208-.614 1.6-.892.4-.284.835-.706.835-1.363" clip-rule="evenodd"/></svg>