<svg xmlns="http://www.w3.org/2000/svg" fill="none" viewBox="0 0 24 24"><path fill="currentColor" fill-rule="evenodd" d="M12.057 1.75h-.114c-2.19 0-3.912 0-5.255.18-1.377.186-2.469.573-3.327 1.43-.858.86-1.245 1.951-1.43 3.328-.181 1.343-.181 3.064-.181 5.255v.114c0 2.19 0 3.912.18 5.255.186 1.377.573 2.469 1.43 3.327.86.858 1.951 1.245 3.328 1.43 1.343.181 3.064.181 5.255.181h.114c2.19 0 3.912 0 5.255-.18 1.377-.186 2.469-.573 3.327-1.43.858-.86 1.245-1.951 1.43-3.328.181-1.343.181-3.064.181-5.255v-.114c0-2.19 0-3.912-.18-5.255-.186-1.377-.573-2.469-1.43-3.327-.86-.858-1.951-1.245-3.328-1.43-1.343-.181-3.064-.181-5.255-.181M4.422 4.422c.533-.533 1.256-.842 2.466-1.005C8.12 3.252 9.74 3.25 12 3.25s3.88.002 5.112.167c1.21.163 1.933.472 2.466 1.005s.842 1.256 1.005 2.466c.165 1.232.167 2.852.167 5.112s-.002 3.88-.167 5.112c-.163 1.21-.471 1.933-1.005 2.466s-1.256.842-2.466 1.005c-1.232.165-2.852.167-5.112.167s-3.88-.002-5.112-.167c-1.21-.163-1.933-.471-2.466-1.005s-.842-1.256-1.005-2.466C3.252 15.88 3.25 14.26 3.25 12s.002-3.88.167-5.112c.163-1.21.472-1.933 1.005-2.466m5.593.836c-.547-.011-1.209-.024-1.813.062-.825.117-1.718.432-2.334 1.284-.346.477-.488 1.022-.554 1.635-.064.591-.064 1.327-.064 2.227v2.593c0 1.132 0 2.057.098 2.786.102.763.323 1.425.85 1.953.526.529 1.187.751 1.948.854.728.098 1.65.098 2.777.098h3.763c1.487 0 2.658-.534 3.362-1.567.68-.999.828-2.325.606-3.731-.157-.996-.683-1.71-1.4-2.155a4 4 0 0 0-1.546-.534v-.296c0-.9 0-1.637-.064-2.228-.066-.613-.209-1.158-.554-1.635-.617-.852-1.51-1.167-2.334-1.284-.605-.086-1.266-.073-1.813-.062q-.252.005-.464.006-.212 0-.462-.006zM7.083 7.483c.284-.392.716-.591 1.33-.678.473-.067.957-.058 1.475-.048q.288.006.59.007.305-.001.591-.007c.52-.01 1.002-.02 1.477.048.613.087 1.045.286 1.329.678.13.18.225.43.278.917.054.501.055 1.156.055 2.109v.953c0 .414.335.75.75.75.597 0 1.124.123 1.505.36.356.22.622.56.71 1.114.188 1.197.021 2.087-.364 2.652-.363.532-1.01.912-2.123.912h-3.71c-1.194 0-2.014-.002-2.63-.085-.593-.08-.884-.223-1.086-.426s-.346-.495-.426-1.093c-.082-.618-.084-1.442-.084-2.64v-2.497c0-.953.001-1.608.055-2.109.053-.486.148-.738.278-.917M9.25 15a.75.75 0 0 1 .75-.75h4a.75.75 0 0 1 0 1.5h-4a.75.75 0 0 1-.75-.75m0-5a.75.75 0 0 1 .75-.75h1a.75.75 0 0 1 0 1.5h-1a.75.75 0 0 1-.75-.75" clip-rule="evenodd"/></svg>