<svg xmlns="http://www.w3.org/2000/svg" fill="none" viewBox="0 0 24 24"><path fill="currentColor" fill-rule="evenodd" d="M10.11 3.516a2.713 2.713 0 0 1 3.78 0c1.233 1.171 2.711 2.757 3.877 4.545 1.172 1.797 1.983 3.731 1.983 5.617 0 3.737-2.93 7.572-7.75 7.572s-7.75-3.835-7.75-7.572c0-1.886.811-3.82 1.983-5.617 1.166-1.788 2.644-3.374 3.878-4.545m4.812-1.088a4.213 4.213 0 0 0-5.844 0C7.798 3.644 6.229 5.32 4.976 7.242 3.73 9.155 2.75 11.38 2.75 13.678c0 4.468 3.507 9.072 9.25 9.072s9.25-4.604 9.25-9.072c0-2.298-.979-4.523-2.226-6.436-1.253-1.922-2.822-3.598-4.102-4.814m-2.834 8.394.863 1.73h-1.902l.863-1.73.088-.176zm1.998 4.022-.392-.791h-3.389l-.391.79-.242.49a.75.75 0 1 1-1.344-.666l.242-.489a1690 1690 0 0 1 2-4.027 172 172 0 0 1 .703-1.389 4 4 0 0 1 .089-.158A.76.76 0 0 1 12 8.25a.75.75 0 0 1 .592.289c.024.03.04.056.046.065l.034.056.055.102.165.32c.136.268.324.641.538 1.069a930 930 0 0 1 2 4.027l.242.49a.75.75 0 1 1-1.345.664z" clip-rule="evenodd"/></svg>