<svg xmlns="http://www.w3.org/2000/svg" fill="none" viewBox="0 0 24 24"><path fill="currentColor" fill-rule="evenodd" d="M15.043 3.767A17 17 0 0 0 14 3.75H3a.75.75 0 0 1 0-1.5h11.025c.445 0 .816 0 1.12.02.318.022.617.069.907.19a2.75 2.75 0 0 1 1.489 1.488c.12.29.167.59.188.907.021.304.021.675.021 1.12v.05c0 .445 0 .816-.02 1.12a2.8 2.8 0 0 1-.19.907 3 3 0 0 1-.09.198h.575c.445 0 .816 0 1.12.02.317.022.617.07.907.19a2.75 2.75 0 0 1 1.489 1.488c.12.29.167.59.188.907.021.304.021.675.021 1.12v.05c0 .445 0 .816-.02 1.12a2.8 2.8 0 0 1-.19.907 2.75 2.75 0 0 1-1.488 1.489c-.29.12-.59.167-.907.188q-.302.02-.696.02.05.097.092.199c.12.29.167.59.188.907.021.304.021.675.021 1.12v.05c0 .445 0 .816-.02 1.12a2.8 2.8 0 0 1-.19.907 2.75 2.75 0 0 1-1.488 1.489c-.29.12-.59.167-.907.188-.304.021-.675.021-1.12.021H3a.75.75 0 0 1 0-1.5h12c.476 0 .796 0 1.043-.017.241-.017.358-.046.435-.078.307-.127.55-.37.677-.677.032-.077.061-.194.078-.435.017-.247.017-.567.017-1.043s0-.796-.017-1.043c-.017-.241-.046-.358-.078-.435a1.25 1.25 0 0 0-.677-.677c-.077-.032-.194-.061-.435-.078A17 17 0 0 0 15 15.75h-1.252a7 7 0 0 1-.046.812c-.044.314-.173.905-.772 1.123-.593.216-1.073-.144-1.312-.353-.264-.23-.569-.58-.908-.969l-.035-.04-.481-.552-.194-.22q-.08.089-.194.22l-.481.552-.035.04c-.339.389-.644.738-.908.969-.239.209-.719.569-1.312.353-.6-.218-.728-.81-.772-1.123a7 7 0 0 1-.047-.855.8.8 0 0 1-.251.043H3a.75.75 0 0 1 0-1.5h3q.132 0 .25.043V9.75H3a.75.75 0 0 1 0-1.5h11c.476 0 .796 0 1.043-.017.241-.017.358-.046.435-.078.307-.127.55-.37.677-.677.032-.077.061-.194.078-.435.017-.247.017-.567.017-1.043s0-.796-.017-1.043c-.017-.241-.046-.358-.078-.435a1.25 1.25 0 0 0-.677-.677c-.077-.032-.194-.061-.435-.078M12.25 9.75h-4.5v5.44c0 .258 0 .47.003.647q.181-.201.44-.5l.482-.552.025-.028a5 5 0 0 1 .476-.502c.183-.158.454-.334.824-.334s.641.176.824.335c.158.136.321.323.476.5l.025.03.481.551c.175.2.319.365.44.5a38 38 0 0 0 .004-.646zm1.5 4.5v-4.5H18c.476 0 .796 0 1.043.017.241.017.358.046.435.078.307.127.55.37.677.677.032.077.061.194.078.435.017.247.017.567.017 1.043s0 .796-.017 1.043c-.017.241-.046.358-.078.435a1.25 1.25 0 0 1-.677.677c-.077.032-.194.061-.435.078-.247.017-.567.017-1.043.017z" clip-rule="evenodd"/></svg>