<svg xmlns="http://www.w3.org/2000/svg" fill="none" viewBox="0 0 24 24"><path fill="currentColor" fill-rule="evenodd" d="M15 3.75c.476 0 .796 0 1.043.017.241.017.358.046.435.078.307.127.55.37.677.677.032.077.061.194.078.435.017.247.017.567.017 1.043s0 .796-.017 1.043c-.017.241-.046.358-.078.435a1.25 1.25 0 0 1-.677.677c-.077.032-.194.061-.435.078-.247.017-.567.017-1.043.017H5.211c.347-.638.539-1.423.539-2.25s-.192-1.612-.539-2.25zM2 8.25h1c.224 0 .518-.136.79-.545.27-.403.46-1.004.46-1.705s-.19-1.302-.46-1.705c-.272-.409-.566-.545-.79-.545H2a.75.75 0 0 1 0-1.5h13.025c.445 0 .816 0 1.12.02.317.022.617.069.907.19a2.75 2.75 0 0 1 1.489 1.488c.12.29.167.59.188.907.021.304.021.675.021 1.12v.05c0 .445 0 .816-.02 1.12a2.8 2.8 0 0 1-.19.907 3 3 0 0 1-.09.198H22a.75.75 0 0 1 0 1.5h-1c-.224 0-.518.136-.79.545-.27.403-.46 1.004-.46 1.705s.19 1.302.46 1.705c.272.41.566.545.79.545h1a.75.75 0 0 1 0 1.5h-3.55q.049.096.09.198c.121.29.168.59.19.907.02.304.02.675.02 1.12v.05c0 .445 0 .816-.02 1.12a2.8 2.8 0 0 1-.19.907 2.75 2.75 0 0 1-1.488 1.489c-.29.12-.59.167-.907.188-.304.021-.675.021-1.12.021H2a.75.75 0 0 1 0-1.5h1c.224 0 .518-.136.79-.545.27-.403.46-1.004.46-1.705s-.19-1.302-.46-1.705c-.272-.41-.566-.545-.79-.545H2a.75.75 0 0 1 0-1.5h3.551a3 3 0 0 1-.092-.198c-.12-.29-.167-.59-.188-.907-.021-.304-.021-.675-.021-1.12v-.05c0-.445 0-.816.02-1.12.022-.318.07-.617.19-.907q.041-.102.09-.198H2a.75.75 0 0 1 0-1.5m3.211 7.5c.347.638.539 1.423.539 2.25s-.192 1.612-.539 2.25H15c.476 0 .796 0 1.043-.017.241-.017.358-.046.435-.078.307-.127.55-.37.677-.677.032-.077.061-.194.078-.435.017-.247.017-.567.017-1.043s0-.796-.017-1.043c-.017-.241-.046-.358-.078-.435a1.25 1.25 0 0 0-.677-.677c-.077-.032-.194-.061-.435-.078A17 17 0 0 0 15 15.75zm13.578-6H9c-.476 0-.796 0-1.043.017-.241.017-.358.046-.435.078a1.25 1.25 0 0 0-.677.677c-.032.077-.061.194-.078.435-.017.247-.017.567-.017 1.043s0 .796.017 1.043c.017.241.046.358.078.435.127.307.37.55.677.677.077.032.194.061.435.078.247.017.567.017 1.043.017h9.789c-.347-.638-.539-1.423-.539-2.25s.192-1.612.539-2.25" clip-rule="evenodd"/></svg>