<svg xmlns="http://www.w3.org/2000/svg" fill="none" viewBox="0 0 24 24"><path fill="currentColor" fill-rule="evenodd" d="M10.094 1.755q.88-.006 1.904-.005h.004q1.023-.001 1.904.005a.75.75 0 1 1-.012 1.5q-.543-.004-1.144-.005v8h2.1a.75.75 0 0 1 0 1.5h-2.1v8q.601 0 1.144-.005a.75.75 0 0 1 .012 1.5q-.88.006-1.904.005h-.004q-1.023.001-1.904-.005a.75.75 0 1 1 .013-1.5q.542.004 1.143.005v-8h-2.1a.75.75 0 0 1 0-1.5h2.1v-8q-.601 0-1.144.005a.75.75 0 0 1-.012-1.5m-3.057.86a.75.75 0 0 1-.6.874c-.943.175-1.55.468-2.015.933-.465.464-.758 1.072-.933 2.015a.75.75 0 0 1-1.475-.274c.211-1.135.602-2.058 1.347-2.802.744-.745 1.667-1.136 2.802-1.347a.75.75 0 0 1 .874.6m9.926 0a.75.75 0 0 1 .874-.6c1.135.21 2.058.601 2.802 1.346.745.744 1.136 1.667 1.347 2.802a.75.75 0 1 1-1.475.274c-.175-.943-.468-1.55-.933-2.015-.464-.465-1.072-.758-2.015-.933a.75.75 0 0 1-.6-.875M2.51 9.35a.75.75 0 0 1 .744.756q-.004.543-.005 1.144H4.4a.75.75 0 0 1 0 1.5H3.25q0 .601.005 1.144a.75.75 0 1 1-1.5.012q-.006-.88-.005-1.904v-.004q-.001-1.023.005-1.904a.75.75 0 0 1 .756-.744m18.978 0a.75.75 0 0 1 .756.744q.006.88.005 1.904v.004q.001 1.024-.005 1.904a.75.75 0 1 1-1.5-.012q.004-.543.005-1.144H19.6a.75.75 0 0 1 0-1.5h1.15q0-.601-.005-1.144a.75.75 0 0 1 .744-.756M2.614 16.963a.75.75 0 0 1 .875.6c.175.943.468 1.55.933 2.015.464.465 1.072.758 2.015.933a.75.75 0 0 1-.274 1.475c-1.135-.211-2.058-.602-2.802-1.347-.745-.744-1.136-1.667-1.347-2.802a.75.75 0 0 1 .6-.874m18.772 0a.75.75 0 0 1 .6.874c-.211 1.135-.602 2.058-1.347 2.802-.744.745-1.667 1.136-2.802 1.347a.75.75 0 1 1-.274-1.475c.943-.175 1.55-.468 2.015-.933.465-.464.758-1.072.933-2.015a.75.75 0 0 1 .875-.6" clip-rule="evenodd"/></svg>