<svg xmlns="http://www.w3.org/2000/svg" fill="none" viewBox="0 0 24 24"><path fill="currentColor" fill-rule="evenodd" d="M7.5 2.75c-.858 0-1.47.764-1.31 1.552l.43 2.109c.133.657.173 1.266.143 1.839h1.474c-.03-.573.01-1.182.144-1.839l.43-2.11C8.97 3.515 8.357 2.75 7.5 2.75m.983 7H6.517c-.11.4-.25.786-.41 1.16-.271.64-.602 1.253-.927 1.85l-.07.126c-.306.561-.607 1.112-.88 1.7a5.16 5.16 0 0 0-.376 3.203c.109.534.241 1.18.43 1.792.195.629.423 1.122.673 1.406.215.243.499.263 1.283.263h2.52c.784 0 1.068-.02 1.283-.264.25-.283.478-.776.672-1.405.19-.611.322-1.258.431-1.792.22-1.08.089-2.2-.376-3.203-.273-.588-.574-1.139-.88-1.7l-.07-.126c-.325-.597-.656-1.21-.928-1.85-.16-.374-.3-.76-.41-1.16M4.72 4.601C4.364 2.852 5.726 1.25 7.5 1.25s3.136 1.602 2.78 3.351l-.43 2.11c-.284 1.4-.046 2.512.423 3.612.24.563.537 1.118.864 1.718l.073.133c.302.554.626 1.146.92 1.78.6 1.294.77 2.74.486 4.134l-.003.015c-.107.524-.252 1.235-.465 1.922-.209.675-.511 1.423-.98 1.954-.694.786-1.676.777-2.275.772l-.133-.001H6.107c-.599.006-1.58.015-2.274-.77-.47-.532-.772-1.28-.981-1.955-.213-.687-.358-1.398-.465-1.922l-.003-.015a6.66 6.66 0 0 1 .486-4.133c.294-.635.618-1.227.92-1.78l.073-.134c.328-.6.625-1.155.865-1.718.468-1.1.706-2.212.421-3.613zm8.093 6.625a5.25 5.25 0 1 1 .874 9.859.75.75 0 0 0-.374 1.452 6.75 6.75 0 1 0-1.126-12.675.75.75 0 0 0 .626 1.364m3.682 1.024a.75.75 0 0 0 0 1.5h.01a.75.75 0 0 0 0-1.5zm-1.495 2a.75.75 0 0 0 0 1.5h.009a.75.75 0 0 0 0-1.5zm2.991 0a.75.75 0 0 0 0 1.5H18a.75.75 0 0 0 0-1.5z" clip-rule="evenodd"/></svg>