<svg xmlns="http://www.w3.org/2000/svg" fill="none" viewBox="0 0 24 24"><path fill="currentColor" fill-rule="evenodd" d="M4.796 2.25h14.408c.248 0 .473 0 .66.014.197.014.418.047.637.15.466.216.81.628.946 1.122.064.232.06.455.041.653a10 10 0 0 1-.095.656l-.004.024-.013.08c-.05.311-.104.639-.259.913a2 2 0 0 1-.201.286c1.076 2.14 1.834 3.925 1.834 6.552v5.117c0 .65 0 1.214-.062 1.666-.067.486-.217.953-.602 1.33-.234.23-.536.385-.825.496a5.7 5.7 0 0 1-.989.265c-.703.13-1.525.183-2.326.175a13 13 0 0 1-2.296-.21 6 6 0 0 1-.95-.26c-.27-.102-.563-.247-.786-.466-.816-.8-.774-1.927-.72-2.705l.03-.39c.022-.275.042-.521.045-.771.003-.35-.034-.602-.112-.787-.107-.254-.326-.524-.65-.837a15 15 0 0 0-.501-.456l-.004-.003-.002-.002-.002.002-.004.003c-.177.156-.344.304-.5.456-.325.313-.544.583-.65.837-.08.185-.116.437-.113.787.003.25.023.496.045.77v.001l.03.39c.054.778.096 1.905-.72 2.705-.234.23-.536.385-.825.496a5.7 5.7 0 0 1-.989.265c-.703.13-1.525.183-2.326.175a13 13 0 0 1-2.296-.21 6 6 0 0 1-.95-.26c-.27-.102-.563-.247-.786-.466-.385-.377-.535-.844-.602-1.33-.062-.452-.062-1.015-.062-1.666V12.7c0-2.627.758-4.412 1.834-6.552a2 2 0 0 1-.201-.286c-.155-.274-.209-.602-.26-.912l-.012-.08-.004-.024a10 10 0 0 1-.095-.657 1.8 1.8 0 0 1 .041-.653c.135-.494.48-.906.946-1.123.219-.102.44-.135.638-.15.186-.013.411-.013.659-.013m14.465 4.5.277-.002c1.07 2.121 1.712 3.653 1.712 5.952v5.067c0 .715-.002 1.174-.048 1.512-.043.315-.112.41-.166.463-.027.027-.115.091-.311.166q-.282.11-.723.19a11 11 0 0 1-2.041.152 11.7 11.7 0 0 1-2.025-.184 4.4 4.4 0 0 1-.704-.189 1.5 1.5 0 0 1-.203-.092c-.05-.028-.066-.044-.065-.043-.267-.262-.332-.692-.273-1.53q.01-.149.024-.316c.024-.297.05-.629.054-.935.004-.433-.035-.923-.23-1.385-.229-.541-.628-.983-.99-1.332-.18-.174-.368-.34-.538-.49l-.014-.013a13 13 0 0 1-.472-.432l-1.5-1.47a.75.75 0 1 0-1.05 1.07l.933.916c-.147.13-.304.272-.456.419-.363.35-.762.79-.99 1.332-.196.462-.235.952-.23 1.385.002.306.029.638.053.935q.014.168.024.316c.058.838-.006 1.268-.273 1.53-.027.027-.115.091-.311.166q-.282.11-.723.19c-.586.108-1.308.159-2.041.152a11.7 11.7 0 0 1-2.025-.184 4.4 4.4 0 0 1-.704-.189 1.5 1.5 0 0 1-.203-.092.4.4 0 0 1-.065-.043c-.054-.053-.123-.148-.166-.463-.046-.338-.048-.797-.048-1.512V12.7c0-2.299.642-3.831 1.712-5.952q.14.003.277.002h5.797L9.39 8.34a.75.75 0 1 0 1.218.876l1.334-1.853 2.414 4.023a.75.75 0 0 0 1.286-.772L13.325 6.75zm-7.26-1.5h7.179c.208 0 .33 0 .42-.006l.085-.01a.25.25 0 0 0 .125-.107l.024-.085c.02-.09.041-.211.076-.418.046-.277.073-.446.085-.573a1 1 0 0 0 .004-.123.25.25 0 0 0-.127-.153 1 1 0 0 0-.118-.015 9 9 0 0 0-.574-.01H4.82c-.28 0-.449 0-.574.01a1 1 0 0 0-.118.015.25.25 0 0 0-.127.153c0 .009-.003.043.004.123.012.127.04.296.085.573.035.207.055.328.076.418l.024.085q.045.077.125.107c.006.002.03.006.084.01.091.006.213.006.421.006z" clip-rule="evenodd"/></svg>