<svg xmlns="http://www.w3.org/2000/svg" fill="none" viewBox="0 0 24 24"><path fill="currentColor" fill-rule="evenodd" d="M11.897 1.75h-.045c-.57 0-1.069 0-1.48.054-.446.058-.863.187-1.236.495-.365.3-.587.688-.764 1.121-.168.413-.321.94-.505 1.568l-.076.262H5.325c-.611 0-1.051 0-1.423.09-1.046.252-1.908 1.033-2.115 2.086-.073.37-.025.791.034 1.301l.013.108c.092.809.361 1.511.875 2.082l.007.008v.008l-.202 2.23c-.171 1.898-.307 3.4-.251 4.58.057 1.214.319 2.213 1.049 3.018s1.698 1.159 2.896 1.326c1.164.163 2.664.163 4.557.163h2.47c1.893 0 3.393 0 4.557-.163 1.198-.167 2.165-.521 2.896-1.326s.992-1.804 1.05-3.017c.055-1.18-.081-2.683-.252-4.58l-.202-2.231v-.01l.006-.006c.514-.57.782-1.273.875-2.082l.012-.108c.06-.51.108-.93.035-1.301-.207-1.053-1.07-1.834-2.115-2.087-.372-.09-.812-.09-1.424-.089h-2.465l-.077-.262c-.183-.628-.337-1.155-.505-1.568-.176-.433-.398-.82-.763-1.121-.373-.308-.79-.437-1.237-.495-.41-.054-.91-.054-1.48-.054zm2.748 3.5c-.166-.569-.286-.964-.408-1.264-.13-.322-.234-.453-.328-.53-.085-.07-.201-.13-.477-.165-.303-.04-.702-.041-1.33-.041h-.205c-.629 0-1.028.001-1.33.04-.276.037-.393.096-.478.166-.093.078-.197.208-.327.53-.122.3-.242.695-.408 1.264zM4.013 13.24l.122-1.35q.283.12.592.213l4.176 1.288.395.122a2.75 2.75 0 0 0 5.405 0q.188-.06.392-.122l4.176-1.288a6 6 0 0 0 .593-.214l.122 1.35c.178 1.97.303 3.369.253 4.434-.05 1.044-.263 1.64-.662 2.08-.398.438-.966.705-1.993.849-1.048.146-2.443.148-4.408.148h-2.352c-1.965 0-3.36-.002-4.409-.148-1.026-.144-1.594-.411-1.992-.85-.399-.439-.613-1.035-.662-2.079-.05-1.065.075-2.464.252-4.433m10.732-1.31 4.085-1.26c.662-.204 1.078-.461 1.346-.758.26-.288.433-.675.499-1.247.077-.677.087-.84.065-.95-.076-.39-.426-.78-.996-.918-.173-.042-.416-.047-1.172-.047H5.427c-.756 0-.999.005-1.173.047-.57.138-.919.528-.996.918-.021.11-.011.273.066.95.066.572.24.959.5 1.247.266.297.683.554 1.345.758l4.086 1.26c.007-.131.022-.26.055-.383a1.75 1.75 0 0 1 1.237-1.237c.227-.06.48-.06.722-.06h1.462c.242 0 .496 0 .722.06a1.75 1.75 0 0 1 1.238 1.237c.032.122.047.251.054.383m-3.986.003a.25.25 0 0 1 .174-.174l.07-.005c.072-.004.169-.004.33-.004h1.334c.162 0 .258 0 .33.004l.07.005a.25.25 0 0 1 .174.174c0 .005.004.024.006.07.003.072.003.169.003.33V13a1.25 1.25 0 0 1-2.5 0v-.666c0-.162 0-.259.004-.331z" clip-rule="evenodd"/></svg>