<svg xmlns="http://www.w3.org/2000/svg" fill="none" viewBox="0 0 24 24"><path fill="currentColor" fill-rule="evenodd" d="M4.822 22.748q-.659 0-1.31-.12a.75.75 0 0 1-.442-1.213 4.5 4.5 0 0 0 .931-2.015c.061-.325-.202-.637-.319-.756C1.792 16.727.75 14.214.75 11.57.75 5.88 5.572 1.25 11.5 1.25c.695 0 1.414.068 2.137.203a.75.75 0 1 1-.274 1.474A10 10 0 0 0 11.5 2.75c-5.1 0-9.25 3.957-9.25 8.82 0 2.247.889 4.386 2.503 6.023.595.609.857 1.369.722 2.086a6 6 0 0 1-.525 1.568 5.8 5.8 0 0 0 2.569-.667c.534-.294.805-.437 1.106-.474.271-.033.538.013 1.069.105q.901.17 1.806.169c5.1 0 9.25-3.952 9.25-8.81a.75.75 0 0 1 1.5 0c0 5.685-4.822 10.31-10.75 10.31-.695 0-1.392-.065-2.074-.193a7 7 0 0 0-.606-.092c-.104.038-.379.19-.572.295l-.012.007-.006.003-.005.003a7.3 7.3 0 0 1-3.403.845M19 9.75a4.255 4.255 0 0 1-4.25-4.25A4.255 4.255 0 0 1 19 1.25a4.255 4.255 0 0 1 4.25 4.25A4.255 4.255 0 0 1 19 9.75m0-7a2.754 2.754 0 0 0-2.75 2.75A2.754 2.754 0 0 0 19 8.25a2.754 2.754 0 0 0 2.75-2.75A2.754 2.754 0 0 0 19 2.75M14.496 12c0 .552.452 1 1.004 1a1 1 0 0 0 0-2h-.01a.996.996 0 0 0-.994 1M10.5 12c0 .552.452 1 1.004 1a1 1 0 0 0 0-2h-.008a.997.997 0 0 0-.996 1m-3.996 0c0 .552.453 1 1.005 1a1 1 0 0 0 0-2h-.01a.996.996 0 0 0-.995 1" clip-rule="evenodd"/></svg>