<svg xmlns="http://www.w3.org/2000/svg" fill="none" viewBox="0 0 24 24"><path fill="currentColor" fill-rule="evenodd" d="M2 21.25a.75.75 0 0 0 0 1.5h20a.75.75 0 0 0 0-1.5h-.25V12c0-.637-.032-1.199-.137-1.677-.107-.486-.3-.931-.652-1.284s-.798-.545-1.284-.652c-.478-.105-1.04-.137-1.677-.137h-2.25V5c0-.637-.032-1.199-.137-1.677-.107-.486-.3-.931-.652-1.284s-.798-.545-1.284-.652c-.478-.105-1.04-.137-1.677-.137H6c-.637 0-1.199.032-1.677.137-.486.107-.931.3-1.284.652s-.545.798-.652 1.284C2.282 3.801 2.25 4.363 2.25 5v16.25zm13.25 0V19a.75.75 0 0 1 1.5 0v2.25h3.5V12c0-.604-.032-1.037-.102-1.355-.068-.309-.16-.458-.248-.545-.086-.087-.236-.18-.545-.248-.317-.07-.75-.102-1.355-.102h-4c-.604 0-1.037.033-1.355.102-.309.068-.458.16-.545.248-.087.087-.18.236-.248.545-.07.318-.102.75-.102 1.355v9.25zm-11.5-8H6a.75.75 0 0 1 0 1.5H3.75v6.5h6.5V12c0-.637.032-1.199.137-1.677.107-.486.3-.931.652-1.284s.798-.545 1.284-.652c.478-.105 1.04-.137 1.677-.137h.25V5c0-.604-.033-1.037-.102-1.355-.068-.309-.16-.458-.248-.545-.087-.087-.236-.18-.545-.248-.318-.07-.75-.102-1.355-.102H6c-.604 0-1.037.033-1.355.102-.309.068-.458.16-.545.248-.087.087-.18.236-.248.545-.07.318-.102.75-.102 1.355v.25H6a.75.75 0 0 1 0 1.5H3.75v2.5H6a.75.75 0 0 1 0 1.5H3.75zm10.5-.25a.75.75 0 0 1 .75-.75h2a.75.75 0 0 1 0 1.5h-2a.75.75 0 0 1-.75-.75m0 3a.75.75 0 0 1 .75-.75h2a.75.75 0 0 1 0 1.5h-2a.75.75 0 0 1-.75-.75" clip-rule="evenodd"/></svg>