<svg xmlns="http://www.w3.org/2000/svg" fill="none" viewBox="0 0 24 24"><path fill="currentColor" fill-rule="evenodd" d="M3.327 1.743c.625-.492 1.357-.55 2.13-.446.737.099 1.656.365 2.77.689l5.102 1.48c.667.194 1.231.358 1.675.548.474.202.884.461 1.195.887.309.423.437.894.495 1.413.056.49.056 1.094.056 1.816v1.316l1.615.484.04.012c.653.196 1.203.36 1.636.548.46.198.86.45 1.165.86s.432.866.49 1.364c.054.468.054 1.043.054 1.723v6.817H22a.75.75 0 0 1 0 1.5H2a.75.75 0 0 1 0-1.5h.25V6.269c.001-1.028.012-1.881.106-2.555.11-.784.353-1.485.971-1.971m13.423 9.269v10.242h3.5v-7.01c0-.605-.006-1.027-.044-1.357-.041-.352-.113-.52-.203-.642-.09-.12-.23-.238-.556-.378-.344-.148-.81-.29-1.513-.5zM4.255 2.922c-.173.135-.326.374-.413 1-.075.535-.089 1.234-.091 2.192l-.001 15.14h2.5v-2.295c0-.433 0-.83.043-1.153.048-.355.16-.73.47-1.04.309-.309.684-.421 1.04-.47.323-.043.72-.043 1.152-.042h1.09c.433 0 .83 0 1.152.043.356.048.731.16 1.04.47.31.308.422.684.47 1.04.034.258.041.563.043.897v2.55h2.5V8.172c0-.775-.001-1.293-.046-1.69-.043-.378-.119-.563-.216-.696-.096-.13-.241-.251-.572-.393-.35-.15-.827-.289-1.548-.498l-5-1.451c-1.188-.345-1.998-.578-2.61-.66-.59-.08-.837.006-1.003.137m5.92 14.832H9c-.493 0-.787.001-.997.03a.7.7 0 0 0-.177.042l-.004.003-.005.01a.7.7 0 0 0-.037.167 6 6 0 0 0-.03.664v2.584h3.5v-2.25c0-.493-.002-.787-.03-.998a.7.7 0 0 0-.042-.177l-.004-.003-.01-.005a.7.7 0 0 0-.167-.038 7 7 0 0 0-.821-.03M7.25 9.004a.75.75 0 0 1 .75-.75h3a.75.75 0 0 1 0 1.5H8a.75.75 0 0 1-.75-.75m0 4a.75.75 0 0 1 .75-.75h3a.75.75 0 0 1 0 1.5H8a.75.75 0 0 1-.75-.75" clip-rule="evenodd"/></svg>