<svg xmlns="http://www.w3.org/2000/svg" fill="none" viewBox="0 0 24 24"><path fill="currentColor" fill-rule="evenodd" d="M12 2.75c-4.011 0-7.25 3.217-7.25 7.169 0 1.351.377 2.613 1.034 3.691a.75.75 0 0 1-1.282.78A8.57 8.57 0 0 1 3.25 9.919C3.25 5.124 7.175 1.25 12 1.25s8.75 3.874 8.75 8.669a8.57 8.57 0 0 1-1.252 4.471.75.75 0 0 1-1.282-.78 7.07 7.07 0 0 0 1.034-3.691c0-3.952-3.239-7.169-7.25-7.169m0 7.5c.441 0 .934-.218 1.457-.767a.75.75 0 1 1 1.086 1.034c-.517.543-1.12.955-1.793 1.134v3.599h3.096c.13 0 .258 0 .367.006a1.4 1.4 0 0 1 .427.085c.498.194.833.663.859 1.194.008.171-.025.322-.055.432-.028.105-.069.227-.11.351l-.005.017-.026.078c-.144.434-.256.774-.438 1.06-.291.46-.71.821-1.202 1.04l-.056.28-.022.108c-.119.6-.212 1.067-.431 1.454a2.75 2.75 0 0 1-1.531 1.255c-.423.14-.9.14-1.51.139h-.223c-.612 0-1.088 0-1.51-.139a2.75 2.75 0 0 1-1.531-1.255c-.22-.387-.313-.854-.432-1.454l-.022-.109-.056-.278a2.75 2.75 0 0 1-1.204-1.041c-.181-.286-.294-.625-.438-1.06l-.026-.078-.005-.017a7 7 0 0 1-.11-.35 1.4 1.4 0 0 1-.055-.433c.026-.531.361-1 .859-1.194a1.4 1.4 0 0 1 .427-.085c.109-.006.237-.006.367-.006h3.096v-3.599c-.674-.179-1.276-.59-1.793-1.134a.75.75 0 0 1 1.086-1.034c.523.549 1.016.767 1.457.767m-1.847 10.365c-.074-.13-.122-.306-.236-.865h4.168c-.114.559-.162.734-.236.865a1.25 1.25 0 0 1-.696.57c-.163.054-.375.064-1.152.064s-.99-.01-1.152-.063a1.25 1.25 0 0 1-.696-.57m-2.058-3.753-.037-.112h7.884l-.037.112c-.182.55-.237.698-.307.81-.172.27-.44.464-.75.541-.125.032-.282.037-.86.037h-3.976c-.578 0-.735-.005-.86-.037a1.24 1.24 0 0 1-.75-.542c-.07-.11-.125-.26-.307-.81" clip-rule="evenodd"/></svg>