<svg xmlns="http://www.w3.org/2000/svg" fill="none" viewBox="0 0 24 24"><path fill="currentColor" fill-rule="evenodd" d="M6.75 2a.75.75 0 0 0-1.5 0v.635c-.805.228-1.483.599-2.048 1.21-.778.84-1.124 1.903-1.29 3.235-.162 1.304-.162 2.976-.162 5.11v.62c0 2.133 0 3.806.162 5.11.166 1.332.512 2.395 1.29 3.236.785.849 1.79 1.234 3.05 1.417 1.217.177 2.774.177 4.737.177h2.022c1.964 0 3.52 0 4.738-.177 1.258-.183 2.264-.568 3.05-1.417.777-.841 1.123-1.904 1.289-3.235.162-1.305.162-2.977.162-5.111v-.62c0-2.133 0-3.806-.162-5.11-.166-1.332-.512-2.395-1.29-3.236-.564-.61-1.243-.981-2.048-1.21V2a.75.75 0 0 0-1.5 0v.366c-1.136-.116-2.534-.116-4.24-.116h-2.02c-1.706 0-3.104 0-4.24.116zM4.303 4.863c.259-.28.568-.495.976-.657A.75.75 0 0 0 6.75 4v-.125c1.061-.123 2.432-.125 4.3-.125h1.9c1.868 0 3.239.002 4.3.125V4a.75.75 0 0 0 1.471.206c.408.162.717.377.976.657.473.51.753 1.21.9 2.387H3.403c.148-1.177.427-1.877.9-2.387M3.289 8.75H20.71c.039.957.039 2.1.039 3.493v.514c0 2.198-.001 3.777-.15 4.978-.148 1.186-.428 1.89-.903 2.402-.466.504-1.094.796-2.164.952-1.098.16-2.545.161-4.583.161h-1.9c-2.038 0-3.485-.002-4.583-.161-1.07-.156-1.698-.448-2.164-.952-.475-.513-.755-1.216-.902-2.402-.15-1.201-.151-2.78-.151-4.978v-.514c0-1.392 0-2.536.039-3.493m9.719 10.193c.385.23.71.31.977.31.328 0 .565-.121.708-.225.26-.189.664-.653.44-1.637l-.24-1.046v-.004l.838-.849c.455-.451.623-.995.462-1.492-.16-.493-.61-.833-1.236-.931l-1.076-.183h-.002l-.6-1.208c-.29-.589-.755-.928-1.277-.928H12c-.522 0-.99.338-1.28.926l-.601 1.21-.002.001-1.071.182c-.624.098-1.074.437-1.235.929-.162.496.004 1.04.453 1.488l.843.855.002.006-.24 1.044c-.234 1.016.23 1.482.442 1.635.21.152.794.45 1.678-.081l1.01-.599zm.626-1.373-.897-.532-.001.003a1.47 1.47 0 0 0-1.471-.001l-.9.532.213-.923v-.005l.002-.006a1.5 1.5 0 0 0-.381-1.324l-.776-.787.978-.166a1.51 1.51 0 0 0 1.045-.777l.552-1.111.55 1.109c.195.391.627.711 1.045.777l.983.167-.778.788a1.51 1.51 0 0 0-.376 1.333z" clip-rule="evenodd"/></svg>