<svg xmlns="http://www.w3.org/2000/svg" fill="none" viewBox="0 0 24 24"><path fill="currentColor" fill-rule="evenodd" d="M6.616 2.287c-.28-.503-.732-.883-1.299-1-.572-.119-1.148.056-1.62.441C1.98 3.128.886 5.368 1.36 7.72c.292 1.445.777 2.871 1.767 4.596 1.985 3.461 5.092 6.57 8.557 8.557 1.725.99 3.15 1.475 4.596 1.767 2.351.474 4.593-.619 5.991-2.335.386-.473.56-1.049.442-1.622-.117-.566-.498-1.017-1-1.298l-1.603-.893c-.59-.33-1.087-.606-1.519-.787-.458-.192-.91-.306-1.409-.253-.5.052-.918.256-1.326.539-.385.265-.814.639-1.324 1.083L11.974 19.3c-2.899-1.768-5.508-4.378-7.275-7.274l2.228-2.56c.444-.509.817-.938 1.083-1.323.282-.409.487-.827.54-1.326.051-.5-.063-.951-.254-1.41-.181-.431-.458-.928-.787-1.518zm9.962 18.882a12.7 12.7 0 0 1-3.207-1.095l2.116-1.842c.549-.478.914-.795 1.222-1.007.292-.202.47-.265.63-.282.159-.016.346.009.674.146.345.144.768.379 1.403.733l1.567.873c.19.107.248.224.262.292.013.063.012.189-.135.37-1.124 1.379-2.836 2.154-4.532 1.812M5.768 8.514l-1.84 2.116a12.7 12.7 0 0 1-1.095-3.207c-.343-1.696.433-3.408 1.812-4.532.18-.147.307-.148.37-.135.068.014.185.07.291.262l.874 1.566c.354.636.589 1.06.733 1.404.137.327.162.515.145.674-.016.159-.08.338-.281.63-.212.307-.53.673-1.007 1.222m16.77-3.991a.75.75 0 1 0-1.076-1.046l-2.878 2.958c-.515.53-.85.871-1.128 1.09-.262.205-.382.225-.456.225s-.194-.02-.456-.226c-.279-.218-.613-.56-1.128-1.089l-1.605-1.649c.272.025.547.058.806.089l.067.008c.286.034.592.07.805.074a.75.75 0 1 0 .022-1.5 8 8 0 0 1-.648-.063l-.07-.009c-.285-.034-.62-.074-.951-.102a7 7 0 0 0-1.078-.02c-.17.014-.353.04-.527.093a1.3 1.3 0 0 0-.56.32c-.179.18-.27.393-.32.56-.053.175-.08.357-.093.528-.028.34-.01.724.02 1.078.026.33.067.666.101.95l.009.07c.038.321.062.534.063.649a.75.75 0 0 0 1.5-.022 9 9 0 0 0-.074-.805l-.008-.067c-.028-.234-.058-.48-.082-.726l1.548 1.59.035.036c.47.484.875.9 1.242 1.188.394.308.835.545 1.382.545s.988-.237 1.381-.545c.368-.289.773-.704 1.243-1.188z" clip-rule="evenodd"/></svg>