<svg xmlns="http://www.w3.org/2000/svg" fill="none" viewBox="0 0 24 24"><path fill="currentColor" fill-rule="evenodd" d="M9.372 17.089c.385-.724 1.01-1.45 1.878-1.724V3.75h-6v6.615c.867.274 1.493 1 1.878 1.724.495.93.728 2.094.576 3.022-.126.774-.796 1.172-1.323 1.363-.569.207-1.256.286-1.903.275-.649-.01-1.327-.113-1.882-.322-.487-.184-1.178-.566-1.3-1.316-.152-.928.081-2.091.576-3.022.385-.724 1.01-1.45 1.878-1.724V3.75H2a.75.75 0 0 1 0-1.5h20a.75.75 0 0 1 0 1.5h-1.75v6.615c.867.274 1.494 1 1.878 1.724.495.93.728 2.094.576 3.022-.126.774-.796 1.172-1.323 1.363-.569.207-1.256.286-1.903.275-.649-.01-1.327-.113-1.882-.322-.488-.184-1.178-.566-1.3-1.316-.152-.928.082-2.091.576-3.022.384-.724 1.01-1.45 1.878-1.724V3.75h-6v11.615c.867.274 1.493 1 1.878 1.724.495.93.728 2.093.576 3.022-.126.774-.796 1.172-1.323 1.363-.569.206-1.256.286-1.903.275-.649-.01-1.327-.113-1.882-.322-.487-.184-1.178-.566-1.3-1.316-.152-.929.081-2.091.576-3.022m.898 2.739c.021.022.103.1.355.195.352.132.85.217 1.378.226.53.01 1.022-.06 1.366-.185.28-.102.346-.19.357-.208.085-.55-.057-1.374-.423-2.063-.375-.708-.851-1.043-1.303-1.043s-.928.335-1.303 1.043c-.36.677-.503 1.485-.427 2.035m-7.145-4.805c-.252-.095-.334-.173-.355-.195-.076-.55.067-1.358.427-2.035.375-.707.851-1.043 1.303-1.043s.928.335 1.303 1.043c.366.689.508 1.513.423 2.063-.011.018-.077.107-.357.208-.344.125-.836.194-1.366.185-.528-.008-1.026-.094-1.378-.226m15 0c-.252-.095-.334-.173-.355-.195-.076-.55.067-1.358.427-2.035.375-.707.851-1.043 1.303-1.043s.928.335 1.303 1.043c.366.689.508 1.513.423 2.063-.011.018-.077.107-.357.208-.344.125-.836.194-1.366.185-.528-.008-1.026-.094-1.378-.226" clip-rule="evenodd"/></svg>