<svg xmlns="http://www.w3.org/2000/svg" fill="none" viewBox="0 0 24 24"><path fill="currentColor" fill-rule="evenodd" d="M5.948 3.75h8.104c.899 0 1.648 0 2.242.08.628.084 1.195.27 1.65.725.45.45.638 1.008.724 1.575q.046.315.063.664l2.93-1.465a.75.75 0 0 1 .67 1.342L18.38 8.647a1 1 0 0 1-.091.045L11.675 12l6.614 3.308a1 1 0 0 1 .09.045l3.952 1.976a.75.75 0 0 1-.67 1.342l-2.921-1.46c-.01.333-.032.617-.074.863-.103.585-.33.979-.721 1.37-.456.456-1.023.642-1.65.726-.595.08-1.345.08-2.243.08H5.948c-.898 0-1.648 0-2.242-.08-.628-.084-1.195-.27-1.65-.726-.392-.391-.62-.785-.722-1.37-.084-.485-.084-1.123-.084-1.99V16a.75.75 0 0 1 .415-.67L8.322 12 1.665 8.67A.75.75 0 0 1 1.25 8v-.043c0-.658 0-1.288.082-1.827.086-.567.275-1.126.723-1.575.456-.455 1.023-.64 1.65-.725.595-.08 1.345-.08 2.243-.08m4.05 7.411 7.251-3.626c-.003-.482-.015-.861-.064-1.18-.06-.396-.164-.602-.301-.739-.13-.13-.328-.237-.79-.3-.482-.064-1.13-.066-2.094-.066H6c-.964 0-1.612.002-2.095.067-.461.062-.659.169-.789.3-.137.136-.241.342-.301.739-.049.318-.06.698-.064 1.181zm0 1.678-7.247 3.624c.002.68.012 1.072.061 1.353.044.253.11.374.304.568.13.13.328.237.79.3.482.064 1.13.066 2.094.066h8c.964 0 1.612-.002 2.095-.067.461-.062.659-.169.789-.3.194-.193.26-.314.304-.567.049-.28.06-.672.062-1.351z" clip-rule="evenodd"/></svg>