<svg xmlns="http://www.w3.org/2000/svg" fill="none" viewBox="0 0 24 24"><path fill="currentColor" fill-rule="evenodd" d="M2.024 4.25a.75.75 0 1 0 0 1.5h.586c-.52 1.049-1.164 2.69-1.346 4.158l-.006.046V10l-.003.783a303 303 0 0 0 .007 4.485v.029c.01.183.026.458.13.74.113.306.312.577.616.805.478.359 1.22.61 2.327.808a2.751 2.751 0 0 0 5.32.1h4.706a2.751 2.751 0 0 0 5.295-.006l.051.001.06.001c.275.006.593.012.887.004.345-.01.802-.04 1.2-.244.46-.237.753-.655.837-1.215.029-.145.039-.334.045-.484.008-.202.013-.456.015-.738a62 62 0 0 0-.025-1.93v-.02c-.044-.78-.278-1.399-.676-1.885-.387-.474-.882-.765-1.346-.977-.272-.125-.6-.248-.894-.358-.162-.061-.314-.118-.44-.17-.41-.166-.729-.331-.97-.547-.32-.288-.629-.73-.985-1.3l-.241-.39c-.275-.448-.577-.94-.902-1.378-.86-1.162-1.796-1.705-2.94-1.813a11 11 0 0 0-.99-.05h-.073l-.02-.001H2.023m16.228 12.623a.8.8 0 0 0 0 .253 1.25 1.25 0 1 1 0-.253m1.4-.629.083.002h.052c.284.006.57.011.827.004q.23-.005.376-.03a.6.6 0 0 0 .192-.057l.002-.002.006-.016a.4.4 0 0 0 .02-.086l.005-.04.01-.04a5 5 0 0 0 .012-.234c.008-.177.012-.41.014-.684a61 61 0 0 0-.024-1.87c-.03-.503-.17-.803-.338-1.008-.18-.22-.44-.394-.809-.562-.24-.11-.46-.192-.704-.282a19 19 0 0 1-.57-.22 6 6 0 0 1-.776-.37h-.01l-.012.001H2.755v.051c-.004 1.064-.011 2.758.007 4.436a1 1 0 0 0 .037.28c.008.022.024.062.11.126.182.136.59.318 1.487.493a2.751 2.751 0 0 1 5.258.114h4.707a2.751 2.751 0 0 1 5.292-.006m-11.396.685a1.25 1.25 0 1 0 0 .142 1 1 0 0 1 0-.142M4.28 5.813l.035-.063h3.942v3.5h-5.35C3.24 7.858 3.914 6.41 4.28 5.813M9.758 9.25v-3.5h2.564l.225.006c.186.005.422.017.637.038h.006c.653.062 1.227.335 1.877 1.212.282.382.535.794.802 1.23l.274.442q.176.285.372.572z" clip-rule="evenodd"/></svg>