<svg xmlns="http://www.w3.org/2000/svg" fill="none" viewBox="0 0 24 24"><path fill="currentColor" fill-rule="evenodd" d="M17 1.25a.75.75 0 0 0 0 1.5A4.25 4.25 0 0 1 21.25 7a.75.75 0 0 0 1.5 0A5.75 5.75 0 0 0 17 1.25m0 3a.75.75 0 0 0 0 1.5c.69 0 1.25.56 1.25 1.25a.75.75 0 0 0 1.5 0A2.75 2.75 0 0 0 17 4.25m-6.677 2h2.354c.904 0 1.64 0 2.242.064.628.067 1.175.208 1.68.533s.86.764 1.18 1.308c.307.521.612 1.192.986 2.015l.532 1.17 1.253-.94a.75.75 0 1 1 .9 1.2l-1.432 1.074.262.395.064.094c.606.91.998 1.497 1.202 2.172.204.674.204 1.38.204 2.473v2.714c0 .214 0 .41-.011.576-.012.178-.04.373-.122.572a1.75 1.75 0 0 1-.947.947c-.199.082-.394.11-.572.122-.165.011-.362.011-.576.011h-.044c-.214 0-.41 0-.576-.011a1.8 1.8 0 0 1-.572-.122 1.75 1.75 0 0 1-.947-.947 1.8 1.8 0 0 1-.122-.572c-.011-.165-.011-.362-.011-.576V20.5c0-.243 0-.388-.008-.496a1 1 0 0 0-.012-.103.25.25 0 0 0-.131-.13 1 1 0 0 0-.103-.013 8 8 0 0 0-.496-.008h-10c-.243 0-.388 0-.496.008a1 1 0 0 0-.103.012.25.25 0 0 0-.13.131 1 1 0 0 0-.013.103 8 8 0 0 0-.008.496v.022c0 .214 0 .41-.011.576a1.8 1.8 0 0 1-.122.572 1.75 1.75 0 0 1-.947.947c-.199.082-.394.11-.572.122-.165.011-.362.011-.576.011h-.044c-.214 0-.41 0-.576-.011a1.8 1.8 0 0 1-.572-.122 1.75 1.75 0 0 1-.947-.947 1.8 1.8 0 0 1-.122-.572c-.011-.165-.011-.362-.011-.576v-2.714c0-1.093 0-1.799.204-2.473.204-.675.596-1.262 1.203-2.172l.063-.094.262-.395L1.55 11.6a.75.75 0 0 1 .9-1.2l1.253.94.532-1.17c.374-.823.68-1.494.986-2.015.321-.544.676-.983 1.18-1.308.505-.325 1.052-.466 1.68-.533.601-.064 1.338-.064 2.242-.064m-5.268 5.74.888.223q.15.037.303.037h10.508q.154 0 .303-.037l.888-.222-.529-1.163c-.395-.869-.668-1.467-.93-1.911-.252-.43-.462-.656-.7-.809s-.53-.25-1.025-.302c-.513-.055-1.17-.056-2.124-.056h-2.274c-.953 0-1.61.001-2.123.056-.496.052-.789.15-1.026.302-.238.153-.448.38-.7.809-.262.444-.535 1.042-.93 1.91zm13.614 1.366-1.248.312a2.8 2.8 0 0 1-.667.082H6.246q-.339 0-.667-.082l-1.248-.312-.363.545c-.691 1.036-.946 1.432-1.078 1.868s-.14.907-.14 2.153V20.5c0 .243 0 .388.008.496.004.067.01.095.012.103a.25.25 0 0 0 .131.13 1 1 0 0 0 .103.013c.108.008.253.008.496.008s.388 0 .496-.008a1 1 0 0 0 .103-.012.25.25 0 0 0 .13-.131 1 1 0 0 0 .013-.103c.008-.108.008-.253.008-.496v-.022c0-.214 0-.41.011-.576a1.8 1.8 0 0 1 .122-.572 1.75 1.75 0 0 1 .947-.947c.199-.082.394-.11.572-.122.165-.011.362-.011.576-.011h10.044c.214 0 .411 0 .576.011.178.012.373.04.572.122.428.178.77.518.947.947.082.199.11.394.122.572.011.165.011.362.011.576v.022c0 .243 0 .388.008.496a1 1 0 0 0 .012.103.25.25 0 0 0 .131.13 1 1 0 0 0 .103.013c.108.008.253.008.496.008s.388 0 .496-.008a1 1 0 0 0 .103-.012.25.25 0 0 0 .13-.131 1 1 0 0 0 .013-.103 8 8 0 0 0 .008-.496v-2.578c0-1.246-.007-1.717-.14-2.153-.131-.436-.386-.832-1.078-1.868zM6 15a1 1 0 0 1 1 1v.01a1 1 0 1 1-2 0V16a1 1 0 0 1 1-1m11 0a1 1 0 0 1 1 1v.01a1 1 0 1 1-2 0V16a1 1 0 0 1 1-1" clip-rule="evenodd"/></svg>