<svg xmlns="http://www.w3.org/2000/svg" fill="none" viewBox="0 0 24 24"><path fill="currentColor" fill-rule="evenodd" d="M6.706 3.91A5.25 5.25 0 0 0 2.75 9a.75.75 0 0 1-1.5 0A6.746 6.746 0 0 1 8 2.25a.75.75 0 0 1 .67 1.085L7.815 5.05a.75.75 0 0 1-1.342-.671zm10.296 9.84a.75.75 0 1 1-.004-1.5c1.042-.002 1.786-.018 2.358-.094.56-.075.887-.2 1.126-.378a2 2 0 0 0 .273-.24c.202-.213.338-.501.414-1.059.08-.583.081-1.352.081-2.478V7.75h-10.5V8a.75.75 0 0 1-1.5 0v-.052q0-.469.002-.888a1 1 0 0 1 .002-.136c.007-.613.028-1.147.09-1.604.1-.732.315-1.366.814-1.89q.216-.226.467-.413c.573-.424 1.249-.601 2.04-.685.77-.082 1.742-.082 2.958-.081h.754c1.216 0 2.188 0 2.959.081.79.084 1.466.261 2.039.685q.252.187.467.412c.499.525.714 1.159.813 1.89.063.458.084.992.091 1.605a1 1 0 0 1 .002.136q.002.42.002.887v.106c0 1.06 0 1.932-.095 2.628-.1.733-.314 1.366-.813 1.89q-.216.226-.467.413c-.52.385-1.124.566-1.82.659-.686.091-1.527.105-2.553.107m4.227-7.5a8 8 0 0 0-.06-.728c-.076-.558-.212-.846-.414-1.06a2 2 0 0 0-.273-.24c-.264-.195-.633-.327-1.304-.398-.682-.073-1.575-.073-2.845-.073h-.666c-1.27 0-2.163 0-2.845.073-.671.07-1.04.203-1.304.399q-.15.11-.273.24c-.202.213-.338.501-.414 1.059-.03.215-.048.454-.06.728zM8.377 21.75h-.754c-1.216 0-2.188 0-2.959-.082-.79-.083-1.466-.26-2.039-.684a3.6 3.6 0 0 1-.467-.413c-.499-.525-.714-1.158-.813-1.89-.095-.696-.095-1.568-.095-2.628v-.106q0-.467.002-.887a1 1 0 0 1 .002-.136c.007-.613.028-1.147.09-1.605.1-.732.315-1.365.814-1.89q.215-.226.467-.412c.573-.425 1.249-.602 2.04-.685.77-.082 1.742-.082 2.958-.082h.754c1.216 0 2.188 0 2.959.082.79.083 1.466.26 2.039.684q.252.188.467.413c.499.525.714 1.158.813 1.89.063.458.084.992.091 1.605a1 1 0 0 1 .002.136q.003.42.002.887v.106c0 1.06 0 1.932-.095 2.628-.1.732-.314 1.365-.813 1.89q-.216.225-.467.412c-.573.424-1.249.602-2.04.685-.77.082-1.742.082-2.958.082M2.75 16v-.25h10.5V16c0 1.127-.002 1.896-.08 2.479-.077.557-.213.845-.415 1.059a2 2 0 0 1-.273.24c-.264.195-.633.328-1.304.399-.682.072-1.575.073-2.845.073h-.666c-1.27 0-2.163-.001-2.845-.073-.671-.071-1.04-.204-1.304-.4q-.15-.11-.273-.24c-.202-.213-.338-.5-.414-1.058-.08-.583-.081-1.352-.081-2.479m10.479-1.75H2.77c.012-.274.03-.514.06-.729.076-.557.212-.845.414-1.059q.123-.129.273-.24c.264-.195.633-.328 1.304-.399.682-.072 1.575-.073 2.845-.073h.666c1.27 0 2.163.001 2.845.073.671.071 1.04.204 1.304.4q.15.11.273.24c.202.213.338.5.414 1.059q.043.319.06.728m8.021.75a5.25 5.25 0 0 1-3.956 5.09l.234-.469a.75.75 0 0 0-1.342-.67l-.857 1.714A.75.75 0 0 0 16 21.75 6.746 6.746 0 0 0 22.75 15a.75.75 0 0 0-1.5 0" clip-rule="evenodd"/></svg>