<svg xmlns="http://www.w3.org/2000/svg" fill="none" viewBox="0 0 24 24"><path fill="currentColor" fill-rule="evenodd" d="M6.684 1.267c.16.018.367.061.567.194.201.134.321.308.4.45.073.133.138.291.196.434l.507 1.243.067.16q.075.002.187.002h.513c.1 0 .17-.003.219-.008a2 2 0 0 0 .048-.196l.182-.892c.068-.336.183-.792.563-1.093.332-.263.738-.304 1.057-.31h1.504c.333 0 .8.014 1.173.31.38.3.494.757.563 1.093l.182.892q.027.133.048.196c.049.005.118.008.218.008h.514l.186-.001.067-.161.508-1.243c.058-.143.123-.3.196-.433.078-.143.198-.317.4-.45.2-.134.407-.177.566-.195.1-.01.21-.015.319-.016h1.265c.265 0 .538 0 .761.03.252.036.591.13.841.444.253.317.266.671.24.928a6 6 0 0 1-.155.735l-.01.04-.567 2.22-.013.052c-.054.214-.113.446-.235.657-.27.469-.681.824-.98 1.081l-.117.103c-.34.3-.532.51-.622.775-.08.237-.06.508.093 1.556l1.659 11.378H21a.75.75 0 0 1 0 1.5H3a.75.75 0 0 1 0-1.5h1.206l1.66-11.378c.152-1.048.172-1.319.091-1.556-.09-.264-.28-.475-.62-.775l-.058-.05-.06-.053c-.3-.257-.71-.612-.98-1.081-.122-.211-.181-.443-.235-.657l-.013-.052-.567-2.22-.01-.04a5.5 5.5 0 0 1-.154-.735c-.027-.257-.014-.611.239-.928.25-.313.589-.408.84-.443.168-.024.363-.03.562-.031h1.304c.158 0 .329 0 .48.016M16.5 8.75h-9c-.008.364-.066.755-.13 1.192l-.022.146-.315 2.162H9a.75.75 0 1 1 0 1.5H7a.8.8 0 0 1-.181-.022L5.722 21.25h2.663l.493-2.462c.067-.336.126-.63.194-.87.072-.257.168-.507.337-.739.373-.515.867-.75 1.347-.85.39-.082.808-.08 1.128-.08l.116.001h.116c.32-.002.738-.003 1.129.079.479.1.973.335 1.347.85.168.232.264.482.337.738.068.241.126.535.194.871l.492 2.462h2.663l-1.385-9.5H15a.75.75 0 0 1 0-1.5h1.674l-.024-.162-.021-.146c-.064-.437-.122-.828-.13-1.192m-4.19 9h-.42c-.35 0-.6 0-.824.047-.21.044-.338.119-.442.263a.8.8 0 0 0-.108.264c-.05.178-.098.414-.172.784l-.428 2.142h4.17l-.428-2.142c-.074-.37-.122-.606-.172-.784a.8.8 0 0 0-.107-.264c-.105-.144-.234-.22-.442-.263a3 3 0 0 0-.626-.047m-5.972-15H4.902l-.1.002c.02.086.045.185.075.305l.567 2.22a6 6 0 0 0 .09.323c.14.242.343.42.66.699l.134.117c.24.21.53.477.763.834h9.817c.234-.357.524-.623.763-.834l.134-.117c.318-.279.521-.457.657-.693l.02-.053c.018-.057.038-.135.074-.276l.566-2.22.077-.305-.1-.001h-1.491l-.067.161-.507 1.243c-.058.143-.123.3-.196.434a1.25 1.25 0 0 1-.4.45c-.2.133-.407.176-.567.194a5 5 0 0 1-.48.017h-.513c-.332 0-.8-.015-1.172-.31-.38-.301-.495-.757-.563-1.094l-.183-.892a2 2 0 0 0-.047-.196 2 2 0 0 0-.219-.008h-1.388c-.1 0-.17.003-.219.008q-.02.064-.048.196l-.182.892c-.068.337-.183.793-.563 1.094-.373.295-.84.31-1.173.31h-.513c-.158 0-.33 0-.48-.017a1.26 1.26 0 0 1-.566-.194 1.24 1.24 0 0 1-.4-.45 4 4 0 0 1-.196-.434l-.508-1.243-.067-.16z" clip-rule="evenodd"/></svg>