<svg xmlns="http://www.w3.org/2000/svg" fill="none" viewBox="0 0 24 24"><path fill="currentColor" fill-rule="evenodd" d="M19.143 3.335c-.62-.083-1.443-.085-2.643-.085h-5.19l3.657 3.663c.172.138.283.35.283.587v8.25h1.25c1.2 0 2.024-.002 2.643-.085.598-.08.89-.224 1.094-.428s.348-.496.428-1.094c.083-.619.085-1.443.085-2.643v-4c0-1.2-.002-2.024-.085-2.643-.08-.598-.224-.89-.428-1.094s-.496-.348-1.094-.428M15.25 17.25h1.304c1.132 0 2.058 0 2.789-.098.764-.103 1.426-.325 1.955-.854s.75-1.19.854-1.955c.098-.73.098-1.656.098-2.79V7.447c0-1.133 0-2.058-.098-2.79-.103-.763-.325-1.425-.854-1.954s-1.191-.751-1.955-.854c-.73-.098-1.657-.098-2.79-.098H9.5a.75.75 0 0 0-.75.75v4.25H7.446c-1.132 0-2.058 0-2.789.098-.764.103-1.426.325-1.955.854s-.751 1.19-.854 1.955c-.098.73-.098 1.656-.098 2.79v4.107c0 1.133 0 2.058.098 2.79.103.763.325 1.425.854 1.954s1.19.751 1.955.854c.73.098 1.656.098 2.79.098h3.105c.899 0 1.648 0 2.242-.08.628-.084 1.195-.27 1.65-.726.456-.455.642-1.022.726-1.65.08-.594.08-1.343.08-2.242zm-5.751-9h4.251v9.25c0 .964-.002 1.612-.067 2.095-.062.461-.169.659-.3.789s-.327.237-.788.3c-.484.064-1.131.066-2.095.066h-3c-1.2 0-2.024-.002-2.643-.085-.598-.08-.89-.224-1.094-.428s-.348-.496-.428-1.094c-.083-.619-.085-1.443-.085-2.643v-4c0-1.2.002-2.024.085-2.643.08-.598.224-.89.428-1.094s.496-.348 1.094-.428C5.476 8.252 6.3 8.25 7.5 8.25zm.751-1.5V4.31l2.435 2.44zm-5.5 5.75a.75.75 0 0 1 .75-.75H9a.75.75 0 0 1 0 1.5H5.5a.75.75 0 0 1-.75-.75m0 4a.75.75 0 0 1 .75-.75h6a.75.75 0 0 1 0 1.5h-6a.75.75 0 0 1-.75-.75" clip-rule="evenodd"/></svg>