<svg xmlns="http://www.w3.org/2000/svg" fill="none" viewBox="0 0 24 24"><path fill="currentColor" fill-rule="evenodd" d="M7.04 14.325h-.288c-.033-.729.509-1.674 1.079-1.85 1.329-.413 2.849-.65 4.169-.65s2.84.237 4.17.65c.568.176 1.109 1.118 1.078 1.85H7.039m-.79 1.437v6.312a.75.75 0 0 0 1.5 0v-3.25h8.5v3.25a.75.75 0 0 0 1.5 0V15.76a1.37 1.37 0 0 0 .983-1.192c.11-1.02-.326-2.119-1.03-2.834l.33-3.342c.123-1.257.222-2.26.217-3.062-.006-.822-.119-1.531-.492-2.16-.676-1.137-1.765-1.577-2.813-1.743-.779-.123-1.634-.107-2.354-.094-.21.004-.41.008-.591.008q-.274-.001-.591-.008c-.72-.013-1.575-.03-2.354.094-1.048.166-2.137.606-2.813 1.744-.373.628-.486 1.337-.492 2.16-.005.802.094 1.804.217 3.061l.33 3.34c-.705.716-1.142 1.817-1.032 2.837.064.587.448 1.033.985 1.193m10 .063v1.5h-8.5v-1.5zM7.464 8.288l.262 2.653c1.382-.393 2.92-.617 4.273-.617 1.354 0 2.892.224 4.275.617l.262-2.653c.129-1.31.219-2.234.214-2.948-.005-.703-.104-1.104-.282-1.403-.36-.608-.949-.9-1.758-1.028-.635-.101-1.3-.089-1.992-.076q-.355.007-.718.008-.364-.001-.717-.008c-.694-.013-1.358-.025-1.993.076-.81.128-1.397.42-1.758 1.028-.178.3-.277.7-.282 1.403-.005.714.085 1.638.214 2.948" clip-rule="evenodd"/></svg>