<svg xmlns="http://www.w3.org/2000/svg" fill="none" viewBox="0 0 24 24"><path fill="currentColor" fill-rule="evenodd" d="m16.128 10.826-.515-5.148c-.158-1.581-.242-2.293-.585-2.604s-1.06-.323-2.65-.323h-.76c-1.588 0-2.305.013-2.648.323-.343.311-.427 1.023-.585 2.604l-.515 5.148c1.344-.368 2.822-.576 4.129-.576s2.784.208 4.129.576m-9.851.852.615-6.15v-.002c.184-1.839.285-2.852 1.07-3.563s1.806-.711 3.656-.711h.76c1.85 0 2.87 0 3.655.711.785.71.887 1.725 1.07 3.562v.004l.616 6.146c.694.716 1.124 1.806 1.014 2.819-.08.74-.669 1.256-1.432 1.256v.001h-.307l1.726 6.043a.75.75 0 0 1-1.442.412l-1.844-6.455H8.565l-1.844 6.455a.75.75 0 0 1-1.442-.412l1.727-6.043h-.309c-.762 0-1.351-.516-1.432-1.256-.11-1.011.319-2.1 1.012-2.817m10.971 2.573H6.752c-.033-.729.51-1.674 1.08-1.85 1.328-.413 2.848-.65 4.168-.65s2.84.236 4.17.65c.568.176 1.109 1.118 1.078 1.85" clip-rule="evenodd"/></svg>