<svg xmlns="http://www.w3.org/2000/svg" fill="none" viewBox="0 0 24 24"><path fill="currentColor" fill-rule="evenodd" d="M16.058 1.25h-4.116c-1.365 0-2.47 0-3.341.126-.911.132-1.673.415-2.272 1.06-.592.637-.844 1.434-.963 2.388-.085.678-.108 1.494-.114 2.463-1.212.09-2.192.343-2.923 1.131-.592.638-.844 1.436-.963 2.39-.116.928-.116 2.11-.116 3.591v1.182c0 1.481 0 2.664.116 3.591.119.954.371 1.752.963 2.39.599.646 1.36.93 2.272 1.061.87.127 1.976.127 3.341.127h4.118c1.364 0 2.47 0 3.34-.127.912-.132 1.674-.415 2.273-1.06.517-.558.775-1.238.912-2.038.13-.765.158-1.701.165-2.832q.345-.025.65-.069c.91-.132 1.672-.415 2.27-1.06.593-.637.845-1.434.964-2.388.116-.926.116-2.107.116-3.586V8.41c0-1.48 0-2.66-.116-3.586-.119-.954-.371-1.75-.963-2.388-.6-.645-1.361-.928-2.272-1.06-.87-.126-1.976-.126-3.34-.126m1.191 15.496q-.559.005-1.19.004h-4.117c-1.365 0-2.47 0-3.341-.126-.911-.132-1.673-.415-2.272-1.06-.592-.637-.844-1.434-.963-2.388-.116-.926-.116-2.107-.116-3.586v-.797c-1.008.088-1.487.285-1.821.645-.287.31-.474.749-.575 1.556-.103.824-.104 1.912-.104 3.457v1.078c0 1.545.001 2.634.104 3.457.1.808.288 1.246.575 1.556.28.302.664.492 1.387.597.75.109 1.747.11 3.185.11h4c1.437 0 2.434-.001 3.185-.11.723-.105 1.107-.295 1.387-.597.252-.271.426-.641.533-1.27.105-.618.135-1.421.143-2.526M7.43 3.456c.279-.3.664-.49 1.387-.595.75-.11 1.747-.111 3.184-.111h4c1.437 0 2.434.002 3.184.11.723.105 1.108.295 1.388.597.287.309.473.746.574 1.552.103.823.104 1.91.104 3.453v1.076c0 1.543-.001 2.63-.104 3.453-.1.806-.287 1.243-.574 1.552-.28.302-.665.492-1.388.597-.75.108-1.747.11-3.184.11h-4c-1.437 0-2.434-.002-3.184-.11-.723-.105-1.108-.296-1.388-.597-.287-.309-.473-.746-.574-1.552-.103-.823-.104-1.91-.104-3.453V8.462c0-1.543.001-2.63.104-3.453.1-.806.287-1.243.574-1.552" clip-rule="evenodd"/></svg>