<svg xmlns="http://www.w3.org/2000/svg" fill="none" viewBox="0 0 24 24"><path fill="currentColor" fill-rule="evenodd" d="M3 2.25a.75.75 0 0 1 .75.75v4.237H5q.355 0 .686.007c.703.01 1.333.02 1.943-.087.744-.13 1.376-.425 1.895-1.114 1.797-2.39 5.155-2.39 6.953 0 .517.689 1.15.984 1.894 1.114.61.107 1.24.097 1.943.087q.332-.006.686-.007a.75.75 0 0 1 0 1.5q-.272 0-.57.006c-.73.012-1.553.025-2.317-.108-1.029-.18-2.038-.63-2.835-1.69-1.198-1.593-3.358-1.593-4.556 0-.797 1.06-1.806 1.51-2.835 1.69-.764.133-1.587.12-2.317.108q-.298-.005-.57-.006H3.75V14c0 1.671.002 2.849.121 3.74.117.87.334 1.355.684 1.705s.835.567 1.704.683q.455.06 1.022.087A.8.8 0 0 1 7.25 20v-7a.75.75 0 0 1 1.5 0v7a.8.8 0 0 1-.042.247q.591.004 1.292.003h2.25V10a.75.75 0 0 1 1.5 0v10.25h3.5V13a.75.75 0 0 1 1.5 0v7.25H21a.75.75 0 0 1 0 1.5H9.944c-1.602 0-2.881 0-3.884-.135-1.037-.14-1.89-.435-2.565-1.11s-.97-1.528-1.11-2.565c-.135-1.003-.135-2.282-.135-3.884V3A.75.75 0 0 1 3 2.25" clip-rule="evenodd"/></svg>