<svg xmlns="http://www.w3.org/2000/svg" fill="none" viewBox="0 0 24 24"><path fill="currentColor" fill-rule="evenodd" d="M3 2.25a.75.75 0 0 1 .75.75v11c0 1.671.002 2.849.121 3.74.117.87.334 1.355.684 1.705s.835.567 1.704.683l.006.001c.107-3.064.772-5.85 1.822-7.95C9.212 9.928 10.906 8.25 13 8.25s3.788 1.678 4.913 3.93c1.064 2.126 1.733 4.959 1.826 8.07H21a.75.75 0 0 1 0 1.5H9.944c-1.602 0-2.881 0-3.884-.135-1.037-.14-1.89-.435-2.565-1.11s-.97-1.528-1.11-2.565c-.135-1.003-.135-2.282-.135-3.884V3A.75.75 0 0 1 3 2.25m15.238 18c-.093-2.918-.723-5.513-1.666-7.4-1.046-2.092-2.352-3.1-3.572-3.1s-2.526 1.008-3.572 3.1c-.941 1.883-1.57 4.471-1.666 7.382.632.018 1.368.018 2.238.018zM5.25 6A.75.75 0 0 1 6 5.25h.009a.75.75 0 0 1 0 1.5H6A.75.75 0 0 1 5.25 6m2.998 0a.75.75 0 0 1 .75-.75h.01a.75.75 0 0 1 0 1.5h-.01a.75.75 0 0 1-.75-.75m2.998 0a.75.75 0 0 1 .75-.75h.01a.75.75 0 0 1 0 1.5h-.01a.75.75 0 0 1-.75-.75m2.999 0a.75.75 0 0 1 .75-.75h.009a.75.75 0 0 1 0 1.5h-.01a.75.75 0 0 1-.75-.75m2.998 0a.75.75 0 0 1 .75-.75h.009a.75.75 0 0 1 0 1.5h-.01a.75.75 0 0 1-.75-.75m2.998 0a.75.75 0 0 1 .75-.75H21a.75.75 0 0 1 0 1.5h-.009a.75.75 0 0 1-.75-.75" clip-rule="evenodd"/></svg>