<svg xmlns="http://www.w3.org/2000/svg" fill="none" viewBox="0 0 24 24"><path fill="currentColor" fill-rule="evenodd" d="M3.75 3a.75.75 0 0 0-1.5 0v11.056c0 1.602 0 2.881.135 3.884.14 1.037.435 1.89 1.11 2.565s1.528.97 2.565 1.11c1.003.135 2.282.135 3.884.135H21a.75.75 0 0 0 0-1.5H10c-1.671 0-2.849-.002-3.74-.122-.87-.116-1.355-.334-1.705-.683s-.567-.835-.684-1.704c-.12-.892-.121-2.07-.121-3.741zm4.246 14.75a.75.75 0 1 1 0-1.5c1.69 0 4.25-.354 6.34-1.744 1.837-1.222 3.382-3.29 3.591-6.848l-.907.914a.75.75 0 0 1-1.064-1.056l1.883-1.897a1.247 1.247 0 0 1 1.762-.009l1.922 1.9a.75.75 0 0 1-1.054 1.067l-1.034-1.022c-.191 4.12-1.986 6.681-4.268 8.2-2.432 1.617-5.329 1.995-7.17 1.995" clip-rule="evenodd"/></svg>