<svg xmlns="http://www.w3.org/2000/svg" fill="none" viewBox="0 0 24 24"><path fill="currentColor" fill-rule="evenodd" d="M3 2.25a.75.75 0 0 1 .75.75v11c0 1.671.002 2.849.121 3.74.117.87.334 1.355.684 1.705s.835.567 1.704.683c.892.12 2.07.122 3.741.122h11a.75.75 0 0 1 0 1.5H9.944c-1.602 0-2.881 0-3.884-.135-1.037-.14-1.89-.435-2.565-1.11s-.97-1.528-1.11-2.565c-.135-1.003-.135-2.282-.135-3.884V3A.75.75 0 0 1 3 2.25m14.584 8.169C18.6 8.559 19.25 5.937 19.25 3a.75.75 0 0 1 1.5 0c0 3.138-.692 6.017-1.849 8.137C17.76 13.23 16.06 14.75 14 14.75s-3.76-1.52-4.901-3.613C7.942 9.017 7.25 6.138 7.25 3a.75.75 0 0 1 1.5 0c0 2.937.65 5.558 1.666 7.419 1.03 1.889 2.33 2.831 3.584 2.831s2.554-.942 3.584-2.831M6 16.25a.75.75 0 0 0 0 1.5h.009a.75.75 0 0 0 0-1.5zm2.998 0a.75.75 0 0 0 0 1.5h.01a.75.75 0 0 0 0-1.5zm2.998 0a.75.75 0 0 0 0 1.5h.01a.75.75 0 0 0 0-1.5zm2.999 0a.75.75 0 0 0 0 1.5h.009a.75.75 0 0 0 0-1.5zm2.998 0a.75.75 0 0 0 0 1.5h.009a.75.75 0 0 0 0-1.5zm2.998 0a.75.75 0 0 0 0 1.5H21a.75.75 0 0 0 0-1.5z" clip-rule="evenodd"/></svg>