<svg xmlns="http://www.w3.org/2000/svg" fill="none" viewBox="0 0 24 24"><path fill="currentColor" fill-rule="evenodd" d="M4.499 9.743a.75.75 0 0 1-.664-.402c-.399-.763-1.237-1.322-1.247-1.328a.75.75 0 0 1 .82-1.256c.03.019.465.306.932.783.642-1.285 1.813-3.278 3.262-4.183a.749.749 0 1 1 .794 1.27C6.93 5.545 5.588 8.29 5.195 9.272a.75.75 0 0 1-.658.47zm16.501-3H11a.75.75 0 0 1 0-1.5h10a.75.75 0 0 1 0 1.5m0 6H11a.75.75 0 0 1 0-1.5h10a.75.75 0 0 1 0 1.5m-10 6h10a.75.75 0 0 0 0-1.5H11a.75.75 0 0 0 0 1.5M3.835 20.34a.75.75 0 0 0 .664.402v-.002h.038a.75.75 0 0 0 .658-.47c.393-.982 1.735-3.727 3.2-4.643a.748.748 0 1 0-.793-1.271c-1.45.905-2.62 2.898-3.262 4.183a6 6 0 0 0-.931-.783.75.75 0 0 0-.821 1.256c.01.006.848.565 1.247 1.328" clip-rule="evenodd"/></svg>