<svg xmlns="http://www.w3.org/2000/svg" fill="none" viewBox="0 0 24 24"><path fill="currentColor" fill-rule="evenodd" d="M3.361 20.639C4.972 22.25 7.321 22.25 12 22.25s7.028-.001 8.639-1.611S22.25 16.679 22.25 12s-.001-7.028-1.611-8.639S16.679 1.75 12 1.75s-7.028 0-8.639 1.611S1.75 7.321 1.75 12s0 7.028 1.611 8.639M12 3.25c4.266 0 6.408 0 7.579 1.171S20.75 7.734 20.75 12s0 6.408-1.171 7.579S16.266 20.75 12 20.75s-6.407 0-7.579-1.171S3.25 16.266 3.25 12s0-6.408 1.171-7.579S7.734 3.25 12 3.25M9.651 16.318a.86.86 0 0 0 .74.423h.025a.85.85 0 0 0 .736-.467c.67-1.326 1.66-3.078 2.432-4.021l.145-.177.007-.008c.42-.514.676-.827 1.171-1.304.27-.258.432-.405.748-.645a9 9 0 0 1 .724-.472.75.75 0 0 0-.76-1.293c-.057.033-.552.326-.873.571a9 9 0 0 0-.88.758c-.56.539-.852.897-1.293 1.436l-.006.007-.144.176c-.756.923-1.577 2.349-2.114 3.345a4 4 0 0 0-.628-.614 50 50 0 0 0-1.229-.887l-.024-.017a.75.75 0 1 0-.858 1.23l.008.006c.082.057.768.537 1.195.862.271.206.591.604.878 1.09" clip-rule="evenodd"/></svg>