<svg xmlns="http://www.w3.org/2000/svg" fill="none" viewBox="0 0 24 24"><path fill="currentColor" fill-rule="evenodd" d="M8.25 3.402v1.75c0 .315.107.616.297.852l1.737 2.154a.24.24 0 0 0 .169.092h3.094a.24.24 0 0 0 .169-.092l1.737-2.154a1.36 1.36 0 0 0 .297-.852v-1.75L14.268 4.68a1.73 1.73 0 0 1-1.13.421h-2.276a1.73 1.73 0 0 1-1.13-.421zM9.116 9.1q.046.058.097.11l-.882 5.74c-.09.593-.464 1.258-1.001 2q-.11.15-.224.301H6a.75.75 0 0 0-.047 1.499q-.12.167-.231.332c-.355.532-.54 1.342-.449 2.044.048.362.178.767.474 1.093.314.346.753.532 1.262.532h9.982c.509 0 .947-.186 1.262-.532.296-.326.426-.73.474-1.093.091-.702-.095-1.512-.449-2.044q-.11-.164-.231-.332a.75.75 0 0 0-.047-1.5h-1.107q-.113-.15-.223-.302c-.537-.741-.91-1.406-1.001-2l-.882-5.738q.05-.053.097-.11l1.736-2.154a2.86 2.86 0 0 0 .63-1.794V2.208c0-.767-.913-1.29-1.568-.727l.489.567-.489-.567-2.393 2.061a.23.23 0 0 1-.151.058h-2.276a.23.23 0 0 1-.15-.058L8.316 1.481c-.654-.564-1.567-.04-1.567.727v2.944c0 .652.221 1.287.63 1.794zm5.942 8.151c-.406-.631-.759-1.336-.872-2.073l-.833-5.426h-2.706l-.833 5.426c-.113.737-.467 1.442-.873 2.073zm-7.216 1.5-.05.064-.105.134c-.278.355-.523.672-.716.964-.143.213-.258.655-.21 1.019.022.17.071.251.096.278l.001.002c.008.008.034.039.151.039h9.982c.117 0 .143-.03.15-.04h.002c.025-.028.074-.108.096-.28.048-.363-.067-.805-.21-1.018a16 16 0 0 0-.716-.964l-.105-.134-.05-.064z" clip-rule="evenodd"/></svg>