<svg xmlns="http://www.w3.org/2000/svg" fill="none" viewBox="0 0 24 24"><path fill="currentColor" fill-rule="evenodd" d="M2.75 12a9.25 9.25 0 1 1 18.5 0 9.25 9.25 0 0 1-18.5 0M12 1.25C6.063 1.25 1.25 6.063 1.25 12S6.063 22.75 12 22.75 22.75 17.937 22.75 12 17.937 1.25 12 1.25m-1.403 7.18a.75.75 0 1 1 .975 1.14l-.001.001-.005.004-.02.017a13 13 0 0 0-.362.321c-.236.214-.549.506-.86.819-.313.316-.61.64-.823.92q-.16.211-.224.338L9.27 12l.006.01q.064.126.224.338c.213.28.51.604.824.92a23 23 0 0 0 1.221 1.14l.02.017.005.004.001.001a.75.75 0 0 1-.975 1.14l-.001-.001a26 26 0 0 1-.419-.37 24 24 0 0 1-.917-.874 11 11 0 0 1-.953-1.068 4 4 0 0 1-.362-.555c-.089-.173-.195-.423-.195-.702 0-.28.106-.53.195-.702.098-.188.227-.377.362-.555.271-.356.62-.733.953-1.068a24 24 0 0 1 1.305-1.217l.023-.02.007-.006zm4.416 0a.75.75 0 1 1 .974 1.14v.001l-.005.004-.02.017a19 19 0 0 0-.362.321c-.236.214-.55.506-.86.819-.314.316-.61.64-.824.92q-.16.211-.224.338l-.005.01.005.01q.064.126.224.338c.213.28.51.604.824.92a23 23 0 0 0 1.143 1.072l.079.068.02.017.004.004.001.001a.75.75 0 0 1-.974 1.14h-.001v-.001a25 25 0 0 1-.42-.37 24 24 0 0 1-.917-.874 11 11 0 0 1-.953-1.068 4 4 0 0 1-.361-.555c-.09-.173-.196-.423-.196-.702 0-.28.106-.53.196-.702a4 4 0 0 1 .361-.555c.272-.356.621-.733.953-1.068a24 24 0 0 1 1.305-1.217l.024-.02.006-.006z" clip-rule="evenodd"/></svg>