<svg xmlns="http://www.w3.org/2000/svg" fill="none" viewBox="0 0 24 24"><path fill="currentColor" fill-rule="evenodd" d="M2.75 12a9.25 9.25 0 1 1 18.5 0 9.25 9.25 0 0 1-18.5 0M12 1.25C6.063 1.25 1.25 6.063 1.25 12S6.063 22.75 12 22.75 22.75 17.937 22.75 12 17.937 1.25 12 1.25m3.741 6.715a.75.75 0 0 0-1.498.07c.1 2.147-.118 3.266-1.168 4.312-.533.53-1.05.83-1.652 1.002a5.3 5.3 0 0 1-.941.171c.159-.161.331-.341.476-.521a.75.75 0 0 0-1.168-.942c-.101.126-.238.27-.402.436l-.122.124h-.002c-.124.126-.258.26-.377.388a3.5 3.5 0 0 0-.455.58c-.08.137-.237.445-.173.801.006.312.158.562.235.679.127.194.298.383.451.541q.204.21.377.376c.186.183.344.337.472.495a.75.75 0 1 0 1.165-.945 7 7 0 0 0-.47-.506c.475-.04.923-.113 1.348-.235.864-.248 1.598-.687 2.296-1.381 1.512-1.506 1.715-3.175 1.608-5.445" clip-rule="evenodd"/></svg>