<svg xmlns="http://www.w3.org/2000/svg" fill="none" viewBox="0 0 24 24"><path fill="currentColor" fill-rule="evenodd" d="M2.75 12a9.25 9.25 0 1 1 18.5 0 9.25 9.25 0 0 1-18.5 0M12 1.25C6.063 1.25 1.25 6.063 1.25 12S6.063 22.75 12 22.75 22.75 17.937 22.75 12 17.937 1.25 12 1.25M12.777 7a.75.75 0 0 0-1.5 0v5.488l-.046-.056a27 27 0 0 1-.63-.803 7 7 0 0 0-.568-.672.75.75 0 0 0-1.043 1.078c.085.081.222.25.426.513l.13.168.001.001c.16.207.34.441.523.664.233.286.495.585.762.823.236.21.601.493 1.04.54l.07.005a1.2 1.2 0 0 0 .225-.019c.378-.066.695-.295.902-.465.283-.234.564-.536.814-.826.228-.265.45-.544.64-.784l.06-.076c.217-.272.368-.458.464-.554a.75.75 0 1 0-1.063-1.059c-.168.17-.377.432-.575.68l-.06.075c-.183.23-.375.473-.572.704zm-4.765 9.253a.75.75 0 0 0 0 1.5h7.992a.75.75 0 0 0 0-1.5z" clip-rule="evenodd"/></svg>