<svg xmlns="http://www.w3.org/2000/svg" fill="none" viewBox="0 0 24 24"><path fill="currentColor" fill-rule="evenodd" d="M2.75 12a9.25 9.25 0 1 1 18.5 0 9.25 9.25 0 0 1-18.5 0M12 1.25C6.063 1.25 1.25 6.063 1.25 12S6.063 22.75 12 22.75 22.75 17.937 22.75 12 17.937 1.25 12 1.25m-1.889 7.194a.75.75 0 0 0-1.198-.903c-.13.172-.32.361-.55.59l-.3.302a5 5 0 0 0-.476.542c-.1.136-.28.397-.312.718-.034.202.005.38.044.499.049.144.122.271.187.37.131.2.31.4.476.575.137.145.29.297.432.438l.096.096c.174.174.323.325.435.455a.75.75 0 1 0 1.134-.982 11 11 0 0 0-.51-.535l-.038-.038h.008l.303-.004c.418-.005.819-.01 1.203-.002.476.01.89.041 1.23.108.341.067.55.159.67.251.108.094.22.262.308.569.09.314.141.715.165 1.202.023.479.018 1 .014 1.562v.023l-.002.196-.048-.051a7 7 0 0 0-.523-.523.75.75 0 0 0-.99 1.127c.121.106.255.245.413.416l.106.114c.123.133.257.28.388.412.169.17.368.356.583.498.185.12.461.265.794.267.19.02.355-.024.46-.063.141-.051.266-.125.364-.193.198-.135.399-.316.576-.488.181-.175.366-.369.53-.541h.001c.17-.179.313-.329.43-.441a.75.75 0 0 0-1.036-1.085c-.143.137-.306.309-.462.472l-.018.019-.068.071.001-.195v-.044a29 29 0 0 0-.015-1.625c-.026-.533-.084-1.069-.222-1.547-.139-.479-.374-.957-.794-1.309l-.015-.012c-.385-.306-.861-.464-1.32-.554a9 9 0 0 0-1.488-.136 38 38 0 0 0-1.264.002l-.266.003c.203-.206.414-.428.564-.626" clip-rule="evenodd"/></svg>