<svg xmlns="http://www.w3.org/2000/svg" fill="none" viewBox="0 0 24 24"><path fill="currentColor" fill-rule="evenodd" d="M2.75 12a9.25 9.25 0 1 1 18.5 0 9.25 9.25 0 0 1-18.5 0M12 1.25C6.063 1.25 1.25 6.063 1.25 12S6.063 22.75 12 22.75 22.75 17.937 22.75 12 17.937 1.25 12 1.25m5.033 6.78a.746.746 0 0 0 0-1.06.75.75 0 0 0-1.061 0l-2.73 2.727a10 10 0 0 1-.035-1.271.75.75 0 0 0-1.5-.058c-.035.944 0 2.62.65 3.274.653.652 2.332.69 3.276.652a.75.75 0 1 0-.057-1.5 10 10 0 0 1-1.272-.036zm-4.737 7.6q.01-.225.01-.498v.002c0-.953-.11-2.228-.66-2.777-.653-.652-2.331-.69-3.275-.652a.75.75 0 0 0 .057 1.5 10 10 0 0 1 1.272.035l-2.732 2.73a.75.75 0 1 0 1.061 1.062l2.732-2.73c.036.386.053.842.036 1.271a.75.75 0 0 0 1.5.057" clip-rule="evenodd"/></svg>