<svg xmlns="http://www.w3.org/2000/svg" fill="none" viewBox="0 0 24 24"><path fill="currentColor" fill-rule="evenodd" d="M2.75 12a9.25 9.25 0 1 1 18.5 0 9.25 9.25 0 0 1-18.5 0M12 1.25C6.063 1.25 1.25 6.063 1.25 12S6.063 22.75 12 22.75 22.75 17.937 22.75 12 17.937 1.25 12 1.25M9.762 8.035a.75.75 0 0 0-1.498-.07c-.107 2.27.097 3.94 1.608 5.445.698.694 1.433 1.133 2.296 1.381.426.122.873.195 1.349.235a7 7 0 0 0-.47.506.75.75 0 0 0 1.165.945 6 6 0 0 1 .472-.495q.172-.166.376-.376c.153-.158.324-.347.452-.541.076-.117.228-.367.234-.678.065-.357-.093-.665-.173-.802a3.5 3.5 0 0 0-.455-.58 17 17 0 0 0-.377-.387l-.123-.125a6 6 0 0 1-.403-.436.75.75 0 1 0-1.167.942c.144.18.316.36.476.521a5.3 5.3 0 0 1-.942-.17c-.602-.173-1.12-.473-1.651-1.003-1.05-1.046-1.27-2.165-1.169-4.312" clip-rule="evenodd"/></svg>