<svg xmlns="http://www.w3.org/2000/svg" fill="none" viewBox="0 0 24 24"><path fill="currentColor" fill-rule="evenodd" d="M2.75 12a9.25 9.25 0 1 1 18.5 0 9.25 9.25 0 0 1-18.5 0M12 1.25C6.063 1.25 1.25 6.063 1.25 12S6.063 22.75 12 22.75 22.75 17.937 22.75 12 17.937 1.25 12 1.25m.9 7.553c.19.01.456-.004.697-.017h.001l.056-.003q.26-.016.528-.026l-5.425 5.425q.01-.268.026-.528l.003-.056v-.001c.013-.24.027-.507.017-.697a.75.75 0 1 0-1.498.079c.005.09-.002.264-.017.538l-.003.06c-.014.242-.03.528-.034.812a6 6 0 0 0 .046.938c.037.256.123.67.415.961.291.292.705.378.96.415.3.044.634.05.939.046.284-.005.57-.02.812-.034l.06-.003a7 7 0 0 1 .538-.017.75.75 0 0 0 .079-1.498c-.19-.01-.456.004-.697.017h-.001l-.056.003q-.26.016-.528.026l5.425-5.425q-.01.269-.026.527l-.003.057v.001c-.013.24-.027.507-.017.697a.75.75 0 0 0 1.498-.079 7 7 0 0 1 .017-.538l.003-.06c.014-.242.03-.528.034-.812a6 6 0 0 0-.046-.938c-.037-.256-.123-.67-.415-.961-.291-.292-.705-.378-.96-.415-.3-.044-.634-.05-.939-.046-.284.005-.57.02-.812.034l-.06.003a7 7 0 0 1-.538.017.75.75 0 0 0-.079 1.498" clip-rule="evenodd"/></svg>