<svg xmlns="http://www.w3.org/2000/svg" fill="none" viewBox="0 0 24 24"><path fill="currentColor" fill-rule="evenodd" d="M5.25 6.5a5.25 5.25 0 1 1 10.5 0V9l-.004.08a7.8 7.8 0 0 1 1.917 2.356.75.75 0 0 1-1.326.701C15.275 10.13 13.13 8.75 10.648 8.75 7.1 8.75 4.25 11.563 4.25 15c0 3.457 2.722 6.25 6.25 6.25a.75.75 0 0 1 0 1.5c-4.368 0-7.75-3.476-7.75-7.75 0-2.237.963-4.246 2.5-5.657zm9 0v1.601a8 8 0 0 0-3.602-.851A8 8 0 0 0 6.75 8.259V6.5a3.75 3.75 0 1 1 7.5 0m-.22 7.97a.75.75 0 1 0-1.06 1.06l2.97 2.97-2.97 2.97a.75.75 0 1 0 1.06 1.06L17 19.56l2.97 2.97a.75.75 0 1 0 1.06-1.06l-2.97-2.97 2.97-2.97a.75.75 0 1 0-1.06-1.06L17 17.44z" clip-rule="evenodd"/></svg>