<svg xmlns="http://www.w3.org/2000/svg" fill="none" viewBox="0 0 24 24"><path fill="currentColor" fill-rule="evenodd" d="M7.46 5.208c1.213-.877 2.072-1.497 2.798-1.904.708-.398 1.225-.554 1.742-.554s1.034.156 1.742.554c.726.407 1.585 1.027 2.798 1.904l1.44 1.04c.975.706 1.662 1.204 2.163 1.649.49.434.753.777.911 1.147.157.368.22.786.188 1.422-.031.653-.156 1.47-.335 2.634l-.3 1.959c-.254 1.648-.434 2.812-.689 3.69-.248.855-.542 1.348-.969 1.703-.43.357-.988.57-1.913.682-.944.115-2.171.116-3.897.116H10.86c-1.726 0-2.953-.001-3.897-.116-.925-.112-1.484-.325-1.913-.682-.427-.355-.721-.848-.97-1.703-.254-.878-.434-2.042-.687-3.69l-.301-1.96c-.18-1.163-.304-1.98-.335-2.633-.031-.636.03-1.054.188-1.422.158-.37.421-.713.91-1.147.502-.445 1.189-.943 2.165-1.648zM12 1.25c-.866 0-1.64.277-2.476.746-.81.454-1.738 1.125-2.905 1.97l-1.51 1.09c-.936.677-1.684 1.218-2.248 1.719-.582.517-1.018 1.032-1.295 1.68-.277.65-.344 1.315-.307 2.083.036.74.174 1.635.345 2.75l.315 2.05c.244 1.585.437 2.846.722 3.828.294 1.016.71 1.823 1.45 2.44.739.613 1.618.887 2.692 1.017 1.045.127 2.363.127 4.028.127h2.378c1.665 0 2.983 0 4.028-.127 1.074-.13 1.953-.404 2.692-1.018.74-.616 1.156-1.423 1.45-2.439.285-.982.478-2.244.722-3.827l.315-2.052c.171-1.114.309-2.008.345-2.749.037-.768-.03-1.433-.307-2.083-.277-.648-.713-1.163-1.295-1.68-.564-.5-1.312-1.042-2.249-1.719l-1.509-1.09c-1.167-.845-2.095-1.516-2.905-1.97-.836-.47-1.61-.746-2.476-.746m.75 8.75a.75.75 0 0 0-1.5 0v2.25H9a.75.75 0 0 0 0 1.5h2.25V16a.75.75 0 0 0 1.5 0v-2.25H15a.75.75 0 0 0 0-1.5h-2.25z" clip-rule="evenodd"/></svg>