<svg xmlns="http://www.w3.org/2000/svg" fill="none" viewBox="0 0 24 24"><path fill="currentColor" fill-rule="evenodd" d="M14.346 3.07c-4.317-1.153-8.732.907-10.685 4.7l1.433.088a.75.75 0 0 1-.091 1.497l-2.51-.152a.75.75 0 0 1-.656-1.015C3.772 3.08 9.324.176 14.733 1.62c5.761 1.539 9.19 7.432 7.648 13.168s-7.467 9.13-13.227 7.592a10.79 10.79 0 0 1-7.895-8.782.75.75 0 0 1 1.483-.227 9.29 9.29 0 0 0 6.799 7.56c4.968 1.326 10.066-1.603 11.391-6.532 1.326-4.928-1.618-10.003-6.586-11.33M12.75 8a.75.75 0 0 0-1.5 0v4c0 .199.08.39.22.53l2 2a.75.75 0 1 0 1.06-1.06l-1.78-1.78z" clip-rule="evenodd"/></svg>