<svg xmlns="http://www.w3.org/2000/svg" fill="none" viewBox="0 0 24 24"><path fill="currentColor" fill-rule="evenodd" d="M6.944 3.75c1.223 0 1.64.011 1.992.143.827.31 1.19 1.037 1.744 2.144l.107.213H9a.75.75 0 0 0 0 1.5h7.75c1.069 0 1.814.001 2.389.06.562.057.877.163 1.111.32.246.163.457.374.62.62.157.235.264.55.32 1.111.06.575.06 1.32.06 2.39 0 1.77 0 3.042-.102 4.03-.099.977-.289 1.594-.614 2.08a4.3 4.3 0 0 1-1.173 1.173c-.487.325-1.103.515-2.08.615-.988.1-2.26.101-4.031.101H12c-2.378 0-4.086-.002-5.386-.176-1.279-.172-2.05-.5-2.62-1.069-.569-.57-.896-1.34-1.068-2.618-.174-1.3-.176-3.009-.176-5.387V7.944c0-.921 0-1.564.045-2.063.043-.488.123-.767.24-.977a2.25 2.25 0 0 1 .869-.869c.21-.117.489-.197.977-.24.5-.044 1.142-.045 2.063-.045m5.093 1.648.426.852h4.327c1.02 0 1.841 0 2.5.067.681.07 1.271.216 1.793.565.41.274.761.625 1.035 1.035.349.522.496 1.112.565 1.793.067.659.067 1.48.067 2.5v.082c0 1.72 0 3.068-.11 4.142-.11 1.094-.342 1.986-.859 2.76a5.8 5.8 0 0 1-1.586 1.587c-.775.517-1.667.749-2.761.86-1.074.11-2.422.11-4.142.11h-1.35c-2.308 0-4.117 0-5.528-.19-1.445-.195-2.585-.6-3.48-1.495s-1.3-2.035-1.494-3.48c-.19-1.411-.19-3.22-.19-5.528V7.91c0-.88 0-1.588.05-2.16.052-.59.162-1.106.425-1.577a3.75 3.75 0 0 1 1.448-1.448c.47-.263.987-.373 1.577-.424.572-.05 1.28-.05 2.16-.05h.034l.139-.001c1.029 0 1.74 0 2.38.239 1.395.523 2.007 1.762 2.48 2.717zm2.973 7.17a.75.75 0 0 1 .98-1.136l.92.793.027.024c.17.145.348.3.48.448.148.167.333.433.333.803s-.185.636-.333.803a5 5 0 0 1-.48.448l-.027.024-.92.793a.75.75 0 0 1-.98-1.136l.92-.793.16-.139-.16-.139zM9.068 11.51a.75.75 0 0 1-.078 1.058l-.92.793-.16.139.16.139.92.793a.75.75 0 0 1-.98 1.136l-.92-.793-.027-.024a5 5 0 0 1-.48-.448c-.148-.167-.333-.433-.333-.803s.185-.636.333-.803a5 5 0 0 1 .48-.448l.027-.024.92-.793a.75.75 0 0 1 1.058.078m4.629-.231a.75.75 0 0 0-1.393-.557l-2 5a.75.75 0 0 0 1.393.557z" clip-rule="evenodd"/></svg>