<svg xmlns="http://www.w3.org/2000/svg" fill="none" viewBox="0 0 24 24"><path fill="currentColor" fill-rule="evenodd" d="M18 1.25a.75.75 0 0 1 .75.75v3.25H22a.75.75 0 0 1 0 1.5h-3.25V10a.75.75 0 0 1-1.5 0V6.75H14a.75.75 0 0 1 0-1.5h3.25V2a.75.75 0 0 1 .75-.75m-8.056 1H11.5a.75.75 0 0 1 0 1.5H10c-1.907 0-3.261.002-4.29.14-1.005.135-1.585.389-2.008.812S3.025 5.705 2.89 6.71c-.138 1.029-.14 2.383-.14 4.29v.5c0 1.907.002 3.262.14 4.29.135 1.005.389 1.585.812 2.008.398.398.992.704 1.846.867l.034-.121c.082-.288.146-.515.183-.695a.75.75 0 0 1 1.47.302c-.05.24-.133.534-.215.82l-.046.161a19 19 0 0 0-.15.562q-.063.248-.107.487-.094.52-.054.826c.021.154.06.216.085.242.037.003.138-.002.352-.071.39-.126.918-.381 1.721-.773l.497-.247h.001c.926-.462 1.964-.98 3.067-1.234h.002c.505-.115 1.005-.16 1.595-.174H14c1.907 0 3.262-.002 4.29-.14 1.005-.135 1.585-.389 2.008-.812.405-.404.654-.951.793-1.875.143-.946.158-2.188.159-3.924a.75.75 0 0 1 1.5.002c-.001 1.704-.013 3.067-.176 4.146-.166 1.1-.501 1.998-1.215 2.712-.749.748-1.698 1.08-2.87 1.238-1.14.153-2.595.153-4.433.153h-.048c-.526.012-.916.052-1.286.136-.914.21-1.766.634-2.694 1.096h-.001l-.548.271-.053.026c-.736.359-1.362.664-1.865.826-.506.164-1.136.267-1.686-.133l-.007-.005c-.45-.335-.632-.82-.691-1.26a4 4 0 0 1 .029-1.08c-1.04-.209-1.912-.616-2.565-1.268-.748-.749-1.08-1.698-1.238-2.87-.153-1.14-.153-2.595-.153-4.433v-.612c0-1.838 0-3.294.153-4.433.158-1.172.49-2.121 1.238-2.87.749-.748 1.698-1.08 2.87-1.238 1.14-.153 2.595-.153 4.433-.153M6.729 21.246l.011.003q-.012-.002-.01-.003M8 8.25a.75.75 0 0 0 0 1.5h3a.75.75 0 0 0 0-1.5zm0 5a.75.75 0 0 0 0 1.5h6a.75.75 0 0 0 0-1.5z" clip-rule="evenodd"/></svg>