<svg xmlns="http://www.w3.org/2000/svg" fill="none" viewBox="0 0 24 24"><path fill="currentColor" fill-rule="evenodd" d="M9.956 1.25H11.5a.75.75 0 0 1 0 1.5H10c-1.656 0-2.84 0-3.756.097-.903.096-1.46.277-1.895.58a3.8 3.8 0 0 0-.92.922c-.305.434-.486.992-.581 1.895-.097.917-.098 2.1-.098 3.756s.001 2.839.098 3.756c.095.903.276 1.46.58 1.895.251.358.563.67.921.92.434.305.992.486 1.895.581.917.097 2.1.098 3.756.098h4c1.656 0 2.84-.001 3.756-.098.903-.095 1.46-.276 1.895-.58.358-.251.67-.563.92-.921.272-.388.446-.875.548-1.617.103-.756.126-1.718.13-3.037a.75.75 0 0 1 1.5.005c-.004 1.307-.025 2.366-.144 3.236-.121.882-.35 1.623-.805 2.273a5.3 5.3 0 0 1-1.289 1.29c-.728.509-1.571.735-2.598.843-1.004.106-2.267.106-3.87.106H12.75v2.5H16a.75.75 0 1 1 0 1.5H8a.75.75 0 0 1 0-1.5h3.25v-2.5H9.956c-1.602 0-2.865 0-3.869-.106-1.027-.108-1.87-.334-2.598-.844a5.3 5.3 0 0 1-1.29-1.289c-.51-.728-.735-1.571-.843-2.598-.106-1.005-.106-2.267-.106-3.87v-.087c0-1.603 0-2.865.106-3.87.108-1.026.334-1.87.843-2.598A5.3 5.3 0 0 1 3.49 2.2c.728-.51 1.571-.735 2.598-.843 1.004-.106 2.267-.106 3.87-.106m12.76.525a.75.75 0 0 1-.491.94c-1.394.438-2.774 1.778-3.856 3.135a21 21 0 0 0-1.686 2.466l-.021.037-.005.008v.002a.75.75 0 0 1-1.37-.13l-.003-.01-.017-.047a4 4 0 0 0-.386-.762c-.298-.45-.603-.664-.881-.664a.75.75 0 0 1 0-1.5c1.005 0 1.679.69 2.06 1.23a22 22 0 0 1 1.136-1.565c1.107-1.389 2.727-3.049 4.58-3.63a.75.75 0 0 1 .94.49M11 14.25a.75.75 0 1 0 0 1.5h2a.75.75 0 0 0 0-1.5z" clip-rule="evenodd"/></svg>