<svg xmlns="http://www.w3.org/2000/svg" fill="none" viewBox="0 0 24 24"><path fill="currentColor" fill-rule="evenodd" d="M14.044 1.25H9.956c-1.602 0-2.865 0-3.869.106-1.027.108-1.87.334-2.598.843a5.3 5.3 0 0 0-1.29 1.29c-.51.728-.735 1.571-.843 2.598-.106 1.004-.106 2.267-.106 3.87v.087c0 1.602 0 2.865.106 3.869.108 1.027.334 1.87.843 2.598a5.3 5.3 0 0 0 1.29 1.29c.728.51 1.571.735 2.598.843.948.1 2.125.106 3.602.106.169.857-.018 1.776-.473 2.38l-.09.12H7a.75.75 0 0 0 0 1.5h10a.75.75 0 0 0 0-1.5h-2.126l-.09-.12c-.455-.604-.642-1.523-.473-2.38 1.477 0 2.654-.006 3.602-.106 1.027-.108 1.87-.334 2.598-.843a5.3 5.3 0 0 0 1.29-1.29c.51-.728.735-1.571.843-2.598.106-1.004.106-2.267.106-3.87v-.087c0-1.602 0-2.865-.106-3.869-.108-1.027-.334-1.87-.843-2.598a5.3 5.3 0 0 0-1.29-1.29c-.728-.51-1.571-.735-2.598-.843-1.004-.106-2.267-.106-3.87-.106m-.914 20a4.74 4.74 0 0 1-.338-2.5h-1.584a4.74 4.74 0 0 1-.338 2.5zM4.35 3.428c.433-.304.99-.485 1.894-.58.917-.097 2.1-.098 3.756-.098h4c1.656 0 2.84.001 3.756.098.903.095 1.46.276 1.895.58.358.251.67.563.92.921.305.434.486.992.581 1.895.097.917.098 2.1.098 3.756s-.001 2.84-.098 3.756c-.095.903-.276 1.46-.58 1.895a3.8 3.8 0 0 1-.921.92c-.434.305-.992.486-1.895.581-.917.097-2.1.098-3.756.098h-4c-1.656 0-2.84-.001-3.756-.098-.903-.095-1.46-.276-1.895-.58a3.8 3.8 0 0 1-.92-.921c-.305-.434-.486-.992-.581-1.895-.097-.917-.098-2.1-.098-3.756s.001-2.84.098-3.756c.095-.903.276-1.46.58-1.895.251-.358.563-.67.921-.92M11 14.25a.75.75 0 0 0 0 1.5h2a.75.75 0 0 0 0-1.5z" clip-rule="evenodd"/></svg>