<svg xmlns="http://www.w3.org/2000/svg" fill="none" viewBox="0 0 24 24"><path fill="currentColor" fill-rule="evenodd" d="M14 2.75h-1.25v.528c5.034.383 9 4.59 9 9.722 0 5.385-4.365 9.75-9.75 9.75S2.25 18.385 2.25 13c0-5.132 3.966-9.339 9-9.722V2.75H10a.75.75 0 0 1 0-1.5h4a.75.75 0 0 1 0 1.5M3.75 13a8.25 8.25 0 1 1 16.5 0 8.25 8.25 0 0 1-16.5 0m5.296-.913-.053-.024q.064-.041.147-.088c.47-.268 1.179-.546 1.96-.773.776-.225 1.578-.385 2.223-.435.324-.026.582-.021.766.006q.076.011.12.022l.012.07c.025.166.036.405.024.708a12.5 12.5 0 0 1-.3 2.125c-.17.76-.392 1.476-.63 1.99-.11.238-.21.405-.291.509-.079-.088-.172-.246-.269-.482-.098-.24-.18-.51-.252-.777l-.056-.208c-.05-.185-.1-.375-.145-.508-.12-.358-.279-.698-.562-.978-.283-.278-.623-.43-.975-.547-.8-.264-1.348-.446-1.719-.61m3.892 4.201.005-.003zm2.363-6.564c-.291-.288-.69-.392-.997-.436a5 5 0 0 0-1.098-.017c-.773.06-1.679.245-2.524.49-.842.245-1.673.563-2.283.91-.3.17-.597.375-.81.62-.205.233-.468.672-.271 1.193.106.28.299.479.487.62.187.141.408.256.637.356.445.196 1.061.4 1.812.648l.04.013c.267.089.352.15.393.192.04.04.104.123.194.388.028.085.058.197.099.35l.076.284a8 8 0 0 0 .31.948c.13.317.314.677.582.96.285.3.705.548 1.245.502.447-.039.764-.327.956-.554.206-.245.38-.554.529-.874.298-.646.549-1.473.731-2.293.184-.823.307-1.68.335-2.393a5.3 5.3 0 0 0-.04-.995c-.04-.255-.129-.64-.403-.912" clip-rule="evenodd"/></svg>