<svg xmlns="http://www.w3.org/2000/svg" fill="none" viewBox="0 0 24 24"><path fill="currentColor" fill-rule="evenodd" d="M10.945 2.25h2.11c1.367 0 2.47 0 3.337.116.9.121 1.658.38 2.26.982s.86 1.36.982 2.26c.116.867.116 1.97.116 3.337v6.11c0 1.367 0 2.47-.116 3.337-.122.9-.38 1.658-.982 2.26s-1.36.86-2.26.981c-.867.117-1.97.117-3.337.117h-2.11c-1.367 0-2.47 0-3.337-.117-.9-.12-1.658-.38-2.26-.982-.602-.601-.86-1.36-.981-2.26-.117-.866-.117-1.968-.117-3.336v-6.11c0-1.368 0-2.47.117-3.337.12-.9.38-1.658.981-2.26.602-.602 1.36-.86 2.26-.982.867-.116 1.97-.116 3.337-.116M7.808 3.853c-.734.099-1.122.28-1.399.556-.277.277-.457.665-.556 1.4-.101.754-.103 1.756-.103 3.19v6c0 1.436.002 2.437.103 3.193.099.733.28 1.122.556 1.399.277.277.665.457 1.4.556.754.101 1.756.103 3.191.103h2c1.435 0 2.437-.002 3.192-.103.734-.099 1.122-.28 1.399-.556.277-.277.457-.666.556-1.4.101-.755.103-1.756.103-3.191V9c0-1.435-.002-2.437-.103-3.192-.099-.734-.28-1.122-.556-1.399-.277-.277-.665-.457-1.4-.556-.754-.101-1.756-.103-3.191-.103h-2c-1.435 0-2.437.002-3.192.103M12 7.258a1.25 1.25 0 1 0 0 2.5 1.25 1.25 0 0 0 0-2.5m-2.75 1.25a2.75 2.75 0 1 1 5.5 0 2.75 2.75 0 0 1-5.5 0m-.043 7.852a4 4 0 0 1-.387-.434c.905-1.228 2.236-1.685 3.178-1.684.937.001 2.227.45 3.13 1.684-.1.133-.235.29-.386.434-.123.117-.238.21-.337.272a.6.6 0 0 1-.131.067c-.586.061-2.157.072-2.274.073-.13-.001-1.74-.012-2.324-.073 0 0-.042-.011-.131-.067a2.2 2.2 0 0 1-.337-.272M12 12.742c-1.437-.001-3.37.711-4.585 2.58-.179.276-.283.709-.05 1.122.167.296.47.68.805 1 .17.163.366.326.575.458.2.126.465.256.765.288.678.072 2.416.081 2.484.082h.012c.062 0 1.754-.01 2.433-.082.3-.032.564-.162.764-.288.21-.132.405-.295.576-.458.334-.32.638-.704.805-1a1.08 1.08 0 0 0-.05-1.122c-1.21-1.863-3.091-2.578-4.534-2.58M22 6.25a.75.75 0 0 1 .75.75v10a.75.75 0 0 1-1.5 0V7a.75.75 0 0 1 .75-.75M2.75 7a.75.75 0 0 0-1.5 0v10a.75.75 0 0 0 1.5 0z" clip-rule="evenodd"/></svg>