<svg xmlns="http://www.w3.org/2000/svg" fill="none" viewBox="0 0 24 24"><path fill="currentColor" fill-rule="evenodd" d="M22.53 2.53a.75.75 0 1 0-1.06-1.06l-2.022 2.022c-2.745-2.114-5.825-1.062-7.123-.01-.535.432-.847.757-1.06.978l-.127.13c-.507.475-.826 1.029-.865 1.64-.039.618.218 1.155.583 1.572q.049.056.141.15L9.98 8.977a.75.75 0 0 0 1.064 1.058L12.06 9.01c.524.52 1.157 1.15 1.779 1.789l.007.007.665.668.483.486-1.015.99a.75.75 0 0 0 1.048 1.074l1.027-1.002c.1.096.203.189.305.268.348.271.782.483 1.354.47.564-.002 1.007-.257 1.347-.527.25-.2.504-.458.728-.687l.18-.184c.768-.767 1.36-1.754 1.577-2.694.523-2.21-.122-3.91-1.04-5.113zm-9.26 2.117a4.35 4.35 0 0 1 5.686.396c.884.942 1.594 2.323 1.13 4.283l-.001.004c-.142.616-.567 1.363-1.176 1.972q-.133.133-.243.247c-.207.21-.368.375-.538.51-.212.169-.334.203-.424.203h-.019c-.142.003-.25-.035-.403-.154a4 4 0 0 1-.4-.382q-.12-.125-.287-.293l-.009-.009c-.262-.253-.597-.59-.992-.988l-.001-.001-.682-.685c-.74-.76-1.498-1.511-2.063-2.07l-.263-.26a22 22 0 0 1-.6-.606c-.179-.205-.221-.368-.214-.49.008-.123.076-.344.4-.645l.01-.01.01-.009.168-.172c.212-.22.455-.472.91-.84m-6.943 7.111c.113-.003.243.037.448.201.158.127.294.268.464.444q.124.13.284.29v.001l.009.008c.265.256.557.55.926.922l.642.645c.674.692 1.361 1.374 1.905 1.912l.123.122c.494.49.817.81.897.9.18.205.222.368.214.49s-.075.343-.4.644l-.01.01-.01.01q-.082.082-.168.171c-.211.22-.454.471-.91.84a4.37 4.37 0 0 1-5.696-.413c-.881-.94-1.582-2.302-1.118-4.262l.001-.005c.142-.615.567-1.362 1.176-1.971q.132-.132.243-.247c.207-.21.367-.374.538-.51.212-.168.334-.202.423-.202zm-3.86 2.59c-.522 2.21.113 3.895 1.028 5.095L1.47 21.467a.75.75 0 1 0 1.06 1.06l2.022-2.021c2.742 2.113 5.83 1.082 7.132.028.534-.432.846-.756 1.06-.978l.126-.13c.507-.475.827-1.028.865-1.64.039-.617-.218-1.154-.582-1.57-.118-.135-.475-.488-.92-.929l-.174-.172a149 149 0 0 1-1.889-1.896l-.007-.007-.626-.63c-.376-.378-.685-.689-.96-.955q-.084-.084-.186-.19a8 8 0 0 0-.68-.648c-.348-.28-.813-.543-1.413-.53-.564.002-1.008.257-1.347.527-.251.2-.504.458-.728.686q-.094.098-.181.184c-.767.767-1.359 1.754-1.576 2.693" clip-rule="evenodd"/></svg>