<svg xmlns="http://www.w3.org/2000/svg" fill="none" viewBox="0 0 24 24"><path fill="currentColor" fill-rule="evenodd" d="M2.75 11c0-4.549 3.73-8.25 8.348-8.25 1.993 0 3.82.69 5.255 1.839l-1.641 1.64a.75.75 0 1 0 1.06 1.061l1.662-1.662a8.2 8.2 0 0 1 1.832 3.66.75.75 0 0 0 1.468-.313C19.79 4.557 15.83 1.25 11.098 1.25 5.667 1.25 1.25 5.608 1.25 11A9.66 9.66 0 0 0 4 17.759a.75.75 0 0 0 .244.242 9.87 9.87 0 0 0 6.854 2.749q.773-.001 1.515-.115a.75.75 0 1 0-.226-1.483q-.63.098-1.289.098a8.37 8.37 0 0 1-5.362-1.927l1.552-1.552a.75.75 0 0 0-1.06-1.061l-1.556 1.556A8.16 8.16 0 0 1 2.75 11M11 9.75a1.25 1.25 0 1 0 0 2.5 1.25 1.25 0 0 0 0-2.5M8.25 11a2.75 2.75 0 1 1 5.5 0 2.75 2.75 0 0 1-5.5 0m6 4.375a4.125 4.125 0 0 1 4.125-4.125h.25a4.125 4.125 0 0 1 2.85 7.106l.439 1.379c.105.332.194.611.25.834.055.212.11.478.074.743-.111.796-.773 1.435-1.61 1.438-.279.001-.538-.103-.73-.189a15 15 0 0 1-.753-.38l-.021-.011c-.296-.155-.357-.184-.41-.2a.74.74 0 0 0-.427 0c-.054.016-.115.045-.41.2l-.022.011c-.296.156-.549.288-.753.38-.192.086-.451.19-.73.189-.837-.003-1.499-.642-1.61-1.438-.037-.265.019-.53.073-.743.057-.223.146-.502.251-.834l.438-1.379a4.12 4.12 0 0 1-1.274-2.981m2.58 3.826-.307.966c-.114.36-.19.598-.235.774-.029.112-.035.165-.037.18v.001c.017.079.066.114.103.124a1 1 0 0 0 .133-.053c.157-.07.369-.182.692-.351l.047-.025c.223-.117.42-.22.628-.283.422-.127.87-.127 1.293 0 .208.063.404.166.628.283l.046.025c.323.17.535.28.692.35.069.032.11.047.133.054.037-.01.086-.045.103-.124-.002-.015-.008-.068-.037-.18a16 16 0 0 0-.235-.775l-.307-.966c-.477.193-1 .299-1.545.299h-.25a4.1 4.1 0 0 1-1.545-.3m1.545-6.451a2.625 2.625 0 0 0 0 5.25h.25a2.62 2.62 0 0 0 2.625-2.625 2.625 2.625 0 0 0-2.625-2.625z" clip-rule="evenodd"/></svg>