<svg xmlns="http://www.w3.org/2000/svg" fill="none" viewBox="0 0 24 24"><path fill="currentColor" fill-rule="evenodd" d="M7.774 4.003c.001.017.015.095.158.23.162.153.436.325.838.485.798.318 1.953.532 3.267.532s2.468-.214 3.266-.532c.402-.16.676-.332.838-.484.14-.133.157-.21.158-.23v-.008c-.002-.02-.018-.097-.158-.23-.162-.152-.436-.324-.837-.484-.799-.318-1.954-.532-3.267-.532-1.314 0-2.469.214-3.267.532-.402.16-.676.332-.838.484-.143.136-.157.214-.158.23zm-.439 1.661L4.781 14.76a9 9 0 0 1 .567-.274c1.75-.775 4.116-1.236 6.689-1.236s4.938.46 6.688 1.236q.294.13.567.274l-2.554-9.096a5 5 0 0 1-.876.447c-1.016.405-2.37.639-3.825.639-1.457 0-2.81-.234-3.826-.64a5 5 0 0 1-.876-.446M17.8 3.881l3.487 12.417a1 1 0 0 1 .025.137c.313.465.504.99.504 1.565 0 .796-.367 1.499-.916 2.074-.546.572-1.3 1.052-2.174 1.44-1.751.775-4.116 1.236-6.69 1.236-2.572 0-4.938-.46-6.688-1.236-.875-.388-1.629-.868-2.174-1.44-.55-.576-.917-1.278-.917-2.074 0-.575.191-1.1.504-1.564a1 1 0 0 1 .025-.138L6.274 3.88c.037-.495.303-.9.625-1.204.345-.327.806-.586 1.312-.788 1.017-.405 2.37-.639 3.826-.639s2.809.234 3.825.64c.507.201.967.46 1.313.787.322.303.587.71.625 1.204M4.264 16.961c-.365.38-.503.73-.503 1.039s.138.658.502 1.04c.368.385.936.767 1.696 1.103 1.517.672 3.665 1.107 6.078 1.107 2.412 0 4.56-.435 6.077-1.107.76-.336 1.328-.718 1.696-1.103.364-.382.502-.732.502-1.04s-.138-.658-.502-1.04c-.368-.385-.936-.767-1.696-1.103-1.516-.672-3.665-1.107-6.077-1.107s-4.561.435-6.078 1.107c-.76.336-1.328.718-1.695 1.103" clip-rule="evenodd"/></svg>