<svg xmlns="http://www.w3.org/2000/svg" fill="none" viewBox="0 0 24 24"><path fill="currentColor" fill-rule="evenodd" d="M3.23 4.444c-.434.307-.472.505-.472.556 0 .05.038.25.472.556.414.293 1.062.587 1.93.847 1.728.517 4.159.847 6.877.847s5.149-.33 6.876-.847c.869-.26 1.517-.554 1.93-.847.434-.307.472-.505.472-.556 0-.05-.038-.25-.471-.556-.414-.293-1.062-.587-1.93-.847-1.728-.517-4.16-.847-6.877-.847-2.718 0-5.15.33-6.877.847-.868.26-1.516.554-1.93.847m18.085 2.59c-.546.313-1.218.581-1.97.806-1.902.569-4.486.91-7.308.91s-5.406-.341-7.31-.91c-.75-.225-1.423-.493-1.969-.807v9.934c.546-.314 1.219-.582 1.97-.807 1.903-.569 4.487-.91 7.309-.91s5.405.341 7.309.91c.75.225 1.423.493 1.969.807zM22.82 19V5c0-.778-.524-1.368-1.106-1.78-.6-.424-1.422-.777-2.368-1.06-1.904-.569-4.487-.91-7.31-.91-2.821 0-5.405.341-7.308.91-.947.283-1.768.636-2.369 1.06-.581.412-1.105 1.002-1.105 1.78v14c0 .778.524 1.368 1.105 1.78.601.424 1.422.776 2.369 1.06 1.903.569 4.487.91 7.309.91s5.405-.341 7.309-.91c.946-.284 1.767-.636 2.368-1.06.582-.412 1.106-1.002 1.106-1.78M2.758 19c0 .05.038.25.472.556.414.293 1.062.587 1.93.847 1.728.517 4.159.847 6.877.847s5.149-.33 6.876-.847c.869-.26 1.517-.554 1.93-.847.434-.307.472-.505.472-.556 0-.05-.038-.25-.471-.556-.414-.293-1.062-.587-1.93-.847-1.728-.517-4.16-.847-6.877-.847-2.718 0-5.15.33-6.877.847-.868.26-1.516.554-1.93.847-.434.307-.472.505-.472.556" clip-rule="evenodd"/></svg>