<svg xmlns="http://www.w3.org/2000/svg" fill="none" viewBox="0 0 24 24"><path fill="currentColor" fill-rule="evenodd" d="M3.748 5c0-.123.064-.33.376-.607s.806-.56 1.48-.812c1.344-.504 3.251-.831 5.394-.831s4.05.327 5.394.83c.674.254 1.168.537 1.48.813.312.278.376.484.376.607s-.064.33-.376.607-.806.56-1.48.812c-1.344.504-3.25.831-5.394.831-2.143 0-4.05-.327-5.393-.83-.675-.254-1.169-.537-1.48-.813-.313-.278-.377-.484-.377-.607m14.5 5.5V7.185a7.6 7.6 0 0 1-1.33.639c-1.551.581-3.645.926-5.92.926s-4.368-.345-5.92-.926a7.6 7.6 0 0 1-1.33-.639V12c0 .123.064.33.376.607s.806.56 1.48.812c1.344.504 3.251.831 5.394.831a.75.75 0 1 1 0 1.5c-2.275 0-4.368-.344-5.92-.926a7.6 7.6 0 0 1-1.33-.639V19c0 .123.064.33.376.607s.806.56 1.48.812c1.344.504 3.251.831 5.394.831a.75.75 0 1 1 0 1.5c-2.275 0-4.368-.344-5.92-.926-.773-.29-1.45-.654-1.949-1.095-.497-.44-.88-1.023-.88-1.729V5c-.001-.706.383-1.288.88-1.729.498-.441 1.176-.805 1.949-1.095 1.552-.581 3.645-.926 5.92-.926s4.369.345 5.92.926c.773.29 1.451.654 1.949 1.095.497.44.881 1.023.881 1.729v5.5a.75.75 0 1 1-1.5 0m-12.034-.374a.75.75 0 0 0-.432 1.436c.64.192 1.348.349 2.104.463a.75.75 0 0 0 .225-1.483 14 14 0 0 1-1.897-.416m0 7a.75.75 0 0 0-.432 1.436c.64.192 1.348.349 2.104.463a.75.75 0 0 0 .225-1.483 14 14 0 0 1-1.897-.416m10.363-2.802c.419-.833 1.595-.72 1.876.082l.004.011c.007.019.024.088.035.233.01.135.01.29.009.462v.515h-2.004l.004-.69v-.001c0-.357 0-.47.065-.591l.006-.01zm5.04 3.076c-.315-.953-.957-1.455-1.615-1.66L20 15.123a8 8 0 0 0-.013-.58 2.4 2.4 0 0 0-.121-.638c-.73-2.069-3.62-2.244-4.626-.264-.259.487-.248 1.03-.242 1.35l.002.124-.004.612c-1.026.296-1.49 1.178-1.627 1.727a4 4 0 0 0-.09.694 16 16 0 0 0-.029.86 17 17 0 0 0 .052 1.642l.006.06.016.058c.325 1.219 1.183 1.766 2.002 1.933l.041.009.043.003c.486.044 2.193.038 3.108.035l.43-.002c.568.01 1.152-.09 1.658-.423.52-.343.864-.873 1.052-1.547l.01-.038.007-.04c.041-.247.07-.89.074-1.498.002-.316-.003-.647-.019-.942a4.6 4.6 0 0 0-.098-.804l-.006-.027zm-2.667 5.347h.006v-.75l-.014.75zm-4.125-4.929c.034-.136.117-.317.258-.455.124-.121.319-.236.658-.236h3.516c.18 0 .363.045.52.147.141.093.298.258.407.568q.027.127.05.495c.013.257.017.556.016.854a20 20 0 0 1-.04 1.12l-.009.098v.01c-.113.375-.271.554-.42.652-.168.111-.42.183-.81.176h-.522c-.906.003-2.398.008-2.862-.024a1.06 1.06 0 0 1-.462-.226c-.124-.107-.25-.276-.335-.56-.029-.33-.044-.876-.039-1.414.003-.283.012-.553.026-.777.016-.24.036-.38.048-.428" clip-rule="evenodd"/></svg>