<svg xmlns="http://www.w3.org/2000/svg" fill="none" viewBox="0 0 24 24"><path fill="currentColor" fill-rule="evenodd" d="M15.542 1.25H8.458c-.934 0-1.695 0-2.315.067-.647.07-1.21.22-1.723.563s-.868.804-1.182 1.374c-.3.547-.594 1.25-.953 2.111L1.317 7.69A.75.75 0 0 0 1.25 8v5.487c0 1.97 0 3.529.17 4.748.175 1.255.543 2.26 1.36 3.05.755.727 1.696 1.081 2.856 1.262 1.14.178 2.572.2 4.363.203a.75.75 0 0 0 .002-1.5c-1.814-.004-3.128-.028-4.134-.185-.987-.154-1.593-.424-2.045-.86-.483-.466-.766-1.099-.917-2.177-.153-1.104-.155-2.557-.155-4.6V8.75h18.5v4.75a.75.75 0 0 0 1.5 0V8.024a.75.75 0 0 0-.06-.316l-.975-2.343c-.36-.862-.652-1.565-.953-2.11-.314-.571-.668-1.033-1.182-1.375s-1.076-.492-1.723-.563c-.62-.067-1.381-.067-2.315-.067M8.5 2.75h2.75v4.5H3.125l.529-1.27c.379-.91.641-1.536.898-2.003.248-.45.458-.688.7-.85.242-.16.542-.263 1.053-.318.53-.058 1.21-.059 2.195-.059m4.25 0v4.5h8.125l-.529-1.27c-.379-.91-.641-1.536-.898-2.003-.248-.45-.458-.688-.7-.85-.242-.16-.542-.263-1.053-.318-.53-.058-1.21-.059-2.195-.059zM17 17.5a1 1 0 1 0 0 2h.009a1 1 0 1 0 0-2zm-2.548-.757c-.736.575-1.295 1.268-1.614 1.715l-.03.042.03.042c.32.447.878 1.14 1.614 1.715.738.576 1.601.993 2.548.993.946 0 1.81-.417 2.547-.993.737-.575 1.296-1.268 1.614-1.715l.03-.042-.03-.042c-.319-.447-.877-1.14-1.614-1.715s-1.6-.993-2.547-.993-1.81.417-2.548.993m-.923-1.182c.891-.696 2.073-1.311 3.47-1.311 1.4 0 2.58.615 3.471 1.31.893.698 1.548 1.516 1.912 2.027l.012.016.018.025c.122.167.338.463.338.872s-.216.705-.338.872l-.03.041c-.364.51-1.019 1.33-1.912 2.026-.89.696-2.072 1.311-3.47 1.311s-2.58-.615-3.47-1.31c-.893-.698-1.548-1.516-1.913-2.027l-.03-.04c-.121-.168-.337-.464-.337-.873s.216-.705.338-.872l.018-.026.011-.015c.364-.51 1.02-1.33 1.912-2.026M10 11.25a.75.75 0 0 0 0 1.5h4a.75.75 0 0 0 0-1.5z" clip-rule="evenodd"/></svg>