<svg xmlns="http://www.w3.org/2000/svg" fill="none" viewBox="0 0 24 24"><path fill="currentColor" fill-rule="evenodd" d="M6.5 1.25a5.25 5.25 0 1 0 5.244 5.5H12c.728 0 1.2.002 1.546.048.325.044.427.115.484.172s.128.159.172.484c.046.347.048.818.048 1.546v8.5q0 .114.032.218c-.204.31-.357.659-.445 1.032h-3.674a3.251 3.251 0 0 0-6.325-.004 5 5 0 0 1-.365-.018c-.225-.02-.307-.055-.348-.079a.75.75 0 0 1-.275-.274c-.023-.04-.058-.123-.078-.348A13 13 0 0 1 2.75 17v-5a.75.75 0 0 0-1.5 0v5.032c0 .44 0 .82.028 1.13.03.33.096.656.273.963.198.342.482.626.824.824.307.177.633.243.962.273q.225.019.5.024a3.251 3.251 0 0 0 6.326.004h3.674a3.251 3.251 0 0 0 6.326 0h.14c.18 0 .335 0 .475-.017a2.25 2.25 0 0 0 1.955-1.955c.017-.14.017-.295.017-.475V15a7.25 7.25 0 0 0-7.018-7.246 6 6 0 0 0-.044-.5c-.066-.491-.215-.963-.597-1.345s-.853-.531-1.345-.597c-.459-.062-1.032-.062-1.697-.062H11.6a5.25 5.25 0 0 0-5.1-4M2.75 6.5a3.75 3.75 0 1 1 7.5 0 3.75 3.75 0 0 1-7.5 0m4.5-1.8a.75.75 0 0 0-1.5 0v2.25c0 .25.125.485.334.624l1.35.9a.75.75 0 0 0 .832-1.248L7.25 6.549zm13.013 14.05h-.1a3.25 3.25 0 0 0-4.413-2.25V9.254A5.75 5.75 0 0 1 21.25 15v2.763c0 .243-.001.295-.006.33a.75.75 0 0 1-.651.651 4 4 0 0 1-.33.006M17 21.25a1.75 1.75 0 0 1-1.75-1.749V19.5A1.75 1.75 0 1 1 17 21.25m-10 0a1.75 1.75 0 0 1-1.75-1.749V19.5A1.75 1.75 0 1 1 7 21.25" clip-rule="evenodd"/></svg>