<svg xmlns="http://www.w3.org/2000/svg" fill="none" viewBox="0 0 24 24"><path fill="currentColor" fill-rule="evenodd" d="M8.25 3A.75.75 0 0 1 9 2.25c.738 0 1.296.32 1.732.683.214.178.408.375.582.558l.16.17a14 14 0 0 0 .503.512l.158-.155c2.603-2.585 6.256-2.137 8.014.064 2.033 2.546 1.853 5.753.98 8.684-.86 2.886-2.446 5.7-3.589 7.726l-.065.116c-.405.718-1.188 1.142-2.004 1.142a2.38 2.38 0 0 1-2.381-2.284c-.03-.839-.141-1.707-.38-2.352-.232-.624-.49-.821-.71-.86-.228.04-.495.245-.736.87-.25.644-.372 1.51-.4 2.342a2.38 2.38 0 0 1-2.382 2.284c-.816 0-1.6-.424-2.004-1.142-3.315-5.881-4.277-9.68-4.226-12.223a.75.75 0 0 1 .787-.734c.878.044 1.397-.16 1.697-.438.296-.275.506-.744.506-1.513a.75.75 0 0 1 .861-.742c.843.126 1.337-.07 1.625-.35.305-.294.522-.816.522-1.608m4.91 2.115c.358.225.647.343.865.392.328.074.423-.016.445-.037a.75.75 0 1 1 1.06 1.06c-.478.479-1.148.595-1.834.44-.667-.149-1.404-.559-2.198-1.216q-.359-.296-.737-.672c-.137-.135-.273-.28-.398-.413l-.136-.143a6 6 0 0 0-.456-.441 2 2 0 0 0-.117-.092c-.134.653-.416 1.242-.884 1.695-.545.526-1.263.79-2.09.807-.119.71-.41 1.34-.923 1.817-.524.487-1.206.747-1.99.822.138 2.193 1.098 5.557 4.018 10.737.12.215.385.379.697.379a.88.88 0 0 0 .882-.836c.032-.908.165-1.964.5-2.831.325-.839.948-1.753 2.084-1.831a1 1 0 0 1 .104 0c1.143.079 1.753 1.002 2.064 1.84.321.867.442 1.921.473 2.822a.88.88 0 0 0 .883.836c.312 0 .576-.164.697-.379l.037-.065c1.157-2.054 2.675-4.746 3.485-7.468.822-2.761.858-5.351-.714-7.32-1.177-1.473-3.788-1.92-5.784.064z" clip-rule="evenodd"/></svg>