<svg xmlns="http://www.w3.org/2000/svg" fill="none" viewBox="0 0 24 24"><path fill="currentColor" fill-rule="evenodd" d="M13.503 5.25c.48 0 .791 0 1.027.022.225.02.307.055.348.078.179.104.273.25.327.514.053.258.051.537.049.894l-.001.176a1 1 0 0 0 0 .132v.176c.003.357.005.636-.048.894-.054.265-.148.41-.327.514-.041.023-.123.058-.348.078-.236.021-.546.022-1.027.022h-3c-.481 0-.792 0-1.027-.022-.226-.02-.307-.055-.348-.078-.18-.104-.274-.25-.328-.514-.052-.258-.05-.537-.048-.894v-.484c-.003-.357-.004-.636.048-.894.054-.265.149-.41.328-.514.04-.023.122-.058.348-.078.235-.021.546-.022 1.027-.022zm3.247 2.5a4 4 0 0 1-.075.685c-.113.553-.393 1.136-1.047 1.514-.308.177-.633.243-.963.273-.31.028-.69.028-1.13.028H10.47c-.44 0-.819 0-1.13-.028-.33-.03-.655-.096-.962-.273-.655-.378-.935-.96-1.048-1.514a4.3 4.3 0 0 1-.074-.685H2a.75.75 0 0 1 0-1.5h5.256a4.3 4.3 0 0 1 .074-.685c.113-.553.393-1.136 1.048-1.514.307-.177.633-.243.962-.273.311-.028.69-.028 1.13-.028h3.065c.44 0 .82 0 1.13.028.33.03.656.096.963.273.654.378.934.96 1.047 1.514.046.224.066.46.075.685H22a.75.75 0 0 1 0 1.5zm2.925 7.815c.046.224.066.46.075.685H22a.75.75 0 0 1 0 1.5h-2.25a4 4 0 0 1-.075.685c-.113.553-.393 1.136-1.047 1.514-.308.177-.633.243-.963.273-.31.028-.69.028-1.13.028H7.471c-.44 0-.82 0-1.13-.028-.33-.03-.656-.096-.963-.273-.655-.378-.935-.96-1.048-1.514a4.3 4.3 0 0 1-.074-.685H2a.75.75 0 0 1 0-1.5h2.256a4.3 4.3 0 0 1 .074-.685c.113-.553.393-1.136 1.048-1.514.307-.177.633-.243.962-.273.311-.028.69-.028 1.13-.028h9.065c.44 0 .82 0 1.13.028.33.03.656.096.963.273.654.378.934.96 1.047 1.514M18.25 17l.003-.066v-.176c.003-.357.005-.636-.048-.894-.054-.265-.148-.41-.327-.514-.041-.023-.123-.057-.348-.078a13 13 0 0 0-1.027-.022h-9c-.481 0-.792 0-1.027.022-.226.02-.307.055-.348.079-.18.103-.274.248-.328.513-.052.258-.05.537-.048.894v.484c-.003.357-.004.636.048.894.054.265.149.41.328.514.04.023.122.058.348.078.235.021.546.022 1.027.022h9c.48 0 .791 0 1.027-.022.225-.02.307-.055.348-.079.179-.103.273-.248.327-.513.053-.258.051-.537.049-.894l-.001-.176z" clip-rule="evenodd"/></svg>