<svg xmlns="http://www.w3.org/2000/svg" fill="none" viewBox="0 0 24 24"><path fill="currentColor" fill-rule="evenodd" d="M11.456 2.75c.386 0 .627.003.794.013v.292c0 1.368 0 2.47.117 3.337.12.9.38 1.658.981 2.26.602.602 1.36.86 2.26.982.867.116 1.97.116 3.337.116h.288c.014.192.017.47.017.907V13a.75.75 0 0 0 1.5 0v-2.463c0-.7.001-1.252-.21-1.76-.21-.51-.601-.9-1.096-1.393l-.085-.086-4.737-4.736-.074-.074c-.426-.427-.762-.764-1.19-.969a3 3 0 0 0-.271-.112c-.447-.158-.923-.157-1.527-.157h-.152c-1.582 0-2.835 0-3.827.116-1.019.119-1.858.368-2.562.936a4.8 4.8 0 0 0-.717.717c-.568.704-.817 1.544-.936 2.562-.116.992-.116 2.245-.116 3.827V13a.75.75 0 0 0 1.5 0V9.456c0-1.64.001-2.806.106-3.701.102-.879.296-1.4.614-1.795q.219-.271.49-.49c.395-.318.916-.512 1.795-.614.895-.105 2.06-.106 3.7-.106m2.397 3.442c-.081-.604-.098-1.365-.102-2.38l4.437 4.437c-1.014-.004-1.776-.02-2.38-.102-.734-.099-1.122-.28-1.399-.556-.277-.277-.457-.665-.556-1.399M12 15.25h-.046c-.404 0-.783 0-1.093.044-.348.05-.716.168-1.014.485-.292.31-.395.682-.439 1.03-.04.32-.04.714-.04 1.148v2.086c0 .434 0 .829.04 1.148.044.348.147.72.44 1.03.297.317.665.435 1.013.485.31.044.69.044 1.093.044h.092c.404 0 .783 0 1.093-.044.348-.05.716-.168 1.014-.485.292-.31.395-.682.439-1.03.04-.32.04-.714.04-1.148v-2.086c0-.434 0-.829-.04-1.148-.044-.348-.147-.72-.44-1.03-.297-.317-.665-.435-1.013-.485-.31-.044-.69-.044-1.093-.044zm-1.063 1.564.001-.004a.6.6 0 0 1 .135-.03c.191-.028.46-.03.927-.03.466 0 .736.002.927.03.081.01.12.024.135.03l.005.011c.01.025.024.077.037.176.027.214.028.512.028 1.003v2c0 .491-.001.789-.028 1.003a.8.8 0 0 1-.042.187.6.6 0 0 1-.135.03c-.191.028-.46.03-.927.03-.466 0-.736-.002-.927-.03a.6.6 0 0 1-.135-.03l-.005-.011a.8.8 0 0 1-.037-.176c-.027-.214-.028-.512-.028-1.003v-2c0-.491.001-.789.028-1.003a.8.8 0 0 1 .037-.176zM4.442 15.25h-.024c-.154 0-.319 0-.46.014-.16.015-.365.053-.567.177a1.32 1.32 0 0 0-.603.904 3 3 0 0 0-.037.597v4.116a3 3 0 0 0 .037.597c.057.295.21.662.603.904.202.124.407.162.567.177.141.014.306.014.46.014h.024c2.016 0 3.574-1.722 3.574-3.75s-1.558-3.75-3.574-3.75m0 1.5h-.19v.008q-.003.048-.001.11v4.381l.191.001c1.103 0 2.074-.964 2.074-2.25s-.97-2.25-2.074-2.25m14.181-1.5c-.793 0-1.594.078-2.109.652-.257.287-.381.631-.447.971-.064.335-.08.717-.08 1.127v2c0 .41.016.792.08 1.127.066.34.19.684.447.971.515.574 1.317.652 2.11.652.259 0 .539-.001.8-.027a2.5 2.5 0 0 0 .832-.208c.292-.137.55-.354.73-.672.173-.305.248-.656.264-1.03a.75.75 0 1 0-1.498-.065c-.01.221-.051.32-.071.355-.013.023-.024.037-.064.055a1 1 0 0 1-.336.072c-.18.018-.391.02-.658.02-.825 0-.967-.125-.992-.153-.012-.014-.055-.07-.091-.254-.037-.19-.054-.456-.054-.843v-2c0-.387.017-.653.054-.843.036-.185.079-.24.091-.254.025-.028.167-.153.992-.153.267 0 .478.002.658.02.18.017.281.046.336.072.04.018.051.032.064.055.02.035.061.134.07.355a.75.75 0 0 0 1.5-.065c-.017-.374-.092-.725-.265-1.03a1.6 1.6 0 0 0-.73-.672 2.5 2.5 0 0 0-.831-.208 9 9 0 0 0-.802-.027" clip-rule="evenodd"/></svg>