<svg xmlns="http://www.w3.org/2000/svg" fill="none" viewBox="0 0 24 24"><path fill="currentColor" fill-rule="evenodd" d="M13.25 2.5a.75.75 0 0 0-1.5 0v1.253c-1.673.042-3.214.501-4.373 1.258-1.21.79-2.085 1.968-2.085 3.378 0 .632.12 1.235.41 1.78.291.547.733.992 1.31 1.336 1.125.67 2.782.967 4.988.967 2.133 0 3.593.28 4.5.803.439.253.74.558.936.917.198.362.314.823.314 1.42 0 1.06-.526 1.802-1.506 2.323-1.022.543-2.507.815-4.244.815-1.683 0-3.17-.41-4.211-1.033-1.057-.632-1.539-1.4-1.539-2.106a.75.75 0 0 0-1.5 0c0 1.442.973 2.618 2.269 3.394 1.253.75 2.92 1.204 4.731 1.242V21.5a.75.75 0 0 0 1.5 0v-1.296c1.385-.105 2.671-.399 3.698-.945 1.373-.729 2.302-1.93 2.302-3.648 0-.792-.155-1.512-.498-2.14-.345-.63-.857-1.124-1.502-1.496-1.26-.726-3.05-1.003-5.25-1.003-2.128 0-3.45-.296-4.22-.755-.37-.221-.606-.475-.755-.754-.15-.282-.233-.632-.233-1.074 0-.738.458-1.504 1.405-2.122.94-.613 2.282-1.017 3.803-1.017s2.864.404 3.803 1.017c.947.618 1.405 1.384 1.405 2.122a.75.75 0 0 0 1.5 0c0-1.41-.875-2.588-2.085-3.378-.924-.603-2.09-1.017-3.373-1.182z" clip-rule="evenodd"/></svg>