<svg xmlns="http://www.w3.org/2000/svg" fill="none" viewBox="0 0 24 24"><path fill="currentColor" fill-rule="evenodd" d="M5.25 13.25H4a.75.75 0 0 0 0 1.5h.25V22a.75.75 0 0 0 1.5 0v-2.25h12.5V22a.75.75 0 0 0 1.5 0v-7.25H20a.75.75 0 0 0 0-1.5h-1.25V8a6.75 6.75 0 0 0-13.5 0zm.5 1.5v3.5h12.5v-3.5zm11.5-1.5H6.75V8a5.25 5.25 0 0 1 10.5 0zm-5.72-7.72a.75.75 0 0 0-1.06-1.06l-1 1a.75.75 0 0 0 1.06 1.06zm2 1a.75.75 0 0 0-1.06-1.06l-2 2a.75.75 0 0 0 1.06 1.06zm-2.03 9.22a.75.75 0 0 0 0 1.5h1a.75.75 0 0 0 0-1.5z" clip-rule="evenodd"/></svg>