<svg xmlns="http://www.w3.org/2000/svg" fill="none" viewBox="0 0 24 24"><path fill="currentColor" fill-rule="evenodd" d="M10.07 2.94a.75.75 0 0 0-.818-1.16C4.917 3.051 1.75 7.057 1.75 11.805c0 5.769 4.676 10.445 10.445 10.445 4.748 0 8.754-3.167 10.025-7.502a.75.75 0 0 0-1.16-.818 8 8 0 0 1-1.56.881V8.755q.859-1.176.735-2.327c-.088-.815-.53-1.475-1.009-1.998-.44-.478-.974-.907-1.43-1.272l-.117-.094c-.52-.417-.877-.723-1.062-.991a.75.75 0 0 0-1.234 0c-.185.268-.543.574-1.061.99l-.118.095c-.456.365-.99.794-1.43 1.272-.48.523-.92 1.183-1.008 1.998q-.126 1.15.734 2.327v5.617A7.87 7.87 0 0 1 8.572 7.56a7.83 7.83 0 0 1 1.498-4.62M14 15.043V9.25h4v6.024a7.9 7.9 0 0 1-4-.232M3.25 11.805a8.94 8.94 0 0 1 4.508-7.769 9.368 9.368 0 0 0 12.206 12.206A8.945 8.945 0 0 1 3.25 11.805M18.373 7.75h-4.746c-.338-.5-.4-.878-.37-1.162.039-.358.241-.729.622-1.143.358-.39.805-.75 1.28-1.13l.102-.082c.24-.192.498-.401.739-.623.24.222.5.43.739.623l.102.082c.475.38.922.74 1.28 1.13.38.414.584.785.622 1.143.03.284-.032.661-.37 1.162" clip-rule="evenodd"/></svg>