<svg xmlns="http://www.w3.org/2000/svg" fill="none" viewBox="0 0 24 24"><path fill="currentColor" fill-rule="evenodd" d="M12 1.25a.75.75 0 0 1 .75.75v1.355c.515.185.914.6 1.076 1.147.028.095.048.208.068.32l.006.032a37 37 0 0 0 1.412 5.396H16a.75.75 0 0 1 0 1.5h-.138q.484 1.239 1.083 2.5H18a.75.75 0 0 1 0 1.5h-.296a34.3 34.3 0 0 0 3.65 5.5H22a.75.75 0 0 1 0 1.5h-7a.75.75 0 0 1-.398-1.386c-.114-.52-.193-.774-.319-.995a2.4 2.4 0 0 0-.302-.418c-.235-.26-.557-.447-1.514-.975a7 7 0 0 0-.368-.195l-.074-.03a.2.2 0 0 0-.05 0l-.073.03a6 6 0 0 0-.368.195c-.957.528-1.28.716-1.514.975a2.4 2.4 0 0 0-.303.418c-.126.22-.205.475-.32.995A.75.75 0 0 1 9 22.75H2a.75.75 0 0 1 0-1.5h.646a34.3 34.3 0 0 0 3.65-5.5H6a.75.75 0 0 1 0-1.5h1.055q.6-1.261 1.083-2.5H8a.75.75 0 0 1 0-1.5h.688A37 37 0 0 0 10.1 4.854l.006-.031a3 3 0 0 1 .068-.321c.162-.546.56-.962 1.076-1.147V2a.75.75 0 0 1 .75-.75m4.012 14.5H7.988a36.3 36.3 0 0 1-3.434 5.5h3.333c.141-.674.273-1.177.526-1.623q.211-.37.496-.684c.424-.467.984-.776 1.794-1.222l.106-.058.07-.04c.275-.152.574-.318.909-.36q.212-.027.425 0c.334.042.633.208.909.36l.07.04.105.058.261.144c.672.373 1.157.663 1.533 1.078q.285.313.496.684c.254.446.385.949.526 1.623h3.333a36.3 36.3 0 0 1-3.434-5.5m-1.756-4H9.744a39 39 0 0 1-1.034 2.5h6.58a39 39 0 0 1-1.034-2.5m-2.147-7h-.255l-.031.002a.23.23 0 0 0-.21.175l-.008.035-.029.157a38 38 0 0 1-1.306 5.13h3.46a38 38 0 0 1-1.306-5.13c-.014-.075-.022-.122-.03-.157l-.007-.035a.23.23 0 0 0-.21-.175l-.031-.001z" clip-rule="evenodd"/></svg>