<svg xmlns="http://www.w3.org/2000/svg" fill="none" viewBox="0 0 24 24"><path fill="currentColor" fill-rule="evenodd" d="M11.035 4.158c.38-.607.622-.993.826-1.236.062-.074.107-.119.138-.145.03.026.076.071.138.145.204.243.447.629.826 1.235l.683 1.093h-3.294zM8.448 5.466l1.315-2.104.029-.046c.342-.547.64-1.024.92-1.358.286-.342.695-.708 1.287-.708s1 .366 1.287.708c.28.334.578.811.92 1.358l.029.046 1.314 2.103q.164.087.317.183l.049.03L20.3 8.335l.06.036c.227.137.485.292.669.52.195.24.28.525.347.755l.018.058.323 1.08a.75.75 0 0 1-1.436.43l-.324-1.079a4 4 0 0 0-.091-.286l-.006-.013-.001-.004-.037-.027-.127-.082a.8.8 0 0 1-.196.026h-3.906l3.942 11.5H21a.75.75 0 0 1 0 1.5H3a.75.75 0 0 1 0-1.5h1.464l3.942-11.5H4.262a2 2 0 0 0-.122.083l-.007.017c-.02.054-.044.13-.09.286l-.325 1.08a.75.75 0 1 1-1.436-.431l.323-1.08.018-.058c.068-.23.152-.515.347-.756.136-.167.31-.295.484-.406a.75.75 0 0 1 .339-.206l4.292-2.602.049-.029q.152-.095.314-.182M12.05 2.74l-.007.003zm-.095.003-.007-.003zm3.59 4.464 1.72 1.043h-1.91zm-1.686.894-.02.149h-3.678q-.009-.075-.02-.149l-.003-.02-.24-1.331h4.204l-.24 1.33zm-4.284 2.864-.688 2.009 1.795-1.243zM6.441 20.11l1.601-4.673 2.626 1.79zm.99 1.14L12 18.135l4.568 3.115zm5.9-4.023 4.228 2.883-1.602-4.673zm-4.007-2.732L12 16.32l2.675-1.825L12 12.643zm5.79-1.521-1.797-1.243 1.107-.767zM12 10.819 10.456 9.75h3.087zM8.456 7.207l.188 1.043h-1.91z" clip-rule="evenodd"/></svg>