<svg xmlns="http://www.w3.org/2000/svg" fill="none" viewBox="0 0 24 24"><path fill="currentColor" fill-rule="evenodd" d="M6.75 3a.75.75 0 0 0-1.5 0v5a.75.75 0 0 0 1.5 0V6.25h2.5v3.08a2.2 2.2 0 0 0-.512.175c-.47.232-.793.616-1.094 1.077L4.63 15.194a2.4 2.4 0 0 0-.29.601 2.3 2.3 0 0 0-.091.663c0 1.142.225 2.082.97 2.668.548.432 1.268.571 2.03.61V21a.75.75 0 0 0 1.5 0v-1.25h6.5V21a.75.75 0 0 0 1.5 0v-1.265c.765-.042 1.482-.184 2.027-.614.753-.594.973-1.55.973-2.713a2.3 2.3 0 0 0-.08-.626 2.4 2.4 0 0 0-.22-.513l-2.536-4.53c-.288-.514-.606-.947-1.1-1.207-.332-.175-.691-.243-1.064-.268V6.25h2.5V8a.75.75 0 0 0 1.5 0V3a.75.75 0 0 0-1.5 0v1.75H6.75zM16 18.25h.097c1.034 0 1.506-.114 1.75-.306.168-.132.353-.412.394-1.194H5.756c.037.786.225 1.066.391 1.197.24.19.702.303 1.7.303zm-2.75-9h-2.5v-3h2.5zm-3.043 1.5h4.049c.538 0 .738.045.859.109.102.054.243.173.49.613l2.115 3.778H6.386L8.9 11.403c.252-.387.394-.5.5-.552.122-.06.314-.101.807-.101M4.25 4a.75.75 0 0 0-1.5 0v.75H2a.75.75 0 0 0 0 1.5h.75V7a.75.75 0 0 0 1.5 0zm17 0a.75.75 0 0 0-1.5 0v3a.75.75 0 0 0 1.5 0v-.75H22a.75.75 0 0 0 0-1.5h-.75z" clip-rule="evenodd"/></svg>