<svg xmlns="http://www.w3.org/2000/svg" fill="none" viewBox="0 0 24 24"><path fill="currentColor" fill-rule="evenodd" d="M17.945 3.25H21a.75.75 0 0 1 0 1.5h-3c-1.435 0-2.437.002-3.192.103-.734.099-1.122.28-1.399.556-.277.277-.457.665-.556 1.4-.101.754-.103 1.756-.103 3.191v1.25H19a.75.75 0 0 1 0 1.5h-6.25V20a.75.75 0 0 1-1.5 0V9.945c0-1.367 0-2.47.117-3.337.12-.9.38-1.658.981-2.26.602-.602 1.36-.86 2.26-.981.867-.117 1.97-.117 3.337-.117M5 4.75a1.25 1.25 0 1 0 0 2.5 1.25 1.25 0 0 0 0-2.5M2.25 6a2.75 2.75 0 1 1 5.5 0 2.75 2.75 0 0 1-5.5 0" clip-rule="evenodd"/></svg>