<svg xmlns="http://www.w3.org/2000/svg" fill="none" viewBox="0 0 24 24"><path fill="currentColor" fill-rule="evenodd" d="M4.145 3.355c2.98-1.829 5.655-1.1 7.27.113.266.2.449.336.585.429.135-.093.318-.23.584-.429 1.615-1.213 4.29-1.942 7.27-.113 2.062 1.264 3.221 3.905 2.814 6.94-.409 3.049-2.382 6.498-6.562 9.591l-.104.077C14.551 21.038 13.59 21.75 12 21.75s-2.552-.712-4.003-1.787q-.052-.037-.104-.077c-4.18-3.093-6.153-6.542-6.562-9.591-.407-3.035.753-5.676 2.814-6.94m6.37 1.313c-1.197-.899-3.203-1.496-5.586-.035-1.458.895-2.456 2.894-2.112 5.462.343 2.554 2.03 5.67 5.968 8.585 1.582 1.172 2.16 1.57 3.215 1.57s1.632-.398 3.214-1.57c3.938-2.914 5.625-6.031 5.968-8.585.344-2.568-.654-4.567-2.112-5.462-2.382-1.46-4.39-.864-5.586.035l-.02.015c-.271.204-.503.378-.689.5a2.4 2.4 0 0 1-.315.177 1.1 1.1 0 0 1-.46.107 1.1 1.1 0 0 1-.461-.107 2.4 2.4 0 0 1-.315-.177c-.186-.122-.418-.297-.688-.5z" clip-rule="evenodd"/></svg>