<svg xmlns="http://www.w3.org/2000/svg" fill="none" viewBox="0 0 24 24"><path fill="currentColor" fill-rule="evenodd" d="M10.456 2.75c.386 0 .627.003.794.013v.292c0 1.368 0 2.47.117 3.337.12.9.38 1.658.981 2.26.602.602 1.36.86 2.26.982.867.116 1.97.116 3.337.116h.26c.01.141.02.297.027.452a21 21 0 0 1 .018.735V11a.75.75 0 1 0 1.5 0v-.073a19 19 0 0 0-.02-.79c-.01-.226-.025-.475-.049-.696-.02-.19-.055-.46-.14-.665-.21-.508-.602-.899-1.097-1.392l-.085-.086-4.737-4.736-.074-.074c-.426-.427-.762-.764-1.19-.969a3 3 0 0 0-.271-.112c-.447-.158-.923-.157-1.527-.157h-.152c-1.582 0-2.835 0-3.827.116-1.019.119-1.858.368-2.562.936a4.8 4.8 0 0 0-.717.717c-.568.704-.817 1.544-.936 2.562-.116.992-.116 2.245-.116 3.827v4.649c0 1.837 0 3.293.153 4.432.158 1.173.49 2.121 1.238 2.87.678.678 1.522 1.015 2.55 1.19 1.006.17 2.26.196 3.807.2a.75.75 0 0 0 .004-1.5c-1.567-.004-2.696-.033-3.56-.18-.842-.142-1.355-.386-1.74-.77-.423-.424-.677-1.004-.812-2.01-.138-1.027-.14-2.382-.14-4.289V9.456c0-1.64.001-2.806.106-3.701.102-.879.296-1.4.614-1.795q.219-.271.49-.49c.395-.318.916-.512 1.795-.614.895-.105 2.06-.106 3.7-.106m2.397 3.442c-.081-.604-.098-1.365-.102-2.38l4.437 4.437c-1.014-.004-1.776-.02-2.38-.102-.734-.099-1.122-.28-1.399-.556-.277-.277-.457-.665-.556-1.399m6.383 8.638.067-.055a.25.25 0 0 1 .218 0l.068.055c.067.06.152.145.294.287.143.142.227.227.288.295l.054.067a.25.25 0 0 1 0 .218l-.055.067c-.06.068-.144.153-.287.295l-4.823 4.824a6 6 0 0 1-.307.297l-.067.05h-.001l-.002.001-.009.003-.074.009c-.09.007-.21.007-.426.007h-.424v-.423c0-.216 0-.336.008-.427l.009-.073.002-.01v-.001l.001-.002.005-.008.046-.058c.059-.069.144-.155.296-.307l4.824-4.824c.142-.143.228-.227.295-.287m.954-1.398a1.75 1.75 0 0 0-1.556 0c-.262.13-.484.354-.698.568l-.056.056-4.823 4.824-.057.057c-.231.23-.48.478-.616.805s-.135.678-.134 1.005V22c0 .414.336.75.75.75h1.254c.326.001.678.002 1.005-.133.327-.136.575-.385.805-.617l.056-.056 4.824-4.824.056-.056c.214-.213.438-.436.568-.698a1.75 1.75 0 0 0 0-1.556c-.13-.262-.354-.485-.568-.697l-.056-.057-.056-.056c-.213-.214-.436-.438-.698-.568" clip-rule="evenodd"/></svg>