<svg xmlns="http://www.w3.org/2000/svg" fill="none" viewBox="0 0 24 24"><path fill="currentColor" fill-rule="evenodd" d="M8.023 2.75a.75.75 0 0 0-.074-1.5c-2.231.112-3.867.443-5.062 1.637-1.194 1.195-1.525 2.83-1.636 5.062a.75.75 0 1 0 1.498.074c.109-2.19.433-3.31 1.199-4.075s1.886-1.09 4.075-1.199m8.028-1.5a.75.75 0 0 0-.074 1.5c2.19.108 3.31.432 4.075 1.198s1.09 1.886 1.199 4.075a.75.75 0 1 0 1.498-.074c-.11-2.231-.442-3.867-1.636-5.062-1.195-1.194-2.83-1.525-5.062-1.636M2.75 15.978a.75.75 0 1 0-1.498.074c.11 2.231.442 3.867 1.636 5.062 1.195 1.194 2.83 1.526 5.062 1.636a.75.75 0 0 0 .074-1.498c-2.19-.109-3.31-.433-4.075-1.199s-1.09-1.886-1.199-4.075m20 .074a.75.75 0 0 0-1.498-.074c-.109 2.19-.433 3.31-1.199 4.075s-1.886 1.09-4.075 1.199a.75.75 0 1 0 .074 1.498c2.231-.11 3.867-.442 5.062-1.636 1.194-1.195 1.526-2.83 1.636-5.062M14.835 5.908a6.45 6.45 0 0 0-4.298-.492c-1.446.335-2.71 1.16-3.49 2.327a.75.75 0 1 0 1.247.833c.545-.816 1.466-1.44 2.581-1.698a4.95 4.95 0 0 1 3.29.372.75.75 0 0 0 .67-1.342m2.337 2.672a.75.75 0 1 0-1.314.724c.258.47.392.98.392 1.495v2.882c0 .897-.426 1.813-1.205 2.486-.782.676-1.898 1.083-3.045 1.083a.75.75 0 0 0 0 1.5c1.48 0 2.951-.52 4.026-1.448 1.078-.931 1.724-2.25 1.724-3.621v-2.882c0-.779-.203-1.537-.578-2.219m-4.627-.084a.75.75 0 0 0-.3 1.47c.487.1.674.433.672.613v.9a.75.75 0 0 0 1.5 0v-.883c.013-1.089-.884-1.898-1.872-2.1M7.75 11.278a.75.75 0 0 0-1.5 0v2.403c0 1.522.789 2.978 2.113 3.93a.75.75 0 0 0 .876-1.218c-.97-.698-1.49-1.718-1.489-2.712zm3.334.579a.75.75 0 1 0-1.5 0v1.517c-.007.467.159.91.45 1.268.456.563 1.15.833 1.802.872.654.04 1.376-.146 1.912-.64a.75.75 0 0 0-1.016-1.103c-.178.164-.473.266-.806.246-.335-.02-.595-.156-.728-.32a.46.46 0 0 1-.115-.302v-1.538" clip-rule="evenodd"/></svg>