<svg xmlns="http://www.w3.org/2000/svg" fill="none" viewBox="0 0 24 24"><path fill="currentColor" fill-rule="evenodd" d="M12.75 3a.75.75 0 0 0-1.5 0v3.5a.75.75 0 0 0 1.5 0zm0 7a.75.75 0 0 0-1.5 0v4a.75.75 0 0 0 1.5 0zm0 7.5a.75.75 0 0 0-1.5 0V21a.75.75 0 0 0 1.5 0zM1.25 8.94c0-1.423 1.609-2.25 2.767-1.423l4.28 3.056a1.75 1.75 0 0 1 0 2.848l-4.28 3.057c-1.158.828-2.767 0-2.767-1.424zm1.895-.203a.25.25 0 0 0-.395.204v6.113c0 .204.23.322.395.204l4.28-3.057a.25.25 0 0 0 0-.407zm18.103.204a.25.25 0 0 0-.395-.204l-4.28 3.057a.25.25 0 0 0 0 .407l4.28 3.057a.25.25 0 0 0 .395-.204zm-1.267-1.424c1.158-.828 2.767 0 2.767 1.424v6.113c0 1.424-1.609 2.252-2.767 1.424l-4.28-3.057a1.75 1.75 0 0 1 0-2.848z" clip-rule="evenodd"/></svg>