<svg xmlns="http://www.w3.org/2000/svg" fill="none" viewBox="0 0 24 24"><path fill="currentColor" fill-rule="evenodd" d="M12.858 2.75c1.133 0 1.5.014 1.843.142.331.124.622.354 1.464 1.055l2.196 1.83c1.115.93 1.48 1.256 1.677 1.674.195.418.212.907.212 2.36V13c0 1.892-.001 3.25-.115 4.302-.113 1.038-.328 1.688-.697 2.196-.262.36-.58.678-.94.94-.43.313-.963.515-1.748.638v-2.128c0-.899 0-1.648-.08-2.242-.084-.628-.27-1.195-.726-1.65-.455-.456-1.022-.642-1.65-.726-.594-.08-1.344-.08-2.242-.08h-.104c-.899 0-1.648 0-2.242.08-.628.084-1.195.27-1.65.726-.456.455-.642 1.022-.726 1.65-.08.594-.08 1.343-.08 2.242v2.128c-.785-.123-1.317-.325-1.748-.638a4.3 4.3 0 0 1-.94-.94c-.37-.508-.585-1.158-.697-2.196-.114-1.052-.115-2.41-.115-4.302v-1.142c0-2.308.002-3.967.167-5.232.163-1.245.473-2 1.012-2.564q.065-.068.133-.133c.564-.54 1.319-.85 2.564-1.012 1.265-.165 2.924-.167 5.232-.167M8.75 21.21c.876.04 1.934.04 3.25.04s2.374 0 3.25-.04V19c0-.964-.002-1.612-.066-2.095-.063-.461-.17-.659-.3-.789s-.328-.237-.79-.3c-.482-.064-1.13-.066-2.094-.066s-1.612.002-2.095.066c-.461.063-.659.17-.789.3s-.237.328-.3.79c-.064.482-.066 1.13-.066 2.094zm6.475-19.723c-.635-.237-1.295-.237-2.286-.237h-.136c-2.241 0-3.998 0-5.372.18-1.405.184-2.519.567-3.405 1.415a6 6 0 0 0-.181.18c-.848.887-1.231 2-1.415 3.406-.18 1.374-.18 3.13-.18 5.372v1.242c0 1.837 0 3.276.124 4.419.126 1.165.388 2.11.974 2.916a5.8 5.8 0 0 0 1.272 1.272c.807.586 1.75.848 2.916.974 1.143.124 2.582.124 4.419.124h.09c1.837 0 3.276 0 4.419-.124 1.165-.126 2.11-.388 2.916-.974a5.8 5.8 0 0 0 1.272-1.272c.586-.806.848-1.75.974-2.916.124-1.143.124-2.582.124-4.419V9.65c0-1.225.001-2.076-.354-2.834-.355-.759-1.01-1.304-1.95-2.087l-.125-.103-2.196-1.83-.093-.078c-.712-.594-1.206-1.006-1.807-1.23M9.25 7a.75.75 0 0 1 .75-.75h4a.75.75 0 0 1 0 1.5h-4A.75.75 0 0 1 9.25 7" clip-rule="evenodd"/></svg>