<svg xmlns="http://www.w3.org/2000/svg" fill="none" viewBox="0 0 24 24"><path fill="currentColor" fill-rule="evenodd" d="M6.944 3.25c1.223 0 1.64.011 1.992.143.827.31 1.19 1.037 1.744 2.144l.107.213H7a.75.75 0 0 0 0 1.5h9.75c1.069 0 1.814.001 2.389.06.562.057.877.163 1.111.32.246.163.457.374.62.62.315.47.376.954.38 2.752a.75.75 0 0 0 1.5-.003c-.003-1.683-.02-2.665-.632-3.582a3.8 3.8 0 0 0-1.035-1.035c-.522-.349-1.112-.496-1.792-.565-.66-.067-1.482-.067-2.5-.067h-4.328l-.426-.852-.095-.192c-.472-.955-1.084-2.194-2.48-2.717-.638-.24-1.35-.24-2.38-.239H6.91c-.88 0-1.588 0-2.16.05-.59.052-1.106.162-1.577.425a3.75 3.75 0 0 0-1.448 1.448c-.263.471-.373.987-.425 1.577-.05.572-.05 1.28-.05 2.16v3.147c0 2.309 0 4.118.19 5.53.194 1.444.6 2.584 1.494 3.479.793.793 1.78 1.203 3.005 1.42 1.203.215 2.7.254 4.558.262H11a.75.75 0 0 0 0-1.5h-.498c-1.873-.008-3.244-.05-4.3-.238-1.036-.184-1.7-.498-2.207-1.005-.57-.57-.897-1.34-1.069-2.618-.174-1.3-.176-3.009-.176-5.387V7.444c0-.921 0-1.564.045-2.063.043-.488.123-.767.24-.977a2.25 2.25 0 0 1 .869-.869c.21-.117.489-.197.977-.24.5-.044 1.142-.045 2.063-.045m9.797 10c.622 0 .821.004 1.002.044a1.9 1.9 0 0 1 .632.265c.156.102.301.243.74.688l1.31 1.326c.556.563.68.706.745.868.067.162.08.354.08 1.15v.309c0 .87-.002 1.447-.059 1.876-.054.41-.146.57-.245.67s-.253.19-.652.245c-.422.057-.99.059-1.85.059h-.888c-.86 0-1.428-.002-1.85-.059-.4-.054-.553-.146-.652-.245-.1-.1-.191-.26-.245-.67-.057-.429-.059-1.006-.059-1.876v-2.624c0-.466 0-.775.018-1.014.017-.23.046-.335.075-.399a1.04 1.04 0 0 1 .514-.52c.06-.028.16-.058.386-.075.234-.018.538-.018.998-.018m1.322-1.422c-.359-.078-.73-.078-1.247-.078h-.102c-.426 0-.787 0-1.083.022-.31.023-.61.074-.9.207a2.54 2.54 0 0 0-1.257 1.271c-.13.29-.18.59-.202.903-.022.3-.022.664-.022 1.096v2.702c0 .805 0 1.483.072 2.023.076.572.244 1.1.665 1.526.423.428.948.6 1.517.677.535.073 1.206.073 2 .073h.992c.794 0 1.465 0 2-.073.57-.077 1.094-.25 1.517-.677.421-.427.59-.954.665-1.526.072-.54.072-1.218.072-2.023v-.474c0-.623.001-1.134-.191-1.604-.193-.472-.551-.834-.987-1.274l-.08-.08-1.31-1.327-.052-.053c-.366-.37-.627-.635-.935-.836a3.4 3.4 0 0 0-1.132-.475" clip-rule="evenodd"/></svg>