<svg xmlns="http://www.w3.org/2000/svg" fill="none" viewBox="0 0 24 24"><path fill="currentColor" fill-rule="evenodd" d="M6.949 3.25c1.223 0 1.641.011 1.993.143.829.31 1.192 1.037 1.746 2.144l.107.213h-3.79a.75.75 0 1 0 0 1.5h9.758c1.07 0 1.816.001 2.39.06.563.057.879.163 1.114.32.246.164.457.375.621.62.215.322.327.779.362 1.777a.75.75 0 1 0 1.5-.054c-.037-1.025-.148-1.858-.615-2.557a3.8 3.8 0 0 0-1.036-1.034c-.522-.349-1.113-.496-1.794-.565-.66-.067-1.482-.067-2.502-.067h-4.33l-.428-.852-.095-.192c-.472-.955-1.085-2.194-2.481-2.717-.64-.24-1.352-.24-2.382-.239h-.173c-.88 0-1.589 0-2.162.05-.59.052-1.106.162-1.578.425-.607.34-1.109.84-1.448 1.447-.263.472-.373.988-.426 1.578-.05.572-.05 1.28-.05 2.16v3.147c0 2.309 0 4.118.19 5.53.194 1.444.6 2.584 1.496 3.48.895.894 2.036 1.3 3.482 1.493 1.412.19 3.223.19 5.533.19h.058a.75.75 0 0 0 0-1.5c-2.38 0-4.09-.002-5.392-.176-1.28-.172-2.05-.5-2.621-1.069-.57-.57-.897-1.34-1.07-2.619-.174-1.3-.176-3.008-.176-5.386V7.444c0-.921 0-1.564.045-2.062.043-.49.123-.768.24-.978.204-.364.505-.665.87-.869.21-.117.49-.197.979-.24.5-.044 1.142-.045 2.065-.045m11.59 11.486c.654-.643 1.086-1.066 1.418-1.312q.124-.09.192-.127.021.071.042.21c.058.404.06 1.002.06 1.912v3.165c0 .91-.003 1.508-.06 1.911a2 2 0 0 1-.041.21 2 2 0 0 1-.193-.127c-.332-.246-.764-.668-1.418-1.311-.359-.353-.705-.632-1.137-.803-.428-.17-.87-.204-1.36-.204-.425 0-.688 0-.884-.02-.18-.018-.222-.046-.227-.05-.067-.044-.124-.112-.158-.314a3.4 3.4 0 0 1-.025-.608l.002-.267q0-.145-.002-.266a3.4 3.4 0 0 1 .025-.608c.034-.202.091-.27.158-.315.006-.003.047-.031.227-.05.196-.019.46-.02.884-.02.49 0 .932-.034 1.36-.203.432-.171.778-.45 1.137-.803m1.717-1.485-.01.002zm-.142-.054-.006-.01zm-.006 7.618.006-.01zm.138-.065q.01 0 .01.002zm.497-8.9c-.665-.27-1.262.06-1.678.368-.428.317-.936.817-1.535 1.406l-.043.042c-.303.299-.48.415-.637.477-.16.064-.374.1-.808.1h-.034c-.38 0-.72 0-.999.027-.3.03-.612.098-.902.29-.537.352-.739.873-.813 1.32-.055.33-.05.696-.045.958a10 10 0 0 1 0 .327c-.005.262-.01.628.045.958.074.447.276.968.813 1.32.29.191.602.26.902.29.28.027.619.027 1 .027h.033c.434 0 .647.035.808.1.157.061.334.178.637.476l.043.042c.599.59 1.107 1.09 1.535 1.406.416.308 1.013.64 1.678.368.671-.273.859-.933.932-1.444.075-.523.075-1.23.075-2.063v-3.287c0-.833 0-1.54-.075-2.064-.073-.51-.26-1.17-.932-1.444" clip-rule="evenodd"/></svg>