<svg xmlns="http://www.w3.org/2000/svg" fill="none" viewBox="0 0 24 24"><path fill="currentColor" fill-rule="evenodd" d="M8.548 8.107c.92-1.6 1.568-2.723 2.151-3.458.577-.726.956-.899 1.301-.899s.724.173 1.301.9c.583.734 1.231 1.857 2.152 3.457l3.756 6.532c.876 1.523 1.487 2.59 1.808 3.413.317.816.266 1.184.11 1.44-.162.267-.49.496-1.394.626-.908.13-2.175.132-3.976.132H15.5c-.492 0-.787-.002-.997-.03a.7.7 0 0 1-.177-.042l-.003-.001-.001-.003-.005-.01a.7.7 0 0 1-.037-.167 6 6 0 0 1-.03-.687l2.78-2.78a.75.75 0 0 0-1.06-1.06l-1.72 1.72v-1.88l1.28-1.28a.75.75 0 0 0-1.06-1.06l-.223.222a3 3 0 0 0-.108-.742 1.64 1.64 0 0 0-.97-1.067 1.8 1.8 0 0 0-.57-.122c-.166-.011-.363-.011-.577-.011h-.044c-.214 0-.41 0-.576.011-.178.012-.373.04-.572.122-.541.225-.835.63-.969 1.067-.111.364-.111.756-.11 1.016v1.724l-1.22-1.22a.75.75 0 0 0-1.061 1.06l2.28 2.28V19c0 .493-.001.787-.03.997a.7.7 0 0 1-.042.177l-.001.003-.003.001-.01.005a.7.7 0 0 1-.167.037c-.21.028-.504.03-.997.03h-.257c-1.8 0-3.068-.002-3.976-.132-.904-.13-1.231-.36-1.393-.625-.157-.257-.208-.625.11-1.44.32-.825.931-1.892 1.807-3.414zm4.202 10.888V13.5c0-.311-.007-.485-.045-.61a.2.2 0 0 0-.035-.075.2.2 0 0 0-.071-.045 1 1 0 0 0-.103-.012A8 8 0 0 0 12 12.75c-.243 0-.388 0-.496.008a1 1 0 0 0-.103.012c-.051.022-.067.04-.07.045a.2.2 0 0 0-.036.074c-.038.126-.045.3-.045.611v5.545c0 .433 0 .83-.043 1.152-.048.356-.16.731-.47 1.04-.308.31-.684.422-1.04.47-.322.043-.72.043-1.152.043h-.366c-1.722 0-3.098 0-4.125-.147-1.041-.15-1.943-.479-2.461-1.33-.525-.86-.382-1.801-.007-2.765.367-.943 1.037-2.108 1.871-3.558L7.281 7.3c.879-1.528 1.582-2.75 2.243-3.583.676-.85 1.44-1.467 2.476-1.467s1.8.616 2.476 1.467c.661.833 1.364 2.055 2.243 3.583l3.824 6.65c.834 1.45 1.505 2.615 1.872 3.558.375.964.517 1.904-.007 2.765-.519.851-1.42 1.18-2.462 1.33-1.027.147-2.403.147-4.125.147h-.366c-.432 0-.83 0-1.152-.043-.356-.048-.731-.16-1.04-.47s-.422-.684-.47-1.04c-.043-.323-.043-.72-.043-1.152z" clip-rule="evenodd"/></svg>