<svg xmlns="http://www.w3.org/2000/svg" fill="none" viewBox="0 0 24 24"><path fill="currentColor" fill-rule="evenodd" d="m4.414 3.75.284 1.133c.016.064.04.164.076.256.04.102.121.272.298.41a.95.95 0 0 0 .47.189c.097.012.2.012.266.012h1.384c.066 0 .17 0 .267-.012a.95.95 0 0 0 .47-.19.95.95 0 0 0 .297-.41c.035-.09.06-.19.076-.255l.284-1.133H9l.249.001L9.25 4v4.034c0 .206 0 .427.025.615.03.219.105.5.341.735.236.236.516.312.735.341.188.025.41.025.615.025h2.068c.206 0 .427 0 .615-.025.219-.03.5-.105.735-.341.236-.236.311-.516.341-.735.025-.188.025-.41.025-.615V4l.001-.249L15 3.75h.414l.284 1.133c.016.064.04.164.076.256.04.102.121.272.298.41a.95.95 0 0 0 .47.189c.097.012.2.012.266.012h1.384c.066 0 .17 0 .267-.012a.95.95 0 0 0 .47-.19.95.95 0 0 0 .297-.41c.035-.09.06-.19.076-.255l.284-1.133H20l.249.001.001.249v16.25H16l-.249-.001-.001-.25v-2a3.75 3.75 0 0 0-7.5 0v2l-.001.25H3.75V4l.001-.249L4 3.75zM21 21.75h1a.75.75 0 0 0 0-1.5h-.25V3.966c0-.206 0-.427-.025-.615-.03-.219-.105-.5-.341-.735a1.24 1.24 0 0 0-.735-.341c-.187-.025-.41-.025-.614-.025h-.727c-.066 0-.17 0-.267.012a.95.95 0 0 0-.47.19.95.95 0 0 0-.297.409c-.035.092-.06.192-.076.256l-.284 1.133h-.828l-.284-1.133c-.016-.064-.04-.164-.076-.256a.95.95 0 0 0-.297-.41.95.95 0 0 0-.47-.189c-.098-.012-.2-.012-.267-.012h-.726c-.206 0-.427 0-.615.025-.219.03-.5.105-.735.341a1.24 1.24 0 0 0-.341.735 5 5 0 0 0-.025.615V8l-.001.249L13 8.25h-2l-.249-.001L10.75 8V3.966c0-.206 0-.427-.025-.615-.03-.219-.105-.5-.341-.735a1.24 1.24 0 0 0-.735-.341 5 5 0 0 0-.615-.025h-.726c-.066 0-.17 0-.267.012a.95.95 0 0 0-.47.19.95.95 0 0 0-.297.409c-.035.092-.06.192-.076.256L6.914 4.25h-.828l-.284-1.133c-.016-.064-.04-.164-.076-.256a.95.95 0 0 0-.298-.41.95.95 0 0 0-.47-.189 2 2 0 0 0-.266-.012h-.727c-.205 0-.426 0-.614.025-.219.03-.5.105-.735.341a1.24 1.24 0 0 0-.341.735c-.025.188-.025.41-.025.615V20.25H2a.75.75 0 0 0 0 1.5h6.034c.206 0 .427 0 .615-.025.219-.03.5-.105.735-.341.236-.236.312-.516.341-.736.025-.187.025-.409.025-.614V18a2.25 2.25 0 0 1 4.5 0v2.034c0 .206 0 .427.025.614.03.22.105.5.341.736s.516.311.735.34c.188.026.41.026.615.026zM6 8.25a.75.75 0 0 0 0 1.5h1a.75.75 0 1 0 0-1.5zM10.75 12a.75.75 0 0 1 .75-.75h1a.75.75 0 0 1 0 1.5h-1a.75.75 0 0 1-.75-.75M17 8.25a.75.75 0 0 0 0 1.5h1a.75.75 0 0 0 0-1.5z" clip-rule="evenodd"/></svg>