<svg xmlns="http://www.w3.org/2000/svg" fill="none" viewBox="0 0 24 24"><path fill="currentColor" fill-rule="evenodd" d="M11.829 1.25h-.043c-.394 0-.76 0-1.057.038-.327.043-.684.143-.981.43-.302.29-.411.644-.457.973-.041.292-.041.648-.041 1.025v1.189l-.376-.766-.02-.04c-.198-.404-.379-.773-.564-1.05-.203-.302-.479-.602-.912-.735-.435-.134-.832-.038-1.167.104-.305.129-.652.337-1.03.562l-.04.024-.22.132-.039.023c-.36.215-.691.413-.94.612-.278.221-.536.506-.643.922-.108.414-.022.789.108 1.118.12.3.31.641.518 1.014l.021.038L5.285 9.27a5 5 0 0 0-.445-.02l-1.435.004-.043.005a1.25 1.25 0 0 0-1.096 1.437l.007.045 2.248 7.863c.24.84.44 1.534.667 2.077.24.572.542 1.05 1.029 1.413.486.362 1.033.516 1.654.588.592.068 1.324.068 2.215.068h3.829c.89 0 1.622 0 2.215-.068.62-.072 1.168-.226 1.654-.587.487-.363.788-.842 1.028-1.414.228-.543.427-1.237.668-2.077l.012-.044 2.235-7.82.008-.044a1.25 1.25 0 0 0-1.097-1.437l-.042-.005-.887-.003.226-.354.024-.038c.236-.373.453-.713.591-1.013.152-.33.26-.711.164-1.141-.097-.434-.36-.73-.642-.96-.254-.206-.595-.412-.963-.635l-.04-.023-.197-.12-.039-.023c-.347-.21-.67-.405-.955-.527-.316-.136-.692-.231-1.11-.114-.414.116-.688.39-.892.666-.186.253-.37.588-.572.952l-.021.039-.533.965V3.716c0-.377 0-.733-.04-1.025-.046-.329-.156-.683-.458-.974-.297-.286-.654-.386-.981-.429-.298-.038-.663-.038-1.057-.038zm2.921 8.779v2.02a4.83 4.83 0 0 1 3.063-2.61l.856-1.347c.268-.423.428-.677.52-.875a.7.7 0 0 0 .06-.166l.001-.017v-.001l-.006-.01a.7.7 0 0 0-.117-.114c-.163-.132-.412-.284-.833-.538l-.198-.12c-.399-.24-.632-.38-.81-.456a1 1 0 0 0-.113-.04 1 1 0 0 0-.09.105c-.12.163-.257.409-.487.825zm-4-1.914v4.635h2.5V3.76c0-.437-.002-.686-.026-.862a1 1 0 0 0-.02-.097 1 1 0 0 0-.126-.025c-.19-.025-.455-.026-.907-.026h-.342c-.452 0-.718.001-.907.026a1 1 0 0 0-.127.025 1 1 0 0 0-.019.097c-.024.176-.026.425-.026.862zM7.528 4.8 9.25 8.308v3.739a4.8 4.8 0 0 0-1.864-2.084l-2.13-3.83c-.236-.425-.377-.68-.455-.875a.7.7 0 0 1-.05-.167v-.024l.008-.012a.7.7 0 0 1 .118-.112c.16-.128.402-.274.813-.52l.22-.131c.432-.258.688-.41.884-.492a.7.7 0 0 1 .144-.048.7.7 0 0 1 .105.132c.123.183.26.458.485.916m3.277-2.024-.003.005zm-.028.031-.006.003zm2.452.003-.006-.003zm-.03-.029-.004-.005zM4.84 10.75l-1.004.002 2.113 7.395c.257.895.432 1.502.621 1.954.182.432.347.645.541.79.196.146.454.245.931.3.496.058 1.141.059 2.087.059h3.74c.946 0 1.591-.001 2.088-.058.477-.056.734-.155.93-.3.195-.146.36-.36.541-.791.19-.452.365-1.059.621-1.953l2.114-7.395-1.003-.003c-1.502 0-2.81.978-3.217 2.376a1.57 1.57 0 0 1-1.507 1.124H9.564c-.692 0-1.312-.45-1.508-1.124-.407-1.398-1.714-2.376-3.215-2.376M13.008 17a1 1 0 0 1-1 1h-.01a1 1 0 1 1 0-2h.01a1 1 0 0 1 1 1M6.958 3.75h-.009zm-.028-.005-.007-.004zm10.262 1.994-.005.003zm-.038.012h-.007z" clip-rule="evenodd"/></svg>