<svg xmlns="http://www.w3.org/2000/svg" fill="none" viewBox="0 0 24 24"><path fill="currentColor" fill-rule="evenodd" d="M14.038 2.977a.75.75 0 0 1-.015 1.06 9 9 0 0 1-.664.552l-.057.045c-.245.193-.508.4-.757.61l-.007.006c1.147.002 2.091.014 2.854.117.9.12 1.658.38 2.26.981.602.602.86 1.36.982 2.26.116.867.116 1.97.116 3.337v3.409a2.751 2.751 0 1 1-1.5 0V12c0-1.435-.002-2.437-.103-3.192-.099-.734-.28-1.122-.556-1.399-.277-.277-.665-.457-1.4-.556-.656-.088-1.5-.1-2.653-.103l.007.006c.249.21.512.417.757.61l.057.045c.245.192.502.394.664.551a.75.75 0 1 1-1.046 1.076 9 9 0 0 0-.544-.448l-.06-.047a27 27 0 0 1-.797-.643 7.4 7.4 0 0 1-.828-.797 2.7 2.7 0 0 1-.323-.46A1.4 1.4 0 0 1 10.25 6c0-.258.089-.48.175-.642a2.7 2.7 0 0 1 .323-.461c.235-.276.537-.551.828-.797.27-.23.555-.453.797-.643l.06-.047q.407-.318.544-.448a.75.75 0 0 1 1.06.015M7.25 6a1.25 1.25 0 1 1-2.5 0 1.25 1.25 0 0 1 2.5 0m-.5 2.646v6.708a2.751 2.751 0 1 1-1.5 0V8.646a2.751 2.751 0 1 1 1.5 0M4.75 18a1.25 1.25 0 1 1 2.5 0 1.25 1.25 0 0 1-2.5 0m12 0a1.25 1.25 0 1 1 2.5 0 1.25 1.25 0 0 1-2.5 0" clip-rule="evenodd"/></svg>