<svg xmlns="http://www.w3.org/2000/svg" fill="none" viewBox="0 0 24 24"><path fill="currentColor" fill-rule="evenodd" d="M12 1.25C6.063 1.25 1.25 6.063 1.25 12S6.063 22.75 12 22.75a.75.75 0 0 0 0-1.5 9.2 9.2 0 0 1-2.538-.353c.483-.993.277-2.048-.026-2.915-.267-.765-.368-1.066-.42-1.416-.056-.366-.058-.795-.058-1.814 0-.99-.11-1.953-.86-2.567-.36-.296-.804-.455-1.287-.545s-1.056-.122-1.722-.122c-.85 0-1.62-.345-2.25-.807a9.26 9.26 0 0 1 6.422-7.549c-.022.281-.01.562.036.835.138.792.589 1.539 1.416 1.94.315.153.442.307.511.436.084.155.125.343.172.654l.015.104c.085.596.215 1.506 1.22 2.157.68.44 1.53.598 2.432.333.884-.26 1.756-.908 2.568-1.96.501-.648 1.18-.98 1.832-1.127A9.2 9.2 0 0 1 21.25 12a.75.75 0 0 0 1.5 0c0-5.937-4.813-10.75-10.75-10.75m6.38 4.052A9.22 9.22 0 0 0 12 2.75q-.59 0-1.159.072c-.093.32-.114.64-.066.919.07.402.272.691.593.847.564.274.94.636 1.176 1.072.222.41.29.837.335 1.146l.004.027c.095.634.137.92.564 1.196.32.207.72.292 1.193.153.49-.145 1.118-.549 1.804-1.438a4.5 4.5 0 0 1 1.936-1.442M2.76 12.425a9.25 9.25 0 0 0 5.284 7.939c.298-.488.258-1.08-.024-1.888L8 18.419c-.241-.692-.393-1.127-.468-1.631-.074-.49-.074-1.04-.074-1.962v-.074c0-.997-.15-1.276-.31-1.407-.094-.077-.268-.166-.613-.231-.347-.065-.812-.096-1.446-.096a5 5 0 0 1-2.33-.593m14.294 1.325a3.3 3.3 0 0 0-3.304 3.296 3.3 3.3 0 0 0 3.304 3.296 3.297 3.297 0 0 0 3.304-3.296 3.3 3.3 0 0 0-3.304-3.296m3.87 6.137a4.77 4.77 0 0 0 .934-2.841 4.8 4.8 0 0 0-4.804-4.796 4.8 4.8 0 0 0-4.804 4.796 4.8 4.8 0 0 0 4.804 4.796 4.8 4.8 0 0 0 2.803-.9l1.617 1.592a.75.75 0 1 0 1.052-1.068z" clip-rule="evenodd"/></svg>