<svg xmlns="http://www.w3.org/2000/svg" fill="none" viewBox="0 0 24 24"><path fill="currentColor" fill-rule="evenodd" d="M1.25 12c0 5.928 4.822 10.75 10.75 10.75S22.75 17.928 22.75 12 17.928 1.25 12 1.25 1.25 6.072 1.25 12m19.723-2.25c.181.72.277 1.474.277 2.25s-.096 1.53-.277 2.25h-4.398a14.5 14.5 0 0 0 0-4.5zm-.518-1.5H16.26c-.62-2.337-1.703-4.171-2.543-5.34a9.28 9.28 0 0 1 6.74 5.34m-5.406 1.5c.127.711.201 1.463.201 2.25s-.074 1.539-.201 2.25h-6.1A13 13 0 0 1 8.75 12c0-.787.074-1.539.2-2.25zm-5.74-1.5h5.382C13.966 5.828 12.71 4.028 12 3.143c-.71.885-1.966 2.685-2.691 5.107m-1.883 1.5a14.5 14.5 0 0 0 0 4.5h-4.4A9.2 9.2 0 0 1 2.75 12c0-.776.096-1.53.277-2.25zm-3.881-1.5h4.197c.62-2.337 1.702-4.171 2.543-5.34a9.28 9.28 0 0 0-6.74 5.34m10.17 12.84a9.28 9.28 0 0 0 6.74-5.34h-4.197c-.618 2.337-1.701 4.171-2.542 5.34M12 20.857c.71-.885 1.966-2.685 2.69-5.107H9.31c.724 2.422 1.98 4.221 2.69 5.107m-1.714.234c-.84-1.17-1.924-3.004-2.543-5.341H3.545a9.28 9.28 0 0 0 6.74 5.34" clip-rule="evenodd"/></svg>