<svg xmlns="http://www.w3.org/2000/svg" fill="none" viewBox="0 0 24 24"><path fill="currentColor" fill-rule="evenodd" d="M12.038 3.25h-.076c-.737 0-1.346 0-1.848.051-.527.054-.996.17-1.438.436a4 4 0 0 0-.191.124c-.422.295-.725.68-1.004 1.146-.267.448-.54 1.021-.873 1.722l-.024.05c-.355.746-.661 1.389-.885 1.937a.75.75 0 0 0 1.388.568c.207-.505.495-1.11.86-1.878.352-.741.596-1.25.822-1.63.22-.368.392-.557.574-.684q.053-.037.108-.07c.187-.113.417-.188.816-.228.416-.043.949-.044 1.733-.044s1.317 0 1.733.044c.399.04.63.115.816.228q.056.033.108.07c.182.127.354.316.574.684.226.38.47.889.822 1.63.365.767.653 1.373.86 1.878a.75.75 0 0 0 1.388-.568c-.224-.548-.53-1.19-.885-1.937l-.024-.05c-.333-.7-.606-1.274-.873-1.722-.278-.466-.582-.851-1.004-1.146a3 3 0 0 0-.19-.124c-.443-.266-.911-.382-1.44-.436-.5-.051-1.11-.051-1.847-.051m-4.076 8h.076c.737 0 1.346 0 1.848.051.528.054.996.17 1.438.436q.098.059.191.124c.422.295.726.68 1.004 1.146.267.448.54 1.021.874 1.722l.04.086c.496 1.041.902 1.895 1.121 2.587.225.71.315 1.431-.053 2.101l-.075.127c-.413.657-1.085.906-1.805 1.015-.69.105-1.597.105-2.69.105H6.069c-1.092 0-1.999 0-2.689-.105-.72-.109-1.392-.358-1.805-1.015l-.075-.127c-.368-.67-.278-1.39-.053-2.1.22-.694.625-1.547 1.121-2.588l.04-.086c.334-.7.607-1.274.874-1.722.278-.466.582-.851 1.004-1.146q.094-.065.19-.124c.443-.266.912-.382 1.44-.436.5-.051 1.11-.051 1.847-.051m-1.695 1.543c-.399.041-.63.116-.816.229a2 2 0 0 0-.108.07c-.182.127-.354.316-.574.684-.226.38-.47.889-.822 1.63-.527 1.108-.887 1.867-1.071 2.45-.183.575-.132.797-.062.925l.03.05c.07.113.213.248.76.331.564.086 1.356.088 2.527.088H9.87c1.172 0 1.963-.002 2.527-.088.547-.083.69-.218.76-.33l.03-.05c.07-.13.12-.351-.062-.927-.184-.582-.543-1.341-1.07-2.449-.353-.741-.597-1.25-.823-1.63-.22-.368-.392-.557-.574-.684a2 2 0 0 0-.108-.07c-.187-.113-.417-.188-.816-.229-.416-.042-.949-.043-1.733-.043s-1.317 0-1.733.043m11.465 0c-.416-.042-.949-.043-1.733-.043-.59 0-1.04 0-1.413.02a.75.75 0 1 1-.078-1.498c.416-.022.905-.022 1.474-.022h.055c.737 0 1.346 0 1.848.051.527.054.996.17 1.438.436q.098.059.191.124c.422.295.726.68 1.004 1.146.267.448.54 1.021.873 1.722l.04.086c.497 1.041.903 1.895 1.122 2.587.225.71.315 1.431-.053 2.101l-.075.127c-.413.657-1.085.906-1.805 1.015-.69.105-1.597.105-2.69.105h-1.19a.75.75 0 0 1 0-1.5h1.128c1.172 0 1.963-.002 2.527-.088.547-.083.69-.218.76-.33l.03-.05c.07-.13.12-.351-.062-.927-.184-.582-.544-1.341-1.07-2.449-.354-.741-.597-1.25-.823-1.63-.22-.368-.392-.557-.574-.684a2 2 0 0 0-.108-.07c-.187-.113-.417-.188-.816-.229" clip-rule="evenodd"/></svg>