<svg xmlns="http://www.w3.org/2000/svg" fill="none" viewBox="0 0 24 24"><path fill="currentColor" fill-rule="evenodd" d="M11.708 9.108c-.014-2.827.01-4.962.172-6.032a.9.9 0 0 1 .13-.258c.018-.021.04-.048.137-.061.127-.018.378-.009.826.135.442.141 1.032.4 1.815.829l.03.015 2.18 1.069c.676.33 1.383.715 1.83 1.134.22.206.322.37.356.484.024.078.03.165-.057.31-.228.38-.848.952-2.351 1.593l-.035.016-5.022 2.446zm-1.478 9.911a369 369 0 0 0-.002-7.045l-.005-.572-.015-2.287c-.014-2.828.006-5.146.203-6.348a1 1 0 0 1 .032-.127c.075-.213.195-.525.426-.796a1.67 1.67 0 0 1 1.072-.573c.435-.06.93.013 1.49.192.562.18 1.239.483 2.063.934l2.165 1.061c.667.327 1.564.796 2.194 1.386.318.297.624.677.766 1.141.152.5.091 1.024-.206 1.52-.47.783-1.437 1.512-3.032 2.194l-5.65 2.752c.015 2.06.025 4.3-.001 6.585a.75.75 0 1 1-1.5-.017m-1.628-1.283a.75.75 0 0 0-.223-1.483c-1.375.206-2.588.569-3.48 1.048-.446.24-.842.524-1.135.86-.296.34-.514.767-.514 1.263 0 .673.398 1.204.864 1.584.473.384 1.111.698 1.834.946 1.452.5 3.41.795 5.537.795s4.085-.295 5.537-.795c.722-.248 1.36-.562 1.833-.946.467-.38.865-.91.865-1.584 0-.53-.25-.976-.578-1.32-.325-.342-.763-.625-1.253-.86-.983-.47-2.317-.812-3.819-.994a.75.75 0 0 0-.18 1.489c1.405.17 2.566.482 3.351.858.395.189.659.377.815.54.153.161.164.255.164.287 0 .037-.02.184-.312.42-.285.232-.742.474-1.375.692-1.257.432-3.042.713-5.048.713s-3.792-.28-5.049-.713c-.632-.218-1.09-.46-1.375-.692-.29-.236-.311-.383-.311-.42 0-.033.012-.124.145-.277.136-.156.367-.338.714-.524.692-.373 1.725-.696 2.993-.887" clip-rule="evenodd"/></svg>