<svg xmlns="http://www.w3.org/2000/svg" fill="none" viewBox="0 0 24 24"><path fill="currentColor" fill-rule="evenodd" d="M1.75 4.5A2.75 2.75 0 0 1 4.5 1.75h15a2.75 2.75 0 0 1 2.75 2.75v15a2.75 2.75 0 0 1-2.75 2.75h-15a2.75 2.75 0 0 1-2.75-2.75zM4.5 3.25c-.69 0-1.25.56-1.25 1.25v3.586h4V3.25zm2.75 6.336h-4v4.828h4zm1.5 0h6.5v4.828h-6.5zm6.5-1.5h-6.5V3.25h6.5zm1.5 1.5v4.828h4V9.586zm4-1.5h-4V3.25h2.75c.69 0 1.25.56 1.25 1.25zM3.25 19.5v-3.586h4v4.836H4.5c-.69 0-1.25-.56-1.25-1.25m5.5 1.25v-4.836h6.5v4.836zm8 0v-4.836h4V19.5c0 .69-.56 1.25-1.25 1.25z" clip-rule="evenodd"/></svg>