<svg xmlns="http://www.w3.org/2000/svg" fill="none" viewBox="0 0 24 24"><path fill="currentColor" fill-rule="evenodd" d="M12 2.75a9.25 9.25 0 1 0 0 18.5 9.25 9.25 0 0 0 0-18.5M1.25 12C1.25 6.063 6.063 1.25 12 1.25S22.75 6.063 22.75 12 17.937 22.75 12 22.75 1.25 17.937 1.25 12" clip-rule="evenodd"/><path fill="currentColor" fill-rule="evenodd" d="M7.55 14.4a.75.75 0 0 1 1.05.15 4.24 4.24 0 0 0 3.4 1.7 4.24 4.24 0 0 0 3.4-1.7.75.75 0 0 1 1.2.9 5.74 5.74 0 0 1-4.6 2.3 5.74 5.74 0 0 1-4.6-2.3.75.75 0 0 1 .15-1.05m7.98-6.93a.75.75 0 0 1 .029 1.03A2.61 2.61 0 0 1 17.6 9.55a.75.75 0 1 1-1.2.9c-.45-.6-1.35-.6-1.8 0a.75.75 0 0 1-1.35-.45c0-.725.351-1.379.626-1.791a5.5 5.5 0 0 1 .574-.72l.013-.012.004-.005.002-.001V7.47a.75.75 0 0 1 1.061 0M8.442 8.5A.75.75 0 0 1 9.53 7.47h.002l.001.002.004.005.013.013a3 3 0 0 1 .176.194c.108.126.252.307.398.525.275.412.626 1.066.626 1.791a.75.75 0 0 1-1.35.45c-.45-.6-1.35-.6-1.8 0a.75.75 0 0 1-1.2-.9A2.6 2.6 0 0 1 8.442 8.5" clip-rule="evenodd"/></svg>