<svg xmlns="http://www.w3.org/2000/svg" fill="none" viewBox="0 0 24 24"><path fill="currentColor" fill-rule="evenodd" d="M18.25 11.902V10.5A6.257 6.257 0 0 0 12 4.25a6.257 6.257 0 0 0-6.25 6.25v1.403c.156.06.328.138.535.232l.005.003.035.016.009.004c.366.168.588.27.793.448.623.541.623 1.238.623 1.7v4.391c0 .461 0 1.157-.622 1.698-.213.184-.44.288-.819.46-.493.225-.79.361-1.146.39a2 2 0 0 1-.17.007v-.001c-.936 0-1.47-.649-1.832-1.088q-.16-.193-.342-.402c-.558-.645-1.19-1.377-1.438-2.286a3.7 3.7 0 0 1 0-1.948c.214-.786.72-1.401 1.727-2.625l.031-.037c.273-.331.613-.744 1.111-.962V10.5c0-4.273 3.477-7.75 7.75-7.75s7.75 3.477 7.75 7.75v1.393q.12.049.234.111c.361.204.601.51.793.755l.01.013.1.124c1.012 1.23 1.517 1.845 1.732 2.63a3.7 3.7 0 0 1 0 1.948c-.249.908-.88 1.639-1.436 2.283l-.002.002-.003.004q-.18.207-.339.398c-.337.41-.54.657-.853.833a2 2 0 0 1-1.149.25c-.355-.03-.653-.165-1.145-.39h-.003l-.027-.012c-.452-.206-1.07-.488-1.321-1.234-.091-.27-.091-.512-.091-.913v-4.392c0-.4 0-.64.091-.912.25-.743.867-1.025 1.317-1.23l.004-.002.027-.013.014-.006c.212-.096.387-.176.547-.238M5 13.25c-.205 0-.346.135-.703.568l-.027.032-.005.006c-.871 1.06-1.308 1.59-1.438 2.066a2.2 2.2 0 0 0 0 1.158c.16.58.65 1.149 1.126 1.699l.001.002c.122.141.247.286.365.429.38.461.508.556.723.539.093-.008.337-.119.646-.26l.004-.002c.21-.095.406-.184.453-.225.08-.07.105-.157.105-.565v-4.391c0-.409-.025-.497-.106-.567-.044-.038-.229-.123-.442-.221l-.033-.014-.003-.001c-.298-.136-.535-.243-.624-.251zm13.999 0-.043.002c-.09.007-.326.115-.627.253l-.017.007-.028.013c-.333.152-.482.23-.522.348-.013.048-.013.243-.013.432v4.393c0 .189 0 .385.013.433.039.116.189.195.522.346l.027.014c.309.14.553.252.645.26a.53.53 0 0 0 .294-.062c.067-.038.235-.242.429-.479.118-.143.244-.288.366-.43l.006-.006c.473-.548.962-1.114 1.12-1.694a2.2 2.2 0 0 0 0-1.156c-.13-.476-.567-1.007-1.435-2.062l-.004-.005-.136-.171-.004-.006c-.115-.147-.244-.311-.343-.367a.5.5 0 0 0-.25-.062" clip-rule="evenodd"/></svg>