<svg xmlns="http://www.w3.org/2000/svg" fill="none" viewBox="0 0 24 24"><path fill="currentColor" fill-rule="evenodd" d="M16.21 3.19c-1.174-.727-2.124-.426-2.688.001l-.018.014a8 8 0 0 1-.39.285c-.059.04-.135.086-.219.124a.95.95 0 0 1-.395.09.95.95 0 0 1-.395-.09 2 2 0 0 1-.22-.124c-.11-.074-.246-.177-.39-.285l-.017-.014c-.563-.427-1.514-.728-2.687 0-.667.412-1.183 1.38-1.006 2.708.174 1.31 1.04 2.968 3.15 4.547.888.663 1.117.804 1.565.804.449 0 .677-.14 1.564-.804 2.112-1.579 2.978-3.236 3.152-4.547.176-1.327-.34-2.296-1.007-2.709m-3.594-1.194c.983-.746 2.607-1.182 4.384-.08 1.268.785 1.94 2.395 1.703 4.18-.24 1.802-1.387 3.792-3.74 5.551l-.088.066c-.772.578-1.385 1.037-2.375 1.037s-1.603-.46-2.375-1.037l-.087-.066c-2.354-1.76-3.501-3.749-3.74-5.55C6.06 4.31 6.732 2.7 8 1.914c1.776-1.1 3.4-.665 4.384.081l.115.088zM3.25 14.001a.75.75 0 0 1 .75-.75h2.395c.407 0 .809.091 1.174.268l2.042.988c.16.078.34.119.521.119h1.043c.837 0 1.595.395 2.068 1.015l4.127-1.267h.001a2.735 2.735 0 0 1 3.034 1.03c.622.86.382 2.102-.552 2.64l-7.515 4.337a2.74 2.74 0 0 1-2.156.256L3.787 20.74a.75.75 0 0 1 .427-1.438l6.395 1.897c.327.097.678.056.98-.117l7.515-4.337c.141-.081.201-.302.085-.463a1.24 1.24 0 0 0-1.373-.476h-.003l-4.064 1.25.002.086a.84.84 0 0 1-.617.808l-2.54.703a2.7 2.7 0 0 1-1.895-.171l-2.183-1.056a.75.75 0 0 1 .653-1.35l2.183 1.056c.26.125.56.153.841.075l1.935-.535a1.08 1.08 0 0 0-.953-.546h-1.043c-.407 0-.808-.092-1.174-.269l-2.042-.988a1.2 1.2 0 0 0-.52-.118H4a.75.75 0 0 1-.75-.75" clip-rule="evenodd"/></svg>