<svg xmlns="http://www.w3.org/2000/svg" fill="none" viewBox="0 0 24 24"><path fill="currentColor" fill-rule="evenodd" d="M19.2 1.25h.051c.616 0 1.157 0 1.592.063.474.068.93.224 1.295.615.358.383.494.85.555 1.333.057.455.057 1.025.057 1.692v.094c0 .667 0 1.237-.057 1.692-.06.483-.197.95-.555 1.333-.365.391-.82.547-1.295.615-.435.063-.976.063-1.592.063H17.75c-.616 0-1.157 0-1.592-.063-.474-.068-.93-.224-1.295-.615-.358-.383-.494-.85-.555-1.333a8 8 0 0 1-.052-.844c-.522.138-.846.328-1.05.539-.283.29-.455.736-.455 1.518v8.094c0 .817.197 1.268.49 1.552.213.205.532.38 1.015.508.007-.314.02-.597.052-.845.06-.483.197-.95.555-1.333.365-.392.82-.547 1.295-.615.435-.063.976-.063 1.592-.063h1.502c.616 0 1.157 0 1.592.063.474.068.93.223 1.295.615.358.383.494.85.555 1.333.057.455.057 1.025.057 1.692v.094c0 .667 0 1.237-.057 1.692-.06.483-.197.95-.555 1.333-.365.392-.82.547-1.295.615-.435.063-.976.063-1.592.063H17.75c-.616 0-1.157 0-1.592-.063-.474-.068-.93-.224-1.295-.615-.358-.383-.494-.85-.555-1.333a10 10 0 0 1-.055-1.096c-.822-.163-1.528-.457-2.055-.968-.686-.665-.947-1.572-.947-2.629V12.75H9.746a7.5 7.5 0 0 1-.07 1.013c-.08.515-.263.993-.7 1.368-.421.36-.93.498-1.47.56-.52.06-1.174.06-1.961.06h-.09c-.787 0-1.441 0-1.961-.06-.54-.062-1.049-.2-1.47-.56-.437-.375-.62-.853-.7-1.368-.074-.467-.074-1.047-.074-1.707v-.11c0-.66 0-1.24.073-1.707.08-.515.264-.993.701-1.368.421-.36.93-.498 1.47-.56.52-.06 1.174-.06 1.961-.06h.09c.787 0 1.441 0 1.961.06.54.062 1.049.2 1.47.56.437.375.62.853.7 1.368.047.295.064.635.07 1.011h1.504V7.952c0-.986.217-1.886.88-2.565.522-.536 1.242-.854 2.122-1.03.003-.415.016-.783.055-1.096.06-.483.197-.95.555-1.333.365-.391.82-.547 1.295-.615.435-.063.976-.063 1.592-.063zm-3.45 3.761v-.02c0-.722.002-1.194.045-1.544.042-.334.111-.44.163-.496.045-.048.124-.112.413-.154.315-.045.746-.047 1.429-.047h1.4c.683 0 1.114.002 1.43.047.287.042.367.106.412.154.052.056.12.162.163.496.044.351.045.826.045 1.553s-.001 1.202-.045 1.553c-.042.334-.111.44-.163.496-.045.048-.125.112-.413.154-.315.045-.746.047-1.429.047h-1.4c-.683 0-1.114-.002-1.43-.047-.288-.042-.367-.106-.412-.154-.052-.056-.12-.162-.163-.496-.043-.35-.045-.821-.045-1.542m0 13.998c0 .722.002 1.194.045 1.543.042.335.111.441.163.497.045.048.124.112.413.154.315.045.746.047 1.429.047h1.4c.683 0 1.114-.002 1.43-.047.287-.042.367-.106.412-.154.052-.056.12-.162.163-.497.044-.35.045-.825.045-1.552s-.001-1.202-.045-1.552c-.042-.335-.111-.441-.163-.497-.045-.048-.125-.112-.413-.154-.315-.045-.746-.047-1.429-.047h-1.4c-.683 0-1.114.002-1.43.047-.288.042-.367.106-.412.154-.052.056-.12.162-.163.497-.043.349-.045.82-.045 1.54zm-7.75-9c-.093-.079-.253-.162-.666-.209-.423-.049-.99-.05-1.834-.05-.843 0-1.41.001-1.834.05-.413.047-.573.13-.665.209-.076.064-.149.16-.196.461-.053.337-.055.798-.055 1.53s.002 1.193.055 1.53c.047.302.12.397.196.461.092.079.252.162.665.209.423.049.99.05 1.834.05.843 0 1.41-.001 1.834-.05.413-.047.573-.13.665-.209.076-.064.149-.16.196-.461.053-.337.055-.798.055-1.53s-.002-1.193-.055-1.53c-.047-.302-.12-.397-.196-.461" clip-rule="evenodd"/></svg>