<svg xmlns="http://www.w3.org/2000/svg" fill="none" viewBox="0 0 24 24"><path fill="currentColor" fill-rule="evenodd" d="M12 2.75c-.305 0-.602.113-1.58.534l-.666.287c-.84.362-1.398.604-1.753.818a2 2 0 0 0-.168.111q.06.045.168.111c.355.214.912.456 1.753.818l.665.287c.979.421 1.276.534 1.581.534s.602-.113 1.58-.534l.665-.287c.842-.362 1.399-.604 1.754-.818q.109-.066.168-.111A2 2 0 0 0 16 4.389c-.355-.214-.912-.456-1.754-.818l-.664-.287c-.979-.421-1.276-.534-1.581-.534m-2.052-.896c.802-.346 1.399-.604 2.052-.604s1.25.258 2.052.604l.122.053.719.31c.773.333 1.426.614 1.88.886.429.259.977.681.977 1.397v6c0 .716-.548 1.138-.978 1.397-.453.272-1.106.553-1.88.887l-.718.31-.122.052c-.802.346-1.399.604-2.052.604s-1.25-.258-2.052-.604l-.122-.053-.719-.31c-.773-.333-1.426-.614-1.88-.886-.429-.259-.977-.681-.977-1.397v-6c0-.716.548-1.138.978-1.397.453-.272 1.106-.553 1.88-.887l.053-.023.665-.286zM7.75 6.176v4.255c.032.032.104.092.251.18.355.214.912.456 1.753.818l.665.287c.356.153.622.266.831.347v-4.42c-.397-.106-.812-.285-1.302-.497l-.122-.053-.665-.286-.054-.023a32 32 0 0 1-1.357-.608m5 5.887c.209-.081.475-.194.83-.347l.665-.287c.842-.362 1.399-.604 1.754-.818.147-.088.219-.148.251-.18V6.176a32 32 0 0 1-1.357.608l-.719.31-.122.052c-.49.212-.905.39-1.302.498zm-4.022 3.12a.75.75 0 1 0-1.455-.365l-1 4a.75.75 0 0 0 1.455.364zm8-.365a.75.75 0 1 0-1.455.364l1 4a.75.75 0 0 0 1.455-.364zM12.75 16a.75.75 0 0 0-1.5 0v3a.75.75 0 0 0 1.5 0zM3 21.25a.75.75 0 0 0 0 1.5h18a.75.75 0 0 0 0-1.5z" clip-rule="evenodd"/></svg>