<svg xmlns="http://www.w3.org/2000/svg" fill="none" viewBox="0 0 24 24"><path fill="currentColor" fill-rule="evenodd" d="M7.55 5.354c1.194-.932 2.038-1.59 2.753-2.022.696-.421 1.198-.582 1.697-.582s1 .16 1.698.582c.714.432 1.558 1.09 2.752 2.022l1 .78c1.575 1.23 2.156 1.706 2.47 2.348.312.642.33 1.397.33 3.398v2.092c0 1.913-.002 3.273-.14 4.305-.135 1.01-.39 1.593-.813 2.018s-1.003.68-2.008.815c-.446.06-.952.094-1.539.114v-3.25c0-.444 0-.815-.02-1.12a2.8 2.8 0 0 0-.189-.905 2.75 2.75 0 0 0-1.49-1.49 2.8 2.8 0 0 0-.906-.188c-.304-.021-.675-.021-1.119-.021h-.05c-.444 0-.815 0-1.119.02a2.8 2.8 0 0 0-.906.189 2.75 2.75 0 0 0-1.49 1.489c-.12.29-.166.589-.188.906-.02.304-.02.674-.021 1.118l-.002 3.252a16 16 0 0 1-1.539-.114c-1.005-.136-1.585-.39-2.008-.815s-.678-1.008-.813-2.018c-.138-1.032-.14-2.392-.14-4.305V11.88c0-2.001.018-2.756.331-3.398s.895-1.119 2.469-2.348zm2.2 15.894q.582.002 1.25.002h2q.668 0 1.25-.002v-3.249c0-.476 0-.795-.017-1.042-.017-.24-.046-.358-.078-.435a1.25 1.25 0 0 0-.677-.677c-.077-.032-.194-.061-.435-.078a17 17 0 0 0-1.042-.017c-.476 0-.795 0-1.042.017-.24.017-.357.046-.434.078a1.25 1.25 0 0 0-.677.677c-.032.077-.062.194-.078.434-.017.247-.018.566-.018 1.042zM12 1.25c-.874 0-1.648.3-2.474.799-.8.483-1.713 1.197-2.861 2.093l-1.038.81-.145.113c-1.376 1.073-2.266 1.767-2.75 2.76-.483.992-.483 2.122-.482 3.87v2.333c0 1.844 0 3.305.153 4.448.158 1.176.49 2.127 1.237 2.878.749.75 1.698 1.084 2.87 1.242 1.14.154 2.596.154 4.434.154h2.113c1.837 0 3.293 0 4.432-.154 1.173-.158 2.122-.491 2.87-1.242.749-.75 1.08-1.702 1.238-2.878.153-1.143.153-2.604.153-4.448v-2.332c0-1.75.001-2.88-.483-3.871-.483-.993-1.373-1.687-2.748-2.76l-.146-.113-1.038-.81c-1.147-.896-2.061-1.61-2.861-2.093-.826-.5-1.6-.799-2.474-.799" clip-rule="evenodd"/></svg>