<svg xmlns="http://www.w3.org/2000/svg" fill="none" viewBox="0 0 24 24"><path fill="currentColor" fill-rule="evenodd" d="M4.75 9.919C4.75 5.967 7.989 2.75 12 2.75s7.25 3.217 7.25 7.169a7.07 7.07 0 0 1-1.033 3.691.75.75 0 0 0 1.28.78 8.57 8.57 0 0 0 1.253-4.471c0-4.795-3.925-8.669-8.75-8.669S3.25 5.124 3.25 9.919c0 1.634.457 3.165 1.252 4.471a.75.75 0 0 0 1.282-.78A7.07 7.07 0 0 1 4.75 9.919m3.422 5.331h-.018c-.13 0-.258 0-.367.006a1.4 1.4 0 0 0-.427.085 1.35 1.35 0 0 0-.859 1.194c-.008.171.025.322.055.432.028.105.068.227.11.351l.005.017.026.078c.144.434.257.774.438 1.06.291.46.71.821 1.202 1.04l.056.28.022.108c.12.6.212 1.067.432 1.454a2.75 2.75 0 0 0 1.53 1.255c.423.14.9.14 1.51.139h.223c.612 0 1.088 0 1.51-.139a2.75 2.75 0 0 0 1.532-1.255c.219-.387.312-.854.431-1.454l.022-.109.056-.278a2.75 2.75 0 0 0 1.204-1.041c.182-.286.294-.625.438-1.06l.026-.078.005-.017c.041-.124.082-.246.11-.35a1.4 1.4 0 0 0 .055-.433 1.35 1.35 0 0 0-.859-1.194 1.4 1.4 0 0 0-.427-.085c-.109-.006-.237-.006-.367-.006H12.75V11a.75.75 0 0 0-1.5 0v4.25zm1.98 5.365c-.075-.13-.123-.306-.237-.865h4.169c-.115.559-.163.734-.237.865a1.25 1.25 0 0 1-.696.57c-.163.054-.375.064-1.152.064s-.99-.01-1.152-.063a1.25 1.25 0 0 1-.696-.57m-2.057-3.753-.037-.112h7.884l-.037.112c-.182.55-.237.698-.307.81-.172.27-.44.464-.75.541-.125.032-.282.037-.86.037h-3.976c-.578 0-.735-.005-.86-.037a1.24 1.24 0 0 1-.75-.542c-.07-.11-.125-.26-.307-.81" clip-rule="evenodd"/></svg>