<svg xmlns="http://www.w3.org/2000/svg" fill="none" viewBox="0 0 24 24"><path fill="currentColor" fill-rule="evenodd" d="M4.75 2a.75.75 0 0 0-1.5 0v1.25H2a.75.75 0 0 0 0 1.5h1.25v9.305c0 1.367 0 2.47.117 3.337.12.9.38 1.658.981 2.26.602.602 1.36.86 2.26.982.867.116 1.97.116 3.337.116h9.305V22a.75.75 0 0 0 1.5 0v-1.25H22a.75.75 0 0 0 0-1.5h-1.25V9.945c0-1.367 0-2.47-.116-3.337-.122-.9-.38-1.658-.982-2.26s-1.36-.86-2.26-.981c-.867-.117-1.97-.117-3.337-.117H4.75zm0 12V4.75H14c1.435 0 2.436.002 3.192.103.734.099 1.122.28 1.399.556.277.277.457.665.556 1.4.101.754.103 1.756.103 3.191v4.035c-1.229-.541-2.402-.785-3.527-.785-1.46 0-2.791.412-4.007 1.047-2.079 1.086-3.904 2.876-5.526 4.467l-.197.194a1.6 1.6 0 0 1-.584-.367c-.277-.277-.457-.665-.556-1.4-.101-.755-.103-1.756-.103-3.191m10.973.75c1.064 0 2.231.271 3.527.95v3.55H10c-.852 0-1.551 0-2.137-.022 1.443-1.401 2.912-2.747 4.547-3.601 1.052-.55 2.145-.877 3.313-.877M7.75 8.5a.75.75 0 1 1 1.5 0 .75.75 0 0 1-1.5 0m.75-2.25a2.25 2.25 0 1 0 0 4.5 2.25 2.25 0 0 0 0-4.5" clip-rule="evenodd"/></svg>