<svg xmlns="http://www.w3.org/2000/svg" fill="none" viewBox="0 0 24 24"><path fill="currentColor" fill-rule="evenodd" d="M6.377 3.246a.75.75 0 1 0-.166-1.491c-1.477.163-2.633.549-3.511 1.534-.775.869-1.119 1.965-1.284 3.343-.162 1.355-.162 3.092-.162 5.317v.103c0 2.224 0 3.962.162 5.316.165 1.378.51 2.474 1.284 3.343.878.985 2.034 1.372 3.511 1.535a.75.75 0 1 0 .166-1.49c-1.31-.146-2.03-.455-2.553-1.041-.48-.54-.765-1.283-.914-2.525-.15-1.255-.152-2.903-.152-5.19s.002-3.935.152-5.19c.149-1.242.433-1.985.914-2.525.523-.586 1.243-.895 2.553-1.04m11.485-1.491a.75.75 0 1 0-.165 1.49c1.31.145 2.03.454 2.552 1.04.481.54.765 1.283.914 2.525.15 1.255.152 2.903.152 5.19s-.001 3.935-.152 5.19c-.149 1.242-.433 1.985-.914 2.525-.522.586-1.242.895-2.553 1.04a.75.75 0 1 0 .166 1.49c1.477-.163 2.634-.549 3.512-1.534.774-.869 1.118-1.965 1.283-3.343.163-1.354.163-3.092.163-5.316v-.103c0-2.225 0-3.962-.163-5.317-.165-1.378-.509-2.474-1.283-3.343-.878-.985-2.035-1.371-3.512-1.534M6.77 12c0-1.351.81-2.25 1.956-2.25.191 0 .451.09.776.325.317.23.633.553.921.902.285.345.526.694.696.958l.04.065-.04.065c-.17.264-.41.613-.696.958-.288.349-.604.672-.921.902-.325.235-.585.325-.776.325-1.146 0-1.956-.899-1.956-2.25m6.183.065-.04-.065.04-.065c.17-.264.41-.613.696-.958.288-.349.604-.672.922-.902.324-.235.584-.325.776-.325 1.145 0 1.956.899 1.956 2.25s-.81 2.25-1.956 2.25c-.192 0-.452-.09-.776-.325-.318-.23-.634-.553-.922-.902a10 10 0 0 1-.695-.958m-1.369 1.912c.166-.2.318-.4.452-.588.133.187.285.387.45.588.332.401.74.828 1.2 1.161.45.327 1.02.612 1.66.612 2.178 0 3.46-1.787 3.46-3.75s-1.282-3.75-3.46-3.75c-.64 0-1.21.285-1.66.612-.46.333-.867.76-1.2 1.161-.165.2-.316.4-.45.588a11 11 0 0 0-.452-.588c-.331-.401-.739-.828-1.198-1.161-.452-.327-1.021-.612-1.66-.612-2.179 0-3.46 1.787-3.46 3.75s1.281 3.75 3.46 3.75c.639 0 1.208-.285 1.66-.612.46-.333.867-.76 1.198-1.161" clip-rule="evenodd"/></svg>