<svg xmlns="http://www.w3.org/2000/svg" fill="none" viewBox="0 0 24 24"><path fill="currentColor" fill-rule="evenodd" d="M2.25 3A.75.75 0 0 1 3 2.25h16a.75.75 0 0 1 0 1.5H3A.75.75 0 0 1 2.25 3m0 18a.75.75 0 0 1 .75-.75h9a.75.75 0 0 1 0 1.5H3a.75.75 0 0 1-.75-.75M16.054 6.25H7.946c-1.133 0-2.058 0-2.79.098-.763.103-1.425.325-1.954.854s-.751 1.19-.854 1.955c-.098.73-.098 1.656-.098 2.79v.107c0 1.133 0 2.058.098 2.79.103.763.325 1.425.854 1.954s1.19.751 1.955.854c.73.098 1.656.098 2.79.098h8.107c1.133 0 2.058 0 2.79-.098.763-.103 1.425-.325 1.954-.854s.751-1.19.854-1.955c.098-.73.098-1.656.098-2.79v-.107c0-1.133 0-2.058-.098-2.79-.103-.763-.325-1.425-.854-1.954s-1.19-.751-1.955-.854c-.73-.098-1.657-.098-2.79-.098M4.263 8.263c.203-.204.496-.348 1.094-.428C5.976 7.752 6.8 7.75 8 7.75h8c1.2 0 2.024.002 2.643.085.598.08.89.224 1.094.428s.348.496.428 1.094c.083.619.085 1.443.085 2.643s-.002 2.024-.085 2.643c-.08.598-.224.89-.428 1.094s-.496.348-1.094.428c-.619.083-1.443.085-2.643.085H8c-1.2 0-2.024-.002-2.643-.085-.598-.08-.89-.224-1.094-.428s-.348-.496-.428-1.094C3.752 14.024 3.75 13.2 3.75 12s.002-2.024.085-2.643c.08-.598.224-.89.428-1.094" clip-rule="evenodd"/></svg>