<svg xmlns="http://www.w3.org/2000/svg" fill="none" viewBox="0 0 24 24"><path fill="currentColor" fill-rule="evenodd" d="M8.936 2.463a.75.75 0 0 1-.712.786c-2.079.103-3.13.41-3.847 1.128-.717.717-1.025 1.768-1.128 3.847a.75.75 0 1 1-1.498-.074c.105-2.12.42-3.688 1.565-4.834S6.03 1.856 8.15 1.751a.75.75 0 0 1 .786.712m6.128 0a.75.75 0 0 1 .787-.712c2.12.105 3.687.42 4.833 1.565 1.145 1.146 1.46 2.713 1.565 4.834a.75.75 0 1 1-1.498.074c-.103-2.079-.41-3.13-1.128-3.847-.717-.717-1.768-1.025-3.847-1.128a.75.75 0 0 1-.712-.786M2.463 15.064a.75.75 0 0 1 .786.712c.103 2.079.411 3.13 1.128 3.847s1.768 1.025 3.847 1.128a.75.75 0 1 1-.074 1.498c-2.12-.105-3.688-.42-4.834-1.565s-1.46-2.713-1.565-4.834a.75.75 0 0 1 .712-.786m19.074 0a.75.75 0 0 1 .712.786c-.105 2.12-.42 3.688-1.565 4.834s-2.713 1.46-4.834 1.565a.75.75 0 0 1-.074-1.498c2.08-.103 3.13-.41 3.847-1.128.717-.717 1.025-1.768 1.128-3.847a.75.75 0 0 1 .786-.712M1.75 12a.75.75 0 0 1 .75-.75h2.791a6.75 6.75 0 0 1 6.71-6 .75.75 0 0 1 .75.75 2.25 2.25 0 0 0 3.599 1.8.75.75 0 0 1 1.05.15 6.7 6.7 0 0 1 1.309 3.3H21.5a.75.75 0 0 1 0 1.5h-19a.75.75 0 0 1-.75-.75m5.053-.75h10.394a5.2 5.2 0 0 0-.63-1.842 3.75 3.75 0 0 1-5.233-2.616 5.25 5.25 0 0 0-4.53 4.458m.649 3.374a.75.75 0 1 0-1.298.752A6.75 6.75 0 0 0 12 18.75a6.75 6.75 0 0 0 5.847-3.374.75.75 0 1 0-1.299-.751A5.25 5.25 0 0 1 12 17.25a5.25 5.25 0 0 1-4.548-2.626" clip-rule="evenodd"/></svg>