<svg xmlns="http://www.w3.org/2000/svg" fill="none" viewBox="0 0 24 24"><path fill="currentColor" fill-rule="evenodd" d="M11.945 6.75h.102c1.002.02 2.005.622 2.828 1.703.639.84 1.38 1.465 2.176 1.85L14.437 16.4c-.392.135-.721.393-.961.883-.454.93-.157 1.589.22 2.422.848 1.878 2.496 3.045 4.302 3.045v-.001c1.806 0 3.455-1.166 4.302-3.044.377-.834.674-1.493.22-2.423-.24-.491-.572-.749-.966-.884l-2.422-5.65h.864v.001a.75.75 0 0 0 0-1.5h-1.048c-1.019 0-2.042-.605-2.879-1.704-.589-.773-1.264-1.365-1.989-1.754A2.74 2.74 0 0 0 14.746 4a2.754 2.754 0 0 0-2.75-2.75A2.754 2.754 0 0 0 9.246 4c0 .684.251 1.31.666 1.792-.724.39-1.4.98-1.989 1.754C7.086 8.645 6.064 9.25 5.044 9.25H3.996a.75.75 0 0 0 0 1.5h.863L2.437 16.4c-.392.136-.721.394-.961.884-.454.93-.157 1.589.22 2.422.848 1.878 2.496 3.045 4.302 3.045v-.001c1.806 0 3.455-1.166 4.302-3.044.377-.834.674-1.493.22-2.423-.24-.491-.572-.749-.966-.884L6.94 10.303c.796-.384 1.537-1.01 2.176-1.849.823-1.082 1.826-1.685 2.828-1.704M10.746 4a1.251 1.251 0 1 1 1.25 1.25c-.689 0-1.25-.561-1.25-1.25m-4.75 7.904L7.86 16.25H4.134zm10.138 4.346h3.726l-1.863-4.346zm-1.31 1.694c.074-.152.094-.193 1.113-.193h4.123c1.019 0 1.039.041 1.113.192.128.262.123.343-.24 1.146-.601 1.334-1.725 2.162-2.934 2.162s-2.333-.828-2.935-2.162c-.363-.802-.368-.883-.24-1.145M3.937 17.75c-1.02 0-1.04.04-1.113.193-.128.262-.123.343.24 1.145.602 1.334 1.726 2.162 2.935 2.162s2.333-.828 2.934-2.162c.363-.803.368-.884.24-1.146-.074-.151-.094-.192-1.113-.192z" clip-rule="evenodd"/></svg>