<svg xmlns="http://www.w3.org/2000/svg" fill="none" viewBox="0 0 24 24"><path fill="currentColor" fill-rule="evenodd" d="M10 14.25H7.948c-.898 0-1.648 0-2.242.08-.628.084-1.195.27-1.65.726-.456.455-.642 1.022-.726 1.65-.08.594-.08 1.343-.08 2.242V22a.75.75 0 0 0 1.5 0v-3c0-.964.002-1.612.067-2.095.062-.461.169-.659.3-.789s.327-.237.788-.3c.346-.046.776-.06 1.345-.064V22a.75.75 0 0 0 1.5 0v-6.25h.94l1.78 1.78a.75.75 0 0 0 1.06 0l1.78-1.78h.94V22a.75.75 0 0 0 1.5 0v-6.248c.57.004 1 .018 1.345.064.461.063.659.17.789.3s.237.328.3.79c.064.482.066 1.13.066 2.094v3a.75.75 0 0 0 1.5 0v-3.052c0-.899 0-1.648-.08-2.242-.084-.628-.27-1.195-.726-1.65-.455-.456-1.022-.642-1.65-.726-.594-.08-1.343-.08-2.242-.08H14a.75.75 0 0 0-.53.22L12 15.94l-1.47-1.47a.75.75 0 0 0-.53-.22m2-13a.75.75 0 0 1 .75.75v.816a4.25 4.25 0 0 1 3.493 3.934h.257a.75.75 0 0 1 0 1.5h-.25V9a4.25 4.25 0 0 1-8.5 0v-.75H7.5a.75.75 0 0 1 0-1.5h.257a4.25 4.25 0 0 1 3.493-3.934V2a.75.75 0 0 1 .75-.75m2.75 7h-5.5V9a2.75 2.75 0 1 0 5.5 0zm-2.75-4a2.75 2.75 0 0 0-2.739 2.5h5.478A2.75 2.75 0 0 0 12 4.25" clip-rule="evenodd"/></svg>