<svg xmlns="http://www.w3.org/2000/svg" fill="none" viewBox="0 0 24 24"><path fill="currentColor" fill-rule="evenodd" d="M15.75 4.5a1.75 1.75 0 1 1 3.5 0 1.75 1.75 0 0 1-3.5 0m1.75-3.25a3.25 3.25 0 1 0 0 6.5 3.25 3.25 0 0 0 0-6.5M6 2.25a.75.75 0 0 1 .702.487c.103.273.36.806.771 1.258.406.446.907.755 1.527.755a.75.75 0 0 1 0 1.5c-.943 0-1.691-.388-2.25-.87v.476c.124.291.365.746.723 1.139.406.446.907.755 1.527.755a.75.75 0 0 1 0 1.5c-.943 0-1.691-.388-2.25-.87v4.87H22a.75.75 0 0 1 0 1.5H2a.75.75 0 0 1 0-1.5h3.25V8.38c-.559.482-1.307.87-2.25.87a.75.75 0 0 1 0-1.5c.62 0 1.12-.31 1.527-.755.358-.393.599-.848.723-1.14v-.474c-.559.481-1.307.869-2.25.869a.75.75 0 0 1 0-1.5c.62 0 1.12-.31 1.527-.755.412-.452.668-.985.77-1.258A.75.75 0 0 1 6 2.25m.646 15.712a1.25 1.25 0 0 0-1.349-.029l-.686.42a3.75 3.75 0 0 1-1.955.55H2a.75.75 0 0 1 0-1.5h.656c.414 0 .82-.115 1.173-.33l.686-.42a2.75 2.75 0 0 1 2.967.064l.82.552a1.25 1.25 0 0 0 1.395 0l.77-.517a2.75 2.75 0 0 1 3.067 0l.769.517a1.25 1.25 0 0 0 1.394 0l.695-.467a2.75 2.75 0 0 1 3.203.097l.054.042c.392.3.872.462 1.366.462H22a.75.75 0 1 1 0 1.5h-.985a3.75 3.75 0 0 1-2.277-.77l-.054-.042a1.25 1.25 0 0 0-1.456-.044l-.694.467a2.75 2.75 0 0 1-3.068 0l-.769-.517a1.25 1.25 0 0 0-1.394 0l-.77.517a2.75 2.75 0 0 1-3.067 0zm0 3.868a1.25 1.25 0 0 0-1.349-.03l-.686.42a3.75 3.75 0 0 1-1.955.55H2a.75.75 0 0 1 0-1.5h.656c.414 0 .82-.114 1.173-.33l.686-.42a2.75 2.75 0 0 1 2.967.065l.82.55a1.25 1.25 0 0 0 1.395 0l.77-.516a2.75 2.75 0 0 1 3.067 0l.769.517a1.25 1.25 0 0 0 1.394 0l.695-.467a2.75 2.75 0 0 1 3.203.097l.054.042c.392.3.872.462 1.366.462H22a.75.75 0 0 1 0 1.5h-.985a3.75 3.75 0 0 1-2.277-.77l-.054-.042a1.25 1.25 0 0 0-1.456-.044l-.694.467a2.75 2.75 0 0 1-3.068 0l-.769-.517a1.25 1.25 0 0 0-1.394 0l-.77.517a2.75 2.75 0 0 1-3.067 0z" clip-rule="evenodd"/></svg>