<svg xmlns="http://www.w3.org/2000/svg" fill="none" viewBox="0 0 24 24"><path fill="currentColor" fill-rule="evenodd" d="M12.75 10.75v7.507q.194.006.362.022c.324.032.642.102.946.28q.182.108.342.247c.265.232.432.511.565.809.123.277.238.621.369 1.014l.01.031.197.59H16a.75.75 0 0 1 0 1.5H8a.75.75 0 0 1 0-1.5h.46l.196-.59.01-.031c.132-.393.246-.737.37-1.014.132-.298.299-.577.565-.81q.16-.138.341-.245c.305-.18.622-.25.947-.28q.168-.017.361-.023V10.75H9.352c-.902 0-1.653 0-2.226-.075-.582-.076-1.183-.25-1.57-.78-.411-.56-.343-1.183-.17-1.724.163-.509.478-1.126.842-1.84l.03-.057 1.39-2.728.018-.034c.219-.429.41-.805.608-1.102.214-.323.464-.6.822-.805.352-.201.724-.282 1.121-.32.377-.035.833-.035 1.374-.035h.818c.54 0 .997 0 1.373.035.398.038.77.119 1.122.32.358.204.608.482.822.805.197.297.389.673.607 1.102l1.439 2.82c.364.713.678 1.33.841 1.839.174.541.242 1.164-.169 1.724-.388.53-.989.704-1.57.78a8 8 0 0 1-.624.052V13a.75.75 0 0 1-1.5 0v-2.25zm1.171 10.385.039.115h-3.92l.04-.116c.144-.433.236-.707.326-.91.084-.188.14-.253.182-.289a1 1 0 0 1 .114-.082c.047-.028.127-.06.332-.08.22-.022.51-.023.966-.023.457 0 .746 0 .966.022.206.02.285.053.333.081q.06.036.114.082c.04.036.098.101.181.29.09.202.183.476.327.91M12.001 9.25h2.592c.97 0 1.622-.002 2.086-.062.468-.061.541-.16.555-.18.01-.012.014-.018.015-.05a1 1 0 0 0-.064-.33c-.121-.377-.377-.885-.779-1.672l-1.391-2.728c-.242-.473-.395-.772-.54-.99-.131-.198-.223-.278-.314-.33-.098-.056-.235-.103-.52-.13-.297-.027-.683-.028-1.266-.028h-.75c-.584 0-.97 0-1.267.029-.284.026-.422.073-.519.129-.091.052-.183.132-.315.33-.144.218-.298.517-.539.99L7.594 6.956c-.402.787-.658 1.295-.78 1.673a1 1 0 0 0-.064.328c.002.033.006.04.015.051.014.02.088.119.555.18.464.06 1.116.062 2.086.062z" clip-rule="evenodd"/></svg>