<svg xmlns="http://www.w3.org/2000/svg" fill="none" viewBox="0 0 24 24"><path fill="currentColor" fill-rule="evenodd" d="M16.041 1.254c.38.02.69.32.71.7v.018c.006.213.053 2.03-1.09 3.172-.877.878-2.162 1.06-2.803 1.093a12 12 0 0 0-.392.505c1.646-.237 3.126.914 3.185.963.3.24.37.66.17.99-.04.07-1.08 1.71-2.76 2-.18.03-.36.05-.54.05-.645 0-1.245-.188-1.717-.401a8.4 8.4 0 0 0-.154 2.462 3.4 3.4 0 0 1 .9-.841c1.43-.9 3.31-.39 3.39-.36.37.1.6.47.53.85-.01.08-.35 1.99-1.78 2.9-.66.42-1.42.53-2.05.53h-.01q-.092 0-.18-.003a10.5 10.5 0 0 0 1.46 2.374c.08-.392.222-.792.461-1.161.92-1.43 2.83-1.75 2.91-1.76.37-.07.74.17.84.54l.008.032.022.09c.1.452.377 2.027-.42 3.258-.35.543-.842.927-1.323 1.193.866.508 1.759.796 2.594.796.41 0 .75.34.75.75s-.34.75-.75.75c-1.31 0-2.692-.513-3.966-1.397-.533.452-1.415 1.03-2.465 1.067h-.1c-1.552 0-2.793-1.184-2.986-1.376l-.024-.024a.75.75 0 0 1-.03-1c.047-.056 1.177-1.384 2.738-1.578a12.2 12.2 0 0 1-1.34-2.54 5 5 0 0 1-.528.029c-.7 0-1.78-.13-2.62-.81-1.32-1.07-1.43-3.01-1.43-3.09a.75.75 0 0 1 .63-.78l.01-.002c.172-.023 1.95-.268 3.229.698a10 10 0 0 1 .264-2.095c-.604-.307-1.626-.964-2.073-2.06-.594-1.482.119-3.122.227-3.371l.013-.03c.17-.34.57-.51.93-.38l.002.001c.105.04 1.86.695 2.514 2.212q.347-.51.756-1.003c.023-.615.178-1.951 1.088-2.86.97-.97 2.424-1.097 2.978-1.105h.128q.078.002.094.004m-4.55 18.65c-.51.02-.99.28-1.34.55.36.24.83.46 1.37.45.497-.019.966-.267 1.313-.53l-.11-.104c-.348-.204-.775-.374-1.233-.366m4.29-2.88c-.4.17-.88.44-1.15.87-.28.43-.33.97-.31 1.41.4-.17.88-.44 1.15-.87.28-.43.33-.97.31-1.41m-8.89-4.31c.12.42.34.92.74 1.24s.93.43 1.37.46c-.12-.42-.34-.92-.74-1.24s-.93-.43-1.37-.46m5.46.521c-.43.27-.71.74-.88 1.15.43.02.98-.03 1.41-.3s.71-.74.88-1.15c-.43-.02-.98.03-1.41.3m.28-5.01c-.5.09-.94.42-1.25.73.39.18.91.35 1.42.26.5-.09.94-.42 1.25-.73-.39-.19-.92-.35-1.42-.26m-3.97-2.45c-.1.43-.15.97.04 1.44s.61.83.97 1.07c.1-.43.15-.97-.04-1.44s-.61-.83-.97-1.07m6.53-2.97c-.44.08-.95.26-1.29.6-.35.35-.51.85-.59 1.27.44-.08.95-.26 1.29-.6.35-.35.51-.85.59-1.27" clip-rule="evenodd"/></svg>