<svg xmlns="http://www.w3.org/2000/svg" fill="none" viewBox="0 0 24 24"><path fill="currentColor" fill-rule="evenodd" d="M11.943 1.75h.114c2.19 0 3.912 0 5.255.18 1.377.186 2.469.573 3.327 1.43.858.86 1.245 1.951 1.43 3.328.181 1.343.181 3.064.181 5.255v.114c0 2.19 0 3.912-.18 5.255-.186 1.377-.573 2.469-1.43 3.327-.86.858-1.951 1.245-3.328 1.43-1.343.181-3.064.181-5.255.181h-.114c-2.19 0-3.912 0-5.255-.18-1.377-.186-2.469-.573-3.327-1.43-.858-.86-1.245-1.951-1.43-3.328-.181-1.343-.181-3.064-.181-5.255v-.114c0-2.19 0-3.912.18-5.255.186-1.377.573-2.469 1.43-3.327.86-.858 1.951-1.245 3.328-1.43 1.343-.181 3.064-.181 5.255-.181M6.888 3.417c-1.21.163-1.933.472-2.466 1.005S3.58 5.678 3.417 6.888C3.252 8.12 3.25 9.74 3.25 12s.002 3.88.167 5.112c.163 1.21.472 1.933 1.005 2.466s1.256.842 2.466 1.005q.402.053.862.086V3.331q-.46.032-.862.086M12 20.75c-1.045 0-1.954 0-2.75-.017V3.267c.796-.017 1.705-.017 2.75-.017s1.954 0 2.75.017v17.466c-.796.017-1.705.017-2.75.017m4.25-.08q.461-.034.862-.087c1.21-.163 1.933-.471 2.466-1.005s.842-1.256 1.005-2.466c.165-1.232.167-2.852.167-5.112s-.002-3.88-.167-5.112c-.163-1.21-.471-1.933-1.005-2.466s-1.256-.842-2.466-1.005a14 14 0 0 0-.862-.086z" clip-rule="evenodd"/></svg>