<svg xmlns="http://www.w3.org/2000/svg" fill="none" viewBox="0 0 24 24"><path fill="currentColor" fill-rule="evenodd" d="M21 14.75h-8a.75.75 0 0 1 0-1.5h.128c-.09-.647-.207-1.59-.287-2.618l-8.396.603a3 3 0 0 1-.227.008l.001.001c-.792 0-1.551-.29-2.111-.812a2.63 2.63 0 0 1-.858-1.934c0-.73.307-1.424.863-1.943a3.1 3.1 0 0 1 2.331-.805l8.397.612a44 44 0 0 1 .287-2.612H13a.75.75 0 0 1 0-1.5h8a.75.75 0 0 1 0 1.5h-.128c.151 1.084.378 2.999.378 4.75s-.227 3.666-.378 4.75H21a.75.75 0 0 1 0 1.5M12.75 8.5q0 .316.01.634l-8.42.605a1.6 1.6 0 0 1-1.209-.405 1.14 1.14 0 0 1-.381-.837c0-.313.137-.614.386-.846.31-.289.749-.437 1.201-.405l8.422.614q-.009.321-.009.64m1.894 4.75h4.712c.142-.99.394-2.988.394-4.75s-.252-3.76-.394-4.75h-4.712c-.142.99-.394 2.988-.394 4.75s.252 3.76.394 4.75m6.15 8.502h1.204a.75.75 0 0 0 0-1.5h-.727l-.022-.05-.068-.148c-.483-1.066-1.213-2.677-3.253-2.78a17 17 0 0 0-1.826 0c-2.041.104-2.77 1.715-3.252 2.781l-.09.197H12a.75.75 0 0 0 0 1.5zm-1.176-1.5h-5.205c.427-.875.855-1.434 1.766-1.48a16 16 0 0 1 1.672 0c.91.046 1.339.605 1.767 1.48" clip-rule="evenodd"/></svg>