<svg xmlns="http://www.w3.org/2000/svg" fill="none" viewBox="0 0 24 24"><path fill="currentColor" fill-rule="evenodd" d="M11.556 1.25h-1.112c-1.838 0-3.294 0-4.433.153-1.172.158-2.121.49-2.87 1.238-.748.749-1.08 1.698-1.238 2.87-.153 1.14-.153 2.595-.153 4.433v4.112c0 1.838 0 3.294.153 4.433.158 1.172.49 2.121 1.238 2.87.749.748 1.698 1.08 2.87 1.238 1.14.153 2.595.153 4.433.153H12a.75.75 0 0 0 0-1.5h-1.5c-1.907 0-3.262-.002-4.29-.14-1.005-.135-1.585-.389-2.008-.812s-.677-1.003-.812-2.009c-.138-1.028-.14-2.382-.14-4.29v-4c0-1.906.002-3.26.14-4.288.135-1.006.389-1.586.812-2.01.423-.422 1.003-.676 2.009-.811 1.028-.138 2.382-.14 4.289-.14h1c1.907 0 3.261.002 4.29.14 1.005.135 1.585.389 2.008.812s.677 1.003.812 2.009c.138 1.028.14 2.382.14 4.289a.75.75 0 0 0 1.5 0v-.056c0-1.838 0-3.294-.153-4.433-.158-1.172-.49-2.121-1.238-2.87-.749-.748-1.698-1.08-2.87-1.238-1.14-.153-2.595-.153-4.433-.153M7 6.25a.75.75 0 0 0 0 1.5h8a.75.75 0 0 0 0-1.5zm0 5a.75.75 0 0 0 0 1.5h6.5a.75.75 0 0 0 0-1.5zm8.277 9.826c.094.079.304.174.584.174h4.278c.28 0 .49-.095.585-.174-.45-.737-1.459-1.326-2.724-1.326s-2.274.589-2.723 1.326m-1.332-.695c.747-1.31 2.325-2.131 4.055-2.131s3.308.822 4.055 2.131c.177.31.239.657.164 1a1.5 1.5 0 0 1-.47.79c-.415.381-1.017.579-1.61.579H15.86c-.593 0-1.195-.198-1.61-.579a1.5 1.5 0 0 1-.47-.79 1.4 1.4 0 0 1 .164-1m3.051-5.631a1 1 0 1 1 2 0 1 1 0 0 1-2 0m1-2.5a2.5 2.5 0 1 0 0 5 2.5 2.5 0 0 0 0-5" clip-rule="evenodd"/></svg>