<svg xmlns="http://www.w3.org/2000/svg" fill="none" viewBox="0 0 24 24"><path fill="currentColor" fill-rule="evenodd" d="M11.194 3.744a.75.75 0 0 0-.148-1.492 9.773 9.773 0 0 0-8.796 9.726c0 5.399 4.375 9.775 9.773 9.775 5.067 0 9.234-3.858 9.724-8.798a.75.75 0 0 0-1.493-.148 8.274 8.274 0 0 1-16.504-.828 8.275 8.275 0 0 1 7.444-8.235m9.896-.78c-.19-.19-.435-.287-.604-.343a4 4 0 0 0-.62-.145 13 13 0 0 0-1.454-.139 39 39 0 0 0-2.39-.03.75.75 0 0 0 .022 1.499 37 37 0 0 1 2.293.03c.27.013.532.03.771.054l-8.59 8.641a.75.75 0 0 0 1.064 1.058l8.582-8.633c.023.238.04.496.054.763.048.957.034 1.945.03 2.297a.75.75 0 1 0 1.499.022 39 39 0 0 0-.03-2.393 13 13 0 0 0-.14-1.455 4 4 0 0 0-.144-.622c-.056-.168-.154-.413-.343-.603" clip-rule="evenodd"/></svg>