<svg xmlns="http://www.w3.org/2000/svg" fill="none" viewBox="0 0 24 24"><path fill="currentColor" fill-rule="evenodd" d="M9.494 20.25c-3.46 0-5.2 0-6.51-1.08-.22-.17-.44-.39-.65-.65-1.08-1.32-1.08-3.06-1.08-6.52s0-5.2 1.08-6.52c.22-.26.44-.48.67-.66 1.3-1.07 3.04-1.07 6.5-1.07s5.2 0 6.51 1.08c.22.17.44.39.65.65.683.835.934 1.838 1.026 3.338l1.302-1.738c.4-.52 1.02-.83 1.67-.83 1.15 0 2.08.93 2.08 2.08v7.34c0 1.15-.93 2.08-2.08 2.08h-.01c-.65 0-1.27-.31-1.66-.83l-1.302-1.738c-.092 1.5-.343 2.5-1.026 3.328-.21.26-.44.48-.66.66-1.31 1.08-3.05 1.08-6.51 1.08m8.25-8.25v.752l2.448 3.268c.11.14.28.23.47.23.32 0 .58-.26.58-.58V8.33a.58.58 0 0 0-.58-.58c-.18 0-.36.09-.47.23l-2.449 3.268zm-2.24-5.55c.652.793.73 2.1.739 4.523v2.057c-.01 2.434-.085 3.745-.74 4.54-.14.18-.29.32-.44.44h-.01c-.9.74-2.46.74-5.559.74s-4.66 0-5.57-.75c-.15-.12-.3-.27-.44-.44-.74-.9-.74-2.46-.74-5.56s0-4.66.74-5.56c.14-.18.29-.32.45-.45.9-.74 2.46-.74 5.56-.74v.01c3.1 0 4.66 0 5.57.75.15.12.3.27.44.44M7.242 12c0 1.24 1.01 2.25 2.25 2.25s2.25-1.01 2.25-2.25-1.01-2.25-2.25-2.25-2.25 1.01-2.25 2.25" clip-rule="evenodd"/></svg>