<svg xmlns="http://www.w3.org/2000/svg" fill="none" viewBox="0 0 24 24"><path fill="currentColor" fill-rule="evenodd" d="M5.25 9.587c0-3.75 3.11-6.837 6.75-6.837s6.75 3.087 6.75 6.837c0 3.78-3.138 6.547-6.361 8.562a.8.8 0 0 1-.776 0C8.389 16.113 5.25 13.38 5.25 9.588M12 1.25c-4.478 0-8.25 3.769-8.25 8.337 0 4.68 3.858 7.808 7.077 9.84l.013.009.013.007a2.3 2.3 0 0 0 2.294 0l.011-.007.012-.007c3.232-2.017 7.08-5.178 7.08-9.842 0-4.568-3.772-8.337-8.25-8.337M9.75 9.5a2.25 2.25 0 1 1 4.5 0 2.25 2.25 0 0 1-4.5 0M12 5.75a3.75 3.75 0 1 0 0 7.5 3.75 3.75 0 0 0 0-7.5m-6 13.5c.41 0 .744.33.75.738.007.02.042.088.186.201.21.166.56.347 1.059.514.99.33 2.406.547 4.005.547s3.015-.217 4.006-.547c.499-.167.849-.348 1.058-.514.144-.113.179-.182.186-.2a.75.75 0 0 1 1.5.011c0 .604-.368 1.06-.757 1.367-.398.314-.927.563-1.513.759-1.181.393-2.765.624-4.48.624s-3.299-.23-4.48-.624c-.586-.196-1.115-.445-1.513-.759-.389-.306-.757-.763-.757-1.367a.75.75 0 0 1 .75-.75m11.252.733v.003zm-10.503.003v-.003z" clip-rule="evenodd"/></svg>