<svg xmlns="http://www.w3.org/2000/svg" fill="none" viewBox="0 0 24 24"><path fill="currentColor" fill-rule="evenodd" d="M10.25 3.707a.75.75 0 1 0-.5-1.414l-.705.249c-1.253.442-2.253.795-3.028 1.171-.8.388-1.428.832-1.895 1.491-.466.66-.676 1.4-.775 2.284-.097.855-.097 1.916-.097 3.245v2.534c0 1.33 0 2.39.097 3.246.1.884.309 1.623.775 2.283.467.66 1.095 1.103 1.895 1.491.775.376 1.775.73 3.029 1.172l.704.248a.75.75 0 1 0 .5-1.414l-.663-.234c-1.305-.46-2.225-.787-2.915-1.121-.673-.326-1.057-.63-1.325-1.008-.268-.379-.426-.843-.51-1.585-.086-.762-.087-1.738-.087-3.123v-2.444c0-1.384.001-2.36.087-3.122.084-.743.242-1.207.51-1.585.268-.379.652-.682 1.325-1.008.69-.335 1.61-.661 2.915-1.122zm2.773 6.33a.75.75 0 1 0-1.046-1.075 9 9 0 0 1-.544.448l-.06.047c-.242.19-.526.413-.797.643a7 7 0 0 0-.827.797 2.7 2.7 0 0 0-.324.46A1.4 1.4 0 0 0 9.25 12c0 .258.089.48.175.642.09.168.206.323.324.461.234.276.536.551.826.797.272.23.556.453.798.643l.06.047q.407.318.544.448a.75.75 0 1 0 1.046-1.076 9 9 0 0 0-.664-.551l-.057-.045c-.245-.193-.508-.4-.757-.61l-.007-.006H20a.75.75 0 0 0 0-1.5h-8.462l.007-.006c.249-.21.512-.417.757-.61l.057-.045c.245-.192.502-.394.664-.551" clip-rule="evenodd"/></svg>