<svg xmlns="http://www.w3.org/2000/svg" fill="none" viewBox="0 0 24 24"><path fill="currentColor" fill-rule="evenodd" d="M11.352 8.634a.75.75 0 0 0 .397.114v.001a.75.75 0 0 0 .636-.353l1.875-3a.75.75 0 0 0-.636-1.147h-1.647l1.158-1.852a.75.75 0 1 0-1.27-.795l-1.876 3a.75.75 0 0 0 .636 1.147h1.647l-1.158 1.852a.75.75 0 0 0 .238 1.033M3.25 14c0 4.825 3.925 8.75 8.75 8.75s8.75-3.925 8.75-8.75V9c0-1.075 0-1.724-.513-2.237-.512-.513-1.162-.513-2.237-.513s-1.724 0-2.237.513c-.513.512-.513 1.161-.513 2.237v5A3.254 3.254 0 0 1 12 17.25 3.254 3.254 0 0 1 8.75 14V9c0-1.075 0-1.724-.513-2.237C7.725 6.25 7.075 6.25 6 6.25s-1.724 0-2.237.513C3.25 7.275 3.25 7.924 3.25 9zm1.5 0v-3.25h2.5V14A4.756 4.756 0 0 0 12 18.75 4.756 4.756 0 0 0 16.75 14v-3.25h2.5V14c0 3.998-3.252 7.25-7.25 7.25S4.75 17.998 4.75 14m14.5-5v.25h-2.5V9c0-.501 0-1.069.073-1.177.108-.073.676-.073 1.177-.073s1.069 0 1.177.073c.073.108.073.676.073 1.177m-12 .25h-2.5V9c0-.501 0-1.069.073-1.177.108-.073.676-.073 1.177-.073s1.069 0 1.177.073c.073.108.073.676.073 1.177z" clip-rule="evenodd"/></svg>