<svg xmlns="http://www.w3.org/2000/svg" fill="none" viewBox="0 0 24 24"><path fill="currentColor" fill-rule="evenodd" d="M14.92 1.787c-1.953-.05-3.887-.05-5.84 0l-.058.001c-1.525.039-2.752.07-3.736.241-1.03.18-1.866.525-2.573 1.237-.704.709-1.046 1.535-1.221 2.55-.168.967-.193 2.168-.225 3.655l-.001.059c-.021 1-.021 1.993 0 2.992l.001.059c.032 1.487.057 2.688.225 3.655.175 1.015.517 1.842 1.22 2.55.66.663 1.434 1.01 2.376 1.2.912.183 2.028.227 3.392.264a.75.75 0 1 0 .04-1.5c-1.39-.037-2.373-.082-3.136-.235-.732-.147-1.209-.385-1.607-.786-.427-.43-.668-.942-.807-1.75-.146-.842-.171-1.929-.204-3.489a68 68 0 0 1 0-2.928c.029-1.371.052-2.377.156-3.172l5.62 3.19c1.286.73 2.34 1.174 3.457 1.174s2.172-.443 3.457-1.173l5.622-3.192c.104.796.127 1.801.156 3.173q.016.733.016 1.464a.75.75 0 0 0 1.5 0q0-.747-.016-1.496l-.001-.058c-.032-1.488-.057-2.689-.225-3.656-.175-1.015-.517-1.841-1.22-2.55-.707-.711-1.544-1.057-2.574-1.236-.984-.172-2.21-.203-3.736-.242zm5.737 3.116a2.5 2.5 0 0 0-.434-.58c-.424-.427-.94-.671-1.767-.816-.861-.15-1.977-.18-3.574-.22a114 114 0 0 0-5.764 0c-1.597.04-2.713.07-3.574.22-.827.145-1.343.389-1.767.816a2.5 2.5 0 0 0-.435.58l5.94 3.373c1.24.704 2.01.978 2.717.978s1.477-.274 2.717-.978zm-6.62 8.074a.75.75 0 0 1-.014 1.06c-.162.158-.419.36-.664.552l-.056.045c-.246.193-.51.4-.758.61-.271.23-.5.443-.655.625a2 2 0 0 0-.101.131q.036.053.101.13c.156.183.384.396.655.626.249.21.512.417.757.61l.057.045c.245.192.502.394.664.551a.75.75 0 1 1-1.046 1.076 9 9 0 0 0-.544-.448l-.06-.047c-.242-.19-.526-.413-.797-.642a7.4 7.4 0 0 1-.828-.798 2.7 2.7 0 0 1-.323-.46A1.4 1.4 0 0 1 10.25 16c0-.258.089-.48.175-.642.09-.168.206-.323.323-.461.235-.276.537-.551.828-.797.27-.23.555-.453.797-.643l.06-.047q.407-.318.544-.448a.75.75 0 0 1 1.06.015m3.927 1.164a.75.75 0 1 0-1.026-1.094L14.641 15.2l-.017.017a1.25 1.25 0 0 0-.008 1.761l.012.013.006.006 2.3 2.188a.75.75 0 1 0 1.034-1.087l-1.34-1.276c1.649-.04 2.765.3 3.278.668.722.518.979.911 1.116 1.398.137.49.161 1.08.202 2.038l.026.61a.75.75 0 0 0 1.498-.07l-.023-.554c-.038-.95-.07-1.756-.26-2.429-.25-.897-.764-1.552-1.685-2.212-.856-.614-2.29-.976-4.074-.95z" clip-rule="evenodd"/></svg>