<svg xmlns="http://www.w3.org/2000/svg" fill="none" viewBox="0 0 24 24"><path fill="currentColor" fill-rule="evenodd" d="M12 22.75C6.072 22.75 1.25 17.928 1.25 12S6.072 1.25 12 1.25 22.75 6.072 22.75 12 17.928 22.75 12 22.75M2.963 10.023a9.25 9.25 0 0 0 1.99 7.962l2.986-2.986zm.51-1.607.057.052 12 12q.029.03.053.06C18.91 19.125 21.25 15.83 21.25 12c0-5.1-4.15-9.25-9.25-9.25-3.83 0-7.124 2.34-8.527 5.666m10.504 12.621L9 16.06l-2.986 2.986a9.25 9.25 0 0 0 7.963 1.991m-.625-6.749a1.65 1.65 0 0 0 1.148.462v-.001c.43 0 .837-.164 1.148-.463h.001q.174-.168.356-.339c1.499-1.421 3.551-3.367 2.421-6.084A4.29 4.29 0 0 0 14.5 5.249a4.29 4.29 0 0 0-3.926 2.614c-1.124 2.705.908 4.64 2.393 6.056l.002.002.003.003zM11.959 8.44A2.78 2.78 0 0 1 14.5 6.75l-.001-.001c1.1 0 2.121.679 2.541 1.69.682 1.641-.376 2.815-2.068 4.42q-.176.166-.346.33l-.017.016a.166.166 0 0 1-.217.003l-.386-.37-.003-.003c-1.675-1.595-2.722-2.763-2.044-4.395m1.546 1.06c0 .552.452 1 1.004 1a1 1 0 0 0 0-2h-.008a.996.996 0 0 0-.996 1" clip-rule="evenodd"/></svg>