<svg xmlns="http://www.w3.org/2000/svg" fill="none" viewBox="0 0 24 24"><path fill="currentColor" fill-rule="evenodd" d="M10.453 3.25h3.095c1.838 0 3.283 0 4.421.129 1.163.13 2.105.405 2.888 1.023q.353.278.65.612c.666.747.964 1.653 1.105 2.764.138 1.08.138 2.445.138 4.17v.105c0 1.724 0 3.09-.138 4.17-.141 1.11-.439 2.016-1.105 2.763a5 5 0 0 1-.65.612c-.783.618-1.725.892-2.888 1.023-1.138.129-2.582.129-4.422.129h-3.094c-1.84 0-3.284 0-4.422-.129-1.163-.13-2.105-.405-2.888-1.023a5 5 0 0 1-.65-.612c-.666-.747-.964-1.653-1.105-2.764-.138-1.08-.138-2.445-.138-4.17v-.105c0-1.724 0-3.09.138-4.17.141-1.11.439-2.016 1.105-2.763q.297-.334.65-.612c.783-.618 1.725-.892 2.888-1.023 1.138-.129 2.582-.129 4.422-.129M6.199 4.87c-1.03.116-1.655.337-2.127.71q-.25.197-.46.432c-.386.434-.615 1.003-.736 1.956C2.75 8.94 2.75 10.21 2.75 12s.001 3.059.126 4.032c.121.953.35 1.522.737 1.956q.208.234.46.433c.47.372 1.095.593 2.126.71 1.045.118 2.404.119 4.301.119h3c1.897 0 3.256-.001 4.301-.12 1.03-.116 1.655-.337 2.127-.71a3.6 3.6 0 0 0 .46-.432c.386-.434.615-1.003.736-1.956.125-.973.126-2.243.126-4.032s-.001-3.059-.126-4.032c-.121-.953-.35-1.522-.737-1.956q-.208-.234-.46-.433c-.47-.372-1.095-.593-2.126-.71-1.044-.118-2.404-.119-4.301-.119h-3c-1.897 0-3.256.001-4.301.12M10 9.75a2.25 2.25 0 1 0 0 4.5 2.25 2.25 0 0 0 0-4.5M6.25 12A3.75 3.75 0 0 1 12 8.827a3.75 3.75 0 1 1 0 6.345A3.75 3.75 0 0 1 6.25 12m6.875 2.074a2.25 2.25 0 1 0 0-4.147c.395.593.625 1.306.625 2.073s-.23 1.48-.625 2.074" clip-rule="evenodd"/></svg>