<svg xmlns="http://www.w3.org/2000/svg" fill="none" viewBox="0 0 24 24"><path fill="currentColor" fill-rule="evenodd" d="M1.586 10.35c.126.125.379.373 1.532.373.414 0 .943-.032 1.624-.113a.75.75 0 0 0-.177-1.49c-.251.03-.51.054-.756.07l1.805-1.787a.75.75 0 1 0-1.056-1.066L2.798 8.08c.016-.214.036-.434.06-.65a.75.75 0 1 0-1.491-.164c-.286 2.584.018 2.885.219 3.083m4.787-4.726c.147.148.34.222.533.222l-.001-.001a.75.75 0 0 0 .528-.217l1.759-1.743c-.016.213-.036.433-.06.648a.75.75 0 1 0 1.49.165c.286-2.582-.017-2.884-.218-3.082-.173-.17-.58-.566-3.155-.26a.75.75 0 0 0 .177 1.489c.25-.03.509-.053.756-.07L6.378 4.563a.75.75 0 0 0-.005 1.06m8.058 17.124h1.818v-.002a5.76 5.76 0 0 0 5.642-4.651l.745-3.82.003-.014.081-.468c.202-1.177-.574-2.305-1.73-2.513a2.1 2.1 0 0 0-.916.036 2.15 2.15 0 0 0-1.656-1.465 2.1 2.1 0 0 0-.914.036 2.15 2.15 0 0 0-1.657-1.464 2.1 2.1 0 0 0-.65-.016l.453-2.636c.202-1.177-.574-2.305-1.73-2.513a2.1 2.1 0 0 0-1.587.35 2.16 2.16 0 0 0-.892 1.415l-1.477 8.592-.78-.83a2.27 2.27 0 0 0-1.757-.696 2.28 2.28 0 0 0-1.679.89 2.41 2.41 0 0 0-.044 2.865l2.756 3.81.002.004c.633.875.982 1.357 1.421 1.75a5.3 5.3 0 0 0 2.334 1.21c.567.13 1.117.13 2.214.13m-6.922-9.16.042-.001.002.002c.207 0 .401.084.546.234l1.797 1.91a.752.752 0 0 0 1.284-.38l.135-.731 1.606-9.342a.67.67 0 0 1 .275-.441.6.6 0 0 1 .46-.102c.35.063.581.414.518.783l-.802 4.67-.24 1.4a.75.75 0 0 0 1.477.254l.241-1.401a.67.67 0 0 1 .275-.441.6.6 0 0 1 .46-.102c.348.063.581.415.518.783l-.16.935v.002l-.08.466a.75.75 0 0 0 1.478.253l.08-.466v-.002a.67.67 0 0 1 .275-.44.6.6 0 0 1 .458-.103c.35.063.583.415.52.784l-.08.467q-.015.087-.01.172-.045.144-.07.295l-.08.467a.75.75 0 0 0 1.478.253l.08-.467a.67.67 0 0 1 .275-.441.6.6 0 0 1 .46-.102c.348.063.581.415.518.782l-.08.459-.744 3.81a4.26 4.26 0 0 1-4.17 3.44h-1.819c-.985 0-1.479 0-1.88-.091a3.8 3.8 0 0 1-1.669-.865c-.316-.283-.61-.689-1.19-1.493l-.017-.022-2.756-3.81a.9.9 0 0 1 .016-1.07.77.77 0 0 1 .573-.308" clip-rule="evenodd"/></svg>