<svg xmlns="http://www.w3.org/2000/svg" fill="none" viewBox="0 0 24 24"><path fill="currentColor" fill-rule="evenodd" d="M1.25 4A2.75 2.75 0 0 1 4 1.25h1.5a.75.75 0 0 1 0 1.5H4c-.69 0-1.25.56-1.25 1.25v1.5a.75.75 0 0 1-1.5 0zm7.5-2a.75.75 0 0 1 .75-.75h5a.75.75 0 0 1 0 1.5h-5A.75.75 0 0 1 8.75 2m9 0a.75.75 0 0 1 .75-.75H20A2.75 2.75 0 0 1 22.75 4v1.5a.75.75 0 0 1-1.5 0V4c0-.69-.56-1.25-1.25-1.25h-1.5a.75.75 0 0 1-.75-.75M2 8.75a.75.75 0 0 1 .75.75V11a.75.75 0 0 1-1.5 0V9.5A.75.75 0 0 1 2 8.75m20 0a.75.75 0 0 1 .75.75v5a.75.75 0 0 1-1.5 0v-5a.75.75 0 0 1 .75-.75m0 9a.75.75 0 0 1 .75.75V20A2.75 2.75 0 0 1 20 22.75h-1.5a.75.75 0 0 1 0-1.5H20c.69 0 1.25-.56 1.25-1.25v-1.5a.75.75 0 0 1 .75-.75M12.25 22a.75.75 0 0 1 .75-.75h1.5a.75.75 0 0 1 0 1.5H13a.75.75 0 0 1-.75-.75m-11-7c0-.966.784-1.75 1.75-1.75h6q.31.002.588.101L13.19 9.75h-1.714a.75.75 0 0 1 0-1.5H15a.75.75 0 0 1 .75.75v3.46a.75.75 0 0 1-1.5 0v-1.65l-3.601 3.602q.1.277.101.588v6A1.75 1.75 0 0 1 9 22.75H3A1.75 1.75 0 0 1 1.25 21zM3 14.75a.25.25 0 0 0-.25.25v6c0 .138.112.25.25.25h6a.25.25 0 0 0 .25-.25v-6a.25.25 0 0 0-.25-.25z" clip-rule="evenodd"/></svg>