<svg xmlns="http://www.w3.org/2000/svg" fill="none" viewBox="0 0 24 24"><path fill="currentColor" fill-rule="evenodd" d="M13.655 10.397c.236.232.55.357.871.357l.001.001q.135 0 .27-.03l2.238-.487a2.75 2.75 0 0 0 1.428-.76l3.626-3.696c.424-.419.658-.979.661-1.576a2.24 2.24 0 0 0-.662-1.604l-.69-.69a2.24 2.24 0 0 0-1.594-.662h-.01a2.2 2.2 0 0 0-1.576.661l-3.68 3.67-.01.01a2.85 2.85 0 0 0-.745 1.418l-.479 2.235-.002.01c-.084.417.048.845.353 1.143m1.597-3.089a1.36 1.36 0 0 1 .35-.672l3.68-3.67a.72.72 0 0 1 .518-.218h.003c.2 0 .39.079.533.223l.69.69a.75.75 0 0 1 .223.537.73.73 0 0 1-.218.518l-.01.01-3.625 3.695c-.176.176-.41.3-.642.342l-.027.005-1.875.408.398-1.858zM4.141 22.753q-.081 0-.162-.003l-.078-.002c-.683-.02-1.273-.04-1.63-.61l-.006-.01-.006-.01c-.35-.6-.046-1.174.375-1.968.333-.625.66-1.49.35-2.091-1.031-1.537-1.601-3.057-1.695-4.52a22 22 0 0 1 0-2.613c.293-4.601 3.942-8.3 8.488-8.603a35 35 0 0 1 3.751-.041.75.75 0 1 1-.061 1.499 34 34 0 0 0-3.589.039c-3.798.254-6.846 3.349-7.091 7.198a21 21 0 0 0 0 2.427c.077 1.201.57 2.483 1.463 3.805l.035.058c.529.956.42 2.148-.324 3.544a17 17 0 0 0-.203.39l.192.005.074.003c.921.023 1.625-.186 2.278-.672l.014-.01.068-.048.002-.001c.435-.309.654-.465.951-.51L7.394 20c.312-.023.6.095 1.228.353l.005.002c.377.155.832.258 1.25.284a31 31 0 0 0 4.242 0c3.8-.255 6.849-3.35 7.094-7.2a21 21 0 0 0 0-2.426l-.001-.02c-.01-.146-.018-.272-.035-.402a.75.75 0 1 1 1.488-.187c.022.18.033.34.044.518a22 22 0 0 1 0 2.611c-.293 4.602-3.942 8.3-8.488 8.603a32 32 0 0 1-4.443 0 5.6 5.6 0 0 1-1.724-.395l-.06-.024a17 17 0 0 0-.45-.18c-.081.055-.187.13-.291.204l-.061.044c-.872.65-1.871.965-3.047.965zm7.857-9.253a1 1 0 1 1 0-2 1 1 0 0 1 0 2m-3.991 0a1.005 1.005 0 0 1-1.005-1c0-.552.443-1 .995-1h.01a1 1 0 0 1 0 2" clip-rule="evenodd"/></svg>