<svg xmlns="http://www.w3.org/2000/svg" fill="none" viewBox="0 0 24 24"><path fill="currentColor" fill-rule="evenodd" d="M2.53 1.72a.75.75 0 0 0-1.06 1.06l2.103 2.103a.8.8 0 0 0-.149.136C2.2 6.486 1.423 8.393 1.292 10.422a21 21 0 0 0 0 2.617c.11 1.717.86 3.265 1.692 4.521.249.482.12 1.204-.347 2.088l-.022.04c-.156.297-.31.588-.398.835-.094.263-.19.68.05 1.092.223.378.578.517.864.572.238.046.53.053.804.06l.046.001c1.42.034 2.42-.375 3.213-.96.157-.116.265-.195.346-.251.119.043.28.11.518.208a5.6 5.6 0 0 0 1.722.394 34 34 0 0 0 4.44 0 9 9 0 0 0 4.177-1.349.75.75 0 0 0 .277-.306l2.796 2.796a.75.75 0 1 0 1.06-1.06zm15.14 17.26L4.616 5.928l-.04.054c-1.02 1.22-1.677 2.823-1.787 4.538a19 19 0 0 0 0 2.424c.087 1.36.694 2.662 1.463 3.816l.032.053c.669 1.21.179 2.59-.32 3.536-.082.155-.15.282-.205.393l.259.007c1.068.026 1.746-.27 2.285-.667l.018-.013c.174-.128.331-.244.461-.328a1.4 1.4 0 0 1 .572-.234c.263-.032.519.058.646.102.163.058.37.143.61.242l.02.008c.379.156.833.256 1.249.284 1.391.093 2.848.093 4.242 0a7.5 7.5 0 0 0 3.482-1.124zM14.12 3.32a32 32 0 0 0-4.24 0 7.5 7.5 0 0 0-3.028.86.75.75 0 0 1-.704-1.323A9 9 0 0 1 9.78 1.823a34 34 0 0 1 4.44 0c4.567.303 8.19 3.99 8.488 8.6.056.862.056 1.754 0 2.616a9.27 9.27 0 0 1-1.782 4.906.75.75 0 0 1-1.208-.89 7.77 7.77 0 0 0 1.493-4.112c.052-.798.052-1.626 0-2.424-.25-3.875-3.29-6.947-7.09-7.2" clip-rule="evenodd"/></svg>