<svg xmlns="http://www.w3.org/2000/svg" fill="none" viewBox="0 0 24 24"><path fill="currentColor" fill-rule="evenodd" d="M17.998 6.75A2.754 2.754 0 0 1 15.248 4a2.754 2.754 0 0 1 2.75-2.75A2.754 2.754 0 0 1 20.748 4a2.754 2.754 0 0 1-2.75 2.75m0-4c-.689 0-1.25.561-1.25 1.25s.561 1.25 1.25 1.25 1.25-.561 1.25-1.25-.561-1.25-1.25-1.25M3.981 22.749q.085.002.171.002c1.193 0 2.165-.309 3.048-.965l.063-.045.05-.035c.088-.063.174-.125.242-.17.099.038.234.092.366.146l.151.061c.533.22 1.148.36 1.724.395 1.453.102 2.993.102 4.453 0 4.376-.294 7.948-3.677 8.494-8.045a.749.749 0 1 0-1.488-.186c-.457 3.657-3.446 6.489-7.108 6.735a31 31 0 0 1-4.253 0 4 4 0 0 1-1.254-.287l-.154-.062c-.546-.222-.82-.333-1.141-.284-.297.046-.516.201-.951.511l-.07.049-.013.01c-.652.486-1.36.692-2.288.671l-.073-.002-.191-.006c.063-.127.138-.269.202-.389.744-1.397.853-2.59.324-3.546l-.032-.053c-.895-1.343-1.388-2.626-1.465-3.809a21 21 0 0 1 0-2.426c.255-3.852 3.312-6.947 7.116-7.2.48-.036 1.011-.058 1.623-.069h.993a.75.75 0 0 0 0-1.5h-1.013c-.643.011-1.202.034-1.707.071a9.07 9.07 0 0 0-5.86 2.686 9.3 9.3 0 0 0-2.649 5.917 22 22 0 0 0 0 2.614c.094 1.443.664 2.963 1.695 4.517.312.602-.016 1.468-.35 2.093-.414.782-.713 1.347-.371 1.958l.003.005.003.006c.344.59.941.61 1.632.63zm12.057-10.502h3.92c1.054 0 1.779-.567 2.23-.99.527-.49.59-.985.55-1.314-.111-.915-1.094-1.463-1.745-1.826h-.001l-.009-.005q-.11-.06-.193-.11a5.56 5.56 0 0 0-5.583 0l-.141.08-.062.034-.002.001c-.651.363-1.634.911-1.744 1.826-.04.33.023.823.547 1.311.454.426 1.179.993 2.233.993m-1.21-2.089-.058-.062c.153-.216.75-.55.962-.668l.004-.002.007-.004q.126-.069.226-.129h.002a4.04 4.04 0 0 1 4.058.001l.224.128.009.004c.209.116.812.452.965.67l-.062.064c-.438.411-.8.587-1.207.587h-3.92c-.408 0-.768-.176-1.21-.589m-6.33 5.592h7a.75.75 0 0 0 0-1.5h-7a.75.75 0 0 0 0 1.5m0-5h2a.75.75 0 0 0 0-1.5h-2a.75.75 0 0 0 0 1.5" clip-rule="evenodd"/></svg>