<svg xmlns="http://www.w3.org/2000/svg" fill="none" viewBox="0 0 24 24"><path fill="currentColor" fill-rule="evenodd" d="M22.017 1.962a.75.75 0 0 1 0 1.06l-3.598 3.6 2.572.121a.75.75 0 0 1-.07 1.498l-3.124-.146-.019-.002c-.525-.038-1.024-.215-1.392-.59-.37-.377-.528-.87-.531-1.382l-.118-3.078a.75.75 0 0 1 1.499-.058l.1 2.6 3.62-3.623a.75.75 0 0 1 1.06 0M12 7.258a.75.75 0 0 1 .75.75v.334c.789.181 1.485.646 1.815 1.346a.75.75 0 0 1-1.357.64c-.117-.25-.54-.57-1.208-.57-.406 0-.744.124-.964.29-.22.164-.286.335-.286.46s.066.296.286.46.558.29.964.29c.699 0 1.36.211 1.864.59.504.377.886.957.886 1.66s-.382 1.283-.886 1.66a2.95 2.95 0 0 1-1.114.506v.334a.75.75 0 0 1-1.5 0v-.335c-.789-.18-1.485-.645-1.815-1.345a.75.75 0 0 1 1.357-.64c.117.249.54.57 1.208.57.406 0 .744-.124.964-.29s.286-.335.286-.46-.066-.296-.286-.46c-.22-.166-.558-.29-.964-.29-.699 0-1.36-.212-1.864-.59-.504-.377-.886-.957-.886-1.66s.382-1.283.886-1.66a2.95 2.95 0 0 1 1.114-.507v-.333a.75.75 0 0 1 .75-.75m1.004-5.5h-1.063c-2.19 0-3.912 0-5.255.18-1.377.185-2.469.573-3.327 1.43-.858.859-1.245 1.951-1.43 3.328-.181 1.343-.181 3.064-.18 5.255v.114c-.001 2.19-.001 3.911.18 5.255.185 1.376.572 2.469 1.43 3.327.89.89 2.347 1.256 3.812 1.432 1.496.179 3.212.179 4.799.179h.055c1.588 0 3.303 0 4.8-.18 1.465-.175 2.922-.54 3.812-1.431.858-.858 1.245-1.95 1.43-3.327.181-1.343.181-3.064.181-5.254v-1.073a.75.75 0 1 0-1.5 0v1.015c0 2.26-.002 3.88-.167 5.112-.163 1.21-.471 1.933-1.005 2.466-.5.501-1.492.831-2.93 1.003-1.398.168-3.03.169-4.648.169s-3.25-.001-4.648-.169c-1.438-.172-2.43-.502-2.93-1.003-.533-.533-.842-1.256-1.005-2.466-.165-1.232-.167-2.852-.167-5.112s.002-3.88.167-5.112c.163-1.21.472-1.934 1.005-2.467s1.256-.841 2.466-1.004c1.232-.166 2.852-.167 5.112-.167h1.007a.75.75 0 1 0 0-1.5" clip-rule="evenodd"/></svg>