<svg xmlns="http://www.w3.org/2000/svg" fill="none" viewBox="0 0 24 24"><path fill="currentColor" fill-rule="evenodd" d="M10.038 4.977a9 9 0 0 1 .551.664l.045.057c.193.245.4.508.61.757l.006.007V2a.75.75 0 0 1 1.5 0v4.462l.006-.007c.21-.249.417-.512.61-.757l.045-.057c.192-.245.394-.502.551-.664a.75.75 0 0 1 1.076 1.046 9 9 0 0 0-.448.544l-.047.06c-.19.242-.413.526-.642.797a7.4 7.4 0 0 1-.798.827 2.7 2.7 0 0 1-.46.324A1.4 1.4 0 0 1 12 8.75a1.4 1.4 0 0 1-.642-.175 2.7 2.7 0 0 1-.461-.324 7.4 7.4 0 0 1-.797-.827 28 28 0 0 1-.643-.797l-.047-.06a9 9 0 0 0-.448-.544.75.75 0 0 1 1.076-1.046m8.299 1.135.008-.004.049-.022q.07-.032.203-.083c.179-.068.424-.147.698-.199.577-.109 1.108-.066 1.471.23l.004.004c.112.09.293.322.356.458.11.235.124.453.124 1.312v11.01c0 .441-.507.876-1.079.742a14 14 0 0 0-3.17-.354c-2.012 0-3.875.404-5.324 1.095-1.216.58-2.853.949-4.677.949a12.5 12.5 0 0 1-2.829-.315c-.608-.142-.738-.183-.94-.347a1.7 1.7 0 0 1-.357-.458c-.11-.235-.124-.453-.124-1.313V7.808c0-.441.507-.876 1.08-.742.823.192 1.714.312 2.644.345a.75.75 0 1 0 .053-1.5 12 12 0 0 1-2.356-.306c-1.348-.315-2.92.632-2.92 2.203v11.115c-.002.708-.002 1.27.263 1.84.159.34.482.755.774.991.488.396.936.5 1.483.628l.058.013c.978.23 2.05.355 3.171.355 2.01 0 3.875-.404 5.323-1.095 1.217-.581 2.854-.95 4.677-.95 1.01 0 1.968.114 2.83.316 1.347.315 2.92-.632 2.92-2.204V7.702c0-.707.001-1.27-.264-1.84a3.15 3.15 0 0 0-.771-.99c-.879-.717-1.967-.68-2.7-.542a5.7 5.7 0 0 0-1.314.424l-.024.011-.008.004-.003.002h-.001l.335.671-.336-.67a.75.75 0 1 0 .672 1.34M12 11.75a1.75 1.75 0 1 0 0 3.5 1.75 1.75 0 0 0 0-3.5M8.75 13.5a3.25 3.25 0 1 1 6.5 0 3.25 3.25 0 0 1-6.5 0m-2.25 1a1 1 0 1 0-2 0v.009a1 1 0 1 0 2 0zm12-3.008a1 1 0 0 1 1 1v.01a1 1 0 1 1-2 0v-.01a1 1 0 0 1 1-1" clip-rule="evenodd"/></svg>