<svg xmlns="http://www.w3.org/2000/svg" fill="none" viewBox="0 0 24 24"><path fill="currentColor" fill-rule="evenodd" d="M12.75 2a.75.75 0 0 0-1.5 0v4a.75.75 0 0 0 1.5 0zm4 1a.75.75 0 0 0-1.5 0v2a.75.75 0 0 0 1.5 0zm-8 2a.75.75 0 0 0-1.5 0v2a.75.75 0 0 0 1.5 0zm9.508-.108a.75.75 0 0 1 .85-.634q.547.08 1.06.199l.06.013c.546.126.992.229 1.48.619.293.233.617.643.776.98.267.567.267 1.126.266 1.823V18.86c0 1.569-1.584 2.492-2.919 2.184-.862-.199-1.82-.31-2.83-.31-1.826 0-3.464.363-4.681.936-1.448.682-3.31 1.08-5.32 1.08-1.12 0-2.191-.123-3.169-.35l-.058-.013c-.547-.126-.993-.229-1.482-.618a3.1 3.1 0 0 1-.775-.981l.678-.32-.678.32c-.267-.566-.267-1.126-.266-1.822V7.998c0-1.57 1.584-2.493 2.919-2.185q.454.106.94.176a.75.75 0 1 1-.217 1.485q-.546-.08-1.06-.2c-.586-.134-1.082.306-1.082.724V18.86c0 .849.015 1.06.122 1.288.062.13.243.359.355.448l-.444.557.444-.557c.203.162.334.203.942.343.862.2 1.82.311 2.831.311 1.825 0 3.463-.363 4.68-.937 1.448-.682 3.31-1.08 5.32-1.08 1.12 0 2.192.124 3.169.35.585.135 1.081-.306 1.081-.723V7.998c0-.85-.015-1.06-.122-1.288a1.7 1.7 0 0 0-.355-.449c-.202-.162-.333-.202-.942-.343q-.453-.104-.94-.176a.75.75 0 0 1-.633-.85M12 11.75a1.75 1.75 0 1 0 0 3.5 1.75 1.75 0 0 0 0-3.5M8.75 13.5a3.25 3.25 0 1 1 6.5 0 3.25 3.25 0 0 1-6.5 0m-2.25 1a1 1 0 1 0-2 0v.009a1 1 0 1 0 2 0zm12-3.008a1 1 0 0 1 1 1v.01a1 1 0 1 1-2 0v-.01a1 1 0 0 1 1-1" clip-rule="evenodd"/></svg>