<svg xmlns="http://www.w3.org/2000/svg" fill="none" viewBox="0 0 24 24"><path fill="currentColor" fill-rule="evenodd" d="M22.75 5a.75.75 0 0 0-1.5 0v3a.75.75 0 0 0 1.5 0zm-7.5 5.647a2.7 2.7 0 0 1-.873-.427 6.75 6.75 0 1 1 0-4.44 2.75 2.75 0 1 1 2.374 4.866L16.749 14a.75.75 0 0 1-1.5 0zm7.5.353a.75.75 0 0 0-1.5 0v3a.75.75 0 0 0 1.5 0zm-6 6a.75.75 0 0 0-1.5 0v2c0 .437.075.858.214 1.25a.75.75 0 1 0 1.414-.5 2.3 2.3 0 0 1-.128-.75zm6 0a.75.75 0 0 0-1.5 0v2q-.002.398-.128.75a.75.75 0 1 0 1.414.5c.139-.392.214-.813.214-1.25zm-4.5 4.122a.75.75 0 1 0-.5 1.414 3.74 3.74 0 0 0 2.5 0 .75.75 0 1 0-.5-1.414 2.25 2.25 0 0 1-1.5 0M8 2.75a5.25 5.25 0 1 0 0 10.5 5.25 5.25 0 0 0 0-10.5m8 4a1.25 1.25 0 1 0 0 2.5 1.25 1.25 0 0 0 0-2.5" clip-rule="evenodd"/></svg>