<svg xmlns="http://www.w3.org/2000/svg" fill="none" viewBox="0 0 24 24"><path fill="currentColor" fill-rule="evenodd" d="M19.745 1.91a.75.75 0 0 1-.655.835c-.763.091-1.305.485-1.689.972a3.6 3.6 0 0 0-.52.924A9.24 9.24 0 0 1 21.25 12.5c0 2.258-.81 4.328-2.154 5.934-.524.626-.846 1.314-.846 1.998a2.32 2.32 0 0 1-2.318 2.318H8.068a2.32 2.32 0 0 1-2.318-2.318c0-.684-.322-1.372-.846-1.998A9.22 9.22 0 0 1 2.75 12.5a9.24 9.24 0 0 1 4.369-7.859 3.6 3.6 0 0 0-.52-.924c-.384-.487-.926-.88-1.688-.972a.75.75 0 1 1 .178-1.49c1.238.149 2.113.805 2.687 1.533.3.38.523.785.682 1.164A9.2 9.2 0 0 1 12 3.25c1.255 0 2.451.25 3.542.702.16-.38.383-.785.682-1.164.574-.728 1.45-1.384 2.687-1.533a.75.75 0 0 1 .834.656M8.309 5.685q.046-.021.088-.047A7.7 7.7 0 0 1 12 4.75a7.7 7.7 0 0 1 3.69.933 7.75 7.75 0 0 1 4.06 6.817 7.72 7.72 0 0 1-1.804 4.971c-.658.786-1.196 1.804-1.196 2.96a.82.82 0 0 1-.818.819H8.068a.82.82 0 0 1-.818-.818c0-1.157-.538-2.175-1.196-2.96A7.72 7.72 0 0 1 4.25 12.5a7.75 7.75 0 0 1 4.06-6.816M8.25 11.5c0-1.354 1.493-2.75 3.75-2.75s3.75 1.396 3.75 2.75-1.493 2.75-3.75 2.75-3.75-1.396-3.75-2.75M12 7.25c-2.713 0-5.25 1.738-5.25 4.25s2.537 4.25 5.25 4.25 5.25-1.738 5.25-4.25S14.713 7.25 12 7.25m0 3.25a1 1 0 1 0 0 2h.009a1 1 0 1 0 0-2zm-2.643 7.114a.75.75 0 0 1 1.029-.257c.382.229.95.393 1.614.393s1.233-.164 1.614-.393a.75.75 0 1 1 .772 1.286c-.65.39-1.493.607-2.386.607s-1.736-.217-2.386-.607a.75.75 0 0 1-.257-1.029" clip-rule="evenodd"/></svg>