<svg xmlns="http://www.w3.org/2000/svg" fill="none" viewBox="0 0 24 24"><path fill="currentColor" fill-rule="evenodd" d="M3.193 7.589A3.34 3.34 0 0 1 2.754 6.1a3.85 3.85 0 0 0 3.213-.314 3.9 3.9 0 0 0 1.87-2.647c.417.275.778.65 1.045 1.118q.187.327.293.67a6.3 6.3 0 0 0-3.292 4.32 3.28 3.28 0 0 1-2.69-1.658m.67 2.634a4.8 4.8 0 0 1-1.973-1.89 4.85 4.85 0 0 1-.493-3.594.75.75 0 0 1 1.182-.413 2.37 2.37 0 0 0 2.632.164 2.43 2.43 0 0 0 1.18-2.398.75.75 0 0 1 .95-.813 4.78 4.78 0 0 1 2.844 2.233q.249.437.4.9A6.2 6.2 0 0 1 12 4.25c3.393 0 6.146 2.718 6.247 6.098 2.55.365 4.503 2.572 4.503 5.23 0 1.866-1.169 3.47-2.415 4.093a.75.75 0 1 1-.67-1.342c.754-.377 1.585-1.472 1.585-2.75a3.774 3.774 0 0 0-3.135-3.733 6.3 6.3 0 0 1-1.292 2.697.75.75 0 0 1-1.16-.951 4.8 4.8 0 0 0 1.087-3.05c0-2.652-2.132-4.792-4.75-4.792-2.195 0-4.048 1.504-4.59 3.552a5.7 5.7 0 0 1 3.043 1.145.75.75 0 1 1-.905 1.196 4.2 4.2 0 0 0-2.956-.836c-2.15.206-3.842 2.034-3.842 4.268 0 1.387.654 2.533 1.703 3.327a.75.75 0 0 1-.906 1.196c-1.38-1.044-2.297-2.614-2.297-4.523a5.8 5.8 0 0 1 2.613-4.851m8.134 3.527a.75.75 0 0 1 .75.75V16a.75.75 0 0 1-1.5 0v-1.5a.75.75 0 0 1 .75-.75m-3 3a.75.75 0 0 1 .75.75V19a.75.75 0 0 1-1.5 0v-1.5a.75.75 0 0 1 .75-.75m6 0a.75.75 0 0 1 .75.75V19a.75.75 0 0 1-1.5 0v-1.5a.75.75 0 0 1 .75-.75m-8.5 3a.75.75 0 0 1 .75.75V22a.75.75 0 0 1-1.5 0v-1.5a.75.75 0 0 1 .75-.75m5.5 0a.75.75 0 0 1 .75.75V22a.75.75 0 0 1-1.5 0v-1.5a.75.75 0 0 1 .75-.75m5.5 0a.75.75 0 0 1 .75.75V22a.75.75 0 0 1-1.5 0v-1.5a.75.75 0 0 1 .75-.75" clip-rule="evenodd"/></svg>