<svg xmlns="http://www.w3.org/2000/svg" fill="none" viewBox="0 0 24 24"><path fill="currentColor" fill-rule="evenodd" d="M12 1.25C6.063 1.25 1.25 6.063 1.25 12S6.063 22.75 12 22.75 22.75 17.937 22.75 12 17.937 1.25 12 1.25M2.75 12a9.25 9.25 0 1 1 18.5 0 9.25 9.25 0 0 1-18.5 0m4.75-.75a.75.75 0 0 0 0 1.5h9a.75.75 0 0 0 0-1.5zm1.368-4.336a.75.75 0 0 1 .117 1.055c-.165.206-.32.404-.448.582q.247.005.564.002l.362-.001h7.04a.75.75 0 0 1 0 1.5h-7.34c-.372.003-.754.005-1.06-.021a2.4 2.4 0 0 1-.635-.13c-.208-.08-.515-.255-.652-.628-.122-.332-.022-.643.032-.785.066-.177.165-.352.262-.505.197-.31.465-.653.704-.951a.75.75 0 0 1 1.054-.118m6.154 9.118a.75.75 0 0 0 1.172.936c.238-.298.507-.64.703-.95a3 3 0 0 0 .263-.506c.054-.142.154-.453.032-.786-.137-.372-.444-.547-.652-.627a2.4 2.4 0 0 0-.635-.13 13 13 0 0 0-1.06-.022l-.3.001h-7.04a.75.75 0 1 0 0 1.5h7.401q.318-.004.565 0c-.129.18-.284.377-.449.584" clip-rule="evenodd"/></svg>