<svg xmlns="http://www.w3.org/2000/svg" fill="none" viewBox="0 0 24 24"><path fill="currentColor" fill-rule="evenodd" d="M12 22.25c4.679 0 7.028 0 8.639-1.611S22.25 16.679 22.25 12s0-7.028-1.611-8.639S16.679 1.75 12 1.75s-7.028 0-8.639 1.611S1.75 7.321 1.75 12s0 7.028 1.611 8.639S7.32 22.25 12 22.25m0-19c4.266 0 6.408 0 7.579 1.171S20.75 7.734 20.75 12s0 6.408-1.171 7.579S16.266 20.75 12 20.75s-6.408 0-7.579-1.171S3.25 16.266 3.25 12s0-6.408 1.171-7.579S7.734 3.25 12 3.25m-5.004 9.5h10.008a.75.75 0 0 0 0-1.5H6.996a.75.75 0 0 0 0 1.5m1.84-3c-1.247 0-2.226-.017-2.52-.815-.193-.527.085-1.135 1.103-2.408a.749.749 0 1 1 1.171.937c-.268.335-.451.586-.576.772.286.014.634.014.903.014h8.088a.75.75 0 0 1 0 1.5zm6.705 7.84a.75.75 0 0 0 1.054-.117c1.018-1.273 1.296-1.88 1.102-2.408-.301-.815-1.32-.817-2.601-.815H7.009a.75.75 0 0 0 0 1.5h8.194c.25 0 .547.002.797.014-.125.186-.308.437-.576.772a.75.75 0 0 0 .117 1.054" clip-rule="evenodd"/></svg>