<svg xmlns="http://www.w3.org/2000/svg" fill="none" viewBox="0 0 24 24"><path fill="currentColor" fill-rule="evenodd" d="M17.151 6.62a.75.75 0 0 0-1.284 0 2 2 0 0 1-.28.315 16 16 0 0 1-.687.619l-.534.457c-.513.438-1.148.98-1.892 1.643l-.04.04c-1.05 1.088-1.607 2.18-1.627 3.311-.011.637.15 1.234.425 1.795h-.205a.75.75 0 0 0 0 1.5h.32v4.793q0 .023.002.045l.004.069c.007.129.016.299.041.445.033.192.108.462.332.693s.509.329.767.371c.245.04.528.04.841.018h6.5l.069-.003c.052-.004.09-.005.147-.006.046 0 .104-.002.192-.005a2 2 0 0 0 .592-.1c.246-.086.514-.26.68-.582.146-.282.168-.593.137-.887V16.3h.348a.75.75 0 1 0 0-1.5h-.202a4.3 4.3 0 0 0 .41-1.946c-.041-1.159-.591-2.262-1.643-3.2a94 94 0 0 0-1.959-1.695l-.48-.408a16 16 0 0 1-.693-.62 2 2 0 0 1-.28-.312m-4.303 14.45V16.3h7.303v4.922l-.087.002-.064.002a4 4 0 0 0-.197.009h-2.55l.023-1.372a.75.75 0 1 0-1.5-.025l-.023 1.396h-2.445l-.054.002a4 4 0 0 1-.396.011l-.006-.1zm-.541-8.039c-.01.55.205 1.124.679 1.77h7.084c.45-.637.66-1.285.638-1.893-.024-.682-.342-1.42-1.143-2.134a95 95 0 0 0-1.92-1.662l-.495-.421a21 21 0 0 1-.639-.564q-.271.254-.63.562l-.554.474c-.505.431-1.112.949-1.833 1.592-.881.92-1.177 1.662-1.187 2.276M2.752 9.14c0-3.514 2.868-6.387 6.198-6.387 1.739 0 3.354.78 4.504 2.04a.75.75 0 1 0 1.108-1.01c-1.41-1.545-3.416-2.53-5.612-2.53-4.19 0-7.698 3.576-7.698 7.887 0 4.424 3.591 7.378 6.578 9.293l.013.008.013.008c.332.194.71.297 1.094.297a.75.75 0 0 0 0-1.5.7.7 0 0 1-.326-.086c-2.983-1.915-5.872-4.472-5.872-8.02m6.253-3.39a3.25 3.25 0 0 0-.649 6.434.75.75 0 0 0 .298-1.47 1.75 1.75 0 1 1 1.753-2.763.75.75 0 0 0 1.199-.901 3.25 3.25 0 0 0-2.6-1.3" clip-rule="evenodd"/></svg>