<svg xmlns="http://www.w3.org/2000/svg" fill="none" viewBox="0 0 24 24"><path fill="currentColor" fill-rule="evenodd" d="M5.933 11.003c.793-2.275 1.364-3.905 1.905-4.975C8.408 4.903 8.773 4.75 9 4.75c.211 0 .55.13 1.071 1.104.46.857.937 2.133 1.555 3.887-.486.63-1.01 1.468-1.634 2.465l-1.5 2.396a.75.75 0 1 0 1.272.796l1.465-2.342c.777-1.24 1.315-2.097 1.791-2.654.468-.547.748-.652.98-.652s.512.105.98.652c.476.557 1.015 1.414 1.79 2.654l3.876 6.194H3.056zM6 20.75H2a.75.75 0 0 1-.708-.997l3.246-9.307C5.305 8.247 5.908 6.521 6.5 5.35c.571-1.127 1.308-2.1 2.5-2.1 1.126 0 1.844.87 2.393 1.896.454.846.903 2.009 1.418 3.448.35-.215.74-.344 1.189-.344.886 0 1.546.505 2.12 1.177.558.653 1.154 1.606 1.888 2.78l4.628 7.395A.75.75 0 0 1 22 20.75z" clip-rule="evenodd"/></svg>