<svg xmlns="http://www.w3.org/2000/svg" fill="none" viewBox="0 0 24 24"><path fill="currentColor" fill-rule="evenodd" d="M12 22.75c-.467 0-.778-.113-1.249-.283l-.002-.001-.014-.005c-6.277-2.264-8.502-8.511-5.951-16.71.204-.652.328-1.047.67-1.366.339-.324.793-.429 1.69-.636l.017-.004c.953-.22 1.922-.707 2.88-1.446h.002c.914-.7 1.372-1.049 1.957-1.049.584 0 1.04.349 1.95 1.045l.005.003c.986.753 1.929 1.227 2.883 1.447l.016.004c.898.207 1.352.312 1.69.636.342.319.466.713.67 1.363 2.553 8.204.332 14.451-5.941 16.713h-.003c-.46.167-.794.288-1.272.288zM6.477 5.482c-.057.063-.166.41-.262.716-1.104 3.547-1.262 6.769-.458 9.315.842 2.665 2.688 4.528 5.487 5.537l.015.006c.424.154.543.194.74.194s.347-.048.765-.199c2.799-1.01 4.643-2.872 5.483-5.537.802-2.545.64-5.767-.463-9.317l-.007-.022c-.095-.299-.199-.629-.255-.693-.118-.067-.55-.167-1.004-.272l-.017-.004c-1.167-.27-2.298-.831-3.457-1.717l-.006-.004-.288-.22v3.01c.15.018.284.051.42.109.425.173.762.508.94.941.14.324.14.645.14 1.174v1c0 .53 0 .85-.14 1.174a1.72 1.72 0 0 1-.947.945 1.5 1.5 0 0 1-.413.107V13a.75.75 0 0 1-1.5 0v-1.275a1.6 1.6 0 0 1-.422-.11 1.72 1.72 0 0 1-.94-.941c-.14-.324-.14-.645-.14-1.174v-1c0-.53 0-.85.14-1.174.179-.433.515-.768.948-.945.133-.056.264-.089.414-.107v-3.01q-.147.109-.295.224c-1.128.87-2.292 1.449-3.457 1.718l-.017.004c-.456.105-.887.205-1.005.272m5.561 4.769c.247 0 .491-.001.557-.02a.23.23 0 0 0 .13-.131l.007-.016c.018-.06.018-.326.018-.583V8.5c0-.257 0-.523-.02-.591a.24.24 0 0 0-.133-.139c-.07-.02-.337-.02-.597-.02s-.527 0-.596.02a.23.23 0 0 0-.13.131l-.007.016c-.018.06-.018.326-.018.583v1c0 .257 0 .523.02.591q.042.103.133.139c.065.019.311.02.56.02h.076" clip-rule="evenodd"/></svg>