<svg xmlns="http://www.w3.org/2000/svg" fill="none" viewBox="0 0 24 24"><path fill="currentColor" fill-rule="evenodd" d="M12 1.25c-.966 0-1.911.081-2.827.194-2.799.345-4.962 2.666-5.18 5.408C3.861 8.515 3.75 10.238 3.75 12s.11 3.485.243 5.148c.218 2.742 2.381 5.063 5.18 5.408.916.113 1.861.194 2.827.194s1.911-.081 2.827-.194c2.799-.345 4.962-2.666 5.18-5.408.132-1.663.243-3.386.243-5.148s-.11-3.485-.243-5.148c-.218-2.742-2.381-5.063-5.18-5.408A23 23 0 0 0 12 1.25m-.75 1.517v7.483H5.285c.042-1.104.117-2.197.203-3.28.162-2.04 1.786-3.78 3.869-4.037.63-.078 1.26-.138 1.893-.166m-6 8.983h13.5V12c0 1.702-.107 3.379-.238 5.03-.162 2.04-1.786 3.78-3.869 4.037-.88.109-1.76.183-2.643.183-.884 0-1.764-.074-2.643-.183-2.083-.256-3.707-1.996-3.869-4.038-.13-1.65-.238-3.327-.238-5.029zm8.38-1.5h5.085a80 80 0 0 0-.203-3.28 4.35 4.35 0 0 0-.545-1.78zm-.88-1.278V2.767a24 24 0 0 1 1.893.166 4.4 4.4 0 0 1 2.366 1.071z" clip-rule="evenodd"/></svg>