<svg xmlns="http://www.w3.org/2000/svg" fill="none" viewBox="0 0 24 24"><path fill="currentColor" fill-rule="evenodd" d="M12 11.25a.75.75 0 0 0 0 1.5h8.724c-.15.154-.334.335-.562.557l-1.663 1.663a.75.75 0 1 0 1.06 1.06l1.654-1.653.032-.03c.407-.398.768-.75 1.02-1.077.276-.357.485-.762.485-1.27s-.21-.913-.485-1.27c-.252-.327-.613-.679-1.02-1.076l-.032-.031L19.56 7.97a.75.75 0 0 0-1.06 1.06l1.655 1.657.007.006c.228.222.412.403.562.557zM2.75 12a2.25 2.25 0 1 1 4.5 0 2.25 2.25 0 0 1-4.5 0M5 8.25a3.75 3.75 0 1 0 0 7.5 3.75 3.75 0 0 0 0-7.5" clip-rule="evenodd"/></svg>