<svg xmlns="http://www.w3.org/2000/svg" fill="none" viewBox="0 0 24 24"><path fill="currentColor" fill-rule="evenodd" d="M6.695 2a.75.75 0 1 0-1.5 0v.395c-.883.157-1.623.458-2.22 1.065-.665.675-.955 1.528-1.092 2.562-.133 1.002-.133 2.28-.133 3.884v5.11c0 1.603 0 2.881.133 3.884.137 1.034.427 1.886 1.092 2.562.666.677 1.51.974 2.534 1.114.989.135 2.25.135 3.826.135h.954a.75.75 0 1 0 0-1.5h-.898c-1.646 0-2.803-.002-3.68-.121-.852-.117-1.325-.332-1.667-.68-.344-.35-.559-.835-.674-1.707-.118-.892-.12-2.071-.12-3.742v-5c0-1.67.002-2.85.12-3.742.115-.872.33-1.357.674-1.707.266-.27.61-.46 1.151-.587V4a.75.75 0 0 0 1.5 0v-.253c.724-.035 1.602-.036 2.696-.036h.804V4a.75.75 0 0 0 1.5 0v-.29h.65c1.13 0 2.067.008 2.85.057V4a.75.75 0 0 0 1.5 0v-.044c.617.139 1.006.342 1.27.611.346.352.557.825.67 1.68.115.872.115 2.027.115 3.684v1.216a.75.75 0 0 0 1.5 0V9.825c0-1.563 0-2.803-.128-3.775-.135-1.025-.424-1.861-1.087-2.535-.605-.614-1.408-.923-2.34-1.089V2a.75.75 0 0 0-1.5 0v.264c-.83-.048-1.781-.053-2.85-.053h-.65V2a.75.75 0 0 0-1.5 0v.21h-.86c-1.004 0-1.88 0-2.64.036zm-.445 8A.75.75 0 0 1 7 9.25h8a.75.75 0 0 1 0 1.5H7a.75.75 0 0 1-.75-.75m0 5a.75.75 0 0 1 .75-.75h4a.75.75 0 0 1 0 1.5H7a.75.75 0 0 1-.75-.75m12.673-.176c.27-.081.386-.088.499-.057.126.035.371.155.778.61l.026.03.029.026c.254.232.38.388.443.532.047.11.082.268.014.555-.069.142-.228.343-.545.661-.105.105-.233.228-.373.363-.251.242-.542.522-.812.806-.47.461-.876.876-1.216 1.223l-.41.416c-.442.444-.672.652-.785.72-.176.106-.48.208-1.063.313-.23.034-.431.066-.617.096-.21.034-.4.065-.591.09l-.017.003a18 18 0 0 1 .124-.75l.066-.37.002-.012.002-.012c.075-.538.224-.96.336-1.15l.008-.009q.037-.045.12-.135c.111-.12.267-.284.456-.477.373-.383.86-.87 1.35-1.355.218-.196.537-.528.857-.86.16-.167.32-.333.468-.483.243-.246.464-.462.644-.616a2 2 0 0 1 .199-.155l.002-.001zm.896-1.504c.513.141.985.488 1.474 1.03.282.26.593.585.781 1.018.207.476.231 1 .074 1.588l-.011.043-.017.042c-.184.46-.555.862-.892 1.2-.15.15-.296.29-.444.432-.23.222-.465.447-.724.72l-.009.009-.009.009c-.463.455-.855.854-1.193 1.2l-.428.434c-.395.398-.768.764-1.078.95-.426.256-.964.394-1.58.505l-.013.003-.012.002c-.182.026-.382.058-.577.09-.24.037-.472.074-.658.1a6 6 0 0 1-.529.052 1.7 1.7 0 0 1-.555-.054c-.544-.165-.634-.7-.653-.84a2.8 2.8 0 0 1 .008-.656c.033-.315.102-.698.165-1.05q.03-.156.054-.3c.092-.65.285-1.292.543-1.716.05-.086.11-.157.134-.185l.004-.004q.07-.082.164-.185c.125-.136.293-.311.485-.508.385-.396.886-.896 1.383-1.387l.013-.014.015-.013a16 16 0 0 0 .722-.725c.17-.177.355-.37.548-.565.248-.252.506-.505.735-.701.115-.098.236-.195.355-.273.086-.056.241-.15.432-.194.33-.097.775-.199 1.293-.057" clip-rule="evenodd"/></svg>