<svg xmlns="http://www.w3.org/2000/svg" fill="none" viewBox="0 0 24 24"><path fill="currentColor" fill-rule="evenodd" d="M12.057 1.75h-.114c-2.19 0-3.912 0-5.255.18-1.377.186-2.469.573-3.327 1.43-.858.86-1.245 1.951-1.43 3.328-.181 1.343-.181 3.064-.181 5.255v.114c0 2.19 0 3.912.18 5.255.186 1.377.573 2.469 1.43 3.327.86.858 1.951 1.245 3.328 1.43 1.343.181 3.064.181 5.255.181h.114c2.19 0 3.912 0 5.255-.18 1.377-.186 2.469-.573 3.327-1.43.858-.86 1.245-1.951 1.43-3.328.181-1.343.181-3.064.181-5.255v-.114c0-2.19 0-3.912-.18-5.255-.186-1.377-.573-2.469-1.43-3.327-.86-.858-1.951-1.245-3.328-1.43-1.343-.181-3.064-.181-5.255-.181M4.422 4.422c.533-.533 1.256-.842 2.466-1.005C8.12 3.252 9.74 3.25 12 3.25s3.88.002 5.112.167c1.21.163 1.933.472 2.466 1.005s.842 1.256 1.005 2.466c.165 1.232.167 2.852.167 5.112s-.002 3.88-.167 5.112c-.163 1.21-.471 1.933-1.005 2.466s-1.256.842-2.466 1.005c-1.232.165-2.852.167-5.112.167s-3.88-.002-5.112-.167c-1.21-.163-1.933-.471-2.466-1.005s-.842-1.256-1.005-2.466C3.252 15.88 3.25 14.26 3.25 12s.002-3.88.167-5.112c.163-1.21.472-1.933 1.005-2.466M9.53 7.75c.251 0 .392.001.497.01a1 1 0 0 1 .096.015h.001l.002.001.008.006c.01.009.03.026.062.06.072.077.16.187.316.384l4.31 5.463v2.561h-.05c-.15 0-.233 0-.297-.003l-.06-.006a.2.2 0 0 1-.087-.055 2 2 0 0 1-.222-.256L9.18 9.738V7.75zm2.16-.453 3.131 3.97V7.75H14a.75.75 0 0 1 0-1.5h3a.75.75 0 0 1 0 1.5h-.679v8.488c.002.116.004.347-.048.562a1.21 1.21 0 0 1-1.112.941c-.115.01-.247.01-.37.01h-.076c-.225 0-.466 0-.699-.064-.555-.153-.876-.56-1.054-.786l-.03-.037-3.753-4.717v4.103H10a.75.75 0 0 1 0 1.5H7a.75.75 0 0 1 0-1.5h.679v-8.5H7a.75.75 0 0 1 0-1.5h2.624c.378-.001.787-.002 1.155.176.367.178.62.5.853.798z" clip-rule="evenodd"/></svg>