<svg xmlns="http://www.w3.org/2000/svg" fill="none" viewBox="0 0 24 24"><path fill="currentColor" fill-rule="evenodd" d="M1.25 4.5A.75.75 0 0 1 2 3.75h6.757a3.75 3.75 0 0 1 2.652 1.098l2.902 2.902h3.741c.899 0 1.648 0 2.242.08.628.084 1.195.27 1.65.725.456.456.642 1.023.726 1.65.08.595.08 1.345.08 2.243v3.104c0 .899 0 1.648-.08 2.242-.084.628-.27 1.195-.726 1.65-.455.456-1.022.642-1.65.726-.594.08-1.343.08-2.242.08H8.948c-.899 0-1.648 0-2.242-.08-.628-.084-1.195-.27-1.65-.726-.456-.455-.642-1.022-.726-1.65-.08-.594-.08-1.343-.08-2.242V14.25H2a.75.75 0 0 1 0-1.5h2.25V11.3a3.2 3.2 0 0 1-.897-.473L3.05 10.6a.75.75 0 0 1 .9-1.2l.303.227c.675.507 1.62.44 2.217-.157a.75.75 0 0 1 1.06 0l1.5 1.5a.664.664 0 1 0 .94-.94l-.995-.995-.01-.01-.995-.995a.75.75 0 0 1 1.06-1.06l.78.78h2.38l-1.842-1.841a2.25 2.25 0 0 0-1.59-.659H2a.75.75 0 0 1-.75-.75m4.5 11v-4.07a3.2 3.2 0 0 0 1.187-.432L7.97 12.03a2.164 2.164 0 0 0 3.297-2.78H18c.964 0 1.612.002 2.095.067.461.062.659.169.789.3s.237.327.3.788c.064.483.066 1.131.066 2.095v3c0 .964-.002 1.612-.067 2.095-.062.461-.169.659-.3.789s-.327.237-.788.3c-.483.064-1.131.066-2.095.066H9c-.964 0-1.612-.002-2.095-.067-.461-.062-.659-.169-.789-.3s-.237-.327-.3-.788c-.064-.483-.066-1.131-.066-2.095M12.5 14a1 1 0 1 1 2 0 1 1 0 0 1-2 0m1-2.5a2.5 2.5 0 1 0 0 5 2.5 2.5 0 0 0 0-5" clip-rule="evenodd"/></svg>