<svg xmlns="http://www.w3.org/2000/svg" fill="none" viewBox="0 0 24 24"><path fill="currentColor" fill-rule="evenodd" d="M2.53 1.47a.75.75 0 0 0-1.06 1.06l2.887 2.888-.003.06-.1 13.015v.006a4.25 4.25 0 0 0 4.25 4.25h6.991c1.105 0 2.117-.311 2.89-.957a3.7 3.7 0 0 0 1.005-1.341l2.08 2.08a.75.75 0 1 0 1.06-1.061l-2.983-2.983-.044-.045zM5.754 18.5l.09-11.597L18.2 19.26c-.12.612-.402 1.065-.778 1.38-.45.376-1.099.608-1.927.608H8.504a2.75 2.75 0 0 1-2.75-2.748M10.25 5a.75.75 0 0 1 .75-.75h2a.75.75 0 0 1 0 1.5h-2a.75.75 0 0 1-.75-.75M11 19a1 1 0 0 1 1-1h.009a1 1 0 1 1 0 2H12a1 1 0 0 1-1-1M8.504 1.25a4.2 4.2 0 0 0-1.641.329.75.75 0 0 0 .58 1.383 2.7 2.7 0 0 1 1.06-.212h6.992a2.75 2.75 0 0 1 2.75 2.75v9.505a.75.75 0 0 0 1.5 0V5.5a4.25 4.25 0 0 0-4.25-4.25z" clip-rule="evenodd"/></svg>