<svg xmlns="http://www.w3.org/2000/svg" fill="none" viewBox="0 0 24 24"><path fill="currentColor" fill-rule="evenodd" d="M8.944 1.25h2.112c1.602 0 2.881 0 3.884.135 1.037.14 1.89.435 2.565 1.11s.97 1.528 1.11 2.565q.073.554.101 1.224c1.17.108 2.12.373 2.85 1.103.645.645.925 1.458 1.057 2.438.127.946.127 2.151.127 3.656v1.992c0 1.504 0 2.71-.127 3.656-.132.98-.412 1.793-1.057 2.437-.644.645-1.458.925-2.437 1.057-.947.127-2.152.127-3.657.127h-1.991c-1.505 0-2.71 0-3.656-.127-.98-.132-1.793-.412-2.438-1.057-.73-.73-.995-1.68-1.103-2.85q-.67-.028-1.224-.1c-1.037-.14-1.89-.436-2.565-1.11-.675-.676-.97-1.53-1.11-2.566-.135-1.003-.135-2.282-.135-3.884V8.944c0-1.602 0-2.881.135-3.884.14-1.037.435-1.89 1.11-2.565s1.528-.97 2.565-1.11c1.003-.135 2.282-.135 3.884-.135m9.806 7.694q0-.604-.002-1.149c.927.103 1.414.309 1.758.653.32.32.52.763.63 1.577.112.834.114 1.938.114 3.511v1.881c0 1.573-.002 2.677-.114 3.512-.11.813-.31 1.257-.63 1.577s-.764.52-1.577.63c-.835.112-1.94.114-3.512.114h-1.88c-1.574 0-2.678-.002-3.512-.114-.814-.11-1.258-.31-1.577-.63-.344-.344-.55-.83-.653-1.758q.544.003 1.15.002h2.11c1.603 0 2.882 0 3.885-.135 1.037-.14 1.89-.435 2.565-1.11s.97-1.528 1.11-2.565c.135-1.003.135-2.282.135-3.884zM5.26 2.871c-.87.117-1.355.334-1.705.684s-.567.835-.684 1.704C2.751 6.151 2.75 7.33 2.75 9v2c0 1.671.002 2.849.121 3.74.117.87.334 1.355.684 1.705s.835.567 1.704.683c.892.12 2.07.122 3.741.122h2c1.671 0 2.849-.002 3.74-.122.87-.116 1.355-.334 1.705-.683s.567-.835.683-1.704c.12-.892.122-2.07.122-3.741V9c0-1.671-.002-2.849-.122-3.74-.116-.87-.334-1.355-.683-1.705s-.835-.567-1.704-.684c-.892-.12-2.07-.121-3.741-.121H9c-1.671 0-2.849.002-3.74.121m6.396 2.765A.75.75 0 0 0 10.25 6v3.55a2.75 2.75 0 1 0 1.5 2.45V8.667c.297.212.66.38 1.103.468a.75.75 0 1 0 .294-1.47c-.513-.103-.799-.407-1.002-.788a4 4 0 0 1-.252-.615l-.038-.114-.062-.188a2 2 0 0 0-.137-.324M9 10.75a1.25 1.25 0 1 1 0 2.5 1.25 1.25 0 0 1 0-2.5" clip-rule="evenodd"/></svg>