<svg xmlns="http://www.w3.org/2000/svg" fill="none" viewBox="0 0 24 24"><path fill="currentColor" fill-rule="evenodd" d="M12.057 1.75h-.114c-2.19 0-3.912 0-5.255.18-1.377.186-2.469.573-3.327 1.43-.858.86-1.245 1.951-1.43 3.328-.181 1.343-.181 3.064-.181 5.255v.114c0 2.19 0 3.912.18 5.255.186 1.377.573 2.469 1.43 3.327.86.858 1.951 1.245 3.328 1.43 1.343.181 3.064.181 5.255.181h.114c2.19 0 3.912 0 5.255-.18 1.377-.186 2.469-.573 3.327-1.43.858-.86 1.245-1.951 1.43-3.328.181-1.343.181-3.064.181-5.255v-.114c0-2.19 0-3.912-.18-5.255-.186-1.377-.573-2.469-1.43-3.327-.86-.858-1.951-1.245-3.328-1.43-1.343-.181-3.064-.181-5.255-.181M4.422 4.422c.533-.533 1.256-.842 2.466-1.005C8.12 3.252 9.74 3.25 12 3.25s3.88.002 5.112.167c1.21.163 1.933.472 2.466 1.005s.842 1.256 1.005 2.466c.165 1.232.167 2.852.167 5.112s-.002 3.88-.167 5.112c-.163 1.21-.471 1.933-1.005 2.466s-1.256.842-2.466 1.005c-1.232.165-2.852.167-5.112.167s-3.88-.002-5.112-.167c-1.21-.163-1.933-.471-2.466-1.005s-.842-1.256-1.005-2.466C3.252 15.88 3.25 14.26 3.25 12s.002-3.88.167-5.112c.163-1.21.472-1.933 1.005-2.466m8.667 4.615-.082-.05c-.657-.407-1.208-.748-1.665-.96-.463-.214-.992-.376-1.543-.206a2.1 2.1 0 0 0-.944.604c-.372.409-.494.943-.55 1.476-.055.532-.055 1.22-.055 2.056v.086c0 .837 0 1.524.055 2.056.056.533.178 1.067.55 1.476.256.28.58.492.944.604.551.17 1.08.008 1.543-.206.457-.212 1.008-.553 1.665-.96l.082-.05c.681-.421 1.25-.773 1.662-1.1.424-.338.797-.736.931-1.292.09-.374.09-.768 0-1.142-.134-.556-.508-.954-.931-1.291-.412-.328-.98-.68-1.662-1.101m-3.125.398a.6.6 0 0 1 .277-.18c.009-.004.107-.035.47.134.366.169.84.46 1.548.899.733.453 1.224.758 1.558 1.024.33.262.39.398.407.47a.94.94 0 0 1 0 .437c-.017.07-.077.207-.407.47-.334.265-.825.57-1.558 1.023-.709.44-1.182.73-1.547.9-.364.168-.462.137-.47.134a.63.63 0 0 1-.278-.18c-.037-.043-.12-.17-.167-.622-.046-.445-.047-1.054-.047-1.944s.001-1.499.047-1.944c.047-.452.13-.58.167-.621" clip-rule="evenodd"/></svg>