<svg xmlns="http://www.w3.org/2000/svg" fill="none" viewBox="0 0 24 24"><path fill="currentColor" fill-rule="evenodd" d="M11.443 1.25h.114c2.19 0 3.912 0 5.255.18 1.377.186 2.469.573 3.327 1.43.858.86 1.245 1.951 1.43 3.328.181 1.343.181 3.064.181 5.255v.057a.75.75 0 0 1-1.5 0c0-1.511 0-2.736-.05-3.75H2.8c-.05 1.014-.05 2.239-.05 3.75 0 2.26.002 3.88.167 5.112.163 1.21.472 1.933 1.005 2.466s1.256.842 2.466 1.005c1.232.165 2.852.167 5.112.167a.75.75 0 0 1 0 1.5h-.057c-2.19 0-3.912 0-5.255-.18-1.377-.186-2.469-.573-3.327-1.43-.858-.86-1.245-1.951-1.43-3.328-.181-1.343-.181-3.064-.181-5.255v-.114c0-2.19 0-3.912.18-5.255.186-1.377.573-2.469 1.43-3.327.86-.858 1.951-1.245 3.328-1.43 1.343-.181 3.064-.181 5.255-.181m7.635 2.672c.513.512.818 1.2.985 2.328H14.83l1.982-3.304c1.092.17 1.764.472 2.267.976M11.5 2.75c1.463 0 2.657 0 3.652.046L13.08 6.25H7.829l2.098-3.497q.73-.004 1.573-.003m-5.112.167a18 18 0 0 1 1.772-.134L6.08 6.25H2.937c.167-1.128.472-1.816.985-2.328.533-.533 1.256-.842 2.466-1.005M18.75 14a.75.75 0 0 0-1.5 0v3.25H14a.75.75 0 0 0 0 1.5h3.25V22a.75.75 0 0 0 1.5 0v-3.25H22a.75.75 0 0 0 0-1.5h-3.25z" clip-rule="evenodd"/></svg>