<svg xmlns="http://www.w3.org/2000/svg" fill="none" viewBox="0 0 24 24"><path fill="currentColor" fill-rule="evenodd" d="M20.023 1.462a.75.75 0 1 0-1.046 1.076 9 9 0 0 0 .664.551l.057.045c.245.193.508.4.757.61l.007.006H16a.75.75 0 0 0 0 1.5h4.462l-.007.006c-.249.21-.512.417-.757.61l-.057.045a9 9 0 0 0-.664.551.75.75 0 1 0 1.046 1.076c.091-.089.273-.235.544-.448l.06-.047c.242-.19.526-.413.797-.643.291-.246.593-.521.828-.797.117-.138.233-.293.323-.46.086-.162.175-.385.175-.643s-.089-.48-.175-.642a2.7 2.7 0 0 0-.323-.461 7.4 7.4 0 0 0-.828-.797c-.27-.23-.555-.453-.797-.643l-.06-.047a9 9 0 0 1-.544-.448M19.5 10.75a.75.75 0 0 1 0 1.5H13a.75.75 0 0 0 0 1.5h2.25V14c0 .69-.56 1.25-1.25 1.25h-1a.75.75 0 0 0 0 1.5h1.25V17c0 .69-.56 1.25-1.25 1.25h-1a.75.75 0 0 0 0 1.5h1.115l-.076.456a1.25 1.25 0 0 1-1.233 1.044H9.333c-1.096 0-1.883 0-2.505-.04-.616-.039-1.02-.114-1.352-.242a4.24 4.24 0 0 1-2.444-2.436c-.127-.33-.203-.731-.242-1.345-.04-.62-.04-1.405-.04-2.497 0-1.17.004-1.642.099-2.072.151-.685.47-1.322.93-1.854.288-.334.665-.62 1.603-1.322L9.4 6.438a.946.946 0 0 1 1.156.018.933.933 0 0 1 .078 1.393l-1.626 1.62a.75.75 0 0 0 .53 1.281zm0 3h-2.75V14c0 .854-.39 1.617-1 2.121V17a2.74 2.74 0 0 1-1.011 2.13l-.22 1.322a2.75 2.75 0 0 1-2.31 2.268.8.8 0 0 1-.209.03H9.308c-1.065 0-1.9 0-2.575-.043-.687-.044-1.26-.134-1.793-.338a5.74 5.74 0 0 1-3.308-3.298c-.205-.532-.295-1.103-.339-1.788-.043-.674-.043-1.506-.043-2.567v-.12c0-1.047 0-1.691.134-2.3a5.7 5.7 0 0 1 1.26-2.512c.408-.473.925-.86 1.766-1.487l.074-.056 4.018-3.004a2.446 2.446 0 0 1 2.99.046 2.433 2.433 0 0 1 .2 3.628l-.34.339H19.5a2.25 2.25 0 0 1 0 4.5" clip-rule="evenodd"/></svg>