<svg xmlns="http://www.w3.org/2000/svg" fill="none" viewBox="0 0 24 24"><path fill="currentColor" fill-rule="evenodd" d="M20.023 1.462a.75.75 0 1 0-1.046 1.076 9 9 0 0 0 .664.551l.057.045c.245.193.508.4.757.61l.007.006H16a.75.75 0 1 0 0 1.5h4.462l-.007.006c-.249.21-.512.417-.757.61l-.057.045a10 10 0 0 0-.664.551.75.75 0 1 0 1.046 1.076c.091-.089.273-.235.544-.448l.06-.047c.242-.19.526-.413.798-.643.29-.246.592-.521.826-.797.118-.138.234-.293.324-.46.086-.162.175-.385.175-.643s-.089-.48-.175-.642a2.7 2.7 0 0 0-.323-.461 7.4 7.4 0 0 0-.827-.797c-.271-.23-.556-.453-.798-.643l-.06-.047a9 9 0 0 1-.544-.448m-8.46 3.333a2.49 2.49 0 0 0-3.124.012L4.305 8.166l-.122.1c-1.159.94-1.907 1.548-2.357 2.376q-.12.222-.217.457c-.36.871-.36 1.835-.359 3.328v1.329c0 1.12 0 1.838.185 2.483a4.75 4.75 0 0 0 1.876 2.603c.553.38 1.235.607 2.297.96l.116.04.393.13c1.538.515 2.322.778 3.41.778 1.81 0 3.033-1.022 3.798-2.3.264-.44.424-.942.554-1.543.129-.591.24-1.334.381-2.276l.004-.023.376-2.353h4.61a2.5 2.5 0 0 0 0-5h-8.12l.769-.896a2.49 2.49 0 0 0-.335-3.564M9.386 5.971a.99.99 0 0 1 1.375 1.412L8.93 9.517a.75.75 0 0 0 .57 1.238h9.75a1 1 0 0 1 0 2H14a.75.75 0 0 0-.74.632l-.478 2.988-.001.007c-.146.974-.25 1.669-.368 2.206-.116.534-.232.854-.375 1.092-.579.966-1.375 1.57-2.512 1.57-.835 0-1.378-.181-3.065-.744l-.263-.088c-1.218-.406-1.681-.568-2.038-.813a3.25 3.25 0 0 1-1.283-1.78c-.12-.416-.127-.907-.127-2.191v-1.05c0-1.707.013-2.35.245-2.914q.066-.159.149-.312c.29-.535.782-.952 2.107-2.028z" clip-rule="evenodd"/></svg>