<svg xmlns="http://www.w3.org/2000/svg" fill="none" viewBox="0 0 24 24"><path fill="currentColor" fill-rule="evenodd" d="M2 2.25a.75.75 0 0 0-.75.75c0 2.719 1.783 5.322 3.59 7.029-.38.915-.59 1.92-.59 2.971 0 .237.032.503.056.71l.02.167c.026.26.025.42-.003.536-.058.243-.187.443-.396.766l-.113.175c-.247.389-.564.928-.564 1.646 0 1.542 1.23 2.735 2.758 3.5C7.58 21.284 9.7 21.75 12 21.75s4.42-.465 5.992-1.25c1.528-.765 2.758-1.958 2.758-3.5 0-.718-.317-1.257-.564-1.646l-.113-.174v-.001c-.209-.323-.338-.523-.396-.766-.028-.116-.029-.276-.002-.536l.019-.167a6 6 0 0 0 .056-.71c0-1.051-.21-2.056-.59-2.971 1.807-1.707 3.59-4.31 3.59-7.029a.75.75 0 0 0-.75-.75c-3.916 0-6.205 1.95-7.221 3.514a7.83 7.83 0 0 0-5.558 0C8.205 4.2 5.916 2.25 2 2.25m4.243 7.026C4.635 7.88 3.134 5.823 2.813 3.784c3.283.277 4.913 2.201 5.408 3.256a.75.75 0 0 0 1.012.354 6.3 6.3 0 0 1 5.534 0 .75.75 0 0 0 1.012-.354c.495-1.055 2.125-2.98 5.408-3.256-.321 2.04-1.823 4.096-3.43 5.492a.75.75 0 0 0-.177.905c.428.846.67 1.803.67 2.819 0 .141-.016.276-.037.455l-.009.072a3.83 3.83 0 0 0-1.732 2.05 3.23 3.23 0 0 0-.066 1.938c.155.56.463 1.11.938 1.631l-.023.012c-1.323.661-3.203 1.092-5.321 1.092s-3.998-.43-5.321-1.092l-.034-.017c.482-.527.794-1.08.95-1.645a3.23 3.23 0 0 0-.066-1.938 3.83 3.83 0 0 0-1.736-2.053l-.006-.05A4 4 0 0 1 5.75 13a6.2 6.2 0 0 1 .67-2.819.75.75 0 0 0-.177-.905m12.356 9.012c.451-.442.651-.89.651-1.288 0-.26-.104-.486-.329-.839l-.087-.133a5.6 5.6 0 0 1-.442-.768 2.3 2.3 0 0 0-.502.81c-.113.322-.14.674-.038 1.046.095.342.312.742.747 1.172m-12.45-1.192c-.095.345-.315.749-.757 1.183-.445-.439-.642-.883-.642-1.279 0-.26.104-.486.329-.839l.087-.133c.136-.208.311-.474.45-.783.204.217.388.492.496.805.112.322.14.674.038 1.046m5.33-1.672a.75.75 0 1 0-.959 1.152c.41.342.89.67 1.475.674.59.003 1.073-.324 1.49-.678a.75.75 0 0 0-.97-1.144c-.377.32-.498.322-.511.322-.019 0-.142-.009-.524-.326M7.993 12.5a1 1 0 0 1 1-1h.01a1 1 0 1 1 0 2h-.01a1 1 0 0 1-1-1m7.008-1a1 1 0 1 0 0 2h.009a1 1 0 1 0 0-2z" clip-rule="evenodd"/></svg>