<svg xmlns="http://www.w3.org/2000/svg" fill="none" viewBox="0 0 24 24"><path fill="currentColor" fill-rule="evenodd" d="M18.878 3.75c.565.001.944.007 1.23.048.298.042.383.107.43.158.054.056.123.161.166.493.027.209.038.462.043.787a2.25 2.25 0 0 1-1.869-1.486m-.88-1.5H5.3c-.629 0-1.178 0-1.619.062-.478.068-.938.222-1.307.61-.365.384-.504.852-.566 1.337-.058.456-.058 1.027-.058 1.693v8.095c0 .667 0 1.238.058 1.694.062.485.201.953.566 1.336.37.39.829.543 1.307.61.441.063.99.063 1.618.063h.016l-1.934 2.827a.75.75 0 0 0 1.238.847l2.514-3.674H18.7c.628 0 1.177 0 1.618-.062.478-.068.938-.222 1.307-.61.365-.384.504-.852.566-1.337.058-.456.058-1.027.058-1.693V5.952c0-.667 0-1.238-.058-1.694-.062-.485-.201-.953-.566-1.336-.369-.39-.829-.543-1.307-.61-.441-.063-.99-.063-1.618-.063h-.703m-9.84 14h1.196a2.751 2.751 0 0 1 5.293 0h2.678a3.75 3.75 0 0 1 3.425-2.992V6.742a3.75 3.75 0 0 1-3.425-2.992h-2.678a2.751 2.751 0 0 1-5.293 0H6.675A3.75 3.75 0 0 1 3.25 6.742v6.516a3.75 3.75 0 0 1 3.334 2.637l3.297-4.818a.75.75 0 1 1 1.238.847zM12 4.25c-.409 0-.772-.196-1-.5h2c-.228.304-.591.5-1 .5m0 11.5c.409 0 .772.196 1 .5h-2c.228-.304.591-.5 1-.5m6.878.5c.565-.001.944-.007 1.23-.047.298-.043.383-.108.43-.159.054-.056.123-.161.166-.493a7 7 0 0 0 .043-.787 2.25 2.25 0 0 0-1.869 1.486M3.253 14.764a2.25 2.25 0 0 1 1.869 1.486c-.565-.001-.944-.007-1.23-.047-.298-.043-.383-.108-.43-.159-.054-.056-.123-.161-.166-.493a7 7 0 0 1-.043-.787M5.122 3.75a2.25 2.25 0 0 1-1.869 1.486c.005-.325.016-.578.043-.787.043-.332.112-.437.165-.493.048-.05.133-.116.43-.158.287-.041.666-.047 1.23-.048M12 8a1 1 0 1 0 0 2h.012a1 1 0 1 0 0-2z" clip-rule="evenodd"/></svg>