<svg xmlns="http://www.w3.org/2000/svg" fill="none" viewBox="0 0 24 24"><path fill="currentColor" fill-rule="evenodd" d="M4.74 4.268c.544-.464 1.257-.733 2.417-.874C8.334 3.251 9.867 3.25 12 3.25s3.666.001 4.843.144c1.16.141 1.873.41 2.417.874q.255.218.472.472c.464.544.733 1.257.874 2.417.143 1.177.144 2.71.144 4.843s-.001 3.666-.144 4.843c-.141 1.16-.41 1.873-.874 2.417a4 4 0 0 1-.472.472c-.544.464-1.257.733-2.417.874-1.177.143-2.71.144-4.843.144s-3.666-.001-4.843-.144c-1.16-.141-1.873-.41-2.417-.874a4 4 0 0 1-.472-.472c-.464-.544-.733-1.257-.874-2.417-.143-1.177-.144-2.71-.144-4.843s.001-3.666.144-4.843c.141-1.16.41-1.873.874-2.417a3.7 3.7 0 0 1 .472-.472m7.31-2.518h-.102c-2.072 0-3.695 0-4.973.155-1.306.159-2.351.49-3.21 1.223a5 5 0 0 0-.638.638c-.734.859-1.064 1.904-1.223 3.21-.155 1.278-.155 2.901-.155 4.973v.102c0 2.072 0 3.695.155 4.973.159 1.306.49 2.351 1.223 3.21q.293.345.638.638c.859.734 1.904 1.064 3.21 1.223 1.278.155 2.901.155 4.973.155h.102c2.072 0 3.695 0 4.973-.155 1.306-.159 2.351-.49 3.21-1.223.272-.232.445-.412.638-.638.734-.859 1.064-1.904 1.223-3.21.155-1.278.155-2.901.155-4.973v-.102c0-2.072 0-3.695-.155-4.973-.159-1.306-.49-2.351-1.223-3.21a6 6 0 0 0-.638-.638c-.859-.734-1.904-1.064-3.21-1.223-1.278-.155-2.901-.155-4.973-.155m1.625 5.29a3.68 3.68 0 0 0-3.075.131c-.96.5-1.684 1.451-1.805 2.764-.075.81.162 1.635.597 2.298H8.027a.75.75 0 0 0 0 1.5h2.092a7 7 0 0 1-.327.523c-.433.63-.996 1.225-1.64 1.56a.75.75 0 0 0 .346 1.416h5.823c.117.002.393.007.737-.064.394-.08.866-.255 1.393-.61a.75.75 0 0 0-.836-1.245c-.367.247-.658.345-.86.386a1.7 1.7 0 0 1-.404.033h-3.799a8.2 8.2 0 0 0 1.24-1.999h1.598a.75.75 0 0 0 0-1.5h-.373a9 9 0 0 1-.99-.042c-.413-.047-.701-.138-.896-.272-.52-.358-.907-1.13-.841-1.846.073-.79.484-1.3 1.005-1.571a2.18 2.18 0 0 1 1.81-.075c.418.172.7.495.888.872.193.384.266.78.282.994a.75.75 0 1 0 1.496-.111 4.3 4.3 0 0 0-.437-1.556c-.301-.6-.815-1.24-1.658-1.586" clip-rule="evenodd"/></svg>