<svg xmlns="http://www.w3.org/2000/svg" fill="none" viewBox="0 0 24 24"><path fill="currentColor" fill-rule="evenodd" d="M20.75 10.448v.302H22a.75.75 0 0 1 0 1.5h-1.25v2.5H22a.75.75 0 0 1 0 1.5h-1.25v.302c0 .876 0 1.61-.074 2.198H22a.75.75 0 0 1 0 1.5h-1.882q-.079.1-.173.195c-.456.455-1.023.64-1.65.725-.595.08-1.344.08-2.243.08H4a2.75 2.75 0 0 1-2.75-2.75v-13A2.75 2.75 0 0 1 4 2.75h.052c.898 0 1.648 0 2.242.08.628.084 1.195.27 1.65.725.456.456.642 1.023.726 1.65q.035.255.05.545h7.332c.899 0 1.648 0 2.242.08.628.084 1.195.27 1.65.725q.095.095.174.195H22a.75.75 0 0 1 0 1.5h-1.324c.074.588.074 1.322.074 2.198m-1.5.052v6c0 .964-.002 1.612-.067 2.095-.062.461-.169.659-.3.789s-.327.237-.788.3c-.483.064-1.131.066-2.095.066H4a1.25 1.25 0 1 1 0-2.5h.052c.898 0 1.648 0 2.242-.08.628-.084 1.195-.27 1.65-.726.456-.455.642-1.022.726-1.65.08-.594.08-1.344.08-2.242V7.25H16c.964 0 1.612.002 2.095.067.461.062.659.169.789.3s.237.327.3.788c.064.483.066 1.131.066 2.095M6.095 4.317C5.612 4.252 4.964 4.25 4 4.25c-.69 0-1.25.56-1.25 1.25v10.55c.375-.192.8-.3 1.25-.3.964 0 1.612-.002 2.095-.066.461-.063.659-.17.789-.3s.237-.328.3-.79c.064-.482.066-1.13.066-2.094v-5c0-.964-.002-1.612-.067-2.095-.062-.461-.169-.659-.3-.789s-.327-.237-.788-.3m10.79 7.682-.098-.121c-.422-.52-.963-1.188-1.608-1.622a2.84 2.84 0 0 0-1.283-.492c-.499-.053-1.01.044-1.524.302-.236.118-.4.2-.521.257l-.138.06-.003.002-.068.005a9 9 0 0 1-.311.003H11a.75.75 0 0 0 0 1.5h.389c.23 0 .46 0 .67-.049.148-.034.303-.104.43-.163q.209-.1.545-.269l.01-.005c.286-.143.51-.17.692-.151.188.02.386.097.605.244.452.304.859.805 1.325 1.377l.056.07c.202.248.344.422.442.553a19 19 0 0 1-.442.554l-.056.069c-.466.572-.873 1.073-1.325 1.377a1.36 1.36 0 0 1-.605.245c-.182.019-.406-.009-.693-.152l-.01-.005q-.335-.169-.545-.269a2.3 2.3 0 0 0-.428-.163c-.21-.05-.441-.05-.67-.05H11a.75.75 0 0 0 0 1.5h.331c.151 0 .242.001.31.004l.069.005.003.001c.015.006.056.023.137.06.121.058.286.14.522.258.515.258 1.026.355 1.524.302a2.84 2.84 0 0 0 1.283-.492c.645-.434 1.186-1.102 1.608-1.622l.098-.121.017-.021a14 14 0 0 0 .536-.682 2.3 2.3 0 0 0 .193-.318c.053-.108.119-.276.119-.48a1.1 1.1 0 0 0-.119-.48 2.3 2.3 0 0 0-.193-.318c-.13-.185-.318-.415-.535-.682z" clip-rule="evenodd"/></svg>