<svg xmlns="http://www.w3.org/2000/svg" fill="none" viewBox="0 0 24 24"><path fill="currentColor" fill-rule="evenodd" d="M19.75 3a.75.75 0 0 0-1.5 0v4a.75.75 0 0 0 1.5 0zm-15 8.75q.19-.002.348-.011c.178-.012.373-.04.572-.122a1.75 1.75 0 0 0 .947-.947c.082-.199.11-.394.122-.572.011-.165.011-.362.011-.576v-.044c0-.214 0-.41-.011-.576a1.8 1.8 0 0 0-.122-.572 1.75 1.75 0 0 0-.947-.947 1.8 1.8 0 0 0-.572-.122c-.165-.011-.362-.011-.576-.011H3.478c-.214 0-.41 0-.576.011-.178.012-.373.04-.572.122a1.75 1.75 0 0 0-.947.947c-.082.199-.11.394-.122.572-.011.165-.011.362-.011.576v.044c0 .214 0 .41.011.576.012.178.04.373.122.572.178.428.519.77.947.947.199.082.394.11.572.122q.157.01.348.01V21a.75.75 0 0 0 1.5 0zM4 10.25h.5c.243 0 .388 0 .496-.008a1 1 0 0 0 .103-.012.25.25 0 0 0 .13-.131 1 1 0 0 0 .013-.103A8 8 0 0 0 5.25 9.5c0-.243 0-.388-.008-.496A1 1 0 0 0 5.23 8.9a.25.25 0 0 0-.131-.13 1 1 0 0 0-.103-.013A8 8 0 0 0 4.5 8.75h-1c-.243 0-.388 0-.496.008a1 1 0 0 0-.103.012.25.25 0 0 0-.13.131 1 1 0 0 0-.013.103 8 8 0 0 0-.008.496c0 .243 0 .388.008.496.004.067.01.095.012.103a.25.25 0 0 0 .131.13 1 1 0 0 0 .103.013c.108.008.253.008.496.008zm15 2h.5c.243 0 .388 0 .496-.008a1 1 0 0 0 .103-.012.25.25 0 0 0 .13-.131 1 1 0 0 0 .013-.103c.008-.108.008-.253.008-.496s0-.388-.008-.496a1 1 0 0 0-.012-.103.25.25 0 0 0-.131-.13 1 1 0 0 0-.103-.013 8 8 0 0 0-.496-.008h-1c-.243 0-.388 0-.496.008a1 1 0 0 0-.103.012.25.25 0 0 0-.13.131 1 1 0 0 0-.013.103 8 8 0 0 0-.008.496c0 .243 0 .388.008.496.004.067.01.095.012.103a.25.25 0 0 0 .131.13 1 1 0 0 0 .103.013c.108.008.253.008.496.008zm1.098 1.489q-.157.01-.348.01V21a.75.75 0 0 1-1.5 0v-7.25a6 6 0 0 1-.348-.011 1.8 1.8 0 0 1-.572-.122 1.75 1.75 0 0 1-.947-.947 1.8 1.8 0 0 1-.122-.572c-.011-.165-.011-.362-.011-.576v-.044c0-.214 0-.41.011-.576.012-.178.04-.373.122-.572a1.75 1.75 0 0 1 .947-.947c.199-.082.394-.11.572-.122.165-.011.362-.011.576-.011h1.044c.214 0 .41 0 .576.011.178.012.373.04.572.122.428.178.77.519.947.947.082.199.11.394.122.572.011.165.011.362.011.576v.044c0 .214 0 .41-.011.576-.012.178-.04.373-.122.572a1.75 1.75 0 0 1-.947.947c-.199.082-.394.11-.572.122M11.5 2.25a.75.75 0 0 1 .75.75v9.25q.19.002.348.011c.178.012.373.04.572.122.428.178.77.519.947.947.082.199.11.394.122.572.011.165.011.362.011.576v.044c0 .214 0 .41-.011.576-.012.178-.04.373-.122.572a1.75 1.75 0 0 1-.947.947c-.199.082-.394.11-.572.122-.165.011-.362.011-.576.011h-1.044c-.214 0-.41 0-.576-.011a1.8 1.8 0 0 1-.572-.122 1.75 1.75 0 0 1-.947-.947 1.8 1.8 0 0 1-.122-.572c-.011-.165-.011-.362-.011-.576v-.044c0-.214 0-.41.011-.576.012-.178.04-.373.122-.572a1.75 1.75 0 0 1 .947-.947 1.8 1.8 0 0 1 .572-.122q.157-.01.348-.01V3a.75.75 0 0 1 .75-.75M4.75 3a.75.75 0 0 0-1.5 0v2a.75.75 0 0 0 1.5 0zm6.75 15.25a.75.75 0 0 1 .75.75v2a.75.75 0 0 1-1.5 0v-2a.75.75 0 0 1 .75-.75m-1.23-4.349a.25.25 0 0 1 .131-.13 1 1 0 0 1 .103-.013c.108-.008.253-.008.496-.008h1c.243 0 .388 0 .496.008.067.004.095.01.103.012a.25.25 0 0 1 .13.131 1 1 0 0 1 .013.103c.008.108.008.253.008.496s0 .388-.008.496a1 1 0 0 1-.012.103.25.25 0 0 1-.131.13 1 1 0 0 1-.103.013 8 8 0 0 1-.496.008h-1c-.243 0-.388 0-.496-.008a1 1 0 0 1-.103-.012.25.25 0 0 1-.13-.131 1 1 0 0 1-.013-.103 8 8 0 0 1-.008-.496c0-.243 0-.388.008-.496a1 1 0 0 1 .012-.103" clip-rule="evenodd"/></svg>