<svg xmlns="http://www.w3.org/2000/svg" fill="none" viewBox="0 0 24 24"><path fill="currentColor" fill-rule="evenodd" d="M11.18 3.1c-.338.272-.712.705-1.155 1.33-.469.663-.765 1.086-.925 1.408a.9.9 0 0 0-.099.271v.002h.001c.036.02.12.053.3.08.372.057.915.059 1.758.059h1.881c.843 0 1.386-.002 1.758-.059a1 1 0 0 0 .3-.08v-.002a.9.9 0 0 0-.098-.271c-.16-.322-.456-.745-.925-1.407-.443-.626-.817-1.059-1.156-1.332-.327-.263-.585-.349-.82-.349s-.492.086-.82.35m-.94-1.169c.513-.413 1.093-.681 1.76-.681.668 0 1.248.268 1.76.681.502.403.97.97 1.44 1.633l.036.05c.422.597.791 1.118 1.01 1.559.23.467.392 1.043.09 1.63-.308.596-.89.791-1.41.87-.5.077-1.16.077-1.924.077H11c-.764 0-1.424 0-1.924-.076-.52-.08-1.102-.275-1.41-.871-.302-.587-.14-1.163.09-1.63.219-.441.587-.962 1.01-1.559l.036-.05c.47-.664.938-1.23 1.44-1.633M8.713 9.25h6.574c.538 0 .995 0 1.374.037.403.04.777.125 1.134.331.358.206.62.486.855.814.221.309.449.702.716 1.165l.018.03.302.526.024.041c.166.289.33.576.427.823.105.271.207.69-.038 1.11-.244.422-.66.54-.947.583-.264.04-.597.04-.933.04H5.782c-.337 0-.67 0-.934-.04-.286-.043-.702-.161-.947-.582-.244-.42-.143-.84-.038-1.11.096-.248.261-.535.427-.824l.024-.041q.15-.263.302-.525l.018-.03c.268-.464.495-.857.717-1.166.235-.328.496-.608.854-.814s.731-.291 1.134-.33c.38-.038.836-.038 1.374-.038m-1.227 1.53c-.281.027-.424.076-.532.138s-.222.161-.385.389c-.173.241-.364.57-.654 1.072l-.498.869c.117.002.251.002.412.002h12.342c.161 0 .295 0 .412-.002-.055-.1-.12-.213-.197-.349l-.3-.52c-.29-.502-.482-.831-.655-1.072-.163-.228-.276-.327-.384-.389s-.251-.11-.532-.138c-.297-.03-.68-.03-1.263-.03H8.748c-.582 0-.965 0-1.262.03m-3.147 5.47h-.031c-.267 0-.523 0-.741.023a1.7 1.7 0 0 0-.752.244c-.433.27-.645.712-.836 1.11l-.045.094c-.618 1.272-.996 2.477-.341 3.552.518.851 1.42 1.18 2.462 1.33 1.026.147 2.402.147 4.124.147h7.643c1.722 0 3.098 0 4.124-.147 1.042-.15 1.944-.479 2.462-1.33.655-1.075.276-2.28-.34-3.552l-.046-.094c-.192-.398-.403-.84-.836-1.11a1.7 1.7 0 0 0-.752-.244c-.218-.023-.474-.023-.74-.023zm-.743 1.55.015-.012.015-.006a1 1 0 0 1 .1-.017c.13-.014.303-.015.613-.015h15.323c.31 0 .484.001.612.015a1 1 0 0 1 .101.017l.015.006.015.013c.008.009.025.03.053.072.063.1.132.24.26.503.625 1.288.608 1.79.409 2.117-.162.266-.49.495-1.394.625-.907.13-2.175.132-3.976.132H8.244c-1.801 0-3.069-.002-3.976-.132-.905-.13-1.232-.36-1.394-.625-.2-.328-.216-.829.41-2.117.127-.263.196-.404.26-.503l.052-.072" clip-rule="evenodd"/></svg>