<svg xmlns="http://www.w3.org/2000/svg" fill="none" viewBox="0 0 24 24"><path fill="currentColor" fill-rule="evenodd" d="M7 3a1 1 0 0 1 1-1h.009a1 1 0 1 1 0 2H8a1 1 0 0 1-1-1m-4-.75a.75.75 0 0 1 .75.75v11c0 1.671.002 2.849.121 3.74.06.445.146.789.263 1.066L20.47 2.47a.75.75 0 1 1 1.06 1.06L5.194 19.866c.277.117.62.203 1.065.262.892.12 2.07.122 3.741.122h11a.75.75 0 0 1 0 1.5H9.944c-1.602 0-2.881 0-3.884-.135-1.037-.14-1.89-.435-2.565-1.11s-.97-1.528-1.11-2.565c-.135-1.003-.135-2.282-.135-3.884V3A.75.75 0 0 1 3 2.25M15 3a1 1 0 1 0 0 2h.009a1 1 0 1 0 0-2zM8 8a1 1 0 0 0 0 2h.009a1 1 0 1 0 0-2zm11 3a1 1 0 0 1 1-1h.009a1 1 0 1 1 0 2H20a1 1 0 0 1-1-1m-6 5a1 1 0 1 0 0 2h.009a1 1 0 1 0 0-2z" clip-rule="evenodd"/></svg>