<svg xmlns="http://www.w3.org/2000/svg" fill="none" viewBox="0 0 24 24"><path fill="currentColor" fill-rule="evenodd" d="M3.364 20.64c1.61 1.61 3.957 1.61 8.635 1.61s7.025 0 8.635-1.609c1.61-1.61 1.61-3.96 1.61-8.641s0-7.03-1.61-8.64S16.677 1.75 12 1.75s-7.026 0-8.635 1.609c-1.61 1.61-1.61 3.96-1.61 8.64V12c0 4.681 0 7.03 1.61 8.64M12 3.25c4.264 0 6.405 0 7.576 1.171 1.17 1.17 1.17 3.312 1.17 7.579s0 6.409-1.17 7.579C18.404 20.75 16.264 20.75 12 20.75s-6.405 0-7.575-1.171c-1.17-1.17-1.17-3.312-1.17-7.579s0-6.409 1.17-7.579C5.594 3.25 7.735 3.25 11.999 3.25m1.593 12.962a.75.75 0 0 0 .72.54l-.001-.001q.106 0 .211-.03c2.227-.651 3.722-2.519 3.722-4.65v-2.07c0-1.041 0-1.729-.54-2.25l-.009-.009c-.526-.492-1.202-.492-2.322-.492s-1.797 0-2.323.492l-.01.009c-.54.521-.54 1.209-.54 2.25s0 1.73.54 2.25l.01.009c.527.492 1.203.492 2.323.492.521 0 .946 0 1.305-.05-.257 1.19-1.228 2.186-2.576 2.58a.75.75 0 0 0-.51.93m1.781-4.961c-.555 0-1.183 0-1.294-.084-.078-.095-.078-.687-.078-1.165V10c0-.478 0-1.071.078-1.165.11-.084.739-.084 1.294-.084.557 0 1.184 0 1.295.084.078.095.078.688.078 1.166s0 1.072-.078 1.166c-.11.084-.739.084-1.294.084M6.84 16.212c.096.327.395.54.72.54v-.001a.7.7 0 0 0 .21-.03c2.227-.65 3.723-2.519 3.723-4.65v-2.07c0-1.041 0-1.729-.54-2.25l-.008-.009c-.527-.492-1.203-.492-2.323-.492s-1.797 0-2.323.492l-.01.009c-.539.521-.539 1.209-.539 2.25s0 1.73.54 2.25l.009.009c.527.492 1.203.492 2.323.492.521 0 .946 0 1.305-.05-.257 1.19-1.228 2.186-2.577 2.58a.75.75 0 0 0-.51.93m1.782-4.961c-.555 0-1.184 0-1.295-.084-.078-.095-.078-.687-.078-1.165V10c0-.478 0-1.07.078-1.165.111-.084.739-.084 1.294-.084.557 0 1.184 0 1.295.084.078.095.078.688.078 1.166v.008c0 .477-.001 1.064-.078 1.158-.11.084-.74.084-1.294.084" clip-rule="evenodd"/></svg>