<svg xmlns="http://www.w3.org/2000/svg" fill="none" viewBox="0 0 24 24"><path fill="currentColor" fill-rule="evenodd" d="M19.206 2.721a.75.75 0 0 0-.412-1.442l-14 4a.8.8 0 0 0-.233.113c-.91.147-1.664.459-2.252 1.145-.58.677-.827 1.52-.944 2.536-.115.996-.115 2.27-.115 3.878v.097c0 1.61 0 2.882.115 3.878.117 1.017.364 1.86.944 2.537.595.693 1.36 1.005 2.283 1.15q.309.048.658.076v1.31a.75.75 0 0 0 1.5 0v-1.253q.558.005 1.187.004h8.125q.63.001 1.188-.004V22a.75.75 0 0 0 1.5 0v-1.311q.35-.029.658-.076c.923-.145 1.688-.457 2.283-1.15.58-.677.827-1.52.944-2.537.115-.996.115-2.269.115-3.877v-.098c0-1.609 0-2.882-.115-3.878-.117-1.017-.364-1.86-.944-2.536-.595-.694-1.36-1.005-2.283-1.15-.875-.137-1.985-.137-3.346-.137h-5.706zM3.448 7.513c.284-.332.666-.533 1.376-.644.746-.117 1.737-.12 3.176-.12h8c1.439 0 2.43.003 3.176.12.71.111 1.092.312 1.376.644.298.348.49.843.593 1.732.104.9.105 2.087.105 3.755s-.001 2.854-.105 3.754c-.102.89-.295 1.384-.593 1.732-.284.332-.666.533-1.376.645-.746.117-1.737.119-3.176.119H8c-1.439 0-2.43-.002-3.176-.12-.71-.11-1.092-.312-1.376-.643-.298-.349-.49-.844-.593-1.733-.104-.9-.105-2.086-.105-3.754s.001-2.855.105-3.755c.102-.889.295-1.384.593-1.732M7 14a1 1 0 1 0 0 2h.009a1 1 0 0 0 0-2zm-1.75-3a.75.75 0 0 1 .75-.75h3a.75.75 0 1 1 0 1.5H6a.75.75 0 0 1-.75-.75m7.5 2a2.25 2.25 0 1 1 4.5 0 2.25 2.25 0 0 1-4.5 0M15 9.25a3.75 3.75 0 1 0 0 7.5 3.75 3.75 0 0 0 0-7.5" clip-rule="evenodd"/></svg>