<svg xmlns="http://www.w3.org/2000/svg" fill="none" viewBox="0 0 24 24"><path fill="currentColor" fill-rule="evenodd" d="M14.189 5.31c.751-.747 1.87-.747 2.622 0 .938.932 2.06 2.19 2.943 3.608.888 1.425 1.496 2.948 1.496 4.424 0 2.95-2.203 5.908-5.75 5.908a.75.75 0 0 0 0 1.5c4.53 0 7.25-3.793 7.25-7.408 0-1.87-.761-3.675-1.723-5.218-.966-1.55-2.175-2.9-3.159-3.878-1.336-1.328-3.4-1.328-4.736 0a.75.75 0 1 0 1.057 1.064m-7 0c.751-.747 1.87-.747 2.622 0 .938.932 2.06 2.19 2.943 3.608.888 1.425 1.496 2.948 1.496 4.424 0 2.95-2.203 5.908-5.75 5.908s-5.75-2.958-5.75-5.908c0-1.476.608-3 1.496-4.424C5.129 7.5 6.25 6.242 7.189 5.31m3.68-1.064c-1.337-1.328-3.401-1.328-4.737 0-.984.977-2.193 2.327-3.16 3.878-.96 1.543-1.722 3.348-1.722 5.218 0 3.615 2.72 7.408 7.25 7.408s7.25-3.793 7.25-7.408c0-1.87-.761-3.675-1.723-5.218-.966-1.55-2.174-2.9-3.159-3.878" clip-rule="evenodd"/></svg>