<svg xmlns="http://www.w3.org/2000/svg" fill="none" viewBox="0 0 24 24"><path fill="currentColor" fill-rule="evenodd" d="M6.982 3.94a.706.706 0 0 0-.964 0c-.494.456-1.076 1.063-1.529 1.738-.459.685-.739 1.369-.739 1.993 0 1.255 1.017 2.579 2.75 2.579s2.75-1.324 2.75-2.579c0-.624-.28-1.308-.74-1.993-.452-.675-1.034-1.282-1.528-1.738M5.001 2.838a2.206 2.206 0 0 1 2.998 0c.541.499 1.214 1.196 1.757 2.005.537.8.994 1.78.994 2.828 0 2.028-1.634 4.079-4.25 4.079S2.25 9.699 2.25 7.671c0-1.049.457-2.029.994-2.828C3.787 4.033 4.46 3.337 5 2.838m7.481 11.102a.706.706 0 0 0-.964 0c-.494.456-1.076 1.063-1.529 1.738-.459.685-.739 1.369-.739 1.993 0 1.255 1.017 2.579 2.75 2.579s2.75-1.324 2.75-2.579c0-.624-.28-1.308-.74-1.993-.452-.675-1.034-1.282-1.528-1.738M10.5 12.838a2.206 2.206 0 0 1 2.998 0c.541.499 1.214 1.196 1.757 2.005.537.8.994 1.78.994 2.828 0 2.028-1.634 4.079-4.25 4.079s-4.25-2.051-4.25-4.079c0-1.049.457-2.029.994-2.828.543-.81 1.216-1.506 1.757-2.005m6.517-8.898a.706.706 0 0 1 .964 0c.494.456 1.076 1.063 1.529 1.738.459.685.739 1.369.739 1.993 0 1.255-1.017 2.579-2.75 2.579s-2.75-1.324-2.75-2.579c0-.624.28-1.308.74-1.993.452-.675 1.034-1.282 1.528-1.738m1.981-1.102a2.206 2.206 0 0 0-2.998 0c-.541.499-1.214 1.196-1.757 2.005-.537.8-.994 1.78-.994 2.828 0 2.028 1.634 4.079 4.25 4.079s4.25-2.051 4.25-4.079c0-1.049-.457-2.029-.994-2.828-.543-.81-1.216-1.506-1.757-2.005" clip-rule="evenodd"/></svg>