<svg xmlns="http://www.w3.org/2000/svg" fill="none" viewBox="0 0 24 24"><path fill="currentColor" fill-rule="evenodd" d="M21.816 2.5a.75.75 0 0 0-.752-.75.75.75 0 0 0-.752.75c0 .336-.24.811-.86 1.24-.601.415-1.464.71-2.443.71h-9.3c-1.487 0-2.828.508-3.807 1.29-.97.773-1.645 1.87-1.645 3.06a.751.751 0 0 0 1.504 0c0-.61.36-1.313 1.08-1.89.713-.568 1.722-.96 2.867-.96h1.55a253 253 0 0 1-.28 5.243c-.134 2.041-.299 3.835-.483 4.64-.193.84-.464 1.59-.868 2.119-.378.493-.869.798-1.609.798a.751.751 0 1 0 0 1.5c1.266 0 2.18-.57 2.805-1.39.6-.783.93-1.782 1.138-2.693.217-.945.387-2.87.52-4.876.122-1.854.216-3.843.283-5.341h4.99l-.454 4.982a.752.752 0 0 0 1.498.136l.467-5.123c1.17-.047 2.238-.415 3.044-.972.844-.584 1.507-1.46 1.507-2.473m-8.024 15c0-1.795 1.46-3.25 3.26-3.25s3.26 1.455 3.26 3.25-1.46 3.25-3.26 3.25-3.26-1.455-3.26-3.25m3.26-4.75a4.757 4.757 0 0 0-4.765 4.75 4.757 4.757 0 0 0 4.765 4.75 4.757 4.757 0 0 0 4.764-4.75 4.757 4.757 0 0 0-4.764-4.75m-1.338 4a.751.751 0 1 0 0 1.5h2.675a.751.751 0 1 0 0-1.5z" clip-rule="evenodd"/></svg>