<svg xmlns="http://www.w3.org/2000/svg" fill="none" viewBox="0 0 24 24"><path fill="currentColor" fill-rule="evenodd" d="M15.85 2.477a.75.75 0 0 1 1.062-.015l1.002.976.032.03c.196.192.397.387.533.563.122.158.41.574.195 1.078-.21.493-.698.584-.894.61-.22.031-.503.031-.781.031H9.195C5.614 5.75 2.75 8.567 2.75 12c0 1.324.424 2.551 1.149 3.563a.75.75 0 0 1-1.22.874A7.6 7.6 0 0 1 1.25 12c0-4.3 3.576-7.75 7.944-7.75h7.404l-.733-.712a.75.75 0 0 1-.014-1.061m4.423 4.914a.75.75 0 0 1 1.047.172A7.6 7.6 0 0 1 22.75 12c0 4.3-3.577 7.75-7.945 7.75H7.402l.732.712a.75.75 0 0 1-1.046 1.076l-1.003-.976-.031-.03a6 6 0 0 1-.533-.562c-.122-.159-.41-.575-.196-1.078.21-.494.698-.585.895-.612.22-.03.503-.03.781-.03h7.804c3.579 0 6.445-2.817 6.445-6.25a6.1 6.1 0 0 0-1.15-3.563.75.75 0 0 1 .173-1.046M13.75 9.317c0-.81-.946-1.432-1.695-.841l-1.52 1.2a.75.75 0 0 0 .93 1.177l.785-.62v4.768a.75.75 0 0 0 1.5 0z" clip-rule="evenodd"/></svg>