<svg xmlns="http://www.w3.org/2000/svg" fill="none" viewBox="0 0 24 24"><path fill="currentColor" fill-rule="evenodd" d="M18.671 2.336a.75.75 0 0 0-1.342-.671l-1.94 3.88a3.1 3.1 0 0 0-1.38-.337c-1.04-2.612-4.982-2.61-6.019.003-1.917.023-3.476 1.847-3.202 3.756a3.27 3.27 0 0 0-1.97 2.367q-.04.007-.08.017c-.35.076-.714.22-1 .503-.61.603-.55 1.482-.345 2.309.396 1.596 1.167 2.604 2.063 3.44.372.347.772.67 1.16.984l.002.001.189.153c.419.34.83.683 1.23 1.075l-.028.077c-.023.057-.05.117-.083.19l-.004.01a7 7 0 0 0-.098.229 1.8 1.8 0 0 0-.154.677c0 .356.085.69.28.974.193.282.453.457.705.566.47.202 1.015.211 1.36.211h5.97c.345 0 .89-.01 1.36-.211a1.6 1.6 0 0 0 .704-.566c.195-.284.281-.618.28-.974 0-.282-.094-.532-.16-.688-.034-.08-.07-.16-.102-.227l-.004-.01a5 5 0 0 1-.109-.25c.403-.396.817-.74 1.239-1.083l.19-.154a21 21 0 0 0 1.16-.984c.896-.836 1.667-1.844 2.063-3.44.206-.827.266-1.706-.344-2.31-.287-.283-.65-.426-1.001-.502l-.08-.017a3.26 3.26 0 0 0-1.433-2.06l4.828-5.794a.75.75 0 1 0-1.152-.96l-4.3 5.16a3.4 3.4 0 0 0-.579-1.164.8.8 0 0 0 .126-.18zM4.415 11.25h13.16c-.398-.81-1.41-1.251-2.273-.871a.75.75 0 0 1-.604-1.373 3.1 3.1 0 0 1 1.028-.258c.152-1.137-.92-2.26-2.103-1.999a.75.75 0 0 1-.9-.601c-.292-1.646-2.497-1.838-3.236-.578.44.228.82.553 1.114.947a.75.75 0 0 1-1.202.897 1.75 1.75 0 0 0-1.022-.665C7.063 6.46 5.837 7.92 6.4 9.196a.75.75 0 0 1-.6 1.048 1.75 1.75 0 0 0-1.386 1.006m-1.566 2.552c-.09-.365-.109-.598-.096-.741a.4.4 0 0 1 .025-.118l.015-.023c.01-.01.07-.061.266-.104.197-.043.472-.066.852-.066h14.177c.38 0 .655.023.852.066s.256.094.267.104l.014.023a.4.4 0 0 1 .025.118c.013.143-.005.376-.095.74-.31 1.247-.89 2.013-1.631 2.705-.33.308-.683.594-1.073.909l-.2.161c-.46.375-.958.787-1.449 1.281-.268.27-.374.598-.368.915.005.28.096.527.164.692.036.087.076.172.108.242.035.074.061.131.084.186.03.072.04.108.043.119v.002a.4.4 0 0 1-.01.095l-.002.003-.002.007-.002.005-.001.002v.001l-.003.003-.004.003a.3.3 0 0 1-.053.029 1.1 1.1 0 0 1-.304.069q-.21.022-.463.02h-5.97c-.169 0-.323-.004-.463-.02a1.1 1.1 0 0 1-.304-.07.3.3 0 0 1-.054-.028l-.006-.006-.002-.003-.005-.015a.4.4 0 0 1-.011-.096v-.003c.004-.012.014-.05.044-.125.023-.056.049-.115.083-.19.03-.07.069-.156.104-.243.11-.276.381-1.01-.2-1.594a18 18 0 0 0-1.45-1.28l-.198-.162c-.39-.315-.744-.601-1.074-.909-.74-.692-1.32-1.458-1.63-2.704" clip-rule="evenodd"/></svg>