<svg xmlns="http://www.w3.org/2000/svg" fill="none" viewBox="0 0 24 24"><path fill="currentColor" fill-rule="evenodd" d="M8.75 6.04c0-1.824 1.462-3.29 3.25-3.29s3.25 1.466 3.25 3.29c0 1.033-.386 1.83-1.247 2.593-.685.607-1.446 1.55-1.998 2.35-.551-.827-1.332-1.751-2.008-2.35C9.136 7.87 8.75 7.073 8.75 6.04M12 1.25c-2.63 0-4.75 2.152-4.75 4.79 0 1.52.614 2.707 1.753 3.716.644.57 1.451 1.55 1.928 2.332.192.314.542.662 1.062.662.512 0 .865-.338 1.063-.642.52-.795 1.306-1.789 1.941-2.352 1.139-1.009 1.753-2.197 1.753-3.716 0-2.638-2.12-4.79-4.75-4.79m-6.5 13a.75.75 0 0 0 0 1.5h2a.75.75 0 0 0 0-1.5zm5.5 0a.75.75 0 0 0 0 1.5h2a.75.75 0 0 0 0-1.5zm5.5 0a.75.75 0 0 0 0 1.5h2a.75.75 0 0 0 0-1.5zM11 6a1 1 0 0 1 1-1h.009a1 1 0 1 1 0 2H12a1 1 0 0 1-1-1M5.736 7.858a.75.75 0 0 0-.878-.594c-.86.166-1.584.46-2.185.993-.763.678-1.106 1.548-1.268 2.617-.155 1.024-.155 2.328-.155 3.952v.124c0 1.624 0 2.928.155 3.952.162 1.069.505 1.939 1.268 2.617.75.667 1.691.957 2.849 1.096 1.134.135 2.585.135 4.427.135h4.102c1.842 0 3.293 0 4.427-.136 1.158-.138 2.098-.428 2.849-1.095.763-.678 1.106-1.548 1.268-2.617.155-1.024.155-2.328.155-3.952v-.124c0-1.624 0-2.928-.155-3.952-.162-1.069-.505-1.939-1.268-2.617-.6-.534-1.324-.827-2.185-.993a.75.75 0 1 0-.284 1.472c.688.134 1.133.341 1.472.642.409.363.65.852.782 1.72.136.9.138 2.09.138 3.79s-.002 2.89-.138 3.79c-.131.868-.373 1.357-.782 1.72-.421.375-1.009.605-2.03.727-1.034.124-2.395.125-4.3.125h-4c-1.905 0-3.266-.001-4.3-.125-1.021-.122-1.609-.352-2.03-.727-.409-.363-.65-.852-.782-1.72-.136-.9-.138-2.09-.138-3.79s.002-2.89.138-3.79c.131-.868.373-1.357.782-1.72.339-.301.784-.508 1.472-.642a.75.75 0 0 0 .594-.878" clip-rule="evenodd"/></svg>