<svg xmlns="http://www.w3.org/2000/svg" fill="none" viewBox="0 0 24 24"><path fill="currentColor" fill-rule="evenodd" d="M7.73 19.752c-1.15 0-1.732-1.191-2.848-3.476l-.572-1.172c-.226-.462-.506-1.035-.618-1.065-.27-.074-.777.262-1.114.485l-.002.001-.072.047-.087.058a.754.754 0 0 1-1.041-.22.75.75 0 0 1 .22-1.038l.045-.03.103-.067.003-.002c.565-.373 1.416-.935 2.344-.681.768.21 1.087.864 1.57 1.852v.001l.574 1.174c.561 1.149 1.194 2.444 1.509 2.622.26-.249.596-1.587.893-2.772l2.329-9.287c.412-1.643 1.195-1.932 2.69-1.932h8.413c.415 0 .752.336.752.75s-.337.75-.753.75h-8.411c-.375 0-.778.013-.927.106-.102.065-.207.303-.305.69l-2.327 9.278c-.619 2.466-.959 3.819-2.228 3.922a2 2 0 0 1-.14.006m12.432-1.99a6 6 0 0 1-.695-.037l-.046-.006-.044-.011c-.988-.246-1.32-.803-1.519-1.136v-.001l-.065-.116a41 41 0 0 1-.411-.944c-.9 1.193-1.927 2.227-3.217 2.227l-.001-.001q-.1 0-.203-.008a.75.75 0 1 1 .126-1.495c.84.07 1.793-1.177 2.606-2.34a36 36 0 0 0-.874-1.912c-.075-.148-.567-.31-1.296-.231a.75.75 0 1 1-.162-1.491c1.347-.145 2.392.245 2.799 1.042.168.328.362.746.564 1.2.767-1 1.806-2.252 3.342-2.252.415 0 .752.336.752.75s-.337.75-.752.75c-.876 0-1.616.967-2.269 1.821l-.001.002q-.2.263-.39.502l.187.442.002.005c.227.536.424 1.002.547 1.27l.009.015c.138.233.204.344.546.436.328.034.768.016.916.006a.752.752 0 1 1 .107 1.497c-.04.003-.27.018-.56.018z" clip-rule="evenodd"/></svg>