<svg xmlns="http://www.w3.org/2000/svg" fill="none" viewBox="0 0 24 24"><path fill="currentColor" fill-rule="evenodd" d="M16.76 11.256a1.78 1.78 0 0 0 1.24.495v-.001c.469 0 .908-.174 1.239-.492l.375-.352.032-.03c1.693-1.58 4.012-3.745 2.745-6.749-.735-1.721-2.5-2.877-4.39-2.877-1.891 0-3.655 1.156-4.391 2.88-1.257 2.985 1.036 5.138 2.71 6.71l.01.008zm-1.77-6.54c.503-1.175 1.712-1.965 3.01-1.965v.001c1.299 0 2.509.789 3.009 1.962.799 1.894-.426 3.236-2.387 5.066q-.214.198-.418.392l-.004.004a.31.31 0 0 1-.401-.002q-.171-.163-.348-.328l-.104-.099c-1.937-1.819-3.148-3.152-2.356-5.031m2.015 1.285c0 .552.453 1 1.005 1a1 1 0 0 0 0-2H18a.996.996 0 0 0-.995 1M5 22.751a3.754 3.754 0 0 1-3.75-3.75A3.754 3.754 0 0 1 5 15.251a3.754 3.754 0 0 1 3.75 3.75A3.754 3.754 0 0 1 5 22.751m0-6a2.25 2.25 0 0 0-2.25 2.25A2.25 2.25 0 0 0 5 21.251a2.25 2.25 0 0 0 2.25-2.25A2.25 2.25 0 0 0 5 16.751m5.25 2.25c0 .414.336.75.75.75h1.5c2.343 0 4.25-1.682 4.25-3.75s-1.907-3.75-4.25-3.75h-3c-1.516 0-2.75-1.009-2.75-2.25s1.234-2.25 2.75-2.25H11a.75.75 0 0 0 0-1.5H9.5c-2.343 0-4.25 1.682-4.25 3.75s1.907 3.75 4.25 3.75h3c1.516 0 2.75 1.009 2.75 2.25s-1.234 2.25-2.75 2.25H11a.75.75 0 0 0-.75.75" clip-rule="evenodd"/></svg>