<svg xmlns="http://www.w3.org/2000/svg" fill="none" viewBox="0 0 24 24"><path fill="currentColor" fill-rule="evenodd" d="M17.5 3.688c0-.493.422-.938 1-.938s1 .445 1 .938v.937h-2zm1-2.438c1.355 0 2.5 1.066 2.5 2.438v1.061q.113.034.224.083c.62.275 1.097.796 1.342 1.43.106.274.147.555.166.852.018.285.018.633.018 1.05v.047c0 .417 0 .765-.018 1.05-.02.297-.06.578-.166.852a2.57 2.57 0 0 1-1.342 1.43c-.272.12-.551.166-.837.187-.271.02-.6.02-.986.02H17.6c-.386 0-.715 0-.986-.02a2.5 2.5 0 0 1-.837-.187 2.57 2.57 0 0 1-1.342-1.43 2.8 2.8 0 0 1-.166-.852 14 14 0 0 1-.018-.808v-.29c0-.416 0-.764.018-1.05.02-.296.06-.577.166-.851a2.57 2.57 0 0 1 1.342-1.43q.111-.049.224-.083V3.688c0-1.372 1.145-2.438 2.5-2.438m1.2 4.875h-2.4a9 9 0 0 0-.578.016c-.202.015-.288.04-.338.062a1.07 1.07 0 0 0-.551.6c-.028.07-.053.18-.068.406-.01.166-.014.366-.015.63v.697c.001.264.005.464.015.63.014.226.04.335.068.406.11.285.314.494.551.6.05.022.136.047.338.062.21.015.484.016.903.016h1.75c.419 0 .692 0 .903-.016.202-.015.288-.04.338-.062a1.07 1.07 0 0 0 .551-.6c.028-.07.053-.18.068-.406.015-.232.015-.532.015-.979s0-.746-.015-.978c-.014-.226-.04-.335-.068-.406a1.07 1.07 0 0 0-.552-.6c-.049-.022-.135-.047-.337-.062a9 9 0 0 0-.578-.016M11.99 4.25h-.049c-2.317 0-4.122 0-5.527.16-1.426.163-2.555.501-3.452 1.263-1.403 1.191-1.65 2.92-1.712 5.308a.75.75 0 1 0 1.5.038c.062-2.418.34-3.487 1.183-4.203.568-.482 1.352-.767 2.651-.915 1.31-.15 3.03-.151 5.407-.151a.75.75 0 0 0 0-1.5m10.76 9.25a.75.75 0 0 0-1.5 0c0 2.028-.002 3.46-.174 4.546-.166 1.05-.476 1.67-1.027 2.137-.482.41-1.119.677-2.093.839-.988.164-2.258.211-3.969.224h-.058l-.172.002-.765.002a.75.75 0 0 0 0 1.5l.954-.004H14c1.704-.013 3.083-.058 4.2-.244 1.132-.189 2.058-.53 2.819-1.175.915-.777 1.337-1.781 1.538-3.046.192-1.216.192-2.768.192-4.716zM1.982 21a1 1 0 0 1 1-1h.01a1 1 0 1 1 0 2h-.01a1 1 0 0 1-1-1m.063-7.75a.75.75 0 0 0 0 1.5c3.564 0 7.205 3.192 7.205 7.25a.75.75 0 0 0 1.5 0c0-4.942-4.369-8.75-8.705-8.75M2 16.485a.75.75 0 0 0 0 1.5c2.08 0 4.02 1.931 4.02 4.015a.75.75 0 0 0 1.5 0c0-2.916-2.614-5.515-5.52-5.515" clip-rule="evenodd"/></svg>