<svg xmlns="http://www.w3.org/2000/svg" fill="none" viewBox="0 0 24 24"><path fill="currentColor" fill-rule="evenodd" d="M20.066 3.934c-1.708-1.707-4.486-1.54-5.927.32L12.886 5.87c-.138.178-.15.321-.127.432a.7.7 0 0 0 .26.39.68.68 0 0 0 .438.156c.11-.006.249-.051.391-.234l.375-.48c.962-1.233 2.792-1.373 3.904-.261s.972 2.942-.261 3.904l-.48.375c-.183.142-.228.28-.234.391a.68.68 0 0 0 .156.438.7.7 0 0 0 .39.26c.11.022.254.011.432-.127l1.617-1.253c1.86-1.44 2.026-4.219.319-5.927m-7.113-.6c2.009-2.592 5.844-2.79 8.173-.46 2.33 2.33 2.132 6.164-.46 8.173L19.049 12.3c-.513.398-1.098.522-1.646.412l-.063-.014-10.26 8.87a.8.8 0 0 1-.167.109 3.25 3.25 0 1 1-4.59-4.59.8.8 0 0 1 .11-.167l8.87-10.26-.015-.063c-.11-.548.014-1.133.412-1.646zm-.772 4.604-7.215 8.345a3.25 3.25 0 0 1 2.75 2.751l8.346-7.215a2.16 2.16 0 0 1-.408-1.352c.029-.561.296-1.097.809-1.498l.48-.374c.541-.423.582-1.204.124-1.662s-1.24-.417-1.662.124l-.374.48c-.401.513-.937.78-1.498.809a2.16 2.16 0 0 1-1.352-.408M4.5 17.75a1.75 1.75 0 1 0 0 3.5 1.75 1.75 0 0 0 0-3.5" clip-rule="evenodd"/></svg>