<svg xmlns="http://www.w3.org/2000/svg" fill="none" viewBox="0 0 24 24"><path fill="currentColor" fill-rule="evenodd" d="M11.915 1.689c1.821.639 3.833 1.95 5.64 3.756 1.806 1.807 3.117 3.819 3.756 5.64.62 1.764.685 3.617-.473 4.776a9.8 9.8 0 0 1-4.101 2.467c.335.507.608.962.782 1.37.266.625.375 1.326-.07 1.974-.454.66-1.224.879-2.02.978-.725.09-1.671.099-2.83.1H7.796c-1.341 0-2.42 0-3.225-.1-.796-.099-1.566-.319-2.02-.978-.49-.716-.308-1.487.014-2.16.312-.65.865-1.443 1.53-2.395l.04-.058 1.738-2.489.044-.057c-2.59-3.796-2.148-8.981 1.221-12.35 1.159-1.16 3.012-1.093 4.776-.474M6.896 15.725l-1.53 2.192c-.715 1.026-1.195 1.717-1.447 2.243-.22.462-.172.596-.14.647l.01.015c.064.093.247.25.968.34.593.073 1.39.085 2.475.087h5.537c1.085-.002 1.881-.014 2.475-.088.721-.09.904-.246.968-.34.03-.042.096-.137-.073-.536-.167-.39-.489-.897-.983-1.616a9.62 9.62 0 0 1-8.26-2.944M6.38 5.938c-1.233 2.975-.656 6.498 1.765 8.918s5.943 2.998 8.918 1.765a9 9 0 0 1-1-.287c-1.821-.638-3.834-1.95-5.64-3.756-1.807-1.806-3.118-3.819-3.757-5.64a9 9 0 0 1-.286-1m5.04-2.834c-1.622-.569-2.701-.4-3.22.119-.518.518-.687 1.597-.118 3.22.49 1.398 1.476 3.006 2.882 4.533L13.47 8.47a.75.75 0 0 1 1.06 1.06l-2.506 2.508c1.527 1.405 3.135 2.391 4.534 2.882 1.622.57 2.7.4 3.219-.119.518-.518.688-1.597.119-3.219-.55-1.565-1.719-3.392-3.402-5.075s-3.51-2.853-5.075-3.402" clip-rule="evenodd"/></svg>