<svg xmlns="http://www.w3.org/2000/svg" fill="none" viewBox="0 0 24 24"><path fill="currentColor" fill-rule="evenodd" d="M19 1.25h-.045c-.433 0-.83 0-1.152.043-.356.048-.731.16-1.04.47s-.422.684-.47 1.04a8 8 0 0 0-.043.947H11a.75.75 0 0 0 0 1.5h5.25c.001.353.007.676.043.947.048.356.16.731.47 1.04s.684.422 1.04.47c.323.043.72.043 1.152.043h1.09c.433 0 .83 0 1.152-.043.356-.048.731-.16 1.04-.47s.422-.684.47-1.04c.043-.323.043-.72.043-1.152v-1.09c0-.433 0-.83-.043-1.152-.048-.356-.16-.731-.47-1.04s-.684-.422-1.04-.47c-.323-.043-.72-.043-1.152-.043zm-1.174 1.572-.003.001-.001.003-.005.01a.7.7 0 0 0-.037.167c-.028.21-.03.504-.03.997v1c0 .493.002.787.03.997a.7.7 0 0 0 .042.177l.001.003.003.001.01.005c.022.009.07.024.167.037.21.028.504.03.997.03h1c.493 0 .787-.002.997-.03a.7.7 0 0 0 .167-.037l.006-.003.004-.002.003-.001.001-.003.002-.003.003-.007a.7.7 0 0 0 .037-.167c.028-.21.03-.504.03-.997V4c0-.493-.002-.787-.03-.997a.7.7 0 0 0-.042-.177l-.001-.003-.003-.001-.01-.005a.7.7 0 0 0-.167-.037c-.21-.028-.504-.03-.997-.03h-1c-.493 0-.787.002-.997.03a.7.7 0 0 0-.177.042M11.5 8.75h-.045c-.433 0-.83 0-1.152.043-.356.048-.731.16-1.04.47s-.422.684-.47 1.04c-.043.323-.043.72-.043 1.152v1.09c0 .432 0 .83.043 1.152.048.356.16.731.47 1.04s.684.422 1.04.47c.323.043.72.043 1.152.043h1.09c.433 0 .83 0 1.152-.043.123-.017.248-.04.371-.078l.902.901a.75.75 0 1 0 1.06-1.06l-.901-.902q.054-.186.078-.37c.043-.324.043-.72.043-1.153v-1.09c0-.433 0-.83-.043-1.152-.048-.356-.16-.731-.47-1.04s-.684-.422-1.04-.47c-.323-.043-.72-.043-1.152-.043zm-1.174 1.572-.003.001-.001.003-.005.01a.7.7 0 0 0-.037.167c-.028.21-.03.504-.03.997v1c0 .493.002.787.03.997a.7.7 0 0 0 .037.167l.003.006.002.004.001.003.003.001.01.005c.022.009.07.024.167.037.21.028.504.03.997.03h1c.493 0 .787-.002.997-.03a.7.7 0 0 0 .177-.042l.003-.001.001-.003.005-.01a.7.7 0 0 0 .037-.167c.028-.21.03-.504.03-.997v-1c0-.493-.002-.787-.03-.997a.7.7 0 0 0-.042-.177l-.001-.003-.003-.001-.01-.005a.7.7 0 0 0-.167-.037c-.21-.028-.504-.03-.997-.03h-1c-.493 0-.787.002-.997.03a.7.7 0 0 0-.177.042m9.924 5.928V11a.75.75 0 0 0-1.5 0v5.25a8 8 0 0 0-.947.043c-.356.048-.731.16-1.04.47s-.422.684-.47 1.04c-.043.323-.043.72-.043 1.152v1.09c0 .432 0 .83.043 1.152.048.356.16.731.47 1.04s.684.422 1.04.47c.323.043.72.043 1.152.043h1.09c.433 0 .83 0 1.152-.043.356-.048.731-.16 1.04-.47s.422-.684.47-1.04c.043-.323.043-.72.043-1.152v-1.09c0-.433 0-.83-.043-1.152-.048-.356-.16-.731-.47-1.04s-.684-.422-1.04-.47a8 8 0 0 0-.947-.043m-.756 1.5H20c.493 0 .787.002.997.03a.7.7 0 0 1 .167.037l.006.003.004.002.003.001.001.003.002.005.003.005c.009.022.024.07.037.167.028.21.03.504.03.997v1c0 .493-.002.787-.03.997a.7.7 0 0 1-.042.177l-.001.003-.003.001-.01.005a.7.7 0 0 1-.167.037c-.21.028-.504.03-.997.03h-1c-.493 0-.787-.002-.997-.03a.7.7 0 0 1-.177-.042l-.003-.001-.001-.003-.005-.01a.7.7 0 0 1-.037-.167c-.028-.21-.03-.504-.03-.997v-1c0-.493.002-.787.03-.997a.7.7 0 0 1 .037-.167l.005-.01.001-.003.003-.001.01-.005a.7.7 0 0 1 .167-.037c.21-.028.504-.03.997-.03zM4 16.25h-.045c-.433 0-.83 0-1.152.043-.356.048-.731.16-1.04.47s-.422.684-.47 1.04c-.043.323-.043.72-.043 1.152v1.09c0 .432 0 .83.043 1.152.048.356.16.731.47 1.04s.684.422 1.04.47c.323.043.72.043 1.152.043h1.09c.433 0 .83 0 1.152-.043.356-.048.731-.16 1.04-.47s.422-.684.47-1.04c.043-.323.043-.72.043-1.152v-1.09c0-.433 0-.83-.043-1.152-.048-.356-.16-.731-.47-1.04s-.684-.422-1.04-.47c-.323-.043-.72-.043-1.152-.043zm-1.174 1.572-.003.001-.001.003-.005.01a.7.7 0 0 0-.037.167c-.028.21-.03.504-.03.997v1c0 .493.002.787.03.997a.7.7 0 0 0 .042.177l.001.003.003.001.01.005c.022.009.07.024.167.037.21.028.504.03.997.03h1c.493 0 .787-.002.997-.03a.7.7 0 0 0 .177-.042l.003-.001.001-.003.002-.004.003-.006a.7.7 0 0 0 .037-.167c.028-.21.03-.504.03-.997v-1c0-.493-.002-.787-.03-.997a.7.7 0 0 0-.042-.177l-.001-.003-.003-.001-.01-.005a.7.7 0 0 0-.167-.037c-.21-.028-.504-.03-.997-.03H4c-.493 0-.787.002-.997.03a.7.7 0 0 0-.177.042M3.956 1.25h1.089c.433 0 .83 0 1.152.043.356.048.731.16 1.04.47s.422.684.47 1.04c.043.323.043.72.043 1.152v1.09c0 .433 0 .83-.043 1.152-.048.356-.16.731-.47 1.04s-.684.422-1.04.47a8 8 0 0 1-.947.043V13a.75.75 0 0 1-1.5 0V7.75a8 8 0 0 1-.947-.043c-.356-.048-.731-.16-1.04-.47s-.422-.684-.47-1.04c-.043-.323-.043-.72-.043-1.152v-1.09c0-.433 0-.83.043-1.152.048-.356.16-.731.47-1.04s.684-.422 1.04-.47c.323-.043.72-.043 1.152-.043M2.822 2.823l.003-.001.01-.005a.7.7 0 0 1 .167-.037c.21-.028.504-.03.997-.03h1c.493 0 .787.002.997.03a.7.7 0 0 1 .177.042l.003.001.001.003.005.01c.009.022.024.07.037.167.028.21.03.504.03.997v1c0 .493-.002.787-.03.997a.7.7 0 0 1-.042.177l-.001.003-.003.001-.01.005a.7.7 0 0 1-.167.037c-.21.028-.504.03-.997.03H4c-.493 0-.787-.002-.997-.03a.7.7 0 0 1-.177-.042l-.003-.001-.001-.003-.005-.01a.7.7 0 0 1-.037-.167c-.028-.21-.03-.504-.03-.997V4c0-.493.002-.787.03-.997a.7.7 0 0 1 .042-.177z" clip-rule="evenodd"/></svg>