<svg xmlns="http://www.w3.org/2000/svg" fill="none" viewBox="0 0 24 24"><path fill="currentColor" fill-rule="evenodd" d="M11.54 1.25h3.919c.239 0 .488 0 .695.028.236.032.546.116.792.387.25.275.3.594.304.837.003.207-.029.452-.058.68l-.005.038-.056.436c-.067.519-.125.971-.216 1.336-.097.392-.25.765-.56 1.076a2.3 2.3 0 0 1-.445.348l2.24 10.513c.1.468.157.93.015 1.393-.141.461-.447.812-.788 1.146l-2.62 2.562-.025.024c-.15.148-.312.306-.466.42-.181.136-.434.276-.766.276s-.585-.14-.766-.275c-.154-.115-.316-.274-.466-.42l-.025-.025-2.62-2.562c-.341-.334-.647-.685-.788-1.146-.142-.464-.084-.925.015-1.393l.05-.233q-.196.052-.4.053c-.398 0-.718-.227-.899-.375a4 4 0 0 1-.599-.632 7.6 7.6 0 0 1-.933-1.547l-.031-.072c-.152-.344-.315-.714-.284-1.165.031-.453.245-.796.444-1.114l.041-.067c.713-1.15 1.666-2.234 2.592-3.252l.397-.436a47 47 0 0 0 1.623-1.836 2 2 0 0 1-.206-.185c-.31-.311-.463-.684-.56-1.076-.091-.365-.15-.817-.216-1.336l-.005-.041-.051-.395-.005-.038a5 5 0 0 1-.058-.68c.004-.243.054-.562.304-.837.246-.271.556-.355.792-.387.207-.028.456-.028.695-.028m-.966 7.59-.246.27q-.196.213-.387.424c-.928 1.02-1.794 2.013-2.427 3.033-.126.204-.19.31-.23.393a.3.3 0 0 0-.034.101.3.3 0 0 0 .02.108 6.1 6.1 0 0 0 .912 1.646c.144.184.273.319.372.4l.016.013a1 1 0 0 0 .185-.099c.157-.102.356-.269.59-.524zm2.966-2.09c.33 0 .633 0 .905-.01l2.238 10.502c.088.415.073.56.048.64-.026.083-.096.213-.403.513l-2.62 2.562c-.084.083-.15.147-.208.201l-.208-.2-2.62-2.563c-.307-.3-.378-.43-.403-.513-.025-.08-.04-.225.048-.64L12.555 6.74c.272.01.575.01.906.01zm-2.274-3.998.035.276.05.396c.074.571.122.936.19 1.205.062.252.122.336.17.384a1 1 0 0 0 .095.081c.058.043.16.093.432.123.288.032.67.033 1.262.033.591 0 .974-.001 1.262-.033.272-.03.374-.08.432-.123a1 1 0 0 0 .096-.081c.047-.048.107-.132.17-.384.067-.27.115-.634.188-1.205l.051-.396c.014-.11.026-.199.034-.276l-.311-.002h-3.844c-.125 0-.225 0-.312.002m-2.63 12.522-.004-.003z" clip-rule="evenodd"/></svg>