<svg xmlns="http://www.w3.org/2000/svg" fill="none" viewBox="0 0 24 24"><path fill="currentColor" fill-rule="evenodd" d="M16.489 1.403c1.172.157 2.121.49 2.87 1.238.748.748 1.08 1.697 1.238 2.87.13.963.15 2.154.152 3.61v4.722c-.004 1.01-.022 1.855-.115 2.548-.122.9-.38 1.658-.982 2.26-.4.4-.869.648-1.402.805V22a.75.75 0 0 1-1.5 0v-2.302c-.657.046-1.424.052-2.308.052H9.945c-1.05 0-1.944 0-2.695-.052V22a.75.75 0 0 1-1.5 0v-2.543c-.533-.157-1.002-.405-1.402-.805-.602-.602-.86-1.36-.981-2.26-.117-.867-.117-1.97-.117-3.337V9.943c0-1.838 0-3.293.153-4.433.158-1.172.49-2.12 1.238-2.87.749-.748 1.698-1.08 2.87-1.237.964-.13 2.154-.15 3.611-.153h1.756c1.457.003 2.647.023 3.611.153m2.76 12.346H4.751c.003 1.046.02 1.826.102 2.442.099.734.28 1.123.556 1.4.277.276.665.457 1.4.555.696.094 1.603.103 2.867.103H14c1.435 0 2.436-.001 3.192-.103.734-.098 1.122-.279 1.399-.556.277-.276.457-.665.556-1.399.083-.616.099-1.396.102-2.442m-7.999-8H4.885c-.116.887-.132 2.015-.135 3.526v2.974h6.5zm7.865 0H12.75v6.5h6.5V10c0-1.882-.002-3.227-.135-4.25m-6.381-3h-1.468c-1.528.003-2.665.02-3.555.14-1.006.135-1.586.39-2.01.812-.156.157-.29.335-.402.548h13.402a2.3 2.3 0 0 0-.403-.548c-.423-.423-1.003-.677-2.009-.812-.89-.12-2.027-.137-3.555-.14M7 15.25a.75.75 0 0 0 0 1.5h1a.75.75 0 0 0 0-1.5zm8.25.75a.75.75 0 0 1 .75-.75h1a.75.75 0 0 1 0 1.5h-1a.75.75 0 0 1-.75-.75M2.75 8a.75.75 0 0 0-1.5 0v2a.75.75 0 0 0 1.5 0zM22 7.25a.75.75 0 0 1 .75.75v2a.75.75 0 0 1-1.5 0V8a.75.75 0 0 1 .75-.75" clip-rule="evenodd"/></svg>