<svg xmlns="http://www.w3.org/2000/svg" fill="none" viewBox="0 0 24 24"><path fill="currentColor" fill-rule="evenodd" d="M13.288 18.75H6.646a2.756 2.756 0 0 1-2.646 2A2.754 2.754 0 0 1 1.25 18a2.754 2.754 0 0 1 2.71-2.75l12.077-.974a6.8 6.8 0 0 1 2.625-1.707l.025-.01c.13-.045.265-.094.372-.135l-.083-.305-1.53-5.51c-.216-.777-.334-1.201-.502-1.406a1.24 1.24 0 0 0-.456-.345c-.243-.108-.684-.108-1.487-.108a.75.75 0 0 1 0-1.5c1.008 0 1.565 0 2.098.238.387.173.734.436 1.002.762.37.45.52.983.788 1.948v.004l1.532 5.515c.163.584.282 1.007.053 1.444-.223.434-.653.587-1.305.82l-.005.001a5.25 5.25 0 0 0-2.985 2.705c-.492 1.044-.715 1.517-1.142 1.789-.43.272-.898.272-1.747.272zm0-1.5H6.646a2.7 2.7 0 0 0-.302-.687l8.564-.691v.002q-.047.092-.09.184c-.247.522-.48 1.016-.597 1.155-.13.037-.538.037-.933.037M2.75 18c0-.689.561-1.25 1.25-1.25s1.25.561 1.25 1.25-.561 1.25-1.25 1.25-1.25-.561-1.25-1.25m14.5 0A2.754 2.754 0 0 0 20 20.75 2.754 2.754 0 0 0 22.75 18 2.754 2.754 0 0 0 20 15.25 2.754 2.754 0 0 0 17.25 18m1.5 0c0-.689.561-1.25 1.25-1.25s1.25.561 1.25 1.25-.561 1.25-1.25 1.25-1.25-.561-1.25-1.25m-9.092-5.46a.75.75 0 0 0 1.06-.02l1.73-1.798c.271-.282.37-.69.254-1.063a1.09 1.09 0 0 0-.817-.744l-.816-.173.988-1.284a.75.75 0 1 0-1.189-.915L9.475 8.355c-.227.296-.287.68-.159 1.029.13.352.428.609.798.688l.728.155-1.205 1.254a.75.75 0 0 0 .021 1.06" clip-rule="evenodd"/></svg>