<svg xmlns="http://www.w3.org/2000/svg" fill="none" viewBox="0 0 24 24"><path fill="currentColor" fill-rule="evenodd" d="M11.999 1.25c-1.681 0-3.048.568-4.24 1.186-.36.186-.695.37-1.015.547-.782.432-1.476.814-2.237 1.057l-.026.009a20 20 0 0 0-1.099.37c-.264.104-.579.246-.801.494-.2.223-.304.472-.372.712-.062.216-.11.48-.16.761l-.006.031.738.133-.738-.133c-1.237 6.866 1.47 13.37 8.08 15.9l.033.014c.65.248 1.095.419 1.846.419s1.197-.17 1.847-.42l.033-.012-.269-.7.269.7c6.61-2.531 9.314-9.035 8.076-15.901l-.006-.03a8 8 0 0 0-.16-.763 1.74 1.74 0 0 0-.371-.711c-.223-.248-.537-.39-.802-.494-.28-.11-.652-.228-1.099-.37l-.025-.009c-.762-.243-1.456-.625-2.24-1.057-.32-.176-.654-.36-1.015-.547C15.048 1.818 13.68 1.25 12 1.25M4.963 5.47c.911-.292 1.8-.782 2.63-1.24.293-.161.579-.32.856-.463 1.111-.575 2.223-1.017 3.55-1.017s2.44.442 3.552 1.018c.277.143.563.3.856.462.83.458 1.72.949 2.632 1.24l.228-.715-.228.715c.479.152.803.256 1.033.346.151.06.217.097.239.11a1 1 0 0 1 .039.11c.039.136.073.324.132.647 1.14 6.326-1.349 12.018-7.137 14.234-.664.254-.882.333-1.343.333s-.678-.079-1.343-.333C4.871 18.701 2.38 13.01 3.52 6.683c.059-.323.094-.51.133-.647a1 1 0 0 1 .039-.11 2 2 0 0 1 .238-.11c.23-.09.554-.194 1.034-.347m15.34.442.002.003zm-16.607.003.002-.002zM9.5 8.758v.998a2.5 2.5 0 0 0-1.63 1.702c-.048.192-.074.45-.09.694-.016.26-.026.559-.029.86-.006.596.012 1.243.052 1.643l.006.06.015.058c.325 1.219 1.184 1.767 2.003 1.934l.042.008.042.004c.486.043 2.194.037 3.108.034h.002l.43-.001c.567.01 1.152-.09 1.657-.423.52-.344.864-.874 1.052-1.548l.01-.039.007-.039c.041-.248.07-.89.074-1.498.002-.317-.003-.648-.018-.943a4.6 4.6 0 0 0-.098-.804l-.007-.027-.009-.027c-.31-.934-.957-1.428-1.603-1.641V8.758a2.508 2.508 0 0 0-5.016 0m2.508-1.008c-.557 0-1.008.451-1.008 1.008v.872h2.016v-.872c0-.557-.451-1.008-1.008-1.008m-1.67 3.38c-.655 0-.955.46-1.013.692a3 3 0 0 0-.048.427c-.014.224-.023.495-.026.779-.005.538.01 1.084.039 1.414.085.284.211.453.335.56q.192.164.462.226c.464.033 1.957.028 2.863.025l.507-.001h.014c.39.007.643-.065.81-.175.15-.099.309-.279.42-.654.02-.162.046-.654.05-1.228a15 15 0 0 0-.016-.854 4 4 0 0 0-.05-.495c-.196-.553-.63-.716-.988-.716z" clip-rule="evenodd"/></svg>