<svg xmlns="http://www.w3.org/2000/svg" fill="none" viewBox="0 0 24 24"><path fill="currentColor" fill-rule="evenodd" d="M11.997 4.28c-.21-.028-.504-.03-.997-.03a.75.75 0 0 1 0-1.5h.045c.433 0 .83 0 1.152.043.356.048.731.16 1.04.47s.422.684.47 1.04q.027.206.035.447h2.283c.445 0 .816 0 1.12.02.317.022.617.07.907.19a2.75 2.75 0 0 1 1.489 1.488c.12.29.167.59.188.907.021.304.021.675.021 1.12v4.28q.214.003.395.016c.317.021.617.068.907.188a2.75 2.75 0 0 1 1.489 1.489c.12.29.167.59.188.907.021.304.021.675.021 1.12v.07c0 .433 0 .83-.043 1.152-.048.356-.16.731-.47 1.04s-.684.422-1.04.47c-.297.04-.657.043-1.05.043a2.751 2.751 0 0 1-5.293 0H8.646a2.751 2.751 0 0 1-5.294-.005 5 5 0 0 1-.55-.038c-.355-.048-.73-.16-1.04-.47-.308-.309-.42-.684-.469-1.04-.043-.323-.043-.72-.043-1.152v-1.09c0-.433 0-.83.043-1.152.048-.356.16-.731.47-1.04s.684-.422 1.04-.47c.323-.043.72-.043 1.152-.043h8.295V5.5c0-.493-.002-.787-.03-.997a.7.7 0 0 0-.042-.177l-.001-.003-.003-.001-.01-.005a.7.7 0 0 0-.167-.037m1.753 13.47h1.104a2.751 2.751 0 0 1 5.293 0c.406 0 .661-.005.85-.03a.7.7 0 0 0 .177-.042l.003-.001.001-.003.005-.01a.7.7 0 0 0 .037-.167c.028-.21.03-.504.03-.997 0-.476 0-.796-.017-1.043-.017-.241-.046-.358-.078-.435a1.25 1.25 0 0 0-.677-.677c-.077-.032-.194-.061-.435-.078A17 17 0 0 0 19 14.25h-1.045c-.433 0-.83 0-1.152-.043-.356-.048-.731-.16-1.04-.47s-.422-.684-.47-1.04c-.043-.323-.043-.72-.043-1.152V9.25h-1.5zm0-10h4.495a7 7 0 0 0-.012-.293c-.017-.241-.046-.358-.078-.435a1.25 1.25 0 0 0-.677-.677c-.077-.032-.194-.061-.435-.078A17 17 0 0 0 16 6.25h-2.25zm4.5 1.5h-1.5v2.25c0 .493.002.787.03.997a.7.7 0 0 0 .042.177l.001.003.003.001.005.003.005.002c.022.009.07.024.167.037.21.028.504.03.997.03h.25zm-6 8.5v-3.5H4c-.493 0-.787.002-.997.03a.7.7 0 0 0-.177.042l-.003.001-.001.003-.005.01a.7.7 0 0 0-.037.167c-.028.21-.03.504-.03.997v1c0 .493.002.787.03.997a.7.7 0 0 0 .042.177l.001.003.003.001.01.005c.022.009.07.024.167.037.096.013.21.02.352.025a2.751 2.751 0 0 1 5.291.005zM6 17.25a1.25 1.25 0 1 0 0 2.5 1.25 1.25 0 0 0 0-2.5m11.5 0a1.25 1.25 0 1 0 0 2.5 1.25 1.25 0 0 0 0-2.5" clip-rule="evenodd"/></svg>