<svg xmlns="http://www.w3.org/2000/svg" fill="none" viewBox="0 0 24 24"><path fill="currentColor" fill-rule="evenodd" d="M8.572 21.264c-.331 0-.605-.154-.94-.343l-.003-.002-1.982-1.115c-.598-.304-.901-.688-.901-1.142q0-.414.183-1.039c.398-1.55-.556-3.144-2.129-3.555h-.002c-.644-.173-1.032-.277-1.291-.62-.257-.332-.257-.712-.257-1.235v-1.92c0-.54 0-.896.249-1.234l.016-.022c.257-.324.62-.422 1.279-.599 1.572-.427 2.532-2.014 2.137-3.537-.175-.672-.272-1.045-.105-1.432.17-.402.519-.596.959-.84l.002-.002 1.765-1.003.007-.004c.422-.238.73-.41 1.131-.362l.043.006c.41.074.696.361 1.128.796l.004.004a3 3 0 0 0 2.134.873c.813 0 1.572-.31 2.136-.875l.004-.004c.43-.432.715-.72 1.127-.794l.043-.006c.404-.049.712.125 1.138.366l1.772 1.007c.435.241.785.435.954.838.168.389.07.761-.105 1.432l-.001.002c-.396 1.526.564 3.118 2.139 3.546h.002c.637.172 1.025.276 1.284.62.256.334.256.801.256 1.444a.75.75 0 0 1-1.5 0c0-.142 0-.344-.007-.497a13 13 0 0 0-.426-.118c-2.367-.643-3.801-3.053-3.2-5.373l.005-.02c.038-.144.08-.305.108-.428l-.18-.102-.063-.036-1.776-1.009-.07-.04-.132-.073c-.101.094-.227.221-.309.304a4.5 4.5 0 0 1-3.199 1.317 4.5 4.5 0 0 1-3.197-1.315c-.083-.084-.21-.212-.311-.306l-.156.087-.045.026-.046.026-1.723.98-.055.03-.195.111c.029.128.073.3.112.447.6 2.315-.835 4.721-3.198 5.363a19 19 0 0 0-.434.12c-.002.084-.002.185-.002.28v1.933c0 .095 0 .195.002.28.111.033.263.074.413.114l.019.005c2.372.62 3.807 3.04 3.194 5.393l-.006.023a4 4 0 0 0-.099.404l.063.033.032.017 2.001 1.126.062.035.062.035c.084-.077.179-.168.254-.24l.016-.015c.105-.1.213-.204.321-.302a.75.75 0 1 1 1.009 1.11c-.101.092-.203.189-.302.282l-.008.008c-.431.412-.691.66-1.034.722l-.043.006q-.068.008-.133.008m1.088-6.597a.74.74 0 0 1-.53-.22c-.954-.953-1.36-1.913-1.36-3.21 0-1.122.453-2.178 1.275-2.975a4.3 4.3 0 0 1 2.91-1.215 4.37 4.37 0 0 1 3.533 1.81.75.75 0 1 1-1.216.879c-.797-1.103-1.969-1.19-2.309-1.19-1.455.017-2.693 1.249-2.693 2.69 0 .909.24 1.47.92 2.15a.75.75 0 0 1-.53 1.282zM11.25 17A5.756 5.756 0 0 0 17 22.75 5.756 5.756 0 0 0 22.75 17 5.756 5.756 0 0 0 17 11.25 5.756 5.756 0 0 0 11.25 17m1.5 0A4.255 4.255 0 0 1 17 12.75 4.255 4.255 0 0 1 21.25 17 4.255 4.255 0 0 1 17 21.25 4.255 4.255 0 0 1 12.75 17M17 19.75h.008a.746.746 0 0 0 .746-.75c0-.414-.34-.75-.754-.75a.75.75 0 0 0 0 1.5M16.25 17a.75.75 0 0 0 1.5 0v-2a.75.75 0 0 0-1.5 0z" clip-rule="evenodd"/></svg>