<svg xmlns="http://www.w3.org/2000/svg" fill="none" viewBox="0 0 24 24"><path fill="currentColor" fill-rule="evenodd" d="M9.43 2.825a2.45 2.45 0 0 1 3.142-.012 2.573 2.573 0 0 1 .333 3.62l-.822.986.095.006c.448.029.845.09 1.216.24a3.81 3.81 0 0 1 2.279 2.714c.087.392.087.797.049 1.254-.038.447-.118.996-.218 1.682l-.003.024-.005.026-.597 3.286h4.351c1.4 0 2.5 1.161 2.5 2.55s-1.1 2.549-2.5 2.549h-8.234c-1.395 0-2.49 0-3.369-.075-.896-.077-1.637-.235-2.306-.593a5.8 5.8 0 0 1-2.447-2.516c-.344-.68-.497-1.434-.571-2.351-.073-.902-.073-2.026-.073-3.462v-.178c0-1.418 0-2.322.302-3.15q.141-.381.341-.736c.435-.766 1.122-1.34 2.191-2.233l.11-.092zm2.19 1.145a.95.95 0 0 0-1.226.005l-4.237 3.54C4.938 8.532 4.482 8.927 4.198 9.428a3.4 3.4 0 0 0-.237.512c-.2.547-.211 1.166-.211 2.778 0 1.477 0 2.54.068 3.375.067.826.195 1.362.415 1.796a4.3 4.3 0 0 0 1.815 1.87c.415.221.928.352 1.727.42.808.07 1.839.07 3.276.07h8.199c.533 0 1-.45 1-1.05 0-.599-.467-1.049-1-1.049H14a.75.75 0 0 1-.738-.884l.756-4.157c.103-.709.176-1.209.209-1.603.033-.392.021-.624-.018-.802a2.31 2.31 0 0 0-1.376-1.65c-.158-.063-.373-.109-.752-.133a27 27 0 0 0-1.581-.025.75.75 0 0 1-.576-1.23l1.829-2.195a1.073 1.073 0 0 0-.134-1.5" clip-rule="evenodd"/></svg>