<svg xmlns="http://www.w3.org/2000/svg" fill="none" viewBox="0 0 24 24"><path fill="currentColor" fill-rule="evenodd" d="M11.996 1.25h.015c1.363 0 2.546 0 3.568.037h.013q.29.01.487.022c.126.009.277.024.423.067.256.077.545.193.782.438.236.245.342.539.41.797.042.165.048.381.052.551q.005.304.004.828V4A3.25 3.25 0 0 0 21 7.25c.771 0 1.699.55 1.726 1.566.024.929.024 1.983.024 3.176v.012c0 .913 0 1.744-.01 2.498l-.001.01q-.004.305-.01.497a2 2 0 0 1-.044.395c-.066.278-.173.61-.442.876-.268.265-.603.366-.881.428a3 3 0 0 1-.518.039q-.302.004-.836.003H20A3.25 3.25 0 0 0 16.75 20v.008q0 .534-.003.836a3 3 0 0 1-.039.518c-.062.278-.163.613-.428.881-.265.27-.598.376-.876.442a2 2 0 0 1-.395.044q-.193.006-.496.01h-.01c-.755.011-1.586.011-2.5.011h-.007c-.913 0-1.744 0-2.498-.01l-.01-.001q-.305-.004-.497-.01a2 2 0 0 1-.395-.044c-.278-.066-.61-.173-.876-.442-.265-.268-.366-.603-.428-.881a3 3 0 0 1-.039-.518q-.004-.302-.003-.836V20A3.25 3.25 0 0 0 4 16.75h-.008q-.535 0-.836-.003a3 3 0 0 1-.518-.039c-.278-.062-.613-.163-.881-.428-.27-.265-.376-.598-.442-.876a2 2 0 0 1-.044-.395q-.006-.193-.01-.496v-.01c-.011-.755-.011-1.586-.011-2.5v-.007c0-.913 0-1.744.01-2.498l.001-.01q.003-.305.01-.497a2 2 0 0 1 .044-.395c.066-.278.173-.61.442-.876.268-.265.603-.366.881-.428.146-.033.353-.036.518-.039q.301-.004.836-.003H4A3.25 3.25 0 0 0 7.25 4v-.008q0-.535.003-.836c.003-.165.006-.372.039-.518.062-.278.163-.613.428-.881.265-.27.598-.376.876-.442.132-.03.278-.04.395-.044q.193-.006.496-.01h.01c.755-.011 1.586-.011 2.5-.011M12 2.75c-.917 0-1.739 0-2.48.01-.216.004-.363.006-.47.01-.083.003-.115.007-.118.007a1 1 0 0 0-.136.04q-.014.036-.035.125l-.002.03-.006.207c-.003.188-.003.454-.003.821A4.75 4.75 0 0 1 4 8.75c-.367 0-.633 0-.82.003a6 6 0 0 0-.238.008q-.089.021-.125.035a1 1 0 0 0-.04.136c0 .003-.004.035-.007.118a21 21 0 0 0-.01.47c-.01.741-.01 1.563-.01 2.48s0 1.739.01 2.48c.004.216.006.363.01.47.003.083.007.115.007.118q.024.099.04.136.036.014.125.035l.03.002q.067.005.207.006c.188.003.454.003.821.003A4.75 4.75 0 0 1 8.75 20c0 .367 0 .633.003.82a6 6 0 0 0 .008.238q.021.089.035.125.039.015.136.04c.003 0 .035.004.118.007.107.004.254.006.47.01.741.01 1.563.01 2.48.01s1.739 0 2.48-.01c.216-.004.363-.006.47-.01.083-.003.115-.007.118-.007q.098-.025.136-.04.014-.036.035-.125l.002-.03q.005-.067.006-.207c.003-.189.003-.454.003-.821A4.75 4.75 0 0 1 20 15.25c.367 0 .633 0 .82-.003a6 6 0 0 0 .238-.008q.089-.021.125-.035.015-.039.04-.136c0-.003.004-.035.007-.118.004-.107.006-.254.01-.47.01-.741.01-1.563.01-2.48a126 126 0 0 0-.026-3.152.1.1 0 0 0-.03-.034A.32.32 0 0 0 21 8.75 4.75 4.75 0 0 1 16.25 4c0-.362 0-.622-.004-.807a4 4 0 0 0-.01-.225 1 1 0 0 0-.035-.109 1 1 0 0 0-.12-.043c-.006 0-.035-.006-.107-.01a15 15 0 0 0-.449-.02c-.992-.036-2.15-.036-3.525-.036m4.22.12" clip-rule="evenodd"/></svg>