<svg xmlns="http://www.w3.org/2000/svg" fill="none" viewBox="0 0 24 24"><path fill="currentColor" fill-rule="evenodd" d="M12 1.25a.75.75 0 0 0 0 1.5A9.25 9.25 0 0 1 21.25 12 9.25 9.25 0 0 1 12 21.25a.75.75 0 0 0 0 1.5c5.938 0 10.75-4.814 10.75-10.75S17.938 1.25 12 1.25M9.242 3.21a.75.75 0 1 0-.484-1.42 12.1 12.1 0 0 0-3.494 1.87.75.75 0 0 0 .918 1.187 10.6 10.6 0 0 1 3.06-1.637M3.933 7.337a.75.75 0 1 0-1.274-.792 10.4 10.4 0 0 0-1.396 3.563.75.75 0 1 0 1.474.276 8.9 8.9 0 0 1 1.196-3.047m-1.196 6.28a.75.75 0 1 0-1.474.274 10.4 10.4 0 0 0 1.396 3.564.75.75 0 1 0 1.274-.792 8.9 8.9 0 0 1-1.196-3.047m3.45 5.54a.75.75 0 0 0-.928 1.179 11.8 11.8 0 0 0 3.5 1.874.75.75 0 1 0 .483-1.42 10.3 10.3 0 0 1-3.055-1.633M12 8.25c-1.286 0-2.503.776-3.004 1.963-.456 1.078-.238 1.967.33 2.837.506.774 1.242 1.465 2.011 2.187l.461.434a.3.3 0 0 0 .202.079c.078 0 .15-.03.202-.08l.431-.404c.78-.73 1.53-1.43 2.04-2.214.57-.872.786-1.763.331-2.84C14.503 9.027 13.286 8.25 12 8.25M7.614 9.629C8.36 7.864 10.137 6.75 12 6.75s3.64 1.114 4.386 2.879c.697 1.65.31 3.068-.456 4.242-.62.951-1.528 1.797-2.302 2.52l-.394.368a1.794 1.794 0 0 1-2.469 0l-.001-.001q-.199-.19-.416-.391c-.767-.718-1.663-1.557-2.277-2.496-.767-1.173-1.155-2.59-.457-4.242m4.382.871a1 1 0 1 0 0 2h.006a1 1 0 1 0 0-2z" clip-rule="evenodd"/></svg>