<svg xmlns="http://www.w3.org/2000/svg" fill="none" viewBox="0 0 24 24"><path fill="currentColor" fill-rule="evenodd" d="M5 3.25h-.05c-.664 0-1.237 0-1.696.062-.491.066-.963.215-1.345.597s-.531.854-.597 1.345c-.062.459-.062 1.032-.062 1.697v8.081c0 .44 0 .82.028 1.13.03.33.096.656.273.963.198.342.482.626.824.824.307.177.633.243.962.273q.225.019.5.024a3.251 3.251 0 0 0 6.326.004h3.674a3.251 3.251 0 0 0 6.327-.004q.272-.004.499-.024c.329-.03.655-.096.962-.273a2.26 2.26 0 0 0 .824-.824c.177-.307.243-.633.273-.962.028-.312.028-.691.028-1.13V12.26c0-.344 0-.649-.082-.946s-.24-.559-.416-.854l-.036-.06L20.5 7.544c-.199-.332-.375-.626-.547-.857a2.2 2.2 0 0 0-.694-.644 2.2 2.2 0 0 0-.909-.264c-.287-.028-.63-.028-1.016-.028h-1.602a6 6 0 0 0-.044-.496c-.066-.491-.215-.963-.597-1.345s-.853-.531-1.345-.597c-.459-.062-1.032-.062-1.697-.062zm15.162 13.496q.211-.005.365-.018c.225-.02.307-.055.348-.079a.75.75 0 0 0 .274-.274c.024-.04.058-.123.079-.348.021-.235.022-.546.022-1.027v-2.669c0-.453-.006-.54-.027-.616s-.06-.153-.294-.542l-1.698-2.83c-.221-.369-.36-.599-.483-.765-.113-.153-.179-.203-.228-.23-.049-.028-.125-.059-.315-.077a11 11 0 0 0-.904-.021H15.75v7.25a3.25 3.25 0 0 1 4.412 2.247m-5.88-1.028a.8.8 0 0 1-.032-.218V7c0-.728-.002-1.2-.048-1.546-.044-.325-.115-.427-.172-.484s-.159-.128-.484-.172c-.347-.046-.818-.048-1.546-.048H5c-.728 0-1.2.002-1.546.048-.325.044-.427.115-.484.172s-.128.159-.172.484c-.046.347-.048.818-.048 1.546v8c0 .481 0 .792.022 1.027.02.225.055.307.078.348a.75.75 0 0 0 .275.274c.04.024.123.058.348.079.104.01.223.015.365.018a3.251 3.251 0 0 1 6.325.004h3.674a3.2 3.2 0 0 1 .445-1.033M5.25 17.5v.002a1.75 1.75 0 1 0 0-.002m10 .002a1.75 1.75 0 1 0 0-.002z" clip-rule="evenodd"/></svg>