<svg xmlns="http://www.w3.org/2000/svg" fill="none" viewBox="0 0 24 24"><path fill="currentColor" fill-rule="evenodd" d="M7.309 6.75a4.751 4.751 0 0 1 9.382 0zm-1.514 0a6.251 6.251 0 0 1 12.41 0h1.26c.492 0 .94 0 1.3.052.394.058.814.196 1.127.579.31.378.368.816.357 1.215-.01.368-.086.818-.17 1.32l-.538 3.208a.75.75 0 0 1-1.48-.248l.53-3.16c.095-.565.151-.912.158-1.163a.8.8 0 0 0-.017-.22l-.004-.002a.7.7 0 0 0-.18-.044c-.238-.035-.574-.037-1.134-.037H4.586c-.56 0-.896.002-1.133.037a.7.7 0 0 0-.181.044l-.004.002-.004.013a.8.8 0 0 0-.013.207c.007.251.063.598.158 1.163l1.204 7.18c.202 1.208.344 2.047.53 2.677.18.61.377.932.634 1.155.254.22.59.362 1.197.44.63.08 1.454.082 2.648.082H11a.75.75 0 0 1 0 1.5H9.571c-1.13 0-2.051 0-2.788-.094-.77-.099-1.428-.31-1.988-.795-.558-.483-.868-1.109-1.09-1.864-.215-.727-.371-1.657-.564-2.806L1.93 9.964l-.008-.048c-.085-.502-.16-.952-.17-1.32-.012-.399.046-.837.355-1.215.314-.383.734-.52 1.129-.579.359-.052.807-.052 1.3-.052zm16.412 9a.75.75 0 0 1-.457.957c-.576.204-1.22.635-1.884 1.217-.656.575-1.29 1.262-1.849 1.932a28 28 0 0 0-1.852 2.496l-.025.04-.006.008v.002a.75.75 0 0 1-1.305-.066c-.455-.911-.877-1.3-1.12-1.462a.9.9 0 0 0-.259-.125.75.75 0 0 1 .05-1.499h.01l.05.002q.036.002.084.009.097.01.234.05c.183.052.41.147.663.315.313.21.654.523.997.99.341-.478.797-1.086 1.327-1.721.589-.706 1.278-1.456 2.012-2.1.726-.636 1.538-1.206 2.373-1.502a.75.75 0 0 1 .957.457" clip-rule="evenodd"/></svg>