<svg xmlns="http://www.w3.org/2000/svg" fill="none" viewBox="0 0 24 24"><path fill="currentColor" fill-rule="evenodd" d="M7.75 6.364c0-1.975 1.657-3.614 3.75-3.614s3.75 1.64 3.75 3.614v.483a15 15 0 0 0-1.82-.097H9.65c-.683 0-1.316.029-1.9.102zm-1.5.814v-.814c0-2.846 2.372-5.114 5.25-5.114s5.25 2.268 5.25 5.114v.81c.427.145.815.333 1.168.573 1.124.761 1.765 1.953 2.293 3.513a.75.75 0 1 1-1.421.48c-.494-1.46-1-2.268-1.714-2.752-.726-.492-1.799-.738-3.647-.738H9.65c-1.917 0-3.069.25-3.87.823-.793.566-1.38 1.549-1.904 3.372-.491 1.704-.842 2.926-1.013 3.887-.17.953-.14 1.542.04 2.009a3.6 3.6 0 0 0 1.316 1.652c.572.396 1.718.746 3.26.976 1.507.223 3.277.316 5 .27a.75.75 0 1 1 .042 1.499c-1.797.049-3.657-.047-5.262-.286-1.57-.233-3.017-.62-3.893-1.225a5.1 5.1 0 0 1-1.86-2.343c-.328-.842-.31-1.752-.12-2.815.186-1.047.56-2.344 1.036-3.996l.012-.043c.555-1.927 1.264-3.313 2.473-4.177.406-.29.853-.51 1.343-.675M18 13.25a.75.75 0 0 1 .75.75v3.25H22a.75.75 0 0 1 0 1.5h-3.25V22a.75.75 0 0 1-1.5 0v-3.25H14a.75.75 0 0 1 0-1.5h3.25V14a.75.75 0 0 1 .75-.75m-7.5-3a.75.75 0 0 0 0 1.5h2a.75.75 0 0 0 0-1.5z" clip-rule="evenodd"/></svg>