<svg xmlns="http://www.w3.org/2000/svg" fill="none" viewBox="0 0 24 24"><path fill="currentColor" fill-rule="evenodd" d="M2 1.25a.75.75 0 0 0 0 1.5h.966c.616 0 1.13.406 1.27.952l2.976 11.561c.092.358.015.74-.217 1.04l-.74.959a2.75 2.75 0 1 0 2.392 3.488h5.707a2.751 2.751 0 1 0 0-1.5H8.646a2.75 2.75 0 0 0-.943-1.41l.479-.62q.185-.24.31-.508l8.29-.691c1.357-.113 2.45-.324 3.193-1.047s.984-1.81 1.134-3.162l.562-5.062H22a.75.75 0 0 0 0-1.5H6.184L5.69 3.328C5.372 2.093 4.24 1.25 2.966 1.25zm4.57 5.5 2.095 8.14a3 3 0 0 1 .059.297l7.934-.661c1.372-.114 1.95-.315 2.27-.627s.538-.885.69-2.253l.544-4.896zm-.57 12a1.25 1.25 0 1 0 0 2.5 1.25 1.25 0 0 0 0-2.5m11 2.5a1.25 1.25 0 1 1 0-2.5 1.25 1.25 0 0 1 0 2.5" clip-rule="evenodd"/></svg>