<svg xmlns="http://www.w3.org/2000/svg" fill="none" viewBox="0 0 24 24"><path fill="currentColor" fill-rule="evenodd" d="M7.309 6.75a4.751 4.751 0 0 1 9.382 0zm-1.514 0a6.251 6.251 0 0 1 12.41 0h1.26c.492 0 .94 0 1.3.052.394.058.814.196 1.127.579.31.378.368.816.357 1.215-.01.368-.086.818-.17 1.32l-1.22 7.275c-.193 1.15-.349 2.08-.563 2.806-.223.755-.533 1.381-1.09 1.864-.56.485-1.22.696-1.99.795-.736.094-1.656.094-2.788.094H9.572c-1.13 0-2.051 0-2.788-.094-.77-.099-1.428-.31-1.988-.795-.558-.483-.868-1.109-1.09-1.864-.215-.727-.371-1.657-.564-2.806L1.93 9.964l-.008-.048c-.085-.502-.16-.952-.17-1.32-.012-.399.046-.837.355-1.215.314-.383.734-.52 1.129-.579.359-.052.807-.052 1.3-.052zM3.264 8.346l.004-.013.004-.002a.7.7 0 0 1 .18-.044c.238-.035.575-.037 1.134-.037h14.828c.56 0 .896.002 1.133.037a.7.7 0 0 1 .181.044l.004.002q.002.003.004.013c.007.028.017.09.013.207-.007.251-.063.598-.158 1.163l-1.204 7.18c-.202 1.208-.344 2.047-.53 2.677-.18.61-.377.932-.634 1.155-.254.22-.59.362-1.197.44-.63.08-1.454.082-2.648.082H9.622c-1.194 0-2.018-.001-2.648-.082-.608-.078-.943-.22-1.197-.44-.257-.223-.454-.544-.634-1.155-.186-.63-.328-1.47-.53-2.678l-1.204-7.18c-.095-.564-.151-.91-.158-1.162a.8.8 0 0 1 .013-.207" clip-rule="evenodd"/></svg>