<svg xmlns="http://www.w3.org/2000/svg" fill="none" viewBox="0 0 24 24"><path fill="currentColor" fill-rule="evenodd" d="M10.955 2.25h2.09c1.837 0 3.276 0 4.419.124 1.165.126 2.11.388 2.916.974a5.8 5.8 0 0 1 1.272 1.272c.586.807.848 1.75.974 2.916.124 1.143.124 2.582.124 4.419v.09c0 1.837 0 3.276-.124 4.419-.126 1.165-.388 2.11-.974 2.916a5.8 5.8 0 0 1-1.272 1.272c-.807.586-1.75.848-2.916.974-1.143.124-2.582.124-4.419.124h-2.09c-1.837 0-3.276 0-4.419-.124-1.165-.126-2.11-.388-2.916-.974a5.8 5.8 0 0 1-1.272-1.272c-.586-.807-.848-1.75-.974-2.916-.124-1.143-.124-2.582-.124-4.419v-.09c0-1.837 0-3.276.124-4.419.126-1.165.388-2.11.974-2.916A5.8 5.8 0 0 1 3.62 3.348c.807-.586 1.75-.848 2.916-.974 1.143-.124 2.582-.124 4.419-.124M6.698 3.865c-1.038.112-1.688.328-2.196.697a4.3 4.3 0 0 0-.94.94c-.37.508-.585 1.158-.697 2.196C2.751 8.75 2.75 10.108 2.75 12s.001 3.25.115 4.302c.112 1.038.328 1.688.697 2.196.262.36.58.678.94.94.508.37 1.158.585 2.196.697 1.052.114 2.41.115 4.302.115h2.75V3.75H11c-1.892 0-3.25.001-4.302.115m10.604 16.27c-.579.063-1.25.091-2.052.104V3.761a23 23 0 0 1 2.052.104c1.038.112 1.688.328 2.196.697.36.262.678.58.94.94.37.508.585 1.158.697 2.196.114 1.052.115 2.41.115 4.302s-.001 3.25-.115 4.302c-.113 1.038-.328 1.688-.697 2.196-.262.36-.58.678-.94.94-.508.37-1.158.585-2.196.697M19 6.25a.75.75 0 0 1 0 1.5h-1.5a.75.75 0 0 1 0-1.5zm.75 4.75a.75.75 0 0 0-.75-.75h-1.5a.75.75 0 0 0 0 1.5H19a.75.75 0 0 0 .75-.75m-12.24-.432a.75.75 0 1 1 .98-1.136l1.226 1.057.032.027c.23.199.457.394.62.579.18.204.382.5.382.905s-.201.701-.382.905c-.163.185-.39.38-.62.579l-.032.027-1.226 1.057a.75.75 0 0 1-.98-1.136l1.227-1.057c.2-.172.331-.287.422-.375a11 11 0 0 0-.422-.375z" clip-rule="evenodd"/></svg>