<svg xmlns="http://www.w3.org/2000/svg" fill="none" viewBox="0 0 24 24"><path fill="currentColor" fill-rule="evenodd" d="M8.782 3.033C7.868 1.702 6.603 1.079 5.317 1.29c-1.248.206-2.292 1.162-2.89 2.498-1.175 2.623-.775 6.865 2.9 11.58-1.104 2.34-2.46 4.54-3.887 6.132a.75.75 0 1 0 1.118 1c1.436-1.602 2.777-3.733 3.887-5.997.262.158.55.254.868.25.657-.007 1.141-.44 1.47-.803.283-.314.574-.722.862-1.126q.09-.128.181-.253c.362-.504.75-1.02 1.21-1.492.166-.17.272-.198.31-.203s.102-.003.211.063c.162.097.345.288.524.558l-.054.142c-.261.705-.416 1.454-.372 2.074.021.306.097.658.308.953.237.333.604.529 1.036.529.498 0 .868-.276 1.066-.647.172-.32.212-.692.207-1.01-.01-.648-.211-1.42-.518-2.098a5 5 0 0 1 .598-.902c.389-.46.783-.717 1.137-.784.135-.026.316.007.683.374.174.173.349.38.555.624l.012.013c.203.24.434.513.687.763.503.498 1.188 1.004 2.118 1.03.92.025 1.885-.424 2.95-1.36a.75.75 0 0 0-.99-1.127c-.935.821-1.541.998-1.919.987-.366-.01-.705-.201-1.104-.597a10 10 0 0 1-.597-.664l-.03-.035a11 11 0 0 0-.622-.696c-.45-.448-1.12-.958-2.024-.786-.82.157-1.495.69-2.002 1.29q-.195.232-.368.486a2.7 2.7 0 0 0-.507-.402 1.8 1.8 0 0 0-1.193-.264c-.448.063-.842.3-1.177.643-.54.555-.981 1.146-1.352 1.662l-.206.287c-.286.4-.514.72-.734.963-.242.268-.355.303-.372.308-.017-.004-.085-.025-.21-.134.431-.98.816-1.97 1.143-2.94.626-1.859 1.054-3.675 1.194-5.234.135-1.516.014-2.955-.644-3.912m-1.973 8.666a34 34 0 0 1-.786 2.096C3.039 9.65 2.967 6.253 3.797 4.4c.455-1.015 1.146-1.529 1.764-1.63.58-.096 1.316.138 1.984 1.11.344.502.515 1.481.386 2.93-.126 1.407-.52 3.103-1.122 4.888M9 20.25a.75.75 0 0 0 0 1.5h10a.75.75 0 0 0 0-1.5z" clip-rule="evenodd"/></svg>