<svg xmlns="http://www.w3.org/2000/svg" fill="none" viewBox="0 0 24 24"><path fill="currentColor" fill-rule="evenodd" d="M4.824 4.017c.716-1 1.709-1.767 3.023-1.767.76 0 1.407.343 1.935.87.516.516.943 1.231 1.305 2.064.726 1.667 1.272 3.993 1.693 6.701.415 2.672.939 4.846 1.586 6.334.324.745.66 1.271.99 1.602.32.32.605.429.87.429.648 0 1.24-.358 1.799-1.139.562-.786 1.016-1.907 1.365-3.182.285-1.038.49-2.14.634-3.179h-.966a.751.751 0 1 1 0-1.5h1.138c.082-.896.116-1.679.116-2.239a.751.751 0 0 1 1.505 0c0 .57-.032 1.348-.11 2.239h.36a.751.751 0 1 1 0 1.5h-.524a27 27 0 0 1-.701 3.574c-.37 1.348-.88 2.664-1.593 3.659-.716 1-1.708 1.767-3.022 1.767-.76 0-1.408-.343-1.935-.87-.517-.516-.944-1.231-1.306-2.064-.726-1.667-1.272-3.993-1.693-6.701-.415-2.672-.938-4.846-1.586-6.334-.324-.745-.66-1.27-.99-1.602-.32-.32-.605-.429-.87-.429-.647 0-1.24.359-1.798 1.139-.563.786-1.016 1.907-1.366 3.182a25 25 0 0 0-.634 3.179h.966a.751.751 0 1 1 0 1.5H3.877a26 26 0 0 0-.115 2.239.751.751 0 0 1-1.505 0c0-.57.032-1.348.11-2.24h-.36a.751.751 0 1 1 0-1.5h.524c.153-1.156.379-2.399.7-3.573.37-1.348.881-2.664 1.593-3.659m3.2 7.233a.751.751 0 1 0 0 1.5h2.007a.751.751 0 1 0 0-1.5zm5.267.75a.75.75 0 0 1 .752-.75h2.006a.751.751 0 1 1 0 1.5h-2.006a.75.75 0 0 1-.752-.75" clip-rule="evenodd"/></svg>