<svg xmlns="http://www.w3.org/2000/svg" fill="none" viewBox="0 0 24 24"><path fill="currentColor" fill-rule="evenodd" d="M11.941 1.25h.118c1.482 0 2.676 0 3.615.136.978.142 1.788.444 2.424 1.129.628.676.9 1.525 1.027 2.552.125 1 .125 2.275.125 3.88v6.105c0 1.606 0 2.882-.125 3.881-.128 1.027-.399 1.875-1.027 2.552-.636.685-1.446.987-2.424 1.13-.94.135-2.133.135-3.615.135h-.118c-1.482 0-2.676 0-3.615-.136-.978-.142-1.788-.444-2.424-1.129-.628-.677-.9-1.525-1.027-2.552-.125-1-.125-2.275-.125-3.88V8.947c0-1.606 0-2.882.125-3.881.128-1.027.399-1.876 1.027-2.552.636-.685 1.446-.987 2.424-1.13.94-.135 2.133-.135 3.615-.135m-3.4 1.62c-.79.115-1.223.325-1.54.665-.323.349-.528.838-.638 1.717C6.251 6.148 6.25 7.33 6.25 9v6c0 1.67.001 2.852.113 3.747.11.88.315 1.37.638 1.718.317.34.75.55 1.54.665.82.118 1.904.12 3.459.12s2.64-.002 3.459-.12c.79-.115 1.223-.325 1.54-.665.323-.349.528-.838.638-1.718.112-.895.113-2.077.113-3.747V9c0-1.67-.001-2.852-.113-3.748-.11-.88-.315-1.368-.639-1.717-.316-.34-.748-.55-1.54-.665-.818-.118-1.903-.12-3.458-.12s-2.64.002-3.459.12M11 19a1 1 0 0 1 1-1h.009a1 1 0 1 1 0 2H12a1 1 0 0 1-1-1m0-14.75a.75.75 0 0 0 0 1.5h2a.75.75 0 0 0 0-1.5zm11.709 4.005a.75.75 0 0 1-.456.951l-.009.004-.061.028a1 1 0 0 0-.204.133c-.141.117-.229.252-.229.442 0 .185.07.3.33.618l.026.032c.243.295.644.783.644 1.537s-.401 1.242-.644 1.538l-.026.031c-.26.319-.33.433-.33.619 0 .19.088.324.229.441a1.1 1.1 0 0 0 .265.162l.01.003a.75.75 0 0 1-.5 1.415L22 15.5c-.245.709-.247.709-.247.709l-.004-.002-.007-.003-.019-.006a2 2 0 0 1-.218-.098 2.6 2.6 0 0 1-.484-.316c-.359-.298-.771-.82-.771-1.596 0-.754.401-1.243.644-1.538l.026-.031c.26-.319.33-.434.33-.619s-.07-.3-.33-.618l-.026-.032c-.243-.295-.644-.783-.644-1.537 0-.777.412-1.299.771-1.596a2.6 2.6 0 0 1 .702-.414l.02-.007.006-.003h.003l.002-.001a.75.75 0 0 1 .955.463m-20.962.951a.75.75 0 0 1 .498-1.415h.001l.002.001.003.001.007.003.019.007a2 2 0 0 1 .218.097c.13.066.305.169.484.317.359.297.771.819.771 1.596 0 .754-.401 1.242-.644 1.537l-.026.032c-.26.318-.33.433-.33.618s.07.3.33.619l.026.031c.243.295.644.784.644 1.538 0 .777-.412 1.298-.771 1.596a2.6 2.6 0 0 1-.702.414l-.02.006-.006.003-.003.001h-.002L2 15.5l.245.709a.75.75 0 0 1-.498-1.415l.008-.003.062-.029c.058-.03.133-.074.204-.133.141-.117.229-.252.229-.441 0-.186-.07-.3-.33-.619l-.026-.031c-.243-.296-.644-.784-.644-1.538s.401-1.242.644-1.537l.026-.032c.26-.318.33-.433.33-.618 0-.19-.088-.325-.229-.442a1.1 1.1 0 0 0-.266-.161z" clip-rule="evenodd"/></svg>