<svg xmlns="http://www.w3.org/2000/svg" fill="none" viewBox="0 0 24 24"><path fill="currentColor" fill-rule="evenodd" d="M1.25 12c0 5.928 4.822 10.75 10.75 10.75 1.93 0 3.801-.51 5.448-1.48.453.309.994.48 1.552.48A2.754 2.754 0 0 0 21.75 19c0-.575-.178-1.11-.481-1.552A10.7 10.7 0 0 0 22.75 12c0-5.928-4.822-10.75-10.75-10.75-1.93 0-3.801.51-5.448 1.48A2.76 2.76 0 0 0 5 2.25 2.754 2.754 0 0 0 2.25 5c0 .557.17 1.098.48 1.552A10.7 10.7 0 0 0 1.25 12m1.5 0a9.2 9.2 0 0 1 1.154-4.478 2.754 2.754 0 0 0 3.618-3.618A9.2 9.2 0 0 1 12 2.75c5.1 0 9.25 4.15 9.25 9.25a9.2 9.2 0 0 1-1.154 4.478 2.754 2.754 0 0 0-3.618 3.618A9.2 9.2 0 0 1 12 21.25c-5.1 0-9.25-4.15-9.25-9.25M19 20.25c-.349 0-.684-.148-.921-.405l-.013-.014A1.252 1.252 0 0 1 19 17.75c.689 0 1.25.561 1.25 1.25s-.561 1.25-1.25 1.25m-14-14A1.247 1.247 0 0 1 3.75 5a1.252 1.252 0 0 1 2.184-.831A1.252 1.252 0 0 1 5 6.25m5.914 10.924c.335.31.624.576 1.086.576.461 0 .751-.267 1.086-.576l.001-.001.468-.432.027-.025.003-.003.029.004.024.003.641.086h.002c.456.062.85.116 1.226-.144.39-.27.466-.678.544-1.107l.001-.004.112-.612.003-.014.018-.009.581-.293c.417-.211.777-.393.927-.834.154-.451-.036-.823-.239-1.221l-.002-.004-.286-.561-.001-.002.004-.007.286-.559c.203-.396.394-.77.24-1.221-.15-.442-.51-.625-.928-.836l-.581-.293-.018-.009-.003-.017-.112-.608c-.078-.433-.153-.842-.545-1.113-.376-.26-.77-.206-1.226-.144h-.001l-.644.086-.021.003-.03.004-.032-.03-.466-.43c-.336-.31-.625-.577-1.087-.577s-.752.267-1.087.577l-.468.432-.028.026-.002.002-.053-.007-.641-.086H9.72c-.456-.062-.85-.116-1.226.144-.39.27-.466.678-.544 1.107l-.001.004-.112.612-.001.005-.002.009-.018.009-.581.293c-.417.211-.777.393-.927.834-.154.451.036.823.239 1.221l.002.004.286.561.001.002-.004.007-.286.559c-.203.396-.394.77-.24 1.221.15.442.51.625.928.836l.581.293.018.009.003.017.112.608c.078.433.153.842.545 1.113.376.259.771.206 1.227.144l.644-.086.021-.003.03-.004.016.015.016.015zm-.046-1.927a1.1 1.1 0 0 0-.332-.048h-.001c-.122 0-.243.016-.373.034l-.643.086-.059.008-.028.004-.009-.044v-.008l-.114-.615c-.043-.231-.084-.449-.244-.663l-.007-.009c-.159-.206-.346-.302-.563-.413l-.587-.296-.019-.01-.019-.009.007-.014.003-.006.284-.557c.11-.213.214-.415.214-.688s-.104-.475-.214-.688v-.001l-.286-.561-.004-.008-.004-.007.037-.019.588-.297c.217-.111.404-.207.563-.413l.007-.009c.16-.214.201-.432.245-.669l.112-.61.009-.051.088.012.64.086c.246.034.458.063.711-.014.256-.079.42-.232.592-.391l.002-.002.466-.43.033-.03.036-.034.069.064.464.428c.175.162.34.315.599.395.25.076.462.047.705.014h.001l.643-.086.055-.008.032-.004.009.046.001.006.113.615c.043.231.084.449.244.663l.007.009c.159.206.346.302.563.413l.587.296.019.01.019.009-.007.014-.003.006-.284.557c-.11.213-.214.415-.214.688s.104.475.214.688v.001l.286.561.004.008.004.007-.036.019h-.001l-.588.297c-.217.111-.404.207-.563.413l-.007.009c-.16.214-.201.432-.245.669l-.112.61-.009.051-.088-.012-.64-.086c-.246-.034-.458-.063-.711.014-.256.079-.421.232-.592.392l-.002.001-.466.43-.033.03-.036.034-.036-.033-.033-.031-.464-.428c-.176-.162-.34-.315-.599-.395" clip-rule="evenodd"/></svg>