<svg xmlns="http://www.w3.org/2000/svg" fill="none" viewBox="0 0 24 24"><path fill="currentColor" fill-rule="evenodd" d="M13.11 2.436a.75.75 0 1 0-1.22-.872l-2.5 3.5A.75.75 0 0 0 10 6.25h2.543L10.89 8.564a.75.75 0 1 0 1.22.872l2.5-3.5A.75.75 0 0 0 14 4.75h-2.543zM7.69 8.25h.81a.75.75 0 1 1 0 1.5h-.768c-.566 0-.92.002-1.188.036-.242.03-.338.08-.406.135-.076.06-.167.168-.292.45-.13.293-.26.692-.458 1.295l-.517 1.584h6.379V11.5a.75.75 0 0 1 1.5 0v1.75h6.379l-.517-1.584c-.197-.603-.328-1.002-.458-1.295-.125-.282-.216-.39-.292-.45-.068-.054-.164-.104-.406-.135-.268-.034-.622-.036-1.189-.036H15a.75.75 0 1 1 0-1.5h1.31c.51 0 .962 0 1.336.048.41.052.798.17 1.15.45.343.272.557.626.73 1.016.164.371.318.843.5 1.401l.845 2.588c.361 1.106.656 2.008.792 2.732.14.745.145 1.458-.24 2.096-.4.664-1.036.938-1.745 1.058-.659.111-1.514.111-2.527.111H12.75v1.5H14a.75.75 0 1 1 0 1.5h-4a.75.75 0 0 1 0-1.5h1.25v-1.5h-4.4c-1.014 0-1.87 0-2.528-.111-.709-.12-1.345-.394-1.746-1.058-.384-.638-.379-1.35-.239-2.096.136-.724.43-1.626.792-2.733l.845-2.587c.182-.558.336-1.03.5-1.4.173-.39.387-.745.73-1.018.352-.28.74-.397 1.15-.45.374-.047.825-.047 1.335-.047m11.928 6.5H12.75v3.5h4.334c1.098 0 1.825-.003 2.343-.09.483-.082.626-.212.712-.354.102-.17.164-.436.05-1.044-.096-.508-.291-1.147-.571-2.012m-8.368 0H4.382c-.28.865-.475 1.504-.57 2.012-.115.608-.054.874.049 1.044.086.142.228.272.711.354.52.087 1.246.09 2.344.09h4.334z" clip-rule="evenodd"/></svg>