<svg xmlns="http://www.w3.org/2000/svg" fill="none" viewBox="0 0 24 24"><path fill="currentColor" fill-rule="evenodd" d="M3.408 22.751c-.384 0-.953-.122-1.519-.69-.425-.426-.646-.937-.639-1.478.01-.874.596-1.534.855-1.783l6.565-6.56c.3-.297.427-.72.344-1.136l-.419-2.03a2.73 2.73 0 0 1 .742-2.49l4.533-4.53a2.75 2.75 0 0 1 3.56-.28l.76.551a15.9 15.9 0 0 1 3.485 3.482l.552.761a2.73 2.73 0 0 1-.276 3.55l-4.542 4.53a2.73 2.73 0 0 1-2.49.746l-2.04-.418a1.25 1.25 0 0 0-1.132.343l-6.56 6.557c-.542.566-1.149.868-1.757.876h-.022m12.407-20a1.26 1.26 0 0 0-.887.367L10.4 7.642c-.296.3-.423.72-.337 1.124l.421 2.041a2.74 2.74 0 0 1-.758 2.496L3.16 19.866l-.012.012c-.196.188-.396.484-.399.723 0 .085.02.218.201.401q.25.252.461.25c.191-.002.445-.154.694-.417l.013-.013 6.57-6.566a2.75 2.75 0 0 1 2.493-.748l2.038.417a1.23 1.23 0 0 0 1.127-.336l4.543-4.53a1.236 1.236 0 0 0 .124-1.607l-.552-.762a14.4 14.4 0 0 0-3.154-3.15l-.758-.55a1.26 1.26 0 0 0-.733-.239m0 0h-.003zm-.596 8.686a.749.749 0 0 1-.531-1.28L16.838 8A.75.75 0 1 1 17.9 9.06l-2.15 2.156a.75.75 0 0 1-.531.22m-2.37-2.063a.75.75 0 0 0 1.061-.001l2.15-2.155a.75.75 0 0 0-1.062-1.06l-2.15 2.155a.75.75 0 0 0 .001 1.06" clip-rule="evenodd"/></svg>