<svg xmlns="http://www.w3.org/2000/svg" fill="none" viewBox="0 0 24 24"><path fill="currentColor" fill-rule="evenodd" d="M5 1.25a.75.75 0 0 1 .75.75v8a.75.75 0 0 1-1.5 0V2A.75.75 0 0 1 5 1.25m3 2a.75.75 0 0 1 .75.75v4a.75.75 0 0 1-1.5 0V4A.75.75 0 0 1 8 3.25m-6 1a.75.75 0 0 1 .75.75v2a.75.75 0 0 1-1.5 0V5A.75.75 0 0 1 2 4.25m9 0a.75.75 0 0 1 .75.75v2a.75.75 0 0 1-1.5 0V5a.75.75 0 0 1 .75-.75M16.75 17a.75.75 0 0 0-.75-.75h-6a.75.75 0 0 0 0 1.5h6a.75.75 0 0 0 .75-.75M14 3.25h.804c1.458.008 2.647.042 3.62.211.991.173 1.812.495 2.5 1.114q.314.282.58.61c.667.823.964 1.818 1.106 3.053.14 1.211.14 2.75.14 4.712v.098c0 1.962 0 3.5-.14 4.711-.142 1.236-.44 2.231-1.106 3.053a5.4 5.4 0 0 1-.58.61c-.789.71-1.75 1.028-2.939 1.18-1.157.148-2.623.148-4.482.148h-.563c-2.07 0-3.705 0-4.983-.18-1.316-.187-2.363-.578-3.183-1.441-.785-.827-1.152-1.866-1.334-3.163-.179-1.28-.19-2.906-.19-4.966a.75.75 0 0 1 1.5 0c0 2.092.014 3.603.176 4.758.16 1.136.45 1.827.936 2.338.498.524 1.17.827 2.305.988 1.161.164 2.69.166 4.833.166h.45c1.923 0 3.294-.001 4.345-.136 1.03-.132 1.652-.38 2.126-.807q.225-.202.418-.44c.412-.508.654-1.179.781-2.28.129-1.114.13-2.566.13-4.588s-.001-3.474-.13-4.589c-.127-1.1-.369-1.772-.78-2.279a4 4 0 0 0-.419-.44c-.415-.374-.943-.61-1.755-.752-.831-.145-1.901-.181-3.368-.189H14a.75.75 0 0 1 0-1.5" clip-rule="evenodd"/></svg>