<svg xmlns="http://www.w3.org/2000/svg" fill="none" viewBox="0 0 24 24"><path fill="currentColor" fill-rule="evenodd" d="M10.42 6.548c1.282-1.281 3.168-2.23 4.972-2.614 1.853-.394 3.347-.143 4.082.591s.985 2.23.59 4.082c-.382 1.804-1.332 3.69-2.613 4.971-1.276 1.276-2.542 1.724-3.687 1.667-1.043-.053-2.082-.53-3.024-1.366a.75.75 0 0 0-.62-.62c-.837-.942-1.313-1.981-1.366-3.024-.057-1.145.391-2.412 1.667-3.687m-1.61 7.487c-.902-1.089-1.485-2.36-1.554-3.725-.082-1.644.587-3.306 2.104-4.823 1.512-1.512 3.671-2.585 5.72-3.02 2-.425 4.166-.29 5.454.998 1.289 1.288 1.423 3.454.998 5.454-.435 2.049-1.508 4.208-3.02 5.72-1.518 1.517-3.18 2.186-4.823 2.104-1.39-.07-2.68-.672-3.783-1.602a3.9 3.9 0 0 1-1.228.513c-.453.11-.774.19-1.002.254a2 2 0 0 0-.274.087 1 1 0 0 0-.106.083 1 1 0 0 0-.013.116c.002.013.01.06.04.16.044.152.116.357.223.665l.007.019c.1.285.184.525.24.718.055.185.112.413.1.645a1.7 1.7 0 0 1-.209.797 1.8 1.8 0 0 1-.576.588c-.2.136-.473.22-.7.283a36 36 0 0 1-1.037.263l-.016.004c-.929.227-1.43.683-1.757 1.115a.75.75 0 0 1-1.197-.904c.5-.662 1.282-1.346 2.598-1.668.453-.111.773-.19 1.002-.254a3 3 0 0 0 .273-.087 1 1 0 0 0 .106-.084 1 1 0 0 0 .014-.113v-.002a1 1 0 0 0-.04-.16 16 16 0 0 0-.224-.665l-.006-.019c-.1-.285-.184-.525-.24-.718a2 2 0 0 1-.1-.645c.012-.252.055-.53.208-.798a1.8 1.8 0 0 1 .577-.587c.2-.136.473-.22.7-.283.257-.073.603-.157 1.037-.263l.016-.004q.291-.073.488-.162" clip-rule="evenodd"/></svg>