<svg xmlns="http://www.w3.org/2000/svg" fill="none" viewBox="0 0 24 24"><path fill="currentColor" fill-rule="evenodd" d="M12 2.75A3.75 3.75 0 0 0 8.25 6.5v1.82A97 97 0 0 1 12 8.25c1.327 0 2.553.024 3.75.07V6.5A3.75 3.75 0 0 0 12 2.75M6.75 6.5v1.96c-1.69.403-2.989 1.838-3.225 3.595-.149 1.1-.275 2.257-.275 3.445s.126 2.344.275 3.445c.271 2.017 1.942 3.61 4 3.705 1.429.066 2.88.1 4.475.1 1.596 0 3.046-.034 4.475-.1 2.058-.095 3.729-1.688 4-3.705.149-1.1.275-2.257.275-3.445s-.126-2.344-.274-3.445c-.237-1.757-1.535-3.192-3.226-3.596V6.5a5.25 5.25 0 1 0-10.5 0M12 9.75c-1.574 0-3.001.034-4.406.098-1.309.06-2.405 1.084-2.583 2.407-.145 1.08-.261 2.158-.261 3.245s.116 2.165.261 3.245c.178 1.323 1.274 2.346 2.583 2.407 1.405.064 2.832.098 4.406.098s3.001-.034 4.406-.098c1.309-.06 2.405-1.084 2.583-2.407.145-1.08.261-2.158.261-3.245s-.116-2.165-.261-3.245c-.178-1.323-1.274-2.347-2.583-2.407A95 95 0 0 0 12 9.75m-.004 4.75a1 1 0 1 0 0 2h.01a1 1 0 1 0 0-2z" clip-rule="evenodd"/></svg>