<svg xmlns="http://www.w3.org/2000/svg" fill="none" viewBox="0 0 24 24"><path fill="currentColor" fill-rule="evenodd" d="M11.785 1.281a.75.75 0 0 1 .43 0c1.732.518 4.029 1.948 5.391 4.568.66 1.268 1.086 2.789 1.138 4.582 2.177.716 3.199 2.313 3.651 3.742a7.9 7.9 0 0 1 .34 2.828l-.003.025-.002.028-.002.016v.008L21.98 17l.746.08a.75.75 0 0 1-1.184.529c-1.03-.742-2.483-1.118-3.8-1.272a25 25 0 0 1-.338.933.75.75 0 0 1-1.061.387c-.446-.245-2.056-.844-4.344-.844s-3.898.6-4.344.844a.75.75 0 0 1-1.061-.387 25 25 0 0 1-.339-.933c-1.316.154-2.77.53-3.799 1.272a.75.75 0 0 1-1.184-.53L2.019 17c-.746.08-.746.079-.746.078v-.002l-.001-.006-.002-.016a3 3 0 0 1-.014-.238 7.9 7.9 0 0 1 .35-2.643c.451-1.429 1.473-3.026 3.65-3.742.052-1.793.479-3.314 1.138-4.582 1.362-2.62 3.659-4.05 5.391-4.568M5.304 12.017c.078.895.244 1.85.512 2.864-.959.13-2.03.376-3.013.815a6 6 0 0 1 .232-1.07c.313-.99.945-2.028 2.269-2.609m12.88 2.864c.959.13 2.03.376 3.012.815a6 6 0 0 0-.231-1.07c-.313-.99-.945-2.028-2.269-2.609a17 17 0 0 1-.512 2.864M7.726 16c-1.509-4.333-1.076-7.39-.001-9.458 1.09-2.097 2.893-3.28 4.275-3.754 1.382.474 3.185 1.657 4.275 3.754 1.075 2.068 1.508 5.125 0 9.458-.939-.337-2.432-.687-4.275-.687s-3.336.35-4.274.687M12 10.25a1.25 1.25 0 1 1 0-2.5 1.25 1.25 0 0 1 0 2.5M9.25 9a2.75 2.75 0 1 0 5.5 0 2.75 2.75 0 0 0-5.5 0m.127 9.26a.75.75 0 0 1 .863.616v-.001.001l.002.01.012.06a4.3 4.3 0 0 0 .377 1.016c.286.538.716 1.041 1.37 1.259.652-.218 1.082-.721 1.368-1.26a4.3 4.3 0 0 0 .39-1.075l.001-.01v-.001a.75.75 0 0 1 1.48.248v.003l-.001.004-.002.01-.006.03-.02.102q-.029.128-.09.34a6 6 0 0 1-.427 1.052c-.419.79-1.188 1.746-2.519 2.065a.75.75 0 0 1-.35 0c-1.331-.32-2.1-1.275-2.519-2.065a5.8 5.8 0 0 1-.537-1.493l-.006-.031-.002-.01v-.007a.75.75 0 0 1 .616-.863" clip-rule="evenodd"/></svg>