<svg xmlns="http://www.w3.org/2000/svg" fill="none" viewBox="0 0 24 24"><path fill="currentColor" fill-rule="evenodd" d="M12 1.25h-.002c-1.047.003-1.872.795-2.399 1.862L7.84 6.66l-.002.005c-.054.11-.18.265-.371.407a1.3 1.3 0 0 1-.499.24l-3.19.534c-1.152.194-2.117.758-2.431 1.742-.313.982.146 2.004.974 2.834h.001l2.478 2.5c.098.099.208.285.277.528.069.242.075.462.044.604v.002l-.71 3.09c-.294 1.287-.196 2.562.711 3.23.91.668 2.154.372 3.285-.301l2.99-1.785c.126-.075.343-.136.604-.136a.75.75 0 0 0 .752-.75L12.75 2.072 12.753 2a.75.75 0 0 0-.75-.75zm-.747 17.495L11.25 3.267q-.15.199-.306.509L9.186 7.324c-.187.382-.499.71-.823.951-.324.242-.728.446-1.146.516l-3.19.534c-.887.15-1.18.502-1.25.719-.069.216-.033.677.607 1.319l.002.001 2.48 2.5c.322.325.537.758.655 1.176.119.418.163.898.065 1.34l-.002.005-.71 3.095c-.265 1.163.002 1.586.137 1.686.132.097.61.226 1.628-.38L10.628 19c.193-.116.406-.2.625-.256m4.419-13.097a.75.75 0 0 0-1.344.666l.5 1.01c.187.382.499.71.82.95.323.24.724.446 1.137.517h.002l3.19.534c.886.15 1.178.501 1.246.717.07.219.032.68-.605 1.322l-2.48 2.5c-.321.325-.536.758-.655 1.176-.118.418-.163.898-.064 1.34l.711 3.1c.265 1.155-.003 1.58-.14 1.682-.135.099-.613.229-1.624-.376l-.982-.586a.75.75 0 0 0-.769 1.288l.981.585c1.129.676 2.372.967 3.282.297.907-.667 1.009-1.94.714-3.225l-.709-3.09v-.002a1.3 1.3 0 0 1 .043-.604c.07-.243.18-.43.277-.528l2.48-2.5c.823-.83 1.28-1.85.97-2.832-.311-.984-1.275-1.55-2.428-1.743l-3.187-.534h-.001c-.117-.02-.3-.097-.49-.24a1.25 1.25 0 0 1-.371-.407z" clip-rule="evenodd"/></svg>