<svg xmlns="http://www.w3.org/2000/svg" fill="none" viewBox="0 0 24 24"><path fill="currentColor" fill-rule="evenodd" d="M12 1.249c4.27 0 7.75 3.48 7.75 7.75 0 2.48-1.18 4.69-3 6.11v5.4c0 1.03 0 1.78-.69 2.12-.17.08-.33.12-.49.12-.5 0-.99-.36-1.61-.83l-1.21-.91-.09-.068c-.284-.21-.57-.423-.66-.432-.09.009-.376.222-.66.432l-.09.068-1.2.9-.026.02c-.816.61-1.401 1.046-2.084.7-.69-.34-.69-1.09-.69-2.12v-5.4c-1.82-1.42-3-3.63-3-6.11 0-4.27 3.48-7.75 7.75-7.75m0 1.5c-3.45 0-6.25 2.8-6.25 6.25s2.8 6.25 6.25 6.25 6.25-2.8 6.25-6.25-2.8-6.25-6.25-6.25m3.25 17.77v-4.49a7.7 7.7 0 0 1-6.5 0v4.99l.147-.11c.08-.058.164-.12.243-.18l1.21-.91c.64-.48 1.07-.8 1.65-.8s1.01.32 1.65.8l1.2.9c.14.1.28.2.4.29zm-6.29-9.09.25-1.68h.04l-1.15-1.2c-.3-.31-.4-.75-.26-1.16.13-.4.47-.69.88-.76l1.57-.26.73-1.5c.19-.39.58-.63 1-.63s.81.24 1 .63l.73 1.5 1.57.26c.41.07.75.36.88.76.13.41.03.85-.26 1.16l-1.15 1.2.25 1.68c.06.44-.12.86-.47 1.11-.34.24-.79.27-1.16.07l-1.41-.75-1.41.75c-.16.09-.34.13-.52.13-.22 0-.45-.06-.64-.2-.36-.25-.53-.68-.47-1.11m2.57-4.23c-.16.33-.47.56-.82.62l-1.09.18.8.84c.24.25.35.61.3.96l-.17 1.13.93-.49c.16-.09.34-.13.52-.13s.36.04.52.13l.93.49-.17-1.13c-.05-.35.06-.71.3-.96l.8-.84-1.09-.18a1.13 1.13 0 0 1-.82-.62l-.47-.97z" clip-rule="evenodd"/></svg>