<svg xmlns="http://www.w3.org/2000/svg" fill="none" viewBox="0 0 24 24"><path fill="currentColor" fill-rule="evenodd" d="M6.207 11.75a5.45 5.45 0 0 1-2.48-.59V15c0 2.62 0 3.93.66 4.59s1.97.66 4.59.66h2c.41 0 .75.34.75.75s-.34.75-.75.75h-2c-2.94 0-4.55 0-5.65-1.1s-1.1-2.72-1.1-5.65V9.991c-.349-.362-.695-.795-.85-1.181-.33-.83.04-2.2.2-2.61l.68-1.96c.32-.97.68-1.9 1.14-2.36.43-.42 1.11-.63 2.08-.63h7.01c.684.013 1.662.009 2.659.004l1.49-.004h2.39c1.02.02 1.74.75 2.04 1.37 1.13 2.73 1.69 4.55 1.69 5.45 0 .05 0 .1-.02.15-.15.74-.81 2.55-3.54 3.3-2.11.58-3.54-.18-4.32-.84-.74.54-1.79 1.01-2.92 1.02-1.24-.02-2.21-.5-2.83-.97-.57.48-1.3.85-2.19.96-.26.03-.5.05-.74.05zm6.26-9h-7c-.79 0-1 .18-1.02.2-.12.12-.35.52-.77 1.75l-.69 2.01c-.18.49-.3 1.32-.22 1.54.12.29.79 1 1.14 1.24.03.02.06.04.09.07.18.18 1.26.84 2.75.64 1.59-.21 2.42-1.72 2.63-2.49.11-.4.52-.63.92-.52s.63.52.52.92c-.12.42-.34.96-.69 1.49.39.28 1.03.58 1.85.6h.03c1.22 0 2.28-.92 2.6-1.27 0 0 .25-.32.54-1.24.13-.39.55-.61.94-.49.39.13.61.55.49.94-.24.74-.47 1.21-.64 1.48.56.44 1.48.82 2.85.45 1.83-.5 2.32-1.57 2.45-2.08-.02-.36-.22-1.53-1.56-4.76 0 0-.26-.48-.71-.49h-2.35l-1.502.002c-1.002.002-1.985.005-2.668-.002zM16.758 22c0 .41.34.75.75.75s.75-.34.75-.75v-.67c.63-.14 1.2-.46 1.65-.92l.7.45c.35.22.82.12 1.04-.23.22-.36.12-.82-.23-1.04l-.72-.46c.13-.36.19-.75.19-1.13s-.06-.77-.19-1.13l.72-.46c.35-.23.45-.69.23-1.04a.76.76 0 0 0-1.04-.23l-.7.45c-.46-.46-1.02-.78-1.65-.92V14c0-.41-.34-.75-.75-.75s-.75.34-.75.75v.67c-.63.14-1.2.46-1.65.92l-.7-.45a.756.756 0 0 0-1.04.23c-.22.36-.12.82.23 1.04l.72.46c-.13.36-.19.74-.19 1.13s.06.77.19 1.13l-.72.46c-.35.23-.45.69-.23 1.04.23.35.69.45 1.04.23l.7-.45c.46.46 1.02.78 1.65.92zm.75-2.08c-.65 0-1.24-.34-1.59-.9a1.95 1.95 0 0 1 0-2.04c.35-.56.94-.89 1.59-.89s1.24.33 1.59.89a1.95 1.95 0 0 1 0 2.04c-.35.57-.94.9-1.59.9" clip-rule="evenodd"/></svg>