<svg xmlns="http://www.w3.org/2000/svg" fill="none" viewBox="0 0 24 24"><path fill="currentColor" fill-rule="evenodd" d="M7 2.75c.964 0 1.612.002 2.095.067.461.062.659.169.789.3s.237.327.3.788c.064.483.066 1.131.066 2.095v3.052c0 .899 0 1.648.08 2.242.084.628.27 1.195.726 1.65.455.456 1.022.642 1.65.726.594.08 1.344.08 2.242.08H18c.964 0 1.612.002 2.095.066.461.063.659.17.789.3s.237.328.3.79c.064.482.066 1.13.066 2.094v1c0 .964-.002 1.612-.067 2.095-.062.461-.169.659-.3.789s-.327.237-.788.3c-.483.064-1.131.066-2.095.066h-7a.75.75 0 0 0 0 1.5h7.052c.899 0 1.648 0 2.242-.08.628-.084 1.195-.27 1.65-.726.456-.455.642-1.022.726-1.65.08-.594.08-1.343.08-2.242v-1.104c0-.899 0-1.648-.08-2.242-.084-.628-.27-1.195-.726-1.65-.455-.456-1.022-.642-1.65-.726-.594-.08-1.343-.08-2.242-.08H15c-.964 0-1.612-.002-2.095-.066-.461-.063-.659-.17-.789-.3s-.237-.328-.3-.79c-.064-.482-.066-1.13-.066-2.094V5.948c0-.898 0-1.648-.08-2.242-.084-.628-.27-1.195-.726-1.65-.455-.456-1.022-.642-1.65-.726-.594-.08-1.344-.08-2.242-.08H5.948c-.898 0-1.648 0-2.242.08-.628.084-1.195.27-1.65.725-.456.456-.642 1.023-.726 1.65-.08.595-.08 1.345-.08 2.243V13a.75.75 0 0 0 1.5 0V6c0-.964.002-1.612.067-2.095.062-.461.169-.659.3-.789s.327-.237.788-.3C4.388 2.753 5.036 2.75 6 2.75zM2.75 19a2.25 2.25 0 1 1 4.5 0 2.25 2.25 0 0 1-4.5 0M5 15.25a3.75 3.75 0 1 0 0 7.5 3.75 3.75 0 0 0 0-7.5" clip-rule="evenodd"/></svg>