<svg xmlns="http://www.w3.org/2000/svg" fill="none" viewBox="0 0 24 24"><path fill="currentColor" fill-rule="evenodd" d="M10 1.25c-1.021 0-1.84.264-2.313 1.006-.366.574-.427 1.316-.436 2.008a8.3 8.3 0 0 0-1.433.163c-.619.136-1.163.376-1.589.802s-.666.97-.802 1.589C3.293 7.428 3.25 8.156 3.25 9v1.258q-.24.008-.447.035c-.356.048-.731.161-1.04.47s-.422.684-.47 1.04c-.043.323-.043.719-.043 1.152v.09c0 .433 0 .829.043 1.152.048.356.161.731.47 1.04s.684.422 1.04.47c.323.043.719.043 1.152.043h.09c.433 0 .83 0 1.152-.043.356-.048.731-.161 1.04-.47s.422-.684.47-1.04c.043-.323.043-.719.043-1.152v-.09c0-.433 0-.829-.043-1.152-.048-.356-.161-.731-.47-1.04s-.684-.422-1.04-.47a5 5 0 0 0-.447-.035V9c0-.811.043-1.41.142-1.86.097-.442.237-.69.397-.851.161-.16.409-.3.851-.397.316-.07.706-.111 1.191-.13.062.352.17.689.356.982C8.16 7.486 8.979 7.75 10 7.75h1.25v5.587a3.251 3.251 0 0 0 0 6.326V22a.75.75 0 0 0 1.5 0v-2.337a3.251 3.251 0 0 0 0-6.326V7.75H14c1.021 0 1.84-.264 2.313-1.006.187-.293.294-.63.356-.982.485.019.875.06 1.191.13.442.097.69.237.851.397.16.161.3.409.397.851.099.45.142 1.049.142 1.86v1.258a5 5 0 0 0-.447.035c-.356.048-.731.161-1.04.47s-.422.684-.47 1.04c-.043.323-.043.718-.043 1.151v.091c0 .434 0 .83.043 1.152.048.356.161.731.47 1.04s.684.422 1.04.47c.323.043.719.043 1.152.043h.09c.433 0 .829 0 1.152-.043.356-.048.731-.161 1.04-.47s.422-.684.47-1.04c.043-.323.043-.718.043-1.151v-.091c0-.434 0-.83-.043-1.152-.048-.356-.161-.731-.47-1.04s-.684-.422-1.04-.47a5 5 0 0 0-.447-.035V9c0-.844-.043-1.572-.177-2.182-.136-.619-.376-1.163-.802-1.589s-.97-.666-1.589-.802a8.3 8.3 0 0 0-1.433-.163c-.009-.692-.07-1.434-.436-2.008C15.84 1.514 15.021 1.25 14 1.25zm2 5h2c.794 0 .975-.198 1.048-.313.138-.216.202-.617.202-1.437s-.064-1.221-.202-1.437c-.073-.115-.254-.313-1.048-.313h-4c-.794 0-.975.198-1.048.313-.138.216-.202.617-.202 1.437s.064 1.221.202 1.437c.073.115.254.313 1.048.313zm-8 5.5c-.493 0-.787.002-.997.03a.7.7 0 0 0-.177.043h-.004v.003l-.001.002-.004.008a.7.7 0 0 0-.037.167c-.028.21-.03.504-.03.997s.002.787.03.997a.7.7 0 0 0 .037.167l.004.008.001.002v.004h.003l.002.001.008.004a.7.7 0 0 0 .167.037c.21.028.504.03.997.03s.787-.002.997-.03a.7.7 0 0 0 .167-.037l.008-.004.002-.001.004-.001v-.003l.001-.002.004-.008a.7.7 0 0 0 .037-.167c.028-.21.03-.504.03-.997s-.002-.787-.03-.997a.7.7 0 0 0-.037-.167l-.002-.005-.003-.005v-.004h-.003l-.002-.001-.008-.004a.7.7 0 0 0-.167-.037c-.21-.028-.504-.03-.997-.03m16 0c-.493 0-.787.002-.997.03a.7.7 0 0 0-.167.037l-.01.006h-.004v.003l-.001.002-.002.004-.002.004a.7.7 0 0 0-.037.167c-.028.21-.03.504-.03.997s.002.787.03.997a.7.7 0 0 0 .04.171v.002l.002.004.001.004h.003l.01.005c.022.009.07.024.167.037.21.028.504.03.997.03s.787-.002.997-.03a.7.7 0 0 0 .167-.037l.01-.005.004-.001v-.003l.001-.002.004-.008a.7.7 0 0 0 .037-.167c.028-.21.03-.504.03-.997s-.002-.787-.03-.997a.7.7 0 0 0-.037-.167l-.001-.003-.002-.003-.001-.002-.001-.002-.001-.004h-.003l-.002-.001-.008-.004a.7.7 0 0 0-.167-.037c-.21-.028-.504-.03-.997-.03m-6.25 4.75a1.75 1.75 0 1 1-3.501-.001 1.75 1.75 0 0 1 3.501.001" clip-rule="evenodd"/></svg>