<svg xmlns="http://www.w3.org/2000/svg" fill="none" viewBox="0 0 24 24"><path fill="currentColor" fill-rule="evenodd" d="M5 1.25c-.637 0-1.199.032-1.677.137-.486.107-.931.3-1.284.652s-.545.798-.652 1.284C1.282 3.801 1.25 4.363 1.25 5s.032 1.199.137 1.677c.107.486.3.931.652 1.284s.798.545 1.284.652c.478.105 1.04.137 1.677.137h2c.637 0 1.199-.032 1.677-.137.486-.107.931-.3 1.284-.652q.083-.084.155-.174l2.742 8.445.003.01c-.242.314-.386.684-.474 1.081-.105.478-.137 1.04-.137 1.677s.032 1.199.137 1.677c.107.486.3.931.652 1.284s.798.545 1.284.652c.478.105 1.04.137 1.677.137h2c.637 0 1.199-.032 1.677-.137.486-.107.931-.3 1.284-.652s.545-.798.652-1.284c.105-.478.137-1.04.137-1.677s-.032-1.199-.137-1.677c-.107-.486-.3-.931-.652-1.284s-.798-.545-1.284-.652c-.478-.105-1.04-.137-1.677-.137h-2c-.637 0-1.199.032-1.677.137l-.15.036-2.965-9.132 3.126 1.25A10 10 0 0 0 14.25 9c0 .635.028 1.189.118 1.657.09.472.254.912.566 1.268.63.72 1.625.825 2.691.825h1.75c1.066 0 2.06-.104 2.691-.825.312-.356.475-.796.566-1.268.09-.468.118-1.022.118-1.657s-.028-1.189-.118-1.657c-.09-.472-.254-.912-.566-1.268-.63-.72-1.625-.825-2.691-.825h-1.75c-1.066 0-2.06.104-2.691.825l-.057.068-4.135-1.654a6.6 6.6 0 0 0-.13-1.166c-.106-.486-.298-.931-.65-1.284-.354-.353-.799-.545-1.285-.652C8.199 1.282 7.637 1.25 7 1.25zM2.75 5c0-.604.033-1.037.102-1.355.068-.309.16-.458.248-.545.087-.087.236-.18.545-.248.318-.07.75-.102 1.355-.102h2c.604 0 1.037.033 1.355.102.309.068.458.16.545.248.087.087.18.236.248.545.07.318.102.75.102 1.355 0 .604-.033 1.037-.102 1.355-.068.309-.16.458-.248.545-.087.087-.236.18-.545.248-.318.07-.75.102-1.355.102H5c-.604 0-1.037-.033-1.355-.102-.309-.068-.458-.16-.545-.248-.087-.087-.18-.236-.248-.545-.07-.318-.102-.75-.102-1.355m13 4c0-.606.028-1.048.091-1.374.062-.324.148-.479.222-.563.138-.158.457-.313 1.562-.313h1.75c1.105 0 1.424.155 1.563.313.073.084.159.24.22.563.063.326.092.768.092 1.374s-.029 1.048-.091 1.374c-.062.324-.148.479-.221.563-.14.158-.458.313-1.563.313h-1.75c-1.105 0-1.424-.155-1.562-.313-.074-.084-.16-.24-.222-.563-.062-.326-.091-.768-.091-1.374m-1.898 8.645c-.07.317-.102.75-.102 1.355 0 .604.033 1.038.102 1.355.068.309.16.459.248.545.087.087.236.18.545.248.318.07.75.102 1.355.102h2c.604 0 1.038-.032 1.355-.102.309-.068.459-.16.545-.248.087-.086.18-.236.248-.545.07-.317.102-.75.102-1.355 0-.604-.032-1.038-.102-1.355-.068-.309-.16-.459-.248-.545-.086-.087-.236-.18-.545-.248-.317-.07-.75-.102-1.355-.102h-2c-.604 0-1.037.032-1.355.102-.309.068-.458.16-.545.248-.087.086-.18.236-.248.545" clip-rule="evenodd"/></svg>