<svg xmlns="http://www.w3.org/2000/svg" fill="none" viewBox="0 0 24 24"><path fill="currentColor" fill-rule="evenodd" d="M12 2.75c-4.046 0-7.414 2.792-8.232 6.498-.063.284.04.649.317 1.114.162.272.338.627.436 1.027q.228.08.43.211c.367.237.61.563.77.904.304.647.336 1.424.336 1.996a.75.75 0 1 1-1.5 0c0-.568-.045-1.042-.194-1.36a.64.64 0 0 0-.226-.28c-.082-.053-.225-.11-.483-.11-.583 0-.976.498-.891.992l.003.023q.05.354.097.646c.072.45.14.806.202 1.138.042.221.082.432.12.653.043.253.213.518.489.73.28.217.589.318.803.318h.076c.282 0 .576-.001.832.078.227.07.388.155.574.302.137.11.246.243.333.36s.191.268.311.444l.01.013C7.765 20.133 9.744 21.25 12 21.25s4.234-1.117 5.388-2.803l.009-.013.054-.08c.097-.141.183-.265.258-.364a2 2 0 0 1 .332-.36c.186-.147.348-.233.574-.302.256-.08.55-.079.832-.078h.076c.657 0 1.191-.46 1.292-1.048l.422-2.46c.085-.494-.308-.992-.89-.992-.259 0-.402.057-.484.11a.63.63 0 0 0-.226.28c-.149.318-.194.792-.194 1.36a.75.75 0 0 1-1.5 0c0-.572.033-1.349.336-1.996.16-.34.403-.667.77-.904q.201-.129.43-.21c.098-.401.274-.756.436-1.028.277-.465.379-.83.316-1.114C19.414 5.542 16.047 2.75 12 2.75m-9.204 8.38q.07.117.125.232c-1.086.341-1.839 1.42-1.639 2.622.115.813.225 1.398.317 1.885.04.21.076.402.107.587.123.711.557 1.282 1.05 1.663.489.378 1.112.631 1.721.631.189 0 .303 0 .388.005l.082.007.04.014.032.023c.006.006.028.03.072.09.067.089.152.213.283.405 1.43 2.087 3.867 3.456 6.627 3.456s5.197-1.369 6.626-3.456c.131-.192.216-.316.283-.405a1 1 0 0 1 .073-.09l.03-.023.041-.014.083-.007c.085-.005.198-.005.387-.005 1.356 0 2.54-.955 2.77-2.294l.423-2.46c.207-1.207-.547-2.292-1.638-2.634q.056-.116.125-.232c.328-.55.684-1.341.493-2.205-.97-4.397-4.95-7.675-9.697-7.675S3.274 4.528 2.303 8.924c-.19.865.166 1.657.493 2.206M12 8.75c-2.08 0-4 .687-5.55 1.85a.75.75 0 0 1-.9-1.2 10.8 10.8 0 0 1 2.7-1.477c.02-1.167.474-2.098 1.19-2.734S11.09 4.25 12 4.25s1.844.302 2.56.94c.716.635 1.17 1.566 1.19 2.733.974.363 1.881.863 2.7 1.477a.75.75 0 0 1-.9 1.2A9.2 9.2 0 0 0 12 8.75m2.204-1.273a2 2 0 0 0-.64-1.166c-.408-.363-.974-.561-1.564-.561s-1.156.198-1.564.56a2 2 0 0 0-.64 1.167 10.8 10.8 0 0 1 4.408 0M9.008 14a1 1 0 1 0 0-2h-.01a1 1 0 1 0 0 2zm7-1a1 1 0 0 1-1 1h-.01a1 1 0 1 1 0-2h.01a1 1 0 0 1 1 1M9.53 16.47a.75.75 0 0 0-1.06 1.06c.39.39 1.057.7 1.76.778a2.83 2.83 0 0 0 1.77-.363 2.83 2.83 0 0 0 1.77.363c.703-.078 1.37-.388 1.76-.778a.75.75 0 1 0-1.06-1.06c-.11.11-.443.3-.865.347-.392.044-.772-.044-1.075-.347a.75.75 0 0 0-1.06 0c-.303.303-.683.39-1.075.347-.422-.047-.754-.237-.865-.347" clip-rule="evenodd"/></svg>