<svg xmlns="http://www.w3.org/2000/svg" fill="none" viewBox="0 0 24 24"><path fill="currentColor" fill-rule="evenodd" d="M10.055 3.467a8.75 8.75 0 0 1 7.948 14.9V17a.75.75 0 0 0-1.5 0v2.917c0 .414.336.75.75.75H20.5a.75.75 0 0 0 0-1.5h-1.172A10.22 10.22 0 0 0 22.25 12c0-5.66-4.59-10.25-10.25-10.25-.782 0-1.544.088-2.277.254a.75.75 0 1 0 .332 1.463M3.5 3.35a.75.75 0 1 0 0 1.5h1.156A10.22 10.22 0 0 0 1.75 12c0 5.66 4.59 10.25 10.25 10.25.782 0 1.544-.088 2.277-.254a.75.75 0 1 0-.332-1.463A8.75 8.75 0 0 1 5.972 5.657V7a.75.75 0 0 0 1.5 0V4.1a.75.75 0 0 0-.75-.75zm9.614 4.08a.75.75 0 1 0-1.228-.86l-3.5 5A.75.75 0 0 0 9 12.75h4.56l-2.674 3.82a.75.75 0 1 0 1.228.86l3.5-5A.75.75 0 0 0 15 11.25h-4.56z" clip-rule="evenodd"/></svg>