<svg xmlns="http://www.w3.org/2000/svg" fill="none" viewBox="0 0 24 24"><path fill="currentColor" fill-rule="evenodd" d="M8.002 1.248a2.24 2.24 0 0 0-2.24 2.238V8.66c-.602.56-1.22 1.184-1.725 1.727-.287.31-.544.598-.743.838a4.3 4.3 0 0 0-.435.594c-.514.794-.72 1.584-.552 2.462.158.827.636 1.654 1.275 2.566.961 1.37 2.241 2.887 2.32 2.977.234.264.308.464.341.727.029.232.025.471.019.82-.003.174-.007.377-.007.619a.75.75 0 0 0 1.5 0q0-.235.006-.47c.006-.412.013-.813-.03-1.155-.069-.554-.265-1.037-.704-1.534l-.009-.01-.008-.01-.05-.059-.168-.201c-.14-.17-.33-.402-.548-.673a39 39 0 0 1-1.433-1.892c-.625-.89-.937-1.495-1.03-1.986-.083-.43-.01-.838.351-1.387l.026-.038.019-.04v.002l.001-.003q.007-.013.062-.088.076-.102.207-.262c.177-.212.413-.479.689-.775.194-.21.406-.43.627-.655v2.76a.75.75 0 1 0 1.5 0V3.486a.739.739 0 0 1 1.479 0v7.526a.75.75 0 0 0 1.5 0v-2.04a.74.74 0 0 1 .698-.138c.309.088.672.382.81 1.008l.006.032a1 1 0 0 1 .008.13v1.004a.75.75 0 0 0 1.5 0v-1.003l-.002-.08c.108-.13.338-.232.714-.122.418.121.777.472.777 1.058v1.146a.75.75 0 1 0 1.5 0v-1.021c.026-.05.058-.063.098-.074.098-.028.29-.026.537.076.52.215.879.68.863 1.142v3.202c-.003 1.644-.277 2.655-1.098 3.479l-.023.023-.021.024c-.545.65-.796 1.214-.887 1.783-.043.27-.046.519-.043.736l.004.209c.003.136.006.257.002.396a.75.75 0 0 0 1.5.04c.005-.178 0-.36-.003-.51v-.001l-.003-.154c-.003-.19.002-.337.025-.48.04-.25.148-.563.536-1.032 1.21-1.23 1.508-2.715 1.511-4.51v-3.169c.035-1.274-.899-2.196-1.79-2.564-.457-.189-1.001-.278-1.512-.135l-.069.02a2.6 2.6 0 0 0-1.485-1.125c-.5-.145-1.107-.141-1.624.09a2.54 2.54 0 0 0-1.42-1.06 2.3 2.3 0 0 0-1.11-.04V3.486a2.24 2.24 0 0 0-2.239-2.238m11.249.77a.75.75 0 0 0-1.5 0V6.47l-.006-.007c-.21-.248-.417-.51-.61-.756l-.044-.056a9 9 0 0 0-.552-.663.75.75 0 0 0-1.075 1.046c.089.091.234.273.448.544l.047.06c.19.241.413.525.642.796.246.29.522.591.797.825.138.118.294.234.461.323.162.086.384.175.642.175s.48-.089.642-.175a2.6 2.6 0 0 0 .46-.323c.276-.234.551-.535.798-.825.23-.271.452-.555.642-.797l.047-.06c.213-.27.359-.452.448-.543a.75.75 0 1 0-1.076-1.046 9 9 0 0 0-.55.663l-.046.056c-.192.246-.399.508-.61.756l-.005.007z" clip-rule="evenodd"/></svg>