<svg xmlns="http://www.w3.org/2000/svg" fill="none" viewBox="0 0 24 24"><path fill="currentColor" fill-rule="evenodd" d="M12 1.25a.75.75 0 0 1 .75.75v.712c.351.358.873.746 1.513 1.214l.06.044c.7.511 1.504 1.098 2.142 1.759.383.397.736.851.976 1.368l.035-.021.294-.165.183-.103.177-.103.12-.074V6a.75.75 0 0 1 1.5 0v.7c.124.108.282.23.476.381l.207.162c.39.305.866.693 1.226 1.168.371.489.655 1.117.579 1.878q-.084.809-.684 1.62c.275.028.565.128.802.357.291.283.394.656.394 1.004V22a.75.75 0 0 1-.75.75H2a.75.75 0 0 1-.75-.75v-8.73c0-.348.103-.721.394-1.004.237-.229.527-.329.802-.357q-.6-.812-.683-1.62c-.077-.761.207-1.389.578-1.878.36-.475.836-.863 1.226-1.168l.207-.162.14-.108q.197-.153.336-.273V6a.75.75 0 0 1 1.5 0v.631l.12.074c.118.071.234.135.36.206l.14.078.154.087.036.021c.239-.517.592-.971.975-1.368.638-.661 1.442-1.248 2.141-1.759l.061-.044c.64-.468 1.162-.856 1.513-1.214V2a.75.75 0 0 1 .75-.75m3.25 10.5h-6.5v9.5h2.5V19a.75.75 0 0 1 1.5 0v2.25h2.5zm-8 .324-2.665.977a5.6 5.6 0 0 1-1.835.348v7.851h4.5zm9.5 0v9.176h4.5v-7.851a5.6 5.6 0 0 1-1.835-.348zM19 16.25a.75.75 0 0 1 .75.75v1a.75.75 0 0 1-1.5 0v-1a.75.75 0 0 1 .75-.75m-14 0a.75.75 0 0 1 .75.75v1a.75.75 0 0 1-1.5 0v-1a.75.75 0 0 1 .75-.75m7-2a.75.75 0 0 1 .75.75v1a.75.75 0 0 1-1.5 0v-1a.75.75 0 0 1 .75-.75m6.933-6.278-.033.02c-.13.078-.287.166-.434.248l-.243.137a4 4 0 0 0-.481.311q-.07.94-.711 1.891l2.82 1.034a1 1 0 0 1 .103-.133c.59-.613.762-1.053.791-1.342.027-.271-.06-.529-.281-.82-.232-.305-.568-.59-.955-.894l-.167-.129c-.131-.102-.272-.21-.409-.323m-13.866 0-.206.165-.203.158-.167.129c-.387.304-.723.589-.955.894-.22.291-.308.549-.281.82.029.289.202.729.791 1.342q.06.063.103.133l2.82-1.034q-.641-.95-.71-1.891a4 4 0 0 0-.482-.311L5.66 8.31l-.127-.071c-.147-.082-.304-.17-.434-.248zM12 4.065c-.414.367-.896.72-1.352 1.053l-.034.025c-.739.539-1.453 1.061-2 1.628-.548.568-.836 1.092-.862 1.61-.023.458.153 1.069.858 1.869h6.78c.705-.8.88-1.411.858-1.869-.026-.518-.314-1.042-.863-1.61-.546-.567-1.26-1.089-1.999-1.628l-.034-.025c-.456-.333-.938-.686-1.352-1.053" clip-rule="evenodd"/></svg>