<svg xmlns="http://www.w3.org/2000/svg" fill="none" viewBox="0 0 24 24"><path fill="currentColor" fill-rule="evenodd" d="M12.558 1.25H9.442c-.842 0-1.595 0-2.267.02a.75.75 0 0 0-.405.016q-.665.03-1.216.106c-1.043.148-1.9.462-2.573 1.17-.668.704-.959 1.59-1.097 2.669-.134 1.05-.134 2.393-.134 4.084v5.37c0 1.691 0 3.033.134 4.084.138 1.08.43 1.965 1.097 2.669.674.708 1.53 1.022 2.573 1.17 1.006.142 2.287.142 3.888.142H12.5a.75.75 0 0 0 0-1.5h-3c-1.672 0-2.847-.002-3.735-.128-.863-.122-1.344-.347-1.696-.718-.357-.375-.579-.898-.697-1.825-.12-.945-.122-2.19-.122-3.947V9.368c0-1.756.001-3.002.122-3.947.118-.927.34-1.45.697-1.825.352-.37.833-.596 1.696-.719a10 10 0 0 1 .61-.064c.083.497.16.932.265 1.286.125.419.313.81.676 1.118.363.307.78.429 1.215.483.402.05.897.05 1.466.05h2.006c.569 0 1.064 0 1.467-.05.433-.054.85-.176 1.214-.483.363-.308.551-.7.676-1.118.105-.354.182-.789.265-1.286q.326.024.61.064c.863.123 1.344.348 1.696.719.357.375.578.898.697 1.825.12.945.122 2.19.122 3.947V11a.75.75 0 0 0 1.5 0V9.315c0-1.691 0-3.033-.134-4.084-.138-1.08-.43-1.965-1.097-2.668-.674-.71-1.53-1.023-2.573-1.17a13 13 0 0 0-1.215-.107.76.76 0 0 0-.406-.015c-.672-.021-1.425-.021-2.267-.021m-4.48 2.42a8 8 0 0 1-.19-.914c.48-.006 1.014-.006 1.612-.006h3c.598 0 1.133 0 1.613.006-.07.405-.124.691-.19.915-.08.268-.152.353-.209.401s-.152.105-.43.14c-.299.037-.7.038-1.325.038H10.04c-.626 0-1.026-.001-1.325-.039-.277-.034-.373-.09-.43-.139-.057-.048-.128-.133-.208-.401M18.75 15a.75.75 0 0 0-1.5 0v2.75H14.5a.75.75 0 0 0 0 1.5h2.75V22a.75.75 0 0 0 1.5 0v-2.75h2.75a.75.75 0 0 0 0-1.5h-2.75zM7 10.25a.75.75 0 0 0 0 1.5h8a.75.75 0 0 0 0-1.5zm0 5a.75.75 0 0 0 0 1.5h4a.75.75 0 0 0 0-1.5z" clip-rule="evenodd"/></svg>