<svg xmlns="http://www.w3.org/2000/svg" fill="none" viewBox="0 0 24 24"><path fill="currentColor" fill-rule="evenodd" d="M2.751 10.486c-.015-.823.122-.958.188-1.007.06-.045.194-.111.49-.16.294-.048.69-.069 1.23-.069H9.25v3.64c-.604.235-1.086.749-1.195 1.438l-.292 1.852c-.058.372.08.689.278.91.18.2.409.327.606.409.4.166.893.241 1.345.25.448.009.951-.046 1.364-.213.206-.084.445-.218.627-.44.202-.245.307-.566.251-.916l-.291-1.852c-.11-.688-.59-1.202-1.193-1.436V9.25h4.59c.541 0 .937.021 1.231.07.296.048.43.114.49.16.066.048.204.183.188 1.006-.073 3.812-.573 7.166-3.652 9.534-.412.316-.765.488-1.149.589-.399.104-.866.141-1.529.141H9.081c-.663 0-1.13-.037-1.529-.141-.384-.1-.737-.273-1.149-.59-3.079-2.367-3.579-5.721-3.652-9.533M4.66 7.75h10.68c.565 0 1.057.021 1.473.089.414.068.813.19 1.145.438.5.372.694.903.761 1.473h.921c.475 0 .9.017 1.264.07.362.053.72.149 1.029.345.71.452.84 1.208.814 1.944-.04 1.187-.329 2.535-1.2 3.692-.88 1.172-2.294 2.063-4.416 2.438l-.017.002a9.8 9.8 0 0 1-2.603 2.968c-.549.422-1.08.693-1.683.85-.587.154-1.207.191-1.909.191H9.081c-.701 0-1.322-.037-1.909-.19-.602-.158-1.134-.429-1.683-.851-3.67-2.821-4.164-6.827-4.237-10.695-.016-.835.071-1.701.79-2.237.332-.248.731-.37 1.145-.438.416-.068.909-.089 1.472-.089m14.07 3.5h.911c.452 0 .79.017 1.048.054.26.038.384.091.44.126l.003.002c.025.014.136.073.117.627-.034.996-.274 2.009-.899 2.84-.489.65-1.252 1.242-2.459 1.618.585-1.681.775-3.48.839-5.267m-8.73 3c-.291 0-.442.186-.462.312l-.248 1.577c.175.06.438.105.732.11.286.006.532-.027.694-.076l-.254-1.611c-.02-.126-.171-.312-.462-.312m1.705-11.112a.75.75 0 0 0-.79-1.276c-.432.268-.84.774-1.135 1.369A5.1 5.1 0 0 0 9.25 5.5a.75.75 0 1 0 1.5 0c0-.625.159-1.176.37-1.603.222-.445.468-.69.583-.76m2.935.467a.75.75 0 0 1-.167.98l-.006.01q-.047.082-.102.255a2.4 2.4 0 0 0-.114.65.75.75 0 0 1-1.5 0c0-.342.074-.751.182-1.098.056-.176.127-.36.217-.526a1.36 1.36 0 0 1 .458-.514.75.75 0 0 1 1.032.243M8.09 3.49a.75.75 0 0 1-.029 1.05l-.023.026a1 1 0 0 0-.108.165c-.084.156-.18.41-.18.77a.75.75 0 1 1-1.5 0c0-.641.174-1.138.36-1.482a2.6 2.6 0 0 1 .361-.51l.036-.037.013-.012.005-.006.003-.002.001-.001.001-.001a.75.75 0 0 1 1.06.04" clip-rule="evenodd"/></svg>