<svg xmlns="http://www.w3.org/2000/svg" fill="none" viewBox="0 0 24 24"><path fill="currentColor" fill-rule="evenodd" d="M20.144 3.826c-.662.153-1.557.506-2.861 1.023L5.416 9.561c-1.045.415-1.755.699-2.221.959-.229.128-.349.224-.409.289a.2.2 0 0 0-.034.045.4.4 0 0 0 0 .07.2.2 0 0 0 .034.046c.06.065.18.161.408.29.465.261 1.174.548 2.218.966l.13.052c.798.319 1.411.564 1.86 1.044q.075.08.143.166c.409.507.578 1.156.802 2.017l.037.14.488 1.866c.075.284.133.504.183.675.105-.137.233-.314.398-.543l1.559-2.167a4 4 0 0 1-.356-.41 1.3 1.3 0 0 1-.28-.789c0-.338.14-.597.28-.79.12-.164.287-.337.446-.503l.024-.026L14.7 9.234a.75.75 0 0 1 1.083 1.039l-3.573 3.724a14 14 0 0 0-.263.28l.038.043c.06.066.133.141.225.237l.318.332.022.024 3.241 3.685c.617.702 1.025 1.162 1.35 1.438a1.2 1.2 0 0 0 .326.212l.003-.002.02-.021a1.3 1.3 0 0 0 .182-.346c.162-.408.31-1.018.532-1.94l2.39-9.968c.338-1.408.57-2.384.638-3.095.068-.718-.059-.92-.16-1.014-.087-.081-.266-.188-.927-.036m-8.1 12.784-1.405 1.952c-.262.366-.507.705-.731.938-.224.23-.63.57-1.194.458-.558-.11-.808-.572-.932-.868-.126-.3-.232-.708-.348-1.15l-.501-1.916c-.279-1.065-.375-1.37-.556-1.596l-.072-.082c-.191-.205-.462-.331-1.451-.728l-.055-.022c-.975-.39-1.779-.713-2.341-1.03-.545-.306-1.133-.752-1.2-1.504a2 2 0 0 1 0-.351c.07-.752.66-1.196 1.205-1.5.563-.315 1.368-.635 2.345-1.022L16.792 3.43c1.226-.487 2.228-.885 3.016-1.067.803-.185 1.632-.204 2.282.397.637.59.714 1.42.634 2.256-.079.83-.338 1.91-.657 3.242l-2.42 10.087c-.203.85-.375 1.566-.581 2.086-.209.526-.543 1.09-1.218 1.268-.683.18-1.247-.156-1.676-.52-.421-.356-.902-.902-1.468-1.546z" clip-rule="evenodd"/></svg>