<svg xmlns="http://www.w3.org/2000/svg" fill="none" viewBox="0 0 24 24"><path fill="currentColor" fill-rule="evenodd" d="M12 3.75a.75.75 0 0 0 0 1.5h10a.75.75 0 0 0 0-1.5zm0 5a.75.75 0 0 0 0 1.5h7a.75.75 0 0 0 0-1.5zm-.75 5.75a.75.75 0 0 1 .75-.75h10a.75.75 0 0 1 0 1.5H12a.75.75 0 0 1-.75-.75m.75 4.25a.75.75 0 0 0 0 1.5h7a.75.75 0 0 0 0-1.5zM4.61 7.44c-.248.194-.544.498-1.01.98l-1.065 1.1a.75.75 0 1 1-1.078-1.04l1.065-1.102.034-.036c.421-.435.79-.817 1.13-1.082.369-.289.787-.509 1.31-.509s.941.22 1.31.509c.34.265.709.647 1.13 1.082l.035.036L8.535 8.48a.75.75 0 1 1-1.078 1.04l-1.065-1.1c-.466-.482-.762-.786-1.01-.98-.227-.177-.325-.19-.386-.19-.06 0-.16.013-.387.19M2.54 13.48a.75.75 0 0 0-1.08 1.042l1.066 1.102.034.036c.421.435.79.817 1.13 1.082.369.289.787.509 1.31.509s.941-.22 1.31-.509c.34-.265.709-.647 1.13-1.082l.034-.036L8.54 14.52a.75.75 0 0 0-1.078-1.042L6.396 14.58c-.466.482-.762.786-1.01.98-.227.177-.325.19-.386.19-.06 0-.16-.013-.387-.19-.247-.194-.543-.498-1.009-.98z" clip-rule="evenodd"/></svg>