<svg xmlns="http://www.w3.org/2000/svg" fill="none" viewBox="0 0 24 24"><path fill="currentColor" fill-rule="evenodd" d="M12.003 2.25h-.09l-.03.001c-1.375.002-3.13.034-4.548.18l-.035.004q-.311.027-.606.056A2.713 2.713 0 0 0 4.25 5.202v.268l-.001.337v.096A.757.757 0 0 0 5 6.659a.75.75 0 0 0 .75-.75v-.33c.003-.422.014-.57.05-.692a1.3 1.3 0 0 1 .73-.814c.138-.057.305-.082.914-.145a39 39 0 0 1 1.587-.113 73 73 0 0 1 2.218-.056V20.25H9.001a.75.75 0 0 0 0 1.5h6a.75.75 0 0 0 0-1.5h-2.25V3.761c.39.006.859.014 1.227.023.928.022 2.117.114 3.104.203.206.028.302.05.388.086.34.139.625.456.73.814.043.15.05.336.05 1.016a.755.755 0 0 0 .751.756.75.75 0 0 0 .75-.75v-.696a2.713 2.713 0 0 0-2.486-2.715q-.236-.03-.51-.057l-.09-.01c-1.432-.147-3.205-.179-4.585-.18zm-4.667.182h-.001.004z" clip-rule="evenodd"/></svg>