<svg xmlns="http://www.w3.org/2000/svg" fill="none" viewBox="0 0 24 24"><path fill="currentColor" fill-rule="evenodd" d="M3.36 20.64c1.61 1.61 3.96 1.61 8.64 1.61s7.028 0 8.639-1.609c1.611-1.61 1.611-3.96 1.611-8.64 0-4.682 0-7.03-1.611-8.64S16.68 1.75 12 1.75s-7.03 0-8.64 1.608C1.75 4.97 1.75 7.32 1.75 12c0 4.681 0 7.03 1.61 8.64M12 3.25c4.266 0 6.408 0 7.579 1.171 1.171 1.17 1.171 3.312 1.171 7.58 0 4.266 0 6.408-1.171 7.578C18.407 20.75 16.266 20.75 12 20.75s-6.408 0-7.579-1.17S3.25 16.266 3.25 12s0-6.409 1.171-7.579S7.734 3.251 12 3.251m.017 3h-.036c-1.028.025-1.895.069-2.611.157-.709.086-1.321.22-1.813.453-.514.243-.916.603-1.141 1.124-.214.494-.23 1.047-.162 1.606a.75.75 0 1 0 1.49-.18c-.053-.438-.014-.685.049-.831.051-.12.148-.242.404-.363.278-.13.705-.241 1.355-.32.47-.058 1.031-.097 1.697-.122v8.476h-1.25a.75.75 0 0 0 0 1.5h4a.75.75 0 1 0 0-1.5h-1.25V7.775c.674.028 1.243.072 1.721.134.657.087 1.094.205 1.377.341.266.128.358.252.402.358.053.13.085.354.012.76a.75.75 0 0 0 1.476.265c.098-.545.105-1.096-.102-1.598-.218-.526-.624-.889-1.136-1.136-.494-.238-1.113-.382-1.833-.477-.728-.095-1.608-.146-2.649-.172" clip-rule="evenodd"/></svg>