<svg xmlns="http://www.w3.org/2000/svg" fill="none" viewBox="0 0 24 24"><path fill="currentColor" fill-rule="evenodd" d="M12.057 1.75h-.114c-2.19 0-3.912 0-5.255.18-1.377.186-2.469.573-3.327 1.43-.858.86-1.245 1.951-1.43 3.328-.181 1.343-.181 3.064-.181 5.255v.114c0 2.19 0 3.912.18 5.255.186 1.377.573 2.469 1.43 3.327.86.858 1.951 1.245 3.328 1.43 1.343.181 3.064.181 5.255.181h.114c2.19 0 3.912 0 5.255-.18 1.377-.186 2.469-.573 3.327-1.43.858-.86 1.245-1.951 1.43-3.328.181-1.343.181-3.064.181-5.255v-.114c0-2.19 0-3.912-.18-5.255-.186-1.377-.573-2.469-1.43-3.327-.86-.858-1.951-1.245-3.328-1.43-1.343-.181-3.064-.181-5.255-.181M4.422 4.422c.533-.533 1.256-.842 2.466-1.005C8.12 3.252 9.74 3.25 12 3.25s3.88.002 5.112.167c1.21.163 1.933.472 2.466 1.005s.842 1.256 1.005 2.466c.165 1.232.167 2.852.167 5.112s-.002 3.88-.167 5.112c-.163 1.21-.471 1.933-1.005 2.466s-1.256.842-2.466 1.005c-1.232.165-2.852.167-5.112.167s-3.88-.002-5.112-.167c-1.21-.163-1.933-.471-2.466-1.005s-.842-1.256-1.005-2.466C3.252 15.88 3.25 14.26 3.25 12s.002-3.88.167-5.112c.163-1.21.472-1.933 1.005-2.466m7.71.626.04.001h.02q.056-.003.15-.002a5.9 5.9 0 0 1 2.122.44c1.26.52 2.649 1.637 3.26 3.912a.75.75 0 0 1-1.448.389c-.477-1.772-1.502-2.551-2.384-2.915a4.4 4.4 0 0 0-1.564-.326h-.09l-.017.001h-.001l-.047.004-.048-.003h-.002l-.027-.002h-.128a4.36 4.36 0 0 0-2.012.551c-1.03.585-2.206 1.868-2.206 4.906s1.175 4.321 2.206 4.905a4.36 4.36 0 0 0 2.14.551h.027l.003-.001.046-.003.047.003h.014l.074.002q.104.001.305-.014a4.6 4.6 0 0 0 1.038-.212 3.86 3.86 0 0 0 2.312-2.019c.172-.507.198-1.177-.147-1.697a1.8 1.8 0 0 0-.526-.507c-.37 1.649-1.82 2.504-3.117 2.504-1.341 0-2.474-.943-2.474-2.13 0-.593.183-1.084.488-1.465.296-.37.673-.596 1.008-.735a3.7 3.7 0 0 1 1.28-.273h.042l.001.75v-.75q.714 0 1.318.08a2 2 0 0 0-.138-.398 1.47 1.47 0 0 0-.806-.777c-.701-.275-1.497.002-1.8.506a.75.75 0 1 1-1.286-.772c.732-1.22 2.35-1.633 3.632-1.131a2.97 2.97 0 0 1 1.618 1.539 4 4 0 0 1 .352 1.43c.749.307 1.294.75 1.657 1.299.71 1.068.573 2.3.297 3.07l-.013.038-.018.036a5.36 5.36 0 0 1-3.21 2.826 6 6 0 0 1-1.812.302l-.127-.002h-.049q-.073.003-.2 0a5.86 5.86 0 0 1-2.716-.745c-1.555-.881-2.966-2.7-2.966-6.21 0-3.511 1.41-5.329 2.967-6.21a5.86 5.86 0 0 1 2.916-.746m.389 7.364c.517 0 .959.037 1.336.099l-.01.063a1.7 1.7 0 0 1-1.675 1.442c-.727 0-.974-.47-.974-.63 0-.268.076-.424.16-.528q.139-.173.413-.288a2.2 2.2 0 0 1 .702-.156l.042-.002z" clip-rule="evenodd"/></svg>