<svg xmlns="http://www.w3.org/2000/svg" fill="none" viewBox="0 0 24 24"><path fill="currentColor" fill-rule="evenodd" d="M5.375 17.916a.75.75 0 0 0 .634.334h.01a.75.75 0 0 0 .625-.368c.002-.005.28-.47.79-1.2a.75.75 0 1 0-1.228-.859q-.103.147-.192.279l-.041.06c-1.737-2.327-3.014-2.945-3.17-3.014 0 0-.316-.14-.593-.023s-.38.36-.38.36-.144.273-.046.586.4.443.4.443h.001c.025.013 1.38.687 3.19 3.402m4.027-5.022a.75.75 0 0 0 1.058-.088c2.356-2.78 4.56-4.729 6.375-5.636a.75.75 0 0 0-.671-1.34c-2.023 1.01-4.327 3.032-6.85 6.007a.75.75 0 0 0 .088 1.057m.973 5.022a.75.75 0 0 0 .624.334h.005a.75.75 0 0 0 .625-.343c.054-.084 5.448-8.358 10.206-10.737a.75.75 0 0 0-.67-1.34c-2.169 1.084-4.649 3.315-7.37 6.632a59 59 0 0 0-2.808 3.718c-1.744-2.342-3.027-2.963-3.183-3.032 0 0-.22-.117-.53-.033s-.427.342-.427.342-.164.252-.069.587c.096.335.407.47.407.47.025.013 1.38.687 3.19 3.402" clip-rule="evenodd"/></svg>