<svg xmlns="http://www.w3.org/2000/svg" fill="none" viewBox="0 0 24 24"><path fill="currentColor" fill-rule="evenodd" d="M10.946 3.05c.695-.246.877-.3 1.054-.3s.36.054 1.055.3l.9.32c.55.194.884.315 1.11.433a.8.8 0 0 1 .172.113l.009.01.002.003v.002l.002.003v.022a.8.8 0 0 1-.06.209c-.096.243-.274.56-.564 1.076l-.516.914c-.288.51-.35.595-.442.668-.095.076-.16.104-.616.235-.397.113-.783.192-1.052.192s-.655-.079-1.052-.192c-.456-.13-.52-.16-.616-.235-.092-.073-.153-.158-.441-.668l-.517-.914c-.29-.515-.468-.833-.563-1.076a.8.8 0 0 1-.06-.23V3.93l.001-.002.002-.003.01-.01a.8.8 0 0 1 .172-.113c.225-.118.56-.239 1.11-.434zM12 1.25c-.467 0-.907.156-1.459.352l-.096.035-.9.318-.048.017c-.487.173-.927.328-1.26.504-.364.192-.722.468-.895.94-.171.471-.078.914.073 1.297.138.354.37.764.629 1.222l.024.043.516.914.042.074c.207.368.395.702.698.97l-1.642 7.073c-.173.745-.315 1.355-.384 1.869-.072.537-.074 1.024.067 1.522l.015.053c.148.495.41.905.759 1.319.333.395.778.83 1.322 1.363l.06.058c.437.428.816.8 1.16 1.058.37.278.784.493 1.294.499h.05c.51-.006.923-.22 1.293-.499.345-.259.724-.63 1.162-1.058l.059-.058c.544-.532.99-.969 1.322-1.363.349-.414.611-.824.759-1.319l.015-.053c.14-.497.139-.985.067-1.522-.07-.514-.211-1.124-.384-1.87l-1.642-7.073c.303-.267.491-.6.698-.969l.042-.074.516-.914.024-.043c.259-.458.49-.868.63-1.222.15-.383.244-.826.072-1.296-.172-.473-.53-.75-.895-.941-.333-.176-.773-.331-1.26-.504l-.048-.017-.9-.318-.096-.035c-.551-.196-.992-.352-1.459-.352m1.279 7.301c-.394.104-.86.199-1.279.199s-.885-.095-1.279-.199l-1.57 6.762c-.183.789-.308 1.33-.366 1.765-.056.419-.042.683.023.914l.01.032c.068.23.197.46.468.78.28.334.674.72 1.25 1.284.48.47.79.771 1.047.964.24.18.346.197.41.198h.015c.063 0 .17-.018.41-.198.256-.192.565-.493 1.046-.964.575-.563.97-.95 1.25-1.283.271-.322.4-.551.468-.78l.01-.032c.065-.232.08-.496.023-.915-.058-.436-.183-.976-.366-1.765z" clip-rule="evenodd"/></svg>