<svg xmlns="http://www.w3.org/2000/svg" fill="none" viewBox="0 0 24 24"><path fill="currentColor" fill-rule="evenodd" d="M6.176 1.25H6.13c-.708 0-1.31 0-1.79.06-.508.065-.992.21-1.389.584-.402.38-.563.855-.634 1.354-.066.462-.066 1.037-.066 1.7v.104c0 .663 0 1.238.066 1.7.07.5.232.974.634 1.354.397.374.881.519 1.39.583.48.061 1.08.061 1.789.061H7a.75.75 0 1 0 0-1.5h-.824c-.768 0-1.274-.001-1.648-.049-.357-.045-.48-.12-.548-.186-.062-.059-.134-.158-.18-.475-.048-.343-.05-.81-.05-1.54s.002-1.197.05-1.54c.046-.317.118-.416.18-.475.069-.065.191-.14.548-.186.374-.048.88-.049 1.648-.049h11.647c.77 0 1.274.001 1.649.049.357.045.48.12.548.186.063.059.134.158.18.475.048.343.05.81.05 1.54s-.002 1.197-.05 1.54c-.046.317-.117.416-.18.475-.069.065-.191.14-.548.186-.375.048-.88.049-1.649.049H17a.75.75 0 0 0 0 1.5h.871c.708 0 1.31 0 1.79-.06.508-.065.992-.21 1.389-.584.402-.38.563-.855.634-1.354.066-.462.066-1.037.066-1.7v-.104c0-.663 0-1.238-.066-1.7-.07-.5-.232-.974-.634-1.354-.397-.374-.881-.519-1.39-.583-.48-.061-1.08-.061-1.789-.061zm5.825 3A2.25 2.25 0 0 0 9.75 6.5v7.22l-.723-.632-.002-.001a2.27 2.27 0 0 0-3.278.31 2.32 2.32 0 0 0 .011 2.888l2.964 3.698.096.12c.822 1.027 1.368 1.709 2.114 2.12q.201.11.412.199c.787.329 1.657.328 2.96.328h1.198c.977 0 1.624 0 2.206-.17a4.28 4.28 0 0 0 2.346-1.713c.34-.503.544-1.123.854-2.065l.037-.112.117-.356c.453-1.372.688-2.084.688-3.068 0-1.591-.914-2.763-2.068-3.464-.401-.244-.856-.39-1.39-.507-.525-.116-1.183-.216-2.012-.342l-.023-.004-2.003-.324-.003-4.126a2.25 2.25 0 0 0-2.25-2.249M11.25 6.5a.75.75 0 0 1 1.501 0l.004 4.764a.75.75 0 0 0 .63.74l2.636.427h.007c.86.132 1.47.225 1.94.329.467.102.738.204.935.324.826.501 1.347 1.241 1.347 2.182 0 .735-.156 1.21-.657 2.73l-.073.225c-.36 1.095-.5 1.497-.708 1.805a2.78 2.78 0 0 1-1.524 1.114c-.35.103-.766.11-1.905.11h-.926c-1.514 0-2.06-.014-2.534-.212a3 3 0 0 1-.267-.129c-.453-.25-.81-.672-1.764-1.864L6.93 15.347a.82.82 0 0 1-.004-1.02.77.77 0 0 1 1.116-.109l1.965 1.719a.75.75 0 0 0 1.244-.565z" clip-rule="evenodd"/></svg>