<svg xmlns="http://www.w3.org/2000/svg" fill="none" viewBox="0 0 24 24"><path fill="currentColor" fill-rule="evenodd" d="M12.483 7.412c0-.372.297-.662.65-.662s.65.29.65.662v5.325a.75.75 0 1 0 1.5 0v-1.774a.94.94 0 0 1 .876.932v.842a.75.75 0 1 0 1.5 0v-.934h.099a.94.94 0 0 1 .947.934v.842a.75.75 0 0 0 1.5 0v-.8l.255.042c.46.076.79.47.79.922v2.082c0 .924 0 1.583-.034 2.102-.032.513-.095.838-.197 1.102a3.47 3.47 0 0 1-2 1.99c-.266.102-.594.165-1.11.198-.521.033-1.183.033-2.112.033-.997 0-1.383-.004-1.734-.08a3.5 3.5 0 0 1-1.524-.76c-.272-.232-.506-.537-1.105-1.331l-2.549-3.384a.67.67 0 0 1 .013-.824.686.686 0 0 1 1.01-.063l1.28 1.359a.75.75 0 0 0 1.295-.515zm2.8 0v2.05c.71.02 1.345.34 1.78.84h.695a2.45 2.45 0 0 1 1.866.86l1.08.18a2.44 2.44 0 0 1 2.018 2.035.8.8 0 0 1 .028.202v2.271c0 .894 0 1.6-.037 2.173-.037.584-.115 1.08-.294 1.545a4.97 4.97 0 0 1-2.865 2.853c-.466.178-.963.255-1.55.293-.575.036-1.284.036-2.181.036h-.115c-.879 0-1.437 0-1.966-.116a5 5 0 0 1-2.18-1.085c-.41-.352-.745-.797-1.272-1.497l-.054-.07-2.549-3.384a2.17 2.17 0 0 1 .042-2.667 2.186 2.186 0 0 1 3.244-.179l.01.011V7.412c0-1.188.957-2.162 2.15-2.162s2.15.974 2.15 2.162M14.062 1.25H9.947c-1.839 0-3.295 0-4.435.153-1.173.158-2.122.491-2.87 1.24-.749.75-1.081 1.7-1.239 2.874-.153 1.141-.153 2.6-.153 4.44v2.087c0 .91 0 1.632.04 2.216.04.597.125 1.106.322 1.58a4.75 4.75 0 0 0 2.571 2.575c.525.218 1.093.299 1.779.334a.75.75 0 1 0 .076-1.498c-.622-.032-.99-.101-1.28-.222a3.25 3.25 0 0 1-1.76-1.762c-.109-.262-.176-.588-.212-1.109-.036-.527-.036-1.197-.036-2.141v-2.003c0-1.91.002-3.268.14-4.297.135-1.008.39-1.59.813-2.013.423-.424 1.003-.679 2.01-.814 1.028-.138 2.383-.14 4.29-.14h4.002c1.908 0 3.263.002 4.291.14 1.006.135 1.586.39 2.01.814.697.697.907 1.781.944 4.317a.75.75 0 0 0 1.5-.022c-.035-2.431-.192-4.164-1.383-5.355-.748-.75-1.698-1.083-2.87-1.24-1.14-.154-2.597-.154-4.435-.154" clip-rule="evenodd"/></svg>