<svg xmlns="http://www.w3.org/2000/svg" fill="none" viewBox="0 0 24 24"><path fill="currentColor" fill-rule="evenodd" d="M2.75 10c0-1.29.875-2.586 2.565-3.6C6.989 5.396 9.35 4.75 12 4.75s5.01.646 6.685 1.65c1.69 1.014 2.565 2.31 2.565 3.6s-.875 2.586-2.565 3.6c-1.674 1.004-4.036 1.65-6.685 1.65s-5.01-.646-6.685-1.65C3.625 12.586 2.75 11.29 2.75 10m-1.5 0c0-2.024 1.363-3.728 3.293-4.886C6.488 3.947 9.126 3.25 12 3.25s5.512.697 7.457 1.864C21.387 6.272 22.75 7.976 22.75 10v8a.75.75 0 0 1-1.5 0v-4.53a8.4 8.4 0 0 1-1.793 1.416c-1.774 1.064-4.126 1.738-6.707 1.848V20a.75.75 0 0 1-1.5 0v-3.266c-2.581-.11-4.933-.784-6.707-1.848a8.4 8.4 0 0 1-1.793-1.417V18a.75.75 0 0 1-1.5 0z" clip-rule="evenodd"/></svg>