<svg xmlns="http://www.w3.org/2000/svg" fill="none" viewBox="0 0 24 24"><path fill="currentColor" fill-rule="evenodd" d="M21.25 8c0-1.184 0-2.019-.064-2.666-.061-.635-.177-1.01-.358-1.297a2.75 2.75 0 0 0-.865-.866c-.287-.18-.662-.296-1.297-.358-.647-.062-1.482-.063-2.666-.063H8c-1.184 0-2.019 0-2.666.063-.635.062-1.01.178-1.297.358a2.75 2.75 0 0 0-.865.866c-.181.287-.297.662-.358 1.297C2.75 5.981 2.75 6.816 2.75 8a.75.75 0 0 1-1.5 0v-.04c0-1.135 0-2.043.07-2.77.073-.748.226-1.385.581-1.951A4.25 4.25 0 0 1 3.24 1.9c.566-.356 1.203-.508 1.95-.58.728-.071 1.636-.071 2.772-.071h8.078c1.136 0 2.044 0 2.771.07.748.073 1.385.225 1.951.581.54.34.998.797 1.338 1.338.355.566.508 1.203.58 1.95.071.728.071 1.636.071 2.772V8a.75.75 0 0 1-1.5 0M8.977 9.038a.75.75 0 0 1-.015-1.06 9 9 0 0 0 .448-.545l.047-.06c.19-.242.413-.526.643-.798a7.4 7.4 0 0 1 .797-.827c.138-.117.293-.233.46-.323A1.4 1.4 0 0 1 12 5.25c.258 0 .48.089.642.175.168.09.323.206.461.323.276.235.551.537.797.827.23.272.453.556.643.798l.047.06q.318.407.448.544a.75.75 0 1 1-1.076 1.046 9 9 0 0 1-.551-.664l-.045-.057a26 26 0 0 0-.61-.757l-.006-.007v5.712h5.281c.674 0 1.225 0 1.672.037.463.037.882.118 1.273.317a3.25 3.25 0 0 1 1.42 1.42c.199.391.28.81.317 1.273.037.447.037.998.037 1.671v.063c0 .674 0 1.224-.037 1.672-.037.463-.118.882-.317 1.272a3.25 3.25 0 0 1-1.42 1.42c-.391.2-.81.28-1.273.318-.447.037-.998.037-1.671.037H5.968c-.674 0-1.224 0-1.672-.037-.463-.038-.882-.118-1.272-.317a3.25 3.25 0 0 1-1.42-1.42c-.2-.391-.28-.81-.318-1.273-.037-.448-.037-.998-.037-1.672v-.062c0-.674 0-1.225.037-1.672.037-.463.118-.882.317-1.273a3.25 3.25 0 0 1 1.42-1.42c.391-.199.81-.28 1.273-.317.447-.037.998-.037 1.672-.037h5.281V7.538l-.006.007c-.21.249-.417.511-.61.757l-.045.057a9 9 0 0 1-.551.664.75.75 0 0 1-1.06.015M12 14.75h6c.712 0 1.202 0 1.58.031.371.03.57.086.715.16.329.167.596.435.764.765.074.144.13.343.16.713.03.38.031.869.031 1.58 0 .713 0 1.203-.032 1.582-.03.37-.085.57-.159.713a1.75 1.75 0 0 1-.765.765c-.144.074-.343.13-.713.16-.38.03-.869.03-1.581.03H6c-.712 0-1.202 0-1.58-.03-.371-.03-.57-.086-.714-.16a1.75 1.75 0 0 1-.765-.765c-.074-.144-.13-.343-.16-.713-.03-.38-.031-.869-.031-1.581s0-1.202.032-1.581c.03-.37.085-.57.159-.713a1.75 1.75 0 0 1 .765-.765c.144-.074.343-.13.713-.16.38-.03.869-.031 1.581-.031z" clip-rule="evenodd"/></svg>