<svg xmlns="http://www.w3.org/2000/svg" fill="none" viewBox="0 0 24 24"><path fill="currentColor" fill-rule="evenodd" d="M2 10.25a.75.75 0 0 1 .75.75q0 .111.002.221a.75.75 0 1 1-1.5.03L1.25 11a.75.75 0 0 1 .75-.75m.2 3.053a.75.75 0 0 1 .917.533q.057.214.122.424a.75.75 0 0 1-1.434.442q-.073-.24-.138-.482a.75.75 0 0 1 .533-.917m1.086 3.108a.75.75 0 0 1 1.03.253q.114.19.236.371a.75.75 0 0 1-1.25.83q-.138-.208-.269-.424a.75.75 0 0 1 .253-1.03m1.927 2.67a.75.75 0 0 1 1.059-.066q.163.145.333.282a.75.75 0 1 1-.94 1.168 11 11 0 0 1-.386-.325.75.75 0 0 1-.066-1.059m2.65 1.953a.75.75 0 0 1 .978-.41q.2.082.405.154a.75.75 0 0 1-.498 1.415q-.24-.084-.476-.18a.75.75 0 0 1-.41-.979m3.151.943a.75.75 0 0 1 .77-.73l.097.002c4.168-.083 7.923-2.801 9.043-6.855 1.357-4.909-1.651-9.991-6.78-11.323-4.457-1.159-9 .914-11.007 4.7l1.487.087a.75.75 0 1 1-.089 1.498l-2.58-.153A.75.75 0 0 1 1.3 8.182c1.992-5.115 7.69-8 13.221-6.563 5.897 1.532 9.439 7.418 7.848 13.175-1.292 4.675-5.56 7.777-10.271 7.95a1 1 0 0 1-.099.006h-.14q-.035 0-.068-.002l-.048-.001a.75.75 0 0 1-.73-.77m1.643-13.961a.75.75 0 0 0-1.5 0v.234a3.4 3.4 0 0 0-.438.164c-.926.419-1.534 1.335-1.481 2.28.026.487.232.962.633 1.325.394.358.93.567 1.563.632.266.027.506.032.705.035l.047.001c.185.003.317.005.438.017.214.021.317.064.437.19.088.092.214.394.161.738-.043.281-.196.536-.6.66a2.2 2.2 0 0 1-.74.102 1.8 1.8 0 0 1-1.124-.449.75.75 0 0 0-1.009 1.11 3.34 3.34 0 0 0 1.408.745v.216a.75.75 0 0 0 1.5 0v-.188q.197-.039.405-.102c1.016-.312 1.521-1.083 1.642-1.864.112-.719-.092-1.516-.559-2.005-.435-.455-.914-.6-1.374-.646-.187-.018-.382-.02-.552-.024h-.055a7 7 0 0 1-.578-.028c-.398-.041-.606-.159-.708-.25a.4.4 0 0 1-.143-.298c-.014-.251.168-.634.602-.83.479-.217.814-.16 1.06-.055.28.122.494.332.663.51A.75.75 0 0 0 14.146 9.2c-.183-.192-.574-.6-1.154-.851a3 3 0 0 0-.335-.12z" clip-rule="evenodd"/></svg>