<svg xmlns="http://www.w3.org/2000/svg" fill="none" viewBox="0 0 24 24"><path fill="currentColor" fill-rule="evenodd" d="M8.063 6.319c1.054-1.3 1.794-2.21 2.439-2.806.628-.58 1.065-.763 1.499-.763s.87.183 1.5.763c.644.595 1.384 1.505 2.438 2.806l1.351 1.668c-.56.206-1.048.293-1.495.254-.53-.047-1.084-.279-1.692-.869-.79-.767-1.579-1.123-2.403-1.122-.78 0-1.471.326-2.045.628q-.194.102-.38.203c-.862.464-1.59.856-2.48.803zM5.725 9.205l-1.47 1.814-.185.23.356.001h15.15l.356-.001-.186-.23-1.469-1.813c-.84.367-1.715.608-2.613.53-.928-.082-1.793-.498-2.606-1.288-.589-.572-1.021-.698-1.357-.698-.38 0-.787.16-1.347.455l-.351.19c-1.015.558-2.405 1.321-4.197.837l-.08-.027m14.526 3.538q.213-.008.39-.032c.274-.038.748-.147.992-.618.253-.488.045-.942-.098-1.184-.14-.238-.363-.513-.592-.795l-.031-.039-3.847-4.748c-1.006-1.242-1.813-2.238-2.548-2.917-.761-.702-1.546-1.16-2.516-1.16s-1.755.458-2.516 1.16c-.735.679-1.543 1.675-2.548 2.917L3.09 10.075l-.031.039c-.23.282-.452.557-.592.795-.143.242-.351.696-.098 1.184.244.471.718.58.992.618q.177.024.39.032v7.302c0 .432 0 .83.043 1.152.048.356.16.731.47 1.04s.684.422 1.04.47c.323.043.72.043 1.152.043h11.09c.433 0 .83 0 1.152-.043.356-.048.731-.16 1.04-.47s.422-.684.47-1.04c.043-.323.043-.72.043-1.152zm-1.5.007h-13.5V20c0 .492.002.787.03.997a.7.7 0 0 0 .042.177l.001.003.003.001.01.005c.022.009.07.024.167.037.21.028.504.03.997.03h2.75V18a2.75 2.75 0 0 1 5.5 0v3.25h2.75c.493 0 .787-.002.997-.03a.7.7 0 0 0 .177-.042l.003-.001.001-.003.005-.01a.7.7 0 0 0 .037-.167c.028-.21.03-.505.03-.997zm-5.5 8.5V18a1.25 1.25 0 0 0-2.5 0v3.25z" clip-rule="evenodd"/></svg>