<svg xmlns="http://www.w3.org/2000/svg" fill="none" viewBox="0 0 24 24"><path fill="currentColor" fill-rule="evenodd" d="M12 21.25a9.25 9.25 0 1 0-9.22-10h5.47v-.75a2.25 2.25 0 0 1 2.25-2.25h3a2.25 2.25 0 0 1 2.25 2.25v3a2.25 2.25 0 0 1-2.25 2.25h-3a2.25 2.25 0 0 1-2.25-2.25v-.75H2.78a9.25 9.25 0 0 0 9.22 8.5M1.25 12C1.25 6.063 6.063 1.25 12 1.25S22.75 6.063 22.75 12 17.937 22.75 12 22.75 1.25 17.937 1.25 12m8.5 0v-1.5a.75.75 0 0 1 .75-.75h3a.75.75 0 0 1 .75.75v3a.75.75 0 0 1-.75.75h-3a.75.75 0 0 1-.75-.75z" clip-rule="evenodd"/></svg>