<svg xmlns="http://www.w3.org/2000/svg" fill="none" viewBox="0 0 24 24"><path fill="currentColor" fill-rule="evenodd" d="M2.75 4a1.25 1.25 0 1 1 2.5 0 1.25 1.25 0 0 1-2.5 0M4 1.25a2.75 2.75 0 1 0 0 5.5 2.75 2.75 0 0 0 0-5.5M18.75 4a1.25 1.25 0 1 1 2.5 0 1.25 1.25 0 0 1-2.5 0M20 1.25a2.75 2.75 0 1 0 0 5.5 2.75 2.75 0 0 0 0-5.5m0 17.5a1.25 1.25 0 1 0 0 2.5 1.25 1.25 0 0 0 0-2.5M17.25 20a2.75 2.75 0 1 1 5.5 0 2.75 2.75 0 0 1-5.5 0m-14.5 0a1.25 1.25 0 1 1 2.5 0 1.25 1.25 0 0 1-2.5 0M4 17.25a2.75 2.75 0 1 0 0 5.5 2.75 2.75 0 0 0 0-5.5m8-8.5c-.155 0-.305.054-1.02.404l-1.09.533c-.707.346-1.168.573-1.46.767l-.066.046.066.046c.292.194.753.42 1.46.767l1.09.533c.715.35.864.404 1.02.404.155 0 .305-.054 1.02-.404l1.09-.533c.707-.346 1.168-.573 1.46-.767l.066-.046-.066-.046c-.292-.194-.753-.42-1.46-.767l-1.09-.533c-.715-.35-.864-.404-1.02-.404m-1.574-.995c.549-.27 1.027-.505 1.574-.505s1.025.235 1.574.505l.106.052 1.138.557c.645.315 1.197.585 1.581.84.363.241.851.641.851 1.296s-.488 1.055-.85 1.296c-.385.255-.937.525-1.582.84l-1.138.557-.106.052c-.549.27-1.027.505-1.574.505s-1.025-.235-1.574-.505l-.106-.052-1.138-.557c-.645-.315-1.196-.585-1.581-.84-.364-.241-.851-.641-.851-1.296s.487-1.055.85-1.296c.386-.255.937-.525 1.582-.84l.05-.024 1.088-.533zM7.5 12.75a.75.75 0 0 1 .744.653c.028.028.084.075.186.143.292.194.753.42 1.46.767l1.09.533c.715.35.864.404 1.02.404.155 0 .305-.054 1.02-.404l1.09-.533c.707-.346 1.168-.573 1.46-.767.102-.068.158-.115.186-.143a.75.75 0 0 1 1.494.097c0 .655-.488 1.055-.85 1.296-.385.255-.937.525-1.582.84l-1.138.557-.106.052c-.549.27-1.027.505-1.574.505s-1.025-.235-1.574-.505l-.106-.052-1.089-.533-.049-.024c-.645-.315-1.196-.585-1.581-.84-.364-.241-.851-.641-.851-1.296a.75.75 0 0 1 .75-.75" clip-rule="evenodd"/></svg>