<svg xmlns="http://www.w3.org/2000/svg" fill="none" viewBox="0 0 24 24"><path fill="currentColor" fill-rule="evenodd" d="M13.999 16.75h.04c.669 0 1.228 0 1.68-.046.473-.048.913-.153 1.309-.418.3-.2.558-.458.759-.758.264-.396.369-.835.417-1.309.046-.452.046-1.011.046-1.68V6.461c0-.67 0-1.229-.046-1.681-.048-.473-.153-.913-.418-1.309-.2-.3-.458-.558-.758-.759-.396-.264-.835-.369-1.309-.417-.452-.046-1.011-.046-1.68-.046h-.077c-.67 0-1.229 0-1.681.046-.474.048-.913.153-1.309.417-.3.201-.558.459-.758.76-.294.439-.392.934-.432 1.47a.75.75 0 1 0 1.495.114c.034-.442.103-.63.184-.751a1.3 1.3 0 0 1 .345-.345c.108-.073.272-.137.627-.173.367-.037.85-.038 1.567-.038.718 0 1.2 0 1.567.038.355.036.519.1.628.173.136.09.253.208.344.345.073.108.137.272.173.627.037.367.038.85.038 1.567v6c0 .718 0 1.2-.038 1.567-.036.355-.1.519-.173.627a1.3 1.3 0 0 1-.344.345c-.109.073-.273.137-.628.173-.367.037-.85.038-1.567.038h-.497c-.543-.003-.913-.014-1.195-.053-.27-.037-.408-.094-.502-.158a1.3 1.3 0 0 1-.345-.344c-.073-.109-.137-.273-.173-.628-.037-.367-.038-.85-.038-1.567V11a.75.75 0 0 0-1.5 0v1.538c0 .67 0 1.229.046 1.681.048.474.153.913.418 1.309.2.3.458.558.758.758.346.232.725.34 1.13.397.394.054.859.064 1.395.066zm-3.998-9.5h-.04c-.669 0-1.228 0-1.68.046-.473.048-.913.153-1.309.417a2.8 2.8 0 0 0-.759.76c-.264.395-.369.835-.417 1.308-.046.452-.046 1.011-.046 1.68v6.077c0 .67 0 1.229.046 1.681.048.473.153.913.417 1.309.201.3.459.558.76.759.395.264.835.369 1.308.417.452.046 1.011.046 1.68.046h.077c.67 0 1.229 0 1.681-.046.474-.048.913-.153 1.309-.418.3-.2.558-.458.758-.758.294-.44.392-.934.432-1.471a.75.75 0 1 0-1.495-.113c-.034.441-.103.63-.184.75a1.3 1.3 0 0 1-.344.345c-.109.073-.273.137-.628.173-.367.037-.85.038-1.567.038-.718 0-1.2 0-1.567-.038-.355-.036-.519-.1-.627-.173a1.3 1.3 0 0 1-.345-.344c-.073-.109-.137-.273-.173-.628-.037-.367-.038-.85-.038-1.567v-6c0-.718 0-1.2.038-1.567.036-.355.1-.519.173-.627a1.3 1.3 0 0 1 .345-.345c.108-.073.272-.137.627-.173.367-.037.85-.038 1.567-.038h.497c.543.003.913.014 1.195.053.27.037.408.094.502.158.137.09.254.208.345.345.073.108.137.272.173.627.037.367.038.85.038 1.567V13a.75.75 0 0 0 1.5 0v-1.538c0-.67 0-1.229-.046-1.681-.048-.473-.153-.913-.418-1.309a2.8 2.8 0 0 0-.758-.759c-.346-.23-.725-.34-1.13-.396-.394-.054-.859-.064-1.395-.066zM22.6 8.55a.75.75 0 0 1-.15 1.05l-2 1.5a.75.75 0 1 1-.9-1.2l2-1.5a.75.75 0 0 1 1.05.15m-3.2 5.5a.75.75 0 0 1 1.05-.15l2 1.5a.75.75 0 1 1-.9 1.2l-2-1.5a.75.75 0 0 1-.15-1.05M1.55 9.6a.75.75 0 1 1 .9-1.2l2 1.5a.75.75 0 1 1-.9 1.2zm2 4.3a.75.75 0 0 1 .9 1.2l-2 1.5a.75.75 0 1 1-.9-1.2z" clip-rule="evenodd"/></svg>