<svg xmlns="http://www.w3.org/2000/svg" fill="none" viewBox="0 0 24 24"><path fill="currentColor" fill-rule="evenodd" d="M10.538 1.25c.67 0 1.229 0 1.681.046.474.048.913.153 1.309.417.3.201.558.459.758.76.265.395.37.835.418 1.308.029.281.04.604.043.969h.223c1.312 0 2.376 1.1 2.273 2.421l-.107 1.387a.75.75 0 0 1-1.495-.116l.107-1.386a.763.763 0 0 0-.778-.806H6.03c-.47 0-.81.386-.778.806l.184 2.378a9.1 9.1 0 0 0 1.553 4.422l.6.885a2.33 2.33 0 0 0 1.927 1.009H11a.75.75 0 0 1 .25 1.457V22a.75.75 0 0 1-1.5 0v-4.75h-.234a3.83 3.83 0 0 1-3.168-1.666l-.6-.885a10.6 10.6 0 0 1-1.807-5.15l-.184-2.378C3.655 5.85 4.718 4.75 6.03 4.75h.222c.005-.365.015-.688.044-.969.048-.473.153-.913.417-1.309.201-.3.459-.558.76-.759.395-.264.835-.369 1.308-.417.452-.046 1.011-.046 1.68-.046zm2.674 2.683c.022.222.032.485.035.817H7.753a9 9 0 0 1 .035-.817c.036-.355.1-.519.173-.627a1.3 1.3 0 0 1 .345-.345c.108-.073.272-.137.627-.173.367-.037.85-.038 1.567-.038.718 0 1.2 0 1.567.038.355.036.519.1.627.173.137.09.254.208.345.345.073.108.137.272.173.627M8.75 8.5a.75.75 0 0 1 .75-.75h2a.75.75 0 0 1 0 1.5h-2a.75.75 0 0 1-.75-.75m5.28 1.97a.75.75 0 1 0-1.06 1.06L15.44 14l-2.47 2.47a.75.75 0 1 0 1.06 1.06l2.47-2.47 2.47 2.47a.75.75 0 1 0 1.06-1.06L17.56 14l2.47-2.47a.75.75 0 1 0-1.06-1.06l-2.47 2.47z" clip-rule="evenodd"/></svg>