<svg xmlns="http://www.w3.org/2000/svg" fill="none" viewBox="0 0 24 24"><path fill="currentColor" fill-rule="evenodd" d="M12 2.75a9.25 9.25 0 0 0-6.89 15.422l.3-.525a5.75 5.75 0 0 1 4.992-2.897h3.197a5.75 5.75 0 0 1 4.992 2.897l.3.524A9.25 9.25 0 0 0 12 2.75m5.768 16.481-.48-.84a4.25 4.25 0 0 0-3.69-2.141h-3.196a4.25 4.25 0 0 0-3.69 2.141l-.48.84A9.2 9.2 0 0 0 12 21.25a9.2 9.2 0 0 0 5.768-2.019M1.25 12C1.25 6.063 6.063 1.25 12 1.25S22.75 6.063 22.75 12 17.937 22.75 12 22.75 1.25 17.937 1.25 12M12 7.5a2 2 0 1 0 0 4 2 2 0 0 0 0-4m-3.5 2a3.5 3.5 0 1 1 7 0 3.5 3.5 0 0 1-7 0" clip-rule="evenodd"/></svg>