<svg xmlns="http://www.w3.org/2000/svg" fill="none" viewBox="0 0 24 24"><path fill="currentColor" fill-rule="evenodd" d="M13.045 2.25h-2.09c-1.837 0-3.276 0-4.419.124-1.165.126-2.11.388-2.916.974A5.8 5.8 0 0 0 2.348 4.62c-.586.807-.848 1.75-.974 2.916-.124 1.143-.124 2.582-.124 4.419v.09c0 1.837 0 3.276.124 4.419.126 1.165.388 2.11.974 2.916a5.8 5.8 0 0 0 1.272 1.272c.807.586 1.75.848 2.916.974 1.143.124 2.582.124 4.419.124h2.09c1.837 0 3.276 0 4.419-.124 1.165-.126 2.11-.388 2.916-.974a5.8 5.8 0 0 0 1.272-1.272c.586-.807.848-1.75.974-2.916.124-1.143.124-2.582.124-4.419v-.09c0-1.837 0-3.276-.124-4.419-.126-1.165-.388-2.11-.974-2.916a5.8 5.8 0 0 0-1.272-1.272c-.807-.586-1.75-.848-2.916-.974-1.143-.124-2.582-.124-4.419-.124M4.502 4.562c.508-.37 1.158-.585 2.196-.697C7.75 3.751 9.108 3.75 11 3.75h2c1.892 0 3.25.001 4.302.115 1.038.112 1.688.328 2.196.697.36.262.678.58.94.94.37.508.585 1.158.697 2.196.114 1.052.115 2.41.115 4.302s-.001 3.25-.115 4.302c-.113 1.038-.328 1.688-.697 2.196-.262.36-.58.678-.94.94-.508.37-1.158.585-2.196.697-1.052.114-2.41.115-4.302.115h-2c-1.892 0-3.25-.001-4.302-.115-1.038-.113-1.688-.328-2.196-.697a4.3 4.3 0 0 1-.94-.94c-.37-.508-.585-1.158-.697-2.196-.114-1.052-.115-2.41-.115-4.302s.001-3.25.115-4.302c.112-1.038.328-1.688.697-2.196.262-.36.58-.678.94-.94M13.25 9a.75.75 0 0 1 .75-.75h4a.75.75 0 0 1 0 1.5h-4a.75.75 0 0 1-.75-.75m0 3.5a.75.75 0 0 1 .75-.75h3a.75.75 0 0 1 0 1.5h-3a.75.75 0 0 1-.75-.75m-4.769 2.25c-1.24.019-2.353.61-2.802 1.568a.75.75 0 1 1-1.358-.636c.76-1.623 2.503-2.407 4.138-2.431 1.645-.025 3.418.716 4.22 2.431a.75.75 0 1 1-1.358.636c-.485-1.036-1.608-1.586-2.84-1.568M7.25 9a1.25 1.25 0 1 1 2.5 0 1.25 1.25 0 0 1-2.5 0M8.5 6.25a2.75 2.75 0 1 0 0 5.5 2.75 2.75 0 0 0 0-5.5" clip-rule="evenodd"/></svg>