<svg xmlns="http://www.w3.org/2000/svg" fill="none" viewBox="0 0 24 24"><path fill="currentColor" fill-rule="evenodd" d="M13.057 2.25h-2.114c-2.073 0-3.705 0-4.98.171-1.31.176-2.354.545-3.175 1.367-.822.821-1.19 1.866-1.367 3.174-.171 1.276-.171 2.908-.171 4.981v.114c0 2.073 0 3.705.171 4.98.176 1.31.545 2.354 1.367 3.175.821.822 1.866 1.19 3.174 1.367 1.276.171 2.908.171 4.981.171h2.114c2.073 0 3.705 0 4.98-.171 1.31-.176 2.354-.545 3.175-1.367.822-.821 1.19-1.866 1.367-3.174.171-1.276.171-2.908.171-4.981v-.114c0-2.073 0-3.705-.171-4.98-.176-1.31-.545-2.354-1.367-3.175-.821-.822-1.866-1.19-3.174-1.367-1.276-.171-2.908-.171-4.981-.171M3.848 4.848c.497-.496 1.172-.786 2.314-.94C7.326 3.752 8.857 3.75 11 3.75h2c2.143 0 3.674.002 4.838.158 1.142.154 1.817.444 2.314.94.496.497.786 1.172.94 2.314.156 1.164.158 2.695.158 4.838s-.002 3.674-.158 4.838c-.154 1.142-.444 1.817-.94 2.314-.497.496-1.172.786-2.314.94-1.164.156-2.696.158-4.838.158h-2c-2.143 0-3.674-.002-4.838-.158-1.142-.154-1.817-.444-2.314-.94-.496-.497-.786-1.172-.94-2.314-.156-1.164-.158-2.696-.158-4.838s.002-3.674.158-4.838c.154-1.142.444-1.817.94-2.314m2.837 4.845a.75.75 0 1 0-1.37.614L7.07 14.22l.02.044c.146.325.286.637.427.863.132.211.432.624.983.624s.851-.413.983-.624c.142-.226.282-.538.427-.863l.02-.044 1.755-3.912a.75.75 0 0 0-1.37-.614l-1.754 3.912-.06.136-.062-.136zM15 9.25h-.034c-.205 0-.427 0-.614.025-.22.03-.5.105-.736.341a1.24 1.24 0 0 0-.34.736 5 5 0 0 0-.026.614V15a.75.75 0 0 0 1.5 0v-1.25h1.287l.792 1.586a.75.75 0 1 0 1.342-.671l-.594-1.189A2.25 2.25 0 0 0 16.5 9.25zm1.5 3h-1.75V11l.001-.249h1.75a.75.75 0 0 1 0 1.5" clip-rule="evenodd"/></svg>