<svg xmlns="http://www.w3.org/2000/svg" fill="none" viewBox="0 0 24 24"><path fill="currentColor" fill-rule="evenodd" d="M15.903 5.165c-.608.467-1.381 1.253-2.489 2.383-.589.601-1.117 1.038-1.76 1.304-.64.265-1.322.328-2.154.328q-.218 0-.42-.003c-.44-.006-.825-.011-1.195.051-.443.074-.73.228-.92.52-.075.115-.14.286-.177.651-.037.377-.038.87-.038 1.603 0 .731 0 1.225.038 1.602.037.365.102.537.176.651.192.292.478.446.92.52.371.062.757.057 1.197.051l.419-.003c.832 0 1.514.063 2.155.328.642.266 1.17.703 1.76 1.304 1.107 1.13 1.88 1.916 2.488 2.383.634.486.824.418.879.395.063-.026.248-.129.36-.934.106-.77.108-1.887.108-3.484V9.188c0-1.597-.002-2.713-.109-3.484-.111-.805-.296-.908-.359-.934-.055-.023-.245-.091-.879.395m-.913-1.19c.687-.527 1.505-.955 2.376-.587.864.365 1.141 1.244 1.261 2.11.123.887.123 2.108.123 3.626v5.756c0 1.518 0 2.739-.123 3.625-.12.866-.397 1.745-1.261 2.11-.871.368-1.689-.06-2.376-.587-.703-.54-1.55-1.404-2.6-2.476l-.047-.047c-.54-.551-.898-.817-1.261-.967-.365-.151-.809-.215-1.582-.215l-.318.003c-.458.007-1.027.015-1.546-.072-.688-.115-1.427-.415-1.926-1.177-.262-.4-.366-.844-.414-1.325-.046-.46-.046-1.028-.046-1.713v-.075c0-.685 0-1.253.046-1.713.048-.48.152-.924.414-1.325.499-.762 1.238-1.062 1.926-1.177.519-.087 1.088-.079 1.546-.072l.318.003c.774 0 1.217-.064 1.582-.214.363-.15.721-.417 1.261-.968l.046-.047c1.05-1.072 1.898-1.936 2.6-2.476" clip-rule="evenodd"/></svg>