<svg xmlns="http://www.w3.org/2000/svg" fill="none" viewBox="0 0 24 24"><path fill="currentColor" fill-rule="evenodd" d="M21.47 22.53a.75.75 0 0 0 1.061 0 .75.75 0 0 0 0-1.06l-7.94-7.94a1 1 0 0 0-.12-.12L8.535 7.474a1 1 0 0 0-.092-.092L2.531 1.47A.75.75 0 0 0 1.47 2.53l5.122 5.123c-.268.021-.594.024-1.002.024h-.088l-.357-.003h-.001c-1.093-.015-2.59-.036-3.428 1.247-.465.702-.465 1.546-.465 3.077 0 1.533 0 2.377.462 3.076.84 1.285 2.337 1.265 3.43 1.25l.123-.002.235-.001c1.417 0 1.869.188 2.844 1.182 2.014 2.055 3.192 3.257 4.333 3.257l.003-.003c.228 0 .453-.048.684-.146 1.15-.484 1.348-2.122 1.382-4.803zm-8.216-8.215L7.838 8.899c-.637.271-1.356.278-2.206.278h-.13q-.181 0-.373-.004h-.004c-1.065-.015-1.792.017-2.154.57-.218.33-.218 1.014-.218 2.255s0 1.924.216 2.25c.365.558 1.091.589 2.157.574q.192-.004.378-.004c1.817 0 2.659.35 3.915 1.632l.002.002c1.561 1.593 2.91 2.969 3.359 2.778.012-.01.253-.203.377-1.465.09-.913.097-2.09.097-3.45m4.318.4a.8.8 0 0 0 .228.037v-.001a.75.75 0 0 0 .714-.522 5 5 0 0 0 .236-1.51c0-1.157-.404-2.262-1.17-3.194a.75.75 0 1 0-1.16.952c.543.66.83 1.436.83 2.243q0 .537-.164 1.053a.75.75 0 0 0 .486.943m3.017 2.383a.75.75 0 0 1-.585-1.219c.815-1.017 1.245-2.185 1.245-3.379 0-1.45-.614-2.822-1.776-3.965a.75.75 0 0 1 1.053-1.07c1.434 1.411 2.224 3.2 2.224 5.035 0 1.538-.545 3.031-1.575 4.317a.75.75 0 0 1-.586.281M13.25 9.5c0 .414.336.75.75.75l.001-.001a.75.75 0 0 0 .75-.75v-.286c.001-3.388.001-5.255-1.358-5.828-1.294-.548-2.397.556-3.923 2.084a.75.75 0 1 0 1.061 1.06c.808-.808 1.915-1.916 2.278-1.761.022.01.22.118.336 1.002.105.817.105 1.976.105 3.444z" clip-rule="evenodd"/></svg>