<svg xmlns="http://www.w3.org/2000/svg" fill="none" viewBox="0 0 24 24"><path fill="currentColor" fill-rule="evenodd" d="M16.928 4.121c.652-.606 1.523-.43 1.836.178 1.704 3.309 2.732 8.569-1.449 12.902-4.566 4.284-9.755 3.333-13.048 1.505-.582-.323-.738-1.176-.139-1.816l.528-.564a7.93 7.93 0 0 0 5.705 2.394c4.65 0 8.31-4.096 8.31-9.007 0-2.093-.66-4.027-1.774-5.563zm-1.14 1.058-1.581 1.469c.288.512.408 1.13.4 1.714-.01.765-.236 1.596-.737 2.26-.543.717-1.24 1.045-1.878 1.143a3 3 0 0 1-.741.017l-.021.06a1.35 1.35 0 0 1-1.445.887l-1.47-.19-2.63 2.694a6.44 6.44 0 0 0 4.676 1.987c3.7 0 6.81-3.297 6.81-7.507a8 8 0 0 0-1.383-4.534m4.31-1.567c-.861-1.67-2.965-1.728-4.191-.59l-3.062 2.843c-.444.412-.35 1.029-.053 1.364.175.2.322.596.315 1.114-.006.505-.159 1.01-.434 1.374-.284.375-.615.52-.908.565-.322.049-.578-.026-.648-.062a.75.75 0 0 0-1.05.415l-.21.59-1.523-.196a1.15 1.15 0 0 0-.97.338l-2.921 2.991-.011.012-1.4 1.495c-1.117 1.195-1.108 3.256.507 4.153 3.65 2.026 9.614 3.157 14.817-1.737l.025-.025c4.836-4.997 3.566-11.054 1.716-14.644" clip-rule="evenodd"/></svg>