<svg xmlns="http://www.w3.org/2000/svg" fill="none" viewBox="0 0 24 24"><path fill="currentColor" fill-rule="evenodd" d="M11.5 1.75H9.06c-.598 0-1.105 0-1.523.045-.444.047-.854.15-1.237.4-.382.248-.643.58-.867.967-.21.364-.417.827-.66 1.374l-.015.035-2.944 6.624a.75.75 0 0 0 1.37.61L6.13 5.18c.262-.591.436-.98.602-1.266.156-.27.272-.388.387-.462s.268-.133.579-.166c.328-.035.755-.036 1.401-.036h1.65v1.5h-.294c-.433 0-.83 0-1.152.043-.356.048-.732.16-1.04.47-.31.309-.422.684-.47 1.04-.043.323-.043.72-.043 1.152v2.09c0 .433 0 .83.043 1.152.048.356.16.731.47 1.04.293.294.647.41.987.462v8.551H7.5a.75.75 0 0 0 0 1.5h8a.75.75 0 0 0 0-1.5h-1.75V12.2c.34-.053.693-.169.987-.463.294-.293.41-.647.462-.987h2.55v1.75c0 .414.337.75.75.75h3a.75.75 0 0 0 .75-.75V10a3.75 3.75 0 0 0-3.75-3.75h-3.3c-.052-.34-.168-.694-.462-.987-.309-.31-.684-.422-1.04-.47-.323-.043-.72-.043-1.152-.043h-.295v-1.5h2.25a.75.75 0 1 0 0-1.5zm3.75 6v1.5h3.25a.75.75 0 0 1 .75.75v1.75h1.5V10a2.25 2.25 0 0 0-2.25-2.25zm-1.53-1.247c.027.203.03.483.03.944v2.106c0 .461-.003.741-.03.944a.7.7 0 0 1-.042.177l-.002.003-.002.001-.01.005a.7.7 0 0 1-.167.037c-.203.027-.483.03-.944.03h-2.107c-.46 0-.74-.003-.944-.03a.7.7 0 0 1-.166-.037l-.007-.003-.004-.002-.002-.001-.001-.003-.002-.003-.003-.007a.7.7 0 0 1-.037-.167c-.029-.21-.03-.504-.03-.997v-2c0-.493.001-.787.03-.997a.7.7 0 0 1 .042-.177l.001-.003.002-.001.01-.005a.7.7 0 0 1 .167-.037c.211-.028.505-.03.998-.03h2c.492 0 .786.002.997.03a.7.7 0 0 1 .177.042l.003.001v.003l.006.01a.7.7 0 0 1 .037.167m-2.97 5.747v8.5h1.5v-8.5zM20.558 15l-.558.5zl.001.001.004.005.015.017a15 15 0 0 1 .233.273c.147.178.346.427.547.706.198.275.409.596.573.915.152.294.318.688.318 1.083a2.25 2.25 0 0 1-4.5 0c0-.395.166-.788.317-1.083.165-.32.375-.64.574-.916a13 13 0 0 1 .78-.978l.014-.017.005-.005.002-.002a.75.75 0 0 1 1.116 0M20 16.685l-.141.191a6 6 0 0 0-.458.726 2 2 0 0 0-.124.286.5.5 0 0 0-.027.11.75.75 0 1 0 1.5.001.5.5 0 0 0-.027-.111 2 2 0 0 0-.124-.286 6 6 0 0 0-.458-.726z" clip-rule="evenodd"/></svg>