<svg xmlns="http://www.w3.org/2000/svg" fill="none" viewBox="0 0 24 24"><path fill="currentColor" fill-rule="evenodd" d="M2.75 12A9.25 9.25 0 1 1 12 21.25a9.2 9.2 0 0 1-3.596-.725l-.017-.007a19 19 0 0 0-.791-.322 2.5 2.5 0 0 0-.672-.164c-.378-.026-.77.08-1.221.2l-.098.027-2.545.681.681-2.545.026-.098c.121-.45.227-.843.2-1.22a2.5 2.5 0 0 0-.163-.673 19 19 0 0 0-.322-.79l-.007-.018A9.2 9.2 0 0 1 2.75 12M12 1.25C6.063 1.25 1.25 6.063 1.25 12c0 1.48.3 2.894.843 4.18.142.337.238.565.303.74.065.178.074.243.075.26.007.094-.017.221-.18.827l-1.015 3.8a.75.75 0 0 0 .918.918l3.799-1.017c.606-.162.733-.186.827-.18.017.002.082.011.26.077.175.064.403.16.74.302a10.7 10.7 0 0 0 4.18.843c5.937 0 10.75-4.813 10.75-10.75S17.937 1.25 12 1.25m-3.027 5H8.88c-.48 0-.922-.001-1.357.197a2.2 2.2 0 0 0-.781.635 2.2 2.2 0 0 0-.447.902c-.098.466-.017.821.069 1.2l.012.053c.434 1.924 1.45 3.811 3.013 5.374s3.45 2.579 5.374 3.013l.052.012c.38.086.735.167 1.2.07a2.2 2.2 0 0 0 .903-.448c.245-.196.49-.465.634-.781.2-.435.198-.878.198-1.357v-.093c0-.22-.007-.592-.15-.935a1.35 1.35 0 0 0-1.074-.834h-.006c-.684-.108-1.203-.189-1.57-.242a15 15 0 0 0-.456-.061 2 2 0 0 0-.346-.019c-.49.029-.88.227-1.181.434a8 8 0 0 0-.565.446q-.097.083-.168.14l-.682.55a10.2 10.2 0 0 1-2.058-2.058l.549-.682.14-.169a8 8 0 0 0 .447-.564c.206-.302.405-.691.434-1.18a2 2 0 0 0-.019-.347q-.02-.18-.06-.456a163 163 0 0 0-.243-1.57v-.006A1.35 1.35 0 0 0 9.906 6.4c-.343-.143-.714-.15-.934-.15m6.12 9.911a9 9 0 0 1-2.199-.81l.28-.226c.11-.088.198-.163.277-.23.13-.11.233-.198.364-.288.168-.115.29-.162.403-.172h.006l.1.01q.142.015.41.055c.347.05.838.127 1.497.23l.008.052q.011.1.01.245c0 .625-.014.724-.06.827a.8.8 0 0 1-.208.232.8.8 0 0 1-.272.151c-.122.025-.176.023-.616-.076m-6.219-5.336-.225.28a9 9 0 0 1-.81-2.198c-.1-.44-.102-.494-.076-.616a.8.8 0 0 1 .15-.272.8.8 0 0 1 .233-.207c.103-.047.202-.062.827-.062a2 2 0 0 1 .296.019c.103.658.18 1.15.23 1.497a14 14 0 0 1 .066.516c-.01.112-.057.235-.172.403-.09.13-.178.234-.288.364a10 10 0 0 0-.23.277" clip-rule="evenodd"/></svg>