<svg xmlns="http://www.w3.org/2000/svg" fill="none" viewBox="0 0 24 24"><path fill="currentColor" fill-rule="evenodd" d="M2 3.75c.597 0 .996 0 1.303.028.295.027.438.074.537.128q.242.135.404.358c.067.09.131.227.194.517.066.3.116.696.19 1.289l.559 4.472a5.75 5.75 0 1 0 7.427 4.208h3.136v2.628a2.251 2.251 0 1 0 1.5 0v-2.572c.061.015.11.034.158.057q.084.041.164.097c.195.138.354.371.881 1.248l.018.03c.181.3.346.575.505.785.171.227.389.457.707.594q.188.08.39.114c.349.058.656-.025.918-.133a8 8 0 0 0 .798-.408l.574-.318a.75.75 0 1 0-.726-1.312l-.543.3c-.332.184-.526.29-.674.351a.6.6 0 0 1-.113.038l-.026-.008a.6.6 0 0 1-.107-.12 9 9 0 0 1-.435-.686l-.074-.123c-.417-.695-.741-1.234-1.229-1.578a3 3 0 0 0-.37-.219 2.5 2.5 0 0 0-.816-.226v-1.343c0-1.133 0-2.058-.098-2.79-.103-.763-.325-1.425-.854-1.954s-1.19-.751-1.955-.854c-.73-.098-1.656-.098-2.79-.098h-5.39l-.05-.399c-.07-.551-.128-1.014-.209-1.389-.085-.393-.21-.756-.448-1.082a2.75 2.75 0 0 0-.89-.786c-.353-.196-.728-.274-1.129-.31-.382-.034-.848-.034-1.404-.034H2a.75.75 0 0 0 0 1.5m13.75 9.5h-3.699a5.75 5.75 0 0 0-5.388-2.99L6.35 7.75h5.15c1.2 0 2.024.002 2.643.085.598.08.89.224 1.094.428s.348.496.428 1.094c.083.619.085 1.443.085 2.643zm.75 5.5h-.001a.75.75 0 1 0 .002 0zM2.75 16a4.25 4.25 0 1 1 8.5 0 4.25 4.25 0 0 1-8.5 0m5.258 0a1 1 0 0 1-1 1h-.01a1 1 0 1 1 0-2h.01a1 1 0 0 1 1 1" clip-rule="evenodd"/></svg>