<svg xmlns="http://www.w3.org/2000/svg" fill="none" viewBox="0 0 24 24"><path fill="currentColor" fill-rule="evenodd" d="M13.49 2.252a.75.75 0 0 1 .75.75v2.001a.75.75 0 0 1-1.5 0V3.002a.75.75 0 0 1 .75-.75m-4.024 2.22a.75.75 0 0 1 1.061.002l.998 1a.75.75 0 0 1-1.062 1.06l-.998-1.001a.75.75 0 0 1 .001-1.06m8.046 0a.75.75 0 0 1 .002 1.06l-.998 1.001a.75.75 0 1 1-1.062-1.059l.998-1a.75.75 0 0 1 1.06-.002m1.673 3.758c.88-.006 1.683.004 2.216.082.894.132 1.19.936 1.26 1.425.121.84.112 1.582.03 2.166-.04.291-.1.555-.176.778a1.8 1.8 0 0 1-.282.544c-.437.732-1.195 1.387-1.942 1.836-.393.236-.81.432-1.214.556-.366.113-.778.185-1.17.129q-.553 0-.988-.003c-.82-.003-1.348-.005-1.713.023a2 2 0 0 0-.286.036l-.81 2.095-.021.048c-.654 1.393-2.917 4.125-6.742 3.772-3.789-.348-5.453-3.352-5.823-4.844-.36-1.027-.633-3.475.963-5.775C4.118 8.748 6.906 8.11 8.57 8.25h2.49q.065 0 .128.01c.175.03.36.078.548.172.191.097.347.223.486.37.215.228.428.553.683.955.15.015.358.02.608.016q.299-.005.596-.016l.22-.007.17-.005.025-.132.002-.01c.015-.082.035-.193.063-.301.058-.222.184-.577.537-.821.334-.23.73-.265 1.109-.224q.939-.002 1.809-.016.592-.008 1.14-.012m-1.1 1.512c-.603.008-1.25.016-1.894.016a1 1 0 0 1-.095-.006l-.07-.007-.027.14-.002.009a5 5 0 0 1-.065.31 1.73 1.73 0 0 1-.46.836.75.75 0 0 1-.6.208 5 5 0 0 0-.496.002l-.201.007c-.202.007-.427.014-.642.017-.286.004-.6 0-.86-.033a2 2 0 0 1-.432-.1.96.96 0 0 1-.51-.434c-.33-.52-.48-.748-.6-.874-.044-.047-.064-.057-.07-.06a.3.3 0 0 0-.072-.022H8.537l-.069-.004c-1.278-.118-3.494.399-4.748 2.206-1.28 1.844-1.011 3.796-.772 4.446q.015.042.026.087c.258 1.098 1.55 3.465 4.51 3.738 2.943.27 4.722-1.82 5.236-2.894l.854-2.208a1.3 1.3 0 0 1 .683-.678c.256-.11.547-.152.837-.174.428-.032 1.045-.03 1.902-.027q.442.003.971.003.07 0 .14.013c.076.014.25.011.528-.075.266-.082.571-.222.883-.409.638-.383 1.19-.899 1.448-1.356a1 1 0 0 1 .09-.126 1 1 0 0 0 .04-.1c.039-.112.08-.277.11-.496a6.4 6.4 0 0 0-.03-1.746.7.7 0 0 0-.042-.162c-.406-.053-1.071-.065-1.94-.06-.342.003-.716.008-1.108.013M6.835 15a1.25 1.25 0 1 1 2.5 0 1.25 1.25 0 0 1-2.5 0m1.25-2.75a2.75 2.75 0 1 0 0 5.5 2.75 2.75 0 0 0 0-5.5" clip-rule="evenodd"/></svg>