<svg xmlns="http://www.w3.org/2000/svg" fill="none" viewBox="0 0 24 24"><path fill="currentColor" fill-rule="evenodd" d="M9.94 3.25H14c.41 0 .75.34.75.75s-.34.75-.75.75h-4c-1.91 0-3.26 0-4.29.14-1.01.14-1.59.39-2.01.81-.42.43-.68 1-.81 2.01-.09.68-.12 1.5-.13 2.53l1.22-1.18a2.924 2.924 0 0 1 4.04 0 2.76 2.76 0 0 1 0 3.98c-.52.51-.52 1.31 0 1.82.54.52 1.42.52 1.96 0l.5-.48c.3-.29.77-.28 1.06.02.29.29.28.77-.02 1.06l-.5.48a2.924 2.924 0 0 1-4.04 0 2.76 2.76 0 0 1 0-3.98c.52-.51.52-1.31 0-1.82-.54-.52-1.42-.52-1.96 0l-2.27 2.19c0 1.74 0 2.99.14 3.96.14 1.01.39 1.58.81 2.01.42.42 1 .67 2.01.81 1.03.14 2.38.14 4.29.14h4c1.42 0 2.43 0 3.21-.08.77-.08 1.23-.23 1.6-.47.35-.23.66-.54.9-.89.24-.37.39-.83.47-1.6.08-.78.08-1.79.08-3.21 0-.41.34-.75.75-.75s.75.34.75.75v.04c0 1.37 0 2.46-.09 3.32-.09.89-.28 1.63-.71 2.28-.35.52-.79.96-1.31 1.31-.65.43-1.39.62-2.28.71-.87.09-1.95.09-3.32.09h-4.1c-1.84 0-3.29 0-4.43-.15-1.17-.16-2.12-.49-2.87-1.24s-1.08-1.7-1.24-2.87c-.15-1.14-.15-2.6-.15-4.43v-.12c0-1.83 0-3.29.15-4.43.16-1.17.49-2.12 1.24-2.87s1.7-1.08 2.87-1.24c1.14-.15 2.59-.15 4.43-.15zm11.77.66c-.88-.88-2.3-.88-3.18 0l-5.48 5.47c-.52.52-.81 1.22-.81 1.95V13c0 .41.34.75.75.75h1.67c.73 0 1.43-.29 1.94-.81l5.48-5.47c.88-.88.88-2.3 0-3.18l-.38-.38zm-2.12 1.06c.29-.29.77-.29 1.06 0l.38.38c.29.29.29.77 0 1.06l-5.48 5.47c-.23.24-.55.37-.88.37h-.92v-.92c0-.33.13-.65.37-.89l5.48-5.47z" clip-rule="evenodd"/></svg>