<svg xmlns="http://www.w3.org/2000/svg" fill="none" viewBox="0 0 24 24"><path fill="currentColor" fill-rule="evenodd" d="M12 3.75c-2.75 0-5.322.826-7.508 2.264-1.34.88-1.63 1.123-1.725 1.687-.046.271-.005.526.193.912.217.422.578.919 1.132 1.674l1.753 2.39a13.98 13.98 0 0 1 12.31 0l1.753-2.39c.554-.755.916-1.253 1.132-1.674.198-.386.239-.641.193-.912-.095-.564-.384-.807-1.724-1.687A13.6 13.6 0 0 0 12 3.75M5.394 14.638l-.151-.245-2.394-3.265c-.511-.697-.946-1.29-1.223-1.829-.301-.586-.452-1.172-.338-1.847.214-1.273 1.116-1.864 2.233-2.596l.147-.096A15.1 15.1 0 0 1 12 2.25c3.058 0 5.913.92 8.332 2.51l.147.096c1.117.732 2.02 1.323 2.233 2.596.114.675-.036 1.26-.338 1.847-.277.54-.712 1.132-1.223 1.829l-2.396 3.268-.15.242-.019-.012-2.84 3.875c-.702.956-1.276 1.74-1.802 2.276-.545.556-1.156.973-1.944.973s-1.399-.416-1.944-.973c-.526-.537-1.1-1.32-1.801-2.276l-2.841-3.875zm10.307 1.387 1.55-2.116a12.48 12.48 0 0 0-10.503 0L8.3 16.026a9.22 9.22 0 0 1 7.4-.001m-.914 1.246a7.7 7.7 0 0 0-5.573 0l.215.294c.745 1.017 1.257 1.711 1.699 2.162.431.441.677.523.872.523s.44-.082.872-.523c.442-.45.954-1.145 1.699-2.161z" clip-rule="evenodd"/></svg>