<svg xmlns="http://www.w3.org/2000/svg" fill="none" viewBox="0 0 24 24"><path fill="currentColor" fill-rule="evenodd" d="M5.353 1.25h.294c.525 0 .992 0 1.37.05.41.056.824.183 1.162.521s.465.752.52 1.162c.043.32.05.703.05 1.13l6.504 4.646c.005-.287.017-.548.048-.776.055-.41.182-.824.52-1.162.339-.338.752-.465 1.162-.52.377-.051.845-.051 1.37-.051h.294c.525 0 .993 0 1.37.05.41.056.824.183 1.162.521s.465.752.52 1.162c.051.378.051.845.051 1.37v.294c0 .525 0 .992-.05 1.37-.056.41-.183.824-.521 1.162s-.752.465-1.162.52c-.377.051-.845.051-1.37.051h-.294c-.525 0-.993 0-1.37-.05-.41-.056-.823-.183-1.162-.521s-.465-.752-.52-1.162a7 7 0 0 1-.047-.752l-5.028 4.19 5.064 3.616.01-.088c.056-.41.183-.823.521-1.162.339-.338.752-.465 1.162-.52.377-.051.845-.051 1.37-.051h.294c.525 0 .993 0 1.37.05.41.056.824.183 1.162.521s.465.752.52 1.162c.051.377.051.845.051 1.37v.294c0 .525 0 .993-.05 1.37-.056.41-.183.824-.521 1.162s-.752.465-1.162.52c-.377.051-.845.051-1.37.051h-.294c-.525 0-.993 0-1.37-.05-.41-.056-.823-.183-1.162-.521s-.465-.752-.52-1.162a9 9 0 0 1-.05-1.131l-6.504-4.645a7 7 0 0 1-.048.776c-.055.41-.182.824-.52 1.162s-.752.465-1.162.52c-.377.051-.845.051-1.37.051h-.294c-.525 0-.992 0-1.37-.05-.41-.056-.824-.183-1.162-.521s-.465-.752-.52-1.162c-.051-.377-.051-.845-.051-1.37v-.294c0-.525 0-.992.05-1.37.056-.41.183-.824.521-1.162s.752-.465 1.162-.52c.378-.051.845-.051 1.37-.051h.294c.525 0 .992 0 1.37.05.41.056.824.183 1.162.521s.465.752.52 1.162c.03.222.042.475.047.752l5.028-4.19L8.71 5.93l-.01.088c-.056.41-.183.824-.521 1.162s-.752.465-1.162.52c-.377.051-.845.051-1.37.051h-.294c-.525 0-.992 0-1.37-.05-.41-.056-.824-.183-1.162-.521s-.465-.752-.52-1.162c-.051-.378-.051-.845-.051-1.37v-.294c0-.525 0-.992.05-1.37.056-.41.183-.824.521-1.162s.752-.465 1.162-.52c.378-.051.845-.051 1.37-.051M7.25 4.497V4.6c0 .587-.002.952-.037 1.217-.032.24-.08.286-.094.3v.001h-.002c-.014.015-.06.063-.3.095-.265.035-.63.037-1.217.037h-.2c-.587 0-.952-.002-1.217-.037-.24-.032-.286-.08-.3-.094h-.001v-.002c-.015-.014-.063-.06-.095-.3-.035-.265-.037-.63-.037-1.217v-.2c0-.587.002-.952.037-1.217.032-.24.08-.286.094-.3v-.001h.002c.014-.015.06-.063.3-.095.265-.035.63-.037 1.217-.037h.2c.587 0 .952.002 1.217.037.24.032.286.08.3.094h.001v.002c.015.014.063.06.095.3.035.265.037.63.037 1.217zm9.5 15.017v.086c0 .587.002.952.037 1.217.032.24.08.286.094.3v.001h.002c.014.015.06.063.3.095.265.035.63.037 1.217.037h.2c.587 0 .952-.002 1.217-.037.24-.032.286-.08.3-.094h.001v-.002c.015-.014.063-.06.095-.3.035-.265.037-.63.037-1.217v-.2c0-.587-.002-.952-.037-1.217-.032-.24-.08-.286-.094-.3v-.001h-.002c-.014-.015-.06-.063-.3-.095-.265-.035-.63-.037-1.217-.037h-.2c-.587 0-.952.002-1.217.037-.24.032-.286.08-.3.094h-.001v.002c-.015.014-.063.06-.095.3-.035.265-.037.63-.037 1.217zm.133-11.633h-.001v.002c-.015.014-.063.06-.095.3-.035.265-.037.63-.037 1.217v.2c0 .587.002.952.037 1.217.032.24.08.286.094.3v.001h.002c.014.015.06.063.3.095.265.035.63.037 1.217.037h.2c.587 0 .952-.002 1.217-.037.24-.032.286-.08.3-.094h.001v-.002c.015-.014.063-.06.095-.3.035-.265.037-.63.037-1.217v-.2c0-.587-.002-.952-.037-1.217-.032-.24-.08-.286-.094-.3v-.001h-.002c-.014-.015-.06-.063-.3-.095-.265-.035-.63-.037-1.217-.037h-.2c-.587 0-.952.002-1.217.037-.24.032-.286.08-.3.094m-13.001 5c.015-.014.062-.062.301-.094.265-.035.63-.037 1.217-.037h.2c.587 0 .952.002 1.217.037.24.032.286.08.3.094h.001v.002c.015.014.063.06.095.3.035.265.037.63.037 1.217v.2c0 .587-.002.952-.037 1.217-.032.24-.08.286-.094.3v.001h-.002c-.014.015-.06.063-.3.095-.265.035-.63.037-1.217.037h-.2c-.587 0-.952-.002-1.217-.037-.24-.032-.286-.08-.3-.094h-.001v-.002c-.015-.014-.063-.06-.095-.3-.035-.265-.037-.63-.037-1.217v-.2c0-.587.002-.952.037-1.217.032-.24.08-.286.094-.3z" clip-rule="evenodd"/></svg>