<svg xmlns="http://www.w3.org/2000/svg" fill="none" viewBox="0 0 24 24"><path fill="currentColor" fill-rule="evenodd" d="M17.133 1.75a1.316 1.316 0 0 1 .931 2.251L15.355 6.72a1.007 1.007 0 0 0-.001 1.431 1.006 1.006 0 0 0 1.43 0l2.721-2.711a1.316 1.316 0 0 1 2.25.932v1.56c-.005 3.965-.093 4.694-1.36 5.96-1.312 1.312-3.436 1.36-6.615 1.36l-.466-.002-5.951 5.95a3.56 3.56 0 0 1-2.534 1.053A3.55 3.55 0 0 1 2.3 21.198a3.53 3.53 0 0 1-1.05-2.516 3.56 3.56 0 0 1 1.052-2.542l5.951-5.951v-.087c-.002-3.39-.003-5.629 1.36-6.992 1.262-1.262 1.989-1.352 5.91-1.36zm-8.62 10.3-5.15 5.15a2.073 2.073 0 0 0-.003 2.938 2.07 2.07 0 0 0 2.942.002l5.15-5.15a4.77 4.77 0 0 1-2.939-2.94m8.18-8.799h-1.06c-3.886.006-4.131.09-4.96.92-.923.923-.922 2.913-.92 5.927v.43a3.254 3.254 0 0 0 3.25 3.222h.427c3 0 4.981 0 5.901-.92.888-.888.922-1.107.921-5.847V6.81l-2.41 2.402a2.5 2.5 0 0 1-1.775.736c-.669 0-1.3-.262-1.775-.737a2.5 2.5 0 0 1-.737-1.775c0-.669.262-1.3.737-1.775zM5.003 19.5h.01a.996.996 0 0 0 .995-1c0-.552-.453-1-1.005-1a1 1 0 0 0 0 2" clip-rule="evenodd"/></svg>