<svg xmlns="http://www.w3.org/2000/svg" fill="none" viewBox="0 0 24 24"><path fill="currentColor" fill-rule="evenodd" d="M4 13.25a.75.75 0 0 0 0 1.5h2.395c.182 0 .36.041.52.119l2.043.988c.365.177.767.268 1.174.268h1.042c.427 0 .777.228.953.547l-1.934.535c-.28.077-.582.05-.841-.076l-2.183-1.056a.75.75 0 1 0-.653 1.35l2.183 1.057a2.7 2.7 0 0 0 1.894.17l2.54-.702a.84.84 0 0 0 .617-.808l-.001-.087 4.064-1.25h.003a1.24 1.24 0 0 1 1.373.476c.116.161.056.382-.085.463l-7.516 4.337a1.24 1.24 0 0 1-.98.118L4.215 19.3a.75.75 0 0 0-.427 1.438l6.395 1.898c.724.215 1.5.121 2.156-.257l7.516-4.336c.933-.539 1.173-1.78.551-2.64a2.735 2.735 0 0 0-3.034-1.032h-.001l-4.127 1.269a2.6 2.6 0 0 0-2.069-1.016h-1.042c-.182 0-.36-.04-.521-.119l-2.042-.988a2.7 2.7 0 0 0-1.174-.268zM16.572 1.483a.75.75 0 0 0-1.082-.005l-2.882 2.975-.004.005c-1.827 1.919-1.794 4.994.031 6.88l.005.004a4.686 4.686 0 0 0 6.728-.032c1.858-1.919 1.826-4.996.003-6.881zm-2.862 8.808c-1.266-1.31-1.287-3.465-.022-4.796l2.335-2.412 2.263 2.381.005.005c1.268 1.31 1.289 3.466 0 4.797a3.186 3.186 0 0 1-4.58.025" clip-rule="evenodd"/></svg>