<svg xmlns="http://www.w3.org/2000/svg" fill="none" viewBox="0 0 24 24"><path fill="currentColor" fill-rule="evenodd" d="M11.456 2.75c.386 0 .627.003.794.013v.292c0 1.368 0 2.47.117 3.337.12.9.38 1.658.981 2.26.602.602 1.36.86 2.26.982.867.116 1.97.116 3.337.116h.288c.014.192.017.47.017.907V13a.75.75 0 0 0 1.5 0v-2.463c0-.7.001-1.252-.21-1.76-.21-.51-.601-.9-1.096-1.393l-.085-.086-4.737-4.736-.074-.074c-.426-.427-.762-.764-1.19-.969a3 3 0 0 0-.271-.112c-.447-.158-.923-.157-1.527-.157h-.152c-1.582 0-2.835 0-3.827.116-1.019.119-1.858.368-2.562.936a4.8 4.8 0 0 0-.717.717c-.568.704-.817 1.544-.936 2.562-.116.992-.116 2.245-.116 3.827V13a.75.75 0 0 0 1.5 0V9.456c0-1.64.001-2.806.106-3.701.102-.879.296-1.4.614-1.795q.219-.271.49-.49c.395-.318.916-.512 1.795-.614.895-.105 2.06-.106 3.7-.106m2.397 3.442c-.081-.604-.098-1.365-.102-2.38l4.437 4.437c-1.014-.004-1.776-.02-2.38-.102-.734-.099-1.122-.28-1.399-.556-.277-.277-.457-.665-.556-1.399M8.49 16.406a.75.75 0 0 0-1.262-.811L5.952 17.58l-1.33-1.98a.75.75 0 0 0-1.245.835l1.692 2.522-1.684 2.64a.75.75 0 0 0 1.265.806l1.338-2.097 1.393 2.033a.75.75 0 0 0 1.238-.848l-1.753-2.558zm2.634-.822A.75.75 0 0 0 9.75 16v6a.75.75 0 0 0 1.5 0v-3.523l.626.94a.75.75 0 0 0 1.248 0l.626-.94V22a.75.75 0 0 0 1.5 0v-6a.75.75 0 0 0-1.374-.416L12.5 17.648zM18.25 16a.75.75 0 0 0-1.5 0v6c0 .414.336.75.75.75H20a.75.75 0 0 0 0-1.5h-1.75z" clip-rule="evenodd"/></svg>