<svg xmlns="http://www.w3.org/2000/svg" fill="none" viewBox="0 0 24 24"><path fill="currentColor" fill-rule="evenodd" d="M4.705 6.312A9.23 9.23 0 0 1 12 2.75q.999.002 1.938.203a6.253 6.253 0 0 1-9.233 3.36M3.04 6.058A10.74 10.74 0 0 1 12 1.25c5.937 0 10.75 4.813 10.75 10.75S17.937 22.75 12 22.75a10.75 10.75 0 0 1-9.705-6.12A10.7 10.7 0 0 1 1.25 12a11 11 0 0 1 .162-1.87A10.7 10.7 0 0 1 3.04 6.058m.84 1.508a7.753 7.753 0 0 0 11.495-4.18c.98.383 1.877.929 2.66 1.604-.91 4.152-4.61 7.26-9.035 7.26a9.2 9.2 0 0 1-6.035-2.24c.19-.866.5-1.687.915-2.444M2.753 11.75c1.76 1.259 3.918 2 6.247 2 4.803 0 8.87-3.15 10.249-7.497a9.2 9.2 0 0 1 1.776 3.708c-2.047 4.31-6.44 7.29-11.525 7.29a12.7 12.7 0 0 1-5.943-1.468 9.2 9.2 0 0 1-.804-4.033m2.22 6.266c1.423.476 2.945.734 4.527.734 4.866 0 9.16-2.439 11.731-6.16a9.25 9.25 0 0 1-16.258 5.426" clip-rule="evenodd"/></svg>