<svg xmlns="http://www.w3.org/2000/svg" fill="none" viewBox="0 0 24 24"><path fill="currentColor" fill-rule="evenodd" d="M6.543 4.03c.608.46 1.14 1.046 1.517 1.468l.016.02c2.308-.78 4.845-1.27 6.924-1.27 4.312 0 7.75 2.926 7.75 6.75 0 2.261-1.203 4.209-3.078 5.423l-.258 1.114c-.155.67-.287 1.24-.449 1.682-.17.466-.41.897-.848 1.197-.446.305-.931.36-1.419.324-.448-.032-.99-.149-1.611-.283l-.05-.01-.767-.166-.104-.023c-.605-.13-1.09-.234-1.511-.51-.415-.274-.717-.681-1.101-1.2l-.067-.091-.946-1.276a26 26 0 0 1-2.465-.701l-.016.019c-.376.422-.91 1.009-1.517 1.468-.589.445-1.388.88-2.276.76-.491-.066-.952-.326-1.524-.647l-.11-.061a.75.75 0 0 1-.352-.868l.918-3.09a9 9 0 0 1-.356-.287c-.882-.748-1.593-1.689-1.593-2.774 0-1.086.711-2.027 1.593-2.775q.171-.146.356-.287l-.918-3.09a.75.75 0 0 1 .352-.867l.11-.062c.572-.321 1.033-.58 1.524-.647.888-.12 1.687.315 2.276.76m11.394 13.233a9 9 0 0 1-2.937.485c-.72 0-1.494-.06-2.294-.168.473.638.61.805.773.912.158.104.348.156 1.108.32l.766.166c.686.148 1.123.24 1.453.264.303.022.403-.025.465-.067.07-.047.165-.144.286-.473.119-.327.226-.773.38-1.439M4.51 14.915l-.619 2.082c.326.175.457.226.576.241.287.04.676-.095 1.171-.47.327-.247.64-.552.926-.857l-.234-.1a18 18 0 0 1-1.82-.896M15 5.749c-2.38 0-5.529.72-8.08 1.814-1.273.546-2.356 1.167-3.106 1.804-.376.319-.637.614-.807.882H5a.75.75 0 0 1 0 1.5H3.007c.17.267.431.562.807.881.75.637 1.833 1.258 3.106 1.804 2.551 1.094 5.7 1.815 8.08 1.815 3.688 0 6.25-2.447 6.25-5.25s-2.562-5.25-6.25-5.25M4.467 4.757c-.119.016-.25.067-.576.24L4.51 7.08a18 18 0 0 1 2.054-.996 7.6 7.6 0 0 0-.926-.857c-.495-.375-.884-.509-1.171-.47" clip-rule="evenodd"/></svg>