<svg xmlns="http://www.w3.org/2000/svg" fill="none" viewBox="0 0 24 24"><path fill="currentColor" fill-rule="evenodd" d="M10.977 12.75h-7c-.29 0-.56-.17-.68-.44a.73.73 0 0 1 .12-.8l5.91-6.76h-5.35c-.41 0-.75-.34-.75-.75s.34-.75.75-.75h7c.29 0 .56.17.68.44s.08.58-.12.8l-5.91 6.76h5.35c.41 0 .75.34.75.75s-.34.75-.75.75m-1 8h-4a.74.74 0 0 1-.69-.46c-.12-.28-.05-.6.16-.82l2.72-2.72h-2.19c-.41 0-.75-.34-.75-.75s.34-.75.75-.75h4c.3 0 .58.18.69.46.12.28.05.6-.16.82l-2.72 2.72h2.19c.41 0 .75.34.75.75s-.34.75-.75.75m4-5h6c.41 0 .75-.34.75-.75s-.34-.75-.75-.75h-4.19l4.72-4.72c.21-.22.28-.54.16-.82a.74.74 0 0 0-.69-.46h-6c-.41 0-.75.34-.75.75s.34.75.75.75h4.19l-4.72 4.72c-.21.22-.28.54-.16.82.11.28.39.46.69.46" clip-rule="evenodd"/></svg>