<svg xmlns="http://www.w3.org/2000/svg" fill="none" viewBox="0 0 24 24"><path fill="currentColor" fill-rule="evenodd" d="M12.548 1.256a.75.75 0 0 1 .627.543l.946 3.404 2.63-.927a.75.75 0 0 1 .947.98l-1.965 5.018a.75.75 0 0 1-.698.476H13.47l-1.018-3.81-1.45.388.915 3.422H10.01a.75.75 0 0 1-.485-.178l-3.01-2.555a.75.75 0 0 1 .281-1.293l1.38-.39L6.9 3.298a.75.75 0 0 1 1.02-.964l2.71 1.32 1.172-2.028a.75.75 0 0 1 .744-.369M3.5 7.25a.75.75 0 0 1 .614.32l3.427 4.895 3.395 2.425a.75.75 0 0 1 .314.61V20a.75.75 0 0 1-.75.75h-.283q.033-.245.033-.5a3.75 3.75 0 1 0-7.467.5H2v-8.5h3.56l-2.45-3.5H2v-1.5zm16.386.32c.14-.2.37-.32.614-.32H22v1.5h-1.11l-2.45 3.5H22v8.5h-.783q.033-.245.033-.5a3.75 3.75 0 1 0-7.467.5H13.5a.75.75 0 0 1-.75-.75v-4.5a.75.75 0 0 1 .314-.61l3.395-2.425zM6.5 22.75a2.5 2.5 0 1 1 0-5 2.5 2.5 0 0 1 0 5m11 0a2.5 2.5 0 1 0 0-5 2.5 2.5 0 0 0 0 5" clip-rule="evenodd"/></svg>