<svg xmlns="http://www.w3.org/2000/svg" fill="none" viewBox="0 0 24 24"><path fill="currentColor" fill-rule="evenodd" d="M5.75 12.75h12.5v10H5.75zm7.25 3v4h-2v-4zM2.664 12.293l2 2-1.414 1.414-2-2zm-1.414 7 2-2 1.414 1.414-2 2zm21.5-5.586-2 2-1.414-1.414 2-2zm-1.414 7-2-2 1.414-1.414 2 2zM12.472 1.631l-.471-.381-.472.381c-.433.35-1.003.708-1.668 1.125q-.326.204-.68.43c-.921.588-1.933 1.278-2.75 2.11-.82.838-1.49 1.866-1.647 3.135-.108.881.038 1.818.476 2.819h13.48c.438-1 .584-1.938.476-2.819-.156-1.269-.826-2.297-1.646-3.134-.817-.833-1.828-1.523-2.75-2.112l-.68-.43c-.665-.416-1.235-.773-1.668-1.124" clip-rule="evenodd"/></svg>