<svg xmlns="http://www.w3.org/2000/svg" fill="none" viewBox="0 0 24 24"><path fill="currentColor" fill-rule="evenodd" d="M15.308 15.31a15 15 0 0 1-.345-.6 23 23 0 0 1-.9-1.861q-.11-.248-.201-.464l-1.756 1.182a3.45 3.45 0 0 1-4.367-.359 3.3 3.3 0 0 1 .117-4.848l2.596-2.307a9 9 0 0 0-.656-.247c-1.149-.385-2.823-.711-4.894-.45a.83.83 0 0 1-.518-.103L1.75 3.75v11.538l.006.007a17 17 0 0 0 2.271 2.4c1.538 1.331 3.563 2.555 5.757 2.555 1.87 0 3.655-.432 5.125-1.04 1.021-.423 1.858-.916 2.455-1.381-.878-.76-1.54-1.651-2.056-2.519m1.429-.851c.553.91 1.232 1.772 2.088 2.416l.068-.018c.264-.072.635-.184 1.054-.345.76-.29 1.624-.72 2.307-1.311V3.85L19.76 5.479a5.5 5.5 0 0 1-3.603.857l-1.445-.156a3.83 3.83 0 0 0-2.957.936l-2.79 2.48a1.65 1.65 0 0 0-.06 2.432 1.78 1.78 0 0 0 2.256.18l.01-.007 2.922-1.966.389.129c1.438.476 2.628.23 3.432-.36l.654-.48.986 1.333-.655.48c-.891.654-2.011.988-3.24.925l.032.076.033.075c.222.515.474 1.074.78 1.639q.112.205.232.408" clip-rule="evenodd"/></svg>