<svg xmlns="http://www.w3.org/2000/svg" fill="none" viewBox="0 0 24 24"><path fill="currentColor" fill-rule="evenodd" d="M1.25 12a3.75 3.75 0 0 0 2.164 3.399 3.75 3.75 0 0 0 2.909 4.79 3.251 3.251 0 0 0 6.427-.689v-15a3.25 3.25 0 0 0-6.427-.69A3.75 3.75 0 0 0 3.414 8.6 3.75 3.75 0 0 0 1.25 12m18-8.75a1.5 1.5 0 0 0-1.45 1.889L16.69 6.25H14.5v1.5H17a.75.75 0 0 0 .53-.22l1.331-1.33a1.5 1.5 0 0 0 1.889-1.45 1.5 1.5 0 0 0-1.5-1.5m-4.75 13H17a.75.75 0 0 1 .53.22l1.331 1.33a1.503 1.503 0 0 1 1.889 1.45 1.5 1.5 0 1 1-2.95-.389l-1.11-1.111H14.5zm4.75-5.75a1.5 1.5 0 0 0-1.3.75H14.5v1.5h3.45a1.5 1.5 0 1 0 1.3-2.25" clip-rule="evenodd"/></svg>