<svg xmlns="http://www.w3.org/2000/svg" fill="none" viewBox="0 0 24 24"><path fill="currentColor" fill-rule="evenodd" d="M5.25 11.25H2.78c.29-3.72 2.78-6.81 6.17-7.99-.76 1.16-1.34 2.76-1.69 4.59l-.14.74 1.47.28.14-.74c.32-1.7.85-3.1 1.47-4.05.64-.98 1.27-1.34 1.79-1.34s1.15.37 1.79 1.34c.62.95 1.14 2.35 1.47 4.05l.14.74 1.47-.28-.14-.74c-.35-1.82-.93-3.42-1.69-4.59a9.27 9.27 0 0 1 6.17 7.99h-2.47v1.5h2.47c-.29 3.72-2.78 6.81-6.17 7.99.76-1.16 1.34-2.76 1.69-4.59l.14-.74-1.47-.28-.14.74c-.32 1.7-.85 3.1-1.47 4.05-.64.98-1.27 1.34-1.79 1.34s-1.15-.37-1.79-1.34c-.62-.95-1.14-2.35-1.47-4.05l-.14-.74-1.47.28.14.74c.35 1.82.93 3.42 1.69 4.59a9.27 9.27 0 0 1-6.17-7.99h2.47zm-4 .75C1.25 6.06 6.06 1.25 12 1.25S22.75 6.06 22.75 12 17.94 22.75 12 22.75 1.25 17.94 1.25 12m12.1-1.35L12.25 7h-.5l-1.1 3.65L7 11.75v.5l3.65 1.1 1.1 3.65h.5l1.1-3.65 3.65-1.1v-.5z" clip-rule="evenodd"/></svg>