<svg xmlns="http://www.w3.org/2000/svg" fill="none" viewBox="0 0 24 24"><path fill="currentColor" fill-rule="evenodd" d="M8.16 1.858c-1.232.47-2.447 1.332-2.845 2.838-.274 1.036-.403 2.008-.25 2.98.155.982.586 1.885 1.3 2.807l9.46 12.266L21 15.264 8.109 4.001q.331-.216.77-.384c.918-.35 2.177-.476 3.123-.476s2.201.128 3.118.477q.44.168.771.384L13.177 6.44l4.527 3.954c.673-.89 1.08-1.766 1.23-2.717.154-.97.025-1.943-.249-2.98-.398-1.505-1.613-2.367-2.844-2.837-1.229-.468-2.753-.609-3.839-.609s-2.614.14-3.843.608M6.133 12.64l4.912 6.369-2.872 3.741L3 15.265z" clip-rule="evenodd"/></svg>