<svg xmlns="http://www.w3.org/2000/svg" fill="none" viewBox="0 0 24 24"><path fill="currentColor" fill-rule="evenodd" d="M1.25 6.128c0-1.222.5-2.222 1.321-2.9.807-.668 1.878-.989 2.992-.978 1.303.013 2.703.517 3.785 1.403 1.093.894 1.902 2.215 1.902 3.854V21.75H6.583v-9.898a5.2 5.2 0 0 1-2.07-.006c-.918-.193-1.739-.605-2.334-1.26-.602-.664-.929-1.528-.929-2.53zm21.5 0c0-1.222-.5-2.222-1.321-2.9-.807-.668-1.878-.989-2.992-.978-1.303.013-2.703.517-3.785 1.403-1.093.894-1.902 2.215-1.902 3.854V21.75h4.667v-9.898a5.2 5.2 0 0 0 2.07-.006c.919-.193 1.739-.605 2.334-1.26.602-.664.929-1.528.929-2.53z" clip-rule="evenodd"/></svg>