<svg xmlns="http://www.w3.org/2000/svg" fill="none" viewBox="0 0 24 24"><path fill="currentColor" fill-rule="evenodd" d="M12 1.25c5.354 0 9.75 3.783 9.75 9.75 0 3.018-1.626 5.94-3.57 8.076-.98 1.076-2.065 1.981-3.118 2.622-1.034.63-2.112 1.052-3.062 1.052s-2.028-.422-3.062-1.052c-1.053-.64-2.138-1.546-3.118-2.622C3.876 16.941 2.25 14.018 2.25 11c0-5.967 4.396-9.75 9.75-9.75M14 17h-4v2h4zM7.333 9.25H5.25v2.083a3.417 3.417 0 0 0 3.417 3.417h2.083v-2.083A3.417 3.417 0 0 0 7.333 9.25m11.417 0h-2.083a3.417 3.417 0 0 0-3.417 3.417v2.083h2.083a3.417 3.417 0 0 0 3.417-3.417z" clip-rule="evenodd"/></svg>