<svg xmlns="http://www.w3.org/2000/svg" fill="none" viewBox="0 0 24 24"><path fill="currentColor" fill-rule="evenodd" d="M4 4.878h7.547c-.286-.5-.655-.905-1.062-1.15L11.516 2c1.057.64 1.809 1.724 2.228 2.878H20V7.9h-2V6.892H6V7.9H4zm9.054 5.035H8.5V7.898h7a1 1 0 0 1 .926.627c.153.378.064.813-.225 1.1l-2.758 2.725v.584H18v2.015h-4.557v3.097c0 1.022-.29 2.002-.905 2.745-.63.763-1.549 1.208-2.63 1.208v-2.014c.502 0 .851-.19 1.093-.483.257-.31.442-.803.442-1.456v-3.097H7v-2.015h4.443v-1.43z" clip-rule="evenodd"/></svg>