<svg xmlns="http://www.w3.org/2000/svg" fill="none" viewBox="0 0 24 24"><path fill="currentColor" fill-rule="evenodd" d="M1.947 18.048a4.9 4.9 0 0 0 .897 2.047L8.94 14l-1.47-1.47 1.06-1.06L10 12.938l2.94-2.94-1.47-1.469 1.06-1.06L14 8.938l6.104-6.104a4.9 4.9 0 0 0-2.033-.886l-.013-.002c-4.419-.736-9.077.6-12.29 3.808-3.211 3.206-4.555 7.86-3.824 12.28zM10 15.061l-6.09 6.09c.595.432 1.28.73 2.002.864 4.411.841 9.14-.605 12.309-3.804 3.243-3.191 4.586-7.866 3.818-12.287l-.001-.008a4.9 4.9 0 0 0-.875-2.018L15.06 10l1.47 1.47-1.061 1.06L14 11.06 11.06 14l1.47 1.47-1.06 1.06z" clip-rule="evenodd"/></svg>