<svg xmlns="http://www.w3.org/2000/svg" fill="none" viewBox="0 0 24 24"><path fill="currentColor" fill-rule="evenodd" d="M6.497 1.25c-1.067 0-1.833.883-1.935 1.847a10 10 0 0 1-.34 1.68q-.07.246-.153.519c-.103.342-.21.701-.288 1.026-.13.538-.216 1.12-.16 1.767.052.582.215 1.175.514 1.806v.6l-.253.173-.05.047a4.95 4.95 0 0 0-1.58 3.4l-.002.024v7.634c0 .54.423.977.945.977h6.61a.93.93 0 0 0 .669-.287 1 1 0 0 0 .276-.69l-.005-7.634-.001-.025a4.95 4.95 0 0 0-1.58-3.4l-.051-.046-.253-.172v-.6c.3-.632.462-1.225.513-1.807.057-.648-.03-1.23-.159-1.767a20 20 0 0 0-.289-1.026 34 34 0 0 1-.153-.52 10 10 0 0 1-.34-1.68C8.33 2.134 7.565 1.25 6.497 1.25m.057 2.06c.083.781.243 1.441.405 2.015.068.24.13.448.188.639.09.295.167.55.234.829.1.414.142.764.11 1.12-.03.351-.138.763-.409 1.285l-.111.216v2.135l.985.671c.534.513.856 1.22.9 1.972v.058H4.139v-.058a2.97 2.97 0 0 1 .9-1.972l.985-.67V9.413l-.112-.216c-.27-.522-.379-.934-.41-1.286-.03-.355.012-.705.112-1.12.066-.277.143-.533.233-.828.057-.191.12-.398.188-.639.162-.574.322-1.234.405-2.015.045-.211.095-.088.114 0m10.943-2.06c-1.067 0-1.833.883-1.935 1.847a10 10 0 0 1-.34 1.68 33 33 0 0 1-.153.519c-.103.342-.21.701-.288 1.026-.13.538-.216 1.12-.16 1.767.052.582.215 1.175.514 1.806v.6l-.253.173-.05.047a4.95 4.95 0 0 0-1.58 3.4l-.002.024v7.634c0 .54.423.977.945.977h6.61a.93.93 0 0 0 .669-.287 1 1 0 0 0 .276-.69l-.005-7.634-.001-.025a4.95 4.95 0 0 0-1.58-3.4l-.051-.046-.253-.172v-.6c.3-.632.462-1.225.513-1.807.057-.648-.03-1.23-.159-1.767a20 20 0 0 0-.289-1.026q-.082-.272-.153-.52a10 10 0 0 1-.34-1.68c-.102-.963-.867-1.846-1.935-1.846m.057 2.06c.083.781.243 1.441.405 2.015.068.24.13.448.188.639.09.295.167.55.234.829.1.414.142.764.11 1.12-.03.351-.138.763-.409 1.285l-.111.216v2.135l.985.671c.534.513.856 1.22.9 1.972v.058h-4.717v-.058a2.97 2.97 0 0 1 .9-1.972l.985-.67V9.413l-.112-.216c-.27-.522-.378-.934-.41-1.286-.03-.355.012-.705.112-1.12.066-.277.143-.533.233-.828.057-.191.12-.398.188-.639.162-.574.322-1.234.405-2.015.045-.211.095-.088.114 0" clip-rule="evenodd"/></svg>