<svg xmlns="http://www.w3.org/2000/svg" fill="none" viewBox="0 0 24 24"><path fill="currentColor" fill-rule="evenodd" d="M1.25 12c0-1.765.426-3.432 1.18-4.901.66.24 1.417.425 2.191.57 1.965.37 4.572.581 7.379.581s5.414-.212 7.379-.58c.774-.146 1.532-.33 2.191-.571A10.7 10.7 0 0 1 22.75 12c0 5.937-4.813 10.75-10.75 10.75S1.25 17.937 1.25 12m13.5.5a.75.75 0 0 1 1.5 0h1.5a2.25 2.25 0 0 0-4.5 0zm-7 0a.75.75 0 1 1 1.5 0h1.5a2.25 2.25 0 1 0-4.5 0zM12 17.25a4.24 4.24 0 0 0 3.4-1.7l1.2.9a5.74 5.74 0 0 1-4.6 2.3 5.74 5.74 0 0 1-4.6-2.3l1.2-.9a4.24 4.24 0 0 0 3.4 1.7M5.281 4.398A11 11 0 0 1 3.705 4a11 11 0 0 1 1.576-.397c1.689-.317 4.065-.52 6.719-.52s5.03.203 6.719.52c.664.124 1.191.26 1.576.397-.385.136-.912.273-1.576.397-1.689.317-4.065.52-6.719.52s-5.03-.203-6.719-.52M12 1.25c-2.743 0-5.253.208-7.102.555-.916.172-1.721.387-2.32.653a3.1 3.1 0 0 0-.835.517c-.24.22-.493.565-.493 1.025s.253.805.493 1.025c.238.219.537.385.835.517.599.266 1.404.481 2.32.653 1.849.347 4.36.555 7.102.555s5.253-.208 7.102-.555c.916-.172 1.721-.387 2.32-.653a3.1 3.1 0 0 0 .835-.517c.24-.22.493-.565.493-1.025s-.253-.805-.493-1.025a3.1 3.1 0 0 0-.835-.517c-.599-.266-1.404-.481-2.32-.653-1.849-.347-4.36-.555-7.102-.555" clip-rule="evenodd"/></svg>