<svg xmlns="http://www.w3.org/2000/svg" fill="none" viewBox="0 0 24 24"><path fill="currentColor" fill-rule="evenodd" d="M1.25 12C1.25 6.063 6.063 1.25 12 1.25S22.75 6.063 22.75 12 17.937 22.75 12 22.75 1.25 17.937 1.25 12M12 15.75a4.24 4.24 0 0 1 3.4 1.7l1.2-.9a5.74 5.74 0 0 0-4.6-2.3 5.74 5.74 0 0 0-4.6 2.3l1.2.9a4.24 4.24 0 0 1 3.4-1.7m-4.693-6c-.06 0-.175.006-.175.006a1 1 0 0 1-.132 0V8.263c.255-.023.676-.011.934.016.488.05 1.203.194 1.76.641.385.31.677.69.88 1.002.276.424.24.924-.013 1.29a1.27 1.27 0 0 1-1.051.538c-.772 0-1.524-.729-1.242-1.633l.073-.236a3 3 0 0 0-.558-.11 4 4 0 0 0-.476-.02m9.386 0c.06 0 .175.006.175.006a1 1 0 0 0 .132 0V8.263a6 6 0 0 0-.934.016c-.488.05-1.203.194-1.76.641a4.3 4.3 0 0 0-.88 1.002c-.276.424-.24.924.013 1.29a1.27 1.27 0 0 0 1.051.538c.772 0 1.524-.729 1.242-1.633l-.073-.236c.168-.053.36-.09.558-.11.187-.02.355-.023.476-.02" clip-rule="evenodd"/></svg>