<svg xmlns="http://www.w3.org/2000/svg" fill="none" viewBox="0 0 24 24"><path fill="currentColor" d="M12.854 5.473c.082-.454.219-.948.426-1.393.39-.836.937-1.33 1.721-1.33v-1.5c-1.615 0-2.57 1.102-3.08 2.196-.431.924-.614 1.961-.66 2.71-2.18 1.3-3.711 3.859-4.006 6.768l-1.492-.15c.304-3.004 1.814-5.847 4.119-7.512A6 6 0 0 0 9.5 5.25c-4.142 0-7.25 4.07-7.25 8.75s3.108 8.75 7.25 8.75q.207 0 .41-.014a9 9 0 0 1-1.363-1.212l1.104-1.016c1.043 1.133 2.379 1.922 3.875 2.164q.478.077.975.078c4.142 0 7.25-4.07 7.25-8.75s-3.108-8.75-7.25-8.75a6.2 6.2 0 0 0-1.647.223"/></svg>