<svg xmlns="http://www.w3.org/2000/svg" fill="none" viewBox="0 0 24 24"><path fill="currentColor" fill-rule="evenodd" d="M4.413 2.036A.975.975 0 0 0 2.83 3.118l3.9 8.848 1.784-.787L5.63 4.637c.919.174 2.028.189 3.296-.099.357-.081.69-.163 1.01-.242.499-.123.97-.238 1.461-.334.779-.15 1.452-.213 2.044-.13a2.68 2.68 0 0 1 1.544.737c.402.38.807.962 1.18 1.851l-7.33 7.33H6.187L1.75 18.188l3.998.062.063 3.998 4.437-4.437v-2.645l7.333-7.332c.887.372 1.468.777 1.848 1.178.445.468.659.976.738 1.544.082.592.02 1.265-.131 2.044a30 30 0 0 1-.334 1.46c-.08.322-.16.654-.242 1.011-.287 1.268-.273 2.377-.1 3.295l-6.468-2.854-.787 1.784 8.775 3.871a.975.975 0 0 0 1.082-1.582c-.282-.282-1.144-1.687-.6-4.082.064-.281.138-.584.214-.896.133-.542.272-1.11.374-1.636.167-.86.274-1.778.148-2.684a4.64 4.64 0 0 0-1.254-2.618c-.468-.492-1.062-.925-1.796-1.303l1.202-1.202V6.25h2v-4.5h-4.5v2h1.086l-1.203 1.203c-.378-.735-.811-1.33-1.304-1.799A4.64 4.64 0 0 0 13.71 1.9c-.906-.126-1.825-.019-2.684.148a35 35 0 0 0-1.636.374c-.312.076-.614.15-.896.214-2.395.544-3.8-.317-4.082-.6" clip-rule="evenodd"/></svg>