<svg xmlns="http://www.w3.org/2000/svg" fill="none" viewBox="0 0 24 24"><path fill="currentColor" fill-rule="evenodd" d="m12.5 7.335 7.6-1.243-.563-3.705a.75.75 0 0 0-.854-.628l-6.183.94zm0 11.975.35 2.3a.75.75 0 0 0 .854.63l7.909-1.203a.75.75 0 0 0 .629-.854L20.326 7.575 12.5 8.855zm3.536-2.047a1 1 0 0 1 .707-1.225l.009-.002a1 1 0 0 1 .518 1.932l-.01.002a1 1 0 0 1-1.224-.707M2.5 2.75a.75.75 0 0 0-.75.75v3.25h9.5V3.5a.75.75 0 0 0-.75-.75zm8.75 5.5h-9.5V21.5a.75.75 0 0 0 .75.75h8a.75.75 0 0 0 .75-.75zM5.5 17.5a1 1 0 0 1 1-1h.009a1 1 0 1 1 0 2H6.5a1 1 0 0 1-1-1" clip-rule="evenodd"/></svg>