<svg xmlns="http://www.w3.org/2000/svg" fill="none" viewBox="0 0 24 24"><path fill="currentColor" fill-rule="evenodd" d="M6.188 10a5.812 5.812 0 1 1 11.624 0 5.812 5.812 0 0 1-11.625 0M12 2.25a7.75 7.75 0 0 0-6.795 4.02 1 1 0 0 0-.203-.02 3.75 3.75 0 0 0 0 7.5q.105 0 .203-.02a7.8 7.8 0 0 0 2.273 2.565q-.238.027-.449.083a3.75 3.75 0 0 0-2.651 2.651c-.128.48-.128 1.153-.128 1.971 0 .414.336.75.75.75h14a.75.75 0 0 0 .75-.75c0-.818 0-1.492-.128-1.97a3.75 3.75 0 0 0-2.651-2.652 3 3 0 0 0-.449-.083 7.8 7.8 0 0 0 2.273-2.565q.1.02.206.02A3.75 3.75 0 0 0 21.5 7.204V2.5h-2v3.783a4 4 0 0 0-.5-.033q-.105 0-.205.02A7.75 7.75 0 0 0 12 2.25M12.002 13c2.21 0 4-1.343 4-3s-1.79-3-4-3-4 1.343-4 3 1.79 3 4 3" clip-rule="evenodd"/></svg>