<svg xmlns="http://www.w3.org/2000/svg" fill="none" viewBox="0 0 24 24"><path fill="currentColor" fill-rule="evenodd" d="M8.984 4.253C6.84 3.53 5.32 3.76 4.541 4.538c-.766.766-1 2.255-.314 4.358.67 2.049 2.146 4.418 4.304 6.577a21 21 0 0 0 1.766 1.582l-1.136 1.42a23 23 0 0 1-1.915-1.717C4.93 14.44 3.275 11.835 2.5 9.46c-.757-2.32-.77-4.682.757-6.21 1.526-1.526 3.953-1.514 6.308-.722zm6.488 4.276a21 21 0 0 0-1.766-1.582l1.135-1.421c.65.52 1.294 1.095 1.916 1.718 2.317 2.318 3.97 4.923 4.746 7.297.757 2.32.75 4.703-.756 6.209-1.627 1.628-4.272 1.51-6.798.547l.648-1.7c2.35.897 4.034.698 4.864-.133.767-.766 1-2.255.314-4.358-.669-2.05-2.145-4.418-4.303-6.577m-.368-4.305c-2.048.67-4.416 2.146-6.574 4.305q-.69.691-1.286 1.405L5.85 8.766q.649-.775 1.395-1.523c2.317-2.317 4.921-3.972 7.294-4.748 2.32-.757 4.701-.749 6.207.757 1.423 1.424 1.506 3.637.876 5.82l-1.746-.506c.56-1.94.308-3.304-.416-4.028-.765-.767-2.254-1-4.356-.314m.367 11.25q.69-.691 1.285-1.406l1.395 1.168a24 24 0 0 1-1.395 1.522c-2.317 2.318-4.922 3.973-7.295 4.75-2.319.756-4.7.748-6.206-.758s-1.515-3.955-.723-6.31l1.723.58c-.721 2.144-.492 3.666.285 4.444.766.767 2.254 1.001 4.356.314 2.049-.669 4.417-2.146 6.575-4.305m-3.775-6.708 1.514 1.009-.877 1.314h2.728l-2.76 4.14-1.513-1.008.875-1.314H8.937z" clip-rule="evenodd"/></svg>