<svg xmlns="http://www.w3.org/2000/svg" fill="none" viewBox="0 0 24 24"><path fill="currentColor" fill-rule="evenodd" d="M21.061 2.939c.719.718.965 1.698.937 2.692-.028.991-.326 2.091-.809 3.219-.43 1.004-1.024 2.069-1.76 3.15.736 1.081 1.33 2.146 1.76 3.15.483 1.128.781 2.228.809 3.219.028.994-.218 1.974-.937 2.692-.718.719-1.698.965-2.692.937-.991-.028-2.091-.326-3.219-.809-1.004-.43-2.069-1.024-3.15-1.76-1.081.736-2.146 1.33-3.15 1.76-1.128.483-2.228.781-3.219.809-.994.028-1.974-.218-2.692-.937-.719-.718-.965-1.698-.937-2.692.028-.991.326-2.091.809-3.219.43-1.004 1.024-2.069 1.76-3.15-.736-1.081-1.33-2.146-1.76-3.15-.483-1.128-.781-2.228-.809-3.219-.028-.994.218-1.974.937-2.692.718-.719 1.698-.965 2.692-.937.991.028 2.091.326 3.219.809 1.004.43 2.069 1.024 3.15 1.76 1.081-.736 2.146-1.33 3.15-1.76 1.128-.483 2.228-.781 3.219-.809.994-.028 1.974.218 2.692.937m-2.903 10.769a30 30 0 0 1-2.11 2.34 30 30 0 0 1-2.34 2.11 16 16 0 0 0 2.23 1.193c.99.424 1.833.63 2.487.648.65.018 1.018-.148 1.222-.352s.37-.571.352-1.222c-.019-.654-.224-1.498-.648-2.487-.3-.702-.701-1.453-1.193-2.23m-12.316 0a16 16 0 0 0-1.193 2.23c-.424.99-.63 1.833-.648 2.487-.018.65.148 1.018.352 1.222s.571.37 1.222.352c.654-.019 1.497-.224 2.487-.648a16 16 0 0 0 2.23-1.193 30 30 0 0 1-2.34-2.11 30 30 0 0 1-2.11-2.34M12 7.041a27.5 27.5 0 0 0-2.635 2.324A27.5 27.5 0 0 0 7.041 12a27.5 27.5 0 0 0 2.324 2.634c.87.87 1.758 1.649 2.635 2.325a27.5 27.5 0 0 0 2.634-2.325c.87-.87 1.649-1.758 2.325-2.634a27.5 27.5 0 0 0-2.325-2.635A27.5 27.5 0 0 0 12 7.041m6.425-3.04c-.654.019-1.498.224-2.487.648-.702.3-1.453.701-2.23 1.193.79.637 1.575 1.343 2.34 2.11a30 30 0 0 1 2.11 2.34c.492-.777.892-1.528 1.193-2.23.424-.99.63-1.833.648-2.487.018-.65-.148-1.018-.352-1.222s-.571-.37-1.222-.352m-12.85 0c-.65-.018-1.018.148-1.222.352s-.37.571-.352 1.222c.019.654.224 1.497.648 2.487.3.702.701 1.453 1.193 2.23a30 30 0 0 1 2.11-2.34 30 30 0 0 1 2.34-2.11 16 16 0 0 0-2.23-1.193c-.99-.424-1.833-.63-2.487-.648m6.42 6.749c-.687 0-1.245.56-1.245 1.25s.558 1.25 1.245 1.25h.01c.687 0 1.245-.56 1.245-1.25s-.558-1.25-1.245-1.25z" clip-rule="evenodd"/></svg>