<svg xmlns="http://www.w3.org/2000/svg" fill="none" viewBox="0 0 24 24"><path fill="currentColor" fill-rule="evenodd" d="M11.672 1.25 4.504 8.418l1.07 1.072.667-.666c.244.311.562.711.932 1.163.873 1.067 2.045 2.436 3.226 3.616 1.18 1.181 2.549 2.353 3.616 3.226.45.369.85.687 1.16.93l-.665.666 1.072 1.072 7.169-7.169-1.072-1.072-.665.665c-.243-.311-.56-.71-.93-1.161-.872-1.067-2.045-2.436-3.225-3.617-1.181-1.18-2.55-2.353-3.617-3.225-.451-.37-.851-.688-1.163-.932l.665-.664zm-10.2 17.177 5.888-5.888a43 43 0 0 0 1.974 2.126 44 44 0 0 0 2.128 1.976L5.574 22.53a.754.754 0 0 1-1.071 0L1.472 19.5a.76.76 0 0 1 0-1.072" clip-rule="evenodd"/></svg>