<svg xmlns="http://www.w3.org/2000/svg" fill="none" viewBox="0 0 24 24"><path fill="currentColor" fill-rule="evenodd" d="M8.325 4.25H4.25V8A4.75 4.75 0 0 0 9 12.75h6.002A4.75 4.75 0 0 0 19.752 8V4.25h-4.077a3.751 3.751 0 0 0-7.35 0m1.553 0h4.244a2.251 2.251 0 0 0-4.244 0m-5.182 7.93-.445 9.786A.75.75 0 0 0 5 22.75h14a.75.75 0 0 0 .75-.784l-.445-9.785A5.98 5.98 0 0 1 15.002 14H9a5.98 5.98 0 0 1-4.304-1.82M11 8h2.009v2H11zm11.005 5.249a.75.75 0 0 1 .75.75v2.025c0 .445 0 .816-.02 1.12a2.8 2.8 0 0 1-.19.907 2.75 2.75 0 0 1-1.647 1.547l-.289-6.349zM1.25 14a.75.75 0 0 1 .75-.75h1.396l-.289 6.35a2.75 2.75 0 0 1-1.648-1.547 2.8 2.8 0 0 1-.188-.908c-.021-.304-.021-.675-.021-1.12z" clip-rule="evenodd"/></svg>