<svg xmlns="http://www.w3.org/2000/svg" fill="none" viewBox="0 0 24 24"><path fill="currentColor" fill-rule="evenodd" d="M11.25 6V2h1.5v4zM5.31 21.406l2.858-6.668a7.78 7.78 0 0 1-3.416-3.988H3v-1.5h1.35A8 8 0 0 1 4.25 8v-.75h15.5V8q0 .64-.1 1.25H21v1.5h-1.752a7.78 7.78 0 0 1-3.416 3.988l2.857 6.668-1.378.591-.963-2.247H12.75V22h-1.5v-2.25H7.652l-.963 2.247zm2.985-3.156 1.243-2.9c.546.184 1.12.307 1.712.364v2.536zm4.455 0v-2.536a7.7 7.7 0 0 0 1.712-.363l1.243 2.899zM7.25 2v4h1.5V2zm8 4V2h1.5v4z" clip-rule="evenodd"/></svg>