<svg xmlns="http://www.w3.org/2000/svg" fill="none" viewBox="0 0 24 24"><path fill="currentColor" fill-rule="evenodd" d="M19 2.25a2.75 2.75 0 1 0 0 5.5 2.75 2.75 0 0 0 0-5.5M7.59 3.487c1.08.38 1.855 1.157 2.395 2.016 1.233-.084 2.523.247 3.57 1.057 1.273.984 2.091 2.596 2.091 4.762v.95h-1.9v-.95c0-1.658-.606-2.682-1.352-3.259a3.2 3.2 0 0 0-.783-.441c.45 1.017.71 2.396.71 4.178v.95h-1.9v-.95c0-1.828-.293-2.929-.631-3.582-.934 2.19-2.154 6.091-2.28 10.542a19.5 19.5 0 0 1 4.49-.51c3.327 0 6.358.791 8.471 2.095l2.279 1.405H1.25l2.279-1.405a12 12 0 0 1 1.971-.966c.022-5.022 1.387-9.463 2.464-11.977-1.175.125-2.51.747-3.34 2.429l-.422.851L2.5 9.84l.421-.852c1.125-2.274 2.94-3.191 4.572-3.436a2.3 2.3 0 0 0-.532-.273c-.667-.234-1.68-.216-3.19.651l-.823.474L2 4.756l.824-.473C4.639 3.24 6.238 3.011 7.59 3.487" clip-rule="evenodd"/></svg>