<svg xmlns="http://www.w3.org/2000/svg" fill="none" viewBox="0 0 24 24"><path fill="currentColor" fill-rule="evenodd" d="m22.75 10-.002-.24c-.03-1.916-.422-3.481-1.168-4.721a6.34 6.34 0 0 0-2.127-2.146 7.5 7.5 0 0 0-1.167-.586c-1.072-.454-2.34-.772-3.696-.934a17.7 17.7 0 0 0-3.837-.037c-1.014.1-1.971.285-2.836.543a12 12 0 0 0-1.078.376c-1.461.074-2.61 1.148-3.351 2.47C2.705 6.123 2.25 7.99 2.25 10h1.9c0-1.735.396-3.259.988-4.314C5.745 4.602 6.439 4.188 7 4.188s1.255.414 1.862 1.498c.592 1.055.988 2.579.988 4.314s-.396 3.259-.988 4.314C8.255 15.398 7.561 15.812 7 15.812c-.383 0-.811-.182-1.25-.646-.356-.376-.69-.911-.96-1.584l2.084-2.084.04.001.043.001h.009a1.5 1.5 0 0 0 0-3h-.009a1.5 1.5 0 0 0-1.498 1.584L1.25 14.293l1.414 1.414.687-.687a6.4 6.4 0 0 0 1.031 1.491c.658.696 1.496 1.186 2.459 1.235 1.168.477 2.574.804 4.105.937l-2.653 2.653 1.414 1.414 4.043-4.043c1.705-.118 3.268-.476 4.536-1.014 1.377-.552 2.513-1.434 3.294-2.731.777-1.291 1.17-2.936 1.17-4.962m-9 8.707 4.957-4.957-1.414-1.414-6.347 6.347a18 18 0 0 0 2.804.024m2.957.63 2 2-1.414 1.413-2-2z" clip-rule="evenodd"/></svg>