<svg xmlns="http://www.w3.org/2000/svg" fill="none" viewBox="0 0 24 24"><path fill="currentColor" fill-rule="evenodd" d="M12 1.25s-.738.829-.812.918a13 13 0 0 0-.547.706 7.5 7.5 0 0 0-.573.916c-.152.295-.318.688-.318 1.083 0 .98.626 1.813 1.5 2.122V8.25H6.333c-1.888 0-3.583 1.37-3.583 3.25s1.695 3.25 3.583 3.25c1.09 0 2.143-.453 2.834-1.208.69.755 1.743 1.208 2.833 1.208s2.143-.453 2.833-1.208c.69.755 1.744 1.208 2.834 1.208 1.888 0 3.583-1.37 3.583-3.25s-1.695-3.25-3.583-3.25H12.75V6.995a2.25 2.25 0 0 0 1.5-2.122c0-.395-.166-.788-.318-1.083a7.5 7.5 0 0 0-.573-.916c-.2-.278-.4-.527-.547-.706-.074-.09-.812-.918-.812-.918M6.272 22.182 4.727 16c.52.163 1.064.25 1.606.25 1 0 1.99-.278 2.833-.79a5.48 5.48 0 0 0 5.667 0 5.5 5.5 0 0 0 2.833.79c.542 0 1.086-.087 1.606-.25l-1.545 6.18a.75.75 0 0 1-.728.569H7a.75.75 0 0 1-.727-.568" clip-rule="evenodd"/></svg>