<svg xmlns="http://www.w3.org/2000/svg" fill="none" viewBox="0 0 24 24"><path fill="currentColor" fill-rule="evenodd" d="M8.5 6.75a3.5 3.5 0 1 1 7 0v1.5h-7zm-2 1.5v-1.5a5.5 5.5 0 1 1 11 0v1.5h3.25v14.5H3.25V8.25zm6.25 2.5v1.333h.813c.976 0 1.687.83 1.687 1.75v.667c0 .362-.11.71-.303 1 .193.29.303.638.303 1v.667c0 .92-.71 1.75-1.687 1.75h-.813v1.333h-1.5v-1.333h-2.5v-1.5h.938v-3.834H8.75v-1.5h2.5V10.75zm-1.562 2.833v1.167h2.374c.06 0 .188-.066.188-.25v-.667c0-.184-.129-.25-.187-.25zm2.374 2.667h-2.374v1.167h2.374c.06 0 .188-.066.188-.25V16.5c0-.184-.129-.25-.187-.25" clip-rule="evenodd"/></svg>