<svg xmlns="http://www.w3.org/2000/svg" fill="none" viewBox="0 0 24 24"><path fill="currentColor" fill-rule="evenodd" d="M12 1.25c-1.86 0-3.315.838-4.582 1.568-1.323.762-2.51 1.43-3.933 1.43h-.602l-.13.586C.8 13.598 4.687 21.096 11.833 22.713l.166.037.166-.038c7.146-1.616 11.034-9.114 9.082-17.878l-.131-.587h-.602c-1.42 0-2.599-.664-3.922-1.426C15.325 2.09 13.87 1.25 12 1.25m.75 6.494V6.245h-1.5v1.499H8.249v1.498h1.125v4.496H8.25v1.5h3v1.498h1.501v-1.499h1.126a1.874 1.874 0 0 0 1.875-1.873v-.75c0-.421-.14-.81-.375-1.123.236-.314.375-.703.375-1.124v-.75c0-1.035-.84-1.873-1.875-1.873zm-1.875 2.997V9.242h3c.208 0 .376.168.376.375v.75a.375.375 0 0 1-.375.374zm0 1.499h3c.208 0 .376.168.376.374v.75a.375.375 0 0 1-.375.374h-3.001z" clip-rule="evenodd"/></svg>