<svg xmlns="http://www.w3.org/2000/svg" fill="none" viewBox="0 0 24 24"><path fill="currentColor" fill-rule="evenodd" d="M13.25 2.75v-1.5h-1.5v1.5h-3v1.5h1.125v4.5H8.75v1.5h3v1.5h1.5v-1.5h1.125c1.036 0 1.875-.84 1.875-1.875v-.75c0-.422-.14-.812-.375-1.125.235-.313.375-.703.375-1.125v-.75c0-1.036-.84-1.875-1.875-1.875zm-1.875 3v-1.5h3c.207 0 .375.168.375.375v.75a.375.375 0 0 1-.375.375zm0 1.5h3c.207 0 .375.168.375.375v.75a.375.375 0 0 1-.375.375h-3zM3 6.25h4.25v5.5h3v1.5h4.5v-1.52a3.375 3.375 0 0 0 3-3.355v-.75a3.4 3.4 0 0 0-.192-1.125q.043-.123.077-.25H21a.75.75 0 0 1 .75.75v4.351l-6.082 5.068-1.024 4.098-4.309 2.154a.75.75 0 0 1-1.075-.548l-.954-5.725-6.055-5.047-.001-4.35A.75.75 0 0 1 3 6.25" clip-rule="evenodd"/></svg>