<svg xmlns="http://www.w3.org/2000/svg" fill="none" viewBox="0 0 24 24"><path fill="currentColor" fill-rule="evenodd" d="M20.916 1.25h-5.483v2h1.908l-2.816 2.567L12.203 3.1a.995.995 0 0 0-1.31-.181l-7.477 5 1.106 1.664 6.742-4.508L13.679 7.9a.996.996 0 0 0 1.428.089l3.815-3.48v2.24h1.994zM19.25 15.5a7.25 7.25 0 1 1-14.5 0 7.25 7.25 0 0 1 14.5 0m-6.5-4.75v1.333h.813c.976 0 1.687.83 1.687 1.75v.667c0 .362-.11.71-.303 1 .193.29.303.638.303 1v.667c0 .92-.71 1.75-1.687 1.75h-.813v1.333h-1.5v-1.333h-2.5v-1.5h.938v-3.834H8.75v-1.5h2.5V10.75zm-1.562 2.833v1.167h2.374c.06 0 .188-.066.188-.25v-.667c0-.184-.129-.25-.187-.25zm2.374 2.667h-2.374v1.167h2.374c.06 0 .188-.066.188-.25V16.5c0-.184-.129-.25-.187-.25" clip-rule="evenodd"/></svg>