<svg xmlns="http://www.w3.org/2000/svg" fill="none" viewBox="0 0 24 24"><path fill="currentColor" fill-rule="evenodd" d="M16.004.625h-6v2h6zm2.746 15.844 1.93 4.633c.12.286.084.61-.097.865a.98.98 0 0 1-.802.408H6.22a.98.98 0 0 1-.803-.408.9.9 0 0 1-.097-.866l1.93-4.621v-4.478l-2.924-1.88-1.06-5.625a.93.93 0 0 1 .213-.78 1 1 0 0 1 .756-.341H20v1.901h-1.25zm-11.1 4.049 1.164-2.786h8.376l1.161 2.786zm-.4-15.242v4.44l-1.135-.73-.7-3.71zm6.754 1.599h3v1.5h-3zm0 3h3v1.5h-3zm0 3h3v1.5h-3z" clip-rule="evenodd"/></svg>