<svg xmlns="http://www.w3.org/2000/svg" fill="none" viewBox="0 0 24 24"><path fill="currentColor" fill-rule="evenodd" d="M10.236 2.387c.322-.23 1.077-.704 1.504-.973l.261-.164.26.164h.001c.427.269 1.182.744 1.504.973a26.5 26.5 0 0 1 3.007 2.487c1.945 1.877 4.015 4.53 4.41 7.626h-1.459l-1.5-2.71a2.5 2.5 0 0 0-4.547.386l-.318.91a2.5 2.5 0 0 0-1.608-.586h-4v5h2.519l1.479 2.7a2.5 2.5 0 0 0 4.553-.376l.323-.925a2.5 2.5 0 0 0 1.626.6h2.107A9.26 9.26 0 0 1 12 22.75c-5.109 0-9.25-4.117-9.25-9.198 0-3.546 2.316-6.59 4.478-8.677a26.6 26.6 0 0 1 3.007-2.487m6.675 8.129a1 1 0 0 0-1.82.154l-1.353 3.878-1.11-2.028a1 1 0 0 0-.878-.52h-2.5v2h1.908l1.905 3.48a1 1 0 0 0 1.822-.15l1.358-3.89 1.132 2.044a1 1 0 0 0 .875.516h3v-2h-2.41z" clip-rule="evenodd"/></svg>