<svg xmlns="http://www.w3.org/2000/svg" fill="none" viewBox="0 0 24 24"><path fill="currentColor" fill-rule="evenodd" d="M19.688 4.226c.077-.204.15-.398.215-.594L18.005 3q-.076.225-.181.499a14.7 14.7 0 0 0-.936 3.748 26 26 0 0 1-5.138.503c-1.793 0-3.516-.176-5.13-.501a14.7 14.7 0 0 0-.936-3.75Q5.578 3.225 5.503 3l-1.898.632c.065.196.138.39.215.594.234.627.504 1.349.703 2.5a21 21 0 0 1-2.468-.911A.75.75 0 0 0 1 6.5v6a.75.75 0 0 0 .445.685 23 23 0 0 0 4.56 1.468V11.5h1.5v3.429c1.13.174 2.3.28 3.499.311V12h1.5v3.24c1.2-.031 2.37-.138 3.5-.312V11.5h1.5v3.151a23 23 0 0 0 4.551-1.466.75.75 0 0 0 .445-.685v-6a.75.75 0 0 0-1.055-.685q-1.161.518-2.46.908c.199-1.15.469-1.87.703-2.497m.058 12.797a19 19 0 0 1-.448-1.307l-1.917.568c.157.532.33 1.006.492 1.44l.1.265c.081.218.159.423.232.627-4.304 1.18-8.598 1.18-12.902 0 .073-.204.15-.41.233-.627l.099-.265c.163-.434.334-.908.492-1.44l-1.917-.568a19 19 0 0 1-.448 1.307l-.091.243v.001c-.129.34-.261.69-.38 1.046-.304.91-.537 1.897-.537 3.187h2c0-.34.02-.652.056-.946 4.626 1.262 9.262 1.262 13.888 0 .036.294.056.606.056.946h2c0-1.29-.233-2.277-.538-3.187-.118-.355-.25-.706-.378-1.046z" clip-rule="evenodd"/></svg>