<svg xmlns="http://www.w3.org/2000/svg" fill="none" viewBox="0 0 24 24"><path fill="currentColor" fill-rule="evenodd" d="M6.75 4.5a.75.75 0 1 1 1.5 0 .75.75 0 0 1-1.5 0m.75-2.25a2.25 2.25 0 0 0-.75 4.372V8.25H4.5a.75.75 0 0 0-.75.75v2.761a2.75 2.75 0 0 0 0 5.478V21c0 .414.336.75.75.75h15a.75.75 0 0 0 .75-.75v-3.761a2.75 2.75 0 0 0 0-5.478V9a.75.75 0 0 0-.75-.75h-2.25V6.622a2.25 2.25 0 1 0-1.5 0V8.25h-7.5V6.622A2.25 2.25 0 0 0 7.5 2.25m12.75 11.025v2.45a1.25 1.25 0 0 0 0-2.45m-16.5 2.45v-2.45a1.25 1.25 0 0 0 0 2.45M16.5 3.75a.75.75 0 1 0 0 1.5.75.75 0 0 0 0-1.5M12 16.25c.838 0 1.54-.323 1.953-.764l1.094 1.027c-.727.774-1.84 1.237-3.047 1.237s-2.32-.463-3.047-1.237l1.094-1.027c.413.44 1.115.764 1.953.764M9 12a1 1 0 1 0 0 2h.009a1 1 0 1 0 0-2zm5 1a1 1 0 0 1 1-1h.009a1 1 0 0 1 0 2H15a1 1 0 0 1-1-1" clip-rule="evenodd"/></svg>