<svg xmlns="http://www.w3.org/2000/svg" fill="none" viewBox="0 0 24 24"><path fill="currentColor" fill-rule="evenodd" d="M19.467 5.278c-.555-.095-1.128.066-1.616.278-.505.219-1.021.538-1.501.879-.417.296-.823.62-1.19.936a2 2 0 0 1 .84 1.63v2.251h2v1.5h-2v2.25c0 .671-.33 1.265-.836 1.627.367.315.77.638 1.185.934.48.341.996.66 1.502.88.488.212 1.061.375 1.616.279 1.277-.22 2.088-1.32 2.564-2.501.489-1.216.719-2.736.719-4.221s-.23-3.005-.72-4.22c-.475-1.183-1.286-2.281-2.563-2.502M8.84 7.371c-.51.363-.84.959-.84 1.63v2.251H6v1.5h2v2.25a2 2 0 0 0 .836 1.628c-.367.314-.77.638-1.185.933-.48.342-.996.66-1.502.88-.488.212-1.061.375-1.616.279-1.277-.22-2.088-1.32-2.564-2.501C1.48 15.005 1.25 13.485 1.25 12s.23-3.005.72-4.22c.475-1.183 1.286-2.281 2.563-2.502.555-.095 1.128.066 1.616.278.505.219 1.021.538 1.501.879.417.296.823.62 1.19.936M10 8.25a.75.75 0 0 0-.75.75v6.002c0 .414.336.75.75.75h4a.75.75 0 0 0 .75-.75V9a.75.75 0 0 0-.75-.75z" clip-rule="evenodd"/></svg>