<svg xmlns="http://www.w3.org/2000/svg" fill="none" viewBox="0 0 24 24"><path fill="currentColor" fill-rule="evenodd" d="M8.09 5.671q.203 0 .4.016a4.89 4.89 0 0 1 4.487-2.937 4.884 4.884 0 0 1 4.79 3.896l.097-.001c2.698 0 4.886 2.18 4.886 4.868s-2.188 4.869-4.886 4.869q-.165 0-.325-.011a3.42 3.42 0 0 1-3.096 1.958h-.489a2.926 2.926 0 0 0-2.931 2.921H9.068c0-2.689 2.188-4.868 4.887-4.868h.488a1.465 1.465 0 0 0 1.466-1.46c0-.706-.503-1.297-1.172-1.432l.39-1.909a3.42 3.42 0 0 1 2.702 2.853h.035a2.927 2.927 0 0 0 2.932-2.92 2.927 2.927 0 0 0-3.03-2.92 4.8 4.8 0 0 1-.557 1.46l-1.691-.976a2.9 2.9 0 0 0 .391-1.46 2.926 2.926 0 0 0-2.932-2.92c-1.12 0-2.093.625-2.587 1.545a4.9 4.9 0 0 1 1.933 1.862l-1.692.975a2.94 2.94 0 0 0-2.54-1.462 2.926 2.926 0 0 0-2.816 3.74q.1.34.276.641l.49.843-1.693.975-.487-.839a1.94 1.94 0 0 0-.656 1.456c0 1.076.875 1.948 1.954 1.948.85 0 1.575-.54 1.844-1.299l1.842.65a3.91 3.91 0 0 1-3.686 2.596 3.9 3.9 0 0 1-3.909-3.895 3.89 3.89 0 0 1 1.98-3.388 5 5 0 0 1-.025-.506c0-2.69 2.187-4.869 4.886-4.869m2.356 6.108c-.43-.242-.528-.623-.486-.81L8.01 10.53c-.268 1.196.396 2.395 1.457 2.991s2.43.542 3.313-.309l-1.388-1.44c-.138.134-.514.248-.945.006" clip-rule="evenodd"/></svg>