<svg xmlns="http://www.w3.org/2000/svg" fill="none" viewBox="0 0 24 24"><path fill="currentColor" fill-rule="evenodd" d="M5.627 7.636c2.533-2.04 5.774-2.809 8.356-2.604 1.293.102 2.345.443 3.043.914.678.458.974.994.974 1.582 0 .315-.192.717-.796 1.2-.59.47-1.422.891-2.32 1.245a22 22 0 0 1-2.463.787 87 87 0 0 1-1.921.413v2.073c.694-.008 3.123-.037 4.289.19.615.12 1.088.292 1.385.497.26.179.326.333.326.518 0 .721-.338 1.217-1 1.615-.71.428-1.732.689-2.867.822-1.115.13-2.244.127-3.105.09 0 0-.443-.025-.975-.068l1.604-9.224-1.97-.342-2.343 13.47 1.97.343.398-2.29c.514.052 1.026.1 1.228.108.921.04 2.167.047 3.426-.101 1.24-.145 2.594-.45 3.665-1.093 1.119-.673 1.969-1.753 1.969-3.33 0-.991-.524-1.705-1.19-2.164a4.8 4.8 0 0 0-1.31-.609c.86-.363 1.742-.82 2.452-1.388C19.255 9.649 20 8.733 20 7.528c0-1.406-.767-2.505-1.855-3.24-1.067-.72-2.483-1.13-4.004-1.25-3.043-.241-6.801.65-9.769 3.04l-.778.628 1.255 1.558z" clip-rule="evenodd"/></svg>