<svg xmlns="http://www.w3.org/2000/svg" fill="none" viewBox="0 0 24 24"><path fill="currentColor" fill-rule="evenodd" d="M2.76 8.57C3.755 7.15 5.22 6.25 7 6.25s3.246.901 4.24 2.32c.982 1.404 1.51 3.314 1.51 5.43v3.75h-3V14.9c0-1.46-.207-2.787-.604-3.779C8.776 10.195 8.097 9.25 7 9.25s-1.776.944-2.146 1.871c-.397.992-.604 2.32-.604 3.779h1.5c0-1.34.193-2.463.496-3.222.33-.823.651-.928.754-.928s.424.105.754.928c.303.759.496 1.881.496 3.222v2.85h-7V14c0-2.116.528-4.026 1.51-5.43m19.99 9.18h-8.5V14c0-2.347-.584-4.578-1.782-6.29a7.4 7.4 0 0 0-1.335-1.46H17c1.781 0 3.246.901 4.24 2.32.982 1.404 1.51 3.314 1.51 5.43z" clip-rule="evenodd"/></svg>