<svg xmlns="http://www.w3.org/2000/svg" fill="none" viewBox="0 0 24 24"><path fill="currentColor" fill-rule="evenodd" d="M8.5 1.75a1 1 0 0 0-1 1v2.5h-5a.75.75 0 0 0-.75.75v5.25H6v1.5H1.75v8.75c0 .414.336.75.75.75h19a.75.75 0 0 0 .75-.75v-8.75H18v-1.5h4.25V6a.75.75 0 0 0-.75-.75h-5v-2.5a1 1 0 0 0-1-1zm6 3.5v-1.5h-5v1.5zm-3.25 5.084a2.95 2.95 0 0 0-1.114.505c-.504.378-.886.958-.886 1.661s.382 1.283.886 1.66c.504.379 1.165.59 1.864.59.406 0 .744.124.964.29.22.164.286.335.286.46s-.066.296-.286.46c-.22.166-.558.29-.964.29-.668 0-1.09-.321-1.208-.57l-1.357.64c.33.7 1.026 1.165 1.815 1.346v.834h1.5v-.834a2.95 2.95 0 0 0 1.114-.505c.504-.378.886-.958.886-1.661s-.382-1.283-.886-1.66c-.504-.379-1.165-.59-1.864-.59-.406 0-.744-.124-.964-.29-.22-.164-.286-.335-.286-.46s.066-.296.286-.46c.22-.166.558-.29.964-.29.668 0 1.09.321 1.208.57l1.357-.64c-.33-.7-1.026-1.165-1.815-1.345V9.5h-1.5z" clip-rule="evenodd"/></svg>