<svg xmlns="http://www.w3.org/2000/svg" fill="none" viewBox="0 0 24 24"><path fill="currentColor" fill-rule="evenodd" d="M14.664 1.568A11.3 11.3 0 0 0 12 1.25C6.1 1.25 1.25 5.804 1.25 11.5c0 2.719 1.11 5.186 2.911 7.014L3.25 22.75l4.767-1.727c1.233.47 2.578.727 3.983.727 5.9 0 10.75-4.554 10.75-10.25 0-.766-.088-1.512-.254-2.228l-1.16 1.16-2.293-2.293-2.293 2.293-3.182-3.182 2.293-2.293-2.293-2.293zM7 11h2.009v2H7zm6.005 0v2h-2.01v-2zm2.33-8.336 2.294 2.293-2.293 2.293 1.414 1.414 2.293-2.293 2.293 2.293L22.75 7.25l-2.293-2.293 2.293-2.293-1.414-1.414-2.293 2.293L16.75 1.25z" clip-rule="evenodd"/></svg>