<svg xmlns="http://www.w3.org/2000/svg" fill="none" viewBox="0 0 24 24"><path fill="currentColor" fill-rule="evenodd" d="M15.91 4.25c3.777 0 6.84 3.022 6.84 6.75v5.786a.97.97 0 0 1-.977.964h-1.056q.033-.245.033-.5a3.75 3.75 0 1 0-7.467.5h-2.566q.033-.245.033-.5a3.75 3.75 0 1 0-7.467.5H2.227a.98.98 0 0 1-.69-.282.96.96 0 0 1-.287-.682l.002-11.572a.97.97 0 0 1 .977-.964zM17 6.299v3.639l1.312 1.312h2.485V11c0-2.293-1.623-4.213-3.797-4.701m-12-.12H3.208V9.25H5zm5 0H7V9.25h3zm5 0h-3V9.25h3zM7.002 19.75a2.5 2.5 0 1 0 0-5 2.5 2.5 0 0 0 0 5m10 0a2.5 2.5 0 1 0 0-5 2.5 2.5 0 0 0 0 5" clip-rule="evenodd"/></svg>