<svg xmlns="http://www.w3.org/2000/svg" fill="none" viewBox="0 0 24 24"><path fill="currentColor" fill-rule="evenodd" d="M6.5 13.75a.75.75 0 0 0-.721.956l2.155 7.544h8.132l2.155-7.544a.75.75 0 0 0-.721-.956h-1.854l.342-2.51.412.31 1.2-1.6-1.303-.977.154-1.125c.066-.484.052-.96-.03-1.413l1.18-.885-1.2-1.6-.803.602A4.5 4.5 0 0 0 13 2.862V1.75h-2v1.111a4.5 4.5 0 0 0-2.597 1.691L7.6 3.95l-1.2 1.6 1.18.885a4.5 4.5 0 0 0-.03 1.413l.153 1.125L6.4 9.95l1.2 1.6.413-.31.342 2.51zm3.873 0-.841-6.172a2.492 2.492 0 1 1 4.937 0l-.841 6.172H13v-2h-2v2z" clip-rule="evenodd"/></svg>