<svg xmlns="http://www.w3.org/2000/svg" fill="none" viewBox="0 0 24 24"><path fill="currentColor" fill-rule="evenodd" d="M11 3.5v2.857h2V3.5zm6.488 2.712-2.4 1.429 1.023 1.718 2.4-1.428zm-12 1.719 2.4 1.428 1.023-1.718-2.4-1.429zM1.336 19.515l.102.981 6.48-2.547v-3.99A18.4 18.4 0 0 1 12 13.512c1.389 0 2.774.15 4.083.449v3.988l6.48 2.549.102-.982c.162-1.564.329-4.107-1.892-5.555-1.025-.668-2.152-1.211-3.748-1.635A19.7 19.7 0 0 0 12 11.689a19.7 19.7 0 0 0-5.026.636c-1.596.424-2.723.968-3.748 1.635-2.22 1.449-2.054 3.991-1.891 5.556" clip-rule="evenodd"/></svg>