<svg xmlns="http://www.w3.org/2000/svg" fill="none" viewBox="0 0 24 24"><path fill="currentColor" fill-rule="evenodd" d="m1.336 10.827.102.982 6.48-2.548V5.505a18.4 18.4 0 0 1 4.083-.449 18.4 18.4 0 0 1 4.083.45V9.26l6.48 2.548.102-.981c.162-1.565.329-4.108-1.892-5.556-1.025-.667-2.152-1.21-3.748-1.635A19.7 19.7 0 0 0 12.001 3c-1.71 0-3.422.21-5.026.637-1.596.424-2.723.967-3.748 1.635-2.22 1.448-2.054 3.99-1.891 5.555m14.371 6.466L12 21l-3.707-3.707 1.414-1.414L11 17.172v-5.586h2v5.586l1.293-1.293z" clip-rule="evenodd"/></svg>