<svg xmlns="http://www.w3.org/2000/svg" fill="none" viewBox="0 0 24 24"><path fill="currentColor" fill-rule="evenodd" d="M8.248 15.752a21.4 21.4 0 0 1-3.165-4.006l3.838-3.578-3.94-6.918C3.117 2.254.733 4.662 1.35 7.722c.292 1.445.778 2.872 1.768 4.597a23.3 23.3 0 0 0 3.73 4.838 23.3 23.3 0 0 0 4.834 3.726c1.725.99 3.152 1.476 4.598 1.768 3.059.616 5.467-1.768 6.471-3.632l-6.918-3.94-3.578 3.838a21.5 21.5 0 0 1-4.006-3.165M16.5 3H11v5.5h2V6.414l3.293 3.293a1 1 0 0 0 1.414 0l5-5-1.414-1.414L17 7.586 14.414 5H16.5z" clip-rule="evenodd"/></svg>