<svg xmlns="http://www.w3.org/2000/svg" fill="none" viewBox="0 0 24 24"><path fill="currentColor" fill-rule="evenodd" d="M8.248 15.752a21.4 21.4 0 0 1-3.165-4.006l3.838-3.578-3.94-6.918C3.117 2.254.733 4.662 1.35 7.722c.292 1.445.778 2.872 1.768 4.597a23.3 23.3 0 0 0 3.73 4.838 23.3 23.3 0 0 0 4.834 3.726c1.725.99 3.152 1.476 4.598 1.768 3.059.616 5.467-1.768 6.471-3.632l-6.918-3.94-3.578 3.838a21.5 21.5 0 0 1-4.006-3.165M14.75 4a2.75 2.75 0 1 1 5.5 0v.75h1.5v7h-8.5v-7h1.5zm4 .75V4a1.25 1.25 0 1 0-2.5 0v.75z" clip-rule="evenodd"/></svg>