<svg xmlns="http://www.w3.org/2000/svg" fill="none" viewBox="0 0 24 24"><path fill="currentColor" fill-rule="evenodd" d="M1.773 5.977a.75.75 0 0 1 .748-.726h4.404l.998-4.001h8.154l.997 4h5.13l.546 17.5H1.25zM13 5h-2v2h2zm2.735 5v2.084a.75.75 0 0 1-1.147.636l-.83-.518-.056-.039a2.75 2.75 0 0 0-1.668-.562c-1.53 0-2.785 1.257-2.785 2.825 0 1.567 1.255 2.824 2.785 2.824 1.34 0 2.47-.963 2.73-2.257l1.47.295c-.395 1.97-2.12 3.462-4.2 3.462-2.374 0-4.285-1.944-4.285-4.324S9.66 10.1 12.034 10.1a4.24 4.24 0 0 1 2.201.614V10z" clip-rule="evenodd"/></svg>