<svg xmlns="http://www.w3.org/2000/svg" fill="none" viewBox="0 0 24 24"><path fill="currentColor" fill-rule="evenodd" d="M5.444 4.033a.98.98 0 0 1 .691-.283h6.842c.17 0 .338.044.485.127 1.83 1.035 3.024 2.209 3.765 3.142.37.466.627.872.795 1.168q.07.126.121.224l4.172 2.751c.272.18.435.481.435.805v5.316a.97.97 0 0 1-.977.967h-.556q.033-.245.033-.5a3.75 3.75 0 1 0-7.467.5h-3.566q.033-.245.033-.5a3.75 3.75 0 1 0-7.467.5h-.556a.97.97 0 0 1-.977-.967 13 13 0 0 1 .13-1.535c.118-.79.35-1.833.83-2.779.043-3.186.585-6.314 3.234-8.936m10.247 4.181c-.573-.722-1.514-1.666-2.977-2.53H8.5V9h7.74a7 7 0 0 0-.549-.786M8.5 12.25h2v-1.5h-2zm.5 5.5a2.5 2.5 0 1 1-5 0 2.5 2.5 0 0 1 5 0m11 0a2.5 2.5 0 1 1-5 0 2.5 2.5 0 0 1 5 0" clip-rule="evenodd"/></svg>