<svg xmlns="http://www.w3.org/2000/svg" fill="none" viewBox="0 0 24 24"><path fill="currentColor" fill-rule="evenodd" d="M12.708 1.871a.75.75 0 0 0-.996-.576L5.875 3.42l-.115.344c-.796 2.394-.533 4.937.248 7.487H10v1.5H6.522l.076.197q.255.659.544 1.322H11v1.5H7.832q.357.74.737 1.481H12.5v1.5H9.355q.539 1.005 1.082 2H9.015c-.805-1.482-1.625-3.01-2.358-4.543q-.191.525-.364 1.045c-.404 1.225-.736 2.455-.901 3.498H4v2h16v-2h-1.363c-.165-1.043-.497-2.273-.902-3.498-.59-1.786-1.368-3.658-2.122-5.1-.69-1.319-1.316-3.29-1.825-5.264a68 68 0 0 1-1.08-5.017m4.013 9.702c.23.442.463.92.69 1.42l.019-.046c1.201-3.111 1.81-6.259.837-9.184l-.114-.344-4.17-1.517a67 67 0 0 0 1.016 4.674c.504 1.958 1.102 3.812 1.722 4.997" clip-rule="evenodd"/></svg>