<svg xmlns="http://www.w3.org/2000/svg" fill="none" viewBox="0 0 24 24"><path fill="currentColor" fill-rule="evenodd" d="m13 14.414 8.336 8.336 1.414-1.414L2.664 1.25 1.25 2.664 2.654 4.07A9.3 9.3 0 0 0 1 9.347c0 2.08.699 4.006 1.882 5.597l1.604-1.194C3.542 12.48 3 10.967 3 9.347a7.27 7.27 0 0 1 1.1-3.833L5.526 6.94A5.8 5.8 0 0 0 5 9.347c0 1.34.466 2.578 1.245 3.604l1.593-1.209C7.297 11.03 7 10.21 7 9.347q0-.428.095-.838L11 12.414v7.836h2zm8-5.067c0-1.62-.542-3.134-1.486-4.403l1.604-1.194C22.301 5.34 23 7.267 23 9.347s-.699 4.006-1.882 5.597l-1.604-1.194C20.458 12.48 21 10.967 21 9.347m-4 0c0-.864-.297-1.683-.838-2.396l1.594-1.209C18.534 6.77 19 8.006 19 9.347c0 1.34-.466 2.578-1.244 3.604l-1.594-1.209c.541-.713.838-1.532.838-2.395m-5-3a3 3 0 0 1 2.516 4.634l-4.15-4.15A3 3 0 0 1 12 6.346" clip-rule="evenodd"/></svg>