<svg xmlns="http://www.w3.org/2000/svg" fill="none" viewBox="0 0 24 24"><path fill="currentColor" fill-rule="evenodd" d="M4 19.5v-17H2v18a1 1 0 0 0 1 1h18v-2zm1-9h2.009v2H5zm2.998 0h2.01v2h-2.01zm4.296 0h-1.298v2h1.798c.265.934.596 1.858 1.068 2.641.399.662.919 1.262 1.618 1.694.706.436 1.539.665 2.502.665 1.931 0 3.103-1.245 3.867-2.472l-1.698-1.056c-.625 1.004-1.27 1.528-2.17 1.528-.633 0-1.093-.146-1.45-.367-.363-.224-.677-.56-.956-1.024-.276-.459-.497-1.001-.692-1.609h1.12v-2h-1.655l-.054-.23-.05-.217C13.915 8.657 13.55 7.1 12.88 5.89c-.363-.657-.842-1.265-1.501-1.706-.67-.449-1.465-.685-2.387-.685-1.921 0-3.1 1.237-3.85 2.485l1.714 1.03C7.454 6.02 8.102 5.5 8.993 5.5c.563 0 .964.139 1.274.346.32.215.605.545.864 1.013.514.929.82 2.187 1.163 3.641m4.699 0h2.009v2h-2.01zm2.998 0H22v2h-2.009z" clip-rule="evenodd"/></svg>