<svg xmlns="http://www.w3.org/2000/svg" fill="none" viewBox="0 0 24 24"><path fill="currentColor" fill-rule="evenodd" d="M3.205 9.053c0-1.785 1.442-3.362 3.909-3.362a3.904 3.904 0 0 1 3.909 3.9v.602H6.299c-2.792 0-5.049 2.254-5.049 5.028 0 2.879 2.405 5.029 5.166 5.029a6.56 6.56 0 0 0 5.426-2.86 5.86 5.86 0 0 0 5.044 2.86c3.397 0 5.864-2.303 5.864-5.303h-1.954c0 1.785-1.443 3.362-3.91 3.362a3.904 3.904 0 0 1-3.909-3.9v-2.437h9.773V9.59c0-3.222-2.622-5.84-5.864-5.84A5.86 5.86 0 0 0 12 6.36a5.86 5.86 0 0 0-4.886-2.61c-3.397 0-5.864 2.303-5.864 5.303zm9.772.537v.44h7.819v-.44a3.904 3.904 0 0 0-3.91-3.899 3.904 3.904 0 0 0-3.909 3.9m-1.954 4.124v-1.58H6.299a3.09 3.09 0 0 0-3.094 3.087c0 1.727 1.448 3.088 3.21 3.088a4.6 4.6 0 0 0 4.608-4.595" clip-rule="evenodd"/></svg>