<svg xmlns="http://www.w3.org/2000/svg" fill="none" viewBox="0 0 24 24"><path fill="currentColor" fill-rule="evenodd" d="M21 23H3v-1.5h1.25v-5.505c.197.007.37.007.507.007h14.486c.138 0 .31 0 .507-.007V21.5H21zm-6.25-1.5h-1.5V20a1.25 1.25 0 0 0-2.5 0v1.5h-1.5V20a2.75 2.75 0 0 1 5.5 0zm2.56-11.503.22.18c.572.467 2.325 1.456 4.47 1.456h.75v.614c0 .497-.131.925-.403 1.275-.274.352-.653.578-1.047.719-.718.257-1.566.256-2.101.256H4.8c-.535 0-1.383 0-2.1-.256-.395-.141-.774-.367-1.048-.719-.272-.35-.403-.778-.403-1.275v-.614H2c2.145 0 3.898-.989 4.47-1.456l.22-.18zM14.31 1l.22.185c.572.48 2.325 1.499 4.47 1.499h.75c0 .512-.131.952-.403 1.312-.274.363-.653.595-1.047.74-.718.265-1.566.264-2.101.264H7.8c-.535 0-1.383 0-2.1-.264-.395-.145-.774-.377-1.048-.74-.272-.36-.403-.8-.403-1.312H5c2.145 0 3.898-1.018 4.47-1.5L9.69 1zm3.19 5.5h-11v2h11z" clip-rule="evenodd"/></svg>