<svg xmlns="http://www.w3.org/2000/svg" fill="none" viewBox="0 0 24 24"><path fill="currentColor" fill-rule="evenodd" d="M11.248 1.25a10.78 10.78 0 0 0-9.998 9.999h4.025a6.77 6.77 0 0 1 5.973-5.974zM1.25 12.752a10.78 10.78 0 0 0 9.998 9.998v-4.025a6.77 6.77 0 0 1-5.973-5.973zm21.5 0a10.78 10.78 0 0 1-9.998 9.998v-4.025a6.77 6.77 0 0 0 5.973-5.973zm0-1.504a10.78 10.78 0 0 0-9.998-9.998v4.025a6.77 6.77 0 0 1 5.973 5.973zm-5.488.719v.066a5.263 5.263 0 1 1 0-.066M11.25 10.75c0-.154.202-.5.75-.5s.75.346.75.5-.202.5-.75.5-.75-.346-.75-.5m3 0c0 .499-.189.923-.487 1.25.298.327.487.751.487 1.25 0 1.227-1.141 2-2.25 2s-2.25-.773-2.25-2c0-.499.189-.923.487-1.25a1.83 1.83 0 0 1-.487-1.25c0-1.227 1.141-2 2.25-2s2.25.773 2.25 2m-3 2.5c0-.154.202-.5.75-.5s.75.346.75.5-.202.5-.75.5-.75-.346-.75-.5" clip-rule="evenodd"/></svg>