<svg xmlns="http://www.w3.org/2000/svg" fill="none" viewBox="0 0 24 24"><path fill="currentColor" fill-rule="evenodd" d="M14.47 1.47a.75.75 0 0 1 1.06 0l2.968 2.967-2.371 2.372-3.498-3.498zm-2.902 2.902-2.06 2.06 3.498 3.498 2.06-2.06zm6 10.12-3.501-3.501 2.06-2.06 3.502 3.502zm3.121-3.12 1.842-1.842a.75.75 0 0 0 0-1.06l-2.972-2.972-2.372 2.372zm-3.189 4.82L7.808 6.5 3.5 9.73l4.308 2.155.538 3.769 3.77.538 2.153 4.308zM1.468 14.467l2.904-2.905 2.29 1.145.578 4.05 4.05.578 1.143 2.288-2.904 2.905a.75.75 0 0 1-1.061 0l-7-7a.75.75 0 0 1 0-1.06" clip-rule="evenodd"/></svg>