<svg xmlns="http://www.w3.org/2000/svg" fill="none" viewBox="0 0 24 24"><path fill="currentColor" fill-rule="evenodd" d="M4.543 4.088c1.715-1.03 3.968-1.695 6.447-1.838-3.204 1.226-4.74 3.69-4.74 5.611 0 1.358.884 2.308 1.951 2.896 1.066.586 2.436.892 3.76.962 1.322.07 2.686-.09 3.751-.51 1.03-.405 2.038-1.178 2.038-2.447 0-.473-.209-.963-.491-1.375a4.1 4.1 0 0 0-1.248-1.164c-1.088-.655-2.603-.885-4.33-.07l.639 1.359c1.272-.6 2.258-.4 2.919-.001.343.206.609.472.784.726.186.271.227.466.227.525 0 .319-.241.716-1.087 1.05-.81.32-1.946.47-3.123.407s-2.307-.334-3.116-.779c-.808-.444-1.174-.98-1.174-1.579 0-1.716 2.475-5.606 9.598-4.759.766.274 1.475.605 2.109.986 1.93 1.16 3.293 2.866 3.293 4.893s-1.363 3.733-3.293 4.893c-1.945 1.169-4.583 1.867-7.457 1.867s-5.512-.698-7.457-1.867c-1.93-1.16-3.293-2.866-3.293-4.893s1.363-3.733 3.293-4.893m-3.293 10.9v-1.972c.697.859 1.58 1.578 2.521 2.144 2.215 1.331 5.13 2.081 8.229 2.081s6.014-.75 8.229-2.081c.942-.566 1.824-1.285 2.521-2.144v1.972c0 2.027-1.363 3.733-3.293 4.893-1.945 1.168-4.583 1.867-7.457 1.867s-5.512-.699-7.457-1.867c-1.93-1.16-3.293-2.866-3.293-4.893" clip-rule="evenodd"/></svg>