<svg xmlns="http://www.w3.org/2000/svg" fill="none" viewBox="0 0 24 24"><path fill="currentColor" fill-rule="evenodd" d="M9.27 1.62C14.68.176 20.235 3.08 22.172 8.188a.977.977 0 0 1-.914 1.324H18.36V7.557h1.349A8.87 8.87 0 0 0 9.775 3.51C5.047 4.77 2.248 9.596 3.508 14.28s6.11 7.473 10.84 6.21a8.83 8.83 0 0 0 6.469-7.188l1.933.295a10.79 10.79 0 0 1-7.898 8.782C9.09 23.917 3.163 20.525 1.62 14.788.076 9.05 3.508 3.158 9.27 1.62M13 7h-2v5.414l2.793 2.793 1.414-1.414L13 11.586z" clip-rule="evenodd"/></svg>