<svg xmlns="http://www.w3.org/2000/svg" fill="none" viewBox="0 0 24 24"><path fill="currentColor" fill-rule="evenodd" d="M1.25 13a5.75 5.75 0 0 1 4.603-5.635 6.252 6.252 0 0 1 12.394.938 5.251 5.251 0 0 1 .841 10.203 3.66 3.66 0 0 0-.92-1.523l-2.436-2.531a3.67 3.67 0 0 0-1.063-2.97l-2.523-2.62-2.803 2.555-.045.046a3.67 3.67 0 0 0-.992 3.209l-2.463 2.245-.045.046a3.7 3.7 0 0 0-.86 1.406A5.75 5.75 0 0 1 1.25 13m12.35-.465c.87.855.867 2.259-.01 3.11l-.014.014-.014.013a2.25 2.25 0 0 1-1.519.577 2.38 2.38 0 0 1-1.63-.66 2.167 2.167 0 0 1-.042-3.078l.015-.016 1.692-1.542zm-3.5 5.5c.87.855.867 2.259-.01 3.11l-.014.014-.014.013a2.25 2.25 0 0 1-1.519.577 2.38 2.38 0 0 1-1.63-.66 2.167 2.167 0 0 1-.042-3.078l.015-.016 1.692-1.542zm6.99 3.11c.877-.851.88-2.255.01-3.11l-1.523-1.582-1.691 1.542-.015.016a2.167 2.167 0 0 0 .042 3.078 2.38 2.38 0 0 0 1.63.66c.6 0 1.105-.216 1.519-.577l.014-.013z" clip-rule="evenodd"/></svg>