<svg xmlns="http://www.w3.org/2000/svg" fill="none" viewBox="0 0 24 24"><path fill="currentColor" fill-rule="evenodd" d="M11.25 7a5.75 5.75 0 1 1 4.623 5.64s-1.071.534-1.327.652a7 7 0 0 1-.761.31 2.6 2.6 0 0 1-.785.148.75.75 0 0 1-.53-1.28c.372-.373.563-.729.664-1.214A5.74 5.74 0 0 1 11.25 7m6.5-3 .008 3-1.5.004-.008-3zm-1.5 4.252h1.508v1.5H16.25zM4 12.25a3.5 3.5 0 1 1 7 0 3.5 3.5 0 0 1-7 0m-.876 6.1a6.78 6.78 0 0 1 4.376-1.6c1.707 0 3.252.643 4.376 1.6 1.114.95 1.874 2.27 1.874 3.65a.75.75 0 0 1-.75.75H2a.75.75 0 0 1-.75-.75c0-1.38.76-2.7 1.874-3.65" clip-rule="evenodd"/></svg>