<svg xmlns="http://www.w3.org/2000/svg" fill="none" viewBox="0 0 24 24"><path fill="currentColor" fill-rule="evenodd" d="M12.036 1.25a.97.97 0 0 0-.842.483L2.64 16.63c-.24.415-.383.875-.383 1.371 0 .796.367 1.499.917 2.074.545.572 1.3 1.052 2.174 1.44 1.75.775 4.116 1.236 6.689 1.236s4.938-.46 6.688-1.236c.875-.388 1.629-.868 2.174-1.44.55-.576.917-1.278.917-2.074a2.73 2.73 0 0 0-.414-1.424L12.878 1.733a.97.97 0 0 0-.842-.483m5.706 12.856c-1.61-.543-3.588-.856-5.706-.856-2.114 0-4.087.31-5.694.852l5.693-9.949z" clip-rule="evenodd"/></svg>