<svg xmlns="http://www.w3.org/2000/svg" fill="none" viewBox="0 0 24 24"><path fill="currentColor" fill-rule="evenodd" d="M8.5 3.75V2h2v1.75h3V2h2v1.75h4a.75.75 0 0 1 .75.75v4H22v2h-1.75v2.066l-.26.186a5 5 0 0 0-.555-.29V11.25h-4.372v1.212a5 5 0 0 0-.556.29l-1.233-.883-2.504 3.607 1.249.894a5.2 5.2 0 0 0 0 1.76l-1.25.894.852 1.226H10.5V22h-2v-1.75h-4a.75.75 0 0 1-.75-.75v-4H2v-2h1.75v-3H2v-2h1.75v-4a.75.75 0 0 1 .75-.75zm7.814 9.604a4.1 4.1 0 0 0-1.799.94l-.937-.67-1.078 1.553.948.678a3.95 3.95 0 0 0 0 2.79l-.948.678 1.078 1.553.937-.67a4.1 4.1 0 0 0 1.8.94V22h1.87v-.854a4.1 4.1 0 0 0 1.8-.94l.937.67L22 19.324l-.948-.678a3.95 3.95 0 0 0 0-2.79l.948-.678-1.078-1.553-.937.67a4.1 4.1 0 0 0-1.8-.94V12.5h-1.87zm.936 1.792a2.2 2.2 0 0 0-1.826.951 2.035 2.035 0 0 0 0 2.306c.386.567 1.054.95 1.826.95s1.44-.383 1.826-.95a2.03 2.03 0 0 0 0-2.306 2.2 2.2 0 0 0-1.826-.95M8 7h4v2H8z" clip-rule="evenodd"/></svg>