<svg xmlns="http://www.w3.org/2000/svg" fill="none" viewBox="0 0 24 24"><path fill="currentColor" fill-rule="evenodd" d="M3.205 12a8.795 8.795 0 1 1 17.59 0v.59a110 110 0 0 0-1.682-1.48l-2.863 1.43v6.928l2.863 1.431c.816-.708 1.864-1.618 2.341-2.102.483-.49.854-.96 1.061-1.504a3.5 3.5 0 0 0 .235-1.384V12c0-5.937-4.813-10.75-10.75-10.75S1.25 6.063 1.25 12v4.004c-.005.438.075.872.235 1.29.207.543.577 1.012 1.06 1.503.478.484 1.526 1.394 2.342 2.102l2.863-1.431v-6.927l-2.863-1.432c-.536.466-1.173 1.02-1.682 1.481zm12.422 9.527c-2.023 1.628-5.231 1.628-7.254 0l1.254-1.558c1.29 1.038 3.455 1.038 4.746 0z" clip-rule="evenodd"/></svg>