<svg xmlns="http://www.w3.org/2000/svg" fill="none" viewBox="0 0 24 24"><path fill="currentColor" fill-rule="evenodd" d="M2 1.25a.75.75 0 0 0-.75.75v8c0 .414.336.75.75.75h8a.75.75 0 0 0 .75-.75V2a.75.75 0 0 0-.75-.75zm12.751 1.888a4.4 4.4 0 0 1 1.923-.99V1.25h2v.899a4.4 4.4 0 0 1 1.922.99l1.002-.706 1.152 1.634-1.013.715a4.1 4.1 0 0 1 0 2.936l1.013.715-1.152 1.634-1.002-.705a4.4 4.4 0 0 1-1.922.99v.898h-2v-.899a4.4 4.4 0 0 1-1.923-.99l-1.001.706-1.152-1.634 1.013-.715a4.1 4.1 0 0 1 0-2.936l-1.013-.715 1.152-1.634zm.971 1.898c.413-.596 1.127-1 1.952-1s1.538.404 1.952 1a2.12 2.12 0 0 1 0 2.428c-.414.596-1.127 1-1.952 1a2.36 2.36 0 0 1-1.952-1 2.12 2.12 0 0 1 0-2.428M1.25 14a.75.75 0 0 1 .75-.75h8a.75.75 0 0 1 .75.75v8a.75.75 0 0 1-.75.75H2a.75.75 0 0 1-.75-.75zM14 13.25a.75.75 0 0 0-.75.75v8c0 .414.336.75.75.75h8a.75.75 0 0 0 .75-.75v-8a.75.75 0 0 0-.75-.75z" clip-rule="evenodd"/></svg>