<svg xmlns="http://www.w3.org/2000/svg" fill="none" viewBox="0 0 24 24"><path fill="currentColor" fill-rule="evenodd" d="M5.159 2.133C6.7 1.576 8.767 1.25 11 1.25s4.299.326 5.841.883c.768.278 1.456.631 1.97 1.07S19.75 4.248 19.75 5v5.936c-.154.388-.518.832-1.178 1.272A6 6 0 0 0 17 12c-1.748 0-3.32.747-4.417 1.94Q11.813 14 11 14c-2.607 0-4.92-.485-6.542-1.227-1.337-.612-1.987-1.281-2.208-1.837V5c0-.753.425-1.358.938-1.796.515-.44 1.203-.793 1.97-1.07m-.68 2.474c-.274.234-.284.37-.284.393s.01.159.284.393.724.487 1.364.718l.157.055V8.5h2V6.646c.905.146 1.92.229 3 .229 2.063 0 3.887-.304 5.16-.764.64-.231 1.09-.484 1.363-.718.274-.234.283-.37.283-.393s-.01-.159-.284-.393c-.272-.234-.723-.487-1.363-.718-1.272-.46-3.096-.764-5.158-.764s-3.886.304-5.158.764c-.64.231-1.09.484-1.364.718M11 18c0-.702.12-1.376.342-2.003Q11.172 16 11 16c-1.037 0-2.044-.07-3-.203V17.5H6v-2.09a14 14 0 0 1-2.374-.819 9 9 0 0 1-1.376-.77V19c0 .706.384 1.288.881 1.729.498.441 1.176.805 1.949 1.095 1.551.581 3.645.926 5.92.926.756 0 1.492-.038 2.195-.11A5.99 5.99 0 0 1 11 18m1.25 0a4.75 4.75 0 1 1 9.5 0 4.75 4.75 0 0 1-9.5 0m4-.75V16h1.5v1.25H19v1.5h-1.25V20h-1.5v-1.25H15v-1.5z" clip-rule="evenodd"/></svg>