<svg xmlns="http://www.w3.org/2000/svg" fill="none" viewBox="0 0 24 24"><path fill="currentColor" fill-rule="evenodd" d="M10.5 1.25c-2.233 0-4.299.326-5.841.883-.768.278-1.456.631-1.97 1.07S1.75 4.248 1.75 5v6.401c.066.141.184.307.386.496.373.35.967.71 1.785 1.034C5.553 13.577 7.88 14 10.5 14c1.224 0 2.384-.092 3.439-.256a4.25 4.25 0 0 1 5.311-2.807V5c0-.753-.425-1.358-.939-1.796-.514-.44-1.202-.793-1.97-1.07-1.542-.558-3.608-.884-5.841-.884M3.694 5c0-.024.01-.159.284-.393s.724-.487 1.364-.718c1.272-.46 3.096-.764 5.158-.764s3.886.304 5.158.764c.64.231 1.09.484 1.364.718s.284.37.284.393-.01.159-.284.393-.724.487-1.364.718c-1.272.46-3.096.764-5.158.764s-3.886-.304-5.158-.764c-.64-.231-1.09-.484-1.364-.718s-.284-.37-.284-.393m5.808 4.862A17 17 0 0 1 6.66 9.5v1.531c.864.17 1.846.285 2.842.331zM10.5 16q.894 0 1.75-.059v6.74q-.851.068-1.75.069c-2.275 0-4.369-.345-5.92-.926-.773-.29-1.451-.654-1.949-1.095-.497-.44-.881-1.023-.881-1.729v-4.893c.424.253.894.478 1.395.676C5.08 15.55 7.68 16 10.5 16m-3.842 2a17 17 0 0 0 2.842.362v1.5a20 20 0 0 1-2.842-.33zm8.592-3a2.75 2.75 0 1 1 5.5 0v.75h1.5v7h-8.5v-7h1.5zm1.5.75V15a1.25 1.25 0 1 1 2.5 0v.75z" clip-rule="evenodd"/></svg>