<svg xmlns="http://www.w3.org/2000/svg" fill="none" viewBox="0 0 24 24"><path fill="currentColor" fill-rule="evenodd" d="M1.25 2c0-.41.336-.75.75-.75h4c.414 0 .75.34.75.75v4c0 .41-.336.75-.75.75H2A.753.753 0 0 1 1.25 6zm8 0c0-.41.336-.75.75-.75h4c.414 0 .75.34.75.75v4c0 .41-.336.75-.75.75h-4A.753.753 0 0 1 9.25 6zM18 1.25c-.414 0-.75.34-.75.75v4c0 .41.336.75.75.75h4c.414 0 .75-.34.75-.75V2c0-.41-.336-.75-.75-.75zM1.25 10c0-.41.336-.75.75-.75h4c.414 0 .75.34.75.75v4c0 .41-.336.75-.75.75H2a.753.753 0 0 1-.75-.75zM10 9.25c-.414 0-.75.34-.75.75v4c0 .41.336.75.75.75h4c.414 0 .75-.34.75-.75v-4c0-.41-.336-.75-.75-.75zm7.25.75c0-.41.336-.75.75-.75h4c.414 0 .75.34.75.75v4c0 .41-.336.75-.75.75h-4a.753.753 0 0 1-.75-.75zM2 17.25c-.414 0-.75.34-.75.75v4c0 .41.336.75.75.75h4c.414 0 .75-.34.75-.75v-4c0-.41-.336-.75-.75-.75zm7.25.75c0-.41.336-.75.75-.75h4c.414 0 .75.34.75.75v4c0 .41-.336.75-.75.75h-4a.753.753 0 0 1-.75-.75zm8.75-.75c-.414 0-.75.34-.75.75v4c0 .41.336.75.75.75h4c.414 0 .75-.34.75-.75v-4c0-.41-.336-.75-.75-.75z" clip-rule="evenodd"/></svg>