<svg xmlns="http://www.w3.org/2000/svg" fill="none" viewBox="0 0 24 24"><path fill="currentColor" fill-rule="evenodd" d="M1.25 4a2.75 2.75 0 1 1 5.5 0 2.75 2.75 0 0 1-5.5 0m0 8a2.75 2.75 0 1 1 5.5 0 2.75 2.75 0 0 1-5.5 0M12 1.25a2.75 2.75 0 1 0 0 5.5 2.75 2.75 0 0 0 0-5.5M9.25 12a2.75 2.75 0 1 1 5.5 0 2.75 2.75 0 0 1-5.5 0M12 17.25a2.75 2.75 0 1 0 0 5.5 2.75 2.75 0 0 0 0-5.5M17.25 4a2.75 2.75 0 1 1 5.5 0 2.75 2.75 0 0 1-5.5 0M20 9.25a2.75 2.75 0 1 0 0 5.5 2.75 2.75 0 0 0 0-5.5" clip-rule="evenodd"/></svg>