<svg xmlns="http://www.w3.org/2000/svg" fill="none" viewBox="0 0 24 24"><path fill="currentColor" fill-rule="evenodd" d="M11.75 4a2.5 2.5 0 1 1 5 0 2.5 2.5 0 0 1-5 0m-8 11.458c0-1 .187-1.974.587-2.867l1.826.818c-.273.608-.413 1.298-.413 2.049 0 2.78 2.265 5.042 5.07 5.042a5.07 5.07 0 0 0 4.12-2.104l1.62 1.172a7.07 7.07 0 0 1-5.74 2.932c-3.9 0-7.07-3.149-7.07-7.042m6.059-2.295 1.053-2.94-1.078-.432-1.116 2.603-1.838-.788 1.5-3.5a1 1 0 0 1 1.29-.534l1.917.766.42-1.175 1.883.674-1.67 4.663h4.08a1 1 0 0 1 .863.496l3.137 6-1.728 1.008-2.847-5.504H10.75a1 1 0 0 1-.941-1.337" clip-rule="evenodd"/></svg>