<svg xmlns="http://www.w3.org/2000/svg" fill="none" viewBox="0 0 24 24"><path fill="currentColor" fill-rule="evenodd" d="M5.75 21v-1.079c-2.426-.382-4.5-2.131-4.5-4.55h2c0 1.052.943 2.178 2.5 2.523v-5.196c-1.141-.104-2.096-.405-2.814-.982-.968-.777-1.311-1.893-1.311-3.086 0-2.339 1.85-4.128 4.125-4.54V3h2v1.09c2.275.412 4.125 2.201 4.125 4.54h-2c0-1.079-.831-2.13-2.125-2.495v4.646c1.167.1 2.196.396 2.989 1.013 1.069.831 1.511 2.081 1.511 3.576 0 1.594-.64 2.815-1.736 3.6-.788.565-1.754.864-2.764.976V21zm3.6-3.655c-.398.284-.939.485-1.6.585v-5.14c.841.091 1.4.303 1.761.583.431.335.739.9.739 1.997 0 1-.368 1.593-.9 1.975m-3.6-11.21v4.552c-.79-.093-1.273-.298-1.561-.53-.345-.276-.564-.716-.564-1.527 0-1.079.831-2.13 2.125-2.495m11.879 3.576 1.293 1.293h-5.586v2h5.586l-1.293 1.293 1.414 1.414 3.707-3.707-3.707-3.707z" clip-rule="evenodd"/></svg>