<svg xmlns="http://www.w3.org/2000/svg" fill="none" viewBox="0 0 24 24"><path fill="currentColor" fill-rule="evenodd" d="M4.47 1.47A.75.75 0 0 1 5 1.25h14a.75.75 0 0 1 .75.75v18.75h1.75v2h-19v-2h1.75V2a.75.75 0 0 1 .22-.53M12 6.25c-1.465 0-2.679 1.168-2.679 2.64v1.587A3.64 3.64 0 0 0 8.25 13.06c0 2.052 1.693 3.69 3.75 3.69s3.75-1.638 3.75-3.69c0-1.01-.41-1.92-1.071-2.583V8.89c0-1.472-1.214-2.64-2.679-2.64m0 3.12c-.41 0-.806.065-1.178.186V8.89c0-.615.514-1.14 1.179-1.14s1.178.525 1.178 1.14v.666a3.8 3.8 0 0 0-1.178-.186" clip-rule="evenodd"/></svg>