<svg xmlns="http://www.w3.org/2000/svg" fill="none" viewBox="0 0 24 24"><path fill="currentColor" d="M8.178 1.32a.75.75 0 0 1 .752.07L12 3.578l3.07-2.188a.75.75 0 0 1 .752-.07c.692.318 2.135 1.104 3.543 2.338 1.405 1.23 2.833 2.956 3.385 5.16 0 0-.359 1.605-1.05 2.607-.69 1.002-1.83 2.076-3.564 2.288q.051.222.117.452c.15.528.33 1.024.52 1.551.131.364.268.743.405 1.157.316.96.588 2.009.588 3.127v.427l-.367.218c-1.722 1.02-4.283 2.105-7.399 2.105-3.117 0-5.677-1.084-7.399-2.105l-.367-.218V20c0-1.118.272-2.167.59-3.128.137-.416.274-.795.406-1.159.191-.527.37-1.023.521-1.551q.066-.228.117-.449c-1.736-.21-2.878-1.285-3.569-2.288S1.25 8.818 1.25 8.818c.552-2.204 1.98-3.93 3.385-5.16 1.408-1.234 2.85-2.02 3.543-2.339"/></svg>