<svg xmlns="http://www.w3.org/2000/svg" fill="none" viewBox="0 0 24 24"><path fill="currentColor" fill-rule="evenodd" d="M9.75 1.5v1.849l2.25 1.5 2.25-1.5V1.5h1.5v1.94l1.78 1.78a.75.75 0 0 1 .14.865L16.214 9H7.786L6.33 6.085a.75.75 0 0 1 .14-.865l1.78-1.781V1.5zm-.755 9h7.852c.389.427.826.952 1.263 1.564 1.303 1.824 2.64 4.475 2.64 7.686v.455l-.404.21a19 19 0 0 1-3.622 1.432c-.112-1.677-.575-3.197-1.027-4.331a16 16 0 0 0-.722-1.565 12 12 0 0 0-.312-.554l-.02-.033-.006-.01-.002-.003v-.001l-.635.4-.634.4.002.005.014.021.056.095q.077.13.212.382c.177.335.415.821.653 1.419.441 1.105.872 2.56.938 4.122a17.4 17.4 0 0 1-6.482 0c.066-1.562.497-3.017.938-4.122.238-.598.476-1.084.653-1.42a11 11 0 0 1 .268-.476l.014-.021.002-.005-.634-.4-.634-.4-.001.001-.002.003-.006.01-.02.033q-.026.041-.07.118a12 12 0 0 0-.242.436c-.198.374-.46.91-.722 1.565-.452 1.134-.915 2.654-1.027 4.331a19 19 0 0 1-3.622-1.432l-.404-.21v-.455c0-3.21 1.337-5.862 2.64-7.686A17 17 0 0 1 7.153 10.5z" clip-rule="evenodd"/></svg>