<svg xmlns="http://www.w3.org/2000/svg" fill="none" viewBox="0 0 24 24"><path fill="currentColor" fill-rule="evenodd" d="M14.107 22.54q-1.024.206-2.107.207a10.7 10.7 0 0 1-5.662-1.61c2.024-2.665 4.681-4.726 7.715-5.918a20 20 0 0 1 .36 3.808c0 1.2-.104 2.374-.306 3.514m2.124-.653a10.77 10.77 0 0 0 6.286-7.645 16.6 16.6 0 0 0-6.548.358 22.2 22.2 0 0 1 .262 7.287m4.04-16.754a10.7 10.7 0 0 1 2.477 7.12 18.6 18.6 0 0 0-7.268.406 22 22 0 0 0-1.165-3.03 20.4 20.4 0 0 0 5.956-4.496m-8.747 3.523a20.2 20.2 0 0 0-5.246-5.758A10.77 10.77 0 0 0 1.55 9.465a18.9 18.9 0 0 0 9.973-.809M12 1.25c-1.311 0-2.568.235-3.73.665a22.2 22.2 0 0 1 5.108 5.944 18.4 18.4 0 0 0 5.476-4.141A10.7 10.7 0 0 0 12 1.25M1.25 11.997c0 3.14 1.347 5.966 3.494 7.932 2.289-3.014 5.332-5.352 8.828-6.67a20 20 0 0 0-1.09-2.83 20.7 20.7 0 0 1-7.408 1.362 21 21 0 0 1-3.81-.349q-.014.276-.014.555" clip-rule="evenodd"/></svg>