<svg xmlns="http://www.w3.org/2000/svg" fill="none" viewBox="0 0 24 24"><path fill="currentColor" fill-rule="evenodd" d="M11.082 4.213a2.23 2.23 0 1 0 3.062 3.062l1.713 1.032A4.23 4.23 0 1 1 10.05 2.5zM13 4.356a1 1 0 0 1 1-1h.009a1 1 0 1 1 0 2H14a1 1 0 0 1-1-1M11.5 21.5V16l-3.104-3.104a2.14 2.14 0 0 0-2.992-.036L7.5 14.956l-.75.75-2.25-2.25V8.5a2 2 0 0 0-2-2h-1V15l6 6.5zm1 0V16l3.104-3.104a2.14 2.14 0 0 1 2.992-.036L16.5 14.956l.75.75 2.25-2.25V8.5a2 2 0 0 1 2-2h1V15l-6 6.5z" clip-rule="evenodd"/></svg>