<svg xmlns="http://www.w3.org/2000/svg" fill="none" viewBox="0 0 24 24"><path fill="currentColor" fill-rule="evenodd" d="m19.5 2.651-.916-.401s-.202.44-.305.651a39 39 0 0 1-.92 1.767l-.233.424c-.8 1.456-1.908 3.475-3.289 5.243-3.086 3.95-7.326 7.616-12.337 7.616v2c5.99 0 10.749-4.335 13.913-8.385 1.472-1.884 2.643-4.015 3.48-5.537l.217-.395a41 41 0 0 0 1.217-2.385l.065-.143.017-.038.005-.011.002-.004zm0 13.099a3 3 0 0 0-2.83 2H14.5v2h2.17a3.001 3.001 0 1 0 2.83-4m-9 4h2v-2h-2z" clip-rule="evenodd"/></svg>