<svg xmlns="http://www.w3.org/2000/svg" fill="none" viewBox="0 0 24 24"><path fill="currentColor" fill-rule="evenodd" d="M1.75 11h1v2h-1v2h1.09c.487 3.289 2.907 6 6.099 6 1.867 0 3.499-.957 4.603-2.39l-1.584-1.22c-.792 1.026-1.873 1.61-3.02 1.61-1.851 0-3.619-1.601-4.075-4H7.75v-2h-3v-2h3V9H4.863C5.32 6.601 7.087 5 8.94 5c1.146 0 2.227.584 3.019 1.61l1.584-1.22C12.438 3.957 10.806 3 8.939 3 5.747 3 3.327 5.711 2.84 9H1.75zm15.379-.289 1.293 1.293h-5.586v2h5.586l-1.293 1.293 1.414 1.414 3.707-3.707-3.707-3.707z" clip-rule="evenodd"/></svg>