<svg xmlns="http://www.w3.org/2000/svg" fill="none" viewBox="0 0 24 24"><path fill="currentColor" fill-rule="evenodd" d="M3.467 1.25a.973.973 0 0 0-.967.978V20.75H1.25v2h17v-2H17v-1.759c.219-.01.408-.027.583-.06 1.625-.31 2.898-1.58 3.116-3.198.109-.814.027-1.648-.095-2.416a37 37 0 0 0-.188-1.053l-.015-.08-.029-.152-.005-.03h.14l1.086-2.687 1.158-.61V3.853l-4.501 3v5.15h.592q.041.233.085.46l.014.077q.1.513.181 1.012c.115.723.17 1.386.09 1.982-.126.936-.875 1.727-1.91 1.925a2 2 0 0 1-.302.032V2.228a.973.973 0 0 0-.967-.978zm11.6 9V3.205H4.433v7.045zm-5.438 1.834 1.248.832-1.223 1.834h3.001l-2.778 4.166-1.248-.832 1.223-1.834h-3z" clip-rule="evenodd"/></svg>