<svg xmlns="http://www.w3.org/2000/svg" fill="none" viewBox="0 0 24 24"><path fill="currentColor" fill-rule="evenodd" d="M7.201 3.17a1.434 1.434 0 1 0-2.027 2.028l1.93 1.93a1.434 1.434 0 0 0 1.949.073l.567-.49.98 1.136-.568.49a2.934 2.934 0 0 1-3.989-.149l-1.93-1.93a2.934 2.934 0 0 1 4.15-4.149l.53.53L7.731 3.7zm2.703 2.702A1.434 1.434 0 0 0 7.955 5.8l-.568.49-.98-1.136.569-.49a2.934 2.934 0 0 1 3.988.149l1.93 1.93a2.934 2.934 0 0 1-4.148 4.149l-.53-.53L9.275 9.3l.53.53a1.434 1.434 0 1 0 2.028-2.028zm-2.042 5.903L3.254 7.167V22.75h10.11l7.39-7.38V1.25H9.17l4.608 4.608a4.184 4.184 0 0 1-5.916 5.917m10.941 2.765-6.237 6.255V14.54z" clip-rule="evenodd"/></svg>