<svg xmlns="http://www.w3.org/2000/svg" fill="none" viewBox="0 0 24 24"><path fill="currentColor" fill-rule="evenodd" d="M8.5 1.25c-1.512 0-2.754 1.06-3.117 2.464C4.135 4.099 3.25 5.29 3.25 6.667c0 1.677 1.318 3.083 3 3.083h4.725c1.558 0 2.775-1.302 2.775-2.85 0-1.3-.863-2.42-2.054-2.75-.205-1.55-1.488-2.9-3.196-2.9m4.27 1.982a4.74 4.74 0 0 0-1.21-1.982h9.192v14.12l-7.389 7.38H3.254V9.741A4.17 4.17 0 0 0 6.249 11h4.725C13.27 11 15 9.092 15 6.9c0-1.577-.89-2.986-2.23-3.668m6.033 11.308-6.237 6.255V14.54z" clip-rule="evenodd"/></svg>