<svg xmlns="http://www.w3.org/2000/svg" fill="none" viewBox="0 0 24 24"><path fill="currentColor" fill-rule="evenodd" d="M20.75 2.227a.975.975 0 0 0-.974-.977H9.636L2.25 8.663v13.11c0 .54.436.977.974.977h9.737v-1.954H4.197v-10.75h6.816V3.205h7.79v5.863h1.947zm-4 8.773v.61a4 4 0 0 0-1.547.7c-.687.518-1.203 1.308-1.203 2.264 0 .82.288 1.612 1.058 2.142.689.475 1.625.636 2.692.636.941 0 1.446.147 1.695.313.163.11.305.277.305.761 0 .375-.14.58-.402.74-.323.198-.863.334-1.598.334-.651 0-1.197-.184-1.553-.43-.36-.249-.447-.493-.447-.644h-2c0 .994.584 1.787 1.31 2.29a4.5 4.5 0 0 0 1.69.69V22h2v-.57c.588-.086 1.156-.26 1.645-.56.823-.505 1.355-1.338 1.355-2.444 0-.998-.358-1.867-1.195-2.425-.75-.5-1.746-.65-2.805-.65-.933 0-1.372-.154-1.558-.282-.105-.073-.192-.169-.192-.495 0-.19.1-.436.408-.668s.78-.406 1.342-.406 1.034.173 1.342.406c.308.232.408.478.408.668h2c0-.956-.516-1.746-1.203-2.265a4 4 0 0 0-1.547-.7V11z" clip-rule="evenodd"/></svg>