<svg xmlns="http://www.w3.org/2000/svg" fill="none" viewBox="0 0 24 24"><path fill="currentColor" fill-rule="evenodd" d="M12.803 1.877a.75.75 0 0 0-1.234-.442s-.492.487-.682.707a9.5 9.5 0 0 0-1.26 1.868c-.665 1.312-1.13 3.079-.54 5.044a2.3 2.3 0 0 1-.596-.548c-.449-.57-.717-1.328-.816-1.847a.75.75 0 0 0-1.333-.314q-.188.245-.386.49c-.838 1.045-1.74 2.17-1.705 4.172V12H19.75v-1c0-.732-.36-1.48-.842-2.131-.495-.67-1.182-1.324-1.978-1.883-1.908-1.338-2.943-2.657-3.498-3.613a6.3 6.3 0 0 1-.527-1.133 4 4 0 0 1-.1-.354zM1.25 17.25h10v-4H2a.75.75 0 0 0-.75.75zm0 1.5V22a.75.75 0 0 0 .75.75h4.25v-4zm15 4h-8.5v-4h8.5zm1.5 0H22a.75.75 0 0 0 .75-.75v-3.25h-5zm5-8.75v3.25h-10v-4H22a.75.75 0 0 1 .75.75" clip-rule="evenodd"/></svg>