<svg xmlns="http://www.w3.org/2000/svg" fill="none" viewBox="0 0 24 24"><path fill="currentColor" fill-rule="evenodd" d="M10.446 3c-.628 0-1.226.17-1.745.622-.48.417-.808 1.006-1.074 1.677-.33.834-.631 1.978-.968 3.479H4.908v2h1.32l-.213 1.02c-.655 3.152-1.068 5.046-1.513 6.167-.219.552-.402.797-.528.907-.088.076-.19.128-.425.128a.3.3 0 0 1-.147-.03.4.4 0 0 1-.124-.123c-.124-.172-.23-.456-.317-.841l-1.958.433c.103.465.281 1.07.645 1.574.398.552 1.025.987 1.901.987.627 0 1.226-.17 1.744-.622.48-.417.809-1.006 1.075-1.677.525-1.323.974-3.429 1.612-6.498q.157-.76.298-1.425h2.167v-2H8.717c.282-1.222.524-2.107.777-2.744.218-.551.401-.796.528-.906.088-.076.19-.128.424-.128a.3.3 0 0 1 .147.03.4.4 0 0 1 .125.123c.123.172.23.456.316.841l1.959-.433c-.104-.465-.282-1.07-.646-1.574-.397-.552-1.024-.987-1.9-.987m9.695 9.391c.667 1.566.933 2.666.923 3.687-.01 1.024-.298 2.069-.922 3.53l1.845.784c.666-1.557 1.07-2.886 1.083-4.294.014-1.41-.364-2.8-1.082-4.488zm-8.105 3.687c-.01-1.021.257-2.121.923-3.687l-1.846-.781c-.719 1.687-1.097 3.078-1.083 4.488.014 1.408.418 2.737 1.083 4.294l1.846-.783c-.624-1.462-.913-2.507-.923-3.53m2.302-1.077c.268 0 .422 0 .537.008.06.004.089.009.098.01l.014.007.006.01c.016.03.039.072.071.14.033.067.07.146.116.248l.207.449c-.24.306-.458.564-.68.768-.321.296-.526.36-.664.36v2c.859 0 1.53-.436 2.025-.89q.126-.117.247-.243c.12.221.274.45.494.632.187.155.398.274.62.357.392.146.829.145 1.23.144h.104v-2c-.269 0-.423 0-.537-.008a1 1 0 0 1-.099-.011l-.014-.006-.005-.01a2 2 0 0 1-.072-.14l-.116-.248-.207-.449c.24-.306.458-.564.68-.768.322-.296.526-.36.665-.36v-2c-.86 0-1.531.436-2.025.89a6 6 0 0 0-.248.243 2.1 2.1 0 0 0-.494-.633 2.1 2.1 0 0 0-.62-.356c-.392-.147-.828-.146-1.229-.144h-.104z" clip-rule="evenodd"/></svg>