<svg xmlns="http://www.w3.org/2000/svg" fill="none" viewBox="0 0 24 24"><path fill="currentColor" d="M12 1.25C6.063 1.25 1.25 6.108 1.25 12.1c0 5.28 3.739 9.68 8.691 10.65v-2.936a4 4 0 0 1-1.014-.3c-.683-.305-1.535-.892-2.36-2.003l1.2-.909c.673.907 1.323 1.33 1.768 1.528.161.073.3.117.406.144v-.446c0-.367.108-.686.283-.974.12-.197.037-.478-.179-.54C8.255 15.802 7 14.977 7 12.241a3.5 3.5 0 0 1 .64-1.995c.082-.122.123-.183.135-.249s-.005-.138-.04-.282l-.01-.04a3.7 3.7 0 0 1 .006-1.828c.053-.195.166-.308.37-.286.266.028.727.155 1.409.6.268.174.402.261.52.28s.276-.02.592-.102A5.4 5.4 0 0 1 12 8.167c.501 0 .946.06 1.378.172.316.081.474.122.592.103s.252-.107.52-.282c.682-.444 1.143-.571 1.408-.6.205-.021.318.092.371.287.16.591.15 1.225.006 1.827l-.01.041c-.035.144-.052.216-.04.282s.053.127.136.249l.022.034c.393.582.617 1.25.617 1.961 0 2.736-1.255 3.56-3.045 4.073-.216.062-.298.343-.179.54.175.288.283.607.283.974v4.922c4.952-.97 8.691-5.37 8.691-10.65 0-5.992-4.813-10.85-10.75-10.85"/></svg>