<svg xmlns="http://www.w3.org/2000/svg" fill="none" viewBox="0 0 24 24"><path fill="currentColor" fill-rule="evenodd" d="M13.323 3.623a20 20 0 0 1 1.55 4.627H9.127a20 20 0 0 1 1.55-4.627l.265-.562c.324-.688.637-1.353.901-1.81a11 11 0 0 1 .312 0c.264.457.577 1.122.901 1.81zM8.75 12.001c0-.78.049-1.532.136-2.251h6.228a18.8 18.8 0 0 1 0 4.5H8.886A19 19 0 0 1 8.75 12m.378 3.749a20 20 0 0 0 1.55 4.628l.261.555.001.001c.325.69.64 1.357.904 1.815a12 12 0 0 0 .312 0c.265-.458.579-1.125.904-1.815l.263-.556a20 20 0 0 0 1.55-4.628zM7.25 12.002c0 .778.045 1.529.125 2.25h-5.89a10.8 10.8 0 0 1-.235-2.25c0-.772.081-1.525.236-2.25h5.89c-.081.72-.126 1.472-.126 2.25m.35-3.75H1.922a10.77 10.77 0 0 1 8.143-6.827c-.168.344-.345.716-.523 1.092v.002l-.22.46A21.5 21.5 0 0 0 7.6 8.253m-5.678 7.5H7.6a21.5 21.5 0 0 0 1.724 5.273l.216.455c.179.378.356.753.526 1.098a10.77 10.77 0 0 1-8.143-6.826m14.477-7.5a21.5 21.5 0 0 0-1.723-5.272l-.219-.462c-.178-.376-.355-.75-.523-1.093a10.77 10.77 0 0 1 8.143 6.827zm6.114 1.5h-5.89a20.3 20.3 0 0 1 0 4.5h5.89c.155-.726.236-1.479.236-2.25 0-.772-.081-1.525-.236-2.25m-6.113 6h5.677a10.77 10.77 0 0 1-8.143 6.826c.17-.345.347-.72.526-1.098l.216-.455a21.5 21.5 0 0 0 1.724-5.273" clip-rule="evenodd"/></svg>