<svg xmlns="http://www.w3.org/2000/svg" fill="none" viewBox="0 0 24 24"><path fill="currentColor" fill-rule="evenodd" d="M12 3.205q-.098 0-.194.002l.99 1.384-1.591 1.136L9.25 2.991a.977.977 0 0 1 .601-1.526A11 11 0 0 1 12 1.25c5.937 0 10.75 4.813 10.75 10.75S17.937 22.75 12 22.75 1.25 17.937 1.25 12c0-3.518 1.69-6.64 4.3-8.6l1.173 1.563A8.795 8.795 0 1 0 12 3.205M10.5 8a1 1 0 0 0-.99.859l-.5 3.5a1 1 0 0 0 1.222 1.114l.322-.078c.591-.144 1.035-.252 1.517-.252a.929.929 0 0 1 0 1.857h-.03c-.204 0-.375 0-.538-.01a1.6 1.6 0 0 1-.366-.06.4.4 0 0 1-.088-.041l-.01-.016a.4.4 0 0 1-.032-.094l-1.95.443c.093.41.277.771.557 1.06.277.285.6.452.905.55.523.17 1.106.17 1.477.168h.075a2.929 2.929 0 0 0 0-5.857c-.3 0-.595.028-.877.072L11.367 10h3.01V8z" clip-rule="evenodd"/></svg>