<svg xmlns="http://www.w3.org/2000/svg" fill="none" viewBox="0 0 24 24"><path fill="currentColor" fill-rule="evenodd" d="m12 3.204.194.002-.99 1.385 1.591 1.136L14.75 2.99a.977.977 0 0 0-.601-1.526A11 11 0 0 0 12 1.25C6.063 1.25 1.25 6.063 1.25 12S6.063 22.75 12 22.75 22.75 17.937 22.75 12c0-3.518-1.69-6.64-4.3-8.6l-1.173 1.562A8.796 8.796 0 1 1 12 3.204M9.446 8.106A1 1 0 0 1 9.998 9v8h-2v-6l-.4.3-1.2-1.6 2-1.5a1 1 0 0 1 1.048-.094m2.187.753a1 1 0 0 1 .99-.859H16.5v2h-3.01l-.174 1.215c.283-.044.577-.072.878-.072a2.928 2.928 0 1 1 0 5.857h-.076c-.37.001-.954.003-1.477-.168a2.2 2.2 0 0 1-.904-.55 2.2 2.2 0 0 1-.558-1.06l1.95-.443a.4.4 0 0 0 .043.11l.015.011a.4.4 0 0 0 .073.03c.08.027.197.048.366.06.163.01.333.01.537.01h.031a.929.929 0 0 0 0-1.857c-.483 0-.926.108-1.517.252h-.001l-.322.078a1 1 0 0 1-1.221-1.114z" clip-rule="evenodd"/></svg>