<svg xmlns="http://www.w3.org/2000/svg" fill="none" viewBox="0 0 24 24"><path fill="currentColor" fill-rule="evenodd" d="M2.281 4.223h1.972v7.027H2a.75.75 0 0 0-.75.75v7c0 .414.336.75.75.75h.283a3.75 3.75 0 1 1 7.434 0h4.566a3.75 3.75 0 1 1 7.434 0H22a.75.75 0 0 0 .75-.75v-5a.75.75 0 0 0-.751-.75l-2.154.004-2.463-9.031h1.668V2.25H2.28zM8 11.25H6.226V4.223h9.111l2.464 9.034-1.075.002-1.395-2.44.724-.483-1.11-1.664-3 2 1.11 1.664.608-.406 1.216 2.128-1.19 1.19h-3.225L8.67 11.665A.75.75 0 0 0 8 11.25m-2 5.5a2.5 2.5 0 1 0 0 5 2.5 2.5 0 0 0 0-5m12 0a2.5 2.5 0 1 0 0 5 2.5 2.5 0 0 0 0-5" clip-rule="evenodd"/></svg>