<svg xmlns="http://www.w3.org/2000/svg" fill="none" viewBox="0 0 24 24"><path fill="currentColor" d="M14.148 1.547a7.7 7.7 0 0 0-2.155-.297A7.43 7.43 0 0 0 6.84 3.279l3.026 3.026zM5.845 4.406C4.306 6.52 3.774 9.389 4.723 12.02L8.86 7.422zm-.429 9.086c.346.595.746 1.153 1.146 1.67.275.357.556.701.822 1.027l.066.082q.222.273.426.527l3.999-4.55a3.25 3.25 0 0 1-3.049-2.545zm6.95-7.722a3.25 3.25 0 0 1 2.839 2.688l3.222-3.666a7.75 7.75 0 0 0-2.806-2.639zm6.794.46L8.815 18.002c.4.523.823 1.103 1.212 1.698.583.893 1.054 1.77 1.262 2.504a.75.75 0 0 0 1.444 0c.261-.918.84-1.961 1.555-3.006.708-1.035 1.517-2.025 2.203-2.835a22 22 0 0 0 2.445-3.492c1.052-2.166 1.04-4.58.226-6.643"/></svg>