<svg xmlns="http://www.w3.org/2000/svg" fill="none" viewBox="0 0 24 24"><path fill="currentColor" fill-rule="evenodd" d="M20.863 6.696h-.002l-.021.004-.094.018a7 7 0 0 0-.955.268c-1.6-1.286-3.628-1.713-5.54-1.713-3.318 0-5.796 2.026-6.963 4.648-.898 2.019-1.055 4.43-.334 6.747a7 7 0 0 0-.354 1.134c-.109.492-.133.883-.106 1.107l.257 2.112-1.524-1.483A10.6 10.6 0 0 1 2 11.91C2 6.382 6.303 1.25 12.75 1.25h.75v2.179l2.129-1.655.328.058c2.712.48 4.334 2.273 5.391 3.67L22 6.506l-1.136.19zm-6.612.077c-2.636 0-4.629 1.592-5.592 3.758-.924 2.079-.922 4.707.3 7.09l-1.236 4.947 8.528-2.224 5.413 2.406-.853-6.627-.522-.109c-.24-.05-.452-.086-.65-.12-.379-.065-.705-.121-1.082-.25a3.8 3.8 0 0 1-1.295-.754c.707-.952 1.861-1.038 2.66-1.097q.152-.01.284-.023l.68-.064v-.683c0-2.174-.718-3.782-1.987-4.828-1.244-1.026-2.91-1.422-4.648-1.422" clip-rule="evenodd"/></svg>