<svg xmlns="http://www.w3.org/2000/svg" fill="none" viewBox="0 0 24 24"><path fill="currentColor" fill-rule="evenodd" d="M8.75 5.933V1.75h-1.5v4.183a2.3 2.3 0 0 0-.767.674c-.328.442-.548 1.002-.655 1.552a4 4 0 0 0-.078.789c-2.627.941-4.5 3.48-4.5 6.456 0 3.77 3.01 6.846 6.75 6.846s6.75-3.076 6.75-6.846c0-2.975-1.873-5.515-4.5-6.456a4 4 0 0 0-.076-.788c-.107-.55-.327-1.112-.656-1.554a2.3 2.3 0 0 0-.768-.673m-6 9.471c0-2.29 1.412-4.236 3.387-5 .22.336.548.616 1.012.743.5.137 1.197.137 1.698 0a1.74 1.74 0 0 0 1.014-.744c1.976.763 3.389 2.71 3.389 5.001 0 2.964-2.362 5.346-5.25 5.346s-5.25-2.382-5.25-5.346m14-9.47V1.75h-1.5v4.183a2.3 2.3 0 0 0-.767.674c-.328.442-.548 1.002-.655 1.552-.107.547-.117 1.156.053 1.696.174.556.566 1.1 1.268 1.292.5.137 1.197.137 1.697 0a1.74 1.74 0 0 0 1.015-.744c1.976.763 3.389 2.71 3.389 5.001 0 2.964-2.362 5.346-5.25 5.346a5.2 5.2 0 0 1-1.746-.303l-.508 1.412A6.7 6.7 0 0 0 16 22.25c3.74 0 6.75-3.076 6.75-6.846 0-2.975-1.873-5.515-4.5-6.456a4 4 0 0 0-.076-.788c-.107-.55-.327-1.112-.656-1.554a2.3 2.3 0 0 0-.768-.673m-5.561 7.326a5.4 5.4 0 0 0-.439 2.144c0 .817.18 1.59.5 2.28l-1.36.632a6.9 6.9 0 0 1-.64-2.912c0-.971.2-1.897.561-2.737z" clip-rule="evenodd"/></svg>