<svg xmlns="http://www.w3.org/2000/svg" fill="none" viewBox="0 0 24 24"><path fill="currentColor" fill-rule="evenodd" d="m8.64 11.112-5.004 2.73a.75.75 0 0 0-.385.558L2.25 22.552l1.487.198.952-7.774 5.157-2.813a4.24 4.24 0 0 0 4.19.067c-1.014 1.778-2.575 3.01-3.969 3.821-.523.304-1.017.545-1.439.73l.11-.658-1.48-.247-1.002 6a.75.75 0 0 0 .74.874h14.006a.75.75 0 0 0 .743-.85l-.566-4.246-.265.298c-.415.462-.89.958-1.372 1.394-.473.429-.99.834-1.488 1.08l-.663-1.346c.31-.153.705-.448 1.144-.845.43-.39.868-.846 1.264-1.286a30 30 0 0 0 1.11-1.312l-.164-1.237a.75.75 0 0 0-.385-.559l-.834-.455c-.566 1.5-1.503 2.714-2.386 3.611a14 14 0 0 1-1.747 1.5 12 12 0 0 1-.785.519l-.014.008-.004.002-.002.002-.371-.652c-.37-.653-.371-.652-.371-.652l.006-.004.032-.019.133-.082a12.3 12.3 0 0 0 2.054-1.673c.838-.853 1.666-1.96 2.123-3.286l-2.836-1.546a4.44 4.44 0 0 0 .878-1.912l.42-2.156C17.239 4.07 15.019 1.25 12 1.25S6.762 4.07 7.343 7.046l.42 2.156c.14.718.448 1.368.877 1.91m.172-4.362.002.009.42 2.155C9.503 10.285 10.67 11.25 12 11.25s2.497-.965 2.765-2.336l.42-2.155.002-.01z" clip-rule="evenodd"/></svg>