<svg xmlns="http://www.w3.org/2000/svg" fill="none" viewBox="0 0 24 24"><path fill="currentColor" fill-rule="evenodd" d="M22.553 6.404a4 4 0 0 1-.806.74c-.703.477-1.71 1.345-2.37 2.697-.548 1.12-1.463 2.05-2.426 2.784a15 15 0 0 1-2.922 1.715c-.34.152-.686.242-.935.293a5 5 0 0 1-.313.055l-.49.053-.809-.81-3.31 3.312c.393.644.62 1.4.62 2.21a4.23 4.23 0 0 1-1.274 3.03l-.529.52L1 17.013l.519-.529a4.23 4.23 0 0 1 3.03-1.273c.81 0 1.567.227 2.21.62l3.312-3.311-.81-.809.053-.49c.011-.077.029-.185.055-.313a4.7 4.7 0 0 1 .293-.934c.4-.895.976-1.954 1.715-2.922.735-.964 1.664-1.878 2.785-2.426 1.351-.66 2.22-1.667 2.697-2.37a4 4 0 0 1 .74-.807l.61-.449 4.794 4.793zM14.495 8.5a1 1 0 0 0-.995 1c0 .552.446 1 .995 1h.01c.55 0 .995-.448.995-1s-.446-1-.995-1z" clip-rule="evenodd"/></svg>