<svg xmlns="http://www.w3.org/2000/svg" fill="none" viewBox="0 0 24 24"><path fill="currentColor" fill-rule="evenodd" d="M7.25 3.5a2.25 2.25 0 0 1 4.492-.197l5.109-1.038a.75.75 0 0 1 .735.267l2 2.5-1.172.937L16.7 3.826l-4.95 1.006v.418h.75a.75.75 0 0 1 .75.75v2.67a4.75 4.75 0 0 1 2.782 3.966l.716 9.307a.75.75 0 0 1-.748.807H3a.75.75 0 0 1-.748-.808l.716-9.306A4.75 4.75 0 0 1 5.75 8.67V6a.75.75 0 0 1 .75-.75h.75zm0 4.771V6.75h4.5v1.521a5 5 0 0 0-.454-.021H7.704q-.23 0-.454.021M19.5 6.976s.701.662.778.743c.153.161.359.39.566.66.206.266.425.588.595.934.166.338.311.75.311 1.187 0 .737-.259 1.336-.735 1.738-.455.383-1.02.512-1.515.512s-1.06-.13-1.515-.512c-.476-.402-.735-1.001-.735-1.738 0-.436.145-.849.311-1.187a5.7 5.7 0 0 1 .595-.935c.207-.27.413-.498.566-.66.077-.08.778-.742.778-.742M8.5 15v-2h2v2h2v2h-2v2h-2v-2h-2v-2z" clip-rule="evenodd"/></svg>