<svg xmlns="http://www.w3.org/2000/svg" fill="none" viewBox="0 0 24 24"><path fill="currentColor" fill-rule="evenodd" d="M7.611 1.45a.96.96 0 0 1 .816-.172l7.6 1.889c.422.105.72.483.72.916V7.25H19a.75.75 0 0 1 .75.75v2.387a6.75 6.75 0 1 1-7.919 10.922 8.3 8.3 0 0 0 3.071-2.787 2.75 2.75 0 1 0 1.315-5.264 8.23 8.23 0 0 0-2.967-5.622V7.25h1.595V4.82L9.147 3.405V5.25H11a.75.75 0 0 1 .75.75v2.387a6.75 6.75 0 1 1-7.5 0V6A.75.75 0 0 1 5 5.25h2.247V2.195c0-.291.134-.566.364-.745M8 11.25a2.75 2.75 0 1 0 0 5.5 2.75 2.75 0 0 0 0-5.5" clip-rule="evenodd"/></svg>