<svg xmlns="http://www.w3.org/2000/svg" fill="none" viewBox="0 0 24 24"><path fill="currentColor" fill-rule="evenodd" d="M1.25 12C1.25 6.063 6.063 1.25 12 1.25S22.75 6.063 22.75 12 17.937 22.75 12 22.75 1.25 17.937 1.25 12M12 16.25a4.24 4.24 0 0 0 3.4-1.7l1.2.9a5.74 5.74 0 0 1-4.6 2.3 5.74 5.74 0 0 1-4.6-2.3l1.2-.9a4.24 4.24 0 0 0 3.4 1.7M9 7.5l-.624.416.001.001.006.01a4 4 0 0 1 .13.209c.06.1.135.228.213.373A2.61 2.61 0 0 0 6.4 9.55l1.2.9c.45-.6 1.35-.6 1.8 0a.75.75 0 0 0 1.35-.45c0-.69-.326-1.454-.579-1.96a10 10 0 0 0-.531-.932l-.01-.016-.004-.005-.001-.002zm6 0-.624-.416-.001.002-.004.005-.01.016-.036.057-.124.2c-.1.168-.236.404-.371.675-.253.506-.58 1.27-.58 1.96a.75.75 0 0 0 1.35.45c.45-.6 1.35-.6 1.8 0l1.2-.9a2.61 2.61 0 0 0-2.325-1.04 9 9 0 0 1 .342-.582l.007-.01v-.001z" clip-rule="evenodd"/></svg>