<svg xmlns="http://www.w3.org/2000/svg" fill="none" viewBox="0 0 24 24"><path fill="currentColor" fill-rule="evenodd" d="m21.226 22.64.11.11 1.414-1.414L2.664 1.25 1.25 2.664l2.758 2.759a9.74 9.74 0 0 0-1.758 5.6v2.932h.027C2.53 16.087 4.548 17.75 7 17.75h1.75v-7.586l10.631 10.632H12v1.954h8.775a1 1 0 0 0 .45-.11M7.836 9.25l-2.42-2.42a7.8 7.8 0 0 0-1.153 3.196A5.1 5.1 0 0 1 7 9.25zM12 3.205c3.971 0 7.249 2.974 7.737 6.821A5.1 5.1 0 0 0 17 9.25h-1.75v2.464l6.5 6.5v-7.191c0-5.398-4.365-9.773-9.75-9.773a9.7 9.7 0 0 0-5.507 1.707l1.41 1.411A7.75 7.75 0 0 1 12 3.205" clip-rule="evenodd"/></svg>