<svg xmlns="http://www.w3.org/2000/svg" fill="none" viewBox="0 0 24 24"><path fill="currentColor" fill-rule="evenodd" d="M10.364 2.759A7.5 7.5 0 0 1 12 3.744c.37-.292.954-.693 1.636-.985 1.386-.593 3.344-.871 5.576.323 2.783 1.488 4.148 5.051 3.275 8.72q-.045.19-.098.38l-1.095-1.095L19 13.38l-2.293-2.293-3.535 3.535 2.293 2.293-2.293 2.293 1.43 1.43q-1.088.545-2.34 1.014L12 21.75l-.263-.098c-6.199-2.315-9.34-6.138-10.224-9.85-.873-3.669.492-7.232 3.275-8.72 2.232-1.194 4.19-.916 5.576-.323m4.93 11.864 2.292 2.293-2.292 2.292 1.414 1.415L19 18.33l2.293 2.293 1.414-1.415-2.293-2.292 2.293-2.293-1.414-1.415L19 15.501l-2.293-2.293z" clip-rule="evenodd"/></svg>