<svg xmlns="http://www.w3.org/2000/svg" fill="none" viewBox="0 0 24 24"><path fill="currentColor" fill-rule="evenodd" d="M5.208 1.25c-.255 0-.5.104-.68.288a.98.98 0 0 0-.278.693l.018 2.019h-.923a1.088 1.088 0 0 0 0 2.176h3.31a1.088 1.088 0 0 0 0-2.176h-.47l-.01-1.056h7.658v13.612H6.176l.01-1.056a1.088 1.088 0 0 0-.031-2.176h-2.81a1.088 1.088 0 0 0 0 2.176h.923l-.018 2.019a.98.98 0 0 0 .278.693c.18.184.425.288.68.288h2.576l3.68 2.3.911 1.366a.75.75 0 0 0 .806.312l8-2a.75.75 0 0 0 .489-1.063l-1.92-3.84q.01-.486.038-1.07l.005-.13c.022-.504.044-1.05.04-1.597-.006-1.07-.11-2.255-.585-3.208-.31-.62-.499-1.173-.499-1.764V4.429c0-.651-.528-1.179-1.178-1.179-.673 0-1.298.2-1.821.543v-1.57a.965.965 0 0 0-.958-.973zm2.454 6.108H3.338a1.088 1.088 0 0 0 0 2.176h4.324a1.088 1.088 0 1 0 0-2.176m-4.324 3.108h3.324a1.088 1.088 0 1 1 0 2.176H3.338a1.088 1.088 0 0 1 0-2.176m7.412 3.784h-1.5v1.5h1.5z" clip-rule="evenodd"/></svg>