<svg xmlns="http://www.w3.org/2000/svg" fill="none" viewBox="0 0 24 24"><path fill="currentColor" fill-rule="evenodd" d="M17.32 3.84c-1.112-1.895-3.722-2.025-5.372-.768a31 31 0 0 1-3.494 2.303A31 31 0 0 1 4.68 7.2c-1.93.777-3.135 3.08-2.017 4.985q.22.373.523.663c-1.665 1.02-2.5 3.31-1.513 5.182.62 1.178 1.883 1.942 3.252 1.67l.184-.038c-.597-2.39 1.034-4.753 3.115-5.59a30 30 0 0 0 3.624-1.753 30 30 0 0 0 3.353-2.21c1.643-1.252 4.203-1.515 5.989-.226.286-.31.582-.651.868-1.02.845-1.093.894-2.594.277-3.766-1.025-1.946-3.339-2.267-4.988-1.21zm-3.535 2.68c.493.229.82.235 1.009.181l.414 1.439c-.655.187-1.369.056-2.058-.264l-.006-.002c-.207-.098-.306-.095-.332-.092-.016.002-.043.006-.1.059a1.5 1.5 0 0 0-.247.354 9 9 0 0 0-.255.519l-.055.116c-.2.426-.496 1.058-1.011 1.446a1.8 1.8 0 0 1-1.042.37c-.395.013-.8-.093-1.21-.287a1 1 0 0 0-.339-.107 1 1 0 0 0-.113.236 6 6 0 0 0-.128.414l-.022.077a10 10 0 0 1-.13.442c-.11.343-.284.798-.64 1.14l-1.04-1.079c.07-.067.154-.213.252-.517.039-.12.073-.243.111-.38l.025-.087c.046-.164.1-.35.165-.527.12-.325.341-.807.835-1.06.526-.27 1.109-.16 1.654.09l.007.004c.267.126.432.148.522.145a.3.3 0 0 0 .189-.068c.17-.128.328-.4.56-.894l.046-.098c.09-.194.193-.414.304-.615.13-.237.3-.5.529-.719.24-.228.556-.413.955-.46.387-.046.774.046 1.15.224m7.545 5.35c-1.112-1.894-3.722-2.024-5.372-.767a31 31 0 0 1-3.493 2.303 31 31 0 0 1-3.775 1.826c-1.93.776-3.135 3.078-2.016 4.985.743 1.266 2.302 1.863 3.761 1.357a32.4 32.4 0 0 0 5.368-2.442 32 32 0 0 0 4.835-3.354 3.06 3.06 0 0 0 .692-3.908" clip-rule="evenodd"/></svg>