<svg xmlns="http://www.w3.org/2000/svg" fill="none" viewBox="0 0 24 24"><path fill="currentColor" fill-rule="evenodd" d="M14.055 16.002H14c-.697 0-1.045 0-1.329.086a2 2 0 0 0-1.334 1.334c-.08.264-.086.584-.086 1.189a24 24 0 0 1-4.256.39l1.545-5.404c.923.39 1.82.846 2.575 1.3l.68.407 6.417-12.1-1.327-.698-5.686 10.71a22 22 0 0 0-3.863-1.66c-.79-.246-1.578-.427-2.295-.491-.702-.063-1.418-.023-2.008.251-.69.32-1.104 1.02-1.35 1.691-.259.702-.395 1.534-.426 2.35-.03.819.045 1.663.24 2.394.186.7.518 1.432 1.11 1.85.559.394 1.319.612 2.092.738.791.128 1.682.171 2.566.161a26 26 0 0 0 4.084-.382 2 2 0 0 0 1.322 1.297c.284.085.632.085 1.33.085h4c.698 0 1.046 0 1.33-.085a2 2 0 0 0 1.334-1.334c.086-.284.086-.633.086-1.33s0-1.045-.086-1.33a2 2 0 0 0-1.334-1.333c-.284-.086-.632-.086-1.33-.086h-2.236L22.75 3.208 21.428 2.5z" clip-rule="evenodd"/></svg>