<svg xmlns="http://www.w3.org/2000/svg" fill="none" viewBox="0 0 24 24"><path fill="currentColor" fill-rule="evenodd" d="M6.52 2H1.505v20H6.52v-2H3.511V4h3.01zm16.05 20V2h-5.015v2h3.009v16h-3.01v2zM7.022 12c0-1.25.732-2 1.705-2 .117 0 .325.058.628.278.294.213.595.518.876.858.252.306.47.615.632.864-.162.249-.38.559-.632.864-.281.34-.582.645-.876.858-.303.22-.511.278-.628.278-.973 0-1.705-.75-1.705-2m6.82.864a10 10 0 0 1-.631-.864c.162-.249.38-.559.632-.864.28-.34.582-.645.875-.858.304-.22.512-.278.629-.278.973 0 1.705.75 1.705 2s-.732 2-1.705 2c-.117 0-.325-.058-.629-.278a5 5 0 0 1-.875-.858m-2.063 1.272q.136-.165.258-.325.122.161.258.325c.338.41.761.855 1.244 1.204.473.343 1.094.66 1.808.66 2.35 0 3.711-1.936 3.711-4s-1.36-4-3.711-4c-.714 0-1.335.317-1.808.66-.483.35-.906.794-1.244 1.204q-.136.165-.258.325a11 11 0 0 0-.258-.325c-.339-.41-.762-.855-1.244-1.204C10.062 8.317 9.44 8 8.727 8c-2.35 0-3.711 1.936-3.711 4s1.36 4 3.71 4c.715 0 1.336-.317 1.809-.66.482-.35.905-.794 1.244-1.204" clip-rule="evenodd"/></svg>