<svg xmlns="http://www.w3.org/2000/svg" fill="none" viewBox="0 0 24 24"><path fill="currentColor" fill-rule="evenodd" d="M2 1.25a.75.75 0 0 0-.75.75l.001 19.512a.75.75 0 0 0 1.104.662l3.392-1.814 3.872 2.286a.75.75 0 0 0 .762 0l3.873-2.286 3.392 1.814a.75.75 0 0 0 1.104-.662V8.75h4V4A2.75 2.75 0 0 0 20 1.25zM18.75 4a1.25 1.25 0 1 1 2.5 0v3.25h-2.5zM6 6.75h8v-1.5H6zm0 2.5h3v1.5H6zm4.25 2.438c0-.956.666-1.671 1.5-1.943V9h1.5v.743c.61.197 1.12.63 1.36 1.226l-1.39.562c-.078-.192-.334-.406-.72-.406-.511 0-.75.343-.75.563s.239.562.75.562c1.145 0 2.25.832 2.25 2.063 0 .955-.666 1.67-1.5 1.942V17h-1.5v-.743c-.61-.197-1.12-.63-1.36-1.226l1.39-.562c.078.192.334.406.72.406.511 0 .75-.343.75-.562s-.239-.563-.75-.563c-1.145 0-2.25-.832-2.25-2.062" clip-rule="evenodd"/></svg>