<svg xmlns="http://www.w3.org/2000/svg" fill="none" viewBox="0 0 24 24"><path fill="currentColor" fill-rule="evenodd" d="M9.144 1.5H1.5v7.644h2V3.5h5.644zm5.712 2H20.5v5.644h2V1.5h-7.644zm7.644 19v-7.644h-2V20.5h-5.644v2zm-19-7.644V20.5h5.644v2H1.5v-7.644zM1.5 13h21v-2h-3.823A6.7 6.7 0 0 0 17.4 7.95a.75.75 0 0 0-1.05-.15 2.25 2.25 0 0 1-3.6-1.8.75.75 0 0 0-.75-.75A6.75 6.75 0 0 0 5.324 11H1.5zM12 16.818a4.82 4.82 0 0 1-4.176-2.412l-1.67.966a6.75 6.75 0 0 0 5.847 3.374c2.5 0 4.68-1.359 5.846-3.374l-1.67-.966a4.82 4.82 0 0 1-4.176 2.412" clip-rule="evenodd"/></svg>