<svg xmlns="http://www.w3.org/2000/svg" fill="none" viewBox="0 0 24 24"><path fill="currentColor" fill-rule="evenodd" d="M7.241 1.91a.95.95 0 0 1 .918-.66h6.682c.426 0 .8.27.918.66l.852 2.84H21a.75.75 0 0 1 .75.75v5.463a3.75 3.75 0 0 0-4.87 2.551l-.997.5A3.75 3.75 0 1 0 14.5 21.25l.575.5H2a.75.75 0 0 1-.75-.75V5.5A.75.75 0 0 1 2 4.75h4.39zm1.134 2.84h6.25l-.504-1.682H8.879zm12.125 7.5a2.25 2.25 0 0 0-2.25 2.25v.007l-2.394 1.197a2.25 2.25 0 1 0 0 3.592l2.394 1.197v.007a2.25 2.25 0 1 0 .894-1.796l-2.394-1.197v-.014l2.394-1.197A2.25 2.25 0 1 0 20.5 12.25" clip-rule="evenodd"/></svg>