<svg xmlns="http://www.w3.org/2000/svg" fill="none" viewBox="0 0 24 24"><path fill="currentColor" fill-rule="evenodd" d="M7.241 2.41a.95.95 0 0 1 .918-.66h6.682c.426 0 .8.27.918.66l.852 2.84H21a.75.75 0 0 1 .75.75v8.027A5.23 5.23 0 0 0 19 13.25h-3a5.25 5.25 0 0 0-3.674 9H2a.75.75 0 0 1-.75-.75V6A.75.75 0 0 1 2 5.25h4.39zm1.134 2.84h6.25l-.504-1.682H8.879zm7.625 11a2.25 2.25 0 0 0 0 4.5v1.5a3.75 3.75 0 1 1 0-7.5zm3-1.5a3.75 3.75 0 1 1 0 7.5v-1.5a2.25 2.25 0 0 0 0-4.5zm-3 3h3v1.5h-3z" clip-rule="evenodd"/></svg>