<svg xmlns="http://www.w3.org/2000/svg" fill="none" viewBox="0 0 24 24"><path fill="currentColor" fill-rule="evenodd" d="M4 2.25a2.75 2.75 0 1 0 .583 5.438c.786.828.881 1.348.838 1.697-.057.464-.366.904-.877 1.615-.464.647-1.056 1.48-1.237 2.555-.188 1.113.076 2.362 1.029 3.85l.154.24.276.078c2.661.74 4.824 1.056 7.058 1.025 2.223-.032 4.485-.408 7.332-1.015l.594-.126V17c0-1.605-.27-2.505-.772-3.347-.174-.294-.38-.585-.587-.876l-.187-.265a14 14 0 0 1-.894-1.441c-.23-.43-.222-.817-.061-1.167a4 4 0 0 1-1.092-4.015c-2.309 1.032-3.87 2.829-4.802 4.83-.987 2.121-1.278 4.496-1.01 6.495-1.508-.092-3.065-.364-4.895-.86-.674-1.134-.767-1.94-.664-2.55.116-.69.498-1.263.977-1.93l.086-.119c.422-.584.954-1.32 1.06-2.187.108-.867-.207-1.718-.971-2.617a2.75 2.75 0 0 0 .702-1.179 4.15 4.15 0 0 1 1.554.606C8.85 6.806 9.25 7.354 9.25 8h1.5c0-1.354-.858-2.306-1.737-2.878-.766-.5-1.668-.795-2.363-.859A2.75 2.75 0 0 0 4 2.25m16 2a2.75 2.75 0 1 0 0 5.5 2.75 2.75 0 0 0 0-5.5m.137 16.488c-6.542 1.22-10.213 1.478-16.315-.008l.355-1.458c5.824 1.419 9.264 1.19 15.685-.008z" clip-rule="evenodd"/></svg>