<svg xmlns="http://www.w3.org/2000/svg" fill="none" viewBox="0 0 24 24"><path fill="currentColor" fill-rule="evenodd" d="m2.25 22.75.001-21.5h10.11l7.389 7.38V12H8.5v3.333H5v2A3.667 3.667 0 0 0 8.667 21H19.75v1.75zM17.8 9.46l-6.238-6.255V9.46zm-6.55 7.79v-4h-1.5v4a1 1 0 0 1-1 1h-.083a.917.917 0 0 1-.917-.917v-.75h-1.5v.75a2.417 2.417 0 0 0 2.417 2.417h.083a2.5 2.5 0 0 0 2.5-2.5m2.75-4h-2.25v6.5h1.5v-2H14a2.25 2.25 0 0 0 0-4.5m0 3h-.75v-1.5H14a.75.75 0 0 1 0 1.5m7.75-3h-5v6.5h5v-4h-2.5v1.5h1v1h-2v-3.5h3.5z" clip-rule="evenodd"/></svg>