<svg xmlns="http://www.w3.org/2000/svg" fill="none" viewBox="0 0 24 24"><path fill="currentColor" fill-rule="evenodd" d="M21.25 12a2.75 2.75 0 0 1-1.443 2.42l2.551 1.91a.98.98 0 0 1 .392.783v5.637h-1.955v-5.148l-4.468-3.347a5.5 5.5 0 0 1-1.478 1.58l1.595 6.912H7.566l1.541-6.944a5.5 5.5 0 0 1-1.434-1.547l-4.468 3.346v5.148H1.25v-5.637c0-.308.145-.598.392-.782l2.551-1.91a2.75 2.75 0 0 1-.879-4.09 3.25 3.25 0 0 1 1.999-5.008c.211-1.122.939-2.081 1.952-2.771C8.475 1.728 10.129 1.25 12 1.25s3.525.478 4.735 1.302c1.013.69 1.741 1.649 1.952 2.771a3.25 3.25 0 0 1 1.999 5.008c.353.462.564 1.041.564 1.669M12 15.25c-1.999 0-3.75-1.826-3.75-4.25 0-.951.183-1.986.537-2.754.364-.79.793-1.088 1.213-1.088h.003c.02-.001.052-.002.389.33.287.283.783.762 1.608.762s1.321-.479 1.608-.762c.337-.332.369-.331.389-.33H14c.419 0 .849.298 1.213 1.088.354.768.537 1.803.537 2.754 0 2.424-1.751 4.25-3.75 4.25" clip-rule="evenodd"/></svg>