<svg xmlns="http://www.w3.org/2000/svg" fill="none" viewBox="0 0 24 24"><path fill="currentColor" fill-rule="evenodd" d="M5.38 1.25s.552.831.579.875a12 12 0 0 1 .813 1.536c.192.448.373.974.43 1.482.031.283.029.612-.067.93l.776.776c3.412-3.282 8.08-5.247 13.034-4.403l.525.089.089.524c.844 4.955-1.122 9.622-4.403 13.035l.772.771c.317-.096.646-.098.93-.067.507.057 1.033.238 1.481.43a11 11 0 0 1 1.537.813l.65.43.002.002.222.147-4.13 4.13c-.004-.008-.066-.1-.147-.222v-.002l-.002-.002-.43-.648a12 12 0 0 1-.813-1.537c-.192-.448-.373-.974-.43-1.482a2.3 2.3 0 0 1 .068-.932l-.793-.793C12.502 20.295 7.68 22.157 3 21.675l-.607-.063-.063-.606c-.482-4.68 1.38-9.504 4.543-13.075l-.797-.797a2.3 2.3 0 0 1-.932.068c-.508-.057-1.034-.238-1.482-.43a11 11 0 0 1-1.537-.813c-.029-.018-.402-.266-.651-.431L1.25 5.38zm4.312 9.501-.7.7a2.518 2.518 0 1 0 3.561 3.562l.7-.7zm4.622 2.501.702-.702a2.519 2.519 0 0 0-3.561-3.562l-.703.702zM6.004 17a1 1 0 0 1 1-1h.009a1 1 0 1 1 0 2h-.01a1 1 0 0 1-1-1m11-11a1 1 0 1 0 0 2h.009a1 1 0 1 0 0-2z" clip-rule="evenodd"/></svg>