<svg xmlns="http://www.w3.org/2000/svg" fill="none" viewBox="0 0 24 24"><path fill="currentColor" fill-rule="evenodd" d="M13 2.944V1.625h-2v1.32c-2.67.371-4.874 2.209-5.721 4.68H2a1 1 0 0 0-1 1v6a1 1 0 0 0 .293.707l3 3 .143-.143-.189 3.394a.75.75 0 0 0 .75.792h14a.75.75 0 0 0 .75-.791l-.396-7.115a4.7 4.7 0 0 0 1.389-.644c1.222-.839 2.256-2.42 2.256-5.2a1 1 0 0 0-1-1h-3.272c-.847-2.472-3.053-4.31-5.724-4.681M3 9.625h1.912l-.342 6.156L3 14.21zm16.235 2.763-.153-2.763h1.854c-.196 1.511-.827 2.207-1.328 2.55a2.6 2.6 0 0 1-.373.213m-7.234-7.61a5.17 5.17 0 0 0-4.753 3.097h9.506a5.17 5.17 0 0 0-4.753-3.097M12 12.125c0 .808-.112 1.27-.236 1.565-.123.297-.282.494-.532.795l-.017.02c-.248.297-.58.695-.826 1.285-.251.604-.389 1.343-.389 2.335h2c0-.808.112-1.27.236-1.565.123-.296.282-.494.532-.795l.017-.02c.248-.297.58-.695.826-1.285.251-.604.389-1.343.389-2.335z" clip-rule="evenodd"/></svg>