<svg xmlns="http://www.w3.org/2000/svg" fill="none" viewBox="0 0 24 24"><path fill="currentColor" fill-rule="evenodd" d="M11.825 1.251C5.968 1.345 1.25 6.121 1.25 12c0 5.937 4.813 10.75 10.75 10.75S22.75 17.937 22.75 12c0-5.217-3.716-9.566-8.646-10.544a19 19 0 0 0-1.535 1.122l-.012.01-.01.007c-.74.566-.85 1.143-.778 1.578.083.507.421.892.661 1.009.166.08.439.09.764.023a3 3 0 0 0 .476-.142l.023-.01v.002l.004.009.303.673.307.685h-.002l-.002.001-.005.003-.016.007a3 3 0 0 1-.22.084c-.14.05-.337.11-.566.157-.429.088-1.106.157-1.723-.144-.715-.348-1.328-1.169-1.484-2.112-.167-1.012.192-2.126 1.336-3.006zM6.75 9.001c0-.69.56-1.25 1.25-1.25h.009a1.25 1.25 0 1 1 0 2.5H8c-.69 0-1.25-.56-1.25-1.25m7.991 0c0-.69.56-1.25 1.25-1.25H16a1.25 1.25 0 1 1 0 2.5h-.009c-.69 0-1.25-.56-1.25-1.25m.66 5.55a4.24 4.24 0 0 1-3.4 1.7 4.24 4.24 0 0 1-3.401-1.7l-1.2.9a5.74 5.74 0 0 0 4.6 2.3 5.74 5.74 0 0 0 4.6-2.3z" clip-rule="evenodd"/></svg>