<svg xmlns="http://www.w3.org/2000/svg" fill="none" viewBox="0 0 24 24"><path fill="currentColor" fill-rule="evenodd" d="M1.25 12C1.25 6.063 6.063 1.25 12 1.25S22.75 6.063 22.75 12q0 .236-.01.47a5 5 0 0 0-.543-.421c-1.057-.713-2.372-1.064-3.137-1.26a1.25 1.25 0 0 0-1.31 1.961c.442.59.419.997.379 1.71l-.004.062c-.02.37-.052.94.134 1.53.201.643.612 1.19 1.246 1.66.375.278.813.447 1.263.51A10.74 10.74 0 0 1 12 22.75c-3.619 0-6.82-1.788-8.768-4.529a2.7 2.7 0 0 0 1.263-.51c.634-.47 1.045-1.016 1.246-1.659.186-.59.154-1.16.134-1.53l-.004-.062c-.04-.713-.063-1.12.379-1.71a1.25 1.25 0 0 0-1.31-1.96c-.765.195-2.08.546-3.137 1.259a5 5 0 0 0-.543.421 11 11 0 0 1-.01-.47M12 18a4 4 0 0 0 4-4H8a4 4 0 0 0 4 4M7.75 9.5a.75.75 0 0 1 1.5 0h1.5a2.25 2.25 0 0 0-4.5 0zm7 0a.75.75 0 0 1 1.5 0h1.5a2.25 2.25 0 0 0-4.5 0zM5.25 12c-1.555.399-4.459 1.234-3.938 3.782.268 1.26 1.675 1.493 2.438.926.958-.712.917-1.417.871-2.213-.042-.731-.089-1.538.629-2.495m17.438 3.782c.521-2.548-2.383-3.383-3.938-3.782.718.957.671 1.764.629 2.495-.046.796-.087 1.501.871 2.213.764.567 2.17.334 2.438-.926" clip-rule="evenodd"/></svg>