<svg xmlns="http://www.w3.org/2000/svg" fill="none" viewBox="0 0 24 24"><path fill="currentColor" fill-rule="evenodd" d="M12.002 1.25c-1.94 0-3.46.83-4.81 1.563l-.05.027c-1.39.76-2.6 1.408-4.13 1.408h-.59l-.14.578c-2.07 8.803 2.07 16.284 9.56 17.89l.16.034.16-.034c7.49-1.606 11.63-9.087 9.56-17.89l-.14-.578h-.59c-1.53 0-2.74-.647-4.13-1.407l-.04-.025c-1.35-.734-2.87-1.566-4.82-1.566m-.53 5.72a.75.75 0 0 1 1.06 0l4 4c.3.293.3.768 0 1.061l-2.5 2.5a.75.75 0 0 1-1.06 0l-1.29-1.295-2.97 2.971-1.42-1.414 2.97-2.972-1.29-1.29a.756.756 0 0 1 0-1.061z" clip-rule="evenodd"/></svg>