<svg xmlns="http://www.w3.org/2000/svg" fill="none" viewBox="0 0 24 24"><path fill="currentColor" fill-rule="evenodd" d="M2.75 4.218c0-.535.43-.968.962-.968H9.48c.218 0 .43.075.6.212l4.808 3.871a.97.97 0 0 1 .361.756v6.624a3.75 3.75 0 0 0-5 3.537h-2.5a3.75 3.75 0 0 0-5-3.537zm10.576 4.336v2.696H9.874l-2.775-3.7a.75.75 0 0 0-.6-.3H4.672V5.186h4.47zM18.499 12l.001-8h2l-.001 13H22.5v2h-3.001a1 1 0 0 1-1-1v-4H16.5v-2zM6.5 18.25a2.5 2.5 0 1 1-5 0 2.5 2.5 0 0 1 5 0m7.5-2.5a2.5 2.5 0 1 0 0 5 2.5 2.5 0 0 0 0-5" clip-rule="evenodd"/></svg>