<svg xmlns="http://www.w3.org/2000/svg" fill="none" viewBox="0 0 24 24"><path fill="currentColor" fill-rule="evenodd" d="M11.356 20.445a18 18 0 0 1-3.344-2.24C6.2 16.66 4.25 14.28 4.25 11.167 4.25 6.814 7.7 3.25 12 3.25s7.75 3.564 7.75 7.916c0 3.114-1.95 5.494-3.762 7.04a18 18 0 0 1-3.344 2.24L12 20.75zM15 11a3 3 0 1 1-6 0 3 3 0 0 1 6 0M3.749 14.602a9.03 9.03 0 0 1 0-7.202l-1.833-.8a11.03 11.03 0 0 0 0 8.801zM20.25 7.4a9.03 9.03 0 0 1 0 7.202l1.833.8a11.03 11.03 0 0 0 0-8.802z" clip-rule="evenodd"/></svg>