<svg xmlns="http://www.w3.org/2000/svg" fill="none" viewBox="0 0 24 24"><path fill="currentColor" fill-rule="evenodd" d="M13 3v5.126l.069.018 2.564-4.44 1.732 1-2.564 4.44.052.052 4.44-2.563 1 1.732-4.438 2.562.019.073H21v2h-5.126l-.019.07 4.438 2.563-1 1.732-4.439-2.563-.052.052 2.565 4.443-1.732 1-2.564-4.442-.071.019V21h-2v-5.126l-.073-.02-2.562 4.438-1.732-1 2.563-4.44-.051-.05-4.44 2.563-1-1.732 4.44-2.564L8.126 13H3v-2h5.126l.02-.071-4.441-2.564 1-1.732 4.441 2.564.051-.05-2.562-4.439 1.732-1 2.562 4.437.071-.019V3zm.687 10.075a2 2 0 0 1-2.606.702l-.157-.09a1.998 1.998 0 0 1-.019-3.36l.196-.114a2 2 0 0 1 2.602.739l.059.1c.152.282.238.605.238.948 0 .332-.08.645-.224.92z" clip-rule="evenodd"/></svg>