<svg xmlns="http://www.w3.org/2000/svg" fill="none" viewBox="0 0 24 24"><path fill="currentColor" fill-rule="evenodd" d="M2.227 1.25a.975.975 0 0 0-.977.974v16.552c0 .538.438.974.977.974H10v-1.947H3.205v-10.7L12 11.5l8.796-4.398V11h1.954V2.224a.975.975 0 0 0-.977-.974zM14.16 17.5a3.34 3.34 0 0 1 6.682 0v.477a.477.477 0 0 1-.955 0V17.5a2.386 2.386 0 1 0-1.265 2.107 2.386 2.386 0 0 0 4.13-1.63V17.5a5.25 5.25 0 1 0-5.251 5.25v-1.91a3.34 3.34 0 0 1-3.34-3.34m3.341-.477a.477.477 0 1 1 0 .954.477.477 0 0 1 0-.954" clip-rule="evenodd"/></svg>