<svg xmlns="http://www.w3.org/2000/svg" fill="none" viewBox="0 0 24 24"><path fill="currentColor" fill-rule="evenodd" d="M9.218 21.848c.436.25.8.44 1.058.568l.722.334.722-.334a21 21 0 0 0 1.426-.783c-1.163-1.136-2.394-2.868-2.394-5.165q.001-.758.161-1.469a4 4 0 1 1 4.015-4.743 6.8 6.8 0 0 1 2.574-.506c1.172 0 2.276.298 3.238.822-.208-5.183-4.49-9.322-9.742-9.322-5.385 0-9.75 4.35-9.75 9.718 0 3.823 2.46 6.755 4.77 8.673 1.167.97 2.33 1.71 3.2 2.207m7.755.66a11.8 11.8 0 0 1-2.201-1.43c-1.185-.98-2.52-2.537-2.52-4.61 0-2.882 2.35-5.218 5.25-5.218s5.25 2.336 5.25 5.218c0 2.073-1.336 3.63-2.52 4.61a11.8 11.8 0 0 1-2.202 1.43l-.528.242zM15.502 16.5c0-1.105.892-2 1.994-2h.012c1.1 0 1.994.895 1.994 2s-.893 2-1.994 2h-.012a1.997 1.997 0 0 1-1.994-2" clip-rule="evenodd"/></svg>