<svg xmlns="http://www.w3.org/2000/svg" fill="none" viewBox="0 0 24 24"><path fill="currentColor" fill-rule="evenodd" d="M11.25 6.848c0-3.113 2.596-5.598 5.75-5.598s5.75 2.485 5.75 5.598c0 1.786-.75 3.175-2.139 4.357-.849.722-2.367 2.3-2.991 3.217a.75.75 0 0 1-1.253-.02c-.58-.913-2.115-2.463-2.978-3.197-1.39-1.182-2.139-2.57-2.139-4.357m3.5.152a2.25 2.25 0 1 0 4.5 0 2.25 2.25 0 0 0-4.5 0M3.248 12.877A8.8 8.8 0 0 1 10 3.432V1.437C5.019 2.373 1.25 6.746 1.25 12c0 5.937 4.813 10.75 10.75 10.75 5.254 0 9.627-3.769 10.564-8.75h-1.997a8.8 8.8 0 0 1-1.461 3.185c-1.439.218-3.37-.274-4.157-.548-1.086-.293-2.89-1.655-3.657-2.3-1.079-.786-2.192-1.323-2.649-1.508-1.98-.984-4.422-.378-5.395.048" clip-rule="evenodd"/></svg>