<svg xmlns="http://www.w3.org/2000/svg" fill="none" viewBox="0 0 24 24"><path fill="currentColor" fill-rule="evenodd" d="M1.25 12C1.25 6.063 6.063 1.25 12 1.25S22.75 6.063 22.75 12 17.937 22.75 12 22.75c-2.608 0-5-.929-6.862-2.474l5.277-5.277 5.077 5.077a8.798 8.798 0 0 0-3.49-16.871A8.8 8.8 0 0 0 3.926 8.51L9 13.585 3.724 18.86A10.7 10.7 0 0 1 1.25 12m8-2.768c0-2.254 1.96-3.982 4.25-3.982s4.25 1.728 4.25 3.982c0 1.29-.576 2.285-1.59 3.106-.585.474-1.63 1.511-2.05 2.098a.75.75 0 0 1-1.234-.02c-.181-.272-.53-.665-.938-1.073-.399-.4-.814-.775-1.098-1.005-1.014-.821-1.59-1.816-1.59-3.106M12 9.5c0-.828.669-1.5 1.493-1.5h.014C14.33 8 15 8.672 15 9.5s-.669 1.5-1.493 1.5h-.014A1.497 1.497 0 0 1 12 9.5" clip-rule="evenodd"/></svg>