<svg xmlns="http://www.w3.org/2000/svg" fill="none" viewBox="0 0 24 24"><path fill="currentColor" fill-rule="evenodd" d="M1.25 12C1.25 6.063 6.063 1.25 12 1.25S22.75 6.063 22.75 12 17.937 22.75 12 22.75c-2.608 0-5-.929-6.862-2.474l5.277-5.277 5.077 5.077a8.798 8.798 0 0 0-3.49-16.871A8.8 8.8 0 0 0 3.926 8.51L9 13.585 3.724 18.86A10.7 10.7 0 0 1 1.25 12m11.755 2.593a9.3 9.3 0 0 1-1.745-1.173c-.937-.803-2.012-2.093-2.012-3.82 0-2.382 1.883-4.35 4.25-4.35s4.25 1.968 4.25 4.35c0 1.727-1.075 3.017-2.012 3.82a9.3 9.3 0 0 1-1.745 1.173l-.493.232zM11.998 9.5c0-.828.669-1.5 1.493-1.5h.014c.824 0 1.493.672 1.493 1.5 0 .829-.668 1.5-1.493 1.5h-.014a1.497 1.497 0 0 1-1.493-1.5" clip-rule="evenodd"/></svg>