<svg xmlns="http://www.w3.org/2000/svg" fill="none" viewBox="0 0 24 24"><path fill="currentColor" fill-rule="evenodd" d="m11.93 19.499-3.18-1.366V1.25l5.5 2.36V13a6.24 6.24 0 0 0-2.5 5c0 .517.063 1.019.18 1.499m10.82-5.561v-9.19a.75.75 0 0 0-.75-.75h-6.25v8.17A6.2 6.2 0 0 1 18 11.75c1.901 0 3.604.849 4.75 2.188M7.25 1.297 1.658 4.164a.75.75 0 0 0-.408.667v14.17a.75.75 0 0 0 .987.71l5.013-1.667zm9.079 14.394a2.85 2.85 0 0 1 4.457 1.705l-.439-.234-.894 1.676 1.78.95a.95.95 0 0 0 1.367-.601q.148-.572.15-1.187a4.75 4.75 0 0 0-7.537-3.847zm-1.562.52a.95.95 0 0 0-1.367.602q-.148.572-.15 1.187a4.75 4.75 0 0 0 7.458 3.903l-1.084-1.56a2.85 2.85 0 0 1-4.41-1.738l.439.233.894-1.676z" clip-rule="evenodd"/></svg>