<svg xmlns="http://www.w3.org/2000/svg" fill="none" viewBox="0 0 24 24"><path fill="currentColor" fill-rule="evenodd" d="M5.25 2.179c0-.513.432-.929.964-.929h11.572c.532 0 .964.416.964.929V7.25H19a.75.75 0 0 1 .75.75v14a.75.75 0 0 1-.75.75H5a.75.75 0 0 1-.75-.75V8A.75.75 0 0 1 5 7.25h.25zM7.179 7.25H8.25V4h1.5v3.25h1.5V4h1.5v3.25h1.5V4h1.5v3.25h1.071V3.107H7.18zM12.18 19.5c1.834 0 3.32-1.41 3.32-3.15 0-1.277-.696-2.06-1.399-2.854-.72-.81-1.447-1.63-1.447-2.996-2.134 1.125-1.82 4.5-1.82 4.5l-1.972-1.687c-1.107 2.812.416 6.187 3.318 6.187" clip-rule="evenodd"/></svg>