<svg xmlns="http://www.w3.org/2000/svg" fill="none" viewBox="0 0 24 24"><path fill="currentColor" fill-rule="evenodd" d="M13.542 2.112a1.194 1.194 0 0 1 1.457-.822c.634.165 1.014.803.843 1.426l-1.789 6.51.78.201.447-1.623.636.166c.917.24 1.465 1.161 1.218 2.061l-.275 1.002.78.2.275-1a.66.66 0 0 1 .807-.457c.917.24 1.465 1.162 1.218 2.062l-.275 1.001.78.201.276-1.001a.5.5 0 0 1 .684-.317l.336.149a1.67 1.67 0 0 1 .95 1.968l-.405 1.474c-.3 1.094-.52 1.896-.737 2.523-.216.624-.42 1.049-.675 1.392-.048.065-.18.187-.393.353-.201.157-.443.329-.68.49a54 54 0 0 1-.926.599l-.095.06-.71 2.02-8.993-2.35.662-2.244-3.393-6.853a1.35 1.35 0 0 1 .474-1.596 1.404 1.404 0 0 1 2.024.414l1.705 2.89zM7 2.75h1.189L6.358 4.58l1.06 1.061 1.832-1.83V5h1.5V1.25H7zm-3.19 6.5 1.83-1.83-1.06-1.061-1.83 1.83V7h-1.5v3.75H5v-1.5z" clip-rule="evenodd"/></svg>