<svg xmlns="http://www.w3.org/2000/svg" fill="none" viewBox="0 0 24 24"><path fill="currentColor" fill-rule="evenodd" d="M11.18 1.281c.57 0 .89 0 1.16.02 3.96.27 7.12 3.4 7.39 7.33.02.27.02.59.02 1.15v.07c0 .56 0 .88-.02 1.15-.27 3.93-3.43 7.06-7.39 7.33-.27.02-.59.02-1.16.02H9.82c-.57 0-.89 0-1.16-.02a7.9 7.9 0 0 1-2.95-.78l-4.27 1.23 1.13-3.97a7.85 7.85 0 0 1-1.3-3.81c-.02-.27-.02-.59-.02-1.15v-.07c0-.56 0-.88.02-1.15.27-3.93 3.43-7.06 7.39-7.33.27-.02.59-.02 1.16-.02zm3.32 10h-8v1.5h8zm-3-4h-5v1.5h5zm.16 15.05a7.99 7.99 0 0 1-6.05-3.45h.01c.91.39 1.91.63 2.95.7.32.02.68.02 1.2.02h1.46c.52 0 .88 0 1.2-.02 4.57-.31 8.23-3.93 8.55-8.49.02-.32.02-.67.02-1.19v-.17c0-.51 0-.87-.02-1.19l-.003-.026c-.01-.113-.019-.232-.038-.343a7.84 7.84 0 0 1 1.79 4.46c.02.27.02.59.02 1.15v.07c0 .56 0 .88-.02 1.15-.1 1.4-.56 2.7-1.3 3.81l1.12 3.97-4.27-1.23c-.89.44-1.89.71-2.94.78-.28.02-.6.02-1.16.02h-1.36c-.57 0-.89 0-1.16-.02" clip-rule="evenodd"/></svg>