<svg xmlns="http://www.w3.org/2000/svg" fill="none" viewBox="0 0 24 24"><path fill="currentColor" fill-rule="evenodd" d="M18.498 1.25c-1.52 0-2.75 1.23-2.75 2.75v.75h-1.5v7h8.5v-7h-5.5V4a1.255 1.255 0 0 1 2.19-.83l1.12-.99c-.5-.57-1.24-.93-2.06-.93M22.748 13h-9.75V3.5h1.53c.05-.41.16-.79.33-1.15-.24-.04-.48-.06-.72-.08-.32-.02-.69-.02-1.35-.02h-1.58c-.66 0-1.03 0-1.35.02-4.6.32-8.27 3.99-8.59 8.59-.02.32-.02.69-.02 1.35v.08c0 .66 0 1.03.02 1.35.12 1.64.65 3.16 1.51 4.46l-1.31 4.65 4.97-1.44c1.04.51 2.2.83 3.42.92.32.02.69.02 1.35.02h1.58c.66 0 1.03 0 1.35-.02 4.6-.32 8.27-3.99 8.59-8.59.01-.18.02-.38.02-.64m-6.25 1.25h-9v1.5h9zm-5.5-5h-3.5v1.5h3.5z" clip-rule="evenodd"/></svg>