<svg xmlns="http://www.w3.org/2000/svg" fill="none" viewBox="0 0 24 24"><path fill="currentColor" fill-rule="evenodd" d="m18.457 7.25-1.293-1.293h5.586v-2h-5.586l1.293-1.293-1.414-1.414-3.707 3.707 3.707 3.707zm-4.212-4.97-.104-.008c-.32-.022-.692-.022-1.351-.022h-1.58c-.659 0-1.03 0-1.35.022a9.25 9.25 0 0 0-8.588 8.588c-.022.32-.022.691-.022 1.35v.08c0 .659 0 1.03.022 1.35a9.2 9.2 0 0 0 1.507 4.455L1.475 22.75l4.962-1.439a9.2 9.2 0 0 0 3.422.917c.32.022.692.022 1.351.022h1.58c.659 0 1.03 0 1.35-.022a9.25 9.25 0 0 0 8.588-8.588c.022-.32.022-.691.022-1.35v-.08c0-.659 0-1.03-.022-1.35a9.2 9.2 0 0 0-1.033-3.653h-1.513l-3.139 3.225-5.475-5.475zM7 11.5h2.009v2H7zm3.996 0h2.008v2h-2.008zm3.995 0H17v2h-2.009z" clip-rule="evenodd"/></svg>