<svg xmlns="http://www.w3.org/2000/svg" fill="none" viewBox="0 0 24 24"><path fill="currentColor" fill-rule="evenodd" d="M14.75 9.25v-2.5l5.5-5.5 2.5 2.5-5.5 5.5zm2.104-6.372a9.2 9.2 0 0 0-2.713-.606c-.32-.022-.692-.022-1.351-.022h-1.58c-.659 0-1.03 0-1.35.022a9.25 9.25 0 0 0-8.588 8.588c-.022.32-.022.691-.022 1.35v.08c0 .659 0 1.03.022 1.35a9.2 9.2 0 0 0 1.507 4.455L1.475 22.75l4.962-1.439a9.2 9.2 0 0 0 3.422.917c.32.022.692.022 1.351.022h1.58c.659 0 1.03 0 1.35-.022a9.25 9.25 0 0 0 8.588-8.588c.022-.32.022-.691.022-1.35v-.08c0-.659 0-1.03-.022-1.35a9.2 9.2 0 0 0-1.26-4.06l-3.7 3.7H13.5V6.232zM7 11.5h2.009v2H7zm3.996 0h2.008v2h-2.008z" clip-rule="evenodd"/></svg>