<svg xmlns="http://www.w3.org/2000/svg" fill="none" viewBox="0 0 24 24"><path fill="currentColor" fill-rule="evenodd" d="m16.043 9.371 6.707-6.707-1.414-1.414-5.293 5.293L14.75 5.25l-1.414 1.414zm1.565-6.16a9.2 9.2 0 0 0-3.468-.939c-.32-.022-.691-.022-1.35-.022h-1.58c-.659 0-1.03 0-1.35.022a9.25 9.25 0 0 0-8.588 8.587c-.022.32-.022.692-.022 1.351v.08c0 .659 0 1.03.022 1.35a9.2 9.2 0 0 0 1.507 4.455L1.475 22.75l4.962-1.439a9.2 9.2 0 0 0 3.422.917c.32.022.692.022 1.351.022h1.58c.659 0 1.03 0 1.35-.022a9.25 9.25 0 0 0 8.588-8.588c.022-.32.022-.692.022-1.35v-.08c0-.659 0-1.03-.022-1.35a9.2 9.2 0 0 0-1.687-4.718l-4.998 4.997-4.475-4.475 3.182-3.182 1.293 1.293zM7 11.5h2.009v2H7zm3.996 0h2.008v2h-2.008z" clip-rule="evenodd"/></svg>