<svg xmlns="http://www.w3.org/2000/svg" fill="none" viewBox="0 0 24 24"><path fill="currentColor" fill-rule="evenodd" d="M13.25 6a4.75 4.75 0 1 1 9.5 0 4.75 4.75 0 0 1-9.5 0m6.78-.97-2 2-1.061-1.061 2-2zm-6.715-2.78a6 6 0 0 0 9.287 7.6q.09.495.126 1.01c.022.32.022.691.022 1.35v.08c0 .659 0 1.03-.022 1.35a9.25 9.25 0 0 1-8.588 8.588c-.32.022-.691.022-1.35.022h-1.58c-.659 0-1.03 0-1.35-.022a9.2 9.2 0 0 1-3.423-.917L1.475 22.75l1.304-4.655a9.2 9.2 0 0 1-1.507-4.454c-.022-.32-.022-.692-.022-1.351v-.08c0-.659 0-1.03.022-1.35A9.25 9.25 0 0 1 9.86 2.272c.32-.022.692-.022 1.351-.022h2.106m-5.815 12v1.5h9v-1.5zm3.5-5H7.5v1.5H11z" clip-rule="evenodd"/></svg>