<svg xmlns="http://www.w3.org/2000/svg" fill="none" viewBox="0 0 24 24"><path fill="currentColor" fill-rule="evenodd" d="m18.46 7.25-1.3-1.29h5.59v-2h-5.59l1.3-1.3-1.42-1.41-3.7 3.71 3.7 3.7zm-4.265-4.975-.055-.005c-.32-.02-.69-.02-1.35-.02h-1.58c-.66 0-1.03 0-1.35.02-4.6.32-8.27 3.99-8.59 8.59-.02.32-.02.69-.02 1.35v.08c0 .66 0 1.03.02 1.35.12 1.64.65 3.16 1.51 4.46l-1.31 4.65 4.97-1.44c1.04.51 2.2.83 3.42.92.32.02.69.02 1.35.02h1.58c.66 0 1.03 0 1.35-.02 4.6-.32 8.27-3.99 8.59-8.59.02-.32.02-.69.02-1.35v-.08c0-.66 0-1.03-.02-1.35a9.2 9.2 0 0 0-1.04-3.65l-1.46.04-3.19 3.18-5.47-5.47 2.68-2.68zM16.5 14.25h-9v1.5h9zm-3.5-5H7.5v1.5H13z" clip-rule="evenodd"/></svg>