<svg xmlns="http://www.w3.org/2000/svg" fill="none" viewBox="0 0 24 24"><path fill="currentColor" fill-rule="evenodd" d="M7.207 2.799c1.303-.712 2.835-1.549 4.795-1.549 1.968 0 3.503.839 4.807 1.552l.059.032c1.365.746 2.492 1.345 3.908 1.345h.774l.177.753c2.044 8.702-2.04 16.17-9.52 17.774l-.205.044-.205-.044C4.317 21.101.232 13.634 2.277 4.932l.177-.753h.774c1.418 0 2.55-.6 3.915-1.345zm-3.18 3.285c-.36 1.835-.415 3.57-.207 5.166h7.432V3.259c-1.093.166-2.056.678-3.173 1.288l-.07.038c-1.117.61-2.404 1.314-3.983 1.5M19.9 12.75c-.96 3.855-3.574 6.69-7.149 7.797V12.75z" clip-rule="evenodd"/></svg>