<svg xmlns="http://www.w3.org/2000/svg" fill="none" viewBox="0 0 24 24"><path fill="currentColor" fill-rule="evenodd" d="M4.25 2A.75.75 0 0 1 5 1.25h10.5a.75.75 0 0 1 .75.75v2.732l2.101 2.518H8.311l-4.06-4.061zm-.308 3.001L1.47 7.47a.75.75 0 0 0-.22.53v14a.75.75 0 0 0 .75.75h5.251V8.31zm10.136 17.75H8.751V8.75h10v2.553a9 9 0 0 0-1.389-.395c-1.59-.318-3.753-.259-5.233 1.221s-1.539 3.643-1.22 5.233a9.73 9.73 0 0 0 2.604 4.87q.277.275.565.518m2.99-10.373c-1.131-.226-2.348-.18-3.277.352l7.882 7.883c.582-.72.999-1.552 1.067-2.481.088-1.208-.423-2.412-1.57-3.559a8.23 8.23 0 0 0-4.103-2.195m-4.338 1.413 7.883 7.882c-.72.582-1.552.999-2.481 1.067-1.208.088-2.412-.423-3.559-1.57a8.23 8.23 0 0 1-2.195-4.103c-.226-1.13-.18-2.347.352-3.276" clip-rule="evenodd"/></svg>