<svg xmlns="http://www.w3.org/2000/svg" fill="none" viewBox="0 0 24 24"><path fill="currentColor" fill-rule="evenodd" d="M5.22 1.25H19a.75.75 0 0 1 .75.75l-.002 5v.091H17.81l.001-3.886H6.188V7.09H4.251V2a.75.75 0 0 1 .75-.75zm12.592 19.546-.002-3.886 1.938-.001v.09l.003 5a.75.75 0 0 1-.75.751H5a.75.75 0 0 1-.75-.75v-5.091h1.938v3.887zM13.5 19h-3v-2h3zm3.793-10.71-1.414 1.413 2.293 2.293-2.293 2.293 1.414 1.414L21 11.996zM8.12 9.71 6.707 8.297 3 12.004l3.707 3.707 1.414-1.414-2.293-2.293z" clip-rule="evenodd"/></svg>