<svg xmlns="http://www.w3.org/2000/svg" fill="none" viewBox="0 0 24 24"><path fill="currentColor" fill-rule="evenodd" d="M13 19v3.75h3.425l3.218-5.364A.75.75 0 0 0 19 16.25H5a.75.75 0 0 0-.643 1.136l3.218 5.364H11V19zm2.45-4h-6.9l1.526-7.25H8.5v-1.5h1.078C9.397 5.871 9.25 5.428 9.25 5c0-.518.184-1.005.403-1.409.222-.41.509-.787.78-1.1a10 10 0 0 1 1.089-1.068l.006-.006a.75.75 0 0 1 .944 0l.006.006c.067.057.246.21.344.3.201.187.472.453.745.768.271.313.558.69.78 1.1.219.404.403.89.403 1.409 0 .428-.147.871-.328 1.25H15.5v1.5h-1.576z" clip-rule="evenodd"/></svg>