<svg xmlns="http://www.w3.org/2000/svg" fill="none" viewBox="0 0 24 24"><path fill="currentColor" fill-rule="evenodd" d="M11 1.25v4h2v-4zm4 1v2h2v-2zm-8 2v2h2v-2zm11.25.055a14 14 0 0 1 2.581.474c.465.132.833.266 1.088.368q.193.078.298.126l.533.263v16.677l-1.388-.673a10 10 0 0 0-.943-.32A12.5 12.5 0 0 0 17 20.75c-1.826 0-3.465.36-4.683.93-1.447.675-3.309 1.07-5.317 1.07-1.121 0-2.659-.006-5.279-1.054l-.471-.189V4.893l1.029.411c1.523.61 2.616.827 3.471.904V7.5h4.5v-1h4v-1h4zM12 10.25a3.25 3.25 0 1 0 0 6.5 3.25 3.25 0 0 0 0-6.5M6.5 13.5h-2v2.009h2zm13-2.008h-2v2.01h2z" clip-rule="evenodd"/></svg>