<svg xmlns="http://www.w3.org/2000/svg" fill="none" viewBox="0 0 24 24"><path fill="currentColor" fill-rule="evenodd" d="M11.47 1.47a.75.75 0 0 1 1.06 0l1.728 1.727 2.619-.437a.75.75 0 0 1 .774 1.112L16.293 6.25H7.708L6.349 3.872a.75.75 0 0 1 .774-1.112l2.62.437zM7.254 7.75h9.492c.72.812 1.52 1.81 2.267 2.915 1.207 1.788 2.316 3.92 2.67 6.047.29 1.75-.382 3.285-1.537 4.357-1.143 1.062-2.764 1.681-4.454 1.681H8.308c-1.69 0-3.311-.62-4.454-1.68-1.155-1.073-1.827-2.608-1.537-4.358.354-2.127 1.463-4.26 2.67-6.047A29 29 0 0 1 7.254 7.75" clip-rule="evenodd"/></svg>