<svg xmlns="http://www.w3.org/2000/svg" fill="none" viewBox="0 0 24 24"><path fill="currentColor" fill-rule="evenodd" d="M12 1.25c-1.943 0-3.463.83-4.806 1.563l-.05.027C5.75 3.6 4.54 4.249 3.014 4.249H2.42l-.136.578c-2.07 8.803 2.065 16.284 9.558 17.89l.158.034.157-.034c7.493-1.606 11.628-9.087 9.559-17.89l-.136-.578h-.594c-1.524 0-2.731-.647-4.123-1.407l-.045-.025C15.474 2.082 13.95 1.25 12 1.25m-1.864 7.59a2.95 2.95 0 0 1 1.114-.506V7.5h1.5v.835c.789.18 1.485.645 1.815 1.345l-1.357.64c-.117-.249-.54-.57-1.208-.57-.406 0-.744.124-.964.29-.22.164-.286.335-.286.46s.066.296.286.46c.22.166.558.29.964.29.699 0 1.36.211 1.864.59.504.377.886.957.886 1.66s-.382 1.283-.886 1.66a2.95 2.95 0 0 1-1.114.506v.834h-1.5v-.835c-.789-.18-1.485-.645-1.815-1.345l1.357-.64c.117.249.54.57 1.208.57.406 0 .744-.124.964-.29.22-.164.286-.335.286-.46s-.066-.296-.286-.46c-.22-.166-.558-.29-.964-.29-.699 0-1.36-.211-1.864-.59-.504-.377-.886-.957-.886-1.66s.382-1.283.886-1.66" clip-rule="evenodd"/></svg>