<svg xmlns="http://www.w3.org/2000/svg" fill="none" viewBox="0 0 24 24"><path fill="currentColor" fill-rule="evenodd" d="m2.662 1.25 20.086 20.086-1.414 1.414-3.47-3.47q-.416-.03-.864-.03c-1.826 0-3.465.36-4.683.93-1.447.675-3.309 1.07-5.317 1.07-1.12 0-2.659-.006-5.279-1.054l-.47-.188V3.392l1.027.412.18.07-1.21-1.21zm6.443 9.271a3.25 3.25 0 0 0 4.374 4.374zm-4.74 1.488-.215 1.484.743.108q.515.075 1.055.112l.748.053.105-1.497-.749-.052a13 13 0 0 1-.944-.1zM17 2.75c1.583 0 2.903.264 3.831.529.465.133.833.266 1.088.368q.193.079.298.127l.533.263v15.18l-7.513-7.514a3.25 3.25 0 0 0-2.94-2.94L8.228 4.696c1.33-.122 2.517-.437 3.455-.875C13.13 3.145 14.991 2.75 17 2.75m.304 7.484L17.2 11.73l.748.053q.485.034.945.1l.742.108.215-1.484-.742-.108q-.516-.075-1.056-.113z" clip-rule="evenodd"/></svg>