<svg xmlns="http://www.w3.org/2000/svg" fill="none" viewBox="0 0 24 24"><path fill="currentColor" fill-rule="evenodd" d="M17 1.75c1.583 0 2.903.264 3.831.529.465.133.833.266 1.088.368q.192.079.298.127l.533.263V16.25h-1v-2.5h-5v2.5h-2.5v2.29a9.4 9.4 0 0 0-1.933.64c-1.447.675-3.309 1.07-5.317 1.07-1.121 0-2.66-.006-5.279-1.054l-.471-.188V2.392l1.029.412c2.366.946 3.694.946 4.703.946H7c1.826 0 3.465-.36 4.683-.93C13.13 2.145 14.992 1.75 17 1.75m-5 6a3.25 3.25 0 1 0 0 6.5 3.25 3.25 0 0 0 0-6.5M6.5 11h-2v2.009h2zm13.75 11.25v-2.5h2.5v-2h-2.5v-2.5h-2v2.5h-2.5v2h2.5v2.5z" clip-rule="evenodd"/></svg>