<svg xmlns="http://www.w3.org/2000/svg" fill="none" viewBox="0 0 24 24"><path fill="currentColor" fill-rule="evenodd" d="M18.25 4.75H5.75v-3.5h12.5zM6.128 6h11.744l2.378 2.718V22.75H3.75V8.718zm5.093 4.32V9.5h1.5v.818q.312.07.593.188c.768.322 1.502.967 1.662 1.861l-1.476.266c-.04-.22-.275-.538-.765-.744-.469-.196-1.018-.216-1.472-.003-.708.332-.863.82-.826 1.081.03.207.24.613 1.14.659q.194.01.424.014c.345.009.73.018 1.053.065.524.075 1.084.26 1.543.757.45.488.743 1.292.628 2.09-.125.876-.723 1.655-1.865 2.018a4 4 0 0 1-.639.149v.781h-1.5v-.825a4 4 0 0 1-.9-.309c-.825-.402-1.571-1.17-1.571-2.183h1.5c0 .216.181.568.729.835a2.64 2.64 0 0 0 1.926.122c.637-.202.798-.538.835-.8.049-.339-.092-.694-.245-.86-.144-.156-.33-.244-.654-.29a6 6 0 0 0-.752-.046c-.17-.004-.362-.008-.587-.02-1.38-.07-2.39-.815-2.55-1.947-.153-1.078.536-2.116 1.675-2.65q.292-.135.594-.206" clip-rule="evenodd"/></svg>