<svg xmlns="http://www.w3.org/2000/svg" fill="none" viewBox="0 0 24 24"><path fill="currentColor" fill-rule="evenodd" d="M22.75 8.75v-4.5h-1.5v4.5zm-7.5 1.896a2.7 2.7 0 0 1-.873-.426 6.75 6.75 0 1 1 0-4.44 2.75 2.75 0 1 1 2.374 4.866l-.001 4.104h-1.5zM16 9.25a1.25 1.25 0 1 1 0-2.5 1.25 1.25 0 0 1 0 2.5m6.75 5.5v-4.5h-1.5v4.5zm-6 4.25v-2.75h-1.5V19q0 .318.052.624l.124.74 1.48-.248-.125-.74A2.3 2.3 0 0 1 16.75 19m6 0v-2.75h-1.5V19q0 .193-.031.376l-.124.74 1.48.248.123-.74q.051-.305.052-.624m-4.5 2.122-.707-.25-.5 1.415.707.25a3.74 3.74 0 0 0 2.5 0l.707-.25-.5-1.415-.707.25a2.25 2.25 0 0 1-1.5 0" clip-rule="evenodd"/></svg>