<svg xmlns="http://www.w3.org/2000/svg" fill="none" viewBox="0 0 24 24"><path fill="currentColor" fill-rule="evenodd" d="M4.001 10.593A5.35 5.35 0 0 1 1.412 4.61a.955.955 0 0 1 1.508-.527c.754.575 1.8.67 2.665.167a2.46 2.46 0 0 0 1.196-2.429A.954.954 0 0 1 7.993.787a5.3 5.3 0 0 1 3.147 2.468c.274.48.467.986.582 1.501a6.25 6.25 0 0 1 6.525 6.047 5.251 5.251 0 0 1 1.152 10.093l.69-1.38-4.472-2.236-.6 1.2-.753-.377.81-1.364h-3l.602-1.013-4.3-2.553-4.317 7.27A5.75 5.75 0 0 1 1.25 15.5c0-2.077 1.1-3.896 2.751-4.907m-.382-2.96a3.4 3.4 0 0 1-.434-1.316c1.09.314 2.302.2 3.363-.418a4.34 4.34 0 0 0 2.035-2.72A3.45 3.45 0 0 1 9.846 5.13a6.27 6.27 0 0 0-3.86 4.162 3.38 3.38 0 0 1-2.367-1.66m5.279 7.594 1.72 1.02-1.182 1.99h3l-2.975 5.01-1.72-1.02 1.181-1.99h-3zm5.887 7.063 1.5-3 1.789.895-1.5 3zm-3 0 1.5-3 1.789.895-1.5 3z" clip-rule="evenodd"/></svg>