<svg xmlns="http://www.w3.org/2000/svg" fill="none" viewBox="0 0 24 24"><path fill="currentColor" fill-rule="evenodd" d="M12.974 20.002c.01-1.736-.721-2.92-1.46-3.658a5.2 5.2 0 0 0-1.007-.785 15 15 0 0 0-.776-.366s-.637.283-.775.366a5.2 5.2 0 0 0-1.007.785c-.74.738-1.47 1.922-1.46 3.658v2.748H1.5V13a.75.75 0 0 1 .748-.75h2.05c-.264-.671-.353-1.312-.278-1.925.116-.952.611-1.714 1.199-2.322.583-.603 1.3-1.098 1.94-1.511q.252-.163.48-.307v-.001c.323-.205.605-.384.845-.555V4.515a1.922 1.922 0 0 1-.436-3.045l1.058 1.06a.421.421 0 0 0 .595.596l1.058 1.061c-.214.215-.48.38-.778.474v.967c.24.171.523.351.845.556l.482.308c.638.413 1.356.908 1.939 1.511.588.608 1.083 1.37 1.198 2.322.075.613-.014 1.254-.279 1.925h3.048a.747.747 0 0 1 .749.75v9a.75.75 0 0 1-.749.75h-4.24zm-7.469-9.495c-.054.444.036 1.012.45 1.743h6.554c.414-.731.505-1.3.45-1.744-.062-.517-.335-.992-.787-1.459-.456-.472-1.05-.89-1.676-1.295q-.2-.13-.408-.26l-.002-.002c-.29-.184-.585-.37-.853-.557-.269.186-.564.374-.854.558l-.409.261c-.626.405-1.22.823-1.677 1.295-.452.467-.725.942-.788 1.46m5.972 12.243v-2.754c.008-1.264-.509-2.08-1.02-2.59a3.8 3.8 0 0 0-.726-.564 3.8 3.8 0 0 0-.725.564c-.511.51-1.028 1.326-1.02 2.59v2.754zm4.201-12.621.22-2.981c-.346-.74-.476-1.425-.415-2.065.066-.696.35-1.266.7-1.731.343-.457.764-.828 1.124-1.128.054-.045.425-.299.773-.537.305-.208.59-.404.632-.437.04.033.327.229.631.437.348.238.72.492.774.537.36.3.78.671 1.124 1.128.35.465.633 1.035.699 1.731.06.641-.07 1.328-.417 2.069L22.5 22.75h-3.436c.093-.232.145-.485.145-.75v-9a2 2 0 0 0-1.995-2H15.71a5 5 0 0 0-.027-.826zm1.463-3.879h3.14c.16-.419.194-.754.169-1.025-.034-.354-.177-.667-.404-.97-.235-.311-.543-.591-.885-.877l-.215-.175-.234-.193-.236.193-.213.175c-.343.286-.651.566-.886.877-.227.303-.37.617-.404.97-.026.27.01.606.169 1.025" clip-rule="evenodd"/></svg>