<svg xmlns="http://www.w3.org/2000/svg" fill="none" viewBox="0 0 24 24"><path fill="currentColor" fill-rule="evenodd" d="M19.604 1.586a.75.75 0 0 0-1.25 0c-.102.157-.327.37-.639.655-.274.25-.62.566-.897.926-.294.382-.56.873-.583 1.475-.021.525.145 1.045.483 1.56l-.44 7.048H3a.75.75 0 0 0-.749.75v8.75h4.994v-1.115c0-.867 0-1.467.177-2.026.118-.369.292-.717.516-1.032.34-.478.82-.838 1.512-1.358l.092-.069a.75.75 0 0 1 .9 0l.09.069c.694.52 1.174.88 1.513 1.358.224.315.398.663.516 1.032.178.559.178 1.159.177 2.026v1.115h9.013l-.516-16.537c.343-.519.511-1.043.49-1.57-.023-.603-.289-1.094-.583-1.476-.277-.36-.623-.675-.897-.926-.312-.285-.536-.498-.64-.655m-1.873 12.437.454-7.273h1.567l.452 14.5h-2.473zm-8.99 7.727v1h2.497v-1c0-1.027-.008-1.377-.106-1.684a2.3 2.3 0 0 0-.31-.62c-.148-.208-.35-.387-.832-.756-.483.37-.685.548-.833.756q-.202.286-.31.62c-.098.307-.106.657-.106 1.684m1.874-18.664a.75.75 0 0 0-1.25 0c-.268.407-.732.84-1.335 1.391l-.05.045c-.558.511-1.206 1.103-1.72 1.77-.535.694-.972 1.529-1.012 2.522-.04 1.002.33 2.045 1.177 3.144a.75.75 0 0 0 .593.292h5.943a.75.75 0 0 0 .593-.292c.847-1.099 1.217-2.142 1.177-3.144-.04-.993-.477-1.828-1.011-2.522-.514-.667-1.162-1.259-1.721-1.77l-.05-.045c-.602-.55-1.066-.984-1.334-1.39" clip-rule="evenodd"/></svg>