<svg xmlns="http://www.w3.org/2000/svg" fill="none" viewBox="0 0 24 24"><path fill="currentColor" fill-rule="evenodd" d="M13.5 4.214h-.75V1.25a6.76 6.76 0 0 1 5.997 6.722 6.8 6.8 0 0 1-.265 1.883c-.4 1.384-.531 3.047-.194 4.364.12.465.278 1.078.424 1.542l.038.12-.003.126C18.65 19.63 15.69 22.75 12 22.75s-6.65-3.119-6.747-6.743l-.003-.126.038-.12c.146-.464.305-1.077.424-1.542.337-1.317.206-2.98-.193-4.364a6.8 6.8 0 0 1-.266-1.883A6.76 6.76 0 0 1 11.25 1.25v2.964h-.75a.75.75 0 0 0-.75.752v4.007a.75.75 0 0 0 .75.752h.75v1.252h1.5V9.725h.75a.75.75 0 0 0 .75-.752V4.966a.75.75 0 0 0-.75-.752m-3 14.527v-1.503h3v1.503zm.75-13.024v2.505h1.5V5.717z" clip-rule="evenodd"/></svg>