<svg xmlns="http://www.w3.org/2000/svg" fill="none" viewBox="0 0 24 24"><path fill="currentColor" fill-rule="evenodd" d="m5.854 2.75-.881-1.5-1.725 1.013.881 1.5zM4.249 4.286l-2 .5.485 1.94 2-.5zm9.25-3.036c-3.2 0-5.355 1.239-6.647 3.337C5.614 6.596 5.25 9.266 5.25 12s.364 5.404 1.602 7.413c1.292 2.098 3.447 3.337 6.648 3.337s5.356-1.239 6.648-3.337c1.238-2.009 1.602-4.679 1.602-7.413s-.364-5.404-1.602-7.413C18.856 2.489 16.7 1.25 13.5 1.25M7.21 11c.085-2.193.468-4.046 1.291-5.383.771-1.252 1.986-2.144 3.999-2.361V5H12a.75.75 0 0 0-.75.75v3c0 .414.336.75.75.75h.5V11zm11.289-5.383c.823 1.337 1.206 3.19 1.291 5.383H14.5V9.5h.5a.75.75 0 0 0 .75-.75v-3A.75.75 0 0 0 15 5h-.5V3.256c2.012.217 3.227 1.109 3.999 2.36" clip-rule="evenodd"/></svg>