<svg xmlns="http://www.w3.org/2000/svg" fill="none" viewBox="0 0 24 24"><path fill="currentColor" fill-rule="evenodd" d="M3 22.75h8.25v-8.31l-1-.8v-1.267c.537.243 1.13.377 1.75.377s1.213-.134 1.75-.377v1.266l-1 .8v8.31H21a.75.75 0 0 0 .75-.75v-5a.75.75 0 0 0-.436-.68l-6.064-2.8v-2.274a4.44 4.44 0 0 0 .986-2.043l.42-2.156C17.239 4.07 15.019 1.25 12 1.25S6.762 4.07 7.343 7.046l.42 2.156c.152.778.5 1.476.987 2.043v2.275l-6.064 2.799a.75.75 0 0 0-.436.68v5c0 .415.336.75.75.75m5.814-15.99-.002-.01h6.374l-.002.01-.42 2.155c-.268 1.371-1.435 2.336-2.765 2.336s-2.497-.965-2.764-2.336z" clip-rule="evenodd"/></svg>