<svg xmlns="http://www.w3.org/2000/svg" fill="none" viewBox="0 0 24 24"><path fill="currentColor" fill-rule="evenodd" d="m20.116 2.733-6.5 1.016-.231-1.483 6.5-1.016zm-14.866.26v.545l-1.365.213.231 1.483 1.134-.178v1.108l-1.296.08.093 1.498 1.203-.075v3.583h-3V12c0 3.254 1.966 6.05 4.82 7.555l-.777 2.2a.75.75 0 0 0 .707 1h10a.75.75 0 0 0 .707-1l-.777-2.2c2.854-1.505 4.82-4.301 4.82-7.555v-.75h-3.085a3.252 3.252 0 0 0-6.33 0H6.75V2.993zm8.665 8.257h3.17a1.75 1.75 0 0 0-3.17 0m6.132-4.508-6.5.406-.093-1.497 6.5-.407zm-9.797-4.75v5.502h1.5V1.992zm-2.5.5v5.002h1.5V2.492z" clip-rule="evenodd"/></svg>