<svg xmlns="http://www.w3.org/2000/svg" fill="none" viewBox="0 0 24 24"><path fill="currentColor" fill-rule="evenodd" d="M10 3H7V1.5H5V3H2a.75.75 0 0 0-.75.75v18c0 .414.336.75.75.75h11.629l-1.414-1.414 2.793-2.793-2.793-2.793 3.535-3.535 2.793 2.793 2.207-2.207V3.75A.75.75 0 0 0 20 3h-3V1.5h-2V3h-3V1.5h-2zm5 7.5H7V9h8zm-4 5H7V14h4zm11.75 0-2.793 2.793 2.793 2.793-1.414 1.414-2.793-2.793L15.75 22.5l-1.414-1.414 2.793-2.793-2.793-2.793 1.414-1.414 2.793 2.793 2.793-2.793z" clip-rule="evenodd"/></svg>