<svg xmlns="http://www.w3.org/2000/svg" fill="none" viewBox="0 0 24 24"><path fill="currentColor" fill-rule="evenodd" d="M3.414 9.5c0-4.556 3.62-8.25 8.086-8.25 1.156 0 2.255.248 3.25.693V6.5h1.465L14.25 8.464V12.5h5.447l2.053 3.665-.46.404c-2.235 1.96-5.82 3.181-9.79 3.181s-7.555-1.22-9.79-3.181l-.46-.404 2.164-3.864zM19.836 5H16.25V3h6.5v1.914L18.664 9h3.586v2h-6.5V9.086zM8.96 20.409c.662.516 1.55.841 2.539.841s1.877-.325 2.538-.841l.923 1.182c-.93.727-2.145 1.159-3.461 1.159s-2.53-.432-3.462-1.159z" clip-rule="evenodd"/></svg>