<svg xmlns="http://www.w3.org/2000/svg" fill="none" viewBox="0 0 24 24"><path fill="currentColor" fill-rule="evenodd" d="M9.25 3.5a2.25 2.25 0 1 1 4.257 1.018q.685.188 1.313.494a5.5 5.5 0 0 0 5.084 9.65l1.164 1.348a.75.75 0 0 1 .182.49v3.25h-5.876a4.002 4.002 0 0 1-7.748 0H1.75V16.5a.75.75 0 0 1 .182-.49l1.976-2.289v-2.25l.001-.02a7.6 7.6 0 0 1 5.584-6.933A2.24 2.24 0 0 1 9.25 3.5m.518 16.25a2 2 0 0 0 3.464 0zm1.732-17a.75.75 0 1 0 0 1.5.75.75 0 0 0 0-1.5m6.5 2.5a4.25 4.25 0 1 0 0 8.5 4.25 4.25 0 0 0 0-8.5M15.639 9.5c0-.305.058-.596.163-.863l3.06 3.061A2.36 2.36 0 0 1 15.639 9.5m4.56.863-3.062-3.061a2.361 2.361 0 0 1 3.061 3.061" clip-rule="evenodd"/></svg>