<svg xmlns="http://www.w3.org/2000/svg" fill="none" viewBox="0 0 24 24"><path fill="currentColor" fill-rule="evenodd" d="M12.028 3.542C9.87 2.126 7.167 2.514 5.76 4.484 5.027 3.595 4.318 2.685 3.654 1.5l-1.308.733c.84 1.502 1.756 2.659 2.71 3.735-.62 2.237.385 4.818 2.426 6.158 1.014.665 2.619 1.338 4.43 1.373 1.84.034 3.865-.595 5.637-2.492l.73-.783-.985-.42c-1.27-.54-2.004-1.59-2.707-2.826q-.14-.247-.284-.508a21 21 0 0 0-.786-1.342c-.389-.593-.857-1.171-1.49-1.586m-7.583 7.814c-.552.407-.695.746-.695.968 0 .187.096.45.46.777.362.327.929.655 1.693.946 1.524.58 3.679.955 6.097.955s4.573-.374 6.097-.955c.764-.29 1.331-.62 1.694-.946s.459-.59.459-.777c0-.222-.142-.561-.695-.968l.89-1.208c.726.535 1.305 1.266 1.305 2.176 0 4.098-2.473 8.065-5.322 10.044l-.193.134h-8.47l-.193-.134c-2.849-1.98-5.322-5.946-5.322-10.044 0-.91.58-1.64 1.305-2.176z" clip-rule="evenodd"/></svg>