<svg xmlns="http://www.w3.org/2000/svg" fill="none" viewBox="0 0 24 24"><path fill="currentColor" fill-rule="evenodd" d="m12.128 19.75 1.618 1.85-2.442 1.085a.75.75 0 0 1-.61 0L1.25 18.487V6a.95.95 0 0 1 .579-.868l8.775-3.8c.252-.11.54-.11.792 0l8.775 3.8A.95.95 0 0 1 20.75 6v6.863l-4.002 4.574-.856-.979zM6.61 6.86 4.625 6l6.374-2.76 1.987.86zM9.012 7.9l6.374-2.76 1.987.86L11 8.76zM5 12.5 7.5 14v-1.5L5 11zm11.749 10.247 6.002-6.86-1.505-1.317-4.497 5.14-.998-1.14-1.505 1.317z" clip-rule="evenodd"/></svg>