<svg xmlns="http://www.w3.org/2000/svg" fill="none" viewBox="0 0 24 24"><path fill="currentColor" fill-rule="evenodd" d="M15.707 5.207 12 1.5 8.293 5.207l1.414 1.414L11 5.328v11.06c-1.646-.375-3.23-1.67-4.506-3.795C4.973 10.058 4 6.493 4 2.5H2c0 4.293 1.042 8.227 2.779 11.122 1.528 2.546 3.681 4.41 6.221 4.802V22.5h2v-4.076c2.54-.392 4.694-2.256 6.221-4.802C20.959 10.727 22 6.792 22 2.5h-2c0 3.993-.973 7.558-2.494 10.093-1.275 2.126-2.86 3.42-4.506 3.794V5.328l1.293 1.293zM3 21.5v-2h2v2zm6 0H7v-2h2zm8 0h-2v-2h2zm2 0v-2h2v2z" clip-rule="evenodd"/></svg>