<svg xmlns="http://www.w3.org/2000/svg" fill="none" viewBox="0 0 24 24"><path fill="currentColor" fill-rule="evenodd" d="M1.474 1.47c.14-.141.33-.22.53-.22h16c.41 0 .75.336.75.75v3.25h3a1 1 0 0 1 .79.385c.19.242.25.559.18.858L18.754 22c0 .414-.34.75-.75.75h-16a.753.753 0 0 1-.75-.75V2c0-.199.08-.39.22-.53m19 5.78h-1.72v6.702zM5.254 10c0-2.623 2.13-4.75 4.75-4.75s4.75 2.127 4.75 4.75-2.13 4.75-4.75 4.75A4.75 4.75 0 0 1 5.254 10m.75 7.75v-1.5h8v1.5zm3.99-10.948.01-.013q.007.006.01.013l.01.012c.1.11.22.31.34.623.23.62.39 1.527.39 2.565s-.16 1.945-.39 2.565c-.12.313-.24.514-.34.623l-.01.013-.01.012-.01-.012-.01-.013c-.1-.109-.22-.31-.34-.623-.23-.62-.39-1.527-.39-2.565s.16-1.945.39-2.565c.12-.313.24-.514.34-.623q.007-.006.01-.012M6.754 10c0-1.079.53-2.034 1.33-2.626-.21.754-.33 1.664-.33 2.626s.12 1.872.33 2.626A3.27 3.27 0 0 1 6.754 10m5.172 2.626c.21-.754.33-1.664.33-2.626s-.12-1.872-.33-2.626c.8.592 1.33 1.547 1.33 2.626s-.53 2.034-1.33 2.626" clip-rule="evenodd"/></svg>