<svg xmlns="http://www.w3.org/2000/svg" fill="none" viewBox="0 0 24 24"><path fill="currentColor" fill-rule="evenodd" d="M15.683 3.25a3.75 3.75 0 1 1-.425 1.5H11.75v.5H12a.75.75 0 0 1 .75.75v2.49q.097.039.195.083c2.833 1.297 4.805 4.148 4.805 7.46 0 2.149-.679 3.777-1.365 4.87a8 8 0 0 1-.948 1.236c-.131.14-.242.247-.324.321a23 23 0 0 1-.35.29H4.237s-.31-.253-.35-.29a6 6 0 0 1-.324-.321 8 8 0 0 1-.948-1.236c-.686-1.093-1.365-2.721-1.365-4.87 0-3.312 1.972-6.163 4.805-7.46q.098-.045.195-.082V6A.75.75 0 0 1 7 5.25h.25v-.5H5v-1.5h2.25v-1h4.5v1zm-7.933 5h3.5v-1.5h-3.5zm2.5-4.5v1.5h-1.5v-1.5z" clip-rule="evenodd"/></svg>