<svg xmlns="http://www.w3.org/2000/svg" fill="none" viewBox="0 0 24 24"><path fill="currentColor" fill-rule="evenodd" d="M21.647 16.75a10.75 10.75 0 0 1-9.646 6c-1.133 0-2.226-.175-3.251-.5v-5.5zm-6.397-15v6.44L8.796 1.735a10.8 10.8 0 0 1 3.205-.486c1.132 0 2.224.175 3.249.5M2.34 16.72a10.8 10.8 0 0 0 4.91 4.926V11.81zm20.41-4.716a10.75 10.75 0 0 0-6-9.647v12.897h5.5c.325-1.025.5-2.117.5-3.25m-11.812-6-9.203 9.203a10.8 10.8 0 0 1-.485-3.203 10.75 10.75 0 0 1 6.028-9.66z" clip-rule="evenodd"/></svg>