<svg xmlns="http://www.w3.org/2000/svg" fill="none" viewBox="0 0 24 24"><path fill="currentColor" fill-rule="evenodd" d="M7.25 6A4.75 4.75 0 1 1 13 10.645V18h-2v-7.355A4.75 4.75 0 0 1 7.25 6M4 18.066c0-.271.267-.824 1.451-1.424l-.902-1.784C3.232 15.524 2 16.582 2 18.066c0 .863.432 1.591 1.012 2.153.577.558 1.36 1.015 2.245 1.377 1.776.727 4.16 1.154 6.743 1.154 2.582 0 4.967-.427 6.743-1.154.885-.362 1.668-.819 2.245-1.378.58-.56 1.012-1.289 1.012-2.152 0-1.484-1.232-2.542-2.549-3.208l-.902 1.784c1.184.6 1.451 1.153 1.451 1.424 0 .154-.072.395-.403.715-.334.323-.869.66-1.612.965-1.481.606-3.597 1.004-5.985 1.004s-4.504-.398-5.985-1.005c-.743-.304-1.279-.64-1.612-.964-.331-.32-.403-.561-.403-.715" clip-rule="evenodd"/></svg>