<svg xmlns="http://www.w3.org/2000/svg" fill="none" viewBox="0 0 24 24"><path fill="currentColor" fill-rule="evenodd" d="M12.996 7.836V2.5h-2v5.336c-1.287.232-2.246.915-2.951 1.84-.776 1.017-1.235 2.31-1.555 3.55l-5.24 2.345.743 1.857 1.003-.401V18.5h2v-2.273l1.333-.533c.187.94.687 1.712 1.401 2.294 1.14.927 2.742 1.306 4.266 1.258 1.524.048 3.127-.33 4.265-1.258a3.9 3.9 0 0 0 1.403-2.297l1.582.633V18.5h1.5v-1.576l1.261.504.743-1.857-5.25-2.35c-.32-1.24-.778-2.53-1.553-3.545-.706-.925-1.664-1.607-2.95-1.84m-1 4.664a1 1 0 1 0 0 2h.01a1 1 0 1 0 0-2zm-9 8a1 1 0 0 1 1-1h.01a1 1 0 1 1 0 2h-.01a1 1 0 0 1-1-1m17-1a1 1 0 1 0 0 2h.01a1 1 0 1 0 0-2z" clip-rule="evenodd"/></svg>