<svg xmlns="http://www.w3.org/2000/svg" fill="none" viewBox="0 0 24 24"><path fill="currentColor" fill-rule="evenodd" d="M2.5 1.75h5.733l-2.18 4H1.75V2.5a.75.75 0 0 1 .75-.75m10.553 4H7.761l2.18-4h5.292zm3.888-4-2.18 4h6.489V2.5a.75.75 0 0 0-.75-.75zm4.309 5.5H1.75V20.5c0 .414.336.75.75.75h10.527c-.808-.85-1.353-1.824-1.61-2.873-.522-2.12.24-4.514 2.307-5.586 1.448-.751 2.803-.612 3.78-.232.97-.377 2.311-.517 3.746.214zm-3.747 6.982a3.3 3.3 0 0 0-.484-.25c-.653-.271-1.576-.394-2.606.14-1.332.691-1.932 2.308-1.542 3.897.4 1.625 1.794 3.204 4.375 4.138l.257.093.256-.093c2.581-.934 3.976-2.513 4.375-4.138.39-1.589-.21-3.206-1.541-3.896-1.03-.535-1.953-.412-2.606-.142a3.3 3.3 0 0 0-.484.25" clip-rule="evenodd"/></svg>