<svg xmlns="http://www.w3.org/2000/svg" fill="none" viewBox="0 0 24 24"><path fill="currentColor" fill-rule="evenodd" d="M1.25 4.457 4.457 1.25 5.87 2.664l-.793.793h3.586v2H5.078l.793.793-1.414 1.414zm11.835 15.58-1.81-.007v1.415c0 .72.575 1.305 1.282 1.305h7.24c1.631 0 2.953-1.347 2.953-3.008v-10.4L14.775 4.58l-.017-.012a1.61 1.61 0 0 0-1.96.03 1.563 1.563 0 0 0-.13 2.338l2.59 2.406H2.693a1.442 1.442 0 1 0 0 2.884h8.663v.794H9.048v1.409c0 .567.356 1.051.854 1.23q.2.074.427.075h2.14v.794l-2.307-.006v1.415c0 .567.356 1.051.854 1.23q.2.074.427.075h1.642z" clip-rule="evenodd"/></svg>