<svg xmlns="http://www.w3.org/2000/svg" fill="none" viewBox="0 0 24 24"><path fill="currentColor" fill-rule="evenodd" d="M1.25 4.707 4.457 1.5l1.414 1.414-.793.793h3.586v2H5.078l.793.793-1.414 1.414zm16.233 3.076-.296-.182c-.43-.269-.942-.588-1.465-.803-.681-.281-1.486-.436-2.358-.133-.488.17-.976.512-1.4.868-.438.366-.867.795-1.24 1.197-.462.5-.854.976-1.088 1.27H3.752a2.5 2.5 0 1 0 0 5h4.997c.064 1.864.64 4.569 2.686 6.603.942.936 2.32.991 3.46.82 1.177-.176 2.343-.626 3.12-.998l2.157-1.033h2.58V10H20.74l-.225-.158c-.256-.18-.607-.424-.983-.685-.744-.515-1.616-1.11-2.05-1.374" clip-rule="evenodd"/></svg>