<svg xmlns="http://www.w3.org/2000/svg" fill="none" viewBox="0 0 24 24"><path fill="currentColor" fill-rule="evenodd" d="M20.96 7.714c.96.933 1.79 2.061 1.79 3.264 0 .909-.3 1.844-.94 2.56a3.4 3.4 0 0 1-.717.612c.47.781.721 1.735.646 2.664a3.6 3.6 0 0 1-.81 2.012c-.51.605-1.24 1.047-2.16 1.287-1.203.315-2.88.713-4.286 1.046l-.434.102c-.76.177-1.4.33-1.82.431l-.23.057-.23-.057c-.42-.1-1.06-.254-1.82-.43-1.49-.352-3.39-.8-4.72-1.149-.92-.24-1.65-.682-2.16-1.287a3.6 3.6 0 0 1-.81-2.012c-.075-.93.177-1.883.647-2.664a3.4 3.4 0 0 1-.716-.612c-.64-.716-.94-1.651-.94-2.56 0-1.203.83-2.331 1.79-3.264.99-.968 2.29-1.892 3.56-2.685a47 47 0 0 1 3.5-1.962c.277-.142.79-.354 1.218-.531l.062-.026c.28-.113.51-.209.62-.26.11.051.34.147.62.26l.062.026c.429.177.941.389 1.218.531a47 47 0 0 1 3.5 1.962c1.27.793 2.57 1.717 3.56 2.685M4.905 14.727c-.445.459-.752 1.226-.696 1.928.03.352.14.663.36.916.21.251.56.501 1.15.655a207 207 0 0 0 4.62 1.122l.227.054c.558.13 1.054.248 1.433.34.38-.092.876-.21 1.434-.34l.226-.054.262-.061c1.422-.336 3.125-.738 4.358-1.06.59-.155.94-.405 1.15-.656.22-.253.33-.564.36-.916.057-.702-.25-1.47-.695-1.928l-.094.001H4.905M14 7.978l-2-1-2 1c0 1.5.78 2.595 2 3 1.22-.405 2-1.5 2-3" clip-rule="evenodd"/></svg>