<svg xmlns="http://www.w3.org/2000/svg" fill="none" viewBox="0 0 24 24"><path fill="currentColor" fill-rule="evenodd" d="M1.25 3.25A.75.75 0 0 1 2 2.5h20a.75.75 0 0 1 .75.75v14A.75.75 0 0 1 22 18H7.058l4.06-5.826-1.237-.847L5.23 18H2a.75.75 0 0 1-.75-.75zM5.23 18l-1.85 2.653 1.239.847 2.44-3.5zM2.75 6.155V4h2.155A3 3 0 0 1 2.75 6.155M4.905 16.5H2.75v-2.155A3 3 0 0 1 4.905 16.5M12 15.25a2 2 0 0 0-1.855 1.25h3.71A2 2 0 0 0 12 15.25m9.25-.905V16.5h-2.155a3 3 0 0 1 2.155-2.155M21.25 4h-2.155a3 3 0 0 0 2.155 2.155zM10.145 4h3.71a2 2 0 0 1-3.71 0M11 9.25a1 1 0 0 1 1-1h.012a1 1 0 1 1 0 2H12a1 1 0 0 1-1-1" clip-rule="evenodd"/></svg>