<svg xmlns="http://www.w3.org/2000/svg" fill="none" viewBox="0 0 24 24"><path fill="currentColor" fill-rule="evenodd" d="M5.1 8.889C5.1 6.639 6.72 5 8.5 5s3.4 1.64 3.4 3.889h2C13.9 5.739 11.58 3 8.5 3S3.1 5.738 3.1 8.889c0 1.463.5 2.837 1.345 3.889H2.5v2h2.99a15 15 0 0 1-1.192 2.132c-.7 1.027-1.46 1.789-2.258 2.202A1 1 0 0 0 2.5 21h9.518c.074-.004.245-.012.335-.021.196-.02.466-.06.773-.14.605-.157 1.422-.485 2.094-1.182l-1.44-1.388c-.328.34-.761.531-1.156.633a3.3 3.3 0 0 1-.605.097l-.024.001H5.224q.386-.462.728-.965c.678-.996 1.25-2.125 1.724-3.257h2.393v-2H8.5c-1.781 0-3.4-1.64-3.4-3.89m13.107 2.322-1.414-1.414-3.207 3.207 3.207 3.207 1.414-1.414-.793-.793H22.5v-2h-5.086z" clip-rule="evenodd"/></svg>