<svg xmlns="http://www.w3.org/2000/svg" fill="none" viewBox="0 0 24 24"><path fill="currentColor" fill-rule="evenodd" d="M8.75 5.75h12v1h2v1.5h-2v2.5h2v1.5h-2v2.5h2v1.5h-2v2.5h2v1.5h-2v1H4a2.75 2.75 0 0 1-2.75-2.75v-13A2.75 2.75 0 0 1 4 2.75h4.75zm-6-.25c0-.69.56-1.25 1.25-1.25h3.25v11.5H4c-.45 0-.875.108-1.25.3zm14.135 6.499-.098-.121c-.422-.52-.963-1.188-1.608-1.622a2.84 2.84 0 0 0-1.283-.492c-.499-.053-1.01.044-1.524.302-.236.118-.4.2-.521.257l-.141.062-.068.005a9 9 0 0 1-.311.003H11v1.5h.389c.23 0 .46 0 .67-.049.148-.034.303-.104.43-.163q.209-.1.545-.269l.01-.005c.286-.143.51-.17.692-.151.188.02.386.097.605.244.452.304.859.805 1.325 1.377l.056.07c.17.209.306.4.406.553-.1.153-.236.345-.406.554l-.056.069c-.466.572-.873 1.073-1.325 1.377a1.36 1.36 0 0 1-.605.245c-.182.019-.406-.009-.693-.152l-.01-.005q-.335-.169-.545-.269a2.3 2.3 0 0 0-.428-.163c-.21-.05-.441-.05-.67-.05H11v1.5h.331c.151 0 .242.001.31.004l.069.005.003.001c.015.006.056.023.137.06.121.058.286.14.522.258.515.258 1.026.355 1.524.302a2.84 2.84 0 0 0 1.283-.492c.645-.434 1.186-1.102 1.608-1.622l.098-.121c.255-.313.447-.596.577-.803.065-.104.38-.698.38-.698s-.315-.594-.38-.698a8 8 0 0 0-.577-.803" clip-rule="evenodd"/></svg>