<svg xmlns="http://www.w3.org/2000/svg" fill="none" viewBox="0 0 24 24"><path fill="currentColor" fill-rule="evenodd" d="M3.75 12c0-4.56 3.69-8.25 8.25-8.25s8.25 3.69 8.25 8.25-3.69 8.25-8.25 8.25S3.75 16.56 3.75 12M12 2.25c-5.38 0-9.75 4.37-9.75 9.75s4.37 9.75 9.75 9.75 9.75-4.37 9.75-9.75S17.38 2.25 12 2.25m0 3h-.75v6.32l-5.47 3.16.38.64a6.75 6.75 0 0 0 2.47 2.48c1.02.59 2.19.9 3.37.9s2.35-.31 3.38-.9a6.9 6.9 0 0 0 2.47-2.47c.59-1.03.9-2.2.9-3.38s-.31-2.35-.9-3.38a6.9 6.9 0 0 0-2.47-2.47c-1.03-.59-2.19-.9-3.38-.9" clip-rule="evenodd"/></svg>