<svg xmlns="http://www.w3.org/2000/svg" fill="none" viewBox="0 0 24 24"><path fill="currentColor" fill-rule="evenodd" d="M.75 2a.75.75 0 0 1 .75-.75h18a.75.75 0 0 1 .75.75v4.25H.75zm0 5.75h19.5v4.814a5.64 5.64 0 0 0-6.723 8.186H1.5A.75.75 0 0 1 .75 20zM5.5 13h2v-1.5h-2zm4 0h4.62v-1.5H9.5zm-4 4h2v-1.5h-2zm4 0h2.543v-1.5H9.5zm8.89-3.25a4.14 4.14 0 1 0 2.223 7.634l1.363 1.366 1.274-1.272-1.365-1.367a4.14 4.14 0 0 0-3.495-6.361m-2.34 4.14a2.34 2.34 0 1 1 4.68 0 2.34 2.34 0 0 1-4.68 0" clip-rule="evenodd"/></svg>