<svg xmlns="http://www.w3.org/2000/svg" fill="none" viewBox="0 0 24 24"><path fill="currentColor" fill-rule="evenodd" d="M.75 2a.75.75 0 0 1 .75-.75h18a.75.75 0 0 1 .75.75v4.25H.75zm0 5.75h19.5v6.051l-1.207 1.207-2.793-2.793-3.535 3.535 2.793 2.793L13.3 20.75H1.5A.75.75 0 0 1 .75 20zM5.5 13h2v-1.5h-2zm4 0h4v-1.5h-4zm-4 4h2v-1.5h-2zm4 0h2v-1.5h-2zm5.336 4.336 2.793-2.793-2.793-2.793 1.414-1.414 2.793 2.793 2.793-2.793 1.414 1.414-2.793 2.793 2.793 2.793-1.414 1.414-2.793-2.793-2.793 2.793z" clip-rule="evenodd"/></svg>