<svg xmlns="http://www.w3.org/2000/svg" fill="none" viewBox="0 0 24 24"><path fill="currentColor" d="M12.8 5.335c.068-.48.211-1.018.46-1.479.357-.66.887-1.106 1.74-1.106v-1.5c-1.547 0-2.517.888-3.06 1.894-.383.71-.574 1.504-.65 2.173a3.94 3.94 0 0 0-1.715.797C8.73 5.55 7.807 5.25 6.969 5.25c-1.665 0-3.112.912-4.116 2.267S1.25 10.708 1.25 12.704c0 1.971.618 4.413 1.853 6.084.623.844 1.442 1.54 2.468 1.825.779.217 1.615.18 2.486-.135.196.29.42.56.663.802.855.856 2.036 1.47 3.28 1.47s2.425-.614 3.28-1.47q.367-.366.663-.802c.871.314 1.707.352 2.486.135 1.026-.285 1.845-.981 2.468-1.825 1.235-1.67 1.853-4.113 1.853-6.084 0-1.996-.599-3.832-1.603-5.187s-2.45-2.267-4.116-2.267c-.838 0-1.76.3-2.605.864a3.95 3.95 0 0 0-1.626-.78"/></svg>