<svg xmlns="http://www.w3.org/2000/svg" fill="none" viewBox="0 0 24 24"><path fill="currentColor" fill-rule="evenodd" d="M9 1.25h6v1.5h-2.25v1.536q.083.008.162.018c.506.063.968.206 1.375.471.41.267.719.629.958 1.063.099.18.209.474.364.888l.033.089c.19.508.398.983.619 1.435H7.739c.22-.452.43-.927.62-1.435l.033-.089c.154-.414.264-.708.363-.887.24-.435.548-.797.958-1.064.406-.264.869-.408 1.374-.47l.163-.019V2.75H9zm-2.706 9.564q.318-.521.636-1.064h10.14c.21.363.425.715.636 1.063q.233.383.458.762c.837 1.412 1.586 2.857 1.586 4.591 0 3.254-2.317 5.51-5.35 6.287.34-.755.536-1.674.656-2.597.225-1.73.203-3.696.187-5.06-.003-.296-.006-.565-.006-.796h-1.5q0 .387.006.857c.015 1.368.035 3.193-.175 4.806-.129.993-.336 1.823-.638 2.385-.245.456-.498.65-.772.7a10 10 0 0 1-.313 0c-.276-.05-.529-.244-.773-.7-.302-.562-.509-1.391-.638-2.385-.208-1.607-.188-3.425-.173-4.792.003-.317.007-.61.007-.87h-1.5c0 .234-.004.506-.007.808-.015 1.363-.038 3.322.186 5.047.12.923.316 1.842.654 2.597-3.033-.775-5.351-3.032-5.351-6.287 0-1.733.749-3.179 1.586-4.59q.225-.38.458-.762" clip-rule="evenodd"/></svg>