<svg xmlns="http://www.w3.org/2000/svg" fill="none" viewBox="0 0 24 24"><path fill="currentColor" fill-rule="evenodd" d="M19.693 6.031 18.55 2.558l-.213-.143c-1.678-1.132-3.388-1.066-5.02-.592l1.74 4.193c1.482-.366 3.037-.464 4.636.015m.85 6.779c-1.127-.652-2.15-.955-3.095-1.031l-1.81-4.359c1.557-.35 3.094-.317 4.663.462l1.948 5.914zM14.19 7.842l1.665 4.011c-1.135.195-2.202.668-3.265 1.224a41 41 0 0 0-.61.328l-1.576-3.952q.436-.194.866-.39l.003-.001.56-.253a30 30 0 0 1 2.357-.967m-3.705-4.896c.459-.208.931-.422 1.415-.62l1.713 4.128c-.828.294-1.628.643-2.395.987l-.575.26-.795.358-1.649-4.133c.73-.275 1.474-.612 2.24-.96zm-3.72 1.427c-1.195.282-2.375.298-3.589-.19L1.75 3.612 3.27 8.9c1.128.575 2.303.584 3.6.263.524-.13 1.054-.309 1.596-.52zm2.257 5.662 1.631 4.091c-.53.28-1.06.537-1.576.73-.773.291-1.583.47-2.418.394l1.966 6.834-1.444.416-3.396-11.81c1.155.297 2.313.208 3.444-.071a15 15 0 0 0 1.793-.584" clip-rule="evenodd"/></svg>