<svg xmlns="http://www.w3.org/2000/svg" fill="none" viewBox="0 0 24 24"><path fill="currentColor" fill-rule="evenodd" d="M1.25 12A8.75 8.75 0 0 1 10 3.25a8.91 8.91 0 0 1 6.989 3.387.75.75 0 0 1-.06.994l-1.789 1.79A5.75 5.75 0 0 0 4.25 12v3.749H2a.75.75 0 0 1-.75-.75zM10 7.75a4.25 4.25 0 0 1 4 2.81l-1.47 1.47a.75.75 0 0 1-1.256-.343c-.132-.513-.665-.937-1.274-.937-.69 0-1.25.56-1.25 1.25v3a.75.75 0 0 1-.75.75H5.75V12A4.25 4.25 0 0 1 10 7.75m2.838 6.284c-1.478.39-2.588 1.705-2.588 3.3 0 1.908 1.589 3.416 3.5 3.416h5.775c1.76 0 3.225-1.389 3.225-3.15 0-1.511-1.08-2.748-2.497-3.069-.206-1.862-1.827-3.281-3.753-3.281-1.752 0-3.248 1.171-3.662 2.784" clip-rule="evenodd"/></svg>