<svg xmlns="http://www.w3.org/2000/svg" fill="none" viewBox="0 0 24 24"><path fill="currentColor" fill-rule="evenodd" d="M2.314 22.75V1.25h10.11l7.39 7.38V12H4.934v9h14.88v1.75zm15.55-13.29-6.24-6.25v6.25zm-7.18 5.79a2 2 0 0 0-2-2h-2.5v6.5h1.5v-2.5h.54l.88 2.5h1.58l-.94-2.8c.57-.36.94-.99.94-1.7m-3 .5h1c.28 0 .5-.22.5-.5s-.22-.5-.5-.5h-1zm5.31 2.5h1.89l.45 1.5h1.56l-2.17-6.5h-1.57l-2.17 6.5h1.56zm.53-1.5h.83l-.42-1.19zm8.16-1.5a2 2 0 0 0-2-2h-2.5v6.5h1.5v-2.5h.54l.88 2.5h1.58l-.94-2.8c.57-.36.94-.99.94-1.7m-2 .5h-1v-1h1c.28 0 .5.22.5.5s-.22.5-.5.5" clip-rule="evenodd"/></svg>