<svg xmlns="http://www.w3.org/2000/svg" fill="none" viewBox="0 0 24 24"><path fill="currentColor" fill-rule="evenodd" d="M1.25 12C1.25 6.063 6.063 1.25 12 1.25S22.75 6.063 22.75 12 17.937 22.75 12 22.75 1.25 17.937 1.25 12m7.19-2.75a.775.775 0 0 1-.734-.504l-1.411.508A2.275 2.275 0 0 0 8.44 10.75c.984 0 1.83-.619 2.145-1.496l-1.412-.508a.775.775 0 0 1-.733.504m7.122 0a.775.775 0 0 1-.734-.504l-1.412.508a2.275 2.275 0 0 0 2.146 1.496c.984 0 1.829-.619 2.144-1.496l-1.411-.508a.775.775 0 0 1-.734.504m-3.563 7.5c-1.665 0-3.358-1.274-3.772-2.932l-1.456.364c.587 2.343 2.894 4.068 5.23 4.068z" clip-rule="evenodd"/></svg>