<svg xmlns="http://www.w3.org/2000/svg" fill="none" viewBox="0 0 24 24"><path fill="currentColor" d="M9.75 12a2.25 2.25 0 1 1 4.5 0 2.25 2.25 0 0 1-4.5 0"/><path fill="currentColor" fill-rule="evenodd" d="M11.25 4.5V1.75h-3.5v.75c0 1.435-.002 2.437-.103 3.192-.099.734-.28 1.122-.556 1.399-.277.277-.665.457-1.4.556-.754.101-1.756.103-3.191.103h-.75v3.5H4.5v1.5H1.75v3.5h.75c1.435 0 2.437.002 3.192.103.734.099 1.122.28 1.399.556.277.277.457.665.556 1.4.101.755.103 1.756.103 3.191v.75h3.5V19.5h1.5v2.75h3.5v-.75c0-1.435.002-2.436.103-3.192.099-.734.28-1.122.556-1.399.277-.277.665-.457 1.4-.556.755-.101 1.756-.103 3.191-.103h.75v-3.5H19.5v-1.5h2.75v-3.5h-.75c-1.435 0-2.436-.002-3.192-.103-.734-.099-1.122-.28-1.399-.556-.277-.277-.457-.665-.556-1.4-.101-.754-.103-1.756-.103-3.191v-.75h-3.5V4.5zM12 8.25a3.75 3.75 0 1 0 0 7.5 3.75 3.75 0 0 0 0-7.5" clip-rule="evenodd"/></svg>