<svg xmlns="http://www.w3.org/2000/svg" fill="none" viewBox="0 0 24 24"><path fill="currentColor" fill-rule="evenodd" d="M13.644 2.728A7.17 7.17 0 0 0 8.55 1.311c-2.554.264-4.976 1.85-6.301 4.49l1.788.897C5.062 4.658 6.894 3.493 8.756 3.3a5.17 5.17 0 0 1 3.581.95h-1.193v2h4.5v-5h-2zm6.238 2.727a1.205 1.205 0 0 1 1.65.296c.38.529.25 1.247-.278 1.607l-4.322 2.952v.001l-1.298.886.466.657 1.297-.886a1.205 1.205 0 0 1 1.65.297c.379.528.25 1.246-.278 1.607l-1.297.886.466.657.433-.296a1.205 1.205 0 0 1 1.649.297c.38.528.25 1.246-.278 1.607l-1.297.886.466.657.432-.295a1.205 1.205 0 0 1 1.65.296c.38.529.25 1.247-.278 1.607l-4.262 2.783c-1.928 1.252-4.489 1-6.124-.602l-1.79-1.753c-.862-.844-1.248-1.225-1.527-1.652a4.7 4.7 0 0 1-.752-2.21c-.039-.506.037-1.038.21-2.22l.748-5.132a1.36 1.36 0 0 1 1.209-1.147c.815-.09 1.526.535 1.527 1.335l-.045 3.669 1.323-.881z" clip-rule="evenodd"/></svg>