<svg xmlns="http://www.w3.org/2000/svg" fill="none" viewBox="0 0 24 24"><path fill="currentColor" fill-rule="evenodd" d="M3.202 12c0-4.858 3.934-8.795 8.786-8.795a8.77 8.77 0 0 1 7.029 3.518.976.976 0 0 0 1.756-.587V2.227h-1.952v1.48a10.7 10.7 0 0 0-6.834-2.457C6.058 1.25 1.25 6.063 1.25 12c0 4.256 2.471 7.933 6.051 9.674l.853-1.758A8.8 8.8 0 0 1 3.202 12m19.11-3.74-.267-.94-1.878.533.266.94q.148.526.234 1.064l.155.965 1.927-.31-.154-.965q-.105-.648-.284-1.286m.246 5.197.17-.963-1.923-.338-.17.962a10 10 0 0 1-.244 1.059l-.269.94 1.876.539.27-.94q.179-.621.29-1.26m-1.907 4.734.546-.81-1.619-1.093-.546.81q-.319.473-.688.907l-.634.743 1.484 1.27.634-.744q.443-.52.823-1.083m-3.834 3.59.847-.486-.97-1.696-.847.485a9 9 0 0 1-.974.484l-.898.381.762 1.8.899-.382q.613-.261 1.18-.587m-5.902-1.282-.968-.13-.26 1.937.968.13q.724.098 1.473.098h.977V20.58h-.977a9 9 0 0 1-1.213-.081" clip-rule="evenodd"/></svg>