<svg xmlns="http://www.w3.org/2000/svg" fill="none" viewBox="0 0 24 24"><path fill="currentColor" fill-rule="evenodd" d="M7.856 6.25v-5h2v1.478a7.17 7.17 0 0 1 5.093-1.417c2.554.264 4.977 1.85 6.301 4.49l-1.788.897c-1.023-2.04-2.856-3.205-4.718-3.398a5.17 5.17 0 0 0-3.581.95h1.193v2zm-.914 4.837.31-.536 1.426.82.402-.701-5.764-3.318c-.542-.311-.726-1-.415-1.538a1.135 1.135 0 0 1 1.548-.412l9.681 5.57-.867-3.204a1.314 1.314 0 0 1 1.08-1.642 1.335 1.335 0 0 1 1.418.777l2.398 6.873.242.152c.519.327 1.507.95 1.849 1.153l-4.442 7.669-1.443-1.008-.139.031a71 71 0 0 1-1.284.282c-.329.065-.67.126-.959.166-.31.043-.502.051-.57.04-.41-.065-.844-.222-1.426-.51-.585-.288-1.295-.697-2.263-1.254l-1.306-.751a1.634 1.634 0 0 1-.717-1.991l.124-.332a.465.465 0 0 1 .667-.237l.887.51.402-.701-.886-.51a1.633 1.633 0 0 1-.602-2.236.623.623 0 0 1 .849-.226l.886.51.403-.7-.887-.511a1.633 1.633 0 0 1-.602-2.235" clip-rule="evenodd"/></svg>