<svg xmlns="http://www.w3.org/2000/svg" fill="none" viewBox="0 0 24 24"><path fill="currentColor" fill-rule="evenodd" d="M15.644 6.25v-5h-2v1.478A7.17 7.17 0 0 0 8.55 1.311c-2.554.264-4.976 1.85-6.301 4.49l1.788.897C5.062 4.658 6.894 3.493 8.756 3.3a5.17 5.17 0 0 1 3.581.95h-1.193v2zm1.628.143c.518-.3 1.197-.115 1.509.426a1.1 1.1 0 0 1-.382 1.507l-4.304 2.487.395.709 5.596-3.234c.518-.3 1.197-.115 1.509.426a1.1 1.1 0 0 1-.382 1.507l-6.457 3.731.396.709 4.735-2.736c.518-.3 1.197-.116 1.509.426.31.538.132 1.21-.383 1.507l-5.595 3.233.395.708 3.874-2.238c.519-.3 1.197-.115 1.51.426a1.1 1.1 0 0 1-.383 1.507l-5.309 3.068c-.94.543-1.628.94-2.196 1.221-.564.28-.985.43-1.384.49-.059.01-.216 0-.471-.047a11 11 0 0 1-.779-.183 21 21 0 0 1-.913-.269l-.06-.019-.015-.005-.005-.001-.166-.055-1.855 1.056-4.413-7.657 1.48-.816 2.814-7.248a1.26 1.26 0 0 1 1.367-.755A1.33 1.33 0 0 1 9.98 7.91l-.819 3.17z" clip-rule="evenodd"/></svg>