<svg xmlns="http://www.w3.org/2000/svg" fill="none" viewBox="0 0 24 24"><path fill="currentColor" fill-rule="evenodd" d="M8.355 6.25v-5h2v1.478a7.17 7.17 0 0 1 5.093-1.417c2.554.264 4.977 1.85 6.301 4.49l-1.787.897c-1.024-2.04-2.857-3.205-4.719-3.398a5.17 5.17 0 0 0-3.581.95h1.193v2zm-1.629.143c-.518-.3-1.197-.115-1.509.426A1.1 1.1 0 0 0 5.6 8.326l4.304 2.487-.395.709-5.596-3.234c-.518-.3-1.197-.115-1.509.426a1.1 1.1 0 0 0 .382 1.507l6.457 3.731-.396.709-4.735-2.736c-.518-.3-1.197-.116-1.509.426a1.1 1.1 0 0 0 .383 1.507L8.58 17.09l-.395.708-3.874-2.238c-.519-.3-1.197-.115-1.51.426a1.1 1.1 0 0 0 .383 1.507l5.309 3.068c.94.543 1.628.94 2.196 1.221.565.28.985.43 1.384.49.059.01.216 0 .471-.047.238-.045.513-.112.778-.183a21 21 0 0 0 .914-.269l.06-.019.015-.005.005-.001.166-.055 1.855 1.056 4.413-7.657-1.48-.816-2.814-7.248a1.26 1.26 0 0 0-1.367-.755 1.33 1.33 0 0 0-1.07 1.635l.819 3.17z" clip-rule="evenodd"/></svg>