<svg xmlns="http://www.w3.org/2000/svg" fill="none" viewBox="0 0 24 24"><path fill="currentColor" fill-rule="evenodd" d="M11 7.75a5.75 5.75 0 1 1 11.5 0 5.75 5.75 0 0 1-11.5 0m7.72-2.031 1.06 1.06-3.53 3.53-2.03-2.03 1.06-1.06.97.97zM1.5 6a1 1 0 0 1 1-1H9v2H3.5v4.5h-2zm21 15a1 1 0 0 1-1 1H12v-2h8.5v-5.5h2zm-14 1c0-3.911-3.52-7-6.955-7v-2c4.465 0 8.955 3.911 8.955 9zm-3.23 0c0-1.945-1.827-3.765-3.77-3.765v-2c3.043 0 5.77 2.71 5.77 5.765zm-2.774-2a1 1 0 0 0-.996 1c0 .552.446 1 .996 1h.008c.55 0 .996-.448.996-1s-.446-1-.996-1z" clip-rule="evenodd"/></svg>