<svg xmlns="http://www.w3.org/2000/svg" fill="none" viewBox="0 0 24 24"><path fill="currentColor" fill-rule="evenodd" d="M12.36 1.495a.79.79 0 0 0-.73 0l-3.5 1.95 3.86 2 3.86-2-3.5-1.95zm5.07 2.82-3.81 1.98 3.87 2.01 3.59-1.96zm4.32 3.38-3.5 1.91v4.29l3.5-1.91zm0 6-3.5 1.91v3.94l3.11-1.73a.77.77 0 0 0 .39-.66zm-5 6.68v-3.96l-4 2.19v3.99zm-5.5 2.22v-3.99l-4-2.19v3.96zm-5.5-3.05v-3.94l-3.5-1.91v3.46c0 .27.15.52.39.66zm-3.5-7.56 3.5 1.91v-4.29l-3.5-1.91zm.66-5.64 3.59 1.96 3.87-2.01-3.81-1.98zm5.19 2.83 3.9-2.03 3.9 2.03-3.9 2.13zm4.65 3.43 4-2.19v4.29l-4 2.19zm-1.5 0v4.29l-4-2.19v-4.29z" clip-rule="evenodd"/></svg>