<svg xmlns="http://www.w3.org/2000/svg" fill="none" viewBox="0 0 24 24"><path fill="currentColor" fill-rule="evenodd" d="M12.977 3.307c2.014-2.566 5.83-2.755 8.152-.433 2.33 2.33 2.131 6.164-.46 8.173l-.015.011-2.793 1.957-.398-.49-10.378 9.036-.037-.043a3.25 3.25 0 1 1-4.732-4.425L6.289 4.767l1.428.46-3.56 11.042q.17-.018.343-.018a3.25 3.25 0 0 1 3.215 2.774l8.8-7.662-1.108-1.36 1.514-1.389.024-.018c.541-.423.582-1.204.124-1.662s-1.239-.417-1.662.124l-.025.034-1.567 1.6-3.131-2.911zM4.5 17.75a1.75 1.75 0 1 0 0 3.5 1.75 1.75 0 0 0 0-3.5" clip-rule="evenodd"/></svg>