<svg xmlns="http://www.w3.org/2000/svg" fill="none" viewBox="0 0 24 24"><path fill="currentColor" fill-rule="evenodd" d="M2.922 20.506c1.631-1.01 3.73-1.005 5.373 0q.042.024.08.054c.47.264 1.083.253 1.541-.032l.007-.004a5.19 5.19 0 0 1 5.392 0l.006.004c.458.285 1.084.29 1.6-.022a5.14 5.14 0 0 1 4.156-.542l-.568 1.917a3.14 3.14 0 0 0-2.537.327l-.008.005c-1.12.68-2.557.722-3.696.015a3.19 3.19 0 0 0-3.299 0 3.54 3.54 0 0 1-3.635.04 1 1 0 0 1-.173-.11 3.15 3.15 0 0 0-3.189.05zM13 10.75H7a.75.75 0 0 1-.564-1.244l7-8a.75.75 0 0 1 1.235.159l4 8A.75.75 0 0 1 18 10.75h-3v2.5h6.75V14c0 .758-.167 1.952-.653 3.177-.15.377-.332.762-.551 1.14a6.62 6.62 0 0 0-4.403.907.1.1 0 0 1-.05.017 6.69 6.69 0 0 0-6.953.003l-.007.005-.012.001h-.004l-.039-.024a6.68 6.68 0 0 0-5.478-.668 8.5 8.5 0 0 1-.697-1.381c-.486-1.225-.653-2.42-.653-3.177v-.75H13z" clip-rule="evenodd"/></svg>