<svg xmlns="http://www.w3.org/2000/svg" fill="none" viewBox="0 0 24 24"><path fill="currentColor" fill-rule="evenodd" d="M17.22 1.72a.75.75 0 0 1 .53-.22h4a.75.75 0 0 1 .75.75v4a.75.75 0 0 1-.75.75H20.5v10h1.25a.75.75 0 0 1 .75.75v4a.75.75 0 0 1-.75.75h-4a.75.75 0 0 1-.75-.75V20.5H7v1.25a.75.75 0 0 1-.75.75h-4a.75.75 0 0 1-.75-.75v-4a.75.75 0 0 1 .75-.75H3.5v-6.5h2V17h.75a.75.75 0 0 1 .75.75v.75h10v-.75a.75.75 0 0 1 .75-.75h.75V7h-.75a.75.75 0 0 1-.75-.75V5.5h-6.5v-2H17V2.25a.75.75 0 0 1 .22-.53M3.5 3.5v-2h2v2h2v2h-2v2h-2v-2h-2v-2z" clip-rule="evenodd"/></svg>