<svg xmlns="http://www.w3.org/2000/svg" fill="none" viewBox="0 0 24 24"><path fill="currentColor" fill-rule="evenodd" d="M19.168 3.089c-2.259-1.204-4.252-.925-5.662-.324a7.2 7.2 0 0 0-1.504.875 7.2 7.2 0 0 0-1.504-.875c-1.41-.6-3.404-.88-5.663.324C1.996 4.603.64 8.199 1.513 11.856c.886 3.711 4.028 7.49 10.145 9.766l.343.128.343-.128c3.105-1.155 5.445-2.697 7.113-4.427l.008.01.199-.228q.288-.313.55-.633l.02-.024c3.978-4.906 2.954-11.087-1.066-13.231m-.952 12.613-4.452-5.354-1.923 1.274a3.15 3.15 0 0 1-4.293-.782 3.107 3.107 0 0 1 .673-4.31l2.153-1.645a5 5 0 0 0-.647-.334c-.966-.412-2.325-.625-3.968.25-1.887 1.007-3.062 3.604-2.344 6.605.69 2.887 3.173 6.156 8.586 8.266 2.793-1.089 4.806-2.488 6.192-3.977z" clip-rule="evenodd"/></svg>