<svg xmlns="http://www.w3.org/2000/svg" fill="none" viewBox="0 0 24 24"><path fill="currentColor" fill-rule="evenodd" d="M12.48 1.424a.75.75 0 0 0-.96 0L8.724 3.75H4.496a.75.75 0 0 0-.75.75v4.23l-2.323 2.792a.75.75 0 0 0 0 .959l2.323 2.791v4.23c0 .413.335.75.75.75h4.228l2.796 2.326a.75.75 0 0 0 .9.044 7.24 7.24 0 0 1-2.67-5.62q0-.679.12-1.322a4.25 4.25 0 1 1 5.808-5.808q.645-.12 1.322-.12a7.24 7.24 0 0 1 5.619 2.667.75.75 0 0 0-.047-.897L20.25 8.729V4.5a.75.75 0 0 0-.75-.75h-4.228zM17 11.25a5.75 5.75 0 1 1 0 11.5 5.75 5.75 0 0 1 0-11.5m.759 7H16.25v1.5h1.509zM17.75 14h-1.5v3h1.5z" clip-rule="evenodd"/></svg>