<svg xmlns="http://www.w3.org/2000/svg" fill="none" viewBox="0 0 24 24"><path fill="currentColor" fill-rule="evenodd" d="M9.044 1.25a.75.75 0 0 0-.75.75v2.152l-1.143.672-1.823-1.069a.75.75 0 0 0-1.031.276L1.344 9.228a.75.75 0 0 0 .273 1.017l1.83 1.074v1.362l-1.83 1.074a.75.75 0 0 0-.273 1.018l2.953 5.196a.75.75 0 0 0 1.031.276l1.823-1.069 1.143.672V22c0 .414.335.75.75.75h4.548a6.49 6.49 0 0 1-2.346-5c0-.797.144-1.56.406-2.267a3.5 3.5 0 1 1 3.827-3.827 6.5 6.5 0 0 1 2.267-.406c1.002 0 1.951.227 2.799.632v-.563l1.83-1.074a.75.75 0 0 0 .273-1.017L19.696 4.03a.75.75 0 0 0-1.032-.276l-1.822 1.069-1.143-.672V2a.75.75 0 0 0-.75-.75zm8.702 21.5a5 5 0 1 0 0-10 5 5 0 0 0 0 10m-.74-5v-2.5h1.5v2.5zm-.01 1.25h1.51v1.5h-1.51z" clip-rule="evenodd"/></svg>