<svg xmlns="http://www.w3.org/2000/svg" fill="none" viewBox="0 0 24 24"><path fill="currentColor" fill-rule="evenodd" d="M3.205 12A8.795 8.795 0 0 1 12 3.205c2.398 0 4.57.958 6.157 2.514a.977.977 0 0 0 1.661-.698V2.227h-1.954v.762A10.7 10.7 0 0 0 12 1.25C6.063 1.25 1.25 6.063 1.25 12c0 1.527.319 2.982.895 4.3l1.791-.782A8.8 8.8 0 0 1 3.205 12m16.859-3.518A8.8 8.8 0 0 1 20.796 12 8.796 8.796 0 0 1 12 20.796a8.76 8.76 0 0 1-6.157-2.515.977.977 0 0 0-1.661.698v2.794h1.954v-.762A10.7 10.7 0 0 0 12 22.75c5.937 0 10.75-4.813 10.75-10.75 0-1.527-.319-2.982-.895-4.3zM18 13.14v-2.28c-1.714 0-2.829-1.796-1.96-3.222L13.96 6.5c-.878 1.444-3.041 1.444-3.92 0L7.962 7.639C8.83 9.065 7.714 10.86 6 10.86v2.278c1.714 0 2.829 1.796 1.96 3.222l2.08 1.139c.878-1.445 3.043-1.445 3.922 0l2.078-1.139c-.868-1.426.246-3.222 1.96-3.222M13.75 12a1.75 1.75 0 1 1-3.5 0 1.75 1.75 0 0 1 3.5 0" clip-rule="evenodd"/></svg>