<svg xmlns="http://www.w3.org/2000/svg" fill="none" viewBox="0 0 24 24"><path fill="currentColor" fill-rule="evenodd" d="M13.625 5.51a7.16 7.16 0 0 0-6.149 2.884 3.752 3.752 0 0 1-.87 6.65c1.034 2.6 3.614 4.456 6.642 4.456q.761-.002 1.474-.15a3.75 3.75 0 0 1 5.16-4.285 6.9 6.9 0 0 0 .493-2.565 6.87 6.87 0 0 0-1.113-3.759 3.75 3.75 0 0 1-5.637-3.232m7.055 1.764a8.88 8.88 0 0 1 1.695 5.226 8.9 8.9 0 0 1-.896 3.894 3.75 3.75 0 0 1-5.745 4.768 9.3 9.3 0 0 1-2.486.338c-4.096 0-7.572-2.663-8.723-6.347a3.752 3.752 0 0 1 .969-7.401A9.15 9.15 0 0 1 13.248 3.5q.469 0 .926.046a3.75 3.75 0 0 1 6.506 3.728" clip-rule="evenodd"/></svg>