<svg xmlns="http://www.w3.org/2000/svg" fill="none" viewBox="0 0 24 24"><path fill="currentColor" fill-rule="evenodd" d="M12 1.25c-1.86 0-3.369.869-4.636 1.599-1.323.762-2.456 1.398-3.88 1.398h-.6l-.132.587C.8 13.598 4.688 21.096 11.834 22.713l.166.037.166-.038c7.146-1.616 11.034-9.114 9.082-17.878l-.131-.587h-.602c-1.42 0-2.55-.636-3.873-1.398C15.374 2.118 13.87 1.25 12 1.25m.368 5.096a.75.75 0 0 0-.736 0l-4 2.25a.75.75 0 0 0-.382.654v4.5c0 .271.146.52.382.654l4 2.25a.75.75 0 0 0 .736 0l4-2.25a.75.75 0 0 0 .382-.654v-4.5a.75.75 0 0 0-.382-.654zM11.25 11.94l-2.5-1.407v2.78l2.5 1.406zm4 1.372-2.5 1.407v-2.78l2.5-1.406zm-.78-4.061L12 10.64 9.53 9.25 12 7.86z" clip-rule="evenodd"/></svg>