<svg xmlns="http://www.w3.org/2000/svg" fill="none" viewBox="0 0 24 24"><path fill="currentColor" fill-rule="evenodd" d="M12 1.25s-.839.5-1.057.616c-.436.231-1.072.546-1.86.877-1.582.663-3.756 1.38-6.158 1.618l-.675.067v6.62c0 4.042 2.45 6.959 4.78 8.82a20.3 20.3 0 0 0 3.214 2.084c.437.228 1.756.798 1.756.798s1.319-.57 1.756-.799a20.3 20.3 0 0 0 3.215-2.084c2.33-1.86 4.779-4.777 4.779-8.819v-6.62l-.675-.067c-2.402-.238-4.576-.955-6.158-1.618a23 23 0 0 1-1.86-.877A51 51 0 0 1 12 1.25M10 11.5a2 2 0 1 1 4 0 2 2 0 0 1-4 0m2-4a4 4 0 1 0 0 8 4 4 0 0 0 0-8" clip-rule="evenodd"/></svg>