<svg xmlns="http://www.w3.org/2000/svg" fill="none" viewBox="0 0 24 24"><path fill="currentColor" fill-rule="evenodd" d="M12.019 1.25q-.713 0-1.4.09l.194 1.49a9.3 9.3 0 0 1 2.412 0l.194-1.49q-.688-.09-1.4-.09m6.533 2.217a10.7 10.7 0 0 0-2.425-1.402l-.576 1.387a9.2 9.2 0 0 1 2.086 1.207zM7.911 2.065a10.7 10.7 0 0 0-2.426 1.402l.916 1.192a9.2 9.2 0 0 1 2.085-1.207zm14.024 5.808a10.7 10.7 0 0 0-1.402-2.425l-1.192.915a9.2 9.2 0 0 1 1.207 2.086zM3.505 5.448a10.7 10.7 0 0 0-1.403 2.425l1.388.576c.31-.75.718-1.45 1.206-2.086zM1.378 10.58q-.09.688-.09 1.4c0 .401-.018.799-.037 1.208l-.001.03 1.5.067.003-.042c.018-.4.037-.827.037-1.263q0-.614.078-1.206zm21.372 1.4q0-.712-.09-1.4l-1.49.194a9.3 9.3 0 0 1 0 2.412l1.49.195q.09-.689.09-1.4m-2.217 6.534a10.7 10.7 0 0 0 1.402-2.426l-1.387-.575a9.2 9.2 0 0 1-1.207 2.085zM1.358 15.94c.083.4.213.797.41 1.185l-.102 1.019 1.495.15.124-1.248a.75.75 0 0 0-.097-.45 3.2 3.2 0 0 1-.36-.964zm14.769 5.958a10.7 10.7 0 0 0 2.425-1.403l-.915-1.191a9.2 9.2 0 0 1-2.086 1.206zm-14.71-1.259-.126 1.248a.75.75 0 0 0 .822.822l1.248-.125-.15-1.495-.333.033.033-.334zm5.988.173a.75.75 0 0 0-.451-.097l-1.247.125.149 1.494 1.018-.101c.39.196.786.326 1.186.41l.308-1.47a3.2 3.2 0 0 1-.963-.361m4.614 1.9q.712 0 1.4-.09l-.194-1.49a9 9 0 0 1-1.206.078c-.436 0-.863.02-1.264.037l-.04.002.067 1.501.029-.001c.41-.019.807-.037 1.208-.037M12 4.25A7.75 7.75 0 0 0 4.25 12c0 1.315.382 2.537.944 3.592l-.915 3.202a.75.75 0 0 0 .927.927l3.202-.915c1.055.562 2.277.944 3.592.944a7.75 7.75 0 0 0 0-15.5" clip-rule="evenodd"/></svg>