<svg xmlns="http://www.w3.org/2000/svg" fill="none" viewBox="0 0 24 24"><path fill="currentColor" fill-rule="evenodd" d="M15.113 1.25c-2.098 0-4.031.775-5.625 2.071l1.262 1.552c1.28-1.04 2.776-1.623 4.363-1.623 1.591 0 3.092.586 4.374 1.633l1.265-1.55c-1.596-1.303-3.535-2.083-5.64-2.083m0 4.2a6.1 6.1 0 0 0-3.24.942l1.054 1.7a4.1 4.1 0 0 1 2.186-.641c.777 0 1.52.227 2.195.648L18.366 6.4a6.1 6.1 0 0 0-3.253-.95m-.992 4.8c0-.552.446-1 .997-1h.006a1 1 0 0 1 0 2h-.006a1 1 0 0 1-.997-1m-5.168-5H4a.75.75 0 0 0-.75.75v16c0 .414.336.75.75.75h11a.75.75 0 0 0 .75-.75v-9.329q-.3.079-.625.079h-.006a2.5 2.5 0 0 1-2.497-2.5zM8.5 18h2v2h-2z" clip-rule="evenodd"/></svg>