<svg xmlns="http://www.w3.org/2000/svg" fill="none" viewBox="0 0 24 24"><path fill="currentColor" fill-rule="evenodd" d="M5.902 2.75 4.424 4.524a.75.75 0 0 0-.174.48v14a.75.75 0 0 0 .174.48l2.5 3a.75.75 0 0 0 .576.27h9a.75.75 0 0 0 .576-.27l2.5-3a.75.75 0 0 0 .174-.48v-14a.75.75 0 0 0-.174-.48L18.098 2.75H19v-1.5H5v1.5zm1.952 0h8.292l2.104 2.525H5.75zM18.25 18.732l-2.101 2.522H7.85l-2.1-2.522zm-9.5-6.728a3.25 3.25 0 1 1 6.5 0 3.25 3.25 0 0 1-6.5 0m3.25-1.75a1.75 1.75 0 1 0 0 3.5 1.75 1.75 0 0 0 0-3.5" clip-rule="evenodd"/></svg>