<svg xmlns="http://www.w3.org/2000/svg" fill="none" viewBox="0 0 24 24"><path fill="currentColor" fill-rule="evenodd" d="m13.546 2.122-2.088 2.924h4l-3.783 5.296-1.221-.871 2.089-2.925h-4l3.783-5.296zM11.25 19.75h1.5v1.5h2v1.5h-5.5v-1.5h2zM5.5 8.25h3.982l-1.12 1.569 2.888 2.063v1.368H3.664l1.108-4.432A.75.75 0 0 1 5.5 8.25m7.25 5v-1.833l2.262-3.167H18.5a.75.75 0 0 1 .728.568l1.108 4.432zm7.96 1.5h-7.96v5H21a.75.75 0 0 0 .728-.932zm-9.46 5v-5H3.29l-1.018 4.068A.75.75 0 0 0 3 19.75z" clip-rule="evenodd"/></svg>