<svg xmlns="http://www.w3.org/2000/svg" fill="none" viewBox="0 0 24 24"><path fill="currentColor" fill-rule="evenodd" d="M8.665 13.854a3 3 0 0 1-.464.156l-.02.005c-.448.112-.81.202-1.081.28-.231.066-.551.163-.794.332-.23.159-.484.372-.663.692a2.06 2.06 0 0 0-.242.93c-.014.28.054.547.111.746.06.209.149.468.251.767l.008.023c.113.329.185.54.23.696q.03.103.033.13v.01l-.01.007-.008.003a3 3 0 0 1-.233.074c-.233.067-.56.149-1.033.266-1.172.293-1.956.857-2.5 1.455l1.5 1.324c.313-.339.764-.659 1.484-.838l.02-.005c.447-.112.81-.202 1.081-.28.23-.066.55-.163.794-.332.23-.16.484-.372.663-.692.18-.323.228-.65.242-.93a2.3 2.3 0 0 0-.111-.746c-.06-.209-.15-.468-.252-.767l-.008-.023c-.112-.329-.184-.54-.23-.696q-.028-.103-.032-.13v-.01l.01-.007.008-.003c.045-.017.118-.04.233-.074.233-.067.56-.148 1.033-.266.548-.137 1.038-.35 1.435-.636 1.054.83 2.269 1.362 3.57 1.428 1.644.082 3.306-.587 4.823-2.104 1.512-1.512 2.585-3.671 3.02-5.72.426-2 .291-4.166-.997-5.454-1.289-1.289-3.454-1.423-5.454-.998-2.05.435-4.209 1.508-5.72 3.02-1.518 1.517-2.187 3.18-2.104 4.823.064 1.29.588 2.496 1.407 3.544" clip-rule="evenodd"/></svg>