<svg xmlns="http://www.w3.org/2000/svg" fill="none" viewBox="0 0 24 24"><path fill="currentColor" fill-rule="evenodd" d="M3 2.25a.75.75 0 0 0-.75.75v18c0 .414.336.75.75.75h18a.75.75 0 0 0 .75-.75V3a.75.75 0 0 0-.75-.75zM15.5 6c-1.267 0-2.5.937-2.5 2.333h2c0-.05.021-.122.104-.195A.6.6 0 0 1 15.5 8c.175 0 .312.063.396.138.083.073.104.144.104.195 0 .055-.028.15-.155.235l-2.4 1.6A1 1 0 0 0 14 12h4v-2h-.75c.461-.422.75-1.013.75-1.667C18 6.937 16.767 6 15.5 6m-9.147 6c.322 0 .504 0 .64.012a1 1 0 0 1 .115.016.3.3 0 0 1 .093.068c.005.007.028.04.068.128.061.133.129.316.244.629l.383 1.04c-.365.6-.699 1.118-1.042 1.514C6.42 15.905 6.15 16 6 16v2c1.043 0 1.82-.655 2.364-1.282q.2-.233.391-.491.078.205.156.378c.105.23.238.468.446.684.197.206.431.375.69.496.277.13.547.176.798.197.227.018.492.018.77.018h.032v-2c-.322 0-.504 0-.64-.012a1 1 0 0 1-.115-.016.3.3 0 0 1-.092-.068.7.7 0 0 1-.07-.128 10 10 0 0 1-.243-.629l-.383-1.04c.365-.6.699-1.118 1.042-1.514.432-.498.703-.593.854-.593v-2c-1.043 0-1.82.656-2.364 1.282a8 8 0 0 0-.391.491 7 7 0 0 0-.156-.378 2.4 2.4 0 0 0-.446-.684 2.3 2.3 0 0 0-.691-.496 2.3 2.3 0 0 0-.798-.197C6.929 10 6.664 10 6.385 10h-.032z" clip-rule="evenodd"/></svg>