<svg xmlns="http://www.w3.org/2000/svg" fill="none" viewBox="0 0 24 24"><path fill="currentColor" fill-rule="evenodd" d="M11.996 1.25c-2.48 0-4.53 1.962-4.53 4.426 0 1.166.47 2.052.94 2.943l.12.227c.56 1.082.58 1.962.27 2.659-.33.72-1.07 1.404-2.36 1.923-2.38.961-3.69 2.448-3.69 4.072v1.75h1.5v2.501c0 .552.44.999.97.999h13.56c.54 0 .97-.448.97-1v-2.5h1.5V17.5c0-.889-.27-1.709-.91-2.428-.62-.695-1.55-1.249-2.79-1.719-1.28-.484-2.02-1.155-2.34-1.866-.31-.693-.29-1.572.27-2.64l.12-.227c.46-.89.93-1.776.93-2.944 0-2.464-2.05-4.426-4.53-4.426m5.81 18H6.186v1.5h11.62z" clip-rule="evenodd"/></svg>