<svg xmlns="http://www.w3.org/2000/svg" fill="none" viewBox="0 0 24 24"><path fill="currentColor" fill-rule="evenodd" d="M1.25 12C1.25 6.063 6.063 1.25 12 1.25S22.75 6.063 22.75 12 17.937 22.75 12 22.75 1.25 17.937 1.25 12M12 10c-.29 0-1.264 0-3.16.717-1.281.484-2.693.144-3.66-.263a7 7 0 0 0-.056 2.825c2.114.426 5.182 1.643 5.347 5.552a7 7 0 0 0 3.058.003c.164-3.921 3.248-5.135 5.363-5.558a7 7 0 0 0-.057-2.828c-.968.41-2.387.756-3.676.269C13.265 10 12.29 10 12 10m.005 4.25c.687 0 1.245-.56 1.245-1.25s-.558-1.25-1.245-1.25h-.01c-.687 0-1.245.56-1.245 1.25s.558 1.25 1.245 1.25z" clip-rule="evenodd"/></svg>