<svg xmlns="http://www.w3.org/2000/svg" fill="none" viewBox="0 0 24 24"><path fill="currentColor" fill-rule="evenodd" d="M22.75 7.8V8a3.75 3.75 0 0 1-6.813 2.165 4 4 0 0 1-.828.713c-.91.593-2.059.872-3.109.872s-2.199-.279-3.109-.872a4 4 0 0 1-.828-.713 3.75 3.75 0 0 1-3.863 1.5v8.137H12v1.95H3.225a.975.975 0 0 1-.975-.975V10.549c-.62-.669-1-1.564-1-2.549v-.2l2-3.5V1.25h17.5V4.3zm-9.5 8.822c0-2.325 1.916-4.184 4.25-4.184s4.25 1.86 4.25 4.184c0 1.326-.624 2.385-1.366 3.26-.473.558-1.063 1.111-1.604 1.619-.269.252-.525.492-.75.717l-.53.53-.53-.53a36 36 0 0 0-.723-.695c-.55-.519-1.149-1.085-1.633-1.66-.738-.876-1.364-1.936-1.364-3.241m2.75.066c0 .828.669 1.5 1.493 1.5h.014c.824 0 1.493-.672 1.493-1.5 0-.829-.669-1.5-1.493-1.5h-.014c-.824 0-1.493.671-1.493 1.5M6 18h5v-2H6z" clip-rule="evenodd"/></svg>