<svg xmlns="http://www.w3.org/2000/svg" fill="none" viewBox="0 0 24 24"><path fill="currentColor" fill-rule="evenodd" d="M22.75 8.5v-.2l-2-3.5V1.75H3.25V4.8l-2 3.5v.2c0 .985.38 1.88 1 2.55v10.227c0 .538.437.975.975.975H13v-1.95H4.2v-8.137q.387.085.8.085a3.75 3.75 0 0 0 3.063-1.585c.24.276.523.514.828.713.91.593 2.059.872 3.109.872s2.199-.279 3.108-.872c.306-.199.588-.437.83-.713a3.75 3.75 0 0 0 3.862 1.5v1.337h1.95v-2.453c.62-.668 1-1.564 1-2.549M11 18.5H6v-2h5zm8.25 3.75v-2.5h2.5v-2h-2.5v-2.5h-2v2.5h-2.5v2h2.5v2.5z" clip-rule="evenodd"/></svg>