<svg xmlns="http://www.w3.org/2000/svg" fill="none" viewBox="0 0 24 24"><path fill="currentColor" fill-rule="evenodd" d="M2 5.5a3.5 3.5 0 1 1 7 0 3.5 3.5 0 0 1-7 0m15.793-1.703L22 8.004l-4.207 4.207-1.414-1.414 1.7-1.7c-7.038.537-10.177 3.334-12.007 5.977a12 12 0 0 0-1.816 4.124 11 11 0 0 0-.226 1.346 7 7 0 0 0-.03.445v.017s0-.002-1-.002l-1-.001v-.059l.005-.132q.008-.168.035-.465c.039-.392.115-.942.267-1.599.302-1.31.907-3.06 2.12-4.813 2.25-3.248 6.054-6.339 13.82-6.855L16.38 5.21zM13.707 22l1.793-1.793L17.293 22l1.414-1.414-1.793-1.793L18.707 17l-1.414-1.414-1.793 1.793-1.793-1.793L12.293 17l1.793 1.793-1.793 1.793z" clip-rule="evenodd"/></svg>