<svg xmlns="http://www.w3.org/2000/svg" fill="none" viewBox="0 0 24 24"><path fill="currentColor" fill-rule="evenodd" d="M1.25 21.5v-10h1.955v3.641c1.668.728 3.154.003 4.596-.7l.22-.108c1.576-.764 3.105-1.411 4.769 0 2.308 1.923 4.417 1.08 6.55.229.483-.193.968-.387 1.456-.548V11.5h1.954v10c0 .552-.437 1-.977 1H2.227a.99.99 0 0 1-.977-1M6 3V1.5h2V3zm5 0V1.5h2V3zm5 0V1.5h2V3zM6 6V4.5h2V6zm5 0V4.5h2V6zm5 0V4.5h2V6zM6 9V7.5h2V9zm10 0V7.5h2V9zm-8.524 4.208-.223.108a4.75 4.75 0 1 1 9.454.826l-.09.019c-1.004.202-1.943.113-3.023-.785-1.086-.92-2.22-1.218-3.35-1.102-1.036.106-2 .562-2.768.934" clip-rule="evenodd"/></svg>