<svg xmlns="http://www.w3.org/2000/svg" fill="none" viewBox="0 0 24 24"><path fill="currentColor" fill-rule="evenodd" d="M3.97 3.074a4.9 4.9 0 0 1 1.735-.723V1.25h2v1.101c.96.198 1.82.674 2.49 1.338a6.25 6.25 0 0 1 8.553 5.614A5.251 5.251 0 0 1 18 19.75h-1.694l2.084-3.51h-3l.602-1.014-4.299-2.553L7.49 19.75a5.75 5.75 0 0 1-4.557-9.244A5 5 0 0 1 1.835 8.25H.75v-2h1.085a5 5 0 0 1 .724-1.758l-.774-.78 1.42-1.409zm.438 6.078a5.7 5.7 0 0 1 1.945-.787c.26-1.42 1-2.671 2.045-3.58a2.93 2.93 0 0 0-1.693-.535c-1.633 0-2.97 1.336-2.97 3 0 .723.252 1.384.673 1.902m7.81 5.575 1.72 1.02-1.182 1.99h3l-2.975 5.01-1.72-1.02 1.182-1.99h-3z" clip-rule="evenodd"/></svg>