<svg xmlns="http://www.w3.org/2000/svg" fill="none" viewBox="0 0 24 24"><path fill="currentColor" fill-rule="evenodd" d="M5.705 2.851a4.9 4.9 0 0 0-1.735.723l-.766-.77-1.42 1.408.775.78a5 5 0 0 0-.724 1.758H.75v2h1.085a5 5 0 0 0 1.202 2.374A5.75 5.75 0 0 0 7.5 20.5h.499a4.7 4.7 0 0 1-.249-1.496c0-1.917 1.16-3.344 1.908-4.093a10 10 0 0 1 1.12-.959l1.722-1.12s1.648 1.066 1.722 1.12c.3.22.705.544 1.12.959.748.749 1.908 2.176 1.908 4.093a4.7 4.7 0 0 1-.248 1.496H18a5.25 5.25 0 0 0 .747-10.447 6.25 6.25 0 0 0-8.377-5.68A4.96 4.96 0 0 0 7.705 2.85v-1.1h-2zm2.85 2.551a2.94 2.94 0 0 0-1.85-.652c-1.633 0-2.97 1.336-2.97 3 0 .8.31 1.526.815 2.064a5.7 5.7 0 0 1 1.803-.7 6.25 6.25 0 0 1 2.202-3.712m3.945 9.223.177.112c.219.138.565.356.657.424.256.188.6.462.947.809.666.667 1.469 1.726 1.469 3.033 0 1.582-1.222 3.247-3.25 3.247s-3.25-1.665-3.25-3.247c0-1.307.803-2.366 1.47-3.033a8 8 0 0 1 .946-.81c.092-.067.438-.285.657-.423z" clip-rule="evenodd"/></svg>