<svg xmlns="http://www.w3.org/2000/svg" fill="none" viewBox="0 0 24 24"><path fill="currentColor" fill-rule="evenodd" d="M10.807 1.992c.12-.256.295-.536.53-.742l1.323 1.499.018-.017.003-.003-.002.004a1 1 0 0 0-.063.112 1.3 1.3 0 0 0-.108.365c-.036.265.025.428.152.54l-1.324 1.499c-.778-.688-.905-1.609-.81-2.31.048-.35.153-.675.281-.947m.508 18.237.002.002.001.001.014.013.004.004 1.324-1.499c.234.206.409.486.53.742.128.272.232.597.28.947.096.701-.031 1.622-.81 2.31l-1.324-1.499c.127-.112.189-.275.153-.54a1.3 1.3 0 0 0-.109-.365c-.031-.067-.055-.101-.062-.112zM6.25 12a5.75 5.75 0 1 1 11.5 0 5.75 5.75 0 0 1-11.5 0m12.885-8.072a2.3 2.3 0 0 0-.898.15 3.3 3.3 0 0 0-.869.472c-.564.428-1.125 1.169-1.06 2.206l1.995-.124c-.01-.169.061-.327.275-.49a1.3 1.3 0 0 1 .334-.181c.07-.025.111-.032.124-.035h.004-.004l-.025-.002zM5.699 17.338v-.005.001l-.001.004a1 1 0 0 1-.035.123c-.038.107-.1.228-.181.335-.163.213-.321.285-.49.274l-.124 1.996c1.037.065 1.778-.497 2.206-1.06.214-.282.37-.586.471-.869.096-.265.17-.587.15-.898l-1.995.123zm16.308-6.53c.255.12.535.296.742.53l-1.499 1.324.02.02h-.002l-.002-.002a1 1 0 0 0-.112-.063 1.3 1.3 0 0 0-.365-.108c-.265-.036-.428.025-.54.152l-1.499-1.324c.688-.778 1.609-.905 2.31-.81.35.048.675.153.947.282m-18.237.508-.003.003-.017.018 1.499 1.325a2.3 2.3 0 0 1-.742.528 3.3 3.3 0 0 1-.947.281c-.701.096-1.622-.03-2.31-.81l1.499-1.324c.112.127.275.189.54.153a1.3 1.3 0 0 0 .365-.108 1 1 0 0 0 .112-.063zm16.297 7.815a2.3 2.3 0 0 0-.15-.898 3.3 3.3 0 0 0-.472-.869c-.428-.563-1.169-1.125-2.206-1.06l.124 1.996c.169-.01.328.06.49.274.08.107.143.228.181.335.025.069.032.11.035.123v.004-.003l.002-.025zM6.657 5.696h.004l-.004-.001a1 1 0 0 1-.123-.035 1.3 1.3 0 0 1-.335-.181c-.213-.162-.285-.32-.274-.49l-1.996-.123c-.065 1.036.497 1.777 1.06 2.205.282.214.586.37.869.472.265.095.587.17.898.15l-.123-1.996z" clip-rule="evenodd"/></svg>