<svg xmlns="http://www.w3.org/2000/svg" fill="none" viewBox="0 0 24 24"><path fill="currentColor" fill-rule="evenodd" d="M3.97 2.574a4.9 4.9 0 0 1 1.735-.723V.75h2v1.101c.96.198 1.82.674 2.49 1.338a6.25 6.25 0 0 1 8.553 5.614 5.251 5.251 0 0 1 .849 10.2 2.5 2.5 0 0 0-1.66-.19q.061-.272.063-.563a2.5 2.5 0 0 0-3.064-2.436q.063-.272.064-.564a2.5 2.5 0 1 0-4.936.564 2.5 2.5 0 0 0-3 3 2.5 2.5 0 0 0-1.48.11 5.752 5.752 0 0 1-2.65-8.918 5 5 0 0 1-1.1-2.256H.75v-2h1.085a5 5 0 0 1 .724-1.758l-.774-.78 1.42-1.409zm.438 6.078a5.7 5.7 0 0 1 1.945-.787c.26-1.42 1-2.671 2.045-3.58a2.93 2.93 0 0 0-1.693-.535c-1.633 0-2.97 1.336-2.97 3 0 .723.252 1.384.673 1.902M13.5 15.25a1 1 0 1 1-2 0 1 1 0 0 1 2 0m-3 3a1 1 0 1 1-2 0 1 1 0 0 1 2 0m2 5a1 1 0 1 0 0-2 1 1 0 0 0 0 2m3-4a1 1 0 1 0 0-2 1 1 0 0 0 0 2m-9 3a1 1 0 1 0 0-2 1 1 0 0 0 0 2m13-1a1 1 0 1 1-2 0 1 1 0 0 1 2 0" clip-rule="evenodd"/></svg>