<svg xmlns="http://www.w3.org/2000/svg" fill="none" viewBox="0 0 24 24"><path fill="currentColor" fill-rule="evenodd" d="m3.78 9.047.813 2.37q.188.074.358.183c.367.237.61.563.77.904.304.647.336 1.424.336 1.996h-1.5c0-.568-.045-1.042-.194-1.36a.64.64 0 0 0-.226-.28c-.082-.053-.225-.11-.483-.11-.583 0-.976.498-.891.992l.422 2.46c.1.589.635 1.048 1.292 1.048h1.477l.205.42c1.032 2.11 3.254 3.58 5.842 3.58s4.809-1.47 5.84-3.58l.206-.42h1.477c.657 0 1.191-.46 1.292-1.048l.422-2.46c.085-.494-.308-.992-.89-.992-.259 0-.402.057-.484.11a.63.63 0 0 0-.226.28c-.149.318-.194.792-.194 1.36h-1.5c0-.572.033-1.349.336-1.996.16-.34.403-.667.77-.904q.17-.109.357-.183l.814-2.37C19.327 5.445 15.976 2.75 12 2.75S4.674 5.445 3.78 9.047m-1.557.083.759 2.214c-1.123.32-1.909 1.423-1.698 2.652l.422 2.46c.23 1.34 1.415 2.294 2.771 2.294h.557c1.36 2.39 3.975 4 6.967 4s5.606-1.61 6.966-4h.557c1.356 0 2.54-.955 2.77-2.294l.423-2.46c.21-1.23-.576-2.332-1.699-2.653l.76-2.213-.046-.206c-.97-4.4-4.99-7.674-9.732-7.674-4.743 0-8.76 3.274-9.732 7.674zM12 8.75c-2.08 0-4 .687-5.55 1.85l-.9-1.2a10.8 10.8 0 0 1 2.7-1.477c.019-1.167.473-2.098 1.188-2.734.717-.637 1.651-.939 2.561-.939s1.844.302 2.56.94c.715.635 1.17 1.565 1.19 2.733.974.363 1.882.863 2.7 1.477l-.9 1.2A9.2 9.2 0 0 0 12 8.75m2.203-1.274a2 2 0 0 0-.64-1.165c-.408-.363-.974-.561-1.564-.561s-1.156.198-1.564.56a2 2 0 0 0-.64 1.167 10.8 10.8 0 0 1 4.408 0M9.008 14a1 1 0 1 0 0-2h-.01a1 1 0 1 0 0 2zm7-1a1 1 0 0 1-1 1h-.01a1 1 0 1 1 0-2h.01a1 1 0 0 1 1 1m-3.516 3.433L12 16.008l-.491.425c-.301.26-.701.348-1.125.308-.445-.043-.787-.216-.893-.308l-.982 1.134c.393.34 1.052.601 1.731.667.544.052 1.177-.014 1.76-.328.583.314 1.216.38 1.76.328.679-.066 1.337-.326 1.73-.667l-.981-1.134c-.107.092-.448.265-.894.308-.423.04-.823-.047-1.124-.308" clip-rule="evenodd"/></svg>