<svg xmlns="http://www.w3.org/2000/svg" fill="none" viewBox="0 0 24 24"><path fill="currentColor" fill-rule="evenodd" d="M11.59 21.576c1.268.174 2.77.263 4.22.047-2.799-1.796-5.167-4.692-5.589-8.798-.776 1.055-1.363 2.241-1.796 3.299a23 23 0 0 0-1.09 3.415c-.016.067-.097.467-.15.73l-.046.228.22.074h.001c.254.085.642.215.708.235a23.6 23.6 0 0 0 3.522.77m8.852-2.228c-1.913-1.022-3.323-2.337-4.207-3.979-.906-1.685-1.222-3.648-1.036-5.861-.834.216-1.696.572-2.567 1.071-.345.198-.67.43-.975.687-.095 4.944 2.849 8.127 6.2 9.797a6 6 0 0 0 .667-.332c.732-.42 1.372-.884 1.918-1.383m1.046-1.148c-1.894-.942-3.17-2.125-3.931-3.541-.783-1.455-1.066-3.232-.827-5.397a6.6 6.6 0 0 1 1.43.07c1.67.27 3.035 1.205 3.86 2.625.826 1.42.961 3.064.36 4.64a6.6 6.6 0 0 1-.892 1.603M10.373 9.452c.07.128.302.613.449.919.059.123.104.217.12.247-.028.018-.113.078-.224.155-.274.19-.707.492-.825.565-.333.203-.803.469-1.35.714-1.047.47-2.557.95-3.924.546-2.476-.732-3.757-2.701-3.265-4.743.239-.99.861-1.796 1.784-2.24.913-.438 2.045-.486 3.273-.123 1.355.4 2.432 1.633 3.122 2.609.36.509.645.994.84 1.351m4.629-.525-.179-.134c-.213-.16-.545-.407-.617-.468a9 9 0 0 1-.752-.712 5.7 5.7 0 0 1-.792-1.05c-.224-.395-.41-.875-.41-1.396 0-.857.281-1.597.8-2.127.517-.527 1.217-.79 1.95-.79s1.433.263 1.95.79c.518.53.8 1.27.8 2.127 0 .521-.187 1.001-.41 1.395a5.7 5.7 0 0 1-.792 1.05c-.276.297-.55.542-.753.713-.072.06-.403.309-.617.468z" clip-rule="evenodd"/></svg>