<svg xmlns="http://www.w3.org/2000/svg" fill="none" viewBox="0 0 24 24"><path fill="currentColor" fill-rule="evenodd" d="M5.666 4.75v5.968l-1 1.144-.021.023c-.46.525-.834.953-1.113 1.33-.291.393-.511.773-.637 1.213a3.8 3.8 0 0 0-.144 1.12c.009.378.043.781.211 1.281.164.486.443 1.031.898 1.724v.001l2.733 4.196H15.5A3.75 3.75 0 0 0 19.25 19v-6a3.75 3.75 0 0 0-3.75-3.75h-4.834v-4.5a2.5 2.5 0 1 0-5 0m15.584-.293L18.043 1.25l-3.207 3.207 1.414 1.414.793-.793v3.586h2V5.078l.793.793z" clip-rule="evenodd"/></svg>