<svg xmlns="http://www.w3.org/2000/svg" fill="none" viewBox="0 0 24 24"><path fill="currentColor" fill-rule="evenodd" d="M10.95 2.102a8.5 8.5 0 0 0-2.934.984C5.786 4.344 3.75 6.945 3.75 11.998s2.036 7.654 4.266 8.912a8.5 8.5 0 0 0 2.934.985c.39.064 1.362.166 2.132.057a8.8 8.8 0 0 0 1.99-.405c1.566-.515 3.443-1.644 4.611-4.044l.023-.049.018-.05c.396-1.099.589-2.85-.421-4.366-.526-.788-1.319-1.428-2.419-1.868-.048-.787-.222-1.486-.507-2.093-.51-1.088-1.35-1.812-2.304-2.183-1.828-.713-4.131-.123-5.17 1.601l1.719 1.027c.464-.771 1.669-1.18 2.721-.769.487.19.932.558 1.219 1.17.096.203.177.44.235.715-.987-.172-2.168-.127-2.636-.083a5.3 5.3 0 0 0-1.28.34c-.48.198-1.014.518-1.431 1.038-.43.536-.69 1.226-.69 2.066 0 1.658 1.594 2.995 3.508 2.995 1.88 0 3.986-1.256 4.468-3.677.431.259.713.55.897.825.524.786.48 1.789.222 2.54-.88 1.771-2.244 2.585-3.412 2.97a6.8 6.8 0 0 1-1.53.311 11 11 0 0 1-1.676-.044 6.4 6.4 0 0 1-2.233-.746c-1.528-.862-3.25-2.751-3.25-7.175s1.722-6.313 3.25-7.175a6.4 6.4 0 0 1 2.233-.745c.36-.04 1.226-.1 1.797-.032.464.05 1.096.17 1.766.445 1.303.537 2.815 1.684 3.514 4.278l1.936-.518c-.88-3.263-2.876-4.86-4.685-5.605a8.5 8.5 0 0 0-2.316-.585c-.771-.127-1.854-.026-2.299.04m.702 10.637a3.3 3.3 0 0 1 .786-.206 8.4 8.4 0 0 1 2.377.129c-.237 1.418-1.46 2.337-2.546 2.337-1.093 0-1.503-.707-1.503-.998 0-.407.116-.653.25-.82.146-.18.363-.329.636-.442" clip-rule="evenodd"/></svg>