<svg xmlns="http://www.w3.org/2000/svg" fill="none" viewBox="0 0 24 24"><path fill="currentColor" fill-rule="evenodd" d="M20.796 12A8.795 8.795 0 0 0 12 3.205V1.25c5.937 0 10.75 4.813 10.75 10.75S17.937 22.75 12 22.75v-1.954A8.796 8.796 0 0 0 20.796 12M10.092 3.31l-.92.328q-.36.13-.706.286l-.89.405-.809-1.78.89-.404q.42-.19.857-.347l.92-.33zM6.954 4.73l-.735.644a9 9 0 0 0-.575.55l-.675.707L3.556 5.28l.675-.706q.334-.35.7-.67l.734-.644zM4.546 7.227l-.436.875a9 9 0 0 0-.427 1.016l-.321.923L1.516 9.4l.32-.923q.225-.642.525-1.245l.435-.875zm-1.272 3.26-.055.975c-.02.342-.02.692.002 1.034l.059.976-1.951.118-.06-.975a11 11 0 0 1-.002-1.264l.056-.976zm.102 3.457.328.921q.175.493.406.957l.436.875-1.75.871-.435-.875q-.284-.569-.499-1.173l-.328-.92zm1.528 3.266.667.714q.324.346.682.658l.738.64-1.28 1.477-.739-.641q-.435-.379-.83-.8l-.666-.714zm2.51 2.29.88.421q.524.252 1.082.436l.927.308-.615 1.855-.927-.307q-.677-.225-1.311-.529l-.881-.422zM13 6v3.984a2.25 2.25 0 0 1 0 4.032V16h-2v-1.984a2.25 2.25 0 0 1 0-4.032V6z" clip-rule="evenodd"/></svg>