<svg xmlns="http://www.w3.org/2000/svg" fill="none" viewBox="0 0 24 24"><path fill="currentColor" fill-rule="evenodd" d="M9.14 2.913h1.905v1.061A9.5 9.5 0 0 0 7.56 5.23L6.484 4.15 5.137 5.5l.877.88a9.52 9.52 0 0 0-3.056 5.99l1.893.21c.42-3.818 3.697-6.8 7.625-6.8 4.208 0 7.62 3.425 7.62 7.651 0 4.227-3.412 7.653-7.62 7.653H2v1.913h10.476c5.26 0 9.524-4.283 9.524-9.566a9.56 9.56 0 0 0-3.073-7.037l.89-.894-1.347-1.353-1.082 1.088a9.44 9.44 0 0 0-4.438-1.357v-.966h1.905V1H9.14zm2.858 8.128c.307 0 .6.058.87.165l2.266-2.276 1.347 1.352-2.266 2.277c.106.27.164.565.164.873A2.386 2.386 0 0 1 12 15.823a2.386 2.386 0 0 1-2.382-2.39 2.386 2.386 0 0 1 2.381-2.392m-7.14 5.263H2V14.39h2.857zM2 19.655h4.762v-1.913H2z" clip-rule="evenodd"/></svg>