<svg xmlns="http://www.w3.org/2000/svg" fill="none" viewBox="0 0 24 24"><path fill="currentColor" fill-rule="evenodd" d="m15.4 1.56-.92-.31-.63 1.85.93.31q.48.165.96.39l.88.43.84-1.76-.88-.43c-.38-.18-.77-.34-1.18-.48M12 1.25C6.06 1.25 1.25 6.06 1.25 12S6.06 22.75 12 22.75 22.75 17.94 22.75 12v-.98H20.8V12A8.8 8.8 0 1 1 12 3.2h.98V1.25zm7.19 2.53-.74-.65-1.29 1.47.73.64c.16.14.31.28.45.43.113.105.22.222.326.337l.104.113.65.73 1.46-1.29-.64-.73a13 13 0 0 0-1.05-1.05m2.76 3.61-.43-.88-1.76.85.43.88c.15.32.28.63.39.96l.32.92 1.85-.63-.32-.92c-.13-.4-.29-.8-.48-1.18M13 11V5h-2v8h6v-2z" clip-rule="evenodd"/></svg>