<svg xmlns="http://www.w3.org/2000/svg" fill="none" viewBox="0 0 24 24"><path fill="currentColor" fill-rule="evenodd" d="M6.75 9.634V3.75a2.5 2.5 0 1 1 5 0v4.998c1.864.063 4.569.638 6.603 2.685.255.257.445.546.583.855a3.75 3.75 0 0 0-5.61 2.462H11.75v8h-5v-2.47l-.112-.13a74 74 0 0 1-.691-.818c-.51-.614-1.13-1.385-1.413-1.851l-.183-.296c-.269-.43-.588-.942-.803-1.465-.281-.681-.436-1.486-.133-2.358.17-.49.515-.98.872-1.406.368-.44.8-.87 1.203-1.242a23 23 0 0 1 1.26-1.08m8 5.866a2.25 2.25 0 0 1 4.5 0v.75h1.5v6.5h-7.5v-6.5h1.5zm3 .75v-.75a.75.75 0 0 0-1.5 0v.75z" clip-rule="evenodd"/></svg>