<svg xmlns="http://www.w3.org/2000/svg" fill="none" viewBox="0 0 24 24"><path fill="currentColor" fill-rule="evenodd" d="M7 16.75a2.5 2.5 0 1 1 0 5 2.5 2.5 0 0 1 0-5m10 0a2.5 2.5 0 1 1 0 5 2.5 2.5 0 0 1 0-5M7.25 2.25a1 1 0 0 1 .874.514l2.899 5.218V6.217c0-.534.437-.967.977-.967h3.91a.98.98 0 0 1 .741.338l5.864 6.766a.96.96 0 0 1 .235.63v5.8a.97.97 0 0 1-.977.966h-1.056q.033-.245.033-.5a3.75 3.75 0 1 0-7.467.5h-2.566q.033-.245.033-.5a3.75 3.75 0 1 0-7.467.5H2.227a.97.97 0 0 1-.977-.967v-5.8c0-.534.438-.966.977-.966h4.895L6.345 4.25H4.75v2.208a2.5 2.5 0 1 1-3.5 2.292h2a.5.5 0 1 0 .5-.5 1 1 0 0 1-1-1v-4a1 1 0 0 1 1-1zm1.477 5.717.405 4.05h1.844zm6.732-.783h-2.482v4.833h6.67z" clip-rule="evenodd"/></svg>