<svg xmlns="http://www.w3.org/2000/svg" fill="none" viewBox="0 0 24 24"><path fill="currentColor" fill-rule="evenodd" d="M2.75 9q.001-.56.095-1.094l4.762 4.762A7.8 7.8 0 0 0 7.25 15v.002A6.25 6.25 0 0 1 2.75 9m5.5 2.19L3.361 6.3a6.28 6.28 0 0 1 2.94-2.939l4.888 4.889a7.8 7.8 0 0 0-2.939 2.94m4.418-3.583L7.906 2.845a6.253 6.253 0 0 1 7.096 4.405H15c-.813 0-1.596.125-2.332.357M15 8.75q.123 0 .245.005a6.4 6.4 0 0 1-.09 1.339l-1.249-1.249Q14.44 8.751 15 8.75m-2.7.611 2.34 2.339a6.28 6.28 0 0 1-2.94 2.94L9.361 12.3a6.28 6.28 0 0 1 2.94-2.94m-3.455 4.545 1.249 1.249a6.3 6.3 0 0 1-1.34.09 6.4 6.4 0 0 1 .091-1.339M9 1.25a7.75 7.75 0 1 0 0 15.5 7.75 7.75 0 0 0 0-15.5m6 21.503a7.75 7.75 0 0 1-7.066-4.56q.526.06 1.065.06a9.25 9.25 0 0 0 9.19-10.315 7.751 7.751 0 0 1-3.19 14.815" clip-rule="evenodd"/></svg>