<svg xmlns="http://www.w3.org/2000/svg" fill="none" viewBox="0 0 24 24"><path fill="currentColor" fill-rule="evenodd" d="M8.655 3.307a3.75 3.75 0 0 1 6.694 0q.318-.057.653-.057a3.75 3.75 0 0 1 3.656 4.587 4.252 4.252 0 0 1-.956 7.741c-.292 1.778-1.828 3.172-3.7 3.172H12.75v-3.44l2.81-2.81-1.06-1.06-1.75 1.75V8.25h-1.5v2.94L9.5 9.44 8.44 10.5l2.81 2.81v5.44h1.5v2.5h2v1.5h-5.5v-1.5h2v-2.5H9.002c-1.872 0-3.408-1.394-3.7-3.172a4.251 4.251 0 0 1-.956-7.741 3.75 3.75 0 0 1 4.31-4.53" clip-rule="evenodd"/></svg>