<svg xmlns="http://www.w3.org/2000/svg" fill="none" viewBox="0 0 24 24"><path fill="currentColor" fill-rule="evenodd" d="M11.023 22.75v-1.954h1.954v1.954zM12 1.25c.355 0 .682.192.854.503l4.285 7.713 1.702-1.277 1.173 1.564-1.917 1.437 4.53 8.154a.977.977 0 0 1-.854 1.451H2.227a.977.977 0 0 1-.854-1.451l4.53-8.154-1.918-1.438 1.173-1.564L6.86 9.465l4.285-7.712c.172-.31.5-.503.854-.503m-1.928 6.46a5.06 5.06 0 0 0 3.855 0l4.075 7.334c-1.505.411-2.685 1.906-2.992 3.797H8.99c-.307-1.891-1.488-3.386-2.993-3.797z" clip-rule="evenodd"/></svg>