<svg xmlns="http://www.w3.org/2000/svg" fill="none" viewBox="0 0 24 24"><path fill="currentColor" fill-rule="evenodd" d="M2.227 3.25a.98.98 0 0 0-.69.284.96.96 0 0 0-.287.685v.936H8.5v4.5h-2v3H1.251v5.126c0 .259.105.507.29.688a.98.98 0 0 0 .697.281h1.045a3.75 3.75 0 1 1 7.434 0h2.566a3.75 3.75 0 1 1 7.434 0h1.056c.54 0 .977-.434.977-.969V11a.96.96 0 0 0-.14-.498l-2.93-4.844a.98.98 0 0 0-.838-.47h-3.91v-.97a.973.973 0 0 0-.976-.968zm12.707 6.781V7.125h3.355l1.76 2.906zM7 20.75a2.5 2.5 0 1 0 0-5 2.5 2.5 0 0 0 0 5m10 0a2.5 2.5 0 1 0 0-5 2.5 2.5 0 0 0 0 5M1.25 8.406h6v-2h-6zm0 3h4v-2h-4z" clip-rule="evenodd"/></svg>