<svg xmlns="http://www.w3.org/2000/svg" fill="none" viewBox="0 0 24 24"><path fill="currentColor" fill-rule="evenodd" d="M7.75 7.5a4.25 4.25 0 1 1 8.5 0 4.25 4.25 0 0 1-8.5 0M4.25 20c0-3.832 3.582-6.75 7.75-6.75s7.75 2.918 7.75 6.75v.75H4.25zM7.231 4.758A5.5 5.5 0 0 0 6.5 7.5a5.48 5.48 0 0 0 1.37 3.632A3.254 3.254 0 0 1 3.75 8a3.25 3.25 0 0 1 3.481-3.242m1.555 7.775c-2.875.98-5.172 3.243-5.68 6.217H1.25V18a5.75 5.75 0 0 1 7.536-5.467m8.215-1.283q-.454-.001-.87-.118A5.48 5.48 0 0 0 17.5 7.5c0-.998-.266-1.935-.731-2.742q.114-.008.23-.008a3.25 3.25 0 0 1 0 6.5m5.75 7.5h-1.855c-.509-2.974-2.806-5.237-5.681-6.217A5.75 5.75 0 0 1 22.75 18z" clip-rule="evenodd"/></svg>