<svg xmlns="http://www.w3.org/2000/svg" fill="none" viewBox="0 0 24 24"><path fill="currentColor" fill-rule="evenodd" d="M3.749 4a2.75 2.75 0 1 1 5.5 0 2.75 2.75 0 0 1-5.5 0M1.25 12c0-2.704 2.436-4.75 5.25-4.75s5.25 2.046 5.25 4.75v.75H1.25zm13.499 2a2.75 2.75 0 1 1 5.5 0 2.75 2.75 0 0 1-5.5 0m-2.499 8c0-2.704 2.436-4.75 5.25-4.75s5.25 2.046 5.25 4.75v.75h-10.5zm1.17-19.475A.75.75 0 0 1 14 2.25 6.746 6.746 0 0 1 20.75 9h-1.5a5.246 5.246 0 0 0-4.319-5.168l.304 1.52-1.47.295-.5-2.5a.75.75 0 0 1 .155-.622M10 21.75A6.746 6.746 0 0 1 3.25 15h1.5a5.246 5.246 0 0 0 4.319 5.168l-.304-1.52 1.47-.295.5 2.5a.75.75 0 0 1-.735.897" clip-rule="evenodd"/></svg>