<svg xmlns="http://www.w3.org/2000/svg" fill="none" viewBox="0 0 24 24"><path fill="currentColor" fill-rule="evenodd" d="M9.5 2.25C7.023 2.25 5 4.237 5 6.706s2.023 4.456 4.5 4.456S14 9.175 14 6.706 11.977 2.25 9.5 2.25m0 10.588c-4.548 0-8.25 3.646-8.25 8.162v.75h16.5V21c0-4.516-3.702-8.162-8.25-8.162M19 7.25c-.738 0-1.313.299-1.728.515-.45.233-.767.385-1.11.385h-.587l-.14.57c-.356 1.436-.19 2.8.43 3.888.622 1.094 1.675 1.86 2.985 2.127l.15.03.15-.03c1.31-.267 2.362-1.033 2.985-2.126.62-1.09.786-2.453.43-3.889l-.14-.57h-.587c-.342 0-.656-.15-1.106-.384-.416-.216-.992-.516-1.732-.516" clip-rule="evenodd"/></svg>