<svg xmlns="http://www.w3.org/2000/svg" fill="none" viewBox="0 0 24 24"><path fill="currentColor" fill-rule="evenodd" d="M4.5 1.25h7a1.5 1.5 0 1 1 0 3h-7a1.5 1.5 0 1 1 0-3m12.572 9.41a4.5 4.5 0 0 0-.695 1.538 4.5 4.5 0 0 0-1.195-.179c-.998 0-1.99.648-2.696 1.56-.727.94-1.236 2.256-1.236 3.806 0 3.283 2.933 5.365 5.75 5.365s5.75-2.082 5.75-5.365c0-1.55-.51-2.866-1.236-3.806-.707-.912-1.698-1.56-2.696-1.56-.294 0-.58.038-.841.092.082-.204.188-.4.315-.578.343-.48.816-.783 1.435-.783v-1.5c-1.198 0-2.09.62-2.655 1.41M3.52 5.585c-1.347 2.595-2.27 5.016-2.27 8.192V22c0 .414.336.75.75.75h10.487c-1.595-1.175-2.738-3.006-2.738-5.365 0-1.881.62-3.52 1.55-4.723.728-.94 1.819-1.811 3.115-2.067-.384-1.761-1.072-3.35-1.933-5.01a3 3 0 0 1-.982.165H4.5c-.343 0-.674-.058-.98-.164" clip-rule="evenodd"/></svg>