<svg xmlns="http://www.w3.org/2000/svg" fill="none" viewBox="0 0 24 24"><path fill="currentColor" fill-rule="evenodd" d="M22.579 12.253a42 42 0 0 1-.897 1.299 23 23 0 0 1-2.187 2.487c-1.822 1.785-4.47 3.711-7.495 3.711-3.024 0-5.673-1.926-7.495-3.71a23 23 0 0 1-2.187-2.488c-.198-.26-.64-.917-.897-1.299L1.25 12l.171-.253c.257-.382.7-1.039.897-1.299a23 23 0 0 1 2.187-2.487C6.327 6.176 8.975 4.25 12 4.25c3.024 0 5.673 1.926 7.495 3.71a23.4 23.4 0 0 1 2.187 2.488c.198.26.64.917.897 1.299l.171.253zM12 15.5a3.5 3.5 0 1 1 0-7 3.5 3.5 0 0 1 0 7" clip-rule="evenodd"/></svg>