<svg xmlns="http://www.w3.org/2000/svg" fill="none" viewBox="0 0 24 24"><path fill="currentColor" fill-rule="evenodd" d="M14.602 22.433c-.611-.837-.893-1.771-1.013-2.64-.115-.824-.095-1.71-.075-2.412A3.16 3.16 0 0 0 12 17c-.554 0-1.07.14-1.515.381.02.703.04 1.59-.074 2.414-.12.869-.402 1.802-1.013 2.638.834.207 1.705.317 2.603.317.897 0 1.769-.11 2.602-.317M5.04 18.594C5.707 15.375 8.59 13 11.999 13s6.292 2.375 6.958 5.594l.295 1.342A10.72 10.72 0 0 0 22.75 12c0-5.937-4.813-10.75-10.75-10.75S1.25 6.063 1.25 12c0 3.137 1.344 5.96 3.487 7.926zM7.478 8.54l.96.93-.977 1.009 1.077 1.044 2.022-2.087L8.521 7.46zm9.043 0-1.043-1.08-2.04 1.974 2.023 2.087 1.077-1.044-.978-1.01zm-1.753 8.758.014-.565A4.4 4.4 0 0 0 12 15.75c-1.06 0-2.03.37-2.782.98q.005.274.014.571c.021.742.045 1.574-.059 2.322-.153 1.103-.592 2.207-1.75 2.996l-.845-1.239c.7-.478.994-1.13 1.11-1.963q.018-.134.03-.269l-1.452-.3C6.81 16.214 9.179 14.25 12 14.25c2.82 0 5.189 1.964 5.734 4.597l-1.451.301q.012.134.03.267c.117.834.41 1.488 1.11 1.965l-.846 1.24c-1.157-.79-1.596-1.895-1.75-3-.103-.75-.08-1.583-.059-2.324" clip-rule="evenodd"/></svg>