<svg xmlns="http://www.w3.org/2000/svg" fill="none" viewBox="0 0 24 24"><path fill="currentColor" fill-rule="evenodd" d="M17.5 2.762A10.7 10.7 0 0 0 12 1.25C6.063 1.25 1.25 6.063 1.25 12S6.063 22.75 12 22.75 22.75 17.937 22.75 12c0-1.396-.266-2.73-.75-3.953V9.5a4.75 4.75 0 0 1-7.977 3.486 2.25 2.25 0 1 1-1.513-3.178 4.75 4.75 0 0 1 4.99-5.051zm3 2.146c.542.48 1.276.84 2.25.84v-1.5c-.884 0-1.428-.509-1.79-1.128a4.2 4.2 0 0 1-.376-.873c-.022-.075-.04-.414-.055-.677a4 4 0 0 0-.021-.32H19v5.508a3.25 3.25 0 1 0 1.5 2.74z" clip-rule="evenodd"/></svg>