<svg xmlns="http://www.w3.org/2000/svg" fill="none" viewBox="0 0 24 24"><path fill="currentColor" fill-rule="evenodd" d="M19.25 1.25v5.974q1.093.026 2.25.026h.75v15.5h-.846c-5.048 0-9.429 0-13.628-1.197l5.51-5.51-3.536-3.536L4.457 17.8l-1.293-1.293-.414.415V5.689c1.532-1.204 2.598-1.86 3.834-2.38C9.057 2.267 12.907 1.25 18.5 1.25zM17 13a2 2 0 1 0 0 4 2 2 0 0 0 0-4m.28-9.606c-4.756.111-8.014 1.02-10.084 1.901q-.657.282-1.161.55c2.432.503 6.262 1.088 11.245 1.311zM4.457 22.75l6.707-6.707L9.75 14.63l-5.293 5.293-1.293-1.293-1.414 1.414z" clip-rule="evenodd"/></svg>