<svg xmlns="http://www.w3.org/2000/svg" fill="none" viewBox="0 0 24 24"><path fill="currentColor" fill-rule="evenodd" d="M17.778 1.75c.537 0 .972.41.972.917V5.75H22a.75.75 0 0 1 .75.75v14a.75.75 0 0 1-.75.75H7.079l5.707-5.707-3.536-3.536L3.957 17.3l-1.293-1.293-1.414 1.415V2.667a.9.9 0 0 1 .285-.649c.182-.171.43-.268.687-.268zm-.278 9.5a2.25 2.25 0 1 0 0 4.5 2.25 2.25 0 0 0 0-4.5m-.694-7.667H3.194V5.75h13.612zM3.957 22.25l6.707-6.707L9.25 14.13l-5.293 5.293-1.293-1.293-1.414 1.414z" clip-rule="evenodd"/></svg>