<svg xmlns="http://www.w3.org/2000/svg" fill="none" viewBox="0 0 24 24"><path fill="currentColor" fill-rule="evenodd" d="M9.437 1.624a9.2 9.2 0 0 1 2.543-.374c-.08.1-.154.19-.213.265-1.637 1.837-1.997 5-.986 9.086-.726.664-1.482 1.138-2.25 1.436-.498-.762-.859-1.923-.951-3.313-.107-1.625.16-3.46.906-5.127.236-.505.68-1.444.95-1.973m11.85 8.704c-.112-4.435-3.302-8.107-7.505-8.913-.316.382-.657.804-.857 1.054l-.014.017-.014.015c-.598.666-1.018 1.676-1.142 3.05 1.314-.09 2.9.221 4.424.849 1.828.752 3.67 2 4.963 3.721l.006.01zm-17.17 1.607c-.293-.168-.79-.476-1.312-.848a9.33 9.33 0 0 1 4.514-8.533l-.195.415-.004.01a12.5 12.5 0 0 0-1.037 5.844c.088 1.323.398 2.581.925 3.58-.976.094-1.952-.072-2.892-.469m.765 4.368a8.35 8.35 0 0 1-1.745-3.205q.159.096.276.162l.036.02.038.017c2.821 1.21 5.894.712 8.467-1.738a6.1 6.1 0 0 1 3.465.75c-.534.82-1.608 1.715-3.07 2.459-1.642.836-3.658 1.418-5.644 1.482h-.01l-.01.001c-.385.023-1.08.05-1.803.052m13.067 1.447.213-.19q.352-.313.67-.66a12 12 0 0 0-.481-1.608c-.258-.566-.839-1.393-1.699-2.128-.275.414-.63.816-1.044 1.196.942.51 1.953 2.473 2.34 3.39m3.118-5.132a9.3 9.3 0 0 1-1.098 2.759 11 11 0 0 0-.23-.653l-.006-.016-.007-.015c-.418-.931-1.367-2.196-2.74-3.17-1.245-.883-2.873-1.55-4.797-1.48-.264-1.108-.41-2.101-.456-2.985 1.02-.1 2.42.13 3.875.729 1.631.671 3.23 1.768 4.328 3.226zm.23 8.032a.7.7 0 0 1-.102.092l-.06-.027a2.6 2.6 0 0 1-.459-.341c-.128-.112-.221-.2-.324-.294-.092-.086-.192-.18-.332-.304-.428-.382-1.137-.984-2.033-1.024-1.026-.045-1.84.623-2.505 1.64-.1.15-.172.218-.208.247l-.002-.001c-.078-.027-.208-.096-.414-.25a13 13 0 0 1-.44-.354l-.238-.197c-.451-.369-1.184-.956-2.076-1.02-1.047-.074-1.904.556-2.602 1.612l-.005.007a1 1 0 0 1-.112.146l-.016-.006c-.1-.034-.248-.113-.468-.266-.145-.1-.278-.2-.43-.314l-.292-.218c-.486-.357-1.235-.887-2.108-.94-1.026-.062-1.876.519-2.551 1.553-.152.228-.26.306-.307.331-.046-.026-.15-.104-.293-.325L1.25 21.49c.428.66 1.085 1.243 1.962 1.243.873 0 1.533-.58 1.968-1.233l.005-.008c.441-.677.7-.66.763-.656h.003c.212.013.52.167 1.05.556l.228.171c.174.13.366.275.54.395.265.183.59.386.95.51.375.13.843.192 1.333.014.48-.175.84-.53 1.113-.949.498-.751.766-.723.796-.72h.002c.173.012.443.155.958.576l.182.15c.176.147.376.313.563.453.26.194.59.414.969.542a1.92 1.92 0 0 0 1.383-.032c.471-.197.834-.566 1.125-1.002l.005-.008c.254-.39.452-.58.58-.67.108-.074.157-.072.17-.07h.001c.105.004.325.1.796.52l.255.232c.143.132.303.28.417.38.236.205.525.438.852.608.335.174.77.313 1.267.239.503-.075.922-.346 1.264-.712z" clip-rule="evenodd"/></svg>