<svg xmlns="http://www.w3.org/2000/svg" fill="none" viewBox="0 0 24 24"><path fill="currentColor" fill-rule="evenodd" d="M13.145 2.057a1.254 1.254 0 0 1 1.6-.733c.649.232.981.936.746 1.571l-2.814 7.6.747.27 2.063-5.574a1.254 1.254 0 0 1 1.6-.733c.648.232.98.935.746 1.57l-2.439 6.588.747.269 1.688-4.56a1.254 1.254 0 0 1 1.6-.734c.648.232.98.936.746 1.571-.41 1.106-3.024 8.168-3.305 8.799-.28.628-.529 1.051-.824 1.386-.05.058-.204.172-.462.328a15 15 0 0 1-.821.451 60 60 0 0 1-1.245.603l-.714 2.021-9.045-3.237.854-2.424-2.805-7.243a1.426 1.426 0 0 1 .641-1.628 1.46 1.46 0 0 1 2.073.615l1.465 3.102L9.49 2.472a1.254 1.254 0 0 1 1.6-.733c.648.232.98.935.746 1.57L9.961 8.376l.746.269zm6.99 11.182c.385 1.156-.21 2.37-1.229 2.745l.692 1.877c2.096-.773 3.14-3.14 2.433-5.256z" clip-rule="evenodd"/></svg>