<svg xmlns="http://www.w3.org/2000/svg" fill="none" viewBox="0 0 24 24"><path fill="currentColor" fill-rule="evenodd" d="m13.667 11.32.035-.062c.56-.965 1.152-2.348 1.152-3.912s-.592-2.947-1.152-3.912a10 10 0 0 0-.778-1.155 53 53 0 0 0-.92-1.029s-.814.891-.92 1.029a10.5 10.5 0 0 0-.78 1.155c-.559.965-1.15 2.348-1.15 3.912s.591 2.947 1.15 3.912l.037.061c-.922-.25-1.99-.71-2.802-1.539-.836-.853-1.291-1.984-1.533-2.948a9 9 0 0 1-.16-.782c.439.074.997.204 1.578.427l.538-1.4a10 10 0 0 0-2.679-.608c-.078-.007-.5-.033-1.046-.033a12 12 0 0 0 .062 1.371c.04.35.113.837.252 1.39.275 1.095.82 2.514 1.917 3.633 1.098 1.12 2.493 1.68 3.57 1.961.545.142 1.024.218 1.369.259.55.064.848.04 1.193 0s.824-.117 1.368-.259c1.078-.282 2.473-.84 3.571-1.96 1.097-1.12 1.642-2.54 1.917-3.634.139-.553.213-1.04.252-1.39.02-.175.062-.76.062-1.37-.945 0-1.424.067-1.692.107a10 10 0 0 0-2.033.533l.538 1.4a8.3 8.3 0 0 1 1.578-.427 9 9 0 0 1-.16.782c-.242.964-.697 2.095-1.533 2.948-.812.829-1.88 1.289-2.802 1.54M3.25 14a.75.75 0 0 1 .75-.75h3a.75.75 0 0 1 .361.093l2.331 1.282h.808c1.238 0 2.264.633 2.814 1.48.279.428.436.912.436 1.395a.75.75 0 0 1-.513.711l-3 1a.75.75 0 0 1-.475 0l-1.5-.5-.395 1.186 1.5.5a2 2 0 0 0 1.265 0l3-1A2 2 0 0 0 15 17.5c0-.638-.169-1.251-.469-1.801l2.443-.814a2.75 2.75 0 0 1 3.423 1.587l.3.75a.75.75 0 0 1-.362.949l-9 4.5a.75.75 0 0 1-.54.05l-6.999-1.98a.75.75 0 0 1-.545-.721z" clip-rule="evenodd"/></svg>