<svg xmlns="http://www.w3.org/2000/svg" fill="none" viewBox="0 0 24 24"><path fill="currentColor" fill-rule="evenodd" d="M12 3.75c3.457 0 6.869 1.276 10 3.75l-1.418 1.425C17.802 6.785 14.879 5.75 12 5.75S6.198 6.784 3.418 8.925L2 7.5c3.131-2.474 6.543-3.75 10-3.75m2.514 11.273c-1.462-1.03-3.566-1.03-5.028 0l-1.421-1.428c2.248-1.793 5.622-1.793 7.87 0zM5.21 10.726l1.42 1.427c3.395-2.546 7.576-2.525 10.752-.012l1.415-1.423c-4.007-3.307-9.404-3.277-13.587.008M12 16.25a2 2 0 1 0 0 4 2 2 0 0 0 0-4" clip-rule="evenodd"/></svg>