<svg xmlns="http://www.w3.org/2000/svg" fill="none" viewBox="0 0 24 24"><path fill="currentColor" fill-rule="evenodd" d="M21 2.25a.75.75 0 0 1 .75.75v18a.75.75 0 0 1-.75.75H3a.75.75 0 0 1-.75-.75V3A.75.75 0 0 1 3 2.25zM12.006 16.5a1 1 0 1 0-.006 2 1 1 0 1 0 .006-2m-.01-3.376c-.964 0-1.872.263-2.669.722l.999 1.733a3.3 3.3 0 0 1 1.67-.455c.597 0 1.166.162 1.678.46l1.003-1.731a5.3 5.3 0 0 0-2.68-.73m0-3.124c-1.71 0-3.29.587-4.598 1.576l1.207 1.595c.99-.748 2.153-1.171 3.391-1.171 1.242 0 2.409.425 3.401 1.178l1.21-1.593C15.296 10.591 13.71 10 11.996 10m-3.99-5H6v2h2.006zm4 0H10v2h2.006z" clip-rule="evenodd"/></svg>