<svg xmlns="http://www.w3.org/2000/svg" fill="none" viewBox="0 0 24 24"><path fill="currentColor" fill-rule="evenodd" d="M4 13.25a.75.75 0 0 0-.75.75v6.02c0 .335.223.63.546.722l7 1.98a.75.75 0 0 0 .539-.051l9-4.5a.75.75 0 0 0 .36-.95l-.299-.749a2.75 2.75 0 0 0-3.423-1.587l-2.176.725v1.37l-4.56 2.231a.75.75 0 0 1-.474 0l-3-1 .474-1.423L10 17.71l3.315-1.605c-.55-.845-1.577-1.479-2.815-1.479h-.807L7.36 13.343A.75.75 0 0 0 7 13.25zm15.368-1.607c1.858-1.918 1.826-4.995.003-6.881L16.034 1.25l-3.426 3.537-.004.004c-1.827 1.92-1.794 4.995.031 6.88l.005.004a4.686 4.686 0 0 0 6.728-.032" clip-rule="evenodd"/></svg>