<svg xmlns="http://www.w3.org/2000/svg" fill="none" viewBox="0 0 24 24"><path fill="currentColor" fill-rule="evenodd" d="m1.75 22.75.001-21.5h10.11l7.389 7.38V12l-15.594.001 2.877 4.477L3.714 21H19.25v1.75zM17.3 9.46l-6.238-6.255V9.46zm-5.388 10.291h-1.74l-1.185-2.088-1.369 2.088H5.967l2.046-3.283-2.068-3.217 1.747-.001 1.262 1.995 1.278-1.994h1.68l-1.987 3.19zm6.156 0h-1.5v-3.354l-1.25 2.04-1.25-2.042v3.356h-1.5v-6.5h1.336l1.415 2.314 1.418-2.314h1.331zm4.183 0v-1.5h-2v-5h-1.5v6.5z" clip-rule="evenodd"/></svg>