<svg xmlns="http://www.w3.org/2000/svg" fill="none" viewBox="0 0 24 24"><path fill="currentColor" fill-rule="evenodd" d="M14.748 4a2.75 2.75 0 1 0-5.5 0 2.75 2.75 0 0 0 5.5 0m-9.5 10a6.75 6.75 0 1 1 13.5 0v.75h-.75a6.75 6.75 0 0 1-6-3.655 6.75 6.75 0 0 1-6 3.655h-.75zm1.343 2.651c.301-.157.541-.427.728-.76a8 8 0 0 0 4.681-2.6 8 8 0 0 0 4.679 2.6c.187.333.427.603.729.76l3.646 1.908c1.083.566 1.386 1.654 1.085 2.573a2.36 2.36 0 0 1-2.27 1.618c-1.93 0-3.741-.744-5.402-1.593a62 62 0 0 1-1.808-.973l-.454-.25-.312.161c-.69.358-1.408.729-2.131 1.072-1.78.846-3.71 1.583-5.633 1.583a2.36 2.36 0 0 1-2.27-1.618c-.3-.919.003-2.007 1.085-2.573z" clip-rule="evenodd"/></svg>