<svg xmlns="http://www.w3.org/2000/svg" fill="none" viewBox="0 0 24 24"><path fill="currentColor" fill-rule="evenodd" d="m17.91 17.267-.464 1.855-4.034-.806-.575-.709c.74.094 1.454.144 2.122.144a9 9 0 0 0 2.95-.484m1.758-.851-.94 3.764a.75.75 0 0 1-.875.553l-5-1a.75.75 0 0 1-.435-.262l-1.84-2.266a27 27 0 0 1-2.89-.83L5.53 18.53a.75.75 0 0 1-.865.14l-2-1a.75.75 0 0 1-.376-.907l.88-2.646a9 9 0 0 1-.432-.342c-.675-.57-1.251-1.253-1.487-2.025h3.797v-1.5H1.25c.236-.773.812-1.455 1.487-2.025q.206-.174.434-.343L2.29 5.238a.75.75 0 0 1 .376-.908l2-1a.75.75 0 0 1 .865.14l2.157 2.157c2.401-.841 5.088-1.376 7.272-1.376 4.334 0 7.791 2.926 7.791 6.75 0 2.256-1.204 4.2-3.082 5.415M4.473 14.952c.527.296 1.095.572 1.687.828l-1.308 1.308-.935-.467zm-.555-9.571.556 1.667a18 18 0 0 1 1.686-.826L4.852 4.913z" clip-rule="evenodd"/></svg>