<svg xmlns="http://www.w3.org/2000/svg" fill="none" viewBox="0 0 24 24"><path fill="currentColor" fill-rule="evenodd" d="m12.748 13.645 5.225 4.275-.95 1.16-5.025-4.111-5.025 4.112-.95-1.162 5.225-4.274V7h1.5z" clip-rule="evenodd" opacity=".4"/><path fill="currentColor" fill-rule="evenodd" d="M11.577 2.666c-.198.228-.431.59-.802 1.176l-.513.81c-.367.578-.59.936-.704 1.198l-.029.072q.061.016.177.033c.327.043.799.045 1.531.045h1.026c.733 0 1.205-.002 1.531-.045q.117-.016.177-.033l-.029-.072c-.113-.262-.337-.62-.704-1.199l-.513-.81c-.37-.584-.603-.947-.802-1.175a.8.8 0 0 0-.173-.162.8.8 0 0 0-.173.162M14 6.026v-.009zm-4.499-.009v.01zm.946-4.337c.305-.35.718-.68 1.303-.68.586 0 .998.33 1.304.68.284.325.577.789.908 1.311l.03.048.513.81.032.05c.325.512.616.971.782 1.356.176.406.312.957-.028 1.485-.32.498-.856.642-1.298.701-.438.06-1.012.059-1.677.059h-1.132c-.664 0-1.238 0-1.677-.059-.441-.059-.977-.203-1.298-.701-.34-.528-.203-1.079-.028-1.485.167-.385.458-.844.782-1.356l.032-.05.513-.81.03-.048c.331-.522.625-.986.909-1.311m10.978 16.196.026.052.448.87.026.048c.29.563.545 1.058.686 1.471.15.44.235.961-.046 1.47-.286.519-.779.714-1.235.8-.42.08-.962.096-1.567.114l-.059.002-.942.028-.06.002c-.595.018-1.132.034-1.545-.02-.445-.06-.974-.23-1.255-.784-.264-.52-.137-1.05.027-1.47.16-.414.437-.916.757-1.498l.026-.046.494-.896.026-.048c.32-.58.597-1.082.86-1.436.261-.353.653-.762 1.256-.784.63-.023 1.035.387 1.291.74.249.344.501.834.785 1.385m-2.041-.558.04.054c.174.239.374.624.694 1.244l.448.869c.323.626.525 1.021.626 1.318.048.14.058.215.058.25v.003a.8.8 0 0 1-.2.058c-.288.055-.708.07-1.39.09l-.942.028c-.675.02-1.087.03-1.364-.007l-.094-.015q.014-.066.066-.208c.12-.309.346-.722.7-1.363l.494-.896c.353-.641.582-1.052.776-1.314q.052-.07.088-.11m-.089-.094.003.002.003.003-.005-.003zm-2.115 3.962.009.004zm.07.094v.006zm2.22-4.045.004-.002zm-15.588 1.38c.32-.62.52-1.004.694-1.243l.04-.054q.037.041.088.11c.195.263.423.674.776 1.315l.495.896c.353.64.579 1.054.699 1.363.037.096.056.163.066.208l-.094.015c-.277.037-.688.027-1.363.007l-.943-.028c-.682-.02-1.102-.035-1.39-.09a.8.8 0 0 1-.2-.058v-.003c0-.035.01-.11.058-.25.102-.297.303-.692.626-1.319zm.823-1.391-.007.005zm-.174.011-.005-.002zm2.218 4.05v.002-.007zm.063-.095.009-.004zm-2.16-5.439c-.63-.023-1.035.387-1.291.74-.248.344-.5.834-.785 1.385l-.027.052-.448.87-.025.048c-.29.563-.545 1.058-.687 1.471-.15.44-.235.961.046 1.47.286.519.779.714 1.235.8.42.08.962.096 1.567.114l.059.002.942.028.06.002c.595.018 1.132.034 1.545-.02.445-.06.974-.23 1.256-.784.263-.52.136-1.05-.027-1.47-.161-.414-.438-.916-.758-1.498l-.026-.046-.494-.896-.026-.048c-.32-.58-.597-1.082-.859-1.436s-.654-.762-1.257-.784" clip-rule="evenodd"/></svg>