<svg xmlns="http://www.w3.org/2000/svg" fill="none" viewBox="0 0 24 24"><path fill="currentColor" fill-rule="evenodd" d="M8.394 7.715C8.837 7.413 9.407 7.25 10 7.25a.75.75 0 0 1 0 1.5c-.33 0-.597.093-.76.204a.5.5 0 0 0-.144.139c-.02.03-.02.046-.02.05v.05c0 .555.001 1.115-.186 1.621-.176.475-.487.843-.926 1.186.439.343.75.711.926 1.186.187.506.187 1.066.187 1.62v.051c0 .004 0 .02.019.05.02.034.064.084.144.139.163.111.43.204.76.204a.75.75 0 0 1 0 1.5c-.593 0-1.163-.163-1.606-.465-.44-.3-.817-.792-.817-1.428 0-.65-.013-.932-.094-1.15-.06-.164-.19-.362-.661-.684-.319-.217-.572-.575-.572-1.023s.253-.805.572-1.023c.471-.322.6-.52.661-.684.08-.218.094-.5.094-1.15 0-.636.378-1.128.817-1.428M13.25 8a.75.75 0 0 1 .75-.75c.593 0 1.163.163 1.606.465.44.3.817.792.817 1.428 0 .65.013.932.094 1.15.06.164.19.362.661.684.319.218.572.575.572 1.023s-.253.806-.572 1.023c-.471.322-.6.52-.661.684-.08.218-.094.5-.094 1.15 0 .636-.378 1.128-.817 1.428-.443.302-1.013.465-1.606.465a.75.75 0 0 1 0-1.5c.33 0 .597-.093.76-.204a.5.5 0 0 0 .144-.139c.02-.03.02-.046.02-.05v-.05c0-.555-.001-1.115.186-1.621.176-.475.487-.843.926-1.186-.439-.343-.75-.711-.926-1.186-.187-.506-.187-1.066-.187-1.62v-.051c0-.004 0-.02-.019-.05a.5.5 0 0 0-.144-.139c-.163-.111-.43-.204-.76-.204a.75.75 0 0 1-.75-.75" clip-rule="evenodd" opacity=".4"/><path fill="currentColor" fill-rule="evenodd" d="M12 2.75a9.25 9.25 0 1 0 0 18.5 9.25 9.25 0 0 0 0-18.5M1.25 12C1.25 6.063 6.063 1.25 12 1.25S22.75 6.063 22.75 12 17.937 22.75 12 22.75 1.25 17.937 1.25 12" clip-rule="evenodd"/></svg>