<svg xmlns="http://www.w3.org/2000/svg" fill="none" viewBox="0 0 24 24"><path fill="currentColor" fill-rule="evenodd" d="m3.33 9.75-.021.081c-.055.257-.059.659-.059 1.36v7.223c0 .64.004 1.01.056 1.27.04.2.092.256.178.313.128.085.347.165.834.209s1.133.044 2.061.044h10.835c.954 0 1.634 0 2.115-.039a32 32 0 0 0-1.16-.794L5.395 10.9c-.721-.481-1.204-.802-1.58-.99-.295-.148-.428-.164-.485-.16m2.856-.125.041.028 12.826 8.55c.66.44 1.224.816 1.584 1.135.181.16.386.37.506.629.145.314.157.689-.055 1.03-.187.3-.473.456-.718.542s-.526.13-.813.158c-.564.053-1.34.053-2.3.053H6.344c-.884 0-1.597 0-2.159-.05-.57-.051-1.091-.16-1.532-.454-.482-.322-.714-.76-.816-1.265-.086-.427-.086-.95-.086-1.504v-7.36c0-.6 0-1.166.091-1.597.051-.24.141-.503.324-.733A1.4 1.4 0 0 1 2.9 8.31c.572-.158 1.11.02 1.588.26.469.235 1.03.609 1.699 1.055" clip-rule="evenodd"/><path fill="currentColor" fill-rule="evenodd" d="M15.873 9.345a.75.75 0 0 0-.746 1.302l4.305 2.467-.808.147a.75.75 0 0 0 .276 1.474c.392-.073.75-.136 1.06-.19a38 38 0 0 0 .826-.15c.218-.044.424-.092.601-.155.169-.06.389-.159.566-.349.29-.31.312-.693.292-.941a3.3 3.3 0 0 0-.178-.762 18 18 0 0 0-.277-.748l-.02-.054c-.11-.284-.225-.583-.334-.901a.75.75 0 1 0-1.42.486c.12.346.243.668.352.951zM5.25 7a3.25 3.25 0 1 1 6.5 0 3.25 3.25 0 0 1-6.5 0M8.5 2.25a4.75 4.75 0 1 0 0 9.5 4.75 4.75 0 0 0 0-9.5" clip-rule="evenodd" opacity=".4"/></svg>