<svg xmlns="http://www.w3.org/2000/svg" fill="none" viewBox="0 0 24 24"><path fill="currentColor" fill-rule="evenodd" d="M6.6 3.91c-1.292.156-2.07.454-2.638.965-.556.501-.873 1.171-1.041 2.298C2.748 8.33 2.746 9.855 2.746 12s.002 3.67.175 4.827c.168 1.127.485 1.796 1.041 2.297.568.512 1.346.81 2.638.967 1.306.158 3.02.159 5.396.159h.606c2.068.001 3.582.002 4.766-.135 1.274-.147 2.055-.444 2.662-.99.556-.502.873-1.171 1.041-2.298.173-1.157.175-2.682.175-4.827s-.002-3.67-.175-4.827c-.168-1.127-.485-1.797-1.041-2.298-.568-.51-1.346-.81-2.638-.966-1.306-.158-3.02-.16-5.396-.16s-4.09.002-5.396.16m5.344-1.66h.104c2.313 0 4.118 0 5.525.17 1.43.173 2.564.533 3.46 1.34.908.818 1.324 1.867 1.522 3.191.191 1.281.191 2.918.191 4.986v.125c0 2.069 0 3.706-.191 4.986-.198 1.324-.614 2.374-1.522 3.191-.931.838-2.061 1.2-3.492 1.366-1.277.148-2.882.147-4.91.145h-.687c-2.313 0-4.118 0-5.524-.17-1.432-.173-2.565-.534-3.461-1.34-.908-.818-1.324-1.868-1.522-3.192-.19-1.28-.19-2.917-.19-4.986v-.125c0-2.068 0-3.705.19-4.986.198-1.324.614-2.373 1.522-3.19.896-.808 2.03-1.168 3.46-1.34 1.407-.171 3.212-.171 5.525-.171" clip-rule="evenodd"/><path fill="currentColor" fill-rule="evenodd" d="M7.656 12.25 8.72 9.319q.14-.287.265-.455c.081.114.19.303.318.606.31.738.684 1.737 1.063 2.782zm3.54 2.324-.292-.823H7.112l-.905 2.495a.75.75 0 0 1-1.41-.511l2.526-6.963.027-.067c.126-.265.285-.553.477-.796.18-.228.468-.517.877-.616.48-.117.91.07 1.229.377.294.284.536.703.753 1.218.559 1.332 1.322 3.485 1.941 5.232.215.605.412 1.162.577 1.619a.75.75 0 0 1-1.41.51c-.174-.48-.378-1.056-.598-1.675m8.034-5.59a.75.75 0 0 0-1.5 0v2.245h-1.268a2.7 2.7 0 0 0-.973.182c-2.332.905-2.332 4.25 0 5.155.31.12.64.183.973.183h2.018a.75.75 0 0 0 .75-.788zm-2.768 3.745h1.268v2.52h-1.268q-.222 0-.43-.081c-1.056-.41-1.056-1.949 0-2.358q.208-.08.43-.08" clip-rule="evenodd" opacity=".4"/></svg>