<svg xmlns="http://www.w3.org/2000/svg" fill="none" viewBox="0 0 24 24"><path fill="currentColor" fill-rule="evenodd" d="M12 2.75c-4.011 0-7.25 3.217-7.25 7.169 0 1.351.377 2.613 1.034 3.691a.75.75 0 0 1-1.282.78A8.57 8.57 0 0 1 3.25 9.919C3.25 5.124 7.175 1.25 12 1.25s8.75 3.874 8.75 8.669a8.57 8.57 0 0 1-1.252 4.471.75.75 0 0 1-1.282-.78 7.07 7.07 0 0 0 1.034-3.691c0-3.952-3.239-7.169-7.25-7.169m-3.846 12.5h7.692c.13 0 .258 0 .367.006a1.4 1.4 0 0 1 .427.085c.498.194.833.663.859 1.194.008.171-.025.322-.055.432-.028.105-.069.227-.11.351l-.005.017-.026.078c-.144.434-.256.774-.438 1.06a2.75 2.75 0 0 1-1.204 1.041l-.056.278-.022.11c-.119.6-.212 1.066-.431 1.453a2.75 2.75 0 0 1-1.531 1.255c-.423.14-.9.14-1.51.139h-.223c-.612 0-1.088 0-1.51-.139a2.75 2.75 0 0 1-1.531-1.255c-.22-.387-.313-.854-.432-1.454l-.022-.109-.056-.279a2.75 2.75 0 0 1-1.202-1.04c-.181-.286-.294-.625-.438-1.06l-.026-.078-.005-.017a7 7 0 0 1-.11-.35 1.4 1.4 0 0 1-.055-.433c.026-.531.361-1 .859-1.194a1.4 1.4 0 0 1 .427-.085c.109-.006.237-.006.367-.006m1.76 4.5c.115.559.163.734.237.865.154.27.402.474.696.57.163.054.375.064 1.152.064s.99-.01 1.152-.063c.295-.097.543-.3.696-.57.074-.132.122-.307.237-.866zm-1.856-3 .037.112c.182.55.237.698.307.81.172.27.44.464.75.541.125.032.282.037.86.037h3.976c.578 0 .735-.005.86-.037.31-.077.578-.27.75-.542.07-.11.125-.26.307-.81l.037-.11-.114-.001z" clip-rule="evenodd"/><path fill="currentColor" d="M12.31 12.75c-.32 0-.61-.2-.71-.52l-.32-.98H9.02l-.31.98c-.13.39-.55.61-.94.48a.75.75 0 0 1-.48-.94l1.46-4.52c.19-.6.75-1 1.41-1s1.22.4 1.41 1l1.46 4.52c.13.39-.09.82-.48.94-.08.02-.15.04-.23.04zm-2.82-3h1.3l-.66-2.04zm5.51 3c-.41 0-.75-.34-.75-.75V7c0-.41.34-.75.75-.75s.75.34.75.75v5c0 .41-.34.75-.75.75" opacity=".4"/></svg>