<svg xmlns="http://www.w3.org/2000/svg" fill="none" viewBox="0 0 24 24"><path fill="currentColor" fill-rule="evenodd" d="M15.052 1.25H8.948c-.898 0-1.648 0-2.242.08-.628.084-1.195.27-1.65.725-.456.456-.642 1.023-.726 1.65-.08.595-.08 1.345-.08 2.243v.65l-.884.59-.028.018c-.413.275-.766.51-1.041.734-.294.238-.543.496-.725.837s-.256.69-.29 1.065c-.032.352-.031.773-.03 1.267v.033c.005 1.26.017 2.546.05 3.85v.058c.038 1.488.068 2.688.238 3.654.179 1.013.522 1.838 1.226 2.542.706.705 1.537 1.048 2.56 1.227.975.17 2.19.2 3.698.238l.058.002c1.951.048 3.885.048 5.836 0l.059-.002c1.508-.038 2.723-.068 3.699-.238 1.022-.179 1.853-.522 2.559-1.227.704-.704 1.047-1.529 1.226-2.542.17-.966.2-2.166.237-3.654l.002-.058c.032-1.304.044-2.59.048-3.85v-.033c.002-.494.003-.915-.029-1.267-.034-.376-.11-.725-.29-1.065-.182-.341-.431-.599-.725-.837a15 15 0 0 0-1.041-.734l-.913-.609v-.649c0-.898 0-1.648-.08-2.242-.084-.628-.27-1.195-.726-1.65-.455-.456-1.022-.642-1.65-.726-.594-.08-1.344-.08-2.242-.08M19.75 8.4v2.077l1.415-.848a1 1 0 0 0-.06-.147c-.055-.103-.143-.213-.346-.377-.214-.174-.508-.37-.956-.67zm-1.5 2.977V6c0-.964-.002-1.612-.067-2.095-.062-.461-.169-.659-.3-.789s-.327-.237-.788-.3c-.483-.064-1.131-.066-2.095-.066H9c-.964 0-1.612.002-2.095.067-.461.062-.659.169-.789.3s-.237.327-.3.788C5.753 4.388 5.75 5.036 5.75 6v5.378l3.548 2.13c.765.458 1.291.773 1.73.979.421.198.705.267.971.267.267 0 .55-.069.972-.267.438-.206.964-.52 1.73-.98zm-14-.899V8.401l-.052.035c-.449.298-.742.495-.957.669-.202.164-.29.274-.345.377a1 1 0 0 0-.06.148zM2.8 14.955c-.03-1.223-.042-2.433-.047-3.625l5.806 3.483c.724.435 1.316.79 1.83 1.031.538.253 1.046.41 1.61.41s1.073-.157 1.61-.41c.515-.242 1.106-.596 1.83-1.03l5.808-3.486a173 173 0 0 1-.047 3.627c-.039 1.56-.068 2.646-.216 3.488-.143.807-.384 1.316-.81 1.742-.425.425-.938.667-1.756.81-.853.149-1.956.178-3.537.218-1.926.048-3.835.048-5.761 0-1.58-.04-2.684-.069-3.537-.218-.818-.143-1.331-.385-1.756-.81s-.667-.935-.81-1.742c-.148-.842-.177-1.929-.216-3.489" clip-rule="evenodd"/><path fill="currentColor" fill-rule="evenodd" d="M8.904 5.148a1.355 1.355 0 0 1 1.284-.898c.56 0 1.09.343 1.283.898l1.612 4.604a.75.75 0 0 1-1.416.496l-.407-1.165H9.116l-.408 1.165a.75.75 0 0 1-1.416-.496zm.737 2.435h1.094l-.547-1.563zM15 4.25a.75.75 0 0 1 .75.75v5a.75.75 0 0 1-1.5 0V5a.75.75 0 0 1 .75-.75" clip-rule="evenodd" opacity=".4"/></svg>