<svg xmlns="http://www.w3.org/2000/svg" fill="none" viewBox="0 0 24 24"><path fill="currentColor" fill-rule="evenodd" d="M11.04 8.274c.45-.7 1.47-.7 1.92 0l.43.68c.42.67.99 1.23 1.65 1.65l.69.44c.69.45.69 1.47 0 1.91l-.69.44c-.66.42-1.23.98-1.65 1.65l-.43.68c-.45.7-1.47.7-1.92 0l-.43-.68c-.42-.67-.99-1.23-1.65-1.65l-.69-.44c-.69-.44-.69-1.46 0-1.91l.69-.44c.66-.42 1.23-.98 1.65-1.65zm.96 1.29-.13.2c-.54.85-1.26 1.57-2.11 2.11l-.19.13.19.12c.85.54 1.57 1.26 2.11 2.11l.13.2.13-.2c.54-.85 1.26-1.57 2.11-2.11l.19-.12-.19-.13a6.85 6.85 0 0 1-2.11-2.11z" clip-rule="evenodd" opacity=".4"/><path fill="currentColor" fill-rule="evenodd" d="M15.63 4.534c-1.22-.72-2.23-1.31-3.59-1.28h-.01c-1.39 0-2.51.63-3.79 1.37-.02.01-.04.02-.05.03-1.05.6-2.24 1.29-3.66 1.38-.69 4.18-.06 7.5 1.31 9.93a9.87 9.87 0 0 0 6.2 4.76c2.79-.78 4.98-2.45 6.3-4.92 1.3-2.42 1.79-5.68 1.09-9.76-1.53-.16-2.71-.86-3.75-1.48-.02-.01-.03-.02-.05-.03m.77-1.29c1.21.73 2.25 1.33 3.66 1.33.36 0 .67.26.73.61.91 4.59.44 8.41-1.12 11.33-1.57 2.92-4.19 4.85-7.42 5.71-.12.03-.25.03-.37.01-3.03-.72-5.68-2.6-7.34-5.53-1.66-2.92-2.28-6.82-1.37-11.56.07-.37.41-.63.79-.6 1.22.08 2.24-.48 3.53-1.22.02 0 .05-.03.08-.04 1.21-.7 2.64-1.53 4.45-1.53 1.81-.04 3.16.77 4.33 1.46.02.01.03.02.05.03" clip-rule="evenodd"/></svg>