<svg xmlns="http://www.w3.org/2000/svg" fill="none" viewBox="0 0 24 24"><path fill="currentColor" d="M18 20.75H2a.75.75 0 0 1 0-1.5h16a.75.75 0 0 1 0 1.5" opacity=".4"/><path fill="currentColor" d="M10.606 14.749a1.22 1.22 0 0 1-1.028-.591 1.26 1.26 0 0 1-.116-.999c.063-.221.175-.765.244-1.109a11 11 0 0 1-.373.092c-.595.167-1.185.324-1.59.423-1.692.493-2.615.625-2.895.625-.465 0-.883-.065-1.41-.382l-.056-.037c-.422-.307-.751-.695-1.09-1.68-.106-.292-.43-1.448-.67-2.361-.352-1.341-.465-1.868-.294-2.274.148-.384.382-.647.803-.905.147-.09.391-.204 1.604-.506l.032-.008c.22-.055.648-.126 1.075.002.484.117.908.589 1.489 1.285.098.119.231.278.29.338l.03.019.053.053c.106.106.26.201.337.208.114.01.271-.028.493-.12.16-.068 1.804-.863 3.128-1.501a335 335 0 0 1 3.053-1.466l.02-.008c1.897-.792 3.864-.796 5.687-.012 1.418.609 2.366 1.528 2.678 1.938.496.62.79 1.046.576 1.898l-.01.039c-.273.881-1.027 1.102-1.312 1.186l-.04.012c-.12.036-.77.212-1.912.521-1.074.291-2.408.651-3.132.853a.3.3 0 0 0-.098.066 29 29 0 0 0-.553 1.088c-.27.547-.45.91-.566 1.111-.233.546-.79 1.197-1.548 1.472l-.01.004c-.394.138-.954.28-1.362.385-.182.047-.39.099-.446.118-.534.178-.87.223-1.08.223zm.629-2.72c-.025.14-.133.698-.231 1.138q.103-.028.207-.063a9 9 0 0 1 .548-.149c.381-.097.902-.23 1.236-.346.343-.126.606-.464.684-.665l.022-.06.034-.055c.088-.149.328-.632.539-1.058.389-.787.57-1.149.685-1.311l.037-.054.037-.036a1.77 1.77 0 0 1 .784-.519l.03-.009c.726-.201 2.02-.552 3.164-.861.908-.246 1.765-.478 1.873-.51l.047-.014c.238-.069.27-.099.296-.171.023-.1.021-.131.021-.133-.021-.073-.233-.337-.325-.45l-.014-.019c-.024-.032-2.644-3.095-6.586-1.457-.258.117-1.657.792-3.008 1.445-2.067.998-3.058 1.474-3.204 1.535-.31.129-.728.272-1.205.229-.574-.052-1.023-.413-1.223-.603-.133-.108-.27-.268-.502-.548-.187-.224-.57-.681-.746-.802l-.024-.008a.65.65 0 0 0-.28.016l-.033.008c-.894.223-1.143.316-1.2.34a.6.6 0 0 0-.143.109c.026.277.214.998.32 1.4.29 1.108.57 2.075.626 2.228l.007.019c.237.692.4.845.53.942.22.128.356.152.61.152.124-.004.925-.113 2.49-.57l.034-.009c.392-.095.981-.251 1.574-.418l.038-.01c.315-.071.588-.152.807-.217.358-.106.753-.223 1.07-.046a.9.9 0 0 1 .351.297c.283.411.14.909.046 1.238l-.02.072zm.003-.016v.005zm-4.65-5.372.005.003z"/></svg>