<svg xmlns="http://www.w3.org/2000/svg" fill="none" viewBox="0 0 24 24"><path fill="currentColor" d="M22 20.75H6a.75.75 0 0 1 0-1.5h16a.75.75 0 0 1 0 1.5" opacity=".4"/><path fill="currentColor" d="M13.325 14.753h-.096l-.093-.024-.397-.102c-1.41-.36-2.175-.568-2.444-.703a3.2 3.2 0 0 1-.77-.542c-.262-.262-.41-.537-.518-.737l-.054-.1a9 9 0 0 1-.224-.449 12 12 0 0 0-.409-.799l-.038-.07-.168-.36c-.097-.212-.208-.452-.26-.509q-.097-.087-.468-.186l-.065-.017C6.852 10.032 3.758 9.19 3.108 9q-.131-.038-.25-.068c-.52-.135-1.169-.303-1.516-1.242-.384-1.042.575-1.957 1.091-2.449q.093-.088.158-.154l.061-.056c3.83-3.156 7.664-1.21 8.14-.949.488.216 2.94 1.414 3.317 1.6l.181.09c1.401.694 2.216 1.075 2.422 1.132l.03.008c.197.06.238.035.36-.04l.063-.039c.172-.102.55-.558.754-.804.16-.192.296-.357.418-.479.257-.257.625-.47.928-.549.327-.117.82-.062 2.19.365l.097.03.044.02c.611.272.977.657 1.088 1.142.104.334.046.65-.005.928l-.025.142-.007.043-.012.042c-.042.145-.11.414-.19.725-.24.943-.602 2.368-.939 3.16l-.009.02c-.175.38-.39.783-.91 1.165l-.034.023c-.808.528-1.766.358-2.28.266l-.033-.006c-.289-.05-1.41-.35-2.845-.738a83 83 0 0 0-1.097-.293c.028.136.065.3.101.46.141.626.197.9.19 1.106-.016.626-.586 1.15-1.26 1.15zm-3.707-4.206c.141.236.31.585.46.895.073.153.15.311.182.37l.066.121c.084.157.151.281.26.39.074.075.25.195.377.258.22.097 1.455.415 2.04.565l-.072-.32a14 14 0 0 1-.157-.754c-.01-.062-.033-.157-.055-.249-.064-.268-.125-.522-.084-.767a.87.87 0 0 1 .411-.602c.424-.252.922-.113 1.53.097l.144.048c.096.022.377.098 1.062.282.863.233 2.47.666 2.716.71l.034.005c.326.058.87.154 1.182-.036.211-.159.294-.303.413-.56.29-.689.634-2.038.861-2.932.08-.31.143-.56.191-.73l.022-.125c.015-.079.034-.184.037-.238l-.008-.023-.005-.028a1 1 0 0 0-.206-.125l-.012-.004c-.835-.26-1.19-.327-1.324-.344l-.062.006a.8.8 0 0 0-.225.15c-.072.072-.2.227-.324.376-.35.424-.749.904-1.148 1.14l-.036.021c-.22.136-.735.454-1.575.203-.375-.104-1.31-.55-2.692-1.235l-.179-.088c-.542-.267-2.995-1.462-3.279-1.58l-.045-.02-.042-.025c-.104-.06-1.057-.595-2.464-.644-1.436-.05-2.774.423-3.98 1.407l-.167.162c-.447.426-.686.718-.71.867.066.18.082.184.477.287q.138.035.293.08c.62.18 3.718 1.024 4.175 1.144l.064.017c.451.118.723.19 1.096.527.27.242.414.557.614.992q.064.141.143.308z"/></svg>