<svg xmlns="http://www.w3.org/2000/svg" fill="none" viewBox="0 0 24 24"><path fill="currentColor" fill-rule="evenodd" d="M9.942 1.25h4.116c1.836 0 3.293 0 4.433.157 1.176.162 2.127.504 2.874 1.27.745.763 1.075 1.73 1.232 2.925.153 1.165.153 2.655.153 4.54v.11c0 1.886 0 3.376-.153 4.54-.157 1.197-.487 2.163-1.232 2.926-.457.47-.997.784-1.629.994a.75.75 0 1 1-.472-1.424c.437-.145.76-.343 1.028-.617.426-.437.682-1.037.818-2.074.139-1.056.14-2.447.14-4.4 0-1.952-.002-3.343-.14-4.4-.136-1.036-.392-1.636-.818-2.073-.424-.434-1.003-.693-2.005-.831-1.026-.141-2.38-.143-4.287-.143h-4c-1.907 0-3.26.002-4.287.143-1.002.138-1.58.397-2.005.831-.426.437-.682 1.037-.818 2.074-.138 1.056-.14 2.447-.14 4.4 0 1.952.002 3.343.14 4.4.136 1.036.392 1.636.818 2.073.268.274.591.472 1.028.617a.75.75 0 1 1-.472 1.424c-.632-.21-1.172-.525-1.63-.994-.744-.763-1.074-1.73-1.231-2.925-.153-1.165-.153-2.655-.153-4.54v-.11c0-1.886 0-3.376.153-4.54.157-1.197.487-2.163 1.232-2.926.747-.766 1.698-1.108 2.874-1.27 1.14-.157 2.597-.157 4.433-.157" clip-rule="evenodd"/><path fill="currentColor" fill-rule="evenodd" d="M11.353 13.32a3 3 0 0 1 1.294 0c.629.139 1.11.529 1.553 1.021.429.478.897 1.142 1.47 1.954l.058.081c.673.953 1.217 1.724 1.56 2.36.344.636.584 1.307.397 2.002a2.63 2.63 0 0 1-.697 1.186c-.499.492-1.194.665-1.95.745-.757.081-1.75.081-2.992.081h-.092c-1.242 0-2.235 0-2.992-.08-.756-.08-1.45-.254-1.95-.746a2.63 2.63 0 0 1-.696-1.186c-.188-.695.052-1.366.396-2.002.343-.636.888-1.407 1.56-2.36l.058-.081c.573-.812 1.042-1.476 1.47-1.954.443-.492.925-.882 1.553-1.02m.971 1.465a1.5 1.5 0 0 0-.648 0c-.181.04-.403.162-.76.559-.363.404-.78.994-1.388 1.855-.71 1.005-1.201 1.703-1.496 2.25-.3.554-.3.782-.268.898.05.184.15.36.302.509.12.118.374.25 1.054.322.669.071 1.582.072 2.88.072 1.299 0 2.211-.001 2.88-.072.68-.072.935-.204 1.055-.322a1.13 1.13 0 0 0 .302-.509c.03-.116.031-.344-.268-.899-.296-.546-.787-1.244-1.496-2.25-.608-.86-1.026-1.45-1.39-1.854-.356-.397-.578-.519-.759-.559" clip-rule="evenodd" opacity=".4"/></svg>