<svg xmlns="http://www.w3.org/2000/svg" fill="none" viewBox="0 0 24 24"><path fill="currentColor" fill-rule="evenodd" d="M10.056 1.25h-.112c-1.838 0-3.294 0-4.433.153-1.172.158-2.121.49-2.87 1.238-.748.749-1.08 1.698-1.238 2.87-.153 1.14-.153 2.595-.153 4.433v.112c0 1.838 0 3.294.153 4.433.158 1.172.49 2.121 1.238 2.87.749.748 1.698 1.08 2.87 1.238 1.14.153 2.595.153 4.433.153h.112c1.838 0 3.294 0 4.433-.153 1.172-.158 2.121-.49 2.87-1.238.748-.749 1.08-1.698 1.238-2.87.153-1.14.153-2.595.153-4.433v-.112c0-1.838 0-3.294-.153-4.433-.158-1.172-.49-2.121-1.238-2.87-.749-.748-1.698-1.08-2.87-1.238-1.14-.153-2.595-.153-4.433-.153M3.702 3.702c.423-.423 1.003-.677 2.009-.812 1.028-.138 2.382-.14 4.289-.14s3.262.002 4.29.14c1.005.135 1.585.389 2.008.812s.677 1.003.812 2.009c.138 1.028.14 2.382.14 4.289s-.002 3.262-.14 4.29c-.135 1.005-.389 1.585-.812 2.008a2.4 2.4 0 0 1-.91.562c-.743-1.752-2.063-3.29-3.802-4.443-2.194-1.455-4.93-2.215-7.72-2.165q-.559 0-1.116.039V10c0-1.907.002-3.261.14-4.29.135-1.005.389-1.585.812-2.008m-.946 8.093c.012 1.012.044 1.823.134 2.494.135 1.006.389 1.586.812 2.01.423.422 1.003.676 2.009.811 1.028.138 2.382.14 4.289.14 1.662 0 2.905-.001 3.877-.093-.637-1.34-1.7-2.549-3.12-3.49-1.924-1.275-4.36-1.961-6.87-1.915H3.87q-.56 0-1.115.043" clip-rule="evenodd"/><path fill="currentColor" fill-rule="evenodd" d="M17.901 6.743c1.243.122 1.914.385 2.39.86.427.428.682 1.012.819 2.025.139 1.035.14 2.399.14 4.317 0 1.92-.001 3.283-.14 4.317-.137 1.014-.392 1.598-.82 2.025-.426.427-1.01.683-2.024.819-1.034.139-2.398.14-4.317.14s-3.282-.001-4.317-.14c-1.013-.137-1.598-.392-2.024-.819-.476-.476-.74-1.147-.861-2.39l-1.493.147c.135 1.374.454 2.465 1.293 3.304.752.752 1.706 1.086 2.885 1.244 1.146.154 2.611.154 4.46.154h.114c1.85 0 3.314 0 4.46-.154 1.18-.158 2.133-.492 2.886-1.244.752-.752 1.086-1.706 1.244-2.886.154-1.146.154-2.61.154-4.46v-.113c0-1.85 0-3.315-.154-4.46-.158-1.18-.492-2.134-1.244-2.886-.84-.84-1.93-1.158-3.304-1.293zM13 6a1 1 0 1 0 0 2h.009a1 1 0 1 0 0-2z" clip-rule="evenodd" opacity=".4"/></svg>