<svg xmlns="http://www.w3.org/2000/svg" fill="none" viewBox="0 0 24 24"><path fill="currentColor" fill-rule="evenodd" d="M10.5 1.25a.75.75 0 0 1 .75.75v2a.75.75 0 0 1-1.5 0V2a.75.75 0 0 1 .75-.75m3 0a.75.75 0 0 1 .75.75v2a.75.75 0 0 1-1.5 0V2a.75.75 0 0 1 .75-.75M5.25 6.5A.75.75 0 0 1 6 5.75h2a.75.75 0 0 1 0 1.5H6a.75.75 0 0 1-.75-.75m10 0a.75.75 0 0 1 .75-.75h2a.75.75 0 0 1 0 1.5h-2a.75.75 0 0 1-.75-.75m-10 3A.75.75 0 0 1 6 8.75h2a.75.75 0 0 1 0 1.5H6a.75.75 0 0 1-.75-.75m10 0a.75.75 0 0 1 .75-.75h2a.75.75 0 0 1 0 1.5h-2a.75.75 0 0 1-.75-.75M12 19.75c-.41 0-.75-.34-.75-.75v-2.75H8c-1.21 0-1.88 0-2.19.21-.14.09-.25.21-.34.35-.21.31-.21.98-.21 2.19 0 .41-.34.75-.75.75s-.75-.34-.75-.75c0-1.51 0-2.33.46-3.03.2-.3.46-.56.76-.76.69-.46 1.52-.46 3.03-.46h3.24V12c0-.41.34-.75.75-.75s.75.34.75.75v2.75h3.26c1.51 0 2.33 0 3.03.46.3.2.56.46.76.76.46.69.46 1.52.46 3.03 0 .41-.34.75-.75.75h-.01c-.41 0-.75-.34-.75-.75 0-1.21 0-1.88-.21-2.19-.09-.14-.21-.25-.35-.35-.31-.21-.98-.21-2.19-.21h-3.25V19c0 .41-.34.75-.75.75" clip-rule="evenodd" opacity=".4"/><path fill="currentColor" fill-rule="evenodd" d="M10.667 3.25h-.049c-.587 0-1.1 0-1.514.056-.447.06-.886.196-1.244.554s-.495.797-.554 1.244c-.056.413-.056.927-.056 1.515V9.38c0 .588 0 1.102.056 1.515.06.447.196.886.554 1.244s.797.494 1.244.554c.413.056.927.056 1.515.056h2.763c.587 0 1.1 0 1.514-.056.447-.06.886-.196 1.244-.554s.494-.797.555-1.244c.055-.413.055-.927.055-1.514V6.618c0-.588 0-1.102-.055-1.515-.06-.447-.197-.886-.555-1.244s-.797-.494-1.244-.554c-.413-.056-.927-.056-1.514-.056zM8.92 4.92c.033-.032.103-.09.383-.128.301-.04.713-.042 1.363-.042h2.666c.65 0 1.062.002 1.363.042.28.038.35.096.383.129s.091.103.129.383c.04.301.042.713.042 1.363v2.666c0 .65-.002 1.062-.042 1.363-.038.28-.096.35-.129.383s-.103.091-.383.129c-.301.04-.713.042-1.363.042h-2.666c-.65 0-1.062-.002-1.363-.042-.28-.038-.35-.096-.383-.129s-.091-.103-.129-.383c-.04-.301-.042-.713-.042-1.363V6.667c0-.65.002-1.062.042-1.363.038-.28.096-.35.129-.383M3.33 22.62c.32.13.64.13 1.17.13s.85 0 1.17-.13c.44-.18.77-.52.95-.95.13-.32.13-.64.13-1.17s0-.85-.13-1.17c-.18-.43-.52-.77-.95-.95-.32-.13-.64-.13-1.17-.13s-.85 0-1.17.13c-.44.18-.77.52-.95.95-.13.32-.13.64-.13 1.17s0 .85.13 1.17c.18.43.52.77.95.95m1.77-1.39c-.14.04-1.06.04-1.2 0-.06-.03-.11-.07-.13-.13-.02-.07-.02-.33-.02-.6s0-.54.02-.6c.03-.06.07-.11.13-.13.14-.04 1.08-.04 1.2 0 .06.02.11.07.13.13.02.07.02.33.02.6s0 .54-.02.6c-.03.06-.07.11-.13.13m6.9 1.52c-.53 0-.85 0-1.17-.13-.43-.18-.77-.51-.95-.95-.13-.32-.13-.64-.13-1.17s0-.85.13-1.17c.18-.43.52-.77.95-.95.32-.13.64-.13 1.17-.13s.85 0 1.17.13c.43.18.77.52.95.95.13.32.13.64.13 1.17s0 .85-.13 1.17c-.18.43-.52.77-.95.95-.32.13-.64.13-1.17.13m-.6-1.52c.14.04 1.06.04 1.2 0a.21.21 0 0 0 .13-.13c.02-.06.02-.33.02-.59s0-.53-.02-.6a.21.21 0 0 0-.13-.13c-.13-.04-1.06-.04-1.19 0a.21.21 0 0 0-.13.13c-.02.06-.02.33-.02.59s0 .53.02.6c.02.06.07.1.13.13zm6.93 1.39c.32.13.64.13 1.17.13s.85 0 1.17-.13c.43-.18.77-.52.95-.95.13-.32.13-.64.13-1.17s0-.85-.13-1.17c-.18-.43-.52-.77-.95-.95-.32-.13-.64-.13-1.17-.13s-.85 0-1.17.13c-.43.18-.77.52-.95.95-.13.32-.13.64-.13 1.17s0 .85.13 1.17c.18.44.52.77.95.95m1.77-1.39c-.14.04-1.06.04-1.2 0h.01c-.06-.03-.11-.07-.13-.13-.02-.07-.02-.34-.02-.6s0-.53.02-.59a.21.21 0 0 1 .13-.13c.13-.04 1.06-.04 1.19 0 .06.02.11.07.13.13.02.07.02.34.02.6s0 .53-.02.59a.21.21 0 0 1-.13.13" clip-rule="evenodd"/></svg>