<svg xmlns="http://www.w3.org/2000/svg" fill="none" viewBox="0 0 24 24"><path fill="currentColor" fill-rule="evenodd" d="M17.249 10.751 17 10.75h-.333a1.917 1.917 0 0 0-1.917 1.917V13l.001.249.249.001h.333a1.917 1.917 0 0 0 1.917-1.917V11zm1.135-1.135c.236.236.311.516.341.735.025.188.025.41.025.615v.367a3.417 3.417 0 0 1-3.417 3.417h-.367c-.205 0-.427 0-.615-.025-.219-.03-.5-.105-.735-.341a1.24 1.24 0 0 1-.341-.735 5 5 0 0 1-.025-.614v-.368a3.417 3.417 0 0 1 3.417-3.417h.368c.205 0 .426 0 .614.025.219.03.5.105.735.341M5.25 10.5c0-.69.56-1.25 1.25-1.25h.833a3.417 3.417 0 0 1 3.417 3.417v.833c0 .69-.56 1.25-1.25 1.25h-.833a3.417 3.417 0 0 1-3.417-3.417zm1.5.25v.583c0 1.059.858 1.917 1.917 1.917h.583v-.583a1.917 1.917 0 0 0-1.917-1.917zm4.25 6.5a.75.75 0 0 0 0 1.5h2a.75.75 0 0 0 0-1.5z" clip-rule="evenodd" opacity=".4"/><path fill="currentColor" fill-rule="evenodd" d="M12 2.75c-4.587 0-8.25 3.172-8.25 8.25 0 2.505 1.374 5.082 3.18 7.066.895.984 1.872 1.793 2.788 2.351.935.57 1.732.833 2.282.833s1.347-.263 2.282-.833c.916-.558 1.893-1.367 2.788-2.35 1.806-1.985 3.18-4.562 3.18-7.067 0-5.078-3.663-8.25-8.25-8.25M2.25 11c0-5.967 4.396-9.75 9.75-9.75s9.75 3.783 9.75 9.75c0 3.018-1.626 5.94-3.57 8.076-.98 1.076-2.065 1.981-3.118 2.622-1.034.63-2.112 1.052-3.062 1.052s-2.028-.422-3.062-1.052c-1.053-.64-2.138-1.546-3.118-2.622C3.876 16.941 2.25 14.018 2.25 11" clip-rule="evenodd"/></svg>