<svg xmlns="http://www.w3.org/2000/svg" fill="none" viewBox="0 0 24 24"><path fill="currentColor" fill-rule="evenodd" d="M14.615 14.357a.75.75 0 0 0 .77 1.287C19.515 13.172 19.75 8.82 19.75 7c0-1.396-.174-2.457-.356-3.182a8 8 0 0 0-.254-.831 5 5 0 0 0-.12-.29l-.01-.02-.003-.007-.002-.003v-.002a.75.75 0 1 0-1.33.698q.02.045.06.15c.053.142.128.364.204.67.152.608.311 1.547.311 2.817 0 1.751-.246 5.309-3.607 7.34zM5.75 16.932c0-1.616.22-4.788 3.075-6.905.286-.213.381-.61.192-.912-.25-.4-.78-.525-1.157-.24-3.393 2.561-3.61 6.361-3.61 8.057 0 1.425.19 2.508.389 3.247.034.128.08.278.13.43.138.418.61.577.998.369.35-.188.499-.609.38-.988a5 5 0 0 1-.06-.199c-.164-.617-.337-1.57-.337-2.859" clip-rule="evenodd" opacity=".4"/><path fill="currentColor" fill-rule="evenodd" d="M4.69 2.317a.75.75 0 0 1 .993.373c1.69 3.724 4.08 6.212 6.63 8.782l.305.307c2.452 2.467 5.027 5.058 7.045 8.87a.75.75 0 1 1-1.326.702c-1.911-3.611-4.346-6.062-6.816-8.549l-.272-.274C8.695 9.955 6.128 7.301 4.317 3.31a.75.75 0 0 1 .373-.993" clip-rule="evenodd"/></svg>