<svg xmlns="http://www.w3.org/2000/svg" fill="none" viewBox="0 0 24 24"><path fill="currentColor" fill-rule="evenodd" d="M13 3.25a.75.75 0 0 1 .75.75v9.25h6.993l.301-.001-.098-.15c-1.012-1.537-2.464-2.349-3.829-2.349a.75.75 0 0 1 0-1.5c1.97 0 3.852 1.156 5.082 3.024l.026.041c.15.228.316.48.413.71.122.295.188.684-.037 1.083-.232.412-.621.549-.922.6-.258.042-.578.042-.887.042H13.75v2.958c0 .515 0 .964-.041 1.325-.045.382-.145.778-.432 1.113-.302.352-.685.493-1.063.552-.332.052-.736.052-1.164.052H10a.75.75 0 0 1 0-1.5h1c.496 0 .78-.002.981-.034a.6.6 0 0 0 .144-.036c.008-.004.008-.005.012-.01.007-.007.053-.06.081-.309.03-.265.032-.626.032-1.194V4a.75.75 0 0 1 .75-.75m8.258 10.366" clip-rule="evenodd" opacity=".4"/><path fill="currentColor" fill-rule="evenodd" d="M5.75 4a.75.75 0 0 0-1.5 0v13.667c0 .568-.001.93-.032 1.194-.028.25-.074.302-.08.31-.005.004-.005.005-.013.009a.5.5 0 0 1-.144.036c-.2.032-.485.034-.981.034H2a.75.75 0 0 0 0 1.5h1.05c.428 0 .832 0 1.163-.052.38-.06.762-.2 1.064-.552.287-.335.387-.731.431-1.113.042-.361.042-.81.042-1.325zm4 0a.75.75 0 0 0-1.5 0v7a.75.75 0 0 0 1.5 0z" clip-rule="evenodd"/></svg>