<svg xmlns="http://www.w3.org/2000/svg" fill="none" viewBox="0 0 24 24"><path fill="currentColor" fill-rule="evenodd" d="M18.462 3.476a.75.75 0 0 1-.013 1.06L5.548 17.124c-.763.744-1.274 1.245-1.573 1.633-.13.168-.185.27-.208.328.057.026.176.064.407.096.495.068 1.222.07 2.3.07H21a.75.75 0 0 1 0 1.5H6.413c-1.002 0-1.834 0-2.444-.084-.589-.081-1.306-.281-1.607-.99-.306-.719.065-1.37.425-1.836.372-.483.962-1.058 1.669-1.748L17.4 3.463a.75.75 0 0 1 1.06.013M3.718 19.055l.008.007q-.01-.007-.008-.008m.034.072v.014q-.003 0 0-.014" clip-rule="evenodd"/><path fill="currentColor" fill-rule="evenodd" d="M7.357 13.614a.75.75 0 0 1 1.03-.257c2.04 1.226 3.363 3.783 3.363 6.643a.75.75 0 0 1-1.5 0c0-2.436-1.13-4.452-2.636-5.357a.75.75 0 0 1-.257-1.03" clip-rule="evenodd" opacity=".4"/></svg>