<svg xmlns="http://www.w3.org/2000/svg" fill="none" viewBox="0 0 24 24"><path fill="currentColor" d="M11.998 6.5c-.41 0-.75-.34-.75-.75 0-2.29 1.71-4.75 4.25-4.75.41 0 .75.34.75.75 0 2.29-1.71 4.75-4.25 4.75m2.62-3.82c-.85.36-1.48 1.21-1.74 2.14.85-.36 1.48-1.21 1.74-2.14" opacity=".4"/><path fill="currentColor" d="M15.898 23c-.84 0-1.57-.32-2.15-.58-.46-.2-.89-.39-1.25-.39s-.79.19-1.25.39c-.58.26-1.31.58-2.15.58-2.68 0-5.85-5.56-5.85-10.25s3.46-6.25 5.64-6.25c1.21 0 1.94.31 2.54.55.42.17.71.29 1.07.29.25 0 .37-.05.64-.17l.28-.12c.59-.24 1.33-.55 2.52-.55.62 0 2.74.17 4.18 2.33.11.17.15.38.11.58a.76.76 0 0 1-.34.48c-1.23.75-1.8 1.65-1.8 2.86 0 1.56.84 2.89 2.2 3.46.37.15.55.56.42.94-.94 2.7-2.76 5.85-4.81 5.85m-3.4-2.46c.67 0 1.27.26 1.85.51.48.21 1.03.45 1.55.45.77 0 2.14-1.6 3.17-4.23-1.53-.92-2.48-2.62-2.48-4.52 0-1.47.61-2.7 1.83-3.66-.97-1-2.11-1.09-2.48-1.09-.9 0-1.43.22-1.95.44l-.24.1c-.34.15-.68.3-1.25.3-.65 0-1.15-.2-1.63-.4-.53-.22-1.07-.44-1.98-.44-1.6 0-4.14 1.29-4.14 4.75 0 4.52 2.99 8.75 4.35 8.75.53 0 1.07-.24 1.55-.45.58-.25 1.19-.51 1.85-.51"/></svg>