<svg xmlns="http://www.w3.org/2000/svg" fill="none" viewBox="0 0 24 24"><path fill="currentColor" fill-rule="evenodd" d="M14.98 8.25a.75.75 0 0 1 .671.378l1.513 2.647.806-.805a.75.75 0 0 1 1.154.114l1.445 2.168c.133.199.208.31.271.39a.5.5 0 0 0 .063.07l.029.016-.002-.001h.002a.5.5 0 0 0 .093.014c.1.008.236.009.475.009v1.5h-.09c-.36.001-.748.003-1.1-.157a2 2 0 0 1-.198-.107c-.328-.203-.542-.527-.741-.827l-.05-.075-.938-1.407-.853.853a.75.75 0 0 1-1.181-.158l-1.305-2.283-2.873 5.746a.75.75 0 0 1-1.342 0l-1.777-3.553-.863 2.013a.75.75 0 0 1-1.332.09l-.945-1.574-.726.907-.058.072c-.233.294-.485.612-.85.787-.366.176-.771.174-1.146.173H2.5v-1.5h.539c.248 0 .388 0 .493-.01l.084-.011.01-.003h.002v-.001l.01-.007.061-.058a7 7 0 0 0 .316-.38l1.4-1.748a.75.75 0 0 1 1.228.082l.745 1.242.923-2.151a.75.75 0 0 1 1.36-.04l1.829 3.658 2.83-5.658a.75.75 0 0 1 .65-.415" clip-rule="evenodd" opacity=".4"/><path fill="currentColor" fill-rule="evenodd" d="M12.057 1.75h-.114c-2.19 0-3.912 0-5.255.18-1.377.186-2.469.573-3.327 1.43-.858.86-1.245 1.951-1.43 3.328-.181 1.343-.181 3.064-.181 5.255v.114c0 2.19 0 3.912.18 5.255.186 1.377.573 2.469 1.43 3.327.86.858 1.951 1.245 3.328 1.43 1.343.181 3.064.181 5.255.181h.114c1.026 0 1.948 0 2.777-.018a.75.75 0 0 0 .37-.01 21 21 0 0 0 2.108-.153c1.377-.185 2.469-.572 3.327-1.43s1.245-1.95 1.43-3.327c.181-1.343.181-3.064.181-5.255v-.114c0-2.19 0-3.912-.18-5.255-.186-1.377-.573-2.469-1.43-3.327-.86-.858-1.951-1.245-3.328-1.43a21 21 0 0 0-2.107-.153.75.75 0 0 0-.371-.01c-.83-.018-1.751-.018-2.777-.018m2.193 1.509c-.671-.009-1.417-.009-2.25-.009-2.26 0-3.88.002-5.112.167-1.21.163-1.933.472-2.466 1.005S3.58 5.678 3.417 6.888C3.252 8.12 3.25 9.74 3.25 12s.002 3.88.167 5.112c.163 1.21.472 1.933 1.005 2.466s1.256.842 2.466 1.005c1.232.165 2.852.167 5.112.167.833 0 1.579 0 2.25-.009V14.5a.75.75 0 0 1 1.5 0v6.2c.503-.025.954-.062 1.362-.117 1.21-.163 1.933-.471 2.466-1.005s.842-1.256 1.005-2.466c.165-1.232.167-2.852.167-5.112s-.002-3.88-.167-5.112c-.163-1.21-.471-1.933-1.005-2.466s-1.256-.842-2.466-1.005q-.61-.081-1.362-.116V5.5a.75.75 0 0 1-1.5 0zM13.25 9a1.75 1.75 0 1 1 3.5 0 1.75 1.75 0 0 1-3.5 0" clip-rule="evenodd"/></svg>