<svg xmlns="http://www.w3.org/2000/svg" fill="none" viewBox="0 0 24 24"><path fill="currentColor" fill-rule="evenodd" d="M18.75 4a.75.75 0 0 1-.75.75H6a.75.75 0 0 1 0-1.5h12a.75.75 0 0 1 .75.75" clip-rule="evenodd" opacity=".4"/><path fill="currentColor" d="M16.504 12.556a.75.75 0 0 1-1.06-.052L12.75 9.53V20a.75.75 0 0 1-1.5 0V9.53l-2.694 2.973a.75.75 0 1 1-1.112-1.008l3.02-3.332c.213-.234.43-.45.659-.61.234-.165.527-.304.877-.304s.644.139.878.303c.228.16.445.377.658.611l3.02 3.332a.75.75 0 0 1-.052 1.06"/></svg>