<svg xmlns="http://www.w3.org/2000/svg" fill="none" viewBox="0 0 24 24"><path fill="currentColor" d="M17.395 15.445a52 52 0 0 0-2.37-2.953c-.642-.74-1.318-1.462-1.918-1.992a5.7 5.7 0 0 0-.783-.6c-.205-.124-.327-.15-.327-.15s-.117.026-.322.15a5.7 5.7 0 0 0-.784.6c-.6.53-1.275 1.251-1.918 1.992a52 52 0 0 0-2.37 2.952.75.75 0 0 1-1.208-.889l.002-.002a53 53 0 0 1 2.443-3.044c.66-.76 1.385-1.539 2.058-2.134a7 7 0 0 1 1.002-.76c.306-.184.693-.365 1.1-.365.406 0 .793.181 1.098.366a7 7 0 0 1 1.002.76c.674.594 1.4 1.373 2.058 2.132a53 53 0 0 1 1.717 2.093c.222.284.599.783.726.951l.002.003a.75.75 0 0 1-1.208.89" opacity=".4"/><path fill="currentColor" d="M18.603 14.555a.75.75 0 1 1-1.208.89 52 52 0 0 0-2.37-2.953c-.643-.74-1.318-1.462-1.918-1.992a5.7 5.7 0 0 0-.784-.6A1.2 1.2 0 0 0 12 9.75a.75.75 0 0 1 0-1.5c.406 0 .793.181 1.099.366.326.196.666.463 1.002.76.673.594 1.399 1.373 2.058 2.132a53 53 0 0 1 2.443 3.044z"/></svg>