<svg xmlns="http://www.w3.org/2000/svg" fill="none" viewBox="0 0 24 24"><path fill="currentColor" fill-rule="evenodd" d="M19.25 9.5c0-4.12-3.013-7.25-7.25-7.25a.75.75 0 0 0 0 1.5c3.393 0 5.75 2.443 5.75 5.75v11a.75.75 0 0 0 1.5 0zm-14.5 5c0 4.12 3.013 7.25 7.25 7.25a.75.75 0 0 0 0-1.5c-3.393 0-5.75-2.443-5.75-5.75v-11a.75.75 0 0 0-1.5 0z" clip-rule="evenodd" opacity=".4"/><path fill="currentColor" fill-rule="evenodd" d="M2.396 5.055a.75.75 0 1 0 1.208.89v-.001l.004-.005.014-.019a15 15 0 0 1 .267-.35c.178-.227.42-.529.68-.828a9 9 0 0 1 .76-.79 3 3 0 0 1 .171-.14q.073.053.172.14c.229.203.496.487.759.79a21 21 0 0 1 .947 1.178l.014.02.004.005a.75.75 0 0 0 1.208-.89l-.023-.031a17 17 0 0 0-.288-.376c-.187-.24-.447-.564-.73-.89a10 10 0 0 0-.898-.93 3.4 3.4 0 0 0-.481-.363c-.147-.088-.393-.215-.684-.215s-.537.127-.684.215a3.4 3.4 0 0 0-.481.364 10 10 0 0 0-.898.93A23 23 0 0 0 2.42 5.023l-.017.022-.005.007zm19.208 13.89a.75.75 0 1 0-1.208-.89v.001l-.004.005-.014.019-.267.35c-.178.227-.42.529-.68.828-.263.303-.53.587-.759.79a3 3 0 0 1-.172.14 3 3 0 0 1-.172-.14 9 9 0 0 1-.759-.79 21 21 0 0 1-.947-1.178l-.014-.02-.004-.005a.75.75 0 0 0-1.208.89l.023.031.063.084a23 23 0 0 0 .955 1.182c.28.322.596.663.898.93.15.132.314.262.481.363.147.088.393.215.684.215s.537-.127.684-.215c.167-.101.331-.231.481-.363.302-.267.619-.608.898-.93a23 23 0 0 0 .955-1.183l.063-.083.016-.022.005-.006z" clip-rule="evenodd"/></svg>