<svg xmlns="http://www.w3.org/2000/svg" fill="none" viewBox="0 0 24 24"><path fill="currentColor" fill-rule="evenodd" d="M10.25 6a.75.75 0 0 1 .75-.75h4.5a5.25 5.25 0 1 1 0 10.5H4a.75.75 0 0 1 0-1.5h11.5a3.75 3.75 0 1 0 0-7.5H11a.75.75 0 0 1-.75-.75" clip-rule="evenodd" opacity=".4"/><path fill="currentColor" d="M6.554 11.397h.001a.75.75 0 0 1 .914 1.188l-.476.364c-.275.214-.64.507-1.001.82-.366.318-.712.643-.961.925q-.165.188-.24.306.075.119.24.306c.249.282.595.607.96.924a25 25 0 0 0 1.472 1.18c.333.245.387.701.14 1.035a.75.75 0 0 1-1.048.159l-.136-.102a28 28 0 0 1-1.41-1.14A12 12 0 0 1 3.906 16.3a4 4 0 0 1-.42-.556c-.103-.17-.237-.435-.237-.743s.134-.574.237-.743c.114-.19.264-.38.42-.556.313-.355.717-.73 1.101-1.064a27 27 0 0 1 1.546-1.24"/></svg>