<svg xmlns="http://www.w3.org/2000/svg" fill="none" viewBox="0 0 24 24"><path fill="currentColor" fill-rule="evenodd" d="M1.25 12a.75.75 0 0 1 .75-.75h20a.75.75 0 0 1 0 1.5H2a.75.75 0 0 1-.75-.75" clip-rule="evenodd" opacity=".4"/><path fill="currentColor" fill-rule="evenodd" d="M5.538 8.477a.75.75 0 0 1-.015 1.06 11 11 0 0 1-.853.706c-.295.231-.612.48-.913.735a7 7 0 0 0-.803.768A1.6 1.6 0 0 0 2.77 12q.048.09.184.254c.194.228.476.49.803.768.3.254.618.504.913.735l.069.054c.296.232.597.47.784.651a.75.75 0 1 1-1.046 1.076 10 10 0 0 0-.665-.548l-.072-.056c-.29-.228-.63-.494-.952-.768a9 9 0 0 1-.976-.94 3 3 0 0 1-.37-.526 1.5 1.5 0 0 1-.192-.7c0-.276.095-.518.193-.7.1-.188.232-.366.37-.527.273-.32.628-.645.975-.94.323-.273.661-.539.952-.767l.072-.056c.323-.254.549-.435.665-.548a.75.75 0 0 1 1.06.015m12.924 0a.75.75 0 0 1 1.06-.015 10 10 0 0 0 .738.604c.29.228.63.494.952.768.347.294.702.618.976.94.137.16.269.338.37.526.097.182.192.424.192.7s-.095.518-.193.7a3 3 0 0 1-.37.527 9 9 0 0 1-.975.94c-.323.273-.661.539-.952.767l-.072.056a10 10 0 0 0-.665.548.75.75 0 1 1-1.046-1.076 11 11 0 0 1 .853-.705c.295-.231.612-.48.913-.735a7 7 0 0 0 .803-.768A1.6 1.6 0 0 0 21.23 12a1.6 1.6 0 0 0-.184-.254 7 7 0 0 0-.803-.768 32 32 0 0 0-.981-.789c-.297-.233-.598-.47-.785-.651a.75.75 0 0 1-.015-1.06" clip-rule="evenodd"/></svg>