<svg xmlns="http://www.w3.org/2000/svg" fill="none" viewBox="0 0 24 24"><path fill="currentColor" fill-rule="evenodd" d="M12.946 2.25h3.108c1.133 0 2.058 0 2.79.098.763.103 1.425.325 1.954.854s.751 1.191.854 1.955c.098.731.098 1.657.098 2.79v4.054a.75.75 0 0 1-1.5 0v-4c0-1.2-.002-2.025-.085-2.644-.08-.598-.224-.89-.428-1.094s-.496-.348-1.094-.428C18.024 3.752 17.2 3.75 16 3.75h-3c-1.2 0-2.024.002-2.643.085-.598.08-.89.224-1.094.428s-.348.496-.428 1.094c-.083.62-.085 1.444-.085 2.644v8c0 1.2.002 2.025.085 2.644.08.598.224.891.428 1.095.174.174.411.302.84.386.45.088 1.047.117 1.903.124a.75.75 0 0 1-.012 1.5c-.851-.007-1.577-.034-2.18-.152-.623-.122-1.166-.351-1.612-.797-.529-.53-.751-1.192-.854-1.956-.098-.73-.098-1.656-.098-2.79V7.948c0-1.133 0-2.059.098-2.79.103-.764.325-1.426.854-1.955s1.19-.751 1.955-.854c.73-.098 1.656-.098 2.79-.098M1.25 4c0-.966.784-1.75 1.75-1.75h1c.966 0 1.75.784 1.75 1.75v14a.75.75 0 0 1-.08.335l-1.5 3a.75.75 0 0 1-1.34 0l-1.5-3A.75.75 0 0 1 1.25 18zM3 3.75a.25.25 0 0 0-.25.25v13.823l.75 1.5.75-1.5V4A.25.25 0 0 0 4 3.75zm19.336 11.921a.75.75 0 1 0-.671-1.342c-2.145 1.073-3.608 2.674-4.53 3.991-.337.483-.605.93-.81 1.306a6.3 6.3 0 0 0-1.767-1.208 5 5 0 0 0-.287-.118l-.021-.007-.008-.003-.004-.001a.75.75 0 0 0-.478 1.422h.001l.003.001.032.012q.049.018.146.062a4.4 4.4 0 0 1 .536.288 4.6 4.6 0 0 1 1.398 1.342.75.75 0 0 0 1.326-.152l.002-.004.01-.026.047-.113c.044-.101.112-.252.207-.442.19-.379.484-.909.897-1.499.828-1.183 2.116-2.581 3.97-3.509" clip-rule="evenodd"/><path fill="currentColor" fill-rule="evenodd" d="M2 6.25a.75.75 0 0 0 0 1.5h3a.75.75 0 0 0 0-1.5zm9.25.75a.75.75 0 0 1 .75-.75h5a.75.75 0 0 1 0 1.5h-5a.75.75 0 0 1-.75-.75m0 4a.75.75 0 0 1 .75-.75h5a.75.75 0 0 1 0 1.5h-5a.75.75 0 0 1-.75-.75" clip-rule="evenodd" opacity=".4"/></svg>