<svg xmlns="http://www.w3.org/2000/svg" fill="none" viewBox="0 0 24 24"><path fill="currentColor" fill-rule="evenodd" d="M12 3.75a8.25 8.25 0 1 0 4.95 14.85.75.75 0 1 1 .901 1.2A9.7 9.7 0 0 1 12 21.75c-5.385 0-9.75-4.365-9.75-9.75S6.615 2.25 12 2.25s9.75 4.365 9.75 9.75v.9a3.45 3.45 0 0 1-3.45 3.45.75.75 0 0 1 0-1.5 1.95 1.95 0 0 0 1.95-1.95V12A8.25 8.25 0 0 0 12 3.75" clip-rule="evenodd" opacity=".4"/><path fill="currentColor" fill-rule="evenodd" d="M12 9.148a2.85 2.85 0 1 0 0 5.7 2.85 2.85 0 0 0 0-5.7m2.85-.436a4.35 4.35 0 1 0 .53 6.025 3.45 3.45 0 0 0 2.92 1.611.75.75 0 1 0 0-1.5 1.95 1.95 0 0 1-1.95-1.95v-4.5a.75.75 0 0 0-1.5 0z" clip-rule="evenodd"/></svg>