<svg xmlns="http://www.w3.org/2000/svg" fill="none" viewBox="0 0 24 24"><path fill="currentColor" d="M6.685 21.752c-1.308 0-2.429-.384-3.238-1.192-1.317-1.319-1.558-3.482-.679-6.094a.75.75 0 0 1 1.422.477c-.678 2.014-.562 3.674.318 4.555.865.865 2.493.991 4.467.347 2.175-.71 4.508-2.237 6.57-4.298a22 22 0 0 0 1.281-1.4.75.75 0 1 1 1.151.963 23 23 0 0 1-1.37 1.498C13.31 19.9 9.552 21.75 6.686 21.75zm-.084-11.62A.75.75 0 0 1 6.026 8.9a23 23 0 0 1 1.371-1.498C12.194 2.606 17.974.87 20.555 3.45c1.226 1.227 1.52 3.22.83 5.613a.75.75 0 0 1-1.443-.417c.532-1.844.373-3.313-.449-4.136-.865-.865-2.493-.99-4.467-.347-2.175.71-4.508 2.237-6.569 4.298a22 22 0 0 0-1.282 1.4.75.75 0 0 1-.575.27z" opacity=".4"/><path fill="currentColor" fill-rule="evenodd" d="M13.986 21.065c1.197.456 2.322.683 3.326.683 1.333 0 2.453-.4 3.244-1.19 2.58-2.582.845-8.362-3.951-13.159a23 23 0 0 0-1.885-1.688.75.75 0 0 0-.937 1.171 22 22 0 0 1 1.761 1.578c2.061 2.061 3.589 4.394 4.299 6.57.643 1.972.517 3.601-.348 4.466-.948.95-2.762 1.011-4.975.167a.75.75 0 0 0-.534 1.402m-4.702-2.77a.75.75 0 0 0 .468.164v.001a.75.75 0 0 0 .47-1.336 22 22 0 0 1-1.762-1.578c-2.06-2.06-3.588-4.394-4.298-6.569-.644-1.974-.518-3.602.347-4.467.881-.88 2.541-.996 4.555-.318a.75.75 0 1 0 .479-1.422c-2.612-.879-4.777-.638-6.095.68-2.58 2.58-.844 8.36 3.952 13.157a23 23 0 0 0 1.884 1.688m1.544-3.02a.75.75 0 0 0 1.056-.084l1.763-2.07.023-.028.007-.009.001-.001c.265-.346.628-.82.291-1.365-.285-.463-.769-.463-1.282-.463h-.679l1.24-1.466a.75.75 0 1 0-1.145-.969l-1.75 2.07-.023.027v.002c-.269.348-.635.826-.298 1.372.285.463.77.463 1.282.463h.676l-1.247 1.464a.75.75 0 0 0 .085 1.057" clip-rule="evenodd"/></svg>