<svg xmlns="http://www.w3.org/2000/svg" fill="none" viewBox="0 0 24 24"><path fill="currentColor" d="M21 22.751a.74.74 0 0 1-.53-.22l-1.666-1.666a4.16 4.16 0 0 1-2.375.742 4.183 4.183 0 0 1-4.179-4.178 4.184 4.184 0 0 1 4.179-4.179 4.183 4.183 0 0 1 4.178 4.179c0 .881-.274 1.7-.742 2.375l1.666 1.666a.75.75 0 0 1-.53 1.281zm-4.571-8a2.68 2.68 0 0 0-2.679 2.679 2.68 2.68 0 0 0 2.679 2.678 2.68 2.68 0 0 0 2.678-2.678 2.68 2.68 0 0 0-2.678-2.679" opacity=".4"/><path fill="currentColor" fill-rule="evenodd" d="M11 22.75a.75.75 0 0 0 0-1.5c-3.56 0-5.346 0-6.298-.953-.952-.951-.952-2.738-.952-6.297v-4c0-3.56 0-5.346.953-6.298C5.654 2.75 7.44 2.75 11 2.75s5.346 0 6.298.953c.952.951.952 2.738.952 6.297v1a.75.75 0 0 0 1.5 0v-1c0-3.973 0-5.968-1.391-7.358C16.968 1.25 14.973 1.25 11 1.25s-5.968 0-7.358 1.392C2.25 4.032 2.25 6.027 2.25 10v4c0 3.973 0 5.968 1.391 7.358C5.032 22.75 7.027 22.75 11 22.75m-4-11h4a.75.75 0 0 0 0-1.5H7a.75.75 0 0 0 0 1.5m0-4h8a.75.75 0 0 0 0-1.5H7a.75.75 0 0 0 0 1.5" clip-rule="evenodd"/></svg>