<svg xmlns="http://www.w3.org/2000/svg" fill="none" viewBox="0 0 24 24"><path fill="currentColor" fill-rule="evenodd" d="M16.25 7.961a.75.75 0 0 0 1.5 0V6.457a2.254 2.254 0 0 0-2.25-2.254H7a.75.75 0 0 0 0 1.5h8.5c.414 0 .75.338.75.754zm1.236 12.868c1.198 1.183 1.954 1.928 2.74 1.928q.254 0 .518-.108c1.006-.412 1.006-1.535 1.006-3.575v-3.173c0-2.04 0-3.165-1.006-3.575-.998-.409-1.8.382-3.255 1.817l-.003.003c-.508.502-.697.577-1.444.577-.907 0-1.454 0-1.936.318-.88.58-.867 1.581-.858 2.244v.001l.002.201v.098l-.002.103v.001c-.009.663-.022 1.663.858 2.244.482.318 1.029.318 1.936.318.746 0 .935.076 1.444.578m1.057-5.617c.636-.628 1.29-1.274 1.608-1.445.1.345.1 1.253.1 2.134v3.173c0 .882 0 1.79-.1 2.135-.318-.172-.974-.819-1.61-1.448-.796-.783-1.356-1.01-2.499-1.01-.516 0-1.004 0-1.11-.07-.182-.12-.19-.462-.184-.97v-.002l.002-.22-.002-.222c-.007-.51.002-.853.184-.973.106-.07.594-.07 1.11-.07 1.144 0 1.704-.226 2.498-1.009z" clip-rule="evenodd" opacity=".4"/><path fill="currentColor" d="M11.952 22.655H6.975c-2.612 0-4.538-1.9-4.684-4.62v-.038L2.256 5.153v-.021a3 3 0 0 1 0-.416c.071-1.124.707-2.229 1.702-2.956.471-.344 1.076-.51 1.85-.51h12.197a.75.75 0 0 1 0 1.5H5.808c-.45 0-.758.071-.966.222-.493.36-1.039 1.033-1.09 1.839-.04.657.258 1.293.89 1.89.448.423 1.11.512 1.586.512h11.564c2.453 0 2.968 1.78 2.968 3.274a.75.75 0 0 1-1.5 0c0-1.774-.814-1.774-1.468-1.774H6.228c-.99 0-1.839-.272-2.466-.789l.026 10.051c.111 1.934 1.36 3.182 3.185 3.182h4.977a.75.75 0 0 1 0 1.5z"/></svg>