<svg xmlns="http://www.w3.org/2000/svg" fill="none" viewBox="0 0 24 24"><path fill="currentColor" fill-rule="evenodd" d="M7.945 4.75h8.11c1.367 0 2.47 0 3.337.117.9.12 1.658.38 2.26.981.602.602.86 1.36.982 2.26.116.867.116 1.97.116 3.337v3.61c0 1.367 0 2.47-.116 3.337-.122.9-.38 1.658-.982 2.26s-1.36.86-2.26.982c-.867.116-1.97.116-3.337.116h-8.11c-1.367 0-2.47 0-3.337-.116-.9-.122-1.658-.38-2.26-.982s-.86-1.36-.981-2.26c-.117-.867-.117-1.97-.117-3.337v-3.61c0-1.367 0-2.47.117-3.337.12-.9.38-1.658.981-2.26.602-.602 1.36-.86 2.26-.981.867-.117 1.97-.117 3.337-.117M4.808 6.353c-.734.099-1.122.28-1.399.556-.277.277-.457.665-.556 1.4-.101.754-.103 1.756-.103 3.191V15c0 1.435.002 2.436.103 3.192.099.734.28 1.122.556 1.399.277.277.665.457 1.4.556.754.101 1.756.103 3.191.103h8c1.435 0 2.436-.002 3.192-.103.734-.099 1.122-.28 1.399-.556.277-.277.457-.665.556-1.4.101-.755.103-1.756.103-3.191v-3.5c0-1.435-.002-2.437-.103-3.192-.099-.734-.28-1.122-.556-1.399-.277-.277-.665-.457-1.4-.556-.755-.101-1.756-.103-3.191-.103H8c-1.435 0-2.437.002-3.192.103" clip-rule="evenodd"/><path fill="currentColor" fill-rule="evenodd" d="M7.217 2.25h.066c.323 0 .619 0 .864.025.267.027.555.09.825.27.191.128.355.292.483.483.18.27.243.558.27.825.025.245.025.541.025.864V5.5a.75.75 0 1 1-1.5 0v-.75c0-.367 0-.585-.017-.746a.6.6 0 0 0-.027-.145.3.3 0 0 0-.065-.065.6.6 0 0 0-.145-.027 8 8 0 0 0-.746-.017c-.367 0-.585 0-.746.017a.6.6 0 0 0-.145.027.3.3 0 0 0-.065.065.6.6 0 0 0-.027.145c-.016.16-.017.38-.017.746v.75a.75.75 0 1 1-1.5 0v-.783c0-.323 0-.619.025-.864.027-.267.09-.555.27-.825a1.8 1.8 0 0 1 .483-.483c.27-.18.558-.243.825-.27.245-.025.541-.025.864-.025m-.921 1.605-.002.003zm.059-.06h.003zm1.79 0h-.003zm.06.06v.003zM17.75 8.5a.75.75 0 0 0-1.5 0v1.25H15a.75.75 0 0 0 0 1.5h1.25v1.25a.75.75 0 0 0 1.5 0v-1.25H19a.75.75 0 0 0 0-1.5h-1.25zM5 9.75a.75.75 0 0 0 0 1.5h4a.75.75 0 0 0 0-1.5zm11.75-7.5h-.033c-.323 0-.619 0-.864.025-.267.027-.555.09-.825.27a1.8 1.8 0 0 0-.483.483c-.18.27-.243.558-.27.825-.025.245-.025.541-.025.864V5.5a.75.75 0 0 0 1.5 0v-.75c0-.367 0-.585.017-.746a.6.6 0 0 1 .027-.145.3.3 0 0 1 .065-.065.6.6 0 0 1 .145-.027c.16-.016.38-.017.746-.017.367 0 .585 0 .746.017.095.01.134.022.145.027a.3.3 0 0 1 .065.065.6.6 0 0 1 .027.145c.016.16.017.38.017.746v.75a.75.75 0 0 0 1.5 0v-.783c0-.323 0-.619-.025-.864a1.76 1.76 0 0 0-.27-.825 1.8 1.8 0 0 0-.483-.483 1.76 1.76 0 0 0-.825-.27 9 9 0 0 0-.864-.025zm-.954 1.605-.002.003zm.062-.06h-.003zm1.784 0h.003zm.063.06v.003z" clip-rule="evenodd" opacity=".4"/></svg>