<svg xmlns="http://www.w3.org/2000/svg" fill="none" viewBox="0 0 24 24"><path fill="currentColor" fill-rule="evenodd" d="M3.933 4.25H5a.75.75 0 1 1 0 1.5H3.985c-.52 0-.817.002-1.028.037a.6.6 0 0 0-.154.04.1.1 0 0 0-.024.02l-.004.005c-.013.015-.027.031-.025.134.005.168.051.4.147.842.314 1.457.991 2.721 1.89 3.65a.75.75 0 1 1-1.077 1.044C2.603 10.378 1.8 8.856 1.43 7.144l-.01-.051c-.08-.37-.16-.742-.17-1.068-.01-.394.081-.778.37-1.13.306-.372.7-.524 1.096-.589.346-.056.769-.056 1.217-.056m8.067 7a.75.75 0 0 1 .75.75v6a.75.75 0 0 1-1.5 0v-6a.75.75 0 0 1 .75-.75m8.015-5.5c.52 0 .817.002 1.028.037a.6.6 0 0 1 .154.04.1.1 0 0 1 .024.02l.003.005c.014.015.028.031.026.134-.005.168-.051.4-.147.842-.314 1.457-.991 2.721-1.89 3.65a.75.75 0 1 0 1.077 1.044c1.107-1.144 1.91-2.666 2.28-4.378l.01-.051c.08-.37.16-.742.17-1.068.01-.394-.081-.778-.37-1.13-.306-.372-.7-.524-1.096-.589-.346-.056-.769-.056-1.217-.056H19a.75.75 0 0 0 0 1.5z" clip-rule="evenodd" opacity=".4"/><path fill="currentColor" fill-rule="evenodd" d="M15.496 1.25q-3.495.004-6.992 0c-1.63-.002-3.556.26-4.085 2.076-.121.416-.14.872-.16 1.324l-.002.055q-.007.166-.007.333c0 4.263 3.474 7.712 7.75 7.712s7.75-3.449 7.75-7.712a8 8 0 0 0-.01-.388c-.019-.453-.038-.908-.16-1.324-.528-1.817-2.454-2.078-4.084-2.076m-7.11 1.497.29.003h6.648l.29-.003c.918-.014 2.226-.035 2.527.999.064.221.08.495.103 1.024q.006.133.006.268c0 3.427-2.794 6.212-6.25 6.212S5.75 8.465 5.75 5.038q0-.136.006-.268c.022-.53.039-.803.103-1.024.301-1.034 1.609-1.013 2.527-.999m.4 18.096C9.429 19.57 10.645 18.75 12 18.75c1.356 0 2.571.82 3.213 2.093a.29.29 0 0 1-.004.293c-.052.087-.122.114-.168.114H8.958c-.046 0-.116-.027-.168-.114a.3.3 0 0 1-.003-.293M12 17.25c-1.992 0-3.689 1.204-4.552 2.918-.598 1.186.24 2.582 1.51 2.582h6.083c1.272 0 2.109-1.396 1.511-2.582-.863-1.714-2.56-2.918-4.552-2.918" clip-rule="evenodd"/></svg>