<svg xmlns="http://www.w3.org/2000/svg" fill="none" viewBox="0 0 24 24"><path fill="currentColor" fill-rule="evenodd" d="M14.76 7.154c.889.626 1.49 1.591 1.49 2.853a.75.75 0 0 1-1.5 0c0-.725-.322-1.253-.854-1.627-.555-.392-1.353-.62-2.234-.63-1.822-.02-3.5.854-3.905 2.289a.25.25 0 0 0 .013.16c.067-.026.167-.102.461-.352.338-.287.818-.67 1.592-.853.616-.145 1.198-.12 1.712.09.514.209.901.58 1.164 1.024.512.866.567 2.023.285 3.084a.75.75 0 0 1-1.45-.384c.212-.8.123-1.515-.127-1.937a.9.9 0 0 0-.438-.399c-.174-.07-.43-.106-.802-.018-.422.1-.681.295-.965.536l-.074.065c-.254.22-.675.588-1.26.648-.622.063-1.1-.277-1.357-.686a1.75 1.75 0 0 1-.197-1.385c.67-2.378 3.223-3.406 5.365-3.382 1.101.013 2.218.295 3.082.904" clip-rule="evenodd" opacity=".4"/><path fill="currentColor" fill-rule="evenodd" d="M14.483 12.52c1.56-.69 3.499-.043 4.411 1.977.687 1.52.332 3.153-.671 4.468-1.01 1.326-2.614 2.235-4.238 2.285l-.014-.001a.7.7 0 0 1-.194-.111l-.021-.022-.002-.003v-.003l-.002-.007a.2.2 0 0 1-.002-.042.8.8 0 0 1 .046-.209c.149-.443.555-1.019 1.096-1.776l.008-.011c.494-.692 1.084-1.518 1.392-2.329.16-.417.264-.881.217-1.358a2.2 2.2 0 0 0-.64-1.351.75.75 0 1 0-1.074 1.047c.15.154.207.299.222.45.016.169-.017.39-.127.68-.227.597-.692 1.263-1.219 2l-.034.048c-.988.483-2.586.885-4.203.978-1.661.096-3.137-.147-3.974-.756-.45-.328-.941-.422-1.357-.447a6 6 0 0 0-.587-.003l-.144.005a10 10 0 0 1-.348.008c-.117 0-.155-.034-.194-.105-.062-.11-.103-.311-.067-.55.037-.24.134-.399.206-.463.03-.026.048-.03.058-.032s.052-.008.14.026c.315.122.78.27 1.29.324.506.052 1.127.018 1.694-.303 1.083-.614 2.188-1.113 3.303-1.616l.328-.148c1.213-.55 2.436-1.118 3.567-1.84q.586-.374 1.134-.81m-1.073-1.063a.75.75 0 0 1 .252-.208l.017-.008c1.485-1.228 2.673-2.929 3.338-5.702.195-.812.36-1.47.518-1.994.155-.517.319-.953.527-1.297.22-.364.504-.644.892-.813.36-.156.744-.185 1.099-.185.622 0 1.155.354 1.544.811.396.466.706 1.107.904 1.872.398 1.535.37 3.672-.46 6.255-.424 1.317-.934 2.67-1.672 3.946.81 2.052.253 4.157-.953 5.74-1.249 1.64-3.255 2.81-5.385 2.875a1.5 1.5 0 0 1-.633-.114c-.463-.192-.854-.5-1.04-.973-.18-.456-.108-.915.016-1.286l.036-.102c-.9.235-1.901.397-2.89.454-1.753.1-3.672-.117-4.943-1.042-.127-.093-.297-.145-.565-.162a5 5 0 0 0-.45 0l-.118.003c-.132.005-.28.01-.42.01a1.67 1.67 0 0 1-1.503-.872c-.263-.47-.314-1.026-.24-1.508.072-.479.286-1.002.696-1.363.453-.4 1.076-.533 1.731-.28.246.096.574.197.904.23.335.036.605-.005.8-.115 1.146-.65 2.313-1.176 3.419-1.676l.332-.15c1.217-.55 2.35-1.08 3.378-1.738q.447-.285.869-.608m6.074 1.152c.454-.92.81-1.89 1.128-2.88.763-2.374.75-4.216.437-5.42-.156-.606-.381-1.025-.595-1.277-.221-.26-.373-.282-.401-.282-.297 0-.43.03-.502.061-.045.02-.11.057-.206.215-.108.178-.228.468-.374.952-.145.477-.3 1.097-.495 1.911-.499 2.08-1.278 3.65-2.253 4.888 1.228.132 2.4.765 3.26 1.832" clip-rule="evenodd"/></svg>