<svg xmlns="http://www.w3.org/2000/svg" fill="none" viewBox="0 0 24 24"><path fill="currentColor" fill-rule="evenodd" d="M2.25 12.75H2a.75.75 0 0 1 0-1.5h20a.75.75 0 0 1 0 1.5h-.25v.306c0 1.602 0 2.881-.135 3.884-.14 1.037-.435 1.89-1.11 2.565s-1.528.97-2.565 1.11c-1.003.135-2.282.135-3.884.135H9.944c-1.602 0-2.881 0-3.884-.135-1.037-.14-1.89-.435-2.565-1.11s-.97-1.528-1.11-2.565c-.135-1.003-.135-2.282-.135-3.884zm1.5 0h16.5V13c0 1.671-.002 2.849-.122 3.74-.116.87-.334 1.355-.683 1.705s-.835.567-1.704.683c-.892.12-2.07.122-3.741.122h-4c-1.671 0-2.849-.002-3.74-.122-.87-.116-1.355-.334-1.705-.683s-.567-.835-.684-1.704c-.12-.892-.121-2.07-.121-3.741z" clip-rule="evenodd"/><path fill="currentColor" fill-rule="evenodd" d="M6.53 20.53a.75.75 0 1 0-1.06-1.06l-1 1a.75.75 0 1 0 1.06 1.06zm12-1.06a.75.75 0 1 0-1.06 1.06l1 1a.75.75 0 1 0 1.06-1.06zM4.75 5.523a1.773 1.773 0 0 1 3.432-.629l-.65.52a.75.75 0 1 0 .937 1.172l2.5-2a.75.75 0 1 0-.937-1.172l-.648.518A3.274 3.274 0 0 0 3.25 5.523V12a.75.75 0 0 0 1.5 0z" clip-rule="evenodd" opacity=".4"/></svg>