<svg xmlns="http://www.w3.org/2000/svg" fill="none" viewBox="0 0 24 24"><path fill="currentColor" fill-rule="evenodd" d="M6.955 5.25H7a.75.75 0 1 1 0 1.5c-.493 0-.787.002-.997.03a.7.7 0 0 0-.177.042l-.003.001-.001.003-.005.01a.7.7 0 0 0-.037.167c-.028.21-.03.504-.03.997v2.5a.75.75 0 0 1-1.5 0V7.955c0-.433 0-.83.043-1.152.048-.356.16-.731.47-1.04s.684-.422 1.04-.47c.323-.043.72-.043 1.152-.043m11.042 1.53c-.21-.028-.504-.03-.997-.03a.75.75 0 0 1 0-1.5h.045c.433 0 .83 0 1.152.043.356.048.731.16 1.04.47s.422.684.47 1.04c.043.323.043.72.043 1.152V10.5a.75.75 0 0 1-1.5 0V8c0-.493-.002-.787-.03-.997a.7.7 0 0 0-.042-.177l-.001-.003-.003-.001-.01-.005a.7.7 0 0 0-.167-.037m-.042 5.47h2.09c.433 0 .83 0 1.152.043.356.048.731.16 1.04.47s.422.684.47 1.04c.043.323.043.72.043 1.152v5.09c0 .433 0 .83-.043 1.152-.048.356-.16.731-.47 1.04s-.684.422-1.04.47c-.323.043-.72.043-1.152.043h-2.09c-.433 0-.83 0-1.152-.043-.356-.048-.731-.16-1.04-.47s-.422-.684-.47-1.04c-.043-.323-.043-.72-.043-1.152v-5.09c0-.433 0-.83.043-1.152.048-.356.16-.731.47-1.04s.684-.422 1.04-.47c.323-.043.72-.043 1.152-.043m-1.132 1.573.003-.001.002-.001.008-.004a.7.7 0 0 1 .167-.037c.21-.028.504-.03.997-.03h2c.493 0 .787.002.997.03a.7.7 0 0 1 .177.042l.003.001.001.003.005.01c.009.022.024.07.037.167.028.21.03.504.03.997v5c0 .493-.002.787-.03.997a.7.7 0 0 1-.042.177l-.001.003-.003.001-.01.005a.7.7 0 0 1-.167.037c-.21.028-.504.03-.997.03h-2c-.493 0-.787-.002-.997-.03a.7.7 0 0 1-.177-.042l-.003-.001-.001-.003-.002-.004-.003-.006a.7.7 0 0 1-.037-.167c-.028-.21-.03-.504-.03-.997v-5c0-.493.002-.787.03-.997a.7.7 0 0 1 .042-.177zM4 12.25h-.045c-.433 0-.83 0-1.152.043-.356.048-.731.16-1.04.47s-.422.684-.47 1.04c-.043.323-.043.72-.043 1.152v5.09c0 .433 0 .83.043 1.152.048.356.16.731.47 1.04s.684.422 1.04.47c.323.043.72.043 1.152.043h2.09c.433 0 .83 0 1.152-.043.356-.048.731-.16 1.04-.47s.422-.684.47-1.04c.043-.323.043-.72.043-1.152v-5.09c0-.433 0-.83-.043-1.152-.048-.356-.16-.731-.47-1.04s-.684-.422-1.04-.47c-.323-.043-.72-.043-1.152-.043zm-1.174 1.572-.003.001-.001.003-.005.01a.7.7 0 0 0-.037.167c-.028.21-.03.504-.03.997v5c0 .493.002.787.03.997a.7.7 0 0 0 .042.177l.001.003.003.001.01.005c.022.009.07.024.167.037.21.028.504.03.997.03h2c.493 0 .787-.002.997-.03a.7.7 0 0 0 .177-.042l.003-.001.001-.003.005-.01a.7.7 0 0 0 .037-.167c.028-.21.03-.504.03-.997v-5c0-.493-.002-.787-.03-.997a.7.7 0 0 0-.042-.177l-.001-.003-.003-.001-.01-.005a.7.7 0 0 0-.167-.037c-.21-.028-.504-.03-.997-.03H4c-.493 0-.787.002-.997.03a.7.7 0 0 0-.177.042" clip-rule="evenodd"/><path fill="currentColor" fill-rule="evenodd" d="M12.898 1.364a.75.75 0 0 1 .238 1.034L11.353 5.25H14a.75.75 0 0 1 .636 1.148l-2.5 4a.75.75 0 1 1-1.272-.795l1.783-2.853H10a.75.75 0 0 1-.636-1.147l2.5-4a.75.75 0 0 1 1.034-.239M15.25 19a.75.75 0 0 1 .75-.75h6a.75.75 0 0 1 0 1.5h-6a.75.75 0 0 1-.75-.75m.75-3.75a.75.75 0 0 0 0 1.5h6a.75.75 0 0 0 0-1.5zM1.25 19a.75.75 0 0 1 .75-.75h6a.75.75 0 0 1 0 1.5H2a.75.75 0 0 1-.75-.75M2 15.25a.75.75 0 0 0 0 1.5h6a.75.75 0 0 0 0-1.5z" clip-rule="evenodd" opacity=".4"/></svg>