<svg xmlns="http://www.w3.org/2000/svg" fill="none" viewBox="0 0 24 24"><path fill="currentColor" fill-rule="evenodd" d="M7.945 5.25H8a.75.75 0 0 1 0 1.5c-1.435 0-2.437.002-3.192.103-.734.099-1.122.28-1.399.556-.277.277-.457.665-.556 1.4-.101.754-.103 1.756-.103 3.191s.002 2.437.103 3.192c.099.734.28 1.122.556 1.399.36.36.904.553 2.133.622a.75.75 0 0 1-.084 1.497c-1.287-.072-2.331-.28-3.11-1.058-.602-.602-.86-1.36-.981-2.26-.117-.867-.117-1.97-.117-3.337v-.11c0-1.367 0-2.47.117-3.337.12-.9.38-1.658.981-2.26.602-.602 1.36-.86 2.26-.981.867-.117 1.97-.117 3.337-.117m5.805.746a.75.75 0 0 1 .76-.74c1.808.027 3.187.138 4.142 1.092.602.602.86 1.36.982 2.26.116.867.116 1.97.116 3.337v.11c0 1.367 0 2.47-.116 3.337-.122.9-.38 1.658-.982 2.26s-1.36.86-2.26.982c-.867.116-1.97.116-3.337.116h-.068l-1-.017a.75.75 0 0 1 .026-1.5l.994.017c1.431 0 2.43-.002 3.185-.103.734-.099 1.122-.28 1.399-.556.277-.277.457-.665.556-1.4.101-.755.103-1.756.103-3.191s-.002-2.437-.103-3.192c-.099-.734-.28-1.122-.556-1.399-.46-.46-1.19-.625-3.102-.653a.75.75 0 0 1-.739-.76" clip-rule="evenodd"/><path fill="currentColor" fill-rule="evenodd" d="M12.186 6.417a.75.75 0 0 0-1.246-.834l-2.971 4.436-.027.04c-.207.309-.405.606-.527.861-.127.267-.277.704-.04 1.16.239.46.687.584.981.628.278.042.633.042.998.042h1.243q.26 0 .449.002a27 27 0 0 1-.26.394l-2.971 4.437a.75.75 0 1 0 1.246.834l2.971-4.436.027-.04c.207-.31.405-.606.527-.861.127-.267.277-.704.04-1.16-.239-.46-.687-.584-.981-.628-.278-.042-.633-.042-.998-.042H9.404c-.175 0-.322 0-.449-.002.068-.107.154-.235.26-.394zm6.937 2.343a.75.75 0 1 0-.246 1.48l1.027.171c.351.059.576.096.746.138a.8.8 0 0 1 .254.09.75.75 0 0 1 .286.337.8.8 0 0 1 .047.266c.013.174.013.402.013.758s0 .584-.013.758a.8.8 0 0 1-.047.266.75.75 0 0 1-.286.337.8.8 0 0 1-.254.09c-.17.042-.395.08-.746.138l-1.027.171a.75.75 0 1 0 .246 1.48l1.052-.175c.32-.054.598-.1.828-.156.243-.059.482-.139.709-.284a2.25 2.25 0 0 0 .858-1.012 2.3 2.3 0 0 0 .163-.747c.017-.235.017-.517.017-.841v-.05c0-.324 0-.606-.017-.841a2.3 2.3 0 0 0-.163-.747 2.25 2.25 0 0 0-.858-1.012 2.3 2.3 0 0 0-.71-.284c-.229-.056-.507-.102-.827-.156l-.024-.004z" clip-rule="evenodd" opacity=".4"/></svg>