<svg xmlns="http://www.w3.org/2000/svg" fill="none" viewBox="0 0 24 24"><path fill="currentColor" d="M14.992 16.745h-6c-.41 0-.75-.34-.75-.75s.34-.75.75-.75h6c.41 0 .75.34.75.75s-.34.75-.75.75m-1-8h-4c-.41 0-.75-.34-.75-.75s.34-.75.75-.75h4c.41 0 .75.34.75.75s-.34.75-.75.75" opacity=".4"/><path fill="currentColor" fill-rule="evenodd" d="M9.42 4.165c.56.59.85 1.37.82 2.18l.01-.01-.5 9.68q0 .03-.005.055l-.005.055c.01.11.01.23.01.35a4.26 4.26 0 0 1-4.25 4.25 4.26 4.26 0 0 1-4.25-4.25c0-.41.06-.81.17-1.19v-.02l2.93-9.89c.37-1.26 1.56-2.14 2.89-2.14.83 0 1.61.33 2.18.93m-6.68 12.33c0 1.52 1.23 2.75 2.75 2.75s2.75-1.23 2.75-2.75-1.23-2.75-2.75-2.75-2.75 1.23-2.75 2.75m2.75-4.25c1.11 0 2.12.43 2.88 1.13v.01l.37-7.1c.02-.4-.13-.78-.41-1.07a1.52 1.52 0 0 0-2.55.6l-2.01 6.79c.53-.23 1.11-.36 1.72-.36m17.08 3.04v.02l.01.02c.11.38.17.78.17 1.19a4.26 4.26 0 0 1-4.25 4.25 4.26 4.26 0 0 1-4.25-4.25q.001-.089.005-.175.005-.085.005-.175c-.01-.04-.01-.11-.01-.11l-.5-9.68c-.03-.83.26-1.6.83-2.19.57-.6 1.35-.93 2.18-.93 1.33 0 2.52.88 2.89 2.14zm-6.92-10.08c-.28.3-.43.68-.41 1.08l.01-.01.36 7.09a4.22 4.22 0 0 1 2.88-1.13c.61 0 1.19.13 1.72.36l-2.01-6.79c-.18-.63-.78-1.07-1.45-1.07-.42 0-.81.17-1.1.47m.09 11.29c0 1.52 1.23 2.75 2.75 2.75s2.75-1.23 2.75-2.75-1.23-2.75-2.75-2.75-2.75 1.23-2.75 2.75" clip-rule="evenodd"/></svg>