<svg xmlns="http://www.w3.org/2000/svg" fill="none" viewBox="0 0 24 24"><path fill="currentColor" fill-rule="evenodd" d="M4.75 1.25a1.5 1.5 0 1 0 .389 2.95L6.25 5.31V7a.75.75 0 1 0 1.5 0V5a.75.75 0 0 0-.22-.53L6.2 3.139A1.502 1.502 0 0 0 4.75 1.25m7.25 0a1.5 1.5 0 0 0-.75 2.8V6a.75.75 0 0 0 1.5 0V4.05a1.5 1.5 0 0 0-.75-2.8m7.25 0a1.5 1.5 0 0 0-1.45 1.889l-1.33 1.33a.75.75 0 0 0-.22.531v2a.75.75 0 0 0 1.5 0V5.31l1.111-1.11a1.5 1.5 0 0 0 1.889-1.45 1.5 1.5 0 0 0-1.5-1.5m-6.5 10.25a.75.75 0 0 0-1.5 0v.583H9.5a.75.75 0 0 0 0 1.5h.188v3.834H9.5a.75.75 0 0 0 0 1.5h1.75v.583a.75.75 0 0 0 1.5 0v-.583h.813c.976 0 1.687-.83 1.687-1.75V16.5c0-.362-.11-.71-.303-1 .193-.29.303-.638.303-1v-.667c0-.92-.71-1.75-1.687-1.75h-.813zm-1.562 3.25v-1.167h2.374c.06 0 .188.066.188.25v.667c0 .184-.129.25-.187.25zm0 1.5h2.374c.06 0 .188.066.188.25v.667c0 .184-.129.25-.187.25h-2.376z" clip-rule="evenodd"/><path fill="currentColor" d="M11.999 22.75c-2.646 0-5.329-1.193-7.76-3.45-1.804-1.675-2.835-3.337-2.878-3.406a.75.75 0 0 1 0-.786c.043-.07 1.074-1.731 2.878-3.406 2.431-2.257 5.114-3.45 7.76-3.45s5.329 1.193 7.76 3.45c1.804 1.675 2.835 3.337 2.878 3.406a.75.75 0 0 1 0 .786c-.043.07-1.074 1.731-2.878 3.406-2.431 2.257-5.114 3.45-7.76 3.45m-9.096-7.251c.956 1.355 4.42 5.751 9.096 5.751s8.142-4.393 9.096-5.749c-.956-1.355-4.42-5.751-9.096-5.751s-8.142 4.393-9.096 5.749" opacity=".4"/></svg>