<svg xmlns="http://www.w3.org/2000/svg" fill="none" viewBox="0 0 24 24"><path fill="currentColor" fill-rule="evenodd" d="M12 21.25a9.25 9.25 0 0 1-.75-18.47v1.506a7.75 7.75 0 1 0 5.674 13.699l1.065 1.065A9.2 9.2 0 0 1 12 21.25m7.05-3.261a9.2 9.2 0 0 0 2.17-5.239h-1.506a7.7 7.7 0 0 1-1.73 4.174zm.664-6.739h1.506a9.25 9.25 0 0 0-8.47-8.47v1.506a7.75 7.75 0 0 1 6.964 6.964M18.25 12a6.25 6.25 0 1 1-12.5 0 6.25 6.25 0 0 1 12.5 0m4.5 0c0 5.937-4.813 10.75-10.75 10.75S1.25 17.937 1.25 12 6.063 1.25 12 1.25 22.75 6.063 22.75 12" clip-rule="evenodd"/><path fill="currentColor" fill-rule="evenodd" d="M12 7.25a.75.75 0 0 1 .75.75v.583h.813c.976 0 1.687.83 1.687 1.75V11c0 .362-.11.71-.303 1 .193.29.303.638.303 1v.667c0 .92-.71 1.75-1.687 1.75h-.813V16a.75.75 0 0 1-1.5 0v-.583H9.5a.75.75 0 0 1 0-1.5h.188v-3.834H9.5a.75.75 0 1 1 0-1.5h1.75V8a.75.75 0 0 1 .75-.75m-.812 2.833v1.167h2.374c.06 0 .188-.066.188-.25v-.667c0-.184-.129-.25-.187-.25zm2.374 2.667h-2.374v1.167h2.374c.06 0 .188-.066.188-.25V13c0-.184-.129-.25-.187-.25" clip-rule="evenodd" opacity=".4"/></svg>