<svg xmlns="http://www.w3.org/2000/svg" fill="none" viewBox="0 0 24 24"><path fill="currentColor" fill-rule="evenodd" d="M12.75 8a.75.75 0 0 0-1.5 0v.583H9.5a.75.75 0 0 0 0 1.5h.188v3.834H9.5a.75.75 0 0 0 0 1.5h1.75V16a.75.75 0 0 0 1.5 0v-.583h.813c.976 0 1.687-.83 1.687-1.75V13c0-.362-.11-.71-.303-1 .193-.29.303-.638.303-1v-.667c0-.92-.71-1.75-1.687-1.75h-.813zm-1.562 3.25v-1.167h2.374c.06 0 .188.066.188.25V11c0 .184-.129.25-.187.25zm0 1.5h2.374c.06 0 .188.066.188.25v.667c0 .184-.129.25-.187.25h-2.376zm-5.136-.532a.75.75 0 0 1-.104 1.496q-.54-.038-1.055-.113a.75.75 0 1 1 .215-1.484q.46.066.944.1M19.108 10.4a.75.75 0 0 1-.215 1.484 13 13 0 0 0-.945-.1.75.75 0 1 1 .104-1.497q.54.038 1.056.113" clip-rule="evenodd" opacity=".4"/><path fill="currentColor" fill-rule="evenodd" d="M17 4.25c-1.826 0-3.465.36-4.683.93C10.87 5.855 9.008 6.25 7 6.25c-1.12 0-2.19-.123-3.167-.346-.594-.136-1.083.308-1.083.71v10.772c0 .705.117 1.14.308 1.421.176.26.485.491 1.11.635.862.197 1.82.308 2.832.308 1.826 0 3.465-.36 4.683-.93 1.447-.675 3.309-1.07 5.317-1.07 1.12 0 2.19.123 3.167.346.594.136 1.083-.308 1.083-.71V6.614c0-.697-.102-1.126-.285-1.409-.166-.254-.468-.494-1.132-.647A12.8 12.8 0 0 0 17 4.25m-5.317-.43C13.13 3.145 14.992 2.75 17 2.75c1.12 0 2.19.123 3.167.346.917.21 1.615.616 2.055 1.291.42.648.528 1.43.528 2.227v10.772c0 1.567-1.591 2.476-2.917 2.172A12.8 12.8 0 0 0 17 19.25c-1.826 0-3.465.36-4.683.93-1.447.675-3.309 1.07-5.317 1.07-1.12 0-2.19-.123-3.167-.346-.876-.2-1.568-.593-2.017-1.255-.434-.64-.566-1.427-.566-2.263V6.614c0-1.567 1.591-2.476 2.917-2.172.863.197 1.821.308 2.833.308 1.826 0 3.465-.36 4.683-.93" clip-rule="evenodd"/></svg>