<svg xmlns="http://www.w3.org/2000/svg" fill="none" viewBox="0 0 24 24"><path fill="currentColor" fill-rule="evenodd" d="M6 3.25a.75.75 0 0 0 0 1.5h.25v14.5H6a.75.75 0 0 0 0 1.5h8.4c2.475 0 4.35-2.203 4.35-4.75 0-1.643-.78-3.142-1.998-4 1.218-.858 1.998-2.357 1.998-4 0-2.547-1.875-4.75-4.35-4.75zm1.75 1.5v6.5h6.65c1.502 0 2.85-1.379 2.85-3.25s-1.348-3.25-2.85-3.25zm0 8v6.5h6.65c1.502 0 2.85-1.379 2.85-3.25s-1.348-3.25-2.85-3.25z" clip-rule="evenodd"/><path fill="currentColor" fill-rule="evenodd" d="M9.75 2a.75.75 0 0 0-1.5 0v2a.75.75 0 0 0 1.5 0zm5 0a.75.75 0 0 0-1.5 0v2a.75.75 0 0 0 1.5 0zm-5 18a.75.75 0 0 0-1.5 0v2a.75.75 0 0 0 1.5 0zm5 0a.75.75 0 0 0-1.5 0v2a.75.75 0 0 0 1.5 0z" clip-rule="evenodd" opacity=".4"/></svg>