<svg xmlns="http://www.w3.org/2000/svg" fill="none" viewBox="0 0 24 24"><path fill="currentColor" fill-rule="evenodd" d="M2.75 13c0-.944.784-2 2.514-2.865a11 11 0 0 1 1.677-.665l1.007 3.19c-.986-.328-1.647-.744-1.97-1.137a.75.75 0 0 0-1.158.954c.616.748 1.668 1.304 2.876 1.677 1.23.379 2.716.596 4.304.596s3.074-.217 4.305-.596c1.207-.373 2.26-.93 2.875-1.677a.75.75 0 1 0-1.157-.954c-.33.4-1.01.824-2.027 1.155l.87-3.267a11.4 11.4 0 0 1 1.87.724C20.466 11 21.25 12.056 21.25 13s-.784 2-2.514 2.865C17.05 16.707 14.67 17.25 12 17.25s-5.05-.543-6.736-1.385C3.534 15 2.75 13.944 2.75 13m14.503-5.038c.783.229 1.507.508 2.154.832 1.889.944 3.343 2.388 3.343 4.206s-1.454 3.262-3.343 4.206c-1.935.968-4.554 1.544-7.407 1.544s-5.472-.576-7.406-1.544C2.704 16.262 1.25 14.818 1.25 13s1.454-3.262 3.344-4.206c.575-.288 1.21-.541 1.895-.755L5.285 4.226a.75.75 0 0 1 1.43-.452l1.228 3.887a19.3 19.3 0 0 1 3.307-.398V2a.75.75 0 0 1 1.5 0v5.263c1.062.038 2.086.157 3.045.345l.48-1.801a.75.75 0 0 1 1.45.386zM15.408 9.06l-.81 3.036a2.76 2.76 0 0 0-1.848-1.743v-1.59a18 18 0 0 1 2.658.297m-4.158-.297v1.59a2.76 2.76 0 0 0-1.878 1.833L8.397 9.1a18 18 0 0 1 2.853-.335M12 13.25q.635 0 1.234-.049.015-.097.016-.201a1.25 1.25 0 1 0-2.484.201q.599.049 1.234.049" clip-rule="evenodd"/><path fill="currentColor" fill-rule="evenodd" d="M9.53 17.47a.75.75 0 0 1 0 1.06l-2 2a.75.75 0 0 1-1.06-1.06l2-2a.75.75 0 0 1 1.06 0m4.94 0a.75.75 0 0 1 1.06 0l2 2a.75.75 0 1 1-1.06 1.06l-2-2a.75.75 0 0 1 0-1.06M12 17.25a.75.75 0 0 1 .75.75v4a.75.75 0 0 1-1.5 0v-4a.75.75 0 0 1 .75-.75" clip-rule="evenodd" opacity=".4"/></svg>