<svg xmlns="http://www.w3.org/2000/svg" fill="none" viewBox="0 0 24 24"><path fill="currentColor" fill-rule="evenodd" d="M15 1.25a.75.75 0 0 1 0 1.5h-3a.75.75 0 0 1 0-1.5zm.5 6a.75.75 0 0 0 0 1.5H18a.75.75 0 0 0 0-1.5zm0 3a.75.75 0 0 0 0 1.5h2a.75.75 0 0 0 0-1.5zm0 3a.75.75 0 0 0 0 1.5h2a.75.75 0 0 0 0-1.5z" clip-rule="evenodd" opacity=".4"/><path fill="currentColor" fill-rule="evenodd" d="M6.356 3.25h-.052c-.586 0-1.104 0-1.511.058-.435.062-.905.21-1.233.64-.332.436-.344.928-.278 1.362.06.401.21.888.378 1.434l.016.051.275.895.034.111c.198.647.355 1.16.695 1.577.338.415.81.678 1.412 1.012l.103.058 1.8 1.004.256 5.582v.006q-.075.212-.182.5l-.08.216c-.152.41-.326.894-.465 1.382-.138.482-.254 1.006-.272 1.495-.017.47.052 1.046.436 1.49.331.385.774.518 1.188.574.388.053.876.053 1.428.053h6.28c.604 0 1.133 0 1.548-.058.44-.06.915-.205 1.25-.633.38-.486.405-1.085.34-1.57-.066-.499-.244-1.022-.442-1.497a18 18 0 0 0-.648-1.354l-.15-.288q-.17-.324-.277-.541l.95-12.059H20a.75.75 0 0 0 0-1.5zm10.643 14.5H9.59l-.122.331-.072.194c-.15.407-.307.846-.43 1.276-.125.436-.203.825-.215 1.136-.012.329.056.438.072.457l.002.002.023.012a1 1 0 0 0 .23.053c.274.037.659.039 1.275.039h6.18c.67 0 1.094-.002 1.393-.043a1 1 0 0 0 .252-.06l.023-.013c.016-.02.077-.128.034-.448-.04-.307-.162-.69-.34-1.116-.175-.421-.39-.848-.594-1.241l-.129-.247zm-.255-1.5.907-11.5H9.02l.454 6.195v.02l.242 5.285zM6.926 9.138l.95.53-.36-4.918h-1.16c-.654 0-1.064.002-1.352.043a1 1 0 0 0-.25.064v.006a.8.8 0 0 0 .01.223c.043.276.157.655.345 1.268l.276.895c.25.812.327 1.02.458 1.182.134.163.328.286 1.083.707" clip-rule="evenodd"/></svg>