<svg xmlns="http://www.w3.org/2000/svg" fill="none" viewBox="0 0 24 24"><path fill="currentColor" fill-rule="evenodd" d="M6 2.25h-.05c-.664 0-1.237 0-1.696.062-.491.066-.963.215-1.345.597s-.531.854-.597 1.345c-.062.459-.062 1.032-.062 1.697v.099c0 .664 0 1.237.062 1.696.066.491.215.963.597 1.345s.854.531 1.345.597c.459.062 1.032.062 1.697.062h.098c.665 0 1.238 0 1.697-.062.491-.066.963-.215 1.345-.597s.531-.854.597-1.345c.062-.459.062-1.032.062-1.697v-.098c0-.665 0-1.238-.062-1.697-.066-.491-.215-.963-.597-1.345s-.854-.531-1.345-.597c-.459-.062-1.032-.062-1.697-.062zM3.97 3.97c.057-.057.159-.128.484-.172.347-.046.818-.048 1.546-.048s1.2.002 1.546.048c.325.044.427.115.484.172s.128.159.172.484c.046.347.048.818.048 1.546s-.002 1.2-.048 1.546c-.044.325-.115.427-.172.484s-.159.128-.484.172c-.347.046-.818.048-1.546.048s-1.2-.002-1.546-.048c-.325-.044-.427-.115-.484-.172s-.128-.159-.172-.484C3.752 7.199 3.75 6.728 3.75 6s.002-1.2.048-1.546c.044-.325.115-.427.172-.484M18 2.25h-.05c-.664 0-1.237 0-1.696.062-.492.066-.963.215-1.345.597s-.531.854-.597 1.345c-.062.459-.062 1.032-.062 1.697v.099c0 .664 0 1.237.062 1.696.066.491.215.963.597 1.345s.853.531 1.345.597c.459.062 1.032.062 1.697.062h.098c.665 0 1.238 0 1.697-.062.492-.066.963-.215 1.345-.597s.531-.854.597-1.345c.062-.459.062-1.032.062-1.697v-.098c0-.665 0-1.238-.062-1.697-.066-.491-.215-.963-.597-1.345s-.854-.531-1.345-.597c-.459-.062-1.032-.062-1.697-.062zm-2.03 1.72c.057-.057.159-.128.484-.172.347-.046.818-.048 1.546-.048s1.2.002 1.546.048c.325.044.427.115.484.172s.128.159.172.484c.046.347.048.818.048 1.546s-.002 1.2-.048 1.546c-.044.325-.115.427-.172.484s-.159.128-.484.172c-.347.046-.818.048-1.546.048s-1.2-.002-1.546-.048c-.325-.044-.427-.115-.484-.172s-.128-.159-.172-.484c-.046-.347-.048-.818-.048-1.546s.002-1.2.048-1.546c.044-.325.115-.427.172-.484m1.98 10.28h.1c.664 0 1.237 0 1.696.062.492.066.963.215 1.345.597s.531.853.597 1.345c.062.459.062 1.032.062 1.697v.098c0 .665 0 1.238-.062 1.697-.066.492-.215.963-.597 1.345s-.854.531-1.345.597c-.459.062-1.032.062-1.697.062h-.098c-.665 0-1.238 0-1.697-.062-.492-.066-.963-.215-1.345-.597s-.531-.854-.597-1.345c-.062-.459-.062-1.032-.062-1.697v-.099c0-.664 0-1.237.062-1.696.066-.492.215-.963.597-1.345s.853-.531 1.345-.597c.459-.062 1.032-.062 1.697-.062m-1.496 1.548c-.325.044-.427.115-.484.172s-.128.159-.172.484c-.046.347-.048.818-.048 1.546s.002 1.2.048 1.546c.044.325.115.427.172.484s.159.128.484.172c.347.046.818.048 1.546.048s1.2-.002 1.546-.048c.325-.044.427-.115.484-.172s.128-.159.172-.484c.046-.347.048-.818.048-1.546s-.002-1.2-.048-1.546c-.044-.325-.115-.427-.172-.484s-.159-.128-.484-.172c-.347-.046-.818-.048-1.546-.048s-1.2.002-1.546.048M6 14.25h-.05c-.664 0-1.237 0-1.696.062-.491.066-.963.215-1.345.597s-.531.853-.597 1.345c-.062.459-.062 1.032-.062 1.697v.099c0 .664 0 1.237.062 1.696.066.492.215.963.597 1.345s.854.531 1.345.597c.459.062 1.032.062 1.697.062h.098c.665 0 1.238 0 1.697-.062.491-.066.963-.215 1.345-.597s.531-.854.597-1.345c.062-.459.062-1.032.062-1.697v-.098c0-.665 0-1.238-.062-1.697-.066-.492-.215-.963-.597-1.345s-.854-.531-1.345-.597c-.459-.062-1.032-.062-1.697-.062zm-2.03 1.72c.057-.057.159-.128.484-.172.347-.046.818-.048 1.546-.048s1.2.002 1.546.048c.325.044.427.115.484.172s.128.159.172.484c.046.347.048.818.048 1.546s-.002 1.2-.048 1.546c-.044.325-.115.427-.172.484s-.159.128-.484.172c-.347.046-.818.048-1.546.048s-1.2-.002-1.546-.048c-.325-.044-.427-.115-.484-.172s-.128-.159-.172-.484c-.046-.347-.048-.818-.048-1.546s.002-1.2.048-1.546c.044-.325.115-.427.172-.484" clip-rule="evenodd"/><path fill="currentColor" fill-rule="evenodd" d="M9 5.25a.75.75 0 0 0 0 1.5h3a.75.75 0 0 0 0-1.5zm3 12a.75.75 0 0 0 0 1.5h3a.75.75 0 0 0 0-1.5zm6-9a.75.75 0 0 1 .75.75v3a.75.75 0 0 1-1.5 0V9a.75.75 0 0 1 .75-.75M6.75 12a.75.75 0 0 0-1.5 0v3a.75.75 0 0 0 1.5 0z" clip-rule="evenodd" opacity=".4"/></svg>