<svg xmlns="http://www.w3.org/2000/svg" fill="none" viewBox="0 0 24 24"><path fill="currentColor" fill-rule="evenodd" d="M6.75 5a.75.75 0 0 1 .75-.75H16a2.25 2.25 0 0 1 2.25 2.25V8a.75.75 0 0 1-1.5 0V6.5a.75.75 0 0 0-.75-.75H7.5A.75.75 0 0 1 6.75 5m1.5 8a.75.75 0 0 1 .75-.75h6a.75.75 0 0 1 0 1.5H9a.75.75 0 0 1-.75-.75M9 16.25a.75.75 0 0 0 0 1.5h3a.75.75 0 0 0 0-1.5z" clip-rule="evenodd" opacity=".4"/><path fill="currentColor" fill-rule="evenodd" d="M6.308 1.25h12.19a.75.75 0 0 1 0 1.5H6.307c-.446 0-.756.07-.963.222-.514.378-.947.976-1.063 1.624-.109.602.036 1.346.862 2.13.366.348.925.515 1.583.515h11.557c.407 0 1.181.018 1.847.503.713.52 1.12 1.425 1.12 2.783v7.454c0 2.63-2.123 4.769-4.748 4.769h-9.03c-1.285 0-2.431-.457-3.274-1.292-.84-.833-1.336-2-1.408-3.347l-.001-.019-.034-12.924v-.015a3.5 3.5 0 0 1 .05-.822c.196-1.098.891-2.01 1.651-2.568.596-.438 1.302-.513 1.85-.513m-2.045 6.7.027 10.1c.058 1.015.425 1.807.965 2.342.542.537 1.299.858 2.218.858h9.03c1.79 0 3.247-1.46 3.247-3.269v-7.454c0-1.065-.306-1.427-.502-1.57-.244-.178-.578-.216-.964-.216H6.727c-.813 0-1.736-.189-2.464-.792" clip-rule="evenodd"/></svg>