<svg xmlns="http://www.w3.org/2000/svg" fill="none" viewBox="0 0 24 24"><path fill="currentColor" d="M20 22.75H6.5a3.254 3.254 0 0 1-3.25-3.25v-8.821c0-3.137 0-4.712.898-5.959a4.7 4.7 0 0 1 1.073-1.07c1.243-.901 2.82-.9 5.963-.9.558-.001 1.185.015 1.791.031.463.012.942.024 1.368.028.858.02 1.266.022 2.046-.118.747-.125.832-.158.951-.204l.015-.006c.483-.182.968-.442 1.481-.717.263-.141.535-.287.826-.434A.752.752 0 0 1 20.75 2v9.5c0 1.964 0 2.95-.362 3.818a4.74 4.74 0 0 1-2.568 2.574c-.877.358-1.861.358-3.82.358H6c-.689 0-1.25.561-1.25 1.25 0 .965.785 1.75 1.75 1.75H20a.75.75 0 0 1 0 1.5m-8.816-18.5c-2.819 0-4.234-.001-5.085.616a3.2 3.2 0 0 0-.733.729c-.616.855-.616 2.268-.616 5.083v6.371c.375-.192.8-.3 1.25-.3h8c1.764 0 2.649-.001 3.248-.245a3.25 3.25 0 0 0 1.756-1.763c.247-.593.247-1.479.247-3.243V3.242c-.452.24-.891.462-1.358.638l-.005.002c-.236.092-.387.143-1.241.286-.909.163-1.423.16-2.326.14-.429-.004-.914-.017-1.382-.029a73 73 0 0 0-1.753-.03z"/><path fill="currentColor" fill-rule="evenodd" d="M11.138 9.17c.553.324.995.584 1.43.584h-.001.002-.001q.218.001.438-.095a.8.8 0 0 0 .199-.112c.545-.365.545-.995.545-1.857V4a.75.75 0 0 0-1.5 0v3.69c0 .13 0 .267-.002.39q-.12-.068-.247-.143l-.105-.061c-.512-.307-.882-.529-1.35-.546h-.092c-.468.018-.838.239-1.349.545-.117.069-.241.142-.353.205-.002-.124-.002-.26-.002-.39V4a.75.75 0 0 0-1.5 0v3.69c0 .861 0 1.492.545 1.857a.8.8 0 0 0 .199.112c.588.262 1.131-.056 1.871-.49l.005-.003.005-.003.007-.004c.236-.142.524-.314.619-.329.096.016.389.191.626.333l.005.003.005.003M17.25 17h1.5v5h-1.5z" clip-rule="evenodd" opacity=".4"/></svg>