<svg xmlns="http://www.w3.org/2000/svg" fill="none" viewBox="0 0 24 24"><path fill="currentColor" fill-rule="evenodd" d="M12.055 1.25h-.11c-1.839 0-3.293 0-4.43.147-1.168.151-2.114.47-2.864 1.192-.753.725-1.089 1.648-1.247 2.786C3.25 6.476 3.25 7.882 3.25 9.65v8.397c0 1.097 0 2.01.105 2.695.11.708.364 1.399 1.065 1.773.625.334 1.312.266 1.895.089.59-.18 1.19-.504 1.738-.85.554-.351 1.098-.75 1.57-1.1l.056-.04c.462-.342.834-.617 1.118-.788.4-.24.652-.392.856-.488.189-.089.28-.103.347-.103s.158.014.347.103c.204.096.457.247.856.488.284.17.656.446 1.119.788l.055.04c.472.35 1.016.749 1.57 1.1.549.346 1.148.67 1.738.85.583.177 1.27.245 1.895-.09.701-.373.956-1.064 1.065-1.773.105-.685.105-1.597.105-2.694V9.649c0-1.767 0-3.173-.154-4.274-.158-1.138-.494-2.06-1.247-2.786-.75-.722-1.696-1.04-2.864-1.192-1.137-.147-2.591-.147-4.43-.147M5.692 3.669c.422-.407 1.004-.653 2.015-.784C8.737 2.75 10.094 2.75 12 2.75s3.263.001 4.293.135c1.01.13 1.593.377 2.015.784.418.403.669.952.803 1.914q.043.311.07.667H4.819q.027-.357.07-.667c.134-.962.385-1.511.803-1.914M4.759 7.75c-.009.576-.009 1.224-.009 1.957v8.274c0 1.18.002 1.974.088 2.531.084.548.216.64.288.679.123.065.348.1.754-.023.399-.122.865-.364 1.372-.684a25 25 0 0 0 1.48-1.037l.09-.066c.428-.317.854-.632 1.201-.841l.03-.018c.36-.217.679-.409.961-.542.305-.144.622-.246.986-.246s.68.102.986.246c.282.133.6.325.961.542l.03.018c.347.209.772.524 1.202.841l.09.067c.475.351.977.72 1.479 1.036.507.32.973.562 1.372.683.406.124.63.09.754.024.072-.039.204-.131.288-.679.086-.557.088-1.352.088-2.531V9.707c0-.733 0-1.38-.01-1.957z" clip-rule="evenodd"/><path fill="currentColor" d="M15.623 10.739a.75.75 0 0 1-.335 1.006c-.83.415-1.617 1.289-2.225 2.14a14 14 0 0 0-.94 1.525.75.75 0 0 1-1.298.075c-.177-.27-.467-.528-.75-.732a8 8 0 0 0-.47-.3.75.75 0 0 1 .694-1.33 6 6 0 0 1 1.01.691c.15-.24.328-.514.533-.8.642-.9 1.605-2.025 2.775-2.61a.75.75 0 0 1 1.006.335" opacity=".4"/></svg>