<svg xmlns="http://www.w3.org/2000/svg" fill="none" viewBox="0 0 24 24"><path fill="currentColor" fill-rule="evenodd" d="M12 5.25a.75.75 0 0 1 .75.75v14a.75.75 0 0 1-1.5 0V6a.75.75 0 0 1 .75-.75" clip-rule="evenodd" opacity=".4"/><path fill="currentColor" fill-rule="evenodd" d="m6.058 2.537.063.012C8.968 3.09 10.935 4.13 12 4.994c1.065-.863 3.032-1.903 5.88-2.445l.062-.012c.792-.151 1.485-.283 2.067-.287.65-.004 1.23.148 1.758.6.543.465.777 1.063.884 1.747.1.636.099 1.438.099 2.39v7.312c0 .88 0 1.601-.062 2.172-.064.59-.204 1.13-.567 1.579-.378.468-.931.713-1.538.894-.604.18-1.399.33-2.382.518l-.041.008c-1.743.332-3.087.857-4.043 1.373l-.019.01c-.488.264-.88.475-1.178.619a4 4 0 0 1-.436.185 1.5 1.5 0 0 1-.484.093c-.185 0-.356-.048-.484-.093a4 4 0 0 1-.436-.185 32 32 0 0 1-1.178-.619l-.019-.01c-.956-.516-2.3-1.041-4.043-1.373l-.041-.008c-.983-.187-1.778-.339-2.381-.518-.608-.18-1.16-.426-1.539-.894-.363-.45-.503-.99-.567-1.579-.062-.57-.062-1.293-.062-2.172V6.986c0-.951 0-1.753.099-2.39.106-.683.341-1.28.884-1.746.528-.452 1.108-.604 1.758-.6.582.004 1.275.136 2.067.287M3.981 3.75c-.377-.002-.58.074-.772.24-.178.152-.304.364-.378.838-.079.507-.081 1.19-.081 2.218v7.209c0 .934.001 1.574.053 2.054.052.47.143.675.243.798.085.105.272.243.799.4.522.154 1.241.292 2.276.49 1.889.359 3.379.935 4.474 1.526.512.276.872.47 1.135.597.125.06.211.096.27.117.059-.02.145-.057.27-.117.263-.127.623-.32 1.135-.597 1.095-.591 2.586-1.167 4.474-1.527 1.035-.197 1.754-.335 2.276-.49.527-.156.714-.294.799-.399.1-.123.191-.327.243-.798.052-.48.053-1.12.053-2.054V7.046c0-1.027-.002-1.71-.081-2.218-.074-.474-.2-.686-.378-.839-.193-.165-.395-.241-.772-.239-.43.003-.985.106-1.86.272-3.228.615-5.053 1.886-5.601 2.496a.75.75 0 0 1-1.116 0c-.548-.61-2.373-1.881-5.602-2.496-.874-.166-1.43-.27-1.859-.272" clip-rule="evenodd"/></svg>