<svg xmlns="http://www.w3.org/2000/svg" fill="none" viewBox="0 0 24 24"><path fill="currentColor" fill-rule="evenodd" d="M11.998 1.75h.004q1.023-.001 1.904.005a.75.75 0 1 1-.012 1.5q-.87-.006-1.894-.005c-.685 0-1.313 0-1.894.005a.75.75 0 0 1-.012-1.5q.88-.006 1.904-.005m-4.96.864a.75.75 0 0 1-.6.875c-.944.175-1.552.468-2.016.933-.465.464-.758 1.072-.933 2.015a.75.75 0 0 1-1.475-.274c.211-1.135.602-2.058 1.347-2.802.744-.745 1.667-1.136 2.802-1.347a.75.75 0 0 1 .874.6m9.925 0a.75.75 0 0 1 .874-.6c1.135.211 2.058.602 2.802 1.347.745.744 1.136 1.667 1.347 2.802a.75.75 0 1 1-1.475.274c-.175-.943-.468-1.55-.933-2.015-.464-.465-1.072-.758-2.015-.933a.75.75 0 0 1-.6-.875M2.51 9.35a.75.75 0 0 1 .744.756q-.006.87-.005 1.894c0 .685 0 1.313.005 1.894a.75.75 0 1 1-1.5.012q-.006-.88-.005-1.904v-.004q-.001-1.023.005-1.904a.75.75 0 0 1 .756-.744m18.978 0a.75.75 0 0 1 .756.744q.006.88.005 1.904v.004q.001 1.024-.005 1.904a.75.75 0 1 1-1.5-.012q.006-.869.005-1.894c0-.685 0-1.313-.005-1.894a.75.75 0 0 1 .744-.756M2.614 16.963a.75.75 0 0 1 .875.6c.175.943.468 1.55.933 2.015.464.465 1.072.758 2.015.933a.75.75 0 0 1-.274 1.475c-1.135-.211-2.058-.602-2.802-1.347-.745-.744-1.136-1.667-1.347-2.802a.75.75 0 0 1 .6-.874m18.772 0a.75.75 0 0 1 .6.874c-.211 1.135-.602 2.058-1.347 2.802-.744.745-1.667 1.136-2.802 1.347a.75.75 0 1 1-.274-1.475c.943-.175 1.55-.468 2.015-.933.465-.464.758-1.072.933-2.015a.75.75 0 0 1 .875-.6M9.35 21.489a.75.75 0 0 1 .757-.744c.58.005 1.208.005 1.893.005s1.313 0 1.894-.005a.75.75 0 0 1 .012 1.5q-.88.006-1.904.005h-.004q-1.023.001-1.904-.005a.75.75 0 0 1-.744-.756" clip-rule="evenodd" opacity=".4"/><path fill="currentColor" fill-rule="evenodd" d="M11.998 1.75h.004q1.023-.001 1.904.005a.75.75 0 1 1-.012 1.5q-.87-.006-1.894-.005c-.685 0-1.313 0-1.894.005a.75.75 0 0 1-.012-1.5q.88-.006 1.904-.005m-4.96.864a.75.75 0 0 1-.6.875c-.944.175-1.552.468-2.016.933-.465.464-.758 1.072-.933 2.015a.75.75 0 0 1-1.475-.274c.211-1.135.602-2.058 1.347-2.802.744-.745 1.667-1.136 2.802-1.347a.75.75 0 0 1 .874.6m9.925 0a.75.75 0 0 1 .874-.6c1.066.198 1.948.556 2.67 1.221a.75.75 0 0 1-1.015 1.104c-.451-.415-1.04-.685-1.93-.85a.75.75 0 0 1-.6-.875M2.51 9.35a.75.75 0 0 1 .744.756q-.006.87-.005 1.894c0 .685 0 1.313.005 1.894a.75.75 0 1 1-1.5.012q-.006-.88-.005-1.904v-.004q-.001-1.023.005-1.904a.75.75 0 0 1 .756-.744m.103 7.613a.75.75 0 0 1 .875.6c.165.89.435 1.478.85 1.93a.75.75 0 0 1-1.104 1.015c-.665-.723-1.023-1.605-1.22-2.67a.75.75 0 0 1 .6-.875" clip-rule="evenodd"/></svg>