<svg xmlns="http://www.w3.org/2000/svg" fill="none" viewBox="0 0 24 24"><path fill="currentColor" fill-rule="evenodd" d="M3.407 7.877c-.25.76-.192 1.655.104 2.217C5.023 12.969 8.507 14.25 12 14.25s6.977-1.281 8.489-4.156c.296-.562.354-1.458.104-2.217-.246-.75-.692-1.127-1.241-1.127H4.648c-.549 0-.995.377-1.241 1.127M1.982 7.41c.357-1.087 1.217-2.16 2.666-2.16h14.704c1.449 0 2.309 1.073 2.666 2.159.354 1.077.314 2.403-.201 3.383C19.93 14.38 15.748 15.75 12 15.75s-7.93-1.37-9.817-4.958c-.515-.98-.556-2.306-.201-3.383" clip-rule="evenodd"/><path fill="currentColor" fill-rule="evenodd" d="M11.884 1.75h-.048c-.655 0-1.22 0-1.682.062-.502.066-.958.213-1.364.554-.396.334-.64.765-.837 1.26-.19.475-.364 1.083-.575 1.821l-.099.347 1.443.412.088-.309c.224-.785.378-1.32.536-1.716.154-.385.282-.56.41-.667.117-.099.27-.172.596-.216.352-.046.816-.048 1.531-.048h.234c.716 0 1.18.002 1.532.048.326.044.479.117.597.216.127.108.255.282.409.667.158.397.312.93.536 1.716l.088.309 1.443-.412-.1-.347c-.21-.738-.384-1.346-.574-1.821-.197-.495-.44-.926-.837-1.26-.406-.341-.862-.488-1.364-.554-.463-.062-1.027-.062-1.683-.062h-.281M2.96 10.251a.75.75 0 0 1 .789.709l.153 2.87c.083 1.827.144 3.123.319 4.105.171.961.436 1.514.856 1.915.42.4.984.64 1.951.768.989.13 2.287.132 4.117.132h1.71c1.83 0 3.128-.002 4.117-.132.967-.128 1.531-.367 1.951-.768s.685-.954.856-1.915c.175-.982.236-2.278.319-4.106v-.006l.153-2.863a.75.75 0 0 1 1.498.08l-.153 2.857v.006l-.002.05c-.08 1.76-.144 3.155-.338 4.246-.2 1.123-.557 2.028-1.297 2.735s-1.66 1.022-2.79 1.171c-1.1.145-2.497.145-4.259.145h-1.82c-1.762 0-3.16 0-4.258-.145-1.131-.15-2.051-.464-2.791-1.17-.74-.708-1.096-1.613-1.297-2.736-.194-1.09-.258-2.487-.338-4.247l-.002-.052-.153-2.86a.75.75 0 0 1 .709-.789M12 14.25a.75.75 0 0 1 .75.75v1.5a.75.75 0 0 1-1.5 0V15a.75.75 0 0 1 .75-.75" clip-rule="evenodd" opacity=".4"/></svg>