<svg xmlns="http://www.w3.org/2000/svg" fill="none" viewBox="0 0 24 24"><path fill="currentColor" fill-rule="evenodd" d="M13.957 5.25h-3.914c-1.743 0-3.129 0-4.214.149-1.121.153-2.033.478-2.751 1.21C2.36 7.34 2.045 8.265 1.896 9.4c-.146 1.104-.146 2.515-.146 4.295v.11c0 1.78 0 3.19.146 4.295.15 1.136.465 2.06 1.182 2.79.718.733 1.63 1.058 2.75 1.211 1.086.149 2.472.149 4.215.149h3.914c1.743 0 3.129 0 4.215-.149 1.12-.153 2.032-.478 2.75-1.21.717-.731 1.033-1.655 1.182-2.791.146-1.104.146-2.515.146-4.295v-.11c0-1.78 0-3.19-.146-4.295-.15-1.136-.465-2.06-1.181-2.79-.719-.733-1.63-1.058-2.751-1.211-1.086-.149-2.472-.149-4.215-.149M4.148 7.66c.395-.402.935-.645 1.884-.775.972-.133 2.255-.135 4.068-.135h3.8c1.813 0 3.096.002 4.068.135.949.13 1.489.373 1.884.775.396.404.637.961.765 1.936.063.472.096 1.016.113 1.654H3.27c.017-.638.05-1.182.113-1.654.128-.975.369-1.532.765-1.936m-.897 5.09-.001 1c0 1.848.002 3.16.133 4.154.128.975.369 1.532.765 1.936.395.402.935.645 1.884.775.972.133 2.255.135 4.068.135h3.8c1.813 0 3.096-.002 4.068-.135.949-.13 1.489-.373 1.884-.775.396-.404.637-.961.765-1.936.131-.995.133-2.306.133-4.154l-.001-1z" clip-rule="evenodd"/><path fill="currentColor" fill-rule="evenodd" d="M12.175 1.75h-.351c-.746 0-1.37 0-1.88.06-.54.064-1.025.203-1.463.53-.435.325-.71.754-.936 1.256-.215.479-.411 1.09-.648 1.826l-.112.348 1.428.46.1-.31c.252-.786.424-1.316.6-1.71.17-.377.312-.554.466-.669.152-.113.352-.195.742-.241.41-.049.946-.05 1.747-.05h.263c.8 0 1.335.001 1.746.05.39.046.59.128.742.241.154.115.297.292.466.67.176.393.348.923.6 1.71l.1.309 1.428-.46-.112-.348c-.236-.737-.433-1.347-.647-1.826-.226-.502-.502-.931-.937-1.256-.437-.327-.923-.466-1.463-.53-.51-.06-1.134-.06-1.88-.06M7.75 12a.75.75 0 0 0-1.5 0v9a.75.75 0 0 0 1.5 0zm10 0a.75.75 0 0 0-1.5 0v9a.75.75 0 0 0 1.5 0z" clip-rule="evenodd" opacity=".4"/></svg>