<svg xmlns="http://www.w3.org/2000/svg" fill="none" viewBox="0 0 24 24"><path fill="currentColor" d="M18.5 10.75c-.816 0-1.572-.884-2.55-2.131-.199-.252-.385-.49-.49-.598a.75.75 0 1 1 1.08-1.041c.156.163.347.406.588.713.147.187.38.483.621.768V2a.75.75 0 0 1 1.5 0v6.461c.242-.285.474-.581.621-.768.241-.307.432-.55.59-.713a.75.75 0 1 1 1.078 1.042c-.104.108-.29.346-.488.598-.979 1.248-1.735 2.131-2.55 2.131z" opacity=".4"/><path fill="currentColor" fill-rule="evenodd" d="M4.014 22.628q.65.121 1.31.121h.001a7.3 7.3 0 0 0 3.404-.845l.005-.003.005-.003c.193-.106.478-.262.585-.302.096.003.349.047.607.092.682.128 1.38.193 2.074.193 5.767 0 10.486-4.324 10.744-9.845a.749.749 0 1 0-1.498-.07c-.22 4.719-4.282 8.415-9.246 8.415a10 10 0 0 1-1.807-.169l-.018-.003c-.52-.09-.784-.136-1.053-.102-.299.037-.57.18-1.105.474a5.8 5.8 0 0 1-2.571.667c.244-.492.421-1.02.525-1.568.135-.719-.127-1.478-.722-2.086-1.615-1.637-2.504-3.777-2.504-6.023 0-4.863 4.152-8.82 9.255-8.82.448 0 .915.034 1.389.102a.75.75 0 0 0 .212-1.485 11 11 0 0 0-1.601-.118C6.075 1.25 1.25 5.88 1.25 11.57c0 2.644 1.043 5.157 2.934 7.075.116.119.379.43.318.756a4.5 4.5 0 0 1-.931 2.015.748.748 0 0 0 .443 1.212M10.999 12c0 .552.452 1 1.004 1a1 1 0 0 0 0-2h-.008a.997.997 0 0 0-.996 1m-3.995 0c0 .552.452 1 1.004 1a1 1 0 0 0 0-2h-.01a.996.996 0 0 0-.994 1" clip-rule="evenodd"/></svg>