<svg xmlns="http://www.w3.org/2000/svg" fill="none" viewBox="0 0 24 24"><path fill="currentColor" d="M19.492 9.75a4.255 4.255 0 0 1-4.25-4.25 4.255 4.255 0 0 1 4.25-4.25 4.255 4.255 0 0 1 4.25 4.25 4.255 4.255 0 0 1-4.25 4.25m0-7a2.754 2.754 0 0 0-2.75 2.75 2.754 2.754 0 0 0 2.75 2.75 2.754 2.754 0 0 0 2.75-2.75 2.754 2.754 0 0 0-2.75-2.75" opacity=".4"/><path fill="currentColor" fill-rule="evenodd" d="M4.012 22.627q.651.121 1.31.121a7.3 7.3 0 0 0 3.403-.845l.005-.003.006-.003.012-.007c.193-.106.468-.257.572-.295.095.003.348.047.606.092.682.128 1.379.193 2.074.193 5.928 0 10.75-4.625 10.75-10.31a.75.75 0 0 0-1.5 0c0 4.858-4.15 8.81-9.25 8.81a10 10 0 0 1-1.806-.169c-.531-.092-.798-.138-1.069-.105-.301.037-.572.18-1.106.474a5.8 5.8 0 0 1-2.569.667c.244-.492.421-1.02.525-1.568.135-.717-.127-1.476-.722-2.086-1.614-1.637-2.503-3.776-2.503-6.023 0-4.863 4.15-8.82 9.25-8.82.603 0 1.23.06 1.863.177a.75.75 0 1 0 .274-1.474A11.7 11.7 0 0 0 12 1.25c-5.928 0-10.75 4.63-10.75 10.32 0 2.644 1.042 5.157 2.932 7.074.116.119.38.431.319.756a4.5 4.5 0 0 1-.931 2.015.75.75 0 0 0 .442 1.212M14.996 12c0 .552.452 1 1.004 1a1 1 0 0 0 0-2h-.008a.996.996 0 0 0-.996 1M11 12c0 .552.452 1 1.004 1a1 1 0 0 0 0-2h-.008A.997.997 0 0 0 11 12m-3.996 0c0 .552.453 1 1.005 1a1 1 0 0 0 0-2h-.01a.996.996 0 0 0-.995 1" clip-rule="evenodd"/></svg>