<svg xmlns="http://www.w3.org/2000/svg" fill="none" viewBox="0 0 24 24"><path fill="currentColor" d="M5.325 22.75q-.654 0-1.301-.119a.75.75 0 0 1-.445-1.211 4.55 4.55 0 0 0 .932-2.015c.043-.227-.075-.51-.317-.756-1.892-1.92-2.934-4.435-2.934-7.082C1.26 5.878 6.082 1.25 12.01 1.25s10.75 4.628 10.75 10.317-4.822 10.316-10.75 10.316a11 11 0 0 1-2.074-.192 7 7 0 0 0-.594-.098 7 7 0 0 0-.595.3l-.011.006a7.3 7.3 0 0 1-3.412.851m6.685-20c-5.1 0-9.25 3.955-9.25 8.817 0 2.25.889 4.391 2.503 6.03.595.605.858 1.365.722 2.087a6 6 0 0 1-.525 1.564 5.8 5.8 0 0 0 2.573-.675l.01-.006c.524-.278.786-.417 1.073-.46.282-.044.553.007 1.094.108a10 10 0 0 0 1.799.167c5.102 0 9.25-3.955 9.25-8.816s-4.15-8.817-9.25-8.817z"/><path fill="currentColor" fill-rule="evenodd" d="M11.26 13.499a.75.75 0 0 0 1.501 0v-.385c0-.34.312-.737.643-1.157l.009-.012a8 8 0 0 0 .494-.676c.23-.367.353-.793.353-1.231 0-1.262-1.01-2.288-2.25-2.288-1.241 0-2.25 1.026-2.25 2.288 0 .414.336.75.75.75s.75-.315.75-.75.336-.788.75-.788.75.353.75.788a.8.8 0 0 1-.123.433c-.108.171-.25.353-.402.545l-.01.013h-.001c-.452.575-.964 1.226-.964 2.085zm.006 2.001c0 .414.34.75.754.75a.75.75 0 0 0 0-1.5h-.01a.746.746 0 0 0-.744.75" clip-rule="evenodd" opacity=".4"/></svg>