<svg xmlns="http://www.w3.org/2000/svg" fill="none" viewBox="0 0 24 24"><path fill="currentColor" d="M21.998 10.75a.75.75 0 0 1-.53-.219l-1.5-1.498a4.278 4.278 0 0 1-6.72-3.503 4.287 4.287 0 0 1 4.277-4.28 4.283 4.283 0 0 1 4.276 4.28c0 .908-.285 1.751-.771 2.443l1.498 1.496a.75.75 0 0 1-.531 1.281zm-4.473-8a2.78 2.78 0 0 0-2.777 2.78 2.773 2.773 0 0 0 2.777 2.77 2.77 2.77 0 0 0 1.946-.796l.013-.014.016-.016c.495-.5.8-1.187.8-1.944a2.78 2.78 0 0 0-2.776-2.78z" opacity=".4"/><path fill="currentColor" fill-rule="evenodd" d="M4.014 22.628q.65.12 1.31.12l.003.002a7.3 7.3 0 0 0 3.409-.848l.005-.003c.199-.11.498-.274.595-.306.061.002.221.03.384.058l.045.008.167.029c.682.128 1.38.193 2.074.193 5.336 0 9.952-3.772 10.736-8.774a.75.75 0 0 0-1.482-.232c-.671 4.279-4.649 7.506-9.254 7.506a10 10 0 0 1-1.807-.17l-.172-.03c-.407-.071-.657-.115-.922-.071-.29.042-.561.185-1.082.47a5.8 5.8 0 0 1-2.571.668c.244-.492.421-1.02.525-1.568.135-.72-.127-1.478-.722-2.086-1.615-1.637-2.504-3.78-2.504-6.033 0-4.708 3.859-8.578 8.785-8.811a.75.75 0 1 0-.071-1.5C5.737 1.523 1.25 6.05 1.25 11.56c0 2.65 1.043 5.167 2.934 7.085.116.119.379.43.318.756a4.5 4.5 0 0 1-.931 2.015.75.75 0 0 0 .443 1.212M14.996 12c0 .552.452 1 1.004 1a1 1 0 0 0 0-2h-.008a.996.996 0 0 0-.996 1M11 12c0 .552.452 1 1.004 1a1 1 0 0 0 0-2h-.008A.997.997 0 0 0 11 12m-3.996 0c0 .552.453 1 1.005 1a1 1 0 0 0 0-2h-.01a.996.996 0 0 0-.995 1" clip-rule="evenodd"/></svg>