<svg xmlns="http://www.w3.org/2000/svg" fill="none" viewBox="0 0 24 24"><path fill="currentColor" fill-rule="evenodd" d="M4.012 22.628q.651.12 1.31.121h.001c1.176 0 2.35-.288 3.403-.845.257-.136.502-.265.608-.307.113.008.388.061.573.097l.019.004c.681.128 1.379.193 2.074.193 2.493 0 4.95-.831 6.917-2.34 1.97-1.511 3.325-3.604 3.816-5.893a.75.75 0 0 0-1.467-.315c-.417 1.94-1.575 3.722-3.263 5.017a9.9 9.9 0 0 1-6.004 2.03 9.7 9.7 0 0 1-1.791-.166c-.519-.102-.804-.153-1.085-.118l-.044.007c-.272.05-.516.179-1.048.46l-.007.004a5.8 5.8 0 0 1-2.573.67 6 6 0 0 0 .524-1.558c.136-.72-.135-1.501-.72-2.084-1.616-1.648-2.505-3.791-2.505-6.035 0-4.863 4.15-8.82 9.25-8.82.281 0 .586.015.932.047a.75.75 0 0 0 .136-1.494A12 12 0 0 0 12 1.25c-5.928 0-10.75 4.629-10.75 10.32 0 2.639 1.041 5.155 2.939 7.09.239.24.355.52.312.749a4.5 4.5 0 0 1-.931 2.007.748.748 0 0 0 .442 1.212M11.995 13h.01a1 1 0 0 0 0-2h-.01a1 1 0 0 0 0 2m-4.991-1c0 .552.453 1 1.005 1a1 1 0 0 0 0-2h-.01a.996.996 0 0 0-.995 1" clip-rule="evenodd"/><path fill="currentColor" d="M20.2 11.74h-3.377a2.553 2.553 0 0 1-2.55-2.55v-2c0-1.12.725-2.073 1.731-2.415V3.78c0-.273.016-.567.132-.869.307-.802 1.087-1.661 2.355-1.661s2.083.895 2.377 1.662c.115.296.131.592.131.868l.012.992a2.56 2.56 0 0 1 1.74 2.418v2a2.553 2.553 0 0 1-2.55 2.55m-3.377-5.6c-.579 0-1.05.471-1.05 1.05v2c0 .579.471 1.05 1.05 1.05H20.2c.58 0 1.05-.471 1.05-1.05v-2c0-.579-.47-1.05-1.05-1.05zm.681-1.5h2.006l-.01-.851c0-.09 0-.258-.032-.337-.046-.121-.303-.702-.977-.702-.638 0-.892.534-.954.698-.033.085-.033.258-.033.332z" opacity=".4"/></svg>