<svg xmlns="http://www.w3.org/2000/svg" fill="none" viewBox="0 0 24 24"><path fill="currentColor" fill-rule="evenodd" d="m17.934 11.363-2.15-.645.431-1.436 2.15.644.04.013c.652.195 1.202.36 1.635.547.46.198.86.45 1.166.86s.431.867.49 1.364c.054.469.054 1.043.054 1.723V22h-1.5v-7.524c0-.734-.002-1.221-.045-1.593-.04-.351-.112-.52-.202-.641-.09-.122-.231-.238-.557-.379-.343-.148-.809-.289-1.512-.5" clip-rule="evenodd" opacity=".4"/><path fill="currentColor" fill-rule="evenodd" d="m13.329 3.463-5.102-1.48c-1.114-.324-2.033-.59-2.77-.69-.773-.103-1.505-.046-2.13.446-.618.487-.86 1.187-.97 1.972-.107.757-.107 1.742-.107 2.948V21.25H2a.75.75 0 0 0 0 1.5h20a.75.75 0 0 0 0-1.5h-5.25V8.126c0-.721 0-1.325-.056-1.816-.058-.518-.186-.99-.495-1.413-.311-.425-.72-.685-1.195-.887-.444-.19-1.008-.353-1.675-.547M15.25 21.25V8.169c0-.775-.001-1.294-.046-1.69-.043-.378-.119-.563-.216-.697-.096-.13-.241-.251-.572-.392-.35-.15-.827-.29-1.548-.498l-5-1.452c-1.188-.345-1.998-.578-2.61-.66-.59-.079-.837.007-1.003.138-.173.136-.326.374-.413 1-.09.642-.092 1.52-.092 2.8V21.25h2.5v-2.295c0-.433 0-.83.043-1.152.048-.356.16-.731.47-1.04s.684-.422 1.04-.47c.323-.043.72-.043 1.152-.043h1.09c.433 0 .83 0 1.152.043.356.048.731.16 1.04.47s.422.684.47 1.04c.043.323.043.72.043 1.152v2.295zM7.75 19v2.25h3.5V19c0-.493-.002-.787-.03-.997a.7.7 0 0 0-.042-.177l-.001-.003-.003-.001-.01-.005a.7.7 0 0 0-.167-.037c-.21-.028-.504-.03-.997-.03H9c-.493 0-.787.002-.997.03a.7.7 0 0 0-.177.042l-.003.001-.001.003-.005.01a.7.7 0 0 0-.037.167c-.028.21-.03.504-.03.997M8 8.25a.75.75 0 0 0 0 1.5h3a.75.75 0 0 0 0-1.5zm0 4a.75.75 0 0 0 0 1.5h3a.75.75 0 0 0 0-1.5z" clip-rule="evenodd"/></svg>