<svg xmlns="http://www.w3.org/2000/svg" fill="none" viewBox="0 0 24 24"><path fill="currentColor" fill-rule="evenodd" d="M3.25 2A.75.75 0 0 1 4 1.25h16a.75.75 0 0 1 0 1.5h-5.565l-1.143 2H15a.75.75 0 0 1 0 1.5H9a.75.75 0 0 1 0-1.5h2.565l1.143-2H4A.75.75 0 0 1 3.25 2" clip-rule="evenodd" opacity=".4"/><path fill="currentColor" fill-rule="evenodd" d="M14.583 7.25H9.417c-.924 0-1.695 0-2.334.09-.683.096-1.268.301-1.811.737-1.031.83-1.253 1.843-1.562 3.25l-.03.136a18.6 18.6 0 0 0-.225 6.735l.022.145c.226 1.504.388 2.59 1.445 3.499.556.479 1.167.703 1.885.81.671.098 1.485.098 2.462.098h5.462c.977 0 1.79 0 2.462-.099.718-.106 1.33-.33 1.885-.809 1.057-.91 1.22-1.995 1.445-3.498l.021-.146a18.6 18.6 0 0 0-.224-6.735l-.03-.136c-.309-1.407-.531-2.42-1.562-3.25-.543-.436-1.128-.64-1.811-.737-.64-.09-1.41-.09-2.334-.09M6.212 9.246c.28-.225.59-.352 1.08-.42.523-.074 1.188-.076 2.176-.076h1.825a.8.8 0 0 0-.043.25v6.25H4.751c.013-1.188.148-2.347.394-3.465.35-1.589.484-2.07 1.067-2.539M4.8 16.75q.048.62.139 1.225c.256 1.701.364 2.216.961 2.73.288.248.61.386 1.125.462.55.081 1.253.083 2.297.083h5.356c1.044 0 1.747-.002 2.296-.083.515-.076.838-.214 1.126-.462.597-.514.705-1.028.961-2.73q.09-.606.139-1.225zm14.449-1.5a17 17 0 0 0-.394-3.465c-.35-1.589-.484-2.07-1.067-2.539-.28-.225-.59-.352-1.08-.42-.523-.074-1.188-.076-2.175-.076h-1.826a.8.8 0 0 1 .043.25v6.25z" clip-rule="evenodd"/></svg>