<svg xmlns="http://www.w3.org/2000/svg" fill="none" viewBox="0 0 24 24"><path fill="currentColor" fill-rule="evenodd" d="M13.204 14.25h-2.681l-1.23-6.455C9 6.25 10.243 4.75 12 4.75s3 1.5 2.706 3.045l-1.23 6.455zm1.793.027q.336.018.622.054c.642.083 1.254.269 1.688.78.453.534.495 1.162.402 1.778-.087.573-.314 1.28-.58 2.104l-.019.06-.107.335c-.21.653-.389 1.21-.594 1.648-.22.471-.498.87-.94 1.172l-.005.003-.031.02c-.44.29-.925.41-1.465.466-.517.053-1.155.053-1.929.053h-.079c-.774 0-1.412 0-1.929-.053-.54-.056-1.025-.176-1.465-.466l-.004-.003-.03-.02c-.443-.301-.721-.7-.942-1.172-.205-.439-.383-.995-.593-1.648l-.108-.334-.02-.06c-.265-.826-.492-1.532-.578-2.105-.094-.616-.052-1.244.401-1.778.434-.511 1.046-.697 1.688-.78q.285-.037.622-.054L7.82 8.076C7.333 5.523 9.389 3.25 11.999 3.25s4.666 2.273 4.18 4.826zm-7.161 1.805c.072-.085.226-.198.737-.264.517-.066 1.228-.068 2.276-.068h2.302c1.047 0 1.759.002 2.276.068.51.066.665.179.737.264.053.063.124.172.062.582-.067.439-.253 1.028-.544 1.93l-.093.292c-.228.708-.379 1.172-.539 1.515-.148.317-.276.465-.424.566l-.021.014c-.159.104-.376.18-.79.224-.432.044-.992.045-1.815.045s-1.384 0-1.815-.045c-.415-.043-.632-.12-.79-.224l-.022-.015c-.147-.1-.275-.248-.424-.565-.16-.343-.31-.807-.538-1.515l-.094-.291c-.29-.903-.477-1.492-.543-1.93-.062-.41.008-.52.062-.583" clip-rule="evenodd"/><path fill="currentColor" fill-rule="evenodd" d="M12.75 12a.75.75 0 0 0-1.5 0v3a.75.75 0 0 0 1.5 0zm0-10a.75.75 0 0 0-1.5 0v2a.75.75 0 0 0 1.5 0zM7.416 4.376a.75.75 0 0 0-.832 1.248l1.5 1a.75.75 0 0 0 .832-1.248zm10 1.248a.75.75 0 1 0-.832-1.248l-1.5 1a.75.75 0 1 0 .832 1.248zm-8.5 5a.75.75 0 1 0-.832-1.248l-1.5 1a.75.75 0 1 0 .832 1.248zm7-1.248a.75.75 0 0 0-.832 1.248l1.5 1a.75.75 0 1 0 .832-1.248z" clip-rule="evenodd" opacity=".4"/></svg>