<svg xmlns="http://www.w3.org/2000/svg" fill="none" viewBox="0 0 24 24"><path fill="currentColor" fill-rule="evenodd" d="M6 1.25a.75.75 0 0 1 .75.75v.366c1.136-.116 2.534-.116 4.24-.116h2.02c1.706 0 3.104 0 4.24.116V2a.75.75 0 0 1 1.5 0v.635c.805.228 1.483.599 2.049 1.21.763.825 1.11 1.863 1.28 3.16.166 1.28.17 2.915.171 4.995a.75.75 0 0 1-1.5 0c0-1.284-.003-2.35-.039-3.25H3.29c-.038.957-.039 2.1-.039 3.493v.514c0 2.198.001 3.777.15 4.978.148 1.186.428 1.89.903 2.402.466.504 1.094.796 2.164.952 1.098.16 2.545.161 4.583.161a.75.75 0 0 1 0 1.5h-.06c-1.964 0-3.52 0-4.739-.177-1.258-.183-2.264-.568-3.05-1.417-.777-.841-1.123-1.904-1.289-3.235-.162-1.305-.162-2.977-.162-5.111v-.62c0-2.133 0-3.806.162-5.11.166-1.332.512-2.395 1.29-3.236.565-.61 1.243-.981 2.048-1.21V2A.75.75 0 0 1 6 1.25m-2.597 6h17.194l-.006-.051c-.15-1.146-.428-1.833-.894-2.336a2.6 2.6 0 0 0-.976-.657A.75.75 0 0 1 17.25 4v-.125c-1.061-.123-2.432-.125-4.3-.125h-1.9c-1.868 0-3.239.002-4.3.125V4a.75.75 0 0 1-1.471.206 2.6 2.6 0 0 0-.976.657c-.473.51-.752 1.21-.9 2.387" clip-rule="evenodd"/><path fill="currentColor" fill-rule="evenodd" d="M17 13.25a.75.75 0 0 1 .75.75v3.25H21a.75.75 0 0 1 0 1.5h-3.25V22a.75.75 0 0 1-1.5 0v-3.25H13a.75.75 0 0 1 0-1.5h3.25V14a.75.75 0 0 1 .75-.75" clip-rule="evenodd" opacity=".4"/></svg>