<svg xmlns="http://www.w3.org/2000/svg" fill="none" viewBox="0 0 24 24"><path fill="currentColor" fill-rule="evenodd" d="M6 1.25a.75.75 0 0 1 .75.75v.366c1.136-.116 2.534-.116 4.24-.116h2.02c1.706 0 3.104 0 4.24.116V2a.75.75 0 0 1 1.5 0v.635c.805.228 1.483.599 2.049 1.21.777.84 1.123 1.903 1.289 3.235.162 1.304.162 2.976.162 5.11v.62c0 2.133 0 3.806-.162 5.11-.166 1.332-.512 2.395-1.29 3.236-.785.849-1.79 1.234-3.05 1.417-1.217.177-2.774.177-4.737.177h-2.022c-1.963 0-3.52 0-4.738-.177-1.258-.183-2.264-.568-3.05-1.417-.777-.841-1.123-1.904-1.289-3.235-.162-1.305-.162-2.977-.162-5.111v-.62c0-2.133 0-3.806.162-5.11.166-1.332.512-2.395 1.29-3.236.565-.61 1.243-.981 2.048-1.21V2A.75.75 0 0 1 6 1.25m-.721 2.956a2.6 2.6 0 0 0-.976.657c-.473.51-.752 1.21-.9 2.387h17.194c-.148-1.177-.427-1.877-.9-2.387a2.6 2.6 0 0 0-.976-.657A.75.75 0 0 1 17.25 4v-.125c-1.061-.123-2.432-.125-4.3-.125h-1.9c-1.868 0-3.239.002-4.3.125V4a.75.75 0 0 1-1.471.206M20.71 8.75H3.29c-.038.957-.039 2.1-.039 3.493v.514c0 2.198.001 3.777.15 4.978.148 1.186.428 1.89.903 2.402.466.504 1.094.796 2.164.952 1.098.16 2.545.161 4.583.161h1.9c2.038 0 3.485-.002 4.583-.161 1.07-.156 1.698-.448 2.164-.952.475-.513.755-1.216.902-2.402.15-1.201.151-2.78.151-4.978v-.514c0-1.392 0-2.536-.039-3.493" clip-rule="evenodd"/><path fill="currentColor" fill-rule="evenodd" d="M14.233 12.98c-.65-.38-1.15-.218-1.435-.014l-.015.01a5 5 0 0 1-.259.179 1.3 1.3 0 0 1-.175.093.9.9 0 0 1-.35.075.9.9 0 0 1-.35-.075 1.3 1.3 0 0 1-.174-.093 5 5 0 0 1-.259-.178l-.015-.01c-.285-.205-.785-.367-1.435.012-.313.183-.593.634-.498 1.315.095.675.58 1.603 1.883 2.521.573.404.654.435.849.435s.276-.03.849-.435c1.302-.918 1.787-1.847 1.882-2.521.096-.68-.185-1.132-.498-1.315M12 11.694c.703-.467 1.805-.703 2.99-.011.918.537 1.393 1.633 1.226 2.82-.168 1.192-.964 2.452-2.503 3.537l-.068.048c-.483.342-.935.661-1.645.661s-1.163-.32-1.645-.66l-.069-.049c-1.539-1.085-2.335-2.345-2.503-3.538-.167-1.186.308-2.282 1.226-2.819 1.185-.692 2.287-.456 2.99.011" clip-rule="evenodd" opacity=".4"/></svg>