<svg xmlns="http://www.w3.org/2000/svg" fill="none" viewBox="0 0 24 24"><path fill="currentColor" fill-rule="evenodd" d="M21.982 18.249h.012l-.001.001a.75.75 0 0 0 .75-.738c.007-.456.007-.968.007-1.51V11.5c0-2.513 0-3.774-.774-4.786l-.007-.009-.003-.004a4 4 0 0 0-.683-.676c-.996-.764-1.811-.775-4.176-.775l-.296-.737-.046-.117-.063-.163-.002-.004c-.358-.922-.805-2.07-1.95-2.641-.682-.338-1.417-.338-2.75-.338s-2.068 0-2.75.337c-1.115.551-1.536 1.606-1.907 2.536l-.04.098a.75.75 0 1 0 1.394.557l.04-.1.001-.003c.31-.777.579-1.447 1.179-1.744.368-.182.94-.182 2.084-.182 1.143 0 1.716 0 2.082.181.626.313.915 1.057 1.22 1.845l.116.294.48 1.194.006.016.006.015.394.984a.75.75 0 0 0 1.404-.527c1.72.007 2.139.063 2.66.463q.223.17.42.417c.462.609.462 1.701.462 3.868V16c0 .537 0 1.043-.007 1.487a.75.75 0 0 0 .738.762M11.004 6c0 .552.453 1 1.005 1a1 1 0 0 0 0-2h-.01a.996.996 0 0 0-.995 1" clip-rule="evenodd" opacity=".4"/><path fill="currentColor" fill-rule="evenodd" d="M21.47 22.53a.75.75 0 0 0 1.061 0 .75.75 0 0 0 0-1.06l-20-20A.75.75 0 0 0 1.47 2.53l2.818 2.82a3.3 3.3 0 0 0-1.582.68c-.271.21-.496.435-.687.687-.769 1.01-.769 2.271-.769 4.783V16c0 2.933 0 4.55 1.091 5.648 1.093 1.102 2.7 1.102 5.62 1.102h7.951c2.486 0 4.021 0 5.097-.68zm-1.577-1.576-4.242-4.242a4.2 4.2 0 0 1-3.238 1.54h.001c-2.296 0-4.164-1.858-4.164-4.14 0-1.28.591-2.462 1.566-3.235L5.692 6.753c-1.306.021-1.636.128-2.068.461a2.2 2.2 0 0 0-.41.408c-.464.61-.464 1.702-.464 3.877V16c0 2.617 0 3.931.655 4.592.653.658 1.958.658 4.557.658h7.949c1.99 0 3.221 0 3.982-.295m-9.005-9.005a2.63 2.63 0 0 0-1.139 2.164c0 1.456 1.195 2.64 2.664 2.64.866 0 1.675-.424 2.17-1.11z" clip-rule="evenodd"/></svg>