<svg xmlns="http://www.w3.org/2000/svg" fill="none" viewBox="0 0 24 24"><path fill="currentColor" fill-rule="evenodd" d="M12 2.25a.75.75 0 0 1 .75.75v13a.75.75 0 0 1-1.5 0V3a.75.75 0 0 1 .75-.75m7.5 0a.75.75 0 0 1 .75.75v8a.75.75 0 0 1-1.5 0V3a.75.75 0 0 1 .75-.75M5.25 3a.75.75 0 0 0-1.5 0v8a.75.75 0 0 0 1.5 0z" clip-rule="evenodd" opacity=".4"/><path fill="currentColor" fill-rule="evenodd" d="M9.372 17.089C9.86 16.17 10.736 15.25 12 15.25s2.14.92 2.628 1.839c.495.93.728 2.093.576 3.022-.126.774-.796 1.172-1.323 1.363-.569.206-1.256.286-1.903.275-.649-.01-1.327-.113-1.882-.322-.487-.184-1.178-.566-1.3-1.316-.152-.929.081-2.091.576-3.022m.898 2.739c.021.022.103.1.355.195.352.132.85.217 1.378.226.53.01 1.022-.06 1.366-.185.28-.102.346-.19.357-.208.085-.55-.057-1.374-.423-2.063-.375-.708-.851-1.043-1.303-1.043s-.928.335-1.303 1.043c-.36.677-.503 1.485-.427 2.035M4.5 10.25c-1.264 0-2.14.92-2.628 1.839-.495.93-.728 2.094-.576 3.022.122.75.813 1.132 1.3 1.316.555.209 1.233.311 1.882.322.647.011 1.334-.068 1.903-.275.527-.191 1.197-.589 1.323-1.363.152-.928-.081-2.091-.576-3.022-.488-.918-1.364-1.839-2.628-1.839m-1.375 4.773c-.252-.095-.334-.173-.355-.195-.076-.55.067-1.358.427-2.035.375-.707.851-1.043 1.303-1.043s.928.335 1.303 1.043c.366.689.508 1.513.423 2.063-.011.018-.077.107-.357.208-.344.125-.836.194-1.366.185-.528-.008-1.026-.094-1.378-.226M2 2.25a.75.75 0 0 0 0 1.5h20a.75.75 0 0 0 0-1.5zm17.5 8c-1.264 0-2.14.92-2.628 1.839-.494.93-.728 2.094-.576 3.022.122.75.813 1.132 1.3 1.316.555.209 1.233.311 1.882.322.647.011 1.334-.068 1.903-.275.527-.191 1.197-.589 1.323-1.363.152-.928-.081-2.091-.576-3.022-.488-.918-1.364-1.839-2.628-1.839m-1.375 4.773c-.252-.095-.334-.173-.355-.195-.076-.55.067-1.358.427-2.035.375-.707.851-1.043 1.303-1.043s.928.335 1.303 1.043c.366.689.508 1.513.423 2.063-.011.018-.077.107-.357.208-.344.125-.836.194-1.366.185-.528-.008-1.026-.094-1.378-.226" clip-rule="evenodd"/></svg>