<svg xmlns="http://www.w3.org/2000/svg" fill="none" viewBox="0 0 24 24"><path fill="currentColor" fill-rule="evenodd" d="M5.948 3.75h8.104c.899 0 1.648 0 2.242.08.628.084 1.195.27 1.65.725.45.45.638 1.008.724 1.575.082.539.082 1.17.082 1.827V8a.75.75 0 0 1-1.5 0c0-.712-.002-1.23-.065-1.644-.06-.397-.164-.603-.301-.74-.13-.13-.328-.237-.79-.3-.482-.064-1.13-.066-2.094-.066H6c-.964 0-1.612.002-2.095.067-.461.062-.659.169-.789.3-.137.136-.241.342-.301.739-.063.414-.065.932-.065 1.644a.75.75 0 1 1-1.5 0v-.043c0-.658 0-1.288.082-1.827.086-.567.275-1.126.723-1.575.456-.455 1.023-.64 1.65-.725.595-.08 1.345-.08 2.243-.08M2 15.25a.75.75 0 0 1 .75.75c0 .976.003 1.477.062 1.816.044.253.11.374.304.568.13.13.328.237.79.3.482.064 1.13.066 2.094.066h8c.964 0 1.612-.002 2.095-.067.461-.062.659-.169.789-.3.194-.193.26-.314.304-.567.06-.34.062-.84.062-1.816a.75.75 0 0 1 1.5 0v.084c0 .867 0 1.505-.084 1.99-.103.585-.33.979-.721 1.37-.456.456-1.023.642-1.65.726-.595.08-1.345.08-2.243.08H5.948c-.898 0-1.648 0-2.242-.08-.628-.084-1.195-.27-1.65-.726-.392-.391-.62-.785-.722-1.37-.084-.485-.084-1.123-.084-1.99V16a.75.75 0 0 1 .75-.75" clip-rule="evenodd"/><path fill="currentColor" fill-rule="evenodd" d="M22.667 5.664a.75.75 0 0 1-.336 1.007L11.675 12l10.656 5.33a.75.75 0 0 1-.67 1.34L9.997 12.839l-7.662 3.833a.75.75 0 1 1-.671-1.342L8.322 12 1.665 8.672a.75.75 0 1 1 .67-1.342l7.663 3.832L21.66 5.33a.75.75 0 0 1 1.007.335" clip-rule="evenodd" opacity=".4"/></svg>