<svg xmlns="http://www.w3.org/2000/svg" fill="none" viewBox="0 0 24 24"><path fill="currentColor" fill-rule="evenodd" d="M7.946 6.25h8.108c1.133 0 2.058 0 2.79.098.763.103 1.425.325 1.954.854s.751 1.19.854 1.955c.098.73.098 1.656.098 2.79v.107c0 1.133 0 2.058-.098 2.79-.103.763-.325 1.425-.854 1.954s-1.19.751-1.955.854c-.73.098-1.657.098-2.79.098H7.947c-1.133 0-2.058 0-2.79-.098-.763-.103-1.425-.325-1.954-.854s-.751-1.19-.854-1.955c-.098-.73-.098-1.656-.098-2.79v-.107c0-1.133 0-2.058.098-2.79.103-.763.325-1.425.854-1.954s1.19-.751 1.955-.854c.73-.098 1.656-.098 2.79-.098m-2.59 1.585c-.597.08-.89.224-1.093.428-.204.203-.348.496-.428 1.094C3.752 9.976 3.75 10.8 3.75 12s.002 2.024.085 2.643c.08.598.224.89.428 1.094s.496.348 1.094.428c.619.083 1.443.085 2.643.085h8c1.2 0 2.024-.002 2.643-.085.598-.08.89-.224 1.094-.428s.348-.496.428-1.094c.083-.619.085-1.443.085-2.643s-.002-2.024-.085-2.643c-.08-.598-.224-.89-.428-1.094s-.496-.348-1.094-.428C18.024 7.752 17.2 7.75 16 7.75H8c-1.2 0-2.024.002-2.643.085" clip-rule="evenodd"/><path fill="currentColor" fill-rule="evenodd" d="M17.737 2.14a.75.75 0 0 0-1.473-.28c-.086.447-.219.691-.403.87-.213.208-.52.354-1.14.435-.64.084-1.49.085-2.72.085-1.232 0-2.082-.001-2.721-.085-.62-.081-.928-.227-1.14-.434-.185-.18-.318-.424-.403-.872a.75.75 0 0 0-1.474.282c.124.646.36 1.207.83 1.664.54.525 1.213.745 1.992.847.748.098 1.697.098 2.862.098h.106c1.166 0 2.114 0 2.862-.098.78-.102 1.453-.322 1.992-.847.47-.457.706-1.018.83-1.664m0 19.72a.75.75 0 0 1-1.473.28c-.086-.447-.219-.691-.403-.87-.213-.208-.52-.354-1.14-.435-.64-.084-1.49-.085-2.72-.085-1.232 0-2.082.001-2.721.085-.62.081-.928.227-1.14.434-.185.18-.318.424-.403.872a.75.75 0 1 1-1.474-.282c.124-.646.36-1.207.83-1.664.54-.525 1.213-.745 1.992-.847.748-.098 1.697-.098 2.862-.098h.106c1.166 0 2.114 0 2.862.098.78.102 1.453.322 1.992.847.47.457.706 1.018.83 1.664" clip-rule="evenodd" opacity=".4"/></svg>