<svg xmlns="http://www.w3.org/2000/svg" fill="none" viewBox="0 0 24 24"><path fill="currentColor" fill-rule="evenodd" d="M11.294 1.747a.75.75 0 0 1 .96-.453l5.571 2a.75.75 0 0 1 .458.467c1.103 3.289.13 6.885-1.645 10.954a.75.75 0 1 1-1.375-.6c1.688-3.869 2.443-6.903 1.703-9.536l-5.22-1.873a.75.75 0 0 1-.452-.96M8.298 13.812a.75.75 0 0 1 .39.986C7.553 17.418 6.75 20.433 6.75 22a.75.75 0 0 1-1.5 0c0-1.873.899-5.114 2.062-7.798a.75.75 0 0 1 .986-.39" clip-rule="evenodd" opacity=".4"/><path fill="currentColor" fill-rule="evenodd" d="M12.346 1.35a.75.75 0 0 1 .363.521c.2 1.153.575 3.057 1.08 5.017.509 1.974 1.135 3.945 1.825 5.264.754 1.442 1.532 3.314 2.122 5.1.472 1.427.844 2.86.969 3.998H20a.75.75 0 0 1 0 1.5H4a.75.75 0 0 1 0-1.5h6.643l-.41-.757c-1.384-2.547-2.766-5.093-3.715-7.561C5.334 9.85 4.766 6.753 5.76 3.763a.75.75 0 0 1 .456-.468l5.496-2a.75.75 0 0 1 .633.056m.002 19.9q-.412-.764-.82-1.515l-.534-.985h.506a.75.75 0 0 0 0-1.5h-1.307a78 78 0 0 1-.77-1.5H10.5a.75.75 0 0 0 0-1.5H8.703a34 34 0 0 1-.645-1.5H10a.75.75 0 0 0 0-1.5H7.51c-.774-2.375-1.025-4.59-.43-6.673l4.312-1.568c.22 1.157.541 2.686.945 4.253.513 1.993 1.173 4.105 1.948 5.586.71 1.358 1.458 3.153 2.027 4.875.444 1.345.76 2.59.883 3.527z" clip-rule="evenodd"/></svg>