<svg xmlns="http://www.w3.org/2000/svg" fill="none" viewBox="0 0 24 24"><path fill="currentColor" fill-rule="evenodd" d="M10.75 9a1.25 1.25 0 1 1 2.5 0 1.25 1.25 0 0 1-2.5 0m2 2.646a2.751 2.751 0 1 0-1.5 0V20a.75.75 0 0 0 1.5 0z" clip-rule="evenodd"/><path fill="currentColor" fill-rule="evenodd" d="M4.286 4.448a.75.75 0 1 0-1.204-.896C1.93 5.102 1.25 6.978 1.25 9s.68 3.897 1.832 5.448a.75.75 0 0 0 1.204-.896C3.312 12.242 2.75 10.678 2.75 9s.562-3.243 1.536-4.552m16.632-.896a.75.75 0 0 0-1.204.896C20.688 5.758 21.25 7.322 21.25 9s-.562 3.243-1.536 4.552a.75.75 0 0 0 1.204.896C22.07 12.898 22.75 11.023 22.75 9c0-2.022-.68-3.897-1.832-5.448m-3.362 1.995a.75.75 0 1 0-1.195.906c.57.752.889 1.624.889 2.547s-.318 1.795-.889 2.547a.75.75 0 0 0 1.195.906c.75-.987 1.194-2.172 1.194-3.453s-.445-2.466-1.194-3.453m-9.917.906a.75.75 0 0 0-1.195-.906C5.694 6.534 5.25 7.719 5.25 9s.445 2.466 1.194 3.453a.75.75 0 1 0 1.195-.906C7.069 10.795 6.75 9.923 6.75 9s.318-1.795.889-2.547" clip-rule="evenodd" opacity=".4"/></svg>