<svg xmlns="http://www.w3.org/2000/svg" fill="none" viewBox="0 0 24 24"><path fill="currentColor" fill-rule="evenodd" d="M4.288 5.75c-.623 0-1.011.002-1.287.04a1 1 0 0 0-.229.054l-.02.011-.003.01a.8.8 0 0 0-.004.209c.02.261.101.622.237 1.212l.39 1.699c.515 2.239 2.406 3.925 4.73 4.273a.75.75 0 1 1-.223 1.484c-2.899-.435-5.308-2.549-5.968-5.42l-.391-1.7-.012-.051c-.12-.522-.228-.993-.259-1.38-.033-.422.013-.89.347-1.293.33-.397.779-.535 1.199-.594.391-.054.885-.054 1.443-.054H5.49a.75.75 0 0 1 0 1.5zm15.404 0c.624 0 1.012.002 1.287.04a1 1 0 0 1 .23.054l.02.011.001.004.002.007a.8.8 0 0 1 .004.208c-.02.261-.102.622-.237 1.212l-.391 1.699c-.515 2.239-2.406 3.925-4.729 4.273a.75.75 0 1 0 .223 1.484c2.898-.435 5.307-2.549 5.968-5.42l.39-1.7.012-.051c.12-.522.229-.993.26-1.38.032-.422-.013-.89-.348-1.293-.33-.397-.779-.535-1.198-.594-.392-.054-.886-.054-1.443-.054H18.49a.75.75 0 0 0 0 1.5z" clip-rule="evenodd" opacity=".4"/><path fill="currentColor" fill-rule="evenodd" d="M15.329 1.25c1.6.008 2.616.09 3.322.95.759.93.63 2.04.41 3.88-.638 5.297-2.432 9.275-4.74 10.885.985.649 1.764 1.685 2.247 2.885a2.34 2.34 0 0 1-.047 1.872c-.248.518-.763 1.027-1.49 1.027H8.95c-.727 0-1.242-.509-1.49-1.027a2.34 2.34 0 0 1-.047-1.872c.483-1.198 1.26-2.232 2.242-2.88-2.315-1.61-4.117-5.59-4.754-10.89-.22-1.84-.35-2.95.41-3.88.705-.86 1.72-.942 3.321-.95zm-3.339 16.5c-1.261 0-2.503.965-3.186 2.66a.84.84 0 0 0 .01.666c.068.143.132.17.144.173h6.065c.011-.004.075-.03.143-.173a.84.84 0 0 0 .01-.665c-.683-1.696-1.924-2.662-3.186-2.662m3.06-15.01H9.168c-1.68 0-2.379.02-2.698.41-.34.42-.28 1.1-.08 2.75.729 6 3.077 10.35 5.595 10.35 2.519 0 4.857-4.35 5.586-10.35.2-1.65.26-2.33-.08-2.75-.302-.37-.946-.408-2.44-.41" clip-rule="evenodd"/></svg>