<svg xmlns="http://www.w3.org/2000/svg" fill="none" viewBox="0 0 24 24"><path fill="currentColor" d="M11.998 20.75c-.53 0-.85 0-1.17-.14-.43-.17-.76-.51-.94-.94-.13-.32-.13-.64-.13-1.17v-13c0-.53 0-.85.13-1.17.18-.43.52-.77.95-.95.32-.13.64-.13 1.17-.13s.85 0 1.17.13c.43.18.77.52.95.95.13.32.13.64.13 1.17v13c0 .53 0 .85-.13 1.17-.18.43-.52.77-.95.95-.32.13-.64.13-1.17.13zm0-16c-.26 0-.53 0-.6.02a.21.21 0 0 0-.13.13c-.02.06-.02.33-.02.59v13c0 .26 0 .53.02.6.02.06.07.11.13.13.14.04 1.06.04 1.2 0 .06-.02.11-.07.13-.14.02-.06.02-.33.02-.59v-13c0-.26 0-.53-.02-.6a.21.21 0 0 0-.13-.13c-.06-.02-.33-.02-.59-.02z"/><path fill="currentColor" fill-rule="evenodd" d="M3.83 20.62c.32.13.64.13 1.17.13s.85 0 1.17-.13c.43-.18.77-.52.95-.95.13-.32.13-.64.13-1.17v-9c0-.53 0-.85-.13-1.17-.18-.44-.52-.77-.95-.95-.32-.13-.64-.13-1.17-.13s-.85 0-1.17.13c-.43.18-.77.52-.95.95-.13.32-.13.64-.13 1.17v9c0 .53 0 .85.13 1.17.18.44.52.77.95.95M5 8.75c.27 0 .54 0 .6.02s.11.07.13.13c.02.07.02.34.02.6v9c0 .26 0 .53-.02.59a.21.21 0 0 1-.13.13c-.14.04-1.07.04-1.2 0a.21.21 0 0 1-.13-.13c-.02-.07-.02-.34-.02-.6v-9c0-.26 0-.53.02-.59a.21.21 0 0 1 .13-.13c.07-.02.34-.02.6-.02m12.83 11.87c.32.13.64.13 1.17.13s.85 0 1.17-.13c.43-.18.77-.52.95-.95.13-.32.13-.64.13-1.17v-6c0-.53 0-.85-.13-1.17-.18-.44-.52-.77-.95-.95-.32-.13-.64-.13-1.17-.13s-.85 0-1.17.13c-.43.18-.77.52-.95.95-.13.32-.13.64-.13 1.17v6c0 .53 0 .85.13 1.17.18.44.52.77.95.95M19 11.75c.27 0 .54 0 .6.02s.11.07.13.13c.02.07.02.34.02.6v6c0 .26 0 .53-.02.59a.21.21 0 0 1-.13.13c-.14.04-1.07.04-1.2 0a.21.21 0 0 1-.13-.13c-.02-.07-.02-.34-.02-.6v-6c0-.26 0-.53.02-.59a.21.21 0 0 1 .13-.13c.07-.02.34-.02.6-.02" clip-rule="evenodd" opacity=".4"/></svg>