<svg xmlns="http://www.w3.org/2000/svg" fill="none" viewBox="0 0 24 24"><path fill="currentColor" fill-rule="evenodd" d="M10.493 7.258v5h10v.75c0 4.432-3.24 8.109-7.585 9.32l-.06.017c-.541.151-1.05.293-1.496.325-.525.037-1.009-.07-1.47-.421-.49-.372-.708-.862-.804-1.41-.074-.417-.084-.921-.086-1.484v-5.597H3.437v-.75c0-3.248 2.9-5.75 6.306-5.75zm8.461 6.5h-8.462v5.25c0 .759.003 1.23.063 1.572.052.295.13.396.234.474.13.1.24.135.456.12.278-.02.638-.117 1.26-.29 3.543-.989 6.111-3.798 6.45-7.126m-9.96-4.95c-2.062.283-3.626 1.713-3.98 3.45h3.98z" clip-rule="evenodd" opacity=".4"/><path fill="currentColor" fill-rule="evenodd" d="M11.286 1.33c.45.016.972.133 1.539.26l.058.014c4.488 1.01 8.09 4.15 9.351 8.226l.019.06.08.261c.131.43.244.84.278 1.211.048.527-.057 1.012-.403 1.48-.368.5-.858.727-1.41.827-.49.088-1.095.088-1.772.088h-8.534v7h-.75c-3.412 0-6.395-1.826-7.755-4.52l-.03-.062c-.22-.434-.446-.88-.534-1.313-.11-.536-.015-1.029.296-1.534.344-.56.826-.84 1.407-.965.496-.106 1.106-.106 1.769-.106h4.097V4.663c.001-.562.011-1.062.08-1.476.09-.538.294-1.027.764-1.403.449-.359.93-.472 1.45-.454M8.992 13.757H4.747c-.627.002-1.018.011-1.306.073-.251.054-.35.13-.445.284-.128.208-.13.316-.104.447.044.213.17.477.434 1 .99 1.963 3.11 3.42 5.666 3.661zM11.234 2.83c-.237-.008-.346.034-.46.126-.094.075-.171.175-.222.479-.051.307-.06.714-.06 1.332v7.491h8.472c.759 0 1.227-.003 1.566-.064.29-.053.39-.13.471-.24.104-.141.135-.251.116-.455-.024-.27-.128-.616-.316-1.225-1.084-3.506-4.224-6.3-8.248-7.206-.644-.145-1.027-.228-1.32-.238" clip-rule="evenodd"/></svg>