<svg xmlns="http://www.w3.org/2000/svg" fill="none" viewBox="0 0 24 24"><path fill="currentColor" d="M21 20.75H9c-3.03 0-4.55 0-5.65-1.1s-1.1-2.62-1.1-5.65V4c0-.41.34-.75.75-.75s.75.34.75.75v10c0 2.62 0 3.93.66 4.59s1.97.66 4.59.66h12c.41 0 .75.34.75.75s-.34.75-.75.75"/><path fill="currentColor" d="M6 14.75c-.19 0-.38-.07-.53-.22a.755.755 0 0 1 0-1.06l3.25-3.25c.72-.72 1.11-1.11 1.67-1.26.39-.12.82-.12 1.23 0 .55.15.94.54 1.66 1.26.48.48.83.83 1.01.88.15.04.28.04.41 0 .19-.05.54-.4 1.02-.88l3.75-3.75c.29-.29.77-.29 1.06 0s.29.77 0 1.06l-3.75 3.75c-.72.72-1.11 1.11-1.67 1.26-.39.12-.82.12-1.23 0-.55-.15-.94-.54-1.66-1.26-.48-.48-.83-.83-1.01-.88a.7.7 0 0 0-.41 0c-.19.05-.54.4-1.02.88l-3.25 3.25c-.15.15-.34.22-.53.22" opacity=".4"/></svg>