<svg xmlns="http://www.w3.org/2000/svg" fill="none" viewBox="0 0 24 24"><path fill="currentColor" fill-rule="evenodd" d="M6.614 2.926c-1.279.172-2.05.5-2.62 1.069-.569.57-.896 1.34-1.068 2.619-.174 1.3-.176 3.008-.176 5.386s.002 4.086.176 5.386c.172 1.279.5 2.05 1.069 2.62.57.569 1.34.896 2.619 1.068 1.3.174 3.008.176 5.386.176s4.086-.002 5.386-.176c1.279-.172 2.05-.5 2.62-1.069.569-.57.896-1.34 1.068-2.619.174-1.3.176-3.008.176-5.386a.75.75 0 0 1 1.5 0v.056c0 2.31 0 4.119-.19 5.53-.194 1.445-.6 2.585-1.494 3.48-.895.895-2.035 1.3-3.48 1.494-1.411.19-3.22.19-5.529.19h-.114c-2.308 0-4.118 0-5.53-.19-1.444-.194-2.584-.6-3.479-1.494-.895-.895-1.3-2.035-1.494-3.48-.19-1.411-.19-3.22-.19-5.529v-.114c0-2.309 0-4.118.19-5.53.194-1.444.6-2.584 1.494-3.479.895-.895 2.035-1.3 3.48-1.494 1.411-.19 3.22-.19 5.529-.19H12a.75.75 0 0 1 0 1.5c-2.378 0-4.086.002-5.386.176" clip-rule="evenodd"/><path fill="currentColor" fill-rule="evenodd" d="M16.75 2a.75.75 0 0 0-1.5 0v1.385a.75.75 0 1 0 1.5 0zm4.389 1.915a.75.75 0 1 0-1.062-1.06l-.977.979a.75.75 0 1 0 1.061 1.06zm-.521 3.335a.75.75 0 1 0 0 1.5H22a.75.75 0 0 0 0-1.5zm-8.766.008a.75.75 0 0 0 0 1.5h2.139c-3.923 4.073-9.116 4.694-11.144 4.456a.75.75 0 1 0-.174 1.49c2.377.278 8.032-.42 12.337-4.842v2.174a.75.75 0 0 0 1.5 0V8.711c0-.785-.625-1.453-1.436-1.453z" clip-rule="evenodd" opacity=".4"/></svg>