<svg xmlns="http://www.w3.org/2000/svg" fill="none" viewBox="0 0 24 24"><path fill="currentColor" fill-rule="evenodd" d="M3 2.25a.75.75 0 0 1 .75.75v11c0 1.671.002 2.849.121 3.74.117.87.334 1.355.684 1.705s.835.567 1.704.683c.892.12 2.07.122 3.741.122h11a.75.75 0 0 1 0 1.5H9.944c-1.602 0-2.881 0-3.884-.135-1.037-.14-1.89-.435-2.565-1.11s-.97-1.528-1.11-2.565c-.135-1.003-.135-2.282-.135-3.884V3A.75.75 0 0 1 3 2.25" clip-rule="evenodd"/><path fill="currentColor" fill-rule="evenodd" d="M6.25 6A.75.75 0 0 1 7 5.25c1.842 0 4.739.378 7.17 1.995 2.283 1.519 4.078 4.08 4.269 8.2l1.034-1.022a.75.75 0 1 1 1.054 1.066l-1.922 1.9c-.49.484-1.277.48-1.762-.008l-1.884-1.897a.75.75 0 1 1 1.065-1.056l.907.913c-.21-3.557-1.755-5.625-3.591-6.847C11.25 7.104 8.69 6.75 7 6.75A.75.75 0 0 1 6.25 6" clip-rule="evenodd" opacity=".4"/></svg>