<svg xmlns="http://www.w3.org/2000/svg" fill="none" viewBox="0 0 24 24"><path fill="currentColor" fill-rule="evenodd" d="M12.75 5.621a2.255 2.255 0 0 0 1.5-2.121c0-1.24-1.01-2.25-2.25-2.25S9.75 2.26 9.75 3.5c0 .977.627 1.812 1.5 2.121V8c0 .41.34.75.75.75s.75-.34.75-.75zM12 4.25c-.41 0-.75-.34-.75-.75s.34-.75.75-.75.75.34.75.75-.34.75-.75.75m3 9.5c-.41 0-.75-.34-.75-.75v-1c0-.41.34-.75.75-.75s.75.34.75.75v1c0 .41-.34.75-.75.75m-6 0c-.41 0-.75-.34-.75-.75v-1c0-.41.34-.75.75-.75s.75.34.75.75v1c0 .41-.34.75-.75.75m.55 3.35c.09.07.91.65 2.45.65h-.01c1.54 0 2.36-.58 2.45-.65.33-.24.4-.7.16-1.03a.75.75 0 0 0-1.04-.18c-.02.02-.55.36-1.56.36s-1.52-.33-1.56-.36a.75.75 0 0 0-.89 1.21" clip-rule="evenodd" opacity=".4"/><path fill="currentColor" fill-rule="evenodd" d="M18.65 8.35c.602.601.874 1.358.998 2.4.938 0 1.477.015 1.972.3.34.2.63.48.83.83.3.52.3 1.09.3 2.12s0 1.6-.3 2.12c-.19.34-.48.63-.83.83-.495.285-1.035.3-1.972.3-.124 1.042-.396 1.799-.998 2.4-1.021 1.021-2.405 1.094-5.023 1.1H12.48c-.44.76-1.61 2-4.48 2a.74.74 0 0 1-.69-.46c-.11-.28-.05-.6.16-.82.12-.12.38-.44.57-.79-1.17-.1-2.02-.36-2.69-1.03-.602-.602-.875-1.357-.998-2.4-.938 0-1.477-.015-1.972-.3-.34-.2-.63-.48-.83-.83-.277-.48-.298-1.003-.3-1.89V14c0-1.03 0-1.6.3-2.12.19-.34.48-.63.83-.83.495-.285 1.034-.3 1.972-.3.123-1.043.396-1.798.998-2.4 1.06-1.06 2.512-1.099 5.33-1.1H13c3.03 0 4.55 0 5.65 1.1m1.088 3.9c.012.526.012 1.106.012 1.75s0 1.224-.012 1.75c.588-.001.983-.011 1.142-.1a.7.7 0 0 0 .27-.27c.1-.18.1-.66.1-1.38v-.21c-.001-.603-.01-1.008-.1-1.17a.7.7 0 0 0-.27-.27c-.16-.088-.554-.099-1.142-.1m-15.476 0c-.588.001-.983.011-1.142.1a.7.7 0 0 0-.27.27c-.1.18-.1.66-.1 1.38s0 1.2.1 1.38a.7.7 0 0 0 .27.27c.16.088.554.099 1.142.1-.012-.525-.012-1.106-.012-1.75s0-1.225.012-1.75M11 8.75c-2.62 0-3.93 0-4.59.66s-.66 1.97-.66 4.59 0 3.93.66 4.59c.43.43 1.11.6 2.61.64.41.01.73.34.73.75s-.1.76-.24 1.1c1.436-.354 1.736-1.176 1.767-1.263l.003-.007a.75.75 0 0 1 .73-.57h1c2.62 0 3.93 0 4.59-.66s.66-1.97.66-4.59 0-3.93-.66-4.59-1.97-.66-4.59-.66h-2z" clip-rule="evenodd"/></svg>