<svg xmlns="http://www.w3.org/2000/svg" fill="none" viewBox="0 0 24 24"><path fill="currentColor" d="M12 22.25c-4.68 0-7.029 0-8.639-1.611S1.75 16.679 1.75 12s0-7.029 1.611-8.639S7.321 1.75 12 1.75s7.029 0 8.639 1.611S22.25 7.321 22.25 12s0 7.029-1.611 8.639S16.679 22.25 12 22.25m0-19c-4.266 0-6.407 0-7.579 1.171S3.25 7.734 3.25 12s0 6.407 1.171 7.579S7.734 20.75 12 20.75s6.407 0 7.579-1.171S20.75 16.266 20.75 12s0-6.407-1.171-7.579S16.266 3.25 12 3.25"/><path fill="currentColor" d="M10.399 16.75a.75.75 0 0 1-.643-.365c-.686-1.146-2.115-1.976-2.13-1.984a.75.75 0 0 1 .745-1.302 9.2 9.2 0 0 1 1.894 1.506c.914-1.694 2.89-4.904 5.375-6.263a.75.75 0 0 1 .72 1.316c-2.941 1.608-5.255 6.604-5.278 6.654a.75.75 0 0 1-.641.437z" opacity=".4"/></svg>