<svg xmlns="http://www.w3.org/2000/svg" fill="none" viewBox="0 0 24 24"><path fill="currentColor" fill-rule="evenodd" d="M8.302 17.613a8.7 8.7 0 0 0 3.448.707 8.7 8.7 0 0 0 3.448-.708l.022.02c1.13 1 1.78 2.44 1.78 3.94 0 .41.34.75.75.75s.75-.34.75-.75a6.77 6.77 0 0 0-1.916-4.71 8.74 8.74 0 0 0 3.756-5.622c.96-.26 1.66-1.13 1.66-2.17 0-1.14-.84-2.07-1.93-2.23A8.76 8.76 0 0 0 11.75.82c-3.8 0-7.13 2.44-8.31 6h-.19C2.01 6.82 1 7.85 1 9.07s.96 2.21 2.17 2.25a8.75 8.75 0 0 0 3.744 5.542A6.76 6.76 0 0 0 5 21.572c0 .41.34.75.75.75s.75-.34.75-.75a5.27 5.27 0 0 1 1.802-3.96M5.75 8.32a6.76 6.76 0 0 0 6-3.66 6.76 6.76 0 0 0 6 3.66h1.5a1 1 0 0 0 .124-.01 1 1 0 0 0 .126.01h.25c.41 0 .75.34.75.75s-.34.75-.81.75c-.37 0-.69.28-.74.66-.45 3.61-3.54 6.34-7.2 6.34S5 14.1 4.55 10.48a.74.74 0 0 0-.74-.66h-.56c-.41 0-.75-.34-.75-.75s.34-.75.75-.75H4a1 1 0 0 0 .127-.01q.06.01.123.01zm12-1.5h.707a7.25 7.25 0 0 0-5.897-4.455c.386 2.516 2.57 4.455 5.19 4.455m-6.81-4.455C10.554 4.881 8.37 6.82 5.75 6.82h-.71a7.25 7.25 0 0 1 5.9-4.455" clip-rule="evenodd"/><path fill="currentColor" fill-rule="evenodd" d="M8.75 10.578c-.55 0-1-.45-1-1s.45-1 1-1 1 .44 1 1-.45 1.01-1 1.01zm3 4.742c-.96 0-1.75-.79-1.75-1.75 0-.41.34-.75.75-.75h2c.41 0 .75.34.75.75 0 .96-.79 1.75-1.75 1.75m2-5.742c0 .55.45 1 1 1v.01c.55 0 1-.45 1-1.01s-.45-1-1-1-1 .45-1 1" clip-rule="evenodd" opacity=".4"/></svg>