<svg xmlns="http://www.w3.org/2000/svg" fill="none" viewBox="0 0 24 24"><path fill="currentColor" fill-rule="evenodd" d="M13.175 4.593c.703-.703 1.177-1.175 1.579-1.481.383-.293.61-.362.808-.362.197 0 .424.069.808.362.4.306.875.778 1.578 1.48l1.458 1.46c.703.702 1.175 1.176 1.481 1.577.293.384.362.611.362.808s-.069.425-.362.809c-.306.4-.778.875-1.48 1.578L16.4 13.829l-6.23-6.231zm-4.1 1.978 3.077-3.076c.656-.656 1.2-1.201 1.692-1.576.517-.394 1.06-.669 1.718-.669s1.2.275 1.718.67c.49.374 1.036.92 1.692 1.575l1.532 1.532c.656.656 1.201 1.202 1.576 1.692.394.518.67 1.061.67 1.718 0 .658-.276 1.201-.67 1.719-.375.49-.92 1.036-1.576 1.691l-3.076 3.076a1.68 1.68 0 0 1 .32 1.105c-.016.3-.118.552-.238.776-.11.205-.263.435-.43.685l-.133.2c-.348.521-.642.962-.905 1.28-.262.314-.604.649-1.087.746-.398.08-.81.024-1.173-.158a1.5 1.5 0 0 1-.427-.325l-1.093 1.143-.043.043c-.683.684-1.25 1.25-1.758 1.637-.535.409-1.094.69-1.768.69s-1.233-.281-1.768-.69c-.509-.388-1.074-.953-1.758-1.637l-1.59-1.59c-.683-.683-1.25-1.25-1.637-1.758-.408-.535-.69-1.094-.69-1.768s.282-1.233.69-1.768c.388-.509.954-1.075 1.637-1.758l.037-.037.006-.006 1.143-1.093a1.5 1.5 0 0 1-.32-.422 1.82 1.82 0 0 1-.158-1.173c.097-.483.432-.825.746-1.086.318-.264.759-.558 1.28-.906l.035-.023.14-.093.025-.017c.25-.167.48-.32.685-.43.224-.12.477-.222.776-.238q.277-.014.546.055c.216.055.398.152.558.264m3.318 10.508q.131.394.247.73l-1.45 1.517c-.727.727-1.22 1.218-1.639 1.537-.401.306-.644.382-.858.382s-.457-.076-.858-.382c-.42-.32-.914-.813-1.644-1.542l-1.516-1.517c-.73-.73-1.223-1.225-1.543-1.644-.306-.401-.382-.644-.382-.858s.076-.457.382-.858c.32-.418.81-.912 1.537-1.638l1.515-1.449q.338.119.737.25l.04.013c.461.154.498.179.52.196a.3.3 0 0 1 .066.075c.014.023.035.063.13.54l.27 1.35.007.034c.062.311.12.6.195.839.083.264.206.53.437.76.23.23.496.354.76.437.238.075.528.133.84.195l1.383.277c.476.096.517.116.54.13a.3.3 0 0 1 .075.067c.017.02.042.058.196.52zM8.147 7.76a.3.3 0 0 0-.096-.01q.001-.002-.026.007a1 1 0 0 0-.12.055 8 8 0 0 0-.587.373l-.14.093c-.566.377-.94.627-1.188.834-.178.148-.226.222-.236.239a.3.3 0 0 0 .025.185c.014.014.08.073.29.169.295.134.72.277 1.366.492l.079.026c.323.107.657.217.923.438q.22.183.375.424c.186.292.254.637.32.97l.016.082.27 1.35c.071.356.114.564.161.715a1 1 0 0 0 .05.126l.017.026.026.017c.02.011.057.028.126.05.15.047.359.09.715.161l1.35.27.081.016c.334.066.679.134.97.32q.242.154.425.375c.22.266.331.6.438.923l.026.079c.215.645.358 1.071.492 1.365.096.211.155.277.168.291a.3.3 0 0 0 .186.025c.017-.01.091-.058.239-.236.207-.249.457-.622.834-1.188l.093-.14a8 8 0 0 0 .373-.586 1 1 0 0 0 .055-.121q.009-.028.007-.026a.3.3 0 0 0-.01-.096q.002 0-.011-.024a1 1 0 0 0-.078-.108 8 8 0 0 0-.48-.502l-6.89-6.89a8 8 0 0 0-.502-.48 1 1 0 0 0-.108-.078q-.025-.013-.024-.011" clip-rule="evenodd"/><path fill="currentColor" fill-rule="evenodd" d="m14.939 8-3.47-3.47 1.06-1.061L16 6.939l3.07-3.07 1.06 1.06L17.06 8l3.47 3.47-1.06 1.06L16 9.06l-3.07 3.07-1.06-1.06z" clip-rule="evenodd" opacity=".4"/></svg>