<svg xmlns="http://www.w3.org/2000/svg" fill="none" viewBox="0 0 24 24"><path fill="currentColor" fill-rule="evenodd" d="M1.25 12C1.25 6.06 6.063 1.25 12 1.25S22.75 6.06 22.75 12 17.937 22.75 12 22.75 1.25 17.94 1.25 12M12 2.75A9.25 9.25 0 0 0 2.75 12c0 5.11 4.141 9.25 9.25 9.25s9.25-4.14 9.25-9.25S17.109 2.75 12 2.75M7.25 12c0-2.62 2.127-4.75 4.75-4.75s4.75 2.13 4.75 4.75-2.127 4.75-4.75 4.75A4.75 4.75 0 0 1 7.25 12M12 8.75A3.253 3.253 0 0 0 8.75 12c0 1.79 1.455 3.25 3.25 3.25s3.25-1.46 3.25-3.25S13.795 8.75 12 8.75" clip-rule="evenodd"/><path fill="currentColor" fill-rule="evenodd" d="M3.668 5.35a.74.74 0 0 1 1.02.28l4.502 8c.203.36.075.82-.286 1.02a.74.74 0 0 1-1.021-.28l-4.501-8a.75.75 0 0 1 .286-1.02m12.185 7.991a.743.743 0 0 0-1.015.31l-4 7.5a.745.745 0 0 0 .31 1.01c.365.2.82.06 1.014-.31l4-7.5a.744.744 0 0 0-.309-1.01M12 7.25c-.414 0-.75.34-.75.75s.336.75.75.75h9c.414 0 .75-.34.75-.75s-.336-.75-.75-.75z" clip-rule="evenodd" opacity=".4"/></svg>