<svg xmlns="http://www.w3.org/2000/svg" fill="none" viewBox="0 0 24 24"><path fill="currentColor" fill-rule="evenodd" d="M2.75 14.999c0-4.294 3.547-7.749 7.89-7.749a7.92 7.92 0 0 1 6.471 3.315.75.75 0 0 1-1.222.87 6.42 6.42 0 0 0-5.25-2.685c-3.542 0-6.389 2.812-6.389 6.249 0 3.401 2.809 6.336 6.407 6.25a.75.75 0 0 1 .036 1.499c-4.471.108-7.943-3.536-7.943-7.749" clip-rule="evenodd"/><path fill="currentColor" fill-rule="evenodd" d="M10.5 1.25A5.25 5.25 0 0 0 5.25 6.5v3a.75.75 0 0 0 1.5 0v-3a3.75 3.75 0 1 1 7.5 0V9a.75.75 0 0 0 1.5 0V6.5c0-2.9-2.35-5.25-5.25-5.25M17.25 14a.75.75 0 0 0-1.5 0v3.25H12.5a.75.75 0 0 0 0 1.5h3.25V22a.75.75 0 0 0 1.5 0v-3.25h3.25a.75.75 0 0 0 0-1.5h-3.25z" clip-rule="evenodd" opacity=".4"/></svg>