<svg xmlns="http://www.w3.org/2000/svg" fill="none" viewBox="0 0 24 24"><path fill="currentColor" fill-rule="evenodd" d="M12 2.75a9.25 9.25 0 1 0 0 18.5 9.25 9.25 0 0 0 0-18.5M1.25 12C1.25 6.063 6.063 1.25 12 1.25S22.75 6.063 22.75 12 17.937 22.75 12 22.75 1.25 17.937 1.25 12" clip-rule="evenodd"/><path fill="currentColor" fill-rule="evenodd" d="M10.598 8.43a.75.75 0 1 1 .974 1.14v.001l-.005.004-.02.017a27 27 0 0 0-.362.321c-.237.214-.55.506-.86.819-.314.316-.61.64-.824.92q-.16.211-.224.338l-.005.01.005.01q.065.126.224.338c.213.28.51.604.824.92a23 23 0 0 0 1.143 1.072l.079.068.02.017.004.004.001.001a.75.75 0 0 1-.974 1.14h-.001v-.001a27 27 0 0 1-.42-.37 24 24 0 0 1-.917-.874 11 11 0 0 1-.953-1.068 4 4 0 0 1-.361-.555c-.09-.173-.196-.423-.196-.702 0-.28.106-.53.196-.702.098-.188.226-.377.361-.555.272-.356.621-.733.953-1.068a24 24 0 0 1 1.305-1.217l.024-.02.006-.006zm4.415 0a.75.75 0 1 1 .974 1.14v.001l-.005.004-.02.017a13 13 0 0 0-.362.321c-.236.214-.55.506-.86.819a10 10 0 0 0-.824.92q-.16.211-.224.338l-.005.01.005.01q.065.126.224.338c.213.28.51.604.824.92a23 23 0 0 0 1.222 1.14l.02.017.004.004.001.001a.75.75 0 0 1-.974 1.14h-.001v-.001a25 25 0 0 1-.42-.37 24 24 0 0 1-.917-.874 11 11 0 0 1-.953-1.068 4 4 0 0 1-.361-.555c-.09-.173-.196-.423-.196-.702 0-.28.107-.53.196-.702a4 4 0 0 1 .361-.555c.272-.356.621-.733.953-1.068a24 24 0 0 1 1.305-1.217l.024-.02.006-.006z" clip-rule="evenodd" opacity=".4"/></svg>