<svg xmlns="http://www.w3.org/2000/svg" fill="none" viewBox="0 0 24 24"><path fill="currentColor" fill-rule="evenodd" d="M17.467 7.877a.477.477 0 0 0-.65 0l-4.768 4.596a.75.75 0 0 1-1.27-.542l.003-1.762c0-.296-.278-.583-.662-.54a.58.58 0 0 0-.524.466l-.562 4.442c-.134 1.06-.793 2.15-1.514 2.844a.75.75 0 1 1-1.04-1.08c.538-.52.985-1.31 1.066-1.952l.563-4.452.002-.018c.141-.94.915-1.64 1.847-1.742 1.209-.131 2.322.78 2.324 2.028l3.494-3.368a1.977 1.977 0 0 1 2.732 0q.21.204.344.447a1.98 1.98 0 0 1 2.192.368c.689.664.763 1.707.223 2.453q.181.11.34.262a1.87 1.87 0 0 1 .223 2.453q.181.11.34.262a1.873 1.873 0 0 1 0 2.71L18.696 19.1l-.125.12c-1.104 1.065-1.809 1.745-2.61 2.09-.526.226-1.297.3-1.775.331a1.04 1.04 0 0 0-.656.267l-.657.632a.75.75 0 0 1-1.04-1.08l.656-.633a2.53 2.53 0 0 1 1.602-.683c.5-.031 1.02-.102 1.277-.212.517-.222 1.014-.685 2.287-1.912l3.474-3.348a.373.373 0 0 0 0-.55.477.477 0 0 0-.649 0l-2.535 2.444a.75.75 0 1 1-1.041-1.08l2.535-2.444h.001l1.126-1.086a.373.373 0 0 0 0-.55.477.477 0 0 0-.65 0l-3.098 2.988a.75.75 0 1 1-1.041-1.08l4.226-4.073a.373.373 0 0 0 0-.55.477.477 0 0 0-.65 0l-.844.815-2.818 2.716a.75.75 0 0 1-1.041-1.08l2.817-2.716a.373.373 0 0 0 0-.549" clip-rule="evenodd"/><path fill="currentColor" fill-rule="evenodd" d="M12.243 2.895 7.26 7.799a.75.75 0 0 1-1.276-.536l.004-1.883a.644.644 0 0 0-.728-.626.65.65 0 0 0-.578.538l-.588 4.742c-.138 1.114-.818 2.264-1.567 3a.75.75 0 1 1-1.052-1.069c.567-.558 1.043-1.412 1.13-2.115l.59-4.752.001-.017c.143-.97.93-1.711 1.9-1.818 1.264-.14 2.394.833 2.392 2.12v.088l3.704-3.646a2.014 2.014 0 0 1 3.185.492 2.02 2.02 0 0 1 2.284.377c.392.385.59.894.59 1.403a.75.75 0 0 1-1.5 0c0-.12-.046-.24-.142-.334a.514.514 0 0 0-.715 0l-3.367 3.313a.75.75 0 0 1-1.052-1.07l2.484-2.443a.465.465 0 0 0 0-.668.514.514 0 0 0-.715 0" clip-rule="evenodd" opacity=".4"/></svg>