<svg xmlns="http://www.w3.org/2000/svg" fill="none" viewBox="0 0 24 24"><path fill="currentColor" fill-rule="evenodd" d="M9.192 3.709c.936-.654 1.885-.959 2.808-.959s1.872.305 2.808.959c.386.269.451.508.441.753-.014.331-.18.757-.486 1.32-.119.22-.247.44-.382.67l-.1.173a15 15 0 0 0-.493.903c-.292.59-.567 1.313-.468 2.051.156 1.158.446 3.777.698 6.118.126 1.169.242 2.264.327 3.067l.055.524c-.921.177-1.613.952-1.799 1.882l-.018.08h-1.166l-.018-.08c-.186-.93-.878-1.705-1.798-1.882a1299 1299 0 0 1 .381-3.59c.253-2.342.543-4.96.698-6.119.1-.738-.175-1.46-.467-2.051a16 16 0 0 0-.494-.903l-.1-.173c-.135-.23-.263-.45-.382-.67-.305-.563-.472-.99-.486-1.32-.01-.245.055-.484.44-.753m-1.13 15.874.002-.017a1283 1283 0 0 1 .427-4.03c.252-2.333.544-4.975.703-6.157.036-.27-.06-.647-.326-1.188-.128-.258-.28-.527-.446-.813l-.094-.162a27 27 0 0 1-.41-.719c-.312-.577-.636-1.268-.666-1.971-.034-.79.302-1.503 1.08-2.047C9.487 1.674 10.73 1.249 12 1.25s2.514.424 3.667 1.229c.779.544 1.114 1.257 1.08 2.047-.03.703-.352 1.394-.665 1.971-.131.242-.274.486-.41.72l-.093.16c-.167.287-.319.556-.446.814-.267.541-.362.918-.326 1.188.159 1.182.451 3.824.702 6.158a1345 1345 0 0 1 .428 4.029l.002.017c.542.346.928.928 1.06 1.587l.018.08H20a.75.75 0 0 1 0 1.5h-3.144c-.456 0-.8-.224-1.015-.517a1.95 1.95 0 0 1-.313-.769c-.096-.48-.442-.714-.728-.714s-.632.235-.728.714a1.95 1.95 0 0 1-.313.769 1.23 1.23 0 0 1-1.015.517h-1.488c-.456 0-.8-.224-1.015-.517a1.95 1.95 0 0 1-.313-.769c-.096-.48-.442-.714-.728-.714s-.632.235-.728.714a1.95 1.95 0 0 1-.313.769 1.23 1.23 0 0 1-1.015.517H4a.75.75 0 0 1 0-1.5h2.983L7 21.17a2.45 2.45 0 0 1 1.06-1.587" clip-rule="evenodd"/><path fill="currentColor" fill-rule="evenodd" d="M8.363 10.25h7.274c1.373 0 2.488 0 3.347.127.894.132 1.659.421 2.195 1.117.533.691.627 1.51.545 2.422-.079.882-.337 1.99-.658 3.36l-.013.058-.007.027-1.323 4.837-1.447-.396 1.32-4.823c.334-1.435.566-2.435.634-3.197.067-.746-.04-1.113-.24-1.373-.197-.256-.511-.443-1.225-.548-.737-.11-1.74-.111-3.19-.111h-7.15c-1.45 0-2.453.002-3.19.11-.714.107-1.028.293-1.226.55-.2.259-.306.626-.24 1.372.069.762.3 1.762.636 3.197l1.318 4.823-1.447.396-1.322-4.837-.007-.027-.013-.058c-.32-1.37-.58-2.478-.658-3.36-.082-.912.012-1.73.545-2.422.536-.696 1.3-.985 2.195-1.117.86-.127 1.974-.127 3.347-.127" clip-rule="evenodd" opacity=".4"/></svg>