<svg xmlns="http://www.w3.org/2000/svg" fill="none" viewBox="0 0 24 24"><path fill="currentColor" fill-rule="evenodd" d="M14.616 18.25c-.431 0-.83.135-1.162.362l-.013.009-.012.009c-.977.728-2.821 1.681-4.901 1.926a.75.75 0 0 0 .175 1.49c2.38-.28 4.459-1.35 5.608-2.203a.55.55 0 0 1 .305-.093c.295 0 .634.278.634.75s-.34.75-.634.75a.5.5 0 0 1-.194-.036.75.75 0 1 0-.536 1.4q.344.134.73.136c1.234 0 2.134-1.065 2.134-2.25s-.9-2.25-2.134-2.25M4.337 19.878a.75.75 0 0 0-.674 1.34 8.3 8.3 0 0 0 2.029.71A.75.75 0 1 0 6 20.46a6.8 6.8 0 0 1-1.664-.582M19 20.25a.75.75 0 0 0 0 1.5h2a.75.75 0 0 0 0-1.5z" clip-rule="evenodd" opacity=".4"/><path fill="currentColor" fill-rule="evenodd" d="M5.84 7.287C6.382 4.503 8.886 2.25 12 2.25c3.368 0 6.126 2.667 6.247 5.953 2.524.353 4.392 2.467 4.5 4.914l.001.014c.092 3.575-3.016 5.437-5.265 5.367a.75.75 0 1 1 .047-1.5c1.588.05 3.779-1.302 3.719-3.822-.08-1.701-1.368-3.19-3.131-3.475-.19.93-.585 1.795-1.314 2.644a.75.75 0 0 1-1.138-.978c.692-.805.976-1.595 1.066-2.536q.018-.2.019-.404c0-2.546-2.122-4.677-4.75-4.677a4.79 4.79 0 0 0-4.596 3.44c1.106.068 2.14.41 3.062 1.12a.75.75 0 1 1-.915 1.188c-.737-.568-1.583-.82-2.57-.82q-.208 0-.411.018c-2.142.194-3.714 1.951-3.819 4.01-.06 1.89 1.24 3.283 3.041 3.994 1.689.636 3.315.675 4.634.345 1.318-.33 2.273-1.012 2.733-1.772.267-.599-.08-1.498-.944-1.667l-.037-.008c-.204-.051-.561-.016-.875.187-.28.183-.529.503-.558 1.056a.75.75 0 0 1-1.498-.078c.055-1.049.569-1.8 1.239-2.235.63-.41 1.403-.542 2.036-.39 1.87.378 2.67 2.374 1.976 3.812l-.029.054c-.71 1.208-2.068 2.092-3.679 2.496-1.624.407-3.564.344-5.532-.398l-.01-.004c-2.153-.849-4.088-2.693-3.996-5.448v-.012c.129-2.577 1.972-4.837 4.588-5.35" clip-rule="evenodd"/></svg>