<svg xmlns="http://www.w3.org/2000/svg" fill="none" viewBox="0 0 24 24"><path fill="currentColor" fill-rule="evenodd" d="M2.841 6.642a.75.75 0 0 1 1.017-.301L12 10.76l8.142-4.42a.75.75 0 1 1 .716 1.318l-8.108 4.403V22a.75.75 0 1 1-1.5 0v-9.938L3.142 7.659a.75.75 0 0 1-.301-1.017" clip-rule="evenodd" opacity=".4"/><path fill="currentColor" fill-rule="evenodd" d="M21.75 12.014v3.799c0 .292 0 .564-.023.794a1.84 1.84 0 0 1-.236.774 1.9 1.9 0 0 1-.561.582c-.191.134-.43.269-.689.415l-6.744 3.812a9 9 0 0 1-.71.376c-.236.105-.491.184-.787.184s-.55-.08-.786-.184a9 9 0 0 1-.711-.376l-6.744-3.812a9 9 0 0 1-.688-.415 1.9 1.9 0 0 1-.562-.582 1.84 1.84 0 0 1-.236-.774c-.023-.23-.023-.502-.023-.794V8.187c0-.292 0-.564.023-.794a1.84 1.84 0 0 1 .236-.774 1.9 1.9 0 0 1 .562-.582c.19-.134.43-.269.688-.415l6.744-3.812c.259-.146.498-.282.711-.376.236-.105.49-.184.786-.184s.55.08.786.184c.214.094.452.23.712.376l6.743 3.812c.259.146.498.281.689.415.21.147.41.326.561.582.152.257.21.519.236.774.023.23.023.502.023.794zM11.215 3.131c.294-.167.469-.264.607-.326.124-.055.164-.055.178-.055s.055 0 .178.055c.139.061.313.16.608.326l1.586.896-1.595.863c-.289.157-.46.249-.597.306a.5.5 0 0 1-.18.053.5.5 0 0 1-.18-.053 8 8 0 0 1-.597-.306l-1.595-.863zM8.089 4.897 4.524 6.913a8 8 0 0 0-.592.352c-.108.076-.127.108-.13.115l-.001.002c-.004.006-.023.037-.035.162a8 8 0 0 0-.016.674v3.334l2.528 1.361c.245.132.478.257.664.385.21.144.41.322.56.582.147.257.202.519.226.772.022.231.022.505.022.803v3.456l3.464 1.958a8 8 0 0 0 .608.326c.124.055.164.055.178.055s.055 0 .178-.055c.139-.061.313-.16.608-.326l3.464-1.958v-3.456c0-.298 0-.572.022-.803.025-.253.08-.515.227-.772.149-.26.349-.438.559-.582.187-.128.42-.253.664-.385l2.528-1.36V8.217c0-.333 0-.529-.015-.674-.013-.125-.031-.156-.035-.162V7.38c-.005-.007-.024-.04-.132-.115a8 8 0 0 0-.592-.352l-3.565-2.016-.054.032-2.392 1.294a9 9 0 0 1-.698.354c-.232.098-.48.172-.767.172s-.535-.074-.766-.172c-.21-.089-.444-.216-.699-.354L8.143 4.93zm12.161 8.359-1.789.963c-.283.152-.443.24-.555.317-.094.064-.105.089-.106.09-.003.006-.022.038-.035.17-.014.15-.015.351-.015.69v2.577l1.726-.976c.295-.166.469-.265.592-.352.108-.076.127-.108.131-.116.005-.007.023-.038.036-.163a8 8 0 0 0 .015-.674zm-14.711.963-1.789-.963v2.526c0 .334.001.529.016.674.012.125.03.156.035.163.004.008.023.04.131.116.124.087.297.186.592.352l1.726.976v-2.578c0-.338 0-.539-.015-.69a.5.5 0 0 0-.034-.168c-.001-.002-.013-.027-.107-.091a7 7 0 0 0-.555-.317" clip-rule="evenodd"/></svg>