<svg xmlns="http://www.w3.org/2000/svg" fill="none" viewBox="0 0 24 24"><path fill="currentColor" fill-rule="evenodd" d="M14 2.75a7.25 7.25 0 1 0 0 14.5 7.25 7.25 0 0 0 0-14.5M5.25 10a8.75 8.75 0 1 1 17.5 0 8.75 8.75 0 0 1-17.5 0" clip-rule="evenodd"/><path fill="currentColor" fill-rule="evenodd" d="M16.742 7.76a2.45 2.45 0 0 0-.904-1.556c-.519-.402-1.216-.578-1.973-.359-.848.246-1.383.96-1.631 1.669-.205.586-.255 1.277-.066 1.903H12a.75.75 0 1 0 0 1.5h.706q.015.093.021.187c.03.41-.041.884-.327 1.492l-.01.023c-.055.117-.119.252-.16.369a1 1 0 0 0-.002.714.88.88 0 0 0 .68.526c.13.023.28.022.368.022H16a.75.75 0 0 0 0-1.5h-2.04a4.2 4.2 0 0 0 .257-1.833H15.5a.75.75 0 1 0 0-1.5h-1.704a8 8 0 0 0-.133-.28c-.138-.28-.159-.713-.013-1.128.146-.416.398-.655.633-.723.278-.08.481-.017.636.103.174.135.304.36.34.596a.75.75 0 0 0 1.483-.224m-3.097 5.726.001-.002zm-9.86-2.075a.75.75 0 0 0-1.256-.822 7.861 7.861 0 0 0 10.882 10.882.75.75 0 0 0-.822-1.255 6.361 6.361 0 0 1-8.805-8.805" clip-rule="evenodd" opacity=".4"/></svg>