<svg xmlns="http://www.w3.org/2000/svg" fill="none" viewBox="0 0 24 24"><path fill="currentColor" fill-rule="evenodd" d="M5.25 10a8.75 8.75 0 1 1 17.5 0 8.75 8.75 0 0 1-17.5 0M14 2.75a7.25 7.25 0 1 0 0 14.5 7.25 7.25 0 0 0 0-14.5" clip-rule="evenodd"/><path fill="currentColor" fill-rule="evenodd" d="M14.734 6a.75.75 0 0 0-1.5 0v.24a3 3 0 0 0-.42.162c-.911.425-1.492 1.344-1.442 2.276.026.48.222.952.613 1.318.387.361.914.573 1.536.639a6 6 0 0 0 .688.036h.044c.181.004.307.006.422.017.2.02.291.06.405.182.085.092.21.398.158.75-.044.292-.197.54-.573.658a2 2 0 0 1-.67.1c-.22 0-.505-.06-.706-.15-.377-.168-.524-.404-.548-.56a.75.75 0 0 0-1.482.228c.124.81.734 1.397 1.42 1.703q.264.117.555.187V14a.75.75 0 0 0 1.5 0v-.193q.192-.038.383-.098c1.002-.317 1.488-1.095 1.604-1.866.107-.711-.088-1.504-.541-1.993-.426-.459-.897-.608-1.353-.654a6 6 0 0 0-.539-.024l-.054-.001-.244-.006a5 5 0 0 1-.312-.022c-.378-.04-.574-.154-.669-.243a.43.43 0 0 1-.14-.303c-.014-.265.17-.645.58-.836a1.4 1.4 0 0 1 .539-.14c.567-.024.96.37 1.051.753a.75.75 0 0 0 1.46-.346c-.194-.817-.862-1.558-1.765-1.816zm-10.95 5.41a.75.75 0 0 0-1.255-.82 7.861 7.861 0 0 0 10.882 10.882.75.75 0 1 0-.822-1.256 6.361 6.361 0 0 1-8.805-8.805" clip-rule="evenodd" opacity=".4"/></svg>