<svg xmlns="http://www.w3.org/2000/svg" fill="none" viewBox="0 0 24 24"><path fill="currentColor" fill-rule="evenodd" d="M18 2.25A3.75 3.75 0 0 0 14.25 6v3c0 .414.336.75.75.75h3a3.75 3.75 0 1 0 0-7.5M15.75 6A2.25 2.25 0 1 1 18 8.25h-2.25zm-12 12A2.25 2.25 0 0 1 6 15.75h2.25V18a2.25 2.25 0 0 1-4.5 0M6 14.25A3.75 3.75 0 1 0 9.75 18v-3a.75.75 0 0 0-.75-.75z" clip-rule="evenodd" opacity=".4"/><path fill="currentColor" fill-rule="evenodd" d="M6 2.25a3.75 3.75 0 1 0 0 7.5h2.25V15c0 .414.336.75.75.75h5.25V18A3.75 3.75 0 1 0 18 14.25h-2.25V9a.75.75 0 0 0-.75-.75H9.75V6A3.75 3.75 0 0 0 6 2.25M3.75 6a2.25 2.25 0 0 1 4.5 0v2.25H6A2.25 2.25 0 0 1 3.75 6m6 3.75v4.5h4.5v-4.5zm6 6V18A2.25 2.25 0 1 0 18 15.75z" clip-rule="evenodd"/></svg>