<svg xmlns="http://www.w3.org/2000/svg" fill="none" viewBox="0 0 24 24"><path fill="currentColor" fill-rule="evenodd" d="M12.75 6a.75.75 0 0 0-1.5 0v.334a2.95 2.95 0 0 0-1.114.505c-.504.378-.886.958-.886 1.661s.382 1.283.886 1.66c.504.379 1.165.59 1.864.59.406 0 .744.124.964.29.22.164.286.335.286.46s-.066.296-.286.46c-.22.166-.558.29-.964.29-.668 0-1.09-.321-1.208-.57a.75.75 0 0 0-1.357.64c.33.7 1.026 1.165 1.815 1.345V14a.75.75 0 0 0 1.5 0v-.334a2.95 2.95 0 0 0 1.114-.505c.504-.378.886-.958.886-1.661s-.382-1.283-.886-1.66C13.36 9.461 12.7 9.25 12 9.25c-.406 0-.744-.124-.964-.29-.22-.164-.286-.335-.286-.46s.066-.296.286-.46c.22-.166.558-.29.964-.29.668 0 1.09.321 1.208.57a.75.75 0 0 0 1.357-.64c-.33-.7-1.026-1.165-1.815-1.345zM9.989 17.298a.75.75 0 0 0-.438.967c.368.976.208 2.145-.335 2.865l-.315.419a.75.75 0 1 0 1.198.902l.316-.418c.88-1.169 1.072-2.885.54-4.297a.75.75 0 0 0-.966-.438m4.022 0a.75.75 0 0 1 .438.967c-.368.976-.208 2.145.335 2.865l.315.419a.75.75 0 0 1-1.198.902l-.316-.418c-.88-1.169-1.072-2.885-.54-4.297a.75.75 0 0 1 .966-.438" clip-rule="evenodd" opacity=".4"/><path fill="currentColor" fill-rule="evenodd" d="M14.044 1.25H9.956c-1.602 0-2.865 0-3.869.106-1.027.108-1.87.334-2.598.843a5.3 5.3 0 0 0-1.29 1.29c-.51.728-.735 1.571-.843 2.598-.106 1.004-.106 2.267-.106 3.87v.087c0 1.602 0 2.865.106 3.869.108 1.027.334 1.87.843 2.598a5.3 5.3 0 0 0 1.29 1.29c.728.51 1.571.735 2.598.843 1.004.106 2.267.106 3.87.106h4.087c1.602 0 2.865 0 3.869-.106 1.027-.108 1.87-.334 2.598-.843a5.3 5.3 0 0 0 1.29-1.29c.51-.728.735-1.571.843-2.598.106-1.004.106-2.267.106-3.87v-.087c0-1.602 0-2.865-.106-3.869-.108-1.027-.334-1.87-.843-2.598a5.3 5.3 0 0 0-1.29-1.29c-.728-.51-1.571-.735-2.598-.843-1.004-.106-2.267-.106-3.87-.106M4.349 3.428c.434-.304.992-.485 1.895-.58.917-.097 2.1-.098 3.756-.098h4c1.656 0 2.84.001 3.756.098.903.095 1.46.276 1.895.58.358.251.67.563.92.921.305.434.486.992.581 1.895.097.917.098 2.1.098 3.756s-.001 2.84-.098 3.756c-.095.903-.276 1.46-.58 1.895a3.8 3.8 0 0 1-.921.92c-.434.305-.992.486-1.895.581-.917.097-2.1.098-3.756.098h-4c-1.656 0-2.84-.001-3.756-.098-.903-.095-1.46-.276-1.895-.58a3.8 3.8 0 0 1-.92-.921c-.305-.434-.486-.992-.581-1.895-.097-.917-.098-2.1-.098-3.756s.001-2.84.098-3.756c.095-.903.276-1.46.58-1.895.251-.358.563-.67.921-.92M7 21.25a.75.75 0 0 0 0 1.5h10a.75.75 0 0 0 0-1.5z" clip-rule="evenodd"/></svg>