<svg xmlns="http://www.w3.org/2000/svg" fill="none" viewBox="0 0 24 24"><path fill="currentColor" fill-rule="evenodd" d="M18 1.25a.75.75 0 0 1 .75.75v.603a4.1 4.1 0 0 1 2.172 1.127l.672-.432a.75.75 0 0 1 .812 1.261l-.638.41a3.86 3.86 0 0 1 0 3.062l.637.41a.75.75 0 0 1-.81 1.261l-.673-.432a4.1 4.1 0 0 1-2.172 1.128V11a.75.75 0 0 1-1.5 0v-.602a4.1 4.1 0 0 1-2.17-1.128l-.673.432a.75.75 0 0 1-.811-1.261l.637-.41a3.86 3.86 0 0 1 0-3.061l-.637-.41a.75.75 0 0 1 .81-1.262l.674.432a4.1 4.1 0 0 1 2.171-1.127V2a.75.75 0 0 1 .75-.75m0 2.786c-.908 0-1.698.445-2.157 1.108a2.37 2.37 0 0 0 0 2.712A2.61 2.61 0 0 0 18 8.964c.908 0 1.698-.445 2.157-1.108a2.37 2.37 0 0 0 0-2.712A2.61 2.61 0 0 0 18 4.036" clip-rule="evenodd" opacity=".4"/><path fill="currentColor" fill-rule="evenodd" d="M11.003 1.25h-1.04c-1.604 0-2.868 0-3.873.106-1.027.108-1.871.334-2.6.843A5.3 5.3 0 0 0 2.2 3.49c-.51.728-.736 1.57-.844 2.598-.106 1.004-.106 2.267-.106 3.87v.087c0 1.602 0 2.865.106 3.87.108 1.026.334 1.87.844 2.598A5.3 5.3 0 0 0 3.49 17.8c.729.51 1.573.735 2.6.843 1.005.106 2.269.106 3.873.106h1.287v2.5H8a.75.75 0 0 0 0 1.5h8a.75.75 0 0 0 0-1.5h-3.25v-2.5h1.303c1.604 0 2.867 0 3.872-.106 1.028-.108 1.872-.334 2.6-.843a5.3 5.3 0 0 0 1.29-1.29c.748-1.066.9-2.367.935-3.488a.75.75 0 1 0-1.5-.046c-.032 1.067-.182 1.986-.663 2.674-.251.358-.563.67-.922.92-.435.305-.993.486-1.897.581-.917.097-2.102.098-3.759.098h-4.003c-1.657 0-2.841-.001-3.759-.098-.904-.095-1.462-.276-1.897-.58a3.8 3.8 0 0 1-.921-.921c-.305-.435-.486-.992-.581-1.895-.097-.917-.098-2.1-.098-3.756s.001-2.84.098-3.756c.095-.903.276-1.46.58-1.895.252-.358.564-.67.922-.92.435-.305.993-.486 1.897-.581.918-.097 2.102-.098 3.76-.098h.996a.75.75 0 1 0 0-1.5m-.003 13a.75.75 0 0 0 0 1.5h2a.75.75 0 0 0 0-1.5z" clip-rule="evenodd"/></svg>