<svg xmlns="http://www.w3.org/2000/svg" fill="none" viewBox="0 0 24 24"><path fill="currentColor" fill-rule="evenodd" d="M12.195 4.86c-.31-.1-.72-.11-1.895-.11H7c-1.2 0-2.024.002-2.643.085-.598.08-.89.224-1.094.428s-.348.496-.428 1.094C2.752 6.976 2.75 7.8 2.75 9v4c0 1.2.002 2.024.085 2.643.08.598.224.891.428 1.095.208.208.506.35 1.115.43a2.751 2.751 0 0 1 5.268.082h4.708a2.751 2.751 0 0 1 5.268-.082c.609-.08.907-.222 1.115-.43.204-.204.348-.497.428-1.095.083-.619.085-1.443.085-2.643v-1.25h-4.067c-.63 0-1.116.001-1.533-.134a2.75 2.75 0 0 1-1.765-1.766c-.136-.417-.136-.904-.135-1.533V8.2c0-1.175-.01-1.585-.11-1.895a2.25 2.25 0 0 0-1.445-1.445M2.202 17.798c.565.565 1.287.783 2.131.876a2.751 2.751 0 0 0 5.313.076h4.708a2.751 2.751 0 0 0 5.313-.076c.844-.093 1.566-.31 2.131-.876.529-.528.751-1.19.854-1.955.098-.73.098-1.656.098-2.79v-2.039a.74.74 0 0 0-.096-.38L21.367 8.24c-.33-.613-.604-1.121-.871-1.517-.283-.418-.59-.761-1.014-1.014s-.872-.361-1.373-.412c-.476-.048-1.053-.048-1.75-.048h-1.541a3.75 3.75 0 0 0-2.158-1.816c-.567-.185-1.238-.184-2.22-.184H6.946c-1.133 0-2.058 0-2.79.098-.763.103-1.425.325-1.954.854s-.751 1.191-.854 1.955c-.098.73-.098 1.657-.098 2.79v4.107c0 1.133 0 2.058.098 2.79.103.763.325 1.426.854 1.954M15.225 6.75c.025.372.025.8.025 1.311v.14c0 .802.01 1.026.061 1.185.124.38.422.68.803.803.16.052.383.061 1.186.061h3.444l-.68-1.265c-.353-.654-.591-1.095-.812-1.421-.21-.312-.371-.466-.54-.566-.169-.101-.38-.17-.755-.208-.391-.04-.893-.04-1.636-.04zM17 19.25a1.25 1.25 0 0 1-1.25-1.249V18A1.25 1.25 0 1 1 17 19.25M5.75 18a1.25 1.25 0 1 1 2.5 0 1.25 1.25 0 0 1-2.5 0" clip-rule="evenodd"/><path fill="currentColor" fill-rule="evenodd" d="M6.75 9a.75.75 0 0 0-1.5 0v2a.75.75 0 0 0 1.5 0zm4 0a.75.75 0 0 0-1.5 0v2a.75.75 0 0 0 1.5 0z" clip-rule="evenodd" opacity=".4"/></svg>