<svg xmlns="http://www.w3.org/2000/svg" fill="none" viewBox="0 0 24 24"><path fill="currentColor" fill-rule="evenodd" d="M12 2.75a9.25 9.25 0 1 0 0 18.5 9.25 9.25 0 0 0 0-18.5M1.25 12C1.25 6.063 6.063 1.25 12 1.25S22.75 6.063 22.75 12 17.937 22.75 12 22.75 1.25 17.937 1.25 12" clip-rule="evenodd"/><path fill="currentColor" fill-rule="evenodd" d="M11.975 7.25H13A2.75 2.75 0 0 1 15.75 10a.75.75 0 0 1-1.5 0c0-.69-.56-1.25-1.25-1.25h-1c-.476 0-.796 0-1.043.017-.241.017-.358.046-.435.078a1.25 1.25 0 0 0-.677.677c-.032.077-.061.194-.078.435-.017.247-.017.567-.017 1.043v2c0 .476 0 .796.017 1.043.017.241.046.358.078.435.127.307.37.55.677.677.077.032.194.061.435.078.247.017.567.017 1.043.017h1c.69 0 1.25-.56 1.25-1.25a.75.75 0 0 1 1.5 0A2.75 2.75 0 0 1 13 16.75h-1.025c-.445 0-.816 0-1.12-.02a2.8 2.8 0 0 1-.907-.19 2.75 2.75 0 0 1-1.489-1.488c-.12-.29-.167-.59-.188-.907-.021-.304-.021-.675-.021-1.12v-2.05c0-.445 0-.816.02-1.12a2.8 2.8 0 0 1 .19-.907 2.75 2.75 0 0 1 1.488-1.489c.29-.12.59-.167.907-.188.304-.021.675-.021 1.12-.021" clip-rule="evenodd" opacity=".4"/></svg>