<svg xmlns="http://www.w3.org/2000/svg" fill="none" viewBox="0 0 24 24"><path fill="currentColor" fill-rule="evenodd" d="M13.553 2.75h-3.096c-1.84 0-3.285 0-4.424.129-1.163.13-2.106.405-2.89 1.023q-.352.278-.65.612c-.666.747-.964 1.653-1.105 2.764-.138 1.08-.138 2.445-.138 4.17v.105c0 1.724 0 3.09.138 4.17.141 1.11.44 2.016 1.106 2.763q.297.334.65.612c.783.618 1.726.892 2.889 1.023 1.139.129 2.584.129 4.424.129H11.5a.75.75 0 0 0 0-1.5h-.996c-1.898 0-3.258-.001-4.303-.12-1.031-.116-1.656-.337-2.128-.71a3.6 3.6 0 0 1-.46-.432c-.387-.434-.616-1.003-.737-1.956-.125-.973-.126-2.243-.126-4.032 0-.862 0-1.604.015-2.25h18.48l.005.262a.75.75 0 0 0 1.5-.024c-.036-2.218-.19-3.805-1.234-4.974a5 5 0 0 0-.65-.612c-.784-.618-1.726-.892-2.889-1.023-1.139-.129-2.584-.129-4.424-.129m7.612 5c-.11-1.113-.335-1.753-.768-2.238q-.21-.234-.46-.432c-.472-.373-1.097-.594-2.128-.71-1.045-.119-2.406-.12-4.303-.12h-3.002c-1.898 0-3.258.001-4.303.12-1.031.116-1.656.337-2.128.71q-.25.197-.46.432c-.387.434-.616 1.003-.737 1.956q-.018.137-.032.282z" clip-rule="evenodd"/><path fill="currentColor" fill-rule="evenodd" d="M15.579 12.004a.75.75 0 0 1-.067 1.059c-.666.587-.778 1.026-.76 1.372.021.428.241.888.596 1.534l.08.144c.311.562.695 1.255.849 2.01.18.884.048 1.827-.649 2.81a.75.75 0 0 1-1.224-.867c.455-.64.502-1.16.403-1.643-.106-.52-.38-1.019-.718-1.632l-.055-.1c-.33-.6-.74-1.355-.78-2.181-.046-.91.347-1.762 1.266-2.573a.75.75 0 0 1 1.059.067m3.2 0a.75.75 0 0 1-.067 1.059c-.666.587-.778 1.026-.76 1.372.021.428.241.888.596 1.534l.08.144c.311.562.695 1.255.849 2.01.18.884.048 1.827-.649 2.81a.75.75 0 0 1-1.224-.867c.455-.64.502-1.16.403-1.643-.106-.52-.38-1.019-.718-1.632l-.055-.1c-.33-.6-.74-1.355-.78-2.181-.046-.91.347-1.762 1.266-2.573a.75.75 0 0 1 1.059.067m3.2 0a.75.75 0 0 1-.067 1.059c-.666.587-.778 1.026-.76 1.372.021.428.241.888.596 1.534l.08.144c.311.562.695 1.255.849 2.01.18.884.048 1.827-.649 2.81a.75.75 0 0 1-1.224-.867c.455-.64.502-1.16.403-1.643-.106-.52-.38-1.019-.718-1.632l-.055-.1c-.33-.6-.74-1.355-.78-2.181-.046-.91.347-1.762 1.266-2.573a.75.75 0 0 1 1.059.067" clip-rule="evenodd" opacity=".4"/></svg>