<svg xmlns="http://www.w3.org/2000/svg" fill="none" viewBox="0 0 24 24"><path fill="currentColor" fill-rule="evenodd" d="M13.553 2.75h-3.096c-1.84 0-3.285 0-4.424.129-1.163.13-2.106.405-2.89 1.023q-.352.278-.65.612c-.666.747-.964 1.653-1.105 2.764-.138 1.08-.138 2.445-.138 4.17v.105c0 1.724 0 3.09.138 4.17.141 1.11.44 2.016 1.106 2.763q.297.334.65.612c.783.618 1.726.892 2.889 1.023 1.139.129 2.584.129 4.424.129H11a.75.75 0 0 0 0-1.5h-.496c-1.898 0-3.258-.001-4.303-.12-1.031-.116-1.656-.337-2.128-.71a3.6 3.6 0 0 1-.46-.432c-.387-.434-.616-1.003-.737-1.956-.125-.973-.126-2.243-.126-4.032 0-.862 0-1.604.015-2.25h18.48l.005.262a.75.75 0 0 0 1.5-.024c-.036-2.218-.19-3.805-1.234-4.974a5 5 0 0 0-.65-.612c-.784-.618-1.726-.892-2.889-1.023-1.139-.129-2.584-.129-4.424-.129m7.612 5c-.11-1.113-.335-1.753-.768-2.238q-.21-.234-.46-.432c-.472-.373-1.097-.594-2.128-.71-1.045-.119-2.406-.12-4.303-.12h-3.002c-1.898 0-3.258.001-4.303.12-1.031.116-1.656.337-2.128.71q-.25.197-.46.432c-.387.434-.616 1.003-.737 1.956q-.018.137-.032.282z" clip-rule="evenodd"/><path fill="currentColor" fill-rule="evenodd" d="M18.782 11.992a.75.75 0 0 1 1.06-.044l.823.758.017.017.018.018c.072.07.175.171.25.268.061.081.322.434.135.88-.185.437-.612.503-.71.516a3 3 0 0 1-.368.017h-3.129c-1.188 0-2.128.942-2.128 2.078 0 .258.048.504.135.73a.75.75 0 1 1-1.4.54 3.5 3.5 0 0 1-.235-1.27c0-1.988 1.636-3.578 3.628-3.578h1.835a.75.75 0 0 1 .069-.93m2.764 2.808a.75.75 0 0 1 .969.43c.152.396.235.824.235 1.27 0 1.988-1.637 3.578-3.628 3.578h-1.835a.75.75 0 0 1-1.128.974l-.823-.758-.018-.017-.018-.018a3 3 0 0 1-.25-.268c-.061-.081-.322-.434-.135-.88.185-.437.612-.503.71-.516.122-.017.266-.017.368-.017h3.129c1.188 0 2.128-.942 2.128-2.078a2 2 0 0 0-.135-.73.75.75 0 0 1 .43-.97" clip-rule="evenodd" opacity=".4"/></svg>