<svg xmlns="http://www.w3.org/2000/svg" fill="none" viewBox="0 0 24 24"><path fill="currentColor" fill-rule="evenodd" d="M12.25 2.763c-.167-.01-.408-.013-.794-.013-1.64 0-2.806.001-3.701.106-.88.102-1.4.296-1.795.614a3.3 3.3 0 0 0-.49.49c-.318.395-.512.916-.614 1.795-.105.895-.106 2.06-.106 3.701V13a.75.75 0 0 1-1.5 0V9.408c0-1.582 0-2.835.116-3.827.119-1.018.368-1.858.936-2.562a4.8 4.8 0 0 1 .717-.717c.704-.568 1.543-.817 2.562-.936.992-.116 2.245-.116 3.827-.116h.152c.604 0 1.08 0 1.527.157q.138.049.271.112c.428.205.764.542 1.19.969l.074.074 4.737 4.736.085.086c.495.493.886.884 1.097 1.392.21.509.21 1.062.21 1.76l-.001.121V13a.75.75 0 0 1-1.5 0v-2.343c0-.438-.003-.715-.017-.907h-.288c-1.367 0-2.47 0-3.337-.116-.9-.121-1.658-.38-2.26-.982s-.86-1.36-.982-2.26c-.116-.867-.116-1.97-.116-3.337zm1.501 1.049c.004 1.015.02 1.776.102 2.38.099.734.28 1.122.556 1.4.277.276.665.456 1.4.555.603.081 1.365.098 2.38.102z" clip-rule="evenodd"/><path fill="currentColor" fill-rule="evenodd" d="M15.17 15.299a.75.75 0 0 1 .967.436l1.777 4.694.054.142.053-.142 1.778-4.694a.75.75 0 1 1 1.402.53l-1.794 4.74c-.15.397-.287.76-.424 1.02a1.7 1.7 0 0 1-.317.437c-.16.152-.396.288-.698.288-.303 0-.538-.136-.698-.288a1.7 1.7 0 0 1-.317-.438c-.137-.26-.274-.622-.424-1.019l-1.794-4.74a.75.75 0 0 1 .435-.966M6.212 16.77a8 8 0 0 0-.707-.02c-.882 0-1.063.127-1.104.17-.015.015-.058.067-.095.245-.038.186-.056.449-.056.835v2c0 .387.018.65.056.835.037.178.08.23.095.246.04.043.222.17 1.104.17.283 0 .51-.003.707-.02a1.3 1.3 0 0 0 .385-.08c.054-.024.07-.043.082-.064.02-.032.062-.125.072-.341a.75.75 0 0 1 1.498.07c-.017.379-.099.736-.285 1.044-.192.32-.462.53-.76.663-.514.227-1.158.227-1.662.227h-.037c-.837 0-1.66-.076-2.19-.635-.273-.286-.408-.633-.478-.98-.07-.338-.087-.724-.087-1.135v-2c0-.41.017-.796.087-1.135.07-.346.205-.694.477-.98.532-.558 1.354-.635 2.191-.635h.037c.504 0 1.148 0 1.662.228.298.132.568.343.76.662.186.308.268.666.285 1.045a.75.75 0 0 1-1.498.07c-.01-.216-.052-.31-.072-.341-.012-.021-.028-.04-.082-.065a1.3 1.3 0 0 0-.385-.079m5.461-1.52h1.203a.75.75 0 0 1 0 1.5h-1.18c-.247 0-.394 0-.505.008a1 1 0 0 0-.108.013.2.2 0 0 0-.08.05.2.2 0 0 0-.034.074 1 1 0 0 0-.036.234c-.007.107-.007.219-.007.36v.023c0 .14 0 .253.007.36s.02.181.036.233a.2.2 0 0 0 .035.075.2.2 0 0 0 .079.049 1 1 0 0 0 .108.013 8 8 0 0 0 .504.008h.022c.217 0 .416 0 .583.011.178.012.374.04.573.121.552.226.85.636.984 1.078.109.358.108.743.107.992v.096c0 .25.002.635-.107.993a1.64 1.64 0 0 1-.984 1.077 1.8 1.8 0 0 1-.573.121c-.167.011-.366.011-.583.011h-1.308a.75.75 0 1 1 0-1.5h1.286c.246 0 .394 0 .504-.008a1 1 0 0 0 .108-.013.2.2 0 0 0 .08-.049.2.2 0 0 0 .035-.075c.015-.052.028-.126.035-.233s.007-.22.007-.36v-.024c0-.14 0-.252-.007-.36a1 1 0 0 0-.035-.233.2.2 0 0 0-.035-.075.2.2 0 0 0-.08-.049 1 1 0 0 0-.108-.013 9 9 0 0 0-.504-.008h-.022c-.217 0-.416 0-.582-.011a1.8 1.8 0 0 1-.574-.12 1.64 1.64 0 0 1-.984-1.078c-.109-.358-.108-.744-.107-.993v-.096c0-.249-.002-.634.107-.992.134-.442.432-.852.984-1.078.199-.081.395-.108.574-.12.166-.012.365-.012.582-.012" clip-rule="evenodd" opacity=".4"/></svg>