<svg xmlns="http://www.w3.org/2000/svg" fill="none" viewBox="0 0 24 24"><path fill="currentColor" fill-rule="evenodd" d="m16.159 17.63 1.105-5.77 1.474.282-1.112 5.8c-.15.779-.27 1.406-.408 1.91-.143.52-.32.963-.61 1.358-.35.476-.803.865-1.325 1.133-.435.224-.897.32-1.42.364-.504.043-1.12.043-1.877.043h-.065c-.724 0-1.313 0-1.796-.04-.503-.042-.947-.131-1.37-.34a3.8 3.8 0 0 1-1.305-1.063c-.291-.37-.478-.79-.637-1.282-.154-.477-.296-1.07-.472-1.806l-1.07-4.465 1.46-.35 1.062 4.437c.184.771.314 1.308.447 1.723.131.405.25.64.39.817.216.276.486.495.789.644.19.094.429.157.83.19.414.035.94.035 1.704.035.798 0 1.35 0 1.782-.037.42-.037.667-.104.863-.204.312-.16.587-.395.802-.688.139-.188.254-.437.372-.867.12-.44.23-1.009.387-1.824" clip-rule="evenodd" opacity=".4"/><path fill="currentColor" fill-rule="evenodd" d="M11.307 1.713A.75.75 0 0 1 12 1.25a4.75 4.75 0 0 1 4.697 4.039c.983.111 1.893.462 2.61 1.055.897.742 1.443 1.83 1.443 3.156 0 2.03-1.954 3.706-4.603 4.235l-.04.008L16 13l.106.742-.08.012-.227.032a219 219 0 0 1-3.456.458c-1.982.248-4.286.506-5.343.506-1.177 0-2.14-.401-2.802-1.12-.653-.71-.948-1.655-.948-2.63 0-.909.324-1.858.845-2.617.433-.63 1.047-1.192 1.801-1.458.38-.985 1.112-1.534 1.833-1.877a9 9 0 0 1 1.138-.428c.36-.116.61-.197.798-.29.714-.358 1.354-.801 1.694-1.213.168-.204.209-.337.214-.397v-.002c.002-.022.008-.077-.103-.188a.75.75 0 0 1-.163-.817M5.753 8.742q-.224.204-.421.49c-.37.538-.582 1.195-.582 1.768 0 .682.205 1.237.552 1.613.337.367.875.637 1.698.637.943 0 3.14-.242 5.157-.494a242 242 0 0 0 3.434-.456l.225-.031.057-.008c2.337-.474 3.377-1.793 3.377-2.761 0-.883-.35-1.545-.9-2-.565-.468-1.385-.75-2.35-.75a.75.75 0 0 1-.75-.75 3.25 3.25 0 0 0-2.19-3.074c-.06.448-.289.835-.544 1.145-.535.65-1.395 1.207-2.18 1.6-.293.146-.643.258-.946.356l-.062.02a8 8 0 0 0-.956.356c-.564.268-.986.631-1.158 1.322-.087.351-.046.588.04.755.088.173.271.363.634.529.753.344 2.085.489 4.019.247a.75.75 0 1 1 .186 1.488c-2.025.253-3.693.148-4.828-.37-.582-.267-1.065-.66-1.347-1.21a2.3 2.3 0 0 1-.165-.422" clip-rule="evenodd"/></svg>