<svg xmlns="http://www.w3.org/2000/svg" fill="none" viewBox="0 0 24 24"><path fill="currentColor" fill-rule="evenodd" d="M1.25 15a.75.75 0 0 1 .75-.75h10a.75.75 0 0 1 0 1.5H2a.75.75 0 0 1-.75-.75" clip-rule="evenodd" opacity=".4"/><path fill="currentColor" fill-rule="evenodd" d="M7.581 3.25h4.474c1.603 0 2.817.138 3.82.736 1.005.601 1.68 1.596 2.4 2.986l.001.004 1.13 2.213.069.133.016.003.186.03c.435.068.829.186 1.195.398 1.07.618 1.538 1.564 1.734 2.526.156.768.149 1.61.142 2.326l-.002.395.002.395c.007.716.014 1.558-.142 2.326-.196.962-.664 1.908-1.734 2.527-.482.277-1.011.394-1.617.449-.588.053-1.317.053-2.221.053H6.967c-.904 0-1.633 0-2.22-.053-.607-.055-1.137-.171-1.618-.45-1.07-.618-1.538-1.564-1.734-2.526-.156-.768-.149-1.61-.142-2.326L1.255 15l-.002-.395c-.007-.716-.014-1.558.142-2.326.196-.962.664-1.908 1.734-2.526.481-.278 1.011-.395 1.617-.45.588-.053 1.317-.053 2.22-.053h5.822l.247-.001q-.003-.089-.01-.212c-.028-.574-.12-.85-.244-.999-.095-.111-.33-.288-1.062-.288H7.58c-.27 0-.669 0-1.038-.109a1.66 1.66 0 0 1-1.09-.963c-.152-.351-.2-.802-.2-1.178s.048-.826.2-1.178a1.66 1.66 0 0 1 1.09-.963c.37-.11.768-.11 1.038-.109m-.7 1.588a.2.2 0 0 0-.048.075c-.035.08-.079.297-.079.587s.044.506.079.587c.022.052.04.069.048.075.01.008.034.024.09.04.138.042.326.048.646.048h4.104c.946 0 1.709.23 2.208.82.468.555.566 1.279.597 1.892l.001.035c.01.199.021.42.003.61-.021.23-.093.512-.324.755-.236.248-.523.33-.75.361-.192.027-.42.027-.63.027H7.002c-.948 0-1.61 0-2.121.047-.502.046-.788.13-1.002.254-.596.344-.878.853-1.015 1.528-.122.598-.117 1.25-.112 1.968a62 62 0 0 1 0 .906c-.005.718-.01 1.37.112 1.969.137.674.42 1.183 1.015 1.527.214.124.5.208 1.002.254.512.046 1.173.047 2.12.047h9.996c.948 0 1.609 0 2.121-.047.502-.046.788-.13 1.002-.254.596-.344.878-.853 1.015-1.527.122-.6.117-1.25.112-1.969a61 61 0 0 1 0-.906c.005-.718.01-1.37-.112-1.968-.137-.675-.42-1.184-1.015-1.528-.163-.094-.368-.166-.678-.215l-.02-.003a5 5 0 0 1-.383-.07 1.3 1.3 0 0 1-.464-.201 1.3 1.3 0 0 1-.326-.36 4 4 0 0 1-.17-.313l-1.138-2.228V7.66c-.7-1.352-1.215-2.015-1.837-2.386-.626-.374-1.48-.524-3.05-.524h-4.44c-.32 0-.508.006-.646.047a.3.3 0 0 0-.09.041" clip-rule="evenodd"/></svg>