<svg xmlns="http://www.w3.org/2000/svg" fill="none" viewBox="0 0 24 24"><path fill="currentColor" fill-rule="evenodd" d="M12.036 21.25A2.254 2.254 0 0 0 14.293 19c0-1.243-1.01-2.25-2.257-2.25A2.253 2.253 0 0 0 10 19.97l1.505-1.5a.754.754 0 0 1 1.064 0 .75.75 0 0 1 0 1.06l-1.505 1.5c.295.142.625.22.973.22M15.798 19a3.756 3.756 0 0 1-3.762 3.75A3.76 3.76 0 0 1 8.275 19a3.756 3.756 0 0 1 3.761-3.75A3.756 3.756 0 0 1 15.798 19" clip-rule="evenodd" opacity=".4"/><path fill="currentColor" fill-rule="evenodd" d="M9.989 1.25h4.095c1.374 0 2.462 0 3.331.088.89.09 1.634.28 2.284.713.52.346.967.791 1.314 1.31.435.648.624 1.39.715 2.277.088.866.088 1.951.088 3.32v.084c0 1.369 0 2.454-.088 3.32-.09.888-.28 1.629-.715 2.277a4.8 4.8 0 0 1-1.314 1.31c-.65.434-1.394.623-2.284.713-.869.088-1.957.088-3.33.088H9.988c-1.374 0-2.462 0-3.33-.088-.891-.09-1.634-.28-2.285-.712a4.8 4.8 0 0 1-1.314-1.311c-.435-.648-.624-1.39-.715-2.277-.088-.866-.088-1.951-.088-3.32v-.084c0-1.369 0-2.454.088-3.32.09-.888.28-1.629.715-2.277a4.8 4.8 0 0 1 1.314-1.31c.65-.434 1.394-.623 2.284-.713.87-.088 1.957-.088 3.33-.088M6.81 2.83c-.771.079-1.238.227-1.6.468a3.3 3.3 0 0 0-.9.896c-.24.361-.39.827-.468 1.596-.08.781-.08 1.79-.08 3.21s0 2.429.08 3.21c.079.77.227 1.235.469 1.596.238.355.543.66.9.896.361.241.828.39 1.6.468.783.08 1.795.08 3.22.08h4.012c1.424 0 2.436 0 3.22-.08.771-.079 1.238-.227 1.6-.468.356-.237.662-.541.9-.896.241-.361.39-.827.468-1.596.08-.781.08-1.79.08-3.21s0-2.429-.08-3.21c-.078-.77-.227-1.235-.469-1.596a3.3 3.3 0 0 0-.9-.896c-.36-.241-.828-.39-1.6-.468-.783-.08-1.795-.08-3.22-.08h-4.011c-1.425 0-2.437 0-3.22.08" clip-rule="evenodd"/></svg>