<svg xmlns="http://www.w3.org/2000/svg" fill="none" viewBox="0 0 24 24"><path fill="currentColor" fill-rule="evenodd" d="M7.75 11.25a1 1 0 1 0 2 0 1 1 0 0 0-2 0m1 2.5a2.5 2.5 0 1 1 0-5 2.5 2.5 0 0 1 0 5m5.5-2.5a1 1 0 1 0 2 0 1 1 0 0 0-2 0m1 2.5a2.5 2.5 0 1 1 0-5 2.5 2.5 0 0 1 0 5" clip-rule="evenodd" opacity=".4"/><path fill="currentColor" fill-rule="evenodd" d="M4.25 10.413C4.25 6.188 7.712 2.75 12 2.75s7.75 3.438 7.75 7.663a7.56 7.56 0 0 1-1.338 4.305.75.75 0 0 0 .063.929.8.8 0 0 1 .212.55c0 .449-.37.827-.843.827a.75.75 0 0 0-.75.75v1.219c0 .42-.2.774-.5.95a10 10 0 0 1-1.844.847V20a.75.75 0 0 0-1.5 0v1.156a8.3 8.3 0 0 1-2.5 0V20a.75.75 0 0 0-1.5 0v.79a10 10 0 0 1-1.844-.847c-.3-.176-.5-.53-.5-.95v-1.22a.75.75 0 0 0-.75-.75.836.836 0 0 1-.843-.827c0-.21.079-.402.212-.55a.75.75 0 0 0 .063-.928 7.56 7.56 0 0 1-1.338-4.305M12 1.25c-5.101 0-9.25 4.095-9.25 9.163 0 1.726.483 3.342 1.32 4.72-.164.319-.258.68-.258 1.063 0 1.03.67 1.896 1.594 2.206v.59c0 .88.421 1.765 1.241 2.245 3.443 2.017 7.263 2.017 10.706 0 .82-.48 1.24-1.365 1.24-2.244v-.591a2.33 2.33 0 0 0 1.595-2.206c0-.383-.094-.744-.259-1.063a9.06 9.06 0 0 0 1.321-4.72c0-5.068-4.149-9.163-9.25-9.163m-.12 14.847.12-.15.12.15.292.369a.75.75 0 0 0 1.176-.932l-.293-.37-.024-.029c-.146-.184-.298-.377-.445-.518-.16-.154-.433-.367-.826-.367s-.665.213-.826.367c-.147.141-.3.334-.445.518l-.024.03-.293.369a.75.75 0 0 0 1.176.932z" clip-rule="evenodd"/></svg>