<svg xmlns="http://www.w3.org/2000/svg" fill="none" viewBox="0 0 24 24"><path fill="currentColor" fill-rule="evenodd" d="M6.25 2.75a3.5 3.5 0 1 0 0 7 3.5 3.5 0 0 0 0-7m-5 3.5a5 5 0 1 1 10 0 5 5 0 0 1-10 0m16.5 8a3.5 3.5 0 1 0 0 7 3.5 3.5 0 0 0 0-7m-5 3.5a5 5 0 1 1 10 0 5 5 0 0 1-10 0m-10 0a3.5 3.5 0 1 1 7 0 3.5 3.5 0 0 1-7 0m3.5-5a5 5 0 1 0 0 10 5 5 0 0 0 0-10" clip-rule="evenodd"/><path fill="currentColor" fill-rule="evenodd" d="M13.25 6a.75.75 0 0 1 .75-.75h8a.75.75 0 0 1 0 1.5h-8a.75.75 0 0 1-.75-.75" clip-rule="evenodd" opacity=".4"/></svg>