<svg xmlns="http://www.w3.org/2000/svg" fill="none" viewBox="0 0 24 24"><path fill="currentColor" fill-rule="evenodd" d="M12.004 1.25h.064c.493 0 .911 0 1.259.031.369.033.713.105 1.047.278q.199.103.378.237c.302.225.516.503.707.82.18.3.362.677.577 1.12l.491 1.014H21a.75.75 0 0 1 0 1.5h-.795l-.578 9.36c-.078 1.248-.139 2.238-.264 3.03-.13.81-.335 1.486-.747 2.077a4.75 4.75 0 0 1-1.425 1.34c-.615.374-1.302.538-2.12.617-.797.076-1.79.076-3.04.076h-.077c-1.252 0-2.245 0-3.044-.077-.818-.078-1.506-.242-2.121-.618a4.75 4.75 0 0 1-1.426-1.342c-.412-.592-.617-1.268-.745-2.08-.124-.793-.184-1.784-.26-3.034L3.794 6.25H3a.75.75 0 1 1 0-1.5h4.572l.42-.92c.209-.459.387-.85.564-1.16.187-.328.401-.618.707-.852a3 3 0 0 1 .382-.246c.34-.18.692-.255 1.07-.29.355-.032.784-.032 1.289-.032m-3.966 5h10.664l-.57 9.229c-.08 1.295-.138 2.214-.25 2.925-.112.7-.266 1.125-.497 1.455a3.25 3.25 0 0 1-.975.916c-.343.21-.777.338-1.482.405-.717.07-1.638.07-2.935.07-1.3 0-2.221 0-2.94-.07-.705-.067-1.14-.196-1.483-.405a3.25 3.25 0 0 1-.976-.919c-.23-.33-.384-.756-.494-1.457-.112-.712-.168-1.632-.247-2.929l-.556-9.22zm6.822-1.5H9.22l.123-.268c.226-.497.376-.824.516-1.068.132-.231.226-.337.317-.406a1.3 1.3 0 0 1 .174-.112c.1-.053.235-.096.5-.12.28-.025.64-.026 1.186-.026.533 0 .884 0 1.157.025.26.023.392.064.49.115q.09.048.172.108c.09.067.184.168.318.39.14.236.294.551.527 1.03z" clip-rule="evenodd"/><path fill="currentColor" fill-rule="evenodd" d="M8.25 11.734a.75.75 0 0 1 .75-.75h6a.75.75 0 0 1 0 1.5H9a.75.75 0 0 1-.75-.75m1.5 3.92a.75.75 0 0 1 .75-.75h3a.75.75 0 0 1 0 1.5h-3a.75.75 0 0 1-.75-.75" clip-rule="evenodd" opacity=".4"/></svg>