<svg xmlns="http://www.w3.org/2000/svg" fill="none" viewBox="0 0 24 24"><path fill="currentColor" fill-rule="evenodd" d="M13.052 1.25h-2.104c-.899 0-1.648 0-2.242.08-.628.084-1.195.27-1.65.725-.456.456-.642 1.023-.726 1.65-.08.595-.08 1.345-.08 2.243V8.75h11.5V5.948c0-.898 0-1.648-.08-2.242-.084-.628-.27-1.195-.726-1.65-.455-.456-1.022-.642-1.65-.726-.594-.08-1.344-.08-2.242-.08M8.116 3.116c.13-.13.328-.237.79-.3.482-.064 1.13-.066 2.094-.066h2c.964 0 1.612.002 2.095.067.461.062.659.169.789.3s.237.327.3.788c.064.483.066 1.131.066 2.095v1.25h-8.5V6c0-.964.002-1.612.067-2.095.062-.461.169-.659.3-.789M5.75 17a.75.75 0 0 0-1.5 0v5a.75.75 0 0 0 1.5 0zm14 0a.75.75 0 0 0-1.5 0v5a.75.75 0 0 0 1.5 0z" clip-rule="evenodd" opacity=".4"/><path fill="currentColor" fill-rule="evenodd" d="M2 7.25a.75.75 0 0 0 0 1.5h.25v3.304c0 1.133 0 2.058.098 2.79.103.763.325 1.425.854 1.954s1.19.751 1.955.854c.575.077 1.27.094 2.093.097V20a.75.75 0 0 0 1.5 0v-2.25h6.5V20a.75.75 0 0 0 1.5 0v-2.25c.822-.004 1.518-.02 2.093-.098.764-.103 1.426-.325 1.955-.854s.751-1.19.854-1.955c.098-.73.098-1.656.098-2.79V8.75H22a.75.75 0 0 0 0-1.5zm1.75 1.5V12c0 1.2.002 2.024.085 2.643.08.598.224.89.428 1.094s.496.348 1.094.428c.619.083 1.443.085 2.643.085h8c1.2 0 2.024-.002 2.643-.085.598-.08.89-.224 1.094-.428s.348-.496.428-1.094c.083-.619.085-1.443.085-2.643V8.75z" clip-rule="evenodd"/></svg>