<svg xmlns="http://www.w3.org/2000/svg" fill="none" viewBox="0 0 24 24"><path fill="currentColor" fill-rule="evenodd" d="M7.998 17.996a3.75 3.75 0 0 1 1.366-.642l.107-.53.006-.032c.058-.29.112-.562.18-.784.076-.245.189-.5.403-.723q.142-.148.316-.258c.26-.167.532-.227.787-.253.232-.024.508-.024.805-.024h.064c.297 0 .573 0 .805.024.255.026.527.086.787.253q.173.11.316.258c.215.223.327.478.402.723.07.222.123.493.181.784l.007.032.106.53a3.75 3.75 0 0 1 1.366.642c.217.162.41.356.692.637l.036.037c.226.225.288.285.35.331l-.449.601.45-.6c.166.124.362.205.569.235.076.011.162.013.481.013H19a.75.75 0 0 1 0 1.5h-.913c-.255 0-.455 0-.652-.028a2.75 2.75 0 0 1-1.253-.52c-.16-.118-.3-.26-.481-.44l-.031-.032c-.332-.33-.446-.443-.566-.532a2.25 2.25 0 0 0-1.025-.425c-.147-.021-.308-.023-.776-.023h-2.606c-.468 0-.629.002-.776.023a2.25 2.25 0 0 0-1.025.425c-.12.09-.235.201-.566.532l-.03.032c-.181.18-.323.322-.482.44a2.75 2.75 0 0 1-1.253.52c-.197.028-.397.028-.652.028H5a.75.75 0 0 1 0-1.5h.869c.319 0 .405-.002.481-.013.207-.03.403-.11.57-.236.062-.046.124-.106.35-.331l.036-.037c.281-.28.475-.475.692-.637m2.917-.746h2.17l-.026-.132a8 8 0 0 0-.15-.668.5.5 0 0 0-.05-.124.3.3 0 0 0-.043-.036.5.5 0 0 0-.132-.024A8 8 0 0 0 12 16.25c-.34 0-.538 0-.684.016a.5.5 0 0 0-.132.024.3.3 0 0 0-.043.036.5.5 0 0 0-.05.124c-.043.14-.083.335-.15.668zM22 4.75h-.546l-.294.56c-.74 1.41-1.867 2.44-3.245 2.44h-3.3l-.085.426-.006.032c-.059.29-.113.562-.182.784-.075.245-.187.5-.402.723q-.142.148-.316.259c-.26.166-.532.226-.787.252a8 8 0 0 1-.805.024h-.064c-.297 0-.573 0-.805-.024a1.75 1.75 0 0 1-.787-.252 1.8 1.8 0 0 1-.316-.26 1.75 1.75 0 0 1-.402-.722 8 8 0 0 1-.181-.784l-.006-.032-.086-.426h-2.3c-1.377 0-2.506-1.03-3.245-2.44l-.294-.56H2a.75.75 0 0 1 0-1.5h20a.75.75 0 0 1 0 1.5M9.986 6.25h7.929c.537 0 1.231-.403 1.843-1.5H5.242c.612 1.097 1.306 1.5 1.843 1.5zm3.1 1.5h-2.171l.026.132c.067.333.107.528.15.668a.5.5 0 0 0 .05.124.3.3 0 0 0 .043.036.6.6 0 0 0 .132.024c.146.015.344.016.684.016s.538 0 .684-.016a.5.5 0 0 0 .132-.024.3.3 0 0 0 .044-.036.5.5 0 0 0 .05-.124c.042-.14.082-.335.149-.668zm-1.943 8.573-.002.003zm.038-.031.003-.002zm1.638 0-.003-.002zm.038.03.003.004-.002-.002zm0-7.645.003-.003zm-.038.031-.003.002zm-1.638 0 .003.002zm-.038-.03-.002-.004z" clip-rule="evenodd"/><path fill="currentColor" fill-rule="evenodd" d="M12 8.75a.75.75 0 0 1 .75.75v6a.75.75 0 0 1-1.5 0v-6a.75.75 0 0 1 .75-.75" clip-rule="evenodd" opacity=".4"/></svg>