<svg xmlns="http://www.w3.org/2000/svg" fill="none" viewBox="0 0 24 24"><path fill="currentColor" fill-rule="evenodd" d="M8.777 2.254a.75.75 0 0 1 .781.479l.994 2.609a11.6 11.6 0 0 1 2.896 0l.994-2.609a.75.75 0 0 1 .782-.479c1.727.187 3.465.576 5.2 1.825a.75.75 0 0 1 .27.366c1.104 3.233 1.708 6.054 1.941 8.322.23 2.24.11 4.023-.319 5.129l-.024.056c-.39.806-.979 1.724-1.71 2.454-.717.716-1.669 1.344-2.774 1.344-.278 0-.517-.125-.646-.2a3.6 3.6 0 0 1-.479-.342 8.4 8.4 0 0 1-.983-.988 8 8 0 0 1-.871-1.226 4 4 0 0 1-.246-.505 12.9 12.9 0 0 1-5.166 0 4 4 0 0 1-.246.505c-.237.422-.55.849-.871 1.226a8.3 8.3 0 0 1-.983.988c-.156.13-.32.25-.478.342-.13.075-.369.2-.647.2-1.105 0-2.057-.628-2.775-1.344-.73-.73-1.32-1.648-1.71-2.454l-.023-.056c-.428-1.106-.55-2.89-.32-5.129.234-2.268.838-5.09 1.941-8.322a.75.75 0 0 1 .272-.366C5.31 2.83 7.05 2.44 8.777 2.254m7.283 15.861q.596-.18 1.207-.414a.75.75 0 0 0-.534-1.402c-3.328 1.268-6.138 1.268-9.466 0a.75.75 0 0 0-.534 1.402q.612.233 1.207.414l-.077.145a6.5 6.5 0 0 1-.706.988c-.277.326-.562.61-.798.806a2 2 0 0 1-.263.193c-.503-.035-1.058-.343-1.619-.903-.576-.575-1.07-1.33-1.405-2.017-.29-.778-.435-2.265-.215-4.406.215-2.086.767-4.715 1.79-7.76 1.2-.813 2.413-1.16 3.719-1.344l.685 1.798c-.72.169-1.476.395-2.294.676a.75.75 0 1 0 .486 1.418C9.148 7.056 10.588 6.75 12 6.75s2.852.306 4.757.96a.75.75 0 1 0 .486-1.42 24 24 0 0 0-2.294-.675l.685-1.798c1.306.184 2.518.531 3.72 1.344 1.022 3.045 1.575 5.674 1.79 7.76.22 2.141.075 3.628-.216 4.406-.335.686-.829 1.442-1.405 2.017-.561.56-1.116.868-1.62.903q-.091-.055-.262-.193a7 7 0 0 1-.798-.806 6.5 6.5 0 0 1-.706-.988z" clip-rule="evenodd"/><path fill="currentColor" fill-rule="evenodd" d="M7.5 11a1 1 0 1 0 0 2h.01a1 1 0 1 0 0-2zm8.99 0a1 1 0 1 0 0 2h.01a1 1 0 1 0 0-2z" clip-rule="evenodd" opacity=".4"/></svg>