<svg xmlns="http://www.w3.org/2000/svg" fill="none" viewBox="0 0 24 24"><path fill="currentColor" fill-rule="evenodd" d="M5.25 8a.75.75 0 0 0 1.5 0V3a.75.75 0 0 0-1.5 0zm10 4A5.756 5.756 0 0 0 21 17.75a.75.75 0 0 0 0-1.5A4.255 4.255 0 0 1 16.75 12 4.255 4.255 0 0 1 21 7.75a.75.75 0 0 0 0-1.5A5.756 5.756 0 0 0 15.25 12" clip-rule="evenodd" opacity=".4"/><path fill="currentColor" fill-rule="evenodd" d="M6.75 11.673V21a.75.75 0 0 1-1.5 0v-9.327a3.55 3.55 0 0 1-1.863-1.075C2.643 9.793 2.25 8.67 2.25 7.35V3a.75.75 0 0 1 1.5 0v4.25h4.5V3a.75.75 0 0 1 1.5 0v4.35c0 1.32-.393 2.444-1.137 3.248a3.55 3.55 0 0 1-1.863 1.075M8 8.75H4c.32.831.955 1.477 1.941 1.502a1 1 0 0 1 .118 0C7.045 10.227 7.68 9.582 8 8.75M11.25 12c0 5.376 4.374 9.75 9.75 9.75a.75.75 0 0 0 0-1.5c-4.549 0-8.25-3.701-8.25-8.25S16.451 3.75 21 3.75a.75.75 0 0 0 0-1.5c-5.376 0-9.75 4.374-9.75 9.75" clip-rule="evenodd"/></svg>