<svg xmlns="http://www.w3.org/2000/svg" fill="none" viewBox="0 0 24 24"><path fill="currentColor" fill-rule="evenodd" d="M2 9.25a.75.75 0 1 0 0 1.5h20a.75.75 0 0 0 0-1.5zm0 12a.75.75 0 0 0 0 1.5h20a.75.75 0 0 0 0-1.5z" clip-rule="evenodd" opacity=".4"/><path fill="currentColor" fill-rule="evenodd" d="M13.535 1.25H10.47c-.44 0-.819 0-1.13.028-.33.03-.655.096-.962.273-.655.378-.935.96-1.048 1.514-.087.427-.082.896-.079 1.252l.002.183-.002.183c-.003.356-.008.825.08 1.252.112.553.392 1.136 1.047 1.513.307.178.633.244.962.274.311.028.69.028 1.13.028h3.065c.44 0 .82 0 1.13-.028.33-.03.656-.096.963-.274.654-.377.934-.96 1.047-1.513.087-.427.082-.896.079-1.252l-.001-.183.001-.183c.003-.356.008-.825-.079-1.252-.113-.554-.393-1.136-1.047-1.514-.308-.177-.633-.243-.963-.273-.31-.028-.69-.028-1.13-.028m-4.407 1.6c.04-.023.122-.058.348-.078.235-.021.546-.022 1.027-.022h3c.48 0 .791 0 1.027.022.225.02.307.055.348.078.179.104.273.249.327.514.053.258.051.537.049.894v.484c.002.357.004.636-.049.894-.054.265-.148.41-.327.513-.041.024-.123.058-.348.079-.236.021-.546.022-1.027.022h-3c-.481 0-.792 0-1.027-.022-.226-.02-.307-.055-.348-.079-.18-.103-.274-.248-.328-.513-.052-.258-.05-.537-.048-.894v-.484c-.003-.357-.004-.636.048-.894.054-.265.149-.41.328-.514m7.375 11.9c.48 0 .791 0 1.027.022.225.02.307.055.348.078.179.104.273.249.327.514.053.258.051.537.049.894v.484c.002.357.004.636-.049.894-.054.265-.148.41-.327.513-.041.024-.123.058-.348.079-.236.021-.546.022-1.027.022h-9c-.481 0-.792 0-1.027-.022-.226-.02-.307-.055-.348-.079-.18-.103-.274-.248-.328-.513-.052-.258-.05-.537-.048-.894v-.484c-.003-.357-.004-.636.048-.894.054-.265.149-.41.328-.514.04-.023.122-.058.348-.078.235-.021.546-.022 1.027-.022zm2.125-1.199c-.308-.177-.633-.243-.963-.273-.31-.028-.69-.028-1.13-.028H7.471c-.44 0-.82 0-1.13.028-.33.03-.656.096-.963.273-.655.378-.935.96-1.048 1.514-.087.427-.082.896-.079 1.252l.002.183-.002.183c-.003.356-.008.825.08 1.252.112.553.392 1.136 1.047 1.513.307.178.633.244.962.274.311.028.69.028 1.13.028h9.065c.44 0 .82 0 1.13-.028.33-.03.656-.096.963-.274.654-.377.934-.96 1.047-1.513.087-.427.082-.896.079-1.252l-.001-.183.001-.183c.003-.356.008-.825-.079-1.252-.113-.554-.393-1.136-1.047-1.514" clip-rule="evenodd"/></svg>