<svg xmlns="http://www.w3.org/2000/svg" fill="none" viewBox="0 0 24 24"><path fill="currentColor" d="M19.989 16.25h-.008a.75.75 0 0 1-.742-.758c.019-1.854.017-3.741.014-5.566L19.251 7.5a.75.75 0 0 0-1.5.001v2.5a.75.75 0 0 1-1.5 0v-4.5a.75.75 0 0 0-1.5 0v4.001a.75.75 0 0 1-1.5 0V3.501a.75.75 0 0 0-1.5 0v3.001a.75.75 0 0 1-1.5 0V5.501a.75.75 0 0 0-1.001-.708.75.75 0 1 1-.499-1.415 2.3 2.3 0 0 1 1.503.002 2.254 2.254 0 0 1 2.247-2.13c1.2 0 2.184.945 2.247 2.13a2.254 2.254 0 0 1 3 2 2.252 2.252 0 0 1 3.003 2.12l.002 2.424a454 454 0 0 1-.014 5.584.75.75 0 0 1-.75.742" opacity=".4"/><path fill="currentColor" fill-rule="evenodd" d="M3.03 1.47a.75.75 0 0 0-1.06 1.06l5.28 5.282v3.837l-.34-.342a2.433 2.433 0 0 0-3.628.202 2.446 2.446 0 0 0-.046 2.989l3.004 4.018.055.074c.629.841 1.015 1.358 1.488 1.766a5.7 5.7 0 0 0 2.511 1.26c.61.134 1.254.134 2.301.134h.12c1.06 0 1.893 0 2.567-.043.685-.044 1.256-.134 1.788-.34.904-.347 1.544-1.02 2.04-1.695l2.859 2.858a.75.75 0 1 0 1.06-1.06l-3.488-3.489-.022-.022L8.555 6.994l-.048-.048zm5.721 7.842v4.151a.75.75 0 0 1-1.281.53l-1.621-1.627a.933.933 0 0 0-1.393.078.946.946 0 0 0-.018 1.156l3.004 4.018c.702.938.988 1.315 1.322 1.603a4.2 4.2 0 0 0 1.854.93c.43.095.902.099 2.072.099 1.093 0 1.877 0 2.497-.04.614-.04 1.015-.115 1.345-.242.596-.23 1.047-.718 1.503-1.372z" clip-rule="evenodd"/></svg>