<svg xmlns="http://www.w3.org/2000/svg" fill="none" viewBox="0 0 24 24"><path fill="currentColor" fill-rule="evenodd" d="M12 3.75a.75.75 0 0 1 .75.75v8.462l.006-.007c.21-.249.417-.512.61-.757l.045-.057c.192-.245.394-.502.551-.664a.75.75 0 1 1 1.076 1.046 9 9 0 0 0-.495.604c-.19.242-.413.526-.643.797a7 7 0 0 1-.797.828 2.7 2.7 0 0 1-.46.323 1.4 1.4 0 0 1-.643.175 1.4 1.4 0 0 1-.642-.175 2.7 2.7 0 0 1-.461-.323 7.4 7.4 0 0 1-.797-.828c-.23-.27-.453-.555-.643-.797l-.047-.06a9 9 0 0 0-.448-.544.75.75 0 1 1 1.076-1.046 9 9 0 0 1 .596.72 27 27 0 0 0 .616.765V4.5a.75.75 0 0 1 .75-.75" clip-rule="evenodd" opacity=".4"/><path fill="currentColor" fill-rule="evenodd" d="M4 15.75a.75.75 0 0 1 .75.75c0 .604.033 1.038.102 1.355.068.309.16.459.248.545.087.087.236.18.545.248.318.07.75.102 1.355.102h10c.604 0 1.038-.032 1.355-.102.309-.068.459-.16.545-.248.087-.086.18-.236.248-.545.07-.317.102-.75.102-1.355a.75.75 0 0 1 1.5 0c0 .637-.032 1.199-.137 1.677-.107.486-.3.931-.652 1.284s-.798.545-1.284.652c-.478.105-1.04.137-1.677.137H7c-.637 0-1.199-.032-1.677-.137-.486-.107-.931-.3-1.284-.652s-.545-.798-.652-1.284c-.105-.478-.137-1.04-.137-1.677a.75.75 0 0 1 .75-.75" clip-rule="evenodd"/></svg>