<svg xmlns="http://www.w3.org/2000/svg" fill="none" viewBox="0 0 24 24"><path fill="currentColor" fill-rule="evenodd" d="M12 2.75a9.25 9.25 0 1 0 0 18.5 9.25 9.25 0 0 0 0-18.5M1.25 12C1.25 6.063 6.063 1.25 12 1.25S22.75 6.063 22.75 12 17.937 22.75 12 22.75 1.25 17.937 1.25 12" clip-rule="evenodd"/><path fill="currentColor" fill-rule="evenodd" d="M11.358 16.575c.161.086.384.175.642.175s.48-.089.642-.175c.168-.09.323-.206.461-.323.276-.235.551-.537.797-.827.23-.272.453-.556.643-.798l.047-.06q.318-.407.448-.544a.75.75 0 1 0-1.076-1.046 9 9 0 0 0-.551.664l-.045.057a26 26 0 0 1-.616.764V8a.75.75 0 0 0-1.5 0v6.462l-.006-.007c-.21-.249-.417-.512-.61-.757l-.045-.057a9 9 0 0 0-.551-.664.75.75 0 1 0-1.076 1.046 9 9 0 0 1 .495.604c.19.242.413.526.643.797.246.291.521.593.797.828.138.117.293.233.46.323" clip-rule="evenodd" opacity=".4"/></svg>