<svg xmlns="http://www.w3.org/2000/svg" fill="none" viewBox="0 0 24 24"><path fill="currentColor" fill-rule="evenodd" d="M12 4.25a.75.75 0 0 1 .75.75v8.462l.006-.007c.21-.249.417-.512.61-.757l.045-.057c.192-.245.394-.502.551-.664a.75.75 0 1 1 1.076 1.046 9 9 0 0 0-.495.604c-.19.242-.413.526-.643.797a7 7 0 0 1-.797.828 2.7 2.7 0 0 1-.46.323 1.4 1.4 0 0 1-.643.175 1.4 1.4 0 0 1-.642-.175 2.7 2.7 0 0 1-.461-.323 7.4 7.4 0 0 1-.797-.828c-.23-.27-.453-.555-.643-.797l-.047-.06a9 9 0 0 0-.448-.544.75.75 0 1 1 1.076-1.046 9 9 0 0 1 .596.72 27 27 0 0 0 .616.765V5a.75.75 0 0 1 .75-.75" clip-rule="evenodd"/><path fill="currentColor" fill-rule="evenodd" d="M4.25 19a.75.75 0 0 1 .75-.75h14a.75.75 0 0 1 0 1.5H5a.75.75 0 0 1-.75-.75" clip-rule="evenodd" opacity=".4"/></svg>