<svg xmlns="http://www.w3.org/2000/svg" fill="none" viewBox="0 0 24 24"><path fill="currentColor" d="M12 22.25c-4.68 0-7.029 0-8.639-1.611C1.75 19.028 1.75 16.679 1.75 12s0-7.029 1.611-8.639C4.972 1.75 7.321 1.75 12 1.75s7.029 0 8.639 1.611C22.25 4.972 22.25 7.321 22.25 12s0 7.029-1.611 8.639C19.028 22.25 16.679 22.25 12 22.25m0-19c-4.266 0-6.407 0-7.579 1.171S3.25 7.734 3.25 12s0 6.407 1.171 7.579S7.734 20.75 12 20.75s6.407 0 7.579-1.171S20.75 16.266 20.75 12s0-6.407-1.171-7.579S16.266 3.25 12 3.25"/><path fill="currentColor" d="M16 17.749H8a.75.75 0 0 1 0-1.5h8a.75.75 0 0 1 0 1.5m-3.973-2.95h-.022c-.484-.007-.974-.258-1.418-.727l-.014-.015-1.599-1.783a.75.75 0 1 1 1.117-1.001l1.176 1.311V7a.75.75 0 0 1 1.5 0v5.581l1.165-1.307a.75.75 0 0 1 1.12.998l-1.587 1.779c-.42.483-.929.748-1.437.748z" opacity=".4"/></svg>