<svg xmlns="http://www.w3.org/2000/svg" fill="none" viewBox="0 0 24 24"><path fill="currentColor" d="M14.686 22.752a4.75 4.75 0 0 1-2.259-.57c-.576-.31-1.03-.756-1.937-1.642l-.727-.71c-1.212-1.187-1.819-1.78-2.175-2.618a5 5 0 0 1-.167-.457c-.265-.877-.17-1.766 0-3.38l.537-5.079c.12-1.123 1.033-2.028 2.173-2.152a2.46 2.46 0 0 1 1.85.554 2.4 2.4 0 0 1 .867 1.662l.085 1.087 5.612-5.487a2.5 2.5 0 0 1 3.475 0 2.4 2.4 0 0 1 .728 1.722c0 .651-.259 1.263-.728 1.722l-3.17 3.101 1.35 1.824c1.191 1.574 1.791 2.367 2.018 3.251.421 1.647.06 3.09-1.048 4.173-.754.736-1.444 1.073-2.957 1.811l-.335.163c-1.134.554-1.703.832-2.344.948a4.7 4.7 0 0 1-.847.076zm-4.282-15.12q-.054 0-.11.005a.94.94 0 0 0-.843.82l-.537 5.077c-.155 1.467-.233 2.202-.057 2.785q.047.155.113.308c.24.562.773 1.084 1.838 2.126l.732.716c.806.788 1.211 1.184 1.602 1.395.645.35 1.4.47 2.124.337.438-.079.945-.326 1.954-.819l.335-.164c1.445-.705 1.986-.969 2.567-1.536.721-.706.932-1.598.643-2.727-.152-.59-.725-1.349-1.766-2.724l-1.745-2.355a.75.75 0 0 1 .078-.983l3.64-3.558a.9.9 0 0 0 0-1.3.99.99 0 0 0-1.378 0l-6.758 6.608a.75.75 0 0 1-1.272-.477l-.21-2.686a.9.9 0 0 0-.329-.625.97.97 0 0 0-.62-.223"/><path fill="currentColor" fill-rule="evenodd" d="M10.54 2.748c-.372 0-.722.322-.722.778 0 .457.35.778.722.778.373 0 .722-.321.722-.778 0-.456-.35-.778-.722-.778m-2.098.028c.3-.878 1.11-1.528 2.098-1.528 1.254 0 2.222 1.047 2.222 2.278s-.969 2.278-2.222 2.278c-.987 0-1.798-.65-2.098-1.527l-.735.069a.75.75 0 0 1-.14-1.494l.78-.073.07-.003zM5.863 4.162a.75.75 0 0 1-.036 1.06l-.312.291-.275.297a.75.75 0 1 1-1.1-1.02l.294-.317.037-.037.332-.31a.75.75 0 0 1 1.06.036M3.65 6.912a.75.75 0 0 1 .698.799l-.045.677a2.23 2.23 0 0 1 1.461 2.073c.02 1.207-.915 2.279-2.201 2.3a2.285 2.285 0 0 1-2.313-2.234c-.016-1.01.646-1.851 1.55-2.152l.052-.765a.75.75 0 0 1 .798-.698m.614 3.573a.72.72 0 0 0-.742-.729c-.457.007-.778.364-.772.746a.785.785 0 0 0 .788.76.746.746 0 0 0 .726-.777" clip-rule="evenodd" opacity=".4"/></svg>