<svg xmlns="http://www.w3.org/2000/svg" fill="none" viewBox="0 0 24 24"><path fill="currentColor" fill-rule="evenodd" d="M3.998 19.75c.134.43.101.759.025.997a1.24 1.24 0 0 1-.44.629.75.75 0 1 0 .833 1.248c.38-.254.818-.739 1.036-1.42.137-.43.182-.92.087-1.454h12.922a3 3 0 0 0 .087 1.453c.218.682.655 1.167 1.036 1.421a.75.75 0 0 0 .832-1.248 1.24 1.24 0 0 1-.44-.63c-.075-.237-.108-.567.026-.996h.043c.433 0 .83 0 1.152-.044.356-.047.731-.16 1.04-.469s.422-.685.47-1.04c.043-.323.043-.72.043-1.152v-2.09c0-.433 0-.83-.043-1.152-.048-.356-.16-.732-.47-1.04-.309-.31-.684-.422-1.04-.47a5 5 0 0 0-.447-.035V2a.75.75 0 0 0-1.5 0v.75h-3.447l-.011-.01-.107-.09c-2.168-1.867-5.202-1.867-7.37 0l-.107.09-.01.01H4.75V2a.75.75 0 0 0-1.5 0v10.258q-.24.009-.447.035c-.356.048-.731.16-1.04.47-.31.308-.422.684-.47 1.04-.043.322-.043.72-.043 1.152v2.089c0 .433 0 .83.043 1.153.048.355.16.731.47 1.04s.684.422 1.04.47c.323.043.72.043 1.152.043zM10.25 16a.75.75 0 0 1 .75-.75h2a.75.75 0 1 1 0 1.5h-2a.75.75 0 0 1-.75-.75m9-3.75H4.75v-8h3.377c.144.001.38.003.598-.078a1.3 1.3 0 0 0 .332-.19c.071-.054.15-.121.224-.186l.012-.01c1.606-1.382 3.808-1.382 5.414 0l.011.01c.075.065.154.132.225.186.077.06.188.136.332.19.218.08.454.079.598.078h3.377zM2.823 13.823l.003-.001.01-.005a.7.7 0 0 1 .167-.037c.21-.029.504-.03.997-.03h16c.493 0 .787.001.997.03a.7.7 0 0 1 .177.042l.003.001.001.002.005.01c.009.022.024.07.037.167.028.211.03.505.03.998v2c0 .492-.002.786-.03.997a.7.7 0 0 1-.042.177l-.001.003h-.003l-.004.003-.006.003a.7.7 0 0 1-.167.037c-.21.028-.504.03-.997.03H4c-.493 0-.787-.002-.997-.03a.7.7 0 0 1-.177-.042l-.003-.002-.001-.002-.005-.01a.7.7 0 0 1-.037-.167c-.028-.21-.03-.505-.03-.997v-2c0-.493.002-.787.03-.998a.7.7 0 0 1 .042-.177z" clip-rule="evenodd"/><path fill="currentColor" fill-rule="evenodd" d="M12.53 8.03a.75.75 0 0 0-1.06-1.06l-2 2a.75.75 0 1 0 1.06 1.06zm-2-1.5a.75.75 0 1 0-1.06-1.06l-1 1a.75.75 0 0 0 1.06 1.06z" clip-rule="evenodd" opacity=".4"/></svg>