<svg xmlns="http://www.w3.org/2000/svg" fill="none" viewBox="0 0 24 24"><path fill="currentColor" d="M12.236 22.75c-2.678 0-6.163-.452-7.17-1.722-1.42-1.789-.705-3.932-.075-5.822.715-2.148 1.333-4.004-.341-5.638a.751.751 0 0 1 1.048-1.074c2.346 2.29 1.443 5.004.716 7.185-.583 1.751-1.087 3.264-.173 4.417.369.465 2.529 1.153 5.995 1.153 3.174 0 5.094-.598 5.534-1.153.914-1.153.412-2.665-.17-4.416-.724-2.179-1.624-4.89.712-7.184a.75.75 0 0 1 1.05 1.071c-1.667 1.638-1.051 3.493-.338 5.641.628 1.89 1.339 4.033-.08 5.821-1.231 1.553-5.101 1.721-6.708 1.721"/><path fill="currentColor" d="M6.352 13.75q-.034.001-.07-.004c-2.694-.249-4.759-2.068-5.02-4.425a2.55 2.55 0 0 1 .175-1.235c.686-1.72 2.753-5.07 6.148-6.714a1.244 1.244 0 0 1 1.52.362c.424.542 1.72 2.2 2.891 2.2s2.467-1.658 2.893-2.203a1.24 1.24 0 0 1 1.52-.358c3.393 1.642 5.46 4.992 6.146 6.712.163.41.222.825.177 1.235-.267 2.394-2.277 4.171-5.003 4.422a.751.751 0 0 1-.138-1.494c1.997-.184 3.464-1.428 3.65-3.094a1.1 1.1 0 0 0-.079-.515c-.593-1.486-2.349-4.349-5.218-5.823-.934 1.171-2.317 2.617-3.947 2.617S8.983 3.986 8.05 2.816C5.18 4.292 3.424 7.153 2.832 8.64q-.105.267-.079.515c.186 1.667 1.66 2.912 3.668 3.097a.75.75 0 0 1-.068 1.497" opacity=".4"/></svg>