<svg xmlns="http://www.w3.org/2000/svg" fill="none" viewBox="0 0 24 24"><path fill="currentColor" fill-rule="evenodd" d="M3.25 3A.75.75 0 0 1 4 2.25h4a.75.75 0 0 1 0 1.5H6.75V7a.75.75 0 0 1-1.5 0V3.75H4A.75.75 0 0 1 3.25 3M11 12a1 1 0 0 1 1-1h.009a1 1 0 1 1 0 2H12a1 1 0 0 1-1-1m5-9.75a.75.75 0 0 0 0 1.5h1.25V7a.75.75 0 0 0 1.5 0V3.75H20a.75.75 0 0 0 0-1.5z" clip-rule="evenodd" opacity=".4"/><path fill="currentColor" fill-rule="evenodd" d="M3.84 9.375c-.425-.13-.73-.26-.926-.375q.079-.045.192-.1c.426-.202 1.09-.403 1.97-.579C6.824 7.971 9.273 7.75 12 7.75s5.176.222 6.924.571c.88.176 1.544.377 1.97.579q.114.055.192.1c-.196.115-.5.244-.926.375-.956.293-2.353.539-4.044.695-1.101.102-1.696 1.112-1.785 1.94-.136 1.272-1.145 2.24-2.331 2.24s-2.195-.968-2.331-2.24c-.089-.828-.684-1.838-1.785-1.94-1.691-.156-3.088-.402-4.044-.695m-1.124-.52L2.71 8.85zM12 6.25c-2.795 0-5.347.226-7.218.6-.93.186-1.73.416-2.317.693-.291.138-.57.306-.786.518-.218.212-.429.528-.429.939 0 .596.431.986.762 1.205.364.24.847.438 1.388.604 1.094.335 2.604.594 4.346.755.072.006.16.045.25.154a.9.9 0 0 1 .181.451 4.2 4.2 0 0 0 .582 1.715A5.75 5.75 0 0 0 4.25 19.5V21a.75.75 0 0 0 1.5 0v-1.5A4.25 4.25 0 0 1 10 15.25a1 1 0 0 0 .124-.01c.548.323 1.185.51 1.876.51s1.328-.187 1.876-.51q.06.01.124.01a4.25 4.25 0 0 1 4.25 4.25V21a.75.75 0 0 0 1.5 0v-1.5c0-2.75-1.93-5.048-4.51-5.616.314-.513.517-1.1.583-1.715a.9.9 0 0 1 .181-.45c.09-.11.178-.149.25-.155 1.742-.161 3.252-.42 4.346-.755.541-.166 1.024-.364 1.388-.604.33-.22.762-.61.762-1.205 0-.41-.211-.727-.429-.94a2.9 2.9 0 0 0-.786-.517c-.587-.277-1.387-.507-2.317-.693-1.871-.374-4.423-.6-7.218-.6" clip-rule="evenodd"/></svg>