<svg xmlns="http://www.w3.org/2000/svg" fill="none" viewBox="0 0 24 24"><path fill="currentColor" fill-rule="evenodd" d="M12 2.75A6.25 6.25 0 0 0 5.75 9a.75.75 0 0 1-1.5 0 7.75 7.75 0 1 1 15.5 0c0 3.009-1.802 5.522-4.09 7.116-.673.467-1.093 1.028-1.311 2.042-.596 2.763-2.529 4.592-5.041 4.592-1.283 0-2.31-.564-2.994-1.47-.67-.884-.987-2.055-.987-3.28a.75.75 0 0 1 1.5 0c0 .984.257 1.813.683 2.376.41.542.999.874 1.798.874 1.65 0 3.092-1.171 3.574-3.408.298-1.384.936-2.272 1.92-2.957 2.02-1.406 3.448-3.51 3.448-5.885A6.25 6.25 0 0 0 12 2.75" clip-rule="evenodd"/><path fill="currentColor" fill-rule="evenodd" d="M9.77 9.836c.045-.746.177-1.457.452-2.008q.255-.518.656-.782c.264-.174.622-.296 1.131-.296.685 0 1.19.255 1.551.659.374.418.628 1.04.693 1.804a.75.75 0 1 0 1.494-.126c-.085-1.011-.431-1.965-1.068-2.678-.65-.727-1.564-1.159-2.67-1.159-.763 0-1.417.188-1.956.543-.535.352-.912.839-1.174 1.367-.514 1.032-.629 2.3-.629 3.34 0 .414.336.75.75.75 1.05 0 1.758.746 1.758 1.5s-.709 1.5-1.758 1.5a.75.75 0 0 0 0 1.5c1.72 0 3.258-1.269 3.258-3 0-1.467-1.104-2.602-2.488-2.914" clip-rule="evenodd" opacity=".4"/></svg>