<svg xmlns="http://www.w3.org/2000/svg" fill="none" viewBox="0 0 24 24"><path fill="currentColor" fill-rule="evenodd" d="m4.687 21.3.004-.008.014-.03.058-.128a39 39 0 0 1 1.16-2.271 41.4 41.4 0 0 1 3.543-5.401C12.562 9.499 16.866 5.75 22 5.75a.75.75 0 0 0 0-1.5c-5.867 0-10.562 4.25-13.716 8.288a43 43 0 0 0-3.675 5.6A41 41 0 0 0 3.4 20.507l-.064.14-.017.038-.004.01-.002.004.642.281-.642-.281a.75.75 0 0 0 1.374.602" clip-rule="evenodd"/><path fill="currentColor" fill-rule="evenodd" d="M4 3.75a1.25 1.25 0 1 0 0 2.5 1.25 1.25 0 0 0 0-2.5M1.25 5a2.75 2.75 0 0 1 5.396-.75H8a.75.75 0 0 1 0 1.5H6.646A2.751 2.751 0 0 1 1.25 5m9 0a.75.75 0 0 1 .75-.75h2a.75.75 0 0 1 0 1.5h-2a.75.75 0 0 1-.75-.75" clip-rule="evenodd" opacity=".4"/></svg>