<svg xmlns="http://www.w3.org/2000/svg" fill="none" viewBox="0 0 24 24"><path fill="currentColor" d="M12.012 9.75c-.41 0-.75-.34-.75-.75V5.75h-1.25c-1.52 0-2.75-1.23-2.75-2.75V2c0-.41.34-.75.75-.75h2c1.06 0 1.98.6 2.44 1.49.44-.31.98-.49 1.56-.49h2c.41 0 .75.34.75.75v1c0 1.52-1.23 2.75-2.75 2.75h-1.25V9c0 .41-.34.75-.75.75m.75-4.5h1.25c.69 0 1.25-.56 1.25-1.25v-.25h-1.25c-.69 0-1.25.56-1.25 1.25zm-4-2.5V3c0 .69.56 1.25 1.25 1.25h1.25V4c0-.69-.56-1.25-1.25-1.25z" opacity=".4"/><path fill="currentColor" fill-rule="evenodd" d="M7.19 22.75h9.63l-.01-.01c1.07 0 1.94-.87 1.94-1.94 0-.33-.08-.67-.25-.96l-3.75-6.55V9.75h.262c.41 0 .75-.34.75-.75s-.34-.75-.75-.75h-.892a1 1 0 0 0-.12-.01h-4q-.06 0-.12.01h-.868c-.41 0-.75.34-.75.75s.34.75.75.75h.238v3.54L5.5 19.85a1.942 1.942 0 0 0 1.69 2.9m3.57-9.25V9.75l.01.01h2.5v3.75c0 .13.04.26.1.37l3.84 6.72c.04.07.06.14.06.22 0 .24-.2.44-.44.44H7.2c-.24 0-.44-.2-.44-.44 0-.08.02-.16.06-.22l3.84-6.73c.07-.11.1-.24.1-.37" clip-rule="evenodd"/></svg>