<svg xmlns="http://www.w3.org/2000/svg" fill="none" viewBox="0 0 24 24"><path fill="currentColor" fill-rule="evenodd" d="m11.902 18.78.073-.028a.2.2 0 0 1 .05 0l.074.029c.08.037.184.094.368.195.957.528 1.279.716 1.514.975q.173.191.302.418c.177.311.262.689.482 1.78a.75.75 0 0 0 1.47-.297l-.023-.118c-.187-.927-.314-1.56-.625-2.107a4 4 0 0 0-.496-.684c-.423-.466-.984-.775-1.794-1.222l-.106-.058-.07-.039c-.275-.153-.574-.319-.908-.36a1.7 1.7 0 0 0-.425 0c-.335.041-.634.207-.91.36l-.07.039-.105.058c-.81.447-1.37.756-1.794 1.222q-.285.314-.496.684c-.31.547-.438 1.18-.624 2.107l-.024.118a.75.75 0 1 0 1.47.296c.22-1.09.305-1.468.482-1.78q.13-.226.303-.417c.235-.259.557-.447 1.514-.975.183-.101.287-.158.367-.195M12.75 2a.75.75 0 0 0-1.5 0v2a.75.75 0 0 0 1.5 0z" clip-rule="evenodd" opacity=".4"/><path fill="currentColor" fill-rule="evenodd" d="M14.25 22a.75.75 0 0 1 .75-.75h4.446a36.3 36.3 0 0 1-3.434-5.5H7.988a36.3 36.3 0 0 1-3.434 5.5H9a.75.75 0 0 1 0 1.5H2a.75.75 0 0 1 0-1.5h.646a34.3 34.3 0 0 0 3.65-5.5H6a.75.75 0 0 1 0-1.5h1.055q.6-1.261 1.083-2.5H8a.75.75 0 0 1 0-1.5h.688A37 37 0 0 0 10.1 4.854l.006-.031c.02-.113.04-.226.068-.32a1.73 1.73 0 0 1 1.484-1.242c.099-.011.208-.011.314-.011h.056c.106 0 .215 0 .314.01a1.73 1.73 0 0 1 1.484 1.242c.028.095.048.208.068.32l.006.032a37 37 0 0 0 1.412 5.396H16a.75.75 0 0 1 0 1.5h-.138q.484 1.239 1.083 2.5H18a.75.75 0 0 1 0 1.5h-.296a34.3 34.3 0 0 0 3.65 5.5H22a.75.75 0 0 1 0 1.5h-7a.75.75 0 0 1-.75-.75m-5.54-7.75a39 39 0 0 0 1.034-2.5h4.512c.308.823.652 1.66 1.035 2.5zm3.714-9.131c.282 1.573.707 3.31 1.306 5.131h-3.46a38 38 0 0 0 1.341-5.317l.002-.006a.23.23 0 0 1 .21-.175l.031-.001a9 9 0 0 1 .316 0h.007a.23.23 0 0 1 .21.176l.008.035z" clip-rule="evenodd"/></svg>