<svg xmlns="http://www.w3.org/2000/svg" fill="none" viewBox="0 0 24 24"><path fill="currentColor" fill-rule="evenodd" d="M11.949 1.75h.102c2.072 0 3.695 0 4.973.155 1.306.159 2.351.49 3.21 1.223q.345.293.638.638c.734.859 1.064 1.904 1.223 3.21.155 1.278.155 2.901.155 4.973v.102c0 2.072 0 3.695-.155 4.973-.159 1.306-.49 2.351-1.223 3.21q-.293.345-.638.638c-.859.734-1.904 1.064-3.21 1.223-1.278.155-2.901.155-4.973.155h-.102c-2.072 0-3.695 0-4.973-.155-1.306-.159-2.351-.49-3.21-1.223a6 6 0 0 1-.638-.638c-.734-.859-1.064-1.904-1.223-3.21-.155-1.278-.155-2.901-.155-4.973v-.102c0-2.072 0-3.695.155-4.973.159-1.306.49-2.351 1.223-3.21a6 6 0 0 1 .638-.638c.859-.734 1.904-1.064 3.21-1.223 1.278-.155 2.901-.155 4.973-.155M7.157 3.394c-1.16.141-1.873.41-2.417.874q-.255.218-.472.472c-.464.544-.733 1.257-.874 2.417C3.251 8.334 3.25 9.867 3.25 12s.001 3.666.144 4.843c.141 1.16.41 1.873.874 2.417q.218.255.472.472c.544.464 1.257.733 2.417.874 1.177.143 2.71.144 4.843.144s3.666-.001 4.843-.144c1.16-.141 1.873-.41 2.417-.874a4 4 0 0 0 .472-.472c.464-.544.733-1.257.874-2.417.143-1.177.144-2.71.144-4.843s-.001-3.666-.144-4.843c-.141-1.16-.41-1.873-.874-2.417a4 4 0 0 0-.472-.472c-.544-.464-1.257-.733-2.417-.874-1.177-.143-2.71-.144-4.843-.144s-3.666.001-4.843.144" clip-rule="evenodd"/><path fill="currentColor" fill-rule="evenodd" d="m12.277 7.266-3.408 4.593h1.59c.813 0 1.264.733 1.264 1.36v3.515l3.408-4.593h-1.59c-.813 0-1.264-.733-1.264-1.359zm.453-.611-.06-.045zm.271-1.3c.48.215.776.706.776 1.255v4.031h1.709c.617 0 1.014.435 1.168.841a1.44 1.44 0 0 1-.18 1.367l-4 5.39c-.366.493-.968.632-1.475.405-.48-.214-.776-.704-.776-1.254v-4.03H8.515c-.618 0-1.015-.436-1.17-.842a1.44 1.44 0 0 1 .182-1.367l3.999-5.39c.366-.493.968-.632 1.475-.405" clip-rule="evenodd" opacity=".4"/></svg>