<svg xmlns="http://www.w3.org/2000/svg" fill="none" viewBox="0 0 24 24"><path fill="currentColor" fill-rule="evenodd" d="M14.448 3.122c-.405.316-.884.803-1.592 1.526L9.787 7.78l5.537 5.659 3.086-3.15c.7-.714 1.17-1.198 1.476-1.606.292-.39.364-.626.364-.834s-.072-.444-.364-.835c-.305-.408-.776-.892-1.475-1.606l-.743-.76c-.708-.723-1.187-1.21-1.592-1.526-.388-.303-.617-.373-.814-.373s-.425.07-.814.372m-.173 11.39-5.537-5.66-3.355 3.43c-.597.61-1 1.023-1.27 1.371-.259.335-.336.537-.355.709q-.015.15 0 .3c.019.172.096.374.356.709.27.348.672.76 1.269 1.371l.15.153c.653.668.884.895 1.147 1.046q.248.142.521.22c.289.082.608.089 1.537.089s1.248-.007 1.537-.09q.273-.077.521-.22c.263-.15.494-.377 1.148-1.045zm1.585.525 3.658-3.735c.654-.667 1.196-1.221 1.569-1.72.393-.525.663-1.073.663-1.732s-.27-1.207-.662-1.732c-.372-.499-.915-1.053-1.568-1.72l-.037-.038-.78-.797c-.661-.676-1.21-1.238-1.704-1.623-.52-.406-1.07-.69-1.736-.69s-1.216.284-1.736.689c-.495.385-1.044.946-1.706 1.622L4.28 11.264c-.559.571-1.023 1.046-1.352 1.47-.345.445-.6.907-.66 1.465a3 3 0 0 0 0 .627c.06.557.315 1.019.66 1.464.33.425.793.899 1.352 1.47l.18.184.071.072c.556.569.937.959 1.402 1.226q.406.232.856.361c.516.147 1.059.147 1.847.147h.204c.788 0 1.331 0 1.847-.147q.45-.129.856-.361c.465-.267.846-.657 1.402-1.226l.07-.072z" clip-rule="evenodd"/><path fill="currentColor" fill-rule="evenodd" d="M9.25 22a.75.75 0 0 1 .75-.75h11a.75.75 0 0 1 0 1.5H10a.75.75 0 0 1-.75-.75" clip-rule="evenodd" opacity=".4"/></svg>