<svg xmlns="http://www.w3.org/2000/svg" fill="none" viewBox="0 0 24 24"><path fill="currentColor" fill-rule="evenodd" d="M3.25 10.222c0-3.717 2.537-6.972 5.939-6.972 1.777 0 3.34.91 4.405 2.292a.75.75 0 1 1-1.188.916c-.83-1.078-1.98-1.708-3.217-1.708-2.33 0-4.439 2.317-4.439 5.472v3.556c0 3.155 2.11 5.472 4.439 5.472 1.236 0 2.386-.63 3.217-1.708a.75.75 0 1 1 1.188.916c-1.065 1.382-2.628 2.292-4.405 2.292-3.402 0-5.939-3.255-5.939-6.972z" clip-rule="evenodd"/><path fill="currentColor" fill-rule="evenodd" d="M1.25 10A.75.75 0 0 1 2 9.25h6a.75.75 0 0 1 0 1.5H2a.75.75 0 0 1-.75-.75m0 4a.75.75 0 0 1 .75-.75h6a.75.75 0 0 1 0 1.5H2a.75.75 0 0 1-.75-.75m16.273-2.962a.75.75 0 1 0-1.046-1.076 9 9 0 0 1-.544.448l-.06.047c-.242.19-.526.413-.797.643a7 7 0 0 0-.828.797 2.7 2.7 0 0 0-.323.46 1.4 1.4 0 0 0-.175.643c0 .258.089.48.175.642.09.168.206.323.323.461.235.276.537.551.828.797.27.23.555.453.797.643l.06.047q.407.318.544.448a.75.75 0 1 0 1.046-1.076 9 9 0 0 0-.664-.551l-.057-.045c-.245-.193-.508-.4-.757-.61l-.007-.006H22a.75.75 0 0 0 0-1.5h-5.962l.007-.006c.249-.21.512-.417.757-.61l.057-.045c.245-.192.502-.394.664-.551" clip-rule="evenodd" opacity=".4"/></svg>