<svg xmlns="http://www.w3.org/2000/svg" fill="none" viewBox="0 0 24 24"><path fill="currentColor" fill-rule="evenodd" d="M13.207 7.02a.75.75 0 0 1-.07 1.058c-.017.015-.047.047-.086.17-.021.066-.04.138-.065.24l-.002.008a5 5 0 0 1-.09.331 1.85 1.85 0 0 1-.524.843c-.298.266-.682.42-1.14.489-.344.064-.467.169-.527.236-.085.097-.145.228-.251.522l-.016.044c-.094.26-.23.634-.49.982-.293.392-.711.715-1.32.94l-.012.004-.011.003c-.122.041-.249.066-.326.082q-.008 0-.017.003l-.082.017a.75.75 0 0 1-1.406-.501c.058-.239.176-.447.35-.61a1.3 1.3 0 0 1 .49-.287 3 3 0 0 1 .345-.088l.009-.002c.09-.018.129-.027.154-.034.355-.133.523-.289.625-.425.12-.161.189-.343.297-.64l.007-.02c.095-.263.237-.653.533-.986.329-.37.783-.607 1.39-.718l.013-.002.013-.002c.264-.039.35-.106.373-.126s.055-.058.095-.183c.02-.066.04-.138.064-.24l.003-.009c.022-.092.051-.21.09-.329a1.8 1.8 0 0 1 .526-.84.75.75 0 0 1 1.058.07m1.186 2.483a.75.75 0 0 1 .124 1.053c-.038.049-.077.12-.13.247l-.044.114a8 8 0 0 1-.142.353c-.081.182-.204.41-.41.61-.217.21-.49.354-.82.421l-.007.002c-.162.03-.263.127-.526.644l-.036.073c-.204.408-.59 1.18-1.49 1.353a.9.9 0 0 0-.374.173.75.75 0 1 1-.933-1.175 2.4 2.4 0 0 1 1.016-.469l.006-.001c.115-.022.196-.086.474-.634l.024-.047c.216-.426.611-1.209 1.555-1.39l.142.736-.149-.735c.064-.013.074-.028.074-.028a.5.5 0 0 0 .085-.147c.035-.076.054-.127.078-.193.021-.057.047-.125.09-.23a2.5 2.5 0 0 1 .34-.606.75.75 0 0 1 1.053-.124m2.589 1.303a.75.75 0 0 1 .093 1.056.8.8 0 0 0-.139.272c-.017.052-.032.1-.05.162l-.024.075a4 4 0 0 1-.111.32 2 2 0 0 1-.528.755c-.265.236-.604.415-1.026.553-.339.11-.48.24-.56.343-.102.13-.16.28-.271.575-.1.267-.246.65-.55 1.003-.315.365-.751.646-1.362.84a1.9 1.9 0 0 0-.614.35.75.75 0 0 1-.966-1.147 3.4 3.4 0 0 1 1.112-.629l.012-.004c.4-.126.581-.273.682-.39.113-.13.181-.284.282-.553l.021-.055c.09-.241.222-.593.47-.912.29-.371.697-.657 1.278-.847.287-.094.426-.186.495-.248a.5.5 0 0 0 .137-.202c.02-.051.04-.11.065-.191l.016-.053c.02-.067.046-.15.073-.23.074-.218.188-.486.408-.75a.75.75 0 0 1 1.057-.093" clip-rule="evenodd" opacity=".4"/><path fill="currentColor" fill-rule="evenodd" d="M14.842 1.52a.75.75 0 0 1 1.06.006l.693.7.004.005 5.354 5.419.01.01.576.583a.75.75 0 0 1-1.067 1.054l-.09-.09-.4.342c-.494.47-1.259 1.06-2.248.966-.764-.073-1.682-.332-2.438-.655a6 6 0 0 1-1.044-.56c-.264-.184-.608-.472-.746-.873l-.209-.601a47 47 0 0 1-.523-1.556c-.151-.498-.248-.922-.217-1.333.036-.47.237-.852.448-1.147.179-.251.398-.482.57-.662l.065-.07.035-.033.312-.292-.152-.153a.75.75 0 0 1 .007-1.06m1.2 2.281-.328.305-.053.057c-.18.19-.322.34-.436.499-.121.17-.165.291-.172.39-.009.111.011.305.156.782.11.363.272.828.498 1.477l.205.593c.01.01.057.068.198.167.187.13.453.272.775.41.647.276 1.412.486 1.99.54.298.029.638-.142 1.087-.571l.03-.027.334-.286zM5.776 15.223c-.475-.148-.667-.168-.778-.16-.097.006-.218.05-.388.17-.16.114-.31.255-.5.434l-.074.07-.311.292 4.325 4.335.285-.33.027-.031c.43-.447.603-.787.576-1.087-.051-.58-.257-1.349-.53-2a4.5 4.5 0 0 0-.405-.779c-.098-.142-.156-.19-.165-.2l-.59-.208a44 44 0 0 0-1.472-.506m3.337 6.206.092.092a.75.75 0 0 1-1.062 1.06L2.12 16.545l-.004-.005-.643-.644a.75.75 0 1 1 1.062-1.06l.13.131.343-.323q.035-.031.07-.067c.181-.17.412-.389.664-.567.295-.21.678-.41 1.148-.444.412-.03.835.07 1.331.225.392.121.895.3 1.55.532l.6.212c.4.14.686.487.868.753.206.3.393.667.553 1.049.319.76.572 1.68.64 2.446.088.988-.502 1.75-.973 2.243z" clip-rule="evenodd"/></svg>