<svg xmlns="http://www.w3.org/2000/svg" fill="none" viewBox="0 0 24 24"><path fill="currentColor" d="M11.397 22.749c-.369 0-.832-.113-1.394-.448l-1.794-1.072c-.09-.053-.331-.051-.425.004L5.996 22.3c-1.204.72-1.954.413-2.294.166-.341-.248-.866-.87-.55-2.249l.426-1.857c.022-.097-.042-.327-.113-.398l-1.488-1.501c-.623-.628-.861-1.36-.653-2.007.208-.645.824-1.099 1.69-1.245l1.916-.32a.6.6 0 0 0 .295-.223l1.059-2.134c.407-.816 1.032-1.284 1.715-1.284h.003c.683.001 1.306.47 1.708 1.285l1.054 2.128c.042.082.22.214.306.229l1.912.32c.87.147 1.488.602 1.695 1.249s-.034 1.38-.659 2.005l-1.485 1.499c-.072.072-.135.301-.114.403l.425 1.853c.317 1.382-.207 2.003-.545 2.251a1.5 1.5 0 0 1-.902.28zM8.002 19.69c.347 0 .693.084.974.251l1.793 1.071c.348.206.563.242.64.236.03-.074.065-.293-.027-.696l-.426-1.856c-.136-.605.08-1.356.51-1.79l1.489-1.501c.28-.281.302-.46.293-.49s-.13-.162-.516-.226l-1.913-.32c-.565-.096-1.153-.536-1.402-1.047l-1.053-2.124c-.174-.354-.336-.446-.367-.45-.03.004-.193.095-.371.451l-1.055 2.128c-.245.504-.831.944-1.39 1.041l-1.918.321c-.381.064-.502.196-.511.225-.01.03.012.211.29.491l1.488 1.501c.43.434.645 1.184.51 1.785l-.426 1.862c-.093.405-.056.623-.026.694.076.006.29-.026.638-.235l1.795-1.071c.287-.168.636-.252.982-.252z" opacity=".4"/><path fill="currentColor" fill-rule="evenodd" d="M16.53 1.47a.75.75 0 0 1 0 1.06l-5 5a.749.749 0 1 1-1.06-1.06l5-5a.75.75 0 0 1 1.06 0m6 0a.75.75 0 0 1 0 1.06l-8 8a.75.75 0 1 1-1.06-1.06l8-8a.75.75 0 0 1 1.06 0m-2 8a.75.75 0 0 1 0 1.06l-3 3a.75.75 0 1 1-1.06-1.06l3-3a.75.75 0 0 1 1.06 0" clip-rule="evenodd"/></svg>