<svg xmlns="http://www.w3.org/2000/svg" fill="none" viewBox="0 0 24 24"><path fill="currentColor" fill-rule="evenodd" d="M2.25 12.003c0-1.386.002-2.47.06-3.352.061-.926.187-1.68.462-2.374.838-2.114 2.603-3.766 4.818-4.543 1.272-.447 2.81-.481 5.368-.484h1.031c1.635 0 2.654 0 3.495.295 1.349.473 2.43 1.481 2.945 2.78.175.442.25.91.286 1.454.035.533.035 1.189.035 2.013V10a.75.75 0 1 1-1.5 0V7.818c0-.856 0-1.462-.032-1.94-.03-.47-.09-.764-.183-1-.347-.874-1.087-1.58-2.048-1.918-.567-.2-1.306-.21-3.169-.21h-.877a2.583 2.583 0 0 0-2.524 2.583q.001.219.014.483l.004.066c.007.155.015.324.018.492.008.38-.004.823-.119 1.251a2.42 2.42 0 0 1-1.709 1.71c-.428.114-.871.126-1.251.118a19 19 0 0 1-.492-.019l-.066-.003a11 11 0 0 0-.483-.014 2.583 2.583 0 0 0-2.583 2.578v2.732c0 1.553.001 2.652.1 3.499.098.829.282 1.323.585 1.704q.297.374.7.66c.417.293.963.47 1.86.564.909.095 2.086.096 3.732.096H13a.75.75 0 0 1 0 1.5h-2.316c-1.594 0-2.85 0-3.845-.104-1.017-.106-1.853-.327-2.568-.83a5 5 0 0 1-1.01-.952c-.545-.685-.786-1.49-.9-2.463-.111-.944-.111-2.132-.111-3.626zm7.523-9.172c-.693.057-1.217.153-1.686.318C6.26 3.79 4.836 5.14 4.167 6.83c-.195.49-.304 1.068-.36 1.92l-.003.044a4.07 4.07 0 0 1 2.53-.877c.185 0 .375.008.552.016l.068.003q.232.012.45.017c.341.008.614-.009.833-.068a.92.92 0 0 0 .648-.648c.06-.219.076-.492.068-.832q-.005-.219-.017-.451l-.003-.068a12 12 0 0 1-.016-.553c0-.943.32-1.811.856-2.502" clip-rule="evenodd"/><path fill="currentColor" fill-rule="evenodd" d="M15.173 17.111c0-2.038 1.472-3.861 3.484-3.861 1.317 0 2.42.8 3.006 1.907a.75.75 0 0 1-1.326.702c-.37-.7-1.008-1.109-1.68-1.109-1.008 0-1.984.963-1.984 2.361v.139h2.25a.75.75 0 0 1 0 1.5h-2.25v.139c0 1.398.976 2.361 1.984 2.361.672 0 1.31-.409 1.68-1.109a.75.75 0 1 1 1.326.702c-.586 1.107-1.69 1.907-3.006 1.907-2.012 0-3.484-1.823-3.484-3.861v-.139H15a.75.75 0 0 1 0-1.5h.173z" clip-rule="evenodd" opacity=".4"/></svg>