<svg xmlns="http://www.w3.org/2000/svg" fill="none" viewBox="0 0 24 24"><path fill="currentColor" fill-rule="evenodd" d="M8 12.25a.75.75 0 0 0 0 1.5h4a.75.75 0 0 0 0-1.5zm0 4a.75.75 0 0 0 0 1.5h8a.75.75 0 0 0 0-1.5z" clip-rule="evenodd" opacity=".4"/><path fill="currentColor" fill-rule="evenodd" d="M12.25 2.763c-.167-.01-.408-.013-.794-.013-1.64 0-2.806.001-3.701.106-.88.102-1.4.296-1.795.614a3.3 3.3 0 0 0-.49.49c-.318.395-.512.916-.614 1.795-.105.895-.106 2.06-.106 3.701V14c0 1.907.002 3.262.14 4.29.135 1.005.389 1.585.812 2.008s1.003.677 2.009.812c1.028.139 2.382.14 4.289.14s3.262-.002 4.29-.14c1.005-.135 1.585-.389 2.008-.812s.677-1.003.812-2.009c.138-1.027.14-2.382.14-4.289v-3.343c0-.438-.003-.715-.017-.907h-.288c-1.367 0-2.47 0-3.337-.116-.9-.121-1.658-.38-2.26-.982s-.86-1.36-.982-2.26c-.116-.867-.116-1.97-.116-3.337zm1.108-1.244c.428.205.764.542 1.19.969l.074.074 4.737 4.736.085.086c.495.493.886.884 1.097 1.392.21.509.21 1.062.21 1.76l-.001.121v3.4c0 1.837 0 3.293-.153 4.432-.158 1.173-.49 2.121-1.238 2.87-.749.748-1.698 1.08-2.87 1.238-1.14.153-2.595.153-4.433.153h-.112c-1.838 0-3.294 0-4.433-.153-1.172-.158-2.121-.49-2.87-1.238-.748-.749-1.08-1.697-1.238-2.87-.153-1.14-.153-2.595-.153-4.433V9.409c0-1.582 0-2.835.116-3.827.119-1.018.368-1.858.936-2.562a4.8 4.8 0 0 1 .717-.717c.704-.568 1.543-.817 2.562-.936.992-.116 2.245-.116 3.827-.116h.152c.604 0 1.08 0 1.527.157q.138.049.271.112m.393 2.293c.004 1.015.02 1.776.102 2.38.099.734.28 1.122.556 1.4.277.276.665.456 1.4.555.603.081 1.365.098 2.38.102z" clip-rule="evenodd"/></svg>