<svg xmlns="http://www.w3.org/2000/svg" fill="none" viewBox="0 0 24 24"><path fill="currentColor" fill-rule="evenodd" d="M16.29 2.89c-1.028-.138-2.383-.14-4.29-.14a.75.75 0 0 1 0-1.5h.056c1.838 0 3.294 0 4.433.153 1.172.158 2.121.49 2.87 1.238.748.749 1.08 1.698 1.238 2.87.153 1.14.153 2.595.153 4.433v3.52c0 .699.001 1.252-.21 1.76-.21.508-.601.899-1.096 1.392l-.085.086-4.737 4.736-.074.074c-.426.427-.762.764-1.19.969q-.132.063-.271.112c-.447.158-.923.158-1.527.157h-.152c-1.582 0-2.835 0-3.827-.116-1.019-.119-1.858-.368-2.562-.936a4.8 4.8 0 0 1-.717-.717c-.568-.704-.817-1.544-.936-2.562-.116-.992-.116-2.245-.116-3.827V12a.75.75 0 0 1 1.5 0v2.544c0 1.64.001 2.806.106 3.701.102.88.296 1.4.614 1.795q.219.271.49.49c.395.318.916.512 1.795.614.895.105 2.06.106 3.7.106.387 0 .628-.003.795-.013v-.292c0-1.367 0-2.47.117-3.337.12-.9.38-1.658.981-2.26.602-.602 1.36-.86 2.26-.982.867-.116 1.97-.116 3.337-.116h.288c.014-.192.017-.469.017-.907V10c0-1.907-.002-3.261-.14-4.29-.135-1.005-.389-1.585-.812-2.008s-1.003-.677-2.009-.812m1.898 12.861c-1.014.004-1.776.02-2.38.102-.734.099-1.122.28-1.399.556-.277.277-.457.665-.556 1.4-.081.603-.098 1.364-.102 2.38z" clip-rule="evenodd" opacity=".4"/><path fill="currentColor" fill-rule="evenodd" d="M5.19 4.739c-.234.296-.47.597-.652.784a.75.75 0 1 1-1.076-1.046c.113-.116.294-.342.548-.665l.056-.072c.228-.29.494-.63.768-.952.294-.347.618-.702.94-.976.16-.137.338-.269.526-.37.182-.097.424-.192.7-.192s.518.095.7.193c.188.1.366.232.527.37.32.273.645.628.94.975.273.323.539.661.767.952l.056.072a10 10 0 0 0 .548.665.75.75 0 1 1-1.076 1.046 11 11 0 0 1-.651-.784l-.054-.07c-.231-.294-.48-.611-.735-.912a12 12 0 0 0-.272-.31V10a.75.75 0 0 1-1.5 0V3.447q-.133.146-.272.31c-.254.3-.504.618-.735.913z" clip-rule="evenodd"/></svg>