<svg xmlns="http://www.w3.org/2000/svg" fill="none" viewBox="0 0 24 24"><path fill="currentColor" fill-rule="evenodd" d="M14.555 4.25h-2.11c-1.367 0-2.47 0-3.337.117-.9.12-1.658.38-2.26.981-.602.602-.86 1.36-.981 2.26-.117.867-.117 1.97-.117 3.337v5.11c0 1.367 0 2.47.117 3.337.12.9.38 1.658.981 2.26.602.602 1.36.86 2.26.982.867.116 1.97.116 3.337.116h1.519c.699 0 1.252.001 1.76-.21.508-.21.899-.601 1.392-1.096l.086-.085 2.657-2.657.085-.086c.495-.493.886-.884 1.097-1.392.21-.509.21-1.061.21-1.76l-.001-.12v-4.399c0-1.367 0-2.47-.116-3.337-.122-.9-.38-1.658-.982-2.26s-1.36-.86-2.26-.981c-.867-.117-1.97-.117-3.337-.117M7.909 6.409c.277-.277.665-.457 1.4-.556.755-.101 1.756-.103 3.191-.103h2c1.435 0 2.436.002 3.192.103.734.099 1.122.28 1.399.556.277.277.457.665.556 1.4.101.754.103 1.756.103 3.191v4.343q0 .232-.002.407h-.8c-.899 0-1.648 0-2.242.08-.628.084-1.195.27-1.65.725-.456.456-.642 1.023-.726 1.65-.08.595-.08 1.345-.08 2.243v.8l-.407.002H12.5c-1.435 0-2.437-.002-3.192-.103-.734-.099-1.122-.28-1.399-.556-.277-.277-.457-.665-.556-1.4-.101-.755-.103-1.756-.103-3.191v-5c0-1.435.002-2.437.103-3.192.099-.734.28-1.122.556-1.399m7.841 14.276c.107-.104.235-.23.391-.387l2.657-2.657q.232-.232.387-.391H19c-.964 0-1.612.002-2.095.067-.461.062-.659.169-.789.3s-.237.327-.3.788c-.064.483-.066 1.131-.066 2.095z" clip-rule="evenodd"/><path fill="currentColor" fill-rule="evenodd" d="M14.5 1.25H9.445c-1.367 0-2.47 0-3.337.117-.9.12-1.658.38-2.26.981-.602.602-.86 1.36-.981 2.26-.117.867-.117 1.97-.117 3.337V16a3.75 3.75 0 0 0 3.75 3.75.75.75 0 0 0 0-1.5A2.25 2.25 0 0 1 4.25 16V8c0-1.435.002-2.437.103-3.192.099-.734.28-1.122.556-1.399.277-.277.665-.457 1.4-.556.754-.101 1.756-.103 3.191-.103h5A2.25 2.25 0 0 1 16.75 5a.75.75 0 0 0 1.5 0 3.75 3.75 0 0 0-3.75-3.75m-4.498 7a.75.75 0 1 0 0 1.5h7a.75.75 0 0 0 0-1.5zm0 4a.75.75 0 1 0 0 1.5h4a.75.75 0 0 0 0-1.5z" clip-rule="evenodd" opacity=".4"/></svg>