<svg xmlns="http://www.w3.org/2000/svg" fill="none" viewBox="0 0 24 24"><path fill="currentColor" fill-rule="evenodd" d="M13.342 1.988a.75.75 0 0 1 .762-.738c2.376.039 4.078.205 5.255 1.382.748.749 1.08 1.698 1.238 2.87.153 1.14.153 2.597.153 4.436v3.522c0 .699.001 1.252-.21 1.76-.21.509-.601.9-1.096 1.393l-.085.086-4.737 4.739-.073.074c-.427.427-.763.764-1.19.969q-.134.064-.272.112c-.447.158-.923.158-1.527.157h-.152c-1.582 0-2.835 0-3.827-.116-1.019-.119-1.858-.369-2.563-.937a4.8 4.8 0 0 1-.716-.716c-.568-.705-.817-1.545-.936-2.564-.116-.992-.116-2.246-.116-3.828v-1.594a.75.75 0 1 1 1.5 0v1.545c0 1.642.001 2.808.106 3.703.102.88.296 1.402.614 1.796q.22.271.49.49c.395.319.916.513 1.795.615.895.105 2.06.106 3.7.106.387 0 .628-.003.795-.013v-.292c0-1.369 0-2.471.117-3.339.12-.9.38-1.659.981-2.26.602-.603 1.36-.862 2.26-.983.867-.117 1.97-.117 3.337-.117h.288c.014-.192.017-.469.017-.907V9.994c0-1.908-.002-3.263-.14-4.291-.135-1.007-.389-1.587-.812-2.01-.686-.687-1.75-.903-4.218-.943a.75.75 0 0 1-.738-.762m4.847 13.76c-1.015.003-1.777.02-2.38.102-.734.098-1.123.279-1.4.556s-.457.666-.556 1.4c-.081.604-.098 1.366-.102 2.382z" clip-rule="evenodd" opacity=".4"/><path fill="currentColor" fill-rule="evenodd" d="M8 1.25a.75.75 0 0 1 .75.75v.55a3.92 3.92 0 0 1 2.191 1.265l.666-.409a.75.75 0 1 1 .785 1.279l-.686.42a4.1 4.1 0 0 1 0 2.789l.686.421a.75.75 0 0 1-.784 1.279l-.667-.41a3.92 3.92 0 0 1-2.19 1.267V11a.75.75 0 0 1-1.5 0v-.55a3.92 3.92 0 0 1-2.192-1.265l-.667.409a.75.75 0 0 1-.784-1.279l.686-.42A4.1 4.1 0 0 1 4.05 6.5c0-.49.086-.959.244-1.394l-.686-.421a.75.75 0 0 1 .785-1.279l.666.409A3.92 3.92 0 0 1 7.25 2.549V2A.75.75 0 0 1 8 1.25m0 2.727c-1.337 0-2.45 1.114-2.45 2.523S6.663 9.023 8 9.023s2.45-1.114 2.45-2.523S9.337 3.977 8 3.977" clip-rule="evenodd"/></svg>