<svg xmlns="http://www.w3.org/2000/svg" fill="none" viewBox="0 0 24 24"><path fill="currentColor" fill-rule="evenodd" d="M12.25 2.763c-.167-.01-.408-.013-.794-.013-1.64 0-2.806.001-3.701.106-.879.103-1.4.296-1.795.614a3.3 3.3 0 0 0-.49.49c-.318.396-.512.917-.614 1.796-.105.896-.106 2.062-.106 3.703v4.546c0 1.908.002 3.263.14 4.291.135 1.007.389 1.587.812 2.01.696.697 1.777.908 4.309.944a.75.75 0 0 1-.022 1.5c-2.427-.035-4.158-.192-5.348-1.383-.748-.749-1.08-1.698-1.238-2.87-.153-1.14-.153-2.597-.153-4.435V9.41c0-1.582 0-2.836.116-3.828.119-1.02.368-1.859.936-2.564q.32-.396.716-.716c.705-.568 1.544-.818 2.563-.937.992-.116 2.245-.116 3.827-.116h.152c.604 0 1.08 0 1.527.157q.139.05.271.112c.428.205.764.542 1.19.97l.074.073L19.359 7.3l.085.085c.495.494.886.885 1.097 1.393.085.205.12.476.14.665.024.221.04.47.05.696a22 22 0 0 1 .019.79v.074a.75.75 0 0 1-1.5 0v-.063a19 19 0 0 0-.046-1.188h-.259c-1.367 0-2.47 0-3.337-.116-.9-.122-1.658-.38-2.26-.983-.602-.602-.86-1.36-.982-2.26-.116-.868-.116-1.97-.116-3.339zm1.501 1.05c.004 1.015.02 1.776.102 2.38.099.735.28 1.124.556 1.4.277.278.665.458 1.4.557.603.081 1.365.099 2.38.102z" clip-rule="evenodd" opacity=".4"/><path fill="currentColor" fill-rule="evenodd" d="M17.242 13.266a.75.75 0 0 1 .84.43c.1.222.4.84.813 1.39.206.274.421.504.631.66.211.158.368.204.475.204a.75.75 0 1 1 0 1.5c-.541 0-1.007-.23-1.371-.5a4 4 0 0 1-.483-.43v3.225c0 1.64-1.303 3.002-2.948 3.002s-2.949-1.361-2.949-3.002 1.303-3.003 2.948-3.003a2.9 2.9 0 0 1 1.45.386V14a.75.75 0 0 1 .594-.734m-.595 6.479c0-.847-.665-1.503-1.448-1.503-.784 0-1.449.656-1.449 1.503s.665 1.502 1.448 1.502c.784 0 1.45-.655 1.45-1.502" clip-rule="evenodd"/></svg>