<svg xmlns="http://www.w3.org/2000/svg" fill="none" viewBox="0 0 24 24"><path fill="currentColor" fill-rule="evenodd" d="M1.75 11.943v.114c0 2.19 0 3.912.18 5.255.186 1.377.573 2.469 1.43 3.327.86.858 1.951 1.245 3.328 1.43 1.343.181 3.064.181 5.255.181h.114c2.19 0 3.912 0 5.255-.18 1.377-.186 2.469-.573 3.327-1.43.858-.86 1.245-1.951 1.43-3.328.181-1.343.181-3.064.181-5.255v-.114c0-2.19 0-3.912-.18-5.255-.186-1.377-.573-2.469-1.43-3.327-.86-.858-1.951-1.245-3.328-1.43-1.343-.181-3.064-.181-5.255-.181h-.114c-2.19 0-3.912 0-5.255.18-1.377.186-2.469.573-3.327 1.43-.858.86-1.245 1.951-1.43 3.328-.181 1.343-.181 3.064-.181 5.255m2.672 7.635c-.533-.533-.842-1.256-1.005-2.466C3.252 15.88 3.25 14.26 3.25 12s.002-3.88.167-5.112c.163-1.21.472-1.933 1.005-2.466.432-.432.988-.717 1.828-.896v16.948c-.84-.179-1.396-.464-1.828-.896M7.75 12.75v7.92c1.105.079 2.482.08 4.25.08s3.145-.001 4.25-.08v-7.92zm8.5-1.5h-8.5V3.33c1.105-.079 2.482-.08 4.25-.08s3.145.001 4.25.08zm1.5.75v8.474c.84-.179 1.396-.464 1.828-.896.534-.533.842-1.256 1.005-2.466.165-1.232.167-2.852.167-5.112s-.002-3.88-.167-5.112c-.163-1.21-.471-1.933-1.005-2.466-.432-.432-.988-.717-1.828-.896z" clip-rule="evenodd"/><path fill="currentColor" fill-rule="evenodd" d="M3 15.25a.75.75 0 0 0 0 1.5h4a.75.75 0 0 0 0-1.5zm0-8a.75.75 0 0 0 0 1.5h4a.75.75 0 0 0 0-1.5zm14 8a.75.75 0 0 0 0 1.5h4a.75.75 0 0 0 0-1.5zm0-8a.75.75 0 0 0 0 1.5h4a.75.75 0 0 0 0-1.5z" clip-rule="evenodd" opacity=".4"/></svg>