<svg xmlns="http://www.w3.org/2000/svg" fill="none" viewBox="0 0 24 24"><path fill="currentColor" fill-rule="evenodd" d="M12 21.25a9.25 9.25 0 1 1 0-18.5 9.25 9.25 0 0 1 0 18.5M1.25 12c0 5.937 4.813 10.75 10.75 10.75S22.75 17.937 22.75 12 17.937 1.25 12 1.25 1.25 6.063 1.25 12" clip-rule="evenodd"/><path fill="currentColor" fill-rule="evenodd" d="M8 7.75a.75.75 0 0 0 0 1.5h8a.75.75 0 0 0 0-1.5zM8.25 12a.75.75 0 0 1 .75-.75h6a.75.75 0 0 1 0 1.5H9a.75.75 0 0 1-.75-.75m1 3.5a.75.75 0 0 1 .75-.75h4a.75.75 0 0 1 0 1.5h-4a.75.75 0 0 1-.75-.75" clip-rule="evenodd" opacity=".4"/></svg>