<svg xmlns="http://www.w3.org/2000/svg" fill="none" viewBox="0 0 24 24"><path fill="currentColor" fill-rule="evenodd" d="M5 13.25h-.05c-.664 0-1.237 0-1.696.062-.491.066-.963.215-1.345.597s-.531.853-.597 1.345c-.062.459-.062 1.032-.062 1.697v2.098c0 .665 0 1.238.062 1.697.066.492.215.963.597 1.345s.854.531 1.345.597c.459.062 1.032.062 1.697.062h14.098c.665 0 1.238 0 1.697-.062.492-.066.963-.215 1.345-.597s.531-.854.597-1.345c.062-.459.062-1.032.062-1.697v-2.098c0-.665 0-1.238-.062-1.697-.066-.492-.215-.963-.597-1.345s-.854-.531-1.345-.597c-.459-.062-1.032-.062-1.697-.062zm-2.25 5.5V19c0 .728.002 1.2.048 1.546.044.325.115.427.172.484s.159.128.484.172c.347.046.818.048 1.546.048h14c.728 0 1.2-.002 1.546-.048.325-.044.427-.115.484-.172s.128-.159.172-.484c.046-.347.048-.818.048-1.546v-.25zm18.5-1.5V17c0-.728-.002-1.2-.048-1.546-.044-.325-.115-.427-.172-.484s-.159-.128-.484-.172c-.347-.046-.818-.048-1.546-.048H5c-.728 0-1.2.002-1.546.048-.325.044-.427.115-.484.172s-.128.159-.172.484c-.046.347-.048.818-.048 1.546v.25z" clip-rule="evenodd"/><path fill="currentColor" fill-rule="evenodd" d="M12.254 1.294a.75.75 0 0 1 .486.584l.002.01.014.063q.02.093.085.292c.088.263.246.655.52 1.134.548.956 1.568 2.275 3.448 3.612 1.597 1.135 2.428 2.45 2.761 3.836a.75.75 0 0 1-1.458.35c-.241-1.003-.845-2.02-2.172-2.964-2.057-1.463-3.225-2.944-3.88-4.088a9 9 0 0 1-.351-.678 8 8 0 0 0-.78 1.241c-.655 1.307-1.026 3.042-.015 4.965a.75.75 0 0 1-.551 1.09c-1.4.214-2.416-.48-3.06-1.311a5.3 5.3 0 0 1-.58-.946c-.499.863-.842 1.743-.943 2.603a.75.75 0 0 1-1.49-.174C4.483 9.26 5.34 7.687 6.347 6.35a.75.75 0 0 1 1.336.312c.098.52.363 1.279.805 1.85q.254.332.564.532c-.578-1.96-.12-3.72.535-5.029a9.5 9.5 0 0 1 1.854-2.519l.042-.039.012-.011.005-.004.001-.001c.001-.001.001-.001.499.56l-.498-.561a.75.75 0 0 1 .752-.145M11.25 18a.75.75 0 0 0 1.5 0v-4a.75.75 0 0 0-1.5 0zm-5 4a.75.75 0 0 0 1.5 0v-4a.75.75 0 0 0-1.5 0zm10.75.75a.75.75 0 0 1-.75-.75v-4a.75.75 0 0 1 1.5 0v4a.75.75 0 0 1-.75.75" clip-rule="evenodd" opacity=".4"/></svg>