<svg xmlns="http://www.w3.org/2000/svg" fill="none" viewBox="0 0 24 24"><path fill="currentColor" fill-rule="evenodd" d="M8.947 5.25h6.106c1.605 0 2.881 0 3.881.126 1.028.13 1.877.404 2.554 1.038.683.64.985 1.456 1.126 2.442.136.946.136 2.15.136 3.648v1.992c0 1.497 0 2.702-.136 3.648-.141.986-.443 1.801-1.126 2.442-.677.634-1.526.908-2.554 1.038-1 .126-2.276.126-3.881.126H8.947c-1.605 0-2.881 0-3.881-.126-1.028-.13-1.877-.404-2.554-1.038-.683-.64-.985-1.456-1.126-2.442-.136-.946-.136-2.15-.136-3.648v-1.992c0-1.497 0-2.702.136-3.648.141-.986.443-1.801 1.126-2.442.677-.634 1.526-.908 2.554-1.038 1-.126 2.276-.126 3.881-.126M5.253 6.864c-.878.111-1.366.317-1.715.644-.342.32-.553.76-.667 1.56-.12.829-.121 1.925-.121 3.495v1.874c0 1.57.002 2.667.12 3.495.115.8.326 1.24.668 1.56.349.327.837.533 1.715.644.896.113 2.077.114 3.747.114h6c1.67 0 2.851-.001 3.747-.114.878-.111 1.366-.317 1.715-.644.342-.32.553-.76.668-1.56.118-.828.12-1.925.12-3.494v-1.876c0-1.569-.002-2.665-.12-3.493-.115-.802-.326-1.24-.668-1.56-.349-.328-.837-.534-1.715-.645C17.85 6.751 16.67 6.75 15 6.75H9c-1.67 0-2.851.001-3.747.114" clip-rule="evenodd"/><path fill="currentColor" fill-rule="evenodd" d="M7.75 6c0-.604.033-1.037.102-1.355.068-.309.16-.458.248-.545.087-.087.236-.18.545-.248.318-.07.75-.102 1.355-.102h4c.604 0 1.037.033 1.355.102.309.068.458.16.545.248.087.087.18.236.248.545.07.318.102.75.102 1.355a.75.75 0 0 0 1.5 0c0-.637-.032-1.199-.137-1.677-.107-.486-.3-.931-.652-1.284s-.798-.545-1.284-.652c-.478-.105-1.04-.137-1.677-.137h-4c-.637 0-1.199.032-1.677.137-.486.107-.931.3-1.284.652s-.545.798-.652 1.284C6.282 4.801 6.25 5.363 6.25 6a.75.75 0 0 0 1.5 0m5 4.5a.75.75 0 0 0-1.5 0v2.25H9a.75.75 0 0 0 0 1.5h2.25v2.25a.75.75 0 0 0 1.5 0v-2.25H15a.75.75 0 0 0 0-1.5h-2.25z" clip-rule="evenodd" opacity=".4"/></svg>