<svg xmlns="http://www.w3.org/2000/svg" fill="none" viewBox="0 0 24 24"><path fill="currentColor" fill-rule="evenodd" d="M15.53 2.792c1.283-.23 2.557.51 3.011 1.78.038.106.075.243.171.609l.028.107.006.024a.26.26 0 0 1-.178.296l-.104.029-14.431 3.94c-.226-.888-.305-1.3-.279-1.656.063-.847.5-1.614 1.18-2.087.353-.245.861-.395 2.255-.775l7.74-2.114c.36-.098.493-.133.601-.153m4.424 1.275c-.695-1.944-2.667-3.114-4.69-2.751a9 9 0 0 0-.69.172l-7.78 2.124-.152.041c-1.186.324-1.97.537-2.563.95a4.29 4.29 0 0 0-1.82 3.208c-.054.724.155 1.517.474 2.73l.017.064v4.452c0 1.602 0 2.882.139 3.887.144 1.04.45 1.895 1.144 2.569.69.671 1.562.964 2.622 1.103 1.03.134 2.344.134 3.996.134h3.198c1.652 0 2.966 0 3.996-.134 1.06-.139 1.931-.432 2.622-1.103.694-.674 1-1.53 1.144-2.57.139-1.004.139-2.284.139-3.886V13.45c0-.664 0-1.238-.064-1.698-.068-.496-.223-.97-.616-1.35-.39-.379-.867-.525-1.367-.59-.47-.062-1.056-.062-1.743-.062H9.093l9.766-2.666.02-.006a1.76 1.76 0 0 0 1.344-2.022 3 3 0 0 0-.055-.236l-.005-.02-.01-.04c-.083-.313-.137-.518-.2-.693m-2.042 7.183c.748 0 1.236.002 1.597.049.341.044.453.117.516.178.06.059.131.159.176.48.047.345.049.814.049 1.543V15c0 1.672-.002 2.848-.125 3.738-.12.866-.342 1.348-.703 1.7-.364.353-.87.573-1.772.69-.92.12-2.137.122-3.856.122h-3.088c-1.72 0-2.935-.001-3.856-.122-.902-.117-1.408-.337-1.772-.69-.361-.352-.583-.834-.703-1.7-.123-.89-.125-2.066-.125-3.738v-3.75z" clip-rule="evenodd"/><path fill="currentColor" fill-rule="evenodd" d="m16.712 2.24-2 6-1.423-.474 2-6zm-7 2-2 6-1.423-.474 2-6zM8 17.25a.75.75 0 0 0 0 1.5h3a.75.75 0 0 0 0-1.5z" clip-rule="evenodd" opacity=".4"/></svg>