<svg xmlns="http://www.w3.org/2000/svg" fill="none" viewBox="0 0 24 24"><path fill="currentColor" fill-rule="evenodd" d="M2.959 16.698q.224.06.45.06h.002c.876 0 1.807-.656 3.316-1.72C8.198 14.01 9.009 13.442 9.2 12.5c.07-.325.07-.668.002-.986-.193-.95-1.004-1.517-2.473-2.544-1.77-1.247-2.745-1.933-3.769-1.66l-.021.006a2.3 2.3 0 0 0-.93.532c-.759.712-.759 1.864-.759 4.157s0 3.444.758 4.156c.263.247.576.426.93.532zm2.903-2.886c-1.156.815-2.156 1.52-2.508 1.44a.8.8 0 0 1-.319-.184c-.285-.268-.285-1.44-.285-3.063 0-1.622 0-2.795.286-3.063a.8.8 0 0 1 .319-.184c.353-.079 1.353.625 2.511 1.442l.008.005c1.073.751 1.783 1.248 1.858 1.617a.9.9 0 0 1-.002.374c-.074.362-.786.86-1.865 1.614zm11.412 1.228c1.506 1.063 2.437 1.719 3.313 1.719q.225 0 .45-.06l.02-.007c.355-.106.668-.285.93-.532.76-.712.76-1.864.76-4.156 0-2.294 0-3.445-.758-4.157a2.3 2.3 0 0 0-.93-.532l-.021-.006c-1.024-.273-2 .414-3.767 1.661l-.001.001c-1.47 1.028-2.28 1.595-2.471 2.537a2.4 2.4 0 0 0-.002.985c.193.95 1.004 1.518 2.473 2.544zm.875-4.853c1.09-.768 2.038-1.436 2.433-1.436q.033 0 .06.006.185.057.319.184c.285.268.285 1.441.285 3.063s0 2.795-.286 3.063a.8.8 0 0 1-.32.184.3.3 0 0 1-.06.007c-.396 0-1.351-.674-2.448-1.447l-.002-.002-.008-.005c-1.073-.75-1.783-1.247-1.858-1.617a.9.9 0 0 1 .002-.374c.074-.362.786-.86 1.865-1.614l.003-.002z" clip-rule="evenodd"/><path fill="currentColor" d="M11.996 21.75a.75.75 0 0 1-.75-.75v-3.5a.75.75 0 0 1 1.5 0V21a.75.75 0 0 1-.75.75m0-7a.75.75 0 0 1-.75-.75v-4a.75.75 0 0 1 1.5 0v4a.75.75 0 0 1-.75.75m0-7.5a.75.75 0 0 1-.75-.75V3a.75.75 0 0 1 1.5 0v3.5a.75.75 0 0 1-.75.75" opacity=".4"/></svg>