<svg xmlns="http://www.w3.org/2000/svg" fill="none" viewBox="0 0 24 24"><path fill="currentColor" fill-rule="evenodd" d="M6 8.25a.75.75 0 0 0-.75.75v5a.75.75 0 0 0 1.5 0V9A.75.75 0 0 0 6 8.25M15.75 18a.75.75 0 0 0-.75-.75h-5a.75.75 0 0 0 0 1.5h5a.75.75 0 0 0 .75-.75" clip-rule="evenodd" opacity=".4"/><path fill="currentColor" fill-rule="evenodd" d="M5.95 1.25h.1c.782 0 1.443 0 1.97.07.56.076 1.079.243 1.498.662s.586.938.661 1.498c.071.527.071 1.188.071 1.97v.1c0 .782 0 1.443-.07 1.97-.076.56-.243 1.079-.662 1.498s-.938.586-1.498.661c-.527.071-1.188.071-1.97.071h-.1c-.782 0-1.443 0-1.97-.07-.56-.076-1.079-.243-1.498-.662s-.586-.938-.661-1.498c-.071-.527-.071-1.188-.071-1.97v-.1c0-.782 0-1.443.07-1.97.076-.56.243-1.079.662-1.498s.938-.586 1.498-.661c.527-.071 1.188-.071 1.97-.071M4.18 2.807c-.394.053-.543.142-.637.236s-.183.243-.236.637c-.055.415-.057.974-.057 1.82s.002 1.405.057 1.82c.053.394.142.543.236.637s.243.183.637.236c.415.055.974.057 1.82.057s1.405-.002 1.82-.057c.394-.053.543-.142.637-.236s.183-.243.236-.637c.055-.415.057-.974.057-1.82s-.002-1.405-.057-1.82c-.053-.394-.142-.543-.236-.637s-.243-.183-.637-.236C7.405 2.752 6.846 2.75 6 2.75s-1.405.002-1.82.057m1.26 12.204c-.312.238-.686.609-1.253 1.176s-.938.94-1.177 1.253c-.225.295-.26.447-.26.56s.035.265.26.56c.239.312.61.686 1.177 1.253s.94.938 1.253 1.177c.295.225.447.26.56.26s.265-.035.56-.26c.312-.239.686-.61 1.253-1.177s.938-.94 1.177-1.253c.225-.295.26-.447.26-.56s-.035-.265-.26-.56c-.239-.312-.61-.686-1.177-1.253s-.94-.938-1.253-1.177c-.295-.225-.447-.26-.56-.26s-.265.035-.56.26m-.91-1.193c.429-.327.897-.568 1.47-.568s1.041.24 1.47.568c.402.307.846.751 1.368 1.273l.071.071c.522.522.966.966 1.273 1.368.327.429.568.897.568 1.47s-.24 1.041-.568 1.47c-.307.402-.751.846-1.273 1.368l-.071.071c-.522.522-.966.966-1.368 1.273-.429.327-.897.568-1.47.568s-1.041-.24-1.47-.568c-.402-.307-.846-.751-1.368-1.273l-.071-.071c-.522-.522-.966-.966-1.273-1.368-.327-.429-.568-.897-.568-1.47s.24-1.041.568-1.47c.307-.402.751-.846 1.273-1.368l.036-.036.035-.035c.522-.522.966-.966 1.368-1.273m13.97-.068h-.05c-.782 0-1.443 0-1.97.07-.56.076-1.079.243-1.498.662s-.586.938-.661 1.498c-.071.527-.071 1.188-.071 1.97v.1c0 .782 0 1.443.07 1.97.076.56.243 1.079.662 1.498s.938.586 1.498.661c.527.071 1.188.071 1.97.071h.1c.782 0 1.443 0 1.97-.07.56-.076 1.079-.243 1.498-.662s.586-.938.661-1.498c.071-.527.071-1.188.071-1.97v-.1c0-.782 0-1.443-.07-1.97-.076-.56-.243-1.079-.662-1.498s-.938-.586-1.498-.661c-.527-.071-1.188-.071-1.97-.071zm-2.457 1.793c.094-.094.243-.183.637-.236.415-.055.974-.057 1.82-.057s1.405.002 1.82.057c.394.053.543.142.637.236s.183.243.236.637c.055.415.057.974.057 1.82s-.002 1.405-.057 1.82c-.053.394-.142.543-.236.637s-.243.183-.637.236c-.415.055-.974.057-1.82.057s-1.405-.002-1.82-.057c-.394-.053-.543-.142-.637-.236s-.183-.243-.236-.637c-.055-.415-.057-.974-.057-1.82s.002-1.405.057-1.82c.053-.394.142-.543.236-.637" clip-rule="evenodd"/></svg>