<svg xmlns="http://www.w3.org/2000/svg" fill="none" viewBox="0 0 24 24"><path fill="currentColor" fill-rule="evenodd" d="M12.006 17.25a.75.75 0 0 1 .75.75v3.25H20.5a.75.75 0 0 1 0 1.5h-17a.75.75 0 0 1 0-1.5h7.756V18a.75.75 0 0 1 .75-.75" clip-rule="evenodd" opacity=".4"/><path fill="currentColor" fill-rule="evenodd" d="M8.647 2.857c-.308-.099-.659-.107-1.688-.107-.929 0-1.576 0-2.079.045-.492.044-.772.125-.984.244a2.25 2.25 0 0 0-.857.857c-.119.212-.2.492-.244.985-.044.502-.045 1.15-.045 2.078V12c0 1.435.002 2.437.103 3.192.099.734.28 1.122.556 1.399.277.277.665.457 1.4.556.754.102 1.756.103 3.191.103h8c1.435 0 2.436-.002 3.192-.103.734-.099 1.122-.28 1.399-.556.277-.277.457-.665.556-1.4.101-.754.103-1.756.103-3.19v-.5c0-1.436-.002-2.437-.103-3.193-.099-.734-.28-1.122-.556-1.399-.277-.277-.665-.457-1.4-.556-.755-.101-1.756-.103-3.191-.103H8a.75.75 0 0 1 0-1.5h2.554l-.179-.25c-.601-.835-.813-1.115-1.072-1.307a2.3 2.3 0 0 0-.656-.336m3.755 1.893-.81-1.125-.066-.094c-.508-.706-.86-1.194-1.33-1.543a3.8 3.8 0 0 0-1.092-.56c-.559-.179-1.16-.178-2.03-.178h-.15c-.886 0-1.6 0-2.176.051-.594.053-1.114.165-1.588.431A3.75 3.75 0 0 0 1.732 3.16c-.266.474-.378.994-.43 1.588-.052.576-.052 1.29-.052 2.176v5.13c0 1.368 0 2.47.117 3.338.12.9.38 1.658.981 2.26.602.602 1.36.86 2.26.982.867.116 1.97.116 3.337.116h8.11c1.367 0 2.47 0 3.337-.116.9-.122 1.658-.38 2.26-.982s.86-1.36.982-2.26c.116-.867.116-1.97.116-3.337v-.61c0-1.367 0-2.47-.116-3.337-.122-.9-.38-1.658-.982-2.26s-1.36-.86-2.26-.981c-.867-.117-1.97-.117-3.337-.117z" clip-rule="evenodd"/></svg>