<svg xmlns="http://www.w3.org/2000/svg" fill="none" viewBox="0 0 24 24"><path fill="currentColor" fill-rule="evenodd" d="M8.936 3.393c-.352-.132-.769-.143-1.992-.143-.921 0-1.564 0-2.063.045-.488.043-.767.123-.977.24a2.25 2.25 0 0 0-.869.869c-.117.21-.197.489-.24.977-.044.5-.045 1.142-.045 2.063V10.5c0 2.378.002 4.086.176 5.387.172 1.278.5 2.049 1.069 2.618.57.57 1.34.897 2.619 1.069 1.3.174 3.008.176 5.386.176h.5a.75.75 0 0 1 0 1.5h-.557c-2.309 0-4.118 0-5.53-.19-1.444-.194-2.584-.6-3.479-1.494-.895-.895-1.3-2.035-1.494-3.48-.19-1.411-.19-3.22-.19-5.528V7.41c0-.88 0-1.588.05-2.16.052-.59.162-1.106.425-1.577a3.75 3.75 0 0 1 1.448-1.448c.47-.263.987-.373 1.577-.424.572-.05 1.28-.05 2.16-.05h.034l.139-.001c1.029 0 1.74 0 2.38.239 1.395.523 2.007 1.762 2.48 2.717l.094.192.426.852h4.327c1.02 0 1.841 0 2.5.067.681.07 1.271.216 1.793.565.41.274.761.625 1.035 1.035.336.502.491 1.015.564 1.66.068.6.068 1.363.068 2.373v.05a.75.75 0 0 1-1.5 0c0-1.072-.001-1.749-.058-2.255-.054-.474-.151-.74-.321-.995a2.3 2.3 0 0 0-.621-.62c-.235-.157-.55-.263-1.111-.32-.575-.059-1.32-.06-2.389-.06H7a.75.75 0 0 1 0-1.5h3.787l-.107-.213c-.554-1.107-.917-1.833-1.744-2.144" clip-rule="evenodd"/><path fill="currentColor" fill-rule="evenodd" d="M14.25 18.423c0 2.096 1.661 3.827 3.75 3.827s3.75-1.731 3.75-3.827v-2.461a.75.75 0 0 0-1.5 0v2.461c0 1.303-1.025 2.327-2.25 2.327s-2.25-1.024-2.25-2.327V15.04c0-.454.354-.789.75-.789s.75.335.75.789v3.384a.75.75 0 0 0 1.5 0V15.04c0-1.246-.99-2.289-2.25-2.289s-2.25 1.043-2.25 2.289z" clip-rule="evenodd" opacity=".4"/></svg>