<svg xmlns="http://www.w3.org/2000/svg" fill="none" viewBox="0 0 24 24"><path fill="currentColor" fill-rule="evenodd" d="M13.25 15.5a.75.75 0 0 1 .75-.75h8a.75.75 0 0 1 0 1.5h-8a.75.75 0 0 1-.75-.75m0 3a.75.75 0 0 1 .75-.75h8a.75.75 0 0 1 0 1.5h-8a.75.75 0 0 1-.75-.75m0 3a.75.75 0 0 1 .75-.75h4a.75.75 0 1 1 0 1.5h-4a.75.75 0 0 1-.75-.75" clip-rule="evenodd" opacity=".4"/><path fill="currentColor" fill-rule="evenodd" d="M8.936 3.393c-.352-.132-.769-.143-1.992-.143-.921 0-1.564 0-2.063.045-.488.043-.767.123-.977.24a2.25 2.25 0 0 0-.869.869c-.117.21-.197.489-.24.977-.044.5-.045 1.142-.045 2.063V10.5c0 2.378.002 4.086.176 5.387.172 1.278.5 2.049 1.069 2.618.507.507 1.171.82 2.207 1.005 1.057.188 2.428.23 4.301.238a.75.75 0 0 1-.006 1.5c-1.859-.008-3.355-.047-4.558-.261-1.225-.218-2.212-.628-3.005-1.421-.895-.895-1.3-2.035-1.494-3.48-.19-1.411-.19-3.22-.19-5.528V7.41c0-.88 0-1.588.05-2.16.052-.59.162-1.106.425-1.577a3.75 3.75 0 0 1 1.448-1.448c.47-.263.987-.373 1.577-.424.572-.05 1.28-.05 2.16-.05h.034l.139-.001c1.029 0 1.74 0 2.38.239 1.395.523 2.007 1.762 2.48 2.717l.094.192.426.852h4.327c1.02 0 1.841 0 2.5.067.681.07 1.271.216 1.793.565.41.274.761.625 1.035 1.035.359.537.5 1.205.566 1.924s.066 1.6.066 2.626V12a.75.75 0 0 1-1.5 0c0-1.066 0-1.879-.06-2.52-.06-.648-.172-1.01-.32-1.23a2.3 2.3 0 0 0-.62-.62c-.235-.157-.55-.263-1.111-.32-.575-.059-1.32-.06-2.389-.06H7a.75.75 0 0 1 0-1.5h3.787l-.107-.213c-.554-1.107-.917-1.833-1.744-2.144" clip-rule="evenodd"/></svg>