<svg xmlns="http://www.w3.org/2000/svg" fill="none" viewBox="0 0 24 24"><path fill="currentColor" fill-rule="evenodd" d="M8.938 3.393c-.352-.131-.77-.143-1.992-.143-.922 0-1.565 0-2.064.045-.489.043-.768.123-.978.24a2.25 2.25 0 0 0-.869.87c-.117.21-.197.49-.24.98-.044.499-.045 1.142-.045 2.065v3.059c0 2.38.002 4.091.176 5.393.172 1.28.5 2.051 1.07 2.622.876.877 2.203 1.162 5.023 1.226a.75.75 0 1 1-.034 1.5c-2.765-.063-4.699-.313-6.05-1.666-.896-.895-1.301-2.037-1.495-3.483-.19-1.413-.19-3.224-.19-5.535v-3.15c0-.88 0-1.59.05-2.163.052-.59.162-1.107.425-1.578.34-.608.84-1.11 1.448-1.449.471-.263.987-.373 1.577-.425.573-.05 1.282-.05 2.16-.05h.036l.138-.001c1.03 0 1.742 0 2.38.24 1.396.523 2.009 1.763 2.48 2.72l.096.191.426.854h4.328c1.02 0 1.841 0 2.501.067.68.069 1.271.216 1.793.565.41.274.761.626 1.035 1.036.36.538.498 1.208.563 1.928.064.705.064 1.568.064 2.57v.09a.75.75 0 0 1-1.5 0v-.03c0-1.054 0-1.858-.058-2.495-.058-.65-.17-1.011-.316-1.23a2.3 2.3 0 0 0-.622-.622c-.234-.157-.549-.263-1.111-.32-.575-.059-1.32-.06-2.39-.06H7.002a.75.75 0 0 1 0-1.5h3.789l-.108-.214c-.553-1.109-.917-1.836-1.744-2.147" clip-rule="evenodd"/><path fill="currentColor" fill-rule="evenodd" d="M17 14.25c-1.005 0-1.9.834-1.992 1.989a.75.75 0 0 1-.672.686c-.85.086-1.586.871-1.586 1.908 0 1.105.828 1.917 1.75 1.917h5.25c.784 0 1.5-.692 1.5-1.65 0-1.014-.83-1.654-1.507-1.65a.75.75 0 0 1-.752-.813c.108-1.275-.855-2.387-1.991-2.387m-3.398 1.298c.372-1.58 1.723-2.798 3.398-2.798 1.897 0 3.29 1.559 3.477 3.302A3.15 3.15 0 0 1 22.75 19.1c0 1.693-1.298 3.15-3 3.15H14.5c-1.84 0-3.25-1.576-3.25-3.417 0-1.529.97-2.87 2.352-3.285" clip-rule="evenodd" opacity=".4"/></svg>