<svg xmlns="http://www.w3.org/2000/svg" fill="none" viewBox="0 0 24 24"><path fill="currentColor" fill-rule="evenodd" d="M8.936 3.393c-.352-.132-.769-.143-1.992-.143-.921 0-1.564 0-2.063.045-.488.043-.767.123-.977.24a2.25 2.25 0 0 0-.869.869c-.117.21-.197.489-.24.977-.044.5-.045 1.142-.045 2.063V10.5c0 2.378.002 4.086.176 5.387.172 1.278.5 2.049 1.069 2.618.507.507 1.171.82 2.207 1.005 1.057.188 2.428.23 4.301.238a.75.75 0 0 1-.006 1.5c-1.859-.008-3.355-.047-4.558-.261-1.225-.218-2.212-.628-3.005-1.421-.895-.895-1.3-2.035-1.494-3.48-.19-1.411-.19-3.22-.19-5.528V7.41c0-.88 0-1.588.05-2.16.052-.59.162-1.106.425-1.577a3.75 3.75 0 0 1 1.448-1.448c.47-.263.987-.373 1.577-.424.572-.05 1.28-.05 2.16-.05h.034l.139-.001c1.029 0 1.74 0 2.38.239 1.395.523 2.007 1.762 2.48 2.717l.094.192.426.852h4.327c1.02 0 1.841 0 2.5.067.681.07 1.271.216 1.793.565.41.274.761.625 1.035 1.035.3.45.445.986.524 1.56.079.573.1 1.25.105 2.017a.75.75 0 1 1-1.5.012c-.005-.764-.026-1.356-.09-1.826-.066-.47-.166-.75-.286-.93a2.3 2.3 0 0 0-.621-.62c-.235-.157-.55-.263-1.111-.32-.575-.059-1.32-.06-2.389-.06H7a.75.75 0 0 1 0-1.5h3.787l-.107-.213c-.554-1.107-.917-1.833-1.744-2.144" clip-rule="evenodd"/><path fill="currentColor" fill-rule="evenodd" d="M13.753 13.3c1.503-.91 2.886-.552 3.728.073l.019.013.018-.013c.842-.625 2.225-.983 3.728-.072 1.094.662 1.665 2.015 1.463 3.498-.203 1.496-1.173 3.12-3.12 4.544l-.079.058c-.626.458-1.16.85-2.01.85-.852 0-1.385-.392-2.011-.85l-.08-.058c-1.946-1.423-2.916-3.048-3.119-4.544-.201-1.483.369-2.836 1.463-3.498m2.834 1.277c-.424-.314-1.147-.545-2.057.007-.49.296-.89 1.006-.754 2.013.135.995.813 2.287 2.519 3.535.73.534.884.618 1.205.618.32 0 .474-.084 1.204-.618 1.706-1.248 2.384-2.54 2.519-3.535.137-1.007-.264-1.717-.754-2.013-.91-.552-1.633-.321-2.057-.007l-.017.013c-.115.085-.229.17-.324.231-.051.033-.12.075-.197.11a.9.9 0 0 1-.374.083.9.9 0 0 1-.375-.084 1.5 1.5 0 0 1-.197-.109 7 7 0 0 1-.34-.244" clip-rule="evenodd" opacity=".4"/></svg>