<svg xmlns="http://www.w3.org/2000/svg" fill="none" viewBox="0 0 24 24"><path fill="currentColor" fill-rule="evenodd" d="M4.698 4.883 4.414 3.75H4l-.249.001L3.75 4v16.25H8l.249-.001.001-.25v-2a3.75 3.75 0 0 1 7.5 0v2l.001.25h4.499V4l-.001-.249L20 3.75h-.414l-.284 1.133c-.016.064-.04.164-.076.256a.95.95 0 0 1-.297.41.95.95 0 0 1-.47.189c-.098.012-.2.012-.267.012h-1.384c-.066 0-.17 0-.267-.012a.95.95 0 0 1-.47-.19.95.95 0 0 1-.297-.41 2 2 0 0 1-.076-.255l-.284-1.133H15l-.249.001L14.75 4v4.034c0 .206 0 .427-.025.615-.03.219-.105.5-.341.735a1.24 1.24 0 0 1-.735.341c-.188.025-.41.025-.614.025h-2.069c-.205 0-.427 0-.615-.025-.219-.03-.5-.105-.735-.341a1.24 1.24 0 0 1-.341-.735c-.025-.188-.025-.41-.025-.615V4l-.001-.249L9 3.75h-.414l-.284 1.133c-.016.064-.04.164-.076.256a.95.95 0 0 1-.298.41.95.95 0 0 1-.47.189c-.097.012-.2.012-.266.012H5.808c-.066 0-.17 0-.267-.012a.95.95 0 0 1-.47-.19.95.95 0 0 1-.297-.41 2 2 0 0 1-.076-.255M21.01 21.75h-5.045c-.206 0-.427 0-.615-.025-.219-.03-.5-.105-.735-.341l.53-.53-.53.53a1.24 1.24 0 0 1-.341-.736 5 5 0 0 1-.025-.614V18a2.25 2.25 0 0 0-4.5 0v2.034c0 .206 0 .427-.025.614-.03.22-.105.5-.341.736a1.24 1.24 0 0 1-.735.34 5 5 0 0 1-.615.026H2a.75.75 0 0 1 0-1.5h.25V3.966c0-.206 0-.427.025-.615.03-.219.105-.5.341-.735.236-.236.516-.312.735-.341.188-.025.41-.025.614-.025h.727c.066 0 .17 0 .267.012a.95.95 0 0 1 .47.19.95.95 0 0 1 .297.409c.035.092.06.192.076.256l.284 1.133h.828l.284-1.133c.016-.064.04-.164.076-.256a.95.95 0 0 1 .298-.41.95.95 0 0 1 .47-.189c.097-.012.2-.012.266-.012h.726c.206 0 .427 0 .615.025.219.03.5.105.735.341.236.236.311.516.341.735.025.188.025.41.025.615V8l.001.249.249.001h2l.249-.001L13.25 8V3.966c0-.206 0-.427.025-.615.03-.219.105-.5.341-.735.236-.236.516-.312.735-.341.188-.025.41-.025.614-.025h.727c.066 0 .17 0 .267.012a.95.95 0 0 1 .47.19.95.95 0 0 1 .297.409c.035.092.06.192.076.256l.284 1.133h.828l.284-1.133c.016-.064.04-.164.076-.256a.95.95 0 0 1 .297-.41.95.95 0 0 1 .47-.189c.098-.012.201-.012.267-.012h.727c.205 0 .427 0 .614.025.219.03.5.105.735.341.236.236.311.516.341.735.025.188.025.41.025.615V20.25H22a.75.75 0 0 1 0 1.5z" clip-rule="evenodd"/><path fill="currentColor" fill-rule="evenodd" d="M10.75 12a.75.75 0 0 1 .75-.75h1a.75.75 0 0 1 0 1.5h-1a.75.75 0 0 1-.75-.75m-5.5-3A.75.75 0 0 1 6 8.25h1a.75.75 0 1 1 0 1.5H6A.75.75 0 0 1 5.25 9M17 8.25a.75.75 0 0 0 0 1.5h1a.75.75 0 0 0 0-1.5z" clip-rule="evenodd" opacity=".4"/></svg>