<svg xmlns="http://www.w3.org/2000/svg" fill="none" viewBox="0 0 24 24"><path fill="currentColor" fill-rule="evenodd" d="M12.299 2.75a.744.744 0 0 0-.736.752v6.472a.75.75 0 0 1-1.5 0V3.502c0-1.236.993-2.252 2.236-2.252 1.193 0 2.156.937 2.231 2.106a2.25 2.25 0 0 1 3.02 2.037q.34-.119.725-.121a2.233 2.233 0 0 1 2.225 2.24v8.613c0 1.243-.462 2.56-1.691 4.039a1.48 1.48 0 0 0-.363.932V22a.75.75 0 0 1-1.5 0v-.904c0-.72.284-1.379.71-1.89C18.71 17.935 19 16.945 19 16.124V7.512a.733.733 0 0 0-.725-.74.736.736 0 0 0-.724.744v4.483a.75.75 0 0 1-1.5 0V5.477c0-.427-.34-.76-.743-.76a.777.777 0 0 0-.773.76v5.529a.75.75 0 0 1-1.5 0V3.502a.744.744 0 0 0-.736-.752" clip-rule="evenodd"/><path fill="currentColor" fill-rule="evenodd" d="M9.327 4.236a.744.744 0 0 0-.736.753v8.493a.75.75 0 0 1-1.5 0v-2.81q-.249.265-.499.543c-.681.76-1.255 1.49-1.48 1.955-.158.325-.142.727.007 1.182.144.439.383.833.548 1.086l2.773 3.687c.361.48.556 1.067.556 1.669V22a.75.75 0 0 1-1.5 0v-1.206c0-.278-.09-.548-.255-.767L4.438 16.3l-.014-.02c-.181-.278-.518-.815-.73-1.46-.21-.638-.33-1.484.067-2.303.329-.68 1.04-1.552 1.714-2.304a34 34 0 0 1 1.616-1.677V4.989c0-1.236.993-2.253 2.236-2.253a2.244 2.244 0 0 1 2.236 2.252.75.75 0 0 1-1.5 0 .744.744 0 0 0-.736-.752" clip-rule="evenodd" opacity=".4"/></svg>