<svg xmlns="http://www.w3.org/2000/svg" fill="none" viewBox="0 0 24 24"><path fill="currentColor" fill-rule="evenodd" d="M14.5 2.75a6.75 6.75 0 1 0 0 13.5 6.75 6.75 0 0 0 0-13.5M6.25 9.5a8.25 8.25 0 1 1 16.5 0 8.25 8.25 0 0 1-16.5 0" clip-rule="evenodd"/><path fill="currentColor" fill-rule="evenodd" d="M15 5.75a3.25 3.25 0 1 0 0 6.5 3.25 3.25 0 0 0 0-6.5M10.25 9a4.75 4.75 0 1 1 9.5 0 4.75 4.75 0 0 1-9.5 0m5.758 0a1 1 0 0 1-1 1h-.01a1 1 0 1 1 0-2h.01a1 1 0 0 1 1 1M9.53 15.53a.75.75 0 1 0-1.06-1.06l-7 7a.75.75 0 1 0 1.06 1.06z" clip-rule="evenodd" opacity=".4"/></svg>