<svg xmlns="http://www.w3.org/2000/svg" fill="none" viewBox="0 0 24 24"><path fill="currentColor" fill-rule="evenodd" d="M8.099 10.528q-.16.751-.34 1.624c-.64 3.08-1.085 5.16-1.6 6.457-.26.656-.571 1.202-1.006 1.58-.465.405-1.001.561-1.58.561-.781 0-1.338-.384-1.697-.883-.334-.463-.503-1.027-.604-1.482a.752.752 0 0 1 1.469-.325c.088.395.204.72.357.933.129.178.261.257.475.257.284 0 .448-.066.59-.19.17-.148.372-.436.597-1.002.455-1.147.872-3.068 1.525-6.21l.276-1.32H4.93a.751.751 0 1 1 0-1.5h1.953c.354-1.592.662-2.784 1-3.637.26-.656.571-1.202 1.007-1.58.464-.405 1-.561 1.579-.561.782 0 1.338.384 1.697.883.334.463.503 1.028.604 1.482a.752.752 0 0 1-1.469.325c-.088-.395-.204-.72-.357-.932-.129-.179-.26-.258-.475-.258-.284 0-.448.066-.59.19-.17.149-.372.436-.596 1.003-.28.703-.544 1.697-.858 3.085h2.044a.751.751 0 1 1 0 1.5z" clip-rule="evenodd"/><path fill="currentColor" fill-rule="evenodd" d="M12.33 11.31a.75.75 0 0 1 .4.983c-.674 1.58-.954 2.717-.944 3.788s.313 2.152.943 3.625a.75.75 0 0 1-.398.984.753.753 0 0 1-.987-.396c-.66-1.545-1.05-2.838-1.062-4.199-.014-1.361.35-2.716 1.062-4.388a.753.753 0 0 1 .986-.397m8.44 0a.753.753 0 0 1 .986.397c.712 1.672 1.076 3.026 1.063 4.388-.013 1.36-.403 2.654-1.063 4.199a.753.753 0 0 1-1.384-.588c.63-1.473.932-2.554.942-3.625.01-1.07-.27-2.207-.942-3.788a.75.75 0 0 1 .398-.983m-6.408 3.441c.388-.014.593.008.71.046a.2.2 0 0 1 .136.104c.114.233.286.604.473 1.01a8 8 0 0 1-.805.906c-.389.358-.643.445-.796.436a.75.75 0 1 0-.08 1.498c.78.042 1.426-.4 1.897-.833a7 7 0 0 0 .481-.495c.08.17.145.307.188.39l.024.048.03.043.013.019c.06.086.189.27.396.434.235.184.532.314.909.374l.052.008.765.013a.751.751 0 1 0 .026-1.5l-.653-.011a.4.4 0 0 1-.169-.064.4.4 0 0 1-.074-.088 54 54 0 0 1-.456-.976l.065-.085c.202-.263.399-.52.65-.77.356-.354.654-.506.917-.506a.751.751 0 1 0 0-1.5c-.863 0-1.526.493-1.98.944a6 6 0 0 0-.357.39l-.177-.368-.01-.02-.01-.018a1.7 1.7 0 0 0-.993-.811c-.383-.123-.81-.133-1.228-.117a.751.751 0 1 0 .056 1.499" clip-rule="evenodd" opacity=".4"/></svg>