<svg xmlns="http://www.w3.org/2000/svg" fill="none" viewBox="0 0 24 24"><path fill="currentColor" fill-rule="evenodd" d="M7.148 4.727a.75.75 0 0 0-.37-1.454l-1.963.5a.75.75 0 0 0 .37 1.454zm10.034-1.454a.75.75 0 1 0-.364 1.455l2 .5a.75.75 0 0 0 .364-1.455zM5.278 7.509c4.184-1.012 9.26-1.012 13.444 0 .519.126.934.5 1.132 1.03.528 1.409 1.17 3.892 1.39 7.318.101 1.591-.995 2.538-2.638 3.366-.075.037-.103.03-.141.015-.072-.028-.194-.11-.357-.304-.33-.391-.634-1.002-.907-1.618a2.57 2.57 0 0 0-2.373-1.53H9.172a2.57 2.57 0 0 0-2.373 1.53c-.273.616-.577 1.227-.906 1.618-.163.194-.286.276-.357.304-.038.015-.067.022-.141-.015-1.63-.822-2.74-1.76-2.638-3.366.219-3.426.861-5.91 1.389-7.319.198-.53.614-.903 1.132-1.029m13.797-1.458c-4.416-1.068-9.734-1.068-14.15 0-1.028.249-1.82.992-2.184 1.961-.584 1.56-1.254 4.19-1.481 7.75-.166 2.607 1.78 3.954 3.46 4.8a1.63 1.63 0 0 0 1.363.072c.399-.156.714-.445.957-.734.483-.573.86-1.366 1.13-1.976a1.07 1.07 0 0 1 1.002-.638h5.656c.45 0 .829.247 1.002.638.27.61.648 1.403 1.13 1.976.243.289.559.578.957.734.432.17.906.16 1.363-.072 1.7-.856 3.626-2.212 3.46-4.8-.227-3.56-.897-6.19-1.48-7.75-.364-.97-1.157-1.712-2.185-1.96" clip-rule="evenodd"/><path fill="currentColor" fill-rule="evenodd" d="M14.988 10a1 1 0 0 1 1-1h.01a1 1 0 0 1 0 2h-.01a1 1 0 0 1-1-1M9.53 9.47a.75.75 0 0 1 0 1.06l-.97.97.97.97a.75.75 0 1 1-1.06 1.06l-.97-.97-.97.97a.75.75 0 0 1-1.06-1.06l.97-.97-.97-.97a.75.75 0 1 1 1.06-1.06l.97.97.97-.97a.75.75 0 0 1 1.06 0M17.988 12a1 1 0 1 0 0 2h.01a1 1 0 0 0 0-2z" clip-rule="evenodd" opacity=".4"/></svg>