<svg xmlns="http://www.w3.org/2000/svg" fill="none" viewBox="0 0 24 24"><path fill="currentColor" fill-rule="evenodd" d="M6.529 10.23a5.75 5.75 0 0 1 5.473-3.98.75.75 0 0 0 0-1.5 7.25 7.25 0 0 0-6.9 5.02.75.75 0 0 0 1.427.46m-.21 2.656a.75.75 0 0 0-1.482.229c.123.793.374 1.545.732 2.232a.75.75 0 1 0 1.33-.694 5.7 5.7 0 0 1-.58-1.767m2.145 3.647a.75.75 0 0 0-.924 1.182 7.22 7.22 0 0 0 4.462 1.535.75.75 0 0 0 0-1.5 5.72 5.72 0 0 1-3.538-1.217M9.75 12A2.25 2.25 0 0 1 12 9.75v-1.5a3.75 3.75 0 1 0 0 7.5v-1.5A2.25 2.25 0 0 1 9.75 12" clip-rule="evenodd" opacity=".4"/><path fill="currentColor" fill-rule="evenodd" d="M12.75 4.765V2.78a9.2 9.2 0 0 1 3.217.861c-.348.365-.825.635-1.392.822a6.5 6.5 0 0 1-1.825.302m-1.5.736V21.22a9.25 9.25 0 0 1 0-18.44V5.5m1.5.765a8 8 0 0 0 2.295-.378c.825-.273 1.653-.734 2.241-1.48.64.446 1.22.97 1.727 1.56-.223.14-.455.244-.695.304-1.081.27-2.256.828-2.96 1.69-.365.444-.62.992-.631 1.625s.222 1.261.673 1.862c.167.223.324.426.474.621.21.272.406.527.597.791.317.438.56.823.715 1.184.151.353.208.66.177.955-.03.293-.153.636-.463 1.05-.416.554-.847 1.39-.801 2.26.024.459.181.92.529 1.32q.11.127.238.238a9.2 9.2 0 0 1-4.116 1.352zm5.387 12.655A9.23 9.23 0 0 0 21.25 12a9.2 9.2 0 0 0-1.352-4.818 4 4 0 0 1-1.216.545c-.919.23-1.744.671-2.164 1.185-.199.243-.287.476-.291.702-.005.227.074.536.373.935q.212.282.437.574c.226.292.451.586.649.858.338.468.658.959.878 1.473.224.521.355 1.089.291 1.7-.063.614-.315 1.209-.755 1.795-.323.43-.522.918-.503 1.283a.65.65 0 0 0 .163.414c.073.084.19.181.377.275M20.69 5.67A10.7 10.7 0 0 1 22.75 12c0 5.937-4.813 10.75-10.75 10.75S1.25 17.937 1.25 12 6.063 1.25 12 1.25a10.7 10.7 0 0 1 5.459 1.487 10.8 10.8 0 0 1 3.231 2.934" clip-rule="evenodd"/></svg>