<svg xmlns="http://www.w3.org/2000/svg" fill="none" viewBox="0 0 24 24"><path fill="currentColor" fill-rule="evenodd" d="M2.75 6.5a3.75 3.75 0 1 1 7.5 0 3.75 3.75 0 0 1-7.5 0M6.5 1.25A5.25 5.25 0 0 0 5.25 11.6v6.739c0 1.076 0 1.966.092 2.618.09.636.31 1.374 1.05 1.68.74.307 1.416-.06 1.93-.446.526-.396 1.155-1.025 1.916-1.786l10.167-10.167c.76-.76 1.39-1.39 1.786-1.916.386-.514.753-1.19.446-1.93-.306-.74-1.044-.96-1.68-1.05-.652-.092-1.542-.092-2.618-.092H11.6a5.25 5.25 0 0 0-5.1-4m5.244 5.5a5.25 5.25 0 0 1-4.994 4.994v6.532c0 1.154.002 1.936.077 2.47.038.263.085.404.122.474l.018.029.032-.008c.076-.024.209-.09.42-.249.432-.324.986-.876 1.803-1.692L19.3 9.222c.816-.817 1.368-1.37 1.692-1.802.16-.212.225-.345.249-.421l.008-.032-.029-.018c-.07-.037-.21-.084-.473-.122-.535-.075-1.317-.077-2.47-.077z" clip-rule="evenodd"/><path fill="currentColor" fill-rule="evenodd" d="M20.095 12.817c-.483-.065-1.131-.067-2.095-.067h-.5v-1.5h.552c.899 0 1.648 0 2.242.08.628.084 1.195.27 1.65.726.456.455.642 1.022.726 1.65.08.594.08 1.344.08 2.242v1.104c0 .899 0 1.648-.08 2.242-.084.628-.27 1.195-.726 1.65-.455.456-1.022.642-1.65.726-.594.08-1.343.08-2.242.08h-1.104c-.899 0-1.648 0-2.242-.08-.628-.084-1.195-.27-1.65-.726-.456-.455-.642-1.022-.726-1.65-.08-.594-.08-1.343-.08-2.242V16.5h1.5v.5c0 .964.002 1.612.066 2.095.063.461.17.659.3.789s.328.237.79.3c.482.064 1.13.066 2.094.066h1c.964 0 1.612-.002 2.095-.067.461-.062.659-.169.789-.3s.237-.327.3-.788c.064-.483.066-1.131.066-2.095v-1c0-.964-.002-1.612-.067-2.095-.062-.461-.169-.659-.3-.789s-.327-.237-.788-.3" clip-rule="evenodd" opacity=".4"/></svg>