<svg xmlns="http://www.w3.org/2000/svg" fill="none" viewBox="0 0 24 24"><path fill="currentColor" fill-rule="evenodd" d="M10.126 3.043a.75.75 0 0 1 .067.81 7.357 7.357 0 0 0 9.954 9.954.75.75 0 0 1 1.083.833c-1.022 4.362-4.936 7.61-9.61 7.61-5.451 0-9.87-4.419-9.87-9.87 0-4.674 3.248-8.588 7.61-9.61a.75.75 0 0 1 .766.273m-1.914 1.69A8.373 8.373 0 0 0 11.62 20.75a8.37 8.37 0 0 0 7.648-4.962A8.857 8.857 0 0 1 8.213 4.733" clip-rule="evenodd"/><path fill="currentColor" fill-rule="evenodd" d="M11.25 2.5a.75.75 0 0 1 .75-.75c5.66 0 10.25 4.59 10.25 10.25a.75.75 0 0 1-1.5 0A8.75 8.75 0 0 0 12 3.25a.75.75 0 0 1-.75-.75" clip-rule="evenodd" opacity=".4"/></svg>