<svg xmlns="http://www.w3.org/2000/svg" fill="none" viewBox="0 0 24 24"><path fill="currentColor" fill-rule="evenodd" d="M18.527 6.25H5.473c-.444 0-.818 0-1.122.022-.316.023-.623.073-.915.208a2.14 2.14 0 0 0-.843.681c-.204.282-.28.586-.313.879-.03.264-.03.581-.03.924v.072c0 .343 0 .66.03.924.033.292.11.597.313.879.174.242.401.438.657.585v3.632c0 1.602 0 2.881.135 3.884.14 1.037.435 1.89 1.11 2.565s1.528.97 2.565 1.11c1.003.135 2.282.135 3.884.135h2.112c1.602 0 2.881 0 3.884-.135 1.037-.14 1.89-.435 2.565-1.11s.97-1.528 1.11-2.565c.135-1.003.135-2.282.135-3.884v-3.632a2.1 2.1 0 0 0 .657-.585c.204-.282.28-.587.313-.879.03-.264.03-.581.03-.924v-.072c0-.343 0-.66-.03-.924-.033-.293-.11-.597-.313-.879a2.14 2.14 0 0 0-.843-.681c-.292-.135-.599-.185-.915-.208-.304-.022-.678-.022-1.122-.022m.723 5.495q-.324.006-.723.005H5.473q-.399.001-.723-.005V15c0 1.671.002 2.849.121 3.74.117.87.334 1.355.684 1.705s.835.567 1.704.683c.892.12 2.07.122 3.741.122h2c1.671 0 2.849-.002 3.74-.122.87-.116 1.355-.334 1.705-.683s.567-.835.683-1.704c.12-.892.122-2.07.122-3.741zM4.064 7.842c.056-.026.157-.057.395-.074.244-.018.563-.018 1.041-.018h13c.478 0 .797 0 1.04.018.239.017.34.048.396.074a.65.65 0 0 1 .255.197.1.1 0 0 1 .012.026 1 1 0 0 1 .027.143c.019.17.02.401.02.792s-.001.622-.02.792a1 1 0 0 1-.027.143.1.1 0 0 1-.012.026.64.64 0 0 1-.255.197c-.056.026-.157.057-.395.074-.244.018-.563.018-1.041.018h-13c-.478 0-.797 0-1.04-.018-.239-.017-.34-.048-.396-.074a.65.65 0 0 1-.255-.197.1.1 0 0 1-.012-.026 1 1 0 0 1-.027-.143c-.019-.17-.02-.401-.02-.792s.001-.622.02-.792a1 1 0 0 1 .027-.143.1.1 0 0 1 .012-.026.64.64 0 0 1 .255-.197" clip-rule="evenodd"/><path fill="currentColor" fill-rule="evenodd" d="M7.786 1.25A2.536 2.536 0 0 0 5.25 3.786 3.964 3.964 0 0 0 9.214 7.75h5.572a3.964 3.964 0 0 0 3.964-3.964c0-1.4-1.135-2.536-2.536-2.536h-.357c-1.614 0-3.034.83-3.857 2.087A4.6 4.6 0 0 0 8.143 1.25zm.357 1.5a3.107 3.107 0 0 1 3.107 3.107v.393H9.214A2.464 2.464 0 0 1 6.75 3.786c0-.572.464-1.036 1.036-1.036zm4.607 3.107v.393h2.036a2.464 2.464 0 0 0 2.464-2.464c0-.572-.464-1.036-1.036-1.036h-.357a3.107 3.107 0 0 0-3.107 3.107m0 5.143a.75.75 0 0 0-1.5 0v11a.75.75 0 0 0 1.5 0z" clip-rule="evenodd" opacity=".4"/></svg>