<svg xmlns="http://www.w3.org/2000/svg" fill="none" viewBox="0 0 24 24"><path fill="currentColor" fill-rule="evenodd" d="M6 4.75a1.25 1.25 0 1 0 0 2.5 1.25 1.25 0 0 0 0-2.5M3.25 6a2.75 2.75 0 1 1 5.5 0 2.75 2.75 0 0 1-5.5 0M12 16.75a1.25 1.25 0 1 0 0 2.5 1.25 1.25 0 0 0 0-2.5M9.25 18a2.75 2.75 0 1 1 5.5 0 2.75 2.75 0 0 1-5.5 0m7.5-12a1.25 1.25 0 1 1 2.5 0 1.25 1.25 0 0 1-2.5 0M18 3.25a2.75 2.75 0 1 0 0 5.5 2.75 2.75 0 0 0 0-5.5" clip-rule="evenodd"/><path fill="currentColor" fill-rule="evenodd" d="M17.96 7.86a.75.75 0 0 1 .778.72c.068 1.728-.178 2.835-.865 3.478-.346.323-.74.465-1.077.544-.166.04-.331.066-.474.088l-.07.01c-.12.019-.223.035-.326.055a1 1 0 0 1-.144.014h-3.03v2.964a.75.75 0 0 1-1.5 0V12.77H9.239c-1.797.107-2.974-.285-3.562-1.284-.269-.457-.36-.961-.395-1.41-.027-.336-.023-.7-.02-1.022l.001-.28a.75.75 0 0 1 1.5 0q0 .18-.002.344c-.002.306-.005.576.016.842.027.35.09.592.192.765.15.254.567.648 2.201.546l.047-.001h6.496c.111-.02.222-.037.32-.052l.06-.01c.14-.021.255-.04.36-.065.203-.048.315-.105.396-.18.165-.155.456-.642.39-2.323a.75.75 0 0 1 .72-.779" clip-rule="evenodd" opacity=".4"/></svg>