<svg xmlns="http://www.w3.org/2000/svg" fill="none" viewBox="0 0 24 24"><path fill="currentColor" fill-rule="evenodd" d="M13.03 3.031a.75.75 0 1 0-1.06-1.062 9 9 0 0 1-.545.46l-.06.048c-.242.194-.526.423-.797.659-.29.252-.592.534-.825.816-.118.141-.233.3-.321.47a1.4 1.4 0 0 0-.172.642c0 .256.086.479.172.643.088.17.203.328.32.469.234.282.536.564.826.816.271.236.556.465.798.66l.06.048c.27.218.453.368.544.46a.75.75 0 0 0 1.06-1.063 10 10 0 0 0-.663-.565l-.057-.046c-.246-.198-.509-.41-.758-.626l-.053-.046H13c1.436 0 2.435.002 3.19.106.73.1 1.117.284 1.394.569.28.287.463.692.563 1.45.102.778.103 1.808.103 3.279v6.154a.75.75 0 0 0 1.5 0v-6.208c0-1.405 0-2.533-.116-3.42-.12-.917-.377-1.688-.976-2.302-.6-.617-1.36-.884-2.264-1.008-.868-.12-1.971-.12-3.338-.12H11.5l.052-.046c.249-.216.512-.428.758-.626l.056-.046a10 10 0 0 0 .664-.565M5.75 7.63a.75.75 0 1 0-1.5 0v6.208c0 1.404 0 2.533.116 3.42.12.917.377 1.688.976 2.302.6.616 1.36.883 2.264 1.008.868.12 1.971.12 3.338.12H12.5l-.052.046c-.249.216-.512.427-.758.625l-.056.046a10 10 0 0 0-.664.565.75.75 0 0 0 1.06 1.063c.091-.092.273-.241.545-.46l.06-.048c.242-.195.526-.424.797-.66.29-.252.591-.534.825-.816.118-.141.233-.3.321-.469.086-.164.172-.386.172-.643a1.4 1.4 0 0 0-.172-.642 2.7 2.7 0 0 0-.32-.47 7.4 7.4 0 0 0-.826-.816 28 28 0 0 0-.798-.66l-.06-.047a9 9 0 0 1-.544-.46.75.75 0 0 0-1.06 1.063c.162.16.419.367.663.565l.057.046c.246.197.509.409.758.625l.053.046H11c-1.436 0-2.436-.001-3.19-.105-.73-.1-1.117-.285-1.394-.57-.28-.287-.463-.692-.563-1.45-.101-.777-.103-1.807-.103-3.278z" clip-rule="evenodd" opacity=".4"/><path fill="currentColor" fill-rule="evenodd" d="M3.75 5.065c0-.737.577-1.301 1.25-1.301s1.25.564 1.25 1.3c0 .738-.577 1.302-1.25 1.302s-1.25-.564-1.25-1.301M5 2.264c-1.537 0-2.75 1.272-2.75 2.8 0 1.53 1.213 2.802 2.75 2.802s2.75-1.272 2.75-2.801S6.537 2.264 5 2.264m12.75 17.16c0-.736.577-1.301 1.25-1.301s1.25.565 1.25 1.301c0 .737-.577 1.302-1.25 1.302s-1.25-.565-1.25-1.302M19 16.623c-1.537 0-2.75 1.272-2.75 2.801s1.213 2.802 2.75 2.802 2.75-1.273 2.75-2.802-1.213-2.801-2.75-2.801" clip-rule="evenodd"/></svg>