<svg xmlns="http://www.w3.org/2000/svg" fill="none" viewBox="0 0 24 24"><path fill="currentColor" fill-rule="evenodd" d="M18.731 12.553a2.15 2.15 0 0 1 2.144-.032c.28.155.527.408.807.696l.064.065.063.065c.283.287.53.539.68.822a2.23 2.23 0 0 1-.03 2.15c-.16.28-.414.523-.704.802l-.065.063-4.232 4.076-.093.09c-.582.561-1.023.986-1.586 1.206-.566.221-1.175.205-1.975.183l-.128-.003-.126-.004h-.026a3 3 0 0 1-.405-.03 1.02 1.02 0 0 1-.617-.328 1.04 1.04 0 0 1-.25-.643c-.007-.135.005-.29.014-.409l.002-.025.013-.156.008-.109c.054-.703.095-1.227.304-1.708.21-.482.564-.866 1.038-1.378l.073-.08 4.178-4.526.062-.067c.272-.296.512-.556.787-.72m1.416 1.28a.65.65 0 0 0-.65.01c-.06.035-.14.11-.513.514l-4.178 4.527c-.578.627-.742.818-.837 1.038-.096.22-.125.473-.191 1.316.937.024 1.213.016 1.455-.079.249-.097.466-.287 1.185-.98l4.231-4.075c.394-.38.47-.463.506-.527a.73.73 0 0 0 .01-.703c-.035-.066-.108-.152-.49-.543-.384-.392-.467-.465-.528-.499" clip-rule="evenodd" opacity=".4"/><path fill="currentColor" fill-rule="evenodd" d="M10.812 22.15a.75.75 0 0 0-.585-.885 9 9 0 0 1-.846-.214c.585-1.037.374-2.157.055-3.07-.267-.764-.368-1.065-.42-1.415-.056-.366-.058-.795-.058-1.814 0-.99-.11-1.953-.86-2.567-.36-.296-.804-.455-1.287-.545s-1.056-.122-1.722-.122c-.845 0-1.61-.34-2.238-.798A9.36 9.36 0 0 1 9.26 3.19q-.03.41.038.807c.138.792.589 1.539 1.416 1.94.315.153.442.307.511.436.084.155.125.343.172.654l.015.104c.085.596.215 1.506 1.22 2.157.68.44 1.53.598 2.432.333.884-.26 1.756-.908 2.568-1.96.536-.693 1.275-1.025 1.967-1.155a9.3 9.3 0 0 1 1.667 3.706.75.75 0 1 0 1.47-.301C21.72 4.968 17.347 1.25 12.103 1.25 6.11 1.25 1.25 6.108 1.25 12.102c0 5.249 3.726 9.625 8.678 10.633a.75.75 0 0 0 .884-.585m-8.057-9.727a9.35 9.35 0 0 0 5.204 8.065c.388-.511.368-1.133.061-2.012L8 18.419c-.241-.692-.393-1.127-.468-1.631-.074-.49-.074-1.04-.074-1.962v-.074c0-.997-.15-1.276-.31-1.407-.094-.077-.268-.166-.613-.231-.347-.065-.812-.096-1.446-.096a5 5 0 0 1-2.334-.595m8.02-8.682a2.1 2.1 0 0 1 .062-.906 9 9 0 0 1 1.266-.085c2.466 0 4.708.954 6.38 2.513a4.5 4.5 0 0 0-2.039 1.481c-.686.89-1.314 1.293-1.804 1.438-.474.139-.873.054-1.193-.153-.427-.276-.47-.562-.564-1.196l-.004-.027c-.046-.31-.113-.735-.335-1.146-.236-.436-.612-.798-1.176-1.073-.32-.155-.523-.444-.593-.846" clip-rule="evenodd"/></svg>