<svg xmlns="http://www.w3.org/2000/svg" fill="none" viewBox="0 0 24 24"><path fill="currentColor" fill-rule="evenodd" d="M19.047 14.154c-1.18-.588-2.576-.579-3.716.319a.75.75 0 1 1-.928-1.178c1.666-1.313 3.7-1.287 5.312-.484 1.598.795 2.863 2.39 3.008 4.329l.003.047c.018.242.04.531.004.78a1.24 1.24 0 0 1-.556.893c-.381.25-.774.23-1.097.13-.254-.077-.534-.226-.792-.362l-.044-.024-.85-.45a.75.75 0 0 1 .702-1.326l.85.45.297.156-.013-.183c-.1-1.338-.987-2.504-2.18-3.098m-4.334 2.201.045.024.849.45a.75.75 0 0 1-.702 1.325l-.85-.45-.294-.154.014.177c.106 1.328.993 2.498 2.179 3.103 1.173.598 2.541.599 3.637-.267a.75.75 0 0 1 .93 1.177c-1.64 1.295-3.656 1.238-5.249.426-1.58-.805-2.839-2.398-2.992-4.32l-.004-.047c-.02-.24-.043-.53-.008-.78a1.24 1.24 0 0 1 .555-.893c.38-.252.774-.233 1.098-.134.254.078.534.226.792.363" clip-rule="evenodd" opacity=".4"/><path fill="currentColor" fill-rule="evenodd" d="M11.757 22.074a.75.75 0 0 0-.672-.82 9 9 0 0 1-1.644-.316c.51-1.005.302-2.078-.005-2.956-.267-.765-.368-1.066-.42-1.416-.056-.366-.058-.795-.058-1.814 0-.99-.11-1.953-.86-2.567-.36-.296-.804-.455-1.287-.545s-1.056-.122-1.722-.122c-.849 0-1.618-.344-2.247-.805A9.28 9.28 0 0 1 9.26 3.166c-.022.28-.01.56.036.83.138.793.589 1.54 1.416 1.94.315.154.442.308.511.437.084.155.125.343.172.654l.015.104c.085.596.215 1.506 1.22 2.157.68.44 1.53.598 2.432.333.884-.26 1.756-.908 2.568-1.96.505-.652 1.189-.985 1.844-1.13a9.23 9.23 0 0 1 1.777 4.85.75.75 0 0 0 1.496-.102c-.383-5.603-5.042-10.03-10.736-10.03C6.067 1.25 1.25 6.076 1.25 12.026c0 5.586 4.247 10.18 9.687 10.721a.75.75 0 0 0 .82-.672m-8.999-9.65a9.28 9.28 0 0 0 5.265 7.974c.32-.494.286-1.094-.003-1.922L8 18.419c-.241-.692-.393-1.127-.468-1.631-.074-.49-.074-1.04-.074-1.962v-.074c0-.997-.15-1.276-.31-1.407-.094-.077-.268-.166-.613-.231-.347-.065-.812-.096-1.446-.096a5 5 0 0 1-2.33-.594m8.017-8.683a2.1 2.1 0 0 1 .066-.918 9 9 0 0 1 1.17-.073c2.472 0 4.717.969 6.378 2.548-.69.27-1.384.72-1.945 1.446-.686.89-1.314 1.293-1.804 1.438-.474.139-.873.054-1.193-.153-.427-.276-.47-.562-.564-1.196l-.004-.027c-.046-.31-.113-.735-.335-1.146-.236-.436-.612-.799-1.176-1.073-.32-.155-.523-.444-.593-.846" clip-rule="evenodd"/></svg>