<svg xmlns="http://www.w3.org/2000/svg" fill="none" viewBox="0 0 24 24"><path fill="currentColor" fill-rule="evenodd" d="M12 2.75a9.25 9.25 0 1 1-5.55 1.849.75.75 0 0 0-.9-1.2A10.74 10.74 0 0 0 1.25 12c0 5.937 4.813 10.75 10.75 10.75S22.75 17.937 22.75 12 17.937 1.25 12 1.25q-.254 0-.506.012l-.049.002c-.286.013-.593.027-.84.083-.304.07-.669.234-.87.65-.21.43-.093.831.04 1.106.116.235.302.495.482.748l.029.04 1.104 1.545a.75.75 0 1 0 1.22-.872L11.506 3.02l-.175-.248.232-.01q.217-.011.437-.011" clip-rule="evenodd"/><path fill="currentColor" fill-rule="evenodd" d="M9.684 10.255A1.25 1.25 0 0 1 10.91 9.25H14a.75.75 0 0 1 0 1.5h-2.885l-.152.758a6 6 0 0 1 1.108-.115 2.679 2.679 0 1 1 0 5.357h-.07c-.377 0-.922.002-1.405-.155a1.94 1.94 0 0 1-.802-.487 1.94 1.94 0 0 1-.494-.942.75.75 0 0 1 1.463-.332.46.46 0 0 0 .107.229.45.45 0 0 0 .19.105c.24.079.56.082 1.011.082a1.179 1.179 0 0 0 0-2.357c-.514 0-.99.116-1.58.26l-.317.077a.75.75 0 0 1-.91-.877z" clip-rule="evenodd" opacity=".4"/></svg>