<svg xmlns="http://www.w3.org/2000/svg" fill="none" viewBox="0 0 24 24"><path fill="currentColor" fill-rule="evenodd" d="M9.236 16.887a.75.75 0 0 1-.63.853c-1.269.19-2.302.514-2.995.886-.347.186-.578.368-.714.524-.133.153-.145.244-.145.276 0 .037.02.184.311.42.285.232.743.474 1.376.691 1.257.433 3.043.713 5.05.713 2.008 0 3.793-.28 5.05-.713.633-.217 1.091-.46 1.376-.69.291-.237.312-.384.312-.42 0-.032-.011-.126-.164-.286-.156-.164-.42-.352-.815-.54-.786-.376-1.947-.687-3.353-.858a.75.75 0 0 1 .18-1.49c1.503.183 2.837.525 3.82.995.49.234.928.517 1.254.858.328.345.578.79.578 1.32 0 .674-.399 1.205-.866 1.584-.472.384-1.11.697-1.834.946-1.452.5-3.41.794-5.538.794-2.127 0-4.085-.295-5.538-.794-.722-.249-1.361-.562-1.834-.946-.466-.38-.865-.91-.865-1.584 0-.495.219-.922.515-1.262.293-.336.69-.62 1.135-.86.892-.478 2.105-.84 3.48-1.047a.75.75 0 0 1 .854.63" clip-rule="evenodd" opacity=".4"/><path fill="currentColor" fill-rule="evenodd" d="M11.72 6.34c.015-1.472.064-2.548.173-3.264a.9.9 0 0 1 .13-.259c.018-.02.04-.047.136-.06.126-.018.376-.009.823.135.442.141 1.03.4 1.812.829l.03.016 2.173 1.067c.675.331 1.382.716 1.829 1.136.22.207.321.371.356.485.024.079.03.167-.058.312-.227.38-.846.952-2.346 1.593l-.034.015-5.011 2.447v-.048a268 268 0 0 1-.013-4.403m1.72-4.876c.563.18 1.238.483 2.06.934l2.158 1.06c.667.327 1.565.797 2.195 1.388.317.298.623.678.764 1.143.152.5.091 1.024-.206 1.52-.47.783-1.435 1.511-3.026 2.193l-5.636 2.75c0 .205.003.365.005.564.007.65.018 1.708.03 6.031a.75.75 0 0 1-1.5.005 770 770 0 0 0-.03-6.027c-.003-.31-.006-.53-.007-.943l-.006-.089-.009-1.232a263 263 0 0 1-.011-4.435c.015-1.516.065-2.717.203-3.558a1 1 0 0 1 .032-.127c.075-.213.194-.525.425-.796.254-.298.608-.51 1.072-.574.435-.06.928.013 1.488.193" clip-rule="evenodd"/></svg>