<svg xmlns="http://www.w3.org/2000/svg" fill="none" viewBox="0 0 24 24"><path fill="currentColor" fill-rule="evenodd" d="M4.25 10v4.203c-.18 1.124-.816 3.515-2.763 5.34a.75.75 0 0 0-.127.938c.447.735 1.373 1.617 2.737 2.032 1.388.422 3.161.341 5.25-.747l-.694-1.33c-1.788.932-3.156.935-4.12.642a3.6 3.6 0 0 1-1.537-.926c1.946-2.1 2.568-4.612 2.745-5.778a1 1 0 0 0 .009-.113V10zm14.003 0v4.261q0 .057.008.113c.178 1.166.8 3.678 2.746 5.778a3.6 3.6 0 0 1-1.538.926c-.963.293-2.33.29-4.12-.642l-.693 1.33c2.088 1.088 3.861 1.17 5.25.747 1.364-.415 2.29-1.297 2.737-2.032a.75.75 0 0 0-.127-.937c-1.947-1.826-2.583-4.217-2.763-5.341V10z" clip-rule="evenodd" opacity=".4"/><path fill="currentColor" fill-rule="evenodd" d="M9.084 3.976c.816-.446 1.383-.755 1.854-.958.456-.196.768-.268 1.062-.268s.606.072 1.063.268c.47.203 1.037.512 1.853.958l4.727 2.583c.681.373 1.113.611 1.389.822.13.1.185.164.207.198l.01.018.001.002v.004l-.002.004-.008.018a1 1 0 0 1-.197.218c-.256.23-.663.5-1.299.917l-.82.432c-2.022-.6-4.395-.942-6.924-.942s-4.902.342-6.924.942l-.82-.432c-.636-.417-1.042-.687-1.3-.917a1 1 0 0 1-.204-.236l-.002-.005v-.005l.01-.018a1 1 0 0 1 .208-.198c.276-.21.708-.45 1.39-.822zM4.25 10.453l-.757-.4-.079-.05c-.59-.387-1.103-.724-1.459-1.044-.377-.338-.726-.787-.704-1.413.022-.627.404-1.05.806-1.357.378-.289.915-.582 1.529-.918l.052-.028 4.758-2.6c.777-.425 1.406-.769 1.948-1.002.564-.243 1.086-.391 1.656-.391s1.092.148 1.656.39c.542.234 1.17.578 1.948 1.002l4.81 2.63c.614.335 1.15.628 1.529.917.402.308.784.73.806 1.357.022.626-.327 1.075-.704 1.413-.356.32-.87.657-1.46 1.043l-.078.052-.757.399V13.5a.75.75 0 0 1-.975.715C16.85 13.61 14.52 13.25 12 13.25s-4.85.359-6.775.965a.75.75 0 0 1-.975-.715zm1.5.106v1.946c1.867-.483 3.997-.755 6.25-.755s4.383.272 6.25.755V10.56c-1.817-.511-3.955-.809-6.25-.809s-4.433.298-6.25.809m1.75 4.69a.75.75 0 0 1 .75.75v1.349c0 1.197.56 2.268 1.417 2.846l.9.607c.887.597 1.98.597 2.866 0l.9-.607c.857-.578 1.417-1.65 1.417-2.846V16a.75.75 0 0 1 1.5 0v1.349c0 1.644-.767 3.206-2.079 4.09l-.9.607a4.01 4.01 0 0 1-4.542 0l-.9-.607c-1.312-.884-2.079-2.446-2.079-4.09V16a.75.75 0 0 1 .75-.75" clip-rule="evenodd"/></svg>