<svg xmlns="http://www.w3.org/2000/svg" fill="none" viewBox="0 0 24 24"><path fill="currentColor" fill-rule="evenodd" d="M16.21 3.19c-1.174-.727-2.124-.426-2.687.001l-.018.014a8 8 0 0 1-.39.285c-.06.04-.135.086-.22.124a.95.95 0 0 1-.394.09.95.95 0 0 1-.396-.09 2 2 0 0 1-.219-.124c-.111-.074-.247-.177-.39-.285l-.018-.014c-.563-.427-1.513-.728-2.687 0-.667.412-1.182 1.38-1.006 2.708.174 1.31 1.04 2.968 3.151 4.547.888.663 1.116.804 1.565.804s.677-.14 1.564-.804c2.111-1.579 2.977-3.236 3.151-4.547.176-1.327-.34-2.296-1.006-2.709m-3.594-1.194C13.6 1.25 15.224.814 17 1.916c1.269.785 1.94 2.395 1.703 4.18-.24 1.802-1.387 3.792-3.74 5.551l-.088.066c-.771.578-1.385 1.037-2.374 1.037s-1.604-.46-2.375-1.037l-.088-.066c-2.353-1.76-3.5-3.749-3.74-5.55-.237-1.786.434-3.396 1.703-4.182 1.777-1.1 3.4-.665 4.384.081l.116.088z" clip-rule="evenodd" opacity=".4"/><path fill="currentColor" fill-rule="evenodd" d="M4 13.25a.75.75 0 0 0 0 1.5h2.395c.182 0 .36.041.521.119l2.042.988c.366.177.768.268 1.174.268h1.043c.426 0 .777.228.953.547l-1.934.535c-.281.077-.582.05-.842-.076L7.17 16.075a.75.75 0 1 0-.653 1.35L8.7 18.482a2.7 2.7 0 0 0 1.894.17l2.541-.702a.84.84 0 0 0 .617-.808q0-.044-.002-.087l4.064-1.249h.003a1.24 1.24 0 0 1 1.373.476c.116.16.056.381-.085.463l-7.516 4.336a1.24 1.24 0 0 1-.98.118L4.215 19.3a.75.75 0 1 0-.427 1.438l6.395 1.898c.724.215 1.5.121 2.156-.257l7.516-4.336c.933-.538 1.173-1.78.551-2.64a2.735 2.735 0 0 0-3.034-1.031h-.001l-4.127 1.268a2.6 2.6 0 0 0-2.068-1.016h-1.043c-.182 0-.36-.04-.52-.119l-2.043-.988a2.7 2.7 0 0 0-1.174-.268z" clip-rule="evenodd"/></svg>