<svg xmlns="http://www.w3.org/2000/svg" fill="none" viewBox="0 0 24 24"><path fill="currentColor" fill-rule="evenodd" d="M16.314 2.75c.14 0 .22 0 .28.003l.056.005a.3.3 0 0 1 .062.026c-.005-.002.005.002.043.036.044.04.1.096.2.196l1.48 1.479c.475.476.596.607.672.752q.052.101.087.21c.048.156.056.338.056 1.018 0 .726 0 1.215-.038 1.587-.037.36-.1.525-.173.633a1.3 1.3 0 0 1-.344.344c-.109.073-.273.137-.628.173-.367.037-.85.038-1.567.038-.718 0-1.2 0-1.567-.038-.355-.036-.519-.1-.627-.173a1.3 1.3 0 0 1-.345-.344c-.073-.109-.137-.273-.173-.628-.037-.367-.038-.849-.038-1.567V5.314c0-.628 0-1.049.03-1.372.027-.313.077-.46.133-.558a1.25 1.25 0 0 1 .47-.471c.098-.056.246-.105.559-.133.323-.03.744-.03 1.372-.03m.718-1.442c-.223-.059-.452-.058-.666-.058h-.086c-.585 0-1.074 0-1.471.036-.416.037-.804.117-1.166.322a2.75 2.75 0 0 0-1.035 1.036c-.205.36-.285.75-.322 1.165-.036.398-.036.886-.036 1.471v1.258c0 .67 0 1.229.046 1.681.048.474.153.913.418 1.309.2.3.458.558.758.759.396.264.835.369 1.309.417.452.046 1.011.046 1.68.046h.077c.67 0 1.229 0 1.681-.046.473-.048.913-.153 1.309-.417.3-.201.558-.459.759-.76.265-.396.37-.839.417-1.315.046-.456.046-1.02.046-1.699v-.132c0-.541 0-.968-.124-1.37a3 3 0 0 0-.192-.462c-.195-.372-.494-.67-.874-1.05l-.065-.065-1.48-1.479-.037-.037c-.15-.152-.312-.314-.511-.43a1.8 1.8 0 0 0-.435-.18m-.718 13.442c.14 0 .22 0 .28.003l.056.005a.3.3 0 0 1 .062.026c-.005-.002.005.002.043.036.044.04.1.096.2.196l1.48 1.479c.475.476.596.607.672.752q.052.101.087.21c.048.156.056.337.056 1.018 0 .726 0 1.215-.038 1.587-.037.36-.1.525-.173.633a1.3 1.3 0 0 1-.344.345c-.109.072-.273.136-.628.172-.367.037-.85.038-1.567.038-.718 0-1.2 0-1.567-.038-.355-.036-.519-.1-.627-.172a1.3 1.3 0 0 1-.345-.345c-.073-.109-.137-.273-.173-.628-.037-.367-.038-.849-.038-1.567v-1.186c0-.628 0-1.049.03-1.372.027-.313.077-.46.133-.559a1.25 1.25 0 0 1 .47-.47c.098-.056.246-.105.559-.133.323-.03.744-.03 1.372-.03m.718-1.442c-.223-.059-.452-.058-.666-.058h-.086c-.585 0-1.074 0-1.471.036-.416.037-.804.117-1.166.322a2.75 2.75 0 0 0-1.035 1.035c-.205.362-.285.75-.322 1.166-.036.398-.036.886-.036 1.471v1.258c0 .67 0 1.229.046 1.681.048.474.153.913.418 1.309.2.3.458.558.758.759.396.264.835.369 1.309.417.452.046 1.011.046 1.68.046h.077c.67 0 1.229 0 1.681-.046.473-.048.913-.153 1.309-.417.3-.201.558-.459.759-.759.265-.397.37-.84.417-1.316.046-.456.046-1.02.046-1.699v-.132c0-.541 0-.968-.124-1.37a3 3 0 0 0-.192-.462c-.195-.372-.494-.67-.874-1.05l-.065-.065-1.48-1.479-.037-.037c-.15-.152-.312-.314-.511-.43a1.8 1.8 0 0 0-.435-.18" clip-rule="evenodd"/><path fill="currentColor" fill-rule="evenodd" d="M4 1.25a.75.75 0 0 1 .75.75v3.25H10a.75.75 0 0 1 0 1.5H4.75V12c0 1.435.002 2.437.103 3.192.099.734.28 1.122.556 1.399.277.277.665.457 1.4.556.754.101 1.756.103 3.191.103a.75.75 0 0 1 0 1.5h-.055c-1.367 0-2.47 0-3.337-.116-.9-.122-1.658-.38-2.26-.982s-.86-1.36-.981-2.26c-.117-.867-.117-1.97-.117-3.337V2A.75.75 0 0 1 4 1.25" clip-rule="evenodd" opacity=".4"/></svg>