<svg xmlns="http://www.w3.org/2000/svg" fill="none" viewBox="0 0 24 24"><path fill="currentColor" fill-rule="evenodd" d="M19.251 1.25H17.75c-.616 0-1.157 0-1.592.063-.474.068-.93.224-1.295.615-.358.383-.494.85-.555 1.333-.057.455-.057 1.025-.057 1.692v.094c0 .667 0 1.237.057 1.692.06.483.197.95.555 1.333.365.391.82.547 1.295.615.435.063.976.063 1.592.063h1.502c.616 0 1.157 0 1.592-.063.474-.068.93-.224 1.295-.615.358-.383.494-.85.555-1.333.057-.455.057-1.025.057-1.692v-.094c0-.667 0-1.237-.057-1.692-.06-.483-.197-.95-.555-1.333-.365-.391-.82-.547-1.295-.615-.435-.063-.976-.063-1.592-.063m1.378 1.547c.288.042.368.106.413.154.052.056.12.162.163.496.044.351.045.826.045 1.553s-.001 1.202-.045 1.553c-.042.334-.111.44-.163.496-.045.048-.125.112-.413.154-.315.045-.746.047-1.429.047h-1.4c-.683 0-1.114-.002-1.43-.047-.288-.042-.367-.106-.412-.154-.052-.056-.12-.162-.163-.496-.044-.351-.045-.826-.045-1.553s.001-1.202.045-1.553c.042-.334.111-.44.163-.496.045-.048.124-.112.413-.154.315-.045.746-.047 1.429-.047h1.4c.683 0 1.114.002 1.43.047M5.545 8.25h-.09c-.787 0-1.441 0-1.961.06-.54.062-1.049.2-1.47.56-.437.375-.62.853-.7 1.368-.074.467-.074 1.047-.074 1.707v.11c0 .66 0 1.24.073 1.707.08.515.264.993.701 1.368.421.36.93.498 1.47.56.52.06 1.174.06 1.961.06h.09c.787 0 1.441 0 1.961-.06.54-.062 1.049-.2 1.47-.56.437-.375.62-.853.7-1.368.074-.467.074-1.047.074-1.707v-.11c0-.66 0-1.24-.073-1.707-.08-.515-.264-.993-.701-1.368-.421-.36-.93-.498-1.47-.56-.52-.06-1.174-.06-1.961-.06m1.79 1.55c.412.047.572.13.664.209.076.064.149.16.196.461.053.337.055.798.055 1.53s-.002 1.193-.055 1.53c-.047.302-.12.397-.196.461-.092.079-.252.162-.665.209-.423.049-.99.05-1.834.05-.843 0-1.41-.001-1.834-.05-.413-.047-.573-.13-.665-.209-.076-.064-.149-.16-.196-.461-.053-.337-.055-.798-.055-1.53s.002-1.193.055-1.53c.047-.302.12-.397.196-.461.092-.079.252-.162.665-.209.423-.049.99-.05 1.834-.05.843 0 1.41.001 1.834.05M19.2 15.25h.051c.616 0 1.157 0 1.592.063.474.068.93.223 1.295.615.358.383.494.85.555 1.333.057.455.057 1.025.057 1.692v.094c0 .667 0 1.237-.057 1.692-.06.483-.197.95-.555 1.333-.365.392-.82.547-1.295.615-.435.063-.976.063-1.592.063H17.75c-.616 0-1.157 0-1.592-.063-.474-.068-.93-.224-1.295-.615-.358-.383-.494-.85-.555-1.333-.057-.455-.057-1.025-.057-1.692v-.094c0-.667 0-1.237.057-1.692.06-.483.197-.95.555-1.333.365-.392.82-.547 1.295-.615.435-.063.976-.063 1.592-.063zm1.842 1.701c-.045-.048-.125-.112-.413-.154-.315-.045-.746-.047-1.429-.047h-1.4c-.683 0-1.114.002-1.43.047-.288.042-.367.106-.412.154-.052.056-.12.162-.163.497-.044.35-.045.825-.045 1.552s.001 1.202.045 1.552c.042.335.111.441.163.497.045.048.124.112.413.154.315.045.746.047 1.429.047h1.4c.683 0 1.114-.002 1.43-.047.287-.042.367-.106.412-.154.052-.056.12-.162.163-.497.044-.35.045-.825.045-1.552s-.001-1.202-.045-1.552c-.042-.335-.111-.441-.163-.497" clip-rule="evenodd"/><path fill="currentColor" fill-rule="evenodd" d="M15.745 19.085a.75.75 0 0 0-.66-.83c-.976-.112-1.529-.352-1.844-.657-.293-.285-.491-.735-.491-1.552V7.952c0-.782.172-1.229.454-1.519.298-.305.844-.567 1.883-.688a.75.75 0 0 0-.174-1.49c-1.182.138-2.136.467-2.783 1.132-.663.68-.88 1.579-.88 2.565v3.297H9a.75.75 0 0 0 0 1.5h2.25v3.297c0 1.057.261 1.964.947 2.629.664.643 1.61.943 2.718 1.07a.75.75 0 0 0 .83-.66" clip-rule="evenodd" opacity=".4"/></svg>