<svg xmlns="http://www.w3.org/2000/svg" fill="none" viewBox="0 0 24 24"><path fill="currentColor" fill-rule="evenodd" d="M12 2.75a2.25 2.25 0 1 0 0 4.5 2.25 2.25 0 0 0 0-4.5M8.25 5a3.75 3.75 0 1 1 7.5 0 3.75 3.75 0 0 1-7.5 0M5 16.75a2.25 2.25 0 1 0 0 4.5 2.25 2.25 0 0 0 0-4.5M1.25 19a3.75 3.75 0 1 1 7.5 0 3.75 3.75 0 0 1-7.5 0m15.5 0a2.25 2.25 0 1 1 4.5 0 2.25 2.25 0 0 1-4.5 0M19 15.25a3.75 3.75 0 1 0 0 7.5 3.75 3.75 0 0 0 0-7.5" clip-rule="evenodd"/><path fill="currentColor" fill-rule="evenodd" d="M12 7.25a.75.75 0 0 1 .75.75v3.25h2.795c.787 0 1.441 0 1.961.06.54.062 1.049.2 1.47.56.437.375.62.853.7 1.368.074.467.074 1.047.074 1.707V16a.75.75 0 0 1-1.5 0v-1c0-.732-.002-1.193-.055-1.53-.047-.302-.12-.397-.196-.461-.092-.079-.252-.162-.665-.209-.423-.049-.99-.05-1.834-.05h-7c-.843 0-1.41.001-1.834.05-.413.047-.573.13-.665.209-.076.064-.149.16-.196.461-.053.337-.055.798-.055 1.53v1a.75.75 0 0 1-1.5 0v-1.055c0-.66 0-1.24.073-1.707.08-.515.264-.993.701-1.368.421-.36.93-.498 1.47-.56.52-.06 1.174-.06 1.961-.06h2.795V8a.75.75 0 0 1 .75-.75" clip-rule="evenodd" opacity=".4"/></svg>