<svg xmlns="http://www.w3.org/2000/svg" fill="none" viewBox="0 0 24 24"><path fill="currentColor" fill-rule="evenodd" d="M10.053 1.25h-.108c-1.133 0-2.058 0-2.79.098-.763.103-1.426.325-1.954.854-.547.546-.768 1.24-.866 2.048H4.25A2 2 0 0 0 2.689 7.5a2 2 0 0 0-.439 1.25c0 .473.164.908.439 1.25a2 2 0 0 0-.439 1.25c0 .473.164.908.439 1.25a2 2 0 0 0 1.561 3.25h.085c.098.809.32 1.502.866 2.048.528.529 1.19.751 1.955.854.73.098 1.656.098 2.79.098h.107c1.132 0 2.058 0 2.789-.098.764-.103 1.426-.325 1.955-.854s.75-1.19.854-1.955c.098-.73.098-1.656.098-2.79V6.947c0-1.133 0-2.058-.098-2.79-.103-.763-.325-1.425-.854-1.954s-1.191-.751-1.955-.854c-.73-.098-1.657-.098-2.79-.098M5.837 15.663c.08.581.22.87.424 1.074s.497.348 1.095.428c.619.083 1.443.085 2.643.085s2.024-.002 2.643-.085c.598-.08.89-.224 1.094-.428s.348-.496.428-1.094c.083-.619.085-1.443.085-2.643V7c0-1.2-.002-2.024-.085-2.643-.08-.598-.224-.89-.428-1.094s-.496-.348-1.094-.428C12.022 2.752 11.2 2.75 10 2.75s-2.024.002-2.643.085c-.598.08-.891.224-1.095.428-.193.193-.33.464-.412.99A2 2 0 0 1 7.624 6.95a2 2 0 0 1 0 3.599 2 2 0 0 1-.612 2.252 2 2 0 0 1-1.175 2.86M5.75 6.75h-1.5a.5.5 0 0 1 0-1h1.5a.5.5 0 0 1 0 1m1 2.5h-2.5a.5.5 0 0 1 0-1h2.5a.5.5 0 0 1 0 1m-1 2.5h-1.5a.5.5 0 0 1 0-1h1.5a.5.5 0 0 1 0 1m-1.5 1.5h1a.5.5 0 0 1 0 1h-1a.5.5 0 0 1 0-1" clip-rule="evenodd"/><path fill="currentColor" fill-rule="evenodd" d="M17.572 3.25a3.32 3.32 0 0 0-3.322 3.321.75.75 0 0 0 1.5 0c0-.896.648-1.64 1.5-1.793v3.278c0 .925.3 1.722.657 2.435.318.635.421 1.416.428 2.311.003.444-.017.895-.039 1.356l-.004.086c-.02.427-.042.866-.042 1.284 0 .95.423 1.889.85 2.673.197.361.41.716.606 1.043l.067.11c.22.366.41.69.556.981a.75.75 0 1 0 1.342-.67 17 17 0 0 0-.612-1.082l-.066-.11a27 27 0 0 1-.576-.99c-.411-.755-.667-1.408-.667-1.955 0-.38.02-.785.04-1.222l.004-.076c.022-.459.045-.949.04-1.439-.006-.972-.114-2.028-.585-2.971-.31-.62-.499-1.173-.499-1.764V4.429c0-.651-.528-1.179-1.178-1.179M8.398 17.364a.75.75 0 1 0-.795 1.272l3.634 2.272c.15.094.28.219.378.366l.761 1.142a.75.75 0 1 0 1.248-.832l-.761-1.142a2.75 2.75 0 0 0-.83-.806zM10 14a1 1 0 1 0 0 2h.009a1 1 0 1 0 0-2z" clip-rule="evenodd" opacity=".4"/></svg>