<svg xmlns="http://www.w3.org/2000/svg" fill="none" viewBox="0 0 24 24"><path fill="currentColor" fill-rule="evenodd" d="M10.478 4.614a2.25 2.25 0 0 1 3.779.367 2.25 2.25 0 0 1 3 1A2.25 2.25 0 0 1 20.5 8v4.334l-.001.177c0 1.846 0 2.976-.336 3.91a5.8 5.8 0 0 1-3.561 3.5c-.946.328-2.09.328-3.976.328h-.266c-1.062 0-1.71 0-2.32-.13a5.87 5.87 0 0 1-2.83-1.487c-.45-.428-.81-.96-1.399-1.826l-.052-.076-.584-.862c-.487-.716-.883-1.299-1.158-1.804-.287-.525-.478-1.025-.511-1.583q-.03-.482.067-.956c.111-.548.371-1.017.728-1.497.345-.463.818-.986 1.401-1.63l.025-.028.039-.04L7 7.158V6.5a2.25 2.25 0 0 1 3.477-1.886M10 6.5a.75.75 0 0 0-1.5 0V12A.75.75 0 0 1 7 12V9.229l-.178.17c-.604.667-1.023 1.131-1.316 1.525-.288.387-.411.651-.462.9a2.2 2.2 0 0 0-.04.569c.015.253.1.531.33.953.237.434.591.957 1.104 1.712l.563.83c.657.967.925 1.355 1.244 1.658a4.37 4.37 0 0 0 2.108 1.108c.436.092.918.096 2.1.096 2.115 0 2.983-.01 3.657-.245a4.3 4.3 0 0 0 2.643-2.591c.236-.655.247-1.499.247-3.58V8a.75.75 0 0 0-1.5 0v1.5a.75.75 0 0 1-1.5 0V7a.75.75 0 0 0-1.5 0v1.875a.75.75 0 0 1-1.5 0V6a.75.75 0 0 0-1.5 0v2.5a.75.75 0 0 1-1.5 0z" clip-rule="evenodd" opacity=".4"/><path fill="currentColor" fill-rule="evenodd" d="M10.478 4.614A2.25 2.25 0 0 1 14.5 6v2.875a.75.75 0 0 1-1.501 0V6a.75.75 0 0 0-1.5 0v2.5a.75.75 0 0 1-1.5 0v-2a.75.75 0 0 0-1.5 0V12A.75.75 0 0 1 7 12V9.229l-.178.17c-.604.667-1.023 1.131-1.316 1.525-.288.387-.411.651-.462.9a2.2 2.2 0 0 0-.04.569c.015.253.1.531.33.953.237.434.591.957 1.104 1.712l.563.83c.657.967.925 1.355 1.244 1.658a4.37 4.37 0 0 0 2.108 1.108c.436.092.918.096 2.1.096.597 0 1.1 0 1.535-.007a.75.75 0 0 1 .024 1.5c-.449.007-.963.007-1.554.007h-.097c-1.062 0-1.71 0-2.32-.13a5.87 5.87 0 0 1-2.83-1.487c-.45-.428-.81-.96-1.399-1.826l-.052-.076-.584-.862c-.487-.716-.883-1.299-1.158-1.804-.287-.525-.478-1.025-.511-1.583q-.03-.482.067-.956c.111-.548.371-1.017.728-1.497.345-.463.818-.986 1.401-1.63l.025-.028.039-.04L7 7.158V6.5a2.25 2.25 0 0 1 3.477-1.886" clip-rule="evenodd"/></svg>