<svg xmlns="http://www.w3.org/2000/svg" fill="none" viewBox="0 0 24 24"><path fill="currentColor" fill-rule="evenodd" d="M11.568 9.387a.75.75 0 0 1 .864 0l2 1.412c.2.14.318.37.318.613v1.493l1.683 1.188a.75.75 0 0 1 .317.613v1.882a.75.75 0 0 1-.317.613l-2 1.412a.75.75 0 0 1-.865 0L12 17.506l-1.568 1.107a.75.75 0 0 1-.865 0l-2-1.412a.75.75 0 0 1-.317-.613v-1.882a.75.75 0 0 1 .317-.613l1.683-1.187v-1.494a.75.75 0 0 1 .317-.613zM10 14.212l-1.25.883V16.2l1.25.882 1.25-.882v-1.105zm2.75.883V16.2l1.25.882 1.25-.882v-1.105L14 14.212zm.5-2.19V11.8L12 10.918l-1.25.882v1.105l1.25.883z" clip-rule="evenodd" opacity=".4"/><path fill="currentColor" fill-rule="evenodd" d="M16.149 5.75H7.852C6.788 7.025 6.254 7.671 6.004 8.363c-.254.702-.254 1.556-.254 3.257V16c0 2.618 0 3.932.66 4.59.658.66 1.972.66 4.59.66h2c2.618 0 3.932 0 4.59-.66.66-.658.66-1.972.66-4.59v-4.38c0-1.701 0-2.555-.254-3.256-.25-.693-.786-1.34-1.847-2.614M6.107 5.505a1.74 1.74 0 0 1-.723-.834C5.25 4.347 5.25 4.028 5.25 3.5s0-.848.133-1.169c.18-.432.516-.768.946-.947.324-.134.643-.134 1.171-.134h9c.529 0 .848 0 1.169.133.432.18.768.516.947.946.134.324.134.643.134 1.17V3.5c0 .528 0 .848-.133 1.169a1.75 1.75 0 0 1-.724.836c.793.967 1.238 1.585 1.514 2.349.344.948.344 1.89.344 3.767V16c0 2.936 0 4.554-1.099 5.652-1.097 1.098-2.715 1.098-5.65 1.098H11c-2.936 0-4.554 0-5.652-1.1C4.25 20.554 4.25 18.936 4.25 16v-4.38c0-1.877 0-2.82.344-3.768.276-.765.721-1.382 1.513-2.348M7.5 4.25h9.001c.262 0 .533 0 .601-.021a.25.25 0 0 0 .131-.135c.018-.062.018-.333.018-.595s0-.533-.02-.601a.25.25 0 0 0-.135-.13c-.062-.018-.333-.018-.595-.018H7.5c-.262 0-.533 0-.601.021a.25.25 0 0 0-.13.135c-.019.062-.019.333-.019.595s0 .533.021.601a.25.25 0 0 0 .135.13c.062.018.332.018.594.018" clip-rule="evenodd"/></svg>