<svg xmlns="http://www.w3.org/2000/svg" fill="none" viewBox="0 0 24 24"><path fill="currentColor" fill-rule="evenodd" d="M3.998 22.244c-.41 0-.75-.34-.75-.75v-9.5c0-.84.34-1.66.93-2.24.91-.91 2.34-1.21 3.72-.8 1.57.48 2.75.71 4.46-.43l.59-1.76c.64-1.92 2.19-3.37 4.16-3.94l.86-.86c.29-.29.77-.29 1.06 0s.29.77 0 1.06l-1 1c-.1.1-.22.16-.35.2-1.57.39-2.81 1.52-3.3 3.01l-.67 2c-.05.15-.15.28-.27.37-2.37 1.69-4.1 1.36-5.97.79-.84-.25-1.72-.08-2.23.43-.31.31-.49.74-.49 1.18v9.5c0 .41-.34.75-.75.75zm16.5-11.5a.75.75 0 0 1-.53-.22l-1.3-1.3a2.7 2.7 0 0 1-.869-.26 2.32 2.32 0 0 0-.011 1.76c.31.79.39 1.64.23 2.46-.21 1.06-1 2.06-1.78 2.69v5.62a.755.755 0 0 1-.745.75.755.755 0 0 1-.745-.75v-6c0-.25.12-.48.33-.62.71-.48 1.34-1.33 1.47-1.98.11-.54.06-1.09-.15-1.61a3.85 3.85 0 0 1 .238-3.345 3 3 0 0 1-.348-.705c-.13-.39.08-.82.47-.95s.82.08.95.47c.19.56.74.99 1.29.99.2 0 .39.08.53.22l1.23 1.22c.12-.05.24-.13.34-.22l-2.23-3.57a.747.747 0 1 1 1.27-.79l2.5 4c.14.22.15.5.04.73-.42.83-1.31 1.42-2.17 1.42zm-5.005 11.5h-.005.01z" clip-rule="evenodd"/><path fill="currentColor" fill-rule="evenodd" d="M1.248 14.494c0 .41.34.75.75.75v.01c.41 0 .75-.34.75-.75v-3.79c0-.33.35-.58.67-.41l.74.37c.38.18.83.03 1.01-.34.18-.38.03-.83-.34-1.01l-.72-.36c-.28-.15-.58-.22-.9-.22-1.08 0-1.96.88-1.96 1.96zm11 7c0 .41.34.75.75.75l.01-.01c.41 0 .75-.34.75-.75v-6.49c0-.41-.34-.75-.75-.75s-.75.34-.75.75v.98c-1.4.45-2.62.25-3.32.06.11-.26.21-.54.29-.86a.751.751 0 1 0-1.46-.36c-.39 1.55-1.47 1.96-1.51 1.97-.3.1-.51.39-.51.71v4c0 .41.34.75.75.75s.75-.34.75-.75v-3.54c.23-.13.51-.34.8-.63.71.26 2.3.68 4.2.21z" clip-rule="evenodd" opacity=".4"/></svg>