<svg xmlns="http://www.w3.org/2000/svg" fill="none" viewBox="0 0 24 24"><path fill="currentColor" fill-rule="evenodd" d="m12.45 1.4.003.002.005.004.02.015a14 14 0 0 1 .335.264 32 32 0 0 1 3.747 3.567c2.018 2.27 4.19 5.452 4.19 8.748a8.75 8.75 0 1 1-17.5 0c0-3.296 2.172-6.479 4.19-8.748a.75.75 0 0 1 1.256.22c.25.623.412.943.612 1.177.098.115.218.224.39.338.903-1.719 1.224-2.942 1.561-5.103A.75.75 0 0 1 12.45 1.4m.071 1.992c-.352 1.816-.813 3.11-1.868 4.977a.75.75 0 0 1-.968.312c-.645-.299-1.13-.604-1.518-1.059a3.5 3.5 0 0 1-.351-.496C6.143 9.193 4.75 11.64 4.75 14a7.25 7.25 0 1 0 14.5 0c0-2.704-1.828-5.521-3.81-7.752a31 31 0 0 0-2.919-2.856" clip-rule="evenodd"/><path fill="currentColor" fill-rule="evenodd" d="M10 12a1 1 0 1 0 0 2h.009a1 1 0 0 0 0-2zm3.991 4a1 1 0 0 0 0 2H14a1 1 0 1 0 0-2zm-3.46 1.53 4-4a.75.75 0 1 0-1.061-1.06l-4 4a.75.75 0 1 0 1.06 1.06" clip-rule="evenodd" opacity=".4"/></svg>