<svg xmlns="http://www.w3.org/2000/svg" fill="none" viewBox="0 0 24 24"><path fill="currentColor" fill-rule="evenodd" d="M11.25 6.5c0 .41.34.75.75.75s.75-.34.75-.75V4.25h1.75c.41 0 .75-.34.75-.75s-.34-.75-.75-.75h-5c-.41 0-.75.34-.75.75s.34.75.75.75h1.75zm-10 14c0 .41.34.75.75.75h20c.41 0 .75-.34.75-.75s-.34-.75-.75-.75H2c-.41 0-.75.34-.75.75" clip-rule="evenodd" opacity=".4"/><path fill="currentColor" fill-rule="evenodd" d="M3.168 9.17c.1.05.22.08.33.08h.01c.27 0 .54-.16.67-.42.18-.37.03-.82-.34-1.01l-1-.5a.763.763 0 0 0-1.01.34c-.18.37-.03.82.34 1.01zm1.66-2.34c.13.27.39.42.67.42h.01a.8.8 0 0 0 .33-.08c.38-.19.53-.64.34-1.01l-.5-1a.745.745 0 0 0-1.01-.34c-.38.19-.53.64-.34 1.01zm15.67 2.42c-.28 0-.54-.15-.67-.42a.746.746 0 0 1 .34-1.01l1-.5c.37-.18.82-.04 1.01.34.19.37.04.82-.34 1.01l-1 .5a.8.8 0 0 1-.33.08zm-2-2c-.11 0-.23-.03-.33-.08a.763.763 0 0 1-.34-1.01l.5-1c.19-.37.64-.52 1.01-.34.37.19.52.64.34 1.01l-.5 1c-.13.26-.4.42-.67.42zm-16.5 10.5a.754.754 0 0 1-.73-.93l.25-1.02c.11-.64.52-1.27 1.12-1.66 0 0 .01 0 .02-.01.39-.24.63-.51.66-.73.54-4.36 4.27-7.66 8.68-7.66s8.14 3.29 8.68 7.66c.03.21.27.49.66.72.61.4 1.02 1.03 1.14 1.72l.24.97a.753.753 0 0 1-.73.93l.01.01zm19.05-1.5H2.962l.028-.13c.05-.29.22-.54.47-.71.8-.49 1.26-1.12 1.35-1.81.45-3.61 3.54-6.34 7.2-6.34s6.75 2.72 7.2 6.34c.09.69.56 1.32 1.34 1.8.25.16.42.42.48.76z" clip-rule="evenodd"/></svg>