<svg xmlns="http://www.w3.org/2000/svg" fill="none" viewBox="0 0 24 24"><path fill="currentColor" fill-rule="evenodd" d="M5.813 2a.75.75 0 0 1 .75-.75h13.5a.75.75 0 0 1 0 1.5h-.283v.056c.005.58.01 1.2-.002 1.784-.017.86-.067 1.732-.226 2.382-.644 2.645-2.195 3.903-2.931 4.5l-.105.086a.75.75 0 1 1-.95-1.16q.047-.04.101-.083c.684-.555 1.904-1.546 2.428-3.698.115-.473.166-1.198.183-2.056.011-.565.007-1.148.003-1.717V2.75H6.562a.75.75 0 0 1-.75-.75" clip-rule="evenodd" opacity=".4"/><path fill="currentColor" fill-rule="evenodd" d="M2.53 1.493a.75.75 0 0 0-1.06 1.061l2.787 2.783a7.74 7.74 0 0 0 4.41 6.669 7.74 7.74 0 0 0-4.417 6.99v2.254H4a.75.75 0 0 0 0 1.5h15a.75.75 0 0 0 .75-.75v-1.191l1.72 1.718a.75.75 0 0 0 1.06-1.062l-2.958-2.953a1 1 0 0 0-.088-.089L5.572 4.531a1 1 0 0 0-.088-.088zm7.247 9.357a6.26 6.26 0 0 1-3.62-3.616zm1.916 1.913a6.245 6.245 0 0 0-5.943 6.233v2.254h12.5v-1.939z" clip-rule="evenodd"/></svg>