<svg xmlns="http://www.w3.org/2000/svg" fill="none" viewBox="0 0 24 24"><path fill="currentColor" d="M6.508 21.75c-1.51 0-2.34 0-3.03-.47-.29-.18-.55-.44-.76-.76-.46-.69-.46-1.52-.46-3.02s0-2.34.46-3.03c.21-.31.47-.57.77-.76.68-.46 1.51-.46 3.01-.46s2.34 0 3.03.47c.29.18.55.44.76.76.46.69.46 1.52.46 3.02s0 2.34-.46 3.03c-.21.31-.47.57-.77.76-.68.46-1.51.46-3.01.46m0-7c-1.21 0-1.88 0-2.19.21-.14.09-.26.21-.35.34-.21.31-.21 1.02-.21 2.2s0 1.88.21 2.19c.09.14.21.26.33.34.33.22 1 .22 2.21.22s1.88 0 2.19-.21c.14-.09.26-.21.35-.34.21-.31.21-1.02.21-2.2s0-1.88-.21-2.19c-.09-.14-.21-.26-.33-.34-.33-.22-1-.22-2.21-.22"/><path fill="currentColor" fill-rule="evenodd" d="M9.577 11.091c1.1.4 1.82.66 2.48.66.19 0 .37-.02.56-.07.35-.1.66-.25.95-.45.674-.488.957-1.253 1.473-2.649l.037-.1.039-.108c.496-1.383.776-2.163.571-2.963-.09-.35-.24-.68-.45-.97-.49-.68-1.26-.97-2.65-1.48l-.15-.06-.05-.018c-1.389-.499-2.17-.78-2.99-.572-.35.1-.66.25-.95.45-.69.5-.98 1.29-1.5 2.72l.69.29-.7-.26-.038.108C6.403 7 6.123 7.782 6.327 8.58c.09.35.24.68.45.97.49.68 1.26.97 2.65 1.48zm-1.24-5.06-.7-.26.71.23c.42-1.16.65-1.79.96-2.02.13-.09.29-.17.45-.21.377-.089.998.136 2.164.557l.036.013.1.04.046.017c1.091.4 1.688.618 1.914.933q.15.195.21.45c.09.38-.14 1.03-.58 2.23-.42 1.16-.65 1.79-.96 2.02-.13.09-.29.17-.45.21-.376.09-.997-.135-2.163-.557l-.037-.013-.1-.04-.045-.017c-1.091-.399-1.688-.617-1.915-.933q-.15-.195-.21-.45c-.09-.38.14-1.02.57-2.2m7.92 14.861c.17.03.33.04.49.04l-.02-.01c.17 0 .34-.01.52-.04.834-.159 1.43-.75 2.544-1.854l.026-.026c1.11-1.11 1.72-1.72 1.88-2.57.06-.33.06-.67 0-1.01-.159-.843-.76-1.45-1.884-2.583l-.026-.027c-1.09-1.09-1.69-1.68-2.52-1.83q-.525-.105-1.02 0c-.843.15-1.44.741-2.554 1.845l-.026.025-.026.027c-1.093 1.103-1.695 1.71-1.854 2.553-.06.34-.06.68 0 1.01.16.85.77 1.46 1.88 2.57l.04.04c1.09 1.08 1.69 1.67 2.55 1.84m-1.48-2.9-.04-.04.01.03-.045-.046c-.862-.87-1.346-1.36-1.415-1.744-.03-.16-.03-.31 0-.47.07-.39.56-.89 1.49-1.82.87-.87 1.36-1.35 1.76-1.42.15-.03.29-.03.46 0 .384.069.855.535 1.736 1.407l.044.043.12.12c.815.825 1.273 1.288 1.34 1.66.03.16.03.32 0 .47-.08.39-.57.89-1.5 1.82l-.047.047c-.85.84-1.32 1.304-1.683 1.373q-.255.03-.48 0c-.383-.078-.853-.543-1.704-1.385z" clip-rule="evenodd" opacity=".4"/></svg>