<svg xmlns="http://www.w3.org/2000/svg" fill="none" viewBox="0 0 24 24"><path fill="currentColor" fill-rule="evenodd" d="M11.993 10.75c-.642 0-1.197.54-1.197 1.25s.555 1.25 1.197 1.25c.643 0 1.198-.54 1.198-1.25s-.555-1.25-1.198-1.25M9.296 12c0-1.5 1.189-2.75 2.697-2.75s2.698 1.25 2.698 2.75-1.19 2.75-2.698 2.75S9.296 13.5 9.296 12m5.645 6.5c-1.52-1.697-4.36-1.64-5.891.01a.75.75 0 1 1-1.1-1.02c2.096-2.258 5.964-2.384 8.109.01a.75.75 0 0 1-1.118 1" clip-rule="evenodd" opacity=".4"/><path fill="currentColor" fill-rule="evenodd" d="M12 1.25c.395 0 .789 0 1.077.066a2.4 2.4 0 0 1 1.574 1.166c.123.226.192.485.259.77 1.13.01 2.072.042 2.849.171.886.148 1.628.43 2.232 1.003.682.646.982 1.467 1.123 2.46.136.956.136 2.173.136 3.686v4.853c0 1.514 0 2.73-.136 3.686-.14.994-.441 1.815-1.123 2.461-.677.64-1.527.918-2.556 1.05-1 .127-2.277.127-3.882.127h-3.106c-1.605 0-2.882 0-3.882-.128-1.03-.13-1.88-.408-2.556-1.049-.682-.646-.982-1.467-1.123-2.461-.136-.956-.136-2.172-.136-3.686v-4.853c0-1.513 0-2.73.136-3.685.14-.994.441-1.815 1.123-2.461.604-.572 1.346-.855 2.232-1.003.777-.129 1.718-.162 2.85-.17.066-.286.135-.545.258-.771.327-.6.911-1.014 1.574-1.166.288-.066.682-.066 1.077-.066M8.77 4.756c-.96.013-1.694.05-2.283.147-.711.118-1.134.316-1.446.611-.343.325-.555.771-.67 1.583-.12.838-.121 1.948-.121 3.533v4.737c0 1.586.002 2.695.12 3.533.116.812.328 1.258.67 1.583.35.33.837.539 1.714.65.895.114 2.076.116 3.746.116h3c1.67 0 2.851-.002 3.746-.116.877-.111 1.364-.32 1.713-.65.343-.325.555-.77.67-1.583.12-.838.121-1.947.121-3.533V10.63c0-1.585-.002-2.695-.12-3.533-.116-.812-.328-1.258-.67-1.583-.313-.295-.736-.493-1.447-.61-.589-.099-1.324-.135-2.283-.148l.001.009c.034.279.036.601-.11.923-.15.33-.398.598-.7.782-.286.173-.595.23-.884.256-.276.024-.617.024-1.008.024h-1.058c-.39 0-.732 0-1.008-.024-.29-.026-.598-.083-.883-.256a1.8 1.8 0 0 1-.701-.782c-.146-.322-.144-.644-.11-.923zM12 2.75c-.51 0-.64.005-.74.028a.9.9 0 0 0-.593.42c-.028.123-.078.327-.133.555-.119.486-.262 1.076-.276 1.192v.001c.002.105.005.256.336.285.203.018.477.019.908.019h.996c.431 0 .705 0 .908-.019.317-.013.356-.196.336-.286-.014-.116-.158-.706-.276-1.192l-.133-.555a.9.9 0 0 0-.593-.42c-.1-.023-.23-.028-.74-.028" clip-rule="evenodd"/></svg>