<svg xmlns="http://www.w3.org/2000/svg" fill="none" viewBox="0 0 24 24"><path fill="currentColor" fill-rule="evenodd" d="M18.09 4.36a9 9 0 0 1-.552.663.75.75 0 1 1-1.076-1.046 9 9 0 0 0 .495-.604c.19-.242.413-.526.642-.797a7.4 7.4 0 0 1 .798-.827c.138-.118.293-.234.46-.324a1.4 1.4 0 0 1 .643-.175c.258 0 .48.089.642.175.168.09.323.206.461.324a7 7 0 0 1 .797.827c.23.27.453.555.643.797l.047.06q.318.407.448.544a.75.75 0 1 1-1.076 1.046 9 9 0 0 1-.596-.72c-.193-.246-.4-.51-.61-.758l-.006-.007V10a.75.75 0 0 1-1.5 0V3.538l-.006.007c-.21.249-.417.512-.61.757z" clip-rule="evenodd" opacity=".4"/><path fill="currentColor" fill-rule="evenodd" d="M6.388 3.917C7.62 3.752 9.24 3.75 11.5 3.75H14a.75.75 0 1 0 0-1.5h-2.557c-2.19 0-3.912 0-5.255.18-1.377.186-2.469.573-3.327 1.43-.858.86-1.245 1.951-1.43 3.328-.181 1.343-.181 3.064-.181 5.255v.114c0 2.19 0 3.912.18 5.255.186 1.377.573 2.469 1.43 3.327.86.858 1.951 1.245 3.328 1.43 1.343.181 3.064.181 5.255.181h.114c2.19 0 3.912 0 5.255-.18 1.377-.186 2.469-.573 3.327-1.43.825-.826 1.215-1.868 1.408-3.172.19-1.283.202-2.91.203-4.968a.75.75 0 1 0-1.5 0v.35c-1.436-.757-2.811-1.1-4.133-1.1-1.674 0-3.193.552-4.573 1.392-2.36 1.438-4.43 3.807-6.285 5.929q-.411.472-.81.922a2.8 2.8 0 0 1-.527-.415c-.533-.533-.842-1.256-1.005-2.466-.165-1.232-.167-2.852-.167-5.112s.002-3.88.167-5.112c.163-1.21.472-1.933 1.005-2.466s1.256-.842 2.466-1.005M5.985 21.02q.192.034.403.063c1.232.165 2.852.167 5.112.167s3.88-.002 5.112-.167c1.21-.163 1.933-.471 2.466-1.005.514-.513.818-1.201.986-2.33.108-.73.153-1.603.172-2.677-1.523-.948-2.886-1.321-4.119-1.321-1.33 0-2.581.435-3.792 1.173-2.147 1.308-4.046 3.477-5.92 5.618z" clip-rule="evenodd"/></svg>