<svg xmlns="http://www.w3.org/2000/svg" fill="none" viewBox="0 0 24 24"><path fill="currentColor" fill-rule="evenodd" d="M11.5 2.25h-.057c-2.19 0-3.912 0-5.255.18-1.377.186-2.469.573-3.327 1.43-.858.86-1.245 1.951-1.43 3.328-.181 1.343-.181 3.064-.181 5.255v.114c0 2.19 0 3.912.18 5.255.186 1.377.573 2.469 1.43 3.327.86.858 1.951 1.245 3.328 1.43 1.343.181 3.064.181 5.255.181h.114c2.19 0 3.912 0 5.255-.18 1.377-.186 2.469-.573 3.327-1.43.858-.86 1.245-1.951 1.43-3.328.181-1.343.181-3.064.181-5.255V9a.75.75 0 0 0-1.5 0v3.5c0 2.26-.002 3.88-.167 5.112-.163 1.21-.471 1.933-1.005 2.466s-1.256.842-2.466 1.005q-.489.065-1.067.1c-.696-2.139-2.059-4.037-3.919-5.447-2.196-1.664-4.946-2.54-7.759-2.483q-.56-.001-1.117.044V12.5c0-2.26.002-3.88.167-5.112.163-1.21.472-1.933 1.005-2.466s1.256-.842 2.466-1.005C7.62 3.752 9.24 3.75 11.5 3.75a.75.75 0 0 0 0-1.5M2.76 14.801c.015 1.128.054 2.045.157 2.811.163 1.21.472 1.933 1.005 2.466s1.256.842 2.466 1.005c1.232.165 2.852.167 5.112.167.927 0 1.746 0 2.475-.012-.633-1.673-1.752-3.168-3.254-4.306-1.923-1.456-4.343-2.232-6.831-2.18h-.018a12 12 0 0 0-1.113.05" clip-rule="evenodd"/><path fill="currentColor" fill-rule="evenodd" d="M15.96 8.748H16v.002a.75.75 0 0 0 .632-.348c.846-1.33 3.504-4.947 5.617-5.695a.75.75 0 1 0-.5-1.414c-2.246.795-4.59 3.753-5.712 5.321C15.09 5.328 14.2 5.25 14 5.25c0 0-.323 0-.542.234s-.207.512-.207.512.008.355.242.555c.235.2.507.2.507.2s-.02.002-.056-.004c.008.001.653.123 1.385 1.588a.75.75 0 0 0 .633.413m-4.42 8.66c1.81-1.411 3.802-2.165 5.848-2.158 1.349 0 2.68.333 3.951.977l-.678 1.338c-1.079-.546-2.179-.816-3.274-.815h-.003c-1.657-.006-3.33.6-4.923 1.842z" clip-rule="evenodd" opacity=".4"/></svg>