<svg xmlns="http://www.w3.org/2000/svg" fill="none" viewBox="0 0 24 24"><path fill="currentColor" fill-rule="evenodd" d="M21.75 20a.75.75 0 0 0-.75-.75H3a.75.75 0 0 0 0 1.5h18a.75.75 0 0 0 .75-.75" clip-rule="evenodd" opacity=".4"/><path fill="currentColor" fill-rule="evenodd" d="M6.096 3.553a.75.75 0 0 0 .156 1.05l11.696 8.668c.953.707 1.604 1.19 1.997 1.572.112.109.186.193.234.256a2.5 2.5 0 0 1-.403.079c-.566.07-1.4.072-2.614.072H3a.75.75 0 0 0 0 1.5h14.22c1.141 0 2.072 0 2.743-.084.342-.043.682-.115.973-.256.31-.151.592-.397.733-.777a1.35 1.35 0 0 0-.07-1.078c-.14-.293-.368-.554-.61-.789-.474-.46-1.207-1.002-2.099-1.664L7.145 3.398a.75.75 0 0 0-1.05.155" clip-rule="evenodd"/></svg>