<svg xmlns="http://www.w3.org/2000/svg" fill="none" viewBox="0 0 24 24"><path fill="currentColor" fill-rule="evenodd" d="M8.7 10.25c-1.267 0-1.95.807-1.95 1.75s.683 1.75 1.95 1.75c.228 0 .506-.088.826-.282a5 5 0 0 0 .912-.745c.253-.257.47-.515.633-.723a9 9 0 0 0-.633-.723 5 5 0 0 0-.912-.745c-.32-.194-.598-.282-.826-.282M12.929 12c.162.208.38.466.633.723.283.286.596.553.912.745.32.194.598.282.826.282 1.267 0 1.95-.807 1.95-1.75s-.683-1.75-1.95-1.75c-.228 0-.506.088-.826.282a5 5 0 0 0-.912.745c-.253.257-.47.515-.633.723M12 13.235c-.145.17-.311.356-.495.542a6.4 6.4 0 0 1-1.202.974c-.454.275-1.003.499-1.603.499-2.047 0-3.45-1.431-3.45-3.25S6.653 8.75 8.7 8.75c.6 0 1.15.224 1.603.5.458.276.867.634 1.202.973.184.186.35.371.495.542.145-.17.311-.356.495-.542a6.4 6.4 0 0 1 1.202-.974c.454-.275 1.003-.499 1.603-.499 2.047 0 3.45 1.431 3.45 3.25s-1.403 3.25-3.45 3.25c-.6 0-1.15-.224-1.603-.5a6.4 6.4 0 0 1-1.202-.973 10 10 0 0 1-.495-.542" clip-rule="evenodd" opacity=".4"/><path fill="currentColor" fill-rule="evenodd" d="M11.943 1.75h.114c2.19 0 3.912 0 5.255.18 1.377.186 2.469.573 3.327 1.43.858.86 1.245 1.951 1.43 3.328.181 1.343.181 3.064.181 5.255v.114c0 2.19 0 3.912-.18 5.255-.186 1.377-.573 2.469-1.43 3.327-.86.858-1.951 1.245-3.328 1.43-1.343.181-3.064.181-5.255.181h-.114c-2.19 0-3.912 0-5.255-.18-1.377-.186-2.469-.573-3.327-1.43-.858-.86-1.245-1.951-1.43-3.328-.181-1.343-.181-3.064-.181-5.255v-.114c0-2.19 0-3.912.18-5.255.186-1.377.573-2.469 1.43-3.327.86-.858 1.951-1.245 3.328-1.43 1.343-.181 3.064-.181 5.255-.181M6.888 3.417c-1.21.163-1.933.472-2.466 1.005S3.58 5.678 3.417 6.888C3.252 8.12 3.25 9.74 3.25 12s.002 3.88.167 5.112c.163 1.21.472 1.933 1.005 2.466s1.256.842 2.466 1.005c1.232.165 2.852.167 5.112.167s3.88-.002 5.112-.167c1.21-.163 1.933-.471 2.466-1.005s.842-1.256 1.005-2.466c.165-1.232.167-2.852.167-5.112s-.002-3.88-.167-5.112c-.163-1.21-.471-1.933-1.005-2.466s-1.256-.842-2.466-1.005C15.88 3.252 14.26 3.25 12 3.25s-3.88.002-5.112.167" clip-rule="evenodd"/></svg>