<svg xmlns="http://www.w3.org/2000/svg" fill="none" viewBox="0 0 24 24"><path fill="currentColor" fill-rule="evenodd" d="M11.47 1.97a.75.75 0 0 1 1.06 0l3 3a.75.75 0 0 1-1.06 1.06l-1.72-1.72v6.19a.75.75 0 0 1-1.5 0V4.31L9.53 6.03a.75.75 0 0 1-1.06-1.06z" clip-rule="evenodd" opacity=".4"/><path fill="currentColor" fill-rule="evenodd" d="M6.731 2.647a.75.75 0 0 1-.565.897c-.79.18-1.324.457-1.744.877-.533.533-.842 1.256-1.005 2.466C3.252 8.12 3.25 9.74 3.25 12c0 .832 0 1.579.009 2.25H20.74c.009-.671.009-1.418.009-2.25 0-2.26-.002-3.88-.167-5.113-.163-1.21-.471-1.933-1.005-2.466-.42-.42-.955-.698-1.744-.877a.75.75 0 1 1 .332-1.463c.988.225 1.803.61 2.473 1.28.858.858 1.245 1.95 1.43 3.327.181 1.343.181 3.064.181 5.254v.115c0 2.19 0 3.911-.18 5.254-.186 1.377-.573 2.47-1.43 3.328-.86.858-1.951 1.245-3.328 1.43-1.343.18-3.064.18-5.255.18h-.114c-2.19 0-3.912 0-5.255-.18-1.377-.185-2.469-.572-3.327-1.43-.858-.859-1.245-1.95-1.43-3.328-.181-1.343-.181-3.064-.181-5.254v-.115c0-2.19 0-3.911.18-5.254.186-1.377.573-2.47 1.43-3.328.67-.67 1.486-1.054 2.474-1.279a.75.75 0 0 1 .897.566M3.417 17.112a16 16 0 0 1-.116-1.362H7.75v4.919q-.46-.032-.862-.087c-1.21-.162-1.933-.471-2.466-1.004s-.842-1.256-1.005-2.466m5.833 3.62c.796.017 1.705.018 2.75.018s1.954 0 2.75-.018V15.75h-5.5zm7-4.982v4.919q.461-.032.862-.087c1.21-.162 1.933-.471 2.466-1.004s.842-1.256 1.005-2.466c.055-.409.091-.86.116-1.362z" clip-rule="evenodd"/></svg>