<svg xmlns="http://www.w3.org/2000/svg" fill="none" viewBox="0 0 24 24"><path fill="currentColor" fill-rule="evenodd" d="M11.5 13.75a2.25 2.25 0 1 0 0 4.5 2.25 2.25 0 0 0 0-4.5M7.75 16a3.75 3.75 0 1 1 7.5 0 3.75 3.75 0 0 1-7.5 0" clip-rule="evenodd" opacity=".4"/><path fill="currentColor" fill-rule="evenodd" d="M11.556 1.25h-.111c-1.612 0-2.897 0-3.915.138-1.055.144-1.92.447-2.628 1.121q-.315.3-.576.652c-.579.782-.833 1.719-.956 2.875-.11 1.038-.12 2.332-.12 3.953v3.556c0 1.841 0 3.283.12 4.42.123 1.155.377 2.092.956 2.874q.261.353.576.652c.709.674 1.573.977 2.628 1.12 1.018.139 2.303.139 3.914.139h.111c1.612 0 2.897 0 3.915-.138 1.055-.144 1.92-.447 2.629-1.121q.314-.3.575-.652c.579-.782.833-1.719.956-2.875.12-1.136.12-2.578.12-4.42V9.99c0-1.622-.01-2.916-.12-3.954-.123-1.156-.377-2.093-.956-2.875a5 5 0 0 0-.575-.652c-.71-.674-1.574-.977-2.629-1.12-1.018-.139-2.303-.139-3.915-.139m6.692 8c-.005-1.268-.025-2.254-.11-3.056-.11-1.037-.32-1.667-.67-2.14a3.5 3.5 0 0 0-.403-.458c-.398-.378-.917-.602-1.797-.721-.905-.123-2.089-.125-3.768-.125-1.68 0-2.863.002-3.768.125-.88.12-1.4.343-1.797.721q-.218.207-.403.458c-.35.473-.56 1.103-.67 2.14-.085.802-.105 1.788-.11 3.056zM4.75 10.75v2.75c0 1.896.001 3.259.112 4.306.11 1.037.32 1.667.67 2.14q.185.25.403.458c.398.378.917.602 1.797.721.905.123 2.089.125 3.768.125 1.68 0 2.863-.002 3.768-.125.88-.12 1.4-.343 1.797-.721q.218-.207.403-.458c.35-.473.56-1.103.67-2.14.111-1.047.112-2.41.112-4.306v-2.75z" clip-rule="evenodd"/></svg>