<svg xmlns="http://www.w3.org/2000/svg" fill="none" viewBox="0 0 24 24"><path fill="currentColor" fill-rule="evenodd" d="M8.192 7.19a.75.75 0 1 0-.165-1.49c-1.501.166-2.827.463-3.8.865-.484.2-.922.443-1.25.74-.328.295-.618.713-.618 1.244 0 .687.476 1.18.938 1.496a5 5 0 0 0 .907.479c-.394.335-.734.804-.734 1.403 0 .86.684 1.449 1.334 1.814a7 7 0 0 0 1.23.522c-.21.3-.341.646-.341 1.042 0 .58.293 1.059.667 1.418.373.357.873.644 1.428.869 1.115.452 2.604.715 4.21.715.832 0 1.627-.07 2.353-.2a.75.75 0 0 0-.261-1.476c-.635.112-1.343.175-2.092.175-1.462 0-2.75-.241-3.646-.604-.45-.182-.764-.38-.954-.562-.187-.18-.205-.293-.205-.335 0-.069.073-.314.595-.623.94.159 1.992.247 3.1.247 1.763 0 3.396-.223 4.66-.606a.75.75 0 1 0-.433-1.436c-1.095.331-2.577.542-4.228.542-1.129 0-2.182-.099-3.089-.268-.981-.184-1.754-.445-2.26-.729-.253-.141-.408-.272-.493-.373a.4.4 0 0 1-.067-.105l-.008-.027.003-.014a.2.2 0 0 1 .024-.051.9.9 0 0 1 .216-.226c.213-.17.545-.35 1-.52 1.336.277 2.95.435 4.674.435 2.227 0 4.27-.264 5.768-.707a.75.75 0 1 0-.425-1.438c-1.324.391-3.217.645-5.343.645-1.689 0-3.23-.16-4.457-.422a.8.8 0 0 0-.19-.042 12 12 0 0 1-.644-.166c-.666-.193-1.15-.408-1.452-.614-.193-.132-.257-.222-.278-.258a.6.6 0 0 1 .116-.131c.152-.138.417-.3.817-.466.796-.329 1.97-.604 3.393-.761M3.857 8.57l.001-.004zm15.09.942c.865-.225 1.419-.035 1.75.26.349.312.58.858.55 1.58-.06 1.424-1.174 3.377-3.948 4.384a.75.75 0 1 0 .512 1.41c3.247-1.18 4.844-3.601 4.934-5.731.045-1.056-.288-2.082-1.05-2.762-.779-.696-1.88-.916-3.124-.593a.75.75 0 0 0 .377 1.452" clip-rule="evenodd"/><path fill="currentColor" fill-rule="evenodd" d="M13.26 2.736a.75.75 0 0 0-.294-1.471 3.07 3.07 0 0 0-1.738 1.076c-.542.675-.842 1.636-.633 2.894.168 1.008.118 1.567.037 1.873a.9.9 0 0 1-.272.473.75.75 0 1 0 1.061 1.06c.2-.199.496-.527.661-1.148.156-.587.18-1.38-.007-2.505-.146-.876.072-1.396.322-1.707a1.58 1.58 0 0 1 .863-.545m5.038-.86a.75.75 0 0 1-.616.864 1.7 1.7 0 0 0-.884.457c-.224.232-.412.599-.282 1.249.384 1.922-.11 3.194-.7 3.686a.75.75 0 1 1-.96-1.152q-.002.002.001-.003c.019-.023.134-.166.217-.506.089-.367.13-.934-.03-1.731-.225-1.128.105-1.996.675-2.585a3.2 3.2 0 0 1 1.716-.895.75.75 0 0 1 .863.617M3.213 19.595c-.436-.302-.463-.491-.463-.524 0-.156.116-.496.872-.904.729-.394 1.881-.746 3.486-.98a.75.75 0 1 0-.216-1.484c-1.688.246-3.035.632-3.983 1.144-.921.497-1.659 1.23-1.659 2.224 0 .776.532 1.358 1.109 1.757.599.415 1.416.758 2.359 1.034 1.896.556 4.47.889 7.282.889s5.386-.333 7.282-.889c.943-.276 1.76-.62 2.36-1.034.576-.4 1.108-.98 1.108-1.757a.75.75 0 0 0-1.5 0c0 .033-.027.222-.463.524-.413.286-1.06.574-1.927.828-1.724.505-4.15.828-6.86.828s-5.136-.323-6.86-.828c-.867-.254-1.514-.542-1.927-.828" clip-rule="evenodd" opacity=".4"/></svg>