<svg xmlns="http://www.w3.org/2000/svg" fill="none" viewBox="0 0 24 24"><path fill="currentColor" fill-rule="evenodd" d="M3.271 19.823a.75.75 0 0 1 .907-.552c5.823 1.419 9.264 1.19 15.685-.008a.75.75 0 1 1 .275 1.474c-6.543 1.22-10.214 1.478-16.315-.008a.75.75 0 0 1-.552-.906" clip-rule="evenodd" opacity=".4"/><path fill="currentColor" fill-rule="evenodd" d="M4 3.75a1.25 1.25 0 1 0 0 2.5 1.25 1.25 0 0 0 0-2.5M1.25 5a2.75 2.75 0 0 1 5.4-.737c.695.064 1.597.36 2.363.859.879.572 1.737 1.524 1.737 2.878a.75.75 0 0 1-1.5 0c0-.646-.4-1.194-1.056-1.622a4.15 4.15 0 0 0-1.554-.606 2.75 2.75 0 0 1-.702 1.18c.764.898 1.079 1.75.972 2.616s-.64 1.604-1.061 2.187l-.086.12c-.479.666-.86 1.24-.977 1.93-.103.608-.01 1.41.658 2.54 1.835.498 3.39.773 4.893.868-.315-3.698.649-6.449 2.161-8.393a9.92 9.92 0 0 1 5.32-3.5l.006-.002a2.75 2.75 0 1 1 .298 3.69c-.398.24-.73.53-.882.888-.17.402-.223 1.181.931 2.594a7.5 7.5 0 0 1 1.303 2.373c.2.62.315 1.292.238 1.9a.75.75 0 0 1-.555.971c-2.847.606-5.102.982-7.316 1.014-2.204.031-4.338-.278-6.962-1.003a.75.75 0 0 1-.543-.34c-.953-1.488-1.217-2.737-1.03-3.85.182-1.076.774-1.908 1.238-2.555.51-.711.82-1.151.877-1.615.043-.349-.052-.87-.838-1.697A2.75 2.75 0 0 1 1.25 5m16.986 11.395c.004-.276-.05-.639-.189-1.068a6 6 0 0 0-1.037-1.888c-1.318-1.613-1.636-2.99-1.15-4.13.32-.75.934-1.253 1.486-1.586a2.8 2.8 0 0 1-.095-.647 8.5 8.5 0 0 0-3.569 2.665c-1.28 1.647-2.165 4.066-1.836 7.507 1.904-.03 3.873-.332 6.39-.854M20 5.75a1.25 1.25 0 1 0 0 2.5 1.25 1.25 0 0 0 0-2.5" clip-rule="evenodd"/></svg>