<svg xmlns="http://www.w3.org/2000/svg" fill="none" viewBox="0 0 24 24"><path fill="currentColor" fill-rule="evenodd" d="M12 2.75a9.2 9.2 0 0 0-6.116 2.31 9.26 9.26 0 0 0-2.739 4.257A9.3 9.3 0 0 0 2.75 12 9.247 9.247 0 0 0 12 21.25c3.88 0 7.204-2.39 8.577-5.78a9.2 9.2 0 0 0 .65-4.12 9.2 9.2 0 0 0-.495-2.411A9.25 9.25 0 0 0 12 2.75M4.892 3.935A10.7 10.7 0 0 1 12 1.25c4.691 0 8.679 3.005 10.147 7.192A10.7 10.7 0 0 1 22.75 12c0 1.425-.278 2.787-.783 4.034C20.373 19.97 16.512 22.75 12 22.75A10.747 10.747 0 0 1 1.25 12c0-1.083.16-2.13.46-3.118a10.76 10.76 0 0 1 3.182-4.947" clip-rule="evenodd"/><path fill="currentColor" fill-rule="evenodd" d="M5.846 3.903a.75.75 0 0 0-.914 1.19c.922.707 3.298 2.516 7.232 1.64 1.291-.288 2.197-.262 2.889-.099.69.163 1.226.476 1.773.864q.221.158.45.33c.983.736 2.155 1.613 4.164 1.613a.75.75 0 0 0 0-1.5c-1.484 0-2.26-.573-3.228-1.29a31 31 0 0 0-.518-.377c-.617-.437-1.336-.873-2.297-1.1-.96-.226-2.1-.23-3.56.094-3.265.728-5.171-.735-5.991-1.365M2.639 9.82c1.674-.49 3.741-.48 5.984.828 2.645 1.543 4.742 2.686 6.848 3.016 2.17.34 4.256-.19 6.883-1.717a.75.75 0 1 0-.755-1.297c-2.446 1.423-4.18 1.8-5.896 1.532-1.78-.28-3.635-1.26-6.324-2.83-2.632-1.535-5.13-1.566-7.162-.972a.75.75 0 1 0 .422 1.44m9.278 9.305c3.057-2.039 5.857-2.628 9.355-2.622a.75.75 0 0 0 .002-1.5c-3.717-.006-6.828.632-10.19 2.873a19.4 19.4 0 0 1-4.226 2.142.75.75 0 0 0 .502 1.413 21 21 0 0 0 4.557-2.306M6.75 15c0-.125.066-.296.286-.46.22-.166.558-.29.964-.29s.744.124.964.29c.22.164.286.335.286.46s-.066.296-.286.46c-.22.166-.558.29-.964.29s-.744-.124-.964-.29c-.22-.164-.286-.335-.286-.46M8 12.75c-.699 0-1.36.211-1.864.59-.504.377-.886.957-.886 1.66s.382 1.283.886 1.66c.504.378 1.165.59 1.864.59s1.36-.212 1.864-.59c.504-.377.886-.957.886-1.66s-.382-1.283-.886-1.66C9.36 12.96 8.7 12.75 8 12.75" clip-rule="evenodd" opacity=".4"/></svg>