<svg xmlns="http://www.w3.org/2000/svg" fill="none" viewBox="0 0 24 24"><path fill="currentColor" fill-rule="evenodd" d="M12 12.25a.75.75 0 0 1 .75.75v6a.75.75 0 0 1-1.5 0v-6a.75.75 0 0 1 .75-.75" clip-rule="evenodd" opacity=".4"/><path fill="currentColor" fill-rule="evenodd" d="M12 1.25h-.161c-1.48 0-2.436 0-3.286.345a4.7 4.7 0 0 0-1.258.759c-.703.591-1.154 1.44-1.854 2.755l-.076.142-.83 1.56C3.86 8.078 3.312 9.105 3.016 9.936c-.304.852-.42 1.697.04 2.473.462.778 1.258 1.077 2.15 1.211.867.13 2.022.13 3.447.13h6.692c1.425 0 2.58 0 3.448-.13.891-.133 1.687-.433 2.149-1.211.46-.776.345-1.62.04-2.473-.296-.831-.843-1.858-1.517-3.124l-.83-1.56-.076-.143c-.7-1.316-1.152-2.164-1.854-2.755a4.7 4.7 0 0 0-1.259-.76c-.85-.345-1.807-.344-3.286-.344zM9.118 2.984c.544-.22 1.184-.234 2.882-.234s2.338.013 2.883.234c.31.127.6.301.857.518.452.38.768.946 1.571 2.454l.8 1.504c.713 1.337 1.205 2.265 1.46 2.98.252.707.198 1.007.081 1.204-.116.195-.348.383-1.08.493-.744.111-1.786.113-3.29.113H8.718c-1.505 0-2.547-.002-3.29-.113-.733-.11-.965-.298-1.081-.493-.117-.197-.17-.498.082-1.204.254-.715.747-1.643 1.459-2.98l.8-1.504c.803-1.508 1.119-2.073 1.571-2.454.258-.217.547-.391.858-.518m2.826 15.266h-.09c-.514 0-.912 0-1.278.1-.371.102-.718.28-1.008.529-.293.252-.488.582-.713.963l-.045.075-.016.028a9 9 0 0 0-.375.674c-.093.2-.203.486-.159.816.066.49.38.881.78 1.101.256.14.533.18.77.197.234.017.527.017.863.017h2.654c.336 0 .629 0 .864-.017.236-.017.513-.056.769-.197.4-.22.714-.61.78-1.101.044-.33-.066-.617-.159-.816a9 9 0 0 0-.375-.674l-.016-.027-.045-.076c-.224-.38-.42-.711-.713-.963a2.6 2.6 0 0 0-1.007-.529c-.367-.1-.765-.1-1.279-.1zm-.972 1.547c.147-.04.326-.047.972-.047h.112c.646 0 .826.006.972.047.172.047.317.125.427.22.082.07.15.167.444.664.154.26.249.422.308.542q-.04.008-.126.014c-.173.013-.41.013-.78.013h-2.6c-.371 0-.608 0-.781-.013a2 2 0 0 1-.126-.014c.06-.12.154-.282.308-.542.295-.497.363-.594.444-.664a1.1 1.1 0 0 1 .427-.22" clip-rule="evenodd"/></svg>