<svg xmlns="http://www.w3.org/2000/svg" fill="none" viewBox="0 0 24 24"><path fill="currentColor" fill-rule="evenodd" d="M12 11.25a.75.75 0 0 1 .75.75v3.378a2.251 2.251 0 0 1 0 4.244V22a.75.75 0 0 1-1.5 0v-2.378a2.251 2.251 0 0 1 0-4.244V12a.75.75 0 0 1 .75-.75m0 5.5a.75.75 0 1 0 0 1.5.75.75 0 0 0 0-1.5" clip-rule="evenodd" opacity=".4"/><path fill="currentColor" fill-rule="evenodd" d="M8 21.25a.75.75 0 0 0 0 1.5h8a.75.75 0 0 0 0-1.5zm4.474-20h-.949c-.632 0-1.162 0-1.598.044-.46.046-.88.146-1.273.387-.396.242-.67.568-.91.955-.223.361-.443.822-.701 1.365l-.017.035-1.623 3.41-.028.058c-.43.904-.791 1.662-.976 2.28-.194.647-.255 1.334.17 1.954.414.606 1.072.824 1.754.92.664.092 1.536.092 2.592.092h6.17c1.055 0 1.928 0 2.592-.093.681-.095 1.34-.313 1.755-.92.424-.619.363-1.306.169-1.952-.185-.619-.546-1.377-.976-2.281l-1.668-3.503c-.258-.543-.478-1.004-.701-1.365-.24-.387-.514-.713-.91-.955-.394-.24-.814-.34-1.273-.387-.436-.044-.966-.044-1.599-.044M9.436 2.96c.131-.08.306-.14.642-.174.35-.035.805-.036 1.484-.036h.876c.679 0 1.133 0 1.484.036.336.034.51.094.641.174.129.079.252.199.417.465.175.283.36.669.64 1.256l1.623 3.41c.465.977.773 1.63.921 2.124.143.478.074.61.03.676-.055.08-.184.205-.725.28-.547.077-1.314.079-2.443.079H8.974c-1.13 0-1.896-.002-2.443-.078-.542-.076-.67-.202-.725-.281-.045-.066-.113-.198.03-.676.147-.494.456-1.147.92-2.124l1.624-3.41c.28-.587.465-.973.64-1.256.165-.266.288-.386.416-.465" clip-rule="evenodd"/></svg>