<svg xmlns="http://www.w3.org/2000/svg" fill="none" viewBox="0 0 24 24"><path fill="currentColor" fill-rule="evenodd" d="M18 1.25a.75.75 0 0 1 .75.75v.603a4.1 4.1 0 0 1 2.172 1.127l.672-.432a.75.75 0 0 1 .812 1.261l-.638.41a3.86 3.86 0 0 1 0 3.062l.637.41a.75.75 0 0 1-.81 1.261l-.673-.432a4.1 4.1 0 0 1-2.172 1.128V11a.75.75 0 0 1-1.5 0v-.602a4.1 4.1 0 0 1-2.17-1.128l-.673.432a.75.75 0 0 1-.811-1.261l.637-.41a3.86 3.86 0 0 1 0-3.061l-.637-.41a.75.75 0 0 1 .81-1.262l.674.432a4.1 4.1 0 0 1 2.171-1.127V2a.75.75 0 0 1 .75-.75m0 2.786c-.908 0-1.698.445-2.157 1.108a2.37 2.37 0 0 0 0 2.712A2.61 2.61 0 0 0 18 8.964c.908 0 1.698-.445 2.157-1.108a2.37 2.37 0 0 0 0-2.712A2.61 2.61 0 0 0 18 4.036" clip-rule="evenodd" opacity=".4"/><path fill="currentColor" fill-rule="evenodd" d="M11 2.25H7.948c-.899 0-1.648 0-2.242.08-.628.084-1.195.27-1.65.725-.456.456-.642 1.023-.726 1.65-.08.595-.08 1.345-.08 2.243v7.908l-.416.81c-.724 1.335-1.211 2.4-1.437 3.283-.232.909-.205 1.7.19 2.417.44.8 1.228 1.112 2.111 1.25.854.134 1.992.134 3.389.134h9.826c1.396 0 2.535 0 3.389-.134.883-.138 1.67-.45 2.111-1.25.394-.716.422-1.508.19-2.417-.226-.885-.715-1.952-1.442-3.291l-.411-.76V13.5a.75.75 0 0 0-1.5 0v.75H4.75V7c0-.964.002-1.612.067-2.095.062-.461.169-.659.3-.789s.327-.237.788-.3C6.388 3.753 7.036 3.75 8 3.75h3a.75.75 0 0 0 0-1.5M4.165 16.358l.312-.608h15.028l.338.623c.716 1.322 1.129 2.252 1.306 2.947.171.67.104 1.042-.05 1.322-.108.196-.322.382-1.03.492-.723.114-1.743.116-3.224.116h-9.69c-1.481 0-2.501-.002-3.225-.116-.708-.11-.922-.296-1.03-.492-.153-.28-.22-.651-.05-1.322.178-.695.59-1.625 1.307-2.947z" clip-rule="evenodd"/></svg>