<svg xmlns="http://www.w3.org/2000/svg" fill="none" viewBox="0 0 24 24"><path fill="currentColor" fill-rule="evenodd" d="M11.5 2.25H7.948c-.899 0-1.648 0-2.242.08-.628.084-1.195.27-1.65.725-.456.456-.642 1.023-.726 1.65-.08.595-.08 1.345-.08 2.243v7.908l-.416.81c-.724 1.335-1.211 2.4-1.437 3.283-.232.909-.205 1.7.19 2.417.44.8 1.228 1.112 2.111 1.25.854.134 1.992.134 3.389.134h9.826c1.396 0 2.535 0 3.389-.134.883-.138 1.67-.45 2.111-1.25.394-.716.422-1.508.19-2.417-.226-.885-.715-1.952-1.442-3.291l-.411-.76V12a.75.75 0 0 0-1.5 0v2.25H4.75V7c0-.964.002-1.612.067-2.095.062-.461.169-.659.3-.789s.327-.237.788-.3C6.388 3.753 7.036 3.75 8 3.75h3.5a.75.75 0 0 0 0-1.5M4.165 16.358l.312-.608h15.028l.338.623c.716 1.322 1.129 2.252 1.306 2.947.171.67.104 1.042-.05 1.322-.108.196-.322.382-1.03.492-.723.114-1.743.116-3.224.116h-9.69c-1.481 0-2.501-.002-3.225-.116-.708-.11-.922-.296-1.03-.492-.153-.28-.22-.651-.05-1.322.178-.695.59-1.625 1.307-2.947z" clip-rule="evenodd"/><path fill="currentColor" fill-rule="evenodd" d="M17.5 2.75c-.879 0-1.64.705-1.718 1.656a.75.75 0 0 1-.674.684c-.74.073-1.358.73-1.358 1.577 0 .9.697 1.583 1.5 1.583h4.725c.679 0 1.275-.578 1.275-1.35s-.596-1.35-1.275-1.35a.75.75 0 0 1-.685-.443c-.03-.07-.044-.129-.048-.144a1 1 0 0 1-.019-.136v-.002l-.002-.03-.004-.055a4 4 0 0 0-.03-.266 3 3 0 0 0-.216-.773 1.64 1.64 0 0 0-.496-.666c-.207-.157-.508-.285-.975-.285m-3.117.964C14.746 2.31 15.988 1.25 17.5 1.25c.77 0 1.395.222 1.881.59.476.36.775.828.964 1.259.166.377.255.746.306 1.035 1.22.312 2.099 1.45 2.099 2.766 0 1.548-1.217 2.85-2.775 2.85H15.25c-1.682 0-3-1.406-3-3.083 0-1.377.885-2.568 2.133-2.953" clip-rule="evenodd" opacity=".4"/></svg>