<svg xmlns="http://www.w3.org/2000/svg" fill="none" viewBox="0 0 24 24"><path fill="currentColor" fill-rule="evenodd" d="M17.343 3.39c-1.959-.743-4.465-.88-7.043-.192-2.577.688-4.678 2.056-6.002 3.675-1.324 1.62-1.835 3.439-1.39 5.1.377 1.397 1.176 2.415 2.357 3.04 1.2.636 2.86.9 4.991.635a.75.75 0 1 1 .185 1.489c-2.33.289-4.325.025-5.878-.798-1.573-.833-2.626-2.204-3.103-3.977-.603-2.245.134-4.55 1.677-6.438C4.68 4.035 7.066 2.51 9.913 1.748c2.848-.76 5.678-.627 7.962.24 2.283.866 4.076 2.493 4.68 4.738.473 1.758.051 3.464-.846 5.02-.892 1.545-2.277 2.987-3.831 4.279a.75.75 0 1 1-.959-1.154c1.486-1.235 2.723-2.545 3.49-3.875.763-1.322 1.037-2.616.697-3.88-.446-1.662-1.802-2.982-3.763-3.726" clip-rule="evenodd" opacity=".4"/><path fill="currentColor" fill-rule="evenodd" d="M11.288 14.382c-.423.329-.576.682-.54 1.024.017.16.117.35.48.527.372.183.931.298 1.612.298 1.184 0 2.53-.346 3.53-.993-.658-1.187-1.97-1.633-3.274-1.508-.73.07-1.379.319-1.809.652m5.453 2.379c-1.212.656-2.65.97-3.9.97-.82 0-1.628-.135-2.273-.451-.655-.321-1.223-.88-1.312-1.717-.106-1.003.409-1.82 1.111-2.365.696-.54 1.63-.87 2.586-.961 1.903-.182 4.21.577 5.054 3.001l.005.016.005.017c.962 3.234-1.23 6.805-4.936 7.429a.75.75 0 1 1-.25-1.48c2.438-.41 3.939-2.434 3.91-4.46" clip-rule="evenodd"/></svg>