<svg xmlns="http://www.w3.org/2000/svg" fill="none" viewBox="0 0 24 24"><path fill="currentColor" fill-rule="evenodd" d="M18.919 13.753c-.555 0-.958-.107-1.035-.127l-.01-.003a.77.77 0 0 1-.52-.53l-.001-.007c-.037-.157-.511-2.23 1.03-3.753 1.547-1.526 3.58-.994 3.742-.951l.008.002c.25.07.45.28.52.53l.001.006c.036.158.51 2.23-1.031 3.753-.888.878-1.935 1.08-2.704 1.08m0 0h-.005.01zm-.165-1.5c.47.02 1.22-.05 1.82-.64.609-.61.699-1.37.689-1.85-.47-.02-1.22.05-1.82.64-.61.6-.7 1.37-.68 1.85zm.41 6.86c-.38 0-.78-.06-1.2-.22-1.8-.695-2.157-2.516-2.204-2.755l-.005-.024c-.04-.26.06-.52.27-.69l.013-.01c.171-.13 1.676-1.273 3.496-.57 1.8.696 2.157 2.516 2.204 2.756l.005.024c.04.26-.06.52-.27.69h-.001c-.065.052-1.01.81-2.308.81zm-.66-1.62c.65.25 1.25.08 1.62-.1-.16-.38-.48-.9-1.12-1.149-.65-.25-1.24-.08-1.62.1.16.38.48.9 1.12 1.15m-13.417-3.74h-.005c.554 0 .957-.107 1.035-.127l.01-.003c.26-.07.45-.27.52-.53l.001-.007c.036-.157.511-2.23-1.031-3.753C4.101 7.827 2.1 8.326 1.884 8.38l-.016.004c-.26.07-.45.27-.52.53l-.001.006c-.036.158-.511 2.23 1.03 3.753.889.878 1.946 1.08 2.705 1.08h-.005zm-2.33-4c-.02.48.07 1.25.68 1.85.6.6 1.35.67 1.82.64.02-.48-.07-1.25-.68-1.85-.6-.6-1.35-.67-1.82-.64m2.081 9.359c-1.31 0-2.259-.76-2.309-.81-.2-.17-.3-.43-.27-.69.01-.08.32-2.06 2.21-2.78 1.879-.72 3.448.53 3.508.58.2.17.3.43.27.69-.01.08-.32 2.06-2.209 2.78-.42.16-.83.22-1.2.22zm-.95-1.72c.38.18.97.35 1.62.1.64-.24.96-.77 1.12-1.15-.38-.18-.97-.35-1.62-.1-.64.25-.97.77-1.12 1.15" clip-rule="evenodd" opacity=".4"/><path fill="currentColor" fill-rule="evenodd" d="M7.047 8.58c.575-.28 1.818-1.063 2.099-2.686.36-2.06-1.21-3.41-1.28-3.47a.74.74 0 0 0-.73-.13c-.09.03-2.03.73-2.39 2.81-.244 1.403.406 2.477.868 3.038a9.5 9.5 0 0 0-.356 2.588c0 3.558 1.963 6.585 4.67 7.63-.814 1.016-1.134 2.376-1.153 2.47-.1.41.16.81.56.9.06.02.12.02.17.02.34 0 .65-.23.73-.58.12-.51.78-2.42 1.77-2.42s1.619 1.79 1.769 2.42c.09.4.5.65.9.56.4-.1.65-.5.56-.9-.02-.088-.34-1.456-1.158-2.475 2.7-1.049 4.658-4.072 4.658-7.625 0-.877-.118-1.74-.349-2.561.463-.555 1.125-1.637.878-3.057-.366-2.057-2.267-2.765-2.386-2.809l-.003-.001a.74.74 0 0 0-.73.13c-.07.05-1.64 1.4-1.28 3.47.285 1.603 1.504 2.386 2.083 2.675.2.693.297 1.42.297 2.163 0 3.518-2.256 6.401-5.075 6.516a3 3 0 0 0-.336 0c-2.824-.107-5.086-2.984-5.086-6.516 0-.742.104-1.468.3-2.16m.17-4.646c-.37.24-.86.69-.99 1.43s.19 1.35.45 1.71c.37-.24.86-.69.99-1.43.129-.74-.19-1.35-.45-1.71m9.577-.002c-.27.36-.58.96-.45 1.71.13.74.62 1.19.99 1.43.27-.36.58-.96.45-1.71-.13-.74-.62-1.19-.99-1.43" clip-rule="evenodd"/></svg>