<svg xmlns="http://www.w3.org/2000/svg" fill="none" viewBox="0 0 24 24"><path fill="currentColor" fill-rule="evenodd" d="M2.75 12a9.25 9.25 0 0 1 15.255-7.036L5.395 18.476A9.22 9.22 0 0 1 2.75 12m3.779 7.46A9.25 9.25 0 0 0 19.065 6.028zM12 1.25C6.063 1.25 1.25 6.063 1.25 12S6.063 22.75 12 22.75 22.75 17.937 22.75 12 17.937 1.25 12 1.25" clip-rule="evenodd"/><path fill="currentColor" fill-rule="evenodd" d="m21.528 14.433-6-4.853.943-1.166 6 4.853zm-2.656 4.497-6.948-5.957.977-1.14 6.947 5.958zm-4.352 3.143-7-5.832.96-1.153 7 5.833z" clip-rule="evenodd" opacity=".4"/></svg>