<svg xmlns="http://www.w3.org/2000/svg" fill="none" viewBox="0 0 24 24"><path fill="currentColor" fill-rule="evenodd" d="M6.688 22.07c1.343.18 3.064.18 5.255.18h.114c2.19 0 3.912 0 5.255-.18 1.377-.186 2.469-.573 3.327-1.43.858-.86 1.245-1.951 1.43-3.328.181-1.343.181-3.064.181-5.255v-.114c0-2.19 0-3.912-.18-5.255-.186-1.377-.573-2.469-1.43-3.327-.86-.858-1.951-1.245-3.328-1.43-1.343-.181-3.064-.181-5.255-.181h-.114c-2.19 0-3.912 0-5.255.18-1.377.186-2.469.573-3.327 1.43-.858.86-1.245 1.951-1.43 3.328-.181 1.343-.181 3.064-.181 5.255v.114c0 2.19 0 3.912.18 5.255.186 1.377.573 2.469 1.43 3.327.86.858 1.951 1.245 3.328 1.43m12.89-2.492c-.533.534-1.256.842-2.466 1.005-1.232.165-2.852.167-5.112.167-.833 0-1.578 0-2.25-.009V3.26c.672-.009 1.417-.009 2.25-.009 2.26 0 3.88.002 5.112.167 1.21.163 1.933.472 2.466 1.005s.842 1.256 1.005 2.466c.165 1.232.167 2.852.167 5.112s-.002 3.88-.167 5.112c-.163 1.21-.471 1.933-1.005 2.466M8.25 3.301a16 16 0 0 0-1.362.116c-1.21.163-1.933.472-2.466 1.005S3.58 5.678 3.417 6.888C3.252 8.12 3.25 9.74 3.25 12s.002 3.88.167 5.112c.163 1.21.472 1.933 1.005 2.466s1.256.842 2.466 1.005q.61.081 1.362.116z" clip-rule="evenodd"/><path fill="currentColor" fill-rule="evenodd" d="M21.5 7.25H9v1.5h12.5zm0 8H9v1.5h12.5z" clip-rule="evenodd" opacity=".4"/></svg>