<svg xmlns="http://www.w3.org/2000/svg" fill="none" viewBox="0 0 24 24"><path fill="currentColor" fill-rule="evenodd" d="M17.945 11.25H19a.75.75 0 0 1 0 1.5h-1c-1.435 0-2.437.002-3.192.103-.734.099-1.122.28-1.399.556-.277.277-.457.665-.556 1.4-.101.755-.103 1.756-.103 3.191v1a.75.75 0 0 1-1.5 0v-1.055c0-1.367 0-2.47.117-3.337.12-.9.38-1.658.981-2.26.602-.602 1.36-.86 2.26-.982.867-.116 1.97-.116 3.337-.116" clip-rule="evenodd" opacity=".4"/><path fill="currentColor" fill-rule="evenodd" d="M17.989 4.98a8 8 0 0 1-.451.543.75.75 0 1 1-1.076-1.046c.064-.066.175-.204.348-.423l.038-.049c.151-.193.332-.422.517-.642.199-.234.426-.483.655-.678a2.3 2.3 0 0 1 .396-.277c.14-.075.343-.158.584-.158s.444.083.584.158c.147.079.28.179.396.277.23.195.456.444.655.678.185.22.365.449.517.642l.038.049c.173.22.284.357.348.423a.75.75 0 1 1-1.076 1.046 8 8 0 0 1-.45-.542l-.037-.046q-.11-.141-.225-.285v8.588c0 1.324 0 2.395-.117 3.239-.122.88-.384 1.622-.99 2.21-.602.584-1.358.833-2.254.95-.866.113-1.967.113-3.335.113H4.65l.285.225.045.036c.193.151.407.319.543.451a.75.75 0 1 1-1.046 1.076 7 7 0 0 0-.423-.348l-.049-.038a22 22 0 0 1-.642-.517 6 6 0 0 1-.678-.655 2.3 2.3 0 0 1-.277-.396A1.24 1.24 0 0 1 2.25 19c0-.24.083-.444.158-.584a2.3 2.3 0 0 1 .277-.396c.195-.23.444-.456.678-.655.22-.185.449-.365.642-.517l.049-.038c.22-.173.357-.284.423-.348a.75.75 0 1 1 1.046 1.076c-.136.132-.35.3-.542.45l-.046.037q-.141.11-.285.225H13c1.435 0 2.438-.002 3.195-.1.738-.096 1.128-.273 1.404-.54.273-.265.45-.634.548-1.34.101-.728.103-1.695.103-3.088V4.65l-.225.285z" clip-rule="evenodd"/></svg>