<svg xmlns="http://www.w3.org/2000/svg" fill="none" viewBox="0 0 24 24"><path fill="currentColor" fill-rule="evenodd" d="M9 4.25a.75.75 0 0 0 0 1.5h12a.75.75 0 0 0 0-1.5zm0 14a.75.75 0 0 0 0 1.5h12a.75.75 0 0 0 0-1.5z" clip-rule="evenodd"/><path fill="currentColor" fill-rule="evenodd" d="M3 4.25a.75.75 0 0 0 0 1.5h2a.75.75 0 0 0 0-1.5zm6 7a.75.75 0 0 0 0 1.5h12a.75.75 0 0 0 0-1.5zM2.25 12a.75.75 0 0 1 .75-.75h2a.75.75 0 0 1 0 1.5H3a.75.75 0 0 1-.75-.75M3 18.25a.75.75 0 0 0 0 1.5h2a.75.75 0 0 0 0-1.5z" clip-rule="evenodd" opacity=".4"/></svg>