<svg xmlns="http://www.w3.org/2000/svg" fill="none" viewBox="0 0 24 24"><path fill="currentColor" fill-rule="evenodd" d="M11 22.75h2c3.973 0 5.968 0 7.358-1.391C21.75 19.968 21.75 17.973 21.75 14v-4c0-3.973 0-5.968-1.391-7.358C18.968 1.25 16.973 1.25 13 1.25h-2c-3.973 0-5.968 0-7.358 1.391C2.25 4.032 2.25 6.027 2.25 10v4c0 3.973 0 5.968 1.391 7.358C5.032 22.75 7.027 22.75 11 22.75M4.703 3.702C5.654 2.75 7.441 2.75 11 2.75h2c3.56 0 5.346 0 6.298.953.952.951.952 2.737.952 6.296V14c0 3.56 0 5.346-.953 6.298-.951.952-2.738.952-6.297.952h-2c-3.56 0-5.346 0-6.298-.953-.952-.951-.952-2.737-.952-6.296V10c0-3.56 0-5.346.953-6.298M8 18.75h8a.75.75 0 0 0 0-1.5H8a.75.75 0 0 0 0 1.5" clip-rule="evenodd"/><path fill="currentColor" d="M12.522 14.756h-1.06a.75.75 0 0 1-.216-1.468V7.75H8.808c.834.88 1.983 2.281 1.302 3.671-.312.634-.932 1.388-2.114 1.388-.925 0-1.624-.467-2.075-1.388-.69-1.405.47-2.83 1.264-3.671h-.154a.75.75 0 0 1 0-1.5h9.908a.75.75 0 0 1 0 1.5h-.163c.834.881 1.983 2.281 1.3 3.672-.31.633-.928 1.387-2.113 1.387-.924 0-1.623-.467-2.074-1.388-.69-1.405.47-2.83 1.264-3.671h-2.406v5.54a.75.75 0 0 1-.223 1.466zm3.443-5.667c-.46.535-.945 1.235-.73 1.671.27.549.546.549.729.549s.498 0 .766-.548c.21-.425-.285-1.124-.764-1.671zm-7.967 0c-.46.535-.945 1.235-.73 1.671.27.549.546.549.73.549.182 0 .496 0 .766-.549.208-.425-.287-1.123-.765-1.671" opacity=".4"/></svg>