<svg xmlns="http://www.w3.org/2000/svg" fill="none" viewBox="0 0 24 24"><path fill="currentColor" fill-rule="evenodd" d="M2.75 2a.75.75 0 0 0-1.5 0v20a.75.75 0 0 0 1.5 0zm20 0a.75.75 0 0 0-1.5 0v20a.75.75 0 0 0 1.5 0z" clip-rule="evenodd" opacity=".4"/><path fill="currentColor" fill-rule="evenodd" d="m11.353 7.76-1.555 4.473 4.459-.047c-.304-.893-.6-1.755-.855-2.48-.178-.51-.335-.95-.459-1.284a9 9 0 0 0-.234-.597c-.209-.41-.36-.7-.52-.898a.6.6 0 0 0-.183-.163q-.068.054-.182.193a3.8 3.8 0 0 0-.471.803m3.41 5.92a977 977 0 0 1 1.386 4.137l.14.419a.75.75 0 0 0 1.423-.472l-.14-.42a1043 1043 0 0 0-1.525-4.55c-.428-1.266-.87-2.558-1.23-3.584a85 85 0 0 0-.467-1.31 9 9 0 0 0-.303-.754l-.02-.037c-.182-.36-.401-.794-.677-1.131-.303-.372-.753-.724-1.397-.729a1.36 1.36 0 0 0-.8.278c-.194.14-.362.318-.502.494a5.3 5.3 0 0 0-.706 1.218L6.292 17.754a.75.75 0 1 0 1.417.492l1.566-4.507z" clip-rule="evenodd"/></svg>