<svg xmlns="http://www.w3.org/2000/svg" fill="none" viewBox="0 0 24 24"><path fill="currentColor" fill-rule="evenodd" d="M6.031 2.25H5.97c-.674 0-1.225 0-1.672.037-.463.037-.882.118-1.272.317a3.25 3.25 0 0 0-1.42 1.42c-.2.391-.28.81-.318 1.273-.037.447-.037.998-.037 1.672V17.03c0 .674 0 1.225.037 1.672.037.463.118.882.317 1.273a3.25 3.25 0 0 0 1.42 1.42c.391.199.81.28 1.273.317.447.037.998.037 1.672.037h.062c.674 0 1.225 0 1.672-.037.463-.037.882-.118 1.272-.317a3.25 3.25 0 0 0 1.42-1.42c.2-.391.28-.81.318-1.273.037-.447.037-.998.037-1.671V8.558l2.517 9.432c.17.64.31 1.163.458 1.58.154.43.337.809.626 1.131a3.2 3.2 0 0 0 1.712.993c.423.09.842.06 1.291-.022.434-.08.955-.22 1.592-.391l.06-.016c.637-.172 1.159-.312 1.573-.46.43-.155.808-.34 1.129-.63a3.2 3.2 0 0 0 .987-1.717c.09-.423.06-.843-.022-1.293-.079-.435-.218-.958-.389-1.597l-2.55-9.56c-.171-.64-.311-1.163-.46-1.58-.153-.43-.336-.809-.625-1.131a3.2 3.2 0 0 0-1.712-.993c-.424-.09-.842-.06-1.291.022-.434.08-.955.22-1.592.391l-.06.016c-.637.172-1.159.312-1.573.46-.43.155-.808.34-1.129.63-.27.244-.496.532-.668.85a2.7 2.7 0 0 0-.228-.65 3.25 3.25 0 0 0-1.42-1.42c-.391-.199-.81-.28-1.273-.317-.447-.037-.998-.037-1.672-.037M3.706 3.94c.144-.073.343-.128.713-.158C4.8 3.75 5.288 3.75 6 3.75s1.202 0 1.58.032c.371.03.57.085.714.159.33.168.597.435.765.765.074.144.13.343.16.713.03.38.031.869.031 1.581v10c0 .712 0 1.202-.032 1.58-.03.371-.085.57-.159.715a1.75 1.75 0 0 1-.765.764c-.144.074-.343.13-.713.16-.38.03-.869.031-1.581.031s-1.202 0-1.58-.032c-.371-.03-.57-.085-.714-.159a1.75 1.75 0 0 1-.765-.765c-.074-.144-.13-.343-.16-.713-.03-.38-.031-.869-.031-1.581V7c0-.712 0-1.202.032-1.58.03-.371.085-.57.159-.714a1.75 1.75 0 0 1 .765-.765M6 16a1 1 0 1 0 0 2h.009a1 1 0 1 0 0-2zm9.916-12.197c-.366.067-.828.19-1.502.372-.675.181-1.136.306-1.487.432-.341.122-.513.225-.629.33a1.7 1.7 0 0 0-.526.914c-.032.154-.035.356.03.715.067.368.19.832.371 1.509l2.535 9.5c.18.676.305 1.14.43 1.492.123.344.225.517.33.634.24.268.558.452.908.527.152.032.351.035.708-.03.366-.068.828-.191 1.502-.373.675-.181 1.137-.306 1.487-.432.341-.122.513-.225.629-.33.267-.24.45-.56.526-.914.032-.154.035-.356-.03-.715-.067-.368-.19-.832-.371-1.51l-2.535-9.499c-.18-.676-.305-1.14-.43-1.492-.123-.344-.225-.518-.33-.634a1.7 1.7 0 0 0-.908-.527c-.152-.032-.351-.035-.708.03m1.605 11.923a1 1 0 1 0 .517 1.931l.009-.002a1 1 0 0 0-.518-1.932z" clip-rule="evenodd"/><path fill="currentColor" fill-rule="evenodd" d="M18.72 6.717a.75.75 0 0 0-.44-1.434l-6.5 2a.75.75 0 1 0 .44 1.434zM2 6.25a.75.75 0 0 0 0 1.5h8a.75.75 0 0 0 0-1.5z" clip-rule="evenodd" opacity=".4"/></svg>