<svg xmlns="http://www.w3.org/2000/svg" fill="none" viewBox="0 0 24 24"><path fill="currentColor" fill-rule="evenodd" d="M10.444 1.25h1.112c1.838 0 3.294 0 4.433.153 1.172.158 2.121.49 2.87 1.238.748.749 1.08 1.698 1.238 2.87.153 1.14.153 2.595.153 4.433V11a.75.75 0 0 1-1.5 0v-1c0-1.907-.002-3.261-.14-4.29-.135-1.005-.389-1.585-.812-2.008s-1.003-.677-2.009-.812c-1.028-.138-2.382-.14-4.29-.14H10.5c-1.907 0-3.261.002-4.29.14-1.005.135-1.585.389-2.008.812S3.525 4.705 3.39 5.71c-.138 1.028-.14 2.383-.14 4.29v4c0 1.907.002 3.262.14 4.29.135 1.005.389 1.585.812 2.008s1.003.677 2.009.812c1.027.138 2.382.14 4.289.14a.75.75 0 0 1 0 1.5h-.056c-1.838 0-3.294 0-4.433-.153-1.173-.158-2.121-.49-2.87-1.238-.748-.749-1.08-1.698-1.238-2.87-.153-1.14-.153-2.595-.153-4.433V9.944c0-1.838 0-3.294.153-4.433.158-1.172.49-2.121 1.238-2.87.749-.748 1.698-1.08 2.87-1.238 1.14-.153 2.595-.153 4.433-.153" clip-rule="evenodd" opacity=".4"/><path fill="currentColor" fill-rule="evenodd" d="M7 6.25a.75.75 0 0 0 0 1.5h8a.75.75 0 0 0 0-1.5zm0 5a.75.75 0 0 0 0 1.5h8a.75.75 0 0 0 0-1.5zm12.236 3.58.067-.055a.25.25 0 0 1 .218 0l.068.055c.067.06.152.145.294.287.143.142.227.227.288.295l.054.067a.25.25 0 0 1 0 .218l-.055.067c-.06.068-.144.153-.287.295l-4.823 4.824a6 6 0 0 1-.307.297l-.067.05h-.001l-.002.001-.009.003-.074.009c-.09.007-.21.007-.426.007h-.424v-.423c0-.216 0-.336.008-.427l.009-.073.002-.01v-.001l.001-.002.005-.008.046-.058c.059-.069.144-.155.296-.307l4.824-4.824c.142-.143.228-.227.295-.287m.954-1.398a1.75 1.75 0 0 0-1.556 0c-.262.13-.484.354-.698.568l-.056.056-4.823 4.824-.057.057c-.231.23-.48.478-.616.805s-.135.678-.134 1.005V22c0 .414.336.75.75.75h1.254c.326.001.678.002 1.005-.133.327-.136.575-.385.805-.617l.056-.056 4.824-4.824.056-.056c.214-.213.438-.436.568-.698a1.75 1.75 0 0 0 0-1.556c-.13-.262-.354-.485-.568-.697l-.056-.057-.056-.056c-.213-.214-.436-.438-.698-.568" clip-rule="evenodd"/></svg>