<svg xmlns="http://www.w3.org/2000/svg" fill="none" viewBox="0 0 24 24"><path fill="currentColor" fill-rule="evenodd" d="M12 2.75c-5.228 0-9.25 3.58-9.25 7.75s4.022 7.75 9.25 7.75q.964-.001 1.873-.16a.75.75 0 0 1 .877.74v1.369c1.602-1.613 3.583-3.693 4.92-5.37l.002-.002c1.003-1.245 1.578-2.734 1.578-4.327 0-4.17-4.022-7.75-9.25-7.75M1.25 10.5c0-5.218 4.932-9.25 10.75-9.25s10.75 4.032 10.75 9.25c0 1.966-.712 3.781-1.909 5.267-1.788 2.242-4.646 5.134-6.316 6.769A.75.75 0 0 1 13.25 22v-2.312q-.615.062-1.25.062c-5.818 0-10.75-4.032-10.75-9.25" clip-rule="evenodd"/><path fill="currentColor" fill-rule="evenodd" d="M10.9 7.777a.75.75 0 0 1 .843.337l1.007 1.678V8.5a.75.75 0 0 1 1.5 0v4a.75.75 0 0 1-1.393.386l-1.007-1.678V12.5a.75.75 0 0 1-1.5 0v-4a.75.75 0 0 1 .55-.723M6 7.75a.75.75 0 0 1 .75.75v3.25H7a.75.75 0 0 1 0 1.5H6a.75.75 0 0 1-.75-.75v-4A.75.75 0 0 1 6 7.75m3 0a.75.75 0 0 1 .75.75v4a.75.75 0 0 1-1.5 0v-4A.75.75 0 0 1 9 7.75m5.85.75a.75.75 0 0 1 .75-.75h1.9a.75.75 0 0 1 0 1.5h-1.15v.5h.69a.75.75 0 0 1 0 1.5h-.69v.5h1.15a.75.75 0 0 1 0 1.5h-1.9a.75.75 0 0 1-.75-.75z" clip-rule="evenodd" opacity=".4"/></svg>