<svg xmlns="http://www.w3.org/2000/svg" fill="none" viewBox="0 0 24 24"><path fill="currentColor" fill-rule="evenodd" d="M2.532 9.323c.265-.058.562-.073.868-.073h17.2c.306 0 .603.015.868.073.274.06.561.177.797.412.235.236.351.523.412.797.058.265.073.562.073.868v1.2c0 .306-.015.603-.073.868-.06.274-.177.561-.412.797a1.6 1.6 0 0 1-.797.412 4 4 0 0 1-.868.073H3.4c-.306 0-.603-.015-.868-.073a1.6 1.6 0 0 1-.797-.412 1.6 1.6 0 0 1-.412-.797 4 4 0 0 1-.073-.868v-1.2c0-.306.015-.603.073-.868.06-.274.177-.561.412-.797.236-.235.522-.351.797-.412m.256 1.53a2.7 2.7 0 0 0-.038.547v1.2c0 .273.015.441.038.547q.008.033.014.051l.052.014c.105.023.273.038.546.038h17.2c.273 0 .441-.015.546-.038l.052-.014.014-.052c.023-.105.038-.273.038-.546v-1.2c0-.273-.015-.441-.038-.546l-.014-.052-.052-.014a2.7 2.7 0 0 0-.546-.038H3.4c-.273 0-.441.015-.546.038l-.052.014zm.025-.078-.001.002zm-.036.037h-.002zm18.448 0h-.002zm-.037-.035v-.002zm0 2.448v-.002zm.035-.037h.002zm-18.448 0h.002zm.037.035v.002z" clip-rule="evenodd" opacity=".4"/><path fill="currentColor" fill-rule="evenodd" d="M3.4 1.25c-.306 0-.603.015-.868.073-.275.06-.561.177-.797.412a1.6 1.6 0 0 0-.412.797 4 4 0 0 0-.073.868v1.2c0 .306.015.603.073.868.06.275.177.561.412.797.236.235.522.351.797.412.265.058.562.073.868.073h17.2c.306 0 .603-.015.868-.073.274-.06.561-.177.797-.412.235-.236.351-.522.412-.797.058-.265.073-.562.073-.868V3.4c0-.306-.015-.603-.073-.868a1.6 1.6 0 0 0-.412-.797 1.6 1.6 0 0 0-.797-.412 4 4 0 0 0-.868-.073zM2.75 3.4c0-.273.015-.441.038-.546l.014-.052.052-.014c.105-.023.273-.038.546-.038h17.2c.273 0 .441.015.546.038q.034.008.052.014l.014.052c.023.105.038.273.038.546v1.2c0 .273-.015.441-.038.546l-.014.052-.052.014a2.7 2.7 0 0 1-.546.038H3.4c-.273 0-.441-.015-.546-.038l-.052-.014-.014-.052A2.7 2.7 0 0 1 2.75 4.6zm.063-.625-.001.002zm-.036.037h-.002zm18.448 0h-.002zm-.037-.035v-.002zm0 2.448v-.002zm.035-.037h.002zm-18.446 0h-.002zm.035.035v.002zM3.4 17.25c-.306 0-.603.015-.868.073-.275.06-.561.177-.797.412a1.6 1.6 0 0 0-.412.797 4 4 0 0 0-.073.868v1.2c0 .306.015.603.073.868.06.274.177.561.412.797.236.235.522.351.797.412.265.058.562.073.868.073h17.2c.306 0 .603-.015.868-.073.274-.06.561-.177.797-.412a1.6 1.6 0 0 0 .412-.797c.058-.265.073-.562.073-.868v-1.2c0-.306-.015-.603-.073-.868a1.6 1.6 0 0 0-.412-.797 1.6 1.6 0 0 0-.797-.412 4 4 0 0 0-.868-.073zm-.65 2.15c0-.273.015-.441.038-.546l.014-.052.052-.014c.105-.023.273-.038.546-.038h17.2c.273 0 .441.015.546.038q.034.008.052.014l.014.052c.023.105.038.273.038.546v1.2c0 .273-.015.441-.038.546l-.014.052-.052.014a2.7 2.7 0 0 1-.546.038H3.4c-.273 0-.441-.015-.546-.038l-.052-.014-.014-.052a2.7 2.7 0 0 1-.038-.546zm.063-.625-.001.002zm-.036.037h-.002zm18.448 0h-.002zm-.037-.035v-.002zm0 2.448v-.002zm.035-.037h.002zm-18.448 0h.002zm.037.035v.002z" clip-rule="evenodd"/></svg>