<svg xmlns="http://www.w3.org/2000/svg" fill="none" viewBox="0 0 24 24"><path fill="currentColor" fill-rule="evenodd" d="M12 2.75c-4.466 0-8.25 3.706-8.25 8.176 0 2.265.95 4.207 2.404 5.899 1.458 1.695 3.395 3.105 5.3 4.285a1.14 1.14 0 0 0 1.094 0c1.905-1.168 3.843-2.582 5.3-4.282 1.453-1.697 2.402-3.645 2.402-5.902 0-4.47-3.784-8.176-8.25-8.176m-9.75 8.176C2.25 5.61 6.725 1.25 12 1.25s9.75 4.36 9.75 9.676c0 2.713-1.15 4.995-2.763 6.878-1.608 1.876-3.701 3.389-5.668 4.592l-.012.007-.011.007a2.64 2.64 0 0 1-2.592 0l-.013-.008-.013-.008c-1.96-1.213-4.053-2.721-5.661-4.591-1.615-1.879-2.767-4.155-2.767-6.877" clip-rule="evenodd"/><path fill="currentColor" fill-rule="evenodd" d="M12 6.79c-.773-.55-2.02-.852-3.37-.047-1.006.6-1.527 1.824-1.343 3.158.185 1.344 1.068 2.786 2.81 4.04l.075.054c.554.4 1.047.755 1.828.755s1.274-.355 1.828-.755l.074-.053c1.743-1.255 2.626-2.697 2.811-4.041.184-1.334-.338-2.558-1.344-3.158-1.35-.805-2.596-.503-3.369.046m-.856 1.231c-.354-.258-.966-.455-1.745.01-.401.24-.743.82-.626 1.665.115.835.697 1.946 2.2 3.028.653.47.77.526 1.027.526s.374-.057 1.026-.526c1.504-1.082 2.086-2.193 2.201-3.028.117-.845-.225-1.426-.626-1.665-.78-.465-1.39-.268-1.745-.01l-.016.012c-.101.074-.205.15-.291.205-.047.03-.112.068-.186.101a.9.9 0 0 1-.363.08.9.9 0 0 1-.363-.08 1.4 1.4 0 0 1-.186-.101 7 7 0 0 1-.291-.205z" clip-rule="evenodd" opacity=".4"/></svg>