<svg xmlns="http://www.w3.org/2000/svg" fill="none" viewBox="0 0 24 24"><path fill="currentColor" fill-rule="evenodd" d="M8.533 9.985C9.11 8.635 10.513 7.75 12 7.75s2.89.886 3.467 2.235c.524 1.225.273 2.24-.378 3.226-.581.88-1.433 1.667-2.31 2.477q-.242.222-.483.448a.43.43 0 0 1-.296.114.43.43 0 0 1-.295-.113q-.258-.243-.515-.48c-.866-.803-1.703-1.579-2.278-2.448-.651-.984-.904-1.998-.38-3.224M12 6.25c-2.055 0-4.02 1.213-4.847 3.145-.773 1.807-.344 3.355.508 4.642.684 1.034 1.683 1.957 2.547 2.755q.244.225.47.437l.001.002a1.934 1.934 0 0 0 2.641-.001l.445-.41c.873-.804 1.884-1.735 2.576-2.783.85-1.288 1.278-2.837.506-4.642C16.02 7.463 14.055 6.25 12 6.25m0 4.25a1 1 0 1 0 0 2h.009a1 1 0 1 0 0-2z" clip-rule="evenodd" opacity=".4"/><path fill="currentColor" fill-rule="evenodd" d="M12 2.75A9.25 9.25 0 0 0 3.52 8.3a.75.75 0 0 1-1.375-.6A10.75 10.75 0 0 1 12 1.25c5.937 0 10.75 4.813 10.75 10.75a.75.75 0 0 1-1.085.67l-2-1a.75.75 0 1 1 .67-1.34l.83.414A9.25 9.25 0 0 0 12 2.75M1.606 11.362a.75.75 0 0 1 .73-.033l2 1a.75.75 0 1 1-.671 1.342l-.83-.415A9.25 9.25 0 0 0 12 21.25a9.25 9.25 0 0 0 8.48-5.55.75.75 0 0 1 1.375.6A10.75 10.75 0 0 1 12 22.75C6.063 22.75 1.25 17.937 1.25 12a.75.75 0 0 1 .356-.638" clip-rule="evenodd"/></svg>