<svg xmlns="http://www.w3.org/2000/svg" fill="none" viewBox="0 0 24 24"><path fill="currentColor" fill-rule="evenodd" d="M12.001 2.75c-3.26 0-6.346 1.935-7.625 4.925-1.174 2.743-.58 5.037.822 7.157 1.205 1.82 2.96 3.446 4.691 5.049q.509.47 1.009.94c.292.272.687.429 1.103.429s.812-.157 1.104-.43q.469-.439.947-.878c1.753-1.618 3.537-3.263 4.754-5.108 1.401-2.122 1.992-4.42.82-7.16-1.278-2.989-4.366-4.924-7.625-4.924M2.997 7.085C4.525 3.513 8.175 1.25 12 1.25s7.477 2.263 9.005 5.835c1.42 3.32.653 6.151-.948 8.576-1.328 2.011-3.271 3.802-5.02 5.412q-.466.43-.908.841A3.12 3.12 0 0 1 12 22.75c-.79 0-1.554-.297-2.13-.835v-.002q-.468-.439-.964-.896c-1.73-1.6-3.646-3.372-4.96-5.357-1.602-2.423-2.372-5.251-.95-8.575" clip-rule="evenodd"/><path fill="currentColor" fill-rule="evenodd" d="M16.71 8.26a.75.75 0 0 1-.47.95c-.492.167-1.046.518-1.622.999a15 15 0 0 0-1.605 1.598 24 24 0 0 0-1.612 2.069l-.021.032-.005.007-.001.001a.75.75 0 0 1-1.288-.067c-.39-.742-.745-1.05-.941-1.174a.7.7 0 0 0-.197-.093A.75.75 0 0 1 9 11.084v.75l.001-.75h.024a1 1 0 0 1 .109.009q.088.01.213.043c.167.045.373.127.602.273.264.167.547.412.833.765.292-.385.669-.86 1.102-1.355a16.4 16.4 0 0 1 1.773-1.762c.64-.535 1.36-1.017 2.103-1.267a.75.75 0 0 1 .95.47" clip-rule="evenodd" opacity=".4"/></svg>