<svg xmlns="http://www.w3.org/2000/svg" fill="none" viewBox="0 0 24 24"><path fill="currentColor" fill-rule="evenodd" d="M5.702 15.09c-1.558-3.695 1.1-7.84 5.1-7.84h2.396c4 0 6.658 4.145 5.1 7.84a1.95 1.95 0 0 1-1.793 1.198h-.74l-1.063 4.324A2.79 2.79 0 0 1 12 22.75a2.79 2.79 0 0 1-2.702-2.138l-1.063-4.323h-.74c-.787 0-1.49-.477-1.793-1.198m5.1-6.34c-2.888 0-4.874 3.016-3.718 5.758a.45.45 0 0 0 .411.28h.844c.637 0 1.18.44 1.33 1.049l1.085 4.417c.146.593.665.996 1.246.996.58 0 1.1-.403 1.246-.996l1.086-4.417a1.37 1.37 0 0 1 1.33-1.048h.843a.45.45 0 0 0 .41-.28c1.157-2.743-.829-5.759-3.717-5.759z" clip-rule="evenodd"/><path fill="currentColor" fill-rule="evenodd" d="M12 2.75a2.25 2.25 0 1 0 0 4.5 2.25 2.25 0 0 0 0-4.5M8.25 5a3.75 3.75 0 1 1 7.5 0 3.75 3.75 0 0 1-7.5 0" clip-rule="evenodd" opacity=".4"/></svg>