<svg xmlns="http://www.w3.org/2000/svg" fill="none" viewBox="0 0 24 24"><path fill="currentColor" fill-rule="evenodd" d="M12.6 3.75c-4.934 0-8.85 3.739-8.85 8.25s3.916 8.25 8.85 8.25q.662 0 1.298-.088a.75.75 0 0 1 .204 1.486q-.736.101-1.502.102c-5.67 0-10.35-4.32-10.35-9.75S6.93 2.25 12.6 2.25q.765 0 1.502.102a.75.75 0 1 1-.204 1.486A10 10 0 0 0 12.6 3.75" clip-rule="evenodd"/><path fill="currentColor" fill-rule="evenodd" d="M13.36 13.41c.244.193.501.395.663.552a.75.75 0 1 1-1.046 1.076 9 9 0 0 0-.604-.495 27 27 0 0 1-.797-.643 7.4 7.4 0 0 1-.828-.797 2.7 2.7 0 0 1-.323-.46A1.4 1.4 0 0 1 10.25 12c0-.258.089-.48.175-.642.09-.168.206-.323.323-.461.235-.276.537-.551.828-.797.27-.23.555-.453.797-.643l.06-.047q.407-.318.544-.448a.75.75 0 1 1 1.046 1.076 9 9 0 0 1-.664.551l-.057.045a27 27 0 0 0-.764.616H21a.75.75 0 0 1 0 1.5h-8.462l.007.006c.249.21.512.417.757.61z" clip-rule="evenodd" opacity=".4"/></svg>