<svg xmlns="http://www.w3.org/2000/svg" fill="none" viewBox="0 0 24 24"><path fill="currentColor" fill-rule="evenodd" d="M12.6 3.75c-4.934 0-8.85 3.739-8.85 8.25s3.916 8.25 8.85 8.25q.662 0 1.298-.088a.75.75 0 0 1 .204 1.486q-.736.101-1.502.102c-5.67 0-10.35-4.32-10.35-9.75S6.93 2.25 12.6 2.25q.765 0 1.502.102a.75.75 0 1 1-.204 1.486A10 10 0 0 0 12.6 3.75" clip-rule="evenodd"/><path fill="currentColor" fill-rule="evenodd" d="M17.962 8.977a.75.75 0 0 1 1.06-.015 9 9 0 0 0 .605.495c.242.19.526.413.797.643.291.246.593.521.828.797.117.138.233.293.323.46.086.162.175.385.175.643s-.089.48-.175.642c-.09.168-.206.323-.323.461a7.4 7.4 0 0 1-.828.797 28 28 0 0 1-.857.69 9 9 0 0 0-.544.448.75.75 0 1 1-1.046-1.076 9 9 0 0 1 .664-.551l.057-.045a27 27 0 0 0 .764-.616H11a.75.75 0 0 1 0-1.5h8.462l-.007-.006c-.249-.21-.512-.417-.757-.61l-.057-.045a9 9 0 0 1-.664-.551.75.75 0 0 1-.015-1.06" clip-rule="evenodd" opacity=".4"/></svg>