<svg xmlns="http://www.w3.org/2000/svg" fill="none" viewBox="0 0 24 24"><path fill="currentColor" fill-rule="evenodd" d="M7.648 5.085a.75.75 0 0 1-.21 1.04 8.25 8.25 0 1 0 9.123 0 .75.75 0 0 1 .83-1.25A9.74 9.74 0 0 1 21.75 13c0 5.385-4.365 9.75-9.75 9.75S2.25 18.385 2.25 13a9.74 9.74 0 0 1 4.358-8.124.75.75 0 0 1 1.04.209" clip-rule="evenodd"/><path fill="currentColor" fill-rule="evenodd" d="M12 1.25a.75.75 0 0 1 .75.75v8a.75.75 0 0 1-1.5 0V2a.75.75 0 0 1 .75-.75" clip-rule="evenodd" opacity=".4"/></svg>