<svg xmlns="http://www.w3.org/2000/svg" fill="none" viewBox="0 0 24 24"><path fill="currentColor" fill-rule="evenodd" d="M9.135 18.736C8.293 17.05 7.75 14.67 7.75 12s.543-5.05 1.385-6.736C10 3.534 11.056 2.75 12 2.75s2 .784 2.865 2.514C15.707 6.95 16.25 9.33 16.25 12s-.543 5.05-1.385 6.736C14 20.466 12.944 21.25 12 21.25s-2-.784-2.865-2.514m-1.341.67c.944 1.89 2.388 3.344 4.206 3.344s3.262-1.454 4.206-3.343c.968-1.935 1.544-4.554 1.544-7.407s-.576-5.472-1.544-7.406C15.262 2.704 13.818 1.25 12 1.25S8.738 2.704 7.794 4.594C6.827 6.528 6.25 9.147 6.25 12s.577 5.472 1.544 7.407" clip-rule="evenodd" opacity=".4"/><path fill="currentColor" fill-rule="evenodd" d="M1.25 12C1.25 6.063 6.063 1.25 12 1.25S22.75 6.063 22.75 12 17.937 22.75 12 22.75 1.25 17.937 1.25 12m10-9.22a9.25 9.25 0 0 0 0 18.44zm1.5 0v18.44a9.25 9.25 0 0 0 0-18.44" clip-rule="evenodd"/></svg>