<svg xmlns="http://www.w3.org/2000/svg" fill="none" viewBox="0 0 24 24"><path fill="currentColor" fill-rule="evenodd" d="M10.36 16.342a.75.75 0 0 0-.72 1.316c.69.378 1.5.592 2.36.592s1.67-.214 2.36-.592a.75.75 0 1 0-.72-1.316 3.4 3.4 0 0 1-1.64.408c-.61 0-1.172-.152-1.64-.408M9 12a1 1 0 1 0 0 2h.007a1 1 0 0 0 0-2zm5.993 0a1 1 0 1 0 0 2H15a1 1 0 0 0 0-2z" clip-rule="evenodd" opacity=".4"/><path fill="currentColor" fill-rule="evenodd" d="M1.25 12C1.25 6.063 6.063 1.25 12 1.25S22.75 6.063 22.75 12 17.937 22.75 12 22.75 1.25 17.937 1.25 12M12 2.75a9.25 9.25 0 1 0 0 18.5 9.25 9.25 0 0 0 0-18.5" clip-rule="evenodd"/></svg>