<svg xmlns="http://www.w3.org/2000/svg" fill="none" viewBox="0 0 24 24"><path fill="currentColor" d="M13.808 22.669a.75.75 0 0 1-.117-1.491 5.15 5.15 0 0 0 2.844-1.46l.29-.291c2.244-2.752 1.842-5.688-1.196-8.727L7.845 2.972a.78.78 0 0 0-1.1.008.8.8 0 0 0-.232.558.75.75 0 0 0 .22.54l4.396 4.414.01.01 2.508 2.509a.75.75 0 0 1-1.061 1.06l-2.507-2.507-.003-.003-.007-.007a.75.75 0 0 0-.528-.211.85.85 0 0 0-.604.249.83.83 0 0 0-.247.59c0 .204.076.39.214.529l.73.732 1.784 1.79a.75.75 0 0 1-1.063 1.059l-1.783-1.79c-.296-.293-.776-.276-1.093.04-.317.323-.333.818-.033 1.127l.61.586.137.134 1.003.977a.75.75 0 1 1-1.047 1.075L7.02 15.343l-.623-.598-.014-.014c-.888-.9-.875-2.323.03-3.243a2.4 2.4 0 0 1 .895-.568 2.32 2.32 0 0 1 .566-2.386c.202-.202.439-.364.696-.48l-2.9-2.911a2.283 2.283 0 0 1 .013-3.22 2.28 2.28 0 0 1 3.218-.011l7.785 7.729c3.583 3.586 4.035 7.409 1.274 10.768l-.047.052-.317.32a6.63 6.63 0 0 1-3.672 1.883 1 1 0 0 1-.12.009z"/><path fill="currentColor" d="M12.844 22.748a6.7 6.7 0 0 1-4.75-1.964L4.91 17.637c-.883-.895-.87-2.346.022-3.243.262-.264.575-.453.908-.564a2.33 2.33 0 0 1 .577-2.338c.256-.26.56-.453.892-.57a2.32 2.32 0 0 1 .566-2.391c.2-.2.437-.362.693-.478l-2.896-2.9a2.297 2.297 0 0 1 .012-3.23A2.28 2.28 0 0 1 8.9 1.91l2.922 2.901a3.6 3.6 0 0 1 1.363-1.334c1.06-.59 2.315-.595 3.53-.014.502.234.815.698.82 1.212.006.746-.398 1.431-1.081 1.833-.293.17-.734.67-.811 1.256-.062.477.13.95.57 1.407l.473.468c3.584 3.585 4.036 7.41 1.275 10.768l-.047.052-.317.32a6.7 6.7 0 0 1-4.753 1.967zm-6.273-7.54a.8.8 0 0 0-.575.245c-.314.316-.326.82-.025 1.125l3.182 3.143a5.223 5.223 0 0 0 7.382.003l.289-.292c2.244-2.752 1.84-5.688-1.197-8.727l-.41-.406-.024-.024q-.024-.023-.046-.047l-3.5-3.475a1 1 0 0 1-.075-.074L7.844 2.977a.78.78 0 0 0-1.1.008.79.79 0 0 0-.008 1.113l4.386 4.394.015.015 2.508 2.508a.75.75 0 1 1-1.061 1.061l-2.51-2.51-.002-.002-.01-.009a.75.75 0 0 0-.524-.209.86.86 0 0 0-.604.25.83.83 0 0 0-.248.59c0 .203.076.39.215.528l.73.732v.001l1.783 1.79a.751.751 0 0 1-1.063 1.058l-1.782-1.789a.72.72 0 0 0-.506-.21h-.004a.82.82 0 0 0-.578.255c-.324.324-.337.814-.037 1.123l.577.563q.077.06.137.12a1 1 0 0 1 .08.091l.956.93a.75.75 0 1 1-1.046 1.076l-1.111-1.08a.74.74 0 0 0-.467-.165zm6.383-9.272 1.276 1.267c.243-.919.9-1.658 1.469-1.988.217-.128.3-.284.327-.417-.958-.442-1.675-.25-2.11-.008a2.1 2.1 0 0 0-.962 1.146" opacity=".4"/></svg>