<svg xmlns="http://www.w3.org/2000/svg" fill="none" viewBox="0 0 24 24"><path fill="currentColor" fill-rule="evenodd" d="M9.5 10.195c-.704-.467-1.806-.703-2.99-.011-.92.537-1.394 1.633-1.227 2.82.168 1.192.964 2.452 2.503 3.537l.069.048c.482.342.934.661 1.645.661.71 0 1.162-.32 1.645-.66l.068-.049c1.54-1.085 2.335-2.345 2.503-3.538.167-1.186-.307-2.282-1.226-2.819-1.185-.692-2.287-.456-2.99.011m-.8 1.271c-.285-.204-.785-.366-1.435.013-.313.183-.593.634-.498 1.315.095.675.58 1.603 1.883 2.521.573.404.654.435.849.435s.276-.03.849-.435c1.302-.918 1.787-1.846 1.882-2.521.096-.68-.185-1.132-.498-1.315-.65-.38-1.15-.217-1.435-.013l-.015.01a5 5 0 0 1-.259.179 1.3 1.3 0 0 1-.175.093.9.9 0 0 1-.35.075.9.9 0 0 1-.35-.075 1.3 1.3 0 0 1-.174-.093 6 6 0 0 1-.259-.178z" clip-rule="evenodd" opacity=".4"/><path fill="currentColor" fill-rule="evenodd" d="M14.06 2.75H9.94c-1.835 0-3.293 0-4.435.163-1.181.169-2.133.525-2.88 1.318-.74.786-1.067 1.779-1.223 3.011-.152 1.205-.152 2.746-.152 4.704v.108c0 1.958 0 3.5.152 4.704.156 1.232.483 2.225 1.223 3.011.747.793 1.699 1.15 2.88 1.318 1.142.163 2.6.163 4.435.163h4.12c1.835 0 3.293 0 4.435-.163 1.181-.169 2.133-.525 2.88-1.318.74-.786 1.067-1.779 1.223-3.011.152-1.205.152-2.746.152-4.704v-.108c0-1.958 0-3.5-.152-4.704-.156-1.232-.483-2.225-1.223-3.011-.747-.793-1.699-1.15-2.88-1.318-1.142-.163-2.6-.163-4.436-.163M3.717 5.259c.425-.452 1.002-.718 1.999-.86C6.741 4.251 8.092 4.25 10 4.25h4c1.908 0 3.26.002 4.283.148.997.143 1.574.409 2 .86.43.46.69 1.09.826 2.173.14 1.099.141 2.546.141 4.569s-.001 3.47-.14 4.57c-.137 1.081-.396 1.713-.828 2.171-.425.452-1.001.718-1.999.86-1.024.147-2.375.149-4.283.149h-4c-1.908 0-3.26-.002-4.283-.148-.997-.143-1.574-.409-2-.86-.43-.46-.69-1.09-.826-2.173C2.75 15.47 2.75 14.024 2.75 12s.001-3.47.14-4.57c.137-1.081.396-1.713.828-2.171M15 15.75a.75.75 0 0 0 0 1.5h3a.75.75 0 0 0 0-1.5z" clip-rule="evenodd"/></svg>