<svg xmlns="http://www.w3.org/2000/svg" fill="none" viewBox="0 0 24 24"><path fill="currentColor" fill-rule="evenodd" d="M9.083 20.247c.105.003.253.003.428.003l-.002-.002.478-.001.315-.002h.17c.414-.002.814-.004 1.01 0h.016a.75.75 0 0 0 .016-1.5 53 53 0 0 0-1.22 0l-.17.001c-.413.002-.813.004-1.01 0-3.035-.077-4.42-.113-5.338-1.038-.921-.928-.95-2.28-1.012-5.238a68 68 0 0 1 0-2.919c.062-2.959.09-4.308 1.009-5.235.919-.918 2.305-.954 5.342-1.03 1.94-.05 3.826-.05 5.765 0 3.038.076 4.424.112 5.34 1.028.921.928.95 2.277 1.013 5.231v.007c.014.667.019 1.305.014 1.949a.75.75 0 0 0 .744.755h.006a.75.75 0 0 0 .75-.744c.005-.658 0-1.309-.014-1.99-.067-3.167-.104-4.91-1.45-6.266-1.342-1.34-3.126-1.386-6.364-1.468-1.965-.05-3.875-.05-5.84 0h-.002c-3.237.082-5.02.127-6.365 1.47-1.342 1.354-1.38 3.098-1.446 6.263a71 71 0 0 0 0 2.981c.066 3.165.103 4.908 1.446 6.263s3.128 1.4 6.37 1.482M9.56 9.886c.98.577 1.71.866 2.438.866.73 0 1.46-.288 2.44-.866l2.942-1.74a.749.749 0 1 0-.762-1.291l-2.941 1.739c-1.475.867-1.883.867-3.355 0L7.38 6.854a.75.75 0 0 0-.763 1.291z" clip-rule="evenodd"/><path fill="currentColor" d="M18 22.243c-.789 0-1.258-.341-1.906-.814-1.874-1.345-2.91-3.065-2.84-4.717.044-1.061.56-1.986 1.376-2.473 1.137-.678 2.393-.66 3.37.047.975-.707 2.231-.726 3.368-.047.818.488 1.333 1.412 1.378 2.473.07 1.652-.967 3.372-2.845 4.72-.644.469-1.113.81-1.9.81zm-2.6-6.716c-.383.228-.625.695-.648 1.248-.048 1.138.762 2.39 2.221 3.438.608.443.751.529 1.027.529s.418-.086 1.022-.526c1.464-1.051 2.274-2.304 2.226-3.441-.023-.554-.265-1.021-.647-1.248-.849-.507-1.453-.226-1.738-.013l-.122.085c-.25.175-.448.314-.74.314-.294 0-.492-.138-.742-.314l-.122-.085c-.284-.212-.888-.493-1.738.013" opacity=".4"/></svg>