<svg xmlns="http://www.w3.org/2000/svg" fill="none" viewBox="0 0 24 24"><path fill="currentColor" fill-rule="evenodd" d="M14.92 1.834c-1.953-.05-3.887-.05-5.84 0l-.058.001c-1.525.039-2.752.07-3.736.241-1.03.18-1.866.525-2.573 1.237-.704.708-1.046 1.535-1.221 2.55-.168.967-.193 2.168-.225 3.655l-.001.059c-.021 1-.021 1.993 0 2.992l.001.059c.032 1.487.057 2.688.225 3.655.175 1.015.517 1.842 1.22 2.55.66.663 1.434 1.01 2.376 1.2.912.183 2.028.227 3.392.264a.75.75 0 1 0 .04-1.5c-1.39-.037-2.373-.082-3.136-.235-.732-.147-1.209-.385-1.607-.786-.427-.43-.668-.942-.807-1.75-.146-.842-.171-1.929-.204-3.489a68 68 0 0 1 0-2.928c.033-1.56.058-2.647.204-3.49.14-.807.38-1.319.807-1.749.424-.427.94-.672 1.767-.816.861-.15 1.977-.18 3.574-.22a114 114 0 0 1 5.764 0c1.597.04 2.713.07 3.574.22.827.144 1.343.389 1.767.816.428.43.668.942.807 1.75.146.842.171 1.929.204 3.489q.016.733.016 1.464a.75.75 0 0 0 1.5 0q0-.747-.016-1.496l-.001-.058c-.032-1.488-.057-2.689-.225-3.656-.175-1.015-.517-1.842-1.22-2.55-.707-.712-1.544-1.057-2.574-1.237-.984-.171-2.21-.202-3.736-.24zM7.38 6.9a.75.75 0 1 0-.764 1.292l2.942 1.739c.871.515 1.623.865 2.44.865.818 0 1.569-.35 2.44-.865l2.942-1.74a.75.75 0 0 0-.764-1.29l-2.94 1.739c-.845.499-1.294.656-1.677.656s-.832-.157-1.676-.656z" clip-rule="evenodd"/><path fill="currentColor" fill-rule="evenodd" d="M17.966 14.094A.75.75 0 0 0 16.94 13l-2.297 2.153-.017.017a1.25 1.25 0 0 0 .01 1.78l2.3 2.188a.75.75 0 1 0 1.034-1.087l-1.34-1.276c1.649-.039 2.765.3 3.278.668.722.518.979.911 1.115 1.398.138.49.162 1.08.203 2.038q.01.282.026.61a.75.75 0 1 0 1.498-.069l-.023-.555c-.038-.95-.07-1.756-.26-2.428-.25-.898-.764-1.553-1.685-2.213-.856-.614-2.29-.976-4.074-.95zm-3.945-.01a.75.75 0 1 0-1.046-1.075 9 9 0 0 1-.544.448l-.06.047c-.242.19-.526.413-.798.642-.29.247-.592.522-.826.798a2.7 2.7 0 0 0-.323.46 1.4 1.4 0 0 0-.176.643c0 .258.09.48.176.642.089.167.205.323.323.461.234.276.536.551.826.797.272.23.556.453.798.643l.06.047c.271.213.453.359.544.448a.75.75 0 0 0 1.046-1.076 10 10 0 0 0-.664-.551l-.056-.045c-.246-.193-.51-.4-.758-.61-.271-.23-.5-.443-.654-.626a2 2 0 0 1-.102-.13q.035-.053.101-.13a6 6 0 0 1 .655-.626c.249-.21.512-.417.758-.61l.056-.045c.245-.192.502-.394.664-.551m-2.285 1.875v.004zm0 .172v.003z" clip-rule="evenodd" opacity=".4"/></svg>