<svg xmlns="http://www.w3.org/2000/svg" fill="none" viewBox="0 0 24 24"><path fill="currentColor" fill-rule="evenodd" d="M9.118 4.286c1.928-.048 3.836-.048 5.764 0 1.597.04 2.713.07 3.574.22.828.144 1.343.388 1.768.814.174.175.318.364.436.582l-5.944 3.374c-1.24.704-2.009.978-2.717.978s-1.477-.274-2.717-.978L3.34 5.902c.118-.217.261-.406.436-.582.425-.426.94-.67 1.768-.814.861-.15 1.977-.18 3.574-.22M2.92 7.39c-.103.791-.125 1.79-.154 3.151a68 68 0 0 0 0 2.92c.033 1.555.058 2.638.204 3.478.14.804.38 1.313.806 1.742.425.426.94.67 1.768.814.861.15 1.977.18 3.574.22q1.195.03 2.385.035a.75.75 0 0 1-.006 1.5q-1.206-.005-2.417-.036l-.058-.001c-1.525-.038-2.752-.07-3.735-.24-1.03-.18-1.867-.524-2.573-1.233-.704-.707-1.046-1.532-1.222-2.544-.168-.965-.193-2.162-.225-3.645l-.001-.058a70 70 0 0 1 0-2.984l.001-.058c.032-1.483.057-2.68.225-3.645.176-1.012.518-1.837 1.222-2.544.706-.71 1.543-1.053 2.573-1.232.983-.172 2.21-.202 3.735-.24l.058-.002c1.953-.05 3.887-.05 5.84 0l.058.001c1.525.039 2.752.07 3.735.24 1.03.18 1.866.524 2.573 1.233.704.707 1.046 1.532 1.222 2.544.168.965.193 2.162.225 3.645l.001.058c.01.502.016 1.5.016 1.992a.75.75 0 0 1-1.5 0c0-.49-.005-1.475-.016-1.96-.029-1.361-.052-2.36-.154-3.152l-5.624 3.193c-1.285.73-2.34 1.173-3.457 1.173s-2.171-.443-3.457-1.173z" clip-rule="evenodd"/><path fill="currentColor" fill-rule="evenodd" d="M17.038 14.477a.75.75 0 0 1-.015 1.06c-.162.158-.419.36-.664.552l-.057.045a26 26 0 0 0-.764.616H22a.75.75 0 0 1 0 1.5h-6.462l.007.006a27 27 0 0 0 .814.655c.245.192.502.394.664.551a.75.75 0 1 1-1.046 1.076 9 9 0 0 0-.544-.448q-.03-.022-.06-.047c-.242-.19-.526-.413-.797-.642a7.4 7.4 0 0 1-.828-.798 2.7 2.7 0 0 1-.323-.46 1.4 1.4 0 0 1-.175-.643c0-.258.089-.48.175-.642.09-.168.206-.323.323-.461.235-.276.537-.551.828-.797a28 28 0 0 1 .857-.69q.407-.318.544-.448a.75.75 0 0 1 1.06.015" clip-rule="evenodd" opacity=".4"/></svg>