<svg xmlns="http://www.w3.org/2000/svg" fill="none" viewBox="0 0 24 24"><path fill="currentColor" fill-rule="evenodd" d="M9.118 3.286c1.928-.048 3.836-.048 5.764 0 1.597.04 2.713.07 3.574.22.827.145 1.343.388 1.768.814.427.43.667.939.806 1.743.146.84.171 1.924.204 3.48.003.109.005.154.007.188v.02c.002.027.004.072.005.254a.75.75 0 0 0 1.5-.01 8 8 0 0 0-.006-.313l-.001-.026-.005-.145-.001-.06c-.032-1.483-.057-2.68-.225-3.645-.176-1.013-.518-1.837-1.221-2.544-.707-.71-1.544-1.054-2.574-1.233-.983-.172-2.21-.202-3.735-.24l-.058-.002c-1.953-.05-3.887-.05-5.84 0l-.058.001c-1.525.039-2.752.07-3.735.24-1.03.18-1.867.524-2.573 1.234-.704.707-1.046 1.531-1.222 2.544-.168.965-.193 2.162-.225 3.646l-.001.059a70 70 0 0 0 0 2.984l.001.058c.032 1.484.057 2.681.225 3.646.176 1.013.518 1.837 1.222 2.544.706.71 1.543 1.054 2.573 1.233.983.172 2.21.203 3.735.24l.058.002c.614.016 1.407.026 1.912.032a.75.75 0 0 0 .016-1.5c-.503-.006-1.288-.016-1.89-.031-1.597-.04-2.713-.07-3.574-.22-.827-.144-1.343-.388-1.768-.814-.427-.43-.667-.939-.806-1.743-.146-.84-.171-1.923-.204-3.48a68 68 0 0 1 0-2.92c.033-1.555.058-2.64.204-3.479.14-.804.38-1.314.806-1.743.425-.426.94-.67 1.768-.814.861-.15 1.977-.18 3.574-.22M7.382 6.854a.75.75 0 0 0-.764 1.292L9.56 9.885c.871.515 1.623.865 2.44.865.818 0 1.569-.35 2.44-.865l2.942-1.74a.75.75 0 1 0-.764-1.29l-2.942 1.739c-.844.499-1.293.656-1.676.656s-.832-.157-1.676-.656z" clip-rule="evenodd"/><path fill="currentColor" fill-rule="evenodd" d="M17.996 12.75a1.25 1.25 0 1 0 0 2.5 1.25 1.25 0 0 0 0-2.5M15.246 14a2.75 2.75 0 1 1 5.5 0 2.75 2.75 0 0 1-5.5 0m5.06 5.454q-.14-.078-.279-.159a4.06 4.06 0 0 0-4.061 0l-.28.16c-.309.172-.613.343-.828.55a1 1 0 0 0-.09.099l.058.06c.422.395.792.586 1.21.586h3.92c.418 0 .79-.19 1.21-.586l.058-.06a1 1 0 0 0-.09-.1c-.214-.206-.519-.377-.828-.55m.948.606-.003.007zm-6.516 0 .003.007zm.47-2.059a5.55 5.55 0 0 1 5.577 0l.157.088c.31.17.86.475 1.234.836.233.224.51.57.562 1.035.057.513-.18.956-.545 1.298-.56.525-1.282.992-2.237.992h-3.92c-.955 0-1.676-.467-2.236-.992l.51-.543-.51.543c-.365-.342-.602-.785-.546-1.297.052-.465.33-.812.563-1.036.374-.36.924-.665 1.234-.836z" clip-rule="evenodd" opacity=".4"/></svg>