<svg xmlns="http://www.w3.org/2000/svg" fill="none" viewBox="0 0 24 24"><path fill="currentColor" d="M14.504 17.242c-.41 0-.75-.34-.75-.75v-1.94c0-.23.11-.45.29-.59 1.67-1.31 2.71-2.77 2.71-6.05 0-3.06-.85-3.67-2.21-3.67a.75.75 0 0 1-.56-.25c-.02-.02-.74-.75-2.49-.75-2.74 0-4.24 1.66-4.24 4.67 0 3.27 1.04 4.74 2.71 6.05.18.14.29.36.29.59v1.94c0 .41-.34.75-.75.75s-.75-.34-.75-.75v-1.58c-1.59-1.31-3-3.13-3-7s2.15-6.17 5.74-6.17c1.83 0 2.88.64 3.34 1.01 3.42.2 3.42 3.79 3.42 5.16 0 3.87-1.41 5.69-3 7v1.58c0 .41-.34.75-.75.75" opacity=".4"/><path fill="currentColor" d="M20.095 22.245H3.905c-.53 0-1.03-.24-1.34-.64a1.49 1.49 0 0 1-.27-1.29 4.82 4.82 0 0 1 3.27-3.42l3.72-1.12c.4-.12.81.1.93.5s-.1.81-.5.93l-3.72 1.12c-1.1.33-1.97 1.24-2.25 2.36 0 .01.06.06.15.06h16.19c.09 0 .15-.04.16-.06a3.37 3.37 0 0 0-2.25-2.35l-3.71-1.12a.744.744 0 0 1-.5-.93c.12-.4.54-.62.93-.5l3.72 1.12c1.61.49 2.86 1.8 3.27 3.42.11.45.02.92-.27 1.29-.31.4-.81.64-1.34.64z"/></svg>