<svg xmlns="http://www.w3.org/2000/svg" fill="none" viewBox="0 0 24 24"><path fill="currentColor" fill-rule="evenodd" d="M2.75 10.926c0-4.47 3.784-8.176 8.25-8.176 4.177 0 7.765 3.247 8.205 7.33a.75.75 0 0 0 1.491-.16C20.174 5.072 15.942 1.25 11 1.25c-5.275 0-9.75 4.36-9.75 9.676 0 2.722 1.152 4.998 2.767 6.876 1.608 1.87 3.701 3.38 5.661 4.592l.013.008.013.008a2.64 2.64 0 0 0 2.592 0l.011-.007.011-.007q.39-.237.783-.491a.75.75 0 1 0-.815-1.26q-.369.24-.738.464a1.14 1.14 0 0 1-1.095.001c-1.904-1.18-3.841-2.59-5.299-4.285-1.454-1.692-2.404-3.634-2.404-5.9m5.5.074A2.75 2.75 0 0 1 11 8.25c1.28 0 2.453.861 2.781 1.964a.75.75 0 1 0 1.438-.428C14.686 7.997 12.89 6.75 11 6.75A4.25 4.25 0 0 0 6.75 11c0 2.132 1.574 3.946 3.644 4.242a.75.75 0 1 0 .212-1.484C9.283 13.568 8.25 12.394 8.25 11" clip-rule="evenodd"/><path fill="currentColor" fill-rule="evenodd" d="M13.75 16.463c0-2.023 1.72-3.713 3.75-3.713s3.75 1.69 3.75 3.713c0 1.014-.424 1.905-1.111 2.707-.69.804-1.616 1.486-2.552 2.06a.2.2 0 0 1-.173 0c-.936-.581-1.863-1.26-2.553-2.062-.686-.8-1.111-1.687-1.111-2.705m3.75-5.213c-2.84 0-5.25 2.343-5.25 5.213 0 1.475.626 2.697 1.474 3.683.84.978 1.925 1.756 2.918 2.37l.013.008.013.008a1.7 1.7 0 0 0 1.664 0l.012-.007.011-.007c.998-.61 2.083-1.391 2.923-2.372.847-.988 1.472-2.212 1.472-3.683 0-2.87-2.41-5.213-5.25-5.213m0 4.25a1 1 0 1 0 0 2h.009a1 1 0 1 0 0-2z" clip-rule="evenodd" opacity=".4"/></svg>