<svg xmlns="http://www.w3.org/2000/svg" fill="none" viewBox="0 0 24 24"><path fill="currentColor" d="M17.5 21.75c-.855 0-1.373-.38-2.09-.904-2.085-1.524-3.236-3.462-3.156-5.315.05-1.173.61-2.193 1.499-2.732 1.24-.751 2.633-.727 3.722.065l.017.012.007.007.008-.006.016-.013c1.088-.792 2.479-.816 3.722-.064.889.539 1.449 1.56 1.5 2.733.08 1.853-1.071 3.79-3.157 5.313-.716.526-1.234.904-2.09.904zm-2.97-7.668c-.457.277-.748.843-.777 1.515-.058 1.342.869 2.815 2.543 4.039.692.506.87.614 1.204.614s.502-.1 1.204-.614c1.675-1.224 2.602-2.697 2.544-4.04-.029-.67-.32-1.236-.778-1.514-.976-.59-1.704-.264-2.055-.01-.32.246-.574.439-.915.439s-.595-.193-.914-.44c-.352-.252-1.08-.578-2.055.012z" opacity=".4"/><path fill="currentColor" fill-rule="evenodd" d="m2.341 14.356-.012-.019-.006-.01-.006-.01C1.377 12.642 1.25 10.689 1.25 9c0-3.251.861-6.75 2.75-6.75 1.497 0 2.348 2.196 2.637 4.725 1.51-.465 3.406-.726 5.362-.726 1.957 0 3.853.26 5.363.726.29-2.529 1.14-4.725 2.637-4.725 1.889 0 2.75 3.499 2.75 6.75 0 .416 0 1.191-.059 1.622a.75.75 0 0 1-.742.649l.001-.001a.75.75 0 0 1-.745-.852c.045-.329.045-1.093.045-1.418 0-3.329-.892-5.099-1.25-5.246-.358.147-1.25 1.918-1.25 5.246 0 .375.008.608.052.912a.749.749 0 1 1-1.484.216A7 7 0 0 1 17.249 9q0-.24.006-.482C15.85 8.027 13.97 7.75 12 7.75s-3.85.278-5.256.769q.006.24.006.481c0 2.037-.65 3.374-1.194 4.136-.404.566-.888 1.007-1.39 1.284 1.58 2.159 4.19 3.632 6.89 3.833a.75.75 0 0 1-.055 1.498v-.001H11l-.055-.002c-3.5-.26-6.875-2.37-8.595-5.375zM2.75 9c0-3.329.892-5.099 1.25-5.246C4.358 3.9 5.25 5.671 5.25 9c0 2.423-1.114 3.739-1.852 4.128C2.833 11.843 2.75 10.334 2.75 9" clip-rule="evenodd"/></svg>