<svg xmlns="http://www.w3.org/2000/svg" fill="none" viewBox="0 0 24 24"><path fill="currentColor" d="M19.93 23.003a.75.75 0 0 1-.75-.75v-1.56c0-.517.153-1.045.444-1.527 1.485-2.414 1.76-4.688 1.578-5.388-.887-1.73-3.885-2.536-5.53-2.74a.75.75 0 0 1-.644-.892l1.036-5.17c.09-.42-.273-.846-.804-.96a1.1 1.1 0 0 0-.769.104c-.11.062-.302.202-.354.45l-2.054 9.67a.75.75 0 0 1-1.137.477l-2.572-1.64-.064-.046c-.127-.097-.812-.577-1.339-.054-.522.523-.042 1.2.06 1.332l3.912 5.014c.347.44.547.974.578 1.54l.072 1.32a.75.75 0 1 1-1.498.082l-.072-1.32a1.23 1.23 0 0 0-.26-.697l-3.907-5.01c-.505-.63-1.137-2.128.058-3.324 1.178-1.167 2.65-.578 3.297-.083l1.63 1.039 1.83-8.612a2.2 2.2 0 0 1 1.085-1.445 2.6 2.6 0 0 1 1.817-.262c1.34.286 2.22 1.51 1.96 2.729l-.882 4.4c1.556.303 4.816 1.197 5.927 3.498a1 1 0 0 1 .04.097c.512 1.6-.469 4.649-1.713 6.672a1.5 1.5 0 0 0-.226.747v1.56a.75.75 0 0 1-.75.75z"/><path fill="currentColor" d="M3.12 10.458c-1.148 0-1.403-.243-1.53-.367l-.004-.004c-.202-.197-.505-.498-.22-3.078a.75.75 0 1 1 1.491.165 18 18 0 0 0-.06.643l1.755-1.738a.75.75 0 0 1 1.056 1.066L3.81 8.925c.245-.015.502-.038.752-.067a.75.75 0 0 1 .174 1.49c-.678.079-1.205.11-1.617.11M6.9 5.592a.749.749 0 0 1-.529-1.283L8.17 2.528a14 14 0 0 0-.752.069.75.75 0 1 1-.174-1.49c2.57-.301 2.975.089 3.148.257l.002.002c.201.197.506.495.221 3.078a.75.75 0 1 1-1.491-.165c.023-.213.043-.432.06-.643L7.426 5.374a.75.75 0 0 1-.528.217" opacity=".4"/></svg>