<svg xmlns="http://www.w3.org/2000/svg" fill="none" viewBox="0 0 24 24"><path fill="currentColor" fill-rule="evenodd" d="M9.752 2.299a.75.75 0 0 1 1.376-.597l1.56 3.594a.75.75 0 0 1-1.376.597zm-4.44 0a.75.75 0 0 1 1.376-.597l2.821 6.5a.75.75 0 1 1-1.376.597zm5.69 16.451h3.003l-.01-.01c.41 0 .751-.34.751-.75a.755.755 0 0 0-.751-.748h-.75v-4.296c0-.66 0-1.408-.762-1.648-.951-.29-1.792.81-2.113 1.289-.23.35-.13.809.21 1.039.351.22.812.13 1.042-.21l.02-.026c.036-.044.077-.094.11-.144v4.006h-.75a.756.756 0 0 0-.752.749c0 .41.34.749.751.749" clip-rule="evenodd" opacity=".4"/><path fill="currentColor" fill-rule="evenodd" d="M14.248 2.299a.75.75 0 1 0-1.376-.597l-2.461 5.67C6.89 8.028 4.25 11.213 4.25 15c0 4.254 3.332 7.75 7.5 7.75h.5c4.168 0 7.5-3.496 7.5-7.75 0-2.826-1.47-5.317-3.68-6.671l2.618-6.03a.75.75 0 0 0-1.376-.597l-2.594 5.976a7.3 7.3 0 0 0-2.468-.428h-.15zM5.75 15c0-3.478 2.712-6.25 6-6.25h.5c3.288 0 6 2.772 6 6.25s-2.712 6.25-6 6.25h-.5c-3.288 0-6-2.772-6-6.25" clip-rule="evenodd"/></svg>