<svg xmlns="http://www.w3.org/2000/svg" fill="none" viewBox="0 0 24 24"><path fill="currentColor" fill-rule="evenodd" d="M8.75 2a.75.75 0 0 0-1.5 0v8a.75.75 0 0 0 1.5 0zm8 0a.75.75 0 0 0-1.5 0v8a.75.75 0 0 0 1.5 0z" clip-rule="evenodd" opacity=".4"/><path fill="currentColor" fill-rule="evenodd" d="M6.224 1.25h-.136c-1.008 0-1.684 0-2.254.175-1.109.342-2.004 1.16-2.387 2.232-.198.553-.197 1.206-.197 2.126V6c0 .38 0 .693.072.989.141.57.477 1.07.944 1.43.24.186.529.32.898.493l.066.031 6.651 3.116.126.06c.344.161.654.306.949.417-.234.117-.493.27-.78.44l-.029.017-1 .592-.029.017c-.348.206-.656.388-.899.567a2.3 2.3 0 0 0-.67.728c-.17.307-.239.624-.27.954-.029.306-.029.674-.029 1.097v1.106c0 .423 0 .79.029 1.097.031.33.1.647.27.955.173.309.406.532.67.727.243.18.551.361.9.567l1.057.626c.335.198.632.374.895.496.285.132.585.229.929.229s.644-.097.93-.23c.262-.121.56-.297.894-.495l1.058-.626c.348-.206.656-.388.899-.567.264-.195.497-.418.67-.727.17-.308.239-.625.27-.955.029-.306.029-.674.029-1.097v-1.106c0-.423 0-.79-.029-1.097-.031-.33-.1-.647-.27-.954a2.3 2.3 0 0 0-.67-.728c-.243-.18-.551-.361-.9-.567l-1.057-.626c-.287-.17-.546-.323-.78-.44.295-.11.605-.256.95-.418l.125-.059 6.65-3.116.067-.03c.37-.174.658-.309.898-.494.467-.36.803-.86.944-1.43.073-.296.072-.61.072-.989v-.216c0-.92.001-1.573-.196-2.126-.384-1.073-1.279-1.89-2.388-2.232-.57-.176-1.246-.175-2.254-.175H6.224M4.276 2.86c.325-.1.753-.109 1.948-.109h11.552c1.195 0 1.623.008 1.948.109.689.212 1.204.706 1.417 1.303.098.275.11.641.11 1.764 0 .49-.006.607-.03.703a1.1 1.1 0 0 1-.402.6c-.093.073-.22.136-.685.355L13.483 10.7c-.946.443-1.213.55-1.483.55s-.537-.107-1.482-.55L3.867 7.584c-.467-.219-.592-.282-.686-.354a1.1 1.1 0 0 1-.402-.601c-.024-.096-.029-.213-.029-.703 0-1.123.011-1.49.11-1.764.213-.597.727-1.09 1.416-1.303m6.635 11.424c.372-.22.605-.356.792-.443.172-.08.248-.09.297-.09s.125.01.297.09c.187.087.42.223.792.443l1 .592c.386.228.627.372.801.5.16.118.216.19.25.25.034.061.068.153.088.366.021.228.022.524.022.988v1.042c0 .464 0 .76-.022.988-.02.213-.054.305-.089.366-.033.06-.089.132-.249.25a11 11 0 0 1-.801.5l-1 .592c-.372.22-.605.357-.792.443-.172.08-.248.09-.297.09s-.125-.01-.297-.09c-.187-.087-.42-.223-.792-.443l-1-.592a10 10 0 0 1-.801-.5c-.16-.118-.216-.19-.25-.25-.034-.061-.068-.153-.088-.366a12 12 0 0 1-.022-.988v-1.042c0-.464 0-.76.022-.988.02-.213.054-.305.089-.367.033-.059.089-.13.249-.249.174-.128.415-.272.801-.5z" clip-rule="evenodd"/></svg>