<svg xmlns="http://www.w3.org/2000/svg" fill="none" viewBox="0 0 24 24"><path fill="currentColor" fill-rule="evenodd" d="M4 13.25a.75.75 0 0 0 0 1.5h2.395c.182 0 .36.041.521.119l2.042.988c.366.177.768.268 1.174.268h1.043c.426 0 .777.228.953.547l-1.934.535c-.281.077-.582.05-.842-.076L7.17 16.075a.75.75 0 1 0-.653 1.35L8.7 18.482a2.7 2.7 0 0 0 1.894.17l2.541-.702-.194-.702.194.702a.84.84 0 0 0 .617-.808q0-.044-.002-.087l4.064-1.25h.003a1.24 1.24 0 0 1 1.373.476c.116.161.056.382-.085.464l-7.516 4.336a1.24 1.24 0 0 1-.98.118L4.215 19.3a.75.75 0 0 0-.427 1.438l6.395 1.898a2.74 2.74 0 0 0 2.156-.257l7.516-4.336c.933-.539 1.173-1.78.551-2.64a2.735 2.735 0 0 0-3.033-1.032h-.002l-4.127 1.269a2.6 2.6 0 0 0-2.068-1.016h-1.043c-.182 0-.36-.04-.52-.119l-2.043-.988a2.7 2.7 0 0 0-1.174-.268z" clip-rule="evenodd"/><path fill="currentColor" fill-rule="evenodd" d="M16.248 4.259a4.25 4.25 0 0 0-7.246 4.183zm.75 1.299L9.752 9.741a4.25 4.25 0 0 0 7.246-4.183m-6.873-3.537a5.75 5.75 0 1 1 5.75 9.958 5.75 5.75 0 0 1-5.75-9.958" clip-rule="evenodd" opacity=".4"/></svg>