<svg xmlns="http://www.w3.org/2000/svg" fill="none" viewBox="0 0 24 24"><path fill="currentColor" fill-rule="evenodd" d="M7.946 2.25h4.108c1.133 0 2.058 0 2.79.098.763.103 1.425.325 1.954.854s.751 1.19.854 1.955c.098.73.098 1.656.098 2.79v8.107c0 1.133 0 2.058-.098 2.79-.103.763-.325 1.425-.854 1.954s-1.19.751-1.955.854c-.73.098-1.656.098-2.79.098H7.947c-1.133 0-2.058 0-2.79-.098-.763-.103-1.425-.325-1.954-.854s-.751-1.19-.854-1.955c-.098-.73-.098-1.657-.098-2.79V7.947c0-1.133 0-2.058.098-2.79.103-.763.325-1.425.854-1.954s1.19-.751 1.955-.854c.73-.098 1.656-.098 2.79-.098m-2.59 1.585c-.597.08-.89.224-1.093.428-.204.203-.348.496-.428 1.094C3.752 5.976 3.75 6.8 3.75 8v8c0 1.2.002 2.024.085 2.643.08.598.224.89.428 1.094s.496.348 1.094.428c.619.083 1.443.085 2.643.085h4c1.2 0 2.024-.002 2.643-.085.598-.08.89-.224 1.094-.428s.348-.496.428-1.094c.083-.619.085-1.443.085-2.643V8c0-1.2-.002-2.024-.085-2.643-.08-.598-.224-.89-.428-1.094s-.496-.348-1.094-.428C14.024 3.752 13.2 3.75 12 3.75H8c-1.2 0-2.024.002-2.643.085" clip-rule="evenodd"/><path fill="currentColor" fill-rule="evenodd" d="M17 6.75c.964 0 1.612.002 2.095.067.461.062.659.169.789.3s.237.327.3.788c.064.483.066 1.131.066 2.095v7c0 .964-.002 1.612-.067 2.095-.062.461-.169.659-.3.789s-.327.237-.788.3c-.483.064-1.131.066-2.095.066h-6v1.5h6.052c.899 0 1.648 0 2.242-.08.628-.084 1.195-.27 1.65-.726.456-.455.642-1.022.726-1.65.08-.594.08-1.343.08-2.242V9.948c0-.898 0-1.648-.08-2.242-.084-.628-.27-1.195-.726-1.65-.455-.456-1.022-.642-1.65-.726-.594-.08-1.343-.08-2.242-.08H17zM13.75 11a.75.75 0 0 0-1.5 0v2a.75.75 0 0 0 1.5 0z" clip-rule="evenodd" opacity=".4"/></svg>