<svg xmlns="http://www.w3.org/2000/svg" fill="none" viewBox="0 0 24 24"><path fill="currentColor" d="M17.488 19.253c-.832 0-1.677-.406-2.884-.985L7.95 15.073a1.7 1.7 0 0 0-1.128-.126c-.392.088-.588.132-.778.153-.979.112-1.9-.166-2.592-.783-.764-.681-1.202-1.723-1.202-2.859v-.912c0-1.136.438-2.178 1.202-2.859.692-.617 1.614-.895 2.596-.782.185.02.382.064.774.152.39.088.77.045 1.13-.127l6.65-3.194.325.676-.322-.677c1.6-.767 2.564-1.231 3.703-.848 1.153.387 1.556 1.233 2.166 2.513a12.96 12.96 0 0 1 0 11.201c-.61 1.28-1.013 2.126-2.166 2.513-.28.094-.549.137-.82.137zm-10.277-5.85c.477 0 .947.107 1.388.317l6.653 3.194c1.5.719 2.044.959 2.578.779.527-.177.716-.532 1.29-1.737a11.47 11.47 0 0 0 0-9.911c-.574-1.205-.763-1.56-1.29-1.737-.535-.18-1.08.06-2.577.778l-.327-.675.325.676L8.6 8.281a3.2 3.2 0 0 1-2.106.238c-.316-.071-.506-.114-.612-.125-.57-.065-1.052.073-1.431.411-.445.397-.7 1.031-.7 1.74v.912c0 .709.255 1.343.7 1.74.379.338.86.476 1.426.411.11-.012.301-.055.616-.126a3.3 3.3 0 0 1 .717-.08z"/><path fill="currentColor" fill-rule="evenodd" d="M6.75 13.793V8a.75.75 0 0 1 1.5 0v6a.75.75 0 0 1-.5.707V16c0 .988.109 1.207.9 1.8l1.2.9.004.003c.737.553 1.367 1.025 1.578 1.044a.75.75 0 0 0 .706-.353c.112-.181.112-.975.112-1.894V17a.75.75 0 0 1 1.5 0v.5c0 1.424 0 2.139-.336 2.683a2.24 2.24 0 0 1-1.91 1.067h-.001q-.102 0-.206-.009c-.635-.057-1.205-.484-2.341-1.336L7.75 19c-1.164-.873-1.5-1.546-1.5-3v-1.5a.75.75 0 0 1 .5-.707" clip-rule="evenodd" opacity=".4"/></svg>