<svg xmlns="http://www.w3.org/2000/svg" fill="none" viewBox="0 0 24 24"><path fill="currentColor" fill-rule="evenodd" d="M11.022 3.75a.75.75 0 1 0-.044-1.5 33 33 0 0 0-1.198.058c-4.567.304-8.19 3.993-8.488 8.606a21 21 0 0 0 0 2.619c.11 1.717.86 3.266 1.692 4.524.25.482.12 1.205-.347 2.09l-.022.04c-.156.297-.31.588-.398.836-.094.262-.19.68.05 1.091.223.379.577.518.864.573.239.046.53.053.804.06l.046.001c1.42.035 2.42-.376 3.213-.96.157-.116.265-.196.346-.252.119.043.28.11.518.208a5.6 5.6 0 0 0 1.722.394 34 34 0 0 0 4.44 0c4.568-.303 8.19-3.993 8.488-8.606a20 20 0 0 0 0-2.618 9.4 9.4 0 0 0-.27-1.712.75.75 0 0 0-1.454.37q.178.697.227 1.438c.052.8.052 1.627 0 2.426-.25 3.879-3.291 6.953-7.09 7.206a32 32 0 0 1-4.242 0 4.1 4.1 0 0 1-1.25-.285l-.018-.008c-.24-.099-.447-.184-.61-.241-.128-.045-.384-.135-.647-.102-.252.03-.459.16-.572.233-.13.084-.287.2-.461.328l-.018.014c-.54.398-1.217.693-2.285.667l-.26-.007c.056-.111.124-.239.206-.395.499-.946.989-2.327.32-3.537l-.032-.053c-.768-1.155-1.375-2.459-1.463-3.82a19 19 0 0 1 0-2.426c.25-3.878 3.291-6.953 7.09-7.205q.566-.039 1.143-.055M8 11.5a1 1 0 1 0 0 2h.009a1 1 0 1 0 0-2zm3.996 0a1 1 0 1 0 0 2h.008a1 1 0 1 0 0-2zm3.995 0a1 1 0 1 0 0 2H16a1 1 0 1 0 0-2z" clip-rule="evenodd"/><path fill="currentColor" fill-rule="evenodd" d="M17.038 1.477a.75.75 0 0 1-.015 1.06 9 9 0 0 1-.664.552l-.057.045c-.245.193-.508.4-.757.61l-.007.006H22a.75.75 0 0 1 0 1.5h-6.462l.007.006c.249.21.512.417.757.61l.057.045c.245.192.502.394.664.551a.75.75 0 1 1-1.046 1.076 9 9 0 0 0-.544-.448q-.03-.022-.06-.047a27 27 0 0 1-.797-.643 7.4 7.4 0 0 1-.828-.797 2.7 2.7 0 0 1-.323-.46 1.4 1.4 0 0 1-.175-.643c0-.258.089-.48.175-.642.09-.168.206-.323.323-.461.235-.276.537-.551.828-.797.27-.23.555-.453.797-.643l.06-.047q.407-.318.544-.448a.75.75 0 0 1 1.06.015" clip-rule="evenodd" opacity=".4"/></svg>