<svg xmlns="http://www.w3.org/2000/svg" fill="none" viewBox="0 0 24 24"><path fill="currentColor" fill-rule="evenodd" d="M3.979 22.743q.087.003.17.002l.002.002c1.18 0 2.151-.307 3.042-.96.121-.089.254-.186.349-.252a14 14 0 0 1 .477.193l.034.014c.52.215 1.133.355 1.727.395 1.446.096 2.981.096 4.439 0 4.547-.304 8.196-4 8.489-8.603a23 23 0 0 0 .031-2.059v-.02l-.03-.529a.75.75 0 1 0-1.498.086l.029.518c.019.641.009 1.284-.029 1.911-.245 3.851-3.294 6.946-7.091 7.2a33 33 0 0 1-4.24 0 4.2 4.2 0 0 1-1.254-.286l-.033-.014-.005-.002c-.641-.265-.908-.376-1.23-.336-.326.04-.569.218-1.052.573-.661.484-1.367.69-2.289.668h-.014l-.245-.007c.05-.099.107-.207.162-.312l.023-.044.019-.035c.743-1.399.852-2.589.323-3.54l-.009-.015q-.011-.02-.024-.038c-.894-1.333-1.387-2.617-1.464-3.81a21 21 0 0 1 0-2.428c.245-3.85 3.293-6.946 7.09-7.199.162-.01.283-.02.386-.029q.021 0 .041-.003h.004c.217-.018.35-.029.7-.034a.75.75 0 0 0-.022-1.5c-.4.005-.57.019-.8.038h-.005l-.095.008-.309.022c-4.547.302-8.196 4-8.489 8.603a22 22 0 0 0 0 2.614c.094 1.455.664 2.977 1.695 4.523.31.594-.018 1.46-.351 2.086l-.02.038c-.407.773-.7 1.331-.354 1.926l.006.01.006.01c.365.583.987.598 1.708.615m11.015-10.25c0 .551.453 1 1.005 1a1 1 0 0 0 0-2h-.01a.996.996 0 0 0-.995 1m-3.994 0a1 1 0 1 0 2-.002 1 1 0 0 0-2 .001m-3.996 0c0 .551.453 1 1.005 1a1 1 0 0 0 0-2h-.01a.996.996 0 0 0-.995 1" clip-rule="evenodd"/><path fill="currentColor" d="M17.997 9.747c-.789 0-1.256-.341-1.902-.812-1.875-1.347-2.913-3.07-2.844-4.723.044-1.06.556-1.983 1.37-2.471l.003-.002c1.126-.667 2.384-.65 3.372.045.993-.694 2.248-.711 3.372-.045.817.49 1.33 1.413 1.373 2.473.07 1.653-.969 3.376-2.848 4.726-.642.468-1.109.809-1.898.809zm-2.606-6.718c-.379.228-.618.693-.64 1.246-.048 1.139.762 2.395 2.224 3.446.605.44.746.527 1.022.527s.417-.086 1.018-.524c1.466-1.054 2.277-2.31 2.23-3.45-.024-.552-.264-1.02-.644-1.246-.842-.5-1.462-.218-1.757-.006l-.032.023c-.293.215-.504.37-.816.37s-.524-.155-.816-.37l-.038-.028c-.288-.207-.908-.488-1.752.012z" opacity=".4"/></svg>