<svg xmlns="http://www.w3.org/2000/svg" fill="none" viewBox="0 0 24 24"><path fill="currentColor" fill-rule="evenodd" d="M18 2.75a1.25 1.25 0 1 0 0 2.5 1.25 1.25 0 0 0 0-2.5M15.25 4a2.75 2.75 0 1 1 5.5 0 2.75 2.75 0 0 1-5.5 0m5.06 5.454q-.14-.078-.28-.159a4.05 4.05 0 0 0-4.06 0l-.28.16c-.309.172-.613.343-.828.55a1 1 0 0 0-.09.099l.058.06c.421.395.792.586 1.21.586h3.92c.418 0 .789-.19 1.21-.586l.058-.06a1 1 0 0 0-.09-.1c-.214-.206-.519-.377-.828-.55m.948.606-.003.007zm-6.516 0 .003.007zm.469-2.059a5.55 5.55 0 0 1 5.578 0l.157.088c.31.17.86.475 1.233.836.233.224.511.57.563 1.035.057.513-.18.955-.546 1.298-.56.525-1.28.992-2.236.992h-3.92c-.955 0-1.676-.467-2.236-.992l.509-.543-.51.543c-.364-.342-.602-.785-.545-1.298.052-.464.33-.811.563-1.035.374-.36.924-.665 1.234-.836z" clip-rule="evenodd" opacity=".4"/><path fill="currentColor" fill-rule="evenodd" d="M12.521 2.25h-1.013c-.575.009-1.149.032-1.712.069-4.575.304-8.206 3.99-8.504 8.601a21 21 0 0 0 0 2.618c.111 1.717.861 3.265 1.695 4.522.25.481.12 1.203-.347 2.087l-.022.04c-.157.297-.31.588-.4.836-.093.262-.19.68.052 1.092.222.379.578.517.864.572.239.046.531.053.805.06l.046.001c1.422.034 2.424-.375 3.218-.96.158-.116.267-.196.348-.252.119.044.281.11.52.209a5.6 5.6 0 0 0 1.725.394c1.46.097 2.986.097 4.449 0 4.383-.291 7.957-3.691 8.5-8.046a.75.75 0 1 0-1.49-.186c-.453 3.647-3.45 6.492-7.11 6.735a33 33 0 0 1-4.25 0 4.1 4.1 0 0 1-1.253-.285l-.02-.008c-.24-.098-.447-.184-.61-.241-.128-.045-.384-.134-.647-.102-.251.031-.458.16-.572.233-.13.084-.288.2-.462.328l-.017.014c-.541.398-1.22.693-2.292.667l-.261-.007c.056-.11.123-.238.205-.393.5-.946.991-2.327.321-3.537l-.032-.053c-.77-1.155-1.378-2.457-1.466-3.817a19 19 0 0 1 0-2.424c.25-3.875 3.297-6.949 7.106-7.201a32 32 0 0 1 1.63-.066h.996a.75.75 0 0 0 0-1.5M8 11.5a1 1 0 1 0 0 2h.009a1 1 0 1 0 0-2zm3.996 0a1 1 0 1 0 0 2h.008a1 1 0 1 0 0-2z" clip-rule="evenodd"/></svg>