<svg xmlns="http://www.w3.org/2000/svg" fill="none" viewBox="0 0 24 24"><path fill="currentColor" fill-rule="evenodd" d="M18.457 1.418c-1.24-.168-2.836-.168-4.859-.168h-3.197c-2.023 0-3.618 0-4.858.168-1.272.173-2.291.536-3.072 1.355-.783.821-1.089 1.851-1.184 3.119-.094 1.232.006 2.804.132 4.792l.19 2.989c.053.846.087 1.384.212 1.849a4.88 4.88 0 0 0 3.78 3.505c.475.093 1.445.1 2.308.099.116.024.199.11.22.212l.007 1.262c0 .378 0 .742.042 1.027.046.3.171.75.632.994.456.24.898.096 1.173-.032.262-.122.568-.323.887-.533l4.27-2.806c.078-.043.311-.13.61-.13 1.58 0 2.58 0 3.416-.31a4.88 4.88 0 0 0 2.744-2.543c.368-.807.43-1.796.529-3.347l.142-2.236c.126-1.988.225-3.56.132-4.792-.096-1.268-.401-2.298-1.184-3.12-.78-.818-1.8-1.181-3.072-1.354m-14.9 2.39c.448-.471 1.08-.753 2.187-.903 1.128-.153 2.622-.155 4.715-.155h3.082c2.093 0 3.587.002 4.714.155 1.108.15 1.74.432 2.188.903.448.47.692 1.103.774 2.197.085 1.116-.006 2.583-.137 4.643l-.127 2.005c-.113 1.784-.17 2.47-.408 2.992a3.38 3.38 0 0 1-1.901 1.76c-.55.203-1.254.215-3.066.215-.517-.03-1.041.228-1.239.361l-4.7 3.084-.003-1.456c0-.195 0-.396-.038-.58a1.78 1.78 0 0 0-1.388-1.372 3 3 0 0 0-.582-.037c-.987 0-1.424-.004-1.737-.065a3.38 3.38 0 0 1-2.621-2.423c-.081-.3-.109-.676-.17-1.649l-.18-2.835c-.13-2.06-.222-3.527-.138-4.643.083-1.094.327-1.728.775-2.197" clip-rule="evenodd"/><path fill="currentColor" fill-rule="evenodd" d="M13.712 7.237a.75.75 0 0 0-1.423-.474l-2 6a.75.75 0 0 0 1.423.474zm-5.144.273a.75.75 0 0 1-.078 1.058L7.263 9.625c-.2.172-.331.287-.422.375.09.088.222.203.422.375l1.227 1.057a.75.75 0 0 1-.98 1.136l-1.226-1.057-.032-.027c-.23-.199-.457-.394-.62-.579-.18-.203-.382-.5-.382-.905s.201-.701.382-.905c.163-.185.39-.38.62-.579l.032-.027L7.51 7.432a.75.75 0 0 1 1.058.078m6.864 0a.75.75 0 0 0 .078 1.058l1.227 1.057c.2.172.332.287.422.375-.09.088-.222.203-.422.375l-1.227 1.057a.75.75 0 0 0 .98 1.136l1.226-1.057.032-.027c.23-.199.457-.394.62-.579.18-.203.382-.5.382-.905s-.201-.701-.382-.905c-.163-.185-.39-.38-.62-.579l-.032-.027-1.226-1.057a.75.75 0 0 0-1.058.078" clip-rule="evenodd" opacity=".4"/></svg>