<svg xmlns="http://www.w3.org/2000/svg" fill="none" viewBox="0 0 24 24"><path fill="currentColor" fill-rule="evenodd" d="M11.523 3.75a.75.75 0 1 0-.031-1.5 45 45 0 0 0-1.707.06c-4.57.304-8.195 3.992-8.493 8.605a21 21 0 0 0 0 2.619c.11 1.717.86 3.266 1.693 4.524.25.482.12 1.204-.347 2.089l-.022.04c-.156.297-.31.588-.398.836-.094.262-.191.68.05 1.091.223.38.578.518.864.573.239.046.53.053.805.06l.046.001c1.42.035 2.421-.376 3.214-.96.158-.116.266-.196.347-.252.119.043.28.11.52.208a5.6 5.6 0 0 0 1.721.395c1.459.096 2.983.097 4.444 0 4.57-.304 8.196-3.993 8.494-8.605q.017-.255.026-.51a.75.75 0 0 0-1.498-.06 19 19 0 0 1-.025.473c-.25 3.877-3.293 6.952-7.096 7.205a32.5 32.5 0 0 1-4.245 0 4.1 4.1 0 0 1-1.25-.285l-.02-.008c-.24-.099-.447-.184-.61-.241-.128-.045-.384-.135-.647-.102-.252.03-.458.16-.572.233-.13.084-.287.2-.461.328l-.018.014c-.54.398-1.218.694-2.288.667l-.26-.007c.056-.111.123-.239.205-.394.5-.947.99-2.327.322-3.538l-.033-.053c-.769-1.155-1.376-2.458-1.464-3.82a19 19 0 0 1 0-2.424c.25-3.878 3.293-6.952 7.096-7.205a44 44 0 0 1 1.638-.057M8 11.5a1 1 0 1 0 0 2h.009a1 1 0 1 0 0-2zm3.996 0a1 1 0 1 0 0 2h.008a1 1 0 1 0 0-2zm3.995 0a1 1 0 1 0 0 2H16a1 1 0 1 0 0-2z" clip-rule="evenodd"/><path fill="currentColor" fill-rule="evenodd" d="M13.25 5.527a4.277 4.277 0 1 1 7.782 2.45l1.497 1.492a.75.75 0 0 1-1.058 1.062l-1.5-1.495a4.277 4.277 0 0 1-6.72-3.51m4.276-2.777a2.777 2.777 0 1 0 0 5.553 2.777 2.777 0 0 0 0-5.553" clip-rule="evenodd" opacity=".4"/></svg>