<svg xmlns="http://www.w3.org/2000/svg" fill="none" viewBox="0 0 24 24"><path fill="currentColor" fill-rule="evenodd" d="M4.14 22.751h.003l-.001.002c1.176 0 2.175-.317 3.047-.966l.06-.043.035-.025c.095-.067.188-.133.26-.182.081.031.186.075.295.12l.088.035.124.052c.53.218 1.145.358 1.729.394 1.446.092 2.98.092 4.438 0 4.546-.304 8.195-4.006 8.488-8.613.052-.866.052-1.744 0-2.61v-.01a9.6 9.6 0 0 0-.271-1.7.75.75 0 0 0-1.453.371c.115.453.19.922.228 1.435.048.794.048 1.631 0 2.422-.244 3.855-3.293 6.955-7.088 7.21a34 34 0 0 1-4.247 0 4 4 0 0 1-1.25-.285l-.124-.052-.009-.003c-.553-.229-.833-.344-1.157-.294-.298.046-.516.202-.95.51l-.003.002-.068.049-.014.01c-.653.485-1.355.692-2.278.67l-.071-.002-.097-.003-.098-.004c.057-.112.123-.236.186-.354l.02-.038c.739-1.4.848-2.593.323-3.541l-.033-.055c-.895-1.337-1.388-2.621-1.465-3.818a21 21 0 0 1 0-2.427c.246-3.859 3.294-6.954 7.099-7.2q.567-.043 1.132-.058a.75.75 0 0 0-.038-1.5c-.4.01-.807.031-1.199.061-4.546.293-8.196 3.991-8.49 8.604a22 22 0 0 0 0 2.613c.094 1.457.664 2.98 1.695 4.528.248.479.13 1.182-.35 2.092l-.018.035c-.409.771-.704 1.329-.352 1.933.355.591.951.61 1.64.631l.075.003zM7.75 15c0 .414.336.75.75.75h7a.75.75 0 0 0 0-1.5h-7a.75.75 0 0 0-.75.75m.75-4.25H12a.75.75 0 0 0 0-1.5H8.5a.75.75 0 0 0 0 1.5" clip-rule="evenodd"/><path fill="currentColor" d="M16.499 7.75a.75.75 0 0 1-.52-.209 11 11 0 0 0-.593-.484c-1.251-.982-2.137-1.74-2.138-2.556 0-.818.886-1.576 2.138-2.558.25-.196.485-.38.593-.484a.75.75 0 0 1 1.04 1.081c-.163.155-.403.344-.707.582-.175.138-.479.376-.774.627h6.461a.75.75 0 0 1 0 1.5h-6.461c.295.251.599.489.774.627.304.239.544.427.706.582a.75.75 0 0 1-.52 1.29z" opacity=".4"/></svg>