<svg xmlns="http://www.w3.org/2000/svg" fill="none" viewBox="0 0 24 24"><path fill="currentColor" fill-rule="evenodd" d="M16.373 3.277c-.356.187-.788.413-1.214.543l-.293.09-.01.05c-.444 2.34.516 4.38 2.724 5.182.278.101.308.108.422.108s.144-.007.422-.108C20.63 8.34 21.59 6.3 21.146 3.96l-.01-.05-.293-.09c-.427-.13-.858-.356-1.215-.543q-.172-.091-.318-.163c-.445-.22-.845-.364-1.31-.364-.464 0-.864.145-1.309.364q-.145.072-.318.163m-.344-1.51c.525-.258 1.17-.517 1.971-.517s1.446.26 1.972.518q.265.13.473.242c.31.162.552.29.833.374l.02.006c.18.055.347.105.478.154.112.042.331.126.501.306.15.158.22.332.261.466.034.111.058.239.078.343l.003.021-.736.14.736-.14c.558 2.937-.67 5.776-3.683 6.872l-.024.009c-.273.099-.52.189-.91.189s-.638-.09-.911-.19l-.024-.008c-3.013-1.096-4.242-3.935-3.685-6.872l.004-.02c.02-.105.044-.233.078-.344.04-.134.11-.308.26-.466l.545.516-.544-.516c.17-.18.388-.264.5-.306.132-.048.299-.1.479-.154l.02-.006.217.718-.217-.718c.28-.085.522-.211.832-.374q.208-.111.473-.242" clip-rule="evenodd" opacity=".4"/><path fill="currentColor" fill-rule="evenodd" d="M11.022 3.75a.75.75 0 1 0-.044-1.5 33 33 0 0 0-1.198.058c-4.567.304-8.19 3.993-8.488 8.606a21 21 0 0 0 0 2.619c.11 1.717.86 3.266 1.692 4.524.25.482.12 1.205-.347 2.09l-.022.04c-.156.297-.31.588-.398.836-.094.262-.19.68.05 1.091.223.379.577.518.864.573.239.046.53.053.804.06l.046.001c1.42.035 2.42-.376 3.213-.96.157-.116.265-.196.346-.252.119.043.28.11.518.208a5.6 5.6 0 0 0 1.722.394 34 34 0 0 0 4.44 0c4.568-.303 8.19-3.993 8.488-8.606.033-.51.047-1.03.04-1.549a.75.75 0 0 0-1.5.018c.006.48-.006.963-.037 1.435-.25 3.879-3.291 6.953-7.09 7.206a32 32 0 0 1-4.242 0 4.1 4.1 0 0 1-1.25-.285l-.018-.008c-.24-.099-.447-.184-.61-.241-.128-.045-.384-.135-.647-.102-.252.03-.459.16-.572.233-.13.084-.287.2-.461.328l-.018.014c-.54.398-1.217.693-2.285.667l-.26-.007c.056-.111.124-.239.206-.395.499-.946.989-2.327.32-3.537l-.032-.053c-.768-1.155-1.375-2.459-1.463-3.82a19 19 0 0 1 0-2.426c.25-3.878 3.291-6.953 7.09-7.205q.566-.039 1.143-.055M8 11.5a1 1 0 1 0 0 2h.009a1 1 0 1 0 0-2zm3.996 0a1 1 0 1 0 0 2h.008a1 1 0 1 0 0-2zm3.995 0a1 1 0 1 0 0 2H16a1 1 0 1 0 0-2z" clip-rule="evenodd"/></svg>