<svg xmlns="http://www.w3.org/2000/svg" fill="none" viewBox="0 0 24 24"><path fill="currentColor" fill-rule="evenodd" d="M3.979 22.75q.081.004.162.003h.004c1.176 0 2.175-.317 3.047-.965l.061-.044.03-.022c.096-.068.19-.135.264-.184a12 12 0 0 1 .383.154l.124.052a5.6 5.6 0 0 0 1.724.395c1.449.102 2.986.102 4.443 0 4.546-.305 8.195-4.002 8.488-8.603.052-.867.052-1.745 0-2.612a8 8 0 0 0-.044-.518.75.75 0 1 0-1.488.186c.017.13.025.257.035.403l.001.02a21 21 0 0 1 0 2.426c-.245 3.85-3.294 6.946-7.094 7.2a31 31 0 0 1-4.242 0 4 4 0 0 1-1.25-.284l-.124-.052c-.559-.23-.841-.346-1.166-.296-.297.045-.516.201-.95.51l-.003.002-.068.047-.014.01c-.653.486-1.357.695-2.278.672l-.074-.003-.192-.006c.061-.122.134-.26.203-.389.744-1.396.853-2.588.324-3.544l-.035-.058c-.893-1.322-1.386-2.604-1.463-3.805a21 21 0 0 1 0-2.427c.245-3.85 3.293-6.944 7.091-7.198a34 34 0 0 1 3.589-.04.75.75 0 1 0 .061-1.499 35 35 0 0 0-3.751.042c-4.546.304-8.195 4.002-8.488 8.603a22 22 0 0 0 0 2.613c.094 1.463.664 2.984 1.695 4.52.31.6-.017 1.465-.35 2.09-.421.794-.725 1.368-.375 1.97l.006.01.006.01c.357.57.947.588 1.63.61zm7.019-10.25a1 1 0 1 0 2 0 1 1 0 0 0-2 0m-3.996 0c0 .552.453 1 1.005 1a1 1 0 0 0 0-2h-.01a.996.996 0 0 0-.995 1" clip-rule="evenodd"/><path fill="currentColor" d="M14.526 10.754a1.24 1.24 0 0 1-.87-.357 1.25 1.25 0 0 1-.354-1.143l.002-.01.48-2.235a2.85 2.85 0 0 1 .744-1.418l.01-.01 3.68-3.67a2.2 2.2 0 0 1 1.576-.661h.01a2.24 2.24 0 0 1 1.594.662l.69.69c.43.43.665.999.662 1.604a2.22 2.22 0 0 1-.66 1.576l-3.627 3.696a2.75 2.75 0 0 1-1.428.76l-2.238.487q-.135.03-.27.03zm-.05-1.496h-.002zm1.126-2.622a1.36 1.36 0 0 0-.352.682l-.398 1.858 1.875-.408.027-.005c.232-.042.466-.166.642-.342l3.625-3.695.01-.01a.73.73 0 0 0 .218-.518.75.75 0 0 0-.223-.537l-.69-.69a.75.75 0 0 0-.533-.223H19.8a.72.72 0 0 0-.518.218z" opacity=".4"/></svg>