<svg xmlns="http://www.w3.org/2000/svg" fill="none" viewBox="0 0 24 24"><path fill="currentColor" fill-rule="evenodd" d="M4 10.25a.75.75 0 0 1 .75.75 7.25 7.25 0 1 0 14.5 0 .75.75 0 0 1 1.5 0 8.75 8.75 0 0 1-8 8.718v1.532H15a.75.75 0 0 1 0 1.5H9a.75.75 0 0 1 0-1.5h2.25v-1.532a8.75 8.75 0 0 1-8-8.718.75.75 0 0 1 .75-.75" clip-rule="evenodd"/><path fill="currentColor" fill-rule="evenodd" d="M12 2.75A4.25 4.25 0 0 0 7.75 7v4a4.25 4.25 0 0 0 8.434.75H14a.75.75 0 0 1 0-1.5h2.25v-2.5H14a.75.75 0 0 1 0-1.5h2.184A4.25 4.25 0 0 0 12 2.75M6.25 7a5.75 5.75 0 0 1 11.5 0v4a5.75 5.75 0 0 1-11.5 0z" clip-rule="evenodd" opacity=".4"/></svg>