<svg xmlns="http://www.w3.org/2000/svg" fill="none" viewBox="0 0 24 24"><path fill="currentColor" fill-rule="evenodd" d="M15.15 15.867c.14.25.39.38.65.38v-.01c.12 0 .25-.03.37-.1l2.2-1.27a.747.747 0 0 0-.75-1.29l-2.2 1.27c-.35.2-.48.66-.27 1.02m-2.09-2.19c.34.21.74.32 1.15.32l.01-.01c.61 0 1.11-.29 2.01-.82.87-.49 1.4-.8 1.73-1.35.19-.36.29-.74.29-1.13 0-.63-.32-1.18-.81-2.01l-3.04-5.29a3.3 3.3 0 0 0-4.5-1.2 3.31 3.31 0 0 0-1.2 4.51l1.05 1.81c.2.36.66.48 1.02.27.36-.2.48-.66.27-1.02l-1.05-1.81c-.5-.86-.21-1.96.65-2.46s1.96-.21 2.45.65l3.04 5.3c.38.64.61 1.05.61 1.26 0 .14-.03.27-.09.38-.115.181-.523.419-1.102.755l-.078.045-.167.097c-.545.316-.902.522-1.093.522-.14 0-.26-.03-.39-.11-.179-.109-.436-.563-.773-1.157l-.007-.013-.51-.88a.76.76 0 0 0-1.03-.27.76.76 0 0 0-.27 1.03l.51.87.005.008c.497.876.797 1.403 1.315 1.702m-.56 5.57H18c.41 0 .75-.34.75-.75s-.34-.75-.75-.75h-5.5c-.41 0-.75.34-.75.75s.34.75.75.75m-3 0h.5c.41 0 .75-.34.75-.75s-.34-.75-.75-.75h-.5c-2.07 0-3.75-1.68-3.75-3.75s1.68-3.75 3.75-3.75c.41 0 .75-.34.75-.75s-.34-.75-.75-.75c-2.89 0-5.25 2.36-5.25 5.25s2.36 5.25 5.25 5.25" clip-rule="evenodd" opacity=".4"/><path fill="currentColor" fill-rule="evenodd" d="M11 11.746c-1.24 0-2.25-1.01-2.25-2.25s1.01-2.25 2.25-2.25 2.25 1.01 2.25 2.25-1.01 2.25-2.25 2.25m0-3c-.41 0-.75.34-.75.75s.34.75.75.75.75-.34.75-.75-.34-.75-.75-.75m-2.102 13.5H4c-.41 0-.75-.34-.75-.75s.34-.75.75-.75h4.462l1.097-3.3c.25-.72.92-1.19 1.66-1.19.8 0 1.47.47 1.72 1.18l1.098 3.31H20c.41 0 .75.34.75.75s-.34.75-.75.75h-6.384a1 1 0 0 1-.127.01l.01-.01H9.103a.7.7 0 0 1-.205 0m1.149-1.5h2.413l-.94-2.83a.26.26 0 0 0-.24-.17c-.17 0-.27.07-.3.18z" clip-rule="evenodd"/></svg>