<svg xmlns="http://www.w3.org/2000/svg" fill="none" viewBox="0 0 24 24"><path fill="currentColor" fill-rule="evenodd" d="m14.157 4.426-2.088 9.658a.75.75 0 0 1-1.155.461L8.36 12.808l-.06-.046a.96.96 0 0 0-1.35.122.88.88 0 0 0 .004 1.121l.01.012 3.28 4.118.07.086c.504.634.86 1.081 1.06 1.613q.027.071.05.142c.177.54.177 1.11.177 1.914V22a.75.75 0 0 1-1.5 0c0-.958-.009-1.272-.102-1.557l-.029-.082c-.106-.282-.298-.537-.899-1.291l-3.277-4.113a2.38 2.38 0 0 1-.007-3.021 2.46 2.46 0 0 1 3.446-.349l1.604 1.092 1.857-8.59.008-.035a2.45 2.45 0 0 1 2.372-1.804c1.53 0 2.714 1.38 2.404 2.897l-.88 4.312c1.658.227 3.59.885 5.24 2.463.95.908 1.006 2.243.834 3.338-.178 1.127-.631 2.242-1.005 2.982-.108.215-.238.436-.357.64l-.013.02c-.12.203-.231.394-.333.586-.216.41-.323.725-.323.975V22a.75.75 0 0 1-1.5 0v-1.537c0-.63.255-1.215.496-1.674.118-.224.247-.443.362-.638l.018-.03c.124-.21.228-.39.31-.554.335-.662.718-1.622.863-2.54.15-.953.014-1.637-.388-2.021-1.609-1.538-3.562-2.042-5.148-2.132a.75.75 0 0 1-.692-.899l1.047-5.129c.112-.549-.316-1.096-.935-1.096a.95.95 0 0 0-.918.676" clip-rule="evenodd"/><path fill="currentColor" fill-rule="evenodd" d="M10.53.97a.75.75 0 0 0-1.06 0L7.655 2.785l.061-.781a.75.75 0 0 0-1.495-.118L6.11 3.29l-.003.04a6 6 0 0 0-.033.829c.015.266.08.617.364.902.285.285.636.35.903.365.24.013.533-.01.828-.033l.04-.004-.058-.747.059.747 1.404-.11a.75.75 0 1 0-.118-1.496l-.78.062L10.53 2.03a.75.75 0 0 0 0-1.06M3.832 5.608l-.043.003-1.404.111a.75.75 0 1 0 .119 1.495l.78-.061L1.47 8.97a.75.75 0 1 0 1.06 1.06l1.814-1.814-.061.78a.75.75 0 0 0 1.495.119L5.89 7.71l.003-.04c.024-.296.047-.589.033-.83-.015-.266-.08-.617-.364-.902-.285-.285-.637-.35-.903-.364-.24-.014-.532.01-.826.033" clip-rule="evenodd" opacity=".4"/></svg>