<svg xmlns="http://www.w3.org/2000/svg" fill="none" viewBox="0 0 24 24"><path fill="currentColor" d="M16.243 23h-1.818c-1.097 0-1.647 0-2.214-.13a5.3 5.3 0 0 1-2.334-1.209c-.438-.392-.767-.846-1.422-1.752l-2.756-3.806a2.4 2.4 0 0 1 .044-2.862 2.28 2.28 0 0 1 1.677-.889 2.27 2.27 0 0 1 1.758.695l.78.83 1.478-8.58c.1-.579.416-1.08.892-1.414a2.1 2.1 0 0 1 1.586-.35c1.157.208 1.933 1.335 1.73 2.511l-.451 2.631a2.1 2.1 0 0 1 .65.016 2.15 2.15 0 0 1 1.656 1.463c.295-.078.606-.092.916-.035a2.15 2.15 0 0 1 1.655 1.462 2.1 2.1 0 0 1 .915-.036c1.157.21 1.933 1.335 1.73 2.511l-.08.468-.003.016-.745 3.813A5.76 5.76 0 0 1 16.244 23zm-8.698-9.15h-.043a.77.77 0 0 0-.573.308.9.9 0 0 0-.016 1.066l2.756 3.806c.592.82.889 1.23 1.206 1.513a3.8 3.8 0 0 0 1.668.865c.402.091.896.091 1.88.091h1.819a4.26 4.26 0 0 0 4.17-3.435l.744-3.805.08-.459c.063-.366-.17-.717-.52-.78a.6.6 0 0 0-.46.103.67.67 0 0 0-.273.44l-.08.465a.75.75 0 1 1-1.478-.254l.08-.466q.025-.15.07-.294a1 1 0 0 1 .01-.173l.08-.466c.064-.368-.17-.718-.518-.78a.6.6 0 0 0-.46.101.67.67 0 0 0-.274.437v.002l-.08.465a.751.751 0 0 1-1.48-.253l.08-.465v-.003l.162-.933c.063-.367-.17-.717-.52-.78a.6.6 0 0 0-.458.103.67.67 0 0 0-.274.44l-.241 1.398a.75.75 0 1 1-1.478-.254l.24-1.399.803-4.665c.063-.368-.17-.718-.52-.78a.6.6 0 0 0-.458.101.67.67 0 0 0-.274.44l-1.606 9.33-.135.73a.75.75 0 0 1-1.283.38l-1.797-1.91a.76.76 0 0 0-.547-.234z"/><path fill="currentColor" d="M1.996 10.999a.749.749 0 0 1-.527-1.283l1.879-1.86a16 16 0 0 0-.821.075.75.75 0 0 1-.177-1.49c2.627-.311 3.04.087 3.215.26l.002.003c.204.2.51.507.218 3.137a.75.75 0 1 1-1.491-.165c.026-.236.048-.478.065-.71l-1.836 1.817a.75.75 0 0 1-.528.217zM7.98 6.172c-1.167 0-1.424-.25-1.553-.375l-.002-.003c-.204-.2-.51-.507-.218-3.137a.75.75 0 1 1 1.49.165c-.025.236-.047.478-.064.71l1.836-1.817a.75.75 0 0 1 1.055 1.067L8.644 4.64c.268-.017.549-.042.822-.074a.75.75 0 0 1 .177 1.49c-.698.083-1.24.115-1.663.115" opacity=".4"/></svg>