<svg xmlns="http://www.w3.org/2000/svg" fill="none" viewBox="0 0 24 24"><path fill="currentColor" fill-rule="evenodd" d="M17.007 7a1 1 0 1 0 0-2h-.009a1 1 0 0 0 0 2zm1.242 4a.75.75 0 0 0-1.5 0v4a.75.75 0 0 0 1.5 0z" clip-rule="evenodd" opacity=".4"/><path fill="currentColor" fill-rule="evenodd" d="M9.251 17c0 1.256.49 2.4 1.289 3.25H4.75v-11h1.251a.75.75 0 0 0 0-1.5h-1.25c-.906 0-1.505 0-1.706-.155a.8.8 0 0 1-.139-.139c-.155-.202-.155-.8-.155-1.706s0-1.504.154-1.705q.06-.08.139-.14c.202-.155.8-.155 1.706-.155H17c1.09 0 1.811 0 2.03.219.22.22.22.941.22 2.031v2.372c0 .816 0 1.356-.127 1.546a.7.7 0 0 1-.205.205c-.189.127-.728.127-1.545.127h-.577c-.363 0-.563 0-.681-.023a1.26 1.26 0 0 1-.809-.547c-.063-.098-.132-.27-.256-.577l-.013-.033-.006-.015-.003-.006a3 3 0 0 0-.235-.501 1.76 1.76 0 0 0-1.13-.765c-.168-.033-.316-.033-.56-.033H12c-1.075 0-1.724 0-2.237.513-.513.512-.513 1.162-.513 2.237zm1.499.001a3.254 3.254 0 0 0 3.17 3.249h.36a4.25 4.25 0 0 1-1.004-2.75c0-.113-.004-.218-.01-.342a18 18 0 0 1-.014-.384 5 5 0 0 1 .054-.964c.056-.327.176-.72.464-1.04.314-.347.748-.52 1.249-.52h4.962c.5 0 .935.173 1.249.52.288.32.408.713.464 1.04.057.333.06.677.054.964-.004.155-.01.277-.014.384-.006.124-.01.229-.01.342a4.25 4.25 0 0 1-1.003 2.75H22a.75.75 0 0 1 0 1.5h-7.961l-.039.001.001-.001H2a.75.75 0 0 1 0-1.5h1.25V9.2c-.45-.054-.8-.17-1.119-.415a2.3 2.3 0 0 1-.415-.414c-.466-.607-.466-1.322-.466-2.62V5.75c0-1.299 0-2.014.465-2.62q.181-.235.415-.415c.607-.465 1.322-.465 2.62-.465H17c1.568 0 2.431 0 3.091.658.659.661.659 1.524.659 3.092v2.372c0 1.168 0 1.812-.381 2.381a2.2 2.2 0 0 1-.617.617c-.568.38-1.211.38-2.38.38h-.577c-.456 0-.707 0-.969-.051a2.78 2.78 0 0 1-1.781-1.204c-.144-.224-.236-.452-.402-.866l-.007-.016-.014-.035a3 3 0 0 0-.091-.216.25.25 0 0 0-.159-.106 4 4 0 0 0-.27-.005H12c-.501 0-1.07 0-1.177.074-.073.108-.073.674-.073 1.175V17m6.75 3.249c1.5 0 2.724-1.226 2.724-2.75 0-.125.007-.299.014-.464l.01-.297c.006-.26 0-.489-.033-.676-.033-.194-.081-.268-.098-.287a.03.03 0 0 0-.014-.01.3.3 0 0 0-.122-.016H15.02a.3.3 0 0 0-.122.016.03.03 0 0 0-.014.01c-.017.019-.065.093-.098.287a3.7 3.7 0 0 0-.033.676l.01.297c.007.165.014.34.014.464 0 1.524 1.225 2.75 2.724 2.75" clip-rule="evenodd"/></svg>