<svg xmlns="http://www.w3.org/2000/svg" fill="none" viewBox="0 0 24 24"><path fill="currentColor" fill-rule="evenodd" d="M14.25 18.5a.75.75 0 0 1 .75-.75h7a.75.75 0 0 1 0 1.5h-7a.75.75 0 0 1-.75-.75" clip-rule="evenodd" opacity=".4"/><path fill="currentColor" fill-rule="evenodd" d="M10.453 3.25h3.095c1.838 0 3.283 0 4.421.129 1.163.13 2.105.405 2.888 1.023q.353.278.65.612c.666.747.964 1.653 1.105 2.764.138 1.08.138 2.445.138 4.17V12a.75.75 0 0 1-1.5 0c0-1.789-.001-3.059-.126-4.032-.121-.953-.35-1.522-.737-1.956q-.208-.234-.46-.433c-.47-.372-1.095-.593-2.126-.71-1.044-.118-2.404-.119-4.301-.119h-3c-1.897 0-3.256.001-4.301.12-1.03.116-1.655.337-2.127.71q-.25.197-.46.432c-.386.434-.615 1.003-.736 1.956C2.75 8.94 2.75 10.21 2.75 12s.001 3.059.126 4.032c.121.953.35 1.522.737 1.956q.208.234.46.433c.47.372 1.095.593 2.126.71 1.045.118 2.404.119 4.301.119H12a.75.75 0 0 1 0 1.5h-1.547c-1.84 0-3.284 0-4.422-.129-1.163-.13-2.105-.405-2.888-1.023a5 5 0 0 1-.65-.612c-.666-.747-.964-1.653-1.105-2.764-.138-1.08-.138-2.445-.138-4.17v-.105c0-1.724 0-3.09.138-4.17.141-1.11.439-2.016 1.105-2.763q.297-.334.65-.612c.783-.618 1.725-.892 2.888-1.023 1.138-.129 2.582-.129 4.422-.129M6.5 12a1 1 0 0 0-1-1h-.009a1 1 0 1 0 0 2H5.5a1 1 0 0 0 1-1m3.75 0a1.75 1.75 0 1 1 3.5 0 1.75 1.75 0 0 1-3.5 0M12 8.75a3.25 3.25 0 1 0 0 6.5 3.25 3.25 0 0 0 0-6.5" clip-rule="evenodd"/></svg>