<svg xmlns="http://www.w3.org/2000/svg" fill="none" viewBox="0 0 24 24"><path fill="currentColor" fill-rule="evenodd" d="M13.501 1.75h-1.556c-2.19 0-3.912 0-5.255.18-1.377.186-2.469.573-3.327 1.43-.858.86-1.245 1.951-1.43 3.328-.181 1.343-.181 3.064-.181 5.255v.114c0 2.19 0 3.912.18 5.255.186 1.377.573 2.469 1.43 3.327.891.89 2.348 1.256 3.813 1.432 1.496.179 3.212.179 4.799.179h.055c1.588 0 3.303 0 4.8-.18 1.465-.175 2.922-.54 3.812-1.43.858-.859 1.245-1.951 1.43-3.328.181-1.343.181-3.064.181-5.254V10.5a.75.75 0 1 0-1.5 0V12c0 2.26-.002 3.88-.167 5.112-.163 1.21-.472 1.933-1.005 2.467-.5.5-1.492.83-2.93 1.002-1.398.168-3.03.169-4.648.169s-3.25-.001-4.648-.169c-1.438-.172-2.43-.502-2.93-1.003-.534-.533-.842-1.256-1.005-2.466-.165-1.232-.167-2.852-.167-5.112s.002-3.88.167-5.112c.163-1.21.471-1.933 1.005-2.466S5.68 3.58 6.89 3.417c1.232-.165 2.852-.167 5.112-.167h1.5a.75.75 0 1 0 0-1.5M12.752 8a.75.75 0 0 0-1.5 0v.334a2.95 2.95 0 0 0-1.114.505c-.504.378-.886.958-.886 1.661s.382 1.283.886 1.66c.504.379 1.165.59 1.864.59.406 0 .744.124.964.29.22.164.286.335.286.46s-.066.296-.286.46c-.22.166-.558.29-.964.29-.668 0-1.09-.321-1.208-.57a.75.75 0 1 0-1.357.64c.33.7 1.026 1.165 1.815 1.345V16a.75.75 0 0 0 1.5 0v-.334a2.95 2.95 0 0 0 1.114-.505c.504-.378.886-.958.886-1.661s-.382-1.283-.886-1.66c-.503-.379-1.165-.59-1.864-.59-.406 0-.744-.124-.964-.29-.22-.164-.286-.335-.286-.46s.066-.296.286-.46c.22-.166.558-.29.964-.29.668 0 1.09.321 1.208.57a.75.75 0 1 0 1.357-.64c-.33-.7-1.026-1.165-1.815-1.345z" clip-rule="evenodd"/><path fill="currentColor" fill-rule="evenodd" d="M15.969 8.03a.75.75 0 0 1 0-1.06l3.598-3.6-2.573-.12a.75.75 0 0 1 .07-1.5l3.125.148h.019c.526.039 1.024.216 1.392.592.37.376.528.87.532 1.381l.117 3.079a.75.75 0 1 1-1.498.057l-.1-2.6L17.03 8.03a.75.75 0 0 1-1.06 0" clip-rule="evenodd" opacity=".4"/></svg>