<svg xmlns="http://www.w3.org/2000/svg" fill="none" viewBox="0 0 24 24"><path fill="currentColor" fill-rule="evenodd" d="M12.318 3.68c1.217-.57 2.857-.93 4.682-.93 1.012 0 1.97.11 2.833.308.608.14.74.18.943.34.112.09.291.315.353.444.106.224.121.43.121 1.272V11.5a.75.75 0 0 0 1.5 0V5.008c0-.69.001-1.247-.267-1.81a3.1 3.1 0 0 0-.777-.975c-.488-.387-.933-.488-1.48-.613l-.058-.014A14.3 14.3 0 0 0 17 1.25c-2.008 0-3.87.395-5.317 1.07-1.218.57-2.857.93-4.683.93-1.012 0-1.97-.11-2.832-.308-1.327-.304-2.918.605-2.918 2.172v10.878c0 .69-.001 1.247.267 1.81l.673-.32-.673.32a3.1 3.1 0 0 0 .777.975c.488.387.933.488 1.48.613l.059.014c.977.223 2.047.346 3.167.346 1.542 0 2.993-.232 4.236-.643a.75.75 0 1 0-.471-1.424c-1.078.356-2.369.567-3.765.567-1.012 0-1.97-.11-2.832-.308-.609-.14-.74-.18-.944-.34l-.465.587.466-.588a1.7 1.7 0 0 1-.354-.443c-.106-.224-.12-.43-.12-1.272V5.114c0-.402.488-.846 1.082-.71.977.223 2.047.346 3.167.346 2.009 0 3.87-.395 5.318-1.07M10.25 10.5a1.75 1.75 0 1 1 3.5 0 1.75 1.75 0 0 1-3.5 0M12 7.25a3.25 3.25 0 1 0 0 6.5 3.25 3.25 0 0 0 0-6.5M5.5 10.5a1 1 0 0 1 1 1v.009a1 1 0 1 1-2 0V11.5a1 1 0 0 1 1-1m14-1.008a1 1 0 1 0-2 0v.01a1 1 0 0 0 2 0z" clip-rule="evenodd"/><path fill="currentColor" fill-rule="evenodd" d="M18.782 13.492a.75.75 0 0 1 1.06-.044l.823.758.017.017.018.018c.072.07.175.171.25.268.061.081.322.434.135.88-.185.437-.612.503-.71.516a3 3 0 0 1-.368.017h-3.129c-1.188 0-2.128.942-2.128 2.078 0 .258.048.504.135.73a.75.75 0 1 1-1.4.54A3.5 3.5 0 0 1 13.25 18c0-1.988 1.636-3.578 3.628-3.578h1.835a.75.75 0 0 1 .069-.93m2.764 2.808a.75.75 0 0 1 .969.43c.152.396.235.824.235 1.27 0 1.988-1.637 3.578-3.628 3.578h-1.835a.75.75 0 0 1-1.128.974l-.823-.758-.018-.017-.018-.018a3 3 0 0 1-.25-.268c-.061-.081-.322-.434-.135-.88.185-.437.612-.503.71-.516.122-.017.266-.017.368-.017h3.129c1.188 0 2.128-.942 2.128-2.078a2 2 0 0 0-.135-.73.75.75 0 0 1 .43-.97" clip-rule="evenodd" opacity=".4"/></svg>