<svg xmlns="http://www.w3.org/2000/svg" fill="none" viewBox="0 0 24 24"><path fill="currentColor" fill-rule="evenodd" d="M2.75 8a5.25 5.25 0 1 1 10.5 0 5.25 5.25 0 0 1-10.5 0m11.627 2.22a6.75 6.75 0 1 1 0-4.44 2.75 2.75 0 1 1 0 4.44M14.75 8a1.25 1.25 0 1 1 2.5 0 1.25 1.25 0 0 1-2.5 0" clip-rule="evenodd"/><path fill="currentColor" fill-rule="evenodd" d="M22 4.25a.75.75 0 0 1 .75.75v3a.75.75 0 0 1-1.5 0V5a.75.75 0 0 1 .75-.75m-6 5a.75.75 0 0 1 .75.75v4a.75.75 0 0 1-1.5 0v-4a.75.75 0 0 1 .75-.75m6 1a.75.75 0 0 1 .75.75v3a.75.75 0 0 1-1.5 0v-3a.75.75 0 0 1 .75-.75m-6 6a.75.75 0 0 1 .75.75v2q.002.398.128.75a.75.75 0 1 1-1.414.5A3.7 3.7 0 0 1 15.25 19v-2a.75.75 0 0 1 .75-.75m6 0a.75.75 0 0 1 .75.75v2c0 .437-.075.858-.214 1.25a.75.75 0 1 1-1.414-.5q.126-.353.128-.75v-2a.75.75 0 0 1 .75-.75m-4.707 5.33a.75.75 0 0 1 .957-.458 2.25 2.25 0 0 0 1.5 0 .75.75 0 1 1 .5 1.414 3.74 3.74 0 0 1-2.5 0 .75.75 0 0 1-.457-.957" clip-rule="evenodd" opacity=".4"/></svg>