<svg xmlns="http://www.w3.org/2000/svg" fill="none" viewBox="0 0 24 24"><path fill="currentColor" fill-rule="evenodd" d="M12 2.75a9.25 9.25 0 1 0 0 18.5 9.25 9.25 0 0 0 0-18.5M1.25 12C1.25 6.063 6.063 1.25 12 1.25S22.75 6.063 22.75 12 17.937 22.75 12 22.75 1.25 17.937 1.25 12" clip-rule="evenodd"/><path fill="currentColor" fill-rule="evenodd" d="M11.25 2a.75.75 0 0 1 .75-.75c2.024 0 3.728 1.363 4.886 3.293C18.053 6.488 18.75 9.126 18.75 12s-.697 5.512-1.864 7.457c-1.158 1.93-2.862 3.293-4.886 3.293a.75.75 0 0 1 0-1.5c1.29 0 2.586-.875 3.6-2.565 1.004-1.674 1.65-4.036 1.65-6.685s-.646-5.01-1.65-6.685C14.586 3.625 13.29 2.75 12 2.75a.75.75 0 0 1-.75-.75M10 7a1 1 0 0 1 1-1h.009a1 1 0 1 1 0 2H11a1 1 0 0 1-1-1m-2.25 7.5a.75.75 0 1 1 1.5 0 .75.75 0 0 1-1.5 0m.75-2.25a2.25 2.25 0 1 0 0 4.5 2.25 2.25 0 0 0 0-4.5" clip-rule="evenodd" opacity=".4"/></svg>