<svg xmlns="http://www.w3.org/2000/svg" fill="none" viewBox="0 0 24 24"><path fill="currentColor" fill-rule="evenodd" d="M5.853 9.353A5.735 5.735 0 0 0 4.125 19.95a.75.75 0 0 0 .75-1.3 4.24 4.24 0 0 1-2.125-3.671A4.244 4.244 0 0 1 7 10.738c.958 0 1.84.316 2.55.849a.75.75 0 0 0 .9-1.2 5.73 5.73 0 0 0-3.037-1.134A4.75 4.75 0 0 1 12 5.75a4.744 4.744 0 0 1 4.73 5.17c-.065.726-.4 1.387-.858 2.088a.75.75 0 0 0 1.256.82c.382-.584.767-1.26.97-2.044a3.74 3.74 0 0 1 1.07 7.044.75.75 0 1 0 .665 1.344 5.239 5.239 0 0 0-1.586-9.883C18.142 6.935 15.384 4.25 12 4.25a6.25 6.25 0 0 0-6.147 5.103" clip-rule="evenodd"/><path fill="currentColor" fill-rule="evenodd" d="M3.193 7.589A3.34 3.34 0 0 1 2.754 6.1a3.85 3.85 0 0 0 3.213-.314 3.9 3.9 0 0 0 1.87-2.647 3.35 3.35 0 0 1 1.426 2.143l1.473-.287a4.9 4.9 0 0 0-.551-1.483A4.78 4.78 0 0 0 7.34 1.28a.75.75 0 0 0-.95.813 2.43 2.43 0 0 1-1.18 2.398 2.37 2.37 0 0 1-2.632-.165.75.75 0 0 0-1.182.414 4.85 4.85 0 0 0 .493 3.594 4.77 4.77 0 0 0 5.452 2.235l-.413-1.442A3.27 3.27 0 0 1 3.192 7.59m5.673 7.91a1 1 0 0 0-1.731 1l.005.008a1 1 0 0 0 1.732-1zm7.996 0a1 1 0 1 0-1.731 1l.004.008a1 1 0 0 0 1.732-1zm-3.998 1.998a1 1 0 0 0-1.732 1l.005.009a1 1 0 0 0 1.731-1zm-3.998 1.998a1 1 0 1 0-1.732 1l.005.008a1 1 0 0 0 1.732-1zm7.996 0a1 1 0 1 0-1.732 1l.004.008a1 1 0 0 0 1.732-1zm-3.998 1.997a1 1 0 1 0-1.732 1l.005.008a1 1 0 0 0 1.731-1z" clip-rule="evenodd" opacity=".4"/></svg>