<svg xmlns="http://www.w3.org/2000/svg" fill="none" viewBox="0 0 24 24"><path fill="currentColor" fill-rule="evenodd" d="M5.853 9.344c-2.624.53-4.603 2.84-4.603 5.615 0 1.873.902 3.57 2.294 4.636a.75.75 0 0 0 .912-1.19 4.36 4.36 0 0 1-1.706-3.446A4.24 4.24 0 0 1 7 10.73c.959 0 1.84.316 2.551.847a.75.75 0 1 0 .899-1.2 5.74 5.74 0 0 0-3.037-1.132A4.75 4.75 0 0 1 12 5.75c2.626 0 4.75 2.12 4.75 4.728q0 .218-.02.43a4.7 4.7 0 0 1-.497 1.717.75.75 0 1 0 1.334.685c.246-.479.432-.994.547-1.535a3.74 3.74 0 0 1 3.136 3.682c0 1.264-.623 2.22-1.667 2.92a.75.75 0 1 0 .834 1.246c1.374-.92 2.333-2.305 2.333-4.166 0-2.639-1.96-4.818-4.503-5.179C18.14 6.928 15.382 4.25 12 4.25a6.246 6.246 0 0 0-6.147 5.094" clip-rule="evenodd"/><path fill="currentColor" fill-rule="evenodd" d="M3.193 7.589A3.34 3.34 0 0 1 2.754 6.1a3.85 3.85 0 0 0 3.213-.314 3.9 3.9 0 0 0 1.87-2.647 3.35 3.35 0 0 1 1.426 2.143l1.473-.287a4.9 4.9 0 0 0-.551-1.483A4.78 4.78 0 0 0 7.34 1.28a.75.75 0 0 0-.95.813 2.43 2.43 0 0 1-1.18 2.398 2.37 2.37 0 0 1-2.632-.165.75.75 0 0 0-1.182.414 4.85 4.85 0 0 0 .493 3.594 4.77 4.77 0 0 0 5.452 2.235l-.413-1.442A3.27 3.27 0 0 1 3.192 7.59m5.482 8.747a.75.75 0 0 0-1.342-.671l-1 2a.75.75 0 0 0 1.342.67zm4.5 0a.75.75 0 0 0-1.342-.671l-1 2a.75.75 0 1 0 1.342.67zm4.5 0a.75.75 0 0 0-1.342-.671l-1 2a.75.75 0 1 0 1.342.67zm-8 4a.75.75 0 0 0-1.342-.671l-1 2a.75.75 0 0 0 1.342.67zm4.5 0a.75.75 0 0 0-1.342-.671l-1 2a.75.75 0 1 0 1.342.67z" clip-rule="evenodd" opacity=".4"/></svg>