<svg xmlns="http://www.w3.org/2000/svg" fill="none" viewBox="0 0 24 24"><path fill="currentColor" fill-rule="evenodd" d="M5.853 9.365A5.75 5.75 0 0 0 1.25 15c0 2.769 1.963 5.175 4.6 5.71a.75.75 0 0 0 .3-1.47c-1.927-.39-3.4-2.171-3.4-4.24a4.25 4.25 0 0 1 6.8-3.4.75.75 0 1 0 .901-1.2 5.7 5.7 0 0 0-3.039-1.135 4.75 4.75 0 1 1 8.252 4.258.75.75 0 1 0 1.157.955 6.2 6.2 0 0 0 1.293-2.678 3.75 3.75 0 0 1 3.136 3.7c0 1.948-1.455 3.558-3.328 3.754a.75.75 0 1 0 .156 1.492c2.651-.278 4.672-2.544 4.672-5.246a5.25 5.25 0 0 0-4.503-5.197 6.25 6.25 0 0 0-12.394-.938" clip-rule="evenodd"/><path fill="currentColor" fill-rule="evenodd" d="M3.193 7.589A3.34 3.34 0 0 1 2.754 6.1a3.85 3.85 0 0 0 3.213-.314 3.9 3.9 0 0 0 1.87-2.647 3.35 3.35 0 0 1 1.426 2.143l1.473-.287a4.9 4.9 0 0 0-.551-1.483A4.78 4.78 0 0 0 7.34 1.28a.75.75 0 0 0-.95.813 2.43 2.43 0 0 1-1.18 2.398 2.37 2.37 0 0 1-2.632-.165.75.75 0 0 0-1.182.414 4.85 4.85 0 0 0 .493 3.594 4.77 4.77 0 0 0 5.452 2.235l-.413-1.442A3.27 3.27 0 0 1 3.192 7.59m8.472 8.297a.48.48 0 0 1 .67 0c.42.396.913.922 1.295 1.504.39.591.62 1.173.62 1.697 0 1.065-.842 2.163-2.25 2.163s-2.25-1.098-2.25-2.163c0-.524.23-1.106.62-1.697.382-.582.875-1.108 1.295-1.504m1.698-1.092a1.98 1.98 0 0 0-2.726 0c-.467.44-1.05 1.056-1.52 1.772-.466.707-.867 1.581-.867 2.521A3.683 3.683 0 0 0 12 22.75c2.32 0 3.75-1.855 3.75-3.663 0-.94-.401-1.814-.866-2.521-.47-.716-1.054-1.332-1.52-1.772" clip-rule="evenodd" opacity=".4"/></svg>