<svg xmlns="http://www.w3.org/2000/svg" fill="none" viewBox="0 0 24 24"><path fill="currentColor" fill-rule="evenodd" d="M12.416 14.876a.75.75 0 0 0-.832 0l-.115.077c-1.078.718-1.774 1.181-2.26 1.826a4.8 4.8 0 0 0-.693 1.294l.708.248-.708-.248c-.267.763-.266 1.598-.266 2.894V22a.75.75 0 0 0 1.5 0v-.894c0-1.483.01-2.045.182-2.538.111-.318.271-.616.474-.885.276-.366.666-.657 1.594-1.28.928.623 1.318.914 1.594 1.28.203.269.363.567.474.885.172.493.182 1.055.182 2.538V22a.75.75 0 0 0 1.5 0v-1.033c0-1.296 0-2.13-.266-2.893a4.8 4.8 0 0 0-.693-1.295c-.486-.645-1.181-1.108-2.26-1.826zM12.75 2a.75.75 0 0 0-1.5 0v1a.75.75 0 0 0 1.5 0z" clip-rule="evenodd" opacity=".4"/><path fill="currentColor" fill-rule="evenodd" d="M6 12.75H4.75v8.5h14.5v-8.5zm-3 10h18a.75.75 0 0 0 0-1.5h-.25v-8.5H21a.75.75 0 0 0 0-1.5h-2.25v-2.5H19a.75.75 0 0 0 0-1.5h-2.437a2 2 0 0 0 .183-.958c-.052-.816-.613-1.422-1.134-1.843-.522-.424-1.175-.796-1.73-1.112l-.054-.031c-.613-.35-1.063-.615-1.313-.851a.75.75 0 0 0-1.03 0c-.25.236-.701.501-1.314.85l-.054.032c-.555.316-1.208.688-1.73 1.112-.52.421-1.082 1.027-1.134 1.843a2 2 0 0 0 .183.958H5a.75.75 0 0 0 0 1.5h.25v2.5H3a.75.75 0 0 0 0 1.5h.25v8.5H3a.75.75 0 0 0 0 1.5m6.025-14h8.225v2.5H6.75v-2.5zm.276-1.5c-.515-.467-.558-.75-.55-.863.01-.16.137-.414.58-.773.425-.344.986-.665 1.584-1.006l.036-.02c.344-.196.718-.41 1.049-.637.33.227.704.44 1.048.637l.037.02c.597.341 1.158.662 1.583 1.006.444.36.57.613.58.773.008.114-.035.396-.55.863z" clip-rule="evenodd"/></svg>