<svg xmlns="http://www.w3.org/2000/svg" fill="none" viewBox="0 0 24 24"><path fill="currentColor" fill-rule="evenodd" d="M16.464 10.25h.072c.998 0 1.797 0 2.44.058.662.06 1.233.187 1.749.485a4.05 4.05 0 0 1 1.482 1.482c.298.516.425 1.087.485 1.748.058.644.058 1.443.058 2.44v.073c0 .998 0 1.797-.058 2.44-.06.662-.187 1.233-.485 1.749a4.05 4.05 0 0 1-1.482 1.482c-.516.298-1.087.425-1.748.485-.644.058-1.443.058-2.44.058h-.073c-.998 0-1.797 0-2.44-.058-.662-.06-1.233-.187-1.749-.485a4.05 4.05 0 0 1-1.482-1.482c-.298-.516-.425-1.087-.485-1.748-.058-.644-.058-1.443-.058-2.44v-.073c0-.998 0-1.797.058-2.44.06-.662.187-1.233.485-1.749a4.05 4.05 0 0 1 1.482-1.482c.516-.298 1.087-.425 1.748-.485.644-.058 1.443-.058 2.44-.058m-2.305 1.552c-.558.05-.884.146-1.134.29a2.55 2.55 0 0 0-.933.933c-.145.25-.24.576-.29 1.134-.051.568-.052 1.3-.052 2.341s0 1.773.052 2.341c.05.558.146.884.29 1.134.223.388.545.71.933.933.25.144.576.24 1.134.29.568.051 1.3.052 2.341.052s1.773 0 2.341-.052c.558-.05.884-.146 1.134-.29a2.55 2.55 0 0 0 .933-.933c.144-.25.24-.576.29-1.134.051-.568.052-1.3.052-2.341s0-1.773-.052-2.341c-.05-.558-.146-.884-.29-1.134a2.55 2.55 0 0 0-.933-.933c-.25-.145-.576-.24-1.134-.29-.568-.051-1.3-.052-2.341-.052s-1.773 0-2.341.052" clip-rule="evenodd"/><path fill="currentColor" fill-rule="evenodd" d="M5.62 1.25h-.07c-.64 0-1.171 0-1.603.039-.449.04-.863.128-1.245.348a2.9 2.9 0 0 0-1.063 1.058c-.221.382-.31.796-.35 1.244-.039.43-.039.96-.039 1.598v.068c0 .639 0 1.168.04 1.598.04.448.128.862.35 1.244.325.562.87 1.062 1.559 1.27a.75.75 0 1 0 .434-1.435c-.266-.08-.528-.297-.696-.588-.067-.115-.123-.283-.154-.627-.032-.354-.033-.815-.033-1.496s0-1.142.033-1.496c.031-.344.087-.512.154-.628.123-.211.3-.387.512-.51.117-.067.288-.123.633-.154.356-.032.82-.033 1.503-.033.684 0 1.147 0 1.503.033.345.031.516.087.633.154.275.158.486.4.573.644a.75.75 0 0 0 1.412-.507c-.228-.635-.71-1.134-1.238-1.437-.382-.22-.796-.308-1.245-.348-.432-.039-.963-.039-1.604-.039m4.94 4h-.071c-.816 0-1.479 0-2.014.049-.554.05-1.045.156-1.493.415a3.46 3.46 0 0 0-1.268 1.268c-.259.448-.365.94-.415 1.493-.049.535-.049 1.198-.049 2.014v.07c0 .816 0 1.479.049 2.014.05.554.156 1.045.415 1.493.304.527.742.964 1.268 1.268.44.254.92.361 1.46.413a.75.75 0 1 0 .142-1.494c-.433-.04-.674-.115-.852-.218a1.96 1.96 0 0 1-.719-.72c-.105-.18-.18-.428-.22-.877-.042-.46-.043-1.055-.043-1.914 0-.86 0-1.454.042-1.914.041-.45.116-.696.221-.878a1.97 1.97 0 0 1 .72-.719c.181-.105.428-.18.877-.22.46-.042 1.055-.043 1.914-.043.86 0 1.454 0 1.914.042.45.041.696.116.878.221.299.173.547.42.719.72.103.177.177.418.218.851a.75.75 0 1 0 1.494-.142c-.052-.54-.16-1.02-.413-1.46a3.46 3.46 0 0 0-1.268-1.268c-.448-.259-.94-.365-1.493-.415-.535-.049-1.198-.049-2.014-.049" clip-rule="evenodd" opacity=".4"/></svg>