<svg xmlns="http://www.w3.org/2000/svg" fill="none" viewBox="0 0 24 24"><path fill="currentColor" fill-rule="evenodd" d="M9.924 22.557c1.078.132 1.976.194 2.826.194h.001c.85 0 1.748-.062 2.827-.194a5.94 5.94 0 0 0 5.18-5.408c.12-1.511.243-3.304.243-5.149s-.123-3.638-.243-5.148a5.94 5.94 0 0 0-5.18-5.408 23 23 0 0 0-2.826-.194c-.763 0-1.442.031-2.075.095a.75.75 0 1 0 .15 1.492 19 19 0 0 1 1.925-.087c.787 0 1.627.058 2.643.182 2.042.252 3.705 1.988 3.868 4.038.08.994.16 2.111.204 3.281H6.037l.008-.219a.75.75 0 1 0-1.499-.063 48 48 0 0 0-.045 2.032c0 1.845.123 3.638.243 5.148a5.94 5.94 0 0 0 5.18 5.408M6.003 11.751H19.5l.001.248c0 1.793-.121 3.549-.239 5.03-.162 2.05-1.825 3.786-3.867 4.038a22 22 0 0 1-2.644.182 22 22 0 0 1-2.643-.182c-2.043-.252-3.706-1.988-3.868-4.038-.118-1.481-.239-3.236-.239-5.029z" clip-rule="evenodd"/><path fill="currentColor" fill-rule="evenodd" d="M12 11a.75.75 0 0 0 1.5 0V2A.75.75 0 0 0 12 2zM3 5a3.254 3.254 0 0 0 3.25 3.25A3.254 3.254 0 0 0 9.5 5a3.254 3.254 0 0 0-3.25-3.25A3.254 3.254 0 0 0 3 5m1.5 0c0-.965.785-1.75 1.75-1.75S8 4.035 8 5s-.785 1.75-1.75 1.75S4.5 5.965 4.5 5" clip-rule="evenodd" opacity=".4"/></svg>