<svg xmlns="http://www.w3.org/2000/svg" fill="none" viewBox="0 0 24 24"><path fill="currentColor" fill-rule="evenodd" d="M20.26 6.116a.75.75 0 0 0 .74.634h-.002a.75.75 0 0 0 .742-.866c-.252-1.608-1.01-3.127-2.192-4.396a.75.75 0 0 0-1.097 1.023c.978 1.05 1.603 2.295 1.808 3.605M9.75 12a.75.75 0 0 0 1.5 0v-2a.75.75 0 0 0-1.5 0zm0-6a.75.75 0 0 0 1.5 0V2a.75.75 0 0 0-1.5 0z" clip-rule="evenodd" opacity=".4"/><path fill="currentColor" fill-rule="evenodd" d="M7.674 22.557c1.078.132 1.976.194 2.826.194s1.748-.062 2.827-.194a5.94 5.94 0 0 0 5.18-5.408c.12-1.511.243-3.304.243-5.149s-.123-3.638-.243-5.148a5.94 5.94 0 0 0-5.18-5.408 23 23 0 0 0-2.826-.194 23 23 0 0 0-2.827.194 5.94 5.94 0 0 0-5.18 5.408c-.12 1.51-.243 3.304-.243 5.149s.123 3.638.243 5.148a5.94 5.94 0 0 0 5.18 5.408m.182-19.624a22 22 0 0 1 2.644-.182c.787 0 1.627.058 2.643.182 2.042.252 3.705 1.988 3.868 4.038.118 1.481.239 3.236.239 5.029s-.121 3.549-.239 5.03c-.162 2.05-1.825 3.786-3.867 4.038a22 22 0 0 1-2.644.182 22 22 0 0 1-2.643-.182c-2.043-.252-3.706-1.988-3.868-4.038-.118-1.481-.239-3.236-.239-5.029s.121-3.549.239-5.03c.162-2.05 1.824-3.786 3.867-4.038m1.475 7.685c.321.133.64.133 1.169.133.528 0 .847 0 1.171-.134.43-.179.766-.515.946-.947.133-.321.133-.64.133-1.169v-1c0-.528 0-.847-.134-1.171a1.75 1.75 0 0 0-.947-.946c-.321-.133-.641-.133-1.169-.133s-.847 0-1.171.134c-.43.179-.766.515-.946.947-.133.32-.133.64-.133 1.169v1c0 .528 0 .847.134 1.171.179.43.515.766.947.946M10.5 6.751c.262 0 .532 0 .594.018a.25.25 0 0 1 .135.131c.021.068.021.339.021.6v1.002c0 .262 0 .532-.018.594a.25.25 0 0 1-.131.134c-.068.021-.339.021-.6.021H10.5c-.262 0-.532 0-.594-.018a.25.25 0 0 1-.135-.131c-.021-.068-.021-.339-.021-.6V7.5c0-.262 0-.533.018-.595a.25.25 0 0 1 .131-.134c.068-.021.339-.021.6-.021" clip-rule="evenodd"/></svg>