<svg xmlns="http://www.w3.org/2000/svg" fill="none" viewBox="0 0 24 24"><path fill="currentColor" fill-rule="evenodd" d="M7.97 7.97a.75.75 0 0 1 1.06 0L12 10.94l2.97-2.97a.75.75 0 1 1 1.06 1.06L13.06 12l2.97 2.97a.75.75 0 1 1-1.06 1.06L12 13.06l-2.97 2.97a.75.75 0 0 1-1.06-1.06L10.94 12 7.97 9.03a.75.75 0 0 1 0-1.06" clip-rule="evenodd" opacity=".4"/><path fill="currentColor" fill-rule="evenodd" d="M12 2.75a9.25 9.25 0 1 0 0 18.5 9.25 9.25 0 0 0 0-18.5M1.25 12C1.25 6.063 6.063 1.25 12 1.25S22.75 6.063 22.75 12 17.937 22.75 12 22.75 1.25 17.937 1.25 12" clip-rule="evenodd"/></svg>