<svg xmlns="http://www.w3.org/2000/svg" fill="none" viewBox="0 0 24 24"><path fill="currentColor" d="M4.5 12.75A3.254 3.254 0 0 1 1.25 9.5 3.254 3.254 0 0 1 4.5 6.25c.644 0 1.245.188 1.75.512V2a.75.75 0 0 1 1.374-.416c.111.166.19.37.282.603.301.77.713 1.822 2.217 2.073a.75.75 0 0 1-.246 1.48c-.953-.159-1.633-.545-2.127-1.005V9.5a3.254 3.254 0 0 1-3.25 3.25m0-5c-.965 0-1.75.785-1.75 1.75s.785 1.75 1.75 1.75 1.75-.785 1.75-1.75-.785-1.75-1.75-1.75" opacity=".4"/><path fill="currentColor" fill-rule="evenodd" d="M10.5 22.75a3.254 3.254 0 0 0 3.25-3.243v-5.775c3.43-.165 5.994-1.431 7.5-2.348v4.167a2.754 2.754 0 0 0-4 2.449A2.754 2.754 0 0 0 20 20.75a2.754 2.754 0 0 0 2.75-2.796V6.767c0-.422 0-.947-.497-1.212-.499-.271-.938.017-1.293.25l-.002.001c-1.899 1.25-3.939 2.03-6.071 2.32h-.003c-1.143.157-1.772.244-2.202.736-.432.495-.432 1.114-.432 2.141v5.759a3.23 3.23 0 0 0-1.75-.512 3.254 3.254 0 0 0-3.25 3.25 3.254 3.254 0 0 0 3.25 3.25M21.25 9.6V7.397c-1.936 1.178-4.004 1.923-6.154 2.216-.565.077-1.143.156-1.287.243-.059.123-.059.644-.059 1.15v1.225c3.734-.201 6.35-1.857 7.5-2.63M10.5 17.75c.965 0 1.75.785 1.75 1.75s-.785 1.75-1.75 1.75-1.75-.785-1.75-1.75.785-1.75 1.75-1.75m8.25.25c0-.689.561-1.25 1.25-1.25s1.25.561 1.25 1.25-.561 1.25-1.25 1.25-1.25-.561-1.25-1.25" clip-rule="evenodd"/></svg>