<svg xmlns="http://www.w3.org/2000/svg" fill="none" viewBox="0 0 24 24"><path fill="currentColor" fill-rule="evenodd" d="M9.95 10.64a.75.75 0 0 1 .776.723l.086 2.42 1.13 1.309 1.257-1.328.074-2.275a.75.75 0 0 1 1.499.049l-.083 2.559a.75.75 0 0 1-.205.491l-1.728 1.826V20a.75.75 0 0 1-1.5 0v-3.408l-1.751-2.03a.75.75 0 0 1-.182-.463l-.096-2.683a.75.75 0 0 1 .723-.776" clip-rule="evenodd" opacity=".4"/><path fill="currentColor" fill-rule="evenodd" d="M10.721 13.794a.75.75 0 0 1-.515.927c-1.638.468-2.808.803-3.696 1.165-.871.355-1.4.71-1.786 1.176q-.123.147-.23.306c-.606.882-.73 2.045-.744 4.636a.75.75 0 1 1-1.5-.008c.014-2.492.095-4.15 1.006-5.477q.147-.213.312-.413c.603-.728 1.379-1.203 2.376-1.609.973-.396 2.222-.753 3.807-1.206l.043-.012a.75.75 0 0 1 .927.515m2.558 0a.75.75 0 0 1 .927-.515l.043.012c1.585.453 2.834.81 3.807 1.206.997.406 1.773.88 2.376 1.608q.165.201.312.414c.91 1.328.992 2.985 1.006 5.477a.75.75 0 1 1-1.5.008c-.014-2.591-.138-3.754-.743-4.636a4 4 0 0 0-.23-.306c-.387-.466-.916-.82-1.787-1.176-.888-.362-2.058-.697-3.696-1.165a.75.75 0 0 1-.515-.927M8.813 6.75l.002.01.42 2.155c.268 1.37 1.435 2.335 2.765 2.335s2.497-.964 2.764-2.335l.42-2.156.003-.009zM7.25 6.026l.002-.086C7.331 3.407 9.36 1.25 12 1.25c2.637 0 4.665 2.153 4.747 4.683a1 1 0 0 1 .002.1q.007.5-.092 1.014l-.42 2.155c-.4 2.05-2.164 3.548-4.237 3.548s-3.837-1.498-4.237-3.548l-.42-2.155a5 5 0 0 1-.093-1.02m7.895-.776c-.362-1.423-1.623-2.5-3.145-2.5s-2.783 1.077-3.146 2.5z" clip-rule="evenodd"/></svg>