<svg xmlns="http://www.w3.org/2000/svg" fill="none" viewBox="0 0 24 24"><path fill="currentColor" fill-rule="evenodd" d="M5.217 7.255a.75.75 0 0 1 .661.83c-.35 3.073-.06 7.075 1.816 11.63a.75.75 0 1 1-1.388.57c-1.974-4.797-2.295-9.055-1.918-12.37a.75.75 0 0 1 .83-.66" clip-rule="evenodd" opacity=".4"/><path fill="currentColor" fill-rule="evenodd" d="M8.339 1.514a.75.75 0 0 1 .145.71c-.332 1.058-.061 1.986.363 3.015q.082.2.175.416c.162.38.335.787.464 1.175.184.553.315 1.168.235 1.822-.293 2.377-2.398 4.124-4.754 3.835-2.356-.29-3.975-2.495-3.683-4.873.246-2.002 1.818-5.696 6.376-6.356a.75.75 0 0 1 .679.256M6.84 2.972c-2.856.876-3.89 3.38-4.067 4.825-.198 1.61.896 3.019 2.377 3.2 1.48.183 2.884-.92 3.082-2.528.042-.343-.02-.716-.17-1.166a13 13 0 0 0-.395-1l-.208-.493c-.331-.805-.667-1.756-.619-2.838m9.373 6.78c-1.702.032-3.242.696-4.201 1.348-1.634 1.109-2.464 3.137-2.22 4.944a18.6 18.6 0 0 1 3.86-2.709.75.75 0 1 1 .696 1.33 17.3 17.3 0 0 0-4.025 2.937c1.026 1.728 3.207 2.205 5.101.919.459-.311.852-.782 1.243-1.4.28-.443.534-.916.808-1.427q.174-.326.364-.672c.682-1.24 1.527-2.606 2.923-3.532-1.504-1.34-3.099-1.767-4.549-1.739M9.26 18.718c1.575 2.233 4.584 2.687 7.006 1.043.705-.478 1.23-1.145 1.669-1.839.31-.491.605-1.04.89-1.572q.165-.31.328-.606c.807-1.467 1.663-2.74 3.148-3.393a.75.75 0 0 0 .255-1.19c-2-2.215-4.288-2.95-6.372-2.91-2.051.04-3.868.828-5.015 1.606-2.387 1.62-3.494 4.784-2.628 7.421-1.123 1.205-2.2 2.64-3.19 4.345a.75.75 0 0 0 1.298.753 23 23 0 0 1 2.61-3.658" clip-rule="evenodd"/></svg>