<svg xmlns="http://www.w3.org/2000/svg" fill="none" viewBox="0 0 24 24"><path fill="currentColor" fill-rule="evenodd" d="M9.063 3.226a9 9 0 0 0-1.225.51.75.75 0 1 1-.676-1.338A10.7 10.7 0 0 1 12 1.25c5.937 0 10.75 4.813 10.75 10.75a10.7 10.7 0 0 1-1.148 4.838.75.75 0 1 1-1.34-.676c.526-1.04.86-2.192.958-3.412H16a.75.75 0 0 1-.75-.75c0-2.69-.437-5.092-1.118-6.793-.34-.852-.728-1.492-1.12-1.906-.39-.412-.732-.551-1.012-.551-.295 0-.684.154-1.117.586-.428.428-.848 1.083-1.184 1.938a.75.75 0 1 1-1.396-.548 8.4 8.4 0 0 1 .76-1.5m5.73-.047c.273.438.517.934.732 1.471.699 1.748 1.141 4.06 1.214 6.6h4.481a9.26 9.26 0 0 0-6.427-8.071" clip-rule="evenodd" opacity=".4"/><path fill="currentColor" fill-rule="evenodd" d="M1.47 1.47a.75.75 0 0 1 1.06 0l20 20a.75.75 0 0 1-1.06 1.06l-2.406-2.406A10.76 10.76 0 0 1 12 22.75c-5.931 0-10.75-4.77-10.75-10.667v-.113a10.58 10.58 0 0 1 2.7-6.958L1.47 2.53a.75.75 0 0 1 0-1.06m10.22 11.28H8.76c.073 2.385.49 4.501 1.107 6.043.34.852.728 1.492 1.12 1.906.39.412.732.551 1.012.551.4 0 .926-.304 1.48-1.292.534-.955.98-2.363 1.281-4.087l.009-.04zm4.357 4.357c-.309 1.404-.729 2.637-1.259 3.584l-.095.165A9.3 9.3 0 0 0 18 19.06zM7.26 12.75H2.774c.276 3.802 2.894 6.967 6.436 8.076a9.3 9.3 0 0 1-.735-1.476c-.699-1.748-1.141-4.06-1.214-6.6m1.58-2.848q-.059.658-.08 1.348h1.428zM5.014 6.074a9.1 9.1 0 0 0-2.226 5.176H7.26c.027-.94.104-1.846.226-2.702z" clip-rule="evenodd"/></svg>