<svg xmlns="http://www.w3.org/2000/svg" fill="none" viewBox="0 0 24 24"><path fill="currentColor" fill-rule="evenodd" d="M5.75 7.25A.75.75 0 0 1 6.5 8v3.75h4.75a.75.75 0 0 1 0 1.5H6.5V14c0 1.435.002 2.436.103 3.192.099.734.28 1.122.556 1.399.26.26.62.435 1.27.537.67.105 1.559.12 2.822.122a.75.75 0 0 1-.002 1.5c-1.235-.002-2.245-.013-3.053-.14-.83-.13-1.533-.394-2.098-.958-.602-.602-.86-1.36-.981-2.26C5 16.525 5 15.422 5 14.055V8a.75.75 0 0 1 .75-.75" clip-rule="evenodd" opacity=".4"/><path fill="currentColor" fill-rule="evenodd" d="M4.25 1.25c-.524 0-1 .08-1.408.28-.424.207-.73.523-.935.91C1.532 3.144 1.5 4.086 1.5 5s.032 1.855.407 2.56c.206.387.51.703.935.91.408.2.884.28 1.408.28h3c.524 0 1-.08 1.408-.28.424-.207.73-.523.935-.91C9.968 6.856 10 5.914 10 5s-.032-1.855-.407-2.56a2.07 2.07 0 0 0-.935-.91c-.408-.2-.884-.28-1.408-.28zM3 5c0-.977.06-1.535.232-1.857a.58.58 0 0 1 .27-.267c.136-.066.364-.126.748-.126h3c.384 0 .612.06.748.126.121.06.203.14.27.267.172.322.232.88.232 1.857 0 .978-.06 1.535-.232 1.857a.58.58 0 0 1-.27.267c-.136.066-.364.126-.748.126h-3c-.384 0-.612-.06-.748-.126a.58.58 0 0 1-.27-.267C3.06 6.535 3 5.977 3 5m18.669 6.569-.669-.82v7.156c0 1.538-1.199 2.845-2.75 2.845a.75.75 0 0 1 0-1.5c.658 0 1.25-.569 1.25-1.345v-7.157l-.669.821a.75.75 0 0 1-1.162-.948l1-1.227.027-.033c.212-.26.416-.512.608-.691.209-.196.518-.42.946-.42s.737.224.946.42c.192.18.396.43.608.69l.027.034 1 1.227a.75.75 0 0 1-1.162.948M13.25 9.75h-.045c-.433 0-.83 0-1.152.043-.356.048-.731.16-1.04.47s-.422.684-.47 1.04c-.043.323-.043.72-.043 1.152v.09c0 .433 0 .83.043 1.152.048.356.16.731.47 1.04s.684.422 1.04.47c.323.043.72.043 1.152.043h.09c.433 0 .83 0 1.152-.043.356-.048.731-.16 1.04-.47s.422-.684.47-1.04c.043-.323.043-.72.043-1.152v-.09c0-.433 0-.83-.043-1.152-.048-.356-.16-.731-.47-1.04s-.684-.422-1.04-.47c-.323-.043-.72-.043-1.152-.043zm-1.174 1.572-.003.001-.001.003-.003.005-.002.005a.7.7 0 0 0-.037.167c-.028.21-.03.504-.03.997s.002.787.03.997a.7.7 0 0 0 .042.177l.001.003.003.001.01.005c.022.009.07.024.167.037.21.028.504.03.997.03s.787-.002.997-.03a.7.7 0 0 0 .177-.042l.003-.001.001-.003.003-.005.002-.005a.7.7 0 0 0 .037-.167c.028-.21.03-.504.03-.997s-.002-.787-.03-.997a.7.7 0 0 0-.042-.177l-.001-.003-.003-.001-.01-.005a.7.7 0 0 0-.167-.037c-.21-.028-.504-.03-.997-.03s-.787.002-.997.03a.7.7 0 0 0-.177.042m1.13 5.928h.089c.433 0 .83 0 1.152.043.356.048.731.16 1.04.47s.422.684.47 1.04c.043.323.043.72.043 1.152v.09c0 .433 0 .83-.043 1.152-.048.356-.16.731-.47 1.04s-.684.422-1.04.47c-.323.043-.72.043-1.152.043h-.09c-.433 0-.83 0-1.152-.043-.356-.048-.731-.16-1.04-.47s-.422-.684-.47-1.04c-.043-.323-.043-.72-.043-1.152v-.09c0-.433 0-.83.043-1.152.048-.356.16-.731.47-1.04s.684-.422 1.04-.47c.323-.043.72-.043 1.152-.043m-1.133 1.573.003-.001.004-.002.006-.003a.7.7 0 0 1 .167-.037c.21-.028.504-.03.997-.03s.787.002.997.03a.7.7 0 0 1 .177.042l.003.001.001.003.005.01c.009.022.024.07.037.167.028.21.03.504.03.997s-.002.787-.03.997a.7.7 0 0 1-.042.177l-.001.003-.003.001-.01.005a.7.7 0 0 1-.167.037c-.21.028-.504.03-.997.03s-.787-.002-.997-.03a.7.7 0 0 1-.167-.037l-.006-.003-.004-.002-.003-.001-.001-.003-.002-.004-.003-.006a.7.7 0 0 1-.037-.167c-.028-.21-.03-.504-.03-.997s.002-.787.03-.997a.7.7 0 0 1 .042-.177z" clip-rule="evenodd"/></svg>