<svg xmlns="http://www.w3.org/2000/svg" fill="none" viewBox="0 0 24 24"><path fill="currentColor" fill-rule="evenodd" d="M6 1.25a.75.75 0 0 1 .75.75v.285c.774-.035 1.668-.035 2.694-.035h.806V2a.75.75 0 0 1 1.5 0v.25h.806c1.027 0 1.92 0 2.694.035V2a.75.75 0 0 1 1.5 0v.432c.898.156 1.648.456 2.255 1.063.675.675.97 1.528 1.11 2.565.135 1.003.135 2.282.135 3.884V11a.75.75 0 0 1-1.5 0v-1c0-1.671-.002-2.849-.122-3.74-.116-.87-.334-1.355-.683-1.705-.275-.274-.633-.467-1.195-.594V4a.75.75 0 0 1-1.5 0v-.213c-.738-.036-1.634-.037-2.75-.037h-.75V4a.75.75 0 0 1-1.5 0v-.25H9.5c-1.116 0-2.012 0-2.75.037V4a.75.75 0 0 1-1.5 0v-.039c-.562.127-.92.32-1.195.594-.35.35-.567.835-.684 1.704-.12.892-.121 2.07-.121 3.741v5c0 1.671.002 2.849.121 3.74.117.87.334 1.355.684 1.705s.835.567 1.704.683c.892.12 2.07.122 3.741.122h1a.75.75 0 0 1 0 1.5H9.444c-1.602 0-2.881 0-3.884-.135-1.037-.14-1.89-.435-2.565-1.11s-.97-1.528-1.11-2.565c-.135-1.003-.135-2.282-.135-3.884V9.944c0-1.602 0-2.881.135-3.884.14-1.037.435-1.89 1.11-2.565.606-.607 1.357-.907 2.255-1.063V2A.75.75 0 0 1 6 1.25m1 8a.75.75 0 0 0 0 1.5h8a.75.75 0 0 0 0-1.5z" clip-rule="evenodd"/><path fill="currentColor" fill-rule="evenodd" d="M20.46 13.599a2.27 2.27 0 0 0-2.664.216l-.029.024-.026.027c-.482.49-1.121 1.117-1.752 1.735l-.766.752c-.417.41-.797.79-1.075 1.078a9 9 0 0 0-.348.378 2 2 0 0 0-.131.167 1 1 0 0 0-.076.124l-.001.003-.003.006c-.148.231-.26.513-.349.806-.1.334-.184.728-.25 1.17l-.058.28c-.058.278-.119.569-.15.808a2.4 2.4 0 0 0-.02.557c.02.18.082.48.338.713.247.225.555.266.716.279.193.015.399 0 .59-.021a15 15 0 0 0 1.24-.222c.78-.09 1.555-.37 2.013-.721l.02-.016.02-.017c.5-.443 3.744-3.718 4.137-4.164l.023-.025.02-.027c.252-.344.353-.773.367-1.146a2.25 2.25 0 0 0-.245-1.14 2.3 2.3 0 0 0-.312-.446 11.4 11.4 0 0 0-1.14-1.116l-.041-.034zm-3.434 3.086c.623-.61 1.266-1.24 1.755-1.738a.765.765 0 0 1 .864-.087c.128.109.357.32.58.544.124.126.237.246.323.347.08.093.107.134.107.134v-.002l.009.022.017.03a.76.76 0 0 1 .066.37.7.7 0 0 1-.067.299c-.474.518-3.446 3.518-3.954 3.978-.198.142-.69.347-1.278.41l-.036.004-.036.007c-.419.087-.787.162-1.081.2.024-.138.056-.291.092-.468l.078-.375.003-.018.003-.02c.059-.399.13-.724.205-.973.079-.26.15-.395.186-.447l.12-.167q.09-.1.248-.264c.262-.273.629-.639 1.046-1.05zM7 14.25a.75.75 0 0 0 0 1.5h4a.75.75 0 0 0 0-1.5z" clip-rule="evenodd" opacity=".4"/></svg>