<svg xmlns="http://www.w3.org/2000/svg" fill="none" viewBox="0 0 24 24"><path fill="currentColor" fill-rule="evenodd" d="M12 2.75c-3.765 0-6.775 2.947-6.775 6.53 0 1.052-.054 2.241-.825 3.344l-.002.003a18 18 0 0 1-.393.53 10 10 0 0 0-.351.49c-.213.324-.342.6-.383.864-.133.846.42 1.537 1.44 1.947 4.284 1.723 10.294 1.723 14.577 0 1.02-.41 1.574-1.1 1.441-1.947-.041-.263-.17-.54-.383-.863a10 10 0 0 0-.352-.492l-.073-.097a18 18 0 0 1-.319-.432l-.002-.003c-.772-1.103-.825-2.292-.825-3.345 0-3.582-3.01-6.529-6.775-6.529M3.725 9.28c0-4.458 3.728-8.03 8.275-8.03 4.546 0 8.275 3.572 8.275 8.03 0 1.027.07 1.793.553 2.482.088.125.181.249.284.385l.082.109c.131.174.273.366.405.568.263.4.523.885.612 1.454.292 1.859-1.056 3.047-2.363 3.572-4.643 1.867-11.054 1.867-15.696 0-1.307-.526-2.655-1.713-2.363-3.572.09-.569.349-1.055.611-1.454a11 11 0 0 1 .488-.677c.102-.136.196-.26.284-.385.482-.69.553-1.455.553-2.483" clip-rule="evenodd"/><path fill="currentColor" fill-rule="evenodd" d="M8.409 20.538a.75.75 0 0 1 1.053-.13c.661.517 1.549.842 2.538.842.99 0 1.877-.325 2.538-.841a.75.75 0 1 1 .924 1.182c-.931.727-2.146 1.159-3.462 1.159s-2.53-.432-3.462-1.159a.75.75 0 0 1-.129-1.053" clip-rule="evenodd" opacity=".4"/></svg>