<svg xmlns="http://www.w3.org/2000/svg" fill="none" viewBox="0 0 24 24"><path fill="currentColor" fill-rule="evenodd" d="M2.53 1.47a.75.75 0 0 0-1.06 1.06l4.515 4.515c-.925 1.23-1.492 2.822-1.575 4.407q-.014.258-.022.496c-.023.542-.042 1.013-.14 1.465-.117.54-.334.964-.776 1.295a3.06 3.06 0 0 0-1.222 2.445c0 1.381 1.088 2.597 2.55 2.597h3.525a3.751 3.751 0 0 0 7.35 0h3.014l2.78 2.78a.75.75 0 1 0 1.061-1.06l-2.949-2.95a1 1 0 0 0-.097-.097L7.533 6.473l-.004-.005zm4.53 6.65a6.7 6.7 0 0 0-1.151 3.41q-.01.192-.018.404c-.022.56-.047 1.205-.176 1.798-.17.786-.535 1.572-1.342 2.177a1.56 1.56 0 0 0-.622 1.244c0 .614.476 1.097 1.05 1.097H17.19zM12 21.25a2.25 2.25 0 0 1-2.122-1.5h4.244A2.25 2.25 0 0 1 12 21.25" clip-rule="evenodd"/><path fill="currentColor" fill-rule="evenodd" d="M10.529 1.624c.445-.291.988-.374 1.471-.374s1.027.083 1.472.374c.494.324.778.847.778 1.501 0 .464-.14.944-.37 1.359a7.6 7.6 0 0 1 5.715 6.968q.014.258.023.496c.022.542.041 1.013.14 1.465.117.54.334.964.775 1.295a3.06 3.06 0 0 1 1.216 2.242.75.75 0 0 1-1.497.1 1.56 1.56 0 0 0-.619-1.142c-.806-.604-1.17-1.39-1.342-2.176-.128-.593-.154-1.238-.176-1.798q-.008-.211-.018-.404a6.1 6.1 0 0 0-6.094-5.78 5.7 5.7 0 0 0-2.221.445.75.75 0 1 1-.564-1.39q.449-.183.91-.308a2.9 2.9 0 0 1-.378-1.372c0-.654.285-1.177.779-1.5M12 4.25c.087 0 .265-.063.459-.324.189-.254.291-.569.291-.801a.4.4 0 0 0-.031-.176.2.2 0 0 0-.069-.07c-.098-.064-.304-.129-.65-.129-.345 0-.552.065-.65.13a.2.2 0 0 0-.068.069.4.4 0 0 0-.032.176c0 .232.103.547.291.8.195.262.372.325.46.325" clip-rule="evenodd" opacity=".4"/></svg>