<svg xmlns="http://www.w3.org/2000/svg" fill="none" viewBox="0 0 24 24"><path fill="currentColor" fill-rule="evenodd" d="M8.055 1.25h-.11c-1.367 0-2.47 0-3.337.117-.9.12-1.658.38-2.26.981-.602.602-.86 1.36-.981 2.26-.117.867-.117 1.97-.117 3.337v8.11c0 1.367 0 2.47.117 3.337.12.9.38 1.658.981 2.26.602.602 1.36.86 2.26.982.867.116 1.97.116 3.337.116h6.805V7.945c0-1.367 0-2.47-.117-3.337-.12-.9-.38-1.658-.981-2.26-.602-.602-1.36-.86-2.26-.981-.867-.117-1.97-.117-3.337-.117M3.409 3.409c.277-.277.665-.457 1.4-.556C5.562 2.752 6.564 2.75 8 2.75s2.437.002 3.192.103c.734.099 1.122.28 1.399.556.277.277.457.665.556 1.4.101.754.103 1.756.103 3.191v13.25H8c-1.435 0-2.437-.002-3.192-.103-.734-.099-1.122-.28-1.399-.556-.277-.277-.457-.665-.556-1.4-.101-.755-.103-1.756-.103-3.191V8c0-1.435.002-2.437.103-3.192.099-.734.28-1.122.556-1.399M5.5 6.25a.75.75 0 0 0 0 1.5h1a.75.75 0 0 0 0-1.5zm4 0a.75.75 0 0 0 0 1.5h1a.75.75 0 0 0 0-1.5zm-4 4a.75.75 0 0 0 0 1.5h1a.75.75 0 0 0 0-1.5zm4 0a.75.75 0 0 0 0 1.5h1a.75.75 0 0 0 0-1.5zm-4 4a.75.75 0 0 0 0 1.5h1a.75.75 0 0 0 0-1.5zm4 0a.75.75 0 0 0 0 1.5h1a.75.75 0 0 0 0-1.5z" clip-rule="evenodd"/><path fill="currentColor" fill-rule="evenodd" d="M18 8.75c.964 0 1.612.002 2.095.067.461.062.659.169.789.3s.237.327.3.788c.064.483.066 1.131.066 2.095v6c0 .964-.002 1.612-.067 2.095-.062.461-.169.659-.3.789s-.327.237-.788.3c-.483.064-1.131.066-2.095.066h-3.25V8.75zm3.945-.695c-.456-.455-1.023-.64-1.65-.725-.595-.08-1.344-.08-2.243-.08H13.25v15.5h4.802c.899 0 1.648 0 2.242-.08.628-.084 1.195-.27 1.65-.726.456-.455.642-1.022.726-1.65.08-.594.08-1.343.08-2.242v-6.104c0-.899 0-1.648-.08-2.242-.084-.628-.27-1.195-.726-1.65M17.5 10.25a.75.75 0 0 0 0 1.5h1a.75.75 0 0 0 0-1.5zm0 4a.75.75 0 0 0 0 1.5h1a.75.75 0 0 0 0-1.5z" clip-rule="evenodd" opacity=".4"/></svg>