<svg xmlns="http://www.w3.org/2000/svg" fill="none" viewBox="0 0 24 24"><path fill="currentColor" fill-rule="evenodd" d="M11.18 10.75h1.641c1.53 0 2.373 0 3.095-.597.699-.593.9-1.452 1.264-3.017v-.002c.566-2.423.878-3.757.115-4.804-.786-1.078-2.096-1.078-4.474-1.078h-1.64c-2.378 0-3.688 0-4.474 1.078-.762 1.047-.451 2.382.117 4.812v.002c.363 1.557.563 2.417 1.269 3.015.715.592 1.558.592 3.088.592M7.92 3.214c.323-.443 1.233-.462 3.262-.462l-.002-.001h1.64c2.029 0 2.939.019 3.262.462.358.49.102 1.586-.364 3.581l-.001.007c-.313 1.343-.464 1.947-.765 2.203-.286.238-.86.248-2.131.248h-1.64c-1.271 0-1.845-.01-2.125-.242-.307-.261-.46-.866-.773-2.215-.465-1.992-.721-3.09-.363-3.581m.22 9.574c-.67.187-1.25.725-1.583 1.381A1.25 1.25 0 0 1 5.75 13v-1A2.754 2.754 0 0 0 3 9.25a.75.75 0 0 0 0 1.5c.689 0 1.25.561 1.25 1.25v1c0 1.262.855 2.328 2.016 2.65.078.648.62 1.1 1.317 1.1h8.835c.697 0 1.238-.451 1.316-1.1A2.756 2.756 0 0 0 19.75 13v-1c0-.689.561-1.25 1.25-1.25a.75.75 0 0 0 0-1.5A2.754 2.754 0 0 0 18.25 12v1c0 .532-.335.988-.805 1.168-.335-.656-.914-1.194-1.585-1.381A15.2 15.2 0 0 0 12 12.25c-1.215 0-2.621.195-3.86.537m8.102 2.463H7.76c.067-.428.423-.918.78-1.017A13.6 13.6 0 0 1 12 13.75c1.088 0 2.349.177 3.46.483.358.099.713.59.78 1.017" clip-rule="evenodd"/><path fill="currentColor" fill-rule="evenodd" d="M12.75 16a.75.75 0 0 0-1.5 0v3.302c-1.489.209-2.808 1.03-3.82 2.21a.75.75 0 0 0 1.14.976c.764-.892 1.688-1.47 2.68-1.665V22a.75.75 0 0 0 1.5 0v-1.177c.992.195 1.916.773 2.68 1.665a.75.75 0 1 0 1.14-.976c-1.012-1.18-2.331-2.001-3.82-2.21zm0-6a.75.75 0 0 0-1.5 0v3a.75.75 0 0 0 1.5 0z" clip-rule="evenodd" opacity=".4"/></svg>