<svg xmlns="http://www.w3.org/2000/svg" fill="none" viewBox="0 0 24 24"><path fill="currentColor" fill-rule="evenodd" d="M11.88 2.45c.36-.731 1.1-1.2 1.916-1.2 1.538 0 2.549 1.573 1.982 2.978l-.006.015-1.578 3.68q.102-.004.21-.004c2.694 0 4.98 1.75 5.755 4.174a1.84 1.84 0 0 1-.402 1.825c.395.457.583 1.1.363 1.775-.473 1.451-1.494 2.644-2.758 3.381q-.139.082-.271.157c-.416.24-.778.448-1.07.698-.332.283-.458.525-.459.794V22a.75.75 0 0 1-1.5 0v-1.28c.002-.875.474-1.495.984-1.931.41-.35.92-.642 1.335-.88l.225-.13c.968-.565 1.736-1.472 2.088-2.55.041-.127.016-.236-.086-.345a.8.8 0 0 0-.579-.228c-.226 0-.488.1-.815.33-.277.195-.534.435-.814.696l-.172.16a3 3 0 0 1-.382.298c-1.775 1.132-4.115-.212-4.115-2.234 0-2.012 2.316-3.353 4.088-2.252.394.212.713.485.963.76.433.476.868.742 1.254.742.263 0 .48-.108.602-.237.108-.116.135-.234.092-.37a4.53 4.53 0 0 0-4.327-3.13c-.426 0-.722.06-.896.11a1.4 1.4 0 0 0-.198.073.75.75 0 0 1-1.06-.947l2.14-4.995c.177-.45-.156-.91-.593-.91a.64.64 0 0 0-.57.362L10.35 8.955a.75.75 0 1 1-1.345-.663l.37-.752V4.38a.67.67 0 0 0-.656-.679.67.67 0 0 0-.656.679v7.143a.75.75 0 0 1-1.5 0V8.19a.67.67 0 0 0-.657-.678.67.67 0 0 0-.656.678v5.12c0 1.216.279 2.415.814 3.502l.291.592a7.5 7.5 0 0 1 .77 3.313V22a.75.75 0 0 1-1.5 0v-1.283a6 6 0 0 0-.616-2.65l-.291-.593a9.4 9.4 0 0 1-.968-4.164V8.19c0-1.192.954-2.178 2.156-2.178q.346.001.657.102V4.381c0-1.192.954-2.179 2.156-2.179s2.156.987 2.156 2.179v.111zm4.284 11.447a5 5 0 0 1-.491-.474 2.1 2.1 0 0 0-.58-.456l-.054-.031c-.763-.487-1.808.116-1.808.97 0 .853 1.045 1.456 1.808.97.037-.023.098-.069.171-.136l.146-.136a12 12 0 0 1 .808-.707" clip-rule="evenodd" opacity=".4"/><path fill="currentColor" fill-rule="evenodd" d="M11.881 2.45c.36-.731 1.1-1.2 1.916-1.2 1.537 0 2.548 1.573 1.981 2.978l-.006.015-1.577 3.68q.1-.004.209-.004c2.694 0 4.98 1.75 5.755 4.174a1.84 1.84 0 0 1-.402 1.825c.395.457.584 1.1.363 1.775-.473 1.451-1.494 2.644-2.757 3.381l-.271.157c-.417.24-.779.448-1.071.698-.331.283-.458.525-.458.794V22a.75.75 0 0 1-1.5 0v-1.28c.002-.875.473-1.495.983-1.931.41-.35.92-.642 1.336-.88l.225-.13c.967-.565 1.736-1.472 2.087-2.55.041-.127.017-.236-.085-.345a.8.8 0 0 0-.58-.228c-.226 0-.488.1-.814.33-.277.195-.534.435-.815.696l-.172.16a3 3 0 0 1-.381.298h-.001c-1.774 1.132-4.115-.212-4.115-2.234 0-2.012 2.317-3.353 4.088-2.252.395.212.714.485.963.76.434.476.869.742 1.255.742.262 0 .48-.108.601-.237.108-.116.136-.234.093-.37a4.53 4.53 0 0 0-4.327-3.13c-.427 0-.723.06-.897.11a1.4 1.4 0 0 0-.198.073.75.75 0 0 1-1.06-.947l2.14-4.995c.178-.45-.155-.91-.592-.91a.64.64 0 0 0-.57.362L10.35 8.955a.75.75 0 1 1-1.346-.663zm4.284 11.447a5 5 0 0 1-.492-.474 2.1 2.1 0 0 0-.579-.456l-.054-.031c-.763-.487-1.809.116-1.809.97 0 .853 1.045 1.456 1.808.97a1.3 1.3 0 0 0 .172-.136l.146-.136a12 12 0 0 1 .808-.707" clip-rule="evenodd"/></svg>