<svg xmlns="http://www.w3.org/2000/svg" fill="none" viewBox="0 0 24 24"><path fill="currentColor" fill-rule="evenodd" d="M20.576 1.291a.75.75 0 0 1 .874.3c.958 1.478 1.36 2.71 1.293 3.776-.068 1.096-.618 1.878-1.243 2.46-.428.398-.955.753-1.389 1.045-.157.106-.303.204-.427.293-.562.402-.706.623-.725.77-.003.026-.005.063.06.13.076.08.227.177.456.238.467.124 1.03.044 1.413-.276a.75.75 0 0 1 1.201.783c-.154.538-.692 1.732-1.832 2.669-1.178.968-2.944 1.616-5.417 1.074a.75.75 0 0 1 .32-1.465c2.027.444 3.323-.093 4.144-.768.18-.148.34-.306.482-.465a3.2 3.2 0 0 1-.696-.102c-.427-.114-.847-.326-1.158-.654a1.64 1.64 0 0 1-.46-1.358c.112-.862.816-1.421 1.339-1.796q.295-.208.57-.391c.395-.267.76-.512 1.097-.825.451-.42.731-.867.768-1.455a2.9 2.9 0 0 0-.145-1.03 2.4 2.4 0 0 1-.745.686c-.828.487-1.933.508-2.91.472-.364-.013-.72-.035-1.068-.057-.68-.042-1.338-.082-1.994-.056-.972.038-1.724.225-2.246.66-.942.785-1.379 1.962-1.388 3.004a.75.75 0 0 1-1.5-.013c.013-1.411.596-3.033 1.927-4.143.905-.754 2.066-.965 3.148-1.007.73-.03 1.525.02 2.248.064.328.02.642.039.928.05 1.011.037 1.69-.03 2.093-.267.17-.1.295-.235.38-.445.09-.227.148-.58.1-1.126a.75.75 0 0 1 .502-.775" clip-rule="evenodd" opacity=".4"/><path fill="currentColor" fill-rule="evenodd" d="M7.74 6.3a.75.75 0 0 1 .8.17l8.99 8.99a.75.75 0 0 1-.496 1.279l-.034-.75.034.75h-.014l-.037.002-.134.004a19 19 0 0 1-2.175-.075.75.75 0 0 1-1.204.86l-1.054-1.053-7.953 5.878a2.015 2.015 0 0 1-2.818-2.818l5.878-7.953L6.47 10.53a.75.75 0 0 1 .86-1.204l-.016-.17a19 19 0 0 1-.055-2.139l.002-.037v-.014l.75.034-.75-.034A.75.75 0 0 1 7.74 6.3m.914 6.415-.074-.037-5.73 7.75a.515.515 0 0 0 .721.721l7.752-5.73-.037-.072zm4.092 1.97-3.435-3.434a3.2 3.2 0 0 1-.254-.678 9 9 0 0 1-.249-1.545l-.014-.184 6.361 6.362-.183-.015a9 9 0 0 1-1.544-.25 3.2 3.2 0 0 1-.682-.255" clip-rule="evenodd"/></svg>