<svg xmlns="http://www.w3.org/2000/svg" fill="none" viewBox="0 0 24 24"><path fill="currentColor" fill-rule="evenodd" d="m6.713 6.5-.058-.01c-.712-.127-1.337-.237-1.863-.24-.585-.003-1.118.122-1.61.512-.513.408-.74.94-.84 1.54-.092.545-.092 1.225-.092 2.01v6.112c0 .726 0 1.336.057 1.822.06.509.193.994.544 1.396.36.412.875.62 1.418.769.545.15 1.26.276 2.144.431l.04.007c1.566.277 2.772.714 3.627 1.141l.018.01c.439.218.792.395 1.062.515.138.061.271.116.396.156.117.038.274.079.444.079s.327-.041.444-.079c.125-.04.258-.095.396-.156.27-.12.623-.297 1.062-.516l.018-.009c.855-.427 2.061-.864 3.628-1.14l.039-.008c.883-.155 1.6-.281 2.144-.431.543-.15 1.058-.357 1.418-.769.351-.402.484-.887.544-1.396.057-.486.057-1.096.057-1.822v-6.113c0-.784 0-1.464-.091-2.008-.101-.6-.328-1.133-.841-1.54-.492-.39-1.025-.516-1.61-.513-.526.003-1.15.113-1.863.24l-.058.01c-2.539.447-4.31 1.303-5.287 2.029-.978-.726-2.748-1.582-5.287-2.03M4.115 7.936c.157-.125.33-.189.668-.187.384.002.882.088 1.67.226 2.568.453 4.139 1.333 4.797 1.869v11.052l-.5-.249c-.99-.495-2.335-.976-4.037-1.276-.932-.164-1.578-.279-2.046-.407-.477-.132-.629-.244-.686-.31-.065-.074-.14-.21-.184-.585-.046-.387-.047-.908-.047-1.69v-6.008c0-.862.002-1.415.07-1.82.062-.365.16-.508.295-.615m8.635 12.96.5-.249c.99-.495 2.335-.976 4.037-1.276.932-.164 1.578-.279 2.046-.407.477-.132.629-.244.686-.31.065-.074.14-.21.184-.585.046-.387.047-.908.047-1.69v-6.008c0-.862-.003-1.415-.07-1.82-.062-.365-.16-.508-.295-.615-.157-.125-.33-.189-.668-.187-.384.002-.882.088-1.67.226-2.568.453-4.139 1.333-4.797 1.869z" clip-rule="evenodd"/><path fill="currentColor" fill-rule="evenodd" d="M11.993 1.25a7.04 7.04 0 0 0-3.907 1.184.75.75 0 1 0 .829 1.25 5.54 5.54 0 0 1 6.169.008.75.75 0 1 0 .832-1.248 7.04 7.04 0 0 0-3.923-1.194m0 3.047a3.9 3.9 0 0 0-1.998.552.75.75 0 1 0 .768 1.288 2.39 2.39 0 0 1 2.472.007.75.75 0 1 0 .775-1.284 3.9 3.9 0 0 0-2.017-.563" clip-rule="evenodd" opacity=".4"/></svg>