<svg xmlns="http://www.w3.org/2000/svg" fill="none" viewBox="0 0 24 24"><path fill="currentColor" fill-rule="evenodd" d="M2.634 1.346a.75.75 0 0 1 1.02.288 21 21 0 0 0 2.105 3.1c1.407-1.97 4.11-2.358 6.268-.942.632.415 1.101.993 1.49 1.587.275.42.536.89.786 1.341q.143.262.284.508c.703 1.236 1.437 2.286 2.707 2.827a.75.75 0 0 1 .254 1.202c-1.771 1.898-3.797 2.526-5.637 2.492-1.81-.034-3.415-.707-4.43-1.373-2.04-1.34-3.045-3.92-2.426-6.158a22 22 0 0 1-2.71-3.851.75.75 0 0 1 .289-1.021m3.742 6.22a4.31 4.31 0 0 0 1.928 3.556c.828.543 2.16 1.1 3.635 1.127 1.213.023 2.54-.31 3.8-1.344-1.162-.794-1.878-1.92-2.456-2.935q-.169-.298-.32-.574c-.24-.43-.458-.825-.7-1.195-.34-.517-.674-.902-1.059-1.155-1.668-1.095-3.57-.64-4.404.844a15 15 0 0 0 3.557 2.706.75.75 0 1 1-.714 1.319 16.3 16.3 0 0 1-3.267-2.348" clip-rule="evenodd" opacity=".4"/><path fill="currentColor" fill-rule="evenodd" d="M4.445 11.604a.75.75 0 0 0-.89-1.208c-.726.535-1.305 1.265-1.305 2.176q0 .136.017.268a1 1 0 0 0-.017.16c0 3.924 2.727 7.264 5.544 9.11.703.46 1.514.64 2.289.64h3.834c.775 0 1.586-.18 2.29-.64 2.816-1.846 5.543-5.186 5.543-9.11a1 1 0 0 0-.017-.16q.017-.132.017-.268c0-.91-.58-1.641-1.305-2.176a.75.75 0 0 0-.89 1.208c.553.407.695.746.695.968 0 .187-.096.45-.46.777-.362.327-.929.655-1.693.946-1.524.58-3.679.955-6.097.955s-4.573-.375-6.097-.955c-.764-.291-1.331-.62-1.694-.946-.363-.327-.459-.59-.459-.777 0-.222.143-.561.695-.968m15.494 3.476a8.7 8.7 0 0 1-1.308.617c-1.734.66-4.078 1.053-6.631 1.053s-4.897-.393-6.63-1.053a8.7 8.7 0 0 1-1.309-.617c.71 2.382 2.543 4.457 4.555 5.775.407.267.915.395 1.467.395h3.834c.552 0 1.06-.128 1.467-.395 2.012-1.318 3.845-3.393 4.555-5.775" clip-rule="evenodd"/></svg>