<svg xmlns="http://www.w3.org/2000/svg" fill="none" viewBox="0 0 24 24"><path fill="currentColor" fill-rule="evenodd" d="M2.25 6.5q0 .154.03.291A.8.8 0 0 0 2.25 7v10.161c0 1.12.817 1.866 1.823 2.47 1.019.61 2.517 1.243 4.41 2.043l.062.026.15.063c1.418.6 2.333.987 3.305.987a.75.75 0 0 0 .75-.75V11.678c.885-.166 1.805-.611 3.085-1.231l.166-.08 2.975-1.44c.477-.231.909-.44 1.274-.638V12a.75.75 0 0 0 1.5 0V7a.8.8 0 0 0-.03-.209q.03-.137.03-.291c0-.702-.485-1.148-.931-1.45-.446-.301-1.087-.611-1.843-.977l-2.975-1.44-.166-.08C14.193 1.758 13.144 1.25 12 1.25s-2.193.508-3.835 1.303L8 2.633 5.078 4.048l-.054.026c-.755.366-1.397.676-1.843.977-.446.302-.931.748-.931 1.45m2.774 2.427A33 33 0 0 1 3.75 8.29v8.872c0 .262.155.62 1.095 1.183.916.55 2.315 1.143 4.284 1.975 1.019.43 1.642.687 2.121.82v-9.46c-.885-.167-1.805-.612-3.085-1.232L8 10.367zM12 2.75c-.758 0-1.48.33-3.347 1.234L5.73 5.397c-.824.4-1.365.663-1.71.896-.148.1-.22.168-.253.207.033.039.105.107.253.207.345.233.886.497 1.71.896l2.922 1.413c1.867.904 2.59 1.234 3.347 1.234s1.48-.33 3.347-1.234l2.922-1.413c.824-.4 1.365-.663 1.71-.896.148-.1.22-.168.253-.207a1.3 1.3 0 0 0-.253-.207c-.345-.233-.886-.497-1.71-.896l-2.922-1.413C13.48 3.08 12.757 2.75 12 2.75m-5.664 8.58a.75.75 0 0 0-.671 1.341l2 1a.75.75 0 1 0 .67-1.342z" clip-rule="evenodd"/><path fill="currentColor" fill-rule="evenodd" d="M22.281 15.695a.75.75 0 0 0-.562-1.39c-.756.306-1.477.888-2.113 1.525-.644.646-1.248 1.398-1.763 2.103a29 29 0 0 0-1.062 1.563 3.7 3.7 0 0 0-.78-.843 2.1 2.1 0 0 0-.618-.335 1.5 1.5 0 0 0-.353-.067h-.016l-.007-.001H15a.75.75 0 0 0-.077 1.496.7.7 0 0 1 .17.1c.198.152.568.535.97 1.455a.75.75 0 0 0 1.343.063v-.002l.006-.009.022-.039.088-.153a28 28 0 0 1 1.532-2.344c.49-.67 1.043-1.355 1.614-1.928.581-.582 1.134-1 1.613-1.194M17.336 4.671a.75.75 0 0 0-.671-1.342l-10 5a.75.75 0 0 0 .67 1.342z" clip-rule="evenodd" opacity=".4"/></svg>