<svg xmlns="http://www.w3.org/2000/svg" fill="none" viewBox="0 0 24 24"><path fill="currentColor" fill-rule="evenodd" d="M3.25 10a8.75 8.75 0 0 1 17.5 0v10.4a2.35 2.35 0 1 1-4.7 0v-.8a.85.85 0 0 0-1.7 0v.8a2.35 2.35 0 1 1-4.7 0v-.8a.85.85 0 0 0-1.7 0v.8a2.35 2.35 0 1 1-4.7 0zM12 2.75A7.25 7.25 0 0 0 4.75 10v10.4a.85.85 0 0 0 1.7 0v-.8a2.35 2.35 0 1 1 4.7 0v.8a.85.85 0 0 0 1.7 0v-.8a2.35 2.35 0 1 1 4.7 0v.8a.85.85 0 0 0 1.7 0V10A7.25 7.25 0 0 0 12 2.75" clip-rule="evenodd"/><path fill="currentColor" fill-rule="evenodd" d="M8 10a1 1 0 0 1 1-1h.009a1 1 0 0 1 0 2H9a1 1 0 0 1-1-1m5.991 0a1 1 0 0 1 1-1H15a1 1 0 1 1 0 2h-.009a1 1 0 0 1-1-1" clip-rule="evenodd" opacity=".4"/></svg>