<svg xmlns="http://www.w3.org/2000/svg" fill="none" viewBox="0 0 24 24"><path fill="currentColor" fill-rule="evenodd" d="M8.368 1.469a.75.75 0 0 1 1.061.001L19.531 11.6a.75.75 0 0 1 0 1.059l-6.095 6.112c-.863.865-1.558 1.562-2.176 2.049-.639.504-1.272.847-2.023.915q-.339.03-.678 0c-.751-.068-1.384-.411-2.023-.915-.618-.488-1.313-1.184-2.176-2.05l-2.054-2.06a3.62 3.62 0 0 1 0-5.11l7.553-7.574L8.367 2.53a.75.75 0 0 1 .001-1.061m2.55 3.619-7.55 7.571a2.12 2.12 0 0 0 0 2.992l2.02 2.026c.905.907 1.537 1.54 2.076 1.965.526.414.886.568 1.23.599q.204.018.408 0c.344-.031.704-.185 1.23-.6.539-.424 1.171-1.056 2.076-1.964l5.533-5.548z" clip-rule="evenodd"/><path fill="currentColor" fill-rule="evenodd" d="M2.836 11.375a.75.75 0 0 0 0 1.5h16.163a.75.75 0 0 0 0-1.5zm17.68 5.08a.75.75 0 0 0-1.032 0l-.003.003-.005.006-.02.018a9 9 0 0 0-.31.312c-.196.204-.46.491-.727.817a8 8 0 0 0-.76 1.086c-.206.365-.409.83-.409 1.303a2.75 2.75 0 1 0 5.5 0c0-.473-.203-.938-.409-1.303a8 8 0 0 0-.76-1.086 14 14 0 0 0-1.037-1.129l-.02-.018-.005-.006zm-.935 2.105c.143-.175.288-.34.419-.483.131.143.276.308.42.483.235.289.456.592.614.873.17.301.216.488.216.567a1.25 1.25 0 1 1-2.5 0c0-.079.047-.266.216-.567a6.4 6.4 0 0 1 .615-.873" clip-rule="evenodd" opacity=".4"/></svg>