<svg xmlns="http://www.w3.org/2000/svg" fill="none" viewBox="0 0 24 24"><path fill="currentColor" fill-rule="evenodd" d="M17.513 2.49a2.3 2.3 0 0 1 2.046 0c.342.17.639.466.986.814l.075.076.075.075c.349.348.646.644.816.986a2.3 2.3 0 0 1 0 2.046c-.17.342-.467.638-.816.986l-.075.075L9.108 19.059l-.089.09c-.882.882-1.447 1.448-2.159 1.803-.711.356-1.503.47-2.738.645l-.125.018-.89.128a.75.75 0 0 1-.85-.85l.128-.89.018-.125c.176-1.235.289-2.027.645-2.738.355-.712.92-1.277 1.803-2.159l.09-.09L16.452 3.38l.075-.076c.348-.348.644-.645.986-.814m1.38 1.344a.8.8 0 0 0-.713 0c-.09.044-.2.14-.667.606L6.001 15.952C5 16.954 4.623 17.343 4.39 17.811c-.228.456-.315.976-.505 2.305 1.33-.19 1.85-.277 2.306-.505.467-.234.856-.61 1.858-1.612L19.56 6.487c.466-.466.562-.576.606-.666a.8.8 0 0 0 0-.714c-.044-.09-.14-.2-.606-.667-.467-.466-.576-.562-.667-.606" clip-rule="evenodd"/><path fill="currentColor" fill-rule="evenodd" d="M7.97 11.97a.75.75 0 0 1 1.06 0l3 3a.75.75 0 1 1-1.06 1.06l-3-3a.75.75 0 0 1 0-1.06m-2.5 2.5a.75.75 0 0 1 1.06 0l3 3a.75.75 0 1 1-1.06 1.06l-3-3a.75.75 0 0 1 0-1.06" clip-rule="evenodd" opacity=".4"/></svg>