<svg xmlns="http://www.w3.org/2000/svg" fill="none" viewBox="0 0 24 24"><path fill="currentColor" fill-rule="evenodd" d="M3.75 2a.75.75 0 0 0-1.5 0c0 4.255 1.033 8.143 2.743 10.993 1.55 2.582 3.725 4.408 6.257 4.712V22a.75.75 0 0 0 1.5 0v-4.295c2.532-.304 4.707-2.13 6.257-4.712C20.717 10.143 21.75 6.254 21.75 2a.75.75 0 0 0-1.5 0c0 4.03-.982 7.641-2.53 10.22-1.371 2.287-3.123 3.673-4.97 3.97V3.6l.07.085.116.138c.268.322.595.71 1.002 1.172a.75.75 0 0 0 1.124-.992c-.393-.446-.71-.823-.974-1.14l-.112-.135a31 31 0 0 0-.56-.66c-.342-.38-.77-.819-1.416-.819s-1.074.438-1.415.82c-.162.18-.348.403-.56.659l-.113.135a50 50 0 0 1-.975 1.14.75.75 0 0 0 1.126.992c.406-.461.733-.85 1.001-1.172l.116-.139.07-.084v12.59c-1.847-.297-3.599-1.683-4.97-3.97C4.731 9.642 3.75 6.03 3.75 2" clip-rule="evenodd"/><path fill="currentColor" fill-rule="evenodd" d="M1.25 20a.75.75 0 0 1 .75-.75h20a.75.75 0 0 1 0 1.5H2a.75.75 0 0 1-.75-.75" clip-rule="evenodd" opacity=".4"/></svg>