<svg xmlns="http://www.w3.org/2000/svg" fill="none" viewBox="0 0 24 24"><path fill="currentColor" fill-rule="evenodd" d="M13.81 1.36c.36-.22.82-.1 1.03.25.58.97.86 3.12-1.36 4.97-.32.26-.79.22-1.06-.1a.76.76 0 0 1 .1-1.06c1.62-1.35 1.25-2.67 1.03-3.03a.76.76 0 0 1 .26-1.03M5.97 9.97c.29-.29.77-.29 1.06 0l7 7c.29.29.29.77 0 1.06s-.77.29-1.06 0l-7-7a.755.755 0 0 1 0-1.06m-2 5c.29-.29.77-.29 1.06 0l4 4c.29.29.29.77 0 1.06s-.77.29-1.06 0l-4-4a.754.754 0 0 1 0-1.06m18.42-5.81c-.97-.58-3.12-.86-4.97 1.36-.26.32-.22.79.1 1.06.32.26.79.22 1.06-.1 1.35-1.62 2.67-1.25 3.03-1.03.36.21.82.09 1.03-.26.22-.36.1-.82-.25-1.03" clip-rule="evenodd" opacity=".4"/><path fill="currentColor" fill-rule="evenodd" d="M17.999 1.251c.41 0 .75.34.75.75v.02c0 .41-.34.75-.75.75s-.75-.34-.75-.75v-.02c0-.41.34-.75.75-.75m1.53 4.28c.29-.29.29-.77 0-1.06a.755.755 0 0 0-1.06 0l-3 3c-.29.29-.29.77 0 1.06s.77.29 1.06 0zm-4.7 5.57-1.93-1.93c-.94-.93-1.7-1.7-2.36-2.19-.69-.51-1.42-.85-2.26-.69-.84.15-1.4.73-1.86 1.45-.45.71-.89 1.69-1.42 2.9l-.03.06-1.5 3.37c-.9 2.03-1.61 3.64-1.96 4.86-.35 1.19-.45 2.36.38 3.18.82.83 1.99.73 3.18.38 1.22-.35 2.83-1.06 4.86-1.96l3.43-1.53c1.21-.53 2.19-.97 2.9-1.42.72-.46 1.3-1.02 1.45-1.86.16-.84-.18-1.57-.69-2.26-.49-.66-1.26-1.42-2.19-2.36m-6.28-3.34c.24-.04.54.01 1.09.42.57.42 1.25 1.11 2.24 2.1l1.84 1.84c.99.99 1.68 1.67 2.1 2.24.41.55.46.85.42 1.09-.05.24-.2.5-.79.87s-1.48.77-2.76 1.34l-3.31 1.47c-2.11.94-3.61 1.6-4.72 1.92-1.15.33-1.53.19-1.71 0-.19-.18-.33-.56 0-1.71.32-1.11.98-2.61 1.92-4.72l1.47-3.31c.57-1.28.97-2.17 1.34-2.76s.63-.74.87-.79m14.2-1.76c0-.41-.34-.75-.75-.75s-.75.34-.75.75v.02c0 .41.34.75.75.75s.75-.34.75-.75zm-1.75 6.25c.41 0 .75.34.75.75v.02c0 .41-.34.75-.75.75s-.75-.34-.75-.75v-.02c0-.41.34-.75.75-.75m-9.25-9.25c0-.41-.34-.75-.75-.75s-.75.34-.75.75v.02c0 .41.34.75.75.75s.75-.34.75-.75z" clip-rule="evenodd"/></svg>