<svg xmlns="http://www.w3.org/2000/svg" fill="none" viewBox="0 0 24 24"><path fill="currentColor" fill-rule="evenodd" d="M11.948 2.25h.104c2.313 0 4.118 0 5.525.17 1.43.173 2.564.534 3.46 1.34.908.818 1.324 1.867 1.522 3.191.191 1.281.191 2.918.191 4.987v.124c0 2.069 0 3.706-.191 4.987-.198 1.323-.614 2.373-1.522 3.19-.896.807-2.03 1.168-3.46 1.34-1.407.171-3.212.171-5.525.171h-.104c-2.313 0-4.118 0-5.524-.17-1.432-.173-2.565-.534-3.461-1.34-.908-.818-1.324-1.867-1.522-3.191-.191-1.281-.191-2.918-.191-4.986v-.126c0-2.068 0-3.705.191-4.986.198-1.324.614-2.373 1.522-3.19.896-.807 2.03-1.168 3.46-1.34 1.407-.171 3.212-.171 5.525-.171M6.604 3.91c-1.292.156-2.07.454-2.638.965-.556.501-.873 1.171-1.041 2.298C2.752 8.33 2.75 9.855 2.75 12s.002 3.67.175 4.827c.168 1.127.485 1.797 1.041 2.297.568.512 1.346.81 2.638.967 1.306.158 3.02.159 5.396.159s4.09-.001 5.396-.16c1.292-.156 2.07-.454 2.638-.965.556-.501.873-1.171 1.041-2.298.173-1.157.175-2.682.175-4.827s-.002-3.67-.175-4.827c-.168-1.127-.485-1.797-1.041-2.298-.568-.51-1.346-.81-2.638-.966-1.306-.158-3.02-.159-5.396-.159s-4.09.001-5.396.16" clip-rule="evenodd"/><path fill="currentColor" fill-rule="evenodd" d="M8.5 8.25a1.25 1.25 0 1 0 0 2.5 1.25 1.25 0 0 0 0-2.5M5.75 9.5a2.75 2.75 0 1 1 5.5 0 2.75 2.75 0 0 1-5.5 0m2.731 5.75c-1.24.019-2.353.61-2.802 1.568a.75.75 0 0 1-1.358-.636c.76-1.623 2.503-2.407 4.138-2.431 1.645-.025 3.418.716 4.22 2.431a.75.75 0 1 1-1.358.636c-.485-1.036-1.608-1.586-2.84-1.568M14.25 10a.75.75 0 0 1 .75-.75h4a.75.75 0 0 1 0 1.5h-4a.75.75 0 0 1-.75-.75m.75 3.25a.75.75 0 0 0 0 1.5h4a.75.75 0 0 0 0-1.5z" clip-rule="evenodd" opacity=".4"/></svg>