<svg xmlns="http://www.w3.org/2000/svg" fill="none" viewBox="0 0 24 24"><path fill="currentColor" fill-rule="evenodd" d="M20.095 9.317c-.483-.065-1.131-.067-2.095-.067H9.5a.75.75 0 1 1 0-1.5h8.552c.899 0 1.648 0 2.242.08.628.084 1.195.27 1.65.725.456.456.642 1.023.726 1.65.08.595.08 1.345.08 2.243v3.104c0 .899 0 1.648-.08 2.242-.084.628-.27 1.195-.726 1.65-.455.456-1.022.642-1.65.726-.594.08-1.343.08-2.242.08H8.948c-.898 0-1.648 0-2.242-.08-.628-.084-1.195-.27-1.65-.726-.456-.455-.642-1.022-.726-1.65-.08-.594-.08-1.343-.08-2.242V11a.75.75 0 0 1 1.5 0v4.5c0 .964.002 1.612.067 2.095.062.461.169.659.3.789s.327.237.788.3c.483.064 1.131.066 2.095.066h9c.964 0 1.612-.002 2.095-.067.461-.062.659-.169.789-.3s.237-.327.3-.788c.064-.483.066-1.131.066-2.095v-3c0-.964-.002-1.612-.067-2.095-.062-.461-.169-.659-.3-.789s-.327-.237-.788-.3" clip-rule="evenodd" opacity=".4"/><path fill="currentColor" fill-rule="evenodd" d="M2 3.75a.75.75 0 0 0 0 1.5h6.757a2.25 2.25 0 0 1 1.591.659L13.47 9.03a.75.75 0 1 0 1.06-1.06l-3.12-3.122A3.75 3.75 0 0 0 8.757 3.75zm0 9a.75.75 0 0 0 0 1.5h3a.75.75 0 0 0 0-1.5zm5.97-5.78a.75.75 0 0 1 1.06 0l2 2a2.164 2.164 0 1 1-3.06 3.06l-1.033-1.032a3.2 3.2 0 0 1-3.584-.17L3.05 10.6a.75.75 0 0 1 .9-1.2l.303.227c.675.507 1.62.44 2.217-.157a.75.75 0 0 1 1.06 0l1.5 1.5a.664.664 0 1 0 .94-.94l-2-2a.75.75 0 0 1 0-1.06M12.5 14a1 1 0 1 1 2 0 1 1 0 0 1-2 0m1-2.5a2.5 2.5 0 1 0 0 5 2.5 2.5 0 0 0 0-5" clip-rule="evenodd"/></svg>