<svg xmlns="http://www.w3.org/2000/svg" fill="none" viewBox="0 0 24 24"><path fill="currentColor" fill-rule="evenodd" d="M12 3.25a8.75 8.75 0 1 0 0 17.5 8.75 8.75 0 0 0 0-17.5M1.75 12C1.75 6.34 6.34 1.75 12 1.75S22.25 6.34 22.25 12 17.66 22.25 12 22.25 1.75 17.66 1.75 12" clip-rule="evenodd" opacity=".4"/><path fill="currentColor" fill-rule="evenodd" d="M2.5 11.25a.75.75 0 0 1 .75.75 8.75 8.75 0 1 0 17.5 0 .75.75 0 0 1 1.5 0c0 5.66-4.59 10.25-10.25 10.25S1.75 17.66 1.75 12a.75.75 0 0 1 .75-.75" clip-rule="evenodd"/></svg>