<svg xmlns="http://www.w3.org/2000/svg" fill="none" viewBox="0 0 24 24"><path fill="currentColor" fill-rule="evenodd" d="M12.25 2.763c-.167-.01-.408-.013-.794-.013-1.64 0-2.806.001-3.701.106-.88.102-1.4.296-1.795.614a3.3 3.3 0 0 0-.49.49c-.318.395-.512.916-.614 1.795-.105.895-.106 2.06-.106 3.701V13a.75.75 0 0 1-1.5 0V9.408c0-1.582 0-2.835.116-3.827.119-1.018.368-1.858.936-2.562a4.8 4.8 0 0 1 .717-.717c.704-.568 1.543-.817 2.562-.936.992-.116 2.245-.116 3.827-.116h.152c.604 0 1.08 0 1.527.157q.138.049.271.112c.428.205.764.542 1.19.969l.074.074 4.737 4.736.085.086c.495.493.886.884 1.097 1.392.21.509.21 1.062.21 1.76l-.001.121V13a.75.75 0 0 1-1.5 0v-2.343c0-.438-.003-.715-.017-.907h-.288c-1.367 0-2.47 0-3.337-.116-.9-.121-1.658-.38-2.26-.982s-.86-1.36-.982-2.26c-.116-.867-.116-1.97-.116-3.337zm1.501 1.049c.004 1.015.02 1.776.102 2.38.099.734.28 1.122.556 1.4.277.276.665.456 1.4.555.603.081 1.365.098 2.38.102z" clip-rule="evenodd" opacity=".4"/><path fill="currentColor" fill-rule="evenodd" d="M3.5 16a.75.75 0 0 1 .75-.75H6a2.5 2.5 0 0 1 0 5H5V22a.75.75 0 0 1-1.5 0zM5 18.75h1a1 1 0 1 0 0-2H5zM9.5 16a.75.75 0 0 1 .75-.75h1.5A2.75 2.75 0 0 1 14.5 18v2a2.75 2.75 0 0 1-2.75 2.75h-1.5A.75.75 0 0 1 9.5 22zm1.5.75v4.5h.75c.69 0 1.25-.56 1.25-1.25v-2c0-.69-.56-1.25-1.25-1.25zm4.5.25c0-.966.784-1.75 1.75-1.75h2.5a.75.75 0 0 1 0 1.5h-2.5A.25.25 0 0 0 17 17v1.25h2.25a.75.75 0 0 1 0 1.5H17V22a.75.75 0 0 1-1.5 0z" clip-rule="evenodd"/></svg>