<svg xmlns="http://www.w3.org/2000/svg" fill="none" viewBox="0 0 24 24"><path fill="currentColor" fill-rule="evenodd" d="m19.037 4.79-.042-.043c-.772-.772-1.411-1.411-1.982-1.834-.602-.446-1.24-.737-1.995-.647-1 .12-1.757.783-2.304 1.422-.417.487-.789 1.058-1.085 1.512q-.136.211-.25.38l1.242.84q.154-.229.309-.467c.285-.437.577-.884.924-1.29.471-.55.912-.856 1.34-.907.22-.026.475.029.926.362.47.349 1.031.907 1.857 1.732l.173.173c.825.826 1.383 1.386 1.732 1.857.333.45.388.706.362.925-.051.43-.356.87-.907 1.341-.406.347-.853.639-1.29.924q-.238.154-.468.31l.841 1.24.38-.25c.454-.295 1.025-.667 1.512-1.084.639-.547 1.302-1.304 1.421-2.304.09-.756-.2-1.393-.646-1.995-.423-.57-1.062-1.21-1.834-1.982zM9.53 12.88a.75.75 0 0 0-1.48.24c.073.457.23.897.477 1.293L3.47 19.47a.75.75 0 1 0 1.06 1.06l5.057-5.057c.397.246.836.404 1.293.478a.75.75 0 1 0 .24-1.48 1.9 1.9 0 0 1-1.063-.527 1.9 1.9 0 0 1-.527-1.064" clip-rule="evenodd" opacity=".4"/><path fill="currentColor" fill-rule="evenodd" d="M12 5.25a.75.75 0 0 1 .53.22l6 6a.75.75 0 0 1 0 1.06c-1.239 1.24-1.648 2.39-1.768 3.621l-.004.038c-.068.69-.124 1.26-.211 1.706-.09.454-.231.898-.553 1.249-.307.335-.69.514-1.099.639-.385.117-.869.207-1.433.312l-7.558 1.403c-.668.124-1.25.233-1.716.25-.495.018-1.033-.059-1.455-.48-.423-.423-.499-.96-.48-1.456.016-.465.125-1.048.249-1.716l1.403-7.559c.105-.564.195-1.048.312-1.433.125-.409.304-.792.64-1.1.35-.32.794-.463 1.248-.552.446-.087 1.017-.143 1.705-.21l.039-.004c1.232-.12 2.382-.53 3.62-1.768A.75.75 0 0 1 12 5.25m-.02 1.79c-1.318 1.122-2.626 1.558-3.985 1.69-.737.073-1.235.123-1.601.194-.367.072-.48.147-.524.187-.06.054-.133.15-.218.43-.09.295-.165.695-.28 1.31l-1.385 7.463c-.138.74-.223 1.212-.236 1.553-.005.161.008.25.02.295.01.032.017.04.022.044l.001.001c.005.005.012.012.044.021.046.013.134.026.295.02.34-.012.813-.097 1.552-.235l7.463-1.386c.616-.114 1.015-.19 1.31-.28.28-.084.377-.158.43-.217.04-.043.115-.157.187-.524.072-.366.122-.864.194-1.601.133-1.36.569-2.667 1.69-3.984z" clip-rule="evenodd"/></svg>