<svg xmlns="http://www.w3.org/2000/svg" fill="none" viewBox="0 0 24 24"><path fill="currentColor" fill-rule="evenodd" d="M4.75 18.5a1.75 1.75 0 1 1 3.5 0 1.75 1.75 0 0 1-3.5 0m1.75 3.25A3.24 3.24 0 0 0 9 20.577a3.25 3.25 0 1 0 0-4.154 3.25 3.25 0 1 0-2.5 5.327m5-5a1.75 1.75 0 1 0 0 3.5 1.75 1.75 0 0 0 0-3.5M2 2.25a.75.75 0 0 0 0 1.5h18a.75.75 0 0 0 0-1.5zM17.75 18.5a1.75 1.75 0 1 1 3.5 0 1.75 1.75 0 0 1-3.5 0m1.75-3.25a3.25 3.25 0 1 0 0 6.5 3.25 3.25 0 0 0 0-6.5" clip-rule="evenodd"/><path fill="currentColor" fill-rule="evenodd" d="M17.737 2.858a.75.75 0 1 0-1.473.284l2.5 13a.75.75 0 0 0 1.473-.284zM6.5 2.25a.75.75 0 0 1 .75.75v13a.75.75 0 0 1-1.5 0V3a.75.75 0 0 1 .75-.75m5 0a.75.75 0 0 1 .75.75v13a.75.75 0 0 1-1.5 0V3a.75.75 0 0 1 .75-.75" clip-rule="evenodd" opacity=".4"/></svg>