<svg xmlns="http://www.w3.org/2000/svg" fill="none" viewBox="0 0 24 24"><path fill="currentColor" fill-rule="evenodd" d="M5.86 3.769c-.852-.082-1.382.104-1.684.407-.41.41-.599 1.251-.229 2.643.3 1.13.935 2.473 1.873 3.9a29 29 0 0 1 2.307-2.591 29 29 0 0 1 3.432-2.943c1.832-1.325 3.652-2.266 5.236-2.687 1.541-.41 3.092-.38 4.089.617.996.997 1.027 2.548.617 4.09-.387 1.456-1.214 3.114-2.376 4.795 1.162 1.681 1.99 3.338 2.376 4.795.41 1.541.38 3.093-.617 4.09-.74.74-1.795.943-2.888.84-1.098-.106-2.344-.527-3.636-1.182a.75.75 0 1 1 .678-1.338c1.194.605 2.253.945 3.1 1.026.852.081 1.382-.105 1.685-.408.41-.41.598-1.25.229-2.642-.3-1.13-.935-2.473-1.873-3.901a29 29 0 0 1-2.308 2.592 29 29 0 0 1-3.432 2.942c-1.83 1.326-3.651 2.267-5.235 2.688-1.541.41-3.092.379-4.089-.618-.997-.996-1.027-2.548-.618-4.089.388-1.457 1.215-3.114 2.377-4.795-1.162-1.681-1.99-3.339-2.377-4.796-.41-1.54-.379-3.092.618-4.089.74-.74 1.795-.944 2.888-.84 1.098.105 2.344.527 3.635 1.181a.75.75 0 0 1-.678 1.338C7.767 4.19 6.707 3.85 5.86 3.77m-.04 9.511c-.938 1.428-1.573 2.771-1.873 3.9-.37 1.392-.182 2.233.229 2.643.41.41 1.25.599 2.643.23 1.13-.301 2.472-.936 3.9-1.874a29 29 0 0 1-2.592-2.307A29 29 0 0 1 5.82 13.28M12 17.273a28 28 0 0 0 2.81-2.462A28 28 0 0 0 17.274 12a28 28 0 0 0-2.462-2.812A28 28 0 0 0 12 6.727a28 28 0 0 0-2.81 2.461A28 28 0 0 0 6.725 12a28 28 0 0 0 2.462 2.811c.925.925 1.874 1.75 2.811 2.462M13.28 5.82c.87.686 1.742 1.458 2.591 2.308s1.623 1.721 2.308 2.592c.938-1.428 1.573-2.771 1.873-3.901.37-1.392.181-2.233-.229-2.643s-1.251-.598-2.643-.229c-1.13.3-2.472.935-3.9 1.873" clip-rule="evenodd"/><path fill="currentColor" fill-rule="evenodd" d="M12 10.75a1.25 1.25 0 1 0 0 2.5 1.25 1.25 0 0 0 0-2.5M9.25 12a2.75 2.75 0 1 1 5.5 0 2.75 2.75 0 0 1-5.5 0" clip-rule="evenodd" opacity=".4"/></svg>