<svg xmlns="http://www.w3.org/2000/svg" fill="none" viewBox="0 0 24 24"><path fill="currentColor" d="M21 11.75h-3.703c-1.55 0-2.488 0-3.268-.658-.737-.62-1.034-1.544-1.625-3.383l-1.118-3.48a.749.749 0 1 1 1.428-.458l1.118 3.48c.487 1.516.756 2.352 1.163 2.695.348.293.922.305 2.302.305H21a.75.75 0 0 1 0 1.5z" opacity=".4"/><path fill="currentColor" fill-rule="evenodd" d="M17 14.25c1.255 0 2.316.845 2.645 1.996.808-.01 1.142-.053 1.319-.244l.006-.007.02-.024c.167-.199.227-.603.248-1.221H21a.75.75 0 0 1 0-1.5h.25c-.001-.942-.014-1.44-.17-1.777-.162-.348-.478-.596-1.413-1.273-.992-.72-1.75-1.562-2.456-2.73l-.003-.006c-.844-1.397-1.268-2.098-1.791-2.411-.482-.288-1.13-.303-2.667-.303v11.499h1.604A2.756 2.756 0 0 1 17 14.25m-5-11a.75.75 0 0 0-.75.75v6.25H2.008a.75.75 0 0 0-.75.75v4.711c0 .648.57 1.233 1.742 1.787.3.142.636.219.996.228l.354.01A2.756 2.756 0 0 0 7 19.75c1.256 0 2.32-.848 2.646-2.001h4.708A2.756 2.756 0 0 0 17 19.75c1.257 0 2.32-.849 2.647-2.003 1.144-.014 1.845-.108 2.423-.731l.075-.087c.542-.646.598-1.482.604-2.896L22.75 14v-.489c0-1.291 0-2.003-.31-2.67-.34-.731-.925-1.155-1.893-1.856-.833-.604-1.447-1.289-2.052-2.291-.974-1.614-1.463-2.424-2.308-2.929-.862-.515-1.795-.515-3.488-.515zM4.358 16.235A2.76 2.76 0 0 1 7 14.25c1.256 0 2.318.847 2.646 1.999h1.604V11.75H2.758v3.837c.096.098.36.306.884.555q.165.078.394.084zM17 15.75c-.689 0-1.25.561-1.25 1.25s.561 1.25 1.25 1.25 1.25-.561 1.25-1.25-.561-1.25-1.25-1.25M5.75 17c0-.689.561-1.25 1.25-1.25s1.25.561 1.25 1.25-.561 1.25-1.25 1.25-1.25-.561-1.25-1.25" clip-rule="evenodd"/></svg>