<svg xmlns="http://www.w3.org/2000/svg" fill="none" viewBox="0 0 24 24"><path fill="currentColor" fill-rule="evenodd" d="M1.25 12c0 5.93 4.82 10.75 10.75 10.75S22.75 17.93 22.75 12 17.93 1.25 12 1.25 1.25 6.07 1.25 12m1.5 0c0-5.1 4.15-9.25 9.25-9.25S21.25 6.9 21.25 12 17.1 21.25 12 21.25 2.75 17.1 2.75 12m3.5 0c0 3.17 2.58 5.75 5.75 5.75s5.75-2.58 5.75-5.75S15.17 6.25 12 6.25 6.25 8.83 6.25 12m1.5 0A4.26 4.26 0 0 1 12 7.75 4.26 4.26 0 0 1 16.25 12 4.26 4.26 0 0 1 12 16.25 4.26 4.26 0 0 1 7.75 12" clip-rule="evenodd" opacity=".4"/><path fill="currentColor" fill-rule="evenodd" d="M20.12 17.8c.13.09.28.14.43.14.05 0 .1-.01.15-.02.21-.04.38-.16.49-.34A10.751 10.751 0 0 0 12 1.25C6.07 1.25 1.25 6.07 1.25 12c0 1.98.54 3.9 1.56 5.58.11.17.29.3.49.34s.41 0 .58-.12l4.11-2.88c.31-.22.41-.63.24-.96-.32-.61-.48-1.27-.48-1.96A4.26 4.26 0 0 1 12 7.75 4.26 4.26 0 0 1 16.25 12c0 .69-.16 1.35-.48 1.96-.17.33-.07.74.24.96zM12.75 6.301A5.76 5.76 0 0 1 17.73 12c0 .7-.13 1.4-.38 2.05h.02l2.92 2.05c.62-1.27.95-2.67.95-4.09 0-4.844-3.744-8.831-8.49-9.22zm-1.5-3.512v3.507A5.76 5.76 0 0 0 6.23 12c0 .7.13 1.4.38 2.05L3.69 16.1a9.3 9.3 0 0 1-.95-4.09c0-4.85 3.755-8.842 8.51-9.22" clip-rule="evenodd"/></svg>