<svg xmlns="http://www.w3.org/2000/svg" fill="none" viewBox="0 0 24 24"><path fill="currentColor" fill-rule="evenodd" d="M11.25 2.78a9.25 9.25 0 0 0 0 18.44zm1.5 8.47V2a.75.75 0 0 0-.75-.75C6.063 1.25 1.25 6.063 1.25 12S6.063 22.75 12 22.75 22.75 17.937 22.75 12a.75.75 0 0 0-.75-.75zm0 1.5v8.47a9.25 9.25 0 0 0 8.47-8.47z" clip-rule="evenodd"/><path fill="currentColor" fill-rule="evenodd" d="M11.25 2a.75.75 0 0 1 .75-.75c5.937 0 10.75 4.813 10.75 10.75a.75.75 0 0 1-.75.75H12a.75.75 0 0 1-.75-.75zm1.5.78v8.47h8.47a9.25 9.25 0 0 0-8.47-8.47" clip-rule="evenodd" opacity=".4"/></svg>