<svg xmlns="http://www.w3.org/2000/svg" fill="none" viewBox="0 0 24 24"><path fill="currentColor" fill-rule="evenodd" d="M12 3.75a3.25 3.25 0 1 0 0 6.5 3.25 3.25 0 0 0 0-6.5M7.25 7a4.75 4.75 0 1 1 5.5 4.691V18a.75.75 0 0 1-1.5 0v-6.309A4.75 4.75 0 0 1 7.25 7" clip-rule="evenodd" opacity=".4"/><path fill="currentColor" fill-rule="evenodd" d="M7 18.25a.75.75 0 0 1 .75.75c0 .005 0 .084.158.234.161.152.435.324.835.484.796.318 1.947.532 3.257.532s2.46-.214 3.257-.532c.4-.16.674-.332.835-.484.158-.15.158-.23.158-.234a.75.75 0 0 1 1.5 0c0 .549-.281.996-.628 1.323-.344.326-.803.586-1.308.788-1.014.405-2.362.639-3.814.639s-2.8-.234-3.814-.64c-.505-.201-.964-.46-1.308-.787-.347-.327-.628-.774-.628-1.323a.75.75 0 0 1 .75-.75" clip-rule="evenodd"/></svg>