<svg xmlns="http://www.w3.org/2000/svg" fill="none" viewBox="0 0 24 24"><path fill="currentColor" fill-rule="evenodd" d="M10.534 2.25h2.932c2.434 0 4.352 0 5.764.218 1.435.222 2.58.702 3.18 1.862.592 1.147.352 2.385-.254 3.745-.6 1.346-1.65 3.014-2.991 5.141l-2.315 3.672c-.93 1.476-1.674 2.655-2.36 3.458-.702.82-1.474 1.404-2.49 1.404-1.015 0-1.788-.584-2.489-1.404-.687-.803-1.43-1.982-2.36-3.458l-2.315-3.672c-1.34-2.127-2.392-3.795-2.992-5.141C1.24 6.715 1 5.477 1.591 4.33c.6-1.16 1.744-1.64 3.18-1.862 1.412-.218 3.33-.218 5.763-.218M5 3.95c-1.276.197-1.81.554-2.076 1.068-.272.527-.259 1.213.29 2.447.55 1.235 1.542 2.812 2.927 5.008l2.244 3.56c.973 1.544 1.659 2.628 2.266 3.338.6.702.993.879 1.35.879.355 0 .748-.177 1.349-.88.607-.709 1.293-1.793 2.266-3.337l2.244-3.56c1.384-2.196 2.376-3.773 2.926-5.008s.563-1.92.29-2.447c-.265-.514-.8-.87-2.075-1.068-1.284-.198-3.085-.2-5.606-.2h-2.79c-2.52 0-4.321.002-5.605.2" clip-rule="evenodd"/><path fill="currentColor" fill-rule="evenodd" d="M7 14.25h10.182v1.5H7zm-4-6h18v1.5H3z" clip-rule="evenodd" opacity=".4"/></svg>