<svg xmlns="http://www.w3.org/2000/svg" fill="none" viewBox="0 0 24 24"><path fill="currentColor" fill-rule="evenodd" d="m4.03 3.03-.746-.067v.006l-.002.012-.003.041-.01.148a14 14 0 0 0 .063 2.253c.146 1.308.544 3.038 1.677 4.17a3.95 3.95 0 0 0 4.627.706l.033.056c.169.28.4.714.635 1.298.467 1.169.946 2.95.946 5.346a.75.75 0 0 0 1.5 0c0-2.602-.521-4.571-1.054-5.903a10.6 10.6 0 0 0-.74-1.513 7 7 0 0 0-.143-.228 3.95 3.95 0 0 0-.22-5.346c-1.132-1.133-2.862-1.531-4.17-1.677a14 14 0 0 0-2.401-.053l-.041.003-.012.001h-.005zm.72.72c-.004.394.009.926.073 1.507.138 1.237.493 2.523 1.246 3.276a2.45 2.45 0 1 0 3.464-3.464c-.753-.753-2.039-1.108-3.276-1.246a13 13 0 0 0-1.506-.072m-.72-.72-.066-.746a.75.75 0 0 0-.68.68z" clip-rule="evenodd" opacity=".4"/><path fill="currentColor" fill-rule="evenodd" d="M18.077 6.812c-1.055.117-2.126.42-2.744 1.037a1.992 1.992 0 1 0 2.818 2.817c.618-.617.92-1.688 1.037-2.743.049-.443.063-.852.062-1.173-.32 0-.73.013-1.173.062m2.644-.853-.747.067zm-.68-.68h-.015l-.037-.004-.129-.008a12 12 0 0 0-1.949.055c-1.126.124-2.64.469-3.638 1.467a3.49 3.49 0 0 0-.482 4.338q-.096.09-.22.219c-.26.268-.603.663-.945 1.175a8.1 8.1 0 0 0-1.343 3.749 12.8 12.8 0 0 0-8.841 4.23.75.75 0 0 0 1.116 1 11.3 11.3 0 0 1 8.436-3.75h.012a11.3 11.3 0 0 1 8.436 3.75.75.75 0 0 0 1.116-1 12.8 12.8 0 0 0-8.767-4.226 6.6 6.6 0 0 1 1.083-2.92 7 7 0 0 1 .974-1.161 3.49 3.49 0 0 0 4.363-.466c.998-.998 1.343-2.513 1.468-3.638a12 12 0 0 0 .046-2.078l-.003-.036-.001-.011v-.005a.75.75 0 0 0-.68-.68m-.067.747.067-.747z" clip-rule="evenodd"/></svg>