<svg xmlns="http://www.w3.org/2000/svg" fill="none" viewBox="0 0 24 24"><path fill="currentColor" fill-rule="evenodd" d="M11.557 1.25h-.114c-2.19 0-3.912 0-5.255.18-1.377.186-2.469.573-3.327 1.43-.858.86-1.245 1.951-1.43 3.328-.181 1.343-.181 3.064-.181 5.255v.114c0 2.19 0 3.912.18 5.255.186 1.377.573 2.469 1.43 3.327.86.858 1.951 1.245 3.328 1.43 1.343.181 3.064.181 5.255.181H12a.75.75 0 1 0 0-1.5h-.5c-2.26 0-3.88-.002-5.112-.167-1.21-.163-1.933-.471-2.466-1.005s-.842-1.256-1.005-2.466C2.752 15.38 2.75 13.76 2.75 11.5c0-1.511 0-2.736.05-3.75h17.4c.05 1.014.05 2.239.05 3.75v.289l-.002.207a.75.75 0 0 0 1.5.008l.001-.197v-.033l.001-.037v-.294c0-2.19 0-3.912-.18-5.255-.186-1.377-.573-2.469-1.43-3.327-.86-.858-1.951-1.245-3.328-1.43-1.343-.181-3.064-.181-5.255-.181m8.506 5c-.167-1.128-.472-1.816-.985-2.328-.503-.504-1.175-.807-2.267-.976L14.83 6.25zm-6.983 0 2.072-3.454c-.995-.045-2.19-.046-3.652-.046q-.844 0-1.573.003L7.83 6.25zm-7 0H2.937c.167-1.128.472-1.816.985-2.328.533-.533 1.256-.842 2.466-1.005a18 18 0 0 1 1.772-.134zm15.464 5.007-.003-.004.004.005.002.002zm-1.011 1.103-.005-.004-.034-.029zm-.041-.036-.033-.032-.004-.004.004.004z" clip-rule="evenodd"/><path fill="currentColor" fill-rule="evenodd" d="M18 14.79c-.773-.55-2.02-.852-3.37-.047-1.006.6-1.528 1.824-1.344 3.158.186 1.344 1.068 2.786 2.811 4.04l.074.054c.554.4 1.047.755 1.829.755.78 0 1.274-.355 1.828-.755l.074-.053c1.743-1.255 2.625-2.697 2.81-4.041.185-1.334-.337-2.558-1.343-3.158-1.35-.805-2.596-.503-3.37.046m-.856 1.231c-.355-.258-.966-.455-1.745.01-.402.24-.743.82-.627 1.665.116.835.697 1.946 2.202 3.028.652.47.769.526 1.026.526s.374-.057 1.026-.526c1.504-1.082 2.086-2.193 2.2-3.028.117-.845-.224-1.426-.625-1.665-.78-.465-1.391-.268-1.745-.01l-.016.012c-.102.074-.205.15-.292.205-.047.03-.111.068-.186.101a.9.9 0 0 1-.362.08.9.9 0 0 1-.363-.08 1.4 1.4 0 0 1-.186-.101 6 6 0 0 1-.292-.205z" clip-rule="evenodd" opacity=".4"/></svg>