<svg xmlns="http://www.w3.org/2000/svg" fill="none" viewBox="0 0 24 24"><path fill="currentColor" fill-rule="evenodd" d="M2 2.25a.75.75 0 0 0 0 1.5h18a.75.75 0 0 0 0-1.5zm0 7a.75.75 0 0 0 0 1.5h13a.75.75 0 0 0 0-1.5z" clip-rule="evenodd" opacity=".4"/><path fill="currentColor" fill-rule="evenodd" d="M18.866 9.572A.75.75 0 0 0 17.5 10v6.037a3.95 3.95 0 0 0-2.375-.787c-2.111 0-3.875 1.65-3.875 3.75s1.764 3.75 3.875 3.75S19 21.1 19 19v-6.14c.624.679 1.532 1.265 2.881 1.48a.75.75 0 1 0 .238-1.48c-1.265-.203-1.927-.814-2.339-1.431a5.6 5.6 0 0 1-.498-.97l-.072-.175c-.04-.097-.08-.195-.114-.274a2.5 2.5 0 0 0-.23-.438m-3.741 7.178c1.34 0 2.375 1.036 2.375 2.25s-1.034 2.25-2.375 2.25S12.75 20.214 12.75 19s1.034-2.25 2.375-2.25M2 16.25a.75.75 0 1 0 0 1.5h7a.75.75 0 0 0 0-1.5z" clip-rule="evenodd"/></svg>