<svg xmlns="http://www.w3.org/2000/svg" fill="none" viewBox="0 0 24 24"><path fill="currentColor" fill-rule="evenodd" d="m17.185 7.85.296.184c.243.147.555.38.867.614l.105.08c.296.221.61.458.93.681.36.252.705.473 1.012.629.327.166.524.212.61.212H22a.75.75 0 0 1 0 1.5h-.995c-.45 0-.909-.182-1.288-.374-.4-.203-.812-.47-1.194-.738-.342-.24-.678-.491-.971-.712l-.105-.078a11 11 0 0 0-.745-.532l-.367-.226c-.418-.26-.79-.492-1.186-.655-.475-.196-.883-.246-1.294-.103-.228.08-.548.28-.931.601-.371.31-.752.69-1.1 1.066l-.228.251H14a.75.75 0 0 1 0 1.5H3.75a1 1 0 1 0 0 2H9.5a.75.75 0 0 1 .75.783c-.072 1.604.307 4.335 2.24 6.256.42.416 1.167.553 2.181.401.978-.146 1.995-.533 2.694-.868.175-.084.365-.189.586-.312l.032-.018c.205-.115.434-.244.67-.361.482-.241 1.085-.49 1.729-.49H22a.75.75 0 0 1 0 1.5h-1.618c-.282 0-.626.115-1.059.332-.203.101-.405.214-.618.333l-.022.013c-.214.12-.445.248-.67.356-.777.372-1.943.822-3.12.999-1.14.17-2.518.115-3.46-.82-2.047-2.035-2.622-4.74-2.685-6.604H3.75a2.5 2.5 0 0 1 0-5h5.884c.234-.294.626-.77 1.089-1.27.372-.402.8-.831 1.238-1.197.425-.356.913-.698 1.401-.868.872-.303 1.677-.148 2.358.133.523.215 1.035.534 1.465.803" clip-rule="evenodd"/><path fill="currentColor" fill-rule="evenodd" d="M5.038 1.477a.75.75 0 0 0-1.06-.015 9 9 0 0 1-.605.495c-.242.19-.526.413-.797.643a7 7 0 0 0-.827.797 2.7 2.7 0 0 0-.324.46 1.4 1.4 0 0 0-.175.643c0 .258.089.48.175.642.09.168.206.323.324.461a7 7 0 0 0 .827.797c.27.23.555.453.797.643l.06.047q.407.318.544.448a.75.75 0 1 0 1.046-1.076 10 10 0 0 0-.664-.551l-.057-.045a26 26 0 0 1-.764-.616H8a.75.75 0 0 0 0-1.5H3.538l.007-.006c.249-.21.512-.417.757-.61l.057-.045c.245-.192.502-.394.664-.551a.75.75 0 0 0 .015-1.06" clip-rule="evenodd" opacity=".4"/></svg>