<svg xmlns="http://www.w3.org/2000/svg" fill="none" viewBox="0 0 24 24"><path fill="currentColor" fill-rule="evenodd" d="M6.815 7.85q-.155.098-.296.184c-.243.147-.555.38-.867.614l-.105.08c-.296.221-.61.458-.93.681-.36.252-.705.473-1.012.629-.327.166-.524.212-.61.212H2a.75.75 0 0 0 0 1.5h.995c.45 0 .909-.182 1.288-.374.4-.203.812-.47 1.194-.738.342-.24.678-.491.971-.712l.105-.078c.33-.249.578-.431.745-.532q.19-.116.366-.226c.42-.26.792-.492 1.187-.655.475-.196.883-.246 1.294-.103.228.08.548.28.931.601.371.31.752.69 1.1 1.066l.228.251H10a.75.75 0 0 0 0 1.5h10.25a1 1 0 1 1 0 2H14.5a.75.75 0 0 0-.75.783c.072 1.604-.307 4.335-2.24 6.256-.42.416-1.167.553-2.181.401-.978-.146-1.995-.533-2.694-.868a11 11 0 0 1-.586-.312l-.031-.018c-.206-.115-.435-.244-.67-.361-.483-.241-1.086-.49-1.73-.49H2a.75.75 0 0 0 0 1.5h1.618c.282 0 .626.115 1.059.332.203.101.405.214.618.333l.022.013c.214.12.445.248.67.356.777.372 1.943.822 3.12.999 1.14.17 2.518.115 3.46-.82 2.047-2.035 2.622-4.74 2.685-6.604h4.998a2.5 2.5 0 0 0 0-5h-5.884a23 23 0 0 0-1.089-1.27c-.372-.402-.8-.831-1.238-1.197-.425-.356-.913-.698-1.401-.868-.872-.303-1.677-.148-2.358.133-.523.215-1.035.534-1.465.803" clip-rule="evenodd"/><path fill="currentColor" fill-rule="evenodd" d="M18.962 1.477a.75.75 0 0 1 1.06-.015c.092.089.274.235.545.448q.03.022.06.047c.242.19.526.413.797.643.291.246.593.521.828.797.117.138.233.293.323.46.086.162.175.385.175.643s-.089.48-.175.642c-.09.168-.206.323-.323.461a7.4 7.4 0 0 1-.828.797c-.27.23-.555.453-.797.643l-.06.047a9 9 0 0 0-.544.448.75.75 0 1 1-1.046-1.076 9 9 0 0 1 .72-.596c.246-.193.51-.4.758-.61l.007-.006H16a.75.75 0 0 1 0-1.5h4.462l-.007-.006a26 26 0 0 0-.814-.655 9 9 0 0 1-.664-.551.75.75 0 0 1-.015-1.06" clip-rule="evenodd" opacity=".4"/></svg>