<svg xmlns="http://www.w3.org/2000/svg" fill="none" viewBox="0 0 24 24"><path fill="currentColor" fill-rule="evenodd" d="M6 22.781H3c-.569 0-1.018 0-1.384-.367-.366-.365-.366-.814-.366-1.383v-5c0-2.024 0-3.139.806-3.944s1.921-.806 3.944-.806a.75.75 0 0 1 0 1.5c-1.746 0-2.532.015-2.884.366-.352.352-.366 1.138-.366 2.884v5.006l.001.243.243.001H6a.75.75 0 0 1 0 1.5m15 0h-3a.75.75 0 0 1 0-1.5h3.249l.001-.244V16.03c0-1.746-.015-2.532-.366-2.884-.351-.35-1.138-.366-2.884-.366a.75.75 0 0 1 0-1.5c2.024 0 3.139 0 3.944.806s.806 1.921.806 3.944v5c0 .57 0 1.018-.366 1.383-.366.367-.816.367-1.384.367m-9.75-.75a.75.75 0 0 0 1.5 0v-3a.75.75 0 0 0-1.5 0z" clip-rule="evenodd" opacity=".4"/><path fill="currentColor" fill-rule="evenodd" d="M11.74 11.737a.77.77 0 0 0 .52 0c1.779-.657 3.112-1.963 3.859-3.777.187.085.34.191.47.323.662.67.662 2 .662 4.65v8.349h-10.5v-8.348c0-2.65 0-3.98.662-4.65a1.6 1.6 0 0 1 .469-.322c.615 1.513 1.773 3.005 3.858 3.775M7.445 6.52c-.22-1.054-.221-2.002-.147-2.58a.75.75 0 0 1 .744-.655c2.398 0 3.26-1.536 3.295-1.6a.749.749 0 0 1 1.329.007c.032.058.894 1.593 3.292 1.593a.75.75 0 0 1 .744.654c.084.65.07 1.58-.142 2.58a3.1 3.1 0 0 1 1.096.71c1.096 1.108 1.096 2.645 1.096 5.705v9.098a.75.75 0 0 1-.75.75H6a.75.75 0 0 1-.75-.75v-9.097c0-3.061 0-4.597 1.096-5.705a3.1 3.1 0 0 1 1.1-.71m1.562.099a7.2 7.2 0 0 1-.257-1.87c1.615-.169 2.651-.897 3.25-1.502.6.605 1.636 1.332 3.25 1.501 0 .533-.071 1.192-.257 1.872a.75.75 0 0 0-.123.401q-.061.179-.134.356c-.553 1.352-1.472 2.31-2.736 2.85-1.264-.54-2.183-1.498-2.736-2.85a7 7 0 0 1-.131-.351.75.75 0 0 0-.126-.407M15 15.78h-1.2a.75.75 0 0 1 0-1.5H15a.75.75 0 0 1 0 1.5m-4.8 0H9a.75.75 0 0 1 0-1.5h1.2a.75.75 0 0 1 0 1.5" clip-rule="evenodd"/></svg>