<svg xmlns="http://www.w3.org/2000/svg" fill="none" viewBox="0 0 24 24"><path fill="currentColor" d="M19.996 14.751H4.007a.74.74 0 0 1-.373-.1C2.617 14.067.83 12.258 1.345 9.592 1.54 8.59 2.477 7.48 4.211 6.199c1.171-.864 2.687-1.796 4.506-2.77 1.418-.76 2.2-1.179 3.284-1.179s1.865.419 3.284 1.179c1.82.974 3.335 1.905 4.506 2.77 1.735 1.281 2.672 2.39 2.866 3.393.516 2.666-1.27 4.475-2.288 5.059a.75.75 0 0 1-.373.1m-15.766-1.5h15.543c.461-.328 1.783-1.455 1.412-3.373-.08-.416-.795-2.015-6.608-5.125-1.283-.688-1.869-1.001-2.576-1.001s-1.293.314-2.576 1.001c-5.813 3.111-6.527 4.71-6.608 5.125-.37 1.914.955 3.046 1.413 3.373" opacity=".4"/><path fill="currentColor" fill-rule="evenodd" d="M11.77 11.714a.76.76 0 0 0 .469 0c1.58-.521 2.223-2.097 2.465-2.99.175-.642-.126-1.322-.732-1.652l-1.106-.601a1.8 1.8 0 0 0-1.725 0l-1.106.601c-.606.33-.907 1.01-.732 1.651.243.893.885 2.47 2.466 2.99m.234-1.524c-.728-.377-1.082-1.253-1.239-1.806h.001l1.093-.595a.3.3 0 0 1 .291 0l1.093.595c-.157.552-.51 1.43-1.239 1.806m-1.237 11.345c.542.134.87.215 1.237.215l-.001.001c.361 0 .667-.075 1.216-.21l.022-.005c1.208-.298 3.548-.88 5.645-1.426 1.468-.384 2.449-1.306 2.763-2.597.342-1.408-.187-3.082-1.287-4.071a.75.75 0 0 0-.501-.192H4.145a.75.75 0 0 0-.501.192c-1.1.989-1.629 2.663-1.287 4.071.314 1.292 1.295 2.214 2.763 2.597 2.097.546 4.437 1.127 5.645 1.425zm.357-1.456a482 482 0 0 1-5.625-1.421H5.5c-.935-.244-1.501-.748-1.684-1.499-.191-.783.083-1.771.642-2.409H19.55c.559.638.832 1.626.642 2.409-.183.751-.749 1.255-1.684 1.499a462 462 0 0 1-5.625 1.421c-.495.122-.702.171-.88.171s-.385-.049-.879-.171" clip-rule="evenodd"/></svg>