<svg xmlns="http://www.w3.org/2000/svg" fill="none" viewBox="0 0 24 24"><path fill="currentColor" fill-rule="evenodd" d="M19.712 2.763a.75.75 0 0 1-.475.949l-.265.088c-.676.225-1.123.376-1.453.529-.312.145-.447.262-.533.382s-.155.285-.194.626c-.04.361-.042.833-.042 1.546V17a.75.75 0 0 1-1.5 0V6.842c0-.66 0-1.219.052-1.675.055-.484.176-.93.467-1.333.291-.404.675-.66 1.118-.865.416-.194.945-.37 1.571-.579l.04-.013.265-.088a.75.75 0 0 1 .948.474M6 18.25a.75.75 0 0 1 .729.573c.174.715 1.064 1.427 2.271 1.427s2.097-.712 2.271-1.427a.75.75 0 0 1 1.458 0c.174.715 1.064 1.427 2.271 1.427s2.097-.712 2.271-1.427a.75.75 0 0 1 1.458 0c.174.715 1.064 1.427 2.271 1.427h1a.75.75 0 0 1 0 1.5h-1c-1.147 0-2.273-.46-3-1.242-.727.782-1.853 1.242-3 1.242s-2.273-.46-3-1.242c-.727.782-1.853 1.242-3 1.242s-2.273-.46-3-1.242c-.727.782-1.853 1.242-3 1.242H2a.75.75 0 0 1 0-1.5h1c1.207 0 2.097-.712 2.271-1.427A.75.75 0 0 1 6 18.25m5.237-14.538a.75.75 0 0 0-.474-1.423l-.265.088-.04.013c-.626.209-1.155.385-1.571.579-.443.206-.827.46-1.118.865s-.412.849-.467 1.333c-.052.456-.052 1.014-.052 1.675V17a.75.75 0 0 0 1.5 0V6.883c0-.713.001-1.185.042-1.546.04-.341.108-.506.194-.626s.221-.237.533-.382c.33-.153.777-.304 1.453-.529z" clip-rule="evenodd"/><path fill="currentColor" fill-rule="evenodd" d="M7.25 7A.75.75 0 0 1 8 6.25h8a.75.75 0 0 1 0 1.5H8A.75.75 0 0 1 7.25 7m0 4a.75.75 0 0 1 .75-.75h8a.75.75 0 0 1 0 1.5H8a.75.75 0 0 1-.75-.75m0 4a.75.75 0 0 1 .75-.75h8a.75.75 0 0 1 0 1.5H8a.75.75 0 0 1-.75-.75" clip-rule="evenodd" opacity=".4"/></svg>