<svg xmlns="http://www.w3.org/2000/svg" fill="none" viewBox="0 0 24 24"><path fill="currentColor" fill-rule="evenodd" d="M7.5 3.25A4.25 4.25 0 0 0 3.25 7.5v9a4.25 4.25 0 0 0 4.25 4.25h9a4.25 4.25 0 0 0 4.25-4.25v-9a4.25 4.25 0 0 0-4.25-4.25zM1.75 7.5A5.75 5.75 0 0 1 7.5 1.75h9a5.75 5.75 0 0 1 5.75 5.75v9a5.75 5.75 0 0 1-5.75 5.75h-9a5.75 5.75 0 0 1-5.75-5.75z" clip-rule="evenodd"/><path fill="currentColor" fill-rule="evenodd" d="M10.57 7.171a3.68 3.68 0 0 1 3.075-.131c.843.346 1.357.986 1.658 1.586.297.593.41 1.189.437 1.556a.75.75 0 1 1-1.496.11 2.8 2.8 0 0 0-.282-.993c-.19-.377-.47-.7-.888-.872a2.18 2.18 0 0 0-1.81.075c-.521.271-.932.78-1.005 1.571-.066.716.32 1.488.84 1.846.196.134.484.225.896.272.308.035.636.041.99.042h.374a.75.75 0 0 1 0 1.5h-1.597a8.2 8.2 0 0 1-1.241 1.999h3.798c.116.002.232.003.405-.033.201-.041.492-.14.86-.386a.75.75 0 1 1 .835 1.246c-.527.354-.998.528-1.392.61-.344.07-.62.065-.737.063H8.466a.75.75 0 0 1-.346-1.416c.645-.335 1.208-.93 1.641-1.56q.186-.272.327-.523H7.996a.75.75 0 0 1 0-1.5h1.365c-.435-.663-.67-1.489-.596-2.298.121-1.313.846-2.263 1.805-2.764" clip-rule="evenodd" opacity=".4"/></svg>