<svg xmlns="http://www.w3.org/2000/svg" fill="none" viewBox="0 0 24 24"><path fill="currentColor" fill-rule="evenodd" d="M12 6.75a5.25 5.25 0 1 0 0 10.5 5.25 5.25 0 0 0 0-10.5M5.25 12a6.75 6.75 0 1 1 13.5 0 6.75 6.75 0 0 1-13.5 0" clip-rule="evenodd" opacity=".4"/><path fill="currentColor" fill-rule="evenodd" d="M12.051 1.75h-.102c-2.072 0-3.695 0-4.973.155-1.306.159-2.351.49-3.21 1.223a6 6 0 0 0-.638.638c-.734.859-1.064 1.904-1.223 3.21-.155 1.278-.155 2.901-.155 4.973v.102c0 2.072 0 3.695.155 4.973.159 1.306.49 2.351 1.223 3.21q.293.345.638.638c.859.734 1.904 1.064 3.21 1.223 1.278.155 2.901.155 4.973.155h.102c2.072 0 3.695 0 4.973-.155 1.306-.159 2.351-.49 3.21-1.223q.345-.293.638-.638c.734-.859 1.064-1.904 1.223-3.21.155-1.278.155-2.901.155-4.973v-.102c0-2.072 0-3.695-.155-4.973-.159-1.306-.49-2.351-1.223-3.21a6 6 0 0 0-.638-.638c-.859-.734-1.904-1.064-3.21-1.223-1.278-.155-2.901-.155-4.973-.155M4.74 4.268c.544-.464 1.257-.733 2.417-.874C8.334 3.251 9.867 3.25 12 3.25s3.666.001 4.843.144c1.16.141 1.873.41 2.417.874q.255.218.472.472c.464.544.733 1.257.874 2.417.143 1.177.144 2.71.144 4.843s-.001 3.666-.144 4.843c-.141 1.16-.41 1.873-.874 2.417a4 4 0 0 1-.472.472c-.544.464-1.257.733-2.417.874-1.177.143-2.71.144-4.843.144s-3.666-.001-4.843-.144c-1.16-.141-1.873-.41-2.417-.874a4 4 0 0 1-.472-.472c-.464-.544-.733-1.257-.874-2.417-.143-1.177-.144-2.71-.144-4.843s.001-3.666.144-4.843c.141-1.16.41-1.873.874-2.417q.218-.255.472-.472M9.5 11a1 1 0 1 0 0 2h.009a1 1 0 1 0 0-2zm4.991 0a1 1 0 1 0 0 2h.01a1 1 0 1 0 0-2z" clip-rule="evenodd"/></svg>