<svg xmlns="http://www.w3.org/2000/svg" fill="none" viewBox="0 0 24 24"><path fill="currentColor" fill-rule="evenodd" d="M13 4.75a.75.75 0 0 0 0-1.5H3a.75.75 0 0 0 0 1.5zm-2 15a.75.75 0 0 0 0-1.5H3a.75.75 0 0 0 0 1.5zM21.75 19a.75.75 0 0 1-.75.75h-4a.75.75 0 0 1 0-1.5h4a.75.75 0 0 1 .75.75M21 4.75a.75.75 0 0 0 0-1.5h-2a.75.75 0 0 0 0 1.5z" clip-rule="evenodd" opacity=".4"/><path fill="currentColor" fill-rule="evenodd" d="M16.75 3.5v-.022c0-.214 0-.41-.011-.576a1.8 1.8 0 0 0-.122-.572 1.75 1.75 0 0 0-.947-.947 1.8 1.8 0 0 0-.572-.122c-.165-.011-.362-.011-.576-.011h-.044c-.214 0-.41 0-.576.011-.178.012-.373.04-.572.122a1.75 1.75 0 0 0-.947.947c-.082.199-.11.394-.122.572-.011.165-.011.362-.011.576v1.044c0 .214 0 .41.011.576.012.178.04.373.122.572.178.428.519.77.947.947.199.082.394.11.572.122.165.011.362.011.576.011h.044c.214 0 .41 0 .576-.011.178-.012.373-.04.572-.122a1.75 1.75 0 0 0 .947-.947c.082-.199.11-.394.122-.572.011-.165.011-.362.011-.576zm-1.651-.73a.25.25 0 0 1 .13.131 1 1 0 0 1 .013.103c.008.108.008.253.008.496v1c0 .243 0 .388-.008.496a1 1 0 0 1-.012.103.25.25 0 0 1-.131.13 1 1 0 0 1-.103.013 8 8 0 0 1-.496.008c-.243 0-.388 0-.496-.008a1 1 0 0 1-.103-.012.25.25 0 0 1-.13-.131 1 1 0 0 1-.013-.103 8 8 0 0 1-.008-.496v-1c0-.243 0-.388.008-.496a1 1 0 0 1 .012-.103.25.25 0 0 1 .131-.13 1 1 0 0 1 .103-.013 8 8 0 0 1 .496-.008c.243 0 .388 0 .496.008.067.004.095.01.103.012M5.75 11.5a.75.75 0 0 1-.75.75H3a.75.75 0 0 1 0-1.5h2a.75.75 0 0 1 .75.75m16 0a.75.75 0 0 1-.75.75h-9.25a6 6 0 0 1-.011.348c-.012.178-.04.373-.122.572a1.75 1.75 0 0 1-.947.947c-.199.082-.394.11-.572.122-.165.011-.362.011-.576.011h-.044c-.214 0-.41 0-.576-.011a1.8 1.8 0 0 1-.572-.122 1.75 1.75 0 0 1-.947-.947 1.8 1.8 0 0 1-.122-.572 9 9 0 0 1-.011-.576v-1.044c0-.214 0-.41.011-.576.012-.178.04-.373.122-.572a1.75 1.75 0 0 1 .947-.947c.199-.082.394-.11.572-.122.165-.011.362-.011.576-.011h.044c.214 0 .41 0 .576.011.178.012.373.04.572.122.428.178.77.519.947.947.082.199.11.394.122.572q.01.157.01.348H21a.75.75 0 0 1 .75.75m-7 6.978v1.044c0 .214 0 .41-.011.576-.012.178-.04.373-.122.572a1.75 1.75 0 0 1-.947.947c-.199.082-.394.11-.572.122-.165.011-.362.011-.576.011h-.044c-.214 0-.41 0-.576-.011a1.8 1.8 0 0 1-.572-.122 1.75 1.75 0 0 1-.947-.947 1.8 1.8 0 0 1-.122-.572c-.011-.165-.011-.362-.011-.576v-1.044c0-.214 0-.41.011-.576.012-.178.04-.373.122-.572a1.75 1.75 0 0 1 .947-.947c.199-.082.394-.11.572-.122.165-.011.362-.011.576-.011h.044c.214 0 .41 0 .576.011.178.012.373.04.572.122.428.178.77.518.947.947.082.199.11.394.122.572.011.165.011.362.011.576m-1.52-.577a.25.25 0 0 0-.131-.13 1 1 0 0 0-.103-.013 8 8 0 0 0-.496-.008c-.243 0-.388 0-.496.008a1 1 0 0 0-.103.012.25.25 0 0 0-.13.131 1 1 0 0 0-.013.103 8 8 0 0 0-.008.496v1c0 .243 0 .388.008.496.004.067.01.095.012.103a.25.25 0 0 0 .131.13 1 1 0 0 0 .103.013c.108.008.253.008.496.008s.388 0 .496-.008a1 1 0 0 0 .103-.012.25.25 0 0 0 .13-.131 1 1 0 0 0 .013-.103c.008-.108.008-.253.008-.496v-1c0-.243 0-.388-.008-.496a1 1 0 0 0-.012-.103m-3.131-7.63a.25.25 0 0 1 .13.13 1 1 0 0 1 .013.103c.008.108.008.253.008.496v1c0 .243 0 .388-.008.496a1 1 0 0 1-.012.103.25.25 0 0 1-.131.13 1 1 0 0 1-.103.013 8 8 0 0 1-.496.008c-.243 0-.388 0-.496-.008a1 1 0 0 1-.103-.012.25.25 0 0 1-.13-.131 1 1 0 0 1-.013-.103A8 8 0 0 1 8.75 12v-1c0-.243 0-.388.008-.496a1 1 0 0 1 .012-.103.25.25 0 0 1 .131-.13 1 1 0 0 1 .103-.013c.108-.008.253-.008.496-.008s.388 0 .496.008c.067.004.095.01.103.012" clip-rule="evenodd"/></svg>