<svg xmlns="http://www.w3.org/2000/svg" fill="none" viewBox="0 0 24 24"><path fill="currentColor" fill-rule="evenodd" d="M2 2.25a.75.75 0 0 0 0 1.5h.25v16.5H2a.75.75 0 0 0 0 1.5h20a.75.75 0 0 0 0-1.5h-.25V3.75H22a.75.75 0 0 0 0-1.5zm18.25 18v-4.5h-5.295c-.433 0-.83 0-1.152-.043-.356-.048-.731-.16-1.04-.47s-.422-.684-.47-1.04c-.043-.323-.043-.72-.043-1.152v-2.09c0-.433 0-.83.043-1.152.048-.356.16-.731.47-1.04s.684-.422 1.04-.47c.323-.043.72-.043 1.152-.043l-.386 1.501a5 5 0 0 0-.566.029.7.7 0 0 0-.177.042l-.003.001-.001.003-.005.01a.7.7 0 0 0-.037.167c-.028.21-.03.504-.03.997v1.932l-.457 1.775.004-.004.453-1.762V13c0 .493.002.787.03.997a.7.7 0 0 0 .042.177l.001.003.003.001.01.005c.022.009.07.024.167.037.21.028.504.03.997.03h5.25v-4.5H15l-.43.001.385-1.501h5.295v-4.5H3.75v16.5zM14.57 9.751l-.819 3.18v.01z" clip-rule="evenodd"/><path fill="currentColor" fill-rule="evenodd" d="M9.75 3a.75.75 0 0 0-1.5 0v18a.75.75 0 0 0 1.5 0zm6 12a.75.75 0 0 0-1.5 0v6a.75.75 0 0 0 1.5 0zM15 2.25a.75.75 0 0 1 .75.75v6a.75.75 0 0 1-1.5 0V3a.75.75 0 0 1 .75-.75m2 10.5a.75.75 0 0 0 0-1.5h-1a.75.75 0 0 0 0 1.5z" clip-rule="evenodd" opacity=".4"/></svg>