<svg xmlns="http://www.w3.org/2000/svg" fill="none" viewBox="0 0 24 24"><path fill="currentColor" fill-rule="evenodd" d="M11.292 3.214c.299-.21.473-.331.61-.406a.7.7 0 0 1 .135-.058h.003l.015.004c.018.006.054.02.116.054.138.075.312.196.61.406l3.756 2.642c1.115.784 1.887 1.33 2.362 1.764.215.197.326.333.379.421-.093.041-.26.088-.545.125-.636.082-1.58.084-2.94.084H8.28c-1.362 0-2.305-.002-2.941-.084-.285-.037-.452-.084-.545-.125.053-.087.164-.224.379-.42.475-.436 1.247-.98 2.362-1.765zm7.986 6.383a5 5 0 0 1-.35.056c-.747.097-1.789.097-3.074.097H8.219c-1.285 0-2.327 0-3.073-.097a5 5 0 0 1-.354-.057v11.417l.013.033q.04.018.11.038c.157.046.38.084.696.11.634.055 1.5.056 2.668.056h7.512c1.168 0 2.034 0 2.668-.055a3.7 3.7 0 0 0 .695-.11q.07-.021.111-.039l.013-.033zM3.288 8.363a1.47 1.47 0 0 1 .163-.998c.165-.31.422-.59.705-.85.556-.508 1.41-1.108 2.463-1.85l3.806-2.677.028-.02c.26-.183.504-.354.724-.475.245-.134.525-.243.86-.243s.614.109.859.243c.22.12.464.292.724.475l3.834 2.697c1.054.742 1.907 1.342 2.463 1.85.283.26.54.54.705.85.16.3.24.647.16 1.014v12.604c0 .059 0 .164-.02.284-.023.13-.064.25-.112.367l-.073.174-.033.07a1 1 0 0 1-.057.092 1 1 0 0 1-.08.095c-.24.24-.543.375-.832.46a5 5 0 0 1-.987.164c-.706.061-1.638.061-2.761.061H8.243c-1.124 0-2.055 0-2.762-.06a5 5 0 0 1-.986-.166c-.29-.084-.592-.219-.832-.459a.8.8 0 0 1-.17-.256l-.073-.175a1.7 1.7 0 0 1-.112-.367c-.02-.12-.02-.225-.02-.284V8.364" clip-rule="evenodd"/><path fill="currentColor" fill-rule="evenodd" d="M12.79 3a.751.751 0 0 0-1.505 0v3a.751.751 0 0 0 1.505 0zm0 8.5a.75.75 0 0 0-.753-.75.75.75 0 0 0-.752.75v3.158L4.02 20.933a.75.75 0 0 0-.075 1.058.754.754 0 0 0 1.06.076l7.03-6.074 7.031 6.074a.754.754 0 0 0 1.061-.076.75.75 0 0 0-.076-1.058l-7.263-6.275z" clip-rule="evenodd" opacity=".4"/></svg>