<svg xmlns="http://www.w3.org/2000/svg" fill="none" viewBox="0 0 24 24"><path fill="currentColor" fill-rule="evenodd" d="M12 3.75c-4.56 0-8.25 3.69-8.25 8.25s3.69 8.25 8.25 8.25 8.25-3.69 8.25-8.25S16.56 3.75 12 3.75M2.25 12c0-5.38 4.37-9.75 9.75-9.75s9.75 4.37 9.75 9.75-4.37 9.75-9.75 9.75S2.25 17.38 2.25 12" clip-rule="evenodd"/><path fill="currentColor" fill-rule="evenodd" d="M11.249 6c0-.41.34-.75.75-.75 1.19 0 2.35.31 3.38.9 1.02.6 1.87 1.45 2.47 2.48.59 1.02.9 2.19.9 3.37s-.31 2.35-.9 3.38a6.96 6.96 0 0 1-2.47 2.47 6.79 6.79 0 0 1-6.75 0 6.75 6.75 0 0 1-2.47-2.48.743.743 0 0 1 .27-1.02l4.82-2.78zm1.5.8V12c0 .27-.14.52-.37.65l-4.5 2.6a5.22 5.22 0 0 0 4.12 2c.92 0 1.83-.24 2.63-.7.79-.46 1.46-1.13 1.92-1.93.46-.79.7-1.7.7-2.62s-.24-1.83-.7-2.62c-.46-.8-1.13-1.47-1.92-1.93-.58-.33-1.22-.55-1.88-.65" clip-rule="evenodd" opacity=".4"/></svg>