<svg xmlns="http://www.w3.org/2000/svg" fill="none" viewBox="0 0 24 24"><path fill="currentColor" fill-rule="evenodd" d="M9.049 3.893c3.17-2.448 7.37-3.04 11.051-2.408a.75.75 0 0 1 .622.687c.151 2.192-.303 3.85-1.448 5.045-.848.884-2.01 1.444-3.383 1.823q.191.197.37.417c.447.546.896 1.299.79 2.214-.072.622-.332 1.092-.733 1.512-.356.371-.847.726-1.395 1.122l-.048.035c-2.699 1.95-5.831 3.178-9.755 3.409a.75.75 0 0 1-.792-.69c-.509-6.423 1.514-10.69 4.72-13.166m-3.273 12.3c3.283-.314 5.919-1.406 8.22-3.069.612-.442.988-.717 1.237-.978.214-.224.3-.401.328-.648.036-.306-.1-.651-.46-1.093a8 8 0 0 0-.6-.637l-.185-.18a17 17 0 0 1-.465-.458.75.75 0 0 1 .405-1.256c1.877-.349 3.15-.877 3.935-1.695.674-.703 1.075-1.719 1.059-3.306-3.218-.418-6.688.203-9.285 2.207-2.61 2.014-4.459 5.52-4.19 11.114" clip-rule="evenodd"/><path fill="currentColor" fill-rule="evenodd" d="M11.08 9.523a.75.75 0 0 1-.104 1.056C8.346 12.743 4.75 15.865 4.75 22a.75.75 0 0 1-1.5 0c0-6.865 4.1-10.38 6.774-12.58a.75.75 0 0 1 1.055.103" clip-rule="evenodd" opacity=".4"/></svg>