<svg xmlns="http://www.w3.org/2000/svg" fill="none" viewBox="0 0 24 24"><path fill="currentColor" fill-rule="evenodd" d="M9.926 2.11a2.93 2.93 0 0 1 4.148 0l1.01 1.011c.268.27.633.42 1.014.42h1.428a2.93 2.93 0 0 1 2.934 2.933l-.001 1.428c0 .38.15.746.42 1.014l1.01 1.01a2.93 2.93 0 0 1 0 4.148l-1.01 1.01a1.43 1.43 0 0 0-.42 1.014v1.428a2.93 2.93 0 0 1-2.933 2.934l-1.428-.001c-.38 0-.745.15-1.014.42l-1.01 1.01a2.93 2.93 0 0 1-4.148 0l-1.01-1.01a1.43 1.43 0 0 0-1.014-.42H6.474a2.93 2.93 0 0 1-2.934-2.933l.001-1.428c0-.38-.15-.745-.42-1.014l-1.01-1.01a2.93 2.93 0 0 1 0-4.148l1.01-1.01c.27-.268.42-.633.42-1.014V6.474A2.93 2.93 0 0 1 6.473 3.54l1.428.001c.38 0 .746-.15 1.014-.42zm3.087 1.06a1.43 1.43 0 0 0-2.026 0l-1.01 1.011c-.55.551-1.297.86-2.076.86H6.472A1.43 1.43 0 0 0 5.04 6.472l.001 1.429c0 .78-.309 1.526-.86 2.077l-1.011 1.01a1.43 1.43 0 0 0 0 2.025l1.011 1.01c.551.55.86 1.297.86 2.076v1.429a1.43 1.43 0 0 0 1.431 1.432l1.429-.001c.78 0 1.526.309 2.077.86l1.01 1.011a1.43 1.43 0 0 0 2.025 0l1.01-1.011a2.93 2.93 0 0 1 2.076-.86h1.429a1.43 1.43 0 0 0 1.432-1.431l-.001-1.429c0-.78.309-1.526.86-2.077l1.011-1.01a1.43 1.43 0 0 0 0-2.025l-1.011-1.01a2.93 2.93 0 0 1-.86-2.076V6.472a1.43 1.43 0 0 0-1.431-1.432l-1.429.001c-.78 0-1.526-.309-2.077-.86z" clip-rule="evenodd"/><path fill="currentColor" fill-rule="evenodd" d="M10.75 9a1.25 1.25 0 1 1 2.302.675 8 8 0 0 1-.468.628l-.091.113c-.156.192-.326.403-.482.617-.369.507-.761 1.168-.761 1.967v.5a.75.75 0 0 0 1.5 0V13c0-.305.15-.64.474-1.084.131-.18.273-.356.428-.548l.1-.124c.187-.232.389-.489.562-.757A2.75 2.75 0 1 0 9.25 9a.75.75 0 0 0 1.5 0m1.242 7a1 1 0 1 0 0 2h.01a1 1 0 1 0 0-2z" clip-rule="evenodd" opacity=".4"/></svg>