<svg xmlns="http://www.w3.org/2000/svg" fill="none" viewBox="0 0 24 24"><path fill="currentColor" fill-rule="evenodd" d="M5.25 9.5a6.75 6.75 0 1 1 11.07 5.187c-.895.747-1.747 1.792-1.997 3.063H9.677c-.25-1.271-1.102-2.316-1.997-3.063A6.73 6.73 0 0 1 5.25 9.5m3 9c0-.968-.615-1.898-1.531-2.661a8.25 8.25 0 1 1 10.562 0c-.915.763-1.531 1.693-1.531 2.661v2a2.25 2.25 0 0 1-2.25 2.25h-3a2.25 2.25 0 0 1-2.25-2.25zm1.5.75v1.25c0 .414.336.75.75.75h3a.75.75 0 0 0 .75-.75v-1.25z" clip-rule="evenodd"/><path fill="currentColor" fill-rule="evenodd" d="M10.75 8c0-.62.582-1.25 1.25-1.25.753 0 1.25.545 1.25 1.083a.97.97 0 0 1-.18.56 7 7 0 0 1-.466.571l-.09.103c-.156.176-.327.371-.484.568-.366.462-.78 1.09-.78 1.865a.75.75 0 0 0 1.5 0c0-.238.13-.522.455-.932.13-.164.271-.324.426-.5l.1-.114c.187-.212.39-.45.566-.699.284-.404.453-.893.453-1.422 0-1.487-1.294-2.583-2.75-2.583-1.54 0-2.75 1.346-2.75 2.75a.75.75 0 0 0 1.5 0m1.242 5a1 1 0 1 0 0 2h.01a1 1 0 1 0 0-2z" clip-rule="evenodd" opacity=".4"/></svg>