<svg xmlns="http://www.w3.org/2000/svg" fill="none" viewBox="0 0 24 24"><path fill="currentColor" d="M12.082 22.688c-5.928 0-10.75-4.822-10.75-10.75 0-5.929 4.822-10.75 10.75-10.75s10.75 4.822 10.75 10.75-4.822 10.75-10.75 10.75m0-20c-5.1 0-9.25 4.15-9.25 9.25s4.15 9.25 9.25 9.25 9.25-4.15 9.25-9.25-4.15-9.25-9.25-9.25"/><path fill="currentColor" d="M14.397 16.682a.75.75 0 0 1-.21-1.47c1.349-.394 2.32-1.39 2.577-2.58-.359.05-.784.05-1.306.05-1.12 0-1.796 0-2.324-.492l-.009-.01c-.54-.52-.54-1.208-.54-2.25 0-1.04 0-1.728.54-2.25l.009-.008c.527-.492 1.203-.492 2.324-.492s1.797 0 2.324.492l.009.009c.54.52.54 1.209.54 2.25V12c0 2.13-1.496 3.999-3.724 4.65a.7.7 0 0 1-.211.03zm-.233-5.585c.111.084.739.084 1.295.084s1.185 0 1.295-.084c.078-.094.078-.688.078-1.166s0-1.071-.078-1.166c-.111-.084-.739-.084-1.295-.084s-1.185 0-1.295.084c-.078.094-.078.688-.078 1.166s0 1.07.078 1.166m-6.521 5.585a.751.751 0 0 1-.21-1.47c1.349-.394 2.321-1.39 2.578-2.58-.359.05-.784.05-1.306.05-1.12 0-1.797 0-2.324-.492l-.009-.01c-.54-.52-.54-1.208-.54-2.25 0-1.04 0-1.728.54-2.25l.01-.008c.526-.492 1.202-.492 2.323-.492s1.796 0 2.324.492l.009.009c.54.52.54 1.209.54 2.25V12c0 2.13-1.497 4-3.725 4.65a.7.7 0 0 1-.21.03m-.234-5.585c.111.084.739.084 1.295.084s1.185 0 1.295-.084c.077-.094.078-.681.078-1.158V9.93c0-.478 0-1.071-.078-1.166-.111-.084-.739-.084-1.295-.084s-1.185 0-1.295.084c-.078.094-.078.688-.078 1.166s0 1.07.078 1.166" opacity=".4"/></svg>