<svg xmlns="http://www.w3.org/2000/svg" fill="none" viewBox="0 0 24 24"><path fill="currentColor" d="M12.019 22.234c-4.678 0-7.026 0-8.635-1.61-1.61-1.61-1.61-3.959-1.61-8.64 0-4.68 0-7.03 1.61-8.64s3.957-1.61 8.635-1.61 7.025 0 8.635 1.61 1.61 3.96 1.61 8.64 0 7.031-1.61 8.641-3.957 1.61-8.635 1.61m0-19c-4.264 0-6.404 0-7.576 1.171-1.17 1.17-1.17 3.312-1.17 7.58 0 4.266 0 6.408 1.17 7.578 1.17 1.171 3.312 1.171 7.576 1.171s6.404 0 7.575-1.17c1.17-1.17 1.17-3.313 1.17-7.58s0-6.409-1.17-7.579-3.311-1.17-7.575-1.17"/><path fill="currentColor" d="M14.334 16.736a.75.75 0 0 1-.21-1.47c1.349-.394 2.32-1.39 2.576-2.58-.358.05-.783.05-1.305.05-1.12 0-1.795 0-2.323-.492l-.009-.009c-.54-.52-.54-1.209-.54-2.25s0-1.729.54-2.25l.009-.009c.527-.492 1.203-.492 2.323-.492s1.796 0 2.323.492l.009.01c.54.52.54 1.208.54 2.25v2.07c0 2.13-1.496 3.998-3.723 4.65a.7.7 0 0 1-.21.03m-.232-5.585c.11.084.738.084 1.294.084s1.185 0 1.294-.084c.078-.094.078-.688.078-1.166s0-1.07-.078-1.166c-.11-.084-.738-.084-1.294-.084s-1.185 0-1.295.084c-.077.094-.077.688-.077 1.166s0 1.071.078 1.166m-6.518 5.585a.751.751 0 0 1-.21-1.47c1.348-.394 2.32-1.39 2.577-2.58-.36.05-.784.05-1.306.05-1.12 0-1.796 0-2.323-.492l-.009-.009c-.54-.52-.54-1.209-.54-2.25s0-1.729.54-2.25l.01-.009c.526-.492 1.202-.492 2.322-.492s1.795 0 2.323.492l.009.01c.54.52.54 1.208.54 2.25v2.07c0 2.13-1.496 4-3.723 4.65a.7.7 0 0 1-.21.03m-.234-5.585c.11.084.738.084 1.294.084s1.185 0 1.295-.084c.076-.094.078-.68.078-1.158v-.008c0-.478 0-1.07-.078-1.166-.111-.084-.74-.084-1.295-.084-.556 0-1.184 0-1.294.084-.078.094-.078.688-.078 1.166s0 1.071.078 1.166" opacity=".4"/></svg>