<svg xmlns="http://www.w3.org/2000/svg" fill="none" viewBox="0 0 24 24"><path fill="currentColor" fill-rule="evenodd" d="M13.01 2.25h-2.02c-1.706 0-3.104 0-4.24.116V2a.75.75 0 0 0-1.5 0v.635c-.805.228-1.483.599-2.048 1.21-.778.84-1.124 1.903-1.29 3.235-.162 1.304-.162 2.976-.162 5.11v.62c0 2.133 0 3.806.162 5.11.166 1.332.512 2.395 1.29 3.236.785.849 1.79 1.234 3.05 1.417 1.217.177 2.774.177 4.737.177h2.022c1.964 0 3.52 0 4.738-.177 1.258-.183 2.264-.568 3.05-1.417.777-.841 1.123-1.904 1.289-3.235.162-1.305.162-2.977.162-5.111v-.62c0-2.133 0-3.806-.162-5.11-.166-1.332-.512-2.395-1.29-3.236-.564-.61-1.243-.981-2.048-1.21V2a.75.75 0 0 0-1.5 0v.366c-1.136-.116-2.534-.116-4.24-.116m4.24 1.625c-1.061-.123-2.432-.125-4.3-.125h-1.9c-1.868 0-3.239.002-4.3.125V4a.75.75 0 0 1-1.471.206 2.6 2.6 0 0 0-.976.657c-.475.513-.755 1.216-.902 2.402-.15 1.201-.151 2.78-.151 4.978v.514c0 2.198.001 3.777.15 4.978.148 1.186.428 1.89.903 2.402.466.504 1.094.796 2.164.952 1.098.16 2.545.161 4.583.161h1.9c2.038 0 3.485-.002 4.583-.161 1.07-.156 1.698-.448 2.164-.952.475-.513.755-1.216.902-2.402.15-1.201.151-2.78.151-4.978v-.514c0-2.198-.001-3.777-.15-4.978-.148-1.186-.428-1.89-.903-2.402a2.6 2.6 0 0 0-.976-.657A.75.75 0 0 1 17.25 4z" clip-rule="evenodd"/><path fill="currentColor" fill-rule="evenodd" d="M11.208 11.613a.75.75 0 0 1-.255 1.03 2.48 2.48 0 1 0 3.405 3.405.75.75 0 1 1 1.284.773 3.98 3.98 0 1 1-5.464-5.464.75.75 0 0 1 1.03.256M2.25 8A.75.75 0 0 1 3 7.25h18a.75.75 0 0 1 0 1.5H3A.75.75 0 0 1 2.25 8M14 12a1 1 0 1 0 0 2h.009a1 1 0 1 0 0-2z" clip-rule="evenodd" opacity=".4"/></svg>