<svg xmlns="http://www.w3.org/2000/svg" fill="none" viewBox="0 0 24 24"><path fill="currentColor" d="M18.998 22.75h-8c-3.98 0-5.97 0-7.36-1.39s-1.39-3.38-1.39-7.36V9.46c0-3.42 0-5.14 1.06-6.44.21-.26.45-.5.71-.71 1.31-1.06 3.02-1.06 6.44-1.06.75 0 1.17 0 1.62.15.04.01.07.03.11.05 0 0 .17.08.18.08.41.18.71.48 1.25 1.03l4.74 4.74c.63.63.98.98 1.18 1.47s.21 1.16.21 2.23c0 .41-.34.75-.75.75s-.75-.34-.75-.75 0-.89-.03-1.25h-.22c-3.03 0-4.55 0-5.65-1.1s-1.1-2.62-1.1-5.65v-.24c-.18-.01-.43-.01-.79-.01-3.07 0-4.6 0-5.5.72-.18.15-.35.31-.49.49-.72.89-.72 2.43-.72 5.5V14c0 3.56 0 5.35.95 6.3s2.74.95 6.3.95h8c.41 0 .75.34.75.75s-.34.75-.75.75m-6.25-18.94c0 2.08.07 3.19.66 3.78s1.69.65 3.78.66z" opacity=".4"/><path fill="currentColor" d="M15.998 19.75a.75.75 0 0 1-.71-.5l-.35-1h-1.89l-.35 1a.75.75 0 0 1-.96.46.75.75 0 0 1-.46-.96l1.75-5c.11-.3.39-.5.71-.5h.5c.32 0 .6.2.71.5l1.75 5c.14.39-.07.82-.46.96-.08.03-.17.04-.25.04zm-2.42-3h.84l-.42-1.19zm7.42 3c-.27 0-.54-.15-.67-.42l-1.04-2.08h-.54V19c0 .41-.34.75-.75.75s-.75-.34-.75-.75v-5c0-.41.34-.75.75-.75h1.75c1.1 0 2 .9 2 2a2 2 0 0 1-.94 1.69l.86 1.72c.19.37.04.82-.34 1.01a.8.8 0 0 1-.33.08m-2.25-4h1.01a.5.5 0 0 0-.01-1h-1zm-8.75 4c-.27 0-.54-.15-.67-.42l-1.04-2.08h-.54V19c0 .41-.34.75-.75.75s-.75-.34-.75-.75v-5c0-.41.34-.75.75-.75h1.75c1.1 0 2 .9 2 2a2 2 0 0 1-.94 1.69l.86 1.72c.19.37.04.82-.34 1.01a.8.8 0 0 1-.33.08m-2.25-4h1.01a.5.5 0 0 0-.01-1h-1z"/></svg>