<svg xmlns="http://www.w3.org/2000/svg" fill="none" viewBox="0 0 24 24"><path fill="currentColor" fill-rule="evenodd" d="m21.248 12.755-.162.008c-1.754.096-3.662.578-4.832 1.563-.566.478-.947 1.062-1.082 1.785-.08.426-.079.928.044 1.516a10 10 0 0 1 2.368-2.252.75.75 0 0 1 .832 1.248 8.6 8.6 0 0 0-2.309 2.335c.844.267 1.516.287 2.049.168.683-.153 1.232-.555 1.679-1.157.926-1.248 1.333-3.25 1.406-5.046zm-5.886 7.535c1.16.414 2.2.505 3.12.3 1.104-.247 1.942-.898 2.557-1.727 1.2-1.616 1.624-3.991 1.7-5.879l.002-.035c.008-.19.017-.41-.005-.6a1.22 1.22 0 0 0-.35-.75 1.2 1.2 0 0 0-.751-.338c-.19-.02-.409-.008-.596.002l-.036.002c-1.882.104-4.18.62-5.715 1.915-.787.662-1.383 1.539-1.59 2.656-.191 1.02-.046 2.176.473 3.467a11 11 0 0 0-.902 2.531.75.75 0 1 0 1.463.331 9.6 9.6 0 0 1 .63-1.875" clip-rule="evenodd"/><path fill="currentColor" fill-rule="evenodd" d="m16.554 6.284-.303-.564c-.713-1.33-1.288-2.403-1.829-3.135-.545-.739-1.204-1.338-2.132-1.335s-1.582.607-2.122 1.35c-.536.736-1.104 1.813-1.81 3.148l-1.02 1.936a.75.75 0 0 0 1.326.7l.992-1.879c.742-1.405 1.261-2.384 1.726-3.022.467-.643.733-.732.915-.733.181 0 .448.087.92.726.468.634.993 1.61 1.744 3.01l.244.456c.47.876.783 1.463.944 1.897.084.226.1.346.102.401a1.3 1.3 0 0 1-.315.003c-.427-.035-1.036-.177-1.965-.397l-.082-.02a.75.75 0 1 0-.346 1.46l.145.034c.85.201 1.572.373 2.127.418.558.045 1.25-.011 1.676-.626.408-.59.263-1.26.064-1.795-.201-.543-.565-1.221-1-2.033m-.308 2.997.002-.01zm.034-.048q.013-.01.015-.008.002.001-.015.008m-7.37 3.275-.03-.049c-.38-.6-.71-1.12-1.022-1.482-.327-.378-.771-.744-1.4-.726-.628.017-1.05.406-1.356.803-.292.378-.592.916-.937 1.535l-.028.051-1.459 2.617c-.524.94-.96 1.722-1.2 2.36-.248.66-.367 1.37.03 2.034.396.66 1.078.897 1.778 1 .68.1 1.583.1 2.673.099H11a.75.75 0 0 0 0-1.5H6.021c-1.168 0-1.959-.002-2.518-.084-.553-.08-.663-.212-.708-.286-.042-.07-.106-.222.087-.734.196-.521.574-1.204 1.137-2.214l1.428-2.561c.382-.686.628-1.123.843-1.402a1 1 0 0 1 .202-.211l.008-.005.009.004a1 1 0 0 1 .214.201c.23.267.5.69.92 1.353l.702 1.107a.75.75 0 1 0 1.267-.803z" clip-rule="evenodd" opacity=".4"/></svg>