<svg xmlns="http://www.w3.org/2000/svg" fill="none" viewBox="0 0 24 24"><path fill="currentColor" d="M12 21.75c-5.38 0-9.75-4.37-9.75-9.75S6.62 2.25 12 2.25c3.47 0 6.71 1.87 8.45 4.87.21.36.09.82-.27 1.02-.36.21-.82.08-1.02-.27-1.48-2.54-4.22-4.13-7.15-4.13-4.55 0-8.25 3.7-8.25 8.25s3.7 8.25 8.25 8.25c.41 0 .75.34.75.75s-.34.75-.75.75z" opacity=".4"/><path fill="currentColor" d="M19 9.3c-.73 0-1.62-.15-2.78-.34l-1.34-.22a.747.747 0 0 1-.62-.86c.07-.41.45-.69.86-.62l1.34.22c1.82.3 2.91.49 3.35.12s.44-1.42.44-3.32V3c0-.41.34-.75.75-.75s.75.34.75.75v1.28c0 2.35 0 3.64-.98 4.46-.49.41-1.05.56-1.78.56z"/></svg>