<svg xmlns="http://www.w3.org/2000/svg" fill="none" viewBox="0 0 24 24"><path fill="currentColor" d="M3.934 22.25c-.344 0-.505-.091-.6-.145l-.006-.004c-.222-.13-.798-.48-1.074-3.23a.75.75 0 0 1 1.492-.15c.028.276.066.558.109.824l3.829-7.365.013-.024c.607-1.068.94-1.657 1.583-2.031.64-.373 1.318-.373 2.547-.373h8.557a14 14 0 0 0-.823-.641.75.75 0 0 1 .877-1.218c2.313 1.665 2.313 2.35 2.313 2.609s0 .944-2.313 2.609a.75.75 0 1 1-.877-1.218c.284-.205.569-.428.823-.641h-8.557c-1.068 0-1.513.006-1.793.169s-.504.543-1.026 1.463l-3.935 7.568c.31-.112.649-.248.97-.393a.75.75 0 1 1 .618 1.366c-1.45.656-2.26.825-2.73.825z"/><path fill="currentColor" d="M5.999 16.751a.74.74 0 0 1-.323-.074C2.987 15.391 1.25 12.593 1.25 9.549c0-4.3 3.477-7.799 7.75-7.799s7.75 3.499 7.75 7.799c0 .347-.023.7-.069 1.049a.751.751 0 0 1-1.488-.196q.057-.43.057-.853c0-3.473-2.804-6.299-6.25-6.299S2.75 6.076 2.75 9.549c0 2.47 1.403 4.736 3.574 5.774A.75.75 0 0 1 6 16.75z" opacity=".4"/></svg>