<svg xmlns="http://www.w3.org/2000/svg" fill="none" viewBox="0 0 24 24"><path fill="currentColor" fill-rule="evenodd" d="M7.008 7c0 .552.453 1 1.005 1a1 1 0 0 0 0-2h-.01a.996.996 0 0 0-.995 1m0 6c0 .552.453 1 1.005 1a1 1 0 0 0 0-2h-.01a.996.996 0 0 0-.995 1" clip-rule="evenodd" opacity=".4"/><path fill="currentColor" fill-rule="evenodd" d="M7 22.75h10c1.07 0 1.715 0 2.234-.506l.009-.009c.507-.513.507-1.161.507-2.235V6c0-2.025 0-3.141-.807-3.942-.8-.808-1.916-.808-3.943-.808H9c-2.026 0-3.142 0-3.938.804C4.25 2.86 4.25 3.975 4.25 6v14c0 1.075 0 1.723.507 2.235l.009.009c.519.506 1.164.506 2.234.506M5.75 9.25V6c0-1.744.015-2.53.373-2.886C6.468 2.765 7.255 2.75 9 2.75h6c1.745 0 2.531.015 2.881.368.354.351.369 1.137.369 2.882v3.25zm0 1.5h12.5V20c0 .497 0 1.06-.071 1.176-.104.074-.699.074-1.179.074H7c-.48 0-1.075 0-1.179-.074-.071-.117-.071-.679-.071-1.176z" clip-rule="evenodd"/></svg>