<svg xmlns="http://www.w3.org/2000/svg" fill="none" viewBox="0 0 24 24"><path fill="currentColor" fill-rule="evenodd" d="M12 2.75A9.25 9.25 0 1 0 21.25 12a.75.75 0 0 1 1.5 0c0 5.937-4.813 10.75-10.75 10.75S1.25 17.937 1.25 12 6.063 1.25 12 1.25c2.798 0 5.347 1.07 7.26 2.821V2a.75.75 0 0 1 1.5 0v3.132c0 .99-1.231 1.441-1.872.694A9.23 9.23 0 0 0 12 2.75" clip-rule="evenodd" opacity=".4"/><path fill="currentColor" fill-rule="evenodd" d="M11.995 2.75C6.889 2.75 2.75 6.891 2.75 12s4.14 9.25 9.245 9.25a.75.75 0 0 1 0 1.5C6.06 22.75 1.25 17.937 1.25 12S6.06 1.25 11.995 1.25a10.7 10.7 0 0 1 7.255 2.82V2a.75.75 0 0 1 1.5 0v3.132c0 .99-1.23 1.442-1.87.694a9.22 9.22 0 0 0-6.885-3.076" clip-rule="evenodd"/></svg>