<svg xmlns="http://www.w3.org/2000/svg" fill="none" viewBox="0 0 24 24"><path fill="currentColor" fill-rule="evenodd" d="M14.813.339a.75.75 0 0 1 1.015.307l.618 1.155c.185.346.352.66.452.907.052.128.11.293.126.472a.96.96 0 0 1-.208.71.97.97 0 0 1-.674.34 1.8 1.8 0 0 1-.492-.036c-.274-.053-.635-.16-1.041-.28l-.04-.012A9 9 0 0 0 12 3.532c-4.854 0-8.75 3.812-8.75 8.468 0 1.54.424 2.982 1.165 4.226a.75.75 0 0 1-1.288.768A9.7 9.7 0 0 1 1.75 12c0-5.527 4.61-9.969 10.25-9.969a10.5 10.5 0 0 1 3.119.47l-.016-.03-.598-1.117a.75.75 0 0 1 .308-1.015" clip-rule="evenodd"/><path fill="currentColor" fill-rule="evenodd" d="M19.846 6.747a.75.75 0 0 1 1.028.26A9.7 9.7 0 0 1 22.251 12c0 5.527-4.61 9.97-10.25 9.97-1.041 0-2.048-.152-2.997-.434l-.122-.036.016.029.598 1.117a.75.75 0 1 1-1.323.708l-.618-1.155c-.185-.346-.353-.659-.452-.906a1.7 1.7 0 0 1-.126-.472.96.96 0 0 1 .208-.712.97.97 0 0 1 .673-.338c.177-.015.352.009.493.036.274.052.635.159 1.041.28l.04.011c.81.241 1.673.371 2.569.371 4.854 0 8.75-3.812 8.75-8.469a8.2 8.2 0 0 0-1.165-4.225.75.75 0 0 1 .26-1.028" clip-rule="evenodd" opacity=".4"/></svg>