<svg xmlns="http://www.w3.org/2000/svg" fill="none" viewBox="0 0 24 24"><path fill="currentColor" fill-rule="evenodd" d="M19.035 2.536a.75.75 0 0 1 .26 1.23l-1.203 1.202v.94h.94l1.202-1.203a.75.75 0 0 1 1.23.26 4.25 4.25 0 0 1-5.019 5.652l-5.828 5.828a4.25 4.25 0 0 1-5.653 5.019.75.75 0 0 1-.259-1.23l1.202-1.202v-.94h-.939l-1.202 1.203a.75.75 0 0 1-1.23-.26 4.25 4.25 0 0 1 5.022-5.652l5.825-5.825a4.25 4.25 0 0 1 5.652-5.022M17.169 3.77a2.75 2.75 0 0 0-2.234 3.725.75.75 0 0 1-.169.801l-6.47 6.47a.75.75 0 0 1-.801.17 2.75 2.75 0 0 0-3.725 2.233l.357-.357a.75.75 0 0 1 .53-.22h2a.75.75 0 0 1 .75.75v2a.75.75 0 0 1-.22.53l-.357.358a2.75 2.75 0 0 0 2.235-3.723.75.75 0 0 1 .17-.8l6.471-6.472a.75.75 0 0 1 .801-.17A2.75 2.75 0 0 0 20.23 6.83l-.357.358a.75.75 0 0 1-.53.22h-2a.75.75 0 0 1-.75-.75v-2a.75.75 0 0 1 .22-.531z" clip-rule="evenodd"/><path fill="currentColor" fill-rule="evenodd" d="M3.97 2.97a.75.75 0 0 1 .865-.14l3 1.5a.75.75 0 0 1 .195 1.2l-.72.72 4.22 4.22-1.06 1.06-4.22-4.22-.72.72a.75.75 0 0 1-1.2-.195l-1.5-3a.75.75 0 0 1 .14-.865zm.678 1.443-.235.235.792 1.586 1.029-1.029zM20.634 16.87l-5.604-5.604-1.06 1.06 5.604 5.604a.6.6 0 0 1 0 .851l-.792.792a.6.6 0 0 1-.85 0l-5.605-5.604-1.06 1.06 5.604 5.604c.82.821 2.151.821 2.972 0l.791-.791a2.1 2.1 0 0 0 0-2.972" clip-rule="evenodd" opacity=".4"/></svg>