<svg xmlns="http://www.w3.org/2000/svg" fill="none" viewBox="0 0 24 24"><path fill="currentColor" fill-rule="evenodd" d="M1.75 12C1.75 6.34 6.34 1.75 12 1.75c3.606 0 6.776 1.862 8.603 4.676l.155-1.037a.75.75 0 1 1 1.484.222l-.475 3.175a.75.75 0 0 1-.905.621l-3.025-.675a.75.75 0 0 1 .326-1.464l1.39.31A8.75 8.75 0 1 0 20.75 12a.75.75 0 0 1 1.499 0c0 5.66-4.59 10.25-10.25 10.25S1.75 17.66 1.75 12" clip-rule="evenodd"/><path fill="currentColor" fill-rule="evenodd" d="M12 8.25c-.69 0-1.25.56-1.25 1.25v.751l.46-.001h1.58l.46.001V9.5c0-.69-.56-1.25-1.25-1.25m2.75 2.151V9.5a2.75 2.75 0 1 0-5.5 0v.901a1.9 1.9 0 0 0-.62.314 2.3 2.3 0 0 0-.415.415c-.272.355-.375.755-.422 1.166-.043.386-.043.862-.043 1.413v.082c0 .551 0 1.027.043 1.413.047.41.15.811.422 1.166q.181.235.415.415c.355.272.756.375 1.166.421.386.044.862.044 1.413.044h1.582c.551 0 1.027 0 1.413-.044.41-.046.811-.15 1.166-.421q.235-.181.415-.415c.272-.355.375-.756.421-1.166.044-.386.044-.862.044-1.413v-.082c0-.551 0-1.027-.044-1.413-.046-.41-.15-.811-.421-1.166a2.3 2.3 0 0 0-.415-.415 1.9 1.9 0 0 0-.62-.314m-4.786 1.383c-.277.031-.37.083-.42.121a.8.8 0 0 0-.139.138c-.038.05-.09.144-.121.421-.033.292-.034.682-.034 1.286s.001.994.034 1.286c.031.277.083.37.121.42a.8.8 0 0 0 .138.139c.05.038.144.09.421.121.292.033.682.034 1.286.034h1.5c.604 0 .994-.001 1.286-.034.277-.031.37-.083.42-.121a.8.8 0 0 0 .139-.138c.038-.05.09-.144.121-.421.033-.292.034-.682.034-1.286s-.001-.994-.034-1.286c-.031-.277-.083-.37-.121-.42a.8.8 0 0 0-.138-.139c-.05-.038-.144-.09-.421-.121-.292-.033-.682-.034-1.286-.034h-1.5c-.604 0-.994.001-1.286.034" clip-rule="evenodd" opacity=".4"/></svg>