<svg xmlns="http://www.w3.org/2000/svg" fill="none" viewBox="0 0 24 24"><path fill="currentColor" d="M12 21.745c-3.91 0-5.87 0-7.38-1.09-.48-.35-.91-.78-1.27-1.27-1.1-1.52-1.1-3.48-1.1-7.38s0-5.86 1.1-7.38c.37-.5.79-.93 1.27-1.28 1.51-1.09 3.47-1.09 7.38-1.09s5.87 0 7.38 1.09c.48.35.91.78 1.27 1.27 1.1 1.52 1.1 3.48 1.1 7.38s0 5.86-1.1 7.38c-.37.5-.79.93-1.27 1.28-1.51 1.09-3.47 1.09-7.38 1.09m-6.5-2.31c1.12.81 2.92.81 6.5.81s5.38 0 6.5-.81c.35-.26.67-.58.94-.95.81-1.12.81-2.92.81-6.5s0-5.38-.81-6.5a4.4 4.4 0 0 0-.94-.94c-1.11-.81-2.91-.81-6.5-.81s-5.38 0-6.5.81c-.35.26-.67.58-.94.95-.81 1.12-.81 2.92-.81 6.5s0 5.38.81 6.5c.27.37.59.68.94.94" opacity=".4"/><path fill="currentColor" d="M16.998 18.745c-.19 0-.38-.07-.53-.22a.754.754 0 0 1 0-1.06l1-1c.29-.29.77-.29 1.06 0s.29.77 0 1.06l-1 1c-.15.15-.34.22-.53.22m-4 0c-.19 0-.38-.07-.53-.22a.754.754 0 0 1 0-1.06l5-5c.29-.29.77-.29 1.06 0s.29.77 0 1.06l-5 5c-.15.15-.34.22-.53.22m-4 0c-.19 0-.38-.07-.53-.22a.754.754 0 0 1 0-1.06l9-9c.29-.29.77-.29 1.06 0s.29.77 0 1.06l-9 9c-.15.15-.34.22-.53.22"/></svg>