<svg xmlns="http://www.w3.org/2000/svg" fill="none" viewBox="0 0 24 24"><path fill="currentColor" fill-rule="evenodd" d="M18.542 6.595a.75.75 0 0 0 1.052-.137.75.75 0 0 0-.136-1.052l-.219-.166a23 23 0 0 1-.632-.49H21a.75.75 0 0 0 0-1.5h-2.393q.275-.22.632-.49l.106-.08.113-.086a.75.75 0 1 0-.916-1.188l-.204.155C16.984 2.58 16.25 3.27 16.25 4.001c.001.731.734 1.421 2.088 2.44l.024.018zM4.406 6.46c.148.192.37.292.595.292v.001a.75.75 0 0 0 .457-.156l.204-.155C7.016 5.423 7.75 4.733 7.75 4.001c-.001-.73-.734-1.42-2.088-2.439l-.024-.018-.18-.137a.75.75 0 0 0-.916 1.188l.219.166q.357.269.632.49H3a.75.75 0 0 0 0 1.5h2.393a25 25 0 0 1-.74.571l-.111.085a.75.75 0 0 0-.136 1.052" clip-rule="evenodd" opacity=".4"/><path fill="currentColor" d="M18.82 22.75a.75.75 0 0 1-.75-.75c0-.207-.01-.414-.021-.632-.043-.875-.091-1.866.608-2.867.583-.835 1.163-2.335 1.367-3.246l.048-.217.096-.427c.208-.904.019-1.662-.577-2.32-1.499-1.654-5.069-2.164-6.032-2.039a.75.75 0 0 1-.846-.744V3.595c-.067-.82-.857-.847-1.018-.845-.096.002-.938.041-.966.83v10.407a.75.75 0 0 1-1.298.512l-1.59-1.702c-.511-.514-1.002-.756-1.381-.684-.274.052-.524.284-.669.62-.145.337.134.826.394 1.177l3.656 4.898c.48.648.744 1.441.744 2.24v.95a.75.75 0 0 1-1.5 0v-.95a2.27 2.27 0 0 0-.447-1.343l-3.657-4.899c-.72-.972-.91-1.868-.568-2.663.342-.797 1.002-1.357 1.767-1.503.627-.119 1.611-.023 2.734 1.11l.015.017.3.32V3.549c.041-1.479 1.257-2.275 2.437-2.298 1.188-.022 2.445.75 2.545 2.268l.002.05v5.177c1.726.081 4.869.75 6.489 2.539.923 1.018 1.244 2.284.928 3.661l-.093.416-.049.22c-.203.905-.834 2.675-1.601 3.774-.405.581-.376 1.18-.339 1.936.011.226.022.46.022.704a.75.75 0 0 1-.75.75z"/></svg>