<svg xmlns="http://www.w3.org/2000/svg" fill="none" viewBox="0 0 24 24"><path fill="currentColor" fill-rule="evenodd" d="M11.955 15.508a4.752 4.752 0 0 1 8.201.193.75.75 0 0 1-1.312.727 3.25 3.25 0 0 0-5.983.732.75.75 0 0 1-1.318.265l-1.136-1.466a.75.75 0 1 1 1.186-.918zm7.76 2.793a.75.75 0 0 0-.576.541 3.25 3.25 0 0 1-5.954.784.75.75 0 0 0-1.299.75 4.752 4.752 0 0 0 8.159.117l.362.467a.75.75 0 0 0 1.185-.92l-1.136-1.464a.75.75 0 0 0-.74-.275" clip-rule="evenodd" opacity=".4"/><path fill="currentColor" fill-rule="evenodd" d="M12.004 1.25h.064c.493 0 .911 0 1.259.031.369.033.713.105 1.047.278q.199.103.378.237c.302.225.516.503.707.82.18.3.362.677.577 1.12l.491 1.014H21a.75.75 0 0 1 0 1.5h-.81l-.443 5.312a.75.75 0 1 1-1.494-.124l.432-5.188H5.297l.556 9.242c.079 1.3.135 2.221.247 2.936.11.702.265 1.13.495 1.461.258.371.59.685.975.92.42.256.967.389 1.97.442a.75.75 0 1 1-.08 1.498c-1.07-.057-1.927-.204-2.672-.66a4.75 4.75 0 0 1-1.425-1.344c-.412-.593-.617-1.27-.745-2.085-.124-.793-.184-1.787-.26-3.04l-.564-9.37H3a.75.75 0 1 1 0-1.5h4.572l.42-.92c.209-.459.387-.85.564-1.16.187-.328.401-.618.707-.852a3 3 0 0 1 .382-.246c.34-.18.692-.255 1.07-.29.355-.032.784-.032 1.289-.032M9.22 4.75h5.64l-.161-.331c-.233-.48-.386-.795-.527-1.03-.134-.223-.229-.324-.318-.391a1.3 1.3 0 0 0-.172-.108c-.098-.05-.23-.092-.49-.115a15 15 0 0 0-1.157-.025c-.546 0-.906 0-1.186.026-.265.024-.4.067-.5.12a1.3 1.3 0 0 0-.174.112c-.09.07-.185.175-.317.406-.14.244-.29.571-.516 1.068z" clip-rule="evenodd"/></svg>