<svg xmlns="http://www.w3.org/2000/svg" fill="none" viewBox="0 0 24 24"><path fill="currentColor" fill-rule="evenodd" d="M22.576 3.48a.75.75 0 1 0-1.152-.96l-4.3 5.16c-.376-1.363-1.614-2.463-3.115-2.472-1.04-2.612-4.982-2.61-6.019.003-1.917.023-3.476 1.847-3.202 3.756a3.27 3.27 0 0 0-1.97 2.367l-.08.016c-.35.077-.714.22-1 .504-.61.603-.55 1.482-.345 2.309.396 1.596 1.167 2.604 2.063 3.44.372.347.772.67 1.16.983l.002.002.189.153c.419.34.83.683 1.23 1.075l-.028.077c-.023.056-.05.116-.083.19l-.004.01a7 7 0 0 0-.098.228A1.8 1.8 0 0 0 5.67 21c0 .356.085.69.28.974.193.282.453.457.705.566.47.202 1.015.211 1.36.211h5.97c.345 0 .89-.01 1.36-.211a1.6 1.6 0 0 0 .704-.566c.195-.284.281-.618.28-.974 0-.282-.094-.532-.16-.688-.034-.08-.07-.16-.102-.227l-.004-.01a5 5 0 0 1-.109-.25c.403-.396.817-.74 1.239-1.083l.19-.154c.388-.314.789-.637 1.16-.985.896-.835 1.667-1.843 2.063-3.44.206-.826.266-1.705-.344-2.308-.287-.284-.65-.427-1.001-.504l-.08-.016a3.27 3.27 0 0 0-1.433-2.06zm-5 7.77H4.415A1.75 1.75 0 0 1 5.8 10.244a.75.75 0 0 0 .601-1.048c-.565-1.277.662-2.737 1.976-2.447.412.092.773.331 1.022.665a.75.75 0 1 0 1.202-.897 3.3 3.3 0 0 0-1.114-.947c.74-1.26 2.944-1.068 3.236.578a.75.75 0 0 0 .9.601c1.184-.261 2.255.862 2.103 1.999a3.1 3.1 0 0 0-1.028.258.75.75 0 1 0 .604 1.373c.864-.38 1.875.062 2.274.871M2.753 13.06c-.013.143.005.377.096.742.31 1.246.89 2.012 1.63 2.704.33.308.684.594 1.074.909l.199.161c.461.375.958.787 1.449 1.281.581.585.31 1.318.2 1.594a7 7 0 0 1-.104.243c-.034.075-.06.134-.083.19a1 1 0 0 0-.043.125l-.001.003a.4.4 0 0 0 .016.111l.001.002.001.001.006.006a.3.3 0 0 0 .054.029c.063.027.162.053.304.069q.21.022.462.02h5.971q.253.002.463-.02c.142-.016.24-.042.304-.07a.3.3 0 0 0 .053-.028l.006-.006.002-.003.005-.015a.4.4 0 0 0 .012-.095c-.002-.007-.011-.043-.044-.121-.023-.055-.05-.112-.084-.187a7 7 0 0 1-.108-.241 1.9 1.9 0 0 1-.164-.692c-.006-.317.1-.645.368-.915a18 18 0 0 1 1.45-1.28l.199-.162c.39-.316.743-.601 1.073-.91.741-.69 1.321-1.457 1.63-2.703.091-.365.109-.598.096-.741a.4.4 0 0 0-.025-.119l-.014-.022c-.01-.01-.07-.061-.267-.104s-.472-.066-.852-.066H3.911c-.38 0-.655.023-.852.066s-.256.093-.266.104l-.015.022a.4.4 0 0 0-.025.119" clip-rule="evenodd"/><path fill="currentColor" fill-rule="evenodd" d="M18.336 1.33a.75.75 0 0 1 .335 1.006l-2 4a.75.75 0 0 1-1.342-.671l2-4a.75.75 0 0 1 1.007-.336" clip-rule="evenodd" opacity=".4"/></svg>