<svg xmlns="http://www.w3.org/2000/svg" fill="none" viewBox="0 0 24 24"><path fill="currentColor" fill-rule="evenodd" d="M11.443 1.75h1.114c2.073 0 3.705 0 4.98.171 1.31.176 2.354.545 3.175 1.367.822.821 1.19 1.866 1.367 3.174.171 1.276.171 2.908.171 4.981v1.114c0 2.073 0 3.705-.171 4.98-.176 1.31-.545 2.354-1.367 3.175-.821.822-1.866 1.19-3.174 1.367-1.276.171-2.908.171-4.981.171h-1.114c-2.073 0-3.705 0-4.98-.171-1.31-.176-2.354-.545-3.175-1.367-.822-.821-1.19-1.866-1.367-3.174-.171-1.276-.171-2.908-.171-4.981v-1.114c0-2.073 0-3.705.171-4.98.176-1.31.545-2.354 1.367-3.175.821-.822 1.866-1.19 3.174-1.367 1.276-.171 2.908-.171 4.981-.171m-4.78 1.658c-1.143.154-1.818.444-2.315.94-.496.497-.786 1.172-.94 2.314-.156 1.164-.158 2.695-.158 4.838v1c0 2.143.002 3.674.158 4.838.154 1.142.444 1.817.94 2.314.497.496 1.172.786 2.314.94 1.164.156 2.695.158 4.838.158h1c2.143 0 3.674-.002 4.838-.158 1.142-.154 1.817-.444 2.314-.94.496-.497.786-1.172.94-2.314.156-1.164.158-2.696.158-4.838v-1c0-2.143-.002-3.674-.158-4.838-.154-1.142-.444-1.817-.94-2.314-.497-.496-1.172-.786-2.314-.94-1.164-.156-2.696-.158-4.838-.158h-1c-2.143 0-3.674.002-4.838.158" clip-rule="evenodd"/><path fill="currentColor" fill-rule="evenodd" d="M13 17.002c.044-.433.159-.846.332-1.227L17 15.002a3.9 3.9 0 0 1-.332 1.228zm4-4.523a3.9 3.9 0 0 1-.342 1.235l-3.776.777v-2.328l-1.177.242v1.291a.55.55 0 0 1-.1.318l-.612.878c-.152.214-.385.37-.657.424L7 16.002a3.9 3.9 0 0 1 .342-1.234l3.187-.655v-1.466l-2.974.611c.045-.435.163-.85.342-1.234l2.632-.541V6.958a4.1 4.1 0 0 1 1.176-.956v5.24l1.177-.243V7.527a4.1 4.1 0 0 1 1.176-.956v4.186L17 10.152a3.9 3.9 0 0 1-.342 1.234l-2.6.535v1.164z" clip-rule="evenodd" opacity=".4"/></svg>