<svg xmlns="http://www.w3.org/2000/svg" fill="none" viewBox="0 0 24 24"><path fill="currentColor" fill-rule="evenodd" d="m4.081 17.773 2.024-2.959c.41-.67.64-1.46.64-2.28 0-1.81 1.48-3.29 3.29-3.29h2.46c.48 0 .82-.45.92-.89.6-2.85 2.61-4.16 3.13-4.46l1.42-1.42c.22-.21.54-.28.82-.16s.46.39.46.69v1.16l3.24 2.78c.29.25.35.67.14.99l-1 1.5c-.19.28-.54.4-.86.3l-2.38-.79-.13.26v2.6c0 1.25.45 2.47 1.26 3.42l1.459 1.703q.252-.225.491-.463c.29-.29.77-.29 1.06 0s.29.77 0 1.06c-2.69 2.68-6.53 4.22-10.53 4.22s-7.84-1.54-10.53-4.22a.754.754 0 0 1 0-1.06c.29-.29.77-.29 1.06 0q.722.717 1.556 1.31m15.709.084-1.424-1.653a6.77 6.77 0 0 1-1.62-4.4v-2.78c0-.12.03-.23.08-.33l.5-1c.17-.33.55-.49.91-.38l2.46.82.31-.47-3-2.57a.66.66 0 0 1-.21-.31l-.27.27a.7.7 0 0 1-.208.145c-.147.081-1.934 1.072-2.443 3.485-.25 1.21-1.26 2.09-2.38 2.09h-2.46c-.99 0-1.79.8-1.79 1.79 0 1.09-.31 2.17-.89 3.1l-1.983 2.914a13.9 13.9 0 0 0 6.624 1.666c2.84 0 5.58-.854 7.794-2.387" clip-rule="evenodd"/><path fill="currentColor" fill-rule="evenodd" d="M2.466 14.524c.15.15.34.22.53.22s.38-.07.53-.22c.78-.77 1.22-1.85 1.22-2.94v-1.24c0-.61.49-1.1 1.1-1.1.47 0 .78.19.99.6a2.83 2.83 0 0 0 1.365 1.338l.005.002c.38.15.81-.02.97-.4a.76.76 0 0 0-.39-.98l-.015-.008a1.42 1.42 0 0 1-.595-.622c-.47-.92-1.29-1.43-2.33-1.43-1.43 0-2.6 1.17-2.6 2.6v1.24c0 .7-.28 1.38-.78 1.88-.29.29-.29.77 0 1.06m3.6 5.58c.13.1.28.14.43.14h.01c.23 0 .46-.11.61-.32l1.96-2.8a4.4 4.4 0 0 1 3.61-1.88c1.25 0 2.46.54 3.29 1.48l2.46 2.77c.28.31.75.34 1.06.06s.34-.75.06-1.06l-2.46-2.77a5.9 5.9 0 0 0-4.41-1.98c-1.93 0-3.74.94-4.84 2.52l-1.96 2.8c-.24.33-.16.8.18 1.04" clip-rule="evenodd" opacity=".4"/></svg>