<svg xmlns="http://www.w3.org/2000/svg" fill="none" viewBox="0 0 24 24"><path fill="currentColor" fill-rule="evenodd" d="M19.9 2.981A.79.79 0 1 1 21.019 4.1c-.12.12-.406.34-.799.584a8 8 0 0 1-1.203.619l.547 1.396a9 9 0 0 0 1.449-.742c.426-.265.826-.556 1.066-.797a2.29 2.29 0 1 0-3.238-3.238c-.24.24-.532.64-.797 1.066a9 9 0 0 0-.742 1.449l1.396.547c.153-.388.382-.821.62-1.203.244-.393.464-.68.584-.799M4.437 17.305a9 9 0 0 0-1.449.742c-.426.265-.826.556-1.066.797a2.29 2.29 0 0 0 3.238 3.238c.24-.24.532-.64.797-1.066.271-.436.548-.952.742-1.449l-1.396-.547a8 8 0 0 1-.62 1.203c-.243.393-.464.68-.583.799a.79.79 0 0 1-1.118-1.117c.12-.12.406-.34.799-.585a8 8 0 0 1 1.203-.619z" clip-rule="evenodd" opacity=".4"/><path fill="currentColor" d="M8.354 20.75c-.263 0-.475-.065-.707-.136l-.017-.005c-.904-.283-1.826-.866-2.601-1.642-.783-.784-1.364-1.708-1.637-2.602-.107-.337-.212-.664-.081-1.176.12-.512.41-.8.777-1.167l9.931-9.93c.383-.382.658-.657 1.172-.783.505-.124.809-.03 1.16.077l.018.005c.904.283 1.826.866 2.601 1.642.783.784 1.364 1.708 1.637 2.602.107.337.212.664.081 1.176-.12.512-.41.801-.777 1.167L9.98 19.91c-.383.381-.658.656-1.172.782a2 2 0 0 1-.454.06m7.284-16c-.028 0-.051.006-.089.015-.094.023-.155.074-.469.387l-9.93 9.93c-.307.306-.36.37-.378.451l-.005.023q-.026.099.059.363c.205.672.654 1.376 1.266 1.99.607.607 1.311 1.058 1.983 1.268l.012.004q.261.08.365.055c.094-.023.155-.074.469-.387L18.85 8.92c.308-.307.36-.37.379-.452l.005-.023q.026-.098-.059-.363c-.205-.672-.654-1.376-1.266-1.989-.607-.608-1.311-1.059-1.983-1.269l-.012-.004c-.167-.05-.227-.07-.276-.07"/></svg>