<svg xmlns="http://www.w3.org/2000/svg" fill="none" viewBox="0 0 24 24"><path fill="currentColor" fill-rule="evenodd" d="m16.94 2.25.054.001c2.724.142 4.694 1.238 5.44 3.28.717 1.96.191 4.514-1.337 7.333a.75.75 0 1 1-1.319-.715c1.456-2.685 1.742-4.75 1.248-6.102-.462-1.263-1.718-2.167-4.083-2.297-3.453.076-7.094 1.949-10.05 4.941-1.25 1.265-2.464 2.779-3.252 4.378s-1.122 3.223-.72 4.759c.157.595.446.997.976 1.418l-.467.587.467-.587c.748.594 1.453.895 2.32.98.896.086 2.008-.055 3.575-.438 3.043-.928 4.943-2.308 6.564-3.75a.74.74 0 0 1 .587-.28c.41 0 .694.303.747.645.403 1.317.07 2.512-.54 4.345a.75.75 0 0 1-1.423-.474c.34-1.021.538-1.711.61-2.255-1.54 1.23-3.427 2.39-6.128 3.21l-.04.01c-1.625.4-2.94.591-4.097.48-1.188-.116-2.162-.547-3.108-1.299-.732-.581-1.24-1.244-1.493-2.212-.525-2.003-.06-4.009.824-5.802S4.51 8.97 5.825 7.637C8.974 4.45 12.978 2.326 16.941 2.25m-.701 14.51.7-.237z" clip-rule="evenodd" opacity=".4"/><path fill="currentColor" fill-rule="evenodd" d="M19.784 3.594a.75.75 0 0 1 1.05-.158C22 4.298 22.67 5.587 22.728 7.21c.058 1.593-.469 3.485-1.61 5.645a.75.75 0 1 1-1.326-.701c1.073-2.03 1.482-3.655 1.437-4.89-.044-1.203-.517-2.052-1.288-2.622a.75.75 0 0 1-.158-1.048M16.4 15.983a.753.753 0 0 1 1.327.34c.118.372.21.808.158 1.474-.054.69-.26 1.606-.71 2.954a.75.75 0 0 1-1.423-.474c.355-1.065.529-1.783.603-2.288-1.538 1.236-3.43 2.425-6.12 3.243l-.053.014c-1.631.369-2.9.57-4.016.479-1.156-.094-2.098-.494-3.09-1.216l-.024-.02a9 9 0 0 1-.555-.488.75.75 0 1 1 1.036-1.084c.106.101.276.257.44.389.808.587 1.489.857 2.314.924.865.07 1.935-.08 3.537-.442 3.034-.926 4.948-2.356 6.576-3.805m1.082 1.034-.495-.552zm-.003.002-.492-.55zm-1.2-.32.7-.238z" clip-rule="evenodd"/></svg>