<svg xmlns="http://www.w3.org/2000/svg" fill="none" viewBox="0 0 24 24"><path fill="currentColor" d="M8.214 22.75a.75.75 0 0 1-.372-1.401l.876-.5c.533-.307 1.19-.404 1.85-.275.909.19 1.31.164 1.44.144.645-.097 1.383-.506 2.99-1.42l4.639-2.64a.5.5 0 0 0 .247-.314.55.55 0 0 0-.061-.426.58.58 0 0 0-.777-.225l-3.382 1.929a.75.75 0 1 1-.743-1.303l3.385-1.93.004-.002 1.503-.85a.5.5 0 0 0 .245-.314.56.56 0 0 0-.06-.435.585.585 0 0 0-.778-.214l-4.135 2.349a.75.75 0 0 1-.741-1.305l4.136-2.35.002-.001 1.504-.85a.53.53 0 0 0 .246-.323.56.56 0 0 0-.061-.427.57.57 0 0 0-.771-.218l-1.132.642-.003.002-3.76 2.129a.75.75 0 0 1-.74-1.305l3.759-2.128a.53.53 0 0 0 .249-.325.56.56 0 0 0-.061-.427.57.57 0 0 0-.771-.218l-6.37 3.613a.749.749 0 0 1-1.095-.843l.504-1.92a.7.7 0 0 0-.097-.574.75.75 0 0 0-.515-.335.7.7 0 0 0-.76.414l-1.86 4.673c-.396 1-1.307 2.004-2.376 2.614a.75.75 0 1 1-.743-1.303c.763-.436 1.457-1.185 1.725-1.864l1.864-4.682.005-.013a2.21 2.21 0 0 1 2.376-1.322 2.27 2.27 0 0 1 1.542.999c.343.526.448 1.172.29 1.773l-.052.199 4.818-2.733c.973-.562 2.236-.221 2.812.764q.177.305.244.638c.844-.176 1.752.2 2.215.992a2.05 2.05 0 0 1 .215 1.568c-.12.446-.38.83-.746 1.104q.203.193.354.444c.286.49.36 1.053.214 1.59a2 2 0 0 1-.744 1.09q.207.198.358.456a2.04 2.04 0 0 1 .213 1.575c-.142.524-.482.96-.957 1.227L15.74 20.6c-1.651.94-2.56 1.457-3.508 1.6-.464.07-1.124.017-1.962-.158-.296-.058-.585-.021-.806.106l-.878.5a.75.75 0 0 1-.371.1z"/><path fill="currentColor" d="M2.997 6.74a.75.75 0 0 1-.659-1.106q.047-.087.095-.185c.311-.617.781-1.548 2.664-2.863 1.698-1.188 3.61-1.592 5.53-1.166a7.95 7.95 0 0 1 3.616 1.912 7.5 7.5 0 0 0-.023-1.238.75.75 0 1 1 1.488-.186c.003.027.253 2.722-.512 3.562l-.058.058c-.699.64-2.575.484-3.356.386a.751.751 0 0 1 .187-1.49c.43.055.915.078 1.325.072-.719-.687-1.802-1.35-2.992-1.613-1.519-.337-2.98-.024-4.344.93-1.573 1.1-1.927 1.8-2.184 2.31q-.059.118-.115.224A.75.75 0 0 1 3 6.74z" opacity=".4"/></svg>