<svg xmlns="http://www.w3.org/2000/svg" fill="none" viewBox="0 0 24 24"><path fill="currentColor" fill-rule="evenodd" d="M18 11.751c-.468 0-.909-.176-1.24-.495l-.431-.408-.009-.008c-1.675-1.572-3.968-3.725-2.71-6.71.735-1.724 2.5-2.88 4.39-2.88 1.891 0 3.655 1.156 4.39 2.877 1.267 3.004-1.052 5.169-2.745 6.749l-.032.03-.375.352c-.33.318-.77.492-1.238.492zm0-9c-1.299 0-2.508.79-3.01 1.965-.792 1.879.42 3.212 2.356 5.031l.105.098q.177.166.347.329c.103.099.302.097.401.002l.004-.004q.204-.194.418-.392c1.961-1.83 3.186-3.172 2.387-5.066-.5-1.173-1.71-1.962-3.009-1.962zm.01 4.25a1.005 1.005 0 0 1-1.005-1c0-.552.443-1 .995-1h.01a1 1 0 0 1 0 2m-16.76 12A3.754 3.754 0 0 0 5 22.751a3.754 3.754 0 0 0 3.75-3.75A3.754 3.754 0 0 0 5 15.251a3.754 3.754 0 0 0-3.75 3.75m1.5 0A2.25 2.25 0 0 1 5 16.751a2.25 2.25 0 0 1 2.25 2.25A2.25 2.25 0 0 1 5 21.251a2.25 2.25 0 0 1-2.25-2.25" clip-rule="evenodd" opacity=".4"/><path fill="currentColor" d="M12.5 19.75H11a.75.75 0 0 1 0-1.5h1.5c1.516 0 2.75-1.009 2.75-2.25s-1.234-2.25-2.75-2.25h-3c-2.343 0-4.25-1.682-4.25-3.75S7.157 6.25 9.5 6.25H11a.75.75 0 0 1 0 1.5H9.5c-1.516 0-2.75 1.009-2.75 2.25s1.234 2.25 2.75 2.25h3c2.343 0 4.25 1.682 4.25 3.75s-1.907 3.75-4.25 3.75"/></svg>