<svg xmlns="http://www.w3.org/2000/svg" fill="none" viewBox="0 0 24 24"><path fill="currentColor" fill-rule="evenodd" d="M11.941 4.25h.05a.75.75 0 0 1 0 1.5c-2.378 0-4.096.001-5.407.15-1.3.15-2.083.434-2.651.916-.844.716-1.121 1.785-1.183 4.203a.75.75 0 1 1-1.5-.038c.061-2.388.31-4.117 1.712-5.308.897-.762 2.026-1.1 3.452-1.263 1.405-.16 3.21-.16 5.527-.16M22 12.75a.75.75 0 0 1 .75.75v.065c0 1.948 0 3.5-.192 4.716-.2 1.265-.623 2.269-1.538 3.046-.76.645-1.687.986-2.818 1.174-1.118.186-2.497.232-4.201.244h-.012l-.043.001a57 57 0 0 1-.954.004.75.75 0 0 1 0-1.5l.937-.004h.058c1.71-.013 2.98-.06 3.969-.224.974-.162 1.61-.43 2.093-.838.55-.468.86-1.088 1.027-2.138.172-1.085.174-2.518.174-4.546a.75.75 0 0 1 .75-.75" clip-rule="evenodd"/><path fill="currentColor" fill-rule="evenodd" d="M15.781 3.952A2.71 2.71 0 0 1 18.5 1.25c.672 0 1.29.244 1.766.647a.75.75 0 0 1-.971 1.144 1.22 1.22 0 0 0-.795-.291 1.21 1.21 0 0 0-1.219 1.202v.66q.249-.002.532-.002h1.374c.485 0 .894 0 1.23.028.351.03.69.095 1.01.264.435.231.793.586 1.027 1.02.172.319.237.656.267 1.006.029.334.029.74.029 1.22v.063c0 .48 0 .887-.029 1.22-.03.35-.095.688-.267 1.008a2.5 2.5 0 0 1-1.028 1.019c-.32.17-.658.234-1.01.264-.335.028-.744.028-1.229.028h-1.374c-.485 0-.894 0-1.23-.028-.351-.03-.69-.095-1.01-.264a2.5 2.5 0 0 1-1.027-1.02c-.172-.319-.237-.656-.267-1.007-.029-.333-.029-.74-.029-1.22V8.15c0-.48 0-.887.029-1.22.03-.35.095-.688.267-1.008a2.5 2.5 0 0 1 1.028-1.019q.102-.053.207-.095zm.928 2.18c-.255.022-.366.06-.433.096a1 1 0 0 0-.41.405c-.034.064-.071.172-.093.424-.022.261-.023.604-.023 1.123 0 .52 0 .862.023 1.123.022.252.06.36.094.424a1 1 0 0 0 .41.405c.066.036.177.074.432.095.265.022.611.023 1.135.023h1.312c.524 0 .87 0 1.135-.023.255-.021.366-.06.433-.095a1 1 0 0 0 .41-.405c.034-.064.071-.172.093-.424.022-.261.023-.604.023-1.123 0-.52 0-.862-.023-1.123-.022-.252-.06-.36-.094-.424a1 1 0 0 0-.41-.405c-.066-.036-.177-.074-.432-.095a15 15 0 0 0-1.135-.023h-1.312c-.524 0-.87 0-1.135.023M1.984 21a1 1 0 0 1 1-1h.01a1 1 0 1 1 0 2h-.01a1 1 0 0 1-1-1m.061-7.75a.75.75 0 0 0 0 1.5c3.564 0 7.205 3.192 7.205 7.25a.75.75 0 0 0 1.5 0c0-4.942-4.369-8.75-8.705-8.75M2 16.485a.75.75 0 0 0 0 1.5c2.08 0 4.02 1.931 4.02 4.015a.75.75 0 0 0 1.5 0c0-2.916-2.614-5.515-5.52-5.515" clip-rule="evenodd" opacity=".4"/></svg>