<svg xmlns="http://www.w3.org/2000/svg" fill="none" viewBox="0 0 24 24"><path fill="currentColor" fill-rule="evenodd" d="M12.247 15.52c-3.517 1.111-6.27.639-10.491-.81l.487-1.419c4.107 1.41 6.488 1.767 9.552.798l.02-.006c.482-.152.87-.275 1.175-.356.296-.078.601-.142.889-.122.3.02.648.154.988.298.368.155.854.382 1.475.671l.015.008c1.456.678 3.381 1.038 5.316.102l.653 1.35c-2.471 1.196-4.892.705-6.603-.093-.64-.298-1.1-.513-1.44-.657a5 5 0 0 0-.389-.15c-.086-.028-.12-.033-.12-.033h.002c-.023-.002-.123.002-.403.076-.266.07-.62.183-1.126.342" clip-rule="evenodd" opacity=".4"/><path fill="currentColor" fill-rule="evenodd" d="M10.71 5.33a.75.75 0 0 1 .91.186c.688.816 1.575 1.542 2.562 2.241l.288-.287a.75.75 0 1 1 1.06 1.06l-.082.082q.415.27.838.54l.184-.182a.75.75 0 0 1 1.104 1.012c2.052 1.34 4.133 2.858 4.983 4.955.23.565.25 1.126.085 1.64-.162.504-.483.912-.856 1.225-.731.614-1.764.948-2.685.948H7.897c-1.41 0-2.562 0-3.469-.15-.96-.158-1.746-.5-2.345-1.248-.566-.707-.782-1.64-.825-2.575-.043-.947.088-1.986.305-2.992.433-2.01 1.234-4.02 1.856-5.147a.75.75 0 0 1 1.397.24c.116.699.782 1.18 1.98 1.41.756.146 1.574.154 2.232.101-.176-.747-.069-1.386.267-1.915.402-.636 1.06-.966 1.38-1.127zm5.783 5.738.08.052c2.173 1.411 3.923 2.725 4.594 4.38.105.26.098.459.046.62-.055.172-.18.356-.39.533-.436.365-1.117.597-1.722.597H7.963c-1.493 0-2.52-.002-3.29-.13-.73-.12-1.125-.338-1.42-.706-.283-.354-.46-.92-.496-1.705-.036-.774.072-1.675.273-2.608a20.4 20.4 0 0 1 1.095-3.455c.646.633 1.567.958 2.387 1.116 1.37.263 2.869.157 3.703-.03a.75.75 0 0 0 .508-1.065c-.416-.837-.273-1.214-.161-1.39.08-.127.193-.232.33-.328.65.68 1.41 1.3 2.215 1.883l-.137.138a.75.75 0 1 0 1.06 1.06l.334-.333q.418.275.836.543l-.23.23a.75.75 0 1 0 1.06 1.06z" clip-rule="evenodd"/></svg>