<svg xmlns="http://www.w3.org/2000/svg" fill="none" viewBox="0 0 24 24"><path fill="currentColor" fill-rule="evenodd" d="m15.258 8.741-1.187 2.77c-.2.465-.342.793-.462 1.038l-2.158-2.159c.244-.12.573-.263 1.037-.462zm-4.868 2.71c-.12.244-.263.573-.462 1.037l-1.187 2.77 2.77-1.187c.465-.2.793-.342 1.038-.462zm5.66-4.657c.131-.036.584-.145.942.213.359.359.25.811.213.943-.042.155-.12.335-.185.488l-.014.032-1.556 3.632-.053.124c-.386.9-.659 1.539-1.146 2.025-.486.487-1.124.76-2.025 1.146l-.124.053-3.632 1.556q-.014.008-.032.014a4 4 0 0 1-.488.185c-.132.036-.584.146-.943-.213-.358-.358-.249-.81-.213-.943.042-.154.12-.335.185-.488l.014-.032 1.557-3.632q.026-.063.053-.123c.385-.901.658-1.54 1.145-2.026.487-.487 1.125-.76 2.026-1.145l.123-.053 3.632-1.557.032-.014c.153-.065.334-.143.488-.185" clip-rule="evenodd" opacity=".4"/><path fill="currentColor" fill-rule="evenodd" d="M12.75 3.5v-.72a9.25 9.25 0 0 1 8.47 8.47h-.72a.75.75 0 0 0 0 1.5h.72a9.25 9.25 0 0 1-8.47 8.47v-.72a.75.75 0 0 0-1.5 0v.72a9.25 9.25 0 0 1-8.47-8.47h.72a.75.75 0 0 0 0-1.5h-.72a9.25 9.25 0 0 1 8.47-8.47v.72a.75.75 0 0 0 1.5 0M1.25 12C1.25 6.063 6.063 1.25 12 1.25S22.75 6.063 22.75 12 17.937 22.75 12 22.75 1.25 17.937 1.25 12" clip-rule="evenodd"/></svg>