<svg xmlns="http://www.w3.org/2000/svg" fill="none" viewBox="0 0 24 24"><path fill="currentColor" fill-rule="evenodd" d="M10 14.25c-.81 0-1.651.076-2.19.705-.263.307-.395.68-.467 1.06s-.093.822-.093 1.318v2.334c0 .496.021.939.093 1.317.072.382.204.754.467 1.061.539.629 1.38.705 2.19.705h4c.81 0 1.651-.076 2.19-.705.263-.307.395-.68.467-1.06s.093-.822.093-1.318v-2.334c0-.496-.021-.939-.093-1.317-.072-.382-.204-.754-.467-1.061-.539-.629-1.38-.705-2.19-.705zm-1.25 3.083c0-.469.022-.8.067-1.04.044-.237.102-.327.132-.362.047-.056.207-.181 1.051-.181h4c.844 0 1.004.125 1.051.18.03.036.088.126.132.363.045.24.067.571.067 1.04v2.334c0 .469-.022.8-.067 1.04-.044.237-.102.327-.132.362-.047.056-.207.181-1.051.181h-4c-.844 0-1.004-.125-1.051-.18-.03-.036-.088-.126-.132-.363-.045-.24-.067-.571-.067-1.04zM12 2.75c3.793 0 6.77 2.47 7.197 5.5H4.803c.426-3.03 3.404-5.5 7.197-5.5m0-1.5C7.265 1.25 3.25 4.629 3.25 9c0 .414.336.75.75.75h16a.75.75 0 0 0 .75-.75c0-4.371-4.015-7.75-8.75-7.75" clip-rule="evenodd"/><path fill="currentColor" fill-rule="evenodd" d="M12.008 18.25a.75.75 0 0 0 0-1.5h-.01a.75.75 0 0 0 0 1.5zM4.45 8.4a.75.75 0 0 0-.9 1.2l8 6c.267.2.633.2.9 0l8-6a.75.75 0 1 0-.9-1.2L12 14.063z" clip-rule="evenodd" opacity=".4"/></svg>