<svg xmlns="http://www.w3.org/2000/svg" fill="none" viewBox="0 0 24 24"><path fill="currentColor" fill-rule="evenodd" d="M14.53 11.485a.75.75 0 0 1 0 1.061l-.13.13c.242.534.197 1.062.177 1.292l-.005.073a.75.75 0 0 1-1.498-.08l.003-.06c.022-.397.032-.585-.157-.758a1.2 1.2 0 0 0-.409-.223c-.18-.064-.45.004-.623.211a.44.44 0 0 0-.112.264c-.003.072.017.19.143.347a7 7 0 0 0 .312.357l.002.002c.099.108.22.24.323.384.245.34.387.726.36 1.252-.024.47-.258.88-.545 1.182-.291.307-.68.55-1.116.684a2.14 2.14 0 0 1-1.618-.163l-.107.106a.75.75 0 0 1-1.06-1.06l.11-.11c-.254-.498-.25-.937-.249-1.126v-.055a.75.75 0 0 1 1.5-.028v.106c0 .094.001.154.02.245a.85.85 0 0 0 .212.387c.224.252.536.33.752.264a1.1 1.1 0 0 0 .469-.283c.116-.123.133-.21.134-.226a.5.5 0 0 0-.014-.18.4.4 0 0 0-.064-.116 3 3 0 0 0-.218-.255l-.018-.02a9 9 0 0 1-.353-.407c-.329-.408-.49-.87-.474-1.337.015-.459.199-.865.461-1.178.505-.601 1.404-.968 2.272-.662q.164.058.312.128l.148-.148a.75.75 0 0 1 1.06 0" clip-rule="evenodd" opacity=".4"/><path fill="currentColor" fill-rule="evenodd" d="M14.606 5.36a26 26 0 0 0-1.482-.07h-.034l-.034.002c-.437.04-.84.219-1.163.495l-.016.014-.015.015c-2.097 2.014-5.816 5.663-7.876 7.8l-.01.01-.008.01c-.936 1.041-.942 2.591-.105 3.669l.031.04.037.037c.505.492 1.022 1.011 1.548 1.539 1.06 1.064 2.158 2.166 3.272 3.167l.02.019.023.017c1.079.833 2.63.827 3.673-.104l.014-.012.012-.013c1.94-1.903 5.788-5.74 7.732-7.778l.013-.013.012-.014a2.07 2.07 0 0 0 .497-1.162l.004-.035v-.034c0-.77-.071-2.569-.33-4.086-.134-.787-.27-1.466-.542-1.966a1.94 1.94 0 0 0-.612-.692 2.1 2.1 0 0 0-.626-.283 6 6 0 0 0 .046-.263c.205-1.349-.078-2.756-1.109-3.674-.937-.835-2.031-.843-3.027-.568-.869.24-1.778.727-2.599 1.167l-.24.128c-.934.498-1.75.904-2.476 1.032-.348.062-.644.053-.902-.024-.253-.075-.513-.227-.777-.52a.75.75 0 0 0-1.114 1.004c.431.478.922.793 1.464.954.535.159 1.075.154 1.59.063 1-.176 2.022-.706 2.92-1.185l.212-.113c.864-.461 1.623-.867 2.322-1.06.714-.197 1.21-.131 1.63.242.53.472.78 1.295.623 2.328-.156 1.024-.706 2.146-1.61 3.038a.75.75 0 0 0 1.053 1.068 7.4 7.4 0 0 0 1.53-2.188c.133.03.203.065.244.093a.45.45 0 0 1 .141.17c.132.243.238.667.38 1.501.235 1.378.306 3.048.308 3.792a.57.57 0 0 1-.126.281c-1.927 2.018-5.731 5.812-7.667 7.713-.473.412-1.197.435-1.726.041-1.077-.97-2.113-2.01-3.148-3.049-.52-.522-1.04-1.043-1.563-1.555-.383-.526-.354-1.236.056-1.701 2.037-2.113 5.715-5.722 7.807-7.732a.6.6 0 0 1 .282-.126c.312.003.767.032 1.284.065q.334.022.694.042a.75.75 0 0 0 .086-1.497z" clip-rule="evenodd"/></svg>