<svg xmlns="http://www.w3.org/2000/svg" fill="none" viewBox="0 0 24 24"><path fill="currentColor" fill-rule="evenodd" d="M12 3.75a8.25 8.25 0 0 0-5.834 14.084.75.75 0 0 1-1.06 1.06A9.72 9.72 0 0 1 2.25 12a9.75 9.75 0 0 1 14.625-8.445.75.75 0 1 1-.75 1.298A8.2 8.2 0 0 0 12 3.75m8.784 6.14a.75.75 0 0 1 .854.628q.111.727.112 1.482A9.75 9.75 0 0 1 12 21.75a9.7 9.7 0 0 1-3.792-.765.75.75 0 0 1 .584-1.382 8.25 8.25 0 0 0 11.363-8.859.75.75 0 0 1 .628-.854" clip-rule="evenodd" opacity=".4"/><path fill="currentColor" fill-rule="evenodd" d="M16.281 4.423c1.306-.808 2.442-1.33 3.322-1.552.931-.236 1.328-.081 1.467.057.104.104.228.354.16.929-.051.442-.209.993-.482 1.641a3.25 3.25 0 0 0-3.45 5.392 44 44 0 0 1-3.04 3.363c-2.616 2.616-5.272 4.657-7.437 5.848-1.086.598-2.01.96-2.72 1.092-.737.138-1.053-.003-1.172-.122-.14-.14-.295-.538-.056-1.475.225-.885.752-2.028 1.566-3.34a.75.75 0 1 0-1.275-.791c-.854 1.377-1.467 2.667-1.745 3.761-.265 1.043-.288 2.17.45 2.906.65.65 1.606.704 2.507.536.93-.174 2.013-.617 3.168-1.253 2.32-1.277 5.088-3.414 7.775-6.101a45 45 0 0 0 3.308-3.683A3.254 3.254 0 0 0 22.75 8.5c0-.797-.287-1.527-.763-2.092.39-.857.65-1.664.734-2.377.091-.782-.019-1.593-.591-2.164l-.53.53.53-.53c-.735-.734-1.856-.713-2.895-.45-1.089.275-2.372.883-3.743 1.73a.75.75 0 0 0 .79 1.276M17.75 8.5a1.75 1.75 0 1 1 3.5 0 1.75 1.75 0 0 1-3.5 0" clip-rule="evenodd"/></svg>