<svg xmlns="http://www.w3.org/2000/svg" fill="none" viewBox="0 0 24 24"><path fill="currentColor" fill-rule="evenodd" d="M10.75 7a4.25 4.25 0 1 1 8.5 0 4.25 4.25 0 0 1-8.5 0M15 1.25a5.75 5.75 0 1 0 0 11.5 5.75 5.75 0 0 0 0-11.5m.975 3.7a.75.75 0 0 0-1.2-.9L12.9 6.55a.75.75 0 0 0 .6 1.2H15l-.975 1.3a.75.75 0 1 0 1.2.9l1.875-2.5a.75.75 0 0 0-.6-1.2H15z" clip-rule="evenodd" opacity=".4"/><path fill="currentColor" fill-rule="evenodd" d="M3.25 14a.75.75 0 0 1 .75-.75h2.395c.406 0 .808.091 1.174.268l2.042.988c.16.078.339.12.52.12h1.043c.838 0 1.595.395 2.069 1.015l4.127-1.268h.001a2.74 2.74 0 0 1 3.034 1.03c.622.86.381 2.102-.552 2.64l-7.515 4.337a2.74 2.74 0 0 1-2.156.257l-6.395-1.898a.75.75 0 0 1 .426-1.438l6.395 1.898c.328.097.679.056.98-.118l7.516-4.337c.14-.081.201-.302.085-.463a1.24 1.24 0 0 0-1.373-.476h-.003l-4.065 1.25.002.087a.84.84 0 0 1-.616.808l-2.541.702a2.7 2.7 0 0 1-1.895-.17l-2.183-1.057a.75.75 0 0 1 .654-1.35l2.183 1.056c.259.126.56.153.841.076l1.934-.535a1.08 1.08 0 0 0-.953-.547h-1.043c-.406 0-.808-.091-1.174-.268l-2.042-.988a1.2 1.2 0 0 0-.52-.119H4a.75.75 0 0 1-.75-.75" clip-rule="evenodd"/></svg>