<svg xmlns="http://www.w3.org/2000/svg" fill="none" viewBox="0 0 24 24"><path fill="currentColor" fill-rule="evenodd" d="M18.955 1.25h1.09c.433 0 .83 0 1.152.043.356.048.731.16 1.04.47s.422.684.47 1.04c.043.323.043.72.043 1.152v1.09c0 .433 0 .83-.043 1.152-.048.356-.16.731-.47 1.04s-.684.422-1.04.47c-.323.043-.72.043-1.152.043h-1.09c-.433 0-.83 0-1.152-.043-.356-.048-.731-.16-1.04-.47s-.422-.684-.47-1.04c-.043-.323-.043-.72-.043-1.152v-1.09c0-.433 0-.83.043-1.152.048-.356.16-.731.47-1.04s.684-.422 1.04-.47c.323-.043.72-.043 1.152-.043m-1.132 1.573.003-.001.01-.005a.7.7 0 0 1 .167-.037c.21-.028.504-.03.997-.03h1c.493 0 .787.002.997.03a.7.7 0 0 1 .177.042l.003.001.001.003.005.01c.009.022.024.07.037.167.028.21.03.504.03.997v1c0 .493-.002.787-.03.997a.7.7 0 0 1-.037.167l-.003.007-.002.003-.001.003-.003.001-.003.002-.007.003a.7.7 0 0 1-.167.037c-.21.028-.504.03-.997.03h-1c-.493 0-.787-.002-.997-.03a.7.7 0 0 1-.177-.042l-.003-.001-.001-.003-.005-.01a.7.7 0 0 1-.037-.167c-.028-.21-.03-.504-.03-.997V4c0-.493.002-.787.03-.997a.7.7 0 0 1 .042-.177zM11.455 8.75h1.09c.433 0 .83 0 1.152.043.356.048.731.16 1.04.47s.422.684.47 1.04c.043.323.043.72.043 1.152v1.09c0 .433 0 .83-.043 1.152-.048.356-.16.731-.47 1.04s-.684.422-1.04.47c-.323.043-.72.043-1.152.043h-1.09c-.433 0-.83 0-1.152-.043-.356-.048-.731-.16-1.04-.47s-.422-.684-.47-1.04c-.043-.323-.043-.72-.043-1.152v-1.09c0-.433 0-.83.043-1.152.048-.356.16-.731.47-1.04s.684-.422 1.04-.47c.323-.043.72-.043 1.152-.043m-1.132 1.573.003-.001.01-.005a.7.7 0 0 1 .167-.037c.21-.028.504-.03.997-.03h1c.493 0 .787.002.997.03a.7.7 0 0 1 .177.042l.003.001.001.003.005.01c.009.022.024.07.037.167.028.21.03.504.03.997v1c0 .493-.002.787-.03.997a.7.7 0 0 1-.042.177l-.001.003-.003.001-.01.005a.7.7 0 0 1-.167.037c-.21.028-.504.03-.997.03h-1c-.493 0-.787-.002-.997-.03a.7.7 0 0 1-.177-.042l-.003-.001-.001-.003-.002-.004-.003-.006a.7.7 0 0 1-.037-.167c-.028-.21-.03-.504-.03-.997v-1c0-.493.002-.787.03-.997a.7.7 0 0 1 .037-.167l.005-.01zM19 16.25h-.045c-.433 0-.83 0-1.152.043-.356.048-.731.16-1.04.47s-.422.684-.47 1.04c-.043.323-.043.72-.043 1.152v1.09c0 .432 0 .83.043 1.152.048.356.16.731.47 1.04s.684.422 1.04.47c.323.043.72.043 1.152.043h1.09c.433 0 .83 0 1.152-.043.356-.048.731-.16 1.04-.47s.422-.684.47-1.04c.043-.323.043-.72.043-1.152v-1.09c0-.433 0-.83-.043-1.152-.048-.356-.16-.731-.47-1.04s-.684-.422-1.04-.47c-.323-.043-.72-.043-1.152-.043zm-1.174 1.572-.003.001-.001.003-.005.01a.7.7 0 0 0-.037.167c-.028.21-.03.504-.03.997v1c0 .493.002.787.03.997a.7.7 0 0 0 .042.177l.001.003.003.001.01.005c.022.009.07.024.167.037.21.028.504.03.997.03h1c.493 0 .787-.002.997-.03a.7.7 0 0 0 .177-.042l.003-.001.001-.003.005-.01a.7.7 0 0 0 .037-.167c.028-.21.03-.504.03-.997v-1c0-.493-.002-.787-.03-.997a.7.7 0 0 0-.037-.167l-.003-.005-.002-.005-.001-.003-.003-.001-.004-.002-.006-.003a.7.7 0 0 0-.167-.037c-.21-.028-.504-.03-.997-.03h-1c-.493 0-.787.002-.997.03a.7.7 0 0 0-.177.042M3.956 16.25h1.089c.433 0 .83 0 1.152.043.356.048.731.16 1.04.47s.422.684.47 1.04c.043.323.043.72.043 1.152v1.09c0 .432 0 .83-.043 1.152-.048.356-.16.731-.47 1.04s-.684.422-1.04.47c-.323.043-.72.043-1.152.043h-1.09c-.433 0-.83 0-1.152-.043-.356-.048-.731-.16-1.04-.47s-.422-.684-.47-1.04c-.043-.323-.043-.72-.043-1.152v-1.09c0-.433 0-.83.043-1.152.048-.356.16-.731.47-1.04s.684-.422 1.04-.47c.323-.043.72-.043 1.152-.043m-1.133 1.573.003-.001.01-.005a.7.7 0 0 1 .167-.037c.21-.028.504-.03.997-.03h1c.493 0 .787.002.997.03a.7.7 0 0 1 .177.042l.003.001.001.003.005.01c.009.022.024.07.037.167.028.21.03.504.03.997v1c0 .493-.002.787-.03.997a.7.7 0 0 1-.04.173l-.002.004-.001.003-.003.001-.01.005a.7.7 0 0 1-.167.037c-.21.028-.504.03-.997.03H4c-.493 0-.787-.002-.997-.03a.7.7 0 0 1-.177-.042l-.003-.001-.001-.003-.005-.01a.7.7 0 0 1-.037-.167c-.028-.21-.03-.504-.03-.997v-1c0-.493.002-.787.03-.997a.7.7 0 0 1 .042-.177zM4 1.25h-.045c-.433 0-.83 0-1.152.043-.356.048-.731.16-1.04.47s-.422.684-.47 1.04c-.043.323-.043.72-.043 1.152v1.09c0 .433 0 .83.043 1.152.048.356.16.731.47 1.04s.684.422 1.04.47c.323.043.72.043 1.152.043h1.09c.433 0 .83 0 1.152-.043.356-.048.731-.16 1.04-.47s.422-.684.47-1.04c.043-.323.043-.72.043-1.152v-1.09c0-.433 0-.83-.043-1.152-.048-.356-.16-.731-.47-1.04s-.684-.422-1.04-.47c-.323-.043-.72-.043-1.152-.043zM2.826 2.822l-.003.001-.001.003-.005.01a.7.7 0 0 0-.037.167c-.028.21-.03.504-.03.997v1c0 .493.002.787.03.997a.7.7 0 0 0 .042.177l.001.003.003.001.01.005c.022.009.07.024.167.037.21.028.504.03.997.03h1c.493 0 .787-.002.997-.03a.7.7 0 0 0 .177-.042l.003-.001.001-.003.005-.01a.7.7 0 0 0 .037-.167c.028-.21.03-.504.03-.997V4c0-.493-.002-.787-.03-.997a.7.7 0 0 0-.042-.177l-.001-.003-.003-.001-.01-.005a.7.7 0 0 0-.167-.037c-.21-.028-.504-.03-.997-.03H4c-.493 0-.787.002-.997.03a.7.7 0 0 0-.177.042" clip-rule="evenodd"/><path fill="currentColor" fill-rule="evenodd" d="M10.25 4.5a.75.75 0 0 1 .75-.75h6a.75.75 0 0 1 0 1.5h-6a.75.75 0 0 1-.75-.75M4.5 6.295a.75.75 0 0 1 .75.75V13a.75.75 0 0 1-1.5 0V7.045a.75.75 0 0 1 .75-.75m15 3.955a.75.75 0 0 1 .75.75v6a.75.75 0 0 1-1.5 0v-6a.75.75 0 0 1 .75-.75m-5.53 3.72a.75.75 0 0 1 1.06 0l1 1a.75.75 0 1 1-1.06 1.06l-1-1a.75.75 0 0 1 0-1.06" clip-rule="evenodd" opacity=".4"/></svg>