<svg xmlns="http://www.w3.org/2000/svg" fill="none" viewBox="0 0 24 24"><path fill="currentColor" fill-rule="evenodd" d="M11.578 1.25h-.037c-.239 0-.488 0-.695.028-.236.032-.546.116-.792.387-.25.275-.3.594-.304.837-.003.207.029.452.058.68l.005.038.05.395.006.04c.067.52.125.972.216 1.337.097.392.25.765.56 1.076a2.3 2.3 0 0 0 .445.348L8.85 16.929c-.1.468-.157.93-.015 1.393.141.461.447.812.788 1.146l2.62 2.562.025.024c.15.148.312.306.466.42.181.136.434.276.766.276s.585-.14.766-.275c.154-.115.315-.273.466-.42l.025-.025 2.62-2.562c.341-.334.647-.685.788-1.146.142-.464.084-.925-.015-1.393L15.91 6.416a2.3 2.3 0 0 0 .445-.347c.31-.312.463-.685.56-1.077.091-.365.15-.817.216-1.336l.056-.436.005-.038c.03-.228.061-.473.058-.68-.004-.243-.055-.562-.304-.837-.247-.271-.556-.355-.792-.387a6 6 0 0 0-.695-.028zm2.867 5.49c-.272.01-.575.01-.905.01h-.08c-.33 0-.633 0-.905-.01l-2.238 10.502c-.088.415-.073.56-.048.64.025.083.096.213.402.513l2.62 2.562c.085.083.151.147.209.201.058-.054.124-.118.208-.2l2.62-2.563c.307-.3.377-.43.403-.513.024-.08.04-.225-.048-.64zm-3.144-3.712-.035-.276c.087-.002.187-.002.312-.002h3.844c.125 0 .225 0 .311.002q-.012.114-.034.276l-.05.396c-.074.571-.122.936-.19 1.205-.062.252-.122.336-.17.384a1 1 0 0 1-.095.081c-.058.043-.16.093-.432.123-.288.032-.67.033-1.262.033-.591 0-.974-.001-1.262-.033-.272-.03-.374-.08-.432-.123a1 1 0 0 1-.096-.081c-.047-.048-.107-.132-.17-.384-.067-.27-.115-.634-.188-1.205z" clip-rule="evenodd"/><path fill="currentColor" fill-rule="evenodd" d="M9.229 8.089c.798-.874 1.554-1.701 2.167-2.534l1.208.888c-.664.903-1.482 1.798-2.276 2.667q-.196.213-.387.424c-.928 1.02-1.794 2.013-2.427 3.033-.126.204-.19.31-.23.393a.3.3 0 0 0-.034.101.3.3 0 0 0 .02.108 6.1 6.1 0 0 0 .912 1.646 2.7 2.7 0 0 0 .388.413 1 1 0 0 0 .185-.099c.177-.114.407-.312.681-.625l1.127.99c-.333.38-.665.682-.991.894-.32.207-.686.36-1.072.36-.398 0-.718-.226-.899-.374a4 4 0 0 1-.599-.632 7.6 7.6 0 0 1-.964-1.62c-.152-.344-.315-.713-.284-1.164.031-.453.245-.796.444-1.114l.041-.067c.713-1.15 1.666-2.234 2.592-3.252zm-.592 7.185-.005-.003z" clip-rule="evenodd" opacity=".4"/></svg>