<svg xmlns="http://www.w3.org/2000/svg" fill="none" viewBox="0 0 24 24"><path fill="currentColor" fill-rule="evenodd" d="M10.25 6.008a.75.75 0 0 1 .75-.75h6a.75.75 0 0 1 0 1.5h-6a.75.75 0 0 1-.75-.75m0 3.992a.75.75 0 0 1 .75-.75h6a.75.75 0 0 1 0 1.5h-6a.75.75 0 0 1-.75-.75m.75 3.25a.75.75 0 0 0 0 1.5h3a.75.75 0 0 0 0-1.5z" clip-rule="evenodd" opacity=".4"/><path fill="currentColor" fill-rule="evenodd" d="M12.945 1.25h2.11c1.367 0 2.47 0 3.337.117.9.12 1.658.38 2.26.981.602.602.86 1.36.982 2.26.116.867.116 1.97.116 3.337V20A2.75 2.75 0 0 1 19 22.75H5A2.75 2.75 0 0 1 2.25 20v-.045c0-.433 0-.83.043-1.152.048-.356.16-.731.47-1.04s.684-.422 1.04-.47c.323-.043.72-.043 1.152-.043H6.25V7.945c0-1.367 0-2.47.117-3.337.12-.9.38-1.658.981-2.26.602-.602 1.36-.86 2.26-.981.867-.117 1.97-.117 3.337-.117m-5.195 16h7.295c.433 0 .83 0 1.152.043.356.048.731.16 1.04.47s.422.684.47 1.04c.043.323.043.72.043 1.152V20a1.25 1.25 0 0 0 2.5 0V8c0-1.435-.002-2.437-.103-3.192-.099-.734-.28-1.122-.556-1.399-.277-.277-.665-.457-1.4-.556-.755-.101-1.756-.103-3.191-.103h-2c-1.435 0-2.437.002-3.192.103-.734.099-1.122.28-1.399.556-.277.277-.457.665-.556 1.4C7.752 5.562 7.75 6.564 7.75 8zm8.8 4c-.192-.375-.3-.8-.3-1.25 0-.493-.002-.787-.03-.997a.7.7 0 0 0-.042-.177l-.001-.003-.003-.001-.01-.005a.7.7 0 0 0-.167-.037c-.21-.028-.504-.03-.997-.03H5c-.493 0-.787.002-.997.03a.7.7 0 0 0-.177.042l-.003.001-.001.003-.005.01a.7.7 0 0 0-.037.167c-.028.21-.03.504-.03.997 0 .69.56 1.25 1.25 1.25z" clip-rule="evenodd"/></svg>