<svg xmlns="http://www.w3.org/2000/svg" fill="none" viewBox="0 0 24 24"><path fill="currentColor" fill-rule="evenodd" d="M9.733 1.983a.75.75 0 0 1-.732.767c-2.835.064-4.172.35-5.054 1.229-.765.762-1.09 1.877-1.198 4.058a.75.75 0 1 1-1.498-.074c.11-2.224.442-3.856 1.637-5.047 1.358-1.353 3.3-1.602 6.078-1.666a.75.75 0 0 1 .767.733m4.534 0a.75.75 0 0 1 .767-.733c2.778.064 4.72.313 6.078 1.666l-.527.529.527-.529c1.195 1.191 1.527 2.823 1.637 5.047a.75.75 0 1 1-1.498.074c-.109-2.181-.433-3.296-1.198-4.058l.53-.532-.53.532c-.882-.88-2.22-1.165-5.054-1.23a.75.75 0 0 1-.732-.766M1.963 15.25a.75.75 0 0 1 .786.712c.109 2.181.433 3.296 1.198 4.059l-.53.53.53-.53c.882.879 2.22 1.164 5.054 1.228a.75.75 0 0 1-.035 1.5c-2.778-.064-4.72-.313-6.078-1.666-1.195-1.191-1.526-2.823-1.637-5.047a.75.75 0 0 1 .712-.786m20.074 0a.75.75 0 0 1 .712.786c-.11 2.224-.442 3.856-1.637 5.047l-.53-.531.53.531c-1.358 1.353-3.3 1.602-6.078 1.666a.75.75 0 0 1-.035-1.5c2.835-.064 4.172-.35 5.054-1.229.765-.762 1.09-1.877 1.198-4.058a.75.75 0 0 1 .786-.712" clip-rule="evenodd"/><path fill="currentColor" fill-rule="evenodd" d="M6.25 11.5a5.25 5.25 0 1 1 9.455 3.144l1.825 1.826a.75.75 0 1 1-1.06 1.06l-1.826-1.825A5.25 5.25 0 0 1 6.25 11.5m5.25-3.75a3.75 3.75 0 1 0 0 7.5 3.75 3.75 0 0 0 0-7.5" clip-rule="evenodd" opacity=".4"/></svg>