<svg xmlns="http://www.w3.org/2000/svg" fill="none" viewBox="0 0 24 24"><path fill="currentColor" fill-rule="evenodd" d="M1.25 11c0-5.385 4.365-9.75 9.75-9.75s9.75 4.365 9.75 9.75-4.365 9.75-9.75 9.75S1.25 16.385 1.25 11M11 2.75a8.25 8.25 0 1 0 0 16.5 8.25 8.25 0 0 0 0-16.5" clip-rule="evenodd"/><path fill="currentColor" fill-rule="evenodd" d="M7.5 10.25a.75.75 0 0 0 0 1.5h7a.75.75 0 0 0 0-1.5zm10.53 6.72a.75.75 0 1 0-1.06 1.06l4.5 4.5a.75.75 0 1 0 1.06-1.06z" clip-rule="evenodd" opacity=".4"/></svg>