<svg xmlns="http://www.w3.org/2000/svg" fill="none" viewBox="0 0 24 24"><path fill="currentColor" fill-rule="evenodd" d="M7.759 2.436c1.192-.618 2.559-1.186 4.24-1.186s3.049.568 4.241 1.186q.538.28 1.016.547c.782.432 1.477.814 2.239 1.057l.025.009c.447.142.818.26 1.099.37.265.104.579.246.802.494.2.222.303.472.371.711.062.217.11.48.16.762l.006.031c1.238 6.866-1.466 13.37-8.076 15.9l-.269-.7.269.7-.033.013c-.65.25-1.095.42-1.847.42-.75 0-1.196-.17-1.846-.42l-.033-.012c-6.61-2.531-9.317-9.035-8.08-15.901l.738.133-.738-.133.006-.03c.05-.282.098-.546.16-.762.068-.24.171-.49.372-.712.222-.248.537-.39.801-.493.281-.11.652-.229 1.099-.371l.026-.009c.761-.243 1.455-.625 2.237-1.057.32-.176.655-.36 1.015-.547M7.593 4.23c-.83.458-1.719.948-2.63 1.24-.48.152-.803.256-1.034.346a2 2 0 0 0-.238.11 1 1 0 0 0-.04.11 8 8 0 0 0-.131.647c-1.141 6.327 1.35 12.018 7.14 14.234.664.254.882.333 1.342.333s.679-.079 1.343-.333c5.788-2.216 8.278-7.908 7.137-14.234a8 8 0 0 0-.132-.647 1 1 0 0 0-.04-.11 2 2 0 0 0-.238-.11c-.23-.09-.554-.194-1.033-.346l.228-.715-.228.715c-.912-.291-1.801-.782-2.632-1.24-.293-.161-.58-.319-.856-.462-1.113-.576-2.225-1.018-3.552-1.018s-2.439.442-3.55 1.017c-.277.144-.563.302-.856.463m12.71 1.682.002.003zm-16.605 0-.002.003z" clip-rule="evenodd"/><path fill="currentColor" fill-rule="evenodd" d="M9.5 9.756v-.998a2.508 2.508 0 1 1 5.016 0v1.005c.646.213 1.293.707 1.603 1.641l.009.027.007.027c.056.226.083.525.098.804.015.295.02.626.018.942-.004.608-.033 1.251-.074 1.5l-.007.038-.01.039c-.188.674-.532 1.204-1.052 1.548-.505.333-1.09.433-1.658.423l-.429.001h-.002c-.914.003-2.622.01-3.108-.034l-.042-.004-.042-.008c-.82-.168-1.678-.715-2.003-1.934l-.015-.058-.006-.06c-.04-.4-.058-1.047-.052-1.643.003-.301.013-.6.03-.86.015-.244.04-.502.089-.694A2.5 2.5 0 0 1 9.5 9.756m1.5-.998a1.008 1.008 0 0 1 2.016 0v.872H11zm-1.675 3.064c.058-.232.358-.692 1.012-.692h3.36c.358 0 .792.163.988.716.017.084.037.25.05.495.013.257.018.556.016.854-.004.574-.03 1.066-.05 1.228-.111.375-.27.555-.42.654-.167.11-.42.182-.81.175h-.014l-.507.001c-.906.003-2.399.008-2.863-.025a1.06 1.06 0 0 1-.462-.226c-.124-.107-.25-.276-.335-.56-.029-.33-.044-.876-.039-1.414.003-.284.012-.555.026-.779.016-.24.036-.379.048-.427" clip-rule="evenodd" opacity=".4"/></svg>