<svg xmlns="http://www.w3.org/2000/svg" fill="none" viewBox="0 0 24 24"><path fill="currentColor" d="M18 21.75a2.755 2.755 0 0 1-2.646-2H8.646a2.755 2.755 0 0 1-2.646 2 2.755 2.755 0 0 1-2.646-2H2a.75.75 0 0 1 0-1.5h1.354c.327-1.153 1.39-2 2.646-2s2.319.847 2.646 2h6.708c.327-1.153 1.39-2 2.646-2s2.319.847 2.646 2H22a.75.75 0 0 1 0 1.5h-1.354a2.755 2.755 0 0 1-2.646 2M16.75 19c0 .689.561 1.25 1.25 1.25s1.25-.561 1.25-1.25-.561-1.25-1.25-1.25-1.25.561-1.25 1.25m-12 0c0 .689.561 1.25 1.25 1.25s1.25-.561 1.25-1.25-.561-1.25-1.25-1.25-1.25.561-1.25 1.25" opacity=".4"/><path fill="currentColor" fill-rule="evenodd" d="M17 14.75h2.25c1.93 0 3.5-1.57 3.5-3.5 0-1.365-.785-2.55-1.928-3.127a3.5 3.5 0 0 0 .928-2.373c0-1.93-1.57-3.5-3.5-3.5H17c-1.07 0-1.714 0-2.233.506l-.01.009c-.506.513-.506 1.161-.506 2.235v7c0 1.074 0 1.723.507 2.235l.009.009c.519.506 1.163.506 2.233.506m0-1.5c-.48 0-1.073 0-1.178-.074-.071-.117-.071-.679-.071-1.176V9.25h3.5c1.102 0 2 .897 2 2s-.898 2-2 2zm1.25-5.5h-2.5V5c0-.497 0-1.06.072-1.176.104-.074.698-.074 1.178-.074h1.25c1.104 0 2 .897 2 2s-.896 2-2 2m-7.957 6.498a.75.75 0 0 0 .707.502.75.75 0 0 0 .707-.998L9.783 8.269l-.009-.025-.002-.007-1.684-4.81-.005-.014-.025-.065-.01-.03-.002-.004c-.03-.081-.057-.158-.1-.241a1.51 1.51 0 0 0-1.074-.802 2 2 0 0 0-.372-.02c-.152 0-.253 0-.382.021a1.5 1.5 0 0 0-1.064.8c-.044.083-.072.16-.102.242v.003l-.035.095-.005.014-1.685 4.81-.006.018-.004.014-1.924 5.483a.75.75 0 1 0 1.415.497L4.462 9.25h4.077zM8.013 7.75H4.989l1.337-3.821.026-.07.012-.034.027-.07v-.002l.002-.002h.216v.001l.001.003.003.004.024.066.012.033.026.071zM6.618 3.769l.002.002z" clip-rule="evenodd"/></svg>