<svg xmlns="http://www.w3.org/2000/svg" fill="none" viewBox="0 0 24 24"><path fill="currentColor" fill-rule="evenodd" d="M5 1.25a.75.75 0 0 1 .75.75v2.25H8a.75.75 0 1 1 0 1.5H5.75V8a.75.75 0 0 1-1.5 0V5.75H2a.75.75 0 0 1 0-1.5h2.25V2A.75.75 0 0 1 5 1.25" clip-rule="evenodd" opacity=".4"/><path fill="currentColor" fill-rule="evenodd" d="M11.25 5a.75.75 0 0 1 .75-.75h3a.75.75 0 0 1 0 1.5h-3a.75.75 0 0 1-.75-.75m6 0a.75.75 0 0 1 .75-.75h.5a4.25 4.25 0 0 1 4.25 4.25V9a.75.75 0 0 1-1.5 0v-.5a2.75 2.75 0 0 0-2.75-2.75H18a.75.75 0 0 1-.75-.75M5 11.25a.75.75 0 0 1 .75.75v3a.75.75 0 0 1-1.5 0v-3a.75.75 0 0 1 .75-.75m17 0a.75.75 0 0 1 .75.75v3a.75.75 0 0 1-1.5 0v-3a.75.75 0 0 1 .75-.75m-17 6a.75.75 0 0 1 .75.75v.5a2.75 2.75 0 0 0 2.75 2.75H9a.75.75 0 0 1 0 1.5h-.5a4.25 4.25 0 0 1-4.25-4.25V18a.75.75 0 0 1 .75-.75m17 0a.75.75 0 0 1 .75.75v.5a4.25 4.25 0 0 1-4.25 4.25H18a.75.75 0 0 1 0-1.5h.5a2.75 2.75 0 0 0 2.75-2.75V18a.75.75 0 0 1 .75-.75M11.25 22a.75.75 0 0 1 .75-.75h3a.75.75 0 0 1 0 1.5h-3a.75.75 0 0 1-.75-.75" clip-rule="evenodd"/></svg>