<svg xmlns="http://www.w3.org/2000/svg" fill="none" viewBox="0 0 24 24"><path fill="currentColor" fill-rule="evenodd" d="M5.24 19.71c1.77-.59 4.14-.961 6.76-.961.41 0 .75-.34.75-.75s-.34-.75-.75-.75c-1.89 0-3.68.18-5.25.51v-4.76c0-.41-.34-.75-.75-.75-1.79 0-3.25-1.46-3.25-3.25S4.21 5.749 6 5.749c.67 0 1.29.2 1.81.55.19.13.43.16.65.09a.78.78 0 0 0 .47-.47A3.26 3.26 0 0 1 12 3.75c1.42 0 2.62.91 3.07 2.17.08.22.25.39.47.47.22.07.46.04.65-.09A3.25 3.25 0 1 1 18 12.25c-.41 0-.75.34-.75.75s.34.75.75.75c2.62 0 4.75-2.13 4.75-4.75S20.62 4.25 18 4.25c-.67 0-1.3.14-1.88.39a4.745 4.745 0 0 0-8.24 0A4.7 4.7 0 0 0 6 4.249c-2.62 0-4.75 2.13-4.75 4.75 0 2.37 1.73 4.33 4 4.69v4.44c-.17.05-.33.11-.49.16a.749.749 0 1 0 .48 1.42" clip-rule="evenodd"/><path fill="currentColor" fill-rule="evenodd" d="M17.96 15.48c.29-.3.76-.31 1.06-.02q.135.135.54.45c.02.02.04.03.06.05.24.19.53.41.8.64.29.25.59.52.83.8.12.13.23.29.32.46.09.16.17.38.17.64s-.09.48-.17.64c-.09.17-.21.33-.32.46-.23.28-.54.55-.83.8-.27.23-.55.45-.8.64-.02.02-.04.03-.06.05q-.405.315-.54.45c-.3.29-.77.28-1.06-.02a.746.746 0 0 1 .02-1.06c.16-.15.42-.36.66-.55.02-.01.04-.03.06-.04.24-.2.51-.4.76-.61v-.01H15c-.41 0-.75-.34-.75-.75s.34-.75.75-.75h4.46v-.01c-.25-.21-.51-.41-.76-.61-.02-.01-.04-.03-.06-.04-.24-.19-.5-.4-.66-.55-.3-.29-.3-.77-.02-1.06" clip-rule="evenodd" opacity=".4"/></svg>