<svg xmlns="http://www.w3.org/2000/svg" fill="none" viewBox="0 0 24 24"><path fill="currentColor" fill-rule="evenodd" d="M12 2.75a9.25 9.25 0 1 0 0 18.5 9.25 9.25 0 0 0 0-18.5M1.25 12C1.25 6.063 6.063 1.25 12 1.25S22.75 6.063 22.75 12 17.937 22.75 12 22.75 1.25 17.937 1.25 12" clip-rule="evenodd"/><path fill="currentColor" fill-rule="evenodd" d="M8.794 17.002c.453-.336.935-.336 1.388 0l.269.2c.984.73 2.192.73 3.176 0l.27-.2c.452-.336.934-.336 1.387 0l.269.2a.75.75 0 1 0 .894-1.204l-.27-.2c-.983-.73-2.191-.73-3.175 0l-.27.2c-.452.336-.934.336-1.387 0l-.269-.2c-.984-.73-2.192-.73-3.176 0l-.347.258a.75.75 0 0 0 .894 1.204zm9.742-6.437c-.38.787-1.412 1.54-2.487 1.019-.584-.283-.81-.77-.845-1.191a1.6 1.6 0 0 1 .085-.66l.007-.018.003-.007.001-.003v-.002s.001-.001.688.275l-.687-.276a.75.75 0 0 1 1.402.532c.04.019.096.03.193-.017a.67.67 0 0 0 .29-.305.57.57 0 0 0 .041-.418c-.039-.13-.153-.326-.483-.526-.35-.212-.602-.237-.777-.208-.181.03-.372.133-.56.336-.397.427-.657 1.166-.657 1.813a.75.75 0 0 1-1.5 0c0-.959.36-2.085 1.058-2.835.358-.385.833-.698 1.416-.794.59-.097 1.203.044 1.799.406.585.355.974.827 1.14 1.371a2.07 2.07 0 0 1-.127 1.508M5.464 8.435c.38-.787 1.412-1.54 2.487-1.019.584.283.81.77.846 1.191a1.6 1.6 0 0 1-.086.66l-.007.018-.003.007-.001.003v.002s-.001.001-.688-.275l.687.276a.75.75 0 0 1-1.402-.532c-.04-.019-.097-.03-.193.017a.67.67 0 0 0-.29.305.57.57 0 0 0-.041.418c.039.13.153.326.483.526.35.212.602.237.777.208.181-.03.372-.133.56-.336.397-.427.657-1.166.657-1.813a.75.75 0 1 1 1.5 0c0 .959-.36 2.085-1.058 2.835-.358.385-.833.698-1.416.794-.59.097-1.203-.044-1.799-.406-.585-.355-.974-.827-1.14-1.371a2.07 2.07 0 0 1 .127-1.508" clip-rule="evenodd" opacity=".4"/></svg>