<svg xmlns="http://www.w3.org/2000/svg" fill="none" viewBox="0 0 24 24"><path fill="currentColor" fill-rule="evenodd" d="M12 9.25a2.75 2.75 0 1 0 0 5.5 2.75 2.75 0 0 0 0-5.5M7.75 12a4.25 4.25 0 1 1 8.5 0 4.25 4.25 0 0 1-8.5 0" clip-rule="evenodd" opacity=".4"/><path fill="currentColor" fill-rule="evenodd" d="M10.026 2.25h3.948c.77 0 1.402 0 1.922.051.545.054 1.025.167 1.48.429.455.261.794.62 1.114 1.063.305.424.621.97 1.007 1.635l1.96 3.38c.388.667.706 1.216.923 1.692.228.5.37.974.37 1.5s-.142 1-.37 1.5c-.217.477-.535 1.025-.922 1.692l-1.96 3.38c-.387.665-.703 1.211-1.008 1.635-.32.444-.66.802-1.114 1.063-.455.262-.935.375-1.48.429-.52.051-1.152.051-1.922.051h-3.948c-.77 0-1.402 0-1.922-.051-.545-.054-1.025-.167-1.48-.429-.455-.261-.794-.62-1.114-1.063-.305-.424-.621-.97-1.007-1.635l-1.96-3.38c-.388-.667-.706-1.215-.923-1.692-.228-.5-.37-.974-.37-1.5s.142-1 .37-1.5c.217-.476.535-1.025.922-1.692l1.96-3.38c.387-.665.703-1.211 1.008-1.635.32-.444.66-.802 1.114-1.063.455-.262.935-.375 1.48-.429.52-.051 1.152-.051 1.922-.051M8.25 3.794c-.422.041-.672.118-.878.236s-.397.296-.644.64c-.257.356-.537.838-.946 1.543L3.858 9.528c-.41.708-.69 1.192-.873 1.594-.176.386-.235.64-.235.878 0 .237.06.492.235.878.183.402.463.886.873 1.594l1.924 3.315c.409.705.689 1.187.946 1.543.247.344.438.522.644.64s.456.195.878.236c.438.043.997.044 1.813.044h3.874c.816 0 1.375 0 1.813-.044.422-.041.672-.118.878-.236s.397-.296.644-.64c.257-.356.537-.838.946-1.543l1.924-3.315c.41-.708.69-1.192.873-1.594.176-.386.235-.64.235-.878 0-.237-.06-.492-.235-.878-.183-.402-.463-.886-.873-1.594l-1.924-3.315c-.409-.705-.689-1.187-.946-1.543-.247-.344-.438-.522-.644-.64s-.456-.195-.878-.236c-.438-.043-.997-.044-1.813-.044h-3.874c-.816 0-1.375 0-1.813.044" clip-rule="evenodd"/></svg>