<svg xmlns="http://www.w3.org/2000/svg" fill="none" viewBox="0 0 24 24"><path fill="currentColor" fill-rule="evenodd" d="M11.67 18.748h.659c.496 0 .854 0 1.204-.25l.025-.019c.34-.266.456-.622.6-1.068l.19-.58a.44.44 0 0 1 .162-.2l.159-.097a.42.42 0 0 1 .256-.028l.697.203.004.001c.489.139.877.249 1.3.074.43-.167.63-.52.88-.966l.302-.528v-.002c.231-.403.43-.752.385-1.189-.046-.434-.3-.718-.614-1.072h-.001l-.59-.679a.76.76 0 0 1-.088-.35c0-.146.055-.298.089-.35l.583-.67c.32-.36.575-.646.62-1.08.046-.438-.153-.787-.384-1.191l-.301-.528-.002-.002c-.25-.444-.45-.797-.878-.964-.425-.175-.814-.065-1.311.076l-.691.202a.42.42 0 0 1-.256-.028l-.16-.096a.45.45 0 0 1-.161-.201l-.19-.576c-.144-.45-.26-.805-.6-1.071l-.025-.019c-.35-.25-.708-.25-1.204-.25h-.658c-.496 0-.854 0-1.204.25l-.025.019c-.341.266-.456.622-.6 1.068l-.19.58a.44.44 0 0 1-.162.201l-.16.096a.42.42 0 0 1-.255.028l-.697-.203-.005-.001c-.489-.139-.877-.248-1.3-.074-.43.167-.63.52-.88.966l-.301.528-.001.002c-.23.403-.43.752-.384 1.189.046.434.3.719.614 1.072v.001l.59.678A.76.76 0 0 1 6.8 12a.76.76 0 0 1-.09.35l-.582.671c-.321.36-.575.645-.621 1.08-.045.438.154.787.385 1.19l.3.528.002.002c.25.444.45.797.879.964.425.175.814.065 1.31-.076l.692-.202a.42.42 0 0 1 .256.028l.159.096a.45.45 0 0 1 .162.201l.189.576c.145.45.26.805.6 1.071l.026.019c.35.25.708.25 1.204.25m0-1.5c-.103 0-.216 0-.301-.003a9 9 0 0 1-.09-.27l-.01-.031-.197-.6-.011-.032a1.96 1.96 0 0 0-.753-.94l-.225-.136-.038-.022a1.93 1.93 0 0 0-1.313-.168l-.762.221-.087.024-.227.061a8 8 0 0 1-.156-.27l-.306-.537a7 7 0 0 1-.158-.285 8 8 0 0 1 .218-.25l.608-.7.024-.03c.255-.326.414-.817.414-1.283s-.16-.958-.414-1.283l-.638-.736a8 8 0 0 1-.212-.244 7 7 0 0 1 .158-.286l.305-.535.018-.032c.047-.085.097-.172.138-.239.087.021.203.054.308.084l.72.21.047.012c.45.1.917.04 1.313-.168l.237-.142.026-.016a1.95 1.95 0 0 0 .753-.94l.209-.636c.029-.09.068-.21.1-.297.082-.003.192-.003.295-.003h.672c.102 0 .211 0 .295.003.028.078.062.183.09.27l.01.031.198.6.01.032c.148.386.408.711.754.94l.225.136.038.022c.396.208.863.268 1.313.168l.762-.221.086-.024c.082-.023.163-.045.228-.06a8 8 0 0 1 .156.27l.305.536c.047.081.114.2.158.285a9 9 0 0 1-.218.251l-.608.7-.024.03c-.255.325-.414.816-.414 1.282s.159.958.414 1.283l.638.736c.069.077.154.173.212.244a7 7 0 0 1-.158.286l-.305.535-.019.033a8 8 0 0 1-.137.238 9 9 0 0 1-.308-.084l-.72-.21-.047-.012a1.92 1.92 0 0 0-1.313.168l-.237.142-.026.016a1.95 1.95 0 0 0-.753.94l-.21.636c-.028.09-.067.21-.1.297-.083.003-.196.003-.301.003zM9.5 12c0 1.379 1.121 2.5 2.5 2.5s2.5-1.121 2.5-2.5-1.121-2.5-2.5-2.5A2.5 2.5 0 0 0 9.5 12m1.5 0c0-.551.449-1 1-1s1 .449 1 1-.449 1-1 1-1-.449-1-1" clip-rule="evenodd" opacity=".4"/><path fill="currentColor" d="M12 22.75c-2.27 0-4.438-.702-6.25-2.002V22a.75.75 0 0 1-1.5 0v-2.86a.75.75 0 0 1 1.276-.536 9.2 9.2 0 0 0 6.475 2.645c5.1 0 9.25-4.15 9.25-9.25a9.2 9.2 0 0 0-.769-3.699.75.75 0 1 1 1.374-.602c.594 1.354.895 2.802.895 4.301 0 5.928-4.822 10.75-10.75 10.75zm-9.168-6a.75.75 0 0 1-.687-.449A10.6 10.6 0 0 1 1.25 12C1.25 6.072 6.072 1.25 12 1.25c2.27 0 4.438.702 6.25 2.002V2a.75.75 0 0 1 1.5 0v2.86a.75.75 0 0 1-1.276.536 9.2 9.2 0 0 0-6.475-2.645c-5.1 0-9.25 4.15-9.25 9.25 0 1.291.259 2.535.769 3.699a.75.75 0 0 1-.687 1.051z"/></svg>