<svg xmlns="http://www.w3.org/2000/svg" fill="none" viewBox="0 0 24 24"><path fill="currentColor" d="M13 22.75h-2c-3.968 0-5.96 0-7.348-1.322C2.25 20.09 2.25 18.182 2.25 14.38s0-5.71 1.402-7.047c.56-.532 1.257-.871 2.194-1.067a.75.75 0 0 1 .307 1.469c-.661.138-1.114.35-1.467.685-.937.894-.937 2.587-.937 5.96s0 5.067.938 5.96c.953.91 2.744.91 6.312.91h2c3.568 0 5.36 0 6.312-.91.938-.893.938-2.587.938-5.96s0-5.067-.938-5.961c-.352-.335-.804-.546-1.466-.685a.751.751 0 0 1 .307-1.47c.937.197 1.634.536 2.193 1.068 1.403 1.338 1.403 3.246 1.403 7.048s0 5.709-1.402 7.047c-1.387 1.323-3.379 1.323-7.348 1.323z"/><path fill="currentColor" d="M12 14.75h-.002a.75.75 0 0 1-.748-.752l.026-10.513a45 45 0 0 0-1.699 1.923.75.75 0 1 1-1.154-.958c.07-.083 1.703-2.048 2.642-2.847l.01-.008c.291-.238.632-.357.982-.344h.014c.308.015.615.139.864.35.94.799 2.574 2.764 2.643 2.848a.75.75 0 0 1-1.154.958c-.012-.014-.86-1.036-1.647-1.867L12.751 14a.75.75 0 0 1-.75.748z" opacity=".4"/></svg>