<svg xmlns="http://www.w3.org/2000/svg" fill="none" viewBox="0 0 24 24"><path fill="currentColor" fill-rule="evenodd" d="M4.238 4.5c0-.965.784-1.75 1.754-1.75.969 0 1.753.785 1.753 1.75s-.784 1.75-1.753 1.75c-.97 0-1.754-.785-1.754-1.75m1.754-3.25A3.25 3.25 0 0 0 2.738 4.5a3.25 3.25 0 0 0 3.254 3.25A3.25 3.25 0 0 0 9.245 4.5a3.25 3.25 0 0 0-3.253-3.25m-3.45 10.268c1.047-1.096 2.272-1.63 3.456-1.643 1.18-.012 2.4.493 3.45 1.633a.75.75 0 0 0 1.104-1.016c-1.306-1.417-2.92-2.133-4.569-2.117-1.644.017-3.24.76-4.525 2.107a.75.75 0 0 0 1.084 1.036M16.238 15.5c0-.966.784-1.75 1.753-1.75.97 0 1.754.784 1.754 1.75 0 .965-.784 1.75-1.754 1.75a1.75 1.75 0 0 1-1.753-1.75m1.753-3.25a3.25 3.25 0 0 0-3.253 3.25 3.25 3.25 0 0 0 3.253 3.25 3.25 3.25 0 0 0 3.254-3.25 3.25 3.25 0 0 0-3.254-3.25m-3.448 10.268c1.046-1.096 2.271-1.63 3.455-1.643 1.18-.012 2.4.493 3.45 1.633a.75.75 0 0 0 1.104-1.016c-1.306-1.417-2.92-2.134-4.569-2.117-1.644.017-3.24.76-4.526 2.107a.75.75 0 0 0 1.085 1.036" clip-rule="evenodd"/><path fill="currentColor" fill-rule="evenodd" d="M15 2.25a.75.75 0 0 0 0 1.5h6a.75.75 0 0 0 0-1.5zm0 3a.75.75 0 0 0 0 1.5h6a.75.75 0 0 0 0-1.5zm0 3a.75.75 0 0 0 0 1.5h3.5a.75.75 0 0 0 0-1.5zM3.75 14c0 3.017 2.13 5.53 4.971 6.12l-.392-.785a.75.75 0 1 1 1.342-.67l1 2A.75.75 0 0 1 10 21.75 7.745 7.745 0 0 1 2.25 14a.75.75 0 0 1 1.5 0" clip-rule="evenodd" opacity=".4"/></svg>