<svg xmlns="http://www.w3.org/2000/svg" fill="none" viewBox="0 0 24 24"><path fill="currentColor" fill-rule="evenodd" d="M9.71 2.258a.75.75 0 0 1-.468.952 10.6 10.6 0 0 0-3.06 1.637.75.75 0 1 1-.918-1.186 12.1 12.1 0 0 1 3.494-1.87.75.75 0 0 1 .952.467M3.692 6.304a.75.75 0 0 1 .241 1.033 8.9 8.9 0 0 0-1.196 3.047.75.75 0 1 1-1.474-.275 10.4 10.4 0 0 1 1.396-3.564.75.75 0 0 1 1.033-.24m-1.83 6.713a.75.75 0 0 1 .875.6 8.9 8.9 0 0 0 1.196 3.046.75.75 0 1 1-1.274.793 10.4 10.4 0 0 1-1.396-3.564.75.75 0 0 1 .6-.875m3.271 6.266a.75.75 0 0 1 1.054-.126 10.3 10.3 0 0 0 3.055 1.633.75.75 0 1 1-.484 1.42 11.8 11.8 0 0 1-3.499-1.874.75.75 0 0 1-.126-1.053" clip-rule="evenodd" opacity=".4"/><path fill="currentColor" fill-rule="evenodd" d="M11.25 2a.75.75 0 0 1 .75-.75c5.938 0 10.75 4.814 10.75 10.75S17.938 22.75 12 22.75a.75.75 0 0 1 0-1.5A9.25 9.25 0 0 0 21.25 12 9.25 9.25 0 0 0 12 2.75a.75.75 0 0 1-.75-.75m-.254 9.5a1 1 0 0 1 1-1h.006a1 1 0 1 1 0 2h-.006a1 1 0 0 1-1-1m-2.746-.037C8.25 9.44 9.97 7.75 12 7.75s3.75 1.69 3.75 3.713c0 1.015-.424 1.905-1.111 2.707-.69.804-1.617 1.486-2.552 2.06a.2.2 0 0 1-.173 0c-.937-.581-1.863-1.26-2.553-2.062-.687-.8-1.111-1.687-1.111-2.705M12 6.25c-2.84 0-5.25 2.343-5.25 5.213 0 1.475.626 2.697 1.474 3.683.84.978 1.925 1.756 2.918 2.37l.013.008.013.008a1.7 1.7 0 0 0 1.664 0l.012-.007.01-.007c.999-.61 2.083-1.391 2.924-2.372.847-.988 1.472-2.212 1.472-3.683 0-2.87-2.41-5.213-5.25-5.213" clip-rule="evenodd"/></svg>