<svg xmlns="http://www.w3.org/2000/svg" fill="none" viewBox="0 0 24 24"><path fill="currentColor" fill-rule="evenodd" d="M7.358 2.916a2 2 0 0 0-.726-.523 2 2 0 0 0-1.356-.047c-.657.204-1.235.716-1.537 1.402-.404.068-.81.236-1.133.56-.37.37-1.278 1.348-1.842 2.341-.272.479-.537 1.082-.512 1.673.013.32.112.653.352.938.232.277.546.45.892.552.587.191 1.338.172 1.969.089q.194-.026.387-.062c.218 1.443 1.11 3.278 3.355 4.272q.512.229 1.112.388.611.162 1.317.242a11 11 0 0 0 1.07.068c.62.404 1.214.626 1.863.597.548-.024 1.058-.227 1.563-.49.592.303 1.187.49 1.823.4a2.6 2.6 0 0 0 .928-.33q.34-.197.675-.483.278.021.545-.01a2.76 2.76 0 0 0 1.891-1.116c.29-.41.461-.938.376-1.476a2.3 2.3 0 0 0 .554-.709c.237-.46.343-1.02.232-1.543a1.75 1.75 0 0 0-.395-.798c.189-.543.209-1.127.017-1.653-.235-.646-.76-1.117-1.479-1.277a2.6 2.6 0 0 0-1.41-1.403c-.65-.269-1.396-.288-2.149-.139a3.55 3.55 0 0 0-1.732-.599 2.8 2.8 0 0 0-1.39.236 2.33 2.33 0 0 0-1.268-.868 2.2 2.2 0 0 0-1.728.26 2.26 2.26 0 0 0-.936-.48 3.1 3.1 0 0 0-1.328-.012M4.326 8.172l-.033.011a5.6 5.6 0 0 1-1.025.23c-.57.076-1.052.058-1.314-.03l-.03-.009a.4.4 0 0 1-.169-.075.2.2 0 0 1-.005-.04c-.006-.15.075-.442.317-.868.464-.816 1.259-1.681 1.6-2.022.088-.089.288-.168.57-.158l.05.002q.08.005.17.021c.18.033.333.093.435.156.055.034.08.06.09.07.058.19.064.52-.032.99a7 7 0 0 0-.09.615l-.005.04a6 6 0 0 1-.081.547c-.073.336-.159.397-.2.418q-.1.05-.248.102m.98 1.207c.083 1.03.681 2.552 2.508 3.36q.398.179.888.31.5.132 1.102.202.224.024.463.04.322.02.673.02a.75.75 0 0 1 .432.137c.554.391.877.47 1.13.46.292-.014.64-.148 1.26-.499a.75.75 0 0 1 .747.004c.659.383.99.453 1.236.419.108-.016.234-.057.394-.148.183-.105.401-.27.673-.525a.75.75 0 0 1 .694-.18 1.1 1.1 0 0 0 .413.024c.36-.044.68-.251.85-.492.16-.227.143-.392.06-.517a.75.75 0 0 1 .387-1.127c.13-.044.272-.162.375-.361a.87.87 0 0 0 .098-.546.25.25 0 0 0-.046-.109.14.14 0 0 0-.073-.044.75.75 0 0 1-.387-1.128c.246-.368.268-.741.186-.968-.063-.172-.21-.349-.626-.349a.75.75 0 0 1-.727-.568c-.125-.5-.381-.758-.7-.89-.353-.145-.88-.173-1.57.013a.75.75 0 0 1-.725-.193c-.205-.205-.645-.414-1.12-.448-.466-.033-.768.108-.918.333a.75.75 0 0 1-1.352-.234c-.119-.473-.409-.709-.664-.776-.24-.063-.566-.01-.864.358a.75.75 0 0 1-1.252-.135c-.13-.259-.307-.383-.529-.438-.249-.063-.603-.046-1.047.102a.75.75 0 0 1-.908-.376c-.107-.215-.225-.296-.306-.33a.5.5 0 0 0-.34-.001.9.9 0 0 0-.324.185q.149.067.285.15c.164.103.337.24.479.417.575.137 1.293.36 1.845.66.31.168.703.431.908.831.115.225.172.498.11.791-.06.281-.216.508-.392.684a.75.75 0 0 1-1.186-.894 2 2 0 0 0-.157-.094 5 5 0 0 0-.783-.324q-.03.292-.087.567c-.029.14-.048.302-.073.513l-.001.015c-.024.203-.053.449-.105.689-.097.45-.313 1.068-.933 1.41M1.757 8.3l.001.003z" clip-rule="evenodd"/><path fill="currentColor" fill-rule="evenodd" d="M23.625 9.033a.75.75 0 0 1-.208 1.04c-.574.383-1.235.521-1.784.56a5 5 0 0 1-1.38-.099.75.75 0 1 1 .341-1.46c.182.042.539.089.937.062.401-.028.776-.126 1.054-.31a.75.75 0 0 1 1.04.207M7.128 12.78a.75.75 0 0 1 .687-.04q.398.177.888.307c.224.06.4.215.491.414l.027-.025a.75.75 0 0 1 .584-.186q.224.025.463.04a.75.75 0 0 1 .701.7l.291 4.553a.75.75 0 0 1-.748.798h-.79a.75.75 0 0 1-.75-.75v-1.404l-.213 2.468a.75.75 0 0 1-.747.686h-1a.75.75 0 0 1-.748-.81l.5-6.167a.75.75 0 0 1 .364-.584m9.864.422A.75.75 0 0 1 17.62 13q.15.022.3.003a.75.75 0 0 1 .839.667l.5 4.844a.75.75 0 0 1-.746.827h-.5a.75.75 0 0 1-.319-.07l.066.755a.75.75 0 0 1-.747.815h-1a.75.75 0 0 1-.75-.728l-.16-5.518a.75.75 0 0 1 .643-.764c.109-.015.235-.056.395-.147a.75.75 0 0 1 .63-.053.75.75 0 0 1 .222-.43" clip-rule="evenodd" opacity=".4"/></svg>