<svg xmlns="http://www.w3.org/2000/svg" fill="none" viewBox="0 0 24 24"><path fill="currentColor" fill-rule="evenodd" d="M11.444 2.901a30 30 0 0 0-1.362.583c-.905.402-2.039.842-3.328 1.209-.928.263-1.573.448-2.04.629-.472.183-.639.319-.711.415-.084.11-.162.292-.207.71-.045.429-.046.997-.046 1.833v2.903c0 2.57 1.152 4.647 2.649 6.268 1.502 1.627 3.319 2.758 4.545 3.405.63.332.774.394 1.056.394s.427-.062 1.056-.394c1.226-.647 3.043-1.778 4.545-3.405 1.497-1.622 2.649-3.698 2.649-6.268V8.28c0-.836-.001-1.404-.046-1.833-.045-.418-.123-.6-.207-.71-.072-.096-.24-.232-.711-.415-.467-.181-1.112-.366-2.04-.63a25 25 0 0 1-3.328-1.208 29 29 0 0 0-1.362-.583c-.337-.127-.487-.151-.556-.151s-.219.024-.556.151m-.53-1.403c.37-.14.731-.248 1.086-.248s.717.109 1.085.248c.373.14.839.347 1.42.605l.022.01c.853.379 1.92.793 3.129 1.137l.037.01c.882.251 1.595.454 2.135.663.543.21 1.035.472 1.366.91.321.425.445.921.501 1.456.055.517.055 1.165.055 1.95v2.944c0 3.056-1.38 5.48-3.047 7.286-1.662 1.8-3.642 3.025-4.947 3.714l-.063.033c-.556.294-1.01.534-1.693.534s-1.137-.24-1.693-.534l-.063-.033c-1.305-.69-3.285-1.914-4.947-3.714-1.668-1.807-3.047-4.23-3.047-7.286V8.24c0-.785 0-1.433.055-1.95.056-.535.18-1.031.5-1.456.332-.438.824-.7 1.367-.91.54-.21 1.253-.412 2.135-.663l.037-.01a24 24 0 0 0 3.13-1.137l.021-.01c.581-.258 1.047-.465 1.42-.605" clip-rule="evenodd"/><path fill="currentColor" fill-rule="evenodd" d="M10.75 8.5a1.25 1.25 0 1 1 2.5 0 1.25 1.25 0 0 1-2.5 0M12 5.75a2.75 2.75 0 1 0 0 5.5 2.75 2.75 0 0 0 0-5.5m-2.03 8.545a4.06 4.06 0 0 1 4.06 0l.28.16c.31.172.614.343.829.55a1 1 0 0 1 .09.099l-.059.06c-.421.395-.792.586-1.21.586h-3.92c-.418 0-.789-.19-1.21-.586l-.058-.06a1 1 0 0 1 .09-.1c.215-.206.52-.377.828-.55q.141-.078.28-.159m5.288.765-.003.007zm-6.516 0 .003.007zm6.047-2.059a5.55 5.55 0 0 0-5.578 0l-.156.088c-.31.17-.86.475-1.234.836-.233.224-.511.57-.563 1.035-.057.513.18.955.546 1.298.56.525 1.281.992 2.237.992h3.919c.955 0 1.677-.467 2.236-.992.366-.342.603-.785.546-1.297-.052-.465-.33-.812-.562-1.036-.374-.36-.925-.665-1.234-.836z" clip-rule="evenodd" opacity=".4"/></svg>