<svg xmlns="http://www.w3.org/2000/svg" fill="none" viewBox="0 0 24 24"><path fill="currentColor" fill-rule="evenodd" d="M7.864 4.219c-.788.459-1.637.954-2.508 1.247-.455.153-.759.256-.974.345a2 2 0 0 0-.212.101 1 1 0 0 0-.038.114 8 8 0 0 0-.126.65c-1.086 6.355 1.295 12.041 6.75 14.246.631.255.826.328 1.246.328s.615-.073 1.245-.328c5.456-2.205 7.834-7.89 6.748-14.246a8 8 0 0 0-.126-.65 1 1 0 0 0-.038-.114 2 2 0 0 0-.211-.101c-.216-.09-.52-.192-.975-.345-.87-.293-1.72-.788-2.51-1.247-.276-.16-.545-.317-.804-.46-1.052-.574-2.094-1.009-3.332-1.009s-2.279.435-3.33 1.01c-.26.141-.529.298-.805.459m.085-1.776c1.131-.618 2.438-1.193 4.05-1.193s2.92.575 4.051 1.193c.345.189.664.375.968.552.74.43 1.39.808 2.105 1.05l.026.008c.422.142.776.26 1.044.372.254.105.559.25.774.503.19.223.287.471.35.706.059.216.103.477.152.76l.005.03C22.642 13.26 20.1 19.77 13.81 22.313l-.035.014c-.613.248-1.047.423-1.773.423s-1.16-.175-1.773-.423l-.034-.014c-6.29-2.542-8.836-9.052-7.668-15.89l.005-.029c.049-.282.093-.544.152-.76.063-.235.16-.483.35-.706.215-.253.52-.398.774-.503.268-.111.621-.23 1.044-.372l.025-.009c.716-.24 1.365-.619 2.104-1.05.304-.176.623-.362.968-.55" clip-rule="evenodd"/><path fill="currentColor" fill-rule="evenodd" d="M11.962 7.786c-.044.02-.094.046-.16.078L9.714 8.887c-.316.155-.548.269-.72.363.172.094.404.208.72.363l2.086 1.023.199.095.038-.017c.044-.02.094-.046.16-.078l2.087-1.023c.316-.155.548-.269.72-.363a19 19 0 0 0-.72-.363L12.2 7.864 12 7.77zm3.288 3.024-.257.127-.048.023-2.086 1.023-.054.027-.055.027v2.829l1.535-.753c.485-.237.77-.38.945-.499l.02-.014zm-4 4.056-1.535-.753c-.485-.237-.77-.38-.945-.499l-.02-.014v-2.79l.257.127.048.023 2.086 1.023.054.027.055.027zm5.5-5.616v4.5c0 .57-.394.911-.673 1.102-.276.19-.664.379-1.084.585l-.048.023-2.086 1.023-.054.027c-.195.097-.482.24-.805.24s-.61-.143-.805-.24l-.054-.027-2.086-1.023-.048-.023c-.42-.206-.808-.396-1.084-.585-.279-.19-.673-.532-.673-1.102v-4.5c0-.57.394-.911.673-1.102.276-.19.664-.379 1.084-.585l.048-.023 2.086-1.023.054-.027c.195-.097.482-.24.805-.24s.61.143.805.24l.054.027 2.086 1.023.048.023c.42.206.808.396 1.084.585.279.19.673.532.673 1.102" clip-rule="evenodd" opacity=".4"/></svg>