<svg xmlns="http://www.w3.org/2000/svg" fill="none" viewBox="0 0 24 24"><path fill="currentColor" fill-rule="evenodd" d="M5.25 17.5a1.75 1.75 0 1 1 3.5 0 1.75 1.75 0 0 1-3.5 0M7 14.25a3.25 3.25 0 1 0 0 6.5 3.25 3.25 0 0 0 0-6.5m8.25 3.25a1.75 1.75 0 1 1 3.5 0 1.75 1.75 0 0 1-3.5 0M17 14.25a3.25 3.25 0 1 0 0 6.5 3.25 3.25 0 0 0 0-6.5" clip-rule="evenodd"/><path fill="currentColor" fill-rule="evenodd" d="M4.95 3.25h7.1c.664 0 1.237 0 1.696.062.492.066.963.215 1.345.597s.531.854.597 1.345q.031.23.044.496h1.602c.387 0 .73 0 1.016.028.311.03.614.097.91.264.294.167.507.392.693.644.172.231.348.525.547.857l1.716 2.859.035.06c.178.294.335.556.417.853.083.297.082.602.082.946v2.771c0 .44 0 .82-.028 1.13-.03.33-.096.656-.273.963a2.25 2.25 0 0 1-.824.824c-.307.177-.633.243-.962.273-.312.028-.691.028-1.13.028H19.5a.75.75 0 0 1 0-1.5c.481 0 .792 0 1.027-.022.225-.02.307-.055.348-.079a.75.75 0 0 0 .274-.274c.024-.04.058-.123.079-.348.021-.235.022-.546.022-1.027v-2.669c0-.453-.006-.54-.027-.616s-.06-.153-.294-.542l-1.698-2.83c-.221-.369-.36-.599-.483-.765-.113-.153-.179-.203-.228-.23-.049-.028-.125-.059-.315-.077a11 11 0 0 0-.904-.021H15.75v8.25a.75.75 0 0 1-1.5 0V7c0-.728-.002-1.2-.048-1.546-.044-.325-.115-.427-.172-.484s-.159-.128-.484-.172c-.347-.046-.818-.048-1.546-.048H5c-.728 0-1.2.002-1.546.048-.325.044-.427.115-.484.172s-.128.159-.172.484c-.046.347-.048.818-.048 1.546v8c0 .481 0 .792.022 1.027.02.225.055.307.078.348a.75.75 0 0 0 .275.274c.04.024.123.058.348.079.235.021.546.022 1.027.022a.75.75 0 0 1 0 1.5h-.032c-.44 0-.82 0-1.13-.028-.33-.03-.656-.096-.963-.273a2.25 2.25 0 0 1-.824-.824c-.177-.307-.243-.633-.273-.962-.028-.312-.028-.691-.028-1.13V6.95c0-.664 0-1.237.062-1.696.066-.491.215-.963.597-1.345s.854-.531 1.345-.597c.459-.062 1.032-.062 1.697-.062m3.8 14.25a.75.75 0 0 1 .75-.75h5a.75.75 0 0 1 0 1.5h-5a.75.75 0 0 1-.75-.75" clip-rule="evenodd" opacity=".4"/></svg>