<svg xmlns="http://www.w3.org/2000/svg" fill="none" viewBox="0 0 24 24"><path fill="currentColor" fill-rule="evenodd" d="M3 22.75h15A3.754 3.754 0 0 0 21.75 19 3.754 3.754 0 0 0 18 15.25h-.052c.802-1.102.802-2.703.802-5.37V6.087a.75.75 0 0 0-.057-.386l-.673-1.546-.03-.065c-.555-1.248-.862-1.936-1.572-2.382-.705-.458-1.508-.458-2.963-.458h-4.9c-1.454 0-2.258 0-2.963.458-.711.446-1.018 1.135-1.573 2.382l-.67 1.539A.75.75 0 0 0 3.25 6v3.88c0 2.668 0 4.269.801 5.37H3a.75.75 0 0 0 0 1.5h15A2.25 2.25 0 0 1 20.25 19 2.25 2.25 0 0 1 18 21.25H3a.75.75 0 0 0 0 1.5m7.22-7.5c-2.725 0-4.092 0-4.786-.686-.684-.67-.684-2.011-.684-4.684V6.75h12.5v3.13c0 2.673 0 4.015-.687 4.687-.691.683-2.059.683-4.783.683zM5.359 4.766l-.21.484h11.708l-.24-.549c-.481-1.082-.69-1.528-1.001-1.723l-.014-.01c-.32-.208-.89-.217-2.15-.217h-4.9c-1.26 0-1.83.009-2.148.218l-.014.009c-.313.195-.521.641-1.002 1.723z" clip-rule="evenodd"/><path fill="currentColor" fill-rule="evenodd" d="M16.004 19c0 .552.453 1 1.005 1a1 1 0 0 0 0-2h-.01a.996.996 0 0 0-.995 1m-6 0c0 .552.453 1 1.005 1a1 1 0 0 0 0-2h-.01a.996.996 0 0 0-.995 1m-6 0c0 .552.453 1 1.005 1a1 1 0 0 0 0-2h-.01a.996.996 0 0 0-.995 1M9.5 9.75h3a.75.75 0 0 0 0-1.5h-3a.75.75 0 0 0 0 1.5" clip-rule="evenodd" opacity=".4"/></svg>