<svg xmlns="http://www.w3.org/2000/svg" fill="none" viewBox="0 0 24 24"><path fill="currentColor" fill-rule="evenodd" d="M4.535 6.75h14.93c.492 0 .94 0 1.3.052.394.058.814.196 1.127.579.31.378.368.816.357 1.215-.01.368-.086.818-.17 1.32l-1.22 7.275c-.193 1.15-.349 2.08-.563 2.806-.223.755-.533 1.381-1.09 1.864-.56.485-1.22.696-1.99.795-.736.094-1.656.094-2.788.094H9.572c-1.13 0-2.051 0-2.788-.094-.77-.099-1.428-.31-1.988-.795-.558-.483-.868-1.109-1.09-1.864-.215-.727-.371-1.657-.564-2.806L1.93 9.964l-.008-.048c-.085-.502-.16-.952-.17-1.32-.012-.399.046-.837.355-1.215.314-.383.734-.52 1.129-.579.359-.052.807-.052 1.3-.052M3.268 8.333l-.004.013a.8.8 0 0 0-.013.207c.007.251.063.598.158 1.163l1.204 7.18c.202 1.208.344 2.047.53 2.677.18.61.377.932.634 1.155.254.22.59.362 1.197.44.63.08 1.454.082 2.648.082h4.756c1.194 0 2.018-.001 2.648-.082.608-.078.943-.22 1.197-.44.257-.223.454-.544.634-1.155.186-.63.328-1.47.53-2.678l1.204-7.18c.095-.564.151-.91.158-1.162a.8.8 0 0 0-.017-.22l-.004-.002a.7.7 0 0 0-.18-.044c-.238-.035-.574-.037-1.134-.037H4.586c-.56 0-.896.002-1.133.037a.7.7 0 0 0-.185.046" clip-rule="evenodd"/><path fill="currentColor" fill-rule="evenodd" d="M12 2.75A4.75 4.75 0 0 0 7.25 7.5h-1.5a6.25 6.25 0 1 1 12.5 0h-1.5A4.75 4.75 0 0 0 12 2.75" clip-rule="evenodd" opacity=".4"/></svg>