<svg xmlns="http://www.w3.org/2000/svg" fill="none" viewBox="0 0 24 24"><path fill="currentColor" fill-rule="evenodd" d="M4.535 6.75h14.93c.492 0 .94 0 1.3.052.394.058.814.196 1.127.579.31.378.368.816.357 1.215-.01.368-.086.818-.17 1.32l-.287 1.708a.75.75 0 1 1-1.48-.248l.279-1.66c.095-.565.151-.912.158-1.163a.8.8 0 0 0-.017-.22l-.004-.002a.7.7 0 0 0-.18-.044c-.238-.035-.574-.037-1.134-.037H4.586c-.56 0-.896.002-1.133.037a.7.7 0 0 0-.185.046l-.004.013a.8.8 0 0 0-.013.207c.007.251.063.598.158 1.163l1.204 7.18c.202 1.208.344 2.047.53 2.677.18.61.377.932.634 1.155.254.22.59.362 1.197.44.63.08 1.454.082 2.648.082H11a.75.75 0 0 1 0 1.5H9.571c-1.13 0-2.051 0-2.788-.094-.77-.099-1.428-.31-1.988-.795-.558-.483-.868-1.109-1.09-1.864-.215-.727-.371-1.657-.564-2.806L1.93 9.964l-.008-.048c-.085-.502-.16-.952-.17-1.32-.012-.399.046-.837.355-1.215.314-.383.734-.52 1.129-.579.359-.052.807-.052 1.3-.052" clip-rule="evenodd"/><path fill="currentColor" fill-rule="evenodd" d="M7.25 7.5a4.75 4.75 0 0 1 9.5 0h1.5a6.25 6.25 0 1 0-12.5 0zm8.121 7.777q.173-.091.318-.163c.445-.22.845-.364 1.31-.364.464 0 .864.145 1.309.364q.146.072.318.163c.357.188.788.414 1.215.543l.293.09.01.05c.444 2.34-.515 4.38-2.722 5.182-.278.101-.309.108-.422.108-.114 0-.144-.007-.422-.108-2.208-.803-3.168-2.842-2.724-5.182l.01-.05.293-.09c.427-.13.858-.356 1.214-.543m1.627-2.027c-.802 0-1.446.26-1.971.518a20 20 0 0 0-.473.242c-.31.163-.551.29-.832.374l-.02.006a9 9 0 0 0-.478.154 1.3 1.3 0 0 0-.501.306c-.15.158-.22.332-.261.466a4 4 0 0 0-.078.343l-.004.021c-.557 2.937.672 5.776 3.685 6.872l.024.009c.273.099.52.189.91.189.391 0 .638-.09.911-.19l.024-.008c3.013-1.096 4.241-3.935 3.684-6.872l-.004-.02a4 4 0 0 0-.078-.344 1.14 1.14 0 0 0-.26-.466 1.3 1.3 0 0 0-.502-.306 8 8 0 0 0-.478-.154l-.02-.006c-.281-.085-.523-.212-.833-.374q-.208-.111-.473-.242c-.526-.259-1.17-.518-1.972-.518" clip-rule="evenodd" opacity=".4"/></svg>