<svg xmlns="http://www.w3.org/2000/svg" fill="none" viewBox="0 0 24 24"><path fill="currentColor" fill-rule="evenodd" d="M16.012 5.93a.75.75 0 0 1 1.057.082l1.5 1.75A.75.75 0 0 1 18 9h-1.86c-.536 0-.891 0-1.168.025-.263.023-.403.064-.509.117-.237.12-.413.333-1.04 1.213a.75.75 0 1 1-1.222-.87l.086-.12c.495-.699.89-1.256 1.503-1.563.336-.169.68-.239 1.051-.271.35-.031.771-.031 1.269-.031h.26l-.44-.512a.75.75 0 0 1 .082-1.057M7.695 9.026C7.418 9 7.063 9 6.525 9H6a.75.75 0 1 1 0-1.5h.557c.498 0 .918 0 1.268.03.372.033.716.103 1.051.272.613.307 1.008.864 1.504 1.563l.085.12 2.959 4.16c.626.88.802 1.094 1.039 1.213.106.053.246.094.509.117a15 15 0 0 0 1.169.025H18a.75.75 0 0 1 .57 1.238l-1.5 1.75a.75.75 0 1 1-1.14-.976l.44-.512h-.26c-.498 0-.919 0-1.269-.03-.37-.033-.715-.103-1.05-.271-.613-.308-1.009-.865-1.504-1.564l-.086-.12-2.958-4.16c-.626-.88-.802-1.094-1.04-1.213-.106-.053-.245-.094-.508-.117m2.594 4.444a.75.75 0 0 1 .176 1.046l-.085.12c-.496.699-.891 1.256-1.504 1.563-.335.169-.68.239-1.05.271-.35.031-.771.031-1.269.031H6A.75.75 0 0 1 6 15h.526c.537 0 .892 0 1.169-.025.263-.023.402-.064.509-.117.237-.12.413-.333 1.039-1.213a.75.75 0 0 1 1.046-.176" clip-rule="evenodd" opacity=".4"/><path fill="currentColor" fill-rule="evenodd" d="M11.943 1.75h.114c2.19 0 3.912 0 5.255.18 1.377.186 2.469.573 3.327 1.43.858.86 1.245 1.951 1.43 3.328.181 1.343.181 3.064.181 5.255v.114c0 2.19 0 3.912-.18 5.255-.186 1.377-.573 2.469-1.43 3.327-.86.858-1.951 1.245-3.328 1.43-1.343.181-3.064.181-5.255.181h-.114c-2.19 0-3.912 0-5.255-.18-1.377-.186-2.469-.573-3.327-1.43-.858-.86-1.245-1.951-1.43-3.328-.181-1.343-.181-3.064-.181-5.255v-.114c0-2.19 0-3.912.18-5.255.186-1.377.573-2.469 1.43-3.327.86-.858 1.951-1.245 3.328-1.43 1.343-.181 3.064-.181 5.255-.181M6.888 3.417c-1.21.163-1.933.472-2.466 1.005S3.58 5.678 3.417 6.888C3.252 8.12 3.25 9.74 3.25 12s.002 3.88.167 5.112c.163 1.21.472 1.933 1.005 2.466s1.256.842 2.466 1.005c1.232.165 2.852.167 5.112.167s3.88-.002 5.112-.167c1.21-.163 1.933-.471 2.466-1.005s.842-1.256 1.005-2.466c.165-1.232.167-2.852.167-5.112s-.002-3.88-.167-5.112c-.163-1.21-.471-1.933-1.005-2.466s-1.256-.842-2.466-1.005C15.88 3.252 14.26 3.25 12 3.25s-3.88.002-5.112.167" clip-rule="evenodd"/></svg>