<svg xmlns="http://www.w3.org/2000/svg" fill="none" viewBox="0 0 24 24"><path fill="currentColor" fill-rule="evenodd" d="M13.045 2.25h-2.09c-1.837 0-3.276 0-4.419.124-1.165.126-2.11.388-2.916.974A5.8 5.8 0 0 0 2.348 4.62c-.586.807-.848 1.75-.974 2.916-.124 1.143-.124 2.582-.124 4.419v.09c0 1.837 0 3.276.124 4.419.126 1.165.388 2.11.974 2.916a5.8 5.8 0 0 0 1.272 1.272c.807.586 1.75.848 2.916.974 1.143.124 2.582.124 4.419.124h2.09c1.837 0 3.276 0 4.419-.124 1.165-.126 2.11-.388 2.916-.974a5.8 5.8 0 0 0 1.272-1.272c.586-.807.848-1.75.974-2.916.124-1.143.124-2.582.124-4.419v-.09c0-1.837 0-3.276-.124-4.419-.126-1.165-.388-2.11-.974-2.916a5.8 5.8 0 0 0-1.272-1.272c-.807-.586-1.75-.848-2.916-.974-1.143-.124-2.582-.124-4.419-.124M4.502 4.562c.508-.37 1.158-.585 2.196-.697C7.75 3.751 9.108 3.75 11 3.75h2.75v16.5H11c-1.892 0-3.25-.001-4.302-.115-1.038-.113-1.688-.328-2.196-.697a4.3 4.3 0 0 1-.94-.94c-.37-.508-.585-1.158-.697-2.196-.114-1.052-.115-2.41-.115-4.302s.001-3.25.115-4.302c.112-1.038.328-1.688.697-2.196.262-.36.58-.678.94-.94M15.25 20.239a23 23 0 0 0 2.052-.104c1.038-.113 1.688-.328 2.196-.697.36-.262.678-.58.94-.94.37-.508.585-1.158.697-2.196.114-1.052.115-2.41.115-4.302s-.001-3.25-.115-4.302c-.113-1.038-.328-1.688-.697-2.196a4.3 4.3 0 0 0-.94-.94c-.508-.37-1.158-.585-2.196-.697a23 23 0 0 0-2.052-.104z" clip-rule="evenodd"/><path fill="currentColor" fill-rule="evenodd" d="M19.75 7a.75.75 0 0 0-.75-.75h-1.5a.75.75 0 0 0 0 1.5H19a.75.75 0 0 0 .75-.75m0 4a.75.75 0 0 0-.75-.75h-1.5a.75.75 0 0 0 0 1.5H19a.75.75 0 0 0 .75-.75m-12.24-.432a.75.75 0 1 1 .98-1.136l1.226 1.057.032.027c.23.199.457.394.62.579.18.204.382.5.382.905s-.201.701-.382.905c-.163.185-.39.38-.62.579l-.032.027-1.226 1.057a.75.75 0 0 1-.98-1.136l1.227-1.057c.2-.172.331-.287.422-.375a10 10 0 0 0-.422-.375z" clip-rule="evenodd" opacity=".4"/></svg>