<svg xmlns="http://www.w3.org/2000/svg" fill="none" viewBox="0 0 24 24"><path fill="currentColor" fill-rule="evenodd" d="M3 18.25a.75.75 0 0 0 0 1.5h3a.75.75 0 0 0 0-1.5zm6.75.75a.75.75 0 0 1 .75-.75h3a.75.75 0 0 1 0 1.5h-3a.75.75 0 0 1-.75-.75m7.5 0a.75.75 0 0 1 .75-.75h3a.75.75 0 0 1 0 1.5h-3a.75.75 0 0 1-.75-.75" clip-rule="evenodd"/><path fill="currentColor" fill-rule="evenodd" d="M6.97 4.47a.75.75 0 0 1 1.06 0l3.47 3.47 3.47-3.47a.75.75 0 1 1 1.06 1.06L12.56 9l3.47 3.47a.75.75 0 1 1-1.06 1.06l-3.47-3.47-3.47 3.47a.75.75 0 0 1-1.06-1.06L10.44 9 6.97 5.53a.75.75 0 0 1 0-1.06" clip-rule="evenodd" opacity=".4"/></svg>