<svg xmlns="http://www.w3.org/2000/svg" fill="none" viewBox="0 0 24 24"><path fill="currentColor" fill-rule="evenodd" d="M10.073 13.516a.75.75 0 0 1-.089 1.057l-1.112.94a9 9 0 0 0-.553.487c.109.111.277.255.553.488l1.112.94a.75.75 0 0 1-.968 1.145l-1.112-.94.484-.572-.484.573q-.017-.016-.033-.028c-.267-.226-.523-.442-.706-.644-.199-.22-.415-.535-.415-.962s.216-.742.415-.962c.183-.202.439-.418.706-.643l.033-.029 1.112-.939a.75.75 0 0 1 1.057.09m3.854 0a.75.75 0 0 1 1.057-.089l1.112.94.033.027c.267.226.523.442.706.644.199.22.415.535.415.962s-.216.741-.415.962c-.183.202-.439.418-.706.644l-.033.028-1.112.939a.75.75 0 0 1-.968-1.146l1.112-.94c.276-.232.444-.376.553-.487a9 9 0 0 0-.553-.488l-1.112-.939a.75.75 0 0 1-.089-1.057" clip-rule="evenodd" opacity=".4"/><path fill="currentColor" fill-rule="evenodd" d="M14.7 2.892c-.342-.128-.709-.142-1.842-.142-2.308 0-3.967.002-5.232.167-1.245.163-2 .473-2.564 1.012q-.068.065-.133.133c-.54.564-.85 1.319-1.012 2.564-.165 1.265-.167 2.924-.167 5.232V13c0 1.892.001 3.25.115 4.302.112 1.038.328 1.688.697 2.196.262.36.58.678.94.94.508.37 1.158.585 2.196.697 1.052.114 2.41.115 4.302.115s3.25-.001 4.302-.115c1.038-.112 1.688-.328 2.196-.697.36-.262.678-.58.94-.94.37-.508.585-1.158.697-2.196.114-1.052.115-2.41.115-4.302V9.81c0-1.452-.017-1.941-.212-2.36-.196-.417-.562-.743-1.677-1.673l-2.196-1.83c-.842-.701-1.133-.931-1.464-1.055M12.94 1.25c.991 0 1.651 0 2.286.237.6.224 1.095.636 1.807 1.23l.093.078 2.196 1.83.124.103c.941.783 1.596 1.328 1.951 2.087.355.758.355 1.61.354 2.834v3.396c0 1.837 0 3.276-.124 4.419-.126 1.165-.388 2.11-.974 2.916a5.8 5.8 0 0 1-1.272 1.272c-.807.586-1.75.848-2.916.974-1.143.124-2.582.124-4.419.124h-.09c-1.837 0-3.276 0-4.419-.124-1.165-.126-2.11-.388-2.916-.974a5.8 5.8 0 0 1-1.272-1.272c-.586-.806-.848-1.75-.974-2.916-.124-1.143-.124-2.582-.124-4.419v-1.242c0-2.241 0-3.998.18-5.372.184-1.405.567-2.519 1.415-3.405a6 6 0 0 1 .18-.181c.887-.848 2-1.231 3.406-1.415 1.374-.18 3.13-.18 5.372-.18z" clip-rule="evenodd"/></svg>