<svg xmlns="http://www.w3.org/2000/svg" fill="none" viewBox="0 0 24 24"><path fill="currentColor" fill-rule="evenodd" d="M7.75 4a1.25 1.25 0 1 1 2.5 0 1.25 1.25 0 0 1-2.5 0M9 1.25a2.75 2.75 0 1 0 0 5.5 2.75 2.75 0 0 0 0-5.5M17.75 7a1.25 1.25 0 1 1 2.5 0 1.25 1.25 0 0 1-2.5 0M19 4.25a2.75 2.75 0 1 0 0 5.5 2.75 2.75 0 0 0 0-5.5m1 14.5a1.25 1.25 0 1 0 0 2.5 1.25 1.25 0 0 0 0-2.5M17.25 20a2.75 2.75 0 1 1 5.5 0 2.75 2.75 0 0 1-5.5 0m-14.5-2a1.25 1.25 0 1 1 2.5 0 1.25 1.25 0 0 1-2.5 0M4 15.25a2.75 2.75 0 1 0 0 5.5 2.75 2.75 0 0 0 0-5.5" clip-rule="evenodd"/><path fill="currentColor" fill-rule="evenodd" d="M10.197 4.363a.75.75 0 0 1 .934-.503l6.168 1.85a.75.75 0 0 1-.431 1.437L10.7 5.297a.75.75 0 0 1-.503-.934m-1.618.818a.75.75 0 0 1 .454.959L5.378 16.372a.75.75 0 1 1-1.412-.505L7.62 5.635a.75.75 0 0 1 .959-.454M19.095 8.25a.75.75 0 0 1 .805.69l.694 9.012a.75.75 0 0 1-1.496.115l-.693-9.012a.75.75 0 0 1 .69-.805M5.24 18.159a.75.75 0 0 1 .837-.652l12.03 1.504a.75.75 0 1 1-.186 1.489l-12.03-1.504a.75.75 0 0 1-.651-.837" clip-rule="evenodd" opacity=".4"/></svg>