<svg xmlns="http://www.w3.org/2000/svg" fill="none" viewBox="0 0 24 24"><path fill="currentColor" fill-rule="evenodd" d="M17.09 4.642c.76.727 1.33 1.604 1.645 2.526.137.402.25.774.313 1.14.138.814.115 1.996.08 2.962-.495.048-1 .163-1.427.388-.195.102-.353.26-.45.463-.093.19-.113.38-.11.529.007.28.101.556.18.758.07.18.159.375.238.548l.043.096q.101.219.171.397l-.64 5.193a1 1 0 0 0-.005.118c.034.988.37 1.776.945 2.302.569.522 1.3.72 1.99.665 1.365-.11 2.717-1.239 2.62-3.034l-.003-.03-.238-2.511-.006-.043-.408-2.664.086-.17.075-.141c.073-.136.16-.298.235-.452.104-.213.22-.475.28-.74.055-.245.103-.658-.145-1.033a.8.8 0 0 0-.145-.163 1.6 1.6 0 0 0-.598-.29 5 5 0 0 0-.607-.12 9 9 0 0 0-.58-.058c.036-.976.058-2.275-.102-3.22a9 9 0 0 0-.373-1.375C19.07 3.51 15.584.796 11.45 1.3a.75.75 0 0 0-.326.121c-1.92.507-3.401 2.083-3.401 4.075 0 2.434 2.212 4.247 4.73 4.247 2.52 0 4.732-1.813 4.732-4.247q-.001-.442-.094-.855m2.744 8.1a4 4 0 0 0-1.116.12v.002c.054.137.122.285.2.46l.05.109c.095.209.203.453.283.693a.75.75 0 0 1 .033.329l-.655 5.31c.033.636.244.996.457 1.192.225.206.529.3.856.274.667-.053 1.283-.58 1.243-1.443l-.234-2.473-.436-2.839a.8.8 0 0 1 .013-.292c.053-.215.176-.452.26-.609l.094-.178c.068-.126.132-.246.194-.373q.048-.097.082-.178l-.153-.023a11 11 0 0 0-1.17-.08m1.414-.18v-.003.01zM9.223 5.496c0-1.429 1.352-2.747 3.23-2.747 1.88 0 3.232 1.318 3.232 2.747s-1.353 2.747-3.231 2.747c-1.879 0-3.231-1.318-3.231-2.747" clip-rule="evenodd"/><path fill="currentColor" fill-rule="evenodd" d="M5.867 4.501c2.18-2.554 4.79-3.45 7.221-3.215a.75.75 0 0 1-.143 1.493c-1.918-.185-4.057.494-5.937 2.696a.75.75 0 0 1-1.141-.974M5.6 6.81a.75.75 0 0 1 .343 1.004c-.04.082-.097.283-.142.633-.043.33-.068.727-.08 1.15-.017.562-.01 1.148.003 1.653.493.048.996.163 1.423.387.444.235.563.664.567.975.003.28-.077.56-.15.774-.074.215-.17.443-.254.644l-.012.029q-.1.233-.173.426l.59 5.143a1 1 0 0 1 .005.111c-.034.984-.363 1.77-.926 2.298a2.55 2.55 0 0 1-1.967.67c-1.358-.112-2.671-1.254-2.575-3.034l.002-.03.239-2.511.002-.02.33-2.69-.083-.19-.04-.088c-.065-.14-.143-.312-.211-.481a3.2 3.2 0 0 1-.208-.718c-.035-.25-.038-.619.184-.955a.8.8 0 0 1 .145-.163c.28-.233.697-.367 1.05-.448q.264-.06.562-.1a32 32 0 0 1-.003-1.725c.013-.45.04-.901.092-1.3.05-.379.13-.786.284-1.1A.75.75 0 0 1 5.6 6.808m.56 6.041c-.307-.092-.708-.138-1.147-.129a5 5 0 0 0-1.015.12 3 3 0 0 0-.192.05q.027.09.076.212c.053.132.113.26.176.399l.049.106c.069.151.166.364.212.555a.8.8 0 0 1 .016.27l-.35 2.85-.236 2.484c-.04.878.57 1.391 1.2 1.443a1.05 1.05 0 0 0 .82-.27c.208-.194.417-.557.45-1.2l-.604-5.258a.75.75 0 0 1 .034-.322 10 10 0 0 1 .266-.683l.002-.005c.092-.22.17-.406.227-.573zm-2.395-.157v.005z" clip-rule="evenodd" opacity=".4"/></svg>