<svg xmlns="http://www.w3.org/2000/svg" fill="none" viewBox="0 0 24 24"><path fill="currentColor" fill-rule="evenodd" d="M11.16 1.25c-5.333 0-9.91 3.596-9.91 8.317 0 1.573.692 3.386 1.775 4.821 1.08 1.432 2.659 2.626 4.521 2.72 1.24.064 2.259-.592 3.02-1.083h.001l.168-.108q.12-.076.23-.152c.04.3.092.638.157.992a13 13 0 0 0 .452 1.802c.195.567.464 1.157.855 1.58.327.354.717.603 1.182.829.447.217 1.01.434 1.702.7l.03.012c.15.058.33.135.533.22.586.249 1.35.573 2.063.733.997.224 2.244.216 3.1-.89.689-.89.66-2.094.532-3.058a19 19 0 0 0-.271-1.468l-.028-.129c-.08-.374-.151-.7-.196-.985a.7.7 0 0 1 .106-.19c.105-.145.267-.306.473-.473l.028-.023c.244-.197.472-.38.637-.546.155-.156.407-.44.429-.847.02-.387-.17-.677-.311-.855-.135-.17-.324-.358-.514-.547l-1.654-1.639c.48-.741.902-1.584.67-2.775-.79-4.04-4.96-6.958-9.78-6.958m1.437 15.237c-.088-.482-.15-.936-.19-1.29.264.045.572.17.998.354l.032.014c.65.28 1.62.699 2.701.226a4.4 4.4 0 0 0 .893-.547c.117-.089.232-.18.337-.264l.026-.02q.17-.139.32-.251a.75.75 0 0 0-.894-1.204 13 13 0 0 0-.362.282l-.023.019c-.109.086-.209.166-.31.243a3 3 0 0 1-.588.368c-.428.187-.82.066-1.538-.243l-.105-.046c-.62-.27-1.546-.673-2.564-.295a4 4 0 0 0-.793.413q-.163.106-.31.207l-.013.01c-.103.07-.195.132-.286.19l-.052.032c-.88.561-1.51.964-2.253.926-1.254-.065-2.468-.89-3.4-2.126-.93-1.233-1.473-2.737-1.473-3.918 0-3.637 3.625-6.817 8.41-6.817 4.297 0 7.69 2.584 8.307 5.746.15.772-.137 1.2-.78 2.157l-.007.009a.75.75 0 0 0 .095.951l2.066 2.048c.109.108.196.194.269.27l.008.009c-.097.084-.228.19-.406.334a4 4 0 0 0-.742.754c-.204.28-.4.656-.4 1.097a1 1 0 0 0 .008.107c.052.36.14.767.226 1.166l.03.134.073.35c-.331-.21-.607-.458-.736-.718a.75.75 0 1 0-1.342.671c.35.702 1.01 1.169 1.486 1.441a6 6 0 0 0 .828.392q.003.778-.29 1.157c-.322.415-.803.52-1.585.345-.571-.129-1.122-.363-1.671-.596a23 23 0 0 0-.715-.294c-.729-.28-1.232-.475-1.616-.662-.373-.18-.582-.33-.736-.497-.177-.192-.364-.545-.537-1.049a11 11 0 0 1-.396-1.585" clip-rule="evenodd"/><path fill="currentColor" fill-rule="evenodd" d="M6.767 7.287a.75.75 0 0 1 .946.48c.557 1.703 1.675 2.309 2.642 2.483h.001a.2.2 0 0 0 .06-.032c.074-.05.167-.148.258-.291.554-.873 1.428-1.276 2.084-1.465a5.2 5.2 0 0 1 1.204-.192h.037l.001.75v-.75a.75.75 0 0 1 .003 1.5h-.002.002-.047q-.061.004-.178.015a3.6 3.6 0 0 0-.605.119c-.483.139-.956.39-1.233.827-.159.25-.381.522-.674.723a1.57 1.57 0 0 1-1.175.272c-1.442-.259-3.054-1.2-3.804-3.493a.75.75 0 0 1 .48-.946" clip-rule="evenodd" opacity=".4"/></svg>