<svg xmlns="http://www.w3.org/2000/svg" fill="none" viewBox="0 0 24 24"><path fill="currentColor" fill-rule="evenodd" d="M9.424 1.381A.75.75 0 0 1 9.75 2c0 1.506.317 2.695.776 3.48.46.788 1.002 1.085 1.474 1.085s1.013-.297 1.474-1.085c.459-.785.776-1.974.776-3.48a.75.75 0 0 1 1.02-.7c.214.083.442.147.704.22l.077.022c.276.078.603.172.9.31.303.14.63.35.87.693.248.354.352.777.334 1.248-.046 1.179.34 2.665 1.525 3.777.303.283.601.573.798.94.212.396.272.81.272 1.29v6.752c0 1.092 0 1.99-.099 2.7-.103.745-.329 1.393-.862 1.909-.368.355-.876.614-1.416.81-.551.2-1.195.353-1.885.47-1.383.233-3.02.328-4.632.306s-3.223-.16-4.554-.405a12 12 0 0 1-1.788-.455c-.495-.176-.972-.407-1.303-.727-.533-.515-.759-1.163-.862-1.909-.1-.71-.099-1.607-.099-2.7V9.8c0-.48.06-.894.272-1.29.197-.367.495-.657.798-.94 1.185-1.112 1.57-2.598 1.525-3.777-.018-.471.086-.894.333-1.248.24-.344.568-.553.87-.694a6 6 0 0 1 .978-.33c.262-.074.49-.138.704-.22a.75.75 0 0 1 .694.08m6.283 1.623c-.112 1.272-.439 2.379-.938 3.233-.625 1.07-1.584 1.828-2.769 1.828s-2.144-.759-2.769-1.828c-.5-.854-.826-1.96-.938-3.233a4 4 0 0 0-.614.208c-.167.078-.238.144-.271.192-.026.038-.072.122-.064.331.059 1.518-.432 3.46-1.998 4.93-.32.298-.437.433-.502.553-.049.091-.094.227-.094.582v6.697c0 1.16.002 1.953.084 2.547.08.57.22.846.42 1.038.099.096.333.24.763.392.412.147.94.28 1.555.393 1.231.226 2.757.359 4.305.38s3.092-.07 4.36-.285a9.6 9.6 0 0 0 1.626-.402c.45-.163.733-.332.884-.478.199-.192.34-.468.419-1.038.082-.594.084-1.387.084-2.547V9.8c0-.355-.045-.49-.094-.582-.065-.12-.182-.255-.502-.554-1.566-1.468-2.057-3.411-1.998-4.929.008-.209-.038-.293-.064-.33-.034-.049-.104-.115-.271-.193a4 4 0 0 0-.614-.208" clip-rule="evenodd"/><path fill="currentColor" fill-rule="evenodd" d="M9.46 1.406c.666.518 1.553.842 2.54.842.986 0 1.874-.324 2.54-.842l.92 1.184c-.933.727-2.146 1.158-3.46 1.158S9.473 3.317 8.54 2.59z" clip-rule="evenodd" opacity=".4"/></svg>