<svg xmlns="http://www.w3.org/2000/svg" fill="none" viewBox="0 0 24 24"><path fill="currentColor" fill-rule="evenodd" d="M1.25 12.056v-.112c0-1.602 0-2.881.135-3.884.14-1.037.435-1.89 1.11-2.565s1.528-.97 2.565-1.11c1.003-.135 2.282-.135 3.884-.135h6.112c1.602 0 2.881 0 3.884.135 1.037.14 1.89.435 2.565 1.11s.97 1.528 1.11 2.565c.135 1.003.135 2.282.135 3.884v.112c0 1.602 0 2.881-.135 3.884-.14 1.037-.435 1.89-1.11 2.565s-1.528.97-2.565 1.11c-1.003.135-2.282.135-3.884.135H8.944c-1.602 0-2.881 0-3.884-.135-1.037-.14-1.89-.435-2.565-1.11s-.97-1.528-1.11-2.565c-.135-1.003-.135-2.282-.135-3.884m1.621 3.685c.117.87.334 1.354.684 1.704s.835.567 1.704.683c.892.12 2.07.122 3.741.122h6c1.671 0 2.849-.002 3.74-.122.87-.116 1.355-.334 1.705-.683s.567-.835.683-1.704c.12-.892.122-2.07.122-3.741s-.002-2.849-.122-3.74c-.116-.87-.334-1.355-.683-1.705s-.835-.567-1.704-.684c-.892-.12-2.07-.121-3.741-.121H9c-1.671 0-2.849.002-3.74.121-.87.117-1.355.334-1.705.684s-.567.835-.684 1.704c-.12.892-.121 2.07-.121 3.741s.002 2.849.121 3.74" clip-rule="evenodd"/><path fill="currentColor" fill-rule="evenodd" d="m2.698 8.35-.576-.095-.247 1.48.534.088c.597.1.978.165 1.258.247.26.076.345.144.392.197.052.059.109.15.145.414.04.29.044.685.044 1.314 0 .605-.001.992-.036 1.281-.033.27-.086.364-.13.42-.05.06-.13.13-.385.21-.279.087-.667.156-1.288.26l-.534.089.247 1.48.534-.09c.586-.097 1.09-.182 1.488-.307.423-.132.805-.33 1.104-.7.289-.357.402-.762.453-1.182.047-.39.047-.869.047-1.419v-.042c0-.595 0-1.106-.058-1.52-.06-.438-.193-.847-.509-1.203-.305-.344-.686-.522-1.092-.641-.377-.111-.849-.19-1.391-.28M18.25 13a.75.75 0 0 0 1.5 0v-2a.75.75 0 0 0-1.5 0z" clip-rule="evenodd" opacity=".4"/></svg>