<svg xmlns="http://www.w3.org/2000/svg" fill="none" viewBox="0 0 24 24"><path fill="currentColor" fill-rule="evenodd" d="M11.941 1.25h.118c1.493 0 2.695 0 3.64.136.983.141 1.797.443 2.437 1.127.801.857 1.03 1.998 1.113 3.444a.75.75 0 1 1-1.498.086c-.08-1.393-.294-2.06-.711-2.506-.302-.322-.709-.528-1.427-.647-.077.462-.15.868-.247 1.2-.12.405-.298.786-.642 1.091-.356.316-.765.448-1.204.509-.413.057-.924.058-1.518.058-.595 0-1.106 0-1.52-.058-.438-.06-.847-.193-1.203-.509-.344-.305-.522-.686-.642-1.092-.097-.331-.17-.737-.247-1.2-.72.12-1.128.325-1.43.648-.417.446-.632 1.113-.711 2.506a.75.75 0 0 1-1.498-.086c.083-1.446.312-2.587 1.114-3.444.639-.684 1.453-.986 2.437-1.127.944-.136 2.146-.136 3.64-.136M12 2.75c.825 0 1.52 0 2.112.018a8 8 0 0 1-.186.9c-.076.26-.144.344-.197.391-.059.052-.15.109-.414.145-.29.04-.684.044-1.313.044-.63 0-1.025-.004-1.314-.044-.264-.036-.355-.093-.414-.145-.053-.047-.12-.131-.197-.392a8 8 0 0 1-.186-.899A75 75 0 0 1 12 2.75M5.457 17.251a.75.75 0 0 1 .792.706c.08 1.393.294 2.06.711 2.506.32.341.757.552 1.555.666.826.12 1.92.121 3.485.121 1.566 0 2.66-.002 3.485-.12.799-.115 1.236-.326 1.555-.667.417-.446.632-1.113.711-2.506a.75.75 0 0 1 1.498.086c-.083 1.446-.312 2.587-1.113 3.444-.64.684-1.454.986-2.438 1.127-.944.136-2.146.136-3.64.136h-.117c-1.493 0-2.695 0-3.64-.136-.983-.141-1.797-.443-2.436-1.127-.802-.857-1.031-1.998-1.114-3.444a.75.75 0 0 1 .706-.792M11 18.25a.75.75 0 0 0 0 1.5h2a.75.75 0 0 0 0-1.5z" clip-rule="evenodd"/><path fill="currentColor" fill-rule="evenodd" d="M3.747 9.206a.75.75 0 0 1 .498-1.415h.002l.001.001.003.001.007.003.019.007a2 2 0 0 1 .219.097c.13.066.305.169.483.317.359.297.771.819.771 1.596 0 .754-.401 1.242-.644 1.537l-.026.032c-.26.318-.33.433-.33.618s.07.3.33.619l.026.031c.243.295.644.784.644 1.538 0 .777-.412 1.298-.771 1.596a2.6 2.6 0 0 1-.702.414l-.019.006-.007.003-.003.001h-.001S4.245 16.21 4 15.5l.245.709a.75.75 0 0 1-.498-1.415l.009-.003.061-.029c.058-.03.133-.074.204-.133.141-.117.23-.252.23-.441 0-.186-.07-.3-.331-.619l-.026-.031c-.243-.296-.644-.784-.644-1.538s.401-1.242.644-1.537l.026-.032c.26-.318.33-.433.33-.618 0-.19-.088-.325-.229-.442a1.1 1.1 0 0 0-.265-.161zm16.507 0a.75.75 0 0 0-.499-1.415h-.001l-.002.001-.003.001-.007.003-.018.007a2 2 0 0 0-.22.097 2.7 2.7 0 0 0-.483.317c-.359.297-.77.819-.77 1.596 0 .754.4 1.242.643 1.537l.026.032c.26.318.33.433.33.618s-.07.3-.33.619l-.026.031c-.242.295-.644.784-.644 1.538 0 .777.412 1.298.771 1.596a2.6 2.6 0 0 0 .703.414l.018.006.007.003.003.001h.002s.001.001.246-.708l-.245.709a.75.75 0 0 0 .499-1.415l-.01-.003-.06-.029a1 1 0 0 1-.205-.133c-.141-.117-.229-.252-.229-.441 0-.186.07-.3.33-.619l.026-.031c.243-.296.644-.784.644-1.538s-.401-1.242-.644-1.537l-.026-.032c-.26-.318-.33-.433-.33-.618 0-.19.088-.325.229-.442a1.1 1.1 0 0 1 .266-.161z" clip-rule="evenodd" opacity=".4"/></svg>