<svg xmlns="http://www.w3.org/2000/svg" fill="none" viewBox="0 0 24 24"><path fill="currentColor" fill-rule="evenodd" d="M7.961 2.25h8.078c1.136 0 2.044 0 2.771.07.748.073 1.385.226 1.951.581.54.34.998.797 1.338 1.338.355.566.508 1.203.58 1.95.071.728.071 1.636.071 2.772v.078c0 1.136 0 2.044-.07 2.771-.073.748-.226 1.385-.581 1.951-.34.54-.797.998-1.338 1.338-.566.355-1.203.508-1.95.58-.728.071-1.636.071-2.772.071H7.961c-1.136 0-2.044 0-2.771-.07-.748-.073-1.385-.226-1.951-.581A4.25 4.25 0 0 1 1.9 13.76c-.355-.566-.508-1.203-.58-1.95-.071-.728-.071-1.636-.071-2.772V8.96c0-1.136 0-2.044.07-2.771.073-.748.226-1.385.581-1.951A4.25 4.25 0 0 1 3.24 2.9c.566-.355 1.203-.508 1.95-.58.728-.071 1.636-.071 2.772-.071M5.334 3.814c-.635.061-1.01.177-1.297.358a2.75 2.75 0 0 0-.865.865c-.181.287-.297.662-.358 1.297C2.75 6.981 2.75 7.816 2.75 9s0 2.019.064 2.666c.061.635.177 1.01.358 1.297.22.35.515.646.865.866.287.18.662.296 1.297.357.647.063 1.482.064 2.666.064h8c1.184 0 2.019 0 2.666-.064.635-.061 1.01-.177 1.297-.357.35-.22.646-.516.865-.866.181-.287.297-.662.358-1.297.063-.647.064-1.482.064-2.666s0-2.019-.064-2.666c-.061-.635-.177-1.01-.358-1.297a2.75 2.75 0 0 0-.865-.865c-.287-.181-.662-.297-1.297-.358-.647-.063-1.482-.064-2.666-.064H8c-1.184 0-2.019 0-2.666.064M6.25 12a.75.75 0 0 1 .75-.75h10a.75.75 0 0 1 0 1.5H7a.75.75 0 0 1-.75-.75M18 6a1 1 0 1 0 0 2h.009a1 1 0 1 0 0-2z" clip-rule="evenodd"/><path fill="currentColor" fill-rule="evenodd" d="M6.506 17.31a.75.75 0 0 1 .984.396v.001l.001.002.002.003.003.01.011.027q.014.032.032.086.039.106.087.288c.061.237.124.571.124.955 0 .786-.27 1.798-1.319 2.536a.75.75 0 1 1-.862-1.227c.55-.388.681-.876.681-1.309a2.4 2.4 0 0 0-.14-.784l-.002-.004a.75.75 0 0 1 .398-.98m10.988 0a.75.75 0 0 0-.984.396v.001l-.001.002-.002.003-.004.01-.01.027q-.014.032-.032.086-.039.106-.087.288a4 4 0 0 0-.124.955c0 .786.27 1.798 1.319 2.536a.75.75 0 1 0 .862-1.227c-.55-.388-.681-.876-.681-1.309a2.4 2.4 0 0 1 .14-.784l.002-.004a.75.75 0 0 0-.398-.98M12.75 18a.75.75 0 0 0-1.5 0v3a.75.75 0 1 0 1.5 0z" clip-rule="evenodd" opacity=".4"/></svg>