<svg xmlns="http://www.w3.org/2000/svg" fill="none" viewBox="0 0 24 24"><path fill="currentColor" fill-rule="evenodd" d="M9.538 2.258a.75.75 0 0 1 .632.852l-.156 1.058-.007.05c-.083.56-.156 1.054-.265 1.434-.116.399-.315.837-.768 1.099-.454.262-.933.216-1.336.116-.384-.095-.848-.279-1.373-.487l-.047-.018-.994-.394a.75.75 0 0 1 .552-1.395l.995.394c.586.232.955.377 1.227.444.122.03.189.036.222.035a1 1 0 0 0 .08-.21c.078-.27.138-.662.23-1.287l.156-1.058a.75.75 0 0 1 .852-.633M8.205 5.467l.005-.005zm.033-.022.007-.001zm9.498 12.175 1.04.412a.75.75 0 0 1-.552 1.395l-.994-.394c-.587-.232-.955-.376-1.228-.444a1 1 0 0 0-.221-.035 1 1 0 0 0-.08.21c-.079.27-.138.662-.23 1.287l-.157 1.059a.75.75 0 1 1-1.484-.22l.164-1.108c.082-.56.155-1.054.265-1.433.115-.4.314-.837.768-1.1.454-.262.933-.216 1.336-.116.383.095.847.279 1.373.487m-1.94.913-.005.006zm-.034.022-.007.002zm5.826-9.27a.75.75 0 0 1-.122 1.053l-.831.659c-.49.389-.797.633-.99.834a1 1 0 0 0-.137.169 1 1 0 0 0 .137.169c.193.2.5.445.99.834l.831.66a.75.75 0 1 1-.932 1.175l-.87-.69c-.44-.349-.828-.656-1.1-.939C18.278 12.912 18 12.522 18 12s.278-.912.564-1.209c.272-.283.66-.59 1.1-.939l.87-.69a.75.75 0 0 1 1.054.122m-2.092 2.69.002.007zm.002.043-.002.007zM2.412 9.284a.75.75 0 0 1 1.054-.122l.831.66.04.03c.439.349.827.656 1.099.939.286.297.564.687.564 1.209s-.278.912-.564 1.21c-.272.282-.66.59-1.1.938l-.039.03-.831.66a.75.75 0 1 1-.932-1.176l.831-.659c.49-.389.797-.633.99-.834A1 1 0 0 0 4.492 12a1 1 0 0 0-.137-.169c-.193-.2-.5-.445-.99-.834l-.83-.66a.75.75 0 0 1-.123-1.053m2.092 2.741-.002-.007zm-.002-.043.002-.007zm11.012-9.1a.75.75 0 1 0-1.482.236l.176 1.11c.089.558.167 1.055.286 1.437.127.412.345.844.816 1.097.459.245.94.204 1.363.107.406-.094.9-.276 1.471-.486l1.115-.41a.75.75 0 0 0-.518-1.408l-1.07.394c-.629.231-1.033.379-1.335.448-.143.033-.228.04-.277.038l-.037-.004-.007-.01a.8.8 0 0 1-.088-.21c-.083-.266-.146-.654-.245-1.28zM6.33 19.043c.628-.232 1.032-.38 1.334-.449.144-.033.229-.04.277-.038q.033.003.038.005l.007.01a.8.8 0 0 1 .088.209c.082.267.146.654.245 1.28l.168 1.058a.75.75 0 0 0 1.481-.234l-.176-1.11c-.088-.558-.167-1.055-.286-1.438-.127-.412-.345-.844-.816-1.096-.458-.246-.94-.205-1.363-.108-.406.094-.9.276-1.47.486l-1.116.411a.75.75 0 1 0 .518 1.408z" clip-rule="evenodd"/><path fill="currentColor" fill-rule="evenodd" d="m13.306 12.753 2.842 4.872-1.296.756L12 13.49l-2.852 4.89-1.296-.756 2.842-4.872H5v-1.5h5.694L7.852 6.381l1.296-.756L12 10.515l2.852-4.89 1.296.756-2.842 4.872H19v1.5z" clip-rule="evenodd" opacity=".4"/></svg>