<svg xmlns="http://www.w3.org/2000/svg" fill="none" viewBox="0 0 24 24"><path fill="currentColor" fill-rule="evenodd" d="M17.68 17.75c.15.16.35.25.56.25.18 0 .36-.06.5-.19.31-.28.33-.75.06-1.06A2.253 2.253 0 0 1 20.48 13c.41 0 .75-.34.75-.75s-.34-.75-.75-.75a3.751 3.751 0 0 0-2.8 6.25m-10.7-.25c-.19 0-.38-.07-.53-.22l-2-2a.754.754 0 0 1 0-1.06c.29-.29.77-.29 1.06 0l2 2c.29.29.29.77 0 1.06-.15.15-.34.22-.53.22m9 3c-.19 0-.38-.07-.53-.22l-5-5a.754.754 0 0 1 0-1.06c.29-.29.77-.29 1.06 0l5 5c.29.29.29.77 0 1.06-.15.15-.34.22-.53.22" clip-rule="evenodd" opacity=".4"/><path fill="currentColor" fill-rule="evenodd" d="M17.688 17.5c.15.16.35.25.56.25.18 0 .36-.06.5-.19.31-.28.33-.75.06-1.06a2.253 2.253 0 0 1 1.68-3.75c.41 0 .75-.34.75-.75s-.34-.75-.75-.75a3.751 3.751 0 0 0-2.8 6.25m-10.7-.25c-.19 0-.38-.07-.53-.22l-2-2a.754.754 0 0 1 0-1.06c.29-.29.77-.29 1.06 0l2 2c.29.29.29.77 0 1.06-.15.15-.34.22-.53.22m9 3c-.19 0-.38-.07-.53-.22l-5-5a.754.754 0 0 1 0-1.06c.29-.29.77-.29 1.06 0l5 5c.29.29.29.77 0 1.06-.15.15-.34.22-.53.22" clip-rule="evenodd" opacity=".4"/><path fill="currentColor" fill-rule="evenodd" d="M8.247 12c0 .2-.08.39-.22.53l-2.97 2.99a2.776 2.776 0 0 0 0 3.92c.61.61 1.49.9 2.34.79.4-.06.78.23.84.64s-.23.78-.64.84c-.19.03-.38.04-.57.04-1.12 0-2.23-.45-3.03-1.25-1.66-1.67-1.66-4.38 0-6.04l2.75-2.77V5c0-1.07 0-1.72.51-2.23.52-.52 1.17-.52 2.24-.52h1c.41 0 .75.34.75.75s-.34.75-.75.75h-1c-.5 0-1.11 0-1.19.08-.06.1-.06.67-.06 1.17v.25h2.25c.41 0 .75.34.75.75s-.34.75-.75.75h-2.25zm10.25-9.75c1.07 0 1.71 0 2.23.51.52.52.52 1.17.52 2.24v8.34c0 1.28-.5 2.48-1.4 3.37l-3.8 3.79c-.84.83-1.94 1.25-3.03 1.25s-2.19-.42-3.02-1.25c-1.66-1.67-1.66-4.38 0-6.04l2.75-2.77V5c0-1.07 0-1.72.51-2.23.52-.52 1.17-.52 2.24-.52zM14.237 5v.25h5.5V5c0-.5 0-1.07-.07-1.18-.08-.07-.69-.07-1.18-.07h-3c-.5 0-1.11 0-1.19.08-.06.1-.06.67-.06 1.17m.74 14.44 3.8-3.8c.62-.61.96-1.43.96-2.3V6.75h-5.5V12c0 .2-.08.39-.22.53l-2.97 2.99a2.776 2.776 0 0 0 0 3.92 2.79 2.79 0 0 0 3.93 0" clip-rule="evenodd"/></svg>