<svg xmlns="http://www.w3.org/2000/svg" fill="none" viewBox="0 0 24 24"><path fill="currentColor" fill-rule="evenodd" d="M8.728 18.182a.75.75 0 0 0-1.455-.364l-1 4a.75.75 0 1 0 1.455.364zm8-.364a.75.75 0 0 0-1.455.364l1 4a.75.75 0 1 0 1.455-.364zm-7.812-4.695c.8-.534 1.88-.873 3.084-.873s2.283.34 3.084.874a.75.75 0 1 0 .832-1.248c-1.065-.71-2.437-1.126-3.916-1.126s-2.851.415-3.916 1.126a.75.75 0 1 0 .832 1.248" clip-rule="evenodd" opacity=".4"/><path fill="currentColor" fill-rule="evenodd" d="M6 8.25a2.75 2.75 0 0 0-1.679 4.928l.333 1.753c.14.74.258 1.362.416 1.853.167.52.403.979.832 1.334.43.356.924.502 1.466.569.512.063 1.145.063 1.898.063h5.468c.753 0 1.386 0 1.898-.063.542-.067 1.037-.213 1.466-.569.429-.355.665-.814.832-1.334.157-.491.276-1.113.416-1.853l.333-1.753a2.75 2.75 0 0 0-1.831-4.924l.07-.498c.183-1.28.33-2.318.332-3.143.002-.857-.152-1.616-.693-2.241-.54-.626-1.27-.887-2.117-1.007-.814-.115-1.86-.115-3.148-.115h-.584c-1.288 0-2.334 0-3.148.115-.848.12-1.576.38-2.117 1.007-.54.625-.695 1.384-.693 2.241.001.825.15 1.864.332 3.143l.07.498zm1.765.699-.006-.055-.184-1.293c-.192-1.35-.324-2.284-.325-2.99-.001-.686.123-1.022.328-1.259.204-.236.517-.406 1.192-.502.697-.098 1.636-.1 2.996-.1h.468c1.36 0 2.3.002 2.996.1.675.096.988.266 1.192.502.205.237.33.573.328 1.259-.001.706-.133 1.64-.325 2.99l-.184 1.293-.006.055a3 3 0 0 0-.524.678 4 4 0 0 0-.446 1.22v.001c-.065.269-.119.604-.17.928l-.004.023c-.056.348-.113.706-.187 1.053a5.3 5.3 0 0 1-.265.918c-.108.26-.207.381-.266.427l-.013.006a1 1 0 0 1-.133.026c-.167.02-.395.021-.789.021h-2.876c-.394 0-.622-.001-.789-.021a1 1 0 0 1-.133-.026l-.012-.005-.001-.001c-.059-.046-.158-.167-.266-.427a5.4 5.4 0 0 1-.265-.918c-.074-.347-.131-.706-.187-1.053l-.004-.023c-.051-.324-.105-.66-.17-.928v-.001l-.017-.087a4 4 0 0 0-.429-1.134 3 3 0 0 0-.524-.677m8.963 2.233.013-.068.001-.006.008-.04q.012-.06.043-.171c.044-.15.113-.34.219-.524.207-.36.498-.623.988-.623a1.25 1.25 0 0 1 .625 2.333.75.75 0 0 0-.362.51l-.382 2.013c-.151.797-.253 1.327-.38 1.72-.119.372-.234.533-.36.637s-.305.187-.693.235c-.41.05-.949.052-1.76.052H9.312c-.811 0-1.35-.001-1.76-.052-.388-.048-.567-.131-.693-.235s-.241-.265-.36-.637c-.127-.393-.229-.923-.38-1.72l-.382-2.013a.75.75 0 0 0-.361-.51A1.25 1.25 0 0 1 6 9.75c.49 0 .781.263.988.624a2.4 2.4 0 0 1 .27.734v.006l.014.068c.05.198.096.477.153.837l.005.03c.054.339.117.73.198 1.114.084.394.193.81.348 1.183.15.362.374.757.728 1.033.283.222.595.304.89.34.267.031.587.031.93.031h2.952c.343 0 .663 0 .93-.032.295-.035.607-.117.89-.339.354-.276.577-.67.728-1.033.155-.373.264-.79.348-1.183.081-.384.144-.775.198-1.114l.005-.03c.057-.36.103-.639.153-.837" clip-rule="evenodd"/></svg>