<svg xmlns="http://www.w3.org/2000/svg" fill="none" viewBox="0 0 24 24"><path fill="currentColor" fill-rule="evenodd" d="M3.786 5.138a23 23 0 0 1-.035-1.387c.566.002 1.012.01 1.387.035.52.036.845.103 1.106.211a3.25 3.25 0 0 1 1.759 1.76c.108.26.175.586.21 1.105.026.375.034.821.036 1.387a23 23 0 0 1-1.387-.035c-.52-.036-.845-.103-1.106-.211a3.25 3.25 0 0 1-1.759-1.76c-.108-.26-.175-.586-.21-1.105m3.032-2.526c-.474-.197-.982-.282-1.578-.322-.584-.04-1.304-.04-2.213-.04H3a.75.75 0 0 0-.75.75v.027c0 .91 0 1.63.04 2.213.04.596.125 1.104.322 1.578a4.75 4.75 0 0 0 2.57 2.57c.474.197.982.282 1.578.322.42.029.91.037 1.49.04v3.5H3a.75.75 0 0 0 0 1.5h10a.75.75 0 0 0 0-1.5H9.75V9.748q.426-.004.76-.025c.41-.028.78-.087 1.13-.233a3.42 3.42 0 0 0 1.85-1.85c.146-.35.205-.72.233-1.13.027-.397.027-.885.027-1.484V5a.75.75 0 0 0-.75-.75h-.026c-.6 0-1.087 0-1.484.027-.41.028-.78.087-1.13.233a3.4 3.4 0 0 0-.99.627 4.75 4.75 0 0 0-2.552-2.525m5.408 3.796c.013-.185.019-.398.022-.656-.258.003-.471.009-.656.022-.334.022-.52.065-.659.122-.47.194-.843.568-1.037 1.037-.057.139-.1.325-.122.659a12 12 0 0 0-.022.656c.258-.003.471-.009.656-.022.334-.022.52-.065.659-.122.47-.194.843-.568 1.037-1.037.057-.139.1-.325.122-.659" clip-rule="evenodd"/><path fill="currentColor" fill-rule="evenodd" d="M19.002 8.352a2.15 2.15 0 0 0-2.15 2.15v3.747c0 .215 0 .35-.006.451a1 1 0 0 1-.012.11l-.006.01a3 3 0 0 1-.142.206c-.125.17-.307.403-.561.73a3.65 3.65 0 1 0 5.754 0c-.255-.327-.437-.559-.562-.73-.088-.12-.127-.182-.142-.205l-.006-.01a1 1 0 0 1-.012-.11 9 9 0 0 1-.005-.452v-3.747a2.15 2.15 0 0 0-2.15-2.15m-.85 2.15a.85.85 0 1 1 1.7 0v3.764q-.002.291.007.506c.008.148.027.308.082.47.066.188.206.387.328.553q.208.282.578.751l.007.01a2.35 2.35 0 1 1-3.706 0l.008-.01q.37-.47.578-.751c.122-.165.263-.364.328-.553.055-.162.074-.322.082-.47q.01-.215.008-.506zM13.75 17a.75.75 0 0 1-.75.75H3a.75.75 0 0 1 0-1.5h10a.75.75 0 0 1 .75.75m0 3a.75.75 0 0 1-.75.75H3a.75.75 0 0 1 0-1.5h10a.75.75 0 0 1 .75.75" clip-rule="evenodd" opacity=".4"/></svg>