<svg xmlns="http://www.w3.org/2000/svg" fill="none" viewBox="0 0 24 24"><path fill="currentColor" fill-rule="evenodd" d="M1.25 12.001c0 5.928 4.822 10.75 10.75 10.75l.002.002c2.12 0 4.171-.617 5.931-1.783a.75.75 0 0 0-.829-1.251 9.2 9.2 0 0 1-5.103 1.533c-5.1 0-9.25-4.15-9.25-9.25 0-1.825.53-3.59 1.533-5.103a.75.75 0 0 0-1.251-.829 10.7 10.7 0 0 0-1.783 5.931m18.69 6.126c.127.084.27.124.412.124l-.001-.001a.75.75 0 0 0 .627-.337A10.7 10.7 0 0 0 22.749 12c0-5.928-4.822-10.75-10.75-10.75-2.12 0-4.171.617-5.931 1.783a.75.75 0 0 0 .829 1.251A9.2 9.2 0 0 1 12 2.751c5.1 0 9.25 4.15 9.25 9.25a9.2 9.2 0 0 1-1.523 5.087.75.75 0 0 0 .213 1.039m-9.026-.952c.335.31.624.576 1.086.576.461 0 .751-.267 1.086-.576l.001-.001.468-.432.027-.025.003-.003.029.004.024.003.641.086h.002c.456.062.85.116 1.226-.144.39-.27.466-.678.544-1.107l.001-.004.112-.612.001-.005.002-.009.018-.009.581-.293c.417-.211.777-.393.927-.834.154-.451-.036-.823-.239-1.221l-.002-.004-.286-.561-.001-.002.004-.007.286-.559c.203-.396.394-.77.24-1.221-.15-.442-.51-.625-.928-.836l-.581-.293-.018-.01-.003-.016-.112-.608c-.078-.433-.153-.842-.545-1.113-.376-.26-.77-.206-1.226-.144h-.001l-.644.086-.021.003-.03.004-.032-.03-.466-.43c-.336-.31-.625-.577-1.087-.577s-.752.267-1.087.577l-.468.432-.028.026-.002.002-.029-.004-.024-.003-.641-.086H9.72c-.456-.062-.85-.116-1.226.144-.39.27-.466.678-.544 1.107l-.001.004-.112.612-.001.005-.002.009-.018.009-.581.293c-.417.211-.777.393-.927.834-.154.451.036.824.239 1.22l.002.005.286.561.001.002-.004.007-.286.559c-.203.396-.394.77-.24 1.221.15.442.51.625.928.836l.581.293.018.009.003.017.112.608c.078.433.153.842.545 1.113.376.259.771.206 1.227.144l.644-.086.021-.003.03-.004.016.015.016.015zm-.046-1.927a1.1 1.1 0 0 0-.332-.048h-.001c-.122 0-.243.016-.373.034l-.643.086-.059.008-.028.004-.009-.044v-.008l-.114-.615c-.043-.231-.084-.449-.244-.663l-.007-.009c-.159-.206-.346-.302-.563-.413l-.587-.296-.019-.01-.019-.009.01-.02.284-.557c.11-.213.214-.415.214-.688s-.104-.475-.214-.688v-.001l-.286-.561-.004-.008-.004-.007.037-.019.588-.297c.217-.111.404-.207.563-.413l.007-.009c.16-.214.201-.432.245-.669l.112-.61.009-.051.088.012.64.086c.246.034.458.063.711-.014.256-.079.42-.232.592-.391l.002-.002.466-.43.033-.03.036-.034.069.064.464.428c.175.162.34.315.599.395.25.076.462.047.705.014h.001l.643-.086.055-.008.032-.004.009.046.001.006.113.615c.043.231.084.449.244.663l.007.009c.159.206.346.302.563.413l.587.296.019.01.019.009-.01.02-.284.557c-.11.213-.214.415-.214.688s.104.474.214.688v.001l.286.561.008.015-.037.019-.588.297c-.217.111-.404.207-.563.413l-.007.009c-.16.214-.201.432-.245.669l-.112.61-.009.051-.088-.012-.64-.086c-.246-.034-.458-.063-.711.014-.256.079-.421.232-.592.392l-.002.001-.466.43-.033.03-.036.034-.036-.033-.033-.031-.464-.428c-.176-.163-.34-.315-.599-.395" clip-rule="evenodd" opacity=".4"/><path fill="currentColor" fill-rule="evenodd" d="M3.155 7.039A2.74 2.74 0 0 0 5 7.75 2.754 2.754 0 0 0 7.75 5 2.746 2.746 0 0 0 5 2.25 2.754 2.754 0 0 0 2.25 5c0 .775.33 1.518.905 2.039M3.75 5a1.252 1.252 0 0 1 2.177-.839 1.252 1.252 0 0 1-1.765 1.766A1.25 1.25 0 0 1 3.75 5m13.211 15.846A2.76 2.76 0 0 0 19 21.75 2.754 2.754 0 0 0 21.75 19 2.754 2.754 0 0 0 19 16.25 2.754 2.754 0 0 0 16.25 19c0 .683.252 1.339.711 1.846M17.75 19c0-.689.561-1.25 1.25-1.25s1.25.561 1.25 1.25a1.252 1.252 0 0 1-2.177.839A1.25 1.25 0 0 1 17.75 19" clip-rule="evenodd"/></svg>