<svg xmlns="http://www.w3.org/2000/svg" fill="none" viewBox="0 0 24 24"><path fill="currentColor" fill-rule="evenodd" d="M3.838 7.73c-.779.6-1.088 1.196-1.088 1.716 0 .784.731 1.737 2.49 2.538 1.691.77 4.08 1.267 6.76 1.267s5.069-.496 6.76-1.267c1.759-.8 2.49-1.754 2.49-2.538 0-.52-.31-1.115-1.088-1.716-.772-.597-1.92-1.127-3.353-1.504l.382-1.45c1.556.41 2.908 1.01 3.888 1.767.975.753 1.671 1.737 1.671 2.903 0 1.732-1.507 3.056-3.368 3.903-1.928.878-4.539 1.402-7.382 1.402s-5.454-.524-7.382-1.402c-1.86-.847-3.368-2.171-3.368-3.903 0-1.166.696-2.15 1.67-2.903.981-.758 2.333-1.358 3.889-1.768l.382 1.45c-1.433.378-2.581.908-3.353 1.505" clip-rule="evenodd" opacity=".4"/><path fill="currentColor" fill-rule="evenodd" d="M6.815 8.037A5.27 5.27 0 0 1 12 3.75a5.27 5.27 0 0 1 5.185 4.287c.023.12.039.208.05.284.011.074.015.12.015.148a.2.2 0 0 1-.003.04.2.2 0 0 1-.02.047l.664.35-.663-.35a.2.2 0 0 1-.026.038.2.2 0 0 1-.039.031 3 3 0 0 1-.425.208c-1.27.566-2.919.917-4.738.917s-3.468-.351-4.738-.917a3 3 0 0 1-.426-.208.2.2 0 0 1-.039-.03.2.2 0 0 1-.025-.04.2.2 0 0 1-.02-.045.2.2 0 0 1-.002-.04c0-.03.004-.075.015-.15s.027-.163.05-.283M12 2.25a6.77 6.77 0 0 0-6.66 5.512l-.013.068c-.078.412-.167.884.118 1.425.285.54.74.741 1.135.916l.071.032C8.138 10.865 10 11.25 12 11.25s3.862-.385 5.349-1.047l.07-.032c.397-.175.85-.375 1.136-.916s.195-1.013.118-1.425l-.013-.068A6.77 6.77 0 0 0 12 2.25M12.75 18a.75.75 0 0 0-1.5 0v3a.75.75 0 0 0 1.5 0zm4.978-1.182 1 4a.75.75 0 0 1-1.455.364l-1-4a.75.75 0 1 1 1.455-.364m-10 .364a.75.75 0 1 0-1.455-.364l-1 4a.75.75 0 0 0 1.455.364z" clip-rule="evenodd"/></svg>