<svg xmlns="http://www.w3.org/2000/svg" fill="none" viewBox="0 0 24 24"><path fill="currentColor" fill-rule="evenodd" d="M3.791 12.06c-.17 1.256.16 2.317 1.227 3.11 1.187.88 2.56.979 3.64.708l.033-.008c.4-.1.745-.187 1.004-.23.133-.022.29-.041.445-.032a.96.96 0 0 1 .645.282c.231.24.29.534.303.735.014.208-.015.418-.054.603a6.7 6.7 0 0 1-.392 1.16c-.262.617-.59 1.242-.758 1.562l-.085.164c-.197.39-.33.652-.409.846q.2.056.509.11c.561.095 1.299.16 2.053.176.756.016 1.496-.016 2.066-.103a3.6 3.6 0 0 0 .61-.137c-.077-.197-.214-.47-.428-.892l-.085-.164c-.168-.32-.496-.945-.758-1.562a6.7 6.7 0 0 1-.391-1.16 2.3 2.3 0 0 1-.055-.603 1.15 1.15 0 0 1 .303-.735l.54.52-.54-.52a.96.96 0 0 1 .645-.282c.155-.01.313.01.445.032.26.043.605.13 1.004.23l.033.008c1.08.27 2.453.172 3.64-.709 1.067-.792 1.396-1.853 1.227-3.109-.176-1.303-.895-2.785-1.922-4.212a18.5 18.5 0 0 0-3.5-3.658c-.601-.47-1.172-.84-1.67-1.088-.514-.256-.889-.352-1.116-.352s-.602.096-1.116.352c-.5.248-1.07.618-1.672 1.088a18.5 18.5 0 0 0-3.499 3.658c-1.026 1.427-1.746 2.909-1.922 4.212m10.725 5.159q.195.047.46.114c1.433.36 3.288.236 4.899-.96 1.583-1.175 2.048-2.819 1.82-4.514-.223-1.647-1.095-3.363-2.19-4.887a20 20 0 0 0-3.795-3.965c-.658-.513-1.314-.943-1.926-1.248-.596-.297-1.216-.509-1.784-.509s-1.188.212-1.785.51c-.612.304-1.268.734-1.926 1.247a20 20 0 0 0-3.794 3.965c-1.095 1.524-1.968 3.24-2.19 4.887-.229 1.695.236 3.34 1.82 4.515 1.61 1.195 3.465 1.318 4.898.959q.265-.067.46-.114a7 7 0 0 1-.222.583c-.233.55-.516 1.09-.69 1.424l-.11.21-.022.043c-.208.411-.397.784-.505 1.09-.104.295-.228.777.056 1.23.119.188.284.302.394.367.122.07.254.125.38.17.253.087.559.156.882.212.651.111 1.465.18 2.273.198.807.017 1.64-.016 2.324-.12.34-.051.672-.124.954-.23.252-.095.603-.265.812-.598.284-.451.16-.934.056-1.23-.108-.305-.297-.678-.505-1.089l-.022-.043-.11-.21a20 20 0 0 1-.69-1.424 7 7 0 0 1-.222-.583m.169 3.97v-.005zM9.14 20.87l.002.001zm.174.314v.006z" clip-rule="evenodd" opacity=".4"/><path fill="currentColor" fill-rule="evenodd" d="M3.791 12.06c-.17 1.256.16 2.317 1.227 3.11 1.187.88 2.56.979 3.64.708l.033-.008c.4-.1.745-.187 1.004-.23.133-.022.29-.041.445-.032a.96.96 0 0 1 .645.282c.231.24.29.534.303.735.014.208-.015.418-.054.603a6.7 6.7 0 0 1-.392 1.16c-.262.617-.59 1.242-.758 1.562l-.085.164c-.197.39-.33.652-.409.846q.208.058.531.113c.575.096 1.328.16 2.092.174a.75.75 0 0 1-.027 1.5 16.4 16.4 0 0 1-2.313-.195 6 6 0 0 1-.898-.213 2 2 0 0 1-.386-.17 1.14 1.14 0 0 1-.399-.37c-.284-.453-.16-.935-.056-1.23.108-.306.297-.679.505-1.09l.022-.043.11-.21c.174-.333.457-.874.69-1.424.09-.212.166-.41.222-.583q-.195.047-.46.114c-1.433.36-3.288.236-4.899-.96-1.583-1.175-2.048-2.819-1.82-4.514.223-1.647 1.096-3.363 2.191-4.887A20 20 0 0 1 8.29 3.007c.658-.513 1.314-.943 1.926-1.248.597-.297 1.217-.509 1.785-.509a.75.75 0 0 1 0 1.5c-.228 0-.602.096-1.116.352-.5.248-1.07.618-1.672 1.088a18.5 18.5 0 0 0-3.499 3.658c-1.026 1.427-1.746 2.909-1.922 4.212m5.35 8.81.002.001zm.174.314v.006z" clip-rule="evenodd"/></svg>