<svg xmlns="http://www.w3.org/2000/svg" fill="none" viewBox="0 0 24 24"><path fill="currentColor" fill-rule="evenodd" d="M15.392 3.934c-1.803.383-3.69 1.333-4.97 2.614-1.276 1.275-1.724 2.542-1.667 3.687.058 1.162.643 2.32 1.666 3.343s2.182 1.608 3.343 1.667c1.145.057 2.412-.391 3.688-1.667 1.28-1.28 2.23-3.167 2.613-4.971.394-1.853.143-3.348-.59-4.082-.735-.734-2.23-.985-4.083-.591m-.311-1.467c2-.425 4.165-.29 5.454.998s1.423 3.454.998 5.454c-.436 2.049-1.509 4.208-3.02 5.72-1.518 1.517-3.18 2.186-4.824 2.104-1.626-.082-3.117-.893-4.328-2.104s-2.023-2.702-2.104-4.329c-.083-1.644.586-3.306 2.104-4.823 1.512-1.512 3.67-2.585 5.72-3.02" clip-rule="evenodd"/><path fill="currentColor" fill-rule="evenodd" d="M10.37 13.348a.75.75 0 0 1 .283 1.022c-.354.624-1.063 1.062-1.975 1.285-.453.11-.773.189-1.002.253-.208.059-.272.089-.273.087a1 1 0 0 0-.106.084 1 1 0 0 0-.014.114c.002.008.009.054.04.162.045.152.116.356.224.665l.006.018c.1.285.184.526.24.719.055.185.112.412.1.645a1.7 1.7 0 0 1-.208.797 1.8 1.8 0 0 1-.577.588l-.422-.62.422.62c-.2.136-.473.219-.7.283q-.386.106-1.037.263l-.015.004c-.93.227-1.43.682-1.757 1.115a.75.75 0 1 1-1.198-.904c.5-.662 1.282-1.347 2.599-1.668.453-.111.773-.19 1.002-.254.208-.059.272-.089.273-.087a1 1 0 0 0 .106-.084 1 1 0 0 0 .014-.113c-.002-.009-.009-.055-.04-.162a16 16 0 0 0-.224-.665l-.007-.02c-.1-.284-.183-.525-.24-.718a2 2 0 0 1-.1-.644c.013-.252.056-.53.209-.798.152-.266.368-.446.577-.587.2-.137.472-.22.7-.283.257-.073.602-.157 1.037-.264l.015-.003c.685-.168.95-.434 1.025-.567a.75.75 0 0 1 1.023-.284m-3.992 5.116.001-.002zM7.3 16.07l-.001.003z" clip-rule="evenodd" opacity=".4"/></svg>