<svg xmlns="http://www.w3.org/2000/svg" fill="none" viewBox="0 0 24 24"><path fill="currentColor" d="M3.592 22.751a2.3 2.3 0 0 1-1.657-.691 2.32 2.32 0 0 1-.685-1.684 2.34 2.34 0 0 1 .732-1.679l9.483-8.905c.591-.557.537-1.592.387-2.362-.19-.974-.112-2.442 1.346-3.9 1.385-1.385 3.512-2.28 5.418-2.28h.005c1.242.001 2.281.387 3.008 1.115.73.729 1.117 1.773 1.118 3.017.001 1.907-.893 4.035-2.278 5.42-1.15 1.15-2.499 1.614-3.903 1.342-.767-.15-1.8-.202-2.363.393l-8.898 9.474a2.34 2.34 0 0 1-1.687.739h-.027zm15.025-20c-1.506 0-3.256.739-4.357 1.841-.796.796-1.11 1.654-.934 2.552.318 1.637.03 2.93-.832 3.742l-9.48 8.903a.85.85 0 0 0-.263.606.84.84 0 0 0 .248.608c.161.163.37.25.594.25h.01a.85.85 0 0 0 .612-.268l8.898-9.474c.572-.603 1.683-1.236 3.74-.836.917.178 1.753-.127 2.557-.93 1.101-1.101 1.84-2.852 1.84-4.358 0-.585-.119-1.399-.679-1.957l-.002-.002c-.555-.557-1.365-.674-1.947-.675h-.004z" opacity=".4"/><path fill="currentColor" d="M2.48 22.251a.74.74 0 0 1-.534-.223 2.36 2.36 0 0 1-.696-1.711c.01-.617.263-1.193.713-1.62l9.442-8.904c.591-.563.538-1.596.388-2.363-.19-.978-.115-2.449 1.336-3.9 1.376-1.384 3.494-2.279 5.392-2.28h.002c1.24 0 2.28.386 3.007 1.116a.75.75 0 1 1-1.063 1.059c-.555-.557-1.364-.675-1.945-.675h-.002c-1.497 0-3.237.74-4.33 1.839-.792.791-1.103 1.65-.927 2.553.317 1.628.03 2.92-.829 3.739l-9.443 8.905a.77.77 0 0 0-.244.554.88.88 0 0 0 .263.633.75.75 0 0 1-.533 1.278z"/></svg>