<svg xmlns="http://www.w3.org/2000/svg" fill="none" viewBox="0 0 24 24"><path fill="currentColor" fill-rule="evenodd" d="M11.943 1.75h.114c2.19 0 3.912 0 5.255.18 1.377.186 2.469.573 3.327 1.43.858.86 1.245 1.951 1.43 3.328.181 1.343.181 3.064.181 5.255v.114c0 2.19 0 3.912-.18 5.255-.186 1.377-.573 2.469-1.43 3.327-.86.858-1.951 1.245-3.328 1.43-1.343.181-3.064.181-5.255.181h-.114c-2.19 0-3.912 0-5.255-.18-1.377-.186-2.469-.573-3.327-1.43-.858-.86-1.245-1.951-1.43-3.328-.181-1.343-.181-3.064-.181-5.255v-.114c0-2.19 0-3.912.18-5.255.186-1.377.573-2.469 1.43-3.327.86-.858 1.951-1.245 3.328-1.43 1.343-.181 3.064-.181 5.255-.181M6.888 3.417c-1.21.163-1.933.472-2.466 1.005S3.58 5.678 3.417 6.888C3.252 8.12 3.25 9.74 3.25 12s.002 3.88.167 5.112c.163 1.21.472 1.933 1.005 2.466s1.256.842 2.466 1.005c1.232.165 2.852.167 5.112.167s3.88-.002 5.112-.167c1.21-.163 1.933-.471 2.466-1.005s.842-1.256 1.005-2.466c.165-1.232.167-2.852.167-5.112s-.002-3.88-.167-5.112c-.163-1.21-.471-1.933-1.005-2.466s-1.256-.842-2.466-1.005C15.88 3.252 14.26 3.25 12 3.25s-3.88.002-5.112.167" clip-rule="evenodd"/><path fill="currentColor" d="M17.75 7.003a.75.75 0 0 1-.22.53l-3.153 3.153c.466.056 1.048.08 1.598.059a.75.75 0 0 1 .057 1.498c-.832.032-2.847.029-3.575-.7-.728-.728-.731-2.74-.7-3.574a.75.75 0 0 1 1.499.057c-.021.548.004 1.131.059 1.598l3.153-3.154a.75.75 0 0 1 1.28.53zm-5.495 8.511c0 .199-.004.377-.01.518a.75.75 0 0 1-.778.72.753.753 0 0 1-.72-.777c.02-.55-.005-1.133-.06-1.598l-3.156 3.156a.75.75 0 1 1-1.061-1.06l3.157-3.157a11 11 0 0 0-1.597-.059.75.75 0 0 1-.057-1.498c.832-.032 2.844-.029 3.574.696l.001.002.002.002c.601.604.707 2.09.707 3.055z" opacity=".4"/></svg>