<svg xmlns="http://www.w3.org/2000/svg" fill="none" viewBox="0 0 24 24"><path fill="currentColor" fill-rule="evenodd" d="M11.943 1.75h.114c2.19 0 3.912 0 5.255.18 1.377.186 2.469.573 3.327 1.43.858.86 1.245 1.951 1.43 3.328.181 1.343.181 3.064.181 5.255v.114c0 2.19 0 3.912-.18 5.255-.186 1.377-.573 2.469-1.43 3.327-.86.858-1.951 1.245-3.328 1.43-1.343.181-3.064.181-5.255.181h-.114c-2.19 0-3.912 0-5.255-.18-1.377-.186-2.469-.573-3.327-1.43-.858-.86-1.245-1.951-1.43-3.328-.181-1.343-.181-3.064-.181-5.255v-.114c0-2.19 0-3.912.18-5.255.186-1.377.573-2.469 1.43-3.327.86-.858 1.951-1.245 3.328-1.43 1.343-.181 3.064-.181 5.255-.181M6.888 3.417c-1.21.163-1.933.472-2.466 1.005S3.58 5.678 3.417 6.888C3.252 8.12 3.25 9.74 3.25 12s.002 3.88.167 5.112c.163 1.21.472 1.933 1.005 2.466s1.256.842 2.466 1.005c1.232.165 2.852.167 5.112.167s3.88-.002 5.112-.167c1.21-.163 1.933-.471 2.466-1.005s.842-1.256 1.005-2.466c.165-1.232.167-2.852.167-5.112s-.002-3.88-.167-5.112c-.163-1.21-.471-1.933-1.005-2.466s-1.256-.842-2.466-1.005C15.88 3.252 14.26 3.25 12 3.25s-3.88.002-5.112.167" clip-rule="evenodd"/><path fill="currentColor" d="M9.448 17.508a.75.75 0 0 1 .044-1.06l.002-.002.008-.007.032-.03a31 31 0 0 0 .567-.542c.37-.36.86-.851 1.347-1.381.492-.533.967-1.09 1.315-1.582q.262-.37.39-.637a1 1 0 0 0 .097-.266v-.002a1 1 0 0 0-.097-.266 5 5 0 0 0-.39-.637c-.348-.492-.823-1.049-1.315-1.582A37 37 0 0 0 9.534 7.59l-.032-.03-.01-.008a.75.75 0 0 1 1.016-1.104l.004.004.01.008.034.033a30 30 0 0 1 .593.566c.38.372.89.883 1.403 1.439.509.552 1.033 1.163 1.436 1.732.2.284.382.573.516.851.127.263.246.587.246.919s-.12.656-.246.919a6 6 0 0 1-.517.851c-.402.569-.927 1.18-1.435 1.732a39 39 0 0 1-1.996 2.005l-.035.033-.01.008-.003.003a.75.75 0 0 1-1.06-.043" opacity=".4"/></svg>