<svg xmlns="http://www.w3.org/2000/svg" fill="none" viewBox="0 0 24 24"><path fill="currentColor" fill-rule="evenodd" d="M11.943 1.75h.114c2.19 0 3.912 0 5.255.18 1.377.186 2.469.573 3.327 1.43.858.859 1.245 1.951 1.43 3.328.181 1.343.181 3.064.181 5.255v.114c0 2.19 0 3.911-.18 5.255-.186 1.377-.573 2.469-1.43 3.327-.86.858-1.951 1.245-3.328 1.43-1.343.18-3.064.18-5.255.18h-.114c-2.19 0-3.912 0-5.255-.18-1.377-.185-2.469-.572-3.327-1.43s-1.245-1.95-1.43-3.327c-.181-1.344-.181-3.064-.181-5.255v-.114c0-2.191 0-3.912.18-5.255.186-1.377.573-2.469 1.43-3.327.86-.858 1.951-1.245 3.328-1.43 1.343-.181 3.064-.181 5.255-.181M6.888 3.417c-1.21.163-1.933.471-2.466 1.004-.533.534-.842 1.256-1.005 2.467C3.252 8.12 3.25 9.739 3.25 12c0 2.26.002 3.88.167 5.112.163 1.21.472 1.933 1.005 2.466s1.256.842 2.466 1.005c1.232.165 2.852.167 5.112.167s3.88-.002 5.112-.167c1.21-.163 1.933-.472 2.466-1.005s.842-1.256 1.005-2.466c.165-1.232.167-2.852.167-5.112s-.002-3.88-.167-5.112c-.163-1.21-.471-1.933-1.005-2.467-.533-.533-1.256-.841-2.466-1.004C15.88 3.251 14.26 3.25 12 3.25s-3.88.001-5.112.167" clip-rule="evenodd"/><path fill="currentColor" fill-rule="evenodd" d="M8.22 7.354c-.164.05-.375.139-.551.315a1.3 1.3 0 0 0-.315.55c-.052.17-.078.348-.09.513-.027.33-.01.7.018 1.042.026.319.065.642.098.915l.008.068c.037.309.06.511.061.62a.75.75 0 0 0 1.5-.021 9 9 0 0 0-.071-.778l-.008-.064a31 31 0 0 1-.074-.658l5.348 5.348a31 31 0 0 1-.722-.082 9 9 0 0 0-.778-.071.75.75 0 0 0-.021 1.5c.109.001.311.024.62.06l.068.009c.274.033.596.072.915.098a7 7 0 0 0 1.041.019c.166-.013.344-.04.514-.09.163-.05.374-.14.55-.316s.266-.387.315-.55c.052-.17.078-.348.09-.514.027-.329.01-.7-.018-1.041a25 25 0 0 0-.098-.915l-.008-.068a8 8 0 0 1-.061-.62.75.75 0 1 0-1.5.021c.003.207.038.503.071.778l.008.064c.026.213.052.435.074.658L9.856 8.796a31 31 0 0 1 .722.082c.275.033.57.068.778.071a.75.75 0 1 0 .021-1.5 8 8 0 0 1-.62-.06l-.068-.009c-.274-.033-.596-.072-.915-.098a7 7 0 0 0-1.041-.019 2.5 2.5 0 0 0-.514.09" clip-rule="evenodd" opacity=".4"/></svg>