<svg xmlns="http://www.w3.org/2000/svg" fill="none" viewBox="0 0 24 24"><path fill="currentColor" d="M15.484 22.744h-6.96c-1.763 0-2.827 0-3.571-.837-.616-.706-.68-1.687-.699-2.895a.75.75 0 0 1 .738-.762h.012c.408 0 .743.328.75.738.017 1.028.073 1.639.325 1.928.28.315.952.328 2.445.328h6.96c1.493 0 2.165-.013 2.45-.333.226-.259.311-.762.321-1.917a.75.75 0 0 1 .75-.744h.006a.75.75 0 0 1 .744.756c-.011 1.374-.125 2.243-.695 2.896-.748.842-1.812.842-3.575.842z" opacity=".4"/><path fill="currentColor" d="M19.244 19.788H4.764a2.05 2.05 0 0 1-1.543-.689 1.83 1.83 0 0 1-.453-1.451c.258-2.023 1.542-3.472 3.815-4.309l.27-.098c.718-.259 1.397-.504 1.693-1.005.492-.827.873-1.797-.29-3.78q-.013-.02-.023-.04c-1.21-2.387-.757-4.042-.162-5.01.914-1.489 2.638-2.156 3.941-2.156s3.005.681 3.92 2.201c.59.983 1.033 2.644-.207 4.978l-.017.03c-1.142 1.929-.749 2.924-.248 3.779.298.496.972.741 1.685 1l.28.102c2.27.835 3.554 2.285 3.812 4.307a1.83 1.83 0 0 1-.452 1.452 2.05 2.05 0 0 1-1.541.689M9.562 7.719c1.492 2.554.977 4.104.276 5.282-.569.966-1.582 1.33-2.476 1.652l-.259.094c-2.305.848-2.728 2.17-2.846 3.09a.34.34 0 0 0 .09.27c.1.113.255.18.416.18h14.48a.56.56 0 0 0 .416-.18.34.34 0 0 0 .09-.271c-.117-.92-.54-2.241-2.845-3.089l-.27-.099c-.885-.321-1.887-.685-2.464-1.644-.713-1.216-1.238-2.79.238-5.293.714-1.351.796-2.556.237-3.486-.582-.968-1.765-1.474-2.633-1.474s-2.055.451-2.662 1.441c-.563.916-.489 2.136.211 3.527z"/></svg>