<svg xmlns="http://www.w3.org/2000/svg" fill="none" viewBox="0 0 24 24"><path fill="currentColor" d="M11.71 22.732h-.02c-1.45-.04-2.85-.37-4.16-.97a.746.746 0 0 1-.37-.99c.17-.38.62-.54.99-.37 1.13.52 2.33.79 3.58.83.41.01.74.36.73.77s-.34.73-.75.73m3.92-.68c-.3 0-.58-.18-.7-.48-.15-.39.04-.82.43-.97 1.16-.45 2.2-1.12 3.09-1.99.3-.29.77-.28 1.06.02s.28.77-.02 1.06a10.7 10.7 0 0 1-3.59 2.31c-.09.04-.18.05-.27.05m-11-2.56c-.2 0-.4-.08-.55-.24-.98-1.07-1.72-2.3-2.21-3.66a.75.75 0 1 1 1.41-.51 9.3 9.3 0 0 0 1.9 3.15c.28.3.26.78-.05 1.06-.14.13-.33.2-.51.2zm16.58-2.87a.75.75 0 0 1-.69-1.04c.48-1.14.73-2.35.73-3.6 0-.41.34-.75.75-.75s.75.34.75.75c0 1.45-.28 2.86-.85 4.19-.12.29-.4.46-.69.46zm-19.19-4.46h-.04a.756.756 0 0 1-.71-.79c.08-1.45.45-2.84 1.09-4.13.18-.37.63-.52 1-.34s.52.63.34 1a9.1 9.1 0 0 0-.93 3.55c-.02.4-.35.71-.75.71m19.58-2.24c-.32 0-.62-.21-.72-.54a9.3 9.3 0 0 0-1.72-3.25.76.76 0 0 1 .11-1.06.76.76 0 0 1 1.06.11c.92 1.12 1.59 2.39 1.99 3.78a.746.746 0 0 1-.72.96M5.46 5.172c-.21 0-.42-.09-.57-.26a.75.75 0 0 1 .08-1.06c1.09-.95 2.35-1.66 3.72-2.1.4-.13.82.09.94.48s-.09.82-.48.95c-1.18.38-2.26.99-3.2 1.81-.14.12-.32.18-.49.18m11.21-1.28a.73.73 0 0 1-.35-.09c-1.1-.58-2.28-.93-3.52-1.04a.75.75 0 0 1-.68-.81c.04-.41.4-.72.81-.68 1.44.12 2.82.53 4.1 1.2.37.19.5.65.31 1.01-.13.25-.39.4-.66.4z" opacity=".4"/><path fill="currentColor" d="M12 22.732c-1.45 0-2.86-.29-4.19-.85a.75.75 0 0 1-.4-.98c.16-.38.6-.56.98-.4 1.14.48 2.35.73 3.6.73.41 0 .75.34.75.75s-.34.75-.75.75zm-7.17-3.03c-.2 0-.39-.08-.54-.23a10.7 10.7 0 0 1-2.31-3.59c-.15-.39.04-.82.43-.97.38-.15.82.04.97.43a9.1 9.1 0 0 0 1.99 3.09c.29.3.28.77-.01 1.06a.75.75 0 0 1-.52.21zM2 12.442h-.02a.756.756 0 0 1-.73-.77c.04-1.45.37-2.85.97-4.16.17-.38.62-.54.99-.37.38.17.54.62.37.99-.52 1.13-.8 2.33-.83 3.58-.01.41-.34.73-.75.73m3.24-7.08a.747.747 0 0 1-.5-1.3c1.07-.98 2.3-1.72 3.66-2.21.39-.14.82.06.96.45s-.06.82-.46.96a9.3 9.3 0 0 0-3.15 1.9c-.14.13-.33.2-.51.2"/></svg>