<svg xmlns="http://www.w3.org/2000/svg" fill="none" viewBox="0 0 24 24"><path fill="currentColor" fill-rule="evenodd" d="M10.042 3.25h-.084c-1.369 0-2.454 0-3.32.088-.888.09-1.629.28-2.277.713a4.8 4.8 0 0 0-1.31 1.31c-.434.648-.623 1.39-.713 2.277-.088.866-.088 1.951-.088 3.32V17a.75.75 0 0 0 1.5 0v-6c0-1.42 0-2.429.08-3.21.079-.77.227-1.235.468-1.596a3.3 3.3 0 0 1 .896-.896c.361-.241.827-.39 1.596-.468.781-.08 1.79-.08 3.21-.08s2.429 0 3.21.08c.77.079 1.235.227 1.596.468.355.237.66.542.896.896.241.361.39.827.468 1.596.08.781.08 1.79.08 3.21v4.461l-.096-.11-1.586-1.84a.75.75 0 0 0-1.136.979l1.586 1.84.03.035c.307.356.585.68.842.907.277.245.636.478 1.11.478s.833-.233 1.11-.479c.256-.227.535-.55.841-.906l.031-.035 1.586-1.84a.75.75 0 0 0-1.136-.98l-1.586 1.84-.096.112v-4.504c0-1.369 0-2.454-.088-3.32-.09-.888-.28-1.629-.712-2.277a4.8 4.8 0 0 0-1.311-1.31c-.648-.434-1.39-.623-2.277-.713-.866-.088-1.951-.088-3.32-.088" clip-rule="evenodd"/><path fill="currentColor" fill-rule="evenodd" d="M6.25 20a.75.75 0 0 1 .75-.75h6a.75.75 0 0 1 0 1.5H7a.75.75 0 0 1-.75-.75" clip-rule="evenodd" opacity=".4"/></svg>