<svg xmlns="http://www.w3.org/2000/svg" fill="none" viewBox="0 0 24 24"><path fill="currentColor" fill-rule="evenodd" d="M3.75 4.08c0-.763.587-1.33 1.249-1.33a.75.75 0 1 0 0-1.5c-1.546 0-2.749 1.295-2.749 2.83v.166c-.005.859-.01 1.982.976 2.88l.04.036c1.222 1.113 2.192 1.996 3.047 2.595.88.617 1.721.993 2.687.993s1.806-.376 2.687-.993c.855-.599 1.826-1.482 3.048-2.595l.039-.035c.987-.899.981-2.022.977-2.881V4.08c0-1.535-1.204-2.83-2.75-2.83a.75.75 0 0 0 0 1.5c.662 0 1.25.567 1.25 1.33 0 1.021-.005 1.498-.487 1.937-1.27 1.156-2.17 1.974-2.937 2.512-.75.525-1.29.721-1.827.721s-1.076-.196-1.826-.721c-.767-.538-1.668-1.356-2.938-2.512-.482-.439-.486-.916-.486-1.937m12 8.92a2.25 2.25 0 1 1 4.5 0 2.25 2.25 0 0 1-4.5 0M18 9.25a3.75 3.75 0 1 0 0 7.5 3.75 3.75 0 0 0 0-7.5" clip-rule="evenodd"/><path fill="currentColor" fill-rule="evenodd" d="M4.697 6.722a.75.75 0 0 0-1.393.557l1.313 3.284.04.098c.302.757.512 1.283.868 1.723s.825.756 1.501 1.211l.088.06 1.136.765v3.08a5.25 5.25 0 0 0 10.5 0V16a.75.75 0 0 0-1.5 0v1.5a3.75 3.75 0 0 1-7.5 0v-3.116l1.095-.723.09-.06c.692-.455 1.172-.772 1.535-1.218.364-.445.577-.98.884-1.749l.04-.1 1.303-3.255a.75.75 0 0 0-1.393-.557l-1.302 3.255c-.363.908-.494 1.212-.694 1.458-.201.247-.473.436-1.289.974l-1.045.69-1.022-.688c-.798-.538-1.064-.726-1.26-.97-.197-.243-.325-.542-.682-1.435zM18.007 14a1 1 0 1 0 0-2H18a1 1 0 1 0 0 2z" clip-rule="evenodd" opacity=".4"/></svg>