<svg xmlns="http://www.w3.org/2000/svg" fill="none" viewBox="0 0 24 24"><path fill="currentColor" fill-rule="evenodd" d="m14.066 8.87 3.403-3.402c.29-.29.77-.29 1.06 0s.29.77 0 1.06L15.127 9.93a3.751 3.751 0 0 1-5.196 5.197l-3.401 3.4a.75.75 0 0 1-.53.22H3c-.41 0-.75-.34-.75-.75s.34-.75.75-.75h2.69l3.18-3.18a3.751 3.751 0 0 1 5.195-5.196M12 9.75c-1.24 0-2.25 1.01-2.25 2.25s1.01 2.25 2.25 2.25 2.25-1.01 2.25-2.25S13.24 9.75 12 9.75" clip-rule="evenodd"/><path fill="currentColor" fill-rule="evenodd" d="M18 12.76c-.41 0-.75-.34-.75-.75s.34-.75.75-.75.75.33.75.75-.34.76-.75.76zm3-.01c-.41 0-.75-.34-.75-.75s.34-.75.75-.75.75.33.75.75-.34.76-.75.76zm-15 .018c-.41 0-.75-.34-.75-.75s.34-.75.75-.75.75.33.75.74c0 .42-.34.76-.75.76m-3-.01c-.41 0-.75-.34-.75-.75s.34-.75.75-.75.75.33.75.75-.34.76-.75.76zM11.25 12c0 .41.34.75.75.75v.01c.41 0 .75-.34.75-.76a.749.749 0 1 0-1.5 0" clip-rule="evenodd" opacity=".4"/></svg>