<svg xmlns="http://www.w3.org/2000/svg" fill="none" viewBox="0 0 24 24"><path fill="currentColor" fill-rule="evenodd" d="M3.73 11.16c.585.3 1.437.59 2.48.59l-.02-.01c.24 0 .48-.02.74-.05.89-.11 1.62-.48 2.19-.96.62.47 1.59.95 2.83.97 1.15-.01 2.18-.48 2.92-1.02.78.66 2.21 1.42 4.32.84 2.73-.75 3.39-2.56 3.54-3.3.02-.05.02-.1.02-.15 0-.9-.56-2.72-1.69-5.45-.3-.62-1.02-1.35-2.04-1.37h-2.39c-.477 0-.986.002-1.49.004-.997.005-1.976.01-2.66-.004H5.47c-.96 0-1.64.2-2.07.63-.46.46-.82 1.39-1.14 2.36L1.58 6.2c-.16.41-.53 1.78-.2 2.61.156.386.502.819.85 1.181V15c0 2.93 0 4.55 1.1 5.65s2.71 1.1 5.65 1.1h2c.41 0 .75-.34.75-.75s-.34-.75-.75-.75h-2c-2.62 0-3.93 0-4.59-.66s-.66-1.97-.66-4.59zm1.74-8.41h7l-.02-.01c.684.007 1.667.004 2.669.002l1.502-.002h2.35c.45.01.71.49.71.49 1.34 3.23 1.54 4.4 1.56 4.76-.13.51-.62 1.58-2.45 2.08-1.37.37-2.29-.01-2.85-.45.17-.27.4-.74.64-1.48.12-.39-.1-.81-.49-.94-.39-.12-.81.1-.94.49-.29.92-.54 1.24-.54 1.24-.32.35-1.38 1.27-2.6 1.27h-.03c-.82-.02-1.46-.32-1.85-.6.35-.53.57-1.07.69-1.49.11-.4-.12-.81-.52-.92s-.81.12-.92.52c-.21.77-1.04 2.28-2.63 2.49-1.49.2-2.56-.46-2.75-.64a.6.6 0 0 0-.09-.07c-.35-.24-1.02-.95-1.14-1.24-.08-.22.04-1.05.22-1.54l.69-2.01c.42-1.23.65-1.63.77-1.75.02-.02.23-.2 1.02-.2" clip-rule="evenodd"/><path fill="currentColor" d="M17.512 22.75c-.41 0-.75-.34-.75-.75v-.67c-.63-.14-1.19-.46-1.65-.92l-.7.45c-.35.22-.81.12-1.04-.23a.76.76 0 0 1 .23-1.04l.72-.46c-.13-.36-.19-.74-.19-1.13s.06-.77.19-1.13l-.72-.46a.754.754 0 0 1-.23-1.04c.22-.35.69-.45 1.04-.23l.7.45c.45-.46 1.02-.78 1.65-.92V14c0-.41.34-.75.75-.75s.75.34.75.75v.67c.63.14 1.19.46 1.65.92l.7-.45c.35-.22.81-.12 1.04.23.22.35.12.81-.23 1.04l-.72.46c.13.36.19.75.19 1.13s-.06.77-.19 1.13l.72.46c.35.22.45.68.23 1.04-.22.35-.69.45-1.04.23l-.7-.45c-.45.46-1.02.78-1.65.92V22c0 .41-.34.75-.75.75m-1.59-3.73c.35.56.94.9 1.59.9s1.24-.33 1.59-.9a1.95 1.95 0 0 0 0-2.04c-.35-.56-.94-.89-1.59-.89s-1.24.33-1.59.89a1.95 1.95 0 0 0 0 2.04" opacity=".4"/></svg>