<svg xmlns="http://www.w3.org/2000/svg" fill="none" viewBox="0 0 24 24"><path fill="currentColor" d="M13.661 22.751h-5.33c-2.682 0-4.159 0-5.154-.901-1.026-.93-1.026-2.261-1.026-4.676v-2.963a2.5 2.5 0 0 1-.419-.558c-.675-1.244-.72-1.98.373-3.633.896-1.356.896-1.98.896-2.315 0-.518.202-1.262.768-1.8.343-.326.958-.703 1.951-.657h3.342a.75.75 0 0 1 0 1.5h-3.36l-.039-.001q-.57-.03-.86.246c-.239.226-.3.564-.3.712 0 .697-.137 1.615-1.145 3.141-.79 1.197-.717 1.333-.306 2.09.274.504 1.087.762 1.554.811.533.007.991-.168 1.35-.518.47-.46.636-1.073.636-1.459s.27-.683.633-.741a.75.75 0 0 1 .83.51c.316.975.927 1.66 1.77 1.98.865.33 1.94.241 2.738-.227a.75.75 0 0 1 .758 1.294 4.78 4.78 0 0 1-4.03.334 4.26 4.26 0 0 1-1.768-1.267 3.6 3.6 0 0 1-.52.648c-.656.64-1.505.966-2.459.945l-.05-.003a4.3 4.3 0 0 1-.843-.171v2.101c0 2.191.021 3.099.534 3.564.566.513 1.913.513 4.146.513h5.33c2.333 0 3.576-.024 4.136-.532.513-.465.534-1.373.534-3.564v-2.406a.75.75 0 0 1 1.5 0v2.406c0 2.415 0 3.745-1.026 4.676-1.015.92-2.569.92-5.144.92z"/><path fill="currentColor" fill-rule="evenodd" d="M11.242 7.007c0 3.176 2.58 5.759 5.75 5.759a5.766 5.766 0 0 0 5.76-5.759c0-3.175-2.589-5.758-5.76-5.758s-5.75 2.582-5.75 5.758m1.5 0a4.26 4.26 0 0 1 4.25-4.258c2.35 0 4.26 1.91 4.26 4.258a4.27 4.27 0 0 1-4.26 4.259 4.26 4.26 0 0 1-4.25-4.259m3.211 2.252h.04a.75.75 0 0 0 .632-.346c.563-.884 1.774-2.4 2.627-2.7a.75.75 0 1 0-.499-1.415c-1.065.376-2.12 1.569-2.769 2.42-.443-.415-.842-.46-.992-.46a.75.75 0 0 0-.117 1.49c.051.03.23.162.446.597.12.242.362.4.632.414" clip-rule="evenodd" opacity=".4"/></svg>