<svg xmlns="http://www.w3.org/2000/svg" fill="none" viewBox="0 0 24 24"><path fill="currentColor" fill-rule="evenodd" d="M15.323 3.387c.478-.105 1.04-.137 1.677-.137h2c.637 0 1.199.032 1.677.137.486.107.931.3 1.284.652s.545.798.652 1.284c.105.478.137 1.04.137 1.677s-.032 1.199-.137 1.677c-.107.486-.3.931-.652 1.284s-.798.545-1.284.652c-.478.105-1.04.137-1.677.137h-2c-.637 0-1.199-.032-1.677-.137-.486-.107-.931-.3-1.284-.652s-.545-.798-.652-1.284c-.105-.478-.137-1.04-.137-1.677s.032-1.199.137-1.677c.107-.486.3-.931.652-1.284s.798-.545 1.284-.652m-.47 2.258c-.07.318-.103.75-.103 1.355 0 .604.033 1.037.102 1.355.068.309.16.458.248.545.087.087.236.18.545.248.318.07.75.102 1.355.102h2c.604 0 1.038-.033 1.355-.102.309-.068.459-.16.545-.248.087-.087.18-.236.248-.545.07-.318.102-.75.102-1.355 0-.604-.032-1.037-.102-1.355-.068-.309-.16-.458-.248-.545-.086-.087-.236-.18-.545-.248-.317-.07-.75-.102-1.355-.102h-2c-.604 0-1.037.033-1.355.102-.309.068-.458.16-.545.248-.087.087-.18.236-.248.545M3.322 8.387C3.801 8.282 4.363 8.25 5 8.25h2c.637 0 1.199.032 1.677.137.486.107.931.3 1.284.652s.545.798.652 1.284c.105.478.137 1.04.137 1.677s-.032 1.199-.137 1.677c-.107.486-.3.931-.652 1.284s-.798.545-1.284.652c-.478.105-1.04.137-1.677.137H5c-.637 0-1.199-.032-1.677-.137-.486-.107-.931-.3-1.284-.652s-.545-.798-.652-1.284c-.105-.478-.137-1.04-.137-1.677s.032-1.199.137-1.677c.107-.486.3-.931.652-1.284s.798-.545 1.284-.652m-.47 2.258c-.07.318-.103.75-.103 1.355 0 .604.033 1.037.102 1.355.068.309.16.458.248.545.087.087.236.18.545.248.318.07.75.102 1.355.102h2c.604 0 1.037-.033 1.355-.102.309-.068.458-.16.545-.248.087-.087.18-.236.248-.545.07-.318.102-.75.102-1.355 0-.604-.033-1.037-.102-1.355-.068-.309-.16-.458-.248-.545-.087-.087-.236-.18-.545-.248-.318-.07-.75-.102-1.355-.102H5c-.604 0-1.037.033-1.355.102-.309.068-.458.16-.545.248-.087.087-.18.236-.248.545M17 13.25c-.637 0-1.199.032-1.677.137-.486.107-.931.3-1.284.652s-.545.798-.652 1.284c-.105.478-.137 1.04-.137 1.677s.032 1.199.137 1.677c.107.486.3.931.652 1.284s.798.545 1.284.652c.478.105 1.04.137 1.677.137h2c.637 0 1.199-.032 1.677-.137.486-.107.931-.3 1.284-.652s.545-.798.652-1.284c.105-.478.137-1.04.137-1.677s-.032-1.199-.137-1.677c-.107-.486-.3-.931-.652-1.284s-.798-.545-1.284-.652c-.478-.105-1.04-.137-1.677-.137zM14.75 17c0-.604.033-1.037.102-1.355.068-.309.16-.458.248-.545.087-.087.236-.18.545-.248.318-.07.75-.102 1.355-.102h2c.604 0 1.038.033 1.355.102.309.068.459.16.545.248.087.087.18.236.248.545.07.318.102.75.102 1.355 0 .604-.032 1.038-.102 1.355-.068.309-.16.459-.248.545-.086.087-.236.18-.545.248-.317.07-.75.102-1.355.102h-2c-.604 0-1.037-.032-1.355-.102-.309-.068-.458-.16-.545-.248-.087-.086-.18-.236-.248-.545-.07-.317-.102-.75-.102-1.355" clip-rule="evenodd"/><path fill="currentColor" fill-rule="evenodd" d="M14.386 6.357a.75.75 0 0 1 .257 1.029L11.875 12l2.768 4.614a.75.75 0 1 1-1.286.772l-3-5a.75.75 0 0 1 0-.772l3-5a.75.75 0 0 1 1.029-.257" clip-rule="evenodd" opacity=".4"/></svg>