<svg xmlns="http://www.w3.org/2000/svg" fill="none" viewBox="0 0 24 24"><path fill="currentColor" fill-rule="evenodd" d="M5.857 8.194c-2.612.513-4.607 2.751-4.607 5.473 0 3.107 2.599 5.583 5.75 5.583a.75.75 0 0 0 0-1.5c-2.371 0-4.25-1.852-4.25-4.083 0-2.101 1.664-3.865 3.84-4.065q.201-.019.41-.019c.964 0 1.85.308 2.56.824a.75.75 0 1 0 .881-1.214 5.83 5.83 0 0 0-3.02-1.095C7.973 6.181 9.8 4.75 12 4.75c2.648 0 4.75 2.068 4.75 4.567q0 .21-.02.413a4.45 4.45 0 0 1-1.057 2.483.75.75 0 1 0 1.14.974 6 6 0 0 0 1.297-2.59c1.798.281 3.14 1.784 3.14 3.553 0 1.964-1.655 3.6-3.75 3.6a.75.75 0 0 0 0 1.5c2.875 0 5.25-2.26 5.25-5.1 0-2.59-1.975-4.698-4.504-5.049C18.13 5.83 15.354 3.25 12 3.25c-3.038 0-5.598 2.113-6.143 4.944" clip-rule="evenodd"/><path fill="currentColor" fill-rule="evenodd" d="M2.75 6.857A3.1 3.1 0 0 1 5.844 3.75c1.05 0 1.98.525 2.54 1.332l1.232-.855A4.59 4.59 0 0 0 5.844 2.25 4.6 4.6 0 0 0 1.25 6.857c0 1.548.763 2.919 1.93 3.753l.872-1.22A3.1 3.1 0 0 1 2.75 6.857m10.455 7.557a.75.75 0 0 0-1.252-.828L10.18 16.27l-.02.03c-.1.152-.217.329-.291.487-.08.17-.215.536-.008.926.208.393.59.484.776.512.174.025.385.025.566.025h1.139l-1.545 2.337a.75.75 0 1 0 1.252.827l1.774-2.684.02-.03c.1-.152.217-.329.291-.487.08-.17.215-.536.008-.926-.208-.392-.59-.483-.777-.511a4 4 0 0 0-.565-.026h-1.14zm-.058 3.846h-.004zm-.37-.687-.002.003zm-1.923-.833h.003zm.372.684-.002.003z" clip-rule="evenodd" opacity=".4"/></svg>