<svg xmlns="http://www.w3.org/2000/svg" fill="none" viewBox="0 0 24 24"><path fill="currentColor" fill-rule="evenodd" d="M5.853 9.365A5.752 5.752 0 0 0 7 20.75h10.5a5.25 5.25 0 0 0 .747-10.447 6.25 6.25 0 0 0-12.394-.938m1.56-.1c1.134.08 2.18.49 3.038 1.135a.75.75 0 1 1-.901 1.2 4.23 4.23 0 0 0-2.959-.83A4.25 4.25 0 0 0 7 19.25h10.5a3.75 3.75 0 0 0 .614-7.45 6.2 6.2 0 0 1-1.293 2.678.75.75 0 1 1-1.156-.956A4.72 4.72 0 0 0 16.75 10.5a4.75 4.75 0 0 0-9.338-1.235" clip-rule="evenodd"/><path fill="currentColor" fill-rule="evenodd" d="M5.844 4.75A3.1 3.1 0 0 0 2.75 7.857c0 1.045.513 1.969 1.302 2.533l-.872 1.22a4.6 4.6 0 0 1-1.93-3.753A4.6 4.6 0 0 1 5.844 3.25c1.564 0 2.944.784 3.772 1.977l-1.232.855a3.09 3.09 0 0 0-2.54-1.332" clip-rule="evenodd" opacity=".4"/></svg>