<svg xmlns="http://www.w3.org/2000/svg" fill="none" viewBox="0 0 24 24"><path fill="currentColor" fill-rule="evenodd" d="M3.256 14.574a4 4 0 0 1-.186.067c-.267.088-.672.183-1.068.02-.467-.192-.648-.616-.712-.957-.061-.33-.046-.728.003-1.157.228-1.994.863-4.327 2.506-6.169C5.464 4.512 8.074 3.25 12.04 3.25s6.564 1.262 8.212 3.132c1.626 1.842 2.24 4.177 2.458 6.169.046.428.06.825-.002 1.156-.065.339-.246.762-.713.954-.396.163-.802.066-1.07-.022a3 3 0 0 1-.181-.067c-.01.777-.038 1.445-.11 2.017-.12.942-.373 1.731-.967 2.362-.362.384-.858.672-1.395.894a10 10 0 0 1-1.852.536c-1.353.269-2.95.384-4.522.367s-3.15-.167-4.467-.443a10.4 10.4 0 0 1-1.783-.524c-.506-.207-.98-.475-1.315-.83-.594-.63-.848-1.42-.967-2.363-.073-.57-.1-1.238-.11-2.014m1.495-.712c1.857-.822 4.258-1.346 7.289-1.346 3.022 0 5.38.521 7.209 1.338-.004 1.082-.02 1.898-.103 2.546-.1.792-.286 1.22-.57 1.522-.16.17-.443.358-.877.537a8.5 8.5 0 0 1-1.571.45c-1.226.244-2.715.356-4.213.34-1.498-.017-2.975-.16-4.175-.412a9 9 0 0 1-1.523-.444c-.418-.172-.668-.34-.792-.471-.285-.302-.47-.73-.571-1.522-.082-.647-.1-1.46-.103-2.538m-1.967-1.144c.21-1.842.782-3.825 2.134-5.341 1.33-1.49 3.5-2.627 7.122-2.627s5.776 1.136 7.087 2.624c1.336 1.514 1.89 3.496 2.092 5.34q.03.277.03.445a7 7 0 0 1-.591-.286c-2.171-1.147-4.994-1.857-8.618-1.857-3.628 0-6.5.711-8.695 1.86a7 7 0 0 1-.594.285q.002-.168.033-.443" clip-rule="evenodd"/><path fill="currentColor" fill-rule="evenodd" d="M15.75 11.998c0-.912.121-2.142.527-3.334.405-1.192 1.078-2.301 2.152-3.05l-.858-1.231c-1.414.986-2.241 2.407-2.714 3.798-.473 1.388-.607 2.79-.607 3.817zm-8.004-.002c0-1.198.213-2.92.994-4.384.761-1.425 2.06-2.62 4.338-2.87l-.164-1.492c-2.835.313-4.536 1.855-5.497 3.656-.94 1.763-1.17 3.759-1.17 5.09z" clip-rule="evenodd" opacity=".4"/></svg>