<svg xmlns="http://www.w3.org/2000/svg" fill="none" viewBox="0 0 24 24"><path fill="currentColor" fill-rule="evenodd" d="M19.503 1.252a.75.75 0 0 1 .75.75V6.46l.005-.007a26 26 0 0 0 .654-.813 10 10 0 0 1 .551-.663.75.75 0 1 1 1.076 1.045 9 9 0 0 0-.447.544l-.047.06c-.19.242-.413.526-.643.797-.246.29-.521.592-.797.827a2.7 2.7 0 0 1-.46.323 1.4 1.4 0 0 1-.642.175c-.259 0-.481-.089-.643-.175a2.7 2.7 0 0 1-.46-.323 7.4 7.4 0 0 1-.797-.827 27 27 0 0 1-.643-.797l-.047-.06a9 9 0 0 0-.447-.544.75.75 0 1 1 1.076-1.045c.157.161.359.418.551.663l.045.057c.192.245.399.508.61.756l.005.007V2a.75.75 0 0 1 .75-.749" clip-rule="evenodd" opacity=".4"/><path fill="currentColor" fill-rule="evenodd" d="M7.038 3.746a.75.75 0 0 0-.754.73v9.977a.75.75 0 1 1-1.5 0v-2.71a32 32 0 0 0-.59.605c-.264.28-.49.53-.658.73q-.126.15-.197.245l-.058.084-.019.037-.025.039c-.414.629-.504.958-.485 1.25.023.339.2.775.696 1.604a44 44 0 0 0 1.773 2.671l.157.215q.036.047.025.035c.176.2.3.35.399.47.101.122.162.196.229.267.121.13.283.274.755.62.629.431 2.18.883 6.365.47 1.48-.234 2.359-.979 2.883-1.803.544-.854.717-1.813.71-2.407v-3.576l.002-.027c.102-1.408-.17-1.835-.421-2.03-.158-.123-.394-.227-.773-.315a6 6 0 0 0-.298-.061v1.122a.75.75 0 0 1-1.5 0v-1.119c-.045-.614-.499-1-1.037-1.133a1.2 1.2 0 0 0-.46-.032q.015.154.015.286v1a.75.75 0 0 1-1.5 0v-1q0-.06-.005-.103l-.02-.103a1.35 1.35 0 0 0-.91-.993c-.286-.087-.473-.054-.581-.006v2.21a.75.75 0 0 1-1.5 0V4.476c0-.414-.32-.73-.718-.73m2.218 3.509V4.476c0-1.225-.974-2.23-2.218-2.23-1.219 0-2.254.98-2.254 2.23V9.66a37 37 0 0 0-1.679 1.657c-.277.293-.523.566-.716.794a4 4 0 0 0-.425.577c-.462.709-.76 1.372-.708 2.145.05.738.414 1.454.906 2.275a46 46 0 0 0 1.842 2.776c.114.159.226.312.274.366.16.18.27.315.366.43l.014.017c.088.108.177.216.277.323.222.237.479.45.973.811l.008.006.008.006c1.112.77 3.166 1.152 7.396.732l.02-.002.02-.003c1.95-.301 3.198-1.318 3.94-2.482.722-1.134.953-2.387.944-3.227v-3.508c.106-1.52-.132-2.62-.997-3.295-.404-.314-.88-.482-1.355-.592a13 13 0 0 0-1.23-.205 3 3 0 0 0-1.587-.981c-.457-.113-.968-.126-1.409.032a2.84 2.84 0 0 0-1.388-.954 2.6 2.6 0 0 0-1.022-.103" clip-rule="evenodd"/></svg>