<svg xmlns="http://www.w3.org/2000/svg" fill="none" viewBox="0 0 24 24"><path fill="currentColor" fill-rule="evenodd" d="M18.038 1.477a.75.75 0 0 1-.015 1.06c-.162.158-.419.36-.664.552l-.057.045c-.245.193-.508.4-.757.61l-.007.006H21a.75.75 0 0 1 0 1.5h-4.462l.007.006a26 26 0 0 0 .814.655c.245.192.502.394.664.551a.75.75 0 1 1-1.046 1.076 9 9 0 0 0-.604-.495c-.242-.19-.526-.413-.798-.643a7.4 7.4 0 0 1-.826-.797 2.7 2.7 0 0 1-.324-.46 1.4 1.4 0 0 1-.175-.643c0-.258.089-.48.175-.642.09-.168.206-.323.323-.461.235-.276.537-.551.828-.797.27-.23.555-.453.797-.643l.06-.047q.407-.318.544-.448a.75.75 0 0 1 1.06.015" clip-rule="evenodd" opacity=".4"/><path fill="currentColor" fill-rule="evenodd" d="M7.247 3.744a2.494 2.494 0 0 1 4.988 0v4.992c.69.03 1.49.152 2.275.346 1.122.276 2.318.727 3.185 1.368l.06.044c.638.472 1.391 1.028 1.759 1.994.378.995.3 2.27-.262 4.095-.192.621-.546 1.334-.843 1.905l-.217.415c-.067.125-.127.24-.188.357a8 8 0 0 0-.173.356l-.013.032-.033.1c-.053.163-.087.265-.114.489-.036.293-.057.784-.031 1.73a.75.75 0 0 1-1.5.042c-.026-.966-.008-1.547.042-1.954.046-.377.121-.604.181-.785l.027-.08c.057-.178.175-.412.281-.618.055-.107.126-.24.2-.38l.207-.396c.3-.577.594-1.18.74-1.655.532-1.724.492-2.6.294-3.12s-.598-.84-1.309-1.365c-.641-.474-1.621-.864-2.652-1.118-1.03-.254-2.006-.348-2.6-.296a.75.75 0 0 1-.816-.747V3.744a.994.994 0 0 0-1.988 0v10.26a.75.75 0 0 1-1.295.514l-2.066-2.186c-.374-.405-.933-.428-1.316-.084a.973.973 0 0 0-.126 1.31l1.29 1.71c.28.362.593.773.949 1.257l1.166 1.546.002.003c.205.266.4.527.568.784.405.617.703 1.274.68 2.096l.019 1.032a.75.75 0 1 1-1.5.028l-.02-1.05.001-.04c.014-.4-.113-.754-.434-1.243-.164-.25-.368-.518-.616-.84l-.103-.133a39 39 0 0 1-.966-1.287l-.939-1.244q-.19-.247-.364-.47c-.395-.51-.732-.945-1.03-1.374a1 1 0 0 1-.077-.141 2.47 2.47 0 0 1 .497-3.059c1.02-.916 2.513-.8 3.419.179l.761.806z" clip-rule="evenodd"/></svg>