<svg xmlns="http://www.w3.org/2000/svg" fill="none" viewBox="0 0 24 24"><path fill="currentColor" fill-rule="evenodd" d="M17.962 1.48a.75.75 0 0 1 1.06-.016 9 9 0 0 0 .605.495c.242.19.526.413.797.642.291.247.593.522.828.798.117.138.233.293.323.46.086.162.175.385.175.643s-.089.48-.175.642a2.7 2.7 0 0 1-.323.461 7.4 7.4 0 0 1-.828.797c-.27.23-.555.453-.797.643l-.06.047a9 9 0 0 0-.544.448.75.75 0 1 1-1.046-1.076 9 9 0 0 1 .72-.596c.246-.193.51-.4.758-.61l.007-.006H15a.75.75 0 0 1 0-1.5h4.462l-.007-.006a26 26 0 0 0-.814-.655 9 9 0 0 1-.664-.551.75.75 0 0 1-.015-1.06" clip-rule="evenodd" opacity=".4"/><path fill="currentColor" fill-rule="evenodd" d="M5.747 3.747a2.494 2.494 0 1 1 4.989 0v4.995c.689.03 1.49.152 2.275.346 1.122.276 2.319.727 3.186 1.369l.06.044c.637.471 1.391 1.028 1.758 1.994.379.995.301 2.272-.262 4.097-.191.62-.545 1.334-.842 1.905l-.218.415-.188.358a8 8 0 0 0-.173.356l-.013.032-.032.1a2 2 0 0 0-.115.489c-.036.293-.056.784-.03 1.732a.75.75 0 1 1-1.5.04c-.026-.966-.009-1.547.041-1.954.046-.377.122-.604.182-.785l.026-.08a5 5 0 0 1 .282-.619l.199-.379.208-.397c.3-.577.593-1.18.74-1.656.532-1.724.491-2.6.293-3.12-.197-.521-.598-.84-1.308-1.366-.642-.475-1.622-.865-2.653-1.12-1.03-.253-2.006-.347-2.601-.295a.75.75 0 0 1-.815-.747V3.747a.994.994 0 1 0-1.989 0v10.286a.75.75 0 0 1-1.5 0v-2.396l-.593.527C4 13.257 3.842 13.818 3.786 14.056c-.11.472-.034 1.107 1.153 2.828q.245.336.482.656c.387.524.749 1.013 1.034 1.452.398.612.745 1.266.791 1.943l.002.051V22a.75.75 0 0 1-1.5 0v-.984c-.025-.266-.181-.638-.55-1.207-.26-.4-.579-.83-.951-1.334Q4 18.142 3.72 17.76l-.01-.015c-1.21-1.754-1.653-2.876-1.384-4.028v-.001c.139-.592.486-1.402 1.805-2.649l.017-.015 1.6-1.42z" clip-rule="evenodd"/></svg>