<svg xmlns="http://www.w3.org/2000/svg" fill="none" viewBox="0 0 24 24"><path fill="currentColor" fill-rule="evenodd" d="M18.5 1.251a.75.75 0 0 1 .75.75v4.462l.006-.007a26 26 0 0 0 .655-.814c.192-.245.394-.502.551-.664a.75.75 0 1 1 1.076 1.046 9 9 0 0 0-.448.544q-.022.03-.047.06c-.19.242-.413.526-.642.797a7.4 7.4 0 0 1-.798.827 2.7 2.7 0 0 1-.46.324 1.4 1.4 0 0 1-.643.175 1.4 1.4 0 0 1-.642-.175 2.7 2.7 0 0 1-.461-.324 7.4 7.4 0 0 1-.797-.827c-.23-.27-.453-.555-.643-.797l-.047-.06a9 9 0 0 0-.448-.544.75.75 0 1 1 1.076-1.046 9 9 0 0 1 .596.72c.193.246.4.51.61.758l.006.007V2a.75.75 0 0 1 .75-.75" clip-rule="evenodd" opacity=".4"/><path fill="currentColor" fill-rule="evenodd" d="M5.747 3.746a2.494 2.494 0 0 1 4.989 0v4.995c.689.03 1.49.152 2.275.346 1.122.276 2.319.727 3.186 1.369l.06.044c.637.471 1.391 1.028 1.758 1.994.379.995.301 2.271-.262 4.096-.191.622-.545 1.335-.842 1.906l-.218.415-.188.358a8 8 0 0 0-.173.356l-.013.032-.032.1a2 2 0 0 0-.115.489c-.036.293-.056.784-.03 1.732a.75.75 0 1 1-1.5.04c-.026-.966-.009-1.547.041-1.954.046-.377.122-.604.182-.785l.026-.08c.057-.178.175-.413.282-.619l.198-.379.209-.397c.3-.577.593-1.18.74-1.656.532-1.724.491-2.6.293-3.12-.197-.521-.598-.84-1.308-1.366-.642-.475-1.622-.865-2.653-1.12-1.03-.253-2.006-.347-2.601-.295a.75.75 0 0 1-.815-.747V3.746a.994.994 0 1 0-1.989 0v10.286a.75.75 0 0 1-1.5 0v-2.396l-.593.527C4 13.256 3.842 13.817 3.786 14.055c-.11.472-.034 1.107 1.153 2.828q.245.336.482.656c.387.524.75 1.013 1.034 1.452.398.612.745 1.266.791 1.943l.002.051V22a.75.75 0 0 1-1.5 0v-.984c-.025-.266-.181-.638-.55-1.207-.26-.4-.579-.83-.951-1.334q-.247-.333-.527-.716l-.01-.015c-1.21-1.754-1.653-2.876-1.384-4.028v-.001c.139-.592.486-1.402 1.805-2.649l.017-.015 1.6-1.42z" clip-rule="evenodd"/></svg>