<svg xmlns="http://www.w3.org/2000/svg" fill="none" viewBox="0 0 24 24"><path fill="currentColor" fill-rule="evenodd" d="M8 3.75a.75.75 0 0 0-.75.75v9.962a.75.75 0 0 1-1.281.53l-1.62-1.626a.933.933 0 0 0-1.393.078.946.946 0 0 0-.018 1.156l3.004 4.018c.702.938.988 1.315 1.322 1.603a4.2 4.2 0 0 0 1.854.93c.43.095.902.099 2.072.099 1.093 0 1.877 0 2.497-.04.614-.04 1.015-.115 1.345-.242a4.24 4.24 0 0 0 2.436-2.444c.128-.332.203-.736.242-1.352.04-.622.04-1.41.04-2.505v-2.473a1.25 1.25 0 0 0-1.044-1.233l-.456-.076V12a.75.75 0 0 1-1.5 0v-1c0-.69-.56-1.25-1.25-1.25h-.25V11a.75.75 0 0 1-1.5 0v-1c0-.69-.56-1.25-1.25-1.25h-.25V11a.75.75 0 0 1-1.5 0V4.5A.75.75 0 0 0 8 3.75m2.25 3.5V4.5a2.25 2.25 0 0 0-4.5 0v8.148l-.34-.34a2.433 2.433 0 0 0-3.627.2 2.446 2.446 0 0 0-.046 2.99l3.004 4.018.056.074c.628.841 1.014 1.358 1.487 1.766a5.7 5.7 0 0 0 2.511 1.26c.61.134 1.254.134 2.301.134h.12c1.06 0 1.893 0 2.567-.043.685-.044 1.256-.134 1.788-.34a5.74 5.74 0 0 0 3.298-3.307c.204-.533.294-1.106.338-1.793.043-.675.043-1.51.043-2.574V12a.8.8 0 0 0-.03-.209 2.75 2.75 0 0 0-2.268-2.31l-1.321-.22A2.75 2.75 0 0 0 13.5 8.25h-.879c-.504-.61-1.267-1-2.121-1z" clip-rule="evenodd"/><path fill="currentColor" fill-rule="evenodd" d="M16.477 4.962a.75.75 0 0 0-.015 1.06 9 9 0 0 1 .495.605c.19.242.413.526.642.797.247.291.522.593.798.827.138.118.293.234.46.324.162.086.385.175.643.175s.48-.089.642-.175c.168-.09.323-.206.461-.324a7.4 7.4 0 0 0 .797-.827 28 28 0 0 0 .69-.857q.318-.407.448-.544a.75.75 0 1 0-1.076-1.046 9 9 0 0 0-.551.664l-.045.057a26 26 0 0 1-.616.764V2a.75.75 0 0 0-1.5 0v4.462l-.006-.007c-.21-.249-.417-.512-.61-.757l-.045-.057a9 9 0 0 0-.551-.664.75.75 0 0 0-1.06-.015" clip-rule="evenodd" opacity=".4"/></svg>