<svg xmlns="http://www.w3.org/2000/svg" fill="none" viewBox="0 0 24 24"><path fill="currentColor" fill-rule="evenodd" d="M10.384 3.762a.765.765 0 0 0-.89.61l-1.757 9.856-.146.764a.75.75 0 0 1-1.273.383l-1.962-2.01a.942.942 0 0 0-1.418 1.234l3.014 4.018c.704.939.991 1.315 1.327 1.604a4.25 4.25 0 0 0 1.86.93c.433.095.906.1 2.08.1h2.402a4.25 4.25 0 0 0 4.165-3.407l.866-4.275.086-.483a.75.75 0 0 0-.62-.868.765.765 0 0 0-.89.61l-.088.492a.75.75 0 1 1-1.477-.263l.088-.492q.028-.16.078-.31a.8.8 0 0 1 .01-.183l.088-.492a.75.75 0 0 0-.621-.867.765.765 0 0 0-.89.609l-.088.493a.75.75 0 1 1-1.477-.264l.264-1.477a.75.75 0 0 0-.621-.867.765.765 0 0 0-.89.609l-.264 1.478a.75.75 0 1 1-1.476-.264l1.141-6.4a.75.75 0 0 0-.62-.868m1.592 3.965.506-2.835a2.25 2.25 0 0 0-1.84-2.608 2.265 2.265 0 0 0-2.624 1.824L6.38 13.291l-.955-.978-.006-.006a2.442 2.442 0 0 0-3.68 3.192l3.013 4.018.056.075c.63.84 1.018 1.357 1.492 1.765a5.75 5.75 0 0 0 2.517 1.26c.611.133 1.258.133 2.308.133h2.496a5.75 5.75 0 0 0 5.635-4.608l.868-4.283.003-.018.088-.492a2.25 2.25 0 0 0-1.84-2.608 2.3 2.3 0 0 0-1.034.058 2.274 2.274 0 0 0-2.812-1.506 2.26 2.26 0 0 0-1.778-1.564 2.3 2.3 0 0 0-.775-.002" clip-rule="evenodd"/><path fill="currentColor" fill-rule="evenodd" d="M18.538 1.477a.75.75 0 0 1-.015 1.06 9 9 0 0 1-.664.552l-.057.045c-.245.193-.508.4-.757.61l-.007.006H22a.75.75 0 0 1 0 1.5h-4.962l.007.006a26 26 0 0 0 .814.655c.245.192.502.394.664.551a.75.75 0 1 1-1.046 1.076 9 9 0 0 0-.544-.448q-.03-.022-.06-.047a27 27 0 0 1-.797-.643 7.4 7.4 0 0 1-.828-.797 2.7 2.7 0 0 1-.323-.46 1.4 1.4 0 0 1-.175-.643c0-.258.089-.48.175-.642.09-.168.206-.323.323-.461.235-.276.537-.551.828-.797.27-.23.555-.453.797-.643l.06-.047q.407-.318.544-.448a.75.75 0 0 1 1.06.015" clip-rule="evenodd" opacity=".4"/></svg>