<svg xmlns="http://www.w3.org/2000/svg" fill="none" viewBox="0 0 24 24"><path fill="currentColor" fill-rule="evenodd" d="M8.53 15.47a.75.75 0 0 1 0 1.06l-2.5 2.5a.75.75 0 0 1-1.06-1.06l2.5-2.5a.75.75 0 0 1 1.06 0" clip-rule="evenodd" opacity=".4"/><path fill="currentColor" fill-rule="evenodd" d="M22.031 1.97a.75.75 0 0 1 .2.699l-.873 3.783a2.5 2.5 0 0 1-.79 1.316l-10.291 9.048.668.668a2.75 2.75 0 0 1 .805 1.944V20a.75.75 0 0 1-1.5 0v-.572c0-.331-.132-.649-.366-.884l-4.429-4.428a1.25 1.25 0 0 0-.883-.366H4a.75.75 0 0 1 0-1.5h.572c.729 0 1.428.29 1.944.806l.669.668 9.048-10.29a2.5 2.5 0 0 1 1.316-.792l3.783-.873a.75.75 0 0 1 .7.2M8.247 14.787l.967.966 10.369-9.117a1 1 0 0 0 .314-.522l.603-2.613-2.614.603a1 1 0 0 0-.522.314l-.003.004zM4.53 20.53a.75.75 0 1 0-1.06-1.06.75.75 0 0 0 1.06 1.06m-2.12-2.12a2.25 2.25 0 1 1 3.182 3.182A2.25 2.25 0 0 1 2.41 18.41" clip-rule="evenodd"/></svg>