<svg xmlns="http://www.w3.org/2000/svg" fill="none" viewBox="0 0 24 24"><path fill="currentColor" fill-rule="evenodd" d="M6.97 13.97a.75.75 0 0 0 0 1.06l2 2a.75.75 0 1 0 1.06-1.06l-2-2a.75.75 0 0 0-1.06 0" clip-rule="evenodd" opacity=".4"/><path fill="currentColor" fill-rule="evenodd" d="M21.47 1.47a.75.75 0 0 1 1.06 1.06l-1.558 1.558c.22.401.367.862.471 1.317.17.738.252 1.581.287 2.41.069 1.657-.055 3.35-.134 4.216a2.6 2.6 0 0 1-.624 1.46 88.5 88.5 0 0 1-8.159 8.332c-1.347 1.206-3.357 1.219-4.759.133a33 33 0 0 1-6.01-6.01c-1.086-1.402-1.073-3.412.133-4.76a88.5 88.5 0 0 1 8.333-8.158c.406-.35.912-.574 1.46-.624.865-.08 2.558-.203 4.216-.134.828.034 1.671.117 2.409.287.455.104.916.252 1.317.47zm-2.695 2.694q-.224-.077-.516-.145c-.612-.14-1.354-.218-2.135-.25-1.56-.065-3.177.051-4.017.129-.224.02-.439.112-.62.267a87 87 0 0 0-8.193 8.022c-.7.782-.728 1.983-.064 2.84a31.6 31.6 0 0 0 5.743 5.743c.857.664 2.058.636 2.84-.064a87 87 0 0 0 8.021-8.193c.156-.181.248-.396.268-.62.078-.84.194-2.457.13-4.017-.033-.78-.11-1.523-.25-2.135a5 5 0 0 0-.146-.516L18.53 6.53a.75.75 0 0 1-1.06-1.06z" clip-rule="evenodd"/></svg>