<svg xmlns="http://www.w3.org/2000/svg" fill="none" viewBox="0 0 24 24"><path fill="currentColor" fill-rule="evenodd" d="M12 1.25a.75.75 0 0 1 .75.75v.712c.351.358.873.746 1.513 1.214l.06.044c.7.511 1.504 1.098 2.142 1.76.383.396.736.85.976 1.367l.035-.02q.159-.092.294-.166l.183-.103.177-.103.12-.074v-.63a.75.75 0 0 1 1.5 0v.7a52 52 0 0 0 .683.543c.39.304.866.692 1.226 1.167.371.49.655 1.117.579 1.878q-.084.808-.684 1.62c.275.028.565.128.802.357.291.283.394.656.394 1.004V22a.75.75 0 0 1-.75.75H2a.75.75 0 0 1-.75-.75v-8.73c0-.348.103-.72.394-1.004.237-.229.527-.329.802-.357q-.6-.812-.684-1.62c-.076-.76.208-1.389.58-1.878.36-.475.836-.863 1.225-1.168l.207-.162.14-.108q.196-.153.336-.273V6a.75.75 0 0 1 1.5 0v.631l.12.074c.118.071.234.135.36.206l.14.079.154.086.035.021c.24-.517.593-.97.976-1.368.638-.66 1.442-1.248 2.141-1.759l.061-.044c.64-.468 1.162-.856 1.513-1.214V2a.75.75 0 0 1 .75-.75m3.25 10.5h-6.5v9.5h6.5zm-8 .324-2.665.977a5.6 5.6 0 0 1-1.835.348v7.851h4.5zm9.5 0v9.176h4.5V13.4a5.6 5.6 0 0 1-1.835-.349zm2.183-4.102-.033.02c-.13.078-.287.166-.434.248l-.243.137a4 4 0 0 0-.481.311q-.07.94-.711 1.891l2.82 1.034a1 1 0 0 1 .103-.133c.59-.613.762-1.053.791-1.342.027-.27-.06-.529-.281-.82-.232-.305-.568-.59-.955-.894l-.167-.129c-.131-.102-.272-.21-.409-.323m-13.866 0-.207.166-.203.157-.166.13c-.387.303-.723.588-.955.893-.22.291-.308.55-.281.82.029.29.202.73.791 1.342q.06.063.103.133l2.82-1.034q-.642-.951-.71-1.89a4 4 0 0 0-.482-.312l-.116-.065-.127-.072c-.147-.082-.304-.17-.434-.248zM12 4.065c-.414.367-.896.72-1.352 1.053l-.034.025c-.739.54-1.453 1.061-2 1.628-.548.568-.836 1.092-.862 1.61-.023.458.153 1.07.858 1.87h6.78c.705-.8.88-1.412.858-1.87-.026-.518-.314-1.042-.863-1.61-.546-.567-1.26-1.089-1.999-1.628l-.034-.025c-.456-.333-.938-.686-1.352-1.053" clip-rule="evenodd"/><path fill="currentColor" fill-rule="evenodd" d="M12.75 19a.75.75 0 0 0-1.5 0v3a.75.75 0 0 0 1.5 0zm7-2a.75.75 0 0 0-1.5 0v1a.75.75 0 0 0 1.5 0zM5 16.25a.75.75 0 0 1 .75.75v1a.75.75 0 0 1-1.5 0v-1a.75.75 0 0 1 .75-.75M12.75 15a.75.75 0 0 0-1.5 0v1a.75.75 0 0 0 1.5 0z" clip-rule="evenodd" opacity=".4"/></svg>