<svg xmlns="http://www.w3.org/2000/svg" fill="none" viewBox="0 0 24 24"><path fill="currentColor" fill-rule="evenodd" d="M10.358 5.25a.903.903 0 0 0-.897.908v8.737a.75.75 0 0 1-1.24.567L6.212 13.73a.88.88 0 0 0-1.266.12.906.906 0 0 0 .004 1.13l3.161 3.917c1.016 1.258 1.402 1.715 1.896 1.985q.14.078.29.14c.518.214 1.113.228 2.724.228h.987c1.212 0 1.666-.007 2.048-.118a3.02 3.02 0 0 0 1.652-1.2c.227-.331.378-.764.76-1.92l.081-.244c.532-1.604.701-2.113.701-2.899 0-1.061-.559-1.804-1.458-2.346-.218-.132-.513-.24-1.013-.35-.504-.11-1.156-.21-2.074-.348h-.007l-2.812-.453a.75.75 0 0 1-.631-.74V6.157a.9.9 0 0 0-.897-.908m-2.397.908a2.403 2.403 0 0 1 2.397-2.408 2.4 2.4 0 0 1 2.397 2.408v3.834l2.177.35.023.004c.886.134 1.586.24 2.144.362.568.124 1.046.276 1.467.53 1.213.731 2.184 1.901 2.184 3.632 0 1.035-.249 1.784-.733 3.238l-.124.375-.038.114c-.332 1.002-.547 1.653-.907 2.181a4.52 4.52 0 0 1-2.474 1.795c-.614.177-1.297.177-2.345.177h-1.264c-1.398 0-2.314 0-3.143-.343a5 5 0 0 1-.435-.209c-.787-.43-1.364-1.145-2.245-2.238l-.098-.121-3.161-3.916a2.406 2.406 0 0 1-.011-3.006 2.38 2.38 0 0 1 3.42-.323l.769.663z" clip-rule="evenodd"/><path fill="currentColor" fill-rule="evenodd" d="M10.316 2.75A3.25 3.25 0 0 0 7.066 6a.75.75 0 0 1-1.5 0 4.75 4.75 0 1 1 9.5 0 .75.75 0 0 1-1.5 0 3.25 3.25 0 0 0-3.25-3.25" clip-rule="evenodd" opacity=".4"/></svg>