<svg xmlns="http://www.w3.org/2000/svg" fill="none" viewBox="0 0 24 24"><path fill="currentColor" fill-rule="evenodd" d="M6.804 4.285c-1.058.08-1.557.265-1.899.607-.277.277-.457.666-.556 1.401-.101.756-.103 1.758-.103 3.195v6.506c0 1.437.002 2.439.103 3.195.099.735.28 1.124.556 1.401.277.277.666.458 1.4.556.755.102 1.756.104 3.191.104h5c1.435 0 2.437-.002 3.192-.104.734-.098 1.122-.279 1.399-.556s.457-.666.556-1.4c.101-.757.103-1.76.103-3.196V9.488c0-1.437-.002-2.439-.103-3.195-.099-.735-.28-1.124-.556-1.401-.342-.342-.84-.527-1.898-.607a2.5 2.5 0 0 1-2.443 1.965h-5.5a2.5 2.5 0 0 1-2.442-1.965m10.244-1.513c1.293.072 2.33.29 3.1 1.06.602.602.86 1.36.982 2.261.116.868.116 1.971.116 3.34v6.616c0 1.369 0 2.472-.116 3.34-.121.9-.38 1.659-.982 2.261s-1.36.862-2.26.983c-.867.117-1.97.117-3.337.117h-5.11c-1.367 0-2.47 0-3.337-.117-.9-.121-1.658-.38-2.26-.983-.602-.602-.86-1.36-.981-2.261-.117-.868-.117-1.971-.117-3.34V9.433c0-1.369 0-2.472.117-3.34.12-.9.38-1.659.981-2.261.77-.77 1.807-.988 3.1-1.06A2.5 2.5 0 0 1 9.247 1.25h5.5a2.5 2.5 0 0 1 2.302 1.522m-8.802.978a1 1 0 0 1 1-1h5.5a1 1 0 1 1 0 2h-5.5a1 1 0 0 1-1-1" clip-rule="evenodd"/><path fill="currentColor" fill-rule="evenodd" d="M11.25 10.707a.75.75 0 0 0-.5-1.414c-.482.171-.93.49-1.309.823-.386.339-.745.73-1.046 1.091q-.22.265-.402.505a2 2 0 0 0-.264-.21 1.6 1.6 0 0 0-.437-.207 1.2 1.2 0 0 0-.267-.044h-.024L7 12v-.75a.75.75 0 0 0-.116 1.49l.012.008c.056.037.228.176.433.587a.75.75 0 0 0 1.304.066l.003-.004.011-.017.048-.073a14 14 0 0 1 .851-1.14c.272-.326.576-.654.884-.924.316-.277.597-.458.82-.537m2.25-.457a.75.75 0 0 0 0 1.5H17a.75.75 0 0 0 0-1.5zM12.75 17a.75.75 0 0 1 .75-.75H17a.75.75 0 0 1 0 1.5h-3.5a.75.75 0 0 1-.75-.75M8 16a1 1 0 1 0 0 2h1a1 1 0 1 0 0-2z" clip-rule="evenodd" opacity=".4"/></svg>