<svg xmlns="http://www.w3.org/2000/svg" fill="none" viewBox="0 0 24 24"><path fill="currentColor" fill-rule="evenodd" d="M15.749 5.844c0 .414.336.75.75.75h.002a.75.75 0 0 0 .75-.75v-.001c0-.676 0-1.048-.111-1.43a2.77 2.77 0 0 0-1.6-1.77c-.364-.15-.72-.187-1.367-.253h-.006c-1.922-.196-3.492-.296-4.666-.296s-2.744.1-4.666.296H4.83c-.648.066-1.005.102-1.359.25a2.77 2.77 0 0 0-1.61 1.777c-.11.377-.111.75-.111 1.426a.75.75 0 0 0 1.5 0c0-.54 0-.835.049-1.004.107-.361.387-.671.739-.812.153-.063.401-.09.948-.146 1.846-.188 3.407-.288 4.514-.288s2.668.099 4.514.288c.547.056.795.083.956.15.343.139.623.448.729.805.05.173.05.469.05 1.008m-9.999 15c0 .414.336.75.75.75h6a.75.75 0 0 0 0-1.5h-6a.75.75 0 0 0-.75.75" clip-rule="evenodd"/><path fill="currentColor" fill-rule="evenodd" d="M8.75 20.844a.75.75 0 0 0 1.5 0v-17.5a.75.75 0 0 0-1.5 0zm10.75.754h2.001a.75.75 0 0 0 0-1.5h-2l-.249-.001v-1.172q0-.133.006-.204c.057-.006.14-.012.258-.014.894-.017 1.47-.086 1.949-.394.786-.502.786-1.284.786-2.273 0-.582-.225-1.071-.652-1.413-1.032-.827-2.898-.466-3.261-.385a.75.75 0 0 0 .324 1.465c.621-.136 1.661-.18 1.998.09v.001c.036.03.09.072.09.242 0 .509 0 .949-.096 1.01-.19.122-.697.148-1.169.157-1.232.024-1.735.522-1.735 1.718v.944c0 .56 0 1.005.372 1.369.36.36.81.36 1.378.36" clip-rule="evenodd" opacity=".4"/></svg>