<svg xmlns="http://www.w3.org/2000/svg" fill="none" viewBox="0 0 24 24"><path fill="currentColor" fill-rule="evenodd" d="M11.943 1.75h.114c2.19 0 3.912 0 5.255.18 1.377.186 2.469.573 3.327 1.43.858.86 1.245 1.951 1.43 3.328.181 1.343.181 3.064.181 5.255v.114c0 2.19 0 3.912-.18 5.255-.186 1.377-.573 2.469-1.43 3.327-.86.858-1.951 1.245-3.328 1.43-1.343.181-3.064.181-5.255.181h-.114c-2.19 0-3.912 0-5.255-.18-1.377-.186-2.469-.573-3.327-1.43-.858-.86-1.245-1.951-1.43-3.328-.181-1.343-.181-3.064-.181-5.255v-.114c0-2.19 0-3.912.18-5.255.186-1.377.573-2.469 1.43-3.327.86-.858 1.951-1.245 3.328-1.43 1.343-.181 3.064-.181 5.255-.181M6.888 3.417c-1.21.163-1.933.472-2.466 1.005S3.58 5.678 3.417 6.888C3.252 8.12 3.25 9.74 3.25 12s.002 3.88.167 5.112c.163 1.21.472 1.933 1.005 2.466s1.256.842 2.466 1.005c1.232.165 2.852.167 5.112.167s3.88-.002 5.112-.167c1.21-.163 1.933-.471 2.466-1.005s.842-1.256 1.005-2.466c.165-1.232.167-2.852.167-5.112s-.002-3.88-.167-5.112c-.163-1.21-.471-1.933-1.005-2.466s-1.256-.842-2.466-1.005C15.88 3.252 14.26 3.25 12 3.25s-3.88.002-5.112.167" clip-rule="evenodd"/><path fill="currentColor" d="M11.378 18.24h-.34c-2.04 0-3.16 0-3.96-.76-.83-.78-.83-1.85-.83-3.79v-.63c0-1 0-1.56.23-2.12.22-.56.61-.98 1.31-1.73l2.73-2.93c.1-.11.15-.16.2-.2.59-.5 1.49-.44 2 .13.03.03.07.09.15.2.12.17.17.24.21.31.47.75.6 1.62.39 2.46-.02.09-.05.17-.1.33l-.18.56c-.04.12-.08.24-.11.34h.71c1.89 0 2.92 0 3.55.77.08.09.14.19.2.29.5.88.07 1.8-.73 3.46-.69 1.44-1.06 2.23-1.84 2.74-.07.05-.15.1-.23.14-.8.45-1.71.45-3.36.45zm.21-11.04v.1l-2.71 2.93c-.64.68-.9.97-1.01 1.26s-.12.66-.12 1.57v.63c0 1.64.01 2.38.36 2.7.38.35 1.29.35 2.94.35h.34c1.44 0 2.17 0 2.63-.26.04-.02.09-.05.13-.08.42-.27.69-.82 1.31-2.13.44-.93.9-1.87.78-2.08-.23-.29-1.26-.29-2.45-.29h-.27c-.6 0-.97 0-1.32-.21-.29-.18-.5-.45-.61-.77-.13-.41-.01-.77.16-1.32l.18-.56c.04-.13.06-.19.08-.25.11-.43.04-.89-.21-1.28-.03-.05-.07-.1-.14-.2l-.08-.11z" opacity=".4"/></svg>