<svg xmlns="http://www.w3.org/2000/svg" fill="none" viewBox="0 0 24 24"><path fill="currentColor" fill-rule="evenodd" d="M12.971 5.434a2.52 2.52 0 0 1 2.16-.646.75.75 0 0 1-.261 1.477 1.02 1.02 0 0 0-.885.274 51 51 0 0 0-2.519 2.477.75.75 0 1 1-1.088-1.032 52 52 0 0 1 2.593-2.55m-8.402 6.233c-.51-.286-1.197-.153-1.585.497-.357.595-.298 1.392.123 1.908l1.515 1.86c.58.713.97 1.188 1.294 1.496.32.303.456.321.512.322.036 0 .148-.008.416-.233a.75.75 0 0 1 .964 1.15c-.387.324-.841.588-1.395.583-.625-.006-1.113-.34-1.529-.733-.403-.383-.854-.936-1.392-1.597l-1.548-1.9c-.828-1.016-.921-2.5-.247-3.627.787-1.316 2.358-1.734 3.606-1.034a.75.75 0 0 1-.734 1.308" clip-rule="evenodd" opacity=".4"/><path fill="currentColor" fill-rule="evenodd" d="M18.227 5.429c1.244-1.118 3.064-.8 3.982.535.845 1.229.695 2.968-.414 3.987-.66.605-1.283 1.165-1.88 1.7-1.91 1.717-3.548 3.187-5.241 5.15l-.034.039c-.603.699-1.101 1.276-1.538 1.673-.443.401-.955.743-1.593.737-.626-.006-1.119-.333-1.545-.728-.412-.382-.872-.934-1.422-1.596l-1.582-1.9c-.846-1.017-.943-2.509-.252-3.639 1.014-1.659 3.253-1.846 4.489-.33l.807.99c1.82-2.265 3.756-4.401 6.223-6.618m2.746 1.385c-.45-.653-1.229-.732-1.744-.27-2.473 2.223-4.398 4.363-6.23 6.66l-.008.008c-.042.053-.088.112-.131.16a1.12 1.12 0 0 1-1.475.207 1.6 1.6 0 0 1-.363-.363l-.988-1.211c-.565-.693-1.557-.636-2.047.165-.361.591-.302 1.381.126 1.896l1.548 1.86c.593.713.99 1.188 1.323 1.496.327.303.47.327.54.328.057 0 .208-.02.57-.349.36-.326.799-.832 1.444-1.58 1.762-2.042 3.49-3.593 5.419-5.325.587-.527 1.192-1.07 1.823-1.65.532-.489.635-1.39.193-2.032" clip-rule="evenodd"/></svg>