<svg xmlns="http://www.w3.org/2000/svg" fill="none" viewBox="0 0 24 24"><path fill="currentColor" d="M8.989 22.687a.75.75 0 0 1-.748-.701l-.046-.711-.155-.683c-.35-1.381-.764-1.834-1.45-2.583-.283-.31-.604-.66-.963-1.122a18 18 0 0 0-.698-.806c-.531-.593-1.192-1.33-1.833-2.242-.524-.75-.448-1.946.176-2.787.63-.85 1.658-1.145 2.746-.79.39.124.757.36 1.12.725l.585.59c0-.84 0-1.778.002-2.7.003-2.29.007-4.656-.016-5.551-.04-1.26 1.064-2.077 2.155-2.138 1.479-.083 2.247 1.047 2.332 2.13q.003.03.002.059v6.54a.75.75 0 0 1-1.5 0V3.409c-.06-.628-.44-.739-.752-.723-.314.017-.75.214-.738.597.023.919.02 3.297.017 5.596-.002 1.693-.005 3.443.004 4.52a.75.75 0 0 1-1.283.534l-1.87-1.889q-.279-.28-.511-.352l-.01-.003c-.481-.158-.834-.074-1.08.256-.274.37-.273.858-.152 1.03.59.839 1.218 1.54 1.723 2.104.295.33.55.615.762.882.325.419.612.731.888 1.033.728.796 1.358 1.483 1.8 3.237l.004.018.17.75a1 1 0 0 1 .017.117l.05.77a.75.75 0 0 1-.7.797l-.05.002z"/><path fill="currentColor" d="M18.48 22.657a.75.75 0 0 1-.75-.724c-.014-.384-.025-1.111.057-1.675l.002-.015a2.9 2.9 0 0 1 .45-1.138c.16-.236.35-.444.515-.628.102-.113.198-.218.277-.317.45-.584.668-1.135.668-2.674l.03-2.719.003-.063c.055-.569-.007-1.321-.613-1.685a1.37 1.37 0 0 0-.863-.178c0 .155-.012.31-.023.462a4 4 0 0 0-.016.544.75.75 0 1 1-1.495.118 5 5 0 0 1 .016-.777c.014-.184.03-.394.008-.488l-.005-.02c-.156-.598-.704-.974-1.146-.992-.233-.008-.342.08-.399.166.025.323.018.68-.019 1.088a.749.749 0 1 1-1.494-.136c.034-.378.036-.703.004-.965l-.003-.024c-.04-.3-.164-.797-.537-.9-.283-.08-.65.06-.948.345v.651a.75.75 0 0 1-1.5 0v-.94c0-.168.057-.332.161-.464.701-.888 1.755-1.295 2.685-1.038.496.137.9.444 1.186.887.275-.122.586-.182.92-.17.75.03 1.605.45 2.134 1.22a2.65 2.65 0 0 1 1.25-.016c1.188.259 2.384 1.293 2.193 3.42l-.03 2.679c0 1.727-.249 2.634-.986 3.59-.115.145-.232.274-.346.4a5 5 0 0 0-.39.466 1.4 1.4 0 0 0-.207.532c-.047.326-.062.835-.042 1.396a.75.75 0 0 1-.722.777h-.028z" opacity=".4"/></svg>