<svg xmlns="http://www.w3.org/2000/svg" fill="none" viewBox="0 0 24 24"><path fill="currentColor" fill-rule="evenodd" d="M20.53 7.47a.75.75 0 0 1 0 1.06l-5.03 5.031c-.415.415-.773.773-1.097 1.027-.345.272-.727.489-1.201.532a2.3 2.3 0 0 1-.404 0c-.474-.043-.856-.26-1.201-.531-.324-.255-.682-.613-1.097-1.028l-.03-.03c-.455-.455-.75-.748-.994-.94-.232-.182-.341-.21-.409-.217a1 1 0 0 0-.134 0c-.068.006-.177.034-.409.217-.245.192-.54.485-.994.94l-3 3a.75.75 0 0 1-1.06-1.061l3.03-3.031c.415-.415.773-.773 1.097-1.027.345-.272.727-.489 1.201-.532a2.3 2.3 0 0 1 .404 0c.474.043.856.26 1.201.531.324.255.682.613 1.097 1.028l.03.03c.455.455.75.748.994.94.232.182.341.21.409.217q.067.006.134 0c.068-.006.177-.034.409-.217.245-.192.54-.485.994-.94l5-5a.75.75 0 0 1 1.06 0" clip-rule="evenodd" opacity=".4"/><path fill="currentColor" fill-rule="evenodd" d="M14.25 8a.75.75 0 0 1 .75-.75h5a.75.75 0 0 1 .75.75v5a.75.75 0 0 1-1.5 0V8.75H15a.75.75 0 0 1-.75-.75" clip-rule="evenodd"/></svg>