<svg xmlns="http://www.w3.org/2000/svg" fill="none" viewBox="0 0 24 24"><path fill="currentColor" fill-rule="evenodd" d="M17.969 1.25h.062c.674 0 1.225 0 1.672.037.463.037.882.118 1.273.317a3.25 3.25 0 0 1 1.42 1.42c.199.391.28.81.317 1.273.037.447.037.998.037 1.672V18.03c0 .674 0 1.225-.037 1.672-.037.463-.118.882-.317 1.273a3.25 3.25 0 0 1-1.42 1.42c-.391.199-.81.28-1.273.317-.447.037-.998.037-1.672.037h-.062c-.674 0-1.225 0-1.672-.037-.463-.037-.882-.118-1.273-.317a3.25 3.25 0 0 1-1.42-1.42c-.199-.391-.28-.81-.317-1.273-.037-.447-.037-.998-.037-1.671V12.75H7.538l.007.006c.249.21.512.417.757.61l.057.045c.245.192.502.394.664.551a.75.75 0 1 1-1.046 1.076 9 9 0 0 0-.544-.448l-.06-.047a27 27 0 0 1-.797-.643 7.4 7.4 0 0 1-.827-.797 2.7 2.7 0 0 1-.324-.46A1.4 1.4 0 0 1 5.25 12c0-.258.089-.48.175-.642.09-.168.206-.323.324-.461a7.4 7.4 0 0 1 .827-.797c.27-.23.555-.453.797-.643l.06-.047a9 9 0 0 0 .544-.448.75.75 0 1 1 1.046 1.076 9 9 0 0 1-.664.551l-.057.045c-.245.193-.508.4-.757.61l-.007.006h5.712V5.969c0-.674 0-1.225.037-1.672.037-.463.118-.882.317-1.272a3.25 3.25 0 0 1 1.42-1.42c.391-.2.81-.28 1.273-.318.447-.037.998-.037 1.672-.037M14.75 11.999v6c0 .712 0 1.202.032 1.58.03.371.085.57.159.715.167.329.435.596.765.764.144.074.343.13.713.16.38.03.869.031 1.581.031s1.202 0 1.58-.032c.371-.03.57-.085.715-.159a1.75 1.75 0 0 0 .764-.765c.074-.144.13-.343.16-.713.03-.38.031-.869.031-1.581V6c0-.712 0-1.202-.032-1.58-.03-.371-.085-.57-.159-.714a1.75 1.75 0 0 0-.765-.765c-.144-.074-.343-.13-.713-.16-.38-.03-.869-.031-1.581-.031s-1.202 0-1.58.032c-.371.03-.57.085-.715.159a1.75 1.75 0 0 0-.764.765c-.074.144-.13.343-.16.713-.03.38-.031.869-.031 1.581z" clip-rule="evenodd"/><path fill="currentColor" fill-rule="evenodd" d="M5.334 2.814C5.981 2.75 6.816 2.75 8 2.75a.75.75 0 0 0 0-1.5h-.04c-1.135 0-2.043 0-2.77.07-.748.073-1.385.226-1.951.581A4.25 4.25 0 0 0 1.9 3.24c-.355.566-.508 1.203-.58 1.95-.071.728-.071 1.636-.071 2.772v8.078c0 1.136 0 2.044.07 2.771.073.748.226 1.385.581 1.951.34.54.797.998 1.338 1.338.566.355 1.203.508 1.95.58.728.071 1.636.071 2.772.071H8a.75.75 0 0 0 0-1.5c-1.184 0-2.019 0-2.666-.064-.635-.061-1.01-.177-1.297-.358a2.75 2.75 0 0 1-.865-.865c-.181-.287-.297-.662-.358-1.297-.063-.647-.064-1.482-.064-2.666V8c0-1.184 0-2.019.064-2.666.061-.635.177-1.01.358-1.297.22-.35.515-.646.865-.865.287-.181.662-.297 1.297-.358" clip-rule="evenodd" opacity=".4"/></svg>