<svg xmlns="http://www.w3.org/2000/svg" fill="none" viewBox="0 0 24 24"><path fill="currentColor" fill-rule="evenodd" d="M13.469 1.942a1.905 1.905 0 0 0-2.938 0L7.665 5.44c-.606.739-.566 1.923.279 2.5l-1.75 2.015c-.724.832-.568 2.198.537 2.716 1.457.683 3.12 1.08 5.27 1.08s3.812-.397 5.269-1.08c1.104-.518 1.26-1.884.537-2.716l-1.75-2.016c.844-.576.884-1.76.279-2.499zm1.223 4.94a.8.8 0 0 0-.206.057A9.7 9.7 0 0 1 12 7.25a9.7 9.7 0 0 1-2.485-.31.8.8 0 0 0-.207-.059 7 7 0 0 1-.457-.15.16.16 0 0 1-.069-.045.13.13 0 0 1-.028-.06.3.3 0 0 1 .07-.235l2.867-3.499a.406.406 0 0 1 .618 0l2.866 3.499a.3.3 0 0 1 .07.235.13.13 0 0 1-.027.06.16.16 0 0 1-.069.044q-.221.082-.457.151m-5.224 1.59c.785.18 1.64.278 2.532.278s1.747-.098 2.533-.277l2.142 2.465a.28.28 0 0 1 .072.231.19.19 0 0 1-.114.144c-1.241.582-2.684.939-4.633.939s-3.391-.357-4.632-.94a.19.19 0 0 1-.114-.143.28.28 0 0 1 .072-.23z" clip-rule="evenodd"/><path fill="currentColor" fill-rule="evenodd" d="M8.144 11.784a.75.75 0 0 1 .06 1.059l-2.38 2.673a.26.26 0 0 0-.072.207.15.15 0 0 0 .087.12c1.631.869 3.783 1.409 6.161 1.409 2.38 0 4.53-.54 6.161-1.408.056-.03.08-.07.087-.121a.26.26 0 0 0-.07-.207l-2.382-2.673a.75.75 0 1 1 1.12-.998l2.382 2.673c.698.785.609 2.096-.432 2.65-1.69.9-3.81 1.466-6.116 1.567v2.517H14a.75.75 0 1 1 0 1.5h-4a.75.75 0 1 1 0-1.5h1.25v-2.517c-2.305-.101-4.424-.667-6.115-1.567-1.041-.554-1.13-1.865-.432-2.65l2.382-2.673a.75.75 0 0 1 1.059-.061" clip-rule="evenodd" opacity=".4"/></svg>