<svg xmlns="http://www.w3.org/2000/svg" fill="none" viewBox="0 0 24 24"><path fill="currentColor" fill-rule="evenodd" d="M5.25 8a6.75 6.75 0 0 1 13.5 0v4c0 2.5-1.359 4.68-3.374 5.846a.75.75 0 1 1-.751-1.298A5.25 5.25 0 0 0 17.25 12V8a5.25 5.25 0 1 0-10.5 0v4a5.25 5.25 0 0 0 2.626 4.548.75.75 0 0 1-.752 1.299A6.75 6.75 0 0 1 5.25 12z" clip-rule="evenodd" opacity=".4"/><path fill="currentColor" fill-rule="evenodd" d="M12.75 9a.75.75 0 0 0-1.5 0v2.19l-1.22-1.22a.75.75 0 1 0-1.06 1.06l2.28 2.28v7.94H10a.75.75 0 0 0 0 1.5h4a.75.75 0 0 0 0-1.5h-1.25v-5.94l2.28-2.28a.75.75 0 1 0-1.06-1.06l-1.22 1.22z" clip-rule="evenodd"/></svg>