<svg xmlns="http://www.w3.org/2000/svg" fill="none" viewBox="0 0 24 24"><path fill="currentColor" fill-rule="evenodd" d="M11.5 18.75a.75.75 0 1 0 0 1.5.75.75 0 0 0 0-1.5m-2.25.75c0-.74.357-1.396.908-1.806l-.1-.012c-.549-.074-1.05-.236-1.472-.626-.418-.387-.629-.876-.766-1.422-.13-.52-.213-1.178-.313-1.966l-1.133-8.97c-.08-.64-.134-1.052-.21-1.354-.071-.285-.14-.375-.192-.422-.046-.043-.126-.097-.386-.132-.286-.038-.671-.04-1.285-.04H3a.75.75 0 1 1 0-1.5h1.348c.553 0 1.04 0 1.437.053.432.058.85.189 1.205.518.351.324.522.73.63 1.158.1.4.163.904.237 1.487l1.133 8.969c.107.845.18 1.412.285 1.834.102.404.211.576.329.685.113.105.276.19.652.24.401.054.935.056 1.746.056H22a.75.75 0 0 1 0 1.5h-2.086a2.25 2.25 0 1 1-2.829 0h-4.17A2.25 2.25 0 1 1 9.25 19.5m8.5 0a.75.75 0 1 1 1.5 0 .75.75 0 0 1-1.5 0" clip-rule="evenodd"/><path fill="currentColor" fill-rule="evenodd" d="M18.052 3.25h-2.104c-.899 0-1.648 0-2.242.08-.628.084-1.195.27-1.65.725-.456.456-.642 1.023-.726 1.65-.08.595-.08 1.345-.08 2.243v2.104c0 .899 0 1.648.08 2.242.084.628.27 1.195.726 1.65.455.456 1.022.642 1.65.726.594.08 1.344.08 2.242.08h2.104c.899 0 1.648 0 2.242-.08.628-.084 1.195-.27 1.65-.726.456-.455.642-1.022.726-1.65.08-.594.08-1.344.08-2.242V7.948c0-.899 0-1.648-.08-2.242-.084-.628-.27-1.195-.726-1.65-.455-.456-1.022-.642-1.65-.726-.594-.08-1.343-.08-2.242-.08m-4.936 1.866c.13-.13.328-.237.79-.3.482-.064 1.13-.066 2.094-.066h2c.964 0 1.612.002 2.095.067.461.062.659.169.789.3s.237.327.3.788c.064.483.066 1.131.066 2.095v2c0 .964-.002 1.612-.067 2.095-.062.461-.169.659-.3.789s-.327.237-.788.3c-.483.064-1.131.066-2.095.066h-2c-.964 0-1.612-.002-2.095-.066-.461-.063-.659-.17-.789-.3s-.237-.328-.3-.79c-.064-.482-.066-1.13-.066-2.094V8c0-.964.002-1.612.066-2.095.063-.461.17-.659.3-.789M16.5 6.25a.75.75 0 0 0 0 1.5h1a.75.75 0 0 0 0-1.5z" clip-rule="evenodd" opacity=".4"/></svg>