<svg xmlns="http://www.w3.org/2000/svg" fill="none" viewBox="0 0 24 24"><path fill="currentColor" d="M14.999 18.749h-6a.75.75 0 0 1 0-1.5h6a.75.75 0 0 1 0 1.5M5 18.721h-.037c-1.159-.057-2.072-.235-2.762-.921-.951-.955-.951-2.321-.951-4.8V9c0-2.48 0-3.846.949-4.798C3.149 3.25 4.517 3.25 7 3.25h3.3c1.198 0 1.799 0 2.363.184a3.74 3.74 0 0 1 2.402 2.412c.185.558.185 1.158.185 2.354 0 1.35 0 2.094-.494 2.712l-.019.022c-.087.1-.194.216-.338.325-.614.491-1.358.491-2.699.491H8a.75.75 0 0 1 0-1.5h3.7c.941 0 1.563 0 1.766-.166l.03-.023a1 1 0 0 0 .094-.094c.159-.216.159-.836.159-1.767 0-1.002 0-1.554-.112-1.891a2.24 2.24 0 0 0-1.441-1.449c-.337-.11-.891-.11-1.897-.11h-3.3c-2.297 0-3.248.02-3.739.512-.49.493-.51 1.444-.51 3.738v4c0 2.294.02 3.245.511 3.739.306.304.788.436 1.775.484a.749.749 0 0 1-.037 1.499z"/><path fill="currentColor" fill-rule="evenodd" d="M17 15.25a2.756 2.756 0 0 0-2.646 2H9.646a2.756 2.756 0 0 0-2.646-2 2.76 2.76 0 0 0-2.622 1.92c-.564-.072-.891-.204-1.12-.431-.49-.494-.51-1.445-.51-3.739V9c0-2.294.02-3.245.51-3.738.491-.492 1.442-.512 3.74-.512h3.3c1.005 0 1.56 0 1.896.11a2.24 2.24 0 0 1 1.441 1.449c.112.337.112.889.112 1.891 0 .932 0 1.551-.159 1.767a1 1 0 0 1-.094.094l-.03.023c-.203.166-.825.166-1.766.166H9.693l.796-.68a.75.75 0 0 0-.978-1.139 193 193 0 0 1-1.344 1.146l-.01.01c-.44.397-.856.773-.903 1.316a1 1 0 0 0-.002.178c.042.63.59 1.077 1.003 1.408.59.526 1.238 1.065 1.266 1.088a.75.75 0 0 0 .479.173h-.001a.75.75 0 0 0 .47-1.335c-.058-.049-.396-.33-.782-.665h2.011c1.341 0 2.085 0 2.7-.491a2.2 2.2 0 0 0 .356-.347c.494-.618.494-1.362.494-2.712 0-.616 0-1.074-.025-1.45h1.095c1.405 0 1.992.01 2.395.248.39.233.67.732 1.32 1.94l.708 1.312h-1.743a.75.75 0 0 0 0 1.5h2.25V13c0 2.294-.02 3.245-.509 3.736-.23.229-.556.36-1.117.433A2.755 2.755 0 0 0 17 15.25m-7.354 3.5h4.708c.327 1.153 1.39 2 2.646 2a2.755 2.755 0 0 0 2.667-2.077c.863-.095 1.569-.318 2.13-.876.95-.952.95-2.318.95-4.796v-1.987a.74.74 0 0 0-.098-.383l-1.298-2.404v-.001c-.716-1.33-1.11-2.061-1.874-2.518-.776-.458-1.623-.458-3.16-.458h-1.505a3.75 3.75 0 0 0-2.153-1.816c-.564-.184-1.165-.184-2.363-.184h-3.3c-2.483 0-3.85 0-4.8.952S1.245 6.52 1.245 9v4c0 2.479 0 3.845.951 4.8.56.558 1.269.78 2.137.874A2.756 2.756 0 0 0 7 20.75a2.756 2.756 0 0 0 2.646-2m8.603-.741v-.065A1.25 1.25 0 0 0 17 16.75c-.689 0-1.25.561-1.25 1.25s.561 1.25 1.25 1.25c.682 0 1.238-.55 1.25-1.229zM8.25 18v-.029A1.25 1.25 0 0 0 7 16.75c-.689 0-1.25.561-1.25 1.25s.561 1.25 1.25 1.25A1.25 1.25 0 0 0 8.25 18" clip-rule="evenodd"/></svg>