<svg xmlns="http://www.w3.org/2000/svg" fill="none" viewBox="0 0 24 24"><path fill="currentColor" fill-rule="evenodd" d="M18.5 8.25a7.25 7.25 0 0 0-7.25 7.25.75.75 0 0 1-1.5 0 8.75 8.75 0 0 1 8.75-8.75.75.75 0 0 1 0 1.5m0 3.2a4.05 4.05 0 0 0-4.05 4.05.75.75 0 0 1-1.5 0 5.55 5.55 0 0 1 5.55-5.55.75.75 0 0 1 0 1.5m0 3.2a.85.85 0 0 0-.85.85.75.75 0 0 1-1.5 0 2.35 2.35 0 0 1 2.35-2.35.75.75 0 0 1 0 1.5" clip-rule="evenodd" opacity=".4"/><path fill="currentColor" fill-rule="evenodd" d="M9.944 2.25h4.112c1.838 0 3.294 0 4.433.153 1.172.158 2.121.49 2.87 1.238.748.749 1.08 1.698 1.238 2.87.153 1.14.153 2.595.153 4.433v.112c0 1.838 0 3.294-.153 4.433-.158 1.172-.49 2.121-1.238 2.87-.617.617-1.37.95-2.272 1.137l.584 1.169a.75.75 0 1 1-1.342.67l-.823-1.645c-.962.06-2.103.06-3.45.06H9.944c-1.347 0-2.488 0-3.45-.06l-.823 1.645a.75.75 0 0 1-1.342-.67l.584-1.169c-.902-.186-1.655-.52-2.272-1.137-.748-.749-1.08-1.698-1.238-2.87-.153-1.14-.153-2.595-.153-4.433v-.112c0-1.838 0-3.294.153-4.433.158-1.172.49-2.121 1.238-2.87.749-.748 1.698-1.08 2.87-1.238 1.14-.153 2.595-.153 4.433-.153M5.71 3.89c-1.006.135-1.586.389-2.01.812-.422.423-.676 1.003-.811 2.009-.138 1.028-.14 2.382-.14 4.289s.002 3.262.14 4.29c.135 1.005.389 1.585.812 2.008s1.003.677 2.009.812c1.028.138 2.382.14 4.289.14h4c1.907 0 3.262-.002 4.29-.14 1.005-.135 1.585-.389 2.008-.812s.677-1.003.812-2.009c.138-1.027.14-2.382.14-4.289s-.002-3.261-.14-4.29c-.135-1.005-.389-1.585-.812-2.008s-1.003-.677-2.009-.812c-1.027-.138-2.382-.14-4.289-.14h-4c-1.907 0-3.261.002-4.29.14" clip-rule="evenodd"/></svg>