<svg xmlns="http://www.w3.org/2000/svg" fill="none" viewBox="0 0 24 24"><path fill="currentColor" fill-rule="evenodd" d="M16 4.75c-2.079 0-3.654 2.053-3.152 4.047a.75.75 0 0 1-.679.931c-3.297.213-6.273-1.466-8.3-3.849-.515 3.585.637 7.528 3.162 10.062a.75.75 0 0 1 .22.53c-.001.639-.409 1.097-.787 1.387-.391.3-.894.534-1.395.716q-.278.102-.57.188A12.2 12.2 0 0 0 8 19.25c6.076 0 11.027-4.816 11.243-10.839a.75.75 0 0 1 .081-.314l1.346-2.64-1.914.285a.75.75 0 0 1-.606-.18A3.24 3.24 0 0 0 16 4.75m-4.742 3.488c-.113-2.602 2-4.988 4.742-4.988 1.075 0 2.067.358 2.863.96l3.027-.452a.75.75 0 0 1 .778 1.083l-1.933 3.792C20.405 15.381 14.829 20.75 8 20.75c-2.295 0-4.478-.503-6.375-1.6a.75.75 0 0 1 .3-1.396c.702-.071 1.764-.273 2.63-.589.438-.16.779-.33.997-.497l.057-.046c-3.035-3.338-4.101-8.45-2.841-12.729a.75.75 0 0 1 1.351-.191c1.61 2.521 4.247 4.393 7.14 4.536m-5.506 8.217v.001z" clip-rule="evenodd" opacity=".4"/><path fill="currentColor" fill-rule="evenodd" d="M16 4.75c-2.079 0-3.654 2.053-3.152 4.047a.75.75 0 0 1-.679.931c-3.297.213-6.273-1.466-8.3-3.849-.515 3.585.637 7.528 3.162 10.062a.75.75 0 0 1 .22.53c0 .639-.409 1.097-.787 1.387-.391.3-.894.534-1.395.716-1.008.368-2.196.592-2.994.672a.75.75 0 1 1-.15-1.492c.702-.071 1.764-.273 2.63-.589.438-.16.779-.33.997-.497l.057-.046c-3.035-3.338-4.101-8.45-2.841-12.729a.75.75 0 0 1 1.351-.191c1.61 2.521 4.247 4.393 7.14 4.536C11.144 5.636 13.257 3.25 16 3.25c1.075 0 2.067.358 2.863.96l3.027-.452a.75.75 0 1 1 .22 1.484l-3.354.5a.75.75 0 0 1-.606-.18A3.24 3.24 0 0 0 16 4.75M5.752 16.455v.001z" clip-rule="evenodd"/></svg>