<svg xmlns="http://www.w3.org/2000/svg" fill="none" viewBox="0 0 24 24"><path fill="currentColor" fill-rule="evenodd" d="M6.468 8.874q.1.202.245.403c.233.325.587.548.926.707.353.167.771.3 1.216.407.891.213 1.97.334 3.042.356 1.07.02 2.171-.057 3.102-.26a6 6 0 0 0 1.292-.425c.377-.182.743-.432.996-.785q.145-.2.245-.403c1.144.255 2.073.58 2.73.94.839.457.988.823.988.97 0 .105-.066.333-.49.655-.412.314-1.056.628-1.919.905-1.717.552-4.135.906-6.841.906-2.705 0-5.124-.354-6.842-.906-.862-.277-1.506-.591-1.918-.905-.424-.322-.49-.55-.49-.654 0-.148.15-.514.988-.972.657-.358 1.586-.684 2.73-.94m11.222-1.5c1.303.279 2.436.658 3.29 1.123.914.499 1.77 1.247 1.77 2.289 0 .784-.494 1.401-1.082 1.848-.6.456-1.42.835-2.367 1.14-1.903.61-4.484.977-7.301.977s-5.398-.366-7.3-.978c-.947-.304-1.768-.683-2.368-1.139-.588-.447-1.082-1.064-1.082-1.848 0-1.042.856-1.79 1.77-2.289.853-.465 1.987-.844 3.29-1.123.03-.164.07-.325.106-.48l.012-.053C7.025 4.329 9.224 2.25 12 2.25s4.976 2.079 5.571 4.59l.013.053q.057.233.106.48m-9.802-.187C8.347 5.252 10.016 3.75 12 3.75s3.653 1.502 4.112 3.436c.102.432.143.625.138.783-.003.101-.026.216-.182.434-.053.074-.177.186-.43.308a4.5 4.5 0 0 1-.96.31c-.784.172-1.76.246-2.751.226s-1.959-.132-2.723-.315a5 5 0 0 1-.927-.305c-.245-.115-.33-.204-.345-.224-.156-.218-.179-.333-.182-.434-.005-.158.036-.35.138-.783" clip-rule="evenodd"/><path fill="currentColor" fill-rule="evenodd" d="M7.721 14.206a.75.75 0 1 0-1.442-.412l-2 7a.75.75 0 0 0 1.442.412zm10-.412a.75.75 0 1 0-1.442.412l2 7a.75.75 0 0 0 1.442-.412zM12 18a1 1 0 1 0 0 2h.009a1 1 0 1 0 0-2z" clip-rule="evenodd" opacity=".4"/></svg>