<svg xmlns="http://www.w3.org/2000/svg" fill="none" viewBox="0 0 24 24"><path fill="currentColor" fill-rule="evenodd" d="M10.834 8.191a.75.75 0 0 0-1.45-.382l-2.11 8a.75.75 0 1 0 1.451.382zm3.782-.382a.75.75 0 1 0-1.45.382l2.108 8a.75.75 0 1 0 1.45-.382z" clip-rule="evenodd" opacity=".4"/><path fill="currentColor" fill-rule="evenodd" d="M17.104 4.25H6.896c-.74 0-1.363 0-1.868.062-.535.065-1.023.208-1.449.555s-.665.795-.838 1.306c-.163.48-.29 1.091-.44 1.816l-.971 4.67c-.116.558-.13 1.214.122 1.8.27.632.816 1.098 1.619 1.25.422.08.84.072 1.183.063l.092-.003c.324-.01.58-.016.83.013a4.48 4.48 0 0 1 3.149 1.851c.391.712.83 1.277 1.458 1.642.636.369 1.367.475 2.217.475s1.581-.106 2.217-.475c.628-.365 1.066-.93 1.458-1.642.715-1.02 1.862-1.7 3.15-1.851.248-.03.505-.022.829-.013l.092.003c.343.009.761.017 1.183-.063.803-.152 1.348-.618 1.619-1.25.252-.586.238-1.242.122-1.8l-.97-4.67c-.151-.725-.278-1.335-.44-1.816-.174-.51-.413-.96-.84-1.306-.425-.347-.913-.49-1.448-.555-.505-.062-1.128-.062-1.868-.062M4.526 6.03c.125-.101.302-.183.684-.23.403-.049.934-.05 1.732-.05h10.116c.798 0 1.329.001 1.732.05.382.047.559.129.684.23s.241.26.364.624c.058.169.11.364.166.596H3.996a7 7 0 0 1 .165-.596c.124-.365.24-.522.365-.624m-.852 2.72-.876 4.214c-.079.381-.056.698.032.904.07.16.195.306.52.367.245.046.515.047.863.037l.1-.003c.305-.009.673-.02 1.037.023 1.717.202 3.266 1.118 4.231 2.52l.042.068c.338.623.617.926.913 1.098.3.174.719.272 1.464.272s1.164-.098 1.464-.273c.296-.171.575-.474.913-1.097l.041-.067c.966-1.403 2.515-2.32 4.232-2.521a7 7 0 0 1 1.037-.023l.1.003c.348.01.618.01.864-.037.324-.061.45-.206.518-.367.089-.206.112-.523.032-.904l-.875-4.214z" clip-rule="evenodd"/></svg>