<svg xmlns="http://www.w3.org/2000/svg" fill="none" viewBox="0 0 24 24"><path fill="currentColor" fill-rule="evenodd" d="M17.151 20.752v-.003c2.41 0 3.738 0 4.687-.936l.051-.056.017-.017c.027-.026.066-.065.107-.115.876-1.002.794-2.27.646-4.562v-.002c-.246-3.809-.753-6.735-1.136-8.525l-.007-.03v-.001c-.283-1.269-.454-2.036-1.2-2.646l-.012-.009c-.764-.6-1.633-.6-3.073-.6H6.771c-1.44 0-2.309 0-3.073.6l-.012.01c-.746.609-.917 1.376-1.2 2.645l-.008.038c-.382 1.784-.888 4.71-1.135 8.519v.001c-.148 2.294-.23 3.561.646 4.563.04.048.08.087.106.114l.001.001.017.017.051.056c.949.936 2.277.936 4.687.936 1.103 0 1.72 0 2.283-.371.045-.026.102-.064.159-.114.541-.426.742-1.034 1.068-2.024l.125-.368c.5.236 1.017.378 1.514.378h-.002c.497 0 1.014-.142 1.514-.378l.129.37.001.003c.327.991.528 1.597 1.067 2.021.057.05.114.088.159.114.563.371 1.18.371 2.283.371m-2.347-3.73.255.731.004.013c.256.777.398 1.19.58 1.327l.009.007.009.007.023.015c.189.13.67.13 1.467.13 2.191 0 3.116-.02 3.613-.485q.048-.053.08-.084l.002-.002.017-.017.004-.005.012-.014c.456-.516.419-1.388.284-3.485-.241-3.718-.734-6.567-1.105-8.3l-.006-.026c-.258-1.155-.356-1.538-.68-1.807-.338-.262-.818-.275-2.141-.275H6.771c-1.323 0-1.802.013-2.141.275-.324.269-.422.652-.68 1.807l-.007.031c-.37 1.728-.863 4.576-1.104 8.295-.135 2.097-.172 2.969.284 3.485l.005.006.011.013.017.017.001.002q.033.03.081.084c.496.466 1.422.484 3.613.484.797 0 1.278 0 1.467-.129l.023-.015.009-.007.009-.007c.182-.138.324-.55.58-1.327l.253-.745c-.585-.503-1.071-1.103-1.363-1.685a.75.75 0 0 1 1.341-.671c.526 1.052 1.928 2.085 2.83 2.085.9 0 2.302-1.033 2.828-2.085a.75.75 0 1 1 1.341.67c-.292.584-.78 1.185-1.366 1.688" clip-rule="evenodd"/><path fill="currentColor" d="M21 8.75H3a.75.75 0 0 1 0-1.5h18a.75.75 0 0 1 0 1.5" opacity=".4"/></svg>