<svg xmlns="http://www.w3.org/2000/svg" fill="none" viewBox="0 0 24 24"><path fill="currentColor" d="M12 22.25c-4.681 0-7.031 0-8.641-1.611C1.75 19.028 1.75 16.68 1.75 12s0-7.029 1.61-8.639C4.97 1.75 7.319 1.75 12 1.75s7.031 0 8.641 1.611C22.25 4.972 22.25 7.32 22.25 12s0 7.029-1.61 8.639C19.03 22.25 16.681 22.25 12 22.25m0-19c-4.267 0-6.409 0-7.579 1.171C3.25 5.592 3.25 7.734 3.25 12s0 6.407 1.171 7.579C5.591 20.75 7.733 20.75 12 20.75s6.409 0 7.579-1.171C20.75 18.408 20.75 16.266 20.75 12s0-6.407-1.171-7.579C18.409 3.25 16.267 3.25 12 3.25"/><path fill="currentColor" d="M11.98 17.75a.75.75 0 0 1-.75-.75v-5.576l-1.16 1.301a.75.75 0 0 1-1.12-.998l1.59-1.783c.425-.485.941-.75 1.45-.744.491.007.983.259 1.425.729l.012.013 1.6 1.783a.75.75 0 1 1-1.116 1.002l-1.182-1.317V17a.75.75 0 0 1-.75.75zm4.02-10H8a.75.75 0 0 1 0-1.5h8a.75.75 0 0 1 0 1.5" opacity=".4"/></svg>