<svg xmlns="http://www.w3.org/2000/svg" fill="none" viewBox="0 0 24 24"><path fill="currentColor" fill-rule="evenodd" d="M11.962 1.25h.076c.67 0 1.229 0 1.681.046.474.048.913.153 1.309.417.3.201.558.459.758.76.265.395.37.835.418 1.308.046.452.046 1.011.046 1.68V7.5a.75.75 0 0 1-1.5 0v-2c0-.718 0-1.2-.038-1.567-.036-.355-.1-.519-.173-.627a1.3 1.3 0 0 0-.344-.345c-.109-.073-.273-.137-.628-.173-.367-.037-.85-.038-1.567-.038-.718 0-1.2 0-1.567.038-.355.036-.519.1-.627.173a1.3 1.3 0 0 0-.345.345c-.073.108-.137.272-.173.627-.037.367-.038.85-.038 1.567v2a.75.75 0 1 1-1.5 0V5.462c0-.67 0-1.229.046-1.681.048-.473.153-.913.417-1.309.201-.3.459-.558.76-.759.395-.264.835-.369 1.308-.417.452-.046 1.011-.046 1.68-.046" clip-rule="evenodd" opacity=".4"/><path fill="currentColor" fill-rule="evenodd" d="M11.5 3.75a.75.75 0 0 0 0 1.5h1a.75.75 0 0 0 0-1.5zm1.552 3h-2.104c-.899 0-1.648 0-2.242.08-.628.084-1.195.27-1.65.725-.456.456-.642 1.023-.726 1.65-.08.595-.08 1.345-.08 2.243v5.647c0 .838 0 1.372.091 1.832a4.75 4.75 0 0 0 3.732 3.732c.46.091.994.091 1.832.091h.19c.838 0 1.372 0 1.832-.091a4.75 4.75 0 0 0 3.732-3.732c.091-.46.091-.994.091-1.832v-5.647c0-.899 0-1.648-.08-2.242-.084-.628-.27-1.195-.725-1.65-.456-.456-1.023-.642-1.65-.726-.595-.08-1.344-.08-2.243-.08M8.116 8.616c.13-.13.328-.237.79-.3.482-.064 1.13-.066 2.094-.066h2c.964 0 1.612.002 2.095.067.461.062.659.169.789.3s.237.327.3.788c.064.483.066 1.131.066 2.095V17c0 .965-.004 1.338-.062 1.634a3.25 3.25 0 0 1-2.554 2.554c-.296.058-.669.062-1.634.062s-1.338-.004-1.634-.062a3.25 3.25 0 0 1-2.554-2.554c-.058-.296-.062-.669-.062-1.634v-5.5c0-.964.002-1.612.067-2.095.062-.461.169-.659.3-.789" clip-rule="evenodd"/></svg>