<svg xmlns="http://www.w3.org/2000/svg" fill="none" viewBox="0 0 24 24"><path fill="currentColor" fill-rule="evenodd" d="M11.25 2a.75.75 0 0 1 .75-.75c5.938 0 10.75 4.814 10.75 10.75S17.938 22.75 12 22.75a.75.75 0 0 1 0-1.5A9.25 9.25 0 0 0 21.25 12 9.25 9.25 0 0 0 12 2.75a.75.75 0 0 1-.75-.75" clip-rule="evenodd"/><path fill="currentColor" fill-rule="evenodd" d="M9.242 3.21a.75.75 0 0 0-.484-1.42 12.1 12.1 0 0 0-3.494 1.871.75.75 0 1 0 .918 1.186 10.6 10.6 0 0 1 3.06-1.637M3.933 7.337a.75.75 0 1 0-1.273-.792 10.4 10.4 0 0 0-1.397 3.564.75.75 0 0 0 1.474.275 8.9 8.9 0 0 1 1.196-3.047m-1.196 6.28a.75.75 0 1 0-1.474.275 10.4 10.4 0 0 0 1.397 3.564.75.75 0 0 0 1.273-.793 8.9 8.9 0 0 1-1.196-3.046m3.45 5.54a.75.75 0 0 0-.927 1.179 11.8 11.8 0 0 0 3.498 1.874.75.75 0 0 0 .484-1.42 10.3 10.3 0 0 1-3.055-1.633m4.33-9.407c0-.836.668-1.5 1.476-1.5s1.475.664 1.475 1.5-.668 1.5-1.476 1.5a1.49 1.49 0 0 1-1.475-1.5m1.476-3c-1.652 0-2.976 1.35-2.976 3s1.325 3 2.976 3c1.65 0 2.975-1.35 2.975-3s-1.325-3-2.976-3M8.546 17.015c1.79-1.9 5.116-1.97 6.9-.01a.75.75 0 1 0 1.109-1.01c-2.406-2.643-6.746-2.506-9.1-.01a.75.75 0 1 0 1.09 1.03" clip-rule="evenodd" opacity=".4"/></svg>