<svg xmlns="http://www.w3.org/2000/svg" fill="none" viewBox="0 0 24 24"><path fill="currentColor" fill-rule="evenodd" d="M6.75 7a3.25 3.25 0 1 1 6.5 0 3.25 3.25 0 0 1-6.5 0M10 2.25a4.75 4.75 0 1 0 0 9.5 4.75 4.75 0 0 0 0-9.5M5.56 15.943c2.714-1.59 6.166-1.59 8.88 0 .153.09.32.182.492.28.633.352 1.359.758 1.866 1.246.315.304.432.539.45.7.012.114-.007.342-.394.706-.912.855-1.83 1.375-2.935 1.375H6.081c-1.105 0-2.022-.52-2.934-1.375-.388-.364-.407-.592-.394-.706.018-.161.135-.396.45-.7.506-.488 1.233-.894 1.865-1.247.173-.097.34-.19.492-.279m9.64-1.294c-3.184-1.865-7.216-1.865-10.399 0-.1.06-.226.13-.37.208-.632.352-1.604.891-2.27 1.532-.415.4-.824.941-.899 1.615-.08.721.242 1.387.859 1.965 1.05.985 2.318 1.781 3.96 1.781h7.838c1.643 0 2.91-.796 3.96-1.78.617-.579.94-1.245.86-1.966-.076-.674-.485-1.214-.9-1.615-.666-.64-1.638-1.18-2.27-1.532a19 19 0 0 1-.37-.208" clip-rule="evenodd"/><path fill="currentColor" fill-rule="evenodd" d="m19 4.072-.376.757a1.34 1.34 0 0 1-.403.474 1.34 1.34 0 0 1-.566.252h-.003l-.642.108.523.527c.174.176.275.392.328.579s.08.42.027.659v.005l-.127.55.563-.336c.224-.132.471-.176.678-.176.206 0 .455.044.68.179l.559.333-.128-.555a1.36 1.36 0 0 1 .027-.66c.053-.186.154-.402.33-.578l.522-.527-.642-.108a1.35 1.35 0 0 1-.57-.251 1.34 1.34 0 0 1-.405-.475zm1.192-.971c-.195-.396-.583-.851-1.192-.851-.608 0-.996.454-1.192.849l-.001.001-.491.99-.869.146c-.439.074-.963.318-1.142.882-.178.562.106 1.063.419 1.378l.681.687-.193.843c-.099.431-.126 1.11.415 1.508.544.4 1.185.166 1.565-.061L19 8.99l.81.483c.377.225 1.02.463 1.565.062.542-.398.512-1.08.414-1.508l-.194-.844.68-.685.001-.001c.314-.315.6-.818.42-1.38-.18-.564-.704-.807-1.142-.88l-.872-.147z" clip-rule="evenodd" opacity=".4"/></svg>