<svg xmlns="http://www.w3.org/2000/svg" fill="none" viewBox="0 0 24 24"><path fill="currentColor" fill-rule="evenodd" d="M8.25 6.5a3.75 3.75 0 1 1 7.5 0 3.75 3.75 0 0 1-7.5 0M12 1.25a5.25 5.25 0 1 0 0 10.5 5.25 5.25 0 0 0 0-10.5M5.961 16.126c2.367-1.41 5.23-1.738 7.829-.978a.75.75 0 0 0 .42-1.44c-2.989-.873-6.282-.499-9.016 1.13-.116.068-.26.15-.423.241-.712.402-1.79 1.01-2.528 1.733-.462.452-.9 1.047-.98 1.777-.085.776.253 1.504.933 2.15 1.171 1.117 2.577 2.011 4.395 2.011h3.91a.75.75 0 0 0 0-1.5H6.59c-1.272 0-2.325-.61-3.36-1.596-.451-.43-.497-.724-.477-.902.025-.225.178-.516.538-.868.58-.568 1.412-1.04 2.125-1.444q.291-.164.544-.314" clip-rule="evenodd"/><path fill="currentColor" fill-rule="evenodd" d="M18.73 12.553a2.15 2.15 0 0 1 2.145-.032c.28.155.527.408.807.696l.127.13c.283.287.53.539.68.822a2.23 2.23 0 0 1-.03 2.15c-.16.28-.414.523-.704.802l-.065.063-4.232 4.076-.093.09c-.582.561-1.023.986-1.587 1.206-.565.221-1.174.205-1.974.183l-.128-.003-.126-.004h-.026a3 3 0 0 1-.405-.03 1.02 1.02 0 0 1-.617-.328 1.04 1.04 0 0 1-.25-.643c-.007-.135.005-.29.014-.409l.002-.025.012-.156.009-.109c.054-.703.095-1.227.304-1.708.21-.482.564-.866 1.038-1.378l.073-.08 4.178-4.526.062-.067c.272-.296.512-.556.787-.72m1.416 1.28a.65.65 0 0 0-.648.01c-.061.035-.142.11-.514.514l-4.178 4.527c-.578.627-.742.818-.838 1.038s-.125.473-.19 1.316c.937.024 1.213.016 1.455-.079.249-.097.466-.287 1.184-.98l4.232-4.075c.394-.38.47-.463.506-.527a.73.73 0 0 0 .01-.703c-.035-.066-.108-.152-.49-.543-.385-.392-.467-.465-.529-.499" clip-rule="evenodd" opacity=".4"/></svg>