<svg xmlns="http://www.w3.org/2000/svg" fill="none" viewBox="0 0 24 24"><path fill="currentColor" fill-rule="evenodd" d="M12.057 1.75h-.114c-2.19 0-3.912 0-5.255.18-1.377.186-2.469.573-3.327 1.43-.858.86-1.245 1.951-1.43 3.328-.181 1.343-.181 3.064-.181 5.255v.114c0 2.19 0 3.912.18 5.255.186 1.377.573 2.469 1.43 3.327.86.858 1.951 1.245 3.328 1.43 1.343.181 3.064.181 5.255.181h.114c2.19 0 3.912 0 5.255-.18 1.377-.186 2.469-.573 3.327-1.43.858-.86 1.245-1.951 1.43-3.328.181-1.343.181-3.064.181-5.255v-.114c0-2.19 0-3.912-.18-5.255-.186-1.377-.573-2.469-1.43-3.327-.86-.858-1.951-1.245-3.328-1.43-1.343-.181-3.064-.181-5.255-.181M4.422 4.422c.533-.533 1.256-.842 2.466-1.005C8.12 3.252 9.74 3.25 12 3.25s3.88.002 5.112.167c1.21.163 1.933.472 2.466 1.005s.842 1.256 1.005 2.466q.081.61.116 1.362H3.301c.024-.503.061-.954.116-1.362.163-1.21.472-1.933 1.005-2.466M3.259 9.75c-.009.672-.009 1.417-.009 2.25 0 2.26.002 3.88.167 5.112.163 1.21.472 1.933 1.005 2.466s1.256.842 2.466 1.005c1.232.165 2.852.167 5.112.167s3.88-.002 5.112-.167c1.21-.163 1.933-.471 2.466-1.005s.842-1.256 1.005-2.466c.165-1.232.167-2.852.167-5.112 0-.833 0-1.578-.009-2.25zM6 6a1 1 0 0 1 1-1h.009a1 1 0 1 1 0 2H7a1 1 0 0 1-1-1m5-1a1 1 0 1 0 0 2h.009a1 1 0 1 0 0-2z" clip-rule="evenodd"/><path fill="currentColor" fill-rule="evenodd" d="M7.518 12.41a.75.75 0 1 0-1.257-.82A6.2 6.2 0 0 0 5.25 15a6.23 6.23 0 0 0 1.011 3.41.75.75 0 1 0 1.257-.82A4.7 4.7 0 0 1 6.75 15c0-.957.282-1.846.768-2.59m10.22-.82a.75.75 0 1 0-1.256.82c.486.744.768 1.633.768 2.59s-.282 1.846-.768 2.59a.75.75 0 1 0 1.257.82A6.2 6.2 0 0 0 18.75 15a6.2 6.2 0 0 0-1.011-3.41m-7.208.88a.75.75 0 1 0-1.06 1.06L10.94 15l-1.47 1.47a.75.75 0 1 0 1.06 1.06L12 16.06l1.47 1.47a.75.75 0 1 0 1.06-1.06L13.06 15l1.47-1.47a.75.75 0 1 0-1.06-1.06L12 13.94z" clip-rule="evenodd" opacity=".4"/></svg>