<svg xmlns="http://www.w3.org/2000/svg" fill="none" viewBox="0 0 24 24"><path fill="currentColor" d="M17.356 22.75a.75.75 0 0 1-.75-.75c0-1.091.14-1.975.838-3.009.311-.448.654-.958.871-1.454q.065-.154.147-.316c.267-.547.714-1.462.714-3.721 0-.114-.03-2.497-1.5-3.108V11a.75.75 0 0 1-1.5 0v-1c0-.689-.56-1.25-1.25-1.25h-.428l-.334 1.881a.75.75 0 0 1-1.477-.261l1.19-6.71a.77.77 0 0 0-.174-.635.76.76 0 0 0-.588-.274.77.77 0 0 0-.752.582l-1.71 6.85a.75.75 0 1 1-1.455-.363l1.71-6.85a2.27 2.27 0 0 1 2.208-1.718 2.28 2.28 0 0 1 2.24 2.665l-.59 3.334h.161c1.077 0 2.012.622 2.463 1.527 2.586.306 3.287 3.169 3.287 4.723 0 2.605-.563 3.759-.866 4.378a5 5 0 0 0-.11.237l-.007.015c-.27.622-.664 1.208-1.01 1.708-.485.717-.577 1.314-.577 2.162a.75.75 0 0 1-.75.75z"/><path fill="currentColor" d="M7.918 22.75h-.034a.75.75 0 0 1-.716-.783c.057-1.279-.1-1.703-.12-1.752l-.031-.058-.021-.045c-.141-.239-.933-1.236-1.69-2.125l-.026-.033c-1.564-2.062-2.351-3.433-2.032-4.776q.087-.35.238-.708l.007-.016c.397-.886 1.468-2.067 2.01-2.633l-.985-5.773c-.213-1.307.502-2.429 1.739-2.734a2.2 2.2 0 0 1 1.73.323c.518.341.872.85.974 1.4l.956 3.893.915-3.72a2.22 2.22 0 0 1 .96-1.486 2.4 2.4 0 0 1 1.882-.32c1.223.302 1.856 1.31 1.654 2.632l-.003.018-.574 3.23a2.8 2.8 0 0 1 .944.11c.725.214 1.312.718 1.685 1.44q.179-.006.368.03c.997.182 2.57 1.332 2.84 3.752.275 1.567-.123 3.54-.361 4.254-.32.98-1.207 2.553-1.53 2.954-.6.817-.59 1.504-.583 2.007v.152a.75.75 0 0 1-1.5 0v-.132c-.008-.596-.023-1.705.889-2.934l.037-.046c.157-.195.979-1.6 1.263-2.47.208-.626.52-2.356.305-3.544l-.008-.054c-.14-1.312-.794-1.96-1.07-2.179a1.8 1.8 0 0 0-.328-.209c0 .258-.016.468-.024.587l-.003.048a.75.75 0 0 1-1.5-.017q0-.032.007-.134a6 6 0 0 0-.002-.979l-.003-.033a1 1 0 0 0-.024-.095l-.025-.092q-.28-.694-.86-.867a1.4 1.4 0 0 0-.796.01l-.33 1.851a.75.75 0 1 1-1.476-.263l1.178-6.63c.102-.686-.194-.857-.53-.94a.9.9 0 0 0-.696.114.72.72 0 0 0-.314.508l-.012.06-1.65 6.709a.75.75 0 0 1-1.456 0l-1.69-6.88-.011-.054c-.025-.146-.152-.314-.324-.427a.7.7 0 0 0-.548-.119c-.48.118-.705.494-.617 1.031l1.047 6.135.003.016.598 3.441a.75.75 0 1 1-1.477.257l-.34-1.95c-.437.517-.81 1.023-.963 1.361a3.4 3.4 0 0 0-.16.472c-.154.652.32 1.603 1.757 3.498 1.014 1.192 1.638 1.994 1.86 2.391.286.45.402 1.327.344 2.613a.75.75 0 0 1-.75.716zm-.865-2.53.006.01zm10.624-9.19v.013z" opacity=".4"/></svg>