<svg xmlns="http://www.w3.org/2000/svg" fill="none" viewBox="0 0 24 24"><path fill="currentColor" fill-rule="evenodd" d="M15.064 6.38c1.154.404 1.95 1.656 1.95 3.097a7.3 7.3 0 0 1-.183 1.55.75.75 0 1 1-1.465-.32c.097-.445.147-.859.147-1.23 0-.936-.508-1.528-.945-1.682a.73.73 0 0 0-.624.057c-.22.123-.5.401-.744.972-.184.536-.244 1.268.03 1.927.261.63.874 1.31 2.278 1.687.649.174 1.468.282 2.492.282a.75.75 0 1 1 0 1.5c-.852 0-1.604-.067-2.267-.193-.793 1.596-1.859 3.108-2.891 4.114a2.09 2.09 0 0 1-2.995-.044c-1.352-1.401-2.242-3.393-2.797-5.26-.556-1.876-.8-3.718-.8-4.897a.75.75 0 0 1 1.5 0c0 1.015.217 2.714.738 4.47.524 1.764 1.326 3.493 2.438 4.645a.593.593 0 0 0 .869.012c.844-.823 1.76-2.09 2.473-3.467-1.263-.524-2.036-1.34-2.424-2.274-.452-1.09-.332-2.225-.051-3.021l.007-.02.008-.02c.334-.798.81-1.388 1.401-1.721a2.23 2.23 0 0 1 1.855-.164" clip-rule="evenodd" opacity=".4"/><path fill="currentColor" fill-rule="evenodd" d="M11.943 1.75h.114c2.19 0 3.912 0 5.255.18 1.377.186 2.469.573 3.327 1.43.858.86 1.245 1.951 1.43 3.328.181 1.343.181 3.064.181 5.255v.114c0 2.19 0 3.912-.18 5.255-.186 1.377-.573 2.469-1.43 3.327-.86.858-1.951 1.245-3.328 1.43-1.343.181-3.064.181-5.255.181h-.114c-2.19 0-3.912 0-5.255-.18-1.377-.186-2.469-.573-3.327-1.43-.858-.86-1.245-1.951-1.43-3.328-.181-1.343-.181-3.064-.181-5.255v-.114c0-2.19 0-3.912.18-5.255.186-1.377.573-2.469 1.43-3.327.86-.858 1.951-1.245 3.328-1.43 1.343-.181 3.064-.181 5.255-.181M6.888 3.417c-1.21.163-1.933.472-2.466 1.005S3.58 5.678 3.417 6.888C3.252 8.12 3.25 9.74 3.25 12s.002 3.88.167 5.112c.163 1.21.472 1.933 1.005 2.466s1.256.842 2.466 1.005c1.232.165 2.852.167 5.112.167s3.88-.002 5.112-.167c1.21-.163 1.933-.471 2.466-1.005s.842-1.256 1.005-2.466c.165-1.232.167-2.852.167-5.112s-.002-3.88-.167-5.112c-.163-1.21-.471-1.933-1.005-2.466s-1.256-.842-2.466-1.005C15.88 3.252 14.26 3.25 12 3.25s-3.88.002-5.112.167" clip-rule="evenodd"/></svg>