<svg xmlns="http://www.w3.org/2000/svg" fill="none" viewBox="0 0 24 24"><path fill="currentColor" fill-rule="evenodd" d="M11.97 4.241a4.47 4.47 0 0 0-1.077 2.881c0 2.583 1.028 4.043 2.006 4.87a5.6 5.6 0 0 0 1.376.853 5 5 0 0 0 .578.205h.002a.75.75 0 0 1 .53 1.007c-.799 2.025-2.172 3.454-3.033 4.257a3 3 0 0 1-.503.395 1.3 1.3 0 0 1-.714.201c-.558-.014-.946-.42-1.191-.7-1.774-2.014-2.89-4.563-3.522-7.03-.596-2.325-.774-4.623-.643-6.413a3.8 3.8 0 0 0-.954-.133 4 4 0 0 0-1.05.098c-.118 2.174.187 5.136 1.062 8.037.913 3.025 2.42 5.894 4.619 7.744.621.523 1.19.735 1.7.737.507.002 1.069-.204 1.68-.732 2.073-1.79 3.575-4.503 4.53-6.227l.2-.362a.75.75 0 0 1 .896-.346h.001l.008.003.034.012.135.042c.117.037.283.086.479.138.291.079.632.16.96.213a3.2 3.2 0 0 0 .159-.773c.027-.32.006-.581-.04-.738-1.429-.014-3.044-.1-4.384-.623-.707-.275-1.365-.681-1.882-1.285-.52-.607-.864-1.376-.997-2.32-.144-1.022.018-1.88.47-2.494a2.06 2.06 0 0 1 1.846-.85c1.29.103 2.325 1.284 2.244 2.956.34.215.79.36 1.247.45q.23.042.424.065c.222-1.186-.014-2.51-.595-3.59-.678-1.26-1.728-2.039-2.874-2.039-1.818 0-2.996.656-3.727 1.491m7.766 4.93v.75a.75.75 0 0 0 .713-.515c.578-1.76.283-3.766-.557-5.328-.838-1.558-2.312-2.828-4.195-2.828-2.22 0-3.82.82-4.856 2.003-1.017 1.162-1.448 2.625-1.448 3.87 0 3.051 1.244 4.92 2.538 6.015a7 7 0 0 0 1.738 1.08c-.688 1.353-1.653 2.358-2.34 2.998a3 3 0 0 1-.144.128 3 3 0 0 1-.115-.124c-1.573-1.787-2.602-4.099-3.195-6.412-.593-2.314-.736-4.575-.576-6.218.041-.425-.186-.732-.39-.904a1.9 1.9 0 0 0-.629-.333c-.414-.137-.93-.204-1.411-.218-.484-.014-1.004.023-1.432.134a2 2 0 0 0-.65.278c-.203.14-.463.403-.492.814-.173 2.39.146 5.66 1.106 8.841.958 3.175 2.583 6.35 5.09 8.46.811.682 1.707 1.084 2.659 1.088.954.004 1.853-.394 2.667-1.097 2.221-1.918 3.817-4.747 4.767-6.466l.146.04c.426.115 1.004.25 1.547.304.438.044.73-.224.857-.374a2 2 0 0 0 .314-.544c.147-.366.246-.824.284-1.266.038-.434.024-.936-.12-1.365a1.6 1.6 0 0 0-.403-.66 1.24 1.24 0 0 0-.852-.34c-1.472-.01-2.898-.093-3.998-.522-.537-.21-.969-.491-1.288-.864-.315-.368-.553-.862-.65-1.554-.11-.771.044-1.194.192-1.395a.56.56 0 0 1 .52-.244c.364.03 1.03.458.833 1.673a.75.75 0 0 0 .22.66c.665.642 1.6.92 2.272 1.05a8 8 0 0 0 1.243.135h.035z" clip-rule="evenodd" opacity=".4"/><path fill="currentColor" fill-rule="evenodd" d="M6.925 3.692c.194.173.415.479.374.898-.16 1.642-.017 3.904.576 6.217.593 2.314 1.622 4.626 3.195 6.412a2 2 0 0 0 .22.216.75.75 0 0 1-.566 1.39c-.327-.13-.582-.39-.78-.615-1.774-2.014-2.89-4.564-3.522-7.03-.598-2.335-.775-4.642-.642-6.435a3.5 3.5 0 0 0-.967-.169c-.392-.02-.748.012-.981.077l-.054.016c-.127 2.18.175 5.171 1.06 8.1.912 3.025 2.419 5.894 4.618 7.744.581.489 1.113.708 1.59.738a.75.75 0 0 1-.092 1.497c-.884-.055-1.712-.455-2.464-1.087-2.506-2.11-4.13-5.284-5.089-8.46-.96-3.18-1.279-6.45-1.106-8.84.027-.382.237-.657.458-.83.21-.164.456-.262.675-.323.443-.124.974-.154 1.46-.13.488.025 1.004.109 1.417.262.203.074.432.184.62.352" clip-rule="evenodd"/></svg>