<svg xmlns="http://www.w3.org/2000/svg" fill="none" viewBox="0 0 24 24"><path fill="currentColor" fill-rule="evenodd" d="M3.25 18a.75.75 0 0 1 .75-.75q.13 0 .254.011V6.74A3 3 0 0 1 4 6.75a.75.75 0 0 1 0-1.5c.5 0 .871-.278 1.083-.66l.01-.018c.143-.257.264-.474.364-.635.052-.084.11-.17.173-.249.058-.071.157-.181.3-.265a1.3 1.3 0 0 1 .567-.162c.14-.011.309-.011.48-.011h.772l.03-.001.068-.064c.137-.132.33-.326.6-.598.489-.493 1.188-.818 1.806-1.02.625-.204 1.277-.317 1.747-.317s1.122.113 1.748.317c.617.202 1.316.527 1.805 1.02a42 42 0 0 0 .668.662h.03l.178.001h.594c.171 0 .34 0 .48.01a1.3 1.3 0 0 1 .568.163c.142.084.24.194.298.265.064.078.122.165.174.249.1.16.221.378.364.635l.01.018c.212.382.583.66 1.083.66a.75.75 0 0 1 0 1.5q-.126 0-.246-.01v10.52q.12-.01.246-.01a.75.75 0 0 1 0 1.5c-.5 0-.871.278-1.083.66l-.01.018c-.143.257-.264.474-.364.635-.052.084-.11.17-.174.249a1.1 1.1 0 0 1-.298.265 1.3 1.3 0 0 1-.568.162c-.14.011-.309.011-.48.011h-.772l-.03.001-.068.064c-.137.131-.33.326-.6.598-.489.493-1.188.818-1.806 1.02-.625.204-1.277.317-1.747.317s-1.122-.113-1.748-.317c-.617-.202-1.316-.527-1.805-1.02a41 41 0 0 0-.668-.662h-.03l-.178-.001h-.594c-.171 0-.34 0-.48-.01a1.3 1.3 0 0 1-.568-.163 1.1 1.1 0 0 1-.299-.265 3 3 0 0 1-.173-.249c-.1-.16-.221-.378-.364-.635l-.01-.018c-.212-.382-.583-.66-1.083-.66a.75.75 0 0 1-.75-.75m15.004-.112a2.9 2.9 0 0 0-.648.793c-.147.265-.247.443-.323.567l-.042.001-.241.001h-.589c-.125 0-.25 0-.354.006a1.3 1.3 0 0 0-.43.09c-.14.058-.253.153-.297.19l-.002.001a5 5 0 0 0-.214.196q-.227.22-.617.614l-.008.01c-.246.247-.685.48-1.208.65-.514.168-1.006.243-1.281.243s-.767-.075-1.281-.243c-.523-.17-.962-.403-1.208-.65l-.008-.01q-.39-.393-.617-.614a5 5 0 0 0-.214-.196H8.67a1.2 1.2 0 0 0-.297-.191 1.3 1.3 0 0 0-.43-.09c-.104-.006-.229-.006-.354-.006H7l-.242-.001h-.041a18 18 0 0 1-.323-.568 2.9 2.9 0 0 0-.64-.786V6.105c.266-.228.481-.5.64-.786.147-.265.247-.443.323-.567l.041-.001L7 4.75h.589c.125 0 .25 0 .354-.006.106-.006.266-.021.43-.09.14-.059.253-.153.297-.19l.002-.001a5 5 0 0 0 .214-.196q.227-.22.617-.615l.008-.008c.246-.248.685-.48 1.208-.651.514-.168 1.006-.243 1.281-.243s.767.075 1.281.243c.523.17.962.403 1.208.65l.008.01q.39.393.617.614c.076.073.15.14.214.196h.002c.044.038.156.132.297.191.164.069.324.084.43.09.104.006.229.006.354.006H17l.241.001h.042c.076.125.176.303.323.568.16.288.378.563.648.793zm-1.05 1.48q-.006.007 0-.001zm-10.408 0 .002.003zM17.205 4.633l-.001-.001z" clip-rule="evenodd"/><path fill="currentColor" fill-rule="evenodd" d="M12.004 6.75a3.25 3.25 0 1 0 0 6.5 3.25 3.25 0 0 0 0-6.5M7.254 10a4.75 4.75 0 1 1 5.5 4.691v2.559h.25a.75.75 0 0 1 0 1.5h-2a.75.75 0 0 1 0-1.5h.25v-2.559a4.75 4.75 0 0 1-4-4.691m6.28-1.53a.75.75 0 0 1 0 1.06l-1 1a.75.75 0 1 1-1.06-1.06l1-1a.75.75 0 0 1 1.06 0" clip-rule="evenodd" opacity=".4"/></svg>