<svg xmlns="http://www.w3.org/2000/svg" fill="none" viewBox="0 0 24 24"><path fill="currentColor" fill-rule="evenodd" d="M10.943 2.25h2.114c2.073 0 3.705 0 4.98.171 1.31.176 2.354.545 3.175 1.367.822.821 1.19 1.866 1.367 3.174.171 1.276.171 2.908.171 4.981v.114c0 2.073 0 3.705-.171 4.98-.176 1.31-.545 2.354-1.367 3.175-.821.822-1.866 1.19-3.174 1.367-1.276.171-2.908.171-4.981.171h-2.114c-2.073 0-3.705 0-4.98-.171-1.31-.176-2.354-.545-3.175-1.367-.822-.821-1.19-1.866-1.367-3.174-.171-1.276-.171-2.908-.171-4.981v-.114c0-2.073 0-3.705.171-4.98.176-1.31.545-2.354 1.367-3.175.821-.822 1.866-1.19 3.174-1.367 1.276-.171 2.908-.171 4.981-.171m-4.78 1.658c-1.143.154-1.818.444-2.315.94-.496.497-.786 1.172-.94 2.314C2.752 8.326 2.75 9.857 2.75 12s.002 3.674.158 4.838c.154 1.142.444 1.817.94 2.314.497.496 1.172.786 2.314.94 1.164.156 2.695.158 4.838.158h2c2.143 0 3.674-.002 4.838-.158 1.142-.154 1.817-.444 2.314-.94.496-.497.786-1.172.94-2.314.156-1.164.158-2.696.158-4.838s-.002-3.674-.158-4.838c-.154-1.142-.444-1.817-.94-2.314-.497-.496-1.172-.786-2.314-.94-1.164-.156-2.696-.158-4.838-.158h-2c-2.143 0-3.674.002-4.838.158" clip-rule="evenodd"/><path fill="currentColor" fill-rule="evenodd" d="M5.693 9.316a.75.75 0 0 1 .992.377l1.754 3.912.061.136.061-.136 1.755-3.912a.75.75 0 1 1 1.368.614L9.93 14.219l-.02.043c-.145.325-.285.638-.427.864-.132.211-.432.624-.983.624s-.85-.413-.983-.624c-.141-.226-.281-.539-.427-.864l-.02-.043-1.754-3.912a.75.75 0 0 1 .377-.991m9.273-.066H16.5a2.25 2.25 0 0 1 1.077 4.226l.594 1.188a.75.75 0 0 1-1.342.671l-.792-1.585H14.75V15a.75.75 0 1 1-1.5 0v-4.034c0-.206 0-.427.025-.615.03-.219.105-.5.341-.735.236-.236.516-.312.736-.341.187-.025.409-.025.614-.025m-.216 3h1.75a.75.75 0 1 0 0-1.5H15l-.249.001z" clip-rule="evenodd" opacity=".4"/></svg>