<svg xmlns="http://www.w3.org/2000/svg" fill="none" viewBox="0 0 24 24"><path fill="currentColor" fill-rule="evenodd" d="M11.943 1.75h.114c2.19 0 3.912 0 5.255.18 1.377.186 2.469.573 3.327 1.43.858.86 1.245 1.951 1.43 3.328.181 1.343.181 3.064.181 5.255v.114c0 2.19 0 3.912-.18 5.255-.186 1.377-.573 2.469-1.43 3.327-.86.858-1.951 1.245-3.328 1.43-1.343.181-3.064.181-5.255.181h-.114c-2.19 0-3.912 0-5.255-.18-1.377-.186-2.469-.573-3.327-1.43-.858-.86-1.245-1.951-1.43-3.328-.181-1.343-.181-3.064-.181-5.255v-.114c0-2.19 0-3.912.18-5.255.186-1.377.573-2.469 1.43-3.327.86-.858 1.951-1.245 3.328-1.43 1.343-.181 3.064-.181 5.255-.181M6.888 3.417c-1.21.163-1.933.472-2.466 1.005S3.58 5.678 3.417 6.888C3.252 8.12 3.25 9.74 3.25 12s.002 3.88.167 5.112c.163 1.21.472 1.933 1.005 2.466s1.256.842 2.466 1.005c1.232.165 2.852.167 5.112.167s3.88-.002 5.112-.167c1.21-.163 1.933-.471 2.466-1.005s.842-1.256 1.005-2.466c.165-1.232.167-2.852.167-5.112s-.002-3.88-.167-5.112c-.163-1.21-.471-1.933-1.005-2.466s-1.256-.842-2.466-1.005C15.88 3.252 14.26 3.25 12 3.25s-3.88.002-5.112.167" clip-rule="evenodd"/><path fill="currentColor" fill-rule="evenodd" d="M17.682 7.272a.75.75 0 0 1 .546.91 6.56 6.56 0 0 1-2.478 3.732c.341.208.686.463 1.008.765.807.761 1.492 1.864 1.492 3.321a.75.75 0 0 1-1.5 0c0-.942-.432-1.673-1.021-2.23a4.9 4.9 0 0 0-1.546-.966 7 7 0 0 1-.933.313V16a.75.75 0 0 1-.932.728C10.126 16.18 5.75 13.67 5.75 8a.75.75 0 1 1 1.5 0c0 4.01 2.605 6.123 4.5 6.949V8.75h-.25a.75.75 0 0 1 0-1.5h1a.75.75 0 0 1 .75.75v3.553q.277-.093.582-.233c1.176-.546 2.468-1.612 2.94-3.502a.75.75 0 0 1 .91-.546" clip-rule="evenodd" opacity=".4"/></svg>