<svg xmlns="http://www.w3.org/2000/svg" fill="none" viewBox="0 0 24 24"><path fill="currentColor" fill-rule="evenodd" d="M8.936 2.463a.75.75 0 0 1-.712.786c-2.079.103-3.13.41-3.847 1.128-.717.717-1.025 1.768-1.128 3.847a.75.75 0 0 1-1.498-.074c.105-2.12.42-3.688 1.565-4.834S6.03 1.856 8.15 1.751a.75.75 0 0 1 .786.712m6.128 0a.75.75 0 0 1 .786-.712c2.12.105 3.688.42 4.834 1.565s1.46 2.713 1.565 4.834a.75.75 0 0 1-1.498.074c-.103-2.079-.41-3.13-1.128-3.847-.717-.717-1.768-1.025-3.847-1.128a.75.75 0 0 1-.712-.786M2.463 15.064a.75.75 0 0 1 .786.712c.103 2.079.41 3.13 1.128 3.847.717.717 1.768 1.025 3.847 1.128a.75.75 0 0 1-.074 1.498c-2.12-.105-3.688-.42-4.834-1.565s-1.46-2.713-1.565-4.834a.75.75 0 0 1 .712-.786m19.074 0a.75.75 0 0 1 .712.786c-.105 2.12-.42 3.688-1.565 4.834s-2.713 1.46-4.834 1.565a.75.75 0 0 1-.074-1.498c2.079-.103 3.13-.41 3.847-1.128.717-.717 1.025-1.768 1.128-3.847a.75.75 0 0 1 .786-.712" clip-rule="evenodd"/><path fill="currentColor" fill-rule="evenodd" d="M12 6.25a.75.75 0 0 1 .75.75v10a.75.75 0 0 1-1.5 0V7a.75.75 0 0 1 .75-.75m-4 2a.75.75 0 0 1 .75.75v6a.75.75 0 0 1-1.5 0V9A.75.75 0 0 1 8 8.25m8 0a.75.75 0 0 1 .75.75v6a.75.75 0 0 1-1.5 0V9a.75.75 0 0 1 .75-.75" clip-rule="evenodd" opacity=".4"/></svg>