<svg xmlns="http://www.w3.org/2000/svg" fill="none" viewBox="0 0 24 24"><path fill="currentColor" fill-rule="evenodd" d="M11.905 5.165c-.607.467-1.38 1.253-2.487 2.383-.588.601-1.116 1.038-1.758 1.304-.64.265-1.322.328-2.154.328-.717 0-1.198.001-1.564.04-.353.036-.515.1-.622.174-.291.198-.446.498-.519.96-.06.375-.053.763-.047 1.198q.004.216.005.45-.001.233-.005.449c-.006.435-.012.823.047 1.199.073.461.228.761.519.96.107.073.269.137.622.174.366.038.847.039 1.564.039.832 0 1.513.063 2.154.328.642.266 1.17.703 1.758 1.304 1.107 1.13 1.88 1.916 2.487 2.383.634.486.824.418.878.395.062-.026.247-.128.359-.934.106-.77.108-1.887.108-3.484V9.188c0-1.597-.002-2.713-.108-3.484-.112-.806-.297-.908-.36-.934-.053-.023-.243-.091-.877.395m-.913-1.19c.686-.527 1.504-.955 2.375-.587.863.365 1.14 1.245 1.26 2.11.123.887.123 2.108.123 3.626v5.755c0 1.519 0 2.74-.123 3.626-.12.865-.397 1.745-1.26 2.11-.871.369-1.689-.06-2.375-.587-.703-.54-1.55-1.404-2.6-2.476l-.045-.048c-.54-.55-.898-.817-1.26-.967-.365-.15-.808-.214-1.58-.214h-.04c-.668 0-1.227 0-1.68-.047-.475-.05-.916-.157-1.313-.428-.756-.515-1.045-1.27-1.154-1.964-.082-.518-.073-1.086-.065-1.543a21 21 0 0 0 0-.678c-.008-.458-.017-1.026.065-1.544.11-.694.398-1.449 1.154-1.964.397-.271.838-.378 1.313-.428.453-.047 1.012-.047 1.68-.047h.04c.772 0 1.215-.064 1.58-.214.362-.15.72-.416 1.26-.967l.046-.047c1.05-1.072 1.896-1.937 2.599-2.476" clip-rule="evenodd"/><path fill="currentColor" fill-rule="evenodd" d="M19.5 8.75a.75.75 0 0 1 .75.75v1.75H22a.75.75 0 0 1 0 1.5h-1.75v1.75a.75.75 0 0 1-1.5 0v-1.75H17a.75.75 0 0 1 0-1.5h1.75V9.5a.75.75 0 0 1 .75-.75" clip-rule="evenodd" opacity=".4"/></svg>