<svg xmlns="http://www.w3.org/2000/svg" fill="none" viewBox="0 0 24 24"><path fill="currentColor" fill-rule="evenodd" d="M21.47 22.53a.75.75 0 0 0 1.061 0 .75.75 0 0 0 0-1.06l-7.936-7.936a.8.8 0 0 0-.134-.134L8.555 7.494a.7.7 0 0 0-.136-.136L2.531 1.47A.75.75 0 0 0 1.47 2.53l5.117 5.118c-.272.02-.604.023-1.018.024h-.067l-.357-.003h-.001c-1.093-.015-2.59-.036-3.428 1.247-.465.702-.465 1.547-.465 3.077v.001c0 1.531 0 2.375.462 3.074.84 1.286 2.338 1.265 3.43 1.25h.001l.122-.001.235-.002c1.417 0 1.869.188 2.844 1.182 2.014 2.056 3.192 3.257 4.333 3.257l.002-.001c.227 0 .452-.048.683-.146 1.15-.484 1.348-2.121 1.382-4.801zm-8.218-8.217L7.834 8.895c-.652.277-1.39.277-2.265.277h-.067q-.184 0-.374-.004h-.004c-1.067-.015-1.792.017-2.155.571-.218.329-.218 1.013-.218 2.253v.001c0 1.241 0 1.924.216 2.25.365.558 1.09.589 2.157.574h.007l.37-.004c1.818 0 2.66.351 3.916 1.632l.002.002c1.562 1.593 2.911 2.969 3.359 2.778.012-.01.252-.203.377-1.464.09-.912.097-2.09.097-3.448" clip-rule="evenodd"/><path fill="currentColor" fill-rule="evenodd" d="M13.25 9.5c0 .414.336.75.75.75v-.001a.75.75 0 0 0 .75-.75v-.286c.002-3.388.002-5.255-1.357-5.828-1.295-.548-2.395.554-3.92 2.08l-.003.004a.75.75 0 1 0 1.06 1.06l.004-.002c.807-.809 1.91-1.913 2.275-1.76.022.01.22.119.336 1.003.105.817.105 1.976.105 3.444zm7.339 7.598a.75.75 0 0 1-.585-1.219c.815-1.017 1.245-2.185 1.245-3.379 0-1.45-.614-2.822-1.776-3.965a.75.75 0 0 1 1.053-1.07c1.434 1.411 2.224 3.2 2.224 5.035 0 1.538-.545 3.031-1.575 4.317a.75.75 0 0 1-.586.281m-2.79-2.346a.75.75 0 0 1-.714-.979c.11-.342.165-.696.165-1.053 0-.807-.287-1.582-.83-2.243a.75.75 0 1 1 1.16-.952c.766.932 1.17 2.037 1.17 3.195a5 5 0 0 1-.236 1.509.75.75 0 0 1-.714.522" clip-rule="evenodd" opacity=".4"/></svg>