<svg xmlns="http://www.w3.org/2000/svg" fill="none" viewBox="0 0 24 24"><path fill="currentColor" d="M6.975 12.25H7a.75.75 0 0 1 .75.75c0 2.221 1.103 3.783 2.252 4.817A9 9 0 0 0 12 19.176q.168-.082.412-.218a9 9 0 0 0 1.586-1.14c1.15-1.034 2.252-2.596 2.252-4.817a.75.75 0 0 1 .756-.75h.026c.453.004.83.007 1.14.032.323.025.628.076.922.204.648.28 1.163.8 1.438 1.45.125.295.174.6.196.923.022.31.022.688.022 1.14v6a.75.75 0 0 1-1.5 0v-5.974c0-.485 0-.81-.018-1.062-.017-.245-.048-.364-.081-.443a1.25 1.25 0 0 0-.654-.66c-.078-.033-.197-.065-.442-.084a7 7 0 0 0-.34-.017c-.227 2.376-1.49 4.07-2.713 5.173a10.6 10.6 0 0 1-2.467 1.65l-.18.082-.077.031a.75.75 0 0 1-.557 0l-.075-.032-.18-.081a10.6 10.6 0 0 1-2.467-1.65c-1.226-1.103-2.49-2.8-2.714-5.179a7 7 0 0 0-.328.013c-.241.017-.358.046-.435.078a1.25 1.25 0 0 0-.677.677c-.032.077-.061.194-.078.435-.017.247-.017.567-.017 1.043v6a.75.75 0 0 1-1.5 0v-6.025c0-.445 0-.816.02-1.12.022-.318.069-.617.19-.907a2.75 2.75 0 0 1 1.488-1.489c.29-.12.59-.167.907-.188.304-.021.675-.021 1.12-.021" opacity=".4"/><path fill="currentColor" fill-rule="evenodd" d="M14.75 12.5a.75.75 0 0 0-1.085-.671L12 12.661l-1.665-.832a.75.75 0 0 0-1.085.671v2a.75.75 0 0 0 1.085.67L12 14.339l1.665.833a.75.75 0 0 0 1.085-.671zM12 1.25A4.25 4.25 0 0 0 7.75 5.5v1a4.25 4.25 0 0 0 8.5 0v-1A4.25 4.25 0 0 0 12 1.25M9.25 5.5a2.75 2.75 0 1 1 5.5 0v1a2.75 2.75 0 1 1-5.5 0z" clip-rule="evenodd"/></svg>