<svg xmlns="http://www.w3.org/2000/svg" fill="none" viewBox="0 0 24 24"><path fill="currentColor" fill-rule="evenodd" d="M17.5 13.25a.75.75 0 1 1 0 1.5.75.75 0 0 1 0-1.5m2.25.75a2.25 2.25 0 1 0-4.5 0 2.25 2.25 0 0 0 4.5 0" clip-rule="evenodd" opacity=".4"/><path fill="currentColor" fill-rule="evenodd" d="M15.582 3.827c-.262-.07-.604-.077-1.582-.077h-4c-1.907 0-3.261.002-4.29.14-1.005.135-1.585.389-2.008.812s-.677 1.003-.812 2.009C2.752 7.739 2.75 9.093 2.75 11v2c0 1.907.002 3.262.14 4.29.135 1.005.389 1.585.812 2.008s1.003.677 2.009.812c1.028.139 2.382.14 4.289.14h6c1.435 0 2.436-.002 3.192-.103.734-.099 1.122-.28 1.399-.556.277-.277.457-.665.556-1.4.101-.754.103-1.755.103-3.191v-2c0-1.435-.002-2.437-.103-3.192-.099-.734-.28-1.122-.556-1.399-.277-.277-.665-.457-1.4-.556-.755-.101-1.756-.103-3.191-.103h-6a.75.75 0 0 1 0-1.5h6.055q.633 0 1.191.003c-.006-.437-.024-.655-.073-.835a2.25 2.25 0 0 0-1.59-1.591m3.166 2.476c-.006-.518-.03-.918-.126-1.274a3.75 3.75 0 0 0-2.651-2.651c-.48-.128-1.037-.128-1.855-.128H9.944c-1.838 0-3.294 0-4.433.153-1.172.158-2.121.49-2.87 1.238-.748.749-1.08 1.698-1.238 2.87-.153 1.14-.153 2.595-.153 4.433v2.112c0 1.838 0 3.294.153 4.433.158 1.172.49 2.121 1.238 2.87.749.748 1.698 1.08 2.87 1.238 1.14.153 2.595.153 4.433.153h6.11c1.369 0 2.47 0 3.338-.116.9-.122 1.658-.38 2.26-.982s.86-1.36.982-2.26c.116-.867.116-1.97.116-3.337v-2.11c0-1.367 0-2.47-.116-3.337-.122-.9-.38-1.658-.982-2.26s-1.36-.86-2.26-.981a10 10 0 0 0-.644-.064" clip-rule="evenodd"/></svg>