<svg xmlns="http://www.w3.org/2000/svg" fill="none" viewBox="0 0 24 24"><path fill="currentColor" fill-rule="evenodd" d="M19.547 4.251a.75.75 0 0 1 .702.796l-.62 9.906v.002l-.062.922a.75.75 0 0 1-1.497-.106l.062-.913v-.001l.62-9.904a.75.75 0 0 1 .795-.702m-15.093 0a.75.75 0 0 1 .795.703l.604 9.895c.079 1.223.135 2.083.246 2.748.109.652.26 1.041.483 1.343.254.344.584.637.97.859.347.2.787.321 1.497.385.721.065 1.645.066 2.944.066H14.5a.75.75 0 0 1 0 1.5h-2.544c-1.254 0-2.245 0-3.041-.072-.815-.073-1.497-.227-2.11-.578a4.7 4.7 0 0 1-1.43-1.268c-.418-.567-.627-1.215-.756-1.988-.125-.75-.185-1.686-.26-2.859l-.003-.04v-.003l-.605-9.896a.75.75 0 0 1 .703-.795" clip-rule="evenodd" opacity=".4"/><path fill="currentColor" fill-rule="evenodd" d="M11.53 3.307a1.25 1.25 0 0 1 1.04-.557h4.488a1.25 1.25 0 0 1 1.186.855l.215.645h-7.558zm8.137-.177.374 1.12H21a.75.75 0 0 1 0 1.5H3a.75.75 0 0 1 0-1.5h5.43a1.25 1.25 0 0 0 1.04-.557l.812-1.218A2.75 2.75 0 0 1 12.57 1.25h4.488a2.75 2.75 0 0 1 2.61 1.88M14.75 19a2.25 2.25 0 1 0 4.5 0 2.25 2.25 0 0 0-4.5 0M17 22.75a3.75 3.75 0 1 1 0-7.5 3.75 3.75 0 0 1 0 7.5" clip-rule="evenodd"/></svg>