<svg xmlns="http://www.w3.org/2000/svg" fill="none" viewBox="0 0 24 24"><path fill="currentColor" fill-rule="evenodd" d="M14.169 3.792a.71.71 0 0 0-.905.4l-2.148 5.755a.75.75 0 1 1-1.405-.524l1.487-3.984v-.001a.654.654 0 0 0-.414-.842.71.71 0 0 0-.905.4l-2.632 7.05a.75.75 0 0 1-1.38.061l-.934-1.962c-.215-.452-.803-.639-1.265-.364a.83.83 0 0 0-.381.958l1.4 4.526c.327 1.06.461 1.478.666 1.835a4 4 0 0 0 1.364 1.408c.357.221.782.376 1.845.753.993.352 1.705.605 2.28.77.57.162.958.225 1.3.218a4.13 4.13 0 0 0 3.007-1.37c.221-.25.42-.578.659-1.108.24-.536.5-1.231.863-2.202l1.542-4.132.015-.037.482-1.29a.654.654 0 0 0-.415-.843.71.71 0 0 0-.904.4l-.826 2.214a.75.75 0 0 1-1.406-.525l1.488-3.984a.654.654 0 0 0-.415-.842.71.71 0 0 0-.904.4l-1.488 3.984a.75.75 0 1 1-1.405-.525l1.487-3.984.661-1.77a.654.654 0 0 0-.414-.843m1.876 1.196c.307-1.09-.297-2.227-1.375-2.61-1.078-.382-2.285.116-2.754 1.152a2.2 2.2 0 0 0-.63-.347c-1.126-.4-2.39.16-2.812 1.289L6.46 9.865 6.287 9.5C5.682 8.23 4.1 7.777 2.9 8.492a2.33 2.33 0 0 0-1.046 2.69l1.4 4.526.027.089c.291.942.473 1.53.77 2.049a5.5 5.5 0 0 0 1.876 1.937c.51.316 1.098.524 2.047.861l.086.03.024.01c.964.341 1.72.61 2.346.789.637.182 1.187.286 1.739.276a5.63 5.63 0 0 0 4.1-1.874c.366-.41.64-.893.907-1.49.263-.585.54-1.326.89-2.267l1.208-3.233.015-.037.826-2.214c.425-1.139-.184-2.378-1.318-2.78a2.2 2.2 0 0 0-.69-.128c.308-1.09-.296-2.228-1.373-2.61a2.2 2.2 0 0 0-.69-.128" clip-rule="evenodd"/><path fill="currentColor" fill-rule="evenodd" d="M21.093 13.289a.75.75 0 0 1 .95.474c.666 1.995-.322 4.218-2.283 4.941a.75.75 0 0 1-.519-1.408c1.153-.424 1.805-1.782 1.379-3.058a.75.75 0 0 1 .473-.95" clip-rule="evenodd" opacity=".4"/></svg>