<svg xmlns="http://www.w3.org/2000/svg" fill="none" viewBox="0 0 24 24"><path fill="currentColor" fill-rule="evenodd" d="M12 2.75A9.25 9.25 0 0 0 2.75 12a9.2 9.2 0 0 0 .725 3.596l.007.017c.133.316.244.577.322.791s.148.44.164.672c.026.378-.08.77-.2 1.221l-.027.098-.681 2.545 2.545-.68q.049-.015.098-.027c.45-.121.843-.227 1.22-.2.234.015.459.085.673.163s.475.189.79.322l.018.007A9.2 9.2 0 0 0 12 21.25a9.25 9.25 0 1 0 0-18.5M1.25 12C1.25 6.063 6.063 1.25 12 1.25S22.75 6.063 22.75 12 17.937 22.75 12 22.75c-1.48 0-2.894-.3-4.18-.843a19 19 0 0 0-.74-.302 1.2 1.2 0 0 0-.26-.076c-.094-.007-.221.017-.827.18l-3.8 1.015a.75.75 0 0 1-.917-.918l1.016-3.799c.162-.606.186-.733.18-.827a1.2 1.2 0 0 0-.076-.26 19 19 0 0 0-.303-.74A10.7 10.7 0 0 1 1.25 12" clip-rule="evenodd"/><path fill="currentColor" fill-rule="evenodd" d="M8.88 6.25h.093c.22 0 .591.007.934.15.41.17.748.523.834 1.074l.001.006c.107.683.189 1.203.242 1.57q.041.277.061.456c.011.098.025.233.019.346-.029.49-.228.88-.434 1.18a8 8 0 0 1-.446.565q-.083.098-.141.17l-.55.681a10.2 10.2 0 0 0 2.059 2.058l.682-.55q.07-.056.168-.14a8 8 0 0 1 .565-.446c.302-.207.69-.405 1.18-.434a2 2 0 0 1 .347.019q.18.02.456.06c.367.054.887.135 1.57.243h.006c.551.087.903.425 1.074.834.143.343.15.714.15.935v.093c0 .48.001.922-.198 1.357-.144.316-.39.585-.634.78a2.2 2.2 0 0 1-.902.448c-.466.098-.821.017-1.2-.069l-.053-.012c-1.925-.434-3.812-1.45-5.374-3.013-1.563-1.563-2.579-3.45-3.013-5.374l-.012-.052c-.086-.38-.167-.735-.07-1.201.072-.34.252-.657.448-.902s.465-.49.78-.635c.436-.198.879-.198 1.358-.197m4.014 9.1a9 9 0 0 0 2.2.811c.439.1.493.101.615.076a.8.8 0 0 0 .272-.15.8.8 0 0 0 .207-.233c.047-.103.062-.202.062-.827a2 2 0 0 0-.019-.296c-.659-.104-1.15-.18-1.497-.231q-.268-.039-.41-.055a1 1 0 0 0-.106-.01c-.113.01-.235.057-.403.172-.13.09-.235.178-.364.288-.079.067-.167.142-.277.23zM8.65 11.107l.225-.28c.089-.11.164-.199.231-.277.11-.13.198-.233.288-.364.115-.168.162-.29.172-.403l-.01-.107q-.017-.141-.055-.41c-.05-.346-.128-.838-.23-1.496l-.052-.008a2 2 0 0 0-.245-.01c-.625 0-.724.014-.827.06a.8.8 0 0 0-.232.208.8.8 0 0 0-.151.272c-.026.122-.024.176.076.616.167.742.438 1.483.81 2.198" clip-rule="evenodd" opacity=".4"/></svg>