<svg xmlns="http://www.w3.org/2000/svg" fill="none" viewBox="0 0 24 24"><path fill="currentColor" fill-rule="evenodd" d="M12 2.75A9.25 9.25 0 0 0 2.75 12a9.2 9.2 0 0 0 .725 3.596l.007.017c.133.316.244.577.322.791s.148.44.164.672c.026.378-.08.77-.2 1.221l-.027.098-.681 2.545 2.545-.68q.049-.015.098-.027c.45-.121.843-.227 1.22-.2.234.015.459.085.673.163s.475.189.79.322l.018.007A9.2 9.2 0 0 0 12 21.25a9.25 9.25 0 1 0 0-18.5M1.25 12C1.25 6.063 6.063 1.25 12 1.25S22.75 6.063 22.75 12 17.937 22.75 12 22.75c-1.48 0-2.894-.3-4.18-.843a19 19 0 0 0-.74-.302 1.2 1.2 0 0 0-.26-.076c-.094-.007-.221.017-.827.18l-3.8 1.015a.75.75 0 0 1-.917-.918l1.016-3.799c.162-.606.186-.733.18-.827a1.2 1.2 0 0 0-.076-.26 19 19 0 0 0-.303-.74A10.7 10.7 0 0 1 1.25 12" clip-rule="evenodd"/><path fill="currentColor" fill-rule="evenodd" d="M10.372 6.75h2.51c1.626 0 2.868 1.387 2.868 3 0 .88-.37 1.693-.97 2.25.6.557.97 1.37.97 2.25 0 1.613-1.242 3-2.868 3h-2.51c-.298 0-.59 0-.833-.032-.273-.036-.59-.124-.857-.385-.269-.264-.362-.582-.4-.856-.032-.24-.032-.53-.032-.822v-6.31c0-.292 0-.582.033-.822.037-.274.13-.592.399-.856.266-.261.584-.35.857-.385.242-.032.535-.032.833-.032m2.51 4.5c.713 0 1.368-.628 1.368-1.5s-.655-1.5-1.368-1.5h-2.47c-.329 0-.517.001-.648.015a7 7 0 0 0-.014.62v2.365zm-3.132 1.5h3.132c.713 0 1.368.628 1.368 1.5s-.655 1.5-1.368 1.5h-2.47c-.329 0-.517-.001-.648-.015a7 7 0 0 1-.014-.62z" clip-rule="evenodd" opacity=".4"/></svg>