<svg xmlns="http://www.w3.org/2000/svg" fill="none" viewBox="0 0 24 24"><path fill="currentColor" fill-rule="evenodd" d="M3.303 3.778C2.996 3.751 2.597 3.75 2 3.75a.75.75 0 1 1 0-1.5h.033c.556 0 1.022 0 1.404.034.401.036.776.114 1.13.31.35.194.654.462.89.786.238.326.362.689.447 1.082.082.375.14.838.208 1.39l.05.398h5.392c1.133 0 2.058 0 2.79.098.763.103 1.425.325 1.954.854s.751 1.19.854 1.955c.098.73.098 1.656.098 2.79v5.431a2.251 2.251 0 1 1-1.5 0V12c0-1.2-.002-2.024-.085-2.643-.08-.598-.224-.89-.428-1.094s-.496-.348-1.094-.428c-.619-.083-1.443-.085-2.643-.085H6.35l.313 2.51a5.75 5.75 0 1 1-1.476.282l-.56-4.472c-.073-.593-.123-.988-.189-1.29-.063-.29-.127-.425-.194-.516a1.25 1.25 0 0 0-.404-.358c-.099-.054-.242-.101-.537-.128M16.5 18.75a.75.75 0 1 1 .001 1.5.75.75 0 0 1-.002-1.5M2.75 16a4.25 4.25 0 1 1 8.5 0 4.25 4.25 0 0 1-8.5 0" clip-rule="evenodd"/><path fill="currentColor" fill-rule="evenodd" d="M16.024 14.75c.957 0 1.19.018 1.384.113q.084.041.163.097c.196.138.354.371.882 1.248l.018.03c.181.301.346.575.505.786.171.227.389.456.707.593q.187.08.39.114c.349.058.656-.025.918-.133a8 8 0 0 0 .798-.408l.574-.318a.75.75 0 0 0-.727-1.312l-.542.3a8 8 0 0 1-.674.351.6.6 0 0 1-.114.038l-.025-.008a.7.7 0 0 1-.107-.12 9 9 0 0 1-.436-.686l-.073-.122c-.417-.696-.741-1.235-1.229-1.579a3 3 0 0 0-.37-.219c-.545-.267-1.156-.266-1.906-.265H12a.75.75 0 1 0 0 1.5zM7 15a1 1 0 0 0 0 2h.009a1 1 0 1 0 0-2z" clip-rule="evenodd" opacity=".4"/></svg>