<svg xmlns="http://www.w3.org/2000/svg" fill="none" viewBox="0 0 24 24"><path fill="currentColor" fill-rule="evenodd" d="M12 3.75c-2.75 0-5.322.826-7.508 2.264-1.34.88-1.63 1.123-1.725 1.687-.046.271-.005.526.193.912.217.422.578.919 1.132 1.674l5.337 7.278c.745 1.017 1.257 1.711 1.699 2.162.431.441.677.523.872.523a.75.75 0 0 1 0 1.5c-.788 0-1.399-.416-1.944-.973-.526-.537-1.1-1.32-1.801-2.276l-5.406-7.373c-.511-.697-.946-1.29-1.223-1.829-.301-.586-.452-1.172-.338-1.847.214-1.273 1.116-1.864 2.233-2.596l.147-.096A15.1 15.1 0 0 1 12 2.25c3.058 0 5.913.92 8.332 2.51l.147.096c1.117.732 2.02 1.323 2.233 2.596.114.675-.036 1.26-.338 1.847-.277.54-.712 1.132-1.223 1.829l-.038.053-1.518 1.975a.75.75 0 1 1-1.19-.914l1.508-1.962c.55-.751.911-1.247 1.127-1.667.198-.386.239-.641.193-.912-.095-.564-.384-.807-1.724-1.687A13.6 13.6 0 0 0 12 3.75" clip-rule="evenodd"/><path fill="currentColor" fill-rule="evenodd" d="M14.47 14.47a.75.75 0 0 1 1.06 0L18 16.94l2.47-2.47a.75.75 0 1 1 1.06 1.06L19.06 18l2.47 2.47a.75.75 0 1 1-1.06 1.06L18 19.06l-2.47 2.47a.75.75 0 1 1-1.06-1.06L16.94 18l-2.47-2.47a.75.75 0 0 1 0-1.06" clip-rule="evenodd" opacity=".4"/></svg>