<svg xmlns="http://www.w3.org/2000/svg" fill="none" viewBox="0 0 24 24"><path fill="currentColor" fill-rule="evenodd" d="M10.75 5c0-.701.19-1.302.46-1.705.272-.41.566-.545.79-.545.223 0 .517.136.79.545.269.403.46 1.004.46 1.705s-.191 1.302-.46 1.705c-.273.41-.567.545-.79.545s-.518-.136-.79-.545c-.27-.403-.46-1.004-.46-1.705M12 1.25c-.881 0-1.587.536-2.039 1.213C9.507 3.145 9.25 4.044 9.25 5s.257 1.855.711 2.537C10.414 8.214 11.12 8.75 12 8.75s1.587-.536 2.038-1.213c.455-.682.712-1.581.712-2.537s-.257-1.855-.712-2.537C13.587 1.786 12.881 1.25 12 1.25m0 10.5a.75.75 0 1 0 0 1.5.75.75 0 0 0 0-1.5m2.25.75a2.25 2.25 0 0 1-1.5 2.122v6.628H18a.75.75 0 0 1 0 1.5H6a.75.75 0 0 1 0-1.5h5.25v-6.628a2.251 2.251 0 1 1 3-2.122m2.932 2.254c-.484.031-.742.215-.85.4-.106.184-.137.494.077.923.21.424.628.88 1.227 1.223.598.344 1.205.476 1.682.446.484-.031.742-.214.85-.4.106-.183.137-.494-.077-.923-.21-.424-.628-.88-1.227-1.223-.598-.344-1.205-.476-1.682-.446m-.096-1.497c.81-.051 1.706.172 2.525.642s1.463 1.131 1.823 1.856c.358.72.469 1.59.03 2.345-.438.754-1.248 1.091-2.05 1.143-.81.052-1.706-.172-2.525-.642s-1.463-1.131-1.823-1.856c-.358-.72-.47-1.59-.03-2.345.438-.754 1.248-1.091 2.05-1.143M8.964 14.4c-.438-.754-1.248-1.091-2.05-1.143-.81-.051-1.706.172-2.525.642s-1.463 1.131-1.823 1.856c-.358.72-.47 1.59-.03 2.345.438.754 1.248 1.091 2.05 1.143.81.052 1.706-.172 2.525-.642s1.463-1.131 1.823-1.856c.358-.72.469-1.59.03-2.345m-3.828.8c.598-.344 1.205-.476 1.682-.446.484.031.742.215.85.4.106.184.136.494-.077.923-.21.424-.628.88-1.227 1.223-.598.344-1.205.476-1.682.446-.484-.031-.742-.214-.85-.4-.106-.183-.137-.494.077-.923.21-.424.628-.88 1.227-1.223" clip-rule="evenodd"/><path fill="currentColor" fill-rule="evenodd" d="M7.866 3.655a.75.75 0 1 0-.733-1.31c-2.91 1.63-4.883 4.687-4.883 8.203q0 .808.135 1.58a.75.75 0 0 0 1.478-.256 8 8 0 0 1-.113-1.324c0-2.935 1.646-5.51 4.116-6.893m9-1.31a.75.75 0 1 0-.733 1.31c2.47 1.383 4.117 3.958 4.117 6.893q-.002.679-.114 1.324a.75.75 0 0 0 1.478.256q.136-.772.136-1.58c0-3.516-1.974-6.573-4.884-8.202M11.25 8v3h1.5V8zm1.334 5.623 3 2 .832-1.248-3-2zm-5 .752 3-2 .832 1.248-3 2z" clip-rule="evenodd" opacity=".4"/></svg>