<svg xmlns="http://www.w3.org/2000/svg" fill="none" viewBox="0 0 24 24"><path fill="currentColor" d="M17.392 16.235a3.73 3.73 0 0 1-1.867-.5l-.026-.015-3.498-2.206L8.5 15.72l-.025.015a3.757 3.757 0 0 1-5.125-1.376.75.75 0 0 1 .258-1.014l6.01-3.687a.7.7 0 0 1 .277-.102.75.75 0 0 1-.154-.456c0-1.602.02-4.112.02-4.137 0-2.114 1.595-3.713 3.71-3.713a.75.75 0 0 1 .75.741l.09 7.146a.75.75 0 0 1-.131.432q.105.027.203.087l6.01 3.689a.75.75 0 0 1 .256 1.014 3.76 3.76 0 0 1-3.257 1.876m-1.105-1.793c.853.485 1.893.35 2.596-.264l-5.285-3.244a.75.75 0 0 1-.228-1.063.75.75 0 0 1-.431-.305c-.124-.183-.588-.391-.87-.391-.592 0-.828.209-1.02.424a.75.75 0 0 1-.444.241q.022.03.043.064a.75.75 0 0 1-.246 1.031l-5.286 3.242a2.255 2.255 0 0 0 2.596.263l3.283-2.068A.75.75 0 0 1 12 11.758a.75.75 0 0 1 1.002.613l3.282 2.068zM12.07 7.676c.219 0 .469.038.723.114l-.062-4.931c-.893.278-1.472 1.069-1.472 2.111 0 .023-.01 1.431-.017 2.807.24-.063.513-.1.827-.1z" opacity=".4"/><path fill="currentColor" fill-rule="evenodd" d="M9.25 10.453a2.754 2.754 0 0 0 2.75 2.75 2.754 2.754 0 0 0 2.75-2.75A2.754 2.754 0 0 0 12 7.703a2.754 2.754 0 0 0-2.75 2.75m1.5 0c0-.689.561-1.25 1.25-1.25s1.25.561 1.25 1.25a1.251 1.251 0 0 1-2.5 0m1.13 12.294h.242c1.049 0 1.956 0 2.408-.967.36-.751.227-1.684-.015-3.376l-.002-.011-.32-2.025a.75.75 0 1 0-1.482.234l.319 2.02c.187 1.308.31 2.172.146 2.51l-.004.007-.001.004q-.018.036-.02.036c-.112.068-.621.068-1.03.068h-.241c-.411 0-.923 0-1.026-.064 0 0-.01-.01-.023-.04l-.003-.005-.002-.005c-.164-.34-.041-1.203.146-2.511l.319-2.02a.751.751 0 0 0-1.482-.234l-.32 2.025v.002l-.002.009c-.242 1.692-.375 2.625-.015 3.376.453.967 1.359.967 2.408.967" clip-rule="evenodd"/></svg>