<svg xmlns="http://www.w3.org/2000/svg" fill="none" viewBox="0 0 24 24"><path fill="currentColor" d="M13 21.75h-2c-3.98 0-5.97 0-7.36-1.39S2.25 16.98 2.25 13v-2c0-3.98 0-5.97 1.39-7.36S7.02 2.25 11 2.25h2c3.98 0 5.97 0 7.36 1.39s1.39 3.38 1.39 7.36v2c0 3.98 0 5.97-1.39 7.36s-3.38 1.39-7.36 1.39m-2-18c-3.56 0-5.35 0-6.3.95s-.95 2.74-.95 6.3v2c0 3.56 0 5.35.95 6.3s2.74.95 6.3.95h2c3.56 0 5.35 0 6.3-.95s.95-2.74.95-6.3v-2c0-3.56 0-5.35-.95-6.3s-2.74-.95-6.3-.95z"/><path fill="currentColor" d="M12 21.75c-.41 0-.75-.34-.75-.75v-8.25H3c-.41 0-.75-.34-.75-.75s.34-.75.75-.75h8.25V3c0-.41.34-.75.75-.75s.75.34.75.75v8.25H21c.41 0 .75.34.75.75s-.34.75-.75.75h-8.25V21c0 .41-.34.75-.75.75" opacity=".4"/></svg>