<svg xmlns="http://www.w3.org/2000/svg" fill="none" viewBox="0 0 24 24"><path fill="currentColor" fill-rule="evenodd" d="M3.75 19a2.25 2.25 0 1 1 4.5 0 2.25 2.25 0 0 1-4.5 0M6 15.25a3.75 3.75 0 1 0 0 7.5 3.75 3.75 0 0 0 0-7.5m0-12.5a2.25 2.25 0 1 0 0 4.5 2.25 2.25 0 0 0 0-4.5M2.25 5a3.75 3.75 0 1 1 7.5 0 3.75 3.75 0 0 1-7.5 0M18 2.75a2.25 2.25 0 1 0 0 4.5 2.25 2.25 0 0 0 0-4.5M14.25 5a3.75 3.75 0 1 1 7.5 0 3.75 3.75 0 0 1-7.5 0" clip-rule="evenodd"/><path fill="currentColor" fill-rule="evenodd" d="M6 7.25a.75.75 0 0 1 .75.75v3.25H14c.712 0 1.202 0 1.58-.032.371-.03.57-.085.714-.159a1.75 1.75 0 0 0 .765-.764c.074-.145.13-.344.16-.714.03-.38.031-.869.031-1.581a.75.75 0 0 1 1.5 0v.031c0 .674 0 1.225-.037 1.672-.037.463-.118.882-.317 1.273a3.25 3.25 0 0 1-1.42 1.42c-.391.199-.81.28-1.273.317-.447.037-.998.037-1.672.037H6.75V16a.75.75 0 0 1-1.5 0V8A.75.75 0 0 1 6 7.25" clip-rule="evenodd" opacity=".4"/></svg>