<svg xmlns="http://www.w3.org/2000/svg" fill="none" viewBox="0 0 24 24"><path fill="currentColor" fill-rule="evenodd" d="M20.25 17A4.25 4.25 0 0 1 16 21.25H8A4.25 4.25 0 0 1 3.75 17V7A4.25 4.25 0 0 1 8 2.75h8A4.25 4.25 0 0 1 20.25 7zM16 22.75A5.75 5.75 0 0 0 21.75 17V7A5.75 5.75 0 0 0 16 1.25H8A5.75 5.75 0 0 0 2.25 7v10A5.75 5.75 0 0 0 8 22.75z" clip-rule="evenodd"/><path fill="currentColor" fill-rule="evenodd" d="M12.75 5a.75.75 0 0 0-1.5 0v1.77c-.274.363-.549.48-.75.48-.23 0-.554-.152-.864-.647a.75.75 0 1 0-1.272.794C8.828 8.14 9.562 8.75 10.5 8.75c.267 0 .518-.05.75-.137v1.045c-.48.37-1.087.592-1.75.592a2.85 2.85 0 0 1-1.98-.791.75.75 0 0 0-1.04 1.082A4.35 4.35 0 0 0 9.5 11.75a4.4 4.4 0 0 0 1.75-.363v2.172a11 11 0 0 1-1.751-.252c-1.271-.295-2.749.612-2.749 2.098 0 .74.41 1.51 1.195 1.802q.532.197 1.122.34c.395.096.711.345.862.68l.106.235A2.16 2.16 0 0 0 12 19.75a2.16 2.16 0 0 0 1.965-1.288l.106-.236c.151-.334.467-.583.862-.679a10 10 0 0 0 1.122-.34c.785-.292 1.195-1.062 1.195-1.802 0-1.485-1.478-2.393-2.749-2.098-.541.126-1.13.213-1.751.252v-2.172a4.4 4.4 0 0 0 1.75.363 4.35 4.35 0 0 0 3.02-1.209.75.75 0 1 0-1.04-1.082 2.85 2.85 0 0 1-1.98.791c-.663 0-1.27-.222-1.75-.592V8.613c.232.088.483.137.75.137.939 0 1.672-.61 2.136-1.353a.75.75 0 0 0-1.272-.794c-.31.495-.634.647-.864.647-.201 0-.476-.117-.75-.481zm3 10.405c0-.374-.431-.748-.91-.637-.871.203-1.833.314-2.84.314s-1.969-.111-2.84-.314c-.479-.11-.91.263-.91.637 0 .23.123.36.218.396q.442.165.951.288c.788.19 1.513.713 1.877 1.521l.107.236a.66.66 0 0 0 .597.404.66.66 0 0 0 .597-.404l.107-.236c.364-.808 1.089-1.33 1.877-1.521q.51-.124.95-.288c.096-.036.219-.165.219-.396" clip-rule="evenodd" opacity=".4"/></svg>