<svg xmlns="http://www.w3.org/2000/svg" fill="none" viewBox="0 0 24 24"><path fill="currentColor" d="M4.012 21.25a.75.75 0 0 1-.752-.75c0-.414.337-.75.752-.75 2.754 0 5.1-4.128 7.37-8.12 2.481-4.366 5.047-8.88 8.679-8.88.415 0 .752.336.752.75s-.337.75-.752.75c-2.754 0-5.1 4.128-7.37 8.12-2.481 4.366-5.047 8.88-8.679 8.88"/><path fill="currentColor" d="M19.058 21.25c-1.683 0-2.611 0-3.454-.419l-.009-.005a4.5 4.5 0 0 1-1.256-.961c-.633-.704-.939-1.591-1.547-3.358l-.012-.034-2.923-8.494C9.313 6.404 9.04 5.613 8.615 5.14a3 3 0 0 0-.824-.631c-.525-.259-1.28-.259-2.777-.259a.75.75 0 0 1-.752-.75c0-.414.337-.75.752-.75 1.683 0 2.61 0 3.453.419l.01.005c.47.242.893.565 1.255.961.633.704.94 1.591 1.548 3.358l.012.034 2.923 8.494c.544 1.575.816 2.366 1.242 2.839.236.258.514.472.823.631.526.259 1.28.259 2.778.259.415 0 .752.336.752.75s-.337.75-.752.75" opacity=".4"/></svg>