<svg xmlns="http://www.w3.org/2000/svg" fill="none" viewBox="0 0 24 24"><path fill="currentColor" fill-rule="evenodd" d="M7.25 15.01c0 .413.336.75.75.75 1.58 0 2.76-1.1 3.84-2.38l.241.497c.305.63.489 1.01.883 1.315a2.5 2.5 0 0 0 .735.403c.462.164.952.164 1.841.164v.001a.75.75 0 0 0 0-1.5c-.7 0-1.12 0-1.345-.08a1 1 0 0 1-.306-.168c-.118-.09-.225-.307-.458-.788l-.547-1.13C13.9 10.839 14.88 9.739 16 9.739a.75.75 0 0 0 0-1.5c-1.578 0-2.756 1.096-3.835 2.372l-.21-.435c-.304-.629-.506-1.045-.909-1.369a2.6 2.6 0 0 0-.734-.402l-.007-.003c-.469-.162-.958-.162-1.845-.162a.75.75 0 0 0 0 1.5c.696 0 1.118 0 1.35.078.118.044.223.101.3.162.13.104.259.363.495.85l.516 1.067C10.104 13.157 9.122 14.26 8 14.26a.75.75 0 0 0-.75.75" clip-rule="evenodd" opacity=".4"/><path fill="currentColor" d="M12 22.75C6.072 22.75 1.25 17.928 1.25 12S6.072 1.25 12 1.25 22.75 6.072 22.75 12 17.928 22.75 12 22.75m0-20C6.9 2.75 2.75 6.9 2.75 12S6.9 21.25 12 21.25s9.25-4.15 9.25-9.25S17.1 2.75 12 2.75"/></svg>