<svg xmlns="http://www.w3.org/2000/svg" fill="none" viewBox="0 0 24 24"><path fill="currentColor" fill-rule="evenodd" d="M1.826 2.77a.75.75 0 0 1 .904.556c.322 1.354 1.743 4.445 4.77 6.05 3.027-1.605 4.448-4.696 4.77-6.05a.75.75 0 1 1 1.46.348c-.384 1.612-1.987 5.127-5.48 7.003V20.5a.75.75 0 0 1-1.5 0v-9.823C3.257 8.8 1.655 5.287 1.27 3.674a.75.75 0 0 1 .556-.904" clip-rule="evenodd"/><path fill="currentColor" fill-rule="evenodd" d="M17.523 11.038a.75.75 0 1 0-1.046-1.076 9 9 0 0 1-.544.448l-.06.047c-.242.19-.526.413-.797.643a7 7 0 0 0-.828.797 2.7 2.7 0 0 0-.323.46 1.4 1.4 0 0 0-.175.643c0 .258.089.48.175.642.09.168.206.323.323.461.235.276.537.551.828.797.27.23.555.453.797.643l.06.047q.407.318.544.448a.75.75 0 1 0 1.046-1.076 9 9 0 0 0-.664-.551l-.057-.045c-.245-.193-.508-.4-.757-.61l-.007-.006H22a.75.75 0 0 0 0-1.5h-5.962l.007-.006c.249-.21.512-.417.757-.61l.057-.045c.245-.192.502-.394.664-.551M4.25 13.5a.75.75 0 0 1 .75-.75h5a.75.75 0 0 1 0 1.5H5a.75.75 0 0 1-.75-.75m0 4a.75.75 0 0 1 .75-.75h5a.75.75 0 0 1 0 1.5H5a.75.75 0 0 1-.75-.75" clip-rule="evenodd" opacity=".4"/></svg>