<svg xmlns="http://www.w3.org/2000/svg" fill="none" viewBox="0 0 24 24"><path fill="currentColor" fill-rule="evenodd" d="M15.239 2.969c-.82-.3-1.528-.297-2.456.04a5 5 0 0 0-.57.227c-.077.04-.088.059-.092.066l-.001.001-.007.012a.4.4 0 0 0-.03.081v.015c.003.017.01.053.034.118.051.141.14.323.297.634l.131.208a2 2 0 0 0 .113.152.6.6 0 0 0 .205.033c.156.012.363.012.691.012h.892c.329 0 .535 0 .692-.012a.7.7 0 0 0 .204-.032l.001-.001.024-.026a2 2 0 0 0 .089-.126c.037-.057.078-.123.13-.208.17-.338.266-.533.319-.684a.6.6 0 0 0 .03-.121m0-.018-.002-.008-.024-.057c-.009-.016-.018-.033-.088-.071-.107-.06-.265-.12-.582-.235m1.492 2.195a8 8 0 0 0 .15-.243l.017-.027.014-.028.018-.036a8 8 0 0 0 .392-.86c.103-.298.16-.627.069-.993a2 2 0 0 0-.173-.434c-.32-.571-.875-.771-1.36-.946l-.105-.037c-1.181-.432-2.253-.407-3.483.04l-.104.038c-.46.164-.975.35-1.298.84a1.8 1.8 0 0 0-.263.659c-.059.337.005.636.102.905.087.239.223.507.366.792l.016.032.014.028.017.027.15.243a8 8 0 0 0-.252.22c-1.078.966-2.323 2.612-2.724 4.838-.191 1.062.26 1.977.976 2.59.703.601 1.679.938 2.68.938h4.101c1 0 1.976-.337 2.68-.938.715-.613 1.167-1.528.976-2.59-.402-2.226-1.647-3.872-2.724-4.838l-.02-.018q-.118-.106-.232-.202m-2.26.904h.128c.577 0 .705.009.871.071.174.066.227.107.511.362.896.803 1.922 2.168 2.25 3.987.08.443-.086.85-.476 1.184-.403.345-1.021.578-1.704.578H11.95c-.682 0-1.3-.233-1.703-.578-.39-.334-.556-.741-.476-1.184.328-1.819 1.354-3.184 2.25-3.987.283-.255.336-.296.51-.362.166-.062.294-.07.872-.07h1.069" clip-rule="evenodd" opacity=".4"/><path fill="currentColor" fill-rule="evenodd" d="M3.25 14a.75.75 0 0 1 .75-.75h2.395c.407 0 .808.091 1.174.268l2.042.988c.16.078.339.12.52.12h1.043c.838 0 1.595.395 2.069 1.015l4.127-1.268h.001a2.735 2.735 0 0 1 3.034 1.03c.622.86.382 2.102-.552 2.64l-7.515 4.337a2.74 2.74 0 0 1-2.156.257l-6.395-1.898a.75.75 0 0 1 .427-1.438l6.395 1.898c.327.097.678.056.98-.118l7.515-4.337c.141-.081.201-.302.085-.463a1.24 1.24 0 0 0-1.373-.476h-.003l-4.064 1.25.001.087a.84.84 0 0 1-.616.808l-2.541.702a2.7 2.7 0 0 1-1.894-.17l-2.183-1.057a.75.75 0 0 1 .653-1.35l2.183 1.056c.26.126.56.153.841.076l1.934-.535a1.08 1.08 0 0 0-.953-.547h-1.042c-.407 0-.809-.091-1.174-.268l-2.042-.988a1.2 1.2 0 0 0-.521-.119H4a.75.75 0 0 1-.75-.75" clip-rule="evenodd"/></svg>