<svg xmlns="http://www.w3.org/2000/svg" fill="none" viewBox="0 0 24 24"><path fill="currentColor" fill-rule="evenodd" d="M4 12.75h7c.41 0 .75-.34.75-.75s-.34-.75-.75-.75H5.65l5.91-6.76c.2-.22.24-.53.12-.8a.75.75 0 0 0-.68-.44H4c-.41 0-.75.34-.75.75s.34.75.75.75h5.35l-5.91 6.76c-.2.22-.24.53-.12.8s.39.44.68.44m2 8h4c.41 0 .75-.34.75-.75s-.34-.75-.75-.75H7.81l2.72-2.72c.21-.22.28-.54.16-.82a.74.74 0 0 0-.69-.46H6c-.41 0-.75.34-.75.75s.34.75.75.75h2.19l-2.72 2.72c-.21.22-.28.54-.16.82.11.28.39.46.69.46" clip-rule="evenodd"/><path fill="currentColor" d="M20 15.75h-6a.74.74 0 0 1-.69-.46c-.12-.28-.05-.6.16-.82l4.72-4.72H14c-.41 0-.75-.34-.75-.75s.34-.75.75-.75h6c.3 0 .58.18.69.46.12.28.05.6-.16.82l-4.72 4.72H20c.41 0 .75.34.75.75s-.34.75-.75.75" opacity=".4"/></svg>