<svg xmlns="http://www.w3.org/2000/svg" fill="none" viewBox="0 0 24 24"><path fill="currentColor" fill-rule="evenodd" d="M4.5 1.75A2.75 2.75 0 0 0 1.75 4.5v15a2.75 2.75 0 0 0 2.75 2.75h15a2.75 2.75 0 0 0 2.75-2.75v-15a2.75 2.75 0 0 0-2.75-2.75zM9 7.25a.75.75 0 0 1 .702.487l3 8a.75.75 0 1 1-1.404.526l-.943-2.513h-2.71l-.943 2.513a.75.75 0 0 1-1.404-.526l3-8A.75.75 0 0 1 9 7.25m0 2.886-.793 2.114h1.586zm5.75 3.484H18a.75.75 0 0 0 .75-.75V12a2.75 2.75 0 1 0-5.5 0v2a2.75 2.75 0 0 0 5.137 1.367.75.75 0 1 0-1.302-.747A1.25 1.25 0 0 1 14.75 14zM16 10.75c-.69 0-1.25.56-1.25 1.25v.12h2.5V12c0-.69-.56-1.25-1.25-1.25" clip-rule="evenodd"/></svg>