<svg xmlns="http://www.w3.org/2000/svg" fill="none" viewBox="0 0 24 24"><path fill="currentColor" fill-rule="evenodd" d="M4.5 1.75A2.75 2.75 0 0 0 1.75 4.5v15a2.75 2.75 0 0 0 2.75 2.75h15a2.75 2.75 0 0 0 2.75-2.75v-15a2.75 2.75 0 0 0-2.75-2.75zm6 5.5a.75.75 0 0 1 .703.487l3 8a.75.75 0 0 1-1.405.526l-.943-2.513h-2.71l-.943 2.513a.75.75 0 1 1-1.404-.526l3-8a.75.75 0 0 1 .702-.487m.793 5-.793-2.114-.793 2.114zm5.207-2a.75.75 0 0 1 .75.75v5a.75.75 0 0 1-1.5 0v-5a.75.75 0 0 1 .75-.75m0-3a.75.75 0 0 1 .75.75v.5a.75.75 0 0 1-1.5 0V8a.75.75 0 0 1 .75-.75" clip-rule="evenodd"/></svg>