<svg xmlns="http://www.w3.org/2000/svg" fill="none" viewBox="0 0 24 24"><path fill="currentColor" fill-rule="evenodd" d="M1.25 4A2.75 2.75 0 0 1 4 1.25h3.84a2.75 2.75 0 0 1 2.387 1.386l1.208 2.114H20a2.75 2.75 0 0 1 2.75 2.75V16a2.75 2.75 0 0 1-2.423 2.73 3.24 3.24 0 0 0-2.077-.97V17a2.25 2.25 0 0 0-4.031-1.375 2.25 2.25 0 0 0-4.438 0A2.25 2.25 0 0 0 5.75 17v.76a3.24 3.24 0 0 0-2.077.97A2.75 2.75 0 0 1 1.25 16zm15.5 13a.75.75 0 0 0-1.5 0v2c0 .199.079.39.22.53l.881.882a1.75 1.75 0 1 0 1.06-1.06l-.661-.663zM12 15.25a.75.75 0 0 1 .75.75v3.418a1.75 1.75 0 1 1-1.5 0V16a.75.75 0 0 1 .75-.75M8.75 17a.75.75 0 0 0-1.5 0v1.69l-.662.661a1.75 1.75 0 1 0 1.06 1.06l.882-.88A.75.75 0 0 0 8.75 19z" clip-rule="evenodd"/></svg>