<svg xmlns="http://www.w3.org/2000/svg" fill="none" viewBox="0 0 24 24"><path fill="currentColor" fill-rule="evenodd" d="M12 3C8.124 3 5 6.107 5 9.919c0 1.304.364 2.521.997 3.561a1 1 0 0 1-1.708 1.04A8.8 8.8 0 0 1 3 9.919C3 4.984 7.04 1 12 1c4.961 0 9 3.984 9 8.919a8.8 8.8 0 0 1-1.289 4.601 1 1 0 1 1-1.708-1.04A6.8 6.8 0 0 0 19 9.919C19 6.107 15.876 3 12 3M9.746 6.728a.75.75 0 0 1 .699-.478h.486c.31 0 .587.19.699.478l1.944 5a.75.75 0 1 1-1.398.544l-.592-1.522H9.791l-.592 1.522a.75.75 0 1 1-1.398-.544zM11 9.25l-.313-.806-.314.806zm4.5-3a.75.75 0 0 1 .75.75v5a.75.75 0 0 1-1.5 0V7a.75.75 0 0 1 .75-.75m-8.5 9a.75.75 0 0 0-.712.987l.545 1.633c.135.407.36.766.648 1.059a.28.28 0 0 0 .203.082h8.632c.076 0 .15-.028.203-.082.288-.293.513-.652.648-1.06l.544-1.632A.75.75 0 0 0 17 15.25zm1.634 5.025a.2.2 0 0 1 .19-.264h6.352a.2.2 0 0 1 .19.264l-.199.595a2.75 2.75 0 0 1-2.609 1.88h-1.117a2.75 2.75 0 0 1-2.609-1.88z" clip-rule="evenodd"/></svg>