<svg xmlns="http://www.w3.org/2000/svg" fill="none" viewBox="0 0 24 24"><path fill="currentColor" fill-rule="evenodd" d="M5 9.919C5 6.107 8.124 3 12 3s7 3.107 7 6.919a6.8 6.8 0 0 1-.997 3.561 1 1 0 1 0 1.708 1.04A8.8 8.8 0 0 0 21 9.919C21 4.984 16.96 1 12 1S3 4.984 3 9.919c0 1.682.47 3.257 1.289 4.601a1 1 0 0 0 1.708-1.04A6.8 6.8 0 0 1 5 9.919m1.75 5.331a.75.75 0 0 0-.712.987l.545 1.633c.135.407.36.766.648 1.059a.28.28 0 0 0 .203.082h8.632c.076 0 .15-.028.203-.082.288-.293.513-.652.648-1.06l.544-1.632a.75.75 0 0 0-.711-.987h-2v-2.487l.848-1.06q.194.046.402.047a1.75 1.75 0 1 0-1.574-.983l-1.012 1.265a.75.75 0 0 0-.164.468v2.75h-2.5V12.5a.75.75 0 0 0-.164-.469l-1.012-1.264a1.75 1.75 0 1 0-1.171.937l.847 1.06v2.486zm1.634 5.025a.2.2 0 0 1 .19-.264h6.352a.2.2 0 0 1 .19.264l-.199.595a2.75 2.75 0 0 1-2.609 1.88h-1.117a2.75 2.75 0 0 1-2.609-1.88z" clip-rule="evenodd"/></svg>