<svg xmlns="http://www.w3.org/2000/svg" fill="none" viewBox="0 0 24 24"><path fill="currentColor" fill-rule="evenodd" d="M14.14 4.34a3.11 3.11 0 0 0 2.7-2.7c.03-.21.2-.39.41-.39s.39.17.41.39a3.12 3.12 0 0 0 2.7 2.7c.21.03.39.2.39.41s-.17.39-.39.41a3.11 3.11 0 0 0-2.7 2.7c-.03.21-.2.39-.41.39s-.39-.17-.41-.39a3.12 3.12 0 0 0-2.7-2.7c-.21-.03-.39-.2-.39-.41s.17-.39.39-.41M4 10.25c.41 0 .75.34.75.75 0 4 3.25 7.25 7.25 7.25S19.25 15 19.25 11c0-.41.34-.75.75-.75s.75.34.75.75c0 4.58-3.52 8.34-8 8.72V22c0 .41-.34.75-.75.75s-.75-.34-.75-.75v-2.28c-4.48-.38-8-4.14-8-8.72 0-.41.34-.75.75-.75m8-9c1.23 0 2.37.39 3.3 1.04v.01c-.29.44-.77.74-1.31.81-.74.09-1.48.71-1.48 1.65s.74 1.56 1.48 1.65c.84.1 1.51.77 1.61 1.61.09.74.71 1.48 1.65 1.48.18 0 .35-.03.5-.08V11c0 3.18-2.57 5.75-5.75 5.75S6.25 14.18 6.25 11V7c0-3.18 2.57-5.75 5.75-5.75" clip-rule="evenodd"/></svg>