<svg xmlns="http://www.w3.org/2000/svg" fill="none" viewBox="0 0 24 24"><path fill="currentColor" fill-rule="evenodd" d="M3.25 3a1.75 1.75 0 0 1 3.332-.75H11c.966 0 1.75.784 1.75 1.75v.75h3.75a2.75 2.75 0 0 1 2.75 2.75v3.75H20a.25.25 0 0 0 .25-.25V6.582a1.75 1.75 0 1 1 1.5 0V11A1.75 1.75 0 0 1 20 12.75h-.75v3.75a2.75 2.75 0 0 1-2.75 2.75h-3.75V20c0 .138.112.25.25.25h4.418a1.75 1.75 0 1 1 0 1.5H13A1.75 1.75 0 0 1 11.25 20v-.75H7.5a2.75 2.75 0 0 1-2.75-2.75v-3.75H4a.25.25 0 0 0-.25.25v4.418a1.75 1.75 0 1 1-1.5 0V13c0-.966.784-1.75 1.75-1.75h.75V7.5A2.75 2.75 0 0 1 7.5 4.75h3.75V4a.25.25 0 0 0-.25-.25H6.582A1.75 1.75 0 0 1 3.25 3m6.032 6.284A.75.75 0 0 1 10 8.75h1a.75.75 0 0 1 .719.534l1.045 3.484.01.033.445 1.483a.75.75 0 0 1-1.437.431l-.29-.965H9.508l-.29.966a.75.75 0 1 1-1.436-.431l.445-1.484.01-.033zm1.76 2.966-.542-1.807-.542 1.807zM15 8.75a.75.75 0 0 1 .75.75v5a.75.75 0 0 1-1.5 0v-5a.75.75 0 0 1 .75-.75" clip-rule="evenodd"/></svg>