<svg xmlns="http://www.w3.org/2000/svg" fill="none" viewBox="0 0 24 24"><path fill="currentColor" fill-rule="evenodd" d="M20.06 4.574c-1.41 0-2.49-.63-3.71-1.36-1.17-.69-2.52-1.5-4.33-1.46-1.81 0-3.24.83-4.45 1.53-1.29.74-2.39 1.34-3.61 1.26a.743.743 0 0 0-.79.6c-.91 4.74-.29 8.64 1.37 11.56 1.66 2.93 4.31 4.81 7.34 5.53.12.02.25.02.37-.01 3.23-.86 5.85-2.79 7.42-5.71 1.56-2.92 2.03-6.74 1.12-11.33a.74.74 0 0 0-.73-.61m-7.69 3.63a.44.44 0 0 0-.74 0l-.5.78c-.55.87-1.28 1.6-2.15 2.15l-.78.5a.44.44 0 0 0 0 .74l.78.5c.87.55 1.6 1.28 2.15 2.15l.5.78c.17.27.57.27.74 0l.5-.78c.55-.87 1.28-1.6 2.15-2.15l.78-.5a.44.44 0 0 0 0-.74l-.78-.5c-.87-.55-1.6-1.28-2.15-2.15z" clip-rule="evenodd"/></svg>