<svg xmlns="http://www.w3.org/2000/svg" fill="none" viewBox="0 0 24 24"><path fill="currentColor" fill-rule="evenodd" d="M8.75 2a.75.75 0 0 0-1.5 0v1.25H5a.75.75 0 0 0-.712.987L4.876 6h6.248l.587-1.763A.75.75 0 0 0 11 3.25H8.75zm11.72 3.47a.75.75 0 1 1 1.06 1.06l-.78.78v3.19a.75.75 0 0 1-1.5 0V8.81l-1.72 1.72a.75.75 0 0 1-.53.22h-1a.75.75 0 0 1 0-1.5h.69l1.5-1.5H16.5a.75.75 0 0 1 0-1.5h3.19zM4.33 12.335a.75.75 0 0 0 .67.415h6a.75.75 0 0 0 .67-.415l2-4A.75.75 0 0 0 13 7.25H3a.75.75 0 0 0-.67 1.085zM5.25 14v7c0 .966.784 1.75 1.75 1.75h3.75V14zm16.5 7A1.75 1.75 0 0 1 20 22.75h-8v-8.5h8c.966 0 1.75.784 1.75 1.75z" clip-rule="evenodd"/></svg>