<svg xmlns="http://www.w3.org/2000/svg" fill="none" viewBox="0 0 24 24"><path fill="currentColor" fill-rule="evenodd" d="M13.848 4.383c1.604-2.245 4.873-2.7 6.962-1.448a.75.75 0 0 1 .257.258c1.269 2.114.71 4.927-1.175 6.522l-1.467 1.241 1.364 5.18c.25.95-.024 1.96-.718 2.655l-1.317 1.317a.75.75 0 0 1-1.16-.123l-3.407-5.265-1.934 1.933.316 2.841a.75.75 0 0 1-.216.614L9.931 21.53a.75.75 0 0 1-1.201-.195l-2.022-4.043-4.043-2.021a.75.75 0 0 1-.195-1.202l1.422-1.422a.75.75 0 0 1 .613-.215l2.842.316 1.934-1.933-5.266-3.407a.75.75 0 0 1-.123-1.16L5.21 4.932a2.76 2.76 0 0 1 2.655-.718l5.139 1.352z" clip-rule="evenodd"/></svg>