<svg xmlns="http://www.w3.org/2000/svg" fill="none" viewBox="0 0 24 24"><path fill="currentColor" fill-rule="evenodd" d="M12 1.25c-5.354 0-9.75 3.783-9.75 9.75 0 3.018 1.626 5.94 3.57 8.076.98 1.076 2.065 1.981 3.118 2.622 1.034.63 2.112 1.052 3.062 1.052s2.028-.422 3.062-1.052c1.053-.64 2.138-1.546 3.118-2.622 1.944-2.135 3.57-5.058 3.57-8.076 0-5.967-4.396-9.75-9.75-9.75m-6 7a.75.75 0 0 0-.75.75v1.333a3.417 3.417 0 0 0 3.417 3.417H10a.75.75 0 0 0 .75-.75v-1.333A3.417 3.417 0 0 0 7.333 8.25zm7.25 3.417a3.417 3.417 0 0 1 3.417-3.417H18a.75.75 0 0 1 .75.75v1.333a3.417 3.417 0 0 1-3.417 3.417H14a.75.75 0 0 1-.75-.75zM10.5 16a1 1 0 1 0 0 2h3a1 1 0 1 0 0-2z" clip-rule="evenodd"/></svg>