<svg xmlns="http://www.w3.org/2000/svg" fill="none" viewBox="0 0 24 24"><path fill="currentColor" d="M11.058 5.381c-1.599.427-2.907 1.456-3.225 1.8a.98.98 0 0 1-1.38.059.97.97 0 0 1-.059-1.374c.54-.584 2.161-1.83 4.157-2.363 1.018-.272 2.177-.37 3.36-.063 1.194.31 2.341 1.02 3.342 2.248l.017.021c.18.22.358.44.529.712a6 6 0 0 1 .172-.283c.788-1.217 2.107-2.137 3.944-1.869a.973.973 0 1 1-.284 1.924c-.9-.132-1.536.256-2.018.999-.51.787-.772 1.899-.772 2.864a1 1 0 0 1-.008.127c.008.313.008.647.008 1.018v8.577a.975.975 0 0 1-.977.972.975.975 0 0 1-.978-.972v-.196c-.07-2.725-.544-4.231-1.036-5.043a2.6 2.6 0 0 0-.48-.598c-.19.508-.43.99-.724 1.429-.884 1.318-2.267 2.256-4.112 2.256-2.949 0-5.024-2.49-6.4-4.973-1.42-2.567-2.345-5.575-2.85-7.41A.978.978 0 0 1 3.17 4.73c.496 1.802 1.372 4.628 2.677 6.985 1.352 2.44 2.93 3.966 4.688 3.966 1.087 0 1.902-.52 2.485-1.39.351-.523.61-1.17.766-1.877l.002-.011.004-.014c.107-.5.164-1.03.164-1.569 0-.963-.388-1.69-.847-2.075-.437-.366-.922-.428-1.385-.172-.32.178-.517.522-.622.958-.05.207-.073.598-.08.742a.974.974 0 0 1-.913 1.031.975.975 0 0 1-1.038-.908c-.036-.56.045-.965.13-1.318.165-.686.57-1.647 1.57-2.203 1.266-.702 2.623-.432 3.596.382.952.796 1.543 2.096 1.543 3.563q0 .557-.065 1.115c.355.17.71.417 1.042.762v-1.426c0-1.437-.007-1.99-.308-2.836-.172-.484-.293-.741-.402-.926s-.222-.328-.441-.596c-.76-.933-1.559-1.394-2.32-1.592-.772-.201-1.577-.148-2.357.06"/></svg>