<svg xmlns="http://www.w3.org/2000/svg" fill="none" viewBox="0 0 24 24"><path fill="currentColor" fill-rule="evenodd" d="M4.5 1.75h8.098a20 20 0 0 1-.23.347c-.492.77-1.266 2.689-1.909 4.751C9.814 8.918 9.25 11.296 9.25 13c0 .414.336.75.75.75h1.524a14 14 0 0 0-.316 2.956c-1.213-.133-2.467-.575-3.836-1.357a.75.75 0 1 0-.744 1.302c1.59.909 3.122 1.445 4.668 1.57a11.6 11.6 0 0 0 1.027 3.62l.208.409H4.5a2.75 2.75 0 0 1-2.75-2.75v-15A2.75 2.75 0 0 1 4.5 1.75M7.75 8a.75.75 0 0 0-1.5 0v2a.75.75 0 0 0 1.5 0zm9.62 8.651c-1.555.889-3.053 1.421-4.565 1.561.126.948.387 1.956.857 2.957l.553 1.081h5.284a2.75 2.75 0 0 0 2.75-2.75v-15a2.75 2.75 0 0 0-2.75-2.75h-5.117l-.015.024-.228.355c-.172.267-.38.588-.514.784-.376.595-1.098 2.335-1.735 4.381-.537 1.723-.978 3.549-1.105 4.956h1.713a.75.75 0 0 1 .709.997v.001l-.002.005-.01.028-.038.124a9 9 0 0 0-.132.5 12.3 12.3 0 0 0-.319 2.81c1.24-.122 2.52-.566 3.92-1.366a.75.75 0 1 1 .745 1.302m-.372-9.401a.75.75 0 0 1 .75.75v2a.75.75 0 0 1-1.5 0V8a.75.75 0 0 1 .75-.75" clip-rule="evenodd"/></svg>