<svg xmlns="http://www.w3.org/2000/svg" fill="none" viewBox="0 0 24 24"><path fill="currentColor" fill-rule="evenodd" d="M13.04 5.427c.06-.47.198-1.004.44-1.452C13.806 3.372 14.262 3 15 3a1 1 0 1 0 0-2c-1.662 0-2.706.961-3.28 2.025-.43.798-.628 1.69-.694 2.414A6.2 6.2 0 0 0 9.5 5.25c-4.142 0-7.25 4.07-7.25 8.75s3.108 8.75 7.25 8.75c.885 0 1.73-.2 2.504-.544.772.345 1.61.544 2.497.544 4.142 0 7.25-4.07 7.25-8.75s-3.108-8.75-7.25-8.75q-.752.002-1.462.177m-2.402 2.028a1 1 0 0 1 .106 1.41c-.927 1.077-1.579 2.554-1.749 4.236a1 1 0 1 1-1.99-.201c.21-2.067 1.014-3.936 2.223-5.34a1 1 0 0 1 1.41-.105" clip-rule="evenodd"/></svg>