<svg xmlns="http://www.w3.org/2000/svg" fill="none" viewBox="0 0 24 24"><path fill="currentColor" fill-rule="evenodd" d="M12.507 2.553a.75.75 0 0 0-1.014-1.106l-6 5.5a.75.75 0 0 0 .928 1.174l.143.185c.253.325.614.782 1.047 1.312.864 1.056 2.025 2.41 3.193 3.579 1.169 1.168 2.524 2.329 3.58 3.193.472.387.888.716 1.203.962l-.117.118a.75.75 0 1 0 1.06 1.06l6-6a.75.75 0 1 0-1.06-1.06l-.116.116c-.246-.316-.576-.73-.963-1.204-.864-1.056-2.024-2.41-3.193-3.579-1.168-1.168-2.523-2.33-3.579-3.193-.476-.39-.894-.72-1.21-.968zM2.423 16.977l5.49-4.68a43 43 0 0 0 1.83 1.964c.63.63 1.307 1.253 1.963 1.83l-4.68 5.49a3.268 3.268 0 1 1-4.603-4.604" clip-rule="evenodd"/></svg>