<svg xmlns="http://www.w3.org/2000/svg" fill="none" viewBox="0 0 24 24"><path fill="currentColor" fill-rule="evenodd" d="M9 2c.55 0 1 .45 1 1v18c0 .55-.45 1-1 1s-1-.45-1-1V3c0-.55.45-1 1-1M6 6c.55 0 1 .45 1 1v10c0 .55-.45 1-1 1s-1-.45-1-1V7c0-.55.45-1 1-1m7 0c0-.55-.45-1-1-1s-1 .45-1 1v12c0 .55.45 1 1 1s1-.45 1-1zm2 2c.55 0 1 .45 1 1v6c0 .55-.45 1-1 1s-1-.45-1-1V9c0-.55.45-1 1-1m4-1c0-.55-.45-1-1-1s-1 .45-1 1v10c0 .55.45 1 1 1s1-.45 1-1zm2 3c.55 0 1 .45 1 1v2c0 .55-.45 1-1 1s-1-.45-1-1v-2c0-.55.45-1 1-1M4 11c0-.55-.45-1-1-1s-1 .45-1 1v2c0 .55.45 1 1 1s1-.45 1-1z" clip-rule="evenodd"/></svg>