<svg xmlns="http://www.w3.org/2000/svg" fill="none" viewBox="0 0 24 24"><path fill="currentColor" fill-rule="evenodd" d="M11.23 1.36c.735-.22 1.527-.105 2.219.293 1.107.638 1.527 2.002 1.17 3.147-.052.167-.11.315-.158.438-.043.11-.092.234-.12.318a1.15 1.15 0 0 0-.065.501c.013.153.056.217.095.26.055.06.153.13.35.224q.143.066.326.142c.12.051.257.11.396.175.278.133.648.361.936.637.239.227.562.535.824.984.28.48.473 1.08.54 1.892.117.414.372 1.314.49 1.841.09.41.182.871.262 1.366H15.5a.75.75 0 0 0 0 1.5h3.185a15 15 0 0 1 .013 2.667l-3.196-.007a.75.75 0 0 0-.004 1.5l3.007.007c-.11.637-.243 1.201-.369 1.663-.313 1.154-1.375 1.842-2.49 1.842H8.354c-1.115 0-2.177-.688-2.49-1.842-.286-1.055-.614-2.644-.614-4.408 0-1.576.262-3.134.518-4.288.117-.527.371-1.426.49-1.84.064-.776.32-1.803 1.25-2.803.464-.499 1.072-.73 1.46-.878q.108-.041.19-.075c.206-.086.326-.155.408-.23a.67.67 0 0 0 .19-.35c.02-.071.02-.162-.02-.317-.033-.128-.078-.245-.138-.402l-.086-.227c-.194-.526-.419-1.28-.007-2.172.366-.791.983-1.335 1.724-1.557m.432 1.437c-.295.089-.592.315-.793.75-.153.33-.105.597.052 1.024l.268.768c.08.304.127.673.02 1.078a2.16 2.16 0 0 1-.624 1.07 2.8 2.8 0 0 1-.847.513q-.182.076-.33.134c-.368.145-.593.234-.8.457a3.15 3.15 0 0 0-.706 1.159h8.221a2.2 2.2 0 0 0-.213-.514c-.153-.262-.336-.437-.592-.683a2 2 0 0 0-.518-.34 9 9 0 0 0-.337-.149c-.113-.048-.257-.109-.381-.167-.257-.122-.567-.293-.821-.574a1.9 1.9 0 0 1-.477-1.134c-.04-.447.033-.8.136-1.107l.27-.73c.172-.553-.06-1.152-.488-1.399-.37-.213-.738-.246-1.04-.156" clip-rule="evenodd"/></svg>