<svg xmlns="http://www.w3.org/2000/svg" fill="none" viewBox="0 0 24 24"><path fill="currentColor" fill-rule="evenodd" d="M11.35 3.652a.75.75 0 0 1 .664-.402c1.915 0 3.253 1.37 3.982 2.945.733 1.58.959 3.56.557 5.205-.33 1.412-.873 2.603-1.726 3.546-.857.948-1.984 1.596-3.397 1.993a5.9 5.9 0 0 1-2.338.143c-.755-.101-1.529-.352-2.094-.802l-.027-.022-.025-.02-.03-.025-.038-.033-.03-.026-.023-.021-.004-.005-.002-.002-.003-.003-.038-.034-.002-.002v-.001l-.015-.014-.01-.009-.028-.027q-.315.417-.538.91c-.334.749-.516 1.701-.4 2.987a.75.75 0 1 1-1.494.134c-.135-1.501.07-2.716.524-3.732a6.3 6.3 0 0 1 1.036-1.603 5.6 5.6 0 0 1-.402-1.449c-.147-1.031-.036-2.143.364-3.078.792-1.85 2.356-2.338 3.579-2.673l.234-.064.451-.124a5.5 5.5 0 0 0 .9-.324c.398-.195.677-.44.855-.83l.01-.024c.093-.186.094-.481-.029-.87a3.8 3.8 0 0 0-.412-.863l-.005-.008v.001a.81.81 0 0 1-.047-.774M8.422 6.25H4A2.75 2.75 0 0 0 1.25 9v9c0 .887.66 1.619 1.514 1.734-.076-1.52.161-2.845.68-4.01.209-.467.453-.888.72-1.27a7 7 0 0 1-.17-.757c-.223-1.323-.109-2.8.44-4.082.94-2.194 2.716-2.972 3.989-3.365m-1.148 13.5H17A2.75 2.75 0 0 0 19.75 17v-.85l1.56-.27a1.75 1.75 0 0 0 1.452-1.725V11.86a1.75 1.75 0 0 0-1.465-1.727l-1.547-.255V8A1.75 1.75 0 0 0 18 6.25h-.359c.635 1.729.799 3.74.371 5.498-.37 1.58-1.004 3.023-2.072 4.204-1.083 1.196-2.474 1.973-4.104 2.431-.96.27-2.002.312-2.943.186a6.8 6.8 0 0 1-1.542-.39c-.09.407-.131.917-.076 1.571m13.78-5.348-1.305.226v-3.23l1.302.214c.12.02.21.125.21.247v2.297a.25.25 0 0 1-.208.246" clip-rule="evenodd"/></svg>