<svg xmlns="http://www.w3.org/2000/svg" fill="none" viewBox="0 0 24 24"><path fill="currentColor" fill-rule="evenodd" d="M1.25 8A2.75 2.75 0 0 1 4 5.25h13A2.75 2.75 0 0 1 19.75 8v.866l1.541.26a1.75 1.75 0 0 1 1.46 1.726v2.296a1.75 1.75 0 0 1-1.46 1.726l-1.541.26V16A2.75 2.75 0 0 1 17 18.75H4A2.75 2.75 0 0 1 1.25 16zm18.5 5.613 1.292-.218a.25.25 0 0 0 .208-.247v-2.296a.25.25 0 0 0-.208-.247l-1.292-.218zM6 9.25a.75.75 0 0 1 .75.75v4a.75.75 0 0 1-1.5 0v-4A.75.75 0 0 1 6 9.25m3.75.75a.75.75 0 0 0-1.5 0v4a.75.75 0 0 0 1.5 0zM12 9.25a.75.75 0 0 1 .75.75v4a.75.75 0 0 1-1.5 0v-4a.75.75 0 0 1 .75-.75" clip-rule="evenodd"/></svg>