<svg xmlns="http://www.w3.org/2000/svg" fill="none" viewBox="0 0 24 24"><path fill="currentColor" fill-rule="evenodd" d="M12 1.25C6.063 1.25 1.25 6.063 1.25 12S6.063 22.75 12 22.75 22.75 17.937 22.75 12 17.937 1.25 12 1.25m.75 5.25a.75.75 0 0 0-1.5 0v.75H9a.75.75 0 0 0 0 1.5h.25v6.5H9a.75.75 0 0 0 0 1.5h2.25v.75a.75.75 0 0 0 1.5 0v-.75H13A2.75 2.75 0 0 0 14.887 12 2.75 2.75 0 0 0 13 7.25h-.25zm-2 4.75v-2.5H13a1.25 1.25 0 1 1 0 2.5zm0 1.5H13a1.25 1.25 0 1 1 0 2.5h-2.25z" clip-rule="evenodd"/></svg>