<svg xmlns="http://www.w3.org/2000/svg" fill="none" viewBox="0 0 24 24"><path fill="currentColor" fill-rule="evenodd" d="M5.088 1.191A1 1 0 0 0 3.912 2.81l5.5 4a1 1 0 0 0 1.295-.102L14 3.414 17.586 7H16.5a1 1 0 0 0 0 2H20a1 1 0 0 0 1-1V4.5a1 1 0 1 0-2 0v1.086l-4.293-4.293a1 1 0 0 0-1.414 0L9.897 4.689zM3.25 15.5a7.25 7.25 0 1 1 14.5 0 7.25 7.25 0 0 1-14.5 0m7.25-4.25a.75.75 0 0 1 .75.75v.25a2 2 0 0 1 1.561 3.25 2 2 0 0 1-1.561 3.25V19a.75.75 0 0 1-1.5 0v-.25H8.5a.75.75 0 0 1 0-1.5h.25v-3.5H8.5a.75.75 0 0 1 0-1.5h1.25V12a.75.75 0 0 1 .75-.75m-.25 2.5v1h1a.5.5 0 0 0 0-1zm1 2.5h-1v1h1a.5.5 0 0 0 0-1" clip-rule="evenodd"/></svg>