<svg xmlns="http://www.w3.org/2000/svg" fill="none" viewBox="0 0 24 24"><path fill="currentColor" fill-rule="evenodd" d="M19 1.25H5A2.75 2.75 0 0 0 2.25 4v17.5a.75.75 0 0 0 1.122.651l3.083-1.761 3.11 2.22a.75.75 0 0 0 .87 0l3.11-2.22 3.083 1.761a.75.75 0 0 0 1.122-.651V8.75H21a.75.75 0 0 0 .75-.75V4A2.75 2.75 0 0 0 19 1.25m-1.145 2.247A1.25 1.25 0 0 1 20.25 4v3.25h-2.493q0-.44-.007-.846V4.303a6 6 0 0 1 .059-.576q.022-.128.046-.23M10 6.25a.75.75 0 0 1 .75.75v.25H11A2.25 2.25 0 0 1 12.677 11 2.25 2.25 0 0 1 11 14.75h-.25V15a.75.75 0 0 1-1.5 0v-.25H7.5a.75.75 0 0 1 0-1.5h.25v-4.5H7.5a.75.75 0 0 1 0-1.5h1.75V7a.75.75 0 0 1 .75-.75m-.75 4v-1.5H11a.75.75 0 0 1 0 1.5zm0 1.5H11a.75.75 0 0 1 0 1.5H9.25z" clip-rule="evenodd"/></svg>