<svg xmlns="http://www.w3.org/2000/svg" fill="none" viewBox="0 0 24 24"><path fill="currentColor" fill-rule="evenodd" d="M8.25 3a.25.25 0 0 1 .25-.25h5a.25.25 0 0 1 .25.25v3.75h-5.5zm7 0v3.768c.848.121 1.5.85 1.5 1.732v2.629a2.25 2.25 0 0 0-3.121.621H13a2.25 2.25 0 0 0-1.25 4.121v2.258A2.25 2.25 0 0 0 13 22.25h.629q.19.285.457.5H11A5.75 5.75 0 0 1 5.25 17V8.5a1.75 1.75 0 0 1 1.5-1.732V3c0-.966.784-1.75 1.75-1.75h5c.966 0 1.75.784 1.75 1.75m-4.75.75a.75.75 0 0 0 0 1.5h1a.75.75 0 0 0 0-1.5zM16.25 13a.75.75 0 0 0-1.5 0v.25H13a.75.75 0 0 0 0 1.5h.25v4.5H13a.75.75 0 0 0 0 1.5h1.75V21a.75.75 0 0 0 1.5 0v-.25h.25A2.25 2.25 0 0 0 18.177 17a2.25 2.25 0 0 0-1.677-3.75h-.25zm-1.5 3.25v-1.5h1.75a.75.75 0 0 1 0 1.5zm0 1.5h1.75a.75.75 0 0 1 0 1.5h-1.75z" clip-rule="evenodd"/></svg>