<svg xmlns="http://www.w3.org/2000/svg" fill="none" viewBox="0 0 24 24"><path fill="currentColor" fill-rule="evenodd" d="M2.25 10a8.73 8.73 0 0 0 3 6.595V22c0 .414.336.75.75.75h9a.75.75 0 0 0 .75-.75v-2.65l2.033.254a1.75 1.75 0 0 0 1.967-1.737v-2.992l1.7-1.275a.75.75 0 0 0 .174-1.016l-1.877-2.816A8.75 8.75 0 0 0 2.25 10m9.5-4a.75.75 0 0 0-1.5 0v.25H8.5a.75.75 0 0 0 0 1.5h.25v4.5H8.5a.75.75 0 0 0 0 1.5h1.75V14a.75.75 0 0 0 1.5 0v-.25H12A2.25 2.25 0 0 0 13.677 10 2.25 2.25 0 0 0 12 6.25h-.25zm-1.5 3.25v-1.5H12a.75.75 0 0 1 0 1.5zm0 1.5H12a.75.75 0 0 1 0 1.5h-1.75z" clip-rule="evenodd"/></svg>