<svg xmlns="http://www.w3.org/2000/svg" fill="none" viewBox="0 0 24 24"><path fill="currentColor" fill-rule="evenodd" d="M10.75 2a.75.75 0 0 1 .75-.75h3a.75.75 0 0 1 0 1.5h-3a.75.75 0 0 1-.75-.75M4 3.25a1 1 0 0 0-.98 1.196l1 5a1 1 0 0 0 .482.671l3.365 1.931.334 4.35a1 1 0 0 0-.13.23l-2 5A1 1 0 0 0 7 23h12a1 1 0 0 0 .928-1.371l-2-5a1 1 0 0 0-.13-.231l.897-11.648H20a.75.75 0 0 0 0-1.5zm3.344 2H5.22l.672 3.359 1.79 1.027zm8.156 2h1.498l-.116 1.5H15.5a.75.75 0 0 1 0-1.5m0 3h1.267l-.115 1.5H15.5a.75.75 0 0 1 0-1.5m1.036 3H15.5a.75.75 0 0 0 0 1.5h.92zM8.477 21l1.2-3h6.646l1.2 3z" clip-rule="evenodd"/></svg>