<svg xmlns="http://www.w3.org/2000/svg" fill="none" viewBox="0 0 24 24"><path fill="currentColor" fill-rule="evenodd" d="M3.2 4.17c0-.51-.43-.92-.97-.92s-.98.41-.98.92v1.07c0 .73.31 1.43.86 1.95l.69.65.48 2.37.69 2.42c.19.65.28 1.32.28 1.99v.31c0 .34-.02.69-.07 1.03 0 .01-.01.01-.01.02l-.42 3.94c-.02.21.05.42.19.58s.35.25.56.25h15c.21 0 .42-.09.56-.25s.21-.37.19-.58l-.42-3.94s-.01-.01-.01-.02c-.05-.34-.07-.69-.07-1.03v-.31c0-.67.09-1.34.28-1.99l.69-2.42.48-2.37.69-.65c.55-.52.86-1.22.86-1.95V4.17c0-.51-.44-.92-.98-.92s-.97.41-.97.92v1.07c0 .24-.11.48-.29.65l-.81.76c-.18.17-.43.27-.69.27h-3.59c-.26 0-.51-.1-.69-.27l-2.07-1.78c-.37-.33-.95-.33-1.32 0L9.27 6.65c-.18.17-.43.27-.69.27H4.99c-.26 0-.51-.1-.69-.27l-.81-.76a.9.9 0 0 1-.29-.65zM12.75 11c0-.41-.34-.75-.75-.75s-.75.34-.75.75c0 .69-.56 1.25-1.25 1.25H9c-.41 0-.75.34-.75.75s.34.75.75.75h1c.79 0 1.5-.33 2-.86.5.53 1.21.86 2 .86h1c.41 0 .75-.34.75-.75s-.34-.75-.75-.75h-1c-.69 0-1.25-.56-1.25-1.25M12 15.25c.41 0 .75.34.75.75 0 .69.56 1.25 1.25 1.25h1c.41 0 .75.34.75.75s-.34.75-.75.75h-1c-.79 0-1.5-.33-2-.86-.5.53-1.21.86-2 .86H9c-.41 0-.75-.34-.75-.75s.34-.75.75-.75h1c.69 0 1.25-.56 1.25-1.25 0-.41.34-.75.75-.75" clip-rule="evenodd"/></svg>