<svg xmlns="http://www.w3.org/2000/svg" fill="none" viewBox="0 0 24 24"><path fill="currentColor" fill-rule="evenodd" d="M6.25 2A.75.75 0 0 1 7 1.25h7a.75.75 0 0 1 .53.22l1 1a.75.75 0 0 1-1.06 1.06l-.78-.78h-3.44v1.5h.25c.966 0 1.75.784 1.75 1.75v1.949c1.787.975 3 2.871 3 5.051v8a1.75 1.75 0 0 1-1.75 1.75h-8A1.75 1.75 0 0 1 3.75 21v-8a5.75 5.75 0 0 1 3-5.051V6c0-.966.784-1.75 1.75-1.75h.25v-1.5H7A.75.75 0 0 1 6.25 2m-1 11a4.25 4.25 0 0 1 8.5 0v1.23h-8.5zm12.089-6.732a.75.75 0 0 0-.472.331l-.002.003-.003.006-.012.019a9 9 0 0 0-.185.312 11 11 0 0 0-.414.801 6.5 6.5 0 0 0-.388 1.034c-.09.337-.163.774-.055 1.184.32 1.22 1.533 2.06 2.793 1.716 1.253-.342 1.886-1.676 1.566-2.891-.1-.381-.336-.717-.555-.973a6.4 6.4 0 0 0-.744-.724 11 11 0 0 0-.936-.7l-.017-.012-.006-.003-.002-.002a.75.75 0 0 0-.568-.101" clip-rule="evenodd"/></svg>