<svg xmlns="http://www.w3.org/2000/svg" fill="none" viewBox="0 0 24 24"><path fill="currentColor" fill-rule="evenodd" d="M10.099 4.505c.077-.403.202-.796.375-1.092.152-.26.289-.357.376-.39.065-.024.24-.067.617.109.978.458 1.603 1.16 2.288 1.93l.145.162C14.58 5.985 15.5 7 17 7a1 1 0 1 0 0-2c-.5 0-.868-.28-1.609-1.108l-.167-.19c-.66-.745-1.542-1.742-2.91-2.382-.736-.344-1.48-.427-2.166-.17-.663.25-1.11.754-1.401 1.254-.373.638-.578 1.406-.675 2.097-.197.003-.388.01-.56.03a2 2 0 0 0-.96.347c-.32.23-.506.526-.634.802-.112.24-.21.536-.309.83l-.013.041-.544 1.633a1 1 0 0 0-.041.17 7.75 7.75 0 1 0 7.979 0 1 1 0 0 0-.041-.17l-.544-1.633-.014-.04a8 8 0 0 0-.308-.831 2 2 0 0 0-.634-.802 2 2 0 0 0-.961-.348 5 5 0 0 0-.39-.025m12.608.702L21.914 6l.793.793a1 1 0 0 1-1.414 1.414l-.793-.793-.793.793a1 1 0 1 1-1.414-1.414L19.086 6l-.793-.793a1 1 0 0 1 1.414-1.414l.793.793.793-.793a1 1 0 1 1 1.414 1.414M10.584 7.412l-.077-.228a7 7 0 0 0-.238-.66l-.002-.006h-.006a7 7 0 0 0-.702-.018H8.442c-.371 0-.565.002-.702.017h-.006l-.003.006a7 7 0 0 0-.238.66l-.076.229a7.8 7.8 0 0 1 3.167 0" clip-rule="evenodd"/></svg>