<svg xmlns="http://www.w3.org/2000/svg" fill="none" viewBox="0 0 24 24"><path fill="currentColor" fill-rule="evenodd" d="M12 22.5H5.5a4 4 0 0 1-4-4v-1a1 1 0 1 1 2 0v1a2 2 0 0 0 2 2H11v-.9a1 1 0 1 1 2 0v.9h5.5a2 2 0 0 0 2-2v-1a1 1 0 1 1 2 0v1a4 4 0 0 1-4 4zM22.5 14a1 1 0 1 1-2 0v-1h-.9a1 1 0 1 1 0-2h.9v-1a1 1 0 1 1 2 0zm-19 0a1 1 0 1 1-2 0v-4a1 1 0 1 1 2 0v1h.9a1 1 0 1 1 0 2h-.9zm19-7.75a1 1 0 1 1-2 0V5.5a2 2 0 0 0-2-2h-.75a1 1 0 1 1 0-2h.75a4 4 0 0 1 4 4zm-19 0a1 1 0 1 1-2 0V5.5a4 4 0 0 1 4-4h.75a1 1 0 1 1 0 2H5.5a2 2 0 0 0-2 2zM10 3.5a1 1 0 0 1 0-2h4a1 1 0 1 1 0 2h-1v.9a1 1 0 1 1-2 0v-.9zm3 5.65a1 1 0 1 0-2 0V11H9.15a1 1 0 1 0 0 2H11v1.85a1 1 0 1 0 2 0V13h1.85a1 1 0 1 0 0-2H13z" clip-rule="evenodd"/></svg>