<svg xmlns="http://www.w3.org/2000/svg" fill="none" viewBox="0 0 24 24"><path fill="currentColor" fill-rule="evenodd" d="M12 1.25c-1.797 0-3.13 1.655-2.78 3.412l.429 2.165c.287 1.448.046 2.597-.424 3.732-.24.579-.538 1.149-.866 1.765l-.073.137c-.302.569-.625 1.176-.92 1.826a6.96 6.96 0 0 0-.483 4.22c.189.948.57 2.488 1.211 3.519.321.514.876.724 1.365.724h5.082c.489 0 1.044-.21 1.365-.724.642-1.031 1.022-2.57 1.21-3.518a6.96 6.96 0 0 0-.483-4.22 31 31 0 0 0-.92-1.827l-.072-.137c-.328-.616-.626-1.186-.866-1.765-.47-1.135-.71-2.284-.424-3.731l.43-2.166C15.129 2.905 13.797 1.25 12 1.25m-1.31 3.12A1.35 1.35 0 0 1 12 2.75c.835 0 1.477.775 1.31 1.62l-.43 2.166a7.7 7.7 0 0 0-.15 1.714h-1.46a7.7 7.7 0 0 0-.15-1.714zm-4.94.38c-.652 0-1.083.564-.97 1.112l.358 1.732q.124.607.13 1.156h1.024a4.1 4.1 0 0 1 .07-1.156l.358-1.732c.113-.548-.318-1.112-.97-1.112M3.311 6.165C2.994 4.629 4.208 3.25 5.75 3.25s2.756 1.379 2.439 2.915L7.83 7.897c-.158.767.058 1.41.327 2.208l.053.157a.75.75 0 0 1-.2.787c-.63.588-1.43 1.784-1.894 3.35-.46 1.55-.576 3.416.092 5.357a.75.75 0 0 1-.709.994H3.697c-.474 0-1.03-.198-1.35-.716-.52-.846-.829-2.051-.982-2.793a5.54 5.54 0 0 1 .415-3.484c.247-.525.519-1.015.77-1.47l.062-.11c.273-.493.518-.942.714-1.398.382-.885.573-1.768.343-2.882zm13.97-.303c-.114-.548.317-1.112.969-1.112s1.083.564.97 1.112l-.358 1.732q-.124.607-.13 1.156h-1.023c.028-.36.014-.746-.07-1.156zm.969-2.612c-1.542 0-2.756 1.379-2.439 2.915l.358 1.732c.1.487.048.94-.076 1.412-.067.253-.148.493-.237.754l-.067.199a.75.75 0 0 0 .218.803c1.153 1.006 3.267 4.232 1.781 8.698a.75.75 0 0 0 .712.987h1.803c.474 0 1.03-.198 1.35-.716.52-.846.829-2.051.982-2.793a5.54 5.54 0 0 0-.415-3.484 25 25 0 0 0-.77-1.47l-.061-.11a16 16 0 0 1-.715-1.398c-.382-.885-.573-1.768-.343-2.882l.358-1.732c.317-1.536-.897-2.915-2.439-2.915" clip-rule="evenodd"/></svg>