<svg xmlns="http://www.w3.org/2000/svg" fill="none" viewBox="0 0 24 24"><path fill="currentColor" fill-rule="evenodd" d="M21 1.25c-.867 0-1.535.192-2.076.512-.528.313-.886.72-1.16 1.047-.328.394-.87.911-1.464 1.397-.38.311-.763.593-1.103.813A1 1 0 0 0 15 5H7a1 1 0 0 0-.707.293L4.329 7.256a2.25 2.25 0 1 0 1.956.874L7.415 7H11.5v1.337A5.75 5.75 0 0 0 6.75 14v7c0 .966.784 1.75 1.75 1.75h8A1.75 1.75 0 0 0 18.25 21v-2.25H15a.75.75 0 0 1 0-1.5h3.25v-2.5H15a.75.75 0 0 1 0-1.5h3.201A5.75 5.75 0 0 0 13.5 8.337V7H15q.102 0 .198-.02c.34.22.721.502 1.102.813.594.486 1.136 1.003 1.465 1.397.273.327.63.735 1.159 1.048.54.32 1.208.512 2.076.512a.75.75 0 0 0 .75-.75V2a.75.75 0 0 0-.75-.75" clip-rule="evenodd"/></svg>