<svg xmlns="http://www.w3.org/2000/svg" fill="none" viewBox="0 0 24 24"><path fill="currentColor" fill-rule="evenodd" d="M12 1.25C6.063 1.25 1.25 6.063 1.25 12c0 1.714.44 3.196 1.148 4.569.184.356.227.738.128 1.068l-.71 2.369c-.401 1.335.843 2.58 2.178 2.179l2.37-.711c.33-.099.71-.056 1.068.128 1.372.708 2.854 1.148 4.568 1.148 5.937 0 10.75-4.813 10.75-10.75S17.937 1.25 12 1.25M13 8a1 1 0 1 0-2 0v.5H8a1 1 0 0 0 0 2h2.48a1 1 0 0 0-.95 1.242c.136.545.541 1.455 1.31 2.468a15 15 0 0 1-2.395 1.958 1 1 0 0 0 1.11 1.664 17 17 0 0 0 2.634-2.142q.321.298.686.59a1 1 0 1 0 1.25-1.56 11 11 0 0 1-.632-.549 11.3 11.3 0 0 0 1.796-3.671H16a1 1 0 1 0 0-2h-3zm-1.53 3.258a1 1 0 0 0-.948-.758h2.673c-.26.75-.613 1.45-1.046 2.102-.422-.63-.625-1.129-.679-1.344" clip-rule="evenodd"/></svg>