<svg xmlns="http://www.w3.org/2000/svg" fill="none" viewBox="0 0 24 24"><path fill="currentColor" fill-rule="evenodd" d="M12.75 5.5a5.73 5.73 0 0 1 1.61-3.99c-.76-.17-1.55-.26-2.36-.26C6.063 1.25 1.25 6.063 1.25 12c0 1.714.44 3.196 1.148 4.569.184.356.227.738.128 1.068l-.71 2.369c-.401 1.335.843 2.58 2.178 2.179l2.37-.711c.33-.099.71-.056 1.068.128 1.372.708 2.854 1.148 4.568 1.148 5.525 0 10.076-4.168 10.682-9.531.119-1.058.195-2.556.071-3.85A5.75 5.75 0 0 1 12.75 5.5M7.416 11a1 1 0 1 0 0 2h.008a1 1 0 1 0 0-2zm3.996 0a1 1 0 1 0 0 2h.01a1 1 0 1 0 0-2zM18.5 1.25a4.25 4.25 0 1 0 0 8.5 4.25 4.25 0 0 0 0-8.5" clip-rule="evenodd"/></svg>