<svg xmlns="http://www.w3.org/2000/svg" fill="none" viewBox="0 0 24 24"><path fill="currentColor" fill-rule="evenodd" d="m5.36 10 1.19 10.315a2.75 2.75 0 0 0 2.733 2.435h5.435a2.75 2.75 0 0 0 2.731-2.435L18.64 10H19a1 1 0 1 0 0-2h-.323l-.263-.657a6.9 6.9 0 0 0-2.328-3.005l.833-1.944a1 1 0 1 0-1.838-.788L14.313 3.4a6.91 6.91 0 0 0-8.727 3.944L5.323 8H5a1 1 0 0 0 0 2zm6.642 4a1 1 0 0 1 1-1h.01a1 1 0 1 1 0 2h-.01a1 1 0 0 1-1-1M9 16.5a1 1 0 0 1 1-1h.009a1 1 0 1 1 0 2H10a1 1 0 0 1-1-1m3.991 1.5a1 1 0 0 1 1-1H14a1 1 0 1 1 0 2h-.009a1 1 0 0 1-1-1m3.53-10a4.9 4.9 0 0 0-1.253-1.753L14.517 8zM7.479 8h4.863l1.182-2.758A4.91 4.91 0 0 0 7.478 8" clip-rule="evenodd"/></svg>