<svg xmlns="http://www.w3.org/2000/svg" fill="none" viewBox="0 0 24 24"><path fill="currentColor" fill-rule="evenodd" d="M8.28 2.375a1 1 0 0 0-1.56 1.25l1.51 1.89a7.8 7.8 0 0 0-1.815 1.902l.734.447.006.004C8.511 8.735 10.183 9.25 12 9.25c1.814 0 3.484-.514 4.84-1.378l.727-.482a7.8 7.8 0 0 0-1.797-1.876l1.512-1.89a1 1 0 1 0-1.562-1.249L13.964 4.57A6.2 6.2 0 0 0 12 4.25a6.2 6.2 0 0 0-1.964.32zM4 6.5a1 1 0 1 0-2 0c0 1.927.89 3.956 2.9 4.733q-.107.622-.138 1.267H3a1 1 0 0 0 0 2h1.858c.1.7.272 1.378.505 2.018C3.73 17.424 3 19.254 3 21a1 1 0 1 0 2 0c0-1.197.44-2.167 1.247-2.673C7.55 20.385 9.601 21.75 12 21.75s4.45-1.365 5.753-3.423C18.559 18.833 19 19.803 19 21a1 1 0 1 0 2 0c0-1.746-.731-3.576-2.363-4.482.233-.64.404-1.317.505-2.018H21a1 1 0 1 0 0-2h-1.762q-.03-.645-.138-1.267C21.11 10.456 22 8.427 22 6.5a1 1 0 1 0-2 0c0 1.289-.51 2.314-1.439 2.78a10 10 0 0 0-.25-.585l-.66.437a10.4 10.4 0 0 1-4.902 1.593V13.5a.75.75 0 0 1-1.5 0v-2.775a10.4 10.4 0 0 1-4.895-1.588l-.678-.414a10 10 0 0 0-.237.557C4.51 8.814 4 7.79 4 6.5" clip-rule="evenodd"/></svg>