<svg xmlns="http://www.w3.org/2000/svg" fill="none" viewBox="0 0 24 24"><path fill="currentColor" fill-rule="evenodd" d="M6.11 3.79a2.75 2.75 0 0 1 2.742-2.54h6.296a2.75 2.75 0 0 1 2.742 2.54l.242 3.142a1.25 1.25 0 0 0 1 1.13l.417.083a1.72 1.72 0 0 1 1.335 1.26c.202.792.56 2.316.747 3.845H19.75a.75.75 0 0 0 0 1.5h1.997l.003.25c0 .7-.058 1.456-.192 2.25H19.75a.75.75 0 0 0 0 1.5h1.47c-.189.671-.435 1.36-.749 2.054-.574 1.274-1.873 1.946-3.17 1.946H6.7c-1.297 0-2.596-.672-3.17-1.946a15 15 0 0 1-.75-2.054h1.47a.75.75 0 0 0 0-1.5H2.442a13.5 13.5 0 0 1-.189-2.5H4.25a.75.75 0 0 0 0-1.5H2.37c.185-1.529.544-3.053.746-3.846a1.72 1.72 0 0 1 1.335-1.26l.416-.082a1.25 1.25 0 0 0 1.001-1.13zM10 12.75a.25.25 0 0 0-.25.25v4c0 .138.112.25.25.25h4a.25.25 0 0 0 .25-.25v-4a.25.25 0 0 0-.25-.25zM8.25 13c0-.966.784-1.75 1.75-1.75h4c.966 0 1.75.784 1.75 1.75v4A1.75 1.75 0 0 1 14 18.75h-4A1.75 1.75 0 0 1 8.25 17zm.965-9.86c-.095-.185.049-.39.256-.39h5.054c.207 0 .351.205.256.39a3.129 3.129 0 0 1-5.566 0" clip-rule="evenodd"/></svg>