<svg xmlns="http://www.w3.org/2000/svg" fill="none" viewBox="0 0 24 24"><path fill="currentColor" fill-rule="evenodd" d="M9.5 3.5A2.5 2.5 0 1 1 13 5.792v2.849q.196-.264.398-.556c.752-1.091 1.49-2.38 1.911-3.377a.75.75 0 0 1 1.272-.182c.783.96 1.989 1.91 3.128 2.626.565.355 1.096.642 1.53.837q.325.146.543.213c.143.044.21.051.217.052a.75.75 0 0 1 .701 1.02c-.253.657-.764 1.431-1.438 2.139-.68.713-1.562 1.399-2.59 1.841-1.035.445-2.228.649-3.492.366-.73-.163-1.46-.483-2.18-.983v1.428c.42.053.834.138 1.226.249.69.195 1.378.492 1.896.903a1 1 0 0 1-1.244 1.566c-.236-.187-.65-.39-1.197-.545A6.3 6.3 0 0 0 12 16c-.825 0-1.522.193-1.979.454-.485.277-.521.507-.521.546s.036.269.521.546c.457.26 1.154.454 1.979.454.95 0 1.86.19 2.569.545.649.324 1.431.958 1.431 1.955s-.782 1.63-1.431 1.955C13.859 22.81 12.95 23 12 23a7 7 0 0 1-2.15-.332c-.602-.2-1.274-.536-1.667-1.09a1 1 0 1 1 1.634-1.155c.002.002.041.051.162.125.12.073.287.15.5.221.427.141.967.231 1.521.231.707 0 1.297-.145 1.674-.334.133-.066.216-.123.266-.166-.05-.043-.133-.1-.266-.166C13.297 20.145 12.707 20 12 20c-1.108 0-2.16-.255-2.971-.718C8.247 18.836 7.5 18.066 7.5 17s.747-1.836 1.529-2.283c.561-.32 1.239-.541 1.971-.646v-1.434c-.72.5-1.45.82-2.18.983-1.264.283-2.457.08-3.491-.366-1.029-.442-1.911-1.128-2.59-1.841-.675-.708-1.186-1.482-1.439-2.14A.75.75 0 0 1 2 8.254c.008 0 .075-.008.218-.052q.217-.067.544-.213c.433-.195.964-.482 1.53-.837 1.138-.716 2.344-1.666 3.127-2.626a.75.75 0 0 1 1.272.182c.42.998 1.16 2.286 1.911 3.377q.202.292.398.556V5.792A2.5 2.5 0 0 1 9.5 3.5m4.512 17.08-.001-.003zm-.001-.157q0-.003.002-.003z" clip-rule="evenodd"/></svg>