<svg xmlns="http://www.w3.org/2000/svg" fill="none" viewBox="0 0 24 24"><path fill="currentColor" fill-rule="evenodd" d="M6 1a1 1 0 0 1 1 1v1h10V2a1 1 0 1 1 2 0v1h.5a3 3 0 0 1 3 3v6.5a1 1 0 1 1-2 0v-3h-17V20a1 1 0 0 0 1 1h6a1 1 0 1 1 0 2h-6a3 3 0 0 1-3-3V6a3 3 0 0 1 3-3H5V2a1 1 0 0 1 1-1m11.252 12.227c.3 0 .572.172.7.443l1.094 2.315 2.52.207a.775.775 0 0 1 .477 1.327l-1.822 1.779.522 2.548a.775.775 0 0 1-1.129.837l-2.362-1.281-2.363 1.28a.775.775 0 0 1-1.129-.836l.522-2.548-1.822-1.779a.775.775 0 0 1 .478-1.327l2.52-.207 1.093-2.315a.78.78 0 0 1 .7-.443" clip-rule="evenodd"/></svg>