<svg xmlns="http://www.w3.org/2000/svg" fill="none" viewBox="0 0 24 24"><path fill="currentColor" fill-rule="evenodd" d="M6 1a1 1 0 0 1 1 1v.5h10V2a1 1 0 1 1 2 0v.5h.5a3 3 0 0 1 3 3V20a3 3 0 0 1-3 3h-15a3 3 0 0 1-3-3V5.5a3 3 0 0 1 3-3H5V2a1 1 0 0 1 1-1m6 11.25a.75.75 0 0 0-.75.75v.75h1.5V13a.75.75 0 0 0-.75-.75m2.25 1.5V13a2.25 2.25 0 0 0-4.5 0v.75H9a.75.75 0 0 0-.75.75V19c0 .414.336.75.75.75h6a.75.75 0 0 0 .75-.75v-4.5a.75.75 0 0 0-.75-.75zM3.5 20V9.5h17V20a1 1 0 0 1-1 1h-15a1 1 0 0 1-1-1" clip-rule="evenodd"/></svg>