<svg xmlns="http://www.w3.org/2000/svg" fill="none" viewBox="0 0 24 24"><path fill="currentColor" fill-rule="evenodd" d="M6.513 2.793a2 2 0 0 0-3.203-.52L1.877 3.708a2.88 2.88 0 0 0-.858 2.169c.443 9.244 7.858 16.66 17.103 17.103a2.88 2.88 0 0 0 2.169-.858l1.433-1.433a2 2 0 0 0-.52-3.203l-4.114-2.057a2 2 0 0 0-2.309.374l-3.317 3.317a16.07 16.07 0 0 1-6.585-6.586l3.316-3.317a2 2 0 0 0 .375-2.308zM15 3.5a1 1 0 1 0-2 0v6a1 1 0 1 0 2 0zm5 0a1 1 0 1 0-2 0v6a1 1 0 1 0 2 0z" clip-rule="evenodd"/></svg>