<svg xmlns="http://www.w3.org/2000/svg" fill="none" viewBox="0 0 24 24"><path fill="currentColor" fill-rule="evenodd" d="M13 4a1 1 0 1 0-2 0v3a1 1 0 1 0 2 0zM6.707 6.293a1 1 0 0 0-1.414 1.414l2 2a1 1 0 0 0 1.414-1.414zm12 0a1 1 0 0 0-1.414 0l-2 2a1 1 0 0 0 1.414 1.414l2-2a1 1 0 0 0 0-1.414m3.429 9.842c-5.75-5.513-14.522-5.513-20.272 0A2.86 2.86 0 0 0 1 18.21v1.41a2 2 0 0 0 2.624 1.9l3.454-1.134a2 2 0 0 0 1.377-1.9V14.52a12.35 12.35 0 0 1 7.09 0v3.94a2 2 0 0 0 1.368 1.898l3.454 1.152A2 2 0 0 0 23 19.612V18.21a2.86 2.86 0 0 0-.864-2.075" clip-rule="evenodd"/></svg>