<svg xmlns="http://www.w3.org/2000/svg" fill="none" viewBox="0 0 24 24"><path fill="currentColor" fill-rule="evenodd" d="M16.75 2a.75.75 0 0 0-1.016-.701c-.786.298-1.309.416-1.782.415-.469 0-.956-.119-1.67-.409A.75.75 0 0 0 11.25 2v5.25h-.75a.75.75 0 0 0-.696.471l-.749 1.872a.25.25 0 0 1-.232.157h-.646a.25.25 0 0 1-.232-.157L7.196 7.72a.75.75 0 0 0-.696-.47H4a.75.75 0 0 0-.748.697l-1 14A.75.75 0 0 0 3 22.75h5.088l1.016-5.092a1.75 1.75 0 0 1 1.716-1.408h2.363c.832 0 1.55.586 1.715 1.402l1.034 5.098H21a.75.75 0 0 0 .748-.803l-1-14A.75.75 0 0 0 20 7.25h-2.5a.75.75 0 0 0-.696.471l-.749 1.872a.25.25 0 0 1-.232.157h-.646a.25.25 0 0 1-.232-.157l-.749-1.872a.75.75 0 0 0-.696-.471h-.75V5.937c.761.04 1.555-.188 2.215-.612C15.973 4.676 16.75 3.527 16.75 2m-2.348 20.75-.974-4.8a.25.25 0 0 0-.245-.2H10.82a.25.25 0 0 0-.245.201l-.957 4.799zM10.25 14a.75.75 0 0 1 .75-.75h2a.75.75 0 0 1 0 1.5h-2a.75.75 0 0 1-.75-.75" clip-rule="evenodd"/></svg>