<svg xmlns="http://www.w3.org/2000/svg" fill="none" viewBox="0 0 24 24"><path fill="currentColor" fill-rule="evenodd" d="m16.928 3.726.637 6.375-.16-.07a14.05 14.05 0 0 0-10.968.07l.638-6.375A2.75 2.75 0 0 1 9.811 1.25h4.38a2.75 2.75 0 0 1 2.737 2.476m-9.832 7.505a12.75 12.75 0 0 1 9.808 0A3 3 0 0 1 18.75 14v1a.75.75 0 0 1-.75.75h-.745l1.707 5.976a1 1 0 0 1-1.923.549l-1.865-6.525H8.827l-1.864 6.525a1 1 0 0 1-1.923-.55l1.707-5.975H6a.75.75 0 0 1-.75-.75v-1a3 3 0 0 1 1.846-2.77" clip-rule="evenodd"/></svg>