<svg xmlns="http://www.w3.org/2000/svg" fill="none" viewBox="0 0 24 24"><path fill="currentColor" fill-rule="evenodd" d="M16 1a1 1 0 0 1 1 1v2a1 1 0 1 1-2 0V2a1 1 0 0 1 1-1m5.209 1.795a1 1 0 0 1-.004 1.414l-1.5 1.493a1 1 0 1 1-1.41-1.418l1.5-1.493a1 1 0 0 1 1.414.004M19 8a1 1 0 0 1 1-1h2a1 1 0 1 1 0 2h-2a1 1 0 0 1-1-1M4.445 3.5a1 1 0 0 0-1 1v9.469c3.526-.233 6.366-1.735 8.39-3.266.39-.296.75-.592 1.075-.879l-1.117-1.117A1 1 0 0 1 12.5 7H16a1 1 0 0 1 1 1v3.5a1 1 0 0 1-1.707.707l-.966-.966c-.386.343-.815.7-1.286 1.056-2.253 1.705-5.506 3.44-9.596 3.676V19.5a1 1 0 0 0 1 1h15a1 1 0 0 0 1-1V12a1 1 0 1 1 2 0v7.5a3 3 0 0 1-3 3h-15a3 3 0 0 1-3-3v-15a3 3 0 0 1 3-3h7.556a1 1 0 1 1 0 2z" clip-rule="evenodd"/></svg>