<svg xmlns="http://www.w3.org/2000/svg" fill="none" viewBox="0 0 24 24"><path fill="currentColor" fill-rule="evenodd" d="M16.247 1.75c-.55 0-1 .45-1 1v.01c0 .55.45 1 1 1h.61c-.49.45-1.16 1.01-2.01 1.63-2.23 1.63-5.76 3.7-10.91 5.42a1 1 0 0 0-.63 1.26 1 1 0 0 0 1.26.63c5.35-1.78 9.07-3.95 11.46-5.7.94-.69 1.67-1.31 2.22-1.81v.56c0 .55.45 1 1 1s1-.45 1-1v-3c0-.55-.45-1-1-1zm2.253 7c-.97 0-1.75.78-1.75 1.75v10c0 .97.78 1.75 1.75 1.75h1c.97 0 1.75-.78 1.75-1.75v-10c0-.97-.78-1.75-1.75-1.75zm-7 3.5c-.97 0-1.75.78-1.75 1.75v6.5c0 .97.78 1.75 1.75 1.75h1c.97 0 1.75-.78 1.75-1.75V14c0-.97-.78-1.75-1.75-1.75zM2.75 16.5c0-.97.78-1.75 1.75-1.75h1c.97 0 1.75.78 1.75 1.75v4c0 .97-.78 1.75-1.75 1.75h-1c-.97 0-1.75-.78-1.75-1.75z" clip-rule="evenodd"/></svg>