<svg xmlns="http://www.w3.org/2000/svg" fill="none" viewBox="0 0 24 24"><path fill="currentColor" fill-rule="evenodd" d="M6 4.25c.667 0 1.302.138 1.88.386A4.75 4.75 0 0 1 12 2.25c1.764 0 3.302.96 4.12 2.386a4.75 4.75 0 1 1 2.63 9.055l.003 2.043-.372-.16-.016-.006c-1.735-.675-3.962-1.068-6.362-1.068s-4.628.393-6.363 1.068l-.39.157V13.69A4.751 4.751 0 0 1 6 4.25m11.624 13.176 1.133.486.003 1.965q.285.084.557.174a1 1 0 0 1-.633 1.898C16.94 21.367 14.6 21 12 21s-4.94.367-6.683.949a1 1 0 1 1-.633-1.898q.276-.092.566-.176V17.88l1.12-.45c1.462-.568 3.434-.93 5.632-.93 2.193 0 4.161.36 5.622.926" clip-rule="evenodd"/></svg>