<svg xmlns="http://www.w3.org/2000/svg" fill="none" viewBox="0 0 24 24"><path fill="currentColor" fill-rule="evenodd" d="M9.25 5A3.75 3.75 0 0 1 13 1.25h4a.75.75 0 0 1 0 1.5h-4A2.25 2.25 0 0 0 10.75 5a.75.75 0 0 1-1.5 0m10-3a.75.75 0 0 1 .75-.75h1a.75.75 0 0 1 0 1.5h-1a.75.75 0 0 1-.75-.75M6.5 7.25a.75.75 0 0 0-.75.75c0 2.941-.406 6.244-.982 8.837l-.003.016-.88 4.397H3a.75.75 0 1 0 0 1.5h14a.75.75 0 0 0 .75-.75v-.01l-.001-.034A.75.75 0 0 0 17 21.25h-.885l-.88-4.397-.003-.016c-.576-2.59-.982-6.187-.982-8.837a.75.75 0 0 0-.75-.75zm6.5-3a.75.75 0 0 0 0 1.5h6a.75.75 0 0 0 0-1.5z" clip-rule="evenodd"/></svg>