<svg xmlns="http://www.w3.org/2000/svg" fill="none" viewBox="0 0 24 24"><path fill="currentColor" fill-rule="evenodd" d="M13.288 2.06a2 2 0 0 1 2.865-.037l5.828 5.829a2 2 0 0 1-.037 2.865l-4.17 3.957a1 1 0 0 1 .026 1.234L15.03 19.6a1 1 0 0 1-1.694-.153l-1.611-3.223-2.713-.388a1 1 0 0 1-.848-.848l-.388-2.713-3.223-1.611A1 1 0 0 1 4.4 8.969L8.092 6.2a1 1 0 0 1 1.239.03zm4.344 9.992-1.27 1.204-2.1-2.1L15.5 9.919zm-3.547-3.547-1.237 1.237-2.1-2.1 1.205-1.27zM13.33 4.92l2.17 2.17 1.446-1.446-2.208-2.207zm5.03 2.138-1.446 1.446 2.17 2.17 1.483-1.409zM3.882 12.014a3 3 0 0 1-.194-.108L2 13.594a2 2 0 0 0 0 2.829l5.586 5.586a2 2 0 0 0 2.828 0l1.688-1.688a3 3 0 0 1-.107-.194l-1.26-2.52L8.8 17.33a2.5 2.5 0 0 1-2.121-2.121l-.276-1.934z" clip-rule="evenodd"/></svg>