<svg xmlns="http://www.w3.org/2000/svg" fill="none" viewBox="0 0 24 24"><path fill="currentColor" fill-rule="evenodd" d="m16.18 2.32.73.73c.42.43.43 1.11.01 1.53l-2.47 2.49-2.14-2.14 2.32-2.58c.41-.46 1.12-.47 1.55-.03M11.3 6.05l2.09 2.08L3.38 18.2c-.42.42-1.1.41-1.52-.01l-.04-.04c-.41-.41-.43-1.07-.05-1.49zm5.1 4 2.08 2.09-10.56 9.59c-.42.38-1.07.36-1.48-.05l-.04-.04c-.42-.42-.43-1.11-.01-1.53zm1.05-1.06 2.14 2.14 2.56-2.33c.46-.41.47-1.12.03-1.56l-.73-.73c-.42-.42-1.1-.43-1.52-.01z" clip-rule="evenodd"/></svg>