<svg xmlns="http://www.w3.org/2000/svg" fill="none" viewBox="0 0 24 24"><path fill="currentColor" fill-rule="evenodd" d="m4.322 4.476 3.1 5.51A5 5 0 0 1 12 7h9.519A10.75 10.75 0 0 0 12 1.25a10.72 10.72 0 0 0-7.678 3.226M2.974 6.16A10.7 10.7 0 0 0 1.25 12c0 5.154 3.626 9.46 8.467 10.507l3.014-5.56a5 5 0 0 1-5.068-2.456zM16 8.999h6.326c.276.953.424 1.96.424 3.001 0 5.937-4.813 10.75-10.75 10.75h-.14l4.495-8.292c.41-.726.645-1.565.645-2.458a4.98 4.98 0 0 0-1-3m-4 0a3 3 0 1 0 0 6 3 3 0 0 0 0-6" clip-rule="evenodd"/></svg>