<svg xmlns="http://www.w3.org/2000/svg" fill="none" viewBox="0 0 24 24"><path fill="currentColor" fill-rule="evenodd" d="M5 6.5a5.5 5.5 0 1 1 11 0v3.04a7.8 7.8 0 0 1 1.58 2.303 6.25 6.25 0 0 0-5.357 10.715A7.75 7.75 0 0 1 5 9.539zm2 1.583a7.7 7.7 0 0 1 3.5-.833c1.26 0 2.449.3 3.5.833V6.5a3.5 3.5 0 1 0-7 0zm9.5 5.167a4.75 4.75 0 1 0 0 9.5 4.75 4.75 0 0 0 0-9.5m.75 3.25a.75.75 0 0 0-1.5 0v.75H15a.75.75 0 0 0 0 1.5h.75v.75a.75.75 0 0 0 1.5 0v-.75H18a.75.75 0 0 0 0-1.5h-.75z" clip-rule="evenodd"/></svg>