<svg xmlns="http://www.w3.org/2000/svg" fill="none" viewBox="0 0 24 24"><path fill="currentColor" fill-rule="evenodd" d="M1 12C1 5.925 5.925 1 12 1c4.076 0 7.601 2.217 9.49 5.501.397.69.721 1.426.964 2.2A1 1 0 0 1 21.5 10H19a1 1 0 0 1-.776-1.63l1.173-1.446A8.91 8.91 0 0 0 12 3a9 9 0 0 0 0 18 1 1 0 0 1 0 2C5.925 23 1 18.075 1 12m11-5a1 1 0 0 1 1 1v3.586l1.707 1.707a1 1 0 0 1-1.414 1.414l-2-2A1 1 0 0 1 11 12V8a1 1 0 0 1 1-1m11 5a1 1 0 1 0-2 0q0 .46-.04.91a1 1 0 1 0 1.991.18q.05-.54.05-1.09m-.759 4.199a1 1 0 0 0-1.872-.705q-.203.54-.466 1.045a1 1 0 0 0 1.776.922q.316-.61.562-1.262m-2.339 3.788a1 1 0 0 0-1.466-1.36q-.415.446-.88.832a1 1 0 1 0 1.274 1.54q.569-.47 1.072-1.012m-3.485 2.53a1 1 0 0 0-.833-1.819q-.437.2-.896.352a1 1 0 0 0 .625 1.9q.565-.187 1.104-.433" clip-rule="evenodd"/></svg>