<svg xmlns="http://www.w3.org/2000/svg" fill="none" viewBox="0 0 24 24"><path fill="currentColor" fill-rule="evenodd" d="M10.19 1.66a.75.75 0 0 0-.925-.37l-2.509.907-3.004 1.096a.75.75 0 0 0-.49.63l-.897 8.896a1.75 1.75 0 0 0 1.748 1.926l1.524-.006-.274 5.113a2.75 2.75 0 0 0 2.746 2.897h7.79a2.75 2.75 0 0 0 2.748-2.882l-.247-5.112 1.503-.003a1.75 1.75 0 0 0 1.738-1.917l-.85-8.918a.75.75 0 0 0-.491-.633L17.288 2.19l-2.503-.897a.75.75 0 0 0-.92.363 1.9 1.9 0 0 1-.53.654c-.265.205-.68.403-1.347.422-1.092.03-1.609-.696-1.798-1.073m-.98 1.244a.3.3 0 0 1 .038.094c0 3-.127 5.917-.665 8.069-.27 1.076-.625 1.891-1.063 2.424q-.159.195-.333.338l.546-10.39zm6.203 8.162c-.536-2.146-.664-5.053-.665-8.046q.049-.057.093-.114l1.467.525.545 10.434a2.4 2.4 0 0 1-.377-.374c-.438-.533-.794-1.348-1.063-2.424" clip-rule="evenodd"/></svg>