<svg xmlns="http://www.w3.org/2000/svg" fill="none" viewBox="0 0 24 24"><path fill="currentColor" fill-rule="evenodd" d="m21.283 8.036.352-.353a2.95 2.95 0 0 0 0-4.175l-1.143-1.143a2.95 2.95 0 0 0-4.175 0l-.353.352-.757-.757a1 1 0 1 0-1.414 1.415l6.832 6.832a1 1 0 0 0 1.415-1.414zm-7.076-2.243a1 1 0 0 1 0 1.414L8.914 12.5h5.172l2.707-2.707a1 1 0 1 1 1.414 1.414L7.793 21.621a3 3 0 0 1-2.121.879H2.5a1 1 0 0 1-1-1v-3.172a3 3 0 0 1 .879-2.12L12.793 5.792a1 1 0 0 1 1.414 0" clip-rule="evenodd"/></svg>