<svg xmlns="http://www.w3.org/2000/svg" fill="none" viewBox="0 0 24 24"><path fill="currentColor" fill-rule="evenodd" d="M8.232 1.61a1 1 0 0 1 1.408-.128L12 3.448l2.36-1.966a1 1 0 0 1 1.28 1.536l-3 2.5a1 1 0 0 1-1.28 0l-3-2.5a1 1 0 0 1-.128-1.408M13.25 8a1.75 1.75 0 0 1 1.752-1.75l5 .007a1.75 1.75 0 0 1 1.748 1.75v12.992a1.75 1.75 0 0 1-1.75 1.75h-5a1.75 1.75 0 0 1-1.75-1.75zM4.002 6.25A1.75 1.75 0 0 0 2.25 8v12.999c0 .966.784 1.75 1.75 1.75h5a1.75 1.75 0 0 0 1.75-1.75V8.007a1.75 1.75 0 0 0-1.748-1.75z" clip-rule="evenodd"/></svg>