<svg xmlns="http://www.w3.org/2000/svg" fill="none" viewBox="0 0 24 24"><path fill="currentColor" fill-rule="evenodd" d="M18.504 1.007a4.5 4.5 0 1 0 0 9 4.5 4.5 0 0 0 0-9m-2.7 4.5c0-.417.094-.812.263-1.164l3.601 3.6a2.7 2.7 0 0 1-3.864-2.437M20.94 6.67l-3.6-3.6a2.7 2.7 0 0 1 3.601 3.6m-6.675-5.423-.01.01a6 6 0 1 0 8.485 8.485l.007-.007v6.26a2.75 2.75 0 0 1-2.75 2.75h-8.255l-3.715 2.7c-1.156.842-2.779.016-2.779-1.415v-1.286H4a2.75 2.75 0 0 1-2.75-2.75V3.998A2.75 2.75 0 0 1 4 1.248zM7.249 8a.75.75 0 0 1 .75-.75h2.5a.75.75 0 0 1 0 1.5h-2.5a.75.75 0 0 1-.75-.75m0 5a.75.75 0 0 1 .75-.75h6a.75.75 0 0 1 0 1.5h-6a.75.75 0 0 1-.75-.75" clip-rule="evenodd"/></svg>