<svg xmlns="http://www.w3.org/2000/svg" fill="none" viewBox="0 0 24 24"><path fill="currentColor" fill-rule="evenodd" d="M1 5a4 4 0 0 1 4-4h14a4 4 0 0 1 4 4v10a4 4 0 0 1-4 4h-4.476c-.093.732.085 1.483.46 1.98l.015.02H17a1 1 0 1 1 0 2H7a1 1 0 1 1 0-2h2.001l.016-.02c.374-.497.552-1.248.46-1.98H5a4 4 0 0 1-4-4zm7.808 12H19a2 2 0 0 0 2-2V5a2 2 0 0 0-2-2H5a2 2 0 0 0-2 2v10a2 2 0 0 0 2 2zm4.508-10.948a1 1 0 0 1 .633 1.265l-2 6a1 1 0 0 1-1.898-.633l2-6a1 1 0 0 1 1.265-.632M8.707 7.293a1 1 0 0 1 0 1.414L7.414 10l1.293 1.293a1 1 0 1 1-1.414 1.414l-2-2a1 1 0 0 1 0-1.414l2-2a1 1 0 0 1 1.414 0m6.586 0a1 1 0 0 1 1.414 0l2 2a1 1 0 0 1 0 1.414l-2 2a1 1 0 0 1-1.414-1.414L16.586 10l-1.293-1.293a1 1 0 0 1 0-1.414" clip-rule="evenodd"/></svg>