<svg xmlns="http://www.w3.org/2000/svg" fill="none" viewBox="0 0 24 24"><path fill="currentColor" fill-rule="evenodd" d="M9.596 2.494A1 1 0 0 0 8.24 2.13L4.776 4.097a1 1 0 0 0-.369 1.376C5.443 7.237 4.122 9.533 2 9.533a1 1 0 0 0-1 1v3.934a1 1 0 0 0 2 0V11.43c2.693-.572 4.415-3.404 3.552-6.04l1.904-1.082c1.878 2.085 5.211 2.085 7.09 0L17.45 5.39c-.863 2.636.857 5.468 3.55 6.04v2.142c-2.693.573-4.411 3.405-3.549 6.04l-1.904 1.082c-2.095-2.325-5.999-2.058-7.677.8a1 1 0 1 0 1.724 1.013c1.079-1.837 3.735-1.837 4.813 0a1 1 0 0 0 1.356.364l3.464-1.967a1 1 0 0 0 .369-1.376c-1.036-1.765.284-4.06 2.404-4.06a1 1 0 0 0 1-1v-3.934a1 1 0 0 0-1-1c-2.121 0-3.442-2.295-2.406-4.06a1 1 0 0 0-.368-1.376l-3.464-1.966a1 1 0 0 0-1.357.363c-1.077 1.836-3.731 1.836-4.809 0m4.063 5.847L12 10a1.423 1.423 0 0 0 0 2 1.423 1.423 0 0 0 2 0l1.659-1.658a.2.2 0 0 1 .341.142V14c0 1-1 2-2 2h-3l-5.41 5.384a2.103 2.103 0 0 1-2.974-2.974L8 13v-3c0-1 1-2 2-2h3.517a.2.2 0 0 1 .142.341" clip-rule="evenodd"/></svg>