<svg xmlns="http://www.w3.org/2000/svg" fill="none" viewBox="0 0 24 24"><path fill="currentColor" fill-rule="evenodd" d="M11.207.793a1 1 0 1 0-1.414 1.414L11 3.414V5a1 1 0 1 0 2 0V3.414l1.207-1.207A1 1 0 0 0 12.793.793L12 1.586zM2.5 11a1 1 0 1 0 0 2h1l-1.8 2.4a1 1 0 0 0 .8 1.6h3a1 1 0 1 0 0-2h-1l1.8-2.4a1 1 0 0 0-.8-1.6zm15.293.793a1 1 0 0 1 1.414 0l.793.793.793-.793a1 1 0 0 1 1.414 1.414l-.793.793.793.793a1 1 0 0 1-1.414 1.414L20 15.414l-.793.793a1 1 0 0 1-1.414-1.414l.793-.793-.793-.793a1 1 0 0 1 0-1.414M13 7.5a1 1 0 1 0-2 0v6.956L2.957 19.66a1 1 0 0 0 1.086 1.68L12 16.19l7.957 5.149a1 1 0 0 0 1.086-1.68L13 14.456z" clip-rule="evenodd"/></svg>