<svg xmlns="http://www.w3.org/2000/svg" fill="none" viewBox="0 0 24 24"><path fill="currentColor" fill-rule="evenodd" d="M9.2 1.4a1 1 0 0 1 1.4-.2L12 2.25l1.4-1.05a1 1 0 0 1 1.2 1.6l-.933.7 8.933 6.7a1 1 0 0 1-1.2 1.6l-.9-.675V21h.5a.996.996 0 0 1 1 1 1 1 0 0 1-1 1h-6.498.008-.02.008-4.996.008-.02.008H3a.997.997 0 0 1-1-1 1 1 0 0 1 1-1h.5v-9.875l-.9.675a1 1 0 0 1-1.2-1.6l8.933-6.7-.933-.7a1 1 0 0 1-.2-1.4M8.75 21h1.5v-4.667c0-.826.734-1.583 1.75-1.583s1.75.757 1.75 1.583V21h1.5v-4.667c0-1.75-1.505-3.083-3.25-3.083s-3.25 1.333-3.25 3.083z" clip-rule="evenodd"/></svg>