<svg xmlns="http://www.w3.org/2000/svg" fill="none" viewBox="0 0 24 24"><path fill="currentColor" fill-rule="evenodd" d="M13.577 2.185a2.75 2.75 0 0 0-3.154 0L2.63 7.637a2.75 2.75 0 0 0-1.123 2.773L3.45 20.516a2.75 2.75 0 0 0 2.7 2.23h11.697a2.75 2.75 0 0 0 2.7-2.23l1.944-10.105a2.75 2.75 0 0 0-1.124-2.772zm-.87 7.108a1 1 0 0 0-1.414 0l-2.5 2.5a1 1 0 0 0 0 1.414l1.293 1.293-2.293 2.293a1 1 0 1 0 1.414 1.414l2.293-2.293 1.293 1.294a1 1 0 0 0 1.415 0l2.5-2.5a1 1 0 0 0 0-1.415z" clip-rule="evenodd"/></svg>