<svg xmlns="http://www.w3.org/2000/svg" fill="none" viewBox="0 0 24 24"><path fill="currentColor" fill-rule="evenodd" d="M4 2.25A2.75 2.75 0 0 0 1.25 5v2.25h21.5V5A2.75 2.75 0 0 0 20 2.25zm18.75 6.5H1.25V17A2.75 2.75 0 0 0 4 19.75h9.145l.036-.052c.129-.18.156-.283.164-.318a.4.4 0 0 0-.007-.157c-.052-.251-.194-.539-.563-1.208l-.084-.153c-.313-.569-.876-1.59-.936-2.778-.073-1.474.603-2.74 1.773-3.772a2.25 2.25 0 0 1 3.086.104l.114-.104a2.25 2.25 0 0 1 3.086.104l.114-.104a2.25 2.25 0 0 1 2.822-.125zm-7.238 4.813a.75.75 0 0 0-.992-1.126c-.919.81-1.312 1.664-1.266 2.573.04.826.45 1.582.78 2.181l.055.1c.337.613.612 1.112.718 1.632.099.483.052 1.003-.403 1.643a.75.75 0 1 0 1.224.868c.697-.984.83-1.927.649-2.812-.154-.754-.538-1.447-.849-2.009l-.08-.145c-.355-.645-.575-1.105-.596-1.533-.018-.346.094-.785.76-1.372m3.2 0a.75.75 0 0 0-.992-1.126c-.919.81-1.312 1.664-1.267 2.573.042.826.451 1.582.78 2.181l.056.1c.337.613.612 1.112.718 1.632.099.483.052 1.003-.403 1.643a.75.75 0 1 0 1.224.868c.697-.984.83-1.927.649-2.812-.154-.754-.538-1.447-.849-2.009l-.08-.145c-.354-.645-.575-1.105-.596-1.533-.018-.346.094-.785.76-1.372m3.2 0a.75.75 0 0 0-.992-1.126c-.919.81-1.312 1.664-1.267 2.573.042.826.451 1.582.78 2.181l.056.1c.337.613.612 1.112.718 1.632.099.483.052 1.003-.403 1.643a.75.75 0 1 0 1.224.868c.697-.984.83-1.927.649-2.812-.154-.754-.538-1.447-.849-2.009l-.08-.145c-.355-.645-.575-1.105-.596-1.533-.018-.346.094-.785.76-1.372" clip-rule="evenodd"/></svg>