<svg xmlns="http://www.w3.org/2000/svg" fill="none" viewBox="0 0 24 24"><path fill="currentColor" fill-rule="evenodd" d="M5.942 1.109C7.544.409 9.686 0 12 0s4.456.408 6.058 1.109c.799.35 1.509.792 2.032 1.334.529.546.91 1.243.91 2.057v13c0 .814-.381 1.51-.91 2.057-.523.542-1.233.984-2.032 1.334C16.456 21.591 14.314 22 12 22s-4.456-.408-6.058-1.109c-.799-.35-1.509-.792-2.032-1.334C3.38 19.011 3 18.314 3 17.5v-13c0-.814.381-1.51.91-2.057.523-.542 1.233-.984 2.032-1.334M5 7.407v7.186q.442-.267.942-.484C7.544 13.409 9.686 13 12 13s4.456.408 6.058 1.109q.5.217.942.484V7.407a8 8 0 0 1-.942.484C16.456 8.591 14.314 9 12 9s-4.456-.408-6.058-1.109A8 8 0 0 1 5 7.407" clip-rule="evenodd"/></svg>