<svg xmlns="http://www.w3.org/2000/svg" fill="none" viewBox="0 0 24 24"><path fill="currentColor" fill-rule="evenodd" d="M3 1.25A1.75 1.75 0 0 0 1.25 3v6c0 .966.784 1.75 1.75 1.75h6A1.75 1.75 0 0 0 10.75 9V3A1.75 1.75 0 0 0 9 1.25zm0 12A1.75 1.75 0 0 0 1.25 15v6c0 .966.784 1.75 1.75 1.75h6A1.75 1.75 0 0 0 10.75 21v-6A1.75 1.75 0 0 0 9 13.25zM13.25 15c0-.966.784-1.75 1.75-1.75h6c.966 0 1.75.784 1.75 1.75v6A1.75 1.75 0 0 1 21 22.75h-6A1.75 1.75 0 0 1 13.25 21zM14.5 5a1 1 0 1 0 0 2h7a1 1 0 1 0 0-2z" clip-rule="evenodd"/></svg>