<svg xmlns="http://www.w3.org/2000/svg" fill="none" viewBox="0 0 24 24"><path fill="currentColor" fill-rule="evenodd" d="M11 23c1.171 0 2.297-.09 3.33-.258-.21-.366-.33-.79-.33-1.242V19a2.5 2.5 0 0 1-2.447-3.012q-.267.009-.541.011H11c-2.569 0-4.578-.363-6.273-1.007A13.4 13.4 0 0 1 2 13.572V19c0 .803.437 1.448.965 1.916.53.469 1.238.846 2.027 1.142C6.578 22.653 8.702 23 11 23m-4.784-5.718a.75.75 0 1 0-.432 1.436l.11.033c.568.172 1.253.378 1.994.49a.75.75 0 1 0 .225-1.482c-.631-.096-1.223-.274-1.808-.45zM10.995 14q1.116-.015 2.089-.12l1.648-1.648a2.5 2.5 0 0 1 3.527-.008 9 9 0 0 0 1.732-1.447l.009-.01V5c0-.803-.437-1.448-.965-1.916-.53-.469-1.238-.846-2.027-1.142C15.422 1.348 13.298 1 11 1s-4.422.348-6.008.942c-.79.296-1.498.673-2.027 1.142C2.437 3.552 2 4.197 2 5v6.085c1.04.84 2.117 1.535 3.439 2.037 1.424.542 3.183.877 5.556.878M4.292 4.58C4.01 4.83 4 4.976 4 5c0 .026.01.17.292.42.28.248.744.518 1.402.765C7.004 6.676 8.88 7 11 7s3.997-.324 5.306-.815c.658-.247 1.121-.517 1.402-.765.282-.25.292-.394.292-.42s-.01-.17-.292-.42c-.28-.248-.744-.518-1.402-.765C14.996 3.325 13.12 3 11 3s-3.997.324-5.306.815c-.658.247-1.121.517-1.402.766m1.924 5.702a.75.75 0 1 0-.432 1.436l.11.033c.568.172 1.253.378 1.994.49a.75.75 0 1 0 .225-1.482c-.631-.096-1.223-.274-1.808-.45zM17.5 21.5a1 1 0 0 1-2 0v-4H14a1 1 0 0 1-.707-1.707l2.5-2.5a1 1 0 0 1 1.414 0l2.5 2.5A1 1 0 0 1 19 17.5h-1.5z" clip-rule="evenodd"/></svg>