<svg xmlns="http://www.w3.org/2000/svg" fill="none" viewBox="0 0 24 24"><path fill="currentColor" fill-rule="evenodd" d="M20 5v5.767l-.01.01a9 9 0 0 1-1.73 1.447 2.5 2.5 0 0 0-4.247 1.532c-.904.147-1.905.23-3.018.243-2.373 0-4.132-.336-5.556-.877C4.117 12.62 3.04 11.925 2 11.085V5c0-.803.437-1.448.965-1.916.53-.469 1.238-.846 2.027-1.142C6.578 1.347 8.702 1 11 1s4.422.347 6.008.942c.79.296 1.498.673 2.027 1.142C19.562 3.552 20 4.197 20 5M4.292 4.58C4.01 4.83 4 4.975 4 5s.01.17.292.42c.28.248.744.518 1.402.765C7.004 6.675 8.88 7 11 7s3.997-.324 5.306-.815c.658-.247 1.121-.517 1.402-.766C17.99 5.17 18 5.026 18 5s-.01-.17-.292-.42c-.28-.248-.744-.518-1.402-.765C14.996 3.325 13.12 3 11 3s-3.997.324-5.306.815c-.658.247-1.121.517-1.402.766m1.924 5.702a.75.75 0 0 0-.432 1.436l.11.033c.568.172 1.253.378 1.994.49a.75.75 0 0 0 .225-1.483c-.631-.095-1.223-.273-1.808-.45zM14 16.5v-.72c-.922.134-1.915.207-2.988.22H11c-2.569 0-4.578-.364-6.273-1.008A13.4 13.4 0 0 1 2 13.572V19c0 .803.437 1.448.965 1.916.53.469 1.238.846 2.027 1.142C6.578 22.653 8.702 23 11 23c1.131 0 2.22-.084 3.224-.24l-1.992-1.992A2.5 2.5 0 0 1 14 16.5m-7.784.782a.75.75 0 0 0-.432 1.436l.11.033c.568.171 1.253.378 1.994.49a.75.75 0 0 0 .225-1.483c-.631-.095-1.223-.273-1.808-.45zM16.5 13a1 1 0 0 1 1 1v4H19a1 1 0 0 1 .707 1.707l-2.5 2.5a1 1 0 0 1-1.414 0l-2.5-2.5A1 1 0 0 1 14 18h1.5v-4a1 1 0 0 1 1-1" clip-rule="evenodd"/></svg>