<svg xmlns="http://www.w3.org/2000/svg" fill="none" viewBox="0 0 24 24"><path fill="currentColor" fill-rule="evenodd" d="M6.159 2.026c1.542-.579 3.608-.917 5.841-.917s4.3.338 5.842.917c.767.287 1.456.654 1.97 1.11.513.455.939 1.082.939 1.862v6.409c-.026.13-.121.332-.423.6-.37.327-.961.668-1.779.974-1.627.61-3.942 1.008-6.549 1.008-2.606 0-4.921-.398-6.549-1.008-.817-.306-1.409-.647-1.779-.975-.299-.265-.395-.467-.421-.596V5.05l-.001-.052c0-.78.425-1.407.939-1.862s1.202-.823 1.97-1.11M3.251 14.152v4.846c0 .706.384 1.289.88 1.73.499.44 1.176.804 1.95 1.094 1.551.582 3.644.926 5.92.926s4.368-.344 5.92-.926c.773-.29 1.45-.653 1.948-1.095.497-.44.882-1.023.882-1.729v-4.847c-.45.266-.957.5-1.5.703-1.904.714-4.468 1.135-7.25 1.135-1.039 0-2.047-.058-3.001-.169v1.178a1 1 0 1 1-2 0v-1.501c-.82-.174-1.577-.39-2.25-.643a9.6 9.6 0 0 1-1.5-.702M5.479 4.59c-.275.243-.284.383-.284.407 0 .025.01.165.284.408.272.242.723.505 1.363.745q.08.03.162.058Q7 6.254 7 6.3v2a1 1 0 0 0 2 0V6.705c.905.151 1.92.238 3 .238 2.063 0 3.886-.315 5.159-.792.64-.24 1.09-.503 1.363-.745.274-.243.284-.383.284-.408s-.01-.164-.284-.407-.723-.505-1.363-.745c-1.273-.477-3.096-.792-5.159-.792s-3.885.315-5.158.792c-.64.24-1.09.503-1.363.745" clip-rule="evenodd"/></svg>