<svg xmlns="http://www.w3.org/2000/svg" fill="none" viewBox="0 0 24 24"><path fill="currentColor" fill-rule="evenodd" d="M8.317 2.463a2 2 0 0 1 1.838-1.212h3.682a2 2 0 0 1 1.838 1.212l.98 2.287h3.327l.025.001h.99a1 1 0 1 1 0 2h-.826l-.32 5.294-.01.086v.018c-.002.244-.003.366-.06.444-.058.079-.202.125-.49.217a2.3 2.3 0 0 0-.922.564l-1.167 1.166c-.333.334-.5.5-.707.5s-.373-.166-.707-.5l-1.166-1.166a2.3 2.3 0 1 0-3.253 3.253l1.166 1.166c.334.333.5.5.5.707s-.166.374-.5.707l-1.166 1.166a2.3 2.3 0 0 0-.672 1.549c-.015.438-.022.657-.11.741-.086.085-.26.085-.606.085l-2.603.002a2.75 2.75 0 0 1-2.745-2.584l-.236-3.895-.041-.672-.536-8.848h-.824a1 1 0 0 1 0-2h.987l.024-.001h3.33zm5.572.91.59 1.377H9.513l.59-1.378a.2.2 0 0 1 .184-.121h3.418a.2.2 0 0 1 .184.121m6.814 12.084a1 1 0 0 0-1.414-1.414l-2.793 2.793-2.793-2.793a1 1 0 1 0-1.414 1.415l2.793 2.792-2.793 2.792a1 1 0 0 0 1.414 1.415l2.793-2.793 2.793 2.793a1 1 0 0 0 1.414-1.414L17.91 18.25z" clip-rule="evenodd"/></svg>