<svg xmlns="http://www.w3.org/2000/svg" fill="none" viewBox="0 0 24 24"><path fill="currentColor" fill-rule="evenodd" d="M6.522 3.125a1 1 0 0 0-.895.553L3.841 7.25H11V3.125zM13 7.25h7.15l-1.785-3.572a1 1 0 0 0-.895-.553H13zm9.469.165-2.316-4.632a3 3 0 0 0-2.683-1.658H6.522a3 3 0 0 0-2.683 1.658L1.517 7.426A.75.75 0 0 0 1.25 8v12A2.75 2.75 0 0 0 4 22.75h16a2.7 2.7 0 0 0 1.12-.238c.84-.41 1.417-1.326 1.57-2.582.245-1.995-1.237-2.93-2.341-2.93h-2.1v1a1 1 0 0 1-1.706.707l-2-2a1 1 0 0 1 0-1.414l2-2A1 1 0 0 1 18.25 14v1h2.099c.9 0 1.732.187 2.401.693V8a.75.75 0 0 0-.281-.585" clip-rule="evenodd"/></svg>