<svg xmlns="http://www.w3.org/2000/svg" fill="none" viewBox="0 0 24 24"><path fill="currentColor" fill-rule="evenodd" d="m22.636 7.603-2.482-4.82a3 3 0 0 0-2.683-1.658H6.523A3 3 0 0 0 3.84 2.783L1.333 7.654l.001.001a.75.75 0 0 0-.084.346v12A2.75 2.75 0 0 0 4 22.75l8.89.033a2.2 2.2 0 0 1-.14-.783v-5.5c0-.998.649-1.843 1.548-2.139a4.251 4.251 0 0 1 8.404 0l.048.017V8a.75.75 0 0 0-.114-.398M6.523 3.125a1 1 0 0 0-.894.553L3.79 7.25H11V3.125zM13 7.251h7.203l-1.837-3.573a1 1 0 0 0-.895-.553H13zM9.523 11a.75.75 0 0 1 .75-.75h4a.75.75 0 1 1 0 1.5h-4a.75.75 0 0 1-.75-.75m7.727 4a1.25 1.25 0 1 1 2.5 0v.75h-2.5zm4 0v.75H22a.75.75 0 0 1 .75.75V22a.75.75 0 0 1-.75.75h-7a.75.75 0 0 1-.75-.75v-5.5a.75.75 0 0 1 .75-.75h.75V15a2.75 2.75 0 1 1 5.5 0" clip-rule="evenodd"/></svg>