<svg xmlns="http://www.w3.org/2000/svg" fill="none" viewBox="0 0 24 24"><path fill="currentColor" fill-rule="evenodd" d="m22.636 7.603-2.482-4.82a3 3 0 0 0-2.683-1.658H6.523A3 3 0 0 0 3.84 2.783L1.333 7.654l.001.001a.75.75 0 0 0-.084.346v12A2.75 2.75 0 0 0 4 22.75l11.835.075a17 17 0 0 0-1.827-1.947c-1.415-1.253-2.258-2.833-2.258-4.838 0-3.453 2.777-6.29 6.25-6.29 1.909 0 3.607.857 4.75 2.202V8.001a.75.75 0 0 0-.114-.398M6.523 3.125a1 1 0 0 0-.894.553L3.79 7.25H11V3.125zM13 7.251h7.203l-1.837-3.573a1 1 0 0 0-.895-.553H13zm-3.062 3.296a.75.75 0 0 1 .75-.75h2a.75.75 0 0 1 0 1.5h-2a.75.75 0 0 1-.75-.75m3.312 5.493c0-2.638 2.12-4.79 4.75-4.79s4.75 2.152 4.75 4.79c0 1.52-.614 2.707-1.753 3.716-.672.596-1.878 1.903-2.37 2.654a.75.75 0 0 1-1.267-.02c-.455-.745-1.671-2.026-2.357-2.634-1.139-1.009-1.753-2.197-1.753-3.716m3.242-.54a1.5 1.5 0 0 1 1.5-1.5h.014a1.5 1.5 0 0 1 0 3h-.014a1.5 1.5 0 0 1-1.5-1.5" clip-rule="evenodd"/></svg>