<svg xmlns="http://www.w3.org/2000/svg" fill="none" viewBox="0 0 24 24"><path fill="currentColor" fill-rule="evenodd" d="M12 4.174q.08-.075.161-.157c2.608-2.584 6.269-2.136 8.03.064l.02.025c.257.32.654.815.975 1.545.332.751.574 1.723.564 3.003-.02 2.54-1.03 6.275-4.24 11.954-.405.719-1.19 1.142-2.006 1.142a2.384 2.384 0 0 1-2.386-2.284c-.03-.873-.13-1.731-.362-2.349s-.49-.764-.756-.764c-.265 0-.524.145-.756.764-.232.618-.332 1.476-.362 2.349a2.384 2.384 0 0 1-2.386 2.284c-.816 0-1.6-.423-2.007-1.142-3.195-5.653-4.21-9.381-4.238-11.92-.015-1.279.221-2.252.55-3.007.323-.745.726-1.248.988-1.575l.02-.025c1.761-2.2 5.422-2.648 8.03-.064z" clip-rule="evenodd"/></svg>