<svg xmlns="http://www.w3.org/2000/svg" fill="none" viewBox="0 0 24 24"><path fill="currentColor" fill-rule="evenodd" d="m6.316 4.043.997 4.047V10c0 2.612 2.087 4.75 4.687 4.75s4.687-2.138 4.687-4.75V8.09l.996-4.047c.346-1.404-.698-2.793-2.16-2.793H8.477c-1.463 0-2.506 1.389-2.16 2.793M8.813 10V8.75h6.374V10c0 1.806-1.438 3.25-3.187 3.25-1.75 0-3.187-1.444-3.187-3.25M12 3a.75.75 0 0 1 .75.75v.5h.5a.75.75 0 0 1 0 1.5h-.5v.5a.75.75 0 0 1-1.5 0v-.5h-.5a.75.75 0 0 1 0-1.5h.5v-.5A.75.75 0 0 1 12 3M6 15.25A2.75 2.75 0 0 0 3.25 18v4c0 .414.336.75.75.75h16a.75.75 0 0 0 .75-.75v-4A2.75 2.75 0 0 0 18 15.25h-3a.75.75 0 0 0-.6.3l-2.4 3.2-2.4-3.2a.75.75 0 0 0-.6-.3z" clip-rule="evenodd"/></svg>