<svg xmlns="http://www.w3.org/2000/svg" fill="none" viewBox="0 0 24 24"><path fill="currentColor" fill-rule="evenodd" d="M13 3a1 1 0 1 0-2 0v1.053c-1.302.14-2.496.553-3.44 1.175C6.387 6.002 5.5 7.184 5.5 8.63c0 .626.118 1.238.412 1.797.297.565.746 1.02 1.322 1.366.925.558 2.187.843 3.766.924v5.236c-1.164-.11-2.121-.412-2.805-.815C7.322 16.625 7 16.03 7 15.5a1 1 0 1 0-2 0c0 1.47.928 2.625 2.18 3.362 1.027.604 2.345.982 3.82 1.099V21a1 1 0 1 0 2 0v-1.029c1.436-.084 2.754-.366 3.794-.937C18.142 18.294 19 17.069 19 15.37c0-.777-.15-1.499-.496-2.137-.347-.642-.862-1.141-1.5-1.513-1.03-.6-2.395-.88-4.004-.957V6.068c.93.13 1.736.432 2.338.83.818.54 1.162 1.172 1.162 1.732a1 1 0 1 0 2 0c0-1.446-.887-2.628-2.06-3.402-.944-.622-2.138-1.034-3.44-1.175zm-2 3.068c-.93.13-1.736.432-2.338.83C7.844 7.438 7.5 8.07 7.5 8.63c0 .376.07.653.182.865.109.207.285.405.584.585.52.313 1.38.555 2.734.633zm2 6.698v5.201c1.203-.082 2.16-.318 2.831-.686.777-.427 1.169-1.017 1.169-1.91 0-.52-.1-.9-.254-1.185-.153-.282-.388-.528-.75-.739-.625-.364-1.594-.605-2.996-.68" clip-rule="evenodd"/></svg>