<svg xmlns="http://www.w3.org/2000/svg" fill="none" viewBox="0 0 24 24"><path fill="currentColor" fill-rule="evenodd" d="M22.993 11.591a10.95 10.95 0 0 0-1.008-4.211 1 1 0 0 0-1.266-.513C19.459 7.352 18 6.368 18 5a1 1 0 0 0-1-1 2 2 0 0 1-1.995-1.865 1 1 0 0 0-.799-.913A11 11 0 0 0 12 1C5.925 1 1 5.925 1 12c0 5.154 3.545 9.48 8.33 10.674.855.213 1.75.326 2.671.326 6.075 0 11-4.925 11-11L23 11.95q0-.075-.002-.148.009-.105-.006-.21m-2.012-.175-.22.295a.9.9 0 0 1-.272.262c-.051.03-.074.027-.078.027s-.04-.002-.11-.051a1.2 1.2 0 0 1-.3-.333l-.213-.327c-.432-.659-1.065-1.194-1.876-1.278a2.1 2.1 0 0 0-1.223.25 5.002 5.002 0 0 0-9.645 1.071l-.283.379a.9.9 0 0 1-.272.262c-.051.03-.074.027-.077.027-.005 0-.041-.002-.111-.051a1.2 1.2 0 0 1-.3-.333l-.213-.327c-.432-.659-1.065-1.194-1.876-1.278a2 2 0 0 0-.702.048 9.003 9.003 0 0 1 9.936-6.987A4 4 0 0 0 16.103 5.9c.462 1.965 2.398 3.294 4.374 3.07.276.772.45 1.593.504 2.447m-11.98.541V12a3 3 0 1 0 0-.043" clip-rule="evenodd"/></svg>