<svg xmlns="http://www.w3.org/2000/svg" fill="none" viewBox="0 0 24 24"><path fill="currentColor" fill-rule="evenodd" d="M4.5 6A1.5 1.5 0 0 1 6 4.5h.006a1.5 1.5 0 1 1 0 3H6A1.5 1.5 0 0 1 4.5 6m5.997 0a1.5 1.5 0 0 1 1.5-1.5h.006a1.5 1.5 0 0 1 0 3h-.006a1.5 1.5 0 0 1-1.5-1.5m5.997 0a1.5 1.5 0 0 1 1.5-1.5H18a1.5 1.5 0 0 1 0 3h-.006a1.5 1.5 0 0 1-1.5-1.5M4.5 12A1.5 1.5 0 0 1 6 10.5h.006a1.5 1.5 0 0 1 0 3H6A1.5 1.5 0 0 1 4.5 12m5.997 0a1.5 1.5 0 0 1 1.5-1.5h.006a1.5 1.5 0 0 1 0 3h-.006a1.5 1.5 0 0 1-1.5-1.5m5.997 0a1.5 1.5 0 0 1 1.5-1.5H18a1.5 1.5 0 0 1 0 3h-.006a1.5 1.5 0 0 1-1.5-1.5M4.5 18A1.5 1.5 0 0 1 6 16.5h.006a1.5 1.5 0 0 1 0 3H6A1.5 1.5 0 0 1 4.5 18m5.997 0a1.5 1.5 0 0 1 1.5-1.5h.006a1.5 1.5 0 0 1 0 3h-.006a1.5 1.5 0 0 1-1.5-1.5m5.997 0a1.5 1.5 0 0 1 1.5-1.5H18a1.5 1.5 0 0 1 0 3h-.006a1.5 1.5 0 0 1-1.5-1.5" clip-rule="evenodd"/></svg>