<svg xmlns="http://www.w3.org/2000/svg" fill="none" viewBox="0 0 24 24"><path fill="currentColor" fill-rule="evenodd" d="M11.498 1.244c-.975 0-1.816.64-2.127 1.527l-.034.003-.78.072A.756.756 0 1 0 8.7 4.352l.675-.063a2.26 2.26 0 0 0 2.124 1.467c1.22 0 2.256-.985 2.256-2.256a2.257 2.257 0 0 0-2.256-2.256M6.825 5.225A.756.756 0 0 0 5.793 4.12l-.331.31-.038.037-.293.316A.756.756 0 1 0 6.24 5.812l.275-.296zm-1.474 2.48a.756.756 0 1 0-1.51-.1l-.05.758c-.903.303-1.565 1.144-1.549 2.155a2.29 2.29 0 0 0 2.317 2.238c1.289-.021 2.226-1.095 2.206-2.304a2.23 2.23 0 0 0-1.46-2.075zm15.384-2.042a2.356 2.356 0 0 0-3.036.316l-4.933 5.177V9.41a2.12 2.12 0 0 0-2.124-2.114 2.12 2.12 0 0 0-2.086 1.716L7.3 15.54l-.003.016a3.35 3.35 0 0 0 1.072 3.05l3.629 3.271c.798.72 1.716.947 2.59.853.84-.091 1.614-.474 2.22-.933l3.25-2.202.031-.022c.737-.555 1.33-1.261 1.424-2.206.09-.924-.322-1.867-1.079-2.85l-1.917-2.45 2.633-2.922a2.33 2.33 0 0 0-.415-3.482" clip-rule="evenodd"/></svg>