<svg xmlns="http://www.w3.org/2000/svg" fill="none" viewBox="0 0 24 24"><path fill="currentColor" fill-rule="evenodd" d="M5.75 6a4.25 4.25 0 0 1 8.434-.75h4.04l-1.262-1.297a.75.75 0 1 1 1.076-1.046l2.5 2.57a.75.75 0 0 1-.015 1.06l-2.5 2.43a.75.75 0 1 1-1.046-1.075l1.175-1.142h-3.968a4.25 4.25 0 0 1-1.922 2.849l.003 1.651h3.234a3.25 3.25 0 0 1 3.251 3.259l-.012 4.5a3.25 3.25 0 0 1-3.252 3.241H9.595a2.75 2.75 0 0 1-2.324-1.278l-3.545-5.593a2.49 2.49 0 0 1 .01-2.942c.803-1.075 2.315-1.24 3.31-.326l.006.006.692.65V9.602A4.25 4.25 0 0 1 5.75 6m7 0c0 .584-.182 1.125-.492 1.57l-.001-.569a2.256 2.256 0 0 0-4.513.005v.567A2.75 2.75 0 1 1 12.75 6" clip-rule="evenodd"/></svg>