<svg xmlns="http://www.w3.org/2000/svg" fill="none" viewBox="0 0 24 24"><path fill="currentColor" fill-rule="evenodd" d="M6 6.5A1.5 1.5 0 0 1 7.5 8v.006a1.5 1.5 0 0 1-3 0V8A1.5 1.5 0 0 1 6 6.5m6 0A1.5 1.5 0 0 1 13.5 8v.006a1.5 1.5 0 0 1-3 0V8A1.5 1.5 0 0 1 12 6.5m6 0A1.5 1.5 0 0 1 19.5 8v.006a1.5 1.5 0 0 1-3 0V8A1.5 1.5 0 0 1 18 6.5M6 14.494a1.5 1.5 0 0 1 1.5 1.5V16a1.5 1.5 0 0 1-3 0v-.006a1.5 1.5 0 0 1 1.5-1.5m6 0a1.5 1.5 0 0 1 1.5 1.5V16a1.5 1.5 0 0 1-3 0v-.006a1.5 1.5 0 0 1 1.5-1.5m6 0a1.5 1.5 0 0 1 1.5 1.5V16a1.5 1.5 0 0 1-3 0v-.006a1.5 1.5 0 0 1 1.5-1.5" clip-rule="evenodd"/></svg>