<svg xmlns="http://www.w3.org/2000/svg" fill="none" viewBox="0 0 24 24"><path fill="currentColor" fill-rule="evenodd" d="M12 3C9.878 3 8 4.923 8 7.5S9.878 12 12 12s4-1.923 4-4.5S14.122 3 12 3m6 4.5c0 1.719-.628 3.318-1.67 4.5H20a1 1 0 1 1 0 2v1.546a3.1 3.1 0 0 1 .695 1.169c.253.774.223 1.712-.287 2.732-.36.721-.237 1.142-.13 1.36a1.2 1.2 0 0 0 .289.368l.007.006a1 1 0 0 1-1.132 1.649l-.001-.001h-.001l-.002-.002-.005-.004-.012-.008-.014-.01-.015-.01-.082-.064a3.2 3.2 0 0 1-.825-1.039c-.385-.781-.505-1.86.134-3.14.29-.58.254-.974.175-1.217a1.1 1.1 0 0 0-.178-.335H5.386a1.1 1.1 0 0 0-.17.33c-.079.242-.113.64.179 1.223.64 1.281.515 2.363.125 3.144a3.2 3.2 0 0 1-.833 1.037q-.048.039-.082.063l-.03.021-.011.008-.005.003-.002.002h-.001l-.001.001a1 1 0 0 1-1.125-1.654l.008-.006a1.2 1.2 0 0 0 .293-.37c.109-.218.234-.636-.125-1.355-.509-1.017-.543-1.953-.296-2.726.155-.485.412-.88.69-1.174V14a1 1 0 1 1 0-2h3.67C6.627 10.818 6 9.219 6 7.5 6 4.002 8.599 1 12 1s6 3.002 6 6.5m-4.97-1.47a.75.75 0 0 0-1.06-1.06l-1.5 1.5a.75.75 0 0 0 1.06 1.06zm.5 2.5a.75.75 0 0 0-1.06-1.06l-1.5 1.5a.75.75 0 1 0 1.06 1.06z" clip-rule="evenodd"/></svg>