<svg xmlns="http://www.w3.org/2000/svg" fill="none" viewBox="0 0 24 24"><path fill="currentColor" fill-rule="evenodd" d="M5 2a1 1 0 0 0-2 0v10.273a4 4 0 0 0-.197.02c-.356.048-.731.16-1.04.47s-.422.684-.47 1.04c-.043.323-.043.72-.043 1.152v2.09c0 .433 0 .83.043 1.152.048.356.16.731.47 1.04s.684.422 1.04.47c.267.036.585.042.932.043.148.421.113.722.05.92a1 1 0 0 1-.34.498 1 1 0 0 0 1.11 1.664c.424-.283.899-.812 1.135-1.552.147-.459.194-.974.103-1.53h12.414a3.25 3.25 0 0 0 .103 1.53c.237.74.71 1.27 1.135 1.552a1 1 0 0 0 1.11-1.664 1 1 0 0 1-.34-.497c-.063-.199-.098-.5.05-.921.347-.001.665-.007.932-.043.356-.048.731-.16 1.04-.47s.422-.684.47-1.04c.043-.323.043-.72.043-1.152v-2.09c0-.433 0-.83-.043-1.152-.048-.356-.16-.731-.47-1.04s-.684-.422-1.04-.47a4 4 0 0 0-.197-.02V2a1 1 0 1 0-2 0v.5h-2.672c-.195 0-.3 0-.377-.005h-.009l-.045-.03a14 14 0 0 1-.433-.311c-2.096-1.539-4.832-1.539-6.928 0a14 14 0 0 1-.478.34l-.009.001a8 8 0 0 1-.377.005H5zm14 10.25V4.5h-2.752c-.279.001-.624.002-.935-.1a2.2 2.2 0 0 1-.528-.272 15 15 0 0 1-.488-.35l-.017-.012c-1.391-1.021-3.168-1.021-4.56 0l-.017.013c-.186.136-.35.257-.488.349a2.2 2.2 0 0 1-.528.273c-.31.102-.656.1-.936.1l-.08-.001H5v7.75zm-8 3a.75.75 0 0 0 0 1.5h2a.75.75 0 0 0 0-1.5zm-.47-9.78a.75.75 0 0 1 0 1.06l-1 1a.75.75 0 0 1-1.06-1.06l1-1a.75.75 0 0 1 1.06 0m2 2.56a.75.75 0 0 0-1.06-1.06l-2 2a.75.75 0 1 0 1.06 1.06z" clip-rule="evenodd"/></svg>