<svg xmlns="http://www.w3.org/2000/svg" fill="none" viewBox="0 0 24 24"><path fill="currentColor" fill-rule="evenodd" d="M8.377 1.26a.75.75 0 0 1 .611.17L12 4.013l3.012-2.581a.75.75 0 0 1 .611-.17l3 .5a.75.75 0 0 1 .407.209l3.5 3.5a.75.75 0 0 1 .08.966l-2.5 3.5a.75.75 0 0 1-1.078.15L17.76 9.07c-.338 1.57-.151 3.273.272 4.97l1.478 5.475c.215.796-.157 1.682-.988 2.005A18.4 18.4 0 0 1 12 22.75c-2.606 0-5.18-.785-6.442-1.234-.861-.306-1.281-1.214-1.056-2.05l1.465-5.426c.423-1.697.61-3.4.272-4.97l-1.27 1.016a.75.75 0 0 1-1.08-.15l-2.5-3.5a.75.75 0 0 1 .08-.966l3.5-3.5a.75.75 0 0 1 .408-.21z" clip-rule="evenodd"/></svg>