<svg xmlns="http://www.w3.org/2000/svg" fill="none" viewBox="0 0 24 24"><path fill="currentColor" fill-rule="evenodd" d="M3 2a1 1 0 0 0 0 2h2v2.808l-.218.042c-.93.186-1.73.416-2.317.693-.291.138-.57.306-.786.518-.218.212-.429.528-.429.939 0 .649.51 1.064.88 1.293.422.261.992.482 1.642.668 1.16.333 2.709.592 4.478.737V12a3.75 3.75 0 1 0 7.5 0v-.302c1.77-.145 3.318-.404 4.478-.737.65-.186 1.22-.407 1.643-.668.37-.229.879-.644.879-1.293 0-.41-.211-.727-.429-.94a2.9 2.9 0 0 0-.786-.517c-.587-.277-1.387-.507-2.317-.693L19 6.808V4h2a1 1 0 1 0 0-2h-6a1 1 0 1 0 0 2h2v2.513a45 45 0 0 0-5-.263c-1.808 0-3.514.095-5 .263V4h2a1 1 0 0 0 0-2zm8 10a1 1 0 0 1 1-1h.009a1 1 0 1 1 0 2H12a1 1 0 0 1-1-1m-7 7.5c0-2.318 1.514-4.254 3.47-5.266a5.1 5.1 0 0 0 1.257 1.611C7.167 16.505 6 17.96 6 19.499V21a1 1 0 1 1-2 0zm14 0c0-1.54-1.168-2.995-2.727-3.655a5.1 5.1 0 0 0 1.257-1.61c1.956 1.011 3.47 2.947 3.47 5.264V21a1 1 0 1 1-2 0z" clip-rule="evenodd"/></svg>