<svg xmlns="http://www.w3.org/2000/svg" fill="none" viewBox="0 0 24 24"><path fill="currentColor" fill-rule="evenodd" d="m13.06 6.413 4.526 4.525 1.19 1.25a1 1 0 1 0 1.449-1.377l-.526-.554 2.067-2.066a4.211 4.211 0 1 0-5.958-5.957L13.741 4.3l-.552-.525a1 1 0 1 0-1.378 1.45zm-.853 1.794a1 1 0 0 0-1.414-1.414l-6.921 6.914a3 3 0 0 0-.88 2.122v2.185l-1.293 1.3-.006.005c-.474.483-.719 1.061-.686 1.667.03.574.302 1.036.59 1.347l.728-.674-.728.674c.234.253.65.559 1.21.645.614.095 1.256-.099 1.821-.616l.032-.031L5.99 21h2.187a3 3 0 0 0 2.126-.883l1.868-1.876.002-.002 3.115-3.109.002-.001 1.918-1.924a1 1 0 1 0-1.416-1.412l-1.211 1.214-.761-.76a1 1 0 0 0-1.415 1.414l.761.76-1.7 1.698-.758-.759a1 1 0 1 0-1.416 1.413l.76.761-1.166 1.172a1 1 0 0 1-.709.294H5.99a2 2 0 0 0-1.414.586L3.265 20.9a.5.5 0 0 1-.152.1h-.006l-.019-.009-.023-.016a.24.24 0 0 1-.06-.094l.002-.006.001-.004a.5.5 0 0 1 .111-.15l1.29-1.296a2 2 0 0 0 .583-1.411v-2.185a1 1 0 0 1 .293-.708z" clip-rule="evenodd"/></svg>