<svg xmlns="http://www.w3.org/2000/svg" fill="none" viewBox="0 0 24 24"><path fill="currentColor" fill-rule="evenodd" d="M20.255 3.745a.836.836 0 0 0-1.182 0l-.384.383 1.183 1.183.383-.384a.836.836 0 0 0 0-1.182m1.03 2.98.384-.383a2.836 2.836 0 1 0-4.01-4.011l-.384.383-.538-.537a1.75 1.75 0 0 0-2.475 0l-2.085 2.085a1.75 1.75 0 0 0 0 2.475l5.085 5.086a1.75 1.75 0 0 0 2.475 0l2.086-2.086a1.75 1.75 0 0 0 0-2.475zM2.332 17.66l.383-.384-.537-.538a1.75 1.75 0 0 1 0-2.475l2.085-2.085a1.75 1.75 0 0 1 2.475 0l5.086 5.085a1.75 1.75 0 0 1 0 2.475l-2.086 2.086a1.75 1.75 0 0 1-2.475 0l-.537-.537-.383.383a2.836 2.836 0 1 1-4.011-4.01m1.414 1.414.383-.384 1.183 1.183-.384.383a.836.836 0 0 1-1.182-1.182m8.343-11.01-.006.005c-.178.196-.375.44-.497.701-.444.949-.717 1.412-1.06 1.755-.344.344-.807.617-1.755 1.06a3 3 0 0 0-.702.498l-.005.006 3.848 3.848.005-.006c.178-.195.376-.44.498-.701.444-.948.716-1.411 1.06-1.755s.807-.616 1.755-1.06c.261-.123.506-.32.701-.498l.006-.005z" clip-rule="evenodd"/></svg>