<svg xmlns="http://www.w3.org/2000/svg" fill="none" viewBox="0 0 24 24"><path fill="currentColor" fill-rule="evenodd" d="M2.25 4A2.75 2.75 0 0 1 5 1.25h11A2.75 2.75 0 0 1 18.75 4v6.092a2.05 2.05 0 0 0-2.773 1.578 5 5 0 0 0-1.08.555c-.869.595-1.697 1.629-1.697 3.024 0 .656.16 1.318.527 1.895a2.05 2.05 0 0 0-.777 1.606H5A2.75 2.75 0 0 1 2.25 16zM6 5.25a.75.75 0 0 0 0 1.5h9a.75.75 0 0 0 0-1.5zM5.25 10A.75.75 0 0 1 6 9.25h1a.75.75 0 0 1 0 1.5H6a.75.75 0 0 1-.75-.75M10 9.25a.75.75 0 0 0 0 1.5h1a.75.75 0 0 0 0-1.5zm3.25.75a.75.75 0 0 1 .75-.75h1a.75.75 0 0 1 0 1.5h-1a.75.75 0 0 1-.75-.75M6 13.25a.75.75 0 0 0 0 1.5h1a.75.75 0 0 0 0-1.5zm3.25.75a.75.75 0 0 1 .75-.75h1a.75.75 0 0 1 0 1.5h-1a.75.75 0 0 1-.75-.75m9.5-2a.75.75 0 0 0-1.5 0v.673a4 4 0 0 0-1.619.624c-.634.435-1.131 1.112-1.131 1.952 0 .736.286 1.402.977 1.835.62.387 1.48.531 2.523.531.963 0 1.542.136 1.861.33.245.148.389.356.389.806 0 .364-.154.603-.494.793-.385.215-.99.342-1.756.342-.71 0-1.317-.182-1.722-.437-.416-.261-.528-.527-.528-.698a.75.75 0 0 0-1.5 0c0 .87.56 1.547 1.23 1.968.497.313 1.107.525 1.77.616V22a.75.75 0 0 0 1.5 0v-.65c.63-.063 1.234-.216 1.737-.496.745-.417 1.263-1.12 1.263-2.103 0-.897-.356-1.632-1.111-2.09-.68-.412-1.602-.546-2.639-.546-.958 0-1.471-.143-1.727-.303-.184-.115-.273-.257-.273-.563 0-.202.119-.467.48-.715.357-.245.892-.42 1.52-.42s1.163.175 1.52.42c.361.248.48.513.48.715a.75.75 0 0 0 1.5 0c0-.84-.497-1.517-1.131-1.952a4 4 0 0 0-1.619-.624z" clip-rule="evenodd"/></svg>