<svg xmlns="http://www.w3.org/2000/svg" fill="none" viewBox="0 0 24 24"><path fill="currentColor" fill-rule="evenodd" d="M22.814 3.646C22.125 2.684 21.194 2 20.084 2c-1.111 0-2.04.684-2.72 1.647-.214.298-.355.345-.384.352-.032-.009-.148-.06-.323-.309l-.005-.007c-.689-.963-1.621-1.646-2.733-1.646s-2.044.683-2.732 1.646a1 1 0 0 0 1.627 1.164c.482-.675.883-.81 1.105-.81s.623.135 1.104.807c.46.654 1.14 1.175 2.002 1.155.845-.019 1.509-.552 1.966-1.187l.006-.008c.473-.672.869-.804 1.086-.804.22 0 .621.135 1.104.81a1 1 0 1 0 1.627-1.164m-5.824.355L16.984 4zM5.5 7.25a.75.75 0 0 0-.75.75c0 5.47-.843 9.2-2.105 12H2a1 1 0 1 0 0 2h19a1 1 0 1 0 0-2h-.575c-1.675-1.812-2.925-4.464-2.925-8a1 1 0 0 0-1-1h-3.158a47 47 0 0 1-.092-3 .75.75 0 0 0-.75-.75zM15.53 13c.171 2.82 1.062 5.159 2.338 7h-2.513c-.834-1.85-1.485-4.105-1.83-7z" clip-rule="evenodd"/></svg>