<svg xmlns="http://www.w3.org/2000/svg" fill="none" viewBox="0 0 24 24"><path fill="currentColor" fill-rule="evenodd" d="M9.25 2.25a1 1 0 0 0-2 0v3h-3a1 1 0 0 0 0 2h3v3a1 1 0 1 0 2 0v-3h3a1 1 0 1 0 0-2h-3zm-6 17.564L3.268 8.5H6v1.75a2.25 2.25 0 0 0 4.5 0V8.5h1.75a2.25 2.25 0 0 0 0-4.5H10.5V1.25h7.333a2.924 2.924 0 0 1 2.917 2.932v10.763a.98.98 0 0 1-.285.692l-6.809 6.828a.97.97 0 0 1-.687.285H6.168a2.924 2.924 0 0 1-2.917-2.936m15.554-5.275-6.237 6.255V16.04a1.5 1.5 0 0 1 1.5-1.5z" clip-rule="evenodd"/></svg>