<svg xmlns="http://www.w3.org/2000/svg" fill="none" viewBox="0 0 24 24"><path fill="currentColor" fill-rule="evenodd" d="M6.191 22.75a2.924 2.924 0 0 1-2.917-2.927L3.25 4.186A2.924 2.924 0 0 1 6.167 1.25h6.803a.97.97 0 0 1 .686.286l6.809 6.827a.98.98 0 0 1 .285.692v7.02A5.68 5.68 0 0 0 9.5 17.18a5.68 5.68 0 0 0 4.575 5.571zM18.804 9.46l-6.237-6.254V7.96a1.5 1.5 0 0 0 1.5 1.5zm-3.625 3.29a4.429 4.429 0 1 0 2.343 8.187l1.52 1.52a1 1 0 0 0 1.415-1.414l-1.52-1.52a4.429 4.429 0 0 0-3.758-6.772M12.75 17.18a2.429 2.429 0 1 1 4.372 1.456q-.105.14-.226.26a2.429 2.429 0 0 1-4.146-1.717" clip-rule="evenodd"/></svg>