<svg xmlns="http://www.w3.org/2000/svg" fill="none" viewBox="0 0 24 24"><path fill="currentColor" fill-rule="evenodd" d="M5.191 22.75a2.924 2.924 0 0 1-2.917-2.927L2.25 4.186A2.924 2.924 0 0 1 5.167 1.25h6.803a.97.97 0 0 1 .686.286l6.809 6.827a.98.98 0 0 1 .285.692v3.09a2 2 0 0 0-2.164.44l-6 6A2 2 0 0 0 11 20v2c0 .265.052.518.145.75zM17.804 9.46l-6.237-6.254V7.96a1.5 1.5 0 0 0 1.5 1.5zm1.726 4.01a.75.75 0 0 0-1.06 0l-6 6a.75.75 0 0 0-.22.53v2c0 .414.336.75.75.75h2a.75.75 0 0 0 .53-.22l6-6a.75.75 0 0 0 0-1.06z" clip-rule="evenodd"/></svg>