<svg xmlns="http://www.w3.org/2000/svg" fill="none" viewBox="0 0 24 24"><path fill="currentColor" fill-rule="evenodd" d="M6.191 22.75a2.924 2.924 0 0 1-2.917-2.927L3.25 4.186A2.924 2.924 0 0 1 6.167 1.25h6.803a.97.97 0 0 1 .686.286l6.809 6.827a.98.98 0 0 1 .285.692v10.763a2.924 2.924 0 0 1-2.917 2.932H11.75V19a2.75 2.75 0 1 0-5.5 0v3.75zM18.804 9.46l-6.237-6.254V7.96a1.5 1.5 0 0 0 1.5 1.5zM10.25 19v3.75h-2.5V19a1.25 1.25 0 1 1 2.5 0M6 4.75a.75.75 0 0 0 0 1.5h.5a.75.75 0 0 0 0-1.5zm3.5 2a.75.75 0 0 0 0 1.5h.5a.75.75 0 0 0 0-1.5zm-3.5 2a.75.75 0 0 0 0 1.5h.5a.75.75 0 0 0 0-1.5zm3.5 2.023a.75.75 0 0 0 0 1.5h.5a.75.75 0 1 0 0-1.5zM6 12.75a.75.75 0 0 0 0 1.5h.5a.75.75 0 0 0 0-1.5z" clip-rule="evenodd"/></svg>