<svg xmlns="http://www.w3.org/2000/svg" fill="none" viewBox="0 0 24 24"><path fill="currentColor" fill-rule="evenodd" d="M2.75 17c0 1.166.726 2.163 1.75 2.563V7a4 4 0 0 1 4-4h9.563A2.75 2.75 0 0 0 15.5 1.25h-10A2.75 2.75 0 0 0 2.75 4zm5.75 5.75A2.75 2.75 0 0 1 5.75 20V7A2.75 2.75 0 0 1 8.5 4.25h10A2.75 2.75 0 0 1 21.25 7v10a.75.75 0 0 1-.22.53l-5 5a.75.75 0 0 1-.53.22zm6.69-1.5 4.56-4.56h-3.06a1.5 1.5 0 0 0-1.5 1.5zM9.25 13c0 .414.336.75.75.75h4a.75.75 0 0 0 0-1.5h-4a.75.75 0 0 0-.75.75m0-4c0 .414.336.75.75.75h7a.75.75 0 0 0 0-1.5h-7a.75.75 0 0 0-.75.75" clip-rule="evenodd"/></svg>