<svg xmlns="http://www.w3.org/2000/svg" fill="none" viewBox="0 0 24 24"><path fill="currentColor" fill-rule="evenodd" d="M1 10.5A9.5 9.5 0 1 1 16.332 18H20.5a2.5 2.5 0 0 1 0 5h-5a1 1 0 1 1 0-2h5a.5.5 0 0 0 0-1h-10A9.5 9.5 0 0 1 1 10.5m5.293-4.207a1 1 0 0 1 1.414 0l1 1a1 1 0 0 1-1.414 1.414l-1-1a1 1 0 0 1 0-1.414m8.414 0a1 1 0 0 1 0 1.414l-1 1a1 1 0 1 1-1.414-1.414l1-1a1 1 0 0 1 1.414 0M9.5 10.5a1 1 0 0 1 1-1h.008a1 1 0 0 1 0 2H10.5a1 1 0 0 1-1-1m-.793 1.793a1 1 0 0 1 0 1.414l-1 1a1 1 0 0 1-1.414-1.414l1-1a1 1 0 0 1 1.414 0m3.586 0a1 1 0 0 1 1.414 0l1 1a1 1 0 0 1-1.414 1.414l-1-1a1 1 0 0 1 0-1.414" clip-rule="evenodd"/></svg>