<svg xmlns="http://www.w3.org/2000/svg" fill="none" viewBox="0 0 24 24"><path fill="currentColor" fill-rule="evenodd" d="M2.25 4c0-.966.784-1.75 1.75-1.75h16c.966 0 1.75.784 1.75 1.75v.903c0 .327-.091.648-.264.925l-.029.046a6.06 6.06 0 0 0-4.042-1.538c-.65 0-1.25.09-1.804.25a2.5 2.5 0 0 0-4.109 1.911l-.002 2c0 .619.226 1.2.616 1.647a2.5 2.5 0 0 0-.332 2.328 6.28 6.28 0 0 0 3.44 3.588l-.413 2.557a1.75 1.75 0 0 1-.944 1.286l-2.248 1.126a1.75 1.75 0 0 1-2.523-1.372L8.3 12.483a.25.25 0 0 0-.088-.165L2.88 7.877a1.75 1.75 0 0 1-.63-1.344zm11.753 1.5a1 1 0 0 1 .998.956 4.9 4.9 0 0 1 2.414-.62A4.587 4.587 0 0 1 22 10.432C22 12.995 19.922 15 17.409 15c-1.918 0-3.608-1.368-4.215-3.04a1 1 0 1 1 1.88-.681c.352.97 1.35 1.721 2.335 1.721A2.57 2.57 0 0 0 20 10.432a2.587 2.587 0 0 0-2.585-2.596c-1.029 0-1.79.455-2.709 1.372A1 1 0 0 1 13 8.5l.002-2a1 1 0 0 1 1-.999" clip-rule="evenodd"/></svg>