<svg xmlns="http://www.w3.org/2000/svg" fill="none" viewBox="0 0 24 24"><path fill="currentColor" fill-rule="evenodd" d="M8.658 8.314c-.4-.526-.645-1.222-.737-1.702a1 1 0 0 0-1.778-.418q-.181.235-.377.478C4.926 7.72 3.963 8.917 4 11.018A1 1 0 0 0 5 12h14a1 1 0 0 0 1-1c0-.81-.395-1.61-.89-2.28-.514-.694-1.221-1.367-2.037-1.939-1.878-1.317-2.888-2.61-3.425-3.533a6 6 0 0 1-.507-1.088 4 4 0 0 1-.092-.328.998.998 0 0 0-1.644-.585l-.005.004a7 7 0 0 0-.213.202 9.8 9.8 0 0 0-1.782 2.444c-.594 1.17-1.037 2.702-.747 4.417m2.59 8.936H1.25V16A2.75 2.75 0 0 1 4 13.25h7.248zM1.25 20v-1.25h4.998v4H4A2.75 2.75 0 0 1 1.25 20m14.998 2.75h-8.5v-4h8.5zm3.752 0h-2.252v-4h5.002V20A2.75 2.75 0 0 1 20 22.75M22.75 16v1.25H12.748v-4H20A2.75 2.75 0 0 1 22.75 16" clip-rule="evenodd"/></svg>