<svg xmlns="http://www.w3.org/2000/svg" fill="none" viewBox="0 0 24 24"><path fill="currentColor" fill-rule="evenodd" d="m9.898 2.945 2.493 3.3H20a2.75 2.75 0 0 1 2.75 2.75v1.044a4.75 4.75 0 0 0-8.252 3.211 2.25 2.25 0 0 0 3.014 2.117 3.77 3.77 0 0 0-.51 1.887c.001.705.327 1.334.836 1.746a2.246 2.246 0 0 0-.602 2.75H4A2.75 2.75 0 0 1 1.25 19V4c0-.966.784-1.75 1.75-1.75h5.502a1.75 1.75 0 0 1 1.396.695m7.848 10.305a1.5 1.5 0 1 1 2.348 1.239c-.37.253-.812.592-1.166 1.02-.358.432-.68 1.018-.678 1.743a1 1 0 1 0 2-.004c0-.103.042-.25.218-.463.18-.216.443-.432.756-.646a3.5 3.5 0 1 0-5.478-2.889 1 1 0 1 0 2 0m2.504 7.5a1 1 0 1 0-2 0 1 1 0 0 0 2 0" clip-rule="evenodd"/></svg>