<svg xmlns="http://www.w3.org/2000/svg" fill="none" viewBox="0 0 24 24"><path fill="currentColor" fill-rule="evenodd" d="m9.898 2.945 2.493 3.3H20a2.75 2.75 0 0 1 2.75 2.75v6.832a12 12 0 0 0-.938-.867C20.778 14.104 19.077 13 17 13s-3.778 1.104-4.812 1.96c-.545.452-.981.9-1.282 1.234-.088.098-.509.61-.509.61a2 2 0 0 0 0 2.392s.42.512.509.61c.3.335.737.782 1.282 1.234.275.227.597.473.96.71H4A2.75 2.75 0 0 1 1.25 19V4c0-.966.784-1.75 1.75-1.75h5.502a1.75 1.75 0 0 1 1.396.695m3.088 12.978c.953-.79 2.372-1.673 4.014-1.673s3.06.883 4.014 1.673c.487.403.88.806 1.15 1.107.136.15.437.521.437.521a.75.75 0 0 1 0 .898s-.3.37-.436.521a11 11 0 0 1-1.151 1.107c-.953.79-2.372 1.673-4.014 1.673s-3.061-.883-4.014-1.673a11 11 0 0 1-1.15-1.107c-.137-.15-.437-.521-.437-.521a.75.75 0 0 1 0-.898s.3-.37.436-.521c.271-.302.663-.704 1.15-1.107M15.5 18c0-.828.669-1.5 1.493-1.5h.014c.824 0 1.493.672 1.493 1.5s-.669 1.5-1.493 1.5h-.014A1.497 1.497 0 0 1 15.5 18" clip-rule="evenodd"/></svg>