<svg xmlns="http://www.w3.org/2000/svg" fill="none" viewBox="0 0 24 24"><path fill="currentColor" fill-rule="evenodd" d="m9.898 2.945 2.493 3.3H20a2.75 2.75 0 0 1 2.75 2.75v6.573l-2.409-2.409a2.25 2.25 0 0 0-3.713 2.341H13.75a2.25 2.25 0 0 0 0 4.5h2.878c-.2.57-.166 1.203.106 1.75H4A2.75 2.75 0 0 1 1.25 19V4c0-.966.784-1.75 1.75-1.75h5.502a1.75 1.75 0 0 1 1.396.695m9.56 11.098a1 1 0 0 0-1.415 1.414l1.293 1.293H13.75a1 1 0 1 0 0 2h5.586l-1.293 1.293a1 1 0 0 0 1.414 1.414l3-3a1 1 0 0 0 0-1.414z" clip-rule="evenodd"/></svg>