<svg xmlns="http://www.w3.org/2000/svg" fill="none" viewBox="0 0 24 24"><path fill="currentColor" fill-rule="evenodd" d="m9.898 2.945 2.493 3.3H20a2.75 2.75 0 0 1 2.75 2.75v4.148h-1.475A5.74 5.74 0 0 0 17.25 11.5a5.8 5.8 0 0 0-3.547 1.212 2.25 2.25 0 0 0-2.966 3.044l1 2c.228.457.597.809 1.034 1.02a2.25 2.25 0 0 0 .454 2.581q.212.208.445.393H4A2.75 2.75 0 0 1 1.25 19V4c0-.966.784-1.75 1.75-1.75h5.502a1.75 1.75 0 0 1 1.396.695m4.842 13.947c.172-1.199 1.24-2.142 2.51-2.142.682 0 1.298.271 1.75.714a1 1 0 1 0 1.4-1.428 4.5 4.5 0 0 0-3.15-1.286 4.56 4.56 0 0 0-3.538 1.688l-.067-.135a1 1 0 1 0-1.79.894l1 2a1 1 0 0 0 1.885-.305m6.905.41a1 1 0 0 0-1.885.306c-.171 1.199-1.239 2.142-2.51 2.142a2.5 2.5 0 0 1-1.75-.714 1 1 0 1 0-1.4 1.428 4.5 4.5 0 0 0 3.15 1.286 4.56 4.56 0 0 0 3.538-1.688l.068.135a1 1 0 1 0 1.789-.894z" clip-rule="evenodd"/></svg>