<svg xmlns="http://www.w3.org/2000/svg" fill="none" viewBox="0 0 24 24"><path fill="currentColor" fill-rule="evenodd" d="M5.5 8.252V6.75a5.5 5.5 0 1 1 11 0v1.502h.5a2.75 2.75 0 0 1 2.723 2.362 4.3 4.3 0 0 0-.973-.112c-2.322 0-4.25 1.868-4.25 4.228 0 1.243 1.136 2.246 2.379 2.246a4.2 4.2 0 0 0-.379 1.71v.494c0 .479.15.922.403 1.286a2.24 2.24 0 0 0-.403 1.286c0 .36.084.699.234 1H5a2.75 2.75 0 0 1-2.75-2.75l-.001-9A2.75 2.75 0 0 1 5 8.252zm2-1.502a3.5 3.5 0 1 1 7 0v1.502h-7zm5.5 8.742a1 1 0 1 0-2 0v.01a1 1 0 1 0 2 0zm-5-1a1 1 0 0 1 1 1v.01a1 1 0 1 1-2 0v-.01a1 1 0 0 1 1-1m9.75.236a.99.99 0 0 1 1-.978.99.99 0 0 1 1 .978.95.95 0 0 1-.155.524c-.118.18-.268.371-.453.599l-.09.11c-.154.19-.33.404-.49.622-.376.51-.812 1.222-.812 2.101v.495a1 1 0 1 0 2 0v-.495c0-.213.107-.486.423-.916.127-.173.264-.34.418-.53l.103-.125c.186-.23.396-.492.577-.77a2.95 2.95 0 0 0 .479-1.615c0-1.655-1.354-2.978-3-2.978s-3 1.323-3 2.978a1 1 0 1 0 2 0m1 6.022a1 1 0 1 0 0 2h.012a1 1 0 1 0 0-2z" clip-rule="evenodd"/></svg>