<svg xmlns="http://www.w3.org/2000/svg" fill="none" viewBox="0 0 24 24"><path fill="currentColor" fill-rule="evenodd" d="M13 3a1 1 0 1 0-2 0v5.75h-.086c-.198-.3-.516-.752-.898-1.18-.406-.455-.98-.995-1.637-1.203-1.358-.43-2.73.355-3.786 1.474C3.5 9 2.533 10.719 1.913 12.714s-.801 3.961-.56 5.542c.232 1.524.913 2.954 2.268 3.382.95.3 2.155-.018 3.248-.768 1.124-.771 2.235-2.06 3.056-3.924.058-.133.174-.196.268-.196l3.614.003c.094 0 .21.063.268.196.82 1.865 1.931 3.152 3.056 3.923 1.094.75 2.3 1.066 3.248.766 1.355-.428 2.036-1.858 2.268-3.382.241-1.58.06-3.546-.56-5.542S20.5 9 19.407 7.841C18.35 6.722 16.98 5.938 15.62 6.367c-.658.208-1.231.748-1.637 1.202-.382.429-.7.88-.898 1.18H13zm-3 10a1 1 0 0 1 1-1h2a1 1 0 1 1 0 2h-2a1 1 0 0 1-1-1" clip-rule="evenodd"/></svg>