<svg xmlns="http://www.w3.org/2000/svg" fill="none" viewBox="0 0 24 24"><path fill="currentColor" fill-rule="evenodd" d="M6 3.586A2 2 0 0 1 7.414 3H17a1 1 0 1 1 0 2h-1v1h2.264a3 3 0 0 1 2.683 1.658l1.939 3.878a1 1 0 0 1 .114.485V17a2 2 0 0 1-2 2h-.333A3.804 3.804 0 0 0 17 14.2a3.8 3.8 0 0 0-3.667 4.8h-2.666A3.804 3.804 0 0 0 7 14.2 3.8 3.8 0 0 0 3.333 19H3a2 2 0 0 1-2-2V9.414A2 2 0 0 1 1.586 8zM20.382 11l-1.224-2.447A1 1 0 0 0 18.264 8H16v3zM11 8.25a.75.75 0 0 1 .75.75v3a.75.75 0 0 1-1.5 0V9a.75.75 0 0 1 .75-.75m-4 1a.75.75 0 0 1 .75.75v2a.75.75 0 0 1-1.5 0v-2A.75.75 0 0 1 7 9.25M14.5 18a2.5 2.5 0 1 1 5 0 2.5 2.5 0 0 1-5 0M7 15.5a2.5 2.5 0 1 0 0 5 2.5 2.5 0 0 0 0-5" clip-rule="evenodd"/></svg>