<svg xmlns="http://www.w3.org/2000/svg" fill="none" viewBox="0 0 24 24"><path fill="currentColor" fill-rule="evenodd" d="M4 1.25A2.75 2.75 0 0 0 1.25 4v16A2.75 2.75 0 0 0 4 22.75h16A2.75 2.75 0 0 0 22.75 20V4A2.75 2.75 0 0 0 20 1.25zM19 19a1 1 0 1 0-2 0 1 1 0 1 0 2 0M5.25 19a.75.75 0 0 1 .75-.75h4a.75.75 0 0 1 0 1.5H6a.75.75 0 0 1-.75-.75M12 4.25a.75.75 0 0 1 .75.75v.309a4.75 4.75 0 0 1 3.941 3.941H17a.75.75 0 0 1 0 1.5h-.309a4.75 4.75 0 0 1-3.941 3.941V15a.75.75 0 0 1-1.5 0v-.309a4.75 4.75 0 0 1-3.941-3.941H7a.75.75 0 0 1 0-1.5h.309a4.75 4.75 0 0 1 3.941-3.941V5a.75.75 0 0 1 .75-.75m0 3a.75.75 0 0 1-.678-.43A3.25 3.25 0 0 0 8.82 9.323a.75.75 0 0 1 0 1.356 3.25 3.25 0 0 0 2.5 2.501.75.75 0 0 1 1.357 0 3.25 3.25 0 0 0 2.501-2.5.75.75 0 0 1 0-1.357 3.25 3.25 0 0 0-2.5-2.501.75.75 0 0 1-.679.429" clip-rule="evenodd"/></svg>