<svg xmlns="http://www.w3.org/2000/svg" fill="none" viewBox="0 0 24 24"><path fill="currentColor" fill-rule="evenodd" d="M5.191 22.75a2.924 2.924 0 0 1-2.917-2.927L2.25 4.186A2.924 2.924 0 0 1 5.167 1.25h6.803a.97.97 0 0 1 .686.286l6.809 6.827a.98.98 0 0 1 .285.692V12H7a2 2 0 0 0-2 2v5a2 2 0 0 0 2 2h12.503a2.92 2.92 0 0 1-2.67 1.75zM17.804 9.46l-6.237-6.254V7.96a1.5 1.5 0 0 0 1.5 1.5zM7 13.25a.75.75 0 0 0-.75.75v5c0 .414.336.75.75.75h3.5a.75.75 0 0 0 .75-.75v-2a.75.75 0 0 0-.75-.75h-1a.75.75 0 0 0 0 1.5h.25v.5h-2v-3.5h2V15a.75.75 0 0 0 1.5 0v-1a.75.75 0 0 0-.75-.75zm6 0a.75.75 0 0 0 0 1.5h.75v3.5H13a.75.75 0 0 0 0 1.5h3a.75.75 0 0 0 0-1.5h-.75v-3.5H16a.75.75 0 0 0 0-1.5zm5.5 0a.75.75 0 0 0-.75.75v5a.75.75 0 0 0 1.5 0v-1.75h1.25a.75.75 0 0 0 0-1.5h-1.25v-1H21a.75.75 0 0 0 0-1.5z" clip-rule="evenodd"/></svg>