<svg xmlns="http://www.w3.org/2000/svg" fill="none" viewBox="0 0 24 24"><path fill="currentColor" fill-rule="evenodd" d="M22.75 6v6.25h-4.744c.543-.843.744-1.898.744-2.851 0-1.286-1.116-2.348-2.43-2.118-1.5.262-2.733 1.386-3.57 2.477V3.25H20A2.75 2.75 0 0 1 22.75 6M8.47 15.47l1.72-1.72H1.25V18A2.75 2.75 0 0 0 4 20.75h7.25v-5.939L9.53 16.53a.75.75 0 1 1-1.06-1.06M20 20.75h-7.25v-5.939l1.72 1.719a.75.75 0 1 0 1.06-1.06l-1.72-1.72h8.94V18A2.75 2.75 0 0 1 20 20.75m-8.989-8.5h-2.22c-.753-.003-1.221-.326-1.533-.809-.339-.522-.508-1.265-.508-2.043 0-.443.361-.695.67-.64.979.17 1.942.98 2.7 1.991.367.49.66.995.858 1.425zm2.011-.076-.034.075h2.221c.753-.002 1.22-.325 1.533-.808.339-.522.508-1.265.508-2.043 0-.443-.362-.695-.671-.64-.978.17-1.942.98-2.7 1.991-.367.49-.66.995-.857 1.425m-7.028.076H1.25V6A2.75 2.75 0 0 1 4 3.25h7.25v6.508c-.837-1.091-2.07-2.215-3.57-2.477-1.314-.23-2.43.832-2.43 2.118 0 .953.2 2.008.744 2.851" clip-rule="evenodd"/></svg>