<svg xmlns="http://www.w3.org/2000/svg" fill="none" viewBox="0 0 24 24"><path fill="currentColor" fill-rule="evenodd" d="M1.25 11.094c.422-4.605 3.707-8.377 8.05-9.502q-.1.207-.201.425c-1.011 2.2-2.03 5.323-2.116 9.077zm0 2.019c.442 4.813 4.01 8.716 8.644 9.637a23.2 23.2 0 0 1-2.865-9.637zm7.794 0A20.7 20.7 0 0 0 12 22.233a20.7 20.7 0 0 0 2.955-9.12zm7.925 0a23.2 23.2 0 0 1-2.866 9.637c4.636-.92 8.205-4.823 8.647-9.637zm5.781-2.02h-5.735c-.085-3.753-1.105-6.875-2.116-9.076a24 24 0 0 0-.2-.425c4.343 1.123 7.629 4.896 8.051 9.502m-7.745 0H8.992c.085-3.294.983-6.055 1.89-8.03.328-.715.656-1.323.944-1.812a11 11 0 0 1 .345 0c.288.489.616 1.097.945 1.813.907 1.974 1.805 4.735 1.89 8.03" clip-rule="evenodd"/></svg>