<svg xmlns="http://www.w3.org/2000/svg" fill="none" viewBox="0 0 24 24"><path fill="currentColor" fill-rule="evenodd" d="M12.02 1.266a11 11 0 0 0-1.888.167c-4.662.828-8.305 4.668-8.801 9.468l-.013.082q-.048.51-.048 1.032a10.74 10.74 0 0 0 4.962 9.061c1.36.871 2.93 1.445 4.62 1.628.536.058.983-.376.993-.915.01-.54-.421-.98-.957-1.049a9 9 0 0 1-.795-.14c-.176-.04-.264-.059-.309-.123s-.03-.168 0-.374q.024-.18.028-.36c.012-.677-.202-1.304-.356-1.746-.267-.765-.369-1.065-.421-1.416-.055-.366-.057-.795-.057-1.814 0-.99-.11-1.952-.86-2.567-.36-.295-.804-.454-1.287-.545-.483-.09-1.057-.121-1.723-.121a3.5 3.5 0 0 1-1.593-.402c-.109-.055-.164-.082-.193-.14-.03-.057-.02-.12-.003-.244a8.8 8.8 0 0 1 5.532-6.936c.156-.06.234-.09.298-.073a.2.2 0 0 1 .078.043c.05.044.07.138.108.325.156.757.605 1.461 1.397 1.846.316.153.442.307.512.436.084.155.14.447.186.758.085.596.215 1.506 1.222 2.157.679.44 1.53.598 2.43.332.885-.26 1.756-.907 2.569-1.959a3 3 0 0 1 1.096-.876c.122-.058.183-.087.254-.069.07.018.111.076.194.192a8.75 8.75 0 0 1 1.587 4.278c.05.537.473.984 1.013.994s.99-.42.95-.96c-.293-4.094-2.887-7.57-6.514-9.114a10.7 10.7 0 0 0-4.212-.856M14 16.996a3 3 0 1 1 6 0 3 3 0 0 1-6 0m3-5a5 5 0 1 0 2.48 9.343c.141-.081.212-.121.279-.112s.121.063.23.172l1.305 1.304a1 1 0 0 0 1.414-1.414l-1.305-1.305c-.109-.109-.163-.163-.172-.23s.031-.138.112-.28A5 5 0 0 0 17 11.996" clip-rule="evenodd"/></svg>