<svg xmlns="http://www.w3.org/2000/svg" fill="none" viewBox="0 0 24 24"><path fill="currentColor" fill-rule="evenodd" d="M13.908 1.482a7.7 7.7 0 0 0-1.915-.232c-2.23-.003-4.126.926-5.483 2.36l3.286 2.742zM4.814 12.251l4.014-4.753L5.585 4.79c-1.375 2.134-1.776 4.922-.771 7.46m14.221-6.313L9.02 18.18l-.039.044c.35.464.712.966 1.047 1.479.583.894 1.053 1.77 1.262 2.504a.75.75 0 0 0 1.443 0c.261-.918.839-1.961 1.554-3.006.708-1.035 1.517-2.025 2.203-2.835a22 22 0 0 0 2.443-3.492c1.102-2.27 1.036-4.81.104-6.937m-7.428.594 3.794-4.493a7.7 7.7 0 0 1 2.847 2.49L14.5 9.112q.003-.056.003-.112a2.5 2.5 0 0 0-2.894-2.47m.998 4.895L8.04 17.006q-.275-.351-.589-.734l-.066-.082a51 51 0 0 1-.821-1.026 16 16 0 0 1-1.018-1.457L9.5 9.026a2.5 2.5 0 0 0 3.104 2.401" clip-rule="evenodd"/></svg>