<svg xmlns="http://www.w3.org/2000/svg" fill="none" viewBox="0 0 24 24"><path fill="currentColor" fill-rule="evenodd" d="M13.667 4.374c-.365.632-.556 1.384-.63 2.021A3.752 3.752 0 0 1 12 13.75a3.75 3.75 0 0 1-.971-7.373c.08-.896.335-2.013.905-3.001C12.673 2.092 13.97 1 16 1a1 1 0 1 1 0 2c-1.17 0-1.873.575-2.334 1.374M6.95 10c0 1.188.41 2.28 1.097 3.143a3.75 3.75 0 1 1 0-6.285A5.03 5.03 0 0 0 6.95 10m9.003 3.143a3.75 3.75 0 1 0 0-6.285A5.03 5.03 0 0 1 17.05 10c0 1.188-.41 2.28-1.097 3.143M12 15.049a5.03 5.03 0 0 0 3.02-1.002q.1.104.223.183a5.03 5.03 0 0 0 3.507.764v.005a3.75 3.75 0 1 1-7.5 0v-.005q.367.055.75.055m-2-.412a5 5 0 0 1-1.02-.59 1.3 1.3 0 0 1-.223.183 5.03 5.03 0 0 1-3.507.764v.005a3.75 3.75 0 0 0 5.799 3.141 5.04 5.04 0 0 1-1.099-3.146 1.3 1.3 0 0 1 .05-.357m-.998 5.415a5.02 5.02 0 0 0 3-.99 5.02 5.02 0 0 0 3.612.953 3.752 3.752 0 0 1-7.223 0q.3.037.611.037" clip-rule="evenodd"/></svg>