<svg xmlns="http://www.w3.org/2000/svg" fill="none" viewBox="0 0 24 24"><path fill="currentColor" fill-rule="evenodd" d="M12 1.25c-1.433 0-3.016.5-3.91 1.864-.589.896-.84 1.85-.84 2.898 0 .728.106 1.452.315 2.15.274.913.606 2.007 1.201 2.884l-4.234 2.31a2.75 2.75 0 0 0-1.41 2.05l-.865 6.495a.75.75 0 1 0 1.487.198l.865-6.494a1.25 1.25 0 0 1 .64-.932l4.61-2.515.008-.004c.567.372 1.267.596 2.133.596.823 0 1.496-.203 2.047-.542-1.014 1.79-2.581 3.03-3.982 3.844-.485.282-.945.51-1.346.69l.019-.108a.75.75 0 0 0-1.476-.268l-1 5.5A.75.75 0 0 0 7 22.75h14a.75.75 0 0 0 .744-.85l-.57-4.274a23 23 0 0 1-.636.923c-.933 1.287-2.056 2.565-2.925 3.144a.75.75 0 0 1-.832-1.248c.632-.421 1.625-1.51 2.542-2.776.644-.888 1.187-1.775 1.517-2.476a2.75 2.75 0 0 0-1.371-1.837l-.528-.288c-.618 2.395-2.219 4.256-3.641 5.513a17 17 0 0 1-2.04 1.542 15 15 0 0 1-.842.504l-.045.024-.026.014-.003.002a.75.75 0 0 1-.688-1.333l.01-.005.037-.02.158-.088a15.7 15.7 0 0 0 2.446-1.764c1.401-1.238 2.836-2.984 3.266-5.135l-2.34-1.276c.596-.877.927-1.971 1.201-2.884a7.5 7.5 0 0 0 .316-2.15c0-1.049-.252-2.002-.84-2.898C15.015 1.749 13.432 1.25 12 1.25M8.797 6.762h6.406q-.063.493-.205.969c-.297.988-.582 1.878-1.047 2.531-.426.598-.993.988-1.951.988s-1.526-.39-1.951-.988c-.466-.653-.75-1.543-1.047-2.531a6 6 0 0 1-.205-.969" clip-rule="evenodd"/></svg>