<svg xmlns="http://www.w3.org/2000/svg" fill="none" viewBox="0 0 24 24"><path fill="currentColor" fill-rule="evenodd" d="M9.5 3.25A6.75 6.75 0 0 0 2.75 10c0 .414.336.75.75.75h17a.75.75 0 0 0 .75-.75 6.75 6.75 0 0 0-6.75-6.75zM15 6a1 1 0 1 0 0 2h.009a1 1 0 1 0 0-2zm-4.47-.03a.75.75 0 0 1 0 1.06l-1 1a.75.75 0 0 1-1.06-1.06l1-1a.75.75 0 0 1 1.06 0M16 12.25a.75.75 0 0 0-.53.22L14 13.94l-1.47-1.47a.75.75 0 0 0-.53-.22H3.5a2.25 2.25 0 0 0-.086 4.499l.48 1.918a2.75 2.75 0 0 0 2.668 2.083h10.876a2.75 2.75 0 0 0 2.668-2.083l.48-1.918a2.25 2.25 0 0 0-.086-4.499zm-1.19 3 1.5-1.5h4.19a.75.75 0 0 1 0 1.5zm-3.12-1.5 1.5 1.5H3.5a.75.75 0 0 1 0-1.5z" clip-rule="evenodd"/></svg>