<svg xmlns="http://www.w3.org/2000/svg" fill="none" viewBox="0 0 24 24"><path fill="currentColor" fill-rule="evenodd" d="M2.75 10A6.75 6.75 0 0 1 9.5 3.25h5A6.75 6.75 0 0 1 21.25 10v.55a2.75 2.75 0 0 1-.018 4.91 5.75 5.75 0 0 1-5.732 5.29h-7a5.75 5.75 0 0 1-5.732-5.29 2.75 2.75 0 0 1-.018-4.91zm1.21 1.75a1.25 1.25 0 0 0 .04 2.5h2a.75.75 0 0 1 .53.22l1.763 1.762c.333.334.5.5.707.5s.374-.166.707-.5l1.763-1.762a.75.75 0 0 1 .53-.22h8a1.25 1.25 0 1 0 0-2.5h-7.69l-2.78 2.78a.75.75 0 0 1-1.06 0l-2.78-2.78zM8 8a1 1 0 0 1 1-1h.009a1 1 0 1 1 0 2H9a1 1 0 0 1-1-1m6.53.53 1-1a.75.75 0 0 0-1.06-1.06l-1 1a.75.75 0 0 0 1.06 1.06" clip-rule="evenodd"/></svg>