<svg xmlns="http://www.w3.org/2000/svg" fill="none" viewBox="0 0 24 24"><path fill="currentColor" fill-rule="evenodd" d="M12 1a3.5 3.5 0 0 0-2.999 5.306L7.255 10.67l-.992-.372a.75.75 0 0 0-1.007.609c-.243 1.939-.726 3.742-1.38 5.229-.659 1.497-1.467 2.62-2.326 3.264a.75.75 0 0 0-.175 1.015C2.349 21.883 3.663 22.75 5 22.75c1.762 0 2.937-.798 3.625-1.835a.75.75 0 0 0 .072-.691l-.004-.01-.02-.059a3.6 3.6 0 0 1-.173-1.09c0-.652.193-1.394.952-1.966a.75.75 0 0 0 .22-.933c-.351-.706-.2-1.439.124-2.084a4.6 4.6 0 0 1 .724-1.04l.009-.01.002-.002a.75.75 0 0 0-.268-1.232l-1.134-.426 1.466-3.665A3.5 3.5 0 1 0 12 1m-1.5 3.5a1.5 1.5 0 1 1 3 0 1.5 1.5 0 0 1-3 0m7.888 5.858a.75.75 0 0 0-.651-.06l-.992.372-.816-2.041a1 1 0 1 0-1.857.743l.8 2-1.135.426a.75.75 0 0 0-.268 1.232l.002.002.01.01.047.05c.042.048.106.12.18.215.15.19.338.458.496.775.324.645.476 1.378.124 2.084a.75.75 0 0 0 .22.933c.759.572.952 1.314.952 1.967a3.6 3.6 0 0 1-.193 1.147l-.004.01a.75.75 0 0 0 .072.692c.688 1.037 1.863 1.835 3.625 1.835 1.337 0 2.65-.867 3.625-2.335a.75.75 0 0 0-.175-1.015c-.86-.644-1.667-1.767-2.326-3.265-.654-1.486-1.138-3.29-1.38-5.228a.75.75 0 0 0-.356-.549" clip-rule="evenodd"/></svg>