<svg xmlns="http://www.w3.org/2000/svg" fill="none" viewBox="0 0 24 24"><path fill="currentColor" fill-rule="evenodd" d="M12 1.25c-1.352 0-2.55 1.06-3.367 2.659-.568 1.11-1.002 2.56-1.222 4.341H5.999A1.75 1.75 0 0 0 4.249 10v4.248h5.018a1.75 1.75 0 0 1 1.732-1.498h2c.88 0 1.61.651 1.732 1.5h5.018V10a1.75 1.75 0 0 0-1.75-1.75h-1.41c-.22-1.78-.654-3.231-1.222-4.341C14.55 2.31 13.352 1.25 12 1.25m3.077 7c-.209-1.55-.59-2.767-1.045-3.659C13.315 3.19 12.513 2.75 12 2.75s-1.315.44-2.032 1.841c-.456.892-.836 2.108-1.045 3.659zm-5.811 7.498h-5.26l-1 3.496A2.75 2.75 0 0 0 5.65 22.75h12.697a2.75 2.75 0 0 0 2.644-3.506l-.998-3.494H14.73a1.75 1.75 0 0 1-1.732 1.5h-2a1.75 1.75 0 0 1-1.733-1.502m1.733-1.498a.25.25 0 0 0-.25.25v1c0 .138.111.25.25.25h2a.25.25 0 0 0 .25-.25v-1a.25.25 0 0 0-.25-.25z" clip-rule="evenodd"/></svg>