<svg xmlns="http://www.w3.org/2000/svg" fill="none" viewBox="0 0 24 24"><path fill="currentColor" fill-rule="evenodd" d="M6.17 1.25c-1.612-.002-2.92 1.29-2.92 2.885v8.653c0 .531.435.962.972.962h15.556a.98.98 0 0 0 .687-.282.96.96 0 0 0 .285-.68V8.941c0-.255-.103-.5-.285-.68l-6.81-6.723a.98.98 0 0 0-.686-.28zm6.396 1.93 6.24 6.16h-4.74a1.5 1.5 0 0 1-1.5-1.5zM4.75 16a.75.75 0 0 0-1.5 0v6a.75.75 0 0 0 1.5 0v-2.25h2V22a.75.75 0 0 0 1.5 0v-6a.75.75 0 0 0-1.5 0v2.25h-2zm5.25-.75a.75.75 0 0 0-.75.75v6c0 .414.336.75.75.75h1.5A2.75 2.75 0 0 0 14.25 20v-2a2.75 2.75 0 0 0-2.75-2.75zm.75 6v-4.5h.75c.69 0 1.25.56 1.25 1.25v2c0 .69-.56 1.25-1.25 1.25zm4.5-5.25a.75.75 0 0 1 .75-.75h2.25a2.5 2.5 0 0 1 1.219 4.683l1.145 1.637a.75.75 0 1 1-1.228.86l-1.526-2.18h-1.11V22a.75.75 0 0 1-1.5 0zm1.5 2.75h1.5a1 1 0 1 0 0-2h-1.5z" clip-rule="evenodd"/></svg>