<svg xmlns="http://www.w3.org/2000/svg" fill="none" viewBox="0 0 24 24"><path fill="currentColor" fill-rule="evenodd" d="M12 4.5a7 7 0 0 0-7 7v.408c.294-.014.59.049.854.181l.929.464c.592.297.967.903.967 1.565v4.764a1.75 1.75 0 0 1-.967 1.566l-.929.464a1.68 1.68 0 0 1-1.782-.163c-.443-.344-1.125-.922-1.703-1.628-.56-.686-1.119-1.606-1.119-2.62s.558-1.935 1.12-2.62a9 9 0 0 1 .645-.706A1 1 0 0 1 3 13v-1.5a9 9 0 0 1 18 0V13q0 .09-.015.175c.218.215.438.452.646.705.56.686 1.119 1.606 1.119 2.62s-.558 1.935-1.12 2.62c-.577.707-1.259 1.285-1.702 1.63a1.68 1.68 0 0 1-1.783.162l-.928-.464a1.75 1.75 0 0 1-.967-1.566v-4.764c0-.662.375-1.268.967-1.565l.928-.464c.265-.132.56-.195.855-.18V11.5a7 7 0 0 0-7-7" clip-rule="evenodd"/></svg>