<svg xmlns="http://www.w3.org/2000/svg" fill="none" viewBox="0 0 24 24"><path fill="currentColor" fill-rule="evenodd" d="M5 5a1 1 0 0 0-2 0v14a1 1 0 1 0 2 0v-6h7v6a1 1 0 1 0 2 0V5a1 1 0 1 0-2 0v6H5zm11 5a1 1 0 0 0-1 1v3a1 1 0 0 0 1 1h1.5c.822 0 1.5.678 1.5 1.513C19 17.32 18.321 18 17.5 18c-.327 0-.55-.08-.678-.144a1 1 0 0 1-.137-.085 1 1 0 0 0-1.391 1.437 3 3 0 0 0 .634.436c.372.187.9.356 1.572.356 1.913 0 3.5-1.562 3.5-3.487C21 14.586 19.44 13 17.5 13H17v-1h2.5a1 1 0 1 0 0-2z" clip-rule="evenodd"/></svg>