<svg xmlns="http://www.w3.org/2000/svg" fill="none" viewBox="0 0 24 24"><path fill="currentColor" fill-rule="evenodd" d="M13.201 2.968c.3-.29.77-.29 1.07 0l7.76 7.76c.14.15.22.34.22.53 0 .2-.08.39-.22.54l-4.24 4.23c-.29.29-.76.29-1.06 0l-7.76-7.77a.75.75 0 0 1 0-1.06zm-4.94 6.35-1.06 1.06c-.2.2-.27.49-.18.76.02.18.07.68.02 1.02-.11.68-.47 1.68-1.6 2.81-.29.29-.29.77 0 1.06l3.53 3.53c.29.29.76.29 1.06 0 1.12-1.13 2.13-1.49 2.8-1.6.35-.05.85 0 1.03.02.26.08.56.01.76-.18l1.05-1.06zm-6.3 10.66 2.79-2.87 3.12 3.12-.85.81c-.14.13-.33.21-.52.21h-4c-.3 0-.57-.18-.69-.46s-.06-.6.15-.81" clip-rule="evenodd"/></svg>