<svg xmlns="http://www.w3.org/2000/svg" fill="none" viewBox="0 0 24 24"><path fill="currentColor" fill-rule="evenodd" d="m10.323 7.323-3.33-1.666C7.688 4.437 9.308 2.75 12 2.75s4.31 1.688 5.008 2.907l-3.33 1.666.993-1.988a.75.75 0 0 0-1.342-.67L12 7.323l-1.329-2.658a.75.75 0 0 0-1.342.67zM5.306 6.284a.75.75 0 0 1-.008-.547C5.864 4.226 7.98 1.25 12 1.25s6.136 2.976 6.702 4.487a.75.75 0 0 1-.008.547l1.159.614a.75.75 0 0 1 .31.309l2.158 4.033a2.75 2.75 0 0 1 .269 1.854l-1.024 4.962a2.75 2.75 0 0 1-2.694 2.194h-.132a2.75 2.75 0 0 1-2.738 2.5H8a2.75 2.75 0 0 1-2.74-2.5h-.13a2.75 2.75 0 0 1-2.693-2.194l-1.025-4.962a2.75 2.75 0 0 1 .269-1.854l2.158-4.033a.75.75 0 0 1 .31-.309zM10.75 16a.75.75 0 0 0-1.5 0c0 .518-.007.883-.14 1.236-.121.324-.379.707-1.026 1.138a.75.75 0 1 0 .832 1.248c.853-.568 1.345-1.184 1.599-1.86.236-.628.235-1.245.235-1.721zm4 0a.75.75 0 0 0-1.5 0v.04c0 .477 0 1.094.236 1.723.253.675.745 1.29 1.599 1.86a.75.75 0 1 0 .831-1.249c-.646-.43-.904-.814-1.026-1.138-.132-.354-.14-.718-.14-1.236" clip-rule="evenodd"/></svg>