<svg xmlns="http://www.w3.org/2000/svg" fill="none" viewBox="0 0 24 24"><path fill="currentColor" fill-rule="evenodd" d="M4.25 4a2.75 2.75 0 1 1 5.5 0 2.75 2.75 0 0 1-5.5 0m0 6.264a2.75 2.75 0 0 1 3.09-2.729l.8.1a2.75 2.75 0 0 1 2.002 1.288l.974 1.582-6.866.004zm12.02-4.902a1 1 0 0 1-.132 1.408c-.122.101-.138.19-.138.23s.016.129.138.23C16.682 7.68 17 8.317 17 9s-.317 1.319-.862 1.77a1 1 0 1 1-1.276-1.54c.122-.101.138-.189.138-.23s-.016-.129-.138-.23C14.318 8.32 14 7.683 14 7s.318-1.319.862-1.77a1 1 0 0 1 1.408.132m3 0a1 1 0 0 1-.132 1.408c-.122.101-.138.19-.138.23s.016.129.138.23C19.682 7.68 20 8.317 20 9s-.318 1.319-.862 1.77a1 1 0 0 1-1.276-1.54c.122-.101.138-.189.138-.23s-.016-.129-.138-.23C17.318 8.32 17 7.683 17 7s.317-1.319.862-1.77a1 1 0 0 1 1.408.132M21.01 12l1 .01a1 1 0 1 1-.02 2l-.19-.002-1.476 6.643A3 3 0 0 1 17.396 23H6.604a3 3 0 0 1-2.928-2.349l-1.48-6.649L1.99 14a1 1 0 0 1 .02-2l.995.01z" clip-rule="evenodd"/></svg>