<svg xmlns="http://www.w3.org/2000/svg" fill="none" viewBox="0 0 24 24"><path fill="currentColor" fill-rule="evenodd" d="M13.683 1.69a.75.75 0 0 1-.373.993l-.56.255V22a.75.75 0 0 1-.75.75l-9-.006a.75.75 0 0 1-.75-.75V7.707a.75.75 0 0 1-.56-1.39l11-5a.75.75 0 0 1 .993.373M5.5 10.997a1 1 0 0 1 1.001-.999l2 .002a1 1 0 0 1-.002 2l-2-.002a1 1 0 0 1-.999-1.001m0 4.001a1 1 0 0 1 1-1h2a1 1 0 0 1 0 2h-2a1 1 0 0 1-1-1m11.248 7.752h-2.842c.093-.237.142-.49.142-.75V8.012l3.2 1.28V8a.75.75 0 0 1 1.5 0v1.892l2.512 1.005.032.013.985.394a.75.75 0 0 1-.529 1.403V22a.75.75 0 0 1-.75.75h-2.75v-3.052a.75.75 0 1 0-1.5 0zM15.75 14a.75.75 0 0 1 .75-.75h2a.75.75 0 0 1 0 1.5h-2a.75.75 0 0 1-.75-.75" clip-rule="evenodd"/></svg>