<svg xmlns="http://www.w3.org/2000/svg" fill="none" viewBox="0 0 24 24"><path fill="currentColor" fill-rule="evenodd" d="M14.969 1.414a.75.75 0 0 0-.937 0l-7.5 6a.75.75 0 1 0 .937 1.172l.281-.226v10.89h-3.5v-4.654c.368-.157.678-.421.91-.732.378-.504.59-1.165.59-1.864s-.212-1.36-.59-1.864c-.377-.504-.957-.886-1.66-.886s-1.283.382-1.66.886c-.378.504-.59 1.165-.59 1.864s.212 1.36.59 1.864c.232.31.542.575.91.732v4.654H2a.75.75 0 0 0 0 1.5h20a.75.75 0 0 0 0-1.5h-.75V8.36l.282.226a.75.75 0 1 0 .936-1.172zM17.25 19.25V15a1.75 1.75 0 0 0-1.75-1.75h-2A1.75 1.75 0 0 0 11.75 15v4.25h1.5V15a.25.25 0 0 1 .25-.25h2a.25.25 0 0 1 .25.25v4.25zM12.75 9a.75.75 0 0 1 .75-.75h2a.75.75 0 0 1 0 1.5h-2a.75.75 0 0 1-.75-.75" clip-rule="evenodd"/></svg>