<svg xmlns="http://www.w3.org/2000/svg" fill="none" viewBox="0 0 24 24"><path fill="currentColor" fill-rule="evenodd" d="M1.75 4.5A2.75 2.75 0 0 1 4.5 1.75h15a2.75 2.75 0 0 1 2.75 2.75v15a2.75 2.75 0 0 1-2.75 2.75h-15a2.75 2.75 0 0 1-2.75-2.75zm1.953 14.821c0 .54.437.976.976.976h10.005c-.657-2.002-1.9-3.752-3.49-4.963-2.07-1.578-4.533-2.19-7.49-2.31zm15.62.976a.976.976 0 0 0 .975-.976v-3.094A6.7 6.7 0 0 0 18.57 16c-1.28-.005-2.55.36-3.769 1.08a12 12 0 0 1 1.451 3.218zM18 8a2 2 0 1 1-4 0 2 2 0 0 1 4 0" clip-rule="evenodd"/></svg>