<svg xmlns="http://www.w3.org/2000/svg" fill="none" viewBox="0 0 24 24"><path fill="currentColor" fill-rule="evenodd" d="M22.518 2.89a1 1 0 1 0-1.536-1.28l-4.3 5.159-1.725-1.726a1 1 0 1 0-1.414 1.414l2.5 2.5a1 1 0 0 0 1.475-.067zm-3.697-.64H4A2.75 2.75 0 0 0 1.25 5v15A2.75 2.75 0 0 0 4 22.75h15A2.75 2.75 0 0 0 21.75 20V5.765L18.479 9.69a2.25 2.25 0 0 1-3.32.151l-2.5-2.5a2.25 2.25 0 1 1 3.182-3.182l.758.758zM3.203 19.821c0 .54.437.976.976.976h10.005c-.657-2.002-1.9-3.752-3.49-4.963-2.07-1.578-4.533-2.19-7.49-2.31zm15.62.976a.976.976 0 0 0 .975-.976v-3.094a6.7 6.7 0 0 0-1.728-.227c-1.28-.006-2.55.36-3.769 1.08a12 12 0 0 1 1.451 3.218z" clip-rule="evenodd"/></svg>