<svg xmlns="http://www.w3.org/2000/svg" fill="none" viewBox="0 0 24 24"><path fill="currentColor" fill-rule="evenodd" d="M15.457 1.543a1 1 0 1 0-1.414 1.414l2.793 2.793-2.793 2.793a1 1 0 0 0 1.414 1.414l2.793-2.793 2.793 2.793a1 1 0 0 0 1.414-1.414L19.664 5.75l2.793-2.793a1 1 0 0 0-1.414-1.414L18.25 4.336zM12.5 2.25H4A2.75 2.75 0 0 0 1.25 5v15A2.75 2.75 0 0 0 4 22.75h15A2.75 2.75 0 0 0 21.75 20v-8.5c-.576 0-1.152-.22-1.591-.659L18.25 8.932l-1.909 1.909a2.25 2.25 0 1 1-3.182-3.182l1.909-1.909-1.909-1.909A2.24 2.24 0 0 1 12.5 2.25M3.203 19.821c0 .54.437.976.976.976h10.005c-.657-2.002-1.9-3.752-3.49-4.963-2.07-1.578-4.533-2.19-7.49-2.31zm15.62.976a.976.976 0 0 0 .975-.976v-3.094a6.7 6.7 0 0 0-1.728-.227c-1.28-.006-2.55.36-3.769 1.08a12 12 0 0 1 1.451 3.218z" clip-rule="evenodd"/></svg>