<svg xmlns="http://www.w3.org/2000/svg" fill="none" viewBox="0 0 24 24"><path fill="currentColor" fill-rule="evenodd" d="M6.5 7C4.425 7 3 8.646 3 11s1.425 4 3.5 4c.393 0 .876-.183 1.436-.59.551-.4 1.092-.956 1.578-1.546A17 17 0 0 0 10.839 11a18 18 0 0 0-1.325-1.864c-.486-.59-1.027-1.145-1.577-1.546C7.376 7.183 6.893 7 6.5 7m6.661 4a18 18 0 0 0 1.325 1.864c.486.59 1.026 1.145 1.578 1.546.56.407 1.043.59 1.436.59 2.075 0 3.5-1.646 3.5-4s-1.425-4-3.5-4c-.393 0-.876.183-1.436.59-.552.4-1.092.956-1.578 1.546A17 17 0 0 0 13.161 11M12 12.88c-.265.386-.583.82-.943 1.256-.543.66-1.206 1.355-1.945 1.892-.73.53-1.624.972-2.612.972C3.052 17 1 14.169 1 11s2.052-6 5.5-6c.988 0 1.883.442 2.612.972.74.537 1.402 1.232 1.945 1.892.36.436.678.87.943 1.256.265-.386.583-.82.943-1.256.543-.66 1.206-1.355 1.945-1.892.73-.53 1.624-.972 2.612-.972 3.448 0 5.5 2.831 5.5 6s-2.052 6-5.5 6c-.988 0-1.883-.442-2.612-.972-.74-.537-1.402-1.232-1.945-1.892-.36-.436-.678-.87-.943-1.256" clip-rule="evenodd"/></svg>