<svg xmlns="http://www.w3.org/2000/svg" fill="none" viewBox="0 0 24 24"><path fill="currentColor" fill-rule="evenodd" d="M9.362 2.447a1.75 1.75 0 0 1 1.66-1.197h1.959a1.75 1.75 0 0 1 1.66 1.197l.538 1.612.829.525 1.75-.433a1.75 1.75 0 0 1 1.925.804l1.065 1.792a1.75 1.75 0 0 1-.27 2.134l-1.231 1.226v.786l1.231 1.226a1.75 1.75 0 0 1 .27 2.134l-1.065 1.792a1.75 1.75 0 0 1-1.925.804l-1.773-.438-.729.409-.482 1.667a1.75 1.75 0 0 1-1.681 1.263H10.91a1.75 1.75 0 0 1-1.68-1.263l-.483-1.667-.73-.41-1.773.44a1.75 1.75 0 0 1-1.924-.805l-1.04-1.748a1.75 1.75 0 0 1 .348-2.208l1.174-1.033V9.944L3.629 8.911a1.75 1.75 0 0 1-.348-2.208L4.32 4.955a1.75 1.75 0 0 1 1.925-.804l1.75.433.83-.525zM15 10.5a3 3 0 1 1-6 0 3 3 0 0 1 6 0m-12 8a1 1 0 1 0-2 0V20a3 3 0 0 0 3 3h16a3 3 0 0 0 3-3v-1.5a1 1 0 1 0-2 0V20a1 1 0 0 1-1 1H4a1 1 0 0 1-1-1z" clip-rule="evenodd"/></svg>