<svg xmlns="http://www.w3.org/2000/svg" fill="none" viewBox="0 0 24 24"><path fill="currentColor" fill-rule="evenodd" d="M6 1.25A2.75 2.75 0 0 0 3.25 4v17.5a.75.75 0 0 0 1.085.67l3.625-1.81 3.643 2.277a.75.75 0 0 0 .796 0l3.643-2.277 3.624 1.812a.75.75 0 0 0 1.085-.671V4A2.75 2.75 0 0 0 18 1.25zm2 8a.75.75 0 0 0 0 1.5h2a.75.75 0 0 0 0-1.5zM7.25 6A.75.75 0 0 1 8 5.25h8a.75.75 0 0 1 0 1.5H8A.75.75 0 0 1 7.25 6m8 4a.75.75 0 1 0-1.5 0v.105a2.4 2.4 0 0 0-.67.297c-.457.295-.83.792-.83 1.473 0 .345.073.667.237.949.165.283.394.481.636.616.455.253.986.297 1.352.31.334.01.553.054.673.121.046.025.06.045.067.058.009.014.035.066.035.196 0 .069-.02.134-.144.214a1.23 1.23 0 0 1-.638.161c-.392 0-.695-.188-.84-.41a.75.75 0 0 0-1.256.82c.315.482.808.83 1.378.991V16a.75.75 0 0 0 1.5 0v-.105c.235-.065.464-.162.67-.296.457-.296.83-.793.83-1.474 0-.344-.073-.667-.237-.949a1.65 1.65 0 0 0-.636-.616c-.455-.253-.986-.297-1.352-.31-.334-.01-.553-.054-.673-.121-.046-.025-.06-.045-.067-.058s-.035-.066-.035-.196c0-.069.02-.134.144-.214.143-.093.377-.161.639-.161.39 0 .694.188.84.41a.75.75 0 0 0 1.255-.82 2.42 2.42 0 0 0-1.378-.991z" clip-rule="evenodd"/></svg>