<svg xmlns="http://www.w3.org/2000/svg" fill="none" viewBox="0 0 24 24"><path fill="currentColor" fill-rule="evenodd" d="M7.332 2.654a2 2 0 0 1 1.923-1.45h4.491a2 2 0 0 1 1.923 1.45l.6 2.096H19a2.75 2.75 0 0 1 2.75 2.75v5.727a6.027 6.027 0 0 0-8.522 8.523H4A2.75 2.75 0 0 1 1.25 19V7.5A2.75 2.75 0 0 1 4 4.75h2.733zm1.48 2.096h5.376l-.442-1.547H9.255zM13 17.526a4.527 4.527 0 1 1 8.354 2.418l1.352 1.348a1 1 0 0 1-1.412 1.416l-1.355-1.35A4.527 4.527 0 0 1 13 17.527M17.526 15a2.527 2.527 0 1 0 0 5.053 2.527 2.527 0 0 0 0-5.053" clip-rule="evenodd"/></svg>