<svg xmlns="http://www.w3.org/2000/svg" fill="none" viewBox="0 0 24 24"><path fill="currentColor" fill-rule="evenodd" d="M5.191 22.75a2.924 2.924 0 0 1-2.917-2.927L2.25 4.186A2.924 2.924 0 0 1 5.167 1.25h6.803a.97.97 0 0 1 .686.286l6.809 6.827a.98.98 0 0 1 .285.692V12H11a2 2 0 0 0-2 2v1.268A2 2 0 0 0 6 17v.5A3.5 3.5 0 0 0 9.5 21h10.003a2.92 2.92 0 0 1-2.67 1.75zM17.804 9.46l-6.237-6.254V7.96a1.5 1.5 0 0 0 1.5 1.5zm.84 4.154a.75.75 0 0 0-1.287.772l1.268 2.114-1.268 2.114a.75.75 0 1 0 1.286.772l.857-1.428.857 1.428a.75.75 0 1 0 1.286-.772L20.375 16.5l1.268-2.114a.75.75 0 1 0-1.286-.772l-.857 1.428zM11.75 14a.75.75 0 0 0-1.5 0v3.5a.75.75 0 0 1-1.5 0V17a.75.75 0 0 0-1.5 0v.5a2.25 2.25 0 1 0 4.5 0zm1.742-.75a.75.75 0 0 0-.75.75v2.5c0 .414.335.75.75.75h1.42v1h-1.42a.75.75 0 0 0 0 1.5h2.17a.75.75 0 0 0 .75-.75v-2.5a.75.75 0 0 0-.75-.75h-1.42v-1h1.42a.75.75 0 0 0 0-1.5z" clip-rule="evenodd"/></svg>