<svg xmlns="http://www.w3.org/2000/svg" fill="none" viewBox="0 0 24 24"><path fill="currentColor" fill-rule="evenodd" d="M10.22 1.405c1.006-.183 2.175-.223 3.49-.018 1.99.31 3.274 1.107 4.063 2.035.55.645.838 1.33.967 1.905.723.166 1.693.658 2.339 2.007.56 1.171.172 2.261-.346 2.993.613.762.704 1.673.46 2.46a2.95 2.95 0 0 1-1.12 1.534l1.924 1.44a2.5 2.5 0 0 1 1.003 2v3.766a1 1 0 1 1-2 0v-3.766a.5.5 0 0 0-.2-.4l-4.332-3.24a5.1 5.1 0 0 1-1.62 1.734l1.24 5.367a1.25 1.25 0 0 1-1.218 1.531H9.122c-.8 0-1.394-.74-1.22-1.52l1.199-5.4c-.56-.407-1.089-.972-1.536-1.736L3.2 17.362a.5.5 0 0 0-.201.4v3.766a1 1 0 1 1-2 0v-3.766a2.5 2.5 0 0 1 1.003-2.002l1.946-1.455a2.96 2.96 0 0 1-1.096-1.519 2.62 2.62 0 0 1 .46-2.46c-.519-.73-.907-1.821-.347-2.992.646-1.35 1.616-1.84 2.34-2.007A4.5 4.5 0 0 1 6.35 3.331q.092-.105.206-.216c.785-.777 1.96-1.424 3.665-1.71M8.246 11.55c.073.547.234 1.088.506 1.596.935 1.752 2.32 2.142 3.252 2.11.587-.021 1.191-.2 1.742-.49.8-.42 1.784-1.358 1.992-3.24q.006-.104.019-.2.04-.494.003-1.072c-.064-.528-.206-1.285-.497-1.936-.296-.66-.671-1.058-1.128-1.174l-.014.001a.48.48 0 0 0-.326.18c-.251.313-.58.56-.87.718-.146.08-.307.15-.468.193a1.3 1.3 0 0 1-.29.044 1 1 0 0 1-.161-.008c-.551.01-1.185-.325-1.792-.953-.11-.114-.192-.14-.242-.147a.5.5 0 0 0-.234.027.9.9 0 0 0-.37.246c-.681.712-1.307 2.29-1.14 3.938a3 3 0 0 1 .018.167" clip-rule="evenodd"/></svg>