<svg xmlns="http://www.w3.org/2000/svg" fill="none" viewBox="0 0 24 24"><path fill="currentColor" fill-rule="evenodd" d="M12 1.25c-1.723 0-3.136.701-4.205 1.876a7.4 7.4 0 0 0-.836 1.124H6a.75.75 0 0 0 0 1.5h12a.75.75 0 0 0 0-1.5h-.96a7.4 7.4 0 0 0-.835-1.124C15.135 1.951 13.721 1.25 12 1.25m-6.253 6q-.052.21-.1.423c-.487 2.22-1.562 4.32-2.746 6.384-.359.626-.651 1.349-.651 2.075 0 .708.27 1.361.589 1.94.237.431.537.88.826 1.313l.279.42.015.024c.531.81.95 1.448 1.28 1.894.167.225.33.425.49.583.146.145.362.326.643.403.271.074.537.035.736-.013.21-.051.44-.136.68-.237.475-.2 1.1-.514 1.889-.908l.027-.014c.768-.384 1.534-.618 2.296-.618s1.528.234 2.296.618l.027.014c.789.394 1.414.708 1.888.908.24.101.47.186.681.237.2.048.465.087.736.013.281-.076.497-.258.643-.403.16-.158.323-.358.49-.583.33-.446.749-1.084 1.28-1.894l.015-.024.279-.42c.29-.433.59-.882.826-1.312.32-.58.589-1.233.589-1.941 0-.726-.292-1.45-.65-2.075-1.185-2.064-2.26-4.163-2.748-6.384a14 14 0 0 0-.099-.423zM16.41 20.905c-.375-.175-.846-.41-1.443-.71-.898-.449-1.898-.776-2.967-.776s-2.07.327-2.967.777c-.597.298-1.068.534-1.443.709.13-.577.241-1.218.312-1.86.13-1.191.141-2.543-.234-3.494-.275-.697.028-1.494.691-2.29a5.7 5.7 0 0 0 1.133-2.142c.241-.888.59-1.473.99-1.833.387-.348.877-.536 1.518-.536s1.131.188 1.518.536c.4.36.749.945.99 1.833a5.7 5.7 0 0 0 1.133 2.143c.664.795.967 1.592.691 2.289-.375.951-.364 2.303-.233 3.494.07.642.18 1.283.311 1.86" clip-rule="evenodd"/></svg>