<svg xmlns="http://www.w3.org/2000/svg" fill="none" viewBox="0 0 24 24"><path fill="currentColor" fill-rule="evenodd" d="M3 9a7 7 0 0 1 14 0v2.75a8.7 8.7 0 0 1 1.677 4.118 1.8 1.8 0 0 0 .434-.244c.298-.23.389-.465.389-.624v-2.5A2.5 2.5 0 0 1 22 10a1 1 0 1 1 0 2 .5.5 0 0 0-.5.5V15c0 .945-.527 1.712-1.164 2.205-.45.349-1 .6-1.586.72V19A2.75 2.75 0 0 1 16 21.75H4A2.75 2.75 0 0 1 1.25 19v-1.25H12a.75.75 0 0 0 0-1.5H1.282A8.7 8.7 0 0 1 3 11.75zm2 .818a8.7 8.7 0 0 1 2.25-1.127V8a2.75 2.75 0 0 1 5.5 0v.69A8.7 8.7 0 0 1 15 9.819V9A5 5 0 0 0 5 9z" clip-rule="evenodd"/></svg>