<svg xmlns="http://www.w3.org/2000/svg" fill="none" viewBox="0 0 24 24"><path fill="currentColor" fill-rule="evenodd" d="M7.04 4.034c.196-.213.747-.5 1.732-.72C9.7 3.109 10.84 3 12 3s2.3.108 3.228.315c.985.219 1.536.506 1.733.719.183.198.334.436.44.703.13.328.153.67-.059 1.408-.154.538-.397 1.175-.732 2.054l-.112.294A8.7 8.7 0 0 0 12 7.25a8.7 8.7 0 0 0-4.498 1.243l-.113-.296c-.334-.878-.577-1.515-.73-2.052-.213-.739-.19-1.08-.06-1.408.106-.267.257-.505.44-.703M5.848 9.777l-.289-.761c-.356-.937-.646-1.699-.824-2.32-.273-.952-.355-1.792.005-2.698.194-.49.475-.94.83-1.323.64-.69 1.72-1.08 2.767-1.313C9.44 1.117 10.73 1 12 1s2.56.117 3.662.362c1.046.233 2.128.623 2.767 1.313.355.384.636.833.83 1.323.36.906.279 1.746.006 2.698-.179.622-.469 1.384-.826 2.322l-.288.76A8.72 8.72 0 0 1 20.75 16c0 1.343-.418 2.712-1.023 3.868-.6 1.15-1.426 2.166-2.311 2.756a.75.75 0 0 1-.416.126H7a.75.75 0 0 1-.416-.126c-.885-.59-1.71-1.605-2.311-2.756C3.668 18.712 3.25 17.343 3.25 16a8.72 8.72 0 0 1 2.599-6.223M8.126 15H7.5a1 1 0 1 0 0 2h.626a4.002 4.002 0 0 0 7.748 0h.626a1 1 0 1 0 0-2h-.626a4.002 4.002 0 0 0-7.748 0M10 16a2 2 0 1 1 4 0 2 2 0 0 1-4 0" clip-rule="evenodd"/></svg>