<svg xmlns="http://www.w3.org/2000/svg" fill="none" viewBox="0 0 24 24"><path fill="currentColor" fill-rule="evenodd" d="M14 2a1 1 0 1 0-2 0v.07C9.642 2.408 7.649 3.917 6.558 6H3a2 2 0 0 0-2 2v4.586A2 2 0 0 0 1.586 14l3.643 3.644-.115 2.198A3 3 0 0 0 8.109 23h9.786a3 3 0 0 0 2.995-3.158l-.386-7.334q.256-.142.519-.346C22.118 11.303 23 9.728 23 7a1 1 0 0 0-1-1h-2.558C18.353 3.916 16.36 2.407 14 2.07zm-1 2c-1.607 0-3.076.764-4.066 2h8.132c-.99-1.236-2.458-2-4.066-2M3 8h2.839a8 8 0 0 0-.168 1.27l-.3 5.687L3 12.586zm17.948 0c-.099.888-.325 1.498-.58 1.919l-.034-.648A8 8 0 0 0 20.166 8zM15 12a1 1 0 1 0-2 0c0 .637-.105.975-.207 1.178-.106.212-.245.36-.5.615l-.022.022c-.244.244-.592.591-.853 1.113C11.145 15.475 11 16.137 11 17a1 1 0 1 0 2 0c0-.637.105-.975.207-1.178.106-.212.245-.36.5-.615l.022-.022c.244-.244.592-.591.853-1.113.273-.547.418-1.209.418-2.072" clip-rule="evenodd"/></svg>