<svg xmlns="http://www.w3.org/2000/svg" fill="none" viewBox="0 0 24 24"><path fill="currentColor" fill-rule="evenodd" d="M22.707 2.707a1 1 0 0 0-1.414-1.414L18.5 4.086l-2.793-2.793a1 1 0 1 0-1.414 1.414L17.086 5.5l-2.793 2.793a1 1 0 0 0 1.414 1.414L18.5 6.914l2.793 2.793a1 1 0 0 0 1.414-1.414L19.914 5.5zm-.136 16.657-1.82-4.994v-1.973a1 1 0 1 0-2 0v1.523H5.25V5.176a.93.93 0 0 1 .937-.926h4.598a1 1 0 1 0 0-2H6.188q-.058 0-.115.002H6a2.75 2.75 0 0 0-2.75 2.75v9.368l-1.82 4.994c-.349.842-.165 1.71.334 2.347.497.636 1.302 1.041 2.215 1.041h16.042c.914 0 1.718-.405 2.216-1.04.498-.637.682-1.506.334-2.348" clip-rule="evenodd"/></svg>