<svg xmlns="http://www.w3.org/2000/svg" fill="none" viewBox="0 0 24 24"><path fill="currentColor" fill-rule="evenodd" d="M3.25 4.5A2.75 2.75 0 0 1 6 1.75h12a2.75 2.75 0 0 1 2.75 2.75v9.368l1.821 4.994c.348.842.164 1.71-.334 2.347-.497.636-1.302 1.041-2.216 1.041H3.98c-.913 0-1.718-.405-2.215-1.04-.499-.637-.683-1.506-.335-2.348l1.821-4.994zm16 8.75V4.5c0-.69-.56-1.25-1.25-1.25H6c-.69 0-1.25.56-1.25 1.25v8.75zM11 11a1 1 0 0 1 1-1h.009a1 1 0 1 1 0 2H12a1 1 0 0 1-1-1m2-5a1 1 0 1 0-2 0v2.5a1 1 0 1 0 2 0z" clip-rule="evenodd"/></svg>