<svg xmlns="http://www.w3.org/2000/svg" fill="none" viewBox="0 0 24 24"><path fill="currentColor" fill-rule="evenodd" d="M7.494 9.262a4 4 0 0 1-.426.23 8 8 0 0 0-.318 2.235c0 1.974 1.356 3.522 2.738 4.703a.75.75 0 0 1 .252.693.8.8 0 0 1 .003.222l-.006.041-.015.083a4.8 4.8 0 0 1-.387 1.13c-.324.658-.921 1.467-1.98 1.894-1.065.429-2.04.25-2.716-.015a4.4 4.4 0 0 1-1.03-.574l-.066-.051-.032-.027a.75.75 0 0 1-.254-.672v-.005l.002-.01.004-.025.015-.083q.02-.104.064-.273c.06-.223.16-.527.323-.857.324-.658.921-1.467 1.98-1.894a3.5 3.5 0 0 1 1.1-.25 9 9 0 0 1-.514-.74l-.01.004a3 3 0 0 1-.333.105 4 4 0 0 1-.862.122 3.45 3.45 0 0 1-2.485-.918c-.826-.76-1.132-1.719-1.238-2.443a5 5 0 0 1-.031-1.193q.005-.051.01-.082l.005-.04a.75.75 0 0 1 .451-.577l.117-.044q.096-.034.257-.077c.213-.054.511-.112.862-.122.669-.02 1.546.13 2.348.799q.076-.615.228-1.199a4.5 4.5 0 0 1-.512-.955c-.252-.647-.44-1.577-.116-2.62a3.64 3.64 0 0 1 1.584-2.039 4 4 0 0 1 1.003-.444l.076-.02.04-.009a.75.75 0 0 1 .73.257l.025.031.048.064a4.5 4.5 0 0 1 .534.986c.252.647.44 1.577.116 2.62a3.64 3.64 0 0 1-1.584 2.039m8.151-5.74a.75.75 0 0 1 .73-.257h.001l.002.001h.003l.01.003.024.006q.03.005.077.02.095.023.246.077c.199.071.467.187.756.366.58.36 1.258.992 1.584 2.04.324 1.042.137 1.972-.116 2.62a4.5 4.5 0 0 1-.511.954q.151.582.227 1.198a3.45 3.45 0 0 1 2.348-.798 4 4 0 0 1 1.119.2l.077.027.04.016c.24.1.41.319.451.576l.006.04.01.083q.01.104.018.279c.008.23.003.55-.05.914-.106.724-.412 1.682-1.238 2.443-.838.77-1.778.94-2.485.918a4 4 0 0 1-1.119-.2l-.085-.031q-.241.388-.515.74a3.5 3.5 0 0 1 1.1.25c1.059.427 1.656 1.236 1.98 1.893a4.8 4.8 0 0 1 .387 1.13l.015.084.006.041a.75.75 0 0 1-.254.67l-.032.028-.066.051a4.4 4.4 0 0 1-1.03.573c-.676.265-1.651.445-2.715.016-1.06-.427-1.657-1.236-1.98-1.893a4.8 4.8 0 0 1-.388-1.13l-.015-.084-.004-.026-.001-.009v-.005a.8.8 0 0 1 .002-.224.75.75 0 0 1 .253-.692c1.382-1.181 2.737-2.73 2.737-4.703 0-.787-.112-1.54-.317-2.235a4 4 0 0 1-.427-.23 3.64 3.64 0 0 1-1.584-2.04c-.324-1.042-.136-1.972.116-2.62a4.5 4.5 0 0 1 .534-.985l.048-.064.016-.02.005-.006.003-.003zM12.75 9a.75.75 0 0 0-1.085-.67l-1 .5a.75.75 0 0 0 .585 1.377v3.043H11a.75.75 0 0 0 0 1.5h2a.75.75 0 0 0 0-1.5h-.25z" clip-rule="evenodd"/></svg>