<svg xmlns="http://www.w3.org/2000/svg" fill="none" viewBox="0 0 24 24"><path fill="currentColor" fill-rule="evenodd" d="M15.926 1.25a.75.75 0 0 1 .743.62l.02.128q.016.114.033.308c.022.257.04.614.019 1.022-.04.791-.228 1.88-.911 2.747-.684.868-1.655 1.275-2.388 1.47a6 6 0 0 1-.82.162 6 6 0 0 1-.696 1.627 8 8 0 0 1-.594.85l-.035.041c.4.847.47 1.768.45 2.465a8 8 0 0 1-.156 1.33c.721.538 1.218 1.272 1.54 1.868a8 8 0 0 1 .575 1.362H15a2.75 2.75 0 1 1 0 5.5h-2a.75.75 0 0 1 0-1.5h2a1.25 1.25 0 1 0 0-2.5h-4q-.026 0-.051-.002c-.624.016-1.323-.081-1.99-.424-1.026-.527-1.692-1.474-2.09-2.212a8 8 0 0 1-.58-1.376l-.008-.027-.002-.008-.001-.003v-.001a.75.75 0 0 1 .392-.876l.001-.001.003-.001.008-.004.025-.012.084-.038a7 7 0 0 1 .815-.287 3.7 3.7 0 0 1-.653-.753c-.622-.956-.724-2.092-.7-2.915a8 8 0 0 1 .164-1.368l.03-.13a.75.75 0 0 1 .776-.56l.132.012a6 6 0 0 1 .553.09A3.6 3.6 0 0 1 7.755 7c-.06-1.121.401-2.142.819-2.835a8 8 0 0 1 .797-1.09l.088-.096a.75.75 0 0 1 .95-.109l.11.076a6.7 6.7 0 0 1 1.086.99 3.8 3.8 0 0 1 .565-1.012c.684-.868 1.655-1.275 2.388-1.47a6.3 6.3 0 0 1 1.242-.2z" clip-rule="evenodd"/></svg>