<svg xmlns="http://www.w3.org/2000/svg" fill="none" viewBox="0 0 24 24"><path fill="currentColor" fill-rule="evenodd" d="M17.643 2.614a.75.75 0 1 0-1.286.772l.818 1.364H16a.75.75 0 0 0 0 1.5h1.175l-.818 1.364a.75.75 0 1 0 1.286.772l.857-1.428.857 1.428a.75.75 0 1 0 1.286-.772l-.818-1.364H21a.75.75 0 0 0 0-1.5h-1.175l.818-1.364a.75.75 0 1 0-1.286-.772L18.5 4.042zM2 5.5a1 1 0 0 1 1-1h9.5a1 1 0 1 1 0 2H3a1 1 0 0 1-1-1M2 12a1 1 0 0 1 1-1h9.5a1 1 0 1 1 0 2H3a1 1 0 0 1-1-1m1 5.5a1 1 0 1 0 0 2h9.5a1 1 0 1 0 0-2zm13.614-2.143a.75.75 0 0 1 1.03.257l.856 1.428.857-1.428a.75.75 0 0 1 1.286.772l-.818 1.364H21a.75.75 0 0 1 0 1.5h-1.175l.818 1.364a.75.75 0 1 1-1.286.772l-.857-1.428-.857 1.428a.75.75 0 1 1-1.286-.772l.818-1.364H16a.75.75 0 0 1 0-1.5h1.175l-.818-1.364a.75.75 0 0 1 .257-1.029" clip-rule="evenodd"/></svg>