<svg xmlns="http://www.w3.org/2000/svg" fill="none" viewBox="0 0 24 24"><path fill="currentColor" fill-rule="evenodd" d="M20.015 3.696c-.178-1.222-1.29-2.116-2.535-1.919l-4.847.768a2.22 2.22 0 0 0-1.688 1.323A2.25 2.25 0 0 0 9 2.75H4A2.25 2.25 0 0 0 1.75 5v15A2.25 2.25 0 0 0 4 22.25h5A2.25 2.25 0 0 0 11.25 20V8.404l1.735 11.901c.178 1.222 1.29 2.116 2.534 1.919l4.848-.769c1.236-.195 2.035-1.38 1.858-2.595zM17.5 17a1 1 0 1 0 0 2h.009a1 1 0 1 0 0-2zm1.448-10.25a.75.75 0 0 1-.608.869l-4.795.846a.75.75 0 0 1-.261-1.477l4.795-.847a.75.75 0 0 1 .869.609M6.5 17a1 1 0 1 0 0 2h.009a1 1 0 1 0 0-2zM3.242 7.5a.75.75 0 0 1 .75-.75h5.015a.75.75 0 0 1 0 1.5H3.992a.75.75 0 0 1-.75-.75" clip-rule="evenodd"/></svg>