<svg xmlns="http://www.w3.org/2000/svg" fill="none" viewBox="0 0 24 24"><path fill="currentColor" fill-rule="evenodd" d="M4.5 1.25A2.75 2.75 0 0 0 1.75 4v16a2.75 2.75 0 0 0 2.75 2.75h9.497v-.615a2.15 2.15 0 0 1-1.682-1.03 2.166 2.166 0 0 1 .438-2.765 5.3 5.3 0 0 1 0-1.18 2.166 2.166 0 0 1-.438-2.766 2.146 2.146 0 0 1 2.607-.891q.359-.25.76-.435A2.15 2.15 0 0 1 17.75 11.5a2.15 2.15 0 0 1 2.068 1.568q.222.102.432.225V4a2.75 2.75 0 0 0-2.75-2.75zM6 6a1 1 0 0 1 1-1h8a1 1 0 1 1 0 2H7a1 1 0 0 1-1-1m0 5a1 1 0 0 1 1-1h4.5a1 1 0 1 1 0 2H7a1 1 0 0 1-1-1m12.65 2.66a.905.905 0 0 0-.9-.91c-.497 0-.9.407-.9.91v.316a3.74 3.74 0 0 0-1.787 1.042l-.442-.274a.895.895 0 0 0-1.238.3.915.915 0 0 0 .297 1.25l.465.288a4 4 0 0 0 0 2.336l-.466.289a.914.914 0 0 0-.296 1.25.895.895 0 0 0 1.238.3l.442-.275a3.74 3.74 0 0 0 1.787 1.042v.317c0 .502.403.909.9.909s.9-.407.9-.91v-.316a3.74 3.74 0 0 0 1.787-1.042l.442.274a.895.895 0 0 0 1.238-.3.914.914 0 0 0-.296-1.25l-.466-.288a4 4 0 0 0 0-2.336l.465-.289a.915.915 0 0 0 .297-1.25.895.895 0 0 0-1.238-.3l-.442.275a3.74 3.74 0 0 0-1.787-1.042zm-2.88 4.09c0-1.16.906-2.066 1.98-2.066 1.075 0 1.98.906 1.98 2.066s-.905 2.066-1.98 2.066-1.98-.905-1.98-2.066" clip-rule="evenodd"/></svg>