<svg xmlns="http://www.w3.org/2000/svg" fill="none" viewBox="0 0 24 24"><path fill="currentColor" fill-rule="evenodd" d="M3 13a9 9 0 0 1 13.528-7.78l-3.636 4.444a2.5 2.5 0 1 0 1.43 1.41l3.813-4.66A8.98 8.98 0 0 1 21 13a8.97 8.97 0 0 1-2.935 6.65l-1.358-1.358a1 1 0 0 0-1.414 1.414l2 2.001a1 1 0 0 0 1.309.092A10.99 10.99 0 0 0 23 13c0-6.075-4.925-11-11-11S1 6.925 1 13a10.99 10.99 0 0 0 4.398 8.8 1 1 0 0 0 1.308-.093l2.001-2a1 1 0 1 0-1.414-1.415L5.935 19.65A8.97 8.97 0 0 1 3 13m9-1.5a.5.5 0 1 0 0 1 .5.5 0 0 0 0-1" clip-rule="evenodd"/></svg>