<svg xmlns="http://www.w3.org/2000/svg" fill="none" viewBox="0 0 24 24"><path fill="currentColor" fill-rule="evenodd" d="M20.163 3.837a6.27 6.27 0 0 0-8.87 0l-2.61 2.61a1 1 0 1 0 1.415 1.414l2.61-2.61a4.272 4.272 0 1 1 6.04 6.042l-2.609 2.61a1 1 0 0 0 1.414 1.414l2.61-2.61a6.27 6.27 0 0 0 0-8.87m-12.302 6.26a1 1 0 0 0-1.414-1.414l-2.61 2.61a6.272 6.272 0 0 0 8.87 8.87l2.61-2.61a1 1 0 0 0-1.415-1.414l-2.61 2.61a4.272 4.272 0 1 1-6.04-6.042zm7.346.11a1 1 0 0 0-1.414-1.414l-5 5a1 1 0 1 0 1.414 1.414z" clip-rule="evenodd"/></svg>