<svg xmlns="http://www.w3.org/2000/svg" fill="none" viewBox="0 0 24 24"><path fill="currentColor" fill-rule="evenodd" d="M18.622 2.207a3 3 0 0 0-4.243 0l-3.586 3.586a2.414 2.414 0 0 0 0 3.414 1 1 0 0 0 1.414-1.414.414.414 0 0 1 0-.586l3.586-3.586a1 1 0 0 1 1.414 0l3.172 3.172a1 1 0 0 1 0 1.414l-3.586 3.586a.414.414 0 0 1-.586 0 1 1 0 0 0-1.414 1.414 2.414 2.414 0 0 0 3.414 0l3.586-3.586a3 3 0 0 0 0-4.243zm-2.915 6.086a1 1 0 0 1 0 1.414l-5 5a1 1 0 0 1-1.414-1.414l5-5a1 1 0 0 1 1.414 0m-9.914 2.5a2.414 2.414 0 0 1 3.414 0 1 1 0 0 1-1.414 1.414.414.414 0 0 0-.586 0L3.62 15.793a1 1 0 0 0 0 1.414l3.172 3.172a1 1 0 0 0 1.414 0l3.586-3.586a.414.414 0 0 0 0-.586 1 1 0 0 1 1.414-1.414 2.414 2.414 0 0 1 0 3.414L9.62 21.793a3 3 0 0 1-4.243 0l-3.171-3.171a3 3 0 0 1 0-4.243z" clip-rule="evenodd"/></svg>