<svg xmlns="http://www.w3.org/2000/svg" fill="none" viewBox="0 0 24 24"><path fill="currentColor" fill-rule="evenodd" d="M2.707 1.293a1 1 0 0 0-1.414 1.414L4.004 5.42A9.7 9.7 0 0 0 2.25 11c0 3.836 2.46 6.777 4.77 8.701a22.8 22.8 0 0 0 4.258 2.784c.125.063.335.162.411.198l.006.002a.75.75 0 0 0 .61 0l.003-.001.112-.052q.108-.05.302-.147a22.8 22.8 0 0 0 4.258-2.784q.349-.29.697-.61l3.616 3.616a1 1 0 0 0 1.414-1.414zM21.75 11c0 2.09-.73 3.915-1.77 5.454L6.486 2.958A9.7 9.7 0 0 1 12 1.25 9.75 9.75 0 0 1 21.75 11" clip-rule="evenodd"/></svg>