<svg xmlns="http://www.w3.org/2000/svg" fill="none" viewBox="0 0 24 24"><path fill="currentColor" fill-rule="evenodd" d="M4.25 9.2c0-4.37 3.45-7.95 7.75-7.95s7.75 3.58 7.75 7.95c0 2.672-1.426 4.805-2.959 6.33-1.537 1.527-3.259 2.522-4.037 2.931a1.61 1.61 0 0 1-1.508 0c-.778-.409-2.5-1.404-4.037-2.932C5.676 14.005 4.25 11.871 4.25 9.2M9 9a3 3 0 1 1 6 0 3 3 0 0 1-6 0m-2.697 9.953a1 1 0 1 0-.606-1.906c-.744.237-1.377.6-1.842 1.03-.43.397-.855.984-.855 1.677 0 .826.586 1.383 1.076 1.707.527.35 1.225.627 1.997.844C7.63 22.743 9.726 23 12 23s4.369-.257 5.927-.695c.772-.217 1.47-.493 1.997-.844.49-.324 1.076-.881 1.076-1.707 0-.693-.425-1.28-.855-1.677-.465-.43-1.098-.793-1.842-1.03a1 1 0 0 0-.606 1.906c.501.16.868.388 1.092.594q.103.098.15.16-.045.037-.12.088c-.283.187-.757.395-1.432.585-1.338.375-3.242.62-5.387.62s-4.05-.245-5.387-.62c-.675-.19-1.15-.398-1.431-.585a2 2 0 0 1-.12-.088q.046-.062.15-.16c.223-.206.59-.434 1.091-.594" clip-rule="evenodd"/></svg>