<svg xmlns="http://www.w3.org/2000/svg" fill="none" viewBox="0 0 24 24"><path fill="currentColor" fill-rule="evenodd" d="M12 1.25c-5.072 0-9.25 3.918-9.25 8.83 0 2.708 1.327 4.707 2.924 6.41.684.73 1.438 1.427 2.17 2.103l.001.001.346.32c.849.786 1.655 1.555 2.344 2.375.75.89 2.176.92 2.95.034.708-.81 1.523-1.58 2.374-2.376l.156-.145c.794-.742 1.614-1.508 2.353-2.316 1.58-1.729 2.882-3.749 2.882-6.405 0-4.913-4.178-8.831-9.25-8.831m1.309 7.264-.93-1.787a.43.43 0 0 0-.758 0l-.93 1.787a.42.42 0 0 1-.311.222l-2.021.315a.414.414 0 0 0-.234.705l1.446 1.42a.41.41 0 0 1 .12.36l-.32 1.982c-.054.336.304.59.613.436l1.823-.91a.43.43 0 0 1 .386 0l1.823.91c.31.154.667-.1.613-.436l-.32-1.983a.41.41 0 0 1 .12-.358l1.447-1.42a.414.414 0 0 0-.235-.706l-2.02-.315a.42.42 0 0 1-.312-.222" clip-rule="evenodd"/></svg>