<svg xmlns="http://www.w3.org/2000/svg" fill="none" viewBox="0 0 24 24"><path fill="currentColor" fill-rule="evenodd" d="M3.748 8.4a9.005 9.005 0 0 1 16.866.983l-1.343 1.433a1 1 0 0 0 .486 1.654l2 .5A1 1 0 0 0 23 12c0-.885-.105-1.746-.303-2.572C21.54 4.594 17.19 1 12 1A11 11 0 0 0 1.916 7.6a1 1 0 0 0 1.832.8m-1.505 2.63A1 1 0 0 0 1 12c0 .964.124 1.902.359 2.795C2.595 19.516 6.889 23 12 23c4.512 0 8.388-2.717 10.084-6.6a1 1 0 0 0-1.832-.8 9.005 9.005 0 0 1-16.818-.832l1.34-1.634a1 1 0 0 0-.531-1.604zm4.507.47a5.25 5.25 0 1 1 10.5 0c0 1.707-.897 3.066-1.857 4.033-.964.97-2.063 1.623-2.644 1.932a1.59 1.59 0 0 1-1.498 0c-.581-.31-1.68-.962-2.644-1.932-.96-.967-1.857-2.326-1.857-4.033m3.75 0A1.5 1.5 0 0 1 12 10h.009a1.5 1.5 0 0 1 0 3H12a1.5 1.5 0 0 1-1.5-1.5" clip-rule="evenodd"/></svg>