<svg xmlns="http://www.w3.org/2000/svg" fill="none" viewBox="0 0 24 24"><path fill="currentColor" fill-rule="evenodd" d="M4.25 9.2c0-4.37 3.45-7.95 7.75-7.95s7.75 3.58 7.75 7.95c0 2.672-1.426 4.805-2.959 6.33-1.537 1.527-3.259 2.522-4.037 2.931a1.61 1.61 0 0 1-1.508 0c-.778-.409-2.5-1.404-4.037-2.932C5.676 14.005 4.25 11.871 4.25 9.2M9 9a3 3 0 1 1 6 0 3 3 0 0 1-6 0M7 19a1 1 0 1 0-2 0c0 1.411 1.118 2.42 2.31 3.016 1.252.626 2.912.984 4.69.984s3.438-.358 4.69-.984C17.882 21.42 19 20.41 19 19a1 1 0 1 0-2 0c0 .246-.225.737-1.205 1.227-.92.46-2.26.773-3.795.773s-2.876-.313-3.795-.773C7.225 19.737 7 19.246 7 19" clip-rule="evenodd"/></svg>