<svg xmlns="http://www.w3.org/2000/svg" fill="none" viewBox="0 0 24 24"><path fill="currentColor" fill-rule="evenodd" d="M4.5 1.5a3 3 0 0 0-3 3V8a1 1 0 0 0 2 0V4.5a1 1 0 0 1 1-1H8a1 1 0 0 0 0-2zm11.5 0a1 1 0 1 0 0 2h3.5a1 1 0 0 1 1 1V8a1 1 0 1 0 2 0V4.5a3 3 0 0 0-3-3zM3.5 16a1 1 0 1 0-2 0v3.5a3 3 0 0 0 3 3H8a1 1 0 1 0 0-2H4.5a1 1 0 0 1-1-1zm19 0a1 1 0 1 0-2 0v3.5a1 1 0 0 1-1 1H16a1 1 0 1 0 0 2h3.5a3 3 0 0 0 3-3zM10.714 9.222C10.714 8.574 11.264 8 12 8c.737 0 1.286.574 1.286 1.222V10h-2.572zm4.572 0V10H16a1 1 0 0 1 1 1v6a1 1 0 0 1-1 1H8a1 1 0 0 1-1-1v-6a1 1 0 0 1 1-1h.714v-.778C8.714 7.416 10.212 6 12 6s3.286 1.416 3.286 3.222" clip-rule="evenodd"/></svg>