<svg xmlns="http://www.w3.org/2000/svg" fill="none" viewBox="0 0 24 24"><path fill="currentColor" fill-rule="evenodd" d="M3 12c0-4.968 4.038-9 9.025-9a9.03 9.03 0 0 1 8.143 5.115L18.851 9.24a1 1 0 0 0 .277 1.69l2.5 1a1 1 0 0 0 1.367-1.028c-.1-1-.334-1.962-.684-2.866A11.03 11.03 0 0 0 12.025 1C5.938 1 1 5.923 1 12c0 6.078 4.938 11 11.025 11 4.52 0 8.405-2.715 10.106-6.599A1 1 0 1 0 20.3 15.6a9.03 9.03 0 0 1-8.275 5.4C7.038 21 3 16.968 3 12m9-5.25c-1.465 0-2.679 1.168-2.679 2.64v1.587A3.64 3.64 0 0 0 8.25 13.56c0 2.052 1.693 3.69 3.75 3.69s3.75-1.638 3.75-3.69c0-1.01-.41-1.92-1.071-2.583V9.39c0-1.472-1.214-2.64-2.679-2.64m0 3.12c-.41 0-.807.065-1.179.186V9.39c0-.615.514-1.14 1.179-1.14s1.179.525 1.179 1.14v.666A3.8 3.8 0 0 0 12 9.87" clip-rule="evenodd"/></svg>