<svg xmlns="http://www.w3.org/2000/svg" fill="none" viewBox="0 0 24 24"><path fill="currentColor" fill-rule="evenodd" d="M11 3a1 1 0 1 1 2 0v2.131l.6.4.019-.04c.16-.338.394-.656.728-.888.34-.236.74-.353 1.176-.353 1.864 0 3.682 1.372 4.99 3.407C21.845 9.727 22.75 12.62 22.75 16c0 2.432-.818 3.92-1.905 4.776-1.05.83-2.235.974-2.83.974-1.2 0-2.42-.271-3.336-1.145-.923-.879-1.4-2.236-1.4-4.105v-.004a13 13 0 0 1 .016-.505c.017-.307.05-.735.115-1.218.113-.83.332-1.9.777-2.804-.478-1.115-.884-2.756-.932-4.195l-.002-.07L12 6.869l-1.253.835-.002.07c-.047 1.439-.453 3.08-.933 4.195.445.905.664 1.973.777 2.804a15 15 0 0 1 .131 1.723v.004c0 1.869-.477 3.226-1.4 4.105-.916.874-2.135 1.145-3.335 1.145-.595 0-1.78-.145-2.83-.974C2.068 19.92 1.25 18.432 1.25 16c0-3.38.906-6.273 2.236-8.343C4.794 5.622 6.613 4.25 8.476 4.25c.437 0 .837.117 1.177.353a2.2 2.2 0 0 1 .746.929l.6-.4z" clip-rule="evenodd"/></svg>