<svg xmlns="http://www.w3.org/2000/svg" fill="none" viewBox="0 0 24 24"><path fill="currentColor" fill-rule="evenodd" d="M2.766 2.342a.75.75 0 0 1 .733-.592h5.5a.75.75 0 0 1 .741.864c-.01.066-.04.262-.057.384a102 102 0 0 0-.523 4.08c-.122 1.145-.21 2.25-.21 3.022 0 1.346.427 2.54 1.043 3.383.627.857 1.377 1.267 2.007 1.267s1.38-.41 2.007-1.267c.616-.843 1.043-2.037 1.043-3.383 0-.773-.088-1.877-.21-3.02a101 101 0 0 0-.525-4.082l-.057-.384a.75.75 0 0 1 .741-.864h5.5a.75.75 0 0 1 .733.592l.073.356a57 57 0 0 1 .655 4.215c.163 1.41.29 3.012.29 4.587 0 5.852-4.076 10.75-10.25 10.75S1.75 17.352 1.75 11.5c0-1.575.127-3.177.29-4.586a56 56 0 0 1 .653-4.216l.072-.353zm1.225 1.58q.07-.391.123-.672h4.017a124 124 0 0 0-.39 3H3.634c.12-.913.25-1.715.358-2.328m11.876-.672h4.017q.053.28.123.672c.108.613.238 1.415.358 2.328h-4.108a110 110 0 0 0-.39-3" clip-rule="evenodd"/></svg>