<svg xmlns="http://www.w3.org/2000/svg" fill="none" viewBox="0 0 24 24"><path fill="currentColor" fill-rule="evenodd" d="M4.182 3.203A2.93 2.93 0 0 0 1.25 6.135v11.73a2.93 2.93 0 0 0 2.932 2.932h6.791a.977.977 0 0 0 0-1.955h-6.79a.977.977 0 0 1-.978-.977V8.42l7.595 3.8a2.69 2.69 0 0 0 2.404 0l7.595-3.798v3.303a.977.977 0 0 0 1.954 0v-5.59a2.93 2.93 0 0 0-2.932-2.932zM21.754 16.5a1 1 0 1 1 0 2H17.46v1.793c0 .265-.097.543-.344.64a1 1 0 0 1-1.07-.226l-2.5-2.5a1 1 0 0 1 0-1.414l2.5-2.5a1 1 0 0 1 1.07-.225c.247.096.344.374.344.64V16.5z" clip-rule="evenodd"/></svg>