<svg xmlns="http://www.w3.org/2000/svg" fill="none" viewBox="0 0 24 24"><path fill="currentColor" fill-rule="evenodd" d="M4 2.25A2.75 2.75 0 0 0 1.25 5v12A2.75 2.75 0 0 0 4 19.75h8.75V15.5a2.25 2.25 0 0 1 1.548-2.138 4.251 4.251 0 0 1 7.882-1.489c.26.448.347.949.283 1.425q.147.03.287.08V5A2.75 2.75 0 0 0 20 2.25zm2.378 4.102a.75.75 0 0 0-.756 1.296l4.993 2.912c.856.5 1.915.5 2.77 0l4.993-2.912a.75.75 0 1 0-.756-1.296L12.63 9.264a1.25 1.25 0 0 1-1.26 0zM17.25 14a1.25 1.25 0 0 1 2.333-.624.75.75 0 1 0 1.299-.751A2.749 2.749 0 0 0 15.75 14v.75H15a.75.75 0 0 0-.75.75V21c0 .414.336.75.75.75h7a.75.75 0 0 0 .75-.75v-5.5a.75.75 0 0 0-.75-.75h-4.75z" clip-rule="evenodd"/></svg>