<svg xmlns="http://www.w3.org/2000/svg" fill="none" viewBox="0 0 24 24"><path fill="currentColor" fill-rule="evenodd" d="M4.182 2.203A2.93 2.93 0 0 0 1.25 5.135v11.73a2.93 2.93 0 0 0 2.932 2.932h7.007a.977.977 0 0 0 0-1.955H4.182a.977.977 0 0 1-.977-.977V7.42l7.595 3.8a2.69 2.69 0 0 0 2.404 0l7.595-3.798v2.323a.977.977 0 1 0 1.954 0v-4.61a2.93 2.93 0 0 0-2.932-2.932zm14.994 10.215a1.41 1.41 0 0 0-1.352 0 8.4 8.4 0 0 1-2.433.869 1.384 1.384 0 0 0-1.141 1.358v1.971c0 1.555.773 2.73 1.59 3.532a8.2 8.2 0 0 0 2.13 1.478c.337.16.723.16 1.06 0a8.2 8.2 0 0 0 2.13-1.479c.817-.802 1.59-1.976 1.59-3.53v-1.972c0-.687-.502-1.244-1.141-1.358a8.4 8.4 0 0 1-2.433-.869" clip-rule="evenodd"/></svg>