<svg xmlns="http://www.w3.org/2000/svg" fill="none" viewBox="0 0 24 24"><path fill="currentColor" fill-rule="evenodd" d="M4.182 2.203A2.93 2.93 0 0 0 1.25 5.135v11.73a2.93 2.93 0 0 0 2.932 2.932h7.365a.977.977 0 1 0 0-1.955H4.182a.977.977 0 0 1-.977-.977V7.42l7.595 3.8a2.69 2.69 0 0 0 2.404 0l7.595-3.798v3.774a.977.977 0 1 0 1.954 0v-6.06a2.93 2.93 0 0 0-2.932-2.932zm16.66 16.174-3.22-3.219a2.5 2.5 0 0 1 3.22 3.22m-4.655-1.827 3.263 3.264a2.5 2.5 0 0 1-3.263-3.263M18.5 13a4.5 4.5 0 0 0-3.15 1.286A4.5 4.5 0 1 0 18.5 13" clip-rule="evenodd"/></svg>