<svg xmlns="http://www.w3.org/2000/svg" fill="none" viewBox="0 0 24 24"><path fill="currentColor" fill-rule="evenodd" d="M4 3.25A2.75 2.75 0 0 0 1.25 6v12A2.75 2.75 0 0 0 4 20.75h13.115A2.5 2.5 0 0 1 17 20h-2.5a2.5 2.5 0 0 1 0-5H17a2.5 2.5 0 0 1 4.268-1.768l1.482 1.483V6A2.75 2.75 0 0 0 20 3.25zm2.378 4.102a.75.75 0 0 0-.756 1.296l4.993 2.912c.856.5 1.915.5 2.77 0l4.993-2.912a.75.75 0 1 0-.756-1.296l-4.992 2.912a1.25 1.25 0 0 1-1.26 0zM14.75 16.5a1 1 0 1 0 0 2h4.293v1.793c0 .265.097.543.344.64a1 1 0 0 0 1.07-.226l2.5-2.5a1 1 0 0 0 0-1.414l-2.5-2.5a1 1 0 0 0-1.07-.225c-.247.096-.344.374-.344.64V16.5z" clip-rule="evenodd"/></svg>