<svg xmlns="http://www.w3.org/2000/svg" fill="none" viewBox="0 0 24 24"><path fill="currentColor" fill-rule="evenodd" d="M4 2.25A2.75 2.75 0 0 0 1.25 5v12A2.75 2.75 0 0 0 4 19.75h8.109a6.5 6.5 0 0 1 10.641-7.187V5A2.75 2.75 0 0 0 20 2.25zm2.378 4.102a.75.75 0 0 0-.756 1.296l4.993 2.912c.856.5 1.915.5 2.77 0l4.993-2.912a.75.75 0 1 0-.756-1.296L12.63 9.264a1.25 1.25 0 0 1-1.26 0zM15 17a3 3 0 1 1 6 0v.444a.333.333 0 1 1-.667 0V17a2.333 2.333 0 1 0-1.312 2.099A2.333 2.333 0 0 0 23 17.445V17a5 5 0 1 0-5 5 1 1 0 1 0 0-2 3 3 0 0 1-3-3m3-.333a.333.333 0 1 1 0 .666.333.333 0 0 1 0-.666" clip-rule="evenodd"/></svg>