<svg xmlns="http://www.w3.org/2000/svg" fill="none" viewBox="0 0 24 24"><path fill="currentColor" fill-rule="evenodd" d="M4.182 2.253A2.93 2.93 0 0 0 1.25 5.185v11.73a2.93 2.93 0 0 0 2.932 2.932h8.044a.977.977 0 0 0 0-1.955H4.182a.977.977 0 0 1-.977-.978V7.471l7.595 3.797a2.69 2.69 0 0 0 2.404 0l7.595-3.797v2.317a.977.977 0 0 0 1.954 0V5.185a2.93 2.93 0 0 0-2.932-2.932zM18.5 11.5A2.5 2.5 0 0 0 16 14v2a2.5 2.5 0 0 0 5 0v-2a2.5 2.5 0 0 0-2.5-2.5m-2.605 6.053a1 1 0 1 0-1.79.894c.366.73 1.064 1.356 1.802 1.79.476.28 1.022.512 1.593.644V22a1 1 0 1 0 2 0v-1.119a5.7 5.7 0 0 0 1.593-.644c.738-.434 1.436-1.06 1.801-1.79a1 1 0 1 0-1.788-.894c-.135.27-.49.644-1.027.96-.526.31-1.102.487-1.579.487s-1.052-.177-1.58-.487c-.537-.316-.89-.69-1.025-.96" clip-rule="evenodd"/></svg>