<svg xmlns="http://www.w3.org/2000/svg" fill="none" viewBox="0 0 24 24"><path fill="currentColor" fill-rule="evenodd" d="M7 2.75c-.69 0-1.25.56-1.25 1.25v7.037l5.69 2.845a1.25 1.25 0 0 0 1.119 0l5.691-2.845V4c0-.69-.56-1.25-1.25-1.25zm12.75 7.537.984-.492-.984-.984zm0-3.598V4A2.75 2.75 0 0 0 17 1.25H7A2.75 2.75 0 0 0 4.25 4v2.69L1.763 9.176a1.75 1.75 0 0 0-.513 1.237V20A2.75 2.75 0 0 0 4 22.75h16A2.75 2.75 0 0 0 22.75 20v-9.586c0-.464-.184-.909-.513-1.237zM4.25 8.811l-.984.984.984.492zM8.75 6a.75.75 0 0 1 .75-.75h5a.75.75 0 0 1 0 1.5h-5A.75.75 0 0 1 8.75 6m0 4a.75.75 0 0 1 .75-.75h5a.75.75 0 0 1 0 1.5h-5a.75.75 0 0 1-.75-.75" clip-rule="evenodd"/></svg>