<svg xmlns="http://www.w3.org/2000/svg" fill="none" viewBox="0 0 24 24"><path fill="currentColor" fill-rule="evenodd" d="M11.379 19.267 8.75 18.14V1.508l5.5 2.357v6.72a6.75 6.75 0 0 0-3.5 5.917c0 1.038.25 1.962.629 2.765M15.75 9.98V4.252H21c.966 0 1.75.784 1.75 1.75v6.257a6.74 6.74 0 0 0-5.25-2.507 6.8 6.8 0 0 0-1.75.229M2.217 4.055 7.25 1.54v16.504l-3.697 1.232a1.75 1.75 0 0 1-2.303-1.66V5.62c0-.662.375-1.268.967-1.565M12.25 16.5a5.25 5.25 0 1 1 10.5 0c0 1.707-.897 3.066-1.857 4.033-.964.97-2.063 1.623-2.644 1.932a1.59 1.59 0 0 1-1.498 0c-.581-.31-1.68-.962-2.644-1.932-.96-.967-1.857-2.326-1.857-4.033m3.25-.002c0-1.105.891-2 1.991-2h.018c1.1 0 1.991.896 1.991 2s-.891 2-1.991 2h-.018c-1.1 0-1.991-.895-1.991-2" clip-rule="evenodd"/></svg>