<svg xmlns="http://www.w3.org/2000/svg" fill="none" viewBox="0 0 24 24"><path fill="currentColor" fill-rule="evenodd" d="M7.66 16.985c1.59.49 3.41.76 5.34.76 2.08 0 4.04-.32 5.73-.88 2.03-.68 3.02-2.69 3.02-4.63v-4.71c0-2.41-1.3-4.86-3.83-5.53-1.77-.48-3.78-.74-5.92-.74s-4.15.27-5.92.74c-2.53.67-3.83 3.12-3.83 5.53v6.97c0 2.13.53 3.75 1.38 4.97s1.97 1.98 3.07 2.46a9.9 9.9 0 0 0 2.97.76c.4.04.74.05.98.06h.37c1.34 0 2.42-.27 3.17-.54.38-.14.88-.35 1.22-.58.21-.14.34-.37.34-.62v-1c0-.24-.12-.47-.31-.61a.74.74 0 0 0-.67-.1c-.17.04-.64.16-.97.22-.64.12-1.6.24-2.8.24s-1.98-.26-2.44-.57c-.45-.31-.68-.71-.8-1.13-.11-.36-.12-.73-.1-1.05zM8 8.005c0-.83.67-1.5 1.5-1.5s1.5.67 1.5 1.5v3.5c0 .55.45 1 1 1s1-.45 1-1v-3.5c0-.83.67-1.5 1.5-1.5s1.5.67 1.5 1.5v5.5c0 .55.45 1 1 1s1-.45 1-1v-5.5c0-1.93-1.57-3.5-3.5-3.5-.98 0-1.86.4-2.5 1.05a3.5 3.5 0 0 0-2.5-1.05c-1.93 0-3.5 1.57-3.5 3.5v5.5c0 .55.45 1 1 1s1-.45 1-1z" clip-rule="evenodd"/></svg>