<svg xmlns="http://www.w3.org/2000/svg" fill="none" viewBox="0 0 24 24"><path fill="currentColor" fill-rule="evenodd" d="M11.7 2.311a.78.78 0 0 1 .6 0l9 4c.28.13.45.39.45.69s-.17.57-.45.69L17.22 9.5l4.08 1.81c.28.12.45.39.45.69s-.17.56-.45.68l-4.08 1.82 4.08 1.81c.28.12.45.39.45.69s-.17.56-.45.68l-9 4c-.19.09-.41.09-.61 0l-8.99-4a.73.73 0 0 1-.45-.68c0-.3.17-.57.45-.69l4.08-1.81-4.08-1.82a.73.73 0 0 1-.45-.68c0-.3.17-.57.45-.69L6.78 9.5 2.7 7.69A.74.74 0 0 1 2.25 7c0-.3.17-.56.45-.69zm.6 9.38 3.08-1.37.61.27-6.81 3.23s-.07.04-.1.06l-1.33-.59 3.7-1.71.24.11c.2.08.42.08.61 0m-3.68-1.37 1.01.45-3.71 1.71L4.85 12zm-3.77-3.32L12 10.18 19.15 7 12 3.82zm12.95 4.4-6.93 3.28 1.13.5L19.15 12z" clip-rule="evenodd"/></svg>