<svg xmlns="http://www.w3.org/2000/svg" fill="none" viewBox="0 0 24 24"><path fill="currentColor" fill-rule="evenodd" d="M4 1a3 3 0 0 0-3 3v14a3 3 0 0 0 3 3h1.5a1 1 0 1 0 0-2H4a1 1 0 0 1-1-1V4a1 1 0 0 1 1-1h1.5a1 1 0 0 0 0-2zm14.5 0a1 1 0 1 0 0 2H20a1 1 0 0 1 1 1v14a1 1 0 0 1-1 1h-1.5a1 1 0 1 0 0 2H20a3 3 0 0 0 3-3V4a3 3 0 0 0-3-3zM7 5.75a1.25 1.25 0 1 0 0 2.5h.009a1.25 1.25 0 1 0 0-2.5zm4.996 0a1.25 1.25 0 0 0 0 2.5h.008a1.25 1.25 0 0 0 0-2.5zm4.995 0a1.25 1.25 0 0 0 0 2.5H17a1.25 1.25 0 1 0 0-2.5zM7 9.75a1.25 1.25 0 1 0 0 2.5h.009a1.25 1.25 0 1 0 0-2.5zm4.996 0a1.25 1.25 0 0 0 0 2.5h.008a1.25 1.25 0 0 0 0-2.5zm4.995 0a1.25 1.25 0 0 0 0 2.5H17a1.25 1.25 0 1 0 0-2.5zM7 13.75a1.25 1.25 0 1 0 0 2.5h.009a1.25 1.25 0 1 0 0-2.5zm4.996 0a1.25 1.25 0 0 0 0 2.5h.008a1.25 1.25 0 0 0 0-2.5zm4.995 0a1.25 1.25 0 0 0 0 2.5H17a1.25 1.25 0 1 0 0-2.5z" clip-rule="evenodd"/></svg>