<svg xmlns="http://www.w3.org/2000/svg" fill="none" viewBox="0 0 24 24"><path fill="currentColor" fill-rule="evenodd" d="M15.929 2.622a1 1 0 0 0-1.857-.743l-1 2.5a1 1 0 1 0 1.857.743zm-5.51-.766a1 1 0 0 0-1.838.788l2.431 5.673q-.736.1-1.418.342L6.406 1.827a1 1 0 0 0-1.812.846l3.222 6.905a7.25 7.25 0 1 0 8.368 0l3.222-6.905a1 1 0 1 0-1.812-.846L14.406 8.66a7 7 0 0 0-1.204-.31zm1.976 10.506a.75.75 0 0 1 .355.638v4.25H13a.75.75 0 0 1 0 1.5h-2a.75.75 0 0 1 0-1.5h.25v-3.043a.75.75 0 0 1-.585-1.378l1-.5a.75.75 0 0 1 .73.033" clip-rule="evenodd"/></svg>