<svg xmlns="http://www.w3.org/2000/svg" fill="none" viewBox="0 0 24 24"><path fill="currentColor" fill-rule="evenodd" d="M21.346 3.513c-1.35-2.394-4.363-3.233-6.727-1.836l-10.17 6.01c-2.35 1.388-3.138 4.443-1.795 6.824a4.9 4.9 0 0 0 3.737 2.484 1 1 0 0 0 .218-1.988 2.9 2.9 0 0 1-2.213-1.479c-.819-1.45-.324-3.296 1.07-4.12l4.226-2.496.948 1.599a1 1 0 0 0 1.72-1.02l-.946-1.597L15.636 3.4c1.38-.816 3.157-.341 3.968 1.097a3.08 3.08 0 0 1-.356 3.528 1 1 0 0 0 1.504 1.318 5.08 5.08 0 0 0 .594-5.829m-9.724 6.64a6.75 6.75 0 0 1 8.793 1.819l-11.59 6.76a6.75 6.75 0 0 1 2.797-8.578M9.581 20.03l11.59-6.76a6.751 6.751 0 0 1-11.59 6.76" clip-rule="evenodd"/></svg>