<svg xmlns="http://www.w3.org/2000/svg" fill="none" viewBox="0 0 24 24"><path fill="currentColor" fill-rule="evenodd" d="M4.5 1.75A2.75 2.75 0 0 0 1.75 4.5v15a2.75 2.75 0 0 0 2.75 2.75h15a2.75 2.75 0 0 0 2.75-2.75v-15a2.75 2.75 0 0 0-2.75-2.75zM4.25 12a3.25 3.25 0 1 1 6.5 0 3.25 3.25 0 0 1-6.5 0m7.546-2.154c.344-.572.923-1.096 1.704-1.096s1.36.524 1.704 1.096c.352.588.546 1.351.546 2.154s-.194 1.566-.546 2.154c-.344.572-.923 1.096-1.704 1.096s-1.36-.524-1.704-1.096c-.352-.588-.546-1.351-.546-2.154s.194-1.566.546-2.154m5.27-.665c.208-.22.523-.431.934-.431.41 0 .726.211.934.431.207.218.358.494.47.773.224.56.346 1.285.346 2.046s-.122 1.485-.346 2.046a2.4 2.4 0 0 1-.47.773c-.208.22-.523.431-.934.431-.41 0-.726-.211-.934-.431a2.4 2.4 0 0 1-.47-.773c-.224-.56-.346-1.285-.346-2.046s.122-1.485.346-2.046c.112-.279.263-.555.47-.773" clip-rule="evenodd"/></svg>