<svg xmlns="http://www.w3.org/2000/svg" fill="none" viewBox="0 0 24 24"><path fill="currentColor" fill-rule="evenodd" d="M16.46 1.847c1.01-.433 2.282-.25 3.03.704 1.242 1.585 2.26 3.782 2.26 6.952s-1.018 5.367-2.26 6.952c-.748.955-2.02 1.137-3.03.704l-8.21-3.518V5.365zM6.75 5.753v7.5H5a2.75 2.75 0 0 1-2.75-2.75v-2A2.75 2.75 0 0 1 5 5.753zm.754 8.952a.75.75 0 0 0-1.035.693v1.316a6.75 6.75 0 0 0 1.296 3.978l1.25 1.713c.306.42.928.47 1.29.064l2.449-2.748a.853.853 0 0 0-.128-1.25c-.044-.032-1.357-.936-2.166-1.493a5.3 5.3 0 0 1-1.04-.944l-.58-.688a.75.75 0 0 0-.29-.21z" clip-rule="evenodd"/></svg>