<svg xmlns="http://www.w3.org/2000/svg" fill="none" viewBox="0 0 24 24"><path fill="currentColor" fill-rule="evenodd" d="M2.387 1.293A1 1 0 1 0 .973 2.707L3.384 5.12a9.26 9.26 0 0 0-2.092 5.303 21 21 0 0 0 0 2.617c.11 1.717.86 3.265 1.692 4.521.25.482.12 1.204-.347 2.088l-.022.04c-.156.297-.31.588-.398.835-.094.263-.19.68.05 1.092a1.12 1.12 0 0 0 .742.57c.254.062.595.063.982.063 1.414.033 2.412-.377 3.203-.96.157-.116.265-.195.346-.251.119.043.28.11.518.208a5.6 5.6 0 0 0 1.722.394c1.457.097 2.98.097 4.44 0a9 9 0 0 0 4.274-1.41l2.479 2.478a1 1 0 0 0 1.414-1.414zm11.833.53a34 34 0 0 0-4.44 0 9 9 0 0 0-2.541.543.75.75 0 0 0-.27 1.234l13.447 13.446a.75.75 0 0 0 1.19-.172 9.3 9.3 0 0 0 1.102-3.835c.056-.862.056-1.754 0-2.617-.298-4.61-3.921-8.296-8.488-8.6" clip-rule="evenodd"/></svg>