<svg xmlns="http://www.w3.org/2000/svg" fill="none" viewBox="0 0 24 24"><path fill="currentColor" fill-rule="evenodd" d="M8.606 1.311a29 29 0 0 1 3.788 0c3.934.26 7.063 3.407 7.32 7.352a17 17 0 0 1 0 2.22c-.257 3.946-3.386 7.093-7.32 7.352a29 29 0 0 1-3.788 0 5 5 0 0 1-1.497-.34c-.17-.069-.292-.119-.385-.154l-.245.178c-.691.505-1.562.857-2.788.83-.273 0-.556-.003-.787-.052a1.2 1.2 0 0 1-.43-.175 1.1 1.1 0 0 1-.342-.363c-.234-.395-.136-.791-.053-1.023a6 6 0 0 1 .344-.715l.02-.039c.393-.737.475-1.29.297-1.637-.711-1.066-1.358-2.388-1.454-3.862a17 17 0 0 1 0-2.22c.257-3.945 3.386-7.092 7.32-7.352M6.25 8A.75.75 0 0 1 7 7.25h4a.75.75 0 0 1 0 1.5H7A.75.75 0 0 1 6.25 8M14 12.75H7a.75.75 0 0 1 0-1.5h7a.75.75 0 0 1 0 1.5m8.512-1.425a.75.75 0 0 0-1.475.092c-.47 4.203-2.718 6.358-5.306 7.41-2.645 1.077-5.681 1.007-7.58.617a.75.75 0 0 0-.588 1.345 7.8 7.8 0 0 0 4.043 1.446c1.246.082 2.545.082 3.788 0a5 5 0 0 0 1.497-.34c.17-.069.292-.119.385-.154l.245.178c.693.506 1.566.859 2.798.83l.041-.002c.23-.005.487-.011.698-.052.259-.05.597-.177.81-.536.234-.395.137-.791.053-1.023a6 6 0 0 0-.344-.715l-.02-.039c-.393-.737-.475-1.29-.297-1.637.711-1.066 1.358-2.388 1.454-3.862a17 17 0 0 0 0-2.22 8 8 0 0 0-.202-1.338" clip-rule="evenodd"/></svg>