<svg xmlns="http://www.w3.org/2000/svg" fill="none" viewBox="0 0 24 24"><path fill="currentColor" fill-rule="evenodd" d="M13.612 1.319a32 32 0 0 0-4.224 0c-4.356.289-7.814 3.796-8.098 8.184a19 19 0 0 0 0 2.484c.106 1.636.82 3.109 1.613 4.301.225.437.111 1.103-.33 1.938l-.022.04c-.148.28-.295.557-.38.795-.09.252-.187.662.052 1.068.219.372.568.507.845.56.23.045.51.052.769.058l.044.001c1.357.033 2.315-.358 3.075-.916.148-.11.25-.184.325-.236a.75.75 0 0 0 .87-.756l-.061-2.883a6.75 6.75 0 0 1 6.842-6.894l5.965.083a.75.75 0 0 0 .746-.898c-.774-3.852-4.089-6.668-8.031-6.929m1.038 8.974a21 21 0 0 1 2.7 0c2.873.184 5.184 2.428 5.374 5.272.035.513.035 1.045 0 1.559-.071 1.069-.55 2.016-1.06 2.763a.5.5 0 0 0-.018.284c.029.168.108.373.232.6l.017.031c.09.164.193.352.254.518.068.182.167.548-.057.916a1 1 0 0 1-.312.323 1.1 1.1 0 0 1-.376.15 3 3 0 0 1-.595.04c-.91.02-1.569-.237-2.093-.61l-.08-.057-.165.066a3.8 3.8 0 0 1-1.12.248c-.887.056-1.813.057-2.701 0-2.873-.185-5.184-2.428-5.374-5.272a12 12 0 0 1 0-1.56c.19-2.844 2.5-5.087 5.374-5.271" clip-rule="evenodd"/></svg>