<svg xmlns="http://www.w3.org/2000/svg" fill="none" viewBox="0 0 24 24"><path fill="currentColor" fill-rule="evenodd" d="M14.5 3.25a1 1 0 1 0 0 2h4.293v1.793c0 .265.097.543.344.64a1 1 0 0 0 1.07-.226l2.5-2.5a1 1 0 0 0 0-1.414l-2.5-2.5a1 1 0 0 0-1.07-.225c-.247.096-.344.374-.344.64V3.25zm-4.71-.927a34 34 0 0 1 3.565-.046A2.5 2.5 0 0 0 14.5 7H17a2.5 2.5 0 0 0 4.268 1.768l.77-.77c.371.91.604 1.894.67 2.924.056.863.056 1.755 0 2.617-.298 4.61-3.921 8.296-8.488 8.6-1.46.097-2.983.097-4.44 0a5.6 5.6 0 0 1-1.722-.394l-.221-.092-.006-.003c-.122-.05-.211-.087-.286-.116a14 14 0 0 0-.351.254c-.79.583-1.789.993-3.203.96-.326 0-.644-.003-.901-.058a1.3 1.3 0 0 1-.462-.19 1.2 1.2 0 0 1-.36-.385 1.3 1.3 0 0 1-.185-.511 1.16 1.16 0 0 1 .089-.587c.054-.131.132-.269.198-.386l.026-.046c.069-.12.147-.26.24-.437.545-1.032.634-1.548.346-2.09-.852-1.313-1.579-2.799-1.69-4.519a21 21 0 0 1 0-2.617c.298-4.61 3.933-8.296 8.499-8.6M8.5 9.25a.75.75 0 0 0 0 1.5H12a.75.75 0 0 0 0-1.5zm0 5a.75.75 0 0 0 0 1.5h7a.75.75 0 0 0 0-1.5z" clip-rule="evenodd"/></svg>