<svg xmlns="http://www.w3.org/2000/svg" fill="none" viewBox="0 0 24 24"><path fill="currentColor" fill-rule="evenodd" d="M18.5 1.25a4.25 4.25 0 1 0 0 8.5 4.25 4.25 0 0 0 0-8.5M12.75 5.5c0-1.187.36-2.29.976-3.206a34 34 0 0 0-3.946.029c-4.567.303-8.19 3.99-8.488 8.6a21 21 0 0 0 0 2.616c.11 1.717.86 3.265 1.692 4.521.25.482.12 1.204-.347 2.088l-.022.04c-.156.297-.31.588-.398.835-.094.263-.19.68.05 1.092a1.2 1.2 0 0 0 .823.575c.257.055.575.058.9.058 1.415.033 2.413-.377 3.204-.96.157-.116.265-.195.346-.251.119.043.28.11.518.208a5.6 5.6 0 0 0 1.722.394c1.457.097 2.98.097 4.44 0 4.567-.304 8.19-3.99 8.488-8.6.056-.862.056-1.754 0-2.617q-.044-.674-.18-1.32A5.75 5.75 0 0 1 12.75 5.5M8 11.5a1 1 0 1 0 0 2h.009a1 1 0 1 0 0-2zm3.996 0a1 1 0 0 0 0 2h.008a1 1 0 1 0 0-2zm3.995 0a1 1 0 0 0 0 2H16a1 1 0 1 0 0-2z" clip-rule="evenodd"/></svg>