<svg xmlns="http://www.w3.org/2000/svg" fill="none" viewBox="0 0 24 24"><path fill="currentColor" fill-rule="evenodd" d="M16.707 1.293a1 1 0 1 0-1.414 1.414L17.586 5l-2.293 2.293a1 1 0 0 0 1.414 1.414L19 6.414l2.293 2.293a1 1 0 1 0 1.414-1.414L20.414 5l2.293-2.293a1 1 0 0 0-1.414-1.414L19 3.586zM9.78 2.323a34 34 0 0 1 3.736-.04c.062.543.3 1.069.716 1.485L15.465 5l-1.233 1.232a2.5 2.5 0 0 0 3.536 3.536L19 8.536l1.232 1.232a2.5 2.5 0 0 0 2.43.643q.03.255.046.511c.056.863.056 1.755 0 2.617-.298 4.61-3.921 8.296-8.488 8.6-1.46.097-2.983.097-4.44 0a5.6 5.6 0 0 1-1.722-.394 16 16 0 0 0-.518-.208c-.08.056-.189.135-.346.251-.79.583-1.789.993-3.203.96-.326 0-.644-.003-.901-.058a1.3 1.3 0 0 1-.462-.19 1.2 1.2 0 0 1-.36-.385c-.242-.412-.145-.83-.051-1.092.088-.247.242-.538.398-.834l.022-.041c.466-.884.596-1.606.347-2.088-.833-1.256-1.581-2.804-1.692-4.52a21 21 0 0 1 0-2.618c.298-4.61 3.921-8.296 8.488-8.6M8 11.5a1 1 0 1 0 0 2h.009a1 1 0 1 0 0-2zm3.996 0a1 1 0 0 0 0 2h.008a1 1 0 1 0 0-2zm3.995 0a1 1 0 0 0 0 2H16a1 1 0 1 0 0-2z" clip-rule="evenodd"/></svg>