<svg xmlns="http://www.w3.org/2000/svg" fill="none" viewBox="0 0 24 24"><path fill="currentColor" fill-rule="evenodd" d="M14.39 3.401a3.29 3.29 0 0 0-4.5-1.21 3.3 3.3 0 0 0-1.2 4.5l.2.34c.56-.49 1.3-.78 2.11-.78 1.79 0 3.25 1.46 3.25 3.25 0 1.42-.91 2.62-2.17 3.07l.42.73c.48.84 1.56 1.14 2.41.65l2.64-1.53c.84-.49 1.13-1.57.64-2.41zm4.11 11.69a.999.999 0 1 0-1-1.73l-2.2 1.27c-.48.28-.64.89-.36 1.37.27.48.89.64 1.36.36zM13 9.501c0 1.1-.9 2-2 2-.74 0-1.38-.4-1.73-.99A3.493 3.493 0 0 0 6 14.001c0 1.86 1.57 3.5 3.5 3.5h.04l.02-.05c.24-.72.97-1.2 1.72-1.2s1.42.48 1.66 1.2l.02.05H18c.55 0 1 .45 1 1s-.45 1-1 1h-4.38l.25.75h5.88c.55 0 1 .45 1 1s-.45 1-1 1H4.25c-.55 0-1-.45-1-1s.45-1 1-1h4.38l.26-.78A5.51 5.51 0 0 1 4 14c0-2.83 2.34-5.37 5.26-5.5a2.006 2.006 0 0 1 3.74 1" clip-rule="evenodd"/></svg>