<svg xmlns="http://www.w3.org/2000/svg" fill="none" viewBox="0 0 24 24"><path fill="currentColor" fill-rule="evenodd" d="M10.53 2.53a.75.75 0 1 0-1.06-1.06L8.25 2.69l-.72-.72a.75.75 0 0 0-1.28.53L6.251 5c0 .415.336.75.75.75h2.5a.75.75 0 0 0 .53-1.28l-.72-.72zM5.739 6.992a.75.75 0 0 0-.751-.747l-2.489.005a.75.75 0 0 0-.528 1.28l.716.717L1.468 9.47a.75.75 0 0 0 1.064 1.058l1.215-1.222.723.723a.75.75 0 0 0 1.28-.533zm3.074 14.392.003.006a2.75 2.75 0 0 0 2.372 1.36h6.796a3.75 3.75 0 0 0 3.693-3.097l1.039-5.878c.217-1.126-.62-2.303-1.864-2.446l-.508 2.597a.45.45 0 0 1-.884-.172l.517-2.641a1.9 1.9 0 0 0-.308-.471c-.24-.27-.552-.474-.92-.63a1 1 0 0 0-.09-.033 2.3 2.3 0 0 0-.79-.086l-.461 2.506a.45.45 0 1 1-.885-.163l.562-3.057a2.25 2.25 0 0 0-1.038-.653 2.2 2.2 0 0 0-.86-.066c-.264.034-.324.066-.324.066l-.587 3.3a.45.45 0 1 1-.886-.155l1.237-7.055a1.164 1.164 0 1 0-2.294-.4l-1.966 11.375a.45.45 0 0 1-.794.206L7.594 13.3a1.489 1.489 0 0 0-2.46 1.665z" clip-rule="evenodd"/></svg>