<svg xmlns="http://www.w3.org/2000/svg" fill="none" viewBox="0 0 24 24"><path fill="currentColor" fill-rule="evenodd" d="M4.988 1.283a.75.75 0 0 0-.378 1.398 39 39 0 0 1 4.708 3.225.75.75 0 0 0 .962-.022l2.277-1.994a.75.75 0 0 0-.204-1.256c-2.158-.907-4.643-1.35-7.365-1.35m10.829 1.71a.75.75 0 0 0-1.066-.013l-4.657 4.595a.75.75 0 0 0-.004 1.064l3.555 3.555a.75.75 0 0 0 1.05.01l4.657-4.47a.75.75 0 0 0 .02-1.061zm-6.068 7.6a.75.75 0 0 0-1.06 0l-7 7a.75.75 0 0 0 0 1.06l2 2a.75.75 0 0 0 1.06 0l7-7a.75.75 0 0 0 0-1.06zm10.617 1.016c-.113-.732-.245-1.003-.508-1.506-.258-.494-.928-.61-1.322-.216l-1.247 1.247.105-.002c.477-.085 1.578-.264 1.953.126.604-.124.812.109 1.019.351M20.25 13a.75.75 0 0 0-1.5 0v.25H17a.75.75 0 0 0 0 1.5h.25v5.5H17a.75.75 0 0 0 0 1.5h1.75V22a.75.75 0 0 0 1.5 0v-.25a2.5 2.5 0 0 0 1.785-4.25 2.5 2.5 0 0 0-1.785-4.25zm-1.5 3.75v-2h1.5a1 1 0 1 1 0 2zm0 3.5v-2h1.5a1 1 0 1 1 0 2z" clip-rule="evenodd"/></svg>