<svg xmlns="http://www.w3.org/2000/svg" fill="none" viewBox="0 0 24 24"><path fill="currentColor" fill-rule="evenodd" d="M3.633 4.062C5.041 2.442 6.99 1.25 9.038 1.25c1.874 0 3.664.999 5.026 2.4a10.2 10.2 0 0 1 2.19 3.416A7 7 0 0 0 15 6.95c-2.52 0-4.785 1.415-6.344 3.166-1.295 1.456-2.293 3.349-2.604 5.36-.972-.223-1.89-.584-2.663-1.131-1.307-.925-2.139-2.347-2.139-4.334 0-2.151.97-4.322 2.383-5.95M8.03 5.288a.75.75 0 0 0-1.06-1.06l-1 1a.75.75 0 0 0 1.06 1.06zm1.94-1.06a.75.75 0 0 0 0 1.06l1 1a.75.75 0 1 0 1.06-1.06l-1-1a.75.75 0 0 0-1.06 0m-.343 6.752C11.03 9.404 12.97 8.25 15 8.25s3.97 1.154 5.373 2.73c1.407 1.582 2.377 3.697 2.377 5.797 0 1.27-.357 2.321-.999 3.156-.636.825-1.513 1.39-2.48 1.766a.75.75 0 1 1-.543-1.398c.785-.305 1.408-.73 1.834-1.283.42-.546.688-1.267.688-2.24 0-1.66-.78-3.432-1.998-4.8C18.03 10.605 16.47 9.75 15 9.75s-3.03.855-4.252 2.228c-1.218 1.367-1.998 3.14-1.998 4.8 0 .973.268 1.694.688 2.24.426.554 1.049.978 1.834 1.283a.75.75 0 1 1-.544 1.398c-.966-.376-1.843-.94-2.48-1.767-.641-.834-.998-1.884-.998-3.155 0-2.1.97-4.215 2.377-5.797m2.07 1.886c.844-.919 2.03-1.616 3.303-1.616 1.272 0 2.459.697 3.302 1.616.847.922 1.448 2.172 1.448 3.442 0 1.697-1.194 2.62-2.404 3.05-.216.077-.294.234-.294.33v1.03a2.032 2.032 0 0 1-4.064 0v-1.03c0-.097-.078-.253-.292-.328-1.209-.425-2.446-1.342-2.446-3.052 0-1.27.601-2.52 1.448-3.442" clip-rule="evenodd"/></svg>