<svg xmlns="http://www.w3.org/2000/svg" fill="none" viewBox="0 0 24 24"><path fill="currentColor" fill-rule="evenodd" d="M2.707 1.293a1 1 0 0 0-1.414 1.414L2.37 3.785C1.69 4.285 1.25 5.09 1.25 6v12A2.75 2.75 0 0 0 4 20.75h15.336l1.957 1.957a1 1 0 0 0 1.414-1.414zm10.602 13.43L9.326 10.74a3 3 0 0 0 3.983 3.983M5.5 11a1 1 0 1 1 0 2h-.009a1 1 0 1 1 0-2zm7.08-1.953a3 3 0 0 1 2.422 2.422l7.552 7.552A2.7 2.7 0 0 0 22.75 18V6A2.75 2.75 0 0 0 20 3.25H6.783zM19.51 12a1 1 0 0 0-1-1h-.01a1 1 0 1 0 0 2h.01a1 1 0 0 0 1-1" clip-rule="evenodd"/></svg>