<svg xmlns="http://www.w3.org/2000/svg" fill="none" viewBox="0 0 24 24"><path fill="currentColor" fill-rule="evenodd" d="M1.692 19.684A.75.75 0 0 1 1.25 19V4a.75.75 0 0 1 1.057-.684 9 9 0 0 0 .782.286c.516.166 1.257.367 2.147.5 1.785.268 4.129.261 6.456-.786h.002l.005-.003c.05-.02.177-.074.253-.104.16-.062.389-.147.678-.24a15 15 0 0 1 2.384-.554c1.965-.295 4.621-.302 7.294.901A.75.75 0 0 1 22.75 4v11.115A2.5 2.5 0 0 0 22 15h-1v-1a2.5 2.5 0 0 0-5 0v1h-1a2.5 2.5 0 0 0-1.701 4.332 11 11 0 0 0-.991.352c-2.673 1.202-5.33 1.196-7.294.901a15 15 0 0 1-2.384-.555c-.29-.093-.519-.177-.678-.239-.076-.03-.202-.083-.252-.104zM6.5 12.5a1 1 0 1 0-2 0v.009a1 1 0 1 0 2 0zm2.5-1a3 3 0 1 1 6 0 3 3 0 0 1-6 0M19.5 14a1 1 0 1 0-2 0v2.5H15a1 1 0 1 0 0 2h2.5V21a1 1 0 1 0 2 0v-2.5H22a1 1 0 1 0 0-2h-2.5z" clip-rule="evenodd"/></svg>