<svg xmlns="http://www.w3.org/2000/svg" fill="none" viewBox="0 0 24 24"><path fill="currentColor" fill-rule="evenodd" d="M17.037 2.79c-2.029-.839-4.176-.593-5.373.008a.75.75 0 0 0-.414.67v6.528a.75.75 0 0 0 1.086.67c.803-.402 2.495-.637 4.127.039 1.936.801 4.425 1.067 5.552 1.045a.75.75 0 0 0 .735-.75V4.472a.75.75 0 0 0-.765-.75c-.974.019-3.247-.227-4.948-.931M17 5.5a1.5 1.5 0 0 0 0 3h.009a1.5 1.5 0 0 0 0-3zM4.75 7c0-.69.56-1.25 1.25-1.25h.75V7a.75.75 0 0 0 1.35.45l1.5-2a.75.75 0 0 0-.6-1.2H6A2.75 2.75 0 0 0 3.25 7v3a.75.75 0 0 0 1.5 0zm16 7a.75.75 0 0 0-1.5 0v3c0 .69-.56 1.25-1.25 1.25h-.75V17a.75.75 0 0 0-1.35-.45l-1.5 2a.75.75 0 0 0 .6 1.2h3A2.75 2.75 0 0 0 20.75 17zM6.963 12.79c2.029-.839 4.176-.593 5.373.008a.75.75 0 0 1 .414.67v6.528a.75.75 0 0 1-1.086.67c-.803-.402-2.495-.637-4.127.039-1.936.801-4.425 1.067-5.552 1.045A.75.75 0 0 1 1.25 21v-6.528a.75.75 0 0 1 .765-.75c.974.019 3.247-.227 4.948-.931M5.5 17A1.5 1.5 0 0 1 7 15.5h.009a1.5 1.5 0 0 1 0 3H7A1.5 1.5 0 0 1 5.5 17" clip-rule="evenodd"/></svg>