<svg xmlns="http://www.w3.org/2000/svg" fill="none" viewBox="0 0 24 24"><path fill="currentColor" fill-rule="evenodd" d="M1.5 4.5a3 3 0 0 1 3-3h9a1 1 0 1 1 0 2h-9a1 1 0 0 0-1 1v15a1 1 0 0 0 1 1h15a1 1 0 0 0 1-1v-9a1 1 0 1 1 2 0v9a3 3 0 0 1-3 3h-15a3 3 0 0 1-3-3zm15.576-2.383A1 1 0 0 1 18 1.5h3.5a1 1 0 0 1 1 1V6a1 1 0 0 1-1.707.707L19.75 5.664l-2.543 2.543a1 1 0 1 1-1.414-1.414l2.543-2.543-1.043-1.043a1 1 0 0 1-.217-1.09M13 8a1 1 0 1 0-2 0v.14a3.2 3.2 0 0 0-1.014.5C9.434 9.052 9 9.7 9 10.5s.434 1.447.986 1.86c.55.414 1.266.64 2.014.64.357 0 .641.11.814.24.173.129.186.231.186.26s-.013.131-.186.26c-.173.13-.457.24-.814.24-.6 0-.917-.289-.982-.426a1 1 0 0 0-1.809.852c.341.724 1.02 1.21 1.791 1.432V16a1 1 0 1 0 2 0v-.14a3.2 3.2 0 0 0 1.014-.5c.552-.413.986-1.06.986-1.86s-.434-1.447-.986-1.86c-.55-.414-1.266-.64-2.014-.64-.357 0-.641-.11-.814-.24-.173-.129-.186-.231-.186-.26s.013-.131.186-.26c.173-.13.457-.24.814-.24.6 0 .917.289.982.426a1 1 0 0 0 1.809-.852C14.45 8.85 13.77 8.364 13 8.14z" clip-rule="evenodd"/></svg>