<svg xmlns="http://www.w3.org/2000/svg" fill="none" viewBox="0 0 24 24"><path fill="currentColor" fill-rule="evenodd" d="M1.25 19.5a.75.75 0 0 0 .442.684l.008.003c.05.021.176.075.252.104.16.062.389.146.678.24.578.185 1.399.407 2.384.554 1.964.295 4.621.301 7.294-.901a9 9 0 0 1 .991-.352A2.5 2.5 0 0 1 15 15.5h7q.393.002.75.114V4.5a.75.75 0 0 0-.442-.684c-2.673-1.203-5.33-1.196-7.294-.901a15 15 0 0 0-2.384.555 11 11 0 0 0-.931.343l-.005.002-.002.001c-2.327 1.047-4.67 1.054-6.456.786a14 14 0 0 1-2.147-.5 10 10 0 0 1-.782-.286.75.75 0 0 0-1.057.684zm4.25-7a1 1 0 0 1 1 1v.009a1 1 0 1 1-2 0V13.5a1 1 0 0 1 1-1M12 9a3 3 0 1 0 0 6 3 3 0 0 0 0-6m6.5 1.492a1 1 0 0 1 1 1v.01a1 1 0 1 1-2 0v-.01a1 1 0 0 1 1-1M15 17a1 1 0 1 0 0 2h7a1 1 0 1 0 0-2z" clip-rule="evenodd"/></svg>