<svg xmlns="http://www.w3.org/2000/svg" fill="none" viewBox="0 0 24 24"><path fill="currentColor" fill-rule="evenodd" d="M2.708 1.294a1 1 0 1 0-1.416 1.412l1.17 1.173-.155-.063A.75.75 0 0 0 1.25 4.5v15a.75.75 0 0 0 .442.684l.008.003c.05.021.176.075.252.104.16.062.389.146.678.24.578.185 1.399.407 2.384.554 1.964.295 4.621.301 7.294-.901a9 9 0 0 1 .78-.286 14 14 0 0 1 2.148-.5 13 13 0 0 1 2.562-.133l3.43 3.441a1 1 0 0 0 1.416-1.412zm10.56 13.426-3.984-3.996a3 3 0 0 0 3.983 3.996m-.717-5.67a3 3 0 0 1 2.4 2.409l7.799 7.823V4.5a.75.75 0 0 0-.442-.684c-2.673-1.203-5.33-1.196-7.294-.901a15 15 0 0 0-2.384.555 11 11 0 0 0-.931.343l-.005.002-.002.001c-1.178.53-2.36.794-3.472.89zm6.557 1.35a.75.75 0 0 1-.215 1.484 13 13 0 0 0-.945-.101.75.75 0 0 1 .104-1.496q.54.038 1.056.112M6.052 12.216a.75.75 0 0 1-.104 1.496q-.54-.037-1.055-.112a.75.75 0 1 1 .215-1.485q.46.068.944.101" clip-rule="evenodd"/></svg>