<svg xmlns="http://www.w3.org/2000/svg" fill="none" viewBox="0 0 24 24"><path fill="currentColor" fill-rule="evenodd" d="M6.485 1.24a1 1 0 0 1 .925-.202 5.03 5.03 0 0 1 2.992 2.35q.268.473.428.971.57-.108 1.17-.109a6.25 6.25 0 0 1 6.247 6.053 5.251 5.251 0 0 1 1.16 10.09A2.501 2.501 0 0 0 15.8 17.52l-.106-.055a2.5 2.5 0 0 0-.27-1.322A2.501 2.501 0 0 0 12 12.806a2.501 2.501 0 0 0-3.424 3.337 2.5 2.5 0 0 0-.27 1.322l-.106.055a2.501 2.501 0 0 0-3.652 2.682 5.75 5.75 0 0 1-.95-9.838 5.03 5.03 0 0 1-1.925-1.907 5.1 5.1 0 0 1-.519-3.779 1 1 0 0 1 1.577-.551c.666.508 1.59.593 2.354.147a2.18 2.18 0 0 0 1.058-2.152 1 1 0 0 1 .342-.882m-.553 7.758a6.26 6.26 0 0 1 3.017-3.954 3.1 3.1 0 0 0-.958-1.478 4.15 4.15 0 0 1-1.898 2.436 4.1 4.1 0 0 1-3.05.444c.06.349.18.694.367 1.019a3.03 3.03 0 0 0 2.522 1.533m4.144 5.312a1 1 0 0 1 1.414-.034l.51.486.51-.486a1 1 0 0 1 1.38 1.448l-.44.419.44.419a1 1 0 0 1-1.38 1.448l-.51-.486-.51.486a1 1 0 0 1-1.38-1.448l.44-.42-.44-.418a1 1 0 0 1-.034-1.414m-3.8 4.715a1 1 0 0 1 1.414-.035l.51.486.51-.486a1 1 0 1 1 1.38 1.448l-.44.42.44.418a1 1 0 0 1-1.38 1.448l-.51-.486-.51.486a1 1 0 1 1-1.38-1.448l.44-.419-.44-.419a1 1 0 0 1-.034-1.413m7.6 0a1 1 0 0 1 1.414-.035l.51.486.51-.486a1 1 0 0 1 1.38 1.448l-.44.42.44.418a1 1 0 0 1-1.38 1.448l-.51-.486-.51.486a1 1 0 0 1-1.38-1.448l.44-.419-.44-.419a1 1 0 0 1-.034-1.413" clip-rule="evenodd"/></svg>