<svg xmlns="http://www.w3.org/2000/svg" fill="none" viewBox="0 0 24 24"><path fill="currentColor" fill-rule="evenodd" d="M6.485 1.24a1 1 0 0 1 .925-.202 5.03 5.03 0 0 1 2.992 2.35q.268.473.428.971.57-.108 1.17-.109a6.25 6.25 0 0 1 6.247 6.053 5.251 5.251 0 0 1 1.002 10.149 3.67 3.67 0 0 0-1.047-2.49l-.061-.06-1.093-1.036a2.24 2.24 0 0 0-1.506-.616q.157-.45.196-.92a3.67 3.67 0 0 0-1.097-2.927l-1.093-1.037a2.25 2.25 0 0 0-3.096 0L9.36 12.404l-.061.06a3.67 3.67 0 0 0-.84 3.787 2.24 2.24 0 0 0-1.506.616L5.86 17.903l-.061.06a3.67 3.67 0 0 0-1.04 2.333 5.752 5.752 0 0 1-1.16-9.931 5.03 5.03 0 0 1-1.925-1.908 5.1 5.1 0 0 1-.519-3.779 1 1 0 0 1 1.577-.551c.666.508 1.59.593 2.354.147a2.18 2.18 0 0 0 1.058-2.152 1 1 0 0 1 .342-.882m-.553 7.758A6.26 6.26 0 0 1 8.95 5.044a3.1 3.1 0 0 0-.958-1.478 4.15 4.15 0 0 1-1.898 2.436 4.1 4.1 0 0 1-3.05.444c.06.349.18.694.367 1.019a3.03 3.03 0 0 0 2.522 1.533m5.552 3.458a.75.75 0 0 1 1.032 0l1.093 1.036.02.02a2.167 2.167 0 0 1-.042 3.078c-.413.4-.968.66-1.587.66-.62 0-1.174-.26-1.587-.66a2.167 2.167 0 0 1-.022-3.098zm-3.5 5.5a.75.75 0 0 1 1.032 0l1.093 1.036.02.02a2.167 2.167 0 0 1-.042 3.078c-.413.4-.968.66-1.587.66-.62 0-1.174-.26-1.587-.66a2.167 2.167 0 0 1-.022-3.098zm7 0a.75.75 0 0 1 1.032 0l1.093 1.036.02.02a2.167 2.167 0 0 1-.042 3.078c-.413.4-.968.66-1.587.66-.62 0-1.174-.26-1.587-.66a2.167 2.167 0 0 1-.022-3.098z" clip-rule="evenodd"/></svg>