<svg xmlns="http://www.w3.org/2000/svg" fill="none" viewBox="0 0 24 24"><path fill="currentColor" fill-rule="evenodd" d="M6.485 1.24a1 1 0 0 1 .925-.202 5.03 5.03 0 0 1 2.992 2.35q.268.473.428.971.57-.108 1.17-.109a6.25 6.25 0 0 1 6.247 6.053A5.251 5.251 0 0 1 17.5 20.75h-.922c.114-.411.172-.832.172-1.247 0-.821-.28-1.526-.551-2.034a8 8 0 0 0-.954-1.373c-.511-.604-1.088-1.15-1.448-1.492l-.016-.015-.216-.205a2.25 2.25 0 0 0-3.13 0l-.216.205-.015.015c-.361.342-.938.888-1.449 1.492-.324.383-.675.85-.954 1.373-.27.508-.551 1.213-.551 2.034 0 .415.059.836.172 1.247H7a5.75 5.75 0 0 1-3.403-10.385 5.03 5.03 0 0 1-1.924-1.908 5.1 5.1 0 0 1-.519-3.779 1 1 0 0 1 1.577-.551c.666.508 1.59.593 2.354.147a2.18 2.18 0 0 0 1.058-2.152 1 1 0 0 1 .342-.882m-.553 7.758a6.26 6.26 0 0 1 3.017-3.954 3.1 3.1 0 0 0-.958-1.478 4.15 4.15 0 0 1-1.898 2.436 4.1 4.1 0 0 1-3.05.444c.06.349.18.694.367 1.019a3.03 3.03 0 0 0 2.522 1.533m5.319 6.68.227-.217a.75.75 0 0 1 1.044 0l.226.216.001.001c.366.347.893.846 1.35 1.387.286.337.566.714.776 1.11.208.39.375.845.375 1.328 0 1.582-1.222 3.247-3.25 3.247s-3.25-1.665-3.25-3.247c0-.483.167-.939.375-1.329.21-.395.49-.772.775-1.109.458-.54.985-1.04 1.35-1.387" clip-rule="evenodd"/></svg>