<svg xmlns="http://www.w3.org/2000/svg" fill="none" viewBox="0 0 24 24"><path fill="currentColor" fill-rule="evenodd" d="M12.53 1.47a.75.75 0 0 0-1.06 0c-.308.307-.712.582-1.194.872q-.218.13-.461.272c-.345.2-.715.416-1.046.637-1.004.669-2.022 1.615-2.019 3.247a3.6 3.6 0 0 0 .421 1.752H7A1.75 1.75 0 0 0 5.25 10v1.25H5A1.75 1.75 0 0 0 3.25 13v9c0 .414.336.75.75.75h4.75v-3.747c-.01-1.736.723-2.92 1.464-3.659a5.3 5.3 0 0 1 1.352-.97c.04-.02.115-.052.148-.067l.008-.003h.001l.277-.11.277.11.01.003c.033.015.108.048.147.067a4 4 0 0 1 .343.185c.277.165.643.42 1.009.785.741.739 1.473 1.923 1.464 3.659v3.747H20a.75.75 0 0 0 .75-.75v-9A1.75 1.75 0 0 0 19 11.25h-.25V10A1.75 1.75 0 0 0 17 8.25h-.171c.254-.5.426-1.039.421-1.752.004-1.632-1.015-2.579-2.019-3.247-.33-.22-.7-.436-1.046-.637-.16-.094-.317-.185-.46-.272-.483-.29-.887-.565-1.195-.872M8.492 9.75H7a.25.25 0 0 0-.25.25v1.25h10.5V10a.25.25 0 0 0-.25-.25zm5.258 13v-3.754c.007-1.263-.51-2.079-1.023-2.59a3.8 3.8 0 0 0-.718-.558L12 15.842l-.009.006a3.8 3.8 0 0 0-.718.559c-.513.51-1.03 1.326-1.023 2.589v3.754z" clip-rule="evenodd"/></svg>