<svg xmlns="http://www.w3.org/2000/svg" fill="none" viewBox="0 0 24 24"><path fill="currentColor" fill-rule="evenodd" d="M6 1.25a.75.75 0 0 1 .75.75v.5c0 .138.112.25.25.25h4c.966 0 1.75.784 1.75 1.75v.773c2.388.163 4.036 1.118 5.073 2.66 1.1 1.64 1.427 3.824 1.427 6.066s-.326 4.426-1.427 6.065c-1.142 1.698-3.026 2.685-5.823 2.685s-4.681-.987-5.823-2.685c-1.1-1.64-1.427-3.823-1.427-6.065s.326-4.427 1.427-6.066c1.037-1.542 2.685-2.497 5.073-2.66V4.5a.25.25 0 0 0-.25-.25H7A1.75 1.75 0 0 1 5.25 2.5V2A.75.75 0 0 1 6 1.25m5.25 4.025v2.991A1.75 1.75 0 0 0 9.75 10v2c0 .966.784 1.75 1.75 1.75h1A1.75 1.75 0 0 0 14.25 12v-2a1.75 1.75 0 0 0-1.5-1.733V5.275a11 11 0 0 0-1.5 0m.25 4.474a.25.25 0 0 0-.25.25v2c0 .138.112.25.25.25h1a.25.25 0 0 0 .25-.25v-2a.25.25 0 0 0-.25-.25z" clip-rule="evenodd"/></svg>