<svg xmlns="http://www.w3.org/2000/svg" fill="none" viewBox="0 0 24 24"><path fill="currentColor" fill-rule="evenodd" d="M8.88 1.385c.986-.076 2.079-.135 3.12-.135s2.134.059 3.12.135c2.422.188 4.376 2.005 4.697 4.424.226 1.707.433 3.894.433 6.191 0 2.388-.224 4.657-.46 6.391-.314 2.301-2.128 4.073-4.468 4.242-.941.068-2.058.117-3.322.117a46 46 0 0 1-3.322-.117c-2.34-.169-4.154-1.941-4.468-4.242-.236-1.734-.46-4.003-.46-6.391 0-2.297.207-4.484.433-6.19.32-2.42 2.275-4.237 4.697-4.425M12 2.75c-.99 0-2.04.056-3.004.13-1.727.135-3.1 1.42-3.326 3.127a49 49 0 0 0-.38 4.243h13.42a49 49 0 0 0-.38-4.243c-.226-1.707-1.6-2.992-3.326-3.127A40 40 0 0 0 12 2.75m1 2.75a1 1 0 1 0-2 0v2a1 1 0 1 0 2 0z" clip-rule="evenodd"/></svg>