<svg xmlns="http://www.w3.org/2000/svg" fill="none" viewBox="0 0 24 24"><path fill="currentColor" fill-rule="evenodd" d="M5 1.25a.75.75 0 0 1 .75.75v.5c0 .138.112.25.25.25h6c.966 0 1.75.783 1.75 1.75v.758c.598.015 1.2.046 1.766.085 2.263.154 4.118 1.843 4.42 4.132a35 35 0 0 1 .314 4.523c0 1.726-.157 3.373-.338 4.698-.298 2.185-2.031 3.835-4.227 3.97a44 44 0 0 1-5.37 0c-2.196-.135-3.93-1.785-4.227-3.97a35 35 0 0 1-.338-4.698c0-1.65.144-3.23.314-4.523.302-2.289 2.157-3.978 4.42-4.132a42 42 0 0 1 1.766-.085V4.5a.25.25 0 0 0-.25-.25H6A1.75 1.75 0 0 1 4.25 2.5V2A.75.75 0 0 1 5 1.25m7.25 4.01v3.006a1.75 1.75 0 0 0-1.5 1.732v2c0 .966.784 1.75 1.75 1.75h1a1.75 1.75 0 0 0 1.75-1.75v-2a1.75 1.75 0 0 0-1.5-1.732V5.26a30 30 0 0 0-1.5 0m1.25 4.488h-1a.25.25 0 0 0-.25.25v2c0 .138.112.25.25.25h1a.25.25 0 0 0 .25-.25v-2a.25.25 0 0 0-.25-.25" clip-rule="evenodd"/></svg>