<svg xmlns="http://www.w3.org/2000/svg" fill="none" viewBox="0 0 24 24"><path fill="currentColor" fill-rule="evenodd" d="M13.865 3.522a1.75 1.75 0 0 1 2.374-.699l3.78 2.062a.25.25 0 0 0 .334-.09l1.006-1.678a.75.75 0 0 1 1.286.772L21.64 5.566a1.75 1.75 0 0 1-2.339.636L15.52 4.14a.25.25 0 0 0-.338.1l-.474.868c.639.375 1.28.783 1.868 1.173 1.904 1.263 2.7 3.647 1.813 5.778a34 34 0 0 1-1.993 4.047 34.5 34.5 0 0 1-2.654 3.868 4.605 4.605 0 0 1-5.695 1.29 45 45 0 0 1-2.402-1.28 45 45 0 0 1-2.322-1.419A4.515 4.515 0 0 1 1.6 13.023a34 34 0 0 1 2.06-4.21 34 34 0 0 1 2.545-3.729c1.418-1.82 3.893-2.329 5.946-1.33.404.196.825.406 1.244.626l-1.849 3.39a1.75 1.75 0 0 0-2.201.745l-1.008 1.763a1.75 1.75 0 0 0 .62 2.369l.784.47a1.75 1.75 0 0 0 2.42-.632l1.007-1.763a1.75 1.75 0 0 0-.342-2.164l1.88-3.448a29 29 0 0 0-1.31-.726zm-2.873 5.646a.25.25 0 0 0-.346.09L9.64 11.023a.25.25 0 0 0 .088.338l.785.471a.25.25 0 0 0 .345-.09l1.008-1.763a.25.25 0 0 0-.088-.339z" clip-rule="evenodd"/></svg>