<svg xmlns="http://www.w3.org/2000/svg" fill="none" viewBox="0 0 24 24"><path fill="currentColor" fill-rule="evenodd" d="M6.75 2a.75.75 0 0 0-1.5 0v.5c0 .966.784 1.75 1.75 1.75h4a.25.25 0 0 1 .25.25v.775c-2.388.163-4.036 1.118-5.073 2.66C5.077 9.574 4.75 11.758 4.75 14s.326 4.426 1.427 6.065C7.32 21.764 9.203 22.75 12 22.75s4.681-.986 5.823-2.685c1.1-1.639 1.427-3.823 1.427-6.065s-.326-4.426-1.427-6.065c-1.037-1.542-2.685-2.497-5.073-2.66V4.5A1.75 1.75 0 0 0 11 2.75H7a.25.25 0 0 1-.25-.25zM12 7.5a1 1 0 0 1 1 1v2a1 1 0 1 1-2 0v-2a1 1 0 0 1 1-1" clip-rule="evenodd"/></svg>