<svg xmlns="http://www.w3.org/2000/svg" fill="none" viewBox="0 0 24 24"><path fill="currentColor" fill-rule="evenodd" d="M14.852 1.113a2 2 0 0 1 .315.038A4.5 4.5 0 0 0 13.44 3.06a40 40 0 0 0-.939-.043V10h5.449l-.021-.52a4.5 4.5 0 0 0 1.974-.674l.047 1.15c.032.663.051 1.348.051 2.044 0 2.403-.225 4.684-.462 6.425-.33 2.414-2.236 4.28-4.699 4.457-.946.069-2.069.118-3.339.118s-2.394-.05-3.34-.118c-2.462-.177-4.368-2.043-4.698-4.457C3.225 16.684 3 14.403 3 12c0-2.311.208-4.51.435-6.223.337-2.54 2.388-4.444 4.926-4.641A41 41 0 0 1 11.5 1c.677 0 1.374.025 2.048.062zM10.5 3.017a44 44 0 0 0-1.984.113c-1.612.125-2.888 1.322-3.098 2.91A49 49 0 0 0 5.052 10H10.5zM17.5 2a3 3 0 1 1 0 6 3 3 0 0 1 0-6" clip-rule="evenodd"/></svg>