<svg xmlns="http://www.w3.org/2000/svg" fill="none" viewBox="0 0 24 24"><path fill="currentColor" fill-rule="evenodd" d="M11.25 1.258c-.805.02-1.619.067-2.37.126-2.422.188-4.376 2.004-4.697 4.424-.226 1.706-.433 3.893-.433 6.19 0 2.388.224 4.658.46 6.392.314 2.3 2.128 4.072 4.468 4.241.94.068 2.058.117 3.322.117s2.381-.049 3.322-.117c2.34-.169 4.154-1.94 4.468-4.241.236-1.734.46-4.004.46-6.392 0-2.297-.207-4.484-.433-6.19-.32-2.42-2.275-4.236-4.697-4.424a45 45 0 0 0-2.37-.126v4.008c.848.121 1.5.85 1.5 1.732v2a1.75 1.75 0 0 1-1.5 1.733v1.267a.75.75 0 0 1-1.5 0v-1.267a1.75 1.75 0 0 1-1.5-1.733v-2a1.75 1.75 0 0 1 1.5-1.732zm0 5.74a.25.25 0 0 1 .25-.25h1a.25.25 0 0 1 .25.25v2a.25.25 0 0 1-.25.25h-1a.25.25 0 0 1-.25-.25z" clip-rule="evenodd"/></svg>