<svg xmlns="http://www.w3.org/2000/svg" fill="none" viewBox="0 0 24 24"><path fill="currentColor" fill-rule="evenodd" d="M4.5 11.683c0-.624-.002-1.706.012-2.17a4.7 4.7 0 0 0 1.996.21L6.504 10H12V3.016q-.229.005-.47.013l-.733.021-.463.013a4.77 4.77 0 0 0-1.57-1.924c.372-.045 1.45-.074 2.182-.094.21-.006.39-.01.518-.015C12.105 1.01 12.742 1 13 1c1.05 0 2.15.06 3.14.136 2.537.197 4.588 2.102 4.925 4.64.193 1.46.373 3.269.422 5.199q.013.507.013 1.025c0 2.403-.225 4.684-.462 6.425-.33 2.414-2.236 4.28-4.698 4.457-.946.069-2.07.118-3.34.118s-2.393-.05-3.34-.118c-2.462-.177-4.368-2.043-4.698-4.457C4.725 16.684 4.5 14.403 4.5 12zm9.501-8.666V10h5.449a49 49 0 0 0-.367-3.96c-.21-1.588-1.486-2.785-3.097-2.91A45 45 0 0 0 14 3.017M5.998 1.75A3.25 3.25 0 0 0 2.75 5a3.25 3.25 0 1 0 3.248-3.25" clip-rule="evenodd"/></svg>