<svg xmlns="http://www.w3.org/2000/svg" fill="none" viewBox="0 0 24 24"><path fill="currentColor" fill-rule="evenodd" d="M18.53 1.469a.75.75 0 0 0-1.06 0l-1 1a.75.75 0 0 0 .782 1.238l.001 1.536H15.71a.75.75 0 0 0-1.24-.773l-1 1a.75.75 0 0 0 0 1.06l1 1a.75.75 0 0 0 1.235-.787h1.55v1.551a.75.75 0 0 0-.785 1.236l1 1a.75.75 0 0 0 1.06 0l1-1a.75.75 0 0 0-.775-1.24V6.744h1.54a.75.75 0 0 0 1.237.785l1-1.007a.75.75 0 0 0 0-1.058l-1-1.002a.75.75 0 0 0-1.237.782h-1.542l-.001-1.539a.75.75 0 0 0 .778-1.238zm-9.78.781a2.5 2.5 0 0 0-2.5 2.5v8.374l-.923-.97-.047-.045a2.4 2.4 0 0 0-3.503.337c-.707.91-.702 2.2.01 3.106h.001l4.462 5.704V22c0 .414.336.75.75.75h9a.75.75 0 0 0 .75-.75v-.845L17.681 19c.371-.777.818-1.937.993-3.107.17-1.14.115-2.518-.82-3.46-2.035-2.047-4.74-2.622-6.604-2.685V4.75a2.5 2.5 0 0 0-2.5-2.5" clip-rule="evenodd"/></svg>