<svg xmlns="http://www.w3.org/2000/svg" fill="none" viewBox="0 0 24 24"><path fill="currentColor" fill-rule="evenodd" d="M5 4a1 1 0 0 0 0 2h.009a1 1 0 0 0 0-2zm4 0a1 1 0 0 0 0 2h9a1 1 0 1 0 0-2zm-1 7a1 1 0 0 1 1-1h9a1 1 0 1 1 0 2H9a1 1 0 0 1-1-1m-3-.992a1 1 0 1 0 0 2h.009a1 1 0 1 0 0-2zm-1 7.008a1 1 0 0 1 1-1h.009a1 1 0 1 1 0 2H5a1 1 0 0 1-1-1m11.618-2.94a1 1 0 0 1 1.09.217l2 2.003a1 1 0 0 1-.001 1.414l-2 1.998A1 1 0 0 1 15 19v-.986H9a1 1 0 1 1 0-2h6V15a1 1 0 0 1 .618-.924" clip-rule="evenodd"/></svg>