<svg xmlns="http://www.w3.org/2000/svg" fill="none" viewBox="0 0 24 24"><path fill="currentColor" fill-rule="evenodd" d="M7.71 1.043a1 1 0 0 1 1.122.402c.1.151.173.319.218.429l.096.24.054.138c.102.255.214.507.367.746.284.443.723.87 1.597 1.016a1 1 0 1 1-.328 1.972C10.079 5.86 9.479 5.595 9 5.258V9.5a3.5 3.5 0 1 1-2-3.163V2a1 1 0 0 1 .71-.957m8.606 16.955A2.85 2.85 0 0 1 20 15.272v-2.885l-7 2.334v4.444q.016.164.016.333A3.35 3.35 0 1 1 11 16.424V9a1 1 0 0 1 .684-.949l9-3A1 1 0 0 1 22 6v11.69q.016.152.016.308a2.85 2.85 0 0 1-5.7 0" clip-rule="evenodd"/></svg>