<svg xmlns="http://www.w3.org/2000/svg" fill="none" viewBox="0 0 24 24"><path fill="currentColor" fill-rule="evenodd" d="M7 1a1 1 0 0 1 1 1v.75h3V2a1 1 0 1 1 2 0v.75h3V2a1 1 0 1 1 2 0v.75h.5a2.75 2.75 0 0 1 2.75 2.75V20a2.75 2.75 0 0 1-2.75 2.75h-13A2.75 2.75 0 0 1 2.75 20V5.5A2.75 2.75 0 0 1 5.5 2.75H6V2a1 1 0 0 1 1-1M4.25 19v1c0 .69.56 1.25 1.25 1.25h13c.69 0 1.25-.56 1.25-1.25v-1a3.73 3.73 0 0 1-2.25.75h-11A3.73 3.73 0 0 1 4.25 19m3.5-9a.75.75 0 0 1 .75-.75h7a.75.75 0 0 1 0 1.5h-7a.75.75 0 0 1-.75-.75m0 5a.75.75 0 0 1 .75-.75h3a.75.75 0 0 1 0 1.5h-3a.75.75 0 0 1-.75-.75" clip-rule="evenodd"/></svg>