<svg xmlns="http://www.w3.org/2000/svg" fill="none" viewBox="0 0 24 24"><path fill="currentColor" fill-rule="evenodd" d="M9.393 2.164c.78-.54 1.67-.914 2.607-.914s1.827.373 2.607.914c.783.542 1.498 1.282 2.1 2.092 1.185 1.596 2.043 3.618 2.043 5.213 0 1.672-.93 3.119-2.192 4.119l-.012.01-.013.01-.232.167a6 6 0 0 1-.565-.893A2.5 2.5 0 0 0 12 12a2.5 2.5 0 0 0-3.736.882 6 6 0 0 1-.565.892l-.23-.166-.027-.02c-1.263-1-2.192-2.447-2.192-4.119 0-1.595.858-3.617 2.043-5.213.602-.81 1.317-1.55 2.1-2.092M14.003 8a1 1 0 1 0 0 2h.01a1 1 0 1 0 0-2zm-5 1a1 1 0 0 1 1-1h.01a1 1 0 1 1 0 2h-.01a1 1 0 0 1-1-1M4.46 12C2.448 12 1 13.787 1 15.75c0 .975.319 1.931 1.027 2.648.714.722 1.727 1.102 2.925 1.102 1.353 0 2.723-.823 3.79-1.742q.414-.357.799-.758a4.8 4.8 0 0 1-.359 1.232c-.44.978-1.27 1.853-2.775 2.963a1 1 0 1 0 1.186 1.61c1.595-1.176 2.758-2.3 3.412-3.75.658-1.457.739-3.1.488-5.175a1 1 0 0 0-1.887-.327c-.433.865-1.239 1.888-2.17 2.69-.964.83-1.868 1.257-2.484 1.257-.77 0-1.233-.235-1.503-.509C3.173 16.713 3 16.294 3 15.75 3 14.676 3.756 14 4.46 14a1 1 0 1 0 0-2m15.08 0a1 1 0 1 0 0 2c.704 0 1.46.676 1.46 1.75 0 .544-.174.963-.45 1.241-.27.274-.733.509-1.503.509-.615 0-1.52-.427-2.484-1.258-.93-.8-1.736-1.824-2.169-2.69a1 1 0 0 0-1.887.328c-.25 2.075-.17 3.718.488 5.174.654 1.45 1.817 2.575 3.412 3.75a1 1 0 1 0 1.186-1.609c-1.505-1.11-2.334-1.985-2.775-2.963a4.8 4.8 0 0 1-.36-1.232q.387.4.8.758c1.067.919 2.437 1.742 3.79 1.742 1.198 0 2.211-.38 2.925-1.102C22.68 17.68 23 16.725 23 15.75c0-1.963-1.448-3.75-3.46-3.75" clip-rule="evenodd"/></svg>