<svg xmlns="http://www.w3.org/2000/svg" fill="none" viewBox="0 0 24 24"><path fill="currentColor" fill-rule="evenodd" d="M9.28 10.75a1.75 1.75 0 0 1-1.7-1.326L6.392 4.667A2.75 2.75 0 0 1 9.06 1.25h5.877a2.75 2.75 0 0 1 2.668 3.417l-1.19 4.757a1.75 1.75 0 0 1-1.697 1.326H13v1.049a10.4 10.4 0 0 1 3.147.822 2.65 2.65 0 0 1 1.296 1.229q.113-.072.225-.182c.235-.234.332-.493.332-.668v-1.382a2 2 0 0 1 1.106-1.789l1.447-.723a1 1 0 1 1 .894 1.789L20 11.618V13c0 .825-.402 1.567-.918 2.082a3.2 3.2 0 0 1-1.332.808V16a.75.75 0 0 1-.75.75h-4v2.339c1.47.264 2.764 1.098 3.76 2.26a1 1 0 1 1-1.52 1.302c-.654-.765-1.422-1.28-2.24-1.511V22a1 1 0 1 1-2 0v-.86c-.817.232-1.586.746-2.24 1.51a1 1 0 1 1-1.52-1.3c.996-1.163 2.29-1.997 3.76-2.261V16.75H7a.75.75 0 0 1-.75-.75v-.11a3.2 3.2 0 0 1-1.332-.808C4.403 14.567 4 13.825 4 13v-1.382l-1.447-.723a1 1 0 0 1 .894-1.79l1.448.724A2 2 0 0 1 6 11.62V13c0 .175.098.434.332.668q.112.11.225.182a2.66 2.66 0 0 1 1.296-1.23A10.4 10.4 0 0 1 11 11.8v-1.05z" clip-rule="evenodd"/></svg>