<svg xmlns="http://www.w3.org/2000/svg" fill="none" viewBox="0 0 24 24"><path fill="currentColor" fill-rule="evenodd" d="M11.604 1.334a.98.98 0 0 1 .792 0l8.775 3.9q.134.06.24.153a.75.75 0 0 1 .339.627v5.75c-.49.054-.965.27-1.341.645l-.909.909-.909-.909a2.25 2.25 0 1 0-3.182 3.182l.909.909-.909.909a2.25 2.25 0 0 0 .619 3.62L12.3 22.686a.75.75 0 0 1-.61 0l-8.996-4A.75.75 0 0 1 2.25 18V6a.75.75 0 0 1 .405-.666 1 1 0 0 1 .174-.1zM5.626 6.125l1.815.807 6.374-2.833L12 3.292zM12 8.958l-2.097-.932 6.374-2.833 2.097.932zm-6.696 1.764a.75.75 0 0 1 .975-.418l2.5 1a.75.75 0 0 1-.557 1.393l-2.5-1a.75.75 0 0 1-.418-.975m12.403 2.57a1 1 0 0 0-1.414 1.415l1.793 1.793-1.793 1.793a1 1 0 0 0 1.414 1.414l1.793-1.793 1.793 1.793a1 1 0 0 0 1.414-1.414L20.914 16.5l1.793-1.793a1 1 0 0 0-1.414-1.414L19.5 15.086z" clip-rule="evenodd"/></svg>