<svg xmlns="http://www.w3.org/2000/svg" fill="none" viewBox="0 0 24 24"><path fill="currentColor" fill-rule="evenodd" d="M9.7 2H6.75c-.87 0-1.68.41-2.2 1.1l-2 2.67c-.06.07-.11.15-.16.23h6.23zm4.05 9.5h-3c-.41 0-.75-.34-.75-.75v-4c0-.06.01-.12.02-.18L11.25 2h2l1.23 4.57c.02.06.02.12.02.18v4c0 .41-.34.75-.75.75M22.11 6h-6.24L14.8 2h2.95c.87 0 1.68.41 2.2 1.1l2 2.67c.06.07.11.15.16.23M16 10.75V7.5h6.5v12.25c0 1.52-1.23 2.75-2.75 2.75h-15C3.23 22.5 2 21.27 2 19.75V7.5h6.5v3.25c0 1.24 1.01 2.25 2.25 2.25h3c1.24 0 2.25-1.01 2.25-2.25m-5.25 9c.55 0 1-.45 1-1v-2c0-.55-.45-1-1-1h-5c-.55 0-1 .45-1 1v2c0 .55.45 1 1 1z" clip-rule="evenodd"/></svg>