<svg xmlns="http://www.w3.org/2000/svg" fill="none" viewBox="0 0 24 24"><path fill="currentColor" fill-rule="evenodd" d="M4.675 3.838a2.006 2.006 0 1 0-2.837 2.837l2.487 2.487a2.01 2.01 0 0 0 2.205.428l1.72 1.72V12c0 2.679 2.334 4.75 5.083 4.75h4.334c2.75 0 5.083-2.072 5.083-4.75v-1a.75.75 0 0 0-.75-.75H9.31L7.59 8.53a2.01 2.01 0 0 0-.428-2.205zM11.5 17.75a.75.75 0 0 1 .75.75v.75h2.5v-.75a.75.75 0 0 1 1.5 0v.75h2.5v-.75a.75.75 0 0 1 1.5 0v.75H22a.75.75 0 0 1 0 1.5H9a.75.75 0 0 1 0-1.5h1.75v-.75a.75.75 0 0 1 .75-.75m.75-13.25a.75.75 0 0 0-1.5 0v3a.75.75 0 0 0 1.5 0zm3.25-.75a.75.75 0 0 1 .75.75v3a.75.75 0 0 1-1.5 0v-3a.75.75 0 0 1 .75-.75m4.75.75a.75.75 0 0 0-1.5 0v3a.75.75 0 0 0 1.5 0z" clip-rule="evenodd"/></svg>