<svg xmlns="http://www.w3.org/2000/svg" fill="none" viewBox="0 0 24 24"><path fill="currentColor" fill-rule="evenodd" d="M3.183 4.15c0-.534.433-.967.967-.967h.483a.967.967 0 1 0 0-1.933H4.15a2.9 2.9 0 0 0-2.9 2.9v.483a.967.967 0 1 0 1.933 0zm4.35-2.9a.967.967 0 0 0 0 1.933h1.934a.967.967 0 0 0 0-1.933zm4.834 0a.967.967 0 1 0 0 1.933h.483c.534 0 .967.433.967.967v.967a.967.967 0 1 0 1.933 0V4.15a2.9 2.9 0 0 0-2.9-2.9zM3.183 7.533a.967.967 0 0 0-1.933 0v1.934a.967.967 0 0 0 1.933 0zm0 4.834a.967.967 0 1 0-1.933 0v.483a2.9 2.9 0 0 0 2.9 2.9H5.6a.967.967 0 0 0 0-1.933H4.15a.967.967 0 0 1-.967-.967zM8.25 11A2.75 2.75 0 0 1 11 8.25h4a.75.75 0 0 1 .75.75v3.999a2.75 2.75 0 0 1-2.75 2.75l-4 .001a.75.75 0 0 1-.75-.75zm9.183-1.783c0-.534.433-.967.967-.967h1.45a2.9 2.9 0 0 1 2.9 2.9v.483a.967.967 0 1 1-1.933 0v-.483a.967.967 0 0 0-.967-.967H18.4a.967.967 0 0 1-.967-.966m4.35 4.35c.534 0 .967.432.967.966v1.934a.967.967 0 0 1-1.933 0v-1.934c0-.534.433-.966.966-.966m-12.566 4.35c.534 0 .966.432.966.966v.967c0 .534.433.967.967.967h.483a.967.967 0 1 1 0 1.933h-.483a2.9 2.9 0 0 1-2.9-2.9v-.967c0-.534.433-.966.967-.966m12.566.483c.534 0 .967.433.967.967v.483a2.9 2.9 0 0 1-2.9 2.9h-.483a.967.967 0 1 1 0-1.933h.483a.967.967 0 0 0 .967-.967v-.483c0-.534.433-.967.966-.967m-8.216 3.383c0-.534.432-.966.966-.966h1.934a.967.967 0 0 1 0 1.933h-1.934a.967.967 0 0 1-.966-.967" clip-rule="evenodd"/></svg>