<svg xmlns="http://www.w3.org/2000/svg" fill="none" viewBox="0 0 24 24"><path fill="currentColor" fill-rule="evenodd" d="M3.205 4.182c0-.54.437-.977.977-.977h8.795c.54 0 .977.437.977.977v2.443a.977.977 0 0 0 1.955 0V4.182a2.93 2.93 0 0 0-2.932-2.932H4.182A2.93 2.93 0 0 0 1.25 4.182v8.795a2.93 2.93 0 0 0 2.932 2.932h2.443a.977.977 0 1 0 0-1.955H4.182a.977.977 0 0 1-.977-.977zm14.17 3.909a.977.977 0 0 0 0 1.955h2.443c.54 0 .977.437.977.977v8.795c0 .54-.437.977-.977.977h-8.795a.977.977 0 0 1-.977-.977v-2.443a.977.977 0 0 0-1.955 0v2.443a2.93 2.93 0 0 0 2.932 2.932h8.795a2.93 2.93 0 0 0 2.932-2.932v-8.795a2.93 2.93 0 0 0-2.932-2.932zm-7.25 2.972c0-.518.42-.938.938-.938h1.874a.937.937 0 1 0 0-1.875h-1.874a2.813 2.813 0 0 0-2.813 2.813v1.874a.937.937 0 1 0 1.875 0zm5.625 0a.937.937 0 1 0-1.875 0v1.874c0 .518-.42.938-.937.938h-1.876a.937.937 0 1 0 0 1.875h1.876a2.813 2.813 0 0 0 2.812-2.812z" clip-rule="evenodd"/></svg>