<svg xmlns="http://www.w3.org/2000/svg" fill="none" viewBox="0 0 24 24"><path fill="currentColor" fill-rule="evenodd" d="M3.141 19.352 6.936 2.344a.5.5 0 0 1 .498-.39l6.82.125c.593.011 1.19.061 1.747.26 1.946.696 3.467 2.295 3.05 5.004-.325 1.337-1.162 3.828-4.296 5.233-.593.265-1.248.355-1.898.355H9.524l-1.437 6.635a.5.5 0 0 1-.488.395h-3.97a.5.5 0 0 1-.488-.61m3.632 2.415.077-.306h.747a2 2 0 0 0 1.954-1.577l1.18-5.453h2.124c.777 0 1.66-.105 2.512-.486 3.75-1.682 4.768-4.717 5.14-6.247q.013-.055.022-.112c1.228 1.394 1.57 3.581.833 5.437-.929 2.34-3.462 4.064-7.742 3.742l-1.326 5.365a.75.75 0 0 1-.728.57H7.5a.75.75 0 0 1-.727-.933" clip-rule="evenodd"/></svg>