<svg xmlns="http://www.w3.org/2000/svg" fill="none" viewBox="0 0 24 24"><path fill="currentColor" fill-rule="evenodd" d="M3 1.25A1.75 1.75 0 0 0 1.25 3v4c0 .966.784 1.75 1.75 1.75h2.25v1H4.5a.75.75 0 0 0 0 1.5h3a.75.75 0 0 0 0-1.5h-.75v-1H9A1.75 1.75 0 0 0 10.75 7V3A1.75 1.75 0 0 0 9 1.25zm10.5 3a.75.75 0 0 0 0 1.5H17c.69 0 1.25.56 1.25 1.25v1.69l-.72-.72a.75.75 0 1 0-1.06 1.06l1.396 1.397a1.104 1.104 0 0 0 1.884-.78V7A2.75 2.75 0 0 0 17 4.25zM6.47 16.03l-.72-.72V17c0 .69.56 1.25 1.25 1.25h3.5a.75.75 0 1 1 0 1.5H7A2.75 2.75 0 0 1 4.25 17v-2.646a1.104 1.104 0 0 1 1.884-.78L7.53 14.97a.75.75 0 1 1-1.06 1.06m6.78-1.53c0-.966.784-1.75 1.75-1.75h6c.966 0 1.75.784 1.75 1.75v4A1.75 1.75 0 0 1 21 20.25h-2.25v1h.75a.75.75 0 0 1 0 1.5h-3a.75.75 0 0 1 0-1.5h.75v-1H15a1.75 1.75 0 0 1-1.75-1.75z" clip-rule="evenodd"/></svg>