<svg xmlns="http://www.w3.org/2000/svg" fill="none" viewBox="0 0 24 24"><path fill="currentColor" fill-rule="evenodd" d="M12 1a1 1 0 0 1 1 1v3.11l-1.998.266v5.621H3.75V8.748a2.75 2.75 0 0 1 2.387-2.725L11 5.374V2a1 1 0 0 1 1-1m8.251 12H22a1 1 0 1 0 0-2h-1.75v1.997h-7.248v5.89l4.136.552a2.75 2.75 0 0 0 3.113-2.726zM13 18.89l-2-.267V22a1 1 0 1 0 2 0zM2 11h1.748v2H2a1 1 0 1 1 0-2m18.251-3.718v3.715h-7.249v-5.89l4.136-.551a2.75 2.75 0 0 1 3.113 2.726M3.75 15.246v-2.249h7.252v5.624l-4.865-.649a2.75 2.75 0 0 1-2.387-2.726" clip-rule="evenodd"/></svg>