<svg xmlns="http://www.w3.org/2000/svg" fill="none" viewBox="0 0 24 24"><path fill="currentColor" fill-rule="evenodd" d="M22 2a1 1 0 1 0-2 0c0 .383-.185.735-.555 1.022-.38.295-.913.478-1.445.478H7.531a5.566 5.566 0 0 0-5.523 4.876 1 1 0 1 0 1.984.248A3.566 3.566 0 0 1 7.532 5.5h1.445a252 252 0 0 1-.275 5.177c-.135 2.047-.298 3.819-.477 4.6-.19.828-.45 1.537-.82 2.023-.335.44-.755.7-1.405.7a1 1 0 1 0 0 2c1.35 0 2.33-.615 2.995-1.488.63-.826.97-1.867 1.18-2.79.221-.968.391-2.914.523-4.914.121-1.841.215-3.814.281-5.308h4.443l-.915 12.2v.009c-.12 1.814 1.359 3.291 3.15 3.291 1.519 0 2.854-1.067 3.113-2.577l.216-1.253a1 1 0 0 0-1.971-.34l-.216 1.254c-.087.506-.552.916-1.142.916-.699 0-1.192-.56-1.155-1.155L17.428 5.5H18c.954 0 1.922-.317 2.67-.897C21.43 4.015 22 3.117 22 2" clip-rule="evenodd"/></svg>