<svg xmlns="http://www.w3.org/2000/svg" fill="none" viewBox="0 0 24 24"><path fill="currentColor" fill-rule="evenodd" d="M12 1.25a4.75 4.75 0 0 0-1 9.395V17a1 1 0 1 0 2 0v-6.355a4.752 4.752 0 0 0-1-9.395M5.892 15.549a1 1 0 0 1-.44 1.343C4.266 17.493 4 18.045 4 18.316c0 .154.072.395.403.716.333.323.869.66 1.612.964C7.496 20.602 9.612 21 12 21s4.504-.398 5.985-1.004c.743-.304 1.279-.641 1.612-.964.331-.32.403-.562.403-.716 0-.271-.267-.824-1.451-1.424a1 1 0 0 1 .902-1.784c1.317.666 2.549 1.725 2.549 3.208 0 .864-.432 1.591-1.012 2.153-.577.558-1.36 1.015-2.245 1.378C16.967 22.574 14.583 23 12 23c-2.582 0-4.967-.426-6.743-1.153-.885-.363-1.668-.82-2.245-1.378C2.432 19.907 2 19.179 2 18.316c0-1.483 1.232-2.542 2.549-3.208a1 1 0 0 1 1.343.44" clip-rule="evenodd"/></svg>