<svg xmlns="http://www.w3.org/2000/svg" fill="none" viewBox="0 0 24 24"><path fill="currentColor" fill-rule="evenodd" d="M1.25 4A2.75 2.75 0 0 1 4 1.25h12A2.75 2.75 0 0 1 18.75 4v1H20a3 3 0 0 1 3 3v12a3 3 0 0 1-3 3H8a3 3 0 0 1-3-3v-1.25H4A2.75 2.75 0 0 1 1.25 16zM7 18.75V20a1 1 0 0 0 1 1h12a1 1 0 0 0 1-1V8a1 1 0 0 0-1-1h-1.25v9A2.75 2.75 0 0 1 16 18.75zm4.894-13.197.006.012.028.054c.026.048.064.12.114.207.1.177.24.414.408.66.17.248.353.487.535.676.194.202.327.285.385.309a1 1 0 1 1-.742 1.857A2.7 2.7 0 0 1 12 8.962V12a3 3 0 1 1-2-2.83V6a1 1 0 0 1 1.894-.447M10 12a1 1 0 1 0-2 0 1 1 0 0 0 2 0" clip-rule="evenodd"/></svg>