<svg xmlns="http://www.w3.org/2000/svg" fill="none" viewBox="0 0 24 24"><path fill="currentColor" fill-rule="evenodd" d="M13.413 1.374A.75.75 0 0 1 13.75 2v4.256l6.696 3.327a1 1 0 0 1 .555.895v10.51h1a1 1 0 0 1 0 2h-1.85a1 1 0 0 1-.299.001L2.001 23a1 1 0 1 1-.002-2h1.25V5.829c0-.3.18-.572.457-.69l9-3.83a.75.75 0 0 1 .707.065m.336 19.619L19 20.99v-9.892l-5.25-2.609zm-3.5-11a.75.75 0 0 1-.746.753l-2 .01a.75.75 0 0 1-.007-1.5l2-.01a.75.75 0 0 1 .753.746m0 3.996a.75.75 0 0 1-.746.754l-2 .01a.75.75 0 0 1-.007-1.5l2-.01a.75.75 0 0 1 .753.746m0 3.998a.75.75 0 0 1-.746.754l-2 .01a.75.75 0 1 1-.007-1.5l2-.01a.75.75 0 0 1 .753.746" clip-rule="evenodd"/></svg>