<svg xmlns="http://www.w3.org/2000/svg" fill="none" viewBox="0 0 24 24"><path fill="currentColor" fill-rule="evenodd" d="M6.17 1.25c-1.612-.002-2.92 1.29-2.92 2.885v8.653c0 .531.435.962.972.962h15.556a.98.98 0 0 0 .687-.282.96.96 0 0 0 .285-.68V8.941c0-.255-.103-.5-.285-.68l-6.81-6.723a.98.98 0 0 0-.686-.28zm6.396 1.93 6.24 6.16h-4.74a1.5 1.5 0 0 1-1.5-1.5zm-1.942 12.404A.75.75 0 0 0 9.25 16v6a.75.75 0 0 0 1.5 0v-3.523l2.626 3.94A.75.75 0 0 0 14.75 22v-6a.75.75 0 1 0-1.5 0v3.523zM4 15.25a.75.75 0 0 0-.75.75v6a.75.75 0 0 0 1.5 0v-2.25H6a2.25 2.25 0 0 0 0-4.5zm2 3H4.75v-1.5H6a.75.75 0 1 1 0 1.5m10.5-3a.75.75 0 0 0-.75.75v6c0 .414.336.75.75.75H20a.75.75 0 0 0 .75-.75v-2.5a.75.75 0 0 0-.75-.75h-1a.75.75 0 1 0 0 1.5h.25v1h-2v-4.5h2V17a.75.75 0 0 0 1.5 0v-1a.75.75 0 0 0-.75-.75z" clip-rule="evenodd"/></svg>