<svg xmlns="http://www.w3.org/2000/svg" fill="none" viewBox="0 0 24 24"><path fill="currentColor" fill-rule="evenodd" d="M7.781 3h1.22a1 1 0 1 0 0-2H7.78a2 2 0 0 0-1.94 1.515L5.157 5.25a1.75 1.75 0 0 0-1.673 2.072l1.125 5.998a1.75 1.75 0 0 0 1.72 1.427h2.629l.231 3.003h-.03c-.7 0-1.333.418-1.61 1.061l-.94 2.197a1.25 1.25 0 0 0 1.148 1.742h8.484a1.25 1.25 0 0 0 1.149-1.742l-.942-2.197a1.75 1.75 0 0 0-1.609-1.06h-.03l.23-3.003 2.631.002c.843 0 1.567-.6 1.722-1.428l1.122-6.001a1.75 1.75 0 0 0-1.67-2.071l-.684-2.736A2 2 0 0 0 16.22 1H15a1 1 0 1 0 0 2h1.22l.562 2.25H7.218z" clip-rule="evenodd"/></svg>