<svg xmlns="http://www.w3.org/2000/svg" fill="none" viewBox="0 0 24 24"><path fill="currentColor" fill-rule="evenodd" d="M3.793 1.293a1 1 0 0 1 1.414 1.414l-.793.793H8a1 1 0 0 1 0 2H4.414l.793.793a1 1 0 0 1-1.414 1.414l-2.5-2.5a1 1 0 0 1 0-1.414zm13.688 6.74-.296-.182c-.43-.269-.942-.588-1.465-.803-.681-.281-1.486-.436-2.358-.133-.489.17-.977.513-1.403.87a14 14 0 0 0-1.24 1.2c-.46.498-.851.972-1.085 1.265H3.75a2.5 2.5 0 0 0 0 5h4.998c.063 1.864.638 4.569 2.685 6.603.942.936 2.32.991 3.46.82 1.17-.174 2.33-.62 3.107-.992l2.155-.93H22a.75.75 0 0 0 .75-.75v-9a.75.75 0 0 0-.75-.75h-1.72l-.13-.113a65 65 0 0 0-.818-.69c-.614-.51-1.385-1.131-1.851-1.414" clip-rule="evenodd"/></svg>