<svg xmlns="http://www.w3.org/2000/svg" fill="none" viewBox="0 0 24 24"><path fill="currentColor" fill-rule="evenodd" d="M5 1.25A2.75 2.75 0 0 0 2.25 4v16A2.75 2.75 0 0 0 5 22.75h9.146a2 2 0 0 1-.084-1.245L15.26 17a4.25 4.25 0 0 1 5.49-6.356V4A2.75 2.75 0 0 0 18 1.25zM6.5 6a1 1 0 0 1 1-1h8a1 1 0 1 1 0 2h-8a1 1 0 0 1-1-1m0 5a1 1 0 0 1 1-1H12a1 1 0 1 1 0 2H7.5a1 1 0 0 1-1-1m15 3.25a3 3 0 1 1-6 0 3 3 0 0 1 6 0m-5.219 3.625-1.008 3.94a.75.75 0 0 0 1.006.882l2.221-.889 2.221.889a.75.75 0 0 0 1.01-.863l-.913-4.021a4.23 4.23 0 0 1-2.318.687 4.23 4.23 0 0 1-2.219-.625" clip-rule="evenodd"/></svg>