<svg xmlns="http://www.w3.org/2000/svg" fill="none" viewBox="0 0 24 24"><path fill="currentColor" fill-rule="evenodd" d="M11.615 2.077a1 1 0 0 1 .77 0c4.382 1.826 7.72 4.42 9.296 5.78.881.76 1.319 1.857 1.319 2.961 0 1.382-.67 2.608-1.704 3.37.499.809.77 1.807.69 2.78a3.63 3.63 0 0 1-.832 2.064c-.521.62-1.264 1.073-2.207 1.32-1.37.357-3.307.813-4.829 1.172l-1.408.333a3.05 3.05 0 0 1-1.42 0l-1.408-.333a237 237 0 0 1-4.829-1.173c-.943-.246-1.686-.699-2.208-1.32a3.63 3.63 0 0 1-.831-2.064c-.08-.972.191-1.97.69-2.78A4.18 4.18 0 0 1 1 10.818c0-1.104.438-2.2 1.32-2.96 1.576-1.36 4.913-3.955 9.295-5.781M4.604 14.96c-.395.477-.65 1.189-.597 1.844.03.362.15.68.369.94.217.258.578.514 1.182.672 1.345.35 3.239.797 4.755 1.154.544.128 1.039.245 1.442.342q.245.059.49 0c.403-.097.898-.213 1.442-.341a233 233 0 0 0 4.755-1.155c.604-.158.965-.414 1.182-.672.218-.26.34-.578.369-.94.054-.655-.202-1.367-.596-1.844q-.285.04-.579.04H5.182q-.295 0-.578-.04m7.06-8.63a.75.75 0 0 1 .671 0l2 1a.75.75 0 0 1 .415.67v.007c0 .273 0 .902-.315 1.61-.324.73-.953 1.48-2.1 2.054a.75.75 0 0 1-.67 0c-1.147-.574-1.776-1.324-2.1-2.054-.315-.708-.315-1.337-.315-1.61V8a.75.75 0 0 1 .415-.67z" clip-rule="evenodd"/></svg>