<svg xmlns="http://www.w3.org/2000/svg" fill="none" viewBox="0 0 24 24"><path fill="currentColor" fill-rule="evenodd" d="M12.5 4a4.5 4.5 0 1 0 0 9H15a1 1 0 1 1 0 2h-3.724c-.815 1.776-1.89 3.595-3.256 5h8.854c.038-.002.141-.006.22-.014.16-.015.388-.045.648-.106.533-.124 1.127-.359 1.576-.778a1 1 0 0 1 1.364 1.462c-.8.748-1.77 1.097-2.486 1.264a7 7 0 0 1-1.196.169l-.117.003H5a1 1 0 0 1-.423-1.906C6.37 19.258 7.886 17.299 9.055 15H4a1 1 0 1 1 0-2h3.81A6.5 6.5 0 1 1 19 8.5a1 1 0 1 1-2 0A4.5 4.5 0 0 0 12.5 4" clip-rule="evenodd"/></svg>