<svg xmlns="http://www.w3.org/2000/svg" fill="none" viewBox="0 0 24 24"><path fill="currentColor" fill-rule="evenodd" d="M9.5 1a1 1 0 0 0 0 2h10.66c.541 0 .924.484.823.98-.131.653-.6 1.238-1.248 1.63q.015-.298.015-.61a.75.75 0 0 0-.75-.75h-7.75v3.755a.75.75 0 0 1-1.5 0V4.28a9.24 9.24 0 0 0-6.732 3.78l6.245 4.982a1.8 1.8 0 0 1 1.237-.492h1.7c1.67 0 3.562-.339 5.05-1.495.946-.734 1.68-1.76 2.101-3.132 1.62-.436 3.215-1.676 3.593-3.547C23.299 2.618 21.94 1 20.16 1zM2.23 9.35a9.2 9.2 0 0 0-.98 4.15 9.23 9.23 0 0 0 2.978 6.8l4.836-4.864a1.8 1.8 0 0 1-.356-.918zm8.27 13.4a9.2 9.2 0 0 1-5.082-1.52l5.016-5.045.033-.035h3.611c.208-.998.81-1.88 1.55-2.534.923-.815 2.156-1.366 3.372-1.366a.75.75 0 0 1 .75.75c0 5.052-4.087 9.75-9.25 9.75M13 8a1 1 0 0 1 1-1h.009a1 1 0 1 1 0 2H14a1 1 0 0 1-1-1" clip-rule="evenodd"/></svg>