<svg xmlns="http://www.w3.org/2000/svg" fill="none" viewBox="0 0 24 24"><path fill="currentColor" fill-rule="evenodd" d="M12.25 3.5c0-.69.56-1.25 1.25-1.25h2c.69 0 1.25.56 1.25 1.25v3c0 .69-.56 1.25-1.25 1.25h-2c-.69 0-1.25-.56-1.25-1.25V6H3.5a1 1 0 1 1 0-2h8.75zm-5 7c0-.69.56-1.25 1.25-1.25h2c.69 0 1.25.56 1.25 1.25v.5h8.75a1 1 0 1 1 0 2h-8.75v.5c0 .69-.56 1.25-1.25 1.25h-2c-.69 0-1.25-.56-1.25-1.25zm4.25 5.75c-.69 0-1.25.56-1.25 1.25v.5H3.5a1 1 0 1 0 0 2h6.75v.5c0 .69.56 1.25 1.25 1.25h2c.69 0 1.25-.56 1.25-1.25v-3c0-.69-.56-1.25-1.25-1.25zm10 2.75a1 1 0 0 1-1 1h-4a1 1 0 1 1 0-2h4a1 1 0 0 1 1 1m0-14a1 1 0 0 1-1 1h-2a1 1 0 1 1 0-2h2a1 1 0 0 1 1 1m-16 8a1 1 0 1 0 0-2h-2a1 1 0 1 0 0 2z" clip-rule="evenodd"/></svg>