<svg xmlns="http://www.w3.org/2000/svg" fill="none" viewBox="0 0 24 24"><path fill="currentColor" fill-rule="evenodd" d="M1.75 5A3.75 3.75 0 0 1 5.5 1.25h13A3.75 3.75 0 0 1 22.25 5v9a3.75 3.75 0 0 1-3.75 3.75H13v1.75h.373c.345-.001.784-.003 1.187.18.403.182.69.514.917.775l.06.07.716.817a1 1 0 1 1-1.506 1.317l-.714-.817a6 6 0 0 0-.3-.33l-.003-.003h-.005a6 6 0 0 0-.445-.008H13V22a1 1 0 1 1-2 0v-.5h-.28c-.24 0-.36.001-.445.009h-.005l-.003.003c-.062.06-.142.15-.3.33l-.714.817a1 1 0 1 1-1.506-1.317l.715-.817.061-.07c.226-.26.514-.593.917-.776.403-.182.842-.18 1.187-.179H11v-1.75H5.5A3.75 3.75 0 0 1 1.75 14zm8.53 4.501c-.241-.014-.537.086-.788.415l-.696.915a1 1 0 1 1-1.591-1.212l.696-.915C8.53 7.88 9.45 7.45 10.4 7.504c.946.057 1.811.59 2.357 1.469.223.36.513.502.752.524.235.021.519-.064.769-.36l.96-1.134a1 1 0 0 1 1.526 1.292l-.96 1.134c-.647.765-1.555 1.143-2.475 1.06-.916-.083-1.745-.613-2.272-1.462-.231-.373-.531-.511-.776-.526" clip-rule="evenodd"/></svg>