<svg xmlns="http://www.w3.org/2000/svg" fill="none" viewBox="0 0 24 24"><path fill="currentColor" fill-rule="evenodd" d="M1.75 4.5A2.75 2.75 0 0 1 4.5 1.75h15a2.75 2.75 0 0 1 2.75 2.75v15a2.75 2.75 0 0 1-2.75 2.75h-15a2.75 2.75 0 0 1-2.75-2.75zM6 6a1 1 0 1 0 0 2h1a1 1 0 1 0 0-2zm0 5a1 1 0 1 0 0 2h1a1 1 0 1 0 0-2zm0 5a1 1 0 1 0 0 2h1a1 1 0 1 0 0-2zm4-9a1 1 0 0 1 1-1h7a1 1 0 1 1 0 2h-7a1 1 0 0 1-1-1m0 5a1 1 0 0 1 1-1h7a1 1 0 1 1 0 2h-7a1 1 0 0 1-1-1m0 5a1 1 0 0 1 1-1h7a1 1 0 1 1 0 2h-7a1 1 0 0 1-1-1" clip-rule="evenodd"/></svg>