<svg xmlns="http://www.w3.org/2000/svg" fill="none" viewBox="0 0 24 24"><path fill="currentColor" fill-rule="evenodd" d="M1.25 5A3.75 3.75 0 0 1 5 1.25h13A3.75 3.75 0 0 1 21.75 5v1.25H1.25zm0 2.75h20.5v5.38a6.1 6.1 0 0 0-8.62 8.62H5A3.75 3.75 0 0 1 1.25 18zm4 3.25a.75.75 0 0 1 .75-.75h1a.75.75 0 0 1 0 1.5H6a.75.75 0 0 1-.75-.75m4 0a.75.75 0 0 1 .75-.75h2.256a.75.75 0 0 1 0 1.5H10a.75.75 0 0 1-.75-.75m-4 4a.75.75 0 0 1 .75-.75h1a.75.75 0 0 1 0 1.5H6a.75.75 0 0 1-.75-.75m12.35-2a4.6 4.6 0 1 0 2.47 8.482l1.222 1.224a1 1 0 1 0 1.416-1.412l-1.225-1.227A4.6 4.6 0 0 0 17.6 13M15 17.6a2.6 2.6 0 1 1 5.2 0 2.6 2.6 0 0 1-5.2 0" clip-rule="evenodd"/></svg>