<svg xmlns="http://www.w3.org/2000/svg" fill="none" viewBox="0 0 24 24"><path fill="currentColor" fill-rule="evenodd" d="M13.686 1.551c.314-.165.68-.301 1.07-.301.475 0 .884.148 1.205.42.307.261.485.594.59.891.2.561.2 1.168.199 1.42V4a.75.75 0 0 1-1.5 0c0-.263-.006-.638-.112-.936a.6.6 0 0 0-.148-.25c-.03-.025-.087-.064-.233-.064-.05 0-.166.02-.373.129a5 5 0 0 0-.716.49q-.185.147-.378.314l.29.235c.77.62 1.556 1.213 2.33 1.65.73.412 1.387.651 1.965.682H19c.966 0 1.75.783 1.75 1.75v.999q0 .126.006.251H3.244a5 5 0 0 0 .006-.251v-1A1.75 1.75 0 0 1 5 6.25h2.107q.704-.046 1.64-.657c.667-.433 1.344-1.021 2.025-1.645l.222-.203a18 18 0 0 0-.468-.36 6 6 0 0 0-.773-.504c-.224-.117-.331-.131-.353-.131-.208 0-.307.053-.358.091a.56.56 0 0 0-.17.25c-.115.285-.122.646-.122.909a.75.75 0 1 1-1.5 0v-.02c0-.252 0-.873.229-1.446a2.05 2.05 0 0 1 .66-.89c.343-.26.769-.394 1.26-.394.38 0 .742.142 1.045.3.315.163.645.385.975.63.22.162.453.345.694.54q.319-.284.62-.525a6 6 0 0 1 .953-.644M10.398 6.25h3.783a26 26 0 0 1-1.542-1.164q-.243-.195-.471-.384l-.383.353c-.438.4-.905.816-1.387 1.195m-7.443 4.5h18.09c.168.524.394 1.044.639 1.607l.004.01c.499 1.148 1.062 2.455 1.062 4.127 0 1.656-.488 2.933-1.328 3.884-.828.938-1.94 1.495-3.086 1.832-1.96.576-4.211.551-5.71.535L12 22.74q-.285 0-.626.005c-1.5.016-3.75.04-5.71-.535-1.145-.337-2.258-.894-3.086-1.832-.84-.951-1.328-2.228-1.328-3.884 0-1.672.563-2.98 1.062-4.127l.004-.01c.245-.563.47-1.083.64-1.607" clip-rule="evenodd"/></svg>