<svg xmlns="http://www.w3.org/2000/svg" fill="none" viewBox="0 0 24 24"><path fill="currentColor" fill-rule="evenodd" d="M12.625 1.586a.75.75 0 0 0-1.25 0c-.29.439-.865.907-1.688 1.46-.345.232-.715.467-1.104.714l-.188.12c-.455.289-.93.594-1.396.917-1.81 1.256-3.75 2.96-3.749 5.527 0 1.356.488 2.858 1.715 4.556.187.258.285.545.285.823V22c0 .414.336.75.75.75h12a.75.75 0 0 0 .75-.75v-6.297c0-.278.098-.565.285-.823 1.227-1.699 1.715-3.2 1.715-4.556 0-2.568-1.938-4.27-3.75-5.527-.465-.323-.94-.628-1.394-.917l-.19-.12a56 56 0 0 1-1.103-.714c-.823-.553-1.397-1.021-1.688-1.46m-1.677 7.056a.75.75 0 1 0-.774-1.284 3.979 3.979 0 1 0 5.461 5.461.75.75 0 1 0-1.285-.775 2.479 2.479 0 1 1-3.402-3.402M13 9a1 1 0 0 1 1-1h.009a1 1 0 1 1 0 2H14a1 1 0 0 1-1-1m2.121 8.982 2.13 1.419v1.848H6.75v-1.786l3.084-1.542a.25.25 0 0 1 .244.012l1.007.629-.483.301a.75.75 0 1 0 .796 1.272l3.452-2.158a.25.25 0 0 1 .271.005" clip-rule="evenodd"/></svg>