<svg xmlns="http://www.w3.org/2000/svg" fill="none" viewBox="0 0 24 24"><path fill="currentColor" fill-rule="evenodd" d="M9.5 1.75h1.75V4.5a.75.75 0 0 0 1.5 0V1.75h1.75c.969 0 1.746.785 1.752 1.746.006 1.093.034 1.868.142 2.457.104.566.272.895.515 1.138.244.243.572.41 1.138.515.589.108 1.364.136 2.457.142A1.754 1.754 0 0 1 22.25 9.5v1.75H19.5a.75.75 0 0 0 0 1.5h2.75v1.75c0 .969-.785 1.746-1.746 1.752-1.093.006-1.868.034-2.457.142-.567.104-.895.272-1.138.515-.243.244-.41.572-.515 1.138-.108.589-.136 1.364-.142 2.457A1.753 1.753 0 0 1 14.5 22.25h-1.75V19.5a.75.75 0 0 0-1.5 0v2.75H9.5a1.754 1.754 0 0 1-1.752-1.746c-.006-1.093-.034-1.868-.142-2.457-.104-.567-.272-.895-.515-1.138s-.572-.41-1.138-.515c-.589-.108-1.364-.136-2.457-.142A1.753 1.753 0 0 1 1.75 14.5v-1.75H4.5a.75.75 0 0 0 0-1.5H1.75V9.5c0-.969.785-1.746 1.746-1.752 1.093-.006 1.868-.034 2.457-.142.566-.104.895-.272 1.138-.515s.41-.572.515-1.138c.108-.589.136-1.364.142-2.457A1.754 1.754 0 0 1 9.5 1.75M9.75 12a2.25 2.25 0 1 1 4.5 0 2.25 2.25 0 0 1-4.5 0M12 8.25a3.75 3.75 0 1 0 0 7.5 3.75 3.75 0 0 0 0-7.5" clip-rule="evenodd"/></svg>