<svg xmlns="http://www.w3.org/2000/svg" fill="none" viewBox="0 0 24 24"><path fill="currentColor" fill-rule="evenodd" d="M12 1.25a2.25 2.25 0 0 0-.75 4.372V7.25H7A2.75 2.75 0 0 0 4.25 10v10A2.75 2.75 0 0 0 7 22.75h10A2.75 2.75 0 0 0 19.75 20V10A2.75 2.75 0 0 0 17 7.25h-4.25V5.622A2.25 2.25 0 0 0 12 1.25M1.25 13c0-.966.784-1.75 1.75-1.75v7.5A1.75 1.75 0 0 1 1.25 17zM21 11.25c.966 0 1.75.784 1.75 1.75v4A1.75 1.75 0 0 1 21 18.75zm-12 0a.75.75 0 0 1 .75.75v1a.75.75 0 0 1-1.5 0v-1a.75.75 0 0 1 .75-.75m6.75.75a.75.75 0 0 0-1.5 0v1a.75.75 0 0 0 1.5 0zm-5.257 4.424c.052.03.142.076.27.124.255.095.666.202 1.237.202.57 0 .982-.107 1.237-.202.128-.048.218-.094.27-.124l.053-.031a.75.75 0 0 1 .89 1.207l-.07.048q-.051.035-.137.084a3.5 3.5 0 0 1-.48.22A5 5 0 0 1 12 18.25a5 5 0 0 1-1.763-.298 3.5 3.5 0 0 1-.617-.304l-.07-.048a.75.75 0 0 1 .89-1.208z" clip-rule="evenodd"/></svg>