<svg xmlns="http://www.w3.org/2000/svg" fill="none" viewBox="0 0 24 24"><path fill="currentColor" fill-rule="evenodd" d="M3.684 1.052a1 1 0 0 1 1.265.632L6.721 7H16.78a2 2 0 0 1 1.897 1.368l.272.816a1 1 0 0 1-1.898.632L16.78 9H16v4h2a1 1 0 1 1 0 2h-.612l1.092 3.276q.383-.406.707-.858a1 1 0 0 1 1.626 1.164C18.898 21.26 15.654 23 12 23s-6.897-1.74-8.813-4.418a1 1 0 0 1 1.626-1.164q.323.45.708.858l1.115-3.344a1 1 0 0 1 0-1.864L5.06 8.345l-.019-.056-1.99-5.972a1 1 0 0 1 .632-1.264M7.388 9l1.333 4H10V9zM11 15H8.721l-1.544 4.631A9.05 9.05 0 0 0 12 21.001c1.793 0 3.45-.508 4.823-1.37L15.28 15zm3-2h-2V9h2z" clip-rule="evenodd"/></svg>