<svg xmlns="http://www.w3.org/2000/svg" fill="none" viewBox="0 0 24 24"><path fill="currentColor" fill-rule="evenodd" d="M10.268 1.359A1 1 0 0 0 8.5 2v3.004a1 1 0 0 0 1 1h2.508a1 1 0 0 0 .768-1.641l-.533-.639a4.3 4.3 0 0 1 1.007-.446c1.103-.359 2.287-.363 3.328.027 1.602.6 2.743 1.599 3.53 3.148a1 1 0 1 0 1.784-.906c-1.02-2.005-2.552-3.343-4.612-4.115-1.503-.563-3.15-.54-4.631-.061-.542.156-1.132.436-1.701.803zm.846 10.236a.45.45 0 1 1-.445.782L4.063 8.62a1.04 1.04 0 0 0-1.028 1.807l6.79 3.861a.45.45 0 1 1-.446.783l-5.284-3.005a1.101 1.101 0 0 0-1.09 1.915l6.274 3.57a.45.45 0 1 1-.445.782l-4.766-2.716a1.137 1.137 0 1 0-1.123 1.978l7.505 4.244c.823.464 1.78.64 2.717.5l1.274-.189.892.504a.75.75 0 0 0 1.015-.272l4.298-7.276a.75.75 0 0 0-.277-1.034l-.913-.515-3.308-6.847a1.184 1.184 0 0 0-2.175.927l.956 2.576a.45.45 0 0 1-.657.508L7.274 6.739a1.16 1.16 0 0 0-1.148 2.017z" clip-rule="evenodd"/></svg>