<svg xmlns="http://www.w3.org/2000/svg" fill="none" viewBox="0 0 24 24"><path fill="currentColor" fill-rule="evenodd" d="M9.781 1.376A1 1 0 0 0 8 2v3.001a1 1 0 0 0 1 1h2.4a1 1 0 0 0 .78-1.624l-.503-.63c.351-.236.667-.393.898-.46l.038-.013c1.04-.353 2.152-.357 3.128.025 1.516.594 2.605 1.583 3.36 3.135a1 1 0 0 0 1.798-.875c-.972-1.999-2.44-3.344-4.428-4.122-1.457-.57-3.051-.546-4.484-.063-.47.143-1.013.422-1.562.806zm-.16 9.952a.45.45 0 0 1-.511.74l-2.565-1.76s-.2.09-.361.216a2.13 2.13 0 0 0-.813 1.665l2.686 1.877a.45.45 0 1 1-.516.737l-2.184-1.526a2.13 2.13 0 0 0-.726 2.285l2.316 1.579a.45.45 0 0 1-.507.743l-2.244-1.529a2.11 2.11 0 0 0 .407 3.07l.368.258a1 1 0 0 0 .08.049l4.936 2.604a3.58 3.58 0 0 0 4.372-.816l3.466-3.967a3.76 3.76 0 0 0 .88-3.064l-1.013-6.423a1.281 1.281 0 0 0-2.547.2v3.198a.45.45 0 0 1-.704.372L5.37 5.646a1.128 1.128 0 0 0-1.278 1.86z" clip-rule="evenodd"/></svg>