<svg xmlns="http://www.w3.org/2000/svg" fill="none" viewBox="0 0 24 24"><path fill="currentColor" fill-rule="evenodd" d="M11.508 3.5a.5.5 0 1 1 .997 0v6a1 1 0 1 0 2 0v-4a.5.5 0 1 1 .998 0v4a1 1 0 1 0 2 0V8a.5.5 0 1 1 .997 0v1.5a1 1 0 1 0 2 0V8a2.5 2.5 0 0 0-2.997-2.45V5.5a2.5 2.5 0 0 0-3.037-2.442 2.5 2.5 0 0 0-4.958.442v.05A2.5 2.5 0 0 0 6.51 6v5.147l-.945-1.181c-1.052-1.316-2.938-1.316-3.99 0a2.63 2.63 0 0 0-.17 3.045l2.731 4.474C5.747 20.684 8.524 23 12.007 23a1 1 0 1 0 0-2c-2.5 0-4.71-1.664-6.1-4.447l-.041-.074-2.758-4.517-.01-.016a.63.63 0 0 1 .04-.731c.251-.315.614-.315.866 0l2.725 3.41A1 1 0 0 0 8.51 14V6a.5.5 0 1 1 .998 0v3.5a1 1 0 1 0 2 0zm5.576 7.876a.75.75 0 0 1 .832 0c1.406.937 2.814 1.41 4.321 1.913a.75.75 0 0 1 .513.711v.062c0 1.459 0 3.204-.614 4.774-.649 1.658-1.951 3.06-4.399 3.876a.75.75 0 0 1-.474 0c-2.448-.816-3.75-2.218-4.399-3.876-.614-1.57-.614-3.315-.614-4.774V14a.75.75 0 0 1 .513-.711c1.507-.503 2.915-.976 4.321-1.913m2.446 4.094a.75.75 0 0 1 0 1.06l-2 2a.75.75 0 0 1-1.06 0l-1-1a.75.75 0 1 1 1.06-1.06l.47.47 1.47-1.47a.75.75 0 0 1 1.06 0" clip-rule="evenodd"/></svg>