<svg xmlns="http://www.w3.org/2000/svg" fill="none" viewBox="0 0 24 24"><path fill="currentColor" fill-rule="evenodd" d="M9.25 7a5.75 5.75 0 1 1 11.5 0 5.75 5.75 0 0 1-11.5 0m6.2-2.6a.75.75 0 0 1 .15 1.05l-.6.8h1.5a.75.75 0 0 1 .6 1.2l-1.5 2a.75.75 0 1 1-1.2-.9l.6-.8h-1.5a.75.75 0 0 1-.6-1.2l1.5-2a.75.75 0 0 1 1.05-.15M3.25 14a.75.75 0 0 1 .75-.75h2.486c.464 0 .92.117 1.326.34l1.88 1.035h.808c1.222 0 2.238.617 2.793 1.447l.001.002c.178.303.303.607.38.873l-3.091.82a.25.25 0 0 1-.137-.002l-3.228-.983a.75.75 0 0 0-.436 1.435l3.227.983c.312.094.644.1.959.017l3.74-.993a.75.75 0 0 0 .558-.725c0-.564-.192-1.244-.51-1.875l2.217-.74a2.75 2.75 0 0 1 3.423 1.588 1.627 1.627 0 0 1-.783 2.06l-7.585 3.792a2.75 2.75 0 0 1-1.979.187l-6.253-1.77a.75.75 0 0 1-.546-.721z" clip-rule="evenodd"/></svg>