<svg xmlns="http://www.w3.org/2000/svg" fill="none" viewBox="0 0 24 24"><path fill="currentColor" fill-rule="evenodd" d="M5.5 1.75A3.75 3.75 0 0 0 1.75 5.5v13a3.75 3.75 0 0 0 3.75 3.75h13a3.75 3.75 0 0 0 3.75-3.75v-13a3.75 3.75 0 0 0-3.75-3.75zm8.75 6.75a.75.75 0 1 1 .223.533l-.01-.009a.75.75 0 0 1-.213-.524m.75 2.25a2.24 2.24 0 0 1-1.017-.242l-1.719 1.48 1.786 1.472a2.25 2.25 0 1 1-1.075 1.058l-1.872-1.544-3.123 2.602a.75.75 0 0 1-.96-1.152L9.928 12 7.02 9.576a.75.75 0 0 1 .96-1.152l3.112 2.593 1.854-1.596A2.25 2.25 0 1 1 15 10.75m-.498 4.19-.01.008a.75.75 0 1 0 .01-.009" clip-rule="evenodd"/></svg>