<svg xmlns="http://www.w3.org/2000/svg" fill="none" viewBox="0 0 24 24"><path fill="currentColor" fill-rule="evenodd" d="M21.01 4.25c-1.614 0-2.816-.662-4.178-1.428l-.043-.024c-1.323-.744-2.815-1.582-4.81-1.547-2 .002-3.566.882-4.912 1.638l-.076.043c-1.415.794-2.573 1.416-3.978 1.32a.75.75 0 0 0-.785.598c-1.022 4.983-.347 9.078 1.479 12.133 1.826 3.056 4.762 5 8.116 5.749a.75.75 0 0 0 .345-.004c3.59-.895 6.523-2.903 8.285-5.966 1.76-3.058 2.302-7.08 1.29-11.915a.75.75 0 0 0-.733-.596m-4.242 4.39a1 1 0 1 0-1.536-1.28l-4.3 5.159-1.725-1.726a1 1 0 0 0-1.414 1.414l2.5 2.5a1 1 0 0 0 1.475-.067z" clip-rule="evenodd"/></svg>