<svg xmlns="http://www.w3.org/2000/svg" fill="none" viewBox="0 0 24 24"><path fill="currentColor" fill-rule="evenodd" d="M5.06 1.658A1 1 0 0 1 6 1h1a1 1 0 0 1 .94.658l4 11a1 1 0 0 1-1.88.684L8.846 10h-4.69L2.94 13.342a1 1 0 0 1-1.88-.684zM8.118 8 6.5 3.551 4.883 8zm-4.68 11H2a1 1 0 1 1 0-2h1.437a2.751 2.751 0 0 1 5.126 0h6.874a2.751 2.751 0 0 1 5.126 0H22a1 1 0 1 1 0 2h-1.437a2.751 2.751 0 0 1-5.125 0H8.563a2.751 2.751 0 0 1-5.126 0M15 1a1 1 0 0 0-1 1v11a1 1 0 0 0 1 1h4.25a3.75 3.75 0 0 0 1.96-6.948A3.75 3.75 0 0 0 18.25 1zm1 11V8.5h3.25a1.75 1.75 0 1 1 0 3.5zm2.25-5.5H16V3h2.25a1.75 1.75 0 1 1 0 3.5" clip-rule="evenodd"/></svg>