<svg xmlns="http://www.w3.org/2000/svg" fill="none" viewBox="0 0 24 24"><path fill="currentColor" fill-rule="evenodd" d="M5.16 1.25c.539 0 .976.438.976.977v1.955h1.955a.977.977 0 0 1 0 1.954H6.136v1.955a.977.977 0 0 1-1.954 0V6.136H2.227a.977.977 0 0 1 0-1.954h1.955V2.227c0-.54.437-.977.977-.977m6.351 3.91c0-.54.438-.978.978-.978h1.954a.977.977 0 0 1 0 1.954H12.49a.977.977 0 0 1-.978-.977m6.353 0c0-.54.437-.978.977-.978h.977a2.93 2.93 0 0 1 2.932 2.932v.977a.977.977 0 1 1-1.954 0v-.977a.977.977 0 0 0-.978-.978h-.977a.977.977 0 0 1-.977-.977M5.159 11.51c.54 0 .977.438.977.978v1.954a.977.977 0 0 1-1.954 0V12.49c0-.54.437-.978.977-.978m16.614 0c.54 0 .977.438.977.978v1.954a.977.977 0 1 1-1.954 0V12.49c0-.54.437-.978.977-.978M5.159 17.864c.54 0 .977.437.977.977v.977c0 .54.438.977.978.977h.977a.977.977 0 1 1 0 1.955h-.977a2.93 2.93 0 0 1-2.932-2.932v-.977c0-.54.437-.977.977-.977m16.614 0c.54 0 .977.437.977.977v.977a2.93 2.93 0 0 1-2.932 2.932h-.977a.977.977 0 1 1 0-1.954h.977c.54 0 .977-.438.977-.978v-.977c0-.54.438-.977.978-.977M11.51 21.773c0-.54.438-.977.978-.977h1.954a.977.977 0 1 1 0 1.954H12.49a.977.977 0 0 1-.978-.977" clip-rule="evenodd"/></svg>