<svg xmlns="http://www.w3.org/2000/svg" fill="none" viewBox="0 0 24 24"><path fill="currentColor" fill-rule="evenodd" d="M9.38 1.62a.75.75 0 0 0-1.017-.272L4.9 3.315a.75.75 0 0 0-.276 1.032C5.76 6.286 4.306 8.783 2 8.783a.75.75 0 0 0-.75.75v3.934c0 .414.336.75.75.75 2.305 0 3.76 2.497 2.621 4.437a.75.75 0 0 0 .277 1.032l3.464 1.966a.75.75 0 0 0 1.017-.272 3 3 0 0 1 1.843-1.402 6.5 6.5 0 0 1-.722-2.98c0-.765.132-1.5.376-2.182a3.502 3.502 0 1 1 4.53-4.121 6.5 6.5 0 0 1 7.26 3.116.75.75 0 0 0 .084-.344V9.533a.75.75 0 0 0-.75-.75c-2.305 0-3.76-2.497-2.621-4.436a.75.75 0 0 0-.277-1.032l-3.464-1.967a.75.75 0 0 0-1.017.272c-1.174 2-4.066 2-5.24 0M17 22a5 5 0 1 0 0-10 5 5 0 0 0 0 10m2.48-7.076a.75.75 0 0 1 .096 1.056l-2.5 3a.75.75 0 0 1-1.106.05l-1.5-1.5a.75.75 0 1 1 1.06-1.06l.92.919 1.974-2.37a.75.75 0 0 1 1.056-.095" clip-rule="evenodd"/></svg>