<svg xmlns="http://www.w3.org/2000/svg" fill="none" viewBox="0 0 24 24"><path fill="currentColor" fill-rule="evenodd" d="M7.572 1.25a1.75 1.75 0 0 0-1.508.863l-4.412 7.5a1.75 1.75 0 0 0 0 1.774l4.412 7.5a1.75 1.75 0 0 0 1.508.863h3.538a6.5 6.5 0 0 1-.61-2.752c0-1.112.28-2.159.771-3.074A3.501 3.501 0 0 1 12 7a3.5 3.5 0 0 1 3.496 3.673A6.5 6.5 0 0 1 17 10.498c1.845 0 3.51.769 4.693 2.003l.656-1.114a1.75 1.75 0 0 0 0-1.774l-4.41-7.5a1.75 1.75 0 0 0-1.51-.863zM17 22a5 5 0 1 0 0-10 5 5 0 0 0 0 10m0-7.75a.75.75 0 0 1 .75.75v2a.75.75 0 0 1-1.5 0v-2a.75.75 0 0 1 .75-.75M16.25 19a.75.75 0 0 1 .75-.75c.414 0 .759.336.759.75s-.345.75-.759.75a.75.75 0 0 1-.75-.75" clip-rule="evenodd"/></svg>