<svg xmlns="http://www.w3.org/2000/svg" fill="none" viewBox="0 0 24 24"><path fill="currentColor" fill-rule="evenodd" d="M5.402 19.036 2.263 3.369a1.43 1.43 0 0 1 1.42-1.619 1.43 1.43 0 0 1 1.419 1.216l1.4 6.83V12c0 1.163.948 2.106 2.118 2.106a2.12 2.12 0 0 0 1.899-1.171c.382.377.908.609 1.49.609a2.12 2.12 0 0 0 1.898-1.17 2.12 2.12 0 0 0 1.49.609c.486 0 1.099-.211 1.344-.316-.165.164-.23.433.051.712a.425.425 0 0 0 .6-.001l1.83-1.825a1.48 1.48 0 0 1 2.203.121c.422.526.434 1.27.03 1.81l-3.683 4.242-.01.01c-.428.495-.644.744-.767 1.033-.123.291-.16.721-.236 1.58-.036.403-.109.696-.26.943a2 2 0 0 1-.665.665c-.48.293-1.132.293-2.437.293H9.324c-1.57 0-2.354 0-2.907-.453s-.707-1.222-1.015-2.759zm3.22-10.544c.701 0 1.27.565 1.27 1.263v2.247c0 .698-.569 1.264-1.27 1.264s-1.27-.566-1.27-1.264V9.755c0-.698.569-1.263 1.27-1.263m2.116 2.948c0 .699.57 1.264 1.27 1.264.702 0 1.27-.565 1.27-1.264V9.182a1.267 1.267 0 0 0-1.27-1.252c-.7 0-1.27.565-1.27 1.264zm3.387-.563c0 .698.57 1.263 1.27 1.263s1.27-.565 1.27-1.263V8.631c0-.698-.568-1.264-1.27-1.264-.7 0-1.27.565-1.27 1.263z" clip-rule="evenodd"/></svg>