<svg xmlns="http://www.w3.org/2000/svg" fill="none" viewBox="0 0 24 24"><path fill="currentColor" fill-rule="evenodd" d="M7.178 2.872C7.316 2.043 8.008 1.25 9 1.25h6c.992 0 1.683.793 1.822 1.622a5.255 5.255 0 0 0 4.306 4.306c.829.138 1.622.83 1.622 1.822v6c0 .992-.793 1.683-1.622 1.822a5.255 5.255 0 0 0-4.306 4.306c-.139.829-.83 1.622-1.822 1.622H9c-.992 0-1.684-.793-1.822-1.622a5.255 5.255 0 0 0-4.306-4.306c-.829-.139-1.622-.83-1.622-1.822V9c0-.992.793-1.684 1.622-1.822a5.255 5.255 0 0 0 4.306-4.306" clip-rule="evenodd"/></svg>