<svg xmlns="http://www.w3.org/2000/svg" fill="none" viewBox="0 0 24 24"><path fill="currentColor" fill-rule="evenodd" d="M20.53 4.227c-1.501 0-2.616-.647-3.901-1.409l-.046-.027c-1.24-.735-2.66-1.575-4.564-1.54-1.903.002-3.41.867-4.693 1.604l-.081.047c-1.36.78-2.454 1.378-3.76 1.284a.75.75 0 0 0-.79.606c-.966 4.978-.303 9.08 1.444 12.145 1.749 3.067 4.551 5.038 7.743 5.793a.75.75 0 0 0 .364-.005c3.414-.9 6.178-2.926 7.83-5.994 1.645-3.058 2.144-7.074 1.19-11.9a.75.75 0 0 0-.735-.604m-8.162 2.12a.75.75 0 0 0-.736 0l-4 2.25a.75.75 0 0 0-.382.653v4.5c0 .271.146.52.382.654l4 2.25a.75.75 0 0 0 .736 0l4-2.25a.75.75 0 0 0 .382-.654v-4.5a.75.75 0 0 0-.382-.654zM9.53 9.25 12 7.86l2.47 1.39L12 10.64zm-.78 1.283 2.5 1.406v2.779l-2.5-1.406zm6.5 0-2.5 1.406v2.779l2.5-1.407z" clip-rule="evenodd"/></svg>