<svg xmlns="http://www.w3.org/2000/svg" fill="none" viewBox="0 0 24 24"><path fill="currentColor" fill-rule="evenodd" d="M8.5 6.364C8.5 4.534 10.038 3 12 3s3.5 1.535 3.5 3.364v.386h-7zm-2 .464v-.464C6.5 3.373 8.992 1 12 1s5.5 2.373 5.5 5.364v.464a3.75 3.75 0 0 1 2.842 2.644l.73 2.56.011.041c.474 1.652.846 2.95 1.032 3.996.188 1.063.206 1.972-.119 2.814a5.1 5.1 0 0 1-1.854 2.344c-.824.572-2.105.943-3.498 1.177-1.421.238-3.063.351-4.691.346s-3.262-.129-4.667-.37c-1.374-.236-2.633-.602-3.428-1.153a5.1 5.1 0 0 1-1.854-2.344c-.325-.842-.307-1.751-.119-2.814.186-1.046.558-2.343 1.032-3.996l.741-2.6A3.75 3.75 0 0 1 6.5 6.827M9.5 11a1 1 0 0 1 1-1h3a1 1 0 1 1 0 2h-3a1 1 0 0 1-1-1" clip-rule="evenodd"/></svg>