<svg xmlns="http://www.w3.org/2000/svg" fill="none" viewBox="0 0 24 24"><path fill="currentColor" fill-rule="evenodd" d="M13 1.5a1 1 0 0 1 1 1V5h2.5a1 1 0 1 1 0 2H14v2.5a1 1 0 1 1-2 0V7H9.5a1 1 0 0 1 0-2H12V2.5a1 1 0 0 1 1-1M2 3a1 1 0 0 1 1-1h2.5a1 1 0 0 1 .987.84l.389 2.41h.45A2.3 2.3 0 0 0 9.5 8.3h1.199v1.2a2.3 2.3 0 1 0 4.6 0V8.3h1.2a2.3 2.3 0 0 0 2.175-3.05H21a.75.75 0 0 1 .737.888l-1.5 8a.75.75 0 0 1-.608.6l-10.917 1.9.004.021a1 1 0 0 0 .987.841H18q.05 0 .097.005.075-.005.153-.005a2.5 2.5 0 1 1-2.45 2h-4.1q.05.243.05.5a2.5 2.5 0 1 1-4.394-1.632 3 3 0 0 1-.614-1.39L4.648 4H3a1 1 0 0 1-1-1m7.25 16a1 1 0 1 0 0 2 1 1 0 0 0 0-2m8 1a1 1 0 1 1 2 0 1 1 0 0 1-2 0" clip-rule="evenodd"/></svg>