<svg xmlns="http://www.w3.org/2000/svg" fill="none" viewBox="0 0 24 24"><path fill="currentColor" fill-rule="evenodd" d="M18.144 7.666a2.3 2.3 0 0 1-.518 2.46l-2.5 2.5a2.3 2.3 0 0 1-3.252 0l-2.5-2.5a2.3 2.3 0 0 1-.518-2.46c.393-1.01 1.402-1.173 1.851-1.173h.493V5.25H6.876l-.389-2.41A1 1 0 0 0 5.5 2H3a1 1 0 0 0 0 2h1.648l2.094 12.978c.084.524.302 1 .615 1.391A2.5 2.5 0 1 0 11.7 19.5h4.1a2.5 2.5 0 1 0 2.31-1.994 1 1 0 0 0-.11-.005H9.703a1 1 0 0 1-.987-.84l-.003-.023 10.916-1.898a.75.75 0 0 0 .608-.6l1.5-8A.75.75 0 0 0 21 5.25h-5.2v1.243h.493c.45 0 1.458.163 1.85 1.173M8.25 20.002a1 1 0 1 1 2 0 1 1 0 0 1-2 0m10-1a1 1 0 1 0 0 2 1 1 0 0 0 0-2M14.5 3.5a1 1 0 1 0-2 0v4.293h-1.793c-.265 0-.543.097-.64.344a1 1 0 0 0 .226 1.07l2.5 2.5a1 1 0 0 0 1.414 0l2.5-2.5a1 1 0 0 0 .225-1.07c-.096-.247-.374-.344-.64-.344H14.5z" clip-rule="evenodd"/></svg>