<svg xmlns="http://www.w3.org/2000/svg" fill="none" viewBox="0 0 24 24"><path fill="currentColor" fill-rule="evenodd" d="M11.5 3.25A3.5 3.5 0 0 0 8 6.75v.5h7v-.5a3.5 3.5 0 0 0-3.5-3.5m5.5 4v-.5a5.5 5.5 0 1 0-11 0v.5H3a.75.75 0 0 0-.742.856L4.012 20.39a2.75 2.75 0 0 0 2.723 2.361h9.53q.12 0 .235-.01v-3.254a2.25 2.25 0 0 1-1.341-3.827l2-2a2.25 2.25 0 0 1 2.831-.287l.753-5.266A.75.75 0 0 0 20 7.25zm2.75 14.5v-3.5h1.029a1 1 0 0 0 .678-1.707l-2-2a1 1 0 0 0-1.414 0l-2 2a1 1 0 0 0 .736 1.707h.971v3.5a1 1 0 1 0 2 0" clip-rule="evenodd"/></svg>