<svg xmlns="http://www.w3.org/2000/svg" fill="none" viewBox="0 0 24 24"><path fill="currentColor" fill-rule="evenodd" d="M11.75 3c-1.962 0-3.5 1.535-3.5 3.364v.386h7v-.386c0-1.83-1.538-3.364-3.5-3.364m-5.5 3.364v.464a3.75 3.75 0 0 0-2.842 2.644l-.741 2.601c-.474 1.653-.846 2.95-1.032 3.996-.188 1.063-.206 1.972.119 2.814a5.1 5.1 0 0 0 1.854 2.344c.795.551 2.054.917 3.428 1.153 1.405.241 3.04.365 4.667.37.816.003 1.636-.024 2.43-.082l-1.4-1.4a2.5 2.5 0 0 1 3.247-3.783l3.752-3.753a2.5 2.5 0 0 1 1.375-.701l-.274-.957-.012-.042-.73-2.56a3.75 3.75 0 0 0-2.841-2.644v-.464C17.25 3.373 14.758 1 11.75 1s-5.5 2.373-5.5 5.364m4 3.636a1 1 0 1 0 0 2h3a1 1 0 1 0 0-2zm11.957 6.207a1 1 0 0 0-1.414-1.414L16 19.586l-.793-.793a1 1 0 0 0-1.414 1.414l1.5 1.5a1 1 0 0 0 1.414 0z" clip-rule="evenodd"/></svg>