<svg xmlns="http://www.w3.org/2000/svg" fill="none" viewBox="0 0 24 24"><path fill="currentColor" fill-rule="evenodd" d="M11.5 3A3.5 3.5 0 0 0 8 6.5V7h7v-.5A3.5 3.5 0 0 0 11.5 3M17 7v-.5a5.5 5.5 0 1 0-11 0V7H3a1 1 0 0 0-.99 1.141L3.276 17H16.5v-1.5a2.5 2.5 0 0 1 3.748-2.167l.742-5.192A1 1 0 0 0 20 7zm2 7.5a1 1 0 0 1 1 1V19h1a1 1 0 0 1 .707 1.707l-2 2a1 1 0 0 1-1.414 0l-2-2A1 1 0 0 1 17 19h1v-3.5a1 1 0 0 1 1-1m-3.768 7.268 1.226 1.226a3 3 0 0 1-.193.006h-9.53a3 3 0 0 1-2.97-2.576L3.56 19h11.15l-.019.043a2.5 2.5 0 0 0 .542 2.725" clip-rule="evenodd"/></svg>