<svg xmlns="http://www.w3.org/2000/svg" fill="none" viewBox="0 0 24 24"><path fill="currentColor" fill-rule="evenodd" d="M5.258 3.318c.984-.166 2.13-.056 3.182.645 1.997-.988 4.924-.96 7.384.203 2.638 1.245 4.797 3.813 4.877 7.89a5.33 5.33 0 0 1 1.672 2.116c.513 1.187.601 2.697-.366 4.288l-.014.022c-1.032 1.574-2.481 2.16-3.82 2.196-1.064.028-2.075-.288-2.777-.723-3.55 1.553-6.742.662-8.956-1.217-2.097-1.78-3.37-4.5-3.199-6.89-2.255-1.555-2.81-4.934-.54-7.284.513-.53 1.469-1.062 2.557-1.246M12 7.25c-.956 0-1.855.257-2.537.712C8.786 8.413 8.25 9.119 8.25 10c0 .523.124.986.383 1.376.256.386.608.646.975.825.674.33 1.528.442 2.227.534l.067.008c.788.105 1.402.194 1.831.404.196.095.312.198.384.307.07.104.133.267.133.546 0 .223-.136.518-.545.79-.403.27-1.004.46-1.705.46s-1.302-.19-1.705-.46c-.41-.272-.545-.566-.545-.79a.75.75 0 0 0-1.5 0c0 .881.536 1.587 1.213 2.038.682.455 1.581.712 2.537.712s1.855-.257 2.537-.712c.677-.451 1.213-1.157 1.213-2.038 0-.523-.124-.986-.383-1.376a2.4 2.4 0 0 0-.975-.825c-.674-.33-1.528-.442-2.227-.534l-.067-.008c-.788-.105-1.402-.194-1.831-.404-.196-.095-.312-.198-.384-.307-.07-.104-.133-.267-.133-.546 0-.224.136-.518.545-.79.403-.27 1.004-.46 1.705-.46s1.302.19 1.705.46c.41.272.545.566.545.79a.75.75 0 0 0 1.5 0c0-.881-.536-1.587-1.213-2.038-.682-.455-1.581-.712-2.537-.712" clip-rule="evenodd"/></svg>