<svg xmlns="http://www.w3.org/2000/svg" fill="none" viewBox="0 0 24 24"><path fill="currentColor" fill-rule="evenodd" d="m8.297 1.25.764 2.294a1.75 1.75 0 0 0 1.66 1.196h2.56a1.75 1.75 0 0 0 1.66-1.197l.764-2.293h.981c1.424 0 2.578 1.231 2.578 2.75v2.11l-.081.027h-.002l-.002.002-.004.001-.009.003-.019.007a3.5 3.5 0 0 0-.434.19 4.4 4.4 0 0 0-.809.53c-.613.508-1.404 1.48-1.404 2.942 0 .979.375 1.722.69 2.188a3.9 3.9 0 0 0-.69 2.187c0 1.462.791 2.435 1.404 2.943a4.4 4.4 0 0 0 1.243.72l.019.006.009.003.004.002h.002l.002.001.081.027V20c0 1.519-1.154 2.75-2.578 2.75H7.312c-1.423 0-2.577-1.231-2.577-2.75v-2.11l.083-.028c.017-.006.002 0 .002 0l.002-.001.005-.002.008-.003.019-.006a3 3 0 0 0 .148-.058q.12-.049.286-.132a4.4 4.4 0 0 0 .809-.53c.613-.508 1.404-1.48 1.404-2.943 0-.978-.374-1.721-.69-2.187a3.9 3.9 0 0 0 .69-2.188c0-1.462-.79-2.434-1.404-2.943a4.4 4.4 0 0 0-1.243-.72l-.019-.006-.008-.003-.009-.003-.083-.027V4c0-1.519 1.154-2.75 2.577-2.75zm-3.47 4.89-.005-.001-.002-.001zm5.051-4.89.606 1.82a.25.25 0 0 0 .238.17h2.558a.25.25 0 0 0 .237-.17l.607-1.82zM10.25 19a.75.75 0 0 1 .75-.75h2a.75.75 0 0 1 0 1.5h-2a.75.75 0 0 1-.75-.75m10.092-9.56a1 1 0 0 0-.669-1.885h-.001l-.002.001-.004.002-.009.003-.022.008a2 2 0 0 0-.243.109 3 3 0 0 0-.53.346c-.395.328-.862.914-.862 1.789 0 .845.453 1.394.697 1.691l.03.036c.264.323.273.374.273.46s-.009.137-.273.46l-.03.036c-.244.297-.697.847-.697 1.692 0 .875.467 1.46.862 1.788a2.9 2.9 0 0 0 .773.455l.022.009.01.003.003.001h.002l.001.001a1 1 0 0 0 .669-1.885h-.001l-.045-.02a1 1 0 0 1-.157-.103c-.105-.087-.139-.157-.139-.25 0-.085.01-.136.274-.46l.03-.035c.244-.297.696-.847.696-1.692s-.452-1.394-.697-1.691l-.03-.036C20.01 9.95 20 9.899 20 9.813c0-.092.034-.162.139-.25a1 1 0 0 1 .202-.122zM3.055 8.173A1 1 0 0 0 3.66 9.44q.013.004.045.021a1 1 0 0 1 .158.103c.105.087.138.157.138.249 0 .086-.009.137-.273.46l-.03.036C3.453 10.606 3 11.155 3 12s.453 1.395.697 1.692l.03.036c.264.323.273.374.273.46 0 .091-.033.162-.138.249a1 1 0 0 1-.202.123h-.001a1 1 0 0 0 .668 1.885h.004l.003-.002.01-.003.021-.009.062-.024q.072-.03.182-.084c.142-.072.333-.184.53-.347.395-.328.861-.913.861-1.788 0-.845-.452-1.395-.697-1.692l-.03-.036C5.01 12.137 5 12.086 5 12s.01-.137.274-.46l.03-.036c.244-.297.696-.846.696-1.691 0-.875-.466-1.46-.861-1.789a2.9 2.9 0 0 0-.774-.455l-.022-.008-.009-.003-.003-.002h-.004a1 1 0 0 0-1.272.617" clip-rule="evenodd"/></svg>