<svg xmlns="http://www.w3.org/2000/svg" fill="none" viewBox="0 0 24 24"><path fill="currentColor" fill-rule="evenodd" d="M2 1a1 1 0 0 0 0 2c2.955 0 5.604.929 7.986 2.357a1 1 0 0 0 1.028-1.714C8.397 2.07 5.396 1 2 1m20 4C13.914 5 7.194 10.647 5.475 18.221a1 1 0 0 1-1.95-.442C5.445 9.32 12.952 3 22 3a1 1 0 1 1 0 2M9.46 18.277C11.001 12.934 16.29 9 22.001 9a1 1 0 0 0 0-2C15.423 7 9.332 11.5 7.538 17.723a1 1 0 1 0 1.922.554M22.001 13c-3.604 0-6.716 2.209-8.082 5.394a1 1 0 1 1-1.838-.788C13.745 13.727 17.552 11 22.001 11a1 1 0 0 1 0 2m-2.887 2.357a.75.75 0 0 1 .772 0l.002.001.003.002.008.005.027.017.093.06a8.3 8.3 0 0 1 1.261 1.029c.667.666 1.47 1.726 1.47 3.032 0 1.582-1.222 3.247-3.25 3.247s-3.25-1.665-3.25-3.247c0-1.306.803-2.366 1.47-3.033a8.3 8.3 0 0 1 1.354-1.088l.027-.017.008-.005.003-.002zM2 11c.491 0 1.28.008 2.053.394a1 1 0 1 0 .894-1.788C3.735 9 2.54 9 2.02 9H2a1 1 0 1 0 0 2M1 6a1 1 0 0 1 1-1c2.008 0 3.641.367 5.377 1.074a1 1 0 0 1-.754 1.852C5.103 7.307 3.724 7 2 7a1 1 0 0 1-1-1" clip-rule="evenodd"/></svg>