<svg xmlns="http://www.w3.org/2000/svg" fill="none" viewBox="0 0 24 24"><path fill="currentColor" fill-rule="evenodd" d="M7 9.5a1 1 0 1 1-2 0v-3H3.5a1 1 0 0 1-.707-1.707l2.5-2.5a1 1 0 0 1 1.414 0l2.5 2.5A1 1 0 0 1 8.5 6.5H7zm0 5a1 1 0 1 0-2 0v3H3.5a1 1 0 0 0-.707 1.707l2.5 2.5a1 1 0 0 0 1.414 0l2.5-2.5A1 1 0 0 0 8.5 17.5H7zM18.5 11h-7a1 1 0 1 1 0-2h7a1 1 0 1 1 0 2m-7 2a1 1 0 1 0 0 2h4a1 1 0 1 0 0-2zm-1 5a1 1 0 0 1 1-1h2a1 1 0 1 1 0 2h-2a1 1 0 0 1-1-1m1-13a1 1 0 1 0 0 2h9a1 1 0 1 0 0-2z" clip-rule="evenodd"/></svg>