<svg xmlns="http://www.w3.org/2000/svg" fill="none" viewBox="0 0 24 24"><path fill="currentColor" fill-rule="evenodd" d="M1 11v-.093q0-.048.002-.095C1.102 4.824 5.988 0 12 0s10.898 4.824 10.998 10.812l.002.094V11c0 6.075-4.925 11-11 11S1 17.075 1 11m10-8.945v6.153a2.5 2.5 0 1 0 2 0V2.055a9.01 9.01 0 0 1 7.28 5.412c-1.362-.7-3.155-1.202-5.153-1.459a1 1 0 0 0-.255 1.984c1.95.25 3.568.742 4.668 1.346 1.125.617 1.44 1.189 1.46 1.536v.052c-.006.21-.112.498-.481.855-.385.372-.993.753-1.827 1.095C17.03 13.556 14.664 14 12 14s-5.03-.444-6.692-1.124c-.834-.342-1.442-.723-1.827-1.095-.37-.357-.474-.646-.48-.855v-.052c.018-.347.334-.919 1.459-1.536 1.1-.604 2.719-1.096 4.668-1.346a1 1 0 1 0-.256-1.984c-1.997.257-3.79.76-5.152 1.459A9.01 9.01 0 0 1 11 2.055" clip-rule="evenodd"/></svg>