<svg xmlns="http://www.w3.org/2000/svg" fill="none" viewBox="0 0 24 24"><path fill="currentColor" fill-rule="evenodd" d="m12 15.828-5.444 5.445a10.7 10.7 0 0 0 5.442 1.477 10.7 10.7 0 0 0 5.445-1.48zM1.527 9.558q.333.454.724.845c1.068 1.068 2.377 1.661 3.788 1.59a4.7 4.7 0 0 0 1.706-.421L9.172 13 3.54 18.634A10.7 10.7 0 0 1 1.248 12c0-.84.096-1.657.278-2.441M20.33 11l1.996-1.996c.275.951.423 1.956.423 2.996 0 2.502-.855 4.804-2.288 6.63L14.83 13l1.134-1.135A4 4 0 0 0 20.329 11m-6.328-6.328 2.456-2.457a10.7 10.7 0 0 0-4.459-.965 10.7 10.7 0 0 0-4.128.821c.56.33 1.083.728 1.533 1.178 1.068 1.068 1.662 2.377 1.592 3.789a4.7 4.7 0 0 1-.422 1.706L12 10.172l1.134-1.135A4 4 0 0 1 14 4.672m5.031-1.142a.75.75 0 1 0-1.06-1.06l-3.086 3.085A2.75 2.75 0 0 0 14.7 9.24l-2.699 2.7L9.01 8.948c.423-.579.7-1.247.736-1.973C9.796 5.98 9.387 5 8.52 4.133a6.8 6.8 0 0 0-3.178-1.75c-1.118-.256-2.423-.199-3.29.668s-.924 2.172-.667 3.29a6.8 6.8 0 0 0 1.749 3.178c.867.867 1.847 1.276 2.842 1.226.726-.036 1.394-.313 1.973-.736L10.941 13l-7.47 7.47a.75.75 0 1 0 1.061 1.06l7.47-7.47 7.469 7.47a.75.75 0 0 0 1.06-1.061L13.064 13l2.699-2.699a2.75 2.75 0 0 0 3.685-.185l3.085-3.086a.75.75 0 1 0-1.06-1.06l-3.086 3.085a1.25 1.25 0 0 1-1.768 0l-.671-.671a1.25 1.25 0 0 1 0-1.768zm1.5 1.998a.75.75 0 1 0-1.06-1.06l-2.5 2.5a.75.75 0 1 0 1.06 1.06z" clip-rule="evenodd"/></svg>