<svg xmlns="http://www.w3.org/2000/svg" fill="none" viewBox="0 0 24 24"><path fill="currentColor" fill-rule="evenodd" d="M12 1.25c-2.26 0-4 1.13-5.04 2.237a.75.75 0 0 0-.203.482v.011l-.001.027a9 9 0 0 0-.006.453c.001.297.011.71.047 1.172.068.895.24 2.093.702 2.983 1.236 2.382 1.572 4.225 1.663 5.398a3 3 0 0 0-2.567 2.038l-.408 1.225a2.75 2.75 0 0 0-2.292 2.057l-.466 1.864A1.25 1.25 0 0 0 4.64 22.75h14.72a1.25 1.25 0 0 0 1.212-1.553l-.466-1.864a2.75 2.75 0 0 0-2.295-2.058l-.408-1.224a3 3 0 0 0-2.566-2.038c.091-1.173.427-3.016 1.664-5.398.462-.89.633-2.088.701-2.983a16 16 0 0 0 .041-1.625v-.035l-.001-.002v-.002a.75.75 0 0 0-.203-.481C16 2.379 14.26 1.25 12 1.25m3.507 15.434.188.566H8.304l.188-.566A1 1 0 0 1 9.441 16h5.117a1 1 0 0 1 .949.684" clip-rule="evenodd"/></svg>