<svg xmlns="http://www.w3.org/2000/svg" fill="none" viewBox="0 0 24 24"><path fill="currentColor" fill-rule="evenodd" d="M21.302 2.337c-2.414-1.099-7.311-1.11-11.94 4.054-1.228 1.372-2.436 3.105-3.577 5.274a.75.75 0 0 0 .129.874l5.724 5.84a.75.75 0 0 0 .896.132c2.118-1.16 3.812-2.386 5.154-3.634 5.081-4.726 5.06-9.714 3.99-12.158a.75.75 0 0 0-.376-.382M15.5 11a2.5 2.5 0 1 1 0-5 2.5 2.5 0 0 1 0 5m-9.708 2.84a.25.25 0 0 0-.217-.079.75.75 0 0 0-.396.208c-.774.774-2 2.892-1.129 5.506.075.224.25.4.475.475 2.614.871 4.732-.355 5.506-1.13a.75.75 0 0 0 .183-.296c.028-.087-.006-.179-.07-.244zm2.826-8.116q.135-.15.27-.295c-1.88-.784-3.54-.379-4.755.298a7.5 7.5 0 0 0-1.636 1.25c-.189.19-.336.357-.437.478a7 7 0 0 0-.161.204l-.006.008a.75.75 0 0 0 .08.973l2.825 2.795q.042-.121.102-.236c1.174-2.232 2.427-4.035 3.718-5.475m4.396 13.664q-.135.075-.278.122l2.436 2.512a.75.75 0 0 0 .99.077l.008-.006.197-.162a7.6 7.6 0 0 0 1.677-2.08c.614-1.133 1.011-2.651.475-4.383l-.15.14c-1.41 1.312-3.173 2.586-5.355 3.78" clip-rule="evenodd"/></svg>