<svg xmlns="http://www.w3.org/2000/svg" fill="none" viewBox="0 0 24 24"><path fill="currentColor" fill-rule="evenodd" d="M4.25 4c0-.966.784-1.75 1.75-1.75h1c.966 0 1.75.784 1.75 1.75v2.25h-4.5zm0 3.75h4.5V19a.75.75 0 0 1-.15.45l-1.5 2a.75.75 0 0 1-1.2 0l-1.5-2a.75.75 0 0 1-.15-.45zm7-3.75c0-.966.784-1.75 1.75-1.75h5c.966 0 1.75.784 1.75 1.75v15.998a1.75 1.75 0 0 1-1.75 1.75h-5a1.75 1.75 0 0 1-1.75-1.75V17.25h3.25a.75.75 0 0 0 0-1.5h-3.25v-3h3.25a.75.75 0 0 0 0-1.5h-3.25V8.252l3.25-.001a.75.75 0 0 0 0-1.5l-3.25.001z" clip-rule="evenodd"/></svg>