<svg xmlns="http://www.w3.org/2000/svg" fill="none" viewBox="0 0 24 24"><path fill="currentColor" fill-rule="evenodd" d="M5 1.75A1.75 1.75 0 0 0 3.25 3.5v1.3L1.349 8.129a.75.75 0 0 0-.099.372 3.74 3.74 0 0 0 1.25 2.795V19.5a3 3 0 0 0 3 3h13a3 3 0 0 0 3-3v-8.205A3.74 3.74 0 0 0 22.75 8.5a.75.75 0 0 0-.099-.372L20.75 4.8V3.5A1.75 1.75 0 0 0 19 1.75zm14.5 10.467q-.245.033-.5.033a3.75 3.75 0 0 1-3.063-1.585 4 4 0 0 1-.828.713c-.91.593-2.059.872-3.109.872s-2.199-.279-3.109-.872a4 4 0 0 1-.828-.713A3.75 3.75 0 0 1 4.5 12.217V19.5a1 1 0 0 0 1 1h13a1 1 0 0 0 1-1zM8.244 16.336a1 1 0 0 1 1.412-.084c.466.414 1.302.748 2.335.748s1.869-.334 2.334-.748a1 1 0 1 1 1.328 1.496c-.902.8-2.243 1.252-3.662 1.252s-2.76-.451-3.663-1.252a1 1 0 0 1-.084-1.412" clip-rule="evenodd"/></svg>