<svg xmlns="http://www.w3.org/2000/svg" fill="none" viewBox="0 0 24 24"><path fill="currentColor" fill-rule="evenodd" d="M16 1.25A1.75 1.75 0 0 0 14.25 3v4c0 .966.784 1.75 1.75 1.75h5A1.75 1.75 0 0 0 22.75 7V3A1.75 1.75 0 0 0 21 1.25zM15.75 3a.25.25 0 0 1 .25-.25h5a.25.25 0 0 1 .25.25v4a.25.25 0 0 1-.25.25h-5a.25.25 0 0 1-.25-.25zM16 15.25A1.75 1.75 0 0 0 14.25 17v4c0 .966.784 1.75 1.75 1.75h5A1.75 1.75 0 0 0 22.75 21v-4A1.75 1.75 0 0 0 21 15.25zM15.75 17a.25.25 0 0 1 .25-.25h5a.25.25 0 0 1 .25.25v4a.25.25 0 0 1-.25.25h-5a.25.25 0 0 1-.25-.25zM6 6a3 3 0 0 1 3-3h2.995a1 1 0 0 1 0 2H9a1 1 0 0 0-1 1v.337a5.752 5.752 0 0 1 0 11.326V18a1 1 0 0 0 1 1h3a1 1 0 1 1 0 2H9a3 3 0 0 1-3-3v-.337A5.752 5.752 0 0 1 6 6.337zm3.48 3.924a.75.75 0 0 1 .096 1.056l-2.5 3a.75.75 0 0 1-1.106.05l-1.5-1.5a.75.75 0 1 1 1.06-1.06l.92.919 1.974-2.37a.75.75 0 0 1 1.056-.095" clip-rule="evenodd"/></svg>