<svg xmlns="http://www.w3.org/2000/svg" fill="none" viewBox="0 0 24 24"><path fill="currentColor" fill-rule="evenodd" d="M8.477 1.4a.74.74 0 0 0-.973.07L5.983 3.002a1 1 0 0 0-.165.025l-3.035.716a2 2 0 0 0-1.494 2.338l2.47 12.505A2.98 2.98 0 0 0 6.68 21h.358a.996.996 0 0 0 .993-1c0-.552-.445-1-.993-1H6.68a.994.994 0 0 1-.974-.805L3.236 5.692l2.668-.63L8.427 8.45a.743.743 0 0 0 1.122.08l.334-.336.884 1.416-1.462 9.173a.75.75 0 0 0 .117.667l1.985 3a.742.742 0 0 0 1.19 0l1.986-3a.75.75 0 0 0 .117-.667L13.239 9.61l.881-1.413.332.333a.74.74 0 0 0 1.121-.08l2.523-3.39 2.669.63-2.471 12.505a.994.994 0 0 1-.974.805h-.357a.996.996 0 0 0-.993 1c0 .552.444 1 .993 1h.357c1.42 0 2.643-1.01 2.92-2.414l2.472-12.505a2 2 0 0 0-1.494-2.338l-3.036-.716a1 1 0 0 0-.164-.025L16.497 1.47a.74.74 0 0 0-.973-.07L12 4.063zm4.564 5.709L12 6.061l-1.038 1.045 1.04 1.666z" clip-rule="evenodd"/></svg>