<svg xmlns="http://www.w3.org/2000/svg" fill="none" viewBox="0 0 24 24"><path fill="currentColor" fill-rule="evenodd" d="M5.844 4A2.85 2.85 0 0 0 3 6.857c0 .89.405 1.686 1.043 2.21.55-.33 1.16-.57 1.81-.702a6.24 6.24 0 0 1 1.994-3.536A2.83 2.83 0 0 0 5.844 4m3.718-.257A4.83 4.83 0 0 0 5.844 2 4.85 4.85 0 0 0 1 6.857a4.85 4.85 0 0 0 1.523 3.535A5.75 5.75 0 0 0 7 19.75h2.257l.015-.026.02-.035a2.5 2.5 0 0 1-.941-3.466l2.078-3.5a2.5 2.5 0 1 1 4.3 2.554l-.021.034a2.5 2.5 0 0 1 .942 3.465l-.578.974H17.5a5.25 5.25 0 0 0 .747-10.447 6.25 6.25 0 0 0-8.685-5.56m3.527 9.397a1 1 0 0 1 .35 1.37l-1.182 1.99H13.5a1 1 0 0 1 .86 1.51l-2.078 3.5a1 1 0 1 1-1.72-1.02l1.181-1.99H10.5a1 1 0 0 1-.86-1.51l2.079-3.5a1 1 0 0 1 1.37-.35" clip-rule="evenodd"/></svg>