<svg xmlns="http://www.w3.org/2000/svg" fill="none" viewBox="0 0 24 24"><path fill="currentColor" fill-rule="evenodd" d="M8.455 2a1 1 0 1 0-2 0v.601a4.9 4.9 0 0 0-1.735.723l-.525-.528a1 1 0 0 0-1.42 1.408l.534.538A5 5 0 0 0 2.585 6.5H2a1 1 0 0 0 0 2h.585c.146.726.45 1.396.872 1.97a5.752 5.752 0 0 0 2.16 10.112 2.5 2.5 0 0 1-.766-3.359l2.078-3.5a2.5 2.5 0 0 1 4.3 2.553l-.021.035a2.5 2.5 0 0 1 1.122 1.28A2.49 2.49 0 0 1 14.5 18a2.5 2.5 0 0 1 3.909 2.673 5.251 5.251 0 0 0-.162-10.37 6.25 6.25 0 0 0-6.979-6.01 4.96 4.96 0 0 0-2.813-1.69zm.612 2.98a2.95 2.95 0 0 0-3.714.402l-.013.012A3 3 0 0 0 4.485 7.5c0 .778.293 1.486.773 2.019a6 6 0 0 1 .595-.154 6.26 6.26 0 0 1 3.214-4.386m.872 10.53a1 1 0 1 0-1.72-1.02l-2.079 3.5A1 1 0 0 0 7 19.5h1.243l-1.18 1.99a1 1 0 1 0 1.719 1.02l2.078-3.5A1 1 0 0 0 10 17.5H8.757zm3.508 3.596a1 1 0 0 1 .448 1.341l-1 2a1 1 0 1 1-1.79-.894l1-2a1 1 0 0 1 1.342-.447m3 0a1 1 0 0 1 .448 1.341l-1 2a1 1 0 1 1-1.79-.894l1-2a1 1 0 0 1 1.342-.447" clip-rule="evenodd"/></svg>