<svg xmlns="http://www.w3.org/2000/svg" fill="none" viewBox="0 0 24 24"><path fill="currentColor" fill-rule="evenodd" d="M7.455 1a1 1 0 0 1 1 1v.601a4.96 4.96 0 0 1 2.813 1.691q.36-.042.732-.042a6.25 6.25 0 0 1 6.247 6.053 5.251 5.251 0 0 1 1.16 10.09A2.5 2.5 0 0 0 15.8 17.52l-.107-.055a2.5 2.5 0 0 0-.27-1.322A2.501 2.501 0 0 0 12 12.806a2.501 2.501 0 0 0-3.424 3.337 2.5 2.5 0 0 0-.27 1.322l-.106.055a2.5 2.5 0 0 0-3.652 2.683 5.75 5.75 0 0 1-1.09-9.732A5 5 0 0 1 2.584 8.5H2a1 1 0 0 1 0-2h.585a5 5 0 0 1 .724-1.758l-.534-.538a1 1 0 1 1 1.42-1.408l.525.528a4.9 4.9 0 0 1 1.735-.723V2a1 1 0 0 1 1-1M5.258 9.519a6 6 0 0 1 .595-.154 6.26 6.26 0 0 1 3.214-4.386 2.95 2.95 0 0 0-3.714.402l-.013.013A3 3 0 0 0 4.485 7.5c0 .778.293 1.486.773 2.019m4.818 4.791a1 1 0 0 1 1.414-.034l.51.486.51-.486a1 1 0 0 1 1.38 1.448l-.44.419.44.419a1 1 0 0 1-1.38 1.448l-.51-.486-.51.486a1 1 0 0 1-1.38-1.448l.44-.42-.44-.418a1 1 0 0 1-.034-1.414m-3.8 4.715a1 1 0 0 1 1.414-.035l.51.486.51-.486a1 1 0 1 1 1.38 1.448l-.44.42.44.418a1 1 0 0 1-1.38 1.448l-.51-.486-.51.486a1 1 0 1 1-1.38-1.448l.44-.419-.44-.419a1 1 0 0 1-.034-1.413m7.6 0a1 1 0 0 1 1.414-.035l.51.486.51-.486a1 1 0 0 1 1.38 1.448l-.44.42.44.418a1 1 0 0 1-1.38 1.448l-.51-.486-.51.486a1 1 0 0 1-1.38-1.448l.44-.419-.44-.419a1 1 0 0 1-.034-1.413" clip-rule="evenodd"/></svg>