<svg xmlns="http://www.w3.org/2000/svg" fill="none" viewBox="0 0 24 24"><path fill="currentColor" fill-rule="evenodd" d="M3 5.857A2.85 2.85 0 0 1 5.844 3c.778 0 1.484.313 2 .825a6.24 6.24 0 0 0-1.991 3.532 5.7 5.7 0 0 0-1.816.706A2.85 2.85 0 0 1 3 5.857m-.481 3.532A4.85 4.85 0 0 1 1 5.857 4.85 4.85 0 0 1 5.844 1a4.83 4.83 0 0 1 3.713 1.738 6.25 6.25 0 0 1 8.69 5.557 5.251 5.251 0 0 1 .218 10.359l.271-.544A2.5 2.5 0 0 0 15 14.992a2.51 2.51 0 0 0-3 0 2.5 2.5 0 0 0-.792-.689l.02-.034a2.5 2.5 0 1 0-4.299-2.553l-2.078 3.5a2.5 2.5 0 0 0 .766 3.359 5.752 5.752 0 0 1-3.098-9.186m7.42 4.122a1 1 0 0 0-1.72-1.021l-2.079 3.5A1 1 0 0 0 7 17.5h1.243l-1.18 1.99a1 1 0 1 0 1.719 1.02l2.078-3.5A1 1 0 0 0 10 15.5H8.757zm4.008 2.595a1 1 0 0 1 .448 1.341l-1.5 3a1 1 0 1 1-1.79-.894l1.5-3a1 1 0 0 1 1.342-.447m3 0a1 1 0 0 1 .448 1.341l-1.5 3a1 1 0 1 1-1.79-.894l1.5-3a1 1 0 0 1 1.342-.447" clip-rule="evenodd"/></svg>