<svg xmlns="http://www.w3.org/2000/svg" fill="none" viewBox="0 0 24 24"><path fill="currentColor" fill-rule="evenodd" d="M7.455 1a1 1 0 0 1 1 1v.601a4.96 4.96 0 0 1 2.813 1.691q.36-.042.732-.042a6.25 6.25 0 0 1 6.247 6.053 5.251 5.251 0 0 1 1.002 10.149 3.67 3.67 0 0 0-1.047-2.489l-.061-.06-1.093-1.036a2.24 2.24 0 0 0-.934-.532l-.376-1.004a3.67 3.67 0 0 0-1.097-2.928l-1.093-1.036a2.25 2.25 0 0 0-3.096 0L9.36 12.403l-.061.06a3.67 3.67 0 0 0-.84 3.787 2.24 2.24 0 0 0-1.506.617L5.86 17.903l-.061.06a3.67 3.67 0 0 0-1.04 2.333 5.752 5.752 0 0 1-1.3-9.825A5 5 0 0 1 2.584 8.5H2a1 1 0 0 1 0-2h.585a5 5 0 0 1 .724-1.758l-.534-.538a1 1 0 1 1 1.42-1.408l.525.528a4.9 4.9 0 0 1 1.735-.723V2a1 1 0 0 1 1-1M5.258 9.519a6 6 0 0 1 .595-.154 6.26 6.26 0 0 1 3.214-4.386 2.95 2.95 0 0 0-3.714.402l-.013.013A3 3 0 0 0 4.485 7.5c0 .778.293 1.486.773 2.019m6.226 2.937a.75.75 0 0 1 1.032 0l1.093 1.036.02.02a2.167 2.167 0 0 1-.042 3.078c-.413.4-.968.66-1.587.66-.62 0-1.174-.26-1.587-.66a2.167 2.167 0 0 1-.022-3.098zm-3.5 5.5a.75.75 0 0 1 1.032 0l1.093 1.036.02.02a2.167 2.167 0 0 1-.042 3.078c-.413.4-.968.66-1.587.66-.62 0-1.174-.26-1.587-.66a2.167 2.167 0 0 1-.022-3.098zm7 0a.75.75 0 0 1 1.032 0l1.093 1.036.02.02a2.167 2.167 0 0 1-.042 3.078c-.413.4-.968.66-1.587.66-.62 0-1.174-.26-1.587-.66a2.167 2.167 0 0 1-.022-3.098z" clip-rule="evenodd"/></svg>