<svg xmlns="http://www.w3.org/2000/svg" fill="none" viewBox="0 0 24 24"><path fill="currentColor" fill-rule="evenodd" d="M5.844 4A2.85 2.85 0 0 0 3 6.857c0 .89.405 1.686 1.043 2.21.55-.33 1.16-.57 1.81-.702a6.24 6.24 0 0 1 1.994-3.536A2.83 2.83 0 0 0 5.844 4m3.718-.257A4.83 4.83 0 0 0 5.844 2 4.85 4.85 0 0 0 1 6.857a4.85 4.85 0 0 0 1.523 3.535A5.75 5.75 0 0 0 7 19.75h.422a4.7 4.7 0 0 1-.172-1.247c0-.821.28-1.526.551-2.034.279-.523.63-.99.954-1.373.511-.604 1.088-1.15 1.448-1.492l.016-.015.216-.205a2.25 2.25 0 0 1 3.13 0l.216.205.015.015c.361.342.938.888 1.449 1.492.324.383.675.85.954 1.373.27.508.551 1.213.551 2.034 0 .415-.058.836-.172 1.247h.922a5.25 5.25 0 0 0 .747-10.447 6.25 6.25 0 0 0-8.685-5.56m1.689 10.935.227-.217a.75.75 0 0 1 1.044 0l.226.216.001.001c.366.347.893.846 1.35 1.387.286.337.566.714.776 1.11.208.39.375.845.375 1.328 0 1.582-1.222 3.247-3.25 3.247s-3.25-1.665-3.25-3.247c0-.483.167-.939.375-1.329.21-.395.49-.772.775-1.109.458-.54.985-1.04 1.35-1.387" clip-rule="evenodd"/></svg>