<svg xmlns="http://www.w3.org/2000/svg" fill="none" viewBox="0 0 24 24"><path fill="currentColor" fill-rule="evenodd" d="M4.477 18.675a.5.5 0 0 1 .061.153c.296.975.879 2.108 1.794 2.81.653.5 1.575.815 2.515 1.011.965.201 2.056.298 3.133.298s2.168-.096 3.134-.297c.941-.196 1.864-.51 2.519-1.012.909-.697 1.576-1.866 1.875-2.847.025-.082.037-.122.06-.152a.5.5 0 0 1 .138-.096c1.076-.62 1.718-1.65 2.226-2.762a9 9 0 0 0 .531-1.522c.06-.238.09-.357.03-.434s-.198-.076-.473-.075H22a3.75 3.75 0 0 1-1.386-7.236c.252-.1.377-.15.405-.242s-.041-.192-.179-.39A10.74 10.74 0 0 0 12 1.25c-3.664 0-6.9 1.833-8.84 4.632-.138.198-.207.298-.179.39s.153.142.405.242A3.751 3.751 0 0 1 2 13.75h-.02c-.275-.002-.413-.002-.473.075s-.03.196.03.434c.131.52.308 1.035.53 1.522.51 1.111 1.197 2.178 2.273 2.799a.5.5 0 0 1 .137.095m1.66-1.85c.027-.054.078-.084.18-.145 1.678-1 3.943-1.531 6.053-1.53 2.105.001 4.143.521 5.394 1.446.081.06.122.09.143.139s.016.1.004.204c-.142 1.257-.667 2.585-1.471 3.201-.311.239-.894.478-1.728.651-.81.169-1.764.257-2.732.256-.967 0-1.92-.088-2.73-.257-.834-.173-1.415-.412-1.725-.65-.784-.6-1.23-1.858-1.39-3.083-.016-.119-.024-.178.002-.232M12 3.25a3.75 3.75 0 1 0 0 7.5 3.75 3.75 0 0 0 0-7.5M9.75 7a2.25 2.25 0 1 1 4.5 0 2.25 2.25 0 0 1-4.5 0m11.852.785c.122-.022.183-.033.246.002.062.034.087.098.137.224.494 1.233.765 2.58.765 3.989 0 .073-.047.14-.117.16a2.25 2.25 0 1 1-1.031-4.375M1.25 12c0 .073.047.14.117.16a2.251 2.251 0 1 0 1.031-4.375c-.122-.022-.183-.033-.246.002-.062.034-.087.098-.137.224A10.7 10.7 0 0 0 1.25 12M9 17a1 1 0 1 0 0 2h.009a1 1 0 1 0 0-2zm5.991 0a1 1 0 0 0 0 2H15a1 1 0 1 0 0-2z" clip-rule="evenodd"/></svg>