<svg xmlns="http://www.w3.org/2000/svg" fill="none" viewBox="0 0 24 24"><path fill="currentColor" fill-rule="evenodd" d="m14.559 8.607-.002-.002-.007-.005-.021-.015-.074-.056a9 9 0 0 1-1.003-.915 5.7 5.7 0 0 1-.79-1.05c-.224-.395-.411-.875-.411-1.396 0-.857.281-1.597.8-2.127.517-.527 1.217-.79 1.95-.79s1.433.263 1.95.79c.518.53.8 1.27.8 2.127 0 .521-.187 1.001-.41 1.395a5.7 5.7 0 0 1-.792 1.05 9 9 0 0 1-1.076.972l-.021.015-.007.005-.002.002a.75.75 0 0 1-.883 0m-3.878 1.446.001.003.001.001a.75.75 0 0 1-.243.923l-.004.003-.009.006-.03.021-.11.075a12 12 0 0 1-1.744.966c-1.047.471-2.557.951-3.924.547-2.476-.732-3.757-2.701-3.265-4.743.239-.99.861-1.796 1.784-2.24.913-.438 2.045-.486 3.273-.123 1.355.4 2.432 1.633 3.122 2.609a14 14 0 0 1 1.127 1.907l.016.035zm1.95.526a10.4 10.4 0 0 1 2.618-1.084v1.002c0 3.304 1.731 6.326 4.313 8.176l.025.017.915.601c-.56.52-1.22 1.005-1.98 1.44a6 6 0 0 1-.514.264 1 1 0 0 0-.095-.078l-1.483-1.033-.001-.001a13.7 13.7 0 0 1-3.112-3.087c-.896-1.243-1.491-2.566-1.57-3.79l-.112-1.706-.001-.016a6.7 6.7 0 0 1 .996-.705m9.748 6.018a6.6 6.6 0 0 1-.864 1.565l-1.092-.717c-2.219-1.596-3.674-4.177-3.674-6.948V9.261a6.6 6.6 0 0 1 1.41.07c1.67.27 3.034 1.206 3.86 2.626s.96 3.064.36 4.64m-6.81 4.515.637.444c-1.568.299-3.233.21-4.618.02a23.6 23.6 0 0 1-3.745-.84l-.06-.02-.017-.005-.005-.002h-.002a.75.75 0 0 1-.495-.856v-.002l.002-.005.003-.018.013-.061.05-.228a23 23 0 0 1 1.09-3.416c.436-1.062 1.027-2.254 1.809-3.313l.02.294c.103 1.61.863 3.202 1.849 4.569a15.2 15.2 0 0 0 3.467 3.437z" clip-rule="evenodd"/></svg>