<svg xmlns="http://www.w3.org/2000/svg" fill="none" viewBox="0 0 24 24"><path fill="currentColor" fill-rule="evenodd" d="M1.25 3.111c0-1.02.821-1.861 1.85-1.861h8.8c1.029 0 1.85.84 1.85 1.861V7.25H1.25zm0 5.639h12.5v3.5H1.25zm12.5 5H1.25v2.694c0 3.476 2.791 6.306 6.25 6.306q.226 0 .448-.016a1 1 0 0 0 .175.016h11.55c1.63 0 3.075-1.243 3.075-2.925V14.95a.975.975 0 1 0-1.95 0v4.875c0 .472-.434.975-1.125.975h-7.086l5.911-5.82c.97-.954 1.767-1.739 2.313-2.443.572-.739.962-1.505.962-2.427s-.39-1.688-.962-2.427c-.546-.704-1.344-1.49-2.313-2.443-.663-.653-1.303-1.284-1.818-1.743a.975.975 0 1 0-1.298 1.456c.475.423 1.018.957 1.699 1.627 1.03 1.016 1.732 1.71 2.188 2.298.44.566.555.917.555 1.232s-.116.665-.555 1.232c-.456.589-1.157 1.282-2.188 2.297l-3.35 3.298q.02-.243.019-.493zM6.5 17.5a1 1 0 0 1 1-1h.009a1 1 0 1 1 0 2H7.5a1 1 0 0 1-1-1" clip-rule="evenodd"/></svg>