<svg xmlns="http://www.w3.org/2000/svg" fill="none" viewBox="0 0 24 24"><path fill="currentColor" fill-rule="evenodd" d="M1.25 5.461c0-1.331 1.165-2.384 2.498-2.187h.005l5.294.82a2.75 2.75 0 0 1 2.083 1.58l4.553 10.016A.75.75 0 0 1 15 16.75c-1.254 0-2.094-.348-2.898-.836-.296-.18-.562-.36-.833-.543a15 15 0 0 0-1.7-1.033c-.788-.406-1.723-.606-2.57-.677-.859-.071-1.544-.003-1.812.066a.75.75 0 0 1-.623-1.337l2.9-2.07a.25.25 0 0 0 .09-.283l-.57-1.71a.25.25 0 0 0-.202-.17L3.08 7.643l-.03-.005a2.2 2.2 0 0 1-1.8-2.176m14 4.539a3.75 3.75 0 1 1 7.5 0 3.75 3.75 0 0 1-7.5 0M2.958 18.337c.191-.64.508-.954.875-1.127.41-.194.999-.265 1.789-.165 1.591.2 3.57 1.031 5.423 1.98 1.886.965 3.91 1.805 5.776 1.952.949.075 1.897-.026 2.777-.411.89-.39 1.647-1.044 2.245-1.977a1 1 0 0 0-1.685-1.078c-.403.63-.866 1.006-1.362 1.223-.506.222-1.108.305-1.818.25-1.45-.115-3.177-.796-5.022-1.74-1.879-.961-4.122-1.937-6.084-2.184-.987-.124-2.007-.078-2.894.342-.931.44-1.6 1.236-1.936 2.362a1 1 0 0 0 1.916.573" clip-rule="evenodd"/></svg>