<svg xmlns="http://www.w3.org/2000/svg" fill="none" viewBox="0 0 24 24"><path fill="currentColor" fill-rule="evenodd" d="M20.5 5a1 1 0 0 0 .707-1.707l-2-2a1 1 0 0 0-1.414 0l-2 2A1 1 0 0 0 16.5 5h1v3a1 1 0 1 0 2 0V5zM7.895 3.544v11.142a.45.45 0 0 1-.77.316l-2.44-2.493a1.547 1.547 0 0 0-2.41 1.915l4.503 7.056a2.75 2.75 0 0 0 2.318 1.27H17A3.75 3.75 0 0 0 20.75 19v-6a2.25 2.25 0 0 0-2.25-2.25h-.3v2.75a.45.45 0 1 1-.9 0v-2.853a2.25 2.25 0 0 0-1.798-.897h-.708v3.104a.45.45 0 1 1-.9 0V9.232a2.24 2.24 0 0 0-1.392-.482s-.458-.024-.75 0a7 7 0 0 0-.363.044v3.19a.45.45 0 0 1-.9 0v-8.44a1.296 1.296 0 0 0-2.593 0" clip-rule="evenodd"/></svg>