<svg xmlns="http://www.w3.org/2000/svg" fill="none" viewBox="0 0 24 24"><path fill="currentColor" fill-rule="evenodd" d="M20.207 1.293A1 1 0 0 0 18.5 2v1.5h-3a1 1 0 1 0 0 2h3V7a1 1 0 0 0 1.707.707l2.5-2.5a1 1 0 0 0 0-1.414zM1.123 14.59l4.661 6.943a2.75 2.75 0 0 0 2.283 1.216h7.742a2.75 2.75 0 0 0 2.712-2.294l1.197-7.113.209-1.142a1.27 1.27 0 0 0-2.492-.478l-.31 1.554a.45.45 0 1 1-.883-.177l.474-2.379a1.268 1.268 0 1 0-2.489-.488l-.295 1.533a.45.45 0 1 1-.884-.167l.448-2.385a1.284 1.284 0 1 0-2.526-.468l-.456 2.496a.45.45 0 0 1-.885-.161l1.33-7.298a1.305 1.305 0 1 0-2.569-.466L6.244 15.212a.45.45 0 0 1-.77.229l-2.32-2.468a1.303 1.303 0 0 0-2.03 1.618" clip-rule="evenodd"/></svg>