<svg xmlns="http://www.w3.org/2000/svg" fill="none" viewBox="0 0 24 24"><path fill="currentColor" fill-rule="evenodd" d="M7.75 6a3.25 3.25 0 1 1 6.5 0 .75.75 0 0 0 1.5 0 4.75 4.75 0 0 0-9.5 0 .75.75 0 0 0 1.5 0m3.244-1.75a2.25 2.25 0 0 0-2.25 2.251l.005 6.693-.444-.442a2.377 2.377 0 0 0-3.437 3.278l3.875 4.26V22c0 .414.336.75.75.75H17a.75.75 0 0 0 .75-.75v-1.773l1.095-1.642c.59-.885.906-1.926.906-2.99 0-.81-.178-1.764-.87-2.483-.907-.945-2.652-2.163-5.635-2.34v-4.27a2.25 2.25 0 0 0-2.25-2.252" clip-rule="evenodd"/></svg>