<svg xmlns="http://www.w3.org/2000/svg" fill="none" viewBox="0 0 24 24"><path fill="currentColor" fill-rule="evenodd" d="M4.497 6.92C3.337 7.5 3 8.116 3 8.5c0 .323.24.812 1.009 1.305.095-1.028.934-1.723 1.715-2.114C6.614 7.246 7.774 7 9 7a1 1 0 0 1 1 1v2.962c1.394-.108 2.61-.435 3.502-.882C14.664 9.5 15 8.884 15 8.5s-.337-1-1.498-1.58C12.403 6.37 10.813 6 9 6s-3.402.37-4.503.92M15.723 11C16.473 10.35 17 9.515 17 8.5c0-1.55-1.23-2.683-2.603-3.37C12.964 4.415 11.055 4 9 4s-3.964.414-5.397 1.13C2.23 5.818 1 6.95 1 8.5v7.167c0 1.529 1.266 2.615 2.62 3.26.492.234 1.04.434 1.63.596V16a.75.75 0 0 1 1.5 0v3.5a.75.75 0 0 1-.074.325A15 15 0 0 0 9 20h.25v-3.5a.75.75 0 0 1 1.5 0V20h2.5v-3.5a.75.75 0 0 1 1.5 0V20h2.5v-3.5a.75.75 0 0 1 1.5 0V20H22a1 1 0 0 0 1-1v-7a1 1 0 0 0-1-1zM6 9.995v.01l.007.02a.5.5 0 0 0 .07.108c.092.108.263.248.542.387.357.178.83.325 1.381.407V9.073a4.7 4.7 0 0 0-1.381.407c-.279.14-.45.28-.541.387A.4.4 0 0 0 6 9.995" clip-rule="evenodd"/></svg>