<svg xmlns="http://www.w3.org/2000/svg" fill="none" viewBox="0 0 24 24"><path fill="currentColor" fill-rule="evenodd" d="M3.055 11H4a1 1 0 1 1 0 2h-.945A9.004 9.004 0 0 0 11 20.945V20a1 1 0 1 1 2 0v.945A9.004 9.004 0 0 0 20.945 13H20a1 1 0 1 1 0-2h.945A9.004 9.004 0 0 0 13 3.055V4a1 1 0 1 1-2 0v-.945A9.004 9.004 0 0 0 3.055 11M12 1c6.075 0 11 4.925 11 11s-4.925 11-11 11S1 18.075 1 12 5.925 1 12 1m0 6a1 1 0 0 1 1 1v.141c.77.224 1.45.709 1.79 1.433a1 1 0 0 1-1.808.852C12.917 10.29 12.6 10 12 10c-.357 0-.641.11-.814.24-.173.129-.186.231-.186.26s.013.131.186.26c.173.13.457.24.814.24.748 0 1.463.226 2.014.64.552.413.986 1.06.986 1.86s-.434 1.447-.986 1.86a3.2 3.2 0 0 1-1.014.5V16a1 1 0 1 1-2 0v-.142c-.77-.223-1.45-.708-1.79-1.432a1 1 0 0 1 1.808-.852c.065.137.381.426.982.426.357 0 .641-.11.814-.24.173-.129.186-.231.186-.26s-.013-.131-.186-.26c-.173-.13-.457-.24-.814-.24-.748 0-1.463-.226-2.014-.64C9.434 11.948 9 11.3 9 10.5s.434-1.447.986-1.86A3.2 3.2 0 0 1 11 8.14V8a1 1 0 0 1 1-1" clip-rule="evenodd"/></svg>