<svg xmlns="http://www.w3.org/2000/svg" fill="none" viewBox="0 0 24 24"><path fill="currentColor" fill-rule="evenodd" d="M18 1.25h-1.593l-.524 3.046A1.75 1.75 0 0 1 14.16 5.75H8.85a1.75 1.75 0 0 1-1.726-1.465l-.5-3.035H5A2.75 2.75 0 0 0 2.25 4v16A2.75 2.75 0 0 0 5 22.75h8.215l-1.483-1.482a2.5 2.5 0 0 1 3.536-3.536l.564.565 3.247-3.898a2.5 2.5 0 0 1 1.671-.886V4A2.75 2.75 0 0 0 18 1.25M6.75 10a.75.75 0 0 1 .75-.75h8a.75.75 0 0 1 0 1.5h-8a.75.75 0 0 1-.75-.75m0 5a.75.75 0 0 1 .75-.75h3.429a.75.75 0 0 1 0 1.5H7.5a.75.75 0 0 1-.75-.75m8.133-13.75-.48 2.792a.25.25 0 0 1-.246.208H8.848a.25.25 0 0 1-.247-.21l-.46-2.79zm6.757 13.982a1 1 0 0 1 .128 1.408l-5 6a1 1 0 0 1-1.475.067l-2.5-2.5a1 1 0 0 1 1.414-1.414l1.726 1.726 4.299-5.16a1 1 0 0 1 1.408-.127" clip-rule="evenodd"/></svg>