<svg xmlns="http://www.w3.org/2000/svg" fill="none" viewBox="0 0 24 24"><path fill="currentColor" fill-rule="evenodd" d="M6.75 3c0-.966.784-1.75 1.75-1.75h5a1.75 1.75 0 1 1 0 3.5h-5A1.75 1.75 0 0 1 6.75 3m8.043 12.293a1 1 0 0 1 1.414 0l2.293 2.293 2.293-2.293a1 1 0 0 1 1.414 1.414L19.914 19l2.293 2.293a1 1 0 0 1-1.414 1.414L18.5 20.414l-2.293 2.293a1 1 0 0 1-1.414-1.414L17.086 19l-2.293-2.293a1 1 0 0 1 0-1.414M5.45 3q0-.127.01-.25H4.5A2.75 2.75 0 0 0 1.75 5.5V20a2.75 2.75 0 0 0 2.75 2.75h8.615a2.5 2.5 0 0 1 .617-2.518L14.965 19l-1.233-1.232a2.5 2.5 0 0 1 3.536-3.536l1.232 1.233 1.232-1.233q.24-.236.518-.398V5.5a2.75 2.75 0 0 0-2.75-2.75h-.96q.01.123.01.25a3.05 3.05 0 0 1-3.05 3.05h-5A3.05 3.05 0 0 1 5.45 3m.8 7A.75.75 0 0 1 7 9.25h8a.75.75 0 0 1 0 1.5H7a.75.75 0 0 1-.75-.75m0 5a.75.75 0 0 1 .75-.75h3.429a.75.75 0 0 1 0 1.5H7a.75.75 0 0 1-.75-.75" clip-rule="evenodd"/></svg>