<svg xmlns="http://www.w3.org/2000/svg" fill="none" viewBox="0 0 24 24"><path fill="currentColor" fill-rule="evenodd" d="M9.5 1.25a1.75 1.75 0 1 0 0 3.5h5a1.75 1.75 0 1 0 0-3.5zM6.45 3q0-.127.01-.25H5.5A2.75 2.75 0 0 0 2.75 5.5V20a2.75 2.75 0 0 0 2.75 2.75h13A2.75 2.75 0 0 0 21.25 20V5.5a2.75 2.75 0 0 0-2.75-2.75h-.96q.01.123.01.25a3.05 3.05 0 0 1-3.05 3.05h-5A3.05 3.05 0 0 1 6.45 3M14 10.25a.75.75 0 0 0 0 1.5h3a.75.75 0 0 0 0-1.5zm-2.47-.78a.75.75 0 0 1 0 1.06l-2.5 2.5a.75.75 0 0 1-1.06 0l-1-1a.75.75 0 1 1 1.06-1.06l.47.47 1.97-1.97a.75.75 0 0 1 1.06 0M14 16.25a.75.75 0 0 0 0 1.5h3a.75.75 0 0 0 0-1.5zM7.25 17a.75.75 0 0 1 .75-.75h1.5a.75.75 0 0 1 0 1.5H8a.75.75 0 0 1-.75-.75" clip-rule="evenodd"/></svg>