<svg xmlns="http://www.w3.org/2000/svg" fill="none" viewBox="0 0 24 24"><path fill="currentColor" fill-rule="evenodd" d="M12.364 1.344a.75.75 0 0 0-.728 0l-9 5A.75.75 0 0 0 2.25 7v2.995c0 .414.336.75.75.75h18a.75.75 0 0 0 .75-.75V7a.75.75 0 0 0-.386-.656zM11.996 6a1 1 0 1 0 0 2h.01a1 1 0 1 0 0-2zm9.71 9.707a1 1 0 0 0-1.413-1.414l-7 6.996a1 1 0 0 0 1.414 1.414zM14.75 14.25a1.5 1.5 0 1 0 0 3 1.5 1.5 0 0 0 0-3m4 7a1.5 1.5 0 1 1 3 0 1.5 1.5 0 0 1-3 0M3 18.25a.75.75 0 0 0-.75.75v3c0 .414.336.75.75.75h8a.75.75 0 0 0 .75-.75v-3a.75.75 0 0 0-.75-.75zm1.25-6.422v5.337h5.5v-5.333z" clip-rule="evenodd"/></svg>