<svg xmlns="http://www.w3.org/2000/svg" fill="none" viewBox="0 0 24 24"><path fill="currentColor" fill-rule="evenodd" d="M9.82 1a2 2 0 0 0-1.961 1.608l-.18.904a3 3 0 0 0-2.583 2.04l-1.13 3.39-.411-.274a1 1 0 1 0-1.11 1.664l.574.383-1.092 1.31A4 4 0 0 0 1 14.585V17.5a1 1 0 0 0 .553.894l.002.001.142.07q.137.066.377.177c.315.146.754.34 1.243.536a17 17 0 0 0 1.573.55c.521.148 1.096.272 1.61.272h11c.514 0 1.089-.124 1.61-.273a17 17 0 0 0 1.573-.549 27 27 0 0 0 1.76-.782h.001l.003-.002A1 1 0 0 0 23 17.5v-2.914a4 4 0 0 0-.927-2.561l-1.092-1.31.574-.383a1 1 0 0 0-1.11-1.664l-.41.274-1.13-3.39a3 3 0 0 0-2.583-2.04l-.18-.904A2 2 0 0 0 14.18 1zM7.942 5.5a1 1 0 0 0-.949.684L5.888 9.5h12.225l-1.106-3.316a1 1 0 0 0-.948-.684zM2.834 20.382c.51.204 1.105.422 1.699.591.559.16 1.271.324 1.967.324v.581c0 .379-.215.726-.575.843a5.5 5.5 0 0 1-1.675.275 5.5 5.5 0 0 1-1.675-.275c-.36-.117-.575-.464-.575-.843v-1.847c.249.11.532.23.834.35m14.666.915v.581c0 .379.215.726.575.843a5.5 5.5 0 0 0 1.675.275 5.5 5.5 0 0 0 1.675-.275c.36-.117.575-.464.575-.843V20.03c-.249.11-.532.23-.834.35a18 18 0 0 1-1.699.593c-.559.16-1.271.323-1.967.323M2.773 13.318a.75.75 0 0 1 .91-.545l2 .5a.75.75 0 1 1-.365 1.455l-2-.5a.75.75 0 0 1-.545-.91m17.91.91a.75.75 0 0 0-.365-1.455l-2 .5a.75.75 0 1 0 .364 1.455zM15.661 18l-.44-1.316a1 1 0 0 0-.948-.684H9.716a1 1 0 0 0-.949.684L8.328 18z" clip-rule="evenodd"/></svg>