<svg xmlns="http://www.w3.org/2000/svg" fill="none" viewBox="0 0 24 24"><path fill="currentColor" fill-rule="evenodd" d="M11.836 3.85a1 1 0 0 0-1.054-1.7c-.485.3-.92.85-1.227 1.47A5.4 5.4 0 0 0 9 6a1 1 0 0 0 2 0c0-.582.148-1.096.345-1.49.209-.42.428-.622.49-.66m3.015.124a1 1 0 0 1-.18 1.269q-.028.059-.069.182A2.2 2.2 0 0 0 14.5 6a1 1 0 1 1-2 0c0-.372.08-.807.194-1.172a3.2 3.2 0 0 1 .236-.572c.085-.156.253-.425.545-.606a1 1 0 0 1 1.376.324M8.273 3.82a1 1 0 0 1-.032 1.392l-.008.01a1 1 0 0 0-.083.127A1.35 1.35 0 0 0 8 6a1 1 0 0 1-2 0c0-.687.187-1.224.39-1.6a2.8 2.8 0 0 1 .4-.563l.04-.042.017-.016.007-.007.003-.003.002-.001.001-.001a1 1 0 0 1 1.413.054m.975 3.929v5H9a.75.75 0 0 0-.721.544l-1 3.5A.75.75 0 0 0 8 17.75h4a.75.75 0 0 0 .721-.956l-1-3.5A.75.75 0 0 0 11 12.75h-.25l-.001-5h6.25c.965 0 1.752.782 1.75 1.75H22a1 1 0 0 1 1 1c0 3.99-1.347 6.106-2.954 7.15a5.34 5.34 0 0 1-2.823.857q-.135 0-.216-.005l-.034-.001c-.702 1.14-1.674 2.209-3.01 3.224a2.63 2.63 0 0 1-1.595.525H7.63a2.63 2.63 0 0 1-1.594-.525c-2.22-1.686-3.433-3.52-4.076-5.584-.633-2.028-.7-4.242-.709-6.638A1.75 1.75 0 0 1 2.999 7.75zm8.791 8.39c.453-1.451.616-2.999.675-4.64h2.253c-.197 2.782-1.21 3.953-2.011 4.474a3.3 3.3 0 0 1-1.004.434q.046-.133.087-.267m-9.046.11.572-2h.868l.572 2z" clip-rule="evenodd"/></svg>