<svg xmlns="http://www.w3.org/2000/svg" fill="none" viewBox="0 0 24 24"><path fill="currentColor" fill-rule="evenodd" d="M12 1.25C6.063 1.25 1.25 6.063 1.25 12S6.063 22.75 12 22.75 22.75 17.937 22.75 12 17.937 1.25 12 1.25m.198 5.503h-.026c-.017 0-1.147 0-2.25.647C8.879 8.01 7.75 9.26 7.75 12c0 2.732 1.152 3.983 2.212 4.598a5 5 0 0 0 2.345.652q.104.001.305-.014a4.6 4.6 0 0 0 1.038-.212 3.86 3.86 0 0 0 2.312-2.017c.175-.513.19-1.117-.134-1.576a1.7 1.7 0 0 0-.53-.47c-.352 1.679-1.818 2.55-3.126 2.55-1.341 0-2.474-.942-2.474-2.13 0-.593.183-1.083.488-1.464.295-.37.672-.596 1.008-.735a3.7 3.7 0 0 1 1.19-.269c.474 0 1.046.02 1.449.07a2 2 0 0 0-.137-.39 1.47 1.47 0 0 0-.806-.778c-.7-.274-1.497.003-1.8.506a.75.75 0 0 1-1.285-.772c.732-1.22 2.35-1.632 3.632-1.13a2.97 2.97 0 0 1 1.618 1.538q.288.612.35 1.396c.738.284 1.28.695 1.646 1.21.73 1.03.583 2.227.31 2.987l-.031.074a5.36 5.36 0 0 1-3.21 2.824 6 6 0 0 1-1.812.302 5 5 0 0 1-.42-.017 6.5 6.5 0 0 1-2.678-.837C7.685 17.012 6.25 15.265 6.25 12c0-3.257 1.398-5.006 2.913-5.894 1.452-.851 2.907-.853 3.01-.853-.008 0 .304-.017.729.028.426.045.998.154 1.61.41 1.25.523 2.603 1.644 3.212 3.909a.75.75 0 1 1-1.449.39c-.478-1.78-1.481-2.555-2.343-2.916a4.2 4.2 0 0 0-1.734-.321m1.66 5.746a9 9 0 0 0-1.337-.09 2.2 2.2 0 0 0-.75.158 1 1 0 0 0-.414.287c-.083.104-.159.26-.159.528 0 .16.247.629.974.629a1.697 1.697 0 0 0 1.686-1.512" clip-rule="evenodd"/></svg>