<svg xmlns="http://www.w3.org/2000/svg" fill="none" viewBox="0 0 24 24"><path fill="currentColor" fill-rule="evenodd" d="M15.357 6.435a1 1 0 1 0-.714-1.869c-1.527.583-2.913 1.66-4.053 2.737-.403.381-.794.78-1.17 1.187a1 1 0 1 0 1.468 1.358 22 22 0 0 1 1.076-1.091c1.062-1.004 2.222-1.876 3.393-2.322m-11.658 4.51C2.182 10.946 1 12.204 1 13.695c0 1.268.852 2.362 2.041 2.665.178.145.644.599 1.282 1.746A2.69 2.69 0 0 0 6.636 19.5c.317.004.627-.048.917-.15a1 1 0 1 0-.664-1.887.7.7 0 0 1-.226.037.69.69 0 0 1-.592-.366c-.812-1.462-1.49-2.133-1.913-2.438a2 2 0 0 0-.256-.16 1 1 0 0 0-.308-.103c-.315-.05-.594-.344-.594-.74 0-.433.33-.739.684-.747l.095.004q.035.003.079.01.11.014.27.066a1 1 0 1 0 .623-1.9 3.7 3.7 0 0 0-.835-.172l-.037-.002-.14-.005zM22.603 6.38c-.455-1.274-1.842-1.963-3.119-1.47-1.458.563-2.791 1.606-3.9 2.666-1.137 1.086-2.187 2.334-3.069 3.485-.388.508-.75 1.004-1.077 1.469a6 6 0 0 0-.54-.443c-.6-.436-1.344-.8-2.201-.835h-.03c-1.362 0-2.417 1.139-2.417 2.483 0 .38.066.72.212 1.023.146.306.352.528.564.698.199.16.419.286.59.384l.014.007c.182.105.33.19.473.293.151.11.663.551 1.376 1.849a2.41 2.41 0 0 0 2.073 1.262 2.4 2.4 0 0 0 2.105-1.207 38 38 0 0 1 2.657-3.911c.791-1.034 1.67-2.07 2.561-2.92.7-.669 1.353-1.107 1.963-1.516q.25-.167.49-.333c.466-.324.913-.712 1.178-1.213.288-.544.321-1.142.097-1.771" clip-rule="evenodd"/></svg>