<svg xmlns="http://www.w3.org/2000/svg" fill="none" viewBox="0 0 24 24"><path fill="currentColor" fill-rule="evenodd" d="M4.728 4.105A1 1 0 0 1 5.723 3H18.28a1 1 0 0 1 .994 1.105l-.652 6.2a1 1 0 0 1-.548.79l-.02.01a1 1 0 1 0 .895 1.79l.02-.01a3 3 0 0 0 1.642-2.37l.652-6.201A3 3 0 0 0 18.28 1H5.723a3 3 0 0 0-2.984 3.314l.653 6.201a3 3 0 0 0 1.642 2.37l.02.01a1 1 0 1 0 .895-1.79l-.02-.01a1 1 0 0 1-.548-.79zM7 9.988c0-3.091 2.043-5.992 5-5.992s5 2.9 5 5.992a6.9 6.9 0 0 1-.8 3.262h.3c.69 0 1.25.56 1.25 1.25v.69a5.75 5.75 0 0 1-1.333 3.68l-.756.909a.25.25 0 0 0 .015.336l.75.751a1.104 1.104 0 0 1-.78 1.884H8.354a1.104 1.104 0 0 1-.78-1.884l.75-.75a.25.25 0 0 0 .015-.337l-.756-.908A5.75 5.75 0 0 1 6.25 15.19v-.69c0-.69.56-1.25 1.25-1.25h.3A6.9 6.9 0 0 1 7 9.988m8 0c0 1.385-.534 2.56-1.282 3.262h-3.436C9.534 12.548 9 11.373 9 9.988c0-2.423 1.539-3.992 3-3.992s3 1.57 3 3.992" clip-rule="evenodd"/></svg>