<svg xmlns="http://www.w3.org/2000/svg" fill="none" viewBox="0 0 24 24"><path fill="currentColor" fill-rule="evenodd" d="M6 1a3 3 0 0 0-3 3v2a3 3 0 0 0 3 3h1a1 1 0 0 0 0-2H6a1 1 0 0 1-1-1V4a1 1 0 0 1 1-1h12a1 1 0 0 1 1 1v2a1 1 0 0 1-1 1h-1a1 1 0 1 0 0 2h1a3 3 0 0 0 3-3V4a3 3 0 0 0-3-3zm6 3.25A2.25 2.25 0 0 0 9.75 6.5v7.22l-.723-.632-.002-.001a2.27 2.27 0 0 0-3.278.31 2.32 2.32 0 0 0 .004 2.878l4.05 5.379a2.75 2.75 0 0 0 2.197 1.096H17.5a3.25 3.25 0 0 0 3.25-3.25v-5a3.25 3.25 0 0 0-3.25-3.25h-3.246l-.003-4.751a2.25 2.25 0 0 0-2.25-2.249" clip-rule="evenodd"/></svg>