<svg xmlns="http://www.w3.org/2000/svg" fill="none" viewBox="0 0 24 24"><path fill="currentColor" fill-rule="evenodd" d="M5 4a1 1 0 0 1 1-1h12a1 1 0 0 1 1 1v1.992a1 1 0 0 1-1 1h-2a1 1 0 1 0 0 2h2a3 3 0 0 0 3-3V4a3 3 0 0 0-3-3H6a3 3 0 0 0-3 3v1.997a3 3 0 0 0 2.992 3L6.997 9a1 1 0 0 0 .006-2l-1.006-.003a1 1 0 0 1-.997-1zm6.502.25a2.25 2.25 0 0 0-2.25 2.251v6.69l-.438-.438a2.377 2.377 0 0 0-3.438 3.277l3.875 4.26V22c0 .414.336.75.75.75h7.505a.75.75 0 0 0 .75-.75v-1.773l1.096-1.642c.59-.885.906-1.926.906-2.99 0-.81-.178-1.764-.87-2.483-.907-.945-2.653-2.163-5.635-2.34v-4.27a2.25 2.25 0 0 0-2.25-2.252" clip-rule="evenodd"/></svg>