<svg xmlns="http://www.w3.org/2000/svg" fill="none" viewBox="0 0 24 24"><path fill="currentColor" fill-rule="evenodd" d="M6.75 9.634V3.75a2.5 2.5 0 0 1 5 0v4.998c1.864.063 4.569.638 6.603 2.685.256.258.446.547.583.856a3.75 3.75 0 0 0-5.634 2.57A2.25 2.25 0 0 0 11.749 17v5q.002.396.128.75H7.5a.75.75 0 0 1-.75-.75v-1.72l-.112-.13a65 65 0 0 1-.69-.818c-.51-.614-1.131-1.385-1.414-1.851l-.183-.296c-.269-.43-.588-.942-.803-1.465-.281-.681-.436-1.486-.133-2.358.17-.49.515-.98.872-1.406.368-.44.8-.87 1.203-1.242a23 23 0 0 1 1.26-1.08M17 13.25a2.25 2.25 0 0 0-2.25 2.25v.75H14a.75.75 0 0 0-.75.75v5c0 .414.336.75.75.75h6a.75.75 0 0 0 .75-.75v-5a.75.75 0 0 0-.75-.75h-.75v-.75A2.25 2.25 0 0 0 17 13.25m.75 2.25v.75h-1.5v-.75a.75.75 0 0 1 1.5 0" clip-rule="evenodd"/></svg>