<svg xmlns="http://www.w3.org/2000/svg" fill="none" viewBox="0 0 24 24"><path fill="currentColor" fill-rule="evenodd" d="M13 4h-.22l1.035 4.135L17 8.733V7a2 2 0 0 1 2-2h1a1 1 0 1 1 0 2h-1v2.108l.553.103a3 3 0 0 1 2.21 1.781h-1.388a.75.75 0 0 0 0 1.5H22v1.89A4.7 4.7 0 0 0 14.406 19h-.555a1 1 0 0 1-.98-1.199q.129-.63.13-1.301a6.5 6.5 0 0 0-10.4-5.2 1 1 0 0 1-1.202-1.6A8.5 8.5 0 0 1 3 8.753V4a1 1 0 0 1 0-2h10a1 1 0 1 1 0 2M5 8.132a9 9 0 0 1 1-.117V4H5zm3 0a8.47 8.47 0 0 1 4 1.886v-.895L10.72 4H8zM6.5 11.25a5.25 5.25 0 1 0 0 10.5 5.25 5.25 0 0 0 0-10.5M19 14.5a3.5 3.5 0 1 0 0 7 3.5 3.5 0 0 0 0-7" clip-rule="evenodd"/></svg>