<svg xmlns="http://www.w3.org/2000/svg" fill="none" viewBox="0 0 24 24"><path fill="currentColor" fill-rule="evenodd" d="M12 1.25A8.75 8.75 0 0 0 3.25 10c0 2.391.96 5.045 2.491 7.104C7.266 19.156 9.464 20.75 12 20.75s4.734-1.594 6.259-3.646c1.53-2.06 2.491-4.713 2.491-7.104A8.75 8.75 0 0 0 12 1.25m-.003 18c-1.095 0-2.161-.403-3.138-1.11a4.26 4.26 0 0 1 3.138-1.39c1.225 0 2.339.528 3.138 1.39-.976.707-2.043 1.11-3.138 1.11m.005-14c1.548 0 3.155.596 4.18 1.868.49.61.77 1.353.406 2.073-.317.625-1.001.95-1.624 1.132-.924.271-1.921.427-2.962.427s-2.039-.156-2.962-.427c-.623-.182-1.307-.507-1.624-1.132-.364-.72-.085-1.464.406-2.073 1.024-1.272 2.632-1.868 4.18-1.868m-6.17 14.305a1 1 0 1 0-1.664-1.11l-2 3a1 1 0 0 0 1.664 1.11zm14-1.11a1 1 0 0 0-1.664 1.11l2 3a1 1 0 0 0 1.664-1.11z" clip-rule="evenodd"/></svg>