<svg xmlns="http://www.w3.org/2000/svg" fill="none" viewBox="0 0 24 24"><path fill="currentColor" fill-rule="evenodd" d="M13.365 2.508a1.75 1.75 0 0 0-2.733 0L8.094 5.681c-.62.774-.497 2.07.621 2.492a9.3 9.3 0 0 0 3.283.578 9.3 9.3 0 0 0 3.283-.578c1.12-.422 1.242-1.718.622-2.492zM11.25 18.733c-2.852-.136-4.865-1.026-5.904-1.616-.838-.475-.995-1.494-.574-2.23l.752-1.317q.219.155.483.278c1.186.55 3.188 1.203 5.992 1.203s4.807-.653 5.993-1.203q.264-.123.482-.277l.752 1.315c.42.737.264 1.756-.575 2.232-1.038.589-3.05 1.479-5.901 1.615v2.517H14a.75.75 0 0 1 0 1.5h-4a.75.75 0 0 1 0-1.5h1.25zM7.182 8.681l-1.181 1.566L6 10.25c-.566.754-.453 1.95.555 2.417 1.032.48 2.849 1.083 5.445 1.083s4.413-.604 5.445-1.083c1.008-.468 1.12-1.663.555-2.417l-1.182-1.57a2.85 2.85 0 0 1-1.077.708c-.88.332-2.155.662-3.742.662s-2.862-.33-3.741-.662a2.86 2.86 0 0 1-1.076-.706" clip-rule="evenodd"/></svg>