<svg xmlns="http://www.w3.org/2000/svg" fill="none" viewBox="0 0 24 24"><path fill="currentColor" fill-rule="evenodd" d="M10.274 1.977c.772-1.323 2.684-1.323 3.455 0l2.637 4.519a1 1 0 1 1-1.728 1.008l-2.636-4.52-2.636 4.52a1 1 0 0 1-1.728-1.008zM5.45 12.105a1 1 0 0 1 .447 1.342L3.62 18h4.882a1 1 0 0 1 0 2H3.62a2 2 0 0 1-1.79-2.895l2.277-4.552a1 1 0 0 1 1.342-.448m13.106 0a1 1 0 0 1 1.341.447l2.277 4.553A2 2 0 0 1 20.383 20h-4.881a1 1 0 1 1 0-2h4.882l-2.277-4.553a1 1 0 0 1 .448-1.342M5.58 8.186a1 1 0 0 0-1.16 1.628l3.5 2.5a1 1 0 0 0 1.162-1.628zm12.838 0a1 1 0 0 1 1.162 1.628l-3.5 2.5a1 1 0 0 1-1.162-1.628zM13 17a1 1 0 1 0-2 0v4a1 1 0 1 0 2 0z" clip-rule="evenodd"/></svg>