<svg xmlns="http://www.w3.org/2000/svg" fill="none" viewBox="0 0 24 24"><path fill="currentColor" fill-rule="evenodd" d="M3 2a1 1 0 0 0 0 2h1.648l2.094 12.978A3 3 0 0 0 9.703 19.5h8.38a1.75 1.75 0 1 0 .334 0H21a1 1 0 1 0 0-2H9.703a1 1 0 0 1-.987-.84L6.487 2.84A1 1 0 0 0 5.5 2zm8 19.242a1.75 1.75 0 1 1-3.5 0 1.75 1.75 0 0 1 3.5 0M10.25 6c0-.966.784-1.75 1.75-1.75h8c.966 0 1.75.784 1.75 1.75v8A1.75 1.75 0 0 1 20 15.75h-8A1.75 1.75 0 0 1 10.25 14zM17 7.75h-2a.75.75 0 0 1 0-1.5h2a.75.75 0 0 1 0 1.5" clip-rule="evenodd"/></svg>