<svg xmlns="http://www.w3.org/2000/svg" fill="none" viewBox="0 0 24 24"><path fill="currentColor" fill-rule="evenodd" d="M11.31 7.75c.16.07.339.215.544.45.349 2.09 1.55 4.377 3.238 6.266 2.024 2.265 4.586 3.782 6.908 3.782.41 0 .744.33.75.738a2.5 2.5 0 0 0-1.973.205 2.42 2.42 0 0 1-2.287.003 5.49 5.49 0 0 0-5.485.078c-.674.323-1.518.294-2.13-.05l-.019-.011-.008-.005a5.5 5.5 0 0 0-4.985-.176 2.5 2.5 0 0 0-.346.161 2.42 2.42 0 0 1-2.293 0 2.5 2.5 0 0 0-1.292-.319c-.496-1.98-.753-4.385-.665-6.684.093-2.406.568-4.806 1.642-6.487 1.99-3.118 4.3-4.028 5.248-4.2 1.42-.442 4.626-.599 6.72 2.14l.037.054c.305.48.64 1.21.775 2.032.136.828.074 1.805-.497 2.696a.75.75 0 0 1-1.056.214q-.026-.019-.056-.036a1 1 0 0 1-.122-.084.8.8 0 0 1-.166-.206 2 2 0 0 0-.079-.122l-.097-.14h-.001c-.17-.243-.377-.539-.604-.803-.274-.32-.632-.664-1.094-.868-.492-.217-1.05-.253-1.645-.031-.912.34-1.453.436-1.835.418-.348-.016-.628-.13-1.022-.392a.75.75 0 1 0-.83 1.25c.518.344 1.062.607 1.782.64.685.033 1.454-.148 2.428-.51.228-.085.38-.062.516-.003M7 11.25a.75.75 0 0 1 .75.746c.005.065.018.247.038.371.04.251.119.595.276.963.31.722.917 1.54 2.173 1.959a.75.75 0 0 1-.474 1.423c-1.745-.582-2.637-1.764-3.077-2.792a5.6 5.6 0 0 1-.428-1.737c-.004-.047-.006-.134-.008-.173V12a.75.75 0 0 1 .75-.75m14.51 9.251c-1.14.64-2.616.64-3.757.002a3.99 3.99 0 0 0-3.809-.037 1 1 0 0 0-.18.105c-1.129.59-2.554.57-3.639-.048l-.008-.005a4 4 0 0 0-3.678-.099 1 1 0 0 0-.189.082c-1.14.64-2.62.64-3.76 0a1 1 0 1 0-.98 1.744 5.93 5.93 0 0 0 5.535.1 1 1 0 0 0 .19-.085c.56-.32 1.312-.326 1.905.003 1.733.985 3.953.98 5.698 0q.044-.024.085-.052a1.99 1.99 0 0 1 1.842.03l.006.004a5.92 5.92 0 0 0 5.718 0 1 1 0 0 0-.978-1.744" clip-rule="evenodd"/></svg>