<svg xmlns="http://www.w3.org/2000/svg" fill="none" viewBox="0 0 24 24"><path fill="currentColor" fill-rule="evenodd" d="M1.25 4a2.75 2.75 0 1 1 5.5 0 2.75 2.75 0 0 1-5.5 0m16 0a2.75 2.75 0 1 1 5.5 0 2.75 2.75 0 0 1-5.5 0M20 17.25a2.75 2.75 0 1 0 0 5.5 2.75 2.75 0 0 0 0-5.5M1.25 20a2.75 2.75 0 1 1 5.5 0 2.75 2.75 0 0 1-5.5 0m9.77-13.242a1.99 1.99 0 0 1 1.96 0l3.784 2.154c.981.56.981 1.95 0 2.509l-3.784 2.154a1.99 1.99 0 0 1-1.96 0L7.237 11.42a1.436 1.436 0 0 1 0-2.509zm-4.415 7.109a.917.917 0 0 1 1.237-.387L12 15.66l4.158-2.18a.917.917 0 0 1 .85 1.624l-4.083 2.138a1.79 1.79 0 0 1-1.85 0l-4.083-2.138a.917.917 0 0 1-.387-1.237" clip-rule="evenodd"/></svg>