<svg xmlns="http://www.w3.org/2000/svg" fill="none" viewBox="0 0 24 24"><path fill="currentColor" fill-rule="evenodd" d="M5.25 6.5a4.75 4.75 0 1 1 9.5 0 4.75 4.75 0 0 1-9.5 0m13.25 6.75c-.69 0-1.25.56-1.25 1.25v.75h2.5v-.75c0-.69-.56-1.25-1.25-1.25m2.75 2v-.75a2.75 2.75 0 1 0-5.5 0v.75H15a.75.75 0 0 0-.75.75v5.5c0 .414.336.75.75.75h7a.75.75 0 0 0 .75-.75V16a.75.75 0 0 0-.75-.75zm-6.952-1.388q.026-.175.066-.346A7.7 7.7 0 0 0 11 12.75H9a7.75 7.75 0 0 0-7.75 7.75c0 .414.336.75.75.75h10.75V16a2.25 2.25 0 0 1 1.548-2.138" clip-rule="evenodd"/></svg>