<svg xmlns="http://www.w3.org/2000/svg" fill="none" viewBox="0 0 24 24"><path fill="currentColor" fill-rule="evenodd" d="M9.6 3.61C8.05 4.46 6.99 6.11 6.99 8c0 1.01.3 1.96.82 2.75A3.757 3.757 0 0 1 4.24 7c0-2.01 1.68-3.75 3.75-3.75.57 0 1.12.13 1.61.36m-1.32 8.64A5.99 5.99 0 0 0 4 18v1.75H2c-.41 0-.75-.34-.75-.75v-2c0-2.62 2.13-4.75 4.75-4.75zm3.72-8C9.93 4.25 8.25 5.93 8.25 8s1.68 3.75 3.75 3.75 3.75-1.68 3.75-3.75S14.07 4.25 12 4.25m-2 9c-2.62 0-4.75 2.13-4.75 4.75v2c0 .41.34.75.75.75h12c.41 0 .75-.34.75-.75v-2c0-2.62-2.13-4.75-4.75-4.75zM19.75 7c0 2.01-1.58 3.65-3.57 3.75.52-.79.82-1.74.82-2.75 0-1.89-1.05-3.54-2.61-4.39A3.75 3.75 0 0 1 19.75 7M22 19.75h-2V18c0-2.72-1.8-5.01-4.28-5.75H18c2.62 0 4.75 2.13 4.75 4.75v2c0 .41-.34.75-.75.75" clip-rule="evenodd"/></svg>