<svg xmlns="http://www.w3.org/2000/svg" fill="none" viewBox="0 0 24 24"><path fill="currentColor" fill-rule="evenodd" d="M5.25 7a4.75 4.75 0 1 1 9.5 0 4.75 4.75 0 0 1-9.5 0m-4 14A7.75 7.75 0 0 1 9 13.25h2A7.75 7.75 0 0 1 18.75 21a.75.75 0 0 1-.75.75H2a.75.75 0 0 1-.75-.75M20.5 5a1 1 0 1 0-2 0v.026a3 3 0 0 0-.873.477l-.061-.042a1 1 0 1 0-1.131 1.65l.09.061a3.2 3.2 0 0 0 0 1.656l-.09.062a1 1 0 1 0 1.13 1.649l.062-.042c.26.203.555.366.873.477V11a1 1 0 1 0 2 0v-.026c.318-.111.612-.274.873-.477l.061.042a1 1 0 0 0 1.131-1.65l-.09-.061a3.2 3.2 0 0 0 0-1.656l.09-.062a1 1 0 1 0-1.13-1.649l-.062.042a3 3 0 0 0-.873-.477zm-1.895 2.356c.202-.31.533-.499.895-.499s.694.189.895.499c.118.181.188.402.188.644s-.07.463-.188.644c-.201.31-.533.499-.895.499s-.693-.189-.895-.499A1.2 1.2 0 0 1 18.417 8c0-.242.07-.463.188-.644" clip-rule="evenodd"/></svg>