<svg xmlns="http://www.w3.org/2000/svg" fill="none" viewBox="0 0 24 24"><path fill="currentColor" d="m6.681 13.581-1.9-10.787a1.31 1.31 0 0 1 2.557-.555c.52 2.034 1.69 6.604 1.95 7.631a.45.45 0 0 0 .873-.002c.32-1.303.746-3.01 1.172-4.718l.716-2.885a1.326 1.326 0 0 1 2.592.557l-1.381 7.597a.45.45 0 0 0 .885.161l.516-2.83h.34c.98 0 1.842.514 2.33 1.288l-.276 2.358a.45.45 0 0 0 .894.105l.262-2.243A2.75 2.75 0 0 1 20.746 12v3.502a4.75 4.75 0 0 1-1.168 3.12L18.16 20.25l-.005.468c-.004.418-.008.923-.008 1.28a.75.75 0 0 1-.753.75l-9.42-.045a.75.75 0 0 1-.746-.75v-1.729c-1.173-1.37-2.077-2.47-2.718-3.394-.667-.962-1.106-1.81-1.226-2.64-.127-.876.111-1.633.577-2.37.324-.513.774-1.04 1.311-1.617l.623 3.535a.45.45 0 0 0 .886-.157"/></svg>