<svg xmlns="http://www.w3.org/2000/svg" fill="none" viewBox="0 0 24 24"><path fill="currentColor" fill-rule="evenodd" d="M6.558 5.006C8.65 4.094 12.013 3.124 17 3.008v3.905c-5.193-.221-9.146-.838-11.586-1.353q.494-.267 1.144-.554M19 2.996v3.98q.498.01 1.01.016A2.01 2.01 0 0 1 22 8.997v12a2 2 0 0 1-2.002 2c-6.292-.007-11.626-.122-16.928-2.832A1.97 1.97 0 0 1 2 18.403V5.997a1 1 0 0 1 .293-.707v-.001l.002-.001.002-.003.006-.005.016-.016.05-.046a5 5 0 0 1 .169-.148c.145-.123.357-.29.639-.485.564-.392 1.41-.901 2.582-1.412 2.345-1.023 5.974-2.046 11.218-2.165A1.983 1.983 0 0 1 19 2.997M16.5 13a2 2 0 1 1 0 4 2 2 0 0 1 0-4" clip-rule="evenodd"/></svg>