<svg xmlns="http://www.w3.org/2000/svg" fill="none" viewBox="0 0 24 24"><path fill="currentColor" fill-rule="evenodd" d="M7.764 1.5a3 3 0 0 0-2.715 1.724l-3.454 7.35a1 1 0 1 0 1.81.851l3.454-7.35a1 1 0 0 1 .905-.575h2.72v1.25H8.5a.75.75 0 0 0-.75.75v6c0 .414.336.75.75.75h6a.75.75 0 0 0 .75-.75v-6a.75.75 0 0 0-.75-.75h-2.016V3.5H13.5a1 1 0 1 0 0-2zm-.514 20a.75.75 0 0 1 .75-.75h1.242v-7h4.496v7H15a.75.75 0 0 1 0 1.5H8a.75.75 0 0 1-.75-.75m13.275-6.536a.75.75 0 0 0-1.05 0c-1.183 1.159-1.808 2.367-1.716 3.425a1.94 1.94 0 0 0 .726 1.383c.42.333.954.478 1.515.478s1.094-.145 1.514-.478c.43-.34.678-.83.727-1.383.092-1.057-.534-2.266-1.716-3.425M16.75 10.74h1.003v1.76c0 .414.336.75.75.75h2.992a.75.75 0 0 0 .75-.75v-1.985c.064-1.55-.5-2.632-1.3-3.32a4.03 4.03 0 0 0-2.39-.945H16.75z" clip-rule="evenodd"/></svg>