<svg xmlns="http://www.w3.org/2000/svg" fill="none" viewBox="0 0 24 24"><path fill="currentColor" fill-rule="evenodd" d="M10.657 3.605A8.5 8.5 0 0 1 20.5 12c0 2.282-.974 4.372-2.5 5.912V17a1 1 0 1 0-2 0v3a1 1 0 0 0 1 1h3.5a1 1 0 0 0 0-2h-.776c1.69-1.849 2.776-4.297 2.776-7 0-5.799-4.701-10.5-10.5-10.5q-.845 0-1.657.13a1 1 0 1 0 .314 1.975M3.5 3a1 1 0 0 0 0 2h.732A10.26 10.26 0 0 0 1.5 12c0 5.799 4.701 10.5 10.5 10.5q.845 0 1.657-.13a1 1 0 1 0-.314-1.975A8.5 8.5 0 0 1 3.5 12c0-2.346.951-4.43 2.5-5.952V7a1 1 0 1 0 2 0V4a1 1 0 0 0-1-1zm8.99 3.432-.002-.001a.75.75 0 0 0-.976 0h-.002l-.002.003-.01.008-.033.03q-.043.036-.12.107a17 17 0 0 0-1.674 1.757c-.457.555-.93 1.21-1.29 1.905-.357.689-.631 1.467-.631 2.259a4.25 4.25 0 0 0 8.5 0c0-.792-.274-1.57-.631-2.26-.36-.695-.833-1.349-1.29-1.904a17.4 17.4 0 0 0-1.794-1.864l-.033-.03-.01-.008z" clip-rule="evenodd"/></svg>