<svg xmlns="http://www.w3.org/2000/svg" fill="none" viewBox="0 0 24 24"><path fill="currentColor" fill-rule="evenodd" d="M3.94 22.36c-1.61 0-2.91-1.31-2.92-2.93L1 3.8C1 2.18 2.3.86 3.92.86h6.8c.26 0 .5.099.69.289l6.8 6.82c.19.19.29.44.29.69v2.95H5.75c-1.1 0-2 .9-2 2v5c0 .85.54 1.61 1.34 1.89.22.08.45.11.68.11h12.48a2.91 2.91 0 0 1-2.67 1.75zM16.55 9.07l-6.23-6.25v4.75c0 .83.67 1.5 1.5 1.5zm1.9 4.29a.75.75 0 0 0-.95-.461c-.39.14-.6.57-.46.96l1.75 5c.1.3.39.5.71.5h.5c.31 0 .6-.2.7-.5l1.75-5a.755.755 0 0 0-.46-.96.75.75 0 0 0-.95.46l-1.29 3.69zm-11.95.25a.749.749 0 1 0-1.5 0v5c0 .32.2.6.5.71.3.1.63.01.83-.24l1.42-1.77 1.41 1.77c.2.25.53.34.83.24.3-.11.51-.39.51-.71v-5a.749.749 0 1 0-1.5 0v2.86l-.67-.83a.73.73 0 0 0-.58-.28c-.23 0-.45.1-.59.28l-.66.83zm7.5-.75c-.32 0-.61.2-.71.5l-1.75 5a.748.748 0 1 0 1.41.5l.35-1h1.89l.35 1c.14.39.56.59.95.46.39-.14.6-.57.46-.96l-1.75-5c-.1-.3-.39-.5-.7-.5zm.66 3.5h-.83l.42-1.191z" clip-rule="evenodd"/></svg>