<svg xmlns="http://www.w3.org/2000/svg" fill="none" viewBox="0 0 24 24"><path fill="currentColor" fill-rule="evenodd" d="M13 2.75A8.25 8.25 0 0 0 4.75 11v.041c0 .928.001 2.965-1.77 4.242.877 1.568 2.222 2.524 3.79 3.107a2.751 2.751 0 0 1 4.869.836q.695.026 1.361.024a8.25 8.25 0 0 0 0-16.5M1.315 15.305c1.058 2.381 2.9 3.736 4.942 4.494a2.75 2.75 0 0 0 5.396.928q.693.024 1.347.023.676 0 1.33-.09a2.751 2.751 0 0 0 5.42-.657c0-.401-.114-.82-.265-1.181a4 4 0 0 0-.183-.382A9.73 9.73 0 0 0 22.75 11c0-5.385-4.365-9.75-9.75-9.75S3.25 5.615 3.25 11c0 1.073-.034 2.554-1.585 3.33a.75.75 0 0 0-.35.975M11.5 9a1 1 0 1 0-2 0v.01a1 1 0 1 0 2 0zm7 0a1 1 0 1 0-2 0v.01a1 1 0 1 0 2 0zm-8.335 3.33a.75.75 0 0 1 1.004.33c.022.039.085.144.138.22.107.15.274.355.504.56.455.404 1.159.81 2.19.81s1.734-.406 2.188-.81c.23-.205.397-.41.504-.56.053-.076.116-.181.139-.22a.75.75 0 0 1 1.339.676l-.072.13q-.062.11-.182.28a5 5 0 0 1-.731.815c-.67.596-1.716 1.19-3.186 1.19s-2.515-.594-3.186-1.19a4.9 4.9 0 0 1-.912-1.094l-.068-.122-.005-.01a.75.75 0 0 1 .336-1.006" clip-rule="evenodd"/></svg>