<svg xmlns="http://www.w3.org/2000/svg" fill="none" viewBox="0 0 24 24"><path fill="currentColor" fill-rule="evenodd" d="M1.75 5.5A3.75 3.75 0 0 1 5.5 1.75h13a3.75 3.75 0 0 1 3.75 3.75v2.75H1.75zm7.999 4.25H22.25v8.75a3.75 3.75 0 0 1-3.75 3.75H9.749zm-1.5 12.5V9.75H1.75v8.75a3.75 3.75 0 0 0 3.75 3.75zM12.25 13a.75.75 0 0 1 .75-.75h4a.75.75 0 0 1 0 1.5h-4a.75.75 0 0 1-.75-.75m0 4a.75.75 0 0 1 .75-.75h1.6a.75.75 0 0 1 0 1.5H13a.75.75 0 0 1-.75-.75M6.5 4a1 1 0 0 0 0 2h.009a1 1 0 1 0 0-2zm3.991 0a1 1 0 0 0 0 2h.009a1 1 0 1 0 0-2z" clip-rule="evenodd"/></svg>