<svg xmlns="http://www.w3.org/2000/svg" fill="none" viewBox="0 0 24 24"><path fill="currentColor" fill-rule="evenodd" d="M22.645 7.236C19.338 4.443 15.695 3 12 3S4.662 4.443 1.355 7.236a1 1 0 0 0 1.29 1.528C5.654 6.224 8.853 5 12 5s6.346 1.223 9.355 3.764a1 1 0 0 0 1.29-1.528M12.087 9c2.59 0 5.094 1.14 7.14 3.314a1 1 0 1 1-1.455 1.372C16.052 11.859 14.056 11 12.087 11c-1.972 0-4.036.863-5.88 2.707a1 1 0 0 1-1.414-1.414C6.949 10.137 9.5 9 12.087 9m-3.294 5.293a1 1 0 0 1 1.414 0L12 16.086l1.793-1.793a1 1 0 0 1 1.414 1.414L13.414 17.5l1.793 1.793a1 1 0 0 1-1.414 1.414L12 18.914l-1.793 1.793a1 1 0 0 1-1.414-1.414l1.793-1.793-1.793-1.793a1 1 0 0 1 0-1.414" clip-rule="evenodd"/></svg>