<svg xmlns="http://www.w3.org/2000/svg" fill="none" viewBox="0 0 24 24"><path fill="currentColor" fill-rule="evenodd" d="M22.645 6.236C19.338 3.443 15.695 2 12 2S4.662 3.443 1.355 6.236a1 1 0 0 0 1.29 1.528C5.654 5.224 8.853 4 12 4s6.346 1.223 9.355 3.764a1 1 0 0 0 1.29-1.528M4.86 9.232c4.36-3.633 10.146-3.659 14.303.02a1 1 0 1 1-1.326 1.497c-3.378-2.989-8.056-3.015-11.697.02a1 1 0 1 1-1.28-1.537m8.643 2.813a1.75 1.75 0 0 0-3.001 0L6.268 19.1c-.7 1.167.14 2.65 1.5 2.65h8.468c1.36 0 2.2-1.483 1.5-2.65zM12.75 15.5a.75.75 0 0 0-1.5 0v1a.75.75 0 0 0 1.5 0zM12 17.75a.75.75 0 0 0 0 1.5h.012a.75.75 0 0 0 0-1.5z" clip-rule="evenodd"/></svg>