<svg xmlns="http://www.w3.org/2000/svg" fill="none" viewBox="0 0 24 24"><path fill="currentColor" fill-rule="evenodd" d="M10 1.25a.75.75 0 0 0-.746.825l.41 4.1A1.75 1.75 0 0 0 11 7.702v1.28a2.25 2.25 0 0 0-1.245 2.161l-1.466.846a1.75 1.75 0 0 0-1.901-.316l-3.692 1.641a.75.75 0 0 0-.346 1.058l2 3.5a.75.75 0 0 0 1.101.228l3.279-2.46a1.75 1.75 0 0 0 .611-1.949l1.415-.817q.117.079.244.141V21H6a1 1 0 1 0 0 2h12a1 1 0 1 0 0-2h-5v-7.984q.13-.064.25-.145l1.41.815a1.75 1.75 0 0 0 .61 1.956l3.28 2.458a.75.75 0 0 0 1.101-.228l2-3.5a.75.75 0 0 0-.346-1.058l-3.692-1.64a1.75 1.75 0 0 0-1.896.311l-1.47-.849q.004-.067.004-.137A2.25 2.25 0 0 0 13 8.984V7.703a1.75 1.75 0 0 0 1.336-1.529l.41-4.1A.75.75 0 0 0 14 1.25zM7.57 4.322a1 1 0 1 0-1.14-1.644C4.129 4.27 2.373 6.9 2.008 9.878a1 1 0 1 0 1.985.244c.29-2.362 1.701-4.502 3.576-5.8m10-1.644a1 1 0 0 0-1.139 1.644c1.875 1.298 3.287 3.438 3.577 5.8a1 1 0 0 0 1.985-.244c-.366-2.977-2.122-5.607-4.424-7.2" clip-rule="evenodd"/></svg>