<svg xmlns="http://www.w3.org/2000/svg" fill="none" viewBox="0 0 24 24"><path fill="currentColor" fill-rule="evenodd" d="M13.25 4.5a2.25 2.25 0 1 1 4.5 0 2.25 2.25 0 0 1-4.5 0m-3.214 4.695c-.6.126-1.075.308-1.464.53-.728.414-1.242 1.02-1.68 1.882a1 1 0 1 1-1.783-.905c.562-1.108 1.316-2.057 2.473-2.716 1.14-.65 2.575-.962 4.406-.983H12l1.354-.001c.8 0 1.432.467 1.793.984.131.189.288.368.453.493.432.323.926.508 1.463.45.534-.057 1.284-.373 2.19-1.393a1 1 0 1 1 1.495 1.328c-1.131 1.273-2.305 1.93-3.472 2.054a3.85 3.85 0 0 1-1.957-.303l-2.532 3.85.936.921a5.9 5.9 0 0 1 1.582 2.754l.665 2.616a1 1 0 1 1-1.939.492l-.664-2.616a3.9 3.9 0 0 0-1.048-1.821l-1.481-1.459c-.47-.37-.878-.691-1.188-.989-.332-.317-.624-.673-.795-1.138a3 3 0 0 1-.184-1.108c.012-.495.174-.927.386-1.335.198-.383.482-.821.81-1.327l.025-.038zm-.15 7.27a1 1 0 1 0-1.771-.93c-.573 1.091-1.898 1.695-3.205 1.384l-.678-.161a1 1 0 0 0-.463 1.945l.678.162c2.15.511 4.418-.458 5.438-2.4" clip-rule="evenodd"/></svg>