<svg xmlns="http://www.w3.org/2000/svg" fill="none" viewBox="0 0 24 24"><path fill="currentColor" fill-rule="evenodd" d="M10.75 4.5a2.25 2.25 0 1 1 4.5 0 2.25 2.25 0 0 1-4.5 0M9.306 8.555a2 2 0 0 1 2.16-1.447l7.65.9a1 1 0 0 1-.233 1.986l-4.149-.488-.896 3.58.048-.007c.89-.143 1.658-.265 2.285-.28.672-.014 1.336.09 1.924.534.585.442.869 1.053 1.045 1.704.165.611.267 1.39.386 2.298l.465 3.535a1 1 0 0 1-1.983.261l-.456-3.47c-.13-.992-.217-1.636-.343-2.102-.119-.44-.234-.565-.321-.63-.085-.065-.23-.14-.673-.13-.473.01-1.104.11-2.08.266l-2.344.375-.07.011c-.633.102-1.216.195-1.684.2-.504.004-1.133-.088-1.599-.622-.462-.53-.475-1.163-.41-1.662.061-.467.223-1.04.4-1.667l.018-.065v-.001zm1.589 8.892a1 1 0 1 0-1.79-.894l-.552 1.106a2 2 0 0 1-.894.894l-3.106 1.553a1 1 0 1 0 .894 1.789l3.106-1.553a4 4 0 0 0 1.789-1.789z" clip-rule="evenodd"/></svg>