<svg xmlns="http://www.w3.org/2000/svg" fill="none" viewBox="0 0 24 24"><path fill="currentColor" fill-rule="evenodd" d="M10.347 1.72a1.75 1.75 0 0 1 2.257 1.839l-.717 7.508a.75.75 0 0 1-1.33.4L5.84 5.615a1.75 1.75 0 0 1 .848-2.771zm5.197 6.747a1.75 1.75 0 0 1 2.957-.07l1.183 1.774a1.75 1.75 0 0 1-1.311 2.715l-4.31.359a.75.75 0 0 1-.706-1.133zm-1.347 5.81a.75.75 0 0 0-.88 1.033l1.802 3.964a1.75 1.75 0 0 0 2.993.326l1.105-1.473a1.75 1.75 0 0 0-.94-2.738zm-2.417 1.027a.75.75 0 0 1 .469.634l.365 4.387a1.75 1.75 0 0 1-2.393 1.77l-1.996-.798a1.75 1.75 0 0 1-.512-2.933l3.29-2.924a.75.75 0 0 1 .777-.136m-5.481-4.552a1.75 1.75 0 0 0-2.684 1.331l-.226 2.713a1.75 1.75 0 0 0 2.417 1.76l4.483-1.867a.75.75 0 0 0 .114-1.325z" clip-rule="evenodd"/></svg>