<svg xmlns="http://www.w3.org/2000/svg" fill="none" viewBox="0 0 24 24"><path fill="currentColor" fill-rule="evenodd" d="M12 2.25a.75.75 0 0 0-.542.231l-.004.005-.146.16a14 14 0 0 0-1.453 2.021C9.069 5.996 8.25 7.881 8.25 10.001s.82 4.005 1.605 5.332q.113.19.225.368a13 13 0 0 1-2.384-.77c-.908-.4-1.78-.933-2.484-1.637-1.189-1.19-1.752-2.727-2.01-4.024a11 11 0 0 1-.167-1.18q.219.03.462.08c.878.175 1.762.5 2.3 1.038A1 1 0 1 0 7.21 7.793c-.962-.963-2.326-1.387-3.322-1.586a11 11 0 0 0-1.716-.203L2.013 6h-.006a1 1 0 0 0-.998.938v.01c-.003.046-.007.16-.008.225-.002.138-.001.334.009.575.02.48.078 1.149.23 1.912.301 1.513.987 3.475 2.558 5.047.377.377.783.71 1.204 1.003l-.854.353C2.175 16.74 1 18.683 1 21a1 1 0 0 0 1.555.832c.665-.444 1.16-.626 1.536-.69a2.2 2.2 0 0 1 1.011.07c.247.07.446.15.69.248.145.059.307.124.503.196C6.763 21.83 7.329 22 8 22c1.68 0 2.973-.6 3.829-1.599q.09-.105.171-.212.082.108.171.212C13.028 21.4 14.32 22 16 22c.671 0 1.237-.17 1.705-.344.197-.072.358-.137.504-.196.243-.098.442-.178.689-.248a2.2 2.2 0 0 1 1.01-.07c.376.064.872.246 1.537.69A1 1 0 0 0 23 21c0-2.318-1.175-4.26-3.148-4.937l-.854-.353a9 9 0 0 0 1.204-1.003c1.571-1.572 2.257-3.534 2.558-5.047.152-.763.21-1.432.23-1.912.01-.241.011-.437.01-.575l-.008-.225v-.01A1 1 0 0 0 21.993 6h-.006l-.16.004a11 11 0 0 0-1.716.203c-.996.2-2.36.623-3.322 1.586a1 1 0 1 0 1.415 1.414c.537-.537 1.421-.863 2.3-1.039a9 9 0 0 1 .46-.08c-.028.34-.078.742-.166 1.181-.258 1.297-.821 2.834-2.01 4.024-.704.704-1.576 1.237-2.484 1.637a13 13 0 0 1-2.384.77q.112-.177.225-.368c.786-1.327 1.605-3.212 1.605-5.332s-.82-4.005-1.605-5.332a14 14 0 0 0-1.089-1.584 11 11 0 0 0-.51-.598l-.003-.004h-.001A.75.75 0 0 0 12 2.25" clip-rule="evenodd"/></svg>