<svg xmlns="http://www.w3.org/2000/svg" fill="none" viewBox="0 0 24 24"><path fill="currentColor" fill-rule="evenodd" d="M9.889 1.51A1 1 0 0 1 10.76 1c1.74 0 3.286.514 4.365 1.378.876.703 1.487 1.687 1.519 2.795a4.2 4.2 0 0 1 1.64 2.107c.253.715.312 1.521.091 2.306a4.6 4.6 0 0 1 1.988 1.68c.507.778.767 1.745.572 2.734H22a1 1 0 1 1 0 2h-.56l-1.76 4.925a2.75 2.75 0 0 1-2.59 1.825H6.91a2.75 2.75 0 0 1-2.59-1.825L2.56 16H2a1 1 0 1 1 0-2h1.063a3.8 3.8 0 0 1 .351-2.39 4.36 4.36 0 0 1 2.011-1.985c-.025-.711.082-1.34.322-1.895.334-.774.883-1.3 1.463-1.677.562-.365 1.191-.614 1.712-.817l.071-.028c.527-.205.933-.364 1.262-.562.16-.097.263-.237.226-.626-.041-.43-.258-.98-.575-1.5a1 1 0 0 1-.017-1.01M18.839 14H5.15c-.234-.505-.18-1.026.056-1.5.319-.644.927-1.097 1.468-1.193a2.16 2.16 0 0 1 1.71.405 1 1 0 0 0 1.232-1.575 4.1 4.1 0 0 0-2.191-.85c.014-.33.077-.576.158-.764.138-.32.37-.567.717-.793.366-.237.81-.421 1.349-.631l.12-.046c.474-.185 1.036-.403 1.52-.695 1.018-.614 1.267-1.637 1.183-2.527a4 4 0 0 0-.11-.626c.622.17 1.134.431 1.512.734.663.532.848 1.112.74 1.597-.09.406-.424.963-1.312 1.53a1 1 0 0 0 1.077 1.685c.687-.439 1.235-.945 1.62-1.503.169.2.308.436.4.696.2.57.15 1.181-.265 1.712a2.1 2.1 0 0 1-1.252.758 1 1 0 1 0 .382 1.963 4.1 4.1 0 0 0 2.045-1.05c.492.133 1.033.5 1.378 1.03.324.498.432 1.063.153 1.643" clip-rule="evenodd"/></svg>