<svg xmlns="http://www.w3.org/2000/svg" fill="none" viewBox="0 0 24 24"><path fill="currentColor" d="M12.057 1.75c2.19 0 3.912 0 5.255.18 1.377.186 2.469.573 3.327 1.43.858.86 1.245 1.951 1.43 3.328.181 1.343.181 3.064.181 5.255v.114c0 2.19 0 3.912-.18 5.255-.186 1.377-.573 2.469-1.43 3.327-.86.858-1.951 1.245-3.328 1.43-1.343.181-3.064.181-5.255.181h-.114c-2.19 0-3.912 0-5.255-.18-1.377-.186-2.469-.573-3.327-1.43-.858-.86-1.245-1.951-1.43-3.328-.181-1.343-.181-3.064-.181-5.255v-.114c0-2.19 0-3.912.18-5.255.186-1.377.573-2.469 1.43-3.327.86-.858 1.951-1.245 3.328-1.43 1.343-.181 3.064-.181 5.255-.181z" opacity=".4"/><path fill="currentColor" fill-rule="evenodd" d="M15.1 7.005a1 1 0 0 0-.2 1.99c.561.056.718.164.803.25.078.079.174.22.232.664.063.47.065 1.108.065 2.091s-.002 1.62-.065 2.091c-.058.443-.154.585-.232.665-.085.085-.242.193-.802.249a1 1 0 0 0 .198 1.99c.74-.074 1.458-.259 2.027-.834.507-.514.704-1.146.792-1.807.082-.617.082-1.39.082-2.289v-.13c0-.9 0-1.671-.082-2.29-.087-.66-.285-1.292-.792-1.806-.569-.575-1.287-.76-2.027-.834m-6 1.99a1 1 0 0 0-.2-1.99c-.74.074-1.457.259-2.026.834-.507.514-.704 1.147-.792 1.807C6 10.264 6 11.036 6 11.935v.13c0 .9 0 1.672.082 2.29.088.66.285 1.292.792 1.806.569.575 1.287.76 2.027.834a1 1 0 1 0 .198-1.99c-.56-.056-.717-.164-.802-.25-.078-.079-.174-.22-.232-.664-.063-.47-.065-1.108-.065-2.09 0-.984.002-1.622.065-2.092.058-.443.154-.585.232-.664.085-.086.242-.194.802-.25" clip-rule="evenodd"/></svg>