<svg xmlns="http://www.w3.org/2000/svg" fill="none" viewBox="0 0 24 24"><path fill="currentColor" d="M1.25 12C1.25 6.063 6.063 1.25 12 1.25S22.75 6.063 22.75 12 17.937 22.75 12 22.75 1.25 17.937 1.25 12" opacity=".4"/><path fill="currentColor" fill-rule="evenodd" d="M10 7c-.637 0-1.258.175-1.747.509-.485.331-.926.891-.926 1.634 0 .664-.016.896-.078 1.063-.036.096-.118.257-.568.564C6.31 11.024 6 11.452 6 12s.31.976.681 1.23c.45.307.532.468.568.564.062.167.078.4.078 1.063 0 .743.441 1.303.926 1.634.49.334 1.11.509 1.747.509a1 1 0 1 0 0-2 1.3 1.3 0 0 1-.673-.203v-.007c0-.54 0-1.142-.203-1.691-.162-.437-.425-.787-.771-1.099.346-.312.61-.662.771-1.099.204-.549.203-1.15.203-1.69C9.443 9.13 9.713 9 10 9a1 1 0 1 0 0-2m4 0a1 1 0 1 0 0 2c.287 0 .557.13.673.21 0 .54 0 1.142.203 1.691.162.437.425.787.771 1.099-.346.312-.61.662-.771 1.099-.203.549-.203 1.15-.203 1.69-.116.08-.386.211-.673.211a1 1 0 1 0 0 2c.637 0 1.258-.175 1.747-.509.485-.331.926-.891.926-1.634 0-.664.016-.896.078-1.063.036-.096.118-.257.568-.564.371-.254.681-.682.681-1.23s-.31-.976-.681-1.23c-.45-.307-.532-.468-.568-.564-.062-.167-.078-.4-.078-1.063 0-.743-.441-1.303-.926-1.634C15.257 7.175 14.637 7 14 7" clip-rule="evenodd"/></svg>