<svg xmlns="http://www.w3.org/2000/svg" fill="none" viewBox="0 0 24 24"><path fill="currentColor" fill-rule="evenodd" d="m11.935 10.882-.649-2.03a.75.75 0 1 1 1.428-.45c.26.8.788 2.46.788 2.46zM8 20.125c0 1.39-1.119 2.5-2.5 2.5s-2.5-1.11-2.5-2.5 1.119-2.5 2.5-2.5a2.5 2.5 0 0 1 2.5 2.5m8 0c0 1.39 1.119 2.5 2.5 2.5s2.5-1.11 2.5-2.5-1.119-2.5-2.5-2.5a2.5 2.5 0 0 0-2.5 2.5" clip-rule="evenodd"/><path fill="currentColor" fill-rule="evenodd" d="M11.6 1.863c.076-.12.375-.55.924-.48.548.07.734.56.781.69.062.17.112.39.158.6l.446 2.02c.073.33.11.49.235.55.12.067.27.004.556-.117l.032-.013L16 4.563c.167-.07.36-.15.524-.2.147-.04.597-.14.958.21.36.36.267.81.231.95-.037.16-.108.336-.173.498l-.013.032-.82 1.95c-.236.57-.437 1.04-.645 1.42-.22.4-.48.74-.868 1-.387.25-.804.36-1.257.41l-.434.03-1.567.02h-.642c-.591 0-1.059 0-1.5-.16-.443-.15-.809-.44-1.272-.81l-1.608-1.28c-.126-.1-.277-.23-.385-.35s-.369-.45-.248-.9c.121-.46.513-.61.666-.66.128-.042.283-.07.424-.095l.085-.015h.002c.347-.06.521-.09.59-.22l.004-.01q.003-.003.004-.01c.062-.13-.016-.29-.17-.6l-.725-1.48a7 7 0 0 1-.28-.63 1.3 1.3 0 0 1-.077-.43.89.89 0 0 1 .942-.88c.173.01.323.06.418.1.181.08.4.2.611.32l1.27.73.033.02c.237.137.36.208.478.17.124-.04.191-.17.324-.44l.421-.85c.095-.19.197-.39.3-.54M1.018 7.942c.105-.55.63-.9 1.172-.8.434.09.883.32 1.095.44 1.081.56 1.757 1.54 2.271 2.36q.168.27.316.514l.016.026.015.024c.388.639.705 1.161 1.117 1.566.128.1.454.34.738.46.153.07.296.125.445.182l.2.078c.146.05.303.11.484.18.82.33 1.887.85 2.381 2.13.234.61.233 1.299.232 2.148v.932c0 .42 0 .84-.045 1.18-.052.38-.177.82-.54 1.18s-.8.49-1.184.54l-.346.03c-.134.01-.233-.12-.207-.25a3.75 3.75 0 1 0-7.361-.03c.026.14-.089.27-.219.21a1 1 0 0 1-.598-.91v-7c0-.56.448-1 1-1h2.186c.158 0 .254-.18.171-.32q-.125-.195-.24-.39-.134-.225-.257-.42c-.503-.81-.938-1.36-1.498-1.65a4 4 0 0 0-.505-.228l-.03-.012h-.001c-.01 0-.02 0-.03-.01a.995.995 0 0 1-.778-1.16m21.964 0c-.105-.55-.629-.9-1.17-.8-.436.09-.885.32-1.097.44-1.08.56-1.757 1.54-2.27 2.36q-.169.27-.317.514l-.016.026-.014.024c-.389.639-.706 1.161-1.118 1.566-.127.1-.454.34-.737.46-.152.07-.294.124-.443.18l-.203.08c-.146.05-.303.11-.484.18-.819.33-1.886.85-2.38 2.13-.234.61-.234 1.3-.233 2.15v.93c0 .42 0 .84.046 1.18.051.38.177.82.54 1.18s.8.49 1.184.54l.345.03c.134.01.233-.12.207-.25a3.744 3.744 0 0 1 3.678-4.48 3.744 3.744 0 0 1 3.684 4.45c-.027.14.088.27.218.21a1 1 0 0 0 .598-.91v-7c0-.56-.448-1-1-1h-2.185c-.159 0-.255-.18-.172-.32q.126-.195.241-.39.134-.225.256-.42c.504-.81.938-1.36 1.5-1.65.133-.083.366-.174.501-.227l.034-.013c.01 0 .02 0 .03-.01a.994.994 0 0 0 .777-1.16" clip-rule="evenodd" opacity=".4"/></svg>