<svg xmlns="http://www.w3.org/2000/svg" fill="none" viewBox="0 0 24 24"><path fill="currentColor" d="M2.75 9.948v4.11c0 1.84 0 3.29.15 4.43.16 1.17.49 2.12 1.24 2.87s1.7 1.08 2.87 1.24c1.14.15 2.6.15 4.43.15h1.12c1.83 0 3.29 0 4.43-.15 1.17-.16 2.12-.49 2.87-1.24s1.08-1.7 1.24-2.87c.15-1.14.15-2.6.15-4.43v-4.11c0-1.84 0-3.29-.15-4.43-.16-1.17-.49-2.12-1.24-2.87s-1.7-1.08-2.87-1.24c-1.14-.15-2.6-.15-4.43-.15H9.65l.84.7c.36.31.78.7 1.12 1.12.17.21.37.48.53.79.16.3.36.78.36 1.38s-.2 1.09-.36 1.38c-.16.31-.36.58-.53.79-.34.42-.76.8-1.12 1.12l-1.61 1.35a2.252 2.252 0 0 1-3.67-2.39H2.77c-.02.73-.02 1.54-.02 2.44z" opacity=".4"/><path fill="currentColor" fill-rule="evenodd" d="M8.04 1.546a.996.996 0 1 0-1.41 1.41l1.54 1.29H3.75c-.55 0-1 .45-1 1s.45 1 1 1h4.42l-1.54 1.29a.996.996 0 1 0 1.41 1.41l1.63-1.36c.34-.3.7-.63.98-.97.14-.17.28-.36.39-.57.1-.2.21-.48.21-.81s-.11-.61-.21-.81c-.11-.21-.25-.4-.39-.57-.28-.34-.64-.67-.98-.97l-1.63-1.36zm4.71 5.46c0-.41.34-.75.75-.75h4c.41 0 .75.34.75.75s-.34.75-.75.75h-4c-.41 0-.75-.34-.75-.75m0 10c0-.41.34-.75.75-.75h4c.41 0 .75.34.75.75s-.34.75-.75.75h-4c-.41 0-.75-.34-.75-.75m.75-5.75c-.41 0-.75.34-.75.75s.34.75.75.75h4c.41 0 .75-.34.75-.75s-.34-.75-.75-.75zm-1.83 2.42c.19.37.04.82-.33 1.01-.8.4-1.46 1.24-1.94 2.08a11 11 0 0 0-.69 1.49c-.1.3-.37.5-.68.51s-.6-.17-.72-.45c-.2-.48-.48-.75-.7-.9-.1-.08-.24-.15-.32-.18a.75.75 0 0 1-.51-.92c.11-.4.52-.63.92-.52.2.06.59.26.79.4.11.08.23.18.35.3.08-.15.17-.31.26-.47.52-.91 1.36-2.07 2.56-2.67.38-.18.83-.04 1.01.34z" clip-rule="evenodd"/></svg>