<svg xmlns="http://www.w3.org/2000/svg" fill="none" viewBox="0 0 24 24"><path fill="currentColor" d="M12.057 1.75c2.19 0 3.912 0 5.255.18 1.377.186 2.469.573 3.327 1.43.858.86 1.245 1.951 1.43 3.328.181 1.343.181 3.064.181 5.255v.114c0 2.19 0 3.912-.18 5.255-.186 1.377-.573 2.469-1.43 3.327-.86.858-1.951 1.245-3.328 1.43-1.343.181-3.064.181-5.255.181h-.114c-2.19 0-3.912 0-5.255-.18-1.377-.186-2.469-.573-3.327-1.43-.858-.86-1.245-1.951-1.43-3.328-.181-1.343-.181-3.064-.181-5.255v-.114c0-2.19 0-3.912.18-5.255.186-1.377.573-2.469 1.43-3.327.86-.858 1.951-1.245 3.328-1.43 1.343-.181 3.064-.181 5.255-.181z" opacity=".4"/><path fill="currentColor" fill-rule="evenodd" d="M6.885 7.617c.262-.257.605-.367.936-.367H9.25a2.75 2.75 0 1 1 0 5.5H8V16a.75.75 0 0 1-1.5 0V8.571c0-.347.12-.694.385-.954M8 11.25h1.25a1.25 1.25 0 1 0 0-2.5H8zm6.995-.835a.75.75 0 0 0-1.495.085V16a.75.75 0 0 0 1.5 0v-3.254l.162-.226a8 8 0 0 1 .518-.677c.269-.306.51-.482.77-.554q.132-.037.3-.039a.75.75 0 0 0 0-1.5q-.37 0-.7.093c-.42.116-.765.328-1.055.572" clip-rule="evenodd"/></svg>