<svg xmlns="http://www.w3.org/2000/svg" fill="none" viewBox="0 0 24 24"><path fill="currentColor" fill-rule="evenodd" d="M16.989 1.403c-1.14-.153-2.595-.153-4.433-.153h-1.112c-1.838 0-3.294 0-4.433.153-1.172.158-2.121.49-2.87 1.238-.748.749-1.08 1.698-1.238 2.87-.153 1.14-.153 2.595-.153 4.433V19.5A3.25 3.25 0 0 0 6 22.75h14.5a.75.75 0 0 0 0-1.5 1.75 1.75 0 1 1 0-3.5.75.75 0 0 0 .75-.75V9.944c0-1.838 0-3.294-.153-4.433-.158-1.172-.49-2.121-1.238-2.87-.749-.748-1.698-1.08-2.87-1.238M6 21.25a1.75 1.75 0 1 1 0-3.5h11.76a3.24 3.24 0 0 0-.51 1.75c0 .644.188 1.245.51 1.75z" clip-rule="evenodd" opacity=".4"/><path fill="currentColor" fill-rule="evenodd" d="M8.747 7.248c.201-.622.793-.998 1.407-.998s1.206.376 1.407.998l1.46 4.521a.75.75 0 0 1-1.427.462l-.317-.981H9.031l-.317.98a.75.75 0 0 1-1.427-.46zm.768 2.502h1.278l-.639-1.977zM15 6.25a.75.75 0 0 1 .75.75v5a.75.75 0 0 1-1.5 0V7a.75.75 0 0 1 .75-.75" clip-rule="evenodd"/></svg>