<svg xmlns="http://www.w3.org/2000/svg" fill="none" viewBox="0 0 24 24"><path fill="currentColor" d="M5.532 17.854c.28-.68.81-1.21 1.57-1.97l8.33-8.33c.45-.46.81-.81 1.21-1.01.76-.38 1.66-.38 2.42 0 .4.2.93.72 1.38 1.18s.81.81 1.01 1.21c.38.76.38 1.66 0 2.42-.2.4-.55.76-1.01 1.21l-8.34 8.33c-.76.76-1.29 1.29-1.97 1.57s-1.43.28-2.51.28h-1.64c-.41 0-.75-.34-.75-.75v-1.64c0-1.07 0-1.82.28-2.51z" opacity=".4"/><path fill="currentColor" fill-rule="evenodd" d="M7.274 1.615a.556.556 0 0 0-1.04 0l-.8 2.16c-.11.3-.35.54-.65.65l-2.16.8c-.48.18-.48.86 0 1.04l2.16.8c.3.11.54.35.65.65l.8 2.16c.18.48.86.48 1.04 0l.8-2.16c.11-.3.35-.54.65-.65l2.16-.8c.48-.18.48-.86 0-1.04l-2.16-.8c-.3-.11-.54-.35-.65-.65zm7.128 6.972-1.06 1.06 2.63 2.63c.29.29.77.29 1.06 0s.29-.77 0-1.06z" clip-rule="evenodd"/></svg>