<svg xmlns="http://www.w3.org/2000/svg" fill="none" viewBox="0 0 24 24"><path fill="currentColor" fill-rule="evenodd" d="M4.15 9.85c0-3.675 2.968-6.671 6.65-6.671.525 0 .95-.432.95-.965a.957.957 0 0 0-.95-.964c-4.713 0-8.55 3.841-8.55 8.6 0 1.622.447 3.141 1.224 4.437.273.455.858.6 1.306.322a.973.973 0 0 0 .317-1.325A6.65 6.65 0 0 1 4.15 9.85m11.06 6.155C15.103 16 14.974 16 14.843 16H7.157c-.13 0-.26 0-.368.005a1.8 1.8 0 0 0-.428.066c-.498.15-.834.515-.86.929a.9.9 0 0 0 .055.336c.331 1.682 1.016 2.164 1.6 2.164h7.687c.585 0 1.27-.482 1.601-2.164A.9.9 0 0 0 16.5 17c-.026-.414-.362-.778-.86-.929a1.8 1.8 0 0 0-.428-.066" clip-rule="evenodd" opacity=".4"/><path fill="currentColor" fill-rule="evenodd" d="M15.25 3a.75.75 0 0 0-1.5 0v1.3c-.34.053-.694.169-.987.463-.294.293-.41.647-.462.987H11a.75.75 0 0 0 0 1.5h1.25v1.5H11a.75.75 0 0 0 0 1.5h1.3c.053.34.169.694.463.987.293.294.647.41.987.462V13a.75.75 0 0 0 1.5 0v-1.25h1.5V13a.75.75 0 0 0 1.5 0v-1.3c.34-.053.694-.169.987-.463.294-.293.41-.647.462-.987H21a.75.75 0 0 0 0-1.5h-1.25v-1.5H21a.75.75 0 0 0 0-1.5h-1.3c-.053-.34-.169-.694-.463-.987-.293-.294-.647-.41-.987-.462V3a.75.75 0 0 0-1.5 0v1.25h-1.5zm-4.348 19.752c-.816 0-1.225 0-1.57-.1a2.23 2.23 0 0 1-1.26-.914c-.104-.16-.174-.346-.246-.609-.09-.33-.134-.495-.044-.613s.267-.118.621-.118h4.998c.354 0 .531 0 .621.118s.045.283-.044.613c-.072.263-.142.449-.246.61a2.23 2.23 0 0 1-1.26.912c-.346.1-.754.1-1.57.1" clip-rule="evenodd"/></svg>