<svg xmlns="http://www.w3.org/2000/svg" fill="none" viewBox="0 0 24 24"><path fill="currentColor" d="m4.25 6.594-.912.608c-.413.276-.766.51-1.041.734-.294.238-.543.496-.725.837-.2.376-.271.763-.3 1.183-.022.325-.02.71-.02 1.158v.024c.005 1.26.017 2.547.05 3.85v.059c.038 1.487.068 2.687.238 3.653.179 1.013.522 1.838 1.226 2.542.706.706 1.537 1.048 2.56 1.227.974.17 2.19.2 3.698.238l.058.002c1.951.049 3.885.049 5.836 0l.059-.002c1.508-.037 2.723-.068 3.699-.238 1.022-.179 1.853-.521 2.559-1.227.704-.704 1.047-1.529 1.226-2.542.17-.966.2-2.166.237-3.653l.002-.059c.032-1.303.044-2.59.048-3.85v-.024a16 16 0 0 0-.02-1.158c-.028-.42-.1-.807-.3-1.183-.181-.34-.43-.599-.724-.837-.275-.223-.628-.458-1.041-.734l-.913-.608v1.803l.053.035c.448.299.742.495.956.67.203.163.29.273.346.377a1 1 0 0 1 .059.144L14.701 13.5c-.764.459-1.291.774-1.729.98-.422.198-.705.267-.972.267-.266 0-.55-.069-.972-.267-.437-.206-.964-.521-1.729-.98L2.837 9.623a1 1 0 0 1 .06-.144c.054-.104.142-.214.344-.378.215-.174.508-.37.957-.669l.052-.035z" opacity=".4"/><path fill="currentColor" fill-rule="evenodd" d="M8.95 1.25h6.104c.898 0 1.648 0 2.242.08.628.084 1.195.27 1.65.725.456.456.642 1.023.726 1.65.08.595.08 1.345.08 2.243v4.527l-1.5.9V6c0-.964-.002-1.612-.067-2.095-.062-.461-.169-.659-.3-.789s-.327-.237-.788-.3c-.484-.064-1.131-.066-2.095-.066h-6c-.964 0-1.612.002-2.095.067-.461.062-.659.169-.789.3s-.237.327-.3.788c-.064.483-.066 1.131-.066 2.095v5.376l-1.5-.9V5.948c0-.899 0-1.648.08-2.242.084-.628.27-1.195.725-1.65.456-.456 1.023-.642 1.65-.726.595-.08 1.345-.08 2.243-.08m1.238 3c-.561 0-1.09.343-1.284.898L7.292 9.752a.75.75 0 1 0 1.416.496l.408-1.165h2.144l.407 1.165a.75.75 0 0 0 1.416-.496l-1.612-4.604a1.355 1.355 0 0 0-1.283-.898m0 1.77.547 1.563H9.64zM15.75 5a.75.75 0 0 0-1.5 0v5a.75.75 0 0 0 1.5 0z" clip-rule="evenodd"/></svg>