<svg xmlns="http://www.w3.org/2000/svg" fill="none" viewBox="0 0 24 24"><path fill="currentColor" fill-rule="evenodd" d="M3.252 11.532c0-4.3 3.48-7.78 7.78-7.78.53 0 .97.44.97.97s-.44.97-.97.97c-3.22 0-5.84 2.62-5.84 5.84s2.62 5.83 5.84 5.83a5.83 5.83 0 0 0 5.83-5.83c0-.54.44-.97.97-.97s.98.43.98.97c0 1.8-.61 3.45-1.64 4.77l3.3 3.29c.37.38.37 1 0 1.38-.38.37-1 .37-1.38 0l-3.29-3.3a7.7 7.7 0 0 1-4.77 1.64c-4.3 0-7.78-3.49-7.78-7.78" clip-rule="evenodd" opacity=".4"/><path fill="currentColor" d="M15.502 2.751c.31 0 .59.2.7.49l.26.7c.36.98.48 1.24.67 1.43s.45.31 1.43.67l.7.26c.29.11.49.39.49.7s-.2.59-.49.7l-.7.26c-.98.36-1.24.48-1.43.67s-.31.45-.67 1.43l-.26.7c-.11.29-.39.49-.7.49s-.59-.2-.7-.49l-.26-.7c-.36-.98-.48-1.24-.67-1.43s-.45-.31-1.43-.67l-.7-.26a.76.76 0 0 1-.49-.7c0-.31.2-.59.49-.7l.7-.26c.98-.36 1.24-.48 1.43-.67s.31-.45.67-1.43l.26-.7c.11-.29.39-.49.7-.49"/></svg>