<svg xmlns="http://www.w3.org/2000/svg" fill="none" viewBox="0 0 24 24"><path fill="currentColor" d="M22.69 12.305c-.03.07-.11.23-.16.33-.1.21-.26.5-.46.84-.41.69-1.04 1.61-1.9 2.53-1.71 1.85-4.39 3.74-8.17 3.74s-6.46-1.89-8.17-3.74c-.86-.92-1.49-1.84-1.9-2.53-.2-.35-.36-.63-.46-.84-.05-.1-.13-.27-.16-.33a.78.78 0 0 1 0-.6 12 12 0 0 1 .62-1.18c.41-.69 1.04-1.61 1.9-2.53 1.71-1.85 4.39-3.74 8.17-3.74 3.54 0 6.22 1.9 7.98 3.73.88.92 1.55 1.83 2 2.52.22.34.39.63.51.83.05.1.14.26.18.33.1.2.11.43.02.64" opacity=".4"/><path fill="currentColor" d="M11.629 8.205a.44.44 0 0 1 .74 0l.5.78c.55.86 1.28 1.6 2.15 2.15l.78.5c.27.17.27.57 0 .74l-.78.5c-.87.55-1.6 1.28-2.15 2.15l-.5.78a.44.44 0 0 1-.74 0l-.5-.78c-.55-.86-1.28-1.6-2.15-2.15l-.78-.5a.44.44 0 0 1 0-.74l.78-.5c.87-.55 1.6-1.28 2.15-2.15z"/></svg>