<svg xmlns="http://www.w3.org/2000/svg" fill="none" viewBox="0 0 24 24"><path fill="currentColor" fill-rule="evenodd" d="M5 20a1 1 0 0 1 1-1h16a1 1 0 1 1 0 2H6a1 1 0 0 1-1-1" clip-rule="evenodd"/><path fill="currentColor" d="M4.326 3.526c-.358-.054-.812-.048-1.212.246-.25.183-.391.43-.495.695-.266.674-.405 1.41-.59 2.11-.235.886-.424 1.601-.496 2.185-.075.606-.035 1.142.255 1.637.29.494.738.795 1.305 1.033.548.23 1.27.426 2.167.67l2.54.689a.1.1 0 0 1 .048.163L6.79 14.141c-.505.566-.216 1.445.496 1.639l2.323.63a2.54 2.54 0 0 0 1.947-.257l2.333-1.538a.48.48 0 0 1 .393-.064l5.3 1.44c.968.26 2.024-.49 1.91-1.594v-.004c-.378-3.421-3.162-6.12-6.548-6.406-1.43-.12-2.863-.228-4.293-.335q-1.065-.08-2.128-.162c-.633-.049-.877-.135-1.013-.254-.476-.41-.428-1.345-.56-1.917-.144-.62-.458-1.144-1.07-1.37-.489-.179-1.04-.346-1.553-.423" opacity=".4"/></svg>