<svg xmlns="http://www.w3.org/2000/svg" fill="none" viewBox="0 0 24 24"><path fill="currentColor" fill-rule="evenodd" d="M17.876 6.99c1.22.12 1.822.374 2.237.79.373.372.615.895.748 1.88.136 1.014.138 2.358.138 4.284s-.002 3.27-.138 4.284c-.133.985-.375 1.508-.748 1.881s-.896.615-1.881.748c-1.014.136-2.358.138-4.284.138s-3.27-.002-4.284-.138c-.985-.133-1.508-.375-1.88-.748-.306-.305-.524-.711-.666-1.39.834.031 1.786.031 2.872.031h.15c2.143 0 3.778 0 5.01-.252a.75.75 0 0 0 .562-.97c-.675-2.031-2.11-3.815-4.076-5.112-2.206-1.454-4.956-2.214-7.76-2.164q-.991 0-1.97.122a.75.75 0 0 0-.656.747c.005 1.545.03 2.772.203 3.752.178 1.009.522 1.816 1.196 2.487.648.645 1.446.98 2.408 1.161.164 1.195.512 2.202 1.312 3.002.806.806 1.822 1.154 3.029 1.316 1.163.156 2.641.156 4.477.156h.146c1.836 0 3.314 0 4.477-.156 1.207-.162 2.223-.51 3.03-1.316s1.152-1.821 1.315-3.029c.156-1.162.156-2.641.156-4.477v-.146c0-1.835 0-3.314-.156-4.477-.163-1.207-.51-2.223-1.316-3.029-.9-.9-2.06-1.228-3.456-1.365z" clip-rule="evenodd" opacity=".4"/><path fill="currentColor" fill-rule="evenodd" d="M10.073 1h-.146c-1.824 0-3.293 0-4.45.155-1.2.162-2.21.507-3.013 1.31-.802.802-1.147 1.813-1.309 3.013C1 6.634 1 8.103 1 9.927v.146c0 1.824 0 3.293.155 4.45.162 1.2.507 2.21 1.31 3.012.802.803 1.813 1.148 3.013 1.31C6.634 19 8.103 19 9.927 19h.146c1.824 0 3.293 0 4.45-.155 1.2-.162 2.21-.507 3.012-1.31.803-.802 1.148-1.812 1.31-3.013.155-1.156.155-2.625.155-4.449v-.146c0-1.824 0-3.293-.155-4.45-.162-1.2-.507-2.21-1.31-3.013-.802-.802-1.812-1.147-3.013-1.309C13.366 1 11.897 1 10.073 1M3.88 3.879c.369-.37.887-.61 1.865-.741C6.751 3.002 8.086 3 10 3s3.249.002 4.256.138c.978.131 1.496.372 1.865.74.37.37.61.888.742 1.866C16.998 6.751 17 8.086 17 10s-.002 3.249-.137 4.256c-.132.978-.373 1.496-.742 1.865-.369.37-.887.61-1.865.742-1.007.135-2.342.137-4.256.137s-3.249-.002-4.256-.137c-.978-.132-1.496-.373-1.865-.742-.37-.369-.61-.887-.741-1.865C3.002 13.249 3 11.914 3 10s.002-3.249.138-4.256c.131-.978.372-1.496.74-1.865M13.244 5.5C12.557 5.5 12 6.06 12 6.75S12.557 8 13.244 8A1.26 1.26 0 0 0 14.5 6.75c0-.69-.573-1.25-1.256-1.25" clip-rule="evenodd"/></svg>