<svg xmlns="http://www.w3.org/2000/svg" fill="none" viewBox="0 0 24 24"><path fill="currentColor" d="M3.784 9.75a8.25 8.25 0 0 1 16.432 0h.284a2.25 2.25 0 0 1 0 4.5h-.25v4.805c0 .629 0 1.182-.062 1.608-.065.445-.225.96-.728 1.27-1.06.652-2.176.096-2.708-.209-.167-.128-.74-.516-1.003-.606-.259-.088-.437-.073-.577.01a9 9 0 0 0-.652.444c-.19.138-.516.376-.717.51-.477.318-1.096.668-1.803.668s-1.326-.35-1.803-.668a18 18 0 0 1-.593-.42 13 13 0 0 0-.776-.533c-.14-.085-.318-.099-.577-.01-.264.09-.836.477-1.003.605-.532.305-1.647.86-2.708.21-.503-.31-.663-.826-.728-1.271-.062-.426-.062-.98-.062-1.607V14.25H3.5a2.25 2.25 0 0 1 0-4.5z" opacity=".4"/><path fill="currentColor" fill-rule="evenodd" d="M3.547 1.265c.528-.09 1.036.233 1.134.721.056.28.241.761.598 1.18.343.401.816.717 1.482.79q.089.01.17.034a8.3 8.3 0 0 0-1.483 1.495A4.2 4.2 0 0 1 3.75 4.28c-.576-.675-.877-1.435-.984-1.966-.097-.489.252-.958.78-1.049M17.068 3.99a8.3 8.3 0 0 1 1.484 1.495A4.2 4.2 0 0 0 20.25 4.28c.576-.675.877-1.435.983-1.966.098-.489-.25-.958-.78-1.049-.528-.09-1.036.233-1.134.721-.056.28-.241.761-.598 1.18a2.2 2.2 0 0 1-1.482.79 1 1 0 0 0-.17.034M8.25 10a3.75 3.75 0 1 1 7.5 0 3.75 3.75 0 0 1-7.5 0m2.74 7a1 1 0 0 1 1-1H12a1 1 0 1 1 0 2h-.01a1 1 0 0 1-1-1" clip-rule="evenodd"/></svg>