<svg xmlns="http://www.w3.org/2000/svg" fill="none" viewBox="0 0 24 24"><path fill="currentColor" d="M23 12a1 1 0 0 1-1 1H2a1 1 0 1 1 0-2h20a1 1 0 0 1 1 1"/><path fill="currentColor" fill-rule="evenodd" d="M10.75 17.53V6.47c0-.44 0-.82-.028-1.13-.03-.33-.096-.655-.273-.963-.378-.654-.96-.934-1.514-1.047-.427-.087-.896-.082-1.252-.079l-.183.002-.183-.002c-.356-.003-.825-.008-1.252.08-.553.112-1.136.392-1.514 1.046-.177.308-.243.633-.273.962-.028.312-.028.69-.028 1.13V17.53c0 .44 0 .82.028 1.13.03.33.096.656.273.963.378.654.96.934 1.514 1.047.427.087.896.082 1.252.078h.366c.356.004.825.009 1.252-.078.553-.113 1.136-.393 1.514-1.047.177-.308.243-.633.273-.962.028-.312.028-.69.028-1.13m9-3.999V10.47c0-.44 0-.819-.028-1.13-.03-.33-.096-.655-.273-.962-.378-.654-.96-.934-1.514-1.047-.427-.087-.896-.082-1.252-.079l-.183.002-.183-.002c-.356-.003-.825-.008-1.252.08-.553.112-1.136.392-1.514 1.046-.177.307-.243.633-.273.962-.028.311-.028.69-.028 1.13v3.062c0 .44 0 .819.028 1.13.03.33.096.655.273.962.378.654.96.934 1.514 1.047.427.087.896.082 1.252.078h.366c.356.004.825.009 1.252-.078.553-.113 1.136-.393 1.514-1.047.177-.307.243-.633.273-.962.028-.311.028-.69.028-1.13" clip-rule="evenodd" opacity=".4"/></svg>