<svg xmlns="http://www.w3.org/2000/svg" fill="none" viewBox="0 0 24 24"><path fill="currentColor" fill-rule="evenodd" d="M17.935 7.33c-.427-.088-1.079-.082-1.435-.078-.356-.004-1.008-.01-1.435.077-.553.113-1.136.393-1.514 1.048-.177.307-.243.633-.273.962-.028.311-.028.69-.028 1.13v1.065c0 .44 0 .819.028 1.13.03.33.096.655.273.963.378.654.96.934 1.514 1.047.427.087 1.079.081 1.435.078.356.003 1.008.009 1.435-.078.553-.113 1.136-.393 1.514-1.047.177-.308.243-.634.273-.963.028-.311.028-.69.028-1.13v-1.065c0-.44 0-.819-.028-1.13-.03-.33-.096-.655-.273-.962-.378-.655-.96-.935-1.514-1.048m-9 0c-.427-.088-1.079-.082-1.435-.078-.356-.004-1.008-.01-1.435.077-.553.113-1.136.393-1.514 1.048-.177.307-.243.633-.273.962-.028.311-.028.69-.028 1.13v7.065c0 .44 0 .819.028 1.13.03.33.096.655.273.963.378.654.96.934 1.514 1.047.427.087 1.079.081 1.435.078.356.003 1.008.009 1.435-.078.553-.113 1.136-.393 1.514-1.047.177-.308.243-.633.273-.963.028-.311.028-.69.028-1.13v-7.065c0-.44 0-.819-.028-1.13-.03-.33-.096-.655-.273-.962-.378-.655-.96-.935-1.514-1.048" clip-rule="evenodd" opacity=".4"/><path fill="currentColor" fill-rule="evenodd" d="M23 4.25a1 1 0 0 0-1-1H2a1 1 0 1 0 0 2h20a1 1 0 0 0 1-1" clip-rule="evenodd"/></svg>