<svg xmlns="http://www.w3.org/2000/svg" fill="none" viewBox="0 0 24 24"><path fill="currentColor" d="M11.824 1.257a2.4 2.4 0 0 1 .352 0c.503.037.911.265 1.284.556.35.275.739.663 1.193 1.117l.242.207c.257.22.385.33.54.391.154.062.322.07.66.087l.372.019c.712 0 1.32 0 1.805.065.519.07 1.01.226 1.406.623.397.397.553.887.623 1.406.065.486.065 1.093.065 1.805l.019.372c.017.338.025.506.087.66s.171.283.391.54l.207.242c.454.454.842.842 1.117 1.193.291.373.519.78.556 1.284a2.3 2.3 0 0 1 0 .352c-.037.503-.264.911-.556 1.284-.275.35-.663.739-1.117 1.193l-.207.242c-.22.257-.33.385-.391.54-.062.154-.07.322-.087.66l-.019.372c0 .712 0 1.32-.065 1.805-.07.519-.226 1.01-.623 1.406-.397.397-.887.553-1.406.623-.486.065-1.093.065-1.805.065l-.43.03c-.338.023-.507.035-.66.1s-.28.178-.533.403l-.191.171c-.454.454-.842.842-1.193 1.117-.373.291-.78.519-1.284.556a2.3 2.3 0 0 1-.352 0c-.503-.037-.911-.264-1.284-.556-.35-.275-.739-.663-1.193-1.117l-.242-.207c-.257-.22-.385-.33-.54-.391-.154-.062-.322-.07-.66-.087l-.372-.019c-.712 0-1.32 0-1.805-.065-.519-.07-1.01-.226-1.406-.623-.397-.397-.553-.887-.623-1.406-.065-.486-.065-1.093-.065-1.805l-.019-.372c-.017-.338-.025-.506-.087-.66s-.171-.283-.391-.54l-.207-.242c-.454-.454-.842-.842-1.117-1.193-.291-.373-.519-.78-.556-1.284a2.4 2.4 0 0 1 0-.352c.037-.503.265-.911.556-1.284.275-.35.663-.739 1.117-1.193l.207-.242c.22-.257.33-.385.391-.54.062-.154.07-.322.087-.66l.019-.372c0-.712 0-1.32.065-1.805.07-.519.226-1.01.623-1.406.397-.397.887-.553 1.406-.623.486-.065 1.093-.065 1.805-.065l.43-.03c.338-.023.507-.035.66-.1s.28-.178.533-.403l.191-.171c.454-.454.842-.842 1.193-1.117.373-.291.78-.519 1.284-.556" opacity=".4"/><path fill="currentColor" fill-rule="evenodd" d="M12.75 8a.75.75 0 0 0-1.5 0v6.5a.75.75 0 0 1-1.5 0V10a.75.75 0 0 0-.897-.735c-.316.063-1.154.418-1.533.683-.776.543-1.57 1.502-1.57 3.052a.75.75 0 0 0 1.5 0c0-.95.525-1.538 1-1.87v3.37A2.25 2.25 0 0 0 12 16.177a2.25 2.25 0 0 0 3.75-1.677V10a.75.75 0 0 0-1.5 0v4.5a.75.75 0 0 1-1.5 0zm5.5 2a.75.75 0 0 0-1.5 0v6a.75.75 0 0 0 1.5 0z" clip-rule="evenodd"/></svg>