<svg xmlns="http://www.w3.org/2000/svg" fill="none" viewBox="0 0 24 24"><path fill="currentColor" fill-rule="evenodd" d="M9.964 10.635a1 1 0 0 1-.67 1.245c-.3.09-.677.246-1.028.443-.364.204-.627.41-.76.567l-.012.013c-.38.433-.494.767-.494 1.093v7a1 1 0 0 1-2 0v-7c0-.928.378-1.71.984-2.404.354-.416.848-.758 1.305-1.014.472-.264.983-.48 1.43-.614a1 1 0 0 1 1.245.671" clip-rule="evenodd" opacity=".4"/><path fill="currentColor" fill-rule="evenodd" d="M11.96 4c-1.111 0-2.016.208-2.747.585l-.01.004C7.958 5.215 7.002 6.417 7 7.806v.026l.006.105c.006.094.018.222.042.359a2 2 0 0 0 .096.368c.037.096.065.13.065.13l-.002-.001a1 1 0 0 1 .147.187c.051.083.256.261.734.486.212.1.437.192.666.282l.14.055c.176.068.36.14.512.206a1 1 0 1 1-.8 1.833c-.112-.049-.244-.1-.411-.165l-.173-.068a13 13 0 0 1-.787-.334c-.47-.22-1.129-.58-1.526-1.157-.42-.479-.569-1.117-.632-1.48A5.5 5.5 0 0 1 5 7.836v-.027h1-1c0-2.35 1.587-4.142 3.302-5.005C9.37 2.254 10.602 2 11.96 2c1.202 0 2.335.225 3.387.686C17.797 3.712 19 6.144 19 8.716V21a1 1 0 1 1-2 0V8.716c0-1.985-.903-3.55-2.431-4.188l-.017-.008C13.769 4.177 12.91 4 11.96 4" clip-rule="evenodd"/></svg>