<svg xmlns="http://www.w3.org/2000/svg" fill="none" viewBox="0 0 24 24"><path fill="currentColor" fill-rule="evenodd" d="M9 4c0-.55-.45-1-1-1s-1 .45-1 1v16c0 .55.45 1 1 1s1-.45 1-1zm8 3c0-.55-.45-1-1-1s-1 .45-1 1v13c0 .55.45 1 1 1s1-.45 1-1z" clip-rule="evenodd"/><path fill="currentColor" fill-rule="evenodd" d="M4 8c.55 0 1 .45 1 1v11c0 .55-.45 1-1 1s-1-.45-1-1V9c0-.55.45-1 1-1m8 2c.55 0 1 .45 1 1v9c0 .55-.45 1-1 1s-1-.45-1-1v-9c0-.55.45-1 1-1m9 4c0-.55-.45-1-1-1s-1 .45-1 1v6c0 .55.45 1 1 1s1-.45 1-1z" clip-rule="evenodd" opacity=".4"/></svg>