<svg xmlns="http://www.w3.org/2000/svg" fill="none" viewBox="0 0 24 24"><path fill="currentColor" d="M12.054 1.75c2.07 0 3.69 0 4.97.16 1.31.15 2.35.48 3.21 1.22.23.19.44.41.64.64.73.85 1.06 1.9 1.22 3.21.16 1.27.16 3 .16 5.07s0 3.7-.16 4.97c-.16 1.31-.49 2.36-1.22 3.21-.2.23-.41.45-.64.64-.86.74-1.9 1.07-3.21 1.22-1.28.16-2.9.16-4.97.16s-3.8 0-5.08-.16c-1.31-.15-2.35-.48-3.21-1.22-.23-.19-.44-.41-.64-.64-.73-.85-1.06-1.9-1.22-3.21-.16-1.27-.16-2.9-.16-4.97s0-3.8.16-5.07c.16-1.31.49-2.36 1.22-3.21.2-.23.41-.45.64-.64.86-.74 1.9-1.07 3.21-1.22 1.28-.16 3-.16 5.08-.16" opacity=".4"/><path fill="currentColor" d="M16.474 5.92c.17.14.28.35.28.58v8.65c0 .72-.43 1.36-1.1 1.63l-.92.37c-.95.37-1.98-.32-1.98-1.34 0-.6.37-1.14.93-1.35l1.57-.6V9.12l-5 .99v6.54c0 .72-.43 1.36-1.1 1.63l-.92.37a1.443 1.443 0 1 1-1.05-2.69l1.57-.6V7.82c0-.36.25-.67.6-.74l6.5-1.32c.22-.04.45.02.62.16"/></svg>