<svg xmlns="http://www.w3.org/2000/svg" fill="none" viewBox="0 0 24 24"><path fill="currentColor" d="M1.25 12C1.25 6.063 6.063 1.25 12 1.25S22.75 6.063 22.75 12 17.937 22.75 12 22.75 1.25 17.937 1.25 12" opacity=".4"/><path fill="currentColor" fill-rule="evenodd" d="M9.405 9.006c-.415-.039-.95.095-1.637.92a1 1 0 0 1-1.536-1.281c.98-1.176 2.111-1.749 3.363-1.63 1.156.11 2.189.798 3.065 1.567.79.694 1.424 1.03 1.935 1.079.415.04.95-.095 1.637-.92a1 1 0 1 1 1.536 1.282c-.98 1.175-2.111 1.748-3.363 1.629-1.156-.11-2.189-.798-3.065-1.567-.79-.694-1.424-1.03-1.935-1.079m0 5.334c-.415-.04-.95.094-1.637.918a1 1 0 0 1-1.536-1.28c.98-1.175 2.111-1.748 3.363-1.63 1.156.11 2.189.798 3.065 1.567.79.694 1.424 1.03 1.935 1.079.415.04.95-.095 1.637-.919a1 1 0 0 1 1.536 1.28c-.98 1.176-2.111 1.749-3.363 1.63-1.156-.11-2.189-.798-3.065-1.567-.79-.693-1.424-1.03-1.935-1.078" clip-rule="evenodd"/></svg>