<svg xmlns="http://www.w3.org/2000/svg" fill="none" viewBox="0 0 24 24"><path fill="currentColor" d="M7.222 7.953a.75.75 0 0 1 .749-.703h8.058a.75.75 0 0 1 .749.703c.046.738.176 1.323.433 1.71.216.326.567.587 1.313.587q.18 0 .338-.03a.75.75 0 0 1 .888.736v5.099c0 1.367 0 2.47-.116 3.337-.122.9-.38 1.658-.982 2.26s-1.36.86-2.26.982c-.867.116-1.97.116-3.337.116h-2.11c-1.367 0-2.47 0-3.337-.116-.9-.122-1.658-.38-2.26-.982s-.86-1.36-.981-2.26c-.117-.867-.117-1.97-.117-3.337v-5.098a.75.75 0 0 1 .888-.738q.158.03.338.031c.746 0 1.098-.26 1.313-.586.257-.388.387-.973.433-1.711" opacity=".4"/><path fill="currentColor" fill-rule="evenodd" d="M9.06 6.023c0-1.578 1.313-2.864 2.94-2.864s2.94 1.286 2.94 2.864q-.001.199-.005.437c-.012.823-.03 1.951.234 2.893.165.592.462 1.21 1.015 1.678.568.481 1.305.719 2.177.719 3.278 0 4.6-4.147 2.053-6.014a.99.99 0 0 0-1.365.192.94.94 0 0 0 .196 1.336c1.079.79.48 2.577-.884 2.577-.498 0-.753-.128-.9-.253-.164-.138-.307-.367-.41-.738-.184-.655-.175-1.442-.165-2.268q.004-.278.004-.56c0-2.639-2.193-4.772-4.89-4.772S7.11 3.383 7.11 6.023q0 .281.005.559c.009.826.018 1.613-.165 2.268-.104.37-.247.6-.41.738-.148.125-.403.253-.901.253-1.364 0-1.963-1.787-.884-2.577a.94.94 0 0 0 .196-1.336.99.99 0 0 0-1.365-.192C1.04 7.602 2.361 11.75 5.64 11.75c.872 0 1.609-.238 2.177-.719.553-.468.85-1.086 1.015-1.678.263-.942.246-2.07.234-2.893zM11.4 12.5h1.2c1.131 0 1.697 0 2.049.351.351.352.351.918.351 2.049v1.2c0 1.131 0 1.697-.351 2.048-.352.352-.918.352-2.049.352h-1.2c-1.131 0-1.697 0-2.049-.352C9 17.798 9 17.231 9 16.1v-1.2c0-1.131 0-1.697.351-2.049.352-.351.918-.351 2.049-.351" clip-rule="evenodd"/></svg>