<svg xmlns="http://www.w3.org/2000/svg" fill="none" viewBox="0 0 24 24"><path fill="currentColor" d="M15.646 2.327c.449-.082.867-.112 1.291-.022.661.141 1.26.489 1.712.993.29.322.472.7.626 1.131.148.417.288.94.458 1.58l2.551 9.56c.17.639.31 1.162.39 1.597.081.45.11.87.021 1.293a3.2 3.2 0 0 1-.987 1.717c-.321.29-.699.475-1.129.63-.414.148-.936.288-1.572.46l-.061.016c-.637.171-1.158.311-1.592.39-.449.083-.868.113-1.291.023a3.2 3.2 0 0 1-1.712-.993c-.29-.322-.472-.7-.626-1.132-.148-.416-.288-.94-.458-1.579l-2.551-9.56c-.17-.639-.31-1.162-.39-1.597-.081-.45-.11-.87-.021-1.293.14-.662.485-1.264.987-1.717.321-.29.699-.475 1.129-.63.414-.148.936-.288 1.572-.46l.061-.016c.637-.171 1.158-.312 1.592-.39" opacity=".4"/><path fill="currentColor" fill-rule="evenodd" d="M6.031 2.25c.674 0 1.225 0 1.672.037.463.037.882.118 1.272.317a3.25 3.25 0 0 1 1.42 1.42c.2.391.28.81.318 1.273.037.447.037.998.037 1.672V17.03c0 .674 0 1.225-.037 1.672-.037.463-.118.882-.317 1.273a3.25 3.25 0 0 1-1.42 1.42c-.391.199-.81.28-1.273.317-.447.037-.998.037-1.672.037H5.97c-.674 0-1.225 0-1.672-.037-.463-.037-.882-.118-1.272-.317a3.25 3.25 0 0 1-1.42-1.42c-.2-.391-.28-.81-.318-1.273-.037-.447-.037-.998-.037-1.672V6.97c0-.674 0-1.225.037-1.672.037-.463.118-.882.317-1.272a3.25 3.25 0 0 1 1.42-1.42c.391-.2.81-.28 1.273-.318.447-.037.998-.037 1.672-.037zM5 17c0-.552.446-1 .996-1h.008c.55 0 .996.448.996 1s-.446 1-.996 1h-.008A1 1 0 0 1 5 17M4 6a1 1 0 0 0 0 2h4a1 1 0 1 0 0-2zm13.831.206a1 1 0 0 1-.662 1.25l-3.25 1a1 1 0 1 1-.588-1.911l3.25-1a1 1 0 0 1 1.25.661m-.312 9.526a1 1 0 0 0-.703 1.223c.143.534.69.85 1.22.709l.009-.003a1 1 0 0 0 .703-1.223 1 1 0 0 0-1.22-.709z" clip-rule="evenodd"/></svg>