<svg xmlns="http://www.w3.org/2000/svg" fill="none" viewBox="0 0 24 24"><path fill="currentColor" fill-rule="evenodd" d="M13.18 1.79c-.476-.405-1.004-.535-1.546-.54-.464-.004-1.074.097-1.643.191-3.284.543-5.493 1.898-6.72 3.087-.296.287-.556.54-.789 1.09-.233.552-.232 1.022-.232 1.536v8.809c0 1.327 0 2.42.117 3.287.123.91.39 1.713 1.035 2.355s1.448.907 2.358 1.029c.869.116 1.967.116 3.3.116h10.606c.448 0 .883-.105 1.252-.367.37-.264.585-.623.7-.973.213-.646.126-1.371.03-1.877a5.88 5.88 0 0 0-2.888-4.009c-.541-.305-1.143-.572-1.686-.812l-2.062-1c-.388-.247-.645-.507-.797-.839-.155-.34-.176-.762-.176-2.223V5.047c0-.655 0-1.255-.077-1.744-.086-.55-.287-1.09-.782-1.512M9.583 16.746c.796-.927 2.01-1.648 3.374-1.9.129-.023.193-.035.257-.018.065.017.124.067.243.165q.249.206.508.37c.459.292.976.528 1.41.725l1.247.572c.37.17.555.255.587.4.032.147-.11.314-.396.647a6.4 6.4 0 0 0-1.341 2.597c-.062.244-.093.366-.174.43-.082.063-.2.063-.436.063H9.13c-1.42 0-2.386-.002-3.11-.1-.697-.093-1.021-.258-1.242-.477-.22-.22-.384-.54-.477-1.23a12 12 0 0 1-.086-1.252c-.005-.21-.008-.314.052-.396s.157-.112.353-.171c.216-.065.438-.124.594-.15.464-.117.96.11 1.187.26l.05.032.037.02c.318.156.532.242.846.318a1.95 1.95 0 0 0 1.177-.054c.41-.154.761-.45 1.073-.851" clip-rule="evenodd" opacity=".4"/><path fill="currentColor" fill-rule="evenodd" d="M9 6a1 1 0 0 1 1-1h.009a1 1 0 1 1 0 2H10a1 1 0 0 1-1-1M2.25 9.25h3.81a.75.75 0 0 0 0-1.5H2.25zm0 3.5H5a.75.75 0 0 0 0-1.5H2.25zM10 9a1 1 0 0 0 0 2h.009a1 1 0 1 0 0-2z" clip-rule="evenodd"/></svg>