<svg xmlns="http://www.w3.org/2000/svg" fill="none" viewBox="0 0 24 24"><path fill="currentColor" fill-rule="evenodd" d="M4.944 4.83A1 1 0 0 0 6 4.867V8.5c0 .187 0 .28-.04.35a.3.3 0 0 1-.11.11C5.78 9 5.687 9 5.5 9a1 1 0 1 0 0 2h3a1 1 0 1 0 0-2c-.187 0-.28 0-.35-.04a.3.3 0 0 1-.11-.11C8 8.78 8 8.687 8 8.5V3.895c0-.236 0-.539-.046-.787a1.5 1.5 0 0 0-.234-.574 1.25 1.25 0 0 0-.654-.474c-.533-.165-.99.047-1.22.183a3 3 0 0 0-.624.514 5 5 0 0 0-.39.462l-.163.225a1 1 0 0 0 .275 1.387M7 13h-.05c-.428 0-.833 0-1.164.039-.361.042-.786.145-1.152.465-.384.337-.528.758-.586 1.134C4 14.954 4 15.331 4 15.694v.112c0 .363 0 .74.048 1.056.058.376.202.798.586 1.134.366.32.79.423 1.152.465.331.04.736.04 1.164.039h.45c.285 0 .428 0 .516.09s.085.23.08.51c-.006.24-.017.418-.04.563a.7.7 0 0 1-.046.189l-.006.01-.002.001c-.002.002-.058.059-.373.096-.336.04-.797.041-1.529.041H5a1 1 0 1 0 0 2h1.056c.66 0 1.24 0 1.707-.055.497-.058 1.017-.193 1.456-.577.458-.4.638-.906.715-1.401.066-.434.066-.965.066-1.527v-2.746c0-.363 0-.74-.048-1.056-.058-.376-.201-.797-.586-1.134-.366-.32-.79-.423-1.152-.465-.331-.04-.736-.04-1.164-.039zm.912 3.412c-.088.088-.23.088-.512.088H7c-.496 0-.78-.002-.98-.025l-.005-.005a4 4 0 0 1-.01-.203A19 19 0 0 1 6 15.75c0-.21 0-.375.004-.517q.004-.125.01-.203.002-.004.006-.005c.2-.023.484-.025.98-.025s.78.002.98.025q.005 0 .005.005.007.078.01.204c.005.14.005.306.005.516v.15c0 .283 0 .424-.088.512" clip-rule="evenodd" opacity=".4"/><path fill="currentColor" fill-rule="evenodd" d="M17.756 4a1 1 0 0 0-2 0v12.5h-.594c-.176 0-.392 0-.568.022h-.003c-.127.016-.703.088-.977.653-.275.567.027 1.067.092 1.176l.002.004c.093.153.227.323.337.464l.024.03c.294.376.676.86 1.057 1.251.19.195.407.397.638.556.205.14.555.344.986.344s.78-.203.986-.344c.231-.16.448-.36.638-.556.38-.39.763-.875 1.057-1.25l.024-.03c.11-.142.244-.312.337-.465l.002-.004c.065-.109.367-.609.092-1.176-.274-.565-.85-.637-.976-.653h-.004c-.176-.022-.392-.022-.568-.022h-.582z" clip-rule="evenodd"/></svg>