<svg xmlns="http://www.w3.org/2000/svg" fill="none" viewBox="0 0 24 24"><path fill="currentColor" fill-rule="evenodd" d="M21.707 2.29a1 1 0 0 0-1.414 0l-4.405 4.405 1.414 1.414 4.405-4.405a1 1 0 0 0 0-1.414M2.293 21.702a1 1 0 0 0 1.414 0l4.405-4.405-1.414-1.414-4.405 4.405a1 1 0 0 0 0 1.414" clip-rule="evenodd" opacity=".4"/><path fill="currentColor" fill-rule="evenodd" d="M15.171 11.492c.644-.016 1.363-.103 1.922-.17l.134-.016c.177-.021.392-.047.565-.09l.005-.001c.123-.03.69-.17.895-.765.205-.594-.15-1.052-.23-1.154v-.002a5 5 0 0 0-.386-.415L15.118 5.92a5 5 0 0 0-.415-.385l-.002-.002c-.102-.078-.56-.434-1.153-.229-.596.206-.735.772-.766.896v.004c-.044.173-.07.388-.09.565l-.017.134c-.067.559-.154 1.279-.17 1.922-.009.34 0 .7.056 1.03.05.293.163.741.5 1.08.339.337.787.45 1.08.5.33.055.69.065 1.03.056M8.83 12.495c-.644.016-1.363.103-1.922.17l-.134.016c-.177.022-.392.047-.565.09l-.005.001c-.123.03-.69.17-.895.766-.205.593.15 1.051.23 1.153v.002c.11.14.262.292.386.415l2.958 2.958c.123.124.275.276.415.385l.002.002c.102.079.56.434 1.153.23.596-.207.736-.773.766-.896v-.005c.044-.173.07-.388.09-.565l.017-.134c.067-.559.154-1.278.17-1.921.009-.34 0-.702-.056-1.03-.05-.294-.163-.742-.5-1.08-.339-.338-.787-.451-1.08-.5a5.5 5.5 0 0 0-1.03-.057" clip-rule="evenodd"/></svg>