<svg xmlns="http://www.w3.org/2000/svg" fill="none" viewBox="0 0 24 24"><path fill="currentColor" fill-rule="evenodd" d="M17.707 17.707a1 1 0 0 0 0-1.414l-11-11a1 1 0 0 0-1.414 1.414l11 11a1 1 0 0 0 1.414 0" clip-rule="evenodd" opacity=".4"/><path fill="currentColor" d="M17.244 18.71c.281-.082.663-.226.952-.515s.432-.67.514-.95c.09-.311.15-.662.192-1.015.082-.709.103-1.54.097-2.314a43 43 0 0 0-.114-2.745l-.02-.253v-.002a1 1 0 0 0-1.993.168l.018.232a43 43 0 0 1 .11 2.615c.005.742-.016 1.479-.085 2.067a5 5 0 0 1-.15.766 5 5 0 0 1-.767.151c-.588.069-1.325.09-2.066.084a41 41 0 0 1-2.616-.11l-.232-.017a1 1 0 0 0-.168 1.993h.002a49 49 0 0 0 .918.063c.552.031 1.3.065 2.08.07.773.007 1.605-.014 2.314-.096a6.3 6.3 0 0 0 1.014-.192"/></svg>