<svg xmlns="http://www.w3.org/2000/svg" fill="none" viewBox="0 0 24 24"><path fill="currentColor" fill-rule="evenodd" d="M12 2a1 1 0 0 1 1 1v18a1 1 0 1 1-2 0V3a1 1 0 0 1 1-1" clip-rule="evenodd" opacity=".4"/><path fill="currentColor" fill-rule="evenodd" d="M15 5.75a.75.75 0 0 0 .538-1.273 10 10 0 0 1-.548-.665 38 38 0 0 0-.824-1.024 9 9 0 0 0-.94-.976 3 3 0 0 0-.526-.37 1.5 1.5 0 0 0-.7-.192c-.276 0-.518.095-.7.193-.188.1-.366.232-.527.37a9 9 0 0 0-.94.975c-.273.323-.595.733-.823 1.024-.254.323-.435.549-.548.665A.75.75 0 0 0 9 5.75zm.538 13.773A.75.75 0 0 0 15 18.25H9a.75.75 0 0 0-.538 1.273c.113.116.294.342.548.665.228.29.55.701.824 1.024.294.347.618.702.94.976.16.137.338.269.526.37.182.097.424.192.7.192s.518-.095.7-.193c.188-.1.366-.232.527-.37a9 9 0 0 0 .94-.975c.273-.323.595-.733.823-1.024a10 10 0 0 1 .548-.665" clip-rule="evenodd"/></svg>