<svg xmlns="http://www.w3.org/2000/svg" fill="none" viewBox="0 0 24 24"><path fill="currentColor" fill-rule="evenodd" d="M5.418 5.418a1 1 0 0 0 0 1.414l7 7a1 1 0 0 0 1.414-1.414l-7-7a1 1 0 0 0-1.414 0" clip-rule="evenodd" opacity=".4"/><path fill="currentColor" d="M12.502 13.72c-.677.676-1.245 1.243-1.605 1.726s-.687 1.108-.432 1.812c.254.703.906.974 1.492 1.114s1.384.213 2.338.3l1.354.123c.562.051 1.061.096 1.463.076.435-.022.895-.126 1.264-.494.368-.37.472-.829.494-1.264.02-.402-.025-.901-.076-1.463l-.123-1.354c-.087-.954-.16-1.752-.3-2.338s-.41-1.238-1.114-1.492c-.704-.255-1.33.072-1.812.432-.483.36-1.05.928-1.727 1.605z"/></svg>