<svg xmlns="http://www.w3.org/2000/svg" fill="none" viewBox="0 0 24 24"><path fill="currentColor" d="M15.805 5.407a1 1 0 0 0-1.398-.212 53 53 0 0 0-3.062 2.457c-.763.662-1.551 1.396-2.157 2.081a7.4 7.4 0 0 0-.787 1.039C8.211 11.089 8 11.524 8 12s.21.911.401 1.228c.208.344.485.697.787 1.039.606.685 1.394 1.42 2.156 2.081a53 53 0 0 0 3.063 2.457A1 1 0 0 0 16 18V6a1 1 0 0 0-.195-.593" opacity=".4"/><path fill="currentColor" d="M15.805 5.407a1 1 0 0 0-1.398-.212 53 53 0 0 0-3.062 2.457c-.763.662-1.551 1.396-2.157 2.081-.302.342-.58.695-.787 1.039C8.211 11.089 8 11.524 8 12s.21.911.401 1.228c.208.344.485.697.787 1.039.468.53 1.046 1.089 1.636 1.62L16 10.713V6a1 1 0 0 0-.195-.593"/></svg>