<svg xmlns="http://www.w3.org/2000/svg" fill="none" viewBox="0 0 24 24"><path fill="currentColor" fill-rule="evenodd" d="M19.5 9.5C19.5 5.245 16.378 2 12 2a1 1 0 0 0 0 2c3.252 0 5.5 2.329 5.5 5.5v11a1 1 0 0 0 2 0zm-15 5c0 4.255 3.122 7.5 7.5 7.5a1 1 0 1 0 0-2c-3.252 0-5.5-2.329-5.5-5.5v-11a1 1 0 0 0-2 0z" clip-rule="evenodd" opacity=".4"/><path fill="currentColor" fill-rule="evenodd" d="M2.195 4.907A1 1 0 0 0 3 6.5h5.008a1 1 0 0 0 .797-1.593l-.002-.004c-.057-.075-.219-.289-.313-.409a23 23 0 0 0-.738-.9 11 11 0 0 0-.921-.953 3.7 3.7 0 0 0-.518-.39C6.155 2.156 5.86 2 5.5 2s-.655.156-.813.25a3.7 3.7 0 0 0-.518.391c-.314.278-.639.628-.921.953a23 23 0 0 0-1.05 1.31zm19.61 14.186a1 1 0 0 0-.81-1.593H16a1 1 0 0 0-.805 1.593l.002.004c.057.075.219.289.313.409.189.243.451.57.738.9.282.325.607.675.921.953.156.137.333.278.518.39.158.095.452.251.813.251s.655-.156.813-.251c.185-.112.362-.253.518-.39.314-.278.639-.628.921-.953a22 22 0 0 0 1.05-1.31z" clip-rule="evenodd"/></svg>