<svg xmlns="http://www.w3.org/2000/svg" fill="none" viewBox="0 0 24 24"><path fill="currentColor" fill-rule="evenodd" d="M9 3a1 1 0 0 0-2 0v1.5a1 1 0 0 0 2 0zm8 0a1 1 0 1 0-2 0v1.5a1 1 0 1 0 2 0zm2.5 4a1 1 0 1 0 0 2H21a1 1 0 1 0 0-2zm0 8a1 1 0 1 0 0 2H21a1 1 0 1 0 0-2zM8 18.5a1 1 0 0 1 1 1V21a1 1 0 1 1-2 0v-1.5a1 1 0 0 1 1-1m8 0a1 1 0 0 1 1 1V21a1 1 0 1 1-2 0v-1.5a1 1 0 0 1 1-1M3 7a1 1 0 0 0 0 2h1.5a1 1 0 0 0 0-2zm0 8a1 1 0 1 0 0 2h1.5a1 1 0 1 0 0-2z" clip-rule="evenodd"/><path fill="currentColor" d="M13.062 7c.654 0 1.242 0 1.717.064.52.07 1.052.232 1.489.668.436.437.598.97.668 1.489.064.476.064 1.063.064 1.717v2.124c0 .654 0 1.242-.064 1.717-.07.52-.232 1.052-.668 1.489-.437.436-.97.598-1.489.668-.476.064-1.063.064-1.717.064h-2.124c-.654 0-1.241 0-1.717-.064-.52-.07-1.052-.232-1.489-.668-.436-.437-.598-.97-.668-1.489C7 14.303 7 13.716 7 13.062v-2.124c0-.654 0-1.241.064-1.717.07-.52.232-1.052.668-1.489.437-.436.97-.598 1.489-.668C9.697 7 10.284 7 10.938 7z" opacity=".4"/></svg>