<svg xmlns="http://www.w3.org/2000/svg" fill="none" viewBox="0 0 24 24"><path fill="currentColor" d="M14.063 2.25c1.832 0 3.293 0 4.438.173 1.19.18 2.145.56 2.888 1.397.732.823 1.055 1.86 1.21 3.153.151 1.27.151 2.898.151 4.976v.102c0 2.078 0 3.706-.152 4.976-.154 1.293-.477 2.33-1.209 3.153-.743.836-1.698 1.217-2.888 1.397-1.145.173-2.606.173-4.439.173H9.938c-1.832 0-3.293 0-4.438-.173-1.19-.18-2.145-.56-2.888-1.397-.732-.823-1.055-1.86-1.21-3.153-.151-1.27-.151-2.898-.151-4.976v-.102c0-2.078 0-3.706.152-4.976.154-1.293.477-2.33 1.209-3.153.743-.836 1.698-1.217 2.888-1.397 1.145-.173 2.606-.173 4.438-.173z" opacity=".4"/><path fill="currentColor" d="M1.254 10c.007-.736.023-1.4.058-2h8.757c1.354 0 2.47 0 3.354.119.928.124 1.747.396 2.404 1.053s.928 1.475 1.052 2.403c.12.884.12 2 .12 3.354v6.782c-.604.028-1.269.036-2 .038V15c0-1.443-.003-2.424-.102-3.159-.095-.706-.262-1.033-.485-1.255-.222-.223-.55-.39-1.255-.485-.551-.074-1.24-.094-2.159-.1V21.75h-2V10z"/></svg>