<svg xmlns="http://www.w3.org/2000/svg" fill="none" viewBox="0 0 24 24"><path fill="currentColor" d="M12 4.2a7.8 7.8 0 1 0 4.68 14.04.975.975 0 1 1 1.172 1.56A9.7 9.7 0 0 1 12 21.75c-5.385 0-9.75-4.365-9.75-9.75S6.615 2.25 12 2.25s9.75 4.365 9.75 9.75v.878a3.607 3.607 0 0 1-3.608 3.607v-1.95c.916 0 1.658-.742 1.658-1.657V12A7.8 7.8 0 0 0 12 4.2" opacity=".4"/><path fill="currentColor" fill-rule="evenodd" d="M15.275 15.066a3.6 3.6 0 0 0 2.868 1.42v-1.95a1.66 1.66 0 0 1-1.657-1.658V8.491a.975.975 0 0 0-1.934-.18 4.485 4.485 0 1 0 .723 6.754M12 9.466a2.535 2.535 0 1 1 0 5.07 2.535 2.535 0 0 1 0-5.07" clip-rule="evenodd"/></svg>