<svg xmlns="http://www.w3.org/2000/svg" fill="none" viewBox="0 0 24 24"><path fill="currentColor" d="M8.554 13.004c-.188-.205-.282-.308-.403-.316-.121-.007-.226.082-.436.26l-5.434 4.63a2.932 2.932 0 1 0 4.134 4.134l4.629-5.434c.179-.21.268-.315.26-.436-.007-.121-.11-.215-.315-.403a39 39 0 0 1-1.247-1.188 39 39 0 0 1-1.188-1.247" opacity=".4"/><path fill="currentColor" d="M12.626 1.47a.75.75 0 0 1 0 1.06l-.16.159c.309.24.705.555 1.152.92 1.056.865 2.41 2.026 3.579 3.194 1.168 1.168 2.329 2.523 3.193 3.579.366.447.68.843.92 1.15l.16-.158a.75.75 0 0 1 1.06 1.06l-6.095 6.096a.75.75 0 0 1-1.061-1.06l.159-.16a67 67 0 0 1-1.151-.92c-1.056-.864-2.411-2.025-3.58-3.193-1.167-1.168-2.328-2.523-3.192-3.58a64 64 0 0 1-.921-1.15l-.16.159a.75.75 0 0 1-1.06-1.061l6.096-6.095a.75.75 0 0 1 1.06 0"/></svg>