<svg xmlns="http://www.w3.org/2000/svg" fill="none" viewBox="0 0 24 24"><path fill="currentColor" fill-rule="evenodd" d="M10.5 4c-.28 0-.5.22-.5.5v12a2.5 2.5 0 0 1-5 0v-7c0-.28-.22-.5-.5-.5s-.5.22-.5.5V14c0 .55-.45 1-1 1s-1-.45-1-1V9.5a2.5 2.5 0 0 1 5 0v7c0 .28.22.5.5.5s.5-.22.5-.5v-12a2.5 2.5 0 0 1 5 0v15c0 .28.22.5.5.5s.5-.22.5-.5v-11a2.5 2.5 0 0 1 5 0v7c0 .28.22.5.5.5s.5-.22.5-.5V12c0-.55.45-1 1-1s1 .45 1 1v3.5a2.5 2.5 0 0 1-5 0v-7c0-.28-.22-.5-.5-.5s-.5.22-.5.5v11a2.5 2.5 0 0 1-5 0v-15c0-.28-.22-.5-.5-.5" clip-rule="evenodd" opacity=".4"/><path fill="currentColor" d="M10.5 4c-.28 0-.5.22-.5.5v12a2.5 2.5 0 0 1-5 0v-7c0-.28-.22-.5-.5-.5s-.5.22-.5.5V14c0 .55-.45 1-1 1s-1-.45-1-1V9.5a2.5 2.5 0 0 1 5 0v7c0 .28.22.5.5.5s.5-.22.5-.5v-12a2.5 2.5 0 0 1 5 0V12h-2V4.5c0-.28-.22-.5-.5-.5"/></svg>