<svg xmlns="http://www.w3.org/2000/svg" fill="none" viewBox="0 0 24 24"><path fill="currentColor" d="M16.055 5.75c1.367 0 2.47 0 3.337.117.9.12 1.658.38 2.26.981.602.602.86 1.36.982 2.26.116.867.116 1.97.116 3.337v2.61c0 1.367 0 2.47-.116 3.337-.122.9-.38 1.658-.982 2.26s-1.36.86-2.26.982c-.867.116-1.97.116-3.337.116h-8.11c-1.367 0-2.47 0-3.337-.116-.9-.122-1.658-.38-2.26-.982s-.86-1.36-.981-2.26c-.117-.867-.117-1.97-.117-3.337v-2.61c0-1.367 0-2.47.117-3.337.12-.9.38-1.658.981-2.26.602-.602 1.36-.86 2.26-.981.867-.117 1.97-.117 3.337-.117z" opacity=".4"/><path fill="currentColor" fill-rule="evenodd" d="M6.353 2.275c.245-.025.542-.025.864-.025h.066c.323 0 .62 0 .865.025.266.027.555.09.825.27.19.128.355.292.482.483.18.27.243.558.27.825q.019.181.022.397h-1.89c-1.145 0-2.206 0-3.105.09q.002-.267.023-.487c.027-.267.09-.555.27-.825a1.8 1.8 0 0 1 .483-.483c.27-.18.559-.243.825-.27m9.79 1.975c1.145 0 2.206 0 3.106.09a6 6 0 0 0-.024-.487 1.76 1.76 0 0 0-.27-.825 1.8 1.8 0 0 0-.482-.483 1.8 1.8 0 0 0-.825-.27 9 9 0 0 0-.865-.025h-.066c-.322 0-.619 0-.864.025-.267.027-.555.09-.825.27a1.8 1.8 0 0 0-.483.483c-.18.27-.243.558-.27.825a5 5 0 0 0-.021.397zM17 8.75a.75.75 0 0 1 .75.75v1.25H19a.75.75 0 0 1 0 1.5h-1.25v1.25a.75.75 0 0 1-1.5 0v-1.25H15a.75.75 0 0 1 0-1.5h1.25V9.5a.75.75 0 0 1 .75-.75M4.25 11.5a.75.75 0 0 1 .75-.75h4a.75.75 0 0 1 0 1.5H5a.75.75 0 0 1-.75-.75" clip-rule="evenodd"/></svg>