<svg xmlns="http://www.w3.org/2000/svg" fill="none" viewBox="0 0 24 24"><path fill="currentColor" d="M15.869 14.018a.75.75 0 0 0-1.074 1.048c.203.208.289.56-.06 1.35-.338.765-.958 1.634-1.616 2.556-.232.325-.487.682-.72 1.03a1 1 0 0 1-.623.43 16 16 0 0 1-2.212.29c-1.773.1-3.715-.116-4.987-1.042-.414-.301-1.08-.15-1.553-.15a1.67 1.67 0 0 1-1.503-.872c-.263-.469-.314-1.026-.24-1.507.072-.48.286-1.002.696-1.363.453-.4 1.076-.534 1.731-.28.246.095.574.196.904.23.335.035.605-.005.8-.116 1.147-.65 2.326-1.182 3.441-1.685l.97-.441c1.409-.652 2.689-1.31 3.795-2.211a.7.7 0 0 1 .153-.097c2.399-1.134 5.252-.057 6.49 2.683.964 2.132.411 4.347-.845 5.995-1.25 1.64-3.255 2.81-5.385 2.875-.424.013-.836-.16-1.166-.42-.087-.086-.03-.205 0-.272.26-.582.863-1.35 1.53-2.284.615-.86 1.31-1.834 1.712-2.744.404-.914.649-2.094-.238-3.003" opacity=".4"/><path fill="currentColor" fill-rule="evenodd" d="M13.618 11.293a.7.7 0 0 1 .153-.096c2.399-1.134 5.252-.058 6.49 2.682q.081.179.147.357c.675-1.255 1.243-2.839 1.632-4.048.83-2.583.858-4.72.46-6.255-.197-.765-.508-1.406-.904-1.872-.389-.457-.921-.81-1.544-.81-.827 0-1.546.264-1.99.998-.209.343-.372.779-.528 1.296a38 38 0 0 0-.518 1.995c-.279 1.164-.65 2.138-1.094 2.965a3.5 3.5 0 0 0-1.161-1.35c-.864-.61-1.98-.892-3.082-.904-2.142-.024-4.696 1.004-5.365 3.382-.135.477-.05.99.197 1.384.257.41.735.75 1.358.686.584-.059 1.005-.427 1.259-.648.309-.27.633-.505 1.04-.6.37-.088.627-.053.8.018s.321.198.44.398c.23.392.325 1.035.168 1.764.551-.3 1.075-.62 1.569-.978-.035-.56-.177-1.094-.446-1.549a2.4 2.4 0 0 0-1.164-1.024c-.514-.21-1.096-.235-1.712-.09-.774.183-1.254.567-1.592.853l-.035.032c-.132.12-.53.482-.439.16.404-1.435 2.083-2.309 3.905-2.288.88.01 1.679.238 2.234.63.531.374.854.901.854 1.627q0 .089.02.172a9.3 9.3 0 0 1-1.153 1.111zm5.352-7.315a37 37 0 0 0-.495 1.911c-.496 2.072-1.273 3.644-2.251 4.886 1.243.135 2.428.783 3.293 1.874.427-.95.804-2.014 1.095-2.92.763-2.374.748-4.216.437-5.42-.157-.605-.382-1.025-.596-1.276-.221-.26-.372-.282-.4-.282-.302 0-.544.003-.709.275-.108.178-.228.468-.374.952" clip-rule="evenodd"/></svg>