<svg xmlns="http://www.w3.org/2000/svg" fill="none" viewBox="0 0 24 24"><path fill="currentColor" d="M12.084 3.25c.38 0 .71 0 1 .08.78.2 1.38.81 1.59 1.59.08.29.08.62.08 1v12.16c0 .38 0 .71-.08 1-.21.78-.81 1.39-1.59 1.59-.29.08-.62.08-1 .08s-.88 0-1.17-.08c-.78-.2-1.38-.81-1.59-1.59-.08-.29-.08-.62-.08-1V5.92c0-.38 0-.71.08-1 .21-.78.81-1.39 1.59-1.59.29-.08.79-.08 1.17-.08"/><path fill="currentColor" fill-rule="evenodd" d="M6.084 3.33c-.29-.08-.62-.08-1-.08s-.88 0-1.17.08c-.78.2-1.38.81-1.59 1.59-.08.29-.08.62-.08 1v6.16c0 .38 0 .71.08 1 .21.78.81 1.39 1.59 1.59.29.08.79.08 1.17.08s.71 0 1-.08c.78-.2 1.38-.81 1.59-1.59.08-.29.08-.62.08-1V5.92c0-.38 0-.71-.08-1-.21-.78-.81-1.39-1.59-1.59m14 0c-.29-.08-.62-.08-1-.08s-.88 0-1.17.08c-.78.2-1.38.81-1.59 1.59-.08.29-.08.62-.08 1v2.16c0 .38 0 .71.08 1 .21.78.81 1.39 1.59 1.59.29.08.62.08 1 .08s.88 0 1.17-.08c.78-.2 1.38-.81 1.59-1.59.08-.29.08-.62.08-1V5.92c0-.38 0-.71-.08-1-.21-.78-.81-1.39-1.59-1.59" clip-rule="evenodd" opacity=".4"/></svg>