<svg xmlns="http://www.w3.org/2000/svg" fill="none" viewBox="0 0 24 24"><path fill="currentColor" d="M21.006 9.29 10.23 17.364l-.02.014L6.445 20.2a.75.75 0 0 1-.9-1.2l3.084-2.311-1.317-1.317-2.28 3.042a.75.75 0 1 1-1.2-.9l2.79-3.724.015-.019L14.72 2.983a4.488 4.488 0 1 1 6.298 6.298z" opacity=".4"/><path fill="currentColor" fill-rule="evenodd" d="M18.5 15.25a3.25 3.25 0 1 1 0 6.5 3.25 3.25 0 0 1 0-6.5M1.717 17.816c1.426-1.034 3.066-.524 4.028.442.962.965 1.469 2.605.44 4.023a1.13 1.13 0 0 1-1.715.136l-2.888-2.886a1.13 1.13 0 0 1 .135-1.715" clip-rule="evenodd"/></svg>