<svg xmlns="http://www.w3.org/2000/svg" fill="none" viewBox="0 0 24 24"><path fill="currentColor" d="M18.052 11.25c.899 0 1.648 0 2.242.08.628.084 1.195.27 1.65.726.456.455.642 1.022.726 1.65.08.594.08 1.344.08 2.242v1.545a.75.75 0 0 1-.75.75H2a.75.75 0 0 1-.75-.75v-1.545c0-.899 0-1.648.08-2.242.084-.628.27-1.195.725-1.65.456-.456 1.023-.642 1.65-.726.595-.08 1.345-.08 2.243-.08z" opacity=".4"/><path fill="currentColor" fill-rule="evenodd" d="M20.75 18.242H22a.75.75 0 0 0 .75-.75v3.257a1 1 0 1 1-2 0zm-17.5 0v2.507a1 1 0 1 1-2 0v-3.507.25c0 .414.336.75.75.75zm2.698-6.992h5.802v-1.037c0-.195-.007-.487-.15-.76-.158-.306-.414-.466-.608-.565-.684-.35-1.543-.638-2.492-.638s-1.808.288-2.492.638c-.194.1-.45.259-.608.564-.143.274-.15.566-.15.761v1.039q.332-.003.697-.002m12.104 0H12.25v-1.037c0-.195.007-.487.15-.76.158-.306.414-.466.608-.565.684-.35 1.543-.638 2.492-.638s1.808.288 2.491.638c.195.1.45.259.61.564.142.274.149.566.149.761v1.039q-.332-.003-.697-.002m-14.346.08c-.54.072-1.034.22-1.452.549l-.003-.084V7.247c-.003-.539-.005-1.123.322-1.666.312-.521.777-.8 1.225-1.07l.09-.054C6.197 3.062 8.995 2.25 12 2.25s5.804.812 8.111 2.207l.09.054c.448.27.913.549 1.226 1.07.327.543.325 1.127.323 1.666v4.548l-.004.084c-.418-.33-.912-.477-1.451-.55a7 7 0 0 0-.496-.047V7.367c0-.35 0-.536-.017-.675-.012-.105-.027-.13-.034-.142l-.001-.001a.4.4 0 0 0-.123-.125 7 7 0 0 0-.537-.343C17.09 4.874 14.647 4.16 12 4.16s-5.09.715-7.087 1.922a7 7 0 0 0-.537.343.4.4 0 0 0-.123.125v.001c-.008.012-.023.037-.035.142a7 7 0 0 0-.018.675v3.915q-.263.017-.494.048" clip-rule="evenodd"/></svg>