<svg xmlns="http://www.w3.org/2000/svg" fill="none" viewBox="0 0 24 24"><path fill="currentColor" fill-rule="evenodd" d="M16.186 7.964a1 1 0 0 0-1.738-.99l-2.71 4.751L8.636 8H6.03l4.65 5.58-.81 1.422H5.5a1 1 0 1 0 0 2h4.37c.72 0 1.384-.387 1.74-1.012z" clip-rule="evenodd" opacity=".4"/><path fill="currentColor" fill-rule="evenodd" d="M15.294 3c-.362 0-.978.05-1.411.525-.48.525-.416 1.192-.3 1.635l.026.084 2.318 6.468a5 5 0 1 0 1.886-.665l-2.165-6.043c.71.016 1.33.09 1.821.287.507.204.88.536 1.068 1.203a1 1 0 1 0 1.925-.543c-.375-1.327-1.23-2.107-2.247-2.516-.953-.383-2.03-.435-2.92-.435m1.33 10.659.96 2.678a1 1 0 0 0 1.883-.674L18.513 13a3 3 0 1 1-1.889.659M3.5 7a1 1 0 0 1 1-1h4a1 1 0 0 1 .128 1.992L6.032 8H4.5a1 1 0 0 1-1-1m-1 9a3 3 0 1 1 6 0 3 3 0 0 1-6 0m3-5a5 5 0 1 0 0 10 5 5 0 0 0 0-10" clip-rule="evenodd"/></svg>