<svg xmlns="http://www.w3.org/2000/svg" fill="none" viewBox="0 0 24 24"><path fill="currentColor" d="M3.897 11.25h3.62c.388 0 .712.297.747.684.173 1.964 1.791 3.483 3.736 3.483s3.562-1.519 3.736-3.483a.75.75 0 0 1 .747-.684h3.652c.185 0 .392 0 .57.024.21.029.484.105.712.342.225.232.294.504.318.715.02.175.014.414.01.596-.01.446-.037.906-.1 1.372a3 3 0 0 1-.054.296.93.93 0 0 1-.322.504.94.94 0 0 1-.598.189c-.102 0-.239-.016-.325-.027-.729-.085-1.458.526-1.458 1.323 0 .404.173.762.446 1.006.063.057.165.148.233.223a.95.95 0 0 1 .253.562.93.93 0 0 1-.15.573 3 3 0 0 1-.18.238 10 10 0 0 1-1.48 1.459c-.048.038-.138.11-.216.158a.9.9 0 0 1-.518.146.94.94 0 0 1-.525-.189 3 3 0 0 1-.219-.183 1.26 1.26 0 0 0-.849-.326c-.678 0-1.264.581-1.295 1.287a3 3 0 0 1-.02.282.94.94 0 0 1-.225.501.93.93 0 0 1-.455.275c-.087.024-.2.04-.259.049-.934.14-1.925.14-2.859 0-.059-.009-.17-.025-.259-.049a.93.93 0 0 1-.455-.275.94.94 0 0 1-.224-.501 3 3 0 0 1-.02-.282c-.032-.706-.618-1.287-1.295-1.287-.324 0-.62.121-.85.326a3 3 0 0 1-.218.183.95.95 0 0 1-.526.189.93.93 0 0 1-.518-.146c-.078-.048-.167-.12-.214-.158a10 10 0 0 1-1.48-1.459 3 3 0 0 1-.18-.238.93.93 0 0 1-.152-.573.95.95 0 0 1 .253-.562c.068-.075.17-.166.234-.223.272-.244.445-.602.445-1.006 0-.797-.729-1.408-1.458-1.323a3 3 0 0 1-.325.027.95.95 0 0 1-.598-.189.93.93 0 0 1-.322-.504 3 3 0 0 1-.053-.296c-.064-.466-.09-.926-.1-1.372a5 5 0 0 1 .01-.596 1.18 1.18 0 0 1 .317-.715 1.18 1.18 0 0 1 .713-.342c.177-.024.417-.024.602-.024" opacity=".4"/><path fill="currentColor" fill-rule="evenodd" d="M6.007 1.552c1.792-.64 3.862-.268 5.285 1.155a4.96 4.96 0 0 1 1.377 2.635c1.213-1.09 2.9-1.356 4.368-.833a.75.75 0 0 1 .454.454c.548 1.536.23 3.313-.992 4.536a4.3 4.3 0 0 1-3.75 1.193V12a.75.75 0 0 1-1.5 0V8.652c-1.598.315-3.312-.13-4.542-1.36-1.423-1.423-1.794-3.493-1.155-5.285a.75.75 0 0 1 .455-.455" clip-rule="evenodd"/></svg>