<svg xmlns="http://www.w3.org/2000/svg" fill="none" viewBox="0 0 24 24"><path fill="currentColor" d="M5.428 16.174c-.29-.05-.434-.075-.515-.042a.28.28 0 0 0-.165.17c-.031.081-.005.212.048.475.255 1.26.458 2.27.714 3.055.264.812.609 1.472 1.199 1.978.595.51 1.288.736 2.108.842.785.101 1.764.101 2.972.101h.424c1.208 0 2.187 0 2.972-.101.82-.106 1.514-.332 2.108-.842.59-.506.936-1.166 1.2-1.978.255-.786.459-1.795.713-3.055.053-.263.08-.394.049-.475a.28.28 0 0 0-.166-.17c-.08-.034-.225-.008-.515.042q-.45.08-.906.08a5.5 5.5 0 0 1-2.516-.612c-.163-.084-.245-.126-.318-.126s-.154.042-.317.126a5.5 5.5 0 0 1-2.516.611 5.5 5.5 0 0 1-2.515-.61c-.164-.085-.245-.127-.318-.127s-.155.042-.318.126a5.5 5.5 0 0 1-2.516.611q-.455 0-.906-.079" opacity=".4"/><path fill="currentColor" fill-rule="evenodd" d="M12 1a1 1 0 0 0-.744.332l-.005.005c-.049.057-.182.21-.255.299-.15.181-.353.435-.558.72a8 8 0 0 0-.593.946c-.155.302-.345.74-.345 1.198A2.5 2.5 0 0 0 11 6.792V8.25H6.333c-1.888 0-3.583 1.37-3.583 3.25s1.695 3.25 3.583 3.25c1.09 0 2.143-.453 2.834-1.208.69.755 1.743 1.208 2.833 1.208s2.143-.453 2.833-1.208c.69.755 1.744 1.208 2.834 1.208 1.888 0 3.583-1.37 3.583-3.25s-1.695-3.25-3.583-3.25H13V6.792A2.5 2.5 0 0 0 14.5 4.5c0-.457-.19-.896-.345-1.198a8 8 0 0 0-.593-.947 14 14 0 0 0-.813-1.018l-.005-.005A1 1 0 0 0 12 1" clip-rule="evenodd"/></svg>