<svg xmlns="http://www.w3.org/2000/svg" fill="none" viewBox="0 0 24 24"><path fill="currentColor" fill-rule="evenodd" d="M13.549 1.75c1.838 0 3.283 0 4.421.129 1.163.13 2.105.405 2.888 1.023q.353.278.65.612c.666.747.964 1.653 1.105 2.764.017.128.025.192.01.248a.3.3 0 0 1-.178.202c-.054.022-.122.022-.256.022H1.813c-.135 0-.202 0-.256-.022a.3.3 0 0 1-.178-.202c-.015-.056-.007-.12.01-.248.141-1.111.439-2.017 1.105-2.764q.297-.334.65-.612c.783-.618 1.725-.892 2.887-1.023 1.14-.129 2.583-.129 4.422-.129zM18.75 12.5a.75.75 0 0 0-1.5 0v.75H15a.75.75 0 0 0 0 1.5h.375v4.5H15a.75.75 0 0 0 0 1.5h2.25v.75a.75.75 0 0 0 1.5 0v-.75h1.125c1.035 0 1.875-.84 1.875-1.875v-.75c0-.422-.14-.812-.375-1.125.235-.313.375-.703.375-1.125v-.75c0-1.036-.84-1.875-1.875-1.875H18.75zm-1.875 3.75v-1.5h3c.207 0 .375.168.375.375v.75a.375.375 0 0 1-.375.375zm0 1.5h3c.207 0 .375.168.375.375v.75a.375.375 0 0 1-.375.375h-3z" clip-rule="evenodd"/><path fill="currentColor" d="M22.72 13.308c.03-.798.03-1.71.03-2.755v-.106q.001-.863-.005-1.61c-.003-.276-.004-.413-.092-.5s-.227-.087-.504-.087H1.85c-.277 0-.416 0-.504.087s-.09.224-.092.5q-.006.747-.005 1.61v.106c0 1.724 0 3.09.138 4.17.141 1.11.439 2.016 1.105 2.763q.297.334.65.612c.783.618 1.725.892 2.888 1.023 1.138.129 2.582.129 4.422.129h2.425a2.26 2.26 0 0 1 .997-1.199v-2.102A2.25 2.25 0 0 1 15 11.75h.878a2.251 2.251 0 0 1 4.247.01 3.37 3.37 0 0 1 2.594 1.548" opacity=".4"/></svg>