<svg xmlns="http://www.w3.org/2000/svg" fill="none" viewBox="0 0 24 24"><path fill="currentColor" fill-rule="evenodd" d="M18.25 3.5a2.25 2.25 0 1 1 4.5 0 2.25 2.25 0 0 1-4.5 0m-17 17a2.25 2.25 0 1 1 4.5 0 2.25 2.25 0 0 1-4.5 0M12 9.25a2.75 2.75 0 1 0 0 5.5 2.75 2.75 0 0 0 0-5.5" clip-rule="evenodd"/><path fill="currentColor" fill-rule="evenodd" d="M5 6.723a8.72 8.72 0 0 1 7-3.518c.916 0 1.798.14 2.626.402a.97.97 0 0 0 1.218-.64.98.98 0 0 0-.636-1.225A10.66 10.66 0 0 0 3.445 5.55a.98.98 0 0 0 .193 1.369A.97.97 0 0 0 5 6.723m15.555 11.729a.98.98 0 0 0-.193-1.369.97.97 0 0 0-1.361.195 8.72 8.72 0 0 1-7 3.518 8.7 8.7 0 0 1-2.626-.403.97.97 0 0 0-1.219.64.98.98 0 0 0 .637 1.225 10.66 10.66 0 0 0 11.762-3.806M12 6.25a5.75 5.75 0 0 0-5.03 2.962l-4.182.996c-.82.195-1.538.87-1.538 1.792s.718 1.597 1.538 1.792l4.182.996A5.75 5.75 0 0 0 12 17.75a5.75 5.75 0 0 0 5.03-2.962l4.182-.996c.82-.195 1.538-.87 1.538-1.792s-.718-1.597-1.538-1.792l-4.182-.996A5.75 5.75 0 0 0 12 6.25" clip-rule="evenodd" opacity=".4"/></svg>