<svg xmlns="http://www.w3.org/2000/svg" fill="none" viewBox="0 0 24 24"><path fill="currentColor" fill-rule="evenodd" d="M12 4.25a1.6 1.6 0 0 0-.608.128c-.155.062-.327.15-.503.239L7.685 6.245c-.648.33-1.208.614-1.6.892-.4.284-.835.707-.835 1.363v7c0 .657.435 1.08.835 1.363.392.278.952.563 1.6.892l3.204 1.628c.176.09.348.177.503.239.175.07.375.128.608.128s.433-.058.608-.128c.155-.062.327-.15.503-.239l3.204-1.628c.648-.33 1.208-.614 1.6-.892.4-.284.835-.706.835-1.363v-7c0-.656-.435-1.08-.835-1.363-.392-.278-.952-.563-1.6-.892l-3.204-1.628a6 6 0 0 0-.503-.239A1.6 1.6 0 0 0 12 4.25m5.25 6.018c-.28.154-.595.314-.935.487l-3.204 1.628q-.186.097-.361.178v5.323l2.833-1.44a15 15 0 0 0 1.667-.978zm-6 2.293q-.175-.082-.36-.178l-3.153-1.601c-.348-.178-.687-.35-.987-.515v5.199c.248.261.815.547 1.443.865l.224.113 2.833 1.44z" clip-rule="evenodd"/><path fill="currentColor" fill-rule="evenodd" d="M12 2.75c-.102 0-.214.035-.863.35L6.442 5.37c-1.06.514-1.78.864-2.243 1.177-.462.312-.45.443-.449.452v10c0 .009-.013.14.449.452.463.313 1.182.663 2.244 1.177l4.694 2.272c.649.314.761.349.863.349s.214-.035.863-.35l4.695-2.271c1.06-.514 1.78-.864 2.243-1.177.462-.312.45-.443.449-.452V7c0-.009.013-.14-.449-.452-.463-.313-1.182-.663-2.243-1.177l-4.695-2.272c-.649-.314-.761-.349-.863-.349m-1.414-1.051c.48-.233.923-.449 1.414-.449s.935.216 1.414.449l.103.05 4.75 2.3c.991.479 1.81.875 2.374 1.256.565.382 1.109.902 1.109 1.695v10c0 .793-.544 1.313-1.11 1.695-.563.381-1.382.777-2.372 1.257l-4.751 2.3-.103.05c-.48.232-.923.448-1.414.448s-.935-.216-1.414-.449l-.103-.05-4.75-2.3c-.991-.479-1.81-.875-2.374-1.256-.565-.382-1.109-.902-1.109-1.695V7c0-.793.544-1.313 1.11-1.695.563-.381 1.382-.777 2.372-1.257l.057-.027 4.694-2.272z" clip-rule="evenodd" opacity=".4"/></svg>