<svg xmlns="http://www.w3.org/2000/svg" fill="none" viewBox="0 0 24 24"><path fill="currentColor" fill-rule="evenodd" d="M18.05 2.25c.664 0 1.237 0 1.696.062.492.066.963.215 1.345.597s.531.854.597 1.345c.062.459.062 1.13.062 1.795s0 1.238-.062 1.697c-.066.491-.215.963-.597 1.345s-.854.531-1.345.597c-.459.062-1.13.062-1.795.062s-1.238 0-1.697-.062c-.492-.066-.963-.215-1.345-.597s-.531-.854-.597-1.345c-.062-.459-.062-1.032-.062-1.697 0-.664 0-1.336.062-1.795.066-.491.215-.963.597-1.345s.853-.531 1.345-.597c.459-.062 1.13-.062 1.795-.062M7.745 14.312c-.459-.062-1.032-.062-1.697-.062-.664 0-1.336 0-1.795.062-.491.066-.963.215-1.345.597s-.531.853-.597 1.345c-.062.459-.062 1.13-.062 1.795s0 1.238.062 1.697c.066.492.215.963.597 1.345s.854.531 1.345.597c.459.062 1.13.062 1.795.062s1.238 0 1.697-.062c.491-.066.963-.215 1.345-.597s.531-.854.597-1.345c.062-.459.062-1.032.062-1.697v-.098c0-.665 0-1.238-.062-1.697-.066-.492-.215-.963-.597-1.345s-.854-.531-1.345-.597m12 0c-.459-.062-1.032-.062-1.697-.062-.664 0-1.336 0-1.795.062-.492.066-.963.215-1.345.597s-.531.853-.597 1.345c-.062.459-.062 1.13-.062 1.795s0 1.238.062 1.697c.066.492.215.963.597 1.345s.853.531 1.345.597c.459.062 1.032.062 1.697.062s1.336 0 1.795-.062c.492-.066.963-.215 1.345-.597s.531-.854.597-1.345c.062-.459.062-1.032.062-1.697s0-1.336-.062-1.795c-.066-.492-.215-.963-.597-1.345s-.854-.531-1.345-.597M6.049 2.25c-.664 0-1.336 0-1.795.062-.491.066-.963.215-1.345.597s-.531.854-.597 1.345c-.062.459-.062 1.13-.062 1.795s0 1.238.062 1.697c.066.491.215.963.597 1.345s.854.531 1.345.597c.459.062 1.032.062 1.697.062s1.336 0 1.795-.062c.491-.066.963-.215 1.345-.597s.531-.854.597-1.345c.062-.459.062-1.032.062-1.697 0-.664 0-1.336-.062-1.795-.066-.491-.215-.963-.597-1.345s-.854-.531-1.345-.597c-.459-.062-1.032-.062-1.697-.062" clip-rule="evenodd" opacity=".4"/><path fill="currentColor" fill-rule="evenodd" d="M12 7H9.742q.01-.436.008-.95c0-.36 0-.721-.01-1.05H12a1 1 0 1 1 0 2m2.25 11.05c0-.36 0-.721.01-1.05H12a1 1 0 1 0 0 2h2.258q-.01-.436-.008-.95M17 9.741V12a1 1 0 1 0 2 0V9.74c-.329.01-.69.01-1.05.01q-.514.002-.95-.008M6.05 14.25q.514-.002.95.008V12a1 1 0 1 0-2 0v2.26c.329-.01.69-.01 1.05-.01" clip-rule="evenodd"/></svg>