<svg xmlns="http://www.w3.org/2000/svg" fill="none" viewBox="0 0 24 24"><path fill="currentColor" d="M14.838 10.003a1 1 0 0 1 .959.533l1.516 2.894c.15.288.24.453.307.552.129.012.346.018.68.018h2.325a1 1 0 1 1 0 2h-2.361c-.283 0-.563 0-.802-.024a2.05 2.05 0 0 1-.867-.264 2 2 0 0 1-.652-.64 8 8 0 0 1-.384-.68l-.464-.886-1.335 3.824a1 1 0 0 1-1.83.134l-1.516-2.894a7 7 0 0 0-.308-.552 8 8 0 0 0-.68-.018h-.801a1 1 0 1 1 0-2h.837c.283 0 .563 0 .802.024.27.026.57.089.868.264a2 2 0 0 1 .65.64c.133.197.26.44.386.68l.464.886 1.335-3.824a1 1 0 0 1 .87-.667"/><path fill="currentColor" d="M8.703 2.428a4.213 4.213 0 0 1 5.844 0c1.28 1.216 2.849 2.892 4.102 4.814 1.247 1.913 2.226 4.138 2.226 6.436 0 4.468-3.507 9.072-9.25 9.072s-9.25-4.604-9.25-9.072c0-2.298.979-4.523 2.226-6.436C5.854 5.32 7.423 3.644 8.703 2.428" opacity=".4"/></svg>