<svg xmlns="http://www.w3.org/2000/svg" fill="none" viewBox="0 0 24 24"><path fill="currentColor" d="M12.162 21.18c-.268.804-1.036 1.735-2.224 1.548-.754-.118-1.695-.452-2.77-1.123-.804-.503-1.687-1.198-2.63-2.14s-1.638-1.827-2.14-2.631c-.672-1.075-1.005-2.015-1.124-2.77-.186-1.187.744-1.956 1.549-2.224l3.012-1.004c.2-.066.299-.1.372-.063.074.036.113.147.191.37.15.426.386.77.571 1.01.346.45.846.95 1.36 1.464l2.057 2.056c.513.514 1.013 1.014 1.462 1.36.241.185.585.421 1.012.57.222.08.334.118.37.192.036.073.003.173-.064.372z" opacity=".4"/><path fill="currentColor" fill-rule="evenodd" d="M22.16 1.84a2.017 2.017 0 0 0-2.853 0l-3.501 3.502c-.087.087-.131.131-.126.179s.06.082.17.152q.188.12.332.239c.26.21.532.48.777.726l.403.403c.245.245.516.516.726.777q.119.144.24.332c.069.11.104.165.151.17.048.005.092-.038.18-.126l3.5-3.501a2.017 2.017 0 0 0 0-2.852m-7.473 4.432q-.287-.045-.572 0c-.355.057-.633.23-.87.419a10 10 0 0 0-.72.678l-.025.025c-.43.43-.554.546-.692.626q-.078.046-.161.08c-.147.063-.318.093-.929.18l-.052.008c-.778.11-1.434.205-1.923.34-.487.134-1.033.366-1.309.922a1.8 1.8 0 0 0-.16.478c-.112.607.18 1.116.487 1.515.306.397.767.86 1.313 1.405l1.979 1.978c.545.546 1.007 1.008 1.404 1.314.4.307.909.598 1.515.486q.25-.047.479-.16c.555-.275.787-.821.922-1.309.135-.49.229-1.145.34-1.923l.007-.052c.087-.61.117-.782.18-.929q.035-.083.08-.161c.08-.138.197-.262.626-.691l.026-.026c.263-.264.502-.502.677-.72.19-.236.363-.515.419-.87q.045-.286 0-.571c-.056-.355-.229-.633-.419-.87-.175-.217-.414-.456-.677-.72l-.356-.355c-.264-.264-.502-.503-.72-.678-.236-.19-.515-.362-.87-.419" clip-rule="evenodd"/></svg>