<svg xmlns="http://www.w3.org/2000/svg" fill="none" viewBox="0 0 24 24"><path fill="currentColor" d="M13.056 1.25h-2.112c-1.838 0-3.294 0-4.433.153-1.172.158-2.121.49-2.87 1.238-.748.749-1.08 1.698-1.238 2.87-.153 1.14-.153 2.595-.153 4.433V15h19.5V9.944c0-1.838 0-3.294-.153-4.433-.158-1.172-.49-2.121-1.238-2.87-.749-.748-1.698-1.08-2.87-1.238-1.14-.153-2.595-.153-4.433-.153" opacity=".4"/><path fill="currentColor" fill-rule="evenodd" d="M8.287 6.307A.75.75 0 0 1 8.75 7v4a.75.75 0 0 1-1.5 0V8.707a.75.75 0 0 1-.78-1.237l1-1a.75.75 0 0 1 .817-.163M10.25 9a.75.75 0 0 1 .75-.75h2a.75.75 0 0 1 0 1.5h-2a.75.75 0 0 1-.75-.75m7.5-2a.75.75 0 0 0-1.28-.53l-1 1a.75.75 0 0 0 .78 1.237V11a.75.75 0 0 0 1.5 0zM2 15a1 1 0 1 0 0 2h3.257l-2.151 4.303a1 1 0 1 0 1.789.894L7.493 17H11v2.75a1 1 0 1 0 2 0V17h3.507l2.599 5.197a1 1 0 1 0 1.789-.894L18.743 17H22a1 1 0 1 0 0-2z" clip-rule="evenodd"/></svg>