<svg xmlns="http://www.w3.org/2000/svg" fill="none" viewBox="0 0 24 24"><path fill="currentColor" fill-rule="evenodd" d="M22.582 5.332a1 1 0 0 0-1.414-1.414l-.793.793-.793-.793a1 1 0 1 0-1.414 1.414l.793.793-.793.793a1 1 0 0 0 1.414 1.414l.793-.793.793.793a1 1 0 1 0 1.414-1.414l-.793-.793zM8.875 7.375a7.75 7.75 0 1 0 0 15.5 7.75 7.75 0 0 0 0-15.5" clip-rule="evenodd" opacity=".4"/><path fill="currentColor" fill-rule="evenodd" d="M9.911 4.951c-.106-.604.026-1.243.276-1.578a.55.55 0 0 1 .333-.234c.127-.027.377-.031.797.162.85.39 1.257.952 1.774 1.664l.118.162c.277.38.622.832 1.098 1.2.498.388 1.103.657 1.876.756a1 1 0 0 0 .254-1.984c-.424-.054-.692-.187-.905-.352-.235-.182-.439-.43-.708-.8l-.132-.183c-.506-.702-1.196-1.662-2.54-2.28-.7-.322-1.396-.441-2.05-.301a2.55 2.55 0 0 0-1.519.994c-.664.892-.816 2.134-.641 3.122a1 1 0 1 0 1.97-.348" clip-rule="evenodd"/></svg>