<svg xmlns="http://www.w3.org/2000/svg" fill="none" viewBox="0 0 24 24"><path fill="currentColor" fill-rule="evenodd" d="M21.582 1.418a1 1 0 0 1 0 1.414L18.79 5.625l2.793 2.793a1 1 0 0 1-1.414 1.414L17.375 7.04l-2.793 2.793a1 1 0 0 1-1.414-1.415l2.793-2.792-2.793-2.792a1 1 0 0 1 1.414-1.415l2.793 2.793 2.793-2.793a1 1 0 0 1 1.414 0" clip-rule="evenodd"/><path fill="currentColor" fill-rule="evenodd" d="M11.38 1.98a2.5 2.5 0 0 0 .729 1.913l1.307 1.308c.2.2.3.3.3.424s-.1.224-.3.424l-.15.15c-.086.087-.13.13-.185.153s-.116.023-.239.023H2.834c-.305 0-.457 0-.546-.1-.09-.101-.073-.248-.039-.54l.03-.235c.159-1.138.494-2.06 1.248-2.787.749-.721 1.696-1.04 2.863-1.19 1.137-.148 2.646-.148 4.485-.148.19 0 .286 0 .344.025a.26.26 0 0 1 .16.17c.022.06.015.176.002.41m.005 5.994c.09.1.061.36.005.882a2.5 2.5 0 0 0 4.253 2.036l1.308-1.307c.2-.2.3-.3.425-.3.124 0 .224.1.424.3l1.308 1.308q.11.11.23.204c.151.117.226.176.257.238.03.063.03.142.03.301v6.535c0 1.097 0 2.01-.105 2.694-.11.71-.364 1.4-1.065 1.774-.625.334-1.312.266-1.895.089-.59-.18-1.19-.504-1.738-.851-.554-.35-1.098-.75-1.57-1.098-.463-.343-.89-.658-1.174-.83-.4-.24-.652-.39-.856-.487-.189-.089-.28-.103-.347-.103s-.158.014-.347.103c-.204.096-.457.247-.856.488-.284.17-.711.486-1.174.829-.472.349-1.016.748-1.57 1.098-.548.347-1.148.672-1.738.85-.583.178-1.27.245-1.895-.088-.701-.375-.956-1.065-1.065-1.774-.105-.685-.105-1.597-.105-2.694V9.774q0-.69.003-1.308c.002-.278.002-.417.09-.504s.228-.087.507-.087h7.945c.417 0 .626 0 .715.1" clip-rule="evenodd" opacity=".4"/></svg>