<svg xmlns="http://www.w3.org/2000/svg" fill="none" viewBox="0 0 24 24"><path fill="currentColor" fill-rule="evenodd" d="M13.909 1.505q-.884-.006-1.906-.005h-.006q-1.023-.001-1.905.005a1 1 0 1 0 .016 2Q10.537 3.5 11 3.5v.9a1 1 0 1 0 2 0v-.9q.464.001.892.005a1 1 0 0 0 .017-2m-7.426 2.23a1 1 0 0 0-.366-1.967c-1.167.217-2.142.625-2.933 1.416S1.985 4.95 1.768 6.117a1 1 0 0 0 1.967.366c.17-.911.445-1.466.863-1.885.419-.418.974-.694 1.885-.863m11.4-1.967a1 1 0 1 0-.366 1.967c.912.17 1.466.445 1.885.863.418.419.694.974.863 1.885a1 1 0 0 0 1.967-.366c-.217-1.167-.625-2.142-1.416-2.933s-1.766-1.199-2.933-1.416m-14.378 8.34a1 1 0 0 0-2-.017q-.006.884-.005 1.906v.006q-.001 1.023.005 1.906a1 1 0 0 0 2-.017C3.5 13.312 3.5 12.685 3.5 12s0-1.312.005-1.892m18.99-.017a1 1 0 0 0-2 .018c.005.579.005 1.206.005 1.891s0 1.312-.005 1.892a1 1 0 1 0 2 .017q.006-.884.005-1.907v-.004q.001-1.024-.005-1.906m-18.76 7.426a1 1 0 0 0-1.967.366c.217 1.167.625 2.142 1.416 2.933s1.766 1.199 2.933 1.416a1 1 0 1 0 .366-1.967c-.911-.17-1.466-.445-1.885-.863-.418-.419-.694-.974-.863-1.885m18.497.366a1 1 0 1 0-1.967-.366c-.17.912-.445 1.466-.863 1.885-.419.418-.974.694-1.885.863a1 1 0 0 0 .366 1.967c1.167-.217 2.142-.625 2.933-1.416s1.199-1.766 1.416-2.933m-12.123 2.612a1 1 0 1 0-.017 2q.883.006 1.906.005h.005q1.023.001 1.906-.005a1 1 0 0 0-.018-2q-.427.004-.891.004v-.9a1 1 0 1 0-2 0v.9zM13 9.15a1 1 0 1 0-2 0v5.7a1 1 0 1 0 2 0z" clip-rule="evenodd" opacity=".4"/><path fill="currentColor" fill-rule="evenodd" d="M3.505 10.11a1 1 0 0 0-2-.017Q1.499 10.976 1.5 12v.005q-.001 1.023.005 1.906a1 1 0 1 0 2-.017Q3.5 13.465 3.5 13h16.998q0 .464-.004.893a1 1 0 0 0 2 .017q.006-.883.005-1.906V12q.001-1.024-.005-1.907a1 1 0 0 0-2 .017q.004.427.004.89H3.501q0-.463.004-.89" clip-rule="evenodd"/></svg>