<svg xmlns="http://www.w3.org/2000/svg" fill="none" viewBox="0 0 24 24"><path fill="currentColor" fill-rule="evenodd" d="M7.484 2.322a1 1 0 0 0-1.163-.806c-1.217.221-2.231.635-3.055 1.44-.953.93-1.375 2.11-1.574 3.554C1.5 7.907 1.5 9.69 1.5 11.924v.152c0 2.236 0 4.017.192 5.414.199 1.444.621 2.625 1.574 3.555.824.804 1.838 1.218 3.055 1.44a1 1 0 0 0 .358-1.969c-.971-.176-1.567-.464-2.016-.902-.511-.499-.822-1.183-.989-2.397C3.502 15.973 3.5 14.33 3.5 12s.002-3.973.174-5.217c.167-1.213.478-1.897.989-2.396.449-.438 1.045-.727 2.016-.903a1 1 0 0 0 .805-1.162" clip-rule="evenodd"/><path fill="currentColor" fill-rule="evenodd" d="M14.02 1.505C13.435 1.5 12.677 1.5 12 1.5h-.03c-.683 0-1.389 0-1.979.005a1 1 0 1 0 .016 2c.305-.003.642-.004.992-.004V4a1 1 0 0 0 2 0v-.499c.359 0 .704.001 1.002.004a1 1 0 1 0 .017-2M12 8a1 1 0 0 1 1 1v2h2a1 1 0 0 1 0 2h-2v2a1 1 0 0 1-2 0v-2H9a1 1 0 0 1 0-2h2V9a1 1 0 0 1 1-1m7.531 3a1 1 0 0 0 0 2h.968q0 .464-.004.892a1 1 0 0 0 2 .017q.006-.884.005-1.906v-.006q.001-1.023-.005-1.906a1 1 0 1 0-2 .018q.003.426.004.89zM12 19a1 1 0 0 1 1 1v.499c.359 0 .704-.001 1.002-.004a1 1 0 1 1 .017 2c-.59.005-1.358.005-2.042.005h-.007c-.683 0-1.388 0-1.978-.005a1 1 0 1 1 .016-2c.305.003.642.004.992.004V20a1 1 0 0 1 1-1m5.507-15.265a1.001 1.001 0 0 1 .365-1.967c1.17.217 2.146.624 2.94 1.415.792.791 1.201 1.766 1.42 2.934a1 1 0 1 1-1.967.366c-.17-.911-.447-1.465-.866-1.884-.42-.418-.977-.695-1.892-.864m3.924 12.982a1 1 0 0 0-1.166.8c-.17.911-.447 1.465-.866 1.884-.42.418-.977.695-1.892.864a1.001 1.001 0 0 0 .365 1.967c1.17-.217 2.146-.624 2.94-1.415.792-.79 1.201-1.766 1.42-2.934a1 1 0 0 0-.8-1.166" clip-rule="evenodd" opacity=".4"/></svg>