<svg xmlns="http://www.w3.org/2000/svg" fill="none" viewBox="0 0 24 24"><path fill="currentColor" fill-rule="evenodd" d="M11.996 1.5h.006q1.023-.001 1.906.005a1 1 0 0 1-.017 2c-.58-.005-1.207-.005-1.892-.005s-1.312 0-1.891.005a1 1 0 0 1-.017-2q.883-.006 1.905-.005M7.282 2.569a1 1 0 0 1-.8 1.166c-.911.17-1.466.445-1.884.863-.419.419-.695.974-.864 1.885a1 1 0 0 1-1.967-.366c.218-1.167.625-2.142 1.416-2.933S4.95 1.985 6.116 1.768a1 1 0 0 1 1.166.8m9.434 0a1 1 0 0 1 1.166-.8c1.167.216 2.142.624 2.933 1.415s1.199 1.766 1.416 2.933a1 1 0 1 1-1.966.366c-.17-.911-.446-1.466-.864-1.885-.418-.418-.973-.694-1.885-.863a1 1 0 0 1-.8-1.166M2.513 9.1a1 1 0 0 1 .991 1.008q-.015 1.892 0 3.784a1 1 0 1 1-2 .017 225 225 0 0 1 0-3.818A1 1 0 0 1 2.513 9.1m18.973 0a1 1 0 0 1 1.008.992q.016 1.908 0 3.817a1 1 0 0 1-2-.017q.016-1.892 0-3.783a1 1 0 0 1 .992-1.009M2.568 16.717a1 1 0 0 1 1.166.8c.17.912.445 1.466.864 1.885.418.418.973.694 1.884.863a1 1 0 0 1-.366 1.967c-1.167-.217-2.142-.625-2.933-1.416s-1.198-1.766-1.416-2.933a1 1 0 0 1 .8-1.166m18.863 0a1 1 0 0 1 .8 1.166c-.217 1.167-.625 2.142-1.416 2.933s-1.766 1.199-2.933 1.416a1 1 0 0 1-.366-1.967c.912-.17 1.467-.445 1.885-.863.418-.419.694-.974.864-1.885a1 1 0 0 1 1.166-.8m-12.332 4.77a1 1 0 0 1 1.009-.992c.58.005 1.206.005 1.891.005s1.312 0 1.892-.005a1 1 0 1 1 .017 2q-.883.006-1.906.005h-.005q-1.023.001-1.906-.005a1 1 0 0 1-.992-1.008" clip-rule="evenodd" opacity=".4"/><path fill="currentColor" fill-rule="evenodd" d="M11.992 1.5h.006q1.022-.001 1.905.005a1 1 0 1 1-.017 2C13.307 3.5 12.68 3.5 11.995 3.5s-1.312 0-1.892.005a1 1 0 0 1-.017-2q.883-.006 1.906-.005M7.278 2.569a1 1 0 0 1-.8 1.166c-.912.17-1.467.445-1.885.863-.418.419-.694.974-.864 1.885a1 1 0 0 1-1.966-.366c.217-1.167.625-2.142 1.416-2.933s1.766-1.199 2.933-1.416a1 1 0 0 1 1.166.8m9.434 0a1 1 0 0 1 1.166-.8c1.167.216 2.142.624 2.933 1.415s1.198 1.766 1.416 2.933a1 1 0 1 1-1.967.366c-.17-.911-.445-1.466-.864-1.885-.418-.418-.973-.694-1.884-.863a1 1 0 0 1-.8-1.166M3.5 10.11a1 1 0 0 0-2-.017l-.004 1.909h1.996zm17.98-1.008a1 1 0 0 1 1.008.991l.006 1.909h-1.998s-.002-1.262-.008-1.892a1 1 0 0 1 .992-1.008" clip-rule="evenodd"/></svg>