<svg xmlns="http://www.w3.org/2000/svg" fill="none" viewBox="0 0 24 24"><path fill="currentColor" fill-rule="evenodd" d="M12 1.25c-1.726 0-2.852 1.697-2.556 3.335l.382 2.11c.257 1.42.04 2.55-.378 3.657-.214.565-.48 1.12-.77 1.721l-.065.133a31 31 0 0 0-.817 1.779 7.33 7.33 0 0 0-.428 4.087l.002.014a22 22 0 0 0 .412 1.916c.184.67.451 1.413.868 1.944.643.82 1.578.81 2.114.805l.116-.001h2.356c.536.006 1.47.016 2.114-.804.417-.53.684-1.275.868-1.944.188-.683.317-1.392.412-1.916l.002-.014a7.33 7.33 0 0 0-.428-4.087 32 32 0 0 0-.817-1.78l-.064-.132c-.292-.6-.557-1.156-.77-1.721-.42-1.108-.636-2.237-.379-3.658l.382-2.11c.296-1.637-.83-3.334-2.556-3.334m-1.08 3.068c-.162-.899.466-1.568 1.08-1.568s1.243.669 1.08 1.568l-.382 2.11a8 8 0 0 0-.129 1.166c-.007.196-.011.294-.07.35-.057.056-.152.056-.34.056h-.317c-.189 0-.283 0-.341-.056s-.062-.154-.07-.35a8 8 0 0 0-.129-1.167z" clip-rule="evenodd"/><path fill="currentColor" fill-rule="evenodd" d="M8.073 10.375a.5.5 0 0 1-.05.15c-.165.37-.357.768-.54 1.148a33 33 0 0 0-.843 1.835 8.6 8.6 0 0 0-.502 4.787l.005.03c.094.518.23 1.271.434 2.009.04.145.06.218.045.271a.2.2 0 0 1-.089.116c-.048.03-.121.03-.268.03H4.593c-.494.005-1.362.014-1.98-.656-.414-.45-.675-1.074-.852-1.62a16 16 0 0 1-.392-1.553l-.003-.015a5.3 5.3 0 0 1 .418-3.418c.244-.502.534-1.012.8-1.48.157-.276.305-.536.43-.77.365-.687.63-1.314.723-1.993.06-.435.052-.906-.062-1.442l-.359-1.687C2.99 4.581 4.24 3.25 5.758 3.25s2.768 1.331 2.441 2.867l-.358 1.687a4.13 4.13 0 0 0 .188 2.41c.03.081.045.121.044.16m-2.738-1.83c-.058-.052-.066-.147-.084-.338a6 6 0 0 0-.108-.714l-.359-1.688c-.105-.493.295-1.055.974-1.055.68 0 1.08.562.974 1.055l-.358 1.688a6 6 0 0 0-.109.714c-.017.19-.026.286-.083.338s-.148.053-.33.053h-.187c-.182 0-.273 0-.33-.053m12.045 12.06c-.015-.053.005-.126.044-.271.204-.738.34-1.49.434-2.008l.005-.03a8.6 8.6 0 0 0-.502-4.788 32 32 0 0 0-.842-1.835c-.184-.38-.375-.779-.54-1.149a.4.4 0 0 1-.05-.15.5.5 0 0 1 .043-.159 4.1 4.1 0 0 0 .188-2.41l-.358-1.688c-.326-1.536.923-2.867 2.442-2.867 1.518 0 2.767 1.331 2.441 2.867l-.358 1.687a4.1 4.1 0 0 0-.063 1.442c.093.679.358 1.306.724 1.992.125.235.273.495.429.77.266.469.557.98.8 1.482a5.3 5.3 0 0 1 .419 3.417l-.003.015c-.09.418-.212.994-.393 1.552-.177.547-.438 1.172-.852 1.62-.618.67-1.486.662-1.98.657h-1.672c-.146 0-.22 0-.268-.03a.2.2 0 0 1-.088-.116m.44-12.06c-.057-.052-.066-.147-.083-.338a6 6 0 0 0-.109-.714l-.358-1.688c-.105-.493.294-1.055.974-1.055s1.079.562.974 1.055l-.358 1.688a6 6 0 0 0-.109.714c-.017.19-.026.286-.083.338s-.149.053-.33.053h-.187c-.182 0-.273 0-.33-.053" clip-rule="evenodd" opacity=".4"/></svg>