<svg xmlns="http://www.w3.org/2000/svg" fill="none" viewBox="0 0 24 24"><path fill="currentColor" d="M6.25 7A.75.75 0 0 1 7 6.25h10c1.754 0 3.201 1.253 4.162 2.713.976 1.482 1.588 3.374 1.588 5.037 0 .839-.156 1.547-.5 2.12-.35.584-.855.96-1.427 1.198-.558.231-1.187.333-1.818.383-.628.049-1.31.049-1.987.049H7a.75.75 0 0 1 0-1.5c.698 0 1.324 0 1.888-.045.564-.044 1.013-.129 1.36-.273.333-.138.56-.324.716-.583.162-.271.286-.688.286-1.349 0-1.337-.507-2.945-1.341-4.213C9.059 8.497 8.008 7.75 7 7.75A.75.75 0 0 1 6.25 7" opacity=".4"/><path fill="currentColor" fill-rule="evenodd" d="M4.091 9.787C3.257 11.055 2.75 12.663 2.75 14c0 .661.124 1.078.286 1.349.156.26.384.445.716.583.347.144.796.23 1.36.273q.44.034.933.04c.584-.032 1.114-.217 1.497-.535.403-.334.708-.866.708-1.71 0-.961-.198-1.83-.525-2.429-.324-.596-.704-.821-1.08-.821-.018 0-.153.015-.359.309-.194.276-.362.687-.457 1.145s-.102.894-.034 1.212c.072.336.184.381.188.383q.08.028.11.03a.6.6 0 0 0 .083-.16c.053-.138.085-.305.103-.453a3 3 0 0 0 .016-.213v-.008.001a.75.75 0 0 1 1.5.007v.039a3 3 0 0 1-.027.351 3.5 3.5 0 0 1-.191.812c-.11.287-.312.665-.696.906-.427.269-.93.28-1.43.09-.695-.263-1.004-.913-1.123-1.47-.123-.576-.092-1.231.033-1.832.125-.602.357-1.216.696-1.7.328-.468.857-.949 1.588-.949 1.121 0 1.92.725 2.398 1.604.477.876.707 2.008.707 3.146 0 .87-.23 1.603-.628 2.184.456-.048.829-.129 1.126-.252.333-.138.56-.324.716-.583.162-.271.286-.688.286-1.349 0-1.337-.507-2.945-1.341-4.213C9.059 8.497 8.008 7.75 7 7.75s-2.06.747-2.909 2.037m1.978 7.958q.454.006.913.005h.036c.677 0 1.36 0 1.987-.05.631-.049 1.26-.151 1.818-.382.572-.238 1.077-.614 1.427-1.198.344-.573.5-1.281.5-2.12 0-1.663-.612-3.555-1.588-5.037C10.202 7.503 8.754 6.25 7 6.25S3.799 7.503 2.838 8.963C1.862 10.445 1.25 12.337 1.25 14c0 .839.156 1.547.5 2.12.35.584.855.96 1.427 1.198.558.231 1.187.333 1.818.383q.356.027.732.037a1 1 0 0 0 .133.012q.105 0 .209-.005m.048-3.916-.01.001z" clip-rule="evenodd"/></svg>