<svg xmlns="http://www.w3.org/2000/svg" fill="none" viewBox="0 0 24 24"><path fill="currentColor" d="M3.463 9.5a.75.75 0 0 0-.747.682l-.202 2.981c-.171 1.898-.307 3.4-.251 4.58.057 1.214.319 2.213 1.049 3.018s1.698 1.159 2.896 1.326c1.164.163 2.664.163 4.557.163h2.47c1.893 0 3.393 0 4.557-.163 1.198-.167 2.165-.521 2.896-1.326s.992-1.804 1.05-3.017c.055-1.181-.081-2.683-.252-4.58l-.202-2.982a.75.75 0 0 0-.747-.682z" opacity=".4"/><path fill="currentColor" fill-rule="evenodd" d="M12.156 1.5c.556 0 1.066 0 1.49.055.472.062.936.202 1.354.548.408.335.648.764.83 1.213.173.424.328.958.507 1.575l.11.359h2.227c.611 0 1.051 0 1.423.09 1.046.252 1.908 1.033 2.115 2.086.073.37.024.791-.035 1.301l-.012.103v.005c-.093.809-.361 1.511-.875 2.082-.507.562-1.196.933-2.018 1.186l-3.701 1.142c-.128.04-.192.059-.233.029-.04-.03-.04-.101-.039-.241v-.709c.001-.308.002-.62-.078-.92a2.3 2.3 0 0 0-1.626-1.625c-.3-.08-.611-.08-.92-.079h-1.352c-.308 0-.62-.002-.919.079a2.3 2.3 0 0 0-1.626 1.626c-.08.3-.08.611-.079.919v.709c.002.14.003.21-.038.24-.04.031-.105.011-.233-.028l-3.7-1.142c-.823-.253-1.512-.624-2.019-1.186-.514-.57-.783-1.273-.875-2.082l-.013-.108c-.059-.51-.107-.93-.034-1.301.207-1.053 1.069-1.834 2.115-2.087.372-.09.812-.09 1.423-.089H7.55l.109-.36c.18-.616.335-1.15.507-1.574.182-.45.423-.878.83-1.213.418-.346.882-.486 1.354-.548.425-.055.934-.055 1.49-.055zm1.835 2.567c.112.276.224.643.382 1.183h-4.75c.158-.54.27-.907.382-1.183.123-.301.205-.389.254-.429.036-.03.103-.078.348-.11a8 8 0 0 1 1.103-.04l.288.002.289-.002a8 8 0 0 1 1.102.04c.245.032.312.08.349.11.048.04.13.128.253.429m-3.959 7.674c-.034.127-.034.282-.034.592V13a2 2 0 1 0 4 0v-.667c0-.31 0-.465-.034-.592a1 1 0 0 0-.707-.707C13.13 11 12.975 11 12.665 11H11.33c-.31 0-.465 0-.592.034a1 1 0 0 0-.707.707" clip-rule="evenodd"/></svg>