<svg xmlns="http://www.w3.org/2000/svg" fill="none" viewBox="0 0 24 24"><path fill="currentColor" d="M14.294 1.49c.308.06.462.09.529.21.066.13-.002.31-.138.67-.102.26-.164.6-.181 1.16-.004.15-.006.23-.035.28-.028.06-.091.11-.217.22a4.13 4.13 0 0 0-1.217 1.69c-.185.48-.24.93-.264 1.3-.021.33-.021.72-.021 1.11s0 .89.021 1.23c.024.36.079.82.264 1.29.38.99 1.129 1.82 2.133 2.26.495.22.966.29 1.335.32.327.02.704.02 1.06.02h1.874c.356 0 .733 0 1.06-.02.369-.03.84-.1 1.335-.32.313-.13.469-.2.551-.19.121.01.206.08.247.19.028.08.002.22-.049.49-.905 4.85-5.323 8.48-10.581 8.48-.696 0-1.39-.06-2.073-.19-.237-.04-.388-.07-.5-.09a.34.34 0 0 0-.199.04c-.115.05-.267.13-.501.26a7.26 7.26 0 0 1-4.713.73.752.752 0 0 1-.445-1.21c.468-.58.79-1.27.932-2.01.038-.21-.049-.49-.316-.76-1.815-1.84-2.935-4.34-2.935-7.08C1.25 5.84 6.095 1.25 12 1.25q1.182 0 2.294.24" opacity=".4"/><path fill="currentColor" fill-rule="evenodd" d="M21 3.69v1.06c.075.02.15.05.224.08.62.28 1.097.8 1.342 1.43.106.28.147.56.166.85.018.29.018.64.018 1.05v.05c0 .42 0 .77-.018 1.05-.019.3-.06.58-.166.85a2.53 2.53 0 0 1-1.342 1.43 2.5 2.5 0 0 1-.837.19c-.271.02-.6.02-.986.02h-1.802c-.386 0-.715 0-.986-.02a2.5 2.5 0 0 1-.837-.19 2.53 2.53 0 0 1-1.342-1.43 2.8 2.8 0 0 1-.166-.85c-.018-.28-.018-.63-.018-1.05v-.05c0-.41 0-.76.018-1.05.019-.29.06-.57.166-.85.245-.63.722-1.15 1.342-1.43.074-.03.149-.06.224-.08V3.69c0-1.37 1.145-2.44 2.5-2.44S21 2.32 21 3.69m-2.5-.94c-.578 0-1 .45-1 .94v.94h2v-.94c0-.49-.422-.94-1-.94M7.496 11c-.552 0-1 .45-1 1s.448 1 1 1h.01c.551 0 1-.45 1-1s-.449-1-1-1zm3.996 0a1.001 1.001 0 0 0 0 2h.01c.551 0 1-.45 1-1s-.449-1-1-1z" clip-rule="evenodd"/></svg>