<svg xmlns="http://www.w3.org/2000/svg" fill="none" viewBox="0 0 24 24"><path fill="currentColor" d="M15.487 1.973a.58.58 0 0 1 .387.554c0 .33-.267.598-.597.598h-.402a2.5 2.5 0 0 0 0 5c.471 0 .707 0 .854.146.146.147.146.383.146.854a2.5 2.5 0 0 0 5 0v-.364c0-.351.285-.633.637-.631.271 0 .521.163.607.421a10 10 0 0 1 .506 3.14c0 5.729-4.845 10.317-10.75 10.317-.696.001-1.39-.063-2.073-.191a12 12 0 0 0-.5-.088.35.35 0 0 0-.2.035c-.114.055-.266.135-.5.26a7.25 7.25 0 0 1-4.713.731.75.75 0 0 1-.445-1.21c.468-.576.79-1.269.932-2.015.038-.205-.049-.484-.316-.756-1.815-1.843-2.935-4.335-2.935-7.082 0-5.729 4.845-10.317 10.75-10.317 1.265 0 2.482.21 3.612.598" opacity=".4"/><path fill="currentColor" fill-rule="evenodd" d="M19.375 2.125a1 1 0 1 0-2 0v2.5h-2.5a1 1 0 1 0 0 2h2.5v2.5a1 1 0 1 0 2 0v-2.5h2.5a1 1 0 1 0 0-2h-2.5zm-11.5 9a1 1 0 1 0 0 2h.009a1 1 0 1 0 0-2zm3.996 0a1 1 0 1 0 0 2h.008a1 1 0 1 0 0-2z" clip-rule="evenodd"/></svg>