<svg xmlns="http://www.w3.org/2000/svg" fill="none" viewBox="0 0 24 24"><path fill="currentColor" d="M12 1.25c1.053 0 2.072.15 3.036.42.39.11.585.16.573.25s-.217.09-.629.09H14a2.5 2.5 0 0 0 0 5h2.553c.228 0 .342 0 .42.05s.123.18.214.43a2.63 2.63 0 0 0 1.334 1.5c1.307.63 2.431-.06 2.595-.16.103-.07.223-.16.345-.25.315-.23.472-.34.621-.29s.199.23.299.58c.241.86.369 1.76.369 2.7 0 5.73-4.845 10.31-10.75 10.31-.696 0-1.39-.06-2.073-.19-.237-.04-.388-.07-.5-.09a.34.34 0 0 0-.199.04c-.115.05-.267.13-.501.26a7.26 7.26 0 0 1-4.713.73.752.752 0 0 1-.445-1.21c.468-.58.79-1.27.932-2.01.038-.21-.049-.49-.316-.76-1.815-1.84-2.935-4.34-2.935-7.08C1.25 5.84 6.095 1.25 12 1.25" opacity=".4"/><path fill="currentColor" fill-rule="evenodd" d="M12.875 4.51c0 .55.448 1 1 1h4.5v.58c0 .17 0 .39.022.57.016.13.088.7.653.98.567.27 1.067-.03 1.176-.1h.004c.153-.09.324-.22.464-.34l.03-.02c.376-.29.86-.68 1.251-1.06.195-.19.397-.4.556-.63.141-.21.344-.56.344-.99s-.203-.78-.344-.99a4.4 4.4 0 0 0-.556-.63c-.391-.38-.875-.77-1.251-1.06l-.03-.02c-.14-.12-.311-.25-.464-.34h-.004c-.109-.07-.609-.37-1.176-.1-.565.28-.637.85-.653.98-.022.18-.022.4-.022.57v.6h-4.5c-.552 0-1 .45-1 1m-5 6.49c-.552 0-1 .45-1 1s.448 1 1 1h.009c.552 0 1-.45 1-1s-.448-1-1-1zm3.996 0a1.001 1.001 0 0 0 0 2h.008a1.001 1.001 0 0 0 0-2zm3.995 0c-.552 0-1 .45-1 1s.448 1 1 1h.009c.552 0 1-.45 1-1s-.448-1-1-1z" clip-rule="evenodd"/></svg>