<svg xmlns="http://www.w3.org/2000/svg" fill="none" viewBox="0 0 24 24"><path fill="currentColor" d="M1.25 11.567C1.25 5.838 6.095 1.25 12 1.25c.226 0 .34 0 .403.032a.285.285 0 0 1 .165.284c-.003.07-.07.188-.203.422-.524.92-.715 2.028-.564 3.118.255 1.853 1.438 3.626 3.419 5.052.483.364 1.715 1.092 2.78 1.092 1.274 0 2.259-.714 2.779-1.092q.432-.31.812-.642c.371-.323.556-.484.721-.426s.204.279.283.72q.154.856.155 1.757c0 5.728-4.845 10.316-10.75 10.316-.696.001-1.39-.063-2.073-.191a12 12 0 0 0-.5-.088.35.35 0 0 0-.2.035c-.114.055-.266.135-.5.26a7.25 7.25 0 0 1-4.713.731.75.75 0 0 1-.445-1.21c.468-.576.79-1.269.932-2.015.038-.205-.049-.484-.316-.756-1.815-1.843-2.935-4.335-2.935-7.082" opacity=".4"/><path fill="currentColor" fill-rule="evenodd" d="M21.369 1.743c-1.35-.805-2.596-.503-3.37.046-.772-.55-2.02-.851-3.368-.046-1.007.6-1.529 1.824-1.344 3.158.185 1.344 1.067 2.786 2.81 4.04.554.4 1.121.81 1.903.81.78 0 1.348-.41 1.902-.81 1.743-1.254 2.625-2.696 2.81-4.04.185-1.334-.337-2.558-1.343-3.158M8 11a1 1 0 1 0 0 2h.009a1 1 0 1 0 0-2zm3.996 0a1 1 0 1 0 0 2h.008a1 1 0 1 0 0-2z" clip-rule="evenodd"/></svg>