<svg xmlns="http://www.w3.org/2000/svg" fill="none" viewBox="0 0 24 24"><path fill="currentColor" fill-rule="evenodd" d="M16.045 22.373a12.9 12.9 0 0 0 1.705-6.429c0-2.245-.57-4.356-1.573-6.194H6.25v2.5H10a.75.75 0 0 1 0 1.5H6.25v2.5H10a.75.75 0 0 1 0 1.5H6.25V22c0 .414.336.75.75.75h8.83zM7.75 2a.75.75 0 0 0-1.5 0v4.6c0 .189 0 .283.059.341S6.462 7 6.65 7h6.574c.404 0 .606 0 .655-.128.05-.129-.097-.26-.39-.525a12.7 12.7 0 0 0-5.426-2.89c-.152-.039-.228-.057-.27-.112-.043-.054-.043-.13-.043-.283z" clip-rule="evenodd" opacity=".4"/><path fill="currentColor" fill-rule="evenodd" d="M3.5 20.75a1 1 0 1 0 0 2h17a1 1 0 1 0 0-2zM5 8.25a.75.75 0 0 0 0 1.5h12a.75.75 0 0 0 0-1.5z" clip-rule="evenodd"/></svg>