<svg xmlns="http://www.w3.org/2000/svg" fill="none" viewBox="0 0 24 24"><path fill="currentColor" d="M11.25 2.725c0-.283 0-.424-.088-.512s-.23-.088-.512-.088H8.018c-1.32 0-2.415 0-3.283.124-.92.132-1.726.42-2.363 1.098-.63.67-.888 1.499-1.007 2.444-.115.91-.115 2.064-.115 3.479v2.21c0 1.415 0 2.569.115 3.479.12.946.378 1.775 1.007 2.444.637.679 1.443.966 2.363 1.098.868.124 1.963.124 3.283.124h7.964c1.32 0 2.415 0 3.283-.124.92-.132 1.726-.42 2.363-1.098.63-.67.888-1.498 1.007-2.444.115-.91.115-2.064.115-3.479V9.27c0-1.415 0-2.569-.115-3.479-.12-.945-.378-1.775-1.007-2.444-.637-.679-1.443-.966-2.363-1.098-.868-.124-1.963-.124-3.283-.124H13.35c-.283 0-.424 0-.512.088s-.088.23-.088.512v11.3c0 .283 0 .424.088.512s.23.088.512.088h6.676c.327 0 .49 0 .58.117s.052.262-.025.551c-.099.37-.23.624-.382.785-.22.236-.535.405-1.213.502-.712.102-1.666.104-3.077.104H8.09c-1.412 0-2.365-.003-3.078-.105-.677-.096-.992-.265-1.213-.5-.152-.162-.282-.415-.381-.786-.078-.289-.116-.433-.026-.55s.253-.118.58-.118h6.677c.283 0 .424 0 .512-.088s.088-.23.088-.512z" opacity=".4"/><path fill="currentColor" fill-rule="evenodd" d="M4.738 18.502h-.004c-.92-.132-1.725-.42-2.363-1.099-.629-.669-.887-1.498-1.006-2.444l-.025-.216h2.053c-.09.117-.052.261.025.55.1.371.23.624.382.786.22.235.536.404 1.213.5.712.103 1.666.105 3.077.105h7.819c1.411 0 2.365-.002 3.077-.104.677-.097.992-.266 1.213-.501.152-.162.283-.415.382-.785.077-.29.115-.434.025-.551h2.053l-.024.216c-.12.946-.378 1.775-1.007 2.444-.638.679-1.443.967-2.363 1.098h-.002l.686 2.058a1 1 0 0 1-1.897.633l-.857-2.57q-.571.004-1.213.003H8.018q-.642.001-1.212-.004l-.857 2.57a1 1 0 1 1-1.897-.631zM9 7.125a.75.75 0 0 1 .75.75v1a.75.75 0 1 1-1.5 0v-1a.75.75 0 0 1 .75-.75m6.75.75a.75.75 0 0 0-1.5 0v1a.75.75 0 0 0 1.5 0z" clip-rule="evenodd"/></svg>