<svg xmlns="http://www.w3.org/2000/svg" fill="none" viewBox="0 0 24 24"><path fill="currentColor" fill-rule="evenodd" d="M13.029 2H10.97c-1.948 0-3.52 0-4.756.18-1.29.187-2.358.588-3.197 1.495-.829.895-1.185 2.018-1.354 3.374-.164 1.32-.164 3.005-.164 5.125v.652c0 2.12 0 3.805.164 5.125.169 1.356.525 2.479 1.354 3.374.839.907 1.907 1.308 3.197 1.495C7.45 23 9.022 23 10.97 23h2.058c1.948 0 3.52 0 4.756-.18 1.29-.187 2.358-.588 3.197-1.495.829-.895 1.185-2.018 1.354-3.374.164-1.32.164-3.005.164-5.125v-.652c0-2.12 0-3.805-.164-5.125-.169-1.356-.525-2.479-1.354-3.374-.839-.907-1.907-1.308-3.197-1.495C16.549 2 14.977 2 13.029 2M4.498 9c-.459 0-.688 0-.834.144s-.15.37-.155.824c-.009.673-.009 1.426-.009 2.275v.514c0 2.205.002 3.765.149 4.948.144 1.16.414 1.804.837 2.262.414.447.979.723 2.017.874 1.076.156 2.501.159 4.547.159h1.9c2.046 0 3.471-.003 4.547-.159 1.038-.15 1.603-.427 2.017-.874.423-.458.693-1.101.837-2.262.147-1.183.149-2.743.149-4.948v-.514c0-.849 0-1.602-.009-2.275-.006-.453-.009-.68-.155-.824S19.961 9 19.502 9z" clip-rule="evenodd" opacity=".4"/><path fill="currentColor" fill-rule="evenodd" d="M6 1a1 1 0 0 1 1 1v.092q-.413.034-.785.088c-.43.062-.835.148-1.215.269V2a1 1 0 0 1 1-1m11.785 1.18c.43.062.835.148 1.215.269V2a1 1 0 1 0-2 0v.092q.413.034.785.088m-4.92 9.44c0-.48-.387-.87-.865-.87a.867.867 0 0 0-.865.87v.212a3.26 3.26 0 0 0-1.278.688l-.262-.175a.863.863 0 0 0-1.2.241c-.265.4-.157.94.24 1.205l.261.175a3.3 3.3 0 0 0 0 2.068l-.26.175a.87.87 0 0 0-.24 1.205c.265.4.802.507 1.2.241l.261-.175a3.26 3.26 0 0 0 1.278.688v.213c0 .48.387.869.865.869s.865-.39.865-.87v-.212a3.26 3.26 0 0 0 1.278-.688l.261.175a.863.863 0 0 0 1.2-.241.87.87 0 0 0-.24-1.206l-.26-.174a3.3 3.3 0 0 0 0-2.068l.26-.175a.87.87 0 0 0 .24-1.205.863.863 0 0 0-1.2-.241l-.261.175a3.26 3.26 0 0 0-1.278-.688zm-2.146 2.523a1.534 1.534 0 0 1 2.562 0c.162.245.257.539.257.857s-.095.612-.257.857a1.534 1.534 0 0 1-2.562 0 1.54 1.54 0 0 1-.257-.857c0-.318.095-.612.257-.857" clip-rule="evenodd"/></svg>