<svg xmlns="http://www.w3.org/2000/svg" fill="none" viewBox="0 0 24 24"><path fill="currentColor" fill-rule="evenodd" d="M13.029 2H10.97c-1.948 0-3.52 0-4.756.18-1.29.187-2.358.588-3.197 1.495-.829.895-1.185 2.018-1.354 3.374-.164 1.32-.164 3.005-.164 5.125v.652c0 2.12 0 3.805.164 5.125.169 1.356.525 2.479 1.354 3.374.839.907 1.907 1.308 3.197 1.495C7.45 23 9.022 23 10.97 23h2.058c1.948 0 3.52 0 4.756-.18 1.29-.187 2.358-.588 3.197-1.495.829-.895 1.185-2.018 1.354-3.374.164-1.32.164-3.005.164-5.125v-.652c0-2.12 0-3.805-.164-5.125-.169-1.356-.525-2.479-1.354-3.374-.839-.907-1.907-1.308-3.197-1.495C16.549 2 14.977 2 13.029 2M4.498 9c-.459 0-.688 0-.834.144s-.15.37-.155.824c-.009.673-.009 1.426-.009 2.275v.514c0 2.205.002 3.765.149 4.948.144 1.16.414 1.804.837 2.262.414.447.979.723 2.017.874 1.076.156 2.501.159 4.547.159h1.9c2.046 0 3.471-.003 4.547-.159 1.038-.15 1.603-.427 2.017-.874.423-.458.693-1.101.837-2.262.147-1.183.149-2.743.149-4.948v-.514c0-.849 0-1.602-.009-2.275-.006-.453-.009-.68-.155-.824S19.961 9 19.502 9z" clip-rule="evenodd" opacity=".4"/><path fill="currentColor" fill-rule="evenodd" d="M6 1a1 1 0 0 1 1 1v.092q-.413.034-.785.088c-.43.062-.835.148-1.215.269V2a1 1 0 0 1 1-1m11.785 1.18c.43.062.835.148 1.215.269V2a1 1 0 1 0-2 0v.092q.413.034.785.088M12 10.75a4.25 4.25 0 1 0 0 8.5 4.25 4.25 0 0 0 0-8.5M9.489 15c0-.376.082-.732.23-1.052l3.333 3.333A2.51 2.51 0 0 1 9.489 15m4.792 1.052-3.333-3.333a2.511 2.511 0 0 1 3.333 3.333" clip-rule="evenodd"/></svg>