<svg xmlns="http://www.w3.org/2000/svg" fill="none" viewBox="0 0 24 24"><path fill="currentColor" d="M5.192 1.412c.567.117 1.018.497 1.299 1l.893 1.603c.329.59.606 1.087.787 1.519.191.458.305.91.253 1.409s-.257.917-.539 1.326c-.266.385-.64.814-1.083 1.324L5.49 11.1c-.235.27-.353.405-.364.574-.01.169.086.313.279.602a23.3 23.3 0 0 0 6.32 6.32c.288.193.433.29.601.278.17-.01.305-.128.575-.363l1.508-1.313c.51-.444.939-.818 1.324-1.084.408-.282.827-.486 1.326-.538s.951.061 1.41.253c.43.181.928.458 1.518.787l1.602.893c.503.28.884.732 1.001 1.298.119.573-.056 1.149-.442 1.622-1.398 1.716-3.64 2.809-5.991 2.335-1.445-.292-2.871-.778-4.596-1.767-3.465-1.987-6.572-5.096-8.557-8.557-.99-1.725-1.475-3.151-1.767-4.596-.474-2.351.619-4.593 2.335-5.992.473-.385 1.049-.56 1.621-.441" opacity=".4"/><path fill="currentColor" fill-rule="evenodd" d="M13.569 1.848a1 1 0 0 1 1.237-.684 11.78 11.78 0 0 1 8.03 8.03 1 1 0 1 1-1.921.554 9.78 9.78 0 0 0-6.663-6.662 1 1 0 0 1-.684-1.238m-.614 4.718a1 1 0 0 1 1.311-.53 7 7 0 0 1 3.698 3.698 1 1 0 1 1-1.841.782 5 5 0 0 0-2.639-2.638 1 1 0 0 1-.53-1.312" clip-rule="evenodd"/></svg>