<svg xmlns="http://www.w3.org/2000/svg" fill="none" viewBox="0 0 24 24"><path fill="currentColor" fill-rule="evenodd" d="M15.86 3.32c-.62-.07-1.38-.07-2.32-.07h-3.08c-.93 0-1.7 0-2.32.07-.65.07-1.21.22-1.72.56s-.87.8-1.18 1.37c-.3.55-.59 1.25-.95 2.12l-.61 1.45-1.23-.92a.75.75 0 0 0-.9 1.2l1.43 1.07-.33.49c-.61.91-1 1.5-1.2 2.17-.2.68-.2 1.39-.2 2.48V20c0 .41.34.75.75.75h2.25c.41 0 .75-.34.75-.75v-1c0-.49 0-.79.03-1 .01-.16.15-.21.22-.22.21-.03 1.25-.03 1.75-.03h10c.49 0 1.54 0 1.75.03.07.01.21.07.22.22.03.21.03.51.03 1v1c0 .41.34.75.75.75H22c.41 0 .75-.34.75-.75v-4.69c0-1.09 0-1.8-.2-2.48-.2-.67-.6-1.26-1.2-2.17l-.33-.49 1.43-1.07a.75.75 0 0 0-.9-1.2l-1.23.92-.61-1.45c-.36-.87-.65-1.57-.95-2.12-.31-.57-.67-1.03-1.18-1.37s-1.08-.49-1.72-.56M6.13 9.75l-1.09-.27.63-1.5c.38-.91.64-1.54.9-2 .25-.45.46-.69.7-.85s.54-.27 1.05-.32c.53-.06 1.21-.06 2.2-.06h3c.99 0 1.67 0 2.19.06.51.05.81.16 1.05.32s.45.4.7.85c.26.46.52 1.09.9 2l.63 1.5-1.05.27z" clip-rule="evenodd" opacity=".4"/><path fill="currentColor" fill-rule="evenodd" d="M7.01 14c0-.55-.45-1-1-1a1.005 1.005 0 0 0 0 2.01c.55 0 1-.45 1-1.01m12 0c0-.55-.45-1-1-1a1.005 1.005 0 0 0 0 2.01c.55 0 1-.45 1-1.01" clip-rule="evenodd"/></svg>