<svg xmlns="http://www.w3.org/2000/svg" fill="none" viewBox="0 0 24 24"><path fill="currentColor" d="M21.71 10.34c-.43-.575-.948-1.11-1.367-1.544-.08-.083-.106-.172-.143-.28l-1.072-3.108c-.2-.578-.375-1.086-.57-1.488-.209-.435-.479-.834-.916-1.14-.438-.304-.915-.425-1.41-.48-.456-.05-1.01-.05-1.641-.05H9.409c-.631 0-1.185 0-1.642.05-.494.055-.97.176-1.408.48-.438.306-.708.705-.918 1.14-.194.402-.369.91-.569 1.488L3.8 8.516c-.04.115-.058.192-.143.28-.42.433-.937.969-1.367 1.545-.54.723-1.04 1.63-1.04 2.659v3.47c0 .878.593 1.736 1.535 1.861l3.117.413A1 1 0 0 0 6 18.75h12a1 1 0 0 0 .098-.006l3.117-.413c.942-.125 1.535-.983 1.535-1.86V13c0-1.029-.5-1.936-1.04-2.66" opacity=".4"/><path fill="currentColor" fill-rule="evenodd" d="M6.1 19.752c.189 0 .283 0 .341.059s.059.152.059.341v.482c0 .379-.24.725-.622.894l-.045.02c-.231.104-.456.204-.724.204H3.391c-.268 0-.493-.1-.724-.204l-.045-.02C2.24 21.36 2 21.013 2 20.634v-.889c0-.256 0-.383.07-.443s.213-.037.498.01l.086.012 3.116.413q.115.015.23.015zm11.8 0c-.189 0-.283 0-.341.058s-.059.153-.059.342v.482c0 .378.24.725.622.894l.045.02c.231.103.456.204.724.204h1.718c.268 0 .493-.1.724-.204l.045-.02c.381-.17.622-.515.622-.894v-.889c0-.256 0-.384-.07-.443-.071-.06-.213-.037-.498.01l-.085.012-3.117.413q-.114.015-.23.015zM6.78 8.25c-.384 0-.576 0-.665-.126s-.028-.307.098-.67l.485-1.406c.22-.64.361-1.043.503-1.337.18-.374.376-.502.786-.548.334-.037.775-.038 1.473-.038h5.08c.698 0 1.14.002 1.473.038.41.046.606.174.786.548.142.294.283.698.503 1.337l.486 1.406c.125.363.187.544.098.67-.09.126-.282.126-.666.126zm-3.444 3.33a.75.75 0 1 0-.671 1.341l1.5.75a.75.75 0 1 0 .67-1.341zm18 1.341a.75.75 0 1 0-.671-1.341l-1.5.75a.75.75 0 1 0 .67 1.341zm-8.367 2.08h-1.938c-.983 0-1.475 0-1.856.273-.296.212-.472.551-.707 1.145-.103.261-.155.392-.095.486.06.095.194.095.464.095h6.327c.27 0 .405 0 .464-.095.06-.094.008-.225-.095-.486-.235-.594-.412-.933-.707-1.145C14.445 15 13.953 15 12.969 15m7.374-6.205q.2.206.422.44l.682-.341a1 1 0 1 0-.894-1.79l-.716.359.363 1.052.009.025a.6.6 0 0 0 .134.255m-17.79.099.682.34q.222-.233.422-.44c.075-.077.098-.146.13-.241l.013-.038.363-1.052-.716-.358a1 1 0 1 0-.894 1.789" clip-rule="evenodd"/></svg>