<svg xmlns="http://www.w3.org/2000/svg" fill="none" viewBox="0 0 24 24"><path fill="currentColor" d="M11.055 4.25c1.367 0 2.47 0 3.337.117.9.12 1.658.38 2.26.981.602.602.86 1.36.982 2.26.116.867.116 1.97.116 3.337v5.11c0 1.367 0 2.47-.116 3.337-.122.9-.38 1.658-.982 2.26s-1.36.86-2.26.982c-.867.116-1.97.116-3.337.116h-2.11c-1.367 0-2.47 0-3.337-.116-.9-.122-1.658-.38-2.26-.982s-.86-1.36-.981-2.26c-.117-.867-.117-1.97-.117-3.337v-5.11c0-1.367 0-2.47.117-3.337.12-.9.38-1.658.981-2.26.602-.602 1.36-.86 2.26-.981.867-.117 1.97-.117 3.337-.117z" opacity=".4"/><path fill="currentColor" fill-rule="evenodd" d="m14.042 2.042 2.071.538c1.347.35 2.43.63 3.25.961.848.343 1.524.781 1.96 1.51.436.734.491 1.53.373 2.422-.115.858-.406 1.91-.766 3.21l-1.084 3.918c-.36 1.3-.65 2.352-.994 3.15-.301.698-.671 1.272-1.225 1.685l.006-.044c.106-.788.116-1.77.117-2.968.2-.597.406-1.34.666-2.277l1.054-3.81c.378-1.368.64-2.319.739-3.062.095-.719.02-1.127-.175-1.455-.198-.332-.533-.605-1.234-.888-.718-.29-1.705-.548-3.116-.914l-1.967-.51c-1.41-.366-2.399-.621-3.171-.717-.753-.094-1.191-.022-1.544.175-.37.207-.654.555-.955 1.285a31 31 0 0 0-1.617.04c.409-1.19.895-2.105 1.84-2.634.744-.416 1.55-.469 2.461-.355.882.11 1.964.39 3.31.74M10 10.604c-.632-.384-1.588-.56-2.61.02-.83.472-1.261 1.44-1.11 2.482.151 1.045.863 2.121 2.198 3.036l.061.042c.413.284.823.566 1.46.566.639 0 1.048-.282 1.461-.566l.062-.042c1.334-.915 2.046-1.991 2.198-3.036.15-1.043-.28-2.01-1.111-2.482-1.022-.58-1.978-.405-2.61-.02" clip-rule="evenodd"/></svg>