<svg xmlns="http://www.w3.org/2000/svg" fill="none" viewBox="0 0 24 24"><path fill="currentColor" fill-rule="evenodd" d="M11.648 1.625h-.045c-.592 0-1.105 0-1.521.053-.448.057-.879.185-1.247.51s-.549.737-.66 1.174c-.105.406-.169.916-.242 1.503l-.006.045-.171 1.372a.75.75 0 0 0 .744.843h7a.75.75 0 0 0 .744-.843l-.177-1.417c-.073-.587-.137-1.097-.241-1.503-.112-.437-.293-.849-.661-1.174s-.799-.453-1.247-.51c-.416-.053-.93-.053-1.52-.053zm.352 8c-.38 0-.725.154-1.048.298l-.079.036-7.518 3.33a4 4 0 0 0-.503.248 1.23 1.23 0 0 0-.507.564c-.12.277-.108.537-.065.748.035.171.102.359.16.522l.01.03c.209.587.55 1.42 1.01 2.334.108.216.163.325.262.368.098.044.228.007.486-.066.32-.09.703-.162 1.125-.162.628 0 1.196.157 1.572.278.394.127.811.298 1.1.417l.008.003c.19.078.341.14.47.19a.5.5 0 0 0 .2.053c.057 0 .104-.02.198-.06.135-.055.304-.128.49-.21.504-.224 1.51-.671 2.629-.671 1.12 0 2.168.466 2.67.688.215.11.693.322.88.283a3.3 3.3 0 0 0 .52-.203c.202-.096.652-.312.942-.426.375-.147.961-.342 1.655-.342.407 0 .82.077 1.161.163.244.062.365.093.461.05.096-.044.148-.148.253-.356.458-.912.8-1.745 1.007-2.331l.011-.03c.058-.163.125-.35.16-.522a1.23 1.23 0 0 0-.065-.748 1.23 1.23 0 0 0-.508-.564 4 4 0 0 0-.502-.248l-7.518-3.33-.08-.036c-.322-.144-.668-.298-1.047-.298" clip-rule="evenodd" opacity=".4"/><path fill="currentColor" fill-rule="evenodd" d="M8.028 5.45c.576-.075 1.29-.075 2.115-.075h3.717c.825 0 1.539 0 2.115.075.62.08 1.214.262 1.713.724s.725 1.04.853 1.652c.119.568.174 1.28.237 2.103l.201 2.621-2.076-.92-.115-1.485c-.069-.903-.116-1.484-.205-1.91-.083-.398-.178-.523-.254-.594s-.209-.155-.612-.208c-.432-.056-1.014-.058-1.92-.058h-3.591c-.906 0-1.488.002-1.92.058-.403.053-.536.138-.612.208s-.171.196-.254.594c-.09.426-.136 1.007-.206 1.91L7.1 11.63l-2.077.92.202-2.622c.063-.823.118-1.534.237-2.103.128-.611.354-1.19.853-1.652s1.093-.643 1.713-.724M5.333 19.375c-.42 0-.802.119-1.105.238a11 11 0 0 0-.698.314l-.16.076c-.554.261-.936.395-1.296.369a1 1 0 1 0-.148 1.994c.935.07 1.745-.293 2.296-.553l.213-.102c.202-.096.363-.173.525-.237.208-.082.319-.099.373-.099.081 0 .238.025.496.108.249.08.522.191.832.319l.05.02c.282.116.598.245.897.345s.68.205 1.06.202c.715.003 1.43-.316 1.92-.534l.101-.045c.606-.268.99-.415 1.311-.415s.705.147 1.31.415l.103.045c.482.215 1.183.527 1.886.534.918.056 1.713-.3 2.257-.556l.213-.102c.201-.096.362-.173.524-.237.209-.082.319-.099.374-.099.08 0 .237.025.495.108.25.08.522.191.832.319l.05.02c.282.116.598.245.897.345.303.101.688.207 1.072.202a1 1 0 1 0-.026-2c-.037 0-.16-.015-.413-.1a13 13 0 0 1-.797-.308l-.024-.01a14 14 0 0 0-.976-.37c-.324-.105-.716-.206-1.11-.206-.42 0-.802.119-1.106.238a11 11 0 0 0-.697.314l-.16.076c-.555.261-.937.395-1.297.369l-.082-.003c-.242.002-.568-.127-1.205-.408l-.043-.02c-.523-.23-1.28-.566-2.077-.566s-1.554.335-2.077.567l-.042.019c-.638.281-.964.41-1.206.408h-.022c-.036 0-.16-.015-.412-.1a13 13 0 0 1-.797-.308l-.024-.01a14 14 0 0 0-.976-.37c-.325-.105-.717-.206-1.11-.206" clip-rule="evenodd"/></svg>