<svg xmlns="http://www.w3.org/2000/svg" fill="none" viewBox="0 0 24 24"><path fill="currentColor" fill-rule="evenodd" d="M3.335 5.64 3.2 4.55a.977.977 0 1 0-1.94.242L1.75 8.7a.977.977 0 0 0 1.206.827l3.909-.978a.977.977 0 0 0-.474-1.896l-1.675.419A8.795 8.795 0 1 1 3.207 12a.977.977 0 0 0-1.955 0c0 5.937 4.813 10.75 10.75 10.75s10.75-4.813 10.75-10.75-4.813-10.75-10.75-10.75c-3.558 0-6.71 1.728-8.667 4.39" clip-rule="evenodd"/><path fill="currentColor" fill-rule="evenodd" d="M11.993 5.5a1 1 0 0 1 1 1v.652a3.61 3.61 0 0 1 2.505 2.028 1 1 0 0 1-1.828.812 1.61 1.61 0 0 0-1.49-.926l-.154.003c-.629.026-1.025.207-1.264.379a1.3 1.3 0 0 0-.289.28 1 1 0 0 0-.068.108l-.02.044-.007.022-.007.022c-.058.161-.056.362.013.488.035.063.21.339 1.062.4 1.295.091 2.451.219 3.255.642.448.235.828.58 1.06 1.078.223.476.264.996.222 1.507-.098 1.176-.717 1.966-1.536 2.406a4.1 4.1 0 0 1-1.454.434v.621a1 1 0 1 1-2 0v-.737a5.5 5.5 0 0 1-1.222-.42c-.78-.383-1.641-1.096-1.762-2.286a1 1 0 0 1 1.99-.202c.02.207.17.454.653.692.476.233 1.088.351 1.56.366.502.017.97-.058 1.288-.23.257-.138.451-.346.49-.81.025-.309-.017-.444-.04-.494-.014-.03-.043-.083-.18-.155-.368-.194-1.085-.32-2.466-.418l.071-.997-.07.998c-1.288-.092-2.208-.588-2.672-1.43-.424-.768-.333-1.59-.152-2.108.243-.758 1.047-1.722 2.512-2.07V6.5a1 1 0 0 1 1-1" clip-rule="evenodd" opacity=".5"/></svg>