<svg xmlns="http://www.w3.org/2000/svg" fill="none" viewBox="0 0 24 24"><path fill="currentColor" fill-rule="evenodd" d="M14.956 8.25h.827c.323 0 .619 0 .864-.025q.122-.012.248-.037l.42 3.063c.647.005 1.228.027 1.737.1.594.084 1.145.244 1.618.568.972.667 1.35 1.84 1.565 3.453l.274 2.056c.134 1.007.246 1.841.24 2.507-.004.699-.135 1.343-.602 1.877-.467.533-1.089.748-1.78.845-.66.093-1.501.093-2.517.093H6.15c-1.016 0-1.858 0-2.517-.093-.692-.097-1.314-.312-1.78-.845-.468-.534-.599-1.178-.604-1.877-.005-.666.107-1.5.241-2.507l.274-2.056c.214-1.607.589-2.78 1.56-3.449.472-.325 1.023-.486 1.617-.57.51-.074 1.093-.097 1.743-.102l.42-3.063q.126.026.248.037c.245.025.541.025.864.025h.827L7.32 20.81h9.358z" clip-rule="evenodd"/><path fill="currentColor" fill-rule="evenodd" d="M8 1.25a1 1 0 0 1 1 1v.9a.1.1 0 0 0 .1.1h1.8a.1.1 0 0 0 .1-.1v-.9a1 1 0 1 1 2 0v.9a.1.1 0 0 0 .1.1h1.8a.1.1 0 0 0 .1-.1v-.9a1 1 0 1 1 2 0v1.009c0 .045.03.085.074.098.134.042.268.101.398.188.191.128.355.292.483.483.18.27.243.558.27.825.025.245.025.541.025.864v.066c0 .323 0 .619-.025.864-.027.267-.09.555-.27.825a1.8 1.8 0 0 1-.483.483c-.27.18-.558.243-.825.27-.245.025-.541.025-.864.025H8.217c-.323 0-.619 0-.864-.025a1.76 1.76 0 0 1-.825-.27 1.8 1.8 0 0 1-.483-.483 1.76 1.76 0 0 1-.27-.825 9 9 0 0 1-.025-.864v-.066c0-.323 0-.619.025-.864.027-.267.09-.555.27-.825a1.8 1.8 0 0 1 .483-.483 1.5 1.5 0 0 1 .398-.188A.1.1 0 0 0 7 3.26V2.25a1 1 0 0 1 1-1m6.329 16.723L15 22H9l.671-4.027c.114-.681.17-1.022.336-1.28a1.5 1.5 0 0 1 .675-.573C10.964 16 11.309 16 12 16c.69 0 1.036 0 1.318.12a1.5 1.5 0 0 1 .675.572c.165.259.222.6.336 1.28" clip-rule="evenodd" opacity=".4"/></svg>