<svg xmlns="http://www.w3.org/2000/svg" fill="none" viewBox="0 0 24 24"><path fill="currentColor" d="M12.709 1.871a.75.75 0 0 0-.996-.576l-5.496 2a.75.75 0 0 0-.456.468c-.995 2.99-.428 6.088.757 9.169.949 2.468 2.331 5.014 3.715 7.561q.506.93 1.004 1.86a.75.75 0 0 0 .662.397H18a.75.75 0 0 0 .75-.75c0-1.212-.431-2.985-1.014-4.748-.59-1.786-1.368-3.658-2.122-5.1-.69-1.319-1.316-3.29-1.825-5.264a68 68 0 0 1-1.08-5.017" opacity=".4"/><path fill="currentColor" fill-rule="evenodd" d="M4 20.75a1 1 0 1 0 0 2h16a1 1 0 1 0 0-2H8.691l-1.88-3.556c-.137-.26-.206-.391-.305-.383s-.145.147-.237.425l-.005.016c-.405 1.225-.737 2.455-.901 3.498zM18.238 3.763a.75.75 0 0 0-.455-.468L14.75 2.19c-.218-.08-.328-.12-.394-.063-.067.057-.045.17-.002.398.21 1.096.513 2.528.889 3.987.503 1.955 1.095 3.786 1.701 4.944q.156.297.31.614c.137.277.204.416.305.41.1-.007.149-.15.247-.437.956-2.787 1.333-5.578.433-8.281M5.945 11.269q.228.75.512 1.5H9a.75.75 0 0 0 0-1.5zM5.316 8.25q.078.75.238 1.5H8a.75.75 0 1 0 0-1.5z" clip-rule="evenodd"/></svg>