<svg xmlns="http://www.w3.org/2000/svg" fill="none" viewBox="0 0 24 24"><path fill="currentColor" fill-rule="evenodd" d="M7.25 16.02v.387c0 .439 0 .817-.021 1.13-.023.33-.072.66-.207.986a3 3 0 0 1-1.624 1.624 3 3 0 0 1-.986.207c-.313.021-.691.021-1.13.021H3.25a1 1 0 1 1 0-2c.48 0 .79 0 1.026-.017.228-.015.315-.042.357-.06a1 1 0 0 0 .54-.54c.018-.042.045-.129.06-.357.016-.237.017-.546.017-1.026v-3.021c0-1.514 1.225-2.797 2.786-2.726 4.777.217 7.478 1.17 8.663 1.72.705.325 1.051 1.03 1.051 1.71a2.06 2.06 0 0 1-2.053 2.067H8q-.392-.001-.75-.104m7.137-5.854c.063.089.18.121.415.186a16 16 0 0 1 2.42.862q.26.12.48.276c.49.346.735.519.876.476s.227-.274.4-.735l2.663-7.107.003-.007c.381-1.046-.298-2.082-1.307-2.339-1.865-.474-4.058.168-4.773 2.126-.498 1.361-.997 3.257-1.21 5.821-.019.235-.029.352.034.441" clip-rule="evenodd" opacity=".4"/><path fill="currentColor" fill-rule="evenodd" d="M13 16.125h-2v4.25h-1a1 1 0 0 0 0 2h4a1 1 0 1 0 0-2h-1zM8.048 9.353c-.034.364-.045.788-.048 1.272l.034.002q1.049.049 1.965.139c.003-.522.011-.912.04-1.226.04-.415.108-.577.164-.663.13-.202.312-.357.52-.449.08-.035.32-.079.775-.033.422.042.906.147 1.383.278a17 17 0 0 1 1.524.502c.074-.731.173-1.405.287-2.025a19 19 0 0 0-1.281-.405 11 11 0 0 0-1.713-.34c-.544-.055-1.214-.058-1.783.194a3.2 3.2 0 0 0-1.393 1.194c-.308.477-.422 1.01-.474 1.56" clip-rule="evenodd"/></svg>