<svg xmlns="http://www.w3.org/2000/svg" fill="none" viewBox="0 0 24 24"><path fill="currentColor" fill-rule="evenodd" d="M4 20.5a1 1 0 0 0 1 1c1.15 0 2.13-.265 2.958-.768.823-.5 1.436-1.198 1.912-1.977.879-1.441 1.361-3.305 1.8-4.999l.066-.255c.48-1.848.933-3.488 1.727-4.682.383-.577.829-1.02 1.37-1.323.54-.302 1.229-.496 2.145-.496 1.434 0 2.38.748 3.207 1.913a1 1 0 1 0 1.63-1.159C20.792 6.315 19.318 5 16.978 5c-1.21 0-2.245.26-3.122.75-.874.49-1.539 1.18-2.059 1.962C10.784 9.237 10.261 11.222 9.8 13l-.029.11c-.472 1.819-.888 3.423-1.609 4.605-.354.58-.758 1.015-1.242 1.308-.478.29-1.09.478-1.92.478a1 1 0 0 0-1 1" clip-rule="evenodd" opacity=".4"/><path fill="currentColor" fill-rule="evenodd" d="M3 2a1 1 0 0 1 1 1v11c0 1.678.002 2.836.12 3.707.112.842.316 1.265.612 1.56.296.297.719.5 1.56.614.872.117 2.03.119 3.708.119h11a1 1 0 1 1 0 2H9.928c-1.589 0-2.882 0-3.902-.137-1.064-.143-1.979-.452-2.708-1.181s-1.038-1.644-1.18-2.708C2 16.954 2 15.66 2 14.072V3a1 1 0 0 1 1-1" clip-rule="evenodd"/></svg>