<svg xmlns="http://www.w3.org/2000/svg" fill="none" viewBox="0 0 24 24"><path fill="currentColor" fill-rule="evenodd" d="M18.75 5a2.5 2.5 0 0 1 .382 4.971l-.008.015-2.293 4.128a2.5 2.5 0 1 1-4.497.74l-2.656-2.032a2.5 2.5 0 0 1-1.358.141l-4.229 6.578a1 1 0 1 1-1.682-1.082l4.243-6.6a2.5 2.5 0 1 1 4.437-.476l2.491 1.907a2.5 2.5 0 0 1 1.565-.259l2.005-3.61A2.5 2.5 0 0 1 18.75 5m-4 9.75a.75.75 0 1 0 0 1.5.75.75 0 0 0 0-1.5m-6-5a.75.75 0 1 0 0 1.5.75.75 0 0 0 0-1.5m10-3a.75.75 0 1 0 0 1.5.75.75 0 0 0 0-1.5" clip-rule="evenodd" opacity=".4"/><path fill="currentColor" fill-rule="evenodd" d="M2.25 2a1 1 0 0 1 1 1v11c0 1.678.002 2.836.119 3.707.113.842.317 1.265.613 1.56.296.297.719.5 1.561.614.871.117 2.029.119 3.707.119h11a1 1 0 0 1 0 2H9.178c-1.589 0-2.882 0-3.902-.137-1.064-.143-1.979-.452-2.708-1.181s-1.038-1.644-1.181-2.708c-.137-1.02-.137-2.313-.137-3.902V3a1 1 0 0 1 1-1" clip-rule="evenodd"/></svg>