<svg xmlns="http://www.w3.org/2000/svg" fill="none" viewBox="0 0 24 24"><path fill="currentColor" d="M1.25 12c0 5.937 4.813 10.75 10.75 10.75S22.75 17.937 22.75 12 17.937 1.25 12 1.25 1.25 6.063 1.25 12" opacity=".4"/><path fill="currentColor" d="M16.878 8.02a1 1 0 0 1-.398 1.358c-1.371.75-2.66 2.32-3.643 3.825a25 25 0 0 0-1.43 2.508l-.097.205a1 1 0 0 1-1.768.098c-.31-.52-.804-.994-1.262-1.356a8 8 0 0 0-.565-.408l-.21-.131a1 1 0 0 1 .99-1.737l.316.195c.182.12.432.293.71.512.212.168.449.37.688.602.257-.461.578-1.006.954-1.581 1.017-1.557 2.529-3.487 4.357-4.487a1 1 0 0 1 1.358.397"/></svg>