<svg xmlns="http://www.w3.org/2000/svg" fill="none" viewBox="0 0 24 24"><path fill="currentColor" fill-rule="evenodd" d="M10 6a1 1 0 0 1 1-1h10a1 1 0 1 1 0 2H11a1 1 0 0 1-1-1m0 6a1 1 0 0 1 1-1h10a1 1 0 1 1 0 2H11a1 1 0 0 1-1-1m1 5a1 1 0 1 0 0 2h10a1 1 0 1 0 0-2z" clip-rule="evenodd" opacity=".4"/><path fill="currentColor" fill-rule="evenodd" d="M8.53 4.848a1 1 0 1 0-1.06-1.696c-1.227.767-2.204 2.212-2.838 3.32q-.196.346-.36.66a6.4 6.4 0 0 0-.726-.577 1 1 0 0 0-1.092 1.676c.102.075.333.25.438.35.269.242.549.552.722.883A1 1 0 0 0 5.43 9.37a18 18 0 0 1 .94-1.906c.616-1.078 1.388-2.134 2.161-2.617m0 11a1 1 0 1 0-1.06-1.696c-1.227.767-2.204 2.212-2.838 3.32q-.196.346-.36.66a6.4 6.4 0 0 0-.726-.577 1 1 0 0 0-1.092 1.675c.102.076.333.252.438.35.269.243.549.553.722.884a1 1 0 0 0 1.815-.093 18 18 0 0 1 .94-1.906c.616-1.078 1.388-2.134 2.161-2.617" clip-rule="evenodd"/></svg>