<svg xmlns="http://www.w3.org/2000/svg" fill="none" viewBox="0 0 24 24"><path fill="currentColor" d="M1.25 12C1.25 6.063 6.063 1.25 12 1.25S22.75 6.063 22.75 12 17.937 22.75 12 22.75 1.25 17.937 1.25 12" opacity=".4"/><path fill="currentColor" d="M14.998 9.443a.75.75 0 0 1 1.06.055c.055.062.173.17.366.344l.042.037c.17.152.37.333.563.52.207.2.426.428.599.66.146.195.372.538.372.941s-.226.746-.372.942a6 6 0 0 1-.599.66c-.192.186-.394.367-.563.519l-.042.037a7 7 0 0 0-.367.344A.75.75 0 0 1 14.75 14v-1h-5.5v1a.75.75 0 0 1-1.307.501 6 6 0 0 0-.367-.343l-.042-.037c-.17-.152-.37-.333-.563-.52a6 6 0 0 1-.599-.66C6.226 12.747 6 12.404 6 12s.226-.746.372-.942c.173-.231.392-.46.599-.66.192-.186.394-.367.563-.519l.042-.037c.193-.174.311-.282.367-.344A.75.75 0 0 1 9.25 10v1h5.5v-1c0-.205.084-.41.248-.557"/></svg>