<svg xmlns="http://www.w3.org/2000/svg" fill="none" viewBox="0 0 24 24"><path fill="currentColor" d="M10.875 7.25a7.75 7.75 0 1 0 5.564 13.145c.342-.353.513-.529.435-.712-.077-.183-.336-.183-.854-.183h-4.145a2.5 2.5 0 0 1 0-5h6.095c.304 0 .456 0 .546-.104s.068-.247.026-.532a7.75 7.75 0 0 0-7.667-6.614" opacity=".4"/><path fill="currentColor" fill-rule="evenodd" d="M5.375 6.75a5.5 5.5 0 1 1 11 0v2.79a7.8 7.8 0 0 0-2-1.457V6.75a3.5 3.5 0 1 0-7 0v1.333a7.8 7.8 0 0 0-2 1.457zm6.5 9.25a1 1 0 1 0 0 2h8a1 1 0 1 0 0-2z" clip-rule="evenodd"/></svg>