<svg xmlns="http://www.w3.org/2000/svg" fill="none" viewBox="0 0 24 24"><path fill="currentColor" d="M12 22.75C6.063 22.75 1.25 17.937 1.25 12S6.063 1.25 12 1.25 22.75 6.063 22.75 12 17.937 22.75 12 22.75" opacity=".4"/><path fill="currentColor" d="m12.486 12-.026-.063a3.4 3.4 0 0 0-.262-.454 13 13 0 0 0-.955-1.225c-.36-.416-.722-.804-.995-1.088l-.449-.457a1 1 0 0 1 1.402-1.427l.489.498c.289.3.677.715 1.067 1.167.386.448.793.951 1.108 1.427.157.237.305.488.417.735.104.23.218.545.218.887s-.114.656-.218.886a5.4 5.4 0 0 1-.417.736c-.315.476-.722.98-1.108 1.427-.39.452-.778.867-1.067 1.167l-.49.497a1 1 0 1 1-1.4-1.427l.448-.456c.273-.284.635-.672.995-1.088.364-.421.707-.852.955-1.225q.184-.282.262-.454z"/></svg>