<svg xmlns="http://www.w3.org/2000/svg" fill="none" viewBox="0 0 24 24"><path fill="currentColor" d="M22.75 12c0-5.937-4.813-10.75-10.75-10.75S1.25 6.063 1.25 12 6.063 22.75 12 22.75 22.75 17.937 22.75 12" opacity=".4"/><path fill="currentColor" fill-rule="evenodd" d="M11.59 9.053a1.05 1.05 0 0 0 0-2.1c-.592 0-1.41.01-2.054.409-.797.493-1.041 1.342-1.041 2.241v3.75h-.981a1.049 1.049 0 0 0-.662 1.877l1.17.915c.187.146.404.3.633.405.199.09.66.26 1.157.022.501-.24.657-.709.71-.924a3.2 3.2 0 0 0 .073-.748V9.603c0-.278.035-.405.055-.454l.004-.008a.8.8 0 0 1 .224-.054c.155-.02.38-.034.712-.034m5.736 1.196a1.05 1.05 0 0 0-.18-1.473l-1.17-.916a3.3 3.3 0 0 0-.633-.404c-.198-.09-.66-.26-1.156-.022-.502.24-.658.709-.71.924a3.2 3.2 0 0 0-.073.747v5.298c0 .277-.035.405-.055.453l-.004.009a.8.8 0 0 1-.224.053 6 6 0 0 1-.713.035 1.05 1.05 0 1 0 0 2.1c.593 0 1.41-.011 2.055-.41.797-.492 1.04-1.342 1.04-2.24v-3.75h.982c.316.004.631-.135.841-.404" clip-rule="evenodd"/></svg>