<svg xmlns="http://www.w3.org/2000/svg" fill="none" viewBox="0 0 24 24"><path fill="currentColor" fill-rule="evenodd" d="M12 11.25A5.747 5.747 0 0 0 6.25 17c0 3.18 2.574 5.75 5.75 5.75s5.75-2.57 5.75-5.75-2.574-5.75-5.75-5.75m2.022 5.3a.75.75 0 1 0-.711-1.32c-.778.42-1.42 1.25-1.832 1.88q-.081.12-.154.24a1 1 0 0 0-.143-.12 2.5 2.5 0 0 0-.526-.35.75.75 0 0 0-.654 1.35c.042.02.155.1.236.16.162.13.375.34.56.66.141.24.401.38.678.37a.77.77 0 0 0 .645-.43c.027-.05.106-.21.16-.31.107-.19.261-.46.449-.75.399-.6.868-1.15 1.292-1.38" clip-rule="evenodd"/><path fill="currentColor" d="M5.853 6.36C3.227 6.9 1.25 9.22 1.25 12c0 2.38 1.445 4.42 3.506 5.3q-.006-.15-.006-.3c0-4 3.246-7.25 7.25-7.25a7.253 7.253 0 0 1 7.236 7.71 5.256 5.256 0 0 0-.989-10.16A6.25 6.25 0 0 0 12 1.25a6.25 6.25 0 0 0-6.147 5.11" opacity=".4"/></svg>