<svg xmlns="http://www.w3.org/2000/svg" fill="none" viewBox="0 0 24 24"><path fill="currentColor" fill-rule="evenodd" d="M12.001 12.25a1 1 0 0 1 1 1v1.5a1 1 0 1 1-2 0v-1.5a1 1 0 0 1 1-1M9 15.25a1 1 0 0 1 1 1v1.5a1 1 0 1 1-2 0v-1.5a1 1 0 0 1 1-1m6 0a1 1 0 0 1 1 1v1.5a1 1 0 1 1-2 0v-1.5a1 1 0 0 1 1-1m-8.5 3a1 1 0 0 1 1 1v1.5a1 1 0 1 1-2 0v-1.5a1 1 0 0 1 1-1m5.5 0a1 1 0 0 1 1 1v1.5a1 1 0 1 1-2 0v-1.5a1 1 0 0 1 1-1m5.5 0a1 1 0 0 1 1 1v1.5a1 1 0 1 1-2 0v-1.5a1 1 0 0 1 1-1" clip-rule="evenodd"/><path fill="currentColor" d="M5.94 6.968c-.05.196-.075.294-.131.352s-.155.085-.35.14a5.752 5.752 0 0 0-1.68 10.304c.207.14.31.21.421.196.112-.014.22-.135.436-.377a2.5 2.5 0 0 1 1.367-.784c.217-.043.325-.065.38-.108a.26.26 0 0 0 .086-.105c.031-.062.031-.154.031-.336a2.5 2.5 0 0 1 2.5-2.5c.164 0 .245 0 .288-.013a.27.27 0 0 0 .2-.2c.013-.043.013-.109.013-.241v-.046a2.5 2.5 0 0 1 5 0v.048c0 .13 0 .196.013.238a.27.27 0 0 0 .201.202c.042.012.123.012.285.012a2.5 2.5 0 0 1 2.5 2.5c0 .182 0 .273.03.336a.26.26 0 0 0 .087.105c.055.043.163.065.38.108.59.12 1.106.447 1.466.903.207.262.31.392.424.412s.22-.05.435-.186a5.252 5.252 0 0 0-1.58-9.53c-.243-.06-.365-.089-.427-.16-.063-.07-.077-.193-.104-.439A6.251 6.251 0 0 0 5.94 6.968" opacity=".4"/></svg>