<svg xmlns="http://www.w3.org/2000/svg" fill="none" viewBox="0 0 24 24"><path fill="currentColor" fill-rule="evenodd" d="M10.607 1.492c.432-.24.885-.492 1.394-.492s.962.252 1.394.492l.142.078 1.86 1.05.032.019c.27.157.404.236.4.351-.001.12-.15.2-.448.35l-2.583 1.39-.17.092c-.198.108-.331.18-.442.228a.4.4 0 0 1-.37 0 6 6 0 0 1-.433-.223l-.18-.097-2.582-1.39c-.297-.15-.446-.23-.45-.35-.002-.115.131-.193.397-.348l.037-.022 1.86-1.05zM2.415 12.7c-.19-.09-.415.04-.415.25v3.083c-.001.51-.002 1.047.266 1.497.268.458.739.723 1.188.977l.094.053L6.103 20v-4.41c0-.35 0-.55-.016-.71-.013-.14-.029-.18-.144-.26a7 7 0 0 0-.548-.319l-.02-.011zm19.17 0c.191-.09.415.04.415.25v2.98c0 .3 0 .58-.024.81a1.87 1.87 0 0 1-.818 1.39 8 8 0 0 1-.706.43L17.898 20v-4.41c0-.35 0-.55.015-.71.014-.14.03-.179.144-.259a7 7 0 0 1 .55-.318l.02-.012z" clip-rule="evenodd" opacity=".4"/><path fill="currentColor" fill-rule="evenodd" d="M3.76 5.66c-.24.14-.359.21-.362.32-.001.115.108.184.326.323l.026.017.13.08 7.16 3.92c.47.26.706.39.962.39.255 0 .49-.13.96-.39L20.13 6.4l.12-.08c.242-.14.363-.22.363-.33-.003-.12-.125-.19-.372-.33l-2.248-1.28c-.23-.13-.345-.19-.473-.2-.125 0-.244.06-.479.18l-1.191.61-2.383 1.3-.083.045c-.43.238-.88.485-1.383.485-.504 0-.954-.248-1.384-.486l-.08-.044-2.385-1.3-1.192-.61c-.235-.12-.353-.18-.479-.18-.127.01-.242.07-.47.2zm17.99 2.12c-.006-.24-.01-.36-.11-.42-.097-.048-.203.014-.407.134l-.027.016-.318.19-.011.01-.017.01-7.068 3.87c-.506.27-.76.41-.9.65-.139.23-.139.52-.139 1.1v8.81c0 .27 0 .41.099.47.099.05.214-.01.445-.14l.101-.06.102-.06 2.248-1.28c.246-.14.369-.21.437-.32.068-.12.068-.26.068-.55v-4.63c0-.31 0-.58.022-.81.054-.57.313-1.04.785-1.37.136-.095.296-.184.467-.28l.198-.11 2.922-1.58q.003-.001.005-.005.003-.005.006-.005l.544-.27.004-.002c.264-.139.397-.209.472-.328s.075-.27.075-.57V8.176q0-.194-.003-.396m-10.64 4.45c-.144-.23-.397-.37-.902-.64q-.783-.414-1.573-.825C6.76 9.79 4.874 8.806 3.104 7.69L2.8 7.5c-.22-.14-.332-.21-.435-.15-.102.05-.106.18-.112.42q-.005.21-.002.419v2.06c0 .3 0 .45.075.57s.21.19.476.32l.244.128q.156.079.31.163l2.923 1.58.194.108c.172.096.333.186.47.281.473.33.731.8.786 1.37.022.23.022.5.022.81v4.63c0 .29 0 .43.067.55.068.11.191.18.438.32l2.247 1.28.102.06.101.06c.231.13.346.19.445.14.1-.06.1-.2.1-.47v-8.81c0-.58 0-.87-.143-1.11" clip-rule="evenodd"/></svg>