<svg xmlns="http://www.w3.org/2000/svg" fill="none" viewBox="0 0 24 24"><path fill="currentColor" d="M5.25 10a8.75 8.75 0 1 1 17.5 0 8.75 8.75 0 0 1-17.5 0" opacity=".4"/><path fill="currentColor" fill-rule="evenodd" d="M12.23 6.33a.75.75 0 0 0-1.46.34c.182.78.904 2.42 2.48 3.385v.362h-1.333a.75.75 0 0 0 0 1.5h1.333V13.5a.75.75 0 0 0 1.5 0v-1.583h1.334a.75.75 0 0 0 0-1.5H14.75v-.362c1.577-.965 2.298-2.604 2.48-3.384a.75.75 0 0 0-1.46-.342c-.124.53-.664 1.73-1.77 2.426-1.106-.696-1.646-1.896-1.77-2.426M3.52 9.757c-.13-.047-.265.118-.535.447a7.682 7.682 0 0 0 10.81 10.81c.33-.27.494-.405.447-.536-.047-.13-.275-.13-.732-.13h-.017c-5.436 0-9.842-4.406-9.842-9.842v-.017c0-.457 0-.685-.13-.732" clip-rule="evenodd"/></svg>