<svg xmlns="http://www.w3.org/2000/svg" fill="none" viewBox="0 0 24 24"><path fill="currentColor" d="M2.75 13.5a9.25 9.25 0 1 1 18.5 0 9.25 9.25 0 0 1-18.5 0" opacity=".4"/><path fill="currentColor" fill-rule="evenodd" d="M12 4.25a.75.75 0 1 1 0-1.5.75.75 0 0 1 0 1.5m-2.03.223a9.3 9.3 0 0 1 4.06 0 2.25 2.25 0 1 0-4.058 0m3.726 3.01a2 2 0 0 0-.36.408l-3 4.5A2 2 0 0 0 12 15.5v4.249a6.25 6.25 0 1 1 1.696-12.267m1.72.893a.75.75 0 0 1 .208 1.04l-3 4.5a.75.75 0 1 1-1.248-.832l3-4.5a.75.75 0 0 1 1.04-.208" clip-rule="evenodd"/></svg>