<svg xmlns="http://www.w3.org/2000/svg" fill="none" viewBox="0 0 24 24"><path fill="currentColor" fill-rule="evenodd" d="M14.168 1.418a1 1 0 0 1 1.414 0l2.793 2.79 2.793-2.79a1 1 0 0 1 1.414 0 .994.994 0 0 1 0 1.41l-2.793 2.8 2.793 2.79a.994.994 0 0 1 0 1.41 1 1 0 0 1-1.414 0l-2.793-2.79-2.793 2.79a1 1 0 0 1-1.414 0 .994.994 0 0 1 0-1.41l2.793-2.79-2.793-2.8a.994.994 0 0 1 0-1.41" clip-rule="evenodd"/><path fill="currentColor" d="M12.499 2.907c-.091-.28-.136-.42-.215-.48s-.199-.06-.44-.06H9.725c-4.054 0-6.081 0-7.341 1.27-1.259 1.26-1.259 3.3-1.259 7.37v.54c0 4.07 0 6.1 1.259 7.36q.87.885 2.455 1.17c.324.06.486.09.557.19.07.1.041.27-.017.59-.14.78-.118 1.49.385 1.87.527.38 1.367-.03 3.047-.85.186-.09.373-.18.56-.28h.002c.998-.5 2.014-1 3.098-1.26.472-.1.951-.15 1.554-.16 4.054 0 6.081 0 7.341-1.27 1.172-1.17 1.253-3.05 1.259-6.58 0-.34 0-.52-.085-.6-.086-.09-.297-.1-.72-.11a2.45 2.45 0 0 1-1.713-.73l-1.308-1.31c-.2-.2-.3-.3-.424-.3s-.224.1-.424.3l-1.308 1.31c-.977.98-2.559.98-3.536 0a2.494 2.494 0 0 1 0-3.53l1.308-1.31c.2-.2.3-.3.3-.43 0-.12-.1-.22-.3-.42l-1.308-1.31a2.4 2.4 0 0 1-.608-.98" opacity=".4"/></svg>