<svg xmlns="http://www.w3.org/2000/svg" fill="none" viewBox="0 0 24 24"><path fill="currentColor" fill-rule="evenodd" d="M9.003 3a1 1 0 1 0-.006-2c-1.305.004-2.38.025-3.269.146-.905.124-1.69.362-2.383.848a5.5 5.5 0 0 0-1.35 1.35c-.544.777-.777 1.668-.888 2.716C1 7.077 1 8.35 1 9.942v.114c0 1.591 0 2.865.107 3.882.11 1.048.344 1.939.888 2.716a5.5 5.5 0 0 0 1.35 1.35c.777.544 1.668.777 2.716.888 1.017.107 2.29.107 3.882.107h.657c.377 0 .4.023.4.4v.6c0 .827-.173 1-1 1H8a1 1 0 1 0 0 2h8a1 1 0 1 0 0-2h-2c-.827 0-1-.173-1-1v-.6c0-.377.023-.4.4-.4h.657c1.591 0 2.865 0 3.882-.107 1.048-.11 1.939-.344 2.716-.888a5.5 5.5 0 0 0 1.35-1.35c.486-.694.724-1.478.848-2.383.121-.888.142-1.964.146-3.269a1 1 0 0 0-2-.006c-.004 1.32-.027 2.267-.128 3.003-.098.72-.263 1.163-.504 1.508a3.5 3.5 0 0 1-.86.859c-.385.27-.895.444-1.777.537-.9.095-2.069.096-3.73.096h-4c-1.661 0-2.83-.001-3.73-.096-.882-.093-1.392-.267-1.778-.537a3.5 3.5 0 0 1-.859-.86c-.27-.385-.444-.895-.537-1.777-.095-.9-.096-2.069-.096-3.73s.001-2.83.096-3.73c.093-.882.267-1.392.537-1.778a3.5 3.5 0 0 1 .86-.859c.344-.241.788-.406 1.507-.504.736-.101 1.683-.124 3.003-.128M11 13a1 1 0 1 0 0 2h2a1 1 0 1 0 0-2z" clip-rule="evenodd" opacity=".4"/><path fill="currentColor" fill-rule="evenodd" d="M16.296 1h-.592c-.786 0-1.441 0-1.962.061-.543.064-1.053.205-1.473.573-.435.38-.616.864-.696 1.384-.073.475-.073 1.065-.073 1.74v.984c0 .675 0 1.265.073 1.74.08.52.26 1.003.696 1.384.42.368.93.509 1.473.573.52.061 1.176.061 1.962.061h.592c.786 0 1.441 0 1.962-.061.543-.064 1.053-.205 1.473-.573.309-.27.49-.592.597-.941q.2.128.378.223c.37.196.88.384 1.417.15.569-.246.747-.773.814-1.188C23 6.721 23 6.212 23 5.652v-.804c0-.56 0-1.07-.063-1.458-.067-.415-.245-.942-.814-1.188-.537-.234-1.046-.046-1.417.15a5 5 0 0 0-.378.223 2 2 0 0 0-.597-.94c-.42-.37-.93-.51-1.473-.574C17.738 1 17.082 1 16.296 1m4.203 3.281.001.477v.984l-.001.477c.41.294.69.488.908.603q.029.016.053.027c.038-.254.04-.635.04-1.257v-.684c0-.622-.002-1.003-.04-1.257l-.053.027c-.219.115-.498.309-.908.603" clip-rule="evenodd"/></svg>