<svg xmlns="http://www.w3.org/2000/svg" fill="none" viewBox="0 0 24 24"><path fill="currentColor" fill-rule="evenodd" d="M9.943 1h4.114c1.591 0 2.865 0 3.882.107 1.048.11 1.939.344 2.716.888a5.5 5.5 0 0 1 1.35 1.35c.544.777.777 1.668.888 2.716C23 7.078 23 8.35 23 9.943v.114c0 1.591 0 2.865-.107 3.882-.11 1.048-.344 1.939-.888 2.716a5.5 5.5 0 0 1-1.35 1.35c-.777.544-1.668.777-2.716.888-1.017.107-2.29.107-3.882.107H9.943c-1.591 0-2.865 0-3.882-.107-1.048-.11-1.939-.344-2.716-.888a5.5 5.5 0 0 1-1.35-1.35c-.544-.777-.777-1.668-.888-2.716C1 12.922 1 11.65 1 10.057v-.114c0-1.591 0-2.865.107-3.882.11-1.048.344-1.939.888-2.716a5.5 5.5 0 0 1 1.35-1.35c.777-.544 1.668-.777 2.716-.888C7.078 1 8.35 1 9.943 1M6.27 3.096c-.882.093-1.392.267-1.778.537a3.5 3.5 0 0 0-.859.86c-.27.385-.444.895-.537 1.777C3.001 7.17 3 8.34 3 10s.001 2.83.096 3.73c.093.882.267 1.392.537 1.777.234.335.525.626.86.86.385.27.895.444 1.777.537.9.095 2.069.096 3.73.096h4c1.661 0 2.83-.001 3.73-.096.882-.093 1.392-.267 1.777-.537.335-.234.626-.525.86-.86.27-.385.444-.895.537-1.777.095-.9.096-2.069.096-3.73s-.001-2.83-.096-3.73c-.093-.882-.267-1.392-.537-1.778a3.5 3.5 0 0 0-.86-.859c-.385-.27-.895-.444-1.777-.537C16.83 3.001 15.66 3 14 3h-4c-1.661 0-2.83.001-3.73.096" clip-rule="evenodd"/><path fill="currentColor" fill-rule="evenodd" d="M13 5.5a1 1 0 1 0-2 0v.282c-1.098.35-2 1.265-2 2.53C9 9.95 10.51 11 12 11c.718 0 1 .46 1 .688s-.282.687-1 .687c-.536 0-.87-.287-.964-.511a1 1 0 1 0-1.845.772c.326.778 1.007 1.333 1.809 1.586v.278a1 1 0 1 0 2 0v-.282c1.098-.35 2-1.265 2-2.53C15 10.05 13.49 9 12 9c-.718 0-1-.46-1-.687s.282-.688 1-.688c.536 0 .87.287.964.511a1 1 0 1 0 1.845-.772C14.483 6.586 13.802 6.03 13 5.778zM9.17 17.25h5.66l-.381 1.014a3.27 3.27 0 0 0-.144 1.726c.067.365.101.547.38.779.277.231.55.231 1.097.231H17a1 1 0 1 1 0 2H7a1 1 0 1 1 0-2h1.218c.547 0 .82 0 1.098-.231.278-.232.312-.414.38-.78a3.27 3.27 0 0 0-.145-1.725z" clip-rule="evenodd" opacity=".4"/></svg>