<svg xmlns="http://www.w3.org/2000/svg" fill="none" viewBox="0 0 24 24"><path fill="currentColor" fill-rule="evenodd" d="M11.25 12.927v-.052h2.724a1 1 0 0 1-.96-.835l-.403-2.415H11.39l-.402 2.415a1 1 0 0 1-1.973-.33l.348-2.087a9 9 0 0 1-1.108-.06c-.491-.066-.963-.215-1.345-.597s-.531-.854-.597-1.345c-.062-.459-.062-1.032-.062-1.697V4.825c0-.664 0-1.237.062-1.696.066-.491.215-.963.597-1.345s.854-.531 1.345-.597c.459-.062 1.032-.062 1.697-.062h4.099c.664 0 1.237 0 1.696.062.492.066.963.215 1.345.597s.531.854.597 1.345c.062.459.062 1.032.062 1.697v1.098c0 .665 0 1.238-.062 1.697-.066.491-.215.963-.597 1.345s-.854.531-1.345.597a9 9 0 0 1-1.107.06l.348 2.088a1 1 0 0 1-.963 1.164H19v4.75h-3.052c-.899 0-1.648 0-2.242-.08-.628-.084-1.195-.27-1.65-.726-.456-.455-.642-1.022-.726-1.65-.08-.594-.08-1.344-.08-2.242" clip-rule="evenodd" opacity=".4"/><path fill="currentColor" d="M2 10.875a1 1 0 1 0 0 2h1v9a1 1 0 1 0 2 0v-9h14v9a1 1 0 1 0 2 0v-9h1a1 1 0 1 0 0-2z"/></svg>