<svg xmlns="http://www.w3.org/2000/svg" fill="none" viewBox="0 0 24 24"><path fill="currentColor" d="M14.469 15.952c-.714.714-1.98.777-3.865.782-.41 0-.616.001-.799.077s-.327.22-.615.509l-4.636 4.637a1.935 1.935 0 1 1-2.737-2.737l4.637-4.638c.288-.288.432-.432.508-.615s.077-.388.078-.799c.005-1.883.068-3.15.782-3.864.814-.813 1.173-.78 4.778-.78a.39.39 0 0 1 .278.666l-1.857 1.856a1.206 1.206 0 1 0 1.706 1.707l1.857-1.856a.39.39 0 0 1 .666.277c0 3.605.033 3.964-.781 4.778"/><path fill="currentColor" fill-rule="evenodd" d="m15.469 4.113.078.045 1.686.965.085.049-.066.26c-.631 2.45.893 4.98 3.3 5.634l.243.067v2.095l-.243.066c-2.407.654-3.93 3.186-3.299 5.635l.067.26-.086.049-1.685.964-.079.045-.173-.173c-2.082-2.094-5.736-1.78-7.335.965a.99.99 0 0 0 .348 1.349.973.973 0 0 0 1.338-.351 2.72 2.72 0 0 1 4.268-.569l.024.024c.163.165.327.33.472.453.134.113.404.33.78.38a1.47 1.47 0 0 0 .803-.133c.158-.07.334-.17.49-.26l1.714-.981.029-.016c.16-.092.338-.194.48-.296.157-.112.393-.308.53-.633.15-.358.098-.71.068-.883a9 9 0 0 0-.153-.657l-.008-.033c-.353-1.368.51-2.854 1.916-3.236l.032-.01c.227-.06.453-.122.633-.188.165-.06.49-.189.722-.495a1.5 1.5 0 0 0 .284-.774 6 6 0 0 0 .018-.564v-1.971c0-.184 0-.39-.018-.564a1.5 1.5 0 0 0-.284-.774c-.233-.306-.557-.435-.722-.495a8 8 0 0 0-.633-.19l-.032-.008c-1.407-.382-2.27-1.869-1.918-3.237l.009-.033c.06-.233.12-.465.153-.657.03-.173.081-.525-.07-.882a1.5 1.5 0 0 0-.528-.634 6 6 0 0 0-.51-.311l-1.685-.965-.028-.016a6 6 0 0 0-.491-.26 1.47 1.47 0 0 0-.803-.134c-.375.051-.645.267-.78.38-.144.124-.308.289-.472.453l-.023.024a2.723 2.723 0 0 1-3.831 0l-.024-.024a8 8 0 0 0-.472-.452c-.135-.114-.404-.33-.78-.38a1.47 1.47 0 0 0-.803.132 6 6 0 0 0-.49.26l-.029.017-1.685.965-.029.016c-.16.091-.338.193-.48.296a1.5 1.5 0 0 0-.53.633c-.15.357-.098.709-.068.882.033.192.092.424.153.658l.008.032c.353 1.369-.51 2.855-1.916 3.237l-.032.009a8 8 0 0 0-.633.189c-.165.06-.49.189-.722.495-.212.28-.265.58-.284.774-.018.175-.018.38-.018.564v1.971c0 .183 0 .389.018.564.02.193.072.495.284.774.233.306.557.435.722.495.18.066.406.127.633.189l.032.008.013.004a.976.976 0 0 0 1.202-.688.986.986 0 0 0-.683-1.212l-.023-.006-.243-.066v-2.095l.243-.067c2.407-.654 3.93-3.185 3.299-5.634l-.067-.26.086-.05 1.685-.964.079-.045.173.174c1.808 1.817 4.785 1.817 6.592 0z" clip-rule="evenodd" opacity=".4"/></svg>