<svg xmlns="http://www.w3.org/2000/svg" fill="none" viewBox="0 0 24 24"><path fill="currentColor" d="M2.75 12.946c0-2.076 0-3.706.162-4.978.165-1.301.51-2.342 1.288-3.165.782-.829 1.782-1.203 3.03-1.38 1.211-.173 2.877-.173 4.83-.173 1.952 0 3.499 0 4.71.172 1.248.178 2.248.552 3.03 1.381.778.823 1.123 1.864 1.288 3.165.162 1.272.162 2.902.162 4.978s0 3.814-.162 5.086c-.165 1.301-.51 2.342-1.288 3.165-.782.829-1.782 1.203-3.03 1.38-1.211.173-2.758.173-4.71.173-1.953 0-3.619 0-4.83-.172-1.248-.178-2.248-.552-3.03-1.381-.778-.823-1.123-1.864-1.288-3.165-.162-1.272-.162-3.01-.162-5.086" opacity=".4"/><path fill="currentColor" fill-rule="evenodd" d="M9 2.25a1 1 0 0 0-2 0v2a1 1 0 0 0 2 0zm8 0a1 1 0 1 0-2 0v2a1 1 0 1 0 2 0zm-5 4.5a2.75 2.75 0 1 0 0 5.5 2.75 2.75 0 0 0 0-5.5m4.214 8.92c-.37-.409-1.076-.856-1.386-1.052a5.04 5.04 0 0 0-5.655 0c-.31.196-1.016.643-1.387 1.052-.235.259-.483.627-.529 1.093-.048.5.15.96.511 1.347.548.586 1.28 1.14 2.273 1.14h3.919c.993 0 1.725-.554 2.272-1.14.361-.388.56-.847.51-1.347-.044-.466-.292-.834-.528-1.093" clip-rule="evenodd"/></svg>