<svg xmlns="http://www.w3.org/2000/svg" fill="none" viewBox="0 0 24 24"><path fill="currentColor" d="M5.099 3.25h6.961c.64 0 1.214 0 1.679.062.507.068 1.028.226 1.454.65.427.424.616 1.228.684 1.732 3.835.235 6.873 3.404 6.873 7.278v2.73c0 .17 0 .336-.019.487-.138 1.105-1.456 1.993-2.566 2.13a3.42 3.42 0 0 1-3.279 2.431 3.42 3.42 0 0 1-3.278-2.43h-3.216a3.42 3.42 0 0 1-3.278 2.43 3.42 3.42 0 0 1-3.282-2.44c-.338-.03-1.017-.119-1.36-.316a2.44 2.44 0 0 1-.895-.89c-.198-.342-.268-.698-.298-1.035-.03-.314-.029-.692-.029-1.113V7.079c0-.636 0-1.207.062-1.67.069-.505.227-1.023.654-1.447.426-.424.947-.582 1.454-.65.465-.062 1.04-.062 1.679-.062" opacity=".4"/><path fill="currentColor" fill-rule="evenodd" d="M7.25 7a.75.75 0 0 0-1.5 0v4a.75.75 0 0 0 1.5 0zm4 0a.75.75 0 0 0-1.5 0v4a.75.75 0 0 0 1.5 0zm4.66 7.087q.466-.139.977-.14a3.42 3.42 0 0 1 3.279 2.43c.442 0 .63-.186.63-.486v-2.917c0-2.79-2.147-5.08-4.886-5.326zM7.114 15.89c-.81 0-1.466.653-1.466 1.459 0 .805.657 1.458 1.466 1.458.81 0 1.466-.653 1.466-1.458 0-.806-.656-1.459-1.466-1.459m8.307 1.459c0-.806.656-1.459 1.466-1.459s1.466.653 1.466 1.459c0 .805-.656 1.458-1.466 1.458s-1.466-.653-1.466-1.458" clip-rule="evenodd"/></svg>