<svg xmlns="http://www.w3.org/2000/svg" fill="none" viewBox="0 0 24 24"><path fill="currentColor" d="M9.524 2c.836-.47 1.61-.75 2.476-.75s1.64.28 2.476.75c.81.45 1.738 1.12 2.905 1.97l1.51 1.09c.936.67 1.684 1.21 2.248 1.71.582.52 1.018 1.04 1.295 1.69.277.64.344 1.31.307 2.08-.036.74-.174 1.63-.345 2.75l-.315 2.05c-.244 1.58-.437 2.84-.722 3.83-.294 1.01-.709 1.82-1.45 2.44-.739.61-1.618.88-2.692 1.01-1.045.13-2.363.13-4.028.13h-2.378c-1.665 0-2.983 0-4.028-.13-1.074-.13-1.953-.4-2.692-1.01-.74-.62-1.156-1.43-1.45-2.44-.285-.99-.478-2.25-.722-3.83l-.315-2.05c-.17-1.12-.309-2.01-.345-2.75-.037-.77.03-1.44.307-2.08.277-.65.713-1.17 1.295-1.69.564-.5 1.312-1.04 2.25-1.71l1.508-1.09C7.786 3.12 8.714 2.45 9.524 2" opacity=".4"/><path fill="currentColor" d="M13.113 16.528c.292.29.767.29 1.06 0l2.857-2.86a.75.75 0 0 0 0-1.06.76.76 0 0 0-.778-.18c-.086-.1-.18-.22-.285-.34-.456-.55-1.07-1.25-1.687-1.87a29 29 0 0 0-1.87-1.69c-.123-.1-.239-.2-.345-.28a.75.75 0 0 0-.178-.78.754.754 0 0 0-1.06 0l-2.857 2.86a.75.75 0 0 0 0 1.06c.21.21.514.27.778.18.086.1.181.22.285.34.283.34.628.74.997 1.15l-2.987 2.98a1 1 0 1 0 1.414 1.42l2.987-2.99c.404.37.806.71 1.146 1 .123.1.24.2.345.28a.75.75 0 0 0 .178.78"/></svg>