<svg xmlns="http://www.w3.org/2000/svg" fill="none" viewBox="0 0 24 24"><path fill="currentColor" fill-rule="evenodd" d="M3.5 13.25c-1.386 0-2.5 1.175-2.5 2.5 0 .98.301 1.79.894 2.387.567.572 1.303.849 1.99.99.69.143 1.426.168 2.08.163.323-.002.64-.012.93-.022h.022l.382-.012C8.38 20.352 9.84 21.25 12 21.25s3.62-.898 4.702-1.994l.382.012h.022c.29.01.607.02.93.022.654.005 1.39-.02 2.08-.162.687-.142 1.423-.42 1.99-.991.593-.597.894-1.406.894-2.387 0-1.325-1.114-2.5-2.5-2.5a3.1 3.1 0 0 0-1.574.425c-1.255.612-3.484 1.575-6.926 1.575s-5.671-.963-6.926-1.575A3.1 3.1 0 0 0 3.5 13.25m2.149 3.936.074.104c-.526-.003-1.013-.034-1.435-.121-.485-.1-.792-.257-.975-.44C3.156 16.568 3 16.3 3 15.75c0-.249.246-.5.5-.5.14 0 .262.023.378.066l.245.12c.364.227.73.646 1.206 1.302zm13.022-.448c.476-.656.842-1.075 1.206-1.301l.245-.121a1.1 1.1 0 0 1 .378-.066c.254 0 .5.251.5.5 0 .55-.156.82-.313.978-.183.184-.49.34-.976.441-.421.087-.908.118-1.434.121l.075-.104q.167-.238.32-.448" clip-rule="evenodd"/><path fill="currentColor" d="M7 11.75c0-.203.01-.457.031-.751.01-.114.013-.17.053-.198s.096-.01.207.025c1.202.374 2.623.674 4.709.674s3.507-.3 4.71-.674c.11-.035.166-.052.206-.025s.044.084.052.198c.023.293.032.548.032.751a1 1 0 1 0 2 0c0-.83-.12-2.258-.52-3.782-.4-1.514-1.102-3.221-2.333-4.508a2.35 2.35 0 0 0-1.714-.71c-.634 0-1.199.338-1.521.854l-.205.328A.84.84 0 0 1 12 4.35a.84.84 0 0 1-.707-.418l-.205-.328a1.8 1.8 0 0 0-1.52-.854c-.594 0-1.234.207-1.715.71C6.622 4.747 5.92 6.454 5.521 7.968 5.12 9.492 5 10.92 5 11.75a1 1 0 1 0 2 0" opacity=".4"/></svg>