<svg xmlns="http://www.w3.org/2000/svg" fill="none" viewBox="0 0 24 24"><path fill="currentColor" d="M12.056 3.25h-.112c-1.838 0-3.294 0-4.433.153-1.172.158-2.121.49-2.87 1.238-.748.749-1.08 1.697-1.238 2.87-.153 1.14-.153 2.595-.153 4.433v.112c0 1.838 0 3.294.153 4.433.158 1.172.49 2.121 1.238 2.87.749.748 1.698 1.08 2.87 1.238 1.14.153 2.595.153 4.433.153h.112c1.838 0 3.294 0 4.433-.153 1.172-.158 2.121-.49 2.87-1.238.748-.749 1.08-1.698 1.238-2.87.153-1.14.153-2.595.153-4.433v-.113c0-1.837 0-3.293-.153-4.432-.158-1.173-.49-2.121-1.238-2.87-.749-.748-1.698-1.08-2.87-1.238-1.14-.153-2.595-.153-4.433-.153" opacity=".4"/><path fill="currentColor" fill-rule="evenodd" d="M9.5 1a1 1 0 0 1 1 1v1.253c-.74.006-1.404.02-2 .057V2a1 1 0 0 1 1-1m4 2.253c.74.006 1.404.02 2 .057V2a1 1 0 1 0-2 0zM20.69 8.5c.037.596.051 1.26.057 2H22a1 1 0 1 0 0-2zm.057 5c-.006.74-.02 1.404-.057 2H22a1 1 0 1 0 0-2zM15.5 20.69a37 37 0 0 1-2 .057V22a1 1 0 1 0 2 0zm-5 .057c-.74-.006-1.404-.02-2-.057V22a1 1 0 1 0 2 0zM3.31 15.5a37 37 0 0 1-.057-2H2a1 1 0 1 0 0 2zm-.057-5c.006-.74.02-1.404.057-2H2a1 1 0 0 0 0 2zm10.08-2.772a1 1 0 0 1 .135 1.408l-1.505 1.827 1.329.263c.535.106.962.476 1.133.973.173.507.057 1.09-.365 1.5l-2.595 2.518a1 1 0 0 1-1.393-1.435l1.845-1.79-1.204-.238c-.988-.196-1.66-1.405-.88-2.353l2.091-2.537a1 1 0 0 1 1.408-.136" clip-rule="evenodd"/></svg>