<svg xmlns="http://www.w3.org/2000/svg" fill="none" viewBox="0 0 24 24"><path fill="currentColor" d="M1.25 12C1.25 6.063 6.063 1.25 12 1.25S22.75 6.063 22.75 12 17.937 22.75 12 22.75 1.25 17.937 1.25 12" opacity=".4"/><path fill="currentColor" fill-rule="evenodd" d="M17.236 13.053a.75.75 0 1 0-1.206.893c.304.41.31.952-.092 1.325-.456.423-.963.442-1.612.27a9 9 0 0 1-.828-.28l-.176-.066c-.306-.113-.712-.261-1.09-.274-.672-.024-1.201.282-1.614.522l-.098.056c-.455.261-.976.546-1.812.722-.4.084-.632-.008-.751-.1a.55.55 0 0 1-.207-.45.75.75 0 0 0-1.5 0c0 .63.273 1.238.79 1.638.524.403 1.223.539 1.977.38 1.064-.224 1.744-.599 2.25-.888.534-.307.697-.389.913-.381.094.003.27.052.621.181l.152.057c.283.106.63.237.988.332.872.232 2.015.31 3.017-.62 1.074-.995.94-2.422.278-3.317M7.75 9.983a.75.75 0 0 0-1.5.017c0 .607.372 1.063.777 1.331.41.273.934.419 1.473.419.557 0 1.082-.168 1.484-.445.38-.262.766-.712.766-1.305a.75.75 0 0 0-1.499-.04.4.4 0 0 1-.118.11c-.143.098-.368.18-.633.18-.283 0-.51-.079-.643-.168a.3.3 0 0 1-.107-.099m-.003-.007.001.004zm7.363-1.762c-.209.418-.36 1.048-.36 1.786a.75.75 0 0 1-1.5 0c0-.92.185-1.79.518-2.457.312-.623.88-1.293 1.732-1.293.851 0 1.42.67 1.732 1.293.333.667.518 1.537.518 2.457a.75.75 0 0 1-1.5 0c0-.738-.151-1.368-.36-1.786a1.3 1.3 0 0 0-.29-.406.3.3 0 0 0-.096-.058h-.008l-.014.005a.3.3 0 0 0-.082.053c-.08.068-.185.197-.29.406" clip-rule="evenodd"/></svg>