<svg xmlns="http://www.w3.org/2000/svg" fill="none" viewBox="0 0 24 24"><path fill="currentColor" d="M17.875 3.872c-.26-.254-.39-.38-.554-.38-.165.001-.295.131-.554.391L3.883 16.767c-.26.26-.39.39-.39.554-.002.164.125.294.379.553q.5.51 1.086 1.095l.074.074c1.114 1.113 2 2 2.792 2.613.817.631 1.608 1.033 2.54 1.087q.415.023.828-.025c.925-.109 1.723-.55 2.565-1.22.823-.657 1.76-1.594 2.949-2.783l2.01-2.01c1.188-1.187 2.125-2.125 2.781-2.948.671-.842 1.112-1.64 1.22-2.565q.049-.414.026-.827c-.054-.933-.456-1.724-1.087-2.54-.613-.792-1.5-1.679-2.613-2.793l-.074-.074q-.585-.586-1.094-1.086" opacity=".4"/><path fill="currentColor" fill-rule="evenodd" d="M2.99 15.537c-.308.308-.461.462-.656.437s-.297-.198-.5-.543c-.333-.568-.54-1.148-.576-1.795a5 5 0 0 1 .025-.828c.108-.924.55-1.723 1.22-2.565.656-.823 1.594-1.76 2.782-2.949l2.01-2.009C8.482 4.097 9.42 3.16 10.242 2.503c.842-.67 1.64-1.112 2.565-1.22a5 5 0 0 1 .828-.025c.647.037 1.225.241 1.791.574.346.203.519.304.544.499.024.195-.13.349-.437.656zM3 21.75a1 1 0 0 1 1-1h16a1 1 0 1 1 0 2H4a1 1 0 0 1-1-1m16.15-10.165a.75.75 0 1 0-1.061-1.06l-2.206 2.206a.75.75 0 0 0 1.06 1.06zm-4.098 4.097a.75.75 0 0 0-1.06-1.06l-.946.945a.75.75 0 0 0 1.06 1.06z" clip-rule="evenodd"/></svg>