<svg xmlns="http://www.w3.org/2000/svg" fill="none" viewBox="0 0 24 24"><path fill="currentColor" d="M10.328 20.625c-1.84 0-3.284 0-4.422-.129-1.163-.13-2.105-.405-2.888-1.023a5 5 0 0 1-.65-.612c-.666-.747-.964-1.653-1.105-2.764-.138-1.08-.138-2.445-.138-4.17v-.105q-.001-.862.005-1.61c.003-.276.004-.413.092-.5s.227-.087.504-.087h20.298c.277 0 .416 0 .504.087s.09.224.092.5l.003.46c.002.341.003.513-.083.6-.085.088-.297.093-.722.103q-.389.008-.778.143c-1.136.403-2.142 1.136-2.942 1.837-.825.723-1.579 1.547-2.201 2.294-.055.065-.082.098-.108.118a.28.28 0 0 1-.253.054c-.033-.008-.075-.029-.16-.07a4 4 0 0 0-.613-.24 3.2 3.2 0 0 0-.873-.136h-.015a2.5 2.5 0 0 0-.747 4.886l.004.002c.034.01.054.016.078.045.105.123.018.317-.144.317z" opacity=".4"/><path fill="currentColor" fill-rule="evenodd" d="M13.424 3.125h-3.096c-1.839 0-3.283 0-4.422.129-1.162.13-2.104.405-2.887 1.023q-.353.278-.65.612c-.666.747-.964 1.653-1.105 2.764-.017.128-.025.192-.01.248.023.09.092.168.178.202.054.022.121.022.256.022h20.376c.134 0 .202 0 .256-.022a.3.3 0 0 0 .178-.202c.015-.056.007-.12-.01-.248-.141-1.111-.439-2.017-1.105-2.764a5 5 0 0 0-.65-.612c-.783-.618-1.726-.892-2.888-1.023-1.138-.129-2.582-.129-4.421-.129m8.785 11.693a1 1 0 0 0-.668-1.885c-.878.31-1.717.904-2.454 1.55-.747.655-1.445 1.415-2.039 2.127a30 30 0 0 0-1.143 1.465 4 4 0 0 0-.85-.782 2.6 2.6 0 0 0-.733-.348 1.7 1.7 0 0 0-.447-.07 1 1 0 0 0-.094 1.996c.023.008.08.03.164.086.2.133.595.484 1.036 1.366a1 1 0 0 0 1.738.088l.13-.198a28 28 0 0 1 1.735-2.322c.554-.664 1.179-1.34 1.822-1.905.653-.572 1.27-.98 1.803-1.168" clip-rule="evenodd"/></svg>