<svg xmlns="http://www.w3.org/2000/svg" fill="none" viewBox="0 0 24 24"><path fill="currentColor" fill-rule="evenodd" d="M10.826 2.135c.678-.26 1.372-.49 1.989-.65 1.022-.28 2.523.74 2.926 1.62.424.93.41 2.09.347 3.09l-.01.157c-.068 1.138-.194 3.245-1.394 3.703l-.06.022c-.205.076-.314.116-.392.098a.4.4 0 0 1-.146-.07c-.06-.057-.086-.158-.132-.337l-.008-.033c-.21-.83-.486-1.61-.775-2.2l-1.037-2.11c-.273-.56-.863-1.5-1.531-2.33l-.018-.023c-.234-.295-.35-.44-.312-.587.039-.14.21-.21.553-.35m-.907 12.159c.103.06.16.17.147.29-.081.737-.907.917-1.523 1.051l-.13.029c-.975.21-1.95.28-2.654.33-1.557.12-2.568.14-3.745-1.02-.405-.4-.655-1-.62-1.58.012-.2.045-.32.11-.56.166-.63.382-1.3.643-1.97.137-.35.206-.52.358-.56s.3.09.596.36a16 16 0 0 0 2.54 1.84c1.266.73 2.606 1.27 4.127 1.73l.061.022c.043.015.069.024.09.038" clip-rule="evenodd" opacity=".4"/><path fill="currentColor" fill-rule="evenodd" d="M17.452 7.513c-.048.3-.07.45-.006.55.063.094.203.126.476.188l.05.012q.355.09.7.21c1.081.39 2.33.24 3.22-.65.86-.86 1.023-2.32.072-3.26-1.243-1.24-2.776-2.3-4.43-2.75-.334-.09-.5-.13-.57-.1a.2.2 0 0 0-.097.12c-.023.066.055.24.213.59l.027.06c.147.32.255.69.334 1.09.157.78.207 1.73.146 2.71q-.037.6-.135 1.23m-15.285 9.57c-.18-.14-.27-.2-.344-.2a.22.22 0 0 0-.152.09c-.04.06-.028.158-.003.362v.008c.117.89.396 1.61.809 2.27.476.758 1.334 1.613 2.021 2.298l.032.032c.949.94 2.407.78 3.266-.07.892-.89 1.043-2.14.653-3.22a6 6 0 0 1-.228-.79c-.066-.3-.1-.45-.195-.52-.09-.056-.223-.042-.478-.016l-.054.006c-.618.09-1.18.13-1.606.16l-.216.016c-.603.046-1.21.092-1.815.074-.593-.03-1.203-.14-1.69-.5M9.19 3.723c1.852 1.98 3.092 4.96 3.523 7.63.12.75-.423 1.51-1.16 1.7-1.4.358-3.813-1.059-5.037-1.777l-.124-.073c-.933-.54-1.824-1.2-2.74-2.07l-.02-.019c-.393-.377-.59-.566-.643-.9-.053-.33.075-.57.33-1.04.91-1.66 2.257-2.98 3.915-3.9.842-.46 1.317-.24 1.956.45" clip-rule="evenodd"/></svg>