<svg xmlns="http://www.w3.org/2000/svg" fill="none" viewBox="0 0 24 24"><path fill="currentColor" d="M12 13.17q.065-.065.134-.125c.53-.458 1.211-.67 1.866-.67s1.336.212 1.866.67q.068.06.134.125.065-.065.134-.125c.53-.458 1.211-.67 1.866-.67s1.336.212 1.866.67c.545.472.884 1.169.884 2.029 0 .822-.228 1.56-.512 2.22-.183.425-.412.864-.623 1.269-.389.783-1.008 2.011-1.32 2.507-.328.517-.683.934-1.176 1.24-.492.307-1.022.441-1.63.505-.58.06-1.29.06-2.158.06H10.67c-.869 0-1.578 0-2.159-.06-.607-.064-1.137-.198-1.63-.505-.492-.306-.847-.723-1.174-1.24-.313-.496-.932-1.724-1.32-2.507a19 19 0 0 1-.624-1.27c-.284-.66-.512-1.397-.512-2.22 0-.86.34-1.556.884-2.028.53-.458 1.211-.67 1.866-.67s1.336.212 1.866.67q.069.06.134.125a3 3 0 0 1 .134-.125c.53-.458 1.211-.67 1.866-.67s1.336.212 1.866.67q.068.06.134.125" opacity=".4"/><path fill="currentColor" fill-rule="evenodd" d="M12 1.125a1 1 0 0 0-1 1c0 .808-.201 1.286-.454 1.636-.28.39-.665.682-1.204 1.086l-.015.011c-.499.375-1.135.852-1.62 1.552-.41.59-.69 1.298-.785 2.182A4.98 4.98 0 0 0 4 13.169q.064-.064.133-.124c.53-.458 1.211-.67 1.866-.67q.048 0 .095.002a2.98 2.98 0 0 1 2.064-2.115c.37-.105.827-.204 1.369-.32L9.9 9.86a25 25 0 0 0 2.197-.561c.737-.235 1.495-.542 2.14-.975.435-.29.84-.654 1.15-1.109.51.246.783.936.455 1.448-.15.233-.443.483-.843.714a1 1 0 0 0 1 1.732c.323-.187.679-.428.997-.732.326.18.53.437.675.744.16.342.254.766.297 1.253H18c.655 0 1.336.212 1.866.67q.069.06.133.124l.001-.044c0-.898-.09-1.943-.519-2.855a3.57 3.57 0 0 0-1.528-1.649c.216-1.398-.62-2.839-1.96-3.325.073-2.159-1.666-4.171-3.993-4.171M9.133 7.981l-.022.004q.106-.248.238-.434c.28-.405.666-.708 1.194-1.104l.066-.05c.48-.36 1.09-.816 1.559-1.465.325-.451.57-.972.707-1.593.856.443 1.351 1.499 1.01 2.458-.107.298-.341.586-.76.867-.424.284-.982.523-1.633.73-.647.205-1.34.365-2.017.513z" clip-rule="evenodd"/></svg>