<svg xmlns="http://www.w3.org/2000/svg" fill="none" viewBox="0 0 24 24"><path fill="currentColor" fill-rule="evenodd" d="M7.903 16.194c-.097-.277-.145-.416-.265-.468s-.267.01-.562.137a8 8 0 0 1-.38.152c-1.059.393-2.244.642-3.563.73a2 2 0 0 1-.577-.045c-.15-.034-.306.072-.306.225 0 .96 0 1.75.08 2.376.082.654.262 1.24.71 1.716.453.481 1.023.682 1.66.773.597.085 1.35.085 2.245.085H8a.75.75 0 0 0 .75-.75c0-.789-.106-2.076-.42-3.438a14 14 0 0 0-.427-1.493M23 3.125a1 1 0 0 1-1 1H2a1 1 0 1 1 0-2h20a1 1 0 0 1 1 1m-6.638 12.6c-.12.053-.168.192-.265.47a14 14 0 0 0-.428 1.492c-.313 1.362-.419 2.65-.419 3.438 0 .414.336.75.75.75h1.055c.896 0 1.648 0 2.246-.085.636-.091 1.206-.292 1.66-.773.447-.476.627-1.062.71-1.716.079-.626.079-1.417.079-2.376 0-.154-.156-.26-.306-.225a2 2 0 0 1-.578.046c-1.318-.089-2.503-.338-3.562-.73a8 8 0 0 1-.38-.152c-.295-.128-.443-.191-.562-.139" clip-rule="evenodd"/><path fill="currentColor" fill-rule="evenodd" d="M7.055 8.377a.75.75 0 0 1 .693.803c-.12 1.633-.48 3.1-.893 4.289-.21.603-.315.905-.147 1.038.168.132.414-.026.906-.342 1.513-.969 2.683-2.484 3.513-4.159.345-.695.636-1.428.873-2.176.236.748.528 1.48.873 2.176.83 1.675 2 3.19 3.513 4.16.492.315.738.473.906.34s.063-.434-.147-1.037a17 17 0 0 1-.893-4.289.75.75 0 0 1 1.496-.11c.223 3.013 1.344 5.393 1.883 6.232q.03.045.082.056.59.096 1.237.14a.75.75 0 0 0 .8-.748V3.125a.75.75 0 0 0-.75-.75H3a.75.75 0 0 0-.75.75V14.75a.75.75 0 0 0 .8.748q.646-.043 1.237-.14a.12.12 0 0 0 .082-.056c.539-.838 1.66-3.219 1.883-6.232a.75.75 0 0 1 .803-.693" clip-rule="evenodd" opacity=".4"/></svg>