<svg xmlns="http://www.w3.org/2000/svg" fill="none" viewBox="0 0 24 24"><path fill="currentColor" d="M6 10.04c0 .576.452 1.007.965 1.007h10.12c1.63 0 2.915 1.344 2.915 2.956 0 1.613-1.286 2.956-2.916 2.956H15c-1.288 0-2.406.843-2.824 2.041h.501c.066 0 .211 0 .342.018.144.021.622.114.868.6.244.483.029.902-.044 1.028a2 2 0 0 1-.195.271l-.01.013c-.235.29-.613.742-.997 1.13-.19.191-.404.39-.62.55-.107.08-.238.166-.383.236-.133.064-.36.154-.638.154s-.505-.09-.638-.154a2.4 2.4 0 0 1-.384-.236 6 6 0 0 1-.62-.55c-.383-.388-.761-.84-.995-1.13l-.01-.013c-.04-.049-.13-.16-.196-.271-.073-.126-.288-.545-.044-1.028.246-.486.724-.579.868-.6A2.4 2.4 0 0 1 9.323 19h.783c.472-2.295 2.47-4.04 4.894-4.04h2.084c.486 0 .916-.409.916-.957 0-.547-.43-.956-.916-.956H6.965C5.308 13.047 4 11.681 4 10.04 4 8.4 5.308 7.033 6.965 7.033H9c1.285 0 2.402-.839 2.822-2.033h-.499c-.066 0-.211 0-.342-.018-.144-.021-.622-.114-.868-.6-.244-.483-.029-.902.044-1.028.065-.112.155-.222.195-.271l.01-.013c.235-.29.613-.742.997-1.13.19-.191.404-.391.62-.55.107-.08.238-.166.383-.236.133-.064.36-.154.638-.154s.505.09.638.154c.145.07.276.156.383.236.216.159.43.359.62.55.384.388.762.84.996 1.13l.01.013c.04.049.13.16.196.271.073.126.288.545.044 1.028-.246.486-.724.579-.868.6-.13.019-.277.018-.342.018h-.784C13.418 7.292 11.423 9.033 9 9.033H6.965c-.513 0-.965.431-.965 1.007" opacity=".4"/><path fill="currentColor" fill-rule="evenodd" d="m10.363 3.07-.01.013c-.04.049-.13.16-.196.271-.073.126-.288.545-.044 1.028.246.486.724.579.868.6.13.019.277.018.342.018h3.354c.066 0 .211 0 .342-.018.144-.021.622-.114.868-.6.244-.483.029-.902-.044-1.028a2 2 0 0 0-.195-.271l-.01-.013c-.235-.29-.613-.742-.997-1.13a5.6 5.6 0 0 0-.62-.55 2.4 2.4 0 0 0-.383-.236A1.5 1.5 0 0 0 13 1c-.278 0-.505.09-.638.154-.145.07-.276.156-.383.236-.216.16-.43.359-.62.55-.384.388-.762.84-.996 1.13m-2 17.86-.01-.013c-.04-.049-.13-.16-.196-.271-.073-.126-.288-.545-.044-1.028.246-.486.724-.579.868-.6.13-.019.277-.018.342-.018h3.354c.066 0 .211 0 .342.018.144.021.622.114.868.6.244.483.029.903-.044 1.028a2 2 0 0 1-.195.271l-.01.013c-.235.29-.613.742-.997 1.13-.19.191-.404.391-.62.55-.107.08-.238.166-.383.236-.133.064-.36.154-.638.154s-.505-.09-.638-.154a2.4 2.4 0 0 1-.384-.236 6 6 0 0 1-.62-.55c-.383-.388-.761-.84-.995-1.13" clip-rule="evenodd"/></svg>