<svg xmlns="http://www.w3.org/2000/svg" fill="none" viewBox="0 0 24 24"><path fill="currentColor" fill-rule="evenodd" d="M20.495 2.038a2.15 2.15 0 0 0-2.151 0c-.248.143-.47.366-.729.625l-3.19 3.19c-.44.441-.647.974-.769 1.452a9 9 0 0 0-.142.696l-.02.115c-.03.179-.058.34-.092.498l-.009.042c-.062.29-.124.58-.14.82-.016.264.01.648.317.954.306.307.69.333.954.316.24-.015.53-.077.82-.14l.042-.008c.158-.034.32-.062.498-.092l.115-.02a9 9 0 0 0 .696-.142c.478-.122 1.01-.328 1.452-.769l3.19-3.19c.26-.26.482-.481.625-.729a2.15 2.15 0 0 0 0-2.151c-.143-.248-.366-.47-.625-.729l-.057-.056-.056-.057c-.259-.26-.481-.482-.729-.625M6 13.25a4.75 4.75 0 1 0 0 9.5 4.75 4.75 0 0 0 0-9.5" clip-rule="evenodd"/><path fill="currentColor" fill-rule="evenodd" d="M6 1.25a4.75 4.75 0 1 0 0 9.5 4.75 4.75 0 0 0 0-9.5m12 12a4.75 4.75 0 1 0 0 9.5 4.75 4.75 0 0 0 0-9.5" clip-rule="evenodd" opacity=".4"/></svg>