<svg xmlns="http://www.w3.org/2000/svg" fill="none" viewBox="0 0 24 24"><path fill="currentColor" fill-rule="evenodd" d="M7.703 1.287c-.447-.037-.998-.037-1.672-.037H5.97c-.674 0-1.225 0-1.672.037-.463.037-.882.118-1.272.317a3.25 3.25 0 0 0-1.42 1.42c-.2.391-.28.81-.318 1.273-.037.447-.037.998-.037 1.672v.062c0 .674 0 1.225.037 1.672.037.463.118.882.317 1.272a3.25 3.25 0 0 0 1.42 1.42c.391.2.81.28 1.273.318.447.037.998.037 1.672.037h.062c.674 0 1.225 0 1.672-.037.463-.037.882-.118 1.272-.317a3.25 3.25 0 0 0 1.42-1.42c.2-.391.28-.81.318-1.273.037-.447.037-.998.037-1.672V5.97c0-.674 0-1.225-.037-1.672-.037-.463-.118-.882-.317-1.272a3.25 3.25 0 0 0-1.42-1.42c-.391-.2-.81-.28-1.273-.318m12 12c-.447-.037-.998-.037-1.672-.037h-.062c-.674 0-1.225 0-1.672.037-.463.037-.882.118-1.273.317a3.25 3.25 0 0 0-1.42 1.42c-.199.391-.28.81-.317 1.273-.037.447-.037.998-.037 1.672v.062c0 .674 0 1.225.037 1.672.037.463.118.882.317 1.273a3.25 3.25 0 0 0 1.42 1.42c.391.199.81.28 1.273.317.447.037.998.037 1.672.037h.063c.673 0 1.224 0 1.671-.037.463-.037.882-.118 1.273-.317a3.25 3.25 0 0 0 1.42-1.42c.199-.391.28-.81.317-1.273.037-.447.037-.998.037-1.672v-.062c0-.674 0-1.225-.037-1.672-.037-.463-.118-.882-.317-1.273a3.25 3.25 0 0 0-1.42-1.42c-.391-.199-.81-.28-1.273-.317" clip-rule="evenodd" opacity=".4"/><path fill="currentColor" fill-rule="evenodd" d="M20.745 1.788a2.15 2.15 0 0 0-2.151 0c-.248.143-.47.366-.729.625l-3.19 3.19c-.44.441-.647.974-.769 1.452a9 9 0 0 0-.142.696l-.02.115c-.03.179-.058.34-.092.498l-.009.042c-.062.29-.124.58-.14.82-.016.264.01.648.317.954.306.307.69.333.954.316.24-.015.53-.077.82-.14l.042-.008c.158-.034.32-.062.498-.092l.115-.02c.218-.038.457-.081.696-.142.478-.122 1.01-.328 1.451-.769l3.191-3.19c.26-.26.482-.481.625-.729a2.15 2.15 0 0 0 0-2.151c-.143-.248-.366-.47-.625-.729l-.057-.056-.056-.057c-.259-.26-.481-.482-.729-.625M7.703 13.287c-.447-.037-.998-.037-1.672-.037H5.97c-.674 0-1.225 0-1.672.037-.463.037-.882.118-1.272.317a3.25 3.25 0 0 0-1.42 1.42c-.2.391-.28.81-.318 1.273-.037.447-.037.998-.037 1.672v.062c0 .674 0 1.225.037 1.672.037.463.118.882.317 1.273a3.25 3.25 0 0 0 1.42 1.42c.391.199.81.28 1.273.317.447.037.998.037 1.671.037h.063c.674 0 1.225 0 1.672-.037.463-.037.882-.118 1.272-.317a3.25 3.25 0 0 0 1.42-1.42c.2-.391.28-.81.318-1.273.037-.447.037-.998.037-1.671v-.063c0-.674 0-1.225-.037-1.672-.037-.463-.118-.882-.317-1.273a3.25 3.25 0 0 0-1.42-1.42c-.391-.199-.81-.28-1.273-.317" clip-rule="evenodd"/></svg>