<svg xmlns="http://www.w3.org/2000/svg" fill="none" viewBox="0 0 24 24"><path fill="currentColor" fill-rule="evenodd" d="M.75 9.5c0-.28.22-.5.5-.5h1c1.66 0 3 1.34 3 3s-1.34 3-3 3h-1c-.28 0-.5-.22-.5-.5zm1 .5v4h.5c1.1 0 2-.9 2-2s-.9-2-2-2zm16.81-.96c.26-.11.55.02.65.27l1.54 3.84L22.01 10h-.97c-.28 0-.5-.22-.5-.5s.22-.5.5-.5h1.71c.17 0 .32.08.41.22.1.14.12.31.05.47l-2 5c-.07.19-.26.31-.46.31s-.39-.12-.46-.31l-2-5c-.11-.26.02-.55.27-.65M10.25 9c-.28 0-.5.22-.5.5s.22.5.5.5h1v4.5c0 .28.22.5.5.5s.5-.22.5-.5V10h1c.28 0 .5-.22.5-.5s-.22-.5-.5-.5z" clip-rule="evenodd"/><path fill="currentColor" fill-rule="evenodd" d="M8.21 9.31A.49.49 0 0 0 7.75 9c-.2 0-.39.12-.46.31l-2 5c-.11.26.02.55.27.65.26.11.55-.02.65-.27l1.54-3.84L9.01 14h-.97c-.28 0-.5.22-.5.5s.22.5.5.5h1.71c.17 0 .32-.08.41-.22.1-.14.12-.31.05-.47zM14.75 9c-.28 0-.5.22-.5.5v5c0 .28.22.5.5.5h2.5c.28 0 .5-.22.5-.5s-.22-.5-.5-.5h-2v-1.5h2c.28 0 .5-.22.5-.5s-.22-.5-.5-.5h-2V10h2c.28 0 .5-.22.5-.5s-.22-.5-.5-.5z" clip-rule="evenodd" opacity=".4"/></svg>