<svg xmlns="http://www.w3.org/2000/svg" fill="none" viewBox="0 0 24 24"><path fill="currentColor" d="M19.583 15.656c-.077 1.254-.138 2.248-.263 3.042-.128.815-.333 1.494-.742 2.087a4.7 4.7 0 0 1-1.417 1.345c-.612.377-1.295.541-2.108.62H8.927c-.813-.079-1.497-.244-2.11-.621A4.7 4.7 0 0 1 5.4 20.781c-.41-.594-.613-1.273-.74-2.09-.124-.795-.184-1.79-.259-3.046L3.75 4.75h16.5z" opacity=".4"/><path fill="currentColor" fill-rule="evenodd" d="M13.347 1.283c.565.05 1.097.223 1.553.563.337.251.571.56.771.893.186.309.373.694.585 1.131l.426.88H21a1 1 0 1 1 0 2H3a1 1 0 1 1 0-2h4.41l.356-.78c.206-.453.388-.852.57-1.172.198-.346.431-.666.773-.928.461-.354 1.003-.533 1.58-.586.395-.036.79-.035 1.186-.034h.248c.462.001.878.002 1.224.033M9.607 4.75h4.853a14 14 0 0 0-.503-.983c-.193-.32-.423-.46-.788-.493-.26-.023-.597-.024-1.135-.024-.55 0-.897 0-1.163.025-.374.034-.607.18-.797.513-.125.218-.26.51-.466.962M8.25 12.316a.75.75 0 0 1 .75-.75h6a.75.75 0 0 1 0 1.5H9a.75.75 0 0 1-.75-.75m2.25 3.168a.75.75 0 0 0 0 1.5h3a.75.75 0 0 0 0-1.5z" clip-rule="evenodd"/></svg>