<svg xmlns="http://www.w3.org/2000/svg" fill="none" viewBox="0 0 24 24"><path fill="currentColor" d="M20.232 2.25c.346 0 .66 0 .918.026.277.028.578.092.856.282.224.152.41.355.543.592.165.295.2.603.201.88 0 .258-.03.567-.065.907-.06.586-.116 1.146-.195 1.544-.083.418-.21.803-.466 1.147a2.8 2.8 0 0 1-.831.743c-.37.216-.767.302-1.194.341-.407.038-.907.038-1.504.038H5.505c-.597 0-1.097 0-1.504-.038-.427-.04-.824-.125-1.194-.34a2.8 2.8 0 0 1-.831-.744c-.256-.344-.383-.729-.466-1.147-.079-.398-.135-.958-.195-1.544a10 10 0 0 1-.065-.907c0-.277.036-.585.201-.88a1.75 1.75 0 0 1 .543-.592c.278-.19.58-.254.856-.282.258-.026.572-.026.918-.026z" opacity=".4"/><path fill="currentColor" fill-rule="evenodd" d="M2.25 8.218q0-.125.03-.241.24.229.527.396c.37.215.767.301 1.194.341l.199.015v4.362c0 1.841.002 3.124.134 4.092.128.94.362 1.436.721 1.79.36.355.865.587 1.82.713.982.13 2.284.132 4.15.132h6.825c.808 0 1.463-.649 1.463-1.45s-.655-1.45-1.463-1.45h-.487v.972a.96.96 0 0 1-.172.544.98.98 0 0 1-1.357.247 30 30 0 0 1-1.06-.79c-.3-.253-.6-.506-.816-.75-.25-.282-.495-.669-.495-1.19s.245-.906.495-1.188c.216-.244.517-.498.816-.75l1.06-.79a.98.98 0 0 1 1.357.247c.118.17.173.363.172.555v.96h.487c1.885 0 3.413 1.515 3.413 3.383s-1.528 3.384-3.413 3.384h-6.896c-1.778 0-3.21 0-4.338-.15-1.169-.155-2.154-.486-2.936-1.258-.784-.773-1.12-1.747-1.278-2.902-.152-1.113-.152-2.527-.152-4.28zm17.55 4.873V8.73l.2-.015c.426-.04.823-.126 1.193-.34a2.8 2.8 0 0 0 .526-.397 1 1 0 0 1 .031.241v4.873a.97.97 0 0 1-.975.967.97.97 0 0 1-.975-.967M10 10a1 1 0 1 0 0 2h4a1 1 0 1 0 0-2z" clip-rule="evenodd"/></svg>