<svg xmlns="http://www.w3.org/2000/svg" fill="none" viewBox="0 0 24 24"><path fill="currentColor" d="M5.612 3.25h12.776c.566 0 .951 0 1.288.061a3.75 3.75 0 0 1 3.013 3.013c.061.337.061.722.061 1.288V10c0 5.937-4.813 10.75-10.75 10.75S1.25 15.937 1.25 10V7.612c0-.566 0-.952.061-1.288a3.75 3.75 0 0 1 3.013-3.013c.337-.061.722-.061 1.288-.061" opacity=".4"/><path fill="currentColor" fill-rule="evenodd" d="M6.75 8A.75.75 0 0 0 6 7.25H1.25v1.5H6A.75.75 0 0 0 6.75 8M18 7.25a.75.75 0 0 0 0 1.5h4.75v-1.5zM10.248 18.5a7.75 7.75 0 0 0-7.75-7.75H1.273q.054.766.21 1.5h1.015a6.25 6.25 0 0 1 6.25 6.25v1.75q.73.232 1.5.358zm11.25-7.75a7.75 7.75 0 0 0-7.75 7.75v2.108a11 11 0 0 0 1.5-.358V18.5a6.25 6.25 0 0 1 6.25-6.25h1.014q.157-.734.21-1.5z" clip-rule="evenodd"/></svg>