<svg xmlns="http://www.w3.org/2000/svg" fill="none" viewBox="0 0 24 24"><path fill="currentColor" fill-rule="evenodd" d="M12 14.75h-.032c-.297 0-.573 0-.805.024a1.75 1.75 0 0 0-.787.252q-.173.111-.316.26a1.75 1.75 0 0 0-.402.722c-.069.222-.123.493-.181.784l-.007.032-.205 1.029a.75.75 0 0 0 .735.897h4a.75.75 0 0 0 .735-.897l-.205-1.03-.007-.03a8 8 0 0 0-.18-.785 1.75 1.75 0 0 0-.403-.723 1.8 1.8 0 0 0-.316-.259 1.75 1.75 0 0 0-.787-.252c-.232-.024-.508-.024-.805-.024zm9.382-9.324L21.605 5H22a1 1 0 1 0 0-2H2a1 1 0 1 0 0 2h1.395l.223.426C4.376 6.87 5.571 8 7.085 8h10.83c1.514 0 2.709-1.129 3.467-2.574" clip-rule="evenodd" opacity=".4"/><path fill="currentColor" fill-rule="evenodd" d="M10.697 17h-.062c-.387 0-.679 0-.965.041a4 4 0 0 0-1.822.755c-.232.173-.438.38-.711.653l-.044.044c-.231.23-.279.275-.323.308a1 1 0 0 1-.455.189c-.055.008-.12.01-.446.01H5a1 1 0 1 0 0 2h.919c.248 0 .466 0 .682-.03a3 3 0 0 0 1.366-.567c.175-.13.329-.285.504-.46l.036-.036c.336-.336.437-.433.538-.51a2 2 0 0 1 .911-.377c.126-.018.266-.02.741-.02h2.606c.475 0 .615.002.74.02a2 2 0 0 1 .912.378c.101.076.202.173.538.51l.036.035c.175.175.33.33.503.46a3 3 0 0 0 1.367.566c.216.031.434.031.682.031H19a1 1 0 0 0 0-2h-.869c-.326 0-.391-.002-.446-.01a1 1 0 0 1-.455-.189 4 4 0 0 1-.323-.308l-.044-.044c-.273-.274-.48-.48-.711-.653a4 4 0 0 0-1.822-.755C14.044 17 13.752 17 13.365 17zm1.271-2.25c-.297 0-.573 0-.805.024a3 3 0 0 0-.163.021v-4.59a1.63 1.63 0 0 1-.938-.49 1.75 1.75 0 0 1-.402-.723c-.069-.222-.123-.493-.181-.784L9.438 8h5.13l-.042.208c-.059.29-.113.562-.181.784a1.75 1.75 0 0 1-.403.723q-.143.148-.315.259c-.207.132-.42.197-.627.231v4.59a3 3 0 0 0-.163-.021c-.232-.024-.508-.024-.805-.024z" clip-rule="evenodd"/></svg>