<svg xmlns="http://www.w3.org/2000/svg" fill="none" viewBox="0 0 24 24"><path fill="currentColor" d="M10.566 1.804c.416-.318.873-.554 1.434-.554s1.018.236 1.434.554c.39.297.82.727 1.323 1.23l.035.035c.515.515.963.717 1.656.717q.132 0 .32-.006c.315-.01.722-.02 1.078.01.521.043 1.174.183 1.673.677.502.498.645 1.154.69 1.68.032.358.02.768.011 1.085q-.005.188-.006.32c0 .45.05.703.137.902.089.204.246.42.58.754l.035.035c.503.503.933.933 1.23 1.322.318.417.554.874.554 1.435s-.236 1.018-.554 1.434c-.297.39-.727.82-1.23 1.323l-.035.035c-.334.334-.491.55-.58.754-.087.2-.137.451-.137.902q0 .132.006.32c.01.317.02.727-.01 1.086-.046.525-.19 1.18-.691 1.679-.499.494-1.152.634-1.673.678-.356.03-.763.018-1.078.01q-.188-.007-.32-.007c-.441 0-.69.044-.885.125-.195.08-.403.224-.717.538-.067.068-.156.162-.258.272-.23.246-.529.566-.808.81-.424.371-1.031.791-1.78.791-.748 0-1.356-.42-1.78-.79-.28-.245-.578-.565-.808-.811-.102-.11-.19-.204-.258-.272-.314-.314-.523-.458-.718-.538s-.443-.125-.884-.125q-.132 0-.32.006c-.315.01-.722.02-1.078-.01-.521-.043-1.174-.183-1.673-.677-.502-.498-.645-1.154-.69-1.68-.032-.358-.02-.768-.011-1.085q.005-.188.006-.32c0-.45-.05-.703-.137-.902-.089-.204-.246-.42-.58-.754l-.035-.035c-.503-.503-.933-.933-1.23-1.323-.318-.416-.554-.873-.554-1.434s.236-1.018.554-1.434c.297-.39.727-.82 1.23-1.323l.035-.035c.515-.515.717-.964.717-1.656q0-.132-.006-.32c-.01-.315-.02-.722.01-1.078.043-.521.183-1.174.677-1.673.498-.502 1.154-.645 1.68-.69.358-.032.768-.02 1.085-.011q.188.005.32.006c.692 0 1.141-.202 1.656-.717l.035-.035c.503-.503.933-.933 1.323-1.23" opacity=".4"/><path fill="currentColor" fill-rule="evenodd" d="M8.293 14.293a1 1 0 1 0 1.414 1.414l6-6a1 1 0 0 0-1.414-1.414zM9.01 8H9a1 1 0 0 0 0 2h.01a1 1 0 0 0 0-2M15 14h-.01a1 1 0 0 0 0 2H15a1 1 0 1 0 0-2" clip-rule="evenodd"/></svg>