<svg xmlns="http://www.w3.org/2000/svg" fill="none" viewBox="0 0 24 24"><path fill="currentColor" fill-rule="evenodd" d="M22.662 8.838c.088.088.088.23.088.512V18c0 .844-.043 1.572-.177 2.182-.136.619-.376 1.163-.802 1.59-.426.425-.97.665-1.589.8-.61.135-1.338.178-2.182.178H6c-.844 0-1.572-.043-2.182-.177-.619-.136-1.163-.376-1.59-.802-.425-.426-.665-.97-.8-1.589-.135-.61-.178-1.338-.178-2.182V9.35c0-.283 0-.424.088-.512s.23-.088.512-.088h20.3c.283 0 .424 0 .512.088M9 11.25a3.75 3.75 0 1 0 0 7.5 3.75 3.75 0 0 0 0-7.5m5.521.173a.75.75 0 0 1 .617-.16c.62.115 1.201.296 1.667.568.463.27.897.682 1.027 1.285l.389 1.81c.06.28.042.625-.19.923-.206.265-.492.372-.685.422-.352.092-.817.093-1.202.094h-.061l-.333.001V18a.75.75 0 0 1-1.5 0v-6c0-.223.1-.434.271-.577M6.75 15a2.25 2.25 0 1 1 4.5 0 2.25 2.25 0 0 1-4.5 0" clip-rule="evenodd" opacity=".4"/><path fill="currentColor" fill-rule="evenodd" d="M3.818 1.427C4.428 1.293 5.156 1.25 6 1.25h12c.844 0 1.572.043 2.182.177.619.136 1.163.376 1.59.802.425.426.665.97.8 1.589.135.61.178 1.338.178 2.182v.65c0 .283 0 .424-.088.512s-.23.088-.512.088H1.85c-.283 0-.424 0-.512-.088s-.088-.23-.088-.512V6c0-.844.043-1.572.177-2.182.136-.619.376-1.163.802-1.59.426-.425.97-.665 1.589-.8m1.057 2.069a.75.75 0 1 0 0 1.5h4a.75.75 0 0 0 0-1.5zm14-.25a1 1 0 0 1 1 1v.009a1 1 0 1 1-2 0v-.01a1 1 0 0 1 1-1M5.25 15a3.75 3.75 0 1 1 7.5 0 3.75 3.75 0 0 1-7.5 0m1.5 0a2.25 2.25 0 1 1 4.5 0 2.25 2.25 0 0 1-4.5 0m7.771-3.577a.75.75 0 0 1 .617-.16c.62.115 1.201.296 1.667.568.463.27.897.682 1.027 1.285l.389 1.81c.06.28.042.625-.19.923-.206.265-.492.372-.685.422-.353.093-.818.093-1.204.094h-.059l-.333.001V18a.75.75 0 0 1-1.5 0v-6c0-.223.1-.434.271-.577" clip-rule="evenodd"/></svg>