<svg xmlns="http://www.w3.org/2000/svg" fill="none" viewBox="0 0 24 24"><path fill="currentColor" fill-rule="evenodd" d="m7 4.253-.183-.002c-.356-.003-.825-.008-1.252.08-.553.112-1.136.392-1.514 1.047-.177.307-.243.633-.273.962-.028.311-.028.69-.028 1.13v9.065c0 .44 0 .82.028 1.13.03.33.096.656.273.963.378.654.96.934 1.514 1.047.427.087.896.082 1.252.079L7 19.753l.183.001c.356.003.825.008 1.252-.079.553-.113 1.136-.393 1.514-1.047.177-.308.243-.633.273-.963.028-.31.028-.69.028-1.13V7.471c0-.44 0-.82-.028-1.13-.03-.33-.096-.656-.273-.963-.378-.655-.96-.935-1.514-1.048-.427-.087-.896-.082-1.252-.079zm10 3-.183-.002c-.356-.003-.825-.008-1.252.08-.553.112-1.136.392-1.514 1.047-.177.307-.243.633-.273.962-.028.311-.028.69-.028 1.13v3.065c0 .44 0 .82.028 1.13.03.33.096.656.273.963.378.654.96.934 1.514 1.047.427.087.896.082 1.252.079l.183-.001.183.001c.356.003.825.008 1.252-.079.553-.113 1.136-.393 1.514-1.047.177-.308.243-.633.273-.963.028-.31.028-.69.028-1.13V10.47c0-.44 0-.819-.028-1.13-.03-.33-.096-.655-.273-.962-.378-.655-.96-.935-1.514-1.048-.427-.087-.896-.082-1.252-.079z" clip-rule="evenodd" opacity=".4"/><path fill="currentColor" fill-rule="evenodd" d="M7 1a1 1 0 0 1 1 1v2.27a9 9 0 0 0-.817-.019h-.366A9 9 0 0 0 6 4.27V2a1 1 0 0 1 1-1m-.183 18.754c-.238.002-.525.005-.817-.02V22a1 1 0 1 0 2 0v-2.265c-.292.024-.58.02-.817.019zM17 1a1 1 0 0 1 1 1v5.27a9 9 0 0 0-.817-.019h-.366A9 9 0 0 0 16 7.27V2a1 1 0 0 1 1-1m-.183 15.754c-.238.002-.525.005-.817-.02V22a1 1 0 1 0 2 0v-5.265c-.292.024-.58.02-.817.019z" clip-rule="evenodd"/></svg>