<svg xmlns="http://www.w3.org/2000/svg" fill="none" viewBox="0 0 24 24"><path fill="currentColor" fill-rule="evenodd" d="M10.53 12.47a.75.75 0 0 0-.53-.22c-1.368 0-2.525 0-3.392.117-.9.12-1.658.38-2.26.981-.602.602-.86 1.36-.981 2.26-.117.867-.117 1.97-.117 3.337V22c0 .414.336.75.75.75h16a.75.75 0 0 0 .75-.75v-3.055c0-1.367 0-2.47-.116-3.337-.122-.9-.38-1.658-.982-2.26s-1.36-.86-2.26-.982c-.867-.116-2.024-.116-3.392-.116a.75.75 0 0 0-.53.22L12 13.94zM12 1.25A4.25 4.25 0 0 0 7.75 5.5v1a4.25 4.25 0 0 0 8.5 0v-1A4.25 4.25 0 0 0 12 1.25" clip-rule="evenodd" opacity=".4"/><path fill="currentColor" fill-rule="evenodd" d="M14.5 19.25a1.5 1.5 0 0 1 .75-1.3v-5.696c.55.005 1.052.018 1.5.05v5.647a1.5 1.5 0 1 1-2.25 1.299M11.25 19a2.75 2.75 0 0 0-2-2.646V12.25a42 42 0 0 0-1.5.025v4.078a2.75 2.75 0 0 0-2 2.646v1a.75.75 0 0 0 1.5 0v-1a1.25 1.25 0 1 1 2.5 0v1a.75.75 0 0 0 1.5 0z" clip-rule="evenodd"/></svg>