<svg xmlns="http://www.w3.org/2000/svg" fill="none" viewBox="0 0 24 24"><path fill="currentColor" fill-rule="evenodd" d="M12 1a1 1 0 0 1 1 1v20a1 1 0 1 1-2 0V2a1 1 0 0 1 1-1" clip-rule="evenodd" opacity=".4"/><path fill="currentColor" fill-rule="evenodd" d="M8.006 6.055c-.987.638-1.423 1.4-1.423 2.093 0 .445.085.783.227 1.049.14.26.367.507.74.727.785.463 2.168.78 4.45.78 2.378 0 4.346.294 5.746 1.094.72.412 1.3.963 1.692 1.672.39.705.562 1.509.562 2.382 0 1.924-1.058 3.267-2.584 4.07C15.944 20.696 14.009 21 12 21c-2.08 0-4.013-.498-5.46-1.355C5.116 18.801 4 17.493 4 15.852a1 1 0 1 1 2 0c0 .65.45 1.415 1.56 2.073C8.647 18.569 10.215 19 12 19c1.857 0 3.422-.289 4.484-.848 1.007-.53 1.516-1.262 1.516-2.3 0-.609-.12-1.064-.313-1.415-.191-.346-.487-.647-.933-.902-.933-.533-2.465-.831-4.754-.831-2.384 0-4.21-.316-5.467-1.058-.647-.382-1.15-.882-1.484-1.502-.331-.616-.466-1.295-.466-1.996 0-1.598 1.001-2.91 2.337-3.773C8.265 3.505 10.064 3 12 3s3.735.505 5.08 1.375c1.336.864 2.337 2.175 2.337 3.773a1 1 0 1 1-2 0c0-.692-.436-1.455-1.423-2.093C15.018 5.423 13.608 5 12 5s-3.018.423-3.994 1.055" clip-rule="evenodd"/></svg>