<svg xmlns="http://www.w3.org/2000/svg" fill="none" viewBox="0 0 24 24"><path fill="currentColor" fill-rule="evenodd" d="M15.103 5.196q.355-.038.681-.08c.547-.07 1.046-.132 1.55-.113.654.025 1.054.19 1.317.525.116.149.224.388.285.94.063.568.064 1.323.064 2.438v6.187c0 1.116-.002 1.87-.064 2.438-.061.553-.169.792-.285.94-.263.334-.663.5-1.317.525-.504.02-1.003-.043-1.55-.112q-.327-.043-.68-.08l-.207 1.989q.218.023.493.059c.59.075 1.338.17 2.02.143a4.5 4.5 0 0 0 1.447-.279q.07.01.143.01h3a1 1 0 0 0 0-2h-1.27c.098-.31.156-.636.194-.975.076-.691.076-1.557.076-2.6V8.848c0-1.044 0-1.91-.076-2.6-.08-.72-.254-1.386-.7-1.955-.775-.989-1.87-1.253-2.813-1.29-.683-.026-1.432.069-2.022.144-.181.023-.348.044-.492.059z" clip-rule="evenodd" opacity=".4"/><path fill="currentColor" fill-rule="evenodd" d="M13.324 1.455c-.547-.217-1.126-.237-1.77-.174-.629.062-1.402.212-2.363.399l-.069.013c-.928.18-1.669.324-2.264.491-.613.172-1.126.381-1.582.72A4.97 4.97 0 0 0 3.667 4.96c-.224.527-.323 1.088-.37 1.753-.047.65-.047 1.45-.047 2.463v5.648c0 1.013 0 1.813.047 2.463.046.648.141 1.197.353 1.713H2a1 1 0 1 0 0 2h3q.07 0 .138-.01.068.055.138.107c.456.338.969.547 1.582.719.596.167 1.336.31 2.264.49l.07.014c.96.187 1.733.337 2.361.399.645.063 1.224.043 1.77-.174a3.8 3.8 0 0 0 1.911-1.699c.286-.514.405-1.096.46-1.773.056-.665.056-1.499.056-2.548v-9.05c0-1.049 0-1.883-.055-2.548-.056-.677-.175-1.259-.46-1.773a3.8 3.8 0 0 0-1.911-1.699M12 10.25a.75.75 0 0 1 .75.75v2a.75.75 0 0 1-1.5 0v-2a.75.75 0 0 1 .75-.75" clip-rule="evenodd"/></svg>