<svg xmlns="http://www.w3.org/2000/svg" fill="none" viewBox="0 0 24 24"><path fill="currentColor" d="M18.545 3.955a2.494 2.494 0 0 1 3.476 0c.971.95.971 2.496 0 3.445l-3.173 3.102 1.35 1.82.013.02c.555.733.994 1.313 1.315 1.801.327.497.567.95.692 1.435.358 1.397.216 2.936-1.049 4.173-.756.738-1.484 1.093-2.906 1.786-.982.48-2.085 1.019-2.732 1.136a4.75 4.75 0 0 1-3.107-.493c-.577-.312-1.077-.8-1.852-1.56l-.927-.905c-1.031-1.008-1.704-1.665-2.062-2.506a5 5 0 0 1-.168-.46c-.265-.876-.166-1.804-.016-3.22l.554-5.237c.121-1.143 1.036-2.03 2.174-2.153 1.362-.148 2.609.838 2.717 2.217l.086 1.088z" opacity=".4"/><path fill="currentColor" fill-rule="evenodd" d="M8.485 4.503c-.244.005-.46.02-.671.056a1 1 0 0 1-.342-1.97 7 7 0 0 1 1.01-.086 2.25 2.25 0 1 1 .003 2m-5.98 3.978a2.25 2.25 0 1 0 2 .006c.008-.243.024-.465.059-.682a1 1 0 1 0-1.976-.313 7.5 7.5 0 0 0-.083.99m3.43-3.051a1 1 0 1 0-1.282-1.534 6 6 0 0 0-.758.758A1 1 0 1 0 5.43 5.936a4 4 0 0 1 .506-.506" clip-rule="evenodd"/></svg>