<svg xmlns="http://www.w3.org/2000/svg" fill="none" viewBox="0 0 24 24"><path fill="currentColor" d="M16.055 8.25c1.367 0 2.47 0 3.337.117.9.12 1.658.38 2.26.981.602.602.86 1.36.982 2.26.116.867.116 1.97.116 3.337v1.11c0 1.367 0 2.47-.116 3.337-.122.9-.38 1.658-.982 2.26s-1.36.86-2.26.982c-.867.116-1.97.116-3.337.116h-1.11c-1.367 0-2.47 0-3.337-.116-.9-.122-1.658-.38-2.26-.982s-.86-1.36-.981-2.26c-.117-.867-.117-1.97-.117-3.337v-1.11c0-1.367 0-2.47.117-3.337.12-.9.38-1.658.981-2.26.602-.602 1.36-.86 2.26-.981.867-.117 1.97-.117 3.337-.117z" opacity=".4"/><path fill="currentColor" d="M3.188 9a5.812 5.812 0 0 1 11.577-.75h1.95a7.75 7.75 0 1 0-8.464 8.464l-.001-.66v-1.289A5.814 5.814 0 0 1 3.188 9"/></svg>