<svg xmlns="http://www.w3.org/2000/svg" fill="none" viewBox="0 0 24 24"><path fill="currentColor" fill-rule="evenodd" d="M12 3a4 4 0 1 0 0 8 4 4 0 0 0 0-8m-8.165 9.45a1 1 0 0 0-1.67 1.1C4.322 16.827 7.91 19 12 19s7.678-2.173 9.835-5.45a1 1 0 1 0-1.67-1.1C18.34 15.222 15.35 17 12 17s-6.34-1.778-8.165-4.55" clip-rule="evenodd" opacity=".4"/><path fill="currentColor" fill-rule="evenodd" d="M13 2a1 1 0 1 0-2 0v1.126a4 4 0 0 1 2 0zm-4.361 9.357a.208.208 0 0 0-.32.08L4.078 21.619a1 1 0 1 0 1.846.769l4.167-10a.206.206 0 0 0-.116-.27 5.5 5.5 0 0 1-1.335-.761m5.388.76a.206.206 0 0 0-.117.27l4.167 10a1 1 0 1 0 1.846-.768l-4.242-10.182a.208.208 0 0 0-.32-.08c-.403.312-.852.57-1.334.76M13 17a1 1 0 1 0-2 0v2a1 1 0 1 0 2 0z" clip-rule="evenodd"/></svg>