<svg xmlns="http://www.w3.org/2000/svg" fill="none" viewBox="0 0 24 24"><path fill="currentColor" fill-rule="evenodd" d="M8.02 5.385c2.64-1.18 5.32-1.18 7.96 0 .177.079.344.115.492.115H18a1 1 0 1 1 0 2h-1.528a3.2 3.2 0 0 1-1.307-.289c-2.122-.948-4.208-.948-6.33 0a3.2 3.2 0 0 1-1.307.289H6a1 1 0 0 1 0-2h1.528c.148 0 .315-.036.491-.115M1 6.5a1 1 0 0 1 1-1h1.5a1 1 0 0 1 0 2H2a1 1 0 0 1-1-1m18.5 0a1 1 0 0 1 1-1H22a1 1 0 1 1 0 2h-1.5a1 1 0 0 1-1-1M8.02 16.385c2.64-1.18 5.32-1.18 7.96 0 .177.079.344.115.492.115H18a1 1 0 1 1 0 2h-1.528a3.2 3.2 0 0 1-1.307-.289c-2.122-.948-4.208-.948-6.33 0-.39.174-.834.289-1.307.289H6a1 1 0 1 1 0-2h1.528c.148 0 .315-.036.491-.115M1 17.5a1 1 0 0 1 1-1h1.5a1 1 0 1 1 0 2H2a1 1 0 0 1-1-1m18.5 0a1 1 0 0 1 1-1H22a1 1 0 1 1 0 2h-1.5a1 1 0 0 1-1-1" clip-rule="evenodd" opacity=".4"/><path fill="currentColor" fill-rule="evenodd" d="M7 3a1 1 0 0 0-2 0v7a1 1 0 1 0 2 0zm12 0a1 1 0 1 0-2 0v7a1 1 0 1 0 2 0zM7 14a1 1 0 1 0-2 0v7a1 1 0 1 0 2 0zm12 0a1 1 0 1 0-2 0v7a1 1 0 1 0 2 0zM3.5 3.5a1 1 0 0 1 1 1v4a1 1 0 0 1-2 0v-4a1 1 0 0 1 1-1m17 0a1 1 0 0 1 1 1v4a1 1 0 1 1-2 0v-4a1 1 0 0 1 1-1m-16 12a1 1 0 1 0-2 0v4a1 1 0 1 0 2 0zm17 0a1 1 0 1 0-2 0v4a1 1 0 1 0 2 0z" clip-rule="evenodd"/></svg>