<svg xmlns="http://www.w3.org/2000/svg" fill="none" viewBox="0 0 24 24"><path fill="currentColor" d="M4.25 9a7.75 7.75 0 1 1 15.5 0c0 3.009-1.802 5.522-4.09 7.116-.673.467-1.093 1.028-1.311 2.042-.596 2.763-2.529 4.592-5.041 4.592-1.325 0-2.27-.639-2.895-1.555-.6-.878-.91-2.007-1.077-3.08l-.004-.026z" opacity=".4"/><path fill="currentColor" fill-rule="evenodd" d="M10.034 9.646c.055-.648.181-1.244.411-1.707.157-.315.347-.537.57-.684.218-.144.528-.255.994-.255.615 0 1.052.225 1.365.575.33.37.568.936.63 1.66a1 1 0 1 0 1.992-.17c-.089-1.052-.45-2.06-1.13-2.822C14.168 5.462 13.186 5 12.009 5c-.806 0-1.509.2-2.094.584-.58.382-.983.906-1.26 1.464C8.115 8.133 8 9.448 8 10.5a1 1 0 0 0 1 1c.938 0 1.508.659 1.508 1.25S9.938 14 9 14a1 1 0 1 0 0 2c1.832 0 3.508-1.356 3.508-3.25 0-1.528-1.09-2.706-2.474-3.104" clip-rule="evenodd"/></svg>