<svg xmlns="http://www.w3.org/2000/svg" fill="none" viewBox="0 0 24 24"><path fill="currentColor" fill-rule="evenodd" d="M3 5a1 1 0 0 0 0 2h18a1 1 0 1 0 0-2zm0 8a1 1 0 1 0 0 2h4a1 1 0 1 0 0-2zm6 1a1 1 0 0 1 1-1h4a1 1 0 1 1 0 2h-4a1 1 0 0 1-1-1m8-1a1 1 0 1 0 0 2h4a1 1 0 1 0 0-2z" clip-rule="evenodd"/><path fill="currentColor" fill-rule="evenodd" d="M2 10a1 1 0 0 1 1-1h7.5a1 1 0 1 1 0 2H3a1 1 0 0 1-1-1m10.5 0a1 1 0 0 1 1-1H21a1 1 0 1 1 0 2h-7.5a1 1 0 0 1-1-1M3 17a1 1 0 1 0 0 2h2.118a1 1 0 1 0 0-2zm5.294 0a1 1 0 1 0 0 2h2.118a1 1 0 1 0 0-2zm5.294 0a1 1 0 0 0 0 2h2.118a1 1 0 1 0 0-2zm5.294 0a1 1 0 1 0 0 2H21a1 1 0 1 0 0-2z" clip-rule="evenodd" opacity=".4"/></svg>