<svg xmlns="http://www.w3.org/2000/svg" fill="none" viewBox="0 0 24 24"><path fill="currentColor" fill-rule="evenodd" d="M2.707 1.293a1 1 0 0 0-1.414 1.414l6.68 6.68-3.83 4.15c-1.12 1.214-1.807 1.957-2.209 2.882-.401.924-.48 1.94-.61 3.6v.003c0 .003-.085 1.094-.072 1.33.015.267.079.592.327.874.25.284.567.386.834.43.23.04 1.26.066 1.278.067 1.897.05 3.07.08 4.148-.34s1.928-1.241 3.31-2.572l3.692-3.556 6.452 6.452a1 1 0 0 0 1.414-1.414z" clip-rule="evenodd"/><path fill="currentColor" fill-rule="evenodd" d="M15.203 1.794a3.86 3.86 0 0 1 3.85-.057c.5.277.956.743 1.634 1.436l.184.188c.68.695 1.136 1.16 1.406 1.668a4.04 4.04 0 0 1-.056 3.893c-.207.364-.512.702-.933 1.12-.196.194-.294.291-.418.29-.124 0-.223-.098-.42-.296l-6.392-6.391c-.194-.194-.29-.29-.292-.412s.09-.22.277-.418c.437-.464.784-.797 1.16-1.02m3.789 9.617-6.258-6.259c-.208-.207-.311-.31-.44-.308-.127.002-.226.11-.425.326l-1.325 1.435a.3.3 0 0 0 .009.415l6.6 6.601a.3.3 0 0 0 .42.004l1.41-1.358h.001c.207-.2.31-.3.312-.425.001-.126-.1-.228-.304-.431" clip-rule="evenodd" opacity=".4"/></svg>