<svg xmlns="http://www.w3.org/2000/svg" fill="none" viewBox="0 0 24 24"><path fill="currentColor" d="M17.98 1.338a2.6 2.6 0 0 1 2.063 0c.265.114.487.28.702.468.206.18.441.416.72.695l.034.034c.28.279.514.514.695.72.189.215.354.437.468.702a2.6 2.6 0 0 1 0 2.063c-.114.265-.28.487-.468.702-.18.206-.415.441-.695.72l-5.139 5.14c-1.14 1.14-1.846 1.846-2.74 2.269-.893.423-2.028.534-3.633.693l-.788.077a.75.75 0 0 1-.82-.82l.077-.788c.159-1.605.27-2.74.693-3.633.423-.894 1.129-1.6 2.27-2.74l5.139-5.14c.279-.278.514-.513.72-.694a2.7 2.7 0 0 1 .702-.468" opacity=".4"/><path fill="currentColor" fill-rule="evenodd" d="M1.125 16.625a2.75 2.75 0 0 1 2.75-2.75h2.25a1 1 0 1 1 0 2h-2.25a.75.75 0 0 0 0 1.5h9.5a2.75 2.75 0 1 1 0 5.5h-2.25a1 1 0 1 1 0-2h2.25a.75.75 0 0 0 0-1.5h-9.5a2.75 2.75 0 0 1-2.75-2.75" clip-rule="evenodd"/></svg>