<svg xmlns="http://www.w3.org/2000/svg" fill="none" viewBox="0 0 24 24"><path fill="currentColor" fill-rule="evenodd" d="M8.883 9.574a.75.75 0 0 1 1.044-.19L12 10.819l2.073-1.435a.75.75 0 1 1 .854 1.233l-1.609 1.115 3.11 2.152a.75.75 0 0 1-.005 1.236l-3.092 2.108 6.092 4.153a.75.75 0 0 1-.845 1.24L12 18.136 5.423 22.62a.75.75 0 0 1-.845-1.24l6.091-4.153-3.09-2.108a.75.75 0 0 1-.006-1.236l3.11-2.152-1.61-1.114a.75.75 0 0 1-.19-1.044M12 12.644l-2.675 1.851L12 16.32l2.676-1.825z" clip-rule="evenodd" opacity=".4"/><path fill="currentColor" fill-rule="evenodd" d="M21.75 22a.75.75 0 0 1-.75.75H3a.75.75 0 0 1 0-1.5h1.464l3.942-11.5H4.14l-.421 1.466a.75.75 0 0 1-1.437-.431l.324-1.08c.067-.229.169-.573.364-.814.185-.227.441-.382.668-.519l4.496-2.724.002-.002c.102-.061.205-.124.313-.18l1.344-2.15.003-.005c.34-.545.638-1.02.917-1.353.286-.342.695-.708 1.287-.708s1.001.366 1.287.708c.28.333.576.808.917 1.353l.003.005 1.344 2.15c.108.056.21.119.312.18l.003.002 4.495 2.724c.228.137.485.292.669.519.195.24.297.584.365.813v.001l.324 1.08a.75.75 0 0 1-1.437.431L19.86 9.75h-4.266l3.942 11.5H21a.75.75 0 0 1 .75.75M15.355 8.25h1.91l-1.723-1.033zM14.1 6.765l-.238 1.316-.003.02-.02.149h-3.678l-.02-.149-.003-.02-.237-1.316zm-.453-1.515-.683-1.093A14 14 0 0 0 12 2.777a14 14 0 0 0-.964 1.38l-.683 1.093zm-5.19 1.967L6.736 8.25h1.91zM9.993 9.75h4.016l.001.003 3.94 11.497H6.05L9.991 9.753z" clip-rule="evenodd"/></svg>