<svg xmlns="http://www.w3.org/2000/svg" fill="none" viewBox="0 0 24 24"><path fill="currentColor" d="M9.524 1.996c.836-.469 1.61-.746 2.476-.746s1.64.277 2.476.746c.81.454 1.738 1.125 2.905 1.969l1.51 1.091c.936.677 1.684 1.218 2.248 1.719.582.517 1.018 1.032 1.295 1.68.277.65.344 1.315.307 2.083-.036.741-.174 1.635-.345 2.749l-.315 2.052c-.244 1.584-.437 2.845-.722 3.827-.294 1.016-.709 1.823-1.45 2.439-1.166.97-2.716 1.106-4.898 1.137h-.01l-4.14.008h-.05c-1.665 0-2.983 0-4.028-.127-1.074-.13-1.953-.404-2.692-1.018-.74-.616-1.156-1.423-1.45-2.439-.285-.982-.478-2.243-.722-3.827l-.315-2.052c-.17-1.114-.309-2.008-.345-2.749-.037-.768.03-1.433.307-2.083.277-.648.713-1.163 1.295-1.68.564-.501 1.312-1.042 2.25-1.719l1.508-1.091c1.167-.844 2.095-1.515 2.905-1.969" opacity=".4"/><path fill="currentColor" d="M10 9.25a.75.75 0 0 1 .75.75v1.75h2.5V10a.75.75 0 0 1 1.5 0v1.756c.833.07 1.574.758 1.497 1.686l-.107 1.297a5.9 5.9 0 0 1-1.12 2.989l-.35.483a2.57 2.57 0 0 1-1.92 1.033v3.502l-1.5.003v-3.505a2.57 2.57 0 0 1-1.914-1.033l-.35-.483a5.9 5.9 0 0 1-1.12-2.989l-.109-1.297c-.076-.926.663-1.614 1.493-1.686V10a.75.75 0 0 1 .75-.75"/></svg>