<svg xmlns="http://www.w3.org/2000/svg" fill="none" viewBox="0 0 24 24"><path fill="currentColor" d="m21.483 11.041-.731-.701v3.216c0 1.838 0 3.294-.153 4.433-.158 1.172-.49 2.121-1.238 2.87-1.03 1.028-2.446 1.277-4.328 1.355l-.025.001-4.008.034c-1.547-.005-2.801-.03-3.807-.201-1.028-.174-1.872-.511-2.55-1.189-.748-.749-1.08-1.698-1.238-2.87-.153-1.139-.153-2.595-.153-4.433V10.34l-.731.701a.75.75 0 1 1-1.038-1.082l4.383-4.203C7.165 4.51 8.195 3.522 9.109 2.853c.942-.689 1.844-1.103 2.893-1.103s1.95.414 2.893 1.103c.914.669 1.944 1.657 3.243 2.903l4.383 4.203a.75.75 0 1 1-1.038 1.082" opacity=".4"/><path fill="currentColor" d="M10.002 8.25a.75.75 0 0 1 .75.75v1.75h2.5V9a.75.75 0 0 1 1.5 0v1.756c.833.07 1.574.758 1.497 1.686l-.107 1.297a5.9 5.9 0 0 1-1.12 2.989l-.35.483a2.57 2.57 0 0 1-1.92 1.033v3.991l-1.5.013v-4.004a2.57 2.57 0 0 1-1.914-1.033l-.35-.483a5.9 5.9 0 0 1-1.12-2.989l-.109-1.297c-.076-.926.663-1.614 1.493-1.686V9a.75.75 0 0 1 .75-.75"/></svg>