<svg xmlns="http://www.w3.org/2000/svg" fill="none" viewBox="0 0 24 24"><path fill="currentColor" d="M17.978 10a2 2 0 0 0-1.993 1.835 5 5 0 0 0-1.062.523c-.85.557-1.716 1.559-1.716 2.957 0 .502.096 1.062.383 1.603q.123.233.277.433c-.47.324-.78.835-.851 1.397q-.457.003-.961.002h-3.11c-1.367 0-2.47 0-3.337-.116-.9-.122-1.658-.38-2.26-.982s-.86-1.36-.981-2.26c-.117-.867-.117-1.97-.117-3.337v-4.11c0-1.367 0-2.47.117-3.337.12-.9.38-1.658.981-2.26.602-.602 1.36-.86 2.26-.981.867-.117 1.97-.117 3.337-.117h3.11c1.367 0 2.47 0 3.337.117.9.12 1.658.38 2.26.981.602.602.86 1.36.982 2.26.116.867.116 1.97.116 3.337v2.21a2 2 0 0 0-.772-.155" opacity=".4"/><path fill="currentColor" fill-rule="evenodd" d="M18.728 12a.75.75 0 0 0-1.5 0v.807a4.1 4.1 0 0 0-1.62.597c-.634.415-1.151 1.075-1.151 1.91 0 .346.065.695.237 1.018a2 2 0 0 0 .758.78c.618.37 1.479.508 2.526.508.973 0 1.563.131 1.89.32a.7.7 0 0 1 .285.274c.054.099.097.245.097.471 0 .321-.138.545-.488.732-.393.21-1.008.333-1.784.333-.643 0-1.206-.14-1.615-.349-.423-.215-.598-.456-.643-.61a.75.75 0 1 0-1.44.418c.203.698.772 1.207 1.402 1.529.452.23.98.389 1.546.463V22a.75.75 0 0 0 1.5 0v-.785c.631-.06 1.236-.206 1.74-.474.744-.397 1.282-1.08 1.282-2.056a2.46 2.46 0 0 0-.28-1.19 2.2 2.2 0 0 0-.85-.852c-.68-.394-1.6-.523-2.642-.523-.969 0-1.494-.138-1.757-.295a.5.5 0 0 1-.202-.196.66.66 0 0 1-.062-.314c0-.166.103-.414.472-.656.363-.238.908-.409 1.549-.409.57 0 1.067.136 1.427.336.368.205.532.438.577.607a.75.75 0 0 0 1.45-.387c-.183-.683-.701-1.2-1.299-1.531a4.2 4.2 0 0 0-1.405-.468zM6 13.25a.75.75 0 0 0 0 1.5h1a.75.75 0 0 0 0-1.5zM5.25 10A.75.75 0 0 1 6 9.25h1a.75.75 0 0 1 0 1.5H6a.75.75 0 0 1-.75-.75m0-4A.75.75 0 0 1 6 5.25h9a.75.75 0 0 1 0 1.5H6A.75.75 0 0 1 5.25 6M10 9.25a.75.75 0 0 0 0 1.5h1a.75.75 0 0 0 0-1.5zm3.25.75a.75.75 0 0 1 .75-.75h1a.75.75 0 0 1 0 1.5h-1a.75.75 0 0 1-.75-.75m-4 4a.75.75 0 0 1 .75-.75h1a.75.75 0 0 1 0 1.5h-1a.75.75 0 0 1-.75-.75" clip-rule="evenodd"/></svg>