<svg xmlns="http://www.w3.org/2000/svg" fill="none" viewBox="0 0 24 24"><path fill="currentColor" d="M22.53 1.97c.2.199.27.492.184.76l-1.686 5.225c-.061.19-.096.301-.118.386a.3.3 0 0 0 .012.176c.034.103.086.238.17.456a9.7 9.7 0 0 1 .658 3.527A9.75 9.75 0 0 1 12 22.25 9.75 9.75 0 0 1 2.908 8.973c.084-.218.136-.353.17-.456a.3.3 0 0 0 .012-.176 7 7 0 0 0-.118-.386L1.286 2.73a.75.75 0 0 1 .944-.944L7.946 3.63A9.7 9.7 0 0 1 12 2.75c1.445 0 2.818.315 4.054.88l5.716-1.844a.75.75 0 0 1 .76.184" opacity=".4"/><path fill="currentColor" fill-rule="evenodd" d="M9.45 15.9a.75.75 0 0 0-.9 1.2A5.73 5.73 0 0 0 12 18.25c1.294 0 2.49-.428 3.45-1.15a.75.75 0 1 0-.9-1.2c-.71.534-1.592.85-2.55.85s-1.84-.316-2.55-.85M6.254 9.577a.75.75 0 0 1 .68-.814 6 6 0 0 1 .947.015c.494.05 1.219.194 1.782.642.391.31.688.689.893 1 .28.425.243.925-.013 1.291a1.29 1.29 0 0 1-1.066.538c-.782 0-1.544-.728-1.259-1.633l.075-.236a3 3 0 0 0-.566-.11 4 4 0 0 0-.66-.013.75.75 0 0 1-.813-.68m11.494 0a.75.75 0 0 0-.68-.814 6 6 0 0 0-.947.015c-.494.05-1.218.194-1.782.642-.391.31-.687.689-.893 1-.28.425-.243.925.013 1.291.241.346.645.538 1.066.538.782 0 1.544-.728 1.259-1.633l-.075-.236c.17-.053.364-.09.566-.11a4 4 0 0 1 .66-.013.75.75 0 0 0 .813-.68" clip-rule="evenodd"/></svg>