<svg xmlns="http://www.w3.org/2000/svg" fill="none" viewBox="0 0 24 24"><path fill="currentColor" fill-rule="evenodd" d="M9.556 13.445c-1.41-1.41-3.692-1.663-5.086-.268a.75.75 0 0 0 0 1.06l1.257 1.257-3.76 2.718-.035.027c-.51.418-.727.98-.674 1.546.05.53.325.993.664 1.323.338.33.806.59 1.327.636a1.74 1.74 0 0 0 1.564-.709l2.656-3.799 1.295 1.295a.75.75 0 0 0 1.06 0c1.395-1.394 1.142-3.676-.268-5.086m4.888 0c1.41-1.41 3.692-1.663 5.086-.268a.75.75 0 0 1 0 1.06l-1.257 1.257 3.76 2.718.035.027c.51.418.727.98.674 1.546-.05.53-.325.993-.664 1.323-.338.33-.806.59-1.327.636a1.74 1.74 0 0 1-1.564-.709l-2.655-3.799-1.296 1.295a.75.75 0 0 1-1.06 0c-1.395-1.394-1.142-3.676.268-5.086" clip-rule="evenodd" opacity=".4"/><path fill="currentColor" fill-rule="evenodd" d="M3.543 2.543a1 1 0 0 0 0 1.414L10.585 11l-1.824 1.824a4.16 4.16 0 0 1 1.415 1.414L12 12.414l1.823 1.824a4.16 4.16 0 0 1 1.415-1.414L13.414 11l7.042-7.043a1 1 0 0 0-1.414-1.414L12 9.585 4.957 2.543a1 1 0 0 0-1.414 0" clip-rule="evenodd"/></svg>