<svg xmlns="http://www.w3.org/2000/svg" fill="none" viewBox="0 0 24 24"><path fill="currentColor" fill-rule="evenodd" d="M12 7.5a5 5 0 1 0 0 10 5 5 0 0 0 0-10m-7 5a7 7 0 1 1 14 0 7 7 0 0 1-14 0" clip-rule="evenodd"/><path fill="currentColor" fill-rule="evenodd" d="M11.628 14.933c.148-.422.268-.763.372-1.037.104.274.224.615.372 1.037l2.685 7.648a1 1 0 1 0 1.887-.662L14.26 14.27l-.024-.068c-.255-.726-.48-1.366-.709-1.817-.198-.39-.637-1.136-1.527-1.136s-1.329.745-1.527 1.136c-.23.451-.454 1.091-.708 1.817l-.024.068-2.684 7.648a1 1 0 1 0 1.887.662zM12 .75a2.75 2.75 0 1 0 0 5.5 2.75 2.75 0 0 0 0-5.5m8 5a2.75 2.75 0 1 1 0 5.5 2.75 2.75 0 0 1 0-5.5m-16 8a2.75 2.75 0 1 0 0 5.5 2.75 2.75 0 0 0 0-5.5m-2.75-5.5a2.75 2.75 0 1 1 5.5 0 2.75 2.75 0 0 1-5.5 0M20 13.75a2.75 2.75 0 1 0 0 5.5 2.75 2.75 0 0 0 0-5.5" clip-rule="evenodd" opacity=".4"/></svg>