<svg xmlns="http://www.w3.org/2000/svg" fill="none" viewBox="0 0 24 24"><path fill="currentColor" fill-rule="evenodd" d="M18.086 12.86c1.944-.514 3.412.855 3.65 2.298a1 1 0 1 1-1.973.326.92.92 0 0 0-.368-.577c-.181-.128-.439-.208-.796-.113-.292.077-.576.335-.738.758-.165.43-.133.857.007 1.118q.073.134.142.273h2.115a1 1 0 1 1 0 2h-1.529a4.5 4.5 0 0 1-.266 1.81h2.42a1 1 0 1 1 0 2h-3.405c-.111 0-.295 0-.455-.025-.19-.03-.666-.147-.9-.66-.203-.448-.045-.86-.001-.975.055-.143.139-.307.206-.438l.015-.028c.344-.67.422-1.175.387-1.595l-.009-.09h-.838a1 1 0 1 1 0-2h.097c-.178-.707-.1-1.463.146-2.106.33-.862 1.031-1.694 2.093-1.975" clip-rule="evenodd"/><path fill="currentColor" d="M10.684 22.75c-1.594 0-2.85 0-3.845-.104-1.017-.106-1.853-.327-2.568-.83a5 5 0 0 1-1.01-.952c-.545-.685-.786-1.49-.9-2.463-.111-.944-.111-2.132-.111-3.626v-2.62c0-1.46 0-2.59.06-3.504.061-.926.187-1.68.462-2.374.838-2.114 2.603-3.766 4.818-4.543 1.379-.484 3.07-.484 6.036-.484h.363c1.635 0 2.654 0 3.495.295 1.349.473 2.43 1.481 2.945 2.78.175.442.25.91.286 1.454.035.533.035 1.189.035 2.013v2.207a1 1 0 0 1-2.002.002L18.746 8c-.018-2.016-.136-3.133-.875-3.871-.878-.879-2.293-.879-5.121-.879h-.294c-.505 0-.758 0-1.097.188-.34.188-.41.302-.552.529-.247.396-.39.865-.39 1.366 0 .148.006.306.014.483l.003.066c.008.155.016.324.02.492.007.38-.005.823-.12 1.252a2.42 2.42 0 0 1-1.709 1.708c-.428.115-.871.127-1.251.12a18 18 0 0 1-.492-.02l-.066-.003a11 11 0 0 0-.483-.014c-.48 0-.931.131-1.317.36-.235.14-.352.21-.549.555-.196.345-.196.602-.196 1.118v3.3c0 2.828 0 4.243.879 5.121.878.88 2.293.88 5.121.88h2.73a1 1 0 0 1 0 1.997z" opacity=".4"/></svg>