<svg xmlns="http://www.w3.org/2000/svg" fill="none" viewBox="0 0 24 24"><path fill="currentColor" d="M13.137 1.417c-.475-.168-.98-.168-1.55-.167-1.525 0-2.933 0-3.912.115-1.012.119-1.88.372-2.615.968q-.406.328-.733.737c-.593.738-.845 1.61-.963 2.629-.114.983-.114 2.22-.114 3.754v4.573c0 1.782 0 3.218.151 4.348.157 1.173.493 2.16 1.273 2.945s1.762 1.122 2.93 1.28c1.123.151 2.694.151 4.467.151h.347l-.85-.69a10 10 0 0 1-1.147-1.11 4.5 4.5 0 0 1-.55-.792A3 3 0 0 1 9.5 18.75c0-.617.211-1.11.37-1.408.169-.315.373-.583.55-.791a10 10 0 0 1 1.148-1.111l1.662-1.35a2.25 2.25 0 0 1 3.642 2.41h3.857c.02-.737.02-1.56.02-2.474v-3.474c.002-.664.003-1.252-.221-1.796s-.64-.96-1.106-1.428l-4.783-4.807c-.403-.406-.76-.765-1.214-.984a3 3 0 0 0-.288-.12" opacity=".4"/><path fill="currentColor" fill-rule="evenodd" d="m14.639 2.523 4.783 4.808c.467.468.882.884 1.106 1.428a2.8 2.8 0 0 1 .184.747h-1.98c-1.368 0-2.017 0-2.884-.117-.9-.12-1.658-.38-2.26-.982s-.86-1.36-.981-2.26c-.117-.865-.117-1.512-.117-2.874V1.28a2.8 2.8 0 0 1 .935.259c.455.218.811.577 1.214.983m.808 13.944a1 1 0 0 0-1.394-1.434c-.105.102-.318.273-.646.53l-.072.057c-.29.228-.632.496-.959.773-.35.297-.717.631-1.004.968a3.3 3.3 0 0 0-.4.571 1.74 1.74 0 0 0-.222.818c0 .333.114.616.222.818.112.21.256.402.4.57a9 9 0 0 0 1.004.969c.327.277.67.546.96.773l.072.057c.327.257.54.428.645.53a1 1 0 0 0 1.394-1.434 11 11 0 0 0-.804-.669l-.068-.053c-.229-.18-.469-.368-.703-.561h5.878a1 1 0 1 0 0-2h-5.878c.234-.193.474-.381.703-.56l.068-.054c.292-.23.605-.476.804-.669" clip-rule="evenodd"/></svg>