<svg xmlns="http://www.w3.org/2000/svg" fill="none" viewBox="0 0 24 24"><path fill="currentColor" d="M11.587 1.25c.57 0 1.075-.001 1.55.167q.147.052.288.12c.455.219.811.578 1.214.984l4.783 4.807c.467.469.882.884 1.106 1.428s.223 1.132.222 1.796v3.474q.001.817-.005 1.54a2 2 0 0 0-.478-.1l-1.826-.144-.705-1.671c-.646-1.534-2.824-1.534-3.47 0l-.704 1.671-1.827.145c-1.662.131-2.36 2.214-1.068 3.306l1.377 1.164-.421 1.742c-.093.386-.066.75.049 1.07-1.61 0-3.03-.01-4.069-.15-1.167-.159-2.149-.496-2.93-1.28-.78-.784-1.115-1.772-1.272-2.945-.151-1.13-.151-2.566-.151-4.348V9.453c0-1.534 0-2.77.114-3.754.118-1.018.37-1.89.963-2.63q.327-.407.733-.736c.735-.596 1.603-.85 2.615-.968.98-.115 2.387-.115 3.912-.115" opacity=".4"/><path fill="currentColor" fill-rule="evenodd" d="m14.639 2.523 4.783 4.808c.467.468.882.884 1.106 1.428a2.8 2.8 0 0 1 .184.747h-1.98c-1.368 0-2.017 0-2.884-.117-.9-.12-1.658-.38-2.26-.982s-.86-1.36-.981-2.26c-.117-.865-.117-1.512-.117-2.874V1.28a2.8 2.8 0 0 1 .935.259c.455.218.811.577 1.214.983m1.944 11.613a.634.634 0 0 0-1.166 0l-1 2.373-2.584.204a.628.628 0 0 0-.36 1.106l1.966 1.662-.602 2.491c-.131.544.462.975.943.685L16 21.318l2.22 1.339c.48.29 1.074-.141.943-.684l-.602-2.492 1.965-1.662a.628.628 0 0 0-.36-1.106l-2.583-.204z" clip-rule="evenodd"/></svg>