<svg xmlns="http://www.w3.org/2000/svg" fill="none" viewBox="0 0 24 24"><path fill="currentColor" d="M6.182 2.25c-.77 0-1.425 0-1.94.07-.547.075-1.07.243-1.47.683-.403.443-.513.978-.521 1.525-.008.51.073 1.145.169 1.884l.006.054c.034.262.085.515.19.768.107.257.254.477.438.694.978 1.162 2.796 3.26 5.354 5.173a.3.3 0 0 1 .104.215c.28 3.432.539 5.78.676 6.94.066.56.38 1.05.855 1.309a1.51 1.51 0 0 0 1.616-.108c.187-.132.415-.27.688-.436l.079-.048c.296-.18.63-.385.946-.614.601-.435 1.308-1.072 1.48-1.986.08-.432.172-.994.275-1.777.044-.341.067-.512 0-.647-.067-.136-.238-.235-.58-.435a5.9 5.9 0 0 1-2.801-3.921 2.3 2.3 0 0 1 .45-1.878c.172-.219.258-.328.271-.404s-.033-.208-.125-.471a2.3 2.3 0 0 1-.064-1.292l.5-2.084a2.3 2.3 0 0 1 3.654-1.276c.267.21.4.314.482.341.08.028.215.026.483.022h.068c1.326 0 2.543.443 3.517 1.186.296.225.444.338.552.292.107-.047.125-.22.162-.566.036-.346.058-.659.053-.935-.008-.547-.118-1.082-.522-1.525-.4-.44-.922-.608-1.468-.683-.516-.07-1.17-.07-1.941-.07z" opacity=".4"/><path fill="currentColor" fill-rule="evenodd" d="M16.006 6.12a1 1 0 0 0-1.965-.353l-.5 2.085a1 1 0 0 0 1.503 1.08l.332-.208c.847-.536 1.38-.873 2.089-.873 1.39 0 2.535 1.143 2.535 2.575S18.855 13 17.465 13c-1.217 0-2.247-.875-2.484-2.056a1 1 0 0 0-1.961.393C13.438 13.42 15.26 15 17.465 15 19.98 15 22 12.942 22 10.426S19.98 5.85 17.465 5.85a4.2 4.2 0 0 0-1.459.27" clip-rule="evenodd"/></svg>