<svg xmlns="http://www.w3.org/2000/svg" fill="none" viewBox="0 0 24 24"><path fill="currentColor" fill-rule="evenodd" d="M14.753 4.2c.499 0 .983 0 1.463.02.552.01 1.014-.41 1.033-.95.019-.53-.413-.98-.965-1-.519-.02-1.035-.02-1.537-.02a.987.987 0 0 0-.997.98c.002.54.451.97 1.003.97m3.359-.89a.963.963 0 0 0 .442 1.31c.766.38 1.389.99 1.773 1.74.248.48.848.67 1.342.43a.963.963 0 0 0 .447-1.31 5.95 5.95 0 0 0-2.66-2.6 1.016 1.016 0 0 0-1.344.43m3.638 5.44c-.552 0-1 .44-1 .98v4.54c0 .54.448.98 1 .98s1-.44 1-.98V9.73c0-.54-.448-.98-1-.98m-.064 8.4a1 1 0 0 0-1.336.45 3.97 3.97 0 0 1-1.796 1.78.963.963 0 0 0-.442 1.31c.249.48.851.67 1.344.43a5.96 5.96 0 0 0 2.694-2.67.96.96 0 0 0-.464-1.3m-4.437 3.58c-.019-.54-.481-.96-1.033-.95-.48.02-.964.02-1.463.02-.552 0-1.001.43-1.003.97s.445.98.997.98c.502 0 1.018 0 1.537-.02.552-.02.984-.47.965-1" clip-rule="evenodd"/><path fill="currentColor" d="M5.494 2.456c-1.372.28-2.682.93-3.541 2.42-.378.66-.544 1.39-.625 2.27-.078.87-.078 1.95-.078 3.31v3.08c0 1.37 0 2.44.078 3.31.081.88.247 1.62.625 2.27.859 1.49 2.169 2.14 3.541 2.42 1.109.23 2.323.22 3.4.21.208 0 .41-.01.606-.01.953 0 1.85-.12 2.47-.72.626-.61.78-1.51.78-2.52V5.506c0-1.02-.154-1.92-.78-2.53-.62-.6-1.517-.72-2.47-.72-.196 0-.398 0-.606-.01-1.077-.01-2.291-.02-3.4.21" opacity=".4"/></svg>