<svg xmlns="http://www.w3.org/2000/svg" fill="none" viewBox="0 0 24 24"><path fill="currentColor" fill-rule="evenodd" d="M6.5 2.25h-.051c-.781 0-1.442 0-1.969.071-.56.075-1.079.242-1.498.661s-.586.938-.661 1.498c-.071.527-.071 1.188-.071 1.969v.102c0 .781 0 1.442.071 1.969.075.56.242 1.079.661 1.498s.938.586 1.498.661c.527.071 1.188.071 1.969.071h.102c.781 0 1.442 0 1.969-.071.56-.075 1.079-.242 1.498-.661s.586-.938.661-1.498c.071-.527.071-1.188.071-1.969v-.102c0-.781 0-1.442-.071-1.969-.075-.56-.242-1.079-.661-1.498s-.938-.586-1.498-.661c-.527-.071-1.188-.071-1.969-.071zm11 0a4.25 4.25 0 1 0 0 8.5 4.25 4.25 0 0 0 0-8.5m-11.051 11h.102c.781 0 1.442 0 1.969.071.56.075 1.079.242 1.498.661s.586.938.661 1.498c.071.527.071 1.188.071 1.969v.102c0 .781 0 1.442-.071 1.969-.075.56-.242 1.079-.661 1.498s-.938.586-1.498.661c-.527.071-1.188.071-1.969.071h-.102c-.781 0-1.442 0-1.969-.071-.56-.075-1.079-.242-1.498-.661s-.586-.938-.661-1.498c-.071-.527-.071-1.188-.071-1.969v-.102c0-.781 0-1.442.071-1.969.075-.56.242-1.079.661-1.498s.938-.586 1.498-.661c.527-.071 1.188-.071 1.969-.071m11.051 0h-.051c-.781 0-1.442 0-1.969.071-.56.075-1.079.242-1.498.661s-.586.938-.661 1.498c-.071.527-.071 1.188-.071 1.969v.102c0 .781 0 1.442.071 1.969.075.56.242 1.079.661 1.498s.938.586 1.498.661c.527.071 1.188.071 1.969.071h.102c.781 0 1.442 0 1.969-.071.56-.075 1.079-.242 1.498-.661s.586-.938.661-1.498c.071-.527.071-1.188.071-1.969v-.102c0-.781 0-1.442-.071-1.969-.075-.56-.242-1.079-.661-1.498s-.938-.586-1.498-.661c-.527-.071-1.188-.071-1.969-.071z" clip-rule="evenodd" opacity=".4"/><path fill="currentColor" fill-rule="evenodd" d="M13.368 5.5a4.3 4.3 0 0 0 0 2h-2.624q.007-.44.006-.949v-.102q.002-.509-.006-.949zm3.132 5.133a4.3 4.3 0 0 0 2 0v2.624q-.44-.007-.949-.006h-.102q-.509-.001-.949.006zm-5.75 6.918q.002.509-.006.949h2.512q-.008-.44-.006-.949v-.102q-.002-.509.006-.949h-2.512q.007.44.006.949z" clip-rule="evenodd"/></svg>