<svg xmlns="http://www.w3.org/2000/svg" fill="none" viewBox="0 0 24 24"><path fill="currentColor" d="M21.243 2.03a1 1 0 0 1 .727 1.213c-.258 1.03-.673 2.45-1.68 3.746a7.5 7.5 0 0 1-2.3 1.961q-.011.172-.038.388a8 8 0 0 1-.538 2.012c-.635 1.535-1.927 3.337-4.487 4.677-1.256 2.796-3.602 5.705-7.865 5.971a1 1 0 0 1-.124-1.996c2.307-.144 3.914-1.29 5.043-2.833C8.105 17.69 5.81 18 3 18a1 1 0 1 1 0-2c3.821 0 6.5-.606 8.374-1.443.48-1.236.761-2.46.922-3.41q.052-.306.088-.568c-.64.149-1.229.31-1.78.523-1.2.46-2.097 1.12-2.71 2.345a1 1 0 1 1-1.788-.894c.887-1.775 2.233-2.724 3.78-3.318 1.106-.425 2.385-.688 3.66-.95q.623-.126 1.237-.26c2.039-.454 3.205-1.335 3.928-2.264.742-.954 1.077-2.034 1.319-3.003a1 1 0 0 1 1.212-.728" opacity=".4"/><path fill="currentColor" fill-rule="evenodd" d="M14.5 3a2 2 0 1 0 0 4 2 2 0 0 0 0-4M5.062 21.999c4.263-.267 6.61-3.175 7.865-5.972-.858.422-2.321.938-2.946 1.143-1.13 1.543-2.736 2.688-5.043 2.833a1 1 0 0 0 .124 1.996" clip-rule="evenodd"/></svg>