<svg xmlns="http://www.w3.org/2000/svg" fill="none" viewBox="0 0 24 24"><path fill="currentColor" fill-rule="evenodd" d="M18.75 11.75a1 1 0 0 1 1 1v5.878c.193-.234.381-.474.56-.703l.054-.068c.23-.292.476-.605.669-.804a1 1 0 0 1 1.434 1.394c-.102.105-.273.318-.53.646l-.057.072c-.227.29-.496.632-.773.959-.297.35-.631.717-.968 1.004a3.3 3.3 0 0 1-.571.4 1.74 1.74 0 0 1-.818.222c-.333 0-.616-.114-.818-.222a3.3 3.3 0 0 1-.57-.4 9 9 0 0 1-.969-1.004c-.277-.327-.546-.67-.773-.96l-.057-.072c-.257-.327-.428-.54-.53-.645a1 1 0 0 1 1.434-1.394c.193.199.44.512.669.804l.053.068c.18.229.368.469.561.703V12.75a1 1 0 0 1 1-1" clip-rule="evenodd"/><path fill="currentColor" d="M9.463 2.489c-.64-.24-1.35-.24-2.38-.239-.88 0-1.761 0-2.333.05-.59.053-1.106.162-1.577.425a3.75 3.75 0 0 0-1.448 1.448c-.263.471-.373.987-.425 1.577-.05.572-.05 1.28-.05 2.16v3.147c0 2.309 0 4.118.19 5.53.194 1.444.6 2.584 1.494 3.479.895.895 2.035 1.3 3.48 1.494 1.411.19 3.22.19 5.529.19h1.35c1.1 0 2.048 0 2.87-.029-.267-.262-.513-.54-.723-.789l-1.35-1.662a2.25 2.25 0 0 1 2.41-3.642V12.75a2.25 2.25 0 0 1 4.5 0v2.878a2.26 2.26 0 0 1 1.697.08c.053-.94.053-2.063.053-3.416 0-1.019 0-1.923-.067-2.582-.07-.681-.216-1.271-.565-1.793a3.8 3.8 0 0 0-1.035-1.035c-.522-.349-1.112-.496-1.792-.565-.66-.067-1.482-.067-2.5-.067h-3.555c-.316 0-.496 0-.63-.015a.26.26 0 0 1-.193-.12 21 21 0 0 1-.47-.909c-.473-.955-1.085-2.194-2.48-2.717" opacity=".4"/></svg>