<svg xmlns="http://www.w3.org/2000/svg" fill="none" viewBox="0 0 24 24"><path fill="currentColor" fill-rule="evenodd" d="M17.875 11.375a1 1 0 0 1 1 1v.399c.74.17 1.41.525 1.951 1.015l.508-.327a1 1 0 1 1 1.082 1.683l-.464.298a4.1 4.1 0 0 1 0 2.864l.463.298a1 1 0 0 1-1.081 1.683l-.508-.327c-.541.49-1.21.845-1.95 1.015v.399a1 1 0 1 1-2 0v-.399a4.4 4.4 0 0 1-1.952-1.015l-.508.327a1 1 0 1 1-1.081-1.683l.464-.298a4.1 4.1 0 0 1 0-2.864l-.465-.298a1 1 0 0 1 1.082-1.683l.508.327a4.4 4.4 0 0 1 1.951-1.015v-.399a1 1 0 0 1 1-1m0 3.286c-.825 0-1.538.404-1.952 1a2.12 2.12 0 0 0 0 2.428c.414.596 1.127 1 1.952 1s1.539-.404 1.952-1a2.12 2.12 0 0 0 0-2.428 2.36 2.36 0 0 0-1.952-1" clip-rule="evenodd"/><path fill="currentColor" d="M6.958 1.625c1.029 0 1.74 0 2.38.239 1.395.523 2.007 1.762 2.48 2.717.14.283.398.797.47.91a.26.26 0 0 0 .193.12c.134.013.314.014.63.014h3.555c1.018 0 1.84 0 2.5.067.68.07 1.27.216 1.792.565.41.274.761.625 1.035 1.035.349.522.496 1.112.565 1.793.05.486.062 1.243.066 2.016.001.342.002.513-.084.601-.085.088-.297.093-.72.102a2.5 2.5 0 0 0-.621.092c-.16.045-.24.067-.297.061s-.123-.04-.253-.11l-.125-.064c-.122-.06-.183-.091-.22-.13-.036-.04-.066-.11-.125-.25a2.5 2.5 0 0 0-4.608 0c-.06.14-.089.21-.125.25-.037.039-.098.07-.22.13q-.063.03-.124.064c-.131.07-.197.104-.254.11-.058.006-.137-.016-.296-.06a2.501 2.501 0 0 0-2.65 3.943c.1.13.15.194.167.248.016.055.01.128-.004.275a5.6 5.6 0 0 0 0 1.025c.014.147.02.221.003.277s-.067.119-.168.244c-.45.557-.701 1.294-.498 2.08.155.603.233.904.142 1.02-.09.117-.336.116-.828.115-1.76-.006-3.29-.036-4.427-.189-1.445-.194-2.585-.6-3.48-1.494-.895-.895-1.3-2.035-1.494-3.48-.19-1.411-.19-3.22-.19-5.529V7.285c0-.88 0-1.588.05-2.16.052-.59.162-1.106.425-1.577A3.75 3.75 0 0 1 3.048 2.1c.47-.263.987-.373 1.577-.424.572-.05 1.454-.051 2.333-.051" opacity=".4"/></svg>