<svg xmlns="http://www.w3.org/2000/svg" fill="none" viewBox="0 0 24 24"><path fill="currentColor" d="M18.274 1.253c.722-.03 1.444.138 1.972.666l1.704 1.703c.55.55.78 1.285.799 2.055.019.765-.167 1.609-.498 2.469-.663 1.722-1.958 3.646-3.708 5.397-1.75 1.75-3.675 3.046-5.397 3.708-.86.33-1.704.517-2.469.498-.77-.02-1.505-.25-2.054-.799l-1.704-1.703c-.528-.528-.696-1.25-.666-1.973.03-.72.258-1.522.62-2.343.724-1.646 2.052-3.521 3.794-5.264 1.742-1.742 3.618-3.07 5.264-3.794.82-.362 1.622-.59 2.343-.62" opacity=".5"/><path fill="currentColor" fill-rule="evenodd" d="M17.603 4.412c.055-.463 0-1.015-.385-1.43.43-.143.806-.217 1.12-.23.468-.02.717.097.848.228.13.131.247.38.227.848-.02.47-.176 1.082-.493 1.802-.632 1.437-1.837 3.163-3.482 4.808s-3.37 2.85-4.808 3.482c-.72.317-1.331.474-1.802.494-.469.02-.718-.097-.848-.228-.131-.13-.248-.38-.228-.849.013-.313.087-.69.23-1.118.415.385.967.44 1.43.385.488-.058 1.022-.25 1.556-.517 1.077-.538 2.316-1.463 3.486-2.633s2.094-2.409 2.632-3.485c.268-.535.46-1.068.517-1.557M5.53 16.47a.75.75 0 0 1 0 1.06l-3 3a.75.75 0 0 1-1.06-1.06l3-3a.75.75 0 0 1 1.06 0m2 2a.75.75 0 0 1 0 1.06l-3 3a.75.75 0 0 1-1.06-1.06l3-3a.75.75 0 0 1 1.06 0" clip-rule="evenodd"/></svg>