<svg xmlns="http://www.w3.org/2000/svg" fill="none" viewBox="0 0 24 24"><path fill="currentColor" d="M10.2 3.75c.855 0 1.408 0 1.947.127s1.033.374 1.798.757l2.004 1.002c1.045.523 1.881.94 2.527 1.351.667.425 1.186.875 1.565 1.488s.549 1.278.63 2.065c.079.76.079 1.695.079 2.864v2.65c0 1.369 0 2.47-.116 3.338-.122.9-.38 1.658-.982 2.26s-1.36.86-2.26.982c-.867.116-1.97.116-3.337.116h-4.11c-1.367 0-2.47 0-3.337-.116-.9-.122-1.658-.38-2.26-.982s-.86-1.36-.981-2.26c-.117-.867-.117-1.97-.117-3.337V8.448c0-.898 0-1.648.08-2.242.084-.628.27-1.195.725-1.65.456-.456 1.023-.642 1.65-.726.595-.08 1.345-.08 2.243-.08z" opacity=".4"/><path fill="currentColor" fill-rule="evenodd" d="M6.853 1.275c.245-.025.541-.025.864-.025h.066c.323 0 .619 0 .864.025.267.027.555.09.825.27.191.128.355.292.483.483.18.27.243.558.27.825.025.245.025.541.025.864v.033h-1.5c0-.367 0-.585-.017-.746a.6.6 0 0 0-.027-.145.3.3 0 0 0-.065-.065.6.6 0 0 0-.145-.027 8 8 0 0 0-.746-.017c-.367 0-.585 0-.746.017a.6.6 0 0 0-.145.027.3.3 0 0 0-.065.065.6.6 0 0 0-.027.145c-.016.16-.017.38-.017.746v.009a10 10 0 0 0-1.044.07 4 4 0 0 0-.456.085v-.197c0-.323 0-.619.025-.864.027-.267.09-.555.27-.825a1.8 1.8 0 0 1 .483-.483c.27-.18.558-.243.825-.27m4.976 6.39a.75.75 0 0 1 1.007-.336l4 2a.75.75 0 0 1-.671 1.342l-4-2a.75.75 0 0 1-.336-1.006m-.342 4.788a.75.75 0 0 1 1.026 0l.005.005c.063.062.239.234.335.335.199.206.465.497.733.832.266.333.546.724.763 1.131.21.394.401.875.401 1.369 0 1.495-1.277 2.625-2.75 2.625s-2.75-1.13-2.75-2.625c0-.494.19-.975.4-1.369a7.6 7.6 0 0 1 .764-1.13 13 13 0 0 1 .732-.833c.097-.1.272-.273.336-.335z" clip-rule="evenodd"/></svg>