<svg xmlns="http://www.w3.org/2000/svg" fill="none" viewBox="0 0 24 24"><path fill="currentColor" d="M1.25 12C1.25 6.063 6.063 1.25 12 1.25S22.75 6.063 22.75 12 17.937 22.75 12 22.75 1.25 17.937 1.25 12" opacity=".4"/><path fill="currentColor" d="M13.075 6.892c.422-.296.884-.392 1.332-.392.637 0 1.147.256 1.503.654.322.36.473.784.554 1.08a1 1 0 0 1-1.928.532 1.3 1.3 0 0 0-.07-.2c-.057-.16-.184-.091-.241-.037-.02.014-.106.085-.237.35-.108.22-.216.503-.333.871h.752a1 1 0 1 1 0 2h-1.309l-.13.5c-.438 1.702-.766 2.951-1.16 3.754-.209.422-.48.82-.883 1.104-.422.296-.883.392-1.331.392-.638 0-1.148-.256-1.504-.654-.321-.36-.472-.784-.554-1.08a1 1 0 1 1 1.928-.532q.035.125.07.2c.042.059.147.148.242.037.02-.014.106-.085.237-.35.281-.572.556-1.573 1.019-3.37l-.49-.001a1 1 0 0 1 0-2h1.024c.209-.723.408-1.308.627-1.754.208-.422.48-.82.882-1.104"/></svg>