<svg xmlns="http://www.w3.org/2000/svg" fill="none" viewBox="0 0 24 24"><path fill="currentColor" d="M4.593 7.842C5.65 6.724 7.021 5.94 8.38 6.37c.868.275 1.293.956 1.57 1.423.246.414.413.697.602.853a.3.3 0 0 0 .094.059c.044.018.076.02.14.024.173.011.431.024.683.024h1.064c.252 0 .51-.013.682-.024a.4.4 0 0 0 .141-.024.3.3 0 0 0 .094-.059c.189-.156.356-.439.602-.853.277-.467.702-1.148 1.57-1.423 1.358-.429 2.73.355 3.786 1.473 1.093 1.159 2.06 2.877 2.68 4.871s.801 3.96.56 5.54c-.232 1.524-.913 2.953-2.268 3.381-.993.314-2.003-.03-2.856-.647-.567-.41-1.108-.967-1.604-1.632-.18-.241-.27-.362-.235-.462s.204-.146.543-.238a2.751 2.751 0 1 0-3.468-2.423c.022.26.033.39-.027.455-.059.065-.175.065-.407.065h-.65c-.232 0-.348 0-.408-.065-.059-.064-.048-.194-.026-.455q.009-.113.009-.23a2.75 2.75 0 1 0-3.477 2.653c.339.092.508.139.543.238.034.1-.056.22-.235.462-.496.665-1.037 1.223-1.604 1.632-.854.617-1.863.961-2.856.647-1.355-.428-2.036-1.857-2.268-3.381-.241-1.58-.06-3.545.56-5.54.62-1.994 1.586-3.712 2.68-4.87" opacity=".4"/><path fill="currentColor" fill-rule="evenodd" d="M12 2.25a1 1 0 0 1 1 1v5.49a10 10 0 0 1-.468.012h-1.064c-.162 0-.326-.005-.468-.012V3.25a1 1 0 0 1 1-1m-3.5 12.5a1.25 1.25 0 1 0 0 2.5 1.25 1.25 0 0 0 0-2.5M14.25 16a1.25 1.25 0 1 1 2.5 0 1.25 1.25 0 0 1-2.5 0" clip-rule="evenodd"/></svg>