<svg xmlns="http://www.w3.org/2000/svg" fill="none" viewBox="0 0 24 24"><path fill="currentColor" fill-rule="evenodd" d="M2.48 2.429a.735.735 0 0 0-1.05.09c-.27.32-.23.79.09 1.05 2.33 1.96 6.19 3.18 10.48 3.18s8.15-1.22 10.48-3.18c.32-.26.36-.73.09-1.05a.735.735 0 0 0-1.05-.09c-1.99 1.66-5.47 2.82-9.52 2.82s-7.53-1.16-9.52-2.82m0 10a.735.735 0 0 0-1.05.09c-.27.32-.23.79.09 1.05 2.33 1.96 6.19 3.18 10.48 3.18s8.15-1.22 10.48-3.18c.32-.26.36-.73.09-1.05a.735.735 0 0 0-1.05-.09c-1.99 1.66-5.47 2.82-9.52 2.82s-7.53-1.16-9.52-2.82" clip-rule="evenodd"/><path fill="currentColor" fill-rule="evenodd" d="m1.28 9.28 1.45-4.83c1.48.9 3.35 1.58 5.42 1.96l-1.44 4.33a.74.74 0 0 1-.59.5.74.74 0 0 1-.72-.29L4.24 9.41l-1.96.79a.757.757 0 0 1-1-.92M9.25 11V6.58a22.4 22.4 0 0 0 5.5 0V11c0 .28-.16.54-.41.67-.26.13-.56.1-.79-.07L12 10.44l-1.55 1.16c-.23.17-.53.2-.79.07a.76.76 0 0 1-.41-.67m6.59-4.59 1.45 4.33c.08.26.31.46.59.5.27.04.55-.07.72-.29l1.15-1.54 1.97.79c.27.1.57.05.78-.15.22-.19.3-.49.22-.77l-1.46-4.83c-1.48.9-3.34 1.58-5.42 1.96M1.28 19.28l1.45-4.83c1.48.9 3.35 1.58 5.42 1.96l-1.44 4.33a.74.74 0 0 1-.59.5.74.74 0 0 1-.72-.29l-1.16-1.54-1.96.79a.757.757 0 0 1-1-.92m7.97-2.7V21c0 .28.16.54.41.67.26.13.56.1.79-.07L12 20.44l1.55 1.16c.23.17.53.2.79.07a.76.76 0 0 0 .41-.67v-4.42a22.4 22.4 0 0 1-5.5 0m8.04 4.16-1.45-4.33c2.08-.38 3.94-1.06 5.42-1.96l1.46 4.83c.08.28 0 .58-.22.77-.21.2-.51.25-.78.15l-1.97-.79-1.15 1.54c-.17.22-.45.34-.72.29a.73.73 0 0 1-.59-.5" clip-rule="evenodd" opacity=".4"/></svg>