<svg xmlns="http://www.w3.org/2000/svg" fill="none" viewBox="0 0 24 24"><path fill="currentColor" fill-rule="evenodd" d="M9.524 1.819c-.441-.32-.943-.45-1.496-.51H3.97c-.554.06-1.055.19-1.497.51a3 3 0 0 0-.657.657c-.32.442-.45.943-.51 1.497V8.03c.06.553.19 1.055.51 1.496.183.252.405.474.657.658.442.32.943.45 1.497.51h4.057c.553-.06 1.055-.19 1.496-.51a3 3 0 0 0 .658-.658c.32-.441.45-.943.51-1.496V3.973c-.06-.554-.19-1.055-.51-1.497a3 3 0 0 0-.658-.657M17.5 13.25a4.75 4.75 0 1 0 0 9.5 4.75 4.75 0 0 0 0-9.5" clip-rule="evenodd"/><path fill="currentColor" fill-rule="evenodd" d="M18.462 1.42a2.8 2.8 0 0 0-1.924 0c-.53.193-.93.588-1.293 1.055L12.679 6.55c-.29.58-.492 1.16-.411 1.762.094.695.443 1.33.98 1.78.466.39 1.065.529 1.71.593h5.084c.645-.064 1.244-.203 1.71-.593.537-.45.886-1.085.98-1.78.081-.602-.122-1.183-.411-1.762l-2.566-4.076c-.364-.467-.763-.862-1.293-1.055M3.207 13.793a1 1 0 0 0-1.414 1.414L4.586 18l-2.793 2.793a1 1 0 1 0 1.414 1.414L6 19.414l2.793 2.793a1 1 0 0 0 1.414-1.414L7.414 18l2.793-2.793a1 1 0 1 0-1.414-1.414L6 16.586z" clip-rule="evenodd" opacity=".4"/></svg>