<svg xmlns="http://www.w3.org/2000/svg" fill="none" viewBox="0 0 24 24"><path fill="currentColor" fill-rule="evenodd" d="M6 7a1 1 0 0 0-2 0v10a1 1 0 1 0 2 0zm11.9 9.156c.086-.644.098-1.49.1-2.658h2c-.001 1.157-.013 2.139-.119 2.925-.125.928-.396 1.747-1.053 2.403s-1.475.928-2.403 1.053c-.884.119-2 .119-3.354.119H7a1 1 0 1 1 0-2h6c1.443 0 2.424-.003 3.159-.101.706-.095 1.033-.263 1.255-.485.223-.223.39-.55.485-1.256" clip-rule="evenodd" opacity=".4"/><path fill="currentColor" fill-rule="evenodd" d="M5 2.25a2.75 2.75 0 1 0 0 5.5 2.75 2.75 0 0 0 0-5.5M20.588 13.5h-3.176c-.176 0-.392 0-.568-.022h-.004c-.126-.016-.702-.088-.976-.653-.275-.567.027-1.067.092-1.176l.34-.468c.294-.376.7-.89 1.08-1.281.19-.195.407-.397.638-.556.205-.14.555-.344.986-.344s.78.203.986.344c.231.16.448.36.638.556.38.39.786.905 1.08 1.281l.34.468c.065.109.367.609.092 1.176-.274.565-.85.637-.976.653h-.004c-.176.022-.392.022-.568.022M16.25 5a2.75 2.75 0 1 1 5.5 0 2.75 2.75 0 0 1-5.5 0M5 16.25a2.75 2.75 0 1 0 0 5.5 2.75 2.75 0 0 0 0-5.5" clip-rule="evenodd"/></svg>