<svg xmlns="http://www.w3.org/2000/svg" fill="none" viewBox="0 0 24 24"><path fill="currentColor" fill-rule="evenodd" d="M7.843 3.338a1.92 1.92 0 0 0-2.132.253c-.263.223-.423.51-.535.738-.112.23-.232.524-.366.853l-3.486 8.566a1 1 0 0 0 1.852.754l3.475-8.536c.15-.369.243-.597.322-.758l.003-.006c.104.136.237.33.447.64a1 1 0 1 0 1.655-1.123l-.019-.028a14 14 0 0 0-.528-.746c-.155-.197-.375-.447-.688-.607m9.184 1.87-.002-.006c-.105.136-.238.33-.447.64a1 1 0 0 1-1.655-1.123l.018-.028c.196-.288.371-.547.528-.746.155-.197.375-.447.688-.607a1.92 1.92 0 0 1 2.132.253c.263.223.423.51.535.738.112.23.232.524.366.853l3.486 8.566a1 1 0 0 1-1.852.754L17.35 5.966c-.15-.369-.244-.597-.323-.758M12 15.375a.75.75 0 0 0-.75.75h-1.5a2.25 2.25 0 0 1 4.5 0h-1.5a.75.75 0 0 0-.75-.75" clip-rule="evenodd" opacity=".4"/><path fill="currentColor" fill-rule="evenodd" d="M22.661 13.771a.75.75 0 0 0-.661-.396h-5.525c-.445 0-.816 0-1.12.02a2.8 2.8 0 0 0-.907.19 2.75 2.75 0 0 0-1.489 1.488c-.12.29-.167.59-.188.907-.021.304-.021.675-.021 1.12v.05c0 .445 0 .816.02 1.12.022.317.069.617.19.907a2.75 2.75 0 0 0 1.488 1.489c.29.12.59.167.907.188.304.021.675.021 1.12.021h1.108c.649 0 1.19 0 1.63-.043.458-.046.885-.144 1.273-.393a2.8 2.8 0 0 0 .828-.828c.249-.388.347-.815.393-1.274.043-.439.043-.98.043-1.629v-.037c0-.468.004-.593.029-.706q.02-.099.058-.191c.042-.108.108-.214.367-.603l.42-.63a.75.75 0 0 0 .037-.77m-13.109-.187c-.29-.12-.59-.167-.907-.188-.304-.021-.675-.021-1.12-.021H2a.75.75 0 0 0-.624 1.166l.42.63c.26.39.325.495.367.603q.037.093.059.191c.024.113.028.238.028.706v.037c0 .649 0 1.19.043 1.63.046.458.144.885.393 1.273.214.332.496.614.828.828.388.249.815.347 1.274.393.439.043.98.043 1.629.043h1.108c.445 0 .816 0 1.12-.02.317-.022.617-.069.907-.19a2.75 2.75 0 0 0 1.489-1.488c.12-.29.167-.59.188-.907.021-.304.021-.675.021-1.12v-.05c0-.445 0-.816-.02-1.12a2.8 2.8 0 0 0-.19-.907 2.75 2.75 0 0 0-1.488-1.489" clip-rule="evenodd"/></svg>