<svg xmlns="http://www.w3.org/2000/svg" fill="none" viewBox="0 0 24 24"><path fill="currentColor" fill-rule="evenodd" d="M12 1.25q-.935.001-1.828.155a.75.75 0 0 0-.55.418c-.338.712-.46 1.523-.307 2.268.156.758.605 1.461 1.398 1.846.315.153.442.308.511.437.084.154.14.446.187.757.085.596.215 1.506 1.22 2.157.68.44 1.53.598 2.432.333.884-.26 1.756-.908 2.568-1.96.607-.784 1.472-1.106 2.24-1.196a.75.75 0 0 0 .495-1.217A10.73 10.73 0 0 0 12 1.25m-9.468 9.218a.75.75 0 0 0-1.233.5q-.048.51-.049 1.032c0 4.532 2.804 8.407 6.77 9.989a.75.75 0 0 0 .79-.148c.702-.655.97-1.392.982-2.114.013-.677-.201-1.304-.356-1.745-.267-.765-.368-1.066-.42-1.416-.056-.366-.058-.795-.058-1.814 0-.99-.11-1.953-.86-2.568-.36-.295-.804-.454-1.287-.544s-1.056-.122-1.722-.122c-.993 0-1.877-.47-2.557-1.05" clip-rule="evenodd" opacity=".4"/><path fill="currentColor" fill-rule="evenodd" d="M3.205 12a8.797 8.797 0 0 0 7.82 8.742c.536.06.975.491.975 1.03 0 .54-.439.983-.976.934C5.544 22.213 1.25 17.608 1.25 12 1.25 6.063 6.063 1.25 12 1.25c5.608 0 10.213 4.294 10.706 9.774.049.537-.393.976-.933.976s-.972-.44-1.031-.976A8.797 8.797 0 0 0 3.205 12m14.071.75a4.527 4.527 0 1 0 2.413 8.357l1.355 1.351a1 1 0 0 0 1.412-1.416l-1.352-1.348a4.527 4.527 0 0 0-3.828-6.944m-2.526 4.526a2.527 2.527 0 1 1 5.053 0 2.527 2.527 0 0 1-5.053 0" clip-rule="evenodd"/></svg>