<svg xmlns="http://www.w3.org/2000/svg" fill="none" viewBox="0 0 24 24"><path fill="currentColor" d="M15.54 1.915c-.097-.213-.146-.32-.103-.368.043-.049.145-.017.35.046a7.76 7.76 0 0 1 5.463 7.411c0 .14-.115.25-.254.25H20c-.973 0-1.577.417-1.991.702l-.034.024c-.401.276-.542.347-.828.29-1.265-.253-2.279-.29-3.003.045a1.8 1.8 0 0 0-.874.84c-.175.352-.228.738-.228 1.102 0 .638-.006.825-.043.974-.034.135-.097.256-.376.736-.193.333-.393.776-.371 1.274.024.542.303 1.002.771 1.356a.081.081 0 0 1-.057.144A7.753 7.753 0 0 1 5.75 9.004c0-1.377.359-2.67.988-3.791.121-.216.182-.324.299-.393.117-.068.252-.068.52-.068h.919c.315.022.474.127 1.053.739 1.216 1.285 2.62 1.548 3.694.98.388-.205.65-.475.81-.8.127-.256.174-.527.2-.678l.009-.047c.031-.173.05-.213.064-.235.005-.007.046-.07.242-.148.63-.25 1.034-.746 1.16-1.338.096-.452.02-.903-.167-1.31" opacity=".4"/><path fill="currentColor" fill-rule="evenodd" d="M7.197 2.717a1 1 0 1 0-1.394-1.434 10.85 10.85 0 0 0-3.303 7.8c0 5.357 3.885 9.804 9 10.737V21h-1a1 1 0 1 0 0 2h4a1 1 0 1 0 0-2h-1v-1a11 11 0 0 0 7.697-3.118 1 1 0 1 0-1.394-1.434A9 9 0 0 1 13.5 18c-4.978 0-9-4-9-8.917a8.85 8.85 0 0 1 2.697-6.366m6.262-1.202.663.915c.124.195.144.375.12.487-.02.091-.073.187-.246.255-.414.165-.729.397-.94.715-.199.301-.256.613-.29.795-.039.217-.05.274-.077.328v.001c-.009.017-.033.067-.166.138-.326.172-1.02.249-1.904-.685-.572-.604-1.094-1.15-2.074-1.207-.085-.005-.124-.105-.06-.16a7.7 7.7 0 0 1 4.471-1.823c.15-.01.224-.016.294.017s.117.096.209.224m1.857 15.004c-.072-.016-.13-.064-.245-.16l-1.1-.922-.034-.027a.6.6 0 0 1-.166-.165.13.13 0 0 1-.02-.066c-.003-.065.025-.203.17-.453l.038-.065c.223-.384.405-.695.496-1.062.088-.353.088-.739.087-1.25v-.087c0-.232.036-.363.072-.435.027-.055.065-.1.16-.145.254-.117.845-.183 2.08.064.937.187 1.543-.23 1.958-.516l.014-.01c.401-.276.675-.46 1.175-.46h.297c.353 0 .53 0 .62.125s.036.283-.07.6a7.77 7.77 0 0 1-5.254 4.992c-.137.038-.205.058-.278.042" clip-rule="evenodd"/></svg>