<svg xmlns="http://www.w3.org/2000/svg" fill="none" viewBox="0 0 24 24"><path fill="currentColor" fill-rule="evenodd" d="M1.5 12.075v-.15c0-2.175 0-3.91.183-5.27.189-1.405.589-2.558 1.501-3.47.913-.913 2.066-1.313 3.47-1.502C8.015 1.5 9.75 1.5 11.927 1.5h.148c2.176 0 3.911 0 5.271.183 1.405.189 2.559.589 3.47 1.501.913.913 1.313 2.066 1.502 3.47.183 1.36.183 3.096.183 5.272v.148c0 2.176 0 3.911-.183 5.271-.189 1.405-.589 2.559-1.501 3.47-.912.913-2.066 1.313-3.47 1.502-1.36.183-3.096.183-5.271.183h-.15c-2.175 0-3.91 0-5.27-.183-1.405-.189-2.558-.589-3.47-1.501s-1.313-2.066-1.502-3.47C1.5 15.985 1.5 14.25 1.5 12.074m2.165 5.004c.159 1.182.455 1.844.933 2.323.48.479 1.14.774 2.323.933 1.212.163 2.812.165 5.079.165s3.867-.002 5.079-.165c1.182-.159 1.844-.454 2.323-.933s.774-1.14.933-2.323q.066-.493.1-1.079H3.565q.034.587.1 1.079M3.506 14h16.988q.008-.902.006-2 .002-1.098-.006-2H3.506q-.007.902-.006 2-.002 1.098.006 2m16.829-7.079q.066.493.1 1.079H3.565q.034-.587.1-1.079c.159-1.182.455-1.844.933-2.323.48-.478 1.14-.774 2.323-.933C8.133 3.502 9.733 3.5 12 3.5s3.867.002 5.079.165c1.182.159 1.844.454 2.323.933s.774 1.14.933 2.323" clip-rule="evenodd"/><path fill="currentColor" fill-rule="evenodd" d="M17 21.5v-19h-2v19zm-8 0v-19H7v19z" clip-rule="evenodd" opacity=".4"/></svg>