<svg xmlns="http://www.w3.org/2000/svg" fill="none" viewBox="0 0 24 24"><path fill="currentColor" fill-rule="evenodd" d="M11.532 15.87c1.033-1.463 2.079-2.654 3.493-3.495C16.43 11.54 18.282 11 21.001 11a1 1 0 1 0 0-2c-2.996 0-5.22.598-6.998 1.656-1.768 1.051-3.008 2.507-4.105 4.061a1 1 0 0 0 1.634 1.154m-2.638 2.578a1 1 0 0 0-1.788-.896l-.021.038a3.6 3.6 0 0 1-.542.703C6.152 18.684 5.64 19 5 19a1 1 0 1 0 0 2c1.359 0 2.348-.684 2.957-1.293a5.6 5.6 0 0 0 .688-.84c.063-.092.192-.318.25-.42" clip-rule="evenodd" opacity=".4"/><path fill="currentColor" fill-rule="evenodd" d="M11.953 10.182c.971-1.83 2.252-3.376 3.842-4.287 1.558-.893 3.493-1.224 5.918-.498a1 1 0 1 0 .574-1.916c-2.924-.875-5.429-.5-7.486.678-2.025 1.16-3.535 3.052-4.614 5.085-1.138 2.144-2.332 3.396-3.636 4.203-1.322.818-2.837 1.23-4.727 1.569a1 1 0 1 0 .352 1.968c.976-.174 1.917-.377 2.82-.663 1.03.272 1.929.92 2.82 1.564l.094.068c.511.369 1.08.775 1.641.97.296.103.632.164.986.11.364-.056.689-.223.97-.482a1 1 0 0 0 .08-.086c.533-.675.61-1.392.417-2.064-.173-.607-.563-1.165-.898-1.621q-.112-.153-.219-.293c-.276-.369-.514-.687-.69-1.012a2 2 0 0 1-.175-.409c.685-.793 1.325-1.743 1.931-2.884" clip-rule="evenodd"/></svg>