<svg xmlns="http://www.w3.org/2000/svg" fill="none" viewBox="0 0 24 24"><path fill="currentColor" d="M10.949 11.317a1 1 0 0 0-1.898-.633c-.305.915-.327 1.69-.127 2.445.168.635.493 1.227.795 1.78.324.469.327.948.211 1.213-.05.117-.112.283-.166.432-.021.043-.086.192-.158.36-.11.255-.24.552-.262.586h-.997c-.21 0-.52-.218-.528-.645l-.01-.54c-.012-.882-.027-1.868-.163-2.786-.167-1.125-.534-2.307-1.43-3.226a1 1 0 0 0-1.433 1.395c.477.49.747 1.192.885 2.125.115.773.127 1.596.14 2.472l.011.602c.026 1.217.89 2.395 2.176 2.579q-.004.164-.014.29c-.017.22-.045.293-.059.322-.107.227-.335.447-.674.57h-.001c-.01.003-.07.019-.209.035q-.215.025-.543.04c-.437.017-.957.017-1.495.017a1 1 0 1 0 0 2h.013c.523 0 1.082 0 1.565-.02.437-.018.973-.055 1.352-.192.78-.283 1.443-.841 1.8-1.594.16-.339.219-.683.245-1.022q.017-.222.021-.486c.346-.106.6-.325.764-.505a3.4 3.4 0 0 0 .521-.807c.126-.261.402-.986.482-1.201.434-.994.219-2.044-.21-2.83-.35-.642-.593-1.085-.696-1.476-.09-.339-.103-.715.092-1.3" opacity=".4"/><path fill="currentColor" fill-rule="evenodd" d="M2.25 7.003c0-3.656 3.188-6.513 6.639-5.572.608.166 3.299 1.115 3.962 1.354.755.25 1.479.454 2.15.574.193.034.29.05.353.108.063.056.09.146.143.325l.553 1.857a4.7 4.7 0 0 1 0 2.71l-.552 1.855c-.053.18-.08.269-.144.325-.063.057-.16.074-.353.108-.67.12-1.394.324-2.15.574-.663.239-3.354 1.188-3.962 1.354-3.451.941-6.639-1.916-6.639-5.572m14.757-3.61c.038-.097.153-.165.382-.303l.14-.085c.314-.198.74-.468 1.217-.598a1.6 1.6 0 0 1 1.31.186c.345.216.585.535.753.824.288.493.52 1.24.631 1.603a6.54 6.54 0 0 1 0 3.962c-.112.363-.343 1.11-.63 1.603-.17.288-.41.607-.754.824a1.6 1.6 0 0 1-1.31.186c-.478-.13-.903-.4-1.217-.599l-.14-.085c-.229-.137-.344-.206-.381-.301-.037-.096-.002-.214.068-.45l.41-1.375c.35-1.176.35-2.39 0-3.566l-.41-1.376c-.07-.237-.106-.355-.069-.45" clip-rule="evenodd"/></svg>