<svg xmlns="http://www.w3.org/2000/svg" fill="none" viewBox="0 0 24 24"><path fill="currentColor" d="M12.53 1.25h-1.06c-1.724 0-3.1 0-4.178.154-1.117.16-2.024.497-2.735 1.254-.706.75-1.016 1.694-1.163 2.859-.144 1.136-.144 2.59-.144 4.43v4.107c0 1.84 0 3.293.144 4.43.147 1.164.457 2.109 1.163 2.858.711.757 1.618 1.095 2.735 1.254 1.079.154 2.454.154 4.178.154h1.06c1.724 0 3.1 0 4.178-.154 1.117-.16 2.024-.497 2.736-1.253.705-.75 1.015-1.695 1.162-2.86.144-1.136.144-2.59.144-4.43V9.948c0-1.84 0-3.294-.144-4.43-.147-1.165-.457-2.11-1.163-2.86-.711-.756-1.619-1.093-2.735-1.253-1.079-.154-2.454-.154-4.178-.154" opacity=".4"/><path fill="currentColor" fill-rule="evenodd" d="M16.5 9.5a4.5 4.5 0 0 1-6.483 4.04c-.198-.097-.296-.145-.313-.246s.066-.185.23-.35l2.773-2.772a1 1 0 0 0-1.414-1.414l-2.76 2.76c-.167.167-.25.25-.353.233-.102-.018-.15-.118-.245-.319A4.5 4.5 0 1 1 16.5 9.5M10 18.25a.75.75 0 0 0 0 1.5h4a.75.75 0 0 0 0-1.5z" clip-rule="evenodd"/></svg>