<svg xmlns="http://www.w3.org/2000/svg" fill="none" viewBox="0 0 24 24"><path fill="currentColor" fill-rule="evenodd" d="M2.707 1.293a1 1 0 0 0-1.414 1.414l2.714 2.715A9.74 9.74 0 0 0 2.25 11.02v2.977A4.75 4.75 0 0 0 7 18.747a2.75 2.75 0 0 0 2.75-2.75v-4c0-.365-.071-.715-.201-1.034l4.701 4.701v.333a2.75 2.75 0 0 0 2.75 2.75q.163 0 .322-.01l1.399 1.398q-.294.24-.645.4c-.235.105-.543.178-1.074.217-.541.04-1.233.04-2.227.04H12a.976.976 0 0 0-.975.978c0 .54.436.977.975.977h2.812c.948 0 1.712 0 2.333-.045.638-.047 1.202-.147 1.73-.385a4.9 4.9 0 0 0 1.23-.797l1.188 1.187a1 1 0 0 0 1.414-1.414zm5.327 8.155-2.62-2.62a7.8 7.8 0 0 0-.897 1.979c-.148.504-.222.755-.09.882.133.126.427.024 1.015-.18A4.7 4.7 0 0 1 7 9.247c.366 0 .715.072 1.034.201" clip-rule="evenodd"/><path fill="currentColor" d="M19.484 8.81c-.952-3.24-3.942-5.605-7.483-5.605-1.22 0-2.374.28-3.402.78-.418.204-.926.151-1.255-.177-.442-.443-.375-1.181.18-1.47a9.7 9.7 0 0 1 4.477-1.088c5.385 0 9.75 4.375 9.75 9.773v4.773q0 .557-.003 1.032c-.004.549-.007.823-.19.899-.185.076-.383-.121-.779-.515l-6.025-5.996c-.143-.143-.215-.214-.227-.317s.033-.179.125-.329a2.75 2.75 0 0 1 2.35-1.32c.545 0 1.07.092 1.557.261.588.205.883.307 1.015.18.132-.126.058-.378-.09-.882" opacity=".4"/></svg>