<svg xmlns="http://www.w3.org/2000/svg" fill="none" viewBox="0 0 24 24"><path fill="currentColor" fill-rule="evenodd" d="M16 13a3 3 0 1 1 6 0v.214c0 .911-.386 1.78-1.063 2.389l-2.605 2.344-.059.053h2.728a1 1 0 1 1 0 2h-4a1 1 0 0 1-1-1v-.4c-.002-.34-.004-.771.173-1.168.177-.398.499-.685.752-.91l.068-.061 2.605-2.345c.256-.23.402-.558.402-.902V13a1 1 0 1 0-2 0v.4a1 1 0 1 1-2 0z" clip-rule="evenodd" opacity=".4"/><path fill="currentColor" fill-rule="evenodd" d="M3 4a1 1 0 0 1 1 1v6h8V5a1 1 0 1 1 2 0v14a1 1 0 1 1-2 0v-6H4v6a1 1 0 1 1-2 0V5a1 1 0 0 1 1-1" clip-rule="evenodd"/></svg>