<svg xmlns="http://www.w3.org/2000/svg" fill="none" viewBox="0 0 24 24"><path fill="currentColor" fill-rule="evenodd" d="M10 1.25c-1.021 0-1.84.264-2.313 1.006-.408.64-.437 1.489-.437 2.244s.029 1.604.437 2.244C8.16 7.486 8.979 7.75 10 7.75h4c1.021 0 1.84-.264 2.313-1.006.408-.64.437-1.489.437-2.244s-.029-1.604-.437-2.244C15.84 1.514 15.021 1.25 14 1.25zm-6.045 16h1.09c.433 0 .829 0 1.152.043.356.048.731.161 1.04.47s.422.684.47 1.04c.043.323.043.719.043 1.152v.09c0 .433 0 .829-.043 1.152-.048.356-.161.731-.47 1.04s-.684.422-1.04.47c-.323.043-.719.043-1.152.043h-1.09c-.433 0-.829 0-1.152-.043-.356-.048-.731-.161-1.04-.47s-.422-.684-.47-1.04c-.043-.323-.043-.719-.043-1.152v-.09c0-.433 0-.829.043-1.152.048-.356.161-.731.47-1.04s.684-.422 1.04-.47c.323-.043.719-.043 1.152-.043m15 0h1.09c.433 0 .829 0 1.152.043.356.048.731.161 1.04.47s.422.684.47 1.04c.043.323.043.719.043 1.152v.09c0 .433 0 .829-.043 1.152-.048.356-.161.731-.47 1.04s-.684.422-1.04.47c-.323.043-.719.043-1.152.043h-1.09c-.433 0-.829 0-1.152-.043-.356-.048-.731-.161-1.04-.47s-.422-.684-.47-1.04c-.043-.323-.043-.719-.043-1.152v-.09c0-.433 0-.829.043-1.152.048-.356.161-.731.47-1.04s.684-.422 1.04-.47c.323-.043.719-.043 1.152-.043m-6.955-7a3.25 3.25 0 1 0 0 6.5 3.25 3.25 0 0 0 0-6.5" clip-rule="evenodd" opacity=".4"/><path fill="currentColor" fill-rule="evenodd" d="M11 7.75h2v2.657a3.24 3.24 0 0 0-2 0zM8.907 12.5H8.25c-1.516 0-2.89.138-3.768 1.075-.444.473-.681 1.063-.812 1.702-.117.569-.161 1.23-.169 1.975q.218-.002.454-.002h1.089q.237 0 .457.002c.008-.68.049-1.187.128-1.571.087-.422.205-.625.312-.738.22-.235.722-.443 2.309-.443h.656a3.27 3.27 0 0 1 0-2m6.844 2h-.657a3.24 3.24 0 0 0 0-2h.657c1.516 0 2.889.138 3.768 1.075.443.473.68 1.063.812 1.702.117.569.16 1.23.168 1.975q-.218-.002-.454-.002h-1.09q-.236 0-.456.002c-.007-.68-.048-1.187-.127-1.571-.087-.422-.206-.625-.312-.738-.221-.235-.723-.443-2.31-.443" clip-rule="evenodd"/></svg>