<svg xmlns="http://www.w3.org/2000/svg" fill="none" viewBox="0 0 24 24"><path fill="currentColor" fill-rule="evenodd" d="M10.286 1.25c-1.165 0-2.056.32-2.562 1.15-.438.72-.474 1.69-.474 2.6s.036 1.88.474 2.6c.506.83 1.397 1.15 2.562 1.15h3.428c1.165 0 2.056-.32 2.562-1.15.438-.72.474-1.69.474-2.6s-.036-1.88-.474-2.6c-.506-.83-1.397-1.15-2.562-1.15zm-5.335 14h.098c.665 0 1.238 0 1.697.06.491.07.963.22 1.345.6s.531.85.597 1.34c.062.46.062 1.04.062 1.7v.1c0 .66 0 1.24-.062 1.7-.066.49-.215.96-.597 1.34s-.854.53-1.345.6c-.459.06-1.032.06-1.697.06h-.098c-.665 0-1.238 0-1.697-.06-.491-.07-.963-.22-1.345-.6s-.531-.85-.597-1.34c-.062-.46-.062-1.04-.062-1.7v-.1c0-.66 0-1.24.062-1.7.066-.49.215-.96.597-1.34s.854-.53 1.345-.6c.459-.06 1.032-.06 1.697-.06m14 0h.098c.665 0 1.238 0 1.697.06.491.07.963.22 1.345.6s.531.85.597 1.34c.062.46.062 1.04.062 1.7v.1c0 .66 0 1.24-.062 1.7-.066.49-.215.96-.597 1.34s-.854.53-1.345.6c-.459.06-1.032.06-1.697.06h-.098c-.665 0-1.238 0-1.697-.06-.491-.07-.963-.22-1.345-.6s-.531-.85-.597-1.34c-.062-.46-.062-1.04-.062-1.7v-.1c0-.66 0-1.24.062-1.7.066-.49.215-.96.597-1.34s.854-.53 1.345-.6c.459-.06 1.032-.06 1.697-.06" clip-rule="evenodd" opacity=".4"/><path fill="currentColor" d="M11 8.75V11H8.935c-.887 0-1.651 0-2.262.08-.656.09-1.284.29-1.794.8s-.708 1.14-.796 1.79c-.061.45-.077.99-.081 1.59.29-.01.607-.01.949-.01h.099c.343 0 .661 0 .952.01.004-.57.018-.99.063-1.32.058-.44.152-.57.228-.65.076-.07.212-.17.646-.23.463-.06 1.09-.06 2.06-.06h6c.973 0 1.6 0 2.063.06.434.06.569.16.646.23.076.08.17.21.228.65.045.33.059.75.063 1.32.29-.01.609-.01.952-.01h.099c.342 0 .659 0 .949.01-.004-.6-.02-1.14-.081-1.59-.088-.65-.287-1.28-.796-1.79s-1.138-.71-1.794-.8c-.611-.08-1.375-.08-2.262-.08H13V8.75z"/></svg>