<svg xmlns="http://www.w3.org/2000/svg" fill="none" viewBox="0 0 24 24"><path fill="currentColor" d="m8.12 9.46-.04.05c-.73.73-.93 1.77-1.02 2.54-.07.55-.31 1.34-1.02 2.24-.53.69-.59 1.75.11 2.45l2.11 2.11c.7.7 1.76.64 2.45.1.9-.7 1.69-.94 2.24-1.01.77-.09 1.81-.29 2.54-1.02l.04-.04c-.21-.13-.41-.28-.59-.47l-6.35-6.35c-.19-.18-.34-.38-.47-.6" opacity=".4"/><path fill="currentColor" fill-rule="evenodd" d="M14.271 2.97a.8.8 0 0 0-.53-.22c-.2 0-.39.08-.54.22l-3.73 3.74a1.75 1.75 0 0 0 0 2.47l6.35 6.35c.68.68 1.79.68 2.48 0l3.73-3.74c.29-.29.29-.76 0-1.06zM1.961 19.98l2.85-2.93q.18.3.45.57l2.12 2.12c.17.17.36.32.55.44l-.91.86c-.14.14-.33.21-.52.21h-4c-.3 0-.57-.18-.69-.46s-.06-.6.15-.81" clip-rule="evenodd"/></svg>