<svg xmlns="http://www.w3.org/2000/svg" fill="none" viewBox="0 0 24 24"><path fill="currentColor" fill-rule="evenodd" d="M17.571 3.25a3.32 3.32 0 0 0-3.321 3.321V14c0 .964-.002 1.612-.066 2.095-.063.461-.17.659-.3.789s-.328.237-.79.3c-.482.064-1.13.066-2.094.066H8a.75.75 0 0 0-.397 1.386l3.634 2.272c.15.094.28.219.378.366l.761 1.142a.75.75 0 0 0 .806.312l8-2a.75.75 0 0 0 .489-1.063 17 17 0 0 0-.612-1.082c-.199-.33-.461-.768-.642-1.1-.411-.755-.667-1.408-.667-1.955 0-.38.023-.861.044-1.298.022-.459.044-.949.04-1.439-.006-.972-.114-2.028-.585-2.971-.31-.62-.499-1.173-.499-1.764V4.429a1.18 1.18 0 0 0-1.179-1.179M6.655 6.426h-3.31a1.088 1.088 0 1 1 0-2.176h3.31a1.088 1.088 0 0 1 0 2.176m-3.317.932h4.324a1.088 1.088 0 1 1 0 2.176H3.338a1.088 1.088 0 0 1 0-2.176m3.324 3.108H3.338a1.088 1.088 0 1 0 0 2.176h3.324a1.088 1.088 0 0 0 0-2.176m-.507 3.108h-2.81a1.088 1.088 0 0 0 0 2.176h2.81a1.088 1.088 0 1 0 0-2.176" clip-rule="evenodd" opacity=".4"/><path fill="currentColor" fill-rule="evenodd" d="M9.946 1.25h.108c1.132 0 2.058 0 2.789.098.764.103 1.426.325 1.955.854s.751 1.19.854 1.955c.098.73.098 1.656.098 2.79v6.107c0 1.133 0 2.058-.098 2.79-.103.763-.325 1.425-.854 1.954s-1.191.751-1.955.854c-.73.098-1.657.098-2.79.098h-.107c-1.133 0-2.058 0-2.79-.098-.763-.103-1.425-.325-1.954-.854-.547-.546-.768-1.24-.866-2.048H5.85c.082.524.218.794.411.987.204.204.497.348 1.095.428.619.083 1.443.085 2.643.085s2.024-.002 2.643-.085c.598-.08.89-.224 1.094-.428s.348-.496.428-1.094c.083-.619.085-1.443.085-2.643V7c0-1.2-.002-2.024-.085-2.643-.08-.598-.224-.89-.428-1.094s-.496-.348-1.094-.428C12.024 2.752 11.2 2.75 10 2.75s-2.024.002-2.643.085c-.598.08-.891.224-1.095.428-.193.193-.33.463-.411.987H4.336c.098-.809.32-1.502.866-2.048.529-.529 1.19-.751 1.955-.854.73-.098 1.656-.098 2.79-.098M9.996 14A1 1 0 0 0 9 15c0 .552.446 1 .996 1h.008c.55 0 .996-.448.996-1s-.446-1-.995-1z" clip-rule="evenodd"/></svg>