<svg xmlns="http://www.w3.org/2000/svg" fill="none" viewBox="0 0 24 24"><path fill="currentColor" d="M6.98 9.477a.75.75 0 1 0-1.16-.954l-.385.47c-.956 1.16-1.555 1.888-1.87 2.761-.315.875-.315 1.81-.315 3.297v3.337c0 1.053 0 1.921.095 2.608.1.723.317 1.355.835 1.858.515.5 1.156.709 1.89.804.702.092 1.59.092 2.678.092h2.504c1.087 0 1.976 0 2.679-.092.733-.096 1.374-.303 1.889-.804.518-.503.735-1.135.835-1.858.095-.686.095-1.555.095-2.608V15.05c0-1.487 0-2.422-.315-3.297-.315-.873-.914-1.6-1.87-2.762l-.386-.469a.75.75 0 0 0-1.158.954l.296.36c1.075 1.306 1.49 1.827 1.707 2.427.132.365.187.752.21 1.38.01.282.015.422-.073.514-.089.092-.233.092-.52.092H9.35c-.283 0-.424 0-.512.088s-.088.23-.088.512V18a.75.75 0 0 1-1.5 0v-3.15c0-.283 0-.424-.088-.512s-.23-.088-.512-.088H5.36c-.288 0-.432 0-.52-.092-.09-.091-.084-.232-.074-.514.023-.628.078-1.015.21-1.38.216-.6.632-1.12 1.707-2.427z" opacity=".4"/><path fill="currentColor" fill-rule="evenodd" d="M10.25 1a.75.75 0 0 0-1.5 0v5a.75.75 0 0 0 1.5 0zM8.198 2a.75.75 0 0 0-1.5 0v.75H6a.75.75 0 0 0 0 1.5h.698V5a.75.75 0 1 0 1.5 0zm4.052 0a.75.75 0 0 0-1.5 0v3a.75.75 0 1 0 1.5 0v-.75H20a.75.75 0 0 0 0-1.5h-7.75zM4 8.25a.75.75 0 0 0 0 1.5h12a.75.75 0 0 0 0-1.5z" clip-rule="evenodd"/></svg>