<svg xmlns="http://www.w3.org/2000/svg" fill="none" viewBox="0 0 24 24"><path fill="currentColor" fill-rule="evenodd" d="M2.5 2a1 1 0 0 0 0 2h19a1 1 0 1 0 0-2zm10.72 7.25-.62-1.24h.01c-.33-.67-.87-.67-1.21 0l-.62 1.24c-.08.17-.31.34-.49.37l-1.12.19c-.72.12-.88.64-.37 1.16l.87.88c.15.15.23.43.18.64l-.25 1.08c-.19.85.26 1.19 1.01.74l1.05-.62c.19-.11.5-.11.69 0l1.05.62c.75.45 1.21.12 1.01-.74l-.25-1.08c-.05-.21.03-.49.18-.64l.87-.88c.51-.52.34-1.04-.37-1.16l-1.12-.19a.76.76 0 0 1-.5-.37" clip-rule="evenodd"/><path fill="currentColor" d="M3.75 3c0-.41.34-.75.75-.75h15c.41 0 .75.34.75.75v11c0 1.19-.1 2.13-.56 2.94s-1.21 1.38-2.23 1.99l-3.01 1.81c-.47.28-.91.55-1.26.71-.38.18-.75.3-1.18.3s-.8-.12-1.18-.3c-.35-.17-.76-.41-1.23-.69l-3.04-1.83c-1.02-.61-1.77-1.18-2.23-1.99s-.56-1.75-.56-2.94V3z" opacity=".4"/></svg>