<svg xmlns="http://www.w3.org/2000/svg" fill="none" viewBox="0 0 24 24"><path fill="currentColor" d="M18.441 5.914c1.299.565 2.486 1.86 3.21 2.83.506.677.867 1.16 1.033 1.99.167.833-.013 1.543-.268 2.544l-.028.112-1.3 5.131a1.57 1.57 0 0 1-.626.928c-.305.21-.651.286-.966.298a3 3 0 0 1-.748-.077c-.009.335-.05.692-.213 1.027-.2.413-.531.692-.936.91-1.46.783-3.568 1.141-5.6 1.141-2.03 0-4.14-.358-5.6-1.142-.404-.217-.735-.496-.935-.909-.187-.385-.215-.8-.215-1.177v-.003a2.4 2.4 0 0 1-.64.166 1.6 1.6 0 0 1-1.053-.227 1.53 1.53 0 0 1-.646-.935l-1.328-5.243c-.254-1.001-.434-1.711-.267-2.544.166-.83.526-1.313 1.033-1.99.724-.97 1.911-2.265 3.21-2.83.224-.098.464-.203.849-.195.387.008.682.152.946.282l4.254 2.069q.28.132.392.174.112-.042.393-.174L16.645 6c.265-.129.56-.273.947-.28.384-.009.625.096.85.194" opacity=".4"/><path fill="currentColor" fill-rule="evenodd" d="M7.304 4.806c2.423-2.741 6.969-2.741 9.392 0 .292.331.433.497.51.633a.3.3 0 0 1 .041.097.3.3 0 0 1-.003.092l-.001.006c-.006.033-.01.06-.111.135-.155.114-.398.234-.855.451l-2.231 1.064.578-.868a.75.75 0 1 0-1.248-.832L12 7.648l-1.376-2.064a.75.75 0 1 0-1.248.832l.578.868L7.722 6.22c-.456-.217-.7-.337-.854-.451-.1-.075-.105-.102-.11-.135l-.002-.006a.3.3 0 0 1-.003-.092.3.3 0 0 1 .04-.097c.077-.136.219-.302.511-.633m10.516-.993C14.8.396 9.2.396 6.18 3.813l-.035.04c-.242.273-.492.557-.656.846a1.7 1.7 0 0 0-.21 1.19c.087.49.35.828.696 1.085.286.212.666.393 1.051.576l.051.024 3.883 1.85.072.035c.275.132.604.291.968.291s.693-.159.967-.29l.073-.036 3.883-1.85.05-.024c.386-.183.766-.364 1.052-.576.346-.257.609-.595.696-1.084a1.7 1.7 0 0 0-.21-1.191c-.164-.29-.414-.573-.656-.846zM10.75 17a.75.75 0 0 0-1.5 0c0 .568-.239.928-.78 1.47a.75.75 0 1 0 1.06 1.06c.62-.62 1.22-1.349 1.22-2.53m4 0a.75.75 0 0 0-1.5 0c0 1.181.6 1.91 1.22 2.53a.75.75 0 1 0 1.06-1.06c-.541-.542-.78-.902-.78-1.47" clip-rule="evenodd"/></svg>