<svg xmlns="http://www.w3.org/2000/svg" fill="none" viewBox="0 0 24 24"><path fill="currentColor" d="M3.25 8.933c0-4.34 4.022-7.683 8.75-7.683s8.75 3.343 8.75 7.683c0 2.809-1.529 5.258-3.306 6.973a12.5 12.5 0 0 1-2.807 2.054c-.915.48-1.848.79-2.637.79s-1.722-.31-2.637-.79a12.5 12.5 0 0 1-2.807-2.054C4.78 14.191 3.25 11.742 3.25 8.933" opacity=".4"/><path fill="currentColor" fill-rule="evenodd" d="M12.89 17.25c.967-1.387 2.11-4.558 2.11-8.317C15 5.104 13.657 2 12 2S9 5.104 9 8.933c0 3.758 1.143 6.93 2.11 8.317h-.194c-.38 0-.71 0-.998.077a2.25 2.25 0 0 0-1.591 1.59c-.078.29-.077.618-.077 1v.167c0 .38 0 .71.077.999a2.25 2.25 0 0 0 1.59 1.59c.29.078.618.078 1 .077h2.167c.38 0 .71 0 .999-.077a2.25 2.25 0 0 0 1.59-1.59c.078-.29.078-.618.077-.999v-.168c0-.38 0-.71-.077-.998a2.25 2.25 0 0 0-1.59-1.591c-.29-.078-.618-.077-.999-.077z" clip-rule="evenodd"/></svg>