<svg xmlns="http://www.w3.org/2000/svg" fill="none" viewBox="0 0 24 24"><path fill="currentColor" fill-rule="evenodd" d="M17.762 5.824c.903-.97 2.298-.778 2.823.214.323.611.267 1.35-.11 1.835-.612.786-1.158 1.31-1.647 1.78-.25.239-.484.464-.706.703a.966.966 0 0 0 .058 1.371.98.98 0 0 0 1.38-.056c.109-.117.271-.274.47-.467.523-.505 1.297-1.252 1.991-2.145.89-1.144.937-2.708.294-3.924-1.254-2.37-4.322-2.42-5.988-.63q-.45.482-.93.951a.966.966 0 0 0-.015 1.373.98.98 0 0 0 1.382.014q.515-.503.998-1.02m-11.74 7.785a.97.97 0 0 0 .585-1.243.98.98 0 0 0-1.252-.582q-.61.22-1.214.403c-2.29.691-3.64 3.505-2.45 5.755.648 1.223 1.98 2.04 3.443 1.75a24 24 0 0 0 2.198-.548.97.97 0 0 0 .654-1.21.98.98 0 0 0-1.218-.649q-1.023.305-2.017.503c-.464.092-1.01-.145-1.33-.749-.587-1.11.104-2.637 1.288-2.995q.654-.196 1.313-.435m7.802-6.252c-.009 0-.122.016-.38-.11-.327-.163-.704-.27-1.108-.218-.42.053-.74.26-.966.487a2.7 2.7 0 0 0-.46.657 9 9 0 0 0-.233.5c-.078.177-.17.377-.23.479-.025.045-.074.02-.095.003-.452-.22-1.058-.377-1.64-.06-.518.282-.721.795-.81 1.052a6 6 0 0 0-.129.435c-.057.204-.146.472-.183.58a1 1 0 0 0 1.436 1.392c.336-.342.486-.779.567-1.048.037-.123.095-.341.122-.446.274.107.563.17.863.16.413-.015.76-.167 1.036-.387.458-.367.708-.935.846-1.248.066-.149.169-.382.223-.486.532.237 1.133.35 1.72.172a1 1 0 0 0-.578-1.914" clip-rule="evenodd" opacity=".4"/><path fill="currentColor" fill-rule="evenodd" d="M8.463 5.382a31 31 0 0 0 3.493-2.308c1.033-.789 2.443-1.033 3.626-.639.338.113.508.17.543.337.037.167-.126.317-.45.617a5 5 0 0 0-.264.264q-.428.459-.888.906c-.195.19-.349.408-.459.641-.189.399-.283.598-.371.645s-.287.015-.682-.048a2.89 2.89 0 0 0-2.529.832 3.9 3.9 0 0 0-.683.962.15.15 0 0 1-.142.078 2.7 2.7 0 0 0-1.544.322c-.96.522-1.29 1.443-1.393 1.74a7 7 0 0 0-.154.516c-.018.063-.027.095-.038.118a.28.28 0 0 1-.271.171c-.026 0-.08-.01-.189-.028a2.2 2.2 0 0 0-1.138.1q-.58.21-1.152.381a5 5 0 0 0-.69.266c-.352.167-.528.25-.664.17-.137-.078-.149-.234-.173-.545-.119-1.544.942-3.065 2.437-3.669a31 31 0 0 0 3.775-1.83m12.865 6.46c-1.112-1.897-3.722-2.028-5.372-.768a31 31 0 0 1-3.493 2.308 31 31 0 0 1-3.775 1.83c-1.93.778-3.135 3.085-2.016 4.996a3.145 3.145 0 0 0 3.761 1.36 32.3 32.3 0 0 0 5.369-2.448 32 32 0 0 0 4.834-3.36 3.074 3.074 0 0 0 .692-3.917" clip-rule="evenodd"/></svg>