<svg xmlns="http://www.w3.org/2000/svg" fill="none" viewBox="0 0 24 24"><path fill="currentColor" fill-rule="evenodd" d="M12 5a9 9 0 0 0-9 9c0 2.028.67 3.896 1.8 5.4a1 1 0 0 1-1.6 1.202A10.96 10.96 0 0 1 1 14C1 7.925 5.925 3 12 3s11 4.925 11 11a10.96 10.96 0 0 1-2.2 6.602 1 1 0 0 1-1.6-1.202A8.96 8.96 0 0 0 21 14a9 9 0 0 0-9-9" clip-rule="evenodd"/><path fill="currentColor" fill-rule="evenodd" d="M7 14a5 5 0 1 1 8.727 3.333 1 1 0 0 0 1.49 1.334 7 7 0 1 0-10.435 0 1 1 0 1 0 1.49-1.334A4.98 4.98 0 0 1 7 14m5-2.75a2.75 2.75 0 1 0 0 5.5 2.75 2.75 0 0 0 0-5.5" clip-rule="evenodd" opacity=".4"/></svg>