<svg xmlns="http://www.w3.org/2000/svg" fill="none" viewBox="0 0 24 24"><path fill="currentColor" fill-rule="evenodd" d="M4.213 10.532a3.4 3.4 0 0 1-.713-.18v4.6c0 .89 0 1.65.082 2.26.088.66.287 1.29.796 1.8.698.7 1.632.82 2.58.86a.99.99 0 0 0 1.041-.96 1.005 1.005 0 0 0-.957-1.04c-.924-.03-1.139-.16-1.248-.27-.077-.08-.171-.22-.23-.65-.062-.46-.064-1.09-.064-2.07v-4.26c-.49-.01-.922-.03-1.287-.09m15.574 0c-.365.06-.797.08-1.287.09v4.26c0 .98-.002 1.61-.064 2.07-.06.43-.153.57-.23.65-.11.11-.324.24-1.248.27-.551.03-.98.49-.957 1.04.023.56.489.99 1.04.96.949-.04 1.883-.16 2.58-.86.51-.51.709-1.14.797-1.8.082-.61.082-1.37.082-2.26v-4.6c-.227.09-.468.14-.713.18" clip-rule="evenodd" opacity=".4"/><path fill="currentColor" fill-rule="evenodd" d="M8.68 1.133h-.543c-.592 0-1.095 0-1.51.04-.442.05-.85.15-1.232.41-.38.25-.637.59-.856.97-.196.353-.525 1.117-.76 1.664l-.034.076-.015.034c-.153.357-.227.53-.14.666.088.13.294.13.706.13h4.011c.252 0 .38 0 .464-.07.085-.08.1-.199.132-.446v-.004l.352-2.82c.038-.29.034-.47-.043-.57-.088-.08-.236-.08-.532-.08m4.965 11.978c.422.36.474.99.118 1.41l-1.991 2.35h1.289c.245 0 .516 0 .736.03.203.03.719.11 1.024.61.345.55.107 1.09-.006 1.3-.106.19-.269.4-.401.57l-2.67 3.14c-.358.42-.989.47-1.41.12-.42-.36-.471-.99-.113-1.41l2.002-2.36h-1.286c-.244.01-.516.01-.736-.02-.203-.03-.718-.11-1.023-.61-.345-.55-.108-1.09.006-1.3.103-.184.26-.388.39-.556l.01-.014 2.652-3.14a1 1 0 0 1 1.409-.12M2.377 7.705c.057-.22.134-.45.226-.7l.003-.009c.066-.174.1-.262.175-.311.078-.06.177-.06.374-.06h4.816c.317 0 .475 0 .564.11.09.1.07.26.03.57l-.358 2.81c-.036.25-.054.37-.14.44-.083.08-.207.08-.454.08H6.61c-.966 0-1.777 0-2.397-.1-.65-.1-1.275-.32-1.666-.93-.388-.6-.34-1.27-.17-1.9m7.917 2.93h3.372c.306 0 .467-.01.556-.11.085-.1.068-.25.032-.56l-.35-2.81-.001-.004c-.032-.247-.047-.366-.132-.446s-.212-.08-.464-.08h-2.616c-.252 0-.379 0-.464.08s-.1.199-.131.446v.004l-.355 2.83c-.04.28-.06.42.004.51.086.08.271.14.55.14m1.086-9.502h1.242c.252 0 .378 0 .464.07.085.08.1.2.131.45l.35 2.8v.006c.039.316.057.465-.032.564-.09.1-.248.1-.565.1h-1.942c-.317 0-.475 0-.564-.1-.09-.1-.07-.26-.03-.57l.351-2.8.001-.006c.032-.246.048-.375.132-.444.085-.07.21-.07.462-.07m4.995 9.502h1.014c.966 0 1.777 0 2.397-.1.65-.1 1.275-.32 1.666-.93.388-.6.34-1.27.17-1.9a7 7 0 0 0-.227-.7L21.394 7c-.066-.177-.1-.265-.176-.315-.078-.06-.177-.06-.374-.06h-4.816c-.317 0-.475 0-.564.11-.09.1-.07.26-.03.57l.31 2.49.035.3c.03.26.044.38.13.46.085.08.212.08.466.08m3.846-6.418.032.076.012.028c.155.36.23.535.145.672-.09.13-.296.13-.707.13H15.69c-.252 0-.378 0-.464-.07-.085-.08-.1-.2-.13-.45l-.35-2.8v-.007c-.039-.315-.057-.464.031-.563.09-.1.248-.1.565-.1.591 0 1.613 0 2.029.04.442.05.85.15 1.232.41.379.25.636.59.855.97.197.353.526 1.116.762 1.664" clip-rule="evenodd"/></svg>