<svg xmlns="http://www.w3.org/2000/svg" fill="none" viewBox="0 0 24 24"><path fill="currentColor" d="M10.627 8.25c.86 0 1.898.583 2.493 1.54.639 1.029.759 2.445-.123 4.07-.562 1.037-.375 1.685-.09 2.052.333.426.928.649 1.43.591.56-.063.895-.276 1.067-.719.208-.535.241-1.558-.33-3.397-.455-1.47-.443-2.58.125-3.322.566-.738 1.463-.815 1.973-.815.46 0 .852 0 1.133.013.25.012.569.035.827.16a1.705 1.705 0 0 1 .709 2.45c-.15.236-.4.42-.602.558a4.49 4.49 0 0 1 1.296 4.73l-1.096 3.416c-.198.615-.365 1.137-.552 1.548-.2.439-.45.82-.853 1.11-.4.29-.843.41-1.325.464-.453.051-1.007.051-1.664.051h-6.09c-.656 0-1.21 0-1.664-.051-.48-.055-.924-.174-1.325-.463-.402-.29-.653-.672-.852-1.11-.187-.412-.355-.934-.552-1.549l-1.097-3.416a4.49 4.49 0 0 1 1.296-4.73c-.201-.138-.451-.322-.601-.558-.55-.87-.21-2.008.708-2.45.26-.125.578-.148.827-.16.282-.013.654-.013 1.114-.013z" opacity=".4"/><path fill="currentColor" d="M12 1.25c1 0 2 .645 2 1.524 0 .277-.319.797-.42 1.041h2.387c.74 0 1.44.322 2.009.735.575.42 1.078.98 1.425 1.569a.75.75 0 0 1-.646 1.131H5.246A.75.75 0 0 1 4.6 6.119c.348-.589.85-1.15 1.426-1.569.568-.413 1.27-.735 2.008-.735h2.387c-.1-.244-.421-.764-.421-1.041 0-.879 1.001-1.524 2-1.524"/></svg>