<svg xmlns="http://www.w3.org/2000/svg" fill="none" viewBox="0 0 24 24"><path fill="currentColor" d="M11.126 6.251h-2.78c-1.46 0-2.63 0-3.55.12-.95.12-1.75.39-2.38 1-.63.62-.91 1.4-1.04 2.34-.12.89-.12 2.04-.12 3.46v1.66c0 1.42 0 2.57.12 3.46.13.94.41 1.72 1.04 2.34.63.61 1.43.88 2.38 1 .92.12 2.09.12 3.55.12h3.31c1.46 0 2.63 0 3.55-.12.95-.12 1.75-.39 2.38-1 .63-.62.91-1.4 1.04-2.34.12-.89.12-2.04.12-3.46v-1.66c0-1.42 0-2.57-.12-3.46-.05-.38-.13-.72-.24-1.05-.35.99-1.41 1.56-2.44 1.26l-3.5-1a1.996 1.996 0 0 1-1.39-2.41z" opacity=".4"/><path fill="currentColor" fill-rule="evenodd" d="M14.176 2.271c.4.1.65.51.55.91l-.44 1.75a5.75 5.75 0 0 1 7.31 8.52.75.75 0 0 1-1.2-.9c.53-.71.85-1.59.85-2.55 0-2.35-1.9-4.25-4.25-4.25-.97 0-1.87.33-2.58.87l2.29.66c.4.11.63.53.51.93-.11.39-.53.62-.93.51l-3.5-1a.744.744 0 0 1-.52-.9l1-4c.1-.4.51-.65.91-.55m-6.69 8.22a1.005 1.005 0 0 1 0 2.01 1.005 1.005 0 0 1 0-2.01m-4.03 9.06c-.3-.29-.5-.7-.6-1.46h.01c-.02-.13-.04-.27-.05-.41l2.57-2.62c.17-.17.42-.27.68-.27.25 0 .48.08.65.24l1.71 1.54 3.68-3.33c.17-.15.4-.24.65-.24.26 0 .5.1.68.27l3.79 3.74q-.03.615-.09 1.08c-.11.76-.3 1.17-.6 1.46-.31.3-.74.49-1.53.59-.81.11-1.88.11-3.41.11h-3.2c-1.53 0-2.6 0-3.41-.11-.8-.1-1.23-.29-1.53-.59" clip-rule="evenodd"/></svg>