<svg xmlns="http://www.w3.org/2000/svg" fill="none" viewBox="0 0 24 24"><path fill="currentColor" d="M21.876 2.624c-.585-.469-1.377-.413-2.096-.281-.762.14-1.765.436-3.02.808l-.048.014c-3.073.91-6.35.91-9.424 0l-.047-.014c-1.256-.372-2.26-.669-3.021-.808-.719-.132-1.511-.188-2.096.281-.55.441-.719 1.143-.795 1.836-.079.712-.079 1.663-.079 2.844v9.393c0 1.18 0 2.131.079 2.843.076.694.246 1.395.795 1.836.585.47 1.377.413 2.096.282l.114-.022a.6.6 0 0 0 .177-.05.6.6 0 0 0 .14-.13l1.805-1.973q.375-.396.766-.814c1.737-1.856 3.685-3.936 5.905-5.199 1.299-.738 2.724-1.22 4.292-1.22 1.57 0 3.225.482 4.978 1.578l.006.004a.226.226 0 0 0 .347-.191V7.304c0-1.181 0-2.132-.079-2.844-.076-.693-.246-1.395-.795-1.836" opacity=".4"/><path fill="currentColor" fill-rule="evenodd" d="M7.5 6.5a2 2 0 1 0 0 4 2 2 0 0 0 0-4m15.211 9.351c.037.068.037.148.037.31v.536c0 1.18 0 2.131-.079 2.843-.076.694-.246 1.395-.795 1.836-.585.47-1.377.413-2.096.282-.762-.14-1.765-.437-3.02-.809l-.048-.014a16.77 16.77 0 0 0-9.031-.11.7.7 0 0 1-.139.031.1.1 0 0 1-.083-.137.6.6 0 0 1 .09-.108q.391-.413.784-.833c1.757-1.873 3.53-3.763 5.536-4.904 1.131-.643 2.302-1.024 3.55-1.024 1.245 0 2.626.378 4.18 1.349l.003.001.87.554c.136.087.204.13.241.197" clip-rule="evenodd"/></svg>