<svg xmlns="http://www.w3.org/2000/svg" fill="none" viewBox="0 0 24 24"><path fill="currentColor" fill-rule="evenodd" d="M12.075 1.5h-.15c-2.175 0-3.91 0-5.27.183-1.405.189-2.558.589-3.47 1.501-.913.913-1.313 2.066-1.502 3.47C1.5 8.015 1.5 9.75 1.5 11.927v.149c0 2.175 0 3.91.183 5.27.189 1.405.589 2.559 1.501 3.47.913.913 2.066 1.313 3.47 1.502 1.36.183 3.096.183 5.272.183h.148c2.176 0 3.911 0 5.271-.183 1.405-.189 2.559-.589 3.47-1.501.913-.912 1.313-2.066 1.502-3.47.183-1.36.183-3.096.183-5.272v-.148c0-2.176 0-3.911-.183-5.271-.189-1.405-.589-2.558-1.501-3.47s-2.066-1.313-3.47-1.502C15.985 1.5 14.25 1.5 12.074 1.5" clip-rule="evenodd" opacity=".4"/><path fill="currentColor" fill-rule="evenodd" d="M7.5 5.5a2 2 0 1 0 0 4 2 2 0 0 0 0-4m-.58 14.835a9 9 0 0 1-.35-.054c1.905-2.303 3.846-4.631 6.027-6.093 1.26-.845 2.556-1.367 3.925-1.431 1.2-.057 2.515.236 3.972 1.056-.01 1.35-.045 2.406-.16 3.266-.16 1.182-.455 1.844-.934 2.323-.478.479-1.14.774-2.322.933-1.212.163-2.812.165-5.08.165-2.267 0-3.867-.002-5.078-.165" clip-rule="evenodd"/></svg>