<svg xmlns="http://www.w3.org/2000/svg" fill="none" viewBox="0 0 24 24"><path fill="currentColor" fill-rule="evenodd" d="M11.575 1.5h-.15c-2.175 0-3.91 0-5.27.183-1.405.189-2.558.589-3.47 1.501-.913.913-1.313 2.066-1.502 3.47C1 8.015 1 9.75 1 11.927v.149c0 2.175 0 3.91.183 5.27.189 1.405.589 2.559 1.501 3.47.913.913 2.066 1.313 3.47 1.502 1.36.183 3.096.183 5.272.183h.148c2.176 0 3.911 0 5.271-.183 1.405-.189 2.559-.589 3.47-1.501.913-.912 1.313-2.066 1.502-3.47.183-1.36.183-3.096.183-5.272v-.148c0-1.354 0-2.536-.044-3.564-.011-.263-.017-.395-.104-.479s-.22-.083-.489-.083H14a2.3 2.3 0 1 1 0-4.6h4.883c.618 0 .928 0 .983-.23.056-.229-.197-.359-.701-.618-.681-.351-1.456-.553-2.32-.67-1.36-.182-3.095-.182-5.27-.182" clip-rule="evenodd" opacity=".4"/><path fill="currentColor" fill-rule="evenodd" d="M14 4.5a1 1 0 1 0 0 2h8a1 1 0 1 0 0-2zM6.18 20.3l.243.035c1.211.163 2.811.165 5.079.165s3.867-.002 5.079-.165c1.182-.159 1.843-.454 2.322-.933s.775-1.14.934-2.323c.097-.726.137-1.592.154-2.658-1.425-.837-2.706-1.171-3.873-1.171-1.33 0-2.581.435-3.792 1.173-2.147 1.308-4.046 3.477-5.92 5.618z" clip-rule="evenodd"/></svg>