<svg xmlns="http://www.w3.org/2000/svg" fill="none" viewBox="0 0 24 24"><path fill="currentColor" fill-rule="evenodd" d="M16.04 4.542a.23.23 0 0 1-.306.044 3.6 3.6 0 0 0-1.013-.477 3 3 0 0 0-.504-.096l-.153-.01L14 4a2 2 0 0 0-.436 3.952c.101.087.346.34.647.942a2 2 0 0 0 3.474.183l.122-.185a27 27 0 0 1 1.67-2.236c.358-.43.74-.856 1.132-1.247.25-.25.375-.375.538-.337.162.038.216.2.325.522.161.48.27 1 .345 1.56.183 1.36.183 3.095.183 5.27v.15c0 2.175 0 3.91-.183 5.27-.189 1.405-.589 2.559-1.501 3.47-.912.913-2.066 1.313-3.47 1.502-1.36.183-3.096.183-5.272.183h-.148c-2.176 0-3.911 0-5.271-.183-1.405-.189-2.558-.589-3.47-1.501s-1.313-2.066-1.502-3.47C1 16.485 1 14.75 1 12.574v-.15c0-2.175 0-3.91.183-5.27.189-1.405.589-2.558 1.501-3.47.913-.913 2.066-1.313 3.47-1.502C7.515 2 9.25 2 11.427 2h.149c2.175 0 3.91 0 5.27.183l.077.01c.447.063.67.095.731.266.061.17-.102.348-.43.702a25 25 0 0 0-1.183 1.381" clip-rule="evenodd" opacity=".4"/><path fill="currentColor" fill-rule="evenodd" d="M22.334 2.943a1 1 0 0 0-.668-1.885c-.878.31-1.717.904-2.454 1.55-.747.655-1.445 1.415-2.039 2.127A30 30 0 0 0 16.03 6.2a4 4 0 0 0-.85-.782 2.6 2.6 0 0 0-.733-.348 2 2 0 0 0-.27-.057l-.151-.011L14 5a1 1 0 0 0-.094 1.996.7.7 0 0 1 .164.086c.2.133.595.484 1.036 1.365a1 1 0 0 0 1.738.09 24 24 0 0 1 .513-.757c.332-.469.8-1.103 1.352-1.764.554-.664 1.179-1.34 1.822-1.905.653-.572 1.27-.98 1.803-1.168M6.176 20.799q.118.02.245.036c1.211.163 2.811.165 5.078.165s3.868-.002 5.08-.165c1.182-.159 1.843-.454 2.322-.933s.775-1.14.934-2.323c.097-.726.137-1.591.153-2.656-1.425-.84-2.707-1.173-3.874-1.173-1.33 0-2.581.435-3.792 1.173-2.147 1.308-4.046 3.477-5.92 5.617z" clip-rule="evenodd"/></svg>