<svg xmlns="http://www.w3.org/2000/svg" fill="none" viewBox="0 0 24 24"><path fill="currentColor" d="M12.828 1.75c2.175 0 2.91 0 4.27.183 1.405.189 2.558.589 3.47 1.501.913.913 1.313 2.066 1.502 3.47.164 1.22.18 3.143.183 5.096l-.004.75h-1.996c0-2.267-.002-4.367-.165-5.579-.16-1.182-.455-1.844-.934-2.323-.478-.478-1.14-.774-2.322-.933-1.212-.163-1.812-.165-4.08-.165s-4.367.002-5.578.165c-1.183.159-1.844.455-2.323.933-.479.48-.774 1.14-.933 2.323-.163 1.212-.165 3.312-.165 5.579l-2.001.002.001-.752c.002-1.953.019-3.876.183-5.095.188-1.405.589-2.558 1.501-3.47s2.066-1.313 3.47-1.502c1.36-.183 3.095-.183 5.271-.183z"/><path fill="currentColor" d="M22.245 13.504c-.008 1.741-.047 3.15-.253 4.285-.209 1.157-.6 2.095-1.355 2.85-.858.858-1.95 1.245-3.327 1.43-1.344.181-3.064.181-5.255.181h-.114c-2.191 0-3.912 0-5.255-.18-1.377-.186-2.47-.573-3.327-1.43-.756-.756-1.147-1.694-1.356-2.85-.205-1.136-.244-2.545-.253-4.286l.001-.752 2-.002h3.672c1.28 0 2.136 1.04 2.546 1.862.29.582.854 1.138 2.029 1.138s1.738-.556 2.028-1.138c.41-.822 1.266-1.862 2.546-1.862h5.677z" opacity=".4"/></svg>