<svg xmlns="http://www.w3.org/2000/svg" fill="none" viewBox="0 0 24 24"><path fill="currentColor" fill-rule="evenodd" d="M18 1.25a4.75 4.75 0 1 0 0 9.5 4.75 4.75 0 0 0 0-9.5m1.688 4.079a.75.75 0 1 0-.71-1.321c-.659.354-1.222 1.1-1.553 1.601a3 3 0 0 0-.436-.284.75.75 0 0 0-.656 1.348s.104.065.163.113c.118.096.276.253.413.485a.75.75 0 0 0 1.323-.057 8 8 0 0 1 .478-.828c.317-.48.675-.894.978-1.057" clip-rule="evenodd"/><path fill="currentColor" d="M20.18 11.86c-.215.08-.322.119-.375.196-.054.078-.054.184-.053.397v.497a.3.3 0 0 1-.3.3h-3.38c-1.28 0-2.135 1.04-2.546 1.862-.29.582-.854 1.138-2.028 1.138-1.175 0-1.739-.556-2.029-1.138-.41-.822-1.265-1.862-2.546-1.862H3.552a.3.3 0 0 1-.3-.3c0-2.152.01-4.121.165-5.279.159-1.182.454-1.844.933-2.323s1.14-.774 2.323-.933c1.085-.146 2.883-.163 4.875-.165.212 0 .319 0 .396-.054.077-.053.116-.16.196-.373q.105-.282.234-.55c.24-.494.36-.741.272-.882-.088-.14-.34-.14-.847-.141h-.121c-2.176 0-3.911 0-5.271.183-1.405.189-2.559.589-3.47 1.501-.913.913-1.313 2.066-1.502 3.47-.164 1.22-.181 3.143-.183 5.096l-.002 1.504c.009 1.741.048 3.15.253 4.285.209 1.157.6 2.095 1.356 2.85.858.858 1.95 1.245 3.327 1.43 1.343.181 3.064.181 5.255.181h.114c2.19 0 3.911 0 5.255-.18 1.376-.186 2.469-.573 3.327-1.43.755-.756 1.146-1.694 1.355-2.85.206-1.136.245-2.545.253-4.286l.007-1.504v-.31c-.002-.5-.002-.75-.143-.838s-.385.031-.874.27q-.27.131-.556.238" opacity=".4"/></svg>