<svg xmlns="http://www.w3.org/2000/svg" fill="none" viewBox="0 0 24 24"><path fill="currentColor" d="M12.057 1.75c2.19 0 3.912 0 5.255.18 1.377.186 2.469.573 3.327 1.43.858.86 1.245 1.951 1.43 3.328.181 1.343.181 3.064.181 5.255v.114c0 2.19 0 3.912-.18 5.255-.186 1.377-.573 2.469-1.43 3.327-.86.858-1.951 1.245-3.328 1.43-1.343.181-3.064.181-5.255.181h-.114c-2.19 0-3.912 0-5.255-.18-1.377-.186-2.469-.573-3.327-1.43-.858-.86-1.245-1.951-1.43-3.328-.181-1.343-.181-3.064-.181-5.255v-.114c0-2.19 0-3.912.18-5.255.186-1.377.573-2.469 1.43-3.327.86-.858 1.951-1.245 3.328-1.43 1.343-.181 3.064-.181 5.255-.181z" opacity=".4"/><path fill="currentColor" fill-rule="evenodd" d="M11.996 6.5a1 1 0 0 0-.996 1c0 .552.446 1 .995 1h.01c.55 0 .995-.448.995-1s-.446-1-.995-1zm.565 4.44a1.5 1.5 0 0 0-.88-.413c-.204-.027-.442-.027-.642-.027H11a1 1 0 1 0 0 2v4a1 1 0 1 0 2 0v-4.04c0-.2 0-.437-.027-.642a1.5 1.5 0 0 0-.412-.879" clip-rule="evenodd"/></svg>