<svg xmlns="http://www.w3.org/2000/svg" fill="none" viewBox="0 0 24 24"><path fill="currentColor" d="M10.992 21.816c-.994 1.245-3.014 1.245-4.008 0l-.55-.69a.44.44 0 0 0-.37-.144c-.168.008-.282.084-.335.167-.422.67-1.143.911-1.77.863-.609-.046-1.275-.378-1.584-1.037-.194-.3-.12-.976-.059-1.276l1.931-9.138c.233-1.1.422-1.994.66-2.692.25-.727.58-1.326 1.145-1.782.565-.457 1.22-.655 1.984-.748.734-.089 1.65-.089 2.78-.089h2.368c1.13 0 2.046 0 2.78.09.765.092 1.419.29 1.984.747.565.456.895 1.055 1.144 1.782.24.698.428 1.592.66 2.693l1.932 9.137c.06.3.134.975-.059 1.276-.31.66-.975.991-1.584 1.037-.627.048-1.348-.193-1.77-.863-.053-.083-.167-.16-.335-.167a.44.44 0 0 0-.37.144l-.55.69c-.994 1.245-3.014 1.245-4.008 0-.218-.273-.656-.519-1.008-.519-.351 0-.79.246-1.008.52" opacity=".4"/><path fill="currentColor" fill-rule="evenodd" d="M6.141 1.25h-.066c-.864 0-1.612 0-2.212.081-.647.088-1.264.286-1.76.785-.49.495-.68 1.1-.765 1.735-.08.597-.08 1.344-.08 2.219v.06q0 .362-.004.692c-.006.57-.01 1.064.025 1.457.056.612.22 1.18.717 1.68a1 1 0 0 0 1.381.026.927.927 0 0 0 .027-1.34c-.076-.075-.144-.165-.178-.532-.027-.296-.023-.65-.018-1.159.002-.237.005-.508.005-.823 0-.953.001-1.576.063-2.037.058-.437.154-.582.235-.664.076-.076.206-.166.622-.222.449-.061 1.059-.063 2.008-.063H17.86c.95 0 1.56.002 2.008.063.416.056.546.146.622.222.08.082.177.227.235.664.062.46.064 1.084.064 2.037 0 .313.002.583.004.819.005.512.008.866-.019 1.162-.033.367-.102.458-.177.534a.927.927 0 0 0 .026 1.34 1 1 0 0 0 1.382-.026c.496-.5.66-1.07.716-1.68.036-.394.032-.89.026-1.461l-.004-.688V6.07c0-.875 0-1.622-.08-2.219-.084-.634-.274-1.24-.765-1.735-.496-.5-1.113-.697-1.76-.785-.6-.081-1.348-.081-2.212-.081zM12.75 10a.75.75 0 0 0-.75-.75H9a.75.75 0 0 0 0 1.5h3a.75.75 0 0 0 .75-.75m2 4a.75.75 0 0 0-.75-.75H8a.75.75 0 0 0 0 1.5h6a.75.75 0 0 0 .75-.75" clip-rule="evenodd"/></svg>