<svg xmlns="http://www.w3.org/2000/svg" fill="none" viewBox="0 0 24 24"><path fill="currentColor" d="M10.587 1.25c.57 0 1.075-.001 1.55.167q.147.052.288.12c.455.219.811.578 1.214.984l4.783 4.807c.467.469.882.884 1.106 1.428s.223 1.132.222 1.796V12H11a2 2 0 0 0-2 2v1.268A2 2 0 0 0 6 17v.5A3.5 3.5 0 0 0 9.5 21h9.11q-.13.165-.284.319c-.78.784-1.763 1.122-2.93 1.28-1.123.151-2.552.151-4.325.151s-3.344 0-4.468-.152c-1.167-.157-2.149-.495-2.93-1.28-.78-.784-1.115-1.771-1.272-2.944-.151-1.13-.151-2.566-.151-4.348V9.453c0-1.534 0-2.77.114-3.754.118-1.018.37-1.89.963-2.63q.327-.407.733-.736c.735-.596 1.603-.85 2.615-.968.98-.115 2.387-.115 3.912-.115" opacity=".4"/><path fill="currentColor" fill-rule="evenodd" d="M12.425 1.54a2.8 2.8 0 0 0-.935-.258v1.99c0 1.363 0 2.01.117 2.876.12.9.38 1.658.981 2.26.602.601 1.36.86 2.26.981.867.117 1.516.118 2.883.118h1.981a2.8 2.8 0 0 0-.184-.748c-.224-.544-.64-.96-1.106-1.428l-4.783-4.808c-.403-.406-.76-.765-1.214-.983m5.19 11.817a.75.75 0 0 1 1.028.257l.857 1.428.857-1.428a.75.75 0 0 1 1.286.772L20.375 16.5l1.268 2.114a.75.75 0 1 1-1.286.772l-.857-1.428-.857 1.428a.75.75 0 1 1-1.286-.772l1.268-2.114-1.268-2.114a.75.75 0 0 1 .257-1.029M11 13.25a.75.75 0 0 1 .75.75v3.5a2.25 2.25 0 1 1-4.5 0V17a.75.75 0 0 1 1.5 0v.5a.75.75 0 0 0 1.5 0V14a.75.75 0 0 1 .75-.75m3.492 0a1.75 1.75 0 0 0-1.75 1.75v.5c0 .967.783 1.75 1.75 1.75h.17a.25.25 0 0 1 .25.25v.5a.25.25 0 0 1-.25.25h-1.17a.75.75 0 0 0 0 1.5h1.17a1.75 1.75 0 0 0 1.75-1.75v-.5a1.75 1.75 0 0 0-1.75-1.75h-.17a.25.25 0 0 1-.25-.25V15a.25.25 0 0 1 .25-.25h1.17a.75.75 0 0 0 0-1.5z" clip-rule="evenodd"/></svg>