<svg xmlns="http://www.w3.org/2000/svg" fill="none" viewBox="0 0 24 24"><path fill="currentColor" fill-rule="evenodd" d="M17.188 12.48a.994.994 0 0 0-1.378.103.94.94 0 0 0 .105 1.346l2.71 2.272c.59.496.81.683.99.887.307.346.546.739.706 1.16.094.247.154.517.31 1.25.126.6.163 1.814.163 2.297 0 .528.44.955.978.955a.966.966 0 0 0 .977-.955c0-.47-.032-1.866-.205-2.684v-.001c-.135-.637-.239-1.127-.39-1.526a5.7 5.7 0 0 0-1.062-1.746c-.283-.32-.615-.599-1.12-1.023l-.019-.015zm-9.103 1.449a.94.94 0 0 0 .105-1.346.994.994 0 0 0-1.378-.103L4.046 14.8c-.516.433-.852.715-1.139 1.038a5.7 5.7 0 0 0-1.061 1.746c-.15.395-.238.81-.371 1.438l-.004.018c-.174.817-.221 2.284-.221 2.755 0 .528.437.955.977.955s.978-.427.978-.955c0-.483.037-1.695.165-2.297.155-.733.215-1.003.309-1.25.16-.421.398-.814.705-1.16.181-.204.401-.391.992-.887z" clip-rule="evenodd" opacity=".4"/><path fill="currentColor" fill-rule="evenodd" d="M12 1.25c-1.871 0-3.525.478-4.735 1.302-1.013.69-1.741 1.649-1.952 2.771a3.25 3.25 0 0 0-1.999 5.008 2.75 2.75 0 0 0 4.161 3.583 5.6 5.6 0 0 0 1.744 1.968l-1.098 3.245c-.182.539-.317 1.033-.358 1.467-.041.436.004.909.292 1.312.288.404.721.602 1.155.707.431.104.955.137 1.547.137h2.486c.592 0 1.116-.033 1.547-.137.434-.105.867-.303 1.155-.707s.333-.876.292-1.312c-.041-.434-.176-.928-.359-1.467l-1.097-3.245a5.6 5.6 0 0 0 1.744-1.968 2.75 2.75 0 0 0 4.161-3.583 3.25 3.25 0 0 0-1.999-5.008c-.211-1.122-.939-2.081-1.952-2.771C15.525 1.728 13.871 1.25 12 1.25M15.75 11c0-.951-.183-1.986-.537-2.754-.364-.79-.794-1.088-1.213-1.088h-.003c-.02-.001-.052-.002-.389.33-.287.283-.783.762-1.608.762s-1.321-.479-1.608-.762c-.337-.332-.369-.331-.389-.33H10c-.42 0-.849.298-1.213 1.088-.354.768-.537 1.803-.537 2.754 0 2.424 1.751 4.25 3.75 4.25s3.75-1.826 3.75-4.25" clip-rule="evenodd"/></svg>