<svg xmlns="http://www.w3.org/2000/svg" fill="none" viewBox="0 0 24 24"><path fill="currentColor" d="M1.25 12C1.25 6.063 6.063 1.25 12 1.25S22.75 6.063 22.75 12 17.937 22.75 12 22.75 1.25 17.937 1.25 12" opacity=".4"/><path fill="currentColor" fill-rule="evenodd" d="M8.6 14.55a.75.75 0 0 0-1.2.9 5.74 5.74 0 0 0 4.6 2.3 5.74 5.74 0 0 0 4.6-2.3.75.75 0 1 0-1.2-.9 4.24 4.24 0 0 1-3.4 1.7 4.24 4.24 0 0 1-3.4-1.7M6.75 9c0-.69.56-1.25 1.25-1.25h.009a1.25 1.25 0 1 1 0 2.5H8c-.69 0-1.25-.56-1.25-1.25m7.991 0c0-.69.56-1.25 1.25-1.25H16a1.25 1.25 0 1 1 0 2.5h-.009c-.69 0-1.25-.56-1.25-1.25m-.6-7.537q-.12.05-.23.103a4.1 4.1 0 0 0-1.254.927c-.726.76-.868 1.414-.812 1.823.061.435.33.742.585.866.166.081.438.09.764.024.147-.03.338-.08.501-.153a.75.75 0 0 1 .612 1.37 3.8 3.8 0 0 1-.812.252c-.428.088-1.105.156-1.722-.144-.7-.342-1.284-1.076-1.413-2.01-.133-.959.246-2.053 1.214-3.066q.07-.077.199-.203a11 11 0 0 1 2.369.211" clip-rule="evenodd"/></svg>