<svg xmlns="http://www.w3.org/2000/svg" fill="none" viewBox="0 0 24 24"><path fill="currentColor" d="m19.389 4.134-.442-.15-14.15 14.16.425.524c1.266 1.565 2.93 2.82 4.972 3.645l.034.014c.614.248 1.047.423 1.773.423s1.16-.175 1.773-.423l.035-.014c6.286-2.54 8.829-9.044 7.666-15.876l-.007-.043a9 9 0 0 0-.151-.76 1.8 1.8 0 0 0-.35-.706c-.197-.23-.463-.368-.687-.466a12 12 0 0 0-.891-.328"/><path fill="currentColor" d="m19.388 4.134-.265-.09c-.716-.24-1.366-.62-2.106-1.05-.304-.176-.623-.362-.968-.55C14.918 1.824 13.61 1.25 12 1.25c-1.613 0-2.92.575-4.051 1.193-.345.19-.664.375-.968.552-.738.43-1.388.808-2.103 1.05l-.026.008c-.423.142-.776.26-1.044.372-.254.105-.559.25-.774.503-.19.223-.287.471-.35.707a9 9 0 0 0-.151.76l-.006.029c-.785 4.596.099 9.036 2.695 12.244l.525.647L20.53 4.521z" opacity=".4"/></svg>