<svg xmlns="http://www.w3.org/2000/svg" fill="none" viewBox="0 0 24 24"><path fill="currentColor" d="M21.875 4v13.5a4.5 4.5 0 1 1-9 0V4h2v6.284q.198-.127.404-.23c.79-.395 1.742-.541 2.753.066.396.237.723.231 1.073.104.25-.09.498-.236.77-.423V4z" opacity=".4"/><path fill="currentColor" fill-rule="evenodd" d="M12.875 2a1 1 0 1 0 0 2h9a1 1 0 1 0 0-2zm-7.52 7.459a.75.75 0 0 1 1.04 0l.005.006c.12.121.46.467.652.674.387.42.905 1.015 1.424 1.71.518.694 1.048 1.502 1.451 2.348.4.839.698 1.764.698 2.678 0 1.695-.566 2.949-1.508 3.768-.924.802-2.117 1.107-3.242 1.107s-2.318-.305-3.242-1.107c-.942-.819-1.508-2.073-1.508-3.768 0-.915.298-1.84.698-2.678.403-.846.933-1.654 1.451-2.347a22 22 0 0 1 1.424-1.711c.191-.207.532-.553.652-.674zM16.876 6h-2v2h2a1 1 0 1 0 0-2" clip-rule="evenodd"/></svg>