<svg xmlns="http://www.w3.org/2000/svg" fill="none" viewBox="0 0 24 24"><path fill="currentColor" fill-rule="evenodd" d="M7.936 2.649a1 1 0 0 0-1.872 0 4 4 0 0 1-.722 1.177C4.965 4.24 4.526 4.5 4 4.5a1 1 0 0 0 0 2c.772 0 1.42-.241 1.946-.58a4 4 0 0 1-.604.906C4.965 7.24 4.526 7.5 4 7.5a1 1 0 0 0 0 2c.798 0 1.464-.258 2-.615V13H3a1 1 0 1 0 0 2h18a1 1 0 1 0 0-2H8V8.885a3.56 3.56 0 0 0 2 .615 1 1 0 1 0 0-2c-.526 0-.965-.26-1.342-.674a4 4 0 0 1-.604-.906c.527.339 1.174.58 1.946.58a1 1 0 1 0 0-2c-.526 0-.965-.26-1.342-.674a4 4 0 0 1-.722-1.177" clip-rule="evenodd"/><path fill="currentColor" fill-rule="evenodd" d="M16.75 1a3.25 3.25 0 1 0 0 6.5 3.25 3.25 0 0 0 0-6.5M6.781 18.248c-.377-.319-1.082-.336-1.488-.02l-.046.037c-.328.256-.668.52-1.084.634a2.3 2.3 0 0 1-.6.073c-.069.001-.177 0-.29-.001L3 18.968a1 1 0 1 1 0-2q.185 0 .319.003h.006a10 10 0 0 0 .305-.002l.04-.024c.08-.052.19-.136.394-.294 1.142-.89 2.898-.867 4.008.07.176.148.508.272.933.272.423 0 .78-.124.977-.278 1.119-.873 2.869-1.026 4.09.005.212.179.545.292.95.279.408-.013.789-.151 1.042-.348 1.142-.89 2.898-.867 4.008.07.175.147.268.219.326.257a2 2 0 0 0 .18-.003 16 16 0 0 1 .422-.007 1 1 0 1 1 0 2c-.135 0-.224.003-.314.005l-.189.005a2.3 2.3 0 0 1-.574-.051c-.463-.11-.812-.4-1.142-.679-.377-.319-1.082-.336-1.488-.02-.625.488-1.428.745-2.206.77-.78.025-1.633-.182-2.306-.75-.39-.33-1.08-.338-1.57.044-.63.492-1.454.7-2.206.7-.75 0-1.589-.208-2.224-.744m0 4c-.377-.319-1.082-.336-1.488-.02l-.046.037c-.328.256-.668.52-1.084.634a2.3 2.3 0 0 1-.6.073c-.069.001-.177 0-.29-.001L3 22.968a1 1 0 1 1 0-2q.185 0 .32.003h.005a10 10 0 0 0 .305-.002l.04-.024c.08-.052.19-.136.394-.294 1.142-.89 2.898-.867 4.008.07.176.148.508.272.933.272.423 0 .78-.124.977-.278 1.119-.873 2.869-1.026 4.09.005.212.179.545.292.95.279.408-.013.789-.151 1.042-.348 1.142-.89 2.898-.867 4.008.07.175.147.268.219.326.257a2 2 0 0 0 .18-.003 16 16 0 0 1 .422-.007 1 1 0 1 1 0 2c-.135 0-.224.003-.314.005l-.189.005a2.3 2.3 0 0 1-.574-.051c-.463-.11-.812-.4-1.142-.679-.377-.319-1.082-.336-1.488-.02-.625.488-1.428.745-2.206.77-.78.025-1.633-.182-2.306-.75-.39-.33-1.08-.338-1.57.044-.63.492-1.454.7-2.206.7-.75 0-1.589-.208-2.224-.744" clip-rule="evenodd" opacity=".4"/></svg>