<svg xmlns="http://www.w3.org/2000/svg" fill="none" viewBox="0 0 24 24"><path fill="currentColor" fill-rule="evenodd" d="M12.013 3.225c0-.538.438-.975.978-.975a9.775 9.775 0 0 1 9.216 6.5c.303.855.49 1.765.541 2.71a.976.976 0 0 1-1.952.107 8 8 0 0 0-.233-1.517H16.83q.051.707.065 1.445a.976.976 0 0 1-.96.992.976.976 0 0 1-.994-.957 25 25 0 0 0-.071-1.48h-1.88a.976.976 0 1 1 0-1.95h1.636a13.6 13.6 0 0 0-.539-2.14c-.242-.69-.505-1.177-.747-1.472a1.1 1.1 0 0 0-.276-.258.3.3 0 0 0-.073-.03.976.976 0 0 1-.978-.975m3.67 1.45q.132.308.248.639c.284.804.513 1.748.677 2.786h3.155a7.84 7.84 0 0 0-4.08-3.425m-13.456 6.35c.54 0 .978.436.978.975 0 .674.085 1.328.246 1.95h3.733a26 26 0 0 1-.052-.94.976.976 0 0 1 1.953-.072q.02.519.059 1.012h1.879a.976.976 0 1 1 0 1.95H9.387c.153.876.355 1.649.59 2.282.239.643.492 1.09.72 1.36.113.13.202.199.259.231a.3.3 0 0 0 .054.025l.013.002a.976.976 0 1 1 0 1.95 9.775 9.775 0 0 1-9.217-6.5A9.7 9.7 0 0 1 1.25 12c0-.539.438-.975.977-.975m6.104 8.3a10 10 0 0 1-.187-.466c-.312-.843-.563-1.847-.738-2.959H4.25a7.84 7.84 0 0 0 4.08 3.425" clip-rule="evenodd" opacity=".4"/><path fill="currentColor" fill-rule="evenodd" d="M9.96 2.106c-.454-.48-1.024-.68-1.66-.77-.597-.086-1.35-.086-2.245-.086h-.973c-.493 0-.907 0-1.247.027-.355.029-.691.09-1.013.25a2.8 2.8 0 0 0-1.321 1.395c-.143.325-.2.665-.226 1.033-.025.355-.025.79-.025 1.315v.054c0 .527 0 .961.025 1.316.027.367.083.708.226 1.033a2.8 2.8 0 0 0 1.321 1.395c.322.16.658.22 1.013.25.34.027.754.027 1.247.027h1.04c.647 0 .81.008.956.055.149.047.438.242.976.622.306.216.603.426.859.554.267.134.724.298 1.193.032.45-.255.563-.715.604-1.006.04-.29.04-.661.04-1.055V6.189c0-.956 0-1.745-.08-2.37-.082-.653-.263-1.239-.71-1.713m10.205 11.171c-.34-.027-.753-.027-1.247-.027h-.973c-.896 0-1.648 0-2.245.085-.636.09-1.206.29-1.66.771-.447.475-.628 1.06-.71 1.713-.08.625-.08 1.414-.08 2.37v2.358c0 .394 0 .765.04 1.055.04.291.153.75.604 1.006.47.266.926.102 1.194-.032.255-.128.698-.44 1.004-.657.538-.38.681-.472.83-.52.146-.046.309-.054.956-.054h1.04c.494 0 .908 0 1.247-.027.355-.03.691-.09 1.012-.25a2.8 2.8 0 0 0 1.322-1.395c.143-.325.2-.666.226-1.033.025-.355.025-.79.025-1.316s0-1.014-.025-1.369c-.027-.368-.083-.708-.226-1.033a2.8 2.8 0 0 0-1.322-1.396c-.32-.159-.657-.22-1.012-.249" clip-rule="evenodd"/></svg>