<svg xmlns="http://www.w3.org/2000/svg" fill="none" viewBox="0 0 24 24"><path fill="currentColor" fill-rule="evenodd" d="M5 6.75a.75.75 0 0 0-.693.46.75.75 0 0 0 .162.82l.781.78v8.38l-.78.78a.75.75 0 0 0-.163.82c.116.28.39.46.693.46h14a.748.748 0 0 0 .53-1.28l-.78-.78V8.81l.78-.78A.748.748 0 0 0 19 6.75zm-3.895 3.3a1 1 0 0 1 1.342-.44l1 .5c.494.24.694.84.447 1.34a.997.997 0 0 1-1.34.44l-1-.5a.996.996 0 0 1-.449-1.34m2.79 4.5c.246.5.046 1.1-.448 1.34l-1 .5a.996.996 0 1 1-.894-1.78l1-.5a.997.997 0 0 1 1.341.44m19-4.5a1 1 0 0 0-1.342-.44l-1 .5a.994.994 0 0 0-.447 1.34c.247.49.848.69 1.342.44l1-.5a.994.994 0 0 0 .447-1.34m-2.79 4.5a.994.994 0 0 0 .448 1.34l1 .5a1 1 0 0 0 1.342-.44.994.994 0 0 0-.447-1.34l-1-.5a1 1 0 0 0-1.342.44" clip-rule="evenodd" opacity=".4"/><path fill="currentColor" fill-rule="evenodd" d="M7.65 19.25H5.219C6.193 21.52 8.47 23 10.995 23h2.01c2.525 0 4.803-1.48 5.778-3.75h-1.941c-.7.91-2.637 1.75-3.836 1.75h-2.011c-1.2 0-2.715-.84-3.345-1.75M10.995 3C8.47 3 6.193 4.48 5.219 6.75h2.43C8.28 5.84 9.797 5 10.996 5h2.01c1.2 0 2.717.84 3.346 1.75h2.432C17.808 4.48 15.53 3 13.006 3H13V2a1.001 1.001 0 0 0-2 0v1zM13 12a1.001 1.001 0 0 0-2 0v2c0 .55.448 1 1 1s1-.45 1-1z" clip-rule="evenodd"/></svg>