<svg xmlns="http://www.w3.org/2000/svg" fill="none" viewBox="0 0 24 24"><path fill="currentColor" fill-rule="evenodd" d="M17.25 1.25a1 1 0 0 1 1 1v.27a3.9 3.9 0 0 1 1.595.84l.358-.233a1 1 0 1 1 1.094 1.675l-.334.218a3.8 3.8 0 0 1 0 2.46l.334.218a1 1 0 1 1-1.094 1.675l-.358-.234a3.9 3.9 0 0 1-1.595.841v.27a1 1 0 1 1-2 0v-.27a3.9 3.9 0 0 1-1.595-.84l-.358.233a1 1 0 0 1-1.093-1.675l.333-.217a3.8 3.8 0 0 1 0-2.461l-.334-.218a1 1 0 0 1 1.094-1.675l.358.234a3.9 3.9 0 0 1 1.595-.841v-.27a1 1 0 0 1 1-1m0 3.143a1.93 1.93 0 0 0-1.6.835 1.8 1.8 0 0 0 0 2.044c.34.5.927.835 1.6.835a1.93 1.93 0 0 0 1.6-.835 1.8 1.8 0 0 0 0-2.043 1.93 1.93 0 0 0-1.6-.836" clip-rule="evenodd"/><path fill="currentColor" d="M8.184 2.25c-.886 0-1.65 0-2.262.082-.655.088-1.284.287-1.793.797-.51.51-.709 1.138-.797 1.793-.082.612-.082 1.376-.082 2.262v7.607a.25.25 0 0 1-.03.123l-.01.02-.376.731c-.724 1.336-1.211 2.4-1.437 3.284-.232.909-.205 1.7.19 2.417.44.8 1.228 1.112 2.111 1.25.854.134 1.992.134 3.389.134h9.826c1.396 0 2.535 0 3.389-.134.883-.138 1.67-.45 2.111-1.25.394-.716.422-1.508.19-2.417-.226-.885-.715-1.952-1.442-3.291L20.806 15l-.03-.059a.2.2 0 0 1-.024-.091l-.001-.1v-2a1 1 0 1 0-2 0v.9c0 .283 0 .424-.088.512s-.23.088-.512.088H5.85c-.283 0-.424 0-.512-.088s-.088-.23-.088-.512v-6.4c0-.971.002-1.599.064-2.061.059-.434.153-.57.229-.646s.212-.17.646-.229c.462-.062 1.09-.064 2.061-.064h2.123a1 1 0 1 0 0-2z" opacity=".4"/></svg>