<svg xmlns="http://www.w3.org/2000/svg" fill="none" viewBox="0 0 24 24"><path fill="currentColor" fill-rule="evenodd" d="M5.922 1.832c.612-.082 1.376-.082 2.262-.082h7.632c.886 0 1.65 0 2.262.082.655.088 1.283.287 1.793.797s.709 1.138.797 1.793c.082.612.082 1.376.082 2.262v7.607a.25.25 0 0 0 .03.123l.01.02.376.731c.724 1.336 1.211 2.4 1.437 3.284.232.909.204 1.7-.19 2.417-.44.8-1.228 1.112-2.111 1.25-.854.134-1.992.134-3.389.134H7.087c-1.397 0-2.535 0-3.389-.134-.883-.138-1.67-.45-2.111-1.25-.395-.716-.422-1.508-.19-2.417.226-.884.713-1.948 1.437-3.284l.376-.731.01-.02a.25.25 0 0 0 .03-.123V6.684c0-.886 0-1.65.082-2.262.088-.655.287-1.284.797-1.793.51-.51 1.138-.709 1.793-.797M5.25 6.75v6.4c0 .283 0 .424.088.512s.23.088.512.088h12.3c.283 0 .424 0 .512-.088s.088-.23.088-.512v-6.4c0-.971-.002-1.599-.065-2.061-.058-.434-.152-.57-.228-.646s-.212-.17-.646-.229c-.462-.062-1.09-.064-2.061-.064h-7.5c-.971 0-1.599.002-2.061.064-.434.059-.57.153-.646.229s-.17.212-.229.646c-.062.462-.064 1.09-.064 2.061" clip-rule="evenodd" opacity=".4"/><path fill="currentColor" fill-rule="evenodd" d="M11 6v2a1 1 0 1 0 2 0V6a1 1 0 1 0-2 0m0 5c0-.552.445-1 .994-1h.012c.549 0 .994.448.994 1s-.445 1-.994 1h-.012A.997.997 0 0 1 11 11" clip-rule="evenodd"/></svg>