<svg xmlns="http://www.w3.org/2000/svg" fill="none" viewBox="0 0 24 24"><path fill="currentColor" fill-rule="evenodd" d="M7.127 3.292a.75.75 0 0 1 .731.134l.001.001.011.01c.056.054.192.181.26.255.143.158.33.388.507.681.353.587.683 1.463.497 2.527s-.795 1.77-1.328 2.196a4.2 4.2 0 0 1-.711.458c-.088.045-.26.117-.331.147l-.016.007a.75.75 0 0 1-.731-.134l-.012-.011a7 7 0 0 1-.26-.255 4.3 4.3 0 0 1-.507-.681C4.885 8.04 4.555 7.164 4.74 6.1s.795-1.77 1.328-2.196c.267-.213.521-.362.711-.458.089-.046.26-.117.331-.147l.015-.006m9.746 0a.75.75 0 0 0-.73.134l-.013.012a7 7 0 0 0-.259.254 4.3 4.3 0 0 0-.508.681c-.353.587-.683 1.463-.497 2.527s.795 1.77 1.329 2.196c.266.213.52.362.71.458.089.045.26.117.332.147l.015.007a.75.75 0 0 0 .732-.134l.011-.012c.057-.053.192-.18.26-.254.144-.158.33-.388.508-.681.352-.587.682-1.463.496-2.527s-.794-1.77-1.328-2.196a4.2 4.2 0 0 0-.71-.458 6 6 0 0 0-.332-.147zm5.84 7.304-.002-.016a.75.75 0 0 0-.472-.575L22.223 10a6 6 0 0 0-.358-.105 4.3 4.3 0 0 0-.863-.112c-.703-.02-1.65.133-2.503.849-.851.715-1.173 1.625-1.285 2.322-.056.35-.061.656-.052.876.004.103.025.294.034.373l.001.016c.045.261.225.48.472.575l.016.005c.077.024.259.081.358.105.213.05.513.102.864.112.703.02 1.65-.133 2.502-.849.852-.715 1.173-1.625 1.285-2.323a4.4 4.4 0 0 0 .053-.875 7 7 0 0 0-.034-.373m-8.375 7.506a6 6 0 0 1-.077-.342l-.003-.015a.75.75 0 0 1 .267-.688l.013-.01a4 4 0 0 1 1.021-.56c.617-.23 1.505-.386 2.476-.013s1.525 1.082 1.827 1.666c.151.292.244.56.3.758.026.092.062.267.077.342l.003.016a.75.75 0 0 1-.266.687l-.014.01c-.061.045-.206.15-.287.2a4 4 0 0 1-.734.36c-.616.23-1.505.386-2.476.013-.972-.372-1.525-1.082-1.827-1.666a4 4 0 0 1-.3-.758M1.29 10.58l-.002.016c-.008.079-.03.27-.034.373a4.5 4.5 0 0 0 .053.875c.112.698.433 1.608 1.285 2.323.853.716 1.8.868 2.502.849.351-.01.65-.062.864-.112.1-.024.281-.081.358-.105l.016-.005a.75.75 0 0 0 .472-.575l.001-.016c.01-.08.03-.27.035-.373.008-.22.003-.526-.053-.876-.112-.697-.434-1.607-1.285-2.322-.853-.716-1.8-.869-2.503-.85-.35.01-.65.063-.863.113-.1.024-.282.08-.358.105l-.016.005a.75.75 0 0 0-.472.575m8.45 7.18c-.015.074-.051.25-.077.342a4 4 0 0 1-.3.758c-.302.584-.855 1.294-1.827 1.666-.97.373-1.86.217-2.476-.012a4 4 0 0 1-.733-.36c-.082-.05-.227-.156-.288-.2l-.013-.01a.75.75 0 0 1-.267-.688v-.001l.003-.015c.015-.074.051-.25.077-.342a4 4 0 0 1 .3-.758c.302-.584.855-1.293 1.827-1.666.971-.373 1.86-.217 2.476.013.309.114.559.25.734.36.08.05.226.155.287.2l.014.01a.75.75 0 0 1 .263.703" clip-rule="evenodd" opacity=".4"/><path fill="currentColor" fill-rule="evenodd" d="M5.724 8.763a.75.75 0 1 1 1.423.475 7.9 7.9 0 0 0-.397 2.49c0 1 .345 2.05.879 3.014.533.96 1.227 1.785 1.858 2.325a.75.75 0 1 1-.974 1.14c-.774-.661-1.58-1.627-2.196-2.738-.615-1.11-1.067-2.412-1.067-3.742 0-1.044.167-2.045.474-2.964m12.552 0a.75.75 0 0 0-1.423.475c.256.765.398 1.605.398 2.49 0 1-.346 2.05-.88 3.014-.533.96-1.227 1.785-1.858 2.325a.75.75 0 1 0 .974 1.14c.774-.661 1.58-1.627 2.196-2.738.615-1.11 1.068-2.412 1.068-3.742a9.4 9.4 0 0 0-.475-2.964" clip-rule="evenodd"/></svg>