<svg xmlns="http://www.w3.org/2000/svg" fill="none" viewBox="0 0 24 24"><path fill="currentColor" fill-rule="evenodd" d="M6.65 1.682c.19-.024.35.121.35.307V7c0 .471 0 .707-.15.853C6.71 8 6.47 8 6 8H2.62c-.5 0-.76 0-.9-.167-.15-.167-.13-.407-.07-.887l.03-.292c.19-1.404.59-2.558 1.5-3.47.92-.913 2.07-1.313 3.47-1.502M2.5 10c-.47 0-.71 0-.85.146-.15.146-.15.38-.15.844v1.084c0 2.176 0 3.911.18 5.271.19 1.404.59 2.558 1.5 3.47.92.913 2.07 1.313 3.47 1.502.19.025.35-.12.35-.306v-11.01c0-.473 0-.708-.15-.855C6.71 10 6.47 10 6 10zM17 22.011c0 .185.16.331.35.306 1.4-.189 2.55-.589 3.47-1.502.91-.912 1.31-2.066 1.5-3.47.18-1.36.18-3.095.18-5.27V10.99c0-.465 0-.698-.15-.844C22.21 10 21.97 10 21.5 10H18c-.47 0-.71 0-.85.146-.15.147-.15.382-.15.854zm4.38-14.01c.5 0 .76 0 .9-.168.15-.167.13-.407.07-.887l-.03-.292c-.19-1.404-.59-2.558-1.5-3.47-.92-.913-2.07-1.313-3.47-1.502a.308.308 0 0 0-.35.307V7c0 .471 0 .707.15.853.14.147.38.147.85.147z" clip-rule="evenodd"/><path fill="currentColor" fill-rule="evenodd" d="M9.97 1.506c-.45.004-.68.007-.83.153-.14.146-.14.377-.14.838V7c0 .471 0 .707.15.854C9.29 8 9.53 8 10 8h4c.47 0 .71 0 .85-.146C15 7.707 15 7.471 15 7V2.497c0-.461 0-.692-.14-.838-.15-.146-.38-.149-.83-.153a204 204 0 0 0-1.96-.006h-.14c-.7 0-1.35 0-1.96.006M9 21.503c0 .461 0 .692.14.838.15.146.38.149.83.153.61.006 1.26.006 1.96.006h.14c.7 0 1.35 0 1.96-.006.45-.004.68-.007.83-.153.14-.146.14-.377.14-.838V11c0-.471 0-.707-.15-.854C14.71 10 14.47 10 14 10h-4c-.47 0-.71 0-.85.146C9 10.293 9 10.529 9 11z" clip-rule="evenodd" opacity=".4"/></svg>