<svg xmlns="http://www.w3.org/2000/svg" fill="none" viewBox="0 0 24 24"><path fill="currentColor" fill-rule="evenodd" d="M1.5 11.93v.14c0 2.18 0 3.92.183 5.28.189 1.4.589 2.55 1.501 3.47.913.91 2.066 1.31 3.471 1.5 1.36.18 3.095.18 5.271.18h.148c2.176 0 3.916 0 5.276-.18 1.4-.19 2.55-.59 3.47-1.5.91-.92 1.31-2.07 1.5-3.47.18-1.36.18-3.1.18-5.28v-1.08c0-.47 0-.7-.15-.84-.14-.15-.38-.15-.85-.15H2.496c-.467 0-.701 0-.848.15-.146.14-.147.37-.147.84z" clip-rule="evenodd" opacity=".4"/><path fill="currentColor" fill-rule="evenodd" d="M1.644 6.95c-.054.48-.08.72.07.88.148.17.399.17.902.17h18.762c.5 0 .75 0 .9-.17.15-.16.13-.4.07-.88l-.03-.3c-.19-1.4-.59-2.55-1.5-3.47-.92-.91-2.07-1.31-3.48-1.5-1.36-.18-3.09-.18-5.266-.18h-.149c-2.176 0-3.91 0-5.271.18-1.405.19-2.558.59-3.47 1.5-.913.92-1.313 2.07-1.502 3.47z" clip-rule="evenodd"/></svg>