<svg xmlns="http://www.w3.org/2000/svg" fill="none" viewBox="0 0 24 24"><path fill="currentColor" fill-rule="evenodd" d="M22.488 14.002c.01-.47.01-.706-.14-.854-.14-.148-.38-.148-.85-.148h-19c-.47 0-.71 0-.85.148-.15.148-.15.384-.14.854.01 1.304.05 2.412.17 3.343.19 1.405.59 2.558 1.5 3.471.92.912 2.07 1.312 3.48 1.501 1.36.183 3.09.183 5.27.183h.14c2.18 0 3.92 0 5.28-.183 1.4-.189 2.55-.589 3.47-1.501.91-.913 1.31-2.066 1.5-3.471.12-.931.16-2.039.17-3.343" clip-rule="evenodd" opacity=".4"/><path fill="currentColor" fill-rule="evenodd" d="M1.508 9.998c-.01.47-.01.706.14.854.14.148.38.148.85.148h19c.47 0 .71 0 .85-.148.15-.148.15-.384.14-.854-.01-1.304-.05-2.412-.17-3.343-.19-1.405-.59-2.558-1.5-3.471-.92-.912-2.07-1.312-3.47-1.501-1.36-.183-3.1-.183-5.28-.183h-.14c-2.18 0-3.91 0-5.27.183-1.41.189-2.56.589-3.48 1.501-.91.913-1.31 2.066-1.5 3.471-.12.931-.16 2.039-.17 3.343" clip-rule="evenodd"/></svg>