<svg xmlns="http://www.w3.org/2000/svg" fill="none" viewBox="0 0 24 24"><path fill="currentColor" fill-rule="evenodd" d="M10.99 1.5c-.465 0-.698 0-.844.15C10 1.79 10 2.03 10 2.5v19c0 .47 0 .71.146.85.146.15.379.15.844.15h1.084c2.176 0 3.906 0 5.276-.18 1.4-.19 2.55-.59 3.47-1.5.91-.92 1.31-2.07 1.5-3.47.18-1.36.18-3.1.18-5.28v-.14c0-2.18 0-3.92-.18-5.28-.19-1.4-.59-2.55-1.5-3.47-.92-.91-2.07-1.31-3.47-1.5-1.37-.18-3.1-.18-5.276-.18z" clip-rule="evenodd" opacity=".4"/><path fill="currentColor" fill-rule="evenodd" d="M1.5 11.93v.15c0 2.17 0 3.91.183 5.27.188 1.4.589 2.55 1.501 3.47.912.91 2.066 1.31 3.471 1.5l.291.03c.48.06.72.08.887-.06.167-.15.167-.4.167-.91V2.62c0-.5 0-.75-.167-.9s-.407-.13-.887-.07l-.291.03c-1.405.19-2.559.59-3.471 1.51-.912.91-1.313 2.06-1.501 3.47C1.5 8.02 1.5 9.75 1.5 11.93" clip-rule="evenodd"/></svg>