<svg xmlns="http://www.w3.org/2000/svg" fill="none" viewBox="0 0 24 24"><path fill="currentColor" fill-rule="evenodd" d="M1.5 11.93v.148c0 2.176 0 3.911.18 5.271.19 1.404.59 2.558 1.5 3.47.92.913 2.07 1.313 3.47 1.502.27.036.41.054.52.011a.5.5 0 0 0 .27-.235c.06-.11.06-.253.06-.538V2.45c0-.286 0-.429-.06-.539a.5.5 0 0 0-.27-.234c-.11-.044-.25-.026-.52.01-1.4.19-2.55.59-3.47 1.502-.91.912-1.31 2.066-1.5 3.47-.18 1.36-.18 3.095-.18 5.271M17.35 1.685c-.27-.036-.41-.054-.52-.01a.5.5 0 0 0-.27.234c-.06.11-.06.253-.06.538V21.56c0 .285 0 .428.06.538.05.105.16.194.27.235.11.043.25.025.52-.01 1.4-.19 2.55-.59 3.47-1.503.91-.912 1.31-2.066 1.5-3.47.18-1.36.18-3.095.18-5.27v-.15c0-2.176 0-3.91-.18-5.27-.19-1.405-.59-2.559-1.5-3.47-.92-.914-2.07-1.314-3.47-1.503" clip-rule="evenodd"/><path fill="currentColor" fill-rule="evenodd" d="M10.48 1.504c-.46.002-.69.004-.83.15-.15.146-.15.379-.15.844v19.008c0 .465 0 .698.15.844.14.146.37.147.83.15.46.002.94.002 1.45.002h.14c.51 0 .99 0 1.45-.002.46-.003.69-.004.83-.15.15-.146.15-.379.15-.844V2.498c0-.465 0-.698-.15-.844-.14-.146-.37-.148-.83-.15s-.94-.002-1.45-.002h-.14c-.51 0-.99 0-1.45.002" clip-rule="evenodd" opacity=".4"/></svg>