<svg xmlns="http://www.w3.org/2000/svg" fill="none" viewBox="0 0 24 24"><path fill="currentColor" d="M21.656 2.99c.009.069.03.253.04.363.02.23.041.558.05.968.018.818-.017 1.963-.226 3.281-.415 2.634-1.53 5.999-4.342 8.81-2.216 2.217-4.336 3.228-6.267 3.33-1.94.102-3.56-.722-4.746-1.907-1.185-1.186-2.009-2.806-1.906-4.747.101-1.93 1.112-4.05 3.328-6.266 2.812-2.812 6.177-3.927 8.81-4.342a18.7 18.7 0 0 1 3.282-.226c.41.009.739.03.968.05.11.01.293.031.364.04h.008a.75.75 0 0 1 .637.638z" opacity=".4"/><path fill="currentColor" fill-rule="evenodd" d="M17.53 6.47a.75.75 0 0 1 0 1.06l-14 14a.75.75 0 0 1-1.06-1.06l14-14a.75.75 0 0 1 1.06 0" clip-rule="evenodd"/></svg>