<svg xmlns="http://www.w3.org/2000/svg" fill="none" viewBox="0 0 24 24"><path fill="currentColor" d="M15.646 2.327c.449-.082.867-.112 1.291-.022.661.141 1.26.489 1.712.993.29.322.472.7.626 1.131.148.417.288.94.458 1.58l2.551 9.56c.17.639.31 1.162.39 1.597.081.45.11.87.021 1.293a3.2 3.2 0 0 1-.987 1.717c-.321.29-.699.475-1.129.63-.414.148-.936.288-1.572.46l-.061.016c-.637.171-1.158.311-1.592.39-.449.083-.868.113-1.291.023a3.2 3.2 0 0 1-1.712-.993c-.29-.322-.472-.7-.626-1.132-.148-.416-.288-.94-.458-1.579l-2.551-9.56c-.17-.639-.31-1.162-.39-1.597-.081-.45-.11-.87-.021-1.293.14-.662.485-1.264.987-1.717.321-.29.699-.475 1.129-.63.414-.148.936-.288 1.572-.46l.061-.016c.637-.171 1.158-.312 1.592-.39" opacity=".4"/><path fill="currentColor" fill-rule="evenodd" d="M6.031 2.25H5.97c-.674 0-1.225 0-1.672.037-.463.037-.882.118-1.272.317a3.25 3.25 0 0 0-1.42 1.42c-.2.391-.28.81-.318 1.273-.037.447-.037.998-.037 1.672V17.03c0 .674 0 1.225.037 1.672.037.463.118.882.317 1.273a3.25 3.25 0 0 0 1.42 1.42c.391.199.81.28 1.273.317.447.037.998.037 1.672.037h.062c.674 0 1.225 0 1.672-.037.463-.037.882-.118 1.272-.317a3.25 3.25 0 0 0 1.42-1.42c.2-.391.28-.81.319-1.273.036-.447.036-.998.036-1.671V6.968c0-.674 0-1.225-.037-1.672-.037-.463-.118-.882-.317-1.272a3.25 3.25 0 0 0-1.42-1.42c-.391-.2-.81-.28-1.273-.318-.447-.037-.998-.037-1.672-.037M6 16a1 1 0 1 0 0 2h.009a1 1 0 1 0 0-2zm3.25-9.255a.496.496 0 0 0-.497-.495H3.248a.496.496 0 0 0-.498.495v.505a.5.5 0 0 0 .5.5h5.5a.5.5 0 0 0 .5-.5zm9.042-.315-.153-.57a.49.49 0 0 0-.62-.338l-5.113 1.574a.495.495 0 0 0-.335.599l.103.385.028.105a.5.5 0 0 0 .63.349L18.01 6.94a.42.42 0 0 0 .282-.51m-1.476 10.52a1 1 0 0 1 .707-1.225l.008-.002a1 1 0 0 1 .518 1.932l-.009.002a1 1 0 0 1-1.224-.707" clip-rule="evenodd"/></svg>