<svg xmlns="http://www.w3.org/2000/svg" fill="none" viewBox="0 0 24 24"><path fill="currentColor" d="M11.556 1.25h-1.112c-1.838 0-3.294 0-4.433.153-1.172.158-2.121.49-2.87 1.238-.748.749-1.08 1.698-1.238 2.87-.153 1.14-.153 2.595-.153 4.433v4.112c0 1.838 0 3.294.153 4.433.158 1.172.49 2.121 1.238 2.87.749.748 1.698 1.08 2.87 1.238 1.14.153 2.595.153 4.433.153h1.112c1.838 0 3.294 0 4.433-.153q.264-.035.512-.084v-1.516a7 7 0 0 1-.717-.045c-.358-.046-1.31-.203-1.903-1.111-.675-1.032-.285-2.047-.1-2.432.11-.23.39-.65.586-.943.086-.129.174-.257.255-.376l-.12-.519a6 6 0 0 1-.152-.893c-.028-.45.028-1.216.647-1.87.562-.593 1.248-.726 1.603-.77.31-.038.662-.038.926-.038h1.951c.221 0 .505 0 .773.022V9.944c0-1.838 0-3.294-.153-4.433-.158-1.172-.49-2.121-1.238-2.87-.749-.748-1.698-1.08-2.87-1.238-1.14-.153-2.595-.153-4.433-.153" opacity=".4"/><path fill="currentColor" fill-rule="evenodd" d="M7 6.25a.75.75 0 0 0 0 1.5h8a.75.75 0 0 0 0-1.5zm0 5a.75.75 0 0 0 0 1.5h5.5a.75.75 0 0 0 0-1.5zm0 5a.75.75 0 0 0 0 1.5h4a.75.75 0 0 0 0-1.5zm12.44-3h-1.88c-.292 0-.577 0-.808.029-.249.03-.584.109-.849.388-.285.302-.325.66-.307.931.014.225.075.486.13.725l.236 1.023c-.206.297-.934 1.348-1.056 1.603-.131.273-.284.744.02 1.208.273.419.726.518 1.015.555.296.038.676.038 1.088.038h.72V22a.75.75 0 0 0 1.5 0v-2.25h.721c.412 0 .792 0 1.088-.038.289-.037.742-.136 1.016-.555.303-.464.15-.935.02-1.208-.123-.255-.85-1.306-1.057-1.604l.236-1.022c.055-.24.116-.5.13-.725.018-.271-.022-.629-.307-.93-.265-.28-.6-.359-.849-.39a7 7 0 0 0-.808-.028" clip-rule="evenodd"/></svg>