<svg xmlns="http://www.w3.org/2000/svg" fill="none" viewBox="0 0 24 24"><path fill="currentColor" fill-rule="evenodd" d="M2 7c0-.55.45-1 1-1h2.5c.27 0 .52.11.71.29l4.08 4.09c.52-.24 1.1-.38 1.71-.38 2.21 0 4 1.79 4 4s-1.79 4-4 4a3.999 3.999 0 0 1-3.25-6.33L5.09 8H3c-.55 0-1-.45-1-1m10 5c-1.1 0-2 .9-2 2s.9 2 2 2 2-.9 2-2-.9-2-2-2" clip-rule="evenodd"/><path fill="currentColor" fill-rule="evenodd" d="M21 12.992a1.005 1.005 0 0 1 0 2.01 1.005 1.005 0 0 1 0-2.01m-3 .01a1.005 1.005 0 0 1 0 2.01 1.005 1.005 0 0 1 0-2.01m-15 0a1.005 1.005 0 0 1 0 2.01 1.005 1.005 0 0 1 0-2.01m3 .01a1.005 1.005 0 0 1 0 2.01 1.005 1.005 0 0 1 0-2.01m7 .98c0-.55-.45-1-1-1s-1 .45-1 1c0 .56.45 1.01 1 1.01s1-.45 1-1z" clip-rule="evenodd" opacity=".4"/></svg>