<svg xmlns="http://www.w3.org/2000/svg" fill="none" viewBox="0 0 24 24"><path fill="currentColor" d="M17.038 10.25c.9 0 1.63 0 2.22.05.61.06 1.14.17 1.62.45.57.33 1.04.8 1.37 1.38.28.48.39 1.01.45 1.61.05.59.05 1.39.05 2.3s0 1.63-.05 2.22c-.05.6-.17 1.13-.45 1.62-.33.57-.8 1.04-1.37 1.37-.48.28-1.01.39-1.62.45-.59.05-1.32.05-2.22.05H6.968c-.9 0-1.63 0-2.22-.05-.61-.06-1.14-.17-1.62-.45a3.75 3.75 0 0 1-1.37-1.37c-.28-.49-.39-1.02-.45-1.62-.05-.59-.05-1.32-.05-2.22 0-.91 0-1.71.05-2.3.06-.6.17-1.13.45-1.61.33-.58.8-1.05 1.37-1.38.48-.28 1.01-.39 1.62-.45.59-.05 1.32-.05 2.22-.05z" opacity=".4"/><path fill="currentColor" fill-rule="evenodd" d="M12.007 4.25c-1.26 0-2.41.61-3.22 1.62-.34.44-.97.51-1.4.16a1 1 0 0 1-.16-1.4c1.15-1.44 2.85-2.38 4.78-2.38s3.64.94 4.78 2.38a1 1 0 0 1-.16 1.4.98.98 0 0 1-1.4-.16c-.81-1.01-1.96-1.62-3.22-1.62m0 4c-.46 0-.9.22-1.22.62-.34.44-.97.51-1.4.16a1 1 0 0 1-.16-1.4c.66-.83 1.65-1.38 2.78-1.38s2.13.55 2.78 1.38a1 1 0 0 1-.16 1.4.98.98 0 0 1-1.4-.16c-.32-.4-.76-.62-1.22-.62m.19 5.49a.736.736 0 0 0-.96-.44.74.74 0 0 0-.44.96l1.5 4c.11.3.39.49.7.49s.59-.19.7-.49l1.5-4a.75.75 0 0 0-.44-.96.74.74 0 0 0-.96.44l-.8 2.12zm-6.44.26c0-.41-.34-.75-.75-.75s-.75.34-.75.75v4c0 .41.34.75.75.75h1.5c.41 0 .75-.34.75-.75s-.34-.75-.75-.75h-.75zm4 0c0-.41-.34-.75-.75-.75s-.75.34-.75.75v4c0 .41.34.75.75.75s.75-.34.75-.75zm7.25-.75c-.41 0-.75.34-.75.75v4c0 .41.34.75.75.75h2c.41 0 .75-.34.75-.75s-.34-.75-.75-.75h-1.25v-.5h.75c.41 0 .75-.34.75-.75s-.34-.75-.75-.75h-.75v-.5h1.25c.41 0 .75-.34.75-.75s-.34-.75-.75-.75z" clip-rule="evenodd"/></svg>