<svg xmlns="http://www.w3.org/2000/svg" fill="none" viewBox="0 0 24 24"><path fill="currentColor" d="M3.75 11.087C3.75 6.519 7.522 2.75 12 2.75s8.25 3.769 8.25 8.337c0 4.664-3.848 7.825-7.08 9.842l-.012.008-.011.006a2.3 2.3 0 0 1-2.294 0l-.013-.008-.013-.008c-3.22-2.032-7.077-5.16-7.077-9.84" opacity=".4"/><path fill="currentColor" fill-rule="evenodd" d="M3.249 7.4a1 1 0 1 0-1.833-.8c-1.221 2.8-1.221 6 0 8.8a1 1 0 1 0 1.833-.8 9.03 9.03 0 0 1 0-7.2m19.335-.8a1 1 0 0 0-1.833.8 9.03 9.03 0 0 1 0 7.2 1 1 0 1 0 1.833.8c1.221-2.8 1.221-6 0-8.8M12 7.5a3.5 3.5 0 1 0 0 7 3.5 3.5 0 0 0 0-7" clip-rule="evenodd"/></svg>