<svg xmlns="http://www.w3.org/2000/svg" fill="none" viewBox="0 0 24 24"><path fill="currentColor" d="M4.842 8.016C6.052 5.105 8.95 3.25 12 3.25s5.948 1.855 7.159 4.766c1.125 2.706.514 5.018-.75 6.987-1.043 1.626-2.57 3.074-3.93 4.361q-.361.343-.702.67a2.56 2.56 0 0 1-3.555 0l-.002-.002q-.36-.349-.744-.712c-1.345-1.279-2.851-2.712-3.884-4.318-1.266-1.967-1.878-4.276-.751-6.986" opacity=".4"/><path fill="currentColor" fill-rule="evenodd" d="M3.749 7.4a1 1 0 1 0-1.833-.8 11.03 11.03 0 0 0 0 8.802 1 1 0 1 0 1.833-.8 9.03 9.03 0 0 1 0-7.202m18.335-.8a1 1 0 0 0-1.833.8 9.03 9.03 0 0 1 0 7.202 1 1 0 0 0 1.833.8 11.03 11.03 0 0 0 0-8.801M12 8a3 3 0 1 0 0 6 3 3 0 0 0 0-6" clip-rule="evenodd"/></svg>