<svg xmlns="http://www.w3.org/2000/svg" fill="none" viewBox="0 0 24 24"><path fill="currentColor" fill-rule="evenodd" d="M12.024 3.205c-4.873 0-8.82 3.94-8.82 8.795s3.947 8.796 8.82 8.796a8.82 8.82 0 0 0 8.087-5.279.977.977 0 0 1 1.79.784 10.78 10.78 0 0 1-9.877 6.449C6.076 22.75 1.25 17.94 1.25 12S6.076 1.25 12.024 1.25c4.715 0 8.722 3.022 10.183 7.23.27.78.454 1.598.538 2.446a.978.978 0 0 1-1.167 1.054l-2.401-.488a.977.977 0 0 1-.462-1.682l1.097-.994c.156-.14.233-.211.252-.31.019-.098-.025-.188-.113-.368a8.82 8.82 0 0 0-7.927-4.933" clip-rule="evenodd" opacity=".4"/><path fill="currentColor" fill-rule="evenodd" d="M9.5 10.25V9.187c0-1.372 1.145-2.438 2.5-2.438s2.5 1.066 2.5 2.438v1.061q.113.034.224.083c.62.275 1.097.796 1.342 1.43.106.274.147.555.166.852.018.285.018.633.018 1.05v.047c0 .417 0 .765-.018 1.05-.02.297-.06.578-.166.852a2.57 2.57 0 0 1-1.342 1.43c-.272.12-.551.166-.837.187-.271.02-.6.02-.986.02H11.1c-.386 0-.715 0-.986-.02a2.5 2.5 0 0 1-.837-.187 2.57 2.57 0 0 1-1.342-1.43 2.8 2.8 0 0 1-.166-.852 18 18 0 0 1-.018-1.05v-.047c0-.417 0-.765.018-1.05.02-.297.06-.578.166-.852a2.57 2.57 0 0 1 1.342-1.43 2 2 0 0 1 .224-.083M11 9.187c0-.493.422-.938 1-.938s1 .445 1 .938v.937h-2z" clip-rule="evenodd"/></svg>