<svg xmlns="http://www.w3.org/2000/svg" fill="none" viewBox="0 0 24 24"><path fill="currentColor" fill-rule="evenodd" d="M11.162 2.34c.088.09.088.23.088.51v16.3c0 .28 0 .42-.088.51s-.229.09-.512.09h-.706c-1.838 0-3.294 0-4.433-.15-1.172-.16-2.121-.49-2.87-1.24-.748-.75-1.08-1.7-1.238-2.87-.153-1.14-.153-2.6-.153-4.43v-.12c0-1.83 0-3.29.153-4.43.158-1.17.49-2.12 1.238-2.87.749-.75 1.698-1.08 2.87-1.24 1.139-.15 2.595-.15 4.433-.15h.706c.283 0 .424 0 .512.09m1.676 17.32c-.088-.09-.088-.23-.088-.51V2.85c0-.28 0-.42.088-.51s.229-.09.512-.09h.706c1.838 0 3.294 0 4.433.15 1.172.16 2.121.49 2.87 1.24.748.75 1.08 1.7 1.238 2.87.153 1.14.153 2.6.153 4.43v.12c0 1.83 0 3.29-.153 4.43-.158 1.17-.49 2.12-1.238 2.87-.749.75-1.698 1.08-2.87 1.24-1.139.15-2.595.15-4.433.15h-.706c-.283 0-.424 0-.512-.09" clip-rule="evenodd" opacity=".4"/><path fill="currentColor" fill-rule="evenodd" d="M4.75 7c0 .41.336.75.75.75h3c.414 0 .75-.34.75-.75s-.336-.75-.75-.75h-3c-.414 0-.75.34-.75.75M3.003 18.68c.564.43 1.227.68 1.997.83v1.24c0 .55-.448 1-1 1s-1-.45-1-1v-2c0-.02.001-.05.003-.07M19 19.51c.77-.15 1.433-.4 1.997-.83l.003.07v2c0 .55-.448 1-1 1s-1-.45-1-1zM5.5 10.75a.753.753 0 0 1-.75-.75c0-.41.336-.75.75-.75h3c.414 0 .75.34.75.75s-.336.75-.75.75zM7.242 14c0 .55.448 1 1 1h.009c.552 0 1-.45 1-1s-.448-1-1-1h-.009c-.552 0-1 .45-1 1M15.5 7.75a.753.753 0 0 1-.75-.75c0-.41.336-.75.75-.75h3c.414 0 .75.34.75.75s-.336.75-.75.75zM14.75 10c0 .41.336.75.75.75h3c.414 0 .75-.34.75-.75s-.336-.75-.75-.75h-3c-.414 0-.75.34-.75.75m3 5c-.552 0-1-.45-1-1s.448-1 1-1h.009c.552 0 1 .45 1 1s-.448 1-1 1z" clip-rule="evenodd"/></svg>