<svg xmlns="http://www.w3.org/2000/svg" fill="none" viewBox="0 0 24 24"><path fill="currentColor" fill-rule="evenodd" d="M7.96 5.184a.97.97 0 0 1-.272 1.35A7.77 7.77 0 0 0 4.2 13.02c0 4.3 3.492 7.784 7.8 7.784s7.8-3.485 7.8-7.784a7.77 7.77 0 0 0-3.488-6.487.97.97 0 0 1-.272-1.349.976.976 0 0 1 1.352-.271 9.72 9.72 0 0 1 4.358 8.107c0 5.374-4.365 9.73-9.75 9.73s-9.75-4.356-9.75-9.73a9.72 9.72 0 0 1 4.358-8.107.976.976 0 0 1 1.352.271" clip-rule="evenodd" opacity=".4"/><path fill="currentColor" fill-rule="evenodd" d="M12 1.25a1 1 0 0 1 1 1v8a1 1 0 1 1-2 0v-8a1 1 0 0 1 1-1" clip-rule="evenodd"/></svg>