<svg xmlns="http://www.w3.org/2000/svg" fill="none" viewBox="0 0 24 24"><path fill="currentColor" d="m15.455 10.162 4.236-2.4c.36-.205.541-.307.688-.226s.156.284.176.69c.026.546.04 1.18.056 1.929.008.352.012.548.014.7.008.56.446 1.02 1.006 1.02.544 0 .998-.434.994-.977-.002-.167-.007-.37-.016-.786l-.002-.075c-.03-1.466-.057-2.677-.227-3.658-.182-1.045-.54-1.92-1.29-2.672a4.2 4.2 0 0 0-1.406-.938 1 1 0 0 0-.25-.096 6.5 6.5 0 0 0-1.05-.266c-1-.174-2.242-.205-3.752-.243l-.075-.002a98 98 0 0 0-5.364 0l-.075.002c-1.51.038-2.751.069-3.752.243-1.063.185-1.952.544-2.706 1.3-.75.751-1.108 1.627-1.29 2.672-.17.981-.196 2.192-.227 3.658l-.002.075a50 50 0 0 0 0 2.526l.002.075c.03 1.466.057 2.677.227 3.658.182 1.045.54 1.92 1.29 2.672.754.756 1.643 1.116 2.706 1.3 1 .174 2.243.206 3.752.243l.075.002c.681.017 1.788.028 2.684.034a.993.993 0 0 0 .998-.995c0-.551-.447-.998-.998-1.001-.882-.006-1.968-.017-2.634-.033-1.603-.04-2.696-.07-3.534-.216-.794-.138-1.256-.365-1.633-.742-.38-.382-.603-.838-.737-1.606-.141-.815-.167-1.874-.2-3.434-.02-.97-.02-1.47 0-2.44.016-.75.03-1.383.056-1.93.02-.405.03-.608.176-.689.147-.08.327.022.688.226l4.236 2.4c1.3.736 2.399 1.213 3.58 1.213s2.28-.477 3.58-1.213" opacity=".4"/><path fill="currentColor" fill-rule="evenodd" d="m17.498 15.033 3.219 3.22a2.5 2.5 0 0 0-3.22-3.22m1.827 4.656-3.264-3.264a2.5 2.5 0 0 0 3.263 3.263m-4.1-5.528a4.5 4.5 0 1 1 6.299 6.428 4.5 4.5 0 0 1-6.298-6.428" clip-rule="evenodd"/></svg>