<svg xmlns="http://www.w3.org/2000/svg" fill="none" viewBox="0 0 24 24"><path fill="currentColor" d="M14.92 2.037a116 116 0 0 0-5.84 0h-.06c-1.525.04-2.751.07-3.734.242-1.03.179-1.868.523-2.574 1.232-.704.707-1.045 1.532-1.221 2.544-.169.965-.193 2.162-.226 3.645v.058a68 68 0 0 0 0 2.984v.058c.034 1.483.058 2.68.226 3.645.176 1.012.519 1.837 1.223 2.544.706.709 1.543 1.053 2.573 1.232.982.172 2.21.203 3.735.24h.057q1.066.029 2.127.036c.258.002.388.003.473-.067s.109-.206.159-.48c.03-.17.064-.328.091-.453l.123-.662c.04-.233.093-.533.172-.843.162-.63.47-1.486 1.205-2.221l3.41-3.412c.24-.237.6-.6 1.04-.854a3.77 3.77 0 0 1 3.77 0c.53.266.79.399.92.345a.4.4 0 0 0 .08-.048c.1-.09.1-.332.1-.815 0-.41-.01-.818-.02-1.23V9.7c-.03-1.483-.05-2.68-.22-3.645-.18-1.012-.52-1.837-1.22-2.544-.71-.71-1.55-1.053-2.58-1.232-.98-.172-2.21-.202-3.73-.241z" opacity=".4"/><path fill="currentColor" fill-rule="evenodd" d="M7.51 6.89a1 1 0 0 0-1.02 1.72l2.942 1.74c.876.517 1.677.9 2.567.9s1.692-.383 2.57-.9l2.94-1.74c.47-.28.63-.894.35-1.37a1 1 0 0 0-1.37-.352l-2.94 1.74c-.84.496-1.24.621-1.55.621s-.709-.125-1.549-.62zm13.39 5.914a2.27 2.27 0 0 0-2.27 0c-.26.15-.5.386-.77.66l-3.37 3.367c-.47.466-.682 1.028-.81 1.532a9 9 0 0 0-.15.735l-.129.692-.005.022a6 6 0 0 0-.142.843c-.018.279.01.684.333 1.007.324.324.733.352 1.003.334.242-.015.518-.073.805-.134l.065-.013.69-.128c.23-.04.48-.085.74-.15.5-.13 1.06-.346 1.53-.811l3.37-3.368c.27-.273.5-.507.66-.77.4-.701.4-1.567 0-2.27-.16-.261-.39-.496-.66-.77h-.01a2 2 0 0 0-.11-.118l-.067-.066c-.25-.246-.464-.456-.703-.594" clip-rule="evenodd"/></svg>