<svg xmlns="http://www.w3.org/2000/svg" fill="none" viewBox="0 0 24 24"><path fill="currentColor" d="M14.795 1.662c-1.953-.05-3.887-.05-5.84 0l-.058.001c-1.525.039-2.752.07-3.735.24-1.03.18-1.867.524-2.573 1.233-.704.707-1.046 1.532-1.222 2.544-.168.965-.193 2.162-.225 3.645l-.001.058a70 70 0 0 0 0 2.984l.001.058c.032 1.483.057 2.68.225 3.645.176 1.012.518 1.837 1.222 2.544.706.71 1.543 1.053 2.573 1.232.983.172 2.21.203 3.735.24l.058.002c1.477.037 3.355.036 5.027.012.565-.009.847-.013.933-.157a.3.3 0 0 0 .038-.107c.026-.166-.194-.353-.634-.725a9 9 0 0 1-1.028-.998 4.4 4.4 0 0 1-.534-.77 3.1 3.1 0 0 1-.382-1.468c0-.657.224-1.172.383-1.468.168-.316.369-.576.533-.77a9 9 0 0 1 1.028-.998c.297-.25.602-.49.84-.677l.068-.053a24 24 0 0 0 .405-.327 2.5 2.5 0 0 1 3.536.05c.4.413.631.852.691 1.62.017.218.026.327.076.396.051.07.151.11.35.189q.648.26 1.218.644c.479.323.718.484.875.404s.167-.342.187-.865c.02-.491.03-1.021.043-1.595l.001-.058c.021-.997.021-1.987 0-2.984l-.001-.058c-.032-1.483-.057-2.68-.225-3.645-.176-1.012-.518-1.837-1.222-2.544-.707-.71-1.543-1.053-2.573-1.232-.983-.172-2.21-.202-3.735-.24z" opacity=".4"/><path fill="currentColor" fill-rule="evenodd" d="M7.384 6.514a1 1 0 0 0-1.018 1.722l2.942 1.74c.876.517 1.678.9 2.567.9s1.692-.383 2.567-.9l2.942-1.74a1 1 0 0 0-1.018-1.722l-2.942 1.74c-.84.497-1.239.621-1.549.621s-.709-.124-1.549-.621zm15.491 14.861v-1.5a5 5 0 0 0-4.5-4.975v-1.526a1 1 0 0 0-1.697-.716c-.08.077-.249.213-.525.43l-.06.048c-.242.19-.53.415-.804.648a7.6 7.6 0 0 0-.856.826 3 3 0 0 0-.353.505c-.097.18-.205.445-.205.76s.108.58.205.76c.1.189.229.36.353.505.248.291.562.577.856.826.275.233.562.459.804.649l.06.047c.276.217.446.353.525.43a1 1 0 0 0 1.697-.717v-1.458a3 3 0 0 1 2.5 2.958v1.5a1 1 0 1 0 2 0" clip-rule="evenodd"/></svg>