<svg xmlns="http://www.w3.org/2000/svg" fill="none" viewBox="0 0 24 24"><path fill="currentColor" d="M9.08 1.787c1.953-.05 3.887-.05 5.84 0l.058.001c1.525.039 2.752.07 3.735.24 1.03.18 1.866.524 2.573 1.233.704.707 1.046 1.532 1.222 2.544.168.965.193 2.162.225 3.645l.001.058c.015.692.016 1.544.008 2.333-.005.46-.007.69-.142.777s-.349-.005-.777-.19c-.55-.238-1.15-.492-1.19-.506-.607-.299-1.495-.672-2.634-.672s-2.027.373-2.633.672l-.503.257-.005.003c-.333.174-.449.23-.57.267l-.024.007c-.161.049-.387.117-.563.183l-.011.004c-.144.053-.64.237-1.055.676-.37.39-.531.806-.609 1.066-.057.19-.098.406-.115.5l-.003.016c-.288 1.518-.176 3.057.35 4.428.169.441.253.662.163.792s-.31.13-.75.129q-1.292-.004-2.591-.037l-.058-.001c-1.525-.038-2.752-.07-3.735-.24-1.03-.18-1.867-.524-2.573-1.233-.704-.707-1.046-1.532-1.222-2.544-.168-.965-.193-2.162-.225-3.645l-.001-.058a70 70 0 0 1 0-2.984l.001-.058c.032-1.483.057-2.68.225-3.645.176-1.012.518-1.837 1.222-2.544.706-.71 1.543-1.053 2.573-1.232.983-.172 2.21-.202 3.735-.24z" opacity=".4"/><path fill="currentColor" fill-rule="evenodd" d="M7.51 6.64a1 1 0 0 0-1.02 1.72l2.942 1.74c.876.517 1.678.9 2.567.9s1.692-.383 2.567-.9l2.942-1.74a1 1 0 0 0-1.018-1.722L13.55 8.38c-.84.496-1.24.62-1.55.62s-.709-.124-1.549-.621zm10.488 6.11c-.802 0-1.446.26-1.971.518a20 20 0 0 0-.473.242c-.31.163-.551.29-.832.374-.18.055-.367.112-.498.16a1.3 1.3 0 0 0-.501.306c-.15.158-.22.332-.261.466-.034.111-.062.26-.082.364-.557 2.937.672 5.776 3.685 6.872.273.1.544.198.935.198.39 0 .661-.099.934-.198 3.013-1.096 4.241-3.935 3.684-6.872-.02-.104-.048-.253-.082-.364a1.14 1.14 0 0 0-.26-.466 1.3 1.3 0 0 0-.502-.306c-.13-.049-.318-.105-.498-.16-.281-.085-.523-.212-.833-.374q-.208-.111-.473-.242c-.526-.259-1.17-.518-1.972-.518" clip-rule="evenodd"/></svg>