<svg xmlns="http://www.w3.org/2000/svg" fill="none" viewBox="0 0 24 24"><path fill="currentColor" d="M11.999 1.75c-.764 0-1.454.23-2.201.61-.723.37-1.555.91-2.597 1.59L3.277 6.52c-.697.45-1.253.81-1.581 1.39-.048.08-.072.12-.08.19-.006.05.01.13.039.18.03.05.079.09.174.16l.614.46 4.262 3.08c.47.34.898.65 1.293.93.493.35.883.55 1.276.67.397.12.84.17 1.462.17h2.527c.622 0 1.065-.05 1.465-.17.39-.12.78-.32 1.27-.67.4-.28.83-.59 1.3-.93l4.25-3.08.63-.48c.08-.06.13-.09.16-.14a.36.36 0 0 0 .04-.2.4.4 0 0 0-.08-.17c-.32-.58-.88-.94-1.58-1.39l-3.92-2.57c-1.04-.68-1.87-1.22-2.6-1.59-.745-.38-1.435-.61-2.2-.61"/><path fill="currentColor" d="m16.868 14.14 1.3-.94 3.59-2.6c.41-.3.61-.44.78-.36.16.08.16.33.17.84l.04 3.55c-.03 1.46-.06 2.65-.23 3.6-.17 1.01-.52 1.83-1.22 2.53-.71.7-1.55 1.04-2.58 1.21-.98.17-2.21.2-3.74.24h-.06c-1.952.05-3.888.05-5.843 0h-.057c-1.528-.04-2.757-.07-3.741-.24-1.03-.17-1.868-.51-2.576-1.21-.707-.7-1.05-1.52-1.227-2.53-.168-.95-.194-2.14-.226-3.6l.042-3.55c.006-.51.009-.76.172-.84s.37.06.78.36l3.584 2.6c.468.34.901.65 1.302.94.583.41 1.119.7 1.713.88.591.17 1.196.23 1.894.23h2.527c.698 0 1.306-.06 1.896-.23.59-.18 1.13-.47 1.71-.88" opacity=".4"/></svg>