<svg xmlns="http://www.w3.org/2000/svg" fill="none" viewBox="0 0 24 24"><path fill="currentColor" d="M9.08 1.788c1.953-.05 3.887-.05 5.84 0h.06c1.52.04 2.75.07 3.73.24 1.03.18 1.87.52 2.58 1.23.7.71 1.04 1.53 1.22 2.55.17.96.19 2.16.22 3.64v.06c.03.99.03 1.99 0 2.98v.17c0 .1 0 .14-.01.16-.03.22-.21.32-.41.23-.02 0-.07-.03-.17-.1-1.41-.84-2.8-.84-3.91-.45-.12.04-.18.06-.23.06s-.11-.02-.23-.06c-1.11-.39-2.5-.39-3.908.45-1.614.97-2.312 2.84-2.062 4.66.076.55.253 1.12.505 1.68.209.46.313.69.223.82-.088.14-.324.14-.793.14-.883 0-1.768-.01-2.656-.04h-.058c-1.525-.04-2.751-.07-3.734-.24-1.03-.18-1.868-.52-2.574-1.23-.704-.71-1.045-1.53-1.221-2.55-.169-.96-.193-2.16-.226-3.64v-.06c-.022-.99-.022-1.99 0-2.98v-.06c.034-1.48.058-2.68.226-3.64.176-1.02.519-1.84 1.223-2.55.706-.71 1.543-1.05 2.573-1.23.982-.17 2.21-.2 3.735-.24z" opacity=".4"/><path fill="currentColor" fill-rule="evenodd" d="M17.86 6.988c-.28-.47-.89-.63-1.37-.35l-2.94 1.74c-.84.5-1.24.62-1.55.62s-.709-.12-1.549-.62L7.51 6.638a1.006 1.006 0 0 0-1.37.35 1 1 0 0 0 .352 1.37l2.942 1.74c.876.52 1.677.9 2.567.9s1.692-.38 2.57-.9l2.94-1.74c.47-.28.63-.89.35-1.37m3.51 7.251c-1.35-.8-2.6-.5-3.37.05-.77-.55-2.02-.85-3.37-.05-1.006.6-1.528 1.83-1.344 3.16.187 1.34 1.064 2.79 2.814 4.04.55.4 1.12.81 1.9.81s1.35-.41 1.9-.81c1.75-1.25 2.63-2.7 2.81-4.04.19-1.33-.33-2.56-1.34-3.16" clip-rule="evenodd"/></svg>