<svg xmlns="http://www.w3.org/2000/svg" fill="none" viewBox="0 0 24 24"><path fill="currentColor" fill-rule="evenodd" d="M6.492 1.25c-1.52 0-2.75 1.23-2.75 2.75s1.23 2.75 2.75 2.75S9.242 5.52 9.242 4s-1.23-2.75-2.75-2.75m11 0c-1.52 0-2.75 1.23-2.75 2.75s1.23 2.75 2.75 2.75 2.75-1.23 2.75-2.75-1.23-2.75-2.75-2.75" clip-rule="evenodd"/><path fill="currentColor" fill-rule="evenodd" d="M8.784 7.58c-.59-.08-1.34-.08-2.24-.08h.01c-.9 0-1.76 0-2.35.08-.63.08-1.19.27-1.65.73-.45.45-.64 1.02-.72 1.65-.08.59-.08 1.34-.08 2.24v1.84c0 .44 0 .83.04 1.16.05.35.16.73.47 1.04s.69.42 1.04.47q.21.03.45.03v3.3c0 .44 0 .83.04 1.16.05.35.16.73.47 1.04s.69.42 1.04.47c.32.04.81.04 1.24.04s.83 0 1.15-.04c.36-.05.73-.16 1.04-.47s.42-.69.47-1.04c.04-.33.04-.72.04-1.16v-3.3q.24 0 .45-.03c.36-.05.73-.16 1.04-.47s.42-.69.47-1.04c.04-.33.04-.72.04-1.16V12.2c0-.9 0-1.65-.08-2.24-.09-.63-.28-1.2-.73-1.65-.45-.46-1.02-.65-1.65-.73m8.71-.08c-1.33 0-2.39.99-2.87 2.28h.01l-1.26 3.11c-.23.61-.42 1.13-.53 1.56-.11.44-.16.92.06 1.39.26.55.74.76 1.18.84.2.04.43.05.67.06v3.3c0 .44 0 .83.04 1.16.05.35.16.73.47 1.04s.68.42 1.04.47c.32.04.81.04 1.24.04s.83 0 1.15-.04c.36-.05.73-.16 1.04-.47s.42-.69.47-1.04c.04-.33.04-.72.04-1.16v-3.3c.24-.01.47-.02.67-.06.44-.08.93-.29 1.18-.84.22-.47.17-.95.06-1.39-.11-.43-.3-.95-.53-1.56l-1.26-3.11c-.48-1.29-1.54-2.28-2.87-2.28" clip-rule="evenodd" opacity=".4"/></svg>