<svg xmlns="http://www.w3.org/2000/svg" fill="none" viewBox="0 0 24 24"><path fill="currentColor" d="M1.996 7.085C3.524 3.513 7.174 1.25 11.001 1.25c3.826 0 7.476 2.263 9.004 5.835.42.983.65 1.924.721 2.823.023.284.035.426-.056.492-.092.066-.234.006-.52-.113a6.9 6.9 0 0 0-2.648-.537 6.8 6.8 0 0 0-2.113.338c-.216.07-.324.105-.398.067s-.11-.15-.181-.374A4.002 4.002 0 0 0 6.999 11a4 4 0 0 0 3.408 3.957c.23.034.344.05.394.116.049.066.034.178.003.402-.23 1.688.312 3.175 1.111 4.38.361.544.79 1.054 1.23 1.522.115.123.173.184.178.254a.2.2 0 0 1-.001.043c-.01.07-.07.127-.192.24a3.12 3.12 0 0 1-2.13.836c-.79 0-1.554-.297-2.129-.835l-.001-.002q-.467-.438-.962-.895l-.002-.001c-1.729-1.6-3.645-3.372-4.96-5.357-1.602-2.423-2.372-5.251-.95-8.575" opacity=".4"/><path fill="currentColor" fill-rule="evenodd" d="M17.501 11.25c-2.052 0-4.018 1.21-4.845 3.138-.774 1.805-.346 3.35.508 4.638.69 1.039 1.695 1.966 2.571 2.774q.248.228.48.444v.002a1.887 1.887 0 0 0 2.571 0l.453-.418c.885-.814 1.904-1.75 2.6-2.802.854-1.29 1.28-2.835.508-4.638-.828-1.929-2.794-3.138-4.846-3.138m-.009 3.25c-1.1 0-1.991.895-1.991 2s.891 2 1.991 2h.018c1.1 0 1.991-.895 1.991-2s-.892-2-1.991-2z" clip-rule="evenodd"/></svg>