<svg xmlns="http://www.w3.org/2000/svg" fill="none" viewBox="0 0 24 24"><path fill="currentColor" d="M1.25 10.926c0-5.316 4.476-9.676 9.753-9.676 4.929 0 9.159 3.803 9.696 8.637.033.3.05.45-.043.518-.092.068-.241.005-.54-.122a6.67 6.67 0 0 0-4.716-.191c-.218.072-.327.108-.401.07s-.11-.15-.183-.377A4.003 4.003 0 0 0 7.002 11a4 4 0 0 0 3.426 3.959c.233.034.35.05.4.117.049.067.032.18-.002.405a6.6 6.6 0 0 0-.073.982c0 1.933.829 3.488 1.837 4.66q.148.172.3.334c.163.172.244.258.232.352s-.108.154-.3.276q-.25.16-.5.311l-.011.007-.012.007a2.64 2.64 0 0 1-2.592 0l-.013-.008-.013-.008c-1.96-1.213-4.055-2.721-5.663-4.591-1.616-1.879-2.768-4.155-2.768-6.877" opacity=".4"/><path fill="currentColor" fill-rule="evenodd" d="M17.5 11.25c-2.84 0-5.25 2.343-5.25 5.213 0 1.475.626 2.697 1.474 3.683.84.978 1.925 1.756 2.918 2.37l.013.008.013.008a1.7 1.7 0 0 0 1.664 0l.012-.007.011-.007c.998-.61 2.083-1.391 2.923-2.372.847-.988 1.472-2.212 1.472-3.683 0-2.87-2.41-5.213-5.25-5.213m-.009 3.25c-1.1 0-1.991.895-1.991 2s.891 2 1.991 2h.018c1.1 0 1.991-.895 1.991-2s-.891-2-1.991-2z" clip-rule="evenodd"/></svg>