<svg xmlns="http://www.w3.org/2000/svg" fill="none" viewBox="0 0 24 24"><path fill="currentColor" fill-rule="evenodd" d="M7.249 2.97c0-.327 0-.49-.116-.581a.3.3 0 0 0-.046-.03c-.13-.067-.268-.004-.543.123a9 9 0 0 0-.307.15L7.25 3.644zm7 2.192c0-.181 0-.271-.045-.344s-.126-.113-.288-.193l-2.774-1.38c-.67-.333-1.217-.605-1.69-.788-.293-.112-.439-.169-.568-.084l-.01.007c-.125.09-.125.258-.125.596v2.237l5.5 5.5zm1.671.089a.17.17 0 0 0-.171.17v6.792l6.925 6.924c.075-.6.075-1.353.075-2.257v-6.842c0-.92 0-1.684-.08-2.29-.083-.637-.267-1.21-.72-1.673-.454-.465-1.023-.656-1.653-.743-.596-.081-1.346-.081-2.244-.081z" clip-rule="evenodd" opacity=".4"/><path fill="currentColor" fill-rule="evenodd" d="M2.707 1.293a1 1 0 0 0-1.414 1.414L3.09 4.505a9 9 0 0 0-.651.419c-.332.24-.614.505-.821.869-.207.362-.293.741-.333 1.151-.037.387-.037.853-.037 1.404v8.24c0 .728 0 1.331.046 1.803.047.476.15.954.462 1.34.34.422.819.709 1.352.804.493.088.96-.06 1.392-.255.425-.192.997-.524 1.616-.883.283-.164.537-.31.773-.433.181-.093.272-.14.315-.212.044-.072.044-.166.044-.356V8.663l1.5 1.5v8.105c0 .202 0 .303.048.378.047.074.147.119.345.21.221.1.502.238.88.426l3.815 1.897a.285.285 0 0 0 .412-.258v-5.258l1.5 1.5v4.397c0 .06.049.11.11.11h2.193c.844 0 1.558 0 2.135-.069l1.106 1.106a1 1 0 0 0 1.414-1.414z" clip-rule="evenodd"/></svg>