<svg xmlns="http://www.w3.org/2000/svg" fill="none" viewBox="0 0 24 24"><path fill="currentColor" d="M10.319 3.185a.977.977 0 1 0-.39-1.915C4.979 2.275 1.25 6.652 1.25 11.9c0 5.992 4.857 10.849 10.849 10.849 5.25 0 9.626-3.728 10.631-8.68a.977.977 0 0 0-1.915-.389 8.85 8.85 0 0 1-1.45 3.352.3.3 0 0 1-.13.1 3 3 0 0 1-.45.133 5.4 5.4 0 0 1-2.18-.067 10 10 0 0 1-1.652-.56c-.759-.286-1.89-1.017-2.378-1.364l-.005-.003c-.203-.142-.65-.474-.655-.478-.204-.152-.416-.31-.623-.455-.938-.687-2.153-1.29-2.643-1.507-.76-.32-1.45-.5-2.082-.574-.546-.104-1.126-.05-1.595.038a6.5 6.5 0 0 0-1.333.4c-.189.08-.405-.041-.418-.247a8.9 8.9 0 0 1 7.098-9.264" opacity=".4"/><path fill="currentColor" fill-rule="evenodd" d="M17 1.25c-3.104 0-5.75 2.538-5.75 5.66 0 1.602.687 2.93 1.62 4.004.927 1.067 2.123 1.918 3.223 2.592l.013.008.013.007a1.8 1.8 0 0 0 1.762 0l.011-.007.012-.006c1.105-.67 2.302-1.523 3.228-2.593.932-1.078 1.618-2.408 1.618-4.006 0-3.121-2.646-5.659-5.75-5.659M17 5a2 2 0 1 1 0 4 2 2 0 0 1 0-4" clip-rule="evenodd"/></svg>