<svg xmlns="http://www.w3.org/2000/svg" fill="none" viewBox="0 0 24 24"><path fill="currentColor" fill-rule="evenodd" d="M13.5 5.25a4.28 4.28 0 0 0-3.925 2.614c-.623 1.496-.275 2.781.406 3.84.543.845 1.337 1.598 2.008 2.236l.36.345.003.002a1.656 1.656 0 0 0 2.297 0l.342-.326c.678-.641 1.481-1.402 2.03-2.257.68-1.06 1.027-2.346.405-3.84a4.28 4.28 0 0 0-3.925-2.614M13.496 8c-.824 0-1.493.672-1.493 1.5s.668 1.5 1.493 1.5h.014c.824 0 1.493-.672 1.493-1.5S14.333 8 13.509 8z" clip-rule="evenodd"/><path fill="currentColor" fill-rule="evenodd" d="M12 1.25C6.063 1.25 1.25 6.063 1.25 12c0 2.371.768 4.563 2.068 6.341.177.242.266.362.403.373.138.01.248-.1.468-.32l4.209-4.208c.2-.2.3-.3.3-.425 0-.124-.1-.224-.3-.424L4.099 9.04c-.137-.137-.205-.205-.222-.297s.021-.177.097-.345a8.795 8.795 0 1 1 11.63 11.63c-.17.075-.254.113-.346.096s-.16-.085-.297-.222l-4.3-4.301c-.2-.2-.3-.3-.425-.3-.124 0-.224.1-.424.3l-4.21 4.21c-.22.22-.33.33-.319.467.01.137.132.226.373.402A10.7 10.7 0 0 0 12 22.75c5.937 0 10.75-4.813 10.75-10.75S17.937 1.25 12 1.25" clip-rule="evenodd" opacity=".4"/></svg>