<svg xmlns="http://www.w3.org/2000/svg" fill="none" viewBox="0 0 24 24"><path fill="currentColor" d="M18 1.25c-1.682 0-4.167.631-6.62 1.408-2.482.787-5.032 1.758-6.887 2.5C2.506 5.95 1.25 7.881 1.25 10s1.256 4.049 3.243 4.843c1.855.74 4.405 1.712 6.887 2.499 2.453.777 4.938 1.408 6.62 1.408-1.603 0-2.799-1.305-3.537-2.815-.766-1.57-1.213-3.669-1.213-5.935s.447-4.366 1.213-5.935C15.201 2.555 16.397 1.25 18 1.25" opacity=".4"/><path fill="currentColor" fill-rule="evenodd" d="M15.15 10c0-2.03.404-3.819 1.013-5.065.637-1.304 1.341-1.74 1.837-1.74s1.2.436 1.837 1.74C20.447 6.181 20.85 7.97 20.85 10s-.404 3.819-1.013 5.065c-.637 1.304-1.341 1.74-1.837 1.74s-1.2-.436-1.837-1.74c-.61-1.246-1.013-3.035-1.013-5.065M18 1.25c-1.603 0-2.799 1.305-3.537 2.815-.766 1.57-1.213 3.669-1.213 5.935s.447 4.366 1.213 5.935c.738 1.51 1.934 2.815 3.537 2.815s2.799-1.305 3.537-2.815c.766-1.57 1.213-3.669 1.213-5.935s-.447-4.366-1.213-5.935C20.799 2.555 19.603 1.25 18 1.25M7.011 15.816c-.71-.267-1.384-.527-1.997-.77a6.93 6.93 0 0 0 3.56 6.508l1.944 1.07a1 1 0 1 0 .964-1.753l-1.943-1.07a4.93 4.93 0 0 1-2.528-3.985" clip-rule="evenodd"/></svg>