<svg xmlns="http://www.w3.org/2000/svg" fill="none" viewBox="0 0 24 24"><path fill="currentColor" d="m14.25 13.052 2.926-.959c.56-.183 1.05-.344 1.425-.526.402-.196.785-.47 1-.939.215-.471.168-.938.048-1.369-.11-.398-.315-.867-.547-1.399l-2.053-4.71c-.145-.332-.276-.634-.414-.875-.152-.264-.342-.514-.633-.702-.29-.189-.595-.261-.9-.294-.277-.03-.61-.029-.977-.029h-3.68q.055.117.097.242l3.593 10.798c.084.25.12.507.115.762" opacity=".4"/><path fill="currentColor" fill-rule="evenodd" d="M9.118 1.966a.75.75 0 0 0-1.12-.392c-.29.189-.481.438-.633.703a9 9 0 0 0-.413.874l-2.054 4.71c-.231.532-.436 1.001-.547 1.4-.12.43-.166.897.05 1.369.214.47.596.742.999.938.374.182.865.343 1.424.526l3.722 1.22-.002.002-.79 1.593-1.524.316c-.592.1-1.21.412-1.418 1.067-.206.65.115 1.263.537 1.689l1.149 1.262-.317 1.38c-.141.615-.14 1.421.479 1.877.623.458 1.392.211 1.932-.112l1.406-.797 1.407.797c.539.321 1.31.572 1.934.114.62-.456.617-1.265.477-1.877l-.277-1.526 1.107-1.116.001-.001c.425-.426.747-1.04.54-1.692-.21-.653-.828-.966-1.42-1.065l-1.424-.239-.894-1.668c-.184-.373-.471-.74-.863-.931zM6.294 8.415l1.922-4.41 2.602 7.82-3.48-1.14c-.62-.204-1.011-.334-1.282-.466-.25-.121-.282-.191-.291-.212v-.002c-.01-.02-.04-.085.031-.342.08-.285.24-.656.498-1.248" clip-rule="evenodd"/></svg>