<svg xmlns="http://www.w3.org/2000/svg" fill="none" viewBox="0 0 24 24"><path fill="currentColor" d="M17 1H7v9.985l2.775 1.3.145.068c.738.347 1.376.647 2.08.647s1.342-.3 2.08-.647l.145-.068 2.775-1.3z" opacity=".4"/><path fill="currentColor" fill-rule="evenodd" d="M6.224 1h-.163c-.98 0-1.693 0-2.3.187-1.18.363-2.138 1.234-2.55 2.386C1 4.168 1 4.865 1.001 5.758v.251C1 6.377.998 6.72 1.08 7.048a2.84 2.84 0 0 0 1.033 1.568c.264.203.577.35.936.517l.075.036 6.651 3.116.146.068c.258.122.504.238.745.337q-.23.13-.49.285l-1.058.626c-.348.206-.656.388-.899.567a2.3 2.3 0 0 0-.67.728c-.17.307-.239.624-.27.954-.029.306-.029.674-.029 1.097v1.106c0 .423 0 .79.029 1.097.031.33.1.647.27.955.173.309.406.532.67.727.243.18.551.361.9.567l1.057.626c.335.198.632.374.895.496.285.132.585.229.929.229s.644-.097.93-.23c.262-.121.56-.297.894-.495l1.058-.626c.348-.206.656-.388.899-.567.264-.195.497-.418.67-.727.17-.308.239-.625.27-.955.029-.306.029-.674.029-1.097v-1.106c0-.423 0-.79-.029-1.097-.031-.33-.1-.647-.27-.954a2.3 2.3 0 0 0-.67-.728c-.243-.18-.551-.361-.9-.567l-1.057-.626q-.26-.155-.49-.285c.241-.1.487-.215.746-.337l.145-.068 6.651-3.116.076-.036c.358-.168.671-.314.935-.517.51-.393.879-.94 1.034-1.568.08-.327.08-.67.08-1.04v-.25c0-.893 0-1.59-.212-2.185-.412-1.152-1.37-2.023-2.549-2.386C19.633.999 18.92 1 17.94 1zM4.35 3.098C4.63 3.01 5.01 3 6.224 3h11.552c1.214 0 1.595.011 1.875.098.618.19 1.07.63 1.255 1.148.08.224.094.536.094 1.68 0 .503-.007.584-.021.643a.84.84 0 0 1-.313.463c-.066.051-.161.102-.639.325l-6.65 3.117C12.41 10.927 12.2 11 12 11s-.41-.073-1.376-.526L3.973 7.357c-.477-.223-.573-.274-.639-.325a.85.85 0 0 1-.312-.463C3.007 6.509 3 6.429 3 5.926c0-1.144.015-1.456.095-1.68.185-.518.636-.957 1.255-1.148" clip-rule="evenodd"/></svg>