<svg xmlns="http://www.w3.org/2000/svg" fill="none" viewBox="0 0 24 24"><path fill="currentColor" d="M4.25 14.75c0-4.254 3.332-7.75 7.5-7.75h.5c4.168 0 7.5 3.496 7.5 7.75s-3.332 7.75-7.5 7.75h-.5c-4.168 0-7.5-3.496-7.5-7.75" opacity=".4"/><path fill="currentColor" fill-rule="evenodd" d="M5.602 1.583a1 1 0 0 1 1.316.52l2.319 5.342a7.4 7.4 0 0 0-1.772.942L5.083 2.898a1 1 0 0 1 .52-1.315M12.25 7q.223 0 .442.013l.224-.518.002-.005 1.56-3.592a1 1 0 1 0-1.835-.796L12 3.582l-.643-1.48a1 1 0 0 0-1.834.796l1.387 3.196-.442 1.018A7.3 7.3 0 0 1 11.75 7zm2.514.445a7.4 7.4 0 0 1 1.77.943l2.384-5.49a1 1 0 0 0-1.835-.796zm-3.107 3.657c-.403 0-.831.122-1.179.421-.354.305-.57.747-.625 1.28a.65.65 0 0 0 1.293.133c.026-.252.113-.37.18-.427a.5.5 0 0 1 .331-.107h.666c.147 0 .258.043.331.107.067.057.155.175.18.427.02.199.02.433 0 .632a.76.76 0 0 1-.175.432c-.082.09-.148.102-.169.102h-.06a.65.65 0 1 0 0 1.3h.06c.021 0 .087.01.169.101a.77.77 0 0 1 .175.433c.02.199.02.433 0 .631-.025.253-.113.37-.18.427a.5.5 0 0 1-.33.108h-.667a.5.5 0 0 1-.33-.108c-.068-.057-.155-.174-.18-.427a.65.65 0 0 0-1.294.133c.055.533.271.975.625 1.28.348.299.776.422 1.18.422h.665c.404 0 .832-.123 1.18-.422.354-.305.57-.747.625-1.28.029-.287.029-.61 0-.897a2.14 2.14 0 0 0-.407-1.051c.226-.302.368-.676.407-1.052.029-.287.029-.61 0-.897-.055-.533-.271-.975-.626-1.28a1.8 1.8 0 0 0-1.179-.421z" clip-rule="evenodd"/></svg>