<svg xmlns="http://www.w3.org/2000/svg" fill="none" viewBox="0 0 24 24"><path fill="currentColor" fill-rule="evenodd" d="M2.707 1.293a1 1 0 0 0-1.414 1.414L3.53 4.946a9.26 9.26 0 0 0-2.24 5.478 21 21 0 0 0 0 2.616c.112 1.717.86 3.265 1.693 4.522.25.481.12 1.203-.347 2.087l-.022.04c-.156.297-.31.588-.398.835-.094.263-.19.68.05 1.092.223.378.578.517.865.572.238.047.53.053.803.06l.046.001c1.42.035 2.42-.375 3.213-.96l.095-.07c.12-.088.18-.132.257-.141.078-.01.146.018.283.074l.23.094a5.6 5.6 0 0 0 1.72.394 34 34 0 0 0 4.441 0 9 9 0 0 0 4.468-1.538l2.605 2.605a1 1 0 0 0 1.414-1.414z" clip-rule="evenodd"/><path fill="currentColor" d="M14.22 1.823a34 34 0 0 0-4.44 0 9 9 0 0 0-2.717.61c-.34.135-.51.202-.543.36-.032.16.103.294.374.565l13.745 13.745c.242.242.363.363.51.343s.228-.163.388-.448a9.3 9.3 0 0 0 1.171-3.959 21 21 0 0 0 0-2.617c-.298-4.61-3.921-8.296-8.488-8.6" opacity=".4"/></svg>