<svg xmlns="http://www.w3.org/2000/svg" fill="none" viewBox="0 0 24 24"><path fill="currentColor" d="M13.93 2.327c.37.01.55.02.64.12.08.1.05.3 0 .7-.02.15-.03.29-.04.41-.02.13-.03.2-.05.25-.03.06-.09.11-.21.2a4.2 4.2 0 0 0-1.24 1.71c-.18.48-.24.93-.26 1.3-.02.33-.02.72-.02 1.11v.12c0 .38 0 .77.02 1.11.02.36.08.82.26 1.29a4.02 4.02 0 0 0 2.14 2.26c.49.22.96.29 1.33.32.33.02.71.02 1.06.02h1.88c.35 0 .73 0 1.06-.02.37-.03.84-.1 1.33-.32.39-.17.59-.26.7-.23.06.02.11.05.15.11.07.09.06.27.04.64-.01.03-.01.07-.01.11-.3 4.61-3.92 8.3-8.49 8.6-1.46.1-2.98.1-4.44 0-.57-.04-1.18-.17-1.72-.4-.09-.03-.16-.06-.23-.09-.14-.06-.21-.08-.28-.07-.08.01-.14.05-.26.14-.03.02-.06.04-.1.07-.79.58-1.79.99-3.21.96h-.04c-.28-.01-.57-.02-.81-.06-.29-.06-.64-.2-.86-.58-.24-.41-.15-.82-.05-1.09.09-.24.24-.53.4-.83l.02-.04c.46-.89.59-1.61.34-2.09-.83-1.26-1.58-2.8-1.69-4.52a23 23 0 0 1 0-2.62c.3-4.61 3.92-8.29 8.49-8.6 1.21-.08 2.81-.06 4.15.01" opacity=".4"/><path fill="currentColor" fill-rule="evenodd" d="M21 3.69v1.06c.08.02.15.05.22.08.62.28 1.1.8 1.35 1.43.1.28.14.56.16.85s.02.64.02 1.05v.05c0 .42 0 .77-.02 1.05-.02.3-.06.58-.16.85-.25.64-.73 1.16-1.35 1.43-.27.12-.55.17-.83.19-.27.02-.6.02-.99.02h-1.8c-.39 0-.72 0-.99-.02-.28-.02-.56-.07-.83-.19-.62-.27-1.1-.79-1.35-1.43-.1-.27-.14-.55-.16-.85-.02-.28-.02-.63-.02-1.05v-.05c0-.41 0-.76.02-1.05s.06-.57.16-.85c.25-.63.73-1.15 1.35-1.43.07-.03.14-.06.22-.08V3.69c0-1.37 1.15-2.44 2.5-2.44S21 2.32 21 3.69m-2.5-.94c-.58 0-1 .45-1 .94v.94h2v-.94c0-.49-.42-.94-1-.94m-10 13c-.41 0-.75-.34-.75-.75s.34-.75.75-.75h7c.41 0 .75.34.75.75s-.34.75-.75.75zm0-5c-.41 0-.75-.34-.75-.75s.34-.75.75-.75H11c.41 0 .75.34.75.75s-.34.75-.75.75z" clip-rule="evenodd"/></svg>