<svg xmlns="http://www.w3.org/2000/svg" fill="none" viewBox="0 0 24 24"><path fill="currentColor" d="M13.625 3.033c-.086-.263-.13-.395-.206-.452s-.189-.06-.415-.066a34 34 0 0 0-3.224.058c-4.567.303-8.19 3.99-8.488 8.6a21 21 0 0 0 0 2.616c.11 1.717.86 3.265 1.692 4.521.25.482.12 1.204-.347 2.088l-.022.04c-.156.297-.31.588-.398.835-.094.263-.19.68.05 1.092.223.378.578.517.865.572.238.046.53.053.803.06l.046.001c1.42.034 2.42-.375 3.213-.96l.095-.07c.12-.088.18-.132.257-.141.078-.01.146.018.283.073l.23.095a5.6 5.6 0 0 0 1.72.394c1.458.097 2.981.097 4.441 0 4.567-.304 8.19-3.99 8.488-8.6a21 21 0 0 0 0-2.617c-.01-.145-.014-.217-.038-.268a.28.28 0 0 0-.18-.159c-.054-.017-.147-.011-.334 0-.69.043-1.396-.2-1.924-.727l-.808-.808c-.2-.2-.3-.3-.424-.3s-.224.1-.424.3l-.808.808a2.5 2.5 0 0 1-3.536-3.536l.808-.808c.2-.2.3-.3.3-.424s-.1-.224-.3-.424l-.808-.808a2.5 2.5 0 0 1-.607-.985" opacity=".4"/><path fill="currentColor" fill-rule="evenodd" d="M16.707 1.543a1 1 0 1 0-1.414 1.414l2.293 2.293-2.293 2.293a1 1 0 0 0 1.414 1.414L19 6.664l2.293 2.293a1 1 0 1 0 1.414-1.414L20.414 5.25l2.293-2.293a1 1 0 0 0-1.414-1.414L19 3.836zM8.5 16a.75.75 0 0 1 0-1.5h7a.75.75 0 0 1 0 1.5zm0-5a.75.75 0 0 1 0-1.5H12a.75.75 0 0 1 0 1.5z" clip-rule="evenodd"/></svg>