<svg xmlns="http://www.w3.org/2000/svg" fill="none" viewBox="0 0 24 24"><path fill="currentColor" d="M6.515 11.455a.75.75 0 0 0-1.162.536 15 15 0 0 0-.103 1.79v4.223c0 1.63.162 2.96 1.071 3.793.455.418 1.032.65 1.69.782.652.131 1.435.175 2.353.175h3.272c.918 0 1.701-.044 2.353-.175.658-.132 1.235-.364 1.69-.782.909-.833 1.071-2.163 1.071-3.793v-2a.75.75 0 0 0-.22-.53c-.15-.15-.314-.18-.51-.223a1.2 1.2 0 0 1-.244-.089c-.248-.116-.671-.378-1.226-.967-.537-.571-1.349-.919-2.2-.782l-1.044.167a1.38 1.38 0 0 1-1.23-.417l-.824-.902c-.634-.693-1.594-.895-2.43-.71a5.5 5.5 0 0 1-1.33.108c-.508-.02-.842-.114-.977-.204" opacity=".4"/><path fill="currentColor" fill-rule="evenodd" d="M14.727 3c.435 0 .637.304.637.5 0 .15-.117.361-.365.454-.084.021-.17.046-.272.046a1 1 0 0 0-.264 1.965c.134.036.201.055.234.08a.5.5 0 0 1 .101.158C16.152 8.773 17 10.93 17 13.777V18c0 1.687-.223 2.247-.504 2.504-.14.128-.38.26-.852.356-.48.097-1.125.14-2.008.14h-3.272c-.883 0-1.528-.043-2.008-.14-.473-.095-.713-.228-.852-.356C7.223 20.246 7 19.687 7 18v-4.223c0-2.845.825-5.008 2.167-7.565.047-.091.071-.136.105-.163s.103-.044.243-.079A1 1 0 0 0 9.273 4c-.108 0-.196-.027-.283-.05-.24-.095-.354-.303-.354-.45 0-.196.202-.5.637-.5zM7.195 5.67c.094-.184.141-.277.134-.362s-.08-.184-.226-.383A2.38 2.38 0 0 1 6.636 3.5C6.636 2.04 7.9 1 9.273 1h5.454c1.373 0 2.637 1.04 2.637 2.5a2.38 2.38 0 0 1-.48 1.443c-.15.2-.225.3-.232.386-.008.085.04.178.136.365C18.086 8.218 19 10.63 19 13.777V18c0 1.622-.154 3.063-1.152 3.978-.5.459-1.126.705-1.81.843-.676.136-1.48.179-2.402.179h-3.272c-.923 0-1.726-.043-2.403-.18-.683-.137-1.309-.383-1.809-.842C5.154 21.063 5 19.622 5 18v-4.223c0-3.15.896-5.57 2.195-8.107" clip-rule="evenodd"/></svg>