<svg xmlns="http://www.w3.org/2000/svg" fill="none" viewBox="0 0 24 24"><path fill="currentColor" d="M12.057 1.75c2.19 0 3.912 0 5.255.18 1.377.186 2.469.573 3.327 1.43.858.86 1.245 1.951 1.43 3.328.181 1.343.181 3.064.181 5.255v.114c0 2.19 0 3.912-.18 5.255-.186 1.377-.573 2.469-1.43 3.327-.86.858-1.951 1.245-3.328 1.43-1.343.181-3.064.181-5.255.181h-.114c-2.19 0-3.912 0-5.255-.18-1.377-.186-2.469-.573-3.327-1.43-.858-.86-1.245-1.951-1.43-3.328-.181-1.343-.181-3.064-.181-5.255v-.114c0-2.19 0-3.912.18-5.255.186-1.377.573-2.469 1.43-3.327.86-.858 1.951-1.245 3.328-1.43 1.343-.181 3.064-.181 5.255-.181z" opacity=".4"/><path fill="currentColor" fill-rule="evenodd" d="M17.707 6.293a1 1 0 0 1 0 1.414l-10 10a1 1 0 0 1-1.414-1.414l10-10a1 1 0 0 1 1.414 0M5 9a1 1 0 0 1 1-1h4a1 1 0 1 1 0 2H6a1 1 0 0 1-1-1m11 3a1 1 0 0 1 1 1v1h1a1 1 0 1 1 0 2h-1v1a1 1 0 1 1-2 0v-1h-1a1 1 0 1 1 0-2h1v-1a1 1 0 0 1 1-1" clip-rule="evenodd"/></svg>