<svg xmlns="http://www.w3.org/2000/svg" fill="none" viewBox="0 0 24 24"><path fill="currentColor" d="M1.25 12C1.25 6.063 6.063 1.25 12 1.25S22.75 6.063 22.75 12 17.937 22.75 12 22.75 1.25 17.937 1.25 12" opacity=".4"/><path fill="currentColor" fill-rule="evenodd" d="M16.707 7.293a1 1 0 0 1 0 1.414l-8 8a1 1 0 0 1-1.414-1.414l8-8a1 1 0 0 1 1.414 0M6 9.5a1 1 0 0 1 1-1h3a1 1 0 1 1 0 2H7a1 1 0 0 1-1-1m9.5 2.5a1 1 0 0 1 1 1v.5h.5a1 1 0 1 1 0 2h-.5v.5a1 1 0 1 1-2 0v-.5H14a1 1 0 1 1 0-2h.5V13a1 1 0 0 1 1-1" clip-rule="evenodd"/></svg>