<svg xmlns="http://www.w3.org/2000/svg" fill="none" viewBox="0 0 24 24"><path fill="currentColor" fill-rule="evenodd" d="M12.072 1h-.144c-1.6 0-2.902 0-3.928.137-1.07.143-1.989.45-2.722 1.179-.932.925-1.186 2.156-1.276 3.623a1 1 0 0 0 1.996.122c.084-1.372.31-1.949.69-2.326.298-.297.726-.502 1.576-.616C9.143 3.002 10.31 3 12 3s2.857.002 3.736.12c.85.113 1.278.318 1.577.615.38.377.605.954.689 2.326a1 1 0 0 0 1.996-.122c-.09-1.467-.344-2.698-1.276-3.623C17.99 1.587 17.07 1.28 16 1.136 14.974 1 13.672 1 12.072 1m7.926 17.061a1 1 0 0 0-1.996-.122c-.084 1.372-.309 1.949-.689 2.326-.3.297-.727.502-1.577.616-.879.117-2.046.119-3.736.119s-2.857-.002-3.736-.12c-.85-.113-1.278-.318-1.577-.615-.38-.377-.605-.954-.689-2.326a1 1 0 1 0-1.996.122c.09 1.467.344 2.698 1.276 3.624.733.728 1.652 1.035 2.722 1.178C9.026 23 10.328 23 11.928 23h.144c1.6 0 2.902 0 3.928-.137 1.07-.143 1.989-.45 2.722-1.178.932-.926 1.186-2.157 1.276-3.624M11 18a1 1 0 1 0 0 2h2a1 1 0 1 0 0-2z" clip-rule="evenodd" opacity=".4"/><path fill="currentColor" fill-rule="evenodd" d="M7.219 9.695a1 1 0 1 0-1.438-1.39L4.248 9.89l-.037.038c-.29.3-.573.592-.774.865C3.209 11.104 3 11.497 3 12s.209.897.437 1.206c.201.273.484.565.774.865l.037.038 1.533 1.586a1 1 0 0 0 1.438-1.39l-1.533-1.586c-.342-.353-.527-.548-.64-.7L5.033 12l.013-.019c.113-.152.298-.347.64-.7zm9.562 0a1 1 0 0 1 1.438-1.39l1.533 1.586.037.038c.29.3.573.592.774.865.228.31.437.703.437 1.206s-.209.897-.437 1.206c-.201.273-.484.565-.774.865l-.037.038-1.533 1.586a1 1 0 0 1-1.438-1.39l1.533-1.586c.342-.353.527-.548.64-.7l.013-.019-.013-.019c-.113-.152-.298-.347-.64-.7z" clip-rule="evenodd"/></svg>