<svg xmlns="http://www.w3.org/2000/svg" fill="none" viewBox="0 0 24 24"><path fill="currentColor" fill-rule="evenodd" d="M14.064 3.65c-1.362-1.401-3.152-2.4-5.026-2.4-2.048 0-3.997 1.192-5.405 2.812C2.22 5.689 1.25 7.86 1.25 10.01c0 2.053.888 3.494 2.262 4.41a7 7 0 0 0 1.704.809c.28.091.419.137.534.071.115-.065.15-.222.222-.537.41-1.812 1.35-3.488 2.524-4.8C10.066 8.209 12.38 6.75 15 6.75h.095c.502.007.753.01.842-.137s-.02-.344-.234-.738a10.3 10.3 0 0 0-1.639-2.225m.936 8.1c-1.138 0-2.2.637-2.955 1.475-.757.842-1.295 1.984-1.295 3.143 0 1.561 1.107 2.4 2.189 2.787.191.069.26.211.26.3v1.44c0 1.024.815 1.855 1.819 1.855s1.818-.83 1.818-1.855v-1.44c0-.088.07-.232.263-.302 1.083-.393 2.151-1.235 2.151-2.785 0-1.16-.538-2.3-1.295-3.143-.755-.838-1.817-1.475-2.955-1.475" clip-rule="evenodd" opacity=".4"/><path fill="currentColor" fill-rule="evenodd" d="M8.031 5.124a.75.75 0 0 0-1.06-1.06l-.685.684a.75.75 0 1 0 1.06 1.06zm3-1.06a.75.75 0 0 0-1.06 1.06l.684.684a.75.75 0 1 0 1.06-1.06zm9.782 12.65c0-1.528-.726-3.184-1.874-4.468-1.155-1.291-2.607-2.068-3.939-2.068s-2.784.777-3.938 2.068c-1.15 1.284-1.874 2.94-1.874 4.467 0 .892.244 1.534.615 2.014.38.49.942.877 1.673 1.16a.963.963 0 0 1 .552 1.248.97.97 0 0 1-1.254.55c-.966-.374-1.857-.942-2.506-1.782-.658-.85-1.018-1.917-1.018-3.19 0-2.096.97-4.19 2.364-5.75C11.003 9.412 12.941 8.25 15 8.25s3.997 1.161 5.386 2.714c1.394 1.559 2.364 3.653 2.364 5.75 0 1.272-.36 2.338-1.018 3.19-.65.84-1.54 1.407-2.506 1.78a.97.97 0 0 1-1.254-.55.963.963 0 0 1 .552-1.247c.73-.283 1.293-.67 1.673-1.16.37-.48.616-1.122.616-2.014" clip-rule="evenodd"/></svg>