<svg xmlns="http://www.w3.org/2000/svg" fill="none" viewBox="0 0 24 24"><path fill="currentColor" d="M14.056 1.25c1.838 0 3.294 0 4.433.153 1.172.158 2.121.49 2.87 1.238.748.749 1.08 1.698 1.238 2.87.153 1.14.153 2.595.153 4.433v.112c0 1.838 0 3.294-.153 4.433-.158 1.172-.49 2.121-1.238 2.87-.749.748-1.698 1.08-2.87 1.238-1.14.153-2.595.153-4.433.153H9.944c-1.838 0-3.294 0-4.433-.153-1.172-.158-2.121-.49-2.87-1.238-.748-.749-1.08-1.698-1.238-2.87-.153-1.14-.153-2.595-.153-4.433v-.112c0-1.838 0-3.294.153-4.433.158-1.172.49-2.121 1.238-2.87.749-.748 1.698-1.08 2.87-1.238 1.14-.153 2.595-.153 4.433-.153z" opacity=".4"/><path fill="currentColor" fill-rule="evenodd" d="M12 21.75c-1.29 0-2.492.322-3.524.88a1 1 0 0 1-.951-1.76A9.4 9.4 0 0 1 12 19.75c1.625 0 3.154.406 4.476 1.12a1 1 0 0 1-.951 1.76A7.4 7.4 0 0 0 12 21.75" clip-rule="evenodd"/></svg>