<svg xmlns="http://www.w3.org/2000/svg" fill="none" viewBox="0 0 24 24"><path fill="currentColor" fill-rule="evenodd" d="M2.707 1.293a1 1 0 0 0-1.414 1.414l1.75 1.75C2.08 4.691 1.25 5.48 1.25 6.612v10.773c0 .835.132 1.622.566 2.262.45.663 1.14 1.055 2.017 1.255.976.224 2.047.347 3.167.347 2.008 0 3.87-.395 5.317-1.071 1.218-.569 2.857-.93 4.683-.93q.268 0 .53.01l.328.013 3.435 3.435a1 1 0 0 0 1.414-1.414zm10.586 13.414-4-4a3 3 0 0 0 4 4M5.5 12a1 1 0 0 1 1 1v.01a1 1 0 1 1-2 0V13a1 1 0 0 1 1-1" clip-rule="evenodd"/><path fill="currentColor" fill-rule="evenodd" d="M11.682 3.82c1.448-.675 3.31-1.07 5.318-1.07 1.12 0 2.19.123 3.167.346.917.21 1.615.616 2.055 1.291.42.648.528 1.43.528 2.227v10.772c0 .283-.052.545-.145.782-.097.248-.146.372-.305.405s-.271-.08-.497-.306l-6.733-6.733a.6.6 0 0 1-.111-.126 1 1 0 0 1-.059-.179A3 3 0 0 0 12.771 9.1c-.096-.026-.145-.038-.179-.058a.7.7 0 0 1-.126-.111L9.135 5.599c-.385-.384-.577-.577-.525-.75.052-.171.33-.226.886-.336.82-.162 1.559-.4 2.186-.693M18.5 9.992a1 1 0 0 1 1 1v.01a1 1 0 0 1-2 0v-.01a1 1 0 0 1 1-1" clip-rule="evenodd" opacity=".4"/></svg>