<svg xmlns="http://www.w3.org/2000/svg" fill="none" viewBox="0 0 24 24"><path fill="currentColor" d="M4.167 6.066q.39.089.802.154c.258.04.387.06.459.145s.072.21.072.462v.298a2.5 2.5 0 0 0 4.402 1.622c.273-.32.41-.48.503-.503s.289.054.68.208a2.495 2.495 0 0 0 2.817-.705c.273-.32.41-.48.503-.503s.289.054.68.208A2.5 2.5 0 0 0 18.5 5.125v-.012c0-.313 0-.47.104-.559s.254-.067.555-.023q.518.078 1.008.19c.917.21 1.615.616 2.055 1.29.42.648.528 1.43.528 2.227v10.773c0 1.567-1.591 2.476-2.917 2.172A12.8 12.8 0 0 0 17 20.874c-1.826 0-3.465.361-4.683.93-1.447.676-3.309 1.07-5.317 1.07-1.12 0-2.19-.122-3.167-.346-.876-.2-1.568-.592-2.017-1.255-.434-.64-.566-1.427-.566-2.262V8.238c0-1.567 1.591-2.476 2.917-2.172" opacity=".4"/><path fill="currentColor" fill-rule="evenodd" d="M13 2.125a1 1 0 1 0-2 0v4a1 1 0 1 0 2 0zm4 1a1 1 0 1 0-2 0v2a1 1 0 1 0 2 0zm-8 2a1 1 0 1 0-2 0v2a1 1 0 0 0 2 0zm3 11.5a3 3 0 1 0 0-6 3 3 0 0 0 0 6m-6.5-3a1 1 0 0 1 1 1v.009a1 1 0 1 1-2 0v-.009a1 1 0 0 1 1-1m14-1.008a1 1 0 1 0-2 0v.01a1 1 0 1 0 2 0z" clip-rule="evenodd"/></svg>