<svg xmlns="http://www.w3.org/2000/svg" fill="none" viewBox="0 0 24 24"><path fill="currentColor" d="M12.317 2.195C10.87 1.52 9.008 1.125 7 1.125c-1.12 0-2.19.123-3.167.346-.917.21-1.616.616-2.055 1.291-.42.648-.528 1.43-.528 2.227v10.772c0 1.567 1.591 2.476 2.917 2.172q.39-.088.802-.153c.258-.04.387-.06.459-.145s.072-.21.072-.463v-.297a2.5 2.5 0 0 1 4.402-1.622c.273.32.41.48.503.502.093.024.289-.053.68-.208.283-.11.592-.172.915-.172.762 0 1.444.34 1.902.878.273.32.41.48.503.502.093.024.289-.053.68-.207a2.5 2.5 0 0 1 3.415 2.327v.012c0 .312 0 .469.104.558s.254.068.555.023q.518-.077 1.008-.19c.876-.2 1.568-.592 2.017-1.254.434-.64.566-1.427.566-2.263V4.989c0-1.567-1.591-2.476-2.917-2.172-.863.197-1.821.308-2.833.308-1.826 0-3.465-.36-4.683-.93" opacity=".4"/><path fill="currentColor" fill-rule="evenodd" d="M9 10.375a3 3 0 1 0 6 0 3 3 0 0 0-6 0m8.5 1a1 1 0 1 1 2 0v.009a1 1 0 1 1-2 0zm-12-3.008a1 1 0 0 0-1 1v.01a1 1 0 0 0 2 0v-.01a1 1 0 0 0-1-1M9 16.875a1 1 0 1 0-2 0v2a1 1 0 1 0 2 0zm4 1a1 1 0 1 0-2 0v4a1 1 0 1 0 2 0zm4 1a1 1 0 1 0-2 0v2a1 1 0 1 0 2 0z" clip-rule="evenodd"/></svg>