<svg xmlns="http://www.w3.org/2000/svg" fill="none" viewBox="0 0 24 24"><path fill="currentColor" d="M1.375 15.125a5.75 5.75 0 0 1 4.208-5.54c.196-.055.294-.082.35-.14.057-.058.082-.156.131-.352a6.252 6.252 0 0 1 12.272.831c.027.246.041.368.104.44.062.07.184.1.427.159a5.252 5.252 0 0 1 1.718 9.439c-.355.242-.533.364-.681.305-.148-.06-.211-.348-.336-.924a2.5 2.5 0 0 0-3.237-1.839 1 1 0 0 1-.176.05.2.2 0 0 1-.06 0 1 1 0 0 1-.177-.05c-.146-.05-.22-.074-.258-.102a.2.2 0 0 1-.062-.062c-.028-.038-.053-.112-.102-.258-.032-.096-.048-.144-.05-.177a.2.2 0 0 1 0-.06 1 1 0 0 1 .05-.176 2.5 2.5 0 0 0-3.126-3.178c-.132.042-.199.063-.245.063s-.113-.02-.245-.063a2.5 2.5 0 0 0-3.126 3.178 1 1 0 0 1 .05.176.2.2 0 0 1 0 .06 1 1 0 0 1-.05.177c-.05.146-.074.22-.102.258a.2.2 0 0 1-.062.062c-.038.028-.112.053-.258.102-.096.031-.144.047-.177.05a.2.2 0 0 1-.06 0 1 1 0 0 1-.176-.05 2.5 2.5 0 0 0-3.192 1.663c-.165.56-.248.841-.397.89s-.32-.08-.663-.337a5.74 5.74 0 0 1-2.292-4.595" opacity=".4"/><path fill="currentColor" fill-rule="evenodd" d="M3.169 6.57c.06.35.18.695.366 1.02a3.03 3.03 0 0 0 2.522 1.533c-.045.176-.07.267-.123.322-.057.058-.155.085-.35.14a5.7 5.7 0 0 0-1.862.905A5.1 5.1 0 0 1 1.28 4.804a1 1 0 0 1 1.577-.552c.666.508 1.59.593 2.354.147a2.18 2.18 0 0 0 1.058-2.152 1 1 0 0 1 1.267-1.084 5.03 5.03 0 0 1 2.992 2.35q.268.473.428.971a6.2 6.2 0 0 0-1.881.685 3.1 3.1 0 0 0-.958-1.478 4.15 4.15 0 0 1-1.898 2.436 4.1 4.1 0 0 1-3.05.444m8.663 8.598a1 1 0 0 0-1.414 1.414l.293.293-.293.293a1 1 0 0 0 1.414 1.414l.293-.293.293.293a1 1 0 0 0 1.414-1.414l-.293-.293.293-.293a1 1 0 0 0-1.414-1.414l-.293.293zm-4 4a1 1 0 0 0-1.414 1.414l.293.293-.293.293a1 1 0 1 0 1.414 1.414l.293-.293.293.293a1 1 0 0 0 1.414-1.414l-.293-.293.293-.293a1 1 0 0 0-1.414-1.414l-.293.293zm8 0a1 1 0 0 0-1.414 1.414l.293.293-.293.293a1 1 0 0 0 1.414 1.414l.293-.293.293.293a1 1 0 0 0 1.414-1.414l-.293-.293.293-.293a1 1 0 0 0-1.414-1.414l-.293.293z" clip-rule="evenodd"/></svg>