<svg xmlns="http://www.w3.org/2000/svg" fill="none" viewBox="0 0 24 24"><path fill="currentColor" d="M6.068 8.968c-.05.196-.074.294-.13.352s-.155.085-.35.14a5.752 5.752 0 0 0-2.165 9.936c.204.172.306.259.424.252.118-.006.24-.131.481-.382a2.5 2.5 0 0 1 1.8-.766c.149 0 .223 0 .244-.003.173-.026.228-.08.254-.253.003-.022.003-.096.003-.244a2.5 2.5 0 0 1 2.5-2.5c.148 0 .222 0 .243-.003.173-.025.228-.08.254-.254.003-.021.003-.095.003-.243a2.5 2.5 0 0 1 5 0c0 .148 0 .222.003.243.025.174.08.229.253.254.022.003.096.003.244.003a2.5 2.5 0 0 1 2.5 2.5c0 .148 0 .222.003.244.025.173.08.227.253.253.022.003.096.003.244.003.765 0 1.45.344 1.909.885.235.278.353.417.475.428s.23-.076.443-.252a5.252 5.252 0 0 0-2.085-9.164c-.243-.058-.365-.088-.427-.159-.063-.07-.077-.193-.104-.439a6.251 6.251 0 0 0-12.272-.831" opacity=".4"/><path fill="currentColor" fill-rule="evenodd" d="M3.169 6.446c.06.349.18.694.366 1.019A3.03 3.03 0 0 0 6.06 8.998c-.045.176-.07.267-.123.322-.057.058-.155.085-.35.14-.68.188-1.31.499-1.864.906A5.1 5.1 0 0 1 1.28 4.678a1 1 0 0 1 1.577-.551c.666.508 1.59.593 2.354.147a2.18 2.18 0 0 0 1.058-2.152 1 1 0 0 1 1.267-1.084 5.03 5.03 0 0 1 2.992 2.35q.268.473.429.972a6.2 6.2 0 0 0-1.882.686 3.1 3.1 0 0 0-.958-1.48 4.15 4.15 0 0 1-1.898 2.436 4.1 4.1 0 0 1-3.05.444M12.129 16a1 1 0 1 0 0-2 1 1 0 0 0 0 2m-3 3a1 1 0 1 0 0-2 1 1 0 0 0 0 2m7-1a1 1 0 1 1-2 0 1 1 0 0 1 2 0m-10 4a1 1 0 1 0 0-2 1 1 0 0 0 0 2m7 0a1 1 0 1 1-2 0 1 1 0 0 1 2 0m5 0a1 1 0 1 0 0-2 1 1 0 0 0 0 2" clip-rule="evenodd"/></svg>