<svg xmlns="http://www.w3.org/2000/svg" fill="none" viewBox="0 0 24 24"><path fill="currentColor" d="M12.057 1.75c2.19 0 3.912 0 5.255.18 1.377.186 2.469.573 3.327 1.43.858.86 1.245 1.951 1.43 3.328.181 1.343.181 3.064.181 5.255v.114c0 2.19 0 3.912-.18 5.255-.186 1.377-.573 2.469-1.43 3.327-.86.858-1.951 1.245-3.328 1.43-1.343.181-3.064.181-5.255.181h-.114c-2.19 0-3.912 0-5.255-.18-1.377-.186-2.469-.573-3.327-1.43-.858-.86-1.245-1.951-1.43-3.328-.181-1.343-.181-3.064-.181-5.255v-.114c0-2.19 0-3.912.18-5.255.186-1.377.573-2.469 1.43-3.327.86-.858 1.951-1.245 3.328-1.43 1.343-.181 3.064-.181 5.255-.181z" opacity=".4"/><path fill="currentColor" fill-rule="evenodd" d="m8.487 8 .283-.362a1 1 0 0 0-1.54-1.276l-.006.007c-.115.148-.443.57-.586.775-.14.203-.299.449-.416.687a2.2 2.2 0 0 0-.164.434c-.032.132-.098.455.052.803.3.698 1 .837 1.334.882.37.05.855.05 1.369.05H17a1 1 0 1 0 0-2zM7 16h8.513c-.033.044-.14.18-.215.275v.001l-.068.086a1 1 0 0 0 1.54 1.276l.006-.007c.115-.148.443-.57.585-.775.14-.203.3-.449.417-.687a2.2 2.2 0 0 0 .164-.434 1.26 1.26 0 0 0-.052-.803c-.3-.697-1-.836-1.334-.882-.37-.05-.855-.05-1.369-.05H7a1 1 0 0 0 0 2m0-5a1 1 0 1 0 0 2h10a1 1 0 1 0 0-2z" clip-rule="evenodd"/></svg>