<svg xmlns="http://www.w3.org/2000/svg" fill="none" viewBox="0 0 24 24"><path fill="currentColor" d="M5.25 7.934a6.75 6.75 0 1 1 13.235 1.88c-.4 1.38-.532 3.04-.194 4.355.095.374.258 1.016.374 1.384.053.167.088.358.083.563a6.75 6.75 0 0 1-13.496 0 1.7 1.7 0 0 1 .083-.563c.116-.368.28-1.01.374-1.384.338-1.314.206-2.974-.193-4.355a6.8 6.8 0 0 1-.266-1.88" opacity=".4"/><path fill="currentColor" fill-rule="evenodd" d="M12 1.184q.381 0 .75.04V4.21c.135.018.276.048.42.108.428.177.77.518.947.947.082.198.11.394.122.571.011.166.011.363.011.577v1.043c0 .215 0 .411-.011.577-.012.177-.04.373-.122.571a1.75 1.75 0 0 1-.947.947 1.6 1.6 0 0 1-.42.108v1.276a.75.75 0 0 1-1.5 0V9.658a1.6 1.6 0 0 1-.42-.108 1.75 1.75 0 0 1-.947-.947 1.8 1.8 0 0 1-.122-.571c-.011-.165-.011-.362-.011-.576V6.411c0-.215 0-.411.011-.577.012-.177.04-.373.122-.571a1.75 1.75 0 0 1 .947-.947c.144-.06.285-.09.42-.108V1.225q.369-.04.75-.041m.002 7c.242 0 .386 0 .494-.008a1 1 0 0 0 .103-.013.25.25 0 0 0 .13-.13 1 1 0 0 0 .013-.103c.008-.108.008-.253.008-.496v-1c0-.244 0-.389-.008-.497a1 1 0 0 0-.012-.102.25.25 0 0 0-.131-.131 1 1 0 0 0-.103-.013A8 8 0 0 0 12 5.684c-.243 0-.388 0-.496.007a1 1 0 0 0-.103.013.25.25 0 0 0-.13.13 1 1 0 0 0-.013.103 8 8 0 0 0-.008.497v1c0 .243 0 .388.008.496a1 1 0 0 0 .012.102.25.25 0 0 0 .131.131 1 1 0 0 0 .103.013c.108.007.253.008.496.008zm-1.002 9a.75.75 0 0 0 0 1.5h2a.75.75 0 0 0 0-1.5z" clip-rule="evenodd"/></svg>