<svg xmlns="http://www.w3.org/2000/svg" fill="none" viewBox="0 0 24 24"><path fill="currentColor" d="M5.58 5.177c1.271-1.827 3.807-2.431 5.97-1.482.705.309 1.42.652 2.12 1.058.699.405 1.352.855 1.97 1.314 1.9 1.405 2.645 3.91 1.707 5.927-.536 1.155-1.113 2.345-1.786 3.516-.674 1.171-1.412 2.268-2.139 3.312-1.273 1.826-3.809 2.43-5.972 1.481a21 21 0 0 1-2.12-1.057 21 21 0 0 1-1.97-1.314c-1.899-1.406-2.645-3.91-1.707-5.928.536-1.154 1.113-2.345 1.787-3.516S4.85 6.22 5.579 5.177" opacity=".4"/><path fill="currentColor" fill-rule="evenodd" d="M21.33 5.829c-.225.447-.631.505-.909.322L18.27 4.73c-.753-.496-1.386-.914-1.93-1.169-.575-.27-1.173-.418-1.814-.222-.763.234-1.243.853-1.67 1.573a.75.75 0 1 0 1.29.765c.401-.676.633-.847.82-.904.136-.042.325-.047.737.146.433.204.976.559 1.789 1.095l2.104 1.388c1.118.737 2.495.249 3.075-.897a.75.75 0 0 0-1.34-.677M12.5 8.403a1 1 0 0 0-1.732-1l-1 1.732a1 1 0 0 0 1.732 1z" clip-rule="evenodd"/></svg>