<svg xmlns="http://www.w3.org/2000/svg" fill="none" viewBox="0 0 24 24"><path fill="currentColor" d="M10.673 1.413a23 23 0 0 1 2.827-.194c.966 0 1.911.08 2.827.194 2.799.345 4.962 2.67 5.18 5.415.132 1.666.243 3.392.243 5.156s-.11 3.49-.243 5.155c-.218 2.746-2.381 5.07-5.18 5.416-.916.113-1.861.194-2.827.194s-1.911-.081-2.827-.194c-2.799-.346-4.962-2.67-5.18-5.416-.132-1.665-.243-3.39-.243-5.155 0-1.764.11-3.49.243-5.156.218-2.745 2.381-5.07 5.18-5.415" opacity=".4"/><path fill="currentColor" fill-rule="evenodd" d="M14.25 5.25V1.234a18 18 0 0 0-1.5 0V5.25a1.6 1.6 0 0 0-.42.108c-.428.178-.77.519-.947.948-.082.199-.11.395-.122.572-.011.166-.011.363-.011.578V8.5c0 .214 0 .411.011.577.012.178.04.373.122.572.178.43.519.77.947.949.144.06.285.09.42.107v1.278a.75.75 0 1 0 1.5 0v-1.278c.135-.017.276-.048.42-.107.428-.178.77-.52.947-.949.082-.199.11-.394.122-.572.011-.166.011-.363.011-.577V7.456c0-.215 0-.412-.011-.578a1.8 1.8 0 0 0-.122-.572 1.75 1.75 0 0 0-.947-.948 1.6 1.6 0 0 0-.42-.108m-1.349 1.497a.25.25 0 0 0-.13.131 1 1 0 0 0-.013.103 8 8 0 0 0-.008.497v1c0 .244 0 .39.008.498.004.067.01.095.012.102a.25.25 0 0 0 .131.132 1 1 0 0 0 .103.012c.108.008.253.008.496.008s.388 0 .496-.008a1 1 0 0 0 .103-.012.25.25 0 0 0 .13-.132 1 1 0 0 0 .013-.102c.008-.108.008-.254.008-.497V7.478c0-.244 0-.39-.008-.497a1 1 0 0 0-.012-.103.25.25 0 0 0-.131-.131 1 1 0 0 0-.103-.013 8 8 0 0 0-.496-.008c-.243 0-.388 0-.496.008a1 1 0 0 0-.103.013m-6.92-3.815A1 1 0 0 0 4.52 1.568C3.342 2.831 2.532 4.38 2.262 6.095a1 1 0 1 0 1.976.31c.201-1.282.811-2.473 1.744-3.473" clip-rule="evenodd"/></svg>