<svg xmlns="http://www.w3.org/2000/svg" fill="none" viewBox="0 0 24 24"><path fill="currentColor" d="M11.587 1.25c.57 0 1.075-.001 1.55.167q.147.052.288.12c.455.219.811.578 1.214.984l4.783 4.807c.467.469.882.884 1.106 1.428s.223 1.132.222 1.796v.198c0 1.414 0 2.121-.44 2.56-.439.44-1.146.44-2.56.44H6.25c-1.414 0-2.121 0-2.56-.44-.44-.439-.44-1.146-.44-2.56V9.453c0-1.534 0-2.77.114-3.754.118-1.018.37-1.89.963-2.63q.327-.407.733-.736c.735-.596 1.603-.85 2.615-.968.98-.115 2.387-.115 3.912-.115" opacity=".4"/><path fill="currentColor" fill-rule="evenodd" d="M13.425 1.54a2.8 2.8 0 0 0-.935-.258v1.99c0 1.362 0 2.01.117 2.875.12.9.38 1.658.981 2.26.602.602 1.36.861 2.26.982.867.117 1.516.117 2.883.117h1.981a2.8 2.8 0 0 0-.184-.747c-.224-.544-.64-.96-1.106-1.428l-4.783-4.808c-.403-.406-.76-.765-1.214-.983M4.624 15.584A.75.75 0 0 0 3.25 16v6a.75.75 0 0 0 1.5 0v-3.523l.626.94a.75.75 0 0 0 1.248 0l.626-.94V22a.75.75 0 0 0 1.5 0v-6a.75.75 0 0 0-1.374-.416L6 17.648zm5.876-.334a.75.75 0 0 0-.75.75v6a.75.75 0 0 0 1.5 0v-1.75h1a2.5 2.5 0 0 0 0-5zm1.75 3.5h-1v-2h1a1 1 0 1 1 0 2m5-2.75a.75.75 0 1 0-1.5 0v2c0 .967.784 1.75 1.75 1.75h1.75v1.75a.75.75 0 0 0 1.5 0V16a.75.75 0 1 0-1.5 0v2.25H17.5a.25.25 0 0 1-.25-.25z" clip-rule="evenodd"/></svg>