<svg xmlns="http://www.w3.org/2000/svg" fill="none" viewBox="0 0 24 24"><path fill="currentColor" d="M1.25 12C1.25 6.063 6.063 1.25 12 1.25S22.75 6.063 22.75 12 17.937 22.75 12 22.75 1.25 17.937 1.25 12" opacity=".4"/><path fill="currentColor" fill-rule="evenodd" d="M8.032 6.653A1 1 0 0 0 6.5 7.5v3.15a1 1 0 1 0 2 0V9.043a.66.66 0 0 1 .148-.433c.069-.062.246-.149.404 0a.66.66 0 0 1 .148.433v1.607a1 1 0 1 0 2 0V9.043c0-1.275-.93-2.543-2.35-2.543-.295 0-.569.055-.818.153M16.5 9.2l-2.68.01c-.334.017-.77.04-1.242.37-.476.334-.675.809-.825 1.166l-1.715 4.036-.663-1.004c-.035-.052-.12-.183-.237-.3a1.4 1.4 0 0 0-.505-.323c-.11-.042-.274-.099-.471-.11s-.358.033-.4.043c-.191.048-.584.215-.71.269l-.008.003a1 1 0 0 0 .852 1.808l.525.795c.175.313.367.657.548.893.18.234.588.688 1.261.64s1.013-.552 1.159-.809c.146-.258.282-.605.414-.94l1.932-4.526L16.5 11.2a1 1 0 1 0 0-2" clip-rule="evenodd"/></svg>