<svg xmlns="http://www.w3.org/2000/svg" fill="none" viewBox="0 0 24 24"><path fill="currentColor" fill-rule="evenodd" d="M2.95 1.542A.996.996 0 0 0 1.542 2.95l1.094 1.094c-.147.34-.234.713-.288 1.114-.098.73-.098 1.657-.098 2.79v8.107c0 1.133 0 2.058.098 2.79.103.763.325 1.425.854 1.954s1.19.751 1.955.854c.73.098 1.656.098 2.79.098h9.074c.85 0 1.582 0 2.168-.08.296-.04.586-.104.861-.212l1 1a.996.996 0 1 0 1.408-1.41z" clip-rule="evenodd"/><path fill="currentColor" d="M12.054 2.25H7.946c-.816 0-1.524 0-2.13.037L17.75 14.22V7.946l-.001-.753c.505.005.882.02 1.185.06.415.057.546.148.619.222s.163.206.219.627c.06.45.061 1.058.061 2v6.201l1.906 1.906c.011-.38.011-.798.011-1.248v-6.922c0-.86 0-1.602-.079-2.195-.084-.637-.275-1.247-.763-1.741-.489-.495-1.09-.688-1.719-.773-.433-.06-.945-.075-1.525-.079l-.012-.094c-.103-.764-.325-1.427-.854-1.955-.529-.529-1.19-.751-1.955-.854-.73-.098-1.656-.098-2.79-.098" opacity=".4"/></svg>