<svg xmlns="http://www.w3.org/2000/svg" fill="none" viewBox="0 0 24 24"><path fill="currentColor" d="M9.32 2.25h3.11c1.603 0 2.882 0 3.885.135 1.037.14 1.89.435 2.565 1.11s.97 1.528 1.11 2.565c.135 1.003.135 2.282.135 3.884v3.47c0 .188 0 .281-.045.354s-.134.117-.312.206c-.822.412-1.557.968-2.17 1.506-.825.723-1.579 1.547-2.201 2.293a1 1 0 0 1-.108.119.28.28 0 0 1-.253.054c-.033-.008-.075-.029-.16-.07a4 4 0 0 0-.642-.249 3 3 0 0 0-.859-.127 2.5 2.5 0 0 0-.773 4.878.3.3 0 0 1 .138.09l.026.034c.065.084.06.22-.044.242-.03.006-.055.006-.103.006h-3.3c-1.602 0-2.881 0-3.884-.135-1.037-.14-1.89-.435-2.565-1.11s-.97-1.528-1.11-2.565c-.135-1.003-.135-2.282-.135-3.884V9.944c0-1.602 0-2.881.135-3.884.14-1.037.435-1.89 1.11-2.565s1.528-.97 2.565-1.11c1.003-.135 2.282-.135 3.884-.135" opacity=".4"/><path fill="currentColor" fill-rule="evenodd" d="M5.875 1a1 1 0 0 1 1 1v2a1 1 0 0 1-2 0V2a1 1 0 0 1 1-1m5 0a1 1 0 0 1 1 1v2a1 1 0 1 1-2 0V2a1 1 0 0 1 1-1m5 0a1 1 0 0 1 1 1v2a1 1 0 1 1-2 0V2a1 1 0 0 1 1-1m-9.75 9a.75.75 0 0 1 .75-.75h8a.75.75 0 0 1 0 1.5h-8a.75.75 0 0 1-.75-.75m0 5a.75.75 0 0 1 .75-.75h4a.75.75 0 0 1 0 1.5h-4a.75.75 0 0 1-.75-.75m15.584 1.943a1 1 0 0 0-.668-1.885c-.878.31-1.717.904-2.454 1.55-.747.655-1.445 1.415-2.039 2.127a30 30 0 0 0-1.143 1.465 4 4 0 0 0-.85-.782 2.6 2.6 0 0 0-.766-.358 1.3 1.3 0 0 0-.414-.06 1 1 0 0 0-.094 1.996c.023.008.08.03.164.086.2.133.595.484 1.036 1.366a1 1 0 0 0 1.738.088c.088-.132.348-.522.513-.756.332-.469.8-1.103 1.352-1.764.554-.664 1.179-1.34 1.822-1.904.653-.573 1.27-.98 1.803-1.17" clip-rule="evenodd"/></svg>