<svg xmlns="http://www.w3.org/2000/svg" fill="none" viewBox="0 0 24 24"><path fill="currentColor" fill-rule="evenodd" d="M9.837 22.654c-.087-.088-.087-.227-.087-.505V1.85c0-.278 0-.417.087-.505s.225-.089.502-.091q.748-.006 1.604-.005h2.113c1.838 0 3.294 0 4.433.153 1.172.158 2.121.49 2.87 1.238.748.749 1.08 1.698 1.238 2.87.153 1.14.153 2.595.153 4.433v4.112c0 1.838 0 3.294-.153 4.433-.158 1.172-.49 2.121-1.238 2.87-.749.748-1.698 1.08-2.87 1.238-1.14.153-2.595.153-4.433.153h-2.112q-.856.001-1.606-.005c-.276-.002-.414-.003-.501-.091M14.25 6a1 1 0 1 0 0 2h4a1 1 0 1 0 0-2zm0 4a1 1 0 1 0 0 2h2a1 1 0 1 0 0-2z" clip-rule="evenodd" opacity=".4"/><path fill="currentColor" fill-rule="evenodd" d="M8.149 1.424c.101.09.101.243.101.55v20.05c0 .307 0 .46-.101.55s-.25.071-.543.034l-.095-.012c-1.172-.158-2.121-.49-2.87-1.238C4.005 20.72 3.67 19.94 3.487 19H2.25a1 1 0 1 1 0-2h1.034c-.034-.85-.034-1.827-.034-2.945V13h-1a1 1 0 1 1 0-2h1V9.943c0-1.118 0-2.094.034-2.943H2.25a1 1 0 0 1 0-2h1.236c.183-.941.519-1.723 1.155-2.36.749-.748 1.698-1.08 2.87-1.238l.095-.012c.294-.037.441-.055.543.034M14.25 6a1 1 0 1 0 0 2h4a1 1 0 1 0 0-2zm0 4a1 1 0 1 0 0 2h2a1 1 0 1 0 0-2z" clip-rule="evenodd"/></svg>