<svg xmlns="http://www.w3.org/2000/svg" fill="none" viewBox="0 0 24 24"><path fill="currentColor" fill-rule="evenodd" d="M16.016 8h3.167l-3.438 3.36a8 8 0 0 0-.296.309c-.092.103-.233.27-.33.481a1.23 1.23 0 0 0-.022 1.004c.16.371.454.564.67.66.206.09.418.129.579.148.305.038.684.038 1.032.038H21a1 1 0 1 0 0-2h-3.07l3.113-3.023c.229-.251.468-.513.628-.748.153-.225.467-.758.2-1.383-.272-.633-.883-.766-1.155-.806-.28-.04-.634-.04-.97-.04h-3.729a1 1 0 1 0 0 2m-.086 11.75h-2.075a2 2 0 0 1-3.71 0H8.07a4.001 4.001 0 0 0 7.86 0" clip-rule="evenodd"/><path fill="currentColor" fill-rule="evenodd" d="M12 1c-.483 0-1.026.083-1.471.374-.494.324-.779.847-.779 1.501 0 .548.197 1.118.504 1.577a7.6 7.6 0 0 0-5.845 7q-.013.258-.022.496c-.022.542-.041 1.013-.14 1.465-.117.54-.334.964-.775 1.295a3.06 3.06 0 0 0-1.222 2.445c0 1.381 1.087 2.597 2.55 2.597h14.4c1.463 0 2.55-1.216 2.55-2.597 0-.432-.076-1.295-.485-1.571-.129-.087-.292-.085-.619-.083q-1.12.008-2.243.003l-1.065-.002c-.737 0-1.491-.011-2.178-.315a2.77 2.77 0 0 1-1.441-1.44 2.73 2.73 0 0 1 .038-2.22c.223-.487.576-.895.958-1.276.32-.317.479-.476.47-.612s-.233-.306-.679-.645a2.496 2.496 0 0 1-.6-3.332c.34-.535.51-.802.45-.946-.054-.13-.243-.183-.609-.263.306-.459.503-1.029.503-1.576 0-.654-.285-1.177-.779-1.5C13.026 1.082 12.483 1 12 1" clip-rule="evenodd" opacity=".4"/></svg>