<svg xmlns="http://www.w3.org/2000/svg" fill="none" viewBox="0 0 24 24"><path fill="currentColor" d="M13.545 1.75h-3.09c-1.841 0-3.283 0-4.42.12-1.155.123-2.092.377-2.874.956a5 5 0 0 0-.652.575c-.674.71-.977 1.574-1.12 2.629-.139 1.018-.139 2.303-.139 3.915v.11c0 1.612 0 2.897.138 3.915.144 1.055.447 1.92 1.121 2.629q.3.314.652.575c.782.579 1.719.833 2.875.956 1.136.12 2.578.12 4.42.12h3.089c1.841 0 3.283 0 4.42-.12 1.155-.123 2.092-.377 2.874-.956q.353-.261.652-.575c.674-.71.977-1.574 1.12-2.629.139-1.018.139-2.303.139-3.915v-.11c0-1.612 0-2.897-.138-3.915-.144-1.055-.447-1.92-1.121-2.629a5 5 0 0 0-.652-.575c-.782-.579-1.719-.833-2.875-.956-1.136-.12-2.578-.12-4.42-.12" opacity=".4"/><path fill="currentColor" fill-rule="evenodd" d="M10.165 6.003h-.49l-.241-.002c-.575-.005-1.177-.01-1.71.23-.678.304-1.216.888-1.497 1.622a3.3 3.3 0 0 0-.19.985 19 19 0 0 0 0 2.324c.02.33.065.659.19.985.28.734.819 1.318 1.497 1.622.533.24 1.135.235 1.71.23l.24-.002h.49c.51 0 .922-.447.922-1 0-.551-.412-.998-.921-.998h-.461c-.442 0-.728 0-.946-.017-.498-.037-.847-.392-.883-.957A18 18 0 0 1 7.86 10c0-.48 0-.789.015-1.026.036-.564.385-.92.883-.956.218-.016.504-.017.946-.017h.46c.51 0 .922-.447.922-.999s-.412-1-.921-1m6.913 0h-.49L16.348 6c-.576-.005-1.177-.01-1.71.23-.678.304-1.217.888-1.498 1.622a3.3 3.3 0 0 0-.19.985 19 19 0 0 0 0 2.324c.02.33.066.659.19.985.281.734.82 1.318 1.497 1.622.534.24 1.135.235 1.71.23l.24-.002h.491c.51 0 .922-.447.922-1 0-.551-.413-.998-.922-.998h-.46c-.443 0-.728 0-.947-.017-.497-.037-.846-.392-.882-.957A18 18 0 0 1 14.774 10c0-.48 0-.789.015-1.026.036-.564.385-.92.882-.956.219-.016.504-.017.946-.017h.461c.51 0 .922-.447.922-.999s-.413-1-.922-1M1 21.25c0-.552.547-1 1.222-1h19.556c.675 0 1.222.448 1.222 1s-.547 1-1.222 1H2.222c-.675 0-1.222-.448-1.222-1" clip-rule="evenodd"/></svg>