<svg xmlns="http://www.w3.org/2000/svg" fill="none" viewBox="0 0 24 24"><path fill="currentColor" d="M4.778 11.926a.9.9 0 0 0 .207-1.298 1.007 1.007 0 0 0-1.363-.197c-.736.516-1.372 1.255-1.372 2.207V13c0 3.924 2.727 7.265 5.544 9.11.703.46 1.514.64 2.289.64h3.834c.775 0 1.586-.18 2.29-.64 2.816-1.845 5.543-5.186 5.543-9.11v-.362c0-.952-.636-1.69-1.372-2.207a1.007 1.007 0 0 0-1.363.197.9.9 0 0 0 .207 1.298c.51.358.578.612.578.712 0 .085-.043.272-.367.55-.323.277-.846.569-1.575.833-1.451.527-3.522.872-5.858.872s-4.406-.345-5.858-.872c-.729-.264-1.252-.556-1.575-.834-.324-.277-.367-.464-.367-.549 0-.1.068-.354.578-.712" opacity=".4"/><path fill="currentColor" fill-rule="evenodd" d="M2.634 1.346a.75.75 0 0 1 1.02.288 21 21 0 0 0 2.106 3.1 4.8 4.8 0 0 0-.704 1.485 22 22 0 0 1-2.71-3.852.75.75 0 0 1 .288-1.021M5.056 6.22c-.619 2.236.386 4.818 2.426 6.157 1.015.665 2.62 1.339 4.43 1.372 1.84.035 3.866-.594 5.637-2.491a.75.75 0 0 0-.254-1.202c-1.27-.541-2.004-1.591-2.707-2.827q-.14-.247-.284-.508a22 22 0 0 0-.786-1.342c-.389-.593-.858-1.171-1.49-1.586-2.158-1.416-4.86-1.028-6.268.942 1.49 1.806 3.08 3.039 4.597 3.86a.75.75 0 1 1-.714 1.32C8.108 9.083 6.536 7.889 5.056 6.22" clip-rule="evenodd"/></svg>