<svg xmlns="http://www.w3.org/2000/svg" fill="none" viewBox="0 0 24 24"><path fill="currentColor" d="M13.75 5.133c-.35 0-.67.13-.98.25l-4.79 1.87c-.47.18-.9.35-1.21.52-.28.15-.77.48-.77 1.11v10c0 .63.49.96.77 1.11.3.17.73.34 1.21.52l4.79 1.87c.31.12.63.25.98.25v-10c.35 0 .67-.13.98-.25l4.79-1.87c.47-.18.9-.35 1.21-.52.28-.15.77-.48.77-1.11s-.49-.96-.77-1.11c-.3-.17-.73-.34-1.21-.52l-4.79-1.87c-.31-.12-.63-.25-.98-.25" opacity=".4"/><path fill="currentColor" fill-rule="evenodd" d="M6.75 1.133c.41 0 .75.34.75.75v.25H20v-.25c0-.41.34-.75.75-.75s.75.34.75.75v2c0 .41-.34.75-.75.75s-.75-.34-.75-.75v-.25H7.5v.25c0 .41-.34.75-.75.75S6 4.293 6 3.883v-2c0-.41.34-.75.75-.75M11 12.883v-2l8.57-3.61-.05-.02-1.95-.76-7.61 3.2c-.28.12-.46.39-.46.69v2.5c0 .41.34.75.75.75s.75-.34.75-.75m2.75 9.753v-10c.335 0 .643-.12.941-.235l.039-.015 4.79-1.87c.48-.18.91-.35 1.21-.52.27-.15.76-.48.77-1.09v9.98c0 .63-.49.96-.77 1.11-.31.17-.74.34-1.21.52l-4.79 1.87-.039.015c-.298.116-.606.235-.941.235m-11-16.503c-.41 0-.75.34-.75.75s.34.75.75.75H3v12.5h-.25c-.41 0-.75.34-.75.75s.34.75.75.75h2c.41 0 .75-.34.75-.75s-.34-.75-.75-.75H4.5v-12.5h.25c.41 0 .75-.34.75-.75s-.34-.75-.75-.75z" clip-rule="evenodd"/></svg>