<svg xmlns="http://www.w3.org/2000/svg" fill="none" viewBox="0 0 24 24"><path fill="currentColor" fill-rule="evenodd" d="M18 11.75a6.25 6.25 0 0 0-4.659 10.415c-.908.366-1.608.585-2.341.585-.972 0-1.887-.386-3.306-.986-1.893-.8-3.602-1.522-4.62-2.133-1.007-.604-1.824-1.349-1.824-2.47V6.502c0-.796.565-1.285 1.015-1.583.45-.297 1.089-.6 1.814-.943L7.19 2.501C8.756 1.759 9.828 1.25 11 1.25s2.245.508 3.81 1.25l3.111 1.475c.725.343 1.364.646 1.814.943.45.298 1.015.787 1.015 1.582v5.885A6.2 6.2 0 0 0 18 11.75m-7-8.59c-.67 0-1.315.28-3.157 1.153l-2.849 1.35c-.81.383-1.318.627-1.637.837.319.21.827.454 1.637.838l3.291 1.558c1.51.71 2.102.945 2.715.945.67 0 1.315-.281 3.158-1.154l2.848-1.35c.81-.383 1.318-.627 1.637-.837-.319-.21-.826-.454-1.637-.838l-3.291-1.558c-1.51-.71-2.102-.945-2.715-.945" clip-rule="evenodd" opacity=".4"/><path fill="currentColor" fill-rule="evenodd" d="M18 13.25a4.75 4.75 0 1 0 0 9.5 4.75 4.75 0 0 0 0-9.5m1.613 4.55a1 1 0 0 0-1.415-1.413l-.905.905a1 1 0 0 0 1.414 1.414zM4.329 11.666a.75.75 0 0 1 1.007-.336l2 1a.75.75 0 0 1-.671 1.342l-2-1a.75.75 0 0 1-.336-1.006m9.386-7.556L6.067 7.852l2.217 1.05 7.646-3.743z" clip-rule="evenodd"/></svg>