<svg xmlns="http://www.w3.org/2000/svg" fill="none" viewBox="0 0 24 24"><path fill="currentColor" d="M22.333 3.653c.214.345.437.808.416 1.276-.022.481-.236.854-.507 1.174-.245.288-.588.592-.969.928l-.036.033-.43.38-.003.001c-1.828 1.612-3.643 3.21-4.65 4.99-.393.693-.403 1.49-.408 2.538V15c-.005.97-.01 2.172-.675 3.25a4.7 4.7 0 0 1-.583.74l-.024.026c-.138.149-.29.313-.439.434-.179.145-.43.293-.766.299a1.24 1.24 0 0 1-.784-.278c-.155-.117-.316-.279-.466-.428l-.025-.026-7.002-7.003-.026-.025c-.15-.15-.31-.311-.428-.466a1.24 1.24 0 0 1-.278-.784c.006-.335.154-.586.3-.765.12-.15.284-.302.433-.44l.025-.024a4.7 4.7 0 0 1 .741-.582c1.078-.665 2.28-.67 3.25-.675h.028c1.047-.005 1.845-.016 2.537-.408 1.78-1.008 3.379-2.822 4.99-4.65l.383-.433.032-.037c.337-.38.64-.724.929-.968.32-.27.692-.485 1.173-.507.47-.021.933.202 1.28.417.377.234.758.55 1.096.888.337.338.652.72.886 1.097" opacity=".4"/><path fill="currentColor" d="m4.872 11.906-.237.167-.066.047c-.42.296-.914.647-1.382 1.02-.464.37-.932.785-1.286 1.216-.333.406-.675.955-.65 1.575.017.406.2.723.4.98.183.235.44.492.72.772l3.946 3.945c.28.28.537.538.773.721.256.2.573.384.979.4.62.025 1.17-.317 1.575-.65.43-.354.846-.821 1.216-1.285.373-.469.724-.963 1.02-1.383l.047-.066.167-.237-.085-.084-.99-.992q-.144.2-.295.415l-.07.1c-.297.42-.624.882-.967 1.311-.346.434-.684.807-.995 1.062-.315.259-.494.307-.553.31a.7.7 0 0 1-.127-.084c-.153-.12-.344-.308-.664-.628l-.441-.44.666-.666a.75.75 0 0 0-1.061-1.061l-.666.666-.882-.883 1.861-1.862a.75.75 0 0 0-1.06-1.06l-1.862 1.861-.441-.441c-.32-.32-.509-.51-.628-.664a.7.7 0 0 1-.084-.127c.003-.06.051-.237.31-.553.255-.31.628-.649 1.062-.995.43-.342.89-.67 1.31-.967l.101-.07.415-.294-.992-.992z"/></svg>