<svg xmlns="http://www.w3.org/2000/svg" fill="none" viewBox="0 0 24 24"><path fill="currentColor" fill-rule="evenodd" d="M8.253 1.535a.97.97 0 0 1 1.377.002l9.836 9.888a.98.98 0 0 1 0 1.379L13.52 18.78c-.831.836-1.517 1.525-2.13 2.01-.64.506-1.301.872-2.098.944q-.353.032-.705 0c-.797-.072-1.458-.438-2.099-.945-.613-.484-1.298-1.173-2.13-2.01l-2.01-2.02a3.785 3.785 0 0 1 0-5.334l7.183-7.221L8.25 2.916a.98.98 0 0 1 .002-1.381m2.654 4.051-7.179 7.218a1.83 1.83 0 0 0 0 2.576l1.967 1.978c.885.89 1.49 1.494 2 1.898.494.39.8.51 1.068.534q.177.015.354 0c.269-.025.575-.143 1.068-.534.511-.404 1.115-1.008 2-1.898l5.216-5.244z" clip-rule="evenodd"/><path fill="currentColor" fill-rule="evenodd" d="M3.726 15.383a1.83 1.83 0 0 1 0-2.576l1.657-1.666h11.045l.971.976-5.216 5.244c-.885.89-1.489 1.494-2 1.898-.493.39-.8.51-1.068.534a2 2 0 0 1-.354 0c-.268-.025-.574-.144-1.068-.534-.51-.404-1.115-1.008-2-1.898zm16.79 1.073a.75.75 0 0 0-1.032 0l-.008.008c-.204.212-.794.825-1.057 1.147a8 8 0 0 0-.76 1.086c-.206.365-.409.83-.409 1.303a2.75 2.75 0 1 0 5.5 0c0-.473-.203-.938-.409-1.303a8 8 0 0 0-.76-1.086c-.263-.322-.853-.935-1.057-1.147z" clip-rule="evenodd" opacity=".4"/></svg>