<svg xmlns="http://www.w3.org/2000/svg" fill="none" viewBox="0 0 24 24"><path fill="currentColor" d="M1.25 12C1.25 6.063 6.063 1.25 12 1.25S22.75 6.063 22.75 12c0 .975-.095 1.955-.57 2.741-.51.844-1.369 1.33-2.574 1.502-1.22.174-2.263.174-3.113.174h-.011c-.889 0-1.472.006-1.921.137-.372.108-.65.3-.89.781-.2.4-.192.656-.14.856.066.247.216.483.46.844l.032.048c.295.437.727 1.076.727 1.917 0 .414-.11.798-.368 1.107a1.7 1.7 0 0 1-.864.534c-.444.124-.983.116-1.343.11L12 22.75C6.063 22.75 1.25 17.937 1.25 12" opacity=".4"/><path fill="currentColor" fill-rule="evenodd" d="M7.25 8.5a2.25 2.25 0 1 1 4.5 0 2.25 2.25 0 0 1-4.5 0m-1.216 6.761a1 1 0 0 1 .704-1.224l.009-.003a1 1 0 0 1 .515 1.932l-.009.003a.995.995 0 0 1-1.219-.708M16.5 7.25a2.25 2.25 0 1 0 0 4.5 2.25 2.25 0 0 0 0-4.5" clip-rule="evenodd"/></svg>