<svg xmlns="http://www.w3.org/2000/svg" fill="none" viewBox="0 0 24 24"><path fill="currentColor" d="M12.051 1.75c2.072 0 3.695 0 4.973.155 1.306.159 2.351.49 3.21 1.223q.345.293.638.638c.734.859 1.064 1.904 1.223 3.21.155 1.278.155 2.901.155 4.973v.102c0 2.072 0 3.695-.155 4.973-.159 1.306-.49 2.351-1.223 3.21q-.293.345-.638.638c-.859.734-1.904 1.064-3.21 1.223-1.278.155-2.901.155-4.973.155h-.102c-2.072 0-3.695 0-4.973-.155-1.306-.159-2.351-.49-3.21-1.223a6 6 0 0 1-.638-.638c-.734-.859-1.064-1.904-1.223-3.21-.155-1.278-.155-2.901-.155-4.973v-.102c0-2.072 0-3.695.155-4.973.159-1.306.49-2.351 1.223-3.21a6 6 0 0 1 .638-.638c.859-.734 1.904-1.064 3.21-1.223 1.278-.155 2.901-.155 4.973-.155z" opacity=".4"/><path fill="currentColor" fill-rule="evenodd" d="M10.32 6H13a4 4 0 1 1 0 8h-3v4a1 1 0 1 1-2 0V8.32c0-.282-.002-.629.098-.938a2 2 0 0 1 1.284-1.284c.31-.1.656-.099.937-.098M10 12h3a2 2 0 1 0 0-4h-2.6a8 8 0 0 0-.394.006l-.001.011A8 8 0 0 0 10 8.4z" clip-rule="evenodd"/></svg>