<svg xmlns="http://www.w3.org/2000/svg" fill="none" viewBox="0 0 24 24"><path fill="currentColor" d="M8.311 8.32c-.856 1.337-1.199 1.886-1.376 2.497-.178.612-.185 1.27-.185 2.877V22a.75.75 0 0 1-1.5 0v-8.424c0-1.453 0-2.336.244-3.178.245-.843.717-1.58 1.49-2.788l2.75-4.297c.35-.548.658-1.028.949-1.364.306-.353.723-.7 1.317-.7s1.01.347 1.317.7c.291.336.598.816.949 1.364l2.75 4.297c.773 1.208 1.245 1.945 1.49 2.788s.244 1.725.244 3.178V22a.75.75 0 0 1-1.5 0v-8.306c0-1.608-.007-2.265-.185-2.877-.177-.61-.52-1.16-1.376-2.498L14.192 5.98a.5.5 0 0 0-.421-.23h-3.542a.5.5 0 0 0-.42.23z" opacity=".4"/><path fill="currentColor" fill-rule="evenodd" d="M11.119 10.608c.131.09.131.264.131.613v10.927c0 .282 0 .424-.088.512-.088.087-.23.087-.512.087H6a.75.75 0 0 1-.75-.75v-8.383c0-1.19 0-2.002.124-2.699a.75.75 0 0 1 1.046-.552c.17.076.35.165.524.25l.095.046q.312.155.62.29c.423.18.788.29 1.098.298.424.011.794-.133 1.318-.358l.06-.026q.185-.08.4-.167c.302-.118.453-.178.584-.088m1.719 12.052c-.088-.088-.088-.23-.088-.512V11.22c0-.35 0-.524.131-.613.13-.09.282-.03.584.088q.215.086.4.167l.06.026c.524.225.894.37 1.318.358.31-.009.675-.118 1.097-.298q.309-.134.621-.29l.095-.046c.174-.085.355-.174.524-.25a.75.75 0 0 1 1.046.553c.124.696.124 1.508.124 2.698v8.383a.75.75 0 0 1-.75.75h-4.65c-.283 0-.424 0-.512-.087" clip-rule="evenodd"/></svg>