<svg xmlns="http://www.w3.org/2000/svg" fill="none" viewBox="0 0 24 24"><path fill="currentColor" fill-rule="evenodd" d="M12.75 2.005c0-.41-.34-.75-.75-.75s-.75.34-.75.75v20c0 .41.34.75.75.75s.75-.34.75-.75zM20 16.655c.4-.08.78-.24 1.09-.55.38-.38.53-.85.6-1.35.06-.46.06-1.03.06-1.7v-2.1c0-.66 0-1.24-.06-1.7-.07-.49-.22-.96-.6-1.35s-.85-.53-1.34-.6c-.46-.06-1.04-.06-1.7-.06h-3.91l4.56 4.18c.83.76 1.3 1.83 1.3 2.95zm-10.14-9.4H5.95c-.66 0-1.24 0-1.7.06-.49.07-.96.21-1.34.6s-.53.85-.6 1.35c-.06.46-.06 1.03-.06 1.7v2.1c0 .66 0 1.24.06 1.7.07.49.22.96.6 1.35.31.32.69.47 1.09.55v-2.27c0-1.12.47-2.19 1.3-2.95l4.56-4.18z" clip-rule="evenodd"/><path fill="currentColor" fill-rule="evenodd" d="M18.11 6.005H14v-1.07l3.26-3.26c.28-.28.65-.43 1.03-.43.81 0 1.46.66 1.46 1.46v3.35c-.51-.05-1.09-.05-1.64-.05M6.74 1.685 10 4.945v1.07H5.89c-.55 0-1.13 0-1.64.05v-3.35c0-.81.65-1.46 1.46-1.46.38 0 .75.16 1.03.43M10 8.825l-3.86 3.54c-.57.52-.89 1.26-.89 2.03v5.93c0 .8.65 1.44 1.44 1.44.41 0 .8-.17 1.07-.47l2.24-2.46zm6.24 12.46L14 18.825V8.815l3.86 3.54c.57.52.89 1.26.89 2.03v5.93c0 .79-.65 1.44-1.44 1.44-.41 0-.8-.17-1.07-.47" clip-rule="evenodd" opacity=".4"/></svg>