<svg xmlns="http://www.w3.org/2000/svg" fill="none" viewBox="0 0 24 24"><path fill="currentColor" d="M12.057 1.75c2.19 0 3.912 0 5.255.18 1.377.186 2.469.573 3.327 1.43.858.86 1.245 1.951 1.43 3.328.181 1.343.181 3.064.181 5.255v.114c0 2.19 0 3.912-.18 5.255-.186 1.377-.573 2.469-1.43 3.327-.86.858-1.951 1.245-3.328 1.43-1.343.181-3.064.181-5.255.181h-.114c-2.19 0-3.912 0-5.255-.18-1.377-.186-2.469-.573-3.327-1.43-.858-.86-1.245-1.951-1.43-3.328-.181-1.343-.181-3.064-.181-5.255v-.114c0-2.19 0-3.912.18-5.255.186-1.377.573-2.469 1.43-3.327.86-.858 1.951-1.245 3.328-1.43 1.343-.181 3.064-.181 5.255-.181z" opacity=".4"/><path fill="currentColor" fill-rule="evenodd" d="M10.317 7H9.222C7.545 7 6 8.247 6 10a1 1 0 1 0 2 0c0-.448.431-.982 1.185-1l-.801 5.77-.003.005a.1.1 0 0 1-.036.034.3.3 0 0 1-.205.044.3.3 0 0 1-.126-.048c-.027-.02-.033-.035-.033-.036l-.043-.116a1 1 0 0 0-1.875.694l.043.117c.287.777 1.004 1.273 1.78 1.372 1.112.144 2.307-.556 2.479-1.79L11.205 9h2.425l-.954 6.863a1 1 0 0 0 1.981.275L15.65 9H17a1 1 0 1 0 0-2z" clip-rule="evenodd"/></svg>