<svg xmlns="http://www.w3.org/2000/svg" fill="none" viewBox="0 0 24 24"><path fill="currentColor" d="M15.131 3.75c1.35 0 2.424 0 3.283.095.885.097 1.625.303 2.27.77a4.9 4.9 0 0 1 1.289 1.396c.419.68.602 1.458.69 2.398.087.923.087 2.08.087 3.552s0 2.707-.087 3.63c-.088.94-.271 1.717-.69 2.398a4.9 4.9 0 0 1-1.289 1.396c-.645.467-1.385.673-2.27.77-.859.095-1.934.095-3.283.095H10.36c-.939 0-1.696 0-2.32-.06-.65-.062-1.209-.193-1.744-.483-.532-.289-.957-.69-1.386-1.208-.416-.502-1.06-1.434-1.625-2.251-.62-.898-1.122-1.624-1.463-2.26-.355-.661-.571-1.285-.571-1.988s.216-1.327.57-1.989c.342-.635.843-1.36 1.464-2.259.565-.817 1.21-1.749 1.625-2.251.43-.518.854-.92 1.386-1.208.535-.29 1.093-.42 1.743-.483.625-.06 1.382-.06 2.32-.06z" opacity=".4"/><path fill="currentColor" fill-rule="evenodd" d="M7.75 12c0-.69.558-1.25 1.246-1.25h.008c.688 0 1.246.56 1.246 1.25s-.558 1.25-1.246 1.25h-.008c-.688 0-1.246-.56-1.246-1.25m4 0c0-.69.558-1.25 1.245-1.25h.01c.687 0 1.245.56 1.245 1.25s-.558 1.25-1.245 1.25h-.01c-.687 0-1.245-.56-1.245-1.25m5.246-1.25c-.688 0-1.246.56-1.246 1.25s.558 1.25 1.245 1.25h.01c.687 0 1.245-.56 1.245-1.25s-.558-1.25-1.245-1.25z" clip-rule="evenodd"/></svg>