<svg xmlns="http://www.w3.org/2000/svg" fill="none" viewBox="0 0 24 24"><path fill="currentColor" d="M10.25 2.25h3.501c.23 0 .406 0 .564.018a2.75 2.75 0 0 1 2.417 2.418c.018.157.018.334.018.563 0 .07 0 .203-.006.274a1.75 1.75 0 0 1-.838 1.356c-.06.037-.126.07-.188.1-.212.106-.61.307-.699.36a1 1 0 0 0-.082.055.24.24 0 0 0-.05.106.4.4 0 0 0 .005.097c.013.102.04.236.086.468l.637 3.185c.437 0 .787.01 1.097.094a2.75 2.75 0 0 1 1.945 1.944c.094.352.094.757.093 1.28v.001c0 .242.001.657-.06.884a1.75 1.75 0 0 1-1.237 1.237c-.226.061-.48.06-.722.06H7.269c-.242 0-.495.001-.722-.06a1.75 1.75 0 0 1-1.237-1.237c-.06-.227-.06-.641-.06-.884 0-.524 0-.929.094-1.28a2.75 2.75 0 0 1 1.944-1.945c.31-.083.66-.093 1.097-.094l.637-3.185c.047-.232.073-.366.086-.468a1 1 0 0 0 .006-.097.24.24 0 0 0-.051-.106s-.028-.024-.082-.056a23 23 0 0 0-.698-.358c-.062-.031-.128-.064-.19-.101a1.75 1.75 0 0 1-.837-1.356 4 4 0 0 1-.006-.274c0-.23 0-.406.018-.563a2.75 2.75 0 0 1 2.418-2.418c.158-.018.334-.018.563-.018" opacity=".4"/><path fill="currentColor" d="M11 16.75v4a1 1 0 1 0 2 0v-4z"/></svg>