<svg xmlns="http://www.w3.org/2000/svg" fill="none" viewBox="0 0 24 24"><path fill="currentColor" fill-rule="evenodd" d="M7.038 13.504a.75.75 0 1 0-.404 1.445l.255.071-1.856 7.23h10.832l1.13-4.404.224.063a.75.75 0 0 0 .404-1.444zm2.58-10.043a.75.75 0 0 0-.404 1.445l.255.071L8.179 10l10.107 2.827 1.289-5.022.224.062a.75.75 0 1 0 .404-1.444z" clip-rule="evenodd" opacity=".4"/><path fill="currentColor" fill-rule="evenodd" d="M11.782 19.702a.75.75 0 1 0-1.444-.404l-.407 1.452H2a.75.75 0 0 0 0 1.5h20a.75.75 0 0 0 0-1.5H11.489zm2.422-11.424a.75.75 0 0 1 .52.925l-.278.993 4.466 1.25a.75.75 0 1 1-.404 1.444l-.224-.063-1.29 5.022L6.89 15.023l1.289-5.022-.255-.071a.75.75 0 1 1 .404-1.445l.962.27L13 9.791l.279-.994a.75.75 0 0 1 .924-.52m2.373-2.87 1.445.404.27-1.051c.236-.924-.3-1.88-1.227-2.14l-2.883-.806a1.75 1.75 0 0 0-2.163 1.257l-.254.99 1.445.404.262-1.021a.25.25 0 0 1 .306-.185l2.883.806a.264.264 0 0 1 .177.322zm-6.954 4.997-.916 3.569 2.896.81.242-.861a.75.75 0 0 1 1.444.405l-.241.86 2.875.804.916-3.569z" clip-rule="evenodd"/></svg>