<svg xmlns="http://www.w3.org/2000/svg" fill="none" viewBox="0 0 24 24"><path fill="currentColor" fill-rule="evenodd" d="M14.586 8.032a.75.75 0 0 1-.117 1.054l-2.5 2a.75.75 0 0 1-.937-1.172l2.5-2a.75.75 0 0 1 1.054.118m2 2.5a.75.75 0 0 1-.117 1.054l-2.5 2a.75.75 0 0 1-.937-1.172l2.5-2a.75.75 0 0 1 1.054.117" clip-rule="evenodd" opacity=".4"/><path fill="currentColor" fill-rule="evenodd" d="M14.641 3.641a4.75 4.75 0 1 1 6.718 6.718 4.75 4.75 0 0 1-6.718-6.718m4.067 4.067a.997.997 0 0 1-1.41 0l-.006-.006a.997.997 0 1 1 1.41-1.41l.006.006c.39.39.39 1.02 0 1.41m-6.613 2.777c-.313-.614-.901-1.02-1.51-1.169-.613-.15-1.35-.062-1.904.463L2.324 15.81a3.373 3.373 0 0 0 0 4.936c1.409 1.337 3.678 1.337 5.087 0a3.4 3.4 0 0 0 1.073-2.557l2.61-2.477c1.232.481 2.639.356 3.684.124a1.21 1.21 0 0 0 .971-1.147 1.35 1.35 0 0 0-.72-1.227 7.3 7.3 0 0 1-1.535-1.115 6.9 6.9 0 0 1-1.399-1.863" clip-rule="evenodd"/></svg>