<svg xmlns="http://www.w3.org/2000/svg" fill="none" viewBox="0 0 24 24"><path fill="currentColor" d="M12.073 1.75h-.146c-2.124 0-3.817 0-5.145.178-1.371.185-2.497.575-3.388 1.466-.89.89-1.281 2.017-1.466 3.388-.178 1.328-.178 3.021-.178 5.145v.146c0 2.124 0 3.817.178 5.145.185 1.371.575 2.497 1.466 3.388.89.89 2.017 1.281 3.388 1.465 1.328.179 3.021.179 5.145.179h.146c2.124 0 3.817 0 5.145-.178 1.371-.185 2.497-.575 3.388-1.466.89-.89 1.281-2.017 1.465-3.388.179-1.328.179-3.021.179-5.145v-.146c0-2.124 0-3.817-.178-5.145-.185-1.371-.575-2.497-1.466-3.388-.89-.89-2.017-1.281-3.388-1.466-1.328-.178-3.021-.178-5.145-.178" opacity=".4"/><path fill="currentColor" d="M13.128 8.767c-.648-.4-1.21-.748-1.68-.966-.48-.222-1.08-.417-1.723-.219-.409.126-.77.363-1.055.675-.427.47-.557 1.071-.613 1.619C8 10.42 8 11.119 8 11.946v.109c0 .827 0 1.525.057 2.07.056.547.186 1.149.613 1.618.285.313.646.549 1.055.675.642.198 1.243.004 1.722-.218.471-.219 1.033-.566 1.68-.967l.104-.064c.672-.416 1.252-.774 1.675-1.11.44-.35.865-.793 1.02-1.43a2.7 2.7 0 0 0 0-1.258c-.155-.637-.58-1.08-1.02-1.429-.424-.337-1.003-.695-1.675-1.111z"/></svg>