<svg xmlns="http://www.w3.org/2000/svg" fill="none" viewBox="0 0 24 24"><path fill="currentColor" d="M22.242 9.78c-.005-.366-.007-.55-.124-.665S21.817 9 21.448 9H2.552c-.369 0-.553 0-.67.115-.117.116-.12.299-.124.664-.008.665-.008 1.385-.008 2.164v.114c0 2.19 0 3.912.18 5.255.186 1.377.573 2.469 1.43 3.327.86.858 1.951 1.245 3.328 1.43 1.343.18 3.064.18 5.255.18h.114c2.19 0 3.912 0 5.255-.18 1.377-.185 2.469-.572 3.327-1.43s1.245-1.95 1.43-3.327c.181-1.344.181-3.064.181-5.255v-.114q.002-1.169-.008-2.164" opacity=".4"/><path fill="currentColor" fill-rule="evenodd" d="M12.181 1.752c-.277.001-.415.001-.53.066-.114.065-.185.184-.327.42l-2.496 4.16c-.16.268-.241.402-.184.504.058.101.214.101.527.101h3.452c.275 0 .413 0 .527-.064.114-.065.185-.182.328-.418l2.326-3.845c.229-.378.343-.567.261-.718-.081-.15-.298-.159-.733-.175a72 72 0 0 0-2.945-.031zm-3.627.038c.316-.012.475-.018.535.084s-.02.24-.183.514l-2.45 4.126c-.142.239-.213.358-.328.424-.115.065-.254.065-.532.065H2.338c-.21 0-.315 0-.375-.07-.06-.068-.045-.17-.015-.372.175-1.178.549-2.334 1.412-3.197.858-.858 1.95-1.245 3.327-1.43a20 20 0 0 1 1.867-.144m9.982.475c.175-.057.328.006.634.132.552.227 1.04.538 1.468.967.863.863 1.236 2.019 1.411 3.197.03.202.045.304-.014.373-.06.07-.165.07-.375.07h-5.463c-.317 0-.476 0-.533-.103s.026-.238.192-.507l2.214-3.599c.194-.315.291-.473.466-.53M12.654 16.85c1.432-.886 2.148-1.329 2.3-1.955a1.7 1.7 0 0 0 0-.79c-.152-.626-.868-1.07-2.3-1.955-1.384-.856-2.076-1.285-2.634-1.113-.23.072-.44.207-.61.393C9 11.88 9 12.754 9 14.5c0 1.747 0 2.62.41 3.07.17.186.38.321.61.392.558.173 1.25-.256 2.634-1.112" clip-rule="evenodd"/></svg>