<svg xmlns="http://www.w3.org/2000/svg" fill="none" viewBox="0 0 24 24"><path fill="currentColor" d="M12.057 1.75c2.19 0 3.912 0 5.255.18 1.377.186 2.469.573 3.327 1.43.858.86 1.245 1.951 1.43 3.328.181 1.343.181 3.064.181 5.255v.114c0 2.19 0 3.912-.18 5.255-.186 1.377-.573 2.469-1.43 3.327-.86.858-1.951 1.245-3.328 1.43-1.343.181-3.064.181-5.255.181h-.114c-2.19 0-3.912 0-5.255-.18-1.377-.186-2.469-.573-3.327-1.43-.858-.86-1.245-1.951-1.43-3.328-.181-1.343-.181-3.064-.181-5.255v-.114c0-2.19 0-3.912.18-5.255.186-1.377.573-2.469 1.43-3.327.86-.858 1.951-1.245 3.328-1.43 1.343-.181 3.064-.181 5.255-.181z" opacity=".4"/><path fill="currentColor" fill-rule="evenodd" d="M15.822 15.083c-.024.203-.239.322-.668.56l-.763.422-.086.048c-1.314.724-2.356 1.298-3.206 1.65-.859.355-1.659.546-2.446.34-.113-.03-.144-.172-.058-.252l4.692-4.331c.258-.238.386-.357.543-.357.156 0 .285.12.543.357l.927.857c.364.335.546.503.522.706m-7.169-9.31c-.16.042-.2.24-.078.353l4.712 4.35c.258.238.386.357.543.357.156 0 .285-.119.543-.357l1.01-.933c.363-.334.544-.502.52-.705s-.237-.321-.664-.56l-.848-.468-.086-.048c-1.314-.723-2.356-1.298-3.206-1.65-.859-.355-1.659-.546-2.446-.34m-1.645 1.19c-.207.048-.267.206-.39.522a4.8 4.8 0 0 0-.256 1.079c-.112.844-.112 1.95-.112 3.32v.114c0 1.37 0 2.475.112 3.32.057.427.147.83.302 1.19.129.3.193.45.396.492.202.044.346-.09.635-.356l4.392-4.055c.298-.275.447-.413.447-.588s-.149-.312-.447-.587L7.661 7.327c-.298-.275-.447-.412-.653-.364m9.967 3.155-1.403 1.296c-.298.275-.447.412-.447.587s.149.313.447.588l1.337 1.235c.242.223.362.334.52.332.16-.002.266-.104.478-.308.366-.353.643-.752.762-1.237.108-.441.108-.9 0-1.34-.111-.454-.36-.832-.691-1.167-.209-.211-.313-.317-.474-.32-.162-.004-.284.108-.529.334" clip-rule="evenodd"/></svg>