<svg xmlns="http://www.w3.org/2000/svg" fill="none" viewBox="0 0 24 24"><path fill="currentColor" d="M11.633 2.389c.463-.157 1.023-.244 1.548.093.515.33.683.87.752 1.355C14 4.305 14 4.914 14 5.62V21a.75.75 0 0 1-.75.75h-8A.75.75 0 0 1 4.5 21V7.72c0-.285 0-.552.022-.777.025-.249.082-.509.233-.763.152-.255.354-.428.563-.566a8 8 0 0 1 .664-.37l4.08-2.118c.604-.314 1.133-.588 1.571-.737" opacity=".4"/><path fill="currentColor" fill-rule="evenodd" d="m14 7.132 4.342 2.171.033.017c.24.12.483.24.68.367.227.144.465.336.646.63.182.294.248.593.275.86.024.233.024.504.024.772v7.801h.5a1 1 0 1 1 0 2h-17a1 1 0 1 1 0-2H18v-7.764c0-.32-.001-.486-.013-.604v-.005l-.005-.003a7 7 0 0 0-.535-.282L14 9.368zM8.75 8.25a.75.75 0 0 0 0 1.5h1a.75.75 0 0 0 0-1.5zm0 4a.75.75 0 0 0 0 1.5h1a.75.75 0 0 0 0-1.5zm0 4a.75.75 0 0 0 0 1.5h1a.75.75 0 0 0 0-1.5z" clip-rule="evenodd"/></svg>