<svg xmlns="http://www.w3.org/2000/svg" fill="none" viewBox="0 0 24 24"><path fill="currentColor" d="M8.036 2.25c.904 0 1.633 0 2.222.053.606.055 1.136.172 1.617.45a3.75 3.75 0 0 1 1.373 1.372c.277.481.394 1.011.449 1.617.053.589.053 1.39.053 2.294s0 1.633-.053 2.222c-.055.606-.172 1.136-.45 1.617a3.75 3.75 0 0 1-1.372 1.373c-.481.277-1.011.394-1.617.449-.589.053-1.39.053-2.294.053s-1.633 0-2.222-.053c-.606-.055-1.136-.172-1.617-.45a3.75 3.75 0 0 1-1.373-1.372c-.277-.481-.394-1.011-.449-1.617-.053-.589-.053-1.318-.053-2.222s0-1.705.053-2.294c.055-.606.172-1.136.45-1.617a3.75 3.75 0 0 1 1.372-1.373c.481-.277 1.011-.394 1.617-.449.589-.053 1.39-.053 2.294-.053" opacity=".4"/><path fill="currentColor" fill-rule="evenodd" d="M8 5.25a.75.75 0 0 1 .75.75v1.25H10a.75.75 0 0 1 0 1.5H8.75V10a.75.75 0 0 1-1.5 0V8.75H6a.75.75 0 0 1 0-1.5h1.25V6A.75.75 0 0 1 8 5.25m2.308 8.442-.005.05c-.053.589-.053 1.39-.053 2.294s0 1.633.053 2.222c.055.606.172 1.136.45 1.617a3.75 3.75 0 0 0 1.372 1.373c.481.277 1.011.394 1.617.449.589.053 1.318.053 2.222.053s1.705 0 2.294-.053c.606-.055 1.136-.172 1.617-.45a3.75 3.75 0 0 0 1.373-1.372c.277-.481.394-1.011.449-1.617.053-.589.053-1.318.053-2.222s0-1.705-.053-2.294c-.055-.606-.172-1.136-.45-1.617a3.75 3.75 0 0 0-1.372-1.373c-.481-.277-1.011-.394-1.617-.449-.589-.053-1.318-.053-2.222-.053s-1.705 0-2.294.053l-.05.005c-.057.585-.174 1.1-.444 1.567a3.75 3.75 0 0 1-1.373 1.373c-.468.27-.982.387-1.567.444M18.75 16a.75.75 0 0 1-.75.75h-4a.75.75 0 0 1 0-1.5h4a.75.75 0 0 1 .75.75" clip-rule="evenodd"/></svg>