<svg xmlns="http://www.w3.org/2000/svg" fill="none" viewBox="0 0 24 24"><path fill="currentColor" d="M13.282 9.166h5.968a2.5 2.5 0 0 1 0 5h-4.607l-.379 2.438v.004l-.004.023c-.141.942-.253 1.685-.381 2.276-.13.6-.29 1.102-.554 1.544-.765 1.277-1.988 2.299-3.799 2.299-1.087 0-1.87-.262-3.408-.777-1.063-.354-2.254-.751-2.807-1.131a4.75 4.75 0 0 1-1.876-2.603c-.185-.645-.185-1.363-.185-2.483v-1.702c0-1.615 0-2.657.398-3.569a4.8 4.8 0 0 1 .704-1.139c.637-.764 1.569-1.23 3.014-1.952.624-.312 1.316-.657 1.752-.833.453-.182.876-.3 1.334-.31a3.8 3.8 0 0 1 1.12.144c.44.126.82.346 1.213.637.377.28.805.654 1.33 1.113z" opacity=".4"/><path fill="currentColor" d="M15.75 5.506a1 1 0 1 1 0-2h2.5v-.594c0-.176 0-.392.022-.568V2.34c.016-.127.088-.703.653-.977.567-.275 1.067.027 1.176.092l.468.34c.376.294.89.7 1.281 1.08.195.19.397.407.555.638.142.205.345.555.345.986s-.203.78-.344.986c-.16.231-.36.448-.556.638-.39.38-.905.786-1.28 1.08l-.47.34c-.108.065-.608.367-1.175.092-.565-.274-.637-.85-.653-.977v-.003c-.022-.176-.022-.392-.022-.568v-.582z"/></svg>