<svg xmlns="http://www.w3.org/2000/svg" fill="none" viewBox="0 0 24 24"><path fill="currentColor" d="M20.84 14.32c-.13.104-.45.43-.84.43H4.007c-.382-.068-.715-.326-.846-.429a5.5 5.5 0 0 1-.917-.928c-.648-.837-1.226-2.118-.9-3.802.126-.65.542-1.258 1.027-1.79.499-.545 1.142-1.087 1.839-1.602 1.397-1.032 3.219-2.081 4.63-2.837C10.079 2.698 10.916 2.25 12 2.25s1.92.448 3.16 1.112c1.41.756 3.23 1.805 4.63 2.837.7.515 1.34 1.057 1.84 1.602.48.532.9 1.14 1.03 1.79.32 1.684-.25 2.964-.9 3.801a5.4 5.4 0 0 1-.92.928" opacity=".4"/><path fill="currentColor" fill-rule="evenodd" d="m11.496 7.128-1.106.602c-.29.158-.453.48-.367.796.217.8.752 2.07 1.977 2.474 1.225-.404 1.76-1.675 1.98-2.474a.714.714 0 0 0-.37-.796l-1.106-.602a1.05 1.05 0 0 0-1.008 0m9.344 7.192-.06.05-.02.018c-.163.136-.434.362-.76.362h-1.13c.04.052.09.1.14.146.49.43.84 1.225.78 1.946-.03.342-.14.643-.36.888-.21.244-.56.486-1.15.635-2 .505-4.22 1.039-5.48 1.34-.554.132-.678.156-.8.156s-.246-.024-.8-.156a445 445 0 0 1-5.48-1.34c-.59-.15-.942-.391-1.153-.635a1.5 1.5 0 0 1-.36-.888c-.06-.721.288-1.515.783-1.946a1 1 0 0 0 .137-.146h-1.12c-.382-.068-.715-.327-.846-.43l-.123-.101c-.55.789-.857 1.798-.775 2.777.058.679.304 1.366.811 1.95.51.586 1.233 1.014 2.153 1.246a441 441 0 0 0 5.507 1.347l.08.02.016.004c.426.1.787.187 1.17.187s.744-.086 1.17-.187l.016-.004.08-.02c1.264-.302 3.494-.838 5.504-1.347.92-.232 1.65-.66 2.16-1.246.5-.584.75-1.271.81-1.95.08-.98-.23-1.987-.78-2.776q-.06.053-.12.1" clip-rule="evenodd"/></svg>