<svg xmlns="http://www.w3.org/2000/svg" fill="none" viewBox="0 0 24 24"><path fill="currentColor" fill-rule="evenodd" d="M6.75 3a.75.75 0 0 0-1.5 0A2.25 2.25 0 0 1 3 5.25a.75.75 0 0 0 0 1.5A3.75 3.75 0 0 0 6.75 3m12 0a.75.75 0 0 0-1.5 0A3.75 3.75 0 0 0 21 6.75a.75.75 0 0 0 0-1.5A2.25 2.25 0 0 1 18.75 3M3 13.25a.75.75 0 0 0 0 1.5A2.25 2.25 0 0 1 5.25 17a.75.75 0 0 0 1.5 0A3.75 3.75 0 0 0 3 13.25m18 0A3.75 3.75 0 0 0 17.25 17a.75.75 0 0 0 1.5 0A2.25 2.25 0 0 1 21 14.75a.75.75 0 0 0 0-1.5m-6.25-10a.75.75 0 0 0-1.5 0 1.25 1.25 0 1 1-2.5 0 .75.75 0 0 0-1.5 0 2.75 2.75 0 1 0 5.5 0m-4 13.5a1.25 1.25 0 1 1 2.5 0 .75.75 0 0 0 1.5 0 2.75 2.75 0 1 0-5.5 0 .75.75 0 0 0 1.5 0" clip-rule="evenodd" opacity=".4"/><path fill="currentColor" fill-rule="evenodd" d="M20.074 4.045C19.772 4.002 19.35 4 18.65 4H5.35c-.701 0-1.122.002-1.423.045a1 1 0 0 0-.245.058.1.1 0 0 0-.04.025c-.004.004-.06.054-.098.353C3.502 4.81 3.5 5.266 3.5 6v8c0 .734.002 1.189.044 1.52.038.298.094.348.098.352a.1.1 0 0 0 .04.025 1 1 0 0 0 .245.058c.301.043.722.045 1.423.045h.86l3.465-5.065a1 1 0 1 1 1.65 1.13L8.633 16H18.65c.702 0 1.122-.002 1.424-.045a1 1 0 0 0 .244-.058.1.1 0 0 0 .04-.025c.004-.004.06-.054.098-.353.042-.33.044-.785.044-1.519V6c0-.734-.002-1.189-.044-1.52-.038-.298-.094-.348-.098-.352a.1.1 0 0 0-.04-.025 1 1 0 0 0-.245-.058M7.263 18h11.449c.617 0 1.182 0 1.64-.065.51-.072 1.032-.24 1.455-.686.416-.438.567-.966.632-1.476.06-.473.06-1.057.06-1.713V5.94c0-.655 0-1.24-.06-1.713-.065-.51-.216-1.038-.632-1.476-.423-.446-.946-.614-1.454-.686C19.894 2 19.33 2 18.713 2H5.287c-.617 0-1.182 0-1.64.065-.51.072-1.032.24-1.455.686-.416.438-.567.966-.632 1.476-.06.473-.06 1.058-.06 1.714v8.119c0 .656 0 1.24.06 1.713.065.51.216 1.038.632 1.476.423.446.946.614 1.454.686A9 9 0 0 0 4.842 18l-1.667 2.436a1 1 0 0 0 1.65 1.13zM11 9a1 1 0 0 1 1-1h.012a1 1 0 1 1 0 2H12a1 1 0 0 1-1-1" clip-rule="evenodd"/></svg>