<svg xmlns="http://www.w3.org/2000/svg" fill="none" viewBox="0 0 24 24"><path fill="currentColor" d="M16.391 1.702c1.319.635 2.366 1.928 2.432 3.585.826.15 1.5.551 1.992 1.113.63.717.93 1.654.935 2.564s-.283 1.85-.904 2.575c-.634.74-1.578 1.21-2.771 1.21H5.9c-1.195 0-2.14-.466-2.77-1.207-.618-.724-.897-1.664-.88-2.572s.33-1.84.97-2.551a3.5 3.5 0 0 1 2.002-1.102C5.277 3.655 6.32 2.353 7.639 1.71c1.334-.65 3.034-.667 4.384.312 1.344-.975 3.037-.962 4.368-.32"/><path fill="currentColor" fill-rule="evenodd" d="M19.169 14.318c-.097-.112-.319-.1-.762-.074a6 6 0 0 1-.333.009h-2.152c-.242 0-.363 0-.447.07-.083.071-.104.19-.144.428v.001l-1.208 7.115c-.057.332-.085.497.006.604a.3.3 0 0 0 .041.04c.11.088.268.056.585-.008.817-.164 1.616-.428 2.154-.857.568-.452.897-1.045 1.142-1.764.234-.689.415-1.569.638-2.65l.453-2.203c.082-.4.123-.6.027-.711m-7.172 8.432a14.4 14.4 0 0 1-2.758-.25c-.815-.165-1.613-.429-2.15-.857-.568-.452-.897-1.044-1.142-1.764-.234-.688-.415-1.568-.638-2.649l-.453-2.204c-.082-.397-.123-.595-.027-.707s.317-.1.758-.077q.155.008.313.008h7.283c.33 0 .495 0 .585.107.09.106.062.269.007.593l-1.248 7.346c-.033.197-.05.295-.113.361a.3.3 0 0 1-.05.042c-.076.051-.173.051-.367.051" clip-rule="evenodd" opacity=".4"/></svg>