<svg xmlns="http://www.w3.org/2000/svg" fill="none" viewBox="0 0 24 24"><path fill="currentColor" d="M12.051 1.75h-.102c-2.072 0-3.695 0-4.973.155-1.306.159-2.351.49-3.21 1.223a6 6 0 0 0-.638.638c-.734.859-1.064 1.904-1.223 3.21-.155 1.278-.155 2.901-.155 4.973v.102c0 2.072 0 3.695.155 4.973.159 1.306.49 2.351 1.223 3.21q.293.345.638.638c.859.734 1.904 1.064 3.21 1.223 1.278.155 2.901.155 4.973.155h.102c2.072 0 3.695 0 4.973-.155 1.306-.159 2.351-.49 3.21-1.223q.345-.293.638-.638c.734-.859 1.064-1.904 1.223-3.21.155-1.278.155-2.901.155-4.973v-.102c0-2.072 0-3.695-.155-4.973-.159-1.306-.49-2.351-1.223-3.21a6 6 0 0 0-.638-.638c-.859-.734-1.904-1.064-3.21-1.223-1.278-.155-2.901-.155-4.973-.155" opacity=".4"/><path fill="currentColor" fill-rule="evenodd" d="M10.225 10.25c0-1.102.897-2 2.01-2 1.114 0 2.011.898 2.011 2a.75.75 0 0 0 1.5 0c0-1.936-1.575-3.5-3.51-3.5a3.505 3.505 0 0 0-3.511 3.5c0 .744.232 1.433.629 2H8a.75.75 0 0 0 0 1.5h2.09c-.542.96-1.2 1.728-1.936 2.07a.75.75 0 0 0 .317 1.43h5.986a2 2 0 0 0 .2-.012c.125-.012.297-.035.493-.08.382-.09.915-.277 1.36-.692a.75.75 0 0 0-1.02-1.099c-.182.169-.434.272-.68.33a2 2 0 0 1-.369.053h-3.898c.5-.61.909-1.313 1.235-2h1.555a.75.75 0 0 0 0-1.5h-1.098a2.005 2.005 0 0 1-2.01-2" clip-rule="evenodd"/></svg>