<svg xmlns="http://www.w3.org/2000/svg" fill="none" viewBox="0 0 24 24"><path fill="currentColor" d="M8 5C6.22 5 4.6 6.64 4.6 8.889c0 2.25 1.619 3.889 3.4 3.889h1.57a1 1 0 0 1 0 2H7.175c-.473 1.132-1.046 2.26-1.724 3.257q-.341.503-.728.965h6.795l.128-.01c.117-.013.285-.038.477-.088.395-.102.828-.293 1.156-.633a1 1 0 0 1 1.44 1.388c-.672.697-1.489 1.024-2.094 1.181a5.2 5.2 0 0 1-1.126.162H2a1 1 0 0 1-.46-1.888c.797-.413 1.559-1.175 2.258-2.202.44-.645.837-1.37 1.192-2.132H2a1 1 0 1 1 0-2h1.945A6.23 6.23 0 0 1 2.6 8.888C2.6 5.739 4.921 3 8 3s5.4 2.738 5.4 5.889a1 1 0 1 1-2 0C11.4 6.639 9.781 5 8 5"/><path fill="currentColor" fill-rule="evenodd" d="M22 14.006a1 1 0 0 0 0-2h-3.5v-.594c0-.176 0-.392-.022-.568v-.003c-.016-.127-.088-.703-.653-.977-.567-.275-1.067.027-1.176.092l-.004.002c-.153.093-.323.227-.464.337l-.03.024c-.376.294-.86.676-1.251 1.057-.196.19-.397.407-.556.638-.14.205-.344.555-.344.986s.203.78.344.986c.16.231.36.448.556.638.39.38.875.762 1.25 1.057l.03.024c.142.11.312.244.465.337l.004.002c.109.065.609.367 1.176.092.565-.274.637-.85.653-.976v-.004c.022-.176.022-.392.022-.568v-.582z" clip-rule="evenodd" opacity=".4"/></svg>