<svg xmlns="http://www.w3.org/2000/svg" fill="none" viewBox="0 0 24 24"><path fill="currentColor" fill-rule="evenodd" d="M1.25 5.5v13A2.75 2.75 0 0 0 4 21.25h12.052c.899 0 1.648 0 2.242-.08.628-.084 1.195-.27 1.65-.726.456-.455.642-1.022.726-1.65.08-.594.08-1.343.08-2.242v-6.104c0-.898 0-1.648-.08-2.242-.084-.628-.27-1.195-.726-1.65-.455-.456-1.022-.642-1.65-.726-.594-.08-1.343-.08-2.242-.08H8.909c-.089 0-.133 0-.162-.027-.029-.026-.032-.071-.04-.16a7 7 0 0 0-.037-.357c-.084-.628-.27-1.195-.725-1.65-.456-.456-1.023-.642-1.65-.726-.595-.08-1.345-.08-2.243-.08H4A2.75 2.75 0 0 0 1.25 5.5m1.5 0c0-.69.56-1.25 1.25-1.25.964 0 1.612.002 2.095.067.461.062.659.169.789.3s.237.327.3.788c.064.483.066 1.131.066 2.095v5c0 .964-.002 1.612-.067 2.095-.062.461-.169.659-.3.789s-.327.237-.788.3c-.483.064-1.131.066-2.095.066-.334 0-.654.06-.95.169-.143.052-.214.079-.257.049s-.043-.102-.043-.245z" clip-rule="evenodd" opacity=".4"/><path fill="currentColor" fill-rule="evenodd" d="M22 6.75h-1.882c.332.418.48.914.552 1.456l.006.044H22a.75.75 0 0 0 0-1.5m0 4h-1.25v1.5H22a.75.75 0 0 0 0-1.5m0 4h-1.25v1.5H22a.75.75 0 0 0 0-1.5m0 4h-1.324l-.006.044c-.073.542-.22 1.038-.552 1.456H22a.75.75 0 0 0 0-1.5m-5.115-6.751-.098-.121c-.422-.52-.963-1.188-1.608-1.622a2.84 2.84 0 0 0-1.283-.492c-.499-.053-1.01.044-1.524.302-.236.118-.4.2-.521.257l-.141.062-.068.005c-.07.003-.16.003-.311.003H11a.75.75 0 0 0 0 1.5h.389c.23 0 .46 0 .67-.049.148-.034.303-.104.43-.163q.209-.1.545-.269l.01-.005c.286-.143.51-.17.692-.151.188.02.386.097.605.244.452.304.859.805 1.325 1.377l.056.07c.202.248.344.422.442.553a19 19 0 0 1-.442.554l-.056.069c-.466.572-.873 1.073-1.325 1.377a1.36 1.36 0 0 1-.605.245c-.182.019-.406-.009-.693-.152l-.01-.005q-.335-.169-.545-.269a2.3 2.3 0 0 0-.428-.163c-.21-.05-.441-.05-.67-.05H11a.75.75 0 0 0 0 1.5h.331c.151 0 .242.001.31.004l.069.005.003.001c.015.006.056.023.137.06.121.058.286.14.522.258.515.258 1.026.355 1.524.302a2.84 2.84 0 0 0 1.283-.492c.645-.434 1.186-1.102 1.608-1.622l.098-.121.017-.021a14 14 0 0 0 .536-.682 2.3 2.3 0 0 0 .193-.318c.053-.108.119-.276.119-.48a1.1 1.1 0 0 0-.119-.48 2.3 2.3 0 0 0-.193-.318c-.13-.185-.318-.415-.535-.682z" clip-rule="evenodd"/></svg>