<svg xmlns="http://www.w3.org/2000/svg" fill="none" viewBox="0 0 24 24"><path fill="currentColor" fill-rule="evenodd" d="M22 4a1 1 0 0 1-1 1h-2a1 1 0 1 1 0-2h2a1 1 0 0 1 1 1m0 15a1 1 0 0 1-1 1h-4a1 1 0 1 1 0-2h4a1 1 0 0 1 1 1M5 12.5a1 1 0 1 0 0-2H3a1 1 0 1 0 0 2z" clip-rule="evenodd" opacity=".4"/><path fill="currentColor" fill-rule="evenodd" d="M16.75 3.5v-.022c0-.214 0-.41-.011-.576a1.8 1.8 0 0 0-.122-.572 1.75 1.75 0 0 0-.947-.947 1.8 1.8 0 0 0-.572-.122c-.165-.011-.362-.011-.576-.011h-.044c-.214 0-.41 0-.576.011-.178.012-.373.04-.572.122a1.75 1.75 0 0 0-.947.947c-.082.199-.11.394-.122.572L12.256 3H3a1 1 0 1 0 0 2h9.256l.005.098c.012.178.04.373.122.572.178.428.519.77.947.947.199.082.394.11.572.122.165.011.362.011.576.011h.044c.214 0 .41 0 .576-.011.178-.012.373-.04.572-.122a1.75 1.75 0 0 0 .947-.947c.082-.199.11-.394.122-.572.011-.165.011-.362.011-.576zM3 18h7.256l.005-.098c.012-.178.04-.373.122-.572a1.75 1.75 0 0 1 .947-.947c.199-.082.394-.11.572-.122.165-.011.362-.011.576-.011h.044c.214 0 .41 0 .576.011.178.012.373.04.572.122.428.178.77.518.947.947.082.199.11.394.122.572.011.165.011.362.011.576v1.044c0 .214 0 .41-.011.576-.012.178-.04.373-.122.572a1.75 1.75 0 0 1-.947.947c-.199.082-.394.11-.572.122-.165.011-.362.011-.576.011h-.044c-.214 0-.41 0-.576-.011a1.8 1.8 0 0 1-.572-.122 1.75 1.75 0 0 1-.947-.947 1.8 1.8 0 0 1-.122-.572L10.256 20H3a1 1 0 1 1 0-2m19-6.5a1 1 0 0 1-1 1h-9.256l-.005.098c-.012.178-.04.373-.122.572a1.75 1.75 0 0 1-.947.947c-.199.082-.394.11-.572.122-.165.011-.362.011-.576.011h-.044c-.214 0-.41 0-.576-.011a1.8 1.8 0 0 1-.572-.122 1.75 1.75 0 0 1-.947-.947 1.8 1.8 0 0 1-.122-.572 9 9 0 0 1-.011-.576v-1.044c0-.214 0-.41.011-.576.012-.178.04-.373.122-.572a1.75 1.75 0 0 1 .947-.947c.199-.082.394-.11.572-.122.165-.011.362-.011.576-.011h.044c.214 0 .41 0 .576.011.178.012.373.04.572.122.428.178.77.519.947.947.082.199.11.394.122.572l.005.098H21a1 1 0 0 1 1 1" clip-rule="evenodd"/></svg>