<svg xmlns="http://www.w3.org/2000/svg" fill="none" viewBox="0 0 24 24"><path fill="currentColor" d="M2.25 9.967c0 3.198 0 4.796.952 5.79s2.484.993 5.548.993h6.5c3.064 0 4.596 0 5.548-.993.952-.994.952-2.592.952-5.79V3.75H2.25z" opacity=".4"/><path fill="currentColor" fill-rule="evenodd" d="M3 1.25h-.034c-.206 0-.427 0-.615.025-.219.03-.5.105-.735.341a1.24 1.24 0 0 0-.341.735c-.025.188-.025.41-.025.615v.568c0 .206 0 .427.025.615.03.219.105.5.341.735.236.236.516.312.735.341.188.025.41.025.615.025h18.069c.205 0 .426 0 .614-.025.219-.03.5-.105.735-.341.236-.236.311-.516.341-.735.025-.188.025-.41.025-.615v-.568c0-.206 0-.427-.025-.615-.03-.219-.105-.5-.341-.735a1.24 1.24 0 0 0-.735-.341c-.188-.025-.41-.025-.614-.025zM2.75 3l.001-.249L3 2.75h18l.249.001.001.249v.5l-.001.249L21 3.75H3l-.249-.001L2.75 3.5zm8.5 13.75h1.5v1.628a2.251 2.251 0 1 1-1.5 0zm.75 3a.75.75 0 1 0 0 1.5.75.75 0 0 0 0-1.5" clip-rule="evenodd"/></svg>