<svg xmlns="http://www.w3.org/2000/svg" fill="none" viewBox="0 0 24 24"><path fill="currentColor" fill-rule="evenodd" d="M2.698 17.539c-.948-.961-.948-3.508-.948-6.602V6.564c0-3.094 0-3.64.948-4.602S5.172 1 8.224 1h7.552c3.052 0 4.578 0 5.526.961s.948 2.508.948 5.602v4.375c0 3.093 0 4.64-.948 5.6-.948.962-2.474.962-5.526.962H8.224c-3.052 0-4.578 0-5.526-.961" clip-rule="evenodd" opacity=".4"/><path fill="currentColor" fill-rule="evenodd" d="M13 6.563a1 1 0 1 0-2 0v6a1 1 0 1 0 2 0zm-4 3a1 1 0 0 0-2 0v3a1 1 0 1 0 2 0zm7 0a1 1 0 0 1 1 1v2a1 1 0 1 1-2 0v-2a1 1 0 0 1 1-1m-5 9.94V18.5h2v1.003c.473.012.909.055 1.32.226.556.23.981.657 1.46 1.137l.099.099.328.328a1 1 0 0 1-1.414 1.414l-.329-.328c-.636-.636-.769-.744-.91-.803-.096-.04-.207-.06-.554-.07V22a1 1 0 1 1-2 0v-.494c-.348.01-.458.03-.554.07-.141.059-.275.167-.91.803l-.329.328a1 1 0 1 1-1.414-1.414l.328-.328.098-.098c.48-.481.905-.908 1.461-1.138.411-.17.847-.214 1.32-.226" clip-rule="evenodd"/></svg>