<svg xmlns="http://www.w3.org/2000/svg" fill="none" viewBox="0 0 24 24"><path fill="currentColor" d="M20.25 6a.75.75 0 0 0-.75-.75h-15a.75.75 0 0 0-.75.75v4.32c0 1.541 0 2.773.129 3.74.133.998.415 1.825 1.064 2.481.65.657 1.473.944 2.465 1.079.958.13 2.179.13 3.703.13h1.778c1.524 0 2.745 0 3.703-.13.992-.135 1.814-.422 2.465-1.079.65-.656.931-1.483 1.064-2.482.129-.966.129-2.198.129-3.739z" opacity=".4"/><path fill="currentColor" fill-rule="evenodd" d="M14.593 1.25H9.407c-.668 0-1.237 0-1.706.043-.497.045-.967.144-1.412.393-.451.253-.758.594-1.015.986-.235.357-.459.809-.712 1.32l-.721 1.452a.87.87 0 0 0-.088.475.75.75 0 0 1 .746-.67h1.582l.218-.437c.28-.566.457-.92.625-1.175.153-.233.256-.319.355-.374.106-.06.263-.114.61-.145.363-.034.838-.035 1.562-.035h5.096c.724 0 1.199.001 1.563.034.346.032.503.087.61.146.098.055.201.141.354.374.168.256.345.61.626 1.175l.217.438H19.5a.75.75 0 0 1 .746.669.87.87 0 0 0-.088-.475l-.721-1.453c-.253-.51-.478-.962-.712-1.32-.257-.39-.564-.732-1.015-.985-.445-.249-.915-.348-1.412-.393-.469-.043-1.038-.043-1.705-.043M13.25 8h-2.5a1 1 0 1 0 0 2h2.5a1 1 0 1 0 0-2m-12 14a3.25 3.25 0 0 1 3.25-3.25h15A3.25 3.25 0 0 1 22.75 22a.75.75 0 0 1-1.5 0 1.75 1.75 0 0 0-1.75-1.75h-1.75V22a.75.75 0 0 1-1.5 0v-1.75h-3.5V22a.75.75 0 0 1-1.5 0v-1.75h-3.5V22a.75.75 0 0 1-1.5 0v-1.75H4.5A1.75 1.75 0 0 0 2.75 22a.75.75 0 0 1-1.5 0" clip-rule="evenodd"/></svg>