<svg xmlns="http://www.w3.org/2000/svg" fill="none" viewBox="0 0 24 24"><path fill="currentColor" d="M22.235 9.33c-.005-.272-.008-.408-.095-.494-.088-.086-.226-.086-.5-.086H2.36c-.274 0-.412 0-.5.086-.087.086-.09.222-.095.495-.015.786-.015 1.654-.015 2.612v.114c0 2.19 0 3.911.18 5.255.186 1.377.573 2.469 1.43 3.327.86.858 1.951 1.245 3.328 1.43 1.343.18 3.064.18 5.255.18h.114c2.19 0 3.912 0 5.255-.18 1.377-.185 2.469-.572 3.327-1.43s1.245-1.95 1.43-3.327c.181-1.344.181-3.064.181-5.255v-.114c0-.958 0-1.826-.015-2.612" opacity=".4"/><path fill="currentColor" fill-rule="evenodd" d="M11.943 1.75h.114c2.191 0 3.912 0 5.255.18 1.377.186 2.47.573 3.327 1.43.859.86 1.246 1.951 1.43 3.328.03.21.043.316 0 .4a.3.3 0 0 1-.095.108c-.077.054-.187.054-.407.054H2.433c-.22 0-.33 0-.407-.054a.3.3 0 0 1-.094-.108c-.044-.084-.03-.19-.001-.4.185-1.377.572-2.469 1.43-3.327s1.95-1.245 3.327-1.43c1.344-.181 3.064-.181 5.255-.181M7 12.25a.75.75 0 0 0 0 1.5h1a.75.75 0 0 0 0-1.5zm4 0a.75.75 0 0 0 0 1.5h6a.75.75 0 0 0 0-1.5zm-4 4a.75.75 0 0 0 0 1.5h1a.75.75 0 0 0 0-1.5zm4 0a.75.75 0 0 0 0 1.5h6a.75.75 0 0 0 0-1.5z" clip-rule="evenodd"/></svg>