<svg xmlns="http://www.w3.org/2000/svg" fill="none" viewBox="0 0 24 24"><path fill="currentColor" d="M13.72 2.3c-.45-.05-1.01-.05-1.68-.05h-.08c-.67 0-1.23 0-1.68.05-.47.04-.91.15-1.31.41-.3.2-.56.46-.76.76-.26.4-.37.84-.41 1.31-.05.45-.05 1.01-.05 1.68v.29H12c.28 0 .5.22.5.5s-.22.5-.5.5H6.46c-.67 0-1.23 0-1.68.05-.47.04-.91.15-1.31.41-.3.2-.56.46-.76.76-.26.4-.37.84-.41 1.31-.05.45-.05 1.01-.05 1.68v.08c0 .67 0 1.23.05 1.68.04.47.15.91.41 1.31.2.3.46.56.76.76.4.26.84.37 1.31.41.45.05 1.01.05 1.68.05h.29V12c0-.28.23-.5.5-.5h9V6.46c0-.67 0-1.23-.05-1.68-.04-.47-.15-.91-.41-1.31-.2-.3-.46-.56-.76-.76-.4-.26-.84-.37-1.31-.41" opacity=".4"/><path fill="currentColor" fill-rule="evenodd" d="M11 4.62c0-.41-.34-.74-.75-.74a.749.749 0 1 0 .75.74m6.25 3.13V12c0 .28-.22.5-.5.5h-9v5.04c0 .67 0 1.23.05 1.68.04.47.15.91.41 1.31.2.3.46.56.76.76.4.26.84.37 1.31.41.45.05 1.008.05 1.677.05h.086c.669 0 1.228 0 1.677-.05.47-.04.91-.15 1.31-.41.3-.2.56-.46.76-.76.26-.4.37-.84.41-1.31.05-.45.05-1.01.05-1.68v-.29H12c-.28 0-.5-.22-.5-.5s.22-.5.5-.5h5.543c.669 0 1.228 0 1.677-.05.47-.04.91-.15 1.31-.41.3-.2.56-.46.76-.76.26-.4.37-.84.41-1.31.05-.45.05-1.01.05-1.68v-.08c0-.67 0-1.23-.05-1.68-.04-.47-.15-.91-.41-1.31-.2-.3-.46-.56-.76-.76-.4-.26-.84-.37-1.31-.41-.45-.05-1.01-.05-1.68-.05zm-3.5 10.87c.42 0 .75.34.75.75v.01c0 .41-.34.74-.75.74a.749.749 0 1 1 0-1.5" clip-rule="evenodd"/></svg>