<svg xmlns="http://www.w3.org/2000/svg" fill="none" viewBox="0 0 24 24"><path fill="currentColor" d="M9.926 2.11a2.93 2.93 0 0 1 4.148 0l1.01 1.011c.268.27.633.42 1.014.42h1.428a2.93 2.93 0 0 1 2.934 2.933l-.001 1.428c0 .38.15.746.42 1.014l1.01 1.01a2.93 2.93 0 0 1 0 4.148l-1.01 1.01a1.43 1.43 0 0 0-.42 1.014v1.428a2.93 2.93 0 0 1-2.933 2.934l-1.428-.001c-.38 0-.745.15-1.014.42l-1.01 1.01a2.93 2.93 0 0 1-4.148 0l-1.01-1.01a1.43 1.43 0 0 0-1.014-.42H6.474a2.93 2.93 0 0 1-2.934-2.933l.001-1.428c0-.38-.15-.745-.42-1.014l-1.01-1.01a2.93 2.93 0 0 1 0-4.148l1.01-1.01c.27-.268.42-.633.42-1.014V6.474A2.93 2.93 0 0 1 6.473 3.54l1.428.001c.38 0 .746-.15 1.014-.42z" opacity=".4"/><path fill="currentColor" fill-rule="evenodd" d="M11 9a1 1 0 1 1 1.842.54 7 7 0 0 1-.453.607l-.09.11c-.155.192-.33.41-.49.63-.376.515-.809 1.23-.809 2.113v.5a1 1 0 1 0 2 0V13c0-.223.11-.503.426-.937.127-.175.264-.345.419-.536l.102-.127c.187-.232.396-.497.577-.778A3 3 0 1 0 9 9a1 1 0 0 0 2 0m.992 7a1 1 0 1 0 0 2h.01a1 1 0 1 0 0-2z" clip-rule="evenodd"/></svg>