<svg xmlns="http://www.w3.org/2000/svg" fill="none" viewBox="0 0 24 24"><path fill="currentColor" d="M8.714 1.808a28 28 0 0 1 3.572 0 7.436 7.436 0 0 1 6.93 6.936c.045.688.045 1.4 0 2.087a7.436 7.436 0 0 1-6.93 6.936c-1.175.077-2.4.077-3.572 0a4.7 4.7 0 0 1-1.421-.321l-.34-.137-.213.154c-.659.48-1.49.813-2.658.785-.215-.005-.5-.011-.703-.05-.25-.048-.582-.171-.792-.524-.231-.39-.134-.78-.054-1.001.075-.207.223-.483.346-.713.368-.687.434-1.185.28-1.487-.671-1.002-1.284-2.25-1.375-3.642-.045-.688-.045-1.4 0-2.087a7.436 7.436 0 0 1 6.93-6.936" opacity=".4"/><path fill="currentColor" fill-rule="evenodd" d="M10.5 6.25c-.668 0-1.25.63-1.25 1.25a.75.75 0 0 1-1.5 0c0-1.404 1.21-2.75 2.75-2.75 1.456 0 2.75 1.096 2.75 2.583a2.47 2.47 0 0 1-.453 1.422c-.175.25-.38.487-.565.699l-.101.114c-.155.176-.296.336-.426.5-.326.41-.455.694-.455.932a.75.75 0 0 1-1.5 0c0-.774.414-1.403.78-1.865.157-.197.328-.392.484-.568l.09-.103a7 7 0 0 0 .465-.57.97.97 0 0 0 .181-.56c0-.539-.497-1.084-1.25-1.084m-1 7.25a1 1 0 0 1 1-1h.009a1 1 0 1 1 0 2H10.5a1 1 0 0 1-1-1m2.215 8.27a7.42 7.42 0 0 1-5.262-2.706q.352-.153.665-.347c.5.17 1.025.269 1.516.3a29 29 0 0 0 3.734 0 8.685 8.685 0 0 0 8.097-8.1 17 17 0 0 0-.023-2.526 7.42 7.42 0 0 1 1.775 4.356c.045.688.045 1.4 0 2.088-.091 1.392-.704 2.64-1.375 3.641-.153.302-.088.8.28 1.488.123.23.27.505.346.712.08.222.177.612-.054 1.001-.21.353-.543.477-.792.524a5 5 0 0 1-.703.05c-1.168.029-1.999-.305-2.658-.785l-.212-.153c-.084.032-.193.076-.34.136-.45.182-.957.29-1.422.321a28 28 0 0 1-3.572 0" clip-rule="evenodd"/></svg>