<svg xmlns="http://www.w3.org/2000/svg" fill="none" viewBox="0 0 24 24"><path fill="currentColor" fill-rule="evenodd" d="M6.052 11.25h-.104c-.899 0-1.648 0-2.242.08-.628.084-1.195.27-1.65.726-.456.455-.642 1.022-.726 1.65-.08.594-.08 1.344-.08 2.242v.104c0 .899 0 1.648.08 2.242.084.628.27 1.195.725 1.65.456.456 1.023.642 1.65.726.595.08 1.345.08 2.243.08h.104c.899 0 1.648 0 2.242-.08.628-.084 1.195-.27 1.65-.726.456-.455.642-1.022.726-1.65.08-.594.08-1.343.08-2.242v-.104c0-.899 0-1.648-.08-2.242-.084-.628-.27-1.195-.725-1.65-.456-.456-1.023-.642-1.65-.726-.595-.08-1.344-.08-2.243-.08m12 0h-.104c-.899 0-1.648 0-2.242.08-.628.084-1.195.27-1.65.726-.456.455-.642 1.022-.726 1.65-.08.594-.08 1.344-.08 2.242v.104c0 .899 0 1.648.08 2.242.084.628.27 1.195.726 1.65.455.456 1.022.642 1.65.726.594.08 1.343.08 2.242.08h.104c.899 0 1.648 0 2.242-.08.628-.084 1.195-.27 1.65-.726.456-.455.642-1.022.726-1.65.08-.594.08-1.343.08-2.242v-.104c0-.899 0-1.648-.08-2.242-.084-.628-.27-1.195-.726-1.65-.455-.456-1.022-.642-1.65-.726-.594-.08-1.343-.08-2.242-.08" clip-rule="evenodd" opacity=".4"/><path fill="currentColor" fill-rule="evenodd" d="M9.205 3.953a1 1 0 0 1-.657 1.252c-2.876.896-4.965 3.319-5.262 6.2-.46.108-.879.299-1.23.65-.456.456-.642 1.023-.726 1.65-.077.576-.08 1.296-.08 2.156v-3.748c0-4.146 2.842-7.614 6.702-8.817a1 1 0 0 1 1.253.657M1.25 16.139v.12-.119M21.205 3.953a1 1 0 0 1-.657 1.252c-2.876.896-4.965 3.319-5.262 6.2-.46.108-.879.299-1.23.65-.456.456-.642 1.023-.726 1.65-.078.576-.08 1.296-.08 2.156v-3.748c0-4.146 2.842-7.614 6.703-8.817a1 1 0 0 1 1.252.657M13.25 16.139v.12-.119" clip-rule="evenodd"/></svg>