<svg xmlns="http://www.w3.org/2000/svg" fill="none" viewBox="0 0 24 24"><path fill="currentColor" fill-rule="evenodd" d="M11 5.25a1 1 0 0 1 1-1A7.75 7.75 0 1 1 4.25 12a1 1 0 1 1 2 0A5.75 5.75 0 1 0 12 6.25a1 1 0 0 1-1-1" clip-rule="evenodd" opacity=".4"/><path fill="currentColor" fill-rule="evenodd" d="M12 1a1 1 0 1 0 0 2 9 9 0 1 1-9 9c0-1.63.432-3.155 1.187-4.471a1 1 0 0 0-1.735-.995A10.95 10.95 0 0 0 1 12c0 6.075 4.925 11 11 11s11-4.925 11-11S18.075 1 12 1m0 7a1 1 0 1 0 0 2 2 2 0 1 1 0 4 1 1 0 1 0 0 2 4 4 0 0 0 0-8" clip-rule="evenodd"/></svg>