<svg xmlns="http://www.w3.org/2000/svg" fill="none" viewBox="0 0 24 24"><path fill="currentColor" fill-rule="evenodd" d="M17.923 1.866a1 1 0 0 0-1.308-.539L7.23 5.237a1 1 0 0 1-.1.038 1 1 0 0 1-.109.009c-.556.022-1.058.058-1.51.12-1.172.157-2.121.489-2.87 1.237-.748.749-1.08 1.698-1.238 2.87-.153 1.14-.153 2.595-.153 4.433v.112c0 1.838 0 3.294.153 4.433.158 1.172.49 2.121 1.238 2.87.749.748 1.698 1.08 2.87 1.238 1.14.153 2.595.153 4.433.153h4.112c1.838 0 3.294 0 4.433-.153 1.172-.158 2.121-.49 2.87-1.238.748-.749 1.08-1.698 1.238-2.87.153-1.14.153-2.595.153-4.433v-.112c0-1.838 0-3.294-.153-4.433-.158-1.172-.49-2.121-1.238-2.87-.749-.748-1.698-1.08-2.87-1.238-1.14-.153-2.595-.153-4.432-.153H13.4c-.388 0-.582 0-.598-.08s.162-.155.52-.305l4.062-1.692a1 1 0 0 0 .538-1.307m.857 9.344a5.5 5.5 0 1 0-9.525 5.5 5.5 5.5 0 0 0 9.524-5.5M4.482 9.5a1 1 0 0 1 1-1h.009a1 1 0 1 1 0 2h-.01a1 1 0 0 1-1-1m11.24 2.32c.328-.189.491-.283.491-.456s-.145-.258-.437-.427a3.498 3.498 0 0 0-5.262 3.038c.002.337.002.505.152.591.15.087.313-.008.64-.196zm1.792 2.124c-.001-.337-.002-.505-.151-.592-.15-.086-.314.009-.64.197l-4.417 2.55c-.327.189-.49.283-.49.456s.145.258.436.427a3.498 3.498 0 0 0 5.262-3.038" clip-rule="evenodd" opacity=".4"/><path fill="currentColor" fill-rule="evenodd" d="M11.268 9.199a5.5 5.5 0 1 1 5.5 9.524 5.5 5.5 0 0 1-5.5-9.524m4.458 2.62c.326-.188.49-.282.49-.455s-.145-.258-.437-.427a3.498 3.498 0 0 0-5.261 3.038c0 .337.001.505.151.591.15.087.313-.008.64-.196zm1.791 2.128c0-.337-.001-.506-.151-.592s-.314.008-.64.197l-4.417 2.55c-.327.188-.49.283-.49.456s.145.257.436.427a3.498 3.498 0 0 0 5.262-3.038M4.484 9.5c0-.552.446-1 .996-1h.009c.55 0 .995.448.995 1s-.445 1-.995 1h-.01a1 1 0 0 1-.995-1" clip-rule="evenodd"/></svg>