<svg xmlns="http://www.w3.org/2000/svg" fill="none" viewBox="0 0 24 24"><path fill="currentColor" fill-rule="evenodd" d="M10.996 2.375h2.008c1.577 0 2.902 0 3.996.1v-.35a1 1 0 1 1 2 0v.744a4.3 4.3 0 0 1 1.768 1.14c.809.875 1.157 1.97 1.322 3.294.16 1.29.16 2.934.16 5.004v.636c0 2.07 0 3.715-.16 5.004-.165 1.323-.513 2.419-1.322 3.293-.819.886-1.862 1.277-3.121 1.46-1.207.175-2.74.175-4.643.175h-2.008c-1.902 0-3.436 0-4.643-.175-1.26-.183-2.302-.575-3.121-1.46-.809-.874-1.157-1.97-1.322-3.293-.16-1.29-.16-2.934-.16-5.004v-.636c0-2.07 0-3.715.16-5.004.165-1.323.513-2.419 1.322-3.293A4.3 4.3 0 0 1 5 2.869v-.744a1 1 0 0 1 2 0v.35c1.094-.1 2.419-.1 3.996-.1M6.949 4.442c1.01-.113 2.32-.115 4.124-.115h1.854c1.804 0 3.114.002 4.124.115a1 1 0 0 0 1.636.41c.263.13.47.291.648.483.347.375.587.878.74 1.699a.29.29 0 0 1-.29.341H4.214a.29.29 0 0 1-.29-.341c.152-.821.393-1.324.74-1.699a2.2 2.2 0 0 1 .648-.483 1 1 0 0 0 1.636-.41" clip-rule="evenodd" opacity=".4"/><path fill="currentColor" fill-rule="evenodd" d="M11.082 12.985c.473-.28.625-.9.34-1.37a.997.997 0 0 0-1.372-.34A4.22 4.22 0 0 0 8 14.895c0 2.34 1.894 4.24 4.231 4.24a4.25 4.25 0 0 0 3.629-2.05c.28-.48.13-1.09-.34-1.38-.48-.28-1.09-.13-1.38.34a2.23 2.23 0 0 1-1.909 1.09c-1.232 0-2.231-1-2.231-2.24 0-.81.431-1.52 1.082-1.91m2.918-.85c-.552 0-1 .44-1 1 0 .55.448 1 1 1h.01c.55 0 1-.45 1-1 0-.56-.45-1-1-1z" clip-rule="evenodd"/></svg>