<svg xmlns="http://www.w3.org/2000/svg" fill="none" viewBox="0 0 24 24"><path fill="currentColor" d="M11.612 1.249c.57 0 1.07 0 1.55.17.1.03.19.07.29.12.45.21.81.57 1.21.98l4.78 4.81c.47.46.88.88 1.11 1.42.22.55.22 1.14.22 1.8v.2c0 1.41 0 2.12-.44 2.56s-1.15.44-2.56.44h-11.5c-1.41 0-2.12 0-2.56-.44s-.44-1.15-.44-2.56v-1.3c0-1.53 0-2.77.11-3.75.12-1.02.37-1.89.97-2.63.21-.27.46-.52.73-.74.73-.6 1.6-.85 2.62-.97.97-.11 2.38-.11 3.91-.11" opacity=".4"/><path fill="currentColor" fill-rule="evenodd" d="M13.45 1.54c-.1-.05-.19-.09-.29-.12-.21-.08-.42-.12-.65-.14v1.99c0 1.36 0 2.01.12 2.87.12.9.38 1.66.98 2.26.6.61 1.36.86 2.26.99.869.11 1.518.11 2.875.11h1.985a2.7 2.7 0 0 0-.18-.75c-.214-.525-.615-.926-1.069-1.379l-.041-.042-4.78-4.81c-.4-.41-.76-.77-1.21-.98M3.98 15.248c-.41 0-.75.34-.75.75v6a.749.749 0 1 0 1.5 0v-2.25h.35l1.78 2.67c.23.34.7.43 1.04.2.35-.23.44-.69.21-1.04L6.79 19.6c.84-.32 1.44-1.14 1.44-2.1 0-1.24-1-2.25-2.25-2.25zm2 3H4.73v-1.5h1.25a.749.749 0 1 1 0 1.5m5.75-3a.76.76 0 0 0-.72.54l-1.75 6c-.11.4.12.81.51.93.4.12.82-.11.93-.51l.43-1.46h1.71l.42 1.46a.75.75 0 0 0 1.44-.42l-1.75-6a.74.74 0 0 0-.72-.54zm.67 4h-.83l.41-1.43zm4.08-4c-.41 0-.75.34-.75.75v6a.749.749 0 1 0 1.5 0v-2.25h.35l1.78 2.67c.23.34.7.43 1.04.2.35-.23.44-.69.21-1.04l-1.32-1.98c.84-.32 1.44-1.14 1.44-2.1 0-1.24-1-2.25-2.25-2.25zm2 3h-1.25v-1.5h1.25a.749.749 0 1 1 0 1.5" clip-rule="evenodd"/></svg>