<svg xmlns="http://www.w3.org/2000/svg" fill="none" viewBox="0 0 24 24"><path fill="currentColor" fill-rule="evenodd" d="M4.25 16a.75.75 0 0 0-1.5 0v6a.75.75 0 1 0 1.5 0zm3.586-5.664c-.586.585-.586 1.528-.586 3.414v9h8v-9c0-1.886 0-2.828-.586-3.414s-1.528-.586-3.414-.586-2.828 0-3.414.586" clip-rule="evenodd" opacity=".4"/><path fill="currentColor" fill-rule="evenodd" d="M2 21.25a.75.75 0 0 0 0 1.5h20a.75.75 0 1 0 0-1.5h-.25v-5.9c0-.283 0-.424-.088-.512s-.23-.088-.512-.088H20a.75.75 0 0 1 0-1.5h1.15c.283 0 .424 0 .512-.088s.088-.23.088-.512v-.3c0-.283 0-.424-.088-.512s-.23-.088-.512-.088H20a.75.75 0 0 1 0-1.5h1.15c.283 0 .424 0 .512-.088s.088-.23.088-.512v-.3c0-.283 0-.424-.088-.512s-.23-.088-.512-.088H20a.75.75 0 0 1 0-1.5h1.15c.286 0 .429 0 .517-.091.088-.092.084-.231.075-.51a6 6 0 0 0-.037-.545c-.048-.41-.155-.79-.4-1.15-.24-.352-.56-.609-.93-.845-.357-.227-.816-.468-1.373-.76l-1.555-.813c-.873-.457-1.592-.834-2.181-1.053-.602-.223-1.234-.347-1.852-.087-.674.283-.95.856-1.063 1.457-.101.538-.101 1.243-.101 2.043v3.016c0 .277 0 .415.083.502s.225.094.508.106q.415.018.77.064c.683.092 1.373.304 1.937.868s.776 1.254.868 1.937c.084.628.084 1.407.084 2.283v7.578zm1.5-10c-.703 0-1.283.382-1.66.886-.378.504-.59 1.165-.59 1.864s.212 1.36.59 1.864c.377.504.957.886 1.66.886s1.283-.382 1.66-.886c.378-.504.59-1.165.59-1.864s-.212-1.36-.59-1.864c-.377-.504-.957-.886-1.66-.886m7.25 1a.75.75 0 0 0 0 1.5h1a.75.75 0 1 0 0-1.5zm0 3a.75.75 0 0 0 0 1.5h1a.75.75 0 1 0 0-1.5z" clip-rule="evenodd"/></svg>