<svg xmlns="http://www.w3.org/2000/svg" fill="none" viewBox="0 0 24 24"><path fill="currentColor" fill-rule="evenodd" d="M5.231 2.358a.98.98 0 0 1 1.274-.536l2.932 1.194a.976.976 0 0 1 .55 1.235l-.977 2.71a.978.978 0 0 1-1.839-.66l.274-.759a7.81 7.81 0 0 0-4.132 8.249.976.976 0 0 1-1.928.323A9.76 9.76 0 0 1 6.398 3.887l-.63-.257a.976.976 0 0 1-.537-1.272m-2.5 15.011c0-.539.438-.976.977-.976h3.406a.977.977 0 1 1 0 1.952H5.85a7.8 7.8 0 0 0 5.172 1.953 7.8 7.8 0 0 0 5.212-1.989.975.975 0 1 1 1.303 1.455 9.75 9.75 0 0 1-6.515 2.486 9.74 9.74 0 0 1-6.337-2.33v.866a.977.977 0 0 1-1.955 0z" clip-rule="evenodd" opacity=".4"/><path fill="currentColor" fill-rule="evenodd" d="M11.525 3.659a.977.977 0 0 1 1.126-.802c4.623.775 8.145 4.79 8.145 9.627q0 .774-.117 1.516l.544-.37a.975.975 0 1 1 1.1 1.614l-2.868 1.952a.98.98 0 0 1-1.417-.356l-1.529-2.928a.978.978 0 0 1 1.733-.903l.47.9q.129-.694.13-1.425c0-3.868-2.818-7.082-6.515-7.701a.976.976 0 0 1-.802-1.124" clip-rule="evenodd"/></svg>