<svg xmlns="http://www.w3.org/2000/svg" fill="none" viewBox="0 0 24 24"><path fill="currentColor" fill-rule="evenodd" d="M8.95 1.25h6.1c.9 0 1.65 0 2.24.08.63.084 1.2.27 1.65.725.46.456.65 1.023.73 1.651.08.594.08 1.343.08 2.24V8.4c0 .283 0 .424-.09.512S19.43 9 19.15 9H4.85c-.28 0-.42 0-.51-.088s-.09-.229-.09-.512V5.947c0-.898 0-1.647.08-2.241.08-.628.27-1.195.73-1.651.45-.455 1.02-.641 1.65-.725.59-.08 1.34-.08 2.24-.08m10.8 10.35v8.445c0 .433 0 .829-.04 1.152-.05.356-.16.731-.47 1.04s-.69.422-1.04.47c-.33.043-.72.043-1.16.043H6.96c-.44 0-.83 0-1.16-.043-.35-.048-.73-.161-1.04-.47s-.42-.684-.47-1.04c-.04-.323-.04-.719-.04-1.152V11.6c0-.283 0-.424.09-.512S4.57 11 4.85 11h14.3c.28 0 .42 0 .51.088s.09.229.09.512" clip-rule="evenodd" opacity=".4"/><path fill="currentColor" fill-rule="evenodd" d="M8 5c-.55 0-1 .448-1 1s.45 1 1 1 1-.448 1-1-.45-1-1-1m0 8c-.55 0-1 .448-1 1s.45 1 1 1 1-.448 1-1-.45-1-1-1" clip-rule="evenodd"/></svg>