<svg xmlns="http://www.w3.org/2000/svg" fill="none" viewBox="0 0 24 24"><path fill="currentColor" fill-rule="evenodd" d="M15.55 15.535a.996.996 0 0 1 1.41 0l1.79 1.8 1.79-1.8a.996.996 0 0 1 1.41 0c.39.39.39 1.03 0 1.42l-1.79 1.79 1.79 1.79c.39.39.39 1.03 0 1.42a.996.996 0 0 1-1.41 0l-1.79-1.8-1.79 1.8a.996.996 0 0 1-1.41 0c-.39-.39-.39-1.03 0-1.42l1.79-1.79-1.79-1.79c-.39-.39-.39-1.03 0-1.42" clip-rule="evenodd"/><path fill="currentColor" d="m13.783 15.91-.52-.16v-1.94c1.78-1.39 3-3.06 3-6.64 0-2.32-.42-4.42-2.96-4.42 0 0-.89-1-3.05-1-3.04 0-4.99 1.83-4.99 5.42s1.22 5.25 3 6.64v1.94l-3.72 1.12a4.06 4.06 0 0 0-2.76 2.89c-.14.54.33.99.88.99h11.14c.1-.46.32-.91.68-1.27l.73-.73-.73-.73c-.57-.58-.81-1.36-.71-2.11z" opacity=".4"/></svg>