<svg xmlns="http://www.w3.org/2000/svg" fill="none" viewBox="0 0 24 24"><path fill="currentColor" fill-rule="evenodd" d="M11.9 8.283c.933-.737 2.1.044 2.1 1.037v5.684a1 1 0 0 1-2 0v-4.252l-.38.3a1 1 0 1 1-1.24-1.57z" clip-rule="evenodd" opacity=".4"/><path fill="currentColor" fill-rule="evenodd" d="M2.478 16.583a1 1 0 0 0 1.626-1.166A5.84 5.84 0 0 1 3.002 12c0-3.288 2.747-6 6.194-6h7.811c.271 0 .57 0 .809-.033.205-.028.823-.134 1.09-.76.273-.641-.1-1.163-.228-1.33a7 7 0 0 0-.588-.618l-1.003-.976A1 1 0 0 0 15.39 3v1H9.196c-4.5 0-8.194 3.556-8.194 8 0 1.705.547 3.286 1.476 4.583m19.047-9.166A1 1 0 1 0 19.9 8.583 5.84 5.84 0 0 1 21.002 12c0 3.288-2.747 6-6.194 6H6.997c-.272 0-.571 0-.81.033-.205.028-.823.134-1.09.76-.272.641.1 1.163.228 1.33.147.19.397.432.588.618l1.003.976A1 1 0 0 0 8.613 21v-1h6.195c4.5 0 8.194-3.556 8.194-8a7.84 7.84 0 0 0-1.477-4.583" clip-rule="evenodd"/></svg>