<svg xmlns="http://www.w3.org/2000/svg" fill="none" viewBox="0 0 24 24"><path fill="currentColor" fill-rule="evenodd" d="M22.357 2.187c.424.26.643.722.643 1.182v6.63a1 1 0 0 1-2 0V4.914l-.323.297a1 1 0 1 1-1.354-1.472l1.52-1.4a1.25 1.25 0 0 1 1.514-.15" clip-rule="evenodd" opacity=".4"/><path fill="currentColor" fill-rule="evenodd" d="M2.478 16.583a1 1 0 0 0 1.626-1.166A5.84 5.84 0 0 1 3.002 12c0-3.288 2.747-6 6.194-6h5.811c.271 0 .57 0 .809-.033.205-.028.823-.134 1.09-.76.273-.641-.1-1.163-.228-1.33a7 7 0 0 0-.588-.618l-1.003-.976A1 1 0 0 0 13.39 3v1H9.196c-4.5 0-8.194 3.556-8.194 8 0 1.705.547 3.286 1.476 4.583m4.438 5.134A1 1 0 0 0 8.613 21v-1h6.195c3.749 0 6.939-2.468 7.899-5.862.168-.594-.314-1.138-.93-1.138-.498 0-.914.362-1.07.834-.798 2.405-3.122 4.166-5.9 4.166h-7.81c-.272 0-.571 0-.81.033-.205.028-.823.134-1.09.76-.272.641.1 1.163.228 1.33.147.19.397.432.588.618z" clip-rule="evenodd"/></svg>