<svg xmlns="http://www.w3.org/2000/svg" fill="none" viewBox="0 0 24 24"><path fill="currentColor" d="M11.948 13.25h.105c.662 0 1.238 0 1.701.067.503.074.979.24 1.358.65.371.403.513.893.577 1.408.061.49.061 1.103.061 1.83v3.216c0 .429 0 .818-.037 1.117-.033.279-.125.756-.56 1.031q-.114.073-.245.12c-.517.184-.951-.085-1.174-.248-.238-.173-1.271-1.122-1.564-1.403-.077-.057-.17-.095-.17-.095a.8.8 0 0 0-.17.095c-.293.28-1.326 1.23-1.564 1.403-.223.163-.657.432-1.174.248a1.2 1.2 0 0 1-.246-.12c-.434-.275-.525-.752-.56-1.03-.036-.3-.036-.69-.036-1.118v-3.217c0-.726 0-1.34.06-1.829.065-.515.207-1.005.578-1.408.38-.41.855-.576 1.358-.65.463-.067 1.04-.067 1.701-.067"/><path fill="currentColor" fill-rule="evenodd" d="M11.928 1.25h.144c2.007 0 3.612 0 4.871.168 1.302.174 2.38.543 3.234 1.39.855.849 1.228 1.921 1.404 3.216.169 1.251.169 2.845.169 4.836v.145c0 1.99 0 3.584-.17 4.835-.175 1.295-.548 2.368-1.403 3.216-.578.573-1.263.932-2.063 1.157a.975.975 0 0 1-.528-1.876c.544-.152.918-.366 1.217-.664.43-.426.7-1.018.845-2.094.15-1.105.152-2.567.152-4.647s-.002-3.541-.152-4.647c-.146-1.076-.415-1.667-.845-2.094-.431-.428-1.03-.696-2.118-.841-1.115-.15-2.59-.151-4.685-.151-2.096 0-3.57.002-4.685.15-1.088.146-1.687.414-2.118.842-.43.427-.7 1.018-.845 2.094-.15 1.106-.152 2.567-.152 4.647s.002 3.542.152 4.647c.146 1.076.415 1.668.845 2.094.3.298.673.512 1.217.665a.974.974 0 1 1-.528 1.875c-.8-.225-1.485-.584-2.063-1.157-.855-.848-1.228-1.92-1.404-3.216-.169-1.25-.169-2.844-.169-4.835v-.145c0-1.991 0-3.585.17-4.836.175-1.295.548-2.367 1.403-3.216.854-.847 1.932-1.216 3.234-1.39 1.259-.168 2.864-.168 4.871-.168M7 10a1 1 0 0 1 1-1h8a1 1 0 1 1 0 2H8a1 1 0 0 1-1-1m1-5a1 1 0 0 0 0 2h4a1 1 0 1 0 0-2z" clip-rule="evenodd" opacity=".4"/></svg>