<svg xmlns="http://www.w3.org/2000/svg" fill="none" viewBox="0 0 24 24"><path fill="currentColor" d="M4.25 14a7.75 7.75 0 1 1 15.5 0 7.75 7.75 0 0 1-15.5 0" opacity=".4"/><path fill="currentColor" fill-rule="evenodd" d="M5.937 2.25h12.126c.884 0 1.65 0 2.263.086.662.092 1.293.301 1.8.828.503.523.698 1.162.784 1.832.082.63.082 1.418.082 2.341v.065q0 .379.004.726c.006.603.01 1.127-.026 1.542-.058.645-.226 1.246-.734 1.774a1 1 0 1 1-1.44-1.388c.077-.08.147-.175.181-.562.028-.314.025-.687.02-1.227a72 72 0 0 1-.005-.865c0-1.006-.002-1.664-.065-2.15-.06-.46-.158-.614-.241-.7-.078-.081-.21-.176-.637-.236-.459-.064-1.083-.066-2.054-.066H6.005c-.971 0-1.596.002-2.055.066-.426.06-.558.155-.636.236-.083.086-.181.24-.241.7-.063.486-.065 1.144-.065 2.15 0 .332-.002.618-.005.869-.005.538-.008.91.02 1.223.034.387.104.482.18.563a1 1 0 1 1-1.44 1.386c-.508-.527-.676-1.128-.733-1.773-.037-.415-.032-.938-.026-1.539q.004-.348.004-.73v-.064c0-.923 0-1.712.082-2.341.086-.67.28-1.31.783-1.832.508-.527 1.139-.736 1.8-.828.615-.086 1.38-.086 2.264-.086m6.063 7a.75.75 0 0 1 .75.75v.334c.788.18 1.485.645 1.815 1.344a.75.75 0 0 1-1.357.64c-.117-.248-.54-.569-1.208-.569-.406 0-.744.124-.964.29-.22.164-.286.334-.286.459 0 .124.066.294.286.459s.558.289.964.289c.699 0 1.36.211 1.864.589.504.377.886.956.886 1.66 0 .703-.382 1.282-.886 1.66a2.95 2.95 0 0 1-1.112.504v.339a.75.75 0 0 1-1.5.004v-.343c-.79-.18-1.486-.645-1.817-1.345a.75.75 0 0 1 1.357-.64c.117.248.54.57 1.208.57.406 0 .744-.125.964-.29s.286-.335.286-.46c0-.124-.066-.294-.286-.459s-.558-.289-.964-.289c-.699 0-1.36-.211-1.864-.589-.504-.377-.886-.956-.886-1.66 0-.703.382-1.282.886-1.66.319-.238.7-.41 1.114-.505V10a.75.75 0 0 1 .75-.75M6 6a1 1 0 0 0 0 2h12a1 1 0 1 0 0-2z" clip-rule="evenodd"/></svg>