<svg xmlns="http://www.w3.org/2000/svg" fill="none" viewBox="0 0 24 24"><path fill="currentColor" fill-rule="evenodd" d="M4.941 10.657a.75.75 0 0 0-1.303-.054c-.804 1.289-1.146 2.605-1.29 3.59-.071.494-.093.91-.097 1.207-.082 2.058.916 4.463 2.623 5.54.71.447 1.604.631 2.71.72 1.105.09 2.536.09 4.38.09h.071c1.844 0 3.275 0 4.38-.09 1.106-.089 2-.273 2.71-.72a.75.75 0 0 0-.382-1.385c-3.031-.072-5.66-1.328-7.782-2.979-1.277-.993-2.602-2.11-3.706-3.173C6.13 12.321 5.3 11.355 4.94 10.657m15.895 8.251c-.139.04-.36-.118-.803-.434a2.25 2.25 0 0 0-1.254-.419c-2.238-.053-4.261-.852-6.015-2.025a.113.113 0 0 1 .017-.196c.844-.386 1.72-.934 2.555-1.556 1.684-1.253 3.124-2.75 3.769-3.7a.75.75 0 0 1 1.257.025c.804 1.289 1.146 2.605 1.289 3.59.072.494.094.91.098 1.207.039.956-.156 1.986-.546 2.923-.152.364-.228.546-.367.585" clip-rule="evenodd" opacity=".4"/><path fill="currentColor" fill-rule="evenodd" d="M11.065 4.288a2.77 2.77 0 0 1 1.87 0c.327.117.7.39 1.251 1.055.551.666 1.189 1.608 2.089 2.94l.705 1.044a.98.98 0 0 0 1.335.269.92.92 0 0 0 .277-1.298l-.734-1.086c-.865-1.28-1.553-2.3-2.17-3.045-.625-.755-1.268-1.345-2.085-1.638a4.75 4.75 0 0 0-3.206 0c-.817.293-1.46.883-2.085 1.638-.617.746-1.305 1.764-2.17 3.045l-.734 1.086a.92.92 0 0 0 .277 1.298.98.98 0 0 0 1.335-.269l.705-1.043c.9-1.333 1.538-2.275 2.089-2.94s.924-.939 1.251-1.056M14.5 12.5a1 1 0 1 0 0-2h-.009a1 1 0 1 0 0 2zm-3.447-6.394a1 1 0 0 1 1.342.447l.001.002c.013.018.086.12.252.225.173.11.446.22.852.22a1 1 0 1 1 0 2c-1.595 0-2.566-.896-2.894-1.553a1 1 0 0 1 .447-1.341m-1.76 4.187a1 1 0 1 1 1.414 1.414l-.5.5a1 1 0 0 1-1.414-1.414z" clip-rule="evenodd"/></svg>