<svg xmlns="http://www.w3.org/2000/svg" fill="none" viewBox="0 0 24 24"><path fill="currentColor" fill-rule="evenodd" d="m18.433 3.27.05-.034c.49-.328.932-.624 1.305-.795.394-.18.949-.33 1.48.025.485.326.62.864.676 1.298C22 4.203 22 4.78 22 5.45v.103c0 .67 0 1.246-.056 1.684-.056.435-.19.973-.677 1.299-.53.355-1.085.205-1.48.025-.372-.17-.814-.467-1.304-.795l-.05-.034-.047-.031c-.493-.33-.934-.626-1.244-.911-.338-.311-.642-.72-.642-1.289s.304-.977.642-1.288c.31-.285.75-.58 1.244-.91zm0 13 .05-.034c.49-.328.932-.624 1.305-.795.394-.18.949-.33 1.48.025.485.325.62.864.676 1.298.056.439.056 1.015.056 1.685v.103c0 .67 0 1.246-.056 1.684-.056.435-.19.973-.677 1.299-.53.355-1.085.205-1.48.025-.372-.17-.814-.467-1.304-.795l-.05-.034-.047-.031c-.493-.33-.934-.626-1.244-.911-.338-.311-.642-.72-.642-1.289s.304-.977.642-1.288c.31-.285.75-.58 1.244-.91z" clip-rule="evenodd"/><path fill="currentColor" fill-rule="evenodd" d="M14 5.5a1 1 0 0 0-1-1H3a1 1 0 1 0 0 2h10a1 1 0 0 0 1-1m0 6.5a1 1 0 0 0-1-1H3a1 1 0 1 0 0 2h10a1 1 0 0 0 1-1m-1 5.5a1 1 0 1 1 0 2H3a1 1 0 1 1 0-2z" clip-rule="evenodd" opacity=".4"/></svg>