<svg xmlns="http://www.w3.org/2000/svg" fill="none" viewBox="0 0 24 24"><path fill="currentColor" d="M12.868 6.065c-.025.03-.103.154-.2.542l-2.347 9.357c-.259 1.03-.48 1.913-.737 2.538-.247.598-.708 1.413-1.695 1.492-.964.078-1.568-.623-1.933-1.164-.384-.57-.789-1.398-1.265-2.373l-.608-1.244c-.231-.475-.358-.73-.47-.892l-.03-.04a1 1 0 0 0-.264.088c-.189.09-.361.203-.572.342l-.195.128c-.465.3-1.086.168-1.387-.295a1 1 0 0 1 .295-1.383l.122-.08c.218-.145.546-.362.88-.52.41-.193 1.022-.395 1.694-.21.533.145.871.49 1.11.838.208.301.4.695.595 1.095l.026.053.573 1.172c.52 1.067.865 1.766 1.16 2.205q.041.06.075.105l.033-.077c.195-.473.382-1.21.667-2.343l2.326-9.278c.166-.66.425-1.336 1.067-1.742.58-.367 1.29-.379 1.867-.379h8.412c.554 0 1.003.448 1.003 1s-.449 1-1.003 1h-8.412c-.3 0-.497.01-.638.03a.6.6 0 0 0-.15.035"/><path fill="currentColor" d="M15.457 12.05c-.078-.032-.198-.05-1.002-.05a1 1 0 0 1-1.003-1c0-.552.45-1 1.003-1h.134c.579-.001 1.127-.002 1.615.193.276.11.532.266.755.465.406.361.62.862.824 1.34V12c.222-.274.453-.536.692-.772.65-.64 1.504-1.227 2.589-1.227.553 0 1.003.448 1.003 1 0 .553-.45 1-1.003 1-.313 0-.686.164-1.178.65-.395.387-.777.891-1.19 1.47l.42.979c.136.313.213.492.283.622.031.059.052.09.065.108l.018.022a.6.6 0 0 0 .166.1c.079.032.198.05 1.002.05.554 0 1.004.447 1.004 1s-.45 1-1.004 1h-.134c-.578 0-1.127.002-1.614-.193a2.6 2.6 0 0 1-.756-.465c-.406-.362-.62-.863-.823-1.34L17.322 16a9 9 0 0 1-.692.773c-.649.64-1.503 1.226-2.588 1.226a1 1 0 0 1-1.003-1c0-.552.45-1 1.003-1 .313 0 .685-.163 1.178-.648.394-.389.776-.893 1.19-1.472l-.421-.978a9 9 0 0 0-.282-.622 1 1 0 0 0-.065-.109q-.017-.021-.019-.021a.6.6 0 0 0-.166-.1" opacity=".4"/></svg>