<svg xmlns="http://www.w3.org/2000/svg" fill="none" viewBox="0 0 24 24"><path fill="currentColor" d="M16.092 2.073a15 15 0 0 1 .028 1.381 8 8 0 0 1-.11 1.147c-.036.187-.087.39-.162.582a1.8 1.8 0 0 1-.402.626c-.373.361-.891.466-1.192.51a6.4 6.4 0 0 1-1.081.051 12 12 0 0 1-.889-.056c-.112-.011-.312-.036-.386-.045h-.007a1 1 0 0 1-.576-1.69l.717-.734C9.328 2.28 5.647 3.332 4.02 6.577a1 1 0 0 1-1.788-.897C4.411 1.335 9.73-.19 13.474 2.37l.905-.927a1 1 0 0 1 1.713.624z"/><path fill="currentColor" d="M20.222 8.456c.515-.298 1.19-.115 1.5.424a1.09 1.09 0 0 1-.379 1.498l-6.592 3.81a.45.45 0 0 0-.165.607c.12.214.387.289.598.167l4.834-2.793c.515-.298 1.19-.115 1.501.424a1.09 1.09 0 0 1-.38 1.498l-5.713 3.301a.45.45 0 0 0-.164.608c.12.214.387.288.597.167l3.956-2.286c.515-.297 1.19-.114 1.5.425a1.09 1.09 0 0 1-.379 1.498l-5.42 3.132c-.96.554-1.663.96-2.241 1.246-.575.284-1.002.437-1.405.498-.454.069-1.206-.043-1.83-.173-.621-.13-1.29-.06-1.862.271a.747.747 0 0 1-1.021-.273L3.511 16.18c-.265-.46-.126-1.04.265-1.4.632-.58 1.18-1.3 1.476-2.057l2.175-5.567a1.256 1.256 0 0 1 1.364-.753c.767.124 1.26.892 1.068 1.633l-.589 2.282a.45.45 0 0 0 .157.466c.14.11.33.123.483.034l7.438-4.297c.515-.298 1.19-.115 1.501.425a1.09 1.09 0 0 1-.379 1.497l-4.395 2.54a.45.45 0 0 0-.164.607c.12.214.387.289.597.167z" opacity=".4"/></svg>