<svg xmlns="http://www.w3.org/2000/svg" fill="none" viewBox="0 0 24 24"><path fill="currentColor" d="M7.908 2.073c-.004.08-.017.297-.022.42-.01.251-.016.596-.006.962.011.36.04.772.11 1.146.036.187.087.39.163.582.072.183.192.424.401.626.373.361.891.466 1.192.51.36.053.748.06 1.081.051.34-.008.658-.033.889-.056.113-.011.313-.036.386-.045h.007a1 1 0 0 0 .576-1.69l-.717-.734c2.704-1.564 6.385-.513 8.013 2.732a1 1 0 1 0 1.788-.897c-2.18-4.345-7.498-5.87-11.243-3.31l-.905-.927a1 1 0 0 0-1.712.624z"/><path fill="currentColor" d="M5.75 7.816a1.013 1.013 0 0 0 .253 1.417l3.6 2.51a.44.44 0 0 1 .11.61.43.43 0 0 1-.604.112L3.91 8.839a1.037 1.037 0 0 0-1.44.252 1.013 1.013 0 0 0 .253 1.416l5.2 3.625a.44.44 0 0 1 .11.61.43.43 0 0 1-.604.112l-3.6-2.51a1.037 1.037 0 0 0-1.439.252 1.013 1.013 0 0 0 .253 1.416l3.6 2.51c.196.138.246.41.11.61a.43.43 0 0 1-.604.112l-2-1.395a1.037 1.037 0 0 0-1.44.252 1.013 1.013 0 0 0 .253 1.416L4.56 18.91l4.684 3.194a4.47 4.47 0 0 0 5.663-.523s2.768-2.76 3.022-3.155a4.4 4.4 0 0 0 .687-2.053c.035-.467-.033-.96-.193-2.076l-.694-4.835a1.21 1.21 0 0 0-1.07-1.03 1.214 1.214 0 0 0-1.354 1.197l.034 2.818a.44.44 0 0 1-.235.395c-.146.076-.454-.035-.454-.035L7.19 7.565a1.037 1.037 0 0 0-1.44.251" opacity=".4"/></svg>