<svg xmlns="http://www.w3.org/2000/svg" fill="none" viewBox="0 0 24 24"><path fill="currentColor" fill-rule="evenodd" d="M18.382 12.875c.753.001 1.392.01 1.912.08.628.084 1.195.27 1.65.726.456.455.642 1.022.726 1.65.08.594.08 1.343.08 2.242v.104c0 .899 0 1.648-.08 2.242-.084.628-.27 1.195-.726 1.65-.455.456-1.022.642-1.65.726-.594.08-1.343.08-2.242.08H5.948c-.898 0-1.648 0-2.242-.08-.628-.084-1.195-.27-1.65-.726-.456-.455-.642-1.022-.726-1.65-.08-.594-.08-1.343-.08-2.242v-.434c.001-.753.01-1.392.08-1.912.084-.628.27-1.195.725-1.65.456-.456 1.023-.642 1.65-.726.595-.08 1.345-.08 2.243-.08zM10 16.625H6a1 1 0 1 0 0 2h4a1 1 0 1 0 0-2m4.009 0a1 1 0 1 0-.009 2 1 1 0 1 0 .009-2m4 0a1 1 0 1 0-.009 2 1 1 0 1 0 .009-2" clip-rule="evenodd"/><path fill="currentColor" fill-rule="evenodd" d="M7.369 3.327c1.306-1.063 2.896-1.702 4.626-1.702 1.734 0 3.33.644 4.638 1.712a1 1 0 0 1-1.265 1.55c-.994-.812-2.152-1.262-3.373-1.262-1.218 0-2.372.447-3.364 1.253A1 1 0 0 1 7.37 3.327m4.626 1.659c-.98 0-1.898.287-2.697.783a1 1 0 0 0 1.054 1.7 3.1 3.1 0 0 1 1.643-.483c.581 0 1.14.17 1.65.488a1 1 0 1 0 1.058-1.698 5.1 5.1 0 0 0-2.708-.79M12 8.625a1 1 0 1 0 0 2h.006a1 1 0 1 0 0-2z" clip-rule="evenodd" opacity=".4"/></svg>