<svg xmlns="http://www.w3.org/2000/svg" fill="none" viewBox="0 0 24 24"><path fill="currentColor" fill-rule="evenodd" d="M13.25 6.017C13.25 3.4 15.422 1.25 18 1.25s4.75 2.15 4.75 4.767c0 2.678-2.22 4.444-3.943 5.511l-.011.007-.012.007a1.58 1.58 0 0 1-1.568 0l-.013-.008-.013-.008c-1.713-1.074-3.94-2.822-3.94-5.51m3-.017c0-.966.78-1.75 1.742-1.75h.016c.962 0 1.742.784 1.742 1.75s-.78 1.75-1.742 1.75h-.016A1.746 1.746 0 0 1 16.25 6M5 15.25a3.75 3.75 0 1 0 0 7.5 3.75 3.75 0 0 0 0-7.5" clip-rule="evenodd"/><path fill="currentColor" fill-rule="evenodd" d="M5 10c0-2.348 2.165-4 4.5-4H11a1 1 0 1 1 0 2H9.5C7.97 8 7 9.034 7 10s.97 2 2.5 2h3c2.335 0 4.5 1.652 4.5 4s-2.165 4-4.5 4H11a1 1 0 1 1 0-2h1.5c1.53 0 2.5-1.035 2.5-2s-.97-2-2.5-2h-3C7.165 14 5 12.348 5 10" clip-rule="evenodd" opacity=".4"/></svg>