<svg xmlns="http://www.w3.org/2000/svg" fill="none" viewBox="0 0 24 24"><path fill="currentColor" d="M13.057 1.622a4.9 4.9 0 0 1 3.744 0c.487.202.919.51 1.384.916.456.397.982.924 1.648 1.59l.04.039c.665.666 1.192 1.192 1.59 1.648.405.465.713.897.915 1.384a4.9 4.9 0 0 1 0 3.744c-.202.487-.51.919-.916 1.384-.397.456-.924.982-1.59 1.648l-5.897 5.897c-.665.666-1.192 1.193-1.648 1.59-.465.406-.897.714-1.384.916a4.9 4.9 0 0 1-3.744 0c-.487-.202-.919-.51-1.384-.916-.456-.397-.982-.924-1.648-1.59l-.04-.039c-.665-.666-1.192-1.192-1.59-1.648-.405-.465-.713-.897-.915-1.384a4.9 4.9 0 0 1 0-3.744c.202-.487.51-.919.916-1.384.397-.456.924-.982 1.59-1.648l5.897-5.897c.665-.666 1.192-1.193 1.648-1.59.465-.406.897-.714 1.384-.916" opacity=".4"/><path fill="currentColor" fill-rule="evenodd" d="M19.873 13.98c.49-.49.904-.904 1.247-1.27l-1.792-1.792a1 1 0 0 0-1.414 1.414l1.804 1.804zm-2.241 2.241-1.414 1.415-1.804-1.804a1 1 0 0 1 1.414-1.414zm-3.5 3.5-.156.156c-.49.49-.904.904-1.27 1.247l-1.792-1.792a1 1 0 0 1 1.414-1.414z" clip-rule="evenodd"/></svg>