<svg xmlns="http://www.w3.org/2000/svg" fill="none" viewBox="0 0 24 24"><path fill="currentColor" fill-rule="evenodd" d="M5.756 1.25c-.433 0-.775.185-1.056.399-.254.194-.53.47-.83.77L2.42 3.87c-.3.3-.577.577-.771.831-.214.281-.399.623-.399 1.056s.185.775.399 1.056c.194.255.47.53.77.83l1.45 1.451c.3.3.577.576.831.77.281.215.623.4 1.056.4s.775-.185 1.056-.4c.255-.194.53-.47.83-.77l1.451-1.45c.3-.3.576-.576.77-.831.215-.281.4-.623.4-1.056s-.185-.775-.4-1.056c-.194-.254-.47-.53-.77-.83l-1.45-1.45c-.3-.3-.576-.577-.831-.771-.281-.214-.623-.399-1.056-.399m12.488 12.488c-.433 0-.775.184-1.056.399-.255.194-.53.47-.83.77l-1.451 1.45c-.3.3-.576.576-.77.831-.215.281-.4.623-.4 1.056s.185.775.4 1.056c.194.255.47.53.77.83l1.45 1.45c.3.3.576.577.831.771.281.214.623.399 1.056.399s.775-.185 1.056-.399c.255-.194.53-.47.83-.77l1.45-1.45c.3-.3.577-.576.771-.831.214-.281.399-.623.399-1.056s-.185-.775-.399-1.056c-.194-.255-.47-.53-.77-.83l-1.45-1.451c-.3-.3-.576-.576-.831-.77-.281-.215-.623-.4-1.056-.4m-5.967-6.224c-.417 0-.744.178-1.008.38-.238.18-.494.437-.769.712l-4.237 4.237a3.46 3.46 0 1 0 4.893 4.893l4.237-4.237c.275-.275.531-.531.713-.77.201-.263.38-.59.38-1.007s-.179-.744-.38-1.008c-.182-.238-.438-.495-.713-.77l-1.339-1.338c-.274-.275-.53-.531-.768-.713-.264-.201-.592-.38-1.009-.38" clip-rule="evenodd" opacity=".4"/><path fill="currentColor" fill-rule="evenodd" d="M16.731 1.47a.75.75 0 0 0-1.06 0 4.85 4.85 0 0 0-.635 6.079l-1.02 1.02.038.037 1.339 1.34.037.037 1.02-1.02a4.85 4.85 0 0 0 6.08-.634.75.75 0 0 0 0-1.06zm-9.07 7.604L9.073 7.66l1.186 1.186-1.414 1.414zm6.078 6.08 1.186 1.185 1.414-1.414-1.186-1.186z" clip-rule="evenodd"/></svg>