<svg xmlns="http://www.w3.org/2000/svg" fill="none" viewBox="0 0 24 24"><path fill="currentColor" fill-rule="evenodd" d="M12 4a8 8 0 0 0-6.275 12.963c.224.282.336.424.527.455.191.03.35-.072.666-.279q.386-.252.806-.55c1.462-1.042 3.112-2.439 4.769-4.096s3.054-3.307 4.095-4.769q.3-.421.551-.806c.207-.317.31-.475.279-.666s-.172-.303-.455-.527A7.97 7.97 0 0 0 12 4m6.623 5.172c-1.133 1.59-2.622 3.345-4.364 5.086s-3.497 3.232-5.086 4.364l-.06.045c-.267.226-.204.689.113.835.019.01.024.011.033.015.855.31 1.777.48 2.739.48A8 8 0 0 0 19.517 9.26l-.014-.033c-.147-.317-.61-.38-.836-.113z" clip-rule="evenodd" opacity=".4"/><path fill="currentColor" d="M16.55 5.42c.888-.56 1.671-.961 2.31-1.194.454-.165.782-.225.994-.226q.095 0 .136.01.01.041.01.136c-.001.212-.061.54-.226.994-.328.901-.992 2.09-1.964 3.454-1.096 1.539-2.548 3.252-4.256 4.96s-3.421 3.16-4.96 4.256c-1.364.972-2.553 1.636-3.454 1.964-.454.165-.782.225-.994.226a1 1 0 0 1-.136-.01 1 1 0 0 1-.01-.136c.001-.212.061-.54.226-.994.233-.639.634-1.422 1.194-2.31a8 8 0 0 1-1.027-2.066c-.94 1.347-1.655 2.615-2.046 3.693-.207.568-.344 1.136-.347 1.665-.003.531.132 1.123.584 1.574s1.043.587 1.575.584c.528-.003 1.096-.14 1.664-.347 1.14-.415 2.496-1.191 3.932-2.214 1.64-1.169 3.437-2.695 5.213-4.471s3.302-3.573 4.47-5.213c1.024-1.436 1.8-2.791 2.215-3.932.207-.568.344-1.136.347-1.665.003-.531-.132-1.123-.584-1.574S20.373 1.997 19.841 2c-.528.003-1.096.14-1.664.347-1.078.391-2.346 1.106-3.693 2.046A8 8 0 0 1 16.55 5.42"/></svg>