<svg xmlns="http://www.w3.org/2000/svg" fill="none" viewBox="0 0 24 24"><path fill="currentColor" d="M12.045 1.25c1.837 0 3.276 0 4.419.124 1.165.126 2.11.388 2.916.974a5.8 5.8 0 0 1 1.272 1.272c.586.807.848 1.75.974 2.916.124 1.143.124 2.582.124 4.419v2.09c0 1.837 0 3.276-.124 4.419-.126 1.165-.388 2.11-.974 2.916a5.8 5.8 0 0 1-1.272 1.272c-.807.586-1.75.848-2.916.974-1.143.124-2.582.124-4.419.124h-.09c-1.837 0-3.276 0-4.419-.124-1.165-.126-2.11-.388-2.916-.974a5.8 5.8 0 0 1-1.272-1.272c-.586-.807-.848-1.75-.974-2.916-.124-1.143-.124-2.582-.124-4.419v-2.09c0-1.837 0-3.276.124-4.419.126-1.165.388-2.11.974-2.916A5.8 5.8 0 0 1 4.62 2.348c.807-.586 1.75-.848 2.916-.974 1.143-.124 2.582-.124 4.419-.124z" opacity=".4"/><path fill="currentColor" fill-rule="evenodd" d="M10.489 6.988A1.64 1.64 0 0 1 12 6c.644 0 1.249.375 1.512.988l2.407 5.618a1 1 0 1 1-1.838.788L13.484 12h-2.967l-.598 1.394a1 1 0 0 1-1.838-.788zM11.374 10h1.253L12 8.539zM8 16a1 1 0 1 0 0 2h8a1 1 0 1 0 0-2z" clip-rule="evenodd"/></svg>