<svg xmlns="http://www.w3.org/2000/svg" fill="none" viewBox="0 0 24 24"><path fill="currentColor" fill-rule="evenodd" d="M9 14.4a6.4 6.4 0 1 1 11.577 3.763l2.13 2.13a1 1 0 0 1-1.414 1.414l-2.13-2.13A6.4 6.4 0 0 1 9 14.4m6.4-4.4a4.4 4.4 0 1 0 0 8.8 4.4 4.4 0 0 0 0-8.8" clip-rule="evenodd"/><path fill="currentColor" fill-rule="evenodd" d="M2 2a1 1 0 0 0 0 2h17a1 1 0 1 0 0-2zm-1 8a1 1 0 0 1 1-1h5a1 1 0 1 1 0 2H2a1 1 0 0 1-1-1m0 7a1 1 0 0 1 1-1h5a1 1 0 1 1 0 2H2a1 1 0 0 1-1-1" clip-rule="evenodd" opacity=".4"/></svg>