<svg xmlns="http://www.w3.org/2000/svg" fill="none" viewBox="0 0 24 24"><path fill="currentColor" fill-rule="evenodd" d="M3.25 11a1.75 1.75 0 1 1 3.5 0v7.75H6A2.75 2.75 0 0 1 3.25 16zm14 0a1.75 1.75 0 1 1 3.5 0v5A2.75 2.75 0 0 1 18 18.75h-.75zM16 18.75H8v-4.5h8z" clip-rule="evenodd"/><path fill="currentColor" fill-rule="evenodd" d="M12.555 1.25h-1.11c-1.367 0-2.47 0-3.337.117-.9.12-1.658.38-2.26.981-.602.602-.86 1.36-.981 2.26-.117.867-.117 1.97-.117 3.337v.065A3 3 0 0 1 8 11v2h8v-2a3 3 0 0 1 3.25-2.99v-.065c0-1.367 0-2.47-.116-3.337-.122-.9-.38-1.658-.982-2.26s-1.36-.86-2.26-.981c-.867-.117-1.97-.117-3.337-.117M9.25 20v1.25H7a.75.75 0 0 0 0 1.5h10a.75.75 0 0 0 0-1.5h-2.25V20z" clip-rule="evenodd" opacity=".4"/></svg>