<svg xmlns="http://www.w3.org/2000/svg" fill="none" viewBox="0 0 24 24"><path fill="currentColor" d="M2 20.125h1.437a2.751 2.751 0 0 0 5.126 0h6.874a2.751 2.751 0 0 0 5.126 0H22a1 1 0 1 0 0-2h-1.437a2.751 2.751 0 0 0-5.125 0H8.563a2.751 2.751 0 0 0-5.126 0H2a1 1 0 1 0 0 2"/><path fill="currentColor" fill-rule="evenodd" d="M6.473 2.125h.054c.095 0 .247 0 .397.026.558.099 1 .464 1.242.928.065.124.112.26.147.36l3.63 10.355a1 1 0 1 1-1.886.662l-1.694-4.83H4.638l-1.694 4.83a1 1 0 1 1-1.887-.662L4.687 3.44c.036-.102.083-.237.148-.361a1.75 1.75 0 0 1 1.241-.928c.15-.027.303-.026.397-.026m.028 2.189L5.34 7.625h2.322zM17 2.125h-.054c-.425 0-.837 0-1.177.046-.383.051-.82.177-1.183.54s-.489.8-.54 1.183C14 4.234 14 4.647 14 5.071v7.108c0 .425 0 .837.046 1.176.051.384.177.821.54 1.184s.8.489 1.184.54c.34.046.752.046 1.176.046h2.304a3.75 3.75 0 0 0 1.96-6.948 3.75 3.75 0 0 0-2.96-6.052zm-1 10v-2.5h3.25a1.75 1.75 0 1 1 0 3.5H17c-.5 0-.774-.002-.964-.028h-.007l-.001-.008c-.026-.19-.028-.464-.028-.964m2.25-4.5H16v-2.5c0-.5.002-.774.028-.964v-.007l.008-.001c.19-.026.464-.028.964-.028h1.25a1.75 1.75 0 0 1 0 3.5" clip-rule="evenodd" opacity=".4"/></svg>