<svg xmlns="http://www.w3.org/2000/svg" fill="none" viewBox="0 0 24 24"><path fill="currentColor" d="M13.974 1.25c.77 0 1.402 0 1.922.051.545.054 1.025.167 1.48.429.455.261.794.62 1.114 1.063.305.424.621.97 1.007 1.635l1.96 3.38c.388.667.706 1.215.923 1.692.228.5.37.974.37 1.5 0 .44-.1.845-.266 1.258a7.23 7.23 0 0 0-6.404-2.45A4.252 4.252 0 0 0 7.75 11a4.25 4.25 0 0 0 2.34 3.798A7.3 7.3 0 0 0 9.75 17c0 1.372.381 2.656 1.044 3.75h-.768c-.77 0-1.402 0-1.922-.051-.545-.054-1.025-.167-1.48-.429-.455-.261-.794-.62-1.114-1.063-.305-.424-.621-.97-1.007-1.635l-1.96-3.38c-.388-.667-.706-1.215-.923-1.692-.228-.5-.37-.974-.37-1.5s.142-1 .37-1.5c.217-.477.535-1.025.922-1.692l1.96-3.38c.387-.665.703-1.211 1.008-1.635.32-.444.66-.802 1.114-1.063.455-.262.935-.375 1.48-.429.52-.051 1.152-.051 1.922-.051z" opacity=".4"/><path fill="currentColor" fill-rule="evenodd" d="M17 11.25a5.75 5.75 0 1 0 0 11.5 5.75 5.75 0 0 0 0-11.5m.75 3.75a.75.75 0 0 0-1.5 0v2a.75.75 0 0 0 1.5 0zM17 18.25a.75.75 0 0 0 0 1.5h.009a.75.75 0 0 0 0-1.5z" clip-rule="evenodd"/></svg>