<svg xmlns="http://www.w3.org/2000/svg" fill="none" viewBox="0 0 24 24"><path fill="currentColor" fill-rule="evenodd" d="M17.75 12.75a5 5 0 1 0 0 10 5 5 0 0 0 0-10m.75 3a.75.75 0 0 0-1.5 0v2a.75.75 0 0 0 1.5 0zM17.75 19a.75.75 0 0 0 0 1.5h.009a.75.75 0 0 0 0-1.5z" clip-rule="evenodd"/><path fill="currentColor" d="M8.015 1.378c.163-.073.403-.157.687-.118.31.042.538.223.67.336.14.12.492.477.492.478A3 3 0 0 0 12 2.963c.777 0 1.553-.297 2.136-.89 0 0 .352-.357.492-.477.132-.113.36-.294.67-.336.284-.04.524.045.687.118.15.067.32.165.484.26l2.249 1.321c.146.106.343.274.456.546.123.298.084.597.054.77a10 10 0 0 1-.16.694c-.397 1.555.571 3.227 2.138 3.657l.028.008c.237.065.459.126.633.19.162.06.434.173.625.428.176.234.223.49.241.671.017.168.017.368.017.563v2.028c0 .195 0 .395-.017.563-.018.184-.236.229-.366.098a6.48 6.48 0 0 0-4.617-1.925c-.739 0-1.449.123-2.11.35a.106.106 0 0 1-.14-.1 3.5 3.5 0 1 0-4.529 3.346c.418.129.626.193.685.302.058.11-.002.304-.12.692a6.5 6.5 0 0 0-.096 3.474c.084.342.126.512.073.613-.052.1-.233.17-.595.308a3 3 0 0 0-1.055.691s-.352.358-.492.478c-.132.113-.361.294-.67.336a1.25 1.25 0 0 1-.688-.118 6 6 0 0 1-.483-.26L5.28 20.04a1.3 1.3 0 0 1-.456-.547c-.123-.297-.083-.597-.054-.77.032-.187.16-.692.16-.693.397-1.555-.57-3.227-2.136-3.657 0 0-.487-.134-.66-.198-.163-.06-.435-.173-.626-.428a1.3 1.3 0 0 1-.241-.671 6 6 0 0 1-.017-.563v-2.028c0-.195 0-.395.017-.563a1.3 1.3 0 0 1 .24-.671c.192-.255.464-.368.626-.428a9 9 0 0 1 .633-.19l.028-.008c1.567-.43 2.535-2.102 2.138-3.657a10 10 0 0 1-.16-.693c-.03-.174-.07-.473.054-.77.113-.273.31-.441.456-.547l2.25-1.32a5 5 0 0 1 .483-.26" opacity=".4"/></svg>