<svg xmlns="http://www.w3.org/2000/svg" fill="none" viewBox="0 0 24 24"><path fill="currentColor" fill-rule="evenodd" d="m10.76 20.044 9.87 1.692c.86.118 1.62-.55 1.62-1.42 0-.703-.51-1.303-1.2-1.415l-.02-.003-6.83-1.4H12a2.11 2.11 0 0 1-2.106-2.118 2.12 2.12 0 0 1 1.171-1.899 2.12 2.12 0 0 1-.609-1.49 2.12 2.12 0 0 1 1.17-1.898 2.12 2.12 0 0 1-.609-1.49c0-.487.211-1.099.316-1.344-.164.165-.433.231-.712-.05a.426.426 0 0 1 .001-.6l1.825-1.83a1.48 1.48 0 0 0-.121-2.204 1.48 1.48 0 0 0-1.81-.03L5.355 6.606c-.484.381-1.073.676-1.685.887-.161.055-.372.13-.596.208-.638.226-.957.34-1.141.6-.183.258-.183.598-.183 1.279v6.553c0 .632 0 .948.166 1.2.164.248.447.37 1.008.61l.013.005c.272.116.538.226.731.3.305.116 1.058.442 1.358.572.448.19 1.452.501 1.452.501s.566.166 1.02.254c.446.085.953.165 1.435.235.197.028.473.06.757.093.41.047.836.096 1.07.14m4.75-4.664a1.27 1.27 0 0 0-1.26-1.27H12c-.698 0-1.264.568-1.264 1.27 0 .701.566 1.27 1.264 1.27h2.25c.69 0 1.26-.569 1.26-1.27m-2.947-2.118a1.267 1.267 0 0 1-1.264-1.27c0-.702.565-1.27 1.264-1.27h2.258c.69.006 1.25.572 1.25 1.27 0 .701-.56 1.27-1.26 1.27zm.56-3.389a1.266 1.266 0 0 1-1.264-1.27c0-.7.565-1.27 1.263-1.27h2.247c.7 0 1.26.57 1.26 1.27s-.56 1.27-1.26 1.27z" clip-rule="evenodd" opacity=".4"/><path fill="currentColor" fill-rule="evenodd" d="M13.123 9.873a1.27 1.27 0 0 1-1.264-1.271c0-.701.566-1.27 1.264-1.27h2.247c.7 0 1.26.569 1.26 1.27s-.56 1.27-1.26 1.271zm-.561 3.388a1.266 1.266 0 0 1-1.263-1.27c0-.701.565-1.271 1.264-1.27l2.258-.001c.69.007 1.25.573 1.25 1.271 0 .701-.56 1.27-1.26 1.27zm1.688.848c.69 0 1.26.569 1.26 1.27s-.57 1.27-1.26 1.27H12a1.267 1.267 0 0 1-1.264-1.27c0-.701.566-1.27 1.264-1.27z" clip-rule="evenodd"/></svg>