<svg xmlns="http://www.w3.org/2000/svg" fill="none" viewBox="0 0 24 24"><path fill="currentColor" d="m2.263 3.369 1.692 9.871c.075.397.165 1.347.234 1.827.07.482.15.989.235 1.435.088.454.254 1.02.254 1.02s.312 1.004.501 1.452c.13.3.455 1.053.572 1.358.074.193.184.459.3.731.243.57.365.856.616 1.021.25.166.567.166 1.2.166h6.553c.68 0 1.02 0 1.28-.183.26-.184.37-.503.6-1.141.08-.224.15-.435.21-.596.21-.612.5-1.201.88-1.685l4.07-5.161c.4-.54.39-1.284-.04-1.81a1.48 1.48 0 0 0-2.2-.121l-1.83 1.825a.425.425 0 0 1-.6.001c-.28-.279-.21-.548-.05-.712-.24.105-.86.316-1.34.316a2.13 2.13 0 0 1-1.493-.609 2.12 2.12 0 0 1-1.898 1.17 2.1 2.1 0 0 1-1.49-.609 2.12 2.12 0 0 1-1.899 1.171A2.11 2.11 0 0 1 6.502 12V9.796l-1.4-6.83-.003-.017A1.43 1.43 0 0 0 3.684 1.75a1.43 1.43 0 0 0-1.42 1.619" opacity=".4"/><path fill="currentColor" fill-rule="evenodd" d="M14.13 10.877c0 .698.57 1.263 1.27 1.263s1.27-.565 1.27-1.263V8.631c0-.698-.57-1.264-1.27-1.264s-1.27.565-1.27 1.263zm-3.392.561c0 .7.569 1.264 1.27 1.264.7 0 1.27-.565 1.27-1.264V9.18a1.27 1.27 0 0 0-1.27-1.252c-.701 0-1.27.566-1.27 1.264zM9.89 9.753c0-.698-.57-1.263-1.27-1.263s-1.27.565-1.27 1.263V12c0 .698.569 1.264 1.27 1.264.7 0 1.27-.566 1.27-1.264z" clip-rule="evenodd"/></svg>