<svg xmlns="http://www.w3.org/2000/svg" fill="none" viewBox="0 0 24 24"><path fill="currentColor" fill-rule="evenodd" d="M5.216 10.25c.53 0 .97.43.97.962 0 2.718.32 4.765 2.06 5.949.34.23.81.428 1.4.64.18.067.39.139.61.213.42.142.87.297 1.28.459.15.06.3.124.46.193.16-.069.31-.133.46-.193.41-.162.86-.317 1.28-.459.22-.074.43-.146.61-.213.59-.212 1.06-.41 1.4-.64 1.74-1.184 2.06-3.231 2.06-5.949a.97.97 0 0 1 .97-.962c.53 0 .97.43.97.962 0 2.681-.26 5.734-2.91 7.535-.55.377-1.21.642-1.83.863a66 66 0 0 1-1.05.364c.38.408.7.905.9 1.519a.965.965 0 0 1-.63 1.21.963.963 0 0 1-1.21-.62c-.17-.515-.51-.906-1.02-1.239-.51.333-.85.724-1.02 1.239a.963.963 0 0 1-1.21.62.965.965 0 0 1-.63-1.21c.2-.614.52-1.111.9-1.519a66 66 0 0 1-1.05-.364c-.62-.221-1.28-.486-1.83-.863-2.65-1.801-2.91-4.854-2.91-7.535 0-.532.43-.962.97-.962" clip-rule="evenodd" opacity=".4"/><path fill="currentColor" d="M17.588 2.775c-.18-.607-.49-1.144-1.03-1.393-.55-.25-1.09-.097-1.47.07-.38.166-.76.425-1.08.641l-.02.011c-.35.237-.64.432-.9.557-.68.318-1.5.318-2.17 0-.27-.125-.56-.32-.91-.557l-.02-.01c-.32-.217-.7-.476-1.08-.643-.38-.166-.92-.32-1.47-.069-.54.25-.85.786-1.03 1.393l-1.68 5.526c-.11.361-.16.542-.32.588-.15.045-.29-.07-.56-.3a5 5 0 0 1-1.01-1.135c-.3-.462-.92-.593-1.39-.292-.46.302-.59.922-.29 1.384 1.03 1.57 2.7 2.677 4.59 3.39 1.9.716 4.08 1.064 6.25 1.064s4.35-.348 6.25-1.064c1.89-.713 3.56-1.82 4.59-3.39.3-.462.17-1.082-.29-1.384a1.007 1.007 0 0 0-1.39.292c-.26.407-.6.786-1.01 1.133-.27.231-.41.346-.56.301-.16-.046-.21-.227-.32-.588z"/></svg>