<svg xmlns="http://www.w3.org/2000/svg" fill="none" viewBox="0 0 24 24"><path fill="currentColor" d="M9.493 6.75c-1.98 0-3.53.245-4.726 1.103-1.205.866-1.91 2.252-2.463 4.178l-.012.042c-.474 1.653-.846 2.95-1.032 3.996-.188 1.063-.207 1.972.119 2.814a5.1 5.1 0 0 0 1.854 2.344c.795.551 2.053.917 3.428 1.153 1.405.241 3.039.365 4.667.37a33 33 0 0 0 2.15-.064c.223-.03.324-.203.238-.411l-.077-.157a4 4 0 0 0-.352-.578.5.5 0 0 0-.101-.116.8.8 0 0 0-.18-.08 2.5 2.5 0 0 1 .869-4.844c.643 0 1.149.182 1.511.368.076.039.115.058.142.066q.152.046.274-.056a1 1 0 0 0 .094-.105c.623-.746 1.377-1.57 2.202-2.293.592-.52 1.299-1.057 2.087-1.464.233-.12.35-.18.393-.279.042-.098.008-.217-.06-.455l-.06-.209-.012-.043c-.529-1.841-1.19-3.226-2.375-4.112-1.181-.884-2.745-1.168-4.815-1.168z" opacity=".4"/><path fill="currentColor" fill-rule="evenodd" d="M11.375 3.25c-1.962 0-3.5 1.535-3.5 3.364v.207c-.739.074-1.403.21-2 .44v-.647c0-2.991 2.492-5.364 5.5-5.364s5.5 2.373 5.5 5.364v.652c-.592-.227-1.255-.367-2-.443v-.21c0-1.828-1.538-3.363-3.5-3.363m-2 7.75a1 1 0 0 1 1-1h2a1 1 0 1 1 0 2h-2a1 1 0 0 1-1-1m13.442 3.666a1 1 0 0 1-.608 1.277c-.534.189-1.15.596-1.803 1.168-.643.564-1.268 1.241-1.822 1.905a28 28 0 0 0-1.352 1.764c-.165.234-.513.756-.513.756a1 1 0 0 1-1.739-.088c-.44-.882-.995-1.433-1.199-1.452A1 1 0 0 1 13.875 18c.552 0 .905.235 1.18.418s.562.436.85.782a30 30 0 0 1 1.143-1.465c.594-.712 1.292-1.472 2.039-2.127.736-.646 1.576-1.24 2.454-1.55a1 1 0 0 1 1.276.608" clip-rule="evenodd"/></svg>