<svg xmlns="http://www.w3.org/2000/svg" fill="none" viewBox="0 0 24 24"><path fill="currentColor" d="M3.731 6.805c.362-.055.815-.055 1.308-.055h13.922c.493 0 .946 0 1.308.055.402.06.825.207 1.136.603.302.385.357.83.343 1.236-.012.379-.09.844-.178 1.368l-.393 2.347c-.057.336-.085.505-.218.574s-.285-.004-.588-.15a38 38 0 0 1-.738-.361c-.607-.299-1.495-.672-2.634-.672s-2.026.373-2.633.672c-.196.096-.364.185-.503.257a9 9 0 0 1-1.173.464c-.144.053-.64.237-1.055.676-.37.39-.53.806-.609 1.066-.057.19-.1.423-.118.516a9 9 0 0 0-.085.538c-.035.274-.053.411-.138.486s-.216.075-.48.075h-6.18c-.243 0-.364 0-.448-.071s-.104-.19-.144-.43L2.43 10.012c-.088-.524-.166-.99-.178-1.368-.014-.407.04-.85.344-1.236.31-.396.733-.542 1.135-.603" opacity=".4"/><path fill="currentColor" fill-rule="evenodd" d="M12 3.25a4 4 0 0 0-4 4v.5a1 1 0 0 1-2 0v-.5a6 6 0 1 1 12 0v.5a1 1 0 1 1-2 0v-.5a4 4 0 0 0-4-4m3.027 10.518c.526-.259 1.17-.518 1.971-.518s1.446.26 1.972.518q.265.13.473.242c.31.162.552.29.833.374.18.055.367.111.498.16a1.3 1.3 0 0 1 .501.306c.15.158.22.332.261.466.034.111.062.26.082.364.557 2.937-.67 5.776-3.683 6.872-.274.1-.545.198-.935.198s-.662-.099-.935-.198c-3.013-1.096-4.242-3.935-3.685-6.872.02-.104.048-.253.082-.364.04-.134.11-.308.26-.466a1.3 1.3 0 0 1 .502-.306c.13-.048.318-.105.498-.16.28-.085.522-.211.832-.374.14-.074.295-.155.473-.242m-4.208 4.795c.08.064.111.184.172.425a7.1 7.1 0 0 0 1.204 2.543c.445.591.667.887.585 1.053s-.424.166-1.106.166h-1.647c-1.122 0-2.039 0-2.773-.097-.77-.102-1.428-.32-1.986-.818-.553-.494-.861-1.132-1.085-1.903A11 11 0 0 1 4 19.208c-.07-.323-.106-.484-.016-.596s.26-.112.596-.112h5.804c.235 0 .352 0 .434.063" clip-rule="evenodd"/></svg>