<svg xmlns="http://www.w3.org/2000/svg" fill="none" viewBox="0 0 24 24"><path fill="currentColor" d="M3.606 6.68c.362-.055.815-.055 1.308-.055h13.922c.493 0 .946 0 1.308.055.402.06.825.207 1.136.603.302.385.357.83.343 1.236-.012.379-.09.844-.178 1.368l-.329 1.96c-.04.237-.059.355-.128.423s-.212.09-.499.135a2.5 2.5 0 0 0-1.382.702L17.8 14.415c-.2.2-.3.3-.424.3s-.224-.1-.424-.3l-1.308-1.308a2.5 2.5 0 0 0-4.235 2.173c.096.59.144.884.054.99s-.323.105-.79.105H3.9c-.243 0-.364 0-.448-.071s-.104-.19-.144-.43L2.305 9.887c-.088-.524-.166-.99-.178-1.368-.014-.407.04-.85.344-1.236.31-.396.733-.542 1.135-.603" opacity=".4"/><path fill="currentColor" fill-rule="evenodd" d="M11.875 3.125a4 4 0 0 0-4 4v.5a1 1 0 0 1-2 0v-.5a6 6 0 1 1 12 0v.5a1 1 0 1 1-2 0v-.5a4 4 0 0 0-4-4m9.707 11.043a1 1 0 0 1 0 1.414l-2.793 2.793 2.793 2.793a1 1 0 0 1-1.414 1.414l-2.793-2.793-2.793 2.793a1 1 0 0 1-1.414-1.414l2.793-2.793-2.793-2.793a1 1 0 0 1 1.414-1.414l2.793 2.793 2.793-2.793a1 1 0 0 1 1.414 0m-8.19 4.392c.076.185-.142.403-.578.84l-.707.707a2.5 2.5 0 0 0-.732 1.713c-.01.422-.014.634-.102.72-.087.085-.258.085-.601.085h-.77c-1.122 0-2.039 0-2.773-.097-.77-.102-1.428-.32-1.986-.818-.553-.494-.861-1.132-1.085-1.903a11 11 0 0 1-.182-.724c-.07-.323-.106-.484-.016-.596s.26-.112.596-.112h7.934c.617 0 .925 0 1.002.185" clip-rule="evenodd"/></svg>