<svg xmlns="http://www.w3.org/2000/svg" fill="none" viewBox="0 0 24 24"><path fill="currentColor" fill-rule="evenodd" d="M5.768 13.69V14a.751.751 0 0 1-1.504 0v-.309c-.004-1.216-.012-3.553.382-5.662.215-1.148.561-2.304 1.144-3.19.6-.912 1.492-1.589 2.738-1.589.733 0 1.373.342 1.889.84.512.494.94 1.172 1.281 1.953.686 1.563 1.092 3.67 1.092 5.957 0 2.13.38 4.024.964 5.356.293.668.622 1.16.95 1.476.323.312.607.418.843.418.603 0 1.074-.296 1.48-.911.421-.642.721-1.57.922-2.643.367-1.962.36-4.162.357-5.388V10a.751.751 0 0 1 1.505 0v.306c.004 1.215.012 3.554-.383 5.665-.214 1.148-.56 2.304-1.144 3.19-.6.912-1.492 1.589-2.737 1.589-.734 0-1.373-.342-1.89-.84-.512-.494-.939-1.172-1.281-1.953-.686-1.563-1.091-3.67-1.091-5.957 0-2.13-.38-4.024-.965-5.356-.293-.668-.622-1.16-.95-1.476-.323-.312-.607-.418-.842-.418-.604 0-1.075.296-1.48.911-.422.642-.722 1.57-.923 2.643-.366 1.96-.36 4.159-.357 5.385" clip-rule="evenodd" opacity=".4"/><path fill="currentColor" fill-rule="evenodd" d="M17.303 3.25c0-1.227 1.144-2 2.256-2 .902 0 1.767.48 2.112 1.29a.75.75 0 0 1-.399.984.753.753 0 0 1-.986-.398c-.068-.16-.318-.376-.727-.376-.55 0-.752.346-.752.5s.203.5.753.5c1.112 0 2.256.773 2.256 2s-1.144 2-2.256 2c-.902 0-1.767-.48-2.112-1.29a.75.75 0 0 1 .399-.984.753.753 0 0 1 .986.398c.069.16.318.376.727.376.55 0 .752-.346.752-.5s-.203-.5-.753-.5c-1.112 0-2.256-.773-2.256-2M1.253 12c0-.414.338-.75.753-.75h3.01a.751.751 0 1 1 0 1.5h-3.01a.75.75 0 0 1-.752-.75m17.053 0a.75.75 0 0 1 .752-.75h3.01a.751.751 0 1 1 0 1.5h-3.01a.75.75 0 0 1-.752-.75m-10.282-.75a.751.751 0 1 0 0 1.5h8.025a.751.751 0 1 0 0-1.5zm-3.26 9.25v-2c0-.194.082-.379.22-.517a.82.82 0 0 1 .577-.233c.359 0 .65.221.753.506a.753.753 0 0 0 1.414-.512 2.3 2.3 0 0 0-2.167-1.494c-1.25 0-2.301.987-2.301 2.25v2c0 1.263 1.05 2.25 2.3 2.25a2.3 2.3 0 0 0 2.168-1.494.753.753 0 0 0-1.414-.513.795.795 0 0 1-.753.507.82.82 0 0 1-.577-.233.73.73 0 0 1-.22-.517" clip-rule="evenodd"/></svg>