<svg xmlns="http://www.w3.org/2000/svg" fill="none" viewBox="0 0 24 24"><path fill="currentColor" d="M6.904 6.375h10.192c.444 0 .87 0 1.219.062.41.072.804.243 1.101.637.276.365.36.751.327 1.156-.026.325-.148.736-.25 1.081A7.8 7.8 0 0 1 12 14.875a7.8 7.8 0 0 1-7.493-5.564c-.102-.345-.224-.756-.25-1.08a1.62 1.62 0 0 1 .327-1.157c.297-.394.69-.565 1.1-.637.35-.062.776-.062 1.22-.062" opacity=".4"/><path fill="currentColor" fill-rule="evenodd" d="M8 21.125a1 1 0 1 0 0 2h8a1 1 0 1 0 0-2h-1.187l.274-4.383c.026-.403.038-.604-.079-.702s-.323-.046-.735.057a9.4 9.4 0 0 1-2.274.278 9.4 9.4 0 0 1-2.274-.278c-.411-.103-.617-.154-.734-.057-.117.098-.105.3-.08.702l.274 4.383zm1-14.75h2v-.304c0-.424 0-.837-.046-1.176-.051-.384-.177-.821-.54-1.184s-.8-.489-1.183-.54c-.34-.046-.753-.046-1.177-.046H8a1 1 0 0 0 0 2c.5 0 .774.002.964.028h.007l.001.008c.026.19.028.464.028.964zm5 0h-2v-2.75a2.5 2.5 0 0 1 5 0v.5a1 1 0 1 1-2 0v-.5a.5.5 0 0 0-1 0z" clip-rule="evenodd"/></svg>