<svg xmlns="http://www.w3.org/2000/svg" fill="none" viewBox="0 0 24 24"><path fill="currentColor" d="M1.25 8a4.75 4.75 0 0 1 6.352-4.473c.482.173.721.244.937.263.193.016.415-.007.84-.14a8.75 8.75 0 0 1 8.808 2.163 8.72 8.72 0 0 1 2.528 5.397c.04.443.103.656.192.826.099.191.256.384.6.761a4.75 4.75 0 0 1-5.11 7.676c-.48-.173-.72-.244-.936-.263-.193-.016-.415.007-.84.14a8.75 8.75 0 0 1-8.808-2.163 8.72 8.72 0 0 1-2.527-5.397c-.04-.443-.104-.656-.193-.826-.099-.191-.256-.384-.6-.761A4.74 4.74 0 0 1 1.25 8" opacity=".4"/><path fill="currentColor" fill-rule="evenodd" d="M10.295 9.21c-.41.272-.545.566-.545.79 0 .223.136.518.545.79.403.27 1.004.46 1.705.46.956 0 1.855.257 2.537.712.677.451 1.213 1.157 1.213 2.038s-.536 1.587-1.213 2.038c-.682.455-1.581.712-2.537.712s-1.855-.257-2.537-.712C8.786 15.587 8.25 14.881 8.25 14a.75.75 0 0 1 1.5 0c0 .223.136.518.545.79.403.27 1.004.46 1.705.46s1.302-.19 1.705-.46c.41-.272.545-.566.545-.79 0-.223-.136-.518-.545-.79-.403-.27-1.004-.46-1.705-.46-.956 0-1.855-.257-2.537-.712C8.786 11.587 8.25 10.881 8.25 10s.536-1.587 1.213-2.038c.682-.455 1.581-.712 2.537-.712s1.855.257 2.537.712c.677.451 1.213 1.157 1.213 2.038a.75.75 0 0 1-1.5 0c0-.223-.136-.518-.545-.79-.403-.27-1.004-.46-1.705-.46s-1.302.19-1.705.46" clip-rule="evenodd"/></svg>