<svg xmlns="http://www.w3.org/2000/svg" fill="none" viewBox="0 0 24 24"><path fill="currentColor" fill-rule="evenodd" d="M17.86 6.442c-1.05.767-2.444.726-3.464-.019-.79-.567-1.768-.56-2.533-.002l-.008.006c-1.046.748-2.405.757-3.446-.007A1 1 0 0 1 9.59 4.807c.328.24.74.25 1.097-.004 1.473-1.074 3.398-1.067 4.88 0l.007.004a.93.93 0 0 0 1.107.019l.007-.005a4.135 4.135 0 0 1 4.895 0 1 1 0 0 1-1.168 1.623 2.14 2.14 0 0 0-2.556-.002m0 8.99a2.9 2.9 0 0 1-3.447 0c-.8-.573-1.794-.572-2.55-.02l-.008.006c-1.046.748-2.405.756-3.446-.007a1 1 0 1 1 1.182-1.613c.328.24.74.25 1.097-.004 1.483-1.08 3.425-1.042 4.897.018l.006.005a.9.9 0 0 0 1.09 0l.008-.005a4.135 4.135 0 0 1 4.895 0 1 1 0 1 1-1.168 1.623 2.14 2.14 0 0 0-2.556-.002" clip-rule="evenodd"/><path fill="currentColor" fill-rule="evenodd" d="M12.42 8.58c-.791.563-1.84.563-2.675-.02a3 3 0 0 0-3.49 0 2.3 2.3 0 0 1-2.681-.002 1 1 0 0 0-1.148 1.638 4.3 4.3 0 0 0 4.98 0l.006-.005a1 1 0 0 1 1.176 0l.007.005c1.5 1.051 3.475 1.088 4.985.014a1 1 0 0 0-1.16-1.63m0 9c-.791.563-1.84.563-2.675-.02a3 3 0 0 0-3.49 0 2.3 2.3 0 0 1-2.681-.002 1 1 0 1 0-1.148 1.638 4.3 4.3 0 0 0 4.98 0l.006-.005a1 1 0 0 1 1.176 0l.007.005c1.5 1.051 3.475 1.088 4.985.014a1 1 0 0 0-1.16-1.63" clip-rule="evenodd" opacity=".4"/></svg>