<svg xmlns="http://www.w3.org/2000/svg" fill="none" viewBox="0 0 24 24"><path fill="currentColor" fill-rule="evenodd" d="M10.028 6.004c-.51.007-.964.025-1.357.078-.287.039-.57.099-.84.197.276-.665.513-1.374.513-2.082 0-.425 0-.837.045-1.177.052-.383.177-.82.54-1.184.364-.363.8-.489 1.184-.54.34-.046.752-.046 1.176-.046h1.42c.425 0 .837 0 1.177.046.383.051.82.177 1.183.54s.49.8.54 1.184c.046.34.046.752.046 1.177 0 .708.237 1.417.512 2.082a4 4 0 0 0-.84-.197 12 12 0 0 0-1.356-.078 9.6 9.6 0 0 1-.311-1.66q0-.087.005-.184c.013-.269.027-.579-.155-.76-.145-.146-.311-.147-.644-.15h-1.732c-.334.003-.5.004-.645.15-.182.181-.168.491-.155.76q.004.097.005.184a9.6 9.6 0 0 1-.311 1.66m3.943 11.992c.51-.006.964-.025 1.356-.078.29-.039.573-.1.844-.198a8 8 0 0 0-.516 2.078v.122c.001.354.002.71-.045 1.06-.052.384-.177.821-.54 1.185-.364.363-.801.488-1.184.54-.34.046-.752.046-1.176.045h-1.42c-.425 0-.837 0-1.177-.045-.383-.052-.82-.177-1.184-.54-.363-.364-.488-.801-.54-1.184-.046-.34-.045-.753-.045-1.177 0-.607-.223-1.276-.423-1.843a6 6 0 0 0-.093-.241c.27.099.554.159.843.198.393.053.847.072 1.357.078.134.485.254 1.05.311 1.66q-.001.087-.005.185c-.013.268-.027.578.155.76.145.145.311.146.644.149h1.732c.334-.003.5-.004.645-.149.182-.182.168-.492.155-.76a4 4 0 0 1-.005-.185c.057-.61.177-1.175.311-1.66" clip-rule="evenodd"/><path fill="currentColor" d="M10.934 6h2.132c.886 0 1.65 0 2.262.082.655.088 1.284.287 1.793.797.51.51.709 1.138.797 1.793.082.612.082 1.376.082 2.262v2.132c0 .886 0 1.65-.082 2.262-.088.655-.287 1.284-.797 1.793-.51.51-1.138.709-1.793.797-.612.082-1.376.082-2.262.082h-2.132c-.886 0-1.65 0-2.262-.082-.655-.088-1.284-.287-1.793-.797-.51-.51-.709-1.138-.797-1.793C6 14.716 6 13.952 6 13.066v-2.132c0-.886 0-1.65.082-2.262.088-.655.287-1.284.797-1.793.51-.51 1.138-.709 1.793-.797C9.284 6 10.048 6 10.934 6" opacity=".4"/></svg>