<svg xmlns="http://www.w3.org/2000/svg" fill="none" viewBox="0 0 24 24"><path fill="currentColor" d="M5.06 1.385a.25.25 0 0 1 .28.215l.007.042.002.015.007.043c.09.542.17 1.014.28 1.391.119.406.298.787.641 1.092.356.316.765.448 1.204.509.414.057.924.058 1.519.058s1.105-.001 1.519-.058c.438-.06.848-.193 1.204-.509.343-.305.522-.686.64-1.092.112-.377.19-.849.28-1.391l.008-.043.009-.06a.25.25 0 0 1 .28-.212c1.037.14 1.89.435 2.565 1.11s.97 1.529 1.11 2.565c.07.525.104 1.126.12 1.81.005.206.008.31-.038.384-.045.075-.159.13-.385.242-.258.126-.498.3-.707.519a2.5 2.5 0 0 0-.657 1.308.2.2 0 0 1-.198.168 2.5 2.5 0 0 0-2.5 2.5V12a2.5 2.5 0 0 0 2.5 2.5c.098 0 .183.071.2.168a2.49 2.49 0 0 0 1.362 1.818c.227.111.34.167.385.242.046.075.044.178.039.385-.016.69-.05 1.298-.12 1.828-.14 1.036-.436 1.89-1.11 2.564-.676.676-1.53.971-2.566 1.11-1.003.135-2.282.135-3.884.135h-.112c-1.602 0-2.881 0-3.884-.135-1.037-.139-1.89-.434-2.565-1.11-.675-.675-.97-1.528-1.11-2.564-.135-1.003-.135-2.282-.135-3.885V8.944c0-1.602 0-2.881.135-3.884.14-1.036.435-1.89 1.11-2.565s1.528-.97 2.565-1.11" opacity=".4"/><path fill="currentColor" fill-rule="evenodd" d="M11.17 1.416a.133.133 0 0 0-.128-.153 98 98 0 0 0-1.986-.013h-.112c-.726 0-1.385 0-1.983.012a.136.136 0 0 0-.131.156c.098.593.163.972.245 1.25.076.262.144.346.197.393.059.052.15.108.414.145.29.04.684.044 1.313.044.63 0 1.024-.004 1.314-.044.264-.037.355-.093.413-.145.054-.047.122-.131.198-.392.082-.28.147-.66.246-1.253m9.319 5.353c1.39 1.327 2.261 3.174 2.261 5.223s-.871 3.896-2.261 5.223a1 1 0 1 1-1.381-1.446c1.021-.976 1.642-2.31 1.642-3.777 0-1.466-.62-2.8-1.642-3.777a1 1 0 1 1 1.38-1.446m-2.385 2.25a4.1 4.1 0 0 1 1.285 2.973 4.1 4.1 0 0 1-1.285 2.973 1 1 0 0 1-1.382-1.446c.42-.4.667-.94.667-1.527s-.248-1.127-.667-1.527a1 1 0 1 1 1.382-1.446m-3.354 1.973a1 1 0 0 1 1 1V12a1 1 0 1 1-2 0v-.01a1 1 0 0 1 1-1M7.25 20a.75.75 0 0 1 .75-.75h2a.75.75 0 0 1 0 1.5H8a.75.75 0 0 1-.75-.75" clip-rule="evenodd"/></svg>