<svg xmlns="http://www.w3.org/2000/svg" fill="none" viewBox="0 0 24 24"><path fill="currentColor" d="M5.826 7.424a6.174 6.174 0 1 1 12.349 0c0 1.714.035 3.03.248 4.102.326-1.018 1.09-2.027 2.083-3.049a.75.75 0 0 1 1.076 1.046c-1.428 1.469-1.903 2.473-1.823 3.223.076.72.714 1.568 2.6 2.595a.75.75 0 0 1 .358.881q.043.136.03.285a.75.75 0 0 1-.565.665c-1.097.274-1.613.514-1.943.844s-.57.847-.845 1.944a.75.75 0 0 1-.727.568c-1.766 0-2.741.492-3.566 1q-.164.101-.333.21c-.732.47-1.576 1.012-2.768 1.012s-2.035-.541-2.768-1.011q-.17-.11-.333-.211c-.825-.508-1.8-1-3.566-1a.75.75 0 0 1-.727-.568c-.274-1.097-.514-1.613-.845-1.944s-.846-.57-1.943-.844a.75.75 0 0 1-.534-.95.75.75 0 0 1 .357-.88c1.886-1.028 2.524-1.876 2.6-2.596.08-.75-.395-1.754-1.823-3.223a.75.75 0 1 1 1.076-1.046c.993 1.022 1.757 2.031 2.083 3.049.213-1.072.249-2.388.249-4.102" opacity=".4"/><path fill="currentColor" d="M5.826 7.424a6.174 6.174 0 0 1 12.35 0c-.175 4.102.492 6.247 4.184 7.917.418.228.423.75.389 1.166a.75.75 0 0 1-.566.665c-1.097.274-1.613.514-1.943.844s-.57.847-.845 1.944a.75.75 0 0 1-.727.568c-1.766 0-2.741.492-3.565 1q-.164.101-.334.21c-.732.47-1.577 1.012-2.768 1.012-1.192 0-2.036-.541-2.768-1.011q-.17-.11-.334-.211c-.824-.508-1.8-1-3.565-1a.75.75 0 0 1-.727-.568c-.275-1.097-.514-1.613-.845-1.944s-.846-.57-1.943-.844a.75.75 0 0 1-.566-.665c-.034-.416-.029-.938.389-1.166 3.692-1.67 4.359-3.815 4.184-7.917"/></svg>