<svg xmlns="http://www.w3.org/2000/svg" fill="none" viewBox="0 0 24 24"><path fill="currentColor" fill-rule="evenodd" d="M17.327 20.408c.126-.531.194-1.2.275-1.997l.112-1.095c.021-.206.032-.31-.028-.375-.06-.066-.163-.066-.37-.066H6.686c-.207 0-.31 0-.37.066s-.049.169-.028.375L6.4 18.41c.081.796.15 1.466.275 1.996.134.564.352 1.066.797 1.46.245.218.557.373.867.488.318.12.68.214 1.064.288a14.5 14.5 0 0 0 2.553.232c.89.006 1.796-.059 2.578-.204.743-.139 1.512-.374 1.997-.803.445-.395.663-.897.796-1.46M6.451 15.374c-.171 0-.257 0-.314-.052-.057-.051-.066-.136-.084-.307l-.173-1.7c-.021-.206-.032-.31.028-.375.06-.066.163-.066.37-.066h11.447c.207 0 .31 0 .37.066s.05.169.028.375l-.174 1.7c-.017.17-.026.256-.083.307-.057.052-.143.052-.314.052zm11.824-4.052c.057-.051.065-.136.083-.307l.429-4.2c.02-.206.031-.31-.028-.375-.06-.066-.163-.066-.37-.066H5.614c-.207 0-.31 0-.37.066s-.05.169-.028.375l.429 4.2c.017.17.026.256.083.307.057.052.143.052.315.052H17.96c.172 0 .258 0 .315-.052" clip-rule="evenodd" opacity=".4"/><path fill="currentColor" fill-rule="evenodd" d="M5 6.125a1 1 0 0 0 0 2h14a1 1 0 1 0 0-2h-6V4.473c0-.533.024-.896.073-1.145l.008-.048c.015-.09.026-.155.13-.155.195 0 .512.05 1.015.19l3.504.984a1 1 0 1 0 .54-1.926l-3.503-.983c-.558-.157-1.084-.265-1.556-.265-.49 0-1.013.118-1.437.51-.403.371-.577.865-.664 1.308-.087.447-.11.97-.11 1.53v1.652z" clip-rule="evenodd"/></svg>