<svg xmlns="http://www.w3.org/2000/svg" fill="none" viewBox="0 0 24 24"><path fill="currentColor" d="M15.594 16.272c.176-.022.392-.022.568-.022h.588V4a1 1 0 1 1 2 0v12.25h.588c.176 0 .392 0 .568.022h.004c.126.016.702.088.976.653.275.567-.027 1.067-.092 1.176l-.34.468c-.294.376-.7.89-1.08 1.281-.19.195-.407.397-.638.555-.205.142-.555.345-.986.345s-.78-.203-.986-.344a4.4 4.4 0 0 1-.638-.556c-.38-.39-.786-.905-1.08-1.281l-.34-.468c-.065-.109-.367-.609-.092-1.176.274-.565.85-.637.976-.653z"/><path fill="currentColor" fill-rule="evenodd" d="M9.088 9.41 7 4.754 4.913 9.409a1 1 0 0 1-1.825-.818l2.105-4.695.025-.055c.173-.387.344-.768.518-1.045C5.897 2.538 6.283 2 7 2s1.103.538 1.265.796c.173.277.344.658.517 1.044l.025.056 2.106 4.695a1 1 0 0 1-1.825.818M4 15h4.276L4.75 18.746l-.042.045c-.28.296-.56.594-.745.857-.176.25-.517.817-.225 1.476.289.653.93.789 1.232.831.319.045.73.045 1.14.045H10a1 1 0 1 0 0-2H6.315l3.528-3.746.042-.045c.28-.296.56-.594.744-.857.176-.25.517-.817.226-1.476-.289-.653-.93-.788-1.232-.831C9.303 13 8.893 13 8.482 13H4a1 1 0 1 0 0 2" clip-rule="evenodd" opacity=".4"/></svg>