<svg xmlns="http://www.w3.org/2000/svg" fill="none" viewBox="0 0 24 24"><path fill="currentColor" d="M12.05 1.25c1.837 0 3.283 0 4.425.137 1.168.14 2.115.433 2.9 1.091q.351.296.647.647c.658.785.95 1.732 1.091 2.9.137 1.142.137 2.588.137 4.425v3.1c0 1.837 0 3.284-.137 4.425-.14 1.168-.433 2.115-1.091 2.9q-.296.351-.647.647c-.785.658-1.732.95-2.9 1.091-1.142.137-2.588.137-4.425.137h-.1c-1.837 0-3.283 0-4.425-.137-1.168-.14-2.115-.433-2.9-1.091a5 5 0 0 1-.647-.647c-.658-.785-.95-1.732-1.091-2.9-.137-1.142-.137-2.588-.137-4.425v-3.1c0-1.837 0-3.283.137-4.425.14-1.168.433-2.116 1.091-2.9q.296-.351.647-.647c.785-.658 1.732-.95 2.9-1.091 1.142-.137 2.588-.137 4.425-.137z" opacity=".4"/><path fill="currentColor" fill-rule="evenodd" d="M10.5 6.5a1.5 1.5 0 1 1 3 0 1.5 1.5 0 0 1-3 0M12 12a3.5 3.5 0 1 0 0 7 3.5 3.5 0 0 0 0-7" clip-rule="evenodd"/></svg>