<svg xmlns="http://www.w3.org/2000/svg" fill="none" viewBox="0 0 24 24"><path fill="currentColor" d="M12.057 1.75c2.19 0 3.912 0 5.255.18 1.377.186 2.469.573 3.327 1.43.858.86 1.245 1.951 1.43 3.328.181 1.343.181 3.064.181 5.255v.114c0 2.19 0 3.912-.18 5.255-.186 1.377-.573 2.469-1.43 3.327-.86.858-1.951 1.245-3.328 1.43-1.343.181-3.064.181-5.255.181h-.114c-2.19 0-3.912 0-5.255-.18-1.377-.186-2.469-.573-3.327-1.43-.858-.86-1.245-1.951-1.43-3.328-.181-1.343-.181-3.064-.181-5.255v-.114c0-2.19 0-3.912.18-5.255.186-1.377.573-2.469 1.43-3.327.86-.858 1.951-1.245 3.328-1.43 1.343-.181 3.064-.181 5.255-.181z" opacity=".4"/><path fill="currentColor" fill-rule="evenodd" d="M13.485 8.192a.79.79 0 0 0-1.12.088.804.804 0 0 0 .088 1.128l.41.366c.25.229.582.54.91.873.333.338.647.683.873.982q.169.225.237.36l.006.011-.006.01q-.067.136-.237.361c-.226.3-.54.644-.873.982-.328.334-.66.644-.91.873l-.41.366a.804.804 0 0 0-.088 1.128.79.79 0 0 0 1.12.088l.445-.396c.263-.24.616-.572.971-.932.352-.357.722-.76 1.009-1.14.143-.19.28-.39.383-.592.094-.183.207-.45.207-.748s-.113-.565-.207-.748a4 4 0 0 0-.383-.592 12 12 0 0 0-1.01-1.14 26 26 0 0 0-.97-.931zM10.726 9.52a26 26 0 0 0-.971-.931l-.445-.397a.79.79 0 0 0-.848-.119A.8.8 0 0 0 8 8.8v6.4a.8.8 0 0 0 .462.727.79.79 0 0 0 .848-.119l.445-.396c.263-.24.616-.572.971-.932.352-.357.722-.76 1.009-1.14.143-.19.28-.39.383-.592.095-.183.207-.45.207-.748s-.112-.565-.207-.748a4 4 0 0 0-.383-.592c-.287-.38-.657-.783-1.009-1.14" clip-rule="evenodd"/></svg>