<svg xmlns="http://www.w3.org/2000/svg" fill="none" viewBox="0 0 24 24"><path fill="currentColor" d="M1.75 11.943c0-2.19 0-3.912.18-5.255.186-1.377.573-2.469 1.43-3.327.86-.858 1.951-1.245 3.328-1.43 1.343-.181 3.064-.181 5.255-.181h.114c2.19 0 3.912 0 5.255.18 1.377.186 2.469.573 3.327 1.43.858.86 1.245 1.951 1.43 3.328.181 1.343.181 3.064.181 5.255v.114c0 2.19 0 3.912-.18 5.255-.186 1.377-.573 2.469-1.43 3.327-.86.858-1.951 1.245-3.328 1.43-1.343.181-3.064.181-5.255.181h-.114c-2.19 0-3.912 0-5.255-.18-1.377-.186-2.469-.573-3.327-1.43-.858-.86-1.245-1.951-1.43-3.328-.181-1.343-.181-3.064-.181-5.255z" opacity=".4"/><path fill="currentColor" fill-rule="evenodd" d="M12 6.25a.75.75 0 0 1 .75.75v4.25h.311c.274 0 .542 0 .75.024.163.018.635.08.852.498.216.419-.029.798-.115.927-.11.164-.28.358-.451.556l-.025.028a9.5 9.5 0 0 1-.872.901c-.151.132-.32.262-.498.363a1.44 1.44 0 0 1-.702.203 1.44 1.44 0 0 1-.701-.203 3 3 0 0 1-.5-.363 10 10 0 0 1-.871-.901l-.025-.028a7 7 0 0 1-.451-.556c-.087-.129-.332-.508-.115-.927.217-.418.69-.48.852-.498.208-.024.476-.024.75-.024h.311V7a.75.75 0 0 1 .75-.75m4 11.5H8a.75.75 0 0 1 0-1.5h8a.75.75 0 0 1 0 1.5" clip-rule="evenodd"/></svg>