<svg xmlns="http://www.w3.org/2000/svg" fill="none" viewBox="0 0 24 24"><path fill="currentColor" d="M12.057 1.75c2.19 0 3.912 0 5.255.18 1.377.186 2.469.573 3.327 1.43.858.86 1.245 1.951 1.43 3.328.181 1.343.181 3.064.181 5.255v.114c0 2.19 0 3.912-.18 5.255-.186 1.377-.573 2.469-1.43 3.327-.86.858-1.951 1.245-3.328 1.43-1.343.181-3.064.181-5.255.181h-.114c-2.19 0-3.912 0-5.255-.18-1.377-.186-2.469-.573-3.327-1.43-.858-.86-1.245-1.951-1.43-3.328-.181-1.343-.181-3.064-.181-5.255v-.114c0-2.19 0-3.912.18-5.255.186-1.377.573-2.469 1.43-3.327.86-.858 1.951-1.245 3.328-1.43 1.343-.181 3.064-.181 5.255-.181z" opacity=".4"/><path fill="currentColor" fill-rule="evenodd" d="M6.234 16V8a.75.75 0 1 1 1.5 0v8a.75.75 0 0 1-1.5 0m11.5-4a.75.75 0 0 1-.75.75h-4.25v.311c0 .274 0 .542-.023.75-.019.163-.08.635-.499.852-.418.216-.798-.029-.926-.115-.165-.11-.359-.28-.556-.451l-.028-.025A9.5 9.5 0 0 1 9.8 13.2a3 3 0 0 1-.362-.498A1.44 1.44 0 0 1 9.234 12c0-.289.109-.534.204-.701.1-.179.23-.348.362-.5.264-.302.6-.608.902-.871l.028-.025c.197-.172.391-.34.556-.451.128-.087.508-.332.926-.115s.48.69.499.852c.024.208.023.476.023.75v.311h4.25a.75.75 0 0 1 .75.75" clip-rule="evenodd"/></svg>