<svg xmlns="http://www.w3.org/2000/svg" fill="none" viewBox="0 0 24 24"><path fill="currentColor" d="M12.057 1.75c2.19 0 3.912 0 5.255.18 1.377.186 2.469.573 3.327 1.43.858.86 1.245 1.951 1.43 3.328.181 1.343.181 3.064.181 5.255v.114c0 2.19 0 3.912-.18 5.255-.186 1.377-.573 2.469-1.43 3.327-.86.858-1.951 1.245-3.328 1.43-1.343.181-3.064.181-5.255.181h-.114c-2.19 0-3.912 0-5.255-.18-1.377-.186-2.469-.573-3.327-1.43-.858-.86-1.245-1.951-1.43-3.328-.181-1.343-.181-3.064-.181-5.255v-.114c0-2.19 0-3.912.18-5.255.186-1.377.573-2.469 1.43-3.327.86-.858 1.951-1.245 3.328-1.43 1.343-.181 3.064-.181 5.255-.181z" opacity=".4"/><path fill="currentColor" fill-rule="evenodd" d="M15.288 6.534A.75.75 0 0 0 13.95 7v1.523H9.3c-.94 0-1.71.248-2.152.956-.377.6-.398 1.39-.398 2.067a.75.75 0 0 0 1.5 0c0-.745.057-1.092.17-1.272.046-.074.175-.251.88-.251h5.96c.254 0 .511-.014.735-.068.202-.05.568-.177.754-.562.186-.384.059-.751-.028-.94a3.2 3.2 0 0 0-.403-.618zm1.962 5.92a.75.75 0 0 0-1.5 0c0 .744-.056 1.09-.169 1.27-.046.074-.176.252-.88.252H8.74a3.2 3.2 0 0 0-.736.068c-.201.049-.568.177-.754.561s-.059.752.028.94c.096.21.246.42.403.619l1.03 1.3A.75.75 0 0 0 10.05 17v-1.523h4.65c.94 0 1.71-.249 2.153-.956.376-.601.397-1.391.397-2.067" clip-rule="evenodd"/></svg>