<svg xmlns="http://www.w3.org/2000/svg" fill="none" viewBox="0 0 24 24"><path fill="currentColor" d="M22.25 12.057c0 2.19 0 3.912-.18 5.255-.186 1.377-.573 2.469-1.43 3.327-.86.858-1.951 1.245-3.328 1.43-1.343.181-3.064.181-5.255.181h-.114c-2.19 0-3.912 0-5.255-.18-1.377-.186-2.469-.573-3.327-1.43-.858-.86-1.245-1.951-1.43-3.328-.181-1.343-.181-3.064-.181-5.255v-.114c0-2.19 0-3.912.18-5.255.186-1.377.573-2.469 1.43-3.327.86-.858 1.951-1.245 3.328-1.43 1.343-.181 3.064-.181 5.255-.181h.114c2.19 0 3.912 0 5.255.18 1.377.186 2.469.573 3.327 1.43.858.86 1.245 1.951 1.43 3.328.181 1.343.181 3.064.181 5.255z" opacity=".4"/><path fill="currentColor" d="M8 13a1 1 0 1 1 0-2h4.5v-.162c0-.29 0-.598.029-.84.021-.177.1-.827.71-1.128s1.152.045 1.298.139c.202.129.435.322.655.504l.038.031c.346.288.741.63 1.055.974.157.171.319.37.446.585.118.2.269.514.269.897s-.15.698-.269.897a3.6 3.6 0 0 1-.446.585c-.314.344-.709.686-1.055.974l-.038.03c-.22.183-.453.377-.655.505-.146.094-.689.439-1.298.139s-.689-.951-.71-1.128a8 8 0 0 1-.029-.84V13z"/></svg>