<svg xmlns="http://www.w3.org/2000/svg" fill="none" viewBox="0 0 24 24"><path fill="currentColor" d="M12 2.25a.75.75 0 0 1 .75.75c0 2.006 1.01 4.075 2.593 5.657S18.993 11.25 21 11.25a.75.75 0 0 1 0 1.5c-2.006 0-4.075 1.01-5.657 2.593S12.75 18.993 12.75 21a.75.75 0 0 1-1.5 0c0-2.006-1.01-4.075-2.593-5.657S5.007 12.75 3 12.75a.75.75 0 0 1 0-1.5c2.006 0 4.075-1.01 5.657-2.593S11.25 5.007 11.25 3a.75.75 0 0 1 .75-.75" opacity=".4"/><path fill="currentColor" fill-rule="evenodd" d="M19.695 1.606a.457.457 0 0 0-.89 0l-.235 1.04a1.89 1.89 0 0 1-1.424 1.424l-1.04.235a.456.456 0 0 0 0 .89l1.04.235c.71.16 1.264.714 1.424 1.424l.235 1.04a.457.457 0 0 0 .89 0l.235-1.04c.16-.71.714-1.264 1.424-1.424l1.04-.235a.456.456 0 0 0 0-.89l-1.04-.235a1.89 1.89 0 0 1-1.424-1.424zm-14.5 14.5a.456.456 0 0 0-.89 0l-.235 1.04a1.89 1.89 0 0 1-1.424 1.424l-1.04.235a.457.457 0 0 0 0 .89l1.04.235c.71.16 1.264.714 1.424 1.424l.235 1.04a.456.456 0 0 0 .89 0l.235-1.04c.16-.71.714-1.264 1.424-1.424l1.04-.235a.457.457 0 0 0 0-.89l-1.04-.235a1.89 1.89 0 0 1-1.424-1.424z" clip-rule="evenodd"/></svg>