<svg xmlns="http://www.w3.org/2000/svg" fill="none" viewBox="0 0 24 24"><path fill="currentColor" d="M1.25 12C1.25 6.063 6.063 1.25 12 1.25S22.75 6.063 22.75 12 17.937 22.75 12 22.75 1.25 17.937 1.25 12" opacity=".4"/><path fill="currentColor" fill-rule="evenodd" d="M12 9.25c-.37 0-1.436.013-3.425.765-1.016.385-2.209.126-3.112-.255a.75.75 0 0 0-1.023.526 7.8 7.8 0 0 0-.061 3.128.75.75 0 0 0 .59.599c1.004.201 2.167.58 3.086 1.318.89.715 1.594 1.798 1.667 3.533a.75.75 0 0 0 .586.7 7.8 7.8 0 0 0 3.384 0 .75.75 0 0 0 .586-.7c.073-1.735.776-2.818 1.667-3.533.919-.739 2.082-1.117 3.086-1.318a.75.75 0 0 0 .59-.6 7.8 7.8 0 0 0-.061-3.127.75.75 0 0 0-1.023-.526c-.903.38-2.095.64-3.112.255-1.99-.752-3.055-.765-3.425-.765m.012 5.25c.826 0 1.496-.672 1.496-1.5s-.67-1.5-1.496-1.5h-.009c-.826 0-1.495.672-1.495 1.5s.67 1.5 1.495 1.5z" clip-rule="evenodd"/></svg>