<svg xmlns="http://www.w3.org/2000/svg" fill="none" viewBox="0 0 24 24"><path fill="currentColor" d="M13.05 2.25c1.77 0 3.21 0 4.33.15 1.17.16 2.16.5 2.94 1.28s1.12 1.77 1.28 2.94c.15 1.12.15 2.56.15 4.33v1.52c0 .66 0 1.25-.22 1.79-.23.54-.64.96-1.11 1.43l-4.73 4.73c-.47.47-.89.88-1.43 1.11-.54.22-1.13.22-1.79.22h-1.52c-1.77 0-3.21 0-4.33-.15-1.17-.16-2.16-.5-2.94-1.28s-1.12-1.77-1.28-2.94c-.15-1.12-.15-2.56-.15-4.33v-2.1c0-1.77 0-3.21.15-4.33.16-1.17.5-2.16 1.28-2.94S5.45 2.56 6.62 2.4c1.12-.15 2.56-.15 4.33-.15z" opacity=".4"/><path fill="currentColor" d="M21.532 14.26c-.23.54-.64.96-1.11 1.43l-4.73 4.73c-.47.47-.89.88-1.43 1.11v-3.27c0-1.88 0-2.83.59-3.41.58-.59 1.53-.59 3.41-.59z"/></svg>