<svg xmlns="http://www.w3.org/2000/svg" fill="none" viewBox="0 0 24 24"><path fill="currentColor" d="M7.555 4.335c.035.043.06.124.113.286a3.5 3.5 0 0 0 .473.955c.096.136.143.204.155.27.012.065-.007.136-.044.278l-.101.382a2 2 0 0 0 3.868 1.019l.097-.367c.037-.142.056-.214.098-.265.043-.05.118-.087.27-.158q.141-.067.279-.148a3.53 3.53 0 0 0 1.707-3.502c-.045-.35-.068-.526.01-.625.076-.098.222-.116.515-.15q.14-.018.274-.028c.735-.057 1.4.028 2.02.38.715.407 1.148 1.043 1.486 1.84.324.765.598 1.773.937 3.017l1.766 6.49c.338 1.244.613 2.252.72 3.075.113.856.061 1.624-.354 2.332s-1.06 1.132-1.866 1.463c-.775.319-1.797.588-3.062.922l-2.27.599c-.186.049-.278.073-.365.043-.087-.031-.143-.106-.253-.256-.182-.245-.398-.548-.652-.897a28 28 0 0 0-1.334-1.71c-.49-.57-1.037-1.13-1.613-1.554-1.07-.788-2.242-1.021-3.355-.217-.375.272-.72.619-1.024.97-.322.37-.623.777-.882 1.145-.128.181-.397.166-.478-.041-.138-.357-.26-.801-.4-1.32l-1.768-6.496c-.339-1.245-.613-2.253-.72-3.075-.113-.857-.061-1.624.354-2.333.415-.707 1.06-1.132 1.865-1.462.776-.32 1.798-.589 3.063-.923.143-.037.214-.056.27-.05a.28.28 0 0 1 .201.11" opacity=".4"/><path fill="currentColor" fill-rule="evenodd" d="M10.63 2.867a.736.736 0 0 1 1.016.282.79.79 0 0 1-.276 1.068.736.736 0 0 1-1.017-.282.79.79 0 0 1 .277-1.068m2.321-.458a2.236 2.236 0 0 0-3.08-.835A2.29 2.29 0 0 0 9.73 5.42l-.37 1.404a.75.75 0 1 0 1.45.382l.368-1.396a2.2 2.2 0 0 0 .952-.301 2.29 2.29 0 0 0 .821-3.101M6.083 21.355a.056.056 0 0 1-.024-.083c.319-.467.697-1.02 1.124-1.513l.054-.062c.305-.354.775-.9 1.258-.93.366-.023.768.262 1.044.465.445.328.908.793 1.364 1.324.454.528.88 1.096 1.26 1.617l.287.394a.088.088 0 0 1-.086.139q-.175-.031-.372-.072l-4.237-.854c-.534-.108-.99-.2-1.359-.314a4 4 0 0 1-.313-.11" clip-rule="evenodd"/></svg>