<svg xmlns="http://www.w3.org/2000/svg" fill="none" viewBox="0 0 24 24"><path fill="currentColor" d="M17.466 1.25c.635 0 1.177 0 1.62.052.474.056.911.18 1.307.474.394.294.64.68.837 1.12.187.415.357.944.559 1.57l.696 2.164.015.046c.176.546.317.984.214 1.646a2.8 2.8 0 0 1-.19.708 2.5 2.5 0 0 1-.28.462l-.012.017c-.984 1.363-2.788 2.241-4.478 2.241a4.78 4.78 0 0 1-2.877-.958 4.77 4.77 0 0 1-2.878.958 4.78 4.78 0 0 1-2.877-.957c-.8.6-1.797.957-2.877.957-1.69 0-3.494-.878-4.478-2.24l-.012-.018a2.5 2.5 0 0 1-.28-.462 2.8 2.8 0 0 1-.19-.708c-.103-.662.038-1.1.214-1.646l.015-.046.684-2.125.012-.039c.202-.626.372-1.155.559-1.57.197-.44.443-.826.837-1.12.396-.295.833-.418 1.307-.474.443-.052.985-.052 1.62-.052z" opacity=".4"/><path fill="currentColor" fill-rule="evenodd" d="M2 14.82V9.805a5.6 5.6 0 0 0 2 1.456v3.488c0 1.443.002 2.424.1 3.159.096.706.263 1.033.486 1.256.222.222.55.39 1.255.484.735.1 1.717.101 3.159.101h3.035a1 1 0 1 1 0 2H8.929c-1.354 0-2.47 0-3.354-.118-.928-.125-1.747-.397-2.403-1.053-.657-.656-.929-1.476-1.053-2.404-.12-.883-.119-2-.119-3.354m16.5-2.07c-2.334 0-4.25 1.86-4.25 4.184 0 1.325.666 2.314 1.357 3.105.246.282.517.562.77.824q.145.149.277.288c.337.354.625.679.849 1.01.186.278.52.589 1.003.589.49 0 .823-.32 1.004-.608.212-.338.493-.663.823-1.011q.164-.172.35-.362c.23-.235.475-.486.692-.73.696-.778 1.375-1.754 1.375-3.105 0-2.324-1.916-4.184-4.25-4.184m-.007 5.75A1.497 1.497 0 0 1 17 17c0-.828.669-1.5 1.493-1.5h.014c.824 0 1.493.672 1.493 1.5s-.669 1.5-1.493 1.5zM6 17a1 1 0 0 1 1-1h4a1 1 0 1 1 0 2H7a1 1 0 0 1-1-1" clip-rule="evenodd"/></svg>