<svg xmlns="http://www.w3.org/2000/svg" fill="none" viewBox="0 0 24 24"><path fill="currentColor" d="M10.08 5.25a7.8 7.8 0 0 0-.33 2.283c0 2.944 1.58 5.507 3.91 6.829-.75.525-1.67.833-2.66.833-1.37 0-2.62-.593-3.45-1.541a3.48 3.48 0 0 1-2.9 1.541c-.84 0-1.62-.301-2.23-.801a3.6 3.6 0 0 1-1.03-1.442c-.03-.101-.09-.246-.12-.427-.03-.189-.02-.383-.01-.607.05-.562.25-.902.48-1.3l.89-1.526c.24-.412.37-.877.37-1.35C3 6.352 4.14 5.25 5.52 5.25z" opacity=".4"/><path fill="currentColor" fill-rule="evenodd" d="M11.25 7c0-3.176 2.57-5.75 5.75-5.75S22.75 3.824 22.75 7s-2.57 5.75-5.75 5.75A5.747 5.747 0 0 1 11.25 7m8.46-1.75a.75.75 0 0 1-.46.957c-.22.079-.5.26-.82.537-.31.27-.61.598-.88.924-.208.25-.542.713-.762 1.017l-.157.217a.746.746 0 0 1-1.3-.066c-.21-.411-.39-.558-.45-.595a.746.746 0 0 1-.63-.741c0-.414.34-.75.75-.75.11-.006.23.026.29.045.13.036.28.1.44.206.09.059.17.128.26.211.091-.121.194-.25.3-.381l.1-.124c.31-.361.66-.752 1.05-1.091.38-.332.83-.652 1.31-.823.39-.138.82.066.96.457M2.15 16.796v-2.654q.135.134.27.251c.47.388 1.05.656 1.68.757v1.581c0 1.221 0 2.04.08 2.652.08.582.22.832.4.997.17.167.43.305 1.04.384.64.082 1.49.084 2.75.084h5.26c1.26 0 2.11-.002 2.75-.084.61-.079.87-.217 1.04-.384.18-.165.32-.415.4-.997.08-.612.08-1.43.08-2.652v-1.444a7.2 7.2 0 0 0 1.95-.445v1.955c0 1.138 0 2.087-.11 2.842-.11.798-.35 1.517-.95 2.094-.59.575-1.33.81-2.15.915-.78.101-1.77.101-2.95.101H8.31c-1.18 0-2.17 0-2.95-.1-.82-.107-1.56-.34-2.15-.916-.6-.577-.84-1.296-.95-2.094-.11-.755-.11-1.704-.11-2.842" clip-rule="evenodd"/></svg>