<svg xmlns="http://www.w3.org/2000/svg" fill="none" viewBox="0 0 24 24"><path fill="currentColor" d="M17.466 1.75c.635 0 1.177 0 1.62.052.474.056.911.18 1.307.474.394.294.64.68.837 1.12.187.415.357.944.559 1.57l.696 2.164.015.046c.176.546.317.984.214 1.646a2.8 2.8 0 0 1-.19.708 2.5 2.5 0 0 1-.28.462l-.012.017c-.984 1.363-2.788 2.241-4.478 2.241a4.78 4.78 0 0 1-2.877-.958 4.77 4.77 0 0 1-2.878.958 4.78 4.78 0 0 1-2.877-.957c-.8.6-1.797.957-2.877.957-1.69 0-3.494-.878-4.478-2.24l-.012-.018a2.5 2.5 0 0 1-.28-.462 2.8 2.8 0 0 1-.19-.708c-.103-.662.038-1.1.214-1.646l.015-.046.684-2.125.012-.039c.202-.626.372-1.155.559-1.57.197-.44.443-.826.837-1.12.396-.295.833-.418 1.307-.474.443-.052.985-.052 1.62-.052z" opacity=".4"/><path fill="currentColor" fill-rule="evenodd" d="M2 15.32v-5.014a5.6 5.6 0 0 0 2 1.456v3.488c0 1.443.002 2.424.1 3.159.096.706.263 1.033.486 1.256.222.222.55.39 1.255.484.735.1 1.717.101 3.159.101h6c1.442 0 2.424-.002 3.159-.1.706-.095 1.033-.263 1.255-.485.223-.223.39-.55.485-1.256.099-.735.101-1.716.101-3.159v-3.489a5.6 5.6 0 0 0 2-1.456v5.016c0 1.354 0 2.47-.119 3.354-.125.928-.396 1.748-1.053 2.404s-1.475.928-2.403 1.053c-.884.118-2 .118-3.354.118H8.929c-1.354 0-2.47 0-3.354-.118-.928-.125-1.747-.397-2.403-1.053-.657-.656-.929-1.476-1.053-2.404-.12-.883-.119-2-.119-3.354m7.664.682a1 1 0 0 0-1.328 1.496c.903.8 2.244 1.252 3.664 1.252s2.762-.451 3.664-1.252a1 1 0 0 0-1.328-1.496c-.466.414-1.302.748-2.336.748s-1.87-.334-2.336-.748" clip-rule="evenodd"/></svg>