<svg xmlns="http://www.w3.org/2000/svg" fill="none" viewBox="0 0 24 24"><path fill="currentColor" d="M17.263 4.324a1 1 0 0 1 1.413-.061l2.93 2.73c.177.214.394.549.394 1.007s-.217.793-.395 1.007l-2.93 2.73a1 1 0 0 1-1.35-1.474l1.285-1.18c-7.116.517-10.698 3.33-12.538 5.987a12 12 0 0 0-1.816 4.125 11 11 0 0 0-.226 1.346c-.015.159-.026.383-.03.462A1 1 0 0 1 2 21c0-.191.02-.46.04-.657.039-.392.115-.943.267-1.6.302-1.31.907-3.06 2.12-4.812 2.26-3.264 6.51-6.369 14.349-6.863l-1.452-1.331a1 1 0 0 1-.061-1.413"/><path fill="currentColor" fill-rule="evenodd" d="M5.5 2a3.5 3.5 0 1 0 0 7 3.5 3.5 0 0 0 0-7m8.207 13.293a1 1 0 0 0-1.414 1.414l1.793 1.793-1.793 1.793a1 1 0 0 0 1.414 1.414l1.793-1.793 1.793 1.793a1 1 0 0 0 1.414-1.414L16.914 18.5l1.793-1.793a1 1 0 0 0-1.414-1.414L15.5 17.086z" clip-rule="evenodd" opacity=".4"/></svg>