<svg xmlns="http://www.w3.org/2000/svg" fill="none" viewBox="0 0 24 24"><path fill="currentColor" fill-rule="evenodd" d="M3.323 1.387C3.801 1.282 4.363 1.25 5 1.25h2c.637 0 1.199.032 1.677.137.486.107.931.3 1.284.652s.545.798.652 1.284c.105.478.137 1.04.137 1.677s-.032 1.199-.137 1.677c-.107.486-.3.931-.652 1.284s-.798.545-1.284.652c-.478.105-1.04.137-1.677.137H5c-.637 0-1.199-.032-1.677-.137-.486-.107-.931-.3-1.284-.652s-.545-.798-.652-1.284C1.282 6.199 1.25 5.637 1.25 5s.032-1.199.137-1.677c.107-.486.3-.931.652-1.284s.798-.545 1.284-.652m11.61 4.688c.632-.72 1.626-.825 2.692-.825h1.75c1.066 0 2.06.104 2.691.825.312.356.475.796.566 1.268.09.468.118 1.022.118 1.657s-.028 1.189-.118 1.657c-.09.472-.254.912-.566 1.268-.63.72-1.625.825-2.691.825h-1.75c-1.066 0-2.06-.104-2.691-.825-.312-.356-.475-.796-.566-1.268-.09-.468-.118-1.022-.118-1.657s.028-1.189.118-1.657c.09-.472.254-.912.566-1.268M16 15.25c-.637 0-1.199.032-1.677.137-.486.107-.931.3-1.284.652s-.545.798-.652 1.284c-.105.478-.137 1.04-.137 1.677s.032 1.199.137 1.677c.107.486.3.931.652 1.284s.798.545 1.284.652c.478.105 1.04.137 1.677.137h2c.637 0 1.199-.032 1.677-.137.486-.107.931-.3 1.284-.652s.545-.798.652-1.284c.105-.478.137-1.04.137-1.677s-.032-1.199-.137-1.677c-.107-.486-.3-.931-.652-1.284s-.798-.545-1.284-.652c-.478-.105-1.04-.137-1.677-.137z" clip-rule="evenodd" opacity=".4"/><path fill="currentColor" d="m9.922 8 .039-.038c.352-.353.545-.799.651-1.285.105-.478.138-1.04.138-1.677q0-.414-.022-.785l4.33 1.731q-.066.061-.125.13c-.311.356-.474.795-.565 1.267a6 6 0 0 0-.067.455L11.61 6.722l2.807 8.646-.094.02c-.486.107-.932.299-1.284.651a2 2 0 0 0-.342.448 1 1 0 0 1-.077-.178z"/></svg>