<svg xmlns="http://www.w3.org/2000/svg" fill="none" viewBox="0 0 24 24"><path fill="currentColor" d="M12.057 1.75c2.19 0 3.912 0 5.255.18 1.377.186 2.469.573 3.327 1.43.858.86 1.245 1.951 1.43 3.328.181 1.343.181 3.064.181 5.255v.114c0 2.19 0 3.912-.18 5.255-.186 1.377-.573 2.469-1.43 3.327-.86.858-1.951 1.245-3.328 1.43-1.343.181-3.064.181-5.255.181h-.114c-2.19 0-3.912 0-5.255-.18-1.377-.186-2.469-.573-3.327-1.43-.858-.86-1.245-1.951-1.43-3.328-.181-1.343-.181-3.064-.181-5.255v-.114c0-2.19 0-3.912.18-5.255.186-1.377.573-2.469 1.43-3.327.86-.858 1.951-1.245 3.328-1.43 1.343-.181 3.064-.181 5.255-.181z" opacity=".4"/><path fill="currentColor" d="m13.734 9.001-2.91.008 1.723 1.51c.172.15.37.324.519.496.177.205.393.532.393.986s-.216.78-.393.985a5 5 0 0 1-.52.497l-1.722 1.509 2.91.008c.117-.002.196-.009.253-.02.01-.095.014-.238.015-.484a1 1 0 1 1 2 .006c0 .258-.004.52-.033.754a2 2 0 0 1-.265.798c-.357.581-.898.809-1.349.893-.328.06-.695.056-.919.052h-2.7c-.497 0-.972 0-1.334-.051-.321-.045-1.051-.191-1.32-.936-.266-.733.184-1.314.397-1.558.241-.277.6-.592.979-.924L11.204 12l-1.746-1.53c-.379-.33-.738-.646-.98-.923-.212-.245-.662-.825-.397-1.558.27-.745 1-.89 1.321-.936.362-.05.837-.05 1.334-.05l2.7-.001c.224-.003.59-.009.92.052.45.084.991.312 1.348.893.167.272.234.55.265.798.029.234.032.496.033.754a1 1 0 1 1-2 .006 5 5 0 0 0-.015-.485 2 2 0 0 0-.253-.019"/></svg>