<svg xmlns="http://www.w3.org/2000/svg" fill="none" viewBox="0 0 24 24"><path fill="currentColor" d="M1.375 15.125a5.75 5.75 0 0 1 4.208-5.54c.196-.055.294-.082.35-.14.057-.058.082-.156.131-.352a6.252 6.252 0 0 1 12.272.831c.027.246.041.368.104.44.062.07.184.1.427.159a5.252 5.252 0 0 1 1.718 9.439c-.355.242-.533.364-.681.305-.148-.06-.211-.348-.336-.924a2.5 2.5 0 0 0-3.237-1.839c-.095.032-.142.048-.176.05a.2.2 0 0 1-.06 0 1 1 0 0 1-.177-.05c-.146-.05-.22-.074-.258-.102a.2.2 0 0 1-.062-.062c-.028-.038-.053-.112-.102-.258-.032-.096-.048-.144-.05-.177a.2.2 0 0 1 0-.06 1 1 0 0 1 .05-.176 2.5 2.5 0 0 0-3.126-3.178c-.132.042-.199.063-.245.063s-.113-.021-.245-.063a2.5 2.5 0 0 0-3.126 3.178 1 1 0 0 1 .05.176.2.2 0 0 1 0 .06 1 1 0 0 1-.05.177c-.05.146-.074.22-.102.258a.2.2 0 0 1-.062.062 1.2 1.2 0 0 1-.258.102c-.096.031-.144.047-.177.05a.2.2 0 0 1-.06 0 1 1 0 0 1-.176-.05 2.5 2.5 0 0 0-3.192 1.663c-.165.56-.248.841-.397.89s-.32-.08-.663-.337a5.74 5.74 0 0 1-2.292-4.595" opacity=".4"/><path fill="currentColor" fill-rule="evenodd" d="M6.23 1.16a1 1 0 0 1 1.227.703l.017.063a6.2 6.2 0 0 1 2.804.365l.125-.213a1 1 0 1 1 1.726 1.01l-.114.195q.484.391.884.878a1 1 0 0 1 .163.284 6.3 6.3 0 0 0-2.622.16 4 4 0 0 0-.263-.162 4.24 4.24 0 0 0-3.173-.406 4.15 4.15 0 0 0-2.54 1.918 4.03 4.03 0 0 0-.414 3.101q.144.526.406.975a5.8 5.8 0 0 0-1.59 1.232 6 6 0 0 1-.407-.745l-.079.021a1 1 0 1 1-.51-1.934l.066-.017a6 6 0 0 1 .364-2.73l-.205-.118a1 1 0 1 1 .99-1.737l.224.127A6.15 6.15 0 0 1 5.54 2.438l-.014-.05a1 1 0 0 1 .702-1.228m5.602 14.008a1 1 0 0 0-1.414 1.414l.293.293-.293.293a1 1 0 0 0 1.414 1.414l.293-.293.293.293a1 1 0 0 0 1.414-1.414l-.293-.293.293-.293a1 1 0 0 0-1.414-1.414l-.293.293zm-4 4a1 1 0 0 0-1.414 1.414l.293.293-.293.293a1 1 0 1 0 1.414 1.414l.293-.293.293.293a1 1 0 0 0 1.414-1.414l-.293-.293.293-.293a1 1 0 0 0-1.414-1.414l-.293.293zm8 0a1 1 0 0 0-1.414 1.414l.293.293-.293.293a1 1 0 0 0 1.414 1.414l.293-.293.293.293a1 1 0 0 0 1.414-1.414l-.293-.293.293-.293a1 1 0 0 0-1.414-1.414l-.293.293z" clip-rule="evenodd"/></svg>