<svg xmlns="http://www.w3.org/2000/svg" fill="none" viewBox="0 0 24 24"><path fill="currentColor" d="M6.064 7.093c-.05.196-.074.294-.13.352s-.155.085-.35.14a5.752 5.752 0 0 0-1.918 10.134c.342.258.513.387.663.338.149-.05.232-.33.399-.891q.062-.208.161-.409l1-2a2.5 2.5 0 0 1 4.473 0 .016.016 0 0 0 .027 0 2.5 2.5 0 0 1 4.473 0 .016.016 0 0 0 .027 0 2.5 2.5 0 0 1 4.473 2.236l-.387.774c-.233.465-.349.697-.209.85.14.152.364.062.81-.116a5.252 5.252 0 0 0-.709-9.978c-.243-.06-.365-.089-.427-.16-.063-.07-.077-.193-.104-.439a6.251 6.251 0 0 0-12.272-.831" opacity=".4"/><path fill="currentColor" fill-rule="evenodd" d="M5.969 3.125a2.85 2.85 0 0 0-2.844 2.857c0 .89.405 1.686 1.043 2.21a5.8 5.8 0 0 0-1.52 1.325 4.85 4.85 0 0 1-1.523-3.535 4.85 4.85 0 0 1 4.844-4.857c1.495 0 2.83.68 3.718 1.743a6.3 6.3 0 0 0-1.715 1.086 2.83 2.83 0 0 0-2.003-.829m3.05 13.197a1 1 0 0 0-1.788-.894l-1 2a1 1 0 1 0 1.789.894zm4.5 0a1 1 0 1 0-1.788-.894l-1 2a1 1 0 1 0 1.789.894zm4.5 0a1 1 0 1 0-1.788-.894l-1 2a1 1 0 1 0 1.789.894zm-8 4a1 1 0 1 0-1.788-.894l-1 2a1 1 0 1 0 1.789.894zm4.5 0a1 1 0 1 0-1.788-.894l-1 2a1 1 0 1 0 1.789.894z" clip-rule="evenodd"/></svg>