<svg xmlns="http://www.w3.org/2000/svg" fill="none" viewBox="0 0 24 24"><path fill="currentColor" d="M5.94 9.093c-.05.196-.075.294-.131.352s-.155.085-.35.14a5.752 5.752 0 0 0-3.331 8.595c.098.156.147.234.23.27.084.038.192.019.41-.02q.301-.053.632-.055c.916 0 1.668.332 2.149.613q.11.066.207.129c.04.026.09.029.132.003a.13.13 0 0 0 .04-.185 2.5 2.5 0 0 1 .477-3.329c.144-.112.564-.438.816-.586.477-.282 1.255-.645 2.177-.645.916 0 1.668.332 2.149.614.114.066.171.1.221.11a.3.3 0 0 0 .11 0c.05-.008.107-.04.22-.104l.044-.025c.443-.245 1.2-.595 2.056-.595.947 0 1.769.393 2.262.683.265.156.832.579.985.695.138.111.33.283.51.517.367.474.791 1.366.358 2.429-.03.073.053.155.125.12.448-.217 1.074-.444 1.764-.444.396 0 .77.069 1.107.17.235.07.353.106.449.068s.149-.126.255-.304a5.252 5.252 0 0 0-3.27-7.786c-.244-.06-.366-.089-.428-.16-.063-.07-.077-.193-.104-.439A6.251 6.251 0 0 0 5.94 9.093" opacity=".4"/><path fill="currentColor" fill-rule="evenodd" d="M6.104 1.16a1 1 0 0 1 1.228.703l.017.063a6.2 6.2 0 0 1 2.804.365l.125-.213a1 1 0 1 1 1.726 1.01l-.114.195q.484.391.884.878a1 1 0 0 1 .163.284 6.3 6.3 0 0 0-2.621.16 4 4 0 0 0-.264-.162 4.24 4.24 0 0 0-3.173-.406 4.15 4.15 0 0 0-2.54 1.918 4.03 4.03 0 0 0-.414 3.101q.144.525.407.976a5.7 5.7 0 0 0-1.59 1.232 6 6 0 0 1-.408-.746l-.079.021a1 1 0 1 1-.51-1.934l.066-.017a6 6 0 0 1 .364-2.73L1.97 5.74a1 1 0 1 1 .99-1.737l.224.127a6.15 6.15 0 0 1 2.232-1.692l-.014-.05a1 1 0 0 1 .702-1.228m3.294 16.715c-.322 0-.78.443-.78.443a1 1 0 1 1-1.24-1.57s.94-.873 2.02-.873c1.112 0 1.946.815 1.946.815s.22.185.454.185.454-.185.454-.185.996-.815 1.946-.815c1.105 0 2.177.954 2.177.954s.867.523.549 1.303a1 1 0 0 1-1.304.549 3 3 0 0 1-.715-.421s-.394-.385-.707-.385-.707.385-.707.385c-.491.388-1.072.615-1.693.615-.62 0-1.202-.227-1.693-.615 0 0-.385-.385-.707-.385m-5.998 4c-.322 0-.78.443-.78.443a1 1 0 1 1-1.24-1.57s.94-.873 2.02-.873c1.112 0 1.946.815 1.946.815s.22.185.454.185.454-.185.454-.185.996-.815 1.946-.815c1.105 0 2.177.954 2.177.954s.867.523.549 1.303a1 1 0 0 1-1.304.549 3 3 0 0 1-.715-.421s-.394-.385-.707-.385-.707.385-.707.385c-.491.388-1.072.615-1.693.615-.62 0-1.202-.227-1.693-.615 0 0-.385-.385-.707-.385m11.222.443s.458-.443.78-.443.707.385.707.385c.491.388 1.073.615 1.693.615s1.202-.227 1.693-.615c0 0 .394-.385.707-.385s.707.385.707.385q.331.262.715.42a1 1 0 0 0 1.304-.548c.318-.78-.549-1.303-.549-1.303s-1.072-.954-2.177-.954c-.95 0-1.946.815-1.946.815s-.22.185-.454.185c-.233 0-.454-.185-.454-.185s-.834-.815-1.946-.815c-1.08 0-2.02.873-2.02.873a1 1 0 1 0 1.24 1.57" clip-rule="evenodd"/></svg>