<svg xmlns="http://www.w3.org/2000/svg" fill="none" viewBox="0 0 24 24"><path fill="currentColor" d="M5.458 7.584a5.752 5.752 0 0 0-.894 10.751c.425.199.637.299.776.212.138-.086.144-.41.157-1.06.013-.702.32-1.393.899-1.875l.007-.005.007-.006c.066-.051.574-.443.81-.582.477-.281 1.254-.644 2.176-.644.916 0 1.668.332 2.149.614.114.066.171.1.221.11a.3.3 0 0 0 .11 0c.05-.008.107-.04.22-.104l.044-.025c.443-.245 1.2-.595 2.056-.595.947 0 1.769.393 2.262.683.249.146.898.63.977.69l.009.006.007.006c.138.11.325.28.502.51.258.333.518.932.499 1.628-.013.473-.019.71.108.803.128.093.292.035.621-.08q.226-.079.45-.197a5.251 5.251 0 0 0-.889-9.901c-.243-.06-.365-.089-.427-.16-.063-.07-.077-.193-.104-.439A6.251 6.251 0 0 0 5.94 7.093c-.05.196-.074.294-.13.352s-.155.085-.35.14" opacity=".4"/><path fill="currentColor" fill-rule="evenodd" d="M5.844 3.125A2.85 2.85 0 0 0 3 5.982c0 .891.406 1.687 1.044 2.212a5.8 5.8 0 0 0-1.52 1.324A4.85 4.85 0 0 1 1 5.982a4.85 4.85 0 0 1 4.844-4.857 4.83 4.83 0 0 1 3.718 1.744 6.3 6.3 0 0 0-1.714 1.086 2.83 2.83 0 0 0-2.004-.83m3.554 14.75c-.322 0-.78.443-.78.443a1 1 0 1 1-1.24-1.57s.94-.873 2.02-.873c1.112 0 1.946.815 1.946.815s.22.185.454.185.454-.185.454-.185.996-.815 1.946-.815c1.105 0 2.177.954 2.177.954s.867.523.549 1.303a1 1 0 0 1-1.304.549 3 3 0 0 1-.715-.421s-.394-.385-.707-.385-.707.385-.707.385c-.491.388-1.072.615-1.693.615-.62 0-1.202-.227-1.693-.615 0 0-.385-.385-.707-.385m-5.998 4c-.322 0-.78.443-.78.443a1 1 0 1 1-1.24-1.57s.94-.873 2.02-.873c1.112 0 1.946.815 1.946.815s.22.185.454.185.454-.185.454-.185.996-.815 1.946-.815c1.105 0 2.177.954 2.177.954s.867.523.549 1.303a1 1 0 0 1-1.304.549 3 3 0 0 1-.715-.421s-.394-.385-.707-.385-.707.385-.707.385c-.491.388-1.072.615-1.693.615-.62 0-1.202-.227-1.693-.615 0 0-.385-.385-.707-.385m11.222.443s.458-.443.78-.443.707.385.707.385c.491.388 1.073.615 1.693.615s1.202-.227 1.693-.615c0 0 .394-.385.707-.385s.707.385.707.385q.331.262.715.42a1 1 0 0 0 1.304-.548c.318-.78-.549-1.303-.549-1.303s-1.072-.954-2.177-.954c-.95 0-1.946.815-1.946.815s-.22.185-.454.185c-.233 0-.454-.185-.454-.185s-.834-.815-1.946-.815c-1.08 0-2.02.873-2.02.873a1 1 0 1 0 1.24 1.57" clip-rule="evenodd"/></svg>