<svg xmlns="http://www.w3.org/2000/svg" fill="none" viewBox="0 0 24 24"><path fill="currentColor" d="M10.39 11.236a.425.425 0 0 0 .43-.421v-3.05c0-.155 0-.232.059-.312.06-.08.114-.096.225-.13.153-.045.307-.067.394-.073.64 0 1.23.22 1.698.587.09.07.135.106.165.168s.03.127.03.258v2.552c0 .233.192.421.428.421a.425.425 0 0 0 .429-.421V8.85c0-.29 0-.434.1-.524s.233-.074.499-.044c.86.099 1.42.415 1.831.85.066.07.099.105.12.158a.6.6 0 0 1 .021.217v2.431c0 .233.192.422.429.422a.425.425 0 0 0 .428-.422v-1.902c0-.292 0-.438.113-.528.111-.09.235-.063.483-.009 1.198.263 1.976 1.31 1.976 2.501v2.693c0 1.064 0 1.9-.043 2.574-.044.687-.134 1.26-.338 1.793a5.74 5.74 0 0 1-3.298 3.308c-.532.205-1.104.295-1.789.339-.673.043-1.506.043-2.567.043-1.047 0-1.811 0-2.42-.134a5.7 5.7 0 0 1-2.512-1.26c-.472-.408-.859-.925-1.487-1.766l-3.268-4.51a1.5 1.5 0 0 1-.144-.246 2.5 2.5 0 0 1-.132-.69c.016-.3.125-.598.327-.846a1.513 1.513 0 0 1 2.23-.122l1.852 1.826c.122.12.307.157.467.091a.42.42 0 0 0 .265-.389V3.536a1.286 1.286 0 1 1 2.571 0v7.279c0 .233.192.421.429.421" opacity=".4"/><path fill="currentColor" d="M20.748 3.494a1 1 0 1 1 0 2h-2.5v.594c0 .176 0 .392-.022.568v.003c-.016.127-.088.703-.653.977-.567.275-1.067-.027-1.175-.092l-.469-.34c-.376-.294-.89-.7-1.281-1.08a4.4 4.4 0 0 1-.556-.638c-.14-.205-.344-.555-.344-.986s.203-.78.345-.986c.158-.231.36-.448.555-.638.39-.38.905-.786 1.281-1.08l.469-.34c.108-.065.608-.367 1.175-.092.565.274.637.85.653.977v.003c.022.176.022.392.022.568v.582z"/></svg>