<svg xmlns="http://www.w3.org/2000/svg" fill="none" viewBox="0 0 24 24"><path fill="currentColor" d="M4.48 10.723c.5-.463.976-.855 1.27-1.089V3.75a2.5 2.5 0 0 1 5 0v4.998c1.864.063 4.569.638 6.603 2.685.936.942.991 2.32.82 3.46-.175 1.177-.626 2.343-.998 3.12a47 47 0 0 1-.703 1.31c-.216.433-.33.777-.33 1.059 0 .265 0 .536-.017.74a1.8 1.8 0 0 1-.185.695 1.75 1.75 0 0 1-.732.73 1.8 1.8 0 0 1-.695.186c-.203.017-.447.017-.712.017H7.495a1.745 1.745 0 0 1-1.745-1.745c0-.086-.046-.283-.212-.61a9 9 0 0 0-.629-1.012c-.223-.32-.46-.634-.682-.93a25 25 0 0 1-.876-1.268c-.269-.43-.588-.942-.803-1.465-.281-.681-.436-1.486-.133-2.358.17-.488.512-.976.868-1.4.366-.438.795-.867 1.198-1.239" opacity=".4"/><path fill="currentColor" d="M19.506 2.25a1 1 0 0 0-2 0v2.5h-.594c-.176 0-.392 0-.568.022h-.004c-.126.016-.702.088-.976.653-.275.567.027 1.067.092 1.176l.34.468c.294.376.7.89 1.08 1.281.19.195.407.397.638.556.205.14.555.344.986.344s.78-.203.986-.344c.231-.16.448-.36.638-.556.38-.39.786-.905 1.08-1.28l.34-.47c.065-.108.367-.608.092-1.175-.274-.565-.85-.637-.976-.653h-.004a5 5 0 0 0-.568-.022h-.582z"/></svg>