<svg xmlns="http://www.w3.org/2000/svg" fill="none" viewBox="0 0 24 24"><path fill="currentColor" d="M7.25 3.75a2.5 2.5 0 0 1 5 0v4.998c1.864.063 4.569.638 6.603 2.685.936.942.991 2.32.82 3.46-.175 1.177-.626 2.343-.998 3.12a68 68 0 0 0-.703 1.31c-.216.433-.33.777-.33 1.059 0 .265 0 .536-.017.74a1.8 1.8 0 0 1-.185.695 1.75 1.75 0 0 1-.732.73 1.8 1.8 0 0 1-.695.186c-.203.017-.447.017-.712.017H9.716c-.307 0-.59 0-.827-.023-.256-.026-.72-.127-.981-.389-.27-.227-.42-.56-.526-.832a19 19 0 0 1-.377-1.14c-.11-.308-.345-.698-.944-1.49l-3.278-4.33a2.53 2.53 0 0 1-.006-3.1 2.4 2.4 0 0 1 3.503-.337l.97 1.015z" opacity=".4"/><path fill="currentColor" d="M19.506 2.25a1 1 0 0 0-2 0v2.5h-.594c-.176 0-.392 0-.568.022h-.004c-.126.016-.702.088-.976.653-.275.567.027 1.067.092 1.176l.34.468c.294.376.7.89 1.08 1.281.19.195.407.397.638.556.205.14.555.344.986.344s.78-.203.986-.344c.231-.16.448-.36.638-.556.38-.39.786-.905 1.08-1.28l.34-.47c.065-.108.367-.608.092-1.175-.274-.565-.85-.637-.976-.653h-.004a5 5 0 0 0-.568-.022h-.582z"/></svg>