<svg xmlns="http://www.w3.org/2000/svg" fill="none" viewBox="0 0 24 24"><path fill="currentColor" d="M4.356 10.723c.5-.463.975-.855 1.269-1.089V3.75a2.5 2.5 0 0 1 5 0v4.998c1.864.063 4.569.638 6.603 2.685.936.942.991 2.32.82 3.46-.175 1.177-.626 2.343-.998 3.12a47 47 0 0 1-.703 1.31c-.216.433-.33.777-.33 1.059 0 .265 0 .536-.017.74a1.8 1.8 0 0 1-.185.695 1.75 1.75 0 0 1-.732.73 1.8 1.8 0 0 1-.695.186c-.203.017-.447.017-.712.017H7.37a1.745 1.745 0 0 1-1.745-1.745c0-.086-.046-.283-.212-.61a9 9 0 0 0-.629-1.012c-.223-.32-.46-.634-.682-.93a25 25 0 0 1-.876-1.268c-.269-.43-.588-.942-.803-1.465-.281-.681-.436-1.486-.133-2.358.17-.488.512-.976.868-1.4.366-.438.795-.867 1.198-1.239" opacity=".4"/><path fill="currentColor" d="M20.875 5.506a1 1 0 1 0 0-2h-2.5v-.594c0-.176 0-.392-.022-.568V2.34c-.016-.127-.088-.703-.653-.977-.567-.275-1.067.027-1.176.092l-.468.34c-.376.294-.89.7-1.281 1.08-.196.19-.397.407-.556.638-.14.205-.344.555-.344.986s.203.78.344.986c.16.231.36.448.556.638.39.38.905.786 1.28 1.08l.47.34c.108.065.608.367 1.175.092.565-.274.637-.85.653-.977v-.003c.022-.176.022-.392.022-.568v-.582z"/></svg>