<svg xmlns="http://www.w3.org/2000/svg" fill="none" viewBox="0 0 24 24"><path fill="currentColor" d="M5.666 10.718V4.75a2.5 2.5 0 1 1 5 0v4.607l2.438.379h.004l.023.004c.942.141 1.685.253 2.276.381.6.13 1.102.29 1.544.554 1.277.765 2.299 1.988 2.299 3.799 0 1.087-.262 1.87-.777 3.408-.354 1.063-.751 2.254-1.131 2.807a4.75 4.75 0 0 1-2.603 1.876c-.645.185-1.363.185-2.483.185h-1.702c-1.615 0-2.657 0-3.569-.398a4.8 4.8 0 0 1-1.139-.704c-.764-.637-1.23-1.569-1.952-3.014-.312-.624-.657-1.316-.833-1.752-.182-.453-.3-.876-.31-1.334a3.8 3.8 0 0 1 .144-1.12c.126-.44.346-.82.637-1.213.28-.377.654-.805 1.113-1.33z" opacity=".4"/><path fill="currentColor" d="M19.006 8.25a1 1 0 0 1-2 0v-2.5h-.594c-.176 0-.392 0-.568-.022h-.003c-.127-.016-.703-.088-.977-.653-.275-.567.027-1.067.092-1.176l.34-.468c.294-.376.7-.89 1.08-1.281.19-.195.407-.397.638-.556.205-.14.555-.344.986-.344s.78.203.986.344c.231.16.448.36.638.556.38.39.786.905 1.08 1.281l.34.468c.065.109.367.609.092 1.176-.274.565-.85.637-.976.653h-.004c-.176.022-.392.022-.568.022h-.582z"/></svg>