<svg xmlns="http://www.w3.org/2000/svg" fill="none" viewBox="0 0 24 24"><path fill="currentColor" fill-rule="evenodd" d="M11.162 9.213c-.088-.088-.23-.088-.512-.088H6.396c-1.006 0-1.83 0-2.48.079-.675.081-1.277.258-1.767.7-.501.45-.713 1.022-.81 1.666-.09.6-.089 1.354-.089 2.248v2.114c0 .894 0 1.648.09 2.248.096.644.308 1.216.81 1.667.489.44 1.091.618 1.766.7.65.078 1.474.078 2.48.078h4.254c.283 0 .424 0 .512-.088s.088-.23.088-.512v-10.3c0-.283 0-.424-.088-.512m1.676 0c-.088.088-.088.23-.088.512v10.3c0 .283 0 .424.088.512s.23.088.512.088h4.254c1.006 0 1.83 0 2.48-.079.675-.081 1.277-.258 1.767-.7.501-.45.713-1.022.81-1.666.09-.6.089-1.354.089-2.248v-2.114c0-.894 0-1.648-.09-2.248-.096-.644-.308-1.216-.81-1.667-.489-.44-1.091-.618-1.766-.7-.65-.078-1.474-.078-2.48-.078H13.35c-.283 0-.424 0-.512.088M11.75 6.557c.205-.05.444-.144.644-.34.465-.459.378-1.092.268-1.52-.533-2.06-2.423-3.572-4.662-3.572-2.24 0-4.13 1.512-4.663 3.572-.11.428-.196 1.061.268 1.52.213.209.47.303.684.35s.445.058.665.058h6.16c.155-.006.5-.027.636-.068" clip-rule="evenodd" opacity=".4"/><path fill="currentColor" fill-rule="evenodd" d="M4 20.555c.547.06 1.212.068 2 .069v1.25a1 1 0 1 1-2 0zm16 0v1.319a1 1 0 1 1-2 0v-1.25c.788-.001 1.453-.01 2-.069m-13.75-5.68a.75.75 0 0 1 .75-.75h1a.75.75 0 0 1 0 1.5H7a.75.75 0 0 1-.75-.75m9 0a.75.75 0 0 1 .75-.75h1a.75.75 0 0 1 0 1.5h-1a.75.75 0 0 1-.75-.75m-5-8.248v.75a.75.75 0 0 0 1.5 0v-.818c-.136.04-.48.062-.636.068zM7 9.125h2v-2.5H7z" clip-rule="evenodd"/></svg>