<svg xmlns="http://www.w3.org/2000/svg" fill="none" viewBox="0 0 24 24"><path fill="currentColor" d="M13.814 6.555c.378-.182.756-.305 1.186-.305s.808.123 1.186.305c.354.17.758.418 1.233.71l1.06.65c.45.276.832.51 1.131.737.32.241.589.506.786.863.198.356.28.726.318 1.127.036.377.036.832.036 1.368v5.95c0 .921 0 1.685-.08 2.291-.084.637-.267 1.212-.72 1.674-.454.465-1.023.656-1.653.743-.596.082-1.346.082-2.244.082h-2.106c-.898 0-1.648 0-2.244-.082-.63-.087-1.199-.278-1.654-.743-.452-.462-.636-1.037-.72-1.674-.08-.606-.08-1.37-.08-2.29v-5.95c0-.537 0-.992.037-1.37.038-.4.12-.77.317-1.126.198-.357.468-.622.787-.863.299-.227.681-.461 1.13-.737l1.06-.65c.476-.292.88-.54 1.234-.71" opacity=".4"/><path fill="currentColor" fill-rule="evenodd" d="M13.814 6.555q.21-.101.42-.174c-.503-.478-.997-.886-1.649-1.052a2.8 2.8 0 0 0-1.03-.057c.384-.762.926-1.352 1.492-1.714.654-.417 1.264-.49 1.725-.325.447.161.819.57.992 1.248.176.682.126 1.58-.259 2.51-.371.9-.96 1.598-1.589 2.018a.953.953 0 0 0-.263 1.317.94.94 0 0 0 1.31.265c.96-.643 1.782-1.65 2.287-2.871.52-1.26.634-2.58.343-3.714-.292-1.137-1.017-2.142-2.185-2.562-1.155-.415-2.375-.127-3.372.51-1.003.64-1.861 1.672-2.382 2.932a7 7 0 0 0-.304.912l-.638.173c-.5.136-.937.254-1.292.387-.38.142-.739.326-1.053.629-.317.306-.511.657-.66 1.035-.137.345-.256.767-.39 1.24L3.8 14.636c-.23.81-.429 1.517-.509 2.104-.086.635-.056 1.28.314 1.886.18.296.445.537.691.725.26.196.563.38.881.547.638.332 1.401.626 2.147.82a.957.957 0 0 0 1.167-.695.97.97 0 0 0-.688-1.18 8.7 8.7 0 0 1-1.747-.667 4.4 4.4 0 0 1-.61-.375c-.15-.115-.203-.183-.21-.19-.045-.076-.1-.206-.046-.608.06-.433.218-1.005.47-1.9l1.49-5.268c.149-.526.242-.852.338-1.094.087-.22.15-.301.203-.352.056-.055.15-.122.395-.214.262-.098.612-.194 1.162-.343l1.125-.305c.581-.158.953-.257 1.246-.307.274-.047.405-.036.5-.012.083.021.17.058.303.155l.16-.098c.475-.292.879-.54 1.233-.71" clip-rule="evenodd"/></svg>