<svg xmlns="http://www.w3.org/2000/svg" fill="none" viewBox="0 0 24 24"><path fill="currentColor" d="M10.809 11.315a.43.43 0 0 1-.434.426.43.43 0 0 1-.435-.426V5.178a1.303 1.303 0 0 0-2.605 0v9.445a.43.43 0 0 1-.434.425.43.43 0 0 1-.434-.425v-3.187c0-.099 0-.148-.006-.177a.3.3 0 0 0-.456-.194c-.025.016-.06.05-.132.119-.502.553-.97 1.068-1.272 1.472-.326.437-.567.869-.671 1.377-.06.29-.08.586-.063.88.031.519.21.98.471 1.457.251.458.61.985 1.048 1.628l1.858 2.325c.15.186.23.417.23.655 0 .107 0 .247.012.35a1.75 1.75 0 0 0 1.536 1.535c.102.012.214.012.321.012h7.54a1.61 1.61 0 0 0 1.609-1.61c0-.316.166-.67.49-1.02a5.2 5.2 0 0 0 1.071-1.764c.309-.853.309-1.884.308-3.532v-2.324a2.25 2.25 0 0 0-2.25-2.25c-.067 0-.101 0-.146.014a.33.33 0 0 0-.195.195c-.014.045-.014.088-.014.176v2.332a.43.43 0 0 1-.434.425.43.43 0 0 1-.434-.425V10.45c0-.105 0-.158-.021-.211a.5.5 0 0 0-.113-.151 2.24 2.24 0 0 0-2.08-.67c-.17.033-.255.05-.323.133s-.068.185-.068.39v2.583a.43.43 0 0 1-.435.426.43.43 0 0 1-.434-.425V9.1c0-.157 0-.235-.043-.307-.044-.072-.103-.102-.22-.164a2.24 2.24 0 0 0-1.04-.254c-.225.007-.697.07-1.067.262-.099.051-.148.077-.192.149-.043.071-.043.143-.043.286z" opacity=".4"/><path fill="currentColor" fill-rule="evenodd" d="M8.639 3.125a3 3 0 0 0-3 3 1 1 0 1 1-2 0 5 5 0 0 1 10 0 1 1 0 1 1-2 0 3 3 0 0 0-3-3" clip-rule="evenodd"/></svg>