<svg xmlns="http://www.w3.org/2000/svg" fill="none" viewBox="0 0 24 24"><path fill="currentColor" d="M8.147 11.566V6.612c0-1.216.965-2.237 2.198-2.237s2.198 1.02 2.198 2.238v4.14c1.562.076 3.765.593 5.434 2.318.812.84.851 2.052.709 3.027-.148 1.013-.524 2.014-.835 2.68-.09.194-.199.393-.298.575s-.201.37-.284.54c-.177.364-.264.64-.264.857.001.273.002.63-.075.883a1.75 1.75 0 0 1-1.166 1.166c-.253.077-.539.077-.812.076h-5.21a1.596 1.596 0 0 1-1.595-1.596c0-.05-.03-.201-.166-.474a7 7 0 0 0-.512-.848c-.184-.27-.378-.535-.562-.787-.193-.264-.604-.87-.73-1.082-.221-.366-.491-.81-.673-1.265-.238-.593-.373-1.3-.112-2.071.146-.433.44-.86.737-1.225.307-.377.666-.745 1.001-1.063.394-.375.77-.695 1.017-.898" opacity=".4"/><path fill="currentColor" fill-rule="evenodd" d="M10.346 3.125a3 3 0 0 0-3 3 1 1 0 1 1-2 0 5 5 0 0 1 10 0 1 1 0 1 1-2 0 3 3 0 0 0-3-3" clip-rule="evenodd"/></svg>