<svg xmlns="http://www.w3.org/2000/svg" fill="none" viewBox="0 0 24 24"><path fill="currentColor" d="M8.486 15.066V6.02a1.145 1.145 0 0 1 2.29 0v5.491c0 .238.194.43.433.43.24 0 .435-.192.435-.43V8.975c0-.204 0-.306.053-.383l.016-.021c.06-.072.158-.1.354-.155a1.7 1.7 0 0 1 .757.002c.326.077.63.216.896.405.097.069.146.103.18.168.033.065.033.134.033.271v2.25c0 .237.194.43.434.43s.434-.193.434-.43V9.85c0-.29 0-.435.111-.525.11-.09.235-.064.485-.013.615.127 1.205.441 1.58.882a.5.5 0 0 1 .096.141c.018.05.018.099.018.195v2.008c0 .237.194.43.434.43s.434-.193.434-.43v-1.592c0-.292 0-.438.121-.528s.238-.055.471.014c1.015.304 1.698 1.363 1.698 2.42v2.238c0 .95 0 1.7-.04 2.306-.04.62-.122 1.142-.312 1.63a5.25 5.25 0 0 1-3.04 3.003c-.491.186-1.018.268-1.643.307-.614.039-1.372.039-2.335.039-.947 0-1.655 0-2.215-.121a5.3 5.3 0 0 1-2.31-1.141c-.437-.37-.793-.84-1.36-1.587l-2.978-4.118a1.3 1.3 0 0 1-.208-.398 2.3 2.3 0 0 1-.058-.438c.011-.27.109-.538.291-.76a1.365 1.365 0 0 1 2-.109l1.705 1.67a.44.44 0 0 0 .473.09.43.43 0 0 0 .267-.397" opacity=".4"/><path fill="currentColor" fill-rule="evenodd" d="M9.63 3.625a3 3 0 0 0-3 3 1 1 0 0 1-2 0 5 5 0 0 1 10 0 1 1 0 0 1-2 0 3 3 0 0 0-3-3" clip-rule="evenodd"/></svg>