<svg xmlns="http://www.w3.org/2000/svg" fill="none" viewBox="0 0 24 24"><path fill="currentColor" d="M5.125 2.876a.147.147 0 0 0-.164-.148c-.9.124-1.647.39-2.238.98-.602.603-.86 1.361-.981 2.262-.117.867-.117 1.97-.117 3.34v6.615c0 1.37 0 2.473.117 3.34.12.901.38 1.66.981 2.262.602.602 1.36.861 2.26.982.867.117 1.97.117 3.337.117h5.11q.702.001 1.313-.005c.296-.003.444-.005.527-.075a.3.3 0 0 0 .035-.036c.07-.083.07-.267.07-.634v-.4c0-.283 0-.424-.088-.512s-.23-.088-.512-.088h-.4a2.5 2.5 0 0 1 0-5h.4c.283 0 .424 0 .512-.088s.088-.23.088-.512v-.4a2.5 2.5 0 0 1 4.243-1.792c.257.25.385.374.446.348s.061-.19.061-.516V9.31c0-1.37 0-2.473-.116-3.34-.122-.901-.38-1.66-.982-2.262-.59-.59-1.338-.856-2.238-.98a.147.147 0 0 0-.164.148 3 3 0 0 1-3 3h-5.5a3 3 0 0 1-3-3" opacity=".4"/><path fill="currentColor" fill-rule="evenodd" d="M6.375 2.875c0-.966.784-1.75 1.75-1.75h5.5a1.75 1.75 0 1 1 0 3.5h-5.5a1.75 1.75 0 0 1-1.75-1.75m-.25 8a.75.75 0 0 1 .75-.75h8a.75.75 0 0 1 0 1.5h-8a.75.75 0 0 1-.75-.75m0 5a.75.75 0 0 1 .75-.75h4a.75.75 0 0 1 0 1.5h-4a.75.75 0 0 1-.75-.75m12.75-1a1 1 0 1 0-2 0v2.5h-2.5a1 1 0 1 0 0 2h2.5v2.5a1 1 0 1 0 2 0v-2.5h2.5a1 1 0 1 0 0-2h-2.5z" clip-rule="evenodd"/></svg>