<svg xmlns="http://www.w3.org/2000/svg" fill="none" viewBox="0 0 24 24"><path fill="currentColor" d="M3.062 7.964c.416-.068.909-.089 1.472-.089h10.682c.564 0 1.056.021 1.472.089.414.068.813.19 1.145.438.719.536.807 1.402.79 2.237-.073 3.868-.568 7.874-4.237 10.695-.549.422-1.08.693-1.683.85-.587.154-1.207.191-1.909.191H8.956c-.701 0-1.322-.037-1.909-.19-.602-.158-1.134-.429-1.683-.851-3.67-2.821-4.164-6.827-4.237-10.695-.016-.835.071-1.701.79-2.237.332-.248.731-.37 1.145-.438" opacity=".4"/><path fill="currentColor" fill-rule="evenodd" d="M17.864 16.347a10.5 10.5 0 0 1-1.027 2.278q.105.003.212-.015c2.173-.384 3.648-1.303 4.574-2.534.91-1.212 1.208-2.615 1.25-3.833.025-.762-.105-1.639-.931-2.164-.35-.223-.748-.326-1.126-.381a9 9 0 0 0-1.3-.073h-.96c.063.327.074.673.067 1.014q-.009.492-.029.986h.921c.448 0 .772.017 1.011.052a.4.4 0 0 1 .35.405l-.003.093c-.032.965-.265 1.922-.849 2.699-.43.572-1.098 1.11-2.16 1.473m-7.239-8.472v5.142c.603.234 1.084.748 1.193 1.436l.292 1.852c.055.35-.05.67-.251.916a1.6 1.6 0 0 1-.628.44c-.413.167-.916.222-1.364.213-.451-.009-.945-.084-1.345-.25a1.7 1.7 0 0 1-.606-.41 1.1 1.1 0 0 1-.277-.91l.292-1.85c.108-.69.59-1.204 1.194-1.438V7.875zm-1.213 6.812c.02-.126.171-.312.462-.312.29 0 .442.186.462.312l.254 1.61a2.4 2.4 0 0 1-.694.077 2.6 2.6 0 0 1-.732-.11zm-1.296-9.85a1 1 0 0 0-1.38-1.445h-.002c-.212.176-.369.447-.47.633a3.36 3.36 0 0 0-.389 1.6 1 1 0 0 0 2 0c0-.313.083-.526.15-.65a1 1 0 0 1 .083-.127zM12.034 2.1a1 1 0 0 1-.324 1.376c-.061.038-.28.24-.49.66a3.4 3.4 0 0 0-.344 1.49 1 1 0 1 1-2 0c0-.918.233-1.735.554-2.38.308-.62.742-1.17 1.227-1.47a1 1 0 0 1 1.377.324m2.692 1.5a1 1 0 0 1-.18 1.269q-.028.06-.069.182a2.2 2.2 0 0 0-.102.575 1 1 0 1 1-2 0c0-.372.08-.807.194-1.172.058-.187.135-.388.236-.572.085-.156.253-.425.545-.606a1 1 0 0 1 1.376.324" clip-rule="evenodd"/></svg>