<svg xmlns="http://www.w3.org/2000/svg" fill="none" viewBox="0 0 24 24"><path fill="currentColor" fill-rule="evenodd" d="M18 1.301c-.421-.113-.802-.022-1.13.114-.299.123-.639.32-1.009.535l-.039.023L12.4 3.959l-.039.022c-.37.215-.71.412-.965.61-.282.219-.549.503-.66.923a1.5 1.5 0 0 0-.05.316l-2.99 1.734-.047.028c-.362.21-.716.415-.985.624-.304.235-.617.562-.748 1.055-.132.494-.023.933.122 1.288q.042.104.094.211l-.019.01.417.726.05.088.028.047.494.86.027.047.05.087.417.726.019-.01q.067.098.134.186c.234.305.56.621 1.054.754.495.134.935.023 1.29-.123.315-.13.668-.335 1.03-.546l.048-.027 3.004-1.743q.12.058.26.096c.42.114.8.023 1.13-.113.298-.123.638-.32 1.008-.536l.038-.022 3.424-1.986.039-.023c.37-.214.71-.412.965-.61.282-.218.549-.502.66-.922.113-.42.023-.8-.112-1.13-.122-.299-.319-.64-.532-1.012l-.023-.039-1.482-2.58-.022-.039c-.214-.372-.41-.714-.607-.97-.217-.282-.5-.551-.92-.665m-5.11 8.984-.006-.01-1.469-2.557L8.7 9.294c-.428.249-.66.386-.81.502l-.002.002.001.004c.072.176.206.413.453.843l.494.86c.246.428.383.662.498.812.174-.072.408-.206.833-.452z" clip-rule="evenodd" opacity=".4"/><path fill="currentColor" fill-rule="evenodd" d="M6.037 10.557a2.5 2.5 0 0 1-.155-.526l-2.336 1.356-.02.01a9 9 0 0 0-.487.297c-.147.099-.301.22-.43.39-.28.367-.404.83-.344 1.287.028.212.1.394.178.553.072.148.17.317.275.502l.022.037c.106.184.203.354.295.49.098.147.218.302.388.433.366.282.829.407 1.287.346.212-.028.394-.102.553-.18.147-.072.316-.17.499-.276l2.342-1.36a2.5 2.5 0 0 1-.356-.381 4 4 0 0 1-.134-.187l-.02.01-.416-.726-.05-.086-.027-.048-.494-.86-.027-.047-.05-.087-.418-.726.02-.01a4 4 0 0 1-.095-.211m5.086 3.06c-.324.188-.64.371-.927.5l-3.59 7.18a1 1 0 0 0 1.789.895L12 14.981l3.606 7.211a1 1 0 0 0 1.789-.894l-4.387-8.775-1.838 1.067z" clip-rule="evenodd"/></svg>