<svg xmlns="http://www.w3.org/2000/svg" fill="none" viewBox="0 0 24 24"><path fill="currentColor" fill-rule="evenodd" d="m5.163 13-2.219 6.33a1 1 0 0 1-1.887-.66l2.919-8.327c.65-1.853 1.169-3.336 1.668-4.348.254-.514.539-.986.89-1.34C6.903 4.281 7.391 4 8 4s1.097.281 1.467.655c.35.354.636.826.89 1.34.498 1.012 1.018 2.495 1.668 4.348l2.919 8.326a1 1 0 0 1-1.887.662L10.837 13zm.702-2c.667-1.902 1.14-3.243 1.573-4.12.22-.445.39-.691.515-.817L8 6.02q.019.015.047.043c.125.126.296.372.515.816.433.878.907 2.219 1.574 4.121zM8.04 5.992l-.008.003zm-.074.003-.007-.003z" clip-rule="evenodd"/><path fill="currentColor" fill-rule="evenodd" d="M18.924 9h.152c.39 0 .697 0 .971.043a3.5 3.5 0 0 1 2.91 2.91c.043.274.043.581.043.971V18.5a1 1 0 0 1-1.782.623A4.4 4.4 0 0 1 18.57 20C16.676 20 15 18.515 15 16.5a3.5 3.5 0 0 1 3.5-3.5H21c0-.503-.003-.638-.018-.735a1.5 1.5 0 0 0-1.247-1.247C19.638 11.003 19.503 11 19 11s-.638.003-.735.018a1.5 1.5 0 0 0-1.14.882 1 1 0 1 1-1.833-.8 3.5 3.5 0 0 1 2.66-2.057C18.228 9 18.535 9 18.925 9M21 15h-2.5a1.5 1.5 0 0 0-1.5 1.5c0 .822.69 1.5 1.571 1.5A2.43 2.43 0 0 0 21 15.573z" clip-rule="evenodd" opacity=".4"/></svg>