<svg xmlns="http://www.w3.org/2000/svg" fill="none" viewBox="0 0 24 24"><path fill="currentColor" fill-rule="evenodd" d="M3.516 4.343A28 28 0 0 1 5 4.173v9.952h-.5a1 1 0 1 0 0 2h3a1 1 0 1 0 0-2H7V4.173a28 28 0 0 1 1.816.22.4.4 0 0 1 .054.068.8.8 0 0 1 .106.26c.019.085.024.2.024.737a1 1 0 0 0 2 0v-.085c0-.404 0-.75-.068-1.072-.14-.648-.528-1.318-1.16-1.668-.321-.178-.675-.226-.941-.262l-.071-.01c-.818-.113-1.894-.236-2.76-.236s-1.941.123-2.76.237l-.07.01c-.266.035-.62.083-.943.261-.631.35-1.02 1.02-1.159 1.668C1 4.622 1 4.97 1 5.373v.085a1 1 0 1 0 2 0c0-.536.006-.652.024-.736a.8.8 0 0 1 .106-.26.4.4 0 0 1 .054-.068zm12 0A28 28 0 0 1 17 4.173v9.952h-.5a1 1 0 1 0 0 2h3a1 1 0 1 0 0-2H19V4.173a28 28 0 0 1 1.816.22.4.4 0 0 1 .054.068.8.8 0 0 1 .106.26c.019.085.024.2.024.737a1 1 0 1 0 2 0v-.085c0-.404 0-.75-.068-1.072-.14-.648-.528-1.318-1.16-1.668-.321-.178-.675-.226-.941-.262l-.071-.01c-.819-.113-1.894-.236-2.76-.236s-1.941.123-2.76.237l-.07.01c-.267.035-.62.083-.943.261-.631.35-1.02 1.02-1.158 1.668-.07.321-.07.668-.069 1.072v.085a1 1 0 1 0 2 0c0-.536.006-.652.024-.736a.8.8 0 0 1 .106-.26.4.4 0 0 1 .054-.068l.119-.02c.058-.01.125-.02.213-.031" clip-rule="evenodd" opacity=".4"/><path fill="currentColor" fill-rule="evenodd" d="M9.437 20.125H2a1 1 0 1 1 0-2h7.437a2.751 2.751 0 0 1 5.126 0H22a1 1 0 1 1 0 2h-7.437a2.751 2.751 0 0 1-5.126 0" clip-rule="evenodd"/></svg>