<svg xmlns="http://www.w3.org/2000/svg" fill="none" viewBox="0 0 24 24"><path fill="currentColor" d="M19.283 16.303a1 1 0 0 1 1.414-.02c.054.053.18.154.404.33l.048.038c.193.152.426.335.65.523.237.202.498.439.707.684.104.123.216.272.306.44.086.16.188.404.188.702s-.102.543-.188.703c-.09.167-.202.316-.306.439-.21.245-.47.482-.708.684-.223.188-.456.371-.649.523l-.048.038c-.224.176-.35.277-.404.33A1 1 0 0 1 19 21.002V20.6c0-.283 0-.424-.088-.512S18.682 20 18.4 20H5.6c-.283 0-.424 0-.512.088S5 20.318 5 20.6v.399a1 1 0 0 1-1.697.718 7 7 0 0 0-.404-.33l-.048-.038a22 22 0 0 1-.65-.523 6 6 0 0 1-.707-.684 2.5 2.5 0 0 1-.306-.44A1.5 1.5 0 0 1 1 19c0-.298.102-.543.188-.703.09-.167.202-.316.306-.439.21-.245.47-.482.708-.684.223-.188.456-.371.649-.523l.048-.038c.224-.176.35-.277.404-.33A1 1 0 0 1 5 16.999v.401c0 .283 0 .424.088.512s.23.088.512.088h12.8c.283 0 .424 0 .512-.088s.088-.23.088-.512v-.401c0-.251.094-.502.283-.696"/><path fill="currentColor" fill-rule="evenodd" d="M6.473 15h.054c.095 0 .247 0 .397-.026.558-.099 1-.464 1.242-.928.065-.124.112-.26.147-.36l.01-.03 3.62-10.325a1 1 0 1 0-1.886-.662L6.5 12.81 2.944 2.669a1 1 0 0 0-1.887.662l3.62 10.325.01.03c.036.1.083.236.148.36.242.464.683.83 1.241.928.15.027.303.026.397.026m11-13h.054c.095 0 .247 0 .397.026.558.099 1 .464 1.242.928.065.124.112.26.147.36l.01.03 3.62 10.325a1 1 0 1 1-1.886.662l-1.694-4.83h-3.725l-1.694 4.83a1 1 0 1 1-1.887-.662l3.62-10.325.01-.03c.036-.1.083-.236.148-.36a1.75 1.75 0 0 1 1.241-.928c.15-.027.303-.026.397-.026m1.188 5.5-1.16-3.311L16.338 7.5z" clip-rule="evenodd" opacity=".4"/></svg>