<svg xmlns="http://www.w3.org/2000/svg" fill="none" viewBox="0 0 24 24"><path fill="currentColor" fill-rule="evenodd" d="M5 17.25c-.82 0-1.67.072-2.206.64-.255.27-.383.595-.453.931s-.091.73-.091 1.179v2.115c0 .35.336.635.75.635h16c.414 0 .75-.284.75-.635V20c0-.448-.021-.843-.091-1.179s-.197-.661-.453-.931c-.536-.568-1.387-.64-2.206-.64zM21.25 5.977a.75.75 0 1 0-1.5.046l.476 15.227h1.5zm-3.716-.726a.75.75 0 0 1 .715.783l-.181 3.993a.75.75 0 1 1-1.499-.068l.182-3.993a.75.75 0 0 1 .783-.715" clip-rule="evenodd" opacity=".4"/><path fill="currentColor" fill-rule="evenodd" d="M2 21.25a.75.75 0 0 0 0 1.5h20a.75.75 0 0 0 0-1.5zm17-20a.75.75 0 0 1 .626.336c.103.157.327.37.64.655.275.25.62.566.898.926.294.382.56.873.584 1.475.024.612-.205 1.217-.667 1.816a.75.75 0 0 1-.593.292h-2.976a.75.75 0 0 1-.593-.292c-.462-.599-.692-1.204-.667-1.816.024-.602.29-1.093.584-1.475.278-.36.623-.675.898-.926.313-.285.537-.498.64-.655A.75.75 0 0 1 19 1.25M4.636 16.005a.305.305 0 0 1-.318-.331c.258-2.422 1.227-3.96 2.415-5.118.622-.605 1.299-1.1 1.906-1.545.662-.485 1.363-1.014 1.797-1.507A.75.75 0 0 1 11 7.25c.208 0 .415.086.564.254.434.493 1.135 1.022 1.797 1.507.607.444 1.284.94 1.906 1.545 1.189 1.157 2.157 2.696 2.415 5.118a.305.305 0 0 1-.317.33A13 13 0 0 0 17 16H5q-.166-.001-.365.005" clip-rule="evenodd"/></svg>