<svg xmlns="http://www.w3.org/2000/svg" fill="none" viewBox="0 0 24 24"><path fill="currentColor" d="M19.09 1.408a2.9 2.9 0 0 0-1.699-.057c-.366.1-.679.285-.989.516a18 18 0 0 0-1.045.875L8.67 8.593c-.275.24-.413.361-.402.51s.165.249.472.446l1.028.662c.719.44.95 1.378.516 2.102l-.292.486a.884.884 0 0 0 1.213 1.213l.487-.292a1.537 1.537 0 0 1 2.101.516l.659 1.024c.198.307.296.461.446.472.149.011.27-.126.51-.401l5.85-6.687c.358-.408.655-.748.876-1.045.23-.31.416-.623.516-.99a2.9 2.9 0 0 0-.057-1.699c-.123-.358-.33-.658-.58-.952-.174-.204-.924-.94-1.471-1.478l-.5-.492c-.293-.25-.593-.457-.952-.58" opacity=".4"/><path fill="currentColor" fill-rule="evenodd" d="M17.97 7.441a1 1 0 0 0-1.413-1.414l-3.158 3.158a1 1 0 1 0 1.414 1.414zm-4.195 9.663c.01-.104-.05-.198-.17-.386l-1.079-1.677-.006-.009-.006-.01a.037.037 0 0 0-.051-.013l-.487.292a2.384 2.384 0 0 1-3.27-3.271l.291-.487a.037.037 0 0 0-.013-.05l-.02-.013-1.68-1.081c-.188-.121-.282-.182-.386-.171s-.181.085-.336.235c-.383.372-.674.717-.881 1.125-.348.682-.418 1.452-.52 2.58l-.177 1.314a.6.6 0 0 1-.034.165.6.6 0 0 1-.098.136l-3.149 3.819a1.914 1.914 0 0 0 2.698 2.697l3.818-3.149c.066-.054.099-.081.137-.098s.08-.022.165-.034l1.313-.177c1.129-.102 1.899-.171 2.581-.519.408-.208.753-.499 1.125-.882.15-.155.225-.232.235-.336" clip-rule="evenodd"/></svg>