<svg xmlns="http://www.w3.org/2000/svg" fill="none" viewBox="0 0 24 24"><path fill="currentColor" d="M11.586.795c.57 0 1.07 0 1.55.17.1.03.19.07.29.12.45.21.81.57 1.21.98l4.78 4.81c.47.46.88.88 1.11 1.42.22.55.22 1.14.22 1.8v.2c0 1.41 0 2.12-.44 2.56s-1.15.44-2.56.44h-11.5c-1.41 0-2.12 0-2.56-.44s-.44-1.15-.44-2.56v-1.3c0-1.53 0-2.77.11-3.75.12-1.02.37-1.89.97-2.63.21-.27.46-.52.73-.74.73-.6 1.6-.85 2.62-.97.97-.11 2.38-.11 3.91-.11" opacity=".4"/><path fill="currentColor" fill-rule="evenodd" d="M13.426 1.085c-.1-.05-.19-.09-.29-.12-.21-.08-.42-.12-.65-.14v1.99c0 1.36 0 2.01.12 2.87.12.9.38 1.66.98 2.26.6.61 1.36.86 2.26.99.87.11 1.519.11 2.875.11h1.985a2.7 2.7 0 0 0-.18-.75c-.213-.524-.615-.925-1.068-1.378l-.042-.042-4.78-4.81c-.4-.41-.76-.77-1.21-.98m-9.43 13.71c-.41 0-.75.34-.75.75s.34.75.75.75h1v5.25c0 .41.34.75.75.75s.75-.34.75-.75v-5.25h1c.41 0 .75-.34.75-.75s-.34-.75-.75-.75zm6.75.75c0-.41-.34-.75-.75-.75s-.75.34-.75.75v6c0 .41.34.75.75.75s.75-.34.75-.75zm1.75-.75c-.41 0-.75.34-.75.75v6c0 .41.34.75.75.75s.75-.34.75-.75v-2.25h1.75c.41 0 .75-.34.75-.75s-.34-.75-.75-.75h-1.75v-1.5h1.75c.41 0 .75-.34.75-.75s-.34-.75-.75-.75zm5 0c-.41 0-.75.34-.75.75v6c0 .41.34.75.75.75s.75-.34.75-.75v-2.25h1.75c.41 0 .75-.34.75-.75s-.34-.75-.75-.75h-1.75v-1.5h1.75c.41 0 .75-.34.75-.75s-.34-.75-.75-.75z" clip-rule="evenodd"/></svg>