<svg xmlns="http://www.w3.org/2000/svg" fill="none" viewBox="0 0 24 24"><path fill="currentColor" fill-rule="evenodd" d="M13 8a1 1 0 1 0-2 0v4a1 1 0 0 0 .293.707l1.5 1.5a1 1 0 0 0 1.414-1.414L13 11.586zm6.957 7.823-1.215-.656c-.59-.318-1.093-.59-1.487-.746a2.3 2.3 0 0 0-.67-.168 1.15 1.15 0 0 0-.815.246c-.416.34-.533.807-.519 1.21.014.377.14.747.269 1.047.134.31.3.606.44.846q.085.145.15.252c.073.123.126.212.163.285.122.236.13.322.131.36 0 .036-.008.123-.13.362a6 6 0 0 1-.165.285l-.149.252c-.14.24-.306.537-.44.846-.13.3-.255.67-.269 1.048-.014.402.103.869.519 1.209.26.212.56.262.814.246a2.3 2.3 0 0 0 .67-.168c.395-.156.899-.428 1.488-.746l1.215-.656c.771-.417 1.427-.771 1.883-1.118.479-.363.91-.848.91-1.559 0-.71-.431-1.196-.91-1.56-.456-.346-1.112-.7-1.883-1.117" clip-rule="evenodd" opacity=".4"/><path fill="currentColor" fill-rule="evenodd" d="M12 3.205a8.795 8.795 0 1 0 .904 17.545.977.977 0 1 1 .198 1.944q-.544.056-1.102.056C6.063 22.75 1.25 17.937 1.25 12S6.063 1.25 12 1.25 22.75 6.063 22.75 12c0 .735-.074 1.454-.215 2.149a.977.977 0 0 1-1.916-.389A8.795 8.795 0 0 0 12 3.204" clip-rule="evenodd"/></svg>