<svg xmlns="http://www.w3.org/2000/svg" fill="none" viewBox="0 0 24 24"><path fill="currentColor" fill-rule="evenodd" d="M12 2c2.33 0 4.49.47 6.104 1.277C19.658 4.054 21 5.313 21 7s-1.342 2.946-2.896 3.723C16.49 11.53 14.331 12 12 12s-4.49-.47-6.104-1.277C4.342 9.946 3 8.687 3 7s1.342-2.946 2.896-3.723C7.51 2.47 9.669 2 12 2M6.79 8.934C8.072 9.574 9.912 10 12 10s3.928-.425 5.21-1.066C18.55 8.264 19 7.522 19 7s-.449-1.263-1.79-1.934C15.928 4.426 14.088 4 12 4s-3.928.425-5.21 1.066C5.45 5.736 5 6.478 5 7s.449 1.263 1.79 1.934" clip-rule="evenodd"/><path fill="currentColor" d="M6.955 11.18C5.905 11.79 5 12.734 5 14.004c0 1.411 1.118 2.42 2.31 3.016q.264.131.55.247c-.487.428-.86 1.004-.86 1.737 0 1.135.894 1.893 1.724 2.308.89.445 2.05.692 3.276.692s2.386-.247 3.276-.692c.83-.415 1.724-1.173 1.724-2.308a1 1 0 1 0-2 0v.005l-.007.02a.4.4 0 0 1-.07.108c-.092.107-.263.247-.542.387-.558.278-1.398.48-2.381.48s-1.823-.202-2.381-.48c-.279-.14-.45-.28-.541-.387A.4.4 0 0 1 9 19.009v-.011l.007-.018a.4.4 0 0 1 .07-.109c.092-.108.263-.248.542-.387.558-.279 1.398-.48 2.381-.48 1.778 0 3.438-.359 4.69-.984 1.192-.596 2.31-1.605 2.31-3.016a1 1 0 1 0-2 0c0 .245-.225.737-1.205 1.227-.92.46-2.26.773-3.795.773s-2.876-.314-3.795-.773C7.225 14.74 7 14.249 7 14.004s.225-.737 1.205-1.227c.92-.46 2.26-.773 3.795-.773-1.852 0-3.597-.297-5.045-.824" opacity=".4"/></svg>