<svg xmlns="http://www.w3.org/2000/svg" fill="none" viewBox="0 0 24 24"><path fill="currentColor" d="M9.854 14.392a.43.43 0 0 0 .268-.395V5.442a1.192 1.192 0 1 1 2.384 0v5.907a.43.43 0 0 0 .432.427.43.43 0 0 0 .432-.427V9.46c0-.173 0-.259.072-.343.071-.084.137-.095.27-.116a2 2 0 0 1 .273-.028 2.6 2.6 0 0 1 1.565.519c.093.07.14.104.172.167s.032.131.032.265v2.502a.43.43 0 0 0 .432.427.43.43 0 0 0 .432-.427v-1.898c0-.292 0-.437.104-.527.103-.09.233-.071.495-.034.763.107 1.27.436 1.675.963.052.067.078.1.094.148a.6.6 0 0 1 .016.19V13.5a.43.43 0 0 0 .432.427.43.43 0 0 0 .432-.427v-1.742c0-.339 0-.508.128-.598s.271-.037.558.067c.96.35 1.698 1.11 1.698 2.456 0 1.005 0 2.266-.04 2.905-.042.65-.127 1.196-.32 1.704-.235.616-.8 1.313-1.173 1.742a1.34 1.34 0 0 0-.346.866c0 .073 0 .168-.005.237a1.75 1.75 0 0 1-1.826 1.613h-5.877c-.39 0-.734 0-1.012-.026-.286-.027-.612-.088-.9-.291-.315-.22-.496-.576-.626-.866-.14-.314-.292-.734-.476-1.242l-.01-.028a3.7 3.7 0 0 0-.532-1.003l-3.58-4.925a1.5 1.5 0 0 1-.277-.848 1.395 1.395 0 0 1 2.379-.971l1.754 1.748c.123.123.31.16.471.094" opacity=".4"/><path fill="currentColor" d="M17.236 1.25c.68 0 1.28 0 1.764.059.52.063 1.051.21 1.49.609.449.406.62.91.694 1.407.066.45.066 1.004.066 1.615s0 1.286-.066 1.735c-.074.497-.245 1-.693 1.407-.44.4-.971.546-1.491.609-.484.06-1.084.059-1.764.059h-.861c-.539 0-.975-.42-.975-.937s.436-.938.975-.938h.803c.756 0 1.23-.002 1.576-.044.318-.039.382-.097.397-.111l.001-.001h.001c.01-.009.062-.051.1-.308.045-.302.047-.72.047-1.411 0-.69-.002-1.11-.047-1.41-.038-.258-.09-.3-.1-.308l-.001-.001c-.016-.015-.08-.073-.398-.112-.346-.042-.82-.044-1.576-.044H5.822c-.756 0-1.23.002-1.576.044-.318.039-.382.097-.397.111l-.001.001h-.001c-.01.009-.062.051-.1.308C3.702 3.891 3.7 4.31 3.7 5s.002 1.11.047 1.41c.038.258.09.3.1.308l.001.001c.016.015.08.073.398.112.346.042.82.044 1.576.044h.803c.538 0 .975.42.975.938 0 .517-.437.937-.975.937h-.861c-.68 0-1.28 0-1.764-.059-.52-.063-1.051-.21-1.49-.609-.449-.406-.62-.91-.694-1.407C1.75 6.225 1.75 5.611 1.75 5s0-1.226.066-1.675c.074-.497.245-1 .693-1.407.44-.4.971-.546 1.491-.609.484-.06 1.084-.06 1.764-.059z"/></svg>