<svg xmlns="http://www.w3.org/2000/svg" fill="none" viewBox="0 0 24 24"><path fill="currentColor" fill-rule="evenodd" d="M10.77 8.47H7.23c-.74 0-1.37 0-1.88.06-.54.07-1.03.21-1.45.56-.43.35-.67.81-.84 1.32-.16.49-.28 1.1-.43 1.83l-.37 1.85c-.07.06-.14.12-.2.19-.46.45-.65 1.02-.73 1.65-.08.59-.08 1.34-.08 2.24v3.05c0 .41.34.75.75.75h1c.41 0 .75-.34.75-.75v-1.25h10.5v1.25c0 .41.34.75.75.75h1c.41 0 .75-.34.75-.75v-3.05c0-.9 0-1.65-.08-2.24-.08-.63-.27-1.2-.73-1.65-.06-.07-.13-.13-.2-.19l-.37-1.85c-.15-.73-.27-1.34-.43-1.83-.17-.51-.41-.97-.84-1.32-.42-.35-.91-.49-1.45-.56-.51-.06-1.14-.06-1.88-.06m1.28 5h-6.1c-.8 0-1.49 0-2.05.06l.19-.95c.16-.79.27-1.31.4-1.7.12-.37.23-.52.36-.63.12-.1.3-.18.69-.23.4-.05.94-.05 1.74-.05h3.44c.81 0 1.34 0 1.75.05.38.05.56.13.68.23.13.11.24.26.37.63.12.39.23.91.39 1.7l.19.95c-.56-.06-1.25-.06-2.05-.06" clip-rule="evenodd" opacity=".4"/><path fill="currentColor" fill-rule="evenodd" d="M13.23 2.47h3.54c.74 0 1.37 0 1.88.06.54.07 1.03.21 1.45.56.43.35.67.81.84 1.32.16.49.28 1.1.43 1.83l.37 1.85c.07.06.14.12.2.19.46.45.65 1.02.73 1.65.08.59.08 1.34.08 2.24v3.05c0 .41-.34.75-.75.75h-1v-.87c0-.84 0-1.66-.09-2.34-.1-.75-.34-1.6-1.02-2.31l-.31-1.51c-.1-.5-.2-1.01-.32-1.46.31.01.58.02.84.05l-.19-.95c-.16-.79-.26-1.31-.39-1.7-.12-.37-.24-.52-.37-.63-.12-.1-.3-.18-.68-.23-.41-.05-.94-.05-1.75-.05h-3.44c-.8 0-1.34 0-1.74.05-.35.04-.52.11-.65.2h-.71c-.36 0-.72 0-1.06.01.17-.44.4-.83.78-1.14.42-.35.91-.49 1.45-.56.51-.06 1.14-.06 1.88-.06M4.75 16.46c0-.41-.34-.75-.75-.75a.755.755 0 0 0 0 1.51c.41 0 .75-.34.75-.75zm9.25-.74a.755.755 0 0 1 0 1.51.755.755 0 0 1 0-1.51m-7 1.5c-.25 0-.48.13-.62.33l-.61.92h6.47l-.62-.92a.75.75 0 0 0-.62-.33zm6.77-11.75h-3.54c-.74 0-1.37 0-1.88.06-.54.07-1.03.21-1.45.56-.38.31-.61.7-.78 1.14.34-.01.7-.01 1.06-.01h.71c.13-.09.3-.16.65-.2.4-.05.94-.05 1.74-.05h3.44c.81 0 1.34 0 1.75.05.38.05.56.13.68.23.13.11.25.26.37.63.13.39.23.91.39 1.7l.19.95c-.26-.03-.53-.04-.84-.05.12.45.22.96.32 1.46l.31 1.51c.68.71.92 1.56 1.02 2.31.09.68.09 1.5.09 2.34v.87h1c.41 0 .75-.34.75-.75v-3.05c0-.9 0-1.65-.08-2.24-.08-.63-.27-1.2-.73-1.65-.06-.07-.13-.13-.2-.19l-.37-1.85c-.15-.73-.27-1.34-.43-1.83-.17-.51-.41-.97-.84-1.32-.42-.35-.91-.49-1.45-.56-.51-.06-1.14-.06-1.88-.06" clip-rule="evenodd"/></svg>