<svg xmlns="http://www.w3.org/2000/svg" fill="none" viewBox="0 0 24 24"><path fill="currentColor" d="M12.07 4.25h-.14c-1.539 0-2.792 0-3.78.133-1.03.139-1.917.438-2.623 1.146S4.52 7.125 4.383 8.158c-.133.99-.133 2.245-.133 3.787v1.11c0 1.542 0 2.797.133 3.787.138 1.033.437 1.92 1.144 2.629.706.708 1.593 1.007 2.623 1.146.988.133 2.241.133 3.78.133h.14c1.539 0 2.791 0 3.78-.133 1.03-.139 1.917-.438 2.623-1.146s1.006-1.596 1.144-2.629c.133-.99.133-2.245.133-3.787v-1.11c0-1.542 0-2.797-.133-3.787-.138-1.033-.437-1.92-1.144-2.629-.706-.708-1.593-1.007-2.623-1.146-.988-.133-2.241-.133-3.78-.133" opacity=".4"/><path fill="currentColor" fill-rule="evenodd" d="M4 2a1 1 0 0 1 1-1h14a1 1 0 1 1 0 2h-4.465l-.838 1.257q-.753-.009-1.627-.007h-.772L12.132 3H5a1 1 0 0 1-1-1m2.747 18.27-.641 1.283a1 1 0 1 0 1.789.894l.882-1.765q-.33-.025-.627-.065a5.8 5.8 0 0 1-1.403-.347m8.476.412.883 1.765a1 1 0 1 0 1.789-.894l-.642-1.283c-.43.173-.9.28-1.403.347q-.298.04-.627.065M6.81 8.75c-.259 0-.389 0-.476.084-.087.083-.092.209-.102.46-.038.957-.044 2.584-.044 3.768 0 .229 0 .343.066.425.066.083.176.107.396.155q.275.06.592.122c1.254.244 2.953.486 4.757.486s3.503-.242 4.757-.486q.317-.062.593-.123c.22-.047.33-.071.396-.154.067-.082.067-.197.066-.425 0-1.184-.006-2.812-.044-3.768-.01-.251-.015-.377-.102-.46-.088-.084-.217-.084-.477-.084zm10.94 7.5h1.93q-.026.31-.063.592-.062.476-.18.908H17.75a.75.75 0 0 1 0-1.5m-11.5 1.5H4.563a7 7 0 0 1-.18-.908 11 11 0 0 1-.062-.592H6.25a.75.75 0 0 1 0 1.5" clip-rule="evenodd"/></svg>