<svg xmlns="http://www.w3.org/2000/svg" fill="none" viewBox="0 0 24 24"><path fill="currentColor" fill-rule="evenodd" d="M1.888 17.115c4.973.788 7.974-.35 9.747-1.857 1.704-1.449 2.156-3.14 2.221-3.422a5.6 5.6 0 0 0 .058-2.66 5.8 5.8 0 0 0-1.18-2.421l-.002-.002-.342-.422 2.228-1.456a.75.75 0 0 0-.293-1.369c-4.978-.786-7.98.351-9.754 1.858C2.867 6.81 2.415 8.5 2.351 8.782a5.6 5.6 0 0 0-.058 2.66c.195.885.6 1.714 1.18 2.421l.001.002.342.422-2.224 1.454a1 1 0 0 0-.223.22.8.8 0 0 0-.107.26c-.01.05-.011.178-.011.23v.008l-.001-.009s0 .018.001.009a.75.75 0 0 0 .117.324c.106.161.347.286.52.332m6.217-4.304a2.5 2.5 0 1 0 0-5 2.5 2.5 0 0 0 0 5" clip-rule="evenodd" opacity=".4"/><path fill="currentColor" fill-rule="evenodd" d="m12.39 6.33 2.228-1.455a.75.75 0 0 0-.293-1.369c-4.979-.786-7.98.351-9.754 1.858C2.867 6.81 2.415 8.5 2.35 8.782a5.6 5.6 0 0 0-.058 2.66c.195.885.6 1.714 1.18 2.421l.001.002.342.422 3.066-1.795A2.5 2.5 0 0 1 8.105 7.81c.443 0 .86.115 1.22.318zm3.639 2.223a1 1 0 0 0 .71 1.697h1.507v2a6.5 6.5 0 0 1-6.5 6.5 1 1 0 1 0 0 2 8.5 8.5 0 0 0 8.5-8.5v-2h1.507a1 1 0 0 0 .71-1.697 84 84 0 0 0-1.126-1.39 7.6 7.6 0 0 0-.826-.855 3 3 0 0 0-.505-.353 1.6 1.6 0 0 0-.76-.205c-.315 0-.58.108-.76.205-.189.1-.36.229-.505.353a7.6 7.6 0 0 0-.826.856 84 84 0 0 0-1.126 1.389" clip-rule="evenodd"/></svg>