<svg xmlns="http://www.w3.org/2000/svg" fill="none" viewBox="0 0 24 24"><path fill="currentColor" d="M20.364 3.092c-6.666-1.05-10.64.473-12.965 2.443C5.147 7.443 4.56 9.67 4.483 10.003a7.3 7.3 0 0 0-.076 3.464A7.5 7.5 0 0 0 5.95 16.62l.001.002.644.793 3.794-2.307A3.5 3.5 0 0 1 13.61 8.89l3.8-2.311 3.25-2.117a.75.75 0 0 0-.295-1.37"/><path fill="currentColor" d="m6.595 17.413-3.254 2.12a.75.75 0 0 0 .294 1.37c6.667 1.056 10.641-.468 12.968-2.44 2.252-1.91 2.84-4.14 2.917-4.473.304-1.13.33-2.316.076-3.464a7.5 7.5 0 0 0-1.542-3.153l-.001-.002-.644-.793-3.8 2.311a3.5 3.5 0 1 1-3.22 6.217z" opacity=".4"/></svg>