<svg xmlns="http://www.w3.org/2000/svg" fill="none" viewBox="0 0 24 24"><path fill="currentColor" d="M10.181 3.251c.633 0 1.185 0 1.628.062 1.469.207 1.876 1.376 1.931 2.688h.748c.617 0 1.15 0 1.597.045.48.047.932.151 1.372.4.436.247.763.581 1.062.97.283.365.581.833.932 1.383.421.66.928 1.235 1.577 1.68.905.621 1.6 1.544 1.695 2.662l.027 1.217c0 .583 0 1.087-.05 1.492-.106.885-.598 1.48-1.356 1.74-.235.081-.353.122-.469.058s-.154-.222-.232-.538a3.751 3.751 0 0 0-7.305.08c-.062.282-.093.423-.175.49-.083.065-.21.065-.465.065h-1.396c-.255 0-.382 0-.464-.066s-.114-.207-.176-.488a3.751 3.751 0 0 0-7.343.089c-.04.208-.06.311-.133.358-.072.046-.16.024-.333-.019a1.94 1.94 0 0 1-.975-.544c-.366-.383-.507-.852-.57-1.337-.058-.457-.058-1.028-.058-1.694V6.952c0-.666 0-1.237.059-1.693.062-.486.203-.954.57-1.337.37-.388.832-.541 1.312-.609.554-.077 1.12-.062 1.679-.062z" opacity=".4"/><path fill="currentColor" fill-rule="evenodd" d="M14.338 8.09c.059-.088.193-.088.462-.09.364-.001.728.003 1.088.038.477.047.757.225 1.049.602.22.286.471.677.851 1.273q.207.324.425.613c.254.335.38.502.325.613s-.256.11-.657.11h-.172c-.673 0-1.116 0-1.458-.038-.483-.053-.754-.236-.983-.665-.162-.303-.327-.714-.577-1.338l-.262-.656c-.1-.25-.15-.374-.091-.462M19.5 18a2.5 2.5 0 1 1-5 0 2.5 2.5 0 0 1 5 0M7 20.5a2.5 2.5 0 1 0 0-5 2.5 2.5 0 0 0 0 5" clip-rule="evenodd"/></svg>