<svg xmlns="http://www.w3.org/2000/svg" fill="none" viewBox="0 0 24 24"><path fill="currentColor" d="M14.056 5.75H9.944c-1.838 0-3.294 0-4.433.149-1.172.153-2.121.476-2.87 1.202-.748.727-1.08 1.65-1.238 2.788-.153 1.107-.153 2.52-.153 4.306v.11c0 1.785 0 3.2.153 4.306.158 1.139.49 2.06 1.238 2.787.749.727 1.698 1.05 2.87 1.203 1.14.149 2.595.149 4.433.149h4.112c1.838 0 3.294 0 4.433-.149 1.172-.153 2.121-.476 2.87-1.203.748-.726 1.08-1.648 1.238-2.787.153-1.107.153-2.52.153-4.306v-.11c0-1.785 0-3.2-.153-4.306-.158-1.139-.49-2.06-1.238-2.788-.749-.726-1.698-1.05-2.87-1.202-1.14-.149-2.595-.149-4.433-.149" opacity=".4"/><path fill="currentColor" fill-rule="evenodd" d="M15.293 1.543a1 1 0 1 1 1.414 1.414L13.914 5.75h-3.828L8.293 3.957a1 1 0 0 1 1.414-1.414L12 4.836zM12 15.75a1 1 0 0 1-1-1v-4a1 1 0 0 1 2 0v4a1 1 0 0 1-1 1m-1 2c0-.552.446-1 .995-1h.01c.55 0 .995.448.995 1s-.446 1-.995 1h-.01a1 1 0 0 1-.995-1" clip-rule="evenodd"/></svg>