<svg xmlns="http://www.w3.org/2000/svg" fill="none" viewBox="0 0 24 24"><path fill="currentColor" d="M11.143 10.736a.425.425 0 0 0 .428-.42v-7.28a1.286 1.286 0 1 1 2.572 0v7.28c0 .232.191.42.428.42a.425.425 0 0 0 .429-.42V8.308c0-.232 0-.348.085-.436.086-.087.181-.09.372-.093q.21-.006.435.046c.597.143 1.177.454 1.563.91.053.063.08.094.098.144a.6.6 0 0 1 .018.197v2.361c0 .233.192.422.429.422a.425.425 0 0 0 .428-.421V9.395c0-.31 0-.464.122-.554s.25-.05.506.028A2.75 2.75 0 0 1 21 11.5v2.693c0 1.064 0 1.9-.043 2.574-.044.687-.134 1.26-.338 1.793a5.74 5.74 0 0 1-3.298 3.308c-.532.205-1.104.295-1.789.34-.673.042-1.531.042-2.593.042-1.047 0-1.785 0-2.394-.134a5.7 5.7 0 0 1-2.511-1.26c-.473-.408-.86-.925-1.488-1.766L3.3 14.61a1.5 1.5 0 0 1-.165-.272 2.5 2.5 0 0 1-.133-.697c.017-.3.126-.596.327-.843a1.513 1.513 0 0 1 2.23-.122l1.851 1.826c.123.12.307.157.468.092a.42.42 0 0 0 .265-.39V5.036a1.286 1.286 0 1 1 2.57 0v5.28c0 .232.193.42.43.42" opacity=".4"/></svg>