<svg xmlns="http://www.w3.org/2000/svg" fill="none" viewBox="0 0 24 24"><path fill="currentColor" d="M5.088 19.411A1 1 0 0 0 6 20h12a1 1 0 0 0 .75-1.662l-.002-.002a50 50 0 0 0-.733-.8 47 47 0 0 0-1.73-1.758c-.664-.637-1.4-1.296-2.088-1.802a7.4 7.4 0 0 0-1.036-.655C12.84 13.161 12.43 13 12 13s-.84.16-1.16.321a7.4 7.4 0 0 0-1.037.655c-.688.506-1.425 1.165-2.088 1.802a47 47 0 0 0-2.263 2.336l-.2.222v.001a1 1 0 0 0-.164 1.074"/><path fill="currentColor" d="M5.088 4.589A1 1 0 0 1 6 4h12a1 1 0 0 1 .75 1.662l-.002.002a49 49 0 0 1-.733.8 47 47 0 0 1-1.73 1.757c-.664.638-1.4 1.297-2.088 1.803a7.4 7.4 0 0 1-1.036.655c-.321.16-.73.321-1.161.321-.43 0-.84-.16-1.16-.321a7.4 7.4 0 0 1-1.037-.655c-.688-.506-1.425-1.165-2.088-1.803a47 47 0 0 1-2.463-2.557v-.001a1 1 0 0 1-.164-1.074" opacity=".4"/></svg>