<svg xmlns="http://www.w3.org/2000/svg" fill="none" viewBox="0 0 24 24"><path fill="currentColor" d="M10 4.498c0-1.1.9-2 2-2s2 .9 2 2-.9 2-2 2-2-.9-2-2"/><path fill="currentColor" d="M6.62 6.219a.98.98 0 0 0-1.4.16.98.98 0 0 0 .16 1.4c1.14.92 2.56 1.59 4.12 1.95v4.69l-.99 5.92a1.004 1.004 0 0 0 1.98.32l.86-5.16h1.3l.86 5.16a1.004 1.004 0 0 0 1.98-.32l-.99-5.92v-4.69c1.56-.36 2.98-1.03 4.12-1.95.44-.34.51-.97.16-1.4a.98.98 0 0 0-1.4-.16c-1.36 1.09-3.26 1.78-5.38 1.78s-4.02-.69-5.38-1.78" opacity=".4"/></svg>