<svg xmlns="http://www.w3.org/2000/svg" fill="none" viewBox="0 0 24 24"><path fill="currentColor" fill-rule="evenodd" d="M8.685 12.737a6.067 6.067 0 0 0 8.672 8.486l2.866-2.866a6.068 6.068 0 0 0-8.401-8.752 1 1 0 0 0 1.356 1.47 4.068 4.068 0 0 1 5.63 5.868l-2.865 2.866a4.068 4.068 0 0 1-6.025-5.45 6 6 0 0 1-1.233-1.622m2.075-.436.003.004z" clip-rule="evenodd"/><path fill="currentColor" fill-rule="evenodd" d="M14.057 4.19a4.068 4.068 0 0 1 5.752 5.753l-.465.464a1 1 0 0 0 1.415 1.414l.464-.464a6.068 6.068 0 0 0-8.58-8.58L9.777 5.643a6.068 6.068 0 0 0 8.4 8.752 1 1 0 0 0-1.355-1.47 4.068 4.068 0 0 1-5.631-5.868zM5.3 3.4a1 1 0 0 0-1.6 1.2l1.5 2a1 1 0 0 0 1.6-1.2zM2.316 7.05a1 1 0 0 0-.632 1.899l3 1a1 1 0 0 0 .632-1.898zM5.6 12.8a1 1 0 1 0-1.2-1.6l-2 1.5a1 1 0 0 0 1.2 1.6z" clip-rule="evenodd" opacity=".4"/></svg>