<svg xmlns="http://www.w3.org/2000/svg" fill="none" viewBox="0 0 24 24"><path fill="currentColor" fill-rule="evenodd" d="M13.023 4.424a4.564 4.564 0 0 1 6.625 0c1.803 1.877 1.803 4.904 0 6.78l-3.24 3.372a4.7 4.7 0 0 1-.927.748 4.56 4.56 0 0 1-5.698-.748 4.8 4.8 0 0 1-.636-.826 1 1 0 0 1 1.707-1.042c.737 1.208 2.345 1.671 3.58.912q.283-.172.532-.43l3.24-3.371c1.059-1.103 1.059-2.906 0-4.009a2.564 2.564 0 0 0-3.741 0l-.714.743a1 1 0 1 1-1.442-1.386z" clip-rule="evenodd" opacity=".4"/><path fill="currentColor" fill-rule="evenodd" d="M9 3a1 1 0 0 0-2 0v2.079a1 1 0 1 0 2 0zM3 7a1 1 0 1 0 0 2h2.079a1 1 0 0 0 0-2zm4.592 2.424a4.564 4.564 0 0 1 6.625 0q.368.385.636.826a1 1 0 1 1-1.706 1.042 2.8 2.8 0 0 0-.372-.482 2.565 2.565 0 0 0-3.741 0l-3.24 3.371c-1.059 1.103-1.059 2.906 0 4.009a2.565 2.565 0 0 0 3.741 0l.714-.743a1 1 0 0 1 1.442 1.386l-.713.743a4.564 4.564 0 0 1-6.626 0c-1.803-1.877-1.803-4.904 0-6.78zM17.922 16a1 1 0 0 1 1-1H21a1 1 0 1 1 0 2h-2.079a1 1 0 0 1-1-1M16 17.921a1 1 0 0 1 1 1V21a1 1 0 1 1-2 0v-2.079a1 1 0 0 1 1-1" clip-rule="evenodd"/></svg>