<svg xmlns="http://www.w3.org/2000/svg" fill="none" viewBox="0 0 24 24"><path fill="currentColor" fill-rule="evenodd" d="M11.293 3.837a6.272 6.272 0 0 1 8.87 8.87l-2.456 2.456a1 1 0 1 1-1.414-1.414l2.456-2.456a4.272 4.272 0 1 0-6.042-6.042l-2.456 2.456a1 1 0 0 1-1.414-1.414zm-3.586 5a1 1 0 0 1 0 1.414l-2.456 2.456a4.272 4.272 0 1 0 6.042 6.042l2.456-2.456a1 1 0 0 1 1.414 1.414l-2.456 2.456a6.272 6.272 0 1 1-8.87-8.87l2.456-2.456a1 1 0 0 1 1.414 0" clip-rule="evenodd"/><path fill="currentColor" fill-rule="evenodd" d="M8 2a1 1 0 0 0-2 0v2.079a1 1 0 1 0 2 0zM2 6a1 1 0 0 0 0 2h2.079a1 1 0 0 0 0-2zm17.921 10a1 1 0 1 0 0 2H22a1 1 0 1 0 0-2zM18 19.921a1 1 0 1 0-2 0V22a1 1 0 1 0 2 0z" clip-rule="evenodd" opacity=".4"/></svg>