<svg xmlns="http://www.w3.org/2000/svg" fill="none" viewBox="0 0 24 24"><path fill="currentColor" fill-rule="evenodd" d="M12.049 1.25h-.097c-.661 0-1.23 0-1.696.047-.493.05-.979.162-1.422.459a3 3 0 0 0-.828.827c-.297.444-.408.93-.458 1.423l-.015.164c-.02.26-.03.391-.09.465-.062.073-.211.113-.51.193-1.02.274-1.762 1.23-1.676 2.343L5.44 9.55a10.6 10.6 0 0 0 1.807 5.149l.6.885a3.82 3.82 0 0 0 2.557 1.617c.301.049.452.073.523.157s.072.22.072.49v3.902a1 1 0 1 0 2 0v-3.902c0-.27 0-.406.072-.49s.222-.108.523-.157a3.82 3.82 0 0 0 2.557-1.617l.6-.885a10.6 10.6 0 0 0 1.808-5.15l.183-2.378c.087-1.114-.655-2.07-1.675-2.343-.3-.08-.449-.12-.51-.193-.06-.074-.07-.204-.09-.465l-.015-.164c-.05-.494-.162-.979-.458-1.423a3 3 0 0 0-.828-.827c-.444-.297-.93-.409-1.422-.459-.466-.047-1.035-.047-1.696-.047m-.545 2H12c.723 0 1.19.001 1.542.037.335.034.453.091.513.132a1 1 0 0 1 .276.275c.04.061.098.179.132.514.02.207.031.31-.02.396a.3.3 0 0 1-.078.087c-.059.044-.135.055-.262.058l-.113.001h-3.94c-.224 0-.336 0-.416-.06a.3.3 0 0 1-.078-.086c-.051-.085-.04-.189-.02-.396.034-.335.091-.453.132-.514a1 1 0 0 1 .276-.275c.06-.04.178-.098.513-.132.189-.02.41-.028.686-.033q.165-.003.36-.003M10 8a1 1 0 0 1 1-1h2a1 1 0 1 1 0 2h-2a1 1 0 0 1-1-1" clip-rule="evenodd" opacity=".4"/><path fill="currentColor" fill-rule="evenodd" d="M11 7a1 1 0 1 0 0 2h2a1 1 0 1 0 0-2z" clip-rule="evenodd"/></svg>