<svg xmlns="http://www.w3.org/2000/svg" fill="none" viewBox="0 0 24 24"><path fill="currentColor" fill-rule="evenodd" d="M12.875 17.475a4.6 4.6 0 1 1 8.488 2.46l1.223 1.237a1 1 0 0 1-1.422 1.406l-1.213-1.226a4.6 4.6 0 0 1-7.076-3.877m4.6-2.6a2.6 2.6 0 1 0 0 5.2 2.6 2.6 0 0 0 0-5.2" clip-rule="evenodd"/><path fill="currentColor" fill-rule="evenodd" d="M5.625 6.375a5.25 5.25 0 1 1 10.5 0 5.25 5.25 0 0 1-10.5 0m6.855 6.863c.229.032.322.309.18.491a6.07 6.07 0 0 0-1.285 3.746c0 1.425.489 2.736 1.308 3.775.545.691.818 1.037.736 1.206s-.48.169-1.275.169H6.466c-1.818 0-3.224-.894-4.395-2.01-.68-.647-1.018-1.375-.933-2.151.08-.73.518-1.325.98-1.777.738-.723 1.816-1.33 2.529-1.733.162-.091.306-.173.422-.242a11.3 11.3 0 0 1 4.201-1.474c1.064-.15 2.146-.15 3.21 0" clip-rule="evenodd" opacity=".4"/></svg>