<svg xmlns="http://www.w3.org/2000/svg" fill="none" viewBox="0 0 24 24"><path fill="currentColor" fill-rule="evenodd" d="M10.029 2.205a.977.977 0 0 1-.955 1c-2.779.063-3.987.347-4.772 1.129-.677.675-.993 1.68-1.099 3.805a.977.977 0 0 1-1.952-.097c.109-2.18.434-3.859 1.672-5.093 1.404-1.4 3.4-1.637 6.107-1.699a.977.977 0 0 1 .999.955m3.942 0a.977.977 0 0 1 1-.955c2.706.062 4.702.3 6.106 1.7 1.238 1.233 1.563 2.912 1.672 5.092a.977.977 0 0 1-1.952.097c-.106-2.124-.422-3.13-1.1-3.805-.784-.782-1.992-1.066-4.771-1.13a.977.977 0 0 1-.955-.999M2.179 14.933a.977.977 0 0 1 1.024.928c.106 2.124.422 3.13 1.1 3.805.784.782 1.992 1.066 4.771 1.13a.977.977 0 0 1-.044 1.954c-2.707-.062-4.703-.3-6.107-1.7-1.238-1.233-1.563-2.912-1.672-5.092a.977.977 0 0 1 .928-1.025m19.642 0c.54.027.955.486.928 1.025-.109 2.18-.434 3.859-1.672 5.093-1.404 1.4-3.4 1.637-6.107 1.699a.977.977 0 1 1-.044-1.954c2.779-.064 3.987-.348 4.772-1.13.677-.675.993-1.68 1.099-3.806a.977.977 0 0 1 1.024-.927" clip-rule="evenodd" opacity=".4"/><path fill="currentColor" fill-rule="evenodd" d="M11.992 6.25A3.25 3.25 0 0 0 8.738 9.5a3.25 3.25 0 0 0 3.254 3.25 3.25 3.25 0 0 0 3.253-3.25 3.25 3.25 0 0 0-3.253-3.25M6.958 16.482A.75.75 0 0 0 7.5 17.75h9a.75.75 0 0 0 .552-1.258c-2.668-2.895-7.481-2.747-10.094-.01" clip-rule="evenodd"/></svg>