<svg xmlns="http://www.w3.org/2000/svg" fill="none" viewBox="0 0 24 24"><path fill="currentColor" fill-rule="evenodd" d="M10 2.25a4.75 4.75 0 1 0 0 9.5 4.75 4.75 0 0 0 0-9.5m5.2 12.4c-3.184-1.866-7.216-1.866-10.399 0-.1.058-.226.128-.369.207-.633.352-1.605.891-2.27 1.532-.416.4-.825.941-.9 1.615-.08.721.242 1.387.859 1.965 1.05.985 2.318 1.781 3.96 1.781h7.838c1.643 0 2.91-.796 3.96-1.78.617-.579.94-1.245.86-1.966-.076-.674-.485-1.214-.9-1.615-.666-.64-1.638-1.18-2.27-1.532a19 19 0 0 1-.37-.208" clip-rule="evenodd" opacity=".4"/><path fill="currentColor" d="M17.437 2.658c.404-.2.918-.408 1.561-.408.644 0 1.158.209 1.562.407.147.073.268.137.376.193.222.116.382.2.575.259l.018.005c.132.04.263.08.367.118.085.032.286.108.446.277.14.147.205.308.24.424.028.093.047.199.062.275l.003.017c.433 2.277-.522 4.507-2.882 5.365l-.022.008A2 2 0 0 1 19 9.75c-.327 0-.538-.077-.744-.152l-.022-.008c-2.36-.858-3.315-3.088-2.883-5.365l.003-.017c.014-.076.034-.182.062-.275.035-.116.1-.277.24-.424.16-.17.361-.245.446-.277.104-.038.235-.078.366-.118l.019-.005c.193-.059.353-.143.575-.26.107-.055.228-.12.375-.191"/></svg>