<svg xmlns="http://www.w3.org/2000/svg" fill="none" viewBox="0 0 24 24"><path fill="currentColor" fill-rule="evenodd" d="M12.01 4.25C9.94 4.25 8.26 5.93 8.26 8s1.68 3.75 3.75 3.75 3.75-1.68 3.75-3.75-1.68-3.75-3.75-3.75m-1.72 9c-2.78 0-5.04 2.25-5.04 5.04 0 1.36 1.1 2.46 2.46 2.46h8.57c1.36 0 2.46-1.1 2.46-2.46 0-2.79-2.26-5.04-5.04-5.04h-3.43z" clip-rule="evenodd" opacity=".4"/><path fill="currentColor" fill-rule="evenodd" d="M7.01 8c0-1.89 1.05-3.54 2.6-4.39A3.75 3.75 0 0 0 4.26 7c0 2.07 1.58 3.65 3.57 3.75-.52-.79-.82-1.74-.82-2.75m-3 10.29c0-2.86 1.91-5.28 4.52-6.04H6.29c-2.78 0-5.04 2.25-5.04 5.04 0 1.36 1.1 2.46 2.46 2.46h.59c-.19-.45-.3-.94-.3-1.46zM17.01 8c0 1.01-.3 1.96-.82 2.75 1.99-.1 3.57-1.74 3.57-3.75s-1.68-3.75-3.75-3.75c-.58 0-1.12.13-1.61.36 1.55.85 2.61 2.5 2.61 4.39m3 10.29c0 .52-.11 1.01-.3 1.46h.58c1.36 0 2.46-1.1 2.46-2.46 0-2.79-2.26-5.04-5.04-5.04h-2.24c2.61.76 4.52 3.18 4.52 6.04z" clip-rule="evenodd"/></svg>