<svg xmlns="http://www.w3.org/2000/svg" fill="none" viewBox="0 0 24 24"><path fill="currentColor" fill-rule="evenodd" d="M10.976 1.5h2.048c1.952 0 3.52 0 4.75.165 1.275.172 2.338.537 3.181 1.38s1.208 1.906 1.38 3.18c.165 1.232.165 2.799.165 4.751v1.99c0 1.196 0 2.239-.035 3.137q0 .03-.002.057c-.011.301-.024.641-.082.919-.07.335-.252.812-.78 1.072-.538.266-1.036.107-1.339-.041-.257-.126-.54-.327-.797-.508l-.047-.034-1.346-.952a1 1 0 0 1 1.156-1.632l.942.666c.133.095.2.142.254.115s.055-.108.06-.271c.016-.735.016-1.573.016-2.544v-1.9c0-2.044-.002-3.476-.148-4.558-.141-1.053-.402-1.623-.811-2.033s-.98-.67-2.033-.811c-1.082-.146-2.514-.148-4.558-.148h-1.9c-2.044 0-3.476.002-4.558.148-1.053.141-1.623.402-2.033.811s-.67.98-.811 2.033C3.502 7.574 3.5 9.006 3.5 11.05v1.9c0 2.043.002 3.476.148 4.558.141 1.053.402 1.624.811 2.033.41.41.98.67 2.033.811 1.082.146 2.514.148 4.558.148h1.9c2.08 0 3.525-.002 4.61-.155a1 1 0 1 1 .28 1.98c-1.242.175-2.829.175-4.812.175h-2.052c-1.952 0-3.52 0-4.75-.165-1.275-.172-2.338-.537-3.181-1.38s-1.208-1.906-1.38-3.18c-.165-1.233-.165-2.8-.165-4.752v-2.048c0-1.952 0-3.52.165-4.75.172-1.275.537-2.338 1.38-3.181s1.906-1.208 3.18-1.38c1.233-.164 2.8-.164 4.752-.164" clip-rule="evenodd"/><path fill="currentColor" d="m12.905 9.01-.08-.044c-.774-.41-1.41-.747-1.933-.955-.533-.211-1.083-.347-1.644-.199a2.4 2.4 0 0 0-1.034.572c-.431.406-.582.953-.649 1.505-.065.538-.065 1.23-.065 2.062v.098c0 .832 0 1.524.065 2.062.067.553.218 1.099.649 1.505a2.4 2.4 0 0 0 1.034.572c.56.148 1.111.012 1.644-.199.523-.208 1.159-.545 1.933-.955l.08-.043c.8-.424 1.457-.773 1.932-1.096s.917-.719 1.08-1.297c.11-.392.11-.805 0-1.196-.163-.578-.606-.973-1.08-1.297s-1.131-.672-1.932-1.096" opacity=".4"/></svg>