<svg xmlns="http://www.w3.org/2000/svg" fill="none" viewBox="0 0 24 24"><path fill="currentColor" d="M1.445 7.168a1 1 0 0 1 1.387.277l.156.22a16.5 16.5 0 0 0 2.413 2.577C7.063 11.665 9.338 13 12.001 13c2.661 0 4.936-1.335 6.598-2.76a16.5 16.5 0 0 0 1.914-1.943 11 11 0 0 0 .655-.852 1 1 0 1 1 1.664 1.11l-.006.008c-.04.057-.143.204-.205.289-.132.178-.323.428-.572.726a18.5 18.5 0 0 1-2.148 2.181C18.063 13.335 15.338 15 12 15s-6.064-1.665-7.902-3.24A18.5 18.5 0 0 1 1.95 9.578c-.249-.298-.44-.548-.572-.726a14 14 0 0 1-.21-.297 1 1 0 0 1 .276-1.387" opacity=".4"/><path fill="currentColor" fill-rule="evenodd" d="m1.293 12.29 1.634-1.634a18 18 0 0 0 1.475 1.354l-1.695 1.694a1 1 0 0 1-1.414-1.414m5.35 3.194.895-1.492c.603.276 1.245.51 1.922.683l-1.102 1.838a1 1 0 1 1-1.715-1.029m7.896-.809 1.103 1.838a1 1 0 0 0 1.715-1.029l-.895-1.492c-.604.276-1.246.51-1.923.683m6.753-.97-1.694-1.695.302-.253a19 19 0 0 0 1.173-1.1l1.633 1.633a1 1 0 1 1-1.414 1.414" clip-rule="evenodd"/></svg>