<svg xmlns="http://www.w3.org/2000/svg" fill="none" viewBox="0 0 24 24"><path fill="currentColor" d="M17.051 8h-10.1c-.891 0-1.634 0-2.239.06-1.391.139-2.536.872-3.194 2.125-.29.553-.408 1.153-.463 1.824-.07.841-.053 1.69-.053 2.534 0 .991 0 1.797.053 2.448.055.67.173 1.27.463 1.823.34.65.836 1.2 1.447 1.588.533.338 1.114.474 1.747.538 1.166.116 2.494.189 3.66 0a4.85 4.85 0 0 0 2.624-1.347c.234-.231.443-.488.643-.751.201-.265.302-.398.444-.403s.25.118.468.364c.269.305.541.606.835.881a4.8 4.8 0 0 0 2.858 1.297c.997.09 2.055.057 3.047-.041.633-.064 1.214-.2 1.747-.538a4.17 4.17 0 0 0 1.447-1.588c.29-.552.408-1.152.463-1.823.054-.651.053-1.457.053-2.448 0-.844.016-1.692-.053-2.534-.055-.671-.173-1.271-.463-1.824-.658-1.253-1.803-1.986-3.194-2.125C18.686 8 17.944 8 17.05 8" opacity=".4"/><path fill="currentColor" fill-rule="evenodd" d="M8.71 3q3.29.003 6.58 0c1.692-.001 3.281.076 4.566 1.282.738.693 1.227 1.69 1.963 3.191l.172.347c.28.558.56 1.119.735 1.718q.117.397.184.81c.09.554.09 1.12.09 2.018v.85a18 18 0 0 0-.052-1.207c-.055-.67-.173-1.271-.463-1.824a3.88 3.88 0 0 0-2.552-2.014c-.73-1.48-1.041-2.05-1.446-2.43-.823-.773-1.906-.759-2.975-.745Q15.297 5 15.084 5H8.916q-.212 0-.427-.004c-1.07-.014-2.152-.028-2.975.745-.405.38-.716.95-1.446 2.43a3.88 3.88 0 0 0-2.549 2.014c-.29.553-.408 1.153-.463 1.824A21 21 0 0 0 1 13.714v-1.348c0-.898 0-1.464.09-2.018q.067-.412.184-.81c.175-.599.456-1.161.735-1.72l.172-.345c.736-1.5 1.225-2.498 1.963-3.19C5.43 3.075 7.018 2.998 8.71 3M1.002 14.543v.518L1 15.001v-1.21zM16 12a1 1 0 1 0 0 2h2a1 1 0 1 0 0-2z" clip-rule="evenodd"/></svg>