<svg xmlns="http://www.w3.org/2000/svg" fill="none" viewBox="0 0 24 24"><path fill="currentColor" d="M7.577 4.214c.2-.462.3-.693.212-.829-.089-.135-.324-.135-.793-.135H4.182A2.93 2.93 0 0 0 1.25 6.175v7.871c0 1.778 0 3.211.152 4.338.158 1.17.495 2.156 1.28 2.938.784.783 1.771 1.12 2.944 1.276 1.13.152 2.566.152 4.348.152h6.004c1.323 0 2.415 0 3.278-.116.907-.122 1.708-.387 2.35-1.026.64-.64.906-1.439 1.028-2.344.116-.861.116-1.95.116-3.27v-2.088c0-1.32 0-2.409-.116-3.27-.122-.905-.388-1.704-1.029-2.344s-1.442-.905-2.349-1.026c-.626-.123-2.447-.129-3.278-.116H4.18a.976.976 0 1 1 0-1.95h2.591c.218 0 .327 0 .405-.056.079-.057.116-.166.19-.386a7 7 0 0 1 .21-.544" opacity=".4"/><path fill="currentColor" fill-rule="evenodd" d="M19.634 5.847a.157.157 0 0 1-.178.185c-.44-.08-1.136-.11-1.733-.125a49 49 0 0 0-1.755-.007h-7.25a.286.286 0 0 1-.283-.355 5.752 5.752 0 0 1 11.199.302M17.5 13a2 2 0 1 1 0 4 2 2 0 0 1 0-4" clip-rule="evenodd"/></svg>