<svg xmlns="http://www.w3.org/2000/svg" fill="none" viewBox="0 0 24 24"><path fill="currentColor" fill-rule="evenodd" d="M4.287 3.012C3.02 3.39 2.25 4.556 2.25 5.776v6.887c0 .53 0 .796.11.886s.452.02 1.134-.12a2.5 2.5 0 0 1 2.274.68l.808.808c.2.2.3.3.424.3s.224-.1.424-.3l.808-.808a2.5 2.5 0 0 1 3.536 3.536l-.808.807c-.2.2-.3.3-.3.425 0 .124.1.224.3.424l.808.808c.407.408.645.921.712 1.452.04.308.059.463.131.535s.199.089.45.121q.961.123 1.877.212c1.288.126 2.404.235 3.256.184.903-.053 1.67-.281 2.328-.883.666-.608.96-1.383 1.097-2.314.131-.89.131-2.018.131-3.412V13.88c0-1.359 0-2.45-.107-3.306-.11-.883-.344-1.63-.9-2.23-.433-.468-.992-.747-1.637-.93-.286-.08-.428-.12-.49-.217-.061-.095-.039-.238.006-.522.075-.478.125-.995.128-1.513.005-.985-.159-2.162-.863-3.02-.96-1.171-2.395-1.046-3.219-.973-4.874.414-8.428 1.264-10.38 1.843m10.454.032c.48-.04.817-.063 1.1-.018.237.038.39.115.525.28.284.345.448.983.443 1.846a8.6 8.6 0 0 1-.129 1.38c-.04.237-.06.356-.152.427-.091.071-.217.062-.469.043q-.48-.035-1.003-.07c-4.214-.293-7.829-.844-10.179-1.358-.29-.063-.436-.095-.473-.29-.038-.193.048-.251.22-.368a1 1 0 0 1 .234-.112c1.838-.545 5.16-1.359 9.883-1.76" clip-rule="evenodd" opacity=".4"/><path fill="currentColor" fill-rule="evenodd" d="M16.5 12.875a2 2 0 1 1 0 4 2 2 0 0 1 0-4M4.707 15.168a1 1 0 0 0-1.414 1.414l2.293 2.293-2.293 2.293a1 1 0 1 0 1.414 1.414L7 20.29l2.293 2.293a1 1 0 0 0 1.414-1.414l-2.293-2.293 2.293-2.293a1 1 0 0 0-1.414-1.414L7 17.46z" clip-rule="evenodd"/></svg>