<svg xmlns="http://www.w3.org/2000/svg" fill="none" viewBox="0 0 24 24"><path fill="currentColor" fill-rule="evenodd" d="M17.542 12.25h-5.084c-.902 0-1.639 0-2.23.064-.615.067-1.16.21-1.638.557a3.3 3.3 0 0 0-.72.719c-.346.477-.49 1.023-.556 1.638-.064.591-.064 1.328-.064 2.23v.084c0 .902 0 1.639.064 2.23.067.615.21 1.16.557 1.638.2.276.443.519.719.72.477.346 1.023.49 1.638.556.591.064 1.328.064 2.23.064h5.084c.902 0 1.639 0 2.23-.064.615-.067 1.16-.21 1.638-.557.276-.2.519-.443.72-.719.346-.477.49-1.023.556-1.638.064-.591.064-1.328.064-2.23v-.084c0-.902 0-1.639-.064-2.23-.067-.615-.21-1.16-.557-1.638a3.3 3.3 0 0 0-.719-.72c-.477-.346-1.023-.49-1.638-.556-.591-.064-1.328-.064-2.23-.064m-3.89 4.508a1 1 0 0 0-1.305-1.515l-.92.792-.032.028a5 5 0 0 0-.499.468c-.165.187-.396.51-.396.969s.23.782.396.97c.143.16.335.326.5.467l.031.028.92.793a1 1 0 0 0 1.306-1.515l-.862-.743zm2.695 0a1 1 0 0 1 1.306-1.515l.92.792.032.028c.164.142.356.307.499.468.165.187.396.51.396.969s-.23.782-.396.97c-.143.16-.335.326-.5.467l-.031.028-.92.793a1 1 0 0 1-1.306-1.515l.862-.743z" clip-rule="evenodd"/><path fill="currentColor" d="M12.047 1.25H9.953c-1.777 0-3.211 0-4.34.154-1.172.16-2.159.501-2.94 1.293-.78.79-1.115 1.783-1.272 2.964-.151 1.14-.151 2.59-.151 4.393v.14c0 1.803 0 3.253.151 4.393.157 1.181.492 2.174 1.271 2.964.624.632 1.38.98 2.267 1.176a.972.972 0 1 0 .421-1.899c-.623-.137-1.005-.344-1.298-.64-.362-.368-.599-.885-.728-1.856-.132-.997-.134-2.318-.134-4.208 0-1.12 0-2.04.029-2.811.01-.263.014-.395.101-.479s.222-.084.49-.084h14.36c.268 0 .402 0 .49.084s.092.216.101.479c.028.771.029 1.691.029 2.811 0 .537.436.973.975.973a.974.974 0 0 0 .975-.973v-.07c0-1.803 0-3.253-.151-4.393-.157-1.18-.492-2.174-1.271-2.964-.782-.792-1.769-1.134-2.942-1.293-1.128-.154-2.562-.154-4.339-.154" opacity=".4"/></svg>