<svg xmlns="http://www.w3.org/2000/svg" fill="none" viewBox="0 0 24 24"><path fill="currentColor" fill-rule="evenodd" d="M2 4c.602 0 .987 0 1.28.027.278.025.383.067.439.098a1 1 0 0 1 .323.286c.038.052.093.15.152.423.062.287.111.67.186 1.267l.53 4.15C5.057 11.386 6.09 12 7 12c1.639 0 3.05.986 3.668 2.4l.262.6h4.57v3a1 1 0 1 0 2 0v-2.776c.125.12.312.403.761 1.15.178.295.348.579.515.8.183.243.433.51.808.672q.215.093.448.132c.413.068.77-.032 1.054-.149.252-.103 1.116-.582 1.399-.739a1 1 0 1 0-.97-1.749c-.303.168-1.02.564-1.148.62a14 14 0 0 1-.499-.796c-.404-.675-.755-1.26-1.288-1.635a2.6 2.6 0 0 0-1.08-.456v-1.143c0-1.12 0-2.06-.1-2.807-.107-.792-.342-1.516-.925-2.099s-1.307-.818-2.099-.925C13.63 6 12.69 6 11.57 6H6.383c-.068-.544-.15-1.205-.235-1.59-.089-.412-.223-.812-.49-1.177a3 3 0 0 0-.97-.858c-.396-.219-.81-.302-1.229-.34C3.066 2 2.55 2 2 2a1 1 0 0 0 0 2m5.004 13.5c.826 0 1.496-.672 1.496-1.5s-.67-1.5-1.496-1.5h-.008c-.826 0-1.496.672-1.496 1.5s.67 1.5 1.496 1.5z" clip-rule="evenodd" opacity=".4"/><path fill="currentColor" fill-rule="evenodd" d="M3 16a4 4 0 1 1 8 0 4 4 0 0 1-8 0m4-6a6 6 0 1 0 0 12 6 6 0 0 0 0-12m9 9.5a.5.5 0 1 1 1 0 .5.5 0 0 1-1 0m.5-2.5a2.5 2.5 0 1 0 0 5 2.5 2.5 0 0 0 0-5" clip-rule="evenodd"/></svg>