<svg xmlns="http://www.w3.org/2000/svg" fill="none" viewBox="0 0 24 24"><path fill="currentColor" fill-rule="evenodd" d="M12.707 11.293a1 1 0 0 1 0 1.414l-4 4a1 1 0 0 1-1.414-1.414l4-4a1 1 0 0 1 1.414 0" clip-rule="evenodd" opacity=".4"/><path fill="currentColor" fill-rule="evenodd" d="M13.435 4.939c1.097-1.098 2.413-1.635 3.62-1.68-.947.58-1.965 1.392-2.936 2.364-.972.971-1.784 1.989-2.365 2.935.046-1.206.584-2.522 1.68-3.62m6.089-.637q.134-.033.217-.042-.009.084-.042.217c-.072.28-.22.646-.46 1.08-.478.865-1.26 1.897-2.275 2.911s-2.046 1.797-2.911 2.275c-.434.24-.8.388-1.08.46q-.134.034-.217.042.01-.084.042-.217c.072-.28.22-.646.46-1.08.478-.865 1.26-1.897 2.275-2.911s2.046-1.797 2.911-2.275c.434-.24.8-.388 1.08-.46m-1.146 5.58c-.971.972-1.988 1.784-2.935 2.365 1.206-.046 2.522-.583 3.62-1.68 1.097-1.098 1.634-2.414 1.68-3.62-.581.946-1.393 1.964-2.365 2.935m2.52-7.324c-2.483-2.14-6.373-1.538-8.877.966s-3.108 6.395-.967 8.878a5 5 0 0 0 .545.545c2.483 2.14 6.373 1.538 8.878-.966s3.107-6.395.966-8.878a5 5 0 0 0-.545-.545M8.078 15.922a2.294 2.294 0 0 0-3.244 0l-2.912 2.912a2.294 2.294 0 0 0 3.244 3.244l2.912-2.912a2.294 2.294 0 0 0 0-3.244" clip-rule="evenodd"/></svg>