<svg xmlns="http://www.w3.org/2000/svg" fill="none" viewBox="0 0 24 24"><path fill="currentColor" fill-rule="evenodd" d="M5.81 14.41c3.688-1.88 8.692-1.88 12.38 0 .185.094.277.14.298.23s-.041.176-.166.347l-.908 1.238c-.093.126-.139.19-.206.208s-.141-.013-.291-.076c-1.405-.59-3.198-.857-4.917-.857-1.72 0-3.512.267-4.917.857-.15.063-.224.094-.291.076s-.113-.082-.206-.208l-.907-1.238c-.126-.17-.188-.256-.167-.346s.113-.137.298-.23m9.78 3.588c-1.003-.32-2.27-.498-3.59-.498s-2.588.177-3.591.498c-.15.048-.224.072-.263.128a.2.2 0 0 0-.035.109c-.002.068.046.134.143.266.701.956 1.276 1.74 1.802 2.276.545.556 1.156.973 1.943.973s1.4-.416 1.944-.973c.526-.537 1.1-1.32 1.802-2.276.096-.132.145-.198.143-.266a.2.2 0 0 0-.035-.109c-.039-.056-.114-.08-.263-.128" clip-rule="evenodd"/><path fill="currentColor" fill-rule="evenodd" d="M3.668 4.76A15.1 15.1 0 0 1 12 2.25c3.058 0 5.913.92 8.332 2.51l.147.096c1.117.732 2.02 1.323 2.233 2.596.114.675-.036 1.26-.338 1.847q-.106.207-.241.424c-.099.16-.148.239-.23.257-.084.018-.165-.036-.329-.145-5.688-3.78-13.46-3.78-19.148 0-.164.109-.245.163-.328.145s-.132-.098-.23-.257a6 6 0 0 1-.242-.424c-.301-.586-.452-1.172-.338-1.847.214-1.273 1.116-1.864 2.233-2.596zM3.5 12.018l.507.691c.1.138.151.206.225.223.073.016.15-.026.302-.11 4.418-2.43 10.511-2.43 14.93 0 .152.084.228.126.302.11.073-.017.124-.085.225-.223l.507-.691c.114-.157.171-.235.156-.32-.015-.084-.094-.136-.253-.24-4.99-3.277-11.814-3.277-16.804 0-.159.104-.238.156-.254.24-.015.085.042.163.157.32" clip-rule="evenodd" opacity=".4"/></svg>