<svg xmlns="http://www.w3.org/2000/svg" fill="none" viewBox="0 0 24 24"><path fill="currentColor" d="M22.844 3.464a1 1 0 0 1-.308 1.38c-1.114.707-2.28 1.971-3.2 3.129a29 29 0 0 0-1.468 2.026l-.02.029-.003.006v.001a1 1 0 0 1-1.74-.089c-.44-.881-.835-1.232-1.035-1.365a.7.7 0 0 0-.164-.086A1 1 0 0 1 15 6.499l.076.003q.044.003.101.01.114.013.27.057c.208.06.458.165.733.348s.562.436.85.782c.216-.295.465-.625.741-.972.949-1.192 2.284-2.677 3.693-3.571a1 1 0 0 1 1.38.308"/><path fill="currentColor" fill-rule="evenodd" d="M1.355 10.236C4.662 7.443 8.305 6 12 6a1 1 0 1 1 0 2c-3.147 0-6.346 1.223-9.355 3.764a1 1 0 0 1-1.29-1.528M10.5 20a1.5 1.5 0 0 1 1.5-1.5h.012a1.5 1.5 0 0 1 0 3H12a1.5 1.5 0 0 1-1.5-1.5m-5.64-6.768c4.36-3.633 10.146-3.659 14.303.02a1 1 0 1 1-1.326 1.497c-3.378-2.989-8.056-3.015-11.697.02a1 1 0 0 1-1.28-1.537m2.683 3.06c2.39-2.39 6.524-2.39 8.914 0a1 1 0 1 1-1.414 1.415c-1.61-1.61-4.476-1.61-6.086 0a1 1 0 1 1-1.414-1.414" clip-rule="evenodd" opacity=".4"/></svg>