<svg xmlns="http://www.w3.org/2000/svg" fill="none" viewBox="0 0 24 24"><path fill="currentColor" fill-rule="evenodd" d="M12 1.25c.411 0 .814 0 1.113.032.317.034.657.111.96.34.52.392.654.95.674 1.383.014.313-.031.664-.062.903l-.19 1.764c-.023.23-.057.565-.159.867a1.7 1.7 0 0 1-.875 1.02 1.9 1.9 0 0 1-.7.174c-.208.017-.511.017-.787.017-.277 0-.527 0-.736-.017a1.9 1.9 0 0 1-.7-.175 1.7 1.7 0 0 1-.875-1.02c-.102-.301-.135-.635-.158-.866l-.19-1.764a5.5 5.5 0 0 1-.062-.903c.02-.434.153-.991.674-1.384.302-.228.642-.305.96-.34.298-.031.701-.031 1.113-.031m5.9 10.338 1.647.725c.225.094.555.231.821.401.37.235.79.632.87 1.284.046.379-.057.714-.188 1.009-.123.277-.328.63-.536.99s-.413.712-.592.957c-.19.26-.43.517-.78.665-.605.256-1.158.093-1.547-.109a5.5 5.5 0 0 1-.76-.508l-1.453-1.059c-.191-.137-.466-.335-.68-.576a1.7 1.7 0 0 1-.449-1.276c.018-.264.102-.493.2-.698.091-.192.231-.433.372-.675s.28-.484.4-.658a1.9 1.9 0 0 1 .506-.521c.457-.305.927-.33 1.33-.25.315.064.624.202.839.299m-9.127.472a1.9 1.9 0 0 0-.506-.521 1.72 1.72 0 0 0-1.33-.25c-.315.064-.624.202-.839.299l-1.647.725c-.225.094-.555.231-.82.401-.37.235-.79.632-.87 1.284-.047.379.056.714.187 1.009.124.277.328.63.536.99.21.36.413.712.592.957.19.26.43.517.78.665.605.256 1.158.093 1.547-.109.28-.145.565-.36.76-.508l1.453-1.059c.191-.137.466-.335.68-.576.272-.308.485-.727.449-1.276a1.9 1.9 0 0 0-.2-.698 10 10 0 0 0-.358-.652c-.14-.243-.294-.507-.414-.681" clip-rule="evenodd" opacity=".4"/><path fill="currentColor" fill-rule="evenodd" d="M7.856 3.157a.926.926 0 0 1-.247 1.314 7.7 7.7 0 0 0-3.365 5.41q-.03.239-.046.482c-.032.52-.495.917-1.032.885-.538-.031-.947-.48-.914-1q.018-.3.056-.598C2.663 6.855 4.24 4.433 6.5 2.918a.995.995 0 0 1 1.356.239m8.288 0a.995.995 0 0 1 1.356-.24c2.26 1.516 3.837 3.938 4.192 6.733q.038.297.056.598c.033.52-.376.969-.914 1-.537.032-1-.365-1.032-.885a8 8 0 0 0-.046-.483c-.285-2.248-1.553-4.194-3.366-5.409a.926.926 0 0 1-.246-1.314M5 21.75a1 1 0 0 1 1-1h4.999v-7.735a2.3 2.3 0 0 1-.455-.3l-.974.73-.025-.053a10 10 0 0 0-.358-.652c-.14-.242-.294-.507-.414-.681a2.3 2.3 0 0 0-.261-.32l1.245-.934c.068-.8.556-1.481 1.242-1.822v-1.28q.12.02.238.03c.209.016.459.016.736.016s.579 0 .788-.017q.117-.009.238-.029v1.28a2.25 2.25 0 0 1 1.242 1.823l1.245.934q-.149.153-.26.319c-.121.174-.261.416-.401.658a11 11 0 0 0-.397.73l-.974-.731q-.209.176-.455.3v7.734H18a1 1 0 1 1 0 2H6a1 1 0 0 1-1-1" clip-rule="evenodd"/></svg>