<svg xmlns="http://www.w3.org/2000/svg" fill="none" viewBox="0 0 24 24"><path fill="currentColor" fill-rule="evenodd" d="M17.2 3.645a.75.75 0 0 1 .202.381c.47 2.37.416 5.14.119 7.683-.029.243-.043.365-.126.44-.084.076-.208.079-.456.083l-.946.015-.183.002h-.03c-1.193.013-4.556.049-7.449-1.83-.255-.165-.383-.248-.4-.387s.093-.256.312-.49a53 53 0 0 0 4.68-5.798l.02-.031c.226-.325.43-.618.624-.838.207-.236.469-.47.838-.575.434-.124.853.007 1.128.127.3.13.586.317.82.49a8 8 0 0 1 .825.707l.015.014.004.005zm-.098 10.195c.092.11.06.273-.003.6a31 31 0 0 1-.678 2.845.75.75 0 0 1-.838.53c-2.226-.355-4.049-1.005-5.452-2.11a7.6 7.6 0 0 1-2.066-2.523c-.309-.598-.463-.897-.314-1.051.148-.155.483.001 1.15.313 2.914 1.362 5.869 1.32 6.885 1.305l.213-.002.506-.008c.337-.006.505-.008.597.101" clip-rule="evenodd" opacity=".4"/><path fill="currentColor" fill-rule="evenodd" d="M16.928 1.602a1 1 0 0 0-1.835.796c.251.58.448 1.243.593 1.972.5 2.515.352 5.646-.078 8.435a32 32 0 0 1-.866 3.991 14 14 0 0 1-.5 1.454H2a.75.75 0 0 0-.243 1.46c1.504.515 3.1.994 4.707 1.412l-.171.17a1 1 0 1 0 1.414 1.415l1-1 .035-.037c3.01.667 5.937 1.08 8.258 1.08a6.8 6.8 0 0 0 4.076-1.375 5.8 5.8 0 0 0 1.167-1.15c.14-.188.26-.382.347-.573.082-.18.16-.408.16-.652a.75.75 0 0 0-.75-.75h-5.62q.144-.418.282-.891c.348-1.186.678-2.658.923-4.25.447-2.896.627-6.289.064-9.128-.167-.838-.4-1.642-.72-2.379" clip-rule="evenodd"/></svg>