<svg xmlns="http://www.w3.org/2000/svg" fill="none" viewBox="0 0 24 24"><path fill="currentColor" d="M5.603 6.134A5.77 5.77 0 0 0 1 11.79a5.77 5.77 0 0 0 3.825 5.44c.392.14.588.21.677.125s.014-.335-.134-.835c-.28-.943-.002-2.025.804-2.683 1.542-1.26 3.46-2.046 5.573-2.046 2.12 0 4.042.791 5.586 2.057.851.698 1.11 1.865.747 2.841-.166.448-.25.672-.169.763s.267.043.637-.052a5.27 5.27 0 0 0 3.954-5.108 5.264 5.264 0 0 0-4.503-5.216C17.893 3.702 15.136 1 11.75 1 8.686 1 6.137 3.213 5.603 6.134" opacity=".4"/><path fill="currentColor" fill-rule="evenodd" d="M11.995 13.5c-1.73 0-3.32.64-4.626 1.702a1 1 0 0 0 1.262 1.551c.992-.806 2.146-1.253 3.364-1.253 1.222 0 2.379.45 3.373 1.261a1 1 0 1 0 1.265-1.549c-1.309-1.069-2.904-1.712-4.638-1.712m0 3.36c-.98 0-1.898.287-2.698.783a1 1 0 1 0 1.054 1.7 3.1 3.1 0 0 1 1.643-.484c.582 0 1.14.17 1.65.488a1 1 0 1 0 1.059-1.697 5.1 5.1 0 0 0-2.709-.79M11 21.5a1 1 0 0 1 1-1h.006a1 1 0 1 1 0 2H12a1 1 0 0 1-1-1" clip-rule="evenodd"/></svg>