<svg xmlns="http://www.w3.org/2000/svg" fill="none" viewBox="0 0 24 24"><path fill="currentColor" d="M12.25 4.375a2.25 2.25 0 1 1 4.5 0 2.25 2.25 0 0 1-4.5 0"/><path fill="currentColor" d="M15.367 7.86c-.248-.184-.524-.313-.835-.458l-1.795-.838a14 14 0 0 0-1.13-.491c-.359-.13-.73-.217-1.148-.195-.417.023-.777.149-1.121.314-.317.153-.675.368-1.076.609l-1.025.614c-.341.205-.643.386-.9.637-.254.25-.444.55-.661.893l-1.52 2.394a1 1 0 0 0 1.688 1.072l1.477-2.326c.285-.449.348-.537.417-.605.067-.065.15-.123.597-.39l.921-.554c.3-.18.524-.313.706-.415l-2.842 5.28a1 1 0 0 0 .066 1.055l1.447 2.026a1 1 0 0 1-.155 1.334l-2.636 2.306a1 1 0 1 0 1.317 1.506l2.636-2.307a3 3 0 0 0 .466-4.002l-.318-.444H13a1 1 0 0 1 .8.4l2.4 3.2a1 1 0 1 0 1.6-1.2l-2.4-3.2a3 3 0 0 0-1.998-1.173l1.561-2.23c.22.368.441.69.732.944.274.24.59.43.933.555.492.18 1.025.18 1.618.179H19a1 1 0 1 0 0-2h-.629c-.794 0-.94-.015-1.054-.056a1 1 0 0 1-.306-.183c-.104-.091-.234-.293-.64-1.004-.176-.307-.328-.574-.53-.806a3 3 0 0 0-.474-.44" opacity=".4"/></svg>