<svg xmlns="http://www.w3.org/2000/svg" fill="none" viewBox="0 0 24 24"><path fill="currentColor" d="M9.25 4.375a2.25 2.25 0 1 1 4.5 0 2.25 2.25 0 0 1-4.5 0"/><path fill="currentColor" d="M12.915 8.432c.476.217.871.398 1.11.481.22.078.321.086.39.083.07-.004.172-.021.383-.119.23-.105.514-.267.968-.528l1.736-.997a1 1 0 1 1 .996 1.734l-1.77 1.017c-.41.235-.773.444-1.094.591-.349.16-.71.28-1.125.3s-.786-.067-1.148-.194c-.334-.117-.909-.38-1.338-.576-.503.571-.937 1.33-1.288 2.14a13 13 0 0 0-.524 1.436c.58 0 1.144 0 1.575.063.47.07 1.028.243 1.409.774.38.53.367 1.113.284 1.581-.076.43-.247.945-.43 1.499l-1.152 3.472a1 1 0 1 1-1.898-.63l1.13-3.41c.212-.638.338-1.037.385-1.305-.266-.039-.677-.044-1.347-.044H7.863c-.42 0-.85 0-1.21-.061-.435-.074-.881-.253-1.23-.683-.331-.409-.432-.854-.422-1.292.007-.35.089-.745.165-1.112.301-1.464.941-3.48 2.18-4.866.262-.294.654-.736 1.304-.872.656-.138 1.207.118 1.62.31z" opacity=".4"/></svg>