<svg xmlns="http://www.w3.org/2000/svg" fill="none" viewBox="0 0 24 24"><path fill="currentColor" d="M13.465 4.75H9.548c-1.744 0-3.13 0-4.217.149-1.121.153-2.034.478-2.753 1.21-.716.731-1.032 1.655-1.182 2.791-.146 1.104-.146 2.626-.146 4.405s0 3.19.146 4.295c.15 1.136.466 2.06 1.183 2.79.718.733 1.63 1.058 2.752 1.211 1.086.149 2.473.149 4.217.149h2.708a6.75 6.75 0 0 1 9.494-9.494v-1.271c-.045-2.176-.223-3.763-1.315-4.875-.719-.733-1.631-1.058-2.752-1.211-1.087-.149-2.473-.149-4.218-.149" opacity=".4"/><path fill="currentColor" fill-rule="evenodd" d="M11.5 1.25c.703 0 1.49 0 1.99.056.54.061 1.048.196 1.511.525.46.328.745.756.97 1.232.21.446.4 1.012.623 1.673l.022.065a40 40 0 0 0-2.025-.05 12 12 0 0 0-.363-.944c-.152-.324-.267-.447-.37-.52-.099-.07-.245-.136-.593-.175-.375-.042-.995-.044-1.764-.044-.77 0-1.39.002-1.765.044-.348.04-.494.105-.593.176-.103.072-.218.195-.37.519a12 12 0 0 0-.363.945 39 39 0 0 0-2.025.05l.022-.066c.223-.661.414-1.227.624-1.673.224-.476.509-.904.969-1.232.463-.33.972-.464 1.512-.525.5-.056 1.287-.056 1.989-.056m6 11a5.25 5.25 0 1 1 0 10.5 5.25 5.25 0 0 1 0-10.5m0 2.7a.75.75 0 0 0-.75.75v2.25c0 .25.125.484.334.623l1.35.9a.75.75 0 0 0 .832-1.248l-1.016-.677v-1.849a.75.75 0 0 0-.75-.75" clip-rule="evenodd"/></svg>