<svg xmlns="http://www.w3.org/2000/svg" fill="none" viewBox="0 0 24 24"><path fill="currentColor" fill-rule="evenodd" d="M5.95 1.25h.1c.664 0 1.237 0 1.696.062.491.066.963.215 1.345.597s.531.854.597 1.345c.062.459.062 1.032.062 1.697v.098c0 .665 0 1.238-.062 1.697-.066.491-.215.963-.597 1.345s-.854.531-1.345.597c-.459.062-1.032.062-1.697.062h-.098c-.665 0-1.238 0-1.697-.062-.491-.066-.963-.215-1.345-.597s-.531-.854-.597-1.345c-.062-.459-.062-1.032-.062-1.697V4.95c0-.664 0-1.237.062-1.696.066-.491.215-.963.597-1.345s.854-.531 1.345-.597c.459-.062 1.032-.062 1.697-.062m0 14h.1c.664 0 1.237 0 1.696.062.491.066.963.215 1.345.597s.531.853.597 1.345c.062.459.062 1.032.062 1.697v.098c0 .665 0 1.238-.062 1.697-.066.492-.215.963-.597 1.345s-.854.531-1.345.597c-.459.062-1.032.062-1.697.062h-.098c-.665 0-1.238 0-1.697-.062-.491-.066-.963-.215-1.345-.597s-.531-.854-.597-1.345c-.062-.459-.062-1.032-.062-1.697v-.099c0-.664 0-1.237.062-1.696.066-.492.215-.963.597-1.345s.854-.531 1.345-.597c.459-.062 1.032-.062 1.697-.062M18 3.25h-.05c-.664 0-1.237 0-1.696.062-.492.066-.963.215-1.345.597s-.531.854-.597 1.345c-.062.459-.062 1.032-.062 1.697v.099c0 .664 0 1.237.062 1.696.066.491.215.963.597 1.345s.853.531 1.345.597c.459.062 1.032.062 1.697.062h.098c.665 0 1.238 0 1.697-.062.492-.066.963-.215 1.345-.597s.531-.854.597-1.345c.062-.459.062-1.032.062-1.697v-.098c0-.665 0-1.238-.062-1.697-.066-.491-.215-.963-.597-1.345s-.854-.531-1.345-.597c-.459-.062-1.032-.062-1.697-.062z" clip-rule="evenodd" opacity=".4"/><path fill="currentColor" d="M5 8.742c.29.009.608.009.95.009h.1c.342 0 .66 0 .95-.009v3.794A4 4 0 0 1 9 12h6a2 2 0 0 0 1.86-1.264c.327.014.692.014 1.09.014h.1q.474.002.881-.007A4 4 0 0 1 15 14.001H9a2 2 0 0 0-1.86 1.263c-.327-.013-.692-.013-1.09-.013h-.1q-.514-.002-.95.008z"/></svg>