<svg xmlns="http://www.w3.org/2000/svg" fill="none" viewBox="0 0 24 24"><path fill="currentColor" d="M12.057 1.75c2.19 0 3.912 0 5.255.18 1.377.186 2.469.573 3.327 1.43.858.86 1.245 1.951 1.43 3.328.181 1.343.181 3.064.181 5.255v.114c0 2.19 0 3.912-.18 5.255-.186 1.377-.573 2.469-1.43 3.327-.86.858-1.951 1.245-3.328 1.43-1.343.181-3.064.181-5.255.181h-.114c-2.19 0-3.912 0-5.255-.18-1.377-.186-2.469-.573-3.327-1.43-.858-.86-1.245-1.951-1.43-3.328-.181-1.343-.181-3.064-.181-5.255v-.114c0-2.19 0-3.912.18-5.255.186-1.377.573-2.469 1.43-3.327.86-.858 1.951-1.245 3.328-1.43 1.343-.181 3.064-.181 5.255-.181z" opacity=".4"/><path fill="currentColor" fill-rule="evenodd" d="M5.364 7.603A.75.75 0 0 1 6 7.25h4.2a.75.75 0 0 1 .674.421l.488 1a.75.75 0 0 1-1.349.658l-.282-.579H7.2l2.7 5.539 3.226-6.618a.75.75 0 0 1 .674-.421H18a.75.75 0 0 1 .674 1.079l-3.9 8a.75.75 0 0 1-1.348 0l-.773-1.585a.75.75 0 1 1 1.349-.657l.098.202 2.7-5.539h-2.531l-3.695 7.579a.75.75 0 0 1-1.348 0l-3.9-8a.75.75 0 0 1 .038-.727" clip-rule="evenodd"/></svg>