<svg xmlns="http://www.w3.org/2000/svg" fill="none" viewBox="0 0 24 24"><path fill="currentColor" d="M11.988 17.075c.364-.364.545-.546.508-.708s-.302-.254-.833-.44a5.85 5.85 0 0 1-3.588-3.589c-.186-.53-.278-.796-.44-.833s-.343.144-.707.508l-4.13 4.13a3.578 3.578 0 0 0 5.06 5.06z" opacity=".4"/><path fill="currentColor" fill-rule="evenodd" d="M13.985 14.75c3.49.002 5.787.003 7.028-1.239 1.239-1.238 1.239-1.812 1.237-6.924v-.64a.618.618 0 0 0-1.055-.44l-2.94 2.94a1.91 1.91 0 1 1-2.7-2.703l2.939-2.939a.618.618 0 0 0-.44-1.055h-.64c-5.113-.002-5.687-.002-6.925 1.237-1.242 1.24-1.24 3.538-1.239 7.027v.402a4.335 4.335 0 0 0 4.332 4.334zm-8.49 2.5c-.688 0-1.245.56-1.245 1.25s.557 1.25 1.244 1.25h.012c.687 0 1.244-.56 1.244-1.25s-.557-1.25-1.244-1.25z" clip-rule="evenodd"/></svg>