<svg xmlns="http://www.w3.org/2000/svg" fill="none" viewBox="0 0 24 24"><path fill="currentColor" d="M21.75 10.955c0-1.837 0-3.276-.124-4.419-.126-1.165-.388-2.11-.974-2.916a5.8 5.8 0 0 0-1.272-1.272c-.807-.586-1.75-.848-2.916-.974-1.143-.124-2.582-.124-4.419-.124h-.09c-1.837 0-3.276 0-4.419.124-1.165.126-2.11.388-2.916.974A5.8 5.8 0 0 0 3.348 3.62c-.586.807-.848 1.75-.974 2.916-.124 1.143-.124 2.582-.124 4.419v2.09c0 1.837 0 3.276.124 4.419.126 1.165.388 2.11.974 2.916a5.8 5.8 0 0 0 1.272 1.272c.807.586 1.75.848 2.916.974 1.143.124 2.582.124 4.419.124h.09c1.837 0 3.276 0 4.419-.124 1.165-.126 2.11-.388 2.916-.974a5.8 5.8 0 0 0 1.272-1.272c.586-.807.848-1.75.974-2.916.124-1.143.124-2.582.124-4.419z" opacity=".4"/><path fill="currentColor" d="M13 5.25a1 1 0 1 0-2 0v1.683c-.22.266-.409.317-.5.317-.111 0-.368-.076-.652-.53a1 1 0 0 0-1.696 1.06c.49.783 1.291 1.47 2.348 1.47q.26-.001.5-.053v.584a2.6 2.6 0 0 1-1.5.469 2.6 2.6 0 0 1-1.807-.721 1 1 0 0 0-1.386 1.442A4.6 4.6 0 0 0 9.5 12.25a4.6 4.6 0 0 0 1.5-.248v1.538a11 11 0 0 1-1.501-.233c-1.271-.295-2.749.612-2.749 2.098 0 .74.41 1.51 1.195 1.802q.532.197 1.122.34c.395.096.711.345.862.68l.106.235A2.16 2.16 0 0 0 12 19.75a2.16 2.16 0 0 0 1.965-1.288l.106-.236c.151-.334.467-.583.862-.679a10 10 0 0 0 1.122-.34c.785-.292 1.195-1.062 1.195-1.802 0-1.485-1.478-2.393-2.749-2.098A11 11 0 0 1 13 13.54v-1.538c.47.16.975.248 1.5.248a4.6 4.6 0 0 0 3.193-1.279 1 1 0 1 0-1.386-1.442c-.463.445-1.1.721-1.807.721a2.6 2.6 0 0 1-1.5-.469v-.584q.24.052.5.053c1.057 0 1.859-.687 2.348-1.47a1 1 0 1 0-1.696-1.06c-.284.454-.54.53-.652.53-.091 0-.28-.05-.5-.317z"/></svg>