<svg xmlns="http://www.w3.org/2000/svg" fill="none" viewBox="0 0 24 24"><path fill="currentColor" fill-rule="evenodd" d="M12 1.25a2.75 2.75 0 1 1 0 5.5 2.75 2.75 0 0 1 0-5.5M18.75 14a6.75 6.75 0 0 0-13.5 0c0 .414.336.75.75.75a6.75 6.75 0 0 0 6-3.655 6.75 6.75 0 0 0 6 3.655.75.75 0 0 0 .75-.75" clip-rule="evenodd"/><path fill="currentColor" d="m3.444 18.56 3.647-1.908c.423-.222.753-.5.965-.718.147-.15.22-.225.27-.257.048-.03.128-.059.287-.114a8 8 0 0 0 3.077-1.94c.15-.152.226-.228.309-.228.084 0 .159.076.31.228a8 8 0 0 0 3.076 1.94c.159.055.239.083.288.114.05.032.123.107.269.257.212.217.542.496.965.718l3.647 1.907c1.082.566 1.385 1.655 1.084 2.574a2.36 2.36 0 0 1-2.27 1.617c-1.871 0-3.53-.455-5.1-1.06a50 50 0 0 1-2.105-.897c-.081-.036-.121-.054-.164-.054s-.083.018-.164.054c-.697.312-1.524.673-2.105.897-1.57.605-3.229 1.06-5.1 1.06a2.36 2.36 0 0 1-2.27-1.617c-.301-.919.002-2.008 1.084-2.574" opacity=".4"/></svg>