<svg xmlns="http://www.w3.org/2000/svg" fill="none" viewBox="0 0 24 24"><path fill="currentColor" fill-rule="evenodd" d="m12 19.897.005.007c.663 1.028 1.805 1.843 3.509 1.843.628 0 1.16-.158 1.62-.326.161-.058.305-.114.44-.167.281-.11.527-.205.815-.282.723-.193 1.643-.237 3.239.676a.75.75 0 0 0 1.108-.798c-.425-2.124-1.306-3.623-2.704-4.488-1.188-.755-4.255-1.644-8.032-.165-3.777-1.48-6.843-.59-8.031.165-1.4.865-2.28 2.364-2.704 4.488a.75.75 0 0 0 1.108.798c1.595-.913 2.516-.869 3.238-.676.288.077.534.173.815.282q.2.079.44.167c.46.168.993.326 1.62.326 1.704 0 2.847-.815 3.51-1.843z" clip-rule="evenodd" opacity=".4"/><path fill="currentColor" fill-rule="evenodd" d="M12 2.25c.205 0 .4.084.542.231.185.194.365.415.514.603.298.375.694.916 1.09 1.584C14.93 5.995 15.75 7.88 15.75 10s-.82 4.005-1.605 5.332l-.124.207.215-.052c1.32-.332 2.877-.957 4.053-2.111s1.815-2.68 2.153-3.975c.108-.412.183-.793.235-1.118-.734.116-1.761.347-2.75.764a.985.985 0 0 1-1.285-.502.95.95 0 0 1 .512-1.259 13.8 13.8 0 0 1 3.158-.887c.422-.067.887-.137 1.44-.149a1 1 0 0 1 .712.28.95.95 0 0 1 .286.7c0 .235-.036.55-.063.785-.055.469-.158 1.12-.352 1.861-.383 1.467-1.142 3.363-2.663 4.855-1.522 1.493-3.456 2.237-4.951 2.612-.756.19-1.42.291-1.898.345q-.345.03-.633.037a.75.75 0 0 1-.368.004 5 5 0 0 1-.645-.04 15 15 0 0 1-1.898-.346c-1.495-.375-3.429-1.12-4.95-2.612s-2.281-3.388-2.664-4.855a14 14 0 0 1-.352-1.86 7 7 0 0 1-.063-.787.95.95 0 0 1 .286-.698 1 1 0 0 1 .713-.28c.384.007 1.017.08 1.439.148.84.134 1.98.39 3.158.887.496.21.725.773.511 1.26a.985.985 0 0 1-1.283.501c-.99-.417-2.017-.648-2.751-.764.052.325.127.706.235 1.118.338 1.294.976 2.82 2.153 3.975 1.176 1.154 2.733 1.779 4.053 2.11l.216.053-.125-.207C9.069 14.005 8.25 12.12 8.25 10s.82-4.005 1.605-5.332a14 14 0 0 1 1.089-1.584 9 9 0 0 1 .514-.603A.75.75 0 0 1 12 2.25" clip-rule="evenodd"/></svg>