<svg xmlns="http://www.w3.org/2000/svg" fill="none" viewBox="0 0 24 24"><path fill="currentColor" d="M12 2.75c-1.858 0-3.644.184-5.303.522l-.127.026c-1.895.385-3.157.642-4.245 2.04-1.076 1.385-1.076 2.99-1.075 5.474v2.376c0 2.485-.001 4.09 1.075 5.473 1.088 1.399 2.35 1.656 4.245 2.041l.127.026A26.6 26.6 0 0 0 12 21.25a26.6 26.6 0 0 0 5.303-.522l.128-.026c1.894-.385 3.157-.642 4.244-2.04 1.077-1.385 1.076-2.99 1.075-5.474v-2.376c.001-2.485.002-4.09-1.075-5.473-1.087-1.399-2.35-1.656-4.244-2.041l-.128-.026A26.6 26.6 0 0 0 12 2.75" opacity=".4"/><path fill="currentColor" d="M13.213 9.252c-.77-.43-1.4-.782-1.918-1-.843-.354-1.737-.382-2.472.22-.46.377-.622.916-.694 1.46a16.6 16.6 0 0 0 0 4.136c.072.544.234 1.083.694 1.46.735.602 1.629.574 2.472.22.518-.218 1.148-.57 1.918-1 .602-.336 1.22-.658 1.782-1.062.42-.302.818-.676.95-1.22a2 2 0 0 0 0-.931c-.132-.545-.53-.92-.95-1.221-.561-.404-1.18-.726-1.782-1.062"/></svg>