<svg xmlns="http://www.w3.org/2000/svg" fill="none" viewBox="0 0 24 24"><path fill="currentColor" fill-rule="evenodd" d="M11.999 2c5.522 0 10 4.477 10 10-4.4 4-10.83 4.25-13.602 3 .378 2.525 1.447 4.979 3.603 7-5.523 0-10-4.477-10-10 .598.833 2.713 2.6 6.395 3-.744-4.969 1.187-10.21 2.77-12.966Q11.579 2.001 12 2" clip-rule="evenodd" opacity=".4"/><path fill="currentColor" fill-rule="evenodd" d="M9.717 3.034c-3.903.99-6.817 4.464-6.961 8.64 1.318 1.153 2.907 1.97 4.635 2.471a18 18 0 0 1-.149-2.332c.005-3.187.856-6.386 2.475-8.78m2.135-.283c-1.963 2.094-3.104 5.513-3.11 9.064-.001.906.071 1.81.22 2.693.946.167 1.92.247 2.904.244 3.385-.01 6.793-1.006 9.384-2.783a9.25 9.25 0 0 0-9.398-9.218M7.687 15.775c-1.714-.412-3.345-1.1-4.784-2.09a9.26 9.26 0 0 0 7.207 7.372c-1.183-1.543-1.977-3.367-2.423-5.282m4.595 5.47c-1.426-1.376-2.407-3.18-2.968-5.164.845.118 1.7.173 2.556.171 3.226-.01 6.498-.846 9.194-2.396-.841 4.13-4.435 7.26-8.782 7.39M1.25 12C1.25 6.063 6.063 1.25 12 1.25S22.75 6.063 22.75 12 17.937 22.75 12 22.75 1.25 17.937 1.25 12" clip-rule="evenodd"/></svg>