<svg xmlns="http://www.w3.org/2000/svg" fill="none" viewBox="0 0 24 24"><path fill="currentColor" fill-rule="evenodd" d="M7.042 2.418a.75.75 0 0 1-.665.828c-1.31.144-2.03.453-2.553 1.04-.48.54-.765 1.282-.914 2.524-.15 1.255-.152 2.903-.152 5.19s.002 3.935.152 5.19c.149 1.242.433 1.985.914 2.525.523.586 1.243.895 2.553 1.04a.75.75 0 1 1-.166 1.49c-1.477-.163-2.633-.549-3.511-1.534-.775-.869-1.119-1.965-1.284-3.343-.162-1.354-.162-3.092-.162-5.316v-.103c0-2.225 0-3.962.162-5.317.165-1.378.51-2.474 1.284-3.343.878-.985 2.034-1.371 3.511-1.534a.75.75 0 0 1 .831.663m9.99 0a.75.75 0 0 1 .83-.663c1.477.163 2.634.549 3.512 1.534.774.869 1.118 1.965 1.283 3.343.163 1.355.163 3.092.163 5.317v.103c0 2.224 0 3.962-.163 5.316-.165 1.378-.509 2.474-1.283 3.343-.878.985-2.035 1.372-3.512 1.535a.75.75 0 1 1-.165-1.49c1.31-.146 2.03-.455 2.552-1.041.481-.54.765-1.283.914-2.525.15-1.255.152-2.903.152-5.19s-.001-3.935-.152-5.19c-.149-1.242-.433-1.985-.914-2.525-.522-.586-1.242-.895-2.553-1.04a.75.75 0 0 1-.665-.827" clip-rule="evenodd" opacity=".4"/><path fill="currentColor" fill-rule="evenodd" d="M7.628 8.748c.772-.03 1.284-.014 1.661.095.318.091.546.25.746.591.277.555.711 1.49 1.15 2.448-.517.698-1.142 1.51-1.838 2.176-.832.796-1.608 1.225-2.283 1.192a.75.75 0 1 0-.075 1.498c1.331.066 2.507-.754 3.4-1.608a16 16 0 0 0 1.505-1.704c.31.681.572 1.254.714 1.548.238.49.57 1.033 1.25 1.384.648.333 1.504.438 2.668.36a.75.75 0 1 0-.101-1.498c-1.062.072-1.59-.048-1.876-.195-.252-.13-.401-.322-.585-.702-.133-.274-.44-.947-.805-1.747l-.236-.518.037-.05c.465-.617 1.012-1.344 1.657-1.978.815-.803 1.631-1.296 2.425-1.291a.751.751 0 1 0 .01-1.5c-1.413-.01-2.602.847-3.492 1.723-.504.496-.96 1.049-1.348 1.547a72 72 0 0 0-.841-1.776l-.01-.018-.01-.018c-.399-.697-.95-1.105-1.644-1.305-.638-.184-1.375-.183-2.138-.153a.75.75 0 1 0 .06 1.5" clip-rule="evenodd"/></svg>