<svg xmlns="http://www.w3.org/2000/svg" fill="none" viewBox="0 0 24 24"><path fill="currentColor" d="M22 12c0-5.523-4.477-10-10-10S2 6.477 2 12s4.477 10 10 10 10-4.477 10-10" opacity=".4"/><path fill="currentColor" fill-rule="evenodd" d="M11.25 2a.75.75 0 0 1 .75-.75c5.937 0 10.75 4.813 10.75 10.75S17.937 22.75 12 22.75 1.25 17.937 1.25 12a.75.75 0 0 1 1.5 0A9.25 9.25 0 1 0 12 2.75a.75.75 0 0 1-.75-.75m-2.063.2a.75.75 0 0 1-.387.987 11 11 0 0 0-2.172 1.269.75.75 0 1 1-.902-1.2A12.4 12.4 0 0 1 8.2 1.814a.75.75 0 0 1 .987.387m-4.88 3.377a.75.75 0 0 1 .149 1.05A11 11 0 0 0 3.187 8.8a.75.75 0 0 1-1.374-.6 12.4 12.4 0 0 1 1.444-2.474.75.75 0 0 1 1.05-.149M12.75 8a.75.75 0 0 0-1.5 0v3.25H8a.75.75 0 0 0 0 1.5h3.25V16a.75.75 0 0 0 1.5 0v-3.25H16a.75.75 0 0 0 0-1.5h-3.25z" clip-rule="evenodd"/></svg>