<svg xmlns="http://www.w3.org/2000/svg" fill="none" viewBox="0 0 24 24"><path fill="currentColor" d="M12.5 2.148h-1c-3.771 0-5.657 0-6.828 1.172S3.5 6.377 3.5 10.148v9.5a2.5 2.5 0 0 1 2.5-2.5h14.5v-7c0-3.77 0-5.656-1.172-6.828S16.271 2.148 12.5 2.148" opacity=".4"/><path fill="currentColor" fill-rule="evenodd" d="M13.378 1.25c1.457.003 2.647.023 3.611.153 1.172.157 2.121.49 2.87 1.238.748.748 1.08 1.697 1.238 2.87.153 1.139.153 2.594.153 4.432v7.056a.75.75 0 0 1-.75.75 1.75 1.75 0 1 0 0 3.5.75.75 0 0 1 0 1.5H6a3.25 3.25 0 0 1-3.25-3.25V9.122c.004-1.457.024-2.648.153-3.612.158-1.172.49-2.12 1.238-2.87.749-.748 1.698-1.08 2.87-1.237.964-.13 2.154-.15 3.611-.153zm4.383 16.5H6a1.75 1.75 0 1 0 0 3.5h11.76a3.24 3.24 0 0 1-.51-1.75c0-.645.188-1.245.51-1.75m-4.527-15h-2.468c-1.528.002-2.665.02-3.555.14-1.006.134-1.586.388-2.01.811-.422.424-.676 1.003-.811 2.01-.12.89-.137 2.026-.14 3.555v7.494A3.24 3.24 0 0 1 6 16.25h13.75V10c0-1.907-.002-3.262-.14-4.29-.135-1.006-.389-1.585-.812-2.009s-1.003-.677-2.009-.812c-.89-.12-2.027-.137-3.555-.14M15 6.25a.75.75 0 0 1 .75.75v5a.75.75 0 0 1-1.5 0V7a.75.75 0 0 1 .75-.75m-4.846 0c.614 0 1.206.375 1.407.998l1.46 4.52a.75.75 0 0 1-1.427.462l-.317-.98H9.031l-.317.98a.75.75 0 0 1-1.427-.461l1.46-4.521c.201-.623.793-.999 1.407-.999m0 1.522L9.515 9.75h1.278z" clip-rule="evenodd"/></svg>