<svg xmlns="http://www.w3.org/2000/svg" fill="none" viewBox="0 0 24 24"><path fill="currentColor" d="M11.002 2.001h.5c3.27 0 4.91 0 6.11.74.67.41 1.24.98 1.65 1.65.74 1.2.74 2.84.74 6.11v.5c0 2.39 0 4.01-.25 5.22-.48-.49-.87-1.07-1.12-1.72l-.04-.09c-.21-.54-.97-.54-1.19 0l-.04.09a5.13 5.13 0 0 1-2.87 2.87l-.09.04c-.54.21-.54.97 0 1.19l.09.04c.65.26 1.23.64 1.72 1.12-1.21.25-2.83.25-5.22.25-3.75 0-5.62 0-6.94-.95-.42-.31-.8-.68-1.11-1.11-.96-1.31-.96-3.19-.96-6.94s0-5.62.96-6.94c.31-.42.68-.8 1.11-1.11 1.31-.95 3.19-.95 6.94-.95z" opacity=".4"/><path fill="currentColor" fill-rule="evenodd" d="M10.962 1.251h.58c1.6 0 2.86 0 3.86.1 1.02.1 1.86.3 2.6.75.77.47 1.42 1.12 1.9 1.9.45.74.65 1.58.75 2.6.09 1 .09 2.26.09 3.86v.04c0 .41-.34.75-.75.75s-.75-.34-.75-.75c0-1.65 0-2.84-.09-3.76-.09-.91-.25-1.49-.54-1.96-.35-.57-.83-1.05-1.4-1.4-.46-.28-1.04-.45-1.96-.54-.93-.09-2.11-.09-3.76-.09h-.5c-1.89 0-3.25 0-4.3.11-1.04.11-1.69.33-2.2.7-.36.26-.68.58-.94.94-.37.51-.59 1.16-.7 2.2-.11 1.05-.11 2.41-.11 4.3s0 3.25.11 4.3c.11 1.04.33 1.69.7 2.2.26.36.58.68.94.94.51.37 1.16.59 2.2.7 1.05.11 2.41.11 4.3.11.41 0 .75.34.75.75s-.34.75-.75.75h-.04c-1.84 0-3.28 0-4.42-.12-1.17-.13-2.11-.39-2.92-.97-.49-.36-.92-.78-1.27-1.27-.59-.81-.85-1.75-.97-2.92-.12-1.14-.12-2.58-.12-4.42v-.09c0-1.84 0-3.28.12-4.42.13-1.17.39-2.11.97-2.92.35-.49.78-.92 1.27-1.27.81-.59 1.75-.85 2.92-.97 1.14-.12 2.58-.12 4.42-.12zm5.75 12.88c.46-1.17 2.12-1.17 2.58 0 .44 1.12 1.46 2.14 2.58 2.58 1.17.46 1.17 2.12 0 2.58-1.12.44-2.14 1.46-2.58 2.58-.46 1.17-2.12 1.17-2.58 0-.44-1.12-1.46-2.14-2.58-2.58-1.17-.46-1.17-2.12 0-2.58 1.12-.44 2.14-1.46 2.58-2.58m1.29.8c-.6 1.32-1.75 2.48-3.07 3.07 1.32.6 2.47 1.75 3.07 3.07.6-1.32 1.75-2.48 3.07-3.07a6.36 6.36 0 0 1-3.07-3.07m-11-8.68c-.41 0-.75.34-.75.75v1c0 .41.34.75.75.75s.75-.34.75-.75v-.25h2.5v6.5h-.25c-.41 0-.75.34-.75.75s.34.75.75.75h2c.41 0 .75-.34.75-.75s-.34-.75-.75-.75h-.25v-6.5h2.5v.25c0 .41.34.75.75.75s.75-.34.75-.75v-1c0-.41-.34-.75-.75-.75z" clip-rule="evenodd"/></svg>