<svg xmlns="http://www.w3.org/2000/svg" fill="none" viewBox="0 0 24 24"><path fill="currentColor" d="M20 11a9 9 0 1 0-18 0 9 9 0 0 0 18 0" opacity=".4"/><path fill="currentColor" fill-rule="evenodd" d="M1.25 11c0-5.385 4.365-9.75 9.75-9.75s9.75 4.365 9.75 9.75a9.7 9.7 0 0 1-2.346 6.344l4.126 4.126a.75.75 0 1 1-1.06 1.06l-4.126-4.126A9.7 9.7 0 0 1 11 20.75 9.75 9.75 0 0 1 1.25 11M11 2.75a8.25 8.25 0 1 0 0 16.5 8.25 8.25 0 0 0 0-16.5m-2 4.5c-.621 0-1.173.398-1.37.987l-1.84 5.526a.75.75 0 0 0 1.423.474l.495-1.487h2.586l.496 1.487a.75.75 0 0 0 1.423-.474L10.37 8.237A1.44 1.44 0 0 0 9 7.25m0 1.622.793 2.378H8.207zM15.25 8a.75.75 0 0 0-1.5 0v6a.75.75 0 0 0 1.5 0z" clip-rule="evenodd"/></svg>