<svg xmlns="http://www.w3.org/2000/svg" fill="none" viewBox="0 0 24 24"><path fill="currentColor" fill-rule="evenodd" d="M2.5 11.5V14c0 3.77 0 5.66 1.17 6.83S6.73 22 10.5 22h3c3.77 0 5.66 0 6.83-1.17S21.5 17.77 21.5 14v-2.5c0-1.41 0-2.56-.06-3.5H2.56c-.06.94-.06 2.09-.06 3.5m9.03-.06a3.555 3.555 0 0 1-3.08 3.08c-.24.03-.44.23-.44.47s.2.44.44.47c1.61.2 2.88 1.48 3.08 3.08.03.24.23.44.47.44s.44-.2.47-.44c.2-1.61 1.48-2.88 3.08-3.08.24-.03.44-.23.44-.47s-.2-.44-.44-.47a3.555 3.555 0 0 1-3.08-3.08c-.03-.24-.23-.44-.47-.44s-.44.2-.47.44" clip-rule="evenodd" opacity=".4"/><path fill="currentColor" fill-rule="evenodd" d="M17.25 5c0 .41.34.75.75.75s.75-.34.75-.75v-.406c.434.138.777.333 1.05.606.456.456.693 1.105.816 2.05H3.384c.123-.945.36-1.594.816-2.05.273-.273.616-.468 1.05-.606V5c0 .41.34.75.75.75s.75-.34.75-.75v-.67c.96-.08 2.184-.08 3.75-.08h3c1.566 0 2.79 0 3.75.08zM3.276 8.75h17.448c.026.774.026 1.682.026 2.75V14c0 3.56 0 5.35-.95 6.3s-2.74.95-6.3.95h-3c-3.56 0-5.35 0-6.3-.95s-.95-2.74-.95-6.3v-2.5c0-1.068 0-1.976.026-2.75M18.75 3.036V2c0-.41-.34-.75-.75-.75s-.75.34-.75.75v.826c-1.015-.076-2.24-.076-3.75-.076h-3c-1.512 0-2.736 0-3.75.076V2c0-.41-.34-.75-.75-.75s-.75.34-.75.75v1.035c-.868.198-1.54.535-2.11 1.105-1.39 1.39-1.39 3.39-1.39 7.36V14c0 3.98 0 5.97 1.39 7.36s3.39 1.39 7.36 1.39h3c3.98 0 5.97 0 7.36-1.39s1.39-3.39 1.39-7.36v-2.5c0-3.98 0-5.97-1.39-7.36-.57-.57-1.242-.906-2.11-1.104M10.78 18.65c.08.63.6 1.1 1.22 1.1s1.14-.47 1.22-1.1a2.8 2.8 0 0 1 2.43-2.43c.63-.08 1.1-.6 1.1-1.22s-.47-1.14-1.1-1.22a2.8 2.8 0 0 1-2.43-2.43c-.08-.63-.6-1.1-1.22-1.1s-1.14.47-1.22 1.1a2.8 2.8 0 0 1-2.43 2.43c-.63.08-1.1.6-1.1 1.22s.47 1.14 1.1 1.22c1.27.16 2.27 1.16 2.43 2.43M12 17.4A4.3 4.3 0 0 0 9.6 15c1.09-.43 1.96-1.3 2.4-2.4.43 1.09 1.3 1.96 2.4 2.4-1.09.43-1.96 1.3-2.4 2.4" clip-rule="evenodd"/></svg>