<svg xmlns="http://www.w3.org/2000/svg" fill="none" viewBox="0 0 24 24"><path fill="currentColor" d="M17.77 3.426c-.46.9-1.34 1.54-2.38 1.67-.21.03-.39.2-.39.41s.18.39.39.41a3.11 3.11 0 0 1 2.7 2.7c.03.21.2.39.41.39s.39-.17.41-.39c.13-1.04.77-1.92 1.67-2.38.42 1.37.42 3.3.42 6.27 0 4.23 0 6.34-1.2 7.75-.17.2-.36.39-.56.55-1.4 1.2-3.52 1.2-7.75 1.2s-6.35 0-7.75-1.2c-.2-.17-.38-.36-.55-.55-1.2-1.4-1.2-3.52-1.2-7.74 0-4.23 0-6.35 1.2-7.75.17-.2.36-.39.56-.55 1.4-1.2 3.52-1.2 7.75-1.2 2.97 0 4.9 0 6.27.42z" opacity=".4"/><path fill="currentColor" fill-rule="evenodd" d="M17.34 8.716c.08.59.58 1.04 1.16 1.04.59 0 1.08-.45 1.16-1.05.13-1.07.98-1.92 2.05-2.05.59-.08 1.04-.57 1.04-1.16s-.45-1.08-1.05-1.16a2.36 2.36 0 0 1-2.05-2.05c-.08-.59-.57-1.04-1.16-1.04s-1.08.45-1.16 1.05a2.37 2.37 0 0 1-2.05 2.05c-.59.08-1.04.57-1.04 1.16s.45 1.08 1.05 1.16c1.07.13 1.92.98 2.05 2.05m1.16-1.35a3.82 3.82 0 0 0-1.86-1.86c.82-.38 1.48-1.04 1.86-1.86.38.82 1.04 1.48 1.86 1.86-.82.38-1.48 1.04-1.86 1.86m-6.999 15.388h.001c4.4 0 6.62 0 8.23-1.38.23-.2.44-.41.64-.64 1.38-1.61 1.38-3.82 1.38-8.23 0-.41-.34-.75-.75-.75s-.75.34-.75.75c0 4.04 0 6.07-1.02 7.26-.14.17-.3.33-.47.47-1.19 1.02-3.22 1.02-7.26 1.02s-6.07 0-7.26-1.02c-.17-.14-.33-.3-.47-.47-1.02-1.19-1.02-3.22-1.02-7.26s0-6.07 1.02-7.26c.14-.17.3-.33.47-.47 1.19-1.02 3.22-1.02 7.26-1.02.41 0 .75-.34.75-.75s-.34-.75-.75-.75c-4.4 0-6.62 0-8.23 1.38-.23.2-.44.41-.64.64-1.38 1.61-1.38 3.83-1.38 8.23s0 6.62 1.38 8.23c.2.23.41.44.64.64 1.61 1.38 3.82 1.38 8.23 1.38m-3.249-8.75c0 .41.34.75.75.75s.75-.34.75-.75v-3c0-.41-.34-.75-.75-.75s-.75.34-.75.75zm3.75 3.75c-.41 0-.75-.34-.75-.75v-9c0-.41.34-.75.75-.75s.75.34.75.75v9c0 .41-.34.75-.75.75m2.25-2.75c0 .41.34.75.75.75s.75-.34.75-.75v-5c0-.41-.34-.75-.75-.75s-.75.34-.75.75zm-8.25-1.25c-.41 0-.75-.34-.75-.75v-1c0-.41.34-.75.75-.75s.75.34.75.75v1c0 .41-.34.75-.75.75" clip-rule="evenodd"/></svg>