<svg xmlns="http://www.w3.org/2000/svg" fill="none" viewBox="0 0 24 24"><path fill="currentColor" d="M3.172 3.172C2 4.343 2 6.229 2 10s0 5.657 1.172 6.828l1.986.952.533-.748c3.25-4.577 6.952-9.788 12.304-5.377q.006-.76.005-1.655c0-3.771 0-5.657-1.172-6.828S13.771 2 10 2 4.343 2 3.172 3.172" opacity=".4"/><path fill="currentColor" fill-rule="evenodd" d="M9.944 1.25h.112c1.838 0 3.294 0 4.433.153 1.172.158 2.121.49 2.87 1.238.705.706 1.041 1.59 1.21 2.672 1.132.164 2.052.5 2.783 1.23.752.752 1.086 1.706 1.244 2.885.154 1.146.154 2.611.154 4.46v.114c0 1.85 0 3.314-.154 4.46-.158 1.18-.492 2.134-1.244 2.886-.753.752-1.706 1.086-2.886 1.244-1.146.154-2.61.154-4.46.154h-.113c-1.85 0-3.315 0-4.46-.154-1.18-.158-2.134-.492-2.886-1.244-.73-.73-1.066-1.649-1.23-2.78-1.084-.167-1.97-.503-2.676-1.21-.748-.748-1.08-1.697-1.238-2.869-.153-1.14-.153-2.595-.153-4.433v-.112c0-1.838 0-3.294.153-4.433.158-1.172.49-2.121 1.238-2.87.749-.748 1.698-1.08 2.87-1.238 1.14-.153 2.595-.153 4.433-.153m8.806 8.694c0-1.181 0-2.204-.04-3.087.748.148 1.22.386 1.58.747.428.427.683 1.011.82 2.024.139 1.035.14 2.399.14 4.317 0 1.92-.001 3.283-.14 4.317-.137 1.014-.392 1.598-.82 2.025-.426.427-1.01.683-2.024.819-1.034.139-2.398.14-4.317.14s-3.282-.001-4.317-.14c-1.013-.137-1.598-.392-2.024-.819-.36-.36-.598-.831-.746-1.577.882.04 1.903.04 3.081.04h.113c1.838 0 3.294 0 4.433-.153 1.172-.158 2.121-.49 2.87-1.238.748-.749 1.08-1.698 1.238-2.87.153-1.14.153-2.595.153-4.433zM5.71 2.89c-1.005.135-1.585.389-2.008.812S3.025 4.705 2.89 5.71c-.138 1.029-.14 2.383-.14 4.29s.002 3.262.14 4.29c.135 1.005.389 1.585.812 2.008.282.283.635.49 1.137.636l.215-.303c1.504-2.118 3.194-4.499 5.127-5.948 1.135-.851 2.415-1.433 3.848-1.433 1.051 0 2.123.311 3.221.97V10c0-1.907-.002-3.261-.14-4.29-.135-1.005-.389-1.585-.812-2.008s-1.003-.677-2.009-.812c-1.027-.138-2.382-.14-4.289-.14s-3.261.002-4.29.14m11.53 9.138c-1.218-.933-2.28-1.278-3.21-1.278-1.008 0-1.978.405-2.949 1.133-1.65 1.237-3.124 3.26-4.58 5.304.911.062 2.045.063 3.499.063 1.907 0 3.262-.002 4.29-.14 1.005-.135 1.585-.389 2.008-.812s.677-1.003.812-2.009c.083-.619.117-1.356.13-2.26" clip-rule="evenodd"/></svg>