<svg xmlns="http://www.w3.org/2000/svg" fill="none" viewBox="0 0 24 24"><path fill="currentColor" d="M4 6a2 2 0 0 0 2-2h12a2 2 0 0 0 2 2v12a2 2 0 0 0-2 2H6a2 2 0 0 0-2-2z" opacity=".4"/><path fill="currentColor" fill-rule="evenodd" d="M4 2.75a1.25 1.25 0 1 0 0 2.5 1.25 1.25 0 0 0 0-2.5m2.646.5A2.751 2.751 0 1 0 3.25 6.646v10.708a2.751 2.751 0 1 0 3.396 3.396h10.708a2.751 2.751 0 1 0 3.396-3.396V6.646a2.751 2.751 0 1 0-3.396-3.396zm0 1.5A2.76 2.76 0 0 1 4.75 6.646v10.708c.916.259 1.637.98 1.896 1.896h10.708a2.76 2.76 0 0 1 1.896-1.896V6.646a2.76 2.76 0 0 1-1.896-1.896zM18.75 4a1.25 1.25 0 1 0 2.5 0 1.25 1.25 0 0 0-2.5 0M20 18.75a1.25 1.25 0 1 0 0 2.5 1.25 1.25 0 0 0 0-2.5M5.25 20a1.25 1.25 0 1 0-2.5 0 1.25 1.25 0 0 0 2.5 0" clip-rule="evenodd"/></svg>