<svg xmlns="http://www.w3.org/2000/svg" fill="none" viewBox="0 0 24 24"><path fill="currentColor" d="M7.5 4.002c.844 0 1.818-.083 2.299.75.201.348.201.816.201 1.75v11c0 .935 0 1.402-.201 1.75-.481.834-1.455.75-2.299.75s-1.818.084-2.299-.75C5 18.904 5 18.437 5 17.502v-11c0-.934 0-1.402.201-1.75.481-.833 1.455-.75 2.299-.75" opacity=".4"/><path fill="currentColor" fill-rule="evenodd" d="M7.317 3.252h.366c.356-.004.825-.009 1.252.078.553.113 1.136.393 1.514 1.048.177.307.243.633.273.962.028.311.028.69.028 1.13v4.78h2.5v-.78c0-.44 0-.819.028-1.13.03-.33.096-.655.273-.962.378-.655.96-.935 1.514-1.048.427-.087.896-.082 1.252-.079l.183.002.183-.002c.356-.003.825-.008 1.252.08.553.112 1.136.392 1.514 1.047.177.307.243.633.273.962.028.311.028.69.028 1.13v.78H22a.75.75 0 0 1 0 1.5h-2.25v.785c0 .44 0 .82-.028 1.13-.03.33-.096.656-.273.963-.378.654-.96.934-1.514 1.047-.427.087-.896.082-1.252.079l-.183-.001-.183.001c-.356.003-.825.008-1.252-.079-.553-.113-1.136-.393-1.514-1.047-.177-.308-.243-.633-.273-.963-.028-.31-.028-.69-.028-1.13v-.785h-2.5v4.785c0 .44 0 .82-.028 1.13-.03.33-.096.656-.273.963-.378.654-.96.934-1.514 1.047-.427.087-.896.082-1.252.079l-.183-.001-.183.001c-.356.003-.825.008-1.252-.079-.553-.113-1.136-.393-1.514-1.047-.177-.308-.243-.633-.273-.963-.028-.31-.028-.69-.028-1.13V12.75H2a.75.75 0 0 1 0-1.5h2.25V6.47c0-.44 0-.819.028-1.13.03-.33.096-.655.273-.962.378-.655.96-.935 1.514-1.048.427-.087.896-.082 1.252-.079m10.933 8.75v-1.499c0-.481 0-.792-.022-1.027-.02-.226-.055-.307-.079-.348-.103-.18-.248-.274-.513-.328-.258-.052-.537-.05-.894-.048h-.484c-.357-.003-.636-.004-.894.048-.265.054-.41.149-.514.328-.023.04-.057.122-.078.348-.021.235-.022.546-.022 1.027v3c0 .48 0 .791.022 1.027.02.225.055.307.079.348.103.179.248.273.513.327.258.053.537.051.894.049h.484c.357.002.636.004.894-.049.265-.054.41-.148.514-.327.023-.041.058-.123.078-.348.021-.236.022-.546.022-1.027zm-9-5.5v11c0 .482 0 .793-.022 1.028-.02.225-.055.307-.078.348-.104.179-.25.273-.514.327-.258.053-.537.051-.894.049h-.484c-.357.002-.636.004-.894-.049-.265-.054-.41-.148-.514-.327-.023-.041-.058-.123-.078-.348a13 13 0 0 1-.022-1.027v-11c0-.481 0-.792.022-1.027.02-.226.055-.307.078-.348.104-.18.25-.274.514-.328.258-.052.537-.05.894-.048h.484c.357-.003.636-.004.894.048.265.054.41.149.514.328.023.04.058.122.078.348.021.235.022.546.022 1.027" clip-rule="evenodd"/></svg>