<svg xmlns="http://www.w3.org/2000/svg" fill="none" viewBox="0 0 24 24"><path fill="currentColor" d="M2.188 5c1.488 6 5.457 12 8.878 12 1.71 0 3.19-1.92 3.81-4.02 1.746.13 3.312 2.597 3.312 7.02v-8.75c0-1.465 0-2.197-.374-3.25-.373-1.054-.591-1.324-1.028-1.862-3.604-4.449-8.72-.726-9.599.23-1.503 1.094-3.96-.456-5-1.368" opacity=".4"/><path fill="currentColor" fill-rule="evenodd" d="M11.159 4.95c-1.687.454-3.065 1.54-3.42 1.925A.75.75 0 0 1 6.636 5.86c.524-.57 2.143-1.823 4.135-2.358 1.01-.272 2.152-.368 3.309-.065 1.167.305 2.296 1.002 3.29 2.228l.014.018c.209.257.404.498.588.814q.082.139.159.295a6 6 0 0 1 .377-.686c.768-1.19 2.03-2.07 3.79-1.81a.75.75 0 1 1-.219 1.483c-1.04-.152-1.778.315-2.31 1.14-.554.86-.83 2.053-.83 3.081a1 1 0 0 1-.01.117c.01.327.01.68.01 1.076V20a.75.75 0 0 1-1.5 0v-.053l-.001-.018v-.01c-.072-2.78-.612-4.401-1.18-5.298-.303-.478-.602-.739-.843-.877-.302.87-.752 1.774-1.408 2.511l-.015.017c-.553.623-1.233 1.387-2.497 1.517-1.105.113-2.005-.2-2.949-.824-1.464-.967-2.949-2.562-4.19-4.714-1.308-2.267-2.023-3.84-2.886-6.957a.75.75 0 1 1 1.445-.4c.828 2.99 1.493 4.445 2.74 6.607 1.15 1.993 2.485 3.399 3.717 4.212.743.49 1.3.652 1.97.583.639-.065.974-.396 1.544-1.038.645-.725 1.071-1.731 1.32-2.7.252-.979.297-1.811.26-2.132a2.6 2.6 0 0 0-1.008-1.757c-.507-.37-1.09-.462-1.677-.139-.915.505-.988 1.561-.913 2.217a.75.75 0 1 1-1.49.172c-.086-.747-.11-2.717 1.679-3.702 1.18-.65 2.39-.414 3.286.241a4.1 4.1 0 0 1 1.613 2.797c.052.448.01 1.187-.148 2.014.568.23 1.142.694 1.63 1.417V11.25c0-1.475-.005-2.084-.33-3-.178-.505-.308-.787-.43-.996-.123-.21-.251-.37-.474-.644-.808-.998-1.67-1.504-2.504-1.722-.843-.22-1.711-.16-2.54.063" clip-rule="evenodd"/></svg>