<svg xmlns="http://www.w3.org/2000/svg" fill="none" viewBox="0 0 24 24"><path fill="currentColor" d="M3.009 12c0 4.418 2.978 8 6.652 8 3.015 0 5.084-2.706 6.337-6.073-.72-4.311-1.39-9.421-6.337-9.927-3.674 0-6.652 3.582-6.652 8" opacity=".4"/><path fill="currentColor" fill-rule="evenodd" d="M17.367 3.254a.75.75 0 0 1 .828.666c.212 1.951-.048 6.21-1.264 9.6q-.08.24-.163.47.057.345.12.696c.26 1.448.593 2.801 1.099 3.644.676 1.05 1.646.969 1.926.863a.6.6 0 0 0 .233-.206c.07-.108.166-.329.166-.767a.751.751 0 0 1 1.505 0c0 .662-.148 1.181-.408 1.582a2.1 2.1 0 0 1-.844.744l-.02.01-.02.008c-.798.341-2.65.382-3.812-1.436l-.006-.008-.005-.008c-.45-.746-.764-1.722-1-2.719-1.33 2.439-2.962 3.726-4.472 4.131-3.744 1.004-6.778-1.572-8.017-4.233C1.62 12.87 2.046 8.895 4.277 6.016 5.403 4.564 7.06 3.481 8.89 3.283c1.869-.203 3.803.532 5.386 2.497l.023.028.02.03c1.084 1.649 1.596 3.397 1.854 4.84.564-2.594.67-5.263.526-6.597a.75.75 0 0 1 .667-.827M15.22 13.841l-.066-.41-.089-.555c-.104-.635-.196-1.145-.296-1.498l-.012-.043-.007-.045c-.215-1.38-.661-3.053-1.67-4.598-1.29-1.587-2.73-2.059-4.028-1.918-1.345.145-2.656.962-3.584 2.16-1.877 2.42-2.254 5.796-.89 8.725 1.065 2.289 3.493 4.16 6.261 3.417 1.245-.334 3.04-1.726 4.38-5.235" clip-rule="evenodd"/></svg>