<svg xmlns="http://www.w3.org/2000/svg" fill="none" viewBox="0 0 24 24"><path fill="currentColor" d="M15 14h5.743c.706 0 1.059 0 1.205-.26s-.028-.524-.376-1.053C20.452 10.984 18.784 10 17.117 10H13v2c0 .943 0 1.414.293 1.707S14.057 14 15 14" opacity=".4"/><path fill="currentColor" fill-rule="evenodd" d="M5.75 4a.75.75 0 0 0-1.5 0v13.667c0 .568-.001.93-.032 1.194-.028.25-.074.302-.08.31-.005.004-.005.005-.013.009a.5.5 0 0 1-.144.036c-.2.032-.485.034-.981.034H2a.75.75 0 0 0 0 1.5h1.05c.428 0 .832 0 1.163-.052.38-.06.762-.2 1.064-.552.287-.335.387-.731.431-1.113.042-.361.042-.81.042-1.325zm4 0a.75.75 0 0 0-1.5 0v7a.75.75 0 0 0 1.5 0zm7.367 5.25a.75.75 0 0 0 0 1.5c1.365 0 2.817.812 3.829 2.349l.098.15-.301.001H13.75V4a.75.75 0 0 0-1.5 0v13.667c0 .568-.001.93-.032 1.194-.028.25-.074.302-.08.31-.005.004-.005.005-.013.009a.6.6 0 0 1-.144.036c-.2.032-.485.034-.981.034h-1a.75.75 0 0 0 0 1.5h1.05c.428 0 .832 0 1.163-.052.38-.06.762-.2 1.064-.552.287-.335.387-.731.432-1.113.041-.361.041-.81.041-1.325V14.75h7.042c.31 0 .63 0 .887-.043.301-.05.69-.187.922-.599.225-.399.16-.788.037-1.082-.097-.232-.262-.483-.413-.71l-.026-.042c-1.23-1.868-3.113-3.024-5.082-3.024" clip-rule="evenodd"/></svg>