<svg xmlns="http://www.w3.org/2000/svg" fill="none" viewBox="0 0 24 24"><path fill="currentColor" d="M3.052 19.382c.262.617 1.315.617 3.421.617H9c.974 0 1.461 0 1.762-.383.3-.384.2-.788 0-1.598C10.324 16.242 9.312 14.788 8 14l-.198-.124-2.778 2.71c-1.49 1.453-2.234 2.18-1.972 2.797" opacity=".4"/><path fill="currentColor" fill-rule="evenodd" d="M18.449 4.537A.75.75 0 1 0 17.4 3.463L4.456 16.093c-.707.689-1.297 1.264-1.669 1.747-.36.466-.73 1.117-.425 1.836.3.709 1.018.909 1.607.99.61.084 1.442.084 2.444.084H21a.75.75 0 0 0 0-1.5h-9.28c-.186-2.267-1.205-4.277-2.736-5.48zM7.898 14.83l-2.35 2.293c-.763.744-1.274 1.245-1.573 1.633-.13.168-.185.27-.208.328.057.026.176.064.407.096.495.068 1.222.07 2.3.07h3.74c-.19-1.947-1.106-3.552-2.316-4.42m-4.18 4.225.008.007q-.01-.007-.008-.008m.034.072v.014q-.003 0 0-.014" clip-rule="evenodd"/></svg>