<svg xmlns="http://www.w3.org/2000/svg" fill="none" viewBox="0 0 24 24"><path fill="currentColor" d="M4.25 20.3c1.4 1.2 3.52 1.2 7.75 1.2s6.34 0 7.75-1.2c.2-.17.39-.35.55-.55 1.2-1.41 1.2-3.52 1.2-7.75s0-6.34-1.2-7.75c-.17-.2-.36-.38-.55-.55-1.4-1.2-3.52-1.2-7.75-1.2s-6.34 0-7.75 1.2c-.2.17-.39.35-.55.55C2.5 5.66 2.5 7.77 2.5 12s0 6.34 1.2 7.75c.17.2.36.38.55.55" opacity=".4"/><path fill="currentColor" fill-rule="evenodd" d="M12.05 1.75h-.1c-2.07 0-3.69 0-4.97.16-1.31.15-2.35.48-3.21 1.22-.23.19-.44.41-.64.64-.73.85-1.06 1.9-1.22 3.21-.16 1.27-.16 2.9-.16 4.97v.1c0 2.07 0 3.7.16 4.97.16 1.31.49 2.36 1.22 3.21.2.23.41.45.64.64.86.74 1.9 1.07 3.21 1.22 1.28.16 2.9.16 4.97.16h.1c2.07 0 3.69 0 4.97-.16 1.31-.15 2.35-.48 3.21-1.22.23-.19.44-.41.64-.64.73-.85 1.06-1.9 1.22-3.21.16-1.27.16-2.9.16-4.97v-.1c0-2.07 0-3.7-.16-4.97-.16-1.31-.49-2.36-1.22-3.21-.2-.23-.41-.45-.64-.64-.86-.74-1.9-1.07-3.21-1.22-1.28-.16-2.9-.16-4.97-.16M4.74 4.27c.54-.47 1.26-.73 2.42-.88 1.18-.14 2.71-.14 4.84-.14s3.67 0 4.84.14c1.16.15 1.87.41 2.42.88.17.14.33.3.47.47.46.54.73 1.26.87 2.42.14 1.17.14 2.71.14 4.84s0 3.67-.14 4.84c-.14 1.16-.41 1.88-.87 2.42-.15.17-.3.33-.47.47-.54.47-1.26.73-2.42.88-1.18.14-2.71.14-4.84.14s-3.67 0-4.84-.14c-1.16-.15-1.87-.41-2.42-.88-.17-.14-.33-.3-.47-.47-.46-.54-.73-1.26-.87-2.42-.14-1.17-.14-2.71-.14-4.84s0-3.67.14-4.84c.14-1.16.41-1.88.87-2.42.15-.17.3-.33.47-.47M16.75 6.5c0-.23-.1-.44-.28-.58-.17-.14-.4-.2-.62-.16l-6.5 1.32a.75.75 0 0 0-.6.74v7.54l-1.57.6a1.443 1.443 0 1 0 1.05 2.69l.92-.37c.66-.27 1.1-.91 1.1-1.63v-6.54l5-.99v4.74l-1.57.6c-.56.21-.93.75-.93 1.35 0 1.02 1.03 1.71 1.98 1.34l.92-.37c.66-.27 1.1-.91 1.1-1.63z" clip-rule="evenodd"/></svg>