<svg xmlns="http://www.w3.org/2000/svg" fill="none" viewBox="0 0 24 24"><path fill="currentColor" fill-rule="evenodd" d="M4.027 3h4.421c.76 0 1.21 0 1.417.153.012.009.018.013.06.097.043.084.043.121.044.195L10.027 10h-3.83c-.796 0-1.251 0-1.444-.176-.008-.008-.012-.012-.045-.078s-.036-.096-.042-.154zm.632 16.59 1.474-3.285c.39-.87.585-1.305.894-1.305s.504.435.894 1.305l1.474 3.286c.285.635.427.953.28 1.18C9.526 21 9.178 21 8.481 21h-2.91c-.697 0-1.045 0-1.193-.228-.147-.228-.005-.546.28-1.181" clip-rule="evenodd" opacity=".4"/><path fill="currentColor" fill-rule="evenodd" d="m8.88 3.752-.432-.002h-4.42a.75.75 0 1 1 0-1.5h4.471c.421 0 .815 0 1.116.042.288.041.806.16 1.038.685.235.53-.033.993-.2 1.232-.175.247-.444.533-.73.836l-.035.038L6.05 8.946l-.283.303.43.001h3.83a.75.75 0 1 1 0 1.5h-3.88c-.42 0-.815 0-1.116-.042-.288-.041-.806-.16-1.038-.685-.234-.53.033-.993.201-1.232.174-.247.443-.533.73-.836l.034-.038 3.638-3.863q.163-.172.283-.303M7.027 16.148q-.09.19-.21.463l-2.106 4.695a.75.75 0 1 1-1.369-.614l2.106-4.695.02-.046c.178-.395.342-.761.506-1.024.155-.247.476-.678 1.053-.678.576 0 .897.43 1.052.678.164.262.328.63.506 1.024l.02.046 2.106 4.695a.75.75 0 0 1-1.369.614l-2.105-4.695zM18.278 4a.75.75 0 1 0-1.5 0v14.462l-.007-.007c-.21-.249-.417-.512-.61-.757l-.044-.057a10 10 0 0 0-.552-.664.75.75 0 1 0-1.075 1.046c.088.091.234.273.447.544l.047.06c.19.242.413.526.643.797.246.291.522.593.797.828.138.117.294.233.461.323.162.086.384.175.642.175.259 0 .481-.089.642-.175a2.7 2.7 0 0 0 .462-.323 7.5 7.5 0 0 0 .797-.828c.23-.27.452-.555.642-.797l.048-.06a9 9 0 0 1 .447-.544.75.75 0 1 0-1.076-1.046 10 10 0 0 0-.551.664l-.045.057c-.193.245-.399.508-.61.757l-.006.007z" clip-rule="evenodd"/></svg>