<svg xmlns="http://www.w3.org/2000/svg" fill="none" viewBox="0 0 24 24"><path fill="currentColor" d="m15.704 13.603-.886.76c-1.435 1.234-2.153 1.851-2.736 1.57-.582-.281-.582-1.245-.582-3.172V11.24c0-1.927 0-2.89.582-3.172.583-.281 1.3.336 2.736 1.57l.886.76C16.568 11.14 17 11.511 17 12s-.432.86-1.296 1.603" opacity=".4"/><path fill="currentColor" fill-rule="evenodd" d="M20.751 6a.75.75 0 0 0-1.5 0v12a.75.75 0 0 0 1.5 0zm-5.535 4.967c.45.387.724.625.897.822a.8.8 0 0 1 .128.179c.01.021.01.028.01.032v.002c0 .004 0 .011-.01.033a.8.8 0 0 1-.128.178c-.173.197-.448.436-.897.822l-.886.761c-.737.634-1.226 1.051-1.6 1.288-.17.108-.269.147-.318.16a1.3 1.3 0 0 1-.096-.383c-.063-.452-.065-1.11-.065-2.099V11.24c0-.988.002-1.647.065-2.098a1.3 1.3 0 0 1 .096-.384c.05.013.148.053.318.16.374.237.863.654 1.6 1.288zm-4.465 1.855v-.07h-6.75a.75.75 0 0 1 0-1.5h6.75v-.072c0-.912 0-1.678.08-2.248.08-.563.273-1.224.926-1.539.664-.32 1.299-.044 1.775.258.479.303 1.051.795 1.729 1.377l.047.04.886.762.037.032c.4.344.759.652 1.01.94.274.312.51.697.51 1.2 0 .5-.236.886-.51 1.2-.251.287-.61.595-1.01.938l-.038.032-.933.802c-.677.582-1.25 1.074-1.728 1.377-.476.302-1.111.579-1.775.258-.653-.315-.847-.976-.926-1.54-.08-.569-.08-1.334-.08-2.247" clip-rule="evenodd"/></svg>