<svg xmlns="http://www.w3.org/2000/svg" fill="none" viewBox="0 0 24 24"><path fill="currentColor" fill-rule="evenodd" d="M16.694 5.976c.216-.278.58-.76.702-.92a.75.75 0 1 1 1.208.89l-.002.001a53 53 0 0 1-2.443 3.044c-.659.76-1.385 1.539-2.058 2.133a7 7 0 0 1-1.002.76c-.306.185-.692.366-1.099.366-.406 0-.793-.181-1.099-.366a7 7 0 0 1-1.002-.76C9.226 10.53 8.5 9.752 7.84 8.993a53 53 0 0 1-2.443-3.045l-.002-.002a.75.75 0 1 1 1.208-.89 52 52 0 0 0 2.369 2.952c.643.742 1.319 1.463 1.92 1.994.3.265.564.467.782.599.206.123.323.15.323.15s.121-.027.327-.15c.218-.132.482-.334.783-.6.6-.53 1.276-1.251 1.919-1.992a51 51 0 0 0 1.667-2.032m0 7c.216-.278.58-.76.702-.92a.75.75 0 1 1 1.208.89l-.002.002c-.128.168-.505.667-.726.951a53 53 0 0 1-1.717 2.093c-.659.76-1.385 1.538-2.058 2.133a7 7 0 0 1-1.002.76c-.306.184-.692.365-1.099.365-.406 0-.793-.181-1.099-.366a7 7 0 0 1-1.002-.76c-.673-.594-1.399-1.373-2.058-2.132A53 53 0 0 1 6.123 13.9a87 87 0 0 1-.726-.952l-.002-.002a.75.75 0 1 1 1.208-.89 52 52 0 0 0 2.369 2.952c.643.742 1.319 1.463 1.92 1.993.3.266.564.468.782.6.206.123.323.15.323.15s.121-.026.327-.15c.218-.132.482-.334.783-.6.6-.53 1.276-1.251 1.919-1.992a51 51 0 0 0 1.667-2.032" clip-rule="evenodd" opacity=".4"/></svg>