<svg xmlns="http://www.w3.org/2000/svg" fill="none" viewBox="0 0 24 24"><path fill="currentColor" d="M7.75 20a.75.75 0 0 1-1.5 0V5.463c-.158.164-.32.344-.48.529a25 25 0 0 0-1.144 1.422l-.017.024-.004.005-.001.002a.75.75 0 1 1-1.208-.89l.002-.003.006-.007.02-.027a19 19 0 0 1 .342-.448c.225-.288.534-.674.871-1.062.334-.384.71-.788 1.064-1.101a4 4 0 0 1 .556-.42c.17-.103.435-.237.743-.237s.574.134.743.237c.19.114.38.264.556.42.355.313.73.717 1.064 1.101a27 27 0 0 1 1.213 1.51l.02.027.006.007.002.003a.75.75 0 0 1-1.208.89l-.005-.007-.017-.024a18 18 0 0 0-.323-.421c-.215-.275-.507-.64-.82-1.001a15 15 0 0 0-.481-.53z"/><path fill="currentColor" d="M16.25 4a.75.75 0 0 1 1.5 0v14.537c.157-.165.32-.344.48-.529a26 26 0 0 0 1.143-1.423l.018-.023.004-.006a.75.75 0 1 1 1.209.889l-.002.003-.006.007-.02.027a18 18 0 0 1-.343.448c-.224.288-.533.673-.87 1.061-.334.385-.71.789-1.064 1.102a4 4 0 0 1-.556.42c-.17.102-.435.237-.743.237s-.574-.135-.743-.237a4 4 0 0 1-.556-.42 12 12 0 0 1-1.064-1.102 27 27 0 0 1-1.213-1.51l-.02-.026-.006-.007-.002-.003a.75.75 0 0 1 1.208-.89l.005.007.017.023.069.092a26 26 0 0 0 1.075 1.331c.16.185.322.364.48.529z" opacity=".4"/></svg>