<svg xmlns="http://www.w3.org/2000/svg" fill="none" viewBox="0 0 24 24"><path fill="currentColor" d="m13.603 5.414.76.967c1.234 1.565 1.851 2.348 1.57 2.984-.281.635-1.245.635-3.172.635H11.24c-1.927 0-2.89 0-3.172-.635-.281-.636.336-1.419 1.57-2.984l.76-.967C11.14 4.471 11.511 4 12 4s.86.471 1.603 1.414" opacity=".4"/><path fill="currentColor" fill-rule="evenodd" d="M12.75 10.746c2.145 0 3.328 0 3.803-1.082.453-1.057-.292-2.016-1.644-3.755l-.749-.96C13.342 3.889 12.846 3.25 12 3.25s-1.342.639-2.159 1.697l-.751.964-.007.008C7.737 7.653 6.995 8.61 7.45 9.67c.471 1.076 1.654 1.076 3.799 1.076V20a.75.75 0 0 0 1.5 0zm-1.733-4.89c.37-.478.824-1.064.98-1.109H12c.165.045.629.645 1.001 1.126l.002.003.748.96c.727.934 1.55 1.994 1.453 2.222-.188.188-1.39.188-2.45.188h-1.5c-1.062 0-2.263 0-2.449-.18-.1-.236.722-1.294 1.449-2.228l.752-.965z" clip-rule="evenodd"/></svg>