<svg xmlns="http://www.w3.org/2000/svg" fill="none" viewBox="0 0 24 24"><path fill="currentColor" fill-rule="evenodd" d="M17.462 1.477a.75.75 0 0 1 1.06-.015 10 10 0 0 0 .738.604c.29.228.63.494.952.768.347.294.702.618.976.94.137.16.269.338.37.526.097.182.192.424.192.7s-.095.518-.193.7c-.1.188-.232.366-.37.527a9 9 0 0 1-.975.94 33 33 0 0 1-1.024.823 10 10 0 0 0-.665.548.75.75 0 1 1-1.046-1.076 11 11 0 0 1 .853-.705c.295-.231.612-.48.913-.735q.164-.14.31-.272h-.486c-3.104 0-5.348.002-7.059.257-1.68.25-2.74.731-3.538 1.616-.808.896-1.256 2.102-1.486 4.003-.233 1.916-.234 4.423-.234 7.855v1.072q.133-.146.272-.31a32 32 0 0 0 .789-.981c.233-.297.47-.598.651-.785a.75.75 0 1 1 1.076 1.046 10 10 0 0 0-.604.737c-.228.29-.494.63-.768.952a9 9 0 0 1-.94.976c-.16.137-.338.269-.526.37a1.5 1.5 0 0 1-.7.192c-.276 0-.518-.095-.7-.193a3 3 0 0 1-.527-.37 9 9 0 0 1-.94-.975 33 33 0 0 1-.823-1.024 10 10 0 0 0-.548-.665.75.75 0 1 1 1.076-1.046 11 11 0 0 1 .705.853c.231.295.48.612.735.913q.14.164.272.31v-1.126c0-3.368 0-5.964.245-7.981.247-2.042.757-3.603 1.862-4.828 1.115-1.236 2.553-1.815 4.43-2.095 1.834-.273 4.19-.273 7.216-.273h.55q-.146-.133-.31-.272a31 31 0 0 0-.913-.735l-.068-.054c-.297-.233-.598-.47-.785-.651a.75.75 0 0 1-.015-1.06" clip-rule="evenodd" opacity=".4"/></svg>