<svg xmlns="http://www.w3.org/2000/svg" fill="none" viewBox="0 0 24 24"><path fill="currentColor" d="m13.603 8.296.76.886c1.234 1.435 1.851 2.153 1.57 2.736-.281.582-1.245.582-3.172.582H11.24c-1.927 0-2.89 0-3.172-.582-.281-.583.336-1.3 1.57-2.736l.76-.886C11.14 7.432 11.511 7 12 7s.86.432 1.603 1.296" opacity=".4"/><path fill="currentColor" fill-rule="evenodd" d="M6.001 3.25a.75.75 0 0 0 0 1.5H18a.75.75 0 0 0 0-1.5zm4.964 5.535c.386-.45.624-.724.821-.897a.8.8 0 0 1 .179-.128c.021-.01.028-.01.033-.01h.001c.004 0 .011 0 .033.01.03.014.087.048.178.128.197.173.436.448.822.897l.761.886c.634.737 1.051 1.226 1.288 1.6.108.17.147.268.16.318-.047.024-.156.063-.383.095-.452.064-1.11.066-2.098.066h-1.523c-.988 0-1.646-.002-2.098-.066-.228-.031-.336-.07-.384-.095.014-.05.053-.148.16-.318.237-.374.655-.863 1.288-1.6zm1.855 4.465h-.072V20a.75.75 0 0 1-1.5 0v-6.75h-.071c-.912 0-1.678 0-2.247-.08-.563-.08-1.225-.273-1.54-.926-.32-.664-.043-1.299.258-1.775.303-.479.795-1.051 1.377-1.729l.04-.047.762-.886.033-.037c.343-.4.65-.759.938-1.01.313-.274.699-.51 1.2-.51.502 0 .887.236 1.2.51.288.251.596.61.94 1.01l.032.037.802.933c.582.678 1.074 1.25 1.376 1.729.302.476.579 1.111.258 1.775-.315.653-.976.847-1.539.926-.57.08-1.335.08-2.247.08" clip-rule="evenodd"/></svg>