<svg xmlns="http://www.w3.org/2000/svg" fill="none" viewBox="0 0 24 24"><path fill="currentColor" fill-rule="evenodd" d="M11.024 7.306c.278-.216.76-.58.92-.702a.75.75 0 1 0-.89-1.208l-.002.002c-.168.128-.667.504-.951.726A53 53 0 0 0 8.008 7.84c-.76.659-1.538 1.385-2.133 2.058a7 7 0 0 0-.76 1.002c-.184.305-.365.692-.365 1.099 0 .406.181.793.365 1.099.197.326.464.666.76 1.002.595.673 1.374 1.399 2.133 2.058a53 53 0 0 0 3.045 2.443l.002.002a.75.75 0 1 0 .89-1.209 52 52 0 0 1-2.952-2.369C8.251 14.382 7.53 13.707 7 13.107a5.7 5.7 0 0 1-.6-.784c-.124-.205-.15-.322-.15-.322s.026-.122.15-.327c.132-.218.334-.482.6-.783.53-.6 1.251-1.276 1.992-1.919a52 52 0 0 1 2.032-1.667m7 0c.278-.216.76-.58.92-.702a.75.75 0 1 0-.89-1.208l-.002.002c-.168.128-.667.504-.951.726a53 53 0 0 0-2.093 1.717c-.76.659-1.538 1.385-2.132 2.058a7 7 0 0 0-.76 1.002c-.185.305-.366.692-.366 1.099 0 .406.181.793.366 1.099.196.326.463.666.76 1.002.594.673 1.373 1.399 2.132 2.058a53 53 0 0 0 2.093 1.717c.283.221.782.598.952.726l.002.002a.75.75 0 1 0 .89-1.209 52 52 0 0 1-2.952-2.369c-.742-.643-1.463-1.318-1.994-1.918a5.7 5.7 0 0 1-.599-.784c-.123-.205-.15-.322-.15-.322s.027-.122.15-.327c.132-.218.334-.482.6-.783.53-.6 1.251-1.276 1.992-1.919a52 52 0 0 1 2.032-1.667" clip-rule="evenodd" opacity=".4"/></svg>