<svg xmlns="http://www.w3.org/2000/svg" fill="none" viewBox="0 0 24 24"><path fill="currentColor" d="M20 7.75a.75.75 0 0 0 0-1.5H5.463a15 15 0 0 1 .529-.48 25 25 0 0 1 1.423-1.144l.023-.017.005-.004.002-.001a.75.75 0 0 0-.89-1.208l-.003.002-.007.006-.027.02a19 19 0 0 0-.448.342c-.288.225-.674.534-1.062.871-.384.334-.788.71-1.101 1.064a4 4 0 0 0-.42.556c-.103.17-.237.435-.237.743s.134.574.237.743c.114.19.264.38.42.556.313.355.717.73 1.101 1.064a27 27 0 0 0 1.51 1.213l.027.02.007.006.003.002a.75.75 0 0 0 .89-1.208l-.007-.005-.023-.017a18 18 0 0 1-.422-.323c-.275-.215-.64-.507-1.001-.82q-.28-.243-.53-.481z"/><path fill="currentColor" d="M4 16.25a.75.75 0 1 0 0 1.5h14.537c-.165.157-.344.32-.529.48a26 26 0 0 1-1.331 1.075l-.091.069-.024.017-.006.004v.001a.75.75 0 1 0 .889 1.208l.003-.002.007-.006.027-.02.099-.074a29 29 0 0 0 1.41-1.14c.385-.333.789-.708 1.102-1.063a4 4 0 0 0 .42-.556c.102-.17.237-.435.237-.743s-.134-.574-.237-.743a4 4 0 0 0-.42-.556c-.313-.355-.717-.73-1.101-1.064a27 27 0 0 0-1.51-1.213l-.027-.02-.007-.006-.003-.002a.75.75 0 0 0-.89 1.208l.007.005.023.017.092.069a26 26 0 0 1 1.331 1.075q.28.241.53.48z" opacity=".4"/></svg>