<svg xmlns="http://www.w3.org/2000/svg" fill="none" viewBox="0 0 24 24"><path fill="currentColor" fill-rule="evenodd" d="M8.507 3H6.404c-.332 0-.643.146-.835.39L2.066 7.873C1.474 8.631 5 11.791 7 10.814L4 18c6.4 5.6 13.333 2.333 16 0l-2.998-7.186c1.998.977 5.524-2.183 4.932-2.94L18.43 3.39a1.06 1.06 0 0 0-.834-.39h-2.103a.57.57 0 0 0-.534.376c-.381 1.067-1.72 2.347-2.959 2.347s-2.577-1.28-2.96-2.347A.57.57 0 0 0 8.507 3m3.234 9.237c-.351-.234-.936-.382-1.607-.016-.88.48-1.079 2.062.95 3.397.387.255.58.382.916.382.335 0 .529-.127.915-.382 2.03-1.335 1.83-2.917.95-3.397-.67-.366-1.255-.218-1.606.016-.145.097-.217.145-.259.145s-.114-.048-.259-.145" clip-rule="evenodd" opacity=".4"/><path fill="currentColor" fill-rule="evenodd" d="M6.404 2.25c-.544 0-1.081.238-1.426.678L1.475 7.411c-.283.362-.246.78-.172 1.047.077.276.228.54.393.77.337.468.849.958 1.426 1.375.579.417 1.267.792 1.975.992.264.075.542.128.825.147l-2.307 4.384c-.282.537-.408 1.08-.352 1.616.056.535.288.996.608 1.38.617.742 1.613 1.256 2.608 1.618 2.014.734 4.489 1.01 5.521 1.01s3.507-.276 5.52-1.01c.996-.362 1.992-.876 2.61-1.618.3-.325.55-.845.607-1.38.056-.536-.07-1.079-.352-1.616l-2.306-4.384c.282-.019.56-.072.824-.147.708-.2 1.396-.575 1.975-.992.577-.417 1.088-.907 1.425-1.375.165-.23.317-.494.393-.77.075-.268.11-.685-.172-1.047l-3.503-4.483a1.8 1.8 0 0 0-1.426-.678h-2.102a1.32 1.32 0 0 0-1.24.873c-.137.383-.477.866-.936 1.253-.465.392-.943.597-1.317.597-.375 0-.853-.205-1.317-.597-.46-.387-.8-.87-.937-1.253a1.32 1.32 0 0 0-1.24-.873zm10.807 7.844a1 1 0 0 1 .12.047c.272.133.66.153 1.163.011.497-.14 1.028-.42 1.506-.766.48-.346.864-.727 1.085-1.034q.083-.117.12-.192L17.84 3.852a.31.31 0 0 0-.244-.102H15.62c-.26.643-.756 1.284-1.335 1.773-.61.515-1.42.95-2.285.95-.863 0-1.674-.436-2.284-.95-.58-.49-1.074-1.13-1.335-1.773H6.404a.31.31 0 0 0-.244.102L2.793 8.16q.038.075.122.192c.22.307.604.688 1.084 1.034.479.345 1.01.625 1.507.766.503.142.891.122 1.164-.011a1 1 0 0 1 .119-.046l.76-1.444a.75.75 0 1 1 1.327.698l-3.933 7.476c-.173.328-.208.575-.188.76s.1.375.268.577c.36.431 1.047.833 1.97 1.169 1.821.663 4.118.919 5.007.919.89 0 3.186-.256 5.007-.92.923-.335 1.611-.737 1.97-1.168.168-.202.249-.392.268-.577s-.015-.432-.187-.76l-3.934-7.476a.75.75 0 1 1 1.328-.698zM12 11.518c-.556-.304-1.365-.424-2.225.045-.741.404-1.135 1.243-.998 2.148.135.899.767 1.792 1.895 2.534l.054.036c.344.227.71.47 1.274.47.563 0 .93-.243 1.273-.47l.054-.036c1.129-.742 1.76-1.636 1.896-2.534.136-.905-.257-1.744-.999-2.148-.86-.47-1.668-.349-2.224-.045m-.675 1.343c-.15-.1-.436-.197-.832.019-.138.075-.284.268-.233.607.052.347.336.912 1.237 1.505.21.138.302.196.377.231.045.02.07.027.126.027a.25.25 0 0 0 .125-.027c.076-.035.168-.093.378-.23.9-.594 1.184-1.16 1.236-1.506.052-.34-.094-.532-.233-.607-.395-.216-.682-.118-.831-.019l-.013.008a3 3 0 0 1-.194.125c-.034.02-.087.05-.15.075a.9.9 0 0 1-.318.063.9.9 0 0 1-.318-.063 1 1 0 0 1-.15-.075c-.063-.036-.134-.084-.195-.124z" clip-rule="evenodd"/></svg>