<svg xmlns="http://www.w3.org/2000/svg" fill="none" viewBox="0 0 24 24"><path fill="currentColor" d="M4.065 12.626c.254 1.211 1.608 2.082 4.315 3.822 2.945 1.893 4.417 2.84 5.61 2.475.403-.124.775-.34 1.088-.635C16 17.418 16 15.612 16 12s0-5.418-.922-6.288a2.8 2.8 0 0 0-1.088-.635c-1.193-.365-2.665.582-5.61 2.475-2.707 1.74-4.06 2.61-4.315 3.822-.087.412-.087.84 0 1.252" opacity=".4"/><path fill="currentColor" fill-rule="evenodd" d="m7.931 6.95.09-.058c1.433-.922 2.568-1.652 3.495-2.1.932-.45 1.818-.7 2.693-.432.516.158.989.434 1.383.807.661.623.917 1.519 1.038 2.576.12 1.054.12 2.443.12 4.206v.102c0 1.763 0 3.152-.12 4.206-.12 1.058-.377 1.953-1.038 2.576-.395.373-.867.65-1.383.807-.875.268-1.761.018-2.693-.432-.927-.448-2.062-1.178-3.496-2.1l-.089-.057c-1.317-.846-2.363-1.519-3.107-2.134-.756-.626-1.314-1.284-1.493-2.137a3.8 3.8 0 0 1 0-1.56c.18-.853.737-1.51 1.493-2.136.744-.616 1.79-1.288 3.107-2.135m5.84-1.156c-.318-.097-.765-.056-1.603.35-.834.402-1.893 1.081-3.382 2.039-1.37.88-2.34 1.505-3.005 2.056-.66.547-.907.931-.982 1.29-.065.31-.065.632 0 .943.075.358.321.742.982 1.29.666.55 1.635 1.175 3.005 2.055 1.49.958 2.548 1.637 3.382 2.04.838.405 1.285.446 1.602.349.292-.09.563-.247.793-.464.262-.246.466-.689.576-1.655.11-.959.111-2.262.111-4.087s-.001-3.128-.11-4.087c-.11-.966-.315-1.408-.577-1.655a2 2 0 0 0-.793-.464M20.75 5a.75.75 0 0 0-1.5 0v14a.75.75 0 0 0 1.5 0z" clip-rule="evenodd"/></svg>