<svg xmlns="http://www.w3.org/2000/svg" fill="none" viewBox="0 0 24 24"><path fill="currentColor" d="M8.232 18.426C8.278 20.352 9.52 22 12 22s3.721-1.648 3.767-3.574c.016-.657.027-1.107.043-1.418l-7.62.005c.016.312.027.756.042 1.413" opacity=".4"/><path fill="currentColor" fill-rule="evenodd" d="M16.352 3.313c1.515-.51 2.977-.171 4.07.402l.076.04c.434.227.94.49 1.166 1.156.125.366.101.702.008 1.021-.078.267-.216.555-.352.84l-.02.04-4.407 9.206c-.224.469-.282.6-.308.706 0 0-.006.031-.012.11l-.014.213a27 27 0 0 0-.023.636l-.019.761c-.026 1.116-.401 2.2-1.18 3.01-.786.82-1.922 1.296-3.337 1.296s-2.551-.476-3.337-1.295a4.1 4.1 0 0 1-.874-1.398 4.9 4.9 0 0 1-.306-1.613 57 57 0 0 0-.044-1.433 6 6 0 0 0-.024-.286c-.025-.106-.084-.238-.308-.707L2.699 6.811l-.019-.04c-.136-.284-.274-.572-.352-.839a1.64 1.64 0 0 1 .007-1.021c.227-.666.732-.93 1.167-1.156l.076-.04c1.093-.573 2.555-.912 4.07-.402 2.32-2.75 6.384-2.75 8.704 0M15.161 16.25c.074-.243.196-.497.346-.81l.033-.07.785-1.638a3.1 3.1 0 0 1-1.725-.325l-.657 2.843zm-2.139-2.68-.618 2.68h-.807l-.618-2.679a3.02 3.02 0 0 0 2.043-.001m1.933-1.703c.36.271.718.383 1.044.383.416 0 .888-.183 1.346-.649l2.603-5.437c.163-.341.245-.518.284-.652.025-.086.018-.104.014-.115l-.002-.003a.2.2 0 0 0-.022-.05.2.2 0 0 0-.036-.035 1 1 0 0 0-.156-.1 10 10 0 0 0-.306-.166c-.902-.474-2.027-.688-3.146-.212zm-1.438-.442a1 1 0 0 0-.076.073c-.488.543-.996.752-1.442.752s-.955-.21-1.443-.752a1 1 0 0 0-.072-.07L8.826 4.243c1.718-1.99 4.63-1.99 6.349 0zm-4.471.44L7.422 4.831c-1.119-.476-2.244-.262-3.146.212-.13.068-.225.119-.306.165s-.127.078-.156.101a.2.2 0 0 0-.036.035.2.2 0 0 0-.022.05l-.002.003c-.004.011-.011.03.014.115.04.134.121.31.284.652l2.606 5.442c.456.463.926.644 1.34.644.327 0 .687-.112 1.048-.385m-1.37 1.867.784 1.639.033.068c.15.314.272.568.347.811h1.217l-.656-2.844a3.1 3.1 0 0 1-1.725.326m1.306 4.676a3.4 3.4 0 0 0 .24 1.194c.126.31.302.584.523.814.466.485 1.19.834 2.255.834s1.789-.349 2.255-.834c.474-.495.743-1.198.762-2.008l.017-.65-6.067.005.015.636z" clip-rule="evenodd"/></svg>