<svg xmlns="http://www.w3.org/2000/svg" fill="none" viewBox="0 0 24 24"><path fill="currentColor" fill-rule="evenodd" d="M6 10.509V16.5c0 1.655.345 2 2 2h9c1.655 0 2-.345 2-2v-6H6.813q.026-.14.057-.282c.071-.337.144-.681.125-1.02a2.06 2.06 0 0 0-.87-1.584c-.201-.14-.646-.282-1.113-.403-.682-.177-1.023-.266-1.421-.175-.375.086-.684.322-1.258.783a.536.536 0 0 0 .095.897z" clip-rule="evenodd" opacity=".4"/><path fill="currentColor" fill-rule="evenodd" d="M2.75 3.5a.75.75 0 0 0-1.5 0v17a.75.75 0 0 0 1.5 0v-4.25h2.5v.25c0 .43.021.826.097 1.172.078.353.223.7.502.979.28.28.626.424.98.502.345.076.741.097 1.171.097h9c.43 0 .826-.021 1.172-.097.353-.078.7-.223.979-.502.28-.28.424-.626.502-.98.076-.345.097-.741.097-1.171v-.25h1.5v4.25a.75.75 0 0 0 1.5 0v-12a.75.75 0 0 0-1.5 0v1.25H7.717c.024-.195.038-.398.027-.596a2.81 2.81 0 0 0-1.192-2.158 2.8 2.8 0 0 0-.636-.3 9 9 0 0 0-.715-.212l-.1-.026c-.586-.153-1.097-.287-1.678-.153-.241.055-.46.152-.673.277zM6.2 9.75h-.023L3.066 8.194c.404-.315.547-.394.692-.427.184-.043.33-.022 1.065.169.224.058.43.118.598.177q.126.044.204.08c.05.022.072.035.075.037.311.215.522.586.546 1.008a2 2 0 0 1-.047.512m13.55 1.5h1.5v3.5h-1.5zm-1.5 4.25v1c0 .397-.022.665-.062.85-.04.176-.084.226-.098.24s-.064.059-.24.098c-.185.04-.453.062-.85.062H8c-.397 0-.665-.022-.85-.062-.176-.04-.227-.084-.24-.098-.014-.014-.059-.064-.098-.24-.04-.185-.062-.453-.062-.85v-5.25h11.5zm-13-.75h-2.5V9.715l2.5 1.255z" clip-rule="evenodd"/></svg>