<svg xmlns="http://www.w3.org/2000/svg" fill="none" viewBox="0 0 24 24"><path fill="currentColor" fill-rule="evenodd" d="M10 16a4 4 0 1 1-8 0 4 4 0 0 1 8 0m12 0a4 4 0 1 1-8 0 4 4 0 0 1 8 0" clip-rule="evenodd" opacity=".4"/><path fill="currentColor" fill-rule="evenodd" d="M17.524 4.93c-.57-.14-1.185-.178-1.746-.178l1.773 6.519a4.75 4.75 0 1 1-1.452.375l-.586-2.152-3.621 6.37v.001a1.75 1.75 0 0 1-1.196.855 4.751 4.751 0 1 1-.048-1.702l.837-1.473-.061-.065-4.775-5.73H5a.75.75 0 0 1 0-1.5h4a.75.75 0 0 1 0 1.5h-.399l3.673 4.407 2.574-4.528a.8.8 0 0 1 .116-.154l-.883-3.247a.75.75 0 0 1 .687-.946c.715-.035 1.959-.094 3.116.192 1.176.29 2.416.984 2.83 2.544a.75.75 0 0 1-1.449.385c-.218-.82-.845-1.251-1.74-1.473M16.5 13.117a3.25 3.25 0 1 0 1.454-.367l.823 3.024a.75.75 0 1 1-1.448.394zM9.163 15.25H6a.75.75 0 0 0 0 1.5h3.163A3.251 3.251 0 0 1 2.75 16a3.25 3.25 0 0 1 6.413-.75" clip-rule="evenodd"/></svg>