<svg xmlns="http://www.w3.org/2000/svg" fill="none" viewBox="0 0 24 24"><path fill="currentColor" fill-rule="evenodd" d="m2.059 15.79.17-.58a3.5 3.5 0 0 1 3.26-2.23c1.93 0 3.5 1.57 3.5 3.5l.5-10.18c.05-1.26-.98-2.32-2.26-2.32-1.01 0-1.89.66-2.17 1.61l-2.83 9.62c-.07.19-.13.38-.17.58m12.93.7c0-1.93 1.57-3.5 3.5-3.5 1.52 0 2.78.82 3.25 2.16l.1.34c-.03-.12-.06-.23-.1-.34l-2.82-9.55a2.244 2.244 0 0 0-2.17-1.61c-1.29 0-2.31 1.05-2.26 2.32z" clip-rule="evenodd" opacity=".4"/><path fill="currentColor" d="M22.568 15.3v-.02l-2.92-9.89c-.37-1.26-1.56-2.14-2.89-2.14-.83 0-1.61.33-2.18.93a2.95 2.95 0 0 0-.83 2.19l.05.89h-3.6l.05-.89a2.99 2.99 0 0 0-3-3.11c-1.33 0-2.52.88-2.89 2.14l-2.93 9.89v.02c-.11.38-.17.78-.17 1.19a4.26 4.26 0 0 0 4.25 4.25c2.34 0 4.09-1.77 4.22-4h4.55c.13 2.23 1.97 4 4.22 4s4.25-1.91 4.25-4.25c0-.41-.06-.81-.17-1.19zm-6.92-10.1c.29-.3.68-.47 1.1-.47.67 0 1.27.44 1.45 1.07l2.01 6.79c-.53-.23-1.11-.36-1.72-.36-1.11 0-2.13.43-2.88 1.13l-.36-7.09c-.02-.4.13-.78.41-1.08zm-1.78 3.54.33 6.5h-4.42l.33-6.5zm-8.09-2.93a1.52 1.52 0 0 1 2.55-.6c.28.29.43.67.41 1.07l-.37 7.1c-.76-.7-1.77-1.13-2.88-1.13-.61 0-1.19.13-1.72.36l2.01-6.79zm-.29 13.43c-1.52 0-2.75-1.23-2.75-2.75s1.23-2.75 2.75-2.75 2.75 1.23 2.75 2.75-1.23 2.75-2.75 2.75m13 0c-1.52 0-2.75-1.23-2.75-2.75s1.23-2.75 2.75-2.75 2.75 1.23 2.75 2.75-1.23 2.75-2.75 2.75"/></svg>