<svg xmlns="http://www.w3.org/2000/svg" fill="none" viewBox="0 0 24 24"><path fill="currentColor" fill-rule="evenodd" d="M12 22C6.477 22 2 17.523 2 12S6.477 2 12 2c.242 0 .387.264.296.487a4 4 0 0 0 5.25 5.203c.203-.085.454.09.454.31a3 3 0 0 0 3.337 2.981c.314-.035.632.165.649.482Q22 11.73 22 12c0 5.523-4.477 10-10 10M6.249 9.303c-.457 1.035-.267 2.186.424 2.571.69.385 1.621-.142 2.078-1.177s.267-2.186-.424-2.571c-.69-.385-1.621.142-2.078 1.177m7.546 8.559c-.731-.347-1.008-1.238-.618-1.99s1.298-1.08 2.029-.734 1.007 1.238.617 1.99-1.298 1.08-2.029.734" clip-rule="evenodd" opacity=".4"/><path fill="currentColor" fill-rule="evenodd" d="M12 1.25C6.063 1.25 1.25 6.063 1.25 12S6.063 22.75 12 22.75 22.75 17.937 22.75 12q0-.29-.015-.577c-.046-.872-.873-1.255-1.482-1.187q-.124.014-.253.014A2.25 2.25 0 0 1 18.75 8c0-.403-.225-.715-.477-.888a1.07 1.07 0 0 0-1.018-.113A3.25 3.25 0 0 1 12.99 2.77c.252-.616-.11-1.521-.99-1.521M2.75 12a9.25 9.25 0 0 1 8.661-9.232 4.75 4.75 0 0 0 5.882 5.803 3.75 3.75 0 0 0 3.954 3.171l.003.258a9.25 9.25 0 0 1-18.5 0m4.08-4.47c.546-.309 1.235-.409 1.862-.059.607.338.917.965 1.018 1.575.102.62.01 1.313-.273 1.954-.282.64-.728 1.165-1.268 1.47-.544.31-1.234.41-1.861.06-.607-.339-.917-.965-1.018-1.575-.102-.62-.01-1.314.273-1.955.282-.639.728-1.165 1.268-1.47m.74 1.305c-.213.12-.46.375-.635.771a2 2 0 0 0-.165 1.105c.053.32.184.461.268.508.063.036.185.064.392-.053.213-.12.46-.376.635-.772.174-.394.216-.793.165-1.104-.053-.32-.184-.462-.268-.509-.063-.035-.185-.064-.392.054m4.942 6.693c.56-1.083 1.893-1.6 3.016-1.066 1.145.543 1.531 1.914.962 3.012-.56 1.084-1.893 1.6-3.016 1.067-1.145-.544-1.531-1.915-.963-3.013m2.373.289c-.339-.16-.823-.02-1.042.401-.21.406-.043.817.274.967.338.161.823.02 1.041-.4.21-.407.044-.818-.273-.968M14.008 12a1 1 0 1 0 0-2h-.01a1 1 0 1 0 0 2zm-5 4a1 1 0 0 1-1 1h-.01a1 1 0 1 1 0-2h.01a1 1 0 0 1 1 1" clip-rule="evenodd"/></svg>