<svg xmlns="http://www.w3.org/2000/svg" fill="none" viewBox="0 0 24 24"><path fill="currentColor" d="M12 19.5c-1.332.622-3.083 1-5 1-1.066 0-2.08-.117-3-.327-1.5-.344-2-1.247-2-2.787V6.614c0-.985 1.04-1.661 2-1.441.92.21 1.934.327 3 .327 1.917 0 3.668-.378 5-1s3.083-1 5-1c1.066 0 2.08.117 3 .327 1.582.363 2 1.293 2 2.787v10.772c0 .985-1.04 1.661-2 1.441-.92-.21-1.934-.327-3-.327-1.917 0-3.668.378-5 1" opacity=".4"/><path fill="currentColor" fill-rule="evenodd" d="M12.317 5.18c1.218-.57 2.857-.93 4.683-.93 1.012 0 1.97.11 2.833.308.664.153.966.393 1.132.647.183.283.285.712.285 1.409v10.772c0 .402-.49.846-1.083.71A14.3 14.3 0 0 0 17 17.75c-2.008 0-3.87.395-5.317 1.07-1.218.57-2.857.93-4.683.93-1.012 0-1.97-.11-2.833-.308-.624-.144-.933-.375-1.109-.635-.19-.281-.308-.716-.308-1.421V6.614c0-.402.49-.846 1.083-.71A14.3 14.3 0 0 0 7 6.25c2.008 0 3.87-.395 5.317-1.07M17 2.75c-2.008 0-3.87.395-5.317 1.07-1.218.57-2.857.93-4.683.93-1.012 0-1.97-.11-2.833-.308-1.326-.304-2.917.605-2.917 2.172v10.772c0 .836.132 1.622.566 2.263.45.662 1.14 1.054 2.017 1.255A14.3 14.3 0 0 0 7 21.25c2.008 0 3.87-.395 5.317-1.07 1.218-.57 2.857-.93 4.683-.93 1.012 0 1.97.11 2.833.308 1.326.304 2.917-.605 2.917-2.172V6.614c0-.797-.107-1.58-.528-2.227-.44-.675-1.138-1.08-2.055-1.29A14.3 14.3 0 0 0 17 2.75m-5 4.5a.75.75 0 0 1 .75.75v.583h.813c.976 0 1.687.83 1.687 1.75V11c0 .362-.11.71-.303 1 .193.29.303.638.303 1v.667c0 .92-.71 1.75-1.687 1.75h-.813V16a.75.75 0 0 1-1.5 0v-.583H9.5a.75.75 0 0 1 0-1.5h.188v-3.834H9.5a.75.75 0 1 1 0-1.5h1.75V8a.75.75 0 0 1 .75-.75m-.812 2.833v1.167h2.374c.06 0 .188-.066.188-.25v-.667c0-.184-.129-.25-.187-.25zm2.374 2.667h-2.374v1.167h2.374c.06 0 .188-.066.188-.25V13c0-.184-.129-.25-.187-.25m-6.814.268a.75.75 0 0 0-.696-.8 13 13 0 0 1-.944-.101.75.75 0 0 0-.215 1.484q.515.075 1.055.113a.75.75 0 0 0 .8-.696m12.994-1.769a.75.75 0 0 0-.634-.85q-.516-.074-1.056-.112a.75.75 0 1 0-.104 1.496q.485.035.945.101a.75.75 0 0 0 .85-.635" clip-rule="evenodd"/></svg>