<svg xmlns="http://www.w3.org/2000/svg" fill="none" viewBox="0 0 24 24"><path fill="currentColor" d="M9 4.797H2.833v14.4H9c1.657 0 3-1.612 3-3.6s-1.343-3.6-3-3.6c1.657 0 3-1.612 3-3.6s-1.343-3.6-3-3.6" opacity=".4"/><path fill="currentColor" fill-rule="evenodd" d="M5.25 3a.75.75 0 0 0-1.5 0v1.05H2a.75.75 0 0 0 0 1.5h.083v12.9H2a.75.75 0 0 0 0 1.5h1.75V21a.75.75 0 0 0 1.5 0v-1.05h2.667V21a.75.75 0 0 0 1.5 0v-1.076c1.97-.244 3.333-2.202 3.333-4.324 0-1.434-.622-2.794-1.635-3.6 1.013-.806 1.635-2.166 1.635-3.6 0-2.122-1.362-4.08-3.333-4.324V3a.75.75 0 0 0-1.5 0v1.05H5.25zm-1.667 8.25v-5.7H9c1.12 0 2.25 1.142 2.25 2.85S10.12 11.25 9 11.25zm0 1.5H9c1.12 0 2.25 1.142 2.25 2.85S10.12 18.45 9 18.45H3.583zm13.94-2.712a.75.75 0 1 0-1.046-1.076 9 9 0 0 1-.544.448l-.06.047c-.242.19-.526.413-.797.643a7 7 0 0 0-.828.797 2.7 2.7 0 0 0-.323.46 1.4 1.4 0 0 0-.175.643c0 .258.089.48.175.642.09.168.206.323.323.461.235.276.537.551.828.797.27.23.555.453.797.643l.06.047q.407.318.544.448a.75.75 0 1 0 1.046-1.076 9 9 0 0 0-.664-.551l-.057-.045c-.245-.193-.508-.4-.757-.61l-.007-.006H22a.75.75 0 0 0 0-1.5h-5.962l.007-.006c.249-.21.512-.417.757-.61l.057-.045c.245-.192.502-.394.664-.551" clip-rule="evenodd"/></svg>