<svg xmlns="http://www.w3.org/2000/svg" fill="none" viewBox="0 0 24 24"><path fill="currentColor" fill-rule="evenodd" d="M13.5 19.5v-8c0-.943 0-1.414-.293-1.707S12.443 9.5 11.5 9.5s-1.414 0-1.707.293-.293.764-.293 1.707v8c0 .943 0 1.414.293 1.707s.764.293 1.707.293 1.414 0 1.707-.293.293-.764.293-1.707m7 0v-7h-4v7c0 .943 0 1.414.293 1.707s.764.293 1.707.293 1.414 0 1.707-.293.293-.764.293-1.707m-14-5v5c0 .943 0 1.414-.293 1.707s-.764.293-1.707.293-1.414 0-1.707-.293S2.5 20.443 2.5 19.5v-5c0-.943 0-1.414.293-1.707S3.557 12.5 4.5 12.5s1.414 0 1.707.293.293.764.293 1.707" clip-rule="evenodd" opacity=".4"/><path fill="currentColor" fill-rule="evenodd" d="M19 11.25a.75.75 0 0 1-.75-.75v-.58H16.5a.75.75 0 0 1 0-1.5h.188V4.58H16.5a.75.75 0 0 1 0-1.5h1.75V2.5a.75.75 0 0 1 1.5 0v.58h.812c.931 0 1.688.785 1.688 1.75v.67c0 .371-.112.716-.303 1 .191.284.303.629.303 1v.67c0 .965-.757 1.75-1.688 1.75h-.812v.58a.75.75 0 0 1-.75.75m-.812-2.83h2.374c.089 0 .188-.103.188-.25V7.5c0-.147-.099-.25-.188-.25h-2.374zm0-2.67h2.374c.089 0 .188-.103.188-.25v-.67c0-.147-.099-.25-.188-.25h-2.374zM11.5 22.25c1.074 0 1.723 0 2.235-.507l.009-.009c.506-.519.506-1.164.506-2.234v-8c0-1.07 0-1.715-.506-2.234l-.009-.009c-.513-.507-1.161-.507-2.235-.507s-1.723 0-2.235.507l-.009.009c-.506.519-.506 1.164-.506 2.234v8c0 1.07 0 1.715.506 2.234l.009.009c.513.507 1.161.507 2.235.507m0-1.5c-.497 0-1.06 0-1.176-.071-.074-.104-.074-.699-.074-1.179v-8c0-.48 0-1.075.074-1.179.117-.071.679-.071 1.176-.071s1.06 0 1.176.071c.074.104.074.699.074 1.179v8c0 .48 0 1.075-.074 1.179-.117.071-.679.071-1.176.071m7 1.5c1.074 0 1.723 0 2.235-.507l.009-.009c.506-.519.506-1.164.506-2.234v-7a.75.75 0 0 0-1.5 0v7c0 .48 0 1.075-.074 1.179-.117.071-.679.071-1.176.071s-1.06 0-1.176-.071c-.074-.104-.074-.699-.074-1.179v-7a.75.75 0 0 0-1.5 0v7c0 1.07 0 1.715.506 2.234l.009.009c.513.507 1.161.507 2.235.507m-14 0c1.075 0 1.723 0 2.235-.507l.009-.009c.506-.519.506-1.164.506-2.234v-5c0-1.07 0-1.715-.506-2.234l-.009-.009c-.512-.507-1.161-.507-2.235-.507s-1.723 0-2.235.507l-.009.009c-.506.519-.506 1.164-.506 2.234v5c0 1.07 0 1.715.506 2.234l.009.009c.512.507 1.16.507 2.235.507m0-1.5c-.497 0-1.06 0-1.176-.071-.074-.104-.074-.699-.074-1.179v-5c0-.48 0-1.074.074-1.179.118-.071.679-.071 1.176-.071s1.06 0 1.176.071c.074.104.074.699.074 1.179v5c0 .48 0 1.075-.074 1.179-.118.071-.679.071-1.176.071" clip-rule="evenodd"/></svg>