<svg xmlns="http://www.w3.org/2000/svg" fill="none" viewBox="0 0 24 24"><path fill="currentColor" d="M20.016 2.445c-1.113 0-2.016 2.687-2.016 6v10.646c0 1.512 0 2.268-.462 2.565-.755.486-1.922-.533-2.509-.903-.485-.306-.727-.46-.996-.468-.291-.01-.538.137-1.062.468l-1.911 1.205c-.516.325-.773.487-1.06.487s-.545-.162-1.06-.487l-1.91-1.205c-.486-.306-.728-.46-.997-.468-.291-.01-.538.137-1.062.468-.587.37-1.754 1.39-2.51.903C2 21.359 2 20.603 2 19.091V8.5c0-2.854 0-4.281.879-5.168.878-.887 2.293-.887 5.121-.887z" opacity=".4"/><path fill="currentColor" fill-rule="evenodd" d="M9.999 23.195c-.515 0-.912-.255-1.464-.609L6.63 21.39l-.022-.014c-.222-.141-.532-.339-.603-.342h-.001c-.068 0-.387.2-.612.341l-.022.014a9 9 0 0 0-.306.21c-.538.376-1.343.94-2.15.94-.291 0-.581-.074-.86-.255-.804-.522-.804-1.469-.804-3.189v-10.6c0-2.96 0-4.59 1.098-5.69C3.444 1.695 5.062 1.695 8 1.695h12.016c1.31 0 2.3 1.743 2.647 4.662v.003c.114.967.197 1.666-.331 2.247-.525.59-1.238.59-2.316.59v-.002H18.75v9.901c0 1.72 0 2.667-.804 3.19-1.053.682-2.279-.174-3.011-.687a8 8 0 0 0-.307-.209c-.222-.142-.551-.352-.624-.355-.065-.003-.393.203-.619.345l-.016.01-1.912 1.2c-.545.35-.944.605-1.458.605M8 3.195h10.192c-.64 1.321-.942 3.33-.942 5.25v10.651c0 .858 0 1.746-.128 1.935-.102.052-.417-.024-1.327-.66l-.028-.02a10 10 0 0 0-.335-.227l-.005-.003c-.534-.341-.887-.567-1.369-.585-.528-.018-.909.222-1.483.583l-.003.001-1.917 1.204-.033.021c-.23.147-.55.35-.622.35-.076 0-.424-.223-.661-.375l-1.906-1.197c-.536-.343-.891-.57-1.374-.588-.53-.018-.91.222-1.486.584l-.002.001c-.096.06-.2.133-.309.209l-.058.04c-.91.637-1.224.714-1.326.661-.128-.189-.128-1.076-.128-1.935v-10.6c0-2.643 0-3.97.662-4.633.634-.64 1.793-.667 4.588-.667m10.766 4.5h1.25c.499 0 1.119 0 1.196-.087l.008-.008c.07-.077.008-.602-.047-1.066-.275-2.312-.941-3.25-1.157-3.336-.332.122-1.129 1.63-1.25 4.497m-9.516 7.75a.75.75 0 0 0 1.5 0v-.75h1.125a1.88 1.88 0 0 0 1.875-1.88v-.75c0-.42-.139-.808-.374-1.12.235-.312.374-.7.374-1.12v-.76c0-1.03-.841-1.87-1.875-1.87H10.75v-.75a.75.75 0 0 0-1.5 0v.75H7a.75.75 0 0 0 0 1.5h.375v4.5H7a.75.75 0 0 0 0 1.5h2.25zm2.625-2.25h-3v-1.5h3c.207 0 .375.166.375.37v.75c0 .213-.165.38-.375.38m0-3h-3v-1.5h3c.207 0 .375.166.375.37v.76c0 .204-.168.37-.375.37" clip-rule="evenodd"/></svg>