<svg xmlns="http://www.w3.org/2000/svg" fill="none" viewBox="0 0 24 24"><path fill="currentColor" d="M3 10c0-3.771 0-5.657 1.172-6.828S7.229 2 11 2h2c3.771 0 5.657 0 6.828 1.172S21 6.229 21 10v6H3z" opacity=".4"/><path fill="currentColor" fill-rule="evenodd" d="M13.056 1.25h-2.112c-1.838 0-3.294 0-4.433.153-1.172.158-2.121.49-2.87 1.238-.748.749-1.08 1.698-1.238 2.87-.153 1.14-.153 2.595-.153 4.433v5.306H2a.75.75 0 0 0 0 1.5h3.786L3.33 21.665a.75.75 0 0 0 1.342.67l2.792-5.585h3.787V20a.75.75 0 0 0 1.5 0v-3.25h3.787l2.792 5.586a.75.75 0 0 0 1.342-.671l-2.457-4.915H22a.75.75 0 0 0 0-1.5h-.25V9.944c0-1.838 0-3.294-.153-4.433-.158-1.172-.49-2.121-1.238-2.87-.749-.748-1.698-1.08-2.87-1.238-1.14-.153-2.595-.153-4.433-.153m-1.055 14h8.249V10c0-1.907-.002-3.261-.14-4.29-.135-1.005-.389-1.585-.812-2.008s-1.003-.677-2.009-.812c-1.027-.138-2.382-.14-4.289-.14h-2c-1.907 0-3.261.002-4.29.14-1.005.135-1.585.389-2.008.812S4.025 4.705 3.89 5.71c-.138 1.029-.14 2.383-.14 4.29v5.25zM10.25 9a.75.75 0 0 1 .75-.75h2a.75.75 0 0 1 0 1.5h-2a.75.75 0 0 1-.75-.75m-1.5-2a.75.75 0 0 0-1.28-.53l-1 1a.75.75 0 0 0 .78 1.237V11a.75.75 0 0 0 1.5 0zm8.537-.693A.75.75 0 0 1 17.75 7v4a.75.75 0 0 1-1.5 0V8.707a.75.75 0 0 1-.78-1.237l1-1a.75.75 0 0 1 .817-.163" clip-rule="evenodd"/></svg>