<svg xmlns="http://www.w3.org/2000/svg" fill="none" viewBox="0 0 24 24"><path fill="currentColor" d="M16 15a7 7 0 1 1-14 0 7 7 0 0 1 14 0" opacity=".4"/><path fill="currentColor" fill-rule="evenodd" d="M9.775 4.772c-.086-.625.05-1.29.336-1.673a.8.8 0 0 1 .482-.33c.192-.041.498-.03.953.18.906.416 1.338 1.01 1.845 1.707q.13.18.27.368c.312.415.69.864 1.238 1.198.56.341 1.237.528 2.1.528a.75.75 0 0 0 0-1.5c-.635 0-1.032-.133-1.319-.309-.3-.182-.54-.446-.82-.818q-.11-.147-.226-.311c-.507-.705-1.173-1.634-2.461-2.226-.665-.306-1.306-.41-1.894-.284a2.3 2.3 0 0 0-1.37.9c-.536.719-.717 1.702-.643 2.566a2 2 0 0 0-.247.035A2.75 2.75 0 0 0 6.249 6c-.149.228-.254.493-.39.831l-.024.06-.513 1.285a7.75 7.75 0 1 0 7.357 0l-.514-1.284-.024-.06c-.135-.34-.241-.604-.39-.832a2.75 2.75 0 0 0-1.976-1.23m12.755-.8a.75.75 0 0 1 0 1.06l-.97.97.97.97a.75.75 0 0 1-1.06 1.06l-.97-.97-.97.97a.75.75 0 1 1-1.06-1.06l.97-.97-.97-.97a.75.75 0 0 1 1.06-1.06l.97.97.97-.97a.75.75 0 0 1 1.06 0M10.774 7.454l-.002-.004c-.17-.428-.22-.543-.278-.631a1.25 1.25 0 0 0-.804-.545c-.104-.02-.23-.024-.69-.024s-.586.003-.69.024a1.25 1.25 0 0 0-.804.545c-.057.088-.107.203-.278.63l-.002.005a7.8 7.8 0 0 1 3.548 0M2.75 15a6.25 6.25 0 1 1 12.5 0 6.25 6.25 0 0 1-12.5 0" clip-rule="evenodd"/></svg>