<svg xmlns="http://www.w3.org/2000/svg" fill="none" viewBox="0 0 24 24"><path fill="currentColor" d="M21.21 5.838a2.69 2.69 0 0 0-2.286-.762 2.695 2.695 0 1 0-5.067.847c.212.413.227.944-.101 1.273l-6.56 6.56c-.33.328-.86.313-1.274.1a2.696 2.696 0 1 0-.846 5.068 2.695 2.695 0 1 0 5.068-.847c-.213-.413-.228-.944.1-1.273l6.56-6.56c.33-.328.86-.313 1.274-.1a2.696 2.696 0 0 0 3.133-4.306" opacity=".4"/><path fill="currentColor" fill-rule="evenodd" d="M13.82 2.259a3.445 3.445 0 0 1 5.86 2.06 3.445 3.445 0 1 1-1.945 6.492.6.6 0 0 0-.29-.07c-.075.003-.101.024-.11.034l-6.56 6.56c-.01.009-.031.035-.035.11a.6.6 0 0 0 .07.29 3.446 3.446 0 1 1-6.49 1.946 3.445 3.445 0 1 1 1.945-6.492c.103.053.21.075.29.07.075-.003.101-.024.11-.034l6.56-6.56c.01-.009.031-.035.035-.11a.6.6 0 0 0-.07-.29 3.45 3.45 0 0 1 .63-4.006M5.81 19.516a1.945 1.945 0 1 0 3.666-1.097c-.295-.575-.409-1.498.238-2.145l6.56-6.56c.647-.647 1.57-.533 2.145-.238a1.946 1.946 0 1 0-.489-3.108.75.75 0 0 1-1.06-1.06c.384-.385.837-.66 1.32-.824a1.945 1.945 0 1 0-3.666 1.097l-.594.304.594-.304c.295.575.409 1.498-.238 2.145l-6.56 6.56c-.647.647-1.57.533-2.145.238a1.946 1.946 0 1 0-.61 3.658c.402-.057.789-.24 1.099-.55a.75.75 0 1 1 1.06 1.06c-.384.385-.837.66-1.32.824" clip-rule="evenodd"/></svg>