<svg xmlns="http://www.w3.org/2000/svg" fill="none" viewBox="0 0 24 24"><path fill="currentColor" d="M4 17.866v-8.51c0-2.175 0-3.718.232-4.856L20 19.943c-.062 1.033-.238 1.63-.741 1.905-1.5.822-4.313-1.92-5.649-2.746-.775-.479-1.162-.718-1.593-.718s-.819.239-1.594.718c-1.336.826-4.149 3.568-5.649 2.746C4 21.424 4 20.238 4 17.866" opacity=".4"/><path fill="currentColor" fill-rule="evenodd" d="M12 2.75c1.906 0 3.263.001 4.293.135 1.011.13 1.593.377 2.015.784.419.403.669.953.803 1.914.137.985.14 2.286.14 4.125V16a.75.75 0 0 0 1.5 0V9.65c0-1.768 0-3.174-.154-4.275-.16-1.138-.495-2.06-1.248-2.786-.75-.722-1.696-1.04-2.863-1.192-1.138-.147-2.592-.147-4.431-.147h-.072c-1.288 0-2.38 0-3.3.047-.923.048-1.72.145-2.406.358a.75.75 0 1 0 .446 1.432c.507-.157 1.157-.246 2.036-.292.877-.045 1.933-.045 3.241-.045M1.47 1.47a.75.75 0 0 0 0 1.06l20 20a.75.75 0 1 0 1.06-1.06l-20-20a.75.75 0 0 0-1.06 0m18.995 20.056c-.165.405-.426.75-.846.98-.63.346-1.324.275-1.91.092-.593-.184-1.194-.519-1.744-.875-.555-.36-1.1-.771-1.573-1.13l-.056-.042c-.463-.352-.836-.635-1.12-.81-.4-.248-.653-.403-.858-.502-.189-.092-.279-.105-.341-.105-.063 0-.153.013-.341.105-.205.099-.458.254-.858.501-.285.176-.657.459-1.12.81l-.057.043c-.473.359-1.017.77-1.573 1.13-.55.356-1.15.69-1.743.875-.586.183-1.28.254-1.911-.092-.7-.384-.95-1.087-1.059-1.807-.105-.702-.105-1.637-.105-2.769V9.264c0-1.997 0-3.549.214-4.74l1.35 1.35c-.062.899-.064 2.026-.064 3.483v8.51c0 1.21.002 2.032.089 2.61.085.57.222.673.296.714.12.065.34.101.744-.025.398-.124.865-.372 1.373-.702a25 25 0 0 0 1.483-1.066l.09-.069c.43-.326.856-.65 1.204-.865l.03-.018c.362-.224.68-.42.964-.558.306-.148.625-.254.994-.254.368 0 .688.106.994.254.283.137.602.334.964.558l.03.018c.347.215.774.539 1.204.866l.09.068c.476.361.98.74 1.482 1.066.508.33.975.578 1.374.702.404.126.624.09.743.025.092-.05.242-.185.322-.91z" clip-rule="evenodd"/></svg>