<svg xmlns="http://www.w3.org/2000/svg" fill="none" viewBox="0 0 24 24"><path fill="currentColor" d="M3.891 3.891C5.282 2.5 7.521 2.5 12 2.5c4.478 0 6.718 0 8.109 1.391S21.5 7.521 21.5 12c0 4.478 0 6.718-1.391 8.109S16.479 21.5 12 21.5c-4.478 0-6.718 0-8.109-1.391S2.5 16.479 2.5 12c0-4.478 0-6.718 1.391-8.109" opacity=".4"/><path fill="currentColor" fill-rule="evenodd" d="M1.755 14.006a.75.75 0 1 0 1.5-.012q-.006-.877-.005-1.91c0-.691 0-1.325.005-1.91a.75.75 0 0 0-1.5-.013q-.006.888-.005 1.92v.005q-.001 1.032.005 1.92m18.99-.012a.75.75 0 0 0 1.5.012q.006-.888.005-1.92v-.005q.001-1.032-.005-1.92a.75.75 0 0 0-1.5.012q.006.877.005 1.91c0 .691 0 1.325-.005 1.91m-.234-7.525a.75.75 0 1 0 1.475-.272c-.21-1.143-.6-2.071-1.344-2.822s-1.667-1.145-2.803-1.359a.75.75 0 1 0-.277 1.475c.942.177 1.55.471 2.014.94.466.47.76 1.085.935 2.038M2.014 6.197a.75.75 0 1 0 1.475.272c.176-.953.47-1.568.935-2.038s1.072-.763 2.015-.94a.75.75 0 0 0-.277-1.475c-1.136.214-2.059.609-2.803 1.36-.744.75-1.134 1.678-1.345 2.821m11.88-2.942a.75.75 0 0 0 .013-1.5q-.881-.006-1.904-.005h-.005q-1.023-.001-1.904.005a.75.75 0 1 0 .013 1.5q.868-.006 1.893-.005c.685 0 1.313 0 1.894.005M6.544 22.06c1.38.19 3.147.19 5.398.19h.117c2.25 0 4.017 0 5.397-.19 1.416-.195 2.534-.603 3.41-1.5.758-.778 1.157-1.74 1.372-2.926a.75.75 0 0 0-1.476-.268c-.181 1.001-.486 1.65-.97 2.146-.552.566-1.298.89-2.54 1.062-1.266.174-2.93.176-5.252.176s-3.986-.002-5.251-.176c-1.242-.171-1.989-.496-2.541-1.062-.484-.496-.788-1.145-.97-2.146a.75.75 0 1 0-1.476.268c.216 1.187.614 2.148 1.372 2.925.876.898 1.995 1.306 3.41 1.5" clip-rule="evenodd"/></svg>