<svg xmlns="http://www.w3.org/2000/svg" fill="none" viewBox="0 0 24 24"><path fill="currentColor" d="M3.586 10.5h-.123l-.196 2.276c-.352 4.079-.528 6.119.6 7.421S6.94 21.5 10.824 21.5h2.352c3.885 0 5.828 0 6.957-1.303s.952-3.342.6-7.421l-.196-2.276h-.123c-.357.27-.81.48-1.363.642L14.88 12.37c-1.426.42-2.139.63-2.88.63s-1.454-.21-2.88-.63l-4.171-1.228c-.553-.162-1.006-.371-1.363-.642" opacity=".4"/><path fill="currentColor" fill-rule="evenodd" d="M11.897 1.75h-.045c-.57 0-1.069 0-1.48.054-.446.058-.863.187-1.237.495-.364.3-.586.688-.763 1.121-.168.413-.321.94-.505 1.568l-.076.262H5.327c-.614 0-1.05 0-1.418.085-1.03.237-1.908.978-2.121 2.013-.075.364-.025.777.033 1.26l.013.106c.094.781.365 1.448.859 1.986l-.179 2.068c-.171 1.991-.307 3.561-.251 4.793.056 1.262.315 2.294 1.037 3.128.728.84 1.697 1.214 2.903 1.39 1.167.171 2.669.171 4.56.171h2.475c1.89 0 3.392 0 4.559-.17 1.205-.177 2.174-.551 2.903-1.391.722-.834.98-1.866 1.037-3.128.056-1.232-.08-2.802-.252-4.793l-.178-2.07c.493-.537.764-1.203.857-1.984l.013-.107c.059-.482.109-.895.034-1.26-.213-1.034-1.092-1.775-2.122-2.012-.368-.085-.804-.085-1.418-.085h-2.463l-.077-.262c-.183-.628-.337-1.155-.505-1.568-.176-.433-.398-.82-.763-1.121-.373-.308-.79-.437-1.237-.495-.41-.054-.91-.054-1.48-.054zm2.748 3.5c-.166-.569-.286-.964-.408-1.264-.13-.322-.234-.453-.328-.53-.085-.07-.201-.13-.478-.165-.301-.04-.701-.041-1.33-.041h-.204c-.629 0-1.028.001-1.33.04-.276.037-.393.096-.478.166-.093.078-.197.208-.327.53-.123.3-.242.695-.409 1.264zm4.617 6.612q.324-.095.621-.216l.103 1.194c.178 2.06.303 3.532.253 4.654-.05 1.105-.267 1.743-.673 2.212-.4.463-.967.74-1.986.89-1.046.152-2.438.154-4.404.154h-2.352c-1.966 0-3.358-.002-4.404-.155-1.019-.15-1.585-.426-1.986-.889-.406-.469-.623-1.107-.673-2.212-.05-1.122.075-2.593.253-4.654l.103-1.193q.296.12.62.215l4.17 1.228.111.033c1.32.388 2.131.627 2.981.627s1.661-.239 2.981-.627l.111-.033zM5.427 6.75c-.754 0-1.002.005-1.18.046-.586.135-.92.511-.99.854-.019.092-.012.235.067.886.065.546.24.907.498 1.175.269.28.686.52 1.338.712l4.17 1.227c1.466.431 2.06.599 2.668.599s1.203-.168 2.669-.6l4.17-1.227c.652-.192 1.07-.432 1.338-.712.258-.268.434-.63.499-1.175.078-.651.085-.794.066-.886-.07-.343-.404-.719-.989-.854-.178-.041-.426-.046-1.18-.046z" clip-rule="evenodd"/></svg>