<svg xmlns="http://www.w3.org/2000/svg" fill="none" viewBox="0 0 24 24"><path fill="currentColor" fill-rule="evenodd" d="M5 4c0-.466 0-.699.076-.883a1 1 0 0 1 .541-.54c.184-.077.417-.077.883-.077h1c.466 0 .699 0 .883.076a1 1 0 0 1 .54.541C9 3.301 9 3.534 9 4s0 .699-.076.883a1 1 0 0 1-.541.54c-.184.077-.417.077-.883.077h-1c-.466 0-.699 0-.883-.076a1 1 0 0 1-.54-.541C5 4.699 5 4.466 5 4m10.393 8.5H8.607c-1.261 0-1.892 0-2.414-.125-1.309-.315-2.406-1.19-3.057-2.375H3v7.986c0 1.94 1.79 3.514 4 3.514h10c2.21 0 4-1.573 4-3.514V10h-.136c-.65 1.186-1.748 2.06-3.057 2.375-.522.125-1.153.125-2.414.125m-.317-9.383C15 3.301 15 3.534 15 4s0 .699.076.883a1 1 0 0 0 .541.54c.184.077.417.077.883.077h1c.466 0 .699 0 .883-.076a1 1 0 0 0 .54-.541C19 4.699 19 4.466 19 4s0-.699-.076-.883a1 1 0 0 0-.541-.54c-.184-.077-.417-.077-.883-.077h-1c-.466 0-.699 0-.883.076a1 1 0 0 0-.54.541" clip-rule="evenodd" opacity=".4"/><path fill="currentColor" fill-rule="evenodd" d="M6.5 1.75h-.022c-.214 0-.41 0-.576.011-.178.012-.373.04-.572.122a1.75 1.75 0 0 0-.913.87c-.228.007-.43.023-.615.068-1.008.242-1.768 1.062-1.987 2.075-.065.3-.065.643-.065 1.094v.193c0 1.222 0 1.96.136 2.589q.13.594.37 1.136A1 1 0 0 0 2.25 10v7.986c0 2.443 2.221 4.264 4.75 4.264h10c2.53 0 4.75-1.82 4.75-4.264V10a1 1 0 0 0-.006-.092q.24-.541.37-1.136c.136-.63.136-1.367.136-2.589V5.99c0-.451 0-.794-.065-1.094-.22-1.013-.979-1.833-1.987-2.075a3 3 0 0 0-.615-.067 1.75 1.75 0 0 0-.913-.87 1.8 1.8 0 0 0-.572-.123c-.165-.011-.362-.011-.576-.011h-1.044c-.214 0-.41 0-.576.011-.178.012-.373.04-.572.122a1.75 1.75 0 0 0-.911.867H9.58a1.75 1.75 0 0 0-.911-.867 1.8 1.8 0 0 0-.572-.122c-.165-.011-.362-.011-.576-.011zm13.24 2.848a6 6 0 0 0 .01-.334 1 1 0 0 1 .099.015c.415.1.766.45.871.935.027.121.031.287.031.857 0 1.368-.004 1.932-.102 2.383-.349 1.608-1.534 2.835-3.016 3.191-.414.1-.934.105-2.24.105H8.608c-1.305 0-1.825-.005-2.239-.104-1.482-.357-2.667-1.584-3.016-3.192-.098-.451-.102-1.015-.102-2.382 0-.57.004-.737.03-.858.106-.485.457-.835.872-.935a1 1 0 0 1 .099-.015q0 .181.01.334c.012.178.04.373.122.572.178.428.519.77.947.947.199.082.394.11.572.122.165.011.362.011.576.011h1.044c.214 0 .41 0 .576-.011.178-.012.373-.04.572-.122a1.75 1.75 0 0 0 .947-.947c.082-.199.11-.394.122-.572q.01-.158.01-.348h4.502q0 .19.01.348c.012.178.04.373.122.572.178.428.519.77.947.947.199.082.394.11.572.122.165.011.362.011.576.011h1.044c.214 0 .41 0 .576-.011.178-.012.373-.04.572-.122a1.75 1.75 0 0 0 .947-.947c.082-.199.11-.394.122-.572M5.77 3.401a.25.25 0 0 1 .131-.13 1 1 0 0 1 .103-.013c.108-.008.253-.008.496-.008h1c.243 0 .388 0 .496.008a1 1 0 0 1 .103.012.25.25 0 0 1 .13.131 1 1 0 0 1 .013.103c.008.108.008.253.008.496s0 .388-.008.496a1 1 0 0 1-.012.103.25.25 0 0 1-.131.13 1 1 0 0 1-.103.013 8 8 0 0 1-.496.008h-1c-.243 0-.388 0-.496-.008a1 1 0 0 1-.103-.012.25.25 0 0 1-.13-.131 1 1 0 0 1-.013-.103A8 8 0 0 1 5.75 4c0-.243 0-.388.008-.496A1 1 0 0 1 5.77 3.4m12.212 9.703a5.4 5.4 0 0 0 2.268-1.168v6.05c0 1.438-1.36 2.764-3.25 2.764H7c-1.89 0-3.25-1.326-3.25-2.764v-6.05a5.4 5.4 0 0 0 2.268 1.168c.61.146 1.323.146 2.471.146h7.022c1.149 0 1.862 0 2.471-.146m-2.08-9.834a.25.25 0 0 0-.132.131 1 1 0 0 0-.012.103A8 8 0 0 0 15.75 4c0 .243 0 .388.008.496.004.067.01.095.012.103a.25.25 0 0 0 .131.13 1 1 0 0 0 .103.013c.108.008.253.008.496.008h1c.243 0 .388 0 .496-.008a1 1 0 0 0 .103-.012.25.25 0 0 0 .13-.131 1 1 0 0 0 .013-.103c.008-.108.008-.253.008-.496s0-.388-.008-.496a1 1 0 0 0-.012-.103.25.25 0 0 0-.131-.13 1 1 0 0 0-.103-.013 8 8 0 0 0-.496-.008h-1c-.243 0-.388 0-.496.008a1 1 0 0 0-.103.012M7 17.25a.75.75 0 0 0 0 1.5h3a.75.75 0 0 0 0-1.5z" clip-rule="evenodd"/></svg>