<svg xmlns="http://www.w3.org/2000/svg" fill="none" viewBox="0 0 24 24"><path fill="currentColor" fill-rule="evenodd" d="M22 11.57c0 5.28-4.478 9.56-10 9.56-.649 0-1.297-.06-1.935-.18h-.002c-.458-.08-.686-.12-.846-.1-.161.02-.388.14-.842.39a6.5 6.5 0 0 1-4.224.65c.548-.67.922-1.48 1.087-2.35.1-.53-.148-1.04-.519-1.42C3.033 16.41 2 14.11 2 11.57 2 6.28 6.478 2 12 2c1.751 0 3.397.43 4.828 1.19-.051.16-.078.32-.078.5v1.68h.875c-.815 0-1.223.01-1.545.15-.429.19-.769.55-.947 1.01C15 6.88 15 7.32 15 8.19s0 1.31.133 1.65c.178.46.518.83.947 1.02.322.14.73.14 1.545.14h1.75c.815 0 1.223 0 1.545-.14.413-.19.745-.53.927-.97q.152.825.153 1.68m-2.625-6.19h.248c-.052-.007-.105-.005-.16-.003z" clip-rule="evenodd" opacity=".4"/><path fill="currentColor" fill-rule="evenodd" d="M5.322 22.748q-.659 0-1.31-.121a.75.75 0 0 1-.442-1.212 4.5 4.5 0 0 0 .931-2.015c.061-.325-.202-.637-.319-.756-1.89-1.917-2.932-4.43-2.932-7.074C1.25 5.879 6.072 1.25 12 1.25c.327 0 .676.017 1.068.053a.75.75 0 0 1-.136 1.494A10 10 0 0 0 12 2.75c-5.1 0-9.25 3.957-9.25 8.82 0 2.247.889 4.386 2.503 6.023.595.609.857 1.369.722 2.086a6 6 0 0 1-.525 1.568 5.8 5.8 0 0 0 2.569-.667c.534-.294.804-.437 1.106-.474.27-.034.536.012 1.065.105h.006l.008.002A9.7 9.7 0 0 0 12 20.38a9.93 9.93 0 0 0 6.005-2.025c1.688-1.292 2.846-3.072 3.262-5.012a.75.75 0 1 1 1.467.315c-.491 2.288-1.846 4.379-3.817 5.888A11.44 11.44 0 0 1 12 21.881c-.694 0-1.39-.065-2.069-.192a7 7 0 0 0-.611-.093c-.103.038-.376.188-.569.294l-.015.008-.006.003-.005.003a7.3 7.3 0 0 1-3.403.845zM20.199 11.74H16.82a2.553 2.553 0 0 1-2.55-2.55v-2c0-1.12.725-2.073 1.732-2.415V3.78c0-.273.015-.567.131-.869.31-.803 1.09-1.661 2.355-1.661 1.267 0 2.084.895 2.377 1.662.116.296.131.592.131.868v.988A2.555 2.555 0 0 1 22.75 7.19v2a2.553 2.553 0 0 1-2.55 2.55m-3.378-5.6c-.579 0-1.05.471-1.05 1.05v2c0 .579.471 1.05 1.05 1.05h3.377c.58 0 1.05-.471 1.05-1.05v-2c0-.579-.47-1.05-1.05-1.05zm.681-1.5h1.995v-.86c0-.081 0-.25-.03-.328-.046-.121-.303-.702-.977-.702-.62 0-.874.489-.955.699-.032.083-.032.257-.032.33v.861M11.996 13h.01a1 1 0 0 0 0-2h-.01a1 1 0 0 0 0 2m-4.991-1c0 .552.453 1 1.005 1a1 1 0 0 0 0-2H8a.996.996 0 0 0-.995 1" clip-rule="evenodd"/></svg>