<svg xmlns="http://www.w3.org/2000/svg" fill="none" viewBox="0 0 24 24"><path fill="currentColor" d="M12 21.13c5.522 0 10-4.28 10-9.56 0-.54-.046-1.06-.133-1.57-.039.06-.087.12-.144.19-.429.47-.907.81-1.508.81h-3.43c-.601 0-1.079-.34-1.508-.81-.791-.87.3-1.59.927-2 .069-.04.133-.09.187-.12a3.665 3.665 0 0 1 4.218 0c.054.03.118.08.187.12.232.15.528.35.768.57a9.55 9.55 0 0 0-2.043-3.5c-.287.21-.64.34-1.021.34-.966 0-1.75-.81-1.75-1.8q.001-.315.1-.6C15.413 2.44 13.76 2 12 2 6.478 2 2 6.28 2 11.57c0 2.54 1.033 4.84 2.719 6.55.371.38.619.89.519 1.42a5.26 5.26 0 0 1-1.087 2.35c1.441.27 2.939.03 4.224-.65.454-.25.681-.37.842-.39s.389.02.848.1c.638.12 1.286.18 1.935.18" opacity=".4"/><path fill="currentColor" fill-rule="evenodd" d="M4.012 22.627q.651.121 1.31.121a7.3 7.3 0 0 0 3.403-.845l.005-.003.006-.003.012-.007c.193-.106.468-.257.572-.295.095.003.348.047.606.092.682.128 1.379.193 2.074.193 2.495 0 4.951-.83 6.917-2.335 1.971-1.509 3.326-3.6 3.817-5.888a.75.75 0 0 0-1.467-.315c-.416 1.94-1.574 3.72-3.262 5.012a9.92 9.92 0 0 1-7.811 1.857l-.016-.003c-.52-.09-.785-.136-1.053-.102-.301.037-.572.18-1.106.474a5.8 5.8 0 0 1-2.569.667c.244-.492.421-1.02.525-1.568.135-.717-.127-1.476-.722-2.086-1.614-1.637-2.503-3.776-2.503-6.023 0-4.863 4.15-8.82 9.25-8.82.282 0 .587.016.932.047a.75.75 0 0 0 .815-.679.75.75 0 0 0-.679-.815A12 12 0 0 0 12 1.25c-5.928 0-10.75 4.63-10.75 10.32 0 2.644 1.042 5.157 2.932 7.074.116.119.38.431.319.756a4.5 4.5 0 0 1-.931 2.015.75.75 0 0 0 .442 1.212M16.785 11.75h3.43v.002c.74 0 1.414-.345 2.064-1.057.454-.502.5-.99.459-1.31-.114-.888-.964-1.445-1.526-1.813l-.047-.031-.13-.087a4.43 4.43 0 0 0-5.07 0l-.108.071-.07.046c-.561.368-1.411.925-1.525 1.813-.041.32.005.808.46 1.312.649.709 1.323 1.054 2.063 1.054m-.952-2.063a.4.4 0 0 1-.082-.118v-.001q.045-.211.859-.744.116-.075.207-.138a2.91 2.91 0 0 1 3.366 0q.09.063.207.138c.54.355.83.605.859.744a.4.4 0 0 1-.08.116c-.458.502-.75.566-.954.566h-3.43c-.204 0-.497-.064-.952-.563M18.5 6.35c-1.379 0-2.5-1.144-2.5-2.55s1.121-2.55 2.5-2.55S21 2.394 21 3.8s-1.121 2.55-2.5 2.55m0-3.6c-.551 0-1 .471-1 1.05s.449 1.05 1 1.05 1-.471 1-1.05-.449-1.05-1-1.05M10.999 12c0 .552.452 1 1.004 1a1 1 0 0 0 0-2h-.008a.997.997 0 0 0-.996 1m-3.995 0c0 .552.452 1 1.004 1a1 1 0 0 0 0-2h-.01a.996.996 0 0 0-.994 1" clip-rule="evenodd"/></svg>