<svg xmlns="http://www.w3.org/2000/svg" fill="none" viewBox="0 0 24 24"><path fill="currentColor" d="M12.002 21.133c5.522 0 10-4.283 10-9.567 0-1.78-.508-3.447-1.394-4.874C19.823 7.373 18.758 8 17.502 8c-2.11 0-3.68-1.77-4.295-2.591-.137-.183-.205-.274-.205-.409s.068-.227.205-.409c.39-.521 1.166-1.424 2.219-2.015A10.4 10.4 0 0 0 12.002 2c-5.522 0-10 4.284-10 9.567 0 2.538 1.033 4.845 2.719 6.556.37.377.619.892.519 1.422a5.3 5.3 0 0 1-1.087 2.348 6.5 6.5 0 0 0 4.224-.657c.454-.242.681-.362.842-.387.16-.024.389.019.848.105.638.12 1.286.18 1.935.179" opacity=".4"/><path fill="currentColor" fill-rule="evenodd" d="M17.502 8.75c-2.463 0-4.244-2.022-4.895-2.891l-.002-.003c-.166-.221-.353-.472-.353-.856s.187-.635.353-.856l.002-.003c.651-.869 2.432-2.891 4.895-2.891s4.244 2.021 4.895 2.891l.002.003c.166.221.353.472.353.856s-.187.635-.353.856l-.002.003c-.651.869-2.432 2.891-4.895 2.891M13.838 5c.539.709 1.912 2.25 3.664 2.25S20.628 5.709 21.166 5c-.539-.709-1.912-2.25-3.664-2.25S14.376 4.291 13.838 5M4.016 22.631q.647.12 1.301.12h-.001a7.3 7.3 0 0 0 3.413-.85l.057-.031a7 7 0 0 1 .548-.275c.093.004.336.05.595.098.683.128 1.377.194 2.073.192 5.928 0 10.75-4.628 10.75-10.317 0-.565-.049-1.134-.144-1.693a.75.75 0 1 0-1.478.252c.081.476.122.961.122 1.441 0 4.862-4.149 8.817-9.251 8.817a9.7 9.7 0 0 1-1.798-.167c-.54-.102-.812-.153-1.097-.109-.287.044-.553.185-1.081.466a5.8 5.8 0 0 1-2.573.674 6 6 0 0 0 .525-1.565c.136-.722-.127-1.483-.722-2.087-1.614-1.639-2.503-3.83-2.503-6.03 0-2.199.852-4.31 2.4-5.948a9.36 9.36 0 0 1 5.92-2.872.751.751 0 0 0-.141-1.494 10.86 10.86 0 0 0-6.869 3.335c-1.812 1.917-2.81 4.332-2.81 6.98 0 2.646 1.042 5.161 2.934 7.082.242.245.36.528.317.755a4.55 4.55 0 0 1-.932 2.015.75.75 0 0 0 .445 1.211M16.508 5c0 .552.452 1 1.004 1a1 1 0 0 0 0-2h-.008a.996.996 0 0 0-.996 1m-1.505 7c0 .552.452 1 1.004 1a1 1 0 0 0 0-2h-.008a.997.997 0 0 0-.996 1m-4 0c0 .552.452 1 1.004 1a1 1 0 0 0 0-2h-.008a.997.997 0 0 0-.996 1m-3.995 0c0 .552.452 1 1.004 1a1 1 0 0 0 0-2h-.008a.996.996 0 0 0-.996 1" clip-rule="evenodd"/></svg>