<svg xmlns="http://www.w3.org/2000/svg" fill="none" viewBox="0 0 24 24"><path fill="currentColor" d="M22 11.57c0 5.28-4.478 9.56-10 9.56-.649 0-1.297-.06-1.935-.18-.459-.08-.688-.12-.848-.1s-.388.14-.842.39a6.5 6.5 0 0 1-4.224.65c.548-.67.922-1.48 1.087-2.35.1-.53-.148-1.04-.519-1.42C3.033 16.41 2 14.11 2 11.57 2 6.28 6.478 2 12 2s10 4.28 10 9.57" opacity=".4"/><path fill="currentColor" fill-rule="evenodd" d="M5.324 22.749q-.66 0-1.31-.121a.752.752 0 0 1-.443-1.212 4.5 4.5 0 0 0 .931-2.015c.061-.326-.202-.637-.318-.756-1.891-1.918-2.934-4.431-2.934-7.075 0-5.69 4.825-10.32 10.755-10.32.518 0 1.057.039 1.601.118a.75.75 0 0 1-.212 1.485 10 10 0 0 0-1.389-.102c-5.103 0-9.255 3.957-9.255 8.82 0 2.246.889 4.386 2.504 6.023.595.608.857 1.367.722 2.086a6 6 0 0 1-.525 1.568 5.8 5.8 0 0 0 2.571-.667c.535-.294.806-.437 1.105-.474.269-.034.533.012 1.053.102l.018.003a10 10 0 0 0 1.807.169c4.964 0 9.026-3.696 9.246-8.415a.749.749 0 1 1 1.498.07c-.258 5.52-4.977 9.845-10.744 9.845-.694 0-1.392-.065-2.074-.193a7 7 0 0 0-.607-.092c-.107.04-.392.196-.585.302l-.005.003-.005.003a7.3 7.3 0 0 1-3.404.845zM18.499 10.75c-.815 0-1.57-.884-2.55-2.131l-.028-.036a9 9 0 0 0-.46-.562.75.75 0 1 1 1.078-1.041c.157.163.348.406.59.713l.016.021c.148.188.371.473.604.747V2a.75.75 0 0 1 1.5 0v6.461c.233-.274.457-.559.605-.747l.016-.021c.241-.307.432-.55.59-.713a.75.75 0 1 1 1.078 1.042c-.104.108-.29.346-.488.598-.979 1.248-1.735 2.131-2.55 2.131zM11 12c0 .552.452 1 1.004 1a1 1 0 0 0 0-2h-.008A.997.997 0 0 0 11 12m-3.995 0c0 .552.452 1 1.004 1a1 1 0 0 0 0-2h-.01a.996.996 0 0 0-.994 1" clip-rule="evenodd"/></svg>