<svg xmlns="http://www.w3.org/2000/svg" fill="none" viewBox="0 0 24 24"><path fill="currentColor" d="M2.441 16.31c.44.438 1.147.44 2.559.44a2 2 0 1 1 4 0h6a2 2 0 0 1 4 0h.504c.937 0 1.405 0 1.751-.196.254-.144.461-.359.595-.618.182-.353.163-.819.124-1.75-.039-.929-.073-1.732-.116-2.436 0 0-2.858.45-4.325-.379-.38-.214-.532-.562-.671-.88-.171-.393-.323-.74-.862-.74-4.485-.002-14 0-14 0v4c0 1.413 0 2.12.441 2.56" opacity=".4"/><path fill="currentColor" fill-rule="evenodd" d="M18.988 5.043a6.77 6.77 0 0 1 2.651 2.533c.859 1.454.935 3.248 1.084 6.82.043 1.039.067 1.605-.207 2.134-.2.388-.508.709-.891.926-.494.28-1.035.293-1.98.294A2.755 2.755 0 0 1 17 19.749a2.756 2.756 0 0 1-2.646-2H9.646a2.756 2.756 0 0 1-2.646 2 2.755 2.755 0 0 1-2.647-2.002c-1.168-.013-1.88-.096-2.441-.656-.623-.621-.66-1.423-.662-2.823V8c0-1.568 0-2.432.661-3.092.583-.58 1.327-.649 2.574-.657h8.706c2.882.008 4.463.084 5.797.793M17 15.749c-.689 0-1.25.561-1.25 1.25s.561 1.25 1.25 1.25 1.25-.561 1.25-1.25-.561-1.25-1.25-1.25m-10 0c-.653 0-1.191.504-1.246 1.144a.8.8 0 0 1 0 .212c.055.64.593 1.144 1.246 1.144.689 0 1.25-.561 1.25-1.25s-.561-1.25-1.25-1.25m-1.102-5.007H2.75v3.673c.004.857.03 1.423.221 1.614.173.172.655.21 1.384.218A2.756 2.756 0 0 1 7 14.249c1.256 0 2.319.847 2.646 2h4.708c.327-1.153 1.39-2 2.646-2s2.319.847 2.646 2c.648 0 1.077-.007 1.239-.099a.76.76 0 0 0 .298-.309c.092-.177.072-.654.041-1.375-.027-.632-.05-1.202-.076-1.72-.231.002-.506.004-.795.004-.789 0-1.685-.015-2.092-.076-.74-.112-1.234-.595-1.805-1.155l-.1-.103q-.077-.091-.145-.177l-.024-.029c-.38-.468-.41-.468-.575-.468h-4.51a.8.8 0 0 1-.204 0H6.102a.8.8 0 0 1-.204 0M16.75 5.908v3.718c.232.184.418.413.601.638l.065.08.07.083.02.02c.472.462.731.706.98.743.381.058 1.584.065 2.565.056-.114-1.336-.299-2.221-.704-2.908a5.26 5.26 0 0 0-2.063-1.971c-.424-.225-.917-.368-1.534-.46m-3.842-.159H11.75v3.493h3.5v-3.46a64 64 0 0 0-2.342-.033m-2.658 0h-3.5v3.493h3.5zm-5 0h-.656c-.862.004-1.432.03-1.624.221-.19.19-.216.757-.22 1.613v1.66h2.5z" clip-rule="evenodd"/></svg>