<svg xmlns="http://www.w3.org/2000/svg" fill="none" viewBox="0 0 24 24"><path fill="currentColor" d="M2 11.636v2.728c0 1.714 0 2.57.586 3.104C3.172 18 4.114 18 6 18h8V8H6c-1.886 0-2.828 0-3.414.533C2 9.065 2 9.923 2 11.636" opacity=".4"/><path fill="currentColor" fill-rule="evenodd" d="M3.714 18.678q.16.019.336.032l-.777 3.108a.75.75 0 1 0 1.455.364l.858-3.432h12.829l.858 3.432a.75.75 0 1 0 1.455-.364l-.777-3.108a7 7 0 0 0 .334-.033c.616-.075 1.177-.24 1.634-.655.467-.425.662-.962.75-1.554.081-.55.081-1.24.081-2.05v-2.837c0-.81 0-1.5-.081-2.05-.088-.592-.283-1.129-.75-1.554-.457-.415-1.018-.58-1.634-.655-.59-.072-1.335-.072-2.237-.072h-6.465c.05-.164.082-.333.105-.505.062-.458.062-1.031.062-1.696V4.95c0-.665 0-1.237-.062-1.696-.066-.492-.215-.963-.597-1.345-.382-.383-.853-.532-1.345-.598-.459-.061-1.032-.061-1.697-.061H7.95c-.664 0-1.237 0-1.696.061-.491.066-.963.215-1.345.598-.382.382-.531.853-.597 1.345-.062.459-.062 1.031-.062 1.696v.099c0 .665 0 1.238.062 1.696.024.178.058.354.111.523q-.385.014-.709.054c-.615.075-1.175.24-1.633.655-.467.425-.662.962-.75 1.554-.081.55-.081 1.24-.081 2.05v2.838c0 .81 0 1.499.081 2.049.088.592.283 1.13.75 1.554.458.416 1.018.58 1.633.656M8.157 8.75H6c-.962 0-1.615.001-2.104.06-.473.059-.677.16-.806.277-.118.108-.216.266-.275.664-.063.427-.065 1.005-.065 1.885v2.727c0 .88.002 1.458.065 1.886.059.398.157.556.275.663.129.117.333.219.806.277.489.06 1.142.06 2.104.06h7.25v-8.5zm-.205-1.5c-.701 0-1.159-.003-1.498-.049-.325-.043-.427-.114-.484-.171s-.128-.16-.172-.484C5.752 6.199 5.75 5.728 5.75 5s.002-1.2.048-1.546c.044-.326.115-.428.172-.485s.159-.127.484-.171C6.801 2.75 7.272 2.75 8 2.75s1.2.001 1.546.048c.325.044.427.114.484.171s.128.16.172.485c.046.347.048.817.048 1.546 0 .728-.002 1.199-.048 1.546-.044.325-.115.427-.172.484s-.159.128-.484.171c-.34.046-.797.049-1.498.049zm6.798 1.5H18c.962 0 1.615.001 2.104.06.473.059.677.16.806.277.118.108.216.266.275.664.063.427.065 1.005.065 1.885v2.727c0 .88-.002 1.458-.065 1.886-.059.398-.157.556-.275.663-.129.117-.333.219-.806.277-.489.06-1.142.06-2.104.06h-3.25zm-8.5 2.75a.75.75 0 0 1 .75-.75h2a.75.75 0 0 1 0 1.5H7a.75.75 0 0 1-.75-.75m0 3a.75.75 0 0 1 .75-.75h2a.75.75 0 0 1 0 1.5H7a.75.75 0 0 1-.75-.75" clip-rule="evenodd"/></svg>