<svg xmlns="http://www.w3.org/2000/svg" fill="none" viewBox="0 0 24 24"><path fill="currentColor" fill-rule="evenodd" d="M21.5 12.243v.514c0 4.357 0 6.536-1.252 7.89C18.996 22 16.98 22 12.95 22h-1.9c-4.03 0-6.046 0-7.298-1.354C2.5 19.293 2.5 17.114 2.5 12.756v-.513c0-1.73 0-3.115.078-4.243h18.844c.078 1.128.078 2.514.078 4.243m-3.999 2.042c1.157 0 2.176.568 2.774 1.431a3.12 3.12 0 0 1 0 3.567 3.36 3.36 0 0 1-2.774 1.43 3.36 3.36 0 0 1-2.773-1.43 3.12 3.12 0 0 1 0-3.567 3.36 3.36 0 0 1 2.773-1.43" clip-rule="evenodd" opacity=".4"/><path fill="currentColor" fill-rule="evenodd" d="M6.75 2a.75.75 0 0 0-1.5 0v.635c-.805.228-1.483.599-2.048 1.21-.778.84-1.124 1.903-1.29 3.235-.162 1.304-.162 2.976-.162 5.11v.62c0 2.133 0 3.806.162 5.11.166 1.332.512 2.395 1.29 3.236.749.81 1.689 1.2 2.867 1.393 1.147.187 2.6.2 4.43.2a.75.75 0 0 0 .002-1.5c-1.866 0-3.187-.016-4.19-.18-.972-.16-1.559-.446-2.008-.932-.475-.513-.755-1.216-.902-2.402-.15-1.201-.151-2.78-.151-4.978v-.514c0-1.392 0-2.536.039-3.493H20.71a74 74 0 0 1 .039 2.75.75.75 0 0 0 1.5 0c-.002-1.92-.02-3.445-.193-4.652-.177-1.224-.526-2.212-1.258-3.004-.566-.61-1.244-.981-2.049-1.21V2a.75.75 0 0 0-1.5 0v.366c-1.136-.116-2.534-.116-4.24-.116h-2.02c-1.706 0-3.104 0-4.24.116zm13.847 5.25H3.403c.148-1.177.427-1.877.9-2.387.259-.28.568-.495.976-.657A.75.75 0 0 0 6.75 4v-.125c1.061-.123 2.432-.125 4.3-.125h1.9c1.868 0 3.239.002 4.3.125V4a.75.75 0 0 0 1.471.206c.408.162.717.377.976.657.447.483.722 1.135.875 2.199zM18.25 13a.75.75 0 0 0-1.5 0v.602a4.1 4.1 0 0 0-2.172 1.128l-.672-.432a.75.75 0 0 0-.812 1.261l.638.41a3.85 3.85 0 0 0 0 3.062l-.637.41a.75.75 0 1 0 .811 1.261l.673-.432c.576.573 1.33.976 2.171 1.128V22a.75.75 0 0 0 1.5 0v-.602a4.1 4.1 0 0 0 2.171-1.128l.673.432a.75.75 0 1 0 .811-1.261l-.637-.41a3.85 3.85 0 0 0 0-3.061l.638-.41a.75.75 0 0 0-.812-1.262l-.672.432a4.1 4.1 0 0 0-2.172-1.128zm-2.907 3.144a2.61 2.61 0 0 1 2.157-1.108c.908 0 1.698.445 2.157 1.108a2.37 2.37 0 0 1 0 2.712 2.61 2.61 0 0 1-2.157 1.108 2.61 2.61 0 0 1-2.157-1.108 2.37 2.37 0 0 1 0-2.712" clip-rule="evenodd"/></svg>