<svg xmlns="http://www.w3.org/2000/svg" fill="none" viewBox="0 0 24 24"><path fill="currentColor" d="M2.5 12.243c0-4.357 0-6.536 1.252-7.89C5.004 3 7.02 3 11.05 3h1.9c4.03 0 6.046 0 7.298 1.354C21.5 5.707 21.5 7.886 21.5 12.244v.513c0 4.357 0 6.536-1.252 7.89C18.996 22 16.98 22 12.95 22h-1.9c-4.03 0-6.046 0-7.298-1.354C2.5 19.293 2.5 17.114 2.5 12.756z" opacity=".4"/><path fill="currentColor" fill-rule="evenodd" d="M6.75 2a.75.75 0 0 0-1.5 0v.635c-.805.228-1.483.599-2.048 1.21-.778.84-1.124 1.903-1.29 3.235-.162 1.304-.162 2.976-.162 5.11v.62c0 2.133 0 3.806.162 5.11.166 1.332.512 2.395 1.29 3.236.785.849 1.79 1.234 3.05 1.417 1.217.177 2.774.177 4.737.177h2.022c1.964 0 3.52 0 4.738-.177 1.258-.183 2.264-.568 3.05-1.417.777-.841 1.123-1.904 1.289-3.235.162-1.305.162-2.977.162-5.111v-.62c0-2.133 0-3.806-.162-5.11-.166-1.332-.512-2.395-1.29-3.236-.564-.61-1.243-.981-2.048-1.21V2a.75.75 0 0 0-1.5 0v.366c-1.136-.116-2.534-.116-4.24-.116h-2.02c-1.706 0-3.104 0-4.24.116zM4.303 4.863c.259-.28.568-.495.976-.657A.75.75 0 0 0 6.75 4v-.125c1.061-.123 2.432-.125 4.3-.125h1.9c1.868 0 3.239.002 4.3.125V4a.75.75 0 0 0 1.471.206c.408.162.717.377.976.657.475.513.755 1.216.902 2.402.15 1.201.151 2.78.151 4.978v.514c0 2.198-.001 3.777-.15 4.978-.148 1.186-.428 1.89-.903 2.402-.466.504-1.094.796-2.164.952-1.098.16-2.545.161-4.583.161h-1.9c-2.038 0-3.485-.002-4.583-.161-1.07-.156-1.698-.448-2.164-.952-.475-.513-.755-1.216-.902-2.402-.15-1.201-.151-2.78-.151-4.978v-.514c0-2.198.001-3.777.15-4.978.148-1.186.428-1.89.903-2.402M9 12.25a.75.75 0 0 0 0 1.5h.25V17a.75.75 0 0 0 1.5 0v-3.653c0-.512-.385-1.097-1.055-1.097zm4 0a.75.75 0 0 0 0 1.5h1.036l-1.11 2.99a.75.75 0 1 0 1.407.52l1.354-3.65c.269-.723-.32-1.36-.966-1.36zm-7-5a.75.75 0 0 0 0 1.5h12a.75.75 0 0 0 0-1.5z" clip-rule="evenodd"/></svg>