<svg xmlns="http://www.w3.org/2000/svg" fill="none" viewBox="0 0 24 24"><path fill="currentColor" fill-rule="evenodd" d="M2.596 7.071c.276 1.368.734 2.718 1.682 4.371l2.556-2.936c.933-1.072 1.4-1.608 1.469-2.266.068-.659-.278-1.28-.97-2.521L6.46 2.152c-.387-.693-1.137-.876-1.79-.343-1.548 1.262-2.482 3.239-2.074 5.262M16.93 21.403c-1.368-.276-2.718-.734-4.371-1.682l2.936-2.556c1.072-.934 1.608-1.4 2.266-1.469.659-.069 1.28.277 2.521.97l1.567.873c.694.387.876 1.136.343 1.79-1.262 1.548-3.239 2.482-5.262 2.074" clip-rule="evenodd" opacity=".4"/><path fill="currentColor" fill-rule="evenodd" d="M15.513 3.447c.132-.344.438-.697.955-.697.527 0 .848.365.975.697.02.05.033.135.033.336v.857H15.48v-.857c0-.201.012-.285.032-.336m3.463.336v.985a2.55 2.55 0 0 1 1.75 2.422v2a2.55 2.55 0 0 1-2.55 2.55H14.8a2.55 2.55 0 0 1-2.55-2.55v-2a2.55 2.55 0 0 1 1.73-2.415v-.992c0-.21.005-.54.132-.873.26-.676.989-1.66 2.356-1.66 1.358 0 2.113.972 2.376 1.66.127.332.132.663.132.873M13.75 7.19c0-.58.47-1.05 1.05-1.05h3.377c.58 0 1.05.47 1.05 1.05v2c0 .58-.47 1.05-1.05 1.05H14.8c-.58 0-1.05-.47-1.05-1.05zm2.537 15.45c.37.07.73.11 1.1.11l-.01-.01c1.811 0 3.622-.88 4.893-2.44.4-.49.55-1.05.45-1.6-.11-.55-.47-1.02-1.01-1.32l-1.571-.88c-1.33-.74-2.071-1.15-2.962-1.06-.886.089-1.524.644-2.663 1.634l-.018.015-2.531 2.2c-2.891-1.76-5.503-4.37-7.273-7.27l2.2-2.53.052-.058c.968-1.114 1.511-1.737 1.6-2.622.088-.88-.311-1.603-1.035-2.914l-.026-.046-.87-1.57c-.3-.54-.77-.9-1.321-1s-1.12.06-1.6.45C1.82 3.26.92 5.55 1.36 7.72c.33 1.62.87 3.04 1.77 4.6 1.982 3.45 5.103 6.57 8.555 8.55 1.57.9 2.981 1.44 4.602 1.77m.3-1.47c-1.13-.23-2.15-.58-3.211-1.1l2.12-1.84c1.021-.89 1.451-1.25 1.851-1.29s.9.22 2.081.88l1.571.87c.15.09.24.19.26.3.02.14-.08.29-.14.37-1.18 1.44-2.911 2.14-4.532 1.81M4.651 2.882c.07-.051.186-.134.31-.134l-.01.01h.05c.11.02.22.11.3.26l.881 1.57c.66 1.17.92 1.67.88 2.07s-.4.83-1.29 1.85l-1.84 2.12c-.53-1.06-.871-2.09-1.101-3.21-.33-1.62.37-3.35 1.81-4.53z" clip-rule="evenodd"/></svg>