<svg xmlns="http://www.w3.org/2000/svg" fill="none" viewBox="0 0 24 24"><path fill="currentColor" fill-rule="evenodd" d="M2.096 7.571c.276 1.369.734 2.718 1.682 4.371l2.556-2.936c.933-1.072 1.4-1.608 1.469-2.266.068-.659-.278-1.28-.97-2.521L5.96 2.652c-.387-.693-1.137-.876-1.79-.343-1.548 1.262-2.482 3.239-2.074 5.262M16.43 21.903c-1.368-.276-2.718-.734-4.371-1.682l2.936-2.556c1.072-.934 1.608-1.4 2.266-1.469.659-.069 1.28.277 2.521.97l1.567.873c.694.387.876 1.136.343 1.79-1.262 1.548-3.239 2.482-5.262 2.074" clip-rule="evenodd" opacity=".4"/><path fill="currentColor" fill-rule="evenodd" d="M6.616 2.287c-.28-.503-.732-.883-1.299-1-.572-.119-1.148.056-1.62.441C1.98 3.128.886 5.368 1.36 7.72c.292 1.445.777 2.87 1.767 4.596 1.985 3.461 5.092 6.57 8.557 8.557 1.725.99 3.15 1.475 4.596 1.767 2.351.474 4.593-.619 5.991-2.335.386-.473.56-1.049.442-1.622-.117-.566-.498-1.017-1-1.298l-1.603-.893c-.59-.33-1.087-.606-1.519-.787-.458-.192-.91-.306-1.409-.254-.5.053-.918.257-1.326.54-.385.265-.814.639-1.324 1.082l-2.559 2.228c-2.899-1.768-5.508-4.378-7.275-7.274l2.228-2.56c.444-.509.817-.938 1.083-1.323.282-.409.487-.827.54-1.326.051-.5-.063-.951-.254-1.41-.181-.431-.458-.928-.787-1.518zm9.962 18.882a12.7 12.7 0 0 1-3.207-1.095l2.116-1.842c.549-.478.914-.795 1.222-1.007.292-.202.47-.265.63-.282.159-.016.346.009.674.146.345.144.768.379 1.403.733l1.567.873c.19.107.248.224.262.292.013.063.012.189-.135.37-1.124 1.379-2.836 2.154-4.532 1.812M5.768 8.514l-1.84 2.116a12.7 12.7 0 0 1-1.095-3.207c-.343-1.696.433-3.408 1.812-4.532.18-.147.307-.148.37-.135.068.014.185.07.291.262l.874 1.566c.354.636.589 1.06.733 1.404.137.327.162.515.145.674-.016.159-.08.338-.281.63-.212.307-.53.673-1.007 1.222M17.5 2.25a2.71 2.71 0 0 0-2.718 2.703v.854q-.105.042-.208.095a2.5 2.5 0 0 0-1.027 1.02c-.172.32-.238.657-.268 1.007-.028.333-.028.74-.028 1.22v.062c0 .48 0 .887.028 1.22.03.35.096.688.268 1.008.234.434.592.788 1.027 1.019.32.17.658.234 1.01.264.335.028.745.028 1.23.028h1.374c.484 0 .894 0 1.23-.028.35-.03.689-.095 1.009-.264a2.5 2.5 0 0 0 1.027-1.02c.172-.319.238-.656.268-1.006.029-.334.029-.74.028-1.22v-.063c0-.48 0-.887-.028-1.22-.03-.35-.096-.688-.268-1.007a2.5 2.5 0 0 0-1.027-1.02c-.32-.17-.658-.234-1.01-.264a16 16 0 0 0-1.23-.028h-1.373q-.284 0-.532.002v-.66c0-.658.54-1.202 1.218-1.202.305 0 .582.11.795.29a.75.75 0 1 0 .971-1.142 2.72 2.72 0 0 0-1.765-.648m-2.223 4.978c.067-.036.177-.073.433-.095.265-.022.61-.023 1.134-.023h1.313c.523 0 .87 0 1.134.023.256.022.367.06.433.095a1 1 0 0 1 .41.405c.034.064.072.172.093.424.023.262.023.604.023 1.123 0 .52 0 .862-.023 1.124-.021.252-.059.359-.093.423a1 1 0 0 1-.41.406c-.066.035-.177.073-.433.094-.265.023-.61.023-1.134.023h-1.313c-.523 0-.87 0-1.134-.023-.256-.021-.367-.059-.433-.094a1 1 0 0 1-.41-.406c-.034-.064-.072-.171-.093-.424a15 15 0 0 1-.023-1.123c0-.52 0-.861.023-1.123.021-.252.059-.36.093-.424a1 1 0 0 1 .41-.405" clip-rule="evenodd"/></svg>