<svg xmlns="http://www.w3.org/2000/svg" fill="none" viewBox="0 0 24 24"><path fill="currentColor" fill-rule="evenodd" d="M2 11.5V16c0 2.828 0 4.243.879 5.121C3.757 22 5.172 22 8 22h8c2.828 0 4.243 0 5.121-.879C22 20.243 22 18.828 22 16v-4.5c0-2.346 0-3.518-.62-4.326a3 3 0 0 0-.554-.554C20.018 6 19.346 6 17 6h-.4l-.486-1.215q-.058-.145-.115-.293c-.341-.876-.7-1.795-1.582-2.232C13.892 2 13.262 2 12 2s-1.892 0-2.417.26c-.883.437-1.24 1.356-1.582 2.232q-.057.148-.115.293L7.4 6H7c-2.346 0-3.018 0-3.826.62a3 3 0 0 0-.554.554C2 7.982 2 9.154 2 11.5m10 6a3.5 3.5 0 1 0 0-7 3.5 3.5 0 0 0 0 7" clip-rule="evenodd" opacity=".4"/><path fill="currentColor" fill-rule="evenodd" d="M12.032 1.25h-.063c-.604 0-1.104 0-1.517.035-.433.037-.824.116-1.201.302-.672.333-1.097.862-1.395 1.392-.231.411-.41.873-.563 1.264l-.103.264-.298.743c-1.091 0-1.878 0-2.484.085-.683.094-1.177.296-1.69.69-.26.2-.494.432-.693.692-.427.556-.608 1.205-.693 1.96-.082.729-.082 1.643-.082 2.778v4.6c0 1.367 0 2.47.117 3.337.12.9.38 1.658.981 2.26.602.602 1.36.86 2.26.982.867.116 1.97.116 3.337.116h8.11c1.367 0 2.47 0 3.337-.116.9-.122 1.658-.38 2.26-.982s.86-1.36.982-2.26c.116-.867.116-1.97.116-3.337v-4.6c0-1.135 0-2.05-.082-2.779-.085-.754-.266-1.403-.693-1.959a3.8 3.8 0 0 0-.692-.692c-.514-.394-1.008-.596-1.69-.69-.607-.084-1.394-.085-2.485-.085l-.297-.743-.104-.264c-.152-.391-.331-.853-.562-1.264-.299-.53-.723-1.059-1.395-1.392-.378-.186-.769-.265-1.201-.302-.413-.035-.913-.035-1.517-.035m5.676 5.5a.75.75 0 0 1-1.404.529l-.886-2.215-.128-.326c-.149-.38-.279-.715-.453-1.024-.21-.372-.442-.628-.753-.782-.147-.073-.333-.124-.663-.152-.341-.03-.777-.03-1.42-.03-.644 0-1.08 0-1.422.03-.33.028-.516.079-.663.152-.31.154-.543.41-.753.782-.174.31-.304.643-.452 1.024l-.129.326-.885 2.215a.75.75 0 0 1-1.404-.528c-.78.003-1.29.016-1.68.07-.442.06-.688.168-.983.394a2.3 2.3 0 0 0-.415.415c-.193.252-.322.594-.392 1.214-.072.636-.073 1.466-.073 2.656V16c0 1.435.002 2.436.103 3.192.099.734.28 1.122.556 1.399.277.277.665.457 1.4.556.754.101 1.756.103 3.191.103h8c1.435 0 2.436-.002 3.192-.103.734-.099 1.122-.28 1.399-.556.277-.277.457-.665.556-1.4.101-.755.103-1.756.103-3.191v-4.5c0-1.19-.001-2.02-.073-2.656-.07-.62-.199-.962-.392-1.214a2.3 2.3 0 0 0-.415-.415c-.295-.226-.541-.334-.983-.395-.39-.053-.9-.066-1.68-.07M12 11.25a2.75 2.75 0 1 0 0 5.5 2.75 2.75 0 0 0 0-5.5M7.75 14a4.25 4.25 0 1 1 8.5 0 4.25 4.25 0 0 1-8.5 0M12 5a1 1 0 1 0 0 2h.009a1 1 0 1 0 0-2z" clip-rule="evenodd"/></svg>