<svg xmlns="http://www.w3.org/2000/svg" fill="none" viewBox="0 0 24 24"><path fill="currentColor" d="M20.25 17.75h-1v-.004a2 2 0 0 0-4 0v.003h-6v-.003a2 2 0 0 0-4 0v.003c-.172-.04-.373-.076-.588-.114-.826-.146-1.861-.328-2.262-.979-.15-.24-.15-.542-.15-1.143V10.75l14.55-.319c.811-.017 1.589.324 2.331.652.233.102.475.193.715.283.927.348 1.844.692 2.238 1.721.166.432.166.936.166 1.942v.721c0 .943 0 1.414-.293 1.707s-.764.293-1.707.293" opacity=".4"/><path fill="currentColor" fill-rule="evenodd" d="M20.092 18.497c.159.003.328.006.496.006q.159 0 .314-.004c.455-.012 1.837-.049 2.04-1.476.093-.561.049-2.524.03-3.134v-.021c-.12-2.174-1.705-2.766-2.863-3.2h-.002c-.563-.21-1.095-.409-1.46-.736-.424-.38-.82-1.025-1.237-1.707l-.002-.003-.027-.043c-.27-.44-.55-.893-.862-1.315-.834-1.127-1.77-1.703-2.938-1.812C13.07 5 12.51 5 12.487 5H2.27a.75.75 0 0 0 0 1.5h.588c-.503 1.016-1.16 2.651-1.347 4.145l-.006.059-.001.058-.003.777a288 288 0 0 0 .007 4.479v.029c.018.358.052 1.024.746 1.545.467.351 1.195.606 2.323.807A2.755 2.755 0 0 0 7.25 20.5c1.256 0 2.32-.848 2.646-2.001h4.708A2.756 2.756 0 0 0 17.25 20.5c1.258 0 2.322-.85 2.648-2.006l.066.001.044.001zm-1.596-.849a.8.8 0 0 0 0 .203A1.25 1.25 0 0 1 17.25 19c-.689 0-1.25-.561-1.25-1.25s.561-1.25 1.25-1.25c.655 0 1.194.507 1.246 1.148m1.398-.654.106.001.036.001h.051c.262.006.53.01.775.004.457-.012.555-.075.57-.088 0 0 .016-.028.026-.104l.01-.063c.03-.21.049-1.282.007-2.803-.067-1.135-.696-1.422-1.893-1.869-.42-.157-.877-.328-1.304-.573H3.003v.045l-.001.15c-.004 1.047-.01 2.692.007 4.292.016.297.04.325.147.406.177.133.578.315 1.483.492A2.755 2.755 0 0 1 7.25 15c1.256 0 2.318.847 2.646 1.999h4.708A2.756 2.756 0 0 1 17.25 15c1.254 0 2.315.844 2.644 1.994M8.5 17.73a1.25 1.25 0 0 0-1.25-1.23c-.662 0-1.205.518-1.247 1.169a1 1 0 0 1 0 .16A1.25 1.25 0 0 0 7.25 19a1.25 1.25 0 0 0 1.25-1.27m8.263-7.731h-6.757V6.498h2.482c.005 0 .51.001.949.045.547.051 1.153.233 1.877 1.212.285.384.555.824.816 1.25l.012.02c.208.338.41.667.62.974m-8.257 0h-5.35c.343-1.447 1.047-2.905 1.374-3.437l.034-.063h3.942z" clip-rule="evenodd"/></svg>