<svg xmlns="http://www.w3.org/2000/svg" fill="none" viewBox="0 0 24 24"><path fill="currentColor" d="M22.01 15.4v3.08c0 .47 0 .7-.08.88-.1.25-.3.44-.54.54-.18.08-.42.08-.88.08s-.7 0-.88-.08a.96.96 0 0 1-.54-.54c-.08-.18-.08-.41-.08-.88s0-.7-.08-.88c-.1-.25-.3-.44-.54-.54-.18-.08-.42-.08-.88-.08h-11c-.47 0-.7 0-.88.08-.25.1-.44.29-.54.54-.08.18-.08.41-.08.88s0 .7-.08.88c-.1.25-.3.44-.54.54-.18.08-.42.08-.88.08s-.7 0-.88-.08a.96.96 0 0 1-.54-.54c-.08-.18-.08-.41-.08-.88V15.4c0-1.2 0-1.8.17-2.37.17-.56.51-1.07 1.17-2.07l.66-.98 1.76.44c.16.04.32.06.49.06h11.51c.16 0 .33-.02.49-.06l1.76-.44.66.98c.67 1 1 1.51 1.17 2.07.17.57.17 1.17.17 2.37z" opacity=".4"/><path fill="currentColor" fill-rule="evenodd" d="M20.509 20.73h.001l-.02.02c.54 0 .86 0 1.17-.14.44-.18.78-.51.95-.94.14-.32.14-.62.14-1.17v-3.08c0-1.23 0-1.91-.2-2.59-.21-.68-.61-1.28-1.27-2.27l-.27-.4 1.44-1.08a.75.75 0 0 0-.9-1.2l-1.236.927L19.73 7.4c-.77-1.86-1.2-2.89-2.15-3.53-.95-.62-2.06-.62-4.079-.62H10.5c-2.02 0-3.13 0-4.079.63-.95.63-1.38 1.66-2.15 3.52l-.584 1.407L2.45 7.88a.75.75 0 0 0-.9 1.2l1.44 1.08-.27.4c-.66.99-1.06 1.59-1.27 2.27-.2.68-.2 1.36-.2 2.59v3.08c0 .55 0 .85.13 1.16.18.43.52.77.94.94.32.14.64.14 1.179.14H3.5c.54 0 .86 0 1.169-.14.44-.18.78-.51.95-.94.14-.32.14-.62.14-1.17 0-.26 0-.53.02-.6.03-.06.07-.1.14-.13.07-.02.33-.02.59-.02h11c.26 0 .52 0 .6.02.06.03.1.07.13.13.02.07.02.34.02.6 0 .55 0 .85.13 1.16.18.43.52.77.94.94.32.14.65.14 1.179.14m-16.18-9.893-.359.533c-.65.97-.94 1.42-1.08 1.87-.14.46-.14 1.03-.14 2.15v3.08c0 .26 0 .53.02.6.03.06.07.1.13.13.16.05 1.05.04 1.19 0 .07-.03.11-.07.14-.13.02-.07.02-.34.02-.6 0-.55 0-.85.14-1.17.17-.43.51-.76.95-.94.31-.14.63-.14 1.169-.14h.001v.01H17.51c.53 0 .86 0 1.179.14.42.17.76.51.94.94.13.31.13.61.13 1.16 0 .26 0 .53.02.6.03.06.07.1.13.13.16.05 1.05.04 1.19 0 .07-.03.11-.07.14-.13.02-.07.02-.34.02-.6v-3.08c0-1.12 0-1.69-.14-2.15-.14-.45-.43-.9-1.08-1.87l-.36-.535-1.26.315c-.21.05-.44.08-.67.08H6.25c-.23 0-.46-.03-.67-.08zm.702-1.373.91.226c.1.03.2.04.3.04h11.51c.1 0 .2-.01.3-.04l.927-.229-.628-1.511c-.73-1.76-1.05-2.48-1.6-2.86-.56-.37-1.46-.37-3.24-.37h-3c-1.79 0-2.68 0-3.25.38-.54.37-.86 1.09-1.6 2.85zm12.98 5.526c-.55 0-1-.45-1-1s.45-1 1-1 1 .44 1 1-.45 1.01-1 1.01zm-13-1c0 .55.45 1 1 1V15c.55 0 1-.45 1-1.01s-.45-1-1-1-1 .45-1 1" clip-rule="evenodd"/></svg>