<svg xmlns="http://www.w3.org/2000/svg" fill="none" viewBox="0 0 24 24"><path fill="currentColor" d="M8 3.5 4.537 5.231a3 3 0 0 0-1.651 2.484L2 21h3l1.5-5 .5 3 1 2h8l1-2 .5-3 1.5 5h3l-.886-13.285a3 3 0 0 0-1.651-2.484L16 3.5C14.8 7.9 12.833 9 12 9c-2.4-.4-3.667-3.833-4-5.5" opacity=".4"/><path fill="currentColor" fill-rule="evenodd" d="M9.56 2.502a.75.75 0 0 0-.895-.173L4.202 4.561a3.75 3.75 0 0 0-2.065 3.104L1.252 20.95a.75.75 0 0 0 .748.8h3a.75.75 0 0 0 .718-.535l.583-1.942.028.063 1 2A.75.75 0 0 0 8 21.75h8a.75.75 0 0 0 .67-.415l1-2q.016-.03.029-.062l.583 1.942a.75.75 0 0 0 .718.535h3a.75.75 0 0 0 .748-.8l-.885-13.285a3.75 3.75 0 0 0-2.065-3.104l-4.463-2.232a.75.75 0 0 0-.896.173c-.528.595-1.444.944-2.439.944s-1.91-.35-2.44-.944m8.54 13.046q.079.105.12.236l1.339 4.466h1.64l-.832-12.485a2.25 2.25 0 0 0-1.239-1.863l-2.953-1.476a9 9 0 0 1-.404 1.697c-.436 1.247-1.31 2.715-3.033 3.415q.012.106.013.216V20.25h2.787l.73-1.462.987-9.863a.75.75 0 1 1 1.492.15zm-6.171-7.31c1.335-.436 2.043-1.516 2.427-2.61.18-.517.28-1.014.333-1.403-.8.493-1.764.721-2.688.721s-1.888-.228-2.688-.72c.045.326.123.731.254 1.16.32 1.044.926 2.122 2.057 2.67q.156.077.305.182M8.132 5.826a9 9 0 0 1-.307-1.4L4.873 5.902a2.25 2.25 0 0 0-1.239 1.863L2.802 20.25h1.64l1.34-4.466a.8.8 0 0 1 .12-.236l-.648-6.473a.75.75 0 1 1 1.492-.15l.987 9.863.73 1.462h2.787V9.754c0-.088-.069-.244-.283-.348-1.664-.809-2.456-2.347-2.835-3.58" clip-rule="evenodd"/></svg>