<svg xmlns="http://www.w3.org/2000/svg" fill="none" viewBox="0 0 24 24"><path fill="currentColor" fill-rule="evenodd" d="m8.5 6.5.171-1.372c.157-1.251.235-1.877.66-2.253.426-.375 1.056-.375 2.317-.375h.704c1.26 0 1.891 0 2.316.375.426.376.504 1.002.66 2.253L15.5 6.5zM6 20.5c-1.418-1.766-2.417-4.027-2.843-5.225-.135-.38-.202-.57-.124-.752.079-.181.27-.266.655-.436l7.49-3.318c.404-.18.607-.269.822-.269s.418.09.823.27l7.489 3.317c.384.17.576.255.655.436.078.182.01.372-.124.752-.426 1.198-1.425 3.459-2.843 5.225-.667.333-2 1-2.5 1-.287 0-1.452-.516-2.456-.992-.505-.24-.757-.36-1-.35-.243.008-.507.155-1.033.451-1.384.777-2.17.88-2.421.891a1 1 0 0 1-.18-.003c-.798-.046-1.929-.676-2.41-.997" clip-rule="evenodd" opacity=".4"/><path fill="currentColor" fill-rule="evenodd" d="M11.648 1.75h-.045c-.592 0-1.105 0-1.521.053-.448.057-.878.185-1.247.51-.368.325-.549.737-.66 1.174-.105.406-.169.916-.242 1.503l-.006.045-.103.824c-.5.09-.954.265-1.34.623-.446.413-.656.935-.779 1.52-.115.553-.169 1.25-.233 2.084l-.19 2.474-1.898.84-.03.014a5 5 0 0 0-.502.248 1.23 1.23 0 0 0-.507.564c-.12.277-.108.537-.065.748.035.171.102.359.16.522l.01.03a21.4 21.4 0 0 0 2.165 4.34 4 4 0 0 0-.296.105c-.225.089-.462.202-.676.304l-.167.08c-.553.26-.989.423-1.42.391a.75.75 0 1 0-.111 1.496c.862.064 1.619-.27 2.17-.53l.207-.099c.204-.097.375-.179.547-.246.22-.087.364-.117.464-.117.12 0 .307.035.573.12.26.084.541.199.85.325l.048.02c.284.116.593.243.883.34.294.098.643.192.981.189.658.003 1.326-.294 1.826-.516l.094-.042c.596-.263 1.029-.436 1.412-.436s.816.173 1.412.436l.094.042c.494.22 1.152.512 1.802.516.85.054 1.596-.276 2.141-.533l.206-.098c.204-.097.376-.179.547-.246.22-.087.364-.117.465-.117.12 0 .306.035.572.12.26.084.541.199.85.325l.049.02c.283.116.592.243.882.34.297.099.65.194.99.189a.75.75 0 0 0-.02-1.5c-.08.001-.236-.026-.495-.112-.241-.08-.507-.19-.808-.313l-.029-.012c-.3-.123-.635-.26-.958-.364a5 5 0 0 0-.306-.09 21.4 21.4 0 0 0 2.155-4.327l.011-.03c.058-.163.125-.35.16-.522a1.23 1.23 0 0 0-.065-.748 1.23 1.23 0 0 0-.508-.564 4 4 0 0 0-.502-.248l-.03-.013-1.897-.84-.19-2.475c-.064-.834-.118-1.531-.233-2.084-.123-.585-.333-1.107-.779-1.52-.386-.358-.84-.532-1.34-.623l-.109-.87c-.073-.586-.137-1.096-.241-1.502-.112-.437-.293-.849-.661-1.174s-.799-.453-1.247-.51c-.416-.053-.93-.053-1.52-.053zm3.003 4.003-.067-.532c-.08-.645-.133-1.059-.211-1.361-.072-.283-.144-.372-.2-.422-.058-.05-.155-.11-.444-.147-.31-.04-.727-.041-1.377-.041h-.704c-.65 0-1.067.001-1.377.04-.289.038-.386.097-.443.148s-.128.14-.2.422c-.078.302-.132.716-.212 1.36l-.067.533q.379-.004.806-.003h3.69q.427 0 .806.003m2.51 6.118-.125-1.62c-.069-.897-.116-1.496-.21-1.942-.088-.424-.2-.607-.329-.726-.129-.12-.319-.217-.75-.273-.45-.059-1.052-.06-1.951-.06h-3.592c-.899 0-1.5.001-1.952.06-.43.056-.62.153-.75.273-.128.12-.24.302-.328.726-.094.446-.141 1.045-.21 1.942l-.125 1.62 4.034-1.787.08-.036c.322-.144.668-.298 1.047-.298.38 0 .725.154 1.047.298l.08.036zM3.864 15.024c.409 1.151 1.368 3.315 2.706 4.988.258.092.517.198.755.295l.029.012c.3.124.567.233.808.313.259.086.415.113.495.112h.016c.308.003.69-.156 1.309-.43l.029-.013c.53-.234 1.247-.551 1.989-.551s1.459.317 1.99.551l.028.013c.62.274 1.001.433 1.31.43l.06.002c.432.032.868-.13 1.422-.391l.166-.08q.191-.092.396-.185l.043-.06c1.346-1.676 2.31-3.85 2.72-5.006l.06-.168-.187-.084-7.489-3.317a7 7 0 0 0-.427-.18l-.086-.024h-.003L12 11.25h-.003l-.01.002-.08.023a7 7 0 0 0-.426.18l-7.49 3.317-.186.084z" clip-rule="evenodd"/></svg>