<svg xmlns="http://www.w3.org/2000/svg" fill="none" viewBox="0 0 24 24"><path fill="currentColor" d="M11.998 2c-1.522 0-3.13.292-4.392.684-.95.294-1.714 1.638-1.596 2.729.044.404.357.587.686.587H17.3c.33 0 .642-.183.686-.587.118-1.091-.646-2.435-1.596-2.729C15.13 2.292 13.52 2 11.998 2" opacity=".4"/><path fill="currentColor" fill-rule="evenodd" d="M17.251 22.07a.75.75 0 0 0 1.494-.14l-.655-6.992-.002-.018-.28-2.983v-.002l-.002-.015-.484-5.17c.753-.01 1.33-.523 1.411-1.256.16-1.48-.831-3.127-2.119-3.526-1.468-.456-3.149-.718-4.615-.718s-3.147.262-4.614.718c-1.289.399-2.28 2.047-2.12 3.527.08.733.658 1.246 1.41 1.256L6.19 11.92l-.002.017-.28 2.983-.002.018-.655 6.992a.751.751 0 0 0 1.494.14l.592-6.32h9.322zM15.816 6.751H8.182l-.42 4.499h8.475zm-8.357-1.5h-.707c-.033-.729.509-1.674 1.079-1.85 1.329-.413 2.849-.65 4.169-.65s2.84.237 4.17.65c.568.176 1.109 1.118 1.078 1.85h-.71l-.04-.001h-9zm9.06 8.999h-9.04l.14-1.5h8.758z" clip-rule="evenodd"/></svg>