<svg xmlns="http://www.w3.org/2000/svg" fill="none" viewBox="0 0 24 24"><path fill="currentColor" d="M2.5 12c0-4.478 0-6.718 1.391-8.109S7.521 2.5 12 2.5c4.478 0 6.718 0 8.109 1.391S21.5 7.521 21.5 12c0 4.478 0 6.718-1.391 8.109S16.479 21.5 12 21.5c-4.478 0-6.718 0-8.109-1.391S2.5 16.479 2.5 12" opacity=".4"/><path fill="currentColor" fill-rule="evenodd" d="M6.614 2.926c-1.279.172-2.05.5-2.62 1.069-.569.57-.896 1.34-1.068 2.619-.174 1.3-.176 3.008-.176 5.386l.001 1.21q.048-.002.096.004c2.028.237 7.221-.383 11.144-4.456h-2.14a.75.75 0 0 1 0-1.5h3.223c.81 0 1.436.668 1.436 1.453v3.325a.75.75 0 1 1-1.5 0V9.862c-4.25 4.367-9.817 5.102-12.246 4.852.02 1.056.063 1.93.162 2.672.172 1.279.5 2.05 1.069 2.62.57.569 1.34.896 2.619 1.068 1.3.174 3.008.176 5.386.176s4.086-.002 5.386-.176c1.279-.172 2.05-.5 2.62-1.069.569-.57.896-1.34 1.068-2.619.174-1.3.176-3.008.176-5.386a.75.75 0 0 1 1.5 0v.056c0 2.31 0 4.119-.19 5.53-.194 1.445-.6 2.585-1.494 3.48-.895.895-2.035 1.3-3.48 1.494-1.411.19-3.22.19-5.529.19h-.114c-2.308 0-4.118 0-5.53-.19-1.444-.194-2.584-.6-3.479-1.494-.895-.895-1.3-2.035-1.494-3.48-.19-1.411-.19-3.22-.19-5.529v-.114c0-2.309 0-4.118.19-5.53.194-1.444.6-2.584 1.494-3.479.895-.895 2.035-1.3 3.48-1.494 1.411-.19 3.22-.19 5.529-.19H12a.75.75 0 0 1 0 1.5c-2.378 0-4.086.002-5.386.176M16 1.25a.75.75 0 0 1 .75.75v1.385a.75.75 0 0 1-1.5 0V2a.75.75 0 0 1 .75-.75m5.138 1.604a.75.75 0 0 1 0 1.06l-.977.98a.75.75 0 0 1-1.061-1.06l.977-.98a.75.75 0 0 1 1.061 0M19.868 8a.75.75 0 0 1 .75-.75H22a.75.75 0 0 1 0 1.5h-1.382a.75.75 0 0 1-.75-.75" clip-rule="evenodd"/></svg>