<svg xmlns="http://www.w3.org/2000/svg" fill="none" viewBox="0 0 24 24"><path fill="currentColor" d="M11 8h2c2.828 0 4.243 0 5.121.879C19 9.757 19 11.172 19 14s0 4.243-.879 5.121C17.243 20 15.828 20 13 20h-1s-.5 2-4 2c0 0 1-1.009 1-2.017-1.553-.047-2.48-.22-3.121-.862C5 18.243 5 16.828 5 14s0-4.243.879-5.121C6.757 8 8.172 8 11 8" opacity=".4"/><path fill="currentColor" fill-rule="evenodd" d="M11.25 5.621A2.255 2.255 0 0 1 9.75 3.5c0-1.24 1.01-2.25 2.25-2.25s2.25 1.01 2.25 2.25c0 .977-.627 1.812-1.5 2.121V7.25H13c3.03 0 4.55 0 5.65 1.1.602.601.874 1.358.998 2.4.938 0 1.477.015 1.972.3.34.2.63.48.83.83.3.52.3 1.09.3 2.12s0 1.6-.3 2.12c-.19.34-.48.63-.83.83-.495.285-1.035.3-1.972.3-.124 1.042-.396 1.799-.998 2.4-1.1 1.1-2.62 1.1-5.65 1.1h-.52c-.44.76-1.61 2-4.48 2a.74.74 0 0 1-.69-.46c-.11-.28-.05-.6.16-.82.12-.12.38-.44.57-.79-1.17-.1-2.02-.36-2.69-1.03-.602-.602-.875-1.357-.998-2.4-.938 0-1.477-.015-1.972-.3-.34-.2-.63-.48-.83-.83-.3-.52-.3-1.09-.3-2.12s0-1.6.3-2.12c.19-.34.48-.63.83-.83.495-.285 1.034-.3 1.972-.3.123-1.043.396-1.798.998-2.4 1.1-1.1 2.62-1.1 5.65-1.1h.25zm.629 3.119h-.869l-.01.01c-2.62 0-3.93 0-4.59.66s-.66 1.97-.66 4.59 0 3.93.66 4.59c.43.43 1.11.6 2.61.64.41.01.73.34.73.75s-.1.76-.24 1.1c1.436-.354 1.736-1.176 1.767-1.263l.003-.007a.75.75 0 0 1 .73-.57h1c2.62 0 3.93 0 4.59-.66s.66-1.97.66-4.59 0-3.93-.66-4.59-1.97-.66-4.59-.66h-.889a.7.7 0 0 1-.242 0M12 4.25c.41 0 .75-.34.75-.75s-.34-.75-.75-.75-.75.34-.75.75.34.75.75.75m-7.738 8c-.588.001-.983.011-1.142.1a.7.7 0 0 0-.27.27c-.1.18-.1.66-.1 1.38s0 1.2.1 1.38a.7.7 0 0 0 .27.27c.16.088.554.099 1.142.1-.012-.525-.012-1.106-.012-1.75s0-1.225.012-1.75M19.75 14c0-.644 0-1.224-.012-1.75.588.001.983.011 1.142.1a.7.7 0 0 1 .27.27c.1.18.1.66.1 1.38s0 1.2-.1 1.38a.7.7 0 0 1-.27.27c-.16.088-.554.099-1.142.1.012-.526.012-1.106.012-1.75M15 13.75c-.41 0-.75-.34-.75-.75v-1c0-.41.34-.75.75-.75s.75.34.75.75v1c0 .41-.34.75-.75.75m-6 0c-.41 0-.75-.34-.75-.75v-1c0-.41.34-.75.75-.75s.75.34.75.75v1c0 .41-.34.75-.75.75m.55 3.352c.09.07.909.65 2.445.65h-.005.01-.005c1.537 0 2.355-.58 2.445-.65.33-.24.4-.7.16-1.03a.75.75 0 0 0-1.04-.18c-.02.02-.55.36-1.56.36s-1.52-.33-1.56-.36a.75.75 0 0 0-.89 1.21" clip-rule="evenodd"/></svg>