<svg xmlns="http://www.w3.org/2000/svg" fill="none" viewBox="0 0 24 24"><path fill="currentColor" fill-rule="evenodd" d="M12 8a2 2 0 1 1 0-4 2 2 0 0 1 0 4m-6 .594C6 9.924 8.686 11 12 11s6-1.078 6-2.407V17c0 1.105-2.686 2-6 2s-6-.895-6-2z" clip-rule="evenodd" opacity=".4"/><path fill="currentColor" fill-rule="evenodd" d="M13.818 1.273a.75.75 0 1 1 .364 1.455c-.639.16-.998.443-1.197.704a2.751 2.751 0 1 1-1.618-.109c.258-.78.975-1.681 2.451-2.05M13.25 6a1.25 1.25 0 1 0-2.5 0 1.25 1.25 0 0 0 2.5 0m2.567.69a.75.75 0 0 0 .373.993c.414.188.698.385.87.563.167.175.19.29.19.347 0 .06-.027.193-.238.393-.212.2-.558.416-1.049.613-.976.392-2.377.651-3.963.651s-2.987-.26-3.963-.65c-.49-.197-.837-.412-1.05-.613-.21-.2-.237-.333-.237-.393 0-.057.023-.172.19-.347.172-.178.456-.375.87-.563a.75.75 0 0 0-.62-1.366c-.52.237-.985.53-1.33.89-.35.363-.61.832-.61 1.386q0 .126.017.246A1 1 0 0 0 5.25 9v8c0 .604.368 1.06.757 1.367.398.314.927.563 1.513.759 1.181.393 2.765.624 4.48.624s3.299-.23 4.48-.624c.586-.196 1.115-.445 1.513-.759.389-.306.757-.763.757-1.367V9a1 1 0 0 0-.017-.161 2 2 0 0 0 .017-.246c0-.554-.26-1.023-.61-1.386-.345-.36-.81-.653-1.33-.89a.75.75 0 0 0-.993.373m1.433 3.956a6 6 0 0 1-.728.345c-1.195.48-2.794.76-4.522.76s-3.327-.28-4.522-.76a6 6 0 0 1-.728-.345v2.344c.007.02.043.088.186.2.21.166.56.348 1.059.514.99.33 2.406.547 4.005.547s3.015-.217 4.006-.547c.499-.166.849-.348 1.058-.513.143-.113.179-.182.186-.201zm0 4.174a7 7 0 0 1-.77.307c-1.181.394-2.765.624-4.48.624s-3.299-.23-4.48-.624a7 7 0 0 1-.77-.307v2.169c.007.019.043.088.186.2.21.166.56.347 1.059.514.99.33 2.406.547 4.005.547s3.015-.217 4.006-.547c.499-.167.849-.348 1.058-.514.143-.112.179-.181.186-.2zM6.749 16.985v-.002zm10.502 0v-.001zm2.615-1.386a.75.75 0 0 0 .233 1.035c.875.553 1.151 1.066 1.151 1.437 0 .265-.134.596-.546.98-.414.384-1.054.765-1.907 1.1-1.702.67-4.105 1.1-6.797 1.1s-5.095-.43-6.797-1.1c-.853-.335-1.493-.716-1.907-1.1-.412-.384-.546-.715-.546-.98 0-.37.276-.884 1.15-1.437a.75.75 0 1 0-.8-1.268c-1.027.65-1.85 1.556-1.85 2.705 0 .82.426 1.522 1.025 2.079.599.556 1.423 1.022 2.38 1.397 1.917.754 4.514 1.203 7.345 1.203s5.428-.45 7.345-1.203c.957-.375 1.781-.841 2.38-1.397.599-.557 1.025-1.259 1.025-2.08 0-1.148-.823-2.055-1.85-2.704a.75.75 0 0 0-1.034.233" clip-rule="evenodd"/></svg>