<svg xmlns="http://www.w3.org/2000/svg" fill="none" viewBox="0 0 24 24"><path fill="currentColor" d="M15.989 8.889 14.118 7c0-1-.984-2-2.192-2 .282-1 .315-2.586-.235-2.932-.234-.148-.445-.04-.867.177-.911.468-1.86 1.407-1.86 3.152C6.173 6.834 4.7 10.55 7.513 14.378l.011.016c.248.337.36.49.411.661.047.155.042.325.042.66L7.888 19h8.69c0-.833-.073-1.911-.16-2.202-.05-.167-.064-.229-.09-.285-.026-.057-.064-.107-.157-.25-.165-.252-.989-.932-2.636-2.292-1.096-.905-1.61-2.2-1.609-3 .302.017.592-.052.883-.12q.162-.04.325-.072c.47-.092.721.143 1.039.438l.05.047c.377.35.952.35 1.329 0l.138-.126c.27-.243.58-.524.723-.837.26-.572-.08-1.002-.424-1.412" opacity=".4"/><path fill="currentColor" fill-rule="evenodd" d="M12.98 11.58q-.086.022-.183.043c.18.555.57 1.236 1.216 1.77l.007.006c.818.675 1.44 1.188 1.878 1.565q.33.283.541.483c.126.12.266.262.36.405l.052.08.054.082c.03.047.069.108.104.184a2 2 0 0 1 .073.198l.028.095.028.093c.07.234.094.484.106.748.011.26.011.587.011.988v.098c0 .224.003.242.005.253a.3.3 0 0 0 .04.102l.026.03c.029.032.068.072.138.145l.02.02c.313.324.575.596.765.823.182.216.386.492.46.824a1.77 1.77 0 0 1-.737 1.854c-.291.193-.637.239-.912.26-.29.02-.66.02-1.098.02H8.514c-.455 0-.84 0-1.138-.022-.285-.022-.643-.07-.94-.276a1.77 1.77 0 0 1-.715-1.815c.072-.344.284-.629.473-.852.197-.234.47-.514.797-.848l.02-.021c.074-.075.115-.117.145-.15l.027-.032a.3.3 0 0 0 .04-.099c.001-.011.004-.03.004-.263v-2.74c0-.14 0-.224-.003-.292l-.007-.07a1 1 0 0 0-.054-.092 10 10 0 0 0-.254-.355c-1.518-2.064-1.924-4.17-1.503-6a6.16 6.16 0 0 1 2.827-3.875c.154-1.806 1.227-2.845 2.249-3.37l.037-.018c.176-.091.4-.207.617-.264.303-.08.634-.064.955.138.353.222.529.581.622.865.098.3.143.635.157.957a6.5 6.5 0 0 1-.056 1.133c1.059.336 1.882 1.242 2.03 2.28l1.678 1.693.041.045.006.007c.162.193.407.484.552.833.166.4.201.869-.025 1.366a2.6 2.6 0 0 1-.532.732c-.127.13-.275.264-.39.368l-.112.102a1.723 1.723 0 0 1-2.349 0l-.058-.054c-.064-.06-.113-.106-.163-.149a1 1 0 0 0-.122-.09.1.1 0 0 0-.027-.012s-.02-.003-.066.006a7 7 0 0 0-.271.06zM9.715 5.398c0-1.405.656-2.075 1.375-2.444.077 0 .273.17.281.369q.006.116.004.238c-.005.424-.07.88-.17 1.237a.75.75 0 0 0 .721.953c.187 0 .362.035.522.096.554.211.92.73.92 1.154a.75.75 0 0 0 .217.528l1.849 1.866c.17.203.258.324.301.428.018.042.02.065.02.078a.2.2 0 0 1-.024.09c-.03.066-.101.165-.238.304a6 6 0 0 1-.286.269c-.256.19-.474.15-.474.15l-.048-.044a3 3 0 0 0-.583-.458 1.6 1.6 0 0 0-1.111-.169 9 9 0 0 0-.33.073l-.022.005c-.094.022-.175.042-.256.058a1.6 1.6 0 0 1-.415.044c-.34-.02-.83-.178-1.421-.757a.75.75 0 1 0-1.051 1.07c.582.571 1.174.915 1.749 1.077.055.273.144.56.266.852a5.5 5.5 0 0 0 1.547 2.085 144 144 0 0 1 1.862 1.552c.213.183.371.324.483.431.087.083.125.126.138.14q.008.009.002.001l.062.093.001.003.039.058.001.002.001.004.02.068.001.003.032.108c.017.056.035.16.045.386.01.208.01.476.01.852H8.727v-2.632c.002-.264.004-.556-.09-.833a2 2 0 0 0-.162-.338 6 6 0 0 0-.305-.441l-.053-.072c-1.295-1.763-1.559-3.429-1.249-4.775.313-1.359 1.228-2.472 2.44-3.096a.75.75 0 0 0 .407-.666M8.287 19.75q-.088.097-.175.185l-.028.028c-.352.36-.587.601-.744.788-.108.127-.143.19-.152.205v.001a.28.28 0 0 0 .081.244 1.4 1.4 0 0 0 .221.03c.235.018.561.019 1.054.019h7.388c.476 0 .79 0 1.016-.017.129-.01.191-.023.214-.029a.28.28 0 0 0 .085-.25l-.001-.002c-.009-.015-.044-.075-.147-.198-.151-.18-.376-.414-.713-.763l-.027-.027q-.107-.107-.21-.229a1 1 0 0 1-.149.015z" clip-rule="evenodd"/></svg>