<svg xmlns="http://www.w3.org/2000/svg" fill="none" viewBox="0 0 24 24"><path fill="currentColor" d="M17.444 14.112a4 4 0 0 0-3.487 6.976 7 7 0 1 1 3.487-6.976" opacity=".4"/><path fill="currentColor" fill-rule="evenodd" d="M5.25 6.5a5.25 5.25 0 1 1 10.5 0V9a.8.8 0 0 1-.053.278c.382.4.711.862.974 1.387a.75.75 0 1 1-1.342.67c-.836-1.672-2.687-2.585-4.863-2.585-3.43 0-6.216 2.795-6.216 6.25s2.786 6.25 6.216 6.25q.225 0 .445-.016a.75.75 0 0 1 .106 1.496q-.273.02-.551.02c-4.265 0-7.716-3.473-7.716-7.75 0-2.259.963-4.294 2.5-5.711zm9 0v1.67c-1.12-.62-2.442-.92-3.784-.92a7.65 7.65 0 0 0-3.716.956V6.5a3.75 3.75 0 1 1 7.5 0m-1 11.5a3.25 3.25 0 1 1 6.5 0 3.25 3.25 0 0 1-6.5 0m3.25-4.75a4.75 4.75 0 1 0 0 9.5 4.75 4.75 0 0 0 0-9.5m-.47 3.22a.75.75 0 1 0-1.06 1.06l.469.47-.47.47a.75.75 0 1 0 1.062 1.06l.469-.47.47.47a.75.75 0 1 0 1.06-1.06l-.47-.47.47-.47a.75.75 0 1 0-1.06-1.06l-.47.47z" clip-rule="evenodd"/></svg>