<svg xmlns="http://www.w3.org/2000/svg" fill="none" viewBox="0 0 24 24"><path fill="currentColor" d="M12 22c5.523 0 10-4.477 10-10S17.523 2 12 2 2 6.477 2 12s4.477 10 10 10" opacity=".4"/><path fill="currentColor" fill-rule="evenodd" d="M2.75 12a9.25 9.25 0 1 1 18.5 0 9.25 9.25 0 0 1-18.5 0M12 1.25C6.063 1.25 1.25 6.063 1.25 12S6.063 22.75 12 22.75 22.75 17.937 22.75 12 17.937 1.25 12 1.25M12.769 7a.75.75 0 0 0-1.5 0v5.488l-.046-.056c-.168-.205-.33-.415-.487-.62l-.142-.183a7 7 0 0 0-.568-.672.75.75 0 1 0-1.043 1.078c.084.082.221.25.425.513l.131.17c.16.207.34.44.523.664.234.285.496.584.762.823.236.21.602.493 1.04.54l.07.004c.476.006.88-.28 1.127-.484.284-.233.564-.535.814-.826.228-.265.45-.543.64-.783l.06-.076c.217-.273.368-.458.464-.555a.75.75 0 0 0-1.063-1.058c-.168.17-.377.431-.575.679l-.06.075c-.182.23-.375.473-.572.704zm-4.765 9.254a.75.75 0 0 0 0 1.5h7.992a.75.75 0 0 0 0-1.5z" clip-rule="evenodd"/></svg>