<svg xmlns="http://www.w3.org/2000/svg" fill="none" viewBox="0 0 24 24"><path fill="currentColor" d="M12.014 21.993c4.97 0 9.09-3.62 9.88-8.36.11-.67.16-1 .02-1.46-.02-.06-.04-.12-.07-.18-4.32 0-6.98-.07-8.38-1.46-1.39-1.4-1.46-4.06-1.46-8.38-.06-.03-.12-.05-.18-.07-.46-.15-.79-.09-1.46.02-4.74.79-8.36 4.91-8.36 9.88 0 5.53 4.48 10.01 10.01 10.01" opacity=".4"/><path fill="currentColor" d="M22.624 11.943c-.2-.62-.58-1.01-1.24-1.67l-7.67-7.67c-.64-.64-1.03-1.02-1.66-1.23-.62-.2-1.08-.13-1.81 0-5.21.87-8.99 5.33-8.99 10.62 0 5.93 4.83 10.76 10.76 10.76 5.29 0 9.75-3.78 10.62-9 .12-.71.19-1.17-.01-1.8zm-2.39-.7c-3.62-.01-5.12-.12-6.24-1.24-1.12-1.13-1.23-2.63-1.24-6.25l7.48 7.48zm.92 2.27a9.23 9.23 0 0 1-9.14 7.73c-5.11 0-9.26-4.15-9.26-9.26 0-4.55 3.25-8.39 7.78-9.15.35-.06.56-.09.72-.09 0 4.68.03 6.66 1.68 8.32 1.65 1.65 3.63 1.68 8.31 1.68 0 .17-.03.39-.09.77"/></svg>