<svg xmlns="http://www.w3.org/2000/svg" fill="none" viewBox="0 0 24 24"><path fill="currentColor" fill-rule="evenodd" d="M18 14h2.006c.474 0 .71 0 .857-.15s.143-.384.134-.852c-.078-4.015-.621-6.81-1.283-8.56-.365-.966-1.271-1.564-2.279-1.787l-.431-.095c0 2.31.25 6.314.997 11.443M14.073 2.623c-.542.584-1.307.876-2.072.876-.07.001-1.384-.333-2.031-.5.147 3.478-.089 10.748-3.97 12l-.129.05c-.147.898-.334 1.966-.498 2.88-.177.99-.265 1.485.07 2.101.336.617.674.759 1.352 1.044C7.924 21.549 9.623 22 12 22s4.078-.451 5.207-.925c.677-.285 1.016-.427 1.352-1.044.335-.616.247-1.111.07-2.101l-.63-2.93c-3.88-1.252-4.115-8.522-3.968-12zM6.034 14h-2.04c-.473 0-.71 0-.857-.15s-.142-.384-.133-.851c.078-4.016.62-6.812 1.283-8.562.365-.965 1.271-1.563 2.278-1.786l.431-.095c0 2.31-.215 6.315-.962 11.444" clip-rule="evenodd" opacity=".4"/><path fill="currentColor" fill-rule="evenodd" d="M10.17 1.664a.75.75 0 0 0-.834-.396l-2.933.651c-1.17.26-2.336.982-2.818 2.254-.702 1.857-1.252 4.745-1.331 8.812v.034a4.4 4.4 0 0 0 .013.613c.027.224.1.505.335.744.236.24.517.318.74.348.189.026.412.026.618.026h1.199c-.15.924-.35 2.07-.526 3.048l-.019.108c-.16.893-.294 1.633.169 2.484.213.39.453.675.776.901.278.196.6.33.904.458l.04.017c1.223.513 3.022.984 5.497.984s4.274-.47 5.497-.984l.04-.017c.305-.128.626-.262.904-.457.323-.227.563-.512.776-.902.463-.85.33-1.591.169-2.484l-.02-.108c-.174-.978-.375-2.124-.525-3.048h1.199c.206 0 .43 0 .618-.026.223-.03.505-.108.74-.348s.308-.52.335-.744c.022-.188.018-.41.014-.613v-.034c-.08-4.067-.63-6.955-1.332-8.812-.481-1.272-1.648-1.994-2.818-2.254l-2.933-.651a.75.75 0 0 0-.833.396c-.356.711-1.072 1.086-1.83 1.086-.76 0-1.476-.375-1.832-1.086m-3.935 1.87c-.05 2.237-.274 5.583-.852 9.716H3.995l-.245-.001q0-.097.004-.235c.076-3.964.613-6.668 1.234-8.31.198-.524.647-.93 1.247-1.17m.605 10.13c.642-4.537.87-8.173.902-10.506l1.4-.31q.038.053.079.103v.08c.071 1.715.047 4.327-.459 6.644-.385 1.765-1.008 3.176-1.922 3.989m-.302 1.938c-.134.803-.29 1.689-.428 2.46-.186 1.038-.2 1.262-.01 1.61.123.226.22.321.32.391.132.093.303.168.664.32 1.036.435 2.636.867 4.916.867s3.88-.432 4.916-.867c.36-.152.532-.227.664-.32.1-.07.197-.165.32-.39.19-.349.176-.573-.01-1.611a241 241 0 0 1-.428-2.46c-2.15-.875-3.182-3.282-3.69-5.607-.445-2.042-.54-4.258-.519-5.962a3.7 3.7 0 0 1-2.505 0c.02 1.705-.075 3.92-.52 5.962-.508 2.325-1.539 4.733-3.69 5.607M14.78 2.95l.079-.103 1.399.31c.033 2.332.26 5.969.902 10.506-.914-.813-1.537-2.224-1.922-3.989-.505-2.317-.53-4.93-.457-6.643l-.001-.082m3.837 10.3c-.578-4.134-.802-7.48-.852-9.717.6.24 1.049.646 1.247 1.17.621 1.642 1.158 4.346 1.234 8.31q.004.138.004.235l-.245.001z" clip-rule="evenodd"/></svg>