<svg xmlns="http://www.w3.org/2000/svg" fill="none" viewBox="0 0 24 24"><path fill="currentColor" d="M17.5 7.5a5.5 5.5 0 0 0-10.98-.477A5 5 0 0 0 7 17h10.5a4.5 4.5 0 1 0 0-9h-.022q.021-.247.022-.5" opacity=".4"/><path fill="currentColor" fill-rule="evenodd" d="M12 1.25a6.25 6.25 0 0 1 6.247 6.053A5.251 5.251 0 0 1 17.5 17.75h-4.75v1H13A1.75 1.75 0 0 1 14.678 20H19a.75.75 0 0 1 0 1.5h-4.322A1.75 1.75 0 0 1 13 22.75h-2a1.75 1.75 0 0 1-1.678-1.25H5A.75.75 0 0 1 5 20h4.322A1.75 1.75 0 0 1 11 18.75h.25v-1H7A5.75 5.75 0 0 1 5.853 6.365 6.25 6.25 0 0 1 12 1.25m1 19h-2a.25.25 0 0 0-.25.25v.5c0 .138.112.25.25.25h2a.25.25 0 0 0 .25-.25v-.5a.25.25 0 0 0-.25-.25m-1-4h5.5a3.75 3.75 0 0 0 .614-7.45 6.2 6.2 0 0 1-1.293 2.678.75.75 0 1 1-1.156-.956A4.72 4.72 0 0 0 16.75 7.5a4.75 4.75 0 0 0-9.338-1.235c1.135.08 2.18.49 3.039 1.135a.75.75 0 0 1-.901 1.2 4.23 4.23 0 0 0-2.959-.83A4.25 4.25 0 0 0 7 16.25z" clip-rule="evenodd"/></svg>