<svg xmlns="http://www.w3.org/2000/svg" fill="none" viewBox="0 0 24 24"><path fill="currentColor" fill-rule="evenodd" d="M12 3a5.5 5.5 0 0 1 5.478 6h.022a4.5 4.5 0 1 1 0 9h-1.475l-.482-.5-.548.5h-5.97l-.482-.5-.548.5H7a5 5 0 0 1-.48-9.977A5.5 5.5 0 0 1 12 3m.043 9-1.136 1.036a1.417 1.417 0 0 0 .029 2.016c.288.28.704.448 1.107.448.404 0 .737-.14 1.025-.392a1.424 1.424 0 0 0 0-2.044z" clip-rule="evenodd" opacity=".4"/><path fill="currentColor" fill-rule="evenodd" d="M7.422 7.082C7.975 5.175 9.8 3.75 12 3.75c2.65 0 4.75 2.063 4.75 4.549q0 .208-.02.411a4.4 4.4 0 0 1-1.057 2.472.75.75 0 0 0 1.14.976 5.95 5.95 0 0 0 1.297-2.58c1.8.28 3.14 1.777 3.14 3.537 0 1.392-.832 2.614-2.074 3.208a.75.75 0 0 0 .648 1.354c1.721-.825 2.926-2.549 2.926-4.562 0-2.585-1.977-4.684-4.504-5.034C18.128 4.817 15.351 2.25 12 2.25c-3.036 0-5.597 2.104-6.143 4.927-2.61.51-4.607 2.741-4.607 5.457 0 2.25 1.375 4.17 3.328 5.05a.75.75 0 0 0 .615-1.368c-1.456-.656-2.443-2.068-2.443-3.682 0-2.09 1.662-3.849 3.839-4.048l-.069-.747.069.747q.202-.02.411-.02c.965 0 1.85.308 2.56.822a.75.75 0 1 0 .88-1.215 5.84 5.84 0 0 0-3.018-1.091m5.162 4.398a.75.75 0 0 0-1.046-.034l-1.136 1.036-.031.03a2.167 2.167 0 0 0 .042 3.078 2.38 2.38 0 0 0 1.63.66 2.25 2.25 0 0 0 1.548-.604 2.175 2.175 0 0 0 .01-3.11zm-1.125 3.034a.666.666 0 0 1-.028-.94l.578-.528.518.538.018.018a.674.674 0 0 1 .013.955.75.75 0 0 1-.515.193.88.88 0 0 1-.584-.236M9.084 16.98a.75.75 0 0 0-1.046-.034l-1.136 1.036-.031.03a2.167 2.167 0 0 0 .042 3.078 2.38 2.38 0 0 0 1.63.66 2.25 2.25 0 0 0 1.548-.604 2.175 2.175 0 0 0 .01-3.11zm7 0a.75.75 0 0 0-1.046-.034l-1.136 1.036-.031.03a2.167 2.167 0 0 0 .042 3.078 2.38 2.38 0 0 0 1.63.66 2.25 2.25 0 0 0 1.547-.604c.877-.852.88-2.255.01-3.11zm-8.125 3.034a.667.667 0 0 1-.028-.94l.578-.528.519.538.017.018a.675.675 0 0 1 .013.955.75.75 0 0 1-.515.193.88.88 0 0 1-.584-.236m7 0a.666.666 0 0 1-.028-.94l.578-.528.518.538.018.018a.674.674 0 0 1 .013.955.75.75 0 0 1-.515.193.88.88 0 0 1-.584-.236" clip-rule="evenodd"/></svg>