<svg xmlns="http://www.w3.org/2000/svg" fill="none" viewBox="0 0 24 24"><path fill="currentColor" fill-rule="evenodd" d="M9.111 7.337C8.607 7 7.904 7 6.5 7s-2.107 0-2.611.337a2 2 0 0 0-.552.552C3 8.393 3 9.096 3 10.5v8c0 1.404 0 2.107.337 2.611a2 2 0 0 0 .552.552C4.393 22 5.096 22 6.5 22s2.107 0 2.611-.337a2 2 0 0 0 .552-.552C10 20.607 10 19.904 10 18.5v-8c0-1.404 0-2.107-.337-2.611a2 2 0 0 0-.552-.552m11 0C19.607 7 18.904 7 17.5 7s-2.107 0-2.611.337a2 2 0 0 0-.552.552C14 8.393 14 9.096 14 10.5v8c0 1.404 0 2.107.337 2.611.146.218.334.406.552.552.504.337 1.207.337 2.611.337s2.107 0 2.611-.337c.218-.146.406-.334.552-.552C21 20.607 21 19.904 21 18.5v-8c0-1.404 0-2.107-.337-2.611a2 2 0 0 0-.552-.552" clip-rule="evenodd" opacity=".4"/><path fill="currentColor" fill-rule="evenodd" d="M9.521 1.46A.75.75 0 0 0 8.48 2.54l1.586 1.532.031.031c.306.296.587.568.846.759.287.211.629.388 1.058.388s.771-.177 1.058-.388c.259-.191.54-.463.846-.759l.031-.03 1.586-1.534a.75.75 0 0 0-1.042-1.078l-1.586 1.533c-.349.337-.557.536-.726.66a.7.7 0 0 1-.146.09c-.016.007-.02.006-.02.006H12c-.001 0-.005 0-.021-.006a.7.7 0 0 1-.146-.09c-.169-.124-.377-.323-.726-.66zm-3.06 4.79h.077c.67 0 1.229 0 1.681.046.473.048.913.153 1.309.417.3.201.558.459.758.76.265.395.37.835.418 1.308.046.452.046 1.011.046 1.68v8.077c0 .67 0 1.229-.046 1.681-.048.473-.153.913-.418 1.309-.2.3-.458.558-.758.759-.396.264-.836.369-1.309.417-.452.046-1.011.046-1.68.046h-.077c-.67 0-1.229 0-1.681-.046-.473-.048-.913-.153-1.309-.418a2.8 2.8 0 0 1-.759-.758c-.264-.396-.369-.835-.417-1.309-.046-.452-.046-1.011-.046-1.68v-8.077c0-.67 0-1.229.046-1.681.048-.473.153-.913.417-1.309.201-.3.459-.558.76-.759.395-.264.835-.369 1.308-.417.452-.046 1.011-.046 1.68-.046M4.934 7.788c-.355.036-.519.1-.627.173a1.3 1.3 0 0 0-.345.345c-.073.108-.137.272-.173.627-.037.367-.038.85-.038 1.567v8c0 .718 0 1.2.038 1.567.036.355.1.519.173.628.09.136.208.253.345.344.108.073.272.137.627.173.367.037.85.038 1.567.038.718 0 1.2 0 1.567-.038.355-.036.519-.1.627-.173a1.3 1.3 0 0 0 .345-.344c.073-.109.137-.273.173-.628.037-.367.038-.85.038-1.567v-8c0-.718 0-1.2-.038-1.567-.036-.355-.1-.519-.173-.627a1.3 1.3 0 0 0-.345-.345c-.108-.073-.272-.137-.627-.173-.367-.037-.85-.038-1.567-.038-.718 0-1.2 0-1.567.038M17.462 6.25h.076c.67 0 1.229 0 1.681.046.473.048.913.153 1.309.417.3.201.558.459.759.76.264.395.369.835.417 1.308.046.452.046 1.011.046 1.68v8.077c0 .67 0 1.229-.046 1.681-.048.473-.153.913-.418 1.309-.2.3-.458.558-.758.759-.396.264-.835.369-1.309.417-.452.046-1.011.046-1.68.046h-.077c-.67 0-1.229 0-1.681-.046-.474-.048-.913-.153-1.309-.418-.3-.2-.558-.458-.758-.758-.265-.396-.37-.835-.418-1.309-.046-.452-.046-1.011-.046-1.68v-8.077c0-.67 0-1.229.046-1.681.048-.473.153-.913.418-1.309.2-.3.458-.558.758-.759.396-.264.835-.369 1.309-.417.452-.046 1.011-.046 1.68-.046m-1.53 1.538c-.354.036-.518.1-.626.173a1.3 1.3 0 0 0-.345.345c-.073.108-.137.272-.173.627-.037.367-.038.85-.038 1.567v8c0 .718 0 1.2.038 1.567.036.355.1.519.173.628.09.136.208.253.345.344.108.073.272.137.627.173.367.037.85.038 1.567.038.718 0 1.2 0 1.567-.038.355-.036.519-.1.628-.173a1.3 1.3 0 0 0 .344-.344c.073-.109.137-.273.173-.628.037-.367.038-.85.038-1.567v-8c0-.718 0-1.2-.038-1.567-.036-.355-.1-.519-.173-.627a1.3 1.3 0 0 0-.344-.345c-.109-.073-.273-.137-.628-.173-.367-.037-.85-.038-1.567-.038-.718 0-1.2 0-1.567.038" clip-rule="evenodd"/></svg>