<svg xmlns="http://www.w3.org/2000/svg" fill="none" viewBox="0 0 24 24"><path fill="currentColor" d="M11.121 12.879A3 3 0 1 1 6.88 17.12a3 3 0 0 1 4.242-4.242" opacity=".4"/><path fill="currentColor" fill-rule="evenodd" d="M18.288 2.53a.75.75 0 1 0-1.06-1.06L15.47 3.227a.75.75 0 0 0 1.06 1.061zM14.53 6.288a.75.75 0 0 0-1.06-1.06l-7.068 7.067-.054.053a3.75 3.75 0 1 0 3.183-1.06zM7.388 13.43l.021-.02.042-.042a2.25 2.25 0 1 1-.063.062M22.53 6.774a.75.75 0 0 0-1.06-1.061l-6.636 6.636a.75.75 0 1 0 1.06 1.06zm-9.9-5.304a.75.75 0 0 1 0 1.06l-5.6 5.6a.75.75 0 0 1-1.06-1.06l5.6-5.6a.75.75 0 0 1 1.06 0M4.58 9.52a.75.75 0 0 1 0 1.06 6.25 6.25 0 0 0 8.84 8.839l3.949-3.95a.75.75 0 0 1 1.06 1.061l-3.949 3.95A7.75 7.75 0 1 1 3.52 9.52a.75.75 0 0 1 1.06 0m17.95 1.849a.75.75 0 0 1 0 1.06l-2 2a.75.75 0 1 1-1.06-1.06l2-2a.75.75 0 0 1 1.06 0" clip-rule="evenodd"/></svg>