<svg xmlns="http://www.w3.org/2000/svg" fill="none" viewBox="0 0 24 24"><path fill="currentColor" fill-rule="evenodd" d="M10 2h4c3.28 0 4.919 0 6.081.814a4.5 4.5 0 0 1 1.105 1.105C22 5.08 22 6.72 22 10s0 4.919-.814 6.081a4.5 4.5 0 0 1-1.105 1.105C18.92 18 17.28 18 14 18h-4c-3.28 0-4.919 0-6.081-.814a4.5 4.5 0 0 1-1.105-1.105C2 14.92 2 13.28 2 10s0-4.919.814-6.081a4.5 4.5 0 0 1 1.105-1.105C5.08 2 6.72 2 10 2m8 1.285c1.156 0 2.175.568 2.773 1.431a3.12 3.12 0 0 1 0 3.567 3.36 3.36 0 0 1-2.774 1.43 3.36 3.36 0 0 1-2.773-1.43 3.12 3.12 0 0 1 0-3.567 3.36 3.36 0 0 1 2.773-1.43" clip-rule="evenodd" opacity=".4"/><path fill="currentColor" fill-rule="evenodd" d="M9.963 1.25h1.04a.75.75 0 1 1 0 1.5h-.997c-1.657 0-2.841.001-3.759.098-.904.095-1.462.276-1.897.58-.358.251-.67.563-.921.921-.305.435-.486.992-.581 1.895-.097.917-.098 2.1-.098 3.756s.001 2.84.098 3.756c.095.903.276 1.46.58 1.895.252.358.564.67.922.92.435.305.993.486 1.897.581.918.097 2.102.098 3.76.098h4.002c1.657 0 2.842-.001 3.76-.098.903-.095 1.461-.276 1.896-.58a3.8 3.8 0 0 0 .922-.921c.481-.687.63-1.607.663-2.674a.75.75 0 1 1 1.5.046c-.035 1.121-.187 2.422-.935 3.489a5.3 5.3 0 0 1-1.29 1.289c-.728.51-1.572.735-2.6.843-1.005.106-2.268.106-3.872.106H12.75v2.5H16a.75.75 0 0 1 0 1.5H8a.75.75 0 0 1 0-1.5h3.25v-2.5H9.963c-1.604 0-2.868 0-3.873-.106-1.027-.108-1.871-.334-2.6-.843a5.3 5.3 0 0 1-1.29-1.29c-.51-.727-.736-1.571-.844-2.598-.106-1.004-.106-2.267-.106-3.87v-.087c0-1.602 0-2.865.106-3.87.108-1.026.334-1.87.844-2.597a5.3 5.3 0 0 1 1.29-1.29c.729-.51 1.573-.735 2.6-.843 1.005-.106 2.27-.106 3.873-.106m8.037 0a.75.75 0 0 1 .75.75v.603a4.1 4.1 0 0 1 2.172 1.127l.672-.432a.75.75 0 0 1 .812 1.261l-.638.41a3.86 3.86 0 0 1 0 3.062l.637.41a.75.75 0 0 1-.81 1.261l-.673-.432a4.1 4.1 0 0 1-2.172 1.128V11a.75.75 0 0 1-1.5 0v-.602a4.1 4.1 0 0 1-2.17-1.128l-.673.432a.75.75 0 0 1-.811-1.261l.637-.41a3.86 3.86 0 0 1 0-3.061l-.637-.41a.75.75 0 0 1 .81-1.262l.674.432a4.1 4.1 0 0 1 2.171-1.127V2a.75.75 0 0 1 .75-.75m0 2.786c-.908 0-1.698.445-2.157 1.108a2.37 2.37 0 0 0 0 2.712A2.61 2.61 0 0 0 18 8.964c.908 0 1.698-.445 2.157-1.108a2.37 2.37 0 0 0 0-2.712A2.61 2.61 0 0 0 18 4.036M11 14.25a.75.75 0 0 0 0 1.5h2a.75.75 0 0 0 0-1.5z" clip-rule="evenodd"/></svg>