<svg xmlns="http://www.w3.org/2000/svg" fill="none" viewBox="0 0 24 24"><path fill="currentColor" d="M14 2h-4c-3.28 0-4.919 0-6.081.814a4.5 4.5 0 0 0-1.105 1.105C2 5.08 2 6.72 2 10s0 4.919.814 6.081a4.5 4.5 0 0 0 1.105 1.105C5.08 18 6.72 18 10 18h4c3.28 0 4.919 0 6.081-.814a4.5 4.5 0 0 0 1.105-1.105C22 14.92 22 13.28 22 10s0-4.919-.814-6.081a4.5 4.5 0 0 0-1.105-1.105C18.92 2 17.28 2 14 2" opacity=".4"/><path fill="currentColor" fill-rule="evenodd" d="M9.96 1.25h1.54a.75.75 0 0 1 0 1.5h-1.496c-1.657 0-2.84.001-3.758.098-.904.095-1.462.276-1.896.58a3.8 3.8 0 0 0-.922.921c-.304.434-.485.992-.58 1.895-.097.917-.098 2.1-.098 3.756s.001 2.84.098 3.756c.095.903.276 1.46.58 1.895.252.358.563.67.922.92.434.305.992.486 1.896.581.917.097 2.101.098 3.758.098h4.002c1.656 0 2.84-.001 3.758-.098.903-.095 1.461-.276 1.896-.58.358-.251.67-.563.921-.921.48-.685.636-1.639.67-3.663a.75.75 0 0 1 1.499.024c-.032 1.98-.163 3.39-.94 4.5a5.3 5.3 0 0 1-1.29 1.289c-.728.51-1.572.735-2.6.843-1.004.106-2.267.106-3.87.106h-1.3v2.5H16a.75.75 0 0 1 0 1.5H8a.75.75 0 0 1 0-1.5h3.25v-2.5H9.96c-1.603 0-2.866 0-3.871-.106-1.027-.108-1.871-.334-2.6-.843a5.3 5.3 0 0 1-1.29-1.29c-.51-.728-.735-1.571-.843-2.598-.106-1.004-.106-2.267-.106-3.87v-.087c0-1.602 0-2.865.106-3.87.108-1.026.334-1.87.844-2.597a5.3 5.3 0 0 1 1.29-1.29c.728-.51 1.572-.735 2.599-.843C7.094 1.25 8.357 1.25 9.96 1.25m12.57.22a.75.75 0 0 1 0 1.06L19.56 5.5l2.97 2.97a.75.75 0 0 1-1.06 1.06L18.5 6.56l-2.97 2.97a.75.75 0 1 1-1.06-1.06l2.97-2.97-2.97-2.97a.75.75 0 0 1 1.06-1.06l2.97 2.97 2.97-2.97a.75.75 0 0 1 1.06 0M11 14.25a.75.75 0 0 0 0 1.5h2a.75.75 0 0 0 0-1.5z" clip-rule="evenodd"/></svg>