<svg xmlns="http://www.w3.org/2000/svg" fill="none" viewBox="0 0 24 24"><path fill="currentColor" fill-rule="evenodd" d="M17 11.567c2.761 0 5-2.142 5-4.784S19.761 2 17 2c-2.76 0-5 2.142-5 4.783 0 1.27.517 2.423 1.36 3.279.185.188.31.445.26.71a2.65 2.65 0 0 1-.544 1.175 3.25 3.25 0 0 0 2.112-.329c.227-.12.34-.181.42-.193s.195.01.425.052q.48.09.967.09m-6.75.683a2.75 2.75 0 1 0-5.5 0 2.75 2.75 0 0 0 5.5 0m-6.064 6.083q-.13.072-.294.156c-.985.513-2.7 1.406-1.456 2.497C3.11 21.577 3.86 22 4.806 22h5.388c.945 0 1.696-.423 2.37-1.014 1.244-1.09-.471-1.984-1.456-2.497l-.294-.156c-2.028-1.11-4.6-1.11-6.628 0" clip-rule="evenodd" opacity=".4"/><path fill="currentColor" fill-rule="evenodd" d="M11.242 6.792c0-3.09 2.608-5.542 5.754-5.542 3.147 0 5.754 2.451 5.754 5.542s-2.607 5.542-5.754 5.542c-.416 0-.774-.054-.956-.08l-.097-.014a3 3 0 0 1-.169-.026l-.06-.011h-.004l-.002-.001-.173.095c-.949.506-1.733.567-2.604.405a.75.75 0 0 1-.445-1.21c.192-.237.326-.522.387-.832l-.055-.058a5.42 5.42 0 0 1-1.576-3.81m5.754-4.042c-2.38 0-4.254 1.84-4.254 4.042 0 1.062.431 2.032 1.145 2.758.128.13.302.318.404.574a1.4 1.4 0 0 1 .058.804 4 4 0 0 1-.064.274c.17-.049.348-.123.544-.228l.139-.077.014-.008.109-.06a1.2 1.2 0 0 1 .663-.136c.066.006.126.016.169.023l.09.017c.042.008.066.012.1.016q.108.013.214.03c.185.026.38.055.67.055 2.379 0 4.253-1.84 4.253-4.042S19.376 2.75 16.996 2.75m.759 1.754a.75.75 0 0 0-1.5 0V7.01a.75.75 0 0 0 1.5 0zm-.759 3.759a.75.75 0 0 0 0 1.5h.008a.75.75 0 0 0 0-1.5zM5.478 12.296c0-1.115.907-2.023 2.03-2.023 1.121 0 2.028.908 2.028 2.023a2.026 2.026 0 0 1-2.029 2.023 2.026 2.026 0 0 1-2.029-2.023m2.03-3.523a3.526 3.526 0 0 0-3.53 3.523 3.526 3.526 0 0 0 3.53 3.523 3.526 3.526 0 0 0 3.528-3.523 3.526 3.526 0 0 0-3.529-3.523m.008 7.987h-.034c-.95 0-2.109.252-3.174.692-1.06.438-2.118 1.102-2.79 1.993a1.29 1.29 0 0 0-.054 1.498c.302.454.903 1.103 2.014 1.58.418.18.851.234 1.24.234h5.573c.39 0 .822-.054 1.24-.234 1.112-.477 1.712-1.126 2.015-1.58a1.29 1.29 0 0 0-.055-1.498c-1.29-1.712-3.493-2.68-5.975-2.685M4.07 21.145c-.692-.297-1.07-.661-1.266-.907.46-.552 1.208-1.04 2.077-1.4.92-.38 1.883-.578 2.601-.578h.032c2.05.005 3.726.777 4.692 1.976-.195.247-.574.612-1.266.91a1.7 1.7 0 0 1-.65.111H4.72q-.386 0-.65-.112" clip-rule="evenodd"/></svg>