<svg xmlns="http://www.w3.org/2000/svg" fill="none" viewBox="0 0 24 24"><path fill="currentColor" d="M2 10.928v2.191c0 .247 0 .371.032.457a.45.45 0 0 0 .201.25c.077.048.229.08.532.142.066.013.099.02.142.038.047.02.104.055.142.09.035.031.061.065.114.134l1.438 1.877 2.603-2.629c.288-.29.432-.436.508-.62.076-.186.077-.393.078-.808.005-1.902.068-3.18.782-3.902.782-.79 1.145-.79 4.374-.788h.404c.349-.002.524.424.278.672l-1.857 1.875a1.227 1.227 0 0 0-.001 1.723 1.2 1.2 0 0 0 1.707 0l1.856-1.875a.39.39 0 0 1 .667.28v.41c.001 3.26.001 3.625-.781 4.415-.714.721-1.98.785-3.865.79-.41 0-.616 0-.799.078-.183.077-.327.223-.615.514l-2.952 2.981.838 1.093c.367.48.551.72.755.746s.51-.208 1.121-.679c1.473-1.134 3.623-1.025 4.965.328.377.38.565.57.733.592.167.023.353-.084.725-.297l1.725-.989c.379-.218.569-.327.635-.484.066-.158-.003-.427-.142-.965-.503-1.957.718-4.017 2.668-4.548.522-.142.783-.213.886-.349s.103-.354.103-.792v-1.952c0-.438 0-.656-.103-.792s-.364-.207-.886-.349c-1.951-.53-3.172-2.59-2.669-4.547.138-.539.207-.808.141-.966s-.256-.266-.635-.484L16.123 2.8c-.372-.213-.558-.32-.725-.297s-.355.213-.732.592c-1.46 1.471-3.874 1.471-5.333 0-.377-.379-.566-.569-.733-.592s-.353.084-.725.298L6.15 3.79c-.379.218-.569.327-.635.485s.003.426.142.965c.503 1.956-.718 4.016-2.668 4.547-.522.142-.783.213-.886.35C2 10.27 2 10.488 2 10.926z" opacity=".4"/><path fill="currentColor" fill-rule="evenodd" d="M2.041 21.46a2.64 2.64 0 0 0 1.87.8l.002-.001c.584 0 1.215-.204 1.829-.696l.034-.027 2.49-2.515c.391-.395.764-.776 1.101-1.122l.028-.028.022-.023c.614-.628 1.243-1.271 1.429-1.42.133-.023.464-.023.735-.023.312 0 .664 0 1.051-.023 1.116-.05 2.641-.12 3.576-1.52.476-.658.54-1.702.537-2.733v-.42c-.001-.502-.002-.975.006-1.318.012-.495.019-.797-.308-1.135a1.13 1.13 0 0 0-.752-.362 1.07 1.07 0 0 0-.788.25c-.129.114-.549.535-1.659 1.66l-.198.201-.11.112c-.227.229-.493.09-.544.06-.116-.067-.294-.235-.189-.594l.003-.011c.091-.143.449-.497.795-.84a54 54 0 0 0 .593-.59l.026-.028c.099-.112.195-.205.289-.295l.014-.014v-.001c.291-.281.777-.752.506-1.434-.31-.782-.932-.77-1.593-.758h-.004a19 19 0 0 1-1.061 0h-.019l-.127.003h-.003c-1.829.042-2.588.06-3.443.872-.794.73-.987 1.709-1.07 2.57-.082.85-.07 1.45-.061 1.89v.027c.005.243.011.535-.02.605-.259.305-2.595 2.653-3.99 4.056l-.287.287-.797.802-.045.05c-1.048 1.27-.727 2.816.132 3.687m1.068-1.052c-.382-.388-.547-1.047-.063-1.655l-.002-.002.443-.446.611-.614c2.065-2.075 3.796-3.82 4.07-4.142.402-.472.391-.981.377-1.625-.009-.425-.02-.955.055-1.721.082-.845.248-1.297.595-1.614l.012-.011c.413-.394.665-.422 2.451-.463l.09-.002q.437.01.747.006l-.552.549c-.72.712-1.093 1.08-1.193 1.528-.255.92.086 1.81.876 2.276a1.92 1.92 0 0 0 2.372-.298l.112-.114.199-.201.143-.145c.222-.225.52-.529.789-.798v.004c0 .249 0 .522.002.804v.408c.002.999-.084 1.623-.255 1.853l-.024.035c-.479.725-1.264.813-2.407.864h-.012c-.344.02-.675.02-.967.02-.664 0-1.149 0-1.512.24-.235.144-.581.487-1.746 1.679-.342.35-.722.739-1.122 1.143L4.77 20.418c-.868.673-1.49.164-1.661-.01m5.243 1.737a.75.75 0 0 0 1.025-.271 3.01 3.01 0 0 1 2.231-1.492 2.99 2.99 0 0 1 2.526.857l.007.007c.476.478.739.742 1.156.8.42.057.745-.129 1.201-.39l1.729-.991c.473-.272.785-.452.95-.843.163-.39.067-.765-.108-1.441-.397-1.547.582-3.213 2.141-3.638.663-.18 1.028-.28 1.285-.619.255-.337.255-.698.255-1.244v-1.953c0-.547 0-.908-.255-1.245-.258-.34-.623-.44-1.287-.62-1.558-.424-2.538-2.09-2.139-3.64.173-.676.268-1.049.105-1.44-.163-.39-.476-.57-.953-.844l-1.73-.992c-.45-.258-.775-.444-1.195-.386-.416.058-.678.321-1.153.798l-.009.009a2.98 2.98 0 0 1-2.135.882 2.98 2.98 0 0 1-2.134-.883c-.48-.483-.744-.748-1.162-.806-.421-.058-.748.13-1.2.39l-1.729.99c-.457.263-.787.453-.95.843-.164.39-.068.764.107 1.442.397 1.547-.582 3.212-2.139 3.636l-.006.002c-.66.18-1.025.279-1.281.618-.255.337-.255.698-.255 1.245v1.953c0 .546 0 .907.255 1.244s.616.438 1.271.616a.75.75 0 1 0 .432-1.437l-.023-.006-.074-.02c-.13-.036-.26-.072-.358-.102-.002-.087-.002-.194-.002-.294v-1.953c0-.1 0-.207.002-.295.1-.03.23-.066.363-.103l.071-.019c2.371-.646 3.805-3.094 3.197-5.458a13 13 0 0 1-.115-.463c.067-.041.149-.089.228-.134l.026-.015 1.727-.989c.08-.047.166-.096.239-.136.088.083.201.196.312.308a4.47 4.47 0 0 0 3.198 1.325c1.215 0 2.352-.47 3.199-1.324l.008-.008c.108-.11.218-.22.304-.301l.24.136 1.727.99.068.04.185.108c-.025.116-.064.27-.104.425l-.01.039c-.608 2.363.826 4.812 3.198 5.457.157.042.317.086.434.122.002.087.002.195.002.295v1.953c0 .1 0 .207-.002.294-.11.034-.256.074-.404.114l-.03.008c-2.37.646-3.805 3.095-3.197 5.459.042.16.087.334.115.462l-.226.132-.029.017-1.73.992-.236.133a13 13 0 0 1-.312-.308 4.48 4.48 0 0 0-3.781-1.289 4.5 4.5 0 0 0-3.337 2.226.75.75 0 0 0 .271 1.025" clip-rule="evenodd"/></svg>