<svg xmlns="http://www.w3.org/2000/svg" fill="none" viewBox="0 0 24 24"><path fill="currentColor" d="M2 7v8c0 .935 0 1.402.201 1.75a1.5 1.5 0 0 0 .549.549c.348.201.815.201 1.75.201a2.5 2.5 0 0 1 5 0h5a2.5 2.5 0 0 1 5 0c.935 0 1.402 0 1.75-.201a1.5 1.5 0 0 0 .549-.549C22 16.402 22 15.935 22 15v-2.669c0-.413 0-.62-.054-.816-.055-.196-.161-.373-.373-.728l-1.7-2.83c-.426-.712-.64-1.068-.983-1.262-.344-.195-.76-.195-1.59-.195H15c-.006-1.088-.054-1.676-.438-2.06C14.12 4 13.414 4 12 4H5c-1.414 0-2.121 0-2.56.44C2 4.878 2 5.585 2 7" opacity=".4"/><path fill="currentColor" fill-rule="evenodd" d="M4.95 3.25h7.1c.664 0 1.237 0 1.696.062.492.066.963.215 1.345.597s.531.854.597 1.345q.031.23.044.496h1.602c.387 0 .73 0 1.016.028.311.03.614.097.91.264.294.167.507.392.693.644.172.231.348.525.547.857l1.716 2.859.035.06c.178.294.335.556.417.853.083.297.082.602.082.946v2.771c0 .44 0 .82-.028 1.13-.03.33-.096.656-.273.963a2.25 2.25 0 0 1-.824.824c-.307.177-.633.243-.962.273q-.225.019-.5.024a3.251 3.251 0 0 1-6.326.004h-3.674a3.251 3.251 0 0 1-6.327-.004 7 7 0 0 1-.499-.024c-.329-.03-.655-.096-.962-.273a2.25 2.25 0 0 1-.824-.824c-.177-.307-.243-.633-.273-.962-.028-.312-.028-.691-.028-1.13V6.95c0-.664 0-1.237.062-1.696.066-.491.215-.963.597-1.345s.854-.531 1.345-.597c.459-.062 1.032-.062 1.697-.062m15.577 13.478q-.154.014-.365.018a3.25 3.25 0 0 0-4.412-2.247V7.25h1.551c.43 0 .698 0 .904.02.19.02.266.05.315.077.05.028.115.078.228.231.123.166.262.396.483.764l1.698 2.831c.233.389.273.467.294.542s.027.163.027.616V15c0 .481 0 .792-.022 1.027-.02.225-.055.307-.079.348a.75.75 0 0 1-.274.274c-.04.024-.123.058-.348.079M14.25 15.5q0 .114.032.217c-.204.312-.357.66-.445 1.033h-3.674a3.251 3.251 0 0 0-6.325-.004 5 5 0 0 1-.365-.018c-.225-.02-.307-.055-.348-.079a.75.75 0 0 1-.275-.274c-.023-.04-.058-.123-.078-.348A13 13 0 0 1 2.75 15V7c0-.728.002-1.2.048-1.546.044-.325.115-.427.172-.484s.159-.128.484-.172c.347-.046.818-.048 1.546-.048h7c.728 0 1.2.002 1.546.048.325.044.427.115.484.172s.128.159.172.484c.046.347.048.818.048 1.546zm-9 2.002V17.5a1.75 1.75 0 1 1 0 .002M17 19.25a1.75 1.75 0 0 1-1.75-1.748V17.5A1.75 1.75 0 1 1 17 19.25M7.25 7a.75.75 0 0 0-1.5 0v4a.75.75 0 0 0 1.5 0zm4 0a.75.75 0 0 0-1.5 0v4a.75.75 0 0 0 1.5 0z" clip-rule="evenodd"/></svg>