<svg xmlns="http://www.w3.org/2000/svg" fill="none" viewBox="0 0 24 24"><path fill="currentColor" fill-rule="evenodd" d="M5.172 3.17C4 4.34 4 6.23 4 10v4c0 3.77 0 5.66 1.172 6.83S8.229 22 12 22h1.5c3.771 0 5.657 0 6.828-1.17S21.5 17.77 21.5 14v-4c0-3.77 0-5.66-1.172-6.83S17.271 2 13.5 2H12C8.229 2 6.343 2 5.172 3.17M13 11c1.105 0 2-.9 2-2s-.895-2-2-2-2 .9-2 2 .895 2 2 2m-2.624 2.88c.079-.05.152-.1.214-.14a4.28 4.28 0 0 1 4.82 0c.063.04.135.09.214.14.716.46 1.964 1.25 1.059 2.22-.49.52-1.037.9-1.723.9h-3.92c-.686 0-1.233-.38-1.723-.9-.905-.97.343-1.76 1.059-2.22" clip-rule="evenodd" opacity=".4"/><path fill="currentColor" fill-rule="evenodd" d="M8 22.75h9.5A4.756 4.756 0 0 0 22.25 18V6a4.756 4.756 0 0 0-4.75-4.75H8a4.76 4.76 0 0 0-4.69 4H2.5a.75.75 0 0 0 0 1.5h.75v4.5H2.5a.75.75 0 0 0 0 1.5h.75v4.5H2.5a.75.75 0 0 0 0 1.5h.81c.36 2.264 2.326 4 4.69 4m-3.163-4A3.256 3.256 0 0 0 8 21.25h9.5A3.254 3.254 0 0 0 20.75 18V6a3.254 3.254 0 0 0-3.25-3.25H8a3.256 3.256 0 0 0-3.163 2.5H5a.75.75 0 0 1 0 1.5h-.25v4.5H5a.75.75 0 0 1 0 1.5h-.25v4.5H5a.75.75 0 0 1 0 1.5zm6.203-1.002h3.92v-.002c.806 0 1.549-.371 2.273-1.139.497-.534.549-1.054.505-1.396-.125-.961-1.081-1.569-1.715-1.971l-.194-.126a5.06 5.06 0 0 0-5.655 0l-.198.127c-.633.402-1.59 1.01-1.714 1.97-.044.343.007.863.508 1.4.72.766 1.463 1.137 2.27 1.137m-.032-3.388A3.57 3.57 0 0 1 13 13.742c.69 0 1.38.207 1.995.62l.18.117.044.028c.247.156.996.633 1.03.896.004.02-.025.088-.111.18-.434.459-.797.664-1.178.664h-3.92c-.38 0-.743-.205-1.174-.661-.089-.096-.119-.164-.116-.184.033-.26.765-.727 1.02-.89l.01-.006q.127-.078.226-.146zM13 11.75A2.754 2.754 0 0 1 10.25 9 2.754 2.754 0 0 1 13 6.25 2.754 2.754 0 0 1 15.75 9 2.754 2.754 0 0 1 13 11.75m0-4c-.689 0-1.25.561-1.25 1.25s.561 1.25 1.25 1.25 1.25-.561 1.25-1.25-.561-1.25-1.25-1.25" clip-rule="evenodd"/></svg>