<svg xmlns="http://www.w3.org/2000/svg" fill="none" viewBox="0 0 24 24"><path fill="currentColor" d="M16.478 2.32q.083.082.16.169a3.68 3.68 0 0 1 5.36-.17 3.677 3.677 0 0 1 .017 5.182l-.006.018a.5.5 0 0 0-.022.16.5.5 0 0 0 .028.177 3.677 3.677 0 0 1-1.936 6.196 4.165 4.165 0 0 1-7.574 2.871 3.678 3.678 0 0 1-5.111-5.112A4.165 4.165 0 0 1 9.36 4.22c.19-.017.436-.113.68-.292.242-.178.424-.397.517-.592a3.677 3.677 0 0 1 5.92-1.018" opacity=".4"/><path fill="currentColor" fill-rule="evenodd" d="M12.339 3.38a2.177 2.177 0 0 1 3.079 3.078.75.75 0 0 0 1.06 1.061 3.68 3.68 0 0 0 .955-3.54 2.177 2.177 0 1 1 3.503 2.48c-.35.35-.45.85-.45 1.22 0 .368.1.869.45 1.22a2.177 2.177 0 1 1-3.504 2.478.75.75 0 0 0-1.353.646c.175.368.415.712.718 1.015a3.66 3.66 0 0 0 1.757.98 2.665 2.665 0 0 1-5.023 1.685.972.972 0 0 0-1.563-.276 2.177 2.177 0 1 1 0-3.079.75.75 0 0 0 1.06-1.06 3.68 3.68 0 0 0-4.504-.547 2.665 2.665 0 0 1 .972-5.027c.528-.047 1.03-.28 1.433-.576.404-.297.766-.7.983-1.156q.155-.327.427-.602m4.14-1.06q.082.082.159.169a3.68 3.68 0 0 1 5.36-.17 3.677 3.677 0 0 1 .017 5.182l-.006.018a.5.5 0 0 0-.022.16.5.5 0 0 0 .028.177 3.677 3.677 0 0 1-1.936 6.196 4.165 4.165 0 0 1-7.574 2.871 3.68 3.68 0 0 1-4.09.042l-5.56 5.56a.75.75 0 0 1-1.061-1.061l5.56-5.56a3.68 3.68 0 0 1 .04-4.093A4.165 4.165 0 0 1 9.36 4.22c.19-.017.436-.113.68-.292.242-.178.424-.397.517-.592a3.677 3.677 0 0 1 5.92-1.018" clip-rule="evenodd"/></svg>