<svg xmlns="http://www.w3.org/2000/svg" fill="none" viewBox="0 0 24 24"><path fill="currentColor" d="m10.874 21.512-2.03-1.205c-.516-.306-.773-.459-1.06-.467-.308-.01-.57.137-1.127.467-.624.37-1.864 1.39-2.666.904-.491-.298-.491-1.054-.491-2.565V8c0-2.828 0-4.243.879-5.121C5.257 2 6.672 2 9.5 2h5c2.828 0 4.243 0 5.121.879.879.878.879 2.293.879 5.121v10.646c0 1.511 0 2.267-.49 2.565-.803.486-2.043-.534-2.667-.904-.515-.306-.773-.459-1.058-.467-.31-.01-.572.137-1.128.467l-2.03 1.205c-.548.325-.822.488-1.127.488s-.579-.163-1.126-.488" opacity=".4"/><path fill="currentColor" fill-rule="evenodd" d="M9.445 1.25h5.11c1.367 0 2.47 0 3.337.117.9.12 1.658.38 2.26.981.602.602.86 1.36.982 2.26.116.867.116 1.97.116 3.337v10.758c0 .707 0 1.32-.07 1.79-.072.492-.249 1.036-.782 1.36-.767.464-1.617.148-2.12-.1a8 8 0 0 1-.775-.45l-.235-.154a8 8 0 0 0-.307-.197 8 8 0 0 0-.553-.312c-.107-.05-.14-.05-.146-.05h-.002c-.012-.001-.043-.002-.143.042a6 6 0 0 0-.578.32l-2.057 1.221c-.25.15-.484.288-.694.385a1.8 1.8 0 0 1-.788.192 1.84 1.84 0 0 1-.788-.192 8 8 0 0 1-.694-.385l-2.057-1.22a8 8 0 0 0-.553-.313c-.107-.05-.14-.05-.146-.05H7.76c-.012-.001-.043-.002-.143.042a6 6 0 0 0-.578.32 8 8 0 0 0-.307.197H6.73l-.234.154c-.223.144-.491.31-.775.45-.503.248-1.354.564-2.12.1-.533-.324-.71-.868-.783-1.36-.07-.47-.069-1.083-.069-1.79V7.945c0-1.367 0-2.47.117-3.337.12-.9.38-1.658.981-2.26.602-.602 1.36-.86 2.26-.981.867-.117 1.97-.117 3.337-.117M6.308 2.853c-.734.099-1.122.28-1.399.556-.277.277-.457.665-.556 1.4C4.252 5.562 4.25 6.564 4.25 8v10.646c0 .78.002 1.28.053 1.628a1 1 0 0 0 .08.298c.044.022.22.06.676-.165.205-.1.414-.228.623-.364l.183-.12c.142-.093.29-.19.409-.26l.073-.044c.466-.278.916-.546 1.46-.529.282.009.522.09.74.194.198.093.418.223.654.363l2.056 1.22c.286.17.454.27.587.33.113.053.148.053.155.053h.002c.007 0 .042 0 .155-.052.133-.062.3-.16.587-.33l2.03-1.206.074-.043c.466-.278.916-.546 1.46-.529.282.009.522.09.74.194.198.093.418.223.654.363l.025.015c.12.071.267.168.409.262l.183.12c.209.135.418.263.623.363.457.225.632.187.675.165l.008-.014a1 1 0 0 0 .073-.284c.051-.347.053-.847.053-1.628V8c0-1.435-.002-2.437-.103-3.192-.099-.734-.28-1.122-.556-1.399-.277-.277-.665-.457-1.4-.556-.755-.101-1.756-.103-3.191-.103h-5c-1.435 0-2.437.002-3.192.103M8.47 14.53a.75.75 0 0 1 0-1.06l6-6a.75.75 0 1 1 1.06 1.06l-6 6a.75.75 0 0 1-1.06 0M9 7a1 1 0 0 0 0 2h.009a1 1 0 0 0 0-2zm5.991 6a1 1 0 1 0 0 2H15a1 1 0 1 0 0-2z" clip-rule="evenodd"/></svg>