<svg xmlns="http://www.w3.org/2000/svg" fill="none" viewBox="0 0 24 24"><path fill="currentColor" fill-rule="evenodd" d="M3 2.25a.75.75 0 0 1 .75.75v11c0 1.671.002 2.849.121 3.74.117.87.334 1.355.684 1.705s.835.567 1.704.683c.892.12 2.07.122 3.741.122h11a.75.75 0 0 1 0 1.5H9.944c-1.602 0-2.881 0-3.884-.135-1.037-.14-1.89-.435-2.565-1.11s-.97-1.528-1.11-2.565c-.135-1.003-.135-2.282-.135-3.884V3A.75.75 0 0 1 3 2.25M17 11a1 1 0 0 1 1-1h.009a1 1 0 1 1 0 2H18a1 1 0 0 1-1-1m-3 3a1 1 0 1 0 0 2h.009a1 1 0 1 0 0-2zm-3-8a1 1 0 0 1 1-1h.009a1 1 0 1 1 0 2H12a1 1 0 0 1-1-1M8 9a1 1 0 0 0 0 2h.009a1 1 0 1 0 0-2z" clip-rule="evenodd"/><path fill="currentColor" fill-rule="evenodd" d="M21.53 2.47a.75.75 0 0 1 0 1.06l-16.5 16.5a.75.75 0 0 1-1.06-1.06l16.5-16.5a.75.75 0 0 1 1.06 0" clip-rule="evenodd" opacity=".4"/></svg>