<svg xmlns="http://www.w3.org/2000/svg" fill="none" viewBox="0 0 24 24"><circle cx="12" cy="12" r="10" fill="currentColor" opacity=".4"/><path fill="currentColor" fill-rule="evenodd" d="M2.75 12a9.25 9.25 0 1 1 18.5 0 9.25 9.25 0 0 1-18.5 0M12 1.25C6.063 1.25 1.25 6.063 1.25 12S6.063 22.75 12 22.75 22.75 17.937 22.75 12 17.937 1.25 12 1.25m-5 8a.75.75 0 0 1 .75.734c.008.015.034.05.107.098.134.09.36.168.643.168.265 0 .49-.082.633-.18a.4.4 0 0 0 .118-.11.75.75 0 0 1 1.499.04c0 .593-.386 1.043-.766 1.305a2.64 2.64 0 0 1-1.484.445c-.54 0-1.063-.145-1.473-.418-.405-.269-.777-.724-.777-1.332A.75.75 0 0 1 7 9.25m.747.726.001.004zm7.363-1.762c-.209.418-.36 1.049-.36 1.786a.75.75 0 0 1-1.5 0c0-.92.185-1.79.518-2.457.312-.622.88-1.293 1.732-1.293.851 0 1.42.67 1.732 1.293.333.668.518 1.537.518 2.457a.75.75 0 0 1-1.5 0c0-.737-.151-1.368-.36-1.786a1.3 1.3 0 0 0-.29-.406.3.3 0 0 0-.096-.058h-.008l-.005.002-.01.003a.3.3 0 0 0-.08.053 1.3 1.3 0 0 0-.29.406m2.126 4.84a.75.75 0 1 0-1.206.892c.304.41.31.952-.092 1.325-.456.423-.963.442-1.612.27a9 9 0 0 1-.828-.28l-.176-.066c-.306-.113-.712-.26-1.09-.274-.672-.024-1.201.283-1.614.522l-.098.056c-.455.262-.976.546-1.812.723-.4.084-.632-.009-.751-.1a.55.55 0 0 1-.207-.451.75.75 0 0 0-1.5 0c0 .63.273 1.239.79 1.638.524.404 1.223.54 1.977.38 1.064-.224 1.744-.598 2.25-.888.534-.307.697-.389.913-.381.094.003.27.052.621.182l.152.056c.283.107.63.237.988.332.872.233 2.015.31 3.017-.619 1.074-.996.94-2.422.278-3.317" clip-rule="evenodd"/></svg>