<svg xmlns="http://www.w3.org/2000/svg" fill="none" viewBox="0 0 24 24"><path fill="currentColor" fill-rule="evenodd" d="M21.503 7.457c.613-.61.684-1.59.072-2.2C19.987 3.674 18 2.5 16 2.5c.52.303 1.404 1.73.78 5.01.789.022 1.55.159 2.285.422.857.307 1.786.175 2.438-.475m-9.898-1.54 1.037 2.119c.885 1.807.71 2.657-.66 4.038-.724.73-1.086 1.095-1.532 1.245a2 2 0 0 1-.627.104c-1.7.007-5.703-1.988-6.186-3.536-.256-.821.012-1.312.547-2.293a8.6 8.6 0 0 1 3.353-3.38c.974-.54 1.46-.81 2.275-.553.815.258 1.14.924 1.793 2.256M5.2 21.575c.612.61 1.595.539 2.208-.072.652-.65.784-1.576.476-2.43a7.4 7.4 0 0 1-.428-2.292c-.913.226-3.68.156-4.95.093.102 2.126 1.09 3.108 2.489 4.497z" clip-rule="evenodd" opacity=".4"/><path fill="currentColor" fill-rule="evenodd" d="M13.646 2.923c.825-.326 1.699-.186 2.177.33.276.296.414.547.465.851v2.007c0 1.008-.435 1.915-1.197 2.369-.405.24-.802.43-1.285.618a3.3 3.3 0 0 0-.231-.704L12.562 6.14c-.275-.613-.637-1.42-1.131-2.055a4 4 0 0 0-.178-.215zm2.211 6.846c-.645.384-1.265.65-2.045.926l-.011.043c-.13.481-.386.868-.707 1.24l-.04.042-.917.908c-.379.375-.914.896-1.639 1.12l-.128.036c-.014.797-.39 1.66-1.052 2.386a3.3 3.3 0 0 1-1.008.748l.445 2.655.009.074c.025.368-.011.712-.133 1.052-.118.332-.304.62-.523.893-.44.548-1.153.928-1.937.846-.866-.09-1.49-.493-2.2-1.22l-.04-.044c-1.458-1.75-2.067-2.787-2.177-4.415a.75.75 0 0 1 .075-.383 2.3 2.3 0 0 1-.263-.394 2.9 2.9 0 0 1-.301-1.09c-.052-.573.062-1.115.186-1.566.277-1 .504-1.752.726-2.317.213-.54.442-.968.753-1.298a2.3 2.3 0 0 1-.13-.775c.006-.582.246-1.096.56-1.602.613-1.092 1.17-1.915 1.849-2.589.685-.68 1.46-1.177 2.465-1.665.475-.255.95-.445 1.45-.479q.26-.017.495.017a1 1 0 0 1 .126-.064l3.35-1.325c1.106-.438 2.51-.403 3.52.415a.75.75 0 0 1 .64-.1c1.28.386 2.008.757 3.208 1.59 1.106.712 1.855 1.356 2.17 2.276.363 1.056-.163 2.15-.985 2.702-.556.374-1.09.463-1.71.372h-.003a100 100 0 0 1-2.696-.444l-.008-.001a3.76 3.76 0 0 1-1.374 1.43m1.866-2.867c.857.15 1.47.254 2.432.398.295.043.445.01.657-.133.368-.247.504-.675.403-.97-.139-.403-.492-.813-1.575-1.509l-.022-.015c-.769-.534-1.288-.839-1.91-1.088q.047.173.073.36a1 1 0 0 1 .007.103V6.11q0 .395-.065.791M3.331 17.582c.172.834.619 1.569 1.733 2.908.568.578.884.717 1.263.756.196.02.436-.075.61-.293a1.6 1.6 0 0 0 .282-.459 1 1 0 0 0 .05-.412l-.41-2.447a7 7 0 0 1-.944.058H4.396c-.323 0-.693-.023-1.065-.112m4.891-3.727c.202.072.418.14.645.195-.003.348-.159.861-.658 1.41-.481.528-1.302.733-2.294.733H4.396c-.538 0-.943-.086-1.212-.289a1 1 0 0 1-.292-.322c-.06-.113-.11-.273-.133-.528-.028-.3.029-.633.138-1.029.276-.998.485-1.682.676-2.167.088-.222.167-.39.238-.518 1.045.958 1.92 1.593 3.086 2 .2.07.404.151.628.242l.03.013c.21.085.437.177.667.26m-.831-1.932c-.961-.335-1.695-.868-2.8-1.906-.24-.397-.292-.612-.29-.767 0-.168.067-.398.341-.838l.018-.03c.59-1.05 1.068-1.738 1.606-2.273.532-.529 1.155-.94 2.077-1.386l.028-.015c.404-.218.662-.297.855-.31.339-.023.66.143 1.02.607.367.473.662 1.113.953 1.76l1.007 2.244q.108.237.14.445c.07.449.057.705.007.893-.048.177-.147.36-.375.629l-.896.886c-.4.396-.698.65-1.025.752a1 1 0 0 1-.241.044c-.328.013-.676-.068-1.089-.216-.2-.071-.4-.152-.617-.24l-.02-.01c-.22-.088-.458-.185-.7-.27" clip-rule="evenodd"/></svg>