<svg xmlns="http://www.w3.org/2000/svg" fill="none" viewBox="0 0 24 24"><path fill="currentColor" d="M14.544 7.5H4.512c-.946 0-1.418 0-1.712.29l5.015-5c.294-.29.766-.29 1.712-.29h10.03c.947 0 1.419 0 1.713.29.294.3.294.77.294 1.71v10c0 .94 0 1.41-.294 1.71l-5.015 5c.293-.3.294-.77.294-1.71v-10c0-.94 0-1.41-.294-1.71-.294-.29-.767-.29-1.713-.29" opacity=".4"/><path fill="currentColor" fill-rule="evenodd" d="M3.182 22.186c.361.063.793.063 1.331.063h10.03v.001h.001c1.078 0 1.728 0 2.242-.507l.009-.009.035-.037 4.979-4.964c.507-.519.507-1.164.507-2.234v-10c0-1.068 0-1.713-.505-2.23l-.003-.004-.007-.007-.002-.002c-.514-.506-1.164-.506-2.24-.506H9.529c-1.078 0-1.728 0-2.244.51L2.3 7.23l-.03.028-.009.009c-.507.519-.507 1.164-.507 2.234v10c0 1.069 0 1.715.507 2.233l.002.002.007.007c.258.254.55.38.911.444m14.12-3.081 3.438-3.427c.073-.075.073-.688.073-1.18V4.306L17.18 7.927c.097.328.116.715.12 1.2l.001.372m0 .001v9.605zm-1.579 11.178c-.117.071-.68.071-1.18.071H4.328v-.001L8.96 16.13c.407.118.909.118 1.573.118h3.51a.75.75 0 0 0 .752-.75.75.75 0 0 0-.752-.75h-3.51c-.499 0-1.065 0-1.18-.07-.074-.105-.074-.7-.074-1.18v-3a.751.751 0 0 0-1.505 0v3c0 .664 0 1.164.122 1.572L3.26 19.691V9.499c0-.48 0-1.075.075-1.179.117-.071.68-.071 1.18-.071h10.03c.498 0 1.063 0 1.18.071.073.104.074.699.074 1.179v10c0 .48 0 1.075-.075 1.179m-1.18-13.929H4.909l3.437-3.427c.11-.073.68-.073 1.184-.073h10.217l-3.63 3.618c-.407-.118-.908-.118-1.572-.118" clip-rule="evenodd"/></svg>