<svg xmlns="http://www.w3.org/2000/svg" fill="none" viewBox="0 0 24 24"><path fill="currentColor" fill-rule="evenodd" d="M3 3v11.625c1.148-.077 2.141-.29 3-.61 3.88-1.44 6-6.8 6-11.015zm9 0c0 4.214 2.12 9.575 6 11.015.859.32 1.852.533 3 .61V3z" clip-rule="evenodd" opacity=".4"/><path fill="currentColor" fill-rule="evenodd" d="M2 3.75h.25V16.8c0 .96 0 1.75.08 2.376.082.654.262 1.24.71 1.716.453.481 1.023.682 1.66.773.597.085 1.35.085 2.245.085H8a.75.75 0 0 0 .75-.75c0-.789-.106-2.076-.42-3.438-.244-1.065-.626-2.222-1.215-3.229 1.757-.938 3.092-2.597 4.012-4.452.345-.695.636-1.428.873-2.176.236.748.528 1.48.873 2.176.92 1.855 2.255 3.514 4.012 4.452-.589 1.007-.97 2.164-1.216 3.23-.313 1.361-.419 2.648-.419 3.437 0 .414.336.75.75.75h1.055c.896 0 1.648 0 2.246-.085.636-.091 1.206-.292 1.66-.773.447-.476.627-1.062.71-1.716.079-.626.079-1.417.079-2.376V3.75H22a.75.75 0 0 0 0-1.5H2a.75.75 0 1 0 0 1.5m18.25 0v10.047a11 11 0 0 1-.56-.091.8.8 0 0 0-.117-.19c-.523-.617-1.611-2.377-1.826-4.589a.75.75 0 0 0-1.494.146c.147 1.51.637 2.834 1.153 3.833-1.31-.764-2.39-2.08-3.19-3.691a14.6 14.6 0 0 1-1.443-5.465zm-9.023 0H3.75v10.047q.288-.04.56-.091a.8.8 0 0 1 .117-.19c.522-.617 1.611-2.377 1.827-4.589a.75.75 0 0 1 1.492.146c-.146 1.51-.636 2.834-1.152 3.833 1.31-.764 2.39-2.08 3.19-3.691a14.6 14.6 0 0 0 1.443-5.465m-5.52 11.155a11.3 11.3 0 0 1-1.957.404v1.441c0 1.022.001 1.717.067 2.238.064.503.176.728.315.876.132.14.327.251.78.316.479.068 1.123.07 2.088.07h.22a16 16 0 0 0-.35-2.352c-.247-1.068-.622-2.138-1.162-2.993m14.543.404a11.3 11.3 0 0 1-1.958-.404c-.54.855-.915 1.925-1.161 2.993-.2.867-.305 1.697-.352 2.352H17c.965 0 1.61-.002 2.089-.07.452-.065.646-.176.78-.316.138-.148.25-.373.314-.876.066-.521.067-1.216.067-2.238z" clip-rule="evenodd"/></svg>