<svg xmlns="http://www.w3.org/2000/svg" fill="none" viewBox="0 0 24 24"><path fill="currentColor" fill-rule="evenodd" d="M16.152 3.235C16 3.602 16 4.068 16 5v4c0 .932 0 1.398.152 1.765a2 2 0 0 0 1.083 1.083C17.602 12 18.068 12 19 12s1.398 0 1.765-.152a2 2 0 0 0 1.083-1.083C22 10.398 22 9.932 22 9V5c0-.932 0-1.398-.152-1.765a2 2 0 0 0-1.083-1.083C20.398 2 19.932 2 19 2s-1.398 0-1.765.152a2 2 0 0 0-1.083 1.083m-13.566 9.35C2 13.173 2 14.116 2 16v2c0 1.886 0 2.828.586 3.414S4.114 22 6 22h2c1.886 0 2.828 0 3.414-.586S12 19.886 12 18v-2c0-1.886 0-2.828-.586-3.414S9.886 12 8 12H6c-1.886 0-2.828 0-3.414.586" clip-rule="evenodd" opacity=".4"/><path fill="currentColor" fill-rule="evenodd" d="M19.025 1.25h-.05c-.445 0-.816 0-1.12.02a2.8 2.8 0 0 0-.907.19 2.75 2.75 0 0 0-1.489 1.488c-.12.29-.167.59-.188.907-.021.304-.021.675-.021 1.12v4.05c0 .445 0 .816.02 1.12.022.318.069.617.19.907a2.75 2.75 0 0 0 1.488 1.489c.29.12.59.167.907.188.304.021.675.021 1.12.021h.05c.445 0 .816 0 1.12-.02.317-.022.617-.069.907-.19a2.75 2.75 0 0 0 1.489-1.488c.12-.29.167-.59.188-.907.021-.304.021-.675.021-1.12v-4.05c0-.445 0-.816-.02-1.12a2.8 2.8 0 0 0-.19-.907 2.75 2.75 0 0 0-1.488-1.489c-.29-.12-.59-.167-.907-.188-.304-.021-.675-.021-1.12-.021m-1.503 1.595c.077-.032.194-.061.435-.078.247-.017.567-.017 1.043-.017s.796 0 1.043.017c.241.017.358.046.435.078.307.127.55.37.677.677.032.077.061.194.078.435.017.247.017.567.017 1.043v4c0 .476 0 .796-.017 1.043-.017.241-.046.358-.078.435a1.25 1.25 0 0 1-.677.677c-.077.032-.194.061-.435.078-.247.017-.567.017-1.043.017s-.796 0-1.043-.017c-.241-.017-.358-.046-.435-.078a1.25 1.25 0 0 1-.677-.677c-.032-.077-.061-.194-.078-.435A17 17 0 0 1 16.75 9V5c0-.476 0-.796.017-1.043.017-.241.046-.358.078-.435.127-.307.37-.55.677-.677m1.503 12.405h-.05c-.445 0-.816 0-1.12.02a2.8 2.8 0 0 0-.907.19 2.75 2.75 0 0 0-1.489 1.488c-.12.29-.167.59-.188.907-.021.304-.021.675-.021 1.12v.05c0 .445 0 .816.02 1.12.022.317.069.617.19.907a2.75 2.75 0 0 0 1.488 1.489c.29.12.59.167.907.188.304.021.675.021 1.12.021h.05c.445 0 .816 0 1.12-.02.317-.022.617-.069.907-.19a2.75 2.75 0 0 0 1.489-1.488c.12-.29.167-.59.188-.907.021-.304.021-.675.021-1.12v-.05c0-.445 0-.816-.02-1.12a2.8 2.8 0 0 0-.19-.907 2.75 2.75 0 0 0-1.488-1.489c-.29-.12-.59-.167-.907-.188-.304-.021-.675-.021-1.12-.021m-1.503 1.595c.077-.032.194-.061.435-.078.247-.017.567-.017 1.043-.017s.796 0 1.043.017c.241.017.358.046.435.078.307.127.55.37.677.677.032.077.061.194.078.435.017.247.017.567.017 1.043s0 .796-.017 1.043c-.017.241-.046.358-.078.435a1.25 1.25 0 0 1-.677.677c-.077.032-.194.061-.435.078-.247.017-.567.017-1.043.017s-.796 0-1.043-.017c-.241-.017-.358-.046-.435-.078a1.25 1.25 0 0 1-.677-.677c-.032-.077-.061-.194-.078-.435A17 17 0 0 1 16.75 19c0-.476 0-.796.017-1.043.017-.241.046-.358.078-.435.127-.307.37-.55.677-.677M5.948 11.25h2.104c.898 0 1.648 0 2.242.08.628.084 1.195.27 1.65.726.456.455.642 1.022.726 1.65.08.594.08 1.344.08 2.242v2.104c0 .899 0 1.648-.08 2.242-.084.628-.27 1.195-.726 1.65-.455.456-1.022.642-1.65.726-.594.08-1.343.08-2.242.08H5.948c-.899 0-1.648 0-2.242-.08-.628-.084-1.195-.27-1.65-.726-.456-.455-.642-1.022-.726-1.65-.08-.594-.08-1.343-.08-2.242v-2.104c0-.899 0-1.648.08-2.242.084-.628.27-1.195.725-1.65.456-.456 1.023-.642 1.65-.726.595-.08 1.345-.08 2.243-.08m-2.043 1.566c-.461.063-.659.17-.789.3s-.237.328-.3.79c-.064.482-.066 1.13-.066 2.094v2c0 .964.002 1.612.067 2.095.062.461.169.659.3.789s.327.237.788.3c.483.064 1.131.066 2.095.066h2c.964 0 1.612-.002 2.095-.067.461-.062.659-.169.789-.3s.237-.327.3-.788c.064-.483.066-1.131.066-2.095v-2c0-.964-.002-1.612-.066-2.095-.063-.461-.17-.659-.3-.789s-.328-.237-.79-.3c-.482-.064-1.13-.066-2.094-.066H6c-.964 0-1.612.002-2.095.066M9.025 1.25h-4.05c-.445 0-.816 0-1.12.02a2.8 2.8 0 0 0-.907.19 2.75 2.75 0 0 0-1.489 1.488c-.12.29-.167.59-.188.907-.021.304-.021.675-.021 1.12v.05c0 .445 0 .816.02 1.12.022.317.07.617.19.907a2.75 2.75 0 0 0 1.488 1.489c.29.12.59.167.907.188.304.021.675.021 1.12.021h4.05c.445 0 .816 0 1.12-.02.318-.022.617-.07.907-.19a2.75 2.75 0 0 0 1.489-1.488c.12-.29.167-.59.188-.907.021-.304.021-.675.021-1.12v-.05c0-.445 0-.816-.02-1.12a2.8 2.8 0 0 0-.19-.907 2.75 2.75 0 0 0-1.488-1.489c-.29-.12-.59-.167-.907-.188-.304-.021-.675-.021-1.12-.021M3.522 2.845c.077-.032.194-.061.435-.078A17 17 0 0 1 5 2.75h4c.476 0 .796 0 1.043.017.241.017.358.046.435.078.307.127.55.37.677.677.032.077.061.194.078.435.017.247.017.567.017 1.043s0 .796-.017 1.043c-.017.241-.046.358-.078.435a1.25 1.25 0 0 1-.677.677c-.077.032-.194.061-.435.078-.247.017-.567.017-1.043.017H5c-.476 0-.796 0-1.043-.017-.241-.017-.358-.046-.435-.078a1.25 1.25 0 0 1-.677-.677c-.032-.077-.061-.194-.078-.435A17 17 0 0 1 2.75 5c0-.476 0-.796.017-1.043.017-.241.046-.358.078-.435.127-.307.37-.55.677-.677" clip-rule="evenodd"/></svg>