<svg xmlns="http://www.w3.org/2000/svg" fill="none" viewBox="0 0 24 24"><path fill="currentColor" fill-rule="evenodd" d="M2.586 2.586C2 3.172 2 4.114 2 6v2c0 1.886 0 2.828.586 3.414S4.114 12 6 12s2.828 0 3.414-.586S10 9.886 10 8V6c0-1.886 0-2.828-.586-3.414S7.886 2 6 2s-2.828 0-3.414.586m12 10C14 13.172 14 14.114 14 16v2c0 1.886 0 2.828.586 3.414S16.114 22 18 22s2.828 0 3.414-.586S22 19.886 22 18v-2c0-1.886 0-2.828-.586-3.414S19.886 12 18 12s-2.828 0-3.414.586" clip-rule="evenodd" opacity=".4"/><path fill="currentColor" fill-rule="evenodd" d="M6.052 1.25h-.104c-.898 0-1.648 0-2.242.08-.628.084-1.195.27-1.65.725-.456.456-.642 1.023-.726 1.65-.08.595-.08 1.345-.08 2.243v2.104c0 .899 0 1.648.08 2.242.084.628.27 1.195.725 1.65.456.456 1.023.642 1.65.726.595.08 1.345.08 2.243.08h.104c.899 0 1.648 0 2.242-.08.628-.084 1.195-.27 1.65-.726.456-.455.642-1.022.726-1.65.08-.594.08-1.344.08-2.242V5.948c0-.898 0-1.648-.08-2.242-.084-.628-.27-1.195-.725-1.65-.456-.456-1.023-.642-1.65-.726-.595-.08-1.344-.08-2.243-.08M3.116 3.116c.13-.13.328-.237.79-.3.482-.064 1.13-.066 2.094-.066s1.612.002 2.095.067c.461.062.659.169.789.3s.237.327.3.788c.064.483.066 1.131.066 2.095v2c0 .964-.002 1.612-.067 2.095-.062.461-.169.659-.3.789s-.327.237-.788.3c-.483.064-1.131.066-2.095.066s-1.612-.002-2.095-.066c-.461-.063-.659-.17-.789-.3s-.237-.328-.3-.79C2.753 9.613 2.75 8.965 2.75 8V6c0-.964.002-1.612.067-2.095.062-.461.169-.659.3-.789m3.91 12.134H4.974c-.445 0-.816 0-1.12.02a2.8 2.8 0 0 0-.907.19 2.75 2.75 0 0 0-1.489 1.488c-.12.29-.167.59-.188.907-.021.304-.021.675-.021 1.12v.05c0 .445 0 .816.02 1.12.022.317.07.617.19.907a2.75 2.75 0 0 0 1.488 1.489c.29.12.59.167.907.188.304.021.675.021 1.12.021h2.05c.445 0 .816 0 1.12-.02.317-.022.617-.069.907-.19a2.75 2.75 0 0 0 1.489-1.488c.12-.29.167-.59.188-.907.021-.304.021-.675.021-1.12v-.05c0-.445 0-.816-.02-1.12a2.8 2.8 0 0 0-.19-.907 2.75 2.75 0 0 0-1.488-1.489c-.29-.12-.59-.167-.907-.188-.304-.021-.675-.021-1.12-.021M3.52 16.845c.077-.032.194-.061.435-.078A17 17 0 0 1 5 16.75h2c.476 0 .796 0 1.043.017.241.017.358.046.435.078.307.127.55.37.677.677.032.077.061.194.078.435.017.247.017.567.017 1.043s0 .796-.017 1.043c-.017.241-.046.358-.078.435a1.25 1.25 0 0 1-.677.677c-.077.032-.194.061-.435.078A17 17 0 0 1 7 21.25H5c-.476 0-.796 0-1.043-.017-.241-.017-.358-.046-.435-.078a1.25 1.25 0 0 1-.677-.677c-.032-.077-.061-.194-.078-.435A17 17 0 0 1 2.75 19c0-.476 0-.796.017-1.043.017-.241.046-.358.078-.435.127-.307.37-.55.677-.677m14.426-5.595h.104c.899 0 1.648 0 2.242.08.628.084 1.195.27 1.65.726.456.455.642 1.022.726 1.65.08.594.08 1.344.08 2.242v2.104c0 .899 0 1.648-.08 2.242-.084.628-.27 1.195-.726 1.65-.455.456-1.022.642-1.65.726-.594.08-1.343.08-2.242.08h-.104c-.899 0-1.648 0-2.242-.08-.628-.084-1.195-.27-1.65-.726-.456-.455-.642-1.022-.726-1.65-.08-.594-.08-1.343-.08-2.242v-2.104c0-.899 0-1.648.08-2.242.084-.628.27-1.195.726-1.65.455-.456 1.022-.642 1.65-.726.594-.08 1.343-.08 2.242-.08m-2.043 1.566c-.461.063-.659.17-.789.3s-.237.328-.3.79c-.064.482-.066 1.13-.066 2.094v2c0 .964.002 1.612.066 2.095.063.461.17.659.3.789s.328.237.79.3c.482.064 1.13.066 2.094.066s1.612-.002 2.095-.067c.461-.062.659-.169.789-.3s.237-.327.3-.788c.064-.483.066-1.131.066-2.095v-2c0-.964-.002-1.612-.067-2.095-.062-.461-.169-.659-.3-.789s-.327-.237-.788-.3c-.483-.064-1.131-.066-2.095-.066s-1.612.002-2.095.066m3.12-11.566h-2.05c-.445 0-.816 0-1.12.02a2.8 2.8 0 0 0-.907.19 2.75 2.75 0 0 0-1.489 1.488c-.12.29-.167.59-.188.907-.021.304-.021.675-.021 1.12v.05c0 .445 0 .816.02 1.12.022.317.069.617.19.907a2.75 2.75 0 0 0 1.488 1.489c.29.12.59.167.907.188.304.021.675.021 1.12.021h2.05c.445 0 .816 0 1.12-.02a2.8 2.8 0 0 0 .907-.19 2.75 2.75 0 0 0 1.489-1.488c.12-.29.167-.59.188-.907.021-.304.021-.675.021-1.12v-.05c0-.445 0-.816-.02-1.12a2.8 2.8 0 0 0-.19-.907 2.75 2.75 0 0 0-1.488-1.489c-.29-.12-.59-.167-.907-.188-.304-.021-.675-.021-1.12-.021m-3.503 1.595c.077-.032.194-.061.435-.078.247-.017.567-.017 1.043-.017h2c.476 0 .796 0 1.043.017.241.017.358.046.435.078.307.127.55.37.677.677.032.077.061.194.078.435.017.247.017.567.017 1.043s0 .796-.017 1.043c-.017.241-.046.358-.078.435a1.25 1.25 0 0 1-.677.677c-.077.032-.194.061-.435.078-.247.017-.567.017-1.043.017h-2c-.476 0-.796 0-1.043-.017-.241-.017-.358-.046-.435-.078a1.25 1.25 0 0 1-.677-.677c-.032-.077-.061-.194-.078-.435A17 17 0 0 1 14.75 5c0-.476 0-.796.017-1.043.017-.241.046-.358.078-.435.127-.307.37-.55.677-.677" clip-rule="evenodd"/></svg>