<svg xmlns="http://www.w3.org/2000/svg" fill="none" viewBox="0 0 24 24"><path fill="currentColor" d="M2.19 13.647V8.22h20v5.428c0 4.041 0 6.061-1.301 7.316-1.302 1.256-3.397 1.256-7.587 1.256H11.08c-4.19 0-6.286 0-7.588-1.256-1.301-1.255-1.301-3.275-1.301-7.316" opacity=".4"/><path fill="currentColor" fill-rule="evenodd" d="M5.443 3.347c.241-.162.542-.264 1.053-.32.53-.057 1.209-.058 2.195-.058h2.75v4.5H3.315l.528-1.27c.38-.91.642-1.536.899-2.003.248-.45.458-.688.7-.85m3.206-1.878h7.083c.934 0 1.696 0 2.315.067.648.07 1.21.22 1.724.563s.868.804 1.182 1.374c.3.546.593 1.248.952 2.11l.016.04.951 2.281a.75.75 0 0 1 .069.315v4.517a.75.75 0 0 1-1.5 0V8.969H2.942v8.415c0 .98.195 1.693.484 2.217.286.52.688.894 1.17 1.168.993.565 2.31.696 3.54.696h10.822c.322 0 .985-.09 1.54-.42.508-.303.943-.809.943-1.772 0-.98-.379-1.527-.827-1.851-.484-.35-1.12-.488-1.644-.479h-1.632l.829.674a.75.75 0 0 1-.947 1.164l-1.7-1.384-.01-.008-.007-.006a1.543 1.543 0 0 1-.004-2.335l.012-.01 1.702-1.421a.75.75 0 0 1 .96 1.151l-.807.675h1.586c.755-.011 1.731.178 2.542.764.849.614 1.447 1.619 1.447 3.066 0 1.556-.77 2.521-1.674 3.06-.857.51-1.81.632-2.31.632H8.138c-1.275 0-2.93-.123-4.283-.892a4.5 4.5 0 0 1-1.742-1.748c-.434-.788-.67-1.76-.67-2.941V8.272a.75.75 0 0 1 .056-.342l.962-2.307.016-.039c.36-.862.652-1.565.953-2.111.313-.57.668-1.032 1.182-1.374s1.076-.492 1.723-.563c.62-.067 1.38-.067 2.315-.067m4.291 6v-4.5h2.75c.986 0 1.666 0 2.195.058.511.056.812.158 1.054.32.241.16.452.399.7.85.256.466.519 1.093.898 2.003l.529 1.269zm-2.75 4a.75.75 0 1 0 0 1.5h4a.75.75 0 0 0 0-1.5z" clip-rule="evenodd"/></svg>