<svg xmlns="http://www.w3.org/2000/svg" fill="none" viewBox="0 0 24 24"><path fill="currentColor" d="M3 7.5v5.04c0 3.753 0 5.629 1.172 6.794S7.229 20.5 11 20.5h2c1.682 0 2.99 0 4.026-.104-.47-.63-1.035-1.266-1.526-1.701-1-.887-1.5-1.879-1.5-3.155 0-2.231 1.79-4.04 4-4.04 1.195 0 2.267.529 3 1.368V7.5z" opacity=".4"/><path fill="currentColor" fill-rule="evenodd" d="M3.768 1.75h16.464c.346 0 .66 0 .918.026.277.028.578.092.856.282.224.152.41.355.543.592.165.295.2.603.201.88 0 .258-.03.567-.065.907l-.007.069c-.06.586-.11 1.077-.188 1.475-.083.418-.21.803-.466 1.147q-.126.17-.276.319l.002.053V9a.75.75 0 0 1-1.5 0v-.818a5 5 0 0 1-.25.03c-.409.038-.908.038-1.505.038H5.505c-.597 0-1.097 0-1.504-.038a5 5 0 0 1-.251-.03v4.359c0 1.897.002 3.244.14 4.266.135 1 .388 1.575.81 1.996.424.42 1.004.673 2.01.808 1.028.137 2.383.139 4.29.139h1.5a.75.75 0 0 1 0 1.5h-1.556c-1.838 0-3.294 0-4.433-.152-1.171-.157-2.12-.487-2.868-1.232-.75-.745-1.082-1.69-1.24-2.858-.153-1.134-.153-2.583-.153-4.41V7.5q0-.027.002-.053a3 3 0 0 1-.276-.319c-.256-.344-.383-.729-.466-1.147-.079-.398-.128-.89-.188-1.475L1.32 4.47l-.004-.034a10 10 0 0 1-.065-.907c0-.277.036-.585.201-.88a1.75 1.75 0 0 1 .543-.592c.278-.19.58-.254.856-.282.258-.026.572-.026.918-.026m-.932 1.549A.7.7 0 0 1 3 3.269c.174-.018.411-.019.802-.019h16.396c.39 0 .628 0 .802.018a.7.7 0 0 1 .164.03q.046.034.073.08a.7.7 0 0 1 .013.155c0 .17-.022.402-.061.787-.064.63-.107 1.05-.17 1.37-.061.306-.129.45-.2.545a1.3 1.3 0 0 1-.38.34c-.106.062-.26.114-.579.144-.33.03-.759.031-1.4.031H5.54c-.641 0-1.07 0-1.4-.031-.319-.03-.473-.082-.579-.144a1.3 1.3 0 0 1-.38-.34c-.071-.096-.138-.239-.2-.546-.063-.32-.106-.74-.17-1.37a9 9 0 0 1-.061-.786c0-.1.009-.142.013-.155a.3.3 0 0 1 .073-.08M14.75 15.54c0-1.824 1.462-3.29 3.25-3.29s3.25 1.466 3.25 3.29c0 1.033-.386 1.83-1.247 2.593-.685.607-1.445 1.55-1.998 2.35-.551-.827-1.332-1.751-2.008-2.35-.861-.764-1.247-1.56-1.247-2.593M18 10.75c-2.63 0-4.75 2.152-4.75 4.79 0 1.52.614 2.707 1.753 3.716.644.57 1.451 1.55 1.928 2.332.191.314.542.662 1.062.662.512 0 .865-.338 1.063-.642.52-.795 1.306-1.789 1.941-2.352 1.139-1.009 1.753-2.197 1.753-3.716 0-2.638-2.12-4.79-4.75-4.79m-1 4.75a1 1 0 0 1 1-1h.009a1 1 0 1 1 0 2H18a1 1 0 0 1-1-1m-7-5.75a.75.75 0 0 0 0 1.5h2a.75.75 0 0 0 0-1.5z" clip-rule="evenodd"/></svg>