<svg xmlns="http://www.w3.org/2000/svg" fill="none" viewBox="0 0 24 24"><path fill="currentColor" fill-rule="evenodd" d="M21.004 17a5 5 0 0 1 0-10V3a9 9 0 1 0 0 18zM3.5 8h5.462c-.483 4-5.44 4-5.924 0z" clip-rule="evenodd" opacity=".4"/><path fill="currentColor" fill-rule="evenodd" d="M6.75 11.673V21a.75.75 0 0 1-1.5 0v-9.327a3.55 3.55 0 0 1-1.863-1.075C2.643 9.793 2.25 8.67 2.25 7.35V3a.75.75 0 0 1 1.5 0v4.25h1.5V3a.75.75 0 0 1 1.5 0v4.25h1.5V3a.75.75 0 0 1 1.5 0v4.35c0 1.32-.393 2.444-1.137 3.248a3.55 3.55 0 0 1-1.863 1.075M8 8.75H4c.32.831.955 1.477 1.941 1.502a1 1 0 0 1 .118 0C7.045 10.227 7.68 9.582 8 8.75m13 13c-5.376 0-9.75-4.374-9.75-9.75S15.624 2.25 21 2.25a.75.75 0 0 1 0 1.5c-4.549 0-8.25 3.701-8.25 8.25s3.701 8.25 8.25 8.25a.75.75 0 0 1 0 1.5m0-4A5.756 5.756 0 0 1 15.25 12 5.756 5.756 0 0 1 21 6.25a.75.75 0 0 1 0 1.5A4.255 4.255 0 0 0 16.75 12 4.255 4.255 0 0 0 21 16.25a.75.75 0 0 1 0 1.5" clip-rule="evenodd"/></svg>