<svg xmlns="http://www.w3.org/2000/svg" fill="none" viewBox="0 0 24 24"><path fill="currentColor" fill-rule="evenodd" d="M12 8a2.5 2.5 0 1 0 0-5 2.5 2.5 0 0 0 0 5m0 13a2.5 2.5 0 1 0 0-5 2.5 2.5 0 0 0 0 5" clip-rule="evenodd" opacity=".4"/><path fill="currentColor" fill-rule="evenodd" d="M12 3.75a1.75 1.75 0 1 0 0 3.5 1.75 1.75 0 0 0 0-3.5M8.75 5.5a3.25 3.25 0 1 1 6.5 0 3.25 3.25 0 0 1-6.5 0M2.25 12a.75.75 0 0 1 .75-.75h18a.75.75 0 0 1 0 1.5H3a.75.75 0 0 1-.75-.75m8 6.5a1.75 1.75 0 1 1 3.5 0 1.75 1.75 0 0 1-3.5 0M12 15.25a3.25 3.25 0 1 0 0 6.5 3.25 3.25 0 0 0 0-6.5" clip-rule="evenodd"/></svg>