<svg xmlns="http://www.w3.org/2000/svg" fill="none" viewBox="0 0 24 24"><path fill="currentColor" fill-rule="evenodd" d="M11.9 21.828c5.1 0 9.308-3.817 9.923-8.75a15.5 15.5 0 0 0-2.776-.25c-5.352 0-10.112 2.743-13.147 7l-.005-.003a9.96 9.96 0 0 0 6.005 2.003m0-20c-5.041 0-9.211 3.73-9.9 8.582a17.5 17.5 0 0 0 3.81.418c5.258 0 9.96-2.332 13.09-6-1.81-1.812-4.237-3-7-3" clip-rule="evenodd" opacity=".4"/><path fill="currentColor" fill-rule="evenodd" d="M1.25 12c0 5.928 4.822 10.75 10.75 10.75S22.75 17.928 22.75 12 17.928 1.25 12 1.25 1.25 6.072 1.25 12m1.5 0q0-.26.014-.517c1.028.18 2.083.27 3.145.27v-.001a18.1 18.1 0 0 0 6.571-1.23c.424.878.776 1.79 1.051 2.727q-1.117.413-2.185.995c-2.087 1.134-3.967 2.742-5.477 4.677A9.23 9.23 0 0 1 2.75 12m11.144 2.71c-2.625.997-4.978 2.742-6.827 5.112a9.25 9.25 0 0 0 6.966 1.203c.144-.916.216-1.85.216-2.785 0-1.197-.12-2.378-.355-3.53m1.722 5.804a19.2 19.2 0 0 0-.286-6.266 14.8 14.8 0 0 1 5.73-.376 9.29 9.29 0 0 1-5.444 6.642m-.655-7.72a19 19 0 0 0-1.106-2.874 17.8 17.8 0 0 0 5.218-3.874 9.2 9.2 0 0 1 2.17 6.338 17 17 0 0 0-2.096-.134c-1.431 0-2.83.182-4.186.545m-1.807-4.2a16.3 16.3 0 0 0 4.863-3.614A9.2 9.2 0 0 0 12 2.75a9.2 9.2 0 0 0-3.29.604 19.4 19.4 0 0 1 4.444 5.24m-5.936-4.51a9.28 9.28 0 0 0-4.25 5.911 16.8 16.8 0 0 0 8.798-.804 17.9 17.9 0 0 0-4.548-5.106" clip-rule="evenodd"/></svg>