<svg xmlns="http://www.w3.org/2000/svg" fill="none" viewBox="0 0 24 24"><path fill="currentColor" fill-rule="evenodd" d="m12 6.273 2.337-2.113c.823-.744 1.235-1.117 1.74-1.157.503-.04.965.264 1.888.872l1.673 1.1c.897.59 1.345.884 1.362 1.322.016.439-.41.768-1.26 1.427L17.565 9.41l2.175 1.685c.85.66 1.276.99 1.26 1.427s-.465.733-1.362 1.323l-1.673 1.1c-.923.607-1.385.91-1.889.871s-.916-.412-1.74-1.157L12 12.547 8.865 15.38c-.44.397-.659.596-.928.617-.268.021-.515-.14-1.007-.464l-2.568-1.689c-.897-.59-1.345-.885-1.362-1.323-.016-.438.41-.768 1.26-1.427L6.435 9.41 4.26 7.724C3.41 7.065 2.984 6.736 3 6.297c.017-.438.465-.733 1.362-1.322l1.673-1.1c.923-.608 1.385-.911 1.889-.872s.916.413 1.74 1.157zM17.5 9.5l-5.5-3-5.5 3 5.5 3z" clip-rule="evenodd" opacity=".4"/><path fill="currentColor" fill-rule="evenodd" d="M6.75 16.312c.15.097.296.186.432.254.224.112.493.205.814.18s.572-.16.776-.304c.18-.128.373-.303.57-.482L12 13.558l1.864 1.685c.386.349.723.654 1.028.87.329.234.687.416 1.125.45.439.035.821-.089 1.182-.269l.051-.026v.531c0 .502-.052.658-.1.738-.046.076-.155.194-.596.419l-4 2.04a6 6 0 0 1-.464.223c-.102.046-.163.02-.18 0a6 6 0 0 1-.464-.223l-4-2.04c-.44-.225-.55-.343-.596-.42-.048-.079-.1-.236-.1-.737zm12-.985v1.472c0 .532-.04 1.053-.314 1.51-.277.46-.72.738-1.2.983l-4 2.04c-.212.108-.411.21-.59.28a1.7 1.7 0 0 1-.646.138 1.7 1.7 0 0 1-.646-.137 8 8 0 0 1-.59-.28l-4-2.04c-.48-.246-.923-.523-1.2-.984-.274-.457-.314-.978-.314-1.51v-1.472l-1.343-.884c-.411-.27-.787-.517-1.056-.757-.292-.261-.58-.621-.6-1.136s.242-.895.513-1.178c.25-.26.606-.536.996-.838L5.21 9.41 3.76 8.285c-.39-.302-.747-.578-.996-.838-.271-.283-.532-.663-.513-1.177.02-.515.308-.875.6-1.136.269-.24.645-.487 1.056-.758l1.75-1.15c.432-.285.81-.533 1.144-.7.361-.18.743-.305 1.182-.27s.796.216 1.125.45c.305.217.642.522 1.028.87L12 5.262l1.864-1.686c.386-.348.723-.653 1.028-.87.329-.234.687-.416 1.125-.45.439-.035.821.09 1.182.27.334.167.712.415 1.144.7l1.75 1.15c.411.27.788.518 1.056.758.292.26.58.62.6 1.136.02.514-.242.894-.513 1.177-.25.26-.606.536-.995.838L18.79 9.41l1.45 1.124c.39.302.747.579.996.838.271.283.532.664.513 1.178-.02.515-.308.875-.6 1.136-.268.24-.645.487-1.056.757zm-1.215-4.992-4.28 2.335 1.585 1.433c.425.385.696.628.921.788.209.149.308.172.374.178.066.005.166-.003.393-.117.245-.122.548-.32 1.025-.634l1.673-1.1c.469-.308.748-.494.923-.65q.052-.046.077-.075a1 1 0 0 0-.072-.082c-.163-.17-.429-.378-.873-.723zM8.066 9.5 12 7.354 15.934 9.5 12 11.646zM3.851 6.252l3.621-2.385c.227-.113.328-.121.393-.116.066.005.165.03.374.178l2.63 2.333L6.603 8.59 3.846 6.41c-.077-.076-.029-.136.005-.157m6.894 6.418-2.383 2.155c-.305.293-.873.23-1.02.082l-3.491-2.34c-.087-.072-.04-.134-.005-.156l2.62-2.076zm2.385-6.408 4.268 2.328 2.756-2.181c.062-.061.023-.13-.005-.157l-3.62-2.385c-.228-.113-.328-.121-.394-.116s-.165.03-.374.178z" clip-rule="evenodd"/></svg>