<svg xmlns="http://www.w3.org/2000/svg" fill="none" viewBox="0 0 24 24"><path fill="currentColor" fill-rule="evenodd" d="M20.076 4.132c-.119.07-.23.191-.454.434l-2.785 3.017c-.363.394-.545.59-.65.832-.105.243-.126.512-.168 1.05l-.008.105c-.015.191-.022.287.032.349.055.062.149.064.337.07l.084.002c.617.016.926.024 1.206-.086.281-.11.506-.326.955-.759l2.821-2.717c.237-.228.356-.342.425-.464a.99.99 0 0 0 .014-.95c-.066-.124-.181-.242-.412-.477-.23-.236-.345-.353-.466-.42a.93.93 0 0 0-.93.014M4.752 15.539q.239-.133.428-.243a9.61 9.61 0 0 1 9.64 0q.19.111.428.243c1.433.798 3.927 2.187 2.118 3.883-.98.92-2.073 1.578-3.447 1.578H6.081c-1.374 0-2.467-.658-3.448-1.578-1.808-1.696.686-3.085 2.119-3.883" clip-rule="evenodd" opacity=".4"/><path fill="currentColor" fill-rule="evenodd" d="M10 3.75a3.25 3.25 0 1 0 0 6.5 3.25 3.25 0 0 0 0-6.5M5.25 7a4.75 4.75 0 1 1 9.5 0 4.75 4.75 0 0 1-9.5 0m9.19 8.943c-2.714-1.59-6.166-1.59-8.88 0q-.231.134-.492.279c-.632.353-1.359.76-1.865 1.247-.315.304-.432.539-.45.7-.013.114.006.342.394.706.912.855 1.829 1.375 2.934 1.375h7.838c1.105 0 2.023-.52 2.935-1.375.387-.364.406-.592.393-.706-.017-.161-.134-.396-.45-.7-.506-.488-1.232-.894-1.865-1.247q-.261-.146-.491-.279M4.802 14.65c3.183-1.865 7.215-1.865 10.398 0q.154.09.37.208c.632.352 1.604.891 2.27 1.532.415.4.825.941.9 1.615.08.721-.243 1.387-.86 1.965-1.05.985-2.317 1.781-3.96 1.781H6.081c-1.642 0-2.91-.796-3.96-1.78-.617-.579-.939-1.245-.859-1.966.075-.674.484-1.214.9-1.615.665-.64 1.637-1.18 2.27-1.532q.216-.119.369-.208m16.57-11.187a1.68 1.68 0 0 0-1.678.025c-.217.129-.402.33-.575.519l-.047.051-2.785 3.018-.06.065c-.304.328-.57.615-.727.977-.157.36-.187.75-.221 1.201l-.007.09-.008.104-.002.019a2 2 0 0 0-.01.304c.009.137.045.37.23.58a.93.93 0 0 0 .557.3c.108.018.229.02.303.023h.019l.084.002.105.003c.512.014.968.027 1.394-.14.424-.165.754-.483 1.126-.843l.076-.074 2.822-2.717.049-.047c.185-.178.382-.366.507-.585a1.74 1.74 0 0 0 .024-1.675c-.119-.223-.31-.417-.49-.6l-.048-.049-.048-.05c-.178-.183-.37-.379-.59-.501m-.957 1.358.05-.046a.18.18 0 0 1 .175-.003l.05.044c.057.052.128.124.248.247s.192.196.242.253l.045.055a.24.24 0 0 1-.003.22l-.046.053a8 8 0 0 1-.25.246l-2.82 2.717c-.494.476-.599.558-.708.6-.088.035-.19.048-.608.042.031-.356.05-.452.086-.534.043-.099.116-.192.513-.622l2.785-3.018c.117-.126.186-.201.24-.254" clip-rule="evenodd"/></svg>