<svg xmlns="http://www.w3.org/2000/svg" fill="none" viewBox="0 0 24 24"><path fill="currentColor" d="M8 11v10h8V11c0-.943 0-1.414-.293-1.707S14.943 9 14 9h-4c-.943 0-1.414 0-1.707.293S8 10.057 8 11" opacity=".4"/><path fill="currentColor" fill-rule="evenodd" d="M8.043 3.767A17 17 0 0 0 7 3.75a.75.75 0 0 1 0-1.5h.025c.445 0 .816 0 1.12.02.317.022.617.069.907.19a2.75 2.75 0 0 1 1.489 1.488c.12.29.167.59.188.907.021.304.021.675.021 1.12V8.25h2.5V5.975c0-.445 0-.816.02-1.12a2.8 2.8 0 0 1 .19-.907 2.75 2.75 0 0 1 1.488-1.489c.29-.12.59-.167.907-.188.304-.021.675-.021 1.12-.021H17a.75.75 0 0 1 0 1.5c-.476 0-.796 0-1.043.017-.241.017-.358.046-.435.078a1.25 1.25 0 0 0-.677.677c-.032.077-.061.194-.078.435-.017.247-.017.567-.017 1.043v2.258q.24.008.447.035c.356.048.731.16 1.04.47s.422.684.47 1.04c.043.323.043.72.043 1.152V21a.75.75 0 0 1-1.5 0V11c0-.493-.002-.787-.03-.997a.7.7 0 0 0-.037-.167l-.002-.005-.003-.005-.001-.003-.003-.001-.004-.002-.006-.003a.7.7 0 0 0-.167-.037c-.21-.028-.504-.03-.997-.03h-1.25V21a.75.75 0 0 1-1.5 0V9.75H10c-.493 0-.787.002-.997.03a.7.7 0 0 0-.177.042l-.003.001-.001.003-.002.004-.003.006a.7.7 0 0 0-.037.167c-.028.21-.03.504-.03.997v10a.75.75 0 0 1-1.5 0V10.955c0-.433 0-.83.043-1.152.048-.356.16-.731.47-1.04s.684-.422 1.04-.47q.206-.027.447-.035V6c0-.476 0-.796-.017-1.043-.017-.241-.046-.358-.078-.435a1.25 1.25 0 0 0-.677-.677c-.077-.032-.194-.061-.435-.078M20 4.25a.75.75 0 0 1 .75.75v1.25H22a.75.75 0 0 1 0 1.5h-1.25V9a.75.75 0 0 1-1.5 0V7.75H18a.75.75 0 0 1 0-1.5h1.25V5a.75.75 0 0 1 .75-.75m-18 2a.75.75 0 0 0 0 1.5h4a.75.75 0 0 0 0-1.5z" clip-rule="evenodd"/></svg>