<svg xmlns="http://www.w3.org/2000/svg" fill="none" viewBox="0 0 24 24"><path fill="currentColor" fill-rule="evenodd" d="M11.456 2.75c.386 0 .627.003.794.013v.292c0 1.368 0 2.47.117 3.337.12.9.38 1.658.981 2.26.602.602 1.36.86 2.26.982.867.116 1.97.116 3.337.116h.26c.01.141.02.297.027.452a21 21 0 0 1 .018.735V11a.75.75 0 1 0 1.5 0v-.073a19 19 0 0 0-.02-.79c-.01-.226-.025-.475-.049-.696-.02-.19-.055-.46-.14-.665-.21-.508-.602-.899-1.097-1.392l-.085-.086-4.737-4.736-.074-.074c-.426-.427-.762-.764-1.19-.969a3 3 0 0 0-.271-.112c-.447-.158-.923-.157-1.527-.157h-.152c-1.582 0-2.835 0-3.827.116-1.019.119-1.858.368-2.562.936a4.8 4.8 0 0 0-.717.717c-.568.704-.817 1.544-.936 2.562-.116.992-.116 2.245-.116 3.827v4.649c0 1.837 0 3.293.153 4.432.158 1.173.49 2.121 1.238 2.87.749.748 1.698 1.08 2.87 1.238 1.14.153 2.595.153 4.433.153H12a.75.75 0 0 0 0-1.5c-1.907 0-3.261-.002-4.29-.14-1.005-.135-1.585-.389-2.008-.812s-.677-1.003-.812-2.009c-.138-1.027-.14-2.382-.14-4.289V9.456c0-1.64.001-2.806.106-3.701.102-.879.296-1.4.614-1.795q.219-.271.49-.49c.395-.318.916-.512 1.795-.614.895-.105 2.06-.106 3.7-.106m2.397 3.442c-.081-.604-.098-1.365-.102-2.38l4.437 4.437c-1.014-.004-1.776-.02-2.38-.102-.734-.099-1.122-.28-1.399-.556-.277-.277-.457-.665-.556-1.399m3.164 10.352.503-.478c.646-.566 1.074-.937 1.404-1.154.11-.073.188-.113.239-.135q.014.05.029.143c.055.343.058.86.058 1.674v2.813c0 .816-.003 1.331-.058 1.674q-.015.093-.03.144a1.6 1.6 0 0 1-.238-.135c-.33-.217-.758-.588-1.404-1.154l-.503-.479a.75.75 0 0 0-.517-.206h-1.496c-.493 0-.787-.002-.997-.03a.7.7 0 0 1-.177-.042l-.003-.002-.001-.002-.005-.01a.7.7 0 0 1-.037-.167c-.029-.21-.03-.505-.03-.997 0-.493.002-.787.03-.998a.7.7 0 0 1 .037-.166l.005-.01.001-.003.003-.001.01-.005a.7.7 0 0 1 .167-.037c.21-.029.504-.03.997-.03H16.5a.75.75 0 0 0 .517-.207m2.227-1.792h.002-.009zm-.107-.052q-.008-.011-.008-.013zm-.008 6.615q0-.002.008-.013zm.108-.065h.009zm.479-7.916c-.624-.226-1.191.044-1.617.325-.429.282-.937.727-1.536 1.25l-.043.038-.023.021-.297.283h-1.24c-.433 0-.83 0-1.152.043-.356.048-.732.16-1.04.47-.31.308-.422.684-.47 1.04-.043.322-.043.72-.043 1.152v.089c0 .433 0 .83.043 1.153.048.355.16.731.47 1.04s.684.422 1.04.47c.322.043.72.043 1.152.043h1.24l.297.282.023.021.043.038c.599.524 1.107.969 1.536 1.25.426.281.993.551 1.617.325.666-.242.877-.851.957-1.346.077-.478.077-1.118.077-1.849V16.53c0-.73 0-1.37-.077-1.848-.08-.495-.29-1.105-.957-1.347" clip-rule="evenodd"/><path fill="currentColor" d="M20 10.657V14.5l-.54-.461c-.54-.196-1.175.36-2.446 1.472L16.5 16h-1.496c-.943 0-1.414 0-1.707.293s-.293.764-.293 1.707 0 1.414.293 1.707.764.293 1.707.293H16.5l.514.489c.41.358.753.659 1.048.895C16.86 22 15.044 22 12 22c-3.771 0-5.657 0-6.828-1.172S4 17.771 4 14V9.456c0-3.245 0-4.868.886-5.967a4 4 0 0 1 .603-.603C6.59 2 8.211 2 11.456 2c.705 0 1.058 0 1.381.114L13 3c0 2.828 0 4.243.879 5.121C14.757 9 16.172 9 19 9l.848.063c.152.368.152.776.152 1.594" opacity=".4"/></svg>