<svg xmlns="http://www.w3.org/2000/svg" fill="none" viewBox="0 0 24 24"><path fill="currentColor" d="M20 14v-3.343c0-.818 0-1.226-.152-1.594L19 9c-2.828 0-4.243 0-5.121-.879C13 7.243 13 5.828 13 3l-.163-.886C12.514 2 12.161 2 11.456 2c-3.245 0-4.868 0-5.967.886a4 4 0 0 0-.603.603C4 4.59 4 6.211 4 9.456V14c0 3.771 0 5.657 1.172 6.828S8.229 22 12 22s5.657 0 6.828-1.172S20 17.771 20 14" opacity=".4"/><path fill="currentColor" fill-rule="evenodd" d="M11.456 2.75c.386 0 .627.003.794.013v.292c0 1.369 0 2.471.117 3.339.12.9.38 1.658.981 2.26.602.602 1.36.861 2.26.983.867.116 1.97.116 3.337.116h.288c.014.192.017.47.017.908v2.344a.75.75 0 0 0 1.5 0V10.54c0-.7.001-1.252-.21-1.76-.21-.51-.601-.9-1.096-1.394l-.085-.085-4.737-4.739-.073-.074c-.427-.427-.763-.764-1.19-.969a3 3 0 0 0-.272-.112c-.447-.158-.923-.157-1.527-.157h-.152c-1.582 0-2.835 0-3.827.116-1.019.119-1.858.369-2.563.937a4.8 4.8 0 0 0-.716.716c-.568.705-.817 1.545-.936 2.564-.116.992-.116 2.246-.116 3.828v4.65c0 1.84 0 3.296.153 4.435.158 1.173.49 2.122 1.238 2.87 1.19 1.192 2.92 1.349 5.348 1.384a.75.75 0 0 0 .022-1.5c-2.532-.036-3.613-.247-4.309-.944-.423-.423-.677-1.003-.812-2.01-.138-1.028-.14-2.383-.14-4.29V9.458c0-1.641.001-2.807.106-3.703.102-.879.296-1.4.614-1.795q.219-.271.49-.49c.395-.319.916-.512 1.795-.615.895-.105 2.06-.106 3.7-.106m2.397 3.444c-.081-.605-.098-1.366-.102-2.382l4.438 4.44c-1.015-.003-1.777-.02-2.38-.102-.735-.099-1.123-.28-1.4-.556-.277-.277-.457-.666-.556-1.4m6.397 10.513a.75.75 0 0 0-.5-1.414c-.835.296-1.647.866-2.373 1.503-.734.643-1.423 1.393-2.012 2.099-.53.635-.986 1.243-1.327 1.72-.343-.466-.684-.78-.997-.989a2.4 2.4 0 0 0-.663-.316 2 2 0 0 0-.234-.05l-.124-.009H12a.75.75 0 0 0-.05 1.498l.016.004a.9.9 0 0 1 .243.121c.243.162.665.55 1.12 1.462a.75.75 0 0 0 1.304.066l.001-.002.006-.009.025-.038.101-.154a28 28 0 0 1 1.75-2.344c.56-.67 1.194-1.357 1.85-1.931.663-.582 1.308-1.013 1.884-1.217" clip-rule="evenodd"/></svg>