<svg xmlns="http://www.w3.org/2000/svg" fill="none" viewBox="0 0 24 24"><path fill="currentColor" d="M13.856 22c12.222-3 5.378-15-2.933-20-.978 3.5-2.445 4.5-5.378 8-3.884 4.634-1.955 10 3.422 12-.815-1-2.917-3.1-1.467-6 .5-1 1.5-2 1-4 .978.5 3 1 3.5 3.5.815-1 1.66-3.1.878-5.5 6.122 4.5 3.622 9 .978 12" opacity=".4"/><path fill="currentColor" fill-rule="evenodd" d="M10.646 1.303a.75.75 0 0 1 .664.054c4.266 2.567 8.206 6.95 9.497 11.174.65 2.13.649 4.299-.436 6.16-1.084 1.858-3.16 3.258-6.336 4.037a.75.75 0 0 1-.741-1.224c1.299-1.474 2.447-3.196 2.614-5.01.127-1.381-.306-2.946-1.968-4.611.012 1.772-.67 3.247-1.358 4.09a.75.75 0 0 1-1.317-.326c-.275-1.374-1.056-1.98-1.887-2.405-.056 1.17-.567 2.013-.939 2.626a8 8 0 0 0-.268.467c-1.106 2.212.233 3.817 1.16 4.927l.218.264a.75.75 0 0 1-.843 1.177c-2.864-1.065-4.89-3.06-5.64-5.494-.754-2.45-.175-5.209 1.905-7.69.667-.797 1.25-1.457 1.763-2.039 1.806-2.045 2.75-3.114 3.467-5.682a.75.75 0 0 1 .445-.495m.7 1.853c-.801 2.29-1.925 3.559-3.577 5.425a91 91 0 0 0-1.649 1.9c-1.804 2.153-2.203 4.394-1.62 6.286.35 1.134 1.066 2.19 2.118 3.056-.451-1.134-.594-2.546.212-4.158.128-.258.265-.49.396-.712.473-.803.87-1.477.547-2.771a.75.75 0 0 1 1.069-.85c.107.055.245.115.404.183.776.335 2.065.892 2.876 2.227a5.37 5.37 0 0 0 .044-3.51.75.75 0 0 1 1.157-.836c3.208 2.358 4.3 4.84 4.078 7.235-.13 1.42-.718 2.731-1.463 3.886 1.57-.698 2.564-1.599 3.137-2.582.81-1.39.869-3.096.297-4.966-1.075-3.521-4.312-7.34-8.025-9.813" clip-rule="evenodd"/></svg>