<svg xmlns="http://www.w3.org/2000/svg" fill="none" viewBox="0 0 24 24"><path fill="currentColor" d="M3 20V4h18v16z" opacity=".4"/><path fill="currentColor" fill-rule="evenodd" d="M3 20.75c-.41 0-.75-.34-.75-.75V4c0-.41.34-.75.75-.75s.75.34.75.75v16c0 .41-.34.75-.75.75m18 0c-.41 0-.75-.34-.75-.75V4c0-.41.34-.75.75-.75s.75.34.75.75v16c0 .41-.34.75-.75.75m-5.908-5.22c.15.15.34.22.53.22s.38-.07.53-.22l.88-.88c1.11-1.11 1.72-1.72 1.72-2.65s-.61-1.54-1.72-2.65l-.88-.88a.754.754 0 0 0-1.06 0c-.29.29-.29.77 0 1.06l.88.88.196.196c.246.244.457.453.624.644h-9.57c.22-.24.49-.51.82-.84l.88-.88c.29-.29.29-.77 0-1.06a.754.754 0 0 0-1.06 0l-.88.88c-1.11 1.11-1.72 1.72-1.72 2.65s.61 1.54 1.72 2.65l.88.88c.29.29.77.29 1.06 0s.29-.77 0-1.06l-.88-.88-.197-.196a14 14 0 0 1-.623-.644h9.57c-.22.24-.49.51-.82.84l-.88.88c-.29.29-.29.77 0 1.06" clip-rule="evenodd"/></svg>