<svg xmlns="http://www.w3.org/2000/svg" fill="none" viewBox="0 0 24 24"><path fill="currentColor" d="m4.424 10.25 5.191 8.83c.487.828.73 1.242.99 1.469.691.603 1.632.601 2.32-.005.26-.228.502-.643.986-1.474l-3.678-6.115L12.09 9.75H8.306L6.671 7.032h6.994L16 3H7.603c-3.27 0-4.906 0-5.45 1.24s.394 2.83 2.27 6.01" opacity=".4"/><path fill="currentColor" fill-rule="evenodd" d="M7.604 3.75h7.095l-1.466 2.532H6.67a.75.75 0 0 0-.642 1.136l1.634 2.718a.75.75 0 0 0 .643.364h2.483l-1.204 2.079a.75.75 0 0 0 .006.762l3.448 5.735c-.133.226-.24.404-.334.548-.142.22-.223.311-.275.357-.406.358-.924.359-1.33.003-.053-.045-.134-.137-.277-.355a25 25 0 0 1-.561-.93L5.07 9.87c-.95-1.61-1.621-2.752-1.998-3.644-.376-.892-.377-1.353-.232-1.685.127-.288.372-.512 1.145-.647.806-.141 1.953-.144 3.619-.144m9.046-1.125A.75.75 0 0 0 16 2.25H7.527c-1.57 0-2.85 0-3.8.166-.998.175-1.843.57-2.26 1.523-.399.908-.203 1.862.223 2.87.42.997 1.145 2.224 2.057 3.77l5.232 8.898c.235.4.425.723.59.974.165.252.335.48.543.663.974.851 2.338.848 3.31-.007.207-.183.376-.412.54-.665.164-.252.353-.576.587-.977l.01-.017a.75.75 0 0 0-.005-.764l-3.45-5.736 1.635-2.822A.75.75 0 0 0 12.09 9H8.73l-.732-1.218h5.667a.75.75 0 0 0 .649-.374l2.335-4.032a.75.75 0 0 0 .001-.75m2.564-.373a.75.75 0 0 0-.698.36l-6.158 10.21a.75.75 0 0 0 .006.786l2.373 3.79a.75.75 0 0 0 1.276-.006l4.047-6.611c.983-1.601 1.763-2.871 2.216-3.902.458-1.042.67-2.03.241-2.97-.565-1.237-1.839-1.547-3.303-1.657m-5.334 10.95 5.676-9.41c1.097.13 1.44.395 1.597.74.157.343.156.82-.25 1.744-.407.925-1.13 2.107-2.154 3.773l-3.383 5.526z" clip-rule="evenodd"/></svg>