<svg xmlns="http://www.w3.org/2000/svg" fill="none" viewBox="0 0 24 24"><path fill="currentColor" d="M12 5.498c0-1.95-.638-2.5-2.5-2.5-2.532 0-5.454-.24-6.897 2.25C2 6.298 2 7.698 2 10.498v3c0 2.8 0 4.2.603 5.24 1.443 2.5 4.365 2.25 6.897 2.25 1.862 0 2.5-.54 2.5-2.5z" opacity=".4"/><path fill="currentColor" fill-rule="evenodd" d="M14.246 20.999c0 .414.336.75.75.75v.001c.498 0 1.014 0 1.53-.021a.75.75 0 1 0-.06-1.499c-.485.019-.986.019-1.47.019a.75.75 0 0 0-.75.75m4.335-.203a.75.75 0 0 0 1.007.334 5.75 5.75 0 0 0 2.584-2.624.75.75 0 0 0-1.35-.653 4.24 4.24 0 0 1-1.907 1.936.75.75 0 0 0-.334 1.007m2.665-6.467a.75.75 0 0 0 1.5 0v-4.66a.75.75 0 0 0-1.5 0zm-.448-8.233a.75.75 0 1 0 1.341-.672 5.76 5.76 0 0 0-2.552-2.554.75.75 0 0 0-.67 1.341 4.25 4.25 0 0 1 1.881 1.885m-4.33-2.327h.03v.001a.75.75 0 0 0 .03-1.499c-.516-.021-1.032-.021-1.53-.021a.75.75 0 0 0 0 1.5c.483 0 .984 0 1.47.019M1.952 19.111c1.409 2.441 4.018 2.632 6.285 2.632h.001a65 65 0 0 0 .848-.005l.413-.002c2.339 0 3.25-.91 3.25-3.25V5.496c0-2.332-.911-3.24-3.25-3.24q-.31 0-.629-.003h-.004c-2.394-.019-5.372-.042-6.913 2.627-.704 1.214-.704 2.685-.704 5.616v3c0 2.931 0 4.402.703 5.615M3.25 5.631C4.248 3.903 6.125 3.75 8.183 3.75l.673.003h.008l.634.004c1.488 0 1.75.26 1.75 1.74v12.99c0 .762-.106 1.235-.324 1.446-.213.208-.667.304-1.426.304q-.313 0-.634.004h-.011c-2.313.018-4.498.035-5.603-1.88-.502-.866-.502-2.201-.502-4.863v-3.001c0-2.662 0-3.998.503-4.865" clip-rule="evenodd"/></svg>