<svg xmlns="http://www.w3.org/2000/svg" fill="none" viewBox="0 0 24 24"><path fill="currentColor" d="M13.25 21H12c-4.714 0-7.071 0-8.536-1.465C2 18.072 2 15.715 2 11V7.944c0-1.816 0-2.724.38-3.406A3 3 0 0 1 3.538 3.38C4.22 3 5.128 3 6.944 3 8.108 3 8.69 3 9.2 3.191c1.109.416 1.597 1.395 2.094 2.395l.074.147L12 7h4.75c2.107 0 3.16 0 3.917.506a3 3 0 0 1 .827.827C22 9.09 22 10.143 22 12.25c0 .857 0 1.61-.012 2.276a.64.64 0 0 0-.511-.497 9.1 9.1 0 0 1-2.66-.948.66.66 0 0 0-.634 0 9.1 9.1 0 0 1-2.66.948.634.634 0 0 0-.523.62v1.971c0 2.306 2.044 3.672 3.008 4.188C16.885 21 15.396 21 13.25 21" opacity=".4"/><path fill="currentColor" fill-rule="evenodd" d="M6.946 3.75c1.223 0 1.64.011 1.992.143.828.31 1.19 1.037 1.745 2.144l.106.213H8.002a.75.75 0 1 0 0 1.5h8.752c1.07 0 1.815.001 2.39.06.562.057.877.163 1.111.32.246.163.457.374.621.62.254.38.354.93.374 2.261a.75.75 0 0 0 1.5-.022c-.019-1.283-.093-2.274-.627-3.072a3.8 3.8 0 0 0-1.035-1.035c-.522-.349-1.112-.496-1.793-.565-.66-.067-1.481-.067-2.5-.067h-4.329l-.426-.852-.095-.192c-.472-.955-1.085-2.194-2.48-2.717-.64-.24-1.351-.24-2.381-.239h-.173c-.88 0-1.588 0-2.16.05-.59.053-1.107.162-1.578.425a3.75 3.75 0 0 0-1.447 1.448c-.264.47-.374.987-.426 1.577-.05.572-.05 1.28-.05 2.16v3.147c0 2.309 0 4.118.19 5.53.194 1.444.6 2.584 1.495 3.479s2.035 1.3 3.48 1.494c1.412.19 3.221.19 5.53.19h2.058a.75.75 0 0 0 0-1.5h-2c-2.38 0-4.088-.002-5.388-.176-1.279-.172-2.05-.5-2.62-1.069-.57-.57-.897-1.34-1.069-2.618-.174-1.3-.176-3.009-.176-5.387V7.944c0-.921 0-1.564.045-2.062.043-.49.123-.768.24-.978a2.25 2.25 0 0 1 .869-.869c.21-.117.49-.197.978-.24.5-.044 1.142-.045 2.064-.045m12.23 8.672a1.41 1.41 0 0 0-1.352 0 8.4 8.4 0 0 1-2.433.869 1.384 1.384 0 0 0-1.141 1.358v1.971c0 1.555.773 2.73 1.59 3.531a8.2 8.2 0 0 0 2.13 1.479c.337.16.723.16 1.06 0a8.2 8.2 0 0 0 2.13-1.479c.817-.802 1.59-1.976 1.59-3.53v-1.972c0-.687-.502-1.244-1.141-1.358a8.4 8.4 0 0 1-2.433-.869M15.75 14.75a9.9 9.9 0 0 0 2.75-.988c.52.28 1.527.755 2.75.988v1.87c0 1.017-.498 1.83-1.14 2.461a6.6 6.6 0 0 1-1.61 1.137 6.6 6.6 0 0 1-1.61-1.137c-.642-.631-1.14-1.444-1.14-2.46z" clip-rule="evenodd"/></svg>