<svg xmlns="http://www.w3.org/2000/svg" fill="none" viewBox="0 0 24 24"><path fill="currentColor" d="M13.25 20.508H12c-4.714 0-7.071 0-8.536-1.465C2 17.58 2 15.222 2 10.508V7.452c0-1.816 0-2.725.38-3.406a3 3 0 0 1 1.158-1.158c.682-.38 1.59-.38 3.406-.38 1.164 0 1.746 0 2.255.19 1.109.417 1.597 1.396 2.094 2.396l.074.147L12 6.508h4.75c2.107 0 3.16 0 3.917.505a3 3 0 0 1 .827.828c.506.757.506 1.81.506 3.917 0 1.46 0 2.618-.06 3.562a1.5 1.5 0 0 0-.144-.335c-.1-.173-.267-.34-.6-.673-.333-.334-.5-.5-.673-.6a1.52 1.52 0 0 0-1.521 0c-.174.1-.34.266-.674.6l-3.307 3.307c-.524.524-.65 1.259-.773 1.98q-.046.286-.104.561-.041.19-.072.347z" opacity=".4"/><path fill="currentColor" fill-rule="evenodd" d="M10.502 21.25h.5L11 21.248a.75.75 0 0 0 0-1.5h-.496c-3.601-.02-5.417-.148-6.509-1.239-1.245-1.251-1.245-3.51-1.245-8.011v-3.06c0-1.628 0-2.525.286-3.037a2.2 2.2 0 0 1 .867-.868c.512-.285 1.357-.285 3.041-.285 1.073 0 1.611 0 1.99.142.838.317 1.235 1.114 1.694 2.036l.161.323H7.001a.75.75 0 0 0 0 1.5h9.75c1.951 0 2.931 0 3.498.382l.014.009c.226.145.439.357.609.606.315.471.371 1.231.378 2.756a.75.75 0 0 0 .75.747h.003a.75.75 0 0 0 .747-.753c-.007-1.653-.053-2.72-.636-3.59a3.7 3.7 0 0 0-1.034-1.023c-.945-.633-2.078-.633-4.329-.633h-4.286l-.494-.992-.002-.004c-.524-1.05-1.119-2.242-2.507-2.767-.636-.237-1.304-.237-2.517-.237-1.943 0-2.92 0-3.77.474-.61.34-1.112.842-1.448 1.45-.475.85-.475 1.825-.475 3.766v3.06c0 4.914 0 7.38 1.684 9.071 1.569 1.568 3.896 1.659 7.566 1.679m3.126.642c.238.236.553.364.877.364v-.001q.135 0 .27-.03l2.241-.487a2.74 2.74 0 0 0 1.429-.75l.01-.01 3.635-3.696a2.25 2.25 0 0 0-.003-3.182l-.694-.688a2.23 2.23 0 0 0-1.592-.662c-.603 0-1.17.235-1.594.661l-3.689 3.675a2.76 2.76 0 0 0-.754 1.429l-.478 2.229c-.09.417.038.846.342 1.148m5.64-7.42a.75.75 0 0 1 .532-.222c.2 0 .39.078.531.221l.003.003.692.687a.76.76 0 0 1 .222.538.73.73 0 0 1-.217.52l-.008.008-3.632 3.694a1.27 1.27 0 0 1-.65.343l-.018.003-.012.003-1.876.408.398-1.858.002-.01.002-.011a1.27 1.27 0 0 1 .345-.655z" clip-rule="evenodd"/></svg>