<svg xmlns="http://www.w3.org/2000/svg" fill="none" viewBox="0 0 24 24"><path fill="currentColor" d="M13.25 20.5H12c-4.714 0-7.071 0-8.536-1.465C2 17.572 2 15.215 2 10.5V7.444c0-1.816 0-2.724.38-3.406A3 3 0 0 1 3.538 2.88c.682-.38 1.59-.38 3.406-.38 1.164 0 1.746 0 2.255.191 1.109.416 1.597 1.395 2.094 2.395l.074.147L12 6.5h4.75c2.107 0 3.16 0 3.917.506a3 3 0 0 1 .827.827C22 8.59 22 9.643 22 11.75c0 3.511 0 5.267-.843 6.528a5 5 0 0 1-1.38 1.38c-.461.308-.99.504-1.647.628.157-.31.245-.663.245-1.036 0-1.243-.98-2.25-2.187-2.25C14.979 17 14 18.007 14 19.25c0 .462.135.892.368 1.249z" opacity=".4"/><path fill="currentColor" fill-rule="evenodd" d="M6.944 3.25c1.223 0 1.64.011 1.992.143.827.31 1.19 1.037 1.744 2.144l.107.213H7a.75.75 0 0 0 0 1.5h9.75c1.069 0 1.814.001 2.389.06.562.057.877.163 1.111.32.246.163.457.374.62.62.315.47.376.954.38 2.752a.75.75 0 0 0 1.5-.003c-.003-1.683-.02-2.665-.632-3.582a3.8 3.8 0 0 0-1.035-1.035c-.522-.349-1.112-.496-1.792-.565-.66-.067-1.482-.067-2.5-.067h-4.328l-.426-.852-.095-.192c-.472-.955-1.084-2.194-2.48-2.717-.638-.24-1.35-.24-2.38-.239H6.91c-.88 0-1.588 0-2.16.05-.59.052-1.106.162-1.577.425a3.75 3.75 0 0 0-1.448 1.448c-.263.471-.373.987-.425 1.577-.05.572-.05 1.28-.05 2.16v3.147c0 2.309 0 4.118.19 5.53.194 1.444.6 2.584 1.494 3.479.829.828 1.868 1.238 3.167 1.448 1.276.207 2.882.232 4.898.236a.75.75 0 1 0 .002-1.5c-2.04-.004-3.523-.032-4.66-.217-1.117-.18-1.818-.5-2.346-1.028-.57-.57-.897-1.34-1.069-2.618-.174-1.3-.176-3.009-.176-5.387V7.444c0-.921 0-1.564.045-2.063.043-.488.123-.767.24-.977a2.25 2.25 0 0 1 .869-.869c.21-.117.489-.197.977-.24.5-.044 1.142-.045 2.063-.045m12.06 8.842a.75.75 0 0 0-1.379.408v4.132a2.9 2.9 0 0 0-1.437-.382c-1.643 0-2.938 1.363-2.938 3s1.295 3 2.938 3c1.642 0 2.937-1.363 2.937-3v-4.094c.432.362.999.655 1.748.783a.75.75 0 0 0 .254-1.478c-.8-.137-1.213-.544-1.481-.974a4 4 0 0 1-.334-.698l-.05-.128c-.027-.074-.057-.15-.08-.21a2 2 0 0 0-.178-.359m-2.817 5.658c.775 0 1.438.652 1.438 1.5 0 .849-.663 1.5-1.437 1.5-.775 0-1.438-.651-1.438-1.5 0-.848.663-1.5 1.438-1.5" clip-rule="evenodd"/></svg>