<svg xmlns="http://www.w3.org/2000/svg" fill="none" viewBox="0 0 24 24"><path fill="currentColor" d="M12 21h1.25c3.511 0 5.267 0 6.528-.843a5 5 0 0 0 1.38-1.38C22 17.518 22 15.762 22 12.25c0-2.107 0-3.16-.506-3.917a3 3 0 0 0-.827-.827C19.91 7 18.857 7 16.75 7H12l-.633-1.267c-.525-1.05-1.005-2.106-2.168-2.542C8.69 3 8.108 3 6.944 3c-1.816 0-2.724 0-3.406.38A3 3 0 0 0 2.38 4.538C2 5.22 2 6.128 2 7.944V11c0 4.714 0 7.071 1.464 8.535C4.93 21 7.286 21 12 21" opacity=".4"/><path fill="currentColor" fill-rule="evenodd" d="M8.936 3.893c-.352-.132-.769-.143-1.992-.143-.921 0-1.564 0-2.063.045-.488.043-.767.123-.977.24a2.25 2.25 0 0 0-.869.869c-.117.21-.197.489-.24.977-.044.5-.045 1.142-.045 2.063V21a.75.75 0 0 1-1.5 0V7.91c0-.88 0-1.588.05-2.16.052-.59.162-1.106.425-1.577a3.75 3.75 0 0 1 1.448-1.448c.47-.263.987-.373 1.577-.424.572-.05 1.28-.05 2.16-.05h.034l.139-.001c1.029 0 1.74 0 2.38.239 1.395.523 2.007 1.762 2.48 2.717l.094.192.426.852h4.327c1.02 0 1.841 0 2.5.067.681.07 1.271.216 1.793.565.41.274.761.625 1.035 1.035.335.5.483 1.064.556 1.71.071.633.076 1.414.076 2.373a.75.75 0 0 1-1.5 0c0-.982-.006-1.672-.067-2.205-.058-.52-.162-.82-.312-1.045a2.3 2.3 0 0 0-.621-.62c-.235-.157-.55-.263-1.111-.32-.575-.059-1.32-.06-2.389-.06H8a.75.75 0 0 1 0-1.5h2.787l-.107-.213c-.554-1.107-.917-1.833-1.744-2.144M14.25 15a.75.75 0 0 1 .75-.75h7a.75.75 0 0 1 0 1.5h-7a.75.75 0 0 1-.75-.75m0 3a.75.75 0 0 1 .75-.75h7a.75.75 0 0 1 0 1.5h-7a.75.75 0 0 1-.75-.75m0 3a.75.75 0 0 1 .75-.75h2.5a.75.75 0 0 1 0 1.5H15a.75.75 0 0 1-.75-.75m-8.37-6.447a.75.75 0 0 0 .24 1.48h.002l.008-.001.032-.005a20 20 0 0 1 .579-.083c.381-.05.893-.11 1.422-.15.354-.027.707-.044 1.026-.044l-4.72 4.72a.75.75 0 1 0 1.061 1.06l4.72-4.72c0 .32-.017.673-.044 1.027a26 26 0 0 1-.233 2.001l-.005.032v.008l-.001.001a.75.75 0 0 0 1.48.241v-.004l.003-.01.005-.036.02-.134a29 29 0 0 0 .227-1.986c.042-.56.066-1.169.031-1.692a4 4 0 0 0-.11-.762c-.057-.218-.161-.51-.386-.733-.224-.225-.515-.329-.733-.385a4 4 0 0 0-.762-.111 13 13 0 0 0-1.692.03 28 28 0 0 0-2.12.248l-.037.005-.01.002z" clip-rule="evenodd"/></svg>