<svg xmlns="http://www.w3.org/2000/svg" fill="none" viewBox="0 0 24 24"><path fill="currentColor" d="M12 21h1.25c3.511 0 5.267 0 6.528-.843a5 5 0 0 0 1.38-1.38C22 17.518 22 15.762 22 12.25c0-2.107 0-3.16-.506-3.917a3 3 0 0 0-.827-.827C19.91 7 18.857 7 16.75 7h-3.334c-.868 0-1.661-.49-2.05-1.267-.524-1.05-1.004-2.106-2.167-2.542C8.69 3 8.108 3 6.944 3c-1.816 0-2.724 0-3.406.38A3 3 0 0 0 2.38 4.538C2 5.22 2 6.128 2 7.944V11c0 4.714 0 7.071 1.464 8.535C4.93 21 7.286 21 12 21" opacity=".4"/><path fill="currentColor" fill-rule="evenodd" d="M6.944 3.75c1.223 0 1.64.011 1.992.143.827.31 1.19 1.037 1.744 2.144l.107.213H8a.75.75 0 0 0 0 1.5h8.75c1.069 0 1.814.001 2.389.06.562.057.877.163 1.111.32.246.163.457.374.62.62.151.225.255.524.313 1.045.06.533.067 1.223.067 2.205a.75.75 0 0 0 1.5 0c0-.96-.005-1.74-.076-2.373-.073-.646-.221-1.21-.556-1.71a3.8 3.8 0 0 0-1.035-1.035c-.522-.349-1.112-.496-1.792-.565-.66-.067-1.482-.067-2.5-.067h-4.328l-.426-.852-.095-.192c-.472-.955-1.084-2.194-2.48-2.717-.638-.24-1.35-.24-2.38-.239H6.91c-.88 0-1.588 0-2.16.05-.59.053-1.106.162-1.577.425a3.75 3.75 0 0 0-1.448 1.448c-.263.471-.373.987-.425 1.577-.05.572-.05 1.28-.05 2.16v3.147c0 2.309 0 4.118.19 5.53.194 1.444.6 2.584 1.494 3.479.895.895 2.035 1.3 3.48 1.494 1.411.19 3.22.19 5.529.19H12a.75.75 0 0 0 0-1.5c-2.378 0-4.086-.002-5.386-.176-1.279-.172-2.05-.5-2.62-1.069-.569-.57-.896-1.34-1.068-2.618-.174-1.3-.176-3.009-.176-5.387V7.944c0-.921 0-1.564.045-2.063.043-.488.123-.767.24-.977a2.25 2.25 0 0 1 .869-.869c.21-.117.489-.197.977-.24.5-.044 1.142-.045 2.063-.045m7.799 13.356c.189-1.323 1.363-2.356 2.757-2.356.934 0 1.76.465 2.258 1.18a.75.75 0 1 0 1.23-.86 4.25 4.25 0 0 0-3.488-1.82c-1.48 0-2.807.758-3.579 1.915l-.25-.5a.75.75 0 1 0-1.342.67l1 2a.75.75 0 0 0 1.414-.229m6.928.559a.75.75 0 0 0-1.413.229c-.19 1.323-1.364 2.356-2.758 2.356-.934 0-1.76-.465-2.257-1.18a.75.75 0 1 0-1.23.86 4.25 4.25 0 0 0 3.487 1.82 4.31 4.31 0 0 0 3.58-1.915l.25.5a.75.75 0 0 0 1.341-.67z" clip-rule="evenodd"/></svg>