<svg xmlns="http://www.w3.org/2000/svg" fill="none" viewBox="0 0 24 24"><path fill="currentColor" fill-rule="evenodd" d="M2.586 4.67C2 5.338 2 6.415 2 8.57V9h2.5a1 1 0 0 1 1 1v4a1 1 0 0 1-1 1H2v.429c0 2.155 0 3.232.586 3.902S4.114 20 6 20h12c1.886 0 2.828 0 3.414-.67.586-.669.586-1.746.586-3.901V15h-2.5a1 1 0 0 1-1-1v-4a1 1 0 0 1 1-1H22v-.429c0-2.155 0-3.232-.586-3.902S19.886 4 18 4H6c-1.886 0-2.828 0-3.414.67M12 14a2 2 0 1 0 0-4 2 2 0 0 0 0 4" clip-rule="evenodd" opacity=".4"/><path fill="currentColor" fill-rule="evenodd" d="M5.942 3.25h12.116c.893 0 1.649 0 2.25.092.648.1 1.221.32 1.67.834.437.499.613 1.11.694 1.8.078.666.078 1.51.078 2.548v6.952c0 1.037 0 1.882-.078 2.548-.081.69-.257 1.301-.693 1.8-.45.514-1.023.734-1.67.834-.602.092-1.358.092-2.251.092H5.942c-.893 0-1.649 0-2.25-.092-.648-.1-1.221-.32-1.67-.834-.437-.499-.613-1.11-.694-1.8-.078-.666-.078-1.51-.078-2.548V8.524c0-1.037 0-1.882.078-2.548.081-.69.257-1.301.693-1.8.45-.514 1.023-.734 1.67-.834.602-.092 1.358-.092 2.251-.092M2.75 9.75v4.5H4.5a.25.25 0 0 0 .25-.25v-4a.25.25 0 0 0-.25-.25zm0 6H4.5A1.75 1.75 0 0 0 6.25 14v-4A1.75 1.75 0 0 0 4.5 8.25H2.75c0-.925.008-1.588.068-2.099.065-.556.183-.817.332-.988.137-.156.328-.27.77-.338.474-.073 1.113-.075 2.08-.075h5.293a.8.8 0 0 0-.043.25v4.354a2.751 2.751 0 0 0 0 5.293V19q0 .133.043.25H6c-.967 0-1.606-.002-2.08-.075-.442-.068-.633-.183-.77-.338-.149-.17-.267-.432-.332-.988-.06-.511-.067-1.174-.068-2.099m18.432-9.599c.06.511.067 1.174.068 2.099H19.5A1.75 1.75 0 0 0 17.75 10v4c0 .966.784 1.75 1.75 1.75h1.75c0 .925-.008 1.588-.068 2.099-.066.556-.183.817-.332.988-.137.155-.328.27-.77.338-.474.073-1.113.075-2.08.075h-5.293a.8.8 0 0 0 .043-.25v-4.353a2.751 2.751 0 0 0 0-5.293V5a.8.8 0 0 0-.043-.25H18c.967 0 1.606.002 2.08.075.442.068.633.182.77.338.149.17.266.432.332.988M19.5 9.75h1.75v4.5H19.5a.25.25 0 0 1-.25-.25v-4a.25.25 0 0 1 .25-.25m-7.5 1a1.25 1.25 0 1 0 0 2.5 1.25 1.25 0 0 0 0-2.5" clip-rule="evenodd"/></svg>