<svg xmlns="http://www.w3.org/2000/svg" fill="none" viewBox="0 0 24 24"><g fill="currentColor" opacity=".4"><path d="M15.968 10.968c3.387-3.387 5.065-7.201 3.748-8.519l1.704 1.704c1.505 1.505-.02 5.472-3.408 8.86s-7.354 4.912-8.86 3.407L7.45 14.716c1.318 1.318 5.132-.36 8.519-3.748"/><path d="M13.923 8.924c2.259-2.259 3.48-4.7 2.726-5.452-.752-.753-3.193.467-5.452 2.725s-3.478 4.7-2.726 5.453c.753.752 3.194-.468 5.452-2.726"/></g><path fill="currentColor" fill-rule="evenodd" d="M18.274 1.253c.722-.03 1.444.138 1.972.666l1.704 1.703c.55.55.78 1.285.799 2.055.019.765-.167 1.609-.498 2.469-.663 1.722-1.958 3.646-3.708 5.397-1.75 1.75-3.675 3.046-5.397 3.708-.86.33-1.704.517-2.469.498-.77-.02-1.505-.25-2.054-.799l-1.704-1.703c-.528-.528-.696-1.25-.666-1.973.03-.72.258-1.522.62-2.343.724-1.646 2.052-3.521 3.794-5.264 1.742-1.742 3.618-3.07 5.264-3.794.82-.362 1.622-.59 2.343-.62m-.67 3.159c.054-.463 0-1.015-.386-1.43.43-.143.806-.217 1.12-.23.468-.02.717.097.848.228.13.131.247.38.227.848-.02.47-.176 1.082-.493 1.802-.632 1.437-1.837 3.163-3.482 4.808s-3.37 2.85-4.808 3.482c-.72.317-1.331.474-1.802.494-.469.02-.718-.097-.848-.228-.131-.13-.248-.38-.228-.849.013-.313.087-.69.23-1.118.415.385.967.44 1.43.385.488-.058 1.022-.25 1.556-.517 1.077-.538 2.316-1.463 3.486-2.633s2.094-2.409 2.632-3.485c.268-.535.46-1.068.517-1.557m2.689 1.822c.244-.554.427-1.1.53-1.618l.067.067c.203.204.347.529.36 1.031.012.508-.113 1.15-.399 1.894-.57 1.484-1.732 3.237-3.369 4.874s-3.39 2.798-4.874 3.369c-.743.286-1.385.41-1.893.398-.503-.012-.828-.156-1.032-.36l-.067-.066a8 8 0 0 0 1.618-.53c1.647-.724 3.522-2.052 5.264-3.795s3.07-3.617 3.795-5.264m-8.565.494C10.64 7.816 9.825 8.927 9.376 9.824c-.226.452-.34.81-.369 1.062a.7.7 0 0 0 .001.227.7.7 0 0 0 .227.001c.251-.03.61-.143 1.063-.369.896-.448 2.007-1.264 3.095-2.352s1.903-2.198 2.352-3.095c.226-.452.34-.811.369-1.063a.7.7 0 0 0-.001-.227.7.7 0 0 0-.227 0c-.251.03-.61.142-1.063.368-.896.449-2.007 1.264-3.095 2.352M5.53 16.47a.75.75 0 0 1 0 1.06l-3 3a.75.75 0 0 1-1.06-1.06l3-3a.75.75 0 0 1 1.06 0m2 2a.75.75 0 0 1 0 1.06l-3 3a.75.75 0 0 1-1.06-1.06l3-3a.75.75 0 0 1 1.06 0" clip-rule="evenodd"/></svg>