<svg xmlns="http://www.w3.org/2000/svg" fill="none" viewBox="0 0 24 24"><path fill="currentColor" d="M20.5 14.469A8.107 8.107 0 0 1 9.531 3.5 9.12 9.12 0 1 0 20.5 14.469" opacity=".4"/><path fill="currentColor" fill-rule="evenodd" d="M12 1.75a.75.75 0 0 0 0 1.5A8.75 8.75 0 0 1 20.75 12a.75.75 0 0 0 1.5 0c0-5.66-4.59-10.25-10.25-10.25m-1.807 2.103A.75.75 0 0 0 9.36 2.77c-4.362 1.022-7.61 4.936-7.61 9.61 0 5.451 4.419 9.87 9.87 9.87 4.674 0 8.588-3.248 9.61-7.61a.75.75 0 0 0-1.083-.833 7.357 7.357 0 0 1-9.954-9.954M3.25 12.38a8.37 8.37 0 0 1 4.962-7.648 8.857 8.857 0 0 0 11.055 11.055A8.372 8.372 0 0 1 3.25 12.38" clip-rule="evenodd"/></svg>