<svg xmlns="http://www.w3.org/2000/svg" fill="none" viewBox="0 0 24 24"><path fill="currentColor" d="M6.395 14H4v6.02l6.395 1.898c.526.156 1.09.088 1.568-.187l7.516-4.337c.537-.31.687-1.041.318-1.552a1.985 1.985 0 0 0-2.204-.753L13 16.5l-.107.044a1.82 1.82 0 0 0-1.719-1.169h-1.042a1.95 1.95 0 0 1-.848-.193l-2.042-.988A1.95 1.95 0 0 0 6.395 14" opacity=".4"/><path fill="currentColor" d="M3.25 14a.75.75 0 0 1 .75-.75h2.395c.407 0 .809.091 1.174.268l2.042.988c.16.078.34.12.521.12h1.043c.837 0 1.595.394 2.068 1.015l4.127-1.268h.001a2.735 2.735 0 0 1 3.034 1.03c.622.86.382 2.102-.552 2.64l-7.515 4.337a2.74 2.74 0 0 1-2.156.257l-6.395-1.898a.75.75 0 1 1 .427-1.438l6.395 1.898c.327.097.678.056.98-.118l7.515-4.337c.141-.081.201-.302.085-.463a1.24 1.24 0 0 0-1.373-.476h-.003l-4.064 1.25.002.087a.84.84 0 0 1-.617.808l-2.54.702a2.7 2.7 0 0 1-1.895-.17l-2.183-1.057a.75.75 0 0 1 .653-1.35l2.183 1.056c.26.126.56.153.841.076l1.935-.535a1.08 1.08 0 0 0-.953-.547h-1.043c-.407 0-.808-.091-1.174-.268l-2.042-.988a1.2 1.2 0 0 0-.52-.119H4a.75.75 0 0 1-.75-.75"/><path fill="currentColor" fill-rule="evenodd" d="M11.75 2c.672 0 1.122.503 1.365.995l.696 1.403.005.006a.2.2 0 0 0 .035.026l.008.004 1.255.21c.54.091 1.128.381 1.327 1.004s-.111 1.2-.5 1.588v.001l-.976.984a.2.2 0 0 0-.019.07l.28 1.217c.125.551.137 1.317-.457 1.754-.598.44-1.326.193-1.811-.096l-1.177-.703h-.007a.2.2 0 0 0-.055.001l-1.175.702c-.487.29-1.214.534-1.81.095-.594-.437-.585-1.2-.458-1.754l.28-1.217a.2.2 0 0 0-.02-.07l-.977-.985c-.386-.388-.695-.964-.498-1.585.198-.624.785-.914 1.326-1.005l1.25-.21.008-.004a.2.2 0 0 0 .035-.026l.006-.006.697-1.406c.245-.49.696-.993 1.367-.993m-.726 3.078.702-1.416.023-.043.02.04.002.002.702 1.417c.115.234.295.417.465.543s.397.246.652.29l1.276.213.054.01-.04.043-.002.002-.992 1a1.55 1.55 0 0 0-.376.664c-.062.22-.091.49-.032.757l.285 1.243.014.063-.05-.029-1.196-.713a1.53 1.53 0 0 0-.779-.203 1.55 1.55 0 0 0-.777.2l-1.201.717-.05.029.014-.064.284-1.238.001-.005c.06-.268.03-.537-.032-.757a1.55 1.55 0 0 0-.376-.664l-.991-1-.042-.045.053-.01 1.276-.214h.002c.255-.044.48-.164.648-.29s.348-.308.463-.542" clip-rule="evenodd"/></svg>