<svg xmlns="http://www.w3.org/2000/svg" fill="none" viewBox="0 0 24 24"><path fill="currentColor" d="M22 12c0 5.523-4.477 10-10 10S2 17.523 2 12 6.477 2 12 2s10 4.477 10 10" opacity=".4"/><path fill="currentColor" fill-rule="evenodd" d="M2.75 12a9.25 9.25 0 1 1 18.5 0 9.25 9.25 0 0 1-18.5 0M12 1.25C6.063 1.25 1.25 6.063 1.25 12S6.063 22.75 12 22.75 22.75 17.937 22.75 12 17.937 1.25 12 1.25M7.75 12a4.25 4.25 0 0 1 7.255-3.005.75.75 0 0 0 1.06-1.06A5.75 5.75 0 1 0 17.75 12a.75.75 0 0 0-.749-.751h-5a.75.75 0 0 0 0 1.5h4.184A4.251 4.251 0 0 1 7.75 12" clip-rule="evenodd"/></svg>