<svg xmlns="http://www.w3.org/2000/svg" fill="none" viewBox="0 0 24 24"><path fill="currentColor" d="M4.853 19.147c3.196 3.196 8.06 3.707 11.789 1.533.887-.517 1.33-.776 1.357-1.302s-.471-.89-1.468-1.618c-1.848-1.35-3.667-3-5.48-4.812C9.24 11.136 7.59 9.317 6.24 7.47c-.728-.997-1.092-1.495-1.618-1.468s-.785.47-1.302 1.357c-2.174 3.73-1.663 8.593 1.533 11.79" opacity=".4"/><path fill="currentColor" fill-rule="evenodd" d="M15.47 1.47a.75.75 0 0 1 1.06 0L19 3.94l2.47-2.47a.75.75 0 1 1 1.06 1.06L20.06 5l2.47 2.47a.75.75 0 0 1-1.06 1.06L19 6.06l-2.47 2.47a.75.75 0 1 1-1.06-1.06L17.94 5l-2.47-2.47a.75.75 0 0 1 0-1.06m-5.8 8.96q.914.992 1.912 1.988a66 66 0 0 0 1.988 1.912 2.765 2.765 0 0 0-3.9-3.9m5.02 4.899a4.265 4.265 0 0 0-6.02-6.02 36 36 0 0 1-1.825-2.282l-.033-.046c-.335-.459-.638-.874-.929-1.162-.32-.318-.737-.596-1.3-.567-.522.027-.895.282-1.182.614-.242.28-.467.665-.7 1.064l-.029.05C.331 10.997.88 16.235 4.322 19.677c3.443 3.443 8.681 3.992 12.698 1.65l.05-.029c.4-.232.785-.457 1.064-.699.332-.287.587-.66.614-1.182.029-.563-.249-.98-.567-1.3-.288-.29-.703-.594-1.162-.929l-.046-.033a36 36 0 0 1-2.284-1.826M4.66 6.75h.002zh-.002l-.002-.001h.001c-.008-.002-.035-.002-.123.1-.138.159-.292.418-.566.887a8.995 8.995 0 0 0 12.296 12.296c.47-.274.728-.428.887-.566.102-.088.102-.115.1-.123l-.004-.007a.7.7 0 0 0-.13-.163c-.194-.195-.509-.427-1.029-.807-1.89-1.381-3.74-3.061-5.567-4.887S7.015 9.803 5.634 7.91c-.38-.52-.612-.834-.807-1.027a.7.7 0 0 0-.168-.134z" clip-rule="evenodd"/></svg>