<svg xmlns="http://www.w3.org/2000/svg" fill="none" viewBox="0 0 24 24"><path fill="currentColor" fill-rule="evenodd" d="M21.16 9.927c-1.031.387-2.612-.834-3.529-2.728-.81-1.67-.832-3.306-.118-3.933l.326-.196q-.183.07-.326.196l-6.556 3.933c.18 1.517 1.243 4.925 4.043 6.425zm-15 9c-1.031.387-2.611-.834-3.528-2.728-.918-1.894-.825-3.742.207-4.129L7.5 9.273c.186 1.314 1.202 4.47 3.779 6.583z" clip-rule="evenodd" opacity=".4"/><path fill="currentColor" fill-rule="evenodd" d="M5.76 19.751c-1.316 0-2.849-1.259-3.803-3.223-.719-1.483-.903-2.984-.492-4.017.211-.53.57-.914 1.04-1.114l14.574-8.744q.222-.18.497-.284c1.427-.54 3.348.796 4.47 3.104.719 1.483.902 2.984.492 4.017-.212.53-.57.914-1.04 1.114l-5.328 3.197c.657 1.39 1.213 4.562-1.011 7.638a.75.75 0 0 1-.608.311v.002h-.007a.75.75 0 0 1-.61-.322l-.622-.896-1.987.954a.75.75 0 0 1-.868-1.193c.055-.058 1.32-1.455.896-3.604L6.49 19.608l-.063.024q-.32.12-.667.12m6.94-3.868c.367 1.283.27 2.395.017 3.272l.523-.25a.75.75 0 0 1 .94.247l.335.482c1.11-2.151.725-4.168.359-5.055zm3.552-10.986L11.715 7.62c.145 2.791 2.021 4.492 3.258 5.15l4.23-2.538c-.844-.544-1.655-1.489-2.245-2.703-.44-.907-.68-1.82-.705-2.63zM8.307 9.664l1.988-1.193c.381 2.504 1.91 4.218 3.24 5.161l-2.029 1.217c-.49-.305-1.122-.84-1.696-1.597-.786-1.037-1.29-2.242-1.503-3.588M5.85 18.242l4.253-2.551a8.7 8.7 0 0 1-1.49-1.533 9.4 9.4 0 0 1-1.676-3.672l-3.77 2.261-.063.024c-.038.014-.152.057-.246.294-.205.515-.146 1.583.448 2.807.798 1.642 2.027 2.487 2.544 2.37M17.977 3.863a.7.7 0 0 0-.119.203c-.204.515-.146 1.583.448 2.807.823 1.694 2.104 2.538 2.59 2.356.038-.014.152-.057.246-.294.206-.515.146-1.583-.447-2.807-.799-1.642-2.026-2.486-2.544-2.37l-.175.105" clip-rule="evenodd"/></svg>