<svg xmlns="http://www.w3.org/2000/svg" fill="none" viewBox="0 0 24 24"><path fill="currentColor" fill-rule="evenodd" d="M12 22c5.523 0 10-4.477 10-10S17.523 2 12 2 2 6.477 2 12s4.477 10 10 10m-3-9c-1.3 0-2 .595-2 2s.7 2 2 2h6c1.3 0 2-.595 2-2s-.7-2-2-2z" clip-rule="evenodd" opacity=".4"/><path fill="currentColor" fill-rule="evenodd" d="M12 2.75a9.25 9.25 0 1 0 0 18.5 9.25 9.25 0 0 0 0-18.5M1.25 12C1.25 6.063 6.063 1.25 12 1.25S22.75 6.063 22.75 12 17.937 22.75 12 22.75 1.25 17.937 1.25 12m5.743.932C7.526 12.42 8.25 12.25 9 12.25h6c.75 0 1.474.17 2.007.682.539.518.743 1.25.743 2.068 0 .817-.204 1.55-.743 2.068-.533.512-1.258.682-2.007.682H9c-.75 0-1.474-.17-2.007-.682-.539-.518-.743-1.25-.743-2.068 0-.817.204-1.55.743-2.068m1.04 1.082c-.137.131-.283.398-.283.986s.146.855.282.986c.142.137.418.264.968.264h6c.55 0 .825-.127.968-.264.136-.131.282-.398.282-.986s-.146-.855-.282-.986c-.143-.137-.418-.264-.968-.264H9c-.55 0-.826.127-.968.264M8 8a1 1 0 1 0 0 2h.009a1 1 0 1 0 0-2zm7.991 0a1 1 0 1 0 0 2H16a1 1 0 1 0 0-2z" clip-rule="evenodd"/></svg>