<svg xmlns="http://www.w3.org/2000/svg" fill="none" viewBox="0 0 24 24"><path fill="currentColor" fill-rule="evenodd" d="M2 14.167C2 17.388 4.686 20 8 20s6-2.612 6-5.833c0-1.98-1.014-3.729-2.565-4.783-.309-.21-.435-.386-.435-.772 0-.803 0-1.205-.133-1.522C10.415 6.01 9.34 6 8.314 6h-.628c-1.026 0-2.1.01-2.553 1.09C5 7.407 5 7.809 5 8.612c0 .367-.116.554-.435.772C3.014 10.438 2 12.187 2 14.167M10 14a2 2 0 1 1-4 0 2 2 0 0 1 4 0m6 4a2 2 0 1 0 0-4 2 2 0 0 0 0 4" clip-rule="evenodd" opacity=".4"/><path fill="currentColor" fill-rule="evenodd" d="m13.214 1.95-.223-.062c-1.037-.285-1.897-.522-2.59-.605-.732-.087-1.427-.023-2.025.446a3 3 0 0 0-.188.162c-.54.507-.748 1.19-.844 1.955-.051.405-.074.873-.085 1.407-.405.008-.86.041-1.282.17-.633.191-1.21.6-1.536 1.377a2.5 2.5 0 0 0-.173.817c-.018.266-.018.59-.018.97v.025l-.004.072a1 1 0 0 1-.103.08C2.4 9.947 1.25 11.922 1.25 14.166c0 3.655 3.042 6.583 6.75 6.583s6.75-2.928 6.75-6.583c0-2.244-1.15-4.219-2.893-5.404a1 1 0 0 1-.103-.078l-.004-.073v-.025c0-.38 0-.704-.018-.97-.02-.28-.062-.55-.173-.817-.326-.777-.903-1.186-1.536-1.378-.415-.126-.863-.16-1.264-.169.01-.484.03-.883.073-1.22.08-.633.22-.896.383-1.049a1 1 0 0 1 .087-.075c.153-.12.377-.201.92-.136.569.067 1.319.272 2.43.577l.12.033c.745.206 1.236.342 1.598.494.338.142.49.269.595.415.108.154.19.367.236.79.048.437.049 1.009.049 1.851v.32a6 6 0 0 0-.87.074.75.75 0 1 0 .257 1.478 4 4 0 0 1 .613-.051V9a.75.75 0 0 0 1.5 0v-.246c.33.009.604.033.837.104.274.083.46.219.587.522.022.051.046.139.06.34.015.209.015.48.015.892 0 .275.045.562.207.834.154.26.37.431.557.558 1.359.924 2.236 2.448 2.236 4.163 0 2.787-2.33 5.083-5.25 5.083-.876 0-1.7-.207-2.423-.572a.75.75 0 0 0-.676 1.339c.93.469 1.984.733 3.1.733 3.707 0 6.75-2.928 6.75-6.583 0-2.244-1.151-4.219-2.894-5.404a1 1 0 0 1-.103-.078l-.004-.073v-.025c0-.38 0-.704-.018-.97a2.5 2.5 0 0 0-.173-.817c-.326-.777-.903-1.186-1.536-1.378-.418-.127-.87-.16-1.272-.169v-.361c0-.79 0-1.444-.057-1.973-.06-.552-.19-1.05-.505-1.494-.32-.451-.742-.723-1.238-.931-.461-.194-1.047-.355-1.736-.545M7.25 6.753v.044a.75.75 0 0 0 1.5 0v-.044c.331.009.605.033.838.104.274.083.46.219.587.522.022.051.046.139.06.34.015.209.015.48.015.892 0 .275.045.562.207.834.154.26.37.431.557.558 1.359.924 2.236 2.448 2.236 4.163 0 2.787-2.33 5.083-5.25 5.083s-5.25-2.296-5.25-5.083c0-1.715.877-3.239 2.236-4.163.2-.137.416-.314.566-.576.156-.271.198-.553.198-.816 0-.412 0-.683.015-.892a1.1 1.1 0 0 1 .06-.34c.126-.303.313-.44.587-.522.233-.07.507-.096.838-.104M6.75 14a1.25 1.25 0 1 1 2.5 0 1.25 1.25 0 0 1-2.5 0M8 11.25a2.75 2.75 0 1 0 0 5.5 2.75 2.75 0 0 0 0-5.5m8.348 2.64a.75.75 0 0 1 1.025-.274 2.75 2.75 0 0 1-1.217 5.128.75.75 0 1 1-.085-1.498 1.25 1.25 0 0 0 .55-2.33.75.75 0 0 1-.273-1.026" clip-rule="evenodd"/></svg>