<svg xmlns="http://www.w3.org/2000/svg" fill="none" viewBox="0 0 24 24"><path fill="currentColor" fill-rule="evenodd" d="M7 10a2 2 0 0 1 2 2v4a2 2 0 0 1-2 2 4 4 0 0 1 0-8m10 0a2 2 0 0 0-2 2v4a2 2 0 0 0 2 2 4 4 0 0 0 0-8" clip-rule="evenodd" opacity=".4"/><path fill="currentColor" fill-rule="evenodd" d="M3.764 10.523a8.25 8.25 0 0 1 16.473 0A4.73 4.73 0 0 0 17 9.25 2.75 2.75 0 0 0 14.25 12v4A2.75 2.75 0 0 0 17 18.75c1.252 0 2.39-.484 3.239-1.275q-.009.37-.031.673c-.041.56-.12.908-.244 1.186a3.25 3.25 0 0 1-1.63 1.63c-.278.125-.627.203-1.186.244-.566.042-1.287.042-2.302.042H12a.75.75 0 0 0 0 1.5h2.876c.979 0 1.755 0 2.382-.046.642-.047 1.187-.145 1.692-.373a4.75 4.75 0 0 0 2.381-2.381c.228-.505.326-1.05.373-1.692.046-.627.046-1.403.046-2.382V11c0-5.385-4.365-9.75-9.75-9.75S2.25 5.615 2.25 11v3A4.75 4.75 0 0 0 7 18.75 2.75 2.75 0 0 0 9.75 16v-4A2.75 2.75 0 0 0 7 9.25c-1.25 0-2.388.483-3.236 1.273M3.75 14A3.25 3.25 0 0 0 7 17.25c.69 0 1.25-.56 1.25-1.25v-4c0-.69-.56-1.25-1.25-1.25A3.25 3.25 0 0 0 3.75 14m16.5 0A3.25 3.25 0 0 0 17 10.75c-.69 0-1.25.56-1.25 1.25v4c0 .69.56 1.25 1.25 1.25A3.25 3.25 0 0 0 20.25 14" clip-rule="evenodd"/></svg>