<svg xmlns="http://www.w3.org/2000/svg" fill="none" viewBox="0 0 24 24"><path fill="currentColor" d="M8 6c0-1.886 0-2.828.586-3.414S10.114 2 12 2s2.828 0 3.414.586S16 4.114 16 6s0 2.828-.586 3.414S13.886 10 12 10s-2.828 0-3.414-.586S8 7.886 8 6" opacity=".4"/><path fill="currentColor" fill-rule="evenodd" d="M12.052 1.25h-.104c-.899 0-1.648 0-2.242.08-.628.084-1.195.27-1.65.725-.456.456-.642 1.023-.726 1.65-.08.595-.08 1.345-.08 2.243v.104c0 .898 0 1.648.08 2.242.084.628.27 1.195.725 1.65.456.456 1.023.642 1.65.726.595.08 1.345.08 2.243.08h.104c.899 0 1.648 0 2.242-.08.628-.084 1.195-.27 1.65-.725.456-.456.642-1.023.726-1.65.08-.595.08-1.344.08-2.243v-.104c0-.898 0-1.648-.08-2.242-.084-.628-.27-1.195-.726-1.65-.455-.456-1.022-.642-1.65-.726-.594-.08-1.344-.08-2.242-.08M9.116 3.116c.13-.13.328-.237.79-.3.482-.064 1.13-.066 2.094-.066s1.612.002 2.095.067c.461.062.659.169.789.3s.237.327.3.788c.064.483.066 1.131.066 2.095s-.002 1.612-.066 2.095c-.063.461-.17.659-.3.789s-.328.237-.79.3c-.482.064-1.13.066-2.094.066s-1.612-.002-2.095-.067c-.461-.062-.659-.169-.789-.3s-.237-.327-.3-.788C8.753 7.612 8.75 6.964 8.75 6s.002-1.612.067-2.095c.062-.461.169-.659.3-.789M4.332 15.252c.164-.987.541-1.789 1.372-2.308.915-.572 2.244-.694 3.949-.694h4.694c1.705 0 3.034.122 3.95.694.83.52 1.207 1.32 1.37 2.308.407.005.77.018 1.079.06.492.066.963.215 1.345.597s.531.853.597 1.345c.062.459.062 1.032.062 1.697v.098c0 .665 0 1.238-.062 1.697-.066.492-.215.963-.597 1.345s-.854.531-1.345.597c-.459.062-1.032.062-1.697.062h-.098c-.665 0-1.238 0-1.697-.062-.492-.066-.963-.215-1.345-.597s-.531-.854-.597-1.345c-.062-.459-.062-1.032-.062-1.697v-.099c0-.664 0-1.237.062-1.696.066-.492.215-.963.597-1.345s.853-.531 1.345-.597a8 8 0 0 1 .887-.057c-.13-.576-.35-.857-.64-1.04-.503-.313-1.409-.465-3.154-.465H9.653c-1.745 0-2.651.152-3.154.466-.29.182-.51.463-.64 1.039.33.006.627.022.887.057.491.066.963.215 1.345.597s.531.853.597 1.345c.062.459.062 1.032.062 1.697v.098c0 .665 0 1.238-.062 1.697-.066.492-.215.963-.597 1.345s-.854.531-1.345.597c-.459.062-1.032.062-1.697.062h-.098c-.665 0-1.238 0-1.697-.062-.491-.066-.963-.215-1.345-.597s-.531-.854-.597-1.345c-.062-.459-.062-1.032-.062-1.697v-.099c0-.664 0-1.237.062-1.696.066-.492.215-.963.597-1.345s.854-.531 1.345-.597a9 9 0 0 1 1.078-.06M2.97 16.97c.057-.057.159-.128.484-.172.347-.046.818-.048 1.546-.048s1.2.002 1.546.048c.325.044.427.115.484.172s.128.159.172.484c.046.347.048.818.048 1.546s-.002 1.2-.048 1.546c-.044.325-.115.427-.172.484s-.159.128-.484.172c-.347.046-.818.048-1.546.048s-1.2-.002-1.546-.048c-.325-.044-.427-.115-.484-.172s-.128-.159-.172-.484c-.046-.347-.048-.818-.048-1.546s.002-1.2.048-1.546c.044-.325.115-.427.172-.484m14.484-.172c-.325.044-.427.115-.484.172s-.128.159-.172.484c-.046.347-.048.818-.048 1.546s.002 1.2.048 1.546c.044.325.115.427.172.484s.159.128.484.172c.347.046.818.048 1.546.048s1.2-.002 1.546-.048c.325-.044.427-.115.484-.172s.128-.159.172-.484c.046-.347.048-.818.048-1.546s-.002-1.2-.048-1.546c-.044-.325-.115-.427-.172-.484s-.159-.128-.484-.172c-.347-.046-.818-.048-1.546-.048s-1.2.002-1.546.048" clip-rule="evenodd"/></svg>