<svg xmlns="http://www.w3.org/2000/svg" fill="none" viewBox="0 0 24 24"><path fill="currentColor" fill-rule="evenodd" d="M2.44 16.44C2 16.878 2 17.585 2 19s0 2.121.44 2.56C2.878 22 3.585 22 5 22s2.121 0 2.56-.44C8 21.122 8 20.415 8 19s0-2.121-.44-2.56C7.122 16 6.415 16 5 16s-2.121 0-2.56.44m14 0C16 16.878 16 17.585 16 19s0 2.121.44 2.56c.439.44 1.146.44 2.56.44s2.121 0 2.56-.44c.44-.439.44-1.146.44-2.56s0-2.121-.44-2.56C21.122 16 20.415 16 19 16s-2.121 0-2.56.44" clip-rule="evenodd" opacity=".4"/><path fill="currentColor" fill-rule="evenodd" d="M10.286 1.25c-1.165 0-2.056.32-2.562 1.152-.438.72-.474 1.686-.474 2.598s.036 1.878.474 2.598c.506.833 1.397 1.152 2.562 1.152h.964v2.5H8.948c-.898 0-1.648 0-2.242.08-.628.084-1.195.27-1.65.726-.456.455-.642 1.022-.726 1.65-.058.434-.074.95-.078 1.547-.375.005-.709.02-.998.059-.491.066-.963.215-1.345.597s-.531.853-.597 1.345c-.062.459-.062 1.032-.062 1.697v.099c0 .664 0 1.237.062 1.696.066.492.215.963.597 1.345s.854.531 1.345.597c.459.062 1.032.062 1.697.062h.098c.665 0 1.238 0 1.697-.062.491-.066.963-.215 1.345-.597s.531-.854.597-1.345c.062-.459.062-1.032.062-1.697v-.098c0-.665 0-1.238-.062-1.697-.066-.492-.215-.963-.597-1.345s-.854-.531-1.345-.597a9 9 0 0 0-.994-.059c.004-.57.018-1.001.065-1.348.062-.461.169-.659.3-.789s.327-.237.788-.3c.483-.064 1.131-.066 2.095-.066h6c.964 0 1.612.002 2.095.066.461.063.659.17.789.3s.237.328.3.79c.046.345.06.776.064 1.347-.373.005-.706.02-.994.059-.492.066-.963.215-1.345.597s-.531.853-.597 1.345c-.062.459-.062 1.032-.062 1.697v.099c0 .664 0 1.237.062 1.696.066.492.215.963.597 1.345s.853.531 1.345.597c.459.062 1.032.062 1.697.062h.098c.665 0 1.238 0 1.697-.062.492-.066.963-.215 1.345-.597s.531-.854.597-1.345c.062-.459.062-1.032.062-1.697v-.098c0-.665 0-1.238-.062-1.697-.066-.492-.215-.963-.597-1.345s-.854-.531-1.345-.597a9 9 0 0 0-.997-.059c-.005-.597-.02-1.113-.079-1.547-.084-.628-.27-1.195-.726-1.65-.455-.456-1.022-.642-1.65-.726-.594-.08-1.344-.08-2.242-.08H12.75v-2.5h.964c1.165 0 2.056-.32 2.562-1.152.438-.72.474-1.686.474-2.598s-.036-1.878-.474-2.598c-.506-.833-1.397-1.152-2.562-1.152zm1.714 6h1.714c.91 0 1.162-.236 1.28-.43.187-.307.256-.842.256-1.82s-.07-1.513-.256-1.82c-.118-.194-.37-.43-1.28-.43h-3.428c-.91 0-1.162.236-1.28.43-.187.307-.256.842-.256 1.82s.07 1.513.256 1.82c.118.194.37.43 1.28.43zm-9.03 9.72c.057-.057.159-.128.484-.172.347-.046.818-.048 1.546-.048s1.2.002 1.546.048c.325.044.427.115.484.172s.128.159.172.484c.046.347.048.818.048 1.546s-.002 1.2-.048 1.546c-.044.325-.115.427-.172.484s-.159.128-.484.172c-.347.046-.818.048-1.546.048s-1.2-.002-1.546-.048c-.325-.044-.427-.115-.484-.172s-.128-.159-.172-.484c-.046-.347-.048-.818-.048-1.546s.002-1.2.048-1.546c.044-.325.115-.427.172-.484m14.484-.172c-.325.044-.427.115-.484.172s-.128.159-.172.484c-.046.347-.048.818-.048 1.546s.002 1.2.048 1.546c.044.325.115.427.172.484s.159.128.484.172c.347.046.818.048 1.546.048s1.2-.002 1.546-.048c.325-.044.427-.115.484-.172s.128-.159.172-.484c.046-.347.048-.818.048-1.546s-.002-1.2-.048-1.546c-.044-.325-.115-.427-.172-.484s-.159-.128-.484-.172c-.347-.046-.818-.048-1.546-.048s-1.2.002-1.546.048" clip-rule="evenodd"/></svg>