<svg xmlns="http://www.w3.org/2000/svg" fill="none" viewBox="0 0 24 24"><path fill="currentColor" d="M19.5 13.835c0 1.511 0 2.456-.122 3.176C19.139 17 18.853 17 18.5 17h-1c-.935 0-1.402 0-1.75.201a1.5 1.5 0 0 0-.55.549c-.2.348-.2.815-.2 1.75 0 .677 0 1.109.076 1.427-.686.073-1.574.073-2.872.073-1.15 0-1.724 0-2.256-.113a5.1 5.1 0 0 1-2.47-1.297c-.39-.372-.709-.842-1.346-1.78l-.564-.83a626 626 0 0 0-1.956-2.862 3 3 0 0 1-.167-.276c-.374-.701-.499-1.617.136-2.096q.03-.023.063-.045c.623-.436 1.425-.151 2.018.324L7.5 13.5v-8a1.5 1.5 0 0 1 3 0v-2a1.5 1.5 0 0 1 3 0v2a1.5 1.5 0 0 1 3 0v2a1.5 1.5 0 0 1 3 0z" opacity=".4"/><path fill="currentColor" fill-rule="evenodd" d="M11.251 3.5a.75.75 0 0 1 1.5 0V10a.75.75 0 0 0 1.5 0V5.5a.75.75 0 0 1 1.5 0V10a.75.75 0 0 0 1.5 0V7.5a.75.75 0 0 1 1.5 0l-.001 4a.75.75 0 0 0 1.5 0l.001-4a2.25 2.25 0 0 0-3.003-2.12 2.25 2.25 0 0 0-3-2 2.25 2.25 0 0 0-4.494 0A2.25 2.25 0 0 0 6.751 5.5v6.149l-.34-.342a2.433 2.433 0 0 0-3.628.202 2.446 2.446 0 0 0-.046 2.989l3.004 4.018.056.074c.628.841 1.014 1.358 1.487 1.766a5.7 5.7 0 0 0 2.511 1.26c.595.13 1.218.134 2.205.134a.75.75 0 0 0 0-1.5c-1.036 0-1.48-.01-1.882-.099a4.2 4.2 0 0 1-1.854-.93c-.334-.288-.62-.665-1.322-1.603L3.938 13.6a.946.946 0 0 1 .018-1.156.933.933 0 0 1 1.393-.078l1.62 1.627a.75.75 0 0 0 1.282-.53V5.5a.75.75 0 1 1 1.5 0V10a.75.75 0 0 0 1.5 0zM18 13.25a2.25 2.25 0 0 0-2.25 2.25v.888a2 2 0 0 0-.375.163 2.25 2.25 0 0 0-.824.824c-.177.307-.243.633-.273.962-.028.312-.028.691-.028 1.13v.065c0 .44 0 .82.028 1.13.03.33.096.656.273.963.198.342.482.626.824.824.307.177.633.243.962.273.312.028.691.028 1.13.028h1.065c.44 0 .82 0 1.13-.028.33-.03.656-.096.963-.273a2.26 2.26 0 0 0 .824-.824c.177-.307.243-.633.273-.962.028-.312.028-.691.028-1.13v-.065c0-.44 0-.82-.028-1.13-.03-.33-.096-.656-.273-.963a2.25 2.25 0 0 0-.824-.824 2 2 0 0 0-.375-.163V15.5A2.25 2.25 0 0 0 18 13.25m-.532 3h1.282v-.75a.75.75 0 0 0-1.5 0v.75zm-.995 1.522c.235-.021.546-.022 1.027-.022h1c.481 0 .792 0 1.027.022.225.02.307.055.348.079a.75.75 0 0 1 .274.274c.024.04.058.123.079.348.021.235.022.546.022 1.027s0 .792-.022 1.027c-.02.225-.055.307-.079.348a.75.75 0 0 1-.274.274c-.04.024-.123.058-.348.079-.235.021-.546.022-1.027.022h-1c-.481 0-.792 0-1.027-.022-.225-.02-.307-.055-.348-.079a.75.75 0 0 1-.274-.274c-.024-.04-.059-.123-.079-.348a13 13 0 0 1-.022-1.027c0-.481 0-.792.022-1.027.02-.225.055-.307.079-.348a.75.75 0 0 1 .274-.274c.04-.024.123-.058.348-.079" clip-rule="evenodd"/></svg>