<svg xmlns="http://www.w3.org/2000/svg" fill="none" viewBox="0 0 24 24"><path fill="currentColor" d="M4.5 13.999V3h15v10.999c0 2.329-.43 3.09-2.427 4.288l-3.015 1.808c-1.003.602-1.504.903-2.058.903s-1.055-.301-2.058-.903l-3.014-1.808C4.93 17.088 4.5 16.327 4.5 13.999" opacity=".4"/><path fill="currentColor" fill-rule="evenodd" d="M1.75 3a.75.75 0 0 1 .75-.75h19a.75.75 0 0 1 0 1.5h-1.25v10.249c0 1.188-.104 2.128-.562 2.937-.459.81-1.21 1.382-2.23 1.994l-3.045 1.827c-.475.285-.879.527-1.233.694-.378.177-.754.297-1.18.297s-.802-.12-1.18-.297c-.354-.167-.758-.41-1.233-.694L6.542 18.93c-1.02-.612-1.771-1.184-2.23-1.994-.458-.81-.562-1.749-.562-2.937V3.75H2.5A.75.75 0 0 1 1.75 3m3.5 10.999V3.75h13.5v10.249c0 1.14-.111 1.746-.368 2.198-.256.453-.717.86-1.695 1.446l-3.015 1.81c-.514.308-.853.51-1.13.64-.263.124-.414.155-.542.155s-.28-.031-.542-.155c-.277-.13-.616-.332-1.13-.64l-3.015-1.81c-.978-.587-1.44-.993-1.695-1.446C5.36 15.745 5.25 15.14 5.25 14M9.5 7.25a.75.75 0 0 0 0 1.5h5a.75.75 0 0 0 0-1.5zm0 5a.75.75 0 0 0 0 1.5h5a.75.75 0 0 0 0-1.5z" clip-rule="evenodd"/></svg>