<svg xmlns="http://www.w3.org/2000/svg" fill="none" viewBox="0 0 24 24"><path fill="currentColor" d="M8 6q-.001-.551.004-1H8c-1.42.087-2.323.325-2.975.978C4 7.006 4 8.661 4 11.971V22h5.5v-2.5c0-.935 0-1.402.201-1.75a1.5 1.5 0 0 1 .549-.549C10.598 17 11.065 17 12 17s1.402 0 1.75.201a1.5 1.5 0 0 1 .549.549c.201.348.201.815.201 1.75V22H20V11.97c0-3.309 0-4.964-1.025-5.992C18.323 5.325 17.419 5.087 16 5h-.004Q16 5.449 16 6c0 1.886 0 2.828-.586 3.414S13.886 10 12 10s-2.828 0-3.414-.586S8 7.886 8 6" opacity=".4"/><path fill="currentColor" fill-rule="evenodd" d="M11.948 1.25h.104c.899 0 1.648 0 2.242.08.628.084 1.195.27 1.65.725.456.456.642 1.023.726 1.65q.037.28.054.604c1.138.127 2.063.418 2.782 1.14.675.677.97 1.532 1.11 2.57.134 1.006.134 2.289.134 3.896v9.335H21a.75.75 0 0 1 0 1.5H3a.75.75 0 0 1 0-1.5h.25v-9.335c0-1.607 0-2.89.135-3.896.139-1.038.434-1.893 1.109-2.57.72-.722 1.644-1.013 2.782-1.14q.017-.324.054-.603c.084-.628.27-1.195.725-1.65.456-.456 1.023-.642 1.65-.726.595-.08 1.345-.08 2.243-.08m4.802 4.698v-.124c.862.117 1.343.333 1.694.684.35.351.568.838.684 1.71.12.895.122 2.077.122 3.753v9.279h-4v-1.782c0-.44 0-.82-.028-1.13-.03-.33-.096-.656-.273-.963a2.25 2.25 0 0 0-.824-.824c-.307-.177-.633-.243-.962-.273-.312-.028-.691-.028-1.13-.028h-.065c-.44 0-.82 0-1.13.028-.33.03-.656.096-.963.273a2.25 2.25 0 0 0-.824.824c-.177.307-.243.633-.273.962-.028.312-.028.691-.028 1.13v1.783h-4v-9.28c0-1.675.002-2.857.121-3.751.118-.873.335-1.36.685-1.711s.832-.567 1.694-.684v.228c0 .898 0 1.648.08 2.242.084.628.27 1.195.725 1.65.456.456 1.023.642 1.65.726.595.08 1.345.08 2.243.08h.104c.899 0 1.648 0 2.242-.08.628-.084 1.195-.27 1.65-.725.456-.456.642-1.023.726-1.65.08-.595.08-1.344.08-2.243zM9.905 2.817c-.461.062-.659.169-.789.3s-.237.327-.3.788C8.753 4.388 8.75 5.036 8.75 6s.002 1.612.067 2.095c.062.461.169.659.3.789s.327.237.788.3c.483.064 1.131.066 2.095.066s1.612-.002 2.095-.067c.461-.062.659-.169.789-.3s.237-.327.3-.788c.064-.483.066-1.131.066-2.095s-.002-1.612-.066-2.095c-.063-.461-.17-.659-.3-.789s-.328-.237-.79-.3c-.482-.064-1.13-.066-2.094-.066s-1.612.002-2.095.067M13.75 19.5v1.75h-3.5V19.5c0-.481 0-.792.022-1.027.02-.225.055-.307.079-.348a.75.75 0 0 1 .274-.274c.04-.024.123-.058.348-.079.235-.021.546-.022 1.027-.022s.792 0 1.027.022c.225.02.307.055.348.079a.75.75 0 0 1 .274.274c.024.04.059.123.079.348.021.235.022.546.022 1.027M8 12a1 1 0 1 0 0 2h.009a1 1 0 1 0 0-2zm3.991 0a1 1 0 0 0 0 2H12a1 1 0 1 0 0-2zm4.001 0a1 1 0 1 0 0 2h.01a1 1 0 1 0 0-2zM12.75 4.5a.75.75 0 0 0-1.5 0v.75h-.75a.75.75 0 0 0 0 1.5h.75v.75a.75.75 0 0 0 1.5 0v-.75h.75a.75.75 0 0 0 0-1.5h-.75z" clip-rule="evenodd"/></svg>