<svg xmlns="http://www.w3.org/2000/svg" fill="none" viewBox="0 0 24 24"><path fill="currentColor" fill-rule="evenodd" d="M5.5 12.206C5.5 8.502 8.41 5.5 12 5.5s6.5 3.002 6.5 6.706c0 1.646-1 3.794-2.5 5.838l-.667-.89H8.89l-.891.89C6.5 16 5.5 13.818 5.5 12.206m9.073 7.107-.111.578c-.121.633-.182.95-.318 1.199a1.73 1.73 0 0 1-.954.817c-.262.09-.57.09-1.189.09-.618 0-.927 0-1.188-.09a1.73 1.73 0 0 1-.955-.817c-.136-.25-.196-.566-.317-1.199l-.111-.578z" clip-rule="evenodd" opacity=".4"/><path fill="currentColor" fill-rule="evenodd" d="M12.75 2a.75.75 0 0 0-1.5 0v1a.75.75 0 0 0 1.5 0zM12 6.25c-3.154 0-5.75 2.644-5.75 5.956 0 .89.188 1.733.525 2.49a.75.75 0 1 1-1.37.609 7.6 7.6 0 0 1-.655-3.1C4.75 8.11 7.974 4.75 12 4.75s7.25 3.36 7.25 7.456a7.6 7.6 0 0 1-.654 3.099.75.75 0 0 1-1.37-.61 6.1 6.1 0 0 0 .524-2.49c0-3.31-2.596-5.955-5.75-5.955m3.57 9.617c.676 0 1.315.572 1.22 1.35-.113.92-.507 2.032-1.565 2.601-.088.81-.29 1.537-.764 2.071-.595.671-1.458.872-2.453.862-1.086.018-1.956-.237-2.535-.94-.456-.553-.638-1.285-.728-2.044-.443-.28-.78-.608-1.023-1.003-.3-.487-.417-1.012-.479-1.524-.091-.764.525-1.372 1.233-1.373zm-5.261 4.19c.079.385.186.635.322.8.17.207.498.41 1.36.394h.024c.827.01 1.154-.165 1.324-.357.137-.154.255-.406.336-.836zm4.075-1.5c.454-.187.73-.6.86-1.19H8.78c.05.256.12.448.22.61.114.187.299.381.643.58zM20.25 12a.75.75 0 0 1 .75-.75h1a.75.75 0 0 1 0 1.5h-1a.75.75 0 0 1-.75-.75M2 11.25a.75.75 0 0 0 0 1.5h1a.75.75 0 0 0 0-1.5zM19.6 4.4a.75.75 0 0 1 0 1.06l-.706.707a.75.75 0 1 1-1.061-1.06l.707-.708a.75.75 0 0 1 1.06 0m-14.14 0A.75.75 0 1 0 4.4 5.46l.706.707a.75.75 0 0 0 1.061-1.06z" clip-rule="evenodd"/></svg>