<svg xmlns="http://www.w3.org/2000/svg" fill="none" viewBox="0 0 24 24"><path fill="currentColor" d="M3.602 4.672c-1.391 1.391-1.391 3.631-1.391 8.11q-.002 1.102.006 2.034h.493q.507-.033 1.016-.032c2.855-.056 5.64.77 7.859 2.331l1.654 1.071c1.465-1.168 3.025-1.766 4.599-1.759 1.104 0 2.203.3 3.267.89.101-1.19.101-2.668.101-4.536 0-4.478 0-6.718-1.391-8.109-1.391-1.39-3.63-1.39-8.107-1.39s-6.715 0-8.106 1.39" opacity=".4"/><path fill="currentColor" fill-rule="evenodd" d="M18.204 11.04a.75.75 0 0 1-.75-.75V7.02l-3.254.005a.75.75 0 0 1-.002-1.5l3.256-.006V2.281a.75.75 0 0 1 1.5 0v3.235l3.253-.006h.001a.75.75 0 0 1 .001 1.5l-3.255.006v3.273a.75.75 0 0 1-.75.75m-3.732 11.409.008.028v-.001l.119-.031c2.584-.085 4.154-.403 5.33-1.58.992-.99 1.373-2.259 1.52-4.178l.09-.179-.075-.037c.077-1.16.077-2.549.077-4.244v-.5a.75.75 0 0 0-1.5 0v.5c0 1.45 0 2.656-.046 3.661a8.3 8.3 0 0 0-2.398-.357h-.038c-1.615 0-3.19.464-4.693 1.38q-.488-.471-1.035-.886c-2.19-1.66-4.941-2.542-7.757-2.483a14 14 0 0 0-1.525.083q-.002-.659-.002-1.398c0-4.266 0-6.408 1.17-7.58 1.173-1.17 3.313-1.17 7.577-1.17a.75.75 0 0 0 0-1.5c-4.677 0-7.025 0-8.636 1.61s-1.611 3.96-1.611 8.64c0 4.679 0 7.028 1.61 8.639s3.959 1.61 8.637 1.61c1.205 0 2.255 0 3.178-.027m1.07-1.553c1.606-.116 2.636-.399 3.328-1.09.545-.546.837-1.302.992-2.385a6.9 6.9 0 0 0-2.268-.39h-.03c-1.25 0-2.477.34-3.667 1.014.69.87 1.246 1.832 1.644 2.851m-1.6.066c-.778.015-1.655.015-2.648.015-4.264 0-6.405 0-7.576-1.171-.868-.869-1.093-2.27-1.15-4.673.5-.061 1.007-.09 1.51-.091h.019c2.483-.051 4.905.72 6.828 2.179a9.86 9.86 0 0 1 3.016 3.74" clip-rule="evenodd"/></svg>