<svg xmlns="http://www.w3.org/2000/svg" fill="none" viewBox="0 0 24 24"><path fill="currentColor" d="M2.5 12c0-4.478 0-6.718 1.391-8.109S7.521 2.5 12 2.5c4.478 0 6.718 0 8.109 1.391S21.5 7.521 21.5 12c0 4.478 0 6.718-1.391 8.109S16.479 21.5 12 21.5c-4.478 0-6.718 0-8.109-1.391S2.5 16.479 2.5 12" opacity=".4"/><path fill="currentColor" fill-rule="evenodd" d="M12 22.25c-4.68 0-7.03 0-8.64-1.61S1.75 16.68 1.75 12s0-7.031 1.61-8.641C4.973 1.75 7.32 1.75 12 1.75s7.029 0 8.639 1.61C22.25 4.97 22.25 7.319 22.25 12s0 7.03-1.611 8.64S16.68 22.25 12 22.25m0-19c-4.266 0-6.407 0-7.579 1.171C3.25 5.591 3.25 7.733 3.25 12s0 6.409 1.171 7.579C5.592 20.75 7.734 20.75 12 20.75s6.407 0 7.579-1.171c1.171-1.17 1.171-3.312 1.171-7.579s0-6.409-1.171-7.579C18.408 3.25 16.266 3.25 12 3.25m4.02 11H8.583c-.53 0-1.01-.29-1.221-.735-.203-.43-.13-.924.196-1.321a1 1 0 0 1 .083-.086l5.86-5.17a.75.75 0 0 1 .993 1.125L9.18 12.751h6.839a.75.75 0 0 1 0 1.5zm-8.02 3h8.02a.75.75 0 0 0 0-1.5H8a.75.75 0 0 0 0 1.5" clip-rule="evenodd"/></svg>