<svg xmlns="http://www.w3.org/2000/svg" fill="none" viewBox="0 0 24 24"><path fill="currentColor" fill-rule="evenodd" d="M20.901 12.031c-.099.133-.362.212-.887.37-1.663.5-2.704 2.225-2.33 3.893.123.55.185.826.118.977s-.255.257-.63.468l-1.376.777c-.365.206-.548.31-.71.29-.164-.02-.36-.204-.754-.572-1.296-1.214-3.366-1.214-4.663 0-.393.369-.59.553-.753.572-.162.02-.345-.084-.711-.29l-1.376-.776c-.375-.212-.562-.318-.63-.469s-.005-.426.118-.977c.374-1.668-.668-3.393-2.33-3.893-.526-.158-.79-.237-.888-.37C3 11.9 3 11.685 3 11.258v-1.52c0-.427 0-.64.099-.773s.362-.212.888-.37c1.663-.5 2.705-2.224 2.332-3.893-.123-.55-.185-.826-.118-.977s.255-.257.63-.468l1.375-.777c.366-.206.549-.31.712-.29s.359.204.753.572c1.296 1.213 3.364 1.213 4.66 0 .393-.368.59-.553.753-.572.162-.02.345.084.711.29l1.376.777c.375.211.562.317.63.468s.005.426-.118.977c-.374 1.669.668 3.393 2.33 3.893.526.158.79.237.888.37.099.133.099.346.099.773v1.52c0 .427 0 .64-.099.773M12 13.498a3 3 0 1 0 0-6 3 3 0 0 0 0 6" clip-rule="evenodd" opacity=".4"/><path fill="currentColor" fill-rule="evenodd" d="m8.805 3.005-.23.128-1.376.777-.235.134-.017.01c.021.113.055.265.104.484.462 2.068-.824 4.167-2.849 4.775-.204.062-.346.105-.45.14v.017c-.002.074-.002.16-.002.268v1.52l.001.268v.017c.105.036.247.079.451.14 2.025.608 3.31 2.708 2.847 4.775-.049.219-.082.37-.103.484l.017.01q.094.055.235.134l1.376.777c.093.053.166.094.23.128l.013.008c.081-.071.188-.17.34-.312 1.585-1.484 4.103-1.484 5.688 0 .152.142.258.24.34.311l.013-.007.23-.128 1.376-.777.235-.134.017-.01a15 15 0 0 0-.104-.484c-.463-2.067.82-4.166 2.846-4.775.204-.061.346-.104.45-.14v-.017q.002-.108.002-.268v-1.52l-.001-.268v-.017a15 15 0 0 0-.451-.14c-2.025-.608-3.31-2.707-2.847-4.775.049-.219.082-.37.103-.484l-.017-.01c-.064-.038-.14-.08-.235-.134l-1.375-.777-.23-.128-.014-.007c-.082.07-.188.17-.34.312-1.584 1.482-4.1 1.482-5.685 0a15 15 0 0 0-.34-.312zm-.469-1.441c.159-.07.393-.152.67-.119.306.037.538.21.669.313.142.114.309.27.488.438l.02.018c1.008.943 2.628.943 3.635 0l.02-.018c.18-.168.346-.324.489-.438.13-.104.362-.276.668-.313.278-.033.512.05.67.119.147.064.313.158.475.25l1.424.803c.166.094.335.19.468.283.143.1.338.26.454.52.127.287.093.584.07.75-.027.186-.079.417-.135.669l-.006.027c-.285 1.27.513 2.62 1.814 3.01l.027.009c.24.072.462.138.634.206.157.06.427.176.613.426.17.228.213.476.23.65.017.161.017.354.017.543v1.576c0 .189 0 .382-.016.544a1.3 1.3 0 0 1-.23.649c-.187.25-.457.365-.614.427a9 9 0 0 1-.634.206l-.027.008c-1.3.39-2.098 1.74-1.813 3.01l.006.027c.056.252.108.483.135.669.024.166.058.462-.07.75-.115.26-.31.42-.453.52-.133.094-.303.19-.469.283l-1.424.804a6 6 0 0 1-.474.25 1.3 1.3 0 0 1-.671.118c-.306-.037-.537-.21-.668-.313a9 9 0 0 1-.488-.438l-.02-.018c-1.008-.944-2.63-.944-3.638 0l-.02.018c-.18.168-.346.324-.489.438-.13.104-.362.276-.667.313a1.27 1.27 0 0 1-.671-.119 5 5 0 0 1-.475-.25l-1.424-.803a6 6 0 0 1-.468-.283c-.143-.1-.338-.26-.454-.52-.127-.287-.093-.584-.07-.75a10 10 0 0 1 .135-.669l.006-.026c.285-1.27-.513-2.62-1.814-3.011l-.027-.008a9 9 0 0 1-.634-.206c-.157-.062-.427-.177-.613-.427a1.3 1.3 0 0 1-.23-.65 6 6 0 0 1-.017-.543V9.71c0-.189 0-.382.016-.544.017-.173.062-.421.231-.649.186-.25.456-.365.613-.426.172-.068.394-.134.634-.206l.027-.008c1.301-.391 2.1-1.742 1.816-3.011l-.006-.027a9 9 0 0 1-.135-.67c-.024-.165-.058-.462.07-.749.115-.26.31-.42.453-.52.133-.094.302-.19.468-.283l.025-.014 1.376-.776.024-.014c.161-.091.327-.185.474-.25M12 8.25a2.25 2.25 0 1 0 0 4.5 2.25 2.25 0 0 0 0-4.5M8.25 10.5a3.75 3.75 0 1 1 7.5 0 3.75 3.75 0 0 1-7.5 0M2.75 18a.75.75 0 0 0-1.5 0v.116c0 .818 0 1.376.128 1.855a3.75 3.75 0 0 0 2.651 2.651c.48.128 1.037.128 1.855.128h12.232c.818 0 1.376 0 1.855-.128a3.75 3.75 0 0 0 2.651-2.651c.128-.48.128-1.037.128-1.855V18a.75.75 0 1 0-1.5 0c0 .978-.006 1.32-.077 1.582a2.25 2.25 0 0 1-1.59 1.591c-.263.07-.605.077-1.583.077H6c-.978 0-1.32-.006-1.582-.077a2.25 2.25 0 0 1-1.591-1.59c-.07-.263-.077-.605-.077-1.583" clip-rule="evenodd"/></svg>