<svg xmlns="http://www.w3.org/2000/svg" fill="none" viewBox="0 0 24 24"><path fill="currentColor" fill-rule="evenodd" d="M12 2c5.523 0 10 4.477 10 10s-4.477 10-10 10S2 17.523 2 12 6.477 2 12 2l-.13.005C9.721 2.176 8 6.585 8 12c0 5.523 1.79 10 4 10s4-4.477 4-10-1.79-10-4-10" clip-rule="evenodd" opacity=".4"/><path fill="currentColor" fill-rule="evenodd" d="M12 1.25c5.937 0 10.75 4.813 10.75 10.75S17.937 22.75 12 22.75 1.25 17.937 1.25 12 6.063 1.25 12 1.25m3.239 11.5H8.76c.073 2.385.49 4.501 1.107 6.043.34.852.728 1.492 1.12 1.906.39.412.732.551 1.012.551s.622-.139 1.012-.551c.392-.414.78-1.054 1.12-1.907.617-1.54 1.034-3.657 1.107-6.042m-7.978 0H2.78a9.26 9.26 0 0 0 6.427 8.071 9.4 9.4 0 0 1-.732-1.471c-.699-1.748-1.141-4.06-1.214-6.6m13.959 0h-4.48c-.074 2.54-.516 4.852-1.215 6.6a9.4 9.4 0 0 1-.732 1.471 9.26 9.26 0 0 0 6.427-8.071M12 2.75c-.28 0-.622.139-1.012.551-.392.414-.78 1.054-1.12 1.906C9.25 6.75 8.834 8.865 8.76 11.25h6.478c-.073-2.385-.49-4.501-1.107-6.043-.34-.852-.728-1.492-1.12-1.906-.39-.412-.732-.551-1.012-.551m-2.793.429A9.26 9.26 0 0 0 2.78 11.25h4.48c.074-2.54.516-4.852 1.215-6.6.215-.537.46-1.033.732-1.471m5.586 0c.273.438.517.934.732 1.471.699 1.748 1.141 4.06 1.214 6.6h4.481a9.26 9.26 0 0 0-6.427-8.071" clip-rule="evenodd"/></svg>