<svg xmlns="http://www.w3.org/2000/svg" fill="none" viewBox="0 0 24 24"><path fill="currentColor" fill-rule="evenodd" d="M8 9V8a2 2 0 1 1 4 0v1zm2 0a8 8 0 0 0-8 8c0 1.95.028 4 2.4 4h11.2c2.372 0 2.4-2.05 2.4-4a8 8 0 0 0-8-8" clip-rule="evenodd" opacity=".4"/><path fill="currentColor" fill-rule="evenodd" d="M15.25 9v1.004a8.7 8.7 0 0 0-2.5-1.311V8A2.754 2.754 0 0 0 10 5.25 2.754 2.754 0 0 0 7.25 8v.693a8.7 8.7 0 0 0-2.5 1.311V9A5.256 5.256 0 0 1 10 3.75 5.256 5.256 0 0 1 15.25 9m-12 0v2.438a8.7 8.7 0 0 0-2 5.562c0 .986 0 2.103.364 3.011.319.793 1.061 1.739 2.786 1.739h11.2c1.726 0 2.468-.945 2.786-1.739.286-.714.347-1.558.36-2.364A2.755 2.755 0 0 0 20.75 15v-2c0-.689.561-1.25 1.25-1.25a.75.75 0 0 0 0-1.5A2.754 2.754 0 0 0 19.25 13v2c0 .431-.22.812-.553 1.037a8.7 8.7 0 0 0-1.947-4.6V9A6.76 6.76 0 0 0 10 2.25 6.76 6.76 0 0 0 3.25 9m-.488 8.75H12a.75.75 0 0 0 0-1.5H2.789c.376-3.647 3.466-6.5 7.211-6.5 3.998 0 7.25 3.252 7.25 7.25 0 2.438-.238 3.25-1.65 3.25H4.4c-1.117 0-1.562-.383-1.638-2.5M11.25 8v.339a8.8 8.8 0 0 0-2.5 0V8c0-.689.561-1.25 1.25-1.25s1.25.561 1.25 1.25" clip-rule="evenodd"/></svg>