<svg xmlns="http://www.w3.org/2000/svg" fill="none" viewBox="0 0 24 24"><path fill="currentColor" d="M13.31 18.998C12.704 19.665 12.402 20 12 20s-.705-.334-1.31-1.003l-1.485-1.643C8.402 16.464 8 16.02 8 15.5s.402-.965 1.205-1.854l1.486-1.644C11.295 11.335 11.597 11 12 11s.705.334 1.31 1.002l1.485 1.644C15.598 14.536 16 14.98 16 15.5s-.402.965-1.205 1.854z" opacity=".4"/><path fill="currentColor" fill-rule="evenodd" d="M3 3.25a.75.75 0 0 0 0 1.5h8.25V8a.75.75 0 0 0 1.5 0V4.75H21a.75.75 0 0 0 0-1.5zm8.247 9.256c.318-.352.503-.554.653-.678a1 1 0 0 1 .1-.072 1 1 0 0 1 .1.072c.15.124.335.326.653.678l1.486 1.643c.414.46.677.752.845.992.157.225.166.315.166.359s-.009.134-.166.359c-.168.24-.43.533-.845.992l-1.486 1.643c-.318.352-.503.554-.653.678a1 1 0 0 1-.1.072 1 1 0 0 1-.1-.072c-.15-.124-.335-.326-.653-.678l-1.485-1.643c-.415-.46-.678-.752-.846-.992-.157-.225-.166-.315-.166-.359s.009-.134.166-.359c.168-.24.43-.533.846-.992zm.774-.76-.008.003zm-.034.003-.008-.003zm-.005 7.503-.003.002.008-.003zm.031 0q.008 0 .008.002zM12 10.25c-.444 0-.785.197-1.058.423-.243.203-.501.488-.776.792l-.032.035-1.485 1.643-.03.034c-.376.415-.704.778-.932 1.104-.245.35-.437.742-.437 1.219 0 .476.192.869.437 1.218.228.327.556.69.932 1.105l1.516 1.677.03.035c.276.304.534.59.777.792.273.226.614.423 1.058.423s.785-.197 1.058-.423c.243-.203.501-.488.776-.792l.031-.035 1.516-1.677c.376-.416.704-.778.932-1.105.245-.35.437-.742.437-1.218s-.192-.869-.437-1.219c-.228-.326-.556-.689-.932-1.104L13.865 11.5l-.03-.035c-.276-.304-.534-.59-.777-.792-.273-.226-.614-.423-1.058-.423" clip-rule="evenodd"/></svg>