<svg xmlns="http://www.w3.org/2000/svg" fill="none" viewBox="0 0 24 24"><path fill="currentColor" d="M10.44 15.896c.447.482.92 1.238 1.65 1.121.353-.055.643-.37 1.223-.997l1.662-1.796.38-2.055 1.9-.41.38-2.055 1.9-.411.582-2.058 1.037-.272c.465-.123.697-.184.8-.401s.02-.43-.15-.856c-.26-.648-.676-1.44-1.261-1.818a4.04 4.04 0 0 0-5.055 0c-.274.215-.556.52-1.121 1.131L2.5 17.85a1.953 1.953 0 0 0 0 2.61c.755.816 2.011.69 2.615-.263l2.544-4.021c.373-.59.787-1.44 1.584-1.283.33.065.62.378 1.198 1.003" opacity=".4"/><path fill="currentColor" d="M3.698 21.75a2.38 2.38 0 0 1-1.754-.78c-.925-1-.925-2.628 0-3.628L13.81 4.515c.59-.639.887-.96 1.209-1.212 1.78-1.397 4.169-1.404 5.956-.02.599.4 1.11 1.123 1.519 2.15.202.503.376.94.133 1.453-.255.533-.733.659-1.285.805l-.626.164-.465 1.644a.75.75 0 0 1-.563.529l-1.412.305-.29 1.562a.75.75 0 0 1-.578.597l-1.412.305-.29 1.563a.75.75 0 0 1-.186.373l-1.662 1.796c-.652.706-1.047 1.132-1.657 1.228-1.021.163-1.674-.603-2.106-1.11q-.112-.134-.211-.242l-.005-.006c-.331-.358-.674-.728-.794-.772-.178-.036-.41.317-.671.745l-.126.205-2.544 4.02a2.42 2.42 0 0 1-2.044 1.15zm14.31-17.994a3.33 3.33 0 0 0-2.063.727c-.227.178-.497.47-1.034 1.05L3.044 18.359c-.4.431-.4 1.16 0 1.59a.88.88 0 0 0 .73.296.94.94 0 0 0 .7-.45l2.545-4.02.114-.185c.383-.627 1.024-1.675 2.249-1.432.567.112.933.505 1.596 1.221l.007.007c.086.093.17.192.25.287.24.282.539.633.73.602.118-.038.459-.408.789-.765l1.515-1.636.34-1.84a.75.75 0 0 1 .579-.598l1.412-.304.289-1.563a.75.75 0 0 1 .579-.597l1.46-.316.459-1.623a.75.75 0 0 1 .53-.52l1.038-.273.219-.059-.077-.194c-.286-.718-.64-1.252-.971-1.466l-.056-.04a3.33 3.33 0 0 0-2.064-.727z"/></svg>