<svg xmlns="http://www.w3.org/2000/svg" fill="none" viewBox="0 0 24 24"><path fill="currentColor" d="M14.292 3H8c-1.886 0-2.828 0-3.414.586S4 5.114 4 7v8h16v-3.05c-.516.05-1.166.05-2 .05-1.886 0-2.828 0-3.414-.586S14 9.886 14 8V6c0-1.496 0-2.398.292-3" opacity=".4"/><path fill="currentColor" fill-rule="evenodd" d="M18.052 1.25h-.104c-.899 0-1.648 0-2.242.08-.628.084-1.195.27-1.65.725-.456.456-.642 1.023-.726 1.65-.08.595-.08 1.345-.08 2.243v2.104c0 .898 0 1.648.08 2.242.084.628.27 1.195.726 1.65.455.456 1.022.642 1.65.726.594.08 1.343.08 2.242.08h.104c.899 0 1.648 0 2.242-.08.628-.084 1.195-.27 1.65-.726.456-.455.642-1.022.726-1.65.08-.594.08-1.343.08-2.242V5.948c0-.899 0-1.648-.08-2.242-.084-.628-.27-1.195-.726-1.65-.455-.456-1.022-.642-1.65-.726-.594-.08-1.343-.08-2.242-.08m-2.936 1.866c.13-.13.328-.237.79-.3.482-.064 1.13-.066 2.094-.066s1.612.002 2.095.067c.461.062.659.169.789.3s.237.327.3.788c.064.483.066 1.131.066 2.095v2c0 .964-.002 1.612-.067 2.095-.062.461-.169.659-.3.789s-.327.237-.788.3c-.483.064-1.131.066-2.095.066s-1.612-.002-2.095-.066c-.461-.063-.659-.17-.789-.3s-.237-.328-.3-.79c-.064-.482-.066-1.13-.066-2.094V6c0-.964.002-1.612.066-2.095.063-.461.17-.659.3-.789M11 2.25H7.948c-.898 0-1.648 0-2.242.08-.628.084-1.195.27-1.65.725-.456.456-.642 1.023-.726 1.65-.08.595-.08 1.345-.08 2.243v7.908l-.416.81c-.724 1.335-1.211 2.4-1.437 3.283-.232.909-.205 1.7.19 2.417.44.8 1.228 1.112 2.111 1.25.854.134 1.992.134 3.389.134h9.826c1.396 0 2.535 0 3.389-.134.883-.138 1.67-.45 2.111-1.25.394-.716.422-1.508.19-2.417-.226-.885-.715-1.952-1.442-3.291l-.411-.76V14.5a.75.75 0 0 0-1.457-.25H4.75V7c0-.964.002-1.612.067-2.095.062-.461.169-.659.3-.789s.327-.237.788-.3C6.388 3.753 7.036 3.75 8 3.75h3a.75.75 0 0 0 0-1.5M17 9a1 1 0 0 1 1-1h.009a1 1 0 1 1 0 2H18a1 1 0 0 1-1-1M4.165 16.358l.312-.608h15.028l.338.623c.716 1.322 1.129 2.252 1.306 2.947.171.67.104 1.042-.05 1.322-.108.196-.322.382-1.03.492-.723.114-1.743.116-3.224.116h-9.69c-1.481 0-2.501-.002-3.225-.116-.708-.11-.922-.296-1.03-.492-.153-.28-.22-.651-.05-1.322.178-.695.59-1.625 1.307-2.947z" clip-rule="evenodd"/></svg>