<svg xmlns="http://www.w3.org/2000/svg" fill="none" viewBox="0 0 24 24"><path fill="currentColor" fill-rule="evenodd" d="M12.615 6.105s-.046-2.012 1.164-3.145c1.211-1.133 3.22-.958 3.22-.958s.047 2.012-1.164 3.145-3.22.958-3.22.958m2.854 15.505s-1.853.794-3.358.096-2.091-2.624-2.091-2.624 1.853-.794 3.358-.095c1.505.698 2.091 2.623 2.091 2.623M9.244 6.601c-.213 1.643 1.104 3.167 1.104 3.167s1.663-1.14 1.876-2.781c.213-1.643-1.104-3.167-1.104-3.167S9.457 4.96 9.244 6.601m-1.563 5.52c.696 1.503 2.624 2.093 2.624 2.093s.8-1.848.104-3.351C9.713 9.359 7.785 8.77 7.785 8.77s-.8 1.847-.104 3.35m4.126 5.883s-1.977.394-3.305-.599-1.504-2.998-1.504-2.998 1.978-.394 3.306.599 1.503 2.998 1.503 2.998" clip-rule="evenodd" opacity=".4"/><path fill="currentColor" fill-rule="evenodd" d="M13.27 2.411c1.361-1.276 3.455-1.176 3.765-1.161l.035.001c.38.03.68.35.68.73v.035c0 .306-.037 2.398-1.4 3.675-1.079 1.002-2.613 1.16-3.359 1.17a4 4 0 0 1-.02.23c-.217 1.618-1.534 2.789-2.022 3.17q.082.14.151.29c.82 1.78-.06 3.87-.1 3.96l-.036.073c1.387 1.214 1.586 3.262 1.586 3.358l.003.039c.381.047.771.146 1.148.32 1.746.815 2.433 2.918 2.487 3.083a.753.753 0 0 1-.417.917l-.03.012c-.183.07-1.11.428-2.21.428v.01c-.56 0-1.16-.1-1.73-.36-1.75-.811-2.43-2.904-2.487-3.08a.76.76 0 0 1 .097-.657 3.9 3.9 0 0 1-1.36-.642c-1.58-1.18-1.8-3.43-1.8-3.53-.03-.38.22-.73.6-.8.036-.009.428-.085.986-.093A4 4 0 0 1 7 12.432c-.82-1.78.06-3.87.1-3.96.15-.35.54-.53.91-.42.035.01.312.097.696.28-.182-.547-.29-1.171-.206-1.82.26-1.95 2.12-3.25 2.2-3.3.31-.21.74-.16.99.13.023.028.26.306.525.75.206-.582.533-1.19 1.055-1.68m-.209 17.26c-.67-.31-1.46-.23-2.02-.11.27.51.72 1.16 1.39 1.47.66.31 1.46.23 2.02.11-.27-.51-.72-1.16-1.39-1.47m-5.16-4.59c.15.55.46 1.28 1.05 1.72.59.45 1.41.53 1.96.53-.15-.55-.46-1.28-1.05-1.72-.59-.45-1.41-.53-1.96-.53m.36-5.29c-.12.56-.2 1.36.11 2.02.31.67.96 1.12 1.47 1.39.12-.56.2-1.35-.11-2.02s-.96-1.12-1.47-1.39m2.719-4.86c-.41.41-.9 1.04-.99 1.77-.1.73.21 1.46.5 1.96.41-.41.89-1.04.99-1.77s-.21-1.46-.5-1.96m5.2-2.16c-.57.06-1.35.24-1.89.74s-.76 1.27-.86 1.83c.57-.06 1.35-.24 1.89-.74s.76-1.26.86-1.83" clip-rule="evenodd"/></svg>