<svg xmlns="http://www.w3.org/2000/svg" fill="none" viewBox="0 0 24 24"><path fill="currentColor" fill-rule="evenodd" d="M6.502 8.992S5.19 7.89 5.482 6.222s1.895-2.23 1.895-2.23 1.312 1.104 1.02 2.77c-.292 1.667-1.895 2.23-1.895 2.23m11 0s1.312-1.103 1.02-2.77-1.895-2.23-1.895-2.23-1.312 1.104-1.02 2.77c.292 1.667 1.895 2.23 1.895 2.23m.437 5.09s1.645.628 2.99-.501 1.045-2.887 1.045-2.887-1.646-.629-2.991.5c-1.344 1.13-1.044 2.887-1.044 2.887m-1.203 5.736c-1.5-.575-1.734-2.19-1.734-2.19s1.267-1.038 2.767-.462 1.733 2.19 1.733 2.19-1.266 1.038-2.766.462M3.076 13.58c1.344 1.129 2.99.5 2.99.5s.3-1.757-1.045-2.886-2.99-.5-2.99-.5-.3 1.757 1.044 2.886m5.926 4.048s-.233 1.614-1.733 2.19-2.767-.463-2.767-.463.234-1.614 1.734-2.19 2.766.463 2.766.463" clip-rule="evenodd" opacity=".4"/><path fill="currentColor" fill-rule="evenodd" d="m16.872 3.296.004.001c.119.045 2.02.752 2.386 2.809.245 1.41-.405 2.486-.866 3.044q.188.656.277 1.34c1.623-1.215 3.492-.524 3.569-.495.25.09.43.31.47.57.02.09.35 2.2-1.3 3.59-.8.67-1.68.85-2.38.85a4.4 4.4 0 0 1-1.052-.13c-.23.49-.501.959-.795 1.393.272.03.555.095.847.208 1.8.686 2.158 2.515 2.205 2.756l.003.015.002.009c.04.26-.06.52-.27.69l-.002.001c-.064.052-1.009.809-2.308.809v-.01c-.38 0-.78-.06-1.2-.22-1.73-.66-2.128-2.376-2.198-2.721l-.007-.035-.005-.024c-.04-.26.06-.52.27-.69l.014-.01.004-.004c1.351-1.166 2.712-3.36 2.712-5.316a7.8 7.8 0 0 0-.293-2.148c-.574-.283-1.809-1.066-2.097-2.682-.36-2.07 1.21-3.42 1.28-3.47.2-.17.48-.22.73-.13m-9.74-.01c.25-.09.53-.04.73.13.07.06 1.64 1.41 1.28 3.47-.279 1.613-1.508 2.396-2.088 2.68a8 8 0 0 0-.302 2.17c0 1.894 1.275 4.009 2.581 5.2.088.06.14.102.15.11.2.17.3.43.27.69-.01.08-.32 2.06-2.21 2.78-.42.16-.83.22-1.2.22v.01c-1.3 0-2.245-.757-2.31-.809a.79.79 0 0 1-.27-.69c.01-.08.32-2.06 2.21-2.78.287-.11.568-.175.837-.204a10.4 10.4 0 0 1-.787-1.384c-.244.06-.615.127-1.051.127-.7 0-1.58-.18-2.38-.85-1.66-1.39-1.32-3.5-1.3-3.59.04-.26.22-.48.47-.57l.01-.004c.17-.06 1.978-.686 3.56.498q.09-.69.282-1.35c-.462-.559-1.118-1.635-.872-3.044.36-2.08 2.3-2.78 2.39-2.81m8.75 14.69c.16.38.48.9 1.12 1.15.65.25 1.25.08 1.62-.1-.16-.38-.48-.9-1.12-1.15-.65-.25-1.24-.08-1.62.1m-9.38-.11c-.64.25-.97.77-1.12 1.15.38.18.97.35 1.62.1.64-.25.97-.77 1.12-1.15-.38-.18-.97-.35-1.62-.1m14.74-6.58c-.45-.06-1.17-.04-1.78.48-.62.52-.77 1.25-.8 1.72.45.06 1.16.04 1.78-.48.63-.53.78-1.25.8-1.72m-16.71.49c-.62-.52-1.33-.54-1.79-.48h.01c.02.47.18 1.19.8 1.71s1.33.54 1.78.48c-.02-.47-.18-1.19-.8-1.71m2.68-6.85c-.37.24-.86.69-.99 1.43s.19 1.35.45 1.71c.37-.24.86-.69.99-1.43s-.19-1.35-.45-1.71m9.58 0c-.27.36-.58.96-.45 1.71.13.74.62 1.19.99 1.43.27-.36.58-.96.45-1.71-.13-.74-.62-1.19-.99-1.43" clip-rule="evenodd"/></svg>