<svg xmlns="http://www.w3.org/2000/svg" fill="none" viewBox="0 0 24 24"><path fill="currentColor" d="M16.648 15.883c-4.265 4.265-7.82 3.554-9.952 1.421-2.133-2.132-2.844-5.687 1.421-9.952 5.332-5.331 12.796-4.265 12.796-4.265s1.066 7.464-4.265 12.796" opacity=".4"/><path fill="currentColor" fill-rule="evenodd" d="M8.648 7.883c2.52-2.52 5.552-3.538 7.983-3.922a17 17 0 0 1 3.017-.207q.331.007.575.023.016.245.024.576a17.4 17.4 0 0 1-.208 3.016c-.384 2.43-1.402 5.464-3.922 7.983-2.41 2.411-4.461 3.048-6.032 2.87a.75.75 0 1 0-.17 1.49c2.175.247 4.653-.69 7.263-3.3 2.812-2.811 3.927-6.176 4.342-8.81.209-1.318.244-2.463.226-3.281a15 15 0 0 0-.077-1.235l-.01-.074-.002-.02-.001-.007v-.003a.75.75 0 0 0-.637-.637l-.106.742c.106-.742.105-.743.105-.743h-.009l-.021-.004a6 6 0 0 0-.34-.036c-.23-.02-.56-.041-.969-.05a18.7 18.7 0 0 0-3.281.226c-2.634.415-5.999 1.53-8.81 4.342-2.217 2.216-3.228 4.336-3.33 6.267-.086 1.652.497 3.071 1.404 4.188L2.47 20.47a.75.75 0 1 0 1.06 1.06l3.692-3.691.004-.004.004-.005 10.3-10.3a.75.75 0 0 0-1.06-1.06l-9.74 9.74c-.652-.852-1.035-1.878-.974-3.043.077-1.445.843-3.235 2.892-5.284m12.265-4.796.742-.105z" clip-rule="evenodd"/></svg>