<svg xmlns="http://www.w3.org/2000/svg" fill="none" viewBox="0 0 24 24"><path fill="currentColor" d="M10.184 20.39 4.63 14.969a2.06 2.06 0 0 1 0-2.965l5.555-5.421a2.187 2.187 0 0 1 3.039 0l5.554 5.42a2.06 2.06 0 0 1 0 2.966l-5.555 5.42c-.839.82-2.199.82-3.038 0" opacity=".4"/><path fill="currentColor" fill-rule="evenodd" d="M14.388 2.476a.75.75 0 0 1-.013 1.06l-1.844 1.8a2.9 2.9 0 0 1 1.214.71l2.778 2.71a.75.75 0 0 1-1.048 1.074l-2.777-2.71a1.436 1.436 0 0 0-1.99 0l-3.852 3.758-.045.04-1.658 1.619a1.31 1.31 0 0 0 0 1.891l-.506.519.506-.519 5.555 5.421a1.436 1.436 0 0 0 1.99 0l2.778-2.71a.75.75 0 1 1 1.047 1.073l-2.777 2.71a2.936 2.936 0 0 1-4.086 0l-5.555-5.42a2.81 2.81 0 0 1 0-4.039l9.223-9a.75.75 0 0 1 1.06.013M11 12.25a.75.75 0 0 0 0 1.5h9a.75.75 0 0 0 0-1.5z" clip-rule="evenodd"/></svg>