<svg xmlns="http://www.w3.org/2000/svg" fill="none" viewBox="0 0 24 24"><path fill="currentColor" fill-rule="evenodd" d="m19.017 6.232 2.535 9.5c.355 1.33.532 1.995.41 2.572a2.46 2.46 0 0 1-.756 1.316c-.437.395-1.1.573-2.424.93-1.325.356-1.987.534-2.562.411a2.45 2.45 0 0 1-1.31-.76c-.394-.438-.571-1.103-.926-2.433l-2.535-9.5L18.955 6zM10 7v10c0 1.4 0 2.1-.272 2.635a2.5 2.5 0 0 1-1.093 1.092C8.1 21 7.4 21 6 21s-2.1 0-2.635-.273a2.5 2.5 0 0 1-1.093-1.092C2 19.1 2 18.4 2 17V7z" clip-rule="evenodd" opacity=".4"/><path fill="currentColor" fill-rule="evenodd" d="M6.031 2.25H5.97c-.674 0-1.225 0-1.672.037-.463.037-.882.118-1.272.317a3.25 3.25 0 0 0-1.42 1.42c-.2.391-.28.81-.318 1.273-.037.447-.037.998-.037 1.672V17.03c0 .674 0 1.225.037 1.672.037.463.118.882.317 1.273a3.25 3.25 0 0 0 1.42 1.42c.391.199.81.28 1.273.317.447.037.998.037 1.672.037h.062c.674 0 1.225 0 1.672-.037.463-.037.882-.118 1.272-.317a3.25 3.25 0 0 0 1.42-1.42c.2-.391.28-.81.318-1.273.037-.447.037-.998.037-1.671V8.558l2.517 9.432c.17.64.31 1.163.458 1.58.154.43.337.809.626 1.131a3.2 3.2 0 0 0 1.712.993c.423.09.842.06 1.291-.022.434-.08.955-.22 1.592-.391l.06-.016c.637-.172 1.159-.312 1.573-.46.43-.155.808-.34 1.129-.63a3.2 3.2 0 0 0 .987-1.717c.09-.423.06-.843-.022-1.293-.079-.435-.218-.958-.389-1.597l-2.55-9.56c-.171-.64-.311-1.163-.46-1.58-.153-.43-.336-.809-.625-1.131a3.2 3.2 0 0 0-1.712-.993c-.424-.09-.842-.06-1.291.022-.434.08-.955.22-1.592.391l-.06.016c-.637.172-1.159.312-1.573.46-.43.155-.808.34-1.129.63-.27.244-.496.532-.668.85a2.7 2.7 0 0 0-.228-.65 3.25 3.25 0 0 0-1.42-1.42c-.391-.199-.81-.28-1.273-.317-.447-.037-.998-.037-1.672-.037M2.75 17V7.75h6.5V17c0 .712 0 1.202-.032 1.58-.03.371-.085.57-.159.715a1.75 1.75 0 0 1-.765.764c-.144.074-.343.13-.713.16-.38.03-.869.031-1.581.031s-1.202 0-1.58-.032c-.371-.03-.57-.085-.714-.159a1.75 1.75 0 0 1-.765-.765c-.074-.144-.13-.343-.16-.713-.03-.38-.031-.869-.031-1.581m.002-10.75h6.496a12 12 0 0 0-.03-.83c-.03-.371-.085-.57-.159-.714a1.75 1.75 0 0 0-.765-.765c-.144-.074-.343-.13-.713-.16C7.2 3.752 6.712 3.75 6 3.75s-1.202 0-1.58.032c-.371.03-.57.085-.714.159a1.75 1.75 0 0 0-.765.765c-.074.144-.13.343-.16.713a12 12 0 0 0-.029.831M6 16a1 1 0 1 0 0 2h.009a1 1 0 1 0 0-2zm8.414-11.825c.674-.182 1.136-.305 1.502-.372.357-.066.556-.063.708-.03.35.074.668.258.909.526.104.116.206.29.329.634a9 9 0 0 1 .14.436l-6.05 1.862a10 10 0 0 1-.15-.665c-.065-.36-.062-.56-.03-.715.075-.353.26-.673.526-.915.116-.104.288-.207.63-.33.35-.125.811-.25 1.486-.431m-2.079 4.507 2.373 8.893c.18.676.305 1.14.43 1.492.123.344.225.517.33.634.24.268.558.452.908.527.152.032.351.035.708-.03.366-.068.828-.191 1.502-.373.675-.181 1.137-.306 1.487-.432.341-.122.513-.225.629-.33.267-.24.45-.56.526-.914.032-.154.035-.356-.03-.715-.067-.368-.19-.832-.371-1.51l-2.43-9.107zm4.479 8.268a1 1 0 0 1 .707-1.224l.008-.003a1 1 0 0 1 .518 1.932l-.009.002a1 1 0 0 1-1.224-.707" clip-rule="evenodd"/></svg>