<svg xmlns="http://www.w3.org/2000/svg" fill="none" viewBox="0 0 24 24"><path fill="currentColor" fill-rule="evenodd" d="M11.5 1.25h-.1c-2.173 0-3.822 0-5.06.27a.75.75 0 0 0 .32 1.465c1.059-.23 2.543-.235 4.84-.235h1c1.906 0 3.261.002 4.289.14 1.006.135 1.585.389 2.009.812s.677 1.003.812 2.009c.138 1.027.14 2.382.14 4.288V10l-.018 6.498a.75.75 0 1 0 1.5.004l.018-6.5v-.058c0-1.838 0-3.294-.154-4.433-.157-1.172-.49-2.121-1.238-2.87-.748-.748-1.697-1.08-2.87-1.238-1.139-.153-2.594-.153-4.432-.153zm1 20.749h-1c-3.772 0-5.657 0-6.829-1.171S3.5 17.77 3.5 13.999v-4l-.001-.756c-.005-2.51-.008-4.146.5-5.243l16 16s-.414.57-.671.828c-1.171 1.171-3.057 1.171-6.828 1.171" clip-rule="evenodd" opacity=".4"/><path fill="currentColor" fill-rule="evenodd" d="M1.47 1.47a.75.75 0 0 1 1.06 0l20 20a.75.75 0 1 1-1.06 1.06l-1.402-1.401c-.07.082-.143.162-.21.229-.748.748-1.697 1.08-2.87 1.238-1.138.153-2.594.153-4.432.153h-1.113c-1.837 0-3.293 0-4.432-.153-1.173-.157-2.122-.49-2.87-1.238s-1.08-1.697-1.238-2.87c-.153-1.139-.153-2.595-.153-4.432V9.999l-.001-.746c-.002-1.134-.004-2.117.043-2.948.044-.787.134-1.496.333-2.12L1.47 2.53a.75.75 0 0 1 0-1.06m2.909 3.97q-.06.415-.09.949c-.044.784-.042 1.712-.04 2.845v4.765c0 1.907.002 3.262.14 4.29.136 1.005.39 1.585.813 2.008s1.002.677 2.009.813c1.027.138 2.382.14 4.289.14h1c1.906 0 3.261-.002 4.289-.14 1.006-.136 1.585-.39 2.009-.813.054-.054.127-.138.205-.233L16.67 17.73a1 1 0 0 1-.17.019h-8a.75.75 0 0 1 0-1.5h6.69l-3.5-3.5H8.5a.75.75 0 0 1 0-1.5h1.69z" clip-rule="evenodd"/></svg>