<svg xmlns="http://www.w3.org/2000/svg" fill="none" viewBox="0 0 24 24"><path fill="currentColor" d="M15 13h-1.556c-.864 0-1.296 0-1.691-.11a3 3 0 0 1-1.095-.57c-.318-.26-.566-.613-1.063-1.32-.496-.707-.745-1.06-1.062-1.32a3 3 0 0 0-1.095-.57C7.042 9 6.61 9 5.746 9 4.782 9 4 9.782 4 10.746v4.304q.243-.05.5-.05A2.5 2.5 0 0 1 7 17.5h5a2.5 2.5 0 0 1 3-2.45z" opacity=".4"/><path fill="currentColor" fill-rule="evenodd" d="M4.75 6c0-.69.56-1.25 1.25-1.25h2.895c.535 0 1.052.19 1.46.537l3.456 2.946c.278.237.439.585.439.951v3.066h-.806c-.907 0-1.216-.007-1.49-.083a2.25 2.25 0 0 1-.821-.426c-.22-.18-.403-.43-.924-1.172l-.058-.083c-.44-.627-.745-1.06-1.143-1.387a3.75 3.75 0 0 0-1.369-.711c-.496-.138-1.025-.138-1.79-.138H4.75zm0 3.75h.996c.907 0 1.217.007 1.49.083.3.084.58.229.821.427.22.18.403.43.925 1.171l.058.083c.44.627.744 1.06 1.142 1.387.402.33.868.571 1.37.711.495.139 1.025.138 1.79.138h.908v.51a3.25 3.25 0 0 0-2.913 2.49H7.663a3.25 3.25 0 0 0-2.913-2.49zm6.587 8.5H7.663A3.251 3.251 0 1 1 3.25 14.5V6A2.75 2.75 0 0 1 6 3.25h2.895a3.75 3.75 0 0 1 2.432.896l3.457 2.945a2.75 2.75 0 0 1 .966 2.093V14.5a3.25 3.25 0 1 1-4.413 3.751M4.5 15.75a1.75 1.75 0 1 1 0 3.5 1.75 1.75 0 0 1 0-3.5M20.75 4a.75.75 0 0 0-1.5 0v8.25H18a.75.75 0 0 0 0 1.5h1.25v1.286c0 .445 0 .816.02 1.12.022.318.069.618.19.908.456 1.105 1.465 1.632 2.502 1.685a.75.75 0 0 0 .076-1.498c-.584-.03-1.001-.297-1.193-.76-.032-.078-.061-.195-.078-.436a17 17 0 0 1-.017-1.044zm-8 13.5a1.75 1.75 0 1 1 3.5 0 1.75 1.75 0 0 1-3.5 0" clip-rule="evenodd"/></svg>