<svg xmlns="http://www.w3.org/2000/svg" fill="none" viewBox="0 0 24 24"><path fill="currentColor" d="M2 10.5C2 15.194 6.477 19 12 19q1.03-.001 2-.17V22c1.67-1.635 4.5-4.5 6.256-6.703C21.356 13.932 22 12.28 22 10.5 22 5.806 17.523 2 12 2S2 5.806 2 10.5" opacity=".4"/><path fill="currentColor" fill-rule="evenodd" d="M2.75 10.5c0-4.17 4.022-7.75 9.25-7.75s9.25 3.58 9.25 7.75c0 1.593-.575 3.082-1.578 4.327l-.002.003c-1.337 1.676-3.318 3.756-4.92 5.369V18.83a.75.75 0 0 0-.877-.74q-.908.159-1.873.16c-5.228 0-9.25-3.58-9.25-7.75M12 1.25c-5.818 0-10.75 4.032-10.75 9.25S6.182 19.75 12 19.75q.635 0 1.25-.062V22a.75.75 0 0 0 1.275.536c1.67-1.635 4.528-4.527 6.316-6.77 1.197-1.485 1.909-3.3 1.909-5.266 0-5.218-4.932-9.25-10.75-9.25m-.257 6.864a.75.75 0 0 0-1.393.386v4a.75.75 0 0 0 1.5 0v-1.292l1.007 1.678a.75.75 0 0 0 1.393-.386v-4a.75.75 0 0 0-1.5 0v1.292zM6.75 8.5a.75.75 0 1 0-1.5 0v4c0 .414.336.75.75.75h1a.75.75 0 0 0 0-1.5h-.25zm3 0a.75.75 0 1 0-1.5 0v4a.75.75 0 0 0 1.5 0zm5.85-.75a.75.75 0 0 0-.75.75v4c0 .414.336.75.75.75h1.9a.75.75 0 0 0 0-1.5h-1.15v-.5h.69a.75.75 0 0 0 0-1.5h-.69v-.5h1.15a.75.75 0 0 0 0-1.5z" clip-rule="evenodd"/></svg>