<svg xmlns="http://www.w3.org/2000/svg" fill="none" viewBox="0 0 24 24"><path fill="currentColor" d="m16.846 14.61 2.61-2.61A5.272 5.272 0 1 0 12 4.544l-2.61 2.61L7.154 9.39 4.544 12A5.272 5.272 0 1 0 12 19.456l2.61-2.61z" opacity=".4"/><path fill="currentColor" fill-rule="evenodd" d="M19.986 4.014a6.02 6.02 0 0 0-8.516 0l-2.61 2.61a.75.75 0 0 0 1.06 1.06l2.61-2.61a4.522 4.522 0 1 1 6.396 6.396l-2.61 2.61a.75.75 0 0 0 1.06 1.06l2.61-2.61a6.02 6.02 0 0 0 0-8.516M7.684 9.92a.75.75 0 0 0-1.06-1.06l-2.61 2.609a6.022 6.022 0 0 0 8.516 8.516l2.61-2.61a.75.75 0 1 0-1.06-1.06l-2.61 2.61a4.522 4.522 0 1 1-6.396-6.396zm7.346.11a.75.75 0 1 0-1.06-1.061l-5 5a.75.75 0 1 0 1.06 1.06z" clip-rule="evenodd"/></svg>