<svg xmlns="http://www.w3.org/2000/svg" fill="none" viewBox="0 0 24 24"><path fill="currentColor" d="M12 21a9 9 0 0 0 9-9 9 9 0 0 0-9-9 9 9 0 0 0-9 9 9 9 0 0 0 9 9" opacity=".4"/><path fill="currentColor" fill-rule="evenodd" d="M14.46 9.516a.75.75 0 0 0 .53.22h.002a.75.75 0 0 0 .529-.218l4.638-4.62c.06.607.106 1.567.085 3.073a.75.75 0 0 0 .739.76h.01a.75.75 0 0 0 .75-.74c.062-4.356-.406-4.824-.658-5.076s-.721-.721-5.078-.66a.75.75 0 0 0 .022 1.5c1.5-.02 2.459.026 3.066.086l-4.633 4.614a.75.75 0 0 0-.002 1.06M2.25 12c0 5.376 4.374 9.75 9.75 9.75s9.75-4.375 9.75-9.75a.75.75 0 0 0-1.5 0c0 4.548-3.701 8.25-8.25 8.25S3.75 16.548 3.75 12c0-4.55 3.701-8.25 8.25-8.25a.75.75 0 0 0 0-1.5c-5.376 0-9.75 4.373-9.75 9.75" clip-rule="evenodd"/></svg>