<svg xmlns="http://www.w3.org/2000/svg" fill="none" viewBox="0 0 24 24"><path fill="currentColor" fill-rule="evenodd" d="M1.25 12c0 5.928 4.822 10.75 10.75 10.75l.001-.002c2.356 0 4.587-.744 6.452-2.151l.753-.568-3.521-2.947-.457.272a6.3 6.3 0 0 1-3.227.895 6.257 6.257 0 0 1-6.25-6.25 6.257 6.257 0 0 1 6.25-6.25 6.257 6.257 0 0 1 6.071 7.733c-.285 1.171.296 2.33 1.346 2.694a2.38 2.38 0 0 0 1.918-.129 2.1 2.1 0 0 0 1.069-1.357c.229-.87.345-1.776.345-2.69 0-5.928-4.822-10.75-10.75-10.75S1.25 6.072 1.25 12" clip-rule="evenodd" opacity=".4"/><path fill="currentColor" d="M12 22.75C6.072 22.75 1.25 17.928 1.25 12S6.072 1.25 12 1.25 22.75 6.072 22.75 12c0 .914-.116 1.82-.345 2.69a2.1 2.1 0 0 1-1.069 1.357c-.581.31-1.28.356-1.918.129-1.05-.364-1.631-1.523-1.346-2.694a6.257 6.257 0 0 0-6.071-7.733 6.257 6.257 0 0 0-6.25 6.25 6.257 6.257 0 0 0 6.25 6.25 6.3 6.3 0 0 0 3.227-.895.75.75 0 1 1 .766 1.29 7.8 7.8 0 0 1-3.993 1.105c-4.273 0-7.75-3.477-7.75-7.75s3.477-7.75 7.75-7.75 7.75 3.477 7.75 7.75c0 .621-.075 1.239-.222 1.839-.085.349.039.802.388.923a.9.9 0 0 0 .714-.037.63.63 0 0 0 .323-.408c.198-.753.297-1.53.297-2.316 0-5.1-4.15-9.25-9.25-9.25S2.751 6.9 2.751 12s4.15 9.25 9.25 9.25a9.13 9.13 0 0 0 5.548-1.849.749.749 0 1 1 .903 1.197A10.63 10.63 0 0 1 12 22.749z"/></svg>