<svg xmlns="http://www.w3.org/2000/svg" fill="none" viewBox="0 0 24 24"><path fill="currentColor" d="M20.828 17.828C19.657 19 17.771 19 14 19h-2V3h2c3.771 0 5.657 0 6.828 1.172S22 7.229 22 11s0 5.657-1.172 6.828" opacity=".4"/><path fill="currentColor" fill-rule="evenodd" d="M12 19.75h-2c-2.345 0-4 0-5.25-.286V21a.75.75 0 0 1-1.5 0v-2q0-.07.012-.136a3.8 3.8 0 0 1-.62-.503c-1.392-1.39-1.392-3.385-1.392-7.36V11c0-3.976 0-5.971 1.392-7.361C4.032 2.25 6.027 2.25 10 2.25h4c3.973 0 5.967 0 7.358 1.389s1.392 3.385 1.392 7.36V11c0 3.976 0 5.971-1.392 7.361q-.29.29-.62.504.012.066.012.135v2a.75.75 0 0 1-1.5 0v-1.536c-1.25.286-2.905.286-5.25.286zm-.75-1.5H10c-3.56 0-5.346 0-6.298-.951-.952-.95-.952-2.738-.952-6.299s0-5.349.952-6.299S6.44 3.75 10 3.75h1.25zm1.5 0H14c3.56 0 5.346 0 6.298-.951.952-.95.952-2.738.952-6.299s0-5.349-.952-6.299S17.56 3.75 14 3.75h-1.25zM8.5 7.75h-3a.75.75 0 0 1 0-1.5h3a.75.75 0 0 1 0 1.5m-3 3h3a.75.75 0 0 0 0-1.5h-3a.75.75 0 0 0 0 1.5m13-3h-3a.75.75 0 0 1 0-1.5h3a.75.75 0 0 1 0 1.5m-3 3h3a.75.75 0 0 0 0-1.5h-3a.75.75 0 0 0 0 1.5M18 15a1.004 1.004 0 0 1-1.004-1c0-.552.443-1 .996-1h.01a1 1 0 0 1 0 2zM7.504 14c0 .552.452 1 1.004 1a1 1 0 0 0 0-2H8.5a.996.996 0 0 0-.996 1" clip-rule="evenodd"/></svg>