<svg xmlns="http://www.w3.org/2000/svg" fill="none" viewBox="0 0 24 24"><path fill="currentColor" d="M5.034 21.65c-1.789-.076-3.259-1.385-3.497-3.055-.156-1.09-.285-2.207-.285-3.345s.129-2.255.285-3.345c.238-1.67 1.708-2.979 3.497-3.056 1.505-.065 3.034-.099 4.718-.099s3.213.034 4.718.1c1.789.076 3.258 1.385 3.498 3.055.155 1.09.284 2.207.284 3.345s-.129 2.255-.284 3.345c-.24 1.67-1.71 2.979-3.498 3.056q-.75.033-1.517.055a2.25 2.25 0 0 0 1.14-.603 2.18 2.18 0 0 0 0-3.124 2.28 2.28 0 0 0-3.182 0 2.18 2.18 0 0 0 0 3.124c.353.347.794.554 1.252.622a114 114 0 0 1-7.129-.074" opacity=".4"/><path fill="currentColor" fill-rule="evenodd" d="M8.914 3.072C7.7 3.765 7.19 4.478 6.948 5.22c-.26.795-.24 1.693-.215 2.884l.002.078a1 1 0 0 1-.01.13l.838-.02c.913-.023 1.778-.044 3.128-.044a95 95 0 0 1 3.406.063l.145.006a10 10 0 0 1 .004-.61l.003-.095q.013-.354.013-.746c-.003-.588-.052-1.144-.206-1.572a3 3 0 0 1-.069-.161l-.001-.004-.015-.036-.066-.162a3 3 0 0 0-.255-.48c-.23-.352-.638-.82-1.411-1.293-1.408-.649-2.527-.401-3.325-.085m5.424 6.749h-.019l-.057-.003a63 63 0 0 0-1.02-.034 94 94 0 0 0-2.551-.037c-1.331 0-2.168.02-3.072.044-.416.01-.846.021-1.345.03h-.033c-.9-.022-2.362.18-3.058 1.79-.247.77-.392 2.023-.425 3.356-.034 1.34.047 2.663.209 3.518l.007.04.004.04c.06.756.45 1.793 1.688 2.351l.02.01.02.01c.316.166.787.24 1.42.265.245.01.49.011.746.013l.203.002c.321.003.658.01.977.037a.75.75 0 0 1-.13 1.494 12 12 0 0 0-.861-.031l-.189-.002c-.258-.002-.534-.004-.804-.014-.648-.026-1.407-.1-2.039-.425-1.828-.834-2.442-2.413-2.543-3.55-.184-.995-.263-2.415-.228-3.796.035-1.388.187-2.834.51-3.816l.01-.03.011-.027c.795-1.884 2.302-2.495 3.47-2.671a1 1 0 0 1-.024-.173L5.23 8.02c-.025-1.087-.05-2.221.291-3.266.381-1.17 1.189-2.163 2.698-3.013l.042-.023.044-.018c1.045-.423 2.652-.803 4.606.116l.036.017.033.02c.983.594 1.565 1.226 1.925 1.778a4.5 4.5 0 0 1 .461.911l.011.03.029.068.001.003.022.041.017.046c.263.694.312 1.487.315 2.128.001.288-.007.564-.014.799l-.002.092c-.008.27-.01.45-.002.565a1 1 0 0 1-.002.136c1.624.362 2.533 1.404 2.932 2.217a.75.75 0 0 1-1.348.66c-.284-.58-1.097-1.548-2.938-1.506l-.025.001zm-1.083 8.421c-.828 0-1.505.67-1.505 1.494 0 .817.671 1.48 1.505 1.48.83 0 1.495-.658 1.495-1.48 0-.828-.67-1.494-1.495-1.494m-3.005 1.494a3.003 3.003 0 0 1 4.543-2.57l1.902-1.855 1.427-1.374.018-.014.043-.038c.146-.13.485-.428.903-.572.256-.088.563-.13.897-.055.332.074.635.251.906.51l1.626 1.538a.75.75 0 0 1-1.03 1.09l-1.63-1.542c-.116-.11-.183-.129-.2-.133-.015-.003-.036-.005-.08.01a.8.8 0 0 0-.202.117c-.067.05-.121.096-.186.152l-.057.05-.833.8 1.047 1.005a.75.75 0 0 1-1.039 1.082l-1.086-1.042-1.372 1.34a2.982 2.982 0 0 1-2.592 4.482c-1.637 0-3.005-1.31-3.005-2.981" clip-rule="evenodd"/></svg>