<svg xmlns="http://www.w3.org/2000/svg" fill="none" viewBox="0 0 24 24"><path fill="currentColor" fill-rule="evenodd" d="M2.752 7.937c.104-2.1.415-3.41 1.347-4.34.93-.932 2.24-1.243 4.34-1.347h7.626c2.1.104 3.41.415 4.34 1.347.932.93 1.243 2.24 1.347 4.34v7.626c-.104 2.1-.415 3.41-1.347 4.34-.93.932-2.24 1.243-4.34 1.347H8.44c-2.1-.104-3.41-.415-4.34-1.347-.932-.93-1.243-2.24-1.347-4.34zm7.002 9.26c-.947-.042-1.725-.747-1.851-1.646a13 13 0 0 1-.151-1.801c0-.613.068-1.214.15-1.801.127-.9.905-1.604 1.852-1.646a56 56 0 0 1 2.498-.053c.891 0 1.7.018 2.498.053.947.042 1.725.747 1.851 1.646.083.587.151 1.188.151 1.801s-.068 1.214-.15 1.801c-.127.9-.905 1.604-1.852 1.646-.797.035-1.607.053-2.498.053s-1.7-.018-2.498-.053" clip-rule="evenodd" opacity=".4"/><path fill="currentColor" fill-rule="evenodd" d="M15.85 1.75a.75.75 0 1 0-.074 1.5c2.079.102 3.13.41 3.847 1.127s1.025 1.768 1.128 3.847a.75.75 0 0 0 1.498-.074c-.105-2.12-.42-3.688-1.565-4.834s-2.713-1.46-4.834-1.565m-7.626 1.5a.75.75 0 0 0-.074-1.5c-2.12.106-3.688.42-4.834 1.566S1.856 6.03 1.751 8.15a.75.75 0 1 0 1.498.074c.103-2.079.41-3.13 1.128-3.847.523-.523 1.223-.828 2.37-.995a16 16 0 0 1 1.477-.133M3.249 15.775a.75.75 0 0 0-1.498.074c.105 2.12.42 3.688 1.565 4.834s2.713 1.46 4.834 1.565a.75.75 0 1 0 .074-1.498c-2.079-.103-3.13-.41-3.847-1.128-.717-.717-1.025-1.768-1.128-3.847m19 .074a.75.75 0 1 0-1.498-.074 16 16 0 0 1-.133 1.477c-.167 1.147-.472 1.847-.995 2.37-.717.717-1.768 1.025-3.847 1.128a.75.75 0 1 0 .074 1.498c2.12-.105 3.688-.42 4.834-1.565s1.46-2.713 1.565-4.834M10.5 8.071c.803-1.195 2.474-1.021 3.055.108.129.25.189.596.203 1.042q.007.272 0 .558a101 101 0 0 0-3.52.003 9 9 0 0 1 .01-.667c.029-.492.115-.837.253-1.044m4.757 1.103c.008.252.003.5-.002.723.182.049.372.122.56.23.5.287.913.773 1.168 1.505l.01.027.006.029c.342 1.302.28 3.242.085 4.33l-.007.039-.01.038c-.23.787-.626 1.375-1.253 1.732-.588.335-1.28.405-1.963.405l-.574.001c-1.169.004-3.31.011-3.915-.04-.99-.084-2.15-.758-2.44-2.237l-.002-.01-.002-.01c-.303-1.819-.112-3.495.102-4.26l.005-.02.007-.02.008-.024c.095-.279.257-.755.634-1.14.277-.283.63-.482 1.066-.586-.005-.275-.006-.576.01-.858.033-.558.135-1.24.505-1.792 1.443-2.151 4.535-1.88 5.634.257.283.55.352 1.167.368 1.68m-5.725 2.128c1.357-.054 4.169-.043 4.924 0h.042c.212 0 .407.032.572.127.145.083.337.254.486.668.257 1.016.222 2.667.059 3.616-.151.496-.348.699-.543.81-.238.136-.602.209-1.22.209l-.643.001c-1.19.004-3.192.01-3.72-.035-.446-.037-.952-.322-1.093-1.02-.263-1.588-.088-3.021.063-3.58.101-.294.172-.46.287-.577.083-.085.264-.219.756-.219z" clip-rule="evenodd"/></svg>