<svg xmlns="http://www.w3.org/2000/svg" fill="none" viewBox="0 0 24 24"><path fill="currentColor" d="M12 21.983c5.52 0 10-4.477 10-10s-4.48-10-10-10-10 4.477-10 10 4.48 10 10 10" opacity=".4"/><path fill="currentColor" fill-rule="evenodd" d="M1.25 11.983c0 5.928 4.822 10.75 10.75 10.75s10.75-4.822 10.75-10.75S17.928 1.233 12 1.233 1.25 6.055 1.25 11.983m1.5 0c0-5.1 4.15-9.25 9.25-9.25s9.25 4.15 9.25 9.25-4.15 9.25-9.25 9.25-9.25-4.15-9.25-9.25m4.5 3a.75.75 0 0 0 1.5 0v-6a.75.75 0 0 0-1.5 0zm5.192-.402a.75.75 0 0 0 1.052-.136.75.75 0 0 0-.136-1.052c-.275-.212-.55-.444-.793-.664H17a.75.75 0 0 0 0-1.5h-4.428c.239-.212.508-.433.778-.636a.749.749 0 1 0-.9-1.2c-2.17 1.628-2.17 2.355-2.17 2.586s0 .937 2.162 2.602" clip-rule="evenodd"/></svg>