<svg xmlns="http://www.w3.org/2000/svg" fill="none" viewBox="0 0 24 24"><circle cx="12" cy="12" r="10" fill="currentColor" opacity=".4"/><path fill="currentColor" fill-rule="evenodd" d="M1.25 12C1.25 6.063 6.063 1.25 12 1.25S22.75 6.063 22.75 12 17.937 22.75 12 22.75 1.25 17.937 1.25 12M12 2.75a9.25 9.25 0 1 0 0 18.5 9.25 9.25 0 0 0 0-18.5M9.342 16.64a.75.75 0 0 1 1.018-.298c.468.256 1.03.408 1.64.408s1.173-.152 1.64-.408a.75.75 0 0 1 .72 1.316c-.69.378-1.5.592-2.36.592s-1.67-.214-2.36-.592a.75.75 0 0 1-.298-1.018M9 12a1 1 0 1 0 0 2h.007a1 1 0 1 0 0-2zm5.993 0a1 1 0 1 0 0 2H15a1 1 0 1 0 0-2z" clip-rule="evenodd"/></svg>