<svg xmlns="http://www.w3.org/2000/svg" fill="none" viewBox="0 0 24 24"><path fill="currentColor" d="M14.901 19.465c-1.94.047-3.862.047-5.802 0-3.149-.077-4.723-.115-5.854-1.211s-1.164-2.576-1.23-5.536a64 64 0 0 1 0-2.85c.046-2.039.075-3.375.46-4.368L12 10.328 21.526 5.5c.384.993.413 2.33.458 4.368.021.952.021 1.898 0 2.85-.053 2.419-.085 3.85-.712 4.89a3.12 3.12 0 0 0-.5-2.388 3.36 3.36 0 0 0-2.775-1.43 3.36 3.36 0 0 0-2.773 1.43 3.12 3.12 0 0 0 0 3.567c.169.243.371.464.6.654z" opacity=".4"/><path fill="currentColor" fill-rule="evenodd" d="M14.883 3.286a114 114 0 0 0-5.765 0c-1.597.04-2.712.07-3.574.22-.827.145-1.343.389-1.767.816a2.5 2.5 0 0 0-.436.581l5.941 3.373c1.24.704 2.01.978 2.717.978.434 0 .89-.103 1.464-.344a12 12 0 0 0 1.253-.634l5.944-3.374a2.5 2.5 0 0 0-.436-.58c-.424-.427-.94-.67-1.767-.815-.861-.15-1.977-.18-3.574-.22M2.766 9.551c.029-1.366.052-2.368.155-3.161l5.62 3.19c1.287.73 2.342 1.174 3.458 1.174.346 0 .686-.043 1.03-.123.763-.18 1.54-.547 2.427-1.05l5.624-3.193c.104.793.127 1.796.156 3.163.007.35.012.964.014 1.465a.75.75 0 1 0 1.5-.006 100 100 0 0 0-.015-1.49l-.001-.06c-.032-1.485-.057-2.684-.225-3.65-.175-1.013-.517-1.839-1.221-2.546-.707-.71-1.544-1.055-2.573-1.235-.984-.171-2.211-.202-3.736-.24l-.058-.002a116 116 0 0 0-5.84 0l-.059.001c-1.525.039-2.752.07-3.735.241-1.03.18-1.867.524-2.574 1.235-.703.707-1.045 1.533-1.221 2.547-.168.965-.193 2.164-.225 3.65l-.001.058c-.021.998-.021 1.99 0 2.988l.001.058c.032 1.486.057 2.684.225 3.65.176 1.014.518 1.84 1.221 2.547.707.71 1.544 1.055 2.574 1.235.983.171 2.21.202 3.735.24l.058.002a41 41 0 0 0 1.774.003l.122-.002h.032l.012-.001a.75.75 0 1 0-.04-1.5h-.008l-.03.001-.116.003a41 41 0 0 1-1.708-.004c-1.597-.04-2.712-.07-3.574-.22-.827-.144-1.343-.388-1.767-.815-.428-.43-.668-.94-.807-1.745-.146-.841-.171-1.926-.204-3.484a68 68 0 0 1 0-2.924M18.75 12.5a.75.75 0 0 0-1.5 0v.602a4.1 4.1 0 0 0-2.171 1.128l-.673-.432a.75.75 0 0 0-.812 1.261l.638.41a3.85 3.85 0 0 0 0 3.062l-.637.41a.75.75 0 1 0 .811 1.261l.673-.432a4.1 4.1 0 0 0 2.171 1.128v.602a.75.75 0 0 0 1.5 0v-.602a4.1 4.1 0 0 0 2.172-1.128l.672.432a.75.75 0 0 0 .811-1.261l-.637-.41a3.85 3.85 0 0 0 0-3.061l.638-.41a.75.75 0 1 0-.811-1.262l-.673.432a4.1 4.1 0 0 0-2.172-1.128zm-2.907 3.144A2.61 2.61 0 0 1 18 14.536c.908 0 1.698.445 2.157 1.108a2.37 2.37 0 0 1 0 2.712A2.61 2.61 0 0 1 18 19.464a2.61 2.61 0 0 1-2.157-1.108 2.37 2.37 0 0 1 0-2.712" clip-rule="evenodd"/></svg>