<svg xmlns="http://www.w3.org/2000/svg" fill="none" viewBox="0 0 24 24"><path fill="currentColor" d="m14.511 16.5 3.72 1.12a4.06 4.06 0 0 1 2.76 2.89c.14.54-.33.99-.88.99H3.921c-.56 0-1.02-.45-.88-.99a4.06 4.06 0 0 1 2.76-2.89l3.72-1.12v-1.94c-1.78-1.39-3-3.06-3-6.64s1.96-5.42 4.99-5.42c2.15 0 3.05 1 3.05 1 2.54 0 2.96 2.1 2.96 4.42 0 3.58-1.22 5.25-3 6.64v1.94z" opacity=".4"/><path fill="currentColor" d="M20.103 22.25H3.913c-.53 0-1.03-.24-1.34-.64a1.49 1.49 0 0 1-.27-1.29 4.82 4.82 0 0 1 3.27-3.42l3.18-.96v-1.02c-1.59-1.31-3-3.13-3-7s2.15-6.17 5.74-6.17c1.83 0 2.88.64 3.34 1.01 3.42.2 3.42 3.79 3.42 5.16 0 3.87-1.41 5.69-3 7v1.02l3.18.96c1.61.49 2.86 1.8 3.27 3.42.11.45.02.92-.27 1.29-.31.4-.81.64-1.34.64zm-8.6-19c-2.74 0-4.24 1.66-4.24 4.67 0 3.27 1.04 4.74 2.71 6.05.18.14.29.36.29.59v1.94c0 .33-.22.62-.53.72l-3.72 1.12c-1.1.33-1.97 1.24-2.25 2.36 0 .01.07.06.16.06h16.19c.09 0 .15-.04.16-.06a3.37 3.37 0 0 0-2.25-2.35l-3.71-1.12a.75.75 0 0 1-.53-.72v-1.94c0-.23.11-.45.29-.59 1.67-1.31 2.71-2.77 2.71-6.05 0-3.06-.85-3.67-2.21-3.67a.75.75 0 0 1-.56-.25c-.02-.02-.74-.75-2.49-.75z"/></svg>