<svg xmlns="http://www.w3.org/2000/svg" fill="none" viewBox="0 0 24 24"><path fill="currentColor" d="M11 2c4.87 0 9 4.033 9 8.926q0 .51-.058 1.001A5.17 5.17 0 0 0 17 11c-.91 0-1.798.246-2.568.69q.068-.335.068-.69a3.5 3.5 0 1 0-2.24 3.267c-.849 2.366.518 4.203 2.154 5.81a31 31 0 0 1-2.487 1.68 1.89 1.89 0 0 1-1.854 0C6.203 19.362 2 15.914 2 10.926 2 6.033 6.13 2 11 2" opacity=".4"/><path fill="currentColor" fill-rule="evenodd" d="M3.376 7.675C4.655 4.685 7.742 2.75 11 2.75c3.677 0 7.49 2.772 8.266 6.406a.75.75 0 0 0 1.467-.312C19.795 4.44 15.304 1.25 11 1.25c-3.826 0-7.476 2.263-9.004 5.835-1.422 3.324-.652 6.152.95 8.574 1.314 1.986 3.231 3.759 4.96 5.358h.001q.496.458.962.896l.002.002a3.12 3.12 0 0 0 2.13.835c.72 0 1.419-.247 1.972-.7a.75.75 0 1 0-.948-1.161c-.283.23-.646.361-1.025.361-.416 0-.81-.157-1.103-.43q-.5-.47-1.009-.94c-1.73-1.602-3.486-3.228-4.69-5.048-1.403-2.12-1.997-4.414-.823-7.157M8.25 11a2.75 2.75 0 0 1 5.108-1.417.75.75 0 0 0 1.284-.774 4.25 4.25 0 1 0-5.464 6.031.75.75 0 1 0 .644-1.354A2.75 2.75 0 0 1 8.25 11m8.75.75c-1.689 0-3.277.995-3.93 2.506-.594 1.376-.306 2.515.427 3.612.645.965 1.584 1.826 2.545 2.708q.286.262.57.526c.1.092.238.148.388.148s.29-.056.388-.148l.532-.489.002-.001v-.001c.976-.891 1.93-1.764 2.582-2.74.733-1.1 1.02-2.241.427-3.615-.654-1.511-2.242-2.506-3.93-2.506m-5.307 1.911c.906-2.097 3.06-3.411 5.307-3.411s4.401 1.314 5.308 3.411c.846 1.96.379 3.64-.556 5.041-.763 1.144-1.879 2.161-2.848 3.045l-.496.455A2.07 2.07 0 0 1 17 22.75c-.52 0-1.025-.193-1.408-.548l-.001-.002q-.252-.234-.524-.482h-.001c-.96-.879-2.06-1.887-2.816-3.016-.936-1.4-1.405-3.08-.557-5.04M17 15a1 1 0 1 0 0 2h.01a1 1 0 1 0 0-2z" clip-rule="evenodd"/></svg>