<svg xmlns="http://www.w3.org/2000/svg" fill="none" viewBox="0 0 24 24"><path fill="currentColor" d="m4.026 4.42 1.227-.716C6.591 2.922 7.263 2.53 8 2.502h.012c.741-.025 1.437.323 2.828 1.02l3.332 1.666c.824.413.832.415 1.75.415H18c1.886 0 2.828 0 3.414.603C22 6.808 22 7.778 22 9.717v5.752a1.3 1.3 0 0 0-.154-.617c-.087-.164-.24-.321-.548-.635-.307-.314-.46-.47-.622-.56a1.24 1.24 0 0 0-1.241.019c-.158.094-.307.255-.605.578l-3.714 4.024c-.161.174-.296.32-.408.448L11 18.614q-.28-.143-.565-.3c-.616-.334-1.255-.682-1.93-.775-1.006-.138-1.824.341-2.662.832l-.123.073c-1.298.758-1.948 1.137-2.478 1.042a1.5 1.5 0 0 1-.9-.54C2 18.52 2 17.752 2 16.217V7.999c0-1.17 0-1.753.272-2.233.271-.48.765-.769 1.754-1.346" opacity=".4"/><path fill="currentColor" fill-rule="evenodd" d="m14.507 4.518-3.363-1.683c-.669-.335-1.217-.61-1.69-.793-.495-.192-.96-.307-1.466-.29-.507.016-.963.16-1.445.385-.46.214-.99.523-1.637.901l-1.259.735-.03.018c-.468.273-.866.505-1.178.732-.332.241-.613.508-.82.873-.206.364-.292.744-.332 1.156-.037.388-.037.857-.037 1.412v8.291c0 .735 0 1.34.046 1.815.047.478.15.958.46 1.346.34.423.819.712 1.353.808.495.089.963-.06 1.394-.257.426-.193.94-.493 1.56-.855l.056-.033c.933-.544 1.54-.899 2.284-.797.325.045.667.174 1.053.365.192.094.384.198.587.308l.037.02c.187.102.386.21.584.31a.75.75 0 1 0 .672-1.342 15 15 0 0 1-.546-.29l-.03-.016c-.202-.109-.418-.226-.641-.336-.405-.2-.866-.392-1.369-.482V3.381q.077.026.16.06c.4.155.886.397 1.594.75l3.332 1.668.056.028q.19.096.358.176V13.5a.75.75 0 0 0 1.5 0V6.353H18c.965 0 1.61.002 2.092.068.457.063.653.172.785.307.134.138.243.348.306.83.066.5.067 1.17.067 2.16v.782a.75.75 0 0 0 1.5 0v-.834c0-.926 0-1.694-.08-2.303-.083-.64-.266-1.216-.718-1.68-.455-.468-1.023-.66-1.655-.748-.596-.082-1.346-.082-2.244-.082h-2.132c-.283 0-.447-.002-.556-.008a.75.75 0 0 0-.378-.095c-.1-.044-.245-.115-.48-.232M7.25 3.463V16.89c-.672.179-1.254.522-1.746.812l-.162.095c-.664.387-1.112.648-1.46.806-.35.16-.472.152-.507.145a.74.74 0 0 1-.447-.27c-.032-.039-.1-.157-.139-.553-.038-.392-.039-.924-.039-1.708V7.999c0-.599 0-.995.03-1.303.029-.292.079-.445.144-.56s.167-.233.397-.4c.243-.177.576-.372 1.083-.668l1.228-.717c.684-.4 1.154-.673 1.544-.854zm13.79 9.538a1.99 1.99 0 0 0-1.988.03c-.256.152-.477.393-.716.652l-.058.063-3.713 4.023-.07.075c-.416.451-.741.803-.933 1.244s-.229.92-.277 1.538l-.008.104-.01.138-.002.024a3 3 0 0 0-.013.374c.009.156.049.402.243.622a1 1 0 0 0 .597.319c.125.02.268.024.37.027h.024l.112.003.122.003c.704.02 1.261.035 1.78-.168.517-.202.92-.591 1.432-1.085l.088-.085 3.762-3.623.06-.058c.255-.245.49-.47.638-.73.35-.613.36-1.367.028-1.99-.14-.264-.368-.496-.615-.749l-.06-.06-.059-.06c-.246-.252-.474-.486-.734-.63m-1.222 1.32a.49.49 0 0 1 .494-.008c.041.023.105.076.45.429.344.351.398.417.422.463.09.17.087.377-.008.544-.025.044-.08.108-.435.45l-3.761 3.62c-.644.62-.823.775-1.026.854-.189.074-.405.085-1.173.066.054-.683.081-.882.156-1.055.078-.18.212-.338.73-.9l3.714-4.023c.334-.363.396-.419.437-.443" clip-rule="evenodd"/></svg>