<svg xmlns="http://www.w3.org/2000/svg" fill="none" viewBox="0 0 24 24"><path fill="currentColor" fill-rule="evenodd" d="M2.273 12c0-5.523 4.478-10 10-10s10 4.477 10 10l-5 1.5-.156-.21a2.4 2.4 0 0 1-.227-.403l-.024-.05c-.315-.65-.976-.837-1.71-.837H9.39c-.82 0-1.547.233-1.806 1.082l-.312.418zm7.118 7h5.765c.819 0 1.546-.232 1.805-1.08l.313-.42 3.5-.5.184-.04A10 10 0 0 1 12.274 22a10 10 0 0 1-8.682-5.034l.182.034 3.5.5.313.42c.258.848.986 1.08 1.804 1.08" clip-rule="evenodd" opacity=".4"/><path fill="currentColor" fill-rule="evenodd" d="M3.04 11.447a9.25 9.25 0 0 1 18.467 0l-3.916 1.175a2.08 2.08 0 0 0-.977-1.065c-.468-.243-.99-.307-1.458-.307H9.391c-.468 0-.991.064-1.459.307-.428.223-.77.575-.977 1.065zm-1.516.573v-.04c.01-5.927 4.819-10.73 10.75-10.73 5.932 0 10.742 4.805 10.75 10.735v.031c-.01 5.93-4.819 10.734-10.75 10.734-5.93 0-10.74-4.802-10.75-10.73m1.556 1.005 3.533 1.06c-.107.82-.118 1.722-.031 2.559l-2.508-.358a9.2 9.2 0 0 1-.994-3.26m2.12 4.937a9.23 9.23 0 0 0 7.074 3.288 9.23 9.23 0 0 0 7.072-3.288l-1.689.241a2.1 2.1 0 0 1-1.043 1.24c-.468.243-.99.307-1.458.307H9.391c-.467 0-.99-.064-1.457-.306a2.1 2.1 0 0 1-1.044-1.241zm12.766-1.318c.086-.837.076-1.738-.032-2.559l3.534-1.06a9.2 9.2 0 0 1-.995 3.26zM8.98 7.75c-.652 0-1.277.259-1.738.72a.75.75 0 0 0 1.061 1.06c.18-.18.423-.28.677-.28h1.293a.75.75 0 1 0 0-1.5zm5.293 0a.75.75 0 0 0 0 1.5h1.293c.253 0 .497.1.676.28a.75.75 0 0 0 1.061-1.06 2.46 2.46 0 0 0-1.737-.72zm-5.65 5.138c-.138.072-.25.18-.321.413-.373 1.225-.372 3.176.001 4.4.07.23.183.34.32.41.166.087.416.139.767.139h5.765c.351 0 .601-.052.767-.138.137-.071.25-.18.32-.411.374-1.225.374-3.177 0-4.401-.07-.232-.183-.34-.32-.412-.166-.086-.416-.138-.767-.138H9.391c-.351 0-.602.052-.768.138" clip-rule="evenodd"/></svg>