<svg xmlns="http://www.w3.org/2000/svg" fill="none" viewBox="0 0 24 24"><path fill="currentColor" d="M15.753 3.331a8.3 8.3 0 0 0-1.582-.26 33 33 0 0 0-4.342 0c-4.183.278-7.515 3.657-7.789 7.9a20 20 0 0 0 0 2.52c.1 1.545.783 2.976 1.588 4.184.467.845.159 1.9-.328 2.823-.35.665-.526.997-.385 1.237.14.24.455.248 1.084.263 1.245.03 2.084-.322 2.75-.813.377-.279.566-.418.696-.434s.387.09.899.3c.46.19.995.307 1.485.34 1.425.094 2.914.094 4.342 0 4.183-.278 7.515-3.658 7.789-7.9.053-.83.053-1.69 0-2.52a8.6 8.6 0 0 0-.828-3.164 3.5 3.5 0 0 1-5.38-4.476" opacity=".4"/><path fill="currentColor" fill-rule="evenodd" d="M15.75 5.5a2.75 2.75 0 1 1 5.5 0 2.75 2.75 0 0 1-5.5 0m2.75-4.25a4.25 4.25 0 1 0 0 8.5 4.25 4.25 0 0 0 0-8.5m-6.034 2.533c-1.185-.054-1.405-.042-2.587.036-3.8.253-6.84 3.325-7.09 7.2a19 19 0 0 0 0 2.424c.088 1.36.694 2.662 1.463 3.816l.032.053c.669 1.21.179 2.59-.32 3.536a22 22 0 0 0-.205.393l.259.007c1.068.026 1.746-.27 2.286-.667l.017-.013c.174-.128.331-.244.461-.328.114-.074.32-.203.572-.234.263-.032.519.058.646.102.163.058.37.143.61.242l.02.008c.379.156.833.256 1.25.284 1.39.093 2.847.093 4.24 0 3.8-.252 6.84-3.325 7.091-7.2.052-.797.052-1.625 0-2.423a.75.75 0 1 1 1.497-.097c.056.863.056 1.755 0 2.617-.298 4.61-3.921 8.296-8.488 8.6-1.46.097-2.983.097-4.44 0a5.6 5.6 0 0 1-1.722-.394 16 16 0 0 0-.518-.208c-.08.056-.189.135-.346.251-.793.585-1.793.994-3.213.96l-.046-.001c-.273-.007-.565-.014-.803-.06-.287-.055-.642-.194-.864-.573-.242-.412-.145-.828-.051-1.09.088-.248.242-.539.398-.835l.022-.041c.466-.884.596-1.606.347-2.088-.833-1.256-1.581-2.804-1.692-4.52a21 21 0 0 1 0-2.618c.298-4.61 3.921-8.296 8.488-8.6 1.223-.08 1.501-.094 2.754-.038a.75.75 0 1 1-.068 1.499M7.75 15c0 .414.336.75.75.75h7a.75.75 0 0 0 0-1.5h-7a.75.75 0 0 0-.75.75m0-5c0 .414.336.75.75.75H12a.75.75 0 0 0 0-1.5H8.5a.75.75 0 0 0-.75.75" clip-rule="evenodd"/></svg>