<svg xmlns="http://www.w3.org/2000/svg" fill="none" viewBox="0 0 24 24"><path fill="currentColor" d="M14.17 21.39c4.184-.277 7.516-3.657 7.79-7.9.053-.83.053-1.69 0-2.52-.274-4.242-3.606-7.62-7.79-7.899a33 33 0 0 0-4.34 0c-4.184.278-7.516 3.657-7.79 7.9a20 20 0 0 0 0 2.52c.1 1.545.783 2.976 1.588 4.184.467.845.159 1.9-.328 2.823-.35.665-.526.997-.385 1.237.14.24.455.248 1.084.263 1.245.03 2.084-.322 2.75-.813.377-.279.566-.418.696-.434s.387.09.899.3c.46.19.995.307 1.485.34 1.425.094 2.914.094 4.342 0" opacity=".4"/><path fill="currentColor" fill-rule="evenodd" d="M20.023 1.462a.75.75 0 1 0-1.046 1.076 9 9 0 0 0 .664.551l.057.045c.245.193.508.4.757.61l.007.006H14a.75.75 0 0 0 0 1.5h6.462l-.007.006c-.249.21-.512.417-.757.61l-.057.045a9 9 0 0 0-.664.551.75.75 0 1 0 1.046 1.076c.091-.089.273-.235.544-.448l.06-.047c.242-.19.526-.413.797-.643.291-.246.593-.521.828-.797.117-.138.233-.293.323-.46.086-.162.175-.385.175-.643s-.089-.48-.175-.642a2.7 2.7 0 0 0-.323-.461 7.4 7.4 0 0 0-.828-.797c-.27-.23-.555-.453-.797-.643l-.06-.047a9 9 0 0 1-.544-.448M11.75 2.478a.75.75 0 0 1-.728.772q-.577.017-1.143.055c-3.799.252-6.84 3.327-7.09 7.205a19 19 0 0 0 0 2.426c.088 1.361.695 2.665 1.463 3.82l.033.053c.668 1.21.178 2.59-.321 3.537-.082.156-.15.284-.205.395l.259.007c1.068.026 1.746-.27 2.285-.668l.018-.012c.174-.129.331-.245.461-.33.113-.072.32-.202.572-.232.263-.033.519.057.646.102.164.057.37.142.61.241l.02.008c.38.157.833.257 1.25.285a32 32 0 0 0 4.24 0c3.8-.253 6.84-3.327 7.091-7.206.052-.799.052-1.627 0-2.426a8 8 0 0 0-.227-1.438.75.75 0 1 1 1.454-.37q.212.83.27 1.712c.056.863.056 1.755 0 2.619-.298 4.612-3.92 8.302-8.488 8.605a34 34 0 0 1-4.44 0 5.6 5.6 0 0 1-1.722-.394c-.238-.098-.4-.165-.518-.208-.08.056-.189.136-.346.252-.792.584-1.793.995-3.213.96l-.046-.001c-.273-.007-.565-.014-.804-.06-.287-.055-.641-.194-.863-.573-.242-.412-.145-.829-.051-1.091.088-.248.242-.538.398-.835l.022-.041c.466-.885.596-1.608.347-2.09-.833-1.258-1.581-2.807-1.692-4.524a21 21 0 0 1 0-2.62c.298-4.612 3.92-8.301 8.488-8.605a33 33 0 0 1 1.198-.058.75.75 0 0 1 .772.728M7.75 15c0 .414.336.75.75.75h7a.75.75 0 0 0 0-1.5h-7a.75.75 0 0 0-.75.75m0-5c0 .414.336.75.75.75H12a.75.75 0 0 0 0-1.5H8.5a.75.75 0 0 0-.75.75" clip-rule="evenodd"/></svg>