<svg xmlns="http://www.w3.org/2000/svg" fill="none" viewBox="0 0 24 24"><path fill="currentColor" d="M17.238 3.895c-.94-.46-1.97-.75-3.07-.82-1.43-.1-2.92-.1-4.34 0-4.18.28-7.52 3.66-7.79 7.9-.05.83-.05 1.69 0 2.52.1 1.54.78 2.98 1.59 4.18.47.85.16 1.9-.33 2.83-.35.66-.53.99-.39 1.23.15.24.46.25 1.09.27 1.24.03 2.08-.33 2.75-.82.38-.28.57-.41.7-.43s.38.09.89.3c.46.19 1 .31 1.49.34 1.42.09 2.91.09 4.34 0 4.18-.28 7.52-3.66 7.79-7.9.05-.83.05-1.69 0-2.52a8.56 8.56 0 0 0-1.6-4.46l-2.47 2.47c-.53.52-1.26.65-1.98.77-.19.03-.38.07-.56.1-.69.15-1.04.23-1.23.03-.2-.19-.12-.54.02-1.23.04-.18.08-.37.11-.56.12-.72.25-1.46.77-1.98z" opacity=".4"/><path fill="currentColor" fill-rule="evenodd" d="M14.518 10.75a1.25 1.25 0 0 1-1.222-1.522l.476-2.211a2.7 2.7 0 0 1 .756-1.436l3.67-3.67a2.24 2.24 0 0 1 1.594-.661h.01a2.22 2.22 0 0 1 1.579.664l.688.688a2.24 2.24 0 0 1 0 3.179l-3.614 3.694-.015.015a2.84 2.84 0 0 1-1.417.744l-2.244.489-.012.003a1.2 1.2 0 0 1-.25.025m5.274-8c-.2 0-.39.079-.533.223l-3.67 3.669a1.2 1.2 0 0 0-.342.649l-.006.029-.4 1.855 1.868-.406.012-.003c.252-.05.484-.17.67-.348l3.612-3.69.01-.01a.73.73 0 0 0 .218-.519.75.75 0 0 0-.223-.537l-.69-.69-.004-.004a.73.73 0 0 0-.518-.218zM4.146 22.748l-.166-.002c-.725-.023-1.346-.043-1.708-.622l-.006-.01-.006-.01c-.348-.596-.052-1.152.356-1.922l.001-.002.019-.035c.479-.909.597-1.612.35-2.09-1.03-1.535-1.6-3.055-1.695-4.518a22 22 0 0 1 0-2.614c.293-4.6 3.942-8.297 8.488-8.6 1.2-.08 2.462-.094 3.751-.042a.75.75 0 0 1-.03 1.5h-.031a33 33 0 0 0-3.589.038c-3.798.254-6.846 3.35-7.091 7.197a21 21 0 0 0 0 2.427c.078 1.2.57 2.482 1.463 3.804l.035.057c.525.949.416 2.14-.323 3.542l-.02.037-.044.083-.141.27c.086.005.178.008.265.01.907.022 1.614-.187 2.283-.676.459-.338.714-.518 1.029-.566.325-.05.605.065 1.16.295l.008.003.122.05c.377.155.832.26 1.25.285 1.386.088 2.854.088 4.247 0 3.795-.254 6.844-3.348 7.089-7.197a21 21 0 0 0 0-2.427 6 6 0 0 0-.035-.415.75.75 0 0 1 1.487-.2c.024.177.035.353.045.523.052.868.052 1.746 0 2.612-.293 4.6-3.942 8.297-8.488 8.6a36 36 0 0 1-4.438 0 5.6 5.6 0 0 1-1.73-.394l-.121-.05-.038-.016a15 15 0 0 0-.351-.141c-.089.06-.205.144-.29.206l-.057.042c-.901.659-1.872.968-3.047.968zM11 12.5a1 1 0 1 0 2 0 1 1 0 0 0-2 0m-3.996 0c0 .552.453 1 1.005 1a1 1 0 0 0 0-2h-.01a.996.996 0 0 0-.995 1" clip-rule="evenodd"/></svg>