<svg xmlns="http://www.w3.org/2000/svg" fill="none" viewBox="0 0 24 24"><path fill="currentColor" fill-rule="evenodd" d="M6.398 3.063s2.243 1.282 5.91 4.665l2.489-2.49c-4.232-2.817-8.399-2.175-8.399-2.175m14.54 14.539s.641-4.166-2.176-8.398l-2.489 2.489c3.384 3.666 4.665 5.909 4.665 5.909M5.437 20.608a1.447 1.447 0 0 1-2.045-2.045l7.086-7.085 2.044 2.044z" clip-rule="evenodd" opacity=".4"/><path fill="currentColor" fill-rule="evenodd" d="m14.773 4.258.134-.135a1.54 1.54 0 0 1 2.18.003l2.787 2.787c.6.6.606 1.576.003 2.18l-.135.134c.427.78.935 1.886 1.333 3.147.492 1.558.833 3.41.6 5.203a.75.75 0 0 1-1.361.329c-1.26-1.828-1.968-2.84-4.058-5.215-.605.453-1.465.4-2.012-.147l-2.788-2.788a1.54 1.54 0 0 1-.147-2.012c-2.375-2.09-3.387-2.799-5.215-4.058a.75.75 0 0 1 .329-1.361c1.793-.233 3.645.109 5.203.6a18 18 0 0 1 3.147 1.333M12.36 6.67l1.302-1.303a17 17 0 0 0-2.487-1.012 13.5 13.5 0 0 0-2.262-.516c.962.711 1.943 1.506 3.447 2.83m4.97 4.969c1.324 1.504 2.119 2.485 2.83 3.447a13.5 13.5 0 0 0-.516-2.262 17 17 0 0 0-1.012-2.487zm-1.304-6.454a.04.04 0 0 0-.058-.002l-3.454 3.454a.04.04 0 0 0 .003.057l2.788 2.788a.04.04 0 0 0 .057.003l3.454-3.454a.04.04 0 0 0-.002-.058zm-5.023 5.702a.75.75 0 0 1 0 1.06l-7.05 7.05c-.27.27-.279.73.02 1.03a.73.73 0 0 0 1.03.018l7.049-7.049a.75.75 0 1 1 1.06 1.06l-7.05 7.05c-.873.874-2.284.847-3.15-.02-.866-.865-.893-2.276-.019-3.15l7.05-7.049a.75.75 0 0 1 1.06 0" clip-rule="evenodd"/></svg>