<svg xmlns="http://www.w3.org/2000/svg" fill="none" viewBox="0 0 24 24"><path fill="currentColor" d="M13.5 20h-3c-3.759 0-5.638 0-6.893-.99a4.4 4.4 0 0 1-.554-.523C2 17.307 2 15.537 2 12s0-5.306 1.053-6.487q.253-.284.554-.522c.256-.202.538-.363.856-.491l5.731 5.717a2.5 2.5 0 1 0 3.54 3.531L19.5 19.5c-1.243.5-3.008.5-6 .5" opacity=".4"/><path fill="currentColor" fill-rule="evenodd" d="M2.53 1.47a.75.75 0 0 0-1.06 1.06l1.786 1.786-.113.086q-.353.279-.65.612c-.666.747-.964 1.653-1.105 2.764-.138 1.08-.138 2.445-.138 4.17v.105c0 1.724 0 3.09.138 4.17.141 1.11.439 2.016 1.105 2.763q.297.334.65.612c.783.619 1.725.892 2.888 1.024 1.138.128 2.582.128 4.422.128h3.071c1.476 0 2.685 0 3.68-.064.789-.05 1.481-.143 2.097-.325l2.169 2.17a.75.75 0 1 0 1.06-1.061l-2.493-2.494-.012-.012-5.7-5.7a1 1 0 0 0-.108-.107L10.79 9.73a1 1 0 0 0-.108-.109zm6.672 8.792L4.336 5.397q-.139.084-.264.183-.25.197-.46.432c-.386.434-.615 1.003-.736 1.956C2.75 8.94 2.75 10.212 2.75 12c0 1.789.001 3.06.126 4.033.121.952.35 1.521.737 1.955q.208.234.46.433c.47.372 1.095.594 2.126.71 1.045.118 2.404.12 4.301.12h3c1.505 0 2.667-.001 3.608-.062q.516-.033.929-.091l-4.352-4.353a3.25 3.25 0 0 1-4.483-4.483m3.37 3.37-2.258-2.257a1.75 1.75 0 0 0 2.258 2.258M13.5 4.75c1.897 0 3.256.001 4.301.12 1.03.116 1.655.337 2.127.71q.25.197.46.432c.386.434.615 1.003.736 1.956.125.973.126 2.243.126 4.032 0 2.359-.006 3.797-.27 4.811a.75.75 0 1 0 1.452.378c.318-1.224.318-2.862.318-5.067v-.175c0-1.724 0-3.09-.138-4.17-.141-1.11-.439-2.016-1.105-2.763a5 5 0 0 0-.65-.612c-.783-.618-1.725-.892-2.888-1.023-1.138-.129-2.582-.129-4.422-.129h-3.053c-.941 0-1.774 0-2.51.016a.75.75 0 1 0 .032 1.5c.718-.016 1.536-.016 2.484-.016zM19.51 12a1 1 0 0 0-1-1h-.01a1 1 0 1 0 0 2h.01a1 1 0 0 0 1-1M5.5 11a1 1 0 1 1 0 2h-.009a1 1 0 1 1 0-2z" clip-rule="evenodd"/></svg>