<svg xmlns="http://www.w3.org/2000/svg" fill="none" viewBox="0 0 24 24"><path fill="currentColor" fill-rule="evenodd" d="M3.053 7.513C2 8.693 2 10.463 2 14s0 5.306 1.053 6.487q.253.284.554.522C4.862 22 6.741 22 10.5 22h3c3.759 0 5.638 0 6.892-.99q.302-.24.555-.523C22 19.307 22 17.537 22 14s0-5.306-1.053-6.487a4.4 4.4 0 0 0-.555-.522C19.138 6 17.26 6 13.5 6h-3c-3.759 0-5.638 0-6.893.99q-.301.24-.554.523M12 16.5a2.5 2.5 0 1 0 0-5 2.5 2.5 0 0 0 0 5" clip-rule="evenodd" opacity=".4"/><path fill="currentColor" fill-rule="evenodd" d="M10.038 5.023a9 9 0 0 0 .551-.664l.045-.057c.193-.245.4-.508.61-.757l.006-.007V8a.75.75 0 0 0 1.5 0V3.538l.006.007c.21.249.417.512.61.757l.045.057c.192.245.394.502.551.664a.75.75 0 1 0 1.076-1.046 9 9 0 0 1-.448-.544l-.047-.06a28 28 0 0 0-.643-.797 7.4 7.4 0 0 0-.797-.827 2.7 2.7 0 0 0-.46-.324A1.4 1.4 0 0 0 12 1.25c-.258 0-.48.089-.642.175-.168.09-.323.206-.461.324a7.4 7.4 0 0 0-.797.827c-.23.27-.453.555-.643.797l-.047.06a9 9 0 0 1-.448.544.75.75 0 1 0 1.076 1.046m-3.292.903a.75.75 0 0 1-.672.82c-1.234.123-1.899.385-2.37.86-.424.426-.679 1.011-.814 2.025-.138 1.035-.14 2.4-.14 4.318 0 1.919.002 3.283.14 4.318.135 1.014.39 1.599.814 2.025s1.002.681 2.007.817c1.028.14 2.382.141 4.289.141h4c1.907 0 3.261-.002 4.288-.14 1.006-.137 1.585-.392 2.008-.818.425-.426.679-1.011.814-2.025.138-1.035.14-2.4.14-4.318 0-1.919-.002-3.283-.14-4.318-.135-1.014-.39-1.599-.814-2.025-.471-.475-1.136-.737-2.37-.86a.75.75 0 1 1 .148-1.492c1.367.135 2.452.454 3.286 1.294.748.753 1.08 1.706 1.237 2.885.153 1.145.153 2.61.153 4.46v.112c0 1.85 0 3.315-.153 4.46-.158 1.179-.489 2.132-1.237 2.885s-1.697 1.087-2.87 1.246c-1.14.154-2.596.154-4.433.154H9.943c-1.837 0-3.293 0-4.433-.154-1.173-.159-2.122-.493-2.87-1.246s-1.08-1.706-1.237-2.885c-.153-1.145-.153-2.61-.153-4.46v-.112c0-1.85 0-3.315.153-4.46.157-1.179.489-2.132 1.237-2.885.834-.84 1.92-1.159 3.286-1.294a.75.75 0 0 1 .82.672M19.508 14a1 1 0 0 0-1-1h-.01a1 1 0 1 0 0 2h.01a1 1 0 0 0 1-1m-14-1a1 1 0 1 1 0 2h-.01a1 1 0 1 1 0-2zM12 12.25a1.75 1.75 0 1 0 0 3.5 1.75 1.75 0 0 0 0-3.5M8.75 14a3.25 3.25 0 1 1 6.5 0 3.25 3.25 0 0 1-6.5 0" clip-rule="evenodd"/></svg>