<svg xmlns="http://www.w3.org/2000/svg" fill="none" viewBox="0 0 24 24"><path fill="currentColor" fill-rule="evenodd" d="M7 20.5c1.917 0 3.668-.378 5-1s3.083-1 5-1c1.066 0 2.08.117 3 .327.96.22 2-.456 2-1.441V6.614c0-1.494-.418-2.424-2-2.787-.92-.21-1.934-.327-3-.327-1.917 0-3.668.378-5 1s-3.083 1-5 1c-1.066 0-2.08-.117-3-.327-.96-.22-2 .456-2 1.441v10.772c0 1.54.5 2.443 2 2.787.92.21 1.934.327 3 .327m5-6a2.5 2.5 0 1 0 0-5 2.5 2.5 0 0 0 0 5" clip-rule="evenodd" opacity=".4"/><path fill="currentColor" fill-rule="evenodd" d="M12.317 5.18c1.218-.57 2.857-.93 4.683-.93 1.012 0 1.97.11 2.833.308.664.153.966.393 1.132.647.183.283.285.712.285 1.409v10.772c0 .402-.49.846-1.083.71A14.3 14.3 0 0 0 17 17.75c-2.008 0-3.87.395-5.317 1.07-1.218.57-2.857.93-4.683.93-1.012 0-1.97-.11-2.833-.308-.664-.153-.966-.393-1.131-.647-.184-.283-.286-.712-.286-1.409V6.614c0-.402.49-.846 1.083-.71A14.3 14.3 0 0 0 7 6.25c2.008 0 3.87-.395 5.317-1.07M17 2.75c-2.008 0-3.87.395-5.317 1.07-1.218.57-2.857.93-4.683.93-1.012 0-1.97-.11-2.833-.308-1.326-.304-2.917.605-2.917 2.172v10.772c0 .797.107 1.58.528 2.227.44.675 1.138 1.08 2.055 1.29.976.224 2.047.347 3.167.347 2.008 0 3.87-.395 5.317-1.07 1.218-.57 2.857-.93 4.683-.93 1.012 0 1.97.11 2.833.308 1.326.304 2.917-.605 2.917-2.172V6.614c0-.797-.107-1.58-.528-2.227-.44-.675-1.138-1.08-2.055-1.29A14.3 14.3 0 0 0 17 2.75M10.25 12a1.75 1.75 0 1 1 3.5 0 1.75 1.75 0 0 1-3.5 0M12 8.75a3.25 3.25 0 1 0 0 6.5 3.25 3.25 0 0 0 0-6.5M5.5 12a1 1 0 0 1 1 1v.009a1 1 0 1 1-2 0V13a1 1 0 0 1 1-1m14-1.008a1 1 0 1 0-2 0v.01a1 1 0 1 0 2 0z" clip-rule="evenodd"/></svg>