<svg xmlns="http://www.w3.org/2000/svg" fill="none" viewBox="0 0 24 24"><path fill="currentColor" d="M16.19 3.246a6.11 6.11 0 0 0-.435 6.865c1.308 2.217 3.8 3.348 6.245 3.07C21.032 16.54 17.886 19 14.153 19 9.65 19 6 15.418 6 11s3.65-8 8.153-8c.662 0 1.42.1 2.036.246" opacity=".4"/><path fill="currentColor" fill-rule="evenodd" d="M10.448 4.726a7.5 7.5 0 0 1 4.472-.936 6.86 6.86 0 0 0 .157 6.702c1.26 2.142 3.5 3.373 5.833 3.474a7.2 7.2 0 0 1-1.852 2.466.75.75 0 1 0 .98 1.136 8.7 8.7 0 0 0 2.683-4.185.75.75 0 0 0-.812-.952c-2.172.265-4.385-.739-5.54-2.7a5.38 5.38 0 0 1 .382-6.027.75.75 0 0 0-.413-1.186 9 9 0 0 0-6.63.902c-3.025 1.714-4.644 4.913-4.441 8.127a.75.75 0 0 0 1.497-.094C6.597 8.8 7.932 6.15 10.447 4.726M9.75 14a1.25 1.25 0 1 1 2.333.624c-.18.311-.62.696-1.34 1.032-.702.328-1.594.573-2.565.66-1.95.174-4.098-.297-5.648-1.846a.75.75 0 0 0-1.06 1.06c1.95 1.951 4.59 2.48 6.842 2.28 1.13-.101 2.193-.387 3.065-.794.852-.398 1.606-.951 2.005-1.64A2.75 2.75 0 1 0 8.25 14a.75.75 0 0 0 1.5 0m4.361 4.859a.75.75 0 1 1 .14 1.349.75.75 0 0 0-.5 1.414 2.25 2.25 0 0 0 3-2.122 2.25 2.25 0 0 0-3.451-1.903l-.013.008-.012.008c-1.065.733-3.078 1.695-5.356 1.942a.75.75 0 0 0 .162 1.492c2.554-.278 4.792-1.34 6.03-2.188m-11.791.373a.75.75 0 0 1 .996-.364c.601.279 1.214.47 1.827.59a.75.75 0 0 1-.286 1.472 9.4 9.4 0 0 1-2.173-.702.75.75 0 0 1-.364-.996m18.963.916a.75.75 0 0 0-.566-1.39c-1.006.41-1.6.49-1.717.49a.75.75 0 1 0 0 1.5c.398 0 1.2-.159 2.283-.6" clip-rule="evenodd"/></svg>