<svg xmlns="http://www.w3.org/2000/svg" fill="none" viewBox="0 0 24 24"><path fill="currentColor" d="M17.5 10.5a5.5 5.5 0 0 0-10.98-.477A5 5 0 0 0 7 20h10.5a4.5 4.5 0 1 0 0-9h-.022q.021-.247.022-.5" opacity=".4"/><path fill="currentColor" fill-rule="evenodd" d="M3.193 7.605a3.36 3.36 0 0 1-.439-1.498 3.84 3.84 0 0 0 3.214-.315 3.92 3.92 0 0 0 1.87-2.656c.416.277.777.654 1.044 1.122q.182.32.287.658A6.17 6.17 0 0 0 5.856 9.27c-.99-.126-2.126-.725-2.663-1.666m.537 2.567a4.8 4.8 0 0 1-1.84-1.824 4.87 4.87 0 0 1-.493-3.603.75.75 0 0 1 1.183-.413 2.36 2.36 0 0 0 2.63.165 2.44 2.44 0 0 0 1.181-2.41.75.75 0 0 1 .95-.812 4.78 4.78 0 0 1 2.844 2.24q.247.435.397.893.685-.157 1.418-.159c3.37 0 6.136 2.636 6.247 5.953 2.537.357 4.503 2.505 4.503 5.123 0 2.263-1.47 4.176-3.504 4.883a.75.75 0 1 1-.492-1.417c1.462-.509 2.496-1.874 2.496-3.466 0-1.816-1.35-3.34-3.137-3.627a6.1 6.1 0 0 1-1.296 2.634.75.75 0 0 1-1.149-.964 4.6 4.6 0 0 0 1.082-2.96c0-2.561-2.115-4.659-4.75-4.659-2.198 0-4.036 1.461-4.584 3.432a5.77 5.77 0 0 1 3.03 1.116.75.75 0 0 1-.891 1.206 4.28 4.28 0 0 0-2.965-.818c-2.165.203-3.84 1.993-3.84 4.149 0 1.357.662 2.567 1.696 3.33a.75.75 0 1 1-.892 1.207 5.63 5.63 0 0 1-2.304-4.537c0-1.938.984-3.64 2.48-4.662m5.762 4.201a.75.75 0 0 1 .212 1.04L8.16 17.749h1.139c.181 0 .392 0 .565.026.188.028.569.119.777.511.207.39.072.756-.008.926-.074.159-.19.335-.291.487l-.02.03-1.774 2.684a.75.75 0 1 1-1.252-.827l1.545-2.337H7.702c-.181 0-.392 0-.566-.025-.187-.028-.568-.12-.776-.512-.207-.39-.072-.756.008-.926a4 4 0 0 1 .291-.487l.02-.03 1.774-2.683a.75.75 0 0 1 1.04-.213m6.844 4.955a.75.75 0 0 1 .335 1.007l-1 2a.75.75 0 0 1-1.342-.671l1-2a.75.75 0 0 1 1.007-.336m-2.665 1.007a.75.75 0 0 0-1.342-.671l-1 2a.75.75 0 0 0 1.342.67z" clip-rule="evenodd"/></svg>