<svg xmlns="http://www.w3.org/2000/svg" fill="none" viewBox="0 0 24 24"><path fill="currentColor" d="M17.75 8.883c0-2.835-2.462-5.133-5.5-5.133-2.877 0-5.238 2.061-5.48 4.688-2.536.225-4.52 2.219-4.52 4.645 0 2.578 2.239 4.667 5 4.667h10.5c2.485 0 4.5-1.88 4.5-4.2s-2.015-4.2-4.5-4.2h-.022q.021-.23.022-.467" opacity=".4"/><path fill="currentColor" fill-rule="evenodd" d="M3.196 9.638A4.9 4.9 0 0 1 2.138 8.31a5.13 5.13 0 0 1-.491-3.699A.75.75 0 0 1 2.84 4.2a2.29 2.29 0 0 0 2.624.172c.849-.512 1.318-1.507 1.195-2.533a.75.75 0 0 1 .957-.808A4.8 4.8 0 0 1 10.43 3.28 6 6 0 0 1 12.25 3c3.207 0 5.832 2.472 5.97 5.562 2.348.338 4.17 2.249 4.276 4.628v.014c.036 1.382-.448 2.614-1.4 3.563-.968.963-2.362 1.536-3.64 1.497a.751.751 0 0 1 .046-1.5c.865.026 1.86-.39 2.534-1.061.455-.453.99-1.245.96-2.454-.076-1.618-1.308-2.923-2.91-3.191-.199.919-.605 1.71-1.25 2.45a.75.75 0 0 1-1.13-.986c.608-.697.907-1.394.999-2.328l.002-.016q.018-.188.018-.362c0-2.38-2.008-4.316-4.476-4.316-.44 0-.867.063-1.273.18l.007.028-.29.064c-1.314.474-2.355 1.53-2.757 2.843 1.09.076 2.055.428 2.875 1.049a.75.75 0 0 1-.906 1.196c-.674-.511-1.467-.76-2.423-.76a4 4 0 0 0-.4.018c-1.943.179-3.48 1.765-3.581 3.696-.025.767.207 2.647 2.86 3.677 3.103 1.147 6.015.215 6.96-1.312.113-.255.097-.584-.044-.866a1.13 1.13 0 0 0-.828-.612l-.038-.008c-.217-.053-.587.004-.873.216q-.41.306-.444.9a.75.75 0 1 1-1.498-.08c.045-.838.417-1.557 1.048-2.025.613-.454 1.418-.635 2.106-.472a2.64 2.64 0 0 1 1.87 1.413c.354.712.367 1.543.034 2.222l-.03.055c-.892 1.49-2.973 2.584-5.494 2.584l.002-.004a9.5 9.5 0 0 1-3.296-.608l-.005-.002-.005-.002c-2.472-.957-3.901-2.877-3.823-5.135v-.012a5.37 5.37 0 0 1 1.193-3.105m1.1-1.034a3.4 3.4 0 0 1-.846-1.018 3.6 3.6 0 0 1-.448-1.6 3.77 3.77 0 0 0 3.237-.33A4.04 4.04 0 0 0 8.11 2.91c.374.259.696.597.947 1-1.364.842-2.368 2.204-2.691 3.799a5.4 5.4 0 0 0-2.07.896m9.84 13.759q.351.134.728.134v.003c1.176 0 2.134-1.009 2.134-2.25S16.04 18 14.863 18c-.413 0-.814.125-1.16.361l-.027.018c-1.039.774-2.872 1.687-4.9 1.926a.75.75 0 1 0 .175 1.489c2.313-.272 4.41-1.314 5.607-2.202a.54.54 0 0 1 .305-.094c.35 0 .635.336.635.75s-.285.75-.635.75a.5.5 0 0 1-.193-.036.75.75 0 1 0-.535 1.401m-8.196-.688a1 1 0 0 0 .156.016h.001a.75.75 0 0 0 .155-1.484 7 7 0 0 1-1.665-.582.75.75 0 0 0-.674 1.34 8.4 8.4 0 0 0 2.027.71m13.31-.175h2a.75.75 0 0 0 0-1.5h-2a.75.75 0 0 0 0 1.5" clip-rule="evenodd"/></svg>