<svg xmlns="http://www.w3.org/2000/svg" fill="none" viewBox="0 0 24 24"><path fill="currentColor" d="M22 12c0-5.523-4.477-10-10-10S2 6.477 2 12s4.477 10 10 10 10-4.477 10-10" opacity=".4"/><path fill="currentColor" fill-rule="evenodd" d="M2.75 12a9.25 9.25 0 1 0 18.5 0 9.25 9.25 0 0 0-18.5 0M12 22.75C6.063 22.75 1.25 17.937 1.25 12S6.063 1.25 12 1.25 22.75 6.063 22.75 12 17.937 22.75 12 22.75M11.996 11a1 1 0 1 0 0 2h.01a1 1 0 1 0 0-2zM15 12a1 1 0 0 1 1-1h.009a1 1 0 1 1 0 2H16a1 1 0 0 1-1-1m-7-1a1 1 0 1 0 0 2h.009a1 1 0 1 0 0-2z" clip-rule="evenodd"/></svg>