<svg xmlns="http://www.w3.org/2000/svg" fill="none" viewBox="0 0 24 24"><path fill="currentColor" fill-rule="evenodd" d="M16.372 13.586q.152.142.26.317v-.106c0-.148 0-.223.005-.297.006-.074.017-.147.039-.294L17.604 7h3.124l1.104 10.602c.215 2.055.322 3.082-.299 3.74-.62.658-1.695.658-3.846.658H12v-2c.017-3-2.5-4-2.5-4S6.983 17 7 20v2H4.143c-1.01 0-1.515 0-1.83-.293C2 21.414 2 20.943 2 20v-3c0-1.886 0-2.828.628-3.414C3.255 13 4.265 13 6.286 13h6.428c2.02 0 3.03 0 3.658.586" clip-rule="evenodd" opacity=".4"/><path fill="currentColor" fill-rule="evenodd" d="M12.186 12.25H5.815c-.504-.645-.598-1.127-.556-1.486.052-.435.326-.887.831-1.387.47-.464 1.056-.891 1.665-1.334l.133-.097c.37-.27.766-.56 1.112-.867.347.307.742.597 1.112.867l.134.097c.608.443 1.194.87 1.664 1.334.506.5.78.952.83 1.387.043.359-.05.84-.554 1.486m1.753.007c.46.008.866.028 1.22.072.303.038.591.097.86.192l.824-5.504q-.545-.824-.59-1.637c-.037-.698.208-1.285.526-1.764.31-.466.716-.868 1.054-1.197l.07-.068c.331-.321.575-.558.734-.784a.75.75 0 0 1 1.226 0c.159.226.403.463.733.784l.07.068c.339.329.746.731 1.055 1.197.318.479.563 1.066.525 1.764q-.049.919-.74 1.853l1.078 10.348c.102.979.187 1.794.161 2.445-.028.688-.182 1.317-.666 1.83-.479.508-1.101.712-1.796.805-.665.089-1.513.089-2.542.089H4.1c-.468 0-.887 0-1.226-.042-.366-.046-.751-.153-1.072-.453-.328-.306-.452-.685-.505-1.05-.047-.327-.047-.727-.047-1.158v-3.102c0-.896 0-1.648.086-2.247.092-.637.295-1.208.78-1.66.478-.447 1.067-.626 1.725-.709q.118-.014.243-.026-.416-.861-.314-1.716c.11-.931.665-1.683 1.266-2.277.554-.548 1.23-1.04 1.818-1.467l.15-.11c.547-.398.972-.721 1.246-1.01V4.516a1.92 1.92 0 0 1-.437-3.045.75.75 0 0 1 1.06 1.06.422.422 0 1 0 .596.596.75.75 0 1 1 1.061 1.061c-.215.215-.482.38-.78.474v1.062c.274.288.699.612 1.246 1.01l.15.11c.588.427 1.264.92 1.819 1.467.6.594 1.155 1.345 1.265 2.278q.099.83-.291 1.669m3.434 1.354-.011.061c.16.314.249.659.302 1.026.086.599.086 1.351.086 2.247v4.305c1.063 0 1.792-.003 2.335-.076.536-.071.761-.197.902-.346.137-.145.239-.359.26-.863.02-.528-.051-1.235-.16-2.285l-1.035-9.93H18.25zM16.25 17v4.25h-3.5v-1.248c.01-1.735-.723-2.92-1.464-3.658a5.3 5.3 0 0 0-1.352-.97l-.138-.063-.012-.005-.004-.002h-.002s-.001-.001-.278.696l-.277-.697h-.001l-.002.001-.004.002-.012.005a2 2 0 0 0-.138.062 5.3 5.3 0 0 0-1.352.97c-.741.74-1.473 1.924-1.464 3.66v1.247H4.143c-.525 0-.848-.001-1.082-.03a1 1 0 0 1-.202-.044.1.1 0 0 1-.034-.017s-.002-.001-.006-.012a.6.6 0 0 1-.037-.157c-.03-.206-.032-.496-.032-.99v-3c0-.965.002-1.609.07-2.088.066-.451.177-.645.32-.778.15-.14.378-.253.888-.317.526-.066 1.228-.067 2.258-.067h6.428c1.03 0 1.732.001 2.258.067.51.064.739.177.889.317.142.133.253.327.318.778.07.48.071 1.123.071 2.088m-8.5 4.25h3.5v-1.254c.007-1.263-.51-2.079-1.023-2.59a3.8 3.8 0 0 0-.718-.559l-.009-.005-.009.005a3.8 3.8 0 0 0-.718.56c-.513.51-1.03 1.326-1.023 2.589zm1.473-5.947L9.5 16l.277-.697a.75.75 0 0 0-.554 0M17.752 5.3c.012.233.102.544.383.95h2.23c.281-.406.371-.717.383-.95.015-.28-.075-.55-.276-.854-.21-.315-.505-.615-.85-.951l-.094-.09q-.136-.13-.278-.273-.143.143-.278.272l-.093.09c-.346.337-.642.637-.85.952-.202.303-.292.575-.277.854" clip-rule="evenodd"/></svg>