<svg xmlns="http://www.w3.org/2000/svg" fill="none" viewBox="0 0 24 24"><path fill="currentColor" fill-rule="evenodd" d="M18 12c0 5.49-1.5 10-7.5 10S3 17.49 3 12 4.5 2 10.5 2 18 6.51 18 12m-6.076-5.383c.076.184.076.417.076.883v2c0 .466 0 .699-.076.883a1 1 0 0 1-.541.541c-.184.076-.417.076-.883.076s-.699 0-.883-.076a1 1 0 0 1-.541-.541C9 10.199 9 9.966 9 9.5v-2c0-.466 0-.699.076-.883.102-.245.296-.439.541-.541C9.801 6 10.034 6 10.5 6s.699 0 .883.076c.245.102.439.296.541.541" clip-rule="evenodd" opacity=".4"/><path fill="currentColor" fill-rule="evenodd" d="M20.26 6.116a.75.75 0 0 0 .74.634h-.002a.75.75 0 0 0 .742-.866c-.25-1.607-1.01-3.127-2.192-4.396a.75.75 0 0 0-1.097 1.023c.978 1.05 1.603 2.295 1.808 3.605M3.862 19.455c1.356 2.187 3.589 3.296 6.637 3.296s5.281-1.11 6.637-3.297c1.085-1.748 1.613-4.187 1.613-7.453s-.528-5.706-1.613-7.455C15.781 2.36 13.547 1.25 10.5 1.25S5.219 2.36 3.863 4.546C2.778 6.296 2.25 8.734 2.25 12.001c0 3.266.528 5.705 1.613 7.454M17.25 12c0-6.044-1.858-8.924-6-9.224v2.5c.15.018.284.05.419.106.432.18.768.516.947.946.134.324.134.643.134 1.171v2c0 .53 0 .848-.133 1.17a1.75 1.75 0 0 1-.946.947c-.324.133-.643.133-1.171.133-.529 0-.848 0-1.169-.133a1.75 1.75 0 0 1-.947-.946c-.134-.323-.134-.642-.134-1.17v-2c0-.53 0-.849.133-1.17.18-.432.516-.768.946-.947.136-.056.271-.088.421-.107v-2.5c-4.142.3-6 3.18-6 9.224 0 6.397 2.082 9.25 6.75 9.25s6.75-2.854 6.75-9.25M10.5 6.75c-.262 0-.533 0-.601.02a.25.25 0 0 0-.13.135c-.018.062-.018.333-.018.595v2c0 .263 0 .534.021.601a.25.25 0 0 0 .135.131c.062.018.333.018.595.018s.533 0 .601-.02a.25.25 0 0 0 .13-.136c.018-.061.018-.332.018-.593V7.5c0-.262 0-.533-.021-.6a.25.25 0 0 0-.135-.132c-.062-.018-.333-.018-.595-.018" clip-rule="evenodd"/></svg>