<svg xmlns="http://www.w3.org/2000/svg" fill="none" viewBox="0 0 24 24"><path fill="currentColor" d="M12 22c6 0 7.5-4.51 7.5-10S18 2 12 2 4.5 6.51 4.5 12 6 22 12 22" opacity=".4"/><path fill="currentColor" fill-rule="evenodd" d="M12 1.25c-3.223 0-5.357 1.232-6.637 3.296C4.125 6.542 3.75 9.216 3.75 12c0 2.785.375 5.459 1.613 7.454C6.643 21.518 8.777 22.75 12 22.75s5.357-1.232 6.637-3.296c1.238-1.995 1.613-4.67 1.613-7.454 0-2.785-.375-5.458-1.613-7.454C17.357 2.482 15.223 1.25 12 1.25M5.25 12c0-2.705.375-5.032 1.387-6.663C7.607 3.773 9.223 2.75 12 2.75s4.393 1.023 5.363 2.587C18.375 6.968 18.75 9.295 18.75 12s-.375 5.032-1.387 6.663c-.97 1.564-2.586 2.587-5.363 2.587s-4.393-1.023-5.363-2.587C5.625 17.032 5.25 14.705 5.25 12m8.215-3.62a35 35 0 0 1-.727-.775v3.8l.029-.033c.202-.228.432-.485.689-.751a.75.75 0 1 1 1.08 1.04c-.234.243-.447.481-.647.707l-.071.08c-.172.193-.34.383-.495.545a3.7 3.7 0 0 1-.572.506c-.187.126-.481.278-.84.246a1.26 1.26 0 0 1-.68-.248 3.4 3.4 0 0 1-.483-.44 23 23 0 0 1-.403-.44c-.23-.254-.495-.55-.887-.954a.75.75 0 1 1 1.077-1.044c.258.266.497.524.703.75V7.621l-.005.006a25 25 0 0 1-.689.752.75.75 0 1 1-1.08-1.04c.234-.244.447-.482.647-.708l.071-.08c.172-.193.34-.383.495-.545a3.7 3.7 0 0 1 .572-.506c.187-.126.481-.278.84-.246.283.012.511.129.68.248.172.121.333.282.483.44.134.141.262.283.403.44.23.255.495.55.887.955a.75.75 0 1 1-1.077 1.044" clip-rule="evenodd"/></svg>