<svg xmlns="http://www.w3.org/2000/svg" fill="none" viewBox="0 0 24 24"><path fill="currentColor" d="m4.872 13.16 2.136 1.83V5.24c0-.97.784-1.76 1.751-1.76s1.752.79 1.752 1.76v5.25l2.991.48c1.93.29 2.895.43 3.575.84 1.123.67 1.937 1.68 1.937 3.16 0 1.02-.254 1.71-.87 3.57-.393 1.17-.589 1.76-.908 2.22a3.95 3.95 0 0 1-2.194 1.58c-.543.16-1.162.16-2.4.16h-1.05c-1.647 0-2.47 0-3.203-.3-.132-.06-.26-.12-.385-.19-.697-.37-1.216-1.01-2.255-2.29l-3.361-4.14a1.742 1.742 0 0 1 2.484-2.42" opacity=".4"/><path fill="currentColor" fill-rule="evenodd" d="M17.94 10.217q.044.004.089.004v-.002c.289 0 .57-.112.783-.313l.805-.75a.75.75 0 0 0-.87-1.207V6.218h1.729a.75.75 0 0 0 1.214.864l.76-.84.005-.005.005-.005a1.14 1.14 0 0 0 .289-.767 1.13 1.13 0 0 0-.32-.788l-.748-.801a.75.75 0 0 0-1.222.842h-1.713V3.027a.75.75 0 0 0 .866-1.211l-.841-.773a1.157 1.157 0 0 0-1.553.01l-.011.01-.805.76a.75.75 0 0 0 .843 1.22v1.675h-1.678a.75.75 0 0 0-1.23-.833l-.767.847a1.15 1.15 0 0 0-.288.664v.003l-.002.026c-.021.322.094.635.315.863l.75.803a.75.75 0 0 0 1.207-.872h1.694v1.715a.75.75 0 0 0-.832 1.23l.838.76.006.005.006.006a1.18 1.18 0 0 0 .676.282M11.59 23.25h1.05v.001c1.308 0 1.965 0 2.602-.188a4.7 4.7 0 0 0 2.608-1.875c.377-.543.582-1.155.99-2.373l.132-.398c.543-1.63.79-2.374.79-3.447 0-1.59-.797-2.905-2.3-3.802-.798-.481-1.788-.63-3.761-.926l-2.442-.391V5.24a2.51 2.51 0 0 0-2.502-2.51 2.51 2.51 0 0 0-2.501 2.51v8.12l-.898-.769a2.47 2.47 0 0 0-1.85-.586 2.48 2.48 0 0 0-1.716.928 2.495 2.495 0 0 0 .013 3.121l3.365 4.145.01.013c1.09 1.34 1.64 2.017 2.464 2.457a6 6 0 0 0 .447.22l.013.005c.869.356 1.744.356 3.486.356m0-1.5c-1.535 0-2.311 0-2.906-.239v-.001a4 4 0 0 1-.323-.159l-.007-.004c-.561-.298-1.05-.898-2.024-2.1l-3.363-4.143a.992.992 0 0 1 1.417-1.375l2.136 1.83a.75.75 0 0 0 1.238-.569V5.24c0-.557.449-1.01 1-1.01.553 0 1.003.453 1.003 1.01v5.25a.75.75 0 0 0 .63.741l2.999.481.09.013.015.002c1.71.258 2.654.4 3.197.727 1.057.631 1.57 1.454 1.57 2.516 0 .83-.193 1.413-.712 2.972v.001l-.131.395-.003.008c-.361 1.078-.543 1.62-.8 1.991a3.2 3.2 0 0 1-1.787 1.284c-.44.129-1.024.129-2.188.129z" clip-rule="evenodd"/></svg>