<svg xmlns="http://www.w3.org/2000/svg" fill="none" viewBox="0 0 24 24"><path fill="currentColor" d="M17 18.166c.706-1.477 1.673-4.367.321-5.728-2.13-2.145-5.113-2.537-6.82-2.461v-5.75a1.75 1.75 0 1 0-3.5 0v10.25l-2.218-2.33a1.65 1.65 0 0 0-2.414.235 1.78 1.78 0 0 0 .008 2.183L5.66 18.9c.571.755.857 1.133 1.014 1.574l.04.117c.14.447.14.927.14 1.886h9.04v-1.619c0-.925.723-1.893 1.106-2.692" opacity=".4"/><path fill="currentColor" fill-rule="evenodd" d="M18.032 10.695h.002-.003c.292 0 .575-.111.789-.312l.803-.756a.75.75 0 0 0-.87-1.206V6.697h1.724a.75.75 0 0 0 1.215.863l.76-.837c.192-.211.3-.485.3-.772V5.94a1.15 1.15 0 0 0-.312-.78l-.757-.804a.75.75 0 0 0-1.22.842h-1.71V3.504a.75.75 0 0 0 .863-1.213l-.837-.762a1.15 1.15 0 0 0-.774-.3h-.011a1.14 1.14 0 0 0-.776.313l-.805.757a.75.75 0 0 0 .84 1.22v1.678H15.58a.75.75 0 0 0-1.229-.832l-.76.837a1.15 1.15 0 0 0-.296.68v.02c-.021.319.092.634.31.862l.756.805a.75.75 0 0 0 1.206-.872h1.69v1.707a.75.75 0 0 0-.832 1.23l.84.765a1.16 1.16 0 0 0 .695.294q.036.003.073.002m-2.944 11.782c0 .413.336.75.75.75h-.002.002a.75.75 0 0 0 .748-.75c0-.235-.01-.46-.021-.677l-.002-.031c-.037-.76-.066-1.358.34-1.937.766-1.095 1.398-2.872 1.603-3.785l.126-.558.016-.072c.317-1.38-.005-2.65-.93-3.67-1.626-1.791-4.769-2.46-6.495-2.54V4.023l-.002-.05c-.1-1.521-1.354-2.293-2.548-2.272-1.18.023-2.398.82-2.439 2.302v8.556l-.3-.322-.015-.016c-1.126-1.136-2.11-1.232-2.739-1.113-.765.145-1.427.707-1.768 1.502-.429.997.073 1.998.57 2.662l3.661 4.91c.288.386.447.863.447 1.345v.95a.75.75 0 0 0 1.5 0v-.95c0-.803-.265-1.6-.745-2.242l-3.662-4.91c-.26-.347-.539-.833-.393-1.172.145-.337.395-.57.67-.621.381-.072.872.172 1.385.687l1.591 1.704a.75.75 0 0 0 1.298-.512V4.035c.028-.793.872-.832.968-.834.161-.001.953.024 1.021.85v5.92a.75.75 0 0 0 .847.744c.962-.125 4.533.383 6.037 2.04.6.66.79 1.422.58 2.329l-.144.637c-.179.8-.754 2.375-1.368 3.252-.699.999-.65 1.993-.608 2.87.011.218.021.425.021.634" clip-rule="evenodd"/></svg>