<svg xmlns="http://www.w3.org/2000/svg" fill="none" viewBox="0 0 24 24"><path fill="currentColor" fill-rule="evenodd" d="M3.891 3.891C2.5 5.282 2.5 7.521 2.5 12c0 4.478 0 6.718 1.391 8.109S7.521 21.5 12 21.5c4.478 0 6.718 0 8.109-1.391S21.5 16.479 21.5 12c0-4.478 0-6.718-1.391-8.109S16.479 2.5 12 2.5c-4.478 0-6.718 0-8.109 1.391M10.5 17a2.5 2.5 0 1 0 0-5 2.5 2.5 0 0 0 0 5" clip-rule="evenodd" opacity=".4"/><path fill="currentColor" fill-rule="evenodd" d="M12.057 1.75h-.114c-2.19 0-3.912 0-5.255.18-1.377.186-2.469.573-3.327 1.43-.858.86-1.245 1.951-1.43 3.328-.181 1.343-.181 3.064-.181 5.255v.114c0 2.19 0 3.912.18 5.255.186 1.377.573 2.469 1.43 3.327.86.858 1.951 1.245 3.328 1.43 1.343.181 3.064.181 5.255.181h.114c2.19 0 3.912 0 5.255-.18 1.377-.186 2.469-.573 3.327-1.43.858-.86 1.245-1.951 1.43-3.328.181-1.343.181-3.064.181-5.255v-.114c0-2.19 0-3.912-.18-5.255-.186-1.377-.573-2.469-1.43-3.327-.86-.858-1.951-1.245-3.328-1.43-1.343-.181-3.064-.181-5.255-.181M4.422 4.422c.533-.533 1.256-.842 2.466-1.005C8.12 3.252 9.74 3.25 12 3.25s3.88.002 5.112.167c1.21.163 1.933.472 2.466 1.005s.842 1.256 1.005 2.466c.165 1.232.167 2.852.167 5.112s-.002 3.88-.167 5.112c-.163 1.21-.471 1.933-1.005 2.466s-1.256.842-2.466 1.005c-1.232.165-2.852.167-5.112.167s-3.88-.002-5.112-.167c-1.21-.163-1.933-.471-2.466-1.005s-.842-1.256-1.005-2.466C3.252 15.88 3.25 14.26 3.25 12s.002-3.88.167-5.112c.163-1.21.472-1.933 1.005-2.466m9.202 2.162A.75.75 0 0 0 12.25 7v4.76a3.25 3.25 0 1 0 1.5 2.74V9.734c.5.465 1.185.849 2.127 1.006a.75.75 0 1 0 .246-1.48c-.955-.159-1.452-.636-1.766-1.127a4.6 4.6 0 0 1-.389-.788l-.057-.144c-.032-.082-.064-.165-.092-.232a2.3 2.3 0 0 0-.195-.385M10.5 12.75a1.75 1.75 0 1 1 0 3.5 1.75 1.75 0 0 1 0-3.5" clip-rule="evenodd"/></svg>