<svg xmlns="http://www.w3.org/2000/svg" fill="none" viewBox="0 0 24 24"><path fill="currentColor" d="M12.5 17a4 4 0 1 1-8 0 4 4 0 0 1 8 0" opacity=".4"/><path fill="currentColor" fill-rule="evenodd" d="M11.75 3v10.539A4.73 4.73 0 0 0 8.5 12.25 4.756 4.756 0 0 0 3.75 17a4.756 4.756 0 0 0 4.75 4.75A4.756 4.756 0 0 0 13.25 17V8.711c.24-.25.55-.383.957-.417 1.524-.126 3.745 1.218 4.763 2.236a.75.75 0 0 0 .817.163.75.75 0 0 0 .463-.693c0-4.273-3.477-7.75-7.75-7.75a.75.75 0 0 0-.75.75m1.5.795v3.181a3.3 3.3 0 0 1 .834-.176c1.423-.118 3.108.603 4.419 1.458a6.27 6.27 0 0 0-5.253-4.463M8.5 13.75A3.254 3.254 0 0 1 11.75 17a3.254 3.254 0 0 1-3.25 3.25A3.254 3.254 0 0 1 5.25 17a3.254 3.254 0 0 1 3.25-3.25" clip-rule="evenodd"/></svg>