<svg xmlns="http://www.w3.org/2000/svg" fill="none" viewBox="0 0 24 24"><path fill="currentColor" fill-rule="evenodd" d="M12 22c5.523 0 10-4.477 10-10S17.523 2 12 2 2 6.477 2 12s4.477 10 10 10m1.594-5.003c1.548-.134 3.057-7.732 2.114-8.666-1.204-1.194-9.212 1.122-8.683 2.522.2.529 1.21.863 3.228 1.53.794.264 1.095.552 1.364 1.353.048.14.099.332.157.553.283 1.062.745 2.8 1.82 2.708" clip-rule="evenodd" opacity=".4"/><path fill="currentColor" fill-rule="evenodd" d="M2.75 12a9.25 9.25 0 1 1 18.5 0 9.25 9.25 0 0 1-18.5 0M12 1.25C6.063 1.25 1.25 6.063 1.25 12S6.063 22.75 12 22.75 22.75 17.937 22.75 12 17.937 1.25 12 1.25m-3.64 9.103a3 3 0 0 0-.49.33c.09.055.215.12.39.197.488.215 1.203.452 2.228.792.44.145.842.328 1.17.652.33.325.52.725.67 1.173.056.164.117.396.18.63l.075.278c.094.345.201.703.333 1.024.135.33.273.566.404.704.08.083.132.109.169.115a1 1 0 0 0 .106-.107c.127-.15.276-.395.434-.738.314-.68.604-1.616.824-2.602.22-.984.36-1.98.39-2.77a5 5 0 0 0-.033-.95 1.3 1.3 0 0 0-.051-.225 1.2 1.2 0 0 0-.299-.075 5 5 0 0 0-1.033-.009c-.847.066-1.893.275-2.902.568-1.012.293-1.94.657-2.565 1.013m7.876-2.555c-.324-.322-.78-.446-1.161-.501a6.3 6.3 0 0 0-1.364-.02c-.976.076-2.126.31-3.203.622-1.074.311-2.124.715-2.89 1.15-.376.214-.734.464-.985.751-.243.277-.521.758-.31 1.318.117.31.333.535.556.703.22.166.489.305.776.432.562.247 1.347.507 2.321.83l.041.013c.355.117.501.21.589.296.086.086.182.23.3.584.04.116.081.27.135.472l.095.354c.099.36.225.788.392 1.195.162.398.385.832.704 1.168.335.353.814.632 1.427.579.49-.043.85-.36 1.083-.636.248-.295.463-.673.65-1.076.374-.812.692-1.859.925-2.905.234-1.05.39-2.137.426-3.038a6.7 6.7 0 0 0-.05-1.238c-.05-.321-.156-.755-.457-1.053" clip-rule="evenodd"/></svg>