<svg xmlns="http://www.w3.org/2000/svg" fill="none" viewBox="0 0 24 24"><path fill="currentColor" fill-rule="evenodd" d="M7 2H4C2.185 2 2 3.11 2 5s.185 3 2 3h3c1.815 0 2-1.11 2-3s-.185-3-2-3m4.293 8.793C11 11.086 11 11.557 11 12.5s0 1.414.293 1.707.764.293 1.707.293 1.414 0 1.707-.293S15 13.443 15 12.5s0-1.414-.293-1.707S13.943 10.5 13 10.5s-1.414 0-1.707.293" clip-rule="evenodd" opacity=".4"/><path fill="currentColor" fill-rule="evenodd" d="M2.592 1.53C3 1.33 3.476 1.25 4 1.25h3c.524 0 1 .08 1.408.28.424.207.73.523.935.91.375.705.407 1.647.407 2.56s-.032 1.855-.407 2.56c-.206.387-.51.703-.935.91-.408.2-.884.28-1.408.28h-.75v3h4.008q.008-.24.035-.447c.048-.356.16-.731.47-1.04s.684-.422 1.04-.47c.323-.043.72-.043 1.152-.043h.09c.433 0 .83 0 1.152.043.356.048.731.16 1.04.47s.422.684.47 1.04c.043.323.043.72.043 1.152v.09c0 .433 0 .83-.043 1.152-.048.356-.16.731-.47 1.04s-.684.422-1.04.47c-.323.043-.72.043-1.152.043h-.09c-.433 0-.83 0-1.152-.043-.356-.048-.731-.16-1.04-.47s-.422-.684-.47-1.04a5 5 0 0 1-.035-.447H6.25V14c0 1.435.002 2.436.103 3.192.099.734.28 1.122.556 1.399.26.26.62.435 1.27.537.53.083 1.198.11 2.08.118q.007-.239.034-.443c.048-.356.16-.731.47-1.04s.684-.422 1.04-.47c.323-.043.72-.043 1.152-.043h.09c.433 0 .83 0 1.152.043.356.048.731.16 1.04.47s.422.684.47 1.04c.043.323.043.72.043 1.152v.09c0 .433 0 .83-.043 1.152-.048.356-.16.731-.47 1.04s-.684.422-1.04.47c-.323.043-.72.043-1.152.043h-.09c-.433 0-.83 0-1.152-.043-.356-.048-.731-.16-1.04-.47s-.422-.684-.47-1.04a5 5 0 0 1-.035-.45c-.905-.009-1.672-.037-2.312-.137-.83-.13-1.533-.394-2.098-.958-.602-.602-.86-1.36-.981-2.26-.117-.867-.117-1.97-.117-3.337V8.75H4c-.524 0-1-.08-1.408-.28a2.07 2.07 0 0 1-.935-.91C1.282 6.856 1.25 5.914 1.25 5s.032-1.855.407-2.56c.206-.387.51-.703.935-.91M7 7.25H4c-.384 0-.612-.06-.748-.126a.58.58 0 0 1-.27-.267C2.81 6.535 2.75 5.977 2.75 5s.06-1.535.232-1.857a.58.58 0 0 1 .27-.267c.136-.066.364-.126.748-.126h3c.384 0 .612.06.748.126.121.06.203.14.27.267.172.322.232.88.232 1.857 0 .978-.06 1.535-.232 1.857a.58.58 0 0 1-.27.267c-.136.066-.364.126-.748.126m13.75 3.498.669.821a.75.75 0 0 0 1.162-.948l-1-1.227-.027-.033a7 7 0 0 0-.608-.691c-.209-.196-.518-.42-.946-.42s-.737.224-.946.42c-.192.18-.396.43-.608.69l-.027.034-1 1.227a.75.75 0 1 0 1.162.948l.669-.82v7.156c0 .776-.592 1.345-1.25 1.345a.75.75 0 0 0 0 1.5c1.551 0 2.75-1.307 2.75-2.845zm-8.924 8.074-.003.001-.001.003-.005.01a.7.7 0 0 0-.037.167c-.028.21-.03.504-.03.997s.002.787.03.997a.7.7 0 0 0 .042.177l.001.003.003.001.01.005c.022.009.07.024.167.037.21.028.504.03.997.03s.787-.002.997-.03a.7.7 0 0 0 .167-.037l.007-.003.003-.002.003-.001.001-.003.005-.01a.7.7 0 0 0 .037-.167c.028-.21.03-.504.03-.997s-.002-.787-.03-.997a.7.7 0 0 0-.042-.177l-.001-.003-.003-.001-.01-.005a.7.7 0 0 0-.167-.037c-.21-.028-.504-.03-.997-.03s-.787.002-.997.03a.7.7 0 0 0-.177.042m0-7.5-.003.001-.001.003-.003.005-.002.005a.7.7 0 0 0-.037.167c-.028.21-.03.504-.03.997s.002.787.03.997a.7.7 0 0 0 .042.177l.001.003.003.001.01.005c.022.009.07.024.167.037.21.028.504.03.997.03s.787-.002.997-.03a.7.7 0 0 0 .177-.042l.003-.001.001-.003.005-.01a.7.7 0 0 0 .037-.167c.028-.21.03-.504.03-.997s-.002-.787-.03-.997a.7.7 0 0 0-.042-.177l-.001-.003-.003-.001-.01-.005a.7.7 0 0 0-.167-.037c-.21-.028-.504-.03-.997-.03s-.787.002-.997.03a.7.7 0 0 0-.177.042" clip-rule="evenodd"/></svg>