<svg xmlns="http://www.w3.org/2000/svg" fill="none" viewBox="0 0 24 24"><path fill="currentColor" d="M4.911 12H19.09c1.602 0 2.19.37 1.79 1.982-.706 2.843-2.703 3.549-4.549 5.404-.448.45.25 1.117.25 1.613 0 .934-.887 1.001-1.595 1.001h-5.97c-.708 0-1.596-.067-1.595-1 0-.486.677-1.184.25-1.614-1.846-1.855-3.843-2.561-4.549-5.404-.4-1.611.188-1.982 1.79-1.982" opacity=".4"/><path fill="currentColor" fill-rule="evenodd" d="M11.75 2a.75.75 0 0 0-1.5 0v5.5a.75.75 0 0 0 1.5 0zm-2.5.5a.75.75 0 0 0-1.5 0v5a.75.75 0 0 0 1.5 0zm-2.5.5a.75.75 0 0 0-1.5 0v.546l-1.366.213a.75.75 0 1 0 .232 1.482l1.134-.177V6.17l-1.297.08a.75.75 0 1 0 .094 1.498l1.203-.076v3.577h-.339a5.6 5.6 0 0 0-1.172.1c-.352.077-.715.22-1.002.504-.61.603-.55 1.482-.344 2.309.396 1.596 1.167 2.604 2.063 3.44.372.347.772.67 1.16.983l.002.002.189.153c.419.34.83.683 1.23 1.075l-.028.077c-.023.056-.05.116-.083.19l-.004.01a6 6 0 0 0-.098.228 1.8 1.8 0 0 0-.154.68c0 .356.085.69.28.974.193.282.453.457.705.566.47.202 1.015.211 1.36.211h5.97c.345 0 .89-.01 1.36-.211a1.6 1.6 0 0 0 .704-.566c.195-.284.281-.618.28-.974 0-.282-.094-.532-.16-.688-.034-.08-.07-.16-.102-.227l-.004-.01a5 5 0 0 1-.109-.25c.403-.396.817-.74 1.239-1.083l.19-.154a21 21 0 0 0 1.16-.985c.896-.835 1.667-1.843 2.063-3.44.206-.826.266-1.705-.344-2.308-.287-.284-.65-.427-1.001-.504a5.6 5.6 0 0 0-1.173-.1h-.425a3.251 3.251 0 0 0-6.326 0H6.75zm7.168 8.25a1.75 1.75 0 0 1 3.164 0zM18 12.75H4.911c-.38 0-.655.023-.852.066s-.256.093-.266.104l-.015.022a.4.4 0 0 0-.025.119c-.013.143.005.376.096.74.31 1.247.89 2.013 1.63 2.705.33.308.684.594 1.074.909l.199.161c.461.375.958.787 1.449 1.281l-.532.529.532-.529c.581.585.31 1.318.2 1.594a7 7 0 0 1-.104.243c-.034.075-.06.134-.083.19a1 1 0 0 0-.043.125l-.001.003a.4.4 0 0 0 .016.111l.001.002.001.001.002.002.004.004a.3.3 0 0 0 .054.029c.063.027.162.053.304.069q.21.022.462.02h5.971q.253.002.463-.02c.142-.016.24-.042.304-.07a.3.3 0 0 0 .06-.034l.001-.003.005-.015a.4.4 0 0 0 .012-.095v-.002a1 1 0 0 0-.044-.12c-.023-.054-.05-.111-.084-.186-.032-.07-.072-.154-.108-.241a1.9 1.9 0 0 1-.164-.692c-.006-.317.1-.645.368-.915l.532.529-.532-.529a18 18 0 0 1 1.45-1.28l.199-.162c.39-.316.743-.601 1.073-.91.741-.69 1.321-1.457 1.63-2.703.091-.365.109-.598.096-.741a.4.4 0 0 0-.025-.119l-.014-.022c-.01-.01-.07-.061-.267-.104s-.472-.066-.852-.066zm2.741-10.866a.75.75 0 0 1-.625.857l-6.5 1.016a.75.75 0 1 1-.232-1.482l6.5-1.016a.75.75 0 0 1 .857.625m.008 4.07a.75.75 0 0 1-.702.795l-6.5.406a.75.75 0 1 1-.094-1.497l6.5-.406a.75.75 0 0 1 .796.701" clip-rule="evenodd"/></svg>