<svg xmlns="http://www.w3.org/2000/svg" fill="none" viewBox="0 0 24 24"><path fill="currentColor" fill-rule="evenodd" d="M22 10v4c0 3.771 0 5.657-1.172 6.828S17.771 22 14 22h-2c-3.771 0-5.657 0-6.828-1.172S4 17.771 4 14v-4c0-3.771 0-5.657 1.172-6.828S8.229 2 12 2h2c3.771 0 5.657 0 6.828 1.172S22 6.229 22 10m-6.786 0h-3.428c-1.078 0-1.617 0-1.951-.293S9.5 8.943 9.5 8s0-1.414.335-1.707C10.169 6 10.708 6 11.785 6h3.43c1.077 0 1.616 0 1.95.293.335.293.335.764.335 1.707s0 1.414-.335 1.707c-.334.293-.873.293-1.95.293" clip-rule="evenodd" opacity=".4"/><path fill="currentColor" fill-rule="evenodd" d="M11.944 1.25h2.112c1.838 0 3.294 0 4.433.153 1.172.158 2.121.49 2.87 1.238.748.749 1.08 1.698 1.238 2.87.153 1.14.153 2.595.153 4.433v4.112c0 1.838 0 3.294-.153 4.433-.158 1.172-.49 2.121-1.238 2.87-.749.748-1.698 1.08-2.87 1.238-1.14.153-2.595.153-4.433.153h-2.112c-1.838 0-3.294 0-4.433-.153-1.172-.158-2.121-.49-2.87-1.238-.692-.692-1.028-1.556-1.2-2.609H2a.75.75 0 0 1 0-1.5h1.296c-.046-.907-.046-1.965-.046-3.194V12.75H2a.75.75 0 0 1 0-1.5h1.25V9.944c0-1.23 0-2.287.046-3.194H2a.75.75 0 0 1 0-1.5h1.442c.171-1.053.507-1.917 1.2-2.609.748-.748 1.697-1.08 2.869-1.238 1.14-.153 2.595-.153 4.433-.153m-7.146 5.5H5a.75.75 0 0 0 0-1.5h-.034c.147-.73.382-1.194.736-1.548.423-.423 1.003-.677 2.009-.812 1.028-.138 2.382-.14 4.289-.14h2c1.907 0 3.262.002 4.29.14 1.005.135 1.585.389 2.008.812s.677 1.003.812 2.009c.138 1.028.14 2.382.14 4.289v4c0 1.907-.002 3.262-.14 4.29-.135 1.005-.389 1.585-.812 2.008s-1.003.677-2.009.812c-1.027.138-2.382.14-4.289.14h-2c-1.907 0-3.261-.002-4.29-.14-1.005-.135-1.585-.389-2.008-.812-.354-.354-.59-.817-.736-1.548H5a.75.75 0 0 0 0-1.5h-.202c-.047-.867-.048-1.925-.048-3.25v-1.25H5a.75.75 0 0 0 0-1.5h-.25V10c0-1.325 0-2.383.048-3.25m6.946-1.5h3.512c.503 0 .945 0 1.3.042.378.044.771.146 1.103.436.346.303.483.685.54 1.06.051.33.051.734.051 1.163v.098c0 .429 0 .832-.05 1.162-.058.376-.195.758-.54 1.06-.333.29-.726.393-1.104.437-.355.042-.797.042-1.3.042h-3.512c-.503 0-.944 0-1.3-.042-.378-.044-.771-.146-1.103-.437-.346-.302-.483-.684-.54-1.06-.051-.33-.051-.733-.051-1.162V7.95c0-.429 0-.832.05-1.162.058-.376.195-.758.54-1.06.333-.29.726-.393 1.104-.437.355-.042.797-.042 1.3-.042m-1.415 1.607-.001.001c-.003.003-.004.003-.008.012a.6.6 0 0 0-.037.147c-.03.202-.033.487-.033.983s.002.781.033.983a.6.6 0 0 0 .037.147c.004.009.005.01.008.012.006.005.053.048.291.077.258.03.61.031 1.167.031h3.428c.558 0 .91-.001 1.167-.031.238-.029.285-.072.29-.076l.001-.001c.003-.003.004-.003.008-.012a.6.6 0 0 0 .037-.147c.03-.202.033-.487.033-.983s-.002-.781-.033-.983a.6.6 0 0 0-.037-.147c-.004-.009-.005-.01-.008-.012-.006-.005-.053-.048-.291-.077-.257-.03-.61-.031-1.167-.031h-3.428c-.558 0-.91.001-1.167.031-.238.029-.285.072-.29.076" clip-rule="evenodd"/></svg>