<svg xmlns="http://www.w3.org/2000/svg" fill="none" viewBox="0 0 24 24"><path fill="currentColor" d="M5.158 11.491c-.073 1.396.011 2.882-1.236 3.817A2.3 2.3 0 0 0 3 17.153C3 18.15 3.782 19 4.8 19h14.4c1.018 0 1.8-.85 1.8-1.847 0-.726-.342-1.41-.922-1.845-1.247-.935-1.163-2.421-1.236-3.817a6.851 6.851 0 0 0-13.684 0" opacity=".4"/><path fill="currentColor" fill-rule="evenodd" d="M12 1.25c.483 0 1.026.083 1.471.374.494.324.779.847.779 1.501 0 .464-.141.944-.371 1.36a7.6 7.6 0 0 1 5.712 6.967q.013.258.022.496c.022.542.041 1.013.14 1.465.117.54.334.964.775 1.295a3.06 3.06 0 0 1 1.222 2.445c0 1.381-1.087 2.597-2.55 2.597h-3.525a3.751 3.751 0 0 1-7.35 0H4.8c-1.463 0-2.55-1.216-2.55-2.597 0-.893.39-1.738 1.062-2.316l.16-.129c.441-.33.658-.755.775-1.295a7 7 0 0 0 .126-1.148l.014-.317.022-.496a7.6 7.6 0 0 1 5.712-6.968 2.86 2.86 0 0 1-.371-1.359c0-.654.285-1.177.779-1.5.445-.292.988-.375 1.471-.375m2.122 18.5H9.878a2.25 2.25 0 0 0 4.244 0M12 5.75a6.1 6.1 0 0 0-6.093 5.78l-.017.404c-.022.56-.048 1.205-.177 1.798-.17.786-.535 1.572-1.34 2.176a1.56 1.56 0 0 0-.623 1.245c0 .615.476 1.097 1.05 1.097h14.4c.574 0 1.05-.482 1.05-1.097 0-.49-.23-.95-.622-1.245-.806-.604-1.17-1.39-1.341-2.176-.103-.474-.14-.982-.162-1.453l-.015-.345q-.007-.211-.017-.404A6.1 6.1 0 0 0 12 5.75m0-3c-.345 0-.552.065-.65.13a.2.2 0 0 0-.068.069.4.4 0 0 0-.032.176c0 .232.103.547.291.8.194.262.372.325.459.325s.265-.063.459-.324c.188-.254.291-.569.291-.801a.4.4 0 0 0-.032-.176.2.2 0 0 0-.068-.07c-.098-.064-.305-.129-.65-.129" clip-rule="evenodd"/></svg>