<svg xmlns="http://www.w3.org/2000/svg" fill="none" viewBox="0 0 24 24"><path fill="currentColor" d="M2.53 14.77c-.213 1.394.738 2.361 1.902 2.843 4.117 1.706 9.72 1.838 14.068.397L5.634 5.5a7.45 7.45 0 0 0-1.159 4c0 1.072-.062 2.08-.69 3.003-.478.697-1.124 1.41-1.255 2.267" opacity=".4"/><path fill="currentColor" fill-rule="evenodd" d="M7.948 4.09a6.75 6.75 0 0 1 4.048-1.34c3.74 0 6.768 3.024 6.768 6.75 0 1.082.054 2.297.819 3.424l.002.004c.126.183.236.333.34.474.139.189.266.362.404.578.213.334.345.623.388.903.05.336.036.526 0 .656-.036.125-.108.26-.287.46a.75.75 0 1 0 1.117 1.002c.274-.306.497-.64.614-1.057.115-.411.107-.834.038-1.287-.088-.578-.344-1.073-.606-1.484a16 16 0 0 0-.514-.736 18 18 0 0 1-.256-.357c-.487-.72-.558-1.52-.559-2.58 0-4.558-3.703-8.25-8.268-8.25A8.25 8.25 0 0 0 7.05 2.887a.75.75 0 1 0 .897 1.203m13.521 18.439c.15.15.34.22.53.22s.38-.07.53-.22c.29-.29.29-.77 0-1.06l-16.4-16.4a.8.8 0 0 0-.187-.188L2.529 1.47a.755.755 0 0 0-1.06 0c-.29.29-.29.77 0 1.06l3.113 3.113c-.54 1.13-.852 2.53-.852 3.857 0 .96-.05 1.82-.56 2.58q-.078.112-.163.226l-.127.174-.024.033c-.444.611-.938 1.292-1.066 2.147-.24 1.58.64 2.94 2.36 3.65.978.403 2.04.724 3.152.96.577 2.056 2.496 3.48 4.698 3.48h.02c2.194 0 4.114-1.436 4.7-3.487q.604-.128 1.191-.291zm-9.459-1.29c-1.258 0-2.384-.66-2.967-1.677a24 24 0 0 0 2.967.187l.01-.01c.991 0 1.984-.06 2.957-.184-.584 1.022-1.706 1.684-2.967 1.684m4.672-3.497L5.732 6.792a8 8 0 0 0-.492 2.707c0 1.12-.06 2.31-.82 3.42a7 7 0 0 1-.22.307l-.1.133-.007.01c-.377.516-.733 1.003-.813 1.51-.18 1.18.83 1.78 1.45 2.04 3.44 1.423 8.01 1.723 11.952.823" clip-rule="evenodd"/></svg>