<svg xmlns="http://www.w3.org/2000/svg" fill="none" viewBox="0 0 24 24"><path fill="currentColor" d="M13.515 2c1.226 0 1.839 0 2.39.228.551.229.985.662 1.852 1.53l2.485 2.485c.867.867 1.301 1.3 1.53 1.852.228.55.228 1.164.228 2.39v3.03c0 1.226 0 1.84-.229 2.39-.228.552-.662.985-1.529 1.852l-2.485 2.486c-.867.867-1.3 1.3-1.852 1.529-.551.228-1.164.228-2.39.228h-3.03c-1.226 0-1.84 0-2.39-.228-.552-.229-.985-.662-1.853-1.53l-2.485-2.485c-.867-.867-1.3-1.3-1.529-1.852C2 15.355 2 14.741 2 13.515v-3.03c0-1.226 0-1.84.228-2.39.229-.552.662-.985 1.53-1.852l2.484-2.486c.868-.867 1.301-1.3 1.852-1.529S9.26 2 10.485 2z" opacity=".4"/><path fill="currentColor" fill-rule="evenodd" d="M10.343 1.25h3.314c1.088 0 1.844 0 2.535.286s1.226.82 1.995 1.59l.1.101 2.486 2.485.1.101c.77.769 1.305 1.303 1.591 1.995.287.691.287 1.447.286 2.535v3.314c0 1.088 0 1.844-.286 2.535s-.82 1.226-1.59 1.995l-.101.1-2.485 2.486-.101.1c-.769.77-1.303 1.305-1.995 1.592-.691.286-1.447.286-2.535.285h-3.314c-1.088 0-1.844.001-2.536-.285-.69-.287-1.225-.822-1.994-1.591l-.1-.101-2.486-2.485-.1-.101c-.77-.769-1.305-1.303-1.591-1.995-.287-.69-.286-1.447-.286-2.534v-3.315c0-1.088 0-1.844.286-2.535s.82-1.226 1.59-1.995l.101-.1 2.485-2.486.101-.1c.769-.77 1.303-1.305 1.994-1.591s1.448-.286 2.536-.286m.142 1.5c-1.287 0-1.722.013-2.103.171s-.699.456-1.61 1.367L4.289 6.773C3.378 7.683 3.079 8 2.92 8.382s-.17.816-.17 2.103v3.03c0 1.287.012 1.722.17 2.103s.456.699 1.367 1.61l2.485 2.484c.91.91 1.227 1.209 1.609 1.367s.816.171 2.103.171h3.03c1.287 0 1.722-.013 2.103-.171s.699-.456 1.609-1.367l2.485-2.485c.91-.91 1.209-1.227 1.367-1.609.158-.38.17-.816.17-2.103v-3.03c0-1.287-.012-1.722-.17-2.103s-.456-.699-1.367-1.609l-2.485-2.485c-.91-.91-1.227-1.209-1.609-1.367s-.816-.17-2.103-.17z" clip-rule="evenodd"/></svg>