<svg xmlns="http://www.w3.org/2000/svg" fill="none" viewBox="0 0 24 24"><path fill="currentColor" d="m14.53 21.887 4.67-1.82c1.04-.4 1.55-.61 1.55-.95v-10l-7 3v9.18c0 .45.36.76.78.59" opacity=".4"/><path fill="currentColor" fill-rule="evenodd" d="M20.75 1.367c-.41 0-.75.34-.75.75v.25H7.5v-.25c0-.41-.34-.75-.75-.75s-.75.34-.75.75v2c0 .41.34.75.75.75s.75-.34.75-.75v-.25H20v.25c0 .41.34.75.75.75s.75-.34.75-.75v-2c0-.41-.34-.75-.75-.75m-1.28 6.101-.003.01-.021-.008v-.002zm-.023 0h-.006l.005.002-.265.688-.27.7-1.4-.55-5.55 2.38 1.27.5c.23.09.45.17.51.17s.28-.08.51-.17l4.67-1.82c.22-.08.45-.17.64-.25q-.131-.053-.27-.105-.183-.069-.37-.145l.27-.7.276-.69c1.254.484 2.004.786 2.004 1.64v9.99c0 .86-.77 1.16-2.03 1.65l-4.67 1.82c-.42.17-.71.28-1.05.28s-.62-.11-1.05-.28L8 20.758c-1.27-.49-2.03-.79-2.03-1.65v-10c0-.86.77-1.16 2.03-1.65l4.67-1.82c.85-.33 1.26-.33 2.11 0l4.67 1.82zM8.57 8.868l4.67-1.82c.23-.09.45-.17.51-.17s.28.08.51.17l1.27.5-5.55 2.38-1.4-.55-.37-.145q-.14-.053-.27-.105c.19-.08.42-.17.64-.25zM13 21.098l-4.43-1.73c-.43-.17-.86-.34-1.07-.45v-8.36c.17.07.34.14.53.21l1.47.57v1.77c0 .41.34.75.75.75s.75-.34.75-.75v-1.19l1.7.66q.089.036.16.059h.001q.072.023.139.051zm7-2.18c-.21.12-.65.29-1.07.45l-4.43 1.73v-8.4q.061-.024.122-.043c.056-.019.114-.038.178-.067l4.67-1.82c.19-.07.36-.14.53-.21zM5.5 7.118c0 .41-.34.75-.75.75H4.5v12.5h.25c.41 0 .75.34.75.75s-.34.75-.75.75h-2c-.41 0-.75-.34-.75-.75s.34-.75.75-.75H3v-12.5h-.25c-.41 0-.75-.34-.75-.75s.34-.75.75-.75h2c.41 0 .75.34.75.75" clip-rule="evenodd"/></svg>