<svg xmlns="http://www.w3.org/2000/svg" fill="none" viewBox="0 0 24 24"><path fill="currentColor" fill-rule="evenodd" d="M22 12c0-5.523-4.477-10-10-10S2 6.477 2 12s4.477 10 10 10l.22.002c.81.009 1.78.02 1.78-1.002 0-.609-.317-1.079-.631-1.546-.46-.683-.917-1.359-.369-2.454.667-1.333 1.778-1.333 3.482-1.333.851 0 1.851 0 3.018-.167 2.101-.3 2.5-1.592 2.5-3.5M11 8.5a1.5 1.5 0 1 1-3 0 1.5 1.5 0 0 1 3 0m5.5 2.5a1.5 1.5 0 1 0 0-3 1.5 1.5 0 0 0 0 3" clip-rule="evenodd" opacity=".4"/><path fill="currentColor" fill-rule="evenodd" d="M2.75 12a9.25 9.25 0 0 1 18.5 0c0 .934-.105 1.553-.354 1.965-.214.354-.606.665-1.502.793-1.108.158-2.06.159-2.912.159h-.074c-.791 0-1.587 0-2.265.196-.776.225-1.387.699-1.814 1.552-.348.695-.402 1.325-.248 1.908.136.516.427.947.642 1.265l.024.036c.334.495.503.78.503 1.126a.4.4 0 0 1-.02.147.3.3 0 0 1-.116.05c-.11.03-.263.048-.468.054-.137.004-.261.002-.397 0L12 21.25A9.25 9.25 0 0 1 2.75 12m10.476 9.152.003-.004zM12 1.25C6.063 1.25 1.25 6.063 1.25 12S6.063 22.75 12 22.75l.175.002c.36.005.899.013 1.343-.111.288-.08.614-.233.864-.534.258-.309.368-.693.368-1.107 0-.841-.432-1.48-.727-1.917l-.032-.048c-.244-.361-.394-.597-.46-.844-.052-.2-.06-.456.14-.856.24-.48.518-.673.89-.781.45-.13 1.032-.137 1.92-.137h.012c.85 0 1.894 0 3.113-.175 1.205-.172 2.063-.657 2.574-1.5.475-.787.57-1.767.57-2.742 0-5.937-4.813-10.75-10.75-10.75M8.75 8.5a.75.75 0 1 1 1.5 0 .75.75 0 0 1-1.5 0m.75-2.25a2.25 2.25 0 1 0 0 4.5 2.25 2.25 0 0 0 0-4.5m-3.468 9.013a1 1 0 0 1 .707-1.225l.009-.002a1 1 0 0 1 .518 1.932l-.009.002a1 1 0 0 1-1.225-.707M15.75 9.5a.75.75 0 1 1 1.5 0 .75.75 0 0 1-1.5 0m.75-2.25a2.25 2.25 0 1 0 0 4.5 2.25 2.25 0 0 0 0-4.5" clip-rule="evenodd"/></svg>