<svg xmlns="http://www.w3.org/2000/svg" fill="none" viewBox="0 0 24 24"><path fill="currentColor" d="M2.5 12c0-4.23 0-6.345 1.198-7.747q.256-.3.555-.555C5.655 2.5 7.77 2.5 12 2.5s6.345 0 7.747 1.198q.3.256.555.555C21.5 5.655 21.5 7.77 21.5 12s0 6.345-1.198 7.747q-.256.3-.555.555C18.345 21.5 16.23 21.5 12 21.5s-6.345 0-7.747-1.198q-.3-.256-.555-.555C2.5 18.345 2.5 16.23 2.5 12" opacity=".4"/><path fill="currentColor" fill-rule="evenodd" d="M12.051 1.75h-.102c-2.072 0-3.695 0-4.973.155-1.306.159-2.351.49-3.21 1.223a6 6 0 0 0-.638.638c-.734.859-1.064 1.904-1.223 3.21-.155 1.278-.155 2.901-.155 4.973v.102c0 2.072 0 3.695.155 4.973.159 1.306.49 2.351 1.223 3.21q.293.345.638.638c.859.734 1.904 1.064 3.21 1.223 1.278.155 2.901.155 4.973.155h.102c2.072 0 3.695 0 4.973-.155 1.306-.159 2.351-.49 3.21-1.223q.345-.293.638-.638c.734-.859 1.064-1.904 1.223-3.21.155-1.278.155-2.901.155-4.973v-.102c0-2.072 0-3.695-.155-4.973-.159-1.306-.49-2.351-1.223-3.21a6 6 0 0 0-.638-.638c-.859-.734-1.904-1.064-3.21-1.223-1.278-.155-2.901-.155-4.973-.155M4.74 4.268c.544-.464 1.257-.733 2.417-.874C8.334 3.251 9.867 3.25 12 3.25s3.666.001 4.843.144c1.16.141 1.873.41 2.417.874q.255.218.472.472c.464.544.733 1.257.874 2.417.143 1.177.144 2.71.144 4.843s-.001 3.666-.144 4.843c-.141 1.16-.41 1.873-.874 2.417a4 4 0 0 1-.472.472c-.544.464-1.257.733-2.417.874-1.177.143-2.71.144-4.843.144s-3.666-.001-4.843-.144c-1.16-.141-1.873-.41-2.417-.874a4 4 0 0 1-.472-.472c-.464-.544-.733-1.257-.874-2.417-.143-1.177-.144-2.71-.144-4.843s.001-3.666.144-4.843c.141-1.16.41-1.873.874-2.417a4 4 0 0 1 .472-.472M10.4 6.25h-.077c-.29 0-.595-.001-.864.086a1.75 1.75 0 0 0-1.123 1.123c-.087.269-.087.573-.086.864V18a.75.75 0 1 0 1.5 0v-4.25H13a3.75 3.75 0 1 0 0-7.5zm2.6 6H9.75V8.4c0-.194 0-.31.005-.396l.008-.084a.25.25 0 0 1 .157-.157l.084-.008c.086-.004.202-.005.396-.005H13a2.25 2.25 0 1 1 0 4.5" clip-rule="evenodd"/></svg>