<svg xmlns="http://www.w3.org/2000/svg" fill="none" viewBox="0 0 24 24"><circle cx="12" cy="12" r="10" fill="currentColor" opacity=".4"/><path fill="currentColor" fill-rule="evenodd" d="M2.75 12a9.25 9.25 0 1 1 18.5 0 9.25 9.25 0 0 1-18.5 0M12 1.25C6.063 1.25 1.25 6.063 1.25 12S6.063 22.75 12 22.75 22.75 17.937 22.75 12 17.937 1.25 12 1.25m-1.6 5h-.077c-.29 0-.595-.001-.864.086a1.75 1.75 0 0 0-1.123 1.123c-.087.269-.087.573-.086.864V18a.75.75 0 1 0 1.5 0v-4.25H13a3.75 3.75 0 1 0 0-7.5zm2.6 6H9.75V8.4c0-.194 0-.31.005-.396l.008-.084a.25.25 0 0 1 .157-.157l.084-.008c.086-.004.202-.005.396-.005H13a2.25 2.25 0 1 1 0 4.5" clip-rule="evenodd"/></svg>