<svg xmlns="http://www.w3.org/2000/svg" fill="none" viewBox="0 0 24 24"><path fill="currentColor" d="M9 15v.5c0 2.817 0 4.225.764 5.182q.245.308.554.554C11.275 22 12.684 22 15.5 22s4.225 0 5.182-.764a3.5 3.5 0 0 0 .554-.554C22 19.725 22 18.317 22 15.5c0-2.816 0-4.225-.764-5.182a3.5 3.5 0 0 0-.554-.554C19.725 9 18.317 9 15.5 9H15c-.003 2.487-.047 3.783-.764 4.682a3.5 3.5 0 0 1-.554.554c-.899.717-2.195.761-4.682.764" opacity=".4"/><path fill="currentColor" fill-rule="evenodd" d="M5.5 15.75a.75.75 0 0 0 0-1.5h-.471c-.812-.063-1.215-.203-1.5-.43a2.2 2.2 0 0 1-.348-.346c-.23-.289-.371-.697-.433-1.53a.75.75 0 1 0-1.496.112c.07.928.241 1.709.758 2.355q.259.324.585.583c.644.513 1.423.685 2.35.754l.027.002zM1.25 9.5a.75.75 0 0 0 1.5 0v-2a.75.75 0 0 0-1.5 0zm13-4a.75.75 0 0 0 1.5 0v-.528l-.002-.028c-.07-.928-.241-1.709-.757-2.354a3.7 3.7 0 0 0-.586-.584c-.644-.513-1.423-.685-2.349-.754a.75.75 0 1 0-.112 1.496c.83.062 1.239.202 1.528.432q.193.153.347.346c.228.285.368.689.431 1.502zM1.252 4.944a.75.75 0 1 0 1.496.112c.062-.83.202-1.239.432-1.528a2.2 2.2 0 0 1 .346-.347c.289-.23.698-.371 1.53-.433a.75.75 0 1 0-.112-1.496c-.928.07-1.709.241-2.354.758a3.7 3.7 0 0 0-.584.585c-.513.644-.685 1.423-.754 2.35M9.5 2.75a.75.75 0 0 0 0-1.5h-2a.75.75 0 1 0 0 1.5zM9 14.25a.75.75 0 0 0-.75.748v.549c0 1.369 0 2.46.1 3.328.104.892.322 1.642.827 2.275q.299.374.673.673c.633.505 1.383.723 2.276.827.867.1 1.959.1 3.327.1h.094c1.369 0 2.46 0 3.328-.1.892-.104 1.642-.322 2.275-.827q.374-.299.673-.673c.505-.633.723-1.383.827-2.275.1-.867.1-1.96.1-3.328v-.094c0-1.368 0-2.46-.1-3.327-.104-.893-.322-1.643-.827-2.276a4.3 4.3 0 0 0-.673-.673c-.633-.505-1.383-.723-2.275-.826-.867-.101-1.96-.1-3.328-.1h-.529l-.017-.001a.75.75 0 0 0-.751.75c-.001 1.254-.014 2.148-.107 2.836-.09.673-.25 1.074-.493 1.379a2.8 2.8 0 0 1-.435.435c-.305.243-.706.402-1.379.493-.688.093-1.582.105-2.837.107m6.747-4.5c-.007.896-.032 1.65-.118 2.287-.11.822-.332 1.518-.806 2.113a4.3 4.3 0 0 1-.673.673c-.594.474-1.29.695-2.113.806-.636.086-1.392.11-2.287.118 0 1.297.006 2.23.09 2.955.088.755.251 1.188.51 1.513q.193.242.435.435c.325.259.758.422 1.513.51.77.089 1.776.09 3.202.09s2.431-.001 3.202-.09c.755-.088 1.188-.251 1.513-.51q.241-.193.435-.435c.259-.325.422-.758.51-1.513.089-.77.09-1.776.09-3.202s-.001-2.431-.09-3.202c-.088-.755-.251-1.188-.51-1.512a2.8 2.8 0 0 0-.435-.436c-.325-.259-.758-.422-1.513-.51-.725-.083-1.658-.09-2.955-.09" clip-rule="evenodd"/></svg>