<svg xmlns="http://www.w3.org/2000/svg" fill="none" viewBox="0 0 24 24"><path fill="currentColor" d="M2.764 3.318C2 4.275 2 5.684 2 8.5s0 4.225.764 5.182q.245.309.554.554C4.275 15 5.684 15 8.5 15H9c.003-2.487.047-3.783.764-4.682a3.5 3.5 0 0 1 .554-.554C11.217 9.047 12.513 9.003 15 9v-.5c0-2.816 0-4.225-.764-5.182a3.5 3.5 0 0 0-.554-.554C12.725 2 11.316 2 8.5 2s-4.225 0-5.182.764a3.5 3.5 0 0 0-.554.554" opacity=".4"/><path fill="currentColor" fill-rule="evenodd" d="M8.453 1.273h.094c1.368 0 2.46 0 3.327.1.893.104 1.643.323 2.276.828q.374.298.673.673c.505.633.723 1.382.827 2.275.1.867.1 1.959.1 3.327v.548a.71.71 0 0 1-.603.712 1 1 0 0 1-.146.014c-1.255.001-2.149.014-2.837.107-.673.09-1.074.25-1.379.493a2.8 2.8 0 0 0-.435.435c-.243.305-.402.706-.493 1.379-.093.688-.106 1.582-.107 2.837v.022a.75.75 0 0 1-.75.75h-.547c-1.368 0-2.46 0-3.328-.1-.892-.104-1.642-.322-2.275-.827a4.3 4.3 0 0 1-.673-.673c-.505-.633-.723-1.382-.827-2.275-.1-.867-.1-1.96-.1-3.327v-.095c0-1.368 0-2.46.1-3.327.104-.893.322-1.642.827-2.275A4.3 4.3 0 0 1 2.85 2.2c.633-.505 1.383-.724 2.275-.827.867-.1 1.96-.1 3.328-.1m5.707 4.049c.083.72.09 1.647.09 2.93-.896.008-1.651.033-2.287.119-.822.11-1.519.332-2.113.806a4.3 4.3 0 0 0-.673.673c-.474.594-.695 1.29-.806 2.113-.087.642-.111 1.405-.118 2.31-1.297 0-2.23-.006-2.955-.09-.755-.088-1.188-.25-1.513-.51a2.8 2.8 0 0 1-.435-.435c-.259-.324-.422-.758-.51-1.513-.089-.77-.09-1.775-.09-3.202 0-1.426.001-2.43.09-3.201.088-.755.251-1.189.51-1.513a2.8 2.8 0 0 1 .435-.436c.325-.258.758-.422 1.513-.51.77-.088 1.776-.09 3.202-.09s2.431.002 3.202.09c.755.088 1.188.252 1.513.51q.242.194.435.436c.259.324.422.758.51 1.513M18.5 8.25a.75.75 0 0 0 0 1.5h.471c.812.063 1.215.203 1.5.43q.195.154.348.346c.23.289.371.697.433 1.53a.75.75 0 1 0 1.496-.112c-.07-.928-.241-1.709-.758-2.355a3.7 3.7 0 0 0-.585-.583c-.644-.513-1.423-.685-2.349-.754l-.028-.002zm4.25 6.25a.75.75 0 0 0-1.5 0v2a.75.75 0 0 0 1.5 0zm-13 4a.75.75 0 0 0-1.5 0v.528l.002.028c.07.928.241 1.709.758 2.354q.259.325.585.584c.644.513 1.423.685 2.349.754a.75.75 0 0 0 .112-1.496c-.83-.062-1.239-.202-1.528-.432a2.2 2.2 0 0 1-.347-.346c-.228-.285-.368-.689-.431-1.502zm12.998.556a.75.75 0 0 0-1.496-.112c-.062.83-.202 1.239-.432 1.528a2.2 2.2 0 0 1-.346.347c-.288.23-.698.371-1.53.433a.75.75 0 1 0 .112 1.496c.928-.07 1.709-.241 2.354-.758q.325-.259.584-.585c.513-.644.685-1.423.754-2.349M14.5 21.25a.75.75 0 0 0 0 1.5h2a.75.75 0 0 0 0-1.5z" clip-rule="evenodd"/></svg>