<svg xmlns="http://www.w3.org/2000/svg" fill="none" viewBox="0 0 24 24"><path fill="currentColor" fill-rule="evenodd" d="M4.44 4.44C4 4.878 4 5.585 4 7v10c0 1.414 0 2.121.44 2.56C4.878 20 5.585 20 7 20s2.121 0 2.56-.44c.44-.439.44-1.146.44-2.56V7c0-1.414 0-2.121-.44-2.56C9.122 4 8.415 4 7 4s-2.121 0-2.56.44m10 0C14 4.878 14 5.585 14 7v10c0 1.414 0 2.121.44 2.56.439.44 1.146.44 2.56.44s2.121 0 2.56-.44c.44-.439.44-1.146.44-2.56V7c0-1.414 0-2.121-.44-2.56C19.122 4 18.415 4 17 4s-2.121 0-2.56.44" clip-rule="evenodd" opacity=".4"/><path fill="currentColor" fill-rule="evenodd" d="M7 3.25h-.05c-.664 0-1.237 0-1.696.062-.491.066-.963.215-1.345.597s-.531.854-.597 1.345c-.062.459-.062 1.032-.062 1.697V17.05c0 .664 0 1.237.062 1.696.066.492.215.963.597 1.345s.854.531 1.345.597c.459.062 1.032.062 1.697.062h.098c.665 0 1.238 0 1.697-.062.491-.066.963-.215 1.345-.597s.531-.854.597-1.345c.062-.459.062-1.032.062-1.697V6.951c0-.665 0-1.238-.062-1.697-.066-.491-.215-.963-.597-1.345s-.854-.531-1.345-.597c-.459-.062-1.032-.062-1.697-.062zM4.97 4.97c.057-.057.159-.128.484-.172.347-.046.818-.048 1.546-.048s1.2.002 1.546.048c.325.044.427.115.484.172s.128.159.172.484c.046.347.048.818.048 1.546v10c0 .728-.002 1.2-.048 1.546-.044.325-.115.427-.172.484s-.159.128-.484.172c-.347.046-.818.048-1.546.048s-1.2-.002-1.546-.048c-.325-.044-.427-.115-.484-.172s-.128-.159-.172-.484c-.046-.347-.048-.818-.048-1.546V7c0-.728.002-1.2.048-1.546.044-.325.115-.427.172-.484M17 3.25h-.05c-.664 0-1.237 0-1.696.062-.492.066-.963.215-1.345.597s-.531.854-.597 1.345c-.062.459-.062 1.032-.062 1.697V17.05c0 .664 0 1.237.062 1.696.066.492.215.963.597 1.345s.853.531 1.345.597c.459.062 1.032.062 1.697.062h.098c.665 0 1.238 0 1.697-.062.492-.066.963-.215 1.345-.597s.531-.854.597-1.345c.062-.459.062-1.032.062-1.697V6.951c0-.665 0-1.238-.062-1.697-.066-.491-.215-.963-.597-1.345s-.854-.531-1.345-.597c-.459-.062-1.032-.062-1.697-.062zm-2.03 1.72c.057-.057.159-.128.484-.172.347-.046.818-.048 1.546-.048s1.2.002 1.546.048c.325.044.427.115.484.172s.128.159.172.484c.046.347.048.818.048 1.546v10c0 .728-.002 1.2-.048 1.546-.044.325-.115.427-.172.484s-.159.128-.484.172c-.347.046-.818.048-1.546.048s-1.2-.002-1.546-.048c-.325-.044-.427-.115-.484-.172s-.128-.159-.172-.484c-.046-.347-.048-.818-.048-1.546V7c0-.728.002-1.2.048-1.546.044-.325.115-.427.172-.484" clip-rule="evenodd"/></svg>