<svg xmlns="http://www.w3.org/2000/svg" fill="none" viewBox="0 0 24 24"><path fill="currentColor" fill-rule="evenodd" d="M7 20c1.917 0 3.668-.378 5-1s3.083-1 5-1c1.066 0 2.08.117 3 .327.96.22 2-.456 2-1.441V6.114c0-1.494-.418-2.424-2-2.787-.92-.21-1.934-.327-3-.327-1.917 0-3.668.378-5 1S8.917 5 7 5c-1.066 0-2.08-.117-3-.327-.96-.22-2 .456-2 1.441v10.772c0 1.54.5 2.443 2 2.787.92.21 1.934.327 3 .327m5-6a2.5 2.5 0 1 0 0-5 2.5 2.5 0 0 0 0 5" clip-rule="evenodd" opacity=".4"/><path fill="currentColor" fill-rule="evenodd" d="M17 3.75c-1.825 0-3.465.36-4.682.93C10.87 5.355 9.008 5.75 7 5.75c-1.12 0-2.19-.123-3.167-.346-.594-.136-1.083.308-1.083.71v10.772c0 .843.015 1.048.121 1.272.062.129.241.354.353.443l-.465.588.466-.588c.203.16.334.201.943.34.862.198 1.82.309 2.832.309 1.396 0 2.687-.211 3.765-.567a.75.75 0 0 1 .47 1.424c-1.242.41-2.693.643-4.235.643-1.12 0-2.19-.123-3.167-.346l-.059-.014c-.547-.125-.992-.226-1.48-.613a3.1 3.1 0 0 1-.777-.974l.673-.32-.673.32c-.268-.564-.268-1.121-.267-1.812V6.114c0-1.567 1.591-2.476 2.918-2.172.862.197 1.82.308 2.832.308 1.826 0 3.465-.36 4.683-.93C13.13 2.645 14.992 2.25 17 2.25c1.12 0 2.19.123 3.168.346l.058.014c.547.125.992.226 1.48.613.293.23.617.638.777.974.268.564.268 1.121.267 1.811V11.5a.75.75 0 0 1-1.5 0V6.114c0-.843-.015-1.048-.121-1.272a1.7 1.7 0 0 0-.353-.443c-.203-.16-.335-.201-.943-.34A12.8 12.8 0 0 0 17 3.75m5.716 11.026a.75.75 0 0 1-.491.94c-1.394.437-2.774 1.777-3.856 3.134a21 21 0 0 0-1.686 2.466l-.021.037-.005.009v.001a.75.75 0 0 1-1.37-.13l-.003-.01-.017-.047a4 4 0 0 0-.386-.762c-.298-.45-.602-.664-.88-.664a.75.75 0 0 1 0-1.5c1.004 0 1.678.69 2.058 1.23.3-.45.684-.997 1.137-1.565 1.107-1.388 2.727-3.048 4.58-3.63a.75.75 0 0 1 .94.49M10.25 11.5a1.75 1.75 0 1 1 3.5 0 1.75 1.75 0 0 1-3.5 0M12 8.25a3.25 3.25 0 1 0 0 6.5 3.25 3.25 0 0 0 0-6.5M5.5 11.5a1 1 0 0 1 1 1v.009a1 1 0 1 1-2 0V12.5a1 1 0 0 1 1-1m14-1.008a1 1 0 1 0-2 0v.01a1 1 0 0 0 2 0z" clip-rule="evenodd"/></svg>