<svg xmlns="http://www.w3.org/2000/svg" fill="none" viewBox="0 0 24 24"><path fill="currentColor" fill-rule="evenodd" d="M11 3.5h2c4.243 0 6.364 0 7.682 1.172S22 7.729 22 11.5s0 5.657-1.318 6.828S17.242 19.5 13 19.5h-2c-4.243 0-6.364 0-7.682-1.172S2 15.271 2 11.5s0-5.657 1.318-6.828S6.758 3.5 11 3.5M12 14a2.5 2.5 0 1 0 0-5 2.5 2.5 0 0 0 0 5" clip-rule="evenodd" opacity=".4"/><path fill="currentColor" fill-rule="evenodd" d="M10.453 2.75h3.095c1.838 0 3.283 0 4.421.128 1.163.132 2.105.405 2.888 1.024q.353.278.65.612c.6.672.901 1.473 1.058 2.44.155.946.18 2.11.184 3.543V11a.75.75 0 0 1-1.5 0v-.5c-.005-1.449-.032-2.496-.164-3.306-.129-.79-.348-1.292-.698-1.683q-.208-.234-.46-.433c-.47-.372-1.095-.594-2.126-.71-1.044-.118-2.404-.12-4.301-.12h-3c-1.897 0-3.256.002-4.301.12-1.03.116-1.655.338-2.127.71q-.25.198-.46.433c-.386.433-.615 1.003-.736 1.955-.125.974-.126 2.244-.126 4.033 0 1.788.001 3.059.126 4.032.121.953.35 1.522.737 1.956q.208.234.46.432c.47.372 1.095.594 2.126.71 1.045.119 2.404.12 4.301.12h.5a.75.75 0 1 1 0 1.5h-.547c-1.84 0-3.284 0-4.422-.129-1.163-.131-2.105-.405-2.888-1.023a5 5 0 0 1-.65-.612c-.666-.747-.964-1.653-1.105-2.764-.138-1.08-.138-2.445-.138-4.17v-.105c0-1.724 0-3.09.138-4.17.141-1.11.439-2.016 1.105-2.763q.297-.334.65-.612c.783-.619 1.725-.892 2.888-1.024 1.138-.128 2.582-.128 4.422-.128M5.5 10.5a1 1 0 1 1 0 2h-.009a1 1 0 0 1 0-2zm16.725 4.716a.75.75 0 0 0-.45-1.432c-1.852.582-3.472 2.242-4.579 3.63a22 22 0 0 0-1.137 1.566c-.38-.54-1.054-1.23-2.059-1.23a.75.75 0 1 0 0 1.5c.278 0 .583.214.881.664a4 4 0 0 1 .386.762l.017.048.003.008v.002a.75.75 0 0 0 1.37.13v-.003l.005-.008.021-.037.087-.15a21 21 0 0 1 1.599-2.316c1.082-1.357 2.462-2.697 3.856-3.135M10.25 11.5a1.75 1.75 0 1 1 3.5 0 1.75 1.75 0 0 1-3.5 0M12 8.25a3.25 3.25 0 1 0 0 6.5 3.25 3.25 0 0 0 0-6.5" clip-rule="evenodd"/></svg>