<svg xmlns="http://www.w3.org/2000/svg" fill="none" viewBox="0 0 24 24"><path fill="currentColor" d="M6.294 4.835 4.165 17.671c-.18 1.081-.269 1.622.03 1.975.297.354.842.354 1.933.354h.402c.823 0 1.234 0 1.515-.244.28-.245.339-.654.455-1.473l.468-3.29c.037-.26.055-.39.084-.501a1.99 1.99 0 0 1 1.697-1.479c.113-.013.244-.013.505-.013h1.162a6.636 6.636 0 0 0 6.464-5.186C19.554 4.836 17.302 2 14.263 2h-4.64c-1.114 0-1.67 0-2.11.235-.25.134-.47.32-.642.547-.303.397-.394.949-.577 2.053" opacity=".4"/><path fill="currentColor" fill-rule="evenodd" d="M19.395 8.746a3.1 3.1 0 0 1 .778 2.821c-.481 2.145-2.408 3.68-4.644 3.68h-1.803c-.854 0-1.594.612-1.737 1.46l-.73 4.33a.26.26 0 0 1-.257.21h-1.99a.254.254 0 0 1-.258-.29l.216-1.261a3 3 0 0 0 .088-.264c.076-.281.126-.629.179-1.003l.54-3.747c.131-.5.553-.865 1.058-.924l1.581-.008c3.18 0 5.967-2.04 6.979-5.004m.345-1.67c.185-3.092-2.262-5.826-5.477-5.826H9.591c-.53 0-.975 0-1.342.032-.385.034-.746.108-1.09.292a2.7 2.7 0 0 0-.884.753c-.237.31-.368.654-.464 1.03-.092.357-.165.798-.252 1.324L3.417 17.597c-.083.499-.157.949-.166 1.316-.01.4.052.84.37 1.217s.74.512 1.137.568c.363.052.818.052 1.32.052h.493c.248 0 .484 0 .699-.01a1.754 1.754 0 0 0 1.742 2.007h1.99c.855 0 1.594-.612 1.737-1.461l.73-4.329a.26.26 0 0 1 .257-.21h1.803c2.927 0 5.47-2.011 6.108-4.851.434-1.932-.41-3.79-1.897-4.82m-11.359-4.3c-.281.025-.418.069-.513.12-.156.084-.293.2-.401.341-.066.087-.132.217-.203.493-.074.286-.137.663-.23 1.228l-2.13 12.836c-.093.563-.149.907-.155 1.156-.005.08.03.245.22.263.244.035.59.037 1.158.037h.402c.431 0 .684-.001.867-.025.135-.011.199-.13.214-.188.048-.18.086-.431.147-.86 0 0 .528-3.72.568-3.875a2.74 2.74 0 0 1 2.336-2.034l1.754-.018a5.886 5.886 0 0 0 5.733-4.602c.568-2.513-1.333-4.898-3.886-4.898h-4.64c-.57 0-.95 0-1.242.026" clip-rule="evenodd"/></svg>