<svg xmlns="http://www.w3.org/2000/svg" fill="none" viewBox="0 0 24 24"><path fill="currentColor" d="M13.285 19.365 5.822 20.75c-1.431.265-2.147.398-2.559-.014s-.28-1.128-.014-2.56l1.386-7.463c.222-1.196.334-1.795.728-2.156s1.116-.432 2.559-.574C9.312 7.848 10.628 7.372 12 6l6 6c-1.372 1.372-1.849 2.687-1.985 4.078-.141 1.443-.212 2.165-.573 2.559-.362.394-.96.505-2.157.728" opacity=".4"/><path fill="currentColor" fill-rule="evenodd" d="m19.037 4.79-.042-.043c-.772-.772-1.411-1.411-1.982-1.834-.602-.446-1.24-.737-1.995-.647-1 .12-1.757.783-2.304 1.422-.417.487-.789 1.058-1.085 1.512q-.112.173-.21.32c-1.22 1.2-2.355 1.6-3.57 1.718l-.039.004c-.688.067-1.26.123-1.705.21-.454.09-.898.231-1.249.553-.335.307-.514.69-.639 1.1-.117.384-.207.868-.312 1.432l-1.403 7.559c-.124.668-.233 1.25-.25 1.716-.018.495.058 1.033.48 1.455.423.422.96.499 1.456.48.465-.016 1.048-.125 1.716-.249l7.558-1.403c.564-.105 1.048-.195 1.433-.312.41-.125.792-.304 1.1-.64.321-.35.463-.794.552-1.248.087-.445.143-1.017.21-1.706l.005-.038c.119-1.216.518-2.35 1.72-3.571q.146-.098.318-.21c.454-.295 1.025-.667 1.512-1.084.639-.547 1.302-1.304 1.421-2.304.09-.756-.2-1.393-.646-1.995-.423-.57-1.062-1.21-1.834-1.982zm-.94 6.247c.422-.275.85-.557 1.24-.891.55-.471.856-.912.907-1.341.026-.22-.029-.474-.363-.925-.348-.47-.906-1.031-1.731-1.857l-.173-.173c-.826-.825-1.386-1.383-1.857-1.732-.45-.333-.706-.388-.925-.362-.43.051-.87.356-1.341.907-.334.39-.616.818-.891 1.24zM11.98 7.04c-1.316 1.122-2.625 1.558-3.984 1.69-.737.073-1.235.123-1.601.194-.367.072-.48.147-.524.187-.06.054-.133.15-.218.43-.09.295-.165.695-.28 1.31l-1.385 7.463a44 44 0 0 0-.14.78l4.68-4.681a3.5 3.5 0 0 1-.478-1.293.75.75 0 0 1 1.48-.24c.069.42.247.783.528 1.063.28.281.644.46 1.063.527a.75.75 0 0 1-.24 1.48 3.5 3.5 0 0 1-1.293-.477l-4.68 4.68q.33-.056.778-.14l7.463-1.386c.616-.114 1.015-.19 1.31-.28.28-.084.377-.158.43-.217.04-.043.115-.157.187-.524.072-.366.122-.864.194-1.601.133-1.36.569-2.667 1.69-3.984z" clip-rule="evenodd"/></svg>