<svg xmlns="http://www.w3.org/2000/svg" fill="none" viewBox="0 0 24 24"><path fill="currentColor" d="m18.5 7.992-2.5-2.5-7.5 7.5 2.5 2.5z" opacity=".4"/><path fill="currentColor" fill-rule="evenodd" d="M3 21.743a.75.75 0 0 1-.72-.96l.86-3c.12-.44.36-.86.7-1.19l13.84-13.84c.66-.66 1.81-.66 2.47 0l1.09 1.09c.68.68.68 1.79 0 2.47l-1.679 1.68.41.41c.43.43.66.99.66 1.59s-.24 1.16-.66 1.59l-1.94 1.94c-.15.15-.34.22-.53.22s-.38-.07-.53-.22a.755.755 0 0 1 0-1.06l1.94-1.94a.75.75 0 0 0 0-1.06l-.41-.41L11.553 16l-.044.044L7.4 20.153c-.34.34-.75.58-1.2.7l-2.99.86q-.105.03-.21.03m8.006-7.305 6.44-6.44-1.44-1.44-6.44 6.44zm-2.5-.38 1.44 1.44-3.595 3.595c-.16.15-.34.26-.55.32l-1.7.49.49-1.71c.06-.2.17-.39.32-.54zm11.685-8.805-1.685 1.685-1.44-1.44 1.685-1.685c.06-.06.17-.07.17-.07h.01c.04 0 .11.01.17.07l1.09 1.09c.1.1.1.25 0 .35" clip-rule="evenodd"/></svg>