<svg xmlns="http://www.w3.org/2000/svg" fill="none" viewBox="0 0 24 24"><path fill="currentColor" d="m10.98 10.218 5.234-5.234 2.804 2.804-5.234 5.234c-1.046 1.045-1.568 1.568-2.205 1.924S9.439 15.66 8 16.002c.342-1.438.7-2.942 1.056-3.579s.879-1.16 1.924-2.205" opacity=".4"/><path fill="currentColor" fill-rule="evenodd" d="M12 2.25h-.057c-2.073 0-3.705 0-4.98.171-1.31.176-2.354.545-3.175 1.367-.822.821-1.19 1.866-1.367 3.174-.171 1.276-.171 2.908-.171 4.981v.114c0 2.073 0 3.705.171 4.98.176 1.31.545 2.354 1.367 3.175.821.822 1.866 1.19 3.174 1.367 1.276.171 2.908.171 4.981.171h.114c2.073 0 3.705 0 4.98-.171 1.31-.176 2.354-.545 3.175-1.367.822-.821 1.19-1.866 1.367-3.174.171-1.276.171-2.908.171-4.981V12a.75.75 0 0 0-1.5 0c0 2.143-.002 3.674-.158 4.838-.154 1.142-.444 1.817-.94 2.314-.497.496-1.172.786-2.314.94-1.164.156-2.696.158-4.838.158s-3.674-.002-4.838-.158c-1.142-.154-1.817-.444-2.314-.94-.496-.497-.786-1.172-.94-2.314-.156-1.164-.158-2.696-.158-4.838s.002-3.674.158-4.838c.154-1.142.444-1.817.94-2.314.497-.496 1.172-.786 2.314-.94C8.326 3.752 9.857 3.75 12 3.75a.75.75 0 0 0 0-1.5m8.95.8a2.73 2.73 0 0 0-3.864 0L10.45 9.686l-.08.08c-.97.969-1.561 1.56-1.968 2.29-.227.406-.426 1.022-.601 1.653-.181.649-.359 1.396-.529 2.109l-.002.008a.75.75 0 0 0 .904.904l.008-.003c.713-.17 1.46-.347 2.109-.528.63-.175 1.247-.374 1.654-.6.728-.408 1.32-1 2.289-1.968l.08-.08 6.636-6.637a2.73 2.73 0 0 0 0-3.864m-2.804 1.061a1.232 1.232 0 0 1 1.743 1.743l-.871.871-1.743-1.743zm-1.932 1.932 1.743 1.743-4.704 4.703c-1.074 1.075-1.515 1.506-2.04 1.8-.23.129-.684.287-1.324.465-.274.076-.567.152-.871.228.076-.304.152-.597.228-.87.178-.64.336-1.095.465-1.325.294-.525.726-.966 1.8-2.04z" clip-rule="evenodd"/></svg>