<svg xmlns="http://www.w3.org/2000/svg" fill="none" viewBox="0 0 24 24"><path fill="currentColor" d="M18.703 3.16a.91.91 0 0 0-1.212-.815C13.731 3.64 10.278 6.17 8.07 9.45s-3.254 7.419-3.042 11.39a.91.91 0 0 0 1.211.816c3.76-1.296 7.213-3.827 9.423-7.106s3.254-7.419 3.042-11.39" opacity=".4"/><path stroke="#161616" stroke-linejoin="round" stroke-width="1.5" d="M17.735 3.054a.16.16 0 0 1 .22.146c.203 3.821-.805 7.798-2.916 10.93-2.111 3.134-5.426 5.57-9.045 6.816a.16.16 0 0 1-.219-.146c-.203-3.821.804-7.798 2.915-10.93 2.112-3.134 5.426-5.57 9.045-6.816Z"/></svg>