<svg xmlns="http://www.w3.org/2000/svg" fill="none" viewBox="0 0 24 24"><path fill="currentColor" d="M4.68 8.562v6.047c0 3.326 0 4.989 1.036 6.022s2.704 1.033 6.04 1.033 5.004 0 6.04-1.033c.489-.487.747-1.115.884-1.99L4.757 5.164c-.077.889-.077 1.996-.077 3.398" opacity=".4"/><path fill="currentColor" fill-rule="evenodd" d="M2.21 1.134a.75.75 0 0 0-1.06 1.06l2.887 2.888-.003.06-.1 13.015v.006a4.25 4.25 0 0 0 4.25 4.25h6.991c1.105 0 2.117-.311 2.889-.957a3.7 3.7 0 0 0 1.006-1.341l2.08 2.08a.75.75 0 1 0 1.06-1.061l-2.983-2.984-.044-.044zm15.67 17.791L5.523 6.568l-.09 11.598a2.75 2.75 0 0 0 2.75 2.747h6.992c.828 0 1.476-.232 1.926-.608.377-.315.658-.768.779-1.38M8.187 2.415a2.7 2.7 0 0 0-1.061.211.75.75 0 1 1-.58-1.383A4.2 4.2 0 0 1 8.187.914h6.992a4.25 4.25 0 0 1 4.25 4.25v9.505a.75.75 0 0 1-1.5 0V5.164a2.75 2.75 0 0 0-2.75-2.75zm3.493 15.25a1 1 0 1 0 0 2h.009a1 1 0 0 0 0-2zm-1.75-13a.75.75 0 0 1 .75-.75h2a.75.75 0 0 1 0 1.5h-2a.75.75 0 0 1-.75-.75" clip-rule="evenodd"/></svg>