<svg xmlns="http://www.w3.org/2000/svg" fill="none" viewBox="0 0 24 24"><path fill="currentColor" d="M15.25 10.75h6.678q.044.076.082.158c.24.517.24 1.129.24 2.354 0 1.615 0 2.423-.43 2.936l-.056.065c-.452.487-1.091.487-2.514.487a2 2 0 1 0-4 0h-6a2 2 0 1 0-4 0h-.289c-1.202 0-1.218-.005-2.219-.672-.383-.255-.492-.399-.492-.863V10.75h10v-7z" opacity=".4"/><path fill="currentColor" fill-rule="evenodd" d="M6.002 16.825A1.25 1.25 0 0 0 7.25 18c.689 0 1.25-.561 1.25-1.25s-.561-1.25-1.25-1.25c-.664 0-1.21.521-1.248 1.176a1 1 0 0 1 0 .149m-2.53.53c.27.102.717.14 1.133.149A2.756 2.756 0 0 0 7.25 19.5a2.756 2.756 0 0 0 2.646-2h4.708c.328 1.153 1.39 2 2.646 2s2.32-.848 2.647-2.002c1.144-.014 1.844-.106 2.419-.725l.003-.004.003-.004.07-.078.006-.008c.541-.647.597-1.482.603-2.897v-.521c0-1.291 0-2.002-.31-2.67-.34-.731-.924-1.154-1.89-1.854l-.002-.002c-.832-.603-1.446-1.288-2.052-2.29-.974-1.615-1.462-2.425-2.306-2.93C15.579 3 14.647 3 12.954 3h-.704a.75.75 0 0 0-.75.75V10H3.241c-.039 0-.327.003-.575 0l-.208-.005h-.002c-.233-.005-.523-.011-.763.26a.76.76 0 0 0-.188.57v.92c-.003.542-.017 3.22.017 3.73.02.735.674 1.143.912 1.287l.031.02.008.005c.271.18.64.424.983.561zM11.5 11.5H3.256l-.249.002v.248c-.009 1.547-.008 3.266.011 3.593a1.5 1.5 0 0 0 .231.162l.045.03.004.003c.19.125.5.33.705.416.085.024.319.042.6.05A2.755 2.755 0 0 1 7.25 14c1.256 0 2.319.847 2.646 2H11.5zm8.395 4.498c.804-.01 1.14-.054 1.317-.242l.019-.02.018-.022c.161-.196.22-.599.24-1.214h-.238a.75.75 0 1 1-.001-1.5h.251c0-.727-.009-1.19-.084-1.518a1 1 0 0 1-.166.018H17.55c-1.55 0-2.486 0-3.266-.657-.58-.488-.887-1.163-1.279-2.323V16h1.6c.327-1.153 1.39-2 2.646-2 1.255 0 2.317.846 2.645 1.998m-3.894.81a1 1 0 0 0 0-.115A1.25 1.25 0 0 1 17.25 15.5c.689 0 1.25.561 1.25 1.25S17.939 18 17.25 18c-.67 0-1.219-.53-1.249-1.193m-1.915-9.809-.803-2.5c1.338.003 1.936.032 2.387.302.523.313.946 1.014 1.79 2.41l.003.007c.717 1.185 1.451 2.002 2.456 2.73l.006.004.062.046H17.55c-1.379 0-1.953-.012-2.3-.304-.407-.343-.676-1.179-1.163-2.695" clip-rule="evenodd"/></svg>