<svg xmlns="http://www.w3.org/2000/svg" fill="none" viewBox="0 0 24 24"><path fill="currentColor" d="M3.464 5.156C2 6.327 2 8.213 2 11.984s0 5.657 1.464 6.828S7.286 19.984 12 19.984c1.389 0 2.573 0 3.59-.03-.538-.043-.89-.15-1.15-.409-.44-.44-.44-1.147-.44-2.56 0-1.415 0-2.122.44-2.562.438-.439 1.145-.439 2.56-.439h2c1.414 0 2.121 0 2.56.44.211.21.321.482.378.865.062-.906.062-1.99.062-3.305 0-3.77 0-5.657-1.465-6.828C19.071 3.984 16.714 3.984 12 3.984s-7.072 0-8.536 1.172" opacity=".4"/><path fill="currentColor" fill-rule="evenodd" d="M11.5 20.734H10c-3.973 0-5.968 0-7.359-1.392-1.391-1.39-1.391-3.385-1.391-7.358s0-5.968 1.391-7.358C4.033 3.234 6.027 3.234 10 3.234h4c3.973 0 5.967 0 7.358 1.392 1.326 1.325 1.389 3.262 1.391 6.858a.75.75 0 1 1-1.5 0c-.002-3.187-.045-4.893-.951-5.798-.953-.953-2.739-.953-6.298-.953h-4c-3.56 0-5.346 0-6.299.952-.95.951-.951 2.738-.951 6.298s0 5.346.951 6.298c.952.952 2.739.952 6.299.952h1.5a.75.75 0 0 1 0 1.5zm-1.455-6.999H7.5a.75.75 0 0 1 0-1.5h1.69l-3.72-3.72a.75.75 0 0 1 1.06-1.06l3.72 3.72v-1.69a.75.75 0 0 1 1.5 0v2.474c.03.47-.134.926-.452 1.258a1.73 1.73 0 0 1-1.253.52zm5.455 7h5a2.25 2.25 0 0 0 2.25-2.25v-3a2.25 2.25 0 0 0-2.25-2.25h-5a2.25 2.25 0 0 0-2.25 2.25v3a2.25 2.25 0 0 0 2.25 2.25m-.75-5.25a.75.75 0 0 1 .75-.75h5a.75.75 0 0 1 .75.75v3a.75.75 0 0 1-.75.75h-5a.75.75 0 0 1-.75-.75z" clip-rule="evenodd"/></svg>