<svg xmlns="http://www.w3.org/2000/svg" fill="none" viewBox="0 0 24 24"><path fill="currentColor" d="M13.239 18.912c-3.753-.852-7.299-4.398-8.15-8.15-.238-1.045-.017-1.728.904-2.303.506-.317.966-.33 1.507-.459l8.5 8.5c-.128.508-.159 1.029-.458 1.508-.576.92-1.259 1.14-2.303.904" opacity=".4"/><path fill="currentColor" fill-rule="evenodd" d="M16.091 12.745q.045.005.09.005h.002a.75.75 0 0 0 .744-.662 1 1 0 0 1 .026-.143l.003-.005.002-.005c.265-.509 1.198-.949 1.95-1.303l.007-.003c.307-.144.597-.282.854-.425.922-.516 1.531-.857 1.837-1.682l.002-.005.002-.006c.292-.828.087-1.387-.171-2.09a6.38 6.38 0 0 0-3.851-3.859l-.006-.002-.006-.002c-.742-.265-1.278-.456-2.086-.163-.836.3-1.177.912-1.693 1.839-.142.255-.278.543-.421.847-.35.745-.787 1.672-1.294 1.936a.6.6 0 0 1-.167.036.75.75 0 1 0 .174 1.49c.273-.032.5-.097.69-.197.952-.495 1.484-1.626 1.954-2.625.132-.28.257-.546.374-.757.472-.848.61-1.057.89-1.157.285-.104.401-.076 1.079.166a4.89 4.89 0 0 1 2.951 2.96c.243.66.272.78.17 1.073-.105.276-.317.417-1.16.89-.213.117-.48.243-.763.376-1.004.474-2.142 1.01-2.644 1.963-.128.235-.17.484-.194.675a.75.75 0 0 0 .655.835m-3.018 6.897q.464.105.87.106h-.002c.951 0 1.673-.44 2.233-1.344a3 3 0 0 0 .35-.82l3.946 3.945a.75.75 0 0 0 1.061 0 .75.75 0 0 0 0-1.06l-18-18a.75.75 0 1 0-1.061 1.06l3.937 3.938c-.257.072-.53.177-.815.354-1.162.726-1.554 1.713-1.234 3.104.407 1.795 1.37 3.53 2.668 4.987L2.47 20.468A.75.75 0 0 0 3 21.75a.75.75 0 0 0 .53-.22l4.557-4.556c1.456 1.299 3.191 2.262 4.986 2.67M7.67 8.73l7.6 7.6c-.039.15-.068.294-.096.434v.001c-.066.328-.123.611-.272.848-.378.611-.727.743-1.496.568-3.468-.788-6.8-4.12-7.585-7.588-.178-.776-.05-1.112.565-1.497.263-.164.513-.212.86-.278q.2-.036.424-.088" clip-rule="evenodd"/></svg>