<svg xmlns="http://www.w3.org/2000/svg" fill="none" viewBox="0 0 24 24"><path fill="currentColor" d="M2.84 20.203c1.12 1.063 2.935 1.063 4.055 0a2.64 2.64 0 0 0 .838-2.02.63.63 0 0 1 .182-.487l2.746-2.605a.6.6 0 0 1 .646-.1c1.037.428 2.299.339 3.309.114.501-.112.503-.74.056-.983a8 8 0 0 1-1.694-1.23 7.6 7.6 0 0 1-1.55-2.065c-.405-.792-1.576-1.126-2.231-.504L2.84 16.356a2.623 2.623 0 0 0 0 3.848" opacity=".4"/><path fill="currentColor" fill-rule="evenodd" d="M15.702 4.702a3.25 3.25 0 1 1 4.596 4.596 3.25 3.25 0 0 1-4.596-4.596m5.657-1.06a4.75 4.75 0 0 0-7.993 4.405l-2.013 1.61a2.4 2.4 0 0 0-.768-.34c-.613-.152-1.35-.063-1.904.462L2.324 15.81a3.373 3.373 0 0 0 0 4.936c1.409 1.337 3.678 1.337 5.087 0a3.4 3.4 0 0 0 1.073-2.557l2.61-2.477c1.232.481 2.639.356 3.684.124a1.21 1.21 0 0 0 .971-1.147 1.35 1.35 0 0 0-.72-1.227q-.265-.144-.519-.31l1.958-1.567a1 1 0 0 0 .072-.065 4.75 4.75 0 0 0 4.819-7.88m-9.074 7.19 1.672-1.337a4.8 4.8 0 0 0 1.141 1.266l-1.774 1.42a7 7 0 0 1-1.039-1.349m-2.572.035c.102-.097.277-.153.514-.094.242.06.441.217.532.394a8.4 8.4 0 0 0 1.703 2.269c.42.4.874.75 1.35 1.05-.773.103-1.572.078-2.218-.19-.444-.183-1.027-.15-1.45.25L7.4 17.152a1.38 1.38 0 0 0-.415 1.058 1.9 1.9 0 0 1-.605 1.449c-.83.788-2.192.788-3.023 0a1.874 1.874 0 0 1 0-2.76zm7.588-3.152A1 1 0 1 0 18.715 6.3l-.006-.007a1 1 0 1 0-1.415 1.414z" clip-rule="evenodd"/></svg>