<svg xmlns="http://www.w3.org/2000/svg" fill="none" viewBox="0 0 24 24"><path fill="currentColor" fill-rule="evenodd" d="m11.99 12.006 7.36-4.25c.72-.42.97-1.34.46-1.99a10.02 10.02 0 0 0-6.33-3.65c-.81-.12-1.49.56-1.49 1.39zm0 0-7.36-4.25c-.72-.41-1.65-.17-1.95.6a9.8 9.8 0 0 0-.69 3.65c0 1.29.24 2.52.69 3.65.3.77 1.23 1.01 1.95.6zm0 0 7.36 4.25c.72.42.97 1.34.46 1.99a10.02 10.02 0 0 1-6.33 3.65c-.81.12-1.49-.56-1.49-1.39z" clip-rule="evenodd" opacity=".4"/><path fill="currentColor" fill-rule="evenodd" d="M13.29 22.656c-.47 0-.93-.17-1.3-.49l-.015-.013-.004.003c-.37.32-.83.49-1.3.49l.01.01c-.1 0-.2 0-.31-.02-2.68-.4-5.09-1.8-6.79-3.92a1.99 1.99 0 0 1-.4-1.63c-.56-.2-.98-.61-1.2-1.16-.49-1.24-.74-2.56-.74-3.93s.25-2.69.74-3.93c.21-.54.64-.95 1.2-1.15l.01-.003a2 2 0 0 1 .39-1.617c1.71-2.13 4.12-3.52 6.8-3.93a1.97 1.97 0 0 1 1.605.466 1.95 1.95 0 0 1 1.595-.456c2.69.4 5.1 1.8 6.8 3.92.37.46.51 1.038.4 1.617l.04.013c.56.2.98.61 1.2 1.16.49 1.24.74 2.56.74 3.92s-.25 2.69-.74 3.93c-.21.54-.64.96-1.2 1.15l-.017.006a1.94 1.94 0 0 1-.413 1.604c-1.69 2.12-4.1 3.52-6.79 3.92-.1.02-.2.02-.3.02zM11.234 3.402a.72.72 0 0 0-.222-.426.5.5 0 0 0-.33-.13v.01h-.08c-2.3.35-4.38 1.55-5.85 3.38-.11.15-.11.3-.09.41.032.152.115.29.238.392q.057.027.111.058l6.221 3.596V3.506q0-.053.002-.104m-.754 8.608L4.25 8.416a.7.7 0 0 0-.37-.1l.01-.01c-.07 0-.14.01-.21.04-.14.05-.24.15-.3.29-.42 1.07-.64 2.2-.64 3.38s.21 2.31.64 3.38c.06.14.16.24.3.29a.7.7 0 0 0 .457-.01q.055-.037.114-.07zm.762 1.296-6.23 3.6a.68.68 0 0 0-.34.46c-.02.1-.02.26.1.41a9.18 9.18 0 0 0 5.84 3.37c.19.03.33-.05.41-.12a.7.7 0 0 0 .222-.424l-.002-.106zm8.49 2.29.084.05a.68.68 0 0 0 .495.02.48.48 0 0 0 .3-.29c.42-1.07.64-2.2.64-3.38s-.21-2.31-.64-3.38a.5.5 0 0 0-.3-.29.74.74 0 0 0-.58.06l-6.24 3.6v.012zm-6.99 4.91v-7.194l6.23 3.594c.18.1.3.27.34.46.02.1.02.26-.1.41a9.2 9.2 0 0 1-5.84 3.38.47.47 0 0 1-.4-.12.7.7 0 0 1-.23-.53m.23-17.53c.1-.08.2-.12.32-.12h.08a9.2 9.2 0 0 1 5.85 3.38c.12.15.12.31.1.41a.68.68 0 0 1-.34.46l-6.24 3.6v-7.2c0-.21.09-.41.23-.53m2.02 2.88c-.41 0-.75-.34-.75-.75v-.1c0-.41.34-.75.75-.75s.75.34.75.75v.1c0 .41-.34.75-.75.75m-6.25 10.25c0 .41.34.75.75.75s.75-.34.75-.75v-.1c0-.41-.34-.75-.75-.75s-.75.34-.75.75zm-2.75-3.25c-.41 0-.75-.34-.75-.75v-.1c0-.41.34-.75.75-.75s.75.34.75.75v.1c0 .41-.34.75-.75.75m12.25-.75c0 .41.34.75.75.75s.75-.34.75-.75v-.1c0-.41-.34-.75-.75-.75s-.75.34-.75.75zm-3.75-3.35c-.28 0-.54-.15-.67-.41a.745.745 0 0 1 .34-1.01l1-.5c.37-.19.82-.03 1.01.34s.04.82-.34 1.01l-1 .5a.8.8 0 0 1-.33.08zm-7.17-1.91c.13.26.4.41.67.41l.01.01a.8.8 0 0 0 .33-.08l1-.5c.38-.19.53-.64.34-1.01a.763.763 0 0 0-1.01-.34l-1 .5c-.38.19-.53.64-.34 1.01m1.17 12.91c-.27 0-.54-.15-.67-.41a.745.745 0 0 1 .34-1.01l1-.5c.37-.18.82-.03 1.01.34s.04.82-.34 1.01l-1 .5a.8.8 0 0 1-.33.08zm7.17-1.08c.1.05.22.08.33.08l.01-.01c.27 0 .54-.15.67-.41.18-.37.03-.82-.34-1.01l-1-.5a.763.763 0 0 0-1.01.34c-.18.37-.03.82.34 1.01z" clip-rule="evenodd"/></svg>