<svg xmlns="http://www.w3.org/2000/svg" fill="none" viewBox="0 0 24 24"><path fill="currentColor" d="M12 10v1H9a6 6 0 0 1-6-6V4h3a6 6 0 0 1 6 6" opacity=".4"/><path fill="currentColor" fill-rule="evenodd" d="M3 3.25a.75.75 0 0 0-.75.75v1A6.75 6.75 0 0 0 9 11.75h2.255a7 7 0 0 0-.005.25v8a.75.75 0 0 0 1.5 0v-6.25H15A6.75 6.75 0 0 0 21.75 7V6a.75.75 0 0 0-.75-.75h-3a6.74 6.74 0 0 0-5.518 2.861A6.75 6.75 0 0 0 6 3.25zM3.75 5v-.25H6c2.9 0 5.25 2.35 5.25 5.25v.25H9A5.25 5.25 0 0 1 3.75 5M18 6.75A5.25 5.25 0 0 0 12.75 12v.25H15c2.9 0 5.25-2.35 5.25-5.25v-.25z" clip-rule="evenodd"/></svg>