<svg xmlns="http://www.w3.org/2000/svg" fill="none" viewBox="0 0 24 24"><path fill="currentColor" d="M16.838 6H7.154c-1.175 0-1.763 0-2.179.236a1.98 1.98 0 0 0-.93 1.233c-.126.482.003 1.089.261 2.305.302 1.421.453 2.132.796 2.675a3.34 3.34 0 0 0 1.551 1.315C7.228 14 7.916 14 9.29 14h.27l.496 3.573c.045.322.068.484.023.609-.206.583-.995.205-1.422.381a.9.9 0 0 0-.34.248c-.113.13-.182.308-.32.665-.262.674-.85 1.623-.218 2.262C8.04 22 8.5 22 9.42 22h5.152c.921 0 1.382 0 1.641-.262.633-.639.044-1.588-.217-2.262-.139-.357-.208-.535-.32-.665a.9.9 0 0 0-.34-.248c-.428-.176-1.217.202-1.423-.381-.045-.125-.022-.287.023-.609L14.433 14h.27c1.373 0 2.061 0 2.636-.236a3.34 3.34 0 0 0 1.551-1.315c.343-.543.494-1.254.796-2.675.258-1.216.387-1.823.262-2.305a1.98 1.98 0 0 0-.93-1.233C18.6 6 18.012 6 16.837 6" opacity=".4"/><path fill="currentColor" fill-rule="evenodd" d="m16.754 4.123.281 1.127H6.958l.281-1.128A1.81 1.81 0 0 1 8.997 2.75a.75.75 0 0 0 0-1.5 3.306 3.306 0 0 0-3.213 2.508L5.393 5.32a2.3 2.3 0 0 0-.786.263 2.75 2.75 0 0 0-1.288 1.698c-.169.653-.028 1.319.255 2.652.32 1.505.481 2.261.895 2.917a4.07 4.07 0 0 0 1.9 1.608c.647.265 1.317.29 2.538.292l.409 2.933.012.09-.026-.002-.042-.002h-.006c-.256-.012-.573-.027-.881.1a1.66 1.66 0 0 0-.624.453c-.195.227-.291.472-.451.883q-.057.141-.133.315c-.302.69-.807 1.849.082 2.746.479.485 1.117.485 2.174.485h5.152v.002c1.057 0 1.695 0 2.174-.485.889-.898.384-2.056.082-2.747l-.003-.007a8 8 0 0 1-.132-.313l-.003-.008c-.157-.402-.252-.645-.445-.869a1.66 1.66 0 0 0-.625-.454c-.311-.128-.631-.113-.888-.1h-.02q-.023.003-.048.003l.006-.049.007-.048.407-2.926c1.223-.002 1.892-.026 2.539-.292a4.07 4.07 0 0 0 1.901-1.608c.414-.656.575-1.412.896-2.922l.002-.007c.28-1.324.422-1.988.252-2.641a2.74 2.74 0 0 0-1.287-1.696 2.3 2.3 0 0 0-.788-.264l-.39-1.561a3.31 3.31 0 0 0-3.214-2.508.75.75 0 0 0 0 1.5 1.81 1.81 0 0 1 1.758 1.372m-1.46 9.128c.892-.004 1.396-.03 1.76-.179a2.6 2.6 0 0 0 1.202-1.022c.27-.429.413-1.097.696-2.427v-.001l.001-.005c.218-1.029.35-1.648.269-1.959a1.24 1.24 0 0 0-.574-.768c-.245-.139-.834-.139-1.81-.139H7.154c-.976 0-1.565 0-1.809.138a1.24 1.24 0 0 0-.575.77c-.08.31.051.93.27 1.958v.003c.284 1.333.426 2 .697 2.429.295.467.71.82 1.201 1.021.365.15.868.175 1.76.18l-.16-1.147a.75.75 0 0 1 1.486-.207l.776 5.573c.057.404.093.668-.014.967-.315.892-1.213.85-1.596.831h-.002c-.083-.004-.204-.01-.26-.002a.2.2 0 0 0-.041.034c-.034.047-.113.25-.19.445a10 10 0 0 1-.157.377c-.212.486-.377.904-.24 1.076.146.054.64.054 1.12.054h5.153c.48 0 .975 0 1.12-.055.138-.173-.027-.59-.24-1.076a10 10 0 0 1-.156-.373l-.012-.03c-.074-.19-.147-.375-.18-.418a.2.2 0 0 0-.041-.034 2 2 0 0 0-.225.001l-.036.002c-.383.017-1.281.06-1.598-.836-.106-.293-.07-.557-.013-.956l.777-5.58a.75.75 0 1 1 1.485.207z" clip-rule="evenodd"/></svg>