<svg xmlns="http://www.w3.org/2000/svg" fill="none" viewBox="0 0 24 24"><path fill="currentColor" d="M2 14.015v-4.03c0-1.226 0-1.84.228-2.39.229-.552.662-.985 1.53-1.852l1.985-1.986c.867-.867 1.3-1.3 1.852-1.529C8.145 2 8.759 2 9.985 2h4.03c1.226 0 1.84 0 2.39.228.552.229.985.662 1.852 1.53l1.986 1.985c.867.867 1.3 1.3 1.529 1.852.228.55.228 1.164.228 2.39v4.03c0 1.226 0 1.84-.228 2.39-.229.552-.662.985-1.53 1.852l-1.985 1.986c-.867.867-1.3 1.3-1.852 1.529-.55.228-1.164.228-2.39.228h-4.03c-1.226 0-1.84 0-2.39-.228-.552-.229-.985-.662-1.852-1.53l-1.986-1.985c-.867-.867-1.3-1.3-1.529-1.852C2 15.855 2 15.241 2 14.015" opacity=".4"/><path fill="currentColor" fill-rule="evenodd" d="M9.843 1.25h4.314c1.088 0 1.844 0 2.535.286s1.226.82 1.995 1.59l.1.101 1.986 1.985.1.101c.77.769 1.305 1.303 1.592 1.995.286.691.286 1.447.285 2.535v4.314c0 1.088.001 1.844-.285 2.535-.287.692-.822 1.226-1.591 1.995l-.1.1-1.986 1.986-.101.1c-.769.77-1.303 1.305-1.995 1.592-.69.286-1.447.286-2.535.285H9.843c-1.088 0-1.844.001-2.535-.285-.692-.287-1.226-.822-1.995-1.591l-.1-.1-1.986-1.986-.1-.101c-.77-.769-1.305-1.303-1.591-1.995-.287-.69-.286-1.447-.286-2.535V9.843c0-1.088 0-1.844.286-2.535s.82-1.226 1.59-1.995l.101-.1 1.985-1.986.101-.1c.769-.77 1.303-1.305 1.995-1.591.691-.287 1.447-.286 2.535-.286m.142 1.5c-1.287 0-1.722.013-2.103.171s-.699.456-1.609 1.367L4.288 6.273c-.91.91-1.209 1.227-1.367 1.609s-.17.816-.17 2.103v4.03c0 1.287.012 1.722.17 2.104.158.38.456.698 1.367 1.608l-.53.53.53-.53 1.985 1.985c.91.91 1.227 1.209 1.609 1.367s.816.171 2.103.171h4.03c1.287 0 1.722-.013 2.104-.171.38-.158.698-.456 1.608-1.367l1.985-1.985c.91-.91 1.209-1.227 1.367-1.608.158-.382.171-.817.171-2.104v-4.03c0-1.287-.013-1.722-.171-2.103s-.456-.699-1.367-1.609l-1.985-1.985.53-.53-.53.53c-.91-.91-1.227-1.209-1.608-1.367-.382-.158-.817-.17-2.104-.17z" clip-rule="evenodd"/></svg>