<svg xmlns="http://www.w3.org/2000/svg" fill="none" viewBox="0 0 24 24"><path fill="currentColor" d="M6 16.953c0 .026.021.047.047.047H10a2 2 0 1 1 4 0h4a3 3 0 0 1 3-3h.5V6H21a3 3 0 0 1-3-3h-4a2 2 0 1 1-4 0H6a3 3 0 0 1-3 3h-.5v8H3a3 3 0 0 1 3 2.953" opacity=".4"/><path fill="currentColor" fill-rule="evenodd" d="M17.87 2.25h.83c.629 0 1.178 0 1.619.062.478.068.938.222 1.307.61.365.384.504.852.566 1.337.058.456.058 1.027.058 1.693v8.095c0 .667 0 1.238-.058 1.694-.062.485-.201.953-.566 1.336-.369.39-.829.543-1.307.61-.441.063-.99.063-1.618.063H7.133l-2.514 3.674a.75.75 0 0 1-1.238-.847l1.934-2.827H5.3c-.628 0-1.177 0-1.618-.062l-.09-.014c-.445-.074-.871-.232-1.217-.597-.365-.383-.504-.851-.566-1.336a7 7 0 0 1-.049-.696q-.01-.403-.009-.874V5.83c0-.614.004-1.142.058-1.57.062-.485.201-.953.566-1.336.37-.39.829-.543 1.307-.61.441-.063.99-.063 1.618-.063h12.572m-9.711 14 2.96-4.326a.75.75 0 0 0-1.238-.847l-3.297 4.818a3.75 3.75 0 0 0-3.334-2.637V6.742A3.75 3.75 0 0 0 6.675 3.75h2.679a2.751 2.751 0 0 0 5.293 0h2.678a3.75 3.75 0 0 0 3.425 2.992v6.516a3.75 3.75 0 0 0-3.425 2.992h-2.678a2.751 2.751 0 0 0-5.293 0zM12 4.25c-.409 0-.772-.196-1-.5h2c-.228.304-.591.5-1 .5m8.747.986-.001-.056a9 9 0 0 0-.021-.517 4 4 0 0 0-.021-.214c-.043-.332-.112-.437-.165-.493-.048-.05-.133-.116-.43-.158a5 5 0 0 0-.451-.037c-.214-.008-.469-.01-.78-.01.282.797 1 1.388 1.869 1.485m0 9.528a2.25 2.25 0 0 0-1.869 1.486h.02c.555-.001.928-.008 1.21-.047.298-.043.383-.108.43-.159a.4.4 0 0 0 .043-.054c.044-.069.091-.19.123-.44a7 7 0 0 0 .043-.786M5.122 16.25a2.25 2.25 0 0 0-1.869-1.486l.001.056a7 7 0 0 0 .05.79c.043.286.107.382.157.434.048.05.133.116.43.159.287.04.666.046 1.231.047m0-12.5h-.02c-.554.001-.928.007-1.21.048l-.054.008c-.255.042-.332.103-.377.15-.053.056-.122.161-.165.493a7 7 0 0 0-.043.787A2.25 2.25 0 0 0 5.122 3.75M11 9a1 1 0 0 1 1-1h.012a1 1 0 1 1 0 2H12a1 1 0 0 1-1-1m2 7.25a1.248 1.248 0 0 0-2 0z" clip-rule="evenodd"/></svg>