<svg xmlns="http://www.w3.org/2000/svg" fill="none" viewBox="0 0 24 24"><path fill="currentColor" d="M3 3v18h18v-6h-6c-.943 0-1.414 0-1.707-.29C13 14.41 13 13.94 13 13v-2c0-.94 0-1.41.293-1.71C13.586 9 14.057 9 15 9h6V3z" opacity=".4"/><path fill="currentColor" fill-rule="evenodd" d="M22 3.75h-.25v16.5H22a.75.75 0 0 1 0 1.5H2a.75.75 0 0 1 0-1.5h.25V3.75H2a.75.75 0 0 1 0-1.5h20a.75.75 0 0 1 0 1.5m-1.75 10.5v-4.5H15c-.497 0-1.059 0-1.176.071-.074.105-.074.699-.074 1.179v2c0 .48 0 1.075.074 1.179.116.071.679.071 1.176.071zm-4.5 1.5h4.5v4.5h-4.5zm-1.5-.009c-.649-.025-1.104-.122-1.485-.498l-.009-.009c-.506-.519-.506-1.164-.506-2.234v-2c0-1.07 0-1.715.506-2.234l.009-.009c.38-.376.836-.473 1.485-.498V3.75h-4.5v16.5h4.5zm1.5-7.491h4.5v-4.5h-4.5zm-12 12h4.5V3.75h-4.5zM17 12.75h-1a.75.75 0 0 1 0-1.5h1a.75.75 0 0 1 0 1.5" clip-rule="evenodd"/></svg>