<svg xmlns="http://www.w3.org/2000/svg" fill="none" viewBox="0 0 24 24"><path fill="currentColor" d="M11.5 21c-4.478 0-6.718 0-8.109-1.391S2 15.979 2 11.5c0-1.85 0-3.316.098-4.5h18.804C21 8.184 21 9.65 21 11.5c0 2.329 0 4.052-.196 5.366C19.91 15.954 18.594 15 17 15c-2.345 0-4.089 2.065-4.772 3.023-.152.213-.228.32-.228.477 0 .158.076.264.228.477.366.514 1.038 1.346 1.944 2.008-.79.015-1.676.015-2.672.015" opacity=".4"/><path fill="currentColor" fill-rule="evenodd" d="M11.443 1.25h.114c2.19 0 3.912 0 5.255.18 1.377.186 2.469.573 3.327 1.431s1.245 1.951 1.43 3.328c.181 1.344.181 3.065.181 5.257v.057l-.001.701-.001.303a.75.75 0 0 1-1.5-.008v-.3l.002-.696c0-1.513 0-2.738-.05-3.753H2.8c-.05 1.015-.05 2.24-.05 3.753 0 2.261.002 3.881.167 5.114.163 1.21.472 1.934 1.005 2.467.449.449 1.03.737 1.916.914.907.181 2.078.237 3.67.252a.75.75 0 0 1-.015 1.5c-1.588-.015-2.888-.07-3.95-.281-1.081-.217-1.964-.607-2.682-1.325-.858-.858-1.245-1.95-1.43-3.327-.181-1.344-.181-3.065-.181-5.257v-.114c0-2.192 0-3.913.18-5.257.186-1.377.573-2.47 1.43-3.328.859-.858 1.951-1.245 3.328-1.43 1.343-.181 3.064-.181 5.255-.181m7.635 2.672c.513.512.818 1.2.985 2.328H2.937c.167-1.128.472-1.816.985-2.328.533-.533 1.256-.842 2.466-1.005C7.62 2.752 9.24 2.75 11.5 2.75s3.88.002 5.112.167c1.21.163 1.933.472 2.466 1.005M6 11.25a.75.75 0 0 0 0 1.5h1a.75.75 0 0 0 0-1.5zm4 0a.75.75 0 0 0 0 1.5h5a.75.75 0 0 0 0-1.5zm-4 4a.75.75 0 0 0 0 1.5h1a.75.75 0 0 0 0-1.5zm10 3.25a1 1 0 0 1 1-1h.009a1 1 0 1 1 0 2H17a1 1 0 0 1-1-1m-3.161-.042c.318-.447.877-1.14 1.613-1.715.738-.576 1.602-.993 2.548-.993s1.81.417 2.548.993c.736.575 1.295 1.268 1.613 1.715l.03.042-.03.042c-.318.447-.877 1.14-1.613 1.715-.738.576-1.602.993-2.548.993s-1.81-.417-2.548-.993c-.736-.575-1.295-1.268-1.613-1.715l-.03-.042zM17 14.25c-1.398 0-2.58.615-3.47 1.31-.893.698-1.548 1.516-1.913 2.027l-.03.04c-.12.168-.337.464-.337.873s.216.705.338.872l.03.041c.364.51 1.019 1.33 1.911 2.026S15.602 22.75 17 22.75s2.58-.615 3.47-1.31c.893-.698 1.548-1.516 1.913-2.027q.013-.02.03-.04c.12-.168.337-.464.337-.873s-.216-.705-.338-.872l-.018-.025-.011-.016c-.365-.51-1.02-1.33-1.912-2.026S18.398 14.25 17 14.25" clip-rule="evenodd"/></svg>