<svg xmlns="http://www.w3.org/2000/svg" fill="none" viewBox="0 0 24 24"><path fill="currentColor" fill-rule="evenodd" d="M15.44 3.44C15 3.878 15 4.585 15 6s0 2.121.44 2.56C15.878 9 16.585 9 18 9s2.121 0 2.56-.44C21 8.122 21 7.415 21 6s0-2.121-.44-2.56C20.122 3 19.415 3 18 3s-2.121 0-2.56.44m-12 12C3 15.878 3 16.585 3 18s0 2.121.44 2.56C3.878 21 4.585 21 6 21s2.121 0 2.56-.44C9 20.122 9 19.415 9 18s0-2.121-.44-2.56C8.122 15 7.415 15 6 15s-2.121 0-2.56.44" clip-rule="evenodd" opacity=".4"/><path fill="currentColor" fill-rule="evenodd" d="M6 2.25h-.05c-.664 0-1.237 0-1.696.062-.491.066-.963.215-1.345.597s-.531.854-.597 1.345c-.062.459-.062 1.032-.062 1.697v.099c0 .664 0 1.237.062 1.696.066.491.215.963.597 1.345s.854.531 1.345.597c.459.062 1.032.062 1.697.062h.098c.665 0 1.238 0 1.697-.062.491-.066.963-.215 1.345-.597s.531-.854.597-1.345c.062-.459.062-1.032.062-1.697v-.098c0-.665 0-1.238-.062-1.697-.066-.491-.215-.963-.597-1.345s-.854-.531-1.345-.597c-.459-.062-1.032-.062-1.697-.062zM3.97 3.97c.057-.057.159-.128.484-.172.347-.046.818-.048 1.546-.048s1.2.002 1.546.048c.325.044.427.115.484.172s.128.159.172.484c.046.347.048.818.048 1.546s-.002 1.2-.048 1.546c-.044.325-.115.427-.172.484s-.159.128-.484.172c-.347.046-.818.048-1.546.048s-1.2-.002-1.546-.048c-.325-.044-.427-.115-.484-.172s-.128-.159-.172-.484C3.752 7.199 3.75 6.728 3.75 6s.002-1.2.048-1.546c.044-.325.115-.427.172-.484M6 14.25h-.05c-.664 0-1.237 0-1.696.062-.491.066-.963.215-1.345.597s-.531.853-.597 1.345c-.062.459-.062 1.032-.062 1.697v.099c0 .664 0 1.237.062 1.696.066.492.215.963.597 1.345s.854.531 1.345.597c.459.062 1.032.062 1.697.062h.098c.665 0 1.238 0 1.697-.062.491-.066.963-.215 1.345-.597s.531-.854.597-1.345c.062-.459.062-1.032.062-1.697v-.098c0-.665 0-1.238-.062-1.697-.066-.492-.215-.963-.597-1.345s-.854-.531-1.345-.597c-.459-.062-1.032-.062-1.697-.062zm-2.03 1.72c.057-.057.159-.128.484-.172.347-.046.818-.048 1.546-.048s1.2.002 1.546.048c.325.044.427.115.484.172s.128.159.172.484c.046.347.048.818.048 1.546s-.002 1.2-.048 1.546c-.044.325-.115.427-.172.484s-.159.128-.484.172c-.347.046-.818.048-1.546.048s-1.2-.002-1.546-.048c-.325-.044-.427-.115-.484-.172s-.128-.159-.172-.484c-.046-.347-.048-.818-.048-1.546s.002-1.2.048-1.546c.044-.325.115-.427.172-.484M2.25 12a.75.75 0 0 1 .75-.75h6a.75.75 0 0 1 0 1.5H3a.75.75 0 0 1-.75-.75m10.5-9a.75.75 0 0 0-1.5 0v5a.75.75 0 0 0 1.5 0zm5.2-.75h.1c.664 0 1.237 0 1.696.062.492.066.963.215 1.345.597s.531.854.597 1.345c.062.459.062 1.032.062 1.697v.098c0 .665 0 1.238-.062 1.697-.066.491-.215.963-.597 1.345s-.854.531-1.345.597c-.459.062-1.032.062-1.697.062h-.098c-.665 0-1.238 0-1.697-.062-.492-.066-.963-.215-1.345-.597s-.531-.854-.597-1.345c-.062-.459-.062-1.032-.062-1.697V5.95c0-.664 0-1.237.062-1.696.066-.491.215-.963.597-1.345s.853-.531 1.345-.597c.459-.062 1.032-.062 1.697-.062m-1.496 1.548c-.325.044-.427.115-.484.172s-.128.159-.172.484c-.046.347-.048.818-.048 1.546s.002 1.2.048 1.546c.044.325.115.427.172.484s.159.128.484.172c.347.046.818.048 1.546.048s1.2-.002 1.546-.048c.325-.044.427-.115.484-.172s.128-.159.172-.484c.046-.347.048-.818.048-1.546s-.002-1.2-.048-1.546c-.044-.325-.115-.427-.172-.484s-.159-.128-.484-.172c-.347-.046-.818-.048-1.546-.048s-1.2.002-1.546.048M15 11.25h-.05c-.664 0-1.237 0-1.696.062-.492.066-.963.215-1.345.597s-.531.853-.597 1.345c-.062.459-.062 1.032-.062 1.697V15a.75.75 0 0 0 1.5 0c0-.728.002-1.2.048-1.546.044-.325.115-.427.172-.484s.159-.128.484-.172c.347-.046.818-.048 1.546-.048h6a.75.75 0 0 0 0-1.5zm3 4.5c.728 0 1.199.002 1.546.048.325.044.427.115.484.172s.128.16.172.486c.046.347.048.819.048 1.548s-.002 1.201-.048 1.549c-.044.326-.115.428-.172.486-.09.09-.265.188-1.053.211a.75.75 0 0 0 .046 1.5c.765-.023 1.517-.1 2.068-.651.382-.383.531-.855.597-1.347.062-.459.062-1.032.062-1.698v-.099c0-.666 0-1.24-.062-1.699-.066-.492-.215-.963-.597-1.346s-.853-.532-1.345-.598c-.459-.062-1.032-.062-1.697-.062H18a.75.75 0 0 0 0 1.5M15.75 15a.75.75 0 0 0-1.5 0v1.5c0 .851.24 1.563.928 1.947.297.166.62.234.912.267s.609.036.91.036a.25.25 0 0 1 .25.25.75.75 0 0 0 1.5 0A1.75 1.75 0 0 0 17 17.25a7 7 0 0 1-.741-.026c-.198-.023-.299-.058-.35-.087h-.001c-.018-.008-.158-.066-.158-.637zm-3 2.77a.75.75 0 0 0-1.5 0v2.768a.75.75 0 0 0 1.5 0zM15 20.25a.75.75 0 0 0 0 1.5h1a.75.75 0 0 0 0-1.5z" clip-rule="evenodd"/></svg>