<svg xmlns="http://www.w3.org/2000/svg" fill="none" viewBox="0 0 24 24"><path fill="currentColor" d="M12 2a7.5 7.5 0 0 0-4.8 13.263C8.19 16.089 9 17.21 9 18.5h6c0-1.29.81-2.411 1.8-3.238A7.5 7.5 0 0 0 12 2" opacity=".4"/><path fill="currentColor" fill-rule="evenodd" d="M5.25 9.5a6.75 6.75 0 1 1 11.07 5.187c-.895.747-1.747 1.792-1.997 3.063H9.677c-.25-1.271-1.102-2.316-1.997-3.063A6.73 6.73 0 0 1 5.25 9.5m3 9c0-.968-.615-1.898-1.531-2.661a8.25 8.25 0 1 1 10.562 0c-.915.763-1.531 1.693-1.531 2.661v2a2.25 2.25 0 0 1-2.25 2.25h-3a2.25 2.25 0 0 1-2.25-2.25zm1.5.75v1.25c0 .414.336.75.75.75h3a.75.75 0 0 0 .75-.75v-1.25zM12 6.75c-.668 0-1.25.63-1.25 1.25a.75.75 0 0 1-1.5 0c0-1.404 1.21-2.75 2.75-2.75 1.456 0 2.75 1.096 2.75 2.583a2.47 2.47 0 0 1-.453 1.422c-.175.25-.38.487-.565.699l-.101.114c-.155.176-.296.336-.426.5-.326.41-.455.694-.455.932a.75.75 0 0 1-1.5 0c0-.774.414-1.403.78-1.865.157-.197.328-.392.484-.568l.09-.103a7 7 0 0 0 .465-.57.97.97 0 0 0 .181-.56c0-.539-.497-1.084-1.25-1.084M11.992 13a1 1 0 1 0 0 2h.01a1 1 0 1 0 0-2z" clip-rule="evenodd"/></svg>