<svg xmlns="http://www.w3.org/2000/svg" fill="none" viewBox="0 0 24 24"><path fill="currentColor" fill-rule="evenodd" d="M2.5 12c0-4.48 0-6.72 1.39-8.11S7.52 2.5 11.996 2.5s6.714 0 8.105 1.39c1.39 1.39 1.39 3.63 1.39 8.11s0 6.72-1.39 8.11-3.63 1.39-8.105 1.39-6.715 0-8.106-1.39C2.5 18.72 2.5 16.48 2.5 12m3.998-2c0-.94 0-1.41.311-1.71C7.119 8 7.619 8 8.62 8s1.5 0 1.811.29c.311.3.311.77.311 1.71s0 1.41-.31 1.71C10.12 12 9.62 12 8.62 12s-1.5 0-1.811-.29c-.31-.3-.31-.77-.31-1.71m7.108-1.71c-.311.3-.311.77-.311 1.71s0 1.41.31 1.71c.312.29.811.29 1.812.29s1.5 0 1.811-.29c.31-.3.31-.77.31-1.71s0-1.41-.31-1.71C16.918 8 16.417 8 15.417 8s-1.5 0-1.811.29" clip-rule="evenodd" opacity=".4"/><path fill="currentColor" fill-rule="evenodd" d="M3.36 20.64c1.61 1.61 3.957 1.61 8.635 1.61s7.025 0 8.635-1.609c1.61-1.61 1.61-3.96 1.61-8.641s0-7.03-1.61-8.64c-1.609-1.61-3.957-1.61-8.635-1.61s-7.025 0-8.635 1.609c-1.61 1.61-1.61 3.96-1.61 8.64V12c0 4.681 0 7.03 1.61 8.64m8.635-17.39c4.264 0 6.405 0 7.576 1.171 1.17 1.17 1.17 3.312 1.17 7.579s0 6.409-1.17 7.579c-1.172 1.171-3.312 1.171-7.576 1.171s-6.405 0-7.575-1.171C3.25 18.409 3.25 16.267 3.25 12s0-6.409 1.17-7.579C5.59 3.25 7.73 3.25 11.995 3.25m1.596 12.962a.75.75 0 0 0 .72.54l-.001-.001q.105 0 .211-.03c2.227-.651 3.722-2.519 3.722-4.65v-2.07c0-1.041 0-1.729-.54-2.25l-.008-.009c-.527-.492-1.203-.492-2.323-.492s-1.797 0-2.323.492l-.01.009c-.54.521-.54 1.209-.54 2.25s0 1.73.54 2.25l.01.009c.527.492 1.203.492 2.323.492.521 0 .946 0 1.305-.05-.257 1.19-1.227 2.186-2.576 2.58a.75.75 0 0 0-.51.93m1.782-4.961c-.556 0-1.184 0-1.295-.084C14 11.072 14 10.48 14 10.002V10c0-.478 0-1.071.078-1.165.11-.084.739-.084 1.294-.084.556 0 1.184 0 1.295.084.078.095.078.688.078 1.166s0 1.072-.078 1.166c-.11.084-.739.084-1.295.084M6.84 16.212a.75.75 0 0 0 .72.54v-.001a.7.7 0 0 0 .21-.03c2.226-.65 3.722-2.519 3.722-4.65v-2.07c0-1.041 0-1.729-.54-2.25l-.008-.009c-.528-.492-1.203-.492-2.323-.492s-1.796 0-2.323.492l-.01.009c-.539.521-.539 1.209-.539 2.25s0 1.73.54 2.25l.009.009c.527.492 1.203.492 2.323.492.521 0 .946 0 1.305-.05-.257 1.19-1.228 2.186-2.577 2.58a.75.75 0 0 0-.51.93m1.78-4.961c-.556 0-1.184 0-1.295-.084-.078-.095-.078-.687-.078-1.165V10c0-.478 0-1.071.078-1.165.11-.084.739-.084 1.294-.084h.001c.556 0 1.183 0 1.294.084.078.095.078.688.078 1.166v.008c0 .477 0 1.064-.078 1.158-.11.084-.739.084-1.294.084" clip-rule="evenodd"/></svg>