<svg xmlns="http://www.w3.org/2000/svg" fill="none" viewBox="0 0 24 24"><path fill="currentColor" fill-rule="evenodd" d="M7.032 21C4.253 21 2 18.76 2 16s2.253-5 5.032-5c1.646 0 3.108.786 4.026 2 .83 1.097 1.621 3.855 0 6a5.04 5.04 0 0 1-4.026 2m10 0C14.253 21 12 18.76 12 16s2.253-5 5.032-5c1.646 0 3.108.786 4.026 2 .83 1.097 1.621 3.855 0 6a5.04 5.04 0 0 1-4.026 2" clip-rule="evenodd" opacity=".4"/><path fill="currentColor" fill-rule="evenodd" d="M9.35 2.3a.75.75 0 0 1-.15 1.05 4.25 4.25 0 1 0 5.1 0 .75.75 0 0 1 .9-1.2 5.74 5.74 0 0 1 2.3 4.6c0 1.209-.373 2.33-1.01 3.256q.13-.006.26-.006c1.881 0 3.552.905 4.6 2.3a.75.75 0 0 1-1.2.9 4.25 4.25 0 0 0-7.65 2.535v.03a4.25 4.25 0 0 0 7.65 2.534.75.75 0 1 1 1.2.901 5.74 5.74 0 0 1-4.6 2.3 5.75 5.75 0 0 1-5-2.908 5.75 5.75 0 0 1-5 2.908 5.74 5.74 0 0 1-4.6-2.3.75.75 0 0 1 1.2-.9A4.25 4.25 0 0 0 11 15.765v-.03A4.25 4.25 0 0 0 3.35 13.2a.75.75 0 1 1-1.2-.9 5.74 5.74 0 0 1 4.86-2.294A5.7 5.7 0 0 1 6 6.75c0-1.881.905-3.552 2.3-4.6a.75.75 0 0 1 1.05.15m2.14 10.194q.139.202.26.414.121-.212.26-.414a6 6 0 0 1-.52 0" clip-rule="evenodd"/></svg>