<svg xmlns="http://www.w3.org/2000/svg" fill="none" viewBox="0 0 24 24"><path fill="currentColor" d="M21.5 12.756v-.514c0-1.729 0-3.115-.078-4.242H2.578C2.5 9.127 2.5 10.513 2.5 12.242v.514c0 4.357 0 6.536 1.252 7.89 1.252 1.353 3.267 1.353 7.298 1.353h1.9c4.03 0 6.046 0 7.298-1.354 1.252-1.353 1.252-3.532 1.252-7.89" opacity=".4"/><path fill="currentColor" fill-rule="evenodd" d="M10.99 2.25h2.02c1.706 0 3.104 0 4.24.116V2a.75.75 0 0 1 1.5 0v.635c.805.228 1.483.599 2.049 1.21.777.84 1.123 1.903 1.289 3.235.162 1.304.162 2.976.162 5.11v.62c0 2.133 0 3.806-.162 5.11-.166 1.332-.512 2.395-1.29 3.236-.785.849-1.79 1.234-3.05 1.417-1.217.177-2.774.177-4.737.177h-2.022c-1.963 0-3.52 0-4.738-.177-1.258-.183-2.264-.568-3.05-1.417-.777-.841-1.123-1.904-1.289-3.235-.162-1.305-.162-2.977-.162-5.111v-.62c0-2.133 0-3.806.162-5.11.166-1.332.512-2.395 1.29-3.236.565-.61 1.243-.981 2.048-1.21V2a.75.75 0 0 1 1.5 0v.366c1.136-.116 2.534-.116 4.24-.116m1.96 1.5c1.868 0 3.239.002 4.3.125V4a.75.75 0 0 0 1.471.206c.408.162.717.377.976.657.473.51.753 1.21.9 2.387H3.403c.148-1.177.427-1.877.9-2.387.259-.28.568-.495.976-.657A.75.75 0 0 0 6.75 4v-.125c1.061-.123 2.432-.125 4.3-.125zm-9.661 5c-.038.957-.039 2.1-.039 3.493v.514c0 2.198.001 3.777.15 4.978.148 1.186.428 1.89.903 2.402.466.504 1.094.796 2.164.952 1.098.16 2.545.161 4.583.161h1.9c2.038 0 3.485-.002 4.583-.161 1.07-.156 1.698-.448 2.164-.952.475-.513.755-1.216.902-2.402.15-1.201.151-2.78.151-4.978v-.514c0-1.392 0-2.536-.039-3.493zm7.92 2.863a.75.75 0 0 1-.256 1.03 2.48 2.48 0 1 0 3.405 3.405.75.75 0 0 1 1.284.773 3.98 3.98 0 1 1-5.464-5.464.75.75 0 0 1 1.03.256M14 12a1 1 0 1 0 0 2h.009a1 1 0 1 0 0-2z" clip-rule="evenodd"/></svg>