<svg xmlns="http://www.w3.org/2000/svg" fill="none" viewBox="0 0 24 24"><path fill="currentColor" fill-rule="evenodd" d="M14.893 3.786c-1.93-.048-3.84-.048-5.77 0-1.598.04-2.714.07-3.576.22-.829.145-1.345.388-1.77.814-.427.43-.667.939-.807 1.743-.146.84-.171 1.923-.204 3.48a68 68 0 0 0 0 2.92c.033 1.555.058 2.639.204 3.478.14.804.38 1.314.807 1.743.425.426.941.67 1.77.814.862.15 1.978.18 3.576.22q.948.024 1.89.032a.75.75 0 0 1-.012 1.5q-.956-.008-1.915-.032l-.059-.002c-1.526-.038-2.754-.069-3.738-.24-1.03-.18-1.867-.523-2.574-1.233-.705-.707-1.047-1.532-1.223-2.545-.168-.965-.193-2.162-.225-3.645l-.001-.059a70 70 0 0 1 0-2.984l.001-.059c.032-1.483.057-2.68.225-3.645.176-1.013.518-1.838 1.223-2.544.707-.71 1.544-1.054 2.574-1.233.984-.172 2.212-.202 3.738-.24l.059-.002c1.954-.05 3.89-.05 5.844 0l.058.001c1.526.039 2.754.07 3.738.24 1.03.18 1.868.524 2.575 1.234.704.706 1.047 1.531 1.223 2.544.167.965.193 2.162.225 3.645v.06a.75.75 0 1 1-1.499.031c-.033-1.556-.058-2.64-.204-3.479-.14-.804-.38-1.314-.807-1.743-.425-.426-.942-.67-1.77-.814-.862-.15-1.979-.18-3.577-.22M6.355 7.618a.75.75 0 0 1 1.027-.263l2.942 1.739c.844.5 1.293.656 1.676.656s.832-.157 1.676-.656l2.942-1.74a.75.75 0 1 1 .764 1.292l-2.942 1.74c-.871.514-1.622.864-2.44.864s-1.569-.35-2.44-.865l-2.942-1.74a.75.75 0 0 1-.263-1.027M22.413 13.5a.75.75 0 0 0-1.5 0v.5a4.25 4.25 0 1 0-2.413 7.75c1.89 0 3.686-1.246 4.219-3.035a.75.75 0 1 0-1.438-.428c-.328 1.102-1.5 1.963-2.781 1.963a2.75 2.75 0 1 1 1.716-4.9l-.841.06a.75.75 0 1 0 .105 1.496l2.236-.158a.75.75 0 0 0 .697-.748z" clip-rule="evenodd"/><path fill="currentColor" d="M3.245 18.71c-1.131-1.136-1.164-2.669-1.23-5.734a69 69 0 0 1 0-2.952c.066-3.065.099-4.598 1.23-5.733C4.376 3.155 5.95 3.116 9.099 3.037a115 115 0 0 1 5.802 0c3.149.079 4.723.118 5.854 1.254 1.131 1.135 1.164 2.668 1.23 5.733.02.986.02 1.966 0 2.952-.03 1.41-.054 2.496-.18 3.368A3.502 3.502 0 0 0 15 17.5c0 .946.375 1.804.985 2.434l-1.084.03c-1.94.048-3.862.048-5.802 0-3.149-.08-4.723-.12-5.854-1.255" opacity=".4"/></svg>