<svg xmlns="http://www.w3.org/2000/svg" fill="none" viewBox="0 0 24 24"><path fill="currentColor" fill-rule="evenodd" d="m5.37 4.22 2.342-1.782c.286-.217.428-.325.598-.382S8.66 2 9.027 2h10.021c1.249 0 1.873 0 1.997.334a.3.3 0 0 1 0 .215v15.785c.123.335-.365.705-1.34 1.446l-2.342 1.781c-.286.217-.429.326-.598.382v-16C16.596 6 16.414 6 16.048 6H6.027c-1.249 0-1.873 0-1.996-.335-.124-.334.364-.705 1.339-1.446" clip-rule="evenodd" opacity=".4"/><path fill="currentColor" fill-rule="evenodd" d="M9.027 1.25h-.07c-.294 0-.596-.001-.886.095-.291.097-.53.28-.76.456l-.055.041-2.342 1.78-.043.034c-.45.342-.85.645-1.114.908a1.9 1.9 0 0 0-.388.522c-.09.194-.138.427-.09.674v15.603c-.033.175-.026.366.046.561a1.1 1.1 0 0 0 .561.607c.206.101.43.146.626.17.376.049.884.049 1.463.049h10.144c.294 0 .596.001.886-.095.291-.098.53-.28.76-.456l.055-.041 2.386-1.814c.45-.342.849-.645 1.113-.908a1.9 1.9 0 0 0 .388-.523c.09-.194.138-.427.09-.673V2.637a1.04 1.04 0 0 0-.061-.6 1.1 1.1 0 0 0-.546-.568 2 2 0 0 0-.626-.17c-.375-.049-.884-.049-1.463-.049zm11.266 3.028-.087.067-2.386 1.813-.055.042q-.12.093-.247.183V20.5l1.732-1.316c.507-.385.822-.627 1.006-.81l.037-.038zm-3.753.95-.025.008c-.031.008-.109.014-.466.014H6.027q-.451.001-.76-.004.228-.179.56-.43l2.342-1.781c.324-.247.356-.26.38-.267.026-.009.064-.018.478-.018H19.05q.451-.001.761.004-.228.18-.56.43l-2.343 1.782c-.276.21-.34.25-.367.262m-.526 1.522v14.5H6.027q-.451.001-.76-.004.228-.18.56-.43l2.342-1.782c.324-.246.356-.259.38-.267.026-.008.064-.017.478-.017h5.016a.751.751 0 1 0 0-1.5h-4.98V9a.751.751 0 0 0-1.505 0v8.617q-.127.09-.247.183l-.055.042-2.385 1.813-.088.067V6.728c.336.022.742.022 1.192.022z" clip-rule="evenodd"/></svg>