<svg xmlns="http://www.w3.org/2000/svg" fill="none" viewBox="0 0 24 24"><path fill="currentColor" fill-rule="evenodd" d="M13.92 1.999h2.16c2.9 0 4.35 0 5.21.903.86.904.77 2.33.59 5.184l-.09 1.403c-.1 1.563-.24 3.148-1.96 3.785-.49.184-1.1.184-2.33.184-.22 0-.4.05-.59.178l-2.96 1.944c-.5.327-.75.49-.94.389s-.19-.396-.19-.985v-.03c0-.749 0-1.496-.92-1.496-.66 0-1 0-1.28-.055a2.91 2.91 0 0 1-2.24-2.075c-.07-.274-.09-.602-.13-1.257l-.13-1.985c-.18-2.854-.27-4.28.59-5.184s2.31-.903 5.21-.903m1.08 3s-3.57 1.714-1.17 3.429h2.34C18.57 6.713 15 4.999 15 4.999" clip-rule="evenodd" opacity=".4"/><path fill="currentColor" fill-rule="evenodd" d="M13.121 16.752a1 1 0 0 1-.464-.12c-.588-.313-.588-.931-.588-1.647v-.024c0-.232 0-.61-.055-.742a.6.6 0 0 0-.115-.01c-.692 0-1.073 0-1.425-.069a3.69 3.69 0 0 1-2.819-2.612l-.003-.013c-.087-.34-.108-.687-.15-1.375l-.002-.017-.13-1.986v-.008c-.187-2.968-.29-4.602.795-5.742 1.082-1.136 2.643-1.136 5.753-1.136h2.16c3.11 0 4.672 0 5.753 1.136 1.086 1.142.983 2.778.795 5.748l-.09 1.405c-.098 1.527-.232 3.62-2.448 4.44-.614.231-1.275.231-2.59.231a.25.25 0 0 0-.17.05L14.36 16.21c-.438.287-.833.545-1.239.545zm-4.017-5.616a2.17 2.17 0 0 0 1.661 1.531c.207.041.536.041 1.133.041h.001c.972 0 1.357.586 1.5.936.167.409.171.874.171 1.288l2.928-1.923a1.72 1.72 0 0 1 1.002-.301c1.134 0 1.704 0 2.066-.136 1.218-.451 1.37-1.484 1.475-3.131l.09-1.403c.177-2.812.225-3.978-.385-4.619-.638-.67-1.984-.67-4.667-.67h-2.16c-2.682 0-4.029 0-4.667.67-.609.641-.562 1.807-.385 4.619l.13 1.984c.036.587.056.909.107 1.114m-6.83 10.566c1.02 1.046 2.514 1.046 5.226 1.046v.001c2.711 0 4.205 0 5.219-1.04.734-.734.903-1.708.977-2.652a.749.749 0 1 0-1.495-.117c-.071.91-.223 1.39-.549 1.715-.557.571-1.611.594-4.153.594s-3.596-.023-4.156-.597c-.594-.6-.594-1.82-.594-4.252v-4.8c0-2.432 0-3.653.595-4.255.322-.328.801-.482 1.71-.549a.75.75 0 0 0-.11-1.496c-.948.07-1.928.24-2.668.992C1.25 7.332 1.25 8.847 1.25 11.598v4.8c0 2.752 0 4.268 1.023 5.304M6.493 19c0 .552.453 1 1.005 1a1 1 0 0 0 0-2h-.01a.996.996 0 0 0-.995 1m9.77-7.775a.75.75 0 0 0 .716.525l-.001.001a.75.75 0 0 0 .716-.976l-.66-2.092c.639-.619.745-1.239.707-1.68-.061-.699-.507-1.372-1.327-1.999-.523-.4-1.035-.652-1.087-.678l-.004-.002a.75.75 0 0 0-.653.002 7 7 0 0 0-1.087.678c-.82.628-1.266 1.3-1.327 1.999-.04.449.07 1.082.739 1.712l-.478 2.12a.75.75 0 0 0 1.464.33l.448-1.986h1.19zm-.35-3.546h-1.827c-.188-.161-.351-.357-.335-.546.033-.396.67-.935 1.248-1.28.579.345 1.215.884 1.249 1.28.016.188-.147.385-.335.546" clip-rule="evenodd"/></svg>