<svg xmlns="http://www.w3.org/2000/svg" fill="none" viewBox="0 0 24 24"><path fill="currentColor" d="M20 17.691c.706-1.48 1.673-4.37.321-5.73-2.13-2.14-5.113-2.54-6.82-2.46v-5.75c0-.97-.785-1.75-1.75-1.75-.967 0-1.75.78-1.75 1.75v10.25l-2.218-2.33a1.65 1.65 0 0 0-2.414.24c-.495.63-.492 1.54.008 2.18l3.282 4.33c.571.76.857 1.14 1.014 1.58l.04.12c.14.44.14.92.14 1.88h9.04v-1.62c0-.92.723-1.89 1.106-2.69" opacity=".4"/><path fill="currentColor" fill-rule="evenodd" d="M18.999 6.751a.75.75 0 0 1-.457-.156q-.077-.06-.18-.136l-.024-.019c-1.354-1.018-2.087-1.708-2.088-2.439s.734-1.422 2.088-2.44l.064-.048.14-.107a.75.75 0 0 1 .916 1.188l-.112.086-.107.08q-.357.27-.632.49H21a.75.75 0 0 1 0 1.5h-2.393q.275.222.632.49l.219.166a.75.75 0 0 1-.459 1.344zm-13.998 0a.75.75 0 0 1-.459-1.344l.112-.085.107-.08q.357-.27.632-.49H3a.75.75 0 0 1 0-1.5h2.393a23 23 0 0 0-.632-.49l-.219-.167a.75.75 0 0 1 .916-1.188l.18.137.024.018C7.016 2.58 7.749 3.27 7.75 4.002c0 .731-.734 1.421-2.088 2.44l-.064.047-.14.107a.75.75 0 0 1-.457.156m13.069 15.25c0 .414.336.75.75.75v-.005a.75.75 0 0 0 .75-.75c0-.244-.011-.478-.022-.704-.037-.757-.066-1.355.339-1.936.767-1.1 1.398-2.87 1.601-3.775l.049-.219.027-.123.066-.293c.316-1.377-.005-2.643-.928-3.662-1.62-1.788-4.763-2.457-6.489-2.538V3.568l-.002-.05c-.1-1.518-1.36-2.289-2.545-2.267-1.18.023-2.396.819-2.437 2.297v8.54l-.3-.321-.015-.016c-1.123-1.133-2.107-1.229-2.734-1.11-.765.145-1.425.706-1.767 1.502s-.152 1.692.568 2.664l3.657 4.898c.288.389.447.865.447 1.343v.95a.75.75 0 0 0 1.5 0v-.95c0-.798-.264-1.592-.744-2.239l-3.656-4.898c-.26-.351-.539-.84-.394-1.178.145-.336.395-.568.669-.62.379-.071.87.17 1.381.685l1.59 1.702a.75.75 0 0 0 1.298-.512V3.58c.028-.788.87-.827.966-.83.161-.001.951.025 1.018.846v5.913a.75.75 0 0 0 .846.744c.963-.125 4.533.385 6.032 2.039.596.658.785 1.416.577 2.32l-.077.342-.019.085-.048.217c-.204.91-.784 2.41-1.367 3.245-.699 1-.651 1.993-.608 2.868.011.218.021.424.021.632" clip-rule="evenodd"/></svg>