<svg xmlns="http://www.w3.org/2000/svg" fill="none" viewBox="0 0 24 24"><path fill="currentColor" d="M22 12c0 3.77 0 5.66-1.17 6.83S17.77 20 14 20h-4c-3.77 0-5.66 0-6.83-1.17S2 15.77 2 12s0-5.66 1.17-6.83S6.23 4 10 4h4c3.77 0 5.66 0 6.83 1.17S22 8.23 22 12" opacity=".4"/><path fill="currentColor" fill-rule="evenodd" d="M10 20.75h4c3.975 0 5.97 0 7.36-1.39s1.39-3.385 1.39-7.36 0-5.97-1.39-7.36S17.975 3.25 14 3.25h-4c-3.975 0-5.97 0-7.36 1.39S1.25 8.025 1.25 12s0 5.97 1.39 7.36 3.385 1.39 7.36 1.39m0-1.5c-3.562 0-5.35 0-6.3-.95-.95-.951-.95-2.738-.95-6.3s0-5.35.95-6.3c.951-.95 2.738-.95 6.3-.95h4c3.562 0 5.35 0 6.3.95.95.951.95 2.738.95 6.3s0 5.35-.95 6.3c-.951.95-2.738.95-6.3.95zm1-6.5h2a.75.75 0 0 0 0-1.5h-2a.75.75 0 0 0 0 1.5m7.5 0h-2a.75.75 0 0 1 0-1.5h2a.75.75 0 0 1 0 1.5m-13 0h2a.75.75 0 0 0 0-1.5h-2a.75.75 0 0 0 0 1.5" clip-rule="evenodd"/></svg>