<svg xmlns="http://www.w3.org/2000/svg" fill="none" viewBox="0 0 24 24"><path fill="currentColor" d="M7 6.148h10.5c.67.744 1.75 1.78 1.75 2.933v2.546c0 .418-.266.77-.618.82l-2.182.301h-8.4l-2.182-.301c-.352-.05-.618-.402-.618-.82V9.081c0-1.154 1.08-2.189 1.75-2.933" opacity=".4"/><path fill="currentColor" fill-rule="evenodd" d="M7.21 14.999h.037l.002-.002a.75.75 0 0 0 .749-.714l.04-.848q.229.018.465.022c3.018.031 4.966.031 7.717.002q.128-.001.257-.008v.796a.75.75 0 0 0 1.5 0v-.951c.59-.051 1.892-.186 1.984-1.601.08-1.216.022-2.863-.005-3.068-.104-.757-.564-1.347-1.01-1.917l-.016-.02q-.142-.18-.282-.367l.422-.329a.75.75 0 0 0-.924-1.182l-.24.187-.032-.092q-.125-.4-.228-.742l-.006-.021c-.61-2.004-.916-3.009-2.524-3.141L15.085 1H9.427l-.061.003c-1.61.132-1.915 1.138-2.525 3.144l-.233.76-.003.009-.014.04-.117-.107A.75.75 0 1 0 5.46 5.956l.358.328q-.15.207-.3.405c-.437.579-.888 1.178-.992 1.942-.016.124-.018.362-.011 1.7.003.438.005.905.005 1.317 0 .658.315 1.161.888 1.415.35.156.745.197 1.132.226l-.044.925a.75.75 0 0 0 .714.785m.298-3.128-.081-.009v-.001l-.033-.004a12 12 0 0 0-.395-.04l-.115-.008-.115-.009c-.232-.016-.61-.044-.745-.105q-.003-.017-.002-.047v-.001c0-.317-.002-.666-.004-1.01l-.001-.314-.002-.247-.001-.523.187.142a.75.75 0 0 0 .909-1.193l-.681-.518q.117-.166.257-.348.014-.022.032-.043l.032-.044c.146-.195.304-.405.46-.636h10.014c.18.265.366.504.538.722.152.195.297.379.415.554l-.542.172a.75.75 0 1 0 .455 1.429l.404-.129c.009.57.008 1.322-.032 1.937a.4.4 0 0 1-.016.093c-.093.068-.454.099-.62.113l-.01.001a18 18 0 0 0-.642.071l-.01.001a9 9 0 0 1-.962.084c-2.773.03-4.642.029-7.686-.002-.292-.003-.594-.039-.913-.076l-.004-.001zm8.952-6.458H8.02v-.001l.01-.03.01-.029.195-.633.04-.135c.608-1.997.685-2.041 1.183-2.083h5.565c.498.041.575.085 1.18 2.079l.008.025zm-5.66 5.598h2.939a.75.75 0 0 0 0-1.5h-2.94a.75.75 0 0 0 0 1.5M2.25 22.5a.75.75 0 0 1-.75-.75v-10a.75.75 0 0 1 1.5 0v10a.75.75 0 0 1-.75.75m20 0a.75.75 0 0 1-.75-.75v-10a.75.75 0 0 1 1.5 0v10a.75.75 0 0 1-.75.75m-10.75-.75a.75.75 0 0 0 1.5 0v-1a.75.75 0 0 0-1.5 0zm.75-3.25a.75.75 0 0 1-.75-.75v-1a.75.75 0 0 1 1.5 0v1a.75.75 0 0 1-.75.75" clip-rule="evenodd"/></svg>