<svg xmlns="http://www.w3.org/2000/svg" fill="none" viewBox="0 0 24 24"><path fill="currentColor" d="M5.5 6.67c0-.62 0-.93.07-1.18.18-.69.72-1.23 1.41-1.41.26-.07.57-.07 1.18-.07h7.67c.62 0 .93 0 1.18.07.69.18 1.23.72 1.41 1.41.07.26.07.57.07 1.18 0 1.24 0 1.86-.14 2.37a4 4 0 0 1-2.83 2.83c-.51.14-1.13.14-2.37.14h-2.33c-1.24 0-1.86 0-2.37-.14a4 4 0 0 1-2.83-2.83c-.14-.51-.14-1.13-.14-2.37z" opacity=".4"/><path fill="currentColor" fill-rule="evenodd" d="M12.75 2c0-.41-.34-.75-.75-.75s-.75.34-.75.75v1.25H8.07c-.52 0-.93 0-1.28.09-.95.25-1.69.99-1.94 1.94-.09.35-.09.76-.09 1.28v.23c0 1.12 0 1.83.16 2.43a4.75 4.75 0 0 0 3.36 3.36c.6.16 1.32.16 2.43.16h2.59c1.12 0 1.83 0 2.43-.16a4.75 4.75 0 0 0 3.36-3.36c.16-.6.16-1.32.16-2.43v-.23c0-.52 0-.93-.09-1.28a2.72 2.72 0 0 0-1.94-1.94c-.35-.09-.76-.09-1.28-.09h-3.18V2zm-7 20c0-3.45 2.8-6.25 6.25-6.25s6.25 2.8 6.25 6.25c0 .41.34.75.75.75s.75-.34.75-.75a7.75 7.75 0 0 0-15.5 0c0 .41.34.75.75.75s.75-.34.75-.75M8.5 7.5c0-.55.45-1 1-1h.01c.55 0 1 .45 1 1s-.45 1-1 1H9.5c-.55 0-1-.45-1-1m4.99 0c0-.55.45-1 1-1h.01c.55 0 1 .45 1 1s-.45 1-1 1h-.01c-.55 0-1-.45-1-1M7.18 4.79c.13-.04.32-.04.99-.04h7.67c.67 0 .86 0 .99.04.43.11.77.45.88.88.04.13.04.32.04.99 0 1.29 0 1.79-.11 2.17-.3 1.12-1.18 2-2.3 2.3-.39.11-.89.11-2.17.11h-2.33c-1.29 0-1.79 0-2.17-.11-1.12-.3-2-1.18-2.3-2.3-.1-.39-.11-.89-.11-2.17 0-.67 0-.86.04-.99.11-.43.45-.77.88-.88" clip-rule="evenodd"/></svg>