<svg xmlns="http://www.w3.org/2000/svg" fill="none" viewBox="0 0 24 24"><path fill="currentColor" d="M20.18 14.192c.624-.354.831-1.15.464-1.776a1.327 1.327 0 0 0-1.793-.494l1.504-.854c.623-.354.83-1.15.463-1.776a1.327 1.327 0 0 0-1.793-.494l-1.127.641c.622-.354.83-1.149.462-1.775a1.327 1.327 0 0 0-1.793-.494l-6.362 3.616.504-1.92c.221-.843-.347-1.701-1.217-1.84a1.45 1.45 0 0 0-1.573.862l-1.861 4.688c-.356.897-1.21 1.76-2.05 2.238L8.218 22l.876-.498c.4-.227.876-.281 1.333-.187.527.108 1.233.218 1.695.149.797-.12 1.614-.584 3.248-1.513l4.637-2.635c.623-.355.83-1.15.463-1.776a1.327 1.327 0 0 0-1.793-.494z" opacity=".4"/><path fill="currentColor" fill-rule="evenodd" d="M2.641 6.65c.114.06.236.09.356.09h.001a.75.75 0 0 0 .661-.393l.083-.16.032-.063c.257-.511.611-1.211 2.184-2.31 1.364-.955 2.825-1.268 4.344-.931 1.19.264 2.273.926 2.992 1.613a10 10 0 0 1-1.325-.071.75.75 0 1 0-.187 1.489c.781.098 2.657.255 3.356-.386l.058-.058c.765-.84.515-3.535.512-3.562a.75.75 0 1 0-1.488.186c.044.35.046.81.023 1.238a7.95 7.95 0 0 0-3.617-1.912c-1.919-.426-3.83-.022-5.529 1.166C3.214 3.9 2.744 4.832 2.433 5.449l-.095.185a.75.75 0 0 0 .303 1.016m4.92 15.722a.75.75 0 0 0 .653.378v-.001a.75.75 0 0 0 .372-.1l.878-.5c.22-.127.51-.164.806-.106.838.175 1.498.228 1.962.158.948-.143 1.857-.66 3.508-1.6l4.635-2.638c.475-.267.815-.703.957-1.227a2.04 2.04 0 0 0-.213-1.575 2 2 0 0 0-.358-.455c.362-.268.623-.647.744-1.091a2.05 2.05 0 0 0-.568-2.034c.366-.274.627-.658.746-1.104a2.05 2.05 0 0 0-.215-1.568 2.08 2.08 0 0 0-2.215-.992 2.1 2.1 0 0 0-.244-.638c-.576-.985-1.84-1.326-2.812-.764l-4.818 2.733.052-.2a2.22 2.22 0 0 0-.29-1.772 2.27 2.27 0 0 0-1.542-1A2.21 2.21 0 0 0 7.223 7.6l-.005.013-1.864 4.682c-.268.679-.962 1.428-1.725 1.864a.75.75 0 1 0 .743 1.303c1.069-.61 1.98-1.613 2.376-2.614l1.86-4.673a.7.7 0 0 1 .76-.414.75.75 0 0 1 .515.335.7.7 0 0 1 .097.574l-.504 1.92a.75.75 0 0 0 1.095.843l6.37-3.613a.57.57 0 0 1 .77.218.56.56 0 0 1 .062.427.53.53 0 0 1-.25.325l-3.757 2.128a.75.75 0 0 0 .739 1.305l3.76-2.13.003-.001L19.4 9.45a.57.57 0 0 1 .77.218.56.56 0 0 1 .062.427.53.53 0 0 1-.246.323l-1.504.85h-.002l-4.136 2.35a.75.75 0 0 0 .74 1.306l4.136-2.35c.27-.15.62-.051.778.215.078.135.1.289.06.435a.5.5 0 0 1-.245.315l-1.503.849-.004.002-3.385 1.93a.75.75 0 1 0 .743 1.303l3.382-1.93a.58.58 0 0 1 .777.226.55.55 0 0 1 .06.426.5.5 0 0 1-.246.314l-4.64 2.64c-1.606.914-2.344 1.323-2.99 1.42-.13.02-.53.046-1.44-.144-.658-.13-1.316-.032-1.85.275l-.875.5a.75.75 0 0 0-.28 1.023" clip-rule="evenodd"/></svg>