<svg xmlns="http://www.w3.org/2000/svg" fill="none" viewBox="0 0 24 24"><path fill="currentColor" d="M17.585 6.545c-.782 0-1.415.611-1.415 1.364V5.182c0-.753-.633-1.364-1.414-1.364s-1.415.61-1.415 1.364V3.364c0-.753-.633-1.364-1.414-1.364s-1.414.61-1.414 1.364V6.09c0-.753-.634-1.364-1.415-1.364-.78 0-1.414.61-1.414 1.364v6.547c0 .416-.533.613-.823.305l-2.29-2.439a1.415 1.415 0 0 0-1.615-.382c-1.008.417-1.245 1.888-.59 2.736 1.122 1.452 2.27 3.433 3.198 5.18C6.824 20.41 9.308 22 12.071 22a6.9 6.9 0 0 0 3.47-.93c-.674-.434-1.067-.712-1.38-1.05a4.36 4.36 0 0 1-1.013-1.827c-.149-.55-.149-1.15-.149-2.353v-.386c0-.748 0-1.122.142-1.438.088-.195.213-.372.37-.52.252-.24.611-.372 1.33-.635l1.473-.54c.586-.214.88-.321 1.185-.321s.6.107 1.185.322l.315.115V7.909c0-.753-.633-1.364-1.414-1.364" opacity=".4"/><path fill="currentColor" fill-rule="evenodd" d="M11.928 1.25c1.106 0 2.057.824 2.156 1.923q.321-.103.673-.105c1.17 0 2.164.92 2.164 2.114v.716q.317-.102.665-.103c1.169 0 2.164.921 2.164 2.114a.75.75 0 0 1-1.5 0c0-.313-.271-.614-.664-.614s-.665.3-.665.614V9.5a.75.75 0 0 1-1.5 0V5.182c0-.313-.271-.614-.664-.614s-.665.3-.665.614V9.5a.75.75 0 0 1-1.5 0V3.364c0-.314-.271-.614-.664-.614s-.664.3-.664.614V9.5a.75.75 0 1 1-1.5 0V6.09c0-.312-.272-.613-.665-.613s-.664.3-.664.614v6.547c0 1.155-1.405 1.578-2.12.818l-2.29-2.438-.026-.03a.665.665 0 0 0-.756-.172c-.218.09-.402.315-.469.657-.068.346.01.698.187.927 1.161 1.503 2.334 3.53 3.267 5.287 1.135 2.139 3.372 3.563 5.844 3.563a.75.75 0 0 1 0 1.5c-3.054 0-5.787-1.755-7.17-4.36-.922-1.738-2.047-3.674-3.128-5.073-.479-.62-.61-1.427-.472-2.133.14-.71.578-1.428 1.368-1.755a2.17 2.17 0 0 1 2.46.574l1.805 1.922V6.09c0-1.193.995-2.114 2.164-2.114q.347.001.665.102v-.715c0-1.193.995-2.114 2.164-2.114m4.645 11.776c.636-.233.784-.276.927-.276.142 0 .29.043.927.276l1.474.54c.784.287.958.366 1.072.474a.9.9 0 0 1 .2.283c.06.134.077.311.077 1.131v.386c0 1.244-.006 1.726-.123 2.158a3.6 3.6 0 0 1-.84 1.512c-.308.334-.724.606-1.79 1.285-.501.32-.623.388-.735.42a1 1 0 0 1-.524 0c-.112-.032-.234-.1-.736-.42-1.066-.68-1.481-.95-1.79-1.285a3.6 3.6 0 0 1-.84-1.512c-.116-.432-.122-.914-.122-2.158v-.386c0-.82.016-.997.076-1.131a.9.9 0 0 1 .201-.283c.113-.108.287-.187 1.072-.474zm.927-1.776c-.442 0-.856.152-1.35.333l-.093.034-1.474.54-.12.043c-.598.219-1.1.402-1.469.752a2.4 2.4 0 0 0-.537.757c-.21.466-.208.997-.207 1.62v.621c0 1.097 0 1.791.174 2.439a5.1 5.1 0 0 0 1.187 2.14c.457.494 1.05.871 1.992 1.472l.093.059.075.048c.387.247.708.452 1.064.551.435.121.895.121 1.33 0 .355-.099.677-.304 1.064-.551l.075-.048.093-.06c.942-.6 1.534-.977 1.992-1.47a5.1 5.1 0 0 0 1.187-2.142c.174-.647.174-1.341.174-2.437v-.623c0-.622.002-1.153-.208-1.62a2.4 2.4 0 0 0-.537-.756c-.369-.35-.87-.533-1.47-.751l-.118-.044-1.474-.54-.093-.034c-.495-.181-.908-.333-1.35-.333m2.085 4.719a.75.75 0 0 0-1.171-.937l-1.302 1.627-.175.216q-.083-.08-.197-.195l-.21-.21a.75.75 0 0 0-1.06 1.06l.21.21.026.027c.16.16.332.332.495.455.188.142.464.298.826.277.363-.02.62-.204.792-.367.148-.14.299-.33.441-.507l.023-.03z" clip-rule="evenodd"/></svg>