<svg xmlns="http://www.w3.org/2000/svg" fill="none" viewBox="0 0 24 24"><path fill="currentColor" fill-rule="evenodd" d="M2.67 15.144c-.921-1.19-.9-2.88.103-4a92 92 0 0 1 8.698-8.516c.31-.266.688-.432 1.094-.47 1.796-.164 6.97-.503 8.374.902s1.066 6.578.901 8.374a1.95 1.95 0 0 1-.47 1.094 92 92 0 0 1-8.515 8.698c-1.12 1.003-2.81 1.024-4 .104a34 34 0 0 1-6.186-6.186M17.498 5a1.5 1.5 0 1 1 0 3 1.5 1.5 0 0 1 0-3" clip-rule="evenodd" opacity=".4"/><path fill="currentColor" fill-rule="evenodd" d="M16.868 2.77c-1.645-.068-3.348.054-4.234.136a1.2 1.2 0 0 0-.674.29 92 92 0 0 0-8.628 8.448c-.75.838-.78 2.124-.07 3.04a33.3 33.3 0 0 0 6.052 6.053c.918.71 2.203.68 3.04-.07a92 92 0 0 0 8.448-8.628c.169-.196.269-.43.291-.674.082-.886.204-2.59.136-4.234-.034-.823-.115-1.607-.264-2.255-.154-.672-.358-1.088-.556-1.286s-.614-.401-1.286-.556c-.648-.149-1.432-.23-2.255-.264m2.59-1.198c.75.172 1.507.453 2.012.957.504.505.785 1.263.957 2.011.178.774.265 1.66.3 2.53.073 1.742-.056 3.522-.14 4.432a2.7 2.7 0 0 1-.647 1.515 93 93 0 0 1-8.585 8.768c-1.403 1.256-3.498 1.27-4.959.138a34.8 34.8 0 0 1-6.32-6.32c-1.131-1.461-1.118-3.556.138-4.96a93 93 0 0 1 8.768-8.584 2.7 2.7 0 0 1 1.515-.647c.91-.084 2.69-.213 4.433-.14.87.035 1.755.122 2.529.3M17.5 7.25a.75.75 0 1 1 0-1.5.75.75 0 0 1 0 1.5m-2.25-.75a2.25 2.25 0 1 0 4.5 0 2.25 2.25 0 0 0-4.5 0m-.719 4.015a.75.75 0 1 0-1.06-1.061l-.254.253a4 4 0 0 0-.453-.194c-.972-.342-1.987.067-2.559.749a2.17 2.17 0 0 0-.518 1.32c-.018.521.162 1.04.535 1.505.155.192.3.352.418.481l.021.023c.13.142.21.234.272.319.088.121.133.217.121.45-.003.064-.045.201-.201.366-.15.158-.37.3-.626.38-.325.099-.756-.024-1.057-.36a1.15 1.15 0 0 1-.287-.532 1.4 1.4 0 0 1-.027-.333l-.001-.117a.75.75 0 0 0-1.5.028v.067c-.002.237-.005.777.332 1.378l-.21.21a.75.75 0 0 0 1.061 1.06l.206-.205c.563.318 1.25.444 1.923.237a3 3 0 0 0 1.274-.78c.326-.344.585-.803.612-1.322.03-.595-.129-1.025-.404-1.405-.12-.166-.259-.319-.378-.45l-.016-.018c-.121-.133-.24-.262-.364-.417-.172-.214-.21-.389-.205-.514a.67.67 0 0 1 .169-.407c.241-.288.626-.398.91-.298.274.096.44.205.541.298.28.256.264.552.239 1.003l-.005.096a.75.75 0 1 0 1.497.08l.007-.093c.024-.295.077-.938-.244-1.566z" clip-rule="evenodd"/></svg>