<svg xmlns="http://www.w3.org/2000/svg" fill="none" viewBox="0 0 24 24"><path fill="currentColor" d="m19.895 11.27-.148-1.328c-.177-1.593-.265-2.389-.783-2.907-.255-.255-.578-.406-1.03-.515l-2.817-.373-.389-.043c-.98-.109-1.47-.163-1.92-.006-.448.158-.797.506-1.495 1.204l-5.226 5.226C4.695 13.92 4 14.616 4 15.48s.696 1.562 2.088 2.954l1.477 1.477C8.957 21.304 9.653 22 10.518 22s1.56-.696 2.953-2.088l5.226-5.226c.698-.698 1.046-1.046 1.204-1.495s.103-.94-.006-1.92" opacity=".4"/><path fill="currentColor" fill-rule="evenodd" d="M14.605 5.376a27 27 0 0 0-1.482-.071h-.034l-.034.003c-.437.04-.84.218-1.163.495l-.016.014-.015.015c-2.097 2.013-5.816 5.662-7.876 7.8l-.01.01-.008.01c-.936 1.04-.942 2.59-.105 3.668l.031.041.037.036c.505.493 1.022 1.012 1.548 1.54C6.538 20 7.636 21.102 8.75 22.104l.02.019.023.017c1.08.833 2.63.827 3.674-.105l.013-.012.012-.012c1.94-1.904 5.788-5.74 7.732-7.778l.013-.014.012-.014a2.07 2.07 0 0 0 .498-1.162l.003-.034v-.034c0-.77-.071-2.569-.33-4.086-.134-.787-.27-1.467-.542-1.966a1.94 1.94 0 0 0-.612-.692 2 2 0 0 0-.582-.271q.03-.147.053-.295c.207-1.353-.078-2.764-1.114-3.685-.942-.836-2.04-.844-3.04-.568-.874.24-1.787.729-2.613 1.17h-.002l-.24.129c-.94.499-1.76.906-2.492 1.035-.664.117-1.2 0-1.694-.547a.75.75 0 0 0-1.113 1.005c.904 1 1.994 1.209 3.067 1.02 1.005-.178 2.032-.708 2.936-1.189l.213-.113c.869-.463 1.633-.87 2.336-1.064.72-.198 1.222-.132 1.646.244.534.474.786 1.3.627 2.337-.157 1.027-.71 2.152-1.62 3.048a.75.75 0 1 0 1.052 1.069 7.4 7.4 0 0 0 1.527-2.17.6.6 0 0 1 .207.084.45.45 0 0 1 .141.17c.132.243.238.666.38 1.501.236 1.378.306 3.048.309 3.792a.57.57 0 0 1-.127.28c-1.927 2.02-5.73 5.813-7.667 7.714-.473.411-1.197.435-1.726.04-1.077-.969-2.113-2.01-3.148-3.048-.52-.522-1.04-1.044-1.563-1.555-.383-.527-.354-1.237.056-1.702 2.037-2.112 5.715-5.722 7.807-7.731a.6.6 0 0 1 .282-.126c.312.002.767.031 1.284.064q.334.022.694.043a.75.75 0 1 0 .086-1.497l-.623-.04m-.109 6.094a.75.75 0 0 1 0 1.06l-.13.131c.242.533.197 1.062.177 1.292l-.005.073a.75.75 0 1 1-1.498-.08l.003-.06c.022-.398.032-.585-.157-.758a1.2 1.2 0 0 0-.41-.224c-.18-.063-.449.004-.622.211a.44.44 0 0 0-.112.264c-.003.072.016.19.143.347.102.126.198.232.3.344l.012.013.002.002c.099.109.219.24.323.385.245.339.387.725.36 1.252-.024.47-.259.88-.545 1.181-.291.307-.68.55-1.116.684a2.14 2.14 0 0 1-1.618-.163l-.107.106a.75.75 0 0 1-1.06-1.06l.11-.11c-.254-.498-.25-.937-.25-1.126l.001-.055a.75.75 0 1 1 1.5-.028v.106a.84.84 0 0 0 .23.633c.226.251.538.33.753.264a1.1 1.1 0 0 0 .47-.284c.116-.122.133-.21.134-.225a.5.5 0 0 0-.014-.18.4.4 0 0 0-.064-.117 3 3 0 0 0-.218-.255l-.018-.02a9 9 0 0 1-.353-.406c-.329-.409-.49-.87-.475-1.338.016-.458.2-.864.462-1.177.505-.602 1.403-.968 2.271-.662q.165.057.313.128l.147-.148a.75.75 0 0 1 1.061 0" clip-rule="evenodd"/></svg>