<svg xmlns="http://www.w3.org/2000/svg" fill="none" viewBox="0 0 24 24"><path fill="currentColor" d="M7 9a7 7 0 1 1 14 0A7 7 0 0 1 7 9" opacity=".4"/><path fill="currentColor" fill-rule="evenodd" d="M3 13.25a.75.75 0 0 0 0 1.5h2.395c.182 0 .36.041.52.119l2.043.988c.365.177.767.268 1.174.268h1.042c.427 0 .777.228.953.547l-1.934.535c-.28.077-.582.05-.841-.076l-2.183-1.056a.75.75 0 1 0-.653 1.35l2.183 1.057a2.7 2.7 0 0 0 1.894.17l2.54-.702a.84.84 0 0 0 .617-.808l-.001-.087 4.064-1.25h.003a1.24 1.24 0 0 1 1.373.476c.116.161.056.382-.085.463l-7.516 4.337a1.24 1.24 0 0 1-.98.118L3.215 19.3a.75.75 0 0 0-.427 1.438l6.395 1.898c.724.215 1.5.121 2.156-.257l7.516-4.336c.933-.539 1.173-1.78.551-2.64a2.735 2.735 0 0 0-3.034-1.032h-.001l-4.127 1.269a2.6 2.6 0 0 0-2.069-1.016H9.132c-.182 0-.36-.04-.521-.119l-2.042-.988a2.7 2.7 0 0 0-1.174-.268zm11-10.5a6.25 6.25 0 0 0-5.649 8.928.75.75 0 1 1-1.355.644 7.75 7.75 0 1 1 13.364 1.107.75.75 0 0 1-1.23-.858A6.25 6.25 0 0 0 14 2.75m-2.15 2.015a.75.75 0 0 1 .885.585c.08.391.158.689.355.99.16.243.424.527.91.842.485-.315.75-.6.91-.843.197-.3.275-.598.355-.99a.75.75 0 0 1 1.47.301c-.087.424-.21.96-.57 1.511-.307.467-.756.904-1.415 1.322v.6H16a.75.75 0 1 1 0 1.5h-1.25V12.5a.75.75 0 1 1-1.5 0v-1.916H12a.75.75 0 0 1 0-1.5h1.25v-.601c-.66-.418-1.109-.855-1.415-1.322-.361-.551-.483-1.087-.57-1.51a.75.75 0 0 1 .585-.886" clip-rule="evenodd"/></svg>