<svg xmlns="http://www.w3.org/2000/svg" fill="none" viewBox="0 0 24 24"><path fill="currentColor" d="M3.976 17c-.988 0-1.482 0-1.785-.447s-.202-.92 0-1.866C2.83 11.676 4.74 10 6.997 10c2.336 0 4.3 1.795 4.87 5.009.15.85.226 1.276-.075 1.634-.3.357-.789.357-1.765.357z" opacity=".4"/><path fill="currentColor" fill-rule="evenodd" d="M15.12 3.25a.75.75 0 0 0 0 1.5h1.112c1.164.014 2.22.59 2.831 1.5h-2.278c-.12 0-.28 0-.416.02a.96.96 0 0 0-.683.408.94.94 0 0 0-.099.812c.04.132.11.276.16.38l.013.025 1.021 2.113c.198.41.32.666.395.87.067.188.07.269.064.321-.006.053-.025.133-.133.305-.116.186-.29.414-.571.775l-1.593 2.054c-.503.65-.617.767-.752.832-.14.067-.315.085-1.157.085h-.363l-.056-.322-.009-.05c-.612-3.456-2.803-5.628-5.608-5.628-2.706 0-4.85 2.026-5.541 5.281l-.01.05c-.092.43-.18.838-.195 1.194-.017.414.057.812.318 1.198.286.424.68.622 1.112.707.195.038.412.056.642.064a3.751 3.751 0 0 0 7.352 0 5 5 0 0 0 .605-.048c.39-.062.78-.208 1.086-.57q.152-.183.237-.376h.558c.64.001 1.192.002 1.681-.234.493-.238.828-.67 1.21-1.165l.076-.099 1.613-2.08c.253-.327.477-.615.638-.874.175-.28.313-.58.351-.939.039-.359-.033-.68-.145-.991a11 11 0 0 0-.44-.981l-.79-1.637h2.151c.878-.02 1.538-.933 1.116-1.794l-.02-.039-.004-.007-.05-.097c-.84-1.565-2.498-2.541-4.3-2.563zM4.25 7A.75.75 0 0 1 5 6.25h4a.75.75 0 0 1 0 1.5H5A.75.75 0 0 1 4.25 7m.628 10.75a2.25 2.25 0 0 0 4.244 0zm2.12-7c-1.808 0-3.486 1.326-4.074 4.093-.106.498-.164.78-.173.996-.007.17.02.232.061.294l.004.006c.014.021.028.044.155.07.196.038.48.041 1.005.041h6.052c.513 0 .809-.002 1.018-.035a.6.6 0 0 0 .154-.04l.02-.015.002-.003c.01-.011.028-.03.028-.146 0-.176-.04-.42-.12-.871-.527-2.971-2.266-4.39-4.132-4.39m13.002 4a1.25 1.25 0 1 0 0 2.5 1.25 1.25 0 0 0 0-2.5M17.25 16a2.75 2.75 0 1 1 5.5 0 2.75 2.75 0 0 1-5.5 0" clip-rule="evenodd"/></svg>