<svg xmlns="http://www.w3.org/2000/svg" fill="none" viewBox="0 0 24 24"><path fill="currentColor" d="M8.076 13.446C6.713 12.081 6.03 11.4 6 10.583c-.03-.816.603-1.45 1.868-2.715C9.134 6.602 9.767 5.97 10.584 6c.816.03 1.498.712 2.86 2.075l2.48 2.478c1.362 1.363 2.044 2.045 2.074 2.861s-.603 1.45-1.868 2.715c-1.266 1.266-1.899 1.899-2.716 1.869-.816-.03-1.498-.712-2.86-2.075z" opacity=".4"/><path fill="currentColor" fill-rule="evenodd" d="M22.03 12.75a.75.75 0 0 1-.78-.72c-.06-1.48-.576-3.696-1.9-5.585-1.156-1.651-2.934-3.067-5.626-3.54l.561.546a.75.75 0 1 1-1.045 1.075l-1.357-1.32-.026-.025a4 4 0 0 1-.38-.404c-.095-.125-.367-.52-.142-.996.217-.46.676-.515.834-.527.169-.012.376.004.551.017l.037.003c3.796.287 6.284 2.116 7.821 4.31 1.518 2.167 2.1 4.673 2.171 6.385a.75.75 0 0 1-.718.78m-20.06-1.5a.75.75 0 0 1 .78.72c.06 1.48.576 3.695 1.9 5.585 1.156 1.65 2.935 3.067 5.626 3.54l-.561-.546a.75.75 0 0 1 1.045-1.075l1.357 1.32.026.025c.127.123.277.269.38.404.095.125.367.52.142.996-.217.46-.676.515-.834.527a4 4 0 0 1-.551-.018l-.037-.002c-3.796-.287-6.284-2.116-7.821-4.31-1.518-2.167-2.1-4.673-2.171-6.385a.75.75 0 0 1 .718-.78M8.4 8.4c.649-.65 1.08-1.077 1.444-1.35.343-.256.539-.306.713-.3.184.007.408.081.793.38.397.31.87.78 1.565 1.476l2.479 2.479c.695.695 1.166 1.168 1.475 1.565.3.385.374.609.38.793.007.174-.043.37-.299.713-.273.365-.7.795-1.35 1.444-.649.65-1.08 1.077-1.444 1.35-.343.256-.539.306-.713.3-.184-.008-.408-.082-.793-.38-.397-.31-.87-.78-1.565-1.476l-2.479-2.479c-.695-.695-1.166-1.168-1.475-1.565-.3-.385-.374-.609-.38-.793-.007-.174.043-.37.3-.713.272-.365.7-.795 1.349-1.444m2.212-3.149c-.643-.023-1.171.228-1.666.597-.462.346-.969.852-1.568 1.452l-.039.039-.039.039c-.6.6-1.106 1.106-1.452 1.568-.369.495-.62 1.023-.596 1.666.023.632.305 1.157.695 1.659.373.48.912 1.018 1.564 1.67l2.548 2.548c.652.652 1.19 1.19 1.67 1.564.502.39 1.027.672 1.659.695.643.024 1.171-.227 1.666-.597.462-.345.969-.852 1.568-1.451l.078-.078c.6-.6 1.106-1.106 1.452-1.569.369-.494.62-1.023.596-1.665-.023-.633-.305-1.158-.695-1.659-.373-.48-.912-1.018-1.564-1.67L13.941 7.51c-.652-.652-1.19-1.191-1.67-1.564-.502-.39-1.027-.672-1.659-.696" clip-rule="evenodd"/></svg>