<svg xmlns="http://www.w3.org/2000/svg" fill="none" viewBox="0 0 24 24"><path fill="currentColor" fill-rule="evenodd" d="M8.984 2c-2.807.064-4.446.331-5.566 1.447C2.438 4.424 2.11 5.797 2 8v8c.11 2.203.437 3.576 1.418 4.553 1.12 1.116 2.759 1.383 5.566 1.447h6.033c2.806-.064 4.445-.331 5.566-1.447.98-.977 1.308-2.35 1.417-4.553V8c-.11-2.203-.437-3.576-1.418-4.553-1.12-1.116-2.759-1.383-5.565-1.447zm5.866 7a5.85 5.85 0 1 1 0 11.7 5.85 5.85 0 0 1 0-11.7" clip-rule="evenodd" opacity=".4"/><path fill="currentColor" fill-rule="evenodd" d="M6.073 2.747a.75.75 0 1 0-.146-1.493c-1.4.136-2.509.46-3.361 1.312S1.39 4.526 1.253 5.927a.75.75 0 1 0 1.493.146c.124-1.27.393-1.958.88-2.446.488-.488 1.177-.756 2.447-.88m12-1.493a.75.75 0 1 0-.146 1.493c1.27.124 1.958.392 2.446.88s.756 1.176.88 2.446a.75.75 0 1 0 1.493-.146c-.136-1.4-.46-2.509-1.312-3.361s-1.96-1.176-3.361-1.312M10 1.25a.75.75 0 0 0 0 1.5h4a.75.75 0 0 0 0-1.5zM2.75 10a.75.75 0 1 0-1.5 0v4a.75.75 0 0 0 1.5 0zm-.004 7.927a.75.75 0 0 0-1.493.146c.137 1.4.46 2.509 1.313 3.361.852.852 1.96 1.176 3.361 1.313a.75.75 0 0 0 .146-1.493c-1.27-.125-1.959-.393-2.446-.88-.488-.488-.757-1.177-.88-2.447M14.85 8.25a6.6 6.6 0 1 0 4.106 11.767l2.514 2.513a.75.75 0 1 0 1.06-1.06l-2.513-2.514A6.6 6.6 0 0 0 14.85 8.25m-5.1 6.6a5.1 5.1 0 1 1 10.2 0 5.1 5.1 0 0 1-10.2 0" clip-rule="evenodd"/></svg>