<svg xmlns="http://www.w3.org/2000/svg" fill="none" viewBox="0 0 24 24"><circle cx="12" cy="12" r="10" fill="currentColor" opacity=".4"/><path fill="currentColor" fill-rule="evenodd" d="M2.75 12a9.25 9.25 0 1 1 18.5 0 9.25 9.25 0 0 1-18.5 0M12 1.25C6.063 1.25 1.25 6.063 1.25 12S6.063 22.75 12 22.75 22.75 17.937 22.75 12 17.937 1.25 12 1.25M7.951 7.416c-1.075-.521-2.106.232-2.487 1.019a2.07 2.07 0 0 0-.126 1.508c.165.544.554 1.016 1.14 1.371.595.362 1.207.503 1.798.406.583-.096 1.058-.409 1.416-.794.697-.75 1.058-1.876 1.058-2.835a.75.75 0 0 0-1.5 0c0 .647-.26 1.386-.657 1.813-.188.203-.379.306-.56.336-.175.029-.428.004-.777-.208-.33-.2-.444-.397-.483-.526a.57.57 0 0 1 .04-.418.67.67 0 0 1 .291-.305c.096-.047.154-.036.193-.017a.75.75 0 0 0 1.402.532l-.687-.276.687.275v-.002l.002-.003.003-.007.007-.018a1.3 1.3 0 0 0 .054-.192c.025-.114.047-.278.031-.468-.035-.422-.261-.908-.845-1.19m10.585 3.149c-.38.787-1.412 1.54-2.487 1.019-.584-.283-.81-.77-.845-1.191a1.6 1.6 0 0 1 .085-.66l.007-.018.003-.007.001-.003v-.002h.001l.687.275-.687-.276a.75.75 0 0 1 1.402.532c.04.019.096.03.193-.017a.67.67 0 0 0 .29-.305.57.57 0 0 0 .041-.418c-.039-.13-.153-.326-.483-.526-.35-.212-.602-.237-.777-.208-.181.03-.372.133-.56.336-.397.427-.657 1.166-.657 1.813a.75.75 0 0 1-1.5 0c0-.959.36-2.085 1.058-2.835.358-.385.833-.698 1.416-.794.59-.097 1.203.044 1.799.406.585.355.974.827 1.14 1.371a2.07 2.07 0 0 1-.127 1.508m-9.742 6.437c.453-.336.935-.336 1.388 0l.269.2c.984.73 2.192.73 3.176 0l.27-.2c.452-.336.934-.336 1.387 0l.269.2a.75.75 0 1 0 .894-1.204l-.27-.2c-.983-.73-2.191-.73-3.175 0l-.27.2c-.452.336-.934.336-1.387 0l-.269-.2c-.984-.73-2.192-.73-3.176 0l-.347.258a.75.75 0 0 0 .894 1.204z" clip-rule="evenodd"/></svg>