<svg xmlns="http://www.w3.org/2000/svg" fill="none" viewBox="0 0 24 24"><path fill="currentColor" fill-rule="evenodd" d="M21.897 13.75c-.103.134-.364.204-.886.345-1.95.526-3.17 2.565-2.666 4.502.138.533.207.8.141.956s-.255.264-.635.48l-1.724.979c-.373.211-.559.317-.726.294-.167-.022-.355-.21-.732-.586-1.46-1.457-3.876-1.457-5.336 0-.377.376-.566.564-.733.586s-.353-.083-.725-.294l-1.725-.98c-.38-.215-.569-.323-.635-.479s.003-.422.142-.955c.503-1.938-.718-3.977-2.668-4.503-.522-.14-.783-.211-.886-.346S2 13.4 2 12.965v-1.933c0-.433 0-.65.103-.784.103-.135.364-.205.886-.346 1.95-.526 3.172-2.565 2.67-4.503-.14-.533-.208-.8-.142-.955.066-.157.256-.264.635-.48l1.725-.979c.372-.211.558-.317.725-.295s.355.211.732.587c1.46 1.456 3.874 1.456 5.333 0 .377-.376.566-.564.733-.586s.353.083.725.294l1.725.98c.38.215.569.322.635.479s-.003.422-.142.955c-.503 1.938.718 3.977 2.668 4.503.522.14.783.211.886.346s.103.35.103.784v1.933c0 .433 0 .65-.103.784M12 15.497a3.5 3.5 0 1 0 0-7 3.5 3.5 0 0 0 0 7" clip-rule="evenodd" opacity=".4"/><path fill="currentColor" fill-rule="evenodd" d="m8.247 3.637.234-.131.01-.006c.076.07.174.168.314.308 1.752 1.748 4.64 1.748 6.392 0 .14-.14.238-.237.314-.307l.01.005.234.131 1.725.98.237.136.013.008c-.024.106-.06.247-.113.45-.61 2.349.864 4.785 3.199 5.415.195.053.331.09.432.12v.014c.002.074.002.161.002.272v1.933c0 .11 0 .197-.002.272v.013c-.1.031-.237.068-.432.12-2.335.63-3.807 3.067-3.197 5.416.053.202.089.344.113.45l-.014.008c-.064.038-.14.081-.237.136l-1.725.98c-.095.053-.17.096-.234.13l-.01.006c-.075-.07-.174-.168-.313-.307-1.753-1.75-4.643-1.75-6.396 0-.14.14-.238.237-.314.307l-.01-.005-.234-.131-1.724-.98-.238-.136-.013-.008c.024-.106.06-.248.113-.45.61-2.349-.864-4.786-3.199-5.415-.195-.053-.331-.09-.432-.121v-.013l-.002-.272v-1.933l.001-.272v-.013c.102-.031.238-.068.433-.12 2.335-.63 3.81-3.067 3.2-5.416a15 15 0 0 1-.112-.45l.013-.008.237-.137zm.455-1.69a1.27 1.27 0 0 0-.687.116c-.15.066-.32.162-.484.256l-.025.014-1.724.979-.026.014a6 6 0 0 0-.474.289 1.27 1.27 0 0 0-.456.536c-.123.292-.084.586-.054.756.031.185.09.41.153.653l.007.028c.397 1.526-.571 3.167-2.138 3.59l-.028.007a9 9 0 0 0-.633.187c-.162.059-.434.17-.625.42a1.27 1.27 0 0 0-.241.659c-.017.164-.017.36-.017.552v1.991c0 .191 0 .388.017.552.018.178.065.43.24.66.192.25.464.36.626.419.174.063.396.123.633.187l.028.007c1.566.422 2.533 2.064 2.137 3.59l-.007.028c-.063.242-.122.468-.154.652-.03.17-.069.464.054.756.113.268.31.433.456.537.135.096.307.193.475.288l1.775 1.008c.164.093.333.19.483.255.163.072.403.155.688.116.309-.041.538-.219.67-.33.14-.117.3-.278.471-.448l.02-.02c1.168-1.165 3.11-1.165 4.277 0l.02.02c.171.17.332.33.472.448.132.111.36.289.67.33.284.039.524-.044.688-.116.15-.066.319-.162.483-.255l1.775-1.008c.167-.095.34-.192.474-.288.146-.104.343-.27.456-.537.124-.292.084-.586.054-.756a9 9 0 0 0-.153-.652l-.007-.028c-.397-1.527.57-3.168 2.135-3.59l.028-.007c.237-.064.46-.124.633-.187.162-.06.434-.17.625-.42a1.27 1.27 0 0 0 .241-.66 6 6 0 0 0 .017-.551v-1.991c0-.191 0-.388-.017-.552a1.27 1.27 0 0 0-.24-.66c-.192-.25-.464-.36-.626-.419a9 9 0 0 0-.633-.187l-.028-.007c-1.566-.423-2.533-2.064-2.137-3.59l.007-.028c.063-.242.122-.468.154-.652.03-.17.07-.465-.054-.756a1.27 1.27 0 0 0-.456-.537 6 6 0 0 0-.475-.289L16.471 2.32a6 6 0 0 0-.484-.256 1.27 1.27 0 0 0-.687-.116c-.31.042-.539.22-.67.33a8 8 0 0 0-.472.449l-.02.02c-1.167 1.164-3.107 1.164-4.274 0l-.02-.02a8 8 0 0 0-.472-.449c-.132-.11-.36-.288-.67-.33M9.25 12a2.75 2.75 0 1 1 5.5 0 2.75 2.75 0 0 1-5.5 0M12 7.75a4.25 4.25 0 1 0 0 8.5 4.25 4.25 0 0 0 0-8.5" clip-rule="evenodd"/></svg>