<svg xmlns="http://www.w3.org/2000/svg" fill="none" viewBox="0 0 24 24"><path fill="currentColor" d="M6.95 18.827c.866.331 3.883.659 3.883.659l8.794 1.498a1.644 1.644 0 0 0 .49-3.25l-5.92-1.205a2 2 0 0 0-.398-.04H12a1.5 1.5 0 1 1 0-2.998h.5a1.5 1.5 0 1 1 0-2.997h.5a1.5 1.5 0 0 1-1.118-2.498l-.844-.5 1.625-1.619c.713-.71.648-1.88-.14-2.508a1.7 1.7 0 0 0-2.072-.032L5.853 6.934c-.88.688-2.236 1.062-3.353 1.062v9.492c1.767 0 2.788.93 4.45 1.34" opacity=".4"/><path fill="currentColor" fill-rule="evenodd" d="M10.002 2.736a2.45 2.45 0 0 1 2.99.047 2.43 2.43 0 0 1 .2 3.626l-.344.342q.075-.005.152-.005h2a2.25 2.25 0 0 1 1.386 4.02 2.244 2.244 0 0 1-.5 2.998c.23.352.364.773.364 1.226 0 .412-.11.798-.304 1.13l4.307.877a2.393 2.393 0 0 1-.752 4.726l-8.772-1.494-.013-.001-.1-.012a60 60 0 0 1-1.506-.193 30 30 0 0 1-1.329-.216 7.5 7.5 0 0 1-1.052-.262c-.697-.176-1.308-.441-1.838-.671l-.414-.177c-.647-.269-1.237-.46-1.977-.46a.75.75 0 0 1 0-1.5c1.028 0 1.831.275 2.552.574q.259.108.498.213c.523.226 1 .432 1.58.575a1 1 0 0 1 .088.028c.148.056.44.13.845.206.388.074.834.145 1.26.205a53 53 0 0 0 1.464.188l.095.01.032.004.045.007 8.782 1.495a.894.894 0 0 0 .257-1.767l-.015-.003-.015-.002-6.043-1.232H12a2.25 2.25 0 0 1-1.386-4.02 2.244 2.244 0 0 1 .5-2.997 2.25 2.25 0 0 1-.23-1.991.75.75 0 0 1-.375-1.265l1.625-1.62a.93.93 0 0 0-.078-1.39.95.95 0 0 0-1.15-.021l-4.59 3.59c-1.04.814-2.571 1.222-3.816 1.222a.75.75 0 1 1 0-1.5c.99 0 2.171-.34 2.891-.903l4.598-3.597zM13 9.744h2a.75.75 0 1 0 0-1.498h-2a.75.75 0 1 0 0 1.498m1.509 1.5H12.5a.75.75 0 1 0 0 1.497h2a.75.75 0 0 0 .009-1.497M14 14.24h-2a.75.75 0 1 0 0 1.498h2a.75.75 0 1 0 0-1.498" clip-rule="evenodd"/></svg>