<svg xmlns="http://www.w3.org/2000/svg" fill="none" viewBox="0 0 24 24"><path fill="currentColor" d="M19.74 7.495A2.998 2.998 0 0 1 14.5 5.5c0-.321.05-.629.14-.919a7.995 7.995 0 0 0-8.16 4.082 3 3 0 0 1-.73 5.827 8 8 0 0 0 7.75 6.01c.86 0 1.69-.136 2.47-.388A2.998 2.998 0 0 1 18.5 15.5c.79 0 1.51.304 2.04.801.61-1.13.96-2.425.96-3.801 0-1.894-.66-3.635-1.76-5.005" opacity=".4"/><path fill="currentColor" fill-rule="evenodd" d="M15.25 5.5a2.25 2.25 0 1 1 4.5 0 2.25 2.25 0 0 1-4.5 0m-1.492-.24q-.008.12-.008.24a3.75 3.75 0 0 0 5.849 3.108A7.1 7.1 0 0 1 20.75 12.5a7.1 7.1 0 0 1-.517 2.674 3.75 3.75 0 0 0-5.321 4.419 7.5 7.5 0 0 1-1.538.157c-3.14 0-5.816-1.927-6.882-4.633A3.752 3.752 0 0 0 7.39 8.26a7.4 7.4 0 0 1 6.369-3m.407-1.476a9 9 0 0 0-.791-.034 8.9 8.9 0 0 0-7.47 4.021 3.75 3.75 0 0 0-.973 7.436c1.157 3.513 4.504 6.043 8.443 6.043a9 9 0 0 0 2.291-.295 3.75 3.75 0 0 0 5.77-4.789 8.6 8.6 0 0 0 .815-3.666 8.63 8.63 0 0 0-1.584-4.99 3.75 3.75 0 1 0-6.502-3.726M3.25 11.5a2.25 2.25 0 1 1 4.5 0 2.25 2.25 0 0 1-4.5 0m15.25 4.75a2.25 2.25 0 1 0 0 4.5 2.25 2.25 0 0 0 0-4.5" clip-rule="evenodd"/></svg>