<svg xmlns="http://www.w3.org/2000/svg" fill="none" viewBox="0 0 24 24"><path fill="currentColor" d="M22 15.763V13a6.5 6.5 0 0 0-6.5-6.5H15c-.007-1.088-.055-1.676-.44-2.06C14.122 4 13.415 4 12 4H5c-1.414 0-2.121 0-2.56.44C2 4.878 2 5.585 2 7v8c0 .935 0 1.402.201 1.75a1.5 1.5 0 0 0 .549.549c.33.19.786.19 1.627.19H4.5a2.5 2.5 0 0 1 5 .002l5 .002a2.5 2.5 0 0 1 5 0c.729-.001 1.17-.003 1.186-.005a1.5 1.5 0 0 0 1.302-1.302c.012-.093.012-.203.012-.423" opacity=".4"/><path fill="currentColor" fill-rule="evenodd" d="M5 3.25h-.05c-.664 0-1.237 0-1.696.062-.491.066-.963.215-1.345.597s-.531.854-.597 1.345c-.062.459-.062 1.032-.062 1.697v8.081c0 .44 0 .82.028 1.13.03.33.096.656.273.963.198.342.482.626.824.824.307.177.633.243.962.273q.225.019.5.024a3.251 3.251 0 0 0 6.326.004h3.674a3.251 3.251 0 0 0 6.326 0h.14c.18 0 .335 0 .475-.017a2.25 2.25 0 0 0 1.955-1.955c.017-.14.017-.295.017-.475V13a7.25 7.25 0 0 0-7.018-7.246 6 6 0 0 0-.044-.5c-.066-.491-.215-.963-.597-1.345s-.853-.531-1.345-.597c-.459-.062-1.032-.062-1.697-.062zm15.163 13.5h.1c.243 0 .295-.001.33-.006a.75.75 0 0 0 .651-.651c.005-.035.006-.087.006-.33V13a5.75 5.75 0 0 0-5.5-5.745V14.5a3.25 3.25 0 0 1 4.413 2.25m-5.881-1.033a.8.8 0 0 1-.032-.217V7c0-.728-.002-1.2-.048-1.546-.044-.325-.115-.427-.172-.484s-.159-.128-.484-.172c-.347-.046-.818-.048-1.546-.048H5c-.728 0-1.2.002-1.546.048-.325.044-.427.115-.484.172s-.128.159-.172.484c-.046.347-.048.818-.048 1.546v8c0 .481 0 .792.022 1.027.02.225.055.307.078.348a.75.75 0 0 0 .275.274c.04.024.123.058.348.079.104.01.223.015.365.018a3.251 3.251 0 0 1 6.325.004h3.674a3.2 3.2 0 0 1 .445-1.033M5.25 17.5v.002a1.75 1.75 0 1 0 0-.002m10 .002a1.75 1.75 0 1 0 0-.002z" clip-rule="evenodd"/></svg>