<svg xmlns="http://www.w3.org/2000/svg" fill="none" viewBox="0 0 24 24"><path fill="currentColor" d="M4.34 16.878 3.179 9.936c-.19-1.13-.284-1.694.007-2.065.292-.371.83-.371 1.906-.371H18.91c1.076 0 1.614 0 1.906.37.29.372.196.936.007 2.066l-1.163 6.942-.121.721H4.462z" opacity=".4"/><path fill="currentColor" fill-rule="evenodd" d="M12 2.75a4.25 4.25 0 0 0-4.243 4h8.486a4.25 4.25 0 0 0-4.243-4m0-1.5a5.75 5.75 0 0 0-5.745 5.5H5.04c-.493 0-.946 0-1.308.055-.402.06-.825.207-1.135.603-.304.385-.358.83-.344 1.236.012.379.09.844.178 1.368l.008.047 1.17 6.99c.2 1.184.36 2.138.575 2.883.224.771.532 1.41 1.086 1.903.558.498 1.216.716 1.986.818.734.097 1.65.097 2.773.097H13a.75.75 0 0 0 0-1.5h-2.92c-1.187 0-2.004-.002-2.628-.084-.6-.08-.93-.224-1.185-.45-.258-.231-.459-.568-.643-1.202a14 14 0 0 1-.284-1.264H13a.75.75 0 0 0 0-1.5H5.08L3.918 9.812c-.099-.586-.158-.951-.167-1.218a1 1 0 0 1 .013-.23l.009-.026.001-.003.006-.003a.7.7 0 0 1 .176-.044c.236-.036.572-.038 1.135-.038h13.818c.563 0 .899.002 1.135.038a.7.7 0 0 1 .176.044l.006.003.001.003.009.026a1 1 0 0 1 .013.23c-.009.267-.068.632-.167 1.218l-.262 1.564a.75.75 0 1 0 1.48.248l.27-1.612c.088-.524.166-.99.178-1.368.014-.407-.04-.85-.344-1.236-.31-.396-.733-.542-1.135-.603-.362-.055-.815-.055-1.308-.055h-1.216A5.75 5.75 0 0 0 12 1.25m4.538 15.773a9 9 0 0 0 .551-.664l.045-.057c.193-.245.4-.508.61-.757l.006-.007V22a.75.75 0 0 0 1.5 0v-6.462l.006.007c.21.249.417.512.61.757l.045.057c.192.245.394.502.551.664a.75.75 0 1 0 1.076-1.046 9 9 0 0 1-.448-.544l-.047-.06c-.19-.242-.413-.526-.642-.797a7.4 7.4 0 0 0-.798-.828 2.7 2.7 0 0 0-.46-.323 1.4 1.4 0 0 0-.643-.175c-.258 0-.48.089-.642.175-.168.09-.323.206-.461.323a7.4 7.4 0 0 0-.797.828 28 28 0 0 0-.643.797l-.047.06a9 9 0 0 1-.448.544.75.75 0 1 0 1.076 1.046" clip-rule="evenodd"/></svg>