<svg xmlns="http://www.w3.org/2000/svg" fill="none" viewBox="0 0 24 24"><path fill="currentColor" d="M2.5 12c0-4.478 0-6.718 1.391-8.109S7.521 2.5 12 2.5c4.478 0 6.718 0 8.109 1.391S21.5 7.521 21.5 12c0 4.478 0 6.718-1.391 8.109S16.479 21.5 12 21.5c-4.478 0-6.718 0-8.109-1.391S2.5 16.479 2.5 12" opacity=".4"/><path fill="currentColor" fill-rule="evenodd" d="M12.057 1.75h-.114c-2.19 0-3.912 0-5.255.18-1.377.186-2.469.573-3.327 1.43-.858.86-1.245 1.951-1.43 3.328-.181 1.343-.181 3.064-.181 5.255v.114c0 2.19 0 3.912.18 5.255.186 1.377.573 2.469 1.43 3.327.86.858 1.951 1.245 3.328 1.43 1.343.181 3.064.181 5.255.181h.114c2.19 0 3.912 0 5.255-.18 1.377-.186 2.469-.573 3.327-1.43.858-.86 1.245-1.951 1.43-3.328.181-1.343.181-3.064.181-5.255v-.114c0-2.19 0-3.912-.18-5.255-.186-1.377-.573-2.469-1.43-3.327-.86-.858-1.951-1.245-3.328-1.43-1.343-.181-3.064-.181-5.255-.181M4.422 4.422c.533-.533 1.256-.842 2.466-1.005C8.12 3.252 9.74 3.25 12 3.25s3.88.002 5.112.167c1.21.163 1.933.472 2.466 1.005s.842 1.256 1.005 2.466c.165 1.232.167 2.852.167 5.112s-.002 3.88-.167 5.112c-.163 1.21-.471 1.933-1.005 2.466s-1.256.842-2.466 1.005c-1.232.165-2.852.167-5.112.167s-3.88-.002-5.112-.167c-1.21-.163-1.933-.471-2.466-1.005s-.842-1.256-1.005-2.466C3.252 15.88 3.25 14.26 3.25 12s.002-3.88.167-5.112c.163-1.21.472-1.933 1.005-2.466m12.647 1.59a.75.75 0 1 0-1.138.976l.438.512h-.26c-.497 0-.918 0-1.268.03-.37.033-.715.103-1.05.272-.613.307-1.009.864-1.504 1.563l-.086.12a.75.75 0 1 0 1.223.87c.626-.88.802-1.094 1.039-1.213.106-.053.246-.094.509-.117C15.249 9 15.604 9 16.14 9H18a.75.75 0 0 0 .57-1.238zM6.526 9c.537 0 .892 0 1.169.025.263.023.402.064.509.117.237.12.413.333 1.039 1.213l2.958 4.16.086.12c.495.699.89 1.256 1.503 1.563.336.169.68.239 1.051.271.35.031.771.031 1.269.031h.26l-.44.512a.75.75 0 1 0 1.14.976l1.5-1.75A.75.75 0 0 0 18 15h-1.86c-.536 0-.891 0-1.168-.025-.263-.023-.403-.064-.509-.117-.237-.12-.413-.333-1.04-1.213l-2.958-4.16-.085-.12c-.496-.699-.891-1.256-1.504-1.563-.335-.169-.68-.239-1.05-.271-.35-.031-.771-.031-1.269-.031H6A.75.75 0 0 0 6 9zm3.94 5.515a.75.75 0 1 0-1.223-.87c-.626.88-.802 1.094-1.04 1.213-.106.053-.245.094-.508.117-.277.024-.632.025-1.17.025H6a.75.75 0 0 0 0 1.5h.557c.498 0 .918 0 1.268-.03.372-.033.716-.103 1.051-.271.613-.308 1.008-.865 1.504-1.564z" clip-rule="evenodd"/></svg>