<svg xmlns="http://www.w3.org/2000/svg" fill="none" viewBox="0 0 24 24"><path fill="currentColor" d="M7 17v-1c0-.943 0-1.414-.293-1.707S5.943 14 5 14s-1.414 0-1.707.293S3 15.057 3 16v1c0 .943 0 1.414.293 1.707S4.057 19 5 19s1.414 0 1.707-.293S7 17.943 7 17" opacity=".4"/><path fill="currentColor" fill-rule="evenodd" d="M5 13.25h-.045c-.433 0-.83 0-1.152.043-.356.048-.731.16-1.04.47s-.422.684-.47 1.04c-.043.323-.043.72-.043 1.152v1.09c0 .433 0 .83.043 1.152.048.356.16.731.47 1.04s.684.422 1.04.47c.323.043.72.043 1.152.043h.09c.433 0 .83 0 1.152-.043.356-.048.731-.16 1.04-.47s.422-.684.47-1.04c.043-.323.043-.72.043-1.152v-1.09c0-.433 0-.83-.043-1.152-.048-.356-.16-.731-.47-1.04s-.684-.422-1.04-.47c-.323-.043-.72-.043-1.152-.043zm-1.174 1.572-.003.001-.001.003-.005.01a.7.7 0 0 0-.037.167c-.028.21-.03.504-.03.997v1c0 .493.002.787.03.997a.7.7 0 0 0 .042.177l.001.003.003.001.01.005c.022.009.07.024.167.037.21.028.504.03.997.03s.787-.002.997-.03a.7.7 0 0 0 .177-.042l.003-.001.001-.003.005-.01a.7.7 0 0 0 .037-.167c.028-.21.03-.504.03-.997v-1c0-.493-.002-.787-.03-.997a.7.7 0 0 0-.042-.177l-.001-.003-.003-.001-.01-.005a.7.7 0 0 0-.167-.037c-.21-.028-.504-.03-.997-.03s-.787.002-.997.03a.7.7 0 0 0-.177.042M10.25 19a.75.75 0 0 1 .75-.75h3a.75.75 0 0 1 0 1.5h-3a.75.75 0 0 1-.75-.75m7 0a.75.75 0 0 1 .75-.75h3a.75.75 0 0 1 0 1.5h-3a.75.75 0 0 1-.75-.75" clip-rule="evenodd"/></svg>