<svg xmlns="http://www.w3.org/2000/svg" fill="none" viewBox="0 0 24 24"><path fill="currentColor" fill-rule="evenodd" d="M16.828 6.27a.75.75 0 0 1 .843.395l3.579 7.158V7a.75.75 0 0 1 1.5 0v10a.75.75 0 0 1-1.42.335l-3.58-7.158V17a.75.75 0 0 1-1.5 0V7c0-.348.24-.65.578-.73M9.25 7a.75.75 0 0 1 .75-.75h4a.75.75 0 0 1 0 1.5h-1.25v8.5H14a.75.75 0 1 1 0 1.5h-4a.75.75 0 0 1 0-1.5h1.25v-8.5H10A.75.75 0 0 1 9.25 7M4 6.25c-1.666 0-2.75 1.62-2.75 3.25S2.334 12.75 4 12.75h1c.543 0 1.25.619 1.25 1.75S5.543 16.25 5 16.25h-.5c-.616 0-1.27-.475-1.584-1.372a.75.75 0 0 0-1.416.495c.458 1.31 1.566 2.377 3 2.377H5c1.666 0 2.75-1.62 2.75-3.25S6.666 11.25 5 11.25H4c-.543 0-1.25-.619-1.25-1.75S3.457 7.75 4 7.75h.5c.569 0 1.163.399 1.504 1.169a.75.75 0 0 0 1.372-.607C6.864 7.156 5.817 6.25 4.5 6.25z" clip-rule="evenodd" opacity=".4"/></svg>