<svg xmlns="http://www.w3.org/2000/svg" fill="none" viewBox="0 0 24 24"><path fill="currentColor" fill-rule="evenodd" d="M21.8 10a10 10 0 0 0-2.659-5A9.97 9.97 0 0 0 12 2a10 10 0 0 0-8.981 5.597c3.136.899 5.043.142 7.37-.782 1.88-.747 4.035-1.602 7.336-1.781-1.918.28-3.403 1.449-5.058 2.75C10.178 9.741 7.305 12 2 12c1.978 0 4.318 1.81 6.771 3.709l.66.51c-1.667 1.028-3.422 1.77-5.39 1.78-.016.001-.027.02-.017.034A9.98 9.98 0 0 0 12 22c2.35 0 4.51-.81 6.218-2.167L18 19.88c-2.721.652-5.706-1.46-8.568-3.661 1.09-.673 2.145-1.469 3.195-2.263C15.256 11.972 17.866 10 21 10zm-4.075-4.966.319-.015a.2.2 0 0 0-.092-.014 6 6 0 0 0-.227.029" clip-rule="evenodd" opacity=".4"/><path fill="currentColor" fill-rule="evenodd" d="M4.154 7.099A9.24 9.24 0 0 1 12 2.75c1.91 0 3.683.578 5.157 1.57-3.132.244-5.243 1.082-7.041 1.796h-.002l-.327.13c-1.094.432-2.037.78-3.059.928a7.6 7.6 0 0 1-2.574-.075m-.711 1.383a9.2 9.2 0 0 0-.662 2.75c3.82-.173 6.228-1.614 8.269-3.145.37-.278.743-.57 1.115-.863q.331-.26.662-.517a37 37 0 0 0-2.166.807l-.323.127c-1.093.432-2.182.841-3.394 1.017-1.058.153-2.189.127-3.501-.176m.933 8.758a9.2 9.2 0 0 1-1.587-4.382c.71.182 1.519.588 2.436 1.181.916.592 1.866 1.32 2.86 2.088-1.187.626-2.402 1.045-3.709 1.113m1.157 1.374A9.22 9.22 0 0 0 12 21.25a9.2 9.2 0 0 0 3.494-.683 9.6 9.6 0 0 1-1.925-.71c-1.422-.69-2.84-1.706-4.189-2.733-1.198.694-2.47 1.246-3.847 1.49m5.202-2.346c1.186.887 2.352 1.688 3.49 2.24 1.326.643 2.52.901 3.6.643l.057-.012A9.23 9.23 0 0 0 21.25 12q-.001-.645-.086-1.268a1 1 0 0 1-.164.018c-2.859 0-5.277 1.808-7.978 3.848l-.044.033c-.724.547-1.469 1.11-2.243 1.637m10.1-7.016A9.2 9.2 0 0 0 18.82 5.75q-.527.004-1.018.03c-.973.15-1.84.562-2.733 1.15-.64.421-1.244.897-1.901 1.415-.382.3-.783.615-1.218.942-1.698 1.273-3.707 2.535-6.508 3.122q.3.178.597.37c1.04.672 2.128 1.514 3.207 2.35l.226.175c.875-.57 1.748-1.225 2.646-1.902l.151-.115c2.512-1.898 5.252-3.968 8.566-4.035M12 1.25C6.063 1.25 1.25 6.063 1.25 12S6.063 22.75 12 22.75 22.75 17.937 22.75 12 17.937 1.25 12 1.25" clip-rule="evenodd"/></svg>