<svg xmlns="http://www.w3.org/2000/svg" fill="none" viewBox="0 0 24 24"><path fill="currentColor" d="M12 7.315c1.657 0 3-2.112 3-5.315 1.102.426 2.458.404 2.405 1.764-.052 1.348.386 3.063 1.762 4.353.622.583.833.848.833 1.683v6.697c0 2.278 0 3.416-.732 4.124-2.076 2.007-12.816 1.663-14.536 0C4 19.914 4 18.775 4 16.497V9.8c0-.835.211-1.1.833-1.683 1.376-1.29 1.814-3.005 1.762-4.353C6.542 2.404 7.898 2.426 9 2c0 3.203 1.343 5.315 3 5.315" opacity=".4"/><path fill="currentColor" fill-rule="evenodd" d="M9.46 1.407a.75.75 0 0 0-.73-.107 8 8 0 0 1-.704.22l-.077.022a6 6 0 0 0-.9.31c-.303.14-.63.35-.87.693-.248.354-.352.777-.334 1.248.046 1.179-.34 2.665-1.525 3.777-.303.283-.601.573-.798.94-.212.396-.272.81-.272 1.29v6.752c0 1.092 0 1.99.099 2.7.103.745.329 1.393.862 1.909.331.32.808.55 1.303.726.512.183 1.123.334 1.788.455 1.331.244 2.943.383 4.554.405s3.25-.073 4.632-.306c.69-.117 1.334-.27 1.885-.47.54-.196 1.048-.454 1.416-.81.533-.516.759-1.164.862-1.91.1-.71.099-1.607.099-2.7V9.8c0-.48-.06-.894-.272-1.29-.197-.367-.495-.657-.798-.94-1.185-1.112-1.571-2.598-1.525-3.777.018-.471-.086-.894-.333-1.248-.24-.344-.568-.553-.87-.694a6 6 0 0 0-.9-.309l-.078-.021c-.262-.074-.49-.138-.704-.22a.75.75 0 0 0-.73.107v-.002c-.666.518-1.554.842-2.54.842-.987 0-1.874-.324-2.54-.842zm.38 1.928c.126.885.373 1.61.686 2.145.46.788 1.002 1.085 1.474 1.085s1.013-.297 1.474-1.085c.313-.536.56-1.26.686-2.145a5.8 5.8 0 0 1-2.16.413 5.8 5.8 0 0 1-2.16-.413m4.929 2.902c.5-.854.826-1.96.938-3.233a4 4 0 0 1 .614.208c.167.078.237.144.271.192.026.038.072.122.064.331-.059 1.518.432 3.46 1.998 4.93.32.298.437.433.502.553.049.091.094.227.094.582v6.697c0 1.16-.002 1.953-.084 2.547-.08.57-.22.846-.42 1.038-.15.145-.433.315-.883.478-.44.16-.99.295-1.625.402-1.27.214-2.813.306-4.361.285s-3.074-.154-4.305-.38a10 10 0 0 1-1.555-.393c-.43-.153-.664-.296-.764-.392-.199-.192-.34-.468-.419-1.038-.082-.594-.084-1.387-.084-2.547V9.8c0-.355.045-.49.094-.582.065-.12.182-.255.502-.554 1.566-1.468 2.057-3.411 1.998-4.929-.008-.209.038-.293.064-.33.033-.049.104-.115.271-.193.16-.074.358-.136.614-.208.112 1.272.439 2.379.938 3.233.625 1.07 1.584 1.828 2.769 1.828s2.144-.759 2.769-1.828" clip-rule="evenodd"/></svg>