<svg xmlns="http://www.w3.org/2000/svg" fill="none" viewBox="0 0 24 24"><path fill="currentColor" d="M21 9.268a2 2 0 0 0-2.733.732l-1.009 2.39c-.25.591-.278.61-.921.61H7.663c-.643 0-.67-.018-.921-.61L5.732 10a2 2 0 0 0-3.464 2c.431.747 1.627.684 1.82 1.265.44 1.32.66 1.98 1.184 2.357S6.492 16 7.883 16h8.234c1.391 0 2.087 0 2.61-.378.525-.377.745-1.037 1.185-2.357.193-.581 1.389-.518 1.82-1.265A2 2 0 0 0 21 9.268" opacity=".4"/><path fill="currentColor" fill-rule="evenodd" d="M7.75 19v-2.25h8.5V19a.75.75 0 0 0 1.5 0v-2.293l.083-.009c.485-.055.93-.176 1.334-.467.403-.291.659-.675.864-1.118.19-.41.364-.928.569-1.541l.002-.002c.082-.049.196-.094.408-.179l.033-.013c.348-.138.985-.39 1.338-1.003a2.75 2.75 0 0 0-2.36-4.125c-.284-.754-.527-1.38-.782-1.882-.305-.6-.657-1.087-1.18-1.45-.525-.364-1.105-.522-1.774-.597-.64-.071-1.43-.071-2.4-.071h-3.769c-.969 0-1.758 0-2.399.071-.669.075-1.248.233-1.773.597-.524.363-.876.85-1.18 1.45-.255.502-.499 1.128-.782 1.882a2.75 2.75 0 0 0-2.363 4.125c.353.613.99.865 1.338 1.003l.033.013c.212.085.326.13.408.18l.003.001c.204.613.378 1.132.568 1.541.206.443.46.827.865 1.118s.849.412 1.333.467l.083.009V19a.75.75 0 0 0 1.5 0m8.588-5.25h.115a3 3 0 0 0 .35-.017c.156-.018.36-.06.557-.191s.316-.302.394-.44c.072-.128.137-.282.196-.42l.99-2.342a1.24 1.24 0 0 1 .775-.557 1.25 1.25 0 0 1 1.367 1.842c-.066.114-.212.207-.627.373l-.045.018a4 4 0 0 0-.578.267c-.22.132-.503.358-.632.744-.225.677-.376 1.124-.529 1.454-.145.312-.262.447-.382.533s-.284.155-.626.194c-.361.04-.833.042-1.546.042H7.883c-.713 0-1.184-.001-1.545-.042-.342-.04-.507-.107-.627-.194-.12-.086-.237-.221-.382-.533-.153-.33-.303-.777-.529-1.453-.129-.387-.411-.613-.632-.745a4 4 0 0 0-.578-.267l-.045-.018c-.415-.165-.561-.258-.627-.373a1.25 1.25 0 0 1 2.144-1.285l.99 2.341c.058.14.123.293.196.421.077.138.195.309.393.44.197.13.4.173.558.191.147.017.313.017.464.017zm.052-1.5H7.664l-.165-.001-.065-.152-1.01-2.389a1 1 0 0 0-.041-.083 2.74 2.74 0 0 0-.95-.973c.262-.693.465-1.204.668-1.605.24-.475.451-.726.697-.896.247-.171.556-.28 1.085-.339.548-.06 1.254-.062 2.276-.062h3.684c1.023 0 1.728.001 2.276.062.53.06.838.168 1.085.339.246.17.456.421.697.896.204.4.406.912.668 1.604-.382.232-.712.56-.95.974a1 1 0 0 0-.042.083l-1.01 2.39q-.037.09-.065.151z" clip-rule="evenodd"/></svg>