<svg xmlns="http://www.w3.org/2000/svg" fill="none" viewBox="0 0 24 24"><path fill="currentColor" fill-rule="evenodd" d="M12 12a2 2 0 1 1 0-4 2 2 0 0 1 0 4m-8.697 3.889C3 16.393 3 17.096 3 18.5s0 2.107.303 2.611c.132.218.3.406.497.552C4.254 22 4.886 22 6.15 22h11.7c1.264 0 1.896 0 2.35-.337.197-.146.365-.334.497-.552C21 20.607 21 19.904 21 18.5s0-2.107-.303-2.611a1.9 1.9 0 0 0-.497-.552C19.746 15 19.114 15 17.85 15H6.15c-1.264 0-1.896 0-2.35.337a1.9 1.9 0 0 0-.497.552" clip-rule="evenodd" opacity=".4"/><path fill="currentColor" fill-rule="evenodd" d="M17.849 5.715A7.2 7.2 0 0 1 19.25 10c0 1.588-.51 3.056-1.376 4.25H6.126A7.25 7.25 0 0 1 16.84 4.602l-1.48 1.48a.75.75 0 1 0 1.06 1.061zM4.391 14.324a8.75 8.75 0 1 1 15.218 0c.37.06.72.174 1.038.41.279.208.513.47.692.768.235.391.327.821.37 1.286.041.45.041 1.005.041 1.677v.07c0 .672 0 1.228-.041 1.677-.043.465-.135.895-.37 1.286-.18.299-.413.56-.692.767-.374.278-.792.388-1.234.438-.415.047-.925.047-1.522.047H6.109c-.597 0-1.107 0-1.522-.047-.442-.05-.86-.16-1.234-.438a2.7 2.7 0 0 1-.692-.767c-.235-.391-.327-.821-.37-1.287-.041-.448-.041-1.003-.041-1.676v-.07c0-.672 0-1.228.041-1.677.043-.465.135-.895.37-1.286.18-.299.413-.56.692-.767.319-.237.669-.352 1.038-.411M12 8.75a1.25 1.25 0 1 1 0 2.5 1.25 1.25 0 0 1 0-2.5M14.75 10a2.75 2.75 0 1 0-5.5 0 2.75 2.75 0 0 0 5.5 0M4.247 15.94c.08-.06.205-.118.508-.153.321-.036.746-.037 1.395-.037h11.7c.65 0 1.074.001 1.394.037.304.035.43.093.509.152.115.085.218.198.3.336.07.114.129.287.162.65.034.372.035.859.035 1.575s0 1.203-.035 1.575c-.033.363-.093.536-.161.65a1.2 1.2 0 0 1-.301.336c-.08.059-.205.117-.509.152-.32.036-.745.037-1.394.037H6.15c-.65 0-1.074-.001-1.395-.037-.303-.035-.428-.093-.508-.152a1.2 1.2 0 0 1-.3-.336c-.07-.114-.129-.287-.162-.65-.034-.372-.035-.859-.035-1.575s0-1.203.035-1.575c.033-.363.093-.536.161-.65q.127-.206.301-.336M10.25 18a.75.75 0 0 1 .75-.75h2a.75.75 0 0 1 0 1.5h-2a.75.75 0 0 1-.75-.75" clip-rule="evenodd"/></svg>