<svg xmlns="http://www.w3.org/2000/svg" fill="none" viewBox="0 0 24 24"><path fill="currentColor" d="M17 19.503c0-1.255 1.053-2.495 1.792-3.211a1.004 1.004 0 0 1 1.416 0c.739.716 1.792 1.956 1.792 3.211C22 20.734 21.053 22 19.5 22S17 20.734 17 19.503" opacity=".4"/><path fill="currentColor" fill-rule="evenodd" d="M2 1.25a.75.75 0 0 0 0 1.5c3.044 0 5.902.788 8.384 2.17a.75.75 0 0 0 .73-1.31A18.7 18.7 0 0 0 2 1.25m20 3.5c-8.209 0-15.08 5.734-16.823 13.416a.75.75 0 1 1-1.463-.332C5.61 9.484 13.075 3.25 22 3.25a.75.75 0 1 1 0 1.5M9.296 18.214C10.927 12.74 15.997 8.75 22 8.75a.75.75 0 0 0 0-1.5c-6.683 0-12.326 4.444-14.14 10.536a.75.75 0 1 0 1.438.428M22 12.75a9.25 9.25 0 0 0-8.48 5.55.75.75 0 0 1-1.375-.6A10.75 10.75 0 0 1 22 11.25a.75.75 0 0 1 0 1.5m-2.314 4.08a.255.255 0 0 0-.372 0c-.346.336-.75.78-1.063 1.27-.318.497-.501.978-.501 1.403 0 .88.671 1.747 1.75 1.747s1.75-.867 1.75-1.747c0-.425-.183-.906-.5-1.404a7.4 7.4 0 0 0-1.064-1.269m-1.415-1.077a1.754 1.754 0 0 1 2.458 0c.393.38.886.915 1.284 1.538.393.616.737 1.383.737 2.212 0 1.582-1.222 3.247-3.25 3.247s-3.25-1.665-3.25-3.247c0-.83.344-1.596.737-2.212a8.8 8.8 0 0 1 1.284-1.538M2 9.25a.75.75 0 0 0 0 1.5c.813 0 1.601.105 2.351.301a.75.75 0 0 0 .38-1.45A10.8 10.8 0 0 0 2 9.25M1.25 6A.75.75 0 0 1 2 5.25c1.965 0 3.841.385 5.558 1.083a.75.75 0 1 1-.566 1.39A13.2 13.2 0 0 0 2 6.75.75.75 0 0 1 1.25 6" clip-rule="evenodd"/></svg>