<svg xmlns="http://www.w3.org/2000/svg" fill="none" viewBox="0 0 24 24"><path fill="currentColor" d="m19.82 7.017.893 2.4v.003l.216.58H15l1 6H8l1-6H3.07l.217-.583.893-2.4c.544-1.461.815-2.192 1.382-2.604C6.13 4 6.862 4 8.325 4H10l-1 6h6l-1-6h1.674c1.464 0 2.196 0 2.763.413.567.412.84 1.143 1.383 2.604" opacity=".4"/><path fill="currentColor" fill-rule="evenodd" d="M10.013 3.25h5.704c.696 0 1.282 0 1.763.057.513.06.976.192 1.399.5.418.304.695.708.93 1.182.224.452.44 1.03.7 1.73l.928 2.493c.537 1.444.968 2.602 1.173 3.53.211.952.226 1.828-.262 2.603-.497.79-1.29 1.117-2.219 1.264-.888.141-2.058.141-3.494.141H12.75v2.5H15a.75.75 0 0 1 0 1.5H9a.75.75 0 0 1 0-1.5h2.25v-2.5H7.365c-1.437 0-2.606 0-3.495-.141-.928-.147-1.72-.474-2.218-1.264-.488-.775-.474-1.651-.263-2.603.206-.928.637-2.086 1.174-3.53l.928-2.493c.26-.7.475-1.278.7-1.73.235-.474.511-.878.93-1.183.423-.307.886-.439 1.399-.5C7 3.25 7.587 3.25 8.283 3.25zm.623 1.5h2.729l.75 4.5h-4.23zm-2.271 4.5.75-4.5h-.79c-.75 0-1.247.001-1.63.047-.36.042-.547.117-.691.222-.148.108-.291.276-.47.636-.185.374-.374.878-.651 1.624L4.149 9.25zm-4.771 1.5h4.52l-.75 4.5c-1.483 0-2.512-.004-3.258-.122-.732-.117-1.018-.318-1.185-.582-.176-.28-.245-.676-.067-1.48.134-.606.387-1.35.74-2.316m6.041 0h4.73l.75 4.5h-6.23zm6.25 0 .75 4.5c1.484 0 2.513-.004 3.26-.122.731-.117 1.017-.318 1.184-.582.176-.28.245-.676.067-1.48-.134-.606-.387-1.35-.74-2.316zm3.965-1.5-.733-1.971c-.277-.746-.466-1.25-.652-1.624-.178-.36-.32-.528-.469-.636-.144-.105-.33-.18-.692-.222-.382-.046-.88-.047-1.63-.047h-.788l.75 4.5z" clip-rule="evenodd"/></svg>