<svg xmlns="http://www.w3.org/2000/svg" fill="none" viewBox="0 0 24 24"><path fill="currentColor" d="m2.99 15.327 1.066-3c.229-.641.343-.962.6-1.144C4.916 11 5.255 11 5.934 11h12.134c.679 0 1.018 0 1.276.183.258.182.372.503.6 1.144l1.068 3c.433 1.217.65 1.825.351 2.249-.297.424-.94.424-2.227.424H4.865c-1.286 0-1.93 0-2.227-.424-.298-.424-.082-1.032.351-2.249" opacity=".4"/><path fill="currentColor" fill-rule="evenodd" d="M12.75 2a.75.75 0 0 0-1.5 0v.509a3 3 0 0 0-.835.346l-.36-.36a.75.75 0 0 0-1.06 1.06l.36.36a3 3 0 0 0-.346.835H8.5a.75.75 0 0 0 0 1.5h.509q.113.448.346.835l-.36.36a.75.75 0 1 0 1.06 1.06l.36-.36c.257.154.537.272.835.346V9a.75.75 0 0 0 1.5 0v-.509q.448-.113.835-.346l.36.36a.75.75 0 0 0 1.06-1.06l-.36-.36q.233-.387.347-.835h.508a.75.75 0 0 0 0-1.5h-.508a3 3 0 0 0-.347-.835l.36-.36a.75.75 0 1 0-1.06-1.06l-.36.36a3 3 0 0 0-.835-.346zM12 3.917A1.583 1.583 0 0 1 13.583 5.5 1.583 1.583 0 1 1 12 3.917M5.933 10.25h-.035c-.31 0-.6 0-.845.028-.273.03-.56.102-.83.292a1.73 1.73 0 0 0-.552.684 8 8 0 0 0-.31.79l-.011.032-1.068 3-.018.05c-.2.565-.379 1.065-.46 1.477-.088.44-.102.946.22 1.404.321.458.803.616 1.247.682.414.061.943.061 1.54.061h4.435c-.008.338-.03.7-.089 1.066-.087.537-.246 1.032-.52 1.434H2a.75.75 0 0 0 0 1.5h20a.75.75 0 0 0 0-1.5h-6.637c-.274-.402-.433-.897-.52-1.434a8 8 0 0 1-.09-1.066h4.436c.596 0 1.126 0 1.54-.061.444-.066.925-.224 1.247-.682.321-.458.308-.964.22-1.404-.082-.412-.26-.912-.46-1.476l-1.098-3.084a8 8 0 0 0-.31-.789 1.73 1.73 0 0 0-.552-.684 1.7 1.7 0 0 0-.83-.292c-.244-.028-.535-.028-.844-.028zm7.747 11a5.8 5.8 0 0 1-.318-1.195 10 10 0 0 1-.109-1.305h-2.506a10 10 0 0 1-.109 1.305c-.062.384-.16.793-.318 1.195zm-3.68-4h5.073l-.43-2H9.358l-.43 2zm-1.428-5.5h-2.64c-.356 0-.56.001-.71.018a.6.6 0 0 0-.132.027l-.01.01a.6.6 0 0 0-.06.107 7 7 0 0 0-.257.667l-.417 1.171h3.798zm-4.876 3.829.124-.35a.8.8 0 0 0 .18.021h3.822l-.428 2H4.865c-.668 0-1.084-.002-1.375-.045a.8.8 0 0 1-.231-.058l-.006-.003-.002-.008a1 1 0 0 1 .024-.24c.058-.291.196-.686.42-1.317m12.91 1.671-.428-2H20a.8.8 0 0 0 .18-.022l.124.35c.225.632.363 1.027.42 1.317a1 1 0 0 1 .024.24v.009l-.007.003a.8.8 0 0 1-.231.058c-.291.043-.708.045-1.376.045zm-.75-3.5h3.798l-.417-1.171a7 7 0 0 0-.257-.667.6.6 0 0 0-.07-.117l-.012-.005a.6.6 0 0 0-.12-.022 7 7 0 0 0-.71-.018h-2.64zm-6.178 0h4.644l-.428-2h-3.787z" clip-rule="evenodd"/></svg>