<svg xmlns="http://www.w3.org/2000/svg" fill="none" viewBox="0 0 24 24"><path fill="currentColor" fill-rule="evenodd" d="M9.004 9a3 3 0 1 1 6 0zm-4.038 5.514L4.004 17h8v5h4.11c2.69 0 4.034 0 4.632-.879.557-.819.16-1.955-.706-4.121h-8.036v-5H8.697c-1.318 0-1.977 0-2.487.344s-.755.953-1.244 2.17" clip-rule="evenodd" opacity=".4"/><path fill="currentColor" fill-rule="evenodd" d="M11.254 3a.75.75 0 0 0 1.5 0V2a.75.75 0 0 0-1.5 0zm3.75 6.75a.75.75 0 0 1-.75-.75 2.25 2.25 0 0 0-2.25-2.25A2.25 2.25 0 0 0 9.754 9a.75.75 0 0 1-1.5 0 3.754 3.754 0 0 1 3.75-3.75A3.754 3.754 0 0 1 15.754 9a.75.75 0 0 1-.75.75m-3.039 12.999H7.89c-2.856 0-4.43 0-5.25-1.207-.823-1.208-.24-2.661.82-5.297l.003-.011.804-2c.528-1.315.82-2.039 1.521-2.512.7-.472 1.484-.472 2.906-.472h6.614c1.422 0 2.205 0 2.906.472.702.473.993 1.197 1.52 2.51l.001.002.808 2.011c1.06 2.637 1.642 4.089.82 5.297-.82 1.207-2.395 1.207-5.25 1.207h-4.146m-.711-1.499H7.89c-2.268 0-3.636 0-4.01-.551-.314-.459-.008-1.42.593-2.949h6.78zM5.66 14.793l-.585 1.457h6.18v-3.501h-2.56c-1.212 0-1.76.009-2.068.216-.307.207-.518.71-.967 1.828m7.096 6.457v-3.5h6.775c.601 1.53.906 2.49.594 2.949-.375.551-1.744.551-4.01.551zm0-5h6.176l-.586-1.457c-.449-1.118-.66-1.621-.967-1.828-.308-.208-.825-.216-2.068-.216h-2.555zm6.25-6.5h-1a.75.75 0 0 1 0-1.5h1a.75.75 0 0 1 0 1.5m-14 0h1a.75.75 0 0 0 0-1.5h-1a.75.75 0 0 0 0 1.5m11.242-4.245a.75.75 0 0 1-.53-1.281l.707-.707a.75.75 0 1 1 1.06 1.06l-.706.708a.75.75 0 0 1-.53.22zm-9.017-.22c.146.147.338.22.53.22h.001a.75.75 0 0 0 .53-1.281l-.707-.707a.75.75 0 1 0-1.06 1.06z" clip-rule="evenodd"/></svg>