<svg xmlns="http://www.w3.org/2000/svg" fill="none" viewBox="0 0 24 24"><path fill="currentColor" fill-rule="evenodd" d="M2.25 9c0 .414.336.75.75.75h7a.75.75 0 0 0 0-1.5H3a.75.75 0 0 0-.75.75m0 6c0 .414.336.75.75.75h11a.75.75 0 0 0 0-1.5H3a.75.75 0 0 0-.75.75M3 21.75a.75.75 0 0 1 0-1.5h16a.75.75 0 0 1 0 1.5z" clip-rule="evenodd"/><path fill="currentColor" fill-rule="evenodd" d="M18.5 15.75a.75.75 0 0 0 .75-.75V4.538l.006.007c.21.249.417.512.61.757l.045.057c.192.245.394.502.551.664a.75.75 0 1 0 1.076-1.046 9 9 0 0 1-.495-.604c-.19-.242-.413-.526-.642-.797a7.4 7.4 0 0 0-.798-.827 2.7 2.7 0 0 0-.46-.324 1.4 1.4 0 0 0-.643-.175c-.258 0-.48.089-.642.175-.168.09-.323.206-.461.324a7.4 7.4 0 0 0-.797.827c-.23.27-.453.555-.643.797l-.047.06a9 9 0 0 1-.448.544.75.75 0 1 0 1.076 1.046 9 9 0 0 0 .596-.72c.193-.246.4-.51.61-.758l.006-.007V15c0 .414.336.75.75.75" clip-rule="evenodd" opacity=".4"/></svg>