<svg xmlns="http://www.w3.org/2000/svg" fill="none" viewBox="0 0 24 24"><path fill="currentColor" d="M2.5 12c0-4.478 0-6.718 1.391-8.109S7.521 2.5 12 2.5c4.478 0 6.718 0 8.109 1.391S21.5 7.521 21.5 12c0 4.478 0 6.718-1.391 8.109S16.479 21.5 12 21.5c-4.478 0-6.718 0-8.109-1.391S2.5 16.479 2.5 12" opacity=".4"/><path fill="currentColor" fill-rule="evenodd" d="M12.057 1.75h-.114c-2.19 0-3.912 0-5.255.18-1.377.186-2.469.573-3.327 1.43-.858.86-1.245 1.951-1.43 3.328-.181 1.343-.181 3.064-.181 5.255v.114c0 2.19 0 3.912.18 5.255.186 1.377.573 2.469 1.43 3.327.86.858 1.951 1.245 3.328 1.43 1.343.181 3.064.181 5.255.181h.114c2.19 0 3.912 0 5.255-.18 1.377-.186 2.469-.573 3.327-1.43.858-.86 1.245-1.951 1.43-3.328.181-1.343.181-3.064.181-5.255v-.114c0-2.19 0-3.912-.18-5.255-.186-1.377-.573-2.469-1.43-3.327-.86-.858-1.951-1.245-3.328-1.43-1.343-.181-3.064-.181-5.255-.181M4.422 4.422c.533-.533 1.256-.842 2.466-1.005C8.12 3.252 9.74 3.25 12 3.25s3.88.002 5.112.167c1.21.163 1.933.472 2.466 1.005s.842 1.256 1.005 2.466c.165 1.232.167 2.852.167 5.112s-.002 3.88-.167 5.112c-.163 1.21-.471 1.933-1.005 2.466s-1.256.842-2.466 1.005c-1.232.165-2.852.167-5.112.167s-3.88-.002-5.112-.167c-1.21-.163-1.933-.471-2.466-1.005s-.842-1.256-1.005-2.466C3.252 15.88 3.25 14.26 3.25 12s.002-3.88.167-5.112c.163-1.21.472-1.933 1.005-2.466m10.882 4.275a1.4 1.4 0 0 0-.584-.333 2.7 2.7 0 0 0-.563-.1 7.5 7.5 0 0 0-1.17.022 28 28 0 0 0-1.038.112l-.077.009q-.523.065-.718.07a.75.75 0 1 0 .022 1.5c.229-.003.559-.043.875-.08l.073-.01c.317-.038.655-.079.987-.106l.051-.004L8.47 14.47a.75.75 0 1 0 1.06 1.06l4.693-4.692-.004.05c-.027.333-.068.671-.106.988l-.01.073a10 10 0 0 0-.08.875.75.75 0 1 0 1.5.022 9 9 0 0 1 .07-.718l.01-.077c.037-.312.081-.678.11-1.039.033-.387.052-.802.022-1.17a2.7 2.7 0 0 0-.099-.562 1.4 1.4 0 0 0-.332-.583" clip-rule="evenodd"/></svg>