<svg xmlns="http://www.w3.org/2000/svg" fill="none" viewBox="0 0 24 24"><path fill="currentColor" d="M12 22c5.52 0 10-4.477 10-10S17.52 2 12 2 2 6.477 2 12s4.48 10 10 10" opacity=".4"/><path fill="currentColor" fill-rule="evenodd" d="M1.25 12c0 5.928 4.822 10.75 10.75 10.75S22.75 17.928 22.75 12 17.928 1.25 12 1.25 1.25 6.072 1.25 12m1.5 0c0-5.1 4.15-9.25 9.25-9.25S21.25 6.9 21.25 12 17.1 21.25 12 21.25 2.75 17.1 2.75 12m6.615 3.507c.2.554.62 1.264 1.953 1.264q.168 0 .355-.016a.75.75 0 1 0-.125-1.495c-.656.055-.695-.051-.774-.272l-.491-1.3c.849-1.44 1.324-1.733 1.577-1.721a.75.75 0 1 0 .083-1.497c-.978-.053-1.755.686-2.332 1.482a21 21 0 0 0-.17-.414c-.493-1.158-1.646-1.097-2.2-1.067a.75.75 0 0 0 .06 1.498h.02c.657-.035.693.05.739.156.122.287.337.837.56 1.415-.358.566-1.104 1.717-1.605 1.717H6.99a.75.75 0 0 0-.017 1.5h.042v-.001c.94 0 1.682-.724 2.257-1.498zm5.215-3.546h2.41v-.001a.75.75 0 0 0 .061-1.498c.287-.234.69-.675.69-1.392 0-.983-.852-1.814-1.95-1.814-1.1 0-1.961.799-1.961 1.82a.75.75 0 0 0 1.5 0c0-.21.267-.32.46-.32.244 0 .45.193.45.314 0 .112-.05.176-.25.313l-.044.03c-.212.142-1.762 1.16-1.778 1.17a.75.75 0 0 0 .412 1.378" clip-rule="evenodd"/></svg>