<svg xmlns="http://www.w3.org/2000/svg" fill="none" viewBox="0 0 24 24"><path fill="currentColor" d="M2.5 12c0-4.478 0-6.718 1.391-8.109S7.521 2.5 12 2.5c4.478 0 6.718 0 8.109 1.391S21.5 7.521 21.5 12c0 4.478 0 6.718-1.391 8.109S16.479 21.5 12 21.5c-4.478 0-6.718 0-8.109-1.391S2.5 16.479 2.5 12" opacity=".4"/><path fill="currentColor" fill-rule="evenodd" d="M12.057 1.75h-.114c-2.19 0-3.912 0-5.255.18-1.377.186-2.469.573-3.327 1.43-.858.86-1.245 1.951-1.43 3.328-.181 1.343-.181 3.064-.181 5.255v.114c0 2.19 0 3.912.18 5.255.186 1.377.573 2.469 1.43 3.327.86.858 1.951 1.245 3.328 1.43 1.343.181 3.064.181 5.255.181h.114c2.19 0 3.912 0 5.255-.18 1.377-.186 2.469-.573 3.327-1.43.858-.86 1.245-1.951 1.43-3.328.181-1.343.181-3.064.181-5.255v-.114c0-2.19 0-3.912-.18-5.255-.186-1.377-.573-2.469-1.43-3.327-.86-.858-1.951-1.245-3.328-1.43-1.343-.181-3.064-.181-5.255-.181M4.422 4.422c.533-.533 1.256-.842 2.466-1.005C8.12 3.252 9.74 3.25 12 3.25s3.88.002 5.112.167c1.21.163 1.933.472 2.466 1.005s.842 1.256 1.005 2.466c.165 1.232.167 2.852.167 5.112s-.002 3.88-.167 5.112c-.163 1.21-.471 1.933-1.005 2.466s-1.256.842-2.466 1.005c-1.232.165-2.852.167-5.112.167s-3.88-.002-5.112-.167c-1.21-.163-1.933-.471-2.466-1.005s-.842-1.256-1.005-2.466C3.252 15.88 3.25 14.26 3.25 12s.002-3.88.167-5.112c.163-1.21.472-1.933 1.005-2.466m11.057 6.95a.75.75 0 1 0 1.042-1.078L14.407 8.25l-.034-.033c-.415-.402-.78-.753-1.111-.998-.36-.265-.764-.469-1.262-.469s-.902.204-1.262.469c-.332.245-.696.596-1.11.998l-2.15 2.077a.75.75 0 1 0 1.043 1.079l2.115-2.045c.46-.444.751-.724.993-.902.223-.165.317-.176.371-.176s.148.011.371.176c.242.178.534.458.993.902zm0 5.667a.75.75 0 1 0 1.042-1.078l-2.148-2.077c-.415-.402-.78-.754-1.111-.999-.36-.265-.764-.468-1.262-.468s-.902.203-1.262.468c-.332.245-.696.597-1.11.999l-.035.033L7.48 15.96a.75.75 0 1 0 1.042 1.078l2.115-2.044c.46-.444.751-.724.993-.902.223-.165.317-.176.371-.176s.148.01.371.175c.242.179.534.459.993.903z" clip-rule="evenodd"/></svg>