<svg xmlns="http://www.w3.org/2000/svg" fill="none" viewBox="0 0 24 24"><path fill="currentColor" fill-rule="evenodd" d="M11.077 6c3.065.01 4.698.106 5.752 1.061 1.09.99 1.166 2.54 1.171 5.51v2.858c-.005 2.968-.08 4.519-1.171 5.508-1.093.992-2.809 1.058-6.099 1.062H9.271c-3.29-.004-5.005-.07-6.098-1.062-1.051-.953-1.16-2.426-1.171-5.184v-3.507c.011-2.758.12-4.232 1.17-5.185 1.055-.955 2.688-1.051 5.753-1.06zm-1.773 4.578L8.6 11.996a.87.87 0 0 1-.564.425l-1.276.212c-.815.137-1.003.734-.42 1.323l.992 1a.88.88 0 0 1 .208.73l-.284 1.238c-.224.976.296 1.36 1.152.847l1.196-.714a.86.86 0 0 1 .792 0l1.196.714c.86.512 1.376.133 1.152-.847l-.284-1.237a.88.88 0 0 1 .208-.73l.992-1c.588-.59.396-1.187-.42-1.324l-1.276-.212a.87.87 0 0 1-.568-.425l-.704-1.418c-.38-.772-1.004-.772-1.388 0" clip-rule="evenodd" opacity=".4"/><path fill="currentColor" fill-rule="evenodd" d="M18.478 1.388c1.16.142 2.102.439 2.852 1.119.761.689 1.103 1.572 1.264 2.657.141.956.153 2.152.154 3.621v2.022c0 1.658 0 2.986-.154 4.029-.16 1.085-.503 1.968-1.264 2.657-.716.65-1.609.951-2.703 1.1q-.014.123-.033.243c-.16 1.085-.502 1.968-1.263 2.657-.75.68-1.692.977-2.852 1.119-1.047.127-2.364.137-4.01.138h-.522c-1.842 0-3.293 0-4.428-.138-1.16-.142-2.102-.439-2.852-1.119-.76-.689-1.103-1.572-1.263-2.657-.129-.87-.15-1.936-.154-3.227V12.39c.004-1.29.025-2.358.154-3.227.16-1.085.502-1.968 1.263-2.657.717-.651 1.611-.951 2.703-1.099.145-1.195.478-2.159 1.296-2.901.75-.68 1.692-.977 2.852-1.119.96-.117 2.148-.135 3.606-.138h1.749c1.458.003 2.645.021 3.605.138M10.733 6.75H9.266c-1.529.003-2.67.018-3.565.127-1.019.124-1.605.359-2.027.741-.41.373-.655.876-.787 1.766-.116.788-.134 1.795-.137 3.158v2.916c.003 1.363.02 2.37.137 3.158.132.89.376 1.393.787 1.766.422.382 1.008.617 2.027.741.896.11 2.036.124 3.565.127h1.467c1.528-.003 2.669-.018 3.564-.127 1.02-.124 1.605-.359 2.027-.741.411-.373.655-.876.787-1.766.127-.854.137-1.965.138-3.506v-1.856c0-1.733-.002-2.95-.138-3.87-.132-.89-.376-1.393-.787-1.766-.422-.382-1.008-.617-2.027-.741-.895-.11-2.036-.124-3.564-.127m3.999-4h-1.467c-1.529.003-2.67.018-3.565.127-1.019.124-1.605.359-2.026.741-.394.357-.636.836-.772 1.667.871-.035 1.88-.035 3.045-.035h.927c1.458.003 2.645.021 3.605.138 1.16.142 2.102.439 2.852 1.119.761.689 1.103 1.572 1.263 2.657.155 1.043.155 2.371.155 4.029v2.103c0 .64-.003 1.225-.019 1.763.758-.135 1.234-.352 1.593-.677.411-.373.655-.876.787-1.766.136-.92.138-2.137.138-3.87V8.89c0-1.541-.011-2.652-.138-3.506-.132-.89-.376-1.393-.787-1.766-.422-.382-1.008-.617-2.026-.741-.896-.11-2.037-.124-3.565-.127m-4.734 6.5c.671 0 1.121.503 1.364.995l.001.001.695 1.402.006.006.017.014.018.012.008.004 1.255.211c.54.09 1.128.38 1.327 1.003.198.623-.112 1.199-.5 1.588v.001l-.976.984-.012.032a.1.1 0 0 0-.007.037l.28 1.218c.125.551.137 1.317-.457 1.754-.598.44-1.326.193-1.81-.096l-1.178-.702-.008-.002-.02-.001-.024.002-.01.001-1.176.702c-.487.291-1.213.534-1.81.095-.593-.437-.585-1.2-.458-1.754l.28-1.217a.3.3 0 0 0-.019-.069l-.978-.986c-.385-.388-.694-.964-.497-1.585.197-.624.785-.914 1.326-1.005l1.25-.21.008-.004.018-.012.017-.014.006-.006.697-1.406c.245-.491.696-.993 1.367-.993m-.002 1.619-.023.043-.702 1.416a1.5 1.5 0 0 1-.462.542 1.55 1.55 0 0 1-.648.29h-.003l-1.275.214-.054.01.042.045.992 1c.196.197.313.445.375.664.063.22.092.489.033.757l-.002.005-.284 1.238-.013.064.05-.029 1.201-.717c.251-.147.534-.2.777-.2.241 0 .526.052.778.203l1.196.713.05.029-.013-.063-.285-1.243a1.55 1.55 0 0 1 .032-.757c.062-.219.18-.467.375-.664l.992-1 .042-.045-.053-.01-1.276-.214a1.55 1.55 0 0 1-.653-.289 1.55 1.55 0 0 1-.464-.543l-.703-1.417z" clip-rule="evenodd"/></svg>