<svg xmlns="http://www.w3.org/2000/svg" fill="none" viewBox="0 0 24 24"><path fill="currentColor" fill-rule="evenodd" d="M22 12c0 5.523-4.477 10-10 10S2 17.523 2 12 6.477 2 12 2s10 4.477 10 10M7.518 5.433l.528 1.065c.072.148.264.29.426.317l.957.16c.612.104.756.551.315.993L9 8.718a.66.66 0 0 0-.156.547l.213.929c.168.735-.219 1.019-.864.635l-.897-.535a.64.64 0 0 0-.594 0l-.897.535c-.641.384-1.031.097-.863-.635l.213-.929a.66.66 0 0 0-.156-.547l-.744-.75c-.438-.442-.297-.89.315-.992l.957-.16a.65.65 0 0 0 .422-.318l.528-1.065c.288-.577.756-.577 1.041 0m10.528 1.065-.528-1.065c-.285-.577-.753-.577-1.04 0l-.529 1.065a.65.65 0 0 1-.422.317l-.957.16c-.612.104-.753.551-.315.993l.744.75a.66.66 0 0 1 .156.547l-.213.929c-.168.732.222 1.019.864.635l.896-.535a.64.64 0 0 1 .594 0l.897.535c.645.384 1.032.1.864-.635l-.213-.929A.66.66 0 0 1 19 8.718l.744-.75c.441-.442.297-.89-.315-.992l-.957-.16a.65.65 0 0 1-.426-.318" clip-rule="evenodd" opacity=".4"/><path fill="currentColor" fill-rule="evenodd" d="M12 2.75c-1.14 0-2.23.206-3.237.582a.75.75 0 1 1-.526-1.405A10.7 10.7 0 0 1 12 1.25c1.322 0 2.59.24 3.762.677a.75.75 0 0 1-.524 1.405A9.2 9.2 0 0 0 12 2.75m-10 8.5a.75.75 0 0 1 .75.75 9.25 9.25 0 0 0 18.5 0 .75.75 0 0 1 1.5 0c0 5.937-4.813 10.75-10.75 10.75S1.25 17.937 1.25 12a.75.75 0 0 1 .75-.75m4.998-5.178-.376.757c-.102.21-.26.367-.402.474a1.34 1.34 0 0 1-.567.252H5.65l-.642.108.523.527c.175.176.276.392.329.579s.08.42.027.659l-.001.005-.127.55.564-.336A1.34 1.34 0 0 1 7 9.471c.206 0 .455.044.68.179l.56.333-.128-.555a1.36 1.36 0 0 1 .027-.66c.053-.186.154-.402.329-.578l.522-.527-.642-.108a1.35 1.35 0 0 1-.57-.251 1.34 1.34 0 0 1-.405-.475zM8.19 5.1c-.195-.395-.582-.85-1.19-.85s-.996.454-1.193.849V5.1l-.492.99-.868.146c-.44.074-.964.318-1.143.882-.177.562.107 1.063.42 1.378l.68.687-.192.843c-.1.431-.127 1.11.414 1.508.545.4 1.185.166 1.565-.061L7 10.99l.809.483c.378.225 1.02.463 1.565.062.543-.398.512-1.08.414-1.508l-.193-.844.68-.685v-.001c.315-.315.6-.818.421-1.38-.18-.564-.704-.807-1.143-.88l-.872-.147zm8.808.97-.376.758c-.102.21-.26.367-.402.474a1.34 1.34 0 0 1-.567.252h-.003l-.642.108.523.527c.175.176.276.392.329.579s.08.42.027.659l-.001.005-.127.55.564-.336A1.34 1.34 0 0 1 17 9.47c.206 0 .455.044.68.179l.56.333-.128-.555a1.36 1.36 0 0 1 .027-.66 1.35 1.35 0 0 1 .329-.578l.522-.527-.642-.108a1.35 1.35 0 0 1-.57-.251 1.34 1.34 0 0 1-.405-.475zm1.193-.97c-.196-.396-.583-.851-1.192-.851-.608 0-.996.454-1.193.849V5.1l-.492.99-.868.146c-.44.074-.964.318-1.143.882-.177.562.107 1.063.42 1.378l.68.687-.192.843c-.1.431-.127 1.11.414 1.508.545.4 1.185.166 1.565-.061l.81-.483.809.483c.378.225 1.02.463 1.565.062.543-.398.512-1.08.414-1.508l-.193-.844.68-.685v-.001c.315-.315.6-.818.421-1.38-.18-.564-.704-.807-1.143-.88l-.872-.147zM8.6 14.55a.75.75 0 0 0-1.2.9 5.74 5.74 0 0 0 4.6 2.3 5.74 5.74 0 0 0 4.6-2.3.75.75 0 1 0-1.2-.9 4.24 4.24 0 0 1-3.4 1.7 4.24 4.24 0 0 1-3.4-1.7" clip-rule="evenodd"/></svg>