<svg xmlns="http://www.w3.org/2000/svg" fill="none" viewBox="0 0 24 24"><path fill="currentColor" fill-rule="evenodd" d="M17.432 3.51a.75.75 0 0 1 1.058-.078l1.84 1.586.035.03c.356.307.68.586.907.842.245.277.478.636.478 1.11s-.233.833-.479 1.11c-.227.256-.55.535-.906.841l-.035.031-1.84 1.586a.75.75 0 0 1-.98-1.136l1.84-1.586.111-.096c-1.627.002-2.822.015-3.75.14-1.006.135-1.586.389-2.01.812-.422.423-.676 1.003-.811 2.009-.138 1.027-.14 2.382-.14 4.289v3a.75.75 0 0 1-1.5 0v-3.056c0-1.838 0-3.294.153-4.433.158-1.172.49-2.121 1.238-2.87.749-.748 1.698-1.08 2.87-1.238 1.038-.14 2.338-.152 3.95-.153l-.11-.096-1.84-1.586a.75.75 0 0 1-.08-1.058M2.25 21a.75.75 0 0 1 .75-.75h6a.75.75 0 0 1 0 1.5H3a.75.75 0 0 1-.75-.75M15 20.25a.75.75 0 0 0 0 1.5h6a.75.75 0 0 0 0-1.5z" clip-rule="evenodd" opacity=".4"/></svg>