<svg xmlns="http://www.w3.org/2000/svg" fill="none" viewBox="0 0 24 24"><path fill="currentColor" d="m11.716 2.014-4.423-.013c-2.502-.007-3.753-.01-4.528.727s-.771 1.928-.764 4.31l.018 5.893c.008 2.381.011 3.572.79 4.314.78.742 2.031.746 4.533.753l.681.002.054-.078-1.442-5.317c-.59-2.179-.886-3.268-.367-4.13.52-.863 1.651-1.163 3.914-1.762l4-1.06c1.214-.32 2.103-.556 2.802-.629L17 5.001c-.064-1.073-.243-1.749-.752-2.233-.78-.742-2.03-.746-4.532-.754" opacity=".4"/><path fill="currentColor" fill-rule="evenodd" d="M11.77 1.265 7.244 1.25c-1.207-.003-2.185-.006-2.955.09-.8.1-1.488.318-2.04.844-.558.53-.794 1.2-.902 1.978-.102.74-.1 1.678-.096 2.82l.019 6.006c.003 1.143.006 2.08.113 2.82.112.779.352 1.448.91 1.98.552.525 1.24.747 2.04.852.77.1 1.748.103 2.955.107h.237c.224.82.425 1.508.658 2.054.293.688.678 1.251 1.324 1.608.64.355 1.33.391 2.084.293.725-.095 1.613-.33 2.701-.619l2.496-.66.055-.015c.32-.084.589-.155.835-.284.247-.13.457-.31.706-.524l.043-.037 2.77-2.377c.352-.302.657-.564.888-.807.248-.26.457-.546.573-.912.116-.367.108-.72.052-1.073-.052-.326-.155-.706-.273-1.14l-1.491-5.5c-.283-1.044-.516-1.903-.795-2.557-.294-.688-.679-1.251-1.324-1.608a2.7 2.7 0 0 0-1.143-.33c-.11-.804-.348-1.493-.918-2.036-.553-.526-1.24-.747-2.04-.852-.771-.1-1.749-.104-2.956-.107m4.417 3.125c-.087-.58-.237-.87-.456-1.08-.227-.215-.554-.366-1.2-.45-.664-.088-1.546-.092-2.817-.095L7.29 2.75c-1.271-.003-2.153-.004-2.816.079-.646.08-.97.23-1.193.441-.217.207-.366.5-.449 1.098-.086.623-.085 1.453-.082 2.666l.018 5.893c.004 1.213.008 2.044.098 2.667.087.598.238.896.46 1.107.227.216.554.367 1.2.451.624.082 1.44.09 2.59.094l-1.22-4.5c-.283-1.043-.516-1.902-.606-2.606-.094-.741-.046-1.422.335-2.053.377-.628.958-1 1.662-1.288.676-.276 1.563-.51 2.652-.799l4.1-1.086c.826-.218 1.536-.406 2.147-.525m.75 1.395c-.618.08-1.411.289-2.562.594l-4 1.059c-1.152.305-1.945.516-2.52.751-.558.228-.802.437-.944.672-.14.231-.203.527-.132 1.09.075.59.279 1.347.58 2.457L8.82 17.8c.301 1.11.508 1.867.741 2.414.224.524.43.75.67.884.247.136.567.195 1.165.117.617-.08 1.41-.29 2.562-.594l1.967-.52.043-.256c.078-.453.196-1.066.358-1.703.161-.632.372-1.314.64-1.89.247-.531.626-1.16 1.22-1.433 1.035-.477 2.145-.195 2.874.098h.002l-.083-.304L19.512 9.2c-.3-1.11-.508-1.867-.741-2.414-.224-.524-.43-.75-.67-.884-.246-.136-.566-.195-1.165-.117" clip-rule="evenodd"/></svg>