<svg xmlns="http://www.w3.org/2000/svg" fill="none" viewBox="0 0 24 24"><path fill="currentColor" d="M7.25 10c-.555.612-1.38 1-2.302 1a3.13 3.13 0 0 1-1.949-.67V15c0 2.828 0 4.243.879 5.121C4.756 21 6.17 21 8.999 21h6c2.828 0 4.243 0 5.121-.879.88-.878.88-2.293.88-5.121v-4.67a3.13 3.13 0 0 1-1.949.67 3.1 3.1 0 0 1-2.301-1h-1.934c-.74.62-1.73 1-2.816 1a4.38 4.38 0 0 1-2.816-1z" opacity=".4"/><path fill="currentColor" fill-rule="evenodd" d="M17.841 2.751c.097-.006.312.01.568.091a1.8 1.8 0 0 1 .678.375c.058.054.115.143.163.316.05.18.073.381.104.652l.003.027c.121 1.052.497 2.07 1.36 3.12.452.553.55 1.015.527 1.345a1.14 1.14 0 0 1-.359.766c-.599.533-1.53 1.116-2.546.718-.61-.239-.94-.5-1.142-.786-.209-.292-.343-.69-.414-1.312a.75.75 0 0 0-1.474-.092c-.095.39-.363.863-.773 1.283-.408.417-.907.733-1.412.866-.555.146-1.475.219-2.344-.064-.831-.27-1.643-.87-2.08-2.15a.75.75 0 0 0-1.46.242c0 .882-.758 2.162-2.331 2.142a3.6 3.6 0 0 1-1.016-.269c-.386-.17-.664-.387-.802-.628-.3-.529-.353-.723-.337-.904.02-.219.154-.568.685-1.328.563-.805.887-1.455 1.068-2.005.184-.561.208-.988.208-1.317 0-.165.067-.456.26-.683.165-.192.478-.41 1.137-.377l.039.001 11.645-.028zm2.855.383a2.13 2.13 0 0 0-.59-1.018c-.741-.685-1.758-.892-2.333-.864L6.165 1.28c-1.068-.047-1.84.328-2.33.903a2.63 2.63 0 0 0-.62 1.656c0 .228-.014.485-.133.85-.124.375-.37.893-.873 1.613-.534.764-.892 1.403-.949 2.056-.06.69.228 1.25.528 1.777.127.223.284.416.458.582v4.34c0 1.369 0 2.472.117 3.34.12.9.38 1.658.981 2.26.602.602 1.36.861 2.26.983.867.116 1.97.116 3.337.116h3.555a.75.75 0 0 0 0-1.5h-3.5c-1.435 0-2.436-.002-3.192-.103-.733-.099-1.122-.28-1.399-.556-.277-.277-.457-.666-.556-1.4-.101-.756-.103-1.758-.103-3.194v-3.436a5 5 0 0 0 1.105.222c1.61.035 2.713-.773 3.322-1.758a4.55 4.55 0 0 0 2.143 1.451c1.202.392 2.424.29 3.19.088.818-.215 1.546-.698 2.102-1.268q.123-.124.235-.257.062.102.132.2c.422.593 1.028 1.004 1.817 1.313.917.36 1.758.27 2.454.016v1.428a.75.75 0 0 0 1.5 0v-2.32q.075-.063.136-.118a2.64 2.64 0 0 0 .858-1.78c.055-.766-.204-1.599-.865-2.403-.674-.821-.939-1.566-1.028-2.34l-.007-.06c-.027-.238-.062-.55-.144-.847m-13.7 13.108a.75.75 0 0 0 0 1.5h4a.75.75 0 0 0 0-1.5zm8.47-.773a.75.75 0 0 1 1.06 0l2.47 2.472 2.47-2.471a.75.75 0 0 1 1.06 1.06l-2.47 2.472 2.47 2.471a.75.75 0 0 1-1.06 1.06l-2.47-2.47-2.47 2.47a.75.75 0 0 1-1.06-1.06l2.47-2.471-2.47-2.472a.75.75 0 0 1 0-1.06" clip-rule="evenodd"/></svg>