<svg xmlns="http://www.w3.org/2000/svg" fill="none" viewBox="0 0 24 24"><path fill="currentColor" d="M3.31 10H3v5c0 2.828 0 4.243.879 5.121C4.756 21 6.17 21 8.999 21h6c2.828 0 4.243 0 5.121-.879.88-.878.88-2.293.88-5.121v-5h-.312c-.84.62-1.913.996-2.933.996A4.03 4.03 0 0 1 15.093 10h-.396c-.424.419-1.34.996-2.699.996A4.03 4.03 0 0 1 9.338 10h-.446c-1.044.862-2.182 1.028-2.648.996-1.02 0-2.094-.376-2.933-.996" opacity=".4"/><path fill="currentColor" fill-rule="evenodd" d="m16.631 1.255-.513.002c-1.311.006-2.74.01-3.633-.003H5.468c-.176 0-.518.004-.882.07-.343.063-.828.203-1.19.562a2.6 2.6 0 0 0-.424.592 7 7 0 0 0-.307.65c-.174.418-.317.845-.4 1.095l-.009.023-.678 1.964c-.107.285-.22.723-.281 1.16a4.5 4.5 0 0 0-.047.698c.004.224.033.491.132.739.16.395.508.814.794 1.118l.04.043v5.087c0 1.367 0 2.47.116 3.337.121.9.38 1.658.982 2.26s1.36.86 2.26.982c.867.116 1.97.116 3.337.116h3.555a.75.75 0 0 0 0-1.5h-3.5c-1.436 0-2.437-.002-3.192-.103-.734-.099-1.122-.28-1.4-.556-.276-.277-.456-.665-.555-1.4-.102-.755-.103-1.756-.103-3.191v-3.854a5.6 5.6 0 0 0 3.228.542 4.24 4.24 0 0 0 2.19-.963 4.8 4.8 0 0 0 2.83.97c.913.012 1.734-.299 2.369-.661q.295-.17.55-.355c.76.641 2.192 1.417 4.315.836a6.6 6.6 0 0 0 1.018-.366V13a.75.75 0 0 0 1.5 0v-2.895a3.9 3.9 0 0 0 1.017-1.884 1 1 0 0 0 .016-.152c0-.464-.144-1.132-.405-1.98-.267-.871-.68-2.002-1.267-3.422l-.02-.043a2.7 2.7 0 0 0-.634-.812 2.2 2.2 0 0 0-1.408-.558c-.348-.007-1.293-.003-2.384.001m-4.646 8.94a3.3 3.3 0 0 1-1.852-.596 5.4 5.4 0 0 0 .693-1.483.75.75 0 1 0-1.446-.4c-.245.886-1.116 2.287-2.63 2.485a4.1 4.1 0 0 1-1.86-.184c-.51-.174-.818-.393-.888-.458a1 1 0 0 0-.087-.07 5 5 0 0 1-.646-.591c-.277-.295-.45-.538-.495-.652a.3.3 0 0 1-.012-.054 1 1 0 0 1-.013-.154 3 3 0 0 1 .033-.46 4.4 4.4 0 0 1 .21-.868l.683-1.978.008-.023c.085-.252.214-.636.367-1.005a5 5 0 0 1 .236-.503c.083-.15.142-.226.166-.25.039-.038.159-.106.405-.151.224-.041.455-.046.611-.046h7c.91.013 2.352.008 3.656.003l.511-.002c1.1-.004 2.021-.008 2.349-.001.17.003.32.074.458.193a1.2 1.2 0 0 1 .26.32c.57 1.381.961 2.456 1.209 3.262.23.752.32 1.218.335 1.466-.132.526-.626 1.575-2.445 2.073-1.4.384-2.328-.048-2.85-.45.19-.31.416-.79.635-1.473a.75.75 0 0 0-1.429-.458c-.266.83-.5 1.183-.549 1.244a4.3 4.3 0 0 1-1.019.8c-.486.277-1.04.471-1.604.464m4.511 5.275a.75.75 0 0 0-1.06 1.06l2.47 2.47-2.47 2.47a.75.75 0 1 0 1.06 1.06l2.47-2.47 2.47 2.47a.75.75 0 0 0 1.06-1.06L20.026 19l2.47-2.47a.75.75 0 0 0-1.06-1.06l-2.47 2.47zM6.216 17a.75.75 0 0 1 .75-.75h4a.75.75 0 0 1 0 1.5h-4a.75.75 0 0 1-.75-.75" clip-rule="evenodd"/></svg>