<svg xmlns="http://www.w3.org/2000/svg" fill="none" viewBox="0 0 24 24"><path fill="currentColor" d="M17.244 4.005v4.5c-4.26-1.72-6.59-1.42-6.7-.36-.12 1.06 1.42 1.68 2.2 1.86 0 0 5.5 1 5.5 5.5s-5 5.5-7.5 5.5c-2 0-4.17-.8-5-1.14v-4.7c.8.46 2.82 1.4 4.5 1.54 2.1.16 2.66-.32 2.8-.94.26-1.11-1.61-1.77-2.8-2.26-3.2-1.2-4.5-2.5-4.5-5 0-4.5 4-5.5 6.5-5.5s4.33.67 5 1" opacity=".4"/><path fill="currentColor" d="M10.744 21.755c-2.13 0-4.41-.84-5.28-1.2a.76.76 0 0 1-.47-.69v-4.7c0-.27.14-.52.37-.65a.77.77 0 0 1 .75 0c.89.51 2.75 1.32 4.19 1.44.56.04 1.9.09 2.01-.36.1-.41-1.54-1.07-2.07-1.29l-.28-.12c-2.97-1.11-4.96-2.51-4.96-5.69 0-4.61 3.75-6.25 7.25-6.25 2.48 0 4.52.68 5.33 1.08.26.13.42.39.42.67v4.5c0 .25-.12.48-.33.62a.73.73 0 0 1-.7.07c-4.06-1.64-5.55-1.12-5.68-.95-.03.36.83.84 1.63 1.03 2.08.38 6.08 2.18 6.08 6.23 0 4.93-5.19 6.25-8.25 6.25zm-4.25-2.4c.97.36 2.68.9 4.25.9.28 0 6.75-.05 6.75-4.75 0-3.81-4.69-4.73-4.89-4.76-1.15-.26-2.99-1.12-2.81-2.68.05-.47.32-.88.76-1.14 1.08-.65 3.21-.46 5.93.5v-2.92c-.84-.32-2.41-.74-4.25-.74-1.35 0-5.75.34-5.75 4.75 0 2.09 1.01 3.17 4.01 4.3l.3.12c1.34.54 3.36 1.36 2.97 3.01-.4 1.76-2.72 1.58-3.59 1.52-1.26-.1-2.66-.61-3.69-1.07v2.97z"/></svg>