<svg xmlns="http://www.w3.org/2000/svg" fill="none" viewBox="0 0 24 24"><path fill="currentColor" d="M19 15V3H5v12c0 2.828 0 4.243.879 5.121C6.757 21 8.172 21 11 21h2c2.828 0 4.243 0 5.121-.879C19 19.243 19 17.828 19 15" opacity=".4"/><path fill="currentColor" fill-rule="evenodd" d="M3 2.25a.75.75 0 0 0 0 1.5h18a.75.75 0 0 0 0-1.5zM5.75 7a.75.75 0 0 0-1.5 0v8.055c0 1.367 0 2.47.117 3.337.12.9.38 1.658.981 2.26.602.602 1.36.86 2.26.982.867.116 1.97.116 3.337.116h2.11c1.367 0 2.47 0 3.337-.116.9-.122 1.658-.38 2.26-.982s.86-1.36.982-2.26c.116-.867.116-1.97.116-3.337V7a.75.75 0 0 0-1.5 0v8c0 1.435-.002 2.436-.103 3.192-.099.734-.28 1.122-.556 1.399-.277.277-.665.457-1.4.556-.754.101-1.756.103-3.191.103h-2c-1.435 0-2.437-.002-3.192-.103-.734-.099-1.122-.28-1.399-.556-.277-.277-.457-.665-.556-1.4-.101-.755-.103-1.756-.103-3.191z" clip-rule="evenodd"/></svg>