<svg xmlns="http://www.w3.org/2000/svg" fill="none" viewBox="0 0 24 24"><path fill="currentColor" fill-rule="evenodd" d="M14.625 5c0-1.414 0-2.121.513-2.56C15.65 2 16.475 2 18.125 2s2.475 0 2.987.44c.513.439.513 1.146.513 2.56s0 2.121-.513 2.56C20.6 8 19.775 8 18.125 8s-2.475 0-2.987-.44c-.513-.439-.513-1.146-.513-2.56m0 14c0-1.414 0-2.121.513-2.56.512-.44 1.337-.44 2.987-.44s2.475 0 2.987.44c.513.439.513 1.146.513 2.56s0 2.121-.513 2.56c-.512.44-1.337.44-2.987.44s-2.475 0-2.987-.44c-.513-.439-.513-1.146-.513-2.56m-8-2a5 5 0 1 0 0-10 5 5 0 0 0 0 10" clip-rule="evenodd" opacity=".4"/><path fill="currentColor" fill-rule="evenodd" d="M18.17 1.25h-.09c-.787 0-1.441 0-1.961.06-.54.062-1.049.2-1.47.56-.437.375-.62.853-.7 1.368-.074.467-.074 1.047-.074 1.707v.11c0 .66 0 1.24.073 1.707.08.515.264.993.701 1.368.421.36.93.498 1.47.56.52.06 1.174.06 1.961.06h.09c.787 0 1.441 0 1.961-.06.54-.062 1.049-.2 1.47-.56.437-.375.62-.853.7-1.368.074-.467.074-1.047.074-1.707v-.11c0-.66 0-1.24-.073-1.707-.08-.515-.264-.993-.701-1.368-.421-.36-.93-.498-1.47-.56-.52-.06-1.174-.06-1.961-.06m-2.544 1.759c.092-.079.252-.161.665-.209.423-.049.99-.05 1.834-.05.843 0 1.41.001 1.834.05.413.048.573.13.665.209.076.064.149.16.196.461.053.337.055.798.055 1.53s-.002 1.193-.055 1.53c-.047.302-.12.397-.196.461-.092.079-.252.162-.665.209-.423.049-.99.05-1.834.05-.843 0-1.41-.001-1.834-.05-.413-.048-.573-.13-.665-.209-.076-.064-.149-.16-.196-.461-.053-.337-.055-.798-.055-1.53s.002-1.193.055-1.53c.047-.302.12-.397.196-.461m4.505 12.3c-.52-.059-1.174-.059-1.961-.059h-.09c-.787 0-1.441 0-1.961.06-.54.062-1.049.2-1.47.56-.437.375-.62.853-.7 1.368-.074.467-.074 1.047-.074 1.707v.11c0 .66 0 1.24.073 1.707.08.515.264.993.701 1.368.421.36.93.498 1.47.56.52.06 1.174.06 1.961.06h.09c.786 0 1.441 0 1.961-.06.54-.062 1.049-.2 1.47-.56.437-.375.62-.853.7-1.368.074-.467.074-1.047.074-1.707v-.11c0-.66 0-1.24-.073-1.707-.08-.515-.264-.993-.701-1.368-.421-.36-.93-.498-1.47-.56m-4.505 1.7c.092-.079.252-.162.665-.209.423-.049.99-.05 1.834-.05.843 0 1.41.001 1.834.05.413.047.573.13.665.209.076.064.149.16.196.461.053.337.055.798.055 1.53s-.002 1.193-.055 1.53c-.047.302-.12.397-.196.461-.092.079-.252.162-.665.209-.423.049-.99.05-1.834.05-.843 0-1.41-.001-1.834-.05-.413-.047-.573-.13-.665-.209-.076-.064-.149-.16-.196-.461-.053-.337-.055-.798-.055-1.53s.002-1.193.055-1.53c.047-.302.12-.397.196-.461M9.248 3.259h2.417a.75.75 0 0 1 0 1.5H9.297c-.424.02-.92.177-1.29.503-.248.22-.47.54-.568 1.019a5.776 5.776 0 0 1 4.966 5.724c0 2.91-2.117 5.34-4.924 5.733.097.47.314.787.557 1.004.364.327.848.482 1.256.5h2.36a.75.75 0 0 1 0 1.5H9.253a3.57 3.57 0 0 1-2.215-.882c-.555-.498-.956-1.2-1.074-2.11-2.848-.355-5.09-2.792-5.09-5.745A5.776 5.776 0 0 1 5.922 6.27c.118-.924.527-1.633 1.093-2.133.682-.6 1.535-.848 2.233-.878m-2.61 4.467a4.273 4.273 0 0 0-4.265 4.28c0 2.359 1.947 4.288 4.307 4.288 2.344 0 4.225-1.913 4.225-4.289a4.273 4.273 0 0 0-4.266-4.28m2.238 3.672a.75.75 0 1 0-1.084-1.037l-1.676 1.754-.574-.591a.75.75 0 0 0-1.076 1.045l.972 1a.95.95 0 0 0 1.367-.004z" clip-rule="evenodd"/></svg>