<svg xmlns="http://www.w3.org/2000/svg" fill="none" viewBox="0 0 24 24"><path fill="currentColor" d="M22 12c0 5.523-4.477 10-10 10S2 17.523 2 12 6.477 2 12 2s10 4.477 10 10" opacity=".4"/><path fill="currentColor" fill-rule="evenodd" d="M2.75 12a9.25 9.25 0 1 1 18.5 0 9.25 9.25 0 0 1-18.5 0M12 1.25C6.063 1.25 1.25 6.063 1.25 12S6.063 22.75 12 22.75 22.75 17.937 22.75 12 17.937 1.25 12 1.25m1.324 7.502h.205c.216-.003.363-.004.505.022.134.025.158.058.176.086a.5.5 0 0 1 .02.102c.014.113.019.273.02.542a.75.75 0 1 0 1.5-.005c0-.26-.005-.507-.031-.723a1.7 1.7 0 0 0-.23-.699c-.308-.502-.775-.702-1.181-.777a4.5 4.5 0 0 0-.862-.049l-.122.001h-2.578c-.508 0-.967 0-1.311.048-.314.044-.904.174-1.12.773-.214.591.142 1.07.35 1.31.23.264.578.568.964.907l.04.035 1.69 1.48q.131.114.22.195c-.06.055-.132.117-.22.195l-1.69 1.48-.04.035c-.386.338-.734.643-.963.907-.209.24-.565.719-.352 1.31.217.599.807.729 1.12.773.345.048.804.048 1.312.047h2.578l.122.002c.227.003.56.007.862-.049.406-.075.873-.275 1.181-.777.142-.231.201-.472.23-.699.027-.216.03-.463.03-.723a.75.75 0 0 0-1.5-.005c0 .268-.005.429-.019.542a.5.5 0 0 1-.02.101c-.018.03-.042.062-.176.087-.142.026-.29.025-.505.023l-.205-.002H10.8c-.255 0-.465 0-.64-.003q.2-.181.498-.44l1.69-1.481.028-.025c.176-.154.362-.318.498-.476.158-.183.333-.453.333-.822s-.175-.64-.333-.823c-.136-.158-.322-.32-.498-.475l-.029-.025-1.69-1.48a37 37 0 0 1-.497-.441q.26-.004.64-.004z" clip-rule="evenodd"/></svg>