<svg xmlns="http://www.w3.org/2000/svg" fill="none" viewBox="0 0 24 24"><path fill="currentColor" fill-rule="evenodd" d="M9.164 2.25h6.008c.733 0 1.337 0 1.825.047.507.048.968.152 1.386.41.387.24.714.561.958.943.265.415.372.872.421 1.374.048.481.048 1.076.048 1.796v.037a.751.751 0 0 1-1.505 0c0-.767 0-1.287-.04-1.687-.038-.387-.107-.58-.193-.714a1.5 1.5 0 0 0-.482-.474c-.14-.086-.34-.154-.737-.192-.408-.04-.939-.04-1.718-.04H9.226c-1.32 0-2.23.002-2.85.085-.308.041-.478.096-.568.142l-.037.022.012.034c.036.09.128.237.333.465.415.46 1.104 1.042 2.107 1.888l3.955 3.333.039.033c.437.368.825.695 1.096.998.293.328.544.728.544 1.25s-.251.923-.544 1.25c-.271.303-.659.63-1.096.998l-3.994 3.366c-1.003.846-1.692 1.429-2.107 1.888-.205.228-.297.376-.333.465L5.77 20q.011.009.037.022c.09.046.26.1.567.142.62.083 1.53.085 2.851.085h5.91c.778 0 1.31 0 1.717-.04.397-.038.598-.106.737-.192.196-.121.36-.283.482-.474.086-.134.155-.327.193-.714.04-.4.04-.92.04-1.687a.752.752 0 0 1 1.505 0v.037c0 .72 0 1.315-.048 1.796-.05.502-.156.96-.42 1.374a3 3 0 0 1-.959.943c-.418.258-.879.362-1.386.41-.488.047-1.092.047-1.825.047H9.164c-1.244 0-2.257 0-2.99-.099-.693-.093-1.515-.318-1.818-1.122-.304-.81.176-1.515.642-2.03.492-.546 1.262-1.194 2.205-1.99l4.003-3.373c.489-.412.793-.67.984-.885.09-.1.13-.164.148-.202.014-.03.014-.041.014-.049s0-.02-.014-.05a1 1 0 0 0-.148-.201c-.191-.215-.495-.473-.984-.885L7.203 7.49C6.26 6.695 5.49 6.047 4.998 5.502c-.466-.516-.946-1.221-.642-2.03.303-.805 1.125-1.03 1.818-1.123.733-.1 1.746-.099 2.99-.099" clip-rule="evenodd" opacity=".4"/></svg>