<svg xmlns="http://www.w3.org/2000/svg" fill="none" viewBox="0 0 24 24"><path fill="currentColor" d="M17 12a5 5 0 1 1-10 0 5 5 0 0 1 10 0" opacity=".4"/><path fill="currentColor" fill-rule="evenodd" d="M12.75 2a.75.75 0 0 0-1.5 0v1.5a.75.75 0 0 0 1.5 0zM5.459 4.398a.75.75 0 1 0-1.06 1.06l1.06 1.062a.75.75 0 0 0 1.06-1.061zM19.602 5.46a.75.75 0 0 0-1.061-1.06l-1.06 1.06a.75.75 0 1 0 1.06 1.06zM2 11.25a.75.75 0 0 0 0 1.5h1.5a.75.75 0 0 0 0-1.5zm18.5 0a.75.75 0 0 0 0 1.5H22a.75.75 0 0 0 0-1.5zm-1.96 6.23a.75.75 0 0 0-1.06 1.061l1.06 1.06a.75.75 0 1 0 1.061-1.06zM6.52 18.541a.75.75 0 0 0-1.06-1.06l-1.061 1.06a.75.75 0 1 0 1.06 1.06zm6.23 1.959a.75.75 0 0 0-1.5 0V22a.75.75 0 0 0 1.5 0zm-5-8.5a4.25 4.25 0 1 1 8.5 0 4.25 4.25 0 0 1-8.5 0M12 6.25a5.75 5.75 0 1 0 0 11.5 5.75 5.75 0 0 0 0-11.5" clip-rule="evenodd"/></svg>