<svg xmlns="http://www.w3.org/2000/svg" fill="none" viewBox="0 0 24 24"><path fill="currentColor" d="M17.5 10.5a5.5 5.5 0 0 0-10.98-.477A5 5 0 0 0 7 20h10.5a4.5 4.5 0 1 0 0-9h-.022q.021-.247.022-.5" opacity=".4"/><path fill="currentColor" fill-rule="evenodd" d="M6.17 1.277a.75.75 0 0 1 .92.526l.074.27a6 6 0 0 1 3.097.404l.232-.398a.75.75 0 1 1 1.295.757l-.225.384c.375.282.717.608 1.017.974a1 1 0 0 1 .063.089 6.256 6.256 0 0 1 5.604 6.029 5.256 5.256 0 0 1 4.503 5.204c0 2.342-1.516 3.989-3.5 4.691a.75.75 0 0 1-.5-1.414c1.511-.535 2.5-1.695 2.5-3.277a3.756 3.756 0 0 0-3.158-3.71c-.21.741-.615 1.278-1.062 1.724a.75.75 0 1 1-1.06-1.06c.418-.42.699-.843.76-1.528q.02-.214.02-.434A4.754 4.754 0 0 0 12 5.75a4.754 4.754 0 0 0-4.588 3.522c.892.063 1.73.331 2.464.756a.75.75 0 0 1-.752 1.298 4.22 4.22 0 0 0-2.532-.55 4.255 4.255 0 0 0-3.842 4.24c0 1.722 1.027 3.116 2.556 3.8a.75.75 0 0 1-.612 1.369c-2.003-.896-3.444-2.786-3.444-5.17 0-1.583.638-3.017 1.671-4.058a6 6 0 0 1-.444-.86l-.285.075a.75.75 0 1 1-.383-1.45l.276-.073a5.75 5.75 0 0 1 .403-3.026l-.395-.225a.75.75 0 1 1 .743-1.303l.41.233a5.9 5.9 0 0 1 2.468-1.87l-.07-.26a.75.75 0 0 1 .526-.921m4.025 2.835q.23.13.44.287a6.26 6.26 0 0 0-4.782 4.973 5.7 5.7 0 0 0-1.737.661 4.3 4.3 0 0 1-.433-1.036 4.27 4.27 0 0 1 .441-3.295A4.4 4.4 0 0 1 6.815 3.67a4.5 4.5 0 0 1 3.363.432zM8.866 15.5a1 1 0 0 0-1.732 1l.005.008a1 1 0 0 0 1.732-1zm7.996 0a1 1 0 0 0-1.732 1l.004.008a1 1 0 1 0 1.732-1zm-3.998 1.997a1 1 0 0 0-1.732 1l.005.009a1 1 0 0 0 1.731-1zm-3.998 1.998a1 1 0 1 0-1.732 1l.005.008a1 1 0 0 0 1.732-1zm7.996 0a1 1 0 0 0-1.732 1l.004.008a1 1 0 1 0 1.732-1zm-3.998 1.997a1 1 0 1 0-1.732 1l.005.008a1 1 0 0 0 1.731-1z" clip-rule="evenodd"/></svg>