<svg xmlns="http://www.w3.org/2000/svg" fill="none" viewBox="0 0 24 24"><path fill="currentColor" d="M12 13a4 4 0 0 0-4 4h8a4 4 0 0 0-4-4" opacity=".4"/><path fill="currentColor" fill-rule="evenodd" d="M10.59 6.36a9 9 0 0 1-.552.663.75.75 0 1 1-1.076-1.046c.089-.091.235-.273.448-.544l.047-.06c.19-.242.413-.526.643-.797a7.4 7.4 0 0 1 .797-.827c.138-.118.293-.234.46-.324A1.4 1.4 0 0 1 12 3.25c.258 0 .48.089.642.175.168.09.323.206.461.324a7 7 0 0 1 .797.827c.23.27.453.555.643.797l.047.06q.318.407.448.544a.75.75 0 1 1-1.076 1.046 9 9 0 0 1-.551-.664l-.045-.057c-.193-.245-.4-.508-.61-.757l-.006-.007V10a.75.75 0 0 1-1.5 0V5.538l-.006.007c-.21.249-.417.512-.61.757zm8.304 3.748a.75.75 0 0 1 0 1.061l-1.415 1.414a.75.75 0 0 1-1.06-1.06l1.414-1.415a.75.75 0 0 1 1.06 0M5 17.75a.75.75 0 0 0 0-1.5H3a.75.75 0 0 0 0 1.5zm2.579-5.173a.75.75 0 0 1-1.06 0l-1.415-1.414a.75.75 0 0 1 1.06-1.06l1.415 1.414a.75.75 0 0 1 0 1.06M21 17.75a.75.75 0 0 0 0-1.5h-2a.75.75 0 0 0 0 1.5zm.75 2.25a.75.75 0 0 1-.75.75H3a.75.75 0 0 1 0-1.5h18a.75.75 0 0 1 .75.75m-13-3a3.25 3.25 0 0 1 6.5 0 .75.75 0 0 0 1.5 0 4.75 4.75 0 1 0-9.5 0 .75.75 0 0 0 1.5 0" clip-rule="evenodd"/></svg>