<svg xmlns="http://www.w3.org/2000/svg" fill="none" viewBox="0 0 24 24"><path fill="currentColor" fill-rule="evenodd" d="M12 2.75a9.24 9.24 0 0 0-7.559 3.917c1.196.823 1.573 2.558 1.118 4.089-.402 1.356-1.412 2.491-2.632 2.864.114.528.283 1.051.505 1.537.227.497.502.939.82 1.307.01-.17.046-.352.139-.534.147-.291.385-.472.575-.599 2.11-1.402 4.835-2.082 7.416-2.081 2.57.002 5.122.681 6.825 2.146.156.134.331.312.44.569.072.172.098.342.102.497.318-.368.593-.81.819-1.305a7.5 7.5 0 0 0 .505-1.537c-1.22-.374-2.23-1.508-2.633-2.864-.454-1.531-.077-3.265 1.12-4.089A9.24 9.24 0 0 0 12 2.75m8.333 5.23c-.478.413-.778 1.26-.454 2.349.258.871.809 1.47 1.37 1.747L21.25 12c0-1.44-.33-2.804-.917-4.02M2.75 12c0-1.44.33-2.804.917-4.02.478.413.778 1.26.454 2.349-.259.872-.81 1.47-1.37 1.747zm-.682 3.781c.533 1.167 1.36 2.242 2.52 2.85.289 1.035.8 2.065 1.731 2.793.63.492 1.538.814 2.495 1.017.975.208 2.084.309 3.182.309s2.206-.1 3.183-.307c.958-.204 1.866-.525 2.498-1.019.925-.723 1.444-1.753 1.736-2.793 1.16-.608 1.986-1.683 2.52-2.85A9.3 9.3 0 0 0 22.75 12c0-5.937-4.813-10.75-10.75-10.75S1.25 6.063 1.25 12c0 1.227.27 2.584.818 3.781m3.729.8c1.818-1.21 4.24-1.832 6.584-1.831 2.356.001 4.51.632 5.848 1.783l.02.017-.002.014c-.116 1.466-.505 2.905-1.494 3.678-.365.286-1.01.548-1.886.733-.856.182-1.858.275-2.871.275s-2.015-.094-2.87-.276c-.875-.186-1.52-.447-1.883-.732-.977-.763-1.349-2.153-1.489-3.608l-.002-.023q.019-.015.045-.03M9 17.25a.75.75 0 0 0 0 1.5h.009a.75.75 0 0 0 0-1.5zm5.991 0a.75.75 0 0 0 0 1.5H15a.75.75 0 0 0 0-1.5zM9.75 7a2.25 2.25 0 1 1 4.5 0 2.25 2.25 0 0 1-4.5 0M12 3.25a3.75 3.75 0 1 0 0 7.5 3.75 3.75 0 0 0 0-7.5" clip-rule="evenodd"/><path fill="currentColor" fill-rule="evenodd" d="M18.72 15.965c-3.043-2.617-9.409-2.62-13.337-.01-.324.217-.41.372-.373.75.044.467.114.953.227 1.43L5.002 18c-1.711-.855-2.69-2.991-2.938-5 1.166.002 2.347-1.007 2.777-2.458C5.328 8.9 4.671 7.314 3.371 7H3.34a10 10 0 0 1 8.662-5 10 10 0 0 1 8.662 5h-.03c-1.3.314-1.959 1.9-1.471 3.542.43 1.45 1.61 2.459 2.776 2.458-.247 2.009-1.226 4.145-2.937 5l-.228.11a10 10 0 0 0 .223-1.486c.024-.307-.039-.454-.277-.66M15.002 7a3 3 0 1 1-6 0 3 3 0 0 1 6 0" clip-rule="evenodd" opacity=".4"/></svg>