<svg xmlns="http://www.w3.org/2000/svg" fill="none" viewBox="0 0 24 24"><path fill="currentColor" fill-rule="evenodd" d="M15 14a5 5 0 1 1 0-10 5 5 0 0 1 0 10m0-3a2 2 0 1 1 0-4 2 2 0 0 1 0 4" clip-rule="evenodd" opacity=".4"/><path fill="currentColor" fill-rule="evenodd" d="M11.7 1.277a.75.75 0 0 0-.923.524l-3.87 14.072-5.106 1.404a.75.75 0 0 0 .398 1.446l20-5.5a.75.75 0 1 0-.398-1.446l-2.137.588a5.75 5.75 0 0 0-8.028-8.028l.587-2.138a.75.75 0 0 0-.524-.922m1.012 13a5.77 5.77 0 0 1-2.988-2.989L8.59 15.41zm-5.688 4a.75.75 0 0 0-.922.524l-.825 3a.75.75 0 0 0 1.446.398l.825-3a.75.75 0 0 0-.524-.922M19.25 9a4.25 4.25 0 1 0-8.5 0 4.25 4.25 0 0 0 8.5 0m-3 0a1.25 1.25 0 1 0-2.5 0 1.25 1.25 0 0 0 2.5 0M15 6.25a2.75 2.75 0 1 1 0 5.5 2.75 2.75 0 0 1 0-5.5" clip-rule="evenodd"/></svg>