<svg xmlns="http://www.w3.org/2000/svg" fill="none" viewBox="0 0 24 24"><path fill="currentColor" d="M18.505 12.178v-.002c0-.975-.706-1.807-1.669-1.967l-1.327-.222v.999a1.997 1.997 0 0 0-1.997-1.997h-.998v.998a1.997 1.997 0 0 0-1.997-1.997h-.999V4.496a1.498 1.498 0 0 0-2.996 0v5.491L5.06 11.36c-1.207 1.333-1.81 2-1.973 2.797q-.076.376-.053.76c.048.811.552 1.553 1.56 3.037l.562.83c.637.937.955 1.406 1.345 1.777a5.1 5.1 0 0 0 2.466 1.296c.53.112 1.104.112 2.252.112 2.05 0 3.075 0 3.899-.286a5.04 5.04 0 0 0 3.097-3.04c.291-.809.291-1.815.291-3.828v-2.637" opacity=".4"/><path fill="currentColor" fill-rule="evenodd" d="M19.027 1.462a.75.75 0 1 0-1.045 1.076c.161.157.418.359.663.55l.056.045c.246.193.508.399.756.61l.005.003H15.01a.75.75 0 0 0 0 1.5h4.452l-.005.004c-.248.21-.51.416-.756.61l-.056.044a9 9 0 0 0-.663.55.75.75 0 0 0 1.045 1.076c.091-.088.273-.234.544-.447l.06-.047c.242-.19.525-.412.796-.641.29-.246.592-.521.826-.797.117-.137.233-.293.323-.46.086-.161.175-.384.175-.642s-.089-.48-.175-.642a2.7 2.7 0 0 0-.323-.46 7 7 0 0 0-.826-.796c-.27-.23-.554-.452-.796-.642l-.06-.047a9 9 0 0 1-.544-.447M7.28 4.478c0-.39.333-.73.754-.73.397 0 .716.315.716.73v6.519q0 .073.014.143a.75.75 0 0 0 1.486-.143v-2.21c.107-.048.295-.081.579.006a1.35 1.35 0 0 1 .93 1.097q.004.041.004.102v1a.75.75 0 0 0 1.5 0v-1q0-.131-.015-.286c.102-.016.261-.017.459.032.537.133.991.518 1.036 1.133v1.118a.75.75 0 0 0 1.5 0v-1.121q.156.028.297.06c.378.089.614.192.771.315.251.196.523.623.42 2.03l-.001.028v3.576c.007.594-.166 1.553-.71 2.408-.523.823-1.401 1.567-2.88 1.8-4.181.414-5.73-.037-6.358-.468-.471-.346-.633-.49-.754-.62a6 6 0 0 1-.229-.267 16 16 0 0 0-.399-.47q.011.012-.024-.036l-.157-.214a40 40 0 0 1-.49-.698 39 39 0 0 1-1.281-1.973c-.496-.83-.673-1.265-.696-1.604-.019-.292.071-.622.485-1.25l.025-.039.018-.037.002-.003q.006-.011.057-.081.07-.096.196-.246c.168-.2.393-.45.658-.73.182-.191.38-.395.587-.603v2.71a.75.75 0 0 0 1.5 0zm2.97 0v2.778c.351-.036.709.007 1.02.104a2.83 2.83 0 0 1 1.388.954c.44-.158.95-.145 1.408-.032a3 3 0 0 1 1.586.98c.432.058.851.118 1.228.206.474.11.95.278 1.354.592.864.675 1.102 1.775.996 3.295v3.508c.01.84-.222 2.093-.944 3.227-.74 1.163-1.987 2.18-3.936 2.481l-.02.003-.02.002c-4.226.42-6.279.04-7.39-.731l-.008-.006-.008-.006c-.494-.362-.75-.574-.972-.812a7 7 0 0 1-.278-.322l-.013-.017c-.096-.116-.206-.25-.365-.43a7 7 0 0 1-.274-.366 45 45 0 0 1-1.841-2.777c-.492-.821-.856-1.537-.905-2.274-.052-.773.246-1.436.708-2.145.1-.18.267-.39.424-.577.192-.229.439-.501.716-.794A37 37 0 0 1 5.78 9.662V4.478c0-1.249 1.035-2.23 2.254-2.23a2.215 2.215 0 0 1 2.216 2.23" clip-rule="evenodd"/></svg>