<svg xmlns="http://www.w3.org/2000/svg" fill="none" viewBox="0 0 24 24"><path fill="currentColor" d="m6.341 19.067-3.004-4.018a1.696 1.696 0 0 1 .033-2.073 1.683 1.683 0 0 1 2.51-.14l1.62 1.626V4.5a1.5 1.5 0 1 1 3 0v4l.578-.289c.277-.139.588-.228.89-.156A2 2 0 0 1 13.5 10a1 1 0 0 1 1-1 2 2 0 0 1 2 2c0-.524.47-.922.986-.836l.343.058a2 2 0 0 1 1.671 1.972v2.473c0 2.173 0 3.26-.331 4.125a5 5 0 0 1-2.867 2.876C15.44 22 14.356 22 12.19 22c-1.137 0-1.705 0-2.233-.117a5 5 0 0 1-2.183-1.094c-.41-.355-.75-.81-1.433-1.722" opacity=".4"/><path fill="currentColor" fill-rule="evenodd" d="M19.023 1.462a.75.75 0 1 0-1.046 1.076 9 9 0 0 0 .664.551l.057.045c.245.193.508.4.757.61l.007.006H15a.75.75 0 0 0 0 1.5h4.462l-.007.006c-.249.21-.512.417-.757.61l-.057.045a9 9 0 0 0-.664.551.75.75 0 1 0 1.046 1.076c.091-.089.273-.235.544-.448l.06-.047c.242-.19.526-.413.797-.643.291-.246.593-.521.828-.797.117-.138.233-.293.323-.46.086-.162.175-.385.175-.643s-.089-.48-.175-.642a2.7 2.7 0 0 0-.323-.461 7.4 7.4 0 0 0-.828-.797c-.27-.23-.555-.453-.797-.643l-.06-.047a9 9 0 0 1-.544-.448M8.25 4.5a.75.75 0 0 1 1.5 0V11a.75.75 0 0 0 1.5 0V8.75h.25c.69 0 1.25.56 1.25 1.25v1a.75.75 0 0 0 1.5 0V9.75h.25c.69 0 1.25.56 1.25 1.25v1a.75.75 0 0 0 1.5 0v-1.115l.456.076a1.25 1.25 0 0 1 1.044 1.233v2.473c0 1.096 0 1.883-.04 2.505-.039.616-.114 1.02-.242 1.352a4.24 4.24 0 0 1-2.436 2.444c-.33.127-.731.203-1.345.242-.62.04-1.404.04-2.497.04-1.17 0-1.642-.004-2.072-.099a4.2 4.2 0 0 1-1.854-.93c-.334-.288-.62-.665-1.322-1.603L3.938 14.6a.946.946 0 0 1 .018-1.156.933.933 0 0 1 1.393-.078l1.62 1.626a.75.75 0 0 0 1.281-.53zm3 0v2.75h.25c.854 0 1.617.39 2.121 1h.879c.86 0 1.627.394 2.13 1.011l1.322.22a2.75 2.75 0 0 1 2.268 2.31q.03.1.03.209v2.693c0 1.064 0 1.9-.043 2.574-.044.687-.134 1.26-.338 1.793a5.74 5.74 0 0 1-3.298 3.308c-.532.205-1.103.295-1.788.339-.674.043-1.506.043-2.567.043h-.12c-1.047 0-1.691 0-2.3-.134a5.7 5.7 0 0 1-2.512-1.26c-.473-.408-.86-.925-1.487-1.766l-.056-.074-3.004-4.018a2.446 2.446 0 0 1 .046-2.99 2.433 2.433 0 0 1 3.628-.2l.339.34V4.5a2.25 2.25 0 0 1 4.5 0" clip-rule="evenodd"/></svg>