<svg xmlns="http://www.w3.org/2000/svg" fill="none" viewBox="0 0 24 24"><path fill="currentColor" d="m21.255 7.134-.494-.857c-.373-.648-.56-.972-.877-1.1-.318-.13-.677-.028-1.395.176l-1.22.343c-.459.106-.94.046-1.359-.169l-.337-.194a2 2 0 0 1-.788-.968l-.334-.997c-.22-.66-.33-.99-.59-1.18C13.598 2 13.25 2 12.556 2h-1.114c-.695 0-1.042 0-1.303.189-.262.189-.371.519-.591 1.179l-.334.997a2 2 0 0 1-.788.968l-.337.194a2 2 0 0 1-1.359.17l-1.22-.344c-.718-.204-1.077-.306-1.395-.177-.317.13-.504.453-.877 1.101l-.494.857c-.35.607-.525.91-.49 1.234.033.323.267.583.736 1.104l1.03 1.153c.253.319.432.875.432 1.375s-.18 1.056-.431 1.375L2.99 14.528c-.469.52-.703.781-.737 1.104s.141.627.491 1.234l.494.857c.373.648.56.972.877 1.1.318.13.677.028 1.395-.176l1.22-.343c.46-.106.94-.046 1.36.169l.336.194c.359.23.635.57.788.968l.334.997c.22.66.33.99.59 1.18.262.188.61.188 1.304.188h1.114c.695 0 1.042 0 1.303-.189.262-.189.372-.518.591-1.178l.334-.998c.153-.399.429-.738.788-.968l.337-.194a2 2 0 0 1 1.359-.17l1.22.344c.718.204 1.077.306 1.395.177.317-.13.504-.453.877-1.101l.494-.857c.35-.607.525-.91.49-1.234-.033-.323-.267-.583-.736-1.104l-1.03-1.153c-.253-.32-.432-.875-.432-1.375s.18-1.056.431-1.375l1.031-1.153c.469-.52.703-.781.737-1.104s-.141-.627-.491-1.234" opacity=".4"/><path fill="currentColor" fill-rule="evenodd" d="M12.593 1.25h-1.186c-.316 0-.614 0-.863.028a1.73 1.73 0 0 0-.843.303 1.73 1.73 0 0 0-.553.705c-.105.227-.2.51-.3.811l-.01.034-.328.979a1.25 1.25 0 0 1-.475.583l-.302.174a1.24 1.24 0 0 1-.817.102l-1.2-.338-.036-.01a8 8 0 0 0-.899-.222c-.294-.047-.615-.053-.947.082-.333.135-.559.364-.737.602-.16.215-.319.491-.49.787l-.018.033-.494.856-.017.03c-.16.278-.31.538-.41.77-.113.259-.195.55-.16.887s.177.605.34.835c.147.206.348.429.561.666l.023.025.001.002 1.011 1.13c.127.172.259.544.259.896s-.132.724-.259.896l-1.01 1.13-.002.002-.023.024c-.213.238-.414.461-.56.667-.164.23-.305.498-.34.835s.047.628.158.887c.101.232.25.492.41.769l.512.887.019.033c.17.296.33.572.49.787.177.238.403.466.736.602s.653.129.947.082c.264-.042.57-.129.899-.222l.035-.01 1.2-.338c.277-.06.565-.024.818.102l.302.174c.214.141.38.345.475.583l.327.98.011.033c.1.3.195.584.3.811.118.254.28.508.553.705.272.197.565.27.843.303.249.028.547.028.863.028h1.186c.316 0 .614 0 .864-.028.277-.032.57-.106.842-.303a1.73 1.73 0 0 0 .553-.705c.105-.227.2-.51.3-.811l.01-.034.329-.979c.094-.239.26-.442.474-.583l.302-.174c.253-.126.541-.162.818-.102l1.2.338.035.01c.328.093.635.18.899.222.294.047.615.053.947-.082.333-.135.559-.364.737-.602.16-.215.32-.491.49-.787l.53-.92c.16-.277.31-.537.41-.77a1.73 1.73 0 0 0 .159-.886 1.73 1.73 0 0 0-.34-.835 8 8 0 0 0-.561-.666l-.023-.025-1.012-1.132c-.127-.172-.259-.544-.259-.896s.133-.725.259-.896l1.011-1.13.001-.002.023-.025c.213-.237.414-.46.56-.666a1.73 1.73 0 0 0 .34-.835 1.73 1.73 0 0 0-.158-.887c-.1-.232-.25-.492-.41-.77l-.53-.919a8 8 0 0 0-.49-.787c-.178-.238-.404-.467-.736-.602-.333-.135-.654-.129-.948-.082-.264.042-.57.129-.899.222l-.035.01-1.2.338c-.277.06-.565.024-.818-.102l-.302-.174a1.25 1.25 0 0 1-.474-.583l-.329-.98-.01-.033c-.1-.3-.195-.584-.3-.811a1.73 1.73 0 0 0-.553-.705 1.7 1.7 0 0 0-.842-.303 8 8 0 0 0-.864-.028m-2.015 1.547.014-.005a.6.6 0 0 1 .122-.023 7 7 0 0 1 .729-.019h1.114c.365 0 .575.001.729.019a.6.6 0 0 1 .135.028h.001l.008.01a.6.6 0 0 1 .061.11c.066.141.133.34.248.687l.34 1.014.006.016a2.75 2.75 0 0 0 1.084 1.33l.014.01.368.212.016.008a2.74 2.74 0 0 0 1.87.233l.018-.004 1.239-.349a8 8 0 0 1 .76-.194.7.7 0 0 1 .147-.01l.001.001.01.008a.6.6 0 0 1 .089.102c.1.134.215.33.41.67l.494.857c.184.319.289.503.351.647a1 1 0 0 1 .042.12l.002.013v.003l-.005.012a.6.6 0 0 1-.066.108c-.09.128-.232.286-.477.56l-.002.001-1.046 1.17-.014.018c-.375.474-.593 1.203-.593 1.84s.218 1.366.593 1.84l.014.018 1.048 1.171c.245.274.387.432.477.56a.6.6 0 0 1 .07.12l.001.002v.001l-.002.014a1 1 0 0 1-.042.119 7 7 0 0 1-.35.647l-.494.857a8 8 0 0 1-.411.67 1 1 0 0 1-.088.102l-.011.008h-.001l-.013.002a1 1 0 0 1-.134-.011 8 8 0 0 1-.76-.194l-1.24-.35-.017-.003a2.74 2.74 0 0 0-1.87.233l-.016.008-.368.212-.014.01a2.75 2.75 0 0 0-1.084 1.33l-.006.015-.34 1.013v.002a7 7 0 0 1-.248.687.6.6 0 0 1-.06.11l-.009.01h-.002l-.004.003-.008.002a.6.6 0 0 1-.122.023 7 7 0 0 1-.729.019h-1.114c-.365 0-.575-.001-.729-.019a.6.6 0 0 1-.122-.023l-.013-.005h-.001l-.008-.01a.6.6 0 0 1-.061-.11 7 7 0 0 1-.248-.687l-.34-1.015-.006-.015a2.75 2.75 0 0 0-1.083-1.33l-.015-.01-.368-.212-.016-.008a2.74 2.74 0 0 0-1.87-.233l-.018.004-1.238.349a8 8 0 0 1-.761.194 1 1 0 0 1-.134.01H4.4v-.001l-.012-.009a1 1 0 0 1-.088-.1 8 8 0 0 1-.41-.671l-.494-.857a7 7 0 0 1-.351-.647 1 1 0 0 1-.042-.12L3 15.713v-.003l.005-.012a.6.6 0 0 1 .066-.108 7 7 0 0 1 .477-.56l.002-.001 1.046-1.17.014-.018c.375-.474.593-1.203.593-1.84s-.218-1.366-.593-1.84l-.014-.018-1.046-1.17-.002-.001a7 7 0 0 1-.477-.56.6.6 0 0 1-.066-.108L3 8.291v-.003l.002-.014a.6.6 0 0 1 .042-.119 7 7 0 0 1 .35-.647l.495-.857c.195-.34.31-.536.41-.67a1 1 0 0 1 .088-.102l.011-.008H4.4l.013-.002a1 1 0 0 1 .134.011c.165.026.384.087.76.194l1.24.35.017.003a2.74 2.74 0 0 0 1.87-.233l.016-.008.368-.212.014-.01a2.75 2.75 0 0 0 1.084-1.33l.006-.016.34-1.014c.115-.346.183-.546.248-.687a.6.6 0 0 1 .06-.11zM8.75 12a3.25 3.25 0 0 1 4.469-3.014.75.75 0 1 0 .562-1.39 4.75 4.75 0 0 0-6.44 5.338l.01.045c.043.215.095.482.191.7.134.303.371.565.758.683.426.129.786-.004 1.052-.184.205-.139.414-.348.6-.534l.034-.034.544-.544a.75.75 0 0 0-1.06-1.061l-.544.544-.11.109-.003-.018A3.3 3.3 0 0 1 8.75 12m6.342-.47.107-.106.002.012q.049.274.049.564a3.25 3.25 0 0 1-4.469 3.014.75.75 0 0 0-.562 1.39 4.75 4.75 0 0 0 6.46-5.227l-.008-.045c-.038-.22-.085-.492-.177-.713a1.18 1.18 0 0 0-.754-.704c-.43-.136-.796-.003-1.065.178-.208.14-.42.352-.609.542l-.034.035-.5.5a.75.75 0 1 0 1.06 1.06z" clip-rule="evenodd"/></svg>