<svg xmlns="http://www.w3.org/2000/svg" fill="none" viewBox="0 0 24 24"><path fill="currentColor" d="M4 12h16v5H4z" opacity=".4"/><path fill="currentColor" fill-rule="evenodd" d="M3.25 12.75H3a.75.75 0 0 1 0-1.5h8.25v-3.5c-.915 0-1.65-.005-2.197-.045a4.5 4.5 0 0 1-.852-.128c-.226-.063-.553-.19-.765-.496-.247-.355-.196-.752-.14-.987.063-.258.185-.537.327-.819.284-.562.747-1.32 1.33-2.276l.02-.034q.15-.244.268-.455l.015-.025c.113-.2.223-.394.332-.55.123-.172.284-.357.525-.487.229-.123.461-.164.668-.182.19-.016.418-.016.661-.016h1.116c.243 0 .471 0 .661.016.207.018.44.059.668.182.241.13.402.315.524.488.11.155.22.35.333.549l.015.025q.118.211.267.455l.021.034c.583.955 1.046 1.714 1.33 2.276.142.282.264.561.326.819.057.235.108.632-.139.987-.212.306-.54.433-.765.496-.247.068-.54.105-.852.128-.546.04-1.282.044-2.197.045v3.5H21a.75.75 0 0 1 0 1.5h-.25V22a.75.75 0 0 1-1.5 0v-4.25H4.75V22a.75.75 0 0 1-1.5 0zm8.748-6.5h.326c1.142 0 1.954 0 2.514-.041q.182-.015.308-.03a5 5 0 0 0-.108-.228c-.254-.501-.684-1.208-1.292-2.205a18 18 0 0 1-.292-.496 6 6 0 0 0-.291-.48l-.07-.01a8 8 0 0 0-.562-.01H11.47c-.28 0-.442 0-.561.01l-.07.01-.024.03a6 6 0 0 0-.268.45q-.13.23-.292.496c-.608.997-1.039 1.704-1.292 2.205q-.066.13-.108.227.126.018.308.03c.56.042 1.372.042 2.514.042zm.002 6.5h7.25v3.5H4.75v-3.5zm-1 1a.75.75 0 0 0 0 1.5h2a.75.75 0 0 0 0-1.5zm4.252-7.268-.002-.01zm-6.502-.01-.002.01z" clip-rule="evenodd"/></svg>