<svg xmlns="http://www.w3.org/2000/svg" fill="none" viewBox="0 0 24 24"><path fill="currentColor" d="M19.75 11.696v-.002a2 2 0 0 0-1.671-1.97l-1.329-.222v1a2 2 0 0 0-2-2h-1v1a2 2 0 0 0-2-2h-1v-3.5a1.5 1.5 0 0 0-3 0v5.5l-1.466 1.375c-1.208 1.335-1.813 2.003-1.975 2.8q-.076.378-.054.762c.048.813.553 1.556 1.562 3.042l.564.83c.637.94.956 1.409 1.347 1.78a5.1 5.1 0 0 0 2.469 1.298c.532.113 1.106.113 2.256.113 2.053 0 3.08 0 3.904-.286a5.05 5.05 0 0 0 3.101-3.046c.292-.81.292-1.817.292-3.833z" opacity=".4"/><path fill="currentColor" fill-rule="evenodd" d="M9.281 3.248c-.42 0-.752.34-.752.73v9.979a.75.75 0 0 1-1.5 0v-2.71a32 32 0 0 0-.586.604c-.265.28-.49.53-.658.73q-.127.15-.196.245c-.044.059-.059.084-.059.084l-.018.037-.026.039c-.413.628-.503.958-.484 1.25.023.34.2.776.696 1.605a44 44 0 0 0 1.951 2.92c.176.2.3.351.399.471.1.123.162.197.228.268.121.13.283.273.754.62.628.43 2.176.882 6.355.469 1.477-.234 2.355-.978 2.879-1.802.543-.854.716-1.814.708-2.408v-3.577l.002-.027c.103-1.408-.17-1.835-.42-2.031-.157-.123-.393-.226-.77-.314a6 6 0 0 0-.297-.06v1.12a.75.75 0 0 1-1.5 0v-1.118c-.045-.615-.499-1-1.035-1.133a1.2 1.2 0 0 0-.459-.032q.016.155.015.286v1a.75.75 0 0 1-1.5 0v-1q0-.06-.004-.103l-.02-.103a1.34 1.34 0 0 0-.909-.993c-.284-.088-.47-.054-.578-.007v2.21a.75.75 0 0 1-1.5 0V3.979c0-.415-.32-.73-.716-.73m2.216 3.51v-2.78c0-1.224-.972-2.23-2.216-2.23-1.219 0-2.252.982-2.252 2.23v5.185c-.594.55-1.19 1.143-1.676 1.657-.277.293-.523.566-.716.794a4 4 0 0 0-.424.578c-.462.708-.759 1.372-.707 2.145.049.737.413 1.453.904 2.274.431.72.933 1.474 1.333 2.054.2.291.376.54.507.723.114.158.226.311.274.366m4.973-12.997c.351-.036.708.007 1.02.103a2.83 2.83 0 0 1 1.386.955c.44-.158.951-.145 1.408-.032a3 3 0 0 1 1.585.981c.432.057.85.117 1.227.205.474.11.951.278 1.354.593.864.674 1.102 1.775.995 3.294v3.509c.01.84-.221 2.093-.943 3.227-.74 1.164-1.986 2.181-3.934 2.482l-.02.003-.02.002c-4.225.42-6.276.039-7.387-.732l-.009-.006-.008-.006c-.493-.362-.75-.574-.971-.811a7 7 0 0 1-.277-.323l-.014-.017c-.095-.116-.206-.25-.365-.43m7.93-10.775-.001-.002.007.031m0 0-.004-.017-.003-.012m.033.174a2 2 0 0 0-.026-.145zm-.018-.081a.2.2 0 0 1-.02.084z" clip-rule="evenodd"/></svg>