<svg xmlns="http://www.w3.org/2000/svg" fill="none" viewBox="0 0 24 24"><path fill="currentColor" d="M8.586 10.414C9.172 11 10.114 11 12 11s2.828 0 3.414-.586S16 8.886 16 7s0-2.828-.586-3.414S13.886 3 12 3s-2.828 0-3.414.586S8 5.114 8 7s0 2.828.586 3.414" opacity=".4"/><path fill="currentColor" fill-rule="evenodd" d="M12.052 2.25h-.104c-.899 0-1.648 0-2.242.08-.628.084-1.195.27-1.65.725-.456.456-.642 1.023-.726 1.65-.08.595-.08 1.345-.08 2.243v.104c0 .898 0 1.648.08 2.242.084.628.27 1.195.725 1.65.456.456 1.023.642 1.65.726.595.08 1.345.08 2.243.08h.104c.899 0 1.648 0 2.242-.08.628-.084 1.195-.27 1.65-.726.456-.455.642-1.022.726-1.65.08-.594.08-1.344.08-2.242v-.104c0-.898 0-1.648-.08-2.242-.084-.628-.27-1.195-.726-1.65-.455-.456-1.022-.642-1.65-.726-.594-.08-1.344-.08-2.242-.08M9.116 4.116c.13-.13.328-.237.79-.3.482-.064 1.13-.066 2.094-.066s1.612.002 2.095.067c.461.062.659.169.789.3s.237.327.3.788c.064.483.066 1.131.066 2.095s-.002 1.612-.066 2.095c-.063.461-.17.659-.3.789s-.328.237-.79.3c-.482.064-1.13.066-2.094.066s-1.612-.002-2.095-.066c-.461-.063-.659-.17-.789-.3s-.237-.328-.3-.79C8.753 8.613 8.75 7.965 8.75 7s.002-1.612.067-2.095c.062-.461.169-.659.3-.789M2.25 3.5A.75.75 0 0 1 3 2.75h2a.75.75 0 0 1 0 1.5H3a.75.75 0 0 1-.75-.75m16 0a.75.75 0 0 1 .75-.75h2a.75.75 0 0 1 0 1.5h-2a.75.75 0 0 1-.75-.75M3 8.75a.75.75 0 0 0 0 1.5h2a.75.75 0 0 0 0-1.5zm15.25.75a.75.75 0 0 1 .75-.75h2a.75.75 0 0 1 0 1.5h-2a.75.75 0 0 1-.75-.75M3 14.75a.75.75 0 0 0 0 1.5h18a.75.75 0 0 0 0-1.5zM2.25 21a.75.75 0 0 1 .75-.75h18a.75.75 0 0 1 0 1.5H3a.75.75 0 0 1-.75-.75" clip-rule="evenodd"/></svg>