<svg xmlns="http://www.w3.org/2000/svg" fill="none" viewBox="0 0 24 24"><path fill="currentColor" fill-rule="evenodd" d="M8.25 3.763a57 57 0 0 0-3.762.275c-.645.066-.817.09-.96.149-.34.139-.624.453-.728.806-.043.147-.05.331-.05 1.007a.75.75 0 0 1-1.5 0v-.096c0-.534 0-.951.11-1.332a2.79 2.79 0 0 1 1.603-1.774c.368-.15.77-.19 1.283-.243l.09-.009C5.758 2.401 7.571 2.25 9 2.25s3.242.15 4.665.296l.09.01c.512.051.915.092 1.282.242a2.79 2.79 0 0 1 1.602 1.774c.112.38.111.798.111 1.332V6a.75.75 0 0 1-1.5 0c0-.676-.007-.86-.05-1.007a1.3 1.3 0 0 0-.729-.806c-.142-.058-.314-.083-.959-.149a57 57 0 0 0-3.762-.275V20.25H12a.75.75 0 0 1 0 1.5H6a.75.75 0 0 1 0-1.5h2.25z" clip-rule="evenodd" opacity=".4"/><path fill="currentColor" fill-rule="evenodd" d="M19.75 5.25a.75.75 0 0 1 .75.75v1.673l1.191-.538a.75.75 0 1 1 .618 1.367l-1.353.611 1.17 1.407a.75.75 0 1 1-1.152.96l-1.224-1.472-1.223 1.472a.75.75 0 0 1-1.154-.96l1.17-1.407-1.352-.611a.75.75 0 0 1 .618-1.367l1.19.538L19 6a.75.75 0 0 1 .75-.75" clip-rule="evenodd"/></svg>