<svg xmlns="http://www.w3.org/2000/svg" fill="none" viewBox="0 0 24 24"><path fill="currentColor" d="M13 3c1.273 0 2.057 2.053 3.624 6.158L17.327 11H8.672l.703-1.842C10.942 5.053 11.725 3 13 3" opacity=".4"/><path fill="currentColor" fill-rule="evenodd" d="M11.959 4.894c-.523.974-1.09 2.457-1.883 4.532l-.314.824h6.477l-.315-.824c-.792-2.075-1.36-3.558-1.882-4.532-.554-1.032-.88-1.144-1.042-1.144s-.487.112-1.041 1.144m4.852 6.856 2.488 6.517a.75.75 0 0 0 1.402-.534l-3.398-8.901c-.765-2.003-1.366-3.578-1.94-4.647C14.815 3.165 14.112 2.25 13 2.25c-1.111 0-1.815.914-2.363 1.935-.574 1.069-1.175 2.644-1.94 4.647l-3.397 8.9a.75.75 0 0 0 1.4.535l2.49-6.517zM3.25 21a.75.75 0 0 1 .75-.75h18a.75.75 0 0 1 0 1.5H4a.75.75 0 0 1-.75-.75" clip-rule="evenodd"/></svg>