<svg xmlns="http://www.w3.org/2000/svg" fill="none" viewBox="0 0 24 24"><path fill="currentColor" d="m7.815 19.51-1.99-2.498c-1.01-1.486-1.52-2.229-1.56-3.042-.02-.255 0-.51.05-.76.16-.799.77-1.467 1.97-2.802l1.47-1.375V5.034c0-.829.67-1.5 1.5-1.5s1.5.671 1.5 1.5v-1.5a1.5 1.5 0 1 1 3 0v2a1.5 1.5 0 1 1 3 0v4.5l1.33.221a2 2 0 0 1 1.67 1.97v1.643c0 2.016 0 3.024-.29 3.833a5.1 5.1 0 0 1-1.02 1.678c-.43.473-.76 1.058-.76 1.7v.954h-9.43v-1.275c0-.454-.15-.894-.44-1.249" opacity=".4"/><path fill="currentColor" d="M17.685 22.787a.75.75 0 0 1-.75-.75q0-.144-.002-.282c-.007-.802-.014-1.63.607-2.437l.028-.035c1.214-1.395 1.436-2.295 1.436-3.565v-3.632c-.053-.363-.202-.633-.455-.825-.3-.228-.7-.324-1.055-.354v1.125a.75.75 0 0 1-1.5 0V5.516a.73.73 0 0 0-.211-.528.752.752 0 0 0-1.29.525v5.53a.75.75 0 0 1-1.5 0V3.534a.75.75 0 1 0-1.5-.004v6.51a.75.75 0 0 1-1.5 0V5.06a.75.75 0 1 0-1.5.002L8.504 9v.061l.01 4.45a.75.75 0 0 1-.748.752h-.002a.75.75 0 0 1-.75-.748l-.006-2.738c-.631.646-1.315 1.417-1.776 2.123-.776 1.18.64 2.947 1.676 4.24.195.242.379.472.536.683 1.489 1.79 1.577 2.01 1.57 3.864v.343a.75.75 0 0 1-1.5 0v-.348c.004-.813-.001-1.108-.116-1.389-.131-.32-.442-.712-1.12-1.526l-.026-.033c-.143-.193-.324-.418-.515-.657-1.248-1.557-3.134-3.91-1.76-5.999.814-1.244 2.18-2.615 3.026-3.379l-.01-3.633a2.254 2.254 0 0 1 3.073-2.1 2.254 2.254 0 0 1 2.178-1.683c1.193 0 2.173.935 2.246 2.112.236-.084.49-.13.754-.13.608 0 1.178.238 1.606.671.423.428.652.993.644 1.591v3.877c.574.031 1.326.18 1.962.663.585.444.945 1.093 1.042 1.877l.006.046v3.728c0 1.523-.3 2.813-1.788 4.531-.281.374-.29.752-.284 1.493l.002.295a.75.75 0 0 1-.75.75z"/></svg>