<svg xmlns="http://www.w3.org/2000/svg" fill="none" viewBox="0 0 24 24"><path fill="currentColor" d="m15.48 16.194-.267-.86c-.218-.705-.327-1.057-.243-1.336a1 1 0 0 1 .42-.547c.251-.158.631-.158 1.39-.158h.404c2.57 0 3.855 0 4.462-.76q.104-.131.185-.277c.467-.848-.064-1.99-1.126-4.277-.974-2.098-1.461-3.147-2.366-3.764a4 4 0 0 0-.27-.169c-.952-.546-2.132-.546-4.492-.546h-.511c-2.859 0-4.289 0-5.177.861-.888.86-.888 2.245-.888 5.015v.974c0 1.455 0 2.183.258 2.85.259.666.753 1.213 1.743 2.31l4.091 4.53c.103.113.154.17.199.21a1.033 1.033 0 0 0 1.443-.092c.04-.045.083-.108.17-.234.135-.196.202-.294.261-.392a3.8 3.8 0 0 0 .446-2.889c-.027-.11-.062-.223-.132-.449" opacity=".4"/><path fill="currentColor" fill-rule="evenodd" d="M18.445 3.408c.11.06.22.13.32.2 1.065.726 1.615 1.91 2.606 4.04l.014.03c1.17 2.51 1.75 3.77 1.1 4.95-.08.13-.16.26-.26.38-.83 1.04-2.24 1.04-5.05 1.04h-.69c-.333.002-.622.009-.7.04a.25.25 0 0 0-.1.11c-.008.092.082.388.182.717q.03.096.058.193l.27.86.048.161c.042.143.07.24.092.33.29 1.18.1 2.41-.53 3.45-.05.091-.115.184-.229.348l-.07.101c-.1.15-.16.23-.21.29-.65.73-1.77.8-2.5.16a2 2 0 0 1-.157-.159l-.104-.11-4.09-4.53-.037-.042c-1.025-1.133-1.547-1.709-1.853-2.499l-.06-.166a3.74 3.74 0 0 1-2.5.956c-1.52 0-2.75-1.23-2.75-2.75v-6c0-1.52 1.23-2.75 2.75-2.75 1.226 0 2.316.59 3 1.501q.16-.23.37-.43c1.03-.994 2.424-1.065 5.067-1.07h1.792c2.067.005 3.194.058 4.221.65m-4.255.85h-1.728c-2.255.004-3.43.052-4.047.65-.63.62-.66 1.75-.66 4.48v.971c0 1.36 0 2.05.21 2.58.21.54.67 1.05 1.6 2.08l4.12 4.56q.046.045.072.077l.028.032c.05.05.11.07.18.07l.01.02c.07 0 .15-.03.2-.09a1 1 0 0 0 .085-.117l.035-.053.117-.172a3.05 3.05 0 0 0 .483-2.508c-.01-.058-.03-.116-.054-.194l-.066-.216-.27-.87-.007-.022c-.245-.806-.38-1.253-.233-1.748.12-.39.39-.74.74-.96.394-.247.83-.268 1.578-.27h.612c2.18 0 3.5 0 3.88-.48a1 1 0 0 0 .11-.17c.275-.51-.24-1.629-1.102-3.496l-.048-.104-.064-.138c-.877-1.878-1.323-2.834-2.046-3.322-.07-.05-.15-.1-.22-.14-.706-.407-1.69-.446-3.515-.45m-10.195 0c-.69 0-1.25.56-1.25 1.25v6c0 .69.56 1.25 1.25 1.25 1.24 0 2.25-1.01 2.25-2.25v-4c0-1.24-1.01-2.25-2.25-2.25" clip-rule="evenodd"/></svg>