<svg xmlns="http://www.w3.org/2000/svg" fill="none" viewBox="0 0 24 24"><path fill="currentColor" d="m15.479 7.802-.267.86c-.218.705-.327 1.057-.243 1.335.068.225.217.42.42.547.251.158.631.158 1.39.158h.404c2.57 0 3.855 0 4.462.76q.105.132.185.277c.467.849-.064 1.992-1.126 4.278-.974 2.097-1.461 3.146-2.366 3.764q-.132.09-.27.169c-.952.546-2.132.546-4.492.546h-.511c-2.859 0-4.289 0-5.177-.861C7 18.775 7 17.389 7 14.619v-.973c0-1.456 0-2.184.258-2.85.259-.666.753-1.214 1.743-2.31l4.091-4.53c.103-.114.154-.17.199-.21a1.033 1.033 0 0 1 1.443.092 9 9 0 0 1 .431.625c.528.872.687 1.907.446 2.89-.027.11-.062.223-.132.449" opacity=".4"/><path fill="currentColor" fill-rule="evenodd" d="M12.794 3.19c.73-.64 1.85-.57 2.5.16.05.06.11.14.21.29q.04.055.071.102c.114.164.18.256.23.349a4.54 4.54 0 0 1 .437 3.778l-.048.162-.27.86-.058.192c-.1.33-.19.625-.182.718.01.03.05.08.1.11.1.04.55.04.99.04h1.002c2.414.005 3.68.077 4.448 1.04.1.12.18.25.26.38.65 1.18.07 2.44-1.1 4.95l-.014.03c-.99 2.131-1.54 3.313-2.606 4.04-.1.07-.21.14-.32.2-1.13.65-2.38.65-4.87.65h-.832c-2.847-.002-4.308-.038-5.378-1.07a3 3 0 0 1-.37-.431 3.75 3.75 0 0 1-3 1.5c-1.52 0-2.75-1.23-2.75-2.75v-6c0-1.52 1.23-2.75 2.75-2.75.96 0 1.837.362 2.5.957l.06-.166c.306-.79.828-1.366 1.853-2.5l.037-.04 4.09-4.53.104-.112c.078-.084.12-.13.156-.158m-8.8 8.05c-.69 0-1.25.56-1.25 1.25v6c0 .69.56 1.25 1.25 1.25 1.24 0 2.25-1.01 2.25-2.25v-4c0-1.24-1.01-2.25-2.25-2.25m9.98-7.02-.01.02a.24.24 0 0 0-.208.102q-.026.032-.072.079l-4.12 4.56c-.93 1.03-1.39 1.54-1.6 2.08-.21.53-.21 1.22-.21 2.579v.97c0 2.73.03 3.86.66 4.48.617.599 1.792.647 4.047.65h1.433c2.016 0 3.067-.02 3.81-.45.07-.04.15-.09.22-.14.723-.488 1.17-1.443 2.046-3.322l.064-.137.048-.105c.861-1.867 1.377-2.985 1.102-3.495a1 1 0 0 0-.11-.17c-.345-.437-1.468-.476-3.307-.48h-1.185c-.748-.002-1.184-.023-1.578-.27-.35-.22-.62-.57-.74-.96-.148-.496-.012-.942.233-1.748l.007-.022.27-.87c.026-.09.047-.158.066-.216.024-.079.043-.137.054-.194a3.05 3.05 0 0 0-.483-2.508l-.117-.172-.035-.054c-.038-.057-.06-.093-.085-.116a.27.27 0 0 0-.2-.09" clip-rule="evenodd"/></svg>