<svg xmlns="http://www.w3.org/2000/svg" fill="none" viewBox="0 0 24 24"><path fill="currentColor" d="M6.499 17.75a.75.75 0 0 1-.624-.334c-1.817-2.726-3.176-3.395-3.19-3.402 0 0-.303-.131-.401-.444-.098-.312.047-.586.047-.586s.102-.242.379-.359.594.023.594.023c.155.069 1.432.687 3.169 3.013q.107-.158.233-.338a.75.75 0 0 1 1.228.859c-.51.729-.788 1.195-.79 1.2a.75.75 0 0 1-.625.367zm3.888-5.178a.75.75 0 0 1-.572-1.235c2.522-2.975 4.826-4.997 6.849-6.008a.75.75 0 0 1 .67 1.341c-1.814.907-4.018 2.856-6.374 5.636a.75.75 0 0 1-.573.265z"/><path fill="currentColor" d="M11.499 17.75a.75.75 0 0 1-.624-.334c-1.817-2.726-3.176-3.395-3.19-3.402 0 0-.311-.135-.407-.47s.068-.587.068-.587.118-.259.428-.342.53.033.53.033c.156.069 1.439.69 3.183 3.032a59 59 0 0 1 2.808-3.718c2.72-3.317 5.2-5.548 7.369-6.633a.75.75 0 0 1 .67 1.341c-4.756 2.379-10.15 10.653-10.204 10.737a.75.75 0 0 1-.625.342z" opacity=".4"/></svg>