<svg xmlns="http://www.w3.org/2000/svg" fill="none" viewBox="0 0 24 24"><path fill="currentColor" d="M12.834 2.105c-.33-.11-.68-.11-1.38-.11-3.25 0-4.87 0-5.97.89q-.33.27-.6.6c-.89 1.1-.89 2.72-.89 5.97v3.54h16v-2.34c0-.82 0-1.23-.15-1.6l-.85-.06c-2.83 0-4.24 0-5.12-.88s-.88-2.29-.88-5.12z" opacity=".4"/><path fill="currentColor" fill-rule="evenodd" d="M19.244 12.995c0 .41.34.75.75.75l.01.01c.41 0 .75-.34.75-.75v-2.34c0-.89 0-1.38-.21-1.89-.2-.49-.55-.84-1.18-1.47l-4.74-4.74c-.54-.55-.84-.85-1.25-1.03l-.13-.06-.014-.007a.6.6 0 0 0-.146-.063c-.45-.15-.86-.15-1.618-.15h-.002c-3.42 0-5.14 0-6.45 1.06-.26.21-.5.45-.71.71-1.06 1.3-1.06 3.02-1.06 6.44v3.54c0 .41.34.75.75.75s.75-.34.75-.75v-3.54c0-3.07 0-4.61.72-5.5.14-.18.31-.34.49-.49.9-.72 2.43-.72 5.5-.72h.79v.24c0 3.03 0 4.55 1.1 5.65s2.62 1.1 5.649 1.1h.231c.02.21.02.49.02.91zm-4.84-5.41c-.59-.59-.66-1.7-.66-3.78l4.44 4.44c-2.09-.01-3.19-.07-3.78-.66m2.34 14.41c0 .41.34.75.75.75s.75-.34.75-.75v-2.25h1.75c.41 0 .75-.34.75-.75s-.34-.75-.75-.75h-1.75v-1.5h1.75c.41 0 .75-.34.75-.75s-.34-.75-.75-.75h-2.5c-.41 0-.75.34-.75.75zm-5 0c0 .41.34.75.75.75s.75-.34.75-.75v-2.25h1.75c.41 0 .75-.34.75-.75s-.34-.75-.75-.75h-1.75v-1.5h1.75c.41 0 .75-.34.75-.75s-.34-.75-.75-.75h-2.5c-.41 0-.75.34-.75.75zm-2.5 0c0 .41.34.75.75.75s.75-.34.75-.75v-6c0-.41-.34-.75-.75-.75s-.75.34-.75.75zm-4.25 0c0 .41.34.75.75.75s.75-.34.75-.75v-5.25h1c.41 0 .75-.34.75-.75s-.34-.75-.75-.75h-3.5c-.41 0-.75.34-.75.75s.34.75.75.75h1z" clip-rule="evenodd"/></svg>