<svg xmlns="http://www.w3.org/2000/svg" fill="none" viewBox="0 0 24 24"><path fill="currentColor" fill-rule="evenodd" d="M12 21.89c5.523 0 10-4.477 10-10s-4.477-10-10-10-10 4.478-10 10 4.477 10 10 10m0-8.5a1.5 1.5 0 1 0 0-3 1.5 1.5 0 0 0 0 3" clip-rule="evenodd" opacity=".4"/><path fill="currentColor" fill-rule="evenodd" d="M2.75 11.89a9.25 9.25 0 1 1 18.5 0 9.25 9.25 0 0 1-18.5 0M12 1.14c-5.937 0-10.75 4.814-10.75 10.75 0 5.938 4.813 10.75 10.75 10.75s10.75-4.812 10.75-10.75c0-5.936-4.813-10.75-10.75-10.75m.746 5.743a.75.75 0 0 0-1.5 0V9.77a2.251 2.251 0 1 0 1.717 4.154l1.51 1.51a.75.75 0 1 0 1.06-1.06l-1.508-1.509a2.25 2.25 0 0 0-1.28-3.095zm-1.5 5.009a.75.75 0 1 1 1.5 0 .75.75 0 0 1-1.5 0" clip-rule="evenodd"/></svg>