<svg xmlns="http://www.w3.org/2000/svg" fill="none" viewBox="0 0 24 24"><path fill="currentColor" fill-rule="evenodd" d="M12 22c5.523 0 10-4.477 10-10S17.523 2 12 2 2 6.477 2 12s4.477 10 10 10m3.73-6.18c-.62-1.364-2.057-2.32-3.73-2.32s-3.11.956-3.73 2.32c-.25.552-.375.828-.159 1.055.217.227.598.116 1.362-.105.723-.21 1.625-.4 2.527-.4s1.804.19 2.527.4c.764.221 1.145.332 1.362.105.216-.227.091-.503-.16-1.055" clip-rule="evenodd" opacity=".4"/><path fill="currentColor" fill-rule="evenodd" d="M12 2.75a9.25 9.25 0 1 0 0 18.5 9.25 9.25 0 0 0 0-18.5M1.25 12C1.25 6.063 6.063 1.25 12 1.25S22.75 6.063 22.75 12 17.937 22.75 12 22.75 1.25 17.937 1.25 12M7.4 7.55a.75.75 0 0 1 1.05-.15c.064.048.135.096.225.158l.116.078c.137.095.301.21.46.343.299.252.689.659.78 1.248q.014.092.019.185c.023.43-.132.788-.327 1.096-.178.281-.437.593-.723.937l-.028.034a.75.75 0 0 1-1.154-.958c.322-.389.517-.625.637-.815a1 1 0 0 0 .09-.172.1.1 0 0 0 .007-.042l-.004-.037c-.006-.042-.05-.147-.264-.328a4 4 0 0 0-.342-.254l-.085-.058A8 8 0 0 1 7.55 8.6a.75.75 0 0 1-.15-1.05m9.2 0a.75.75 0 0 1-.15 1.05 8 8 0 0 1-.307.215l-.085.058q-.193.13-.342.254c-.215.18-.258.286-.264.328l-.004.037c0 .006 0 .016.008.042a1 1 0 0 0 .09.172c.12.19.314.427.636.815a.75.75 0 0 1-1.154.958L15 11.445c-.286-.344-.544-.656-.723-.937-.194-.308-.35-.665-.327-1.096q.005-.093.02-.185c.09-.59.48-.996.78-1.248.158-.133.322-.248.46-.343l.115-.078c.09-.062.161-.11.225-.158a.75.75 0 0 1 1.05.15m-4.6 5.2c-1.959 0-3.668 1.12-4.413 2.76l-.02.047c-.107.233-.232.507-.285.755-.032.15-.05.338-.005.543.048.215.154.393.291.537.351.369.8.381 1.111.343.279-.035.615-.132.954-.231l.049-.014c.686-.2 1.513-.37 2.318-.37s1.632.17 2.318.37l.049.014c.339.099.675.196.954.23.31.04.76.026 1.11-.342.138-.143.244-.322.292-.537a1.3 1.3 0 0 0-.005-.543c-.053-.248-.178-.522-.284-.755l-.021-.047c-.745-1.64-2.454-2.76-4.413-2.76m-3.047 3.38c.495-1.088 1.66-1.88 3.047-1.88s2.552.791 3.047 1.88l.004.01-.314-.09c-.761-.222-1.738-.43-2.737-.43s-1.976.208-2.737.43l-.314.09z" clip-rule="evenodd"/></svg>