<svg xmlns="http://www.w3.org/2000/svg" fill="none" viewBox="0 0 24 24"><path fill="currentColor" d="M18.248 17.69c.707-1.478 1.675-4.367.323-5.728-2.132-2.145-5.113-2.538-6.821-2.462V3.75a1.75 1.75 0 0 0-3.5 0V10c-.023.018-2.878 2.175-3.376 3.609-.446 1.283.408 2.425 1.05 3.482.498.82 2.326 2.84 2.326 3.914V22h8.892v-1.618c0-.926.724-1.894 1.106-2.693" opacity=".4"/><path fill="currentColor" fill-rule="evenodd" d="M7.497 3.746a2.494 2.494 0 1 1 4.989 0v4.995c.689.03 1.49.152 2.275.346 1.122.276 2.319.727 3.186 1.369l.06.044c.637.471 1.391 1.028 1.758 1.994.379.995.301 2.272-.262 4.096-.191.622-.545 1.335-.842 1.906l-.218.415-.188.358a8 8 0 0 0-.173.356l-.013.032-.032.1a2 2 0 0 0-.115.489c-.036.293-.056.784-.03 1.732a.75.75 0 1 1-1.5.04c-.026-.966-.009-1.547.041-1.954.046-.377.122-.604.182-.785l.026-.08c.057-.178.175-.413.282-.619l.199-.379.208-.397c.3-.577.593-1.18.74-1.656.532-1.724.491-2.6.293-3.12-.197-.521-.598-.84-1.308-1.366-.642-.475-1.622-.865-2.653-1.12-1.03-.253-2.006-.347-2.601-.295a.75.75 0 0 1-.815-.747V3.746a.994.994 0 0 0-1.989 0v10.286a.75.75 0 0 1-1.5 0v-2.396l-.593.527c-1.154 1.093-1.312 1.654-1.368 1.892-.11.472-.034 1.107 1.153 2.828q.245.336.482.656c.387.523.749 1.013 1.034 1.452.398.612.745 1.266.791 1.943l.002.051V22a.75.75 0 0 1-1.5 0v-.984c-.025-.266-.181-.638-.55-1.207-.26-.4-.579-.83-.951-1.334q-.248-.333-.527-.716l-.01-.015c-1.21-1.754-1.653-2.876-1.384-4.028v-.001c.139-.592.486-1.402 1.805-2.649l.017-.015 1.6-1.42z" clip-rule="evenodd"/></svg>