<svg xmlns="http://www.w3.org/2000/svg" fill="none" viewBox="0 0 24 24"><path fill="currentColor" d="M21.186 18.551c.575-1.181 1.361-3.493.262-4.582-1.732-1.716-4.06-2.05-5.448-1.99V7.5a1.5 1.5 0 0 0-3 0v7.758l-1.739-1.521a1.356 1.356 0 0 0-1.96.187 1.41 1.41 0 0 0 .006 1.747l2.666 3.468c.464.604.696.906.824 1.259l.032.094c.113.358.113.741.113 1.508h7.345v-1.294c0-.74.588-1.516.9-2.155" opacity=".4"/><path fill="currentColor" fill-rule="evenodd" d="M13.31 15.941a.74.74 0 0 1-.8-.119l-1.74-1.52v.001a.606.606 0 0 0-.88.085.65.65 0 0 0 0 .814l-.6.48.114-.087.486-.393c.01.004.01.012.01.012l2.67 3.468.116.153c.373.49.66.865.813 1.308.02.041.03.082.04.123.152.466.151.955.15 1.614V22c0 .414-.34.75-.75.75a.753.753 0 0 1-.75-.75c0-.813-.01-1.06-.08-1.282a.2.2 0 0 0-.02-.065c-.08-.218-.22-.416-.71-1.057l-2.67-3.468h.001a2.16 2.16 0 0 1 0-2.668 2.103 2.103 0 0 1 3.04-.289q0 .002.01.002l-.5.563-.363.42.862-.983.49.43V7.5c0-1.243 1.01-2.25 2.25-2.25s2.25 1.007 2.25 2.25v3.735c1.513.08 3.595.585 5.23 2.202.81.806.85 1.974.71 2.901-.15.963-.52 1.912-.83 2.541-.057.118-.123.238-.186.353l-.103.192-.086.15q-.107.182-.195.356c-.17.342-.25.589-.25.776V22c0 .414-.33.75-.75.75a.746.746 0 0 1-.75-.75v-1.294c0-.554.21-1.064.41-1.455.061-.122.129-.242.193-.355q.064-.113.117-.213l.067-.116c.073-.128.137-.24.183-.344.27-.551.58-1.349.69-2.11.12-.796.01-1.328-.28-1.611-1.53-1.514-3.62-1.829-4.89-1.773L16 11.98l.03.749a.76.76 0 0 1-.55-.208.74.74 0 0 1-.23-.541V7.5c0-.414-.34-.75-.75-.75s-.75.336-.75.75v7.758c0 .294-.17.561-.44.683m-6.317 2.807h.005L7 18.75a.75.75 0 0 0 .007-1.5c-1.121-.009-1.778-.05-2.25-.246a3.25 3.25 0 0 1-1.762-1.755c-.244-.599-.245-1.484-.245-3.248v-2c0-3.56 0-5.347.951-6.299.95-.951 2.738-.951 6.3-.951h4c3.56 0 5.349 0 6.299.951.95.952.95 2.739.95 6.299a.75.75 0 0 0 1.5 0c0-3.973 0-5.967-1.389-7.359-1.39-1.391-3.386-1.391-7.36-1.391h-4c-3.977 0-5.971 0-7.361 1.391s-1.39 3.386-1.39 7.359v2c0 1.959 0 2.943.358 3.82a4.74 4.74 0 0 0 2.574 2.567c.7.291 1.497.349 2.812.36" clip-rule="evenodd"/></svg>