<svg xmlns="http://www.w3.org/2000/svg" fill="none" viewBox="0 0 24 24"><path fill="currentColor" fill-rule="evenodd" d="M6.5 11.5V21h11v-9.5a5.5 5.5 0 1 0-11 0M12 9a2.5 2.5 0 0 1 2.5 2.5v1.25c0 .69-.56 1.25-1.25 1.25h-2.5c-.69 0-1.25-.56-1.25-1.25V11.5A2.5 2.5 0 0 1 12 9" clip-rule="evenodd" opacity=".4"/><path fill="currentColor" fill-rule="evenodd" d="M18.25 11.5a6.25 6.25 0 1 0-12.5 0V21a.75.75 0 0 0 1.5 0v-9.5a4.75 4.75 0 0 1 9.5 0V21a.75.75 0 0 0 1.5 0zm3.5.5c0-5.385-4.365-9.75-9.75-9.75S2.25 6.615 2.25 12v1a.75.75 0 0 0 1.5 0v-1a8.25 8.25 0 1 1 16.5 0v1a.75.75 0 0 0 1.5 0zM12 8.25a3.25 3.25 0 0 1 3.25 3.25v1.25a2 2 0 0 1-2 2h-2.5a2 2 0 0 1-2-2V11.5A3.25 3.25 0 0 1 12 8.25m1.75 3.25a1.75 1.75 0 1 0-3.5 0v1.25a.5.5 0 0 0 .5.5h2.5a.5.5 0 0 0 .5-.5z" clip-rule="evenodd"/></svg>