<svg xmlns="http://www.w3.org/2000/svg" fill="none" viewBox="0 0 24 24"><path fill="currentColor" d="M5.593 9.225c2.246-3.602 3.368-5.403 4.84-5.945a4.53 4.53 0 0 1 3.134 0c1.472.542 2.594 2.343 4.84 5.945 2.527 4.053 3.79 6.08 3.568 7.753a4.66 4.66 0 0 1-1.599 2.938C19.1 21 16.733 21 12 21s-7.1 0-8.376-1.084a4.66 4.66 0 0 1-1.599-2.938c-.222-1.673 1.041-3.7 3.568-7.753" opacity=".4"/><path fill="currentColor" fill-rule="evenodd" d="M10.173 2.576a5.28 5.28 0 0 1 3.654 0c.936.345 1.691 1.068 2.464 2.072.768.997 1.626 2.374 2.729 4.143l.047.075c1.243 1.995 2.207 3.54 2.827 4.796.622 1.259.966 2.351.824 3.415a5.4 5.4 0 0 1-1.857 3.411c-.816.693-1.917.983-3.302 1.123-1.38.139-3.186.139-5.514.139h-.09c-2.328 0-4.134 0-5.514-.14-1.385-.139-2.486-.429-3.303-1.122a5.4 5.4 0 0 1-1.856-3.411c-.142-1.064.202-2.156.824-3.415.62-1.256 1.584-2.801 2.827-4.796l.047-.075c1.103-1.77 1.961-3.146 2.729-4.143.773-1.004 1.528-1.727 2.464-2.072m3.135 1.408a3.78 3.78 0 0 0-2.616 0c-.535.197-1.077.647-1.794 1.579S7.36 7.807 6.23 9.622c-1.272 2.04-2.196 3.523-2.78 4.704-.586 1.187-.763 1.944-.681 2.553a3.9 3.9 0 0 0 1.34 2.465c.46.391 1.18.643 2.482.774 1.296.131 3.026.132 5.409.132s4.113 0 5.409-.132c1.301-.131 2.022-.383 2.482-.773a3.9 3.9 0 0 0 1.34-2.466c.081-.61-.095-1.366-.682-2.553-.583-1.18-1.507-2.664-2.779-4.704-1.131-1.815-1.95-3.127-2.668-4.06-.717-.931-1.259-1.381-1.794-1.578" clip-rule="evenodd"/></svg>