<svg xmlns="http://www.w3.org/2000/svg" fill="none" viewBox="0 0 24 24"><path fill="currentColor" fill-rule="evenodd" d="m16.279 6.412 1.17 1.441c.68.83 1.15 1.802 1.38 2.836a6.6 6.6 0 0 1-.07 3.117l-.01.047-.01.034c-.08.357-2.01 8.318-14.95 6.262l3.93-2.57-1.16-1.442a6.7 6.7 0 0 1-1.39-2.836 6.7 6.7 0 0 1 .07-3.117l.02-.047v-.034c.08-.357 2.01-8.304 14.95-6.26zm-4.28 8.584c1.66 0 3-1.343 3-3s-1.34-3-3-3-3 1.343-3 3 1.34 3 3 3" clip-rule="evenodd" opacity=".4"/><path fill="currentColor" fill-rule="evenodd" d="M3.672 20.892q2.218.352 4.167.352v-.003c3.636 0 6.562-.918 8.73-2.745 2.219-1.868 2.813-4.066 2.896-4.419l.004-.013.014-.055.006-.029a7.35 7.35 0 0 0 .072-3.454 7.6 7.6 0 0 0-1.531-3.147l-.645-.794 3.234-2.114a.75.75 0 0 0-.293-1.369C6.705.951 4.61 9.571 4.526 9.939l-.002.013-.002.013-.008.027a7.5 7.5 0 0 0-.077 3.473 7.5 7.5 0 0 0 1.54 3.148l.639.792-3.237 2.118a.75.75 0 0 0 .293 1.369m14.335-7.167c-.066.295-1.658 6.813-12.093 5.932l.002-.002 2.215-1.449a.747.747 0 0 0 .173-1.097l-1.16-1.441-.004-.004-.003-.005a6 6 0 0 1-1.233-2.513 6 6 0 0 1 .048-2.718.7.7 0 0 0 .055-.221C6.195 9.478 8.05 3.502 18.08 4.34l-2.212 1.446a.75.75 0 0 0-.172 1.1l1.17 1.441.002.003a6.1 6.1 0 0 1 1.228 2.524c.2.9.178 1.854-.063 2.761l-.01.037-.005.026zM8.25 12A3.754 3.754 0 0 0 12 15.75 3.754 3.754 0 0 0 15.75 12 3.754 3.754 0 0 0 12 8.25 3.754 3.754 0 0 0 8.25 12m1.5 0A2.25 2.25 0 0 1 12 9.75 2.25 2.25 0 0 1 14.25 12 2.25 2.25 0 0 1 12 14.25 2.25 2.25 0 0 1 9.75 12" clip-rule="evenodd"/></svg>