<svg xmlns="http://www.w3.org/2000/svg" fill="none" viewBox="0 0 24 24"><path fill="currentColor" d="M3.682 6.503c-2.098 3.57-1.454 9.441-.793 12.32a.487.487 0 0 0 .542.37L22.25 16.75h-1.5a9.5 9.5 0 0 1-9.473-8.783.75.75 0 0 1 .686-.793c.399 0 .74.112 1.024.288.99.614 1.485.92 1.774.811.29-.109.335-.33.425-.772.28-1.366-.405-2.954-1.153-3.681-2.76-2.684-7.59-2.013-10.35 2.683" opacity=".4"/><path fill="currentColor" fill-rule="evenodd" d="M14.47 3.186C12.237 1.089 8.689.809 5.643 3.138l-.008.006-.008.006c-3.362 2.715-3.81 6.157-3.994 7.758l-.001.01c-.31 3.108.184 6.619.68 8.543a.75.75 0 1 0 1.452-.375c-.463-1.795-.928-5.121-.64-8.012.175-1.52.57-4.43 3.438-6.75 2.51-1.915 5.23-1.595 6.883-.043l.056.05c.02.016.035.029.082.078.062.064.157.172.281.344.44.696.626 1.374.66 1.908.02.333-.01.61-.055.805-.168-.086-.343-.196-.566-.335-.148-.093-.317-.2-.519-.32-.661-.397-1.38-.434-2.06-.342-.643.086-1.339.3-2.017.51l-.024.008c-.77.126-1.232-.153-1.61-.38l-.13-.078a.75.75 0 1 0-.753 1.297q.045.026.105.064c.405.249 1.32.813 2.696.566l.045-.008.043-.014q.467-.145.862-.259c.468 5.228 4.86 9.325 10.209 9.325h1.5a.75.75 0 0 0 0-1.5h-1.5a8.75 8.75 0 0 1-8.724-8.07c.239.014.427.07.586.167q.199.12.41.252c.272.17.545.341.767.454.178.092.397.188.633.226.204.033.443.026.679-.077a.9.9 0 0 0 .252-.12c.126-.085.213-.19.268-.27.112-.16.193-.352.25-.539a4.1 4.1 0 0 0 .15-1.457c-.05-.798-.323-1.726-.902-2.635l-.01-.017-.012-.017a5 5 0 0 0-.434-.53 2 2 0 0 0-.193-.181m-6.404 9.06a.75.75 0 0 0-1.5.004v.02a2 2 0 0 0 .008.162 5.7 5.7 0 0 0 .417 1.733c.43 1.025 1.302 2.21 3.016 2.795a.75.75 0 0 0 .485-1.42c-1.22-.415-1.813-1.23-2.117-1.955a4.2 4.2 0 0 1-.305-1.255l-.003-.07zm13.817 8.723a4.17 4.17 0 0 1-4.003.001 3.74 3.74 0 0 0-3.574-.03q-.07.03-.157.093c-1.207.638-2.732.62-3.897-.043l-.007-.003a3.74 3.74 0 0 0-3.463-.084 1 1 0 0 0-.16.066 4.17 4.17 0 0 1-4.005 0 .75.75 0 1 0-.734 1.308c1.622.91 3.67.938 5.317.085a1 1 0 0 0 .162-.07c.637-.363 1.482-.368 2.15.003 1.656.941 3.783.938 5.454 0l.171-.096a2.25 2.25 0 0 1 2.002.076l.005.002a5.67 5.67 0 0 0 5.473 0 .75.75 0 1 0-.734-1.308" clip-rule="evenodd"/></svg>