<svg xmlns="http://www.w3.org/2000/svg" fill="none" viewBox="0 0 24 24"><path fill="currentColor" d="m4.048 11.586 1.048-1c.303-.29.455-.434.648-.51C5.936 10 6.15 10 6.579 10H17.42c.428 0 .643 0 .835.076.193.076.345.22.648.51l1.048 1c.699.666 1.048 1 1.048 1.414s-.35.748-1.048 1.414l-1.049 1c-.302.29-.454.434-.647.51-.192.076-.407.076-.835.076H6.58c-.429 0-.643 0-.835-.076-.193-.076-.345-.22-.648-.51l-1.048-1C3.35 13.748 3 13.414 3 13s.35-.748 1.048-1.414" opacity=".4"/><path fill="currentColor" fill-rule="evenodd" d="M12 4.75a5.25 5.25 0 0 0-5.197 4.5h10.394A5.25 5.25 0 0 0 12 4.75m0-1.5a6.75 6.75 0 0 0-6.73 6.224c-.24.137-.44.329-.633.514l-1.14 1.086c-.32.307-.614.587-.82.845-.227.283-.427.633-.427 1.08 0 .449.2.799.426 1.082.207.258.5.538.822.844l1.139 1.087c.138.133.28.27.44.387l-.472 1.415a7 7 0 0 1-.092.267.234.234 0 0 1-.231.166A7 7 0 0 1 4 18.25a.75.75 0 0 0 0 1.5c.211 0 .489.001.699-.05a1.75 1.75 0 0 0 1.06-.765c.115-.183.185-.395.252-.595l.53-1.59h10.918l.53 1.59c.067.2.137.412.252.595a1.75 1.75 0 0 0 1.06.764c.21.052.488.052.699.051a.75.75 0 0 0 0-1.5c-.14 0-.22 0-.282-.003-.116-.002-.202-.111-.23-.166a7 7 0 0 1-.093-.267l-.471-1.415c.158-.117.3-.254.44-.387l1.138-1.087c.321-.306.615-.586.822-.844.226-.283.426-.633.426-1.081s-.2-.798-.426-1.081c-.207-.258-.5-.539-.822-.845l-1.139-1.086c-.192-.185-.392-.377-.633-.514A6.75 6.75 0 0 0 12 3.25m-5.42 7.5c-.488 0-.532.012-.56.024 0 0-.022.007-.083.057a7 7 0 0 0-.323.298l-1.048 1c-.365.348-.582.557-.718.727-.048.041-.116.156 0 .288.136.17.353.38.718.727l1.048 1c.16.153.25.238.323.298a.4.4 0 0 0 .082.057c.03.012.073.024.56.024h10.842c.488 0 .531-.012.56-.024 0 0 .021-.007.082-.057.073-.06.164-.145.323-.298l1.048-1c.365-.348.583-.557.718-.727.1-.114.042-.24 0-.288-.135-.17-.353-.38-.718-.727l-1.048-1a7 7 0 0 0-.322-.298.4.4 0 0 0-.083-.057c-.029-.012-.072-.024-.56-.024zM8 12.25a.75.75 0 0 0 0 1.5h.012a.75.75 0 0 0 0-1.5zm3.994 0a.75.75 0 0 0 0 1.5h.012a.75.75 0 0 0 0-1.5zm3.994 0a.75.75 0 0 0 0 1.5H16a.75.75 0 0 0 0-1.5z" clip-rule="evenodd"/></svg>