<svg xmlns="http://www.w3.org/2000/svg" fill="none" viewBox="0 0 24 24"><path fill="currentColor" fill-rule="evenodd" d="M13.508 5c0 .83-.67 1.5-1.5 1.5s-1.5-.67-1.5-1.5.67-1.5 1.5-1.5 1.5.67 1.5 1.5m0 9.5V9h-3v5.5z" clip-rule="evenodd" opacity=".4"/><path fill="currentColor" d="M12.008 7.25c-1.24 0-2.25-1.01-2.25-2.25s1.01-2.25 2.25-2.25 2.25 1.01 2.25 2.25-1.01 2.25-2.25 2.25m0-3c-.41 0-.75.34-.75.75s.34.75.75.75.75-.34.75-.75-.34-.75-.75-.75"/><path fill="currentColor" d="M12.009 9.75c-2.43 0-4.72-.77-6.47-2.16a.75.75 0 0 1-.12-1.05c.26-.32.73-.37 1.05-.12 1.48 1.18 3.44 1.84 5.53 1.84s4.05-.65 5.53-1.84c.32-.26.79-.21 1.05.12.26.32.21.8-.12 1.05-1.74 1.4-4.04 2.16-6.47 2.16z"/><path fill="currentColor" d="M14.508 21.25a.75.75 0 0 1-.74-.63l-.9-5.37h-1.73l-.9 5.37a.76.76 0 0 1-.86.62.755.755 0 0 1-.62-.86l.99-5.94V9c0-.41.34-.75.75-.75s.75.34.75.75v4.75h1.5V9c0-.41.34-.75.75-.75s.75.34.75.75v5.44l.99 5.94c.07.41-.21.8-.62.86-.04 0-.08.01-.12.01z"/></svg>