<svg xmlns="http://www.w3.org/2000/svg" fill="none" viewBox="0 0 24 24"><path fill="currentColor" d="M2.028 16.906c.131.828.815 1.512 2.184 2.88 1.368 1.37 2.052 2.053 2.88 2.184.268.043.54.043.808 0 .828-.13 1.512-.815 2.88-2.184 1.37-1.368 2.053-2.052 2.184-2.88q.065-.404 0-.808c-.052-.332-.194-.64-.434-.98l-3.649-3.65c-.34-.24-.649-.382-.98-.434a2.6 2.6 0 0 0-.809 0c-.828.131-1.512.815-2.88 2.184-1.369 1.368-2.053 2.052-2.184 2.88q-.064.404 0 .808" opacity=".4"/><path fill="currentColor" fill-rule="evenodd" d="M5.186 21.799a3.23 3.23 0 0 0 2.302.953l-.002.002c.87 0 1.687-.338 2.302-.953l2.995-2.996c1.15-1.149 1.307-2.72.411-4.103a.75.75 0 0 0-1.258.816c.511.788.435 1.578-.213 2.226L8.728 20.74a1.74 1.74 0 0 1-1.24.514c-.47 0-.91-.183-1.242-.514L3.26 17.753a1.75 1.75 0 0 1-.514-1.24c0-.47.183-.911.515-1.243l2.995-2.995c.42-.42 1.356-.82 2.213-.2a.75.75 0 1 0 .88-1.215c-1.448-1.047-3.185-.615-4.154.354L2.2 14.209a3.24 3.24 0 0 0-.954 2.302c0 .87.34 1.687.954 2.301zm9.513-8.6c.595.386 1.225.576 1.841.576.816 0 1.607-.333 2.261-.988l2.995-2.995a3.23 3.23 0 0 0 .954-2.302c0-.87-.339-1.688-.954-2.302L18.81 2.202a3.24 3.24 0 0 0-2.302-.954 3.24 3.24 0 0 0-2.302.954l-2.995 2.995c-.968.97-1.4 2.706-.354 4.153a.749.749 0 1 0 1.215-.879c-.62-.857-.22-1.793.2-2.213l2.995-2.995a1.75 1.75 0 0 1 1.242-.515c.47 0 .91.183 1.241.515l2.986 2.986c.331.331.514.772.514 1.241s-.183.91-.515 1.241l-2.995 2.995c-.648.649-1.438.724-2.226.214a.75.75 0 1 0-.815 1.259M4.998 8.751h-2a.75.75 0 0 1 0-1.5h2a.75.75 0 0 1 0 1.5m3-3a.75.75 0 0 1-.75-.75v-2a.75.75 0 0 1 1.5 0v2a.75.75 0 0 1-.75.75m1.013 9.236a.75.75 0 0 0 1.061 0l4.913-4.913a.75.75 0 1 0-1.061-1.06L9.01 13.925a.75.75 0 0 0 0 1.061M15.247 21a.75.75 0 0 0 1.5 0v-2a.75.75 0 0 0-1.5 0zm3.75-4.25h2a.75.75 0 0 0 0-1.5h-2a.75.75 0 0 0 0 1.5" clip-rule="evenodd"/></svg>