<svg xmlns="http://www.w3.org/2000/svg" fill="none" viewBox="0 0 24 24"><path fill="currentColor" d="m9.948 12.888-.464.464a5.067 5.067 0 1 0 7.166 7.166l2.866-2.866a5.07 5.07 0 0 0 .536-6.536l-2.402 2.402a5.067 5.067 0 0 1-7.702-.63" opacity=".4"/><path fill="currentColor" fill-rule="evenodd" d="M14.067 15.748a5.8 5.8 0 0 1-4.163-1.752 4.32 4.32 0 0 0 .11 5.99 4.32 4.32 0 0 0 6.106 0l2.866-2.866a4.32 4.32 0 0 0 0-6.105 4.32 4.32 0 0 0-6.105 0l-.207.207a.75.75 0 1 1-1.061-1.061l.207-.207a5.824 5.824 0 0 1 8.277.05 4.323 4.323 0 0 0-.111-5.99 4.32 4.32 0 0 0-6.105 0l-2.866 2.867a4.32 4.32 0 0 0 0 6.105 4.32 4.32 0 0 0 6.105 0l.207-.207a.75.75 0 1 1 1.06 1.06l-.206.208a5.8 5.8 0 0 1-4.113 1.7zM9.954 5.82a5.83 5.83 0 0 0-.96 6.96l-.04.04a5.824 5.824 0 0 0 0 8.227 5.8 5.8 0 0 0 4.113 1.7 5.8 5.8 0 0 0 4.114-1.7l2.866-2.866a5.83 5.83 0 0 0 .96-6.96l.04-.04a5.824 5.824 0 0 0 0-8.227 5.824 5.824 0 0 0-8.227 0zM2.4 13.951a.75.75 0 0 0 1.05.15l2-1.5a.75.75 0 0 0-.9-1.2l-2 1.5a.75.75 0 0 0-.15 1.05m2.363-4.239a.75.75 0 0 0 .475-1.423l-3-1a.75.75 0 0 0-.475 1.423zm.637-3.26a.75.75 0 0 0 1.05.15.75.75 0 0 0 .15-1.05l-1.5-2a.75.75 0 0 0-1.2.9z" clip-rule="evenodd"/></svg>