<svg xmlns="http://www.w3.org/2000/svg" fill="none" viewBox="0 0 24 24"><path fill="currentColor" d="M6.578 15.482c-1.415.842-5.125 2.562-2.865 4.715C4.816 21.248 6.045 22 7.59 22h8.818c1.546 0 2.775-.752 3.878-1.803 2.26-2.153-1.45-3.873-2.865-4.715a10.66 10.66 0 0 0-10.844 0" opacity=".4"/><path fill="currentColor" fill-rule="evenodd" d="M8.25 6.5a3.75 3.75 0 1 1 7.5 0 3.75 3.75 0 0 1-7.5 0M12 1.25a5.25 5.25 0 1 0 0 10.5 5.25 5.25 0 0 0 0-10.5M6.961 16.126a9.91 9.91 0 0 1 10.078 0c.168.1.352.204.544.314.713.404 1.545.876 2.125 1.444.36.352.514.643.538.868.02.178-.025.472-.476.902-1.036.986-2.088 1.596-3.36 1.596H7.59c-1.272 0-2.325-.61-3.36-1.596-.451-.43-.497-.724-.477-.902.025-.225.178-.516.538-.868.58-.568 1.412-1.04 2.125-1.444q.291-.164.544-.314m11.268-1.047q-.246-.138-.423-.242a11.41 11.41 0 0 0-11.612 0c-.116.07-.26.15-.423.242-.712.402-1.79 1.01-2.528 1.733-.462.452-.9 1.047-.98 1.777-.085.776.253 1.504.933 2.15 1.171 1.117 2.577 2.011 4.395 2.011h8.818c1.819 0 3.224-.894 4.396-2.01.679-.647 1.017-1.375.933-2.151-.08-.73-.519-1.325-.98-1.777-.739-.723-1.816-1.33-2.529-1.733" clip-rule="evenodd"/></svg>