<svg xmlns="http://www.w3.org/2000/svg" fill="none" viewBox="0 0 24 24"><path fill="currentColor" fill-rule="evenodd" d="m20.046 3.498-.528-1.065c-.285-.577-.753-.577-1.04 0l-.529 1.065a.65.65 0 0 1-.423.317l-.956.16c-.612.104-.753.551-.315.993l.744.75a.66.66 0 0 1 .156.547l-.213.929c-.168.732.222 1.019.863.635l.897-.535a.64.64 0 0 1 .594 0l.897.535c.645.384 1.032.1.864-.635l-.213-.929A.66.66 0 0 1 21 5.718l.744-.75c.441-.442.297-.89-.315-.992l-.957-.16a.65.65 0 0 1-.426-.318M4.752 14.538q.239-.13.428-.242a9.61 9.61 0 0 1 9.64 0q.19.111.428.243c1.433.798 3.927 2.187 2.118 3.883-.98.92-2.073 1.578-3.447 1.578H6.081c-1.374 0-2.467-.658-3.448-1.578-1.808-1.696.686-3.085 2.119-3.883" clip-rule="evenodd" opacity=".4"/><path fill="currentColor" fill-rule="evenodd" d="M10 2.75a3.25 3.25 0 1 0 0 6.5 3.25 3.25 0 0 0 0-6.5M5.25 6a4.75 4.75 0 1 1 9.5 0 4.75 4.75 0 0 1-9.5 0m9.95 7.65c.1.058.226.128.369.207.632.352 1.604.891 2.27 1.532.415.4.825.941.9 1.615.08.721-.243 1.387-.86 1.965-1.05.985-2.317 1.781-3.96 1.781H6.081c-1.642 0-2.91-.796-3.96-1.78-.617-.579-.939-1.245-.859-1.966.075-.674.484-1.214.9-1.615.591-.57 1.425-1.06 2.047-1.408l.223-.124q.216-.119.369-.208c3.183-1.865 7.215-1.865 10.398 0m-9.64 1.293q-.154.09-.321.184l-.17.095c-.633.353-1.36.76-1.866 1.247-.315.304-.432.539-.45.7-.013.114.006.342.394.706.912.855 1.829 1.375 2.934 1.375h7.838c1.105 0 2.023-.52 2.935-1.375.387-.364.406-.592.393-.706-.017-.161-.134-.396-.45-.7-.434-.418-1.03-.776-1.589-1.092l-.276-.155q-.261-.145-.491-.279c-2.715-1.59-6.167-1.59-8.881 0M19 1.25c.608 0 .996.455 1.19.85l.492.99.872.146c.438.074.963.317 1.143.88.179.563-.107 1.066-.42 1.38l-.682.687.194.844c.098.429.128 1.11-.414 1.508-.546.401-1.188.163-1.566-.062L19 7.99l-.808.483c-.38.227-1.02.462-1.565.061-.541-.398-.514-1.077-.415-1.508l.193-.843-.681-.687c-.313-.315-.597-.816-.42-1.378.18-.564.704-.808 1.143-.882l.869-.145.491-.991c.197-.396.585-.85 1.194-.85m-.002 1.822-.375.757a1.34 1.34 0 0 1-.403.474 1.34 1.34 0 0 1-.566.252l-.645.108.523.527c.174.176.276.392.328.579.053.186.08.42.027.659l-.127.555.563-.336c.224-.132.471-.176.678-.176.206 0 .455.044.68.179l.559.333-.127-.555a1.36 1.36 0 0 1 .026-.66c.053-.186.154-.402.33-.578l.522-.527-.642-.108a1.35 1.35 0 0 1-.57-.251 1.34 1.34 0 0 1-.405-.475z" clip-rule="evenodd"/></svg>