<svg xmlns="http://www.w3.org/2000/svg" fill="none" viewBox="0 0 24 24"><path fill="currentColor" d="M12 8c-2.76 0-5 2.24-5 5h10c0-2.76-2.24-5-5-5" opacity=".4"/><path fill="currentColor" fill-rule="evenodd" d="M11.25 4.5a.75.75 0 0 0 1.5 0V3a.75.75 0 0 0-1.5 0zm5 8.5a.75.75 0 0 0 1.5 0A5.756 5.756 0 0 0 12 7.25 5.756 5.756 0 0 0 6.25 13a.75.75 0 0 0 1.5 0A4.255 4.255 0 0 1 12 8.75 4.255 4.255 0 0 1 16.25 13M5.99 7.74a.74.74 0 0 1-.53-.22L4.4 6.46A.75.75 0 1 1 5.46 5.4l1.06 1.06a.75.75 0 0 1-.53 1.28m14.51 6.01H22a.75.75 0 0 0 0-1.5h-1.5a.75.75 0 0 0 0 1.5m-17 0H2a.75.75 0 0 1 0-1.5h1.5a.75.75 0 0 1 0 1.5m13.978-6.23a.75.75 0 0 0 1.061 0l1.06-1.06a.75.75 0 1 0-1.061-1.06l-1.06 1.06a.75.75 0 0 0 0 1.06M8.5 21.75c-1.068 0-1.713 0-2.231-.501l-.018-.018c-.501-.518-.501-1.163-.501-2.23V16a.75.75 0 0 1 1.5 0v3c0 .476 0 1.065.071 1.179.113.071.702.071 1.179.071s1.065 0 1.179-.071c.071-.113.071-.702.071-1.179v-3a.75.75 0 0 1 1.5 0v3c0 1.068 0 1.713-.501 2.231l-.018.018c-.518.501-1.163.501-2.23.501zm6.304-.471a.75.75 0 0 0 .696.47h.002a.75.75 0 0 0 .696-.47l2-5a.75.75 0 1 0-1.393-.557L15.5 18.98l-1.304-3.26a.75.75 0 1 0-1.393.558z" clip-rule="evenodd"/></svg>