<svg xmlns="http://www.w3.org/2000/svg" fill="none" viewBox="0 0 24 24"><path fill="currentColor" d="M2.5 5.5H12l.95 3.86c.17.669.77 1.14 1.46 1.14H20c1.53.5 1.53.6 1.77 1.057.23.437.23.955.23 1.992 0 1.367 0 2.05-.41 2.484l-.06.055c-.43.412-1.11.412-2.48.412H19c0-1.105-.9-2-2-2s-2 .895-2 2H9c0-1.105-.9-2-2-2s-2 .895-2 2c-.32 0-.61 0-.77-.033-.16-.034-.3-.1-.59-.231L2 15.5c0-3.194.48-5.038 1.11-6.55.41-.992.61-1.488.53-1.929C3.55 6.579 2.5 5.5 2.5 5.5" opacity=".4"/><path fill="currentColor" fill-rule="evenodd" d="M16.398 5.182c.815.434 1.32 1.167 2.237 2.498.57.835 1.15 1.408 1.95 1.923.975.623 1.513.967 1.848 1.606.316.6.316 1.219.316 2.341 0 1.514 0 2.348-.615 2.999l-.029.029-.067.062c-.555.525-1.25.599-2.393.61a2.755 2.755 0 0 1-2.646 2 2.756 2.756 0 0 1-2.646-2H9.645a2.756 2.756 0 0 1-2.646 2 2.756 2.756 0 0 1-2.65-2.014q-.15-.01-.271-.035c-.233-.05-.416-.132-.693-.258l-.054-.024-1.638-.735a.75.75 0 0 1-.443-.684c0-3.556.59-5.453 1.168-6.838.293-.708.508-1.229.488-1.476-.075-.163-.384-.557-.73-.936H2a.75.75 0 0 1 0-1.5h11.643c1.264.007 2.035.054 2.755.432M6.999 15.25c-.689 0-1.25.561-1.25 1.25s.561 1.25 1.25 1.25 1.25-.561 1.25-1.25-.561-1.25-1.25-1.25m10 0c-.689 0-1.25.561-1.25 1.25s.561 1.25 1.25 1.25 1.25-.561 1.25-1.25-.561-1.25-1.25-1.25m-5.588-9.001h-7.32c.142.223.245.436.283.621l.003.016c.121.666-.141 1.3-.575 2.349-.495 1.188-1 2.8-1.049 5.78l1.25.561c.19.086.29.13.357.15a2.755 2.755 0 0 1 2.639-1.976c1.256 0 2.319.847 2.646 2h4.708c.327-1.153 1.39-2 2.646-2s2.318.846 2.646 1.998c.72-.006 1.196-.04 1.365-.202l.01-.008.008-.009.027-.024c.166-.197.19-.733.193-1.535v-.806c-.003-.703-.024-1.034-.143-1.259-.11-.21-.35-.4-.82-.711a.8.8 0 0 1-.286.056h-5.59a2.26 2.26 0 0 1-2.187-1.705zm2.16 0h-.616l.722 2.932a.756.756 0 0 0 .732.569h3.983a8.7 8.7 0 0 1-.993-1.221c-.808-1.173-1.214-1.762-1.702-2.022-.43-.226-1.03-.254-2.126-.257" clip-rule="evenodd"/></svg>