<svg xmlns="http://www.w3.org/2000/svg" fill="none" viewBox="0 0 24 24"><path fill="currentColor" d="M14 12a2 2 0 1 1-4 0 2 2 0 0 1 4 0" opacity=".4"/><path fill="currentColor" fill-rule="evenodd" d="M11.138 2.53c.215-.13.521-.28.862-.28s.647.15.862.28c.235.142.475.33.704.533.461.407.953.936 1.396 1.445a36 36 0 0 1 1.606 1.999l.026.035.01.012v.001a.75.75 0 0 1-1.208.89l-.001-.002-.006-.008-.024-.032-.092-.123a35 35 0 0 0-1.444-1.788c-.426-.49-.868-.962-1.256-1.305a3.6 3.6 0 0 0-.486-.373A1 1 0 0 0 12 3.766q-.032.015-.087.048-.193.115-.486.373c-.388.343-.83.814-1.256 1.305a34 34 0 0 0-1.536 1.911l-.024.032-.007.01a.75.75 0 0 1-1.208-.89l.003-.004.007-.009.026-.035a26 26 0 0 1 .454-.593 35 35 0 0 1 1.152-1.406c.443-.51.935-1.038 1.396-1.445.23-.203.469-.392.704-.533M12 10.75a1.25 1.25 0 1 0 0 2.5 1.25 1.25 0 0 0 0-2.5M9.25 12a2.75 2.75 0 1 1 5.5 0 2.75 2.75 0 0 1-5.5 0m-.646 4.555a.75.75 0 1 0-1.208.89l.003.003.007.01.026.035a28 28 0 0 0 .453.594c.298.38.708.892 1.153 1.405.443.51.935 1.038 1.396 1.445.23.203.469.391.704.534.215.129.521.28.862.279.34 0 .647-.15.862-.28a5 5 0 0 0 .704-.533c.461-.407.953-.936 1.396-1.445a36 36 0 0 0 1.606-1.999l.026-.035.007-.01.003-.003a.75.75 0 1 0-1.208-.89l-.001.002-.006.008-.024.032a34 34 0 0 1-1.536 1.911c-.426.491-.868.962-1.256 1.305a3.6 3.6 0 0 1-.486.373 1 1 0 0 1-.087.048 1 1 0 0 1-.087-.048 3.6 3.6 0 0 1-.486-.373c-.388-.343-.83-.814-1.256-1.305a34 34 0 0 1-1.536-1.911l-.024-.032-.006-.008z" clip-rule="evenodd"/></svg>