<svg xmlns="http://www.w3.org/2000/svg" fill="none" viewBox="0 0 24 24"><path fill="currentColor" fill-rule="evenodd" d="M15.023 3.116C14.288 2.376 12.748 2 12.002 2s-2.286.375-3.021 1.116c-.534.538-.802.807-.894.846-.076.031-1.038.084-1.533.101a.52.52 0 0 0-.393.197L5.006 5.726V17.87c0 .085.021.17.064.242.295.505.905 1.417 1.15 1.72.055.07.138.099.227.101.447.013 1.558.071 1.64.105.092.039.36.308.894.846.735.74 2.275 1.116 3.02 1.116.747 0 2.287-.375 3.022-1.116.534-.538.802-.807.894-.846.082-.034 1.193-.092 1.64-.105a.3.3 0 0 0 .228-.1c.246-.304.86-1.216 1.157-1.72a.5.5 0 0 0 .064-.243V6.13a.5.5 0 0 0-.064-.242c-.296-.505-.911-1.417-1.157-1.72a.3.3 0 0 0-.228-.101c-.447-.013-1.558-.071-1.64-.105-.092-.039-.36-.308-.894-.846M12.006 14a4 4 0 1 0 0-8 4 4 0 0 0 0 8" clip-rule="evenodd" opacity=".4"/><path fill="currentColor" fill-rule="evenodd" d="M3.25 18a.75.75 0 0 1 .75-.75q.13 0 .254.011V6.74A3 3 0 0 1 4 6.75a.75.75 0 0 1 0-1.5c.5 0 .871-.278 1.083-.66l.01-.018c.143-.257.264-.474.364-.635.052-.084.11-.17.173-.249.058-.071.157-.181.3-.265a1.3 1.3 0 0 1 .567-.162c.14-.011.309-.011.48-.011h.772l.03-.001.068-.064c.137-.132.33-.326.6-.598.489-.493 1.188-.818 1.806-1.02.625-.204 1.277-.317 1.747-.317s1.122.113 1.748.317c.617.202 1.316.527 1.805 1.02a42 42 0 0 0 .668.662h.03l.178.001h.594c.171 0 .34 0 .48.01a1.3 1.3 0 0 1 .568.163c.142.084.24.194.298.265.064.078.122.165.174.249.1.16.221.378.364.635l.01.018c.212.382.583.66 1.083.66a.75.75 0 0 1 0 1.5q-.126 0-.246-.01v10.52q.12-.01.246-.01a.75.75 0 0 1 0 1.5c-.5 0-.871.278-1.083.66l-.01.018c-.143.257-.264.474-.364.635-.052.084-.11.17-.174.249a1.1 1.1 0 0 1-.298.265 1.3 1.3 0 0 1-.568.162c-.14.011-.309.011-.48.011h-.772l-.03.001-.068.064c-.137.131-.33.326-.6.598-.489.493-1.188.818-1.806 1.02-.625.204-1.277.317-1.747.317s-1.122-.113-1.748-.317c-.617-.202-1.316-.527-1.805-1.02a41 41 0 0 0-.668-.662h-.03l-.178-.001h-.594c-.171 0-.34 0-.48-.01a1.3 1.3 0 0 1-.568-.163 1.1 1.1 0 0 1-.299-.265 3 3 0 0 1-.173-.249c-.1-.16-.221-.378-.364-.635l-.01-.018c-.212-.382-.583-.66-1.083-.66a.75.75 0 0 1-.75-.75M5.754 6.105v11.79c.266.228.481.5.64.786.147.265.247.443.323.567l.041.001.242.001h.589c.125 0 .25 0 .354.006.106.006.266.021.43.09.14.058.253.153.297.19l.002.001c.065.055.137.123.214.196q.227.22.617.615l.008.008c.246.248.685.48 1.208.651.514.168 1.006.243 1.281.243s.767-.075 1.281-.243c.523-.17.962-.403 1.208-.65l.008-.01q.39-.395.617-.614a5 5 0 0 1 .214-.196h.002c.044-.038.156-.133.297-.191.164-.069.324-.084.43-.09.104-.006.229-.006.354-.006H17l.241-.001h.042c.076-.125.176-.303.323-.568a2.9 2.9 0 0 1 .648-.793V6.112a2.9 2.9 0 0 1-.648-.793 18 18 0 0 0-.323-.567l-.042-.001L17 4.75h-.589c-.125 0-.25 0-.354-.006a1.3 1.3 0 0 1-.43-.09 1.2 1.2 0 0 1-.297-.19l-.002-.001a5 5 0 0 1-.214-.196q-.227-.22-.617-.615l-.008-.008c-.246-.248-.685-.48-1.208-.651-.514-.168-1.006-.243-1.281-.243s-.767.075-1.281.243c-.523.17-.962.403-1.208.65l-.008.01q-.39.393-.617.614a5 5 0 0 1-.214.196H8.67a1.2 1.2 0 0 1-.297.191 1.3 1.3 0 0 1-.43.09c-.104.006-.229.006-.354.006H7l-.242.001h-.041c-.076.125-.176.303-.323.568a2.9 2.9 0 0 1-.64.786m11.45 13.263q-.006.007 0-.001zm-10.408 0 .002.003zM17.205 4.633l-.001-.001zM8.754 10a3.25 3.25 0 1 1 6.5 0 3.25 3.25 0 0 1-6.5 0m-1.5 0a4.75 4.75 0 0 0 4 4.691v2.559h-.25a.75.75 0 0 0 0 1.5h2a.75.75 0 0 0 0-1.5h-.25v-2.559A4.751 4.751 0 1 0 7.254 10m6.28-.47a.75.75 0 0 0-1.06-1.06l-1 1a.75.75 0 1 0 1.06 1.06z" clip-rule="evenodd"/></svg>