<svg xmlns="http://www.w3.org/2000/svg" fill="none" viewBox="0 0 24 24"><path fill="currentColor" d="M7.877 21.113c.682-1.047.643-2.4.606-3.72-.009-.301-.018-.6-.018-.894 1.035-1.166 3.896-2.8 7.069 0q-.002.438-.017.887c-.037 1.32-.076 2.678.606 3.727A10 10 0 0 0 22 12c0-5.523-4.477-10-10-10S2 6.477 2 12a10 10 0 0 0 5.877 9.113" opacity=".4"/><path fill="currentColor" fill-rule="evenodd" d="m9.231 17.302-.014-.57A4.4 4.4 0 0 1 12 15.75c1.06 0 2.03.37 2.782.982q-.005.27-.014.564c-.02.741-.044 1.575.06 2.325.154 1.104.593 2.21 1.75 2.999a.75.75 0 0 0 .845-1.24c-.7-.476-.993-1.13-1.109-1.965l-.02-.161a.75.75 0 0 0 1.44-.406C17.19 16.214 14.821 14.25 12 14.25c-2.82 0-5.189 1.964-5.735 4.598a.75.75 0 0 0 1.442.402l-.02.167c-.116.833-.41 1.485-1.11 1.963a.75.75 0 1 0 .846 1.24c1.157-.79 1.596-1.893 1.75-2.997.103-.748.08-1.58.058-2.321M12.75 19a.75.75 0 0 0-1.5 0v2a.75.75 0 0 0 1.5 0zm-10-7a9.25 9.25 0 0 1 18.5 0 9.2 9.2 0 0 1-2.22 6.012.75.75 0 0 0 1.14.976A10.7 10.7 0 0 0 22.75 12c0-5.937-4.813-10.75-10.75-10.75S1.25 6.063 1.25 12c0 2.667.972 5.109 2.58 6.988a.75.75 0 0 0 1.14-.976A9.2 9.2 0 0 1 2.75 12m5.166-4.624a.75.75 0 0 0-.832 1.248c.104.07.229.145.34.212l.098.06q.218.13.391.257c.258.193.296.299.299.316l.003.025a.6.6 0 0 1-.101.178c-.135.19-.355.428-.718.816a.75.75 0 0 0 1.097 1.024l.031-.034c.322-.344.612-.655.812-.936.217-.305.404-.676.376-1.135a2 2 0 0 0-.022-.194c-.107-.614-.556-1.02-.878-1.26a7 7 0 0 0-.51-.339l-.126-.076a7 7 0 0 1-.26-.162m.3 2.11-.001.008zm8.7-.862a.75.75 0 1 0-.832-1.248c-.074.05-.156.099-.259.161h-.001l-.126.077a7 7 0 0 0-.51.338c-.321.241-.771.647-.878 1.261a2 2 0 0 0-.022.194c-.028.459.16.83.376 1.135.2.281.49.592.812.936l.031.034a.75.75 0 0 0 1.097-1.024c-.363-.388-.583-.626-.718-.816a.6.6 0 0 1-.1-.178l.002-.025c.003-.017.041-.123.299-.316a5 5 0 0 1 .489-.317c.112-.067.236-.142.34-.212m-1.131.864v.007z" clip-rule="evenodd"/></svg>