<svg xmlns="http://www.w3.org/2000/svg" fill="none" viewBox="0 0 24 24"><path fill="currentColor" fill-rule="evenodd" d="M22 13.002v2c0 2.829 0 4.243-.879 5.122-.878.878-2.293.878-5.121.878h-6c-3.771 0-5.657 0-6.828-1.171S2 16.774 2 13.002v-2c0-1.668 0-2.968.101-4H18c.58-.08 2.018-.018 3.121.88.879.878.879 2.292.879 5.12m-4.498 2a1.5 1.5 0 1 1 0-3 1.5 1.5 0 0 1 0 3" clip-rule="evenodd" opacity=".4"/><path fill="currentColor" fill-rule="evenodd" d="M15.582 3.827c-.262-.07-.604-.077-1.582-.077h-4c-1.907 0-3.261.002-4.29.14-1.005.135-1.585.389-2.008.812s-.677 1.003-.812 2.009C2.752 7.739 2.75 9.093 2.75 11v4a.75.75 0 1 1-1.5 0v-4.056c0-1.838 0-3.294.153-4.433.158-1.172.49-2.121 1.238-2.87.749-.748 1.698-1.08 2.87-1.238 1.14-.153 2.595-.153 4.433-.153h4.172c.818 0 1.376 0 1.855.128a3.75 3.75 0 0 1 2.651 2.651c.096.356.12.756.126 1.274q.342.023.644.064c.9.12 1.658.38 2.26.981.602.602.86 1.36.982 2.26.116.867.116 1.97.116 3.337v2.11c0 1.367 0 2.47-.116 3.337-.122.9-.38 1.658-.982 2.26s-1.36.86-2.26.982c-.867.116-1.97.116-3.337.116H10.5a.75.75 0 1 1 0-1.5H16c1.435 0 2.436-.002 3.192-.103.734-.099 1.122-.28 1.399-.556.277-.277.457-.665.556-1.4.101-.754.103-1.755.103-3.191v-2c0-1.435-.002-2.437-.103-3.192-.099-.734-.28-1.122-.556-1.399-.277-.277-.665-.457-1.4-.556-.755-.101-1.756-.103-3.191-.103h-6a.75.75 0 0 1 0-1.5h6.055q.633 0 1.191.003c-.006-.437-.024-.655-.073-.835a2.25 2.25 0 0 0-1.59-1.591m-4.866 10.948a.75.75 0 0 1-.491.94c-1.394.438-2.774 1.778-3.856 3.135a21 21 0 0 0-1.686 2.466l-.021.037-.005.008v.002a.75.75 0 0 1-1.37-.13l-.003-.01-.017-.047a4 4 0 0 0-.386-.762c-.298-.45-.602-.664-.881-.664a.75.75 0 0 1 0-1.5c1.005 0 1.679.69 2.06 1.23a22 22 0 0 1 1.136-1.565c1.107-1.388 2.727-3.049 4.58-3.63a.75.75 0 0 1 .94.49M18.25 13.5a.75.75 0 1 0-1.5 0 .75.75 0 0 0 1.5 0m-.75-2.25a2.25 2.25 0 1 1 0 4.5 2.25 2.25 0 0 1 0-4.5" clip-rule="evenodd"/></svg>