<svg xmlns="http://www.w3.org/2000/svg" fill="none" viewBox="0 0 24 24"><path fill="currentColor" d="M9.841 21h5.881c2.092 0 3.395 0 4.278-.375L3.47 4q-.17.129-.322.282C2 5.446 2 7.32 2 11.066v1.987c0 3.746 0 5.62 1.148 6.783C4.297 21 6.145 21 9.841 21" opacity=".4"/><path fill="currentColor" fill-rule="evenodd" d="M2.53 1.47a.75.75 0 0 0-1.06 1.06l1.184 1.184-.042.042c-.734.744-1.06 1.688-1.214 2.851-.15 1.131-.15 2.577-.15 4.403v2.098c0 1.826 0 3.272.15 4.404.154 1.163.48 2.106 1.214 2.85.737.747 1.671 1.079 2.824 1.236 1.118.152 2.546.152 4.346.152h5.962c1.026 0 1.896 0 2.619-.049.715-.048 1.351-.146 1.902-.375l1.205 1.204a.75.75 0 1 0 1.06-1.06zm16.525 18.645L3.715 4.775l-.035.034c-.413.42-.662.995-.795 1.995-.135 1.022-.137 2.368-.137 4.262v1.987c0 1.894.002 3.24.137 4.261.133 1.001.382 1.576.795 1.995.412.418.976.668 1.959.802 1.005.137 2.33.139 4.2.139h5.881c1.055 0 1.875 0 2.542-.045.308-.02.569-.05.793-.09M14.114 2.25c.818 0 1.376 0 1.854.128a3.75 3.75 0 0 1 2.652 2.651c.095.356.12.756.126 1.274q.34.023.644.064c.9.12 1.658.38 2.26.981.601.602.86 1.36.981 2.26.117.867.117 1.97.117 3.337v2.074c0 .98 0 1.818-.04 2.523a.75.75 0 1 1-1.497-.084c.037-.658.037-1.455.037-2.458v-2c0-1.435-.002-2.437-.103-3.192-.099-.734-.28-1.122-.556-1.399-.277-.277-.665-.457-1.4-.556-.755-.101-1.756-.103-3.191-.103H11.24a.75.75 0 0 1 0-1.5h4.812q.633 0 1.191.003c-.006-.437-.024-.655-.073-.835a2.25 2.25 0 0 0-1.59-1.591c-.263-.07-.605-.077-1.583-.077h-4c-.949 0-1.765 0-2.48.018a.75.75 0 0 1-.039-1.5c.737-.018 1.572-.018 2.511-.018h4.124m3.168 9a2.4 2.4 0 0 0-1.135.285.75.75 0 0 0 .707 1.322.9.9 0 0 1 .428-.107c.503 0 .968.437.968 1.05q-.002.227-.08.42a.75.75 0 1 0 1.391.56 2.6 2.6 0 0 0 .19-.98c0-1.375-1.074-2.55-2.47-2.55" clip-rule="evenodd"/></svg>