<svg xmlns="http://www.w3.org/2000/svg" fill="none" viewBox="0 0 24 24"><path fill="currentColor" d="M3.004 8.5h12c2.83 0 4.24 0 5.12.88s.88 2.29.88 5.12v1c0 2.83 0 4.24-.88 5.12s-2.29.88-5.12.88h-6c-2.83 0-4.24 0-5.12-.88s-.88-2.29-.88-5.12z" opacity=".4"/><path fill="currentColor" fill-rule="evenodd" d="M13.004 3.35c.12-.07.26-.1.39-.1.48 0 .86.39.86.86v3.64h-9.82zM2.254 8.5c0-.81.45-1.55 1.17-1.92l8.89-4.57a2.364 2.364 0 0 1 3.44 2.1v3.64c1.05 0 1.93.02 2.64.12.9.12 1.66.38 2.26.98s.86 1.36.98 2.26c.12.87.12 1.97.12 3.34v1.1c0 1.37 0 2.47-.12 3.34-.12.9-.38 1.66-.98 2.26s-1.36.86-2.26.98c-.87.12-1.97.12-3.34.12h-6.11c-1.37 0-2.47 0-3.34-.12-.9-.12-1.66-.38-2.26-.98s-.86-1.36-.98-2.26c-.12-.87-.12-1.97-.12-3.34V8.5zm12.75.75c1.43 0 2.44 0 3.19.1.73.1 1.12.28 1.4.56s.46.66.56 1.4c.1.75.1 1.75.1 3.19v1c0 1.44 0 2.44-.1 3.19-.1.74-.28 1.12-.56 1.4s-.67.46-1.4.56c-.76.1-1.76.1-3.19.1h-6c-1.43 0-2.44 0-3.19-.1-.73-.1-1.12-.28-1.4-.56s-.46-.66-.56-1.4c-.1-.75-.1-1.75-.1-3.19V9.25z" clip-rule="evenodd"/></svg>