<svg xmlns="http://www.w3.org/2000/svg" fill="none" viewBox="0 0 24 24"><path fill="currentColor" fill-rule="evenodd" d="M7.88 2.015h10.64c1.39 0 2.09 0 2.38.48.28.47-.03 1.12-.66 2.42-.04.07-.07.15-.11.22-.22.44-.42.85-.42 1.35v11.52c0 1.89 0 2.83-.57 3.41-.56.59-1.47.59-3.29.59H5.48c-1.39 0-2.09 0-2.38-.47-.28-.48.03-1.13.66-2.42.04-.08.07-.15.11-.23.22-.43.42-.84.42-1.35v-6.19c0-.83.67-1.54 1.17-2.07.31-.32.55-.57.56-.76s-.25-.46-.57-.79c-.5-.51-1.16-1.19-1.16-1.98 0-1.62 0-2.43.43-2.98.62-.8 1.75-.77 2.72-.75zm1.82 9.65c.07-.04.14-.07.19-.1 1.29-.75 2.93-.75 4.22 0 .05.03.12.06.19.1.62.34 1.71.94.92 1.66-.43.4-.9.68-1.51.68h-3.42c-.61 0-1.08-.28-1.51-.68-.79-.72.3-1.32.92-1.66m2.3-2.66c.83 0 1.5-.67 1.5-1.5s-.67-1.5-1.5-1.5-1.5.67-1.5 1.5.67 1.5 1.5 1.5" clip-rule="evenodd" opacity=".4"/><path fill="currentColor" fill-rule="evenodd" d="M5.474 22.753h10.363v.001c1.964 0 3.046 0 3.827-.819.78-.799.78-1.912.78-3.93V6.484c0-.327.149-.628.338-1.009q.06-.118.116-.235c.698-1.44 1.119-2.309.627-3.135-.509-.842-1.454-.842-3.02-.842H7.872q-.156 0-.323-.005l-.097-.002h-.001c-1.045-.023-2.476-.054-3.327 1.045-.589.754-.589 1.709-.589 3.442 0 1.102.826 1.95 1.373 2.51.077.077.168.17.244.253-.064.071-.14.15-.206.22l-.032.034-.003.003c-.548.578-1.376 1.45-1.376 2.58v6.19c0 .322-.147.622-.334 1.002l-.044.091-.078.161v.001c-.697 1.428-1.117 2.29-.631 3.122l.01.016c.51.826 1.453.826 3.016.826m-1.734-1.61c.192.111 1.01.111 1.733.111h10.363c1.669 0 2.42-.014 2.744-.356l.009-.009c.355-.36.355-1.257.355-2.884V6.484c0-.678.263-1.208.496-1.676l.107-.219.007-.013c.337-.697.715-1.477.683-1.697-.162-.115-.996-.115-1.732-.115H7.872q-.218 0-.454-.007h-.001c-.845-.019-1.72-.039-2.11.466-.273.35-.273 1.12-.273 2.52v.001c0 .491.525 1.029.946 1.461.431.441.803.822.782 1.34-.02.47-.347.814-.762 1.25-.43.453-.966 1.017-.966 1.55v6.19c0 .67-.259 1.198-.486 1.663l-.03.062-.085.174-.004.01-.002.005c-.32.656-.716 1.467-.686 1.693m5.25-2.392h5.997a.75.75 0 0 0 0-1.5H8.992a.75.75 0 0 0 0 1.5m3-9a2.25 2.25 0 0 1-2.25-2.25 2.25 2.25 0 0 1 2.249-2.25 2.25 2.25 0 0 1 2.248 2.25 2.25 2.25 0 0 1-2.248 2.25m0-3a.75.75 0 1 0 0 1.5.75.75 0 0 0 0-1.5m-1.708 8.007H13.7l-.002.001c.963 0 1.614-.503 2.014-.875.494-.449.553-.911.515-1.22-.104-.852-1.005-1.34-1.601-1.662l-.088-.048-.062-.034a4.95 4.95 0 0 0-4.966-.003L9.356 11c-.597.323-1.497.81-1.6 1.662-.038.309.02.771.507 1.214.407.378 1.057.881 2.02.881m0-1.5c-.329 0-.62-.135-.973-.455.187-.173.605-.399.759-.482l.171-.094.01-.006.01-.005a3.5 3.5 0 0 1 3.473.005l.181.1.015.008c.165.09.562.306.744.474-.349.318-.642.455-.973.455z" clip-rule="evenodd"/></svg>