<svg xmlns="http://www.w3.org/2000/svg" fill="none" viewBox="0 0 24 24"><path fill="currentColor" d="M7.327 16.717 8.857 6h6.286l1.531 10.717c.152 1.062.228 1.593-.071 1.938s-.836.345-1.908.345H9.307c-1.073 0-1.61 0-1.909-.345s-.223-.876-.071-1.938" opacity=".4"/><path fill="currentColor" fill-rule="evenodd" d="M12 1.25c.443 0 .79.193 1.075.415.258.203.538.49.845.804l.031.032.025.026.58.722.059.073c.455.567.771.96.972 1.423.201.465.272.963.375 1.682l.013.094 1.71 11.967q.244.08.479.206c.45.241.798.573 1.136.99.323.398.666.913 1.086 1.543l.015.023H21a.75.75 0 0 1 0 1.5H3a.75.75 0 0 1 0-1.5h.599l.015-.023c.42-.63.763-1.145 1.086-1.543.338-.417.686-.749 1.136-.99q.235-.126.48-.206l1.71-11.967.013-.094c.102-.719.173-1.217.374-1.682.202-.464.517-.856.972-1.423l.059-.073.58-.722.025-.026.032-.032c.306-.314.586-.6.845-.804.284-.222.631-.415 1.074-.415m3.287 18.5H8.714c-.54.003-.948.01-1.285.041-.417.04-.672.111-.885.225s-.414.286-.679.612c-.14.173-.287.376-.457.622h13.185a11 11 0 0 0-.458-.622c-.264-.326-.466-.498-.679-.612s-.468-.186-.885-.225a15 15 0 0 0-1.284-.04m-.795-13H9.508L7.863 18.263q.345-.01.749-.012h2.638V13a.75.75 0 0 1 1.5 0v5.25h2.639q.403 0 .748.012zm-2.492-4-.007.003a.7.7 0 0 0-.143.093c-.165.13-.369.334-.702.676l-.534.665c-.472.587-.665.836-.78 1.062h4.333c-.115-.226-.309-.475-.78-1.062l-.535-.665c-.333-.342-.536-.547-.701-.676a.7.7 0 0 0-.144-.093z" clip-rule="evenodd"/></svg>