<svg xmlns="http://www.w3.org/2000/svg" fill="none" viewBox="0 0 24 24"><path fill="currentColor" d="m4.5 5 .605 10.536c.154 2.57.232 3.856.874 4.78.317.458.726.843 1.2 1.133.582.356 1.284.496 2.321.551h3.044c1.133 0 2.018 0 2.728-.065A3.99 3.99 0 0 1 12.533 20c-.696-1.206-.552-2.645-.4-3.035a4 4 0 0 1 6.532-1.947L19 11.5l.5-6.5z" opacity=".4"/><path fill="currentColor" fill-rule="evenodd" d="M11.53 3.307a1.25 1.25 0 0 1 1.04-.557h4.488a1.25 1.25 0 0 1 1.186.855l.215.645h-7.558zm8.137-.177.374 1.12H21a.75.75 0 0 1 0 1.5h-.805l-.447 5.807a.75.75 0 1 1-1.496-.114l.438-5.693H5.294l.56 9.741v.001c.078 1.3.134 2.221.246 2.936.11.702.265 1.13.495 1.46.258.372.59.686.975.921.42.256.967.389 1.97.442a.75.75 0 1 1-.08 1.498c-1.07-.057-1.927-.204-2.672-.66a4.8 4.8 0 0 1-1.425-1.345c-.412-.593-.617-1.27-.745-2.084-.124-.794-.184-1.787-.26-3.04l-.002-.039v-.002L3.792 5.75H3a.75.75 0 0 1 0-1.5h5.43a1.25 1.25 0 0 0 1.04-.557l.812-1.218A2.75 2.75 0 0 1 12.57 1.25h4.488a2.75 2.75 0 0 1 2.61 1.88M17.23 13.413a4.75 4.75 0 0 0-5.274 2.095l-.362-.467a.75.75 0 1 0-1.186.919l1.136 1.465a.75.75 0 0 0 1.318-.265 3.25 3.25 0 0 1 5.983-.732.75.75 0 1 0 1.312-.726 4.74 4.74 0 0 0-2.927-2.289m1.91 5.43a.75.75 0 0 1 1.317-.267l1.136 1.464a.75.75 0 1 1-1.184.92l-.363-.467a4.752 4.752 0 0 1-8.159-.117.75.75 0 0 1 1.3-.75 3.25 3.25 0 0 0 5.954-.784" clip-rule="evenodd"/></svg>