<svg xmlns="http://www.w3.org/2000/svg" fill="none" viewBox="0 0 24 24"><path fill="currentColor" d="M19 12a7 7 0 1 1-14 0 7 7 0 0 1 14 0" opacity=".4"/><path fill="currentColor" fill-rule="evenodd" d="M13.7 1.3c-.451-.05-1.003-.05-1.658-.05h-.081c-.656 0-1.208 0-1.658.05-.478.052-.917.167-1.317.447a3 3 0 0 0-.227.177c-.368.32-.586.718-.753 1.169-.158.425-.291.96-.45 1.596l-.283 1.13.04.009A7.74 7.74 0 0 0 4.25 12a7.74 7.74 0 0 0 3.065 6.174l-.042.01.273 1.09.01.039c.159.636.292 1.171.45 1.596.167.45.385.85.753 1.17q.109.093.227.176c.4.28.84.395 1.317.448.45.05 1.002.05 1.657.05h.081c.656 0 1.208 0 1.659-.05.477-.053.917-.168 1.316-.448q.118-.082.227-.177c.368-.32.586-.718.753-1.169.158-.425.292-.96.45-1.596l.283-1.129-.043-.01A7.74 7.74 0 0 0 19.75 12a7.74 7.74 0 0 0-3.062-6.172l.04-.01-.282-1.129c-.158-.635-.292-1.171-.45-1.596-.167-.45-.385-.85-.753-1.17a3 3 0 0 0-.227-.176c-.4-.28-.84-.395-1.316-.447M9.413 20.388c-.109-.292-.21-.672-.345-1.212.904.37 1.894.574 2.932.574s2.03-.204 2.935-.575c-.136.54-.237.92-.345 1.213-.12.322-.223.465-.33.558a1 1 0 0 1-.104.08c-.116.082-.28.148-.621.186-.359.04-.828.04-1.534.04s-1.175 0-1.534-.04c-.341-.038-.505-.104-.621-.186a1 1 0 0 1-.103-.08c-.108-.093-.211-.236-.33-.558m5.521-15.563c-.136-.54-.236-.919-.344-1.21-.12-.323-.223-.465-.33-.559a1 1 0 0 0-.104-.08c-.116-.082-.28-.148-.621-.185-.359-.04-.828-.041-1.534-.041s-1.175.001-1.534.04c-.341.038-.505.104-.621.186q-.054.038-.103.08c-.108.094-.211.236-.33.558-.109.292-.209.67-.345 1.21A7.7 7.7 0 0 1 12 4.25c1.038 0 2.029.204 2.934.575M5.75 12a6.25 6.25 0 1 1 12.5 0 6.25 6.25 0 0 1-12.5 0m7-2a.75.75 0 0 0-1.5 0v2.005c0 .2.08.39.221.532l1 .995a.75.75 0 0 0 1.058-1.064l-.779-.775z" clip-rule="evenodd"/></svg>