<svg xmlns="http://www.w3.org/2000/svg" fill="none" viewBox="0 0 24 24"><path fill="currentColor" fill-rule="evenodd" d="M1.25 21a.75.75 0 0 1 .75-.75h20a.75.75 0 0 1 0 1.5H2a.75.75 0 0 1-.75-.75" clip-rule="evenodd" opacity=".4"/><path fill="currentColor" fill-rule="evenodd" d="M8 10.75a.75.75 0 0 1-.75-.75V3a.75.75 0 0 1 1.5 0v7a.75.75 0 0 1-.75.75M11.25 13a.75.75 0 0 0 1.5 0v-3a.75.75 0 0 0-1.5 0zM16 15.75a.75.75 0 0 1-.75-.75v-5a.75.75 0 0 1 1.5 0v5a.75.75 0 0 1-.75.75m4 3a.75.75 0 0 1-.75-.75v-2a.75.75 0 0 1 1.5 0v2a.75.75 0 0 1-.75.75M3.25 10a.75.75 0 0 0 1.5 0V9a.75.75 0 0 0-1.5 0z" clip-rule="evenodd"/></svg>