<svg xmlns="http://www.w3.org/2000/svg" fill="none" viewBox="0 0 24 24"><path fill="currentColor" d="M21.5 15.548c-.104 2.1-.415 3.408-1.347 4.34-.93.931-2.24 1.242-4.34 1.346h-.515q.037-.075.069-.157c.133-.345.133-.782.133-1.655 0-.874 0-1.31-.133-1.655a1.82 1.82 0 0 0-.947-1.015c-.322-.143-.73-.143-1.545-.143h-1.75c-.815 0-1.223 0-1.545.143-.428.19-.77.555-.947 1.015-.133.344-.133.781-.133 1.655s0 1.31.133 1.655q.031.08.07.157h-.516c-2.1-.104-3.41-.415-4.34-1.346-.932-.932-1.243-2.24-1.347-4.34V8.734h19z" opacity=".4"/><path fill="currentColor" fill-rule="evenodd" d="M17.313 1.432c1.377.187 2.47.577 3.328 1.441s1.244 1.962 1.429 3.348c.18 1.352.18 3.085.18 5.293v.113c0 2.208 0 3.94-.18 5.294-.185 1.385-.572 2.483-1.429 3.347-.388.39-.83.69-1.334.916a.75.75 0 1 1-.614-1.368c.346-.156.633-.352.883-.605.534-.538.844-1.268 1.007-2.489.165-1.242.167-2.875.167-5.152 0-.86 0-1.63-.01-2.32H3.27c-.016.687-.02 1.456-.02 2.32 0 2.277.002 3.91.167 5.152.163 1.221.473 1.951 1.007 2.49.25.252.537.448.883.604a.75.75 0 1 1-.614 1.368 4.4 4.4 0 0 1-1.334-.916c-.857-.864-1.244-1.962-1.428-3.347-.181-1.353-.181-3.086-.181-5.294v-.057c0-2.243.026-3.97.237-5.318.216-1.37.636-2.43 1.48-3.28.846-.852 1.897-1.274 3.258-1.488C8.061 1.273 9.775 1.25 12 1.25h.057c2.19 0 3.912 0 5.256.182m3.27 4.987q.079.598.114 1.331H3.334q.047-.697.135-1.264c.187-1.186.517-1.907 1.063-2.458.546-.55 1.256-.878 2.427-1.063C8.157 2.776 9.747 2.75 12 2.75c2.26 0 3.88.002 5.111.168 1.21.164 1.932.475 2.465 1.012.534.538.844 1.268 1.007 2.489M7 4.5a1 1 0 0 0 0 2h.009a1 1 0 0 0 0-2zm3 1a1 1 0 0 1 1-1h.009a1 1 0 1 1 0 2H11a1 1 0 0 1-1-1m1.086 8.824c.419-.833 1.595-.72 1.876.082l.004.011c.007.019.024.088.035.232.01.136.01.291.009.463l-.002.516H11.01v-.693c0-.356 0-.47.066-.59l.006-.01zm5.033 3.077c-.315-.951-.954-1.453-1.61-1.659l.001-.62a8 8 0 0 0-.013-.58 2.4 2.4 0 0 0-.121-.637c-.73-2.069-3.62-2.244-4.626-.264-.259.487-.248 1.029-.242 1.349l.002.125-.001.614c-1.02.296-1.5 1.168-1.64 1.726-.047.192-.073.45-.089.694a17 17 0 0 0-.029.86 17 17 0 0 0 .052 1.641l.006.06.015.059c.326 1.218 1.184 1.765 2.003 1.932l.042.009.042.004c.486.043 2.194.037 3.108.034l.431-.002c.568.01 1.152-.09 1.658-.422.52-.344.864-.873 1.052-1.548l.01-.038.007-.04c.041-.247.07-.89.074-1.497.002-.317-.003-.647-.018-.942a4.6 4.6 0 0 0-.098-.804l-.007-.027zm-6.794.418a1 1 0 0 1 .263-.45c.13-.125.331-.241.672-.241h3.5a.94.94 0 0 1 .518.147c.141.093.298.257.407.568.017.084.037.25.05.495.013.256.018.555.016.854a20 20 0 0 1-.04 1.12l-.008.097-.002.01c-.112.375-.27.554-.42.652-.167.111-.42.183-.81.175h-.014l-.507.002c-.906.002-2.399.007-2.863-.025a1.06 1.06 0 0 1-.462-.226c-.124-.107-.25-.276-.335-.56-.029-.33-.044-.875-.039-1.413.003-.283.012-.554.026-.778a3 3 0 0 1 .048-.427" clip-rule="evenodd"/></svg>