<svg xmlns="http://www.w3.org/2000/svg" fill="none" viewBox="0 0 24 24"><path fill="currentColor" d="M6.65 5.002c.092.432.222.937.375 1.539.383 1.498.575 2.248 1.087 2.741q.21.202.461.352c.614.367 1.404.367 2.983.367h.888c1.58 0 2.37 0 2.983-.367q.251-.15.46-.352c.513-.493.704-1.243 1.088-2.741.153-.602.283-1.107.374-1.54 1.346.064 2.18.258 2.772.85.879.88.879 2.297.879 5.13v5.01c0 2.832 0 4.25-.879 5.13-.878.88-2.293.88-5.121.88H9c-2.828 0-4.243 0-5.121-.88S3 18.823 3 15.99v-5.01c0-2.833 0-4.25.879-5.13.591-.592 1.426-.786 2.772-.85" opacity=".4"/><path fill="currentColor" fill-rule="evenodd" d="M13.397 1.25h-2.794c-.95 0-1.73 0-2.344.072-.633.075-1.212.239-1.676.662a2.8 2.8 0 0 0-.54.677c-.292.515-.33 1.072-.267 1.655-.981.112-1.794.369-2.428 1.004-.602.603-.86 1.362-.981 2.263-.117.868-.117 1.972-.117 3.342v5.119c0 1.37 0 2.474.116 3.342.121.901.38 1.66.982 2.263s1.36.862 2.26.983c.867.117 1.97.117 3.337.117h6.11c1.367 0 2.47 0 3.337-.116.9-.122 1.658-.381 2.26-.984s.86-1.362.982-2.263c.116-.868.116-1.972.116-3.342v-5.118c0-1.37 0-2.475-.116-3.343-.122-.901-.38-1.66-.982-2.263-.634-.635-1.447-.892-2.428-1.004.063-.583.025-1.14-.266-1.655a2.8 2.8 0 0 0-.541-.677c-.464-.423-1.043-.587-1.676-.662-.614-.072-1.393-.072-2.344-.072m4.54 4.544q-.102.414-.224.884l-.021.085c-.184.718-.335 1.31-.508 1.783-.181.495-.408.921-.776 1.276q-.271.262-.597.456c-.438.261-.91.371-1.441.423-.508.049-1.131.049-1.89.049h-1.005c-.738 0-1.347 0-1.845-.05-.53-.05-1.003-.16-1.441-.422a3.3 3.3 0 0 1-.597-.456c-.368-.355-.595-.781-.776-1.276-.173-.472-.324-1.065-.508-1.783l-.021-.085q-.121-.47-.223-.884c-.898.09-1.344.275-1.655.586-.277.278-.457.667-.556 1.403-.101.757-.103 1.76-.103 3.197v5.009c0 1.438.002 2.44.103 3.198.099.735.28 1.125.556 1.402.277.277.666.458 1.4.557.755.102 1.756.103 3.191.103h6c1.436 0 2.436-.001 3.192-.103.733-.099 1.122-.28 1.398-.557.277-.277.458-.667.557-1.402.101-.757.103-1.76.103-3.198V10.98c0-1.437-.002-2.44-.103-3.197-.099-.736-.28-1.125-.556-1.403-.312-.311-.757-.496-1.655-.586M10.96 9.249a14 14 0 0 1-1.185-.041c-.413-.04-.642-.114-.817-.218a1.8 1.8 0 0 1-.326-.249c-.143-.138-.269-.333-.407-.711-.144-.392-.278-.911-.473-1.675-.245-.96-.41-1.612-.475-2.111-.062-.487-.009-.703.07-.843q.098-.173.247-.31c.126-.114.337-.22.841-.279.515-.06 1.206-.062 2.215-.062h2.7c1.01 0 1.7.001 2.215.062.504.06.715.165.84.28q.15.136.247.309c.08.14.133.356.07.843-.064.5-.229 1.151-.474 2.11-.195.765-.329 1.284-.473 1.676-.138.378-.264.573-.408.711a1.8 1.8 0 0 1-.325.249c-.175.104-.404.178-.817.218-.41.04-.932.042-1.684.042l.67-2.013a.75.75 0 0 0-1.422-.474zM9.25 18a.75.75 0 0 1 .75-.75h4a.75.75 0 0 1 0 1.5h-4a.75.75 0 0 1-.75-.75" clip-rule="evenodd"/></svg>