<svg xmlns="http://www.w3.org/2000/svg" fill="none" viewBox="0 0 24 24"><path fill="currentColor" d="M20.17 4.137a14.36 14.36 0 0 0-7.92-2.387c-2.904 0-5.617.873-7.92 2.387-1.262.829-1.893 1.244-2.053 2.19s.381 1.682 1.46 3.154L8.25 15.75a8.5 8.5 0 0 1 8 0l4.513-6.269c1.08-1.472 1.62-2.208 1.46-3.154s-.79-1.36-2.053-2.19" opacity=".4"/><path fill="currentColor" fill-rule="evenodd" d="M12.251 1c2.952 0 5.833.868 8.332 2.51 1.304.857 2.166 1.424 2.381 2.692.212 1.257-.467 2.184-1.59 3.718l-4.514 6.269a.75.75 0 0 1-1.004.2c-2.109-1.093-4.496-1.18-6.65-.264l.482.702c1.223 1.668 1.962 2.675 2.564 2.675a.75.75 0 0 1 0 1.5c-1.364-.003-2.223-1.174-3.782-3.3l-.014-.019-5.33-7.769C2.003 8.382 1.327 7.457 1.538 6.202 1.753 4.933 2.614 4.367 3.92 3.51A15.14 15.14 0 0 1 12.251 1m-5.38 11.72 1.472 2.146a9.19 9.19 0 0 1 7.669-.066l1.529-2.124a12.47 12.47 0 0 0-10.67.043M4.76 9.645l1.251 1.822a13.96 13.96 0 0 1 12.42-.03l1.295-1.799c-4.712-2.854-10.255-2.851-14.965.007m7.49-7.144a13.65 13.65 0 0 0-7.508 2.263c-1.257.826-1.624 1.091-1.725 1.688-.085.507.16.964.875 1.965C9.147 5.18 15.355 5.18 20.61 8.419c.716-1.002.96-1.46.874-1.967-.1-.596-.468-.861-1.725-1.687a13.64 13.64 0 0 0-7.508-2.263m10.252 12.954a.75.75 0 1 0-.5-1.414c-.835.296-1.647.866-2.373 1.503-.734.643-1.424 1.394-2.012 2.099-.53.635-.986 1.244-1.327 1.72-.343-.466-.684-.78-.997-.989a2.4 2.4 0 0 0-.663-.316 1.4 1.4 0 0 0-.378-.06.75.75 0 0 0-.05 1.499 1 1 0 0 1 .259.125c.243.162.665.55 1.12 1.462a.75.75 0 0 0 1.304.066c.09-.134.354-.53.52-.766a28 28 0 0 1 1.364-1.78c.559-.67 1.193-1.357 1.849-1.933.663-.581 1.308-1.012 1.884-1.216" clip-rule="evenodd"/></svg>