<svg xmlns="http://www.w3.org/2000/svg" fill="none" viewBox="0 0 24 24"><path fill="currentColor" fill-rule="evenodd" d="M12 4.75c3.627 0 7.214 1.416 10.484 4.177a.75.75 0 1 1-.968 1.146C18.47 7.5 15.216 6.25 12 6.25s-6.47 1.251-9.516 3.823a.75.75 0 1 1-.968-1.146C4.786 6.166 8.374 4.75 12 4.75m6.997 7.188c-4.06-3.591-9.708-3.572-13.977-.014a.75.75 0 0 0 .96 1.152c3.73-3.109 8.547-3.09 12.023-.014a.75.75 0 1 0 .994-1.124M16.28 14.97c-2.293-2.293-6.267-2.293-8.56 0a.75.75 0 1 0 1.06 1.06c1.707-1.707 4.733-1.707 6.44 0a.75.75 0 1 0 1.06-1.06M12 17.5a1 1 0 1 0 0 2h.012a1 1 0 1 0 0-2z" clip-rule="evenodd" opacity=".4"/></svg>