<svg xmlns="http://www.w3.org/2000/svg" fill="none" viewBox="0 0 24 24"><path fill="currentColor" fill-rule="evenodd" d="M4 2.849a2.78 2.78 0 0 1 4 0l3.59 3.684a2.51 2.51 0 0 0-2.05 1.999zM11.88 22h.24c.99 0 1.48 0 1.73-.537.26-.536.15-1.338-.08-2.942l-.76-6.437L16 15.152a2.78 2.78 0 0 0 4 0l-5.54-5.683a2.51 2.51 0 0 1-2.05 1.999l.519.532H11.07l.519-.532a2.51 2.51 0 0 1-2.05-2L4 15.153a2.78 2.78 0 0 0 4 0l2.99-3.07-.76 6.439c-.23 1.604-.34 2.406-.08 2.942.25.537.74.537 1.73.537M20 2.849a2.78 2.78 0 0 0-4 0l-3.59 3.684c1.03.169 1.85.973 2.05 1.999z" clip-rule="evenodd" opacity=".4"/><path fill="currentColor" fill-rule="evenodd" d="m8.756 8.802-5.293-5.43a.75.75 0 0 1 0-1.046A3.5 3.5 0 0 1 6.001 1.25c.962 0 1.863.382 2.538 1.076l3.339 3.426a3 3 0 0 1 .246 0l3.339-3.426A3.5 3.5 0 0 1 18 1.25c.962 0 1.863.382 2.538 1.076a.75.75 0 0 1 0 1.046l-5.294 5.43a3 3 0 0 1 0 .396l5.294 5.43a.75.75 0 0 1 0 1.046A3.5 3.5 0 0 1 18 16.75a3.5 3.5 0 0 1-2.538-1.076l-3.339-3.426a3 3 0 0 1-.246 0l-3.34 3.427A3.5 3.5 0 0 1 6 16.75a3.5 3.5 0 0 1-2.538-1.076.75.75 0 0 1 0-1.046l5.294-5.43a3 3 0 0 1 0-.396m.537 1.995L5.14 15.06a2.02 2.02 0 0 0 2.323-.43l2.806-2.88a3.3 3.3 0 0 1-.976-.952m2.978-3.526.018.003.074.014A1.75 1.75 0 0 1 13.75 9c0 .965-.785 1.75-1.75 1.75S10.25 9.965 10.25 9a1.752 1.752 0 0 1 2.021-1.73m2.436-.068 4.154-4.261a2.02 2.02 0 0 0-2.324.43L13.73 6.25c.389.246.722.571.976.953m-.017 3.62a3.3 3.3 0 0 1-.957.925l-.001.001 2.805 2.878a2.02 2.02 0 0 0 2.325.43l-4.154-4.262zM5.138 2.94l4.154 4.262c.255-.382.588-.707.975-.953L7.462 3.372a2.02 2.02 0 0 0-2.324-.43m6.98 19.809h-.237c-1.05 0-1.955 0-2.407-.965-.36-.749-.227-1.679.014-3.364l.319-2.515a.75.75 0 0 1 1.488.188l-.32 2.521-.002.012c-.181 1.26-.311 2.171-.148 2.508l.002.006.003.005c.014.03.022.04.022.04.104.064.617.064 1.028.064h.24c.409 0 .919 0 1.03-.068q.002 0 .02-.036l.003-.008.002-.003c.163-.337.033-1.246-.148-2.505v-.003l-.002-.012-.32-2.521a.75.75 0 1 1 1.488-.188l.319 2.515c.242 1.685.375 2.616.014 3.364-.453.965-1.36.965-2.407.965" clip-rule="evenodd"/></svg>