<svg xmlns="http://www.w3.org/2000/svg" fill="none" viewBox="0 0 24 24"><path fill="currentColor" d="M10 16v4c0 .94 0 1.41.29 1.71.29.29.76.29 1.71.29s1.41 0 1.71-.29c.29-.3.29-.77.29-1.71v-4h.26c1.55 0 2.33 0 2.63-.49.3-.48-.06-1.14-.79-2.45l-1.8-3.24c-.45-.81-1.34-1.32-2.3-1.32s-1.85.51-2.3 1.32l-1.8 3.24c-.73 1.31-1.1 1.97-.79 2.45.3.49 1.08.49 2.63.49z" opacity=".4"/><path fill="currentColor" fill-rule="evenodd" d="M9.25 4c0 1.52 1.23 2.75 2.75 2.75S14.75 5.52 14.75 4 13.52 1.25 12 1.25 9.25 2.48 9.25 4m1.5 0a1.25 1.25 0 1 1 2.5 0 1.25 1.25 0 0 1-2.5 0m-.983 18.24c.51.51 1.16.51 2.23.51s1.72 0 2.24-.52c.51-.51.51-1.16.51-2.23v-3.25c1.47-.01 2.31-.08 2.78-.84.54-.85.05-1.74-.77-3.21l-1.8-3.24c-.59-1.06-1.72-1.71-2.96-1.71s-2.37.66-2.96 1.71l-1.8 3.24-.022.041c-.797 1.446-1.283 2.327-.748 3.169.47.76 1.32.84 2.78.84V20c0 1.07 0 1.71.52 2.24m.58-12.05c.33-.58.96-.94 1.65-.94l-.01.03c.7 0 1.33.35 1.65.93l1.8 3.24.08.141c.369.662.76 1.362.74 1.54-.17.139-1.138.139-1.998.139h-.262c-.41 0-.75.34-.75.75v4c0 .5 0 1.11-.07 1.18-.22.14-2.15.13-2.35 0-.08-.09-.08-.7-.08-1.19v-4c0-.41-.34-.75-.75-.75h-.262c-.86 0-1.828 0-1.988-.12-.03-.22.41-1.01.8-1.71z" clip-rule="evenodd"/></svg>