<svg xmlns="http://www.w3.org/2000/svg" fill="none" viewBox="0 0 24 24"><path fill="currentColor" fill-rule="evenodd" d="M12 17s-3-3.134-3-7 3-7 3-7 3 3.134 3 7-3 7-3 7m.02.003q-.02.165-.02.353 0-.188-.02-.353c-3.647-1.423-6.595-.593-7.613 0-1.167.72-1.967 2-2.367 4 2.36-1.35 3.58-.876 4.74-.427.556.217 1.099.427 1.747.427 2.618 0 3.512-2.247 3.513-3.647 0 1.4.895 3.647 3.514 3.647.647 0 1.19-.21 1.747-.427 1.159-.45 2.38-.924 4.739.427-.4-2-1.2-3.28-2.367-4-.719-.639-3.248-1.534-7.612 0" clip-rule="evenodd" opacity=".4"/><path fill="currentColor" fill-rule="evenodd" d="M12.766 17.693c1.44-.159 4.643-.76 6.905-3.023 2.938-2.939 3.075-7.462 3.08-7.653a.754.754 0 0 0-.769-.767c-.092.002-2.28.065-4.607 1.06a.75.75 0 1 0 .59 1.38 12.5 12.5 0 0 1 3.206-.86c-.178 1.336-.75 3.97-2.56 5.78-1.47 1.469-3.478 2.122-4.898 2.412.917-1.362 2.037-3.535 2.037-6.022 0-4.124-3.078-7.382-3.209-7.519a.747.747 0 0 0-1.082 0C11.328 2.618 8.25 5.876 8.25 10c0 2.487 1.12 4.66 2.037 6.022-1.42-.29-3.428-.944-4.897-2.412-1.81-1.81-2.383-4.445-2.56-5.78a12.4 12.4 0 0 1 3.205.86.751.751 0 0 0 .59-1.38C4.3 6.315 2.11 6.252 2.018 6.25a.747.747 0 0 0-.768.767c.004.191.14 4.714 3.08 7.653 2.26 2.26 5.457 2.862 6.9 3.022-.068.571-.306 1.234-.738 1.724-.488.554-1.162.835-2.004.835-.508 0-.957-.174-1.476-.375l-.004-.002c-.953-.37-2.091-.81-3.835-.233.375-.919.9-1.579 1.588-2.002a.75.75 0 1 0-.786-1.278c-1.392.857-2.28 2.326-2.712 4.492a.749.749 0 0 0 1.108.798c2.047-1.173 2.996-.805 4.095-.379h.001c.578.225 1.232.478 2.022.478 1.274 0 2.356-.465 3.13-1.344a4 4 0 0 0 .38-.505q.169.264.38.505c.774.88 1.856 1.344 3.13 1.344.79 0 1.444-.253 2.022-.477 1.099-.426 2.05-.795 4.096.378a.76.76 0 0 0 .809-.042.75.75 0 0 0 .297-.756c-.433-2.166-1.32-3.635-2.712-4.492a.75.75 0 1 0-.786 1.278c.687.423 1.212 1.083 1.588 2.002-1.744-.577-2.882-.136-3.834.233l-.005.002c-.52.201-.968.375-1.476.375-.842 0-1.516-.28-2.004-.835-.432-.49-.67-1.152-.738-1.723M12 4.17C11.188 5.231 9.75 7.467 9.75 10s1.438 4.768 2.25 5.829c.812-1.06 2.25-3.296 2.25-5.829S12.812 5.232 12 4.171" clip-rule="evenodd"/></svg>