<svg xmlns="http://www.w3.org/2000/svg" fill="none" viewBox="0 0 24 24"><path fill="currentColor" d="M2 11c0 3 8 6 13 6 4 0 7-2.686 7-6s-3-6-7-6C10 5 2 8 2 11" opacity=".4"/><path fill="currentColor" fill-rule="evenodd" d="M6.543 4.03c.608.46 1.14 1.046 1.517 1.468l.018.021C10.385 4.74 12.922 4.25 15 4.25c4.312 0 7.75 2.926 7.75 6.75 0 2.262-1.203 4.21-3.078 5.423l-.258 1.114c-.155.67-.287 1.24-.449 1.682-.17.467-.41.898-.848 1.197-.446.305-.931.36-1.419.325-.448-.032-.99-.15-1.611-.284l-.05-.01-.767-.166-.104-.022c-.605-.13-1.09-.235-1.511-.511-.415-.273-.717-.68-1.101-1.2l-.067-.09-.946-1.277c-.83-.193-1.66-.429-2.463-.7l-.018.02c-.376.422-.91 1.01-1.517 1.469-.589.445-1.388.88-2.276.76-.491-.066-.952-.326-1.524-.647l-.11-.062a.75.75 0 0 1-.352-.867l.92-3.092a9 9 0 0 1-.358-.287C1.96 13.026 1.25 12.085 1.25 11c0-1.086.711-2.026 1.593-2.775q.171-.145.357-.287l-.919-3.092a.75.75 0 0 1 .352-.867l.11-.062c.572-.321 1.033-.58 1.524-.647.888-.12 1.687.315 2.276.76m11.394 13.236A9 9 0 0 1 15 17.75c-.72 0-1.494-.059-2.294-.168.473.639.61.805.773.912.158.104.348.157 1.108.321l.766.165c.686.149 1.123.241 1.453.265.303.021.403-.026.465-.067.07-.048.165-.145.286-.474.119-.326.226-.773.38-1.438M4.51 14.918l-.619 2.084c.326.174.457.225.576.241.287.039.676-.095 1.171-.47.328-.247.641-.554.928-.859l-.236-.1a18 18 0 0 1-1.82-.896M15 5.75c-2.38 0-5.529.721-8.08 1.814-1.273.546-2.356 1.167-3.106 1.805-.376.318-.637.614-.807.881H5a.75.75 0 0 1 0 1.5H3.007c.17.267.431.563.807.881.75.637 1.833 1.259 3.106 1.805 2.551 1.093 5.7 1.814 8.08 1.814 3.688 0 6.25-2.446 6.25-5.25S18.688 5.75 15 5.75M4.467 4.757c-.119.016-.25.067-.576.24l.558 1.88 1.856-1.06a7 7 0 0 0-.667-.59c-.495-.375-.884-.509-1.171-.47" clip-rule="evenodd"/></svg>