<svg xmlns="http://www.w3.org/2000/svg" fill="none" viewBox="0 0 24 24"><path fill="currentColor" fill-rule="evenodd" d="M12 22c5.523 0 10-4.477 10-10S17.523 2 12 2 2 6.477 2 12s4.477 10 10 10M6.5 10v1c0 1.886 0 2.828.586 3.414S8.614 15 10.5 15H12c.471 0 .707 0 .854-.146C13 14.707 13 14.47 13 14v-1c0-1.886 0-2.828-.586-3.414S10.886 9 9 9H7.5c-.471 0-.707 0-.854.146C6.5 9.293 6.5 9.53 6.5 10m9.3.198-.35.337c-.444.428-.45.442-.45 1.053v.824c0 .61.006.625.45 1.053l.35.337c.725.7 1.087 1.049 1.394.923.306-.127.306-.626.306-1.625v-2.2c0-.999 0-1.498-.306-1.624-.307-.127-.67.223-1.394.922" clip-rule="evenodd" opacity=".4"/><path fill="currentColor" fill-rule="evenodd" d="M2.75 12a9.25 9.25 0 1 1 18.5 0 9.25 9.25 0 0 1-18.5 0M12 1.25C6.063 1.25 1.25 6.063 1.25 12S6.063 22.75 12 22.75 22.75 17.937 22.75 12 17.937 1.25 12 1.25m-4.5 7h-.034c-.206 0-.427 0-.615.025-.219.03-.5.105-.735.341a1.24 1.24 0 0 0-.341.735c-.025.188-.025.41-.025.615v1.086c0 .899 0 1.648.08 2.242.084.628.27 1.195.725 1.65.456.456 1.023.642 1.65.726.595.08 1.345.08 2.243.08h1.586c.206 0 .427 0 .615-.025.219-.03.5-.105.735-.341.236-.236.311-.516.341-.735.025-.188.025-.41.025-.614v-1.087c0-.899 0-1.648-.08-2.242-.084-.628-.27-1.195-.726-1.65-.455-.456-1.022-.642-1.65-.726-.594-.08-1.344-.08-2.242-.08zM7.25 10l.001-.249.249-.001H9c.964 0 1.612.002 2.095.067.461.062.659.169.789.3s.237.327.3.788c.064.483.066 1.131.066 2.095v1l-.001.249-.249.001h-1.5c-.964 0-1.612-.002-2.095-.066-.461-.063-.659-.17-.789-.3s-.237-.328-.3-.79c-.064-.482-.066-1.13-.066-2.094zm9.07.738q.253-.245.427-.407c.003.155.003.341.003.569v2.2c0 .228 0 .414-.003.57a33 33 0 0 1-.427-.408l-.35-.337a5 5 0 0 1-.215-.215 5 5 0 0 1-.005-.299v-.822c0-.159 0-.241.005-.299.04-.044.1-.103.215-.215zm1.16-2.156c-.544-.224-1.014.055-1.266.238-.263.19-.567.483-.897.802l-.038.036-.35.337-.042.041c-.174.167-.398.38-.518.663-.121.283-.12.593-.12.832l.001.057v.881c-.001.24-.002.55.119.832.12.282.344.496.518.663l.042.04.35.338.038.036c.33.319.634.612.897.803.252.182.722.461 1.266.237.55-.227.68-.763.724-1.072.046-.32.046-.74.046-1.193v-2.306c0-.453 0-.874-.046-1.193-.044-.31-.174-.845-.724-1.072" clip-rule="evenodd"/></svg>