<svg xmlns="http://www.w3.org/2000/svg" fill="none" viewBox="0 0 24 24"><path fill="currentColor" d="M12 21.006c3.75 0 5.62 0 6.94-.95.42-.31.8-.68 1.11-1.11.95-1.31.95-3.19.95-6.94s0-5.62-.95-6.94c-.31-.42-.69-.8-1.11-1.11-1.32-.95-3.19-.95-6.94-.95s-5.62 0-6.94.95c-.42.31-.8.68-1.11 1.11C3 6.376 3 8.256 3 12.006s0 5.62.95 6.94c.31.42.69.8 1.11 1.11 1.32.95 3.19.95 6.94.95" opacity=".4"/><path fill="currentColor" fill-rule="evenodd" d="M12.05 2.256h-.1c-1.83 0-3.27 0-4.41.12-1.17.13-2.11.39-2.92.97-.49.36-.92.78-1.27 1.27-.59.81-.85 1.75-.98 2.92-.12 1.14-.12 2.58-.12 4.42v.09c0 1.84 0 3.28.12 4.42.13 1.17.39 2.11.98 2.92.35.49.78.92 1.27 1.27.81.59 1.75.85 2.92.97 1.14.12 2.58.12 4.41.12h.1c1.83 0 3.27 0 4.41-.12 1.17-.13 2.11-.39 2.92-.97.49-.36.92-.78 1.27-1.27.59-.81.85-1.75.98-2.92.12-1.14.12-2.58.12-4.42v-.09c0-1.84 0-3.28-.12-4.42-.13-1.17-.39-2.11-.98-2.92-.35-.49-.78-.92-1.27-1.27-.81-.59-1.75-.85-2.92-.97-1.14-.12-2.58-.12-4.41-.12M5.5 4.566c.51-.37 1.16-.59 2.2-.7 1.05-.11 2.41-.11 4.3-.11s3.25 0 4.3.11c1.04.11 1.69.33 2.2.7.36.26.68.58.94.94.37.51.58 1.16.7 2.2.11 1.05.11 2.41.11 4.3s0 3.25-.11 4.3c-.12 1.04-.33 1.69-.7 2.2-.26.36-.58.68-.94.94-.51.37-1.16.59-2.2.7-1.05.11-2.41.11-4.3.11s-3.25 0-4.3-.11c-1.04-.11-1.69-.33-2.2-.7-.36-.26-.68-.58-.94-.94-.37-.51-.58-1.16-.69-2.2-.12-1.05-.12-2.41-.12-4.3s0-3.25.12-4.3c.11-1.04.32-1.69.69-2.2.26-.36.58-.68.94-.94m11.09 2.91a.751.751 0 0 0-1.18-.93l-8 10a.75.75 0 0 0 1.18.93z" clip-rule="evenodd"/></svg>