<svg xmlns="http://www.w3.org/2000/svg" fill="none" viewBox="0 0 24 24"><path fill="currentColor" fill-rule="evenodd" d="M17.312 1.93c-1.343-.18-3.064-.18-5.255-.18h-.114c-2.19 0-3.912 0-5.255.18-1.377.186-2.469.573-3.327 1.43-.858.86-1.245 1.951-1.43 3.328-.181 1.343-.181 3.064-.181 5.255v.114c0 2.19 0 3.912.18 5.255.186 1.377.573 2.469 1.43 3.327.86.858 1.951 1.245 3.328 1.43 1.343.181 3.064.181 5.255.181h.114c2.19 0 3.912 0 5.255-.18 1.377-.186 2.469-.573 3.327-1.43.858-.86 1.245-1.951 1.43-3.328.181-1.343.181-3.064.181-5.255v-.114c0-2.19 0-3.912-.18-5.255-.186-1.377-.573-2.469-1.43-3.327-.86-.858-1.951-1.245-3.328-1.43M9.581 8.815a1 1 0 0 0-1.162-1.628C6.947 8.236 6 10.012 6 12s.947 3.764 2.42 4.814a1 1 0 0 0 1.16-1.628C8.643 14.516 8 13.35 8 12s.642-2.517 1.58-3.186m6-1.628a1 1 0 1 0-1.162 1.628C15.358 9.484 16 10.65 16 12s-.642 2.517-1.58 3.186a1 1 0 0 0 1.16 1.628C17.054 15.764 18 13.988 18 12s-.947-3.764-2.42-4.814" clip-rule="evenodd"/></svg>