<svg xmlns="http://www.w3.org/2000/svg" fill="none" viewBox="0 0 24 24"><path fill="currentColor" fill-rule="evenodd" d="M8.017 2.863a1.25 1.25 0 0 1-1.104 1.38c-1.251.138-1.824.422-2.226.874-.383.431-.646 1.056-.79 2.252-.145 1.219-.147 2.832-.147 5.131s.002 3.912.148 5.13c.143 1.197.406 1.822.789 2.253.402.453.975.736 2.226.875a1.25 1.25 0 0 1-.276 2.485c-1.528-.17-2.826-.581-3.82-1.7-.869-.978-1.232-2.192-1.402-3.616-.165-1.384-.165-3.146-.165-5.345v-.164c0-2.198 0-3.96.165-5.345.17-1.424.533-2.638 1.403-3.616.993-1.118 2.291-1.53 3.82-1.7a1.25 1.25 0 0 1 1.38 1.106m7.966 0a1.25 1.25 0 0 1 1.38-1.105c1.528.169 2.826.58 3.82 1.699.869.978 1.232 2.192 1.402 3.616.165 1.384.165 3.147.165 5.345v.164c0 2.198 0 3.961-.165 5.345-.17 1.424-.533 2.638-1.403 3.616-.993 1.119-2.291 1.53-3.82 1.7a1.25 1.25 0 1 1-.274-2.485c1.25-.139 1.823-.422 2.226-.875.382-.43.645-1.056.788-2.252.146-1.219.148-2.831.148-5.13s-.002-3.913-.148-5.132c-.143-1.196-.406-1.821-.788-2.252-.403-.452-.976-.736-2.227-.874a1.25 1.25 0 0 1-1.104-1.38" clip-rule="evenodd"/></svg>