<svg xmlns="http://www.w3.org/2000/svg" fill="none" viewBox="0 0 24 24"><path fill="currentColor" fill-rule="evenodd" d="M13.457 1.263c-.25-.029-2.913 0-2.913 0-.278.032-.57.105-.843.302a1.73 1.73 0 0 0-.553.706c-.105.228-.538 1.525-.638 1.827-.078.415-.506 1.168-1.594.86 0 0-1.87-.528-2.135-.57-.294-.047-.615-.053-.947.082-.333.136-.559.364-.737.603-.16.215-1.43 2.48-1.43 2.48a1.74 1.74 0 0 0-.159.888c.036.337.177.606.34.835.147.207 1.596 1.827 1.596 1.827.265.301.636 1.082 0 1.794 0 0-1.449 1.62-1.596 1.826-.163.23-.304.499-.34.836-.035.337.048.63.16.888 0 0 1.27 2.265 1.43 2.48.177.238.403.467.736.603s.653.129.947.082c.264-.042 2.134-.57 2.134-.57.393-.13 1.261-.137 1.595.86.1.301.533 1.598.638 1.827.118.254.28.508.553.706.272.197.565.27.843.302.249.029 2.912 0 2.912 0 .278-.031.57-.105.843-.302.273-.198.435-.452.553-.706.105-.229.538-1.526.639-1.827.119-.403.605-1.14 1.594-.86.328.092 1.87.528 2.134.57.294.047.615.053.947-.082.333-.136.559-.365.737-.603.16-.215 1.43-2.48 1.43-2.48.112-.259.194-.55.159-.888a1.74 1.74 0 0 0-.34-.836c-.147-.206-1.382-1.588-1.596-1.826-.604-.676-.252-1.478 0-1.794l.418-.468c.445-.5 1.076-1.215 1.178-1.359.163-.23.304-.498.34-.835a1.74 1.74 0 0 0-.16-.888l-1.43-2.48c-.177-.239-.403-.467-.736-.603s-.653-.13-.947-.082c-.264.042-1.806.477-2.134.57-.938.265-1.454-.463-1.594-.86-.1-.302-.534-1.599-.64-1.827a1.73 1.73 0 0 0-.552-.706 1.7 1.7 0 0 0-.842-.302M12 6.75a2.75 2.75 0 1 0 0 5.5 2.75 2.75 0 0 0 0-5.5m-2.85 9.625A3.29 3.29 0 0 1 12 14.73c1.217 0 2.28.66 2.85 1.645a.75.75 0 1 0 1.3-.75A4.79 4.79 0 0 0 12 13.23a4.79 4.79 0 0 0-4.15 2.394.75.75 0 1 0 1.3.751" clip-rule="evenodd"/></svg>