<svg xmlns="http://www.w3.org/2000/svg" fill="none" viewBox="0 0 24 24"><path fill="currentColor" fill-rule="evenodd" d="M17.038 2.421c-1.276-.171-2.908-.171-4.981-.171s-3.82 0-5.095.171c-1.308.176-2.353.545-3.174 1.367-.822.821-1.19 1.866-1.367 3.174-.171 1.276-.171 3.022-.171 5.095s0 3.705.171 4.98c.176 1.31.545 2.354 1.367 3.175.821.822 1.866 1.19 3.174 1.367 1.276.171 3.022.171 5.095.171s3.705 0 4.98-.171c1.31-.176 2.354-.545 3.175-1.367.822-.821 1.19-1.866 1.367-3.174.171-1.276.171-2.908.171-4.981s0-3.82-.171-5.095c-.176-1.308-.545-2.353-1.367-3.174-.821-.822-1.866-1.19-3.174-1.367m.67 8.286a1 1 0 0 0-1.415-1.414L13.5 12.086 11.914 10.5a2 2 0 0 0-2.828 0l-2.793 2.793a1 1 0 1 0 1.414 1.414l2.793-2.793 1.586 1.586a2 2 0 0 0 2.828 0z" clip-rule="evenodd"/></svg>