<svg xmlns="http://www.w3.org/2000/svg" fill="none" viewBox="0 0 24 24"><path fill="currentColor" fill-rule="evenodd" d="M17.038 2.421c-1.276-.171-3.022-.171-5.095-.171s-3.705 0-4.98.171c-1.31.176-2.354.545-3.175 1.367-.822.821-1.19 1.866-1.367 3.174-.171 1.276-.171 3.022-.171 5.095s0 3.705.171 4.98c.176 1.31.545 2.354 1.367 3.175.821.822 1.866 1.19 3.174 1.367 1.276.171 3.022.171 5.095.171s3.705 0 4.98-.171c1.31-.176 2.354-.545 3.175-1.367.822-.821 1.19-1.866 1.367-3.174.171-1.276.171-2.908.171-4.981s0-3.82-.171-5.095c-.176-1.308-.545-2.353-1.367-3.174-.821-.822-1.866-1.19-3.174-1.367M11.436 7.65a1 1 0 0 0-1.83-.096L7.882 11H6a1 1 0 1 0 0 2h2.5a1 1 0 0 0 .894-.553l.975-1.949 2.195 5.853a1 1 0 0 0 1.83.096L16.118 13H18a1 1 0 1 0 0-2h-2.5a1 1 0 0 0-.894.553l-.975 1.949z" clip-rule="evenodd"/></svg>