<svg xmlns="http://www.w3.org/2000/svg" fill="none" viewBox="0 0 24 24"><path fill="currentColor" d="M14 11.75h.75V15q0 .16-.015.241l-.117.008a7 7 0 0 1-.355.002L14 15.25a1.75 1.75 0 1 1 0-3.5"/><path fill="currentColor" fill-rule="evenodd" d="M12.057 1.75h-.114c-2.19 0-3.912 0-5.255.18-1.377.186-2.469.573-3.327 1.43-.858.86-1.245 1.951-1.43 3.328-.181 1.343-.181 3.064-.181 5.255v.114c0 2.19 0 3.912.18 5.255.186 1.377.573 2.469 1.43 3.327.86.858 1.951 1.245 3.328 1.43 1.343.181 3.064.181 5.255.181h.114c2.19 0 3.912 0 5.255-.18 1.377-.186 2.469-.573 3.327-1.43.858-.86 1.245-1.951 1.43-3.328.181-1.343.181-3.064.181-5.255v-.114c0-2.19 0-3.912-.18-5.255-.186-1.377-.573-2.469-1.43-3.327-.86-.858-1.951-1.245-3.328-1.43-1.343-.181-3.064-.181-5.255-.181M9.25 8a.75.75 0 0 0-1.5 0v8a.75.75 0 0 0 1.5 0zm7 0a.75.75 0 0 0-1.5 0v2.25H14a3.25 3.25 0 0 0 0 6.5l.2.001c.163.002.335.003.48-.003.21-.008.484-.034.744-.15.296-.131.528-.359.667-.675.124-.283.159-.603.159-.923z" clip-rule="evenodd"/></svg>