<svg xmlns="http://www.w3.org/2000/svg" fill="none" viewBox="0 0 24 24"><path fill="currentColor" fill-rule="evenodd" d="M5.041 4.8c1.807.047 3.327.3 4.463.595.343.09.514.134.547.272.033.137-.1.259-.367.502l-.005.004-2.025 1.84a3.59 3.59 0 0 0-.123 5.192 3.56 3.56 0 0 0 4.587.381L13.5 12.6c.217-.155.326-.233.433-.202s.158.155.262.404l.063.15.042.1c.24.57.529 1.226.889 1.902.5.938 1.148 1.936 2.023 2.813.192.192.288.29.278.4s-.112.182-.316.323l-.005.003a12 12 0 0 1-2.119 1.143c-1.541.651-3.413 1.114-5.374 1.114-2.302 0-4.425-1.31-6.038-2.738-.795-.702-1.94-2.04-2.382-2.57a.03.03 0 0 1-.006-.018V3.885c0-.363 0-.544.116-.612.115-.069.27.021.579.201l1.532.89a3.3 3.3 0 0 0 1.564.436m7.4 1.368a3.98 3.98 0 0 1 2.4-.495l1.515.169a5.7 5.7 0 0 0 3.779-.92L22.03 3.66c.317-.211.476-.316.598-.25.122.068.122.26.122.646v11.069c0 .107 0 .16-.023.209s-.062.08-.14.144c-.688.563-1.52.978-2.256 1.267-.338.132-.69.245-.96.326l-.005.001c-.102.03-.154.046-.21.035-.055-.012-.098-.046-.182-.116-.978-.8-1.694-1.834-2.253-2.883a18 18 0 0 1-.546-1.126c-.126-.282-.19-.424-.133-.528s.218-.126.54-.17l.006-.001a5.7 5.7 0 0 0 2.645-1.084l.686-.514a.897.897 0 0 0 .185-1.24.863.863 0 0 0-1.22-.188l-.685.515c-.9.674-2.047.935-3.154.713l-.388-.077a2.07 2.07 0 0 0-1.606.345l-1.934 1.38a1.84 1.84 0 0 1-2.365-.194 1.796 1.796 0 0 1 .063-2.606l2.925-2.656a4 4 0 0 1 .7-.51" clip-rule="evenodd"/></svg>