<svg xmlns="http://www.w3.org/2000/svg" fill="none" viewBox="0 0 24 24"><path fill="currentColor" fill-rule="evenodd" d="M3.914 15.4a3.75 3.75 0 0 1 0-6.799 3.75 3.75 0 0 1 2.909-4.79 3.251 3.251 0 0 1 6.427.69v2.551c-.258.102-.701.303-1.048.65a3 3 0 0 0-.434.549H11.5A2.25 2.25 0 0 0 9.823 12a2.25 2.25 0 0 0 1.677 3.75h.268q.17.28.434.548c.347.347.79.548 1.048.65V19.5a3.25 3.25 0 0 1-6.427.69 3.75 3.75 0 0 1-2.909-4.79M15 6.25a.75.75 0 0 1 .75.75v1.25h1.5V7a.75.75 0 0 1 1.5 0v1.301c.34.052.694.168.987.462s.41.648.462.987H21.5a.75.75 0 1 1 0 1.5h-1.25v1.5h1.25a.75.75 0 0 1 0 1.5h-1.3c-.053.34-.169.694-.463.988-.293.293-.647.41-.987.461V17a.75.75 0 1 1-1.5 0v-1.25h-1.5V17a.75.75 0 1 1-1.5 0v-1.3c-.34-.052-.694-.168-.987-.462s-.41-.648-.462-.988H11.5a.75.75 0 1 1 0-1.5h1.25v-1.5H11.5a.75.75 0 1 1 0-1.5h1.3c.053-.34.169-.693.463-.987.293-.294.647-.41.987-.462v-1.3a.75.75 0 0 1 .75-.75" clip-rule="evenodd"/></svg>