<svg xmlns="http://www.w3.org/2000/svg" fill="none" viewBox="0 0 24 24"><path fill="currentColor" fill-rule="evenodd" d="M15.46 1.381c-1.14-.12-2.58-.12-4.42-.12s-3.37 0-4.51.12c-1.17.13-2.11.39-2.92.97-.49.36-.92.78-1.27 1.27-.59.81-.85 1.75-.97 2.92-.12 1.14-.12 2.67-.12 4.51s0 3.28.12 4.42c.13 1.17.39 2.11.97 2.92.35.49.78.92 1.27 1.27.81.59 1.75.85 2.92.97 1.14.12 2.67.12 4.51.12 1.51 0 2.75 0 3.78-.07-.33-.25-.7-.45-1.08-.6-1.66-.65-1.66-3 0-3.66 1.16-.46 2.22-1.52 2.67-2.68.66-1.66 3.01-1.66 3.66 0 .15.38.35.75.6 1.08.07-1.03.07-2.27.07-3.78 0-1.84 0-3.37-.12-4.51-.13-1.17-.39-2.11-.97-2.92-.35-.49-.78-.92-1.27-1.27-.81-.59-1.75-.85-2.92-.97zm-9.21 5.63c0-.41.34-.75.75-.75h8c.41 0 .75.34.75.75v1c0 .41-.34.75-.75.75s-.75-.34-.75-.75v-.25h-2.5v6.5H12c.41 0 .75.34.75.75s-.34.75-.75.75h-2c-.41 0-.75-.34-.75-.75s.34-.75.75-.75h.25v-6.5h-2.5v.25c0 .41-.34.75-.75.75s-.75-.34-.75-.75zm12.67 7.2a.712.712 0 0 0-1.33 0l-.04.1a5.7 5.7 0 0 1-3.23 3.23l-.11.04c-.6.24-.6 1.1 0 1.33l.11.04c1.48.58 2.65 1.75 3.23 3.23l.04.1c.24.61 1.09.61 1.33 0l.04-.1a5.7 5.7 0 0 1 3.23-3.23l.11-.04c.6-.24.6-1.1 0-1.33l-.11-.04a5.7 5.7 0 0 1-3.23-3.23z" clip-rule="evenodd"/></svg>