<svg xmlns="http://www.w3.org/2000/svg" fill="none" viewBox="0 0 24 24"><path fill="currentColor" fill-rule="evenodd" d="M1.25 12a5.75 5.75 0 0 1 4.603-5.635 6.252 6.252 0 0 1 12.394.938 5.251 5.251 0 0 1 .003 10.394V17A2.25 2.25 0 0 0 14 15.968a2.25 2.25 0 0 0-4 0A2.25 2.25 0 0 0 5.75 17v.614A5.75 5.75 0 0 1 1.25 12m7.5 5a.75.75 0 0 0-1.5 0v1.69L6.139 19.8a1.5 1.5 0 1 0 1.06 1.06l1.331-1.33a.75.75 0 0 0 .22-.53zm11 4.25a1.5 1.5 0 0 0-1.889-1.45l-1.111-1.11V17a.75.75 0 0 0-1.5 0v2c0 .199.079.39.22.53l1.33 1.331a1.503 1.503 0 0 0 1.45 1.889 1.5 1.5 0 0 0 1.5-1.5m-7-1.3a1.5 1.5 0 1 1-1.5 0V17a.75.75 0 0 1 1.5 0z" clip-rule="evenodd"/></svg>