<svg xmlns="http://www.w3.org/2000/svg" fill="none" viewBox="0 0 24 24"><path fill="currentColor" fill-rule="evenodd" d="M4.75 1.25a1.5 1.5 0 1 0 1.3 2.25h3.2c.752 0 .962.008 1.113.054.4.121.712.434.833.833.022.073.036.16.043.317-1.141.003-2.087.021-2.858.125-.968.13-1.774.407-2.413 1.046-.638.638-.915 1.444-1.045 2.412-.104.773-.122 1.797-.125 2.968-.32.01-.596.038-.846.114a2.75 2.75 0 0 0-1.834 1.833C2 13.595 2 14.05 2 14.64v3.31a1.5 1.5 0 1 0 1.5 0v-3.2c0-.752.008-.962.054-1.113.121-.4.434-.712.833-.833.087-.026.193-.04.41-.047.004 1.143.022 2.09.126 2.862.13.968.407 1.774 1.045 2.413.639.638 1.445.915 2.413 1.046.752.1 1.742.12 2.874.124.01.32.037.596.113.846a2.75 2.75 0 0 0 1.834 1.834c.393.119.849.119 1.438.118h3.31a1.5 1.5 0 1 0 0-1.5h-3.2c-.752 0-.962-.008-1.113-.054a1.25 1.25 0 0 1-.833-.833 1.6 1.6 0 0 1-.047-.41c1.185-.003 2.162-.019 2.956-.125.968-.13 1.774-.408 2.412-1.046.639-.639.916-1.445 1.046-2.413.105-.776.122-1.727.125-2.878.28-.012.527-.041.752-.11a2.75 2.75 0 0 0 1.834-1.833C22 10.405 22 9.95 22 9.36V6.05a1.5 1.5 0 1 0-1.5 0v3.2c0 .752-.008.962-.054 1.113a1.25 1.25 0 0 1-.833.833c-.073.022-.16.036-.317.043-.003-1.164-.021-2.182-.125-2.952-.13-.968-.407-1.774-1.046-2.412-.638-.639-1.444-.916-2.412-1.046-.774-.104-1.8-.122-2.972-.125a3 3 0 0 0-.11-.752 2.75 2.75 0 0 0-1.833-1.833c-.393-.12-.849-.12-1.438-.119H6.05a1.5 1.5 0 0 0-1.3-.75m5.595 7.502c-.614 0-1.205.376-1.406.998l-1.461 4.522a.75.75 0 1 0 1.427.46l.317-.98h2.247l.317.98a.75.75 0 0 0 1.427-.46l-1.46-4.522c-.202-.622-.793-.998-1.408-.998m0 1.522.64 1.978H9.707zm5.404-.772a.75.75 0 0 0-1.5 0v5a.75.75 0 1 0 1.5 0z" clip-rule="evenodd"/></svg>