<svg xmlns="http://www.w3.org/2000/svg" fill="none" viewBox="0 0 24 24"><path fill="currentColor" fill-rule="evenodd" d="M6.706 2.25c.588-.005 1.141.181 1.7.488l3.918 2.15c.248.136.372.204.38.314.006.11-.108.193-.337.36L8.87 8.114c-.34.247-.51.371-.698.354s-.332-.17-.62-.477L4.726 4.986c-.257-.277-.54-.697-.463-1.217s.473-.831.78-1.009c.533-.308 1.073-.505 1.663-.51m5.83 13.627c.08-.174.277-.259.67-.427l3.91-1.68c.257-.11.386-.165.476-.104.09.06.088.2.081.481l-.103 4.58c-.014.608-.125 1.157-.415 1.645s-.714.842-1.226 1.136c-.294.168-.75.351-1.23.163-.482-.188-.698-.633-.805-.98l-1.248-4.026c-.127-.41-.19-.613-.11-.788m8.04-11.774c-1.09-.305-2.335-.605-3.684-.014-.509.222-1.167.637-1.679.977-.525.35-.95.66-1.006.702l-6.32 4.61c-.743.543-.926.655-1.12.69-.638.112-1.322-.147-1.965-.39a9 9 0 0 0-.762-.264c-.413-.116-.96-.091-1.42.034-.425.116-1.085.404-1.31 1.08-.23.696.235 1.224.751 1.608l2.45 1.954c.15.12.225.18.272.26s.062.175.093.364l.488 3.064c.08.637.31 1.295 1.025 1.443.693.144 1.273-.27 1.592-.58.341-.331.639-.789.745-1.206.062-.24.105-.506.15-.78.107-.67.222-1.384.636-1.868.125-.146.313-.246 1.162-.61l7.207-3.096c.064-.027.549-.236 1.119-.51.554-.266 1.247-.621 1.697-.945 1.197-.86 1.558-2.08 1.837-3.166l.042-.162c.102-.388.209-.79.165-1.192A2.15 2.15 0 0 0 21.86 4.6c-.315-.227-.827-.37-1.284-.496" clip-rule="evenodd"/></svg>