<svg xmlns="http://www.w3.org/2000/svg" fill="none" viewBox="0 0 24 24"><path fill="currentColor" fill-rule="evenodd" d="M14.073 1.5H9.927c-1.824 0-3.293 0-4.45.157-1.2.162-2.21.51-3.013 1.319S1.317 4.803 1.155 6.013C1 7.178 1 8.659 1 10.497v.147c0 1.838 0 3.32.155 4.484.162 1.21.507 2.228 1.31 3.037.802.809 1.813 1.157 3.013 1.32.1.013.15.02.195.012a.3.3 0 0 0 .164-.088.8.8 0 0 0 .108-.187q.053-.107.107-.207a10 10 0 0 1 .3-.519c.25-.405.374-.608.302-.757-.07-.15-.309-.178-.784-.236l-.126-.016c-.978-.133-1.496-.375-1.865-.747-.37-.372-.61-.894-.741-1.88C3.002 13.845 3 12.5 3 10.57c0-1.928.002-3.274.138-4.289.131-.986.372-1.508.74-1.88.37-.372.888-.614 1.866-.747 1.007-.136 2.342-.138 4.256-.138h4c1.914 0 3.249.002 4.256.138.978.133 1.496.375 1.865.747.37.372.61.894.742 1.88.135 1.015.137 2.36.137 4.29 0 1.928-.002 3.274-.137 4.289-.132.986-.373 1.508-.742 1.88s-.887.614-1.865.747l-.125.016c-.476.058-.714.086-.785.236-.072.149.053.352.302.757a10 10 0 0 1 .407.726c.05.102.076.154.108.187q.068.07.164.088c.046.008.096 0 .195-.013 1.2-.162 2.211-.51 3.014-1.32.802-.808 1.147-1.826 1.309-3.036.155-1.165.155-2.646.155-4.484v-.147c0-1.838 0-3.32-.155-4.484-.162-1.21-.507-2.228-1.31-3.037-.802-.809-1.812-1.157-3.013-1.32-1.156-.156-2.625-.156-4.449-.156m-2.559 13.053c-.81.178-1.406 1.023-2.599 2.713-1.396 1.978-2.094 2.966-1.876 3.777.086.316.258.608.5.847.618.61 1.9.61 4.461.61s3.842 0 4.461-.61a1.9 1.9 0 0 0 .5-.848c.218-.81-.48-1.798-1.876-3.776-1.193-1.69-1.79-2.535-2.6-2.713a2.3 2.3 0 0 0-.97 0" clip-rule="evenodd"/></svg>