<svg xmlns="http://www.w3.org/2000/svg" fill="none" viewBox="0 0 24 24"><path fill="currentColor" fill-rule="evenodd" d="M10.396 4.17C7.4 2.75 3.748 3.642 1.777 6.33l-.002.003c-.637.883-.094 2.034.847 2.289l5.159 1.39a.47.47 0 0 1 .296.242l1.228 2.428.015.029a2.5 2.5 0 0 0 1.508 1.144l2.26.609c.703.19 1.386-.417 1.23-1.152l-.315-1.473a.1.1 0 0 1 .123-.117l2.437.656c.873.236 1.576.425 2.148.501.594.079 1.121.047 1.608-.227.488-.276.782-.71 1.011-1.257.22-.524.404-1.216.632-2.071l.304-1.14c.094-.354.176-.66.213-.917.109-.754-.288-1.354-.993-1.634a8 8 0 0 0-1.514-.406 1.5 1.5 0 0 0-.576-.006c-.436.09-.766.384-1 .634-.114.122-.218.252-.323.381q-.134.168-.275.329c-.412.458-.62.583-.783.613-.167.031-.411-.014-.97-.283q-.933-.45-1.87-.906a464 464 0 0 0-3.78-1.82M22 19a1 1 0 1 1 0 2H6a1 1 0 1 1 0-2z" clip-rule="evenodd"/></svg>