<svg xmlns="http://www.w3.org/2000/svg" fill="none" viewBox="0 0 24 24"><path fill="currentColor" fill-rule="evenodd" d="M10 3c1.914 0 3.249.002 4.256.138.978.131 1.496.372 1.865.74.37.37.61.888.742 1.866C16.998 6.751 17 8.086 17 10c0 1.177 0 2.142-.034 2.959a1 1 0 1 0 1.998.082C19 12.18 19 11.173 19 10.019v-.091c0-1.026 0-1.94-.028-2.75.533.141.876.341 1.142.607.373.373.615.896.748 1.881.136 1.014.138 2.358.138 4.284 0 1.2 0 2.18-.035 3.008a1 1 0 1 0 1.998.086c.037-.876.037-1.898.037-3.076v-.091c0-1.836 0-3.314-.156-4.477-.163-1.207-.51-2.223-1.316-3.03-.742-.74-1.66-1.094-2.742-1.272-.182-1.035-.534-1.916-1.25-2.633-.803-.802-1.814-1.147-3.014-1.309C13.366 1 11.897 1 10.073 1h-.09c-1.156 0-2.162 0-3.024.036a1 1 0 1 0 .083 1.998C7.858 3 8.823 3 10 3m-8.153.261-.554-.554a1 1 0 0 1 1.414-1.414L3.88 2.464l10.828 10.829 2.828 2.828.708.707 3.285 3.286 1.18 1.179a1 1 0 0 1-1.415 1.414l-.561-.561c-.648.383-1.394.585-2.233.698-1.163.156-2.641.156-4.477.156h-.146c-1.836 0-3.314 0-4.477-.156-1.207-.163-2.223-.51-3.03-1.316-.74-.742-1.094-1.66-1.272-2.742-1.035-.182-1.916-.534-2.633-1.25-.802-.803-1.147-1.814-1.309-3.014-.098-.731-.134-1.588-.147-2.581A79 79 0 0 1 1 11.06V9.927c0-1.824 0-3.293.155-4.45.112-.831.312-1.572.692-2.216m1.504 1.504c-.09.265-.16.585-.213.98C3.002 6.75 3 8.085 3 10v.028q.537-.027 1.075-.026a19.4 19.4 0 0 1 5.115.602zm13.388 13.388c-.644.38-1.385.58-2.217.692l-.054.007c-1.148.148-2.6.148-4.395.148h-.146c-1.026 0-1.94 0-2.75-.028.141.533.341.876.607 1.142.373.373.896.615 1.881.748 1.014.136 2.358.138 4.284.138s3.27-.002 4.284-.138a5.3 5.3 0 0 0 .996-.219zM13 6a1 1 0 0 1 1-1h.009a1 1 0 1 1 0 2H14a1 1 0 0 1-1-1" clip-rule="evenodd"/></svg>