<svg xmlns="http://www.w3.org/2000/svg" fill="none" viewBox="0 0 24 24"><path fill="currentColor" fill-rule="evenodd" d="M7.5 16.748c.356.004 1.008.01 1.435-.077.553-.113 1.136-.393 1.514-1.048.177-.307.243-.633.273-.962.028-.311.028-.69.028-1.13V6.466c0-.44 0-.819-.028-1.13-.03-.33-.096-.655-.273-.963-.378-.654-.96-.934-1.514-1.047-.427-.087-1.079-.081-1.435-.078-.356-.003-1.008-.009-1.435.078-.553.113-1.136.393-1.514 1.047-.177.308-.243.634-.273.963-.028.311-.028.69-.028 1.13v7.065c0 .44 0 .819.028 1.13.03.33.096.655.273.962.378.655.96.935 1.514 1.048.427.087 1.079.08 1.435.077m9 0c.356.004 1.008.01 1.435-.077.553-.113 1.136-.393 1.514-1.048.177-.307.243-.633.273-.962.028-.311.028-.69.028-1.13v-1.065c0-.44 0-.819-.028-1.13-.03-.33-.096-.655-.273-.963-.378-.654-.96-.934-1.514-1.047-.427-.087-1.079-.081-1.435-.078-.356-.003-1.008-.009-1.435.078-.553.113-1.136.393-1.514 1.047-.177.308-.243.634-.273.963-.028.311-.028.69-.028 1.13v1.065c0 .44 0 .819.028 1.13.03.33.096.655.273.962.378.655.96.935 1.514 1.048.427.087 1.079.08 1.435.077M22 20.75a1 1 0 1 0 0-2H2a1 1 0 1 0 0 2z" clip-rule="evenodd"/></svg>