<svg xmlns="http://www.w3.org/2000/svg" fill="none" viewBox="0 0 24 24"><path fill="currentColor" fill-rule="evenodd" d="M19.884 20.532c-1.07-2.023-2.298-3.705-3.576-5.205C19.798 12.73 20 8.71 20 7c0-1.418-.177-2.5-.363-3.243l-.035-.14a4.4 4.4 0 0 0-.374-1.064 1 1 0 0 0-1.793.887c.125.253.182.483.25.758l.012.044C17.844 4.832 18 5.751 18 7c0 1.655-.225 4.84-3.035 6.83-.722-.771-1.45-1.503-2.164-2.222l-.31-.312c-.96-.968-1.894-1.92-2.774-2.928l-.005-.006C8.258 6.696 6.95 4.877 5.911 2.587a1 1 0 0 0-1.821.826c.962 2.123 2.137 3.87 3.406 5.425C4.208 11.47 4 15.253 4 16.929c0 1.447.194 2.552.397 3.312.102.38.225.814.448 1.231a1 1 0 0 0 1.767-.937 8 8 0 0 1-.283-.811C6.17 19.126 6 18.196 6 16.929c0-1.568.21-4.536 2.807-6.577a78 78 0 0 0 2.265 2.353l.266.268c2.473 2.49 4.885 4.917 6.778 8.495a1 1 0 0 0 1.768-.936" clip-rule="evenodd"/></svg>