<svg xmlns="http://www.w3.org/2000/svg" fill="none" viewBox="0 0 24 24"><path fill="currentColor" fill-rule="evenodd" d="M10 22v-2.25h4V22a1 1 0 1 0 2 0v-2.285q.128-.01.246-.027c.492-.066.963-.215 1.345-.597s.531-.854.597-1.345c.062-.459.062-1.032.062-1.697V11.75c0-.471 0-.707-.146-.854-.147-.146-.383-.146-.854-.146H6.75c-.471 0-.707 0-.854.146-.146.147-.146.383-.146.854v4.3c0 .664 0 1.237.062 1.696.066.492.215.963.597 1.345s.854.531 1.345.597q.118.017.246.027V22a1 1 0 1 0 2 0M7.9 1.2a1 1 0 0 1 1.4.2l1.477 1.97a6.3 6.3 0 0 1 2.446 0L14.7 1.4a1 1 0 1 1 1.6 1.2l-1.133 1.51a6.26 6.26 0 0 1 2.952 4.108c.092.442.138.663-.012.847-.15.185-.4.185-.901.185H6.796c-.501 0-.752 0-.902-.185-.15-.184-.104-.405-.012-.847a6.26 6.26 0 0 1 2.951-4.107L7.7 2.6a1 1 0 0 1 .2-1.4M5 11a1 1 0 1 0-2 0v6a1 1 0 1 0 2 0zm16 0a1 1 0 1 0-2 0v6a1 1 0 1 0 2 0z" clip-rule="evenodd"/></svg>