<svg xmlns="http://www.w3.org/2000/svg" fill="none" viewBox="0 0 24 24"><path fill="currentColor" fill-rule="evenodd" d="M12.057 1.75h-.114c-2.19 0-3.912 0-5.255.18-1.377.186-2.469.573-3.327 1.43-.858.86-1.245 1.951-1.43 3.328-.181 1.343-.181 3.064-.181 5.255v.114c0 2.19 0 3.912.18 5.255.186 1.377.573 2.469 1.43 3.327.86.858 1.951 1.245 3.328 1.43 1.343.181 3.064.181 5.255.181h.114c2.19 0 3.912 0 5.255-.18 1.377-.186 2.469-.573 3.327-1.43.858-.86 1.245-1.951 1.43-3.328.181-1.343.181-3.064.181-5.255v-.114c0-2.19 0-3.912-.18-5.255-.186-1.377-.573-2.469-1.43-3.327-.86-.858-1.951-1.245-3.328-1.43-1.343-.181-3.064-.181-5.255-.181m-.414 4.864a.75.75 0 1 0-1.286.772l.768 1.28-2.75 4.584H6.5a.75.75 0 0 0 0 1.5h.975l-1.118 1.864a.75.75 0 0 0 1.286.772l1.582-2.636H12.5a.75.75 0 0 0 0-1.5h-2.375l2.51-4.184.015-.026.993-1.654a.75.75 0 1 0-1.286-.772L12 7.21zm2.4 4a.75.75 0 0 0-1.286.772l3.6 6a.75.75 0 1 0 1.286-.772l-1.118-1.864h.975a.75.75 0 0 0 0-1.5h-1.875z" clip-rule="evenodd"/></svg>