<svg xmlns="http://www.w3.org/2000/svg" fill="none" viewBox="0 0 24 24"><path fill="currentColor" fill-rule="evenodd" d="M17.312 1.932c1.377.185 2.469.573 3.327 1.434.858.86 1.245 1.956 1.43 3.337.181 1.347.181 3.072.18 5.27v.114c.001 2.197.001 3.923-.18 5.27-.185 1.38-.572 2.476-1.43 3.337-.858.86-1.95 1.249-3.327 1.434q-.671.088-1.474.128c-.305.015-.458.023-.586-.053-.129-.075-.199-.215-.338-.495a10.7 10.7 0 0 1-.882-2.556c-.055-.257-.083-.386-.021-.488.061-.102.197-.14.469-.217.953-.27 1.911-.689 2.892-1.251a.753.753 0 0 0 .28-1.026.75.75 0 0 0-1.024-.28c-.775.444-1.513.778-2.227 1.01-.3.096-.449.145-.57.06-.122-.084-.13-.245-.146-.569a21 21 0 0 1-.011-1.836 5 5 0 0 0-.002-.59c-.052-.635-.489-1.087-1.117-1.161-.253-.03-.508-.026-.763-.022-.275.005-.55.01-.822-.029-.18-.015-.221-.151-.22-.217-.005-.174.02-.413.069-.842.213-1.87.71-3.77 1.262-5.362.421-1.213 1.003-2.36 1.583-3.503l.26-.513c.137-.272.206-.408.33-.483.123-.074.274-.07.574-.064.945.02 1.768.066 2.484.163m-.062 5.334c.414 0 .75.337.75.752v2.006a.751.751 0 1 1-1.5 0V8.018c0-.415.336-.752.75-.752M11.943 22.25c-2.19 0-3.912 0-5.255-.18-1.377-.186-2.469-.573-3.327-1.43-.858-.86-1.245-1.951-1.43-3.328-.181-1.343-.181-3.064-.181-5.255v-.114c0-2.19 0-3.912.18-5.255.186-1.377.573-2.469 1.43-3.327.86-.858 1.951-1.245 3.328-1.43 1.343-.181 3.064-.181 5.255-.181.21 0 .548.075.398.372-.483.73-1.113 2.084-1.676 3.704-.644 1.85-1.118 3.766-1.342 5.713-.042.367-.082.72-.071 1.02.032.885.648 1.528 1.512 1.648.313.043.63.043.946.043h.176a.287.287 0 0 1 .286.296c-.022.623-.024 1.484.051 2.458a.226.226 0 0 1-.223.246c-1.462 0-2.96-.447-4.628-1.401a.75.75 0 1 0-.744 1.302c1.831 1.047 3.584 1.6 5.372 1.6.328 0 .447.078.514.416.178.895.405 1.848.815 2.669a.286.286 0 0 1-.255.413l-1.01.001zm-5.193-15A.75.75 0 0 1 7.5 8v2A.75.75 0 0 1 6 10V8a.75.75 0 0 1 .75-.75" clip-rule="evenodd"/></svg>