<svg xmlns="http://www.w3.org/2000/svg" fill="none" viewBox="0 0 24 24"><path fill="currentColor" fill-rule="evenodd" d="M7 1.25c.55 0 1 .45 1 1v1.04c.85-.04 1.84-.04 2.95-.04h2.1c1.11 0 2.1 0 2.95.04V2.25c0-.55.45-1 1-1s1 .45 1 1v1.26c.9.19 1.68.53 2.32 1.17.78.78 1.12 1.77 1.28 2.94.15 1.13.15 2.56.15 4.34v2.08c0 1.78 0 3.21-.15 4.34-.16 1.17-.5 2.16-1.28 2.94s-1.77 1.12-2.94 1.28c-1.12.15-2.56.15-4.33.15h-2.1c-1.77 0-3.21 0-4.33-.15-1.17-.16-2.16-.5-2.94-1.28s-1.12-1.77-1.28-2.94c-.15-1.13-.15-2.56-.15-4.34v-2.08c0-1.78 0-3.21.15-4.34.16-1.17.5-2.16 1.28-2.94C4.32 4.04 5.1 3.7 6 3.51V2.25c0-.55.45-1 1-1m-2.78 8c-.02.65-.02 1.4-.02 2.28v2.44c0 1.87 0 3.17.14 4.15.12.96.36 1.46.72 1.82s.86.6 1.82.72c.98.14 2.28.14 4.15.14h1.95c1.86 0 3.16 0 4.15-.14.95-.12 1.45-.36 1.81-.72s.6-.86.73-1.82c.13-.98.13-2.28.13-4.15v-2.44c0-.88 0-1.63-.01-2.28zm12.11 4.19c.52-.18.8-.75.61-1.27a.99.99 0 0 0-1.27-.61c-1.69.6-3.09 2.03-4.01 3.19-.25.31-.47.61-.66.89-.21-.21-.41-.38-.61-.52-.27-.19-.72-.45-1.07-.57a1.01 1.01 0 0 0-1.27.63c-.17.53.11 1.09.63 1.27.11.05.39.19.55.3.33.23.66.58.82 1.07.13.37.47.64.86.68.4.03.78-.17.97-.53l.02-.02q.015-.045.06-.12c.06-.1.15-.25.27-.43.23-.37.57-.87.99-1.4.87-1.09 1.98-2.15 3.11-2.56" clip-rule="evenodd"/></svg>