<svg xmlns="http://www.w3.org/2000/svg" fill="none" viewBox="0 0 24 24"><path fill="currentColor" fill-rule="evenodd" d="M13.04 5.55c.061-.47.198-1.002.44-1.45.326-.603.782-.975 1.52-.975a1 1 0 1 0 0-2c-1.662 0-2.706.961-3.28 2.025-.431.8-.629 1.694-.694 2.419A6 6 0 0 0 9.5 5.375c-4.142 0-7.25 4.07-7.25 8.75s3.108 8.75 7.25 8.75c.88 0 1.723-.19 2.5-.532a6.15 6.15 0 0 0 2.5.532c4.143 0 7.25-4.07 7.25-8.75s-3.107-8.75-7.25-8.75q-.754.002-1.46.174m-2.154 1.815a1 1 0 0 1 .044 1.414c-1.025 1.09-1.753 2.649-1.935 4.443a1 1 0 1 1-1.99-.202c.223-2.202 1.123-4.18 2.468-5.611a1 1 0 0 1 1.413-.044" clip-rule="evenodd"/></svg>