<svg xmlns="http://www.w3.org/2000/svg" fill="none" viewBox="0 0 24 24"><path fill="currentColor" fill-rule="evenodd" d="M13.878 1.25c1.457.003 2.647.023 3.611.153 1.172.157 2.121.49 2.87 1.238.748.748 1.08 1.697 1.238 2.87.153 1.139.153 2.594.153 4.432v1.306H2.25V9.122c.004-1.457.024-2.648.153-3.612.158-1.172.49-2.12 1.238-2.87.749-.748 1.698-1.08 2.87-1.237.964-.13 2.154-.15 3.611-.153zm1.122 5H9a.75.75 0 0 0 0 1.5h6a.75.75 0 0 0 0-1.5m6.75 6.5v1.306c0 1.838 0 3.293-.153 4.432-.158 1.173-.49 2.122-1.238 2.87-.749.749-1.698 1.08-2.87 1.238-1.14.153-2.595.154-4.433.154h-2.53c-1.642-.001-2.963-.012-4.015-.154-1.172-.157-2.121-.49-2.87-1.238-.748-.748-1.08-1.697-1.238-2.87-.13-.963-.15-2.154-.152-3.61l-.001-2.129zM15 16.25H9a.75.75 0 0 0 0 1.5h6a.75.75 0 0 0 0-1.5" clip-rule="evenodd"/></svg>