<svg xmlns="http://www.w3.org/2000/svg" fill="none" viewBox="0 0 24 24"><path fill="currentColor" fill-rule="evenodd" d="M6 4.5a1 1 0 0 0-.805 1.594h.001l.199.267a56 56 0 0 0 2.257 2.795c.662.762 1.396 1.55 2.081 2.156.342.302.695.58 1.039.787.317.19.752.401 1.228.401s.911-.21 1.228-.401a7.4 7.4 0 0 0 1.039-.787c.685-.606 1.419-1.394 2.08-2.156a53 53 0 0 0 2.258-2.795l.198-.265.002-.003A1 1 0 0 0 18 4.5zm.99 7.655-.185-.248a1 1 0 1 0-1.61 1.187h.001l.199.267a53 53 0 0 0 2.257 2.795c.662.762 1.396 1.55 2.081 2.156.342.302.695.58 1.039.787.316.19.752.401 1.228.401s.911-.21 1.228-.401a7.4 7.4 0 0 0 1.039-.787c.685-.606 1.419-1.394 2.08-2.156a53 53 0 0 0 1.726-2.103c.222-.284.6-.786.73-.956l.002-.003a1 1 0 0 0-1.61-1.187c-.122.16-.483.639-.699.915a51 51 0 0 1-1.658 2.022c-.64.738-1.308 1.45-1.896 1.97q-.444.39-.747.572a1.4 1.4 0 0 1-.195.101 1.4 1.4 0 0 1-.196-.101q-.302-.18-.747-.573c-.588-.52-1.255-1.231-1.895-1.969a51 51 0 0 1-2.171-2.689" clip-rule="evenodd"/></svg>