<svg xmlns="http://www.w3.org/2000/svg" fill="none" viewBox="0 0 24 24"><path fill="currentColor" fill-rule="evenodd" d="M19.5 6a1 1 0 0 0-1.593-.805h-.002v.001l-.265.199a55 55 0 0 0-2.796 2.257c-.762.662-1.55 1.396-2.156 2.081a7.4 7.4 0 0 0-.787 1.039c-.19.316-.401.752-.401 1.228s.21.911.401 1.228c.208.344.485.697.787 1.039.606.685 1.394 1.419 2.156 2.08a53 53 0 0 0 3.06 2.456l.003.002A1 1 0 0 0 19.5 18zm-7.655.99.248-.185a1 1 0 1 0-1.187-1.61l-.267.2a55 55 0 0 0-2.795 2.257c-.762.662-1.55 1.396-2.156 2.081a7.3 7.3 0 0 0-.787 1.039c-.19.316-.401.752-.401 1.228s.21.911.401 1.228c.208.344.485.697.787 1.039.606.685 1.394 1.419 2.156 2.08a54 54 0 0 0 2.103 1.726c.284.222.786.6.956.73l.003.002a1 1 0 0 0 1.187-1.61c-.16-.122-.639-.483-.915-.699a51 51 0 0 1-2.022-1.658c-.738-.64-1.45-1.308-1.97-1.896a5.5 5.5 0 0 1-.572-.747A1.4 1.4 0 0 1 6.513 12c.014-.036.044-.1.101-.196.12-.2.312-.452.573-.747.52-.588 1.231-1.255 1.969-1.895a51 51 0 0 1 2.689-2.171" clip-rule="evenodd"/></svg>