<svg xmlns="http://www.w3.org/2000/svg" fill="none" viewBox="0 0 24 24"><path fill="currentColor" fill-rule="evenodd" d="M19.33 2.003c-.642.016-1.362.103-1.921.17l-.134.016a5 5 0 0 0-.565.09l-.005.001c-.123.03-.69.17-.895.765-.205.594.15 1.052.23 1.154l.001.001c.11.141.261.293.385.416l.772.772-4.405 4.405a1 1 0 0 0 1.414 1.414l4.405-4.405.772.772c.123.124.275.276.415.385l.003.002c.1.078.559.434 1.152.229.596-.206.736-.772.766-.896l.001-.004c.043-.173.069-.388.09-.565l.016-.134c.067-.559.154-1.279.17-1.922.009-.34 0-.7-.056-1.03-.05-.293-.163-.741-.5-1.08-.339-.337-.787-.45-1.08-.5a5.5 5.5 0 0 0-1.03-.056M4.67 21.997c.642-.016 1.362-.103 1.921-.17l.134-.016c.177-.021.392-.047.565-.09l.004-.001c.124-.03.69-.17.896-.765.205-.594-.15-1.052-.23-1.153l-.001-.003a5 5 0 0 0-.385-.415l-.772-.772 4.405-4.405a1 1 0 0 0-1.414-1.414l-4.405 4.405-.772-.772c-.123-.123-.275-.276-.415-.385l-.002-.002c-.102-.078-.56-.434-1.153-.229-.596.206-.736.772-.766.896l-.001.004a5 5 0 0 0-.09.565l-.016.134c-.067.559-.154 1.279-.17 1.922-.009.34 0 .7.056 1.03.05.293.163.741.5 1.08.339.337.787.45 1.08.5.33.055.69.065 1.03.056" clip-rule="evenodd"/></svg>