<svg xmlns="http://www.w3.org/2000/svg" fill="none" viewBox="0 0 24 24"><path fill="currentColor" fill-rule="evenodd" d="M2.293 2.293a1 1 0 0 1 1.414 0l3.864 3.864.94-.94.03-.03c.13-.131.297-.298.455-.415.165-.121.615-.41 1.176-.193.558.215.698.726.74.93.038.193.049.428.057.61l.002.04c.028.608.047 1.406.002 2.12a7 7 0 0 1-.136 1.04c-.062.272-.185.706-.499 1.02-.313.313-.747.436-1.02.498a7 7 0 0 1-1.039.136 21 21 0 0 1-2.12-.002l-.04-.002a4 4 0 0 1-.61-.058c-.204-.04-.715-.181-.93-.739-.218-.56.072-1.011.193-1.176.117-.158.284-.325.415-.455l.03-.03.94-.94-3.864-3.864a1 1 0 0 1 0-1.414m19.414 0a1 1 0 0 0-1.414 0l-3.864 3.864-.94-.94-.03-.03a4 4 0 0 0-.455-.415c-.165-.121-.615-.41-1.176-.193-.558.215-.698.726-.74.93a4 4 0 0 0-.057.61l-.002.04a20 20 0 0 0-.002 2.12 7 7 0 0 0 .136 1.04c.062.272.185.706.499 1.02.313.313.747.436 1.02.498.32.073.684.113 1.039.136a21 21 0 0 0 2.12-.002l.04-.002a4 4 0 0 0 .61-.058c.204-.04.715-.181.93-.739.218-.56-.072-1.011-.193-1.176a4 4 0 0 0-.415-.455l-.03-.03-.94-.94 3.864-3.864a1 1 0 0 0 0-1.414m-18 19.414a1 1 0 0 1-1.414-1.414l3.864-3.864-.94-.94-.03-.03a4 4 0 0 1-.415-.455c-.121-.165-.41-.615-.193-1.176.215-.558.726-.698.93-.74.193-.038.428-.049.61-.057l.04-.002a20 20 0 0 1 2.12-.002 7 7 0 0 1 1.04.136c.272.062.706.185 1.02.499.313.313.436.747.498 1.02.073.32.113.684.136 1.039a21 21 0 0 1-.002 2.12l-.002.04a4 4 0 0 1-.058.61c-.04.204-.181.715-.739.93-.56.218-1.011-.072-1.176-.193a4.4 4.4 0 0 1-.456-.415l-.029-.03-.94-.94zm18 0a1 1 0 0 1-1.414 0l-3.864-3.864-.94.94-.03.03c-.13.131-.297.298-.455.415-.165.121-.615.41-1.176.193-.558-.215-.698-.726-.74-.93a4 4 0 0 1-.057-.61l-.002-.04a20 20 0 0 1-.002-2.12 7 7 0 0 1 .136-1.04c.062-.272.185-.706.499-1.02.313-.313.747-.436 1.02-.498a7 7 0 0 1 1.039-.136 20 20 0 0 1 2.12.002l.04.002c.182.008.417.019.61.058.204.04.715.181.93.739.218.56-.072 1.011-.193 1.176a4.5 4.5 0 0 1-.415.456l-.03.029-.94.94 3.864 3.864a1 1 0 0 1 0 1.414" clip-rule="evenodd"/></svg>