<svg xmlns="http://www.w3.org/2000/svg" fill="none" viewBox="0 0 24 24"><path fill="currentColor" d="M6 10a1 1 0 0 0-1 1v4.5a5.5 5.5 0 1 0 11 0V8h2a1 1 0 0 0 .805-1.593l-.008-.01-.02-.028a26 26 0 0 0-.346-.453c-.226-.29-.539-.68-.88-1.072-.336-.387-.72-.8-1.087-1.125a4 4 0 0 0-.592-.447C15.692 3.164 15.377 3 15 3s-.691.164-.872.272c-.208.126-.41.286-.592.447-.367.325-.751.738-1.088 1.125a27 27 0 0 0-1.225 1.525l-.02.027-.006.008-.002.003A1 1 0 0 0 12 8h2v7.5a3.5 3.5 0 1 1-7 0V11a1 1 0 0 0-1-1"/></svg>