<svg xmlns="http://www.w3.org/2000/svg" fill="none" viewBox="0 0 24 24"><path fill="currentColor" fill-rule="evenodd" d="M8.293 9.707a1 1 0 0 0 1.414-1.414L6.802 5.388l.772-.772c.124-.123.276-.275.385-.416l.002-.001c.078-.102.434-.56.229-1.154-.206-.595-.772-.735-.896-.765l-.004-.001a5 5 0 0 0-.565-.09l-.134-.016c-.559-.067-1.279-.154-1.922-.17a5.5 5.5 0 0 0-1.03.056c-.293.05-.741.163-1.08.5-.337.339-.45.787-.5 1.08a5.5 5.5 0 0 0-.056 1.03c.016.643.103 1.363.17 1.922l.016.134c.021.177.047.392.09.565l.001.004c.03.124.17.69.766.896.593.205 1.051-.15 1.153-.23H4.2c.14-.11.292-.261.415-.385l.772-.772zm8.414-2.414a1 1 0 0 0-1.414 0l-8 8a1 1 0 1 0 1.414 1.414l8-8a1 1 0 0 0 0-1.414m-2.414 7a1 1 0 0 1 1.414 0l2.905 2.905.772-.772c.123-.123.275-.276.415-.385l.003-.002c.1-.078.559-.434 1.152-.229.596.206.736.772.766.896l.001.004c.043.173.069.388.09.565l.016.134c.067.559.154 1.279.17 1.922.009.34 0 .7-.056 1.03-.05.293-.163.741-.5 1.08-.339.337-.787.45-1.08.5-.33.055-.69.065-1.03.056-.643-.016-1.363-.103-1.922-.17l-.134-.016a5 5 0 0 1-.565-.09l-.005-.001c-.123-.03-.69-.17-.895-.765-.205-.594.15-1.052.23-1.153l.001-.003c.11-.14.261-.292.385-.415l.772-.772-2.905-2.905a1 1 0 0 1 0-1.414" clip-rule="evenodd"/></svg>