<svg xmlns="http://www.w3.org/2000/svg" fill="none" viewBox="0 0 24 24"><path fill="currentColor" fill-rule="evenodd" d="M8.75 2a.75.75 0 0 0-1.5 0v1.442c-1.053.171-1.917.507-2.609 1.2-.692.691-1.028 1.555-1.2 2.608H2a.75.75 0 0 0 0 1.5h1.296a53 53 0 0 0-.046 2.5H2a.75.75 0 0 0 0 1.5h1.25c.002.922.01 1.763.047 2.5H2a.75.75 0 0 0 0 1.5h1.442c.171 1.053.507 1.917 1.2 2.609.691.692 1.555 1.028 2.608 1.2V22a.75.75 0 0 0 1.5 0v-1.296a54 54 0 0 0 2.5.046V22a.75.75 0 0 0 1.5 0v-1.25a54 54 0 0 0 2.5-.047V22a.75.75 0 0 0 1.5 0v-1.442c1.053-.171 1.917-.507 2.609-1.2.692-.691 1.028-1.555 1.2-2.608H22a.75.75 0 0 0 0-1.5h-1.297a54 54 0 0 0 .047-2.5H22a.75.75 0 0 0 0-1.5h-1.25a53 53 0 0 0-.046-2.5H22a.75.75 0 0 0 0-1.5h-1.442c-.171-1.053-.507-1.917-1.2-2.609-.691-.692-1.555-1.028-2.608-1.2V2a.75.75 0 0 0-1.5 0v1.297a54 54 0 0 0-2.5-.046V2a.75.75 0 0 0-1.5 0v1.25a54 54 0 0 0-2.5.046zM10 9.872l-.793 2.378h1.586zm1.293 3.878.496 1.487a.75.75 0 0 0 1.423-.474L11.37 9.237a1.444 1.444 0 0 0-2.74 0l-1.84 5.526a.75.75 0 0 0 1.423.474l.495-1.487zM16.25 9a.75.75 0 0 0-1.5 0v6a.75.75 0 0 0 1.5 0z" clip-rule="evenodd"/></svg>