<svg xmlns="http://www.w3.org/2000/svg" fill="none" viewBox="0 0 24 24"><path fill="currentColor" fill-rule="evenodd" d="M4.978 2.928c.345-.44.882-.678 1.426-.678h2.102a1.32 1.32 0 0 1 1.24.873c.138.383.478.866.937 1.253.464.392.942.597 1.317.597.374 0 .852-.205 1.317-.597.459-.387.799-.87.936-1.253a1.32 1.32 0 0 1 1.24-.873h2.102c.545 0 1.082.238 1.426.678l3.503 4.483c.283.362.247.78.172 1.047-.076.276-.228.54-.393.77-.337.468-.848.958-1.425 1.375-.58.417-1.267.792-1.975.992a4 4 0 0 1-.825.147l2.307 4.384c.282.537.408 1.08.351 1.616a2.56 2.56 0 0 1-.607 1.38c-.618.742-1.613 1.256-2.609 1.618-2.013.734-4.488 1.01-5.52 1.01-1.033 0-3.507-.276-5.521-1.01-.995-.362-1.991-.876-2.609-1.618a2.57 2.57 0 0 1-.607-1.38c-.057-.536.07-1.079.352-1.616l2.306-4.384a4 4 0 0 1-.824-.147c-.708-.2-1.396-.575-1.975-.992-.577-.417-1.089-.907-1.426-1.375a2.5 2.5 0 0 1-.393-.77c-.074-.268-.11-.685.172-1.047zm4.783 8.848c.805-.457 1.507-.273 1.929.02.173.12.26.181.31.181s.137-.06.31-.18c.422-.294 1.124-.478 1.929-.02 1.056.599 1.294 2.577-1.14 4.246-.465.318-.697.477-1.099.477s-.634-.159-1.098-.477c-2.435-1.669-2.197-3.647-1.14-4.247" clip-rule="evenodd"/></svg>