<svg xmlns="http://www.w3.org/2000/svg" fill="none" viewBox="0 0 24 24"><path fill="currentColor" fill-rule="evenodd" d="M9.25 2c0-.41.34-.75.75-.75h4c.41 0 .75.34.75.75v.64c0 .63.01.81.04.94.1.38.37.69.73.84.12.05.41.1 1.04.19 1.05.15 1.72.24 2.28.48 1.36.57 2.38 1.75 2.75 3.17.16.6.16 1.28.16 2.34V22c0 .41-.34.75-.75.75h-2.26v-.05c-.03-.14-.05-.3-.07-.42-.04-.39-.1-.93-.16-1.53-.12-1.21-.24-2.62-.26-3.54-.02-1.38.1-2.77.23-3.83.06-.53.13-.96.18-1.27.02-.15.06-.39.08-.47.07-.41-.19-.8-.6-.88-.41-.07-.8.19-.88.6-.01.1-.06.36-.08.51-.06.32-.12.78-.19 1.33-.13 1.09-.26 2.56-.24 4.04.02.98.15 2.46.27 3.66.06.61.12 1.15.16 1.55 0 .11.03.21.04.3h-4.47V13c0-.41-.34-.75-.75-.75s-.75.34-.75.75v9.75H6.78c.01-.09.03-.19.04-.3.04-.4.1-.94.16-1.55.12-1.2.25-2.68.27-3.66.02-1.48-.11-2.95-.24-4.04-.07-.55-.13-1.01-.19-1.33-.02-.15-.07-.41-.08-.51a.76.76 0 0 0-.88-.6c-.41.08-.67.47-.6.88.02.08.06.32.08.47.05.31.12.74.18 1.27.13 1.06.25 2.45.23 3.83-.02.92-.14 2.33-.26 3.54-.06.6-.12 1.14-.16 1.53-.01.09-.04.28-.06.47H3c-.41 0-.75-.34-.75-.75V10.6c0-1.06 0-1.74.16-2.34.37-1.42 1.39-2.6 2.75-3.17.56-.24 1.23-.33 2.28-.48.63-.09.92-.14 1.04-.19.36-.15.63-.46.73-.84.03-.13.04-.31.04-.94zM10 7.75c.41 0 .75.34.75.75 0 1.24-1.01 2.25-2.25 2.25-.41 0-.75-.34-.75-.75s.34-.75.75-.75.75-.34.75-.75.34-.75.75-.75m4 0c.41 0 .75.34.75.75s.34.75.75.75.75.34.75.75-.34.75-.75.75c-1.24 0-2.25-1.01-2.25-2.25 0-.41.34-.75.75-.75" clip-rule="evenodd"/></svg>