<svg xmlns="http://www.w3.org/2000/svg" fill="none" viewBox="0 0 24 24"><path fill="currentColor" fill-rule="evenodd" d="M10.08 3.25h.09c.433 0 .83 0 1.152.043.356.048.731.16 1.04.47s.422.684.47 1.04c.043.323.043.72.043 1.152v12.09c0 .433 0 .83-.043 1.152-.048.356-.16.731-.47 1.04s-.684.422-1.04.47c-.323.043-.72.043-1.152.043h-.09c-.433 0-.83 0-1.152-.043-.356-.048-.731-.16-1.04-.47s-.422-.684-.47-1.04c-.043-.323-.043-.72-.043-1.152V5.955c0-.433 0-.83.043-1.152.048-.356.16-.731.47-1.04s.684-.422 1.04-.47c.323-.043.72-.043 1.152-.043m-7.955 0c.552 0 1 .435 1 .972v15.556c0 .537-.448.972-1 .972s-1-.435-1-.972V4.222c0-.537.448-.972 1-.972m4 .972c0-.537-.448-.972-1-.972s-1 .435-1 .972v15.556c0 .537.448.972 1 .972s1-.435 1-.972zm9-.972c.552 0 1 .435 1 .972v15.556c0 .537-.448.972-1 .972s-1-.435-1-.972V4.222c0-.537.448-.972 1-.972m5 0h-.045c-.433 0-.83 0-1.152.043-.356.048-.731.16-1.04.47s-.422.684-.47 1.04c-.043.323-.043.72-.043 1.152v12.09c0 .433 0 .83.043 1.152.048.356.16.731.47 1.04s.684.422 1.04.47c.323.043.72.043 1.152.043h.09c.433 0 .83 0 1.152-.043.356-.048.731-.16 1.04-.47s.422-.684.47-1.04c.043-.323.043-.72.043-1.152V5.955c0-.433 0-.83-.043-1.152-.048-.356-.16-.731-.47-1.04s-.684-.422-1.04-.47c-.323-.043-.72-.043-1.152-.043z" clip-rule="evenodd"/></svg>