<svg xmlns="http://www.w3.org/2000/svg" fill="none" viewBox="0 0 24 24"><path fill="currentColor" fill-rule="evenodd" d="M9.18 5.29c-1.398-.178-2.495.237-3.173 1.199a3 3 0 0 0-.167.261H3.955c-.433 0-.83 0-1.152.043-.356.048-.731.16-1.04.47s-.422.684-.47 1.04c-.043.323-.043.72-.043 1.152v5.09c0 .433 0 .83.043 1.152.048.356.16.732.47 1.04.309.31.684.422 1.04.47.323.043.72.043 1.152.043H5.84q.078.135.167.262c.678.96 1.775 1.376 3.173 1.198 1.607-.206 3.36-.586 4.776-1.46h6.09c.433 0 .83 0 1.153-.043.355-.048.731-.16 1.04-.47.31-.308.421-.684.47-1.04.043-.322.043-.72.043-1.152v-5.09c0-.433 0-.83-.044-1.152-.047-.356-.16-.731-.469-1.04s-.685-.422-1.04-.47c-.323-.043-.72-.043-1.153-.043h-6.09c-1.417-.874-3.169-1.254-4.776-1.46M4 11h1.25v2H4a1 1 0 0 1 0-2m3.167-1.496c0-.904.148-1.539.402-1.898.183-.26.511-.512 1.37-.402 1.634.208 3.13.58 4.202 1.311 1.002.684 1.692 1.717 1.692 3.485 0 1.769-.69 2.801-1.692 3.485-1.072.73-2.568 1.103-4.202 1.311-.859.11-1.187-.143-1.37-.402-.254-.36-.402-.994-.402-1.898V13H9a1 1 0 0 0 0-2H7.167zM19.002 12c0-.552.446-1 .995-1h.01c.55 0 .995.448.995 1s-.446 1-.995 1h-.01a1 1 0 0 1-.995-1" clip-rule="evenodd"/></svg>