<svg xmlns="http://www.w3.org/2000/svg" fill="none" viewBox="0 0 24 24"><path fill="currentColor" fill-rule="evenodd" d="M13 2a1 1 0 1 0-2 0v2.1A5.002 5.002 0 0 0 9 13c0 .644-.195 1.74-.508 3a1 1 0 0 0-.513 1.853c-.454 1.498-.97 2.893-1.373 3.7a1 1 0 1 0 1.789.894C8.913 21.411 9.526 19.7 10.022 18h3.957c.496 1.7 1.109 3.411 1.627 4.447a1 1 0 1 0 1.789-.894c-.404-.807-.92-2.202-1.373-3.7A1 1 0 0 0 15.509 16c-.314-1.26-.509-2.357-.509-3a5.002 5.002 0 0 0-2-8.9zm.06 11.887c.075.628.214 1.355.391 2.113h-2.902c.177-.758.316-1.485.391-2.113a5 5 0 0 0 2.12 0" clip-rule="evenodd"/></svg>