<svg xmlns="http://www.w3.org/2000/svg" fill="none" viewBox="0 0 24 24"><path fill="currentColor" fill-rule="evenodd" d="M15.794 3c.89 0 1.968.052 2.921.435 1.018.41 1.872 1.189 2.247 2.516a1 1 0 0 1-1.925.543c-.188-.667-.56-1-1.068-1.203-.5-.2-1.131-.273-1.857-.288l1.615 6.024q.258-.027.523-.027a5 5 0 1 1-2.432.63l-.394-1.472-3.315 5.83a2 2 0 0 1-1.455.992A5.002 5.002 0 0 1 .75 16a5 5 0 0 1 9.817-1.345l.612-1.078L6.532 8H5a1 1 0 0 1 0-2h4a1 1 0 0 1 .128 1.992l3.107 3.728 2.396-4.214a1 1 0 0 1 .057-.09l-.605-2.256c-.116-.443-.18-1.11.3-1.635.433-.474 1.05-.525 1.411-.525m2.462 10 .735 2.741a1 1 0 1 1-1.932.518l-.695-2.592A3 3 0 1 0 18.256 13M5.75 13a3 3 0 1 0 2.83 4H6a1 1 0 1 1 0-2h2.58a3 3 0 0 0-2.83-2" clip-rule="evenodd"/></svg>