<svg xmlns="http://www.w3.org/2000/svg" fill="none" viewBox="0 0 24 24"><path fill="currentColor" fill-rule="evenodd" d="M8.25 6.5a3.75 3.75 0 1 1 7.5 0v1.82A97 97 0 0 0 12 8.25c-1.327 0-2.553.024-3.75.07zm-1.5 1.96V6.5a5.25 5.25 0 1 1 10.5 0v1.96c1.69.403 2.989 1.838 3.226 3.595.148 1.1.274 2.257.274 3.445s-.126 2.344-.274 3.445c-.272 2.017-1.943 3.61-4.001 3.705-1.429.066-2.88.1-4.475.1-1.596 0-3.046-.034-4.475-.1-2.058-.095-3.729-1.688-4-3.705-.149-1.1-.275-2.257-.275-3.445s.126-2.344.275-3.445C3.76 10.298 5.059 8.863 6.75 8.46m2 7.54a3.25 3.25 0 0 1 6.5 0v1.5a.75.75 0 0 0 1.5 0V16a4.75 4.75 0 1 0-9.5 0v1.5a.75.75 0 0 0 1.5 0zm3.25-.75a.75.75 0 0 0-.75.75v3a.75.75 0 0 1-1.5 0v-3a2.25 2.25 0 0 1 4.5 0 .75.75 0 0 1-1.5 0 .75.75 0 0 0-.75-.75m1.5 2a.75.75 0 0 1 .75.75v1a.75.75 0 0 1-1.5 0v-1a.75.75 0 0 1 .75-.75" clip-rule="evenodd"/></svg>