<svg xmlns="http://www.w3.org/2000/svg" fill="none" viewBox="0 0 24 24"><path fill="currentColor" fill-rule="evenodd" d="M10.221 4.198a8 8 0 0 1 7.755 13.12V16a1 1 0 1 0-2 0v3.5a1 1 0 0 0 1 1H20.5a1 1 0 1 0 0-2h-.9A9.96 9.96 0 0 0 22 12c0-5.523-4.477-10-10-10-.762 0-1.506.085-2.221.248a1 1 0 1 0 .442 1.95M3.5 3.516a1 1 0 1 0 0 2h.887A9.96 9.96 0 0 0 2 12c0 5.523 4.477 10 10 10 .762 0 1.506-.085 2.221-.248a1 1 0 1 0-.442-1.95A8 8 0 0 1 6 6.708V8a1 1 0 0 0 2 0V4.516a1 1 0 0 0-1-1zM13 8a1 1 0 1 0-2 0v.333H9.5a1 1 0 0 0-.062 1.998v3.338a1 1 0 0 0 .062 1.998H11V16a1 1 0 1 0 2 0v-.333h.563c1.13 0 1.937-.957 1.937-2V13c0-.355-.093-.7-.261-1 .168-.3.261-.645.261-1v-.667c0-1.042-.808-2-1.937-2H13zm-1.562 3v-.667H13.5V11zm0 2.667V13H13.5v.667z" clip-rule="evenodd"/></svg>