<svg xmlns="http://www.w3.org/2000/svg" fill="none" viewBox="0 0 24 24"><path fill="currentColor" fill-rule="evenodd" d="m22.465 21.081-3.875-3.874a9.73 9.73 0 0 0 2.206-6.185c0-5.397-4.376-9.772-9.773-9.772-5.398 0-9.773 4.375-9.773 9.772s4.375 9.773 9.773 9.773a9.73 9.73 0 0 0 6.185-2.206l3.874 3.874a.977.977 0 1 0 1.383-1.382M11.023 3.204a7.818 7.818 0 1 0 0 15.636 7.818 7.818 0 0 0 0-15.636M12 6.625a.977.977 0 1 0-1.955 0v.489H8.091a.977.977 0 0 0 0 1.954h.122v3.91H8.09a.977.977 0 0 0 0 1.954h1.954v.489a.977.977 0 1 0 1.955 0v-.489h.855c1.147 0 2.076-.93 2.076-2.077v-.733c0-.403-.115-.78-.314-1.099.2-.319.314-.696.314-1.1v-.732c0-1.147-.93-2.077-2.076-2.077H12zm-1.833 3.42v-.977h2.688c.067 0 .122.055.122.123v.733a.12.12 0 0 1-.122.122zm0 1.955h2.688c.067 0 .122.055.122.122v.733a.12.12 0 0 1-.122.122h-2.688z" clip-rule="evenodd"/></svg>