<svg xmlns="http://www.w3.org/2000/svg" fill="none" viewBox="0 0 24 24"><path fill="currentColor" fill-rule="evenodd" d="M9.75 4.5v4c0 .544-.372.87-.625 1.045-.248.172-.593.344-.957.525l-1.918.956c-.168.085-.441.224-.75.224s-.582-.14-.75-.224l-1.918-.956c-.364-.18-.71-.353-.957-.525-.253-.175-.625-.5-.625-1.045v-4c0-.544.372-.87.625-1.045.248-.172.593-.344.957-.525l1.918-.956c.168-.085.441-.224.75-.224s.582.14.75.224l1.918.956c.364.18.71.353.957.525.253.175.625.5.625 1.045m-7 3.826 2 1.023V7.025l-2-.996zm5.5-2.297-2 .996V9.35l2-1.023zM22.75 8.5c0 .544-.372.87-.625 1.045-.248.172-.593.344-.957.525l-1.918.956c-.168.085-.441.224-.75.224s-.582-.14-.75-.224l-1.918-.956c-.364-.18-.71-.353-.957-.525-.253-.175-.625-.5-.625-1.045v-4c0-.544.372-.87.625-1.045.248-.172.593-.344.957-.525l1.918-.956c.168-.085.441-.224.75-.224s.582.14.75.224l1.918.956c.364.18.71.353.957.525.253.175.625.5.625 1.045zm-7-.174 2 1.023V7.025l-2-.996zm5.5-2.297-2 .996V9.35l2-1.023zM11.5 5.75a.75.75 0 0 0 0 1.5h1a.75.75 0 0 0 0-1.5zM2.75 12.5a.75.75 0 0 0-1.5 0v3.538c0 .67 0 1.229.046 1.681.048.473.153.913.417 1.309.201.3.459.558.76.759.395.264.835.369 1.308.417.452.046 1.011.046 1.68.046H5.5a.75.75 0 0 0 0-1.5c-.718 0-1.2 0-1.567-.038-.355-.036-.519-.1-.627-.173a1.3 1.3 0 0 1-.345-.344c-.073-.109-.137-.273-.173-.628-.037-.367-.038-.85-.038-1.567zM22 11.75a.75.75 0 0 1 .75.75v3.538c0 .67 0 1.229-.046 1.681-.048.473-.153.913-.418 1.309-.2.3-.458.558-.758.759-.396.264-.835.369-1.309.417-.452.046-1.011.046-1.68.046H18.5a.75.75 0 0 1 0-1.5c.718 0 1.2 0 1.567-.038.355-.036.519-.1.628-.173a1.3 1.3 0 0 0 .344-.344c.073-.109.137-.273.173-.628.037-.367.038-.85.038-1.567v-3.5a.75.75 0 0 1 .75-.75m-7.5 3.464v1.006c.433.053.85.182 1.183.508.336.329.463.733.517 1.13.05.363.05.905.05 1.403 0 .499 0 .947-.05 1.31-.054.396-.18.8-.517 1.13-.334.327-.74.448-1.138.5-.367.05-.822.049-1.332.049h-2.426c-.51 0-.965 0-1.332-.048-.398-.053-.804-.174-1.138-.501-.336-.33-.463-.733-.517-1.13-.05-.363-.05-.811-.05-1.31 0-.498 0-1.04.05-1.403.054-.397.18-.801.517-1.13.333-.326.75-.455 1.183-.508v-1.006c0-1.375 1.134-2.464 2.5-2.464s2.5 1.089 2.5 2.464M12 14.25c-.567 0-1 .446-1 .964v.965h2v-.965c0-.518-.433-.964-1-.964" clip-rule="evenodd"/></svg>