<svg xmlns="http://www.w3.org/2000/svg" fill="none" viewBox="0 0 24 24"><path fill="currentColor" fill-rule="evenodd" d="M10.887 1.606c.333-.17.701-.356 1.113-.356s.78.187 1.113.356l3.527 1.773c.704.354 1.308.657 1.728.952.428.3.882.739.882 1.419v7.5c0 .68-.454 1.12-.882 1.42-.42.294-1.024.597-1.728.951l-3.527 1.774c-.333.168-.701.355-1.113.355s-.78-.187-1.113-.355L7.36 15.62c-.704-.354-1.308-.657-1.728-.952-.428-.3-.882-.739-.882-1.419v-7.5c0-.68.454-1.12.882-1.42.42-.294 1.024-.597 1.728-.951zM16.64 8.12c.41-.206.785-.394 1.11-.574v5.682c-.343.337-.883.605-1.519.92l-.318.159-3.163 1.59v-5.829c.126-.054.246-.116.363-.175zm-5.753 1.774c.117.059.237.12.363.174v5.829l-3.163-1.59c-.773-.389-1.54-.788-1.837-1.08V7.548c.325.18.7.368 1.11.574zm.363 8.855A2 2 0 0 0 9.395 20H5a.75.75 0 0 0 0 1.5h4.395a2 2 0 0 0 1.855 1.25h1.5a2 2 0 0 0 1.855-1.25H19a.75.75 0 0 0 0-1.5h-4.395a2 2 0 0 0-1.855-1.25z" clip-rule="evenodd"/></svg>