<svg xmlns="http://www.w3.org/2000/svg" fill="none" viewBox="0 0 24 24"><path fill="currentColor" fill-rule="evenodd" d="M12 1.25a.75.75 0 0 1 .75.75v3.424c.145.06.285.13.422.2l3.793 1.888c.762.38 1.408.701 1.857 1.013.455.316.928.772.928 1.475v8q0 .074-.007.143l2.737 2.28a.75.75 0 1 1-.96 1.153l-2.603-2.169-.095.068c-.45.312-1.095.634-1.857 1.013l-3.793 1.888c-.362.182-.745.374-1.172.374s-.81-.192-1.172-.374l-3.793-1.888c-.762-.38-1.408-.701-1.857-1.013l-.095-.068-2.603 2.17a.75.75 0 1 1-.96-1.153l2.737-2.28A2 2 0 0 1 4.25 18v-8c0-.703.473-1.159.928-1.475.45-.312 1.095-.634 1.857-1.013l3.793-1.888c.137-.07.277-.14.422-.2V2a.75.75 0 0 1 .75-.75m-.75 19.66v-6.333a7 7 0 0 1-.422-.2L7.09 12.515c-.481-.24-.97-.483-1.339-.689v6.165s.115.135.284.252c.348.242.893.516 1.724.93zm7-9.084c-.369.206-.804.423-1.285.662l-3.705 1.845c-.137.068-.365.183-.51.244v6.334l3.492-1.739c.831-.413 1.376-.687 1.724-.929.169-.117.274-.238.274-.238z" clip-rule="evenodd"/></svg>