<svg xmlns="http://www.w3.org/2000/svg" fill="none" viewBox="0 0 24 24"><path fill="currentColor" fill-rule="evenodd" d="M14.129 1H9.057c-1.12 0-2.06 0-2.808.1-.791.107-1.515.342-2.098.925s-.818 1.307-.925 2.099c-.1.747-.1 1.687-.1 2.807V22a1 1 0 1 0 2 0V7c0-1.207.002-2.011.082-2.61.077-.57.208-.801.357-.95.15-.15.38-.28.95-.357.6-.08 1.404-.083 2.61-.083h4v1.252c-.698.005-1.3.02-1.815.075-.763.08-1.441.25-2.044.663-.467.32-.866.73-1.176 1.205-.399.612-.563 1.3-.64 2.076-.057.576-.07 1.26-.073 2.065v.069l-.001.695v1.798c0 1.148 0 2.08.074 2.831.077.777.241 1.464.64 2.076.31.476.71.886 1.176 1.205.603.413 1.28.584 2.044.663.48.05 1.034.068 1.672.074A2 2 0 0 1 11.126 21a1 1 0 1 0 0 2 4 4 0 0 0 3.93-3.252c.728-.004 1.353-.02 1.885-.075.764-.08 1.442-.25 2.044-.663.467-.32.866-.73 1.176-1.205.399-.612.563-1.3.64-2.076.075-.75.075-1.683.075-2.83v-1.797l-.001-.692v-.081c-.003-.803-.017-1.484-.074-2.058-.077-.777-.241-1.464-.64-2.076a4.3 4.3 0 0 0-1.176-1.205c-.602-.413-1.28-.584-2.044-.663a19 19 0 0 0-1.815-.075V3h2a1 1 0 1 0 0-2zM9.338 8.886c1.026-.454 1.89-.646 2.662-.636 1.161.015 1.993.489 2.687.927l.239.151c.6.384 1.091.697 1.741.842.551.123 1.265.13 2.277-.172-.005-.624-.02-1.12-.061-1.535-.063-.628-.177-.964-.335-1.207a2.4 2.4 0 0 0-.649-.666c-.23-.158-.55-.273-1.156-.336-.624-.065-1.436-.066-2.617-.066s-1.993 0-2.616.066c-.607.063-.926.178-1.157.336a2.4 2.4 0 0 0-.649.666c-.158.243-.272.58-.334 1.207a10 10 0 0 0-.032.423" clip-rule="evenodd"/></svg>