<svg xmlns="http://www.w3.org/2000/svg" fill="none" viewBox="0 0 24 24"><path fill="currentColor" fill-rule="evenodd" d="M21.582 2.832a1 1 0 0 0-1.414-1.414L17.375 4.21l-2.793-2.793a1 1 0 0 0-1.414 1.415l2.793 2.792-2.793 2.792a1 1 0 0 0 1.414 1.415l2.793-2.793 2.793 2.793a1 1 0 1 0 1.414-1.414L18.79 5.625zM11.385 7.975c.09.1.061.36.005.881a2.5 2.5 0 0 0 4.253 2.036l1.308-1.307c.2-.2.3-.3.425-.3.124 0 .224.1.424.3l1.308 1.308q.11.11.23.204c.151.117.226.176.257.239.03.062.03.141.03.3v6.535c0 1.097 0 2.01-.105 2.695-.11.709-.364 1.399-1.065 1.773-.625.334-1.312.266-1.895.089-.59-.18-1.19-.504-1.738-.85-.554-.35-1.098-.75-1.57-1.1-.463-.341-.89-.657-1.174-.828-.4-.24-.652-.392-.856-.488-.189-.089-.28-.103-.347-.103s-.158.014-.347.103c-.204.096-.457.247-.856.488-.284.17-.711.487-1.174.829-.472.349-1.016.748-1.57 1.098-.548.347-1.148.672-1.738.85-.583.178-1.27.246-1.895-.088-.701-.374-.956-1.064-1.065-1.773-.105-.686-.105-1.598-.105-2.695V9.774q0-.69.003-1.308c.002-.278.002-.417.09-.504s.228-.087.507-.087h7.945c.417 0 .626 0 .715.1m.723-4.082a2.5 2.5 0 0 1-.728-1.914c.014-.233.02-.35-.002-.409a.26.26 0 0 0-.16-.17c-.057-.025-.153-.025-.343-.025-1.84 0-3.348 0-4.485.147-1.168.152-2.115.47-2.864 1.192-.753.725-1.089 1.648-1.247 2.786q-.017.115-.03.235c-.034.293-.051.44.038.54.09.1.242.1.546.1h10.009c.122 0 .183 0 .239-.023s.098-.066.185-.153l.15-.15c.2-.2.3-.3.3-.424s-.1-.224-.3-.424z" clip-rule="evenodd"/></svg>