<svg xmlns="http://www.w3.org/2000/svg" fill="none" viewBox="0 0 24 24"><path fill="currentColor" fill-rule="evenodd" d="M11.444 1.25h1.112c1.838 0 3.294 0 4.433.153 1.172.158 2.121.49 2.87 1.238.748.749 1.08 1.698 1.238 2.87.153 1.14.153 2.595.153 4.433V17a.8.8 0 0 1-.038.235 1 1 0 0 1-.972.765 1.5 1.5 0 0 0 0 3 1 1 0 0 1 .013 2H6.21c-1.927 0-3.464-1.58-3.464-3.5q0-.084.004-.167v-9.39c0-1.837 0-3.293.153-4.432.158-1.172.49-2.121 1.238-2.87.749-.748 1.698-1.08 2.87-1.238 1.14-.153 2.595-.153 4.433-.153M6.21 18h10.867a3.5 3.5 0 0 0-.337 1.5c0 .537.121 1.045.337 1.5H6.21c-.795 0-1.464-.658-1.464-1.5S5.416 18 6.21 18m9.098-7.158a.79.79 0 0 0-.027-1.06.67.67 0 0 0-.492-.205H13V6.25a1 1 0 1 0-2 0v3.327H9.189a.67.67 0 0 0-.47.205.79.79 0 0 0-.027 1.06l1.345 1.521c.324.367.614.695.881.925.29.249.638.462 1.082.462s.793-.213 1.082-.463c.267-.23.557-.558.88-.924z" clip-rule="evenodd"/></svg>