<svg xmlns="http://www.w3.org/2000/svg" fill="none" viewBox="0 0 24 24"><path fill="currentColor" fill-rule="evenodd" d="M20.75 10c0 .69.56 1.25 1.25 1.25a.75.75 0 0 1 0 1.5c-.69 0-1.25.56-1.25 1.25v2c0 .844-.043 1.572-.177 2.182-.136.619-.376 1.163-.802 1.59-.426.425-.97.665-1.589.8-.61.135-1.338.178-2.182.178H8c-.844 0-1.572-.043-2.182-.177-.619-.136-1.163-.376-1.59-.802-.425-.426-.665-.97-.8-1.589-.135-.61-.178-1.338-.178-2.182v-2c0-.69-.56-1.25-1.25-1.25a.75.75 0 0 1 0-1.5c.69 0 1.25-.56 1.25-1.25V8c0-.844.043-1.572.177-2.182.136-.619.376-1.163.802-1.59.426-.425.97-.665 1.589-.8.61-.135 1.338-.178 2.182-.178h8c.844 0 1.572.043 2.182.177.619.136 1.163.376 1.59.802.425.426.665.97.8 1.589.135.61.178 1.338.178 2.182zM9.622 7.286a8 8 0 0 1 .936-.036h2.324c1.543 0 2.868 1.191 2.868 2.75 0 .8-.35 1.505-.9 2 .55.495.9 1.2.9 2 0 1.559-1.325 2.75-2.868 2.75h-2.324c-.34 0-.667 0-.936-.036-.3-.04-.638-.138-.918-.418s-.378-.617-.418-.918c-.036-.269-.036-.595-.036-.936V9.558c0-.34 0-.667.036-.936.04-.3.138-.638.418-.918s.617-.378.918-.418M14.25 10c0 .65-.571 1.25-1.368 1.25H9.75V9.6c0-.398.002-.622.023-.778l.006-.043.043-.006c.156-.021.38-.023.778-.023h2.282c.797 0 1.368.6 1.368 1.25m-1.368 2.75H9.75v1.65c0 .398.002.622.023.778l.006.043.043.006c.156.021.38.023.778.023h2.282c.797 0 1.368-.6 1.368-1.25s-.571-1.25-1.368-1.25" clip-rule="evenodd"/></svg>