<svg xmlns="http://www.w3.org/2000/svg" fill="none" viewBox="0 0 24 24"><path fill="currentColor" fill-rule="evenodd" d="M10.092 1.505q.882-.006 1.905-.005h.006q1.023-.001 1.906.005a1 1 0 0 1-.018 2Q13.465 3.5 13 3.5V11h1.85a1 1 0 1 1 0 2H13v7.5l.892-.005a1 1 0 1 1 .017 2q-.884.006-1.906.005h-.005q-1.024.001-1.906-.005a1 1 0 0 1 .017-2q.427.004.891.004V13H9.15a1 1 0 1 1 0-2H11V3.5q-.464.001-.892.005a1 1 0 1 1-.017-2M7.283 2.569a1 1 0 0 1-.8 1.166c-.911.17-1.466.445-1.885.863-.418.419-.694.974-.863 1.885a1 1 0 0 1-1.967-.366c.217-1.167.625-2.142 1.416-2.933S4.95 1.985 6.117 1.768a1 1 0 0 1 1.166.8m9.434 0a1 1 0 0 1 1.166-.8c1.167.216 2.142.624 2.933 1.415s1.199 1.766 1.416 2.933a1 1 0 1 1-1.967.366c-.17-.911-.445-1.466-.863-1.885-.419-.418-.974-.694-1.885-.863a1 1 0 0 1-.8-1.166M2.513 9.1a1 1 0 0 1 .992 1.008Q3.5 10.537 3.5 11h.9a1 1 0 1 1 0 2h-.9q.001.464.005.892a1 1 0 1 1-2 .017q-.006-.884-.005-1.906v-.006q-.001-1.023.005-1.905A1 1 0 0 1 2.513 9.1m18.974 0a1 1 0 0 1 1.008.992q.006.883.005 1.906v.004q.001 1.023-.005 1.907a1 1 0 0 1-2-.017q.004-.428.004-.892H19.6a1 1 0 1 1 0-2h.9l-.005-.892a1 1 0 0 1 .992-1.008M2.569 16.717a1 1 0 0 1 1.166.8c.17.912.445 1.466.863 1.885.419.418.974.694 1.885.863a1 1 0 0 1-.366 1.967c-1.167-.217-2.142-.625-2.933-1.416s-1.199-1.766-1.416-2.933a1 1 0 0 1 .8-1.166m18.862 0a1 1 0 0 1 .8 1.166c-.216 1.167-.624 2.142-1.415 2.933s-1.766 1.199-2.933 1.416a1 1 0 1 1-.366-1.967c.912-.17 1.466-.445 1.885-.863.418-.419.694-.974.863-1.885a1 1 0 0 1 1.166-.8" clip-rule="evenodd"/></svg>