<svg xmlns="http://www.w3.org/2000/svg" fill="none" viewBox="0 0 24 24"><path fill="currentColor" fill-rule="evenodd" d="M12.076 1.5h-.152c-2.235 0-4.017 0-5.414.192-1.444.2-2.624.62-3.555 1.574-.804.824-1.218 1.838-1.439 3.055a1 1 0 1 0 1.968.358c.176-.97.465-1.567.903-2.016.499-.511 1.183-.822 2.396-.99C8.027 3.504 9.67 3.5 12 3.5s3.973.002 5.217.174c1.214.167 1.898.478 2.397.989.438.449.726 1.045.902 2.016a1 1 0 0 0 1.968-.358c-.22-1.217-.635-2.23-1.439-3.055-.93-.953-2.11-1.375-3.555-1.574-1.396-.192-3.178-.192-5.414-.192m10.421 8.492a1 1 0 0 0-2 .016c.005.585.005 1.218.005 1.909 0 .69 0 1.323-.005 1.908a1 1 0 0 0 2 .017q.006-.891.005-1.922v-.006q.001-1.032-.005-1.922m-18.99.016a1 1 0 1 0-2-.016q-.006.89-.005 1.922v.005q-.001 1.032.005 1.923a1 1 0 1 0 2-.017c-.005-.585-.005-1.217-.005-1.908s0-1.324.005-1.909m.23 7.477a1 1 0 1 0-1.967.363c.217 1.175.623 2.156 1.413 2.953s1.766 1.209 2.935 1.428a1 1 0 1 0 .368-1.965c-.91-.171-1.464-.45-1.883-.872-.42-.423-.696-.985-.866-1.907m18.497.363a1 1 0 0 0-1.967-.363c-.17.922-.447 1.484-.866 1.907-.42.423-.974.7-1.883.872a1 1 0 0 0 .368 1.965c1.169-.219 2.144-.63 2.935-1.428s1.196-1.778 1.413-2.953M10.11 20.495a1 1 0 0 0-.017 2q.884.006 1.906.005h.006q1.022.001 1.906-.005a1 1 0 0 0-.018-2c-.579.005-1.206.005-1.891.005s-1.312 0-1.892-.005" clip-rule="evenodd"/></svg>