<svg xmlns="http://www.w3.org/2000/svg" fill="none" viewBox="0 0 24 24"><path fill="currentColor" fill-rule="evenodd" d="M7 1.25a1.75 1.75 0 0 0-.75 3.332v1.97c-.538.163-1.01.421-1.41.836-.598.618-.854 1.393-.974 2.317-.116.893-.116 2.03-.116 3.448v.107c0 1.418 0 2.555.116 3.449.12.924.376 1.7.973 2.317.601.622 1.361.891 2.266 1.017.869.12 1.972.12 3.339.12h1.081c.187 0 .661.101 1.064.516.317.345.731.76 1.189 1.12.445.351.992.7 1.57.84.327.078.653.13.95.105.314-.026.674-.148.918-.484.22-.303.249-.654.24-.911-.008-.27-.256-1.374-.256-1.374.663-.148 1.476-.448 1.96-.949.598-.618.854-1.393.974-2.317.116-.894.116-2.031.116-3.449v-.107c0-1.417 0-2.555-.116-3.448-.12-.924-.376-1.7-.973-2.317-.401-.415-.873-.673-1.411-.836v-1.97a1.75 1.75 0 1 0-1.5 0v1.723c-.752-.055-1.645-.055-2.693-.055h-3.113c-1.049 0-1.942 0-2.694.055V4.582A1.75 1.75 0 0 0 7 1.25m3.047 13.237a.75.75 0 1 0-1.094 1.026c.727.774 1.84 1.237 3.047 1.237s2.32-.463 3.047-1.237a.75.75 0 1 0-1.094-1.026c-.413.44-1.115.763-1.953.763s-1.54-.323-1.953-.763M8 11c0-.552.446-1 .996-1h.008c.55 0 .996.448.996 1s-.446 1-.996 1h-.008A1 1 0 0 1 8 11m6.996-1A1 1 0 0 0 14 11c0 .552.446 1 .995 1h.01c.55 0 .995-.448.995-1s-.446-1-.995-1zM1.25 13.5c0-.958.49-1.8 1.231-2.293.206-.136.308-.205.414-.148s.105.192.105.464v3.954c0 .271 0 .407-.105.463-.106.057-.208-.011-.414-.147A2.75 2.75 0 0 1 1.25 13.5m21.5.001a2.75 2.75 0 0 0-1.483-2.441c-.125-.065-.267.03-.267.172v4.54c0 .14.142.236.267.171a2.75 2.75 0 0 0 1.483-2.442" clip-rule="evenodd"/></svg>