<svg xmlns="http://www.w3.org/2000/svg" fill="none" viewBox="0 0 24 24"><path fill="currentColor" fill-rule="evenodd" d="M12.168 1.5h-.34c-.55 0-1.082 0-1.53.078-.529.092-1.015.301-1.426.752-.378.415-.594.93-.762 1.482-.156.511-.3 1.157-.471 1.938h-3.25c-.396 0-.727 0-1.01.07-.809.202-1.471.836-1.609 1.681-.048.293-.002.619.046.962q.03.22.058.442c.087.687.176 1.388.438 2.026.668 1.627 2.176 2.806 3.976 3.187.524.111 1.113.129 1.99.132.2 0 .3 0 .358-.058.059-.059.059-.163.058-.373q0-.14.003-.281l.002-.273c-.001-.227-.003-.558.078-.86a2.3 2.3 0 0 1 1.627-1.626c.3-.08.61-.08.919-.079h1.353c.307 0 .619-.002.918.079a2.3 2.3 0 0 1 1.627 1.626c.08.302.08.633.078.86q0 .136.003.272l.002.282c0 .21 0 .314.058.373s.159.058.359.058c.877-.003 1.465-.02 1.99-.132 1.8-.381 3.307-1.56 3.976-3.187.262-.638.35-1.34.437-2.026l.058-.442c.048-.343.094-.67.046-.962-.137-.845-.8-1.479-1.609-1.68-.283-.072-.613-.071-1.01-.07h-3.251c-.171-.782-.315-1.428-.47-1.94-.17-.551-.385-1.066-.763-1.48-.411-.452-.898-.661-1.426-.753-.448-.078-.98-.078-1.53-.078m2.142 4.25c-.128-.577-.23-1.01-.336-1.354-.138-.454-.248-.631-.328-.72-.048-.052-.095-.094-.29-.128-.256-.045-.612-.048-1.255-.048h-.205c-.643 0-.999.003-1.256.048-.195.034-.242.076-.29.129-.08.088-.189.265-.327.719a19 19 0 0 0-.336 1.354zm-5.33 9.998c.105 0 .157 0 .2.022s.077.068.144.161A3.3 3.3 0 0 0 12 17.298c1.1 0 2.075-.539 2.675-1.367.068-.093.101-.14.144-.161.043-.022.096-.022.201-.022h.303c1.06 0 1.918 0 2.699-.165a7.3 7.3 0 0 0 2.89-1.307c.151-.114.228-.172.283-.144s.055.12.055.307c-.004 1.428-.024 2.595-.144 3.542-.148 1.165-.459 2.11-1.167 2.86-.714.756-1.623 1.093-2.743 1.253-1.082.154-2.461.154-4.192.154h-2.007c-1.73 0-3.11 0-4.192-.154-1.12-.16-2.03-.497-2.743-1.253-.708-.75-1.02-1.695-1.167-2.86-.12-.947-.14-2.114-.144-3.542 0-.186 0-.279.055-.306.055-.028.131.03.283.144a7.3 7.3 0 0 0 2.889 1.306c.78.165 1.64.165 2.7.165zm1.054-3.007c-.034.127-.034.282-.034.592V14a2 2 0 1 0 4 0v-.667c0-.31 0-.465-.034-.592a1 1 0 0 0-.707-.707C13.132 12 12.977 12 12.667 12h-1.334c-.31 0-.465 0-.592.034a1 1 0 0 0-.707.707" clip-rule="evenodd"/></svg>