<svg xmlns="http://www.w3.org/2000/svg" fill="none" viewBox="0 0 24 24"><path fill="currentColor" fill-rule="evenodd" d="M12.176 1.5h-.351c-.645 0-1.224 0-1.704.064-.531.07-1.038.23-1.492.611-.44.37-.704.845-.908 1.358-.184.46-.352 1.04-.546 1.717H4.648c-1.45 0-2.31 1.073-2.666 2.159-.355 1.077-.314 2.403.201 3.383 1.603 3.047 4.86 4.495 8.103 4.862a.51.51 0 0 1 .4.277l.367.734a1.059 1.059 0 0 0 1.894 0l.367-.734a.51.51 0 0 1 .4-.277c3.242-.367 6.5-1.815 8.103-4.862.515-.98.555-2.306.201-3.383-.357-1.086-1.217-2.159-2.666-2.159h-2.526c-.194-.678-.361-1.256-.545-1.717-.205-.513-.468-.987-.909-1.358-.454-.382-.96-.54-1.492-.611-.48-.064-1.058-.064-1.704-.064m2.568 3.75c-.12-.411-.22-.724-.321-.976-.146-.368-.255-.498-.338-.568-.07-.059-.173-.12-.469-.16-.332-.044-.776-.046-1.498-.046h-.234c-.723 0-1.167.002-1.5.046-.295.04-.398.101-.468.16-.083.07-.191.2-.338.568-.1.252-.2.565-.321.976zM2.404 13.9c-.005-.095.111-.146.178-.08 1.879 1.862 4.403 2.845 6.845 3.23a.3.3 0 0 1 .224.163l.06.121a2.559 2.559 0 0 0 4.579 0l.06-.12a.3.3 0 0 1 .224-.164c2.443-.385 4.969-1.369 6.847-3.231.067-.066.181-.016.176.077v.006l-.003.05c-.08 1.76-.143 3.155-.338 4.246-.2 1.123-.556 2.028-1.296 2.735s-1.66 1.022-2.791 1.171c-1.099.145-2.496.145-4.258.145h-1.82c-1.763 0-3.16 0-4.258-.145-1.132-.15-2.052-.464-2.792-1.17-.74-.708-1.096-1.613-1.296-2.736-.195-1.09-.258-2.487-.338-4.247z" clip-rule="evenodd"/></svg>