<svg xmlns="http://www.w3.org/2000/svg" fill="none" viewBox="0 0 24 24"><path fill="currentColor" fill-rule="evenodd" d="M1.25 11.567C1.25 5.838 6.095 1.25 12 1.25s10.75 4.588 10.75 10.317c0 5.728-4.845 10.316-10.75 10.316-.696.001-1.39-.063-2.073-.191a12 12 0 0 0-.5-.088.35.35 0 0 0-.2.035c-.114.055-.266.135-.5.26a7.25 7.25 0 0 1-4.713.731.75.75 0 0 1-.445-1.21c.468-.576.79-1.269.932-2.015.038-.205-.049-.484-.316-.756-1.815-1.843-2.935-4.335-2.935-7.082M13 7a1 1 0 1 0-2 0v.241H8a1 1 0 1 0 0 2h5.15a13 13 0 0 1-1.17 2.06l-.094-.131c-.3-.422-.507-.753-.578-.906a1 1 0 0 0-1.816.836c.157.343.466.81.765 1.23.145.204.3.413.454.614-.745.87-1.53 1.654-2.25 2.324a1 1 0 1 0 1.363 1.464 32 32 0 0 0 2.224-2.276l.941.991a1 1 0 0 0 1.45-1.377l-1.128-1.187c.804-1.103 1.523-2.33 1.992-3.642H16a1 1 0 1 0 0-2h-3z" clip-rule="evenodd"/></svg>