<svg xmlns="http://www.w3.org/2000/svg" fill="none" viewBox="0 0 24 24"><path fill="currentColor" fill-rule="evenodd" d="M14.207 1.468c.317.065.478.097.542.222.068.12-.009.31-.163.69a4.1 4.1 0 0 0-.305 1.57c0 .01-.002.01-.005.01-.43.34-.788.76-1.05 1.25-.31.57-.403 1.14-.442 1.59-.034.4-.034.86-.034 1.3 0 .45 0 1.06.034 1.46.039.45.132 1.02.442 1.59.375.7.949 1.26 1.645 1.63.573.31 1.138.4 1.586.44.399.03.862.03 1.311.03h1.463c.45 0 .913 0 1.312-.03.448-.04 1.013-.13 1.586-.44l.014-.007q.021-.012.036-.013l.024-.016.006-.004c.227-.11.464.06.431.31l-.007.05c-.773 4.99-5.265 8.78-10.633 8.78-.696 0-1.39-.06-2.073-.19-.163-.027-.285-.05-.382-.068l-.118-.022a.34.34 0 0 0-.199.04c-.115.05-.267.13-.501.26a7.26 7.26 0 0 1-4.713.73.752.752 0 0 1-.445-1.21c.468-.58.79-1.27.932-2.01.038-.21-.049-.49-.316-.76-1.815-1.84-2.935-4.34-2.935-7.08C1.25 5.84 6.095 1.25 12 1.25c.741 0 1.466.07 2.166.21zM6.496 12c0-.55.448-1 1-1h.009c.552 0 1 .45 1 1s-.448 1-1 1h-.009c-.552 0-1-.45-1-1m3.996 0c0-.55.447-1 1-1h.009c.552 0 1 .45 1 1s-.448 1-1 1h-.009c-.553 0-1-.45-1-1M18.5 1.25a2.71 2.71 0 0 0-2.719 2.7v.86a1 1 0 0 0-.142.06l-.065.03c-.436.23-.794.59-1.028 1.02-.172.32-.237.66-.267 1.01-.029.33-.029.74-.029 1.22v.06c0 .48 0 .89.029 1.22.03.35.095.69.267 1.01.234.43.592.79 1.028 1.02.32.17.658.23 1.009.26.336.03.744.03 1.229.03h1.376c.485 0 .893 0 1.229-.03.351-.03.689-.09 1.009-.26.436-.23.794-.59 1.028-1.02.172-.32.237-.66.267-1.01.029-.33.029-.74.029-1.22v-.06c0-.48 0-.89-.029-1.22-.03-.35-.095-.69-.267-1.01a2.5 2.5 0 0 0-1.028-1.02c-.32-.17-.658-.23-1.009-.26-.336-.03-.745-.03-1.229-.03h-1.907v-.66c0-.66.54-1.2 1.219-1.2.305 0 .581.11.795.29.315.27.789.23 1.057-.09a.743.743 0 0 0-.086-1.05 2.7 2.7 0 0 0-1.766-.65" clip-rule="evenodd"/></svg>