<svg xmlns="http://www.w3.org/2000/svg" fill="none" viewBox="0 0 24 24"><path fill="currentColor" fill-rule="evenodd" d="M15 1.25c.844 0 1.572.043 2.182.177.619.136 1.163.376 1.589.802s.666.97.802 1.589c.134.61.177 1.338.177 2.182v14.75h.75a1 1 0 0 1 0 2h-17a1 1 0 0 1 0-2h.75V6c0-.844.043-1.572.177-2.182.136-.619.376-1.163.802-1.59.426-.425.97-.665 1.589-.8.61-.135 1.338-.178 2.182-.178zM12.833 16h-1.666c-.676 0-1.438.062-1.927.65-.235.282-.35.62-.411.954a6.5 6.5 0 0 0-.079 1.146v2h1.5v-2c0-.4.018-.678.054-.875.024-.13.052-.2.07-.235l.018-.03q.004-.007.02-.016a.4.4 0 0 1 .104-.039c.126-.033.326-.055.651-.055h1.666c.325 0 .525.022.651.055.059.015.089.03.104.039q.016.01.02.016l.018.03a1 1 0 0 1 .07.235c.036.197.054.475.054.875v2h1.5v-2c0-.427-.018-.813-.079-1.146-.061-.334-.176-.672-.411-.955-.489-.587-1.251-.649-1.927-.649m.667-3.75h-3a.75.75 0 0 0 0 1.5h3a.75.75 0 0 0 0-1.5m0-3.5h-3a.75.75 0 0 0 0 1.5h3a.75.75 0 0 0 0-1.5m0-3.5h-3a.75.75 0 0 0 0 1.5h3a.75.75 0 0 0 0-1.5" clip-rule="evenodd"/></svg>