<svg xmlns="http://www.w3.org/2000/svg" fill="none" viewBox="0 0 24 24"><path fill="currentColor" d="M4 20.75a1 1 0 1 0 0 2h16a1 1 0 1 0 0-2h-.85c-.189 0-.283 0-.341-.059s-.059-.152-.059-.341v-3.2c0-.189 0-.283-.059-.341s-.152-.059-.341-.059H14a.75.75 0 0 1 0-1.5h4.35c.189 0 .283 0 .341-.059s.059-.152.059-.341v-1.7c0-.189 0-.283-.059-.341s-.152-.059-.341-.059H14a.75.75 0 0 1 0-1.5h4.34c.19 0 .287 0 .345-.06.06-.06.057-.156.052-.345a10.5 10.5 0 0 0-.107-1.37 10 10 0 0 0-.075-.416c-.03-.146-.044-.219-.1-.264-.055-.045-.131-.045-.284-.045H14a.75.75 0 0 1 0-1.5h3.4c.274 0 .411 0 .47-.094s0-.214-.117-.452a9.75 9.75 0 0 0-7.228-5.334c-.758-.12-1.648-.12-3.235-.12H7.2c-.508 0-1.014.15-1.396.521-.386.375-.554.887-.554 1.429v17.15c0 .189 0 .283-.059.341s-.152.059-.341.059z"/></svg>