<svg xmlns="http://www.w3.org/2000/svg" fill="none" viewBox="0 0 24 24"><path fill="currentColor" fill-rule="evenodd" d="M11.998 1c3.836 0 6.319 1.627 7.574 2.754l.025.023c.34.305.643.578.897 1.148.255.572.255 1.077.254 1.628v7.19c0 1.321 0 2.41-.116 3.271-.12.905-.385 1.704-1.023 2.344-.46.461-1.003.728-1.609.886v1.506a1 1 0 1 1-2 0v-1.27c-.592.02-1.254.02-1.989.02H9.985c-.733 0-1.394 0-1.985-.02v1.27a1 1 0 1 1-2 0v-1.505c-.607-.158-1.152-.425-1.613-.887-.638-.64-.902-1.439-1.023-2.344-.103-.765-.115-1.71-.116-2.839V6.553c0-.551-.001-1.056.254-1.628.254-.57.557-.843.897-1.148l.026-.023C5.679 2.627 8.162 1 11.998 1M13 16.5h-2a.75.75 0 0 0 0 1.5h2a.75.75 0 0 0 0-1.5m-6.5 0H6A.75.75 0 0 0 6 18h.5a.75.75 0 0 0 0-1.5m11.5 0h-.5a.75.75 0 0 0 0 1.5h.5a.75.75 0 0 0 0-1.5m.315-10H5.679c-.21.002-.324.013-.4.088-.087.088-.087.23-.087.512v5.778c.001.164.01.257.068.326.068.083.181.105.408.15q.388.076.857.156c1.44.246 3.396.49 5.474.49s4.034-.244 5.474-.49q.465-.08.853-.156c.226-.044.34-.066.408-.15.068-.082.068-.2.068-.433V7.1c0-.283 0-.424-.088-.512s-.23-.088-.512-.088zM2.5 8.75a1 1 0 0 0-2 0v1a1 1 0 1 0 2 0zm21 0a1 1 0 1 0-2 0v1a1 1 0 1 0 2 0z" clip-rule="evenodd"/></svg>