<svg xmlns="http://www.w3.org/2000/svg" fill="none" viewBox="0 0 24 24"><path fill="currentColor" fill-rule="evenodd" d="M4.5 18.465V21a1 1 0 1 0 2 0v-2.272c.603.022 1.292.022 2.076.022h6.848c.784 0 1.473 0 2.076-.022V21a1 1 0 1 0 2 0v-2.535a3.05 3.05 0 0 0 1.174-.637c.59-.523.846-1.191.965-1.973.111-.737.111-1.668.111-2.796V11.85c0-.283 0-.424-.088-.512s-.23-.088-.512-.088H2.85c-.283 0-.424 0-.512.088s-.088.23-.088.512v1.21c0 1.127 0 2.058.111 2.795.119.782.376 1.45.964 1.973a3.05 3.05 0 0 0 1.175.637M1 3a1 1 0 0 1 1-1h20a1 1 0 1 1 0 2h-.25v5.15c0 .283 0 .424-.088.512s-.23.088-.512.088H2.85c-.283 0-.424 0-.512-.088s-.088-.23-.088-.512V4H2a1 1 0 0 1-1-1m9.336 10.83a.75.75 0 0 0-.671 1.341l.155.078.062.03c.36.181.645.324.959.398s.631.073 1.035.073h.249c.403 0 .721 0 1.035-.073.313-.074.598-.217.959-.397l.061-.031.156-.078a.75.75 0 0 0-.671-1.342l-.156.078c-.45.225-.572.28-.694.31s-.255.033-.76.033h-.11c-.504 0-.638-.004-.76-.033s-.244-.085-.694-.31zM9.329 6.164a.75.75 0 0 1 1.007-.336l.155.078c.45.225.572.28.694.31s.256.033.76.033h.11c.505 0 .638-.004.76-.033s.244-.085.694-.31l.156-.078a.75.75 0 0 1 .67 1.342l-.155.078-.061.03c-.361.181-.646.324-.96.398s-.631.073-1.034.073h-.25c-.403 0-.721 0-1.034-.073-.314-.074-.599-.217-.96-.398l-.06-.03-.156-.078a.75.75 0 0 1-.336-1.006" clip-rule="evenodd"/></svg>