<svg xmlns="http://www.w3.org/2000/svg" fill="none" viewBox="0 0 24 24"><path fill="currentColor" fill-rule="evenodd" d="M3.75 1a1 1 0 0 0 0 2h8.277l-.857 1.5H8.75a1 1 0 0 0 0 2h6a1 1 0 1 0 0-2h-1.277L14.33 3h5.42a1 1 0 1 0 0-2zm10.524 6.25c.888 0 1.652 0 2.29.09.696.098 1.31.31 1.88.768 1.07.86 1.303 1.926 1.597 3.27l.035.159a18.3 18.3 0 0 1 .221 6.636l-.025.17c-.214 1.436-.385 2.576-1.482 3.52-.584.504-1.224.736-1.956.844-.575.084-1.25.096-2.02.098H9.08c-.938 0-1.745 0-2.415-.098-.732-.108-1.372-.34-1.956-.843-1.097-.945-1.267-2.085-1.482-3.52l-.025-.171a18.3 18.3 0 0 1 .22-6.636l.036-.16c.294-1.343.527-2.408 1.598-3.269.57-.458 1.183-.67 1.879-.768.638-.09 1.402-.09 2.29-.09zm-4.011 1.945h-.976c-.967 0-1.593.002-2.08.07-.445.063-.702.173-.932.358-.49.393-.609.769-.952 2.331q-.29 1.31-.359 2.689c-.014.28-.02.42.068.514.076.08.193.09.406.093h4.712c.283 0 .424 0 .512-.088s.088-.23.088-.512V9.794c0-.283 0-.424-.088-.512-.075-.075-.19-.086-.4-.087m4.229 0h-1.255c-.21.001-.324.012-.4.087-.087.088-.087.23-.087.512v4.969c.002.21.013.324.088.4.088.087.23.087.512.087h4.711c.214-.002.33-.014.406-.093.089-.094.082-.234.068-.514a16 16 0 0 0-.358-2.689c-.344-1.562-.463-1.938-.952-2.33-.23-.186-.488-.296-.933-.359-.487-.068-1.113-.07-2.08-.07z" clip-rule="evenodd"/></svg>