<svg xmlns="http://www.w3.org/2000/svg" fill="none" viewBox="0 0 24 24"><path fill="currentColor" fill-rule="evenodd" d="M6 1a1 1 0 0 1 1 1v.092C8.097 2 9.414 2 10.971 2h2.058c1.557 0 2.874 0 3.971.092V2a1 1 0 1 1 2 0v.449c.761.241 1.423.62 1.982 1.226.78.843 1.142 1.886 1.322 3.137.177 1.228.194 2.771.196 4.687V13a1 1 0 1 1-2 0v-1.499c-.001-.75-.005-1.419-.017-2.017A.495.495 0 0 0 19.986 9H4.014a.495.495 0 0 0-.497.484c-.017.79-.017 1.7-.017 2.76v.513c0 2.205.002 3.765.149 4.948.144 1.16.414 1.804.837 2.262.414.447.979.723 2.017.874 1.076.156 2.501.159 4.547.159a1 1 0 1 1 0 2h-.079c-1.948 0-3.52 0-4.756-.18-1.29-.187-2.358-.588-3.197-1.495-.829-.895-1.185-2.018-1.354-3.374-.164-1.32-.164-3.005-.164-5.125v-.652c0-2.12 0-3.805.164-5.125.169-1.356.525-2.479 1.354-3.374.56-.605 1.22-.985 1.982-1.226V2a1 1 0 0 1 1-1m15 17.506a1 1 0 0 0 0-2h-4.5v-.594c0-.176 0-.392-.022-.568v-.003c-.016-.127-.088-.703-.653-.977-.567-.275-1.067.027-1.175.092l-.469.34c-.376.294-.89.7-1.281 1.08-.195.19-.396.407-.555.638-.142.205-.345.555-.345.986s.203.78.345.986c.159.231.36.448.555.638.39.38.905.786 1.281 1.08l.469.34c.108.065.608.367 1.175.092.565-.274.637-.85.653-.976v-.004c.022-.176.022-.392.022-.568v-.582z" clip-rule="evenodd"/></svg>