<svg xmlns="http://www.w3.org/2000/svg" fill="none" viewBox="0 0 24 24"><path fill="currentColor" fill-rule="evenodd" d="M7 2a1 1 0 0 0-2 0v.449c-.761.241-1.423.62-1.982 1.226-.829.895-1.185 2.018-1.354 3.374-.164 1.32-.164 3.005-.164 5.125v.652c0 2.12 0 3.805.164 5.125.169 1.356.525 2.479 1.354 3.374.839.907 1.907 1.308 3.197 1.495 1.236.18 2.808.18 4.756.18h2.058c1.948 0 3.52 0 4.756-.18 1.29-.187 2.358-.588 3.197-1.495.829-.895 1.185-2.018 1.354-3.374.164-1.32.164-3.005.164-5.125v-.652c0-2.12 0-3.805-.164-5.125-.169-1.356-.525-2.479-1.354-3.374-.56-.605-1.22-.985-1.982-1.226V2a1 1 0 1 0-2 0v.092C15.903 2 14.586 2 13.029 2H10.97C9.414 2 8.097 2 7 2.092zM4.498 9c-.459 0-.688 0-.834.144s-.15.37-.155.824c-.009.673-.009 1.426-.009 2.275v.514c0 2.205.002 3.765.149 4.948.144 1.16.414 1.804.837 2.262.414.447.979.723 2.017.874 1.076.156 2.501.159 4.547.159h1.9c2.046 0 3.471-.003 4.547-.159 1.038-.15 1.603-.427 2.017-.874.423-.458.693-1.101.837-2.262.147-1.183.149-2.743.149-4.948v-.514c0-.849 0-1.602-.009-2.275-.006-.453-.009-.68-.155-.824S19.961 9 19.502 9zm9.224 6h-.739v3c0 .552-.44 1-.983 1a.99.99 0 0 1-.983-1v-3h-.739c-.138 0-.316 0-.464-.023-.163-.025-.535-.114-.725-.512-.188-.395-.032-.745.05-.893.074-.133.184-.274.268-.383l.019-.024a15 15 0 0 1 1.095-1.282c.198-.203.412-.402.625-.555.179-.13.49-.328.854-.328s.675.199.854.328c.213.153.427.352.625.555.4.407.803.904 1.095 1.282l.02.024c.083.109.193.25.266.383.083.148.24.498.051.893-.19.398-.562.487-.725.512a3 3 0 0 1-.464.023" clip-rule="evenodd"/></svg>