<svg xmlns="http://www.w3.org/2000/svg" fill="none" viewBox="0 0 24 24"><path fill="currentColor" fill-rule="evenodd" d="M7 2a1 1 0 0 0-2 0v.449c-.761.241-1.423.62-1.982 1.226-.829.895-1.185 2.018-1.354 3.374-.164 1.32-.164 3.005-.164 5.125v.652c0 2.12 0 3.805.164 5.125.169 1.356.525 2.479 1.354 3.374.839.907 1.907 1.308 3.197 1.495 1.236.18 2.808.18 4.756.18h2.058c1.948 0 3.52 0 4.756-.18 1.29-.187 2.358-.588 3.197-1.495.829-.895 1.185-2.018 1.354-3.374.164-1.32.164-3.005.164-5.125v-.652c0-2.12 0-3.805-.164-5.125-.169-1.356-.525-2.479-1.354-3.374-.56-.605-1.22-.985-1.982-1.226V2a1 1 0 1 0-2 0v.092C15.903 2 14.586 2 13.029 2H10.97C9.414 2 8.097 2 7 2.092zM4.498 9c-.459 0-.688 0-.834.144s-.15.37-.155.824c-.009.673-.009 1.426-.009 2.275v.514c0 2.205.002 3.765.149 4.948.144 1.16.414 1.804.837 2.262.414.447.979.723 2.017.874 1.076.156 2.501.159 4.547.159h1.9c2.046 0 3.471-.003 4.547-.159 1.038-.15 1.603-.427 2.017-.874.423-.458.693-1.101.837-2.262.147-1.183.149-2.743.149-4.948v-.514c0-.849 0-1.602-.009-2.275-.006-.453-.009-.68-.155-.824S19.961 9 19.502 9zm8.703 2.868c-.206-.417-.6-.868-1.202-.868s-.997.45-1.204.867l-.438.883c-.063.127-.095.19-.15.23s-.123.053-.263.076l-.728.123c-.461.077-.984.329-1.161.888-.177.556.102 1.063.43 1.394l.576.583c.106.108.16.162.18.231.02.07.002.144-.032.292l-.156.683c-.107.463-.123 1.142.41 1.534.537.396 1.18.17 1.588-.073l.659-.394c.14-.084.211-.126.29-.126.077 0 .148.042.289.126l.66.394c.405.242 1.05.47 1.587.075.535-.393.515-1.074.41-1.536l-.156-.687c-.034-.148-.05-.222-.031-.291.02-.07.073-.124.18-.232l.572-.577.001-.001c.33-.331.61-.839.433-1.396-.178-.559-.702-.81-1.162-.887l-.732-.123c-.14-.023-.209-.035-.263-.075s-.086-.104-.15-.23z" clip-rule="evenodd"/></svg>