<svg xmlns="http://www.w3.org/2000/svg" fill="none" viewBox="0 0 24 24"><path fill="currentColor" fill-rule="evenodd" d="M6.489 2.287c-.28-.503-.732-.883-1.299-1-.572-.119-1.148.056-1.62.441-1.717 1.4-2.81 3.64-2.336 5.992.292 1.445.777 2.871 1.767 4.596 1.985 3.461 5.092 6.57 8.557 8.557 1.725.99 3.15 1.475 4.596 1.767 2.351.474 4.593-.619 5.991-2.335.386-.473.56-1.049.442-1.622-.117-.566-.498-1.017-1-1.298l-1.603-.893c-.59-.33-1.087-.606-1.519-.787-.458-.192-.91-.306-1.409-.253-.5.052-.918.256-1.326.539-.385.265-.814.639-1.324 1.083l-1.508 1.313c-.27.235-.405.353-.574.363-.17.011-.314-.085-.602-.278a23.3 23.3 0 0 1-6.32-6.32c-.193-.289-.29-.433-.278-.602.01-.169.128-.304.363-.574L6.8 9.468c.444-.51.817-.939 1.083-1.324.283-.409.487-.827.54-1.326.051-.5-.063-.951-.254-1.41-.181-.431-.458-.928-.787-1.518zm9.258 2.962-.64.64.363.372c.52.534.841.861 1.103 1.067.122.095.199.138.243.157.036.015.05.015.059.015s.023 0 .059-.015a1.2 1.2 0 0 0 .243-.157c.262-.206.583-.533 1.103-1.067l2.878-2.958a1 1 0 0 1 1.434 1.394l-2.879 2.959-.043.044c-.463.476-.878.903-1.26 1.202-.414.325-.91.598-1.535.598-.626 0-1.12-.273-1.536-.598-.38-.3-.796-.726-1.259-1.202l-.043-.044-.344-.353-.57.57-.014.014c-.056.056-.155.156-.253.232l-.003.002c-.07.055-.49.38-1.045.187-.557-.195-.681-.717-.701-.8l-.002-.005c-.029-.12-.044-.26-.053-.34l-.002-.022-.035-.293c-.048-.398-.11-.914-.132-1.379a5 5 0 0 1 .028-.924c.035-.253.125-.706.464-1.045.34-.34.792-.43 1.045-.464a5 5 0 0 1 .924-.028c.465.022.98.084 1.379.132l.293.035.022.002c.08.009.22.024.34.053l.005.002c.084.02.605.144.8.7.194.555-.132.975-.187 1.046l-.002.003a3 3 0 0 1-.232.253z" clip-rule="evenodd"/></svg>