<svg xmlns="http://www.w3.org/2000/svg" fill="none" viewBox="0 0 24 24"><path fill="currentColor" fill-rule="evenodd" d="M16.905 3.744c-3.123-.825-6.684-.826-9.81 0-1.559.411-2.66.938-3.662 1.586-1.664 1.077-2.34 2.991-2.153 4.775.055.523.308.986.744 1.265.428.275.942.314 1.417.182l1.426-.395c.518-.143.965-.267 1.32-.409.381-.151.728-.35 1.005-.683.279-.335.41-.71.484-1.111.07-.371.102-.825.14-1.347L7.93 5.99c.016-.218.024-.327.092-.404.068-.076.174-.096.384-.135a20 20 0 0 1 7.187 0c.211.04.316.059.385.135.068.077.076.186.091.404l.115 1.618c.037.522.07.976.14 1.347.074.4.205.776.483 1.11.277.334.624.533 1.005.684.356.142.802.266 1.32.41l1.427.394c.475.132.988.093 1.416-.182.437-.279.69-.742.744-1.265.187-1.784-.489-3.698-2.153-4.775-1.001-.648-2.103-1.175-3.661-1.586m-4.901 7.131a1 1 0 0 1 1 1v4.5h.582c.176 0 .392 0 .568.022h.004c.126.016.702.088.976.653.275.567-.027 1.067-.092 1.176l-.002.004a5 5 0 0 1-.337.464l-.024.03c-.294.376-.676.86-1.057 1.251-.19.195-.407.397-.638.556-.205.14-.555.344-.986.344s-.78-.203-.986-.344a4.4 4.4 0 0 1-.638-.556c-.38-.39-.762-.875-1.057-1.25l-.024-.03c-.11-.142-.244-.312-.337-.465l-.002-.004c-.065-.109-.367-.609-.092-1.176.274-.565.85-.637.977-.653h.003c.176-.022.392-.022.568-.022h.594v-4.5a1 1 0 0 1 1-1" clip-rule="evenodd"/></svg>