<svg xmlns="http://www.w3.org/2000/svg" fill="none" viewBox="0 0 24 24"><path fill="currentColor" fill-rule="evenodd" d="M12.998 4.125a1 1 0 1 0-2 0v2.857a1 1 0 1 0 2 0zM6.51 6.837a1 1 0 0 0-1.023 1.719l2.4 1.428A1 1 0 1 0 8.91 8.266zm12 1.719a1 1 0 1 0-1.023-1.719l-2.4 1.429a1 1 0 0 0 1.023 1.718zm-1.606 4.438c-3.122-.825-6.683-.826-9.809 0-1.559.411-2.66.938-3.662 1.586-1.664 1.077-2.34 2.991-2.153 4.775.055.523.308.986.744 1.265.428.275.942.314 1.417.182l1.426-.395c.518-.143.965-.267 1.32-.409.381-.152.728-.35 1.005-.683.279-.335.41-.71.484-1.111.07-.371.102-.825.14-1.347l.114-1.618c.016-.218.024-.328.092-.404s.174-.096.384-.135a20 20 0 0 1 7.187 0c.211.04.316.059.385.135.068.076.076.186.091.404l.115 1.618c.037.522.07.976.14 1.347.074.4.205.776.483 1.11.277.334.624.532 1.005.684.356.142.802.266 1.32.41l1.427.394c.475.132.988.093 1.416-.182.437-.279.69-.742.744-1.265.187-1.784-.489-3.698-2.153-4.775-1.001-.648-2.103-1.175-3.661-1.586" clip-rule="evenodd"/></svg>