<svg xmlns="http://www.w3.org/2000/svg" fill="none" viewBox="0 0 24 24"><path fill="currentColor" fill-rule="evenodd" d="M11.969 1.25h.062c.604 0 1.105 0 1.518.035.432.037.823.116 1.2.302.672.333 1.097.862 1.395 1.392.232.411.411.873.563 1.264q.054.14.104.264l.297.744c1.127.004 1.936.03 2.633.324a4.22 4.22 0 0 1 2.166 2.06c.2.415.302.86.37 1.378.066.504.104 1.126.152 1.904l.16 2.595c.12 1.944.215 3.48.126 4.684-.09 1.237-.38 2.246-1.129 3.053-.75.808-1.73 1.166-2.946 1.336-1.183.165-2.703.165-4.623.165H9.983c-1.92 0-3.44 0-4.623-.165-1.217-.17-2.197-.528-2.946-1.336-.748-.807-1.038-1.816-1.13-3.053-.088-1.205.007-2.74.127-4.684l.16-2.595c.048-.778.086-1.4.152-1.904.067-.518.17-.963.37-1.378a4.22 4.22 0 0 1 2.165-2.06c.698-.293 1.507-.32 2.634-.324l.297-.744q.05-.124.104-.264c.152-.391.332-.853.563-1.264.298-.53.723-1.059 1.395-1.392.377-.186.768-.265 1.2-.302.413-.035.913-.035 1.518-.035M11.002 6a1 1 0 0 1 1-1h.009a1 1 0 1 1 0 2h-.009a1 1 0 0 1-1-1m.316 4.262a.75.75 0 0 1 .832 1.013c-.121.306-.187.64-.187.99 0 1.517 1.267 2.779 2.87 2.779q.274 0 .531-.048a.75.75 0 0 1 .832 1.013c-.634 1.61-2.227 2.741-4.079 2.741-2.395 0-4.369-1.898-4.369-4.28 0-2.11 1.552-3.842 3.57-4.208" clip-rule="evenodd"/></svg>