<svg xmlns="http://www.w3.org/2000/svg" fill="none" viewBox="0 0 24 24"><path fill="currentColor" fill-rule="evenodd" d="M12.031 1.25h-.062c-.604 0-1.105 0-1.517.035-.433.037-.824.116-1.201.302-.672.333-1.097.862-1.395 1.392-.231.411-.411.873-.563 1.264q-.053.14-.104.264l-.297.744c-1.127.004-1.936.03-2.634.324a4.22 4.22 0 0 0-2.165 2.06c-.2.415-.303.86-.37 1.378-.066.504-.104 1.126-.152 1.904l-.16 2.595c-.12 1.944-.215 3.48-.126 4.684.09 1.237.38 2.246 1.129 3.053.749.808 1.729 1.166 2.946 1.336 1.183.165 2.703.165 4.623.165h4.034c1.92 0 3.44 0 4.623-.165 1.217-.17 2.197-.528 2.946-1.336.748-.807 1.038-1.816 1.129-3.053.088-1.205-.006-2.74-.126-4.684l-.16-2.595c-.048-.778-.086-1.4-.152-1.904-.068-.518-.17-.963-.37-1.378a4.22 4.22 0 0 0-2.166-2.06c-.697-.293-1.506-.32-2.633-.324l-.297-.744-.104-.264c-.152-.391-.332-.853-.563-1.264-.298-.53-.723-1.059-1.395-1.392-.377-.186-.768-.265-1.2-.302-.413-.035-.913-.035-1.518-.035M8.998 10.5a1 1 0 1 0 0 2h.009a1 1 0 1 0 0-2zm5.991 0a1 1 0 1 0 0 2h.009a1 1 0 1 0 0-2zm-4.703 4.253a1 1 0 0 0-1.333 1.491l.002.002.002.002.006.005.016.014.053.045q.066.055.18.142c.15.113.364.263.625.413.506.29 1.277.633 2.156.633s1.65-.343 2.156-.633l.003-.001c.261-.15.618-.355.881-.622a1 1 0 0 0-1.333-1.49h-.002a2 2 0 0 1-.13.104 4 4 0 0 1-.415.275c-.365.21-.78.367-1.16.367s-.795-.158-1.16-.367a4 4 0 0 1-.523-.36l-.01-.008-.012-.01z" clip-rule="evenodd"/></svg>