<svg xmlns="http://www.w3.org/2000/svg" fill="none" viewBox="0 0 24 24"><path fill="currentColor" fill-rule="evenodd" d="M12.295 1.31a.76.76 0 0 0-.59 0c-.138.04-.51.28-.678.39-.376.26-.868.67-1.356 1.26-.829 1.01-1.623 2.53-1.854 4.72a2.4 2.4 0 0 1-.611-.93.74.74 0 0 0-.471-.46.75.75 0 0 0-.651.09c-.108.05-.296.25-.376.34-.185.2-.411.51-.629.94-.436.88-.829 2.25-.829 4.34 0 1.8.708 3.59 1.91 5h2.709a4.3 4.3 0 0 1-.119-1c0-1.48.726-2.88 1.376-3.85.333-.5.665-.92.914-1.21.121-.14.341-.38.423-.46l.007-.01a.754.754 0 0 1 1.06 0l.007.01c.082.08.302.32.423.46.249.29.581.71.914 1.21.65.97 1.376 2.37 1.376 3.85 0 .34-.041.68-.119 1h2.709c1.202-1.41 1.91-3.2 1.91-5 0-2.09-.393-3.46-.829-4.34a4.2 4.2 0 0 0-.629-.94 2.4 2.4 0 0 0-.376-.34.75.75 0 0 0-.651-.09.74.74 0 0 0-.471.46c-.141.39-.368.7-.611.93-.231-2.19-1.025-3.71-1.854-4.72-.488-.59-.98-1-1.356-1.26a7 7 0 0 0-.678-.39M5 18.25c-.966 0-1.75.78-1.75 1.75v1c0 .97.784 1.75 1.75 1.75h14c.966 0 1.75-.78 1.75-1.75v-1c0-.97-.784-1.75-1.75-1.75z" clip-rule="evenodd"/></svg>