<svg xmlns="http://www.w3.org/2000/svg" fill="none" viewBox="0 0 24 24"><path fill="currentColor" fill-rule="evenodd" d="M11 15.584c-.739.324-1.281.977-1.628 1.63-.495.93-.728 2.093-.576 3.022.122.75.813 1.132 1.3 1.316.555.209 1.233.311 1.882.322.647.01 1.334-.069 1.903-.275.527-.191 1.197-.59 1.323-1.363.152-.929-.081-2.091-.576-3.022-.347-.653-.89-1.306-1.628-1.63V4.125h5.5v6.46c-.739.323-1.282.976-1.628 1.629-.494.93-.728 2.094-.576 3.022.122.75.813 1.132 1.3 1.316.555.209 1.233.311 1.882.322.647.011 1.334-.068 1.903-.275.527-.191 1.197-.589 1.323-1.363.152-.928-.081-2.091-.576-3.022-.346-.652-.89-1.306-1.628-1.63V4.125H22a1 1 0 1 0 0-2H2a1 1 0 0 0 0 2h1.5v6.46c-.739.323-1.281.976-1.628 1.629-.495.93-.728 2.094-.576 3.022.122.75.813 1.132 1.3 1.316.555.209 1.233.311 1.882.322.647.011 1.334-.068 1.903-.275.527-.191 1.197-.589 1.323-1.363.152-.928-.081-2.091-.576-3.022-.346-.652-.89-1.306-1.628-1.63V4.125H11z" clip-rule="evenodd"/></svg>