<svg xmlns="http://www.w3.org/2000/svg" fill="none" viewBox="0 0 24 24"><path fill="currentColor" fill-rule="evenodd" d="M12.058 1.75c2.19 0 3.91 0 5.252.18 1.377.19 2.469.57 3.327 1.43s1.245 1.95 1.43 3.33c.181 1.34.181 3.06.181 5.25v.12c0 2.19 0 3.91-.181 5.25-.185 1.38-.572 2.47-1.43 3.33s-1.95 1.24-3.327 1.43c-1.342.18-3.063.18-5.252.18h-.12c-2.19 0-3.91 0-5.252-.18-1.377-.19-2.469-.57-3.327-1.43s-1.245-1.95-1.43-3.33c-.18-1.34-.18-3.06-.18-5.25v-.12c-.001-2.19-.001-3.91.18-5.25.185-1.38.572-2.47 1.43-3.33s1.95-1.24 3.327-1.43c1.343-.18 3.063-.18 5.252-.18zm1.192 5H8.352c-.524 0-.993 0-1.372.05-.416.06-.832.2-1.169.55-.208.21-.415.45-.502.88-.059.29-.059.68-.059 1.18v.09c0 .28.156.54.404.66L9.177 12l-3.523 1.83a.76.76 0 0 0-.404.67v.09c0 .5 0 .89.06 1.18.086.43.293.67.501.88.337.35.753.49 1.169.55.379.05.848.05 1.372.05h4.898c.524 0 .994 0 1.373-.05.416-.06.832-.2 1.17-.55.207-.21.425-.51.511-.94l1.35.7c.367.2.82.05 1.011-.31a.76.76 0 0 0-.318-1.02L12.424 12l5.923-3.09c.367-.19.51-.64.318-1.01a.757.757 0 0 0-1.01-.32l-1.351.71a1.8 1.8 0 0 0-.512-.94c-.337-.35-.753-.49-1.169-.55-.379-.05-.849-.05-1.373-.05m-2.45 4.4 4.052-2.11-.004-.22c-.005-.11-.04-.36-.138-.44l-.005-.004c-.02-.015-.077-.059-.29-.086-.262-.04-.624-.04-1.212-.04H8.402c-.588 0-.95 0-1.213.04-.213.027-.27.07-.289.086l-.005.004c-.116.06-.141.32-.139.44l-.004.23zm0 1.702-4.048 2.1.004.23c.017.17.126.51.433.53.263.04.625.04 1.213.04h4.8c.589 0 .95 0 1.214-.04.3-.03.413-.37.432-.53l.004-.22z" clip-rule="evenodd"/></svg>