<svg xmlns="http://www.w3.org/2000/svg" fill="none" viewBox="0 0 24 24"><path fill="currentColor" fill-rule="evenodd" d="M12.25 6c0-2.62 2.13-4.75 4.75-4.75S21.75 3.38 21.75 6s-2.13 4.75-4.75 4.75S12.25 8.62 12.25 6M17 3c.41 0 .75.34.75.75h-.01v1.71l.99.33c.4.13.61.55.48.95-.13.39-.56.6-.95.47l-1.5-.5c-.3-.1-.51-.39-.51-.71V3.75c0-.41.34-.75.75-.75M8.14 5.32c.47-.05 1.35-.07 2.16-.07h.01c.41 0 .74.32.75.73.01.42-.33.77-.75.77-.8 0-1.6.02-2 .06-.51.05-.81.16-1.05.32s-.45.4-.7.85c-.249.44-.498 1.037-.852 1.886l-.048.114-.63 1.5 1.09.27h12.96l1.24-.93 1.23-.92a.75.75 0 0 1 .9 1.2l-1.43 1.08.33.48.073.11c.56.848.935 1.418 1.127 2.07.2.67.2 1.38.2 2.47V22c0 .41-.34.75-.75.75h-2.25c-.41 0-.75-.34-.75-.75v-1c0-.49 0-.79-.03-1-.01-.15-.15-.21-.22-.22-.21-.03-1.26-.03-1.75-.03H7c-.5 0-1.54 0-1.75.03-.07.01-.21.06-.22.22-.03.21-.03.51-.03 1v1c0 .41-.34.75-.75.75H2c-.41 0-.75-.34-.75-.75v-4.69c0-1.09 0-1.8.2-2.47.2-.68.59-1.27 1.2-2.18l.33-.48-1.43-1.08a.75.75 0 0 1 .9-1.2l1.23.92.61-1.45c.36-.87.65-1.57.95-2.11.31-.58.67-1.04 1.18-1.38s1.07-.49 1.72-.56M19 16c0-.55-.45-1-1-1a1.005 1.005 0 0 0 0 2.01c.55 0 1-.45 1-1.01M6 15c.55 0 1 .45 1 1v.01c0 .55-.45 1-1 1A1.005 1.005 0 0 1 6 15" clip-rule="evenodd"/></svg>