<svg xmlns="http://www.w3.org/2000/svg" fill="none" viewBox="0 0 24 24"><path fill="currentColor" fill-rule="evenodd" d="M9.373 5.898c-.09-.102-.071-.245-.035-.53l.007-.049c.1-.732.314-1.365.813-1.89a3.6 3.6 0 0 1 .468-.412c.572-.424 1.248-.602 2.038-.685.77-.082 1.743-.082 2.96-.082h.753c1.216 0 2.188 0 2.959.082.79.083 1.466.26 2.039.685a3.6 3.6 0 0 1 .467.412c.499.525.714 1.158.814 1.89l.006.048c.037.286.055.43-.035.531s-.24.102-.544.102H9.917c-.303 0-.455 0-.544-.102m6.769 7.22c-.123-.907-.417-1.886-1.213-2.723a5 5 0 0 0-.662-.584c-.881-.653-1.864-.875-2.773-.971a19 19 0 0 0-1.649-.083c-.281-.005-.422-.007-.509-.094-.086-.088-.086-.227-.086-.506v-.563c0-.279 0-.419.089-.506C9.426 7 9.567 7 9.847 7h12.306c.28 0 .42 0 .509.088.088.087.088.227.088.506v.459c0 1.06 0 1.932-.095 2.628-.1.732-.314 1.365-.813 1.89q-.216.226-.467.412c-.573.425-1.249.602-2.04.685-.77.082-1.742.082-2.958.082a.186.186 0 0 1-.185-.171 9 9 0 0 0-.05-.462m-1.515.78c.09-.102.072-.245.035-.53l-.007-.049c-.1-.732-.314-1.365-.813-1.89q-.216-.226-.467-.412c-.573-.425-1.249-.602-2.04-.685-.77-.082-1.742-.082-2.958-.082h-.754c-1.216 0-2.188 0-2.959.082-.79.083-1.466.26-2.039.684a3.6 3.6 0 0 0-.466.413c-.5.525-.715 1.158-.814 1.89l-.007.048c-.036.286-.055.43.035.531s.241.102.544.102h12.166c.303 0 .455 0 .544-.102m-6.25 7.852c1.216 0 2.188 0 2.959-.082.79-.083 1.466-.26 2.039-.684q.252-.188.467-.413c.499-.525.714-1.158.813-1.89.095-.696.095-1.568.095-2.628v-.459c0-.279 0-.418-.088-.506S14.434 15 14.153 15H1.847c-.28 0-.42 0-.508.088s-.088.227-.089.506v.459c0 1.06 0 1.932.095 2.628.1.732.314 1.365.814 1.89q.214.225.466.412c.573.424 1.249.602 2.04.685.77.082 1.742.082 2.958.082zM5.774 4.242l.792.952a.75.75 0 0 0 1.248-.144l.857-1.715A.75.75 0 0 0 8 2.25 6.747 6.747 0 0 0 1.25 9a.75.75 0 0 0 1.5 0 5.25 5.25 0 0 1 3.024-4.758m11.66 14.564.791.952A5.25 5.25 0 0 0 21.25 15a.75.75 0 0 1 1.5 0A6.747 6.747 0 0 1 16 21.75a.75.75 0 0 1-.67-1.085l.856-1.715a.75.75 0 0 1 1.248-.144" clip-rule="evenodd"/></svg>