<svg xmlns="http://www.w3.org/2000/svg" fill="none" viewBox="0 0 24 24"><path fill="currentColor" fill-rule="evenodd" d="M2.5 21.75a1 1 0 0 1 1-1h17a1 1 0 1 1 0 2h-17a1 1 0 0 1-1-1m12.429-4.582a2.3 2.3 0 0 0-.337-.738c-.374-.515-.868-.75-1.347-.85-.391-.083-.809-.081-1.129-.08h-.232c-.32-.001-.738-.003-1.128.08-.48.1-.974.335-1.347.85a2.3 2.3 0 0 0-.337.738c-.068.24-.127.534-.194.87l-.543 2.712H4.28l.946-6.487c.036-.244.054-.367.138-.44s.208-.073.456-.073H9a.75.75 0 0 0 0-1.5H6.213c-.323 0-.484 0-.574-.104s-.067-.263-.02-.583l.247-1.691q.047-.321.077-.554c.037-.28.055-.419.14-.493s.22-.075.49-.075h10.855c.27 0 .405 0 .49.075.085.074.103.214.14.493q.03.233.077.554l.008.06a.3.3 0 0 1-.273.317l-.062.001H15a.75.75 0 0 0 0 1.5h2.89c.248 0 .371 0 .456.073.084.073.102.196.138.44l1.237 8.487h-4.056l-.542-2.711c-.068-.337-.126-.63-.194-.871m-.794 3.582-.478-2.391c-.074-.37-.122-.606-.172-.784a.8.8 0 0 0-.107-.265c-.105-.144-.234-.219-.442-.263-.225-.047-.476-.047-.824-.046h-.224c-.348 0-.598-.001-.823.046-.21.044-.338.12-.442.263a.8.8 0 0 0-.108.265c-.05.178-.098.414-.172.784l-.478 2.391zM7.847 2.345l.507 1.243a.26.26 0 0 0 .242.162h.542a.25.25 0 0 0 .25-.204l.182-.892c.068-.337.183-.793.563-1.094.373-.295.84-.31 1.173-.31h1.388c.333 0 .8.015 1.173.31.38.301.494.757.563 1.094l.182.892c.025.12.127.204.25.204h.542a.26.26 0 0 0 .241-.162l.508-1.243c.136-.334.283-.676.596-.884.312-.207.685-.211 1.046-.211h1.15c.556 0 1.177-.001 1.556.475.253.317.266.671.24.927-.024.224-.091.485-.155.736l-.59 2.312c-.146.577-.443 1.015-.86 1.42a.48.48 0 0 1-.331.13H5.195a.48.48 0 0 1-.332-.13c-.416-.405-.713-.843-.86-1.42l-.59-2.312a5.5 5.5 0 0 1-.153-.736c-.027-.256-.014-.61.239-.927.379-.476 1-.476 1.555-.475h1.151c.36 0 .734.004 1.046.211.313.208.46.55.596.884" clip-rule="evenodd"/></svg>