<svg xmlns="http://www.w3.org/2000/svg" fill="none" viewBox="0 0 24 24"><path fill="currentColor" fill-rule="evenodd" d="M4.28 3.198a1 1 0 0 1 .206 1.399C3.542 5.867 3 7.38 3 9s.542 3.133 1.486 4.403a1 1 0 0 1-1.604 1.194C1.699 13.007 1 11.08 1 9s.699-4.006 1.882-5.597a1 1 0 0 1 1.399-.205m15.44 0a1 1 0 0 1 1.398.205C22.301 4.993 23 6.92 23 9s-.699 4.006-1.882 5.597a1 1 0 1 1-1.604-1.194C20.458 12.133 21 10.621 21 9s-.542-3.133-1.486-4.403a1 1 0 0 1 .205-1.4m-1.964 2.198a1 1 0 1 0-1.594 1.208C16.703 7.317 17 8.137 17 9s-.297 1.683-.838 2.396a1 1 0 1 0 1.594 1.208C18.534 11.579 19 10.342 19 9c0-1.34-.466-2.578-1.244-3.604m-10.11-.193a1 1 0 0 1 .192 1.401C7.297 7.317 7 8.137 7 9s.297 1.683.838 2.396a1 1 0 0 1-1.593 1.208C5.465 11.579 5 10.342 5 9c0-1.34.466-2.578 1.245-3.604a1 1 0 0 1 1.4-.193M9.25 9A2.75 2.75 0 1 1 13 11.563V20a1 1 0 1 1-2 0v-8.437A2.75 2.75 0 0 1 9.25 9" clip-rule="evenodd"/></svg>