<svg xmlns="http://www.w3.org/2000/svg" fill="none" viewBox="0 0 24 24"><path fill="currentColor" fill-rule="evenodd" d="M6 15.346a1 1 0 0 1-.97 1.03l-.138.002c-.397.006-.783.012-.846.478-.044.327-.046.78-.046 1.516s.002 1.188.046 1.515c.043.322.112.398.442.443.326.044.777.046 1.512.046h12c.735 0 1.186-.002 1.512-.046.323-.043.398-.113.442-.443.044-.327.046-.779.046-1.515 0-.737-.002-1.189-.046-1.516-.064-.477-.394-.477-.793-.478q-.093 0-.191-.003a1 1 0 1 1 .06-1.999c.762.023 1.61.096 2.238.725.436.436.598.97.668 1.49.064.476.064 1.064.064 1.72v.122c0 .655 0 1.244-.064 1.72-.07.52-.232 1.053-.668 1.49s-.969.6-1.489.669c-.475.064-1.063.064-1.717.064H5.938c-.654 0-1.242 0-1.717-.064-.52-.07-1.053-.232-1.49-.67-.435-.436-.597-.97-.667-1.489C2 19.677 2 19.088 2 18.433v-.123c0-.655 0-1.243.064-1.72.07-.52.232-1.053.668-1.49.628-.628 1.476-.7 2.238-.724a1 1 0 0 1 1.03.97m1 4.03h10a1 1 0 1 0 0-2h-.792a4.4 4.4 0 0 0 .292-1.571c0-2.466-2.034-4.429-4.5-4.429s-4.5 1.963-4.5 4.429c0 .553.104 1.083.292 1.571H7a1 1 0 1 0 0 2m11.23-8.25-.186-.002c-.56 0-1.096-.018-1.613-.268l-2.042-.988a1.2 1.2 0 0 0-.521-.119h-1.043c-1.399 0-2.575-.359-2.575-1.772a.84.84 0 0 1 .616-.808l2.54-.702a2.7 2.7 0 0 1 1.895.17l1.62.784a.625.625 0 1 0 .545-1.125l-1.62-.784a3.95 3.95 0 0 0-2.772-.25l-2.541.702A2.09 2.09 0 0 0 9 7.977a1.8 1.8 0 0 0 .067.623l.007.025c.131.46.164.575-.319.723l-2.125.653-.002.001a2.735 2.735 0 0 1-3.034-1.03c-.621-.861-.381-2.103.552-2.641l7.516-4.337a2.74 2.74 0 0 1 2.156-.256l4.999 1.483.112.033c.541.159 1.121.33 1.473.8.351.471.35 1.075.348 1.64v2.725c0 .433 0 .83-.044 1.153-.048.355-.16.73-.47 1.04-.522.522-1.307.518-2.006.513" clip-rule="evenodd"/></svg>