<svg xmlns="http://www.w3.org/2000/svg" fill="none" viewBox="0 0 24 24"><path fill="currentColor" fill-rule="evenodd" d="M4.71 2.042a.996.996 0 1 0-1.41 1.41c3.87 3.87 7.76 5.82 10.7 6.8 1.14.38 2.14.61 2.94.76l-.56.45c-.43.35-.5.97-.16 1.41.35.43.97.5 1.41.16l2.5-2c.43-.34.5-.97.16-1.41l-2-2.5c-.35-.43-.97-.5-1.41-.16-.43.35-.5.97-.16 1.41l.54.67c-.71-.13-1.6-.34-2.63-.68-2.68-.89-6.29-2.69-9.92-6.32m.31 6.71h-.04c-.21 0-.41 0-.58.01-.18.01-.37.04-.57.12-.43.18-.77.52-.95.95-.08.2-.11.39-.12.57-.01.17-.01.36-.01.58v9.04c0 .21 0 .41.01.58.01.18.04.37.12.57.18.43.52.77.95.95.2.08.39.11.57.12.17.01.36.01.58.01h.04c.21 0 .41 0 .58-.01.18-.01.37-.04.57-.12.43-.18.77-.52.95-.95.08-.2.11-.39.12-.57.01-.17.01-.36.01-.58v-9.04c0-.21 0-.41-.01-.58-.01-.18-.04-.37-.12-.57-.18-.43-.52-.77-.95-.95-.2-.08-.39-.11-.57-.12-.17-.01-.36-.01-.58-.01m7 3.5h-.04c-.21 0-.41 0-.58.01-.18.01-.37.04-.57.12-.43.18-.77.52-.95.95-.08.2-.11.39-.12.57-.01.17-.01.36-.01.58v5.54c0 .21 0 .41.01.58.01.18.04.37.12.57.18.43.52.77.95.95.2.08.39.11.57.12.17.01.36.01.58.01h.04c.21 0 .41 0 .58-.01.18-.01.37-.04.57-.12.43-.18.77-.52.95-.95.08-.2.11-.39.12-.57.01-.17.01-.36.01-.58v-5.54c0-.21 0-.41-.01-.58-.01-.18-.04-.37-.12-.57-.18-.43-.52-.77-.95-.95-.2-.08-.39-.11-.57-.12-.17-.01-.36-.01-.58-.01m6.96 2.5h.04c.21 0 .41 0 .58.01.18.01.37.04.57.12.43.18.77.52.95.95.08.2.11.39.12.57.01.17.01.36.01.58v3.04c0 .21 0 .41-.01.58-.01.18-.04.37-.12.57-.18.43-.52.77-.95.95-.2.08-.39.11-.57.12-.17.01-.36.01-.58.01h-.04c-.21 0-.41 0-.58-.01-.18-.01-.37-.04-.57-.12-.43-.18-.77-.52-.95-.95-.08-.2-.11-.39-.12-.57-.01-.17-.01-.36-.01-.58v-3.04c0-.21 0-.41.01-.58.01-.18.04-.37.12-.57.18-.43.52-.77.95-.95.2-.08.39-.11.57-.12.17-.01.36-.01.58-.01" clip-rule="evenodd"/></svg>