<svg xmlns="http://www.w3.org/2000/svg" fill="none" viewBox="0 0 24 24"><path fill="currentColor" fill-rule="evenodd" d="M12.057 1.75c2.191 0 3.912 0 5.255.181 1.377.185 2.469.572 3.327 1.43s1.245 1.95 1.43 3.327c.181 1.343.181 3.064.181 5.255v.114c0 2.191 0 3.912-.181 5.255-.185 1.377-.572 2.469-1.43 3.327s-1.95 1.245-3.327 1.43c-1.343.181-3.064.181-5.255.181h-.114c-2.191 0-3.912 0-5.255-.181-1.377-.185-2.469-.572-3.327-1.43s-1.245-1.95-1.43-3.327c-.181-1.343-.181-3.064-.181-5.255v-.114c0-2.191 0-3.912.181-5.255.185-1.377.572-2.469 1.43-3.327s1.95-1.245 3.327-1.43c1.343-.181 3.064-.181 5.255-.181zm4.619 6.513a1 1 0 0 1 .061 1.413l-5.5 6a1 1 0 0 1-1.444.031l-2.5-2.5a.999.999 0 1 1 1.414-1.414l1.762 1.761 4.794-5.23a1 1 0 0 1 1.413-.061" clip-rule="evenodd"/></svg>