<svg xmlns="http://www.w3.org/2000/svg" fill="none" viewBox="0 0 24 24"><path fill="currentColor" fill-rule="evenodd" d="M9.213 9.213a2 2 0 0 1-.097-.11L7.38 6.95a2.86 2.86 0 0 1-.63-1.793V2.213c0-.766.913-1.29 1.567-.727l2.394 2.061c.046.04.1.058.151.058h2.276a.23.23 0 0 0 .15-.058l2.394-2.06c.655-.564 1.568-.04 1.568.726v2.944c0 .652-.221 1.286-.63 1.793l-1.736 2.153q-.046.057-.097.11l.882 5.738c.096.625.497 1.307 1.038 2.049H18a1 1 0 0 1 .217 1.976l.038.054c.376.537.566 1.335.47 2.03-.05.36-.188.782-.517 1.126-.353.37-.843.562-1.395.562H7.187c-.552 0-1.042-.193-1.395-.562-.329-.344-.468-.765-.518-1.126-.095-.695.095-1.493.471-2.03l.038-.054A1 1 0 0 1 6 17h1.293c.542-.742.943-1.424 1.039-2.049zm-1.105 9.87c-.295.358-.551.668-.757.962a1 1 0 0 0-.135.338 1.3 1.3 0 0 0-.03.44 1 1 0 0 0 .02.093h9.587a1 1 0 0 0 .02-.094 1.3 1.3 0 0 0-.029-.439 1 1 0 0 0-.135-.338 16 16 0 0 0-.757-.962z" clip-rule="evenodd"/></svg>