<svg xmlns="http://www.w3.org/2000/svg" fill="none" viewBox="0 0 24 24"><path fill="currentColor" fill-rule="evenodd" d="M12.25 1.25a8.76 8.76 0 0 0-8.31 6h-.19C2.51 7.25 1.5 8.26 1.5 9.5s.97 2.21 2.17 2.25a8.8 8.8 0 0 0 3.742 5.54A6.7 6.7 0 0 0 5.5 22c0 .41.34.75.75.75h12c.41 0 .75-.34.75-.75 0-1.839-.73-3.504-1.916-4.715a8.77 8.77 0 0 0 3.756-5.615c.96-.26 1.66-1.13 1.66-2.17 0-1.14-.84-2.07-1.93-2.23-1.15-3.49-4.44-6.02-8.32-6.02M3 9.5c0-.41.34-.75.75-.75h2.5c2.61 0 4.88-1.48 6-3.65a6.75 6.75 0 0 0 6 3.65h2c.41 0 .75.34.75.75s-.34.75-.75.75h-.06c-.38 0-.7.28-.75.66a7.243 7.243 0 0 1-7.19 6.34c-3.7 0-6.75-2.77-7.19-6.34a.755.755 0 0 0-.75-.66h-.56c-.41 0-.75-.34-.75-.75m7.5 4.5c0-.41.34-.75.75-.75h2c.41 0 .75.34.75.75 0 .97-.78 1.75-1.75 1.75S10.5 14.97 10.5 14M9.25 9a1.005 1.005 0 0 1 0 2.01 1.005 1.005 0 0 1 0-2.01m7 1c0-.55-.45-1-1-1a1.005 1.005 0 0 0 0 2.01c.55 0 1-.45 1-1.01" clip-rule="evenodd"/></svg>