<svg xmlns="http://www.w3.org/2000/svg" fill="none" viewBox="0 0 24 24"><path fill="currentColor" fill-rule="evenodd" d="M12 1.25C6.063 1.25 1.25 6.063 1.25 12S6.063 22.75 12 22.75 22.75 17.937 22.75 12 17.937 1.25 12 1.25m1.752 5.426a1.05 1.05 0 0 1 1.474.18l.916 1.17c.145.187.3.404.404.633.09.199.26.66.022 1.157-.24.501-.709.657-.924.71a3.2 3.2 0 0 1-.748.073H9.6c-.278 0-.405.035-.454.055l-.008.004a.8.8 0 0 0-.054.224 6 6 0 0 0-.034.712 1.05 1.05 0 1 1-2.1 0c0-.592.01-1.41.409-2.054.493-.798 1.343-1.041 2.241-1.041h3.75v-.981a1.05 1.05 0 0 1 .403-.842m1.197 5.968a1.05 1.05 0 1 1 2.1 0c0 .592-.01 1.178-.409 1.822-.492.798-1.342 1.042-2.24 1.042h-3.75v.98a1.049 1.049 0 0 1-1.878.662l-.915-1.17a3.3 3.3 0 0 1-.405-.633c-.09-.199-.259-.66-.022-1.156.24-.502.71-.658.924-.71.246-.061.513-.073.748-.073H14.4c.278 0 .405-.035.454-.056l.008-.003a.8.8 0 0 0 .054-.224l.012-.08a2 2 0 0 0 .022-.4" clip-rule="evenodd"/></svg>