<svg xmlns="http://www.w3.org/2000/svg" fill="none" viewBox="0 0 24 24"><path fill="currentColor" fill-rule="evenodd" d="M5 6.75a5.5 5.5 0 1 1 11 0v2.79q.608.612 1.07 1.346c.225.36.339.541.272.688l-.023.042c-.089.134-.332.134-.82.134a6.25 6.25 0 0 0-5.025 9.965c.313.424.47.636.397.797s-.303.179-.763.215q-.301.023-.608.023A7.75 7.75 0 0 1 5 9.54zm9 0v1.334a7.7 7.7 0 0 0-3.5-.834c-1.26 0-2.449.3-3.5.833V6.75a3.5 3.5 0 1 1 7 0M11.75 18a4.75 4.75 0 1 1 9.5 0 4.75 4.75 0 0 1-9.5 0m6.745-1.246a.75.75 0 0 1-.305 1.016c-.303.163-.661.577-.979 1.058a8 8 0 0 0-.477.828.751.751 0 0 1-1.323.056 1.8 1.8 0 0 0-.413-.484 2 2 0 0 0-.163-.113.75.75 0 0 1 .656-1.35c.143.07.327.198.436.285.331-.5.894-1.247 1.552-1.6a.75.75 0 0 1 1.016.304" clip-rule="evenodd"/></svg>