<svg xmlns="http://www.w3.org/2000/svg" fill="none" viewBox="0 0 24 24"><path fill="currentColor" fill-rule="evenodd" d="M22.75 12c0-5.937-4.813-10.75-10.75-10.75S1.25 6.063 1.25 12 6.063 22.75 12 22.75 22.75 17.937 22.75 12M7 12a1 1 0 0 0 1 1h4.5v.162c0 .29 0 .598.029.84.021.177.1.827.71 1.128s1.152-.045 1.298-.139c.202-.128.435-.322.655-.504l.038-.031c.346-.288.741-.63 1.055-.974.157-.171.319-.37.446-.585.118-.2.269-.514.269-.897s-.15-.698-.269-.897a3.6 3.6 0 0 0-.446-.585 11 11 0 0 0-1.055-.974l-.038-.03a7 7 0 0 0-.655-.505c-.146-.094-.689-.439-1.298-.139s-.689.951-.71 1.128a8 8 0 0 0-.029.84V11H8a1 1 0 0 0-1 1" clip-rule="evenodd"/></svg>