<svg xmlns="http://www.w3.org/2000/svg" fill="none" viewBox="0 0 24 24"><path fill="currentColor" fill-rule="evenodd" d="M22.75 12c0-5.937-4.813-10.75-10.75-10.75S1.25 6.063 1.25 12 6.063 22.75 12 22.75 22.75 17.937 22.75 12m-11.21.063L11.514 12l.026-.062q.078-.174.262-.455c.248-.373.591-.804.955-1.225.36-.416.722-.804.995-1.088l.449-.456a1 1 0 0 0-1.402-1.428l-.489.498c-.289.3-.677.715-1.067 1.167-.386.448-.793.951-1.108 1.427a5.4 5.4 0 0 0-.417.736c-.104.23-.218.544-.218.886s.114.656.218.887c.112.247.26.498.417.735.315.476.722.98 1.108 1.427.39.452.778.867 1.067 1.167l.49.498a1 1 0 0 0 1.4-1.427l-.448-.457a29 29 0 0 1-.995-1.088 13 13 0 0 1-.955-1.225 3.4 3.4 0 0 1-.262-.454" clip-rule="evenodd"/></svg>