<svg xmlns="http://www.w3.org/2000/svg" fill="none" viewBox="0 0 24 24"><path fill="currentColor" fill-rule="evenodd" d="M12 1.25C6.063 1.25 1.25 6.063 1.25 12S6.063 22.75 12 22.75 22.75 17.937 22.75 12 17.937 1.25 12 1.25m0 4.25a.75.75 0 0 1 .75.75v4.25h.311c.274 0 .542 0 .75.024.163.018.635.08.852.498.216.419-.029.798-.115.927-.11.164-.28.358-.451.556l-.025.028a9.5 9.5 0 0 1-.872.901c-.151.132-.32.262-.498.363A1.44 1.44 0 0 1 12 14a1.44 1.44 0 0 1-.701-.203 3 3 0 0 1-.5-.363 10 10 0 0 1-.871-.901l-.025-.028a7 7 0 0 1-.451-.556c-.087-.129-.332-.508-.115-.927.217-.418.69-.48.852-.498.208-.024.476-.024.75-.024h.311V6.25A.75.75 0 0 1 12 5.5m4.75 10.75A.75.75 0 0 1 16 17H8a.75.75 0 0 1 0-1.5h8a.75.75 0 0 1 .75.75" clip-rule="evenodd"/></svg>