<svg xmlns="http://www.w3.org/2000/svg" fill="none" viewBox="0 0 24 24"><path fill="currentColor" fill-rule="evenodd" d="M2 20.75a1 1 0 1 0 0 2h20a1 1 0 1 0 0-2h-.25v-6c0-.435-.021-.853-.103-1.225-.084-.383-.246-.779-.57-1.103s-.719-.485-1.102-.569c-.372-.082-.79-.103-1.225-.103h-2V6c0-.43-.021-.826-.097-1.171-.078-.354-.223-.7-.502-.98-.28-.28-.626-.424-.98-.502-.345-.076-.741-.097-1.171-.097h-1v-1a1 1 0 1 0-2 0v1h-1c-.43 0-.826.021-1.171.097-.354.078-.7.223-.98.502-.28.28-.424.626-.502.98-.076.345-.097.741-.097 1.171v5.75h-2c-.435 0-.853.021-1.225.103-.383.084-.779.246-1.103.57s-.485.719-.569 1.102c-.082.372-.103.79-.103 1.225v6zm5.25-7v7h-3v-6c0-.392.022-.638.057-.796a1 1 0 0 1 .033-.114 1 1 0 0 1 .114-.034c.158-.034.404-.056.796-.056zm2.5 7v-2a2.25 2.25 0 0 1 4.5 0v2H13v-2a1 1 0 1 0-2 0v2zm7 0v-7h2c.392 0 .638.022.796.056.06.014.095.026.114.034.008.02.02.055.034.114.034.158.056.404.056.796v6zm-12.4-6.93-.002.004zm-.03.03.004-.002-.003.001m15.33-.03.002.004zm.026.028.003.002zM10.25 6.273a.75.75 0 0 1 .75-.75h2a.75.75 0 0 1 0 1.5h-2a.75.75 0 0 1-.75-.75m0 3.5a.75.75 0 0 1 .75-.75h2a.75.75 0 0 1 0 1.5h-2a.75.75 0 0 1-.75-.75m0 3.5a.75.75 0 0 1 .75-.75h2a.75.75 0 0 1 0 1.5h-2a.75.75 0 0 1-.75-.75" clip-rule="evenodd"/></svg>