<svg xmlns="http://www.w3.org/2000/svg" fill="none" viewBox="0 0 24 24"><path fill="currentColor" fill-rule="evenodd" d="M5.458 6.96A5.752 5.752 0 0 0 6.51 18.23c.205.017.307.025.389-.022s.14-.172.256-.422c.142-.303.352-.585.603-.829a2.5 2.5 0 0 1 1.148-.636c.31-.076.466-.113.53-.195s.064-.213.064-.476v-2.4a2.5 2.5 0 0 1 5 0v2.4c0 .263 0 .394.064.476s.22.12.53.195a2.5 2.5 0 0 1 1.712 1.461c.102.245.154.368.23.418.075.05.184.05.404.05h.06a5.25 5.25 0 0 0 1.242-10.352c-.243-.06-.365-.089-.427-.16-.063-.07-.077-.193-.104-.439A6.251 6.251 0 0 0 5.94 6.468c-.05.196-.074.294-.13.352s-.155.085-.35.14m6.548 5.29a1 1 0 0 1 1 1v4.5h.582c.176 0 .392 0 .568.022h.003c.127.016.703.088.977.653.275.567-.027 1.067-.092 1.176l-.002.004c-.093.153-.227.323-.337.464l-.024.03c-.294.376-.676.86-1.057 1.251-.19.195-.407.397-.638.556-.205.14-.555.344-.986.344s-.78-.203-.986-.344a4.4 4.4 0 0 1-.638-.556c-.38-.39-.763-.875-1.057-1.25l-.024-.03c-.11-.142-.244-.312-.337-.465l-.002-.004c-.065-.109-.367-.609-.092-1.176.274-.565.85-.637.977-.653h.003c.176-.022.392-.022.568-.022h.594v-4.5a1 1 0 0 1 1-1" clip-rule="evenodd"/></svg>