<svg xmlns="http://www.w3.org/2000/svg" fill="none" viewBox="0 0 24 24"><path fill="currentColor" fill-rule="evenodd" d="M5.809 7.195c.056-.058.08-.156.13-.352a6.252 6.252 0 0 1 12.272.831c.027.246.041.368.104.44.062.07.184.1.427.159a5.252 5.252 0 0 1 .347 10.107c-.246.078-.37.117-.476.068-.106-.05-.17-.207-.3-.522q-.104-.255-.26-.479c-.223-.318-.334-.478-.334-.572s.111-.254.333-.572a2.5 2.5 0 1 0-4.27-2.583c-.255.49-.383.735-.47.778s-.36-.001-.906-.09a2.5 2.5 0 0 0-.812 0c-.546.089-.819.134-.906.09-.087-.043-.215-.288-.47-.779a2.5 2.5 0 1 0-4.27 2.584c.222.318.333.478.333.572s-.111.254-.333.572q-.123.176-.214.371c-.148.317-.222.475-.332.52-.11.044-.234-.005-.483-.101a5.752 5.752 0 0 1 .54-10.903c.195-.054.293-.081.35-.14M8 15.875a1 1 0 1 0 0-2 1 1 0 0 0 0 2m8 0a1 1 0 1 0 0-2 1 1 0 0 0 0 2m-3 1a1 1 0 1 1-2 0 1 1 0 0 1 2 0m-1 5a1 1 0 1 0 0-2 1 1 0 0 0 0 2m-3-3a1 1 0 1 1-2 0 1 1 0 0 1 2 0m7 1a1 1 0 1 0 0-2 1 1 0 0 0 0 2" clip-rule="evenodd"/></svg>