<svg xmlns="http://www.w3.org/2000/svg" fill="none" viewBox="0 0 24 24"><path fill="currentColor" fill-rule="evenodd" d="M6 2a1 1 0 0 1 0 2c-.551 0-1.231.566-1.231 1.571v.33c.005 2.085.009 3.89-1.687 5.845-.11.126-.11.382 0 .508.885 1.02 1.325 1.998 1.526 3.05.168.876.165 1.801.162 2.742l-.001.383C4.769 19.435 5.449 20 6 20a1 1 0 1 1 0 2c-1.913 0-3.231-1.737-3.231-3.571v-.384c.002-.974.004-1.691-.125-2.365-.134-.7-.415-1.358-1.073-2.115-.761-.879-.761-2.251 0-3.13 1.2-1.381 1.199-2.492 1.198-4.682v-.182C2.769 3.737 4.087 2 6 2m11 1a1 1 0 0 1 1-1c1.913 0 3.231 1.737 3.231 3.571v.384c-.002.974-.004 1.691.125 2.365.134.7.415 1.358 1.073 2.115.762.879.762 2.251 0 3.13-.658.757-.939 1.415-1.073 2.115-.129.674-.127 1.39-.126 2.365l.001.384C21.231 20.263 19.913 22 18 22a1 1 0 1 1 0-2c.551 0 1.231-.566 1.231-1.571v-.383c-.004-.94-.007-1.866.16-2.741.202-1.053.642-2.032 1.527-3.051.11-.126.11-.382 0-.508-.885-1.02-1.325-1.998-1.526-3.05-.168-.877-.165-1.802-.162-2.742v-.002l.001-.38C19.231 4.565 18.551 4 18 4a1 1 0 0 1-1-1M6 12c0-.69.56-1.25 1.25-1.25h.009a1.25 1.25 0 1 1 0 2.5H7.25C6.56 13.25 6 12.69 6 12m4.746 0c0-.69.56-1.25 1.25-1.25h.008a1.25 1.25 0 0 1 0 2.5h-.008c-.69 0-1.25-.56-1.25-1.25m4.745 0c0-.69.56-1.25 1.25-1.25h.009a1.25 1.25 0 1 1 0 2.5h-.009c-.69 0-1.25-.56-1.25-1.25" clip-rule="evenodd"/></svg>