<svg xmlns="http://www.w3.org/2000/svg" fill="none" viewBox="0 0 24 24"><path fill="currentColor" fill-rule="evenodd" d="M15.582 1.418a1 1 0 1 0-1.414 1.414l2.793 2.793-2.793 2.793a1 1 0 0 0 1.414 1.414l2.793-2.793 2.793 2.793a1 1 0 0 0 1.414-1.414L19.79 5.625l2.793-2.793a1 1 0 0 0-1.414-1.414L18.375 4.21zM12.5 2.905c-.09-.277-.136-.416-.215-.473s-.199-.057-.44-.057h-2.12c-4.054 0-6.081 0-7.34 1.264-1.26 1.264-1.26 3.299-1.26 7.368v.54c0 4.068 0 6.102 1.26 7.367q.87.874 2.454 1.167c.324.06.486.09.557.191.07.102.041.264-.017.588-.14.784-.118 1.494.385 1.87.527.384 1.367-.027 3.047-.849q.28-.137.56-.278l.002-.001c.998-.498 2.014-1.007 3.098-1.257.472-.108.951-.154 1.554-.167 4.054 0 6.081 0 7.34-1.264 1.173-1.177 1.254-3.052 1.26-6.586 0-.343 0-.514-.085-.602s-.297-.092-.72-.102a2.5 2.5 0 0 1-1.713-.731L18.8 9.585c-.2-.2-.3-.3-.424-.3s-.224.1-.424.3l-1.308 1.308a2.5 2.5 0 0 1-3.536-3.536l1.308-1.308c.2-.2.3-.3.3-.424s-.1-.224-.3-.424l-1.308-1.308a2.5 2.5 0 0 1-.608-.988m-5.374 6.22a.75.75 0 0 1 .75-.75h2a.75.75 0 0 1 0 1.5h-2a.75.75 0 0 1-.75-.75m0 5a.75.75 0 0 1 .75-.75h6a.75.75 0 0 1 0 1.5h-6a.75.75 0 0 1-.75-.75" clip-rule="evenodd"/></svg>