<svg xmlns="http://www.w3.org/2000/svg" fill="none" viewBox="0 0 24 24"><path fill="currentColor" fill-rule="evenodd" d="M15.582 1.418a1 1 0 0 0-1.414 0 .994.994 0 0 0 0 1.41l2.793 2.8-2.793 2.79a.994.994 0 0 0 0 1.41 1 1 0 0 0 1.414 0l2.793-2.79 2.793 2.79a1 1 0 0 0 1.414 0 .994.994 0 0 0 0-1.41l-2.793-2.79 2.793-2.8a.994.994 0 0 0 0-1.41 1 1 0 0 0-1.414 0l-2.793 2.79zM12.497 2.9l.002.006c.119.36.321.7.608.98l1.308 1.31c.2.2.3.3.3.43 0 .12-.1.22-.3.42l-1.308 1.31a2.494 2.494 0 0 0 0 3.53c.977.98 2.559.98 3.536 0l1.308-1.31c.2-.2.3-.3.424-.3s.224.1.424.3l1.308 1.31c.474.48 1.091.72 1.713.73.423.01.634.02.72.11.085.08.085.26.085.6-.006 3.53-.087 5.41-1.259 6.58-1.26 1.27-3.287 1.27-7.341 1.27-.603.01-1.082.06-1.554.16-1.084.26-2.1.76-3.098 1.26h-.002c-.178.095-.356.181-.533.267l-.027.013c-1.68.82-2.52 1.23-3.047.85-.503-.38-.525-1.09-.385-1.87.058-.32.087-.49.017-.59-.071-.1-.233-.13-.557-.19q-1.584-.285-2.455-1.17c-1.259-1.26-1.259-3.29-1.259-7.36v-.54c0-4.07 0-6.11 1.259-7.37 1.26-1.27 3.287-1.27 7.341-1.27h2.119c.241 0 .361 0 .44.06.078.06.123.198.213.474" clip-rule="evenodd"/></svg>