<svg xmlns="http://www.w3.org/2000/svg" fill="none" viewBox="0 0 24 24"><path fill="currentColor" fill-rule="evenodd" d="M18.302 1h-1.104c-.899 0-1.648 0-2.242.08-.628.084-1.195.27-1.65.725-.456.456-.642 1.023-.726 1.65-.08.595-.08 1.344-.08 2.243v4.104c0 .899 0 1.648.08 2.242.084.628.27 1.195.726 1.65.455.456 1.022.642 1.65.726.594.08 1.343.08 2.242.08h1.104c.899 0 1.648 0 2.242-.08.628-.084 1.195-.27 1.65-.726.456-.455.642-1.022.726-1.65.08-.594.08-1.344.08-2.242V5.698c0-.898 0-1.648-.08-2.242-.084-.628-.27-1.195-.726-1.65-.455-.456-1.022-.642-1.65-.726C19.95 1 19.202 1 18.303 1m-.556 9.25a1 1 0 0 0-.996 1c0 .552.446 1 .995 1h.01c.55 0 .995-.448.995-1s-.446-1-.995-1zM9.964 1h-.057c-1.584 0-2.852 0-3.865.107-1.044.11-1.932.344-2.707.889A5.5 5.5 0 0 0 1.99 3.347c-.542.777-.773 1.667-.883 2.714C1 7.08 1 8.351 1 9.944v.112c0 1.592 0 2.865.107 3.883.11 1.047.341 1.937.883 2.714.366.526.821.983 1.345 1.351.775.545 1.663.778 2.707.889C7.055 19 8.323 19 9.907 19h.693c.377 0 .4.023.4.4v.6c0 .827-.173 1-1 1H8a1 1 0 1 0 0 2h8a1 1 0 1 0 0-2h-2c-.827 0-1-.173-1-1v-.6c0-.377.023-.4.4-.4h.603c1.584 0 2.852 0 3.866-.107 1.043-.11 1.932-.344 2.706-.889a1 1 0 1 0-1.15-1.636c-.383.27-.89.443-1.767.536-.896.095-2.058.096-3.712.096H9.964c-1.654 0-2.816-.001-3.712-.096-.878-.093-1.384-.267-1.766-.536a3.5 3.5 0 0 1-.855-.859c-.27-.385-.443-.896-.535-1.779C3 12.83 3 11.661 3 10s.001-2.83.096-3.73c.092-.883.266-1.394.535-1.78a3.5 3.5 0 0 1 .855-.858c.382-.27.888-.443 1.766-.536C7.148 3.001 8.31 3 9.964 3a1 1 0 0 0 0-2" clip-rule="evenodd"/></svg>