<svg xmlns="http://www.w3.org/2000/svg" fill="none" viewBox="0 0 24 24"><path fill="currentColor" fill-rule="evenodd" d="m15.547 4.158-.079-.045-.173.174c-1.807 1.817-4.784 1.817-6.592 0l-.173-.174-.079.045-1.685.965-.086.049.067.26c.631 2.45-.892 4.98-3.299 5.634l-.243.067v2.095l.243.066.023.006c.52.145.826.687.683 1.212a.976.976 0 0 1-1.202.688l-.013-.003-.032-.01a8 8 0 0 1-.633-.188c-.165-.06-.49-.189-.722-.495a1.5 1.5 0 0 1-.284-.774 6 6 0 0 1-.018-.564v-1.971c0-.184 0-.39.018-.564.02-.193.072-.495.284-.774.233-.306.557-.435.722-.495.18-.066.406-.128.633-.19l.032-.008c1.406-.382 2.269-1.868 1.916-3.237l-.008-.032a9 9 0 0 1-.153-.658c-.03-.173-.082-.525.068-.882a1.5 1.5 0 0 1 .53-.633c.142-.103.32-.205.48-.296l.029-.016 1.685-.965.028-.016c.157-.09.333-.19.491-.26.176-.078.46-.18.803-.134.376.051.645.267.78.381.145.123.309.288.472.452l.024.024a2.723 2.723 0 0 0 3.83 0l.024-.024c.164-.164.328-.33.473-.452.134-.114.404-.33.78-.38.343-.047.626.054.802.132.159.07.334.171.491.26l.028.017 1.686.965.028.016c.16.091.338.193.481.295.156.113.392.308.529.634.15.357.098.709.069.882-.033.192-.093.424-.153.657l-.009.033c-.352 1.368.511 2.855 1.918 3.237l.032.009c.227.061.453.123.633.189.165.06.49.189.722.495.212.28.264.58.284.774.018.175.018.38.018.564v1.971c0 .183 0 .389-.018.564-.02.193-.072.495-.284.774-.233.306-.557.434-.722.495-.18.066-.406.127-.633.189l-.032.008c-1.406.383-2.269 1.869-1.916 3.237l.008.033c.06.234.12.465.153.657.03.174.082.525-.069.883a1.5 1.5 0 0 1-.528.633c-.143.102-.321.204-.481.296l-.029.016-1.713.98c-.157.09-.333.191-.492.261-.175.078-.459.18-.802.133-.376-.05-.646-.267-.78-.38a8 8 0 0 1-.472-.453l-.024-.024a2.72 2.72 0 0 0-4.268.569.973.973 0 0 1-1.338.35.99.99 0 0 1-.348-1.348c1.599-2.745 5.253-3.06 7.335-.965l.173.173.079-.045 1.685-.964.086-.05-.067-.26c-.631-2.448.892-4.98 3.299-5.634l.243-.067v-2.094l-.243-.067c-2.407-.654-3.931-3.185-3.3-5.634l.066-.26-.085-.05zm-4.943 12.576c1.885-.005 3.151-.069 3.865-.782.782-.783.782-1.145.78-4.374v-.404a.39.39 0 0 0-.665-.277l-1.857 1.856a1.207 1.207 0 1 1-1.706-1.707l1.857-1.856a.39.39 0 0 0-.278-.666h-.404c-3.23-.002-3.592-.002-4.374.78-.714.714-.777 1.98-.782 3.864-.001.41-.002.616-.078.8-.076.182-.22.326-.508.614L1.817 19.22a1.935 1.935 0 1 0 2.737 2.737L9.19 17.32c.288-.288.432-.433.615-.509s.389-.076.8-.077" clip-rule="evenodd"/></svg>