<svg xmlns="http://www.w3.org/2000/svg" fill="none" viewBox="0 0 24 24"><path fill="currentColor" fill-rule="evenodd" d="M12.586 1.25h-1.172c-.303 0-.606 0-.864.03a1.93 1.93 0 0 0-.939.34 1.93 1.93 0 0 0-.618.783c-.11.236-.218.564-.314.852l-.318.95A1 1 0 0 1 8 4.65l-.282.163a.97.97 0 0 1-.625.078l-1.164-.329a9 9 0 0 0-.94-.233c-.312-.05-.675-.06-1.056.096-.381.155-.635.416-.823.668a8 8 0 0 0-.49.787l-.526.912c-.153.265-.305.53-.41.77a1.94 1.94 0 0 0-.174.99c.041.385.203.687.376.93.152.214 1.363 1.568 1.568 1.795.085.122.198.426.198.722s-.112.6-.198.722l-1.007 1.126a8 8 0 0 0-.56.668 1.94 1.94 0 0 0-.377.932.977.977 0 0 0 1.938.247q.115-.165.48-.571l.001-.002 1.046-1.173c.405-.513.631-1.281.631-1.95 0-.667-.226-1.435-.631-1.949-.244-.27-1.418-1.588-1.497-1.699l1.204-2.09c.143.022 1.58.425 1.954.53a2.92 2.92 0 0 0 1.992-.248l.41-.236a2.93 2.93 0 0 0 1.155-1.419l.58-1.667c.095-.01 1.127-.003 1.84.002l.623.004c.057.122.459 1.318.573 1.661a2.93 2.93 0 0 0 1.155 1.42l.41.235c.614.316 1.32.404 1.993.249l1.96-.528c.062.083.543.933.885 1.538l.312.55-1.497 1.698c-.405.514-.631 1.282-.631 1.95s.226 1.436.631 1.95l1.047 1.174c.244.271.371.414.45.525l-1.204 2.09c-.143-.022-1.58-.425-1.953-.531a2.92 2.92 0 0 0-1.994.249l-.409.236a2.93 2.93 0 0 0-1.155 1.418l-.58 1.668c-.095.01-1.127.003-1.84-.002l-.623-.004a7 7 0 0 1-.232-.645.977.977 0 1 0-1.854.617s.205.616.314.851c.125.27.306.559.618.785.313.225.644.306.939.34.258.03.561.03.864.029h1.172c.303 0 .606 0 .864-.03.295-.033.626-.114.939-.34.312-.225.493-.514.618-.784.11-.235.3-.812.3-.812l.332-.989a1 1 0 0 1 .36-.444l.282-.163a.97.97 0 0 1 .625-.078l1.206.34c.313.09.626.178.899.222.31.05.674.06 1.055-.096.381-.155.635-.416.823-.668.166-.222 1.016-1.699 1.016-1.699.153-.265.305-.53.41-.77a1.95 1.95 0 0 0 .174-.99 1.94 1.94 0 0 0-.376-.931c-.152-.213-1.363-1.567-1.568-1.794-.085-.123-.198-.426-.198-.722s.113-.6.198-.722l1.007-1.126c.204-.227.409-.455.56-.668.174-.244.336-.546.377-.932a1.94 1.94 0 0 0-.175-.989 8 8 0 0 0-.41-.77c-.162-.284-.85-1.477-1.015-1.699-.188-.252-.442-.513-.822-.668-.382-.155-.745-.145-1.056-.096a9 9 0 0 0-.94.233h-.002l-1.163.329a.97.97 0 0 1-.625-.078L16 4.652a1 1 0 0 1-.362-.446l-.632-1.802a1.93 1.93 0 0 0-.618-.784 1.93 1.93 0 0 0-.939-.34 8 8 0 0 0-.864-.029m-.982 14.96c1.885-.005 3.151-.068 3.865-.782.782-.782.782-1.144.78-4.373v-.404a.39.39 0 0 0-.665-.278l-1.857 1.856a1.207 1.207 0 1 1-1.706-1.706l1.857-1.857A.39.39 0 0 0 13.6 8h-.404c-3.23 0-3.592 0-4.374.781-.714.714-.777 1.98-.782 3.864-.001.41-.002.616-.078.799s-.22.327-.508.615l-4.637 4.637a1.935 1.935 0 0 0 2.737 2.737l4.636-4.637c.288-.288.432-.432.615-.508s.389-.077.8-.078" clip-rule="evenodd"/></svg>