<svg xmlns="http://www.w3.org/2000/svg" fill="none" viewBox="0 0 24 24"><path fill="currentColor" fill-rule="evenodd" d="M5.099 3.25h6.961c.64 0 1.214 0 1.679.062.507.068 1.028.226 1.454.65.427.424.614 1.214.683 1.719h1.344c.372 0 .717 0 1.01.028.323.031.656.102.985.287s.56.432.754.693c.175.235.352.53.544.846l1.719 2.85c.169.28.34.561.43.884s.088.652.088.977v2.71c0 .42 0 .8-.029 1.113-.03.337-.1.693-.299 1.035-.214.37-.522.677-.894.89-.343.197-1.022.286-1.36.317a3.42 3.42 0 0 1-3.282 2.439 3.42 3.42 0 0 1-3.279-2.43h-3.215a3.42 3.42 0 0 1-3.278 2.43 3.42 3.42 0 0 1-3.282-2.44c-.339-.03-1.017-.119-1.36-.316a2.44 2.44 0 0 1-.895-.89c-.198-.342-.268-.698-.298-1.035a13 13 0 0 1-.029-1.113V7.079c0-.636 0-1.207.062-1.67.069-.505.227-1.023.654-1.447.426-.424.947-.582 1.454-.65.465-.062 1.04-.062 1.679-.062m11.788 10.694c-.34 0-.668.05-.977.141v-6.46h2.343l2.543 4.163v4.1c0 .181-.182.477-.633.477a3.42 3.42 0 0 0-3.276-2.42M5.648 17.347c0-.805.657-1.458 1.466-1.458.81 0 1.466.653 1.466 1.458 0 .806-.656 1.459-1.466 1.459s-1.466-.653-1.466-1.459m11.239-1.458c-.81 0-1.466.653-1.466 1.458 0 .806.656 1.459 1.466 1.459s1.466-.653 1.466-1.459c0-.805-.656-1.458-1.466-1.458M7.25 7a.75.75 0 1 0-1.5 0v4a.75.75 0 0 0 1.5 0zm4 0a.75.75 0 0 0-1.5 0v4a.75.75 0 0 0 1.5 0z" clip-rule="evenodd"/></svg>