<svg xmlns="http://www.w3.org/2000/svg" fill="none" viewBox="0 0 24 24"><path fill="currentColor" fill-rule="evenodd" d="M12.055 1.25h-4.11c-1.367 0-2.47 0-3.337.117-.9.12-1.658.38-2.26.981-.602.602-.86 1.36-.981 2.26-.117.867-.117 1.97-.117 3.337v8.11c0 1.367 0 2.47.117 3.337.12.9.38 1.658.981 2.26.602.602 1.36.86 2.26.982.867.116 1.97.116 3.337.116h4.11c1.367 0 2.47 0 3.337-.116.9-.122 1.658-.38 2.26-.982s.86-1.36.982-2.26c.116-.867.116-1.97.116-3.337v-.29l-2.19 2.191c-.126.127-.31.312-.538.453-.141.087-.322.155-.38.177l-1.003.347c-.354.118-.74.247-1.065.305-.336.06-1.04.127-1.601-.434s-.494-1.265-.434-1.601c.058-.325.186-.711.305-1.065l.347-1.003c.022-.058.09-.24.177-.38a3 3 0 0 1 .453-.538l5.929-5.929v-.343c0-1.367 0-2.47-.116-3.337-.122-.9-.38-1.658-.982-2.26s-1.36-.86-2.26-.981c-.867-.117-1.97-.117-3.337-.117M7.25 15.75a.75.75 0 0 1 .67.415l1.044 2.085H9.5a.75.75 0 0 1 0 1.5h-1a.75.75 0 0 1-.67-.415l-.58-1.158-.58 1.158a.75.75 0 0 1-.67.415H5a.75.75 0 0 1 0-1.5h.536l1.043-2.085a.75.75 0 0 1 .671-.415M6 5.25a.75.75 0 0 0 0 1.5h8a.75.75 0 0 0 0-1.5zM5.25 10A.75.75 0 0 1 6 9.25h6a.75.75 0 0 1 0 1.5H6a.75.75 0 0 1-.75-.75m16.923.58-.657.656-1.971-1.97.657-.658c.269-.268.403-.402.548-.474a.99.99 0 0 1 .875 0c.145.072.28.206.548.475.268.268.403.402.475.547a.99.99 0 0 1 0 .875c-.072.145-.207.28-.475.548m-7.865 7.15.626-.209c.222-.074.333-.11.43-.171.1-.061.182-.144.347-.309l4.744-4.744-1.97-1.97-4.745 4.743c-.165.165-.248.248-.308.346-.061.099-.098.21-.172.431l-.209.626c-.274.823-.41 1.234-.194 1.451.217.217.629.08 1.451-.194" clip-rule="evenodd"/></svg>