<svg xmlns="http://www.w3.org/2000/svg" fill="none" viewBox="0 0 24 24"><path fill="currentColor" fill-rule="evenodd" d="M13.056 1.25h-1.112c-1.838 0-3.294 0-4.433.153-1.172.158-2.121.49-2.87 1.238-.748.749-1.08 1.698-1.238 2.87-.153 1.14-.153 2.595-.153 4.433V19.5a3.5 3.5 0 0 0 3.5 3.5h14a1 1 0 1 0 0-2h-.25a1.5 1.5 0 0 1 0-3h.25a1 1 0 0 0 1-1.038V9.944c0-1.838 0-3.294-.153-4.433-.158-1.172-.49-2.121-1.238-2.87-.749-.748-1.698-1.08-2.87-1.238-1.14-.153-2.595-.153-4.433-.153M17.5 8.526a2.01 2.01 0 0 0-2-2.017q-.342.002-.648.108c-.238.082-.357.123-.422.102-.064-.022-.134-.126-.274-.334A2 2 0 0 0 12.5 5.5c-.688 0-1.296.351-1.656.885-.14.208-.21.312-.274.334-.065.021-.184-.02-.422-.102A2 2 0 0 0 9.5 6.51c-1.105 0-2 .903-2 2.017 0 1.12.648 1.928 1.602 2.104.204.037.305.056.352.111.046.056.046.145.046.324v.435c0 .943 0 1.414.293 1.707s.764.293 1.707.293h2c.943 0 1.414 0 1.707-.293s.293-.764.293-1.707v-.56c0-.178 0-.266.045-.322s.147-.076.352-.119A2.03 2.03 0 0 0 17.5 8.526M6.75 18h10.587A3.5 3.5 0 0 0 17 19.5c0 .537.12 1.045.337 1.5H6.75a1.5 1.5 0 0 1 0-3" clip-rule="evenodd"/></svg>