<svg xmlns="http://www.w3.org/2000/svg" fill="none" viewBox="0 0 24 24"><path fill="currentColor" fill-rule="evenodd" d="M12 1.25C6.063 1.25 1.25 6.06 1.25 12S6.063 22.75 12 22.75 22.75 17.94 22.75 12 17.937 1.25 12 1.25M13 7h-1.032c-.439 0-.817 0-1.13.02-.33.02-.66.07-.986.21-.735.3-1.319.89-1.624 1.62a3.1 3.1 0 0 0-.207.99C8 10.15 8 10.53 8 10.97v2.06c0 .44 0 .82.021 1.13.023.33.072.66.207.99.305.73.889 1.32 1.624 1.62.326.14.656.19.986.21.313.02.691.02 1.13.02H13c1.657 0 3-1.34 3-3 0-.55-.448-1-1-1s-1 .45-1 1-.448 1-1 1h-1c-.48 0-.789 0-1.026-.02-.228-.01-.315-.04-.357-.06a.98.98 0 0 1-.541-.54c-.017-.04-.044-.13-.059-.35-.016-.24-.017-.55-.017-1.03v-2c0-.48.001-.79.017-1.03.015-.22.042-.31.059-.35a.98.98 0 0 1 .541-.54c.042-.02.129-.05.357-.06C11.211 9 11.52 9 12 9h1c.552 0 1 .45 1 1s.448 1 1 1 1-.45 1-1c0-1.66-1.343-3-3-3" clip-rule="evenodd"/></svg>