<svg xmlns="http://www.w3.org/2000/svg" fill="none" viewBox="0 0 24 24"><path fill="currentColor" fill-rule="evenodd" d="M8.683 11.797c.43 2.678.967 4.836 1.625 6.3.696 1.55 1.324 1.903 1.729 1.903.404 0 1.032-.352 1.729-1.903.657-1.464 1.195-3.622 1.624-6.3l.008-.044c.135-.848.569-3.553 1.487-5.841.461-1.15 1.096-2.33 1.985-3.087.46-.392 1.013-.693 1.66-.791.654-.1 1.319.021 1.974.337.499.24.707.839.466 1.336a1.004 1.004 0 0 1-1.34.464c-.348-.168-.604-.19-.798-.16-.198.03-.416.128-.658.334-.513.437-1 1.248-1.426 2.31-.835 2.078-1.24 4.606-1.374 5.44l-.002.018c-.438 2.729-1.009 5.094-1.775 6.8-.727 1.62-1.838 3.087-3.56 3.087-1.723 0-2.833-1.467-3.56-3.086-.767-1.707-1.337-4.072-1.775-6.801l-.003-.018c-.134-.835-.539-3.362-1.373-5.44-.427-1.062-.914-1.873-1.427-2.31-.242-.206-.46-.304-.658-.334-.193-.03-.45-.008-.798.16a1.004 1.004 0 0 1-1.34-.464 1 1 0 0 1 .466-1.336c.655-.316 1.32-.436 1.974-.337.647.098 1.2.4 1.66.79.889.759 1.524 1.938 1.985 3.088.919 2.288 1.352 4.993 1.488 5.841zM2.006 11c-.554 0-1.003.448-1.003 1s.45 1 1.003 1h3.01c.553 0 1.002-.448 1.002-1s-.449-1-1.003-1zm8.526 0c-.554 0-1.003.448-1.003 1s.45 1 1.003 1h3.01c.553 0 1.002-.448 1.002-1s-.449-1-1.003-1zm8.526 0c-.554 0-1.003.448-1.003 1s.45 1 1.003 1h3.01c.553 0 1.002-.448 1.002-1s-.449-1-1.003-1z" clip-rule="evenodd"/></svg>