<svg xmlns="http://www.w3.org/2000/svg" fill="none" viewBox="0 0 24 24"><path fill="currentColor" fill-rule="evenodd" d="M11.102 2.202c.176.234.506.392.898.392s.722-.158.899-.392c.953-1.27 2.916-1.27 3.87 0l.518.69a.34.34 0 0 0 .292.126.32.32 0 0 0 .27-.15c.468-.788 1.334-1.002 2.03-.83.7.173 1.371.776 1.371 1.71v16.504c0 .934-.672 1.537-1.37 1.71-.697.172-1.563-.042-2.03-.83a.32.32 0 0 0-.27-.15.34.34 0 0 0-.293.126l-.519.69c-.953 1.27-2.916 1.27-3.87 0-.176-.234-.506-.392-.898-.392s-.722.158-.899.392c-.953 1.27-2.916 1.27-3.87 0l-.518-.69a.34.34 0 0 0-.292-.127.32.32 0 0 0-.27.15c-.468.79-1.334 1.003-2.03.83-.7-.172-1.371-.775-1.371-1.709V3.748c0-.934.671-1.537 1.37-1.71.697-.172 1.563.042 2.03.83.05.084.145.144.27.15a.34.34 0 0 0 .293-.126l.519-.69c.953-1.27 2.916-1.27 3.87 0m-2.81 13.505a1 1 0 0 1 0-1.414l6-6a1 1 0 1 1 1.415 1.414l-6 6a1 1 0 0 1-1.414 0M9.01 8H9a1 1 0 0 0 0 2h.009a1 1 0 1 0 0-2m5.982 6a1 1 0 1 0 0 2H15a1 1 0 1 0 0-2z" clip-rule="evenodd"/></svg>