<svg xmlns="http://www.w3.org/2000/svg" fill="none" viewBox="0 0 24 24"><path fill="currentColor" fill-rule="evenodd" d="M10.5 2a1 1 0 1 0-2 0v1.31q-.53.032-.989.093c-1.172.158-2.121.49-2.87 1.238-.748.749-1.08 1.698-1.238 2.87q-.06.459-.093.99H2a1 1 0 0 0 0 2h1.253q-.004.678-.003 1.443v.112q0 .765.003 1.444H2a1 1 0 1 0 0 2h1.31q.032.53.093.99c.158 1.172.49 2.12 1.238 2.869.749.748 1.698 1.08 2.87 1.238q.46.06.989.093V22a1 1 0 1 0 2 0v-1.253q.678.004 1.444.003c.213 0 .32 0 .387-.037a.26.26 0 0 0 .112-.105c.04-.066.047-.195.06-.455.026-.465.18-.92.453-1.306.084-.12.126-.18.14-.23s.01-.116 0-.248a5 5 0 0 1 0-.737c.01-.132.014-.199 0-.248-.014-.05-.056-.11-.14-.23a2.5 2.5 0 0 1 2.672-3.86c.066.017.099.025.122.028a.26.26 0 0 0 .126-.014 1 1 0 0 0 .104-.05 1 1 0 0 0 .093-.053.3.3 0 0 0 .08-.086 1 1 0 0 0 .05-.106 2.5 2.5 0 0 1 4.04-.804c.257.249.384.373.446.347.06-.025.06-.189.06-.515l.001-.097q0-.765-.003-1.444H22a1 1 0 1 0 0-2h-1.31a14 14 0 0 0-.093-.989c-.158-1.172-.49-2.121-1.238-2.87-.749-.748-1.698-1.08-2.87-1.238a14 14 0 0 0-.989-.093V2a1 1 0 1 0-2 0v1.253q-.678-.004-1.444-.003h-.112q-.765 0-1.444.003zM7.25 8A.75.75 0 0 1 8 7.25h4a.75.75 0 0 1 0 1.5H8A.75.75 0 0 1 7.25 8m11.25 5a1 1 0 0 1 1 1v.27a3.9 3.9 0 0 1 1.595.841l.358-.234a1 1 0 0 1 1.094 1.675l-.334.218a3.8 3.8 0 0 1 0 2.46l.334.218a1 1 0 0 1-1.094 1.675l-.358-.234a3.9 3.9 0 0 1-1.595.841V22a1 1 0 1 1-2 0v-.27a3.9 3.9 0 0 1-1.595-.84l-.358.233a1 1 0 0 1-1.093-1.675l.333-.217a3.8 3.8 0 0 1 0-2.461l-.334-.218a1 1 0 1 1 1.094-1.675l.358.234a3.9 3.9 0 0 1 1.595-.841V14a1 1 0 0 1 1-1m0 3.143a1.93 1.93 0 0 0-1.6.835 1.8 1.8 0 0 0 0 2.044c.34.5.927.835 1.6.835a1.93 1.93 0 0 0 1.6-.835 1.8 1.8 0 0 0 0-2.043 1.93 1.93 0 0 0-1.6-.836" clip-rule="evenodd"/></svg>