<svg xmlns="http://www.w3.org/2000/svg" fill="none" viewBox="0 0 24 24"><path fill="currentColor" fill-rule="evenodd" d="M10.5 2a1 1 0 1 0-2 0v1.31q-.53.032-.989.093c-1.172.158-2.121.49-2.87 1.238-.748.749-1.08 1.698-1.238 2.87q-.06.46-.093.989H2a1 1 0 0 0 0 2h1.253q-.004.678-.003 1.444v.112q0 .765.003 1.444H2a1 1 0 1 0 0 2h1.31q.032.53.093.989c.158 1.172.49 2.121 1.238 2.87.749.748 1.698 1.08 2.87 1.238q.46.06.989.093V22a1 1 0 1 0 2 0v-1.253q.678.004 1.444.003h.112q.765 0 1.444-.003V22a1 1 0 1 0 2 0v-1.31q.53-.032.989-.093c1.172-.158 2.121-.49 2.87-1.238.748-.749 1.08-1.698 1.238-2.87q.06-.46.093-.989H22a1 1 0 1 0 0-2h-1.253q.004-.678.003-1.444v-.112q0-.765-.003-1.444H22a1 1 0 1 0 0-2h-1.31a14 14 0 0 0-.093-.989c-.158-1.172-.49-2.121-1.238-2.87-.749-.748-1.698-1.08-2.87-1.238a14 14 0 0 0-.989-.093V2a1 1 0 1 0-2 0v1.253q-.678-.004-1.444-.003h-.112q-.765 0-1.444.003zm3.207 6.293a1 1 0 0 1 0 1.414l-4 4a1 1 0 0 1-1.414-1.414l4-4a1 1 0 0 1 1.414 0m2 5.414a1 1 0 0 0-1.414-1.414l-2 2a1 1 0 0 0 1.414 1.414z" clip-rule="evenodd"/></svg>