<svg xmlns="http://www.w3.org/2000/svg" fill="none" viewBox="0 0 24 24"><path fill="currentColor" fill-rule="evenodd" d="M2.707 1.293a1 1 0 0 0-1.414 1.414l1.764 1.764a5 5 0 0 0-.564.543c-.666.747-.964 1.653-1.105 2.764-.017.128-.025.192-.01.248.023.09.092.168.178.202.054.022.121.022.256.022h5.024l1.5 1.5H1.85c-.277 0-.416 0-.504.087s-.09.224-.092.5q-.006.747-.005 1.61v.106c0 1.724 0 3.09.138 4.17.141 1.11.439 2.016 1.105 2.763q.297.334.65.612c.783.618 1.725.892 2.888 1.023 1.138.129 2.582.129 4.422.129h3.095c1.839 0 3.283 0 4.421-.129a9 9 0 0 0 1.06-.178l2.264 2.264a1 1 0 0 0 1.414-1.414zm10.84 1.957c1.84 0 3.284 0 4.422.129 1.163.13 2.105.405 2.888 1.023q.353.278.65.612c.666.747.964 1.653 1.105 2.764.017.128.025.192.01.248a.3.3 0 0 1-.178.202c-.054.022-.121.022-.256.022H12.034c-.123 0-.184 0-.239-.023s-.098-.066-.185-.153L7.788 4.253c-.405-.405-.607-.608-.533-.792.075-.184.357-.189.923-.199.682-.012 1.437-.012 2.274-.012zm9.065 12.972c.138-1.08.138-2.445.138-4.17v-.105q.001-.862-.005-1.61c-.003-.276-.004-.413-.092-.5s-.227-.087-.504-.087h-7.415c-.616 0-.925 0-1.001.185-.077.185.14.403.577.84l7.083 7.083c.255.255.383.382.543.347.16-.034.217-.188.332-.496a6.6 6.6 0 0 0 .344-1.487" clip-rule="evenodd"/></svg>