<svg xmlns="http://www.w3.org/2000/svg" fill="none" viewBox="0 0 24 24"><path fill="currentColor" fill-rule="evenodd" d="M12 1.25C6.063 1.25 1.25 6.063 1.25 12c0 2.929 1.171 5.584 3.07 7.523.371.378.557.567.743.491.187-.076.187-.352.187-.903V13a.75.75 0 0 1 1.5 0v8.032c0 .173 0 .26.044.331.043.072.117.11.265.187 1.48.767 3.16 1.2 4.941 1.2s3.461-.433 4.94-1.2c.149-.077.223-.115.266-.187s.044-.158.044-.331V13a.75.75 0 0 1 1.5 0v6.111c0 .551 0 .827.187.903.186.076.371-.113.742-.491A10.72 10.72 0 0 0 22.75 12c0-5.937-4.813-10.75-10.75-10.75m0 13c-1.294 0-2.49.428-3.45 1.15a.75.75 0 0 0 .9 1.2 4.23 4.23 0 0 1 2.55-.85c.958 0 1.84.316 2.55.85a.75.75 0 0 0 .9-1.2A5.73 5.73 0 0 0 12 14.25M6.47 9.47a2.45 2.45 0 0 1 1.737-.72H9.5a.75.75 0 0 1 0 1.5H8.207c-.254 0-.497.1-.677.28a.75.75 0 1 1-1.06-1.06m7.28.03a.75.75 0 0 1 .75-.75h1.293c.652 0 1.277.259 1.737.72a.75.75 0 1 1-1.06 1.06.96.96 0 0 0-.677-.28H14.5a.75.75 0 0 1-.75-.75" clip-rule="evenodd"/></svg>