<svg xmlns="http://www.w3.org/2000/svg" fill="none" viewBox="0 0 24 24"><path fill="currentColor" fill-rule="evenodd" d="M11.587 1.25c.57 0 1.075-.001 1.55.167q.147.052.288.12c.455.219.811.578 1.214.984l4.783 4.807c.467.469.882.884 1.106 1.428s.223 1.132.222 1.796v.198c0 1.414 0 2.121-.44 2.56-.439.44-1.146.44-2.56.44H6.25c-1.414 0-2.121 0-2.56-.44-.44-.439-.44-1.146-.44-2.56V9.453c0-1.534 0-2.77.114-3.754.118-1.018.37-1.89.963-2.63q.327-.407.733-.736c.735-.596 1.603-.85 2.615-.968.98-.115 2.387-.115 3.912-.115m7.144 8.258c-.056-.138-.162-.268-.78-.89L13.346 3.99c-.533-.535-.674-.669-.856-.723v.008c0 1.362 0 2.01.117 2.875.12.9.38 1.658.981 2.26.602.602 1.36.86 2.26.981.867.117 1.516.118 2.883.118M5.505 16.75c.283 0 .51.002.707.02.198.018.315.048.385.08.054.023.07.043.082.064.02.032.062.125.072.34a.75.75 0 1 0 1.498-.07c-.017-.379-.099-.736-.284-1.044a1.65 1.65 0 0 0-.76-.662c-.515-.228-1.196-.228-1.7-.228-.837 0-1.66.077-2.19.635-.273.286-.408.633-.478.98-.07.338-.087.724-.087 1.135v2c0 .41.017.797.087 1.135.07.347.205.694.477.98.532.558 1.39.635 2.228.635.504 0 1.148 0 1.662-.228.298-.132.568-.343.76-.662.186-.308.268-.665.285-1.045a.75.75 0 0 0-1.498-.07c-.01.216-.052.31-.072.341-.012.021-.028.04-.082.065-.07.03-.187.061-.385.079-.196.018-.424.02-.707.02-.882 0-1.063-.126-1.104-.17-.015-.014-.058-.067-.095-.245-.038-.186-.056-.449-.056-.835v-2c0-.386.018-.649.056-.835.037-.178.08-.23.095-.246.04-.043.222-.169 1.104-.169m8.121-.75a.75.75 0 0 0-.75-.75h-1.203c-.217 0-.416 0-.582.011-.18.012-.375.04-.574.12-.552.227-.85.637-.984 1.078-.109.358-.108.792-.107 1.041 0 .25-.002.683.107 1.04.134.442.432.852.984 1.078.199.081.395.109.574.12.166.012.387.012.604.012a8 8 0 0 1 .504.008c.217 0 .263.247.258.37v.743c-.003.124-.059.371-.258.371a8 8 0 0 1-.504.008H10.41a.75.75 0 0 0 0 1.5h1.308c.217 0 .416 0 .583-.011.178-.012.374-.04.573-.121.552-.226.85-.636.984-1.077.109-.358.108-.792.107-1.041 0-.25.002-.683-.107-1.04a1.64 1.64 0 0 0-.984-1.078 1.8 1.8 0 0 0-.573-.12c-.167-.012-.366-.012-.583-.012-.246 0-.415 0-.526-.008-.234 0-.27-.247-.258-.37v-.743c-.006-.122.036-.365.258-.371.11-.008.258-.008.504-.008h1.181a.75.75 0 0 0 .75-.75m1.546-.701a.75.75 0 0 1 .967.436l1.83 4.836 1.831-4.836a.75.75 0 1 1 1.403.53l-1.794 4.74c-.15.397-.287.76-.424 1.02a1.7 1.7 0 0 1-.317.437c-.16.152-.396.288-.698.288-.303 0-.538-.136-.698-.288a1.7 1.7 0 0 1-.317-.438c-.137-.26-.275-.622-.425-1.019l-1.794-4.74a.75.75 0 0 1 .436-.966" clip-rule="evenodd"/></svg>