<svg xmlns="http://www.w3.org/2000/svg" fill="none" viewBox="0 0 24 24"><path fill="currentColor" fill-rule="evenodd" d="M14.728 1.818a.75.75 0 0 0-.91-.545c-1.476.369-2.193 1.27-2.451 2.05a2.751 2.751 0 1 0 1.618.109c.2-.261.558-.545 1.197-.704a.75.75 0 0 0 .546-.91m-6.89 4.09C7.908 5.862 8 5.916 8 6a4 4 0 1 0 8 0c0-.085.091-.14.162-.094.464.3.86.682 1.16 1.106.408.578.667 1.296.627 2.018-.01.165.098.32.258.362 1.406.372 2.543 1.587 2.543 3.142 0 1.978-1.587 3.042-3.089 3.181-.934.087-1.971-.17-2.72-.84a.36.36 0 0 0-.469-.003c-.687.598-1.612.878-2.472.878s-1.785-.28-2.472-.878a.36.36 0 0 0-.47.003c-.748.67-1.785.927-2.72.84-1.501-.14-3.088-1.203-3.088-3.181 0-1.555 1.137-2.77 2.543-3.142a.354.354 0 0 0 .258-.362c-.04-.722.22-1.44.627-2.018a4.3 4.3 0 0 1 1.16-1.105M5.89 17.342c-.059-.206.12-.403.334-.383a5.04 5.04 0 0 0 2.754-.523c.168-.088.252-.131.325-.131s.157.043.325.129c.76.39 1.597.565 2.373.565s1.613-.175 2.373-.565c.168-.086.252-.13.324-.13s.157.044.326.132a5.04 5.04 0 0 0 2.754.523c.213-.02.392.177.333.383l-.572 2.003c-.19.663-.35 1.222-.533 1.662-.195.468-.445.876-.858 1.187-.412.311-.873.44-1.376.5-.474.055-1.056.055-1.745.055h-2.052c-.69 0-1.271 0-1.745-.056-.503-.059-.964-.188-1.377-.499-.412-.311-.663-.719-.858-1.187-.183-.44-.343-1-.532-1.662z" clip-rule="evenodd"/></svg>