<svg xmlns="http://www.w3.org/2000/svg" fill="none" viewBox="0 0 24 24"><path fill="currentColor" fill-rule="evenodd" d="M12 1.125a1 1 0 0 0-1 1c0 .808-.201 1.286-.454 1.636-.28.39-.665.682-1.204 1.086l-.015.011c-.499.375-1.135.852-1.62 1.552-.41.59-.69 1.298-.785 2.182A4.98 4.98 0 0 0 4 13.169c-.467.466-.751 1.117-.751 1.905 0 .822.228 1.56.512 2.22.183.425.412.864.623 1.269.389.783 1.008 2.011 1.32 2.507.328.517.683.934 1.176 1.24.492.307 1.022.441 1.63.505.58.06 1.29.06 2.158.06h2.662c.869 0 1.578 0 2.159-.06.607-.064 1.136-.198 1.63-.505.492-.306.847-.723 1.174-1.24.313-.496.932-1.724 1.32-2.507.212-.405.441-.844.624-1.27.284-.66.512-1.397.512-2.22 0-.787-.285-1.437-.751-1.904l.001-.044c0-.898-.09-1.943-.519-2.855a3.57 3.57 0 0 0-1.528-1.649c.216-1.398-.62-2.839-1.96-3.325.073-2.159-1.666-4.171-3.993-4.171m5.97 11.25c-.044-.487-.137-.911-.298-1.253a1.57 1.57 0 0 0-.675-.744 5.2 5.2 0 0 1-.997.732 1 1 0 0 1-1-1.732c.4-.231.693-.481.843-.714.328-.512.055-1.202-.455-1.448a4.2 4.2 0 0 1-1.15 1.11c-.645.432-1.403.74-2.14.974-.743.236-1.513.412-2.197.56q-.193.043-.373.081c-.542.117-.999.216-1.369.321a2.98 2.98 0 0 0-2.064 2.114 2.84 2.84 0 0 1 1.771.67q.069.059.134.124a3 3 0 0 1 .134-.125c.53-.458 1.211-.67 1.866-.67s1.336.212 1.866.67q.068.06.134.125.065-.065.134-.125c.53-.458 1.211-.67 1.866-.67s1.336.212 1.866.67q.068.06.134.125.065-.065.134-.125c.521-.451 1.19-.663 1.835-.67M9.132 7.981l-.022.004q.106-.248.238-.434c.28-.405.666-.708 1.194-1.104l.066-.05c.48-.36 1.09-.816 1.559-1.465.325-.451.57-.972.707-1.593.856.443 1.351 1.499 1.01 2.458-.107.298-.341.586-.76.867-.424.284-.982.523-1.633.73-.647.205-1.34.365-2.017.513z" clip-rule="evenodd"/></svg>