<svg xmlns="http://www.w3.org/2000/svg" fill="none" viewBox="0 0 24 24"><path fill="currentColor" fill-rule="evenodd" d="M11.307 1.713A.75.75 0 0 1 12 1.25a4.75 4.75 0 0 1 4.697 4.039c.983.111 1.893.462 2.61 1.055.897.742 1.443 1.83 1.443 3.156 0 2.03-1.954 3.706-4.603 4.235l-.144.018c-2.117.265-7.97.997-9.003.997-1.177 0-2.14-.401-2.802-1.12-.653-.71-.948-1.655-.948-2.63 0-.909.324-1.858.845-2.617.184-.268.4-.523.647-.749.305-.28.457-.419.63-.352.175.068.198.33.245.857q.035.394.166.753c.25.677.74 1.16 1.369 1.475 1.19.596 2.949.626 4.941.377a.75.75 0 0 0-.186-1.488c-1.966.246-3.326.15-4.083-.23-.346-.173-.537-.39-.634-.654-.104-.282-.134-.71.024-1.347.319-1.155 1.31-2.328 2.45-2.696.715-.357 1.355-.8 1.695-1.212.287-.287.194-.51.11-.587a.75.75 0 0 1-.162-.817M6.341 18.217l-.28-1.171c-.096-.397-.143-.595-.049-.71s.315-.107.755-.091q.117.004.234.004c.628 0 2.467-.2 4.268-.41 1.59-.184 3.46-.419 4.634-.566l.54-.068q.38-.075.757-.184c.49-.14.735-.21.859-.098.124.114.078.351-.013.827l-.42 2.19c-.149.779-.27 1.406-.408 1.91-.143.52-.32.964-.61 1.358-.35.477-.802.865-1.324 1.133-.436.224-.898.32-1.42.364-.505.044-1.12.044-1.878.044h-.065c-.724 0-1.313 0-1.796-.04-.503-.043-.947-.132-1.37-.34a3.8 3.8 0 0 1-1.305-1.063c-.291-.371-.478-.79-.637-1.283-.154-.476-.296-1.07-.472-1.806" clip-rule="evenodd"/></svg>