<svg xmlns="http://www.w3.org/2000/svg" fill="none" viewBox="0 0 24 24"><path fill="currentColor" fill-rule="evenodd" d="M4.728 2.16c1.903-.569 4.487-.91 7.309-.91s5.405.341 7.309.91c.946.283 1.767.636 2.368 1.06.582.412 1.106 1.002 1.106 1.78v14c0 .778-.524 1.368-1.106 1.78-.6.424-1.422.776-2.368 1.06-1.904.569-4.487.91-7.31.91-2.821 0-5.405-.341-7.308-.91-.947-.284-1.768-.636-2.369-1.06-.581-.412-1.105-1.002-1.105-1.78V5c0-.778.524-1.368 1.105-1.78.601-.424 1.422-.777 2.369-1.06M3.26 7.293v9.414a11 11 0 0 1 1.468-.547c1.903-.569 4.487-.91 7.309-.91s5.405.341 7.309.91c.535.16 1.03.342 1.467.547V7.293c-.437.205-.932.387-1.467.547-1.904.569-4.487.91-7.31.91-2.821 0-5.405-.341-7.308-.91a11 11 0 0 1-1.468-.547" clip-rule="evenodd"/></svg>