<svg xmlns="http://www.w3.org/2000/svg" fill="none" viewBox="0 0 24 24"><path fill="currentColor" fill-rule="evenodd" d="M11.943 1.75h.114c2.191 0 3.913 0 5.256.18 1.378.186 2.47.573 3.329 1.43.858.86 1.245 1.951 1.43 3.328.131.976.167 2.151.177 3.56.003.471.005.707-.142.854-.146.148-.383.148-.856.148H2.75c-.473 0-.71 0-.856-.148-.147-.147-.145-.383-.142-.853.01-1.41.046-2.585.177-3.561.185-1.377.572-2.469 1.43-3.327.859-.858 1.952-1.245 3.329-1.43 1.343-.181 3.065-.181 5.256-.181M8 5a1.5 1.5 0 1 0 0 3 1.5 1.5 0 0 0 0-3m4.75.75a.75.75 0 0 0 0 1.5h4a.75.75 0 0 0 0-1.5zm-10.001 7H21.25c.473 0 .71 0 .856.148.147.147.145.383.142.853-.01 1.41-.046 2.585-.177 3.561-.185 1.377-.572 2.469-1.43 3.327-.859.858-1.951 1.245-3.329 1.43-1.343.181-3.064.181-5.256.181h-.114c-2.192 0-3.913 0-5.256-.18-1.377-.186-2.47-.573-3.328-1.43-.859-.86-1.246-1.951-1.431-3.328-.131-.976-.167-2.151-.177-3.561-.003-.47-.005-.706.142-.853.146-.148.383-.148.856-.148M8 16a1.5 1.5 0 1 0 0 3 1.5 1.5 0 0 0 0-3m4.75.75a.75.75 0 0 0 0 1.5h4a.75.75 0 0 0 0-1.5z" clip-rule="evenodd"/></svg>