<svg xmlns="http://www.w3.org/2000/svg" fill="none" viewBox="0 0 24 24"><path fill="currentColor" fill-rule="evenodd" d="M13.347 1.283c.565.05 1.097.223 1.553.563.337.251.571.56.771.893.186.309.373.694.585 1.131l.426.88H21a1 1 0 1 1 0 2h-.828l-.327 5.282c-.014.235-.021.352-.064.44s-.166.199-.41.418q-.051.045-.099.092l-1.03 1.026c-.336.333-.504.5-.712.5s-.376-.167-.71-.5l-1.031-1.025a2.523 2.523 0 0 0-3.555 0 2.49 2.49 0 0 0 0 3.535l1.03 1.025c.335.333.503.5.503.707s-.168.374-.503.707l-1.03 1.025a2.49 2.49 0 0 0-.701 2.184c.05.295.074.443.014.514-.06.07-.192.07-.454.069-.858-.003-1.576-.017-2.182-.076-.818-.078-1.506-.242-2.121-.618a4.75 4.75 0 0 1-1.425-1.342c-.412-.592-.617-1.268-.745-2.08-.124-.793-.184-1.784-.26-3.034l-.534-8.848H3a1 1 0 1 1 0-2h1.545l.228-.001H7.41l.356-.78c.206-.453.388-.852.57-1.172.198-.346.431-.666.773-.928.461-.354 1.003-.533 1.58-.586.395-.036.79-.035 1.186-.034h.248c.462.001.878.002 1.224.033M14.46 4.75H9.61c.205-.451.34-.743.465-.961.19-.333.423-.48.797-.513.266-.024.613-.025 1.163-.025.538 0 .876 0 1.135.024.365.032.595.173.788.493.13.219.276.515.502.982m7.248 9.293a1 1 0 0 1 0 1.414l-2.793 2.793 2.793 2.793a1 1 0 0 1-1.414 1.414L17.5 19.664l-2.793 2.793a1 1 0 1 1-1.414-1.415l2.793-2.792-2.793-2.792a1 1 0 0 1 1.414-1.415l2.793 2.793 2.793-2.793a1 1 0 0 1 1.414 0" clip-rule="evenodd"/></svg>