<svg xmlns="http://www.w3.org/2000/svg" fill="none" viewBox="0 0 24 24"><path fill="currentColor" fill-rule="evenodd" d="M13.052 1.25h-2.104c-.899 0-1.648 0-2.242.08-.628.084-1.195.27-1.65.725-.456.456-.642 1.023-.726 1.65-.08.595-.08 1.344-.08 2.243V7.1c0 .189 0 .283.059.341s.152.059.341.059h10.7c.189 0 .283 0 .341-.059s.059-.152.059-.341V5.948c0-.898 0-1.648-.08-2.242-.084-.628-.27-1.195-.726-1.65-.455-.456-1.022-.642-1.65-.726-.594-.08-1.344-.08-2.242-.08M1 10a1 1 0 0 1 1-1h20a1 1 0 1 1 0 2h-.25v1.054c0 1.133 0 2.058-.098 2.79-.103.763-.325 1.425-.854 1.954a2.7 2.7 0 0 1-.798.548v4.404a1 1 0 1 1-2 0v-4.027a26 26 0 0 1-1 .024v2.003a1 1 0 1 1-2 0v-2H9v2a1 1 0 1 1-2 0v-2.003a26 26 0 0 1-1-.024v4.027a1 1 0 1 1-2 0v-4.404a2.7 2.7 0 0 1-.798-.548c-.529-.529-.751-1.19-.854-1.955-.098-.73-.098-1.656-.098-2.79V11H2a1 1 0 0 1-1-1" clip-rule="evenodd"/></svg>