<svg xmlns="http://www.w3.org/2000/svg" fill="none" viewBox="0 0 24 24"><path fill="currentColor" fill-rule="evenodd" d="M3.77 3.771c-.295.297-.438.688-.517.97a6 6 0 0 0-.18 1.01 18 18 0 0 0-.066 2.217v.07c.008.402.016.815.074 1.14.062.346.242.955.902 1.221.667.268 1.224-.059 1.504-.264.27-.198.568-.496.86-.789l.046-.046L9.3 6.393l.046-.046.012-.012c.289-.289.581-.582.777-.848.205-.279.532-.837.264-1.504-.266-.66-.875-.84-1.221-.902-.325-.057-.737-.066-1.14-.075H7.97c-.715-.015-1.521-.006-2.22.067a6 6 0 0 0-1.01.18c-.28.08-.671.221-.968.518M12 9a3 3 0 1 1 0 6 3 3 0 0 1 0-6m8.747 10.26c-.079.281-.222.672-.518.97-.297.295-.688.438-.969.517a6 6 0 0 1-1.01.18c-.698.073-1.504.082-2.219.067h-.092c-.395-.01-.799-.018-1.117-.075-.346-.062-.955-.242-1.22-.902-.269-.667.058-1.224.263-1.504.198-.27.496-.568.79-.86l.045-.046 2.907-2.907.046-.046c.292-.293.59-.59.86-.789.28-.205.837-.532 1.504-.264.66.266.84.875.902 1.221.058.325.066.738.074 1.14v.069c.016.715.007 1.521-.066 2.22a6 6 0 0 1-.18 1.01" clip-rule="evenodd"/></svg>