<svg xmlns="http://www.w3.org/2000/svg" fill="none" viewBox="0 0 24 24"><path fill="currentColor" fill-rule="evenodd" d="M5.152 2.418c-.008.105-.008.245-.008.358 0 1.131.407 2.15.921 3.063.38.674.852 1.341 1.293 1.966q.22.309.423.603c1.15 1.669 1.796 2.985 1.092 4.473-.107.227-.364.549-.81 1.029a57 57 0 0 1-.479.508c-.324.341-.689.725-1.049 1.129-1.13 1.269-2.39 2.923-3.076 5.054-.07.218-.162.502-.193.718-.039.27-.021.605.209.918.238.324.57.436.838.478.223.035.492.035.74.035h1.614c.145 0 .302 0 .438-.013.156-.015.36-.053.56-.177a1.3 1.3 0 0 0 .416-.443c.074-.123.159-.297.232-.446a5.19 5.19 0 0 1 4.658-2.921h1.072c3.837 0 6.707-3.705 6.707-7.95 0-2.165-.91-4.447-2.41-6.008-1.522-1.581-3.714-2.47-6.17-1.629-.723.248-1.112.192-1.317.099-.198-.09-.383-.289-.53-.694a8 8 0 0 0-.218-.553 1.3 1.3 0 0 0-.423-.538 1.3 1.3 0 0 0-.613-.212c-.15-.015-.327-.015-.493-.015H6.662c-.113 0-.236 0-.342.008a1.3 1.3 0 0 0-.445.107c-.272.125-.49.341-.615.61-.077.166-.1.324-.108.443m9.145 3.627a1 1 0 1 0-.593 1.91 2.03 2.03 0 0 1 1.34 1.336 1 1 0 0 0 1.913-.582 4.03 4.03 0 0 0-2.66-2.664" clip-rule="evenodd"/></svg>