<svg xmlns="http://www.w3.org/2000/svg" fill="none" viewBox="0 0 24 24"><path fill="currentColor" fill-rule="evenodd" d="M6 1.25c-.844 0-1.572.043-2.182.177-.619.136-1.163.376-1.59.802-.425.426-.665.97-.8 1.589-.135.61-.178 1.338-.178 2.182v.65c0 .283 0 .424.088.512s.23.088.512.088h20.3c.283 0 .424 0 .512-.088s.088-.23.088-.512V6c0-.844-.043-1.572-.177-2.182-.136-.619-.376-1.163-.802-1.59-.426-.425-.97-.665-1.589-.8-.61-.135-1.338-.178-2.182-.178zm16.75 8.1c0-.283 0-.424-.088-.512s-.23-.088-.512-.088H1.85c-.283 0-.424 0-.512.088s-.088.23-.088.512V18c0 .844.043 1.572.177 2.182.136.619.376 1.163.802 1.59.426.425.97.665 1.589.8.61.135 1.338.178 2.182.178h12c.844 0 1.572-.043 2.182-.177.619-.136 1.163-.376 1.59-.802.425-.426.665-.97.8-1.589.135-.61.178-1.338.178-2.182zM4.125 4.25a.75.75 0 0 1 .75-.75h4a.75.75 0 0 1 0 1.5h-4a.75.75 0 0 1-.75-.75m15.75 0a1 1 0 1 0-2 0v.009a1 1 0 1 0 2 0zM9 12.75a2.25 2.25 0 1 0 0 4.5 2.25 2.25 0 0 0 0-4.5M5.25 15a3.75 3.75 0 1 1 7.5 0 3.75 3.75 0 0 1-7.5 0m9.888-3.737a.75.75 0 0 0-.888.737v6a.75.75 0 0 0 1.5 0v-1.634l.333-.001h.06c.385 0 .85-.001 1.203-.094.193-.05.479-.157.685-.422.232-.298.25-.643.19-.923l-.39-1.81c-.129-.603-.563-1.016-1.026-1.285-.466-.272-1.048-.453-1.667-.568" clip-rule="evenodd"/></svg>