<svg xmlns="http://www.w3.org/2000/svg" fill="none" viewBox="0 0 24 24"><path fill="currentColor" fill-rule="evenodd" d="M7.27 8H2a1 1 0 0 1 0-2h5.27q.018-.22.06-.435c.113-.553.393-1.136 1.048-1.514.307-.177.633-.243.962-.273.311-.028.69-.028 1.13-.028h3.065c.44 0 .82 0 1.13.028.33.03.656.096.963.273.654.378.934.96 1.047 1.514.03.142.048.29.06.435H22a1 1 0 1 1 0 2h-5.265q-.017.22-.06.435c-.113.553-.393 1.136-1.047 1.514-.308.177-.633.243-.963.273-.31.028-.69.028-1.13.028H10.47c-.44 0-.819 0-1.13-.028-.33-.03-.655-.096-.962-.273-.655-.378-.935-.96-1.048-1.514A4 4 0 0 1 7.27 8M2 16a1 1 0 1 0 0 2h2.27q.018.22.06.435c.113.553.393 1.136 1.048 1.514.307.177.633.243.962.273.311.028.69.028 1.13.028h9.065c.44 0 .82 0 1.13-.028.33-.03.656-.096.963-.273.654-.378.934-.96 1.047-1.514.03-.142.048-.29.06-.435H22a1 1 0 1 0 0-2h-2.265a4 4 0 0 0-.06-.435c-.113-.553-.393-1.136-1.047-1.514-.308-.177-.633-.243-.963-.273-.31-.028-.69-.028-1.13-.028H7.471c-.44 0-.82 0-1.13.028-.33.03-.656.096-.963.273-.655.378-.935.96-1.048 1.514-.029.142-.047.29-.06.435z" clip-rule="evenodd"/></svg>