<svg xmlns="http://www.w3.org/2000/svg" fill="none" viewBox="0 0 24 24"><path fill="currentColor" fill-rule="evenodd" d="M12.006 3a1 1 0 0 1 1 1v6.5h.582c.176 0 .392 0 .568.022h.003c.127.016.703.088.977.653.275.567-.027 1.067-.092 1.176l-.002.004c-.093.153-.227.323-.337.464l-.024.03c-.294.376-.676.86-1.057 1.251-.19.196-.407.397-.638.556-.205.14-.555.344-.986.344s-.78-.203-.986-.344a4.4 4.4 0 0 1-.638-.556c-.38-.39-.763-.875-1.057-1.25l-.024-.03c-.11-.142-.244-.312-.337-.465l-.002-.004c-.065-.109-.367-.609-.092-1.176.274-.565.85-.637.977-.653h.003c.176-.022.392-.022.568-.022h.594V4a1 1 0 0 1 1-1m9.937 11.333a1 1 0 0 0-1.886-.665l-.234.662c-.462 1.31-.783 2.215-1.11 2.89-.316.65-.596.995-.928 1.23-.331.234-.75.384-1.468.465-.745.084-1.704.085-3.094.085h-2.445c-1.39 0-2.35-.001-3.094-.085-.72-.081-1.137-.231-1.469-.466-.331-.234-.612-.579-.927-1.23-.327-.674-.648-1.578-1.11-2.889l-.235-.662a1 1 0 0 0-1.886.665l.234.663.02.054c.438 1.243.795 2.255 1.177 3.042.399.822.865 1.49 1.572 1.99s1.492.718 2.4.82C8.33 21 9.402 21 10.72 21h2.56c1.319 0 2.391 0 3.261-.098.908-.102 1.693-.32 2.4-.82s1.173-1.168 1.571-1.99c.383-.787.74-1.799 1.178-3.042z" clip-rule="evenodd"/></svg>