<svg xmlns="http://www.w3.org/2000/svg" fill="none" viewBox="0 0 24 24"><path fill="currentColor" fill-rule="evenodd" d="M11.688 2.75A3.25 3.25 0 0 0 8.439 6c0 .84.288 1.592.776 2.16.32.358.717.645 1.167.834V5.53c0-.708.583-1.281 1.302-1.281s1.303.573 1.303 1.28v3.422a3.25 3.25 0 0 0 1.899-2.957c0-.803-.283-1.56-.76-2.144a3.24 3.24 0 0 0-2.438-1.101m1.299 7.8q.416-.123.797-.317l.071-.019v1.758a.43.43 0 0 1-.434.427.43.43 0 0 1-.434-.427zm-3.544-.341q.445.233.939.368V15.5a.43.43 0 0 1-.274.396.44.44 0 0 1-.475-.102l-1.596-1.65a1.37 1.37 0 0 0-1.995.111 1.26 1.26 0 0 0-.025 1.584l3.162 4.093c.73.944 1.056 1.363 1.444 1.687a4.9 4.9 0 0 0 2.108 1.023c.5.107 1.043.109 2.258.109 1.146 0 1.985 0 2.652-.041.663-.041 1.127-.122 1.523-.27a4.74 4.74 0 0 0 2.767-2.685c.151-.383.234-.83.276-1.474.043-.646.043-1.46.043-2.573V13.19c0-.782-.585-1.458-1.395-1.589l-.087-.014c-.375-.06-.562-.09-.685.012-.122.102-.122.289-.122.662v.73a.43.43 0 0 1-.435.428.43.43 0 0 1-.434-.427v-1.019c0-.883-.741-1.61-1.67-1.61-.255 0-.382 0-.472.062a.4.4 0 0 0-.084.083c-.063.088-.063.213-.063.463v1.002a.43.43 0 0 1-.435.427.43.43 0 0 1-.434-.427v-1.018c0-.66-.413-1.231-1.008-1.48A4.75 4.75 0 1 0 8.435 2.54a4.58 4.58 0 0 0-1.488 2.71H5.25V4a.75.75 0 0 0-1.237-.57L2.81 4.457a7 7 0 0 0-.661.61c-.19.212-.398.518-.398.933s.208.72.398.933c.172.193.413.398.661.61L4.013 8.57A.75.75 0 0 0 5.25 8V6.75h1.698a4.73 4.73 0 0 0 1.126 2.385c.348.407.77.754 1.25 1.02a1 1 0 0 0 .119.054" clip-rule="evenodd"/></svg>