<svg xmlns="http://www.w3.org/2000/svg" fill="none" viewBox="0 0 24 24"><path fill="currentColor" fill-rule="evenodd" d="M9.242 3.75a2.5 2.5 0 1 1 5 0v4.998c1.864.063 4.57.638 6.603 2.685.936.942.991 2.32.821 3.46-.176 1.177-.627 2.343-.999 3.12a66 66 0 0 0-.702 1.31c-.217.433-.33.777-.33 1.059 0 .265 0 .536-.018.739-.019.22-.06.46-.185.695-.165.312-.42.567-.732.732a1.8 1.8 0 0 1-.695.185c-.203.017-.447.017-.711.017h-5.586c-.307 0-.59 0-.827-.023-.256-.026-.719-.127-.98-.389-.27-.227-.42-.559-.527-.832-.113-.29-.232-.675-.376-1.137v-.003c-.11-.308-.346-.698-.945-1.49l-3.278-4.329a2.53 2.53 0 0 1-.006-3.101 2.4 2.4 0 0 1 3.503-.337l.97 1.015zm10.46 2.842A.75.75 0 0 1 18.492 6V5h-1.5a1 1 0 0 1 0-2h1.5v-.993a.75.75 0 0 1 1.21-.599l.082.062.123.094.01.007c.267.202.662.5 1.008.801.231.202.471.431.66.663.093.117.188.25.261.397.072.141.146.338.146.568s-.074.427-.146.568a2.2 2.2 0 0 1-.262.397 5.6 5.6 0 0 1-.659.663c-.346.302-.74.6-1.009.801l-.009.007-.123.094zM5.334 6.46a.75.75 0 0 1-1.052.132L4.2 6.53l-.123-.094-.009-.007c-.268-.202-.663-.5-1.009-.801a5.6 5.6 0 0 1-.659-.663 2.2 2.2 0 0 1-.262-.397A1.26 1.26 0 0 1 1.992 4c0-.23.074-.427.146-.568a2.2 2.2 0 0 1 .262-.397 6 6 0 0 1 .66-.663c.345-.302.74-.6 1.008-.801l.01-.007.122-.094.082-.062a.75.75 0 0 1 1.21.599V3h1.5a1 1 0 0 1 0 2h-1.5v1a.74.74 0 0 1-.158.46" clip-rule="evenodd"/></svg>