<svg xmlns="http://www.w3.org/2000/svg" fill="none" viewBox="0 0 24 24"><path fill="currentColor" fill-rule="evenodd" d="M6 22v-2.25h12V22a1 1 0 1 0 2 0v-7a1 1 0 1 0 0-2h-1V8A7 7 0 1 0 5 8v5H4a1 1 0 1 0 0 2v7a1 1 0 1 0 2 0m1-9V8a5 5 0 0 1 10 0v5zm3.75 3.5a.75.75 0 0 1 .75-.75h1a.75.75 0 0 1 0 1.5h-1a.75.75 0 0 1-.75-.75m.78-12.03a.75.75 0 0 1 0 1.06l-1 1a.75.75 0 1 1-1.06-1.06l1-1a.75.75 0 0 1 1.06 0m2 1a.75.75 0 0 1 0 1.06l-2 2a.75.75 0 1 1-1.06-1.06l2-2a.75.75 0 0 1 1.06 0" clip-rule="evenodd"/></svg>