<svg xmlns="http://www.w3.org/2000/svg" fill="none" viewBox="0 0 24 24"><path fill="currentColor" fill-rule="evenodd" d="M7 3.75a.75.75 0 0 0-.75.75.75.75 0 1 1-1.5 0 2.25 2.25 0 0 1 4.5 0c0 .996-.704 1.484-1.083 1.738l-.07.046c-.174.111-.34.218-.34.456L7.75 8.382c0 .072.074.121.142.095.88-.34 2.018-.363 3.231.38.476.292.86.707 1.136 1.204.078.142.117.212.098.29-.02.076-.098.126-.254.225-1.772 1.125-2.574 3.247-2.296 5.32q.063.477.197.95c.035.127.053.19.036.246s-.065.096-.16.176q-.285.24-.604.477c-.69.512-1.378 1.005-2.276 1.005s-1.586-.493-2.277-1.005c-2.15-1.592-3.208-3.4-3.43-5.048-.219-1.633.402-3.114 1.583-3.84 1.213-.743 2.352-.72 3.232-.38a.103.103 0 0 0 .142-.094V6.5c0-.473.225-.813.46-1.043.175-.17.4-.318.552-.419l.07-.046c.37-.248.418-.34.418-.492A.75.75 0 0 0 7 3.75m10 3a.75.75 0 0 0-.75.75.75.75 0 0 1-1.5 0 2.25 2.25 0 0 1 4.5 0c0 .996-.704 1.484-1.083 1.738-.203.136-.418.29-.418.56v1.585c0 .072.075.12.142.095.88-.34 2.019-.364 3.232.38 1.181.724 1.802 2.205 1.583 3.84-.221 1.648-1.28 3.455-3.43 5.047-.69.512-1.378 1.005-2.276 1.005s-1.586-.493-2.277-1.005c-2.15-1.592-3.208-3.4-3.43-5.048-.219-1.633.402-3.114 1.583-3.84 1.213-.743 2.352-.72 3.232-.38a.103.103 0 0 0 .142-.094V9.5c0-.473.225-.813.46-1.043.085-.082.223-.168.37-.26.313-.195.67-.418.67-.697a.75.75 0 0 0-.75-.75" clip-rule="evenodd"/></svg>