<svg xmlns="http://www.w3.org/2000/svg" fill="none" viewBox="0 0 24 24"><path fill="currentColor" fill-rule="evenodd" d="M12 2a1 1 0 0 1 1 1v9.1c0 .189 0 .283.059.341s.152.059.341.059H15a1 1 0 0 1 .805 1.593l-.008.01-.02.028-.076.1a28 28 0 0 1-1.15 1.425c-.336.387-.72.8-1.087 1.125a4 4 0 0 1-.592.447c-.18.108-.495.272-.872.272s-.691-.164-.872-.273a4 4 0 0 1-.592-.446 12 12 0 0 1-1.088-1.125 27 27 0 0 1-1.225-1.525l-.02-.027-.006-.008-.002-.003A1 1 0 0 1 9 12.5h1.6c.189 0 .283 0 .341-.059S11 12.29 11 12.1V3a1 1 0 0 1 1-1M5.451 15.893a1 1 0 1 0-.902-1.785C3.232 14.774 2 15.833 2 17.316c0 .864.432 1.591 1.012 2.153.577.558 1.36 1.015 2.245 1.378C7.033 21.574 9.417 22 12 22c2.582 0 4.967-.426 6.743-1.153.885-.363 1.668-.82 2.245-1.378.58-.562 1.012-1.29 1.012-2.153 0-1.483-1.232-2.542-2.549-3.208a1 1 0 0 0-.902 1.784c1.184.6 1.451 1.153 1.451 1.424 0 .154-.072.395-.403.716-.334.323-.869.66-1.612.964C16.504 19.602 14.388 20 12 20s-4.504-.398-5.985-1.004c-.743-.304-1.279-.641-1.612-.964-.331-.32-.403-.562-.403-.716 0-.271.267-.824 1.451-1.423" clip-rule="evenodd"/></svg>