<svg xmlns="http://www.w3.org/2000/svg" fill="none" viewBox="0 0 24 24"><path fill="currentColor" fill-rule="evenodd" d="M11 2a1 1 0 1 1 2 0v1h2.238c.783-.001 1.479-.002 2.1.296.622.3 1.056.843 1.544 1.455l.1.126 1.922 2.403.074.092c.362.45.682.85.853 1.337.17.486.17.999.17 1.577V14a1 1 0 1 1-2 0v-1H18a1 1 0 1 1 0-2h2v-.597c0-.762-.013-.908-.056-1.032s-.125-.246-.601-.842L17.42 6.126c-.65-.812-.79-.951-.948-1.027S16.118 5 15.078 5H13v2.31q.132.018.257.04c.364.065.798.183 1.111.424.314.242.473.554.57.868.085.274.139.611.195.963l.007.042.458 2.848.008.052c.074.46.143.888.144 1.241 0 .4-.083.833-.432 1.19-.205.21-.47.342-.702.429a4.6 4.6 0 0 1-.8.208c-.562.1-1.22.14-1.859.134s-1.288-.06-1.834-.162a5 5 0 0 1-.767-.203c-.214-.08-.475-.202-.674-.406-.35-.357-.433-.79-.432-1.19 0-.353.07-.781.144-1.24l.008-.053.458-2.848.007-.042c.056-.352.11-.689.195-.963.097-.314.256-.626.57-.868.305-.235.734-.35 1.089-.416q.136-.025.279-.044V5H8.923c-1.041 0-1.238.024-1.395.1-.157.075-.298.214-.948 1.026L4.658 8.53c-.477.596-.558.718-.601.842-.044.124-.057.27-.057 1.032V11h2a1 1 0 1 1 0 2H4v1a1 1 0 1 1-2 0v-3.714c0-.578-.001-1.09.17-1.577.17-.487.49-.886.852-1.337l.074-.092 1.922-2.403.1-.126c.489-.612.922-1.156 1.544-1.455C7.284 2.998 7.979 3 8.762 3H11zM9.58 16.5h4.862c.11 0 .206 0 .298.006a3 3 0 0 1 2.701 2.156l.007.022a1 1 0 1 1-1.897.632 4 4 0 0 0-.065-.189 1 1 0 0 0-.867-.625 4 4 0 0 0-.2-.002H13V21h6a1 1 0 1 1 0 2H5a1 1 0 1 1 0-2h6v-2.5H9.58c-.146 0-.176 0-.2.002a1 1 0 0 0-.867.625 4 4 0 0 0-.065.19 1 1 0 1 1-1.897-.633l.008-.023q.05-.154.099-.28a3 3 0 0 1 2.602-1.875c.091-.006.187-.006.297-.006z" clip-rule="evenodd"/></svg>