<svg xmlns="http://www.w3.org/2000/svg" fill="none" viewBox="0 0 24 24"><path fill="currentColor" fill-rule="evenodd" d="M9.189 3C5.997 3 3.577 5.711 3.09 9H2a1 1 0 0 0 0 2h1v2H2a1 1 0 1 0 0 2h1.09c.487 3.289 2.907 6 6.099 6 1.867 0 3.499-.957 4.603-2.39a1 1 0 1 0-1.584-1.22c-.792 1.026-1.873 1.61-3.02 1.61-1.851 0-3.619-1.601-4.075-4H8a1 1 0 1 0 0-2H5v-2h3a1 1 0 1 0 0-2H5.113C5.57 6.601 7.337 5 9.19 5c1.146 0 2.227.584 3.019 1.61a1 1 0 1 0 1.584-1.22C12.688 3.957 11.056 3 9.189 3M14 12.994a1 1 0 0 1 1-1h3.5v-.582c0-.176 0-.392.022-.568v-.003c.016-.127.088-.703.653-.977.567-.275 1.067.027 1.176.092l.004.002c.153.093.323.227.464.337l.03.024c.376.294.86.676 1.251 1.057.195.19.397.407.556.638.14.205.344.555.344.986s-.203.78-.344.986c-.16.231-.36.448-.556.638-.39.38-.875.762-1.25 1.057l-.03.024c-.142.11-.312.244-.465.337l-.004.002c-.109.065-.609.367-1.176.092-.565-.274-.637-.85-.653-.976v-.004c-.022-.176-.022-.392-.022-.568v-.594H15a1 1 0 0 1-1-1" clip-rule="evenodd"/></svg>