<svg xmlns="http://www.w3.org/2000/svg" fill="none" viewBox="0 0 24 24"><path fill="currentColor" fill-rule="evenodd" d="M6.75 2a.75.75 0 0 0-1.5 0v.75H3a.75.75 0 0 0 0 1.5h.375v4.5H3a.75.75 0 0 0 0 1.5h2.25V11a.75.75 0 0 0 1.5 0v-.75h1.125c1.036 0 1.875-.84 1.875-1.875v-.75c0-.422-.14-.812-.375-1.125.236-.313.375-.703.375-1.125v-.75c0-1.036-.84-1.875-1.875-1.875H6.75zM4.875 5.75v-1.5h3c.207 0 .375.168.375.375v.75a.375.375 0 0 1-.375.375zm0 1.5h3c.207 0 .375.168.375.375v.75a.375.375 0 0 1-.375.375h-3zm13.125 5c.273 0 .527.125.678.334l2.931 4.045L18 17.828l-3.609-1.2 2.93-4.044a.84.84 0 0 1 .68-.334m.277 7.08 3.473-1.153-3.072 4.239a.84.84 0 0 1-.678.334.84.84 0 0 1-.678-.334l-3.072-4.24 3.473 1.155c.18.06.375.06.554 0M15.722 5.848C14.697 5.75 13.426 5.75 12 5.75a.75.75 0 0 1 0-1.5h.028c1.393 0 2.732 0 3.834.103.557.052 1.08.133 1.536.263.449.128.888.319 1.228.628.57.519.866 1.08 1.003 1.862.121.693.121 1.6.121 2.812V10a.75.75 0 0 1-1.085.67l-2-1a.75.75 0 1 1 .67-1.34l.91.454c-.009-.623-.032-1.067-.094-1.42-.083-.477-.226-.73-.534-1.01-.1-.09-.292-.2-.63-.296a7 7 0 0 0-1.265-.211M5.335 13.329A.75.75 0 0 0 4.25 14v.082c0 1.213 0 2.119.121 2.812.137.782.432 1.343 1.003 1.862.34.309.78.5 1.229.628a8.7 8.7 0 0 0 1.535.263c1.102.103 2.441.103 3.834.103H12a.75.75 0 0 0 0-1.5c-1.426 0-2.697 0-3.722-.097a7 7 0 0 1-1.264-.211c-.34-.097-.531-.205-.63-.296-.309-.28-.452-.533-.535-1.01-.062-.353-.085-.797-.094-1.42l.91.455a.75.75 0 1 0 .67-1.342z" clip-rule="evenodd"/></svg>