<svg xmlns="http://www.w3.org/2000/svg" fill="none" viewBox="0 0 24 24"><path fill="currentColor" fill-rule="evenodd" d="M9.04 14.96c-.443-.443-1.046-.643-1.79-.89-.509-.17-1.113-.37-1.485-.453-.398-.089-.785-.121-1.195-.025-.41.097-.741.3-1.057.556-.256.208-.532.478-.846.791l-.137-.136a.75.75 0 1 0-1.06 1.06l6.666 6.667a.75.75 0 0 0 1.061-1.06l-.136-.137c.313-.314.583-.59.79-.846.257-.316.46-.648.557-1.057.096-.41.064-.797-.025-1.195-.083-.372-.284-.976-.453-1.485-.247-.744-.447-1.347-.89-1.79m6.824-13.49a.75.75 0 0 0-1.061 1.06l.136.137c-.313.314-.583.59-.79.846-.257.316-.46.648-.557 1.057-.096.41-.064.797.025 1.195.083.372.284.976.453 1.485.247.744.447 1.347.89 1.79s1.046.643 1.79.89c.509.17 1.113.37 1.485.453.398.089.785.121 1.195.025.41-.097.741-.3 1.057-.557.256-.207.532-.477.846-.79l.137.136a.75.75 0 1 0 1.06-1.06zm-5.081 15.512a.75.75 0 0 1 .092-1.056 3.4 3.4 0 0 1 1.111-.627l.012-.005c.4-.125.582-.272.682-.388.113-.13.202-.338.303-.606.09-.24.222-.592.47-.91.29-.371.698-.657 1.278-.846.287-.093.426-.185.496-.247a.5.5 0 0 0 .136-.201c.02-.051.056-.161.081-.242.02-.067.046-.15.073-.23.074-.218.188-.486.409-.75a.75.75 0 0 1 1.148.965.8.8 0 0 0-.138.27c-.018.052-.055.176-.074.237a4 4 0 0 1-.112.32 2 2 0 0 1-.528.753c-.265.235-.604.414-1.026.551-.339.11-.48.24-.56.343-.101.13-.16.279-.27.573-.101.266-.247.649-.55 1-.316.365-.753.646-1.362.838a1.9 1.9 0 0 0-.615.35.75.75 0 0 1-1.056-.092m-1.3-2.588a.75.75 0 0 1 .123-1.054c.29-.23.637-.392 1.015-.467l.006-.002c.116-.022.22-.132.498-.678.216-.426.612-1.206 1.555-1.387.084-.046.115-.117.156-.21q.028-.07.074-.155c.021-.057.047-.125.09-.23.071-.173.174-.395.34-.605a.75.75 0 0 1 1.177.93c-.038.049-.078.12-.13.246-.041.108-.143.37-.186.466-.082.182-.205.41-.411.61-.217.21-.49.353-.82.42h-.007c-.162.032-.299.2-.562.716-.204.407-.59 1.177-1.49 1.35a.9.9 0 0 0-.374.173.75.75 0 0 1-1.054-.123m-2.711-1.93a.75.75 0 0 0 1.405.502c.73-.204 1.475-.655 1.768-1.046.261-.348.397-.722.49-.98.107-.293.182-.468.267-.564.06-.067.183-.171.528-.236.457-.069.84-.222 1.139-.487a1.84 1.84 0 0 0 .524-.842c.039-.12.135-.485.157-.577.04-.123.07-.154.087-.17a.75.75 0 0 0-.988-1.128 1.8 1.8 0 0 0-.527.839c-.038.118-.134.485-.156.576-.04.124-.071.161-.094.181s-.136.092-.4.13c-.607.111-1.06.347-1.39.716-.296.333-.438.723-.533.985l-.007.02c-.108.296-.176.477-.297.637-.102.136-.27.291-.624.424a6 6 0 0 0-.51.124 1.3 1.3 0 0 0-.489.286 1.2 1.2 0 0 0-.35.61" clip-rule="evenodd"/></svg>