<svg xmlns="http://www.w3.org/2000/svg" fill="none" viewBox="0 0 24 24"><path fill="currentColor" fill-rule="evenodd" d="M11.47 1.25h1.06c1.724 0 3.1 0 4.178.154 1.117.16 2.024.497 2.736 1.254.705.75 1.015 1.694 1.162 2.859.144 1.136.144 2.59.144 4.43v4.107a.197.197 0 0 1-.197.196H3.447a.197.197 0 0 1-.197-.197V9.948c0-1.84 0-3.294.144-4.43.147-1.165.457-2.11 1.163-2.86.711-.756 1.618-1.093 2.735-1.253 1.079-.154 2.454-.154 4.178-.154m9.186 14.59c.089.09.086.232.08.516a21 21 0 0 1-.13 2.127c-.147 1.165-.457 2.11-1.163 2.86-.711.756-1.619 1.093-2.735 1.253-1.079.154-2.454.154-4.178.154h-1.06c-1.724 0-3.1 0-4.178-.154-1.117-.16-2.024-.497-2.735-1.254-.706-.75-1.016-1.694-1.163-2.859a21 21 0 0 1-.13-2.127c-.006-.284-.009-.426.08-.516.088-.09.23-.09.517-.09h16.278c.286 0 .43 0 .517.09M7.25 6A.75.75 0 0 1 8 5.25h2a.75.75 0 0 1 0 1.5H8A.75.75 0 0 1 7.25 6M8 8.25a.75.75 0 0 0 0 1.5h2a.75.75 0 0 0 0-1.5zM15 19a1 1 0 0 1 1-1h.009a1 1 0 1 1 0 2H16a1 1 0 0 1-1-1" clip-rule="evenodd"/></svg>