<svg xmlns="http://www.w3.org/2000/svg" fill="none" viewBox="0 0 24 24"><path fill="currentColor" fill-rule="evenodd" d="M21.52 6.424A.75.75 0 0 1 22.75 7v13.05c-.001.08-.004.433-.026.599-.029.219-.105.5-.34.735a1.24 1.24 0 0 1-.736.341c-.187.025-.409.025-.614.025h-8.348c-.243 0-.364 0-.424-.065-.059-.065-.047-.205-.022-.486a2.2 2.2 0 0 0-.009-.486l-1.379-10.74c-.015-.116-.022-.175 0-.225s.07-.085.166-.153l4.55-3.208a.75.75 0 0 1 1.18.613l.002 2.54c.001.369.001.553.116.607s.257-.064.54-.3zM16 14.25h-1a.75.75 0 0 0 0 1.5h1a.75.75 0 0 0 0-1.5m4 0h-1a.75.75 0 0 0 0 1.5h1a.75.75 0 0 0 0-1.5M8.882 6.8c.057.05.067.132.09.299l1.771 13.805a.753.753 0 0 1-.744.846H3.022c-.234 0-.48 0-.686-.029-.236-.032-.545-.118-.789-.392-.246-.275-.294-.593-.297-.834-.003-.206.03-.45.058-.68L2.941 7.1c.021-.167.032-.25.09-.3.055-.05.14-.05.307-.05h5.237c.167 0 .251 0 .308.05M4.02 2.765c.52-.454 1.23-.516 1.936-.516.707 0 1.417.062 1.936.516.521.455.671 1.15.76 1.839l.024.194c.027.21.041.315-.019.383s-.166.068-.377.068H3.633c-.212 0-.318 0-.378-.068-.059-.068-.046-.173-.019-.383l.025-.194c.09-.69.24-1.384.76-1.84" clip-rule="evenodd"/></svg>