<svg xmlns="http://www.w3.org/2000/svg" fill="none" viewBox="0 0 24 24"><path fill="currentColor" fill-rule="evenodd" d="M11.148 1.219c.101.09.101.241.101.544V7.97c0 .292 0 .438-.094.527s-.237.08-.524.064c-2.31-.133-4.428-.603-5.753-1.358l-.744-.447c-.2-.12-.299-.18-.334-.283-.036-.104.005-.207.085-.413A7.4 7.4 0 0 1 5.78 3.273c1.287-1.18 2.963-1.865 4.833-2.091.29-.035.435-.053.536.037M3.478 8.26c.143-.063.307.035.635.232l.014.009c1.627.93 4.055 1.432 6.54 1.563.278.015.418.022.5.11.082.086.082.223.082.497v2.298c0 .292 0 .438-.094.527s-.237.08-.524.064c-2.222-.128-4.272-.569-5.607-1.278l-.022-.011-1.285-.629c-.129-.063-.194-.095-.237-.151-.043-.057-.056-.125-.081-.26a8.4 8.4 0 0 1-.149-1.542q0-.398.025-.779c.024-.367.036-.55.17-.632zm.715 5.484a.101.101 0 0 1 .139-.131c1.619.857 3.948 1.326 6.335 1.451.278.015.418.022.5.11.082.086.082.223.082.497v4.143c0 .337 0 .506-.124.596s-.272.041-.57-.056a7 7 0 0 1-1.696-.842 11.4 11.4 0 0 1-2.048-1.773c-.406 2-1.476 3.878-3.296 4.97a1 1 0 0 1-1.03-1.715C4.098 20.027 5 18.015 5 15.852q.001-.219.086-.405a14 14 0 0 1-.893-1.703m8.68 6.666c-.124-.09-.124-.259-.124-.596v-4.143c0-.274 0-.411.082-.498.083-.087.222-.094.5-.109 2.392-.126 4.727-.597 6.347-1.457a.097.097 0 0 1 .134.124 14 14 0 0 1-.898 1.715 1 1 0 0 1 .086.406c0 2.163.903 4.175 2.514 5.142a1 1 0 1 1-1.029 1.715c-1.82-1.092-2.89-2.971-3.296-4.97a11.3 11.3 0 0 1-2.049 1.773 7 7 0 0 1-1.697.842c-.297.097-.446.146-.57.056m7.664-8.99c-.041.055-.103.088-.226.153l-1.337.71c-1.335.709-3.384 1.149-5.606 1.277-.287.017-.43.025-.525-.064-.094-.089-.094-.235-.094-.527V10.67c0-.274 0-.411.082-.498.083-.087.222-.094.5-.109 2.485-.13 4.913-.634 6.54-1.563l.04-.024c.291-.192.438-.288.57-.248q.051.016.093.045c.112.083.124.25.147.585q.03.405.029.83c0 .485-.048.98-.137 1.477-.024.132-.036.198-.076.253m-.35-5c-.032.102-.126.164-.314.287l-.765.502c-1.326.75-3.438 1.218-5.74 1.351-.287.017-.43.025-.525-.064-.094-.089-.094-.235-.094-.527V1.755c0-.302 0-.453.1-.542.101-.09.245-.073.534-.04 1.873.218 3.55.904 4.839 2.088a7.4 7.4 0 0 1 1.88 2.76c.078.198.117.298.085.4" clip-rule="evenodd"/></svg>