<svg xmlns="http://www.w3.org/2000/svg" fill="none" viewBox="0 0 24 24"><path fill="currentColor" fill-rule="evenodd" d="M12.137 1.417c-.475-.168-.98-.168-1.55-.167-1.525 0-2.933 0-3.912.115-1.012.119-1.88.372-2.615.968q-.406.328-.733.737c-.593.738-.845 1.61-.963 2.629-.114.983-.114 2.22-.114 3.754v4.573c0 1.782 0 3.218.151 4.348.157 1.173.493 2.16 1.273 2.945s1.762 1.122 2.93 1.28c1.07.144 2.547.15 4.217.151-.496-.602-.673-1.279-.748-1.838C10 20.37 10 19.725 10 19.108s0-1.477.073-2.02c.084-.63.299-1.41.952-2.063.654-.653 1.433-.868 2.063-.952C13.63 14 14.275 14 14.892 14c.409 0 1.515 0 1.884.033.416.038.945.13 1.474.436.381.22.716.51.988.851a4 4 0 0 1 .51-.2q.003-.523.002-1.094v-3.474c0-.664.002-1.252-.222-1.796s-.64-.96-1.106-1.428l-4.783-4.807c-.403-.406-.76-.765-1.214-.984a3 3 0 0 0-.288-.12m4.814 7.197c.618.622.724.752.78.89-1.367 0-2.016 0-2.883-.117-.9-.121-1.658-.38-2.26-.982s-.86-1.36-.981-2.26c-.117-.865-.117-1.513-.117-2.875v-.008c.182.054.323.188.856.724zm-1.419 6.636h-.581c-.665 0-1.238 0-1.697.062-.492.066-.963.215-1.345.597s-.531.853-.597 1.345c-.062.459-.062 1.13-.062 1.795s0 1.238.062 1.697c.066.492.215.963.597 1.345s.853.531 1.345.597c.459.062 1.032.062 1.697.062h.581c.44 0 .82 0 1.13-.028.33-.03.656-.096.963-.273a2.26 2.26 0 0 0 .824-.824c.141-.245.209-.543.244-.823l1.235.835c.267.127.707.274 1.162.03.455-.243.576-.69.619-.983.041-.279.041-.635.041-1.004v-1.36c0-.369 0-.725-.041-1.004-.043-.292-.164-.74-.62-.984-.454-.243-.894-.096-1.161.03l-1.234.832c-.036-.278-.104-.573-.245-.819a2.25 2.25 0 0 0-.824-.824c-.307-.177-.633-.243-.962-.273-.312-.028-.69-.028-1.13-.028" clip-rule="evenodd"/></svg>