<svg xmlns="http://www.w3.org/2000/svg" fill="none" viewBox="0 0 24 24"><path fill="currentColor" fill-rule="evenodd" d="M7.34 22.646c.995.104 2.25.104 3.844.104l1.318-.002a1 1 0 0 0-.001-1.998h-1.73c-2.828 0-4.243 0-5.121-.879-.879-.878-.879-2.293-.879-5.12v-3.3c0-.517 0-.774.196-1.12.197-.345.314-.414.55-.554.385-.229.835-.36 1.316-.36q.219.001.483.014l.066.004c.155.007.323.015.492.018.38.008.823-.004 1.251-.119a2.42 2.42 0 0 0 1.71-1.708c.114-.429.126-.872.118-1.252a15 15 0 0 0-.019-.492l-.003-.066a11 11 0 0 1-.014-.483c0-.501.143-.97.39-1.366.142-.227.213-.34.552-.529.34-.188.592-.188 1.097-.188h.294c2.828 0 4.243 0 5.121.879.739.738.857 1.855.875 3.871l.002 1a1 1 0 0 0 2.002 0V7.791c0-.824 0-1.48-.035-2.013-.036-.544-.111-1.012-.286-1.453-.515-1.3-1.596-2.308-2.945-2.781-.841-.296-1.86-.295-3.495-.295h-.363c-2.965 0-4.657 0-6.036.484-2.215.777-3.98 2.429-4.818 4.543-.275.695-.4 1.448-.462 2.374-.06.913-.06 2.045-.06 3.503v2.621c0 1.494 0 2.682.111 3.626.114.972.355 1.778.9 2.463a5 5 0 0 0 1.01.951c.715.504 1.551.725 2.568.831M18.75 11.75a1 1 0 1 0-2 0v.256c-1.273.375-2.292 1.449-2.292 2.872 0 .747.219 1.518.895 2.061.627.504 1.475.667 2.397.667.755 0 1.107.138 1.261.258.098.076.239.237.239.759 0 .422-.144.613-.315.735-.22.158-.611.281-1.185.281-1.04 0-1.5-.645-1.5-1.016a1 1 0 0 0-2 0c0 1.494 1.152 2.537 2.5 2.887v.24a1 1 0 1 0 2 0v-.204c.48-.096.945-.272 1.35-.562.734-.526 1.15-1.344 1.15-2.361 0-.92-.276-1.766-1.011-2.338-.68-.528-1.577-.679-2.489-.679-.745 0-1.042-.144-1.145-.226-.052-.042-.147-.136-.147-.502 0-.445.455-1.017 1.292-1.017.742 0 1.204.467 1.279.874a1 1 0 1 0 1.967-.36c-.215-1.176-1.127-2.043-2.246-2.37z" clip-rule="evenodd"/></svg>