<svg xmlns="http://www.w3.org/2000/svg" fill="none" viewBox="0 0 24 24"><path fill="currentColor" fill-rule="evenodd" d="M3.25 11.264v3.282c0 1.533 0 2.77.114 3.753.118 1.018.37 1.89.963 2.63q.327.407.733.736c.735.596 1.603.85 2.615.968.98.115 2.387.115 3.912.115.57 0 1.075.001 1.55-.167q.147-.053.288-.12c.455-.219.811-.578 1.214-.983l4.783-4.808c.467-.469.882-.884 1.106-1.428s.223-1.132.222-1.796V9.972c0-1.782 0-3.218-.151-4.348-.157-1.173-.493-2.16-1.273-2.945s-1.763-1.121-2.93-1.28c-.859-.115-1.896-.143-3.129-.149a2.25 2.25 0 0 1-.426 2.589l-1.909 1.909 1.909 1.909a2.25 2.25 0 1 1-3.182 3.182L7.75 8.93l-1.909 1.909a2.25 2.25 0 0 1-2.591.425m14.701 4.118c.618-.622.724-.752.78-.89-1.367 0-2.016.001-2.883.117-.9.121-1.658.38-2.26.982s-.86 1.36-.981 2.26c-.117.865-.117 1.521-.117 2.883.182-.054.323-.188.856-.723zM4.957 1.542a1 1 0 0 0-1.414 1.415L6.336 5.75 3.543 8.543a1 1 0 0 0 1.414 1.414L7.75 7.164l2.793 2.793a1 1 0 0 0 1.414-1.414L9.164 5.75l2.793-2.793a1 1 0 0 0-1.414-1.414L7.75 4.336z" clip-rule="evenodd"/></svg>