<svg xmlns="http://www.w3.org/2000/svg" fill="none" viewBox="0 0 24 24"><path fill="currentColor" fill-rule="evenodd" d="M3.25 11.22v3.327c0 1.534 0 2.77.114 3.754.118 1.018.37 1.89.963 2.63.217.27.463.518.733.736.735.596 1.603.85 2.615.968.98.115 2.387.115 3.912.115.57 0 1.075.001 1.55-.167q.147-.052.288-.12c.455-.219.811-.578 1.214-.983l4.783-4.808c.467-.469.882-.884 1.106-1.428s.223-1.133.222-1.796V9.974c0-1.782 0-3.218-.151-4.348-.157-1.173-.493-2.16-1.273-2.945s-1.763-1.121-2.93-1.28c-1.123-.151-2.552-.151-4.325-.151-.63 0-1.234 0-1.801.007q.1.205.159.429.502.222.944.537a2.25 2.25 0 0 1 2.284 3.829 5.6 5.6 0 0 1 0 1.396 2.25 2.25 0 0 1-2.283 3.83q-.442.313-.945.536a2.251 2.251 0 0 1-4.357 0 5.4 5.4 0 0 1-.945-.537 2.25 2.25 0 0 1-1.877-.057m14.701 4.17c.618-.622.724-.752.78-.89-1.367 0-2.016 0-2.883.117-.9.121-1.658.38-2.26.982s-.86 1.36-.981 2.26c-.117.865-.117 1.521-.117 2.883.182-.055.323-.188.856-.724zm-8.7-13.14a1 1 0 1 0-2 0v.349a4.16 4.16 0 0 0-1.986 1.146l-.491-.302a1 1 0 0 0-1.046 1.705l.516.317a4.33 4.33 0 0 0 0 2.57l-.517.317a1 1 0 0 0 1.046 1.705l.492-.302a4.17 4.17 0 0 0 1.985 1.146v.349a1 1 0 1 0 2 0v-.349a4.17 4.17 0 0 0 1.986-1.146l.491.302a1 1 0 0 0 1.046-1.705l-.517-.317a4.34 4.34 0 0 0 0-2.57l.517-.317a1 1 0 1 0-1.046-1.705l-.492.302A4.17 4.17 0 0 0 9.25 2.599zm-3.2 4.5c0-1.277 1.005-2.273 2.2-2.273 1.193 0 2.2.996 2.2 2.273s-1.007 2.273-2.2 2.273c-1.195 0-2.2-.996-2.2-2.273" clip-rule="evenodd"/></svg>