<svg xmlns="http://www.w3.org/2000/svg" fill="none" viewBox="0 0 24 24"><path fill="currentColor" fill-rule="evenodd" d="M3.25 9.964v4.583c0 1.534 0 2.77.114 3.754.118 1.018.37 1.89.963 2.63.217.27.463.518.733.736.735.596 1.603.85 2.615.968.98.115 2.387.115 3.912.115.57 0 1.075.001 1.55-.167q.147-.052.288-.12c.455-.219.811-.578 1.214-.983l4.783-4.808c.467-.469.882-.884 1.106-1.428s.223-1.133.222-1.796V9.974c0-1.782 0-3.218-.151-4.348-.157-1.173-.493-2.16-1.273-2.945s-1.763-1.121-2.93-1.28c-1.123-.151-2.552-.151-4.325-.151h-.741a5.74 5.74 0 0 1 2.17 4.5 5.74 5.74 0 0 1-1.684 4.066A5.74 5.74 0 0 1 7.75 11.5a5.74 5.74 0 0 1-4.5-2.17zm14.701 5.426c.618-.622.724-.752.78-.89-1.367 0-2.016 0-2.883.117-.9.121-1.658.38-2.26.982s-.86 1.36-.981 2.26c-.117.865-.117 1.521-.117 2.883.182-.055.323-.188.856-.724zM4.568 2.568a4.5 4.5 0 1 1 6.364 6.364 4.5 4.5 0 0 1-6.364-6.364m5.51 4.096a2.5 2.5 0 0 0-3.242-3.242zM8.664 8.078 5.422 4.836a2.5 2.5 0 0 0 3.242 3.242" clip-rule="evenodd"/></svg>