<svg xmlns="http://www.w3.org/2000/svg" fill="none" viewBox="0 0 24 24"><path fill="currentColor" fill-rule="evenodd" d="M13.137 1.417c-.475-.168-.98-.168-1.55-.167-1.525 0-2.933 0-3.912.115-1.012.119-1.88.372-2.615.968q-.406.328-.733.737c-.593.738-.845 1.61-.963 2.629-.114.983-.114 2.22-.114 3.754v4.573c0 1.782 0 3.218.151 4.348.157 1.173.493 2.16 1.273 2.945s1.762 1.122 2.93 1.28c1.07.144 2.547.15 4.217.151l-.534-.479c-.309-.277-.685-.614-.972-.95-.34-.4-.815-1.094-.815-2.071s.475-1.67.816-2.07c.286-.337.662-.674.971-.95v-.001l1.288-1.154a2.25 2.25 0 0 1 3.175.17c.83-.922 2.25-1 3.175-.17l1.288 1.154c.16.143.337.302.51.468.027-.787.027-1.675.027-2.67v-3.475c0-.664.002-1.252-.222-1.796s-.64-.96-1.106-1.428l-4.783-4.807c-.403-.406-.76-.765-1.214-.984a3 3 0 0 0-.288-.12m4.814 7.197c.618.622.724.752.78.89-1.367 0-2.016 0-2.883-.117-.9-.121-1.658-.38-2.26-.982s-.86-1.36-.981-2.26c-.117-.865-.117-1.513-.117-2.875v-.008c.182.054.323.188.856.724zm-3.207 8.88a1 1 0 1 0-1.335-1.489l-1.211 1.086-.042.038c-.335.3-.658.59-.889.86-.255.3-.517.712-.517 1.261s.262.96.517 1.26c.23.271.554.56.889.86l.042.039 1.211 1.086a1 1 0 1 0 1.335-1.49l-1.211-1.085c-.364-.327-.577-.52-.711-.67.134-.15.347-.343.711-.67zm3.347-1.489a1 1 0 0 0-1.335 1.49l1.211 1.085c.364.327.577.52.711.67-.134.15-.347.343-.711.67l-1.211 1.085a1 1 0 1 0 1.335 1.49l1.211-1.086.042-.038c.335-.3.658-.59.889-.86.255-.3.517-.712.517-1.261s-.262-.96-.517-1.26c-.23-.271-.554-.56-.889-.86l-.042-.039z" clip-rule="evenodd"/></svg>