<svg xmlns="http://www.w3.org/2000/svg" fill="none" viewBox="0 0 24 24"><path fill="currentColor" fill-rule="evenodd" d="M2.707 1.293a1 1 0 0 0-1.414 1.414L3.52 4.935a9 9 0 0 0-.12.69c-.151 1.13-.151 2.567-.151 4.349v4.573c0 1.534 0 2.77.114 3.754.118 1.018.37 1.89.963 2.63.217.27.463.518.733.736.735.596 1.603.85 2.615.968.98.115 2.387.115 3.912.115.57 0 1.075.001 1.55-.167q.147-.052.288-.12c.455-.219.811-.578 1.214-.983l2.706-2.72 3.948 3.947a1 1 0 0 0 1.414-1.414zM15.966 17.38l-2.062-2.061q-.165.123-.316.274c-.602.602-.86 1.36-.981 2.26-.117.865-.117 1.522-.117 2.883.182-.054.323-.188.856-.723zm3.844-1.105c.303-.322.558-.644.718-1.031.224-.544.223-1.133.222-1.796V9.974c0-1.782 0-3.218-.151-4.348-.157-1.173-.493-2.16-1.273-2.945s-1.763-1.121-2.93-1.28c-1.123-.151-2.552-.151-4.325-.151s-3.344 0-4.468.152c-.764.103-1.449.283-2.05.616z" clip-rule="evenodd"/></svg>