<svg xmlns="http://www.w3.org/2000/svg" fill="none" viewBox="0 0 24 24"><path fill="currentColor" fill-rule="evenodd" d="M11.587 22.75c.57 0 1.075.001 1.55-.167q.147-.052.288-.12c.455-.219.811-.578 1.214-.983l4.783-4.808c.467-.469.882-.884 1.106-1.428s.223-1.133.222-1.796V9.974c0-1.782 0-3.218-.151-4.348-.157-1.173-.493-2.16-1.273-2.945s-1.763-1.121-2.93-1.28c-1.123-.151-2.552-.151-4.325-.151s-3.344 0-4.468.152c-1.167.158-2.149.495-2.93 1.28l-.066.068h7.643a2.25 2.25 0 0 1 0 4.5H3.278c-.028.8-.028 1.705-.028 2.724v4.573c0 1.534 0 2.77.114 3.754.118 1.018.37 1.89.963 2.63.217.27.463.518.733.736.735.596 1.603.85 2.615.968.98.115 2.387.115 3.912.115m6.364-7.36c.618-.622.724-.752.78-.89-1.367 0-2.016 0-2.883.117-.9.121-1.658.38-2.26.982s-.86 1.36-.981 2.26c-.117.865-.117 1.521-.117 2.883.182-.055.323-.188.856-.724zM4.25 4a1 1 0 0 0 0 2h8a1 1 0 1 0 0-2z" clip-rule="evenodd"/></svg>