<svg xmlns="http://www.w3.org/2000/svg" fill="none" viewBox="0 0 24 24"><path fill="currentColor" fill-rule="evenodd" d="M3.25 10.497v4.05c0 1.534 0 2.77.114 3.754.118 1.018.37 1.89.963 2.63.217.27.463.518.733.736.735.596 1.603.85 2.615.968.98.115 2.387.115 3.912.115.57 0 1.075.001 1.55-.167q.147-.052.288-.12c.455-.219.811-.578 1.214-.983l4.783-4.808c.467-.469.882-.884 1.106-1.428s.223-1.133.222-1.796V9.974c0-1.782 0-3.218-.151-4.348-.157-1.173-.493-2.16-1.273-2.945s-1.763-1.121-2.93-1.28c-1.123-.151-2.552-.151-4.325-.151h-.731a5.68 5.68 0 0 1 2.16 4.462v2.807c0 2.223-1.816 3.981-4 3.981a4.01 4.01 0 0 1-3.677-2.41c-.406.396-.961.64-1.573.64a2.24 2.24 0 0 1-1-.233m14.701 4.893c.618-.622.724-.752.78-.89-1.367 0-2.016 0-2.883.117-.9.121-1.658.38-2.26.982s-.86 1.36-.981 2.26c-.117.865-.117 1.521-.117 2.883.182-.055.323-.188.856-.724zM5.25 5.711c0-1.35 1.109-2.462 2.5-2.462s2.5 1.112 2.5 2.462v2.807a.74.74 0 0 1-.75.731.74.74 0 0 1-.75-.73V5.711a1 1 0 1 0-2 0v2.807c0 1.519 1.242 2.731 2.75 2.731s2.75-1.212 2.75-2.73V5.711c0-2.475-2.025-4.462-4.5-4.462s-4.5 1.987-4.5 4.462V8.48a1 1 0 1 0 2 0z" clip-rule="evenodd"/></svg>