<svg xmlns="http://www.w3.org/2000/svg" fill="none" viewBox="0 0 24 24"><path fill="currentColor" fill-rule="evenodd" d="M2.75 16c0 1.373.738 2.574 1.84 3.227-.09-.886-.09-1.94-.09-3.097v-5.26c0-1.305 0-2.477.128-3.428.14-1.038.463-2.104 1.336-2.977.874-.873 1.94-1.197 2.978-1.337C9.892 3 11.065 3 12.369 3h2.262c1.157 0 2.21 0 3.096.089A3.75 3.75 0 0 0 14.5 1.25H9.445c-1.367 0-2.47 0-3.337.117-.9.12-1.658.38-2.26.981-.602.602-.86 1.36-.981 2.26-.117.867-.117 1.97-.117 3.337zm14.366 5.444c-.493.495-.884.886-1.392 1.097s-1.061.21-1.76.209c-1.368 0-3.989 0-4.856-.117-.9-.12-1.658-.38-2.26-.982-.602-.601-.86-1.36-.981-2.26-.117-.866-.117-1.969-.117-3.336v-5.11c0-1.368 0-2.47.117-3.337.12-.9.38-1.658.981-2.26.602-.602 1.36-.86 2.26-.982.867-.116 1.97-.116 3.337-.116h2.11c1.367 0 2.47 0 3.337.116.9.121 1.658.38 2.26.982s.86 1.36.982 2.26c.116.867.116 1.97.116 3.337v4.519c0 .699.001 1.251-.21 1.76-.21.508-.601.899-1.096 1.392zm-1.966-.29c.197-.081.37-.235.99-.856l2.658-2.657c.621-.621.775-.793.857-.991.067-.163.088-.348.093-.9h-.8c-.899 0-1.648 0-2.242.08-.628.084-1.195.27-1.65.725-.456.456-.642 1.023-.726 1.65-.08.595-.08 1.397-.08 2.295v.749c.552-.006.737-.027.9-.094M9.252 12c0 .414.336.75.75.75h4a.75.75 0 0 0 0-1.5h-4a.75.75 0 0 0-.75.75m0-4c0 .414.336.75.75.75h7a.75.75 0 0 0 0-1.5h-7a.75.75 0 0 0-.75.75" clip-rule="evenodd"/></svg>