<svg xmlns="http://www.w3.org/2000/svg" fill="none" viewBox="0 0 24 24"><path fill="currentColor" fill-rule="evenodd" d="M17.115 2.556c-.494-.495-.884-.886-1.393-1.097-.508-.21-1.061-.21-1.76-.209-1.367 0-3.989 0-4.856.117-.9.12-1.658.38-2.26.982-.602.601-.86 1.36-.981 2.26-.117.866-.117 1.969-.117 3.336v5.11c0 1.368 0 2.47.117 3.337.12.9.38 1.658.981 2.26.602.602 1.36.86 2.26.982.867.116 1.97.116 3.337.116h2.11c1.367 0 2.47 0 3.337-.116.9-.121 1.658-.38 2.26-.982s.86-1.36.982-2.26c.116-.867.116-1.97.116-3.337V8.536c0-.698.001-1.251-.21-1.76-.21-.508-.601-.899-1.096-1.392zm-1.967.288c.197.081.37.235.99.856l2.658 2.657c.621.622.775.794.857.992.067.162.088.348.093.9h-.8c-.898 0-1.648 0-2.242-.08-.628-.085-1.195-.27-1.65-.726-.456-.455-.642-1.022-.726-1.65-.08-.595-.08-1.396-.08-2.295V2.75c.552.005.737.026.9.094M9.25 12a.75.75 0 0 1 .75-.75h4a.75.75 0 0 1 0 1.5h-4a.75.75 0 0 1-.75-.75m0 4a.75.75 0 0 1 .75-.75h7a.75.75 0 0 1 0 1.5h-7a.75.75 0 0 1-.75-.75M2.748 8c0-1.372.738-2.573 1.84-3.227-.09.887-.09 1.94-.09 3.097v5.262c0 1.305 0 2.477.128 3.428.14 1.038.463 2.104 1.337 2.977s1.939 1.197 2.977 1.337c.95.127 2.123.127 3.427.127h2.262c1.157 0 2.21 0 3.096-.089a3.75 3.75 0 0 1-3.227 1.839H9.443c-1.367 0-2.47 0-3.337-.117-.9-.12-1.658-.38-2.26-.982s-.86-1.36-.981-2.26c-.117-.866-.117-1.969-.117-3.336z" clip-rule="evenodd"/></svg>