<svg xmlns="http://www.w3.org/2000/svg" fill="none" viewBox="0 0 24 24"><path fill="currentColor" fill-rule="evenodd" d="M10 2.25c.966 0 1.75.784 1.75 1.75v16A1.75 1.75 0 0 1 10 21.75H5A3.75 3.75 0 0 1 1.25 18V6A3.75 3.75 0 0 1 5 2.25zm8.972 0c2.087 0 3.778 1.746 3.778 3.9 0 .538-.423.975-.944.975-.522 0-.945-.437-.945-.975 0-1.077-.846-1.95-1.889-1.95-.521 0-.944-.437-.944-.975s.423-.975.944-.975m-2.833 0c.521 0 .944.437.944.975s-.422.975-.944.975h-1.945c-.521 0-.944-.437-.944-.975s.423-.975.944-.975zm4.722 7.8c0-.538.423-.975.945-.975.521 0 .944.437.944.975v3.9c0 .539-.423.975-.944.975-.522 0-.945-.437-.945-.975zm0 7.8c0-.539.423-.975.945-.975.521 0 .944.436.944.975 0 2.154-1.691 3.9-3.778 3.9-.521 0-.944-.436-.944-.975s.423-.975.944-.975c1.043 0 1.89-.873 1.89-1.95M16.14 19.8c.521 0 .944.436.944.975s-.422.975-.944.975h-1.945c-.521 0-.944-.436-.944-.975s.423-.975.944-.975z" clip-rule="evenodd"/></svg>