<svg xmlns="http://www.w3.org/2000/svg" fill="none" viewBox="0 0 24 24"><path fill="currentColor" fill-rule="evenodd" d="M13 3a1 1 0 1 0-2 0v3.5a1 1 0 1 0 2 0zm0 7a1 1 0 1 0-2 0v4a1 1 0 1 0 2 0zm0 7.5a1 1 0 1 0-2 0V21a1 1 0 1 0 2 0zm-4.512-6.927a1.708 1.708 0 0 1 0 2.845l-4.43 3.012c-1.127.767-2.808.048-2.808-1.422V8.983c0-1.47 1.681-2.189 2.809-1.422zm11.454-3.012c1.127-.767 2.808-.048 2.808 1.422v6.025c0 1.47-1.681 2.19-2.808 1.422l-4.43-3.012a1.708 1.708 0 0 1 0-2.844z" clip-rule="evenodd"/></svg>