<svg xmlns="http://www.w3.org/2000/svg" fill="none" viewBox="0 0 24 24"><path fill="currentColor" fill-rule="evenodd" d="M12.282 5.5H9.375c-.723 0-1.19.001-1.542.037-.335.034-.453.091-.514.131a1 1 0 0 0-.275.276c-.04.06-.098.179-.132.514-.024.234-.032.52-.035.898a4.752 4.752 0 0 1 0 9.288c.003.378.011.664.035.898.034.335.091.453.132.514a1 1 0 0 0 .275.276c.061.04.179.097.514.131.352.036.819.037 1.542.037h2.907a3.251 3.251 0 0 1 6.186 0h3.407a1 1 0 1 1 0 2h-3.407a3.251 3.251 0 0 1-6.186 0H9.326c-.66 0-1.23 0-1.695-.047-.494-.05-.979-.162-1.423-.458a3 3 0 0 1-.827-.828c-.297-.444-.409-.93-.459-1.423a12 12 0 0 1-.046-1.1 4.752 4.752 0 0 1 0-9.289c.004-.413.014-.78.046-1.1.05-.493.162-.978.459-1.422a3 3 0 0 1 .827-.828c.444-.296.93-.408 1.423-.458C8.096 3.5 8.666 3.5 9.326 3.5h2.956a3.251 3.251 0 0 1 6.186 0h3.407a1 1 0 0 1 0 2h-3.407a3.252 3.252 0 0 1-6.186 0" clip-rule="evenodd"/></svg>