<svg xmlns="http://www.w3.org/2000/svg" fill="none" viewBox="0 0 24 24"><path fill="currentColor" fill-rule="evenodd" d="M7.083 1.75c1.029 0 1.74 0 2.38.239 1.395.523 2.007 1.762 2.48 2.717.14.283.398.797.47.91a.26.26 0 0 0 .193.12c.134.013.314.014.63.014h3.555c1.018 0 1.84 0 2.5.067.68.07 1.27.216 1.792.565.41.274.761.625 1.035 1.035.349.522.496 1.112.565 1.793.067.659.067 1.563.067 2.582 0 .107 0 .161-.003.18-.029.222-.224.328-.426.232a3 3 0 0 1-.18-.114l-.117-.073c-1.555-.942-3.08-.917-4.276-.462-.128.049-.193.073-.248.073s-.119-.024-.247-.073c-1.197-.455-2.721-.48-4.277.462-1.7 1.03-2.437 3.028-2.172 4.983.16 1.183.669 2.35 1.51 3.438.205.266.308.4.315.489a.29.29 0 0 1-.134.274c-.075.05-.234.05-.552.05-2.309 0-4.118 0-5.53-.19-1.444-.195-2.584-.6-3.479-1.495s-1.3-2.035-1.494-3.48c-.19-1.411-.19-3.22-.19-5.528V7.41c0-.88 0-1.588.05-2.16.052-.59.162-1.106.425-1.577a3.75 3.75 0 0 1 1.448-1.448c.47-.263.987-.373 1.577-.424.572-.05 1.454-.051 2.333-.051M17.48 13.373c-.842-.625-2.225-.983-3.728-.072-1.094.662-1.664 2.015-1.463 3.498.203 1.496 1.173 3.12 3.12 4.544.626.458 1.238.907 2.09.907.85 0 1.464-.449 2.09-.907 1.946-1.423 2.916-3.048 3.12-4.544.2-1.483-.37-2.836-1.464-3.498-1.503-.911-2.886-.553-3.728.072z" clip-rule="evenodd"/></svg>