<svg xmlns="http://www.w3.org/2000/svg" fill="none" viewBox="0 0 24 24"><path fill="currentColor" fill-rule="evenodd" d="M7.083 2.25c1.029 0 1.74 0 2.38.239 1.395.523 2.007 1.762 2.48 2.717.14.283.398.797.47.91a.26.26 0 0 0 .193.12c.134.013.314.014.63.014h3.555c1.018 0 1.84 0 2.5.067.68.07 1.27.216 1.792.565.41.274.761.625 1.035 1.035.349.522.496 1.112.565 1.793.067.659.067 1.563.067 2.582 0 1.383 0 2.525-.057 3.477-.248-.25-.544-.529-.881-.809C20.778 14.104 19.077 13 17 13s-3.778 1.104-4.812 1.96c-.525.435-1.42 1.43-1.754 1.803l-.037.04a2 2 0 0 0 0 2.393l.037.041c.335.373 1.23 1.368 1.754 1.803.275.228.597.473.96.71h-1.205c-2.309 0-4.118 0-5.53-.19-1.444-.194-2.584-.6-3.479-1.494-.895-.895-1.3-2.035-1.494-3.48-.19-1.411-.19-3.22-.19-5.528V7.91c0-.88 0-1.588.05-2.16.052-.59.162-1.106.425-1.577a3.75 3.75 0 0 1 1.448-1.448c.47-.263.987-.373 1.577-.424.572-.05 1.454-.051 2.333-.051m5.903 13.673c.953-.79 2.372-1.673 4.014-1.673s3.06.883 4.014 1.673c.487.403.88.806 1.15 1.107.132.146.349.413.43.512l.007.01a.75.75 0 0 1 0 .897l-.008.009c-.08.099-.297.366-.428.512a11 11 0 0 1-1.151 1.107c-.953.79-2.372 1.673-4.014 1.673s-3.061-.883-4.014-1.673a11 11 0 0 1-1.15-1.107l-.437-.521a.75.75 0 0 1 0-.898s.3-.37.436-.521c.271-.302.663-.704 1.15-1.107M15.5 18c0-.828.669-1.5 1.493-1.5h.014c.824 0 1.493.672 1.493 1.5s-.669 1.5-1.493 1.5h-.014A1.497 1.497 0 0 1 15.5 18" clip-rule="evenodd"/></svg>