<svg xmlns="http://www.w3.org/2000/svg" fill="none" viewBox="0 0 24 24"><path fill="currentColor" fill-rule="evenodd" d="M8.55 3.75c.444 0 .712 0 .914.02.184.016.237.041.256.051.057.03.14.098.257.281.09.143.159.28.247.458q.058.12.135.27l.016.031H8.019a1 1 0 0 0 0 2h7.787q.284-.001.543-.005c.505-.008.943-.015 1.373.052.525.082.841.253 1.049.556v.001c.007.014.042.088.08.266q.066.294.1.773c.028.376.04.799.045 1.252q-.522-.007-1.128-.006H6.132q-.594-.001-1.106.005V7.351c0-.255-.008-.495-.015-.727-.013-.458-.026-.885.019-1.335.065-.645.233-1.014.485-1.219.125-.102.326-.201.818-.259.512-.06 1.193-.061 2.218-.061M3.027 9.966V7.351c0-.14-.005-.314-.01-.507C3 6.33 2.98 5.672 3.04 5.089c.084-.837.344-1.861 1.21-2.568.542-.443 1.175-.617 1.85-.696.643-.075 1.442-.075 2.392-.075h.097c.393 0 .751 0 1.054.027.33.03.667.096 1.002.27.49.257.806.647 1.02.982a8 8 0 0 1 .394.73l.08.158.484.944h3.183q.178 0 .393-.005c.535-.009 1.215-.02 1.832.076.832.13 1.756.478 2.389 1.4.209.305.319.664.386.973.07.325.113.686.14 1.052.037.498.048 1.055.052 1.616.42.125.8.33 1.113.674q.082.09.155.187c.42.55.51 1.192.479 1.878-.03.657-.197 1.575-.376 2.565-.263 1.45-.472 2.603-.747 3.504-.284.929-.66 1.673-1.31 2.256a5 5 0 0 1-.255.214c-.689.536-1.487.775-2.45.889-.934.11-2.102.11-3.571.11H9.964c-1.469 0-2.637 0-3.571-.11-.963-.114-1.761-.353-2.45-.89a5 5 0 0 1-.255-.213c-.65-.583-1.026-1.327-1.31-2.256-.275-.901-.484-2.054-.747-3.504-.18-.99-.346-1.908-.375-2.565-.031-.686.059-1.327.478-1.878q.073-.097.155-.187c.318-.35.706-.556 1.137-.681" clip-rule="evenodd"/></svg>