<svg xmlns="http://www.w3.org/2000/svg" fill="none" viewBox="0 0 24 24"><path fill="currentColor" fill-rule="evenodd" d="M7.083 1.75c1.029 0 1.74 0 2.38.239 1.395.523 2.007 1.762 2.48 2.717.14.283.398.797.47.91a.26.26 0 0 0 .193.12c.134.013.314.014.63.014h3.555c1.018 0 1.84 0 2.5.067.68.07 1.27.216 1.792.565.41.274.761.625 1.035 1.035.349.522.496 1.112.565 1.793.067.659.067 1.563.067 2.582 0 .935 0 1.76-.017 2.491-.003.093-.142.123-.216.068-.022-.016-.02-.027-.019-.046l.002-.024c-.03-2.356-1.89-4.031-4-4.031-2.038 0-3.843 1.428-3.99 3.776-.01.158-.015.237-.043.292-.029.056-.091.107-.215.21a4.1 4.1 0 0 0-1.217 1.693c-.185.477-.24.93-.264 1.298-.021.333-.021.839-.021 1.227s0 .777.021 1.11c.01.157.033.348.07.551.077.418.116.627.026.735s-.283.108-.67.108h-.254c-2.309 0-4.118 0-5.53-.19-1.444-.194-2.584-.6-3.479-1.494-.895-.895-1.3-2.035-1.494-3.48-.19-1.411-.19-3.22-.19-5.528V7.41c0-.88 0-1.588.05-2.16.052-.59.162-1.106.425-1.577a3.75 3.75 0 0 1 1.448-1.448c.47-.263.987-.373 1.577-.424.572-.05 1.454-.051 2.333-.051M16 14.188v1.061q-.113.034-.224.083a2.57 2.57 0 0 0-1.342 1.43 2.8 2.8 0 0 0-.166.852c-.018.285-.018.68-.018 1.097s0 .765.018 1.05c.02.297.06.578.166.852a2.57 2.57 0 0 0 1.342 1.43c.272.12.551.166.837.187.271.02.6.02.986.02H19.4c.386 0 .715 0 .986-.02.286-.02.565-.066.837-.187a2.57 2.57 0 0 0 1.342-1.43c.106-.274.147-.555.166-.852.018-.285.018-.633.018-1.05s0-.812-.018-1.097a2.8 2.8 0 0 0-.166-.852 2.57 2.57 0 0 0-1.342-1.43A2 2 0 0 0 21 15.25v-1.062c0-1.371-1.145-2.437-2.5-2.437S16 12.816 16 14.188m2.5-.938c-.578 0-1 .445-1 .938v.937h2v-.937c0-.493-.422-.938-1-.938" clip-rule="evenodd"/></svg>