<svg xmlns="http://www.w3.org/2000/svg" fill="none" viewBox="0 0 24 24"><path fill="currentColor" fill-rule="evenodd" d="M6.958 1.625c1.029 0 1.74 0 2.38.239 1.395.523 2.007 1.762 2.48 2.717.14.283.398.797.47.91a.26.26 0 0 0 .193.12c.134.013.314.014.63.014h3.555c1.018 0 1.84 0 2.5.067.68.07 1.27.216 1.792.565.41.274.761.625 1.035 1.035.349.522.496 1.112.565 1.793.067.659.067 1.563.067 2.582v.563c0 .301 0 .452-.068.535a.3.3 0 0 1-.043.043c-.083.067-.268.067-.639.067h-8a2.5 2.5 0 0 0-2.237 3.617c.104.208.156.312.156.383s-.052.175-.156.383a2.5 2.5 0 0 0-.263 1.117c0 .402.095.781.263 1.117.104.208.156.312.156.383s-.052.175-.156.383q-.08.162-.139.336c-.09.278-.136.417-.215.474-.08.057-.2.057-.44.056-1.852-.003-3.349-.026-4.555-.189-1.445-.194-2.585-.6-3.48-1.494-.895-.895-1.3-2.035-1.494-3.48-.19-1.411-.19-3.22-.19-5.529V7.285c0-.88 0-1.588.05-2.16.052-.59.162-1.106.425-1.577A3.75 3.75 0 0 1 3.048 2.1c.47-.263.987-.373 1.577-.424.572-.05 1.454-.051 2.333-.051m6.917 12.75a1 1 0 1 0 0 2h8a1 1 0 1 0 0-2zm0 3a1 1 0 1 0 0 2h8a1 1 0 1 0 0-2zm0 3a1 1 0 1 0 0 2h4a1 1 0 0 0 0-2z" clip-rule="evenodd"/></svg>