<svg xmlns="http://www.w3.org/2000/svg" fill="none" viewBox="0 0 24 24"><path fill="currentColor" fill-rule="evenodd" d="M7.083 2.453c1.029 0 1.74 0 2.38.239 1.395.523 2.007 1.762 2.48 2.718.14.282.398.796.47.909a.26.26 0 0 0 .193.12c.134.013.314.014.63.014h3.555c1.018 0 1.84 0 2.5.067.68.07 1.27.216 1.792.565.41.274.761.625 1.035 1.035.349.522.496 1.112.565 1.793.067.659.067 1.563.067 2.582 0 1.353 0 2.476-.053 3.416a2.26 2.26 0 0 0-1.697-.08v-2.878a2.25 2.25 0 0 0-4.5 0v2.878a2.25 2.25 0 0 0-2.41 3.642l1.35 1.662c.21.25.456.527.723.79-.822.028-1.77.028-2.87.028h-1.35c-2.309 0-4.118 0-5.53-.19-1.444-.194-2.584-.6-3.479-1.494-.895-.895-1.3-2.035-1.494-3.48-.19-1.411-.19-3.22-.19-5.528V8.113c0-.879 0-1.588.05-2.16.052-.59.162-1.106.425-1.577a3.75 3.75 0 0 1 1.448-1.447c.47-.263.987-.373 1.577-.425.572-.05 1.454-.05 2.333-.05m12.667 10.5a1 1 0 1 0-2 0v5.878a34 34 0 0 1-.56-.703l-.054-.068a11 11 0 0 0-.669-.804 1 1 0 0 0-1.434 1.394c.102.105.273.318.53.646l.057.072c.228.29.496.632.773.96.297.35.631.716.968 1.003.17.144.362.288.571.4.202.108.485.222.818.222s.616-.114.818-.222a3.3 3.3 0 0 0 .57-.4 9 9 0 0 0 .969-1.004c.277-.327.545-.669.773-.96l.057-.071c.257-.328.428-.541.53-.646a1 1 0 0 0-1.434-1.394c-.193.199-.44.512-.669.804l-.053.068c-.18.229-.368.469-.561.703z" clip-rule="evenodd"/></svg>