<svg xmlns="http://www.w3.org/2000/svg" fill="none" viewBox="0 0 24 24"><path fill="currentColor" d="M9.524 3.717C10.2 2.867 10.964 2.25 12 2.25s1.8.616 2.476 1.467c.661.833 1.364 2.055 2.243 3.584l3.824 6.649c.834 1.45 1.505 2.615 1.872 3.558.375.964.517 1.904-.007 2.765-.519.851-1.42 1.18-2.462 1.33-1.027.147-2.403.147-4.125.147h-.82c-.472 0-.708 0-.854-.146C14 21.457 14 21.22 14 20.75v-.362c0-.409 0-.613.076-.797s.221-.329.51-.618l2.445-2.443a.75.75 0 1 0-1.061-1.06l-1.287 1.287c-.29.29-.436.436-.56.384-.123-.05-.123-.256-.123-.667v-.666c0-.123 0-.184.023-.24.023-.054.066-.098.153-.185l1.355-1.353a.75.75 0 1 0-1.061-1.06l-.47.415v-.945c-.001-.552-.032-1.118-.823-1.364C12.932 11 12.621 11 12 11s-.932 0-1.177.076c-.82.255-.823.854-.823 1.424v1.973c0 .411 0 .617-.123.668-.124.051-.27-.094-.56-.385l-.786-.786a.75.75 0 0 0-1.061 1.06l1.944 1.943c.29.29.434.434.51.617.076.184.076.389.076.798v2.362c0 .471 0 .707-.146.854-.147.146-.382.146-.854.146h-.82c-1.723 0-3.099 0-4.126-.147-1.041-.15-1.943-.479-2.461-1.33-.525-.86-.382-1.801-.007-2.765.367-.943 1.037-2.108 1.871-3.558L7.281 7.3c.879-1.528 1.582-2.75 2.243-3.583"/></svg>