<svg xmlns="http://www.w3.org/2000/svg" fill="none" viewBox="0 0 24 24"><path fill="currentColor" fill-rule="evenodd" d="M11.829 1.25h-.043c-.394 0-.76 0-1.057.038-.327.043-.684.143-.981.43-.302.29-.411.644-.457.973-.041.292-.041.648-.041 1.025v1.189l-.376-.766-.02-.04c-.198-.404-.379-.773-.564-1.05-.203-.302-.479-.602-.912-.735-.435-.134-.832-.038-1.167.104-.305.129-.652.337-1.03.562l-.04.024-.22.132-.039.023c-.36.215-.691.413-.94.612-.278.221-.536.506-.643.922-.108.414-.022.789.108 1.118.12.3.31.641.518 1.014l.021.038L5.29 9.27a5 5 0 0 0-.45-.02l-1.477.009a1.25 1.25 0 0 0-1.096 1.437l2.255 7.908c.24.84.44 1.534.668 2.077.24.572.54 1.05 1.028 1.413.486.362 1.033.516 1.654.588.592.068 1.325.068 2.215.068h3.83c.89 0 1.621 0 2.214-.068.62-.072 1.168-.226 1.654-.587.487-.363.788-.842 1.028-1.414.229-.543.427-1.237.668-2.077l.012-.044 2.243-7.864a1.25 1.25 0 0 0-1.097-1.437l-.93-.006.226-.356.024-.038c.237-.373.454-.713.592-1.013.152-.33.26-.711.164-1.141-.098-.434-.36-.73-.642-.96-.254-.206-.595-.412-.964-.635l-.039-.023-.197-.12-.039-.023c-.347-.21-.67-.405-.955-.527-.316-.136-.692-.231-1.11-.114-.415.116-.688.39-.892.666-.186.253-.371.588-.572.952l-.021.039-.533.965V3.716c0-.377 0-.733-.04-1.025-.046-.329-.156-.683-.458-.974-.297-.286-.654-.386-.981-.429-.298-.038-.663-.038-1.057-.038zm1.421 8.58v2.92h-2.5V3.76c0-.437.002-.686.026-.862a1 1 0 0 1 .02-.097 1 1 0 0 1 .126-.025c.19-.025.455-.026.907-.026h.342c.452 0 .718.001.907.026a1 1 0 0 1 .127.025q.008.027.019.097c.024.176.026.425.026.862zm1.5.198 1.846-3.343c.23-.416.367-.662.487-.825a1 1 0 0 1 .09-.106 1 1 0 0 1 .113.04c.178.077.411.216.81.457l.198.12c.421.254.67.406.832.538a.7.7 0 0 1 .124.123v.002l-.002.017a.7.7 0 0 1-.06.166c-.09.198-.25.452-.52.875l-.855 1.346a4.83 4.83 0 0 0-3.063 2.61zM7.528 4.8 9.25 8.308v3.739A4.8 4.8 0 0 0 7.3 9.91a.8.8 0 0 0-.09-.276L5.256 6.133c-.236-.425-.377-.68-.455-.875a.7.7 0 0 1-.05-.185v-.006l.008-.012a.7.7 0 0 1 .118-.112c.16-.128.402-.274.813-.52l.22-.131c.432-.258.688-.41.884-.492a.7.7 0 0 1 .144-.048.7.7 0 0 1 .105.132c.123.183.26.458.485.916m3.277-2.024-.003.005zm-.028.031-.006.003zm2.452.003-.006-.003zm-.03-.029-.004-.005zM13.257 17c0 .69-.558 1.25-1.246 1.25h-.009c-.687 0-1.245-.56-1.245-1.25s.558-1.25 1.245-1.25h.01c.687 0 1.245.56 1.245 1.25m-6.3-13.25h-.009zm-.028-.005-.007-.004zm10.263 1.993-.006.004zm-.04.013h-.006z" clip-rule="evenodd"/></svg>