<svg xmlns="http://www.w3.org/2000/svg" fill="none" viewBox="0 0 24 24"><path fill="currentColor" fill-rule="evenodd" d="M13 3.25a1 1 0 1 0-2 0v5.49a10 10 0 0 1-.343-.021c-.236-.131-.417-.437-.708-.927-.277-.467-.702-1.148-1.57-1.423-1.358-.429-2.73.355-3.786 1.473-1.094 1.159-2.06 2.877-2.68 4.871s-.801 3.96-.56 5.54c.232 1.524.913 2.953 2.268 3.381.993.314 2.002-.03 2.856-.647.861-.622 1.665-1.587 2.337-2.752.435-.755.667-1.065.918-1.235.222-.15.554-.248 1.372-.248h1.792c.818 0 1.15.098 1.372.248.25.17.483.48.918 1.235.672 1.165 1.476 2.13 2.337 2.752.854.617 1.863.961 2.856.647 1.355-.428 2.035-1.857 2.268-3.381.241-1.58.06-3.545-.56-5.54-.62-1.994-1.587-3.712-2.68-4.87-1.056-1.12-2.428-1.903-3.786-1.474-.868.275-1.293.956-1.57 1.423-.29.49-.472.796-.708.927-.074.006-.197.014-.343.021zM10 13a1 1 0 0 1 1-1h2a1 1 0 1 1 0 2h-2a1 1 0 0 1-1-1" clip-rule="evenodd"/></svg>