<svg xmlns="http://www.w3.org/2000/svg" fill="none" viewBox="0 0 24 24"><path fill="currentColor" fill-rule="evenodd" d="M10.441 5.992a4.5 4.5 0 1 1-9 0 4.5 4.5 0 0 1 9 0m1.934-.726c-.206-.002-.309-.003-.368.058-.06.06-.057.169-.05.385q.003.096.003.193A6.1 6.1 0 0 1 5.706 12c-.215-.006-.322-.008-.383.051-.06.06-.06.162-.057.366l.076 8.541c.09.636.31 1.374 1.05 1.681s1.417-.06 1.93-.447c.526-.395 1.155-1.025 1.916-1.785L20.405 10.24c.76-.761 1.39-1.39 1.786-1.917.386-.513.753-1.19.447-1.93-.307-.74-1.045-.96-1.68-1.05zm.287 15.013c.01-.192.13-.312.37-.552l7.685-7.695c.24-.24.36-.36.551-.37s.293.07.496.234q.093.075.18.162c.455.456.641 1.022.725 1.65.08.595.08 1.344.08 2.242v1.105c0 .898 0 1.647-.08 2.242-.084.628-.27 1.195-.725 1.65-.456.456-1.022.641-1.65.726-.595.08-1.344.08-2.243.08h-1.104c-.898 0-1.647 0-2.242-.08-.628-.085-1.195-.27-1.65-.726a2 2 0 0 1-.156-.172c-.164-.203-.247-.304-.237-.496" clip-rule="evenodd"/></svg>