<svg xmlns="http://www.w3.org/2000/svg" fill="none" viewBox="0 0 24 24"><path fill="currentColor" fill-rule="evenodd" d="M11.25 3.25H7.945c-1.367 0-2.47 0-3.337.117-.9.12-1.658.38-2.26.981-.602.602-.86 1.36-.981 2.26-.117.867-.117 1.97-.117 3.337v2.305h4.592c-.417-.7-.592-1.542-.592-2.346 0-.64.104-1.202.349-1.653.256-.472.651-.79 1.136-.926.889-.25 1.882.156 2.671.664.655.421 1.3.997 1.844 1.64zm-10 10.5v.305c0 1.367 0 2.47.117 3.337.12.9.38 1.658.981 2.26.602.602 1.36.86 2.26.982.867.116 1.97.116 3.337.116h3.305v-5.94l-1.72 1.72a.75.75 0 0 1-1.06-1.06l1.72-1.72zm11.5 7h3.305c1.367 0 2.47 0 3.337-.116.9-.122 1.658-.38 2.26-.982s.86-1.36.982-2.26c.116-.867.116-1.97.116-3.337v-.305h-8.94l1.72 1.72a.75.75 0 1 1-1.06 1.06l-1.72-1.72zm10-8.5V9.945c0-1.367 0-2.47-.116-3.337-.122-.9-.38-1.658-.982-2.26s-1.36-.86-2.26-.981c-.867-.117-1.97-.117-3.337-.117H12.75v6.38a8.5 8.5 0 0 1 1.844-1.641c.789-.508 1.782-.913 2.671-.664.485.137.88.454 1.136.926.245.451.349 1.013.349 1.653 0 .804-.175 1.646-.592 2.346zm-12.297-1.206c.3.42.52.832.652 1.206H8.499c-.612 0-1.013-.255-1.287-.643-.295-.418-.462-1.028-.462-1.703 0-.496.083-.783.167-.937.072-.132.145-.176.223-.197.236-.067.743.022 1.454.48a7.2 7.2 0 0 1 1.859 1.794M15.5 12.25h-2.604c.131-.374.35-.785.651-1.206a7.2 7.2 0 0 1 1.859-1.794c.711-.458 1.218-.547 1.454-.48.078.021.151.065.223.197.084.154.167.441.167.937 0 .675-.167 1.285-.462 1.703-.274.389-.675.643-1.287.643z" clip-rule="evenodd"/></svg>