<svg xmlns="http://www.w3.org/2000/svg" fill="none" viewBox="0 0 24 24"><path fill="currentColor" fill-rule="evenodd" d="M12 20.796a8.796 8.796 0 0 0 3.43-16.898c-.265-.112-.396-.168-.546-.138s-.26.138-.478.356l-1.78 1.78a1 1 0 0 1-.07.065.977.977 0 0 1-1.35-.234l-1.112-1.555c-.172-.24-.366-.511-.487-.76-.147-.3-.292-.778-.04-1.295.241-.498.678-.69 1.015-.766.264-.06.585-.074.858-.087A13 13 0 0 1 12 1.25c5.937 0 10.75 4.813 10.75 10.75S17.937 22.75 12 22.75 1.25 17.937 1.25 12c0-3.518 1.69-6.64 4.3-8.6a.977.977 0 0 1 1.173 1.563A8.795 8.795 0 0 0 12 20.796M10.5 9.812c0-.993-1.167-1.773-2.1-1.037q-.029.023-.056.048l-1.02.936A1 1 0 0 0 8.5 11.362v4.634a1 1 0 1 0 2 0zm2.858-1.316a1.5 1.5 0 0 0-1.483 1.274l-.365 2.586a1 1 0 0 0 1.346 1.074l.407-.155a2.2 2.2 0 0 1 1.272-.088.6.6 0 0 1 .465.584v.475a.75.75 0 0 1-.75.75h-.75a1 1 0 0 0-2 0 2 2 0 0 0 2 2h.75a2.75 2.75 0 0 0 2.75-2.75v-.476a2.6 2.6 0 0 0-2.02-2.533 4.2 4.2 0 0 0-1.28-.091l.092-.65H16a1 1 0 1 0 0-2z" clip-rule="evenodd"/></svg>