<svg xmlns="http://www.w3.org/2000/svg" fill="none" viewBox="0 0 24 24"><path fill="currentColor" fill-rule="evenodd" d="M12 20.796A8.795 8.795 0 0 1 8.57 3.898c.265-.112.397-.168.546-.138s.26.138.478.356l1.78 1.78c.03.03.046.046.07.065s.036.026.057.039a.977.977 0 0 0 1.294-.273l1.111-1.555c.172-.24.366-.511.487-.76.147-.3.292-.778.04-1.295-.241-.498-.678-.69-1.015-.766-.264-.06-.585-.074-.858-.087A13 13 0 0 0 12 1.25C6.063 1.25 1.25 6.063 1.25 12S6.063 22.75 12 22.75 22.75 17.937 22.75 12c0-3.518-1.69-6.64-4.3-8.6a.977.977 0 0 0-1.173 1.563A8.796 8.796 0 0 1 12 20.796M8.898 11c.215 0 .379.002.519.014l.097.012a1 1 0 0 0 2-.026c0-.373-.074-.753-.282-1.092a1.75 1.75 0 0 0-.817-.695C9.914 9 9.315 9 8.947 9H8.84c-.337 0-.708 0-1.021.056-.396.07-.811.245-1.125.66-.284.377-.371.802-.409 1.168-.035.348-.035.777-.035 1.252v2.554c0 .197 0 .408.033.601.13.757.666 1.47 1.5 1.663.209.048.434.047.596.046h1.038c.162 0 .388.002.596-.046.834-.193 1.37-.906 1.5-1.663.07-.405.07-.905 0-1.31-.13-.756-.666-1.47-1.5-1.662a2.7 2.7 0 0 0-.596-.046H8.25v-.091c0-.536.001-.861.025-1.096q.004-.043.01-.075.054-.004.133-.006c.13-.005.281-.005.48-.005m-.644 3.316a.2.2 0 0 1 .013-.043H9.53q.008.018.014.047c.03.181.03.452 0 .633A.2.2 0 0 1 9.53 15H8.267a.2.2 0 0 1-.013-.043l-.002-.052-.002-.268a10 10 0 0 1 .004-.32M15.092 9h-.04c-.298 0-.594 0-.845.027a1.9 1.9 0 0 0-.928.324c-.213.15-.392.341-.53.559a2.05 2.05 0 0 0-.29.923c-.025.255-.025.56-.025.878v2.578c0 .317 0 .623.025.879.027.28.091.608.29.922.138.218.317.409.53.559.314.221.647.294.928.324.25.027.547.027.845.027h.08c.298 0 .595 0 .845-.027a1.9 1.9 0 0 0 .928-.324c.213-.15.393-.34.53-.559.2-.314.264-.642.29-.922.025-.256.025-.562.025-.88v-2.577c0-.317 0-.623-.024-.878a2.05 2.05 0 0 0-.29-.923 2 2 0 0 0-.53-.559 1.9 1.9 0 0 0-.929-.324C15.727 9 15.43 9 15.133 9zm-.642 2.024v-.011c.13-.012.314-.013.642-.013s.512.001.642.012v.012c.015.148.016.355.016.726v2.5c0 .37-.001.578-.015.726l-.001.012a9 9 0 0 1-.642.012c-.328 0-.512-.001-.641-.012l-.001-.012a9 9 0 0 1-.016-.726v-2.5c0-.37.001-.578.016-.726" clip-rule="evenodd"/></svg>