<svg xmlns="http://www.w3.org/2000/svg" fill="none" viewBox="0 0 24 24"><path fill="currentColor" fill-rule="evenodd" d="M12.038 3.25h-.076c-.737 0-1.346 0-1.848.051-.528.054-.996.17-1.438.436q-.098.059-.191.124c-.422.295-.726.68-1.004 1.146-.267.448-.54 1.021-.874 1.722l-.04.085C6.07 7.856 5.665 8.71 5.446 9.402q-.056.174-.098.348h13.304a5 5 0 0 0-.098-.348c-.22-.692-.625-1.546-1.121-2.587l-.04-.086c-.334-.7-.607-1.274-.874-1.722-.279-.466-.582-.851-1.004-1.146a4 4 0 0 0-.191-.124c-.442-.266-.91-.382-1.438-.436-.502-.051-1.111-.051-1.848-.051m-4 8c.737 0 1.346 0 1.848.051.528.054.996.17 1.438.436q.098.059.191.124c.422.295.726.68 1.004 1.146.267.448.54 1.021.874 1.722l.04.086c.496 1.041.902 1.895 1.121 2.587.225.71.315 1.431-.053 2.101l-.075.127c-.413.657-1.085.906-1.805 1.015-.69.105-1.597.105-2.69.105H6.069c-1.092 0-1.999 0-2.689-.105-.72-.109-1.392-.358-1.805-1.015l-.075-.127c-.368-.67-.278-1.39-.053-2.1.22-.694.625-1.547 1.121-2.588l.04-.086c.334-.7.607-1.274.874-1.722.278-.466.582-.851 1.004-1.146q.094-.065.19-.124c.443-.266.912-.382 1.44-.436.5-.051 1.11-.051 1.847-.051zm10.096 9.5h-2.666a3.5 3.5 0 0 0 .347-.525c.666-1.212.436-2.432.169-3.276-.25-.792-.694-1.724-1.158-2.699l-.103-.216c-.314-.66-.613-1.287-.916-1.796a6 6 0 0 0-.49-.715c.313-.12.642-.185 1-.222.5-.051 1.11-.051 1.847-.051h.076c.737 0 1.346 0 1.848.051.528.054.996.17 1.438.436q.098.059.191.124c.422.295.726.68 1.004 1.146.267.448.54 1.021.874 1.722l.04.086c.496 1.041.902 1.895 1.121 2.587.225.71.315 1.431-.053 2.101l-.075.127c-.413.657-1.085.906-1.805 1.015-.69.105-1.596.105-2.69.105" clip-rule="evenodd"/></svg>