<svg xmlns="http://www.w3.org/2000/svg" fill="none" viewBox="0 0 24 24"><path fill="currentColor" fill-rule="evenodd" d="M12 1.75c-.42 0-.757.11-1.162.244-3.093 1.017-5.36 2.53-6.5 3.43-.356.282-.65.513-.907.965-.257.45-.31.847-.376 1.329A33 33 0 0 0 2.75 12c0 1.7.169 3.29.305 4.282.065.482.12.878.376 1.329.257.452.551.683.907.964 1.14.9 3.407 2.414 6.5 3.43.405.134.741.245 1.162.245s.757-.11 1.162-.244c3.093-1.017 5.323-2.502 6.463-3.401l.037-.03c.356-.28.65-.512.907-.964.257-.45.31-.848.376-1.329A33 33 0 0 0 21.25 12c0-1.7-.169-3.29-.305-4.282-.065-.482-.12-.878-.376-1.329-.257-.452-.551-.683-.907-.964-1.14-.9-3.407-2.414-6.5-3.43-.405-.134-.741-.245-1.162-.245m-1.97 4.72a.75.75 0 0 0-1.06 0l-1 1a.75.75 0 0 0 .53 1.28h.25V15a.75.75 0 0 0 1.5 0v-2.25h3.5v2.5h-.25a.75.75 0 0 0-.53 1.28l1 1a.75.75 0 0 0 1.06 0l1-1a.75.75 0 0 0-.53-1.28h-.25V9a.75.75 0 0 0-1.5 0v2.25h-3.5v-2.5h.25a.75.75 0 0 0 .53-1.28z" clip-rule="evenodd"/></svg>