<svg xmlns="http://www.w3.org/2000/svg" fill="none" viewBox="0 0 24 24"><path fill="currentColor" fill-rule="evenodd" d="M13.083 2.25h-2.166c-1.352 0-2.45 0-3.338.102-.926.105-1.723.33-2.431.849S3.992 4.406 3.622 5.248c-.353.807-.67 1.842-1.057 3.115l-1.199 3.93-.08.315a.4.4 0 0 0-.015.064l-.003.066-.018.704c0 1.682 0 3.015.133 4.065.137 1.078.425 1.96 1.077 2.68q.176.195.373.368c.729.644 1.622.928 2.715 1.064 1.063.131 2.413.131 4.117.131h4.67c1.704 0 3.054 0 4.117-.131 1.093-.136 1.986-.42 2.715-1.064q.197-.173.373-.368c.652-.72.94-1.602 1.077-2.68.133-1.05.133-2.383.133-4.065l-.018-.704-.003-.066-.015-.064-.08-.315-1.199-3.93c-.388-1.273-.704-2.308-1.058-3.115-.369-.842-.817-1.53-1.525-2.047s-1.506-.744-2.431-.85c-.888-.101-1.986-.101-3.338-.101m7.298 9.349-.802-2.63c-.41-1.342-.694-2.269-.997-2.961-.294-.67-.566-1.023-.898-1.266-.331-.242-.754-.397-1.49-.481-.76-.088-1.745-.09-3.17-.09h-2.049c-1.424 0-2.41.002-3.17.09-.736.084-1.159.239-1.49.481-.332.243-.604.597-.897 1.266-.304.692-.588 1.62-.998 2.962l-.806 2.645c-.107.35-.16.524-.07.644s.275.12.645.119l15.618-.016c.37 0 .554 0 .644-.12s.036-.294-.07-.643M12 17a1 1 0 0 1 1-1h.011a1 1 0 1 1 0 2H13a1 1 0 0 1-1-1m4.989 0a1 1 0 0 1 1-1H18a1 1 0 1 1 0 2h-.011a1 1 0 0 1-1-1" clip-rule="evenodd"/></svg>