<svg xmlns="http://www.w3.org/2000/svg" fill="none" viewBox="0 0 24 24"><path fill="currentColor" fill-rule="evenodd" d="M4.203 9.664c.098.08.286-.01.664-.187A5 5 0 0 1 7 9a3 3 0 0 1 3 3v4a3 3 0 0 1-3 3 5 5 0 0 1-5-5v-3C2 5.477 6.477 1 12 1s10 4.477 10 10v4.884c0 .972 0 1.756-.047 2.393-.048.655-.15 1.232-.393 1.775a5 5 0 0 1-2.508 2.508c-.543.244-1.12.345-1.775.393-.637.047-1.42.047-2.392.047H12a1 1 0 1 1 0-2h2.846c1.02 0 1.73 0 2.284-.041.545-.04.86-.115 1.101-.223a3 3 0 0 0 1.505-1.505c.108-.24.183-.556.223-1.1l.007-.105A4.98 4.98 0 0 1 17 19a3 3 0 0 1-3-3v-4a3 3 0 0 1 3-3c.763 0 1.486.17 2.133.477.378.178.566.267.664.187s.052-.263-.04-.627a8.003 8.003 0 0 0-15.514 0c-.092.364-.138.546-.04.627" clip-rule="evenodd"/></svg>