<svg xmlns="http://www.w3.org/2000/svg" fill="none" viewBox="0 0 24 24"><path fill="currentColor" fill-rule="evenodd" d="M12.052 1.25h-.104c-.899 0-1.648 0-2.242.08-.628.084-1.195.27-1.65.725-.456.456-.642 1.023-.726 1.65-.08.595-.08 1.345-.08 2.243v.104c0 .899 0 1.648.08 2.242.084.628.27 1.195.725 1.65.456.456 1.023.642 1.65.726.595.08 1.345.08 2.243.08h.104c.899 0 1.648 0 2.242-.08.628-.084 1.195-.27 1.65-.725.456-.456.642-1.023.726-1.65.08-.595.08-1.344.08-2.243v-.104c0-.898 0-1.648-.08-2.242-.084-.628-.27-1.195-.726-1.65-.455-.456-1.022-.642-1.65-.726-.594-.08-1.344-.08-2.242-.08M4.08 15.256c.166-1.048.565-1.944 1.492-2.524.984-.615 2.384-.732 4.082-.732h4.694c1.698 0 3.098.117 4.082.732.927.58 1.326 1.476 1.492 2.524.305.008.581.023.825.056.492.066.963.215 1.345.597s.531.853.597 1.345c.062.459.062 1.032.062 1.697v.098c0 .665 0 1.238-.062 1.697-.066.492-.215.963-.597 1.345s-.854.531-1.345.597c-.459.062-1.032.062-1.697.062h-.098c-.665 0-1.238 0-1.697-.062-.492-.066-.963-.215-1.345-.597s-.531-.854-.597-1.345c-.062-.459-.062-1.032-.062-1.697v-.099c0-.664 0-1.237.062-1.696.066-.492.215-.963.597-1.345s.853-.531 1.345-.597q.287-.038.632-.05c-.121-.498-.308-.703-.517-.834-.435-.272-1.27-.428-3.022-.428H9.653c-1.752 0-2.587.156-3.022.428-.21.131-.396.336-.517.834q.345.012.632.05c.491.066.963.215 1.345.597s.531.853.597 1.345c.062.459.062 1.032.062 1.697v.098c0 .665 0 1.238-.062 1.697-.066.492-.215.963-.597 1.345s-.854.531-1.345.597c-.459.062-1.032.062-1.697.062h-.098c-.665 0-1.238 0-1.697-.062-.491-.066-.963-.215-1.345-.597s-.531-.854-.597-1.345c-.062-.459-.062-1.032-.062-1.697v-.099c0-.664 0-1.237.062-1.696.066-.492.215-.963.597-1.345s.854-.531 1.345-.597c.244-.033.52-.048.825-.056" clip-rule="evenodd"/></svg>