<svg xmlns="http://www.w3.org/2000/svg" fill="none" viewBox="0 0 24 24"><path fill="currentColor" fill-rule="evenodd" d="M5.286 1.25c-1.165 0-2.056.32-2.562 1.152-.438.72-.474 1.686-.474 2.598s.036 1.878.474 2.598C3.23 8.431 4.12 8.75 5.286 8.75H6v4.82c0 1.355 0 2.471.119 3.355.125.928.396 1.747 1.053 2.403.656.657 1.475.928 2.403 1.053.884.12 2 .119 3.354.119h.333q.011.252.038.468c.054.418.178.839.51 1.185.337.351.754.486 1.17.544.378.053.848.053 1.372.053h1.296c.524 0 .994 0 1.373-.053.415-.058.832-.193 1.169-.544.332-.346.456-.767.51-1.185.05-.39.05-.872.05-1.422v-.092c0-.55 0-1.033-.05-1.422-.054-.418-.178-.839-.51-1.185-.337-.351-.754-.486-1.17-.544-.378-.053-.848-.053-1.372-.053h-1.296c-.524 0-.994 0-1.373.053-.415.058-.832.193-1.169.544-.332.346-.456.767-.51 1.185q-.026.216-.038.468H13c-1.443 0-2.424-.002-3.159-.1-.706-.096-1.033-.263-1.255-.486-.223-.222-.39-.55-.485-1.255C8.002 15.924 8 14.943 8 13.5v-1h5.262q.011.252.038.468c.054.418.178.839.51 1.185.337.351.754.486 1.17.544.378.053.848.053 1.372.053h1.296c.524 0 .994 0 1.373-.053.415-.058.832-.193 1.169-.544.332-.346.456-.767.51-1.185.05-.39.05-.872.05-1.422v-.092c0-.55 0-1.033-.05-1.422-.054-.418-.178-.839-.51-1.185-.337-.351-.754-.486-1.17-.544-.378-.053-.848-.053-1.372-.053h-1.296c-.524 0-.994 0-1.373.053-.415.058-.832.193-1.169.544-.332.346-.456.767-.51 1.185q-.026.216-.038.468H8V8.75h.714c1.165 0 2.056-.32 2.562-1.152.438-.72.474-1.686.474-2.598s-.036-1.878-.474-2.598C10.77 1.569 9.88 1.25 8.714 1.25z" clip-rule="evenodd"/></svg>