<svg xmlns="http://www.w3.org/2000/svg" fill="none" viewBox="0 0 24 24"><path fill="currentColor" fill-rule="evenodd" d="M19 1.25a3.75 3.75 0 0 0-3.632 2.812c-1.095.155-2.036.55-2.636 1.51-.615.983-.732 2.383-.732 4.08V11h-1.355a4.752 4.752 0 0 0-9.395 1 4.75 4.75 0 0 0 9.395 1H12v1.347c0 1.698.117 3.098.732 4.082.6.96 1.54 1.354 2.636 1.51A3.752 3.752 0 0 0 22.75 19a3.75 3.75 0 0 0-7.342-1.082c-.605-.119-.837-.32-.98-.55-.271-.434-.428-1.269-.428-3.02V9.652c0-1.752.157-2.587.428-3.022.143-.229.375-.43.98-.55A3.752 3.752 0 0 0 22.75 5 3.75 3.75 0 0 0 19 1.25" clip-rule="evenodd"/></svg>