<svg xmlns="http://www.w3.org/2000/svg" fill="none" viewBox="0 0 24 24"><path fill="currentColor" fill-rule="evenodd" d="M19.2 1.25h.051c.616 0 1.157 0 1.592.063.474.068.93.224 1.295.615.358.383.494.85.555 1.333.057.455.057 1.025.057 1.692v.094c0 .667 0 1.237-.057 1.692-.06.483-.197.95-.555 1.333-.365.391-.82.547-1.295.615-.435.063-.976.063-1.592.063H17.75c-.616 0-1.157 0-1.592-.063-.474-.068-.93-.224-1.295-.615-.358-.383-.494-.85-.555-1.333a7 7 0 0 1-.044-.587c-.457.128-.721.293-.88.456-.219.225-.383.597-.383 1.344v8.094c0 .777.187 1.151.415 1.372.166.16.427.313.848.43q.011-.319.044-.587c.06-.483.197-.95.555-1.333.365-.392.82-.547 1.295-.615.435-.063.976-.063 1.592-.063h1.502c.616 0 1.157 0 1.592.063.474.068.93.223 1.295.615.358.383.494.85.555 1.333.057.455.057 1.025.057 1.692v.094c0 .667 0 1.237-.057 1.692-.06.483-.197.95-.555 1.333-.365.392-.82.547-1.295.615-.435.063-.976.063-1.592.063H17.75c-.616 0-1.157 0-1.592-.063-.474-.068-.93-.224-1.295-.615-.358-.383-.494-.85-.555-1.333a8 8 0 0 1-.052-.84c-.872-.167-1.647-.478-2.232-1.044-.751-.728-1.023-1.712-1.023-2.809V13H9.74a6 6 0 0 1-.063.763c-.08.515-.264.993-.701 1.368-.421.36-.93.498-1.47.56-.52.06-1.174.06-1.961.06h-.09c-.787 0-1.441 0-1.961-.06-.54-.062-1.049-.2-1.47-.56-.437-.375-.62-.853-.7-1.368-.074-.467-.074-1.047-.074-1.707v-.11c0-.66 0-1.24.073-1.707.08-.515.264-.993.701-1.368.421-.36.93-.498 1.47-.56.52-.06 1.174-.06 1.961-.06h.09c.787 0 1.441 0 1.961.06.54.062 1.049.2 1.47.56.437.375.62.853.7 1.368.037.228.055.483.064.761H11V7.952c0-1.02.225-1.995.951-2.74.58-.595 1.372-.93 2.304-1.11a8 8 0 0 1 .052-.841c.06-.483.197-.95.555-1.333.365-.391.82-.547 1.295-.615.435-.063.976-.063 1.592-.063z" clip-rule="evenodd"/></svg>