<svg xmlns="http://www.w3.org/2000/svg" fill="none" viewBox="0 0 24 24"><path fill="currentColor" fill-rule="evenodd" d="M9.75 3.5a2.25 2.25 0 1 1 4.5 0 2.25 2.25 0 0 1-4.5 0m-.232 3.405a5.03 5.03 0 0 1 4.964 0l.13.071c.268.146.767.415 1.105.734.209.197.475.518.525.957.056.49-.178.902-.512 1.209-.5.46-1.151.874-2.015.874h-3.43c-.864 0-1.515-.415-2.015-.874-.334-.307-.567-.719-.512-1.21.05-.438.317-.759.526-.956.338-.319.836-.588 1.104-.734zm11.594 12.071-.13-.07a5.03 5.03 0 0 0-4.964 0l-.13.07c-.268.146-.766.415-1.104.734-.21.197-.476.517-.526.957-.055.49.178.902.512 1.209.5.46 1.151.874 2.016.874h3.429c.864 0 1.516-.415 2.015-.874.334-.307.568-.719.512-1.21-.05-.439-.316-.759-.525-.956-.338-.319-.837-.588-1.105-.734M16.25 15.5a2.25 2.25 0 1 1 4.5 0 2.25 2.25 0 0 1-4.5 0m-7.033 4.21c-.338-.319-.837-.588-1.105-.734l-.13-.07a5.03 5.03 0 0 0-4.964 0l-.13.07c-.268.146-.766.415-1.104.734-.21.197-.476.517-.526.957-.055.49.178.902.512 1.209.5.46 1.151.874 2.016.874h3.429c.864 0 1.516-.415 2.015-.874.334-.307.568-.719.512-1.21-.05-.439-.316-.759-.525-.956M3.25 15.5a2.25 2.25 0 1 1 4.5 0 2.25 2.25 0 0 1-4.5 0M13 13a1 1 0 0 0-2 0v1.934l-2.014 1.208a1 1 0 0 0 1.029 1.716L12 16.666l1.986 1.192a1 1 0 1 0 1.029-1.716L13 14.934z" clip-rule="evenodd"/></svg>