<svg xmlns="http://www.w3.org/2000/svg" fill="none" viewBox="0 0 24 24"><path fill="currentColor" d="M11.141 10.736a.425.425 0 0 0 .429-.42v-7.28a1.286 1.286 0 1 1 2.572 0v7.28c0 .232.191.42.428.42a.425.425 0 0 0 .428-.42v-5.28a1.286 1.286 0 1 1 2.571 0v5.28c0 .232.192.42.429.42a.425.425 0 0 0 .428-.42V7.058a1.286 1.286 0 1 1 2.573 0V10.5l-.001.041v3.652c0 1.064 0 1.9-.043 2.574-.044.687-.134 1.26-.338 1.793a5.74 5.74 0 0 1-3.298 3.308c-.532.205-1.104.295-1.789.339-.673.043-1.505.043-2.567.043-1.047 0-1.81 0-2.42-.134a5.7 5.7 0 0 1-2.511-1.26c-.473-.408-.86-.925-1.488-1.766l-3.246-4.48a1.5 1.5 0 0 1-.165-.273A2.5 2.5 0 0 1 3 13.642c.017-.3.126-.597.327-.844a1.51 1.51 0 0 1 2.23-.122l1.852 1.827c.123.12.307.157.468.092a.42.42 0 0 0 .265-.39v-9.17a1.286 1.286 0 0 1 2.57 0v5.28c0 .233.193.421.43.421"/></svg>