<svg xmlns="http://www.w3.org/2000/svg" fill="none" viewBox="0 0 24 24"><path fill="currentColor" fill-rule="evenodd" d="M10.392 10.185a.424.424 0 0 0 .429-.419v-7.23a1.286 1.286 0 1 1 2.571 0v8.347c0 .231.192.419.429.419a.424.424 0 0 0 .428-.42V4.664a1.286 1.286 0 1 1 2.572 0v6.843c0 .201 0 .302-.047.376-.047.073-.15.121-.356.217a3.75 3.75 0 0 0-2.156 3.101c-.012.154-.019.231-.045.284s-.084.103-.2.205a3.8 3.8 0 0 0-.765.936c-.33.573-.428 1.143-.468 1.577-.034.38-.034.926-.034 1.33 0 .405 0 .886.034 1.266.04.434.137 1.004.468 1.577.093.16-.016.375-.202.375H9.965c-.395 0-.743 0-1.023-.027-.29-.027-.62-.091-.91-.3-.316-.224-.493-.581-.619-.875a20 20 0 0 1-.46-1.268 4 4 0 0 0-.608-1.17l-3.798-5.076a1.5 1.5 0 0 1-.244-.49 2.5 2.5 0 0 1-.053-.439c.01-.31.12-.616.328-.87a1.52 1.52 0 0 1 2.23-.122L6.66 13.93c.122.12.307.156.467.091a.42.42 0 0 0 .265-.387V4.036a1.286 1.286 0 0 1 2.572 0v5.73c0 .231.192.419.428.419M18 11.75a.317.317 0 0 1-.322-.309V6.558a1.286 1.286 0 0 1 2.571 0v5.14c0 .337 0 .505-.092.564s-.26-.018-.594-.172A3.7 3.7 0 0 0 18 11.75m-2.25 3.75a2.25 2.25 0 0 1 4.5 0v.888q.191.059.375.163c.342.198.626.482.824.824.177.307.243.633.273.962.028.312.028.755.028 1.195s0 .82-.028 1.13c-.03.33-.096.656-.273.963a2.25 2.25 0 0 1-.824.824c-.307.177-.633.243-.962.273-.312.028-.691.028-1.13.028h-1.065c-.44 0-.82 0-1.13-.028-.33-.03-.656-.096-.963-.273a2.25 2.25 0 0 1-.824-.824c-.177-.307-.243-.633-.273-.962-.028-.312-.028-.691-.028-1.13 0-.44 0-.884.028-1.196.03-.329.096-.655.273-.962a2.26 2.26 0 0 1 .824-.824 2 2 0 0 1 .375-.163zm3 0v.75h-1.5v-.75a.75.75 0 0 1 1.5 0" clip-rule="evenodd"/></svg>