<svg xmlns="http://www.w3.org/2000/svg" fill="none" viewBox="0 0 24 24"><path fill="currentColor" fill-rule="evenodd" d="M9.524 1.996c.836-.47 1.61-.746 2.476-.746s1.64.277 2.476.746c.81.454 1.738 1.125 2.905 1.97l1.51 1.09c.936.677 1.684 1.218 2.248 1.719.582.517 1.018 1.032 1.295 1.68.277.65.344 1.315.307 2.083-.036.74-.174 1.635-.345 2.75l-.315 2.05c-.244 1.585-.437 2.846-.722 3.828-.294 1.016-.71 1.823-1.45 2.44-.739.613-1.618.887-2.692 1.017-1.045.127-2.363.127-4.028.127H10.81c-1.665 0-2.983 0-4.028-.127-1.074-.13-1.953-.404-2.692-1.018-.74-.616-1.156-1.423-1.45-2.439-.285-.982-.478-2.244-.722-3.827l-.315-2.052c-.171-1.114-.309-2.008-.345-2.749-.037-.768.03-1.433.307-2.083.277-.648.713-1.163 1.295-1.68.564-.5 1.312-1.042 2.249-1.719l1.509-1.09c1.167-.845 2.095-1.516 2.905-1.97m.09 14.215a1 1 0 0 0-1.228 1.578C9.364 18.551 10.63 19 12 19s2.636-.45 3.614-1.21a1 1 0 0 0-1.228-1.58c-.621.484-1.454.79-2.386.79s-1.765-.306-2.386-.79" clip-rule="evenodd"/></svg>