<svg xmlns="http://www.w3.org/2000/svg" fill="none" viewBox="0 0 24 24"><path fill="currentColor" fill-rule="evenodd" d="M14 1a1 1 0 0 0-1 1v1h-2V2a1 1 0 1 0-2 0v4a1 1 0 0 0 2 0V5h2v1a1 1 0 1 0 2 0V2a1 1 0 0 0-1-1M7.5 3.293a.04.04 0 0 0-.043-.042c-1.625.094-2.88.353-3.819 1.24-.746.704-1.08 1.602-1.236 2.706-.152 1.065-.152 2.423-.152 4.125V21H2a1 1 0 1 0 0 2h20a1 1 0 1 0 0-2h-.25v-9.678c0-1.702 0-3.06-.152-4.125-.157-1.104-.49-2.002-1.236-2.707-.94-.886-2.194-1.145-3.819-1.239a.04.04 0 0 0-.043.042V6A2.5 2.5 0 0 1 14 8.5h-4A2.5 2.5 0 0 1 7.5 6zM15.25 21v-1.532c0-.44 0-.82-.028-1.13-.03-.33-.096-.656-.273-.963a2.25 2.25 0 0 0-.824-.824c-.307-.177-.633-.243-.962-.273-.312-.028-.691-.028-1.13-.028-.44 0-.884 0-1.196.028-.329.03-.655.096-.962.273a2.25 2.25 0 0 0-.824.824c-.177.307-.243.633-.273.962-.028.311-.028.69-.028 1.13V21h1.5v-1.5c0-.481 0-.792.022-1.027 0-.553.46-.698.7-.701.236-.021.547-.022 1.028-.022s.792 0 1.027.022c.234.041.7.239.7.7.022.236.023.547.023 1.028V21zm-8.5-10a.75.75 0 0 1 .75-.75h2a.75.75 0 0 1 0 1.5h-2a.75.75 0 0 1-.75-.75m7 0a.75.75 0 0 1 .75-.75h2a.75.75 0 0 1 0 1.5h-2a.75.75 0 0 1-.75-.75m-7 3a.75.75 0 0 1 .75-.75h2a.75.75 0 0 1 0 1.5h-2a.75.75 0 0 1-.75-.75m7 0a.75.75 0 0 1 .75-.75h2a.75.75 0 0 1 0 1.5h-2a.75.75 0 0 1-.75-.75" clip-rule="evenodd"/></svg>