<svg xmlns="http://www.w3.org/2000/svg" fill="none" viewBox="0 0 24 24"><path fill="currentColor" fill-rule="evenodd" d="M12 1.246a5.73 5.73 0 0 1 3.241 1h4.116c.474 0 1.062.121 1.542.567.945.878 1.41 2.25 1.822 3.794a.87.87 0 0 1-.178.786 1 1 0 0 1-.77.353h-.023v10.302c0 .898 0 1.648-.08 2.242-.084.628-.27 1.195-.725 1.651-.456.455-1.023.641-1.65.725-.595.08-1.345.08-2.243.08H15.2a.2.2 0 0 1-.2-.2v-3.8a3 3 0 1 0-6 0v3.8a.2.2 0 0 1-.2.2H6.948c-.898 0-1.648 0-2.242-.08-.628-.084-1.195-.27-1.65-.725-.456-.456-.642-1.023-.726-1.65-.07-.52-.079-1.159-.08-1.913V7.746h-.023a1 1 0 0 1-.77-.353.87.87 0 0 1-.178-.786c.412-1.544.877-2.916 1.822-3.794.48-.446 1.068-.567 1.542-.567H8.76c.923-.63 2.04-1 3.241-1m-5.5 12.5H6a.75.75 0 0 0 0 1.5h.5a.75.75 0 0 0 0-1.5m11.5 0h-.5a.75.75 0 0 0 0 1.5h.5a.75.75 0 0 0 0-1.5m-11.5-3.5H6a.75.75 0 0 0 0 1.5h.5a.75.75 0 0 0 0-1.5m11.5 0h-.5a.75.75 0 0 0 0 1.5h.5a.75.75 0 0 0 0-1.5m-4.5-3a.75.75 0 0 0-.75.75v.55a.2.2 0 0 1-.2.2h-1.1a.2.2 0 0 1-.2-.2v-.55a.75.75 0 0 0-1.5 0v3a.75.75 0 0 0 1.5 0v-.55c0-.11.09-.2.2-.2h1.1c.11 0 .2.09.2.2v.55a.75.75 0 0 0 1.5 0v-3a.75.75 0 0 0-.75-.75M7.044 4.08h-2.4a.4.4 0 0 0-.13.016.1.1 0 0 0-.037.02c-.369.343-.667.901-.966 1.798h2.841a5.7 5.7 0 0 1 .692-1.834m12.313 0h-2.4c.328.558.566 1.176.691 1.834h2.841c-.299-.897-.597-1.455-.966-1.798a.1.1 0 0 0-.036-.02.4.4 0 0 0-.13-.016M13 22.546v-3.8a1 1 0 0 0-2 0v3.8c0 .11.09.2.2.2h1.6a.2.2 0 0 0 .2-.2" clip-rule="evenodd"/></svg>