<svg xmlns="http://www.w3.org/2000/svg" fill="none" viewBox="0 0 24 24"><path fill="currentColor" fill-rule="evenodd" d="M20.263 13c.21.002.324.013.4.088.087.088.087.229.087.512v7.15H21a1 1 0 0 1 0 2H3a1 1 0 0 1 0-2h.25v-7.263c.002-.21.013-.323.088-.399.088-.088.23-.088.512-.088zm-7.564 3.25H11.3c-.25.003-.492.012-.703.047-.336.056-.682.193-.95.527-.247.31-.329.669-.364.999-.034.312-.034.7-.034 1.139v1.788h1.5V19c0-.488.001-.794.025-1.017.016-.147.1-.212.24-.221.141-.008.331-.012.585-.012h.945q.273.003.44.012c.14.009.224.074.24.221.017.16.023.36.024.641l.001 2.126h1.5v-2.045a9 9 0 0 0-.034-.882c-.035-.33-.117-.689-.365-.999-.267-.334-.613-.471-.949-.527-.28-.047-.619-.047-.954-.047zM7 15.25H6a.75.75 0 0 0 0 1.5h1a.75.75 0 0 0 0-1.5m11 0h-1a.75.75 0 0 0 0 1.5h1a.75.75 0 0 0 0-1.5M13.118 1.255c.342.025.633.19.858.338L21.9 7.744c.279.217.502.479.65.801.147.319.2.654.2.991 0 .558-.114 1.134-.495 1.576-.4.463-.968.639-1.57.639H3.147c-.569 0-1.07-.218-1.42-.627-.337-.394-.477-.9-.477-1.4 0-.834.418-1.63 1.33-1.935L4 7.314V3a1 1 0 0 1 2 0v3.646l4.693-1.569c.33-.11.42-.216.456-.275.05-.081.1-.399.1-.775-.006-.352-.015-.938.11-1.432.078-.305.226-.668.533-.947.33-.301.756-.426 1.226-.393" clip-rule="evenodd"/></svg>