<svg xmlns="http://www.w3.org/2000/svg" fill="none" viewBox="0 0 24 24"><path fill="currentColor" fill-rule="evenodd" d="M13.926 2.21a2.25 2.25 0 0 0-3.852 0c-2.934.797-5.179 3.354-5.81 6.519a.75.75 0 0 0 1.472.293c.17-.857.479-1.65.897-2.355q.234.35.585.614c.767.576 1.865.781 3.02.559.406-.078.636-.094.787-.086.131.007.225.032.364.087q.09.036.202.087c.34.15.86.378 1.803.573 1.411.293 2.511.047 3.274-.538.386-.296.663-.664.84-1.048a7.5 7.5 0 0 1 .757 2.107.75.75 0 1 0 1.47-.293c-.63-3.165-2.875-5.722-5.81-6.519M11.25 3.375a.75.75 0 1 1 1.5 0 .75.75 0 0 1-1.5 0m-5.775 6.97.044.014c1.915.584 4.124.92 6.48.92 2.358 0 4.567-.336 6.482-.92l.044-.013c.275-.084.561-.172.805-.205.285-.039.678-.028 1.015.27.31.275.393.624.404.914.008.235-.03.511-.064.764l-.006.044c-.52 3.846-3.714 6.978-7.68 7.434v1.308h2a1 1 0 1 1 0 2H9a1 1 0 1 1 0-2h2v-1.308c-3.964-.456-7.159-3.588-7.679-7.434l-.006-.044a5 5 0 0 1-.063-.764c.01-.29.094-.639.403-.913.338-.3.73-.31 1.016-.27.244.032.53.12.805.204" clip-rule="evenodd"/></svg>