<svg xmlns="http://www.w3.org/2000/svg" fill="none" viewBox="0 0 24 24"><path fill="currentColor" fill-rule="evenodd" d="M12 3.188c-3.768 0-6.806 3.01-6.806 6.702a6.6 6.6 0 0 0 .97 3.45.967.967 0 0 1-.325 1.331.974.974 0 0 1-1.336-.323A8.5 8.5 0 0 1 3.25 9.89c0-4.781 3.927-8.64 8.75-8.64s8.75 3.859 8.75 8.64c0 1.63-.458 3.156-1.253 4.458a.974.974 0 0 1-1.336.323.967.967 0 0 1-.325-1.331 6.6 6.6 0 0 0 .97-3.45c0-3.692-3.038-6.703-6.806-6.703m0 6.78a.97.97 0 0 1 .972.97v4.312h2.874c.13 0 .258 0 .367.005.114.006.267.02.427.071.498.162.833.552.859.995a1 1 0 0 1-.055.36 5 5 0 0 1-.11.293c-.144.362-.287.723-.469.962-.377.497-.968.854-1.653.996-.328.068-.685.068-1.142.068H9.93c-.457 0-.814 0-1.142-.068-.685-.142-1.276-.5-1.653-.996-.181-.239-.294-.521-.438-.884a9 9 0 0 1-.141-.37 1 1 0 0 1-.055-.36c.026-.444.361-.834.859-.996.16-.052.313-.065.427-.07.109-.006.237-.006.367-.006h2.874v-4.312a.97.97 0 0 1 .972-.97M8.849 21.358c-.22-.387-.312-.855-.432-1.454l-.03-.153h7.23l-.031.153c-.12.6-.213 1.067-.432 1.454a2.75 2.75 0 0 1-1.531 1.255c-.422.139-1.01.139-1.621.138-.612 0-1.2 0-1.622-.138a2.75 2.75 0 0 1-1.531-1.255" clip-rule="evenodd"/></svg>