<svg xmlns="http://www.w3.org/2000/svg" fill="none" viewBox="0 0 24 24"><path fill="currentColor" fill-rule="evenodd" d="M14.726 3.181c.1-.4-.14-.81-.55-.91-.4-.1-.81.15-.91.55l-1 4c-.1.39.13.79.52.9l3.5 1c.4.11.81-.12.93-.51.11-.4-.12-.82-.51-.93l-2.29-.66c.72-.54 1.61-.87 2.58-.87 2.35 0 4.25 1.9 4.25 4.25 0 .96-.32 1.84-.85 2.55a.75.75 0 0 0 1.2.9 5.75 5.75 0 0 0-7.31-8.52zm-6.38 3.07h2.78l-.07.26c-.26 1.05.35 2.12 1.39 2.41l3.5 1c1.02.3 2.09-.27 2.44-1.26.11.33.19.67.24 1.05.12.89.12 2.04.12 3.46v1.66c0 1.42 0 2.57-.12 3.46-.13.94-.41 1.72-1.04 2.34-.63.61-1.43.88-2.38 1-.92.12-2.09.12-3.55.12h-3.31c-1.46 0-2.63 0-3.55-.12-.95-.12-1.75-.39-2.38-1-.63-.62-.91-1.4-1.04-2.34-.12-.89-.12-2.04-.12-3.46v-1.66c0-1.42 0-2.57.12-3.46.13-.94.41-1.72 1.04-2.34.63-.61 1.43-.88 2.38-1 .92-.12 2.09-.12 3.55-.12m.14 5.24c0-.55-.45-1-1-1s-1 .45-1 1c0 .56.45 1.01 1 1.01s1-.45 1-1zm-5.63 6.6c.1.76.3 1.17.6 1.46.3.3.73.49 1.53.59.81.11 1.88.11 3.41.11h3.2c1.53 0 2.6 0 3.41-.11.79-.1 1.22-.29 1.53-.59.3-.29.49-.7.6-1.46q.06-.465.09-1.08l-3.79-3.74a1 1 0 0 0-.68-.27c-.25 0-.48.09-.65.24l-3.68 3.33-1.71-1.54a.93.93 0 0 0-.65-.24c-.26 0-.51.1-.68.27l-2.57 2.62c.01.14.03.28.05.41z" clip-rule="evenodd"/></svg>