<svg xmlns="http://www.w3.org/2000/svg" fill="none" viewBox="0 0 24 24"><path fill="currentColor" fill-rule="evenodd" d="m19.23 10.14 2.13 4.03c.51.96.93 1.75 1.16 2.4.24.66.36 1.36.01 2.02-.36.69-1.01.95-1.68 1.06-.64.1-1.48.1-2.48.1h-2.19c-.6 0-1.13 0-1.56-.06-.47-.07-.92-.23-1.28-.63-.35-.38-.48-.85-.54-1.33-.06-.46-.06-1.03-.06-1.7v-4.02c0-2.2 0-3.91.13-5.11.07-.61.17-1.15.36-1.58.2-.44.52-.85 1.06-1.01.55-.16 1.04.02 1.44.31.37.27.72.69 1.05 1.18.66.96 1.45 2.45 2.45 4.34M7.22 5.8c-.66.96-1.45 2.45-2.45 4.34l-2.13 4.03c-.51.96-.93 1.75-1.16 2.4-.24.66-.36 1.36-.01 2.02.36.69 1.01.95 1.68 1.06.64.1 1.48.1 2.48.1h2.19c.6 0 1.13 0 1.56-.06.47-.07.92-.23 1.28-.63.35-.38.48-.85.54-1.33.05-.46.05-1.03.05-1.7v-4.02c0-2.2 0-3.91-.13-5.11-.07-.61-.17-1.15-.36-1.58-.2-.44-.52-.85-1.06-1.01-.55-.16-1.04.02-1.44.31-.37.27-.72.69-1.05 1.18z" clip-rule="evenodd"/></svg>