<svg xmlns="http://www.w3.org/2000/svg" fill="none" viewBox="0 0 24 24"><path fill="currentColor" fill-rule="evenodd" d="M22.334 2.943a1 1 0 0 0-.668-1.885c-.878.31-1.717.904-2.454 1.55-.747.655-1.445 1.415-2.039 2.127A30 30 0 0 0 16.03 6.2a4 4 0 0 0-.85-.782 2.6 2.6 0 0 0-.733-.348 2 2 0 0 0-.27-.057l-.151-.011L14 5a1 1 0 0 0-.094 1.996.7.7 0 0 1 .164.086c.2.133.595.484 1.036 1.365a1 1 0 0 0 1.738.09 24 24 0 0 1 .513-.757c.332-.469.8-1.103 1.352-1.764.554-.664 1.179-1.34 1.822-1.905.653-.572 1.27-.98 1.803-1.168M16.04 4.546a.23.23 0 0 1-.306.044 3.6 3.6 0 0 0-1.013-.477 3 3 0 0 0-.504-.097l-.153-.01L14 4.005a2 2 0 0 0-.436 3.953c.101.087.346.34.647.942a2 2 0 0 0 3.474.183l.122-.186a27 27 0 0 1 1.67-2.236 17 17 0 0 1 1.41-1.516.276.276 0 0 1 .448.091c.24.58.387 1.222.482 1.928.183 1.36.183 3.094.183 5.27v.15c0 2.175 0 3.91-.183 5.27-.189 1.404-.589 2.558-1.501 3.47s-2.066 1.313-3.47 1.502c-1.36.183-3.096.183-5.272.183h-.148c-2.176 0-3.911 0-5.271-.183-1.405-.189-2.558-.589-3.47-1.501-.913-.913-1.313-2.067-1.502-3.47C1 16.492 1 14.757 1 12.581v-.149c0-2.176 0-3.91.183-5.27.189-1.405.589-2.559 1.501-3.471.913-.912 2.066-1.313 3.47-1.501 1.36-.183 3.096-.183 5.272-.183h.149c2.175 0 3.91 0 5.27.183q.307.041.6.097c.229.044.305.326.142.493a23 23 0 0 0-1.547 1.765m3.803 12.99a6.9 6.9 0 0 0-1.957-.286c-1.266-.005-2.54.348-3.781 1.067a11 11 0 0 1 1.627 2.603q.454-.033.849-.085c1.183-.159 1.844-.454 2.323-.933s.774-1.14.933-2.323zm-16.676.043c-.087-.648-.128-1.406-.147-2.319q.248-.008.497-.007h.016c2.706-.054 5.334.73 7.415 2.195 1.372.965 2.443 2.18 3.152 3.538-.755.014-1.614.014-2.598.014-2.267 0-3.867-.002-5.079-.165-1.182-.159-1.844-.454-2.322-.933-.48-.48-.775-1.14-.934-2.323" clip-rule="evenodd"/></svg>