<svg xmlns="http://www.w3.org/2000/svg" fill="none" viewBox="0 0 24 24"><path fill="currentColor" fill-rule="evenodd" d="M22.334 2.943a1 1 0 0 0-.668-1.885c-.878.31-1.717.904-2.454 1.55-.747.655-1.445 1.415-2.039 2.127A30 30 0 0 0 16.03 6.2a4 4 0 0 0-.85-.782 2.6 2.6 0 0 0-.733-.348 2 2 0 0 0-.27-.057l-.151-.011L14 5a1 1 0 0 0-.094 1.996.7.7 0 0 1 .164.086c.2.133.595.484 1.036 1.365a1 1 0 0 0 1.738.09 24 24 0 0 1 .513-.757c.332-.469.8-1.103 1.352-1.764.554-.664 1.179-1.34 1.822-1.905.653-.572 1.27-.98 1.803-1.168m-6.6 1.643a.23.23 0 0 0 .306-.044q.177-.22.365-.448c.254-.303.528-.619.819-.933.327-.354.49-.531.43-.702-.062-.171-.285-.203-.732-.266l-.077-.01C15.485 2 13.75 2 11.575 2h-.15c-2.175 0-3.91 0-5.27.183-1.405.189-2.558.589-3.47 1.501-.913.913-1.313 2.066-1.502 3.47C1 8.515 1 10.25 1 12.427v.149c0 2.176 0 3.91.183 5.27.189 1.405.589 2.559 1.501 3.47.913.913 2.066 1.313 3.47 1.502C7.515 23 9.25 23 11.427 23h.148c2.176 0 3.911 0 5.271-.183 1.405-.189 2.559-.589 3.47-1.501.913-.912 1.313-2.066 1.502-3.47.183-1.36.183-3.096.183-5.272v-.148c0-2.176 0-3.911-.183-5.271a8.4 8.4 0 0 0-.345-1.56c-.109-.323-.163-.484-.325-.522-.163-.038-.288.087-.538.337-.391.39-.774.817-1.132 1.247a27 27 0 0 0-1.792 2.421 2 2 0 0 1-3.474-.183c-.301-.602-.546-.855-.647-.942A2 2 0 0 1 14 4l.064.002.153.01a3 3 0 0 1 .505.096 3.6 3.6 0 0 1 1.012.477M6.177 20.8q.118.02.245.036c1.211.163 2.811.165 5.079.165s3.867-.002 5.078-.165c1.183-.159 1.844-.454 2.323-.933.48-.48.775-1.14.934-2.323.097-.726.137-1.591.153-2.656-1.425-.84-2.707-1.173-3.874-1.173-1.33 0-2.581.435-3.792 1.173-2.147 1.308-4.046 3.477-5.92 5.617z" clip-rule="evenodd"/></svg>