<svg xmlns="http://www.w3.org/2000/svg" fill="none" viewBox="0 0 24 24"><path fill="currentColor" fill-rule="evenodd" d="M12.825 1.75c2.176 0 2.91 0 4.27.183 1.405.189 2.559.589 3.47 1.501.913.913 1.313 2.066 1.502 3.47.164 1.22.181 3.143.183 5.096l-.007 1.504c-.008 1.741-.047 3.15-.253 4.285-.208 1.157-.6 2.095-1.355 2.85-.858.858-1.95 1.245-3.327 1.43-1.344.181-3.064.181-5.255.181h-.115c-2.19 0-3.91 0-5.254-.18-1.377-.186-2.47-.573-3.327-1.43C2.6 19.883 2.21 18.945 2 17.79c-.205-1.136-.244-2.545-.253-4.286L1.75 12c.002-1.953.019-3.876.183-5.095.189-1.405.589-2.558 1.501-3.47.913-.913 2.066-1.313 3.47-1.502C8.265 1.75 10 1.75 12.177 1.75zm7.26 5.421c.156 1.158.165 3.127.165 5.279a.3.3 0 0 1-.3.3h-3.38c-1.28 0-2.135 1.04-2.546 1.862-.29.582-.854 1.138-2.028 1.138-1.175 0-1.738-.556-2.029-1.138-.41-.822-1.265-1.862-2.546-1.862H4.05a.3.3 0 0 1-.3-.3c0-2.152.01-4.121.165-5.279.159-1.182.454-1.844.933-2.323s1.14-.774 2.323-.933c1.212-.163 3.311-.165 5.579-.165s2.867.002 4.079.165c1.182.159 1.844.455 2.323.933.479.48.774 1.14.933 2.323" clip-rule="evenodd"/></svg>