<svg xmlns="http://www.w3.org/2000/svg" fill="none" viewBox="0 0 24 24"><path fill="currentColor" fill-rule="evenodd" d="M20.31 7.27c.06-.01.13-.01.19-.01v-.01c1.24 0 2.25 1.01 2.25 2.25s-.97 2.21-2.17 2.25a8.75 8.75 0 0 1-3.75 5.54A6.7 6.7 0 0 1 18.75 22c0 .41-.34.75-.75.75H6c-.41 0-.75-.34-.75-.75 0-1.84.73-3.5 1.92-4.71-1.89-1.26-3.28-3.23-3.75-5.54A2.25 2.25 0 0 1 1.25 9.5c0-1.22 1.01-2.25 2.25-2.25.06 0 .13 0 .19.01A8.75 8.75 0 0 1 12 1.25c3.88 0 7.16 2.52 8.31 6.02m-.08 2.94a.755.755 0 0 0 1.02-.7c0-.41-.34-.75-.75-.75-.13 0-.25.03-.35.09-.21.11-.45.12-.67.02a.74.74 0 0 1-.42-.51c-.54-2.34-2.23-4.23-4.43-5.09.07.23.12.48.12.74 0 1.54-1.36 2.75-2.75 2.75-.66 0-1.39-.23-1.95-.65a.75.75 0 0 1 .9-1.2c.29.22.71.35 1.05.35.61 0 1.25-.58 1.25-1.25S12.61 2.76 12 2.76c-3.43 0-6.31 2.39-7.06 5.6-.05.23-.21.41-.42.51-.22.1-.46.09-.67-.02a.7.7 0 0 0-.35-.09c-.41 0-.75.34-.75.75a.755.755 0 0 0 1.02.7c.22-.09.47-.07.67.05s.33.33.36.56c.4 3.62 3.47 6.44 7.2 6.44s6.8-2.82 7.2-6.44c.03-.23.16-.44.36-.56s.45-.14.67-.05m-9.98 3.798c0-.41.34-.75.75-.75h2c.41 0 .75.34.75.75 0 .97-.78 1.75-1.75 1.75s-1.75-.78-1.75-1.75m-1.25-5c-.55 0-1 .45-1 1.01s.45 1 1 1 1-.45 1-1.01-.45-1-1-1m5 1.01c0-.56.45-1.01 1-1.01s1 .44 1 1-.45 1.01-1 1.01-1-.44-1-1" clip-rule="evenodd"/></svg>