<svg xmlns="http://www.w3.org/2000/svg" fill="none" viewBox="0 0 24 24"><path fill="currentColor" fill-rule="evenodd" d="M6.52 8c-2.081 0-3.511 1.646-3.511 4s1.43 4 3.51 4c.395 0 .88-.183 1.442-.59.552-.4 1.094-.956 1.582-1.546A17 17 0 0 0 10.872 12l-.153-.242a17 17 0 0 0-1.176-1.622c-.488-.59-1.03-1.145-1.582-1.546C7.398 8.183 6.914 8 6.52 8m6.681 4 .153.242c.286.447.693 1.037 1.176 1.622.488.59 1.03 1.145 1.582 1.546.563.407 1.047.59 1.441.59 2.081 0 3.51-1.646 3.51-4s-1.429-4-3.51-4c-.394 0-.878.183-1.44.59-.553.4-1.095.956-1.583 1.546A17 17 0 0 0 13.201 12m-1.165 1.88c-.265.386-.585.82-.945 1.256-.545.66-1.21 1.355-1.951 1.892-.732.53-1.63.972-2.62.972-3.459 0-5.517-2.831-5.517-6S3.06 6 6.52 6c.99 0 1.888.442 2.62.972.741.537 1.406 1.232 1.95 1.892.361.436.68.87.947 1.256.265-.386.584-.82.945-1.256.545-.66 1.21-1.355 1.951-1.892.732-.53 1.63-.972 2.62-.972 3.459 0 5.517 2.831 5.517 6s-2.058 6-5.517 6c-.99 0-1.888-.442-2.62-.972-.741-.537-1.406-1.232-1.951-1.892-.36-.436-.68-.87-.945-1.256" clip-rule="evenodd"/></svg>