<svg xmlns="http://www.w3.org/2000/svg" fill="none" viewBox="0 0 24 24"><path fill="currentColor" fill-rule="evenodd" d="M1.25 11c0-5.385 4.365-9.75 9.75-9.75s9.75 4.365 9.75 9.75a9.7 9.7 0 0 1-2.185 6.151l3.892 3.892a1 1 0 0 1-1.414 1.414l-3.892-3.892A9.7 9.7 0 0 1 11 20.75 9.75 9.75 0 0 1 1.25 11M11 3.2a7.8 7.8 0 1 0 0 15.6 7.8 7.8 0 0 0 0-15.6m2.847 7.058a1 1 0 0 1 1.306-1.515l.92.792.032.028c.164.142.356.307.499.468.165.187.396.51.396.969s-.23.782-.396.97c-.143.16-.335.325-.5.467l-.031.028-.92.793a1 1 0 0 1-1.306-1.515L14.71 11zm-5.59-1.41a1 1 0 0 1-.104 1.41L7.29 11l.862.743a1 1 0 1 1-1.306 1.515l-.92-.793-.032-.028c-.164-.141-.356-.306-.499-.468C5.231 11.782 5 11.46 5 11s.23-.782.396-.969c.143-.161.335-.326.5-.468l.031-.028.92-.792a1 1 0 0 1 1.41.104m4.672.024a1 1 0 1 0-1.857-.743l-2 5a1 1 0 1 0 1.857.743z" clip-rule="evenodd"/></svg>