<svg xmlns="http://www.w3.org/2000/svg" fill="none" viewBox="0 0 24 24"><path fill="currentColor" fill-rule="evenodd" d="M8.385 1.113c.148-.065.366-.139.624-.104.28.037.488.196.608.295.127.105.446.42.446.42.529.52 1.233.78 1.937.78s1.408-.26 1.937-.78c0 0 .32-.315.446-.42.12-.1.328-.258.608-.295.258-.035.476.04.624.104.136.058.29.145.438.228l2.04 1.16c.132.092.311.24.414.48.112.26.075.524.049.676a8 8 0 0 1-.146.608c-.36 1.365.519 2.834 1.94 3.212l.025.007c.215.057.416.11.574.167.147.052.394.151.567.375.16.205.202.43.219.59.015.147.015.322.015.493v1.782c0 .17 0 .347-.015.493-.017.16-.06.385-.219.59-.173.224-.42.323-.567.376-.158.056-.6.173-.6.173-1.42.378-2.297 1.846-1.937 3.212 0 0 .117.443.145.608.027.152.063.415-.049.677a1.14 1.14 0 0 1-.413.48l-2.04 1.159c-.15.084-.303.17-.439.229a1.17 1.17 0 0 1-.623.103c-.28-.037-.489-.196-.608-.295-.127-.105-.446-.42-.446-.42a2.76 2.76 0 0 0-1.939-.78c-.705 0-1.41.26-1.939.78 0 0-.319.315-.446.42-.12.1-.327.258-.607.295a1.17 1.17 0 0 1-.624-.104c-.136-.058-.29-.145-.438-.228l-2.04-1.16a1.14 1.14 0 0 1-.414-.48c-.112-.26-.076-.524-.05-.676.03-.165.146-.608.146-.608.36-1.366-.517-2.834-1.938-3.212 0 0-.441-.117-.599-.173-.147-.053-.394-.152-.567-.376a1.13 1.13 0 0 1-.219-.59 5 5 0 0 1-.015-.493V9.109c0-.17 0-.346.015-.493.017-.16.06-.385.219-.59.173-.224.42-.323.567-.375.158-.057.36-.11.574-.167l.025-.007c1.421-.378 2.3-1.847 1.94-3.212-.057-.217-.117-.443-.146-.608-.026-.152-.063-.416.05-.677.102-.239.28-.387.413-.48l2.04-1.159c.149-.083.302-.17.438-.228M15 10.063a3 3 0 1 1-6 0 3 3 0 0 1 6 0M3.5 18a1 1 0 1 0-2 0v.138c0 .795 0 1.386.136 1.897a4 4 0 0 0 2.829 2.829C4.976 23 5.567 23 6.363 23h11.275c.795 0 1.386 0 1.897-.136a4 4 0 0 0 2.829-2.829c.137-.511.137-1.102.136-1.897V18a1 1 0 1 0-2 0c0 .994-.009 1.295-.068 1.518a2 2 0 0 1-1.414 1.414c-.223.06-.524.068-1.518.068h-11c-.994 0-1.295-.009-1.518-.068a2 2 0 0 1-1.414-1.414c-.06-.223-.068-.524-.068-1.518" clip-rule="evenodd"/></svg>