<svg xmlns="http://www.w3.org/2000/svg" fill="none" viewBox="0 0 24 24"><path fill="currentColor" d="M9.294 1.33c.628.084 1.195.27 1.65.725.456.456.642 1.023.726 1.65.08.595.08 1.345.08 2.243V9c0 .964.002 1.612.066 2.095.063.461.17.659.3.789s.328.237.79.3c.482.064 1.13.066 2.094.066h3.052c.899 0 1.648 0 2.242.08.628.084 1.195.27 1.65.726.456.455.642 1.022.726 1.65.08.594.08 1.343.08 2.242v1.104c0 .899 0 1.648-.08 2.242-.084.628-.27 1.195-.726 1.65-.455.456-1.022.642-1.65.726-.594.08-1.343.08-2.242.08H7.945c-1.367 0-2.47 0-3.337-.116-.9-.122-1.658-.38-2.26-.982s-.86-1.36-.981-2.26c-.117-.867-.117-1.97-.117-3.337V5.948c0-.898 0-1.648.08-2.242.084-.628.27-1.195.725-1.65.456-.456 1.023-.642 1.65-.726.595-.08 1.345-.08 2.243-.08h1.104c.899 0 1.648 0 2.242.08"/></svg>