<svg xmlns="http://www.w3.org/2000/svg" fill="none" viewBox="0 0 24 24"><path fill="currentColor" fill-rule="evenodd" d="M12.137 1.417c-.475-.168-.98-.168-1.55-.167-1.525 0-2.933 0-3.912.115-1.012.119-1.88.372-2.615.968q-.406.328-.733.737c-.593.738-.845 1.61-.963 2.629-.114.983-.114 2.22-.114 3.754v4.573c0 1.782 0 3.218.151 4.348.157 1.173.493 2.16 1.273 2.945s1.762 1.122 2.93 1.28c1.123.151 2.694.151 4.467.151s3.202 0 4.326-.152c1.166-.157 2.149-.495 2.929-1.28q.153-.153.284-.318H9.5A3.5 3.5 0 0 1 6 17.5V17a2 2 0 0 1 3-1.732V14a2 2 0 0 1 2-2h8.75v-1.448c0-.664.002-1.252-.222-1.796s-.64-.96-1.106-1.428l-4.783-4.807c-.403-.406-.76-.765-1.214-.984a3 3 0 0 0-.288-.12m4.814 7.197c.618.622.724.752.78.89-1.367 0-2.016 0-2.883-.117-.9-.121-1.658-.38-2.26-.982s-.86-1.36-.981-2.26c-.117-.865-.117-1.513-.117-2.875v-.008c.182.054.323.188.856.724zm.663 4.743a.75.75 0 0 1 1.03.257l.856 1.428.857-1.428a.75.75 0 0 1 1.286.772L20.375 16.5l1.268 2.114a.75.75 0 1 1-1.286.772l-.857-1.428-.857 1.428a.75.75 0 1 1-1.286-.772l1.268-2.114-1.268-2.114a.75.75 0 0 1 .257-1.029M11 13.25a.75.75 0 0 1 .75.75v3.5a2.25 2.25 0 1 1-4.5 0V17a.75.75 0 0 1 1.5 0v.5a.75.75 0 0 0 1.5 0V14a.75.75 0 0 1 .75-.75m3.492 0a1.75 1.75 0 0 0-1.75 1.75v.5c0 .967.783 1.75 1.75 1.75h.17a.25.25 0 0 1 .25.25v.5a.25.25 0 0 1-.25.25h-1.17a.75.75 0 0 0 0 1.5h1.17a1.75 1.75 0 0 0 1.75-1.75v-.5a1.75 1.75 0 0 0-1.75-1.75h-.17a.25.25 0 0 1-.25-.25V15a.25.25 0 0 1 .25-.25h1.17a.75.75 0 0 0 0-1.5z" clip-rule="evenodd"/></svg>