<svg xmlns="http://www.w3.org/2000/svg" fill="none" viewBox="0 0 24 24"><path fill="currentColor" fill-rule="evenodd" d="M13 1a1 1 0 0 1 1 1v.5l-.001.05c2.368.238 4.474 1.36 5.402 3.7h1.327c.247 0 .523.015.788.083.275.07.594.212.847.505.493.573.41 1.33.314 1.838-.33 1.743-1.265 3.277-2.606 4.167l.569 5.976c.072.75.133 1.4.1 1.922-.035.57-.188 1.11-.643 1.543-.438.417-.99.575-1.583.647-.57.069-1.296.069-2.172.069H9.658c-.876 0-1.602 0-2.172-.07-.593-.071-1.145-.23-1.584-.646-.454-.433-.607-.972-.643-1.543-.031-.497.023-1.108.09-1.81-.68-.337-1.34-.735-1.894-1.308-.709-.733-1.176-1.677-1.416-2.958l-.446-2.373-.011-.058c-.152-.806-.282-1.497-.32-2.065-.04-.601.009-1.204.334-1.769.335-.583.838-.905 1.388-1.121.493-.194 1.12-.337 1.815-.495l.067-.016 1.679-.383c.9-2.432 3.042-3.593 5.456-3.836L12 2.5V2a1 1 0 0 1 1-1M8.853 6.25h8.292c-.81-1.168-2.254-1.75-4.146-1.75s-3.335.582-4.146 1.75M6.344 8.483l-1.033.235c-.783.179-1.26.29-1.596.422-.295.116-.353.2-.386.258-.044.077-.1.222-.071.636.029.435.135 1.008.3 1.888l.446 2.374c.183.974.502 1.537.889 1.937.187.193.404.364.663.528zm13.49 1.863a4.9 4.9 0 0 0 .888-2.096h-1.088zM14 11.25a1 1 0 0 1 1 1c0 .863-.145 1.525-.418 2.072-.26.522-.609.87-.853 1.113l-.022.022c-.255.256-.394.403-.5.615-.102.203-.207.541-.207 1.178a1 1 0 1 1-2 0c0-.863.145-1.525.418-2.072.26-.522.609-.87.853-1.113l.022-.022c.255-.256.394-.403.5-.615.102-.203.207-.541.207-1.178a1 1 0 0 1 1-1" clip-rule="evenodd"/></svg>