<svg xmlns="http://www.w3.org/2000/svg" fill="none" viewBox="0 0 24 24"><path fill="currentColor" fill-rule="evenodd" d="M14.97 5.026a1.4 1.4 0 0 0-.304.222 1 1 0 1 1-1.328-1.496c.458-.406 1.008-.752 1.73-.752.68 0 1.21.307 1.652.684.404.344.837.836 1.322 1.387l.045.05 2.616 2.97c.66.75 1.218 1.381 1.601 1.944.406.595.696 1.221.696 1.965s-.29 1.37-.696 1.965c-.383.563-.94 1.195-1.601 1.945l-2.66 3.02c-.486.55-.919 1.042-1.323 1.386-.443.377-.971.684-1.652.684-.722 0-1.272-.346-1.73-.752a1 1 0 0 1 1.328-1.496c.148.132.244.193.304.222a.2.2 0 0 0 .098.026h.002c.022 0 .107.002.353-.207.282-.24.62-.62 1.163-1.236l2.575-2.923c.713-.81 1.185-1.348 1.49-1.795.29-.426.349-.658.349-.839s-.058-.413-.349-.839c-.305-.447-.777-.986-1.49-1.795l-2.575-2.923c-.543-.617-.881-.997-1.163-1.236-.245-.21-.33-.207-.353-.207h-.002a.2.2 0 0 0-.098.026M5.5 7.5a1 1 0 0 1 1 1V11H9a1 1 0 1 1 0 2H6.5v2.5a1 1 0 1 1-2 0V13H2a1 1 0 1 1 0-2h2.5V8.5a1 1 0 0 1 1-1M9 3c-.68 0-1.21.304-1.657.68-.408.345-.846.837-1.336 1.388-.326.367-.49.55-.473.686.003.02.005.028.01.047.039.13.31.255.851.503C7.292 6.716 8 7.54 8 8.5v.4c0 .283 0 .424.088.512s.23.088.512.088H9a2.5 2.5 0 1 1 0 5h-.4c-.282 0-.424 0-.512.088S8 14.818 8 15.1v.4c0 .961-.708 1.784-1.605 2.196-.541.248-.812.372-.85.503a.2.2 0 0 0-.01.047c-.018.136.146.32.472.686.49.551.928 1.043 1.336 1.387.447.377.977.681 1.658.681s1.211-.305 1.658-.68c.408-.345.845-.836 1.335-1.387l2.687-3.02c.667-.75 1.23-1.381 1.616-1.944.41-.595.704-1.223.704-1.969s-.294-1.374-.704-1.97c-.387-.562-.949-1.193-1.616-1.943l-2.687-3.02c-.49-.55-.927-1.042-1.335-1.386C10.212 3.304 9.682 3 9 3" clip-rule="evenodd"/></svg>