<svg xmlns="http://www.w3.org/2000/svg" fill="none" viewBox="0 0 24 24"><path fill="currentColor" fill-rule="evenodd" d="M10.73 6.083c.215-1.925-1.358-3.833-4.159-3.833H6.57c-3.063 0-5.322 2.934-5.322 6.25 0 1.635.413 3.171 1.222 4.321.821 1.166 2.053 1.929 3.592 1.929 2.026 0 3.256-1.6 3.042-3.147V9.461a2 2 0 0 0-.244-.221c-.325-.244-.73-.379-1.165-.443a3.4 3.4 0 0 1-.465 1.184c-.182.279-.581.769-1.231.769a.75.75 0 0 1-.097-1.494 1 1 0 0 0 .071-.094 2 2 0 0 0 .217-.498c.083-.307.076-.756 0-1.25a7 7 0 0 0-.286-1.162.75.75 0 1 1 1.413-.504c.116.327.266.859.355 1.438l.015.098c.675.071 1.427.27 2.076.758q.071.053.139.11a3 3 0 0 0 .289-.419 4.7 4.7 0 0 0 .539-1.638zM9.11 8.771v.692c.353.385.644 1.034.644 2.177 0 1.553-.29 2.69-.573 3.806l-.013.05q-.11.423-.208.852c-.335 1.461-.478 2.93.35 4.938a.75.75 0 1 0 1.387-.572c-.672-1.631-.566-2.762-.275-4.031q.088-.383.198-.801c.289-1.132.634-2.484.634-4.242 0-1.652-.508-2.783-1.347-3.487a2.2 2.2 0 0 1-.796.618m5.783.692v-.692a2.2 2.2 0 0 1-.796-.618c-.84.704-1.347 1.835-1.347 3.487 0 1.758.345 3.11.634 4.242l.024.093q.095.367.174.708c.29 1.269.397 2.4-.276 4.031a.75.75 0 0 0 1.387.572c.828-2.008.685-3.477.351-4.938q-.098-.422-.206-.838l-.016-.064-.001-.005c-.283-1.115-.571-2.25-.571-3.801 0-1.143.29-1.792.643-2.177m-1.622-3.38c-.215-1.925 1.358-3.833 4.16-3.833 3.063 0 5.321 2.934 5.321 6.25 0 1.635-.413 3.171-1.22 4.321-.822 1.166-2.054 1.929-3.593 1.929-2.026 0-3.257-1.6-3.042-3.147V9.461q.12-.129.243-.221c.325-.244.73-.379 1.166-.443q.023.13.055.254c.066.244.2.608.41.93.181.279.58.769 1.231.769a.75.75 0 0 0 .098-1.494 1 1 0 0 1-.073-.094c-.1-.154-.18-.362-.217-.498-.082-.307-.073-.756.003-1.25.074-.478.199-.917.286-1.162a.75.75 0 1 0-1.414-.504 8.4 8.4 0 0 0-.355 1.438l-.008.052-.006.046c-.675.071-1.429.27-2.077.758a3 3 0 0 0-.139.11 3 3 0 0 1-.29-.419 4.6 4.6 0 0 1-.537-1.638z" clip-rule="evenodd"/></svg>