<svg xmlns="http://www.w3.org/2000/svg" fill="none" viewBox="0 0 24 24"><path fill="currentColor" fill-rule="evenodd" d="M17.75 2.25a1 1 0 1 0-2 0v3h-3a1 1 0 1 0 0 2h3v3a1 1 0 1 0 2 0v-3h3a1 1 0 1 0 0-2h-3zm-11.828.082c.612-.082 1.376-.082 2.262-.082h2.189a1 1 0 1 1 0 2H8.25c-.971 0-1.599.002-2.061.064-.434.059-.57.153-.646.229s-.17.212-.229.646c-.062.462-.064 1.09-.064 2.061v6.4c0 .283 0 .424.088.512s.23.088.512.088h12.3c.283 0 .424 0 .512-.088s.088-.23.088-.512v-.9a1 1 0 1 1 2 0v2l.001.1a.2.2 0 0 0 .023.091l.03.059.358.658c.726 1.34 1.215 2.406 1.44 3.29.233.91.205 1.701-.189 2.418-.44.8-1.228 1.112-2.111 1.25-.854.134-1.992.134-3.389.134H7.087c-1.397 0-2.535 0-3.389-.134-.883-.138-1.67-.45-2.111-1.25-.395-.716-.422-1.508-.19-2.417.226-.884.713-1.948 1.437-3.284l.376-.731.01-.02a.25.25 0 0 0 .03-.123V7.184c0-.886 0-1.65.082-2.262.088-.655.287-1.284.797-1.793.51-.51 1.138-.709 1.793-.797" clip-rule="evenodd"/></svg>