<svg xmlns="http://www.w3.org/2000/svg" fill="none" viewBox="0 0 24 24"><path fill="currentColor" fill-rule="evenodd" d="M17.5 1.25c-1.512 0-2.754 1.06-3.117 2.464-1.248.385-2.133 1.576-2.133 2.953 0 1.677 1.318 3.083 3 3.083h4.725c1.558 0 2.775-1.302 2.775-2.85 0-1.316-.879-2.454-2.1-2.766a4.5 4.5 0 0 0-.305-1.035 3.14 3.14 0 0 0-.964-1.26c-.486-.367-1.11-.589-1.881-.589M5.922 2.332c.612-.082 1.376-.082 2.262-.082h2.669a1 1 0 1 1 0 2H8.25c-.971 0-1.599.002-2.061.064-.434.059-.57.153-.646.229s-.17.212-.229.646c-.062.462-.064 1.09-.064 2.061v6.4c0 .283 0 .424.088.512s.23.088.512.088h12.3c.283 0 .424 0 .512-.088s.088-.23.088-.512v-1.9a1 1 0 1 1 2 0v3l.001.1a.2.2 0 0 0 .023.091l.03.059.358.658c.726 1.34 1.215 2.406 1.44 3.29.233.91.205 1.701-.189 2.418-.44.8-1.228 1.112-2.111 1.25-.854.134-1.992.134-3.389.134H7.087c-1.397 0-2.535 0-3.389-.134-.883-.138-1.67-.45-2.111-1.25-.395-.716-.422-1.508-.19-2.417.226-.884.713-1.948 1.437-3.284l.376-.731.01-.02a.25.25 0 0 0 .03-.123V7.184c0-.886 0-1.65.082-2.262.088-.655.287-1.284.797-1.793.51-.51 1.138-.709 1.793-.797" clip-rule="evenodd"/></svg>