<svg xmlns="http://www.w3.org/2000/svg" fill="none" viewBox="0 0 24 24"><path fill="currentColor" fill-rule="evenodd" d="M16.745 1.968v-.012a.75.75 0 0 0-.711-.705h-.012c-.068 0-.239-.002-.332.002a5.5 5.5 0 0 0-.783.088c-.603.112-1.432.372-2.069 1.01-.637.637-.894 1.464-1.003 2.066a5.5 5.5 0 0 0-.084.808q-.414.498-.756 1.004c-.347-.815-.998-1.367-1.505-1.7a6 6 0 0 0-.693-.388 8 8 0 0 0-.308-.131l-.011-.005a.75.75 0 0 0-.928.376l-.005.01c-.028.064-.097.221-.13.31-.07.186-.159.449-.228.76-.135.604-.22 1.475.12 2.318.341.842 1.008 1.409 1.526 1.75a6 6 0 0 0 .55.318 10 10 0 0 0-.259 2.111c-.69-.524-1.51-.686-2.105-.731a6 6 0 0 0-.793-.004 8 8 0 0 0-.333.035l-.012.001a.75.75 0 0 0-.63.779v.01c.007.07.023.24.036.334.029.197.08.47.17.776.174.594.521 1.397 1.227 1.97.706.571 1.565.744 2.182.791a5.6 5.6 0 0 0 .968-.013q.192.506.428.986c.265.542.57 1.059.905 1.544-.79.096-1.452.48-1.9.811-.255.19-.46.377-.602.518-.067.066-.182.193-.229.244l-.008.008a.75.75 0 0 0 .035 1.002l.008.007c.05.048.173.167.245.229.15.13.367.303.635.475.521.335 1.31.714 2.218.683.909-.03 1.67-.462 2.168-.831q.163-.12.297-.237c1.249.867 2.635 1.405 3.967 1.405a.75.75 0 0 0 0-1.5c-.79 0-1.686-.274-2.586-.801.465-.258.964-.64 1.32-1.194.49-.765.568-1.637.547-2.256a6 6 0 0 0-.084-.79 8 8 0 0 0-.07-.327l-.003-.012a.75.75 0 0 0-.843-.54l-.011.002a8 8 0 0 0-.327.072 6 6 0 0 0-.753.253c-.571.239-1.332.673-1.823 1.437a3.4 3.4 0 0 0-.461 1.164 10.6 10.6 0 0 1-1.46-2.371c.618.022 1.477-.054 2.235-.532.768-.486 1.207-1.243 1.45-1.813.125-.293.207-.557.258-.75.024-.092.06-.26.074-.327l.003-.011a.75.75 0 0 0-.535-.847h-.002l-.01-.003a8 8 0 0 0-.326-.073 6 6 0 0 0-.789-.089c-.618-.026-1.491.046-2.26.531-.37.233-.663.53-.895.839a8.5 8.5 0 0 1 .16-2.465c.56.253 1.375.503 2.248.35.895-.155 1.59-.688 2.031-1.122a5.6 5.6 0 0 0 .718-.869l.006-.01a.75.75 0 0 0-.171-.986l-.01-.007a8 8 0 0 0-.274-.192 6 6 0 0 0-.695-.383c-.542-.25-1.337-.507-2.195-.386q.184-.25.389-.5c.193-.01.447-.034.733-.086.603-.112 1.432-.373 2.069-1.01s.894-1.465 1.003-2.067a5.5 5.5 0 0 0 .083-.78 8 8 0 0 0 0-.331" clip-rule="evenodd"/></svg>