<svg xmlns="http://www.w3.org/2000/svg" fill="none" viewBox="0 0 24 24"><path fill="currentColor" fill-rule="evenodd" d="M6.263 2.394a10 10 0 0 1-.013-.39v-.011a.75.75 0 0 1 .685-.73h.002l.012-.001a8 8 0 0 1 .388-.012c.235.002.56.017.93.072.722.108 1.7.382 2.465 1.098.527.493.85 1.1 1.052 1.664a6 6 0 0 1 .28-.427c.065-.091.19-.248.238-.31l.008-.01a.75.75 0 0 1 .991-.128l.01.008c.063.047.223.167.31.238.18.15.42.368.671.645.489.541 1.07 1.375 1.205 2.413.087.666-.026 1.297-.207 1.835q.182-.087.326-.145c.103-.042.292-.108.367-.135l.011-.004a.75.75 0 0 1 .908.42l.004.01c.029.075.1.261.135.367.072.223.16.536.224.904.125.718.173 1.732-.267 2.682-.21.455-.505.835-.824 1.148.224.003.42.018.575.034.11.012.309.043.387.055l.011.002a.75.75 0 0 1 .601.802l-.002.01c-.01.078-.035.277-.055.387a7 7 0 0 1-.233.901c-.232.692-.673 1.606-1.512 2.234-.838.627-1.841.792-2.57.82-.374.015-1.017-.048-1.25-.072H8.993a1.243 1.243 0 1 0 0 2.486H11a.75.75 0 0 1 0 1.5H8.993a2.743 2.743 0 0 1 0-5.486h2.568a7 7 0 0 1 .173-.616c.212-.631.598-1.449 1.303-2.064l-.033-.065-.004-.01c-.028-.075-.1-.261-.134-.367a7 7 0 0 1-.225-.904c-.125-.718-.172-1.732.268-2.683q.07-.15.15-.29l-.152-.12a7 7 0 0 1-.672-.646c-.489-.54-1.07-1.374-1.205-2.412a4 4 0 0 1-.023-.234 7 7 0 0 1-.89-.057c-.722-.108-1.701-.382-2.466-1.098S6.55 4.03 6.395 3.316a7 7 0 0 1-.132-.922" clip-rule="evenodd"/></svg>