<svg xmlns="http://www.w3.org/2000/svg" fill="none" viewBox="0 0 24 24"><path fill="currentColor" fill-rule="evenodd" d="M7.858 2.426a.75.75 0 0 0-.746-.127c-.073.03-.244.102-.332.147-.19.096-.444.245-.71.458-.534.425-1.142 1.131-1.329 2.196-.186 1.064.144 1.94.497 2.527.124.205.252.38.368.52q-.135.472-.22.966a3.77 3.77 0 0 0-2.24-.857 4.4 4.4 0 0 0-.89.043c-.104.016-.294.06-.372.077l-.013.003h-.002a.75.75 0 0 0-.518.535l-.003.016c-.015.08-.053.272-.065.376a4.6 4.6 0 0 0-.02.897c.056.72.308 1.672 1.115 2.47.809.799 1.759 1.032 2.476 1.07.353.02.658-.008.878-.04q.163.482.375.935a3.34 3.34 0 0 0-1.642.195c-.972.373-1.525 1.083-1.827 1.666a4 4 0 0 0-.3.759c-.026.093-.062.269-.077.341l-.003.014v.002a.75.75 0 0 0 .266.688l.014.01c.061.044.206.15.287.2.175.109.426.245.734.36.617.23 1.505.386 2.476.013s1.525-1.083 1.827-1.666l.05-.1a6.4 6.4 0 0 0 2.001 1.245 5 5 0 0 0-.507.784 7.5 7.5 0 0 0-.483 1.148c-.05.15-.123.423-.151.526l-.003.01a.75.75 0 0 0 1.463.333 6 6 0 0 1 .5-1.315c.375-.708.804-1.091 1.251-1.1h.034c.448.009.877.392 1.252 1.1a6 6 0 0 1 .5 1.316.75.75 0 0 0 1.462-.334l-.002-.01a7.5 7.5 0 0 0-.634-1.674 5 5 0 0 0-.508-.784 6.4 6.4 0 0 0 2.001-1.245l.05.1c.302.583.855 1.293 1.827 1.666.971.373 1.86.216 2.476-.013.309-.115.559-.251.734-.36.08-.05.226-.156.287-.2l.014-.01a.75.75 0 0 0 .266-.687l-.003-.017a6 6 0 0 0-.077-.341 4 4 0 0 0-.3-.759c-.302-.583-.855-1.293-1.827-1.666a3.34 3.34 0 0 0-1.642-.195q.218-.464.383-.959c.29.039.646.077.87.065.717-.039 1.667-.272 2.476-1.071.807-.798 1.058-1.75 1.114-2.47a4.6 4.6 0 0 0-.018-.897 7 7 0 0 0-.066-.376l-.003-.016a.75.75 0 0 0-.517-.534l-.017-.004c-.08-.018-.269-.061-.372-.077a4.4 4.4 0 0 0-.889-.043 3.78 3.78 0 0 0-2.24.857 9 9 0 0 0-.22-.966c.116-.14.245-.315.368-.52.353-.587.683-1.463.497-2.527s-.795-1.77-1.328-2.196a4.2 4.2 0 0 0-.71-.458 6 6 0 0 0-.332-.147l-.016-.007a.75.75 0 0 0-.731.134l-.012.012a7 7 0 0 0-.26.254 4.3 4.3 0 0 0-.507.681c-.353.587-.683 1.463-.497 2.527s.795 1.77 1.328 2.196a4.2 4.2 0 0 0 .764.484c.189.67.292 1.393.292 2.147 0 3.733-2.464 6.506-5.225 6.523h-.05c-2.76-.017-5.225-2.79-5.225-6.523 0-.754.103-1.476.292-2.147l.053-.026c.19-.096.444-.245.711-.458.533-.425 1.142-1.131 1.328-2.196.186-1.064-.144-1.94-.497-2.527a4.3 4.3 0 0 0-.508-.68 6 6 0 0 0-.259-.255z" clip-rule="evenodd"/></svg>