<svg xmlns="http://www.w3.org/2000/svg" fill="none" viewBox="0 0 24 24"><path fill="currentColor" fill-rule="evenodd" d="M7.127 3.292a.75.75 0 0 1 .731.134l.001.001.011.01c.056.054.192.181.26.255.143.158.33.388.507.681.353.587.683 1.463.497 2.527s-.795 1.77-1.328 2.196a4.2 4.2 0 0 1-.764.484 8 8 0 0 0-.292 2.147c0 1 .345 2.051.879 3.015.53.956 1.22 1.777 1.85 2.317q.039.033.073.07a.75.75 0 0 1 .172.706 5 5 0 0 1-.062.267 4 4 0 0 1-.3.758c-.302.584-.855 1.294-1.827 1.666-.97.373-1.86.217-2.476-.012a4 4 0 0 1-.733-.36c-.082-.05-.227-.156-.288-.2l-.013-.01a.75.75 0 0 1-.267-.688v-.001l.003-.015c.015-.074.051-.25.077-.342a4 4 0 0 1 .3-.758c.302-.584.855-1.293 1.827-1.666.29-.112.573-.176.844-.205a10.6 10.6 0 0 1-.79-1.381l-.062.016c-.213.05-.513.102-.864.112-.703.02-1.65-.133-2.502-.849-.852-.715-1.173-1.625-1.285-2.323a4.5 4.5 0 0 1-.053-.875c.004-.103.026-.294.034-.373l.002-.016a.75.75 0 0 1 .472-.575L1.777 10a6 6 0 0 1 .358-.105c.213-.05.512-.102.864-.112.655-.018 1.523.113 2.33.713q.09-.697.277-1.35a4 4 0 0 1-.368-.52C4.885 8.04 4.555 7.165 4.74 6.1c.187-1.065.795-1.77 1.328-2.196.267-.213.521-.362.711-.458.089-.046.26-.117.331-.147l.015-.006m9.015.134a.75.75 0 0 1 .731-.134l.016.007c.072.03.243.102.331.147.19.096.445.245.711.458.534.425 1.142 1.131 1.328 2.196.186 1.064-.143 1.94-.496 2.527-.124.205-.253.38-.368.52q.186.652.277 1.348c.806-.599 1.674-.73 2.33-.712.35.01.65.062.863.112.1.024.282.08.358.105l.016.005a.75.75 0 0 1 .472.575l.002.016c.009.08.03.27.034.373.009.22.003.526-.053.875-.112.698-.433 1.608-1.285 2.323-.853.716-1.8.868-2.502.849a4.3 4.3 0 0 1-.926-.128 10.6 10.6 0 0 1-.79 1.381c.27.03.554.093.844.205.972.373 1.525 1.082 1.827 1.666.151.292.244.56.3.758.026.092.062.267.077.342l.003.016a.75.75 0 0 1-.266.687l-.014.01c-.061.045-.206.15-.287.2a4 4 0 0 1-.734.36c-.616.23-1.505.386-2.476.013-.972-.372-1.525-1.082-1.827-1.666a4 4 0 0 1-.3-.758 5 5 0 0 1-.061-.267.75.75 0 0 1 .245-.776c.629-.54 1.319-1.36 1.85-2.317.534-.964.879-2.015.879-3.015a8 8 0 0 0-.293-2.147l-.053-.026a4.2 4.2 0 0 1-.71-.458c-.534-.425-1.142-1.131-1.329-2.196-.186-1.064.144-1.94.497-2.527.177-.293.364-.523.508-.68a6 6 0 0 1 .259-.255zm-5.144 11.827H13c.408 0 .747-.34.747-.75s-.339-.75-.747-.75h-.25v-4.25c0-.26-.139-.5-.358-.64a.73.73 0 0 0-.728-.03l-.996.5a.747.747 0 0 0-.339 1.01c.17.34.568.49.917.37v3.04h-.25a.754.754 0 0 0-.747.75c0 .41.34.75.748.75" clip-rule="evenodd"/></svg>