<svg xmlns="http://www.w3.org/2000/svg" fill="none" viewBox="0 0 24 24"><path fill="currentColor" fill-rule="evenodd" d="M1.99 7a.31.31 0 0 1-.31-.345c.19-1.405.59-2.559 1.5-3.471.92-.912 2.07-1.313 3.47-1.501l.243-.03.047-.006c.48-.054.72-.081.89.068s.17.401.17.904V6c0 .472 0 .707-.15.854C7.7 7 7.47 7 7 7zm8.15-5.352c.15-.146.38-.147.85-.148h1.08c2.18 0 3.91 0 5.27.183 1.41.188 2.56.589 3.48 1.501.91.912 1.31 2.066 1.5 3.471a.31.31 0 0 1-.31.345H11c-.47 0-.71 0-.86-.146C10 6.707 10 6.472 10 6V2.496c0-.468 0-.701.14-.848M22.01 17c.19 0 .33.161.31.345-.19 1.404-.59 2.558-1.5 3.471-.92.912-2.07 1.312-3.48 1.501-1.36.183-3.09.183-5.27.183h-.15l-.93-.001h-.005c-.467-.001-.696-.002-.845-.148-.14-.146-.14-.38-.14-.847V18c0-.471 0-.707.14-.853.15-.147.39-.147.86-.147zM6.944 22.354l-.004-.001-.047-.006-.243-.03c-1.4-.189-2.55-.589-3.47-1.501-.91-.913-1.31-2.067-1.5-3.471A.31.31 0 0 1 1.99 17H7c.47 0 .7 0 .85.147.15.146.15.382.15.853v3.381c0 .503 0 .754-.17.903s-.409.122-.886.07M1.5 12.074v-.149c0-.695 0-1.344.01-1.951 0-.456 0-.685.15-.829C1.8 9 2.04 9 2.5 9H7c.47 0 .7 0 .85.146.15.147.15.382.15.854v4c0 .471 0 .707-.15.853S7.47 15 7 15H2.5c-.46 0-.7 0-.84-.145-.15-.145-.15-.373-.15-.83-.01-.607-.01-1.256-.01-1.951m20.84-2.929c.15.144.15.373.15.829.01.607.01 1.256.01 1.951v.149c0 .695 0 1.344-.01 1.951 0 .457 0 .685-.15.83s-.38.145-.84.145H11c-.47 0-.71 0-.86-.147C10 14.707 10 14.471 10 14v-4c0-.472 0-.707.14-.854C10.29 9 10.53 9 11 9h10.5c.46 0 .69 0 .84.145" clip-rule="evenodd"/></svg>