<svg xmlns="http://www.w3.org/2000/svg" fill="none" viewBox="0 0 24 24"><path fill="currentColor" fill-rule="evenodd" d="M1.817 7.83c-.15-.16-.123-.4-.07-.88l.037-.3c.189-1.4.589-2.55 1.5-3.47.914-.91 2.067-1.31 3.472-1.5 1.36-.18 3.094-.18 5.27-.18h.15c2.176 0 3.91 0 5.27.18 1.405.19 2.559.59 3.47 1.5.913.92 1.314 2.07 1.502 3.47q.019.15.035.3c.055.48.082.72-.067.88-.15.17-.401.17-.904.17H2.72c-.503 0-.754 0-.903-.17m-.215 4.24v-.14h.002v-.94c0-.47 0-.7.147-.84.147-.15.38-.15.848-.15h19.008c.466 0 .7 0 .848.15.147.14.147.37.147.84v1.08c0 2.18 0 3.92-.183 5.28-.19 1.4-.59 2.55-1.501 3.47-.913.91-2.066 1.31-3.471 1.5-1.36.18-3.095.18-5.27.18h-.15c-2.176 0-3.91 0-5.27-.18-1.405-.19-2.558-.59-3.471-1.5-.912-.92-1.312-2.07-1.501-3.47-.183-1.36-.183-3.1-.183-5.28" clip-rule="evenodd"/></svg>