<svg xmlns="http://www.w3.org/2000/svg" fill="none" viewBox="0 0 24 24"><path fill="currentColor" fill-rule="evenodd" d="M10.146 1.65c.146-.15.379-.15.844-.15h1.084c2.176 0 3.911 0 5.271.18 1.404.19 2.558.59 3.471 1.5.912.92 1.312 2.07 1.501 3.47.183 1.36.183 3.1.183 5.28v.14c0 2.18 0 3.92-.183 5.28-.189 1.4-.589 2.55-1.501 3.47-.913.91-2.067 1.31-3.471 1.5-1.36.18-3.095.18-5.27.18H10.99c-.465 0-.698 0-.844-.15C10 22.21 10 21.97 10 21.5v-19c0-.47 0-.71.146-.85M1.5 12.08v-.15c0-2.18 0-3.91.183-5.27.188-1.41.589-2.56 1.501-3.47.912-.92 2.066-1.32 3.471-1.51l.291-.03c.48-.06.72-.08.887.07s.167.4.167.9v18.76c0 .51 0 .76-.167.91-.167.14-.407.12-.887.06l-.291-.03c-1.405-.19-2.559-.59-3.471-1.5-.912-.92-1.313-2.07-1.501-3.47-.183-1.36-.183-3.1-.183-5.27" clip-rule="evenodd"/></svg>