<svg xmlns="http://www.w3.org/2000/svg" fill="none" viewBox="0 0 24 24"><path fill="currentColor" fill-rule="evenodd" d="M10.146 1.648c.146-.146.379-.147.845-.147V1.5h1.083c2.176 0 3.911 0 5.271.183 1.405.189 2.558.589 3.471 1.501.912.913 1.312 2.066 1.501 3.471.125.931.165 2.039.177 3.343.005.47.007.706-.14.854-.146.148-.383.148-.856.148H11c-.471 0-.707 0-.854-.146C10 10.707 10 10.471 10 10V2.496c0-.467 0-.701.146-.848m12.208 11.5c.147.148.145.384.14.854v-.001c-.012 1.304-.052 2.412-.177 3.343-.189 1.405-.589 2.558-1.501 3.471-.913.912-2.066 1.312-3.471 1.501-1.36.183-3.095.183-5.271.183h-1.083c-.466 0-.699-.001-.845-.147-.146-.147-.146-.381-.146-.848V14c0-.471 0-.707.146-.854C10.293 13 10.529 13 11 13h10.498c.473 0 .71 0 .856.148M1.5 12.076v-.149c0-2.176 0-3.911.183-5.271.189-1.405.589-2.558 1.501-3.471.913-.912 2.066-1.312 3.471-1.501q.142-.02.291-.036c.481-.054.721-.08.887.069s.167.4.167.903v18.762c0 .503 0 .755-.167.904-.166.149-.406.122-.887.068l-.291-.036c-1.405-.189-2.558-.589-3.471-1.501-.912-.912-1.312-2.066-1.501-3.471-.183-1.36-.183-3.094-.183-5.27" clip-rule="evenodd"/></svg>