<svg xmlns="http://www.w3.org/2000/svg" fill="none" viewBox="0 0 24 24"><path fill="currentColor" fill-rule="evenodd" d="M1.645 6.95v-.003l.037-.292c.189-1.404.589-2.558 1.5-3.471.914-.912 2.068-1.312 3.472-1.501 1.36-.183 3.095-.183 5.27-.183h.15c2.176 0 3.91 0 5.27.183 1.405.189 2.558.588 3.47 1.501.914.913 1.314 2.067 1.503 3.471l.035.292c.054.48.08.72-.068.887-.15.166-.401.166-.903.166H2.618c-.503 0-.754 0-.903-.166-.149-.167-.123-.406-.07-.883M1.5 12.076v-.149h.001v-.939c.001-.463.001-.696.148-.841.146-.146.38-.146.847-.146H14c.472 0 .707 0 .854.147.146.146.146.382.146.853v10.503c0 .462 0 .692-.145.838-.144.147-.373.149-.829.153q-.91.008-1.951.006h-.149c-2.176 0-3.911 0-5.271-.183-1.404-.188-2.558-.589-3.471-1.501-.912-.912-1.312-2.066-1.501-3.471-.183-1.36-.183-3.094-.183-5.27m20.852-1.929c.146.146.148.379.148.845v1.084c0 2.176 0 3.91-.183 5.27-.188 1.405-.589 2.559-1.501 3.471s-2.066 1.313-3.471 1.501a.306.306 0 0 1-.345-.306V11c0-.471 0-.707.147-.853C17.293 10 17.529 10 18 10h3.504c.468 0 .701 0 .848.146" clip-rule="evenodd"/></svg>