<svg xmlns="http://www.w3.org/2000/svg" fill="none" viewBox="0 0 24 24"><path fill="currentColor" fill-rule="evenodd" d="M1.715 7.833c-.149-.166-.123-.406-.069-.887q.016-.149.036-.291c.189-1.405.589-2.558 1.501-3.471.913-.912 2.066-1.312 3.471-1.501C8.014 1.5 9.749 1.5 11.925 1.5h.149c2.176 0 3.91 0 5.27.183 1.405.189 2.559.589 3.471 1.501.912.913 1.313 2.066 1.501 3.471q.02.142.036.291c.054.481.08.721-.068.887S21.883 8 21.38 8H2.618c-.503 0-.754 0-.903-.167M1.5 12.074v-.148h.001v-.935c0-.466.001-.699.147-.845.147-.146.381-.146.848-.146H6c.471 0 .707 0 .854.146C7 10.293 7 10.529 7 11v11.011a.306.306 0 0 1-.345.306c-1.405-.189-2.558-.589-3.471-1.501-.912-.913-1.312-2.066-1.501-3.471-.183-1.36-.183-3.095-.183-5.271m20.852-1.928c.147.146.147.379.147.845h.001v1.083c0 2.176 0 3.911-.183 5.271-.189 1.405-.589 2.558-1.501 3.471-.913.912-2.066 1.312-3.471 1.501a.306.306 0 0 1-.345-.306V11c0-.471 0-.707.146-.854C17.293 10 17.529 10 18 10h3.504c.467 0 .701 0 .848.146m-7.497 12.195c-.144.146-.373.149-.829.153q-.91.008-1.952.006h-.148q-1.042.002-1.952-.006c-.456-.004-.685-.007-.829-.153C9 22.195 9 21.964 9 21.503V11c0-.471 0-.707.146-.854C9.293 10 9.529 10 10 10h4c.471 0 .707 0 .854.146.146.147.146.383.146.854v10.503c0 .461 0 .692-.145.838" clip-rule="evenodd"/></svg>