<svg xmlns="http://www.w3.org/2000/svg" fill="none" viewBox="0 0 24 24"><path fill="currentColor" fill-rule="evenodd" d="M9.193 2.364a.75.75 0 0 1 .795 0c.102.07.321.223.384.272.222.17.524.419.853.746a8.4 8.4 0 0 1 1.548 2.088c1.327-.71 2.693-.937 3.767-.98a10 10 0 0 1 1.59.06c.227.023.53.08.653.105a.75.75 0 0 1 .562.562c.029.161.09.517.106.654.046.393.086.944.06 1.59-.044 1.073-.272 2.44-.98 3.766a8.4 8.4 0 0 1 2.087 1.548c.327.33.577.631.747.853.046.06.2.281.271.384a.75.75 0 0 1 0 .795c-.083.123-.284.41-.423.576a9 9 0 0 1-1.182 1.203c-1.007.848-2.517 1.729-4.472 1.776a7.5 7.5 0 0 1-.018 2.338c-.009.06-.049.251-.067.34a.75.75 0 0 1-.543.542 8 8 0 0 1-.604.107 7.7 7.7 0 0 1-1.428.047c-1.138-.07-2.63-.43-3.839-1.64A5.53 5.53 0 0 1 7.6 17.46l5.93-5.93a.75.75 0 1 0-1.06-1.06L6.54 16.4a5.54 5.54 0 0 1-2.636-1.46c-1.21-1.21-1.57-2.701-1.64-3.84a7.7 7.7 0 0 1 .047-1.427c.012-.097.076-.443.107-.604a.75.75 0 0 1 .543-.543 8 8 0 0 1 .339-.068 7.4 7.4 0 0 1 2.338-.017c.047-1.955.928-3.465 1.776-4.472.438-.52.874-.915 1.203-1.182.05-.04.405-.299.576-.423M6.54 16.399c.313.077.617.126.905.156.03.288.079.592.156.905l-4.07 4.07a.75.75 0 0 1-1.061-1.06z" clip-rule="evenodd"/></svg>