<svg xmlns="http://www.w3.org/2000/svg" fill="none" viewBox="0 0 24 24"><path fill="currentColor" d="M19.618 19.608c-.381.396-.995.396-2.224.396H16a1 1 0 0 1-1-1c0-1.886 0-2.829.586-3.414.586-.586 1.528-.586 3.414-.586h1v2.293c0 1.276 0 1.914-.382 2.31"/><path fill="currentColor" fill-rule="evenodd" d="M16.3 5.24c.966-.96 1.611-1.598 2.11-1.968.19-.143.314-.21.387-.243.032.079.077.23.115.504.087.636.09 1.568.09 2.954v1.515a1 1 0 1 0 2 0V6.407c0-1.286 0-2.357-.108-3.146-.105-.76-.362-1.694-1.277-2.1-.936-.415-1.792.053-2.401.506-.628.467-1.376 1.21-2.267 2.096L3.956 14.687c-.946.94-1.732 1.72-2.23 2.376-.485.639-.964 1.497-.595 2.45.375.972 1.322 1.258 2.107 1.372.802.117 1.893.117 3.197.117h1.567a1 1 0 1 0 0-2H6.519c-1.41 0-2.353-.002-2.992-.096-.299-.043-.446-.095-.514-.128.024-.074.096-.229.305-.505.404-.53 1.087-1.213 2.105-2.224zm5.65 4.764h.054a1 1 0 1 1 0 2c-.5 0-.774.002-.964.028h-.007l-.001.008c-.026.19-.028.464-.028.964v4.351c0 .588 0 1.122-.056 1.555-.061.473-.204.975-.605 1.391-.406.422-.904.578-1.377.644-.425.06-.945.059-1.507.059h-4.455c-.5 0-.774.002-.964.028h-.007l-.001.008c-.026.19-.028.464-.028.964a1 1 0 1 1-2 0v-.055c0-.424 0-.836.045-1.176.052-.383.178-.82.54-1.183.364-.363.801-.489 1.184-.54.34-.046.752-.046 1.177-.046h1.304v-.052c0-.899 0-1.648.08-2.243.084-.627.27-1.194.725-1.65.456-.455 1.023-.64 1.65-.725.595-.08 1.344-.08 2.243-.08h.052V12.95c0-.425 0-.837.045-1.177.052-.383.178-.82.54-1.183.364-.364.801-.489 1.184-.54.34-.046.752-.046 1.177-.046" clip-rule="evenodd"/></svg>