<svg xmlns="http://www.w3.org/2000/svg" fill="none" viewBox="0 0 24 24"><path fill="currentColor" fill-rule="evenodd" d="M13.056 1.25c1.838 0 3.294 0 4.433.153 1.172.158 2.121.49 2.87 1.238.748.749 1.08 1.698 1.238 2.87.153 1.139.153 2.595.153 4.433v4.112c0 1.838 0 3.294-.153 4.433-.158 1.172-.49 2.121-1.238 2.87-.749.748-1.698 1.08-2.87 1.238-1.139.153-2.595.153-4.433.153h-2.112c-1.838 0-3.294 0-4.433-.153-1.172-.158-2.121-.49-2.87-1.238-.748-.749-1.08-1.698-1.238-2.87-.153-1.139-.153-2.595-.153-4.433V9.944c0-1.838 0-3.294.153-4.433.158-1.172.49-2.121 1.238-2.87.749-.748 1.698-1.08 2.87-1.238 1.139-.153 2.595-.153 4.433-.153zM6.25 6.75A.75.75 0 0 1 7 6h10a.75.75 0 0 1 0 1.5h-.207c.149.166.35.398.552.663.201.262.416.571.584.889.158.3.321.692.321 1.098 0 1.252-.962 2.35-2.25 2.35s-2.25-1.098-2.25-2.35c0-.406.163-.798.321-1.098.168-.318.383-.627.584-.889.202-.265.403-.497.552-.663H12.75v5.543a.75.75 0 0 1-.25 1.457h-1a.75.75 0 0 1-.25-1.457V7.5H8.793c.149.166.35.398.552.663.201.262.416.571.584.889.158.3.321.692.321 1.098 0 1.252-.962 2.35-2.25 2.35s-2.25-1.098-2.25-2.35c0-.406.163-.798.321-1.098.168-.318.383-.627.584-.889.202-.265.403-.497.552-.663H7a.75.75 0 0 1-.75-.75M8 16a1 1 0 0 0 0 2h8a1 1 0 0 0 0-2z" clip-rule="evenodd"/></svg>