<svg xmlns="http://www.w3.org/2000/svg" fill="none" viewBox="0 0 24 24"><path fill="currentColor" fill-rule="evenodd" d="M11.997 1.25c-1.612 0-2.919.575-4.05 1.193-.345.189-.664.375-.968.552-.739.43-1.388.808-2.103 1.049-.423.142-.802.27-1.07.381-.254.105-.559.25-.774.503a1.74 1.74 0 0 0-.35.707c-.059.215-.108.506-.157.789-1.167 6.837 1.377 13.347 7.668 15.889.613.248 1.081.437 1.807.437s1.194-.189 1.808-.437c6.29-2.542 8.832-9.052 7.664-15.889a10 10 0 0 0-.156-.79 1.76 1.76 0 0 0-.35-.706c-.216-.253-.52-.398-.775-.503a19 19 0 0 0-1.069-.381c-.716-.241-1.366-.619-2.106-1.049-.304-.177-.623-.363-.968-.552-1.13-.618-2.439-1.193-4.05-1.193m2.491 13.891a.749.749 0 0 1-1.277-.595.24.24 0 0 0-.077-.207l-.166-.137a31 31 0 0 1-.799-.69.2.2 0 0 0-.277.008l-2.437 2.437a1 1 0 0 1-1.414-1.414l2.437-2.438a.2.2 0 0 0 .008-.276 29 29 0 0 1-.69-.8l-.137-.165a.24.24 0 0 0-.208-.077.75.75 0 0 1-.595-1.278l2.54-2.539a.75.75 0 0 1 1.278.595.24.24 0 0 0 .077.208l.165.136a27 27 0 0 1 1.668 1.505 26 26 0 0 1 1.641 1.833c.05.06.13.084.208.077a.75.75 0 0 1 .595 1.278z" clip-rule="evenodd"/></svg>