<svg xmlns="http://www.w3.org/2000/svg" fill="none" viewBox="0 0 24 24"><path fill="currentColor" fill-rule="evenodd" d="M10.483 2.53a.749.749 0 1 0-1.061-1.06L4.47 6.422a.75.75 0 0 0 1.06 1.06l.017-.016c.18.23.402.506.652.812.704.86 1.65 1.965 2.604 2.919s2.059 1.9 2.919 2.604c.306.25.582.47.812.652l-.017.017a.749.749 0 1 0 1.06 1.06l4.953-4.952a.75.75 0 0 0-1.06-1.061l-.017.017a64 64 0 0 0-.652-.813c-.703-.86-1.65-1.964-2.604-2.918s-2.06-1.901-2.918-2.604a64 64 0 0 0-.813-.652zM1.98 18.018a2.496 2.496 0 0 0 3.665-.147l3.372-3.958.004-.005c.177-.207.265-.312.257-.432-.007-.12-.11-.213-.313-.4l-.005-.004a31 31 0 0 1-2.034-2.035c-.189-.207-.283-.31-.404-.318-.12-.007-.227.083-.437.262l-3.959 3.372a2.496 2.496 0 0 0-.146 3.665m13.907.232c-.713 0-1.236 0-1.711.152a3 3 0 0 0-1.055.588c-.38.328-.626.771-.94 1.338l-.149.268a.3.3 0 0 1-.262.154H11a1 1 0 0 0-.022 2h10.044a1 1 0 0 0-.022-2h-.771a.3.3 0 0 1-.262-.154l-.149-.268c-.314-.567-.56-1.01-.94-1.338a3 3 0 0 0-1.055-.588c-.472-.152-.99-.152-1.697-.152zm6.495-6.476a1 1 0 1 0-1.266-1.548l-2 1.636a1 1 0 1 0 1.266 1.548zm-2.154 3.257a1 1 0 0 0-.958 1.756l2 1.091a1 1 0 0 0 .958-1.756z" clip-rule="evenodd"/></svg>