<svg xmlns="http://www.w3.org/2000/svg" fill="none" viewBox="0 0 24 24"><path fill="currentColor" fill-rule="evenodd" d="M7.5 17.5v-11c0-.935 0-1.402-.201-1.75a1.5 1.5 0 0 0-.549-.549C6.402 4 5.935 4 5 4s-1.402 0-1.75.201a1.5 1.5 0 0 0-.549.549C2.5 5.098 2.5 5.565 2.5 6.5v11c0 .935 0 1.402.201 1.75a1.5 1.5 0 0 0 .549.549C3.598 20 4.065 20 5 20s1.402 0 1.75-.201a1.5 1.5 0 0 0 .549-.549c.201-.348.201-.815.201-1.75m6 0v-8c0-.935 0-1.402-.201-1.75a1.5 1.5 0 0 0-.549-.549C12.402 7 11.935 7 11 7s-1.402 0-1.75.201a1.5 1.5 0 0 0-.549.549C8.5 8.098 8.5 8.565 8.5 9.5v8c0 .935 0 1.402.201 1.75a1.5 1.5 0 0 0 .549.549C9.598 20 10.065 20 11 20s1.402 0 1.75-.201a1.5 1.5 0 0 0 .549-.549c.201-.348.201-.815.201-1.75m5.392-9.296c.308.258.468.698.788 1.577l2.395 6.588c.32.878.479 1.318.409 1.713a1.5 1.5 0 0 1-.328.703c-.258.308-.697.468-1.575.788-.879.32-1.318.48-1.714.41a1.5 1.5 0 0 1-.704-.328c-.308-.258-.468-.698-.788-1.577L14.98 11.49c-.32-.879-.479-1.318-.41-1.713a1.5 1.5 0 0 1 .329-.703c.258-.308.697-.468 1.575-.788.879-.32 1.318-.48 1.714-.41a1.5 1.5 0 0 1 .704.328" clip-rule="evenodd"/></svg>