<svg xmlns="http://www.w3.org/2000/svg" fill="none" viewBox="0 0 24 24"><path fill="currentColor" fill-rule="evenodd" d="M2.707 1.293a1 1 0 0 0-1.414 1.414l1.806 1.806a8 8 0 0 0-.196.998C2.75 6.65 2.75 8.106 2.75 9.944v4.112c0 1.838 0 3.294.153 4.433.158 1.172.49 2.121 1.238 2.87.749.748 1.698 1.08 2.87 1.238 1.14.153 2.595.153 4.433.153h1.112c1.838 0 3.294 0 4.433-.153 1.172-.158 2.121-.49 2.87-1.238l.042-.044 1.392 1.392a1 1 0 0 0 1.414-1.414zM16.336 17.75l-1.5-1.5H8.5a.75.75 0 0 0 0 1.5zm-5-5-1.5-1.5H8.5a.75.75 0 0 0 0 1.5zm9.844 4.895c.07-.99.07-2.177.07-3.588V9.944c0-1.838 0-3.294-.153-4.433-.158-1.172-.49-2.121-1.238-2.87-.749-.748-1.698-1.08-2.87-1.238-1.14-.153-2.595-.153-4.433-.153h-1.112c-1.838 0-3.294 0-4.433.153-.61.082-1.159.211-1.65.422z" clip-rule="evenodd"/></svg>