<svg xmlns="http://www.w3.org/2000/svg" fill="none" viewBox="0 0 24 24"><path fill="currentColor" fill-rule="evenodd" d="M11.556 1.25h-1.112c-1.838 0-3.294 0-4.433.153-1.172.158-2.121.49-2.87 1.238-.748.749-1.08 1.698-1.238 2.87-.153 1.14-.153 2.595-.153 4.433v4.112c0 1.838 0 3.294.153 4.433.158 1.172.49 2.121 1.238 2.87.749.748 1.698 1.08 2.87 1.238 1.14.153 2.595.153 4.433.153h1.112c1.438 0 2.642 0 3.643-.073a2 2 0 0 1-.127-.363 5.4 5.4 0 0 1-.945-.537 2.25 2.25 0 0 1-2.283-3.829 5.6 5.6 0 0 1 0-1.396 2.25 2.25 0 0 1 2.283-3.83q.442-.313.945-.536a2.251 2.251 0 0 1 4.357 0 5.4 5.4 0 0 1 .82.452V9.944c0-1.838.001-3.294-.152-4.433-.158-1.172-.49-2.121-1.238-2.87-.749-.748-1.698-1.08-2.87-1.238-1.14-.153-2.595-.153-4.433-.153M6.25 6A.75.75 0 0 1 7 5.25h8a.75.75 0 0 1 0 1.5H7A.75.75 0 0 1 6.25 6m0 4A.75.75 0 0 1 7 9.25h4.5a.75.75 0 0 1 0 1.5H7a.75.75 0 0 1-.75-.75m12 2.75a1 1 0 1 0-2 0v.349c-.768.19-1.45.595-1.985 1.146l-.491-.302a1 1 0 0 0-1.046 1.705l.516.317a4.33 4.33 0 0 0 0 2.57l-.517.317a1 1 0 0 0 1.046 1.705l.492-.302a4.17 4.17 0 0 0 1.985 1.146v.349a1 1 0 0 0 2 0v-.349a4.17 4.17 0 0 0 1.986-1.146l.491.302a1 1 0 0 0 1.046-1.705l-.517-.317a4.34 4.34 0 0 0 0-2.57l.517-.317a1 1 0 0 0-1.046-1.705l-.492.302a4.17 4.17 0 0 0-1.985-1.146zm-3.2 4.5c0-1.277 1.006-2.273 2.2-2.273s2.2.996 2.2 2.273c0 1.276-1.006 2.273-2.2 2.273s-2.2-.997-2.2-2.273" clip-rule="evenodd"/></svg>