<svg xmlns="http://www.w3.org/2000/svg" fill="none" viewBox="0 0 24 24"><path fill="currentColor" fill-rule="evenodd" d="M20.302 2.118c-1.046-.185-2.796-.11-3.674-.058-1.16.068-1.635 1.457-.85 2.242l1.252 1.252-2.73 2.709a1.017 1.017 0 0 0 1.432 1.442l2.735-2.714 1.23 1.23c.787.786 2.175.311 2.243-.85.052-.877.127-2.627-.058-3.673a1.96 1.96 0 0 0-.487-.99l-.01-.009a1.94 1.94 0 0 0-1.083-.581M11.102 4a1.001 1.001 0 0 0-.004-2c-1.808.003-3.28.025-4.459.216-1.209.196-2.217.584-3.028 1.394-.876.876-1.258 1.982-1.437 3.319C2 8.221 2 9.867 2 11.926v.148c0 2.058 0 3.705.174 4.997.179 1.336.561 2.442 1.437 3.318s1.982 1.258 3.318 1.437C8.221 22 9.868 22 11.926 22h.148c2.059 0 3.705 0 4.997-.174 1.337-.179 2.443-.561 3.319-1.437.81-.81 1.198-1.819 1.394-3.028.191-1.179.213-2.651.216-4.459a1 1 0 1 0-2-.004c-.003 1.841-.029 3.15-.19 4.144-.157.965-.424 1.522-.835 1.933-.442.442-1.056.719-2.17.869-1.143.154-2.656.156-4.805.156s-3.661-.002-4.804-.156c-1.115-.15-1.729-.427-2.171-.869s-.719-1.056-.869-2.171C4.002 15.661 4 14.15 4 12s.002-3.662.156-4.805c.15-1.114.427-1.728.869-2.17.411-.411.968-.678 1.933-.835.994-.161 2.303-.187 4.144-.19" clip-rule="evenodd"/></svg>