<svg xmlns="http://www.w3.org/2000/svg" fill="none" viewBox="0 0 24 24"><path fill="currentColor" fill-rule="evenodd" d="M14.24 4.846c.339-.12.682-.128 1.02-.024.316.097.589.28.827.473.452.368 1.008.98 1.67 1.645l2.002 2.008c.572.574 1.053 1.057 1.385 1.491.35.46.606.954.606 1.556 0 .6-.255 1.095-.606 1.555-.332.434-.813.917-1.385 1.491l-2.001 2.008c-.542.544-1.035 1.15-1.62 1.647-.235.2-.512.392-.845.49a1.7 1.7 0 0 1-1.054-.044c-.512-.18-.796-.588-.949-.962-.15-.368-.207-.782-.23-1.146a10 10 0 0 1 .003-1.04c-.829-.018-1.648-.056-2.47-.053-1.068.003-2.08.075-3.013.33-1.386.379-2.563 1.216-3.855 2.134-.516.367-1.475.506-1.475-.405 0-2.217.39-4.423 1.469-6.214 1.096-1.82 2.87-3.153 5.492-3.645 1.275-.24 2.633-.192 3.85-.166a10 10 0 0 1 0-1.02c.022-.364.08-.778.23-1.146.152-.374.436-.782.948-.963" clip-rule="evenodd"/></svg>