<svg xmlns="http://www.w3.org/2000/svg" fill="none" viewBox="0 0 24 24"><path fill="currentColor" fill-rule="evenodd" d="M11.219 3.995a1 1 0 0 0-.198-1.99C5.956 2.508 2 6.78 2 11.978 2 17.513 6.487 22 12.022 22c5.198 0 9.47-3.956 9.973-9.021a1 1 0 1 0-1.99-.198 8.023 8.023 0 1 1-8.786-8.786m5.409-1.935c.878-.052 2.628-.127 3.674.058.43.076.805.283 1.084.58l.009.01c.247.267.42.607.487.99.185 1.046.11 2.796.058 3.674-.068 1.16-1.456 1.635-2.242.85l-1.23-1.231-2.736 2.714q-.03.03-.061.056l-3.965 3.948a1 1 0 0 1-1.412-1.418l3.855-3.837q.063-.102.151-.191l2.73-2.71-1.251-1.25c-.786-.786-.31-2.175.849-2.243" clip-rule="evenodd"/></svg>