<svg xmlns="http://www.w3.org/2000/svg" fill="none" viewBox="0 0 24 24"><path fill="currentColor" fill-rule="evenodd" d="M3.748 8.4a9.003 9.003 0 0 1 16.657.376c.063.164.095.246.076.333-.018.087-.083.151-.213.28l-1.094 1.095c-.036.036-.054.054-.071.08a.4.4 0 0 0-.037.078 1 1 0 0 0 .487 1.252l2 1A1 1 0 0 0 23 12c0-6.075-4.925-11-11-11A11 11 0 0 0 1.916 7.6a1 1 0 0 0 1.832.8m-1.3 2.706A1 1 0 0 0 1 12c0 6.075 4.925 11 11 11 4.512 0 8.388-2.717 10.084-6.6a1 1 0 1 0-1.833-.8 9.003 9.003 0 0 1-16.657-.376c-.062-.164-.094-.246-.075-.333.018-.087.083-.151.212-.28l1.094-1.095a.5.5 0 0 0 .072-.08.4.4 0 0 0 .037-.078 1 1 0 0 0-.487-1.252zm4.302.357c0-2.87 2.41-5.213 5.25-5.213s5.25 2.343 5.25 5.213c0 1.47-.625 2.695-1.472 3.683-.84.98-1.925 1.761-2.923 2.372l-.011.007-.012.007a1.7 1.7 0 0 1-1.664 0l-.013-.008-.013-.008c-.993-.614-2.077-1.392-2.918-2.37-.848-.986-1.474-2.208-1.474-3.683M10 11.5c0-1.105.891-2 1.99-2h.019c1.1 0 1.99.895 1.99 2s-.89 2-1.99 2h-.018c-1.1 0-1.991-.895-1.991-2" clip-rule="evenodd"/></svg>