<svg xmlns="http://www.w3.org/2000/svg" fill="none" viewBox="0 0 24 24"><path fill="currentColor" fill-rule="evenodd" d="M12.002 1.25c-3.827 0-7.477 2.263-9.005 5.835-1.422 3.324-.652 6.152.95 8.574 1.315 1.986 3.231 3.759 4.96 5.358h.001q.496.458.963.896l.001.002a3.12 3.12 0 0 0 2.13.835c.79 0 1.554-.297 2.129-.836q.441-.412.908-.84c1.748-1.611 3.691-3.402 5.02-5.413 1.6-2.425 2.367-5.256.947-8.576-1.528-3.572-5.178-5.835-9.004-5.835M8.5 10a1 1 0 1 0 0 2h7a1 1 0 1 0 0-2z" clip-rule="evenodd"/></svg>