<svg xmlns="http://www.w3.org/2000/svg" fill="none" viewBox="0 0 24 24"><path fill="currentColor" fill-rule="evenodd" d="M3.75 9.587C3.75 5.019 7.522 1.25 12 1.25s8.25 3.769 8.25 8.337c0 4.664-3.848 7.825-7.08 9.842l-.012.008-.011.006a2.3 2.3 0 0 1-2.294 0l-.013-.008-.013-.008c-3.22-2.032-7.077-5.16-7.077-9.84M8.5 9.5a3.5 3.5 0 1 1 7 0 3.5 3.5 0 0 1-7 0m-3.123 9.611a1 1 0 1 0-1.016-1.722c-.62.365-1.361.995-1.361 1.954 0 .815.545 1.393 1.049 1.751.53.377 1.23.675 2.006.909 1.565.47 3.666.747 5.945.747s4.38-.277 5.945-.747c.776-.234 1.477-.532 2.006-.909.504-.358 1.049-.936 1.049-1.751 0-.959-.742-1.589-1.361-1.954a1 1 0 1 0-1.016 1.722c.156.093.258.172.32.232a1.4 1.4 0 0 1-.151.122c-.28.2-.752.42-1.423.622-1.331.4-3.23.663-5.369.663-2.14 0-4.038-.262-5.369-.663-.671-.202-1.142-.423-1.423-.622a1.4 1.4 0 0 1-.15-.122c.061-.06.162-.14.32-.232" clip-rule="evenodd"/></svg>