<svg xmlns="http://www.w3.org/2000/svg" fill="none" viewBox="0 0 24 24"><path fill="currentColor" fill-rule="evenodd" d="M8.236 3.499A1 1 0 0 0 8.137 1.5c-2.127.106-3.78.422-4.997 1.639S1.607 6.01 1.5 8.137a1 1 0 0 0 1.998.1c.102-2.073.41-3.038 1.055-3.683.645-.646 1.61-.953 3.682-1.055M15.863 1.5a1 1 0 1 0-.1 1.998c2.073.102 3.038.41 3.683 1.055.646.645.953 1.61 1.055 3.682a1 1 0 0 0 1.998-.099c-.106-2.127-.422-3.78-1.639-4.997-1.216-1.217-2.87-1.533-4.997-1.639M3.499 15.764a1 1 0 1 0-1.998.099c.106 2.127.422 3.78 1.639 4.997 1.216 1.217 2.87 1.533 4.997 1.639a1 1 0 0 0 .1-1.998c-2.073-.102-3.038-.41-3.683-1.055-.646-.645-.953-1.61-1.055-3.682m19 .099a1 1 0 1 0-1.998-.1c-.102 2.073-.41 3.038-1.055 3.683-.645.646-1.61.953-3.682 1.055a1 1 0 1 0 .099 1.998c2.127-.106 3.78-.422 4.997-1.639 1.217-1.216 1.533-2.87 1.639-4.997M8.5 9.25v.778a2.67 2.67 0 0 0-1.592 2.066c-.084.598-.158 1.24-.158 1.906s.074 1.308.158 1.906c.178 1.267 1.264 2.233 2.561 2.29.809.035 1.629.054 2.531.054s1.723-.018 2.53-.054c1.298-.057 2.384-1.023 2.562-2.29.084-.598.158-1.24.158-1.906s-.074-1.308-.158-1.905a2.67 2.67 0 0 0-1.592-2.067V9.25a3.5 3.5 0 1 0-7 0m3.5-1.5a1.5 1.5 0 0 0-1.5 1.5v.518a59 59 0 0 1 3 0V9.25a1.5 1.5 0 0 0-1.5-1.5" clip-rule="evenodd"/></svg>