<svg xmlns="http://www.w3.org/2000/svg" fill="none" viewBox="0 0 24 24"><path fill="currentColor" fill-rule="evenodd" d="M16.25 6.335c-.096-2.39-2.087-4.398-4.709-4.333-.61.014-1.317.214-2.353.507l-.158.045c-2.945.83-5.94 2.345-6.652 5.972-.128.655-.128 1.375-.128 2.52v1.908c0 1.146 0 1.865.128 2.52.712 3.627 3.707 5.142 6.652 5.972l.158.045c1.036.293 1.744.493 2.353.508 2.622.064 4.613-1.945 4.708-4.334a1 1 0 1 0-1.998-.08c-.052 1.315-1.148 2.451-2.66 2.414-.323-.008-.764-.124-2.018-.477-2.779-.784-4.751-1.982-5.232-4.433-.086-.44-.091-.952-.091-2.252v-1.674c0-1.3.005-1.812.09-2.252.482-2.451 2.454-3.649 5.233-4.433 1.254-.353 1.695-.47 2.017-.477 1.513-.037 2.609 1.1 2.66 2.414a1 1 0 1 0 2-.08m-7.5 5.67a1 1 0 0 0 1 1h7.5v.583c0 .176 0 .392.022.568v.003c.016.127.088.703.653.977.567.275 1.067-.027 1.176-.092l.468-.34c.376-.294.89-.7 1.281-1.08.195-.19.397-.407.556-.638.14-.205.344-.555.344-.986s-.203-.78-.344-.986a4.4 4.4 0 0 0-.556-.638c-.39-.38-.905-.786-1.28-1.08l-.47-.34c-.108-.065-.608-.367-1.175-.092-.565.274-.637.85-.653.977v.003c-.022.176-.022.392-.022.568v.594h-7.5a1 1 0 0 0-1 1" clip-rule="evenodd"/></svg>