<svg xmlns="http://www.w3.org/2000/svg" fill="none" viewBox="0 0 24 24"><path fill="currentColor" fill-rule="evenodd" d="M13 2.25a1 1 0 1 0-2 0v8a1 1 0 1 0 2 0zM7.688 6.533a.97.97 0 0 0 .272-1.349.976.976 0 0 0-1.352-.271A9.72 9.72 0 0 0 2.25 13.02c0 5.374 4.365 9.73 9.75 9.73s9.75-4.356 9.75-9.73a9.72 9.72 0 0 0-4.358-8.107.976.976 0 0 0-1.352.271.97.97 0 0 0 .272 1.35A7.77 7.77 0 0 1 19.8 13.02c0 4.3-3.492 7.784-7.8 7.784S4.2 17.32 4.2 13.02a7.77 7.77 0 0 1 3.488-6.487" clip-rule="evenodd"/></svg>