<svg xmlns="http://www.w3.org/2000/svg" fill="none" viewBox="0 0 24 24"><path fill="currentColor" fill-rule="evenodd" d="M11 3.125a1 1 0 1 1 2 0v2.131l.6.4.019-.04c.16-.338.394-.656.728-.888.34-.236.74-.353 1.176-.353 1.864 0 3.682 1.372 4.99 3.407 1.33 2.07 2.237 4.963 2.237 8.343 0 2.432-.818 3.92-1.905 4.776-1.05.83-2.235.974-2.83.974-1.2 0-2.42-.271-3.336-1.145-.923-.879-1.4-2.236-1.4-4.105.005-.34.039-1.161.131-1.727.113-.83.332-1.9.777-2.804-.478-1.115-.884-2.756-.932-4.195l-.002-.07L12 6.994l-1.253.835-.002.07c-.048 1.439-.454 3.08-.932 4.195.445.905.664 1.973.777 2.804.092.566.126 1.387.131 1.727 0 1.869-.477 3.226-1.4 4.105-.916.874-2.135 1.145-3.335 1.145-.596 0-1.78-.145-2.831-.974-1.087-.856-1.905-2.344-1.905-4.776 0-3.38.906-6.273 2.236-8.343 1.309-2.035 3.127-3.407 4.99-3.407.437 0 .838.117 1.177.353a2.2 2.2 0 0 1 .747.929l.6-.4z" clip-rule="evenodd"/></svg>