<svg xmlns="http://www.w3.org/2000/svg" fill="none" viewBox="0 0 24 24"><path fill="currentColor" fill-rule="evenodd" d="M17 1.25a.75.75 0 0 1 .703.49c.376 1.014.779 1.704 1.303 2.232.524.527 1.218.941 2.254 1.325a.75.75 0 0 1 0 1.406c-1.014.376-1.704.779-2.232 1.303-.527.525-.941 1.218-1.325 2.254a.75.75 0 0 1-1.406 0c-.356-.961-.778-1.664-1.323-2.212s-1.252-.981-2.234-1.345a.75.75 0 0 1 0-1.406c1.014-.376 1.704-.779 2.232-1.303.527-.525.941-1.218 1.325-2.254A.75.75 0 0 1 17 1.25m-5.007 8.534a1.824 1.824 0 0 0-2.58 0l-.629.63a1.824 1.824 0 0 0 0 2.58l9.223 9.221a1.824 1.824 0 0 0 2.58 0l.628-.629a1.824 1.824 0 0 0 0-2.58zm-1.519 1.06a.324.324 0 0 1 .459 0l2.47 2.47-1.088 1.088-2.47-2.47a.324.324 0 0 1 0-.458zM6.704 3.74a.75.75 0 0 0-1.407 0c-.282.761-.58 1.255-.95 1.622s-.861.659-1.607.935a.75.75 0 0 0 0 1.406c.761.282 1.255.58 1.622.95s.659.861.935 1.607a.75.75 0 0 0 1.406 0c.282-.761.58-1.255.95-1.622s.861-.659 1.607-.935a.75.75 0 0 0 0-1.406c-.761-.282-1.255-.58-1.622-.95s-.659-.861-.935-1.607" clip-rule="evenodd"/></svg>