<svg xmlns="http://www.w3.org/2000/svg" fill="none" viewBox="0 0 24 24"><path fill="currentColor" fill-rule="evenodd" d="M14.557 1.662a98 98 0 0 0-5.364 0l-.075.002H9.11c-1.507.038-2.745.069-3.744.243-1.063.185-1.952.545-2.706 1.3-.75.752-1.108 1.628-1.29 2.673-.17.982-.196 2.193-.227 3.659l-.002.076a51 51 0 0 0 0 2.526l.002.075c.03 1.466.057 2.678.227 3.659.182 1.046.54 1.922 1.29 2.673.754.756 1.643 1.116 2.706 1.3.999.175 2.237.206 3.744.244h.008l.075.002c.599.015 1.15.025 1.684.03a.99.99 0 0 0 .998-.992c0-.551-.447-.998-.998-1.004-.517-.006-1.053-.016-1.634-.03-1.603-.041-2.696-.071-3.534-.216-.794-.138-1.256-.365-1.633-.743-.381-.382-.603-.838-.737-1.606-.141-.815-.167-1.874-.2-3.435a47 47 0 0 1 0-2.441c.016-.75.03-1.383.056-1.93v-.009c.02-.4.03-.6.176-.68.147-.081.327.02.688.226l4.236 2.4c1.299.737 2.399 1.214 3.58 1.214 1.18 0 2.28-.477 3.58-1.214l4.236-2.4c.36-.205.54-.307.688-.226.146.08.156.28.175.68v.009c.027.547.04 1.18.057 1.93.012.582.017.995.015 1.442a1.01 1.01 0 0 0 .984 1.02.99.99 0 0 0 1.014-.977c.003-.478-.002-.914-.015-1.527l-.002-.076c-.031-1.466-.057-2.677-.227-3.66-.182-1.044-.541-1.92-1.29-2.672a4.3 4.3 0 0 0-1.406-.938 1 1 0 0 0-.25-.096 6.5 6.5 0 0 0-1.05-.266c-1-.174-2.238-.205-3.744-.243h-.008zm8.318 19.713v-1.5a5 5 0 0 0-4.5-4.975v-1.526a1 1 0 0 0-1.697-.716c-.08.077-.249.213-.525.43l-.06.047c-.242.19-.529.416-.804.649a7.6 7.6 0 0 0-.856.826 3 3 0 0 0-.353.505 1.6 1.6 0 0 0-.205.76c0 .315.108.579.205.76.101.189.229.359.353.505.248.291.562.577.856.826.275.233.562.459.804.649l.06.047c.276.217.445.353.525.43a1 1 0 0 0 1.697-.717v-1.459a3 3 0 0 1 2.5 2.959v1.5a1 1 0 0 0 2 0" clip-rule="evenodd"/></svg>