<svg xmlns="http://www.w3.org/2000/svg" fill="none" viewBox="0 0 24 24"><path fill="currentColor" fill-rule="evenodd" d="m19.816 7.262-4.236 2.4c-1.3.736-2.399 1.213-3.58 1.213s-2.28-.477-3.58-1.213l-4.236-2.4c-.36-.204-.541-.307-.688-.226s-.156.284-.176.69a77 77 0 0 0-.056 1.929c-.02.97-.02 1.47 0 2.44.033 1.56.059 2.62.2 3.434.134.768.356 1.224.737 1.605.377.378.84.605 1.633.743.838.146 1.931.176 3.534.216.611.015 2.418.026 3.393.031l.24.002c.552.003.999.45.999 1.001a.993.993 0 0 1-.998.995l-.197-.002c-.977-.005-2.852-.016-3.487-.032l-.075-.002c-1.51-.037-2.751-.069-3.752-.243-1.063-.184-1.952-.544-2.706-1.3-.75-.751-1.108-1.627-1.29-2.672-.17-.981-.196-2.192-.227-3.658l-.002-.075a50 50 0 0 1 0-2.526l.002-.075c.03-1.466.057-2.677.227-3.658.182-1.045.54-1.92 1.29-2.672.754-.756 1.643-1.115 2.706-1.3 1-.174 2.242-.205 3.752-.243l.075-.002c1.955-.05 3.409-.05 5.364 0l.075.002c1.51.038 2.751.069 3.752.243.37.064.72.15 1.05.266q.131.03.25.096c.516.214.982.513 1.406.938.749.751 1.108 1.627 1.29 2.672.17.981.196 2.191.227 3.656v.002l.002.075c.008.382.013 1.003.015 1.233v.053c.005.543-.45.977-.993.977-.56 0-.998-.46-1.006-1.02l-.002-.244a77 77 0 0 0-.068-2.886c-.02-.405-.03-.608-.176-.689-.147-.08-.328.021-.688.226m-.31 5.113a1 1 0 0 1 1 1v4.5h.584c.176 0 .39 0 .566.022h.003c.127.016.703.088.977.653.275.567-.027 1.067-.092 1.176l-.003.004a5 5 0 0 1-.336.464l-.024.03c-.294.376-.677.86-1.057 1.251-.19.195-.407.397-.638.555-.205.142-.555.345-.986.345s-.78-.203-.986-.344a4.4 4.4 0 0 1-.638-.556c-.38-.39-.763-.875-1.057-1.25l-.024-.031a5 5 0 0 1-.337-.464l-.002-.004c-.065-.109-.367-.609-.092-1.176.274-.565.85-.637.976-.653h.004a5 5 0 0 1 .566-.022h.596v-4.5a1 1 0 0 1 1-1" clip-rule="evenodd"/></svg>