<svg xmlns="http://www.w3.org/2000/svg" fill="none" viewBox="0 0 24 24"><path fill="currentColor" fill-rule="evenodd" d="m19.69 7.262-4.235 2.4c-1.3.736-2.399 1.213-3.58 1.213s-2.28-.477-3.58-1.213l-4.236-2.4c-.36-.204-.541-.307-.688-.226s-.156.284-.176.69a78 78 0 0 0-.056 1.929c-.02.97-.02 1.47 0 2.44.033 1.56.059 2.62.2 3.434.134.768.356 1.224.737 1.605.377.378.84.605 1.633.743.838.146 1.931.176 3.534.216l.455.012c.322.01.545.017 1.179.02.551.004.998.45.998 1.002a.993.993 0 0 1-.998.995c-.651-.004-.886-.011-1.226-.021l-.458-.013-.075-.002c-1.51-.037-2.751-.069-3.752-.243-1.063-.184-1.952-.544-2.706-1.3-.75-.751-1.108-1.627-1.29-2.672-.17-.981-.196-2.192-.227-3.658l-.002-.075a50 50 0 0 1 0-2.526l.002-.075c.03-1.466.057-2.677.227-3.658.182-1.045.54-1.92 1.29-2.672.754-.756 1.643-1.115 2.706-1.3 1-.174 2.242-.205 3.752-.243l.075-.002c1.956-.05 3.409-.05 5.364 0l.075.002c1.51.038 2.751.069 3.752.243.37.064.72.15 1.05.266a1 1 0 0 1 .25.096c.516.214.982.513 1.406.938.75.751 1.108 1.627 1.29 2.672.17.981.196 2.192.227 3.658l.002.075c.008.371.013.969.015 1.213v.073c.005.543-.45.977-.993.977-.56 0-.998-.46-1.006-1.02l-.002-.236c-.003-.279-.007-.71-.012-.964-.016-.75-.03-1.383-.056-1.93-.02-.405-.03-.608-.176-.689-.147-.08-.328.021-.689.226m-.815 5.113a1 1 0 1 0-2 0v.399c-.74.17-1.41.525-1.951 1.015l-.508-.327a1 1 0 1 0-1.082 1.683l.465.298a4.1 4.1 0 0 0 0 2.864l-.464.298a1 1 0 1 0 1.081 1.683l.508-.327c.542.49 1.21.845 1.951 1.015v.399a1 1 0 1 0 2 0v-.399c.74-.17 1.41-.525 1.951-1.015l.508.327a1 1 0 1 0 1.082-1.683l-.464-.298a4.1 4.1 0 0 0 0-2.864l.464-.298a1 1 0 1 0-1.082-1.683l-.508.327a4.4 4.4 0 0 0-1.95-1.015zm-2.952 3.286c.414-.596 1.127-1 1.952-1s1.539.404 1.952 1a2.12 2.12 0 0 1 0 2.428c-.413.596-1.127 1-1.952 1a2.36 2.36 0 0 1-1.952-1 2.12 2.12 0 0 1 0-2.428" clip-rule="evenodd"/></svg>