<svg xmlns="http://www.w3.org/2000/svg" fill="none" viewBox="0 0 24 24"><path fill="currentColor" fill-rule="evenodd" d="M14.92 2.037a116 116 0 0 0-5.84 0h-.057l-.043.002c-1.505.038-2.719.07-3.693.24-1.03.179-1.866.523-2.572 1.232-.704.707-1.047 1.532-1.223 2.544-.166.954-.192 2.135-.224 3.595l-.002.05v.058a68 68 0 0 0 0 2.984v.058l.001.024c.032 1.472.057 2.661.225 3.62.176 1.013.517 1.838 1.221 2.545.706.709 1.544 1.053 2.574 1.232.98.171 2.203.203 3.723.241h.069q1.067.028 2.127.035c.258.002.389.003.473-.067s.108-.206.158-.478v-.001c.031-.17.066-.33.093-.454l.122-.662c.04-.233.094-.533.173-.843.16-.63.469-1.486 1.204-2.221l3.411-3.412.003-.002c.236-.237.596-.599 1.034-.852a3.77 3.77 0 0 1 3.77 0c.529.266.794.399.922.345a.3.3 0 0 0 .078-.048c.103-.089.103-.323.103-.789v-.026a63 63 0 0 0-.017-1.23V9.7l-.001-.025c-.032-1.472-.057-2.66-.224-3.62-.177-1.012-.518-1.837-1.223-2.544-.706-.71-1.543-1.053-2.573-1.232-.968-.17-2.174-.201-3.668-.24l-.067-.002zm-8.566 5.33a.75.75 0 0 1 1.028-.263l2.941 1.74c.845.499 1.293.656 1.676.656s.832-.157 1.676-.656l2.942-1.74a.751.751 0 0 1 .764 1.292l-2.941 1.739c-.871.515-1.623.865-2.44.865-.818 0-1.57-.35-2.44-.865l-2.943-1.74a.75.75 0 0 1-.263-1.027m14.544 5.437a2.27 2.27 0 0 0-2.27 0c-.262.15-.496.385-.768.658l-.002.002-3.368 3.367c-.465.466-.682 1.028-.81 1.532a9 9 0 0 0-.15.735l-.129.692-.005.022a6 6 0 0 0-.142.843c-.018.279.01.684.333 1.007.324.324.73.352 1.008.334.247-.016.544-.079.842-.142l.023-.005.692-.128a9 9 0 0 0 .735-.15c.504-.13 1.066-.346 1.532-.811l3.367-3.368.001-.001c.274-.273.508-.506.66-.768a2.27 2.27 0 0 0 0-2.271c-.152-.261-.387-.496-.66-.77h-.002l-.03-.03-.029-.028-.03-.03-.029-.03c-.273-.274-.508-.51-.769-.66" clip-rule="evenodd"/></svg>