<svg xmlns="http://www.w3.org/2000/svg" fill="none" viewBox="0 0 24 24"><path fill="currentColor" fill-rule="evenodd" d="M3.75 4c0-1.52 1.23-2.75 2.75-2.75S9.25 2.48 9.25 4 8.02 6.75 6.5 6.75 3.75 5.52 3.75 4M17.5 1.25c-1.52 0-2.75 1.23-2.75 2.75s1.23 2.75 2.75 2.75S20.25 5.52 20.25 4s-1.23-2.75-2.75-2.75M17.502 8c-1.33 0-2.39.99-2.87 2.28h.01l-1.26 3.11-.04.105c-.213.565-.396 1.05-.49 1.455-.11.44-.16.92.06 1.39.26.55.74.76 1.18.84.2.04.43.05.67.06v2.81c0 .43 0 .83.04 1.15.05.35.16.73.47 1.04s.68.42 1.04.47c.32.04.81.04 1.24.04s.83 0 1.15-.04c.35-.05.73-.16 1.04-.47s.42-.69.47-1.04c.04-.32.04-.72.04-1.15v-2.81c.24-.01.47-.02.67-.06.44-.08.93-.29 1.18-.84.22-.47.17-.95.06-1.39-.11-.43-.3-.95-.53-1.56l-1.26-3.11c-.48-1.29-1.54-2.28-2.87-2.28m-8.712.08C8.2 8 7.45 8 6.55 8s-1.76 0-2.35.08c-.63.08-1.19.27-1.65.73-.45.45-.64 1.02-.72 1.65-.08.59-.08 1.34-.08 2.24v1.84c0 .44 0 .83.04 1.16.05.35.16.73.47 1.04s.69.42 1.04.47q.21.03.45.03v2.8c0 .44 0 .83.04 1.16.05.35.16.73.47 1.04s.69.42 1.04.47c.32.04.81.04 1.24.04s.83 0 1.15-.04c.35-.05.73-.16 1.04-.47s.42-.69.47-1.04c.04-.33.04-.72.04-1.16v-2.8q.24 0 .45-.03c.35-.05.73-.16 1.04-.47s.42-.69.47-1.04c.04-.33.04-.72.04-1.16V12.7c0-.9 0-1.65-.08-2.24-.08-.63-.27-1.2-.72-1.65-.46-.46-1.02-.65-1.65-.73" clip-rule="evenodd"/></svg>