<svg xmlns="http://www.w3.org/2000/svg" fill="none" viewBox="0 0 24 24"><path fill="currentColor" fill-rule="evenodd" d="M8.75 17.184c0 .202 0 .304.048.378.047.074.147.12.345.21.221.1.502.238.88.427.142.07.306-.051.287-.208a7 7 0 0 1-.025-.255l-.004-.05-.003-.033c-.018-.218-.056-.679.007-1.128a2.99 2.99 0 0 1 1.576-2.26c.146-.077.219-.116.248-.168.028-.051.023-.135.012-.303a2.5 2.5 0 0 1 .948-2.123q.468-.369.961-.635c.11-.06.164-.09.192-.137s.028-.107.028-.226V4.08c0-.181 0-.271-.045-.344s-.126-.113-.288-.193l-2.774-1.38c-.67-.333-1.217-.605-1.69-.788-.293-.112-.439-.169-.568-.084l-.01.007c-.125.09-.125.258-.125.596zm14-5.306c0 .47 0 .705-.12.757s-.3-.115-.662-.45a7.4 7.4 0 0 0-1.723-1.19c-1.194-.595-2.599-.876-4.007-.684-.234.031-.351.047-.42-.012-.068-.06-.068-.173-.068-.398V4.34a.17.17 0 0 1 .171-.171h2.132c.898 0 1.648 0 2.244.081.63.087 1.198.278 1.653.743.453.462.637 1.036.72 1.673.08.606.08 1.37.08 2.29zM7.134 1.376c.116.09.116.254.116.581v15.355c0 .19 0 .284-.044.356s-.134.119-.315.212c-.236.122-.49.27-.773.434-.619.359-1.19.69-1.617.883-.43.194-.898.342-1.39.254a2.24 2.24 0 0 1-1.353-.803c-.311-.387-.415-.865-.462-1.341-.046-.471-.046-1.074-.046-1.803v-8.24c0-.55 0-1.017.037-1.403.04-.41.126-.79.333-1.152.207-.363.488-.629.82-.869.312-.225.71-.456 1.179-.727l1.288-.748c.647-.375 1.177-.683 1.638-.896.275-.127.412-.19.543-.123.015.008.033.02.046.03m8.103 13.043c1.051-.828 2.342-.843 3.45-.292 1.041.519 1.824 1.495 2.008 2.62l-.734-.39a1 1 0 0 0-.936 1.768l.9.477c.251.133.552.293.83.378.369.113.845.142 1.307-.162.415-.272.608-.664.666-1.065.04-.278.016-.594-.002-.83l-.003-.052c-.153-2.038-1.48-3.705-3.145-4.534-1.684-.838-3.825-.871-5.58.511a1 1 0 1 0 1.239 1.571m.238 1.939-.9-.477c-.251-.133-.552-.293-.83-.378-.371-.113-.847-.141-1.309.164a1.49 1.49 0 0 0-.664 1.068c-.04.278-.014.595.005.829l.004.052c.161 2.02 1.483 3.684 3.128 4.523 1.663.848 3.787.914 5.518-.453a1 1 0 1 0-1.24-1.57c-1.005.795-2.266.804-3.37.241-1.033-.527-1.815-1.505-2.007-2.618l.728.386a1 1 0 0 0 .937-1.767" clip-rule="evenodd"/></svg>