<svg xmlns="http://www.w3.org/2000/svg" fill="none" viewBox="0 0 24 24"><path fill="currentColor" fill-rule="evenodd" d="M11.25 6.91c0-3.122 2.646-5.66 5.75-5.66s5.75 2.538 5.75 5.66c0 1.597-.686 2.927-1.618 4.005-.926 1.07-2.123 1.923-3.228 2.593l-.012.007-.011.006a1.8 1.8 0 0 1-1.762 0l-.013-.008-.013-.007c-1.1-.674-2.296-1.525-3.223-2.592-.933-1.074-1.62-2.402-1.62-4.005M19 7a2 2 0 1 0-4 0 2 2 0 0 0 4 0m-7.918-4.967a.977.977 0 0 1-.763 1.152A8.9 8.9 0 0 0 3.22 12.45c.013.206.229.327.418.246l.144-.059a6.5 6.5 0 0 1 1.189-.34c.469-.088 1.049-.142 1.595-.037.633.073 1.322.254 2.082.573.49.217 1.705.82 2.643 1.507.207.145.42.303.624.455.009.007.452.337.654.478l.005.003c.487.347 1.619 1.078 2.378 1.364a10 10 0 0 0 1.652.56 5.4 5.4 0 0 0 2.18.067q.237-.052.45-.132a.3.3 0 0 0 .13-.101 8.85 8.85 0 0 0 1.45-3.352.977.977 0 0 1 1.915.389c-1.005 4.952-5.382 8.68-10.631 8.68-5.992 0-10.849-4.857-10.849-10.849 0-5.25 3.728-9.626 8.68-10.631a.977.977 0 0 1 1.152.763" clip-rule="evenodd"/></svg>