<svg xmlns="http://www.w3.org/2000/svg" fill="none" viewBox="0 0 24 24"><path fill="currentColor" fill-rule="evenodd" d="M11.38 2.658C13.833 1.881 16.319 1.25 18 1.25c1.603 0 2.799 1.305 3.537 2.815.766 1.57 1.213 3.669 1.213 5.935s-.447 4.366-1.213 5.935c-.738 1.51-1.934 2.815-3.537 2.815-1.682 0-4.167-.631-6.62-1.408a91 91 0 0 1-4.369-1.523 4.93 4.93 0 0 0 2.528 3.985l1.943 1.07a1 1 0 1 1-.964 1.752l-1.943-1.07a6.93 6.93 0 0 1-3.561-6.506l-.521-.207C2.506 14.049 1.25 12.118 1.25 10s1.256-4.049 3.243-4.843c1.855-.74 4.405-1.712 6.887-2.499m4.783 2.277C15.553 6.181 15.15 7.97 15.15 10s.404 3.819 1.013 5.065c.637 1.304 1.341 1.74 1.837 1.74s1.2-.436 1.837-1.74c.61-1.246 1.013-3.035 1.013-5.065s-.404-3.819-1.013-5.065C19.2 3.631 18.496 3.195 18 3.195s-1.2.436-1.837 1.74" clip-rule="evenodd"/></svg>