<svg xmlns="http://www.w3.org/2000/svg" fill="none" viewBox="0 0 24 24"><path fill="currentColor" fill-rule="evenodd" d="M6.404 3.494a1 1 0 1 0-.22-1.988c-1.505.166-2.734.565-3.672 1.617-.823.924-1.177 2.078-1.345 3.48-.164 1.369-.164 3.119-.164 5.33v.134c0 2.211 0 3.961.164 5.33.168 1.402.522 2.557 1.345 3.48.938 1.052 2.167 1.45 3.672 1.617a1 1 0 1 0 .22-1.988c-1.282-.141-1.93-.438-2.392-.957-.433-.485-.707-1.17-.853-2.389-.148-1.236-.15-2.867-.15-5.16s.002-3.923.15-5.16c.146-1.22.42-1.903.853-2.389.463-.52 1.11-.815 2.392-.957M17.89 1.506a1 1 0 1 0-.22 1.988c1.282.142 1.93.438 2.392.957.433.486.707 1.17.853 2.389.148 1.237.15 2.867.15 5.16s-.002 3.924-.15 5.16c-.146 1.22-.42 1.904-.853 2.389-.463.52-1.11.816-2.392.957a1 1 0 1 0 .22 1.988c1.505-.166 2.734-.565 3.672-1.617.823-.924 1.177-2.078 1.345-3.48.164-1.369.164-3.119.164-5.33v-.134c0-2.211 0-3.961-.164-5.33-.168-1.402-.522-2.556-1.345-3.48-.938-1.052-2.167-1.45-3.672-1.617M7.021 6.75c-.692 0-1.254.56-1.254 1.25s.562 1.25 1.254 1.25h.009c.692 0 1.254-.56 1.254-1.25S7.722 6.75 7.03 6.75zm5.01 0c-.692 0-1.253.56-1.253 1.25s.561 1.25 1.254 1.25h.009a1.251 1.251 0 1 0 0-2.5zm5.012 0c-.693 0-1.254.56-1.254 1.25s.561 1.25 1.254 1.25h.009c.692 0 1.253-.56 1.253-1.25s-.561-1.25-1.253-1.25zm-10.022 4c-.692 0-1.254.56-1.254 1.25s.562 1.25 1.254 1.25h.009c.692 0 1.254-.56 1.254-1.25s-.562-1.25-1.254-1.25zm5.01 0c-.692 0-1.253.56-1.253 1.25s.561 1.25 1.254 1.25h.009a1.251 1.251 0 1 0 0-2.5zm5.012 0c-.693 0-1.254.56-1.254 1.25s.561 1.25 1.254 1.25h.009c.692 0 1.253-.56 1.253-1.25s-.561-1.25-1.253-1.25zm-10.022 4c-.692 0-1.254.56-1.254 1.25s.562 1.25 1.254 1.25h.009c.692 0 1.254-.56 1.254-1.25s-.562-1.25-1.254-1.25zm5.01 0c-.692 0-1.253.56-1.253 1.25s.561 1.25 1.254 1.25h.009a1.251 1.251 0 1 0 0-2.5zm5.012 0c-.693 0-1.254.56-1.254 1.25s.561 1.25 1.254 1.25h.009c.692 0 1.253-.56 1.253-1.25s-.561-1.25-1.253-1.25z" clip-rule="evenodd"/></svg>