<svg xmlns="http://www.w3.org/2000/svg" fill="none" viewBox="0 0 24 24"><path fill="currentColor" fill-rule="evenodd" d="m7.316 1.395 1.388-.11a6 6 0 0 1 .798-.031c.258.014.604.078.885.359s.345.626.36.885c.012.234-.01.517-.033.8l-.11 1.386a.75.75 0 0 1-1.322.422l-.664-.664-1.199 1.2A.75.75 0 1 1 6.36 4.58l1.198-1.198-.757-.758a.75.75 0 0 1 .516-1.229M4.581 6.358A.75.75 0 0 1 5.64 7.42L4.444 8.618l.664.664a.75.75 0 0 1-.423 1.323l-1.387.11a6 6 0 0 1-.799.03c-.258-.014-.604-.077-.885-.358s-.345-.627-.359-.886c-.013-.232.01-.514.032-.796l.11-1.39a.75.75 0 0 1 1.322-.422l.664.664zm9.752-4.108a2.47 2.47 0 0 0-2.389 1.846L9.582 13.15 8.36 12.102a2.49 2.49 0 0 0-3.552 3.46l3.458 4.256c.941 1.158 1.549 1.906 2.377 2.356q.222.12.457.218c.871.359 1.835.359 3.327.358h1.33c1.12 0 1.838 0 2.483-.185a4.75 4.75 0 0 0 2.603-1.876c.38-.553.777-1.744 1.13-2.806.515-1.538.778-2.322.778-3.41 0-1.81-1.022-3.033-2.3-3.798-.44-.264-.943-.423-1.543-.554-.591-.128-1.334-.24-2.276-.381l-.91-.145 1.016-4.31a2.47 2.47 0 0 0-2.404-3.035" clip-rule="evenodd"/></svg>