<svg xmlns="http://www.w3.org/2000/svg" fill="none" viewBox="0 0 24 24"><path fill="currentColor" fill-rule="evenodd" d="M12.401 1.75h-.458c-2.191 0-3.912 0-5.255.18-1.377.19-2.469.57-3.327 1.43s-1.245 1.95-1.43 3.33a19 19 0 0 0-.138 1.69c-.012.29-.018.44.071.53.088.09.233.09.524.09H5c.971 0 1.599 0 2.061-.06.434-.06.57-.16.646-.23.076-.08.17-.21.229-.65C7.998 7.6 8 6.97 8 6c0-.55.448-1 1-1s1 .45 1 1v.07c0 .88 0 1.65-.082 2.26-.088.65-.287 1.28-.797 1.79-.509.51-1.138.71-1.793.8-.612.08-1.375.08-2.26.08h-2.72c-.282 0-.423 0-.511.09s-.088.23-.088.51v.46q0 .705.002 1.35c.001.28.002.42.089.5.088.09.228.09.509.09H6c.552 0 1 .45 1 1s-.448 1-1 1H2.447c-.3 0-.45 0-.539.1-.089.09-.077.24-.051.53.02.24.045.47.074.68.185 1.38.572 2.47 1.43 3.33s1.95 1.24 3.327 1.43c1.343.18 3.064.18 5.255.18h1.463c.28 0 .42 0 .507-.09s.087-.23.087-.51V16.6c0-.28 0-.42-.088-.51S13.683 16 13.4 16H10c-.552 0-1-.45-1-1s.448-1 1-1h11.65c.281 0 .421 0 .509-.09.087-.08.088-.22.089-.5q.002-.645.002-1.35v-.12c0-2.19 0-3.91-.181-5.25-.185-1.38-.572-2.47-1.43-3.33s-1.95-1.24-3.327-1.43c-.51-.07-1.073-.11-1.697-.14l-.042-.001c-.26-.01-.393-.014-.481.071C15 1.95 15 2.1 15 2.39V7c0 .97.002 1.6.064 2.06.059.44.153.57.229.65.076.07.212.17.646.23.462.06 1.09.06 2.061.06.552 0 1 .45 1 1s-.448 1-1 1h-.067c-.886 0-1.65 0-2.261-.08-.655-.09-1.284-.29-1.793-.8-.51-.51-.709-1.14-.797-1.79C13 8.72 13 7.95 13 7.07V2.35c0-.28 0-.42-.088-.51s-.229-.09-.51-.09zM16 21.55V16.6c0-.28 0-.42.088-.51s.229-.09.512-.09h4.953c.3 0 .45 0 .539.1.089.09.077.24.051.53-.02.24-.045.47-.074.68-.185 1.38-.572 2.47-1.43 3.33s-1.95 1.24-3.327 1.43c-.216.03-.443.05-.679.07-.292.03-.439.04-.536-.05S16 21.85 16 21.55" clip-rule="evenodd"/></svg>