<svg xmlns="http://www.w3.org/2000/svg" fill="none" viewBox="0 0 24 24"><path fill="currentColor" fill-rule="evenodd" d="M6.918 2.102a1 1 0 1 0-1.835.796l2.382 5.49C5.517 9.791 4.25 12.126 4.25 14.75c0 4.254 3.332 7.75 7.5 7.75h.5c4.168 0 7.5-3.496 7.5-7.75 0-2.623-1.267-4.958-3.215-6.362l2.383-5.49a1 1 0 0 0-1.835-.796l-2.32 5.343a7.3 7.3 0 0 0-2.071-.432l.224-.518.002-.005 1.56-3.592a1 1 0 1 0-1.835-.796L12 3.582l-.643-1.48a1 1 0 0 0-1.834.796l1.387 3.196-.442 1.018a7 7 0 0 0-1.231.333zm3.56 9.421a1.8 1.8 0 0 1 1.18-.421h.665c.404 0 .832.122 1.18.421.354.305.57.747.625 1.28.029.287.029.61 0 .897-.039.376-.181.75-.407 1.052.226.301.368.675.407 1.051.029.287.029.61 0 .897-.055.533-.271.975-.626 1.28a1.8 1.8 0 0 1-1.179.422h-.666c-.403 0-.831-.123-1.179-.422-.354-.305-.57-.747-.625-1.28a.65.65 0 0 1 1.293-.133c.026.253.113.37.18.427a.5.5 0 0 0 .331.108h.666a.5.5 0 0 0 .331-.108c.067-.057.155-.174.18-.427.02-.198.02-.432 0-.631a.76.76 0 0 0-.175-.433c-.082-.09-.148-.101-.169-.101h-.06a.65.65 0 0 1 0-1.3h.06c.021 0 .087-.012.169-.102a.76.76 0 0 0 .175-.432c.02-.2.02-.433 0-.632-.025-.252-.113-.37-.18-.427a.5.5 0 0 0-.33-.107h-.667a.5.5 0 0 0-.33.107c-.068.057-.155.175-.18.427a.65.65 0 0 1-1.294-.133c.055-.533.271-.975.625-1.28" clip-rule="evenodd"/></svg>