<svg xmlns="http://www.w3.org/2000/svg" fill="none" viewBox="0 0 24 24"><path fill="currentColor" fill-rule="evenodd" d="m7.963 7.265 7.207-3.513c1.655-.806 2.482-1.21 3.404-.895s1.239.988 1.872 2.337a13.58 13.58 0 0 1 0 11.612c-.633 1.348-.95 2.023-1.872 2.337s-1.75-.089-3.404-.895l-.883-.431c-.129-.063-.193-.094-.24-.065s-.048.1-.05.244q-.002.464-.028.82c-.03.4-.098.854-.342 1.248a2.5 2.5 0 0 1-2.352 1.176c-.462-.042-.866-.26-1.204-.475a22 22 0 0 1-1.24-.891L7.6 18.95c-.521-.391-.976-.8-1.261-1.37S6 16.401 6 15.75v-.918c0-.115 0-.172-.037-.202s-.094-.018-.207.006a3 3 0 0 1-.297.052c-1.977.229-3.209-1.36-3.209-3.187V10.5c0-1.827 1.232-3.416 3.21-3.187.158.019.356.064.751.153a2.6 2.6 0 0 0 1.752-.2m.325 7.628c-.13-.063-.194-.094-.241-.065-.047.03-.047.101-.047.245v.677c0 .57.057.794.128.936.07.142.216.322.672.664l1.2.9c.527.395.876.656 1.146.828.212.135.301.165.316.17h.004a.5.5 0 0 0 .454-.226l.001-.003c.005-.015.035-.105.054-.355.024-.32.025-.756.025-1.414 0-.22 0-.329-.034-.416a.5.5 0 0 0-.099-.159c-.064-.068-.162-.116-.358-.212z" clip-rule="evenodd"/></svg>