<svg xmlns="http://www.w3.org/2000/svg" fill="none" viewBox="0 0 24 24"><path fill="currentColor" fill-rule="evenodd" d="M9.777 1.818c1.46-.09 2.98-.09 4.44 0 4.57.31 8.19 3.99 8.49 8.6.05.86.05 1.76 0 2.62-.3 4.61-3.92 8.3-8.49 8.6-1.46.1-2.98.1-4.44 0-.57-.04-1.18-.17-1.72-.4-.24-.09-.4-.16-.52-.2-.08.05-.19.13-.35.25-.79.58-1.79.99-3.21.96h-.04c-.28-.01-.57-.02-.81-.06-.29-.06-.64-.2-.86-.58-.24-.41-.15-.82-.05-1.09.09-.24.24-.53.4-.83l.02-.04c.46-.89.59-1.61.34-2.09-.83-1.26-1.58-2.8-1.69-4.52a23 23 0 0 1 0-2.62c.3-4.61 3.92-8.29 8.49-8.6m1.23 7.44c0-.3.32-.76 1-.76s1 .46 1 .76c0 .12-.04.24-.13.36-.11.15-.26.32-.44.52-.03.03-.06.07-.09.1-.16.17-.33.36-.5.56-.37.44-.84 1.12-.84 1.97v.44c0 .56.45 1 1 1s1-.44 1-1v-.44c0-.11.06-.31.39-.7.12-.15.26-.3.41-.47.03-.03.07-.07.1-.11.19-.2.4-.44.59-.69.31-.43.51-.96.51-1.54 0-1.64-1.47-2.76-3-2.76s-3 1.12-3 2.76c0 .55.45 1 1 1s1-.45 1-1m1 6.24c-.55 0-1 .45-1 1s.45 1 1 1h.01c.55 0 1-.45 1-1s-.45-1-1-1z" clip-rule="evenodd"/></svg>