<svg xmlns="http://www.w3.org/2000/svg" fill="none" viewBox="0 0 24 24"><path fill="currentColor" fill-rule="evenodd" d="M16.457 1.541a1.004 1.004 0 0 0-1.414 0 .99.99 0 0 0 0 1.406l2.293 2.28-2.293 2.28a.99.99 0 0 0 0 1.406c.39.388 1.024.388 1.414 0l2.293-2.28 2.293 2.28c.39.388 1.024.388 1.414 0a.99.99 0 0 0 0-1.406l-2.293-2.28 2.293-2.28a.99.99 0 0 0 0-1.406 1.004 1.004 0 0 0-1.414 0l-2.293 2.28zm-2.832 1.356c-.086-.262-.13-.393-.206-.449s-.189-.06-.415-.066a34 34 0 0 0-3.224.057c-4.567.302-8.19 3.967-8.488 8.55a20 20 0 0 0 0 2.602c.11 1.707.86 3.246 1.692 4.495.25.479.12 1.197-.347 2.076l-.022.04c-.156.295-.31.584-.398.83-.094.261-.19.675.05 1.085.223.376.578.514.865.57.238.045.53.052.803.059h.046c1.42.035 2.42-.372 3.213-.953l.095-.07c.12-.088.18-.131.257-.14s.146.017.283.073l.23.093a5.7 5.7 0 0 0 1.72.392 34 34 0 0 0 4.441 0c4.567-.302 8.19-3.967 8.488-8.55.056-.857.056-1.744 0-2.602-.01-.144-.014-.216-.038-.267a.28.28 0 0 0-.18-.157c-.054-.018-.147-.012-.334 0a2.5 2.5 0 0 1-1.924-.723l-.808-.804c-.2-.199-.3-.298-.424-.298s-.224.1-.424.298l-.808.803a2.51 2.51 0 0 1-3.536 0 2.475 2.475 0 0 1 0-3.515l.808-.803c.2-.199.3-.298.3-.422 0-.123-.1-.223-.3-.422l-.808-.803a2.5 2.5 0 0 1-.607-.979m-6 12.147c0 .411.336.745.75.745h7c.414 0 .75-.334.75-.745a.75.75 0 0 0-.75-.746h-7a.75.75 0 0 0-.75.745m0-4.972c0 .412.336.746.75.746h3.5c.414 0 .75-.334.75-.746a.75.75 0 0 0-.75-.745h-3.5a.75.75 0 0 0-.75.745" clip-rule="evenodd"/></svg>