<svg xmlns="http://www.w3.org/2000/svg" fill="none" viewBox="0 0 24 24"><path fill="currentColor" fill-rule="evenodd" d="M18 1.25a2.75 2.75 0 1 0 0 5.5 2.75 2.75 0 0 0 0-5.5m4.18 7.675c-.374-.36-1.081-.753-1.39-.924a5.55 5.55 0 0 0-5.579 0c-.31.171-1.016.563-1.39.924-.233.224-.511.57-.563 1.035-.056.513.18.955.546 1.298.56.525 1.281.992 2.237.992h3.919c.955 0 1.677-.467 2.236-.992.366-.342.603-.785.546-1.298-.052-.464-.33-.811-.562-1.035m-8.935-6.652c.368.013.552.02.638.13s.043.314-.043.724a4.27 4.27 0 0 0 .417 2.887c.165.306.247.458.216.574-.032.116-.169.198-.442.362-.418.251-.93.586-1.25.894-.333.32-.905.974-1.013 1.95-.125 1.127.42 2.005 1.01 2.558.697.653 1.77 1.398 3.263 1.398h3.92c.842 0 1.55-.237 2.133-.56.142-.08.214-.12.251-.129a.29.29 0 0 1 .37.233c.007.038.002.107-.007.245-.298 4.61-3.921 8.296-8.488 8.6-1.46.097-2.983.097-4.44 0a5.6 5.6 0 0 1-1.722-.394l-.23-.095c-.136-.055-.204-.083-.282-.073s-.137.053-.257.141l-.095.07c-.793.585-1.793.994-3.213.96l-.046-.001c-.273-.007-.565-.014-.803-.06-.287-.055-.642-.194-.864-.573-.242-.412-.145-.828-.051-1.09.088-.248.242-.539.398-.835l.022-.041c.466-.884.596-1.606.347-2.088-.833-1.256-1.581-2.804-1.692-4.52a21 21 0 0 1 0-2.618c.298-4.61 3.921-8.296 8.488-8.6a34 34 0 0 1 3.465-.05M7 12.5a1 1 0 0 1 1-1h.01a1 1 0 1 1 0 2H8a1 1 0 0 1-1-1" clip-rule="evenodd"/></svg>