<svg xmlns="http://www.w3.org/2000/svg" fill="none" viewBox="0 0 24 24"><path fill="currentColor" fill-rule="evenodd" d="M18.052 2.25H5.948c-.899 0-1.648 0-2.242.08-.628.084-1.195.27-1.65.725-.456.456-.642 1.023-.726 1.65-.08.595-.08 1.344-.08 2.243v8.104c0 .899 0 1.648.08 2.242.084.628.27 1.195.725 1.65.456.456 1.023.642 1.65.726q.142.019.295.032v1.048a1 1 0 1 0 2 0v-1h12v1a1 1 0 1 0 2 0v-1.048q.153-.014.294-.032c.628-.084 1.195-.27 1.65-.726.456-.455.642-1.022.726-1.65.08-.594.08-1.344.08-2.242V6.948c0-.898 0-1.648-.08-2.242-.084-.628-.27-1.195-.726-1.65-.455-.456-1.022-.642-1.65-.726-.594-.08-1.343-.08-2.242-.08M20 7a1 1 0 1 0-2 0v.009a1 1 0 1 0 2 0zm0 2.996a1 1 0 1 0-2 0v.008a1 1 0 1 0 2 0zm0 2.995a1 1 0 1 0-2 0V13a1 1 0 1 0 2 0zM4 14V8c0-.943 0-1.414.293-1.707S5.057 6 6 6h7c.943 0 1.414 0 1.707.293S15 7.057 15 8v6c0 .943 0 1.414-.293 1.707S13.943 16 13 16H6c-.943 0-1.414 0-1.707-.293S4 14.943 4 14" clip-rule="evenodd"/></svg>