<svg xmlns="http://www.w3.org/2000/svg" fill="none" viewBox="0 0 24 24"><path fill="currentColor" fill-rule="evenodd" d="m18.686 4.865 2.081 2.494.216.46Q21 7.905 21 8v10.066c0 .886 0 1.65-.082 2.262-.088.655-.287 1.284-.797 1.793-.51.51-1.138.709-1.793.797-.612.082-1.376.082-2.262.082H7.934c-.886 0-1.65 0-2.262-.082-.655-.088-1.283-.287-1.793-.796s-.708-1.139-.797-1.794C3 19.716 3 18.953 3 18.066l.001-2.818q.002-2.865 0-5.73c-.002-.679-.003-1.281.228-1.837.23-.557.657-.982 1.137-1.461l.099-.099L6 4.586v-.041c0-.56 0-1.078.057-1.499.062-.464.21-.959.617-1.366.407-.406.902-.554 1.366-.616.422-.057.94-.057 1.5-.056h5.614l.195-.003c.286-.006.708-.015 1.078.036.514.072 1.168.28 1.628.906.47.642.463 1.362.445 1.796l-.01.167c-.02.34-.04.67.196.954m-7.688 7.767q.088.014.196.02c.387.027.808-.02 1.1-.098a2.09 2.09 0 0 1 2.218.755l.687.902c.241.317.565.424.846.37l.87-.167c.824-.16 1.562.255 2.012.829l.073.091V9.4c0-.189 0-.283-.059-.341S18.79 9 18.6 9h-7.603q.005.252.003.518zM7 6.54c.125 0 .225.1.425.3l.697.697c.635.635.744.769.802.91.059.14.076.312.076 1.211V21H8c-.97 0-1.599-.002-2.061-.064-.434-.058-.57-.153-.646-.229s-.17-.212-.228-.646C5.002 19.6 5 18.971 5 18.001V9.656c0-.9.018-1.07.076-1.211.059-.141.167-.275.803-.91l.697-.697c.2-.2.3-.3.424-.3" clip-rule="evenodd"/></svg>