<svg xmlns="http://www.w3.org/2000/svg" fill="none" viewBox="0 0 24 24"><path fill="currentColor" fill-rule="evenodd" d="M9.15 9.06c-.057.06-.057.15-.057.35v.056l-.001.055q-.004 3.282-.002 6.564v1.116c.002 1.115.002 2.22.002 3.325v.075c0 .19 0 .28.059.34s.153.06.341.06h1.6a1.001 1.001 0 0 1 0 2H6.024c-.885 0-1.648 0-2.26-.08-.655-.09-1.283-.29-1.793-.8s-.708-1.14-.797-1.79c-.082-.61-.082-1.38-.082-2.26v-2.853q.004-2.85 0-5.697V9.52c-.001-.68-.002-1.28.229-1.84.226-.55.642-.964 1.113-1.434l.025-.025c.535-.53 1.07-1.07 1.604-1.61.019-.01.029-.04.029-.06 0-.57 0-1.08.057-1.5.062-.47.21-.96.617-1.37s.902-.55 1.367-.62c.421-.05.938-.05 1.5-.05.625 0 1.249 0 1.874.01h.786c1.05.002 2.099.004 3.149-.02h.123c.276-.002.634-.003.954.04.514.07 1.169.28 1.628.91.47.64.463 1.36.445 1.79l-.008.15v.002c-.02.35-.04.688.194.968l2.082 2.5c.15.18.232.41.232.64v2a1.001 1.001 0 0 1-2 0v-.6c0-.19 0-.28-.058-.34-.06-.06-.153-.06-.342-.06H9.498c-.192 0-.288 0-.347.06M5.093 6.5c.083 0 .15.06.283.2l.839.84c.635.63.744.76.802.91.059.14.076.31.076 1.21V20.6c0 .19 0 .28-.058.34-.06.06-.153.06-.342.06h-.6c-.971 0-1.599 0-2.061-.06-.434-.06-.57-.16-.646-.23-.076-.08-.17-.21-.228-.65-.063-.46-.065-1.09-.065-2.06V9.66c0-.9.018-1.07.076-1.21.059-.15.167-.28.803-.91l.838-.84c.134-.14.2-.2.283-.2m11.693 6c-.816.31-1.7.91-2.492 1.7-.791.79-1.392 1.68-1.707 2.49-.155.41-.254.83-.244 1.24.008.31.082.64.268.93.038.35.143.72.285 1.06.18.44.45.91.806 1.26a5.356 5.356 0 0 0 7.572 0 5.35 5.35 0 0 0 0-7.57c-.355-.36-.819-.63-1.258-.81a4 4 0 0 0-1.067-.28 1.77 1.77 0 0 0-.928-.27c-.405-.01-.828.09-1.235.25m3.427 2.17a2.3 2.3 0 0 0-.56-.39 3.7 3.7 0 0 1-.224.86c-.314.81-.915 1.7-1.707 2.49a8 8 0 0 1-.33.31c.042.16.097.3.176.43.134.23.37.48.848.72.37.19.52.64.335 1.01a.744.744 0 0 1-1.006.33c-.706-.35-1.17-.79-1.468-1.29l-.006-.01a3 3 0 0 1-.128-.25 5.3 5.3 0 0 1-1.255.57c-.16.05-.334.09-.511.11.114.23.248.42.386.56a3.846 3.846 0 0 0 5.45 0 3.854 3.854 0 0 0 0-5.45" clip-rule="evenodd"/></svg>