<svg xmlns="http://www.w3.org/2000/svg" fill="none" viewBox="0 0 24 24"><path fill="currentColor" fill-rule="evenodd" d="M9.47 1.47a.75.75 0 1 1 1.06 1.06L9.317 3.744l.682.683a.75.75 0 0 1-.386 1.352l-1.444.114c-.295.023-.588.046-.828.033-.267-.015-.618-.08-.903-.365s-.35-.636-.364-.902c-.014-.24.01-.533.033-.828l.114-1.445A.75.75 0 0 1 7.573 2l.683.683zM2.385 6.222l1.447-.114a6 6 0 0 1 .826-.033c.266.015.618.08.903.364.285.285.35.636.364.903.014.24-.01.533-.033.828l-.114 1.445A.75.75 0 0 1 4.426 10l-.683-.683L2.53 10.53a.75.75 0 1 1-1.06-1.06l1.213-1.213L2 7.574a.748.748 0 0 1 .385-1.352M14.333 2.25a2.47 2.47 0 0 0-2.389 1.846L9.582 13.15 8.36 12.102a2.49 2.49 0 0 0-3.552 3.46l3.458 4.256c.941 1.158 1.549 1.906 2.377 2.356q.222.12.457.218c.871.359 1.835.359 3.328.358h1.33c1.119 0 1.837 0 2.482-.185a4.75 4.75 0 0 0 2.603-1.876c.38-.553.777-1.744 1.13-2.806.515-1.538.778-2.322.778-3.41 0-1.81-1.022-3.033-2.3-3.798-.44-.264-.942-.423-1.543-.554-.591-.128-1.334-.24-2.276-.381l-.023-.003-.887-.142 1.016-4.31a2.47 2.47 0 0 0-2.404-3.035" clip-rule="evenodd"/></svg>