<svg xmlns="http://www.w3.org/2000/svg" fill="none" viewBox="0 0 24 24"><path fill="currentColor" fill-rule="evenodd" d="M22.75 21a.75.75 0 0 1-.75.75H2a.75.75 0 0 1 0-1.5h.95a.3.3 0 0 0 .3-.3V9.466a.32.32 0 0 0-.262-.307 2.04 2.04 0 0 1-1.273-.79c-.272-.354-.375-.755-.422-1.165-.043-.386-.043-.943-.043-1.495 0-.551 0-1.027.043-1.413.047-.41.15-.811.422-1.166q.181-.235.415-.415c.355-.272.756-.375 1.166-.422.386-.043.862-.043 1.413-.043h12.34c.665 0 1.238 0 1.697.062.492.066.963.215 1.345.597s.531.854.597 1.345c.062.459.062 1.032.062 1.697v2.458c0 .497 0 .925-.036 1.275-.037.37-.121.735-.345 1.069a2.3 2.3 0 0 1-.616.616c-.334.223-.698.308-1.07.345l-.143.013a.31.31 0 0 0-.29.305v2.218h1.731c.5 0 .935.173 1.249.52.288.32.408.713.464 1.04.057.333.06.677.054.964-.004.155-.01.277-.014.384-.006.124-.01.229-.01.342a4.25 4.25 0 0 1-1.003 2.75H22a.75.75 0 0 1 .75.75m-5.25-.75c1.5 0 2.724-1.226 2.724-2.75 0-.125.007-.299.014-.464l.01-.297c.006-.26 0-.489-.033-.676-.033-.194-.081-.268-.098-.287a.03.03 0 0 0-.014-.01.3.3 0 0 0-.122-.016H15.02a.3.3 0 0 0-.122.016.03.03 0 0 0-.014.01c-.017.019-.065.093-.098.287a3.7 3.7 0 0 0-.033.676l.01.297c.007.165.014.34.014.464 0 1.524 1.225 2.75 2.724 2.75m-.75-6v-2.2a.3.3 0 0 0-.3-.301 3.5 3.5 0 0 1-.626-.05 2.75 2.75 0 0 1-1.779-1.205 4.8 4.8 0 0 1-.5-1.087.2.2 0 0 0-.04-.078.25.25 0 0 0-.106-.067.2.2 0 0 0-.056-.007L12 9.25c-.493 0-.787.002-.997.03-.136.013-.206.154-.223.223-.028.21-.03.504-.03.997V17A3.25 3.25 0 0 0 14 20.25h.28a4.25 4.25 0 0 1-1.004-2.75c0-.113-.004-.218-.01-.342a18 18 0 0 1-.014-.384 5 5 0 0 1 .054-.964c.056-.327.176-.72.464-1.04.314-.347.748-.52 1.249-.52zM18.008 6c0 .552-.446 1-.996 1h-.009a1 1 0 0 1-.995-1c0-.552.445-1 .995-1h.01c.55 0 .995.448.995 1" clip-rule="evenodd"/></svg>