<svg xmlns="http://www.w3.org/2000/svg" fill="none" viewBox="0 0 24 24"><path fill="currentColor" fill-rule="evenodd" d="M12.05 1.25c1.843 0 3.294 0 4.427.133 1.156.136 2.095.421 2.845 1.078.765.669 1.11 1.529 1.273 2.585.155 1.01.155 2.295.155 3.891v6.126c0 1.596 0 2.881-.155 3.891-.162 1.056-.508 1.916-1.273 2.585-.75.657-1.69.942-2.845 1.078-1.133.133-2.584.133-4.427.133h-.1c-1.843 0-3.294 0-4.427-.133-1.155-.136-2.095-.421-2.845-1.078-.765-.669-1.11-1.529-1.273-2.585-.155-1.01-.155-2.295-.155-3.892V8.938c0-1.596 0-2.881.155-3.891.162-1.056.508-1.916 1.273-2.585.75-.657 1.69-.942 2.845-1.078 1.133-.133 2.584-.133 4.427-.133zM12 5.75c-2.319 0-4.25 1.96-4.25 4.32 0 2.433 1.985 4.009 3.487 4.965l.013.009.013.007a1.47 1.47 0 0 0 1.474 0l.012-.006.011-.008c1.511-.95 3.49-2.542 3.49-4.967 0-2.36-1.931-4.32-4.25-4.32m-.007 2.75c-.824 0-1.493.672-1.493 1.5s.669 1.5 1.493 1.5h.014c.824 0 1.493-.672 1.493-1.5s-.669-1.5-1.493-1.5zM11 18.25a.75.75 0 0 0 0 1.5h2a.75.75 0 0 0 0-1.5z" clip-rule="evenodd"/></svg>