<svg xmlns="http://www.w3.org/2000/svg" fill="none" viewBox="0 0 24 24"><path fill="currentColor" fill-rule="evenodd" d="M11.929 1h.144c1.588 0 2.882 0 3.901.137 1.064.143 1.98.452 2.709 1.181.65.65.967 1.45 1.129 2.373.157.896.182 1.994.188 3.305a1 1 0 0 1-2 .008c-.006-1.333-.035-2.265-.158-2.967-.118-.673-.308-1.039-.573-1.305-.296-.296-.719-.5-1.561-.613C14.837 3.002 13.678 3 12 3s-2.837.002-3.707.12c-.843.112-1.265.316-1.561.612-.266.266-.456.632-.574 1.305-.123.702-.152 1.634-.157 2.967a1 1 0 0 1-2-.008c.005-1.311.03-2.41.187-3.305.163-.924.48-1.723 1.13-2.373.73-.73 1.644-1.038 2.708-1.18C9.047 1 10.34 1 11.929 1M4.998 15a1 1 0 0 1 1.004.996c.005 1.333.034 2.265.157 2.967.118.673.308 1.039.574 1.305.296.296.718.5 1.56.613.871.117 2.03.119 3.708.119s2.836-.002 3.707-.12c.842-.113 1.265-.316 1.56-.612.266-.266.456-.632.574-1.305.123-.702.152-1.634.158-2.967a1 1 0 1 1 2 .008c-.006 1.311-.03 2.41-.188 3.304-.162.925-.48 1.724-1.13 2.374-.729.73-1.644 1.038-2.708 1.18-1.02.138-2.313.138-3.901.138h-.144c-1.589 0-2.882 0-3.902-.137-1.064-.143-1.979-.452-2.708-1.181-.65-.65-.967-1.45-1.13-2.373-.157-.896-.182-1.994-.187-3.305A1 1 0 0 1 4.998 15m5.004 4a1 1 0 0 1 1-1h2a1 1 0 0 1 0 2h-2a1 1 0 0 1-1-1m5.347-8.242a1 1 0 1 1 1.306-1.515L17.88 10.3l.037.032c.225.193.465.4.64.597.197.223.444.578.444 1.071s-.247.848-.445 1.071a7 7 0 0 1-.639.597l-.037.032-1.226 1.058a1 1 0 1 1-1.306-1.515l1.227-1.058.213-.185-.213-.185zm-6.59-1.41a1 1 0 0 1-.104 1.41l-1.227 1.057-.214.185.214.185 1.227 1.058a1 1 0 1 1-1.306 1.515L6.123 13.7l-.038-.032a7 7 0 0 1-.638-.597c-.198-.223-.445-.578-.445-1.071s.247-.848.445-1.071c.174-.198.413-.404.638-.597l.038-.032 1.226-1.057a1 1 0 0 1 1.41.104m5.192-.032a1 1 0 1 0-1.898-.632l-2 6a1 1 0 0 0 1.898.633z" clip-rule="evenodd"/></svg>