<svg xmlns="http://www.w3.org/2000/svg" fill="none" viewBox="0 0 24 24"><path fill="currentColor" fill-rule="evenodd" d="M10.824 1.253c.082.003.122.004.14.08.017.074-.027.098-.116.145-.207.11-.455.275-.68.512a2.7 2.7 0 0 0-.62 1.087c-.059.198-.102.427-.122.533l-.004.018c-.732 3.86.9 7.807 5.047 9.315.32.117.843.307 1.532.307.688 0 1.212-.19 1.532-.307.27-.099.405-.148.498-.122q.102.028.163.114c.056.079.056.215.056.487v1.634c0 1.602 0 2.881-.135 3.884-.14 1.037-.435 1.89-1.11 2.565s-1.528.97-2.565 1.11c-1.003.135-2.282.135-3.884.135h-.112c-1.602 0-2.881 0-3.884-.135-1.037-.14-1.89-.435-2.565-1.11s-.97-1.528-1.11-2.565c-.135-1.003-.135-2.282-.135-3.884V8.944c0-1.602 0-2.881.135-3.884.14-1.037.435-1.89 1.11-2.565s1.528-.97 2.565-1.11c1.003-.135 2.282-.135 3.884-.135q.225 0 .38.003M8.5 19a1 1 0 0 1 1-1h2a1 1 0 1 1 0 2h-2a1 1 0 0 1-1-1m7.498-17.75c-.88 0-1.59.284-2.176.573-.195.095-.365.185-.522.267-.354.186-.636.334-.96.432-.204.062-.411.124-.556.178a1.4 1.4 0 0 0-.528.32 1.2 1.2 0 0 0-.272.488c-.036.12-.066.281-.089.4-.62 3.266.746 6.41 4.085 7.625.307.112.597.217 1.02.217.422 0 .712-.105 1.02-.217 3.338-1.215 4.703-4.359 4.083-7.625-.023-.119-.053-.28-.09-.4a1.2 1.2 0 0 0-.272-.487 1.4 1.4 0 0 0-.528-.32c-.144-.055-.35-.117-.555-.179-.324-.098-.607-.247-.96-.432a22 22 0 0 0-.523-.267c-.586-.289-1.296-.573-2.177-.573" clip-rule="evenodd"/></svg>