<svg xmlns="http://www.w3.org/2000/svg" fill="none" viewBox="0 0 24 24"><path fill="currentColor" fill-rule="evenodd" d="M12 3.702c-2.213 0-3.775.002-4.958.161-1.154.156-1.8.444-2.267.911-.468.468-.756 1.114-.912 2.268-.159 1.183-.16 2.744-.16 4.958s.001 3.775.16 4.958c.156 1.154.444 1.8.912 2.267.467.468 1.113.756 2.267.911 1.183.16 2.745.162 4.958.162s3.775-.003 4.958-.162c1.154-.155 1.8-.443 2.267-.91.468-.468.756-1.114.912-2.268.159-1.183.16-2.745.16-4.958v-1.464a.977.977 0 0 1 1.953 0v1.537c0 2.124 0 3.817-.178 5.145-.185 1.37-.575 2.497-1.466 3.388-.89.89-2.017 1.281-3.388 1.465-1.328.179-3.021.179-5.145.179h-.146c-2.124 0-3.817 0-5.145-.179-1.371-.184-2.497-.575-3.388-1.465-.89-.89-1.281-2.017-1.466-3.388-.178-1.328-.178-3.021-.178-5.145v-.146c0-2.124 0-3.817.178-5.145.185-1.371.575-2.497 1.466-3.388.89-.89 2.017-1.281 3.388-1.466 1.328-.178 3.021-.178 5.145-.178h1.537a.977.977 0 0 1 0 1.952zm5.446 4.257a.993.993 0 1 1-1.405-1.405l1.8-1.8-.113-.114a8 8 0 0 1-.57-.61c-.11-.14-.51-.653-.294-1.291.217-.64.841-.778 1.01-.815.232-.052.531-.08.814-.106l.049-.004a11 11 0 0 1 1.425-.058c.23.01.483.036.724.097.223.058.55.173.819.442s.384.596.441.82c.062.24.088.493.098.723.02.462-.016.98-.058 1.425l-.004.049a7 7 0 0 1-.106.814c-.037.169-.176.792-.815 1.01-.638.216-1.151-.184-1.29-.294a7 7 0 0 1-.61-.57l-.115-.114zM13 7.499a1 1 0 1 0-2 0v.283c-1.098.35-2 1.265-2 2.53C9 11.95 10.51 13 12 13c.718 0 1 .46 1 .687s-.282.688-1 .688c-.536 0-.87-.287-.964-.511a1 1 0 1 0-1.845.772c.326.778 1.007 1.333 1.809 1.586v.278a1 1 0 1 0 2 0v-.282c1.098-.35 2-1.265 2-2.53C15 12.05 13.49 11 12 11c-.718 0-1-.46-1-.688s.282-.687 1-.687c.536 0 .87.287.964.511a1 1 0 1 0 1.845-.772C14.483 8.586 13.802 8.03 13 7.778z" clip-rule="evenodd"/></svg>