<svg xmlns="http://www.w3.org/2000/svg" fill="none" viewBox="0 0 24 24"><path fill="currentColor" fill-rule="evenodd" d="M16.535 1.25h-9.07c-.205 0-.426 0-.614.025-.219.03-.5.105-.735.341a1.24 1.24 0 0 0-.341.735 6 6 0 0 0-.025.683c0 .206 0 .427.025.615.03.219.105.5.341.735.236.236.516.312.735.341.188.025.41.025.615.025h9.069c.205 0 .426 0 .614-.025.219-.03.5-.105.735-.341.236-.236.311-.516.341-.735.025-.188.025-.41.025-.615s0-.495-.025-.683c-.03-.219-.105-.5-.341-.735a1.24 1.24 0 0 0-.735-.341c-.188-.025-.41-.025-.614-.025M6.128 6l-.306.35c-.89 1.016-1.464 1.673-1.768 2.482s-.304 1.682-.304 3.032v4.19c0 1.368 0 2.47.117 3.338.12.9.38 1.658.981 2.26.602.601 1.36.86 2.26.981.867.117 1.97.117 3.337.117h3.11c1.367 0 2.47 0 3.337-.117.9-.12 1.658-.38 2.26-.981.602-.602.86-1.36.982-2.26.116-.867.116-1.97.116-3.337v-4.19c0-1.35 0-2.223-.303-3.033-.305-.81-.88-1.466-1.769-2.482L17.872 6zm5.843 3.5a.75.75 0 0 1 .75.75v.318q.312.07.593.188c.768.322 1.502.967 1.662 1.861a.75.75 0 0 1-1.476.266c-.04-.22-.275-.538-.765-.744-.469-.196-1.018-.216-1.472-.003-.708.332-.863.82-.826 1.081.03.207.24.613 1.14.659q.194.01.424.014c.345.009.73.018 1.053.065.524.075 1.084.26 1.543.757.45.488.743 1.292.628 2.09-.125.876-.723 1.655-1.865 2.018a4 4 0 0 1-.639.149v.281a.75.75 0 0 1-1.5 0v-.325a4 4 0 0 1-.9-.309c-.825-.402-1.571-1.17-1.571-2.183a.75.75 0 0 1 1.5 0c0 .216.181.568.729.835a2.64 2.64 0 0 0 1.926.122c.637-.202.798-.538.835-.8.049-.339-.092-.694-.245-.86-.144-.156-.33-.244-.654-.29a6 6 0 0 0-.752-.046c-.17-.004-.362-.008-.587-.02-1.38-.07-2.39-.815-2.55-1.947-.153-1.078.536-2.116 1.675-2.65q.292-.135.594-.206v-.321a.75.75 0 0 1 .75-.75" clip-rule="evenodd"/></svg>