<svg xmlns="http://www.w3.org/2000/svg" fill="none" viewBox="0 0 24 24"><path fill="currentColor" fill-rule="evenodd" d="M14.368 3.25c1.455.003 2.637.02 3.6.128 1.163.131 2.105.405 2.889 1.024q.352.278.65.611c.666.748.963 1.653 1.105 2.764.137 1.08.137 2.446.137 4.17v.529c0 1.526-.011 2.756-.137 3.746-.142 1.11-.44 2.016-1.106 2.764a5 5 0 0 1-.65.611c-.783.619-1.725.893-2.887 1.024-.964.109-2.146.125-3.601.128H9.631c-1.455-.003-2.638-.02-3.601-.128-1.162-.131-2.105-.405-2.888-1.024a5 5 0 0 1-.65-.611c-.666-.748-.963-1.653-1.105-2.764-.115-.9-.134-1.998-.137-3.337v-1.77c.003-1.34.022-2.438.137-3.338.142-1.11.44-2.016 1.105-2.764q.298-.333.65-.611c.783-.619 1.726-.893 2.888-1.024.963-.109 2.146-.125 3.6-.128zM11.999 9a3 3 0 1 0 0 6 3 3 0 0 0 0-6m6.51 2a1 1 0 1 0-.009 2 1 1 0 1 0 .009-2M5.501 11a1 1 0 1 0-.009 2 1 1 0 1 0 .009-2" clip-rule="evenodd"/></svg>