<svg xmlns="http://www.w3.org/2000/svg" fill="none" viewBox="0 0 24 24"><path fill="currentColor" fill-rule="evenodd" d="M3.169 6.57c.06.35.18.695.366 1.02a3.03 3.03 0 0 0 2.522 1.533l.007-.03a6.26 6.26 0 0 1 3.01-3.924 3.1 3.1 0 0 0-.958-1.478 4.15 4.15 0 0 1-1.898 2.436 4.1 4.1 0 0 1-3.05.444m7.786-2.086a5 5 0 0 0-.428-.97 5.03 5.03 0 0 0-2.992-2.35 1 1 0 0 0-1.267 1.083A2.18 2.18 0 0 1 5.21 4.4a2.12 2.12 0 0 1-2.354-.147 1 1 0 0 0-1.577.551 5.1 5.1 0 0 0 2.443 5.687 5.75 5.75 0 0 0 .675 9.698c.514.277.77.416.823.369.052-.048-.08-.367-.345-1.006-.368-.886-.378-2.018.01-2.794l1-2a2.5 2.5 0 0 1 4.473 0 .016.016 0 0 0 .028 0 2.5 2.5 0 0 1 4.472 0 .016.016 0 0 0 .028 0 2.5 2.5 0 1 1 4.472 2.236l-1.356 3.038c-.173.388-.26.582-.149.724s.305.108.692.04a5.252 5.252 0 0 0 .322-10.272c-.243-.06-.365-.089-.427-.16-.063-.07-.077-.193-.104-.439a6.25 6.25 0 0 0-7.38-5.44M8.572 14.981a1 1 0 0 1 .448 1.341l-1 2a1 1 0 1 1-1.79-.894l1-2a1 1 0 0 1 1.342-.447m4.5 0a1 1 0 0 1 .448 1.341l-1 2a1 1 0 1 1-1.79-.894l1-2a1 1 0 0 1 1.342-.447m4.5 0a1 1 0 0 1 .448 1.341l-1 2a1 1 0 1 1-1.79-.894l1-2a1 1 0 0 1 1.342-.447m-8 4a1 1 0 0 1 .448 1.341l-1 2a1 1 0 1 1-1.79-.894l1-2a1 1 0 0 1 1.342-.447m4.5 0a1 1 0 0 1 .448 1.341l-1 2a1 1 0 1 1-1.79-.894l1-2a1 1 0 0 1 1.342-.447" clip-rule="evenodd"/></svg>