<svg xmlns="http://www.w3.org/2000/svg" fill="none" viewBox="0 0 24 24"><path fill="currentColor" fill-rule="evenodd" d="M11.974 2h.053c.21 0 .414 0 .588.012.19.013.416.043.65.14a2 2 0 0 1 1.083 1.083c.097.234.127.46.14.65.012.174.012.378.012.589v.052c0 .21 0 .415-.012.59a2 2 0 0 1-.14.65 2 2 0 0 1-1.083 1.082 2 2 0 0 1-.65.14C12.441 7 12.236 7 12.027 7h-.054c-.21 0-.414 0-.588-.012a2 2 0 0 1-.65-.14 2 2 0 0 1-1.083-1.083 2 2 0 0 1-.14-.65C9.5 4.941 9.5 4.737 9.5 4.527v-.053c0-.21 0-.415.012-.59.013-.19.043-.415.14-.65a2 2 0 0 1 1.083-1.082 2 2 0 0 1 .65-.14C11.559 2 11.763 2 11.973 2m-.466 2.008v.013a8 8 0 0 0-.008.479c0 .247 0 .382.007.48l.001.012h.013C11.618 5 11.753 5 12 5s.382 0 .48-.007l.012-.001v-.013c.007-.097.008-.232.008-.479s0-.382-.007-.48l-.001-.012h-.013A8 8 0 0 0 12 4c-.247 0-.382 0-.48.007zm.466 5.492h.053c.21 0 .414 0 .588.012.19.013.416.043.65.14a2 2 0 0 1 1.083 1.083c.097.234.127.46.14.65.012.174.012.379.012.588v.054c0 .21 0 .414-.012.588a2 2 0 0 1-.14.65 2 2 0 0 1-1.083 1.083 2 2 0 0 1-.65.14c-.174.012-.379.012-.588.012h-.054c-.21 0-.414 0-.588-.012a2 2 0 0 1-.65-.14 2 2 0 0 1-1.083-1.083 2 2 0 0 1-.14-.65c-.012-.174-.012-.378-.012-.588v-.054c0-.21 0-.414.012-.588a2 2 0 0 1 .14-.65 2 2 0 0 1 1.083-1.083 2 2 0 0 1 .65-.14c.174-.012.379-.012.588-.012m-.466 2.008v.013A8 8 0 0 0 11.5 12c0 .247 0 .382.007.48l.001.012h.013c.097.007.232.008.479.008s.382 0 .48-.007l.012-.001v-.013c.007-.097.008-.232.008-.479s0-.382-.007-.48l-.001-.012h-.013A8 8 0 0 0 12 11.5c-.247 0-.382 0-.48.007zM12 17h-.027c-.21 0-.414 0-.588.012a2 2 0 0 0-.65.14 2 2 0 0 0-1.083 1.083 2 2 0 0 0-.14.65c-.012.174-.012.378-.012.588v.053c0 .21 0 .415.012.59.013.19.043.415.14.65a2 2 0 0 0 1.083 1.082c.234.097.46.127.65.14.174.012.379.012.588.012h.054c.21 0 .414 0 .588-.012a2 2 0 0 0 .65-.14 2 2 0 0 0 1.083-1.083 2 2 0 0 0 .14-.65c.012-.174.012-.378.012-.588v-.053c0-.21 0-.415-.012-.59a2 2 0 0 0-.14-.65 2 2 0 0 0-1.083-1.082 2 2 0 0 0-.65-.14C12.441 17 12.236 17 12.027 17zm-.493 2.02.001-.012h.013C11.618 19 11.753 19 12 19s.382 0 .48.007l.012.001v.013c.007.097.008.232.008.479s0 .382-.007.48l-.001.012h-.013A8 8 0 0 1 12 20c-.247 0-.382 0-.48-.007l-.012-.001v-.013a8 8 0 0 1-.008-.479c0-.247 0-.382.007-.48" clip-rule="evenodd"/></svg>