<svg xmlns="http://www.w3.org/2000/svg" fill="none" viewBox="0 0 24 24"><path fill="currentColor" fill-rule="evenodd" d="M11.978 2.25h.044c.214 0 .41 0 .576.011.178.012.373.04.572.122.428.178.77.519.947.947.082.199.11.394.122.572.011.165.011.362.011.576v.044c0 .214 0 .41-.011.576-.012.178-.04.373-.122.572a1.75 1.75 0 0 1-.947.947c-.199.082-.394.11-.572.122a9 9 0 0 1-.576.011h-.044c-.214 0-.41 0-.576-.011a1.8 1.8 0 0 1-.572-.122 1.75 1.75 0 0 1-.947-.947 1.8 1.8 0 0 1-.122-.572c-.011-.165-.011-.362-.011-.576v-.044c0-.214 0-.41.011-.576.012-.178.04-.373.122-.572a1.75 1.75 0 0 1 .947-.947c.199-.082.394-.11.572-.122.165-.011.362-.011.576-.011m7.522 0h-.022c-.214 0-.41 0-.576.011-.178.012-.373.04-.572.122a1.75 1.75 0 0 0-.947.947c-.082.199-.11.394-.122.572-.011.165-.011.362-.011.576v.044c0 .214 0 .41.011.576.012.178.04.373.122.572.178.428.518.77.947.947.199.082.394.11.572.122.165.011.362.011.576.011h.044c.214 0 .41 0 .576-.011.178-.012.373-.04.572-.122a1.75 1.75 0 0 0 .947-.947c.082-.199.11-.394.122-.572.011-.165.011-.362.011-.576v-.044c0-.214 0-.41-.011-.576a1.8 1.8 0 0 0-.122-.572 1.75 1.75 0 0 0-.947-.947 1.8 1.8 0 0 0-.572-.122c-.165-.011-.362-.011-.576-.011zm-.022 7.5h.044c.214 0 .41 0 .576.011.178.012.373.04.572.122.428.178.77.519.947.947.082.199.11.394.122.572.011.165.011.362.011.576v.044c0 .214 0 .41-.011.576-.012.178-.04.373-.122.572a1.75 1.75 0 0 1-.947.947c-.199.082-.394.11-.572.122-.165.011-.362.011-.576.011h-.044c-.214 0-.41 0-.576-.011a1.8 1.8 0 0 1-.572-.122 1.75 1.75 0 0 1-.947-.947 1.8 1.8 0 0 1-.122-.572c-.011-.165-.011-.362-.011-.576v-.044c0-.214 0-.41.011-.576.012-.178.04-.373.122-.572a1.75 1.75 0 0 1 .947-.947c.199-.082.394-.11.572-.122.165-.011.362-.011.576-.011m0 7.5h.044c.214 0 .41 0 .576.011.178.012.373.04.572.122.428.178.77.518.947.947.082.199.11.394.122.572.011.165.011.362.011.576v.044c0 .214 0 .41-.011.576-.012.178-.04.373-.122.572a1.75 1.75 0 0 1-.947.947c-.199.082-.394.11-.572.122-.165.011-.362.011-.576.011h-.044c-.214 0-.41 0-.576-.011a1.8 1.8 0 0 1-.572-.122 1.75 1.75 0 0 1-.947-.947 1.8 1.8 0 0 1-.122-.572c-.011-.165-.011-.362-.011-.576v-.044c0-.214 0-.41.011-.576.012-.178.04-.373.122-.572a1.75 1.75 0 0 1 .947-.947c.199-.082.394-.11.572-.122.165-.011.362-.011.576-.011m-7.5 0h.044c.214 0 .41 0 .576.011.178.012.373.04.572.122.428.178.77.518.947.947.082.199.11.394.122.572.011.165.011.362.011.576v.044c0 .214 0 .41-.011.576-.012.178-.04.373-.122.572a1.75 1.75 0 0 1-.947.947c-.199.082-.394.11-.572.122-.165.011-.362.011-.576.011h-.044c-.214 0-.41 0-.576-.011a1.8 1.8 0 0 1-.572-.122 1.75 1.75 0 0 1-.947-.947 1.8 1.8 0 0 1-.122-.572c-.011-.165-.011-.362-.011-.576v-.044c0-.214 0-.41.011-.576.012-.178.04-.373.122-.572a1.75 1.75 0 0 1 .947-.947c.199-.082.394-.11.572-.122.165-.011.362-.011.576-.011M12 9.75h-.022c-.214 0-.41 0-.576.011-.178.012-.373.04-.572.122a1.75 1.75 0 0 0-.947.947c-.082.199-.11.394-.122.572-.011.165-.011.362-.011.576v.044c0 .214 0 .41.011.576.012.178.04.373.122.572.178.428.519.77.947.947.199.082.394.11.572.122.165.011.362.011.576.011h.044c.214 0 .41 0 .576-.011.178-.012.373-.04.572-.122a1.75 1.75 0 0 0 .947-.947c.082-.199.11-.394.122-.572.011-.165.011-.362.011-.576v-.044c0-.214 0-.41-.011-.576a1.8 1.8 0 0 0-.122-.572 1.75 1.75 0 0 0-.947-.947 1.8 1.8 0 0 0-.572-.122c-.165-.011-.362-.011-.576-.011zm-7.5 7.5h-.022c-.214 0-.41 0-.576.011-.178.012-.373.04-.572.122a1.75 1.75 0 0 0-.947.947c-.082.199-.11.394-.122.572-.011.165-.011.362-.011.576v.044c0 .214 0 .41.011.576.012.178.04.373.122.572.178.428.519.77.947.947.199.082.394.11.572.122.165.011.362.011.576.011h.044c.214 0 .41 0 .576-.011.178-.012.373-.04.572-.122a1.75 1.75 0 0 0 .947-.947c.082-.199.11-.394.122-.572.011-.165.011-.362.011-.576v-.044c0-.214 0-.41-.011-.576a1.8 1.8 0 0 0-.122-.572 1.75 1.75 0 0 0-.947-.947 1.8 1.8 0 0 0-.572-.122c-.165-.011-.362-.011-.576-.011zm-.022-7.5h.044c.214 0 .41 0 .576.011.178.012.373.04.572.122.428.178.77.519.947.947.082.199.11.394.122.572.011.165.011.362.011.576v.044c0 .214 0 .41-.011.576-.012.178-.04.373-.122.572a1.75 1.75 0 0 1-.947.947c-.199.082-.394.11-.572.122-.165.011-.362.011-.576.011h-.044c-.214 0-.41 0-.576-.011a1.8 1.8 0 0 1-.572-.122 1.75 1.75 0 0 1-.947-.947 1.8 1.8 0 0 1-.122-.572c-.011-.165-.011-.362-.011-.576v-.044c0-.214 0-.41.011-.576.012-.178.04-.373.122-.572a1.75 1.75 0 0 1 .947-.947c.199-.082.394-.11.572-.122.165-.011.362-.011.576-.011m.022-7.5h-.022c-.214 0-.41 0-.576.011-.178.012-.373.04-.572.122a1.75 1.75 0 0 0-.947.947c-.082.199-.11.394-.122.572-.011.165-.011.362-.011.576v.044c0 .214 0 .41.011.576.012.178.04.373.122.572.178.428.519.77.947.947.199.082.394.11.572.122.165.011.362.011.576.011h.044c.214 0 .41 0 .576-.011.178-.012.373-.04.572-.122a1.75 1.75 0 0 0 .947-.947c.082-.199.11-.394.122-.572.011-.165.011-.362.011-.576v-.044c0-.214 0-.41-.011-.576a1.8 1.8 0 0 0-.122-.572 1.75 1.75 0 0 0-.947-.947 1.8 1.8 0 0 0-.572-.122c-.165-.011-.362-.011-.576-.011z" clip-rule="evenodd"/></svg>