<svg xmlns="http://www.w3.org/2000/svg" fill="none" viewBox="0 0 24 24"><path fill="currentColor" fill-rule="evenodd" d="M10.45 16.4a.75.75 0 0 0-.9 0c-.694.52-1.266.949-1.606 1.427a3.8 3.8 0 0 0-.516 1.032c-.179.559-.178 1.159-.178 2.026v1.465c0 .189 0 .283-.059.341s-.152.059-.34.059H3a.75.75 0 0 1-.75-.75v-5.05c0-.664 0-1.237.062-1.696.066-.492.215-.963.597-1.345s.854-.531 1.345-.597c.459-.062 1.032-.062 1.697-.062h8.098c.665 0 1.238 0 1.697.062.201.027.4.068.59.133l.402-7.24c-.34-.516-.507-1.037-.486-1.563.024-.603.29-1.093.584-1.475.278-.36.623-.675.898-.926.313-.285.537-.498.64-.655a.75.75 0 0 1 1.252 0c.103.157.327.37.64.655.275.25.62.566.898.926.294.382.56.873.584 1.475.021.528-.147 1.052-.491 1.571l.493 15.764a.75.75 0 0 1-.75.773h-7.85c-.189 0-.283 0-.341-.059s-.059-.152-.059-.341v-1.465c0-.867 0-1.467-.178-2.026a3.8 3.8 0 0 0-.516-1.032c-.34-.478-.912-.907-1.606-1.427m7.3 4.85v-4.3c0-.648 0-1.21-.057-1.662a.8.8 0 0 0 .056-.246l.46-8.292h1.564l.453 14.5zm-6.9 1.5c.189 0 .283 0 .341-.059.06-.058.06-.152.06-.341V21c0-1.027-.01-1.377-.108-1.684a2.3 2.3 0 0 0-.31-.62c-.12-.17-.276-.32-.591-.569-.115-.09-.172-.136-.242-.136s-.127.046-.242.136c-.314.25-.471.4-.592.569a2.3 2.3 0 0 0-.31.62c-.098.307-.106.657-.106 1.684v1.35c0 .189 0 .283.059.341s.152.059.341.059zm-.224-19.664a.75.75 0 0 0-1.252 0c-.268.407-.782.886-1.386 1.436-.56.511-1.208 1.103-1.722 1.77-.536.694-.974 1.529-1.013 2.522-.04 1.002.33 2.045 1.178 3.144a.75.75 0 0 0 .594.292h5.95a.75.75 0 0 0 .594-.292c.847-1.099 1.218-2.142 1.178-3.144-.04-.993-.477-1.828-1.013-2.522-.514-.667-1.163-1.259-1.723-1.77-.603-.55-1.117-1.03-1.385-1.436" clip-rule="evenodd"/></svg>