<svg xmlns="http://www.w3.org/2000/svg" fill="none" viewBox="0 0 24 24"><path fill="currentColor" fill-rule="evenodd" d="M21.336 5.819c-.232.442-.68.53-1.003.325L18.1 4.726c-.785-.498-1.44-.914-2.003-1.168-.593-.269-1.199-.411-1.846-.22-.796.234-1.305.874-1.771 1.65-2.027-.956-3.827-.946-5.407-.185-1.7.819-3.017 2.447-4.088 4.271-1.07 1.822-1.85 3.76-1.721 5.625.134 1.938 1.235 3.633 3.551 4.948 2.317 1.314 4.351 1.398 6.113.55 1.7-.819 3.016-2.447 4.087-4.27s1.85-3.76 1.721-5.626c-.122-1.76-1.042-3.322-2.948-4.578.423-.692.667-.882.887-.947.161-.047.372-.047.805.149.453.204 1.019.562 1.863 1.097l2.186 1.388c1.126.715 2.53.257 3.135-.894a.75.75 0 1 0-1.328-.697m-9.35 1.314a1 1 0 0 0-1.367.366l-1 1.732a1 1 0 1 0 1.733 1l1-1.732a1 1 0 0 0-.367-1.366" clip-rule="evenodd"/></svg>