<svg xmlns="http://www.w3.org/2000/svg" fill="none" viewBox="0 0 24 24"><path fill="currentColor" fill-rule="evenodd" d="M5.007 1.25a.75.75 0 0 1 .75.75c0 .414.336.75.75.75h2.552c.898 0 1.648 0 2.242.08.628.084 1.195.27 1.65.725.456.456.641 1.023.726 1.65l.008.062h-1.516c-.064-.364-.162-.534-.278-.65-.13-.131-.328-.238-.79-.3-.483-.065-1.13-.067-2.094-.067h-2.5A2.25 2.25 0 0 1 4.257 2a.75.75 0 0 1 .75-.75m8.678 4.017v-.001c.545.024 1.08.076 1.601.14 2.312.285 4.096 2.2 4.276 4.464.106 1.331.195 2.715.195 4.13s-.09 2.799-.195 4.13c-.18 2.264-1.964 4.179-4.276 4.464-.735.09-1.498.156-2.28.156-.78 0-1.543-.066-2.279-.156-2.31-.285-4.096-2.2-4.275-4.464-.106-1.331-.195-2.715-.195-4.13s.089-2.799.195-4.13c.18-2.264 1.964-4.18 4.275-4.464.471-.058.953-.106 1.443-.132l.02.131c.065.483.067 1.131.067 2.095v.776a1.6 1.6 0 0 0-.42.107 1.75 1.75 0 0 0-.947.947c-.082.199-.11.394-.122.572-.011.165-.011.362-.011.576v1.044c0 .214 0 .41.011.576.012.178.04.373.122.572.178.428.518.77.947.947.199.082.394.11.572.122.165.011.362.011.576.011h.044c.214 0 .41 0 .576-.011.178-.012.373-.04.572-.122a1.75 1.75 0 0 0 .947-.947c.082-.199.11-.394.122-.572.01-.165.01-.362.01-.576v-1.044c0-.214 0-.41-.01-.576a1.8 1.8 0 0 0-.122-.572 1.75 1.75 0 0 0-.947-.947 1.6 1.6 0 0 0-.42-.107v-.828c0-.868 0-1.596-.072-2.18M12.408 9.77a.25.25 0 0 0-.13.131 1 1 0 0 0-.013.103 8 8 0 0 0-.008.496v1c0 .243 0 .388.008.496a1 1 0 0 0 .012.103.25.25 0 0 0 .131.13 1 1 0 0 0 .103.013c.108.008.253.008.496.008s.388 0 .496-.008a1 1 0 0 0 .102-.012.25.25 0 0 0 .131-.131 1 1 0 0 0 .013-.103 8 8 0 0 0 .008-.496v-1c0-.243 0-.388-.008-.496a1 1 0 0 0-.013-.103.25.25 0 0 0-.13-.13 1 1 0 0 0-.103-.013 8 8 0 0 0-.496-.008c-.243 0-.388 0-.496.008a1 1 0 0 0-.103.012" clip-rule="evenodd"/></svg>