<svg xmlns="http://www.w3.org/2000/svg" fill="none" viewBox="0 0 24 24"><path fill="currentColor" fill-rule="evenodd" d="M11.562 1.25a.296.296 0 0 0-.312.298v3.44c0 .151.114.275.259.316q.08.023.16.056c.43.178.77.52.948.949.082.198.11.394.122.572.011.165.011.363.011.577v1.045c0 .215 0 .412-.011.577-.012.178-.04.374-.122.573a1.75 1.75 0 0 1-1.108 1.004c-.146.041-.259.165-.259.316v1.013a.75.75 0 1 1-1.5 0v-1.013c0-.151-.114-.275-.259-.316a1.75 1.75 0 0 1-1.108-1.004 1.8 1.8 0 0 1-.122-.573 9 9 0 0 1-.011-.577V7.458c0-.214 0-.412.011-.577.012-.178.04-.374.122-.572a1.75 1.75 0 0 1 1.108-1.005c.146-.04.259-.165.259-.316v-3.44a.296.296 0 0 0-.312-.298c-.599.034-1.187.093-1.765.164-2.799.345-4.962 2.67-5.18 5.415-.132 1.666-.243 3.391-.243 5.156s.11 3.49.243 5.155c.218 2.746 2.381 5.07 5.18 5.416.916.113 1.861.194 2.827.194s1.911-.081 2.827-.194c2.799-.346 4.962-2.67 5.18-5.416.132-1.665.243-3.39.243-5.155 0-1.764-.11-3.49-.243-5.156-.218-2.745-2.381-5.07-5.18-5.415a27 27 0 0 0-1.765-.164m-.343 5.61a.1.1 0 0 1 .015.044l.008.08c.008.107.008.252.008.496v1c0 .244 0 .389-.008.497l-.008.08a.1.1 0 0 1-.015.044.25.25 0 0 1-.1.1.1.1 0 0 1-.043.014l-.08.009a8 8 0 0 1-.496.007c-.243 0-.388 0-.496-.007l-.08-.009a.1.1 0 0 1-.044-.014.25.25 0 0 1-.1-.1.1.1 0 0 1-.014-.044l-.008-.08a8 8 0 0 1-.008-.497v-1c0-.244 0-.389.008-.497l.008-.08a.1.1 0 0 1 .015-.044.25.25 0 0 1 .1-.1.1.1 0 0 1 .044-.014l.079-.008a8 8 0 0 1 .496-.008c.243 0 .388 0 .496.008l.08.008q.023.003.044.015a.25.25 0 0 1 .1.1m6.8-3.927a1 1 0 0 1 1.462-1.364c1.177 1.263 1.987 2.811 2.257 4.527a1 1 0 1 1-1.976.31c-.201-1.282-.811-2.473-1.744-3.473" clip-rule="evenodd"/></svg>