<svg xmlns="http://www.w3.org/2000/svg" fill="none" viewBox="0 0 24 24"><path fill="currentColor" fill-rule="evenodd" d="M5.982 2.932a1 1 0 0 0-1.463-1.364C3.342 2.831 2.532 4.38 2.262 6.095a1 1 0 1 0 1.976.31c.201-1.282.811-2.473 1.744-3.473m6.449-1.634a.294.294 0 0 1 .319.295v3.419c0 .15-.114.274-.259.315a1.75 1.75 0 0 0-1.108 1.003c-.082.199-.11.394-.122.572-.011.165-.011.362-.011.576v2.044c0 .214 0 .41.011.576.012.178.04.373.122.572.178.428.519.77.947.947.199.082.394.11.572.122.165.011.362.011.576.011h.044c.214 0 .41 0 .576-.011.178-.012.373-.04.572-.122a1.75 1.75 0 0 0 .947-.947c.082-.199.11-.394.122-.572.011-.165.011-.362.011-.576V7.478c0-.214 0-.41-.011-.576a1.8 1.8 0 0 0-.122-.572 1.75 1.75 0 0 0-1.108-1.003c-.146-.04-.259-.164-.259-.315V1.593c0-.173.147-.31.32-.295 2.633.246 4.435 1.422 5.567 3.248C21.375 6.542 21.75 9.216 21.75 12c0 2.785-.375 5.459-1.613 7.454-1.28 2.064-3.414 3.296-6.637 3.296s-5.357-1.232-6.637-3.296C5.625 17.46 5.25 14.784 5.25 12c0-2.785.375-5.458 1.613-7.454C7.995 2.72 9.797 1.544 12.43 1.298m.35 5.582a.1.1 0 0 0-.015.044l-.008.08a8 8 0 0 0-.008.496v2c0 .243 0 .388.008.496l.008.08q.003.023.015.044a.25.25 0 0 0 .1.1.1.1 0 0 0 .043.014l.08.008c.108.008.253.008.496.008s.388 0 .496-.008l.08-.008a.1.1 0 0 0 .044-.015.25.25 0 0 0 .1-.1.1.1 0 0 0 .014-.043l.008-.08c.008-.108.008-.253.008-.496v-2c0-.243 0-.388-.008-.496l-.008-.08a.1.1 0 0 0-.015-.044.25.25 0 0 0-.1-.1.1.1 0 0 0-.043-.014l-.08-.008a8 8 0 0 0-.496-.008c-.243 0-.388 0-.496.008l-.08.008a.1.1 0 0 0-.044.015.25.25 0 0 0-.1.1" clip-rule="evenodd"/></svg>