<svg xmlns="http://www.w3.org/2000/svg" fill="none" viewBox="0 0 24 24"><path fill="currentColor" fill-rule="evenodd" d="M6 1.25a.75.75 0 0 1 .75.75c0 .329.078.465.124.521.049.06.14.127.34.178.205.051.467.07.79.07q.236 0 .49-.01h.012c.163-.004.334-.009.5-.009 1.009 0 1.98.078 2.685.601.6.446.888 1.109 1.002 1.92a11 11 0 0 0-1.52.01c.04.19.067.43.077.731v2.264a1.6 1.6 0 0 0-.42.107 1.75 1.75 0 0 0-.947.947c-.082.199-.11.394-.122.572-.011.165-.011.362-.011.576v1.044c0 .214 0 .41.011.576.012.178.04.373.122.572.178.428.519.77.947.947.199.082.394.11.572.122.165.011.362.011.576.011h.044c.214 0 .41 0 .576-.011.178-.012.373-.04.572-.122a1.75 1.75 0 0 0 .947-.947c.082-.199.11-.394.122-.572.011-.165.011-.362.011-.576v-1.044c0-.214 0-.41-.011-.576a1.8 1.8 0 0 0-.122-.572 1.75 1.75 0 0 0-.947-.947 1.6 1.6 0 0 0-.42-.107V5.977a7 7 0 0 0-.057-.706c2.419.152 4.085 1.11 5.13 2.664 1.1 1.639 1.427 3.823 1.427 6.065s-.326 4.426-1.427 6.065C16.68 21.764 14.797 22.75 12 22.75s-4.681-.986-5.823-2.685C5.077 18.426 4.75 16.242 4.75 14s.326-4.426 1.427-6.065c1.026-1.526 2.65-2.477 4.997-2.655-.089-.432-.236-.62-.377-.724-.264-.196-.758-.306-1.79-.306q-.215 0-.47.01c-.168.004-.35.009-.532.01-.359 0-.77-.019-1.158-.117-.396-.1-.819-.295-1.136-.685C5.39 3.074 5.25 2.572 5.25 2A.75.75 0 0 1 6 1.25m5.401 8.52a.25.25 0 0 0-.13.131 1 1 0 0 0-.013.103 8 8 0 0 0-.008.496v1c0 .243 0 .388.008.496.004.067.01.095.012.103a.25.25 0 0 0 .131.13 1 1 0 0 0 .103.013c.108.008.253.008.496.008s.388 0 .496-.008a1 1 0 0 0 .103-.012.25.25 0 0 0 .13-.131 1 1 0 0 0 .013-.103c.008-.108.008-.253.008-.496v-1c0-.243 0-.388-.008-.496a1 1 0 0 0-.012-.103.25.25 0 0 0-.131-.13 1 1 0 0 0-.103-.013A8 8 0 0 0 12 9.75a8 8 0 0 0-.496.008 1 1 0 0 0-.103.012" clip-rule="evenodd"/></svg>