<svg xmlns="http://www.w3.org/2000/svg" fill="none" viewBox="0 0 24 24"><path fill="currentColor" fill-rule="evenodd" d="M15.308 14.943c-.098-.069-.233-.048-.502-.006a26.5 26.5 0 0 1-4.384.31c-.22-.003-.33-.005-.406.043-.075.047-.127.161-.232.39q-.11.237-.26.488c-.11.184-.227.362-.351.551l-.078.12a10 10 0 0 0-.44.726c-.269.505-.498 1.129-.367 1.844.485 2.643 3.31 4.182 5.569 2.868.826-.48 1.314-1.27 1.584-2.121.269-.848.339-1.807.298-2.734a13 13 0 0 0-.255-2.028c-.051-.255-.077-.382-.176-.45m-13.033-6c.575-4.86 4.798-7.693 9.74-7.693 4.861 0 9.028 2.739 9.71 7.462.127.875-.238 1.631-.812 2.225-.562.581-1.363 1.053-2.265 1.432-1.812.76-4.237 1.227-6.628 1.349-2.386.122-4.83-.096-6.665-.776-.919-.34-1.74-.817-2.312-1.479a3.17 3.17 0 0 1-.768-2.52m15.807-3.025C17.567 5.403 16.825 5 16 5a1 1 0 1 0 0 2c.175 0 .433.098.668.332S17 7.825 17 8a1 1 0 1 0 2 0c0-.825-.402-1.567-.918-2.082" clip-rule="evenodd"/></svg>