<svg xmlns="http://www.w3.org/2000/svg" fill="none" viewBox="0 0 24 24"><path fill="currentColor" fill-rule="evenodd" d="M12.613 1.272A8 8 0 0 0 12 1.25c-5.517 0-9.748 5.406-9.75 11.745q0 .005.005.005t.005.005q-.01.08-.01.163c0 .52.293.913.586 1.171.293.259.67.461 1.061.625.79.33 1.857.588 3.072.774.531.081 1.032-.258 1.118-.758s-.274-.97-.806-1.052c-1.137-.173-2.02-.4-2.592-.64a.128.128 0 0 1 0-.24 8.4 8.4 0 0 1 1.336-.404c.823-.188 1.834-.339 2.972-.437-.01 1.576-.059 3.379-.277 5.02-.126.946-.305 1.807-.552 2.521-.25.725-.546 1.228-.86 1.53a1 1 0 1 0 1.385 1.443c.635-.61 1.064-1.444 1.366-2.32.306-.886.507-1.89.643-2.91.241-1.81.287-3.771.296-5.394a38 38 0 0 1 2.004 0c.009 1.623.055 3.584.296 5.394.136 1.02.337 2.024.643 2.91.302.876.731 1.71 1.366 2.32a1 1 0 1 0 1.386-1.442c-.316-.303-.611-.806-.861-1.53-.247-.715-.426-1.576-.552-2.522-.218-1.641-.267-3.444-.277-5.02 1.138.098 2.15.25 2.972.437.564.129 1.01.268 1.336.404a.128.128 0 0 1 0 .24c-.573.24-1.455.467-2.592.64-.532.082-.893.552-.806 1.052s.587.84 1.118.758c1.215-.185 2.282-.444 3.072-.774.392-.164.768-.366 1.06-.625.294-.258.587-.652.587-1.17a1 1 0 0 0-.01-.164q0-.005.005-.005l.005-.005c-.001-2.977-.935-5.749-2.497-7.851-.145-.196-.218-.294-.32-.293l-.014.001c-.102.008-.167.116-.296.33l-.006.01c-.61.947-1.707 1.558-2.935 1.558-1.841 0-3.432-1.398-3.432-3.238a3.1 3.1 0 0 1 .574-1.794c.074-.113.111-.17.115-.221a.2.2 0 0 0-.09-.182c-.043-.028-.107-.033-.236-.043M10.008 7c0 .552-.446 1-.996 1h-.009a1 1 0 0 1-.995-1c0-.552.446-1 .995-1h.01c.55 0 .995.448.995 1m4.655-5.27c-.066.022-.107.084-.19.21l-.41.624-.009.012a1.6 1.6 0 0 0-.304.936c0 .908.811 1.738 1.932 1.738.727 0 1.34-.359 1.668-.861l.318-.528c.081-.136.122-.204.11-.277-.012-.072-.07-.122-.189-.222a9.1 9.1 0 0 0-2.656-1.577c-.135-.051-.203-.077-.27-.055" clip-rule="evenodd"/></svg>