<svg xmlns="http://www.w3.org/2000/svg" fill="none" viewBox="0 0 24 24"><path fill="currentColor" fill-rule="evenodd" d="M7.832 1.445A1 1 0 0 0 6 2v4.337A3.5 3.5 0 1 0 8 9.5V5.258c.479.337 1.08.602 1.836.728a1 1 0 1 0 .328-1.972c-.874-.146-1.313-.573-1.597-1.016a4.4 4.4 0 0 1-.367-.746l-.054-.138-.096-.24a2.5 2.5 0 0 0-.218-.429M23 9.98V6.725c0-.132 0-.326-.024-.491-.026-.178-.123-.649-.607-.91-.486-.262-.936-.08-1.096-.005a4 4 0 0 0-.425.252l-.028.018c-1.104.726-3.153 1.897-5.96 2.28l-.048.007c-.46.062-.88.12-1.214.202-.346.086-.778.237-1.105.612-.315.36-.414.779-.455 1.13-.038.321-.038.713-.038 1.126v5.386a3.5 3.5 0 1 0 2 3.163v-5.532c3.091-.197 5.485-1.276 7-2.146v3.349a3 3 0 1 0 2 2.83V9.978" clip-rule="evenodd"/></svg>