<svg xmlns="http://www.w3.org/2000/svg" fill="none" viewBox="0 0 24 24"><path fill="currentColor" fill-rule="evenodd" d="M15.736 6.864a.95.95 0 0 1-.305.578c-.4.35-.9.324-1.21.267a4 4 0 0 1-.967-.341 32 32 0 0 1-1.37-.755c-.675.383-1.298.735-1.728.92a2.5 2.5 0 0 1-.698.207c-.252.03-.58.001-.866-.23a.93.93 0 0 1-.326-.58 1.5 1.5 0 0 1-.002-.419c.03-.238.106-.505.198-.764.187-.53.488-1.169.829-1.783s.74-1.232 1.134-1.711a4.2 4.2 0 0 1 .625-.635c.195-.155.502-.355.875-.367.384-.013.706.175.912.326.228.166.448.387.651.62.408.47.82 1.085 1.174 1.695s.666 1.25.862 1.781c.096.261.176.53.21.77.015.12.026.267.002.421M9.25 12a2.75 2.75 0 1 1 5.5 0 2.75 2.75 0 0 1-5.5 0m6.181 4.558c.216.19.283.43.305.578.024.154.013.302-.003.42a4 4 0 0 1-.21.77 12 12 0 0 1-.86 1.782c-.354.61-.767 1.224-1.175 1.695a4 4 0 0 1-.65.62c-.207.15-.529.339-.913.326-.373-.012-.68-.211-.875-.366a4.3 4.3 0 0 1-.625-.636c-.394-.479-.793-1.098-1.134-1.711a12 12 0 0 1-.83-1.783 4 4 0 0 1-.197-.764 1.5 1.5 0 0 1 .002-.42.93.93 0 0 1 .326-.579 1.14 1.14 0 0 1 .866-.23c.24.027.48.113.698.206.43.186 1.053.538 1.729.921a32 32 0 0 1 1.37-.755c.29-.14.631-.279.966-.34.31-.058.81-.084 1.21.266m1.705-.822a.95.95 0 0 1-.578-.305c-.35-.4-.324-.9-.267-1.21.062-.335.202-.676.341-.967.143-.298.617-1.132.755-1.37-.383-.675-.735-1.298-.92-1.728a2.5 2.5 0 0 1-.207-.698c-.03-.252-.001-.58.23-.866a.93.93 0 0 1 .58-.326 1.5 1.5 0 0 1 .419-.002c.238.03.505.106.764.198.53.187 1.169.488 1.783.829s1.232.74 1.711 1.134c.238.195.463.407.636.625.155.195.354.502.366.875.013.384-.175.706-.326.912a4 4 0 0 1-.62.651c-.47.408-1.085.82-1.695 1.174s-1.25.666-1.781.862a4 4 0 0 1-.77.21 1.5 1.5 0 0 1-.421.002m-9.694-.305a.95.95 0 0 1-.578.305 1.5 1.5 0 0 1-.42-.003 4 4 0 0 1-.77-.21 12 12 0 0 1-1.782-.86c-.61-.354-1.225-.767-1.695-1.175a4 4 0 0 1-.62-.65c-.15-.207-.339-.529-.326-.913.012-.373.212-.68.367-.875a4.2 4.2 0 0 1 .635-.625c.479-.394 1.098-.793 1.711-1.134a12 12 0 0 1 1.783-.83c.26-.09.526-.167.764-.197.118-.015.266-.023.42.002a.93.93 0 0 1 .579.326c.231.286.26.614.23.866a2.5 2.5 0 0 1-.207.698c-.185.43-.537 1.053-.92 1.729.138.237.612 1.07.755 1.37.14.29.279.631.34.966.058.31.084.81-.266 1.21" clip-rule="evenodd"/></svg>