<svg xmlns="http://www.w3.org/2000/svg" fill="none" viewBox="0 0 24 24"><path fill="currentColor" fill-rule="evenodd" d="M4.25 2a1 1 0 0 1 1 1v18a1 1 0 1 1-2 0V3a1 1 0 0 1 1-1m15.5 0a1 1 0 0 1 1 1v18a1 1 0 1 1-2 0V3a1 1 0 0 1 1-1M12 14c-.729 0-1.228.446-1.612.959-.37.493-.75 1.207-1.203 2.06L8.48 18.34c-.347.654-.639 1.201-.804 1.627a2.4 2.4 0 0 0-.174.697c-.016.255.033.55.24.807.142.177.324.316.525.41.27.129.547.136.785.102a3 3 0 0 0 .71-.207c.46-.185 1.048-.492 1.768-.867a7 7 0 0 1 .386-.193.2.2 0 0 1 .125-.016h.002l.015.006c.017.005.033.013.065.028.079.037.197.098.345.175.72.375 1.31.682 1.769.867.236.095.476.173.71.207.237.034.515.027.784-.101a1.5 1.5 0 0 0 .526-.411c.206-.257.255-.552.24-.807a2.4 2.4 0 0 0-.174-.697c-.166-.426-.457-.973-.805-1.627l-.703-1.321c-.454-.853-.834-1.567-1.204-2.06C13.228 14.446 12.729 14 12 14m0-12a1 1 0 0 1 1 1v2a1 1 0 1 1-2 0V3a1 1 0 0 1 1-1m1 7a1 1 0 1 0-2 0v2a1 1 0 1 0 2 0z" clip-rule="evenodd"/></svg>