<svg xmlns="http://www.w3.org/2000/svg" fill="none" viewBox="0 0 24 24"><path fill="currentColor" fill-rule="evenodd" d="M15.735 6.425a.92.92 0 0 1-.332.577c-.397.282-.993.472-1.536.575-.569.108-1.218.165-1.857.172a10.4 10.4 0 0 1-1.861-.133c-.545-.094-1.122-.256-1.528-.552a.9.9 0 0 1-.352-.577 1.3 1.3 0 0 1-.004-.423c.032-.23.113-.482.205-.72.19-.486.495-1.07.837-1.629.344-.558.745-1.123 1.142-1.56a4 4 0 0 1 .63-.579c.2-.143.497-.315.848-.325.36-.011.67.15.882.289.228.15.45.35.654.564.41.43.827.989 1.182 1.544s.671 1.14.87 1.628c.097.24.181.492.217.725.017.115.029.265.003.424m0 11.15a.92.92 0 0 0-.332-.577c-.397-.282-.993-.472-1.536-.575a11 11 0 0 0-1.857-.172 10.4 10.4 0 0 0-1.861.133c-.545.094-1.122.256-1.528.552a.9.9 0 0 0-.352.577c-.03.159-.02.309-.004.423.032.23.113.482.205.72.19.486.495 1.07.837 1.629.344.558.745 1.123 1.142 1.56.197.217.41.422.63.579.2.143.497.315.848.326.36.01.67-.15.882-.29.228-.15.45-.35.654-.564.41-.43.827-.989 1.182-1.544s.671-1.14.87-1.628c.097-.24.181-.492.217-.725.017-.115.029-.265.003-.423m1.263-2.172a.92.92 0 0 0 .578.332c.158.026.308.014.423-.003.233-.036.486-.12.725-.217a10.6 10.6 0 0 0 1.628-.87c.555-.355 1.115-.771 1.544-1.182a4 4 0 0 0 .564-.654c.14-.211.3-.522.29-.882-.01-.35-.183-.648-.326-.849a4 4 0 0 0-.58-.629 11 11 0 0 0-1.56-1.142 11 11 0 0 0-1.628-.837 3.3 3.3 0 0 0-.72-.205 1.3 1.3 0 0 0-.423.004.9.9 0 0 0-.577.352c-.296.406-.458.983-.552 1.528-.099.572-.14 1.223-.133 1.861.007.64.064 1.288.172 1.857.103.543.293 1.139.575 1.536m-10.573.332a.92.92 0 0 0 .577-.332c.282-.397.472-.993.575-1.536.108-.569.165-1.218.172-1.857a10.4 10.4 0 0 0-.133-1.861c-.094-.545-.256-1.122-.552-1.528a.9.9 0 0 0-.577-.352 1.3 1.3 0 0 0-.423-.004c-.23.032-.482.113-.72.205-.486.19-1.07.495-1.629.837-.558.344-1.123.745-1.56 1.142a4 4 0 0 0-.579.63c-.143.2-.315.497-.325.848-.011.36.15.67.289.882.15.228.35.45.564.654.43.41.989.827 1.544 1.182s1.14.671 1.628.87c.24.097.492.181.725.217.115.017.265.029.424.003M12 9.25a2.75 2.75 0 1 0 0 5.5 2.75 2.75 0 0 0 0-5.5" clip-rule="evenodd"/></svg>