<svg xmlns="http://www.w3.org/2000/svg" fill="none" viewBox="0 0 24 24"><path fill="currentColor" fill-rule="evenodd" d="M9.935 1.453a2.3 2.3 0 0 0-.802-.184c-.256-.019-.566-.019-.925-.019-.992 0-1.834 0-2.47.047-.65.049-1.201.15-1.711.382a4.75 4.75 0 0 0-2.348 2.348c-.233.51-.333 1.062-.382 1.711-.047.636-.047 1.422-.047 2.414v3.696c0 .992 0 1.778.047 2.414.049.65.15 1.201.382 1.711a4.75 4.75 0 0 0 2.348 2.348c.51.233 1.062.333 1.711.382.636.047 1.478.047 2.47.047.36 0 .669 0 .925-.019a2.3 2.3 0 0 0 .802-.184 2.25 2.25 0 0 0 1.112-1.112 2.3 2.3 0 0 0 .184-.802c.019-.256.019-.566.019-.925V4.292c0-.36 0-.669-.019-.925a2.3 2.3 0 0 0-.184-.802 2.25 2.25 0 0 0-1.112-1.112M6.25 15a1 1 0 1 0 0-2h-.009a1 1 0 1 0 0 2zm0-10.25A.75.75 0 0 1 7 5.5v.75h.75a.75.75 0 0 1 0 1.5H7v.75a.75.75 0 0 1-1.5 0v-.75h-.75a.75.75 0 0 1 0-1.5h.75V5.5a.75.75 0 0 1 .75-.75m9.542.5c-.36 0-.669 0-.925.019-.27.02-.539.064-.802.184a2.25 2.25 0 0 0-1.112 1.112 2.3 2.3 0 0 0-.184.802c-.019.256-.019.566-.019.925v11.416c0 .36 0 .669.019.925.02.27.064.539.184.802.225.492.62.887 1.112 1.112a2.3 2.3 0 0 0 .802.184c.256.019.566.019.925.019.992 0 1.834 0 2.47-.047.65-.049 1.201-.15 1.711-.382a4.75 4.75 0 0 0 2.348-2.348c.233-.51.333-1.062.382-1.711.047-.636.047-1.422.047-2.414v-3.696c0-.992 0-1.778-.047-2.414-.049-.65-.15-1.201-.382-1.711a4.75 4.75 0 0 0-2.348-2.348c-.51-.233-1.062-.333-1.711-.382-.636-.047-1.478-.047-2.47-.047M17.75 11a1 1 0 1 0 0-2h-.009a1 1 0 1 0 0 2zm0 8.25a.75.75 0 0 1-.75-.75v-.75h-.75a.75.75 0 0 1 0-1.5H17v-.75a.75.75 0 0 1 1.5 0v.75h.75a.75.75 0 0 1 0 1.5h-.75v.75a.75.75 0 0 1-.75.75" clip-rule="evenodd"/></svg>