<svg xmlns="http://www.w3.org/2000/svg" fill="none" viewBox="0 0 24 24"><path fill="currentColor" fill-rule="evenodd" d="M5.082 1.418a1 1 0 0 0-1.414 1.414L5.46 4.625 3.668 6.418a1 1 0 0 0 1.414 1.414L6.875 6.04l1.793 1.793a1 1 0 0 0 1.414-1.414L8.29 4.625l1.793-1.793a1 1 0 0 0-1.414-1.414L6.875 3.21zm2.793 7.707a1 1 0 1 0-2 0v4.57c0 1.355 0 2.471.119 3.355.125.928.396 1.747 1.053 2.403.656.657 1.475.928 2.403 1.053.884.12 2 .119 3.354.119h.333q.011.252.038.468c.054.418.178.839.51 1.185.337.351.754.486 1.17.544.378.053.848.053 1.372.053h1.296c.524 0 .994 0 1.373-.053.415-.058.832-.193 1.169-.544.332-.346.456-.767.51-1.185.05-.39.05-.872.05-1.422v-.092c0-.55 0-1.033-.05-1.422-.054-.418-.178-.839-.51-1.185-.337-.351-.754-.486-1.17-.544-.378-.053-.848-.053-1.372-.053h-1.296c-.524 0-.994 0-1.373.053-.415.058-.832.193-1.169.544-.332.346-.456.767-.51 1.185q-.026.216-.038.468h-.262c-1.443 0-2.424-.002-3.159-.1-.706-.096-1.033-.263-1.255-.486-.223-.222-.39-.55-.485-1.255-.099-.735-.101-1.716-.101-3.159v-1h5.262q.011.252.038.468c.054.418.178.839.51 1.185.337.351.754.486 1.17.544.378.053.848.053 1.372.053h1.296c.524 0 .994 0 1.373-.053.415-.058.832-.193 1.169-.544.332-.346.456-.767.51-1.185.05-.39.05-.872.05-1.422v-.092c0-.55 0-1.033-.05-1.422-.054-.418-.178-.839-.51-1.185-.337-.351-.754-.486-1.17-.544-.378-.053-.848-.053-1.372-.053h-1.296c-.524 0-.994 0-1.373.053-.415.058-.832.193-1.169.544-.332.346-.456.767-.51 1.185q-.026.216-.038.468H7.876z" clip-rule="evenodd"/></svg>