<svg xmlns="http://www.w3.org/2000/svg" fill="none" viewBox="0 0 24 24"><path fill="currentColor" fill-rule="evenodd" d="M8 2.125a1 1 0 0 0-2 0v.48c-.788.167-1.456.465-2.005 1.015-.675.675-.97 1.528-1.11 2.565-.135 1.003-.135 2.282-.135 3.884v5.112c0 1.602 0 2.881.135 3.884.14 1.037.435 1.89 1.11 2.565s1.528.97 2.565 1.11c1.003.135 2.282.135 3.884.135h3.112c1.602 0 2.881 0 3.884-.135 1.037-.14 1.89-.435 2.565-1.11s.97-1.528 1.11-2.565c.135-1.003.135-2.282.135-3.884v-5.112c0-1.602 0-2.881-.135-3.884-.14-1.037-.435-1.89-1.11-2.565-.55-.55-1.217-.848-2.005-1.015v-.48a1 1 0 1 0-2 0V2.4c-.715-.025-1.526-.025-2.444-.025H13v-.25a1 1 0 1 0-2 0v.25h-.556c-.918 0-1.73 0-2.444.025zm5.5 13.25a.75.75 0 0 0 0 1.5H17a.75.75 0 0 0 0-1.5zm-.75-6.25a.75.75 0 0 1 .75-.75H17a.75.75 0 0 1 0 1.5h-3.5a.75.75 0 0 1-.75-.75m-1.5 6.707a.75.75 0 0 0-.5-1.414c-.482.17-.93.49-1.309.823a10 10 0 0 0-1.046 1.091 15 15 0 0 0-.402.505 2 2 0 0 0-.264-.211 1.6 1.6 0 0 0-.437-.207l-.028-.008c-.06-.018-.135-.042-.264-.036a.75.75 0 0 0-.116 1.491l.012.008c.056.037.228.175.433.586a.75.75 0 0 0 1.304.067 14 14 0 0 1 .913-1.234c.272-.326.576-.654.884-.924.316-.278.597-.458.82-.537m.457-7.957a.75.75 0 0 1-.457.957c-.223.08-.504.26-.82.537a8.4 8.4 0 0 0-.883.924 14 14 0 0 0-.914 1.234.75.75 0 0 1-1.304-.067c-.205-.41-.377-.549-.433-.586l-.012-.008A.75.75 0 0 1 7 9.375a.7.7 0 0 1 .264.036l.028.008c.129.037.278.101.437.207q.131.087.264.21c.12-.158.256-.329.402-.504.301-.361.66-.752 1.046-1.091.379-.332.826-.652 1.309-.823a.75.75 0 0 1 .957.457" clip-rule="evenodd"/></svg>