<svg xmlns="http://www.w3.org/2000/svg" fill="none" viewBox="0 0 24 24"><path fill="currentColor" fill-rule="evenodd" d="M8 2.125a1 1 0 0 0-2 0v.48c-.788.167-1.456.465-2.005 1.015-.675.675-.97 1.528-1.11 2.565-.135 1.003-.135 2.282-.135 3.884v5.112c0 1.602 0 2.881.135 3.884.14 1.037.435 1.89 1.11 2.565s1.528.97 2.565 1.11c1.003.135 2.282.135 3.884.135h3.112c1.602 0 2.881 0 3.884-.135 1.037-.14 1.89-.435 2.565-1.11s.97-1.528 1.11-2.565c.135-1.003.135-2.282.135-3.884v-5.112c0-1.602 0-2.881-.135-3.884-.14-1.037-.435-1.89-1.11-2.565-.55-.55-1.217-.848-2.005-1.015v-.48a1 1 0 1 0-2 0V2.4c-.715-.025-1.526-.025-2.444-.025H13v-.25a1 1 0 1 0-2 0v.25h-.556c-.918 0-1.73 0-2.444.025zm-1 8a1 1 0 0 1 1-1h8a1 1 0 1 1 0 2H8a1 1 0 0 1-1-1m0 5a1 1 0 0 1 1-1h4a1 1 0 1 1 0 2H8a1 1 0 0 1-1-1" clip-rule="evenodd"/></svg>