<svg xmlns="http://www.w3.org/2000/svg" fill="none" viewBox="0 0 24 24"><path fill="currentColor" fill-rule="evenodd" d="M2.707 1.293a1 1 0 0 0-1.414 1.414L4.615 6.03a8 8 0 0 0-.687 3.246c0 1.032-.07 1.81-.545 2.51-.066.096-.154.216-.25.348-.167.228-.358.49-.503.716-.255.4-.505.882-.591 1.444-.28 1.832 1.012 3.019 2.298 3.55 3.764 1.555 8.717 1.82 12.884.793l4.072 4.071a1 1 0 0 0 1.414-1.414zM12 1.25c4.455 0 8.072 3.592 8.072 8.027 0 1.032.07 1.81.545 2.51.066.096.154.216.25.347.166.229.357.49.502.716.256.4.506.882.592 1.444.142.932-.121 1.696-.584 2.293-.226.291-.34.437-.564.45-.226.015-.381-.14-.692-.452L7.493 3.96c-.365-.365-.547-.547-.522-.785.025-.237.224-.366.623-.625a8.07 8.07 0 0 1 4.405-1.299m0 21.498c1.02 0 1.975-.292 2.779-.797.713-.448 1.07-.672.944-1.045-.124-.373-.616-.331-1.6-.248-1.407.12-2.84.12-4.247 0-.984-.083-1.476-.125-1.6.248-.125.372.231.597.944 1.045a5.2 5.2 0 0 0 2.78.797" clip-rule="evenodd"/></svg>