<svg xmlns="http://www.w3.org/2000/svg" fill="none" viewBox="0 0 24 24"><path fill="currentColor" fill-rule="evenodd" d="M20.576 1.291a.75.75 0 0 1 .874.3c.958 1.478 1.36 2.71 1.293 3.776-.068 1.096-.618 1.878-1.243 2.46-.428.398-.955.753-1.389 1.045-.157.106-.303.204-.427.293-.562.402-.706.623-.725.77-.003.026-.005.063.06.13.076.08.227.177.456.238.467.124 1.03.044 1.413-.276a.75.75 0 0 1 1.201.783c-.154.538-.692 1.732-1.832 2.669-.836.687-1.969 1.213-3.44 1.267l.713.713a.75.75 0 0 1-.496 1.28h-.006a19 19 0 0 1-2.354-.07.75.75 0 0 1-1.204.861l-1.054-1.053-7.953 5.878a2.015 2.015 0 0 1-2.818-2.818l5.878-7.953L6.47 10.53a.75.75 0 0 1 .86-1.204l-.016-.17a19 19 0 0 1-.053-2.184v-.006a.75.75 0 0 1 1.28-.496l.94.94a5.36 5.36 0 0 1 1.696-2.613c.905-.754 2.066-.965 3.148-1.007.73-.03 1.525.02 2.248.063.328.02.642.04.928.05 1.011.038 1.69-.028 2.093-.266.17-.1.295-.235.38-.445.09-.227.148-.58.1-1.126a.75.75 0 0 1 .502-.775m-7.83 13.395L9.311 11.25a3.2 3.2 0 0 1-.254-.678 9 9 0 0 1-.248-1.545l-.015-.184 6.361 6.362-.183-.015a9 9 0 0 1-1.544-.25 3.2 3.2 0 0 1-.682-.255" clip-rule="evenodd"/></svg>