<svg xmlns="http://www.w3.org/2000/svg" fill="none" viewBox="0 0 24 24"><path fill="currentColor" fill-rule="evenodd" d="M3.205 12A8.795 8.795 0 1 1 12 20.796a8.8 8.8 0 0 1-3.518-.732.977.977 0 0 0-.782 1.791c1.318.576 2.773.895 4.3.895 5.937 0 10.75-4.813 10.75-10.75S17.937 1.25 12 1.25 1.25 6.063 1.25 12c0 1.437.283 2.81.796 4.066a2.75 2.75 0 1 0 1.78-.81A8.8 8.8 0 0 1 3.205 12m5.408-1.954a.977.977 0 0 0-1.692-.979 5.864 5.864 0 0 0 5.993 8.725 2.75 2.75 0 0 0 4.39-3.293c.36-.758.56-1.606.56-2.499 0-1.066-.286-2.07-.785-2.933a.977.977 0 0 0-1.692.98c.332.573.522 1.24.522 1.953 0 .47-.082.918-.233 1.334a2.754 2.754 0 0 0-3.424 2.567 3.91 3.91 0 0 1-3.638-5.855M12 4.25a2.75 2.75 0 1 0 0 5.5 2.75 2.75 0 0 0 0-5.5" clip-rule="evenodd"/></svg>