<svg xmlns="http://www.w3.org/2000/svg" fill="none" viewBox="0 0 24 24"><path fill="currentColor" fill-rule="evenodd" d="M18.13 3.392c1.02.39 1.85.71 2.43 1.03v.01c.55.3 1.19.77 1.19 1.58v12c0 .81-.64 1.28-1.19 1.58-.58.32-1.41.64-2.43 1.03l-4.36 1.67c-.69.27-1.21.47-1.77.47-.527 0-1.018-.186-1.648-.424l-.122-.046-4.36-1.68-.126-.048c-.954-.369-1.748-.675-2.304-.982-.55-.3-1.19-.77-1.19-1.58v-12c0-.81.64-1.28 1.19-1.58.58-.32 1.41-.64 2.43-1.03l4.36-1.68c.69-.27 1.21-.47 1.77-.47.527 0 1.018.186 1.648.424l.122.046zM6.46 4.762c-1.08.42-1.82.71-2.3.97l-.01-.02c-.24.13-.39.27-.39.27s.16.14.39.27c.445.256 1.133.52 2.13.905l.17.065.23.09c.01-.01.02-.01.02-.01l8.32-3.5-1.69-.65c-.85-.33-1.1-.41-1.34-.41s-.49.08-1.34.41zm.01 14.47 4.78 1.83h.01v-10.42c-.31-.09-.64-.21-1.02-.36l-2.48-.95v1.17c0 .41-.34.75-.75.75s-.75-.34-.75-.75v-1.74l-.38-.15-.322-.124c-.71-.275-1.319-.51-1.798-.746v10.23s.12.13.41.29c.445.256 1.133.52 2.13.905zm11.07-11.99c1.08-.42 1.82-.71 2.3-.97l.01.02c.24-.13.39-.27.39-.27s-.16-.14-.39-.27c-.445-.256-1.133-.52-2.13-.905l-.17-.065-.55-.21a.7.7 0 0 1-.2.13l-8.08 3.4 1.95.75c.85.33 1.09.41 1.34.41s.49-.08 1.34-.41zm-10.65 7.08 1.5.65h-.01l.058.025c.253.113.388.173.462.294.08.12.08.29.08.61v.84c0 .69 0 1.04-.22 1.19-.223.146-.523.018-1.118-.238l-.052-.022-1.5-.65-.058-.026c-.252-.112-.387-.173-.462-.294-.08-.12-.08-.29-.08-.61v-.84c0-.69 0-1.04.23-1.19.224-.146.523-.017 1.119.238z" clip-rule="evenodd"/></svg>