<svg xmlns="http://www.w3.org/2000/svg" fill="none" viewBox="0 0 24 24"><path fill="currentColor" fill-rule="evenodd" d="M3.987 8.043c.183-.139.335-.252.363-.269.319-.188.827-.406 1.638-.749.487-.205.693-.723.462-1.155s-.813-.617-1.3-.41l-.065.027c-.725.307-1.364.577-1.813.842-.446.263-1.022.703-1.022 1.429v9.452c0 1.126.81 1.88 1.819 2.496 1.019.62 2.73 1.355 4.623 2.167 1.417.608 2.334 1.002 3.308 1.002s1.89-.393 3.308-1.002c1.893-.812 3.605-1.547 4.623-2.168 1.01-.615 1.819-1.37 1.819-2.495V7.758c0-.726-.576-1.166-1.022-1.429-.45-.265-1.088-.535-1.813-.842l-.066-.028c-.486-.206-1.068-.022-1.3.41-.23.433-.024.95.463 1.156.81.343 1.319.56 1.638.749.028.017.18.13.363.269-.346.229-.916.508-1.74.9l-2.921 1.39c-1.867.887-2.591 1.213-3.352 1.213s-1.485-.326-3.352-1.214l-2.921-1.39c-.824-.391-1.394-.67-1.74-.9m1.668 5.073a.75.75 0 0 1 1-.356l1.993.949a.75.75 0 0 1-.644 1.354l-1.994-.948a.75.75 0 0 1-.355-1M13 2.125a1 1 0 0 0-2 0v2a1 1 0 1 0 2 0zm-4.2.4a1 1 0 1 0-1.6 1.2l1.5 2a1 1 0 0 0 1.6-1.2zm8 1.2a1 1 0 0 0-1.6-1.2l-1.5 2a1 1 0 1 0 1.6 1.2z" clip-rule="evenodd"/></svg>