<svg xmlns="http://www.w3.org/2000/svg" fill="none" viewBox="0 0 24 24"><path fill="currentColor" fill-rule="evenodd" d="M4.262 7.59q.037-.027.094-.061c.318-.196.826-.422 1.637-.78l1.556-.684c.485-.213.688-.745.454-1.187s-.817-.628-1.302-.415l-1.555.685c-.725.319-1.43.63-1.88.905-.449.276-1.016.73-1.016 1.472V17.3c0 1.12.819 1.863 1.824 2.465 1.019.61 2.727 1.329 4.62 2.126 1.42.599 2.334.984 3.306.984s1.886-.386 3.306-.984c1.893-.797 3.601-1.517 4.62-2.126 1.005-.602 1.824-1.345 1.824-2.465V7.525c0-.741-.567-1.196-1.017-1.472s-1.088-.557-1.813-.876l-1.62-.714c-.485-.213-1.068-.027-1.302.415s-.03.974.454 1.187l1.556.685c.81.357 1.319.583 1.637.779q.057.034.094.06a.23.23 0 0 1 .087.139c.03.114 0 .243-.103.302-.34.196-.81.424-1.453.735l-2.92 1.409c-1.868.901-2.59 1.23-3.349 1.23-.758 0-1.48-.329-3.348-1.23L5.73 8.764c-.643-.31-1.114-.538-1.453-.734-.103-.059-.133-.188-.103-.302a.23.23 0 0 1 .087-.139m1.067 5.228a.75.75 0 0 1 1.006-.337l2 .997a.75.75 0 1 1-.67 1.343l-2-.997a.75.75 0 0 1-.336-1.006m9.378-9.986a1 1 0 0 0-1.414-1.414L12 2.71l-1.293-1.293a1 1 0 0 0-1.414 1.414l1.293 1.293-1.293 1.293a1 1 0 0 0 1.414 1.414L12 5.54l1.293 1.293a1 1 0 1 0 1.414-1.414l-1.293-1.293z" clip-rule="evenodd"/></svg>