<svg xmlns="http://www.w3.org/2000/svg" fill="none" viewBox="0 0 24 24"><path fill="currentColor" fill-rule="evenodd" d="M8.253 1.535a.97.97 0 0 1 1.377.002l9.836 9.888a.98.98 0 0 1 0 1.379l-5.945 5.975c-.831.837-1.517 1.526-2.13 2.01-.64.507-1.301.873-2.098.945q-.352.032-.705 0c-.797-.072-1.458-.438-2.099-.945-.613-.484-1.298-1.173-2.13-2.01l-2.01-2.02a3.785 3.785 0 0 1 0-5.334l7.183-7.221-1.281-1.288a.98.98 0 0 1 .002-1.381m2.655 4.05-5.523 5.553H16.43zm9.608 10.87a.75.75 0 0 0-1.032 0l-.008.009c-.204.212-.794.825-1.057 1.147a8 8 0 0 0-.76 1.086c-.206.365-.409.83-.409 1.303a2.75 2.75 0 1 0 5.5 0c0-.473-.203-.938-.409-1.303a8 8 0 0 0-.76-1.086c-.263-.322-.853-.935-1.057-1.147z" clip-rule="evenodd"/></svg>