<svg xmlns="http://www.w3.org/2000/svg" fill="none" viewBox="0 0 24 24"><path fill="currentColor" fill-rule="evenodd" d="M3 1a1 1 0 0 1 1 1c0 3.992.973 7.558 2.494 10.092 1.275 2.126 2.86 3.42 4.506 3.795V5H9.5a.75.75 0 0 1-.57-1.237l1.28-1.5c.268-.314.517-.606.749-.813.25-.224.589-.45 1.041-.45s.79.226 1.041.45c.232.207.48.499.75.814l1.28 1.5A.75.75 0 0 1 14.5 5H13v10.887c1.646-.374 3.23-1.669 4.506-3.795C19.028 9.558 20 5.992 20 2a1 1 0 1 1 2 0c0 4.292-1.042 8.227-2.779 11.121-1.528 2.547-3.681 4.41-6.221 4.802V22a1 1 0 1 1-2 0v-4.077c-2.54-.392-4.693-2.255-6.221-4.802C3.042 10.226 2 6.292 2 2a1 1 0 0 1 1-1M2 20a1 1 0 0 1 1-1h1.059a1 1 0 1 1 0 2H3a1 1 0 0 1-1-1m4.235 0a1 1 0 0 1 1-1h1.06a1 1 0 1 1 0 2h-1.06a1 1 0 0 1-1-1m8.47 0a1 1 0 0 1 1-1h1.06a1 1 0 1 1 0 2h-1.06a1 1 0 0 1-1-1m4.236 0a1 1 0 0 1 1-1H21a1 1 0 1 1 0 2h-1.059a1 1 0 0 1-1-1" clip-rule="evenodd"/></svg>