<svg xmlns="http://www.w3.org/2000/svg" fill="none" viewBox="0 0 24 24"><path fill="currentColor" fill-rule="evenodd" d="M6.449 2.25h.102c.781 0 1.442 0 1.969.07.56.08 1.079.24 1.498.66s.586.94.661 1.5c.071.53.071 1.19.071 1.97v.1c0 .78 0 1.44-.071 1.97-.075.56-.242 1.08-.661 1.5s-.938.58-1.498.66c-.527.07-1.187.07-1.968.07h-.104c-.78 0-1.441 0-1.968-.07-.56-.08-1.079-.24-1.498-.66s-.586-.94-.661-1.5c-.071-.53-.071-1.19-.071-1.97v-.1c0-.78 0-1.44.071-1.97.075-.56.242-1.08.661-1.5s.938-.58 1.498-.66c.527-.07 1.188-.07 1.969-.07m0 11h.102c.781 0 1.442 0 1.969.07.56.08 1.079.24 1.498.66s.586.94.661 1.5c.071.53.071 1.19.071 1.97v.1c0 .78 0 1.44-.071 1.97-.075.56-.242 1.08-.661 1.5s-.938.58-1.498.66c-.527.07-1.187.07-1.968.07h-.103c-.782 0-1.442 0-1.969-.07-.56-.08-1.079-.24-1.498-.66s-.586-.94-.661-1.5c-.071-.53-.071-1.19-.071-1.97v-.1c0-.78 0-1.44.071-1.97.075-.56.242-1.08.661-1.5s.938-.58 1.498-.66c.527-.07 1.188-.07 1.969-.07M14.75 3c-.552 0-1 .45-1 1s.448 1 1 1h6c.552 0 1-.45 1-1s-.448-1-1-1zm0 5c-.552 0-1 .45-1 1s.448 1 1 1h6c.552 0 1-.45 1-1s-.448-1-1-1zm0 6c-.552 0-1 .45-1 1s.448 1 1 1h6c.552 0 1-.45 1-1s-.448-1-1-1zm0 5c-.552 0-1 .45-1 1s.448 1 1 1h6c.552 0 1-.45 1-1s-.448-1-1-1z" clip-rule="evenodd"/></svg>