<svg xmlns="http://www.w3.org/2000/svg" fill="none" viewBox="0 0 24 24"><path fill="currentColor" fill-rule="evenodd" d="M12 1.25a7 7 0 0 1 7 7V14h1.382a2.81 2.81 0 0 1 2.513 1.553 1 1 0 0 1-1.79.894.81.81 0 0 0-.723-.447h-.632v4.75H21a1 1 0 0 1 0 2H3a1 1 0 0 1 0-2h1.25V16h-.632a.81.81 0 0 0-.723.447 1 1 0 0 1-1.79-.894A2.81 2.81 0 0 1 3.619 14H5V8.25a7 7 0 0 1 7-7M10.25 16h-1.5v4.75h1.5zm5 0h-1.5v4.75h1.5zM17 8.25H7V14h10zM8.69 4.503A5 5 0 0 0 7.416 6.25H10zm6.62 0L14 6.25h2.584a5 5 0 0 0-1.274-1.747M12 3.25c-.546 0-1.071.087-1.563.249L12 5.583l1.563-2.084A5 5 0 0 0 12 3.25" clip-rule="evenodd"/></svg>