<svg xmlns="http://www.w3.org/2000/svg" fill="none" viewBox="0 0 24 24"><path fill="currentColor" fill-rule="evenodd" d="M2 3.75a.75.75 0 0 0 0 1.5h6.757a2.25 2.25 0 0 1 1.591.659L12.19 7.75H9.811l-.78-.78A.75.75 0 0 0 7.97 8.03l.995.995.005.005 1 1a.664.664 0 1 1-.94.94l-1.5-1.5a.75.75 0 0 0-1.06 0q-.088.087-.185.16a1.7 1.7 0 0 1-2.032-.003L3.95 9.4a.75.75 0 1 0-.9 1.2l.303.227c.279.21.582.366.897.473v1.45H2a.75.75 0 0 0 0 1.5h2.25v1.302c0 .899 0 1.648.08 2.242.084.628.27 1.195.725 1.65.456.456 1.023.642 1.65.726.595.08 1.345.08 2.243.08h9.104c.899 0 1.648 0 2.242-.08.628-.084 1.195-.27 1.65-.726.456-.455.642-1.022.726-1.65.08-.594.08-1.343.08-2.242v-3.104c0-.899 0-1.648-.08-2.242-.084-.628-.27-1.195-.726-1.65-.455-.456-1.022-.642-1.65-.726-.594-.08-1.343-.08-2.242-.08h-3.741l-2.902-2.902A3.75 3.75 0 0 0 8.757 3.75zM15.5 14a2 2 0 1 1-4 0 2 2 0 0 1 4 0" clip-rule="evenodd"/></svg>