<svg xmlns="http://www.w3.org/2000/svg" fill="none" viewBox="0 0 24 24"><path fill="currentColor" fill-rule="evenodd" d="M6.991 10.64c.193-.548.547-1.112 1.32-2.32l1.497-2.34a.5.5 0 0 1 .421-.23h3.542a.5.5 0 0 1 .42.23l1.498 2.34c.773 1.208 1.127 1.772 1.32 2.32l-.048.023q-.312.155-.62.29c-.423.18-.789.29-1.098.298-.424.011-.794-.133-1.318-.358l-.06-.026a13 13 0 0 0-.4-.167c-.302-.118-.453-.178-.584-.088s-.131.264-.131.613v10.926c0 .283 0 .425.088.512s.23.088.512.088H18a.75.75 0 0 0 .75-.743v-8.432c0-.896 0-1.576-.057-2.163a6 6 0 0 0-.069-.505 5 5 0 0 0-.118-.51c-.245-.843-.717-1.58-1.49-2.788l-2.75-4.297c-.35-.548-.658-1.028-.949-1.364-.306-.353-.723-.7-1.317-.7s-1.01.347-1.317.7c-.291.336-.598.816-.949 1.364L6.984 7.61c-.773 1.208-1.245 1.945-1.49 2.788a5 5 0 0 0-.12.521q-.045.252-.07.529c-.053.562-.054 1.21-.054 2.052v8.501c0 .415.336.75.75.75h4.65c.283 0 .424 0 .512-.088.088-.087.088-.229.088-.512V11.225c0-.35 0-.524-.131-.613-.13-.09-.282-.03-.584.088q-.215.086-.4.167l-.06.026c-.524.225-.894.37-1.318.358-.31-.009-.675-.118-1.097-.298a14 14 0 0 1-.621-.29z" clip-rule="evenodd"/></svg>