<svg xmlns="http://www.w3.org/2000/svg" fill="none" viewBox="0 0 24 24"><path fill="currentColor" fill-rule="evenodd" d="m6.37 13.766 7.784-7.784 3.864 3.864-7.784 7.785c-.969.968-1.56 1.56-2.29 1.967-.406.228-1.022.426-1.653.601-.649.181-1.395.359-2.108.528l-.01.003a.75.75 0 0 1-.903-.904l.002-.009c.17-.712.348-1.459.529-2.108.175-.63.374-1.247.6-1.654.408-.728 1-1.32 1.968-2.289m13.58-5.852-.871.872-3.865-3.865.871-.87a2.732 2.732 0 0 1 3.865 3.863M11 18.75a1 1 0 1 0 0 2h6a1 1 0 1 0 0-2z" clip-rule="evenodd"/></svg>