<svg xmlns="http://www.w3.org/2000/svg" fill="none" viewBox="0 0 24 24"><path fill="currentColor" fill-rule="evenodd" d="M15.258 4.75a3.75 3.75 0 1 0 .424-1.5h-4.177a1.7 1.7 0 0 0-.292-.413c-.446-.465-1.078-.587-1.713-.587s-1.267.122-1.714.587a1.7 1.7 0 0 0-.29.413H6a.75.75 0 0 0 0 1.5h1.25V5c0 .17 0 .375.014.546a1.7 1.7 0 0 0-.415.303c-.28.28-.424.626-.502.98-.076.345-.097.741-.097 1.171v.49q-.097.039-.195.083C3.222 9.87 1.25 12.721 1.25 16.033a8.16 8.16 0 0 0 2.213 5.595c.412.44.84.739 1.343.915.488.171.995.207 1.523.207h6.342c.529 0 1.035-.036 1.523-.207.504-.176.93-.475 1.343-.915a8.16 8.16 0 0 0 2.213-5.595c0-3.312-1.972-6.163-4.805-7.46a4 4 0 0 0-.195-.082V8c0-.43-.021-.826-.097-1.171-.078-.354-.223-.7-.502-.98a1.7 1.7 0 0 0-.415-.303A7 7 0 0 0 11.75 5v-.25zm-5.252 2H8.994c-.394 0-.66.022-.844.062-.176.04-.227.084-.24.098-.014.013-.059.064-.098.24-.04.185-.062.453-.062.85v.25h3.5V8c0-.397-.022-.665-.062-.85-.04-.176-.084-.227-.098-.24-.014-.014-.064-.059-.24-.098-.184-.04-.45-.062-.844-.062" clip-rule="evenodd"/></svg>