<svg xmlns="http://www.w3.org/2000/svg" fill="none" viewBox="0 0 24 24"><path fill="currentColor" fill-rule="evenodd" d="M17.312 1.93c-1.343-.18-3.064-.18-5.255-.18h-.114c-2.19 0-3.912 0-5.255.18-1.377.186-2.469.573-3.327 1.43-.858.86-1.245 1.951-1.43 3.328-.181 1.343-.181 3.064-.181 5.255v.114c0 2.19 0 3.912.18 5.255.186 1.377.573 2.469 1.43 3.327.86.858 1.951 1.245 3.328 1.43 1.343.181 3.064.181 5.255.181h.114c2.19 0 3.912 0 5.255-.18 1.377-.186 2.469-.573 3.327-1.43.858-.86 1.245-1.951 1.43-3.328.181-1.343.181-3.064.181-5.255v-.114c0-2.19 0-3.912-.18-5.255-.186-1.377-.573-2.469-1.43-3.327-.86-.858-1.951-1.245-3.328-1.43M5.5 8.75c-.69 0-1.25.56-1.25 1.25v4.5a.75.75 0 0 0 1.5 0v-1.75h1a2 2 0 1 0 0-4zm1.25 2.5h-1v-1h1a.5.5 0 0 1 0 1m8.5-1.25c0-.69.56-1.25 1.25-1.25h1.25a2 2 0 1 1 0 4h-1v1.75a.75.75 0 0 1-1.5 0zm1.5 1.25h1a.5.5 0 0 0 0-1h-1zm-5.5-1.75a.75.75 0 0 0-1.5 0v5a.75.75 0 0 0 1.5 0v-1.75h1.5v1.75a.75.75 0 0 0 1.5 0v-5a.75.75 0 0 0-1.5 0v1.75h-1.5z" clip-rule="evenodd"/></svg>