<svg xmlns="http://www.w3.org/2000/svg" fill="none" viewBox="0 0 24 24"><path fill="currentColor" fill-rule="evenodd" d="M3.71 2.293a1.006 1.006 0 0 0-1.42 0 1 1 0 0 0 0 1.414l3.89 3.89-.09.053-.039.025a4 4 0 0 0-.61.445 2.1 2.1 0 0 0-.52.775c-.13.322-.18.614-.17.93.007.206.055.435.1.646l.04.19c.378 1.664 1.254 3.264 2.41 4.62l-4.76 4.762a1 1 0 0 0 0 1.414c.39.391 1.029.391 1.419 0l4.759-4.759c1.358 1.159 2.954 2.031 4.621 2.41.26.058.57.128.84.14.31.014.6-.039.93-.169.31-.128.56-.289.77-.516.169-.18.32-.419.446-.617l.024-.039q.028-.042.054-.086l3.886 3.886c.39.391 1.03.391 1.42 0a1 1 0 0 0 0-1.414zm14 .26a6.19 6.19 0 0 1 3.786 3.872c.09.264.191.556.234.817.05.362.01.703-.12 1.082-.29.81-.94 1.172-1.66 1.571l-1.42.791-.028.016c-.495.277-.826.463-1.062.627-.24.162-.31.253-.33.307-.02.028-.06.166-.05.615 0 .083 0 .171.01.267.03.461.04.691-.09.748-.117.055-.271-.096-.583-.4l-.027-.027-5.23-5.237-.003-.002c-.318-.318-.477-.476-.417-.602.05-.125.28-.113.74-.089a11 11 0 0 0 .38.013c.2.006.418.011.54-.053.05-.027.14-.094.31-.33.149-.225.323-.534.58-.989l.06-.107.78-1.388c.39-.719.76-1.372 1.57-1.663a2.14 2.14 0 0 1 1.08-.118c.29.043.607.157.893.259z" clip-rule="evenodd"/></svg>