<svg xmlns="http://www.w3.org/2000/svg" fill="none" viewBox="0 0 24 24"><path fill="currentColor" fill-rule="evenodd" d="M1.293 2.982v-.01a.75.75 0 0 1 .68-.68 18 18 0 0 1 3.118.062c1.672.186 3.833.692 5.235 2.094a4.864 4.864 0 0 1 0 6.878q-.014.012-.026.025l-.002.002a20 20 0 0 1 1.88 4.849 14.8 14.8 0 0 1 1.872-3.326 4.406 4.406 0 0 1 .491-5.648c1.267-1.267 3.212-1.72 4.702-1.884a16 16 0 0 1 2.79-.056c.36.033.646.319.68.68l.015.233a16 16 0 0 1-.072 2.556c-.165 1.49-.617 3.435-1.884 4.702a4.406 4.406 0 0 1-5.647.492q.228-.318.461-.607a15.5 15.5 0 0 1 1.966-2.041c.267-.23.488-.403.64-.517.076-.057.224-.162.224-.162a.75.75 0 0 0-.832-1.248s-.204.144-.292.21c-.176.132-.424.326-.719.58a17 17 0 0 0-2.521 2.71q.215.306.489.58.275.276.584.492c-1.259 1.75-2.375 4.126-2.375 7.049a.75.75 0 1 1-1.5.002c0-3.618-1.008-6.562-2.182-8.765a4.9 4.9 0 0 0 1.23-.882q-.33-.6-.664-1.127a19.6 19.6 0 0 0-2.145-2.812 15 15 0 0 0-.717-.727c-.088-.083-.292-.262-.292-.262a.75.75 0 0 0-.961 1.152s.149.13.225.203c.152.143.374.36.642.652a18 18 0 0 1 1.98 2.595c.236.374.473.777.703 1.209a4.87 4.87 0 0 1-5.621-.91c-1.402-1.4-1.908-3.561-2.093-5.233A18 18 0 0 1 1.252 3.9c.004-.275.03-.75.04-.918" clip-rule="evenodd"/></svg>