<svg xmlns="http://www.w3.org/2000/svg" fill="none" viewBox="0 0 24 24"><path fill="currentColor" fill-rule="evenodd" d="M3.284 1.963a10 10 0 0 0-.033.735c-.006.44.006 1.05.081 1.725.146 1.308.544 3.038 1.677 4.17a3.95 3.95 0 0 0 4.632.704l.037.058c.171.27.403.676.636 1.201.403.907.807 2.163.91 3.694H6a.75.75 0 0 0 0 1.5h.35l.424 2.972c.111.779.204 1.432.346 1.948.15.548.376 1.032.813 1.41.437.38.948.535 1.511.606.531.067 1.191.067 1.978.067h1.157c.786 0 1.446 0 1.977-.067.563-.07 1.075-.227 1.511-.605.437-.379.664-.863.814-1.41.141-.517.234-1.17.346-1.949l.424-2.972H18a.75.75 0 0 0 0-1.5h-5.16c.171-.73.567-1.414 1.005-1.982a8 8 0 0 1 1-1.078 3.49 3.49 0 0 0 4.366-.463c.998-.998 1.343-2.513 1.468-3.638a12 12 0 0 0 .069-1.59c-.002-.176-.004-.388-.027-.54a.75.75 0 0 0-.68-.68 12 12 0 0 0-2.13.042c-1.126.125-2.64.47-3.638 1.468a3.49 3.49 0 0 0-.484 4.334 9.7 9.7 0 0 0-1.453 1.675 12.5 12.5 0 0 0-.65-1.85 11 11 0 0 0-.87-1.595 3.95 3.95 0 0 0-.223-5.344c-1.132-1.133-2.862-1.531-4.17-1.677a14 14 0 0 0-2.46-.048.75.75 0 0 0-.68.68" clip-rule="evenodd"/></svg>