<svg xmlns="http://www.w3.org/2000/svg" fill="none" viewBox="0 0 24 24"><path fill="currentColor" fill-rule="evenodd" d="M11.682 1.252c-.277.001-.415.001-.53.066-.114.065-.185.184-.327.42L8.33 5.899c-.161.268-.242.402-.185.504.058.101.214.101.528.101h3.45c.276 0 .414 0 .528-.064.114-.065.186-.182.328-.418l2.327-3.845c.228-.378.342-.567.26-.718-.08-.15-.298-.159-.733-.175a72 72 0 0 0-2.945-.031zm-3.627.038c.317-.012.475-.018.536.084.06.102-.021.24-.184.514l-2.45 4.126c-.142.239-.213.358-.328.424-.115.065-.254.065-.532.065H1.84c-.21 0-.315 0-.375-.07-.06-.068-.045-.17-.015-.372.175-1.178.549-2.334 1.412-3.197.858-.858 1.95-1.245 3.327-1.43a20 20 0 0 1 1.867-.144m10.616.607c-.306-.126-.459-.189-.633-.132-.175.057-.272.215-.467.53l-2.214 3.599c-.166.27-.249.404-.192.507s.216.102.533.102h5.463c.21 0 .315 0 .375-.07.06-.068.045-.17.014-.372-.174-1.178-.548-2.334-1.41-3.197a4.4 4.4 0 0 0-1.469-.967m3.07 7.386c-.004-.366-.006-.549-.123-.664-.116-.116-.301-.116-.67-.116H2.052c-.369 0-.553 0-.67.116-.117.115-.12.298-.124.664-.008.664-.008 1.384-.008 2.163v.114c0 2.191 0 3.912.18 5.255.186 1.377.573 2.47 1.43 3.327.86.858 1.951 1.245 3.328 1.43 1.343.181 3.064.181 5.255.181h.834c.557 0 .836-.001.92-.158.086-.157-.077-.407-.402-.906-.535-.823-.871-1.694-.994-2.583-.251-1.819.447-3.689 2.062-4.652 1.51-.9 2.994-.84 4.137-.367a4.4 4.4 0 0 1 2.854-.183c.44.119.66.178.778.088s.117-.295.118-.706v-.84q.002-1.169-.008-2.163m-.372 5.46c-1.349-.805-2.596-.503-3.369.046-.773-.55-2.02-.85-3.37-.046-1.006.6-1.528 1.824-1.344 3.158.186 1.344 1.068 2.786 2.812 4.04.554.4 1.12.809 1.902.809s1.348-.41 1.902-.809c1.744-1.254 2.626-2.696 2.811-4.04.184-1.334-.337-2.558-1.344-3.158" clip-rule="evenodd"/></svg>