<svg xmlns="http://www.w3.org/2000/svg" fill="none" viewBox="0 0 24 24"><path fill="currentColor" fill-rule="evenodd" d="M11.682 1.252c-.277.001-.415.001-.53.066-.114.065-.185.184-.327.42L8.33 5.899c-.161.268-.242.402-.185.504.058.101.214.101.528.101h3.45c.276 0 .414 0 .528-.064.114-.065.186-.182.328-.418l2.327-3.845c.228-.378.342-.567.26-.718-.08-.15-.298-.159-.733-.175a72 72 0 0 0-2.945-.031zm-3.627.038c.317-.012.475-.018.536.084.06.102-.021.24-.184.514l-2.45 4.126c-.142.239-.213.358-.328.424-.115.065-.254.065-.532.065H1.84c-.21 0-.315 0-.375-.07-.06-.068-.045-.17-.015-.372.175-1.178.549-2.334 1.412-3.197.858-.858 1.95-1.245 3.327-1.43a20 20 0 0 1 1.867-.144m10.616.607c-.306-.126-.459-.189-.633-.132-.175.057-.272.215-.467.53l-2.214 3.599c-.166.27-.249.404-.192.507s.216.102.533.102h5.463c.21 0 .315 0 .375-.07.06-.068.045-.17.014-.372-.174-1.178-.548-2.334-1.41-3.197a4.4 4.4 0 0 0-1.469-.967m3.07 7.386c-.004-.366-.006-.549-.123-.664-.116-.116-.301-.116-.67-.116H2.052c-.369 0-.553 0-.67.116-.117.115-.12.298-.124.664-.008.664-.008 1.384-.008 2.163v.114c0 2.191 0 3.912.18 5.255.186 1.377.573 2.47 1.43 3.327.86.858 1.951 1.245 3.328 1.43 1.343.181 3.064.181 5.255.181h.114c1.252 0 2.35 0 3.312-.034.18-.006.269-.009.325-.067s.056-.149.056-.33v-.072c0-.471 0-.707-.146-.854-.147-.146-.383-.146-.854-.146h-.5a2.5 2.5 0 0 1 0-5h1.1c.189 0 .283 0 .341-.059s.059-.152.059-.341v-1.1a2.5 2.5 0 0 1 5 0v.5c0 .471 0 .707.146.854.147.146.383.146.854.146h.07c.18 0 .27 0 .329-.056s.061-.146.067-.325c.034-.962.034-2.059.034-3.309v-.114q.002-1.169-.008-2.163M18.75 13.75a1 1 0 1 0-2 0v3h-3a1 1 0 1 0 0 2h3v3a1 1 0 1 0 2 0v-3h3a1 1 0 1 0 0-2h-3z" clip-rule="evenodd"/></svg>