<svg xmlns="http://www.w3.org/2000/svg" fill="none" viewBox="0 0 24 24"><path fill="currentColor" fill-rule="evenodd" d="M9.25 4.506a1 1 0 0 1-1 1h-2.5v.582c0 .176 0 .392-.022.568v.003c-.016.127-.088.703-.653.977-.567.275-1.067-.027-1.176-.092l-.468-.34c-.376-.294-.89-.7-1.281-1.08a4.4 4.4 0 0 1-.556-.638c-.14-.205-.344-.555-.344-.986s.203-.78.344-.986c.16-.231.36-.448.556-.638.39-.38.905-.786 1.281-1.08l.468-.34c.109-.065.609-.367 1.176-.092.565.274.637.85.653.977v.003c.022.176.022.392.022.568v.594h2.5a1 1 0 0 1 1 1m4.384 5.386H2.536a1.286 1.286 0 1 0 0 2.572h7.23c.232 0 .42.191.42.428a.424.424 0 0 1-.42.429h-1.98c-.134 0-.201 0-.274.045s-.094.088-.136.174c-.081.165-.12.344-.126.46 0 .64.22 1.23.587 1.697.07.09.105.135.168.165.062.03.127.03.258.03h2.62c.232 0 .42.192.42.429a.424.424 0 0 1-.42.428H8.868c-.29 0-.434 0-.523.099-.09.098-.077.232-.051.501.1 1.053.482 1.48 1.049 1.872.07.048.104.073.148.086a.6.6 0 0 0 .179.014H12c.232 0 .42.192.42.428a.424.424 0 0 1-.42.429H9.713a.235.235 0 0 0-.231.273 2.75 2.75 0 0 0 2.712 2.298h1.499c1.065 0 1.9 0 2.574-.043.687-.044 1.26-.134 1.793-.338.644-.246 1.376-.842 1.83-1.24a1.45 1.45 0 0 1 .946-.38c.12.001.275.001.39-.014a1.75 1.75 0 0 0 1.51-1.51c.014-.114.014-.238.014-.358v-6.401c0-.395 0-.743-.026-1.023-.028-.29-.092-.62-.3-.91-.225-.316-.582-.493-.876-.619a19 19 0 0 0-1.238-.45l-.03-.01a4 4 0 0 1-1.17-.608l-5.247-3.91a1.5 1.5 0 0 0-.319-.132 2.5 2.5 0 0 0-.437-.053c-.31.01-.616.12-.872.328a1.52 1.52 0 0 0-.121 2.23l1.815 1.852c.12.122.156.307.092.467a.42.42 0 0 1-.387.265" clip-rule="evenodd"/></svg>