<svg xmlns="http://www.w3.org/2000/svg" fill="none" viewBox="0 0 24 24"><path fill="currentColor" fill-rule="evenodd" d="m15.303 4.001-.617-.793c-.606-.78-1.65-1.13-2.634-.876l-1.914.494c-.983.253-1.7 1.056-1.82 2.019l-.123.99-4.226 1.09c-.518.134-.825.643-.685 1.138s.674.788 1.192.655L20.03 4.705c.518-.134.825-.643.685-1.138-.14-.496-.674-.788-1.192-.655zM1.5 10.25a1 1 0 0 1 1-1h19a1 1 0 1 1 0 2h-.313c-.26 0-.39 0-.476.079-.086.078-.098.207-.121.467l-.352 3.867c-.113 1.252-.205 2.264-.382 3.057-.184.825-.48 1.513-1.067 2.05-.587.535-1.299.767-2.137.876-.806.104-1.822.104-3.08.104h-3.145c-1.257 0-2.273 0-3.079-.104-.838-.109-1.55-.34-2.137-.877s-.883-1.224-1.067-2.049c-.176-.793-.268-1.805-.382-3.057l-.352-3.867c-.023-.26-.035-.39-.121-.467-.086-.079-.216-.079-.476-.079H2.5a1 1 0 0 1-1-1" clip-rule="evenodd"/></svg>