<svg xmlns="http://www.w3.org/2000/svg" fill="none" viewBox="0 0 24 24"><path fill="currentColor" fill-rule="evenodd" d="M4.6 8.889C4.6 6.639 6.22 5 8 5s3.4 1.64 3.4 3.889a1 1 0 1 0 2 0C13.4 5.739 11.08 3 8 3S2.6 5.738 2.6 8.889c0 1.463.5 2.837 1.345 3.889H2a1 1 0 1 0 0 2h2.99a15 15 0 0 1-1.192 2.132c-.7 1.027-1.46 1.789-2.258 2.202A1 1 0 0 0 2 21h9.5c.067-.001.231-.007.353-.021.196-.02.466-.06.773-.14.605-.157 1.422-.485 2.094-1.182a1 1 0 1 0-1.44-1.388c-.328.34-.761.531-1.156.633a3.3 3.3 0 0 1-.605.097l-.024.001H4.724q.386-.462.728-.965c.678-.996 1.25-2.125 1.724-3.257H9.57a1 1 0 0 0 0-2H8c-1.781 0-3.4-1.64-3.4-3.89m9.4 4.117a1 1 0 0 0 1 1h3.5v.582c0 .176 0 .392.022.568v.003c.016.127.088.703.653.977.567.275 1.067-.027 1.176-.092l.004-.002c.153-.093.323-.227.464-.337l.03-.024c.376-.294.86-.676 1.251-1.057.195-.19.397-.407.556-.638.14-.205.344-.555.344-.986s-.203-.78-.344-.986a4.4 4.4 0 0 0-.556-.638c-.39-.38-.875-.762-1.25-1.057l-.03-.024c-.142-.11-.312-.244-.465-.337l-.004-.002c-.109-.065-.609-.367-1.176-.092-.565.274-.637.85-.653.976v.004c-.022.176-.022.392-.022.568v.594H15a1 1 0 0 0-1 1" clip-rule="evenodd"/></svg>