<svg xmlns="http://www.w3.org/2000/svg" fill="none" viewBox="0 0 24 24"><path fill="currentColor" fill-rule="evenodd" d="m6.672 9.208-4.836.806a1 1 0 1 0 .329 1.973l3.671-.612-1.94 3.762c-.616 1.195-1.115 2.163-1.39 2.949-.281.803-.397 1.6.001 2.343.41.764 1.143 1.064 1.954 1.196.774.125 1.802.125 3.048.125h8.982c1.246 0 2.274 0 3.048-.125.811-.132 1.544-.432 1.954-1.196.398-.743.283-1.54.001-2.343a14 14 0 0 0-.651-1.494l.763.327a1 1 0 0 0 .788-1.838l-7.79-3.339 6.747.752a1 1 0 0 0 .221-1.988l-7.343-.818 7.98-1.71a1 1 0 0 0-.418-1.956L16.293 7.2l-.454-.88v-.001c-.63-1.221-1.153-2.236-1.65-2.936C13.689 2.68 13.012 2 12 2s-1.689.68-2.188 1.383c-.498.7-1.02 1.715-1.65 2.936l-.038.073zm2.498-.481.732-1.419c.677-1.312 1.135-2.197 1.54-2.766.197-.278.34-.42.438-.489.074-.053.104-.053.119-.053h.003c.015 0 .044 0 .119.053.097.07.24.211.438.489.404.57.863 1.454 1.54 2.766l.168.327z" clip-rule="evenodd"/></svg>