<svg xmlns="http://www.w3.org/2000/svg" fill="none" viewBox="0 0 24 24"><path fill="currentColor" fill-rule="evenodd" d="M11.443 1.25h.114c2.19 0 3.912 0 5.255.18 1.377.186 2.469.573 3.327 1.43.858.86 1.245 1.951 1.43 3.328.029.21.043.316 0 .4a.3.3 0 0 1-.095.108c-.077.054-.187.054-.407.054H1.933c-.22 0-.33 0-.407-.054a.3.3 0 0 1-.094-.108c-.044-.084-.03-.19-.001-.4.185-1.377.572-2.469 1.43-3.327s1.95-1.245 3.327-1.43c1.343-.181 3.064-.181 5.255-.181M21.64 8.336c.087.086.09.222.095.495.015.786.015 1.654.015 2.611v.115c0 .98 0 1.866-.016 2.665-.004.172-.205.262-.34.157C20.35 13.564 18.85 12.75 17 12.75s-3.35.814-4.394 1.629c-1.047.818-1.827 1.8-2.234 2.37l-.012.017c-.143.194-.61.829-.61 1.734s.467 1.54.61 1.735l.012.015q.132.186.314.42c.387.497.58.745.498.913-.083.169-.385.168-.988.165-1.587-.007-2.968-.039-4.008-.179-1.377-.185-2.469-.572-3.327-1.43s-1.245-1.95-1.43-3.327c-.181-1.343-.181-3.064-.181-5.255v-.114c0-.958 0-1.826.015-2.612.005-.273.008-.41.095-.495.088-.086.226-.086.5-.086h19.28c.274 0 .412 0 .5.086M5.25 12a.75.75 0 0 1 .75-.75h1a.75.75 0 0 1 0 1.5H6a.75.75 0 0 1-.75-.75m4 0a.75.75 0 0 1 .75-.75h4a.75.75 0 0 1 0 1.5h-4a.75.75 0 0 1-.75-.75m-4 4a.75.75 0 0 1 .75-.75h1a.75.75 0 0 1 0 1.5H6a.75.75 0 0 1-.75-.75m8.28-.44c.89-.695 2.072-1.31 3.47-1.31s2.58.615 3.47 1.31c.893.698 1.578 1.557 1.942 2.068.122.167.338.463.338.872s-.216.705-.338.872c-.364.511-1.049 1.37-1.941 2.067-.892.696-2.073 1.311-3.471 1.311s-2.58-.615-3.47-1.31c-.893-.698-1.578-1.557-1.942-2.068-.122-.167-.338-.463-.338-.872s.216-.705.338-.872c.364-.511 1.049-1.37 1.941-2.067m1.97 2.94c0-.828.669-1.5 1.493-1.5h.014c.824 0 1.493.672 1.493 1.5s-.669 1.5-1.493 1.5h-.014a1.497 1.497 0 0 1-1.493-1.5" clip-rule="evenodd"/></svg>