<svg xmlns="http://www.w3.org/2000/svg" fill="none" viewBox="0 0 24 24"><path fill="currentColor" fill-rule="evenodd" d="M11.443 1.25h.114c2.19 0 3.912 0 5.255.18 1.377.186 2.469.573 3.327 1.43.858.86 1.245 1.951 1.43 3.328.029.21.043.316 0 .4a.3.3 0 0 1-.095.108c-.077.054-.187.054-.407.054H1.933c-.22 0-.33 0-.407-.054a.3.3 0 0 1-.094-.108c-.044-.084-.03-.19-.001-.4.185-1.377.572-2.469 1.43-3.327s1.95-1.245 3.327-1.43c1.343-.181 3.064-.181 5.255-.181M21.64 8.336c.087.086.09.222.095.495.015.786.015 1.654.015 2.611v.115c0 .22 0 .331-.029.392a.28.28 0 0 1-.238.17c-.067.008-.186-.034-.424-.115-1.04-.358-2.235-.296-3.182.251-.44.253-.8.617-1.036.854l-.045.045-3.366 3.367c-.736.735-1.044 1.592-1.205 2.221a34 34 0 0 0-.297 1.512l-.003.016c-.058.272-.145.673-.168 1.04-.009.139-.013.208-.032.254a.28.28 0 0 1-.182.17.8.8 0 0 1-.225.016c-2.022 0-3.877-.012-5.13-.18-1.377-.186-2.469-.573-3.327-1.43-.858-.86-1.245-1.951-1.43-3.328-.181-1.343-.181-3.064-.181-5.255v-.114c0-.958 0-1.826.015-2.612.005-.273.008-.41.095-.495.088-.086.226-.086.5-.086h19.28c.274 0 .412 0 .5.086M5.25 12a.75.75 0 0 1 .75-.75h1a.75.75 0 0 1 0 1.5H6a.75.75 0 0 1-.75-.75m4 0a.75.75 0 0 1 .75-.75h5a.75.75 0 0 1 0 1.5h-5a.75.75 0 0 1-.75-.75m-4 4a.75.75 0 0 1 .75-.75h1a.75.75 0 0 1 0 1.5H6a.75.75 0 0 1-.75-.75m4 0a.75.75 0 0 1 .75-.75h1.5a.75.75 0 0 1 0 1.5H10a.75.75 0 0 1-.75-.75m11.648-2.446a2.27 2.27 0 0 0-2.271 0c-.262.151-.496.386-.77.66L14.49 17.58c-.465.466-.683 1.028-.811 1.532a35 35 0 0 0-.278 1.427c-.065.306-.13.612-.147.865-.018.28.01.684.334 1.007.323.324.728.352 1.007.334.253-.016.56-.082.865-.147a35 35 0 0 0 1.427-.278c.504-.129 1.066-.346 1.532-.811l3.367-3.368c.274-.273.509-.507.66-.769a2.27 2.27 0 0 0 0-2.27c-.151-.262-.446-.556-.72-.83s-.567-.568-.828-.719" clip-rule="evenodd"/></svg>