<svg xmlns="http://www.w3.org/2000/svg" fill="none" viewBox="0 0 24 24"><path fill="currentColor" fill-rule="evenodd" d="M13.605 1.678a1 1 0 1 1 1.79.894 3.43 3.43 0 0 1-2.237 1.795L13 4.406v1.042c.435.07.847.21 1.218.457.415.276.722.646.955 1.076.099.184.239.567.372.93.51 1.393 1.175 2.51 1.827 3.606q.21.352.417.706c.753 1.295 1.461 2.675 1.461 4.341 0 2.99-1.99 5.083-4.62 5.913-.175.055-.262.083-.305.036-.043-.046-.007-.134.064-.31.29-.721.5-1.563.64-2.417a17 17 0 0 0 .212-3.32c-.04-1.018-.191-2.002-.515-2.67a.756.756 0 0 0-1-.35.73.73 0 0 0-.354.984c.188.39.331 1.125.37 2.093a15.5 15.5 0 0 1-.194 3.029c-.167 1.02-.429 1.926-.76 2.557-.355.676-.65.676-.788.676s-.432 0-.787-.676c-.33-.63-.592-1.537-.759-2.557a15.6 15.6 0 0 1-.192-3.03c.039-.967.182-1.703.37-2.093a.73.73 0 0 0-.355-.982.756.756 0 0 0-1 .35c-.323.668-.473 1.651-.514 2.668-.041 1.042.03 2.216.21 3.32.14.855.35 1.697.64 2.418.071.176.107.264.064.311s-.13.019-.304-.036c-2.631-.83-4.623-2.923-4.623-5.913 0-1.667.708-3.046 1.461-4.342q.207-.353.417-.706c.652-1.096 1.317-2.213 1.827-3.605.133-.364.273-.747.372-.93.233-.43.54-.801.955-1.077A3.05 3.05 0 0 1 11 5.448V4.406l-.158-.04a3.43 3.43 0 0 1-2.237-1.794 1 1 0 0 1 1.79-.894c.186.374.527.647.932.748l.673.168.673-.168c.405-.101.746-.374.932-.748m-2.22 5.678a5.2 5.2 0 0 1 1.229 0c.272.035.432.101.539.172.103.068.21.176.32.38l.363.945c.047.123.071.185.041.228s-.096.044-.228.044h-3.298c-.133 0-.199 0-.228-.043-.03-.044-.006-.106.04-.229l.364-.945c.11-.204.217-.312.32-.38.106-.07.267-.137.538-.172" clip-rule="evenodd"/></svg>