<svg xmlns="http://www.w3.org/2000/svg" fill="none" viewBox="0 0 24 24"><path fill="currentColor" fill-rule="evenodd" d="M21.25 16.875v-11.5A4.25 4.25 0 0 0 17 1.125H7a4.25 4.25 0 0 0-4.25 4.25v14a3.5 3.5 0 0 0 3.5 3.5h14a1 1 0 1 0 0-2 1.5 1.5 0 0 1 0-3 1 1 0 0 0 1-1m-4.5 2.5c0-.537.12-1.045.337-1.5H6.25a1.5 1.5 0 0 0 0 3h10.837a3.5 3.5 0 0 1-.337-1.5m-5.394-13.45a1 1 0 0 1-.34 1.373 2.23 2.23 0 1 0 3.062 3.062 1 1 0 0 1 1.712 1.032 4.23 4.23 0 1 1-5.807-5.807 1 1 0 0 1 1.373.34m1.144 1.95a1 1 0 0 1 1-1h.009a1 1 0 1 1 0 2h-.01a1 1 0 0 1-1-1" clip-rule="evenodd"/></svg>