<svg xmlns="http://www.w3.org/2000/svg" fill="none" viewBox="0 0 24 24"><path fill="currentColor" fill-rule="evenodd" d="M12.001 1.25C6.064 1.25 1.251 6.063 1.251 12s4.813 10.75 10.75 10.75 10.75-4.813 10.75-10.75c0-1.527-.319-2.982-.895-4.3a.977.977 0 0 0-1.791.782A8.8 8.8 0 0 1 20.796 12a8.795 8.795 0 1 1-8.795-8.795c1.484 0 2.88.366 4.104 1.013.56.296.844.452 1.022.601.114.095.134.14.15.243v.003c.008.053.017.116-.12.313-.176.255-.479.563-1.01 1.094l-4.837 4.837a.977.977 0 0 0 1.382 1.382l4.837-4.837.053-.053c.46-.459.892-.891 1.181-1.308.338-.487.548-1.044.446-1.722-.095-.629-.392-1.088-.83-1.453-.356-.297-.829-.547-1.295-.793l-.066-.034a10.7 10.7 0 0 0-5.017-1.241m1.15 4.08a6.92 6.92 0 0 0-5.894 1.89 6.675 6.675 0 0 0 0 9.56c2.677 2.627 7.01 2.627 9.686 0a1 1 0 0 0-1.401-1.428c-1.899 1.864-4.985 1.864-6.884 0a4.675 4.675 0 0 1 0-6.704 4.92 4.92 0 0 1 4.193-1.341 1 1 0 1 0 .3-1.978" clip-rule="evenodd"/></svg>