<svg xmlns="http://www.w3.org/2000/svg" fill="none" viewBox="0 0 24 24"><path fill="currentColor" fill-rule="evenodd" d="M10 3.25A8.75 8.75 0 0 0 1.25 12v3c0 .414.336.75.75.75h2.25V12a5.75 5.75 0 0 1 11.383-1.162q.436-.087.867-.088a5.4 5.4 0 0 1 1.576.237c.306.094.458.141.542.068.084-.074.06-.217.012-.505A8.75 8.75 0 0 0 10 3.25m-2 12.5H5.75V12a4.25 4.25 0 0 1 8.447-.674c-.7.338-1.352.8-1.881 1.314-.548.533-.822.8-.944.747-.122-.051-.122-.404-.122-1.109V12a1.25 1.25 0 1 0-2.5 0v3a.75.75 0 0 1-.75.75m4.838-.716c-1.478.39-2.588 1.705-2.588 3.3 0 1.908 1.589 3.416 3.5 3.416h5.775c1.76 0 3.225-1.389 3.225-3.15 0-1.511-1.08-2.748-2.497-3.069-.206-1.862-1.827-3.281-3.753-3.281-1.752 0-3.248 1.171-3.662 2.784" clip-rule="evenodd"/></svg>