<svg xmlns="http://www.w3.org/2000/svg" fill="none" viewBox="0 0 24 24"><path fill="currentColor" fill-rule="evenodd" d="M13.363 2.245c-.243-.492-.693-.995-1.365-.995-.67 0-1.122.502-1.366.993l-.001.001-.697 1.405-.006.006a.2.2 0 0 1-.035.026l-.007.004-1.25.21c-.542.09-1.13.38-1.327 1.005-.197.621.112 1.197.498 1.585l.977.986a.2.2 0 0 1 .02.07l-.28 1.216c-.127.554-.136 1.317.457 1.754.597.439 1.324.196 1.81-.095l1.176-.702.033-.003.022.001.007.002 1.177.702c.485.289 1.213.536 1.811.096.595-.437.583-1.203.457-1.754l-.28-1.218a.2.2 0 0 1 .02-.07l.975-.983.001-.001c.388-.389.698-.965.5-1.588-.2-.623-.787-.913-1.327-1.003l-1.255-.21-.009-.005-.034-.026-.006-.006zM12 12h-.062c-.654 0-1.241 0-1.717.064-.52.07-1.052.232-1.489.668-.383.383-.555.84-.638 1.298-.311-.03-.67-.03-1.04-.03h-.616c-.654 0-1.241 0-1.717.064-.52.07-1.052.232-1.489.668-.436.437-.598.97-.668 1.489-.064.476-.064 1.063-.064 1.717V21H2a1 1 0 1 0 0 2h20a1 1 0 1 0 0-2h-.5v-1.062c0-.654 0-1.241-.064-1.717-.07-.52-.232-1.052-.668-1.489-.437-.436-.97-.598-1.489-.668C18.803 16 18.216 16 17.562 16h-.616c-.333 0-.657 0-.946.022v-.084c0-.654 0-1.241-.064-1.717-.07-.52-.232-1.052-.668-1.489-.437-.436-.97-.598-1.489-.668C13.303 12 12.716 12 12.062 12zm-4.028 4.036c.026.19.028.464.028.964v4H4.5v-3c0-.735.002-1.186.046-1.513.039-.286.093-.334.1-.34v-.001c.007-.007.054-.061.341-.1.327-.044.778-.046 1.513-.046H7c.5 0 .774.002.964.028h.007zM19.5 21H16v-2c0-.5.002-.774.028-.964v-.007l.008-.001c.19-.026.464-.028.964-.028h.5c.735 0 1.186.002 1.513.046.286.039.334.093.34.1h.001c.007.007.061.055.1.341.044.327.046.778.046 1.513z" clip-rule="evenodd"/></svg>