<svg xmlns="http://www.w3.org/2000/svg" fill="none" viewBox="0 0 24 24"><path fill="currentColor" fill-rule="evenodd" d="M17.544 8.174c-.201-.545-.561-1.22-.977-1.999-.685-1.283-1.56-2.921-2.095-3.65-.541-.736-1.243-1.404-2.265-1.4-1.021.004-1.719.676-2.255 1.417-.53.732-1.09 1.794-1.766 3.082l-1 1.904a.977.977 0 0 0 .405 1.317.97.97 0 0 0 1.311-.407l.963-1.831c.724-1.378 1.218-2.314 1.656-2.918.442-.61.637-.614.693-.614s.25.002.696.609c.442.6 1.19 1.998 1.923 3.37.454.85.767 1.463.914 1.863-.39-.034-1.036-.185-1.932-.398a.975.975 0 0 0-.447 1.897c.81.193 1.683.4 2.24.446.561.046 1.355-.001 1.846-.715.468-.68.288-1.437.09-1.973m-7.73 5.12-.68-1.079c-.363-.575-.73-1.155-1.044-1.522-.335-.388-.83-.812-1.549-.792-.72.02-1.19.47-1.502.877-.294.384-.593.923-.922 1.516l-1.458 2.627c-.502.905-.933 1.68-1.172 2.32-.25.667-.395 1.45.049 2.194.44.739 1.194.987 1.897 1.09.679.1 1.57.1 2.614.1h4.909c.536 0 .97-.436.97-.975a.973.973 0 0 0-.97-.975H6.123c-1.141 0-1.887-.003-2.408-.08a1.7 1.7 0 0 1-.515-.163c.002-.073.016-.27.104-.504.182-.487.538-1.134 1.088-2.126l1.386-2.497c.375-.675.625-1.11.82-1.363.209.243.483.663.895 1.316l.681 1.08a.97.97 0 0 0 1.34.302.98.98 0 0 0 .3-1.346m12.573-1.82a1.2 1.2 0 0 0-.752-.34 4.4 4.4 0 0 0-.632.006c-1.882.103-4.18.62-5.715 1.914-.787.663-1.383 1.54-1.591 2.657-.175.936-.067 1.986.354 3.15-.433.82-.79 1.748-1.026 2.788a1 1 0 1 0 1.95.441 9.4 9.4 0 0 1 .625-1.85 9 9 0 0 1-.905-.348.75.75 0 0 1-.38-.38 10 10 0 0 1-.262-.65c.943-1.786 2.241-3.053 3.392-3.82a1 1 0 0 1 1.11 1.663c-.995.663-2.17 1.834-2.955 3.54 1.064.344 2.025.41 2.883.219 1.103-.247 1.94-.898 2.556-1.727 1.2-1.616 1.624-3.99 1.7-5.878a4 4 0 0 0-.003-.636 1.2 1.2 0 0 0-.35-.75" clip-rule="evenodd"/></svg>