<svg xmlns="http://www.w3.org/2000/svg" fill="none" viewBox="0 0 24 24"><path fill="currentColor" fill-rule="evenodd" d="m12.763 15.25 1.94.58h.01c-.37.83-.22 1.83.46 2.51l.91.91-.91.91-.09.09H2.163c-.55 0-1.02-.45-.88-.99a4.06 4.06 0 0 1 2.76-2.89l3.72-1.12v-1.94c-1.78-1.39-3-3.05-3-6.64s1.95-5.42 4.99-5.42c2.16 0 3.05 1 3.05 1 2.54 0 2.96 2.1 2.96 4.42 0 3.58-1.22 5.25-3 6.64zm4.697.785a.996.996 0 0 0-1.41 0c-.39.39-.39 1.03 0 1.42l1.79 1.79-1.79 1.79c-.39.39-.39 1.03 0 1.42s1.02.39 1.41 0l1.79-1.8 1.79 1.8c.39.39 1.02.39 1.41 0s.39-1.03 0-1.42l-1.79-1.79 1.79-1.79c.39-.39.39-1.03 0-1.42a.996.996 0 0 0-1.41 0l-1.79 1.8z" clip-rule="evenodd"/></svg>