<svg xmlns="http://www.w3.org/2000/svg" fill="none" viewBox="0 0 24 24"><path fill="currentColor" fill-rule="evenodd" d="M3.205 12A8.795 8.795 0 0 1 12 3.205c2.095 0 4.018.731 5.529 1.954h-1.131a.977.977 0 0 0 0 1.955h3.42c.54 0 .977-.438.977-.978v-3.42a.977.977 0 0 0-1.954 0v.991A10.7 10.7 0 0 0 12 1.25C6.063 1.25 1.25 6.063 1.25 12S6.063 22.75 12 22.75 22.75 17.937 22.75 12a.977.977 0 1 0-1.954 0 8.796 8.796 0 0 1-17.591 0m10.058 2.311c1.67-.886 2.506-1.328 2.682-1.955a1.45 1.45 0 0 0 0-.79c-.176-.627-1.012-1.07-2.682-1.955-1.615-.856-2.422-1.285-3.073-1.113a1.66 1.66 0 0 0-.712.393C9 9.34 9 10.214 9 11.96s0 2.62.478 3.07c.198.186.443.321.712.392.65.172 1.458-.256 3.073-1.112" clip-rule="evenodd"/></svg>