<svg xmlns="http://www.w3.org/2000/svg" fill="none" viewBox="0 0 24 24"><path fill="currentColor" fill-rule="evenodd" d="M18 6a1 1 0 1 1 0 2h-1.094a7.75 7.75 0 1 1-9.811 0H6a1 1 0 0 1 0-2zm-6 3.25a.75.75 0 0 0-.75.75v.332a2.95 2.95 0 0 0-1.114.506c-.504.377-.886.956-.886 1.66 0 .703.382 1.282.886 1.66s1.165.588 1.864.588c.406 0 .744.124.964.29.22.164.286.334.286.459 0 .124-.066.294-.286.459s-.558.29-.964.29c-.669 0-1.09-.322-1.208-.57a.75.75 0 1 0-1.357.64c.33.7 1.028 1.165 1.817 1.345v.343a.75.75 0 1 0 1.5-.004v-.339a2.95 2.95 0 0 0 1.112-.505c.504-.377.886-.956.886-1.66 0-.703-.382-1.282-.886-1.66s-1.165-.588-1.864-.588c-.406 0-.744-.124-.964-.29-.22-.164-.286-.334-.286-.458 0-.125.066-.295.286-.46s.558-.289.964-.289c.613 0 1.019.27 1.172.506l.036.063a.75.75 0 1 0 1.357-.64c-.33-.7-1.027-1.164-1.815-1.345V10a.75.75 0 0 0-.75-.75m8.326-6.914c.662.092 1.293.301 1.8.828.503.523.698 1.162.784 1.832.072.55.08 1.223.082 2.001v.405q0 .379.004.726c.006.603.01 1.127-.026 1.542-.058.645-.226 1.246-.734 1.774a1 1 0 1 1-1.44-1.388c.077-.08.147-.175.181-.562.024-.269.025-.582.022-1.006l-.002-.221a72 72 0 0 1-.005-.865v-.515c-.003-.724-.014-1.237-.065-1.635-.06-.46-.158-.614-.241-.7-.078-.081-.21-.176-.637-.236-.367-.05-.84-.063-1.511-.065H5.462c-.672.002-1.144.014-1.512.065-.426.06-.558.155-.636.236-.083.085-.181.24-.24.7-.052.398-.063.91-.065 1.635v.515c0 .332-.004.618-.006.869-.005.538-.008.91.02 1.223.034.387.104.482.18.563a1 1 0 1 1-1.44 1.386c-.508-.527-.676-1.128-.733-1.773-.037-.415-.032-.938-.026-1.539q.004-.348.004-.73v-.064c0-.923 0-1.712.082-2.341.086-.67.28-1.31.783-1.832.508-.527 1.139-.736 1.8-.828.538-.075 1.191-.085 1.938-.086h12.452c.884 0 1.65 0 2.263.086" clip-rule="evenodd"/></svg>