<svg xmlns="http://www.w3.org/2000/svg" fill="none" viewBox="0 0 24 24"><path fill="currentColor" fill-rule="evenodd" d="M11.995 1.25c.41 0 .75.34.75.75v1.25h3.18c.52 0 .93 0 1.28.09.95.25 1.69.99 1.94 1.94.09.35.09.76.09 1.28 0 1.12 0 2.06-.16 2.66a4.75 4.75 0 0 1-3.36 3.36c-.6.16-1.32.16-2.43.16h-2.59c-1.12 0-1.83 0-2.43-.16a4.75 4.75 0 0 1-3.36-3.36c-.16-.6-.16-1.54-.16-2.66 0-.52 0-.93.09-1.28.25-.95.99-1.69 1.94-1.94.35-.09.76-.09 1.28-.09h3.18V2c0-.41.34-.75.75-.75zm-2.5 5.25c-.55 0-1 .45-1 1s.45 1 1 1h.01c.55 0 1-.45 1-1s-.45-1-1-1zm4.99 0c-.55 0-1 .45-1 1s.45 1 1 1h.01c.55 0 1-.45 1-1s-.45-1-1-1zm-2.49 7.75c-3.77 0-6.93 2.6-7.7 6.1-.31 1.41.92 2.4 2.1 2.4h11.21c1.18 0 2.41-.99 2.1-2.4-.77-3.5-3.93-6.1-7.7-6.1z" clip-rule="evenodd"/></svg>