<svg xmlns="http://www.w3.org/2000/svg" fill="none" viewBox="0 0 24 24"><path fill="currentColor" fill-rule="evenodd" d="M6.385 3.494a1 1 0 0 0-.22-1.988c-1.5.166-2.726.565-3.66 1.617-.821.924-1.174 2.078-1.341 3.48C1 7.971 1 9.721 1 11.932v.134c0 2.211 0 3.961.164 5.33.167 1.402.52 2.557 1.34 3.48.935 1.052 2.16 1.45 3.661 1.617a1 1 0 1 0 .22-1.988c-1.278-.141-1.924-.438-2.385-.957-.432-.485-.705-1.17-.85-2.389C3.001 15.924 3 14.293 3 12s.002-3.923.15-5.16c.145-1.22.418-1.903.85-2.389.461-.52 1.107-.815 2.385-.957m11.45-1.988a1 1 0 1 0-.22 1.988c1.279.142 1.924.438 2.385.957.432.486.705 1.17.85 2.389.148 1.237.15 2.867.15 5.16s-.002 3.924-.15 5.16c-.145 1.22-.418 1.904-.85 2.389-.461.52-1.107.816-2.385.957a1 1 0 1 0 .22 1.988c1.5-.166 2.726-.565 3.66-1.617.821-.924 1.174-2.078 1.341-3.48.164-1.369.164-3.119.164-5.33v-.134c0-2.211 0-3.961-.164-5.33-.167-1.402-.52-2.556-1.34-3.48-.935-1.052-2.16-1.45-3.661-1.617m-6.843 12.877L12.289 9H18a1 1 0 1 0 0-2h-5.624c-.3 0-.824 0-1.268.292-.502.332-.674.864-.768 1.253l-1.345 5.588-.475-1.013a5.5 5.5 0 0 0-.351-.668c-.16-.242-.422-.537-.86-.662-.535-.153-1 .02-1.265.15a5 5 0 0 0-.603.373 1 1 0 0 0 1.118 1.66l.115-.08.397.849c.253.538.485 1.035.712 1.385.2.31.664.937 1.482.868.836-.07 1.176-.787 1.311-1.13.152-.384.28-.913.416-1.482m3.111-1.954.321.002.247.593a5 5 0 0 1-.478.6c-.113.116-.26.202-.316.233a1 1 0 1 0 0 2c.746 0 1.308-.402 1.694-.783.068.1.148.198.242.286.162.15.348.268.548.351.36.15.843.148 1.14.146a1 1 0 1 0 0-2l-.322-.002-.246-.593c.17-.242.324-.442.477-.6.113-.116.26-.202.317-.234a1 1 0 1 0 0-2c-.747 0-1.31.402-1.695.784a1.7 1.7 0 0 0-.242-.286 1.9 1.9 0 0 0-.548-.352c-.36-.15-.843-.147-1.139-.146a1 1 0 0 0 0 2" clip-rule="evenodd"/></svg>