<svg xmlns="http://www.w3.org/2000/svg" fill="none" viewBox="0 0 24 24"><path fill="currentColor" fill-rule="evenodd" d="M21.199 6.898a1 1 0 0 0 .445-1.343c-2.22-4.424-7.688-5.927-11.448-3.161l-.869-.89a.75.75 0 0 0-1.294.457 14 14 0 0 0-.028 1.362c.011.354.04.75.107 1.107.033.178.08.364.148.537.066.166.17.37.343.538.312.302.76.399 1.055.442.34.05.71.057 1.038.049a11 11 0 0 0 1.253-.1.75.75 0 0 0 .482-1.211l-.81-.831c2.715-1.751 6.562-.737 8.235 2.598a1 1 0 0 0 1.343.446m-8.15 15.422c.449.021.764.085.974.205.185.106.375.215.524.287.16.078.343.151.556.178a1.75 1.75 0 0 0 1.283-.343c.17-.13.293-.285.393-.433l3.33-5.733c.252-.535.214-1.06.128-1.243-.08-.281-.266-.527-.422-.718-.17-.207-.475-.543-.76-.855-.184-.22-.305-.495-.655-1.353l-1.903-4.668a2.36 2.36 0 0 0-2.552-1.472 2.346 2.346 0 0 0-1.963 2.75l.176.934-6.39-3.66c-1.092-.625-2.522-.358-3.193.796-.628 1.078-.343 2.612.83 3.284l3.919 2.245c-.884 1.537-1.783 4.089-1.074 6.85.316 1.231 1.421 1.921 2.422 2.307 1.035.399 2.19.565 2.993.617.233.015.504.015.733.015s.442 0 .651.01" clip-rule="evenodd"/></svg>