<svg xmlns="http://www.w3.org/2000/svg" fill="none" viewBox="0 0 24 24"><path fill="currentColor" fill-rule="evenodd" d="M7.886 2.493c.005-.123.018-.34.022-.42v-.006a1 1 0 0 1 1.713-.624l.905.926C14.271-.189 19.59 1.335 21.77 5.68a1 1 0 1 1-1.788.897c-1.628-3.245-5.309-4.296-8.013-2.732l.717.734a1 1 0 0 1-.576 1.69h-.007a12 12 0 0 1-1.275.101 6.6 6.6 0 0 1-1.08-.051c-.302-.044-.82-.149-1.193-.51a1.8 1.8 0 0 1-.401-.626 3.3 3.3 0 0 1-.162-.582 7.5 7.5 0 0 1-.11-1.146c-.011-.366-.004-.71.005-.962M2.277 8.88c.311-.539.986-.722 1.501-.424l5.714 3.301c.21.122.478.047.597-.167a.45.45 0 0 0-.164-.608L5.53 8.442a1.09 1.09 0 0 1-.38-1.496c.311-.54.987-.723 1.502-.425l7.438 4.298a.43.43 0 0 0 .483-.035.45.45 0 0 0 .157-.466l-.59-2.282a1.33 1.33 0 0 1 1.07-1.633 1.256 1.256 0 0 1 1.363.753l2.175 5.567c.295.756.844 1.477 1.476 2.057.39.36.53.94.265 1.4l-3.646 6.325a.747.747 0 0 1-1.021.274c-.572-.331-1.24-.403-1.863-.272-.623.13-1.375.242-1.829.173-.403-.061-.83-.214-1.405-.498-.578-.286-1.28-.692-2.24-1.246l-5.421-3.132a1.09 1.09 0 0 1-.38-1.498c.311-.54.986-.722 1.501-.425l3.956 2.286c.21.121.478.047.597-.167a.45.45 0 0 0-.164-.608L2.86 14.091a1.09 1.09 0 0 1-.38-1.498c.312-.54.987-.722 1.502-.424l4.834 2.793c.21.122.478.047.598-.167a.45.45 0 0 0-.165-.608l-6.592-3.81a1.09 1.09 0 0 1-.38-1.497" clip-rule="evenodd"/></svg>