<svg xmlns="http://www.w3.org/2000/svg" fill="none" viewBox="0 0 24 24"><path fill="currentColor" fill-rule="evenodd" d="M16.705 3.575A6 6 0 0 1 20.75 9.25a1 1 0 1 0 2 0c0-4.422-3.578-8-8-8a1 1 0 0 0-.857 1.514l1.05 1.75a1 1 0 0 0 1.762-.94M2.25 13.75a1 1 0 0 0-1 1c0 4.422 3.578 8 8 8a1 1 0 0 0 .857-1.515l-1.05-1.75a1 1 0 0 0-1.762.94A6 6 0 0 1 3.25 14.75a1 1 0 0 0-1-1M8 5a1 1 0 0 0-2 0v1H5a1 1 0 0 0 0 2h1v4.069c0 1.12 0 2.06.1 2.807.107.792.342 1.516.925 2.099s1.307.818 2.099.925c.747.1 1.687.1 2.807.1H16v1a1 1 0 1 0 2 0v-1h1a1 1 0 1 0 0-2h-1v-4.069c0-1.12 0-2.06-.1-2.807-.107-.792-.342-1.516-.925-2.099s-1.307-.818-2.099-.925C14.13 6 13.19 6 12.07 6H8zm0 7V8h4c1.207 0 2.011.002 2.61.083.57.076.801.207.95.356.15.15.28.381.357.951.08.599.083 1.403.083 2.61v4h-4c-1.207 0-2.011-.002-2.61-.083-.57-.076-.801-.207-.95-.356-.15-.15-.28-.381-.357-.951C8.003 14.01 8 13.207 8 12" clip-rule="evenodd"/></svg>