<svg xmlns="http://www.w3.org/2000/svg" fill="none" viewBox="0 0 24 24"><path fill="currentColor" fill-rule="evenodd" d="M16.801 1.622a4.9 4.9 0 0 0-3.744 0c-.487.202-.919.51-1.384.916-.456.397-.982.924-1.648 1.59l-5.897 5.897c-.666.666-1.193 1.192-1.59 1.648-.406.465-.714.897-.916 1.384a4.9 4.9 0 0 0 0 3.744c.202.487.51.919.916 1.384.397.456.924.982 1.59 1.648l.039.039c.666.666 1.192 1.193 1.648 1.59.465.406.897.714 1.384.916a4.9 4.9 0 0 0 3.744 0c.487-.202.919-.51 1.384-.916.136-.118.204-.177.23-.254a.3.3 0 0 0 .005-.172c-.02-.079-.086-.145-.218-.277l-1.431-1.43a1 1 0 0 1 1.414-1.415l1.38 1.379c.2.2.3.3.423.3.125 0 .225-.1.425-.3l1.237-1.237c.2-.2.3-.3.3-.425 0-.124-.1-.224-.3-.424l-1.379-1.379a1 1 0 0 1 1.414-1.414l1.38 1.379c.2.2.3.3.423.3.125 0 .225-.1.425-.3l1.237-1.237c.2-.2.3-.3.3-.425 0-.124-.1-.224-.3-.424l-1.379-1.379a1 1 0 0 1 1.414-1.414l1.43 1.43c.133.133.2.2.279.22a.3.3 0 0 0 .17-.006c.077-.026.137-.094.256-.231.406-.465.714-.897.916-1.384a4.9 4.9 0 0 0 0-3.744c-.202-.487-.51-.919-.916-1.384-.397-.456-.924-.982-1.59-1.648l-.039-.04c-.666-.665-1.192-1.192-1.648-1.59-.465-.405-.897-.713-1.384-.915" clip-rule="evenodd"/></svg>