<svg xmlns="http://www.w3.org/2000/svg" fill="none" viewBox="0 0 24 24"><path fill="currentColor" fill-rule="evenodd" d="M21.126 2.874c-2.33-2.33-6.164-2.132-8.173.46L11.7 4.951a2.03 2.03 0 0 0-.446 1.383l-.01.012-9 10.41a1 1 0 0 0-.123.177 3.5 3.5 0 1 0 4.946 4.946q.093-.05.177-.122l10.41-9 .012-.01c.469.029.951-.112 1.383-.447l1.617-1.253c2.592-2.009 2.79-5.844.46-8.173m-5.199 8.731a2.13 2.13 0 0 1-.273-1.138c.029-.561.296-1.097.809-1.498l.48-.374c.541-.423.582-1.204.124-1.662s-1.24-.417-1.662.124l-.374.48c-.401.513-.937.78-1.498.809a2.13 2.13 0 0 1-1.138-.273l-6.962 8.053a3.51 3.51 0 0 1 2.441 2.442zM4.5 18a1.5 1.5 0 1 0 0 3 1.5 1.5 0 0 0 0-3" clip-rule="evenodd"/></svg>