<svg xmlns="http://www.w3.org/2000/svg" fill="none" viewBox="0 0 24 24"><path fill="currentColor" fill-rule="evenodd" d="M4.7 1.649c.281-.214.623-.399 1.056-.399s.775.185 1.056.399c.255.194.53.47.83.77l1.451 1.45c.3.3.576.577.77.831.215.281.4.623.4 1.056s-.185.775-.4 1.056c-.194.255-.47.53-.77.83l-.018.019 1.185 1.185.24-.24c.275-.275.531-.531.77-.713.263-.201.59-.38 1.007-.38s.745.179 1.009.38c.227.173.47.415.731.676l1.02-1.02a4.85 4.85 0 0 1 .634-6.08.75.75 0 0 1 1.06 0l5.8 5.8a.75.75 0 0 1 0 1.06 4.85 4.85 0 0 1-6.08.634l-1.02 1.02c.26.26.502.504.675.73.201.265.38.592.38 1.009s-.179.744-.38 1.008c-.182.238-.438.494-.713.769l-.24.24 1.186 1.186.019-.018c.3-.3.575-.576.83-.77.281-.215.623-.4 1.056-.4s.775.185 1.056.4c.255.194.53.47.83.77l1.45 1.45c.3.3.577.576.771.831.214.281.399.623.399 1.056s-.185.775-.399 1.056c-.194.255-.47.53-.77.83l-1.45 1.45c-.3.3-.576.577-.831.771-.281.214-.623.399-1.056.399s-.775-.185-1.056-.399c-.255-.194-.53-.47-.83-.77l-1.451-1.45c-.3-.3-.576-.576-.77-.831-.215-.281-.4-.623-.4-1.056s.185-.775.4-1.056c.194-.255.47-.53.77-.83l.018-.019-1.186-1.186-2.583 2.583a3.46 3.46 0 0 1-4.893-4.893l2.583-2.583-1.185-1.185-.018.018c-.3.3-.576.576-.831.77-.281.215-.623.4-1.056.4s-.775-.185-1.056-.4c-.254-.194-.53-.47-.83-.77l-1.45-1.45c-.3-.3-.577-.576-.771-.831-.214-.281-.399-.623-.399-1.056s.185-.775.399-1.056c.194-.254.47-.53.77-.83l1.45-1.45c.3-.3.577-.577.831-.771" clip-rule="evenodd"/></svg>