<svg xmlns="http://www.w3.org/2000/svg" fill="none" viewBox="0 0 24 24"><path fill="currentColor" fill-rule="evenodd" d="M2.586 2.532a.75.75 0 0 0-1.171.937l1.338 1.673-1 .35a.75.75 0 0 0 .495 1.416l1.012-.355c-.023.325-.007.65.05.962.147.823.582 1.624 1.352 2.102 2.19 1.358 4.686 2.131 7.338 2.131s5.148-.773 7.338-2.131c.77-.478 1.205-1.279 1.352-2.102.056-.312.073-.637.05-.962l1.013.355a.75.75 0 1 0 .495-1.416l-1-.35 1.338-1.673a.75.75 0 0 0-1.171-.937l-1.509 1.885c-.97-1.179-2.524-1.43-3.835-.909-.144.058-.216.086-.25.159-.033.072-.007.151.046.31l.845 2.534a.75.75 0 1 1-1.423.474l-.8-2.396c-.057-.173-.086-.26-.155-.297-.069-.038-.16-.015-.344.032a8 8 0 0 1-.878.173c-.176.024-.264.037-.313.093-.049.057-.049.142-.049.313v2.345a.75.75 0 0 1-1.5 0V4.903c0-.17 0-.256-.049-.313s-.137-.068-.313-.093q-.446-.062-.878-.173c-.183-.047-.275-.07-.344-.032-.069.037-.098.124-.155.297l-.8 2.396a.75.75 0 0 1-1.422-.474l.844-2.534c.053-.159.08-.238.046-.31-.033-.072-.106-.101-.25-.159-1.31-.521-2.866-.27-3.835.909zm0 10a.75.75 0 1 0-1.171.936l1.338 1.674-1 .35a.75.75 0 0 0 .495 1.416l1.012-.355c-.023.325-.007.65.05.962.147.823.582 1.624 1.352 2.102 2.19 1.358 4.686 2.131 7.338 2.131s5.148-.773 7.338-2.131c.77-.478 1.205-1.279 1.352-2.102.056-.312.073-.637.05-.962l1.013.355a.75.75 0 1 0 .495-1.416l-1-.35 1.338-1.674a.75.75 0 0 0-1.171-.937l-1.51 1.886c-.968-1.179-2.523-1.43-3.834-.909-.144.058-.216.087-.25.159-.033.072-.007.151.046.31l.845 2.534a.75.75 0 0 1-1.423.474l-.8-2.396c-.057-.173-.086-.26-.155-.298s-.16-.014-.344.033a8 8 0 0 1-.878.173c-.176.024-.264.037-.313.093-.049.057-.049.142-.049.313v2.345a.75.75 0 0 1-1.5 0v-2.345c0-.17 0-.256-.049-.313s-.137-.069-.313-.093q-.446-.062-.878-.173c-.183-.047-.275-.07-.344-.032-.069.037-.098.124-.155.297l-.8 2.396a.75.75 0 0 1-1.422-.474l.844-2.534c.053-.159.08-.238.046-.31-.033-.072-.106-.101-.25-.159-1.31-.521-2.866-.27-3.835.909z" clip-rule="evenodd"/></svg>