<svg xmlns="http://www.w3.org/2000/svg" fill="none" viewBox="0 0 24 24"><path fill="currentColor" fill-rule="evenodd" d="M12.057 1.75c2.19 0 3.912 0 5.255.18 1.377.186 2.469.573 3.327 1.43.858.86 1.245 1.951 1.43 3.328.181 1.343.181 3.064.181 5.255v.114c0 2.19 0 3.912-.18 5.255-.186 1.377-.573 2.469-1.43 3.327-.86.858-1.951 1.245-3.328 1.43-1.343.181-3.064.181-5.255.181h-.114c-2.19 0-3.912 0-5.255-.18-1.377-.186-2.469-.573-3.327-1.43-.858-.86-1.245-1.951-1.43-3.328-.181-1.343-.181-3.064-.181-5.255v-.114c0-2.19 0-3.912.18-5.255.186-1.377.573-2.469 1.43-3.327.86-.858 1.951-1.245 3.328-1.43 1.343-.181 3.064-.181 5.255-.181zM15 5.25a2.75 2.75 0 0 0-2.402 4.09L11 10.94 7.53 7.47a.75.75 0 0 0-1.06 1.06L9.94 12l-3.47 3.47a.75.75 0 1 0 1.06 1.06L11 13.06l1.598 1.6a2.75 2.75 0 1 0 1.06-1.06L12.061 12l1.598-1.598A2.75 2.75 0 1 0 15 5.25M13.75 8a1.25 1.25 0 1 1 2.5 0 1.25 1.25 0 0 1-2.5 0m0 8a1.25 1.25 0 1 1 2.5 0 1.25 1.25 0 0 1-2.5 0" clip-rule="evenodd"/></svg>