<svg xmlns="http://www.w3.org/2000/svg" fill="none" viewBox="0 0 24 24"><path fill="currentColor" fill-rule="evenodd" d="M6 4.75h3.418a2.751 2.751 0 0 0 5.125 0H18a1 1 0 1 0 0-2h-3.457a2.75 2.75 0 0 0-5.125 0H6a1 1 0 0 0 0 2m6.026 2.5h-.052c-.724 0-1.304 0-1.779.032-.487.033-.912.101-1.318.262a3.94 3.94 0 0 0-1.8 1.417c-.247.358-.395.75-.512 1.2-.114.434-.21.97-.328 1.627l-.627 3.49c-.186 1.03-.34 1.889-.358 2.576-.02.728.109 1.402.616 1.957.722.789 1.825.904 3.112.939h.17c.283 0 .424 0 .512-.088s.088-.23.088-.512V18a2.25 2.25 0 0 1 4.5 0v2.15c0 .283 0 .424.088.512s.23.088.512.088h.188c1.28-.036 2.375-.153 3.094-.94.507-.554.635-1.228.616-1.956-.018-.687-.172-1.546-.358-2.577l-.627-3.489c-.118-.657-.214-1.193-.328-1.627-.117-.45-.265-.842-.512-1.2a3.94 3.94 0 0 0-1.8-1.417c-.406-.16-.83-.23-1.318-.262-.475-.032-1.055-.032-1.779-.032M12 17a1 1 0 0 1 1 1v4a1 1 0 1 1-2 0v-4a1 1 0 0 1 1-1" clip-rule="evenodd"/></svg>