<svg xmlns="http://www.w3.org/2000/svg" fill="none" viewBox="0 0 24 24"><path fill="currentColor" fill-rule="evenodd" d="M11 1C5.477 1 1 5.477 1 11s4.477 10 10 10a9.96 9.96 0 0 0 6.329-2.257l3.964 3.964a1 1 0 0 0 1.414-1.414l-3.964-3.964A9.96 9.96 0 0 0 21 11c0-5.523-4.477-10-10-10M3 11a8 8 0 1 1 16 0 8 8 0 0 1-16 0m9-5a1 1 0 1 0-2 0v.218a4.1 4.1 0 0 0-1.536.678c-.686.502-1.214 1.28-1.214 2.232 0 .815.297 1.596 1.069 2.113.686.46 1.617.615 2.681.615.944 0 1.454.144 1.706.307.161.105.294.258.294.71 0 .34-.127.531-.391.69-.326.194-.87.326-1.609.326-.657 0-1.207-.18-1.563-.42-.364-.244-.437-.474-.437-.596a1 1 0 0 0-2 0c0 .991.598 1.77 1.32 2.255a4.5 4.5 0 0 0 1.68.668V16a1 1 0 1 0 2 0v-.179c.584-.083 1.149-.252 1.634-.541.821-.49 1.366-1.308 1.366-2.407 0-.99-.367-1.844-1.206-2.388-.748-.485-1.738-.629-2.794-.629-.936 0-1.38-.151-1.569-.277-.103-.07-.181-.153-.181-.451 0-.162.087-.393.397-.62.309-.226.784-.397 1.353-.397 1.102 0 1.662.578 1.737.903a1 1 0 1 0 1.949-.45c-.29-1.254-1.42-2.063-2.686-2.343z" clip-rule="evenodd"/></svg>