<svg xmlns="http://www.w3.org/2000/svg" fill="none" viewBox="0 0 24 24"><path fill="currentColor" fill-rule="evenodd" d="M14.498 1.751c-1.1 0-2 .9-2 2s.9 2 2 2 2-.9 2-2-.9-2-2-2m2.501 11.87v-3.32h.01l.67 1c.06.1.14.18.23.25l2 1.5c.44.33 1.07.24 1.4-.2s.24-1.07-.2-1.4l-1.86-1.4-1.01-1.52a4 4 0 0 0-3.33-1.78h-.54c-1.52 0-2.9.85-3.58 2.21l-1.67 3.34c-.24.49-.04 1.1.45 1.34.49.25 1.09.05 1.34-.44l1.1-2.22v1.86c0 .79.23 1.56.67 2.22l.864 1.294-2.426 4.415a.99.99 0 0 0 .3 1.3c.42.29.99.22 1.33-.16l2.555-2.92 1.878 2.81c.27.41.79.56 1.24.36.44-.2.68-.7.55-1.17zm-9.34 1.39-.731-.46c-.93-.58-2.15-.29-2.72.63l-1.42 2.28c-.56.91-.31 2.1.58 2.7l.79.53-.02.03c-.29.47-.14 1.09.33 1.38s1.09.14 1.38-.33l3.5-5.69a.994.994 0 0 0-.33-1.37c-.46-.28-1.06-.15-1.36.3" clip-rule="evenodd"/></svg>