<svg xmlns="http://www.w3.org/2000/svg" fill="none" viewBox="0 0 24 24"><path fill="currentColor" fill-rule="evenodd" d="M11 4.25c.493 0 .787.002.997.03a.24.24 0 0 1 .223.223c.028.21.03.504.03.997v2.25h7.496a8 8 0 0 0-.017-.395 2.8 2.8 0 0 0-.188-.907 2.75 2.75 0 0 0-1.489-1.489c-.29-.12-.59-.167-.907-.188-.304-.021-.675-.021-1.12-.021h-2.283a5 5 0 0 0-.035-.447c-.048-.356-.16-.731-.47-1.04s-.684-.422-1.04-.47c-.323-.043-.764-.043-1.197-.043a.75.75 0 0 0 0 1.5m1.25 5h7.5v3.505q.214.003.395.016c.317.021.617.068.907.188a2.75 2.75 0 0 1 1.489 1.489c.12.29.167.59.188.907.021.304.021.745.021 1.19 0 .433 0 .83-.043 1.152-.048.356-.16.731-.47 1.04s-.684.422-1.04.47c-.297.04-.657.043-1.05.043a2.751 2.751 0 0 1-5.293 0H12.25zm3.5 0v2.25c0 .493.002.787.03.997a.236.236 0 0 0 .223.223c.21.028.504.03.997.03h1.25v-3.5zm1.75 10.5a1.25 1.25 0 1 0 0-2.5 1.25 1.25 0 0 0 0 2.5m-6.5-7H3.955c-.433 0-.83 0-1.152.043-.356.048-.731.16-1.04.47s-.422.684-.47 1.04c-.043.323-.043.72-.043 1.152v1.09c0 .433 0 .83.043 1.152.048.356.16.731.47 1.04s.684.422 1.04.47q.249.032.55.038a2.751 2.751 0 0 0 5.293.005H11zm-5 4.5a1.25 1.25 0 1 0 0 2.5 1.25 1.25 0 0 0 0-2.5" clip-rule="evenodd"/></svg>