<svg xmlns="http://www.w3.org/2000/svg" fill="none" viewBox="0 0 24 24"><path fill="currentColor" fill-rule="evenodd" d="M4.916 2.25h14.168c.38 0 .71 0 .999.077a2.25 2.25 0 0 1 1.59 1.59c.078.29.078.618.077 1 0 .38 0 .876-.077 1.165a2.25 2.25 0 0 1-1.59 1.591c-.29.078-.618.078-.999.077H4.916c-.38 0-.71 0-.998-.077a2.25 2.25 0 0 1-1.591-1.59c-.078-.29-.077-.786-.077-1.167 0-.38 0-.71.077-.998a2.25 2.25 0 0 1 1.59-1.591c.29-.078.618-.077 1-.077M5.25 5A.75.75 0 0 1 6 4.25h.01a.75.75 0 0 1 0 1.5H6A.75.75 0 0 1 5.25 5M9 4.25a.75.75 0 0 0 0 1.5h.01a.75.75 0 0 0 0-1.5zm-4.084 5h14.168c.38 0 .71 0 .999.077a2.25 2.25 0 0 1 1.59 1.59c.078.29.078.618.077 1 0 .38 0 .876-.077 1.165a2.25 2.25 0 0 1-1.59 1.591c-.29.078-.618.078-.999.077H4.916c-.38 0-.71 0-.998-.077a2.25 2.25 0 0 1-1.591-1.59c-.078-.29-.077-.786-.077-1.167 0-.38 0-.71.077-.998a2.25 2.25 0 0 1 1.59-1.591c.29-.078.618-.077 1-.077M5.25 12a.75.75 0 0 1 .75-.75h.01a.75.75 0 0 1 0 1.5H6a.75.75 0 0 1-.75-.75M9 11.25a.75.75 0 0 0 0 1.5h.01a.75.75 0 0 0 0-1.5zm10.084 5H4.916c-.38 0-.71 0-.998.077a2.25 2.25 0 0 0-1.591 1.59c-.078.29-.077.618-.077 1 0 .38 0 .876.077 1.165a2.25 2.25 0 0 0 1.59 1.591c.29.078.618.078 1 .077h14.167c.38 0 .71 0 .999-.077a2.25 2.25 0 0 0 1.59-1.59c.078-.29.078-.786.077-1.167 0-.38 0-.71-.077-.998a2.25 2.25 0 0 0-1.59-1.591c-.29-.078-.618-.077-.999-.077M6 18.25a.75.75 0 0 0 0 1.5h.01a.75.75 0 0 0 0-1.5zm2.25.75a.75.75 0 0 1 .75-.75h.01a.75.75 0 0 1 0 1.5H9a.75.75 0 0 1-.75-.75" clip-rule="evenodd"/></svg>