<svg xmlns="http://www.w3.org/2000/svg" fill="none" viewBox="0 0 24 24"><path fill="currentColor" fill-rule="evenodd" d="M16.812 1.43c1.376.185 2.468.572 3.327 1.43.858.859 1.245 1.95 1.43 3.327.168 1.248.18 2.82.18 4.793v.577c0 2.19 0 3.911-.18 5.254-.185 1.377-.572 2.47-1.43 3.328-.859.858-1.95 1.245-3.328 1.43-1.247.168-2.82.18-4.792.18h-.577c-2.19 0-3.911 0-5.255-.18-1.376-.185-2.468-.572-3.327-1.43-.858-.859-1.245-1.95-1.43-3.328-.155-1.151-.177-2.58-.18-4.344v-1.935c.003-1.764.025-3.193.18-4.345.185-1.376.572-2.468 1.43-3.327.859-.858 1.95-1.245 3.327-1.43 1.152-.155 2.58-.177 4.345-.18h1.935c1.764.003 3.193.025 4.344.18M14.998 5.5a2.5 2.5 0 0 0-1 4.791V16.5a1 1 0 1 0 2 0v-6.21A2.5 2.5 0 0 0 15 5.5m-7 0a1 1 0 0 0-1 1v6.208a2.5 2.5 0 1 0 2 0V6.499a1 1 0 0 0-1-1" clip-rule="evenodd"/></svg>