<svg xmlns="http://www.w3.org/2000/svg" fill="none" viewBox="0 0 24 24"><path fill="currentColor" fill-rule="evenodd" d="M9.75 22.447c.274.197.568.271.848.303h2.804a1.74 1.74 0 0 0 .848-.303c.274-.197.437-.452.556-.707.106-.228.643-1.829.643-1.829s.261-.443.477-.584c.422-.278.848-.338 1.126-.278 0 0 1.882.53 2.147.572.296.047.62.053.953-.082.335-.136.562-.365.741-.604l1.439-2.482c.112-.26.195-.552.16-.89a1.73 1.73 0 0 0-.342-.836c-.148-.207-1.39-1.59-1.606-1.829 0 0-.26-.399-.26-.898 0-.585.26-.898.26-.898s1.458-1.622 1.606-1.829c.164-.23.306-.499.342-.836a1.73 1.73 0 0 0-.16-.89c-.102-.232-1.439-2.482-1.439-2.482-.179-.24-.406-.468-.74-.604-.335-.135-.658-.13-.954-.082-.265.042-1.817.478-2.147.571 0 0-.53.115-1.126-.277a1.25 1.25 0 0 1-.478-.584s-.536-1.6-.642-1.83a1.74 1.74 0 0 0-.556-.706 1.74 1.74 0 0 0-.848-.303h-2.804a1.74 1.74 0 0 0-.848.303 1.74 1.74 0 0 0-.556.707c-.106.228-.642 1.829-.642 1.829a1.25 1.25 0 0 1-.478.584c-.597.392-1.126.277-1.126.277-.33-.093-1.882-.53-2.147-.571-.296-.047-.62-.053-.953.082-.335.136-.562.365-.741.604 0 0-1.337 2.25-1.439 2.482-.112.26-.195.552-.16.89s.178.606.342.836c.148.207 1.606 1.829 1.606 1.829s.26.313.26.898c0 .5-.26.898-.26.898-.215.238-1.458 1.622-1.606 1.829-.164.23-.306.499-.342.836-.035.338.048.63.16.89l1.439 2.482c.179.239.406.468.74.604.335.135.658.13.954.082.265-.042 2.147-.572 2.147-.572.278-.06.704 0 1.126.278.216.14.478.584.478.584s.536 1.6.642 1.83c.119.254.282.509.556.706m2.27-6.947a3.5 3.5 0 1 0 0-7 3.5 3.5 0 0 0 0 7" clip-rule="evenodd"/></svg>