<svg xmlns="http://www.w3.org/2000/svg" fill="none" viewBox="0 0 24 24"><path fill="currentColor" fill-rule="evenodd" d="M12.001 1.25a.977.977 0 0 0 0 1.955 8.795 8.795 0 1 1 0 17.59.977.977 0 1 0 0 1.955c5.938 0 10.75-4.814 10.75-10.75S17.94 1.25 12.001 1.25M8.92 3.812a.977.977 0 0 0-.718-1.818A12 12 0 0 0 5.27 3.657a.977.977 0 1 0 1.197 1.545 10 10 0 0 1 2.453-1.39m-4.594 3.76a.977.977 0 0 0-1.66-1.032 10.4 10.4 0 0 0-1.397 3.567.977.977 0 1 0 1.921.358 8.4 8.4 0 0 1 1.136-2.893M3.19 13.535a.977.977 0 1 0-1.921.358 10.4 10.4 0 0 0 1.398 3.567.977.977 0 1 0 1.66-1.032 8.4 8.4 0 0 1-1.137-2.893m3.282 5.267a.977.977 0 0 0-1.208 1.536c.891.7 1.888 1.256 2.94 1.669a.977.977 0 0 0 .714-1.82 9.7 9.7 0 0 1-2.446-1.385m.278-7.34C6.75 8.594 9.16 6.25 12 6.25s5.25 2.343 5.25 5.213c0 1.47-.625 2.695-1.472 3.683-.84.98-1.925 1.761-2.923 2.372l-.011.007-.012.007a1.69 1.69 0 0 1-1.664 0l-.013-.008-.013-.008c-.993-.614-2.077-1.392-2.918-2.37-.847-.986-1.474-2.208-1.474-3.683m3.496.038c0-.966.781-1.75 1.745-1.75H12c.964 0 1.745.784 1.745 1.75s-.78 1.75-1.744 1.75h-.011a1.747 1.747 0 0 1-1.745-1.75" clip-rule="evenodd"/></svg>