<svg xmlns="http://www.w3.org/2000/svg" fill="none" viewBox="0 0 24 24"><path fill="currentColor" fill-rule="evenodd" d="M12.083 1.25c-.65 0-1.11.389-1.45.802-.32.395-.83 1.235-1.23 1.896-.32.536-.53.892-.73 1.154-.18.248-.32.364-.45.437s-.29.128-.6.158c-.33.031-.74.032-1.37.032-.79 0-1.81 0-2.32.073-.53.076-1.17.374-1.51.926-.3.576-.16 1.162.05 1.653.2.476.55 1.05.95 1.722.33.547.58.961.72 1.261.14.286.18.609.18.609s-.04.377-.18.663c-.14.3-.36.664-.69 1.211l-.03.05c-.4.672-.75 1.246-.95 1.722-.21.491-.35 1.077-.05 1.653.34.552.98.85 1.51.926.51.073 1.18.073 1.97.073 0 0 1.39.001 1.72.032.31.03.47.084.6.158.13.073.27.189.45.437.2.262.57.889.9 1.425.39.661.74 1.23 1.06 1.625.34.413.8.802 1.45.802s1.1-.389 1.44-.802c.33-.395.85-1.272 1.25-1.933.31-.517.52-.861.71-1.114.17-.241.35-.38.47-.453 0 0 .29-.119.59-.147.31-.029 1.04-.03 1.64-.03.73 0 1.35 0 1.83-.06s1.01-.201 1.37-.661c.13-.174.24-.37.3-.579.18-.556-.02-1.077-.24-1.504-.23-.423-.58-.93-1-1.529-.37-.523-.64-.914-.81-1.204-.15-.278-.21-.446-.22-.59a1.4 1.4 0 0 1 0-.288c.01-.144.07-.312.22-.59.17-.29.44-.681.81-1.204.42-.599.77-1.106 1-1.529.22-.427.42-.948.24-1.504a1.8 1.8 0 0 0-.3-.579c-.36-.46-.89-.601-1.37-.661s-1.1-.06-1.83-.06c-.6 0-1.33-.001-1.64-.03-.3-.028-.46-.078-.59-.147-.12-.073-.3-.212-.47-.453-.19-.253-.58-.905-.89-1.422-.4-.661-.74-1.23-1.07-1.625-.34-.413-.79-.802-1.44-.802M12.003 15c1.66 0 3-1.343 3-3s-1.34-3-3-3-3 1.343-3 3 1.34 3 3 3" clip-rule="evenodd"/></svg>