<svg xmlns="http://www.w3.org/2000/svg" fill="none" viewBox="0 0 24 24"><path fill="currentColor" fill-rule="evenodd" d="M12 1.25c-.355 0-.717.109-1.085.248-.373.14-.839.347-1.42.605-.853.379-1.98.814-3.188 1.157-.882.251-1.595.454-2.135.663-.543.21-1.035.472-1.366.91-.321.425-.445.921-.501 1.456-.055.517-.055 1.165-.055 1.95v2.944c0 3.056 1.38 5.48 3.047 7.286 1.662 1.8 3.642 3.025 4.947 3.714l.063.033c.556.294 1.01.534 1.693.534s1.137-.24 1.693-.534l.063-.033c1.305-.69 3.285-1.914 4.947-3.714 1.668-1.807 3.047-4.23 3.047-7.286V8.24c0-.785 0-1.433-.055-1.95-.056-.535-.18-1.031-.5-1.456-.332-.438-.824-.7-1.367-.91-.54-.21-1.253-.412-2.135-.663a25 25 0 0 1-3.189-1.157 30 30 0 0 0-1.419-.605c-.368-.14-.73-.248-1.085-.248m3.53 6.22a.75.75 0 0 0-1.06 0l-4 3.999a2.248 2.248 0 0 0-2.559 3.622 2.244 2.244 0 0 0 3.178 0 2.25 2.25 0 0 0 .444-2.563L13 11.061l.97.97a.75.75 0 1 0 1.06-1.061l-.97-.97.94-.94 1.47 1.47a.75.75 0 1 0 1.06-1.06zm-6.563 5.5a.756.756 0 0 1 1.066 0 .75.75 0 0 1-.005 1.061.743.743 0 0 1-1.055 0 .75.75 0 0 1-.006-1.06" clip-rule="evenodd"/></svg>