<svg xmlns="http://www.w3.org/2000/svg" fill="none" viewBox="0 0 24 24"><path fill="currentColor" fill-rule="evenodd" d="M11.375 3.25c-1.962 0-3.5 1.535-3.5 3.364v.207a17 17 0 0 1 1.618-.071h3.764q.866-.002 1.618.073v-.21c0-1.828-1.538-3.363-3.5-3.363m-5.5 3.364v.647c-.4.154-.768.348-1.108.592-1.205.866-1.91 2.252-2.463 4.178l-.012.042c-.474 1.653-.846 2.95-1.032 3.996-.188 1.063-.207 1.972.119 2.814a5.1 5.1 0 0 0 1.854 2.344c.795.551 2.053.917 3.428 1.153 1.405.241 3.039.365 4.667.37a33 33 0 0 0 2.15-.064c.223-.03.324-.203.238-.411l-.077-.157a4 4 0 0 0-.352-.578.5.5 0 0 0-.101-.116.8.8 0 0 0-.18-.08 2.5 2.5 0 0 1 .869-4.844c.643 0 1.149.182 1.511.368.076.039.115.058.142.066q.152.046.274-.056a1 1 0 0 0 .094-.105c.623-.746 1.377-1.57 2.202-2.293.592-.52 1.299-1.057 2.087-1.464.233-.12.35-.18.393-.279.042-.098.008-.217-.06-.455l-.06-.209-.012-.043c-.529-1.841-1.19-3.226-2.375-4.112a5 5 0 0 0-1.196-.652v-.652c0-2.991-2.492-5.364-5.5-5.364s-5.5 2.373-5.5 5.364m4.5 3.386a1 1 0 1 0 0 2h2a1 1 0 1 0 0-2zm11.834 5.943a1 1 0 0 0-.668-1.885c-.878.31-1.718.904-2.454 1.55-.747.655-1.445 1.415-2.039 2.127-.44.526-.827 1.034-1.143 1.465a4 4 0 0 0-.85-.782c-.275-.183-.628-.418-1.18-.418a1 1 0 0 0-.094 1.996c.204.019.759.57 1.2 1.452a1 1 0 0 0 1.738.088s.348-.522.513-.756c.331-.469.8-1.103 1.352-1.764.554-.664 1.179-1.34 1.822-1.904.653-.573 1.27-.98 1.803-1.17" clip-rule="evenodd"/></svg>