<svg xmlns="http://www.w3.org/2000/svg" fill="none" viewBox="0 0 24 24"><path fill="currentColor" fill-rule="evenodd" d="M1.5 2.25a1 1 0 0 1 1-1h.938a3 3 0 0 1 2.91 2.272l.005.019.465 2.213h13.2c.358.007.74.025 1.083.116.382.1.76.302 1.04.688.345.474.38 1.003.35 1.447-.028.412-.129.911-.238 1.454l-.012.058c-.402 2-.809 3.955-1.782 5.375a5 5 0 0 1-2.06 1.76c-.876.407-1.913.599-3.136.599H8.43c-.583.017-1.116.411-1.33.999h10.4a2.25 2.25 0 1 1-2.236 2h-2.528q.015.123.014.25a2.25 2.25 0 1 1-4.486-.25H6.41c-.816 0-1.41-.678-1.41-1.429 0-1.352.74-2.559 1.854-3.163L4.404 3.992a1 1 0 0 0-.966-.742H2.5a1 1 0 0 1-1-1m15.293 18a.75.75 0 1 0 0-.001zm-6.293-.5a.75.75 0 1 0 0 1.5.75.75 0 0 0 0-1.5" clip-rule="evenodd"/></svg>