<svg xmlns="http://www.w3.org/2000/svg" fill="none" viewBox="0 0 24 24"><path fill="currentColor" fill-rule="evenodd" d="M11.45 6a.32.32 0 0 1-.252.307c-.488.12-1.294.446-1.744 1.357-.629 1.277.085 2.381.201 2.561l.008.012c.174.272.411.558.576.757l.055.066c.294.354.683.807 1.096 1.185.207.188.479.414.8.604.287.17.84.451 1.56.451s1.273-.28 1.56-.45a5 5 0 0 0 .8-.605c.413-.378.803-.831 1.096-1.186l.055-.065c.165-.2.402-.485.576-.757l.008-.012c.116-.18.83-1.284.2-2.561-.449-.911-1.255-1.238-1.743-1.357a.32.32 0 0 1-.252-.308V5.3a.3.3 0 0 1 .3-.3H22a1 1 0 0 1 0 2h-.105l-.538 4.84c-.15 1.35-.395 2.521-1.209 3.313-.813.792-1.991 1.004-3.345 1.117l-8.15.679q-.118.222-.273.424l-.334.432c.35.326.62.735.783 1.195h5.342a3.001 3.001 0 1 1 0 2H8.829a3.001 3.001 0 1 1-2.69-3.997l.658-.852a.96.96 0 0 0 .173-.825L3.995 3.764C3.884 3.333 3.472 3 2.966 3H2a1 1 0 0 1 0-2h.966c1.383 0 2.618.916 2.966 2.266L6.378 5h4.772a.3.3 0 0 1 .3.3zM16 20a1 1 0 1 0 2 0 1 1 0 0 0-2 0m-9 0a1 1 0 1 0-2 0 1 1 0 0 0 2 0m6.75-18a1 1 0 0 0-1 1v4.5h-.162c-.29 0-.598 0-.84.029-.177.021-.827.1-1.128.71s.045 1.152.139 1.298c.128.202.322.435.504.655l.031.038c.288.346.63.741.974 1.055.171.157.37.319.585.446.2.119.514.269.897.269s.698-.15.897-.269c.216-.127.414-.289.585-.446.344-.314.686-.709.974-1.055l.03-.038c.183-.22.377-.453.505-.655.094-.146.439-.689.139-1.298s-.951-.689-1.128-.71a8 8 0 0 0-.84-.029h-.162V3a1 1 0 0 0-1-1" clip-rule="evenodd"/></svg>