<svg xmlns="http://www.w3.org/2000/svg" fill="none" viewBox="0 0 24 24"><path fill="currentColor" fill-rule="evenodd" d="M16.77 6.027a1 1 0 0 1 1.124.526L21 12.764V7a1 1 0 1 1 2 0v10a1 1 0 0 1-1.894.447L18 11.237V17a1 1 0 1 1-2 0V7a1 1 0 0 1 .77-.973M9 7a1 1 0 0 1 1-1h4a1 1 0 1 1 0 2h-1v8h1a1 1 0 1 1 0 2h-4a1 1 0 1 1 0-2h1V8h-1a1 1 0 0 1-1-1M4 6C2.146 6 1 7.787 1 9.5S2.146 13 4 13h1c.356 0 1 .452 1 1.5S5.356 16 5 16h-.5c-.48 0-1.058-.376-1.348-1.205a1 1 0 1 0-1.888.66C1.746 16.833 2.93 18 4.5 18H5c1.854 0 3-1.787 3-3.5S6.854 11 5 11H4c-.356 0-1-.452-1-1.5S3.644 8 4 8h.5c.444 0 .963.314 1.275 1.02a1 1 0 0 0 1.83-.809c-.54-1.22-1.663-2.21-3.105-2.21z" clip-rule="evenodd"/></svg>