<svg xmlns="http://www.w3.org/2000/svg" fill="none" viewBox="0 0 24 24"><path fill="currentColor" fill-rule="evenodd" d="M6 3.25a4.75 4.75 0 0 0-3.508 7.953c.345.377.502.57.601.76.089.17.153.384.193.827a8.72 8.72 0 0 0 2.527 5.397 8.75 8.75 0 0 0 8.808 2.163c.425-.133.647-.156.84-.14.216.019.455.09.937.263a4.75 4.75 0 0 0 5.11-7.676c-.345-.377-.502-.57-.601-.76-.089-.17-.153-.384-.192-.827a8.72 8.72 0 0 0-2.528-5.397A8.75 8.75 0 0 0 9.38 3.65c-.425.133-.647.156-.84.14-.216-.019-.455-.09-.937-.263A4.7 4.7 0 0 0 6 3.25M9.75 10c0-.223.136-.518.545-.79.403-.27 1.004-.46 1.705-.46s1.302.19 1.705.46c.41.272.545.566.545.79a.75.75 0 0 0 1.5 0c0-.881-.536-1.587-1.213-2.038-.682-.455-1.581-.712-2.537-.712s-1.855.257-2.537.712C8.786 8.413 8.25 9.119 8.25 10s.536 1.587 1.213 2.038c.682.455 1.581.712 2.537.712.701 0 1.302.19 1.705.46.41.272.545.566.545.79 0 .223-.136.518-.545.79-.403.27-1.004.46-1.705.46s-1.302-.19-1.705-.46c-.41-.272-.545-.566-.545-.79a.75.75 0 0 0-1.5 0c0 .881.536 1.587 1.213 2.038.682.455 1.581.712 2.537.712s1.855-.257 2.537-.712c.677-.451 1.213-1.157 1.213-2.038s-.536-1.587-1.213-2.038c-.682-.455-1.581-.712-2.537-.712-.701 0-1.302-.19-1.705-.46-.41-.272-.545-.566-.545-.79" clip-rule="evenodd"/></svg>