<svg xmlns="http://www.w3.org/2000/svg" fill="none" viewBox="0 0 24 24"><path fill="currentColor" fill-rule="evenodd" d="M1.25 12.125c0-5.937 4.813-10.75 10.75-10.75.837 0 1.652.096 2.434.277.07.016.105.024.127.033.12.048.165.105.184.232.004.023.004.085.004.208 0 .635.263 1.209.687 1.618.328.317.492.475.497.595s-.114.257-.352.53a6 6 0 0 0-.38.471c-.17.262-.776 1.242-.283 2.441.519 1.262 1.712 1.494 2.046 1.544.336.051.95.051.959.051h4.01c.224 0 .336 0 .419.066.082.067.105.172.151.383q.245 1.114.247 2.301c0 5.937-4.813 10.75-10.75 10.75S1.25 18.062 1.25 12.125m6.78-2.03a.75.75 0 1 0-1.06 1.06c.46.461 1.085.72 1.737.72H10a.75.75 0 0 0 0-1.5H8.707a.96.96 0 0 1-.677-.28m9 1.06a.75.75 0 1 0-1.06-1.06.96.96 0 0 1-.677.28H14a.75.75 0 0 0 0 1.5h1.293c.652 0 1.277-.259 1.737-.72M12 14.875a1.25 1.25 0 1 0 0 2.5 1.25 1.25 0 0 0 0-2.5m-2.75 1.25a2.75 2.75 0 1 1 5.5 0 2.75 2.75 0 0 1-5.5 0m7.75-13h2.081l-2.23 2.162-.056.06-.034.037c-.18.206-.379.433-.513.639-.131.2-.415.696-.174 1.282.252.613.832.746 1.078.784.242.036.542.036.804.036h3.026a1 1 0 1 0 0-2H18.86l2.23-2.162q.03-.028.057-.06l.033-.037c.18-.206.38-.433.514-.639.13-.2.414-.696.173-1.282-.252-.613-.831-.746-1.078-.784-.242-.036-.542-.036-.803-.036h-2.987a1 1 0 1 0 0 2" clip-rule="evenodd"/></svg>