<svg xmlns="http://www.w3.org/2000/svg" fill="none" viewBox="0 0 24 24"><path fill="currentColor" fill-rule="evenodd" d="M9.462 2.25h2.04v3.49h-4.75v-.791c0-.43 0-.83.04-1.15.05-.36.16-.73.47-1.04s.69-.42 1.04-.47c.33-.04.72-.04 1.16-.04m11.28.51c.31.31.42.68.47 1.04.04.32.04.72.04 1.15v.79h-8.5v-.791c0-.43 0-.83.04-1.15.05-.36.16-.73.47-1.04s.69-.42 1.04-.47c.33-.04.72-.04 1.16-.04h3.08c.44 0 .83 0 1.16.04.35.05.73.16 1.04.47m-1.49 12.244c.001.628.261 1.206.69 1.615.84-.88 1.31-2.06 1.31-3.28v-.57a2.253 2.253 0 0 0-2 2.235m0 0V15v.01zm-9.25 5.495a4.27 4.27 0 0 0 5.99.05l-6.04-6.04a4.27 4.27 0 0 0 .05 5.99m2.75-8.81-1.74 1.75 6.04 6.05 1.83-1.81c-.7-.68-1.13-1.63-1.13-2.68a3.75 3.75 0 0 1 3.5-3.74V7h-8.5zm-3.7 1.95 2.45-2.47V6.99h-4.75v4.69l-1.74 1.75 2.66 2.67c.23-.9.69-1.75 1.38-2.47zm-5.05 6.86a4.27 4.27 0 0 1-.05-5.99v.01l3.58 3.58c.13 1.15.62 2.27 1.47 3.17-1.61.84-3.64.58-5-.77" clip-rule="evenodd"/></svg>