<svg xmlns="http://www.w3.org/2000/svg" fill="none" viewBox="0 0 24 24"><path fill="currentColor" fill-rule="evenodd" d="M15.246 2.074c.791.076 1.457.235 2.078.589.624.354 1.097.845 1.556 1.484.443.617.903 1.417 1.477 2.417l.63 1.094c.543.945.978 1.703 1.274 2.358.306.677.489 1.3.489 1.984 0 .682-.183 1.306-.49 1.983-.295.655-.73 1.413-1.274 2.358l-.629 1.095c-.574.999-1.034 1.8-1.477 2.416-.46.64-.932 1.13-1.556 1.484-.621.354-1.287.513-2.078.59-.684.065-1.504.073-2.512.074h-1.082c-1.186 0-2.129 0-2.898-.075-.791-.076-1.457-.235-2.078-.589-.624-.354-1.097-.844-1.556-1.484-.443-.617-.903-1.417-1.477-2.416l-.63-1.095c-.543-.945-.978-1.703-1.274-2.358-.306-.677-.489-1.3-.489-1.983s.183-1.307.49-1.984c.295-.655.73-1.413 1.274-2.358l.629-1.094c.574-1 1.034-1.8 1.477-2.417.46-.64.932-1.13 1.556-1.484.621-.354 1.287-.513 2.078-.59.598-.057 1.301-.07 2.143-.073h2.206c.842.003 1.545.016 2.143.074M11.996 15a1 1 0 1 0 .008 2 1 1 0 0 0-.008-2M12 7a1 1 0 0 0-1 1v4a1 1 0 1 0 2 0V8a1 1 0 0 0-1-1" clip-rule="evenodd"/></svg>