<svg xmlns="http://www.w3.org/2000/svg" fill="none" viewBox="0 0 24 24"><path fill="currentColor" fill-rule="evenodd" d="M17.312 1.93c-1.343-.18-3.064-.18-5.255-.18h-.114c-2.19 0-3.912 0-5.255.18-1.377.186-2.469.573-3.327 1.43-.858.86-1.245 1.951-1.43 3.328-.181 1.343-.181 3.064-.181 5.255v.114c0 2.19 0 3.912.18 5.255.186 1.377.573 2.469 1.43 3.327.86.858 1.951 1.245 3.328 1.43 1.343.181 3.064.181 5.255.181h.114c2.19 0 3.912 0 5.255-.18 1.377-.186 2.469-.573 3.327-1.43.858-.86 1.245-1.951 1.43-3.328.181-1.343.181-3.064.181-5.255v-.114c0-2.19 0-3.912-.18-5.255-.186-1.377-.573-2.469-1.43-3.327-.86-.858-1.951-1.245-3.328-1.43m-.755 7.568A.75.75 0 0 0 15.25 10v1h-6.5v-1a.75.75 0 0 0-1.307-.502c-.056.062-.174.17-.367.344l-.042.037c-.17.152-.37.333-.563.52-.207.2-.426.428-.599.66-.146.195-.372.538-.372.941s.226.746.372.942c.173.231.392.46.599.66.192.186.394.367.563.519l.042.037c.193.174.311.282.367.344A.75.75 0 0 0 8.75 14v-1h6.5v1a.75.75 0 0 0 1.307.501c.056-.06.174-.17.367-.343l.042-.037c.17-.152.37-.333.563-.52.207-.2.426-.428.599-.66.146-.195.372-.538.372-.941s-.226-.746-.372-.942a6 6 0 0 0-.599-.66 20 20 0 0 0-.563-.519l-.042-.037a6 6 0 0 1-.367-.344" clip-rule="evenodd"/></svg>