<svg xmlns="http://www.w3.org/2000/svg" fill="none" viewBox="0 0 24 24"><path fill="currentColor" fill-rule="evenodd" d="M17.312 1.93c-1.343-.18-3.064-.18-5.255-.18h-.114c-2.19 0-3.912 0-5.255.18-1.377.186-2.469.573-3.327 1.43-.858.86-1.245 1.951-1.43 3.328-.181 1.343-.181 3.064-.181 5.255v.114c0 2.19 0 3.912.18 5.255.186 1.377.573 2.469 1.43 3.327.86.858 1.951 1.245 3.328 1.43 1.343.181 3.064.181 5.255.181h.114c2.19 0 3.912 0 5.255-.18 1.377-.186 2.469-.573 3.327-1.43.858-.86 1.245-1.951 1.43-3.328.181-1.343.181-3.064.181-5.255v-.114c0-2.19 0-3.912-.18-5.255-.186-1.377-.573-2.469-1.43-3.327-.86-.858-1.951-1.245-3.328-1.43M7.566 13.474a.75.75 0 0 0-.178 1.045l1.34 1.892c.125.175.26.367.386.5.064.068.187.19.364.267a.85.85 0 0 0 .777-.044.92.92 0 0 0 .395-.48c.051-.136.07-.272.08-.373.02-.192.02-.442.02-.701V7.5a.75.75 0 0 0-1.5 0v5.834H8a.75.75 0 0 0-.434.139M14 17.25a.75.75 0 0 0 .75-.75v-5.834H16a.75.75 0 0 0 .612-1.184l-1.34-1.892h-.001c-.124-.175-.26-.367-.385-.5a1.1 1.1 0 0 0-.364-.267.85.85 0 0 0-.777.044.92.92 0 0 0-.395.48c-.051.136-.07.272-.08.373-.02.192-.02.442-.02.701V16.5c0 .414.336.75.75.75" clip-rule="evenodd"/></svg>