<svg xmlns="http://www.w3.org/2000/svg" fill="none" viewBox="0 0 24 24"><path fill="currentColor" fill-rule="evenodd" d="M11 3.25a3.5 3.5 0 0 0-3.5 3.5v1.56c1.118-.04 2.265-.06 3.5-.06s2.382.02 3.5.06V6.75a3.5 3.5 0 0 0-3.5-3.5m5.5 5.277V6.75a5.5 5.5 0 1 0-11 0v1.777a4.3 4.3 0 0 0-2.975 3.528c-.149 1.1-.275 2.257-.275 3.445s.126 2.344.275 3.445c.271 2.017 1.942 3.61 4 3.705 1.429.066 2.88.1 4.475.1h.039c.214 0 .339-.157.291-.366l-.016-.07c-.187-.811.035-1.7.668-2.332l1.308-1.308c.2-.2.3-.3.3-.424s-.1-.224-.3-.424l-1.308-1.308a2.5 2.5 0 1 1 3.536-3.535l1.308 1.307c.2.2.3.3.424.3s.224-.1.424-.3l1.308-1.308q.107-.105.221-.197c.175-.138.263-.207.293-.28s.018-.165-.007-.347l-.014-.103A4.3 4.3 0 0 0 16.5 8.527m4.957 5.516a1 1 0 0 1 0 1.414l-2.793 2.793 2.793 2.793a1 1 0 0 1-1.414 1.414l-2.793-2.793-2.793 2.793a1 1 0 1 1-1.414-1.415l2.793-2.792-2.793-2.792a1 1 0 0 1 1.414-1.415l2.793 2.793 2.793-2.793a1 1 0 0 1 1.414 0" clip-rule="evenodd"/></svg>