<svg xmlns="http://www.w3.org/2000/svg" fill="none" viewBox="0 0 24 24"><path fill="currentColor" fill-rule="evenodd" d="M17.312 1.93c-1.343-.18-3.064-.18-5.255-.18h-.114c-2.19 0-3.912 0-5.255.18-1.377.186-2.469.573-3.327 1.43-.858.86-1.245 1.951-1.43 3.328-.181 1.343-.181 3.064-.181 5.255v.114c0 2.19 0 3.912.18 5.255.186 1.377.573 2.469 1.43 3.327.86.858 1.951 1.245 3.328 1.43 1.343.181 3.064.181 5.255.181h.114c2.19 0 3.912 0 5.255-.18 1.377-.186 2.469-.573 3.327-1.43.858-.86 1.245-1.951 1.43-3.328.181-1.343.181-3.064.181-5.255v-.114c0-2.19 0-3.912-.18-5.255-.186-1.377-.573-2.469-1.43-3.327-.86-.858-1.951-1.245-3.328-1.43M14.3 6.877a.75.75 0 0 0-1.061 0L9.113 11l-.883-.883a.75.75 0 0 0-1.27.404l-.39 2.286a5 5 0 0 0-.08.625c-.004.094-.003.267.068.447.09.228.284.44.58.518.26.069.483.002.62-.06a1.5 1.5 0 0 0 .32-.207c.15-.122.326-.298.51-.482L14.3 7.937a.75.75 0 0 0 0-1.061m1.878 7.22a.75.75 0 0 0 .865-.613l.39-2.286c.036-.211.076-.443.081-.625a1.1 1.1 0 0 0-.069-.447.85.85 0 0 0-.58-.518.92.92 0 0 0-.62.06c-.131.06-.24.142-.32.207-.15.122-.326.298-.51.482l-5.712 5.712a.75.75 0 0 0 1.061 1.061l4.126-4.126.883.884a.75.75 0 0 0 .405.21" clip-rule="evenodd"/></svg>