<svg xmlns="http://www.w3.org/2000/svg" fill="none" viewBox="0 0 24 24"><path fill="currentColor" fill-rule="evenodd" d="M15.4 2.25h1.2c1.01 0 1.83 0 2.475.07.664.073 1.257.228 1.746.624.512.415.737.952.837 1.558.092.552.092 1.24.092 2.038v10.92c0 .797 0 1.486-.091 2.038-.101.606-.326 1.143-.838 1.558-.489.396-1.082.551-1.746.624-.646.07-1.465.07-2.475.07h-1.2c-1.01 0-1.83 0-2.475-.07-.664-.073-1.257-.228-1.746-.624-.512-.415-.737-.952-.838-1.558-.091-.552-.091-1.24-.091-2.038a.21.21 0 0 1 .21-.21h2.04a.75.75 0 0 0 0-1.5h-1.65c-.283 0-.424 0-.512-.088s-.088-.23-.088-.512v-1.8c0-.283 0-.424.088-.512s.23-.088.512-.088h1.65a.75.75 0 0 0 0-1.5h-1.65c-.283 0-.424 0-.512-.088s-.088-.23-.088-.512v-1.8c0-.283 0-.424.088-.512s.23-.088.512-.088h1.65a.75.75 0 0 0 0-1.5h-2.1a.15.15 0 0 1-.15-.15v-.06c0-.797 0-1.486.091-2.038.101-.606.326-1.143.838-1.558.489-.396 1.082-.551 1.746-.624.646-.07 1.465-.07 2.475-.07m-11.6.044c.325-.044.722-.044 1.155-.044h.09c.433 0 .83 0 1.154.044.359.05.735.165 1.044.48.306.313.417.69.464 1.05.043.327.043.73.043 1.173v1.418c0 .079 0 .118-.019.158-.018.04-.043.061-.092.103-.677.574-2.092.574-2.639.574s-1.962 0-2.639-.574c-.05-.042-.074-.063-.092-.103s-.019-.08-.019-.158V4.997c0-.443 0-.846.043-1.174.047-.358.158-.736.464-1.049.309-.315.685-.43 1.044-.48m3.868 6.038c.082.06.082.197.082.472v7.154c0 .84 0 1.354-.087 1.857a6 6 0 0 1-.396 1.336c-.201.468-.481.897-.938 1.596l-.053.08c-.097.15-.196.3-.289.419a1.3 1.3 0 0 1-.495.402c-.314.136-.67.136-.984 0a1.3 1.3 0 0 1-.495-.402c-.093-.119-.192-.27-.29-.419l-.052-.08c-.457-.7-.737-1.128-.938-1.596a6 6 0 0 1-.396-1.336c-.087-.503-.087-1.016-.087-1.857V8.804c0-.275 0-.412.082-.472.083-.06.22-.015.496.074A7.3 7.3 0 0 0 5 8.75a7.3 7.3 0 0 0 2.172-.344c.276-.089.413-.134.496-.074" clip-rule="evenodd"/></svg>