<svg xmlns="http://www.w3.org/2000/svg" fill="none" viewBox="0 0 24 24"><path fill="currentColor" fill-rule="evenodd" d="M14.726 1.372c-.771-.1-1.749-.104-2.956-.107L7.244 1.25c-1.207-.003-2.185-.006-2.955.09-.8.1-1.488.318-2.04.844-.558.53-.794 1.2-.902 1.978-.102.74-.1 1.678-.096 2.82l.019 6.006c.003 1.143.006 2.08.113 2.82.112.779.352 1.448.91 1.98.552.525 1.24.747 2.04.852.77.1 1.748.103 2.955.107h.202c.21.768.405 1.428.63 1.958.297.696.7 1.299 1.394 1.683.687.38 1.416.412 2.176.313.72-.095 1.596-.327 2.643-.605l2.44-.646.061-.017c.303-.08.59-.155.855-.294.266-.14.49-.333.725-.536l.048-.041 2.7-2.32c.336-.29.642-.551.875-.797.255-.269.484-.578.612-.982.129-.407.117-.791.06-1.157-.053-.33-.157-.712-.269-1.127l-1.456-5.378c-.272-1.005-.503-1.855-.78-2.508-.297-.696-.7-1.299-1.394-1.683a2.9 2.9 0 0 0-1.125-.343c-.109-.808-.348-1.5-.92-2.044-.552-.526-1.24-.747-2.04-.852m-.3 5.43c1.126-.299 1.88-.497 2.46-.573.557-.073.808-.011.983.086.169.094.34.26.546.743.219.514.415 1.231.71 2.32l1.386 5.117c-.71-.219-1.646-.345-2.543.068-.662.305-1.061.992-1.303 1.513-.27.581-.48 1.262-.638 1.883a22 22 0 0 0-.352 1.677l-.017.096-1.76.466c-1.126.299-1.88.497-2.46.573-.556.073-.808.011-.983-.086-.169-.093-.34-.26-.546-.743-.218-.514-.415-1.231-.71-2.32l-1.421-5.248c-.295-1.089-.487-1.807-.557-2.36-.066-.52-.001-.745.095-.905.1-.166.283-.343.802-.555.54-.221 1.293-.423 2.42-.721zm5.804 9.659.012.005-.378.327-1.962 1.686.01-.04c.145-.57.318-1.118.515-1.54.186-.4.322-.533.35-.562l.005-.005c.351-.162.864-.107 1.448.129" clip-rule="evenodd"/></svg>