<svg xmlns="http://www.w3.org/2000/svg" fill="none" viewBox="0 0 24 24"><path fill="currentColor" fill-rule="evenodd" d="M17.38 2.4c-1.12-.15-2.56-.15-4.33-.15h-2.1c-1.77 0-3.21 0-4.33.15-1.17.16-2.16.5-2.94 1.28S2.56 5.45 2.4 6.62c-.15 1.12-.15 2.56-.15 4.33v2.1c0 1.77 0 3.21.15 4.33.16 1.17.5 2.16 1.28 2.94s1.77 1.12 2.94 1.28c1.12.15 2.56.15 4.33.15h1.52c.66 0 1.25 0 1.79-.22.54-.23.96-.64 1.43-1.11l4.73-4.73c.47-.47.88-.89 1.11-1.43.22-.54.22-1.13.22-1.79v-1.52c0-1.77 0-3.21-.15-4.33-.16-1.17-.5-2.16-1.28-2.94s-1.77-1.12-2.94-1.28M14.4 18.94c-.62.62-.75.73-.88.79v-2.21c0-1.89 0-2.83.58-3.42.59-.58 1.53-.58 3.42-.58h2.21c-.06.13-.17.26-.79.88z" clip-rule="evenodd"/></svg>