<svg xmlns="http://www.w3.org/2000/svg" fill="none" viewBox="0 0 24 24"><path fill="currentColor" d="M12.044 3.25c1.602 0 2.865 0 3.869.106 1.027.108 1.87.334 2.598.843a5.3 5.3 0 0 1 1.29 1.29c.51.728.735 1.571.843 2.598.106 1.004.106 2.267.106 3.87v.087c0 1.602 0 2.865-.106 3.869-.108 1.027-.334 1.87-.843 2.598a5.3 5.3 0 0 1-1.29 1.29c-.728.51-1.571.735-2.598.843-1.004.106-2.267.106-3.87.106h-.087c-1.602 0-2.865 0-3.869-.106-1.027-.108-1.87-.334-2.598-.843a5.3 5.3 0 0 1-1.29-1.29c-.51-.728-.735-1.571-.843-2.598-.106-1.004-.106-2.267-.106-3.87v-.087c0-1.602 0-2.865.106-3.869.108-1.027.334-1.87.843-2.598a5.3 5.3 0 0 1 1.29-1.29c.728-.51 1.571-.735 2.598-.843 1.004-.106 2.267-.106 3.87-.106z"/></svg>