<svg xmlns="http://www.w3.org/2000/svg" fill="none" viewBox="0 0 24 24"><path fill="currentColor" fill-rule="evenodd" d="M17.466 1.75H6.533c-.635 0-1.177 0-1.62.052-.474.056-.911.18-1.307.474-.393.294-.64.68-.837 1.12-.187.415-.357.944-.559 1.57l-.012.04-.684 2.124-.015.046c-.176.546-.317.984-.214 1.646.043.275.098.5.19.708.088.197.196.347.28.462l.012.017q.11.152.233.296v5.016c0 1.354 0 2.47.119 3.354.124.928.396 1.747 1.053 2.403.656.657 1.475.928 2.403 1.053.884.12 2 .119 3.354.119h6.142c1.354 0 2.47 0 3.354-.119.928-.125 1.747-.396 2.403-1.053.657-.656.928-1.475 1.053-2.403.12-.884.119-2 .119-3.354v-5.017a5 5 0 0 0 .232-.295l.013-.017c.083-.115.192-.265.279-.462a2.8 2.8 0 0 0 .19-.708c.104-.662-.038-1.1-.214-1.646l-.015-.046-.696-2.164c-.202-.626-.372-1.155-.559-1.57-.197-.44-.443-.826-.837-1.12-.396-.295-.833-.418-1.307-.474-.443-.052-.985-.052-1.62-.052M20 11.761a5.65 5.65 0 0 1-2.246.489 4.78 4.78 0 0 1-2.877-.958 4.77 4.77 0 0 1-2.878.958 4.78 4.78 0 0 1-2.877-.957c-.8.6-1.797.957-2.877.957A5.65 5.65 0 0 1 4 11.761v3.489c0 1.442.002 2.424.1 3.159.096.706.263 1.033.486 1.255.222.223.55.39 1.255.485.735.099 1.717.101 3.159.101h6c1.442 0 2.424-.002 3.159-.1.706-.096 1.033-.263 1.255-.486.223-.222.39-.55.485-1.255.099-.735.101-1.716.101-3.159zM8.252 16.086a1 1 0 0 1 1.412-.084c.466.414 1.302.748 2.336.748s1.87-.334 2.336-.748a1 1 0 0 1 1.328 1.496c-.902.8-2.244 1.252-3.664 1.252s-2.761-.451-3.664-1.252a1 1 0 0 1-.084-1.412" clip-rule="evenodd"/></svg>