<svg xmlns="http://www.w3.org/2000/svg" fill="none" viewBox="0 0 24 24"><path fill="currentColor" fill-rule="evenodd" d="M17.466 1.75c.635 0 1.177 0 1.62.052.474.056.911.18 1.307.474.394.294.64.68.837 1.12.187.415.357.944.559 1.57l.696 2.164.015.046c.176.546.317.984.214 1.646a2.8 2.8 0 0 1-.19.708 2.5 2.5 0 0 1-.28.462l-.012.017q-.11.152-.232.295v5.016c0 1.355 0 2.471-.119 3.355-.125.928-.396 1.747-1.053 2.403-.656.657-1.475.928-2.403 1.053-.884.12-2 .119-3.354.119H8.929c-1.354 0-2.47 0-3.354-.119-.928-.125-1.747-.396-2.403-1.053-.657-.656-.929-1.475-1.053-2.403-.12-.884-.119-2-.119-3.354v-5.016a5 5 0 0 1-.233-.296l-.012-.017a2.5 2.5 0 0 1-.28-.462 2.8 2.8 0 0 1-.19-.708c-.103-.662.038-1.1.214-1.646l.015-.046.684-2.125.012-.039c.202-.626.372-1.155.559-1.57.197-.44.443-.826.837-1.12.396-.295.833-.418 1.307-.474.443-.052.985-.052 1.62-.052zm.288 10.5c.754 0 1.53-.175 2.246-.489v3.489c0 1.442-.002 2.424-.1 3.159-.096.706-.263 1.033-.486 1.255-.222.223-.55.39-1.255.485-.735.099-1.716.101-3.159.101H9c-1.442 0-2.424-.002-3.159-.1-.706-.096-1.033-.263-1.255-.486-.223-.222-.39-.55-.485-1.255C4.002 17.674 4 16.693 4 15.25v-3.489a5.65 5.65 0 0 0 2.245.489c1.08 0 2.076-.356 2.877-.957.8.6 1.797.957 2.877.957s2.077-.356 2.878-.958c.8.601 1.798.958 2.877.958M7 16.5a1 1 0 1 0 0 2h4a1 1 0 1 0 0-2z" clip-rule="evenodd"/></svg>