<svg xmlns="http://www.w3.org/2000/svg" fill="none" viewBox="0 0 24 24"><path fill="currentColor" fill-rule="evenodd" d="M5 1.25c-.637 0-1.199.032-1.677.137-.486.107-.931.3-1.284.652s-.545.798-.652 1.284C1.282 3.801 1.25 4.363 1.25 5s.032 1.199.137 1.677c.107.486.3.931.652 1.284s.798.545 1.284.652c.478.105 1.04.137 1.677.137h2c.637 0 1.199-.032 1.677-.137.468-.103.899-.285 1.245-.614l2.698 8.31q.03.095.078.177a3 3 0 0 0-.31.837c-.106.478-.138 1.04-.138 1.677s.032 1.199.137 1.677c.107.486.3.931.652 1.284s.798.545 1.284.652c.478.105 1.04.137 1.677.137h2c.637 0 1.199-.032 1.677-.137.486-.107.931-.3 1.284-.652s.545-.798.652-1.284c.105-.478.137-1.04.137-1.677s-.032-1.199-.137-1.677c-.107-.486-.3-.931-.652-1.284s-.798-.545-1.284-.652c-.478-.105-1.04-.137-1.677-.137h-2c-.595 0-1.126.028-1.582.118L11.61 6.72l2.692 1.077c-.038.36-.052.762-.052 1.202 0 .635.028 1.189.118 1.657.09.472.254.912.566 1.268.63.72 1.625.825 2.691.825h1.75c1.066 0 2.06-.104 2.691-.825.312-.356.475-.796.566-1.268.09-.468.118-1.022.118-1.657s-.028-1.189-.118-1.657c-.09-.472-.254-.912-.566-1.268-.63-.72-1.625-.825-2.691-.825h-1.75c-1 0-1.934.092-2.568.696L10.73 4.214a6 6 0 0 0-.116-.89c-.107-.487-.3-.932-.652-1.285s-.798-.545-1.284-.652C8.199 1.282 7.637 1.25 7 1.25z" clip-rule="evenodd"/></svg>