<svg xmlns="http://www.w3.org/2000/svg" fill="none" viewBox="0 0 24 24"><path fill="currentColor" fill-rule="evenodd" d="M5.969 3.125a2.85 2.85 0 0 0-2.844 2.857c0 .89.405 1.686 1.043 2.21a5.7 5.7 0 0 1 1.415-.608c.196-.054.294-.081.35-.14.057-.057.082-.155.131-.351a6.25 6.25 0 0 1 1.908-3.139 2.83 2.83 0 0 0-2.003-.829m3.718-.257a4.83 4.83 0 0 0-3.718-1.743 4.85 4.85 0 0 0-4.844 4.857 4.85 4.85 0 0 0 1.523 3.535 5.73 5.73 0 0 0-1.273 3.608c0 1.877.9 3.544 2.291 4.594.342.258.513.387.663.338.149-.05.232-.33.399-.891q.062-.208.161-.409l1-2a2.5 2.5 0 0 1 4.473 0 .016.016 0 0 0 .027 0 2.5 2.5 0 0 1 4.473 0 .016.016 0 0 0 .027 0 2.5 2.5 0 0 1 4.473 2.236l-.387.774c-.233.465-.349.697-.209.85.14.152.364.062.81-.116a5.252 5.252 0 0 0-.709-9.978c-.243-.06-.365-.089-.427-.16-.063-.07-.077-.193-.104-.439a6.25 6.25 0 0 0-8.65-5.056M8.572 14.981a1 1 0 0 1 .448 1.341l-1 2a1 1 0 1 1-1.79-.894l1-2a1 1 0 0 1 1.342-.447m4.5 0a1 1 0 0 1 .448 1.341l-1 2a1 1 0 1 1-1.79-.894l1-2a1 1 0 0 1 1.342-.447m4.5 0a1 1 0 0 1 .448 1.341l-1 2a1 1 0 1 1-1.79-.894l1-2a1 1 0 0 1 1.342-.447m-8 4a1 1 0 0 1 .448 1.341l-1 2a1 1 0 1 1-1.79-.894l1-2a1 1 0 0 1 1.342-.447m4.5 0a1 1 0 0 1 .448 1.341l-1 2a1 1 0 1 1-1.79-.894l1-2a1 1 0 0 1 1.342-.447" clip-rule="evenodd"/></svg>