<svg xmlns="http://www.w3.org/2000/svg" fill="none" viewBox="0 0 24 24"><path fill="currentColor" fill-rule="evenodd" d="M12.662 2.75a1 1 0 1 0-1.324-1.5c-.304.269-.685.755-.802 1.394-.134.725.103 1.488.802 2.105a1 1 0 0 0 1.324-1.498.5.5 0 0 1-.157-.194.1.1 0 0 1-.003-.05.4.4 0 0 1 .058-.134.6.6 0 0 1 .102-.124M6.001 4.561a1 1 0 0 0-1.996-.124c-.026.42.051 1.055.432 1.607.43.625 1.158 1.01 2.125.95A1 1 0 1 0 6.438 5c-.18.011-.263-.02-.29-.033a.15.15 0 0 1-.064-.055.5.5 0 0 1-.066-.164.7.7 0 0 1-.017-.185m13.56-1.057c-.418-.026-1.053.051-1.605.431-.624.43-1.01 1.159-.95 2.124a1 1 0 1 0 1.996-.123c-.01-.18.02-.263.033-.29a.15.15 0 0 1 .055-.064.5.5 0 0 1 .163-.065.7.7 0 0 1 .185-.017 1 1 0 1 0 .124-1.996m3.188 7.833a2.52 2.52 0 0 0-1.393-.802c-.725-.134-1.488.103-2.105.802a1 1 0 1 0 1.498 1.324.5.5 0 0 1 .194-.157.1.1 0 0 1 .05-.003.4.4 0 0 1 .134.058.6.6 0 0 1 .124.102 1 1 0 1 0 1.498-1.324m-20-.5a1 1 0 1 0-1.498 1.324c.617.7 1.38.936 2.105.802a2.52 2.52 0 0 0 1.393-.802 1 1 0 0 0-1.498-1.324.6.6 0 0 1-.124.102.4.4 0 0 1-.133.058.1.1 0 0 1-.05-.003.5.5 0 0 1-.195-.157m3.745 6.6a1 1 0 1 0-1.996.124c.002.04 0 .11-.018.185a.5.5 0 0 1-.065.163.15.15 0 0 1-.063.055c-.028.013-.111.044-.29.033a1 1 0 0 0-.124 1.996c.966.06 1.694-.326 2.124-.95.38-.552.458-1.187.432-1.606m11.564 1.063c.046-.003.12 0 .2.017a.5.5 0 0 1 .173.066c.03.019.038.032.043.043.006.011.034.072.024.225a1 1 0 0 0 1.996.13c.062-.958-.346-1.667-.971-2.074-.549-.357-1.173-.428-1.581-.404a1 1 0 0 0 .116 1.997m-5.396.75a1 1 0 1 0-1.324 1.498.6.6 0 0 1 .102.124.4.4 0 0 1 .058.133.1.1 0 0 1-.003.05.5.5 0 0 1-.157.195 1 1 0 1 0 1.324 1.498c.7-.617.936-1.38.802-2.105a2.52 2.52 0 0 0-.802-1.393M12 17.5a5.5 5.5 0 1 0 0-11 5.5 5.5 0 0 0 0 11" clip-rule="evenodd"/></svg>