<svg xmlns="http://www.w3.org/2000/svg" fill="none" viewBox="0 0 24 24"><path fill="currentColor" fill-rule="evenodd" d="M5.969 4.125a2.85 2.85 0 0 0-2.844 2.857c0 .89.405 1.686 1.043 2.21a5.7 5.7 0 0 1 1.415-.608c.196-.054.294-.081.35-.14.057-.057.082-.155.131-.351a6.25 6.25 0 0 1 1.908-3.139 2.83 2.83 0 0 0-2.003-.829m3.718-.257a4.83 4.83 0 0 0-3.718-1.743 4.85 4.85 0 0 0-4.844 4.857 4.85 4.85 0 0 0 1.523 3.535 5.75 5.75 0 0 0 4.477 9.358h1.962c.104 0 .2-.057.251-.148a.31.31 0 0 0-.102-.4 2.6 2.6 0 0 1-.796-.919c-.607-1.144-.175-2.181-.031-2.488.13-.28.311-.55.4-.686l1.81-2.737a2.5 2.5 0 0 1 4.171 2.757.02.02 0 0 0 .007.028c.363.21.74.54 1.016 1.06.607 1.144.175 2.182.031 2.488a5.5 5.5 0 0 1-.4.686.231.231 0 0 0 .192.359h1.989a5.25 5.25 0 0 0 1.242-10.352c-.243-.06-.365-.089-.427-.16-.063-.07-.077-.193-.104-.439a6.25 6.25 0 0 0-8.65-5.056m3.568 9.173a1 1 0 0 1 .283 1.386l-1.288 1.948h.678c.176 0 .406 0 .598.028.211.032.696.142.961.642.264.497.087.958-.002 1.149-.083.176-.21.368-.307.515l-.023.034-1.774 2.684a1 1 0 0 1-1.668-1.103L12 18.375h-.678c-.176 0-.406 0-.598-.028-.211-.032-.696-.141-.961-.642-.264-.497-.087-.958.002-1.149.083-.176.21-.367.307-.515l1.797-2.717a1 1 0 0 1 1.385-.283" clip-rule="evenodd"/></svg>