<svg xmlns="http://www.w3.org/2000/svg" fill="none" viewBox="0 0 24 24"><path fill="currentColor" fill-rule="evenodd" d="M5.969 3.875a2.85 2.85 0 0 0-2.844 2.857c0 .89.405 1.686 1.043 2.21a5.7 5.7 0 0 1 1.415-.608c.196-.054.294-.081.35-.14.057-.057.082-.155.131-.351a6.25 6.25 0 0 1 1.908-3.139 2.83 2.83 0 0 0-2.003-.829m3.718-.257a4.83 4.83 0 0 0-3.718-1.743 4.85 4.85 0 0 0-4.844 4.857 4.85 4.85 0 0 0 1.523 3.535 5.75 5.75 0 0 0 2.15 8.87c.18.067.329-.088.254-.265-.003-.009-.04-.077-.112-.214-.607-1.144-.175-2.181-.031-2.488.13-.28.311-.55.4-.686l1.788-2.704c.719-1.087 2.272-1.543 3.487-.74a2.5 2.5 0 0 1 .706 3.464.02.02 0 0 0 .007.028c.363.21.74.54 1.016 1.06a.205.205 0 0 0 .229.102 2.5 2.5 0 0 1 1.703.195c.207.104.31.155.381.155.07 0 .175-.051.382-.155a2.5 2.5 0 0 1 2.236 0 2.5 2.5 0 0 1 1.343 1.794c.08.44.12.66.24.73.121.069.278.012.592-.103a5.252 5.252 0 0 0-.552-10.037c-.243-.06-.365-.089-.427-.16-.063-.07-.077-.193-.104-.439a6.25 6.25 0 0 0-8.65-5.056m.351 11.064a1 1 0 0 0-.283-1.385c-.46-.305-1.103-.145-1.407.316l-1.774 2.684c-.098.148-.225.339-.308.515-.09.191-.266.652-.002 1.15.265.5.75.61.96.64.193.03.423.03.599.029H8.5l-1.288 1.948a1 1 0 0 0 1.668 1.103l1.797-2.717c.097-.148.224-.34.307-.515.09-.191.266-.652.002-1.15-.265-.5-.75-.61-.96-.64a4 4 0 0 0-.599-.03H8.75zm3.982 4.896a1 1 0 0 0-1.789-.894l-1 2a1 1 0 0 0 1.789.894zm2.553-1.341a1 1 0 0 1 .447 1.341l-1 2a1 1 0 0 1-1.789-.894l1-2a1 1 0 0 1 1.342-.448" clip-rule="evenodd"/></svg>