<svg xmlns="http://www.w3.org/2000/svg" fill="none" viewBox="0 0 24 24"><path fill="currentColor" fill-rule="evenodd" d="M5.969 3.125a2.85 2.85 0 0 0-2.844 2.857c0 .89.405 1.686 1.043 2.21a5.7 5.7 0 0 1 1.415-.608c.196-.054.294-.081.35-.14.057-.057.082-.155.131-.351a6.25 6.25 0 0 1 1.908-3.139 2.83 2.83 0 0 0-2.003-.829m3.718-.257a4.83 4.83 0 0 0-3.718-1.743 4.85 4.85 0 0 0-4.844 4.857 4.85 4.85 0 0 0 1.523 3.535 5.752 5.752 0 0 0 2.418 8.978c.18.07.272.105.365.08s.166-.112.313-.287q.09-.109.179-.2l1.23-1.126c.193-.176.41-.313.639-.41.381-.161.572-.242.622-.328s.029-.271-.014-.64a3.67 3.67 0 0 1 1.023-2.996l1.229-1.125a2.25 2.25 0 0 1 3.137.102l1.005 1.043a3.67 3.67 0 0 1 1.063 2.962c-.036.373-.054.56-.002.646.053.085.248.162.637.315.293.114.566.293.797.534l1.005 1.043c.086.086.175.19.259.298.133.17.2.257.289.285.09.028.178 0 .354-.055a5.252 5.252 0 0 0-.329-10.113c-.243-.06-.365-.089-.427-.16-.063-.07-.077-.193-.104-.439a6.25 6.25 0 0 0-8.65-5.056m3.022 9.737a.75.75 0 0 0-1.046-.034l-1.167 1.066a2.167 2.167 0 0 0 .042 3.078 2.38 2.38 0 0 0 1.63.66 2.25 2.25 0 0 0 1.548-.604 2.175 2.175 0 0 0 .01-3.11zm-3.5 5.5a.75.75 0 0 0-1.046-.034l-1.167 1.066a2.167 2.167 0 0 0 .042 3.078 2.38 2.38 0 0 0 1.63.66 2.25 2.25 0 0 0 1.548-.604 2.175 2.175 0 0 0 .01-3.11zm5.954-.034a.75.75 0 0 1 1.046.034l1.016 1.056a2.174 2.174 0 0 1-.038 3.136 2.25 2.25 0 0 1-1.519.578 2.38 2.38 0 0 1-1.63-.66 2.167 2.167 0 0 1-.042-3.078z" clip-rule="evenodd"/></svg>