<svg xmlns="http://www.w3.org/2000/svg" fill="none" viewBox="0 0 24 24"><path fill="currentColor" fill-rule="evenodd" d="M5.969 3.125a2.85 2.85 0 0 0-2.844 2.857c0 .89.405 1.686 1.043 2.21a5.7 5.7 0 0 1 1.415-.608c.196-.054.294-.081.35-.14.057-.057.082-.155.131-.351a6.25 6.25 0 0 1 1.908-3.139 2.83 2.83 0 0 0-2.003-.829m3.718-.257a4.83 4.83 0 0 0-3.718-1.743 4.85 4.85 0 0 0-4.844 4.857 4.85 4.85 0 0 0 1.523 3.535 5.75 5.75 0 0 0 2.026 8.81c.141.068.212.101.289.096.076-.004.162-.058.332-.165.251-.158.532-.273.833-.334.217-.043.325-.065.38-.108a.26.26 0 0 0 .086-.105c.031-.062.031-.154.031-.336a2.5 2.5 0 0 1 2.5-2.5c.164 0 .245 0 .288-.013a.27.27 0 0 0 .2-.2c.013-.043.013-.109.013-.241v-.046a2.5 2.5 0 0 1 5 0v.048c0 .13 0 .196.013.238a.27.27 0 0 0 .201.202c.042.012.123.012.285.012a2.5 2.5 0 0 1 2.5 2.5c0 .182 0 .273.03.336a.26.26 0 0 0 .087.105c.055.043.163.065.38.108.352.071.677.216.959.418.168.12.252.181.33.19.08.008.152-.024.3-.087a5.251 5.251 0 0 0-.844-9.922c-.243-.06-.365-.089-.427-.16-.063-.07-.077-.193-.104-.439a6.25 6.25 0 0 0-8.65-5.056m2.44 10.507a1 1 0 0 1 1 1v1.5a1 1 0 1 1-2 0v-1.5a1 1 0 0 1 1-1m-3.002 3a1 1 0 0 1 1 1v1.5a1 1 0 1 1-2 0v-1.5a1 1 0 0 1 1-1m6 0a1 1 0 0 1 1 1v1.5a1 1 0 1 1-2 0v-1.5a1 1 0 0 1 1-1m-8.5 3a1 1 0 0 1 1 1v1.5a1 1 0 1 1-2 0v-1.5a1 1 0 0 1 1-1m5.5 0a1 1 0 0 1 1 1v1.5a1 1 0 1 1-2 0v-1.5a1 1 0 0 1 1-1m5.5 0a1 1 0 0 1 1 1v1.5a1 1 0 1 1-2 0v-1.5a1 1 0 0 1 1-1" clip-rule="evenodd"/></svg>