<svg xmlns="http://www.w3.org/2000/svg" fill="none" viewBox="0 0 24 24"><path fill="currentColor" fill-rule="evenodd" d="M20.801 1.266c-1.436-.096-3.435.238-5.465.988-2.043.755-4.204 1.961-5.93 3.687-3.075 3.075-5.968 7.698-7.68 10.639-.09.156-.188.324-.254.451a2 2 0 0 0-.19.52 1.84 1.84 0 0 0 1.19 2.071c.204.073.402.09.55.098.145.007.34.007.526.007.202 0 .322 0 .412.005.103-.004.308.052.308.308.004.09.005.21.005.412 0 .185 0 .381.007.526.008.147.025.346.098.55a1.84 1.84 0 0 0 2.07 1.19c.211-.04.39-.123.521-.19.127-.066.295-.163.451-.254 2.94-1.712 7.564-4.605 10.64-7.68 1.725-1.726 2.931-3.887 3.686-5.93.75-2.03 1.084-4.03.988-5.465l-.002-.033a2.8 2.8 0 0 0-.09-.605 1.7 1.7 0 0 0-.455-.748 1.7 1.7 0 0 0-.748-.454 2.8 2.8 0 0 0-.605-.09zM10.79 7.323c1.48-1.48 3.379-2.554 5.224-3.235 1.858-.686 3.575-.944 4.658-.872.035-.012.107-.007.113.114.073 1.083-.185 2.8-.871 4.657q-.107.29-.227.58a4.6 4.6 0 0 1-2.16 1.44c-1.098.348-2.343.35-3.746.277q-.394-.022-.805-.048c-1.53-.097-3.214-.203-4.85.175.858-1.12 1.756-2.18 2.664-3.088M8.53 16.53a.75.75 0 1 0-1.06-1.06l-1 1a.75.75 0 1 0 1.06 1.06z" clip-rule="evenodd"/></svg>