<svg xmlns="http://www.w3.org/2000/svg" fill="none" viewBox="0 0 24 24"><path fill="currentColor" fill-rule="evenodd" d="M22.23 2.669a.75.75 0 0 0-.899-.9l-4.365 1.008a2.75 2.75 0 0 0-1.481.904L7.477 13.82l-.74-.74a2.83 2.83 0 0 0-2.003-.829h-.54a.944.944 0 1 0 0 1.889h.54c.25 0 .491.1.668.277L6.786 15.8l-2.812 2.813a3.4 3.4 0 0 0-1.078-.352 1 1 0 0 0-.292 1.98 1.37 1.37 0 0 1 1.157 1.156 1 1 0 0 0 1.978-.292 3.4 3.4 0 0 0-.351-1.078L8.2 17.214l1.384 1.384a.94.94 0 0 1 .277.668v.54a.944.944 0 0 0 1.889 0v-.54c0-.752-.299-1.472-.83-2.004l-.74-.739 10.14-8.008.026-.021c.44-.382.748-.893.879-1.46z" clip-rule="evenodd"/></svg>