<svg xmlns="http://www.w3.org/2000/svg" fill="none" viewBox="0 0 24 24"><path fill="currentColor" fill-rule="evenodd" d="M11.12 2.25h2.135c2.052 0 3.69 0 4.975.169 1.325.174 2.42.545 3.29 1.395.588.576.959 1.262 1.191 2.066a.978.978 0 0 1-1.878.54c-.156-.54-.375-.913-.682-1.214-.444-.434-1.062-.707-2.177-.854-1.142-.15-2.65-.152-4.79-.152h-1.992c-1.18 0-2.168 0-3.009.026-.434.014-.65.02-.792.166-.141.145-.141.368-.141.813v13.59c0 .445 0 .668.141.813.141.146.358.152.792.166.84.025 1.829.026 3.008.026h1.993c2.14 0 3.648-.002 4.79-.152 1.115-.147 1.733-.42 2.177-.854.307-.3.526-.674.683-1.214a.978.978 0 0 1 1.877.54c-.232.803-.603 1.49-1.191 2.066-.87.85-1.965 1.22-3.29 1.395-1.285.169-2.923.169-4.975.169H11.12c-2.052 0-3.69 0-4.974-.169-1.326-.174-2.421-.545-3.29-1.395-.872-.853-1.253-1.933-1.433-3.24-.173-1.26-.173-2.867-.173-4.873v-.146c0-2.006 0-3.613.173-4.874.18-1.306.561-2.386 1.433-3.239.869-.85 1.964-1.22 3.29-1.395C7.43 2.25 9.068 2.25 11.12 2.25M16.75 8a7.98 7.98 0 0 0-5.714 2.415 1 1 0 0 0 1.428 1.4A5.98 5.98 0 0 1 16.75 10c1.67 0 3.184.69 4.286 1.814a1 1 0 0 0 1.428-1.4A7.98 7.98 0 0 0 16.75 8m0 3.61c-1.26 0-2.396.522-3.214 1.357a1 1 0 0 0 1.428 1.4 2.5 2.5 0 0 1 1.786-.758 2.5 2.5 0 0 1 1.786.757 1 1 0 0 0 1.428-1.4 4.5 4.5 0 0 0-3.214-1.356M16.742 15a1 1 0 0 0 0 2h.008a1 1 0 1 0 0-2z" clip-rule="evenodd"/></svg>