<svg xmlns="http://www.w3.org/2000/svg" fill="none" viewBox="0 0 24 24"><path fill="currentColor" fill-rule="evenodd" d="M4.638 7.007c-1.124.548-1.45 1.13-1.45 1.493 0 .318.25.805 1.072 1.29.061-.613.414-1.104.825-1.453.452-.384 1.045-.665 1.682-.849l.056-.015c.311-.09.664-.192.987-.217.419-.032.83.057 1.215.35.42.32.594.744.666 1.158.06.342.06.754.06 1.157v.919c1.441-.084 2.7-.403 3.61-.847 1.125-.548 1.451-1.13 1.451-1.493 0-.362-.326-.945-1.45-1.493-1.066-.52-2.607-.868-4.362-.868s-3.296.349-4.362.868m-3.34 1.997A2.6 2.6 0 0 1 1.25 8.5c0-1.463 1.192-2.534 2.522-3.182C5.16 4.64 7.01 4.25 9 4.25s3.84.391 5.228 1.068c1.33.648 2.522 1.719 2.522 3.182 0 1.176-.77 2.099-1.763 2.752h5.058c.433 0 .83 0 1.152.043.356.048.731.16 1.04.47s.422.684.47 1.04c.043.323.043.72.043 1.152v3.09c0 .433 0 .83-.043 1.152-.048.356-.16.731-.47 1.04s-.684.422-1.04.47c-.323.043-.72.043-1.152.043h-.895c-.189 0-.283 0-.341-.059s-.059-.152-.059-.341V17a.75.75 0 0 0-1.5 0v2.352c0 .189 0 .283-.059.341s-.152.059-.341.059h-1.7c-.189 0-.283 0-.341-.059s-.059-.152-.059-.341V17a.75.75 0 0 0-1.5 0v2.352c0 .189 0 .283-.059.341s-.152.059-.341.059h-1.7c-.189 0-.283 0-.341-.059s-.059-.152-.059-.341V17a.75.75 0 0 0-1.5 0v2.502c0 .046 0 .07-.004.089a.2.2 0 0 1-.157.157c-.02.004-.043.004-.089.004a15 15 0 0 1-1.91-.12c-.16-.02-.24-.03-.29-.087s-.05-.139-.05-.303V16.5a.75.75 0 0 0-1.5 0v2.237c0 .245 0 .367-.083.426-.083.06-.196.023-.421-.053a9 9 0 0 1-1.018-.407c-1.332-.634-2.478-1.657-2.478-3.034v-.006zm5.356 1.469c.241.121.54.227.883.305q.187.021.38.038V9.98c0-.474-.003-.722-.03-.888q-.06.01-.168.035c-.12.03-.259.07-.444.123-.47.136-.805.316-1.002.484a.7.7 0 0 0-.17.19c-.02.038-.02.054-.02.056s0 .012.008.03c.008.02.026.055.067.103.084.101.241.23.496.36" clip-rule="evenodd"/></svg>