<svg xmlns="http://www.w3.org/2000/svg" fill="none" viewBox="0 0 24 24"><path fill="currentColor" fill-rule="evenodd" d="M3.055 11A9.004 9.004 0 0 1 11 3.055V4a1 1 0 1 0 2 0v-.945A9.004 9.004 0 0 1 20.945 11H20a1 1 0 1 0 0 2h.945A9.004 9.004 0 0 1 13 20.945V20a1 1 0 1 0-2 0v.945A9.004 9.004 0 0 1 3.055 13H4a1 1 0 1 0 0-2zM12 23c6.075 0 11-4.925 11-11S18.075 1 12 1 1 5.925 1 12s4.925 11 11 11m1-15a1 1 0 1 0-2 0v.14a3.2 3.2 0 0 0-1.014.5C9.434 9.052 9 9.7 9 10.5s.434 1.447.986 1.86c.55.414 1.266.64 2.014.64.357 0 .641.11.814.24.173.129.186.231.186.26s-.013.131-.186.26c-.173.13-.457.24-.814.24-.6 0-.917-.289-.982-.426a1 1 0 0 0-1.809.852c.341.724 1.02 1.21 1.791 1.432V16a1 1 0 1 0 2 0v-.14a3.2 3.2 0 0 0 1.014-.5c.552-.413.986-1.06.986-1.86s-.434-1.447-.986-1.86c-.55-.414-1.266-.64-2.014-.64-.357 0-.641-.11-.814-.24-.173-.129-.186-.231-.186-.26s.013-.131.186-.26c.173-.13.457-.24.814-.24.6 0 .917.289.982.426a1 1 0 0 0 1.809-.852C14.45 8.85 13.77 8.364 13 8.14z" clip-rule="evenodd"/></svg>