<svg xmlns="http://www.w3.org/2000/svg" fill="none" viewBox="0 0 24 24"><path fill="currentColor" fill-rule="evenodd" d="M13.826 1.23c.09.102.07.257.032.566l-.058.465c-.101.608-.168.998-.253 1.285-.08.268-.151.353-.208.401s-.152.105-.43.14c-.3.037-.7.038-1.325.038H9.666c-.626 0-1.026-.001-1.325-.039-.278-.034-.373-.09-.43-.139-.057-.048-.128-.133-.208-.401-.085-.286-.152-.676-.253-1.283l-.055-.47c-.036-.309-.054-.463.035-.563s.243-.101.551-.103q.516-.002 1.086-.002h3.117q.57 0 1.088.002c.31.002.465.002.554.104m-8.092.059c.1.077.116.214.148.49l.08.682.005.029c.092.552.184 1.107.298 1.49.125.418.313.81.676 1.117.363.308.78.43 1.214.483.403.05.898.05 1.467.05h2.006c.569 0 1.063 0 1.466-.05.434-.054.851-.175 1.214-.483.363-.307.552-.699.676-1.118.115-.384.207-.937.3-1.491l.003-.022.085-.69c.034-.274.05-.41.15-.487s.23-.06.493-.024l.055.008c1.044.148 1.9.461 2.574 1.17.668.704.959 1.589 1.097 2.668.134 1.051.134 2.393.134 4.085v4.65c0 .123 0 .185-.023.24s-.066.098-.153.185l-.65.65c-.2.2-.3.3-.424.3s-.224-.1-.424-.3l-.808-.808a2.5 2.5 0 0 0-3.536 3.535l.808.808c.2.2.3.3.3.425 0 .124-.1.224-.3.424l-.808.808a2.5 2.5 0 0 0-.722 1.992c.02.22.03.33-.06.427-.088.098-.168.098-.326.098H9.067c-1.6 0-2.882 0-3.888-.142-1.043-.147-1.9-.461-2.573-1.17-.668-.703-.959-1.588-1.097-2.668-.134-1.05-.134-2.393-.134-4.084v-5.37c0-1.692 0-3.034.134-4.085.138-1.08.43-1.964 1.097-2.668.674-.709 1.53-1.022 2.573-1.17l.06-.008c.264-.036.396-.054.495.024m.891 8.836a.75.75 0 0 0 0 1.5h8a.75.75 0 0 0 0-1.5zm0 5a.75.75 0 0 0 0 1.5h4a.75.75 0 0 0 0-1.5zm9.707.043a1 1 0 0 0-1.414 1.414l2.293 2.293-2.293 2.293a1 1 0 0 0 1.414 1.414l2.293-2.293 2.293 2.293a1 1 0 0 0 1.414-1.414l-2.293-2.293 2.293-2.293a1 1 0 0 0-1.414-1.414l-2.293 2.293z" clip-rule="evenodd"/></svg>