<svg xmlns="http://www.w3.org/2000/svg" fill="none" viewBox="0 0 24 24"><path fill="currentColor" fill-rule="evenodd" d="M5.11 22.751H3.39c-.267 0-.492-.1-.723-.203l-.045-.02c-.381-.17-.622-.516-.622-.895v-.866c0-.255 0-.382.07-.442s.212-.037.496.009l.1.014 3.117.39q.157.018.317.018c.19 0 .284.001.342.06s.058.15.058.335v.482c0 .38-.24.725-.622.895l-.045.02c-.231.103-.456.203-.724.203m13.78 0h1.72c.267 0 .492-.1.723-.203l.045-.02c.381-.17.622-.516.622-.895v-.866c0-.255 0-.382-.07-.442s-.212-.037-.496.009l-.1.014-3.117.39q-.157.018-.317.018c-.19 0-.284.001-.342.06s-.058.15-.058.335v.482c0 .38.24.725.622.895l.045.02c.231.103.456.203.724.203M14.46 1.307c.366.07.699.23.971.56.245.295.381.655.486 1.032.101.365.194.831.307 1.396.483.05.951.157 1.385.433.44.28.719.651.935 1.062.198.374.375.843.573 1.367l.53 1.402.906-.453a1 1 0 1 1 .894 1.789l-.99.495c.394.385.852.845 1.24 1.335.54.682 1.053 1.554 1.053 2.552v3.278c0 .881-.627 1.685-1.54 1.8l-3.117.39a1 1 0 0 1-.093.005H6a1 1 0 0 1-.093-.006l-3.117-.39c-.913-.114-1.54-.918-1.54-1.799v-3.278c0-.998.513-1.87 1.053-2.552.388-.49.846-.95 1.24-1.336l-.99-.494a1 1 0 0 1 .894-1.79l.906.454.512-1.355.018-.047c.198-.524.375-.993.573-1.367.216-.41.494-.782.935-1.062.434-.276.902-.384 1.385-.433.113-.565.206-1.03.307-1.396.105-.377.24-.737.486-1.032.272-.33.605-.49.971-.56a4 4 0 0 1 .728-.056l3.21-.001c.336 0 .685 0 .982.056M13.39 16h-2.78c-.711.005-1.113.039-1.435.257-.296.2-.472.52-.707 1.08-.103.246-.155.37-.095.459.05.076.157.087.356.089h6.435c.27 0 .405 0 .464-.09.06-.089.008-.212-.095-.458-.235-.56-.412-.88-.707-1.08-.323-.218-.724-.252-1.436-.257M2.33 13.165a.75.75 0 0 0 .335 1.006l1.5.75a.75.75 0 0 0 .67-1.342l-1.5-.75a.75.75 0 0 0-1.006.336m18.488-.392-1.5.375a.75.75 0 1 0 .364 1.455l1.5-.375a.75.75 0 0 0-.364-1.455m-6.055-6.656H9.237c-.57 0-.957.005-1.259.035-.319.032-.443.086-.517.133-.068.043-.15.115-.274.35-.138.26-.276.621-.498 1.207L5.968 9.75h12.064l-.721-1.908c-.222-.586-.36-.947-.497-1.207-.124-.235-.207-.307-.275-.35-.074-.047-.198-.101-.517-.133-.34-.034-.786-.035-1.482-.035z" clip-rule="evenodd"/></svg>