<svg xmlns="http://www.w3.org/2000/svg" fill="none" viewBox="0 0 24 24"><path fill="currentColor" fill-rule="evenodd" d="M1.25 12C1.25 6.063 6.063 1.25 12 1.25S22.75 6.063 22.75 12 17.937 22.75 12 22.75 1.25 17.937 1.25 12m1.954 0c0-2.082.723-3.995 1.932-5.501a.192.192 0 0 1 .305.006A9.2 9.2 0 0 1 7.25 12a9.2 9.2 0 0 1-1.809 5.495.192.192 0 0 1-.305.006A8.76 8.76 0 0 1 3.204 12m17.591 0a8.76 8.76 0 0 1-1.932 5.501.192.192 0 0 1-.305-.006A9.2 9.2 0 0 1 16.75 12c0-2.058.671-3.958 1.808-5.495a.192.192 0 0 1 .305-.006A8.76 8.76 0 0 1 20.795 12" clip-rule="evenodd"/></svg>