<svg xmlns="http://www.w3.org/2000/svg" fill="none" viewBox="0 0 24 24"><path fill="currentColor" fill-rule="evenodd" d="M4.513 4.287c1.08-.11 2.352-.22 3.487-.265V20H6a1 1 0 1 0 0 2h6a1 1 0 0 0 0-2h-2V4.022c1.135.045 2.406.155 3.487.265.66.067.789.09.89.131.27.11.501.366.583.646.03.104.04.244.04.936a1 1 0 1 0 2 0v-.11c0-.518.001-.971-.12-1.388a3.04 3.04 0 0 0-1.749-1.936c-.402-.164-.84-.208-1.338-.258l-.103-.01C12.266 2.151 10.441 2 9 2c-1.44 0-3.265.152-4.69.297l-.103.01c-.498.051-.936.095-1.338.26A3.04 3.04 0 0 0 1.12 4.501c-.122.417-.122.87-.12 1.388V6a1 1 0 0 0 2 0c0-.692.009-.832.04-.936.081-.28.312-.536.582-.646.102-.04.23-.064.89-.131M20.75 7a1 1 0 1 0-2 0v1.286l-.838-.379a1 1 0 1 0-.824 1.822l1.053.477-.96 1.155a1 1 0 0 0 1.538 1.278l1.03-1.24 1.033 1.24a1 1 0 1 0 1.537-1.278l-.96-1.155 1.053-.477a1 1 0 1 0-.824-1.822l-.838.379z" clip-rule="evenodd"/></svg>