<svg xmlns="http://www.w3.org/2000/svg" fill="none" viewBox="0 0 24 24"><path fill="currentColor" fill-rule="evenodd" d="M8.5 2h-.062c-.654 0-1.241 0-1.717.064-.52.07-1.052.232-1.489.668-.436.437-.598.97-.668 1.489C4.5 4.697 4.5 5.284 4.5 5.938v12.124c0 .654 0 1.241.064 1.717.07.52.232 1.052.668 1.489.437.436.97.598 1.489.668C7.197 22 7.784 22 8.438 22h5.729c2.98 0 5.333-2.498 5.333-5.5 0-2.092-1.142-3.94-2.844-4.867A5.53 5.53 0 0 0 18.5 7.5c0-3.02-2.41-5.5-5.421-5.5zm4.586 9H6.5V6c0-.735.002-1.186.046-1.513.039-.287.093-.334.1-.34v-.001c.007-.007.054-.061.341-.1C7.314 4.002 7.765 4 8.5 4h4.579C14.952 4 16.5 5.55 16.5 7.5c0 1.947-1.544 3.496-3.414 3.5m.002 2h1.079c1.805 0 3.333 1.531 3.333 3.5S15.972 20 14.167 20H8.5c-.735 0-1.186-.002-1.513-.046-.287-.039-.334-.093-.34-.1h-.001c-.007-.007-.061-.055-.1-.341-.044-.327-.046-.778-.046-1.513v-5h6.589" clip-rule="evenodd"/></svg>