<svg xmlns="http://www.w3.org/2000/svg" fill="none" viewBox="0 0 24 24"><path fill="currentColor" fill-rule="evenodd" d="M11.5 3.5a1 1 0 1 0 0 2h10a1 1 0 1 0 0-2zm0 5a1 1 0 1 0 0 2h7a1 1 0 1 0 0-2zm-1 6a1 1 0 0 1 1-1h10a1 1 0 1 1 0 2h-10a1 1 0 0 1-1-1m1 4a1 1 0 1 0 0 2h7a1 1 0 1 0 0-2zm-3.267-4.719c.348.384.357 1.017.021 1.414l-.932 1.102c-.361.427-.731.865-1.04 1.141C5.937 17.745 5.524 18 5 18s-.938-.255-1.281-.562c-.31-.276-.642-.67-1.004-1.097l-.97-1.146a1.104 1.104 0 0 1 .022-1.414.82.82 0 0 1 .608-.281h5.25c.219 0 .438.093.608.281m.021-4.976c.336.397.327 1.03-.02 1.414a.82.82 0 0 1-.609.281h-5.25a.82.82 0 0 1-.608-.281 1.104 1.104 0 0 1-.021-1.414l.97-1.146c.361-.428.693-.82 1.003-1.097C4.062 6.255 4.475 6 5 6s.938.255 1.281.562c.31.276.68.714 1.041 1.141z" clip-rule="evenodd"/></svg>