<svg xmlns="http://www.w3.org/2000/svg" fill="none" viewBox="0 0 24 24"><path fill="currentColor" fill-rule="evenodd" d="M2.944 19.33 5.164 13h5.673l2.22 6.33a1 1 0 1 0 1.887-.661l-2.919-8.326c-.65-1.854-1.17-3.336-1.669-4.348-.253-.514-.538-.987-.889-1.34C9.097 4.28 8.608 4 8 4s-1.096.28-1.467.655c-.35.353-.635.826-.889 1.34-.499 1.012-1.019 2.494-1.668 4.348l-2.92 8.326a1 1 0 1 0 1.888.662M7.438 6.88c-.433.878-.906 2.219-1.573 4.12h4.27c-.666-1.901-1.14-3.242-1.573-4.12-.219-.444-.39-.69-.515-.816L8 6.02l-.047.044c-.124.126-.296.372-.515.816m.603-.887-.008.003q.008-.005.008-.003m-.074.003-.007-.003zM19 9h-.076c-.39 0-.697 0-.971.043a3.5 3.5 0 0 0-2.661 2.057 1 1 0 1 0 1.833.8 1.5 1.5 0 0 1 1.14-.882c.097-.015.232-.018.735-.018s.638.003.735.018a1.5 1.5 0 0 1 1.247 1.247c.015.097.018.232.018.735h-2.5a3.5 3.5 0 0 0-3.5 3.5c0 2.015 1.676 3.5 3.571 3.5.992 0 1.908-.326 2.647-.877A1 1 0 0 0 23 18.5v-5.576c0-.39 0-.698-.043-.972a3.5 3.5 0 0 0-2.91-2.91C19.774 9 19.467 9 19.077 9zm-.5 6H21v.573A2.43 2.43 0 0 1 18.571 18c-.88 0-1.571-.678-1.571-1.5a1.5 1.5 0 0 1 1.5-1.5" clip-rule="evenodd"/></svg>