<svg xmlns="http://www.w3.org/2000/svg" fill="none" viewBox="0 0 24 24"><path fill="currentColor" fill-rule="evenodd" d="M7.71 1.717a1.454 1.454 0 0 0-2-.128 2 2 0 0 0-.182.181l-2.83 3.042c-.575.617-.997 1.07-1.222 1.634-.227.567-.226 1.177-.226 1.997v.809c0 .85 0 1.567.082 2.138.087.61.28 1.16.746 1.6.46.432 1.027.605 1.653.684.598.076 1.352.076 2.263.076h.426c.756 0 1.376 0 1.883-.047.53-.05.999-.155 1.44-.4q.118-.066.23-.14c.424-.281.725-.649.997-1.093.258-.422.556-1.045.867-1.695.333-.696.618-1.291.772-1.78.16-.511.239-1.086-.07-1.63a2 2 0 0 0-.196-.286c-.386-.47-.94-.629-1.48-.698-.527-.068-1.21-.068-2.022-.068l-.756-.004.288-.914A3.16 3.16 0 0 0 8.08 2.23a5 5 0 0 0-.37-.513m8.58 20.567a1.454 1.454 0 0 0 2 .127c.066-.056.132-.127.182-.181l2.83-3.042c.575-.617.997-1.07 1.222-1.634.227-.567.226-1.177.226-1.997v-.809c0-.85 0-1.567-.082-2.138-.087-.61-.28-1.16-.746-1.6-.46-.432-1.027-.605-1.653-.684-.598-.076-1.352-.076-2.263-.076h-.426c-.756 0-1.376 0-1.883.047-.53.05-.999.155-1.44.4q-.118.066-.23.14c-.424.281-.725.649-.997 1.093-.258.422-.556 1.045-.867 1.695-.333.696-.618 1.291-.772 1.78-.16.511-.24 1.086.07 1.63q.086.152.196.286c.386.47.94.629 1.48.698.527.068 1.21.068 2.022.068l.756.004-.288.914a3.16 3.16 0 0 0 .293 2.765c.088.152.283.406.37.514" clip-rule="evenodd"/></svg>