<svg xmlns="http://www.w3.org/2000/svg" fill="none" viewBox="0 0 24 24"><path fill="currentColor" d="M21.86 5.392c.428 1.104-.171 1.86-1.33 2.606-.935.6-2.126 1.252-3.388 2.365-2.352 2.075-4.34 4.577-6.137 7.137-.34.485-.677.973-.994 1.473A2.25 2.25 0 0 1 8.082 20a2.24 2.24 0 0 1-1.9-1.075c-1.23-2.065-2.105-2.586-2.303-2.683C2.815 16.083 2 15.2 2 14.133 2 12.956 2.995 12 4.222 12c.867.032 1.671.373 2.386.853.456.306.939.712 1.441 1.245 1.809-2.466 3.788-4.85 6.086-6.877 1.44-1.27 3.105-2.459 4.87-3.087 1.15-.41 2.429.153 2.856 1.258"/></svg>