<svg xmlns="http://www.w3.org/2000/svg" fill="none" viewBox="0 0 24 24"><path fill="currentColor" fill-rule="evenodd" d="M15.482 6.428a.995.995 0 0 0 .577-1.29 1 1 0 0 0-1.291-.57c-1.528.58-2.913 1.66-4.053 2.73-.403.38-.794.78-1.17 1.19a.996.996 0 0 0 .055 1.41 1 1 0 0 0 1.413-.05c.351-.38.71-.75 1.076-1.09 1.062-1.01 2.222-1.88 3.393-2.33m-11.658 4.52c-1.517 0-2.699 1.25-2.699 2.74 0 1.27.852 2.37 2.041 2.67.178.14.644.6 1.282 1.75a2.69 2.69 0 0 0 2.313 1.39 2.66 2.66 0 0 0 1.779-.65 1 1 0 0 0 .105-1.41 1 1 0 0 0-1.41-.11.7.7 0 0 1-.447.17.68.68 0 0 1-.592-.37c-.812-1.46-1.489-2.13-1.913-2.43a1.5 1.5 0 0 0-.256-.16.9.9 0 0 0-.308-.11c-.315-.05-.594-.34-.594-.74 0-.43.33-.74.684-.74h.095c.023 0 .05 0 .079.01.073.01.163.03.27.07.525.17 1.09-.12 1.262-.64a.995.995 0 0 0-.639-1.26q-.316-.105-.584-.15l-.251-.03zm18.904-4.57c-.455-1.27-1.842-1.96-3.119-1.47-1.458.56-2.791 1.61-3.9 2.67-1.137 1.08-2.187 2.33-3.069 3.48-.388.51-.75 1-1.077 1.47a6 6 0 0 0-.541-.44 4.6 4.6 0 0 0-1.268-.67c-.347-.14-.786-.17-.962-.17-1.362 0-2.417 1.14-2.417 2.48 0 1.16.782 2.17 1.872 2.42.173.14.672.59 1.357 1.84a2.4 2.4 0 0 0 2.073 1.26c.865.01 1.658-.45 2.097-1.19.619-.98 1.985-3.07 2.656-3.92l.009-.01c.791-1.03 1.671-2.07 2.561-2.92.674-.645 1.303-1.067 1.893-1.463l.07-.047c.166-.11.329-.22.489-.34.467-.32.914-.71 1.179-1.21.288-.54.321-1.14.097-1.77" clip-rule="evenodd"/></svg>