<svg xmlns="http://www.w3.org/2000/svg" fill="none" viewBox="0 0 24 24"><path fill="currentColor" fill-rule="evenodd" d="M10.541 1.602c.552-.196.992-.352 1.46-.352.466 0 .907.156 1.458.352l1.044.37c.487.173.927.328 1.26.504.365.192.723.468.895.94s.078.914-.072 1.297c-.14.354-.371.764-.63 1.222l-.582 1.031c-.224.398-.425.755-.774 1.032-.35.278-.698.377-1.077.485l-.059.017c-.425.122-.977.25-1.464.25-.486 0-1.038-.128-1.464-.25l-.059-.017c-.379-.108-.727-.207-1.077-.485-.35-.277-.55-.634-.774-1.032l-.582-1.031c-.259-.458-.49-.868-.63-1.222-.15-.383-.243-.826-.072-1.296.173-.473.53-.75.895-.941.333-.176.773-.331 1.26-.504zm-1.513 7.92c-.081.042-.108.158-.162.39l-1.185 5.103-.1.42c-.236.966-.49 2.004-.217 2.968.279.99 1.064 1.743 1.796 2.445a43 43 0 0 1 .48.466c.332.328.665.657 1.039.938.377.283.804.5 1.325.498.515-.002.936-.217 1.31-.498.344-.259.723-.63 1.16-1.058q.163-.159.334-.321c.743-.71 1.538-1.469 1.82-2.47.272-.964.02-2.002-.216-2.968l-.1-.42-1.188-5.11c-.053-.231-.08-.346-.161-.389s-.2.004-.435.097q-.331.127-.68.224c-.453.13-1.16.304-1.849.304-.664 0-1.314-.152-1.95-.333a6 6 0 0 1-.58-.188c-.24-.094-.36-.14-.441-.098" clip-rule="evenodd"/></svg>