<svg xmlns="http://www.w3.org/2000/svg" fill="none" viewBox="0 0 24 24"><path fill="currentColor" fill-rule="evenodd" d="M6 3.25h12.818c1.224 0 2.225.778 2.883 1.812C22.364 6.104 22.75 7.499 22.75 9c0 .65-.072 1.277-.206 1.862-.251 1.095-.77 2.261-1.26 3.361q-.203.457-.391.892c-.605 1.414-1.035 2.684-.948 3.828.068.897-.584 1.807-1.585 1.807H8.247c-.898 0-1.544-.741-1.606-1.562-.094-1.237.247-2.498.694-3.684A3.7 3.7 0 0 1 6 15.75c-1.428 0-2.638-.807-3.455-1.945S1.25 11.142 1.25 9.5s.477-3.167 1.295-4.305C3.362 4.058 4.572 3.25 6 3.25M4.081 6.326c-.557.776-.931 1.895-.931 3.174 0 1.28.374 2.398.931 3.174.558.777 1.248 1.153 1.919 1.153.67 0 1.36-.376 1.919-1.153.557-.776.931-1.895.931-3.174 0-1.28-.374-2.398-.931-3.174C7.36 5.549 6.67 5.173 6 5.173s-1.36.376-1.919 1.153M6.004 10.5c.55 0 .996-.448.996-1s-.446-1-.996-1h-.008A1 1 0 0 0 5 9.5c0 .552.446 1 .996 1z" clip-rule="evenodd"/></svg>