<svg xmlns="http://www.w3.org/2000/svg" fill="none" viewBox="0 0 24 24"><path fill="currentColor" fill-rule="evenodd" d="M19.052 15.474c.487-.248.899-.63 1.164-1.108.231-.415.507-.91.607-1.343.123-.539.028-1.037-.28-1.55-.344-.57-.83-.86-1.42-.989-.501-.11-1.12-.11-1.793-.109H9.126v-2.25h1a1 1 0 1 0 0-2h-1V4.071c0-.424 0-.837-.046-1.176-.051-.384-.177-.821-.54-1.184s-.8-.489-1.183-.54c-.34-.046-.753-.046-1.177-.046h-.108c-.424 0-.837 0-1.177.046-.383.051-.82.177-1.183.54s-.489.8-.54 1.183c-.046.34-.046.753-.046 1.177v7.108c0 .425 0 .837.046 1.176.051.384.177.821.54 1.184s.8.489 1.183.54q.086.011.177.02c.775 4.106-.721 6.74-1.476 7.496a.75.75 0 0 0 .53 1.28h14a.75.75 0 0 0 .335-1.42c-.79-.396-1.431-1.222-1.758-2.093-.16-.43-.23-.83-.218-1.148a1.1 1.1 0 0 1 .084-.425q-.659.086-1.353.086c-1.487 0-2.566-.145-3.436-.44-.885-.3-1.504-.74-2.085-1.244a.75.75 0 1 1 .985-1.132c.493.429.944.74 1.582.956.654.222 1.553.36 2.954.36s2.67-.308 3.837-.901M7.125 4.125v2a1 1 0 0 0 0 2v3c0 .5-.002.774-.028.964v.007l-.008.001c-.19.026-.464.028-.964.028s-.774-.002-.964-.028h-.007l-.001-.008c-.026-.19-.028-.464-.028-.964v-7c0-.5.002-.774.028-.964v-.007l.008-.001c.19-.026.464-.028.964-.028s.774.002.964.028h.007l.001.008c.026.19.028.464.028.964" clip-rule="evenodd"/></svg>