<svg xmlns="http://www.w3.org/2000/svg" fill="none" viewBox="0 0 24 24"><path fill="currentColor" fill-rule="evenodd" d="M9.505 3.495a4.25 4.25 0 0 0-3.612-1.202.75.75 0 0 0-.423 1.273l1.402 1.402V6.75H4.846l-1.28-1.28a.75.75 0 0 0-1.273.423 4.248 4.248 0 0 0 5.262 4.724l5.827 5.828a4.248 4.248 0 0 0 4.725 5.262.75.75 0 0 0 .423-1.273l-1.28-1.28v-2.026h1.782l1.402 1.402a.75.75 0 0 0 1.273-.424 4.25 4.25 0 0 0-1.202-3.611 4.25 4.25 0 0 0-4.063-1.112l-5.825-5.825a4.25 4.25 0 0 0-1.112-4.063M20.03 2.97a.75.75 0 0 0-.916-.113l-2.5 1.5a.75.75 0 0 0-.144 1.173l.469.47-3.056 3.056 1.06 1.06L18 7.06l.47.47a.75.75 0 0 0 1.173-.144l1.5-2.5a.75.75 0 0 0-.113-.916zM7.703 12.53l-4.337 4.34a2.1 2.1 0 0 0 0 2.972l.791.792c.821.82 2.152.82 2.972 0l4.338-4.338z" clip-rule="evenodd"/></svg>