<svg xmlns="http://www.w3.org/2000/svg" fill="none" viewBox="0 0 24 24"><path fill="currentColor" fill-rule="evenodd" d="M6.322 1.25h-.058c-.68 0-1.28 0-1.764.059-.52.063-1.051.21-1.49.609-.449.406-.62.91-.694 1.407C2.25 3.775 2.25 4.389 2.25 5s0 1.226.066 1.675c.074.497.245 1 .693 1.407.44.4.971.546 1.491.609.484.06 1.142.059 1.822.059.539 0 .975-.42.975-.937s-.436-.938-.975-.938c-.756 0-1.23-.002-1.576-.044-.318-.039-.382-.097-.397-.111l-.001-.001h-.001c-.01-.009-.062-.051-.1-.308C4.202 6.109 4.2 5.69 4.2 5s.002-1.11.047-1.41c.038-.258.09-.3.1-.308l.001-.001c.016-.015.08-.073.398-.112.346-.042.82-.044 1.576-.044h11.356c.756 0 1.23.002 1.576.044.318.039.382.097.397.111l.001.001h.001c.01.009.062.051.1.308.045.302.047.72.047 1.411 0 .69-.002 1.11-.047 1.41-.038.258-.09.3-.1.308l-.001.001c-.016.015-.08.073-.398.112-.346.042-.82.044-1.576.044h-1.29c-.539 0-.976.42-.976.938 0 .517.437.937.975.937h1.35c.68 0 1.28 0 1.763-.059.52-.063 1.051-.21 1.49-.609.449-.406.62-.91.694-1.407.066-.45.066-1.004.066-1.615s0-1.286-.066-1.735c-.074-.497-.245-1-.693-1.407-.44-.4-.971-.546-1.491-.609-.484-.06-1.084-.06-1.764-.059zm5.679 3A2.25 2.25 0 0 0 9.75 6.5v7.22l-.723-.632-.002-.001a2.27 2.27 0 0 0-3.278.31 2.32 2.32 0 0 0 .011 2.888l3.06 3.818c.822 1.027 1.368 1.709 2.114 2.12q.201.11.412.199c.787.329 1.657.328 2.96.328H15.5c.978 0 1.625 0 2.207-.17a4.28 4.28 0 0 0 2.346-1.713c.34-.503.698-1.59 1.008-2.533.453-1.372.688-2.084.688-3.068 0-1.591-.914-2.763-2.068-3.464-.401-.244-.856-.39-1.39-.507-.525-.116-1.183-.216-2.012-.342l-2.026-.328-.003-4.126A2.25 2.25 0 0 0 12 4.25" clip-rule="evenodd"/></svg>