<svg xmlns="http://www.w3.org/2000/svg" fill="none" viewBox="0 0 24 24"><path fill="currentColor" fill-rule="evenodd" d="M14.5 5.25a2.25 2.25 0 0 0-2.25 2.25v6.582l-.547-.49c-.912-.853-2.294-.69-3.018.308a2.33 2.33 0 0 0 .01 2.725l2.66 3.607c.703.953 1.185 1.606 1.848 2.003q.18.108.37.194c.71.322 1.495.322 2.605.32h1.072c.831.001 1.415.002 1.942-.165a3.84 3.84 0 0 0 2.086-1.649c.297-.477.608-1.504.876-2.387.393-1.293.596-1.962.596-2.886 0-1.543-.794-2.608-1.817-3.283-.364-.24-.774-.382-1.246-.495-.46-.11-1.034-.205-1.748-.323l-1.189-.209V7.5a2.25 2.25 0 0 0-2.25-2.25m-.474-4H9.974c-1.782 0-3.218 0-4.348.15-1.173.158-2.16.493-2.945 1.274-.784.78-1.121 1.763-1.28 2.93C1.25 6.728 1.25 8.157 1.25 9.93v2.05c0 .877 0 1.584.04 2.16.04.592.126 1.115.332 1.61a4.87 4.87 0 0 0 2.644 2.632c.78.321 1.67.359 2.84.368.54.004.98-.428.985-.965a.975.975 0 0 0-.97-.98c-1.222-.01-1.733-.066-2.107-.22a2.92 2.92 0 0 1-1.586-1.578c-.092-.22-.155-.507-.189-1-.034-.501-.034-1.142-.034-2.061V10c0-1.861.002-3.159.134-4.138.128-.952.364-1.455.724-1.814s.867-.593 1.823-.72c.985-.132 2.29-.135 4.16-.135h3.909c1.87 0 3.174.003 4.159.134.956.128 1.462.362 1.823.72.36.36.595.863.724 1.815.132.979.134 2.277.134 4.138 0 .537.438.972.978.972s.977-.435.977-.972v-.07c0-1.773 0-3.202-.152-4.326-.157-1.167-.495-2.15-1.28-2.93-.784-.78-1.771-1.116-2.944-1.273-1.13-.151-2.566-.151-4.348-.151" clip-rule="evenodd"/></svg>