<svg xmlns="http://www.w3.org/2000/svg" fill="none" viewBox="0 0 24 24"><path fill="currentColor" fill-rule="evenodd" d="M12.564 1h-.127c-1.59 0-2.872 0-3.891.12-1.055.125-1.957.39-2.718 1.015a5 5 0 0 0-.693.693c-.624.76-.89 1.663-1.015 2.718C4 6.565 4 7.846 4 9.436V11a1 1 0 1 0 2 0V9.5c0-1.668.002-2.831.107-3.72.102-.865.29-1.338.574-1.683a3 3 0 0 1 .416-.416c.345-.284.818-.472 1.684-.574C9.669 3.002 10.83 3 12.5 3c1.668 0 2.832.002 3.72.107.865.102 1.338.29 1.683.574q.228.188.416.416c.284.345.472.818.575 1.684.104.888.106 2.05.106 3.719V17c0 .977-.005 1.32-.058 1.585a3 3 0 0 1-2.357 2.357c-.265.053-.608.058-1.585.058a1 1 0 1 0 0 2h.116c.817 0 1.375 0 1.86-.096a5 5 0 0 0 3.928-3.928c.096-.485.096-1.043.096-1.86V9.437c0-1.59 0-2.872-.12-3.891-.125-1.055-.39-1.957-1.015-2.718a5 5 0 0 0-.693-.693c-.76-.624-1.663-.89-2.718-1.015-1.019-.12-2.3-.12-3.89-.12M11 22a7 7 0 0 0-7-7 1 1 0 1 1 0-2 9 9 0 0 1 9 9 1 1 0 1 1-2 0m-3.2 0A3.8 3.8 0 0 0 4 18.2a1 1 0 1 1 0-2A5.8 5.8 0 0 1 9.8 22a1 1 0 1 1-2 0m-3.2 0a.6.6 0 0 0-.6-.6 1 1 0 1 1 0-2A2.6 2.6 0 0 1 6.6 22a1 1 0 1 1-2 0" clip-rule="evenodd"/></svg>