<svg xmlns="http://www.w3.org/2000/svg" fill="none" viewBox="0 0 24 24"><path fill="currentColor" fill-rule="evenodd" d="M5.609 3.312c.632-.06 1.452-.062 2.641-.062a1 1 0 1 0 0-2H8.2c-1.127 0-2.045 0-2.784.072-.767.074-1.447.233-2.06.618A4.5 4.5 0 0 0 1.94 3.356c-.385.613-.544 1.293-.618 2.06-.072.74-.072 1.657-.072 2.784v7.6c0 1.127 0 2.045.072 2.784.074.767.233 1.447.618 2.06a4.5 4.5 0 0 0 1.416 1.416c.613.385 1.293.544 2.06.618.74.072 1.657.072 2.783.072h.051a1 1 0 1 0 0-2c-1.19 0-2.01-.001-2.641-.062-.617-.06-.948-.17-1.19-.321a2.5 2.5 0 0 1-.786-.787c-.151-.24-.26-.572-.32-1.189-.062-.631-.063-1.452-.063-2.641v-7.5c0-1.19.001-2.01.062-2.641.06-.617.17-.948.321-1.19a2.5 2.5 0 0 1 .787-.786c.24-.151.572-.26 1.189-.32m12.36-2.062c-.674 0-1.225 0-1.672.037-.463.037-.882.118-1.273.317a3.25 3.25 0 0 0-1.42 1.42c-.199.391-.28.81-.317 1.273-.037.447-.037.998-.037 1.672V11H9v-.822c0-.07 0-.196-.014-.305v-.004c-.01-.079-.07-.548-.54-.775-.473-.227-.879.023-.944.064l-.004.002c-.094.057-.191.136-.247.18l-.015.013-.243.192c-.297.234-.68.534-1.002.826a5 5 0 0 0-.606.64C5.238 11.206 5 11.56 5 12s.238.795.385.988c.174.229.394.448.606.64.322.293.705.594 1.002.827l.243.192.015.012c.056.045.153.124.247.181l.004.002c.065.04.47.291.944.064.47-.227.53-.696.54-.775v-.004c.014-.11.014-.234.014-.305V13h4.25v5.032c0 .673 0 1.224.037 1.671.037.463.118.882.317 1.273a3.25 3.25 0 0 0 1.42 1.42c.391.199.81.28 1.273.317.447.037.998.037 1.672.037h.062c.674 0 1.225 0 1.672-.037.463-.037.882-.118 1.273-.317a3.25 3.25 0 0 0 1.42-1.42c.199-.391.28-.81.317-1.273.037-.447.037-.998.037-1.671V5.968c0-.674 0-1.225-.037-1.672-.037-.463-.118-.882-.317-1.272a3.25 3.25 0 0 0-1.42-1.42c-.391-.2-.81-.28-1.273-.318-.447-.037-.998-.037-1.672-.037z" clip-rule="evenodd"/></svg>