<svg xmlns="http://www.w3.org/2000/svg" fill="none" viewBox="0 0 24 24"><path fill="currentColor" fill-rule="evenodd" d="M12 2.25h-.05c-.664 0-1.237 0-1.696.062-.491.066-.963.215-1.345.597s-.531.854-.597 1.345c-.056.412-.061.916-.062 1.497q-.257 0-.5.002V6.5A4.75 4.75 0 0 1 3 11.25h-.747q-.004.56-.003 1.195v2.61q0 .636.003 1.195H3A4.75 4.75 0 0 1 7.75 21v.747q.56.004 1.195.003h6.11q.636 0 1.195-.003V21A4.75 4.75 0 0 1 21 16.25h.747q.004-.56.003-1.195v-2.61q0-.636-.003-1.195H21a4.75 4.75 0 0 1-4.75-4.75v-.747l-.5-.002c0-.58-.006-1.085-.062-1.497-.066-.491-.215-.963-.597-1.345s-.853-.531-1.345-.597c-.459-.062-1.032-.062-1.697-.062zm2.25 3.5c-.001-.589-.007-.99-.048-1.296-.044-.325-.115-.427-.172-.484s-.159-.128-.484-.172c-.347-.046-.818-.048-1.546-.048s-1.2.002-1.546.048c-.325.044-.427.115-.484.172s-.128.159-.172.484c-.04.306-.047.707-.048 1.296zm7.447 4a10 10 0 0 0-.063-.642c-.122-.9-.38-1.658-.982-2.26s-1.36-.86-2.26-.981a10 10 0 0 0-.642-.064V6.5A3.25 3.25 0 0 0 21 9.75zm0 8H21A3.25 3.25 0 0 0 17.75 21v.697q.34-.024.642-.063c.9-.122 1.658-.38 2.26-.982s.86-1.36.982-2.26q.039-.302.063-.642M6.25 21.697V21A3.25 3.25 0 0 0 3 17.75h-.697q.023.34.064.642c.12.9.38 1.658.981 2.26.602.602 1.36.86 2.26.982q.301.039.642.063M2.303 9.75H3A3.25 3.25 0 0 0 6.25 6.5v-.697q-.34.023-.642.064c-.9.12-1.658.38-2.26.981-.602.602-.86 1.36-.981 2.26q-.041.302-.064.642m6.417 1.72a.75.75 0 0 1 1.06 0l.75.75a.75.75 0 0 1 0 1.06l-.75.75a.75.75 0 0 1-1.06 0l-.75-.75a.75.75 0 0 1 0-1.06zm5.715 3.68a.75.75 0 0 0-1.265-.383l-1.2 1.2a.75.75 0 0 0 .383 1.265l1.5.3a.75.75 0 0 0 .883-.882zm.065-5.4c.69 0 1.25.56 1.25 1.25v.01a1.25 1.25 0 1 1-2.5 0V11c0-.69.56-1.25 1.25-1.25" clip-rule="evenodd"/></svg>