<svg xmlns="http://www.w3.org/2000/svg" fill="none" viewBox="0 0 24 24"><path fill="currentColor" fill-rule="evenodd" d="M14.275 1.928a2.66 2.66 0 0 0-3.549 0c-.689.618-1.542 1.477-2.229 2.472-.679.984-1.247 2.175-1.247 3.439 0 2.458 2.033 4.911 5.25 4.911s5.25-2.453 5.25-4.911c0-1.264-.567-2.455-1.247-3.44-.686-.994-1.54-1.853-2.228-2.471M4.803 13.293c.323-.043.72-.043 1.153-.043h.44c.406 0 .808.091 1.173.268l2.042.988c.16.078.34.12.521.12h1.043c1.399 0 2.576.358 2.576 1.771a.84.84 0 0 1-.617.808l-2.54.703a2.7 2.7 0 0 1-1.895-.171l-1.62-.784a.625.625 0 0 0-.545 1.125l1.62.784c.863.418 1.85.505 2.772.25l2.541-.702a2.09 2.09 0 0 0 1.534-2.013 1.8 1.8 0 0 0-.068-.623c-.093-.327-.14-.49-.1-.562.039-.072.163-.11.412-.186l2.125-.653h.002a2.735 2.735 0 0 1 3.034 1.03c.621.86.381 2.102-.552 2.64l-7.516 4.337a2.74 2.74 0 0 1-2.156.257l-4.999-1.484a8 8 0 0 1-.847-.282c-.264-.114-.53-.273-.738-.55-.207-.278-.284-.579-.318-.865-.03-.257-.03-.564-.03-.892v-2.609c0-.433 0-.83.044-1.152.048-.356.16-.731.47-1.04.308-.31.684-.422 1.04-.47" clip-rule="evenodd"/></svg>