<svg xmlns="http://www.w3.org/2000/svg" fill="none" viewBox="0 0 24 24"><path fill="currentColor" fill-rule="evenodd" d="M13.469 1.942a1.905 1.905 0 0 0-2.938 0L7.665 5.44c-.688.84-.543 2.253.669 2.698 1.062.39 2.324.612 3.666.612s2.604-.221 3.666-.612c1.212-.445 1.357-1.859.67-2.698zM6.193 9.957l.927-1.066c.227.172.488.317.783.425 1.213.446 2.622.689 4.097.689s2.884-.243 4.098-.689a3 3 0 0 0 .783-.425l.926 1.066c.723.833.567 2.198-.537 2.717-1.457.683-3.12 1.08-5.27 1.08s-3.812-.397-5.27-1.08c-1.104-.518-1.26-1.884-.537-2.717M5.64 13.47l-.937 1.051c-.698.784-.61 2.096.432 2.65 1.69.9 3.81 1.465 6.115 1.566v2.514H10a.75.75 0 0 0 0 1.5h4a.75.75 0 0 0 0-1.5h-1.25v-2.514c2.305-.1 4.425-.666 6.116-1.566 1.04-.554 1.13-1.866.432-2.65l-.937-1.051q-.25.19-.56.336c-1.637.768-3.483 1.2-5.8 1.2-2.318 0-4.164-.432-5.8-1.2a3 3 0 0 1-.561-.336" clip-rule="evenodd"/></svg>