<svg xmlns="http://www.w3.org/2000/svg" fill="none" viewBox="0 0 24 24"><path fill="currentColor" fill-rule="evenodd" d="M12.67 3.434c-.567-.185-1.239-.184-2.222-.184H6.964c-1.137 0-2.066 0-2.799.099-.766.103-1.43.326-1.96.856a2.7 2.7 0 0 0-.567.846c-.067.155-.1.233-.084.298a.2.2 0 0 0 .074.112c.053.04.16.04.372.04h6.006a2.502 2.502 0 0 1 .963 4.812c-.226.094-.338.141-.383.19a.2.2 0 0 0-.051.076c-.028.06-.028.182-.028.426a2.5 2.5 0 0 1-2.503 2.502H2q-.1 0-.197-.008c-.268-.02-.402-.031-.466.028-.064.06-.064.178-.063.413l.002 1.07.001.035c.056 1.118.223 2.06.925 2.762.2.2.42.357.657.48.093.047.14.072.184.073a.2.2 0 0 0 .189-.114c.019-.041.019-.106.019-.237a3.753 3.753 0 0 1 3.754-3.752 3.753 3.753 0 0 1 3.746 4.003c-.015.236-.023.354.036.417.06.064.168.064.386.065l1.672.008c.22 0 .331.001.39-.062.06-.064.052-.183.036-.422a3.753 3.753 0 0 1 3.746-4.009 3.753 3.753 0 0 1 3.754 3.752c0 .13 0 .196.02.236a.2.2 0 0 0 .188.115c.045-.001.091-.026.184-.074a2.6 2.6 0 0 0 .657-.479c.53-.529.752-1.192.855-1.956.098-.731.098-1.658.098-2.791v-2.068a1 1 0 0 0-.12-.462l-1.3-2.413c-.326-.606-.605-1.124-.88-1.531-.295-.435-.628-.81-1.094-1.09-.467-.278-.956-.393-1.478-.446-.49-.049-1.079-.049-1.767-.049h-1.448a3.75 3.75 0 0 0-2.015-1.567m7.397 6.723c-.058.097-.207.097-.507.097h-2.243c-.804 0-1.027-.009-1.187-.06a1.25 1.25 0 0 1-.804-.804c-.052-.16-.061-.383-.061-1.187v-.188l-.002-.596c-.002-.199-.004-.298.055-.357.059-.06.157-.06.351-.06h.418c.748 0 1.236.002 1.612.04.354.035.526.097.653.173.126.075.262.197.462.492.212.313.444.742.799 1.4l.3.557c.142.264.213.395.154.493M2 7a1 1 0 0 0 0 2h6a1 1 0 0 0 0-2zm0 3a1 1 0 1 0 0 2h4a1 1 0 1 0 0-2zm17.5 8a2.5 2.5 0 1 1-5 0 2.5 2.5 0 0 1 5 0M7 20.5a2.5 2.5 0 1 0 0-5 2.5 2.5 0 0 0 0 5" clip-rule="evenodd"/></svg>