<svg xmlns="http://www.w3.org/2000/svg" fill="none" viewBox="0 0 24 24"><path fill="currentColor" fill-rule="evenodd" d="M14.661 1.307a3.2 3.2 0 0 0-.669-.057l-3.985.005c-.224 0-.455.01-.668.057a1.35 1.35 0 0 0-.677.352 1.34 1.34 0 0 0-.354.676 3 3 0 0 0-.058.67v1.053L5.605 5.45c-.832.379-1.485.764-1.942 1.368-.46.61-.652 1.35-.789 2.263L1.312 19.539a5 5 0 0 0-.062.568c-.004.21.025.478.2.736.19.283.504.447.702.536.237.106.507.191.767.252.26.06.535.104.786.115.126.006.259.005.389-.011.119-.015.29-.048.455-.139a1.24 1.24 0 0 0 .516-.568 7 7 0 0 0 .204-.54l1.017-3.04-.007.361c-.015.722-.029 1.451-.029 2.19 0 .43.021.827.097 1.172.078.354.223.7.502.98.28.279.626.424.98.501.345.076.741.098 1.171.098h6c.43 0 .826-.022 1.172-.098.353-.078.7-.222.979-.502.28-.28.424-.625.502-.979.076-.345.097-.742.097-1.171 0-.74-.014-1.469-.029-2.19l-.007-.363 1.017 3.04c.06.182.126.38.204.54.092.19.242.418.516.57.165.09.336.123.455.138.13.016.263.017.389.011a4.4 4.4 0 0 0 .786-.115c.26-.061.53-.146.767-.252.198-.09.512-.253.703-.536a1.24 1.24 0 0 0 .199-.736 5 5 0 0 0-.062-.569L21.126 9.081c-.137-.914-.328-1.654-.79-2.263-.456-.604-1.11-.989-1.94-1.367L15.75 4.059V3.005a3 3 0 0 0-.058-.67 1.34 1.34 0 0 0-.354-.676 1.34 1.34 0 0 0-.677-.352m-.411 2.854V3.005a3 3 0 0 0-.009-.246 3 3 0 0 0-.248-.009l-3.984.005q-.163 0-.25.009a3 3 0 0 0-.009.246v1.158c1.375 1.072 3.106 1.074 4.5-.007" clip-rule="evenodd"/></svg>