<svg xmlns="http://www.w3.org/2000/svg" fill="none" viewBox="0 0 24 24"><path fill="currentColor" fill-rule="evenodd" d="M12.057 1.75h-.114c-2.19 0-3.912 0-5.255.18-1.377.186-2.469.573-3.327 1.43-.858.86-1.245 1.951-1.43 3.328-.181 1.343-.181 3.064-.181 5.255v.114c0 2.19 0 3.912.18 5.255.186 1.377.573 2.469 1.43 3.327.86.858 1.951 1.245 3.328 1.43 1.343.181 3.064.181 5.255.181h.114c2.19 0 3.912 0 5.255-.18 1.377-.186 2.469-.573 3.327-1.43.858-.86 1.245-1.951 1.43-3.328.181-1.343.181-3.064.181-5.255v-.114c0-2.19 0-3.912-.18-5.255-.186-1.377-.573-2.469-1.43-3.327-.86-.858-1.951-1.245-3.328-1.43-1.343-.181-3.064-.181-5.255-.181m-.158 7.5A2.74 2.74 0 0 1 14.63 6.5c.693 0 1.326.26 1.807.688l1.697-.255c.251-.038.444.209.333.427l-1.11 2.191C17.2 13.968 13.593 17.5 9.166 17.5a8.1 8.1 0 0 1-3.558-.816c-.177-.086-.125-.338.07-.37 1.065-.176 2.464-.572 2.464-1.24C6.664 13.58 5.75 11.179 5.75 8.906c0-.65.075-1.284.216-1.892.04-.17.271-.203.374-.06 1.183 1.647 3.079 2.984 5.216 2.984q.214 0 .424-.014a2.8 2.8 0 0 1-.082-.674" clip-rule="evenodd"/></svg>