<svg xmlns="http://www.w3.org/2000/svg" fill="none" viewBox="0 0 24 24"><path fill="currentColor" fill-rule="evenodd" d="M8.5 4.25A2.5 2.5 0 0 0 6 6.75v2.008q.658-.01 1.455-.008h2.09q.797-.002 1.455.008V6.75a2.5 2.5 0 0 0-2.5-2.5m-4 2.5v2.104c-.68.093-1.27.278-1.783.67q-.392.301-.692.693c-.427.556-.608 1.205-.693 1.96-.082.729-.082 1.734-.082 2.868 0 1.135 0 2.05.082 2.779.085.754.266 1.403.693 1.959q.301.392.692.692c.556.427 1.205.608 1.96.693.729.082 1.643.082 2.778.082h2.09c1.135 0 2.05 0 2.779-.082.754-.085 1.403-.266 1.959-.693q.392-.301.692-.692c.427-.556.608-1.205.693-1.96.082-.729.082-1.643.082-2.778 0-1.134 0-2.14-.082-2.869-.085-.754-.266-1.403-.693-1.959a3.8 3.8 0 0 0-.692-.692c-.513-.393-1.103-.578-1.783-.67V6.75a4 4 0 0 0-8 0m6.836 6.921a.75.75 0 0 0-.671-1.342c-1.17.585-2.133 1.712-2.775 2.61q-.188.262-.344.504a4.3 4.3 0 0 0-.453-.536c-.192-.191-.533-.466-.757-.578a.75.75 0 0 0-.68 1.337s.255.181.376.302c.24.24.548.642.757 1.27a.75.75 0 0 0 1.382.098 14 14 0 0 1 .94-1.524c.608-.852 1.395-1.726 2.225-2.141m5.21 7.579h-1.239q.364-.32.66-.706c.621-.81.845-1.715.943-2.58.09-.8.09-1.774.09-2.856 0-1.083 0-2.272-.09-3.072-.098-.865-.322-1.77-.943-2.58a5 5 0 0 0-.66-.706h1.238q.797-.002 1.455.008V6.75a2.5 2.5 0 0 0-4.477-1.53 5.2 5.2 0 0 0-.697-1.445A4 4 0 0 1 19.5 6.75v2.104c.68.093 1.27.278 1.783.67q.391.301.692.693c.427.556.608 1.205.693 1.96.082.729.082 1.734.082 2.868 0 1.135 0 2.05-.082 2.779-.085.754-.266 1.403-.693 1.959q-.301.392-.692.692c-.556.427-1.205.608-1.96.693-.729.082-1.643.082-2.778.082" clip-rule="evenodd"/></svg>