<svg xmlns="http://www.w3.org/2000/svg" fill="none" viewBox="0 0 24 24"><path fill="currentColor" fill-rule="evenodd" d="M11.587 1.25c.57 0 1.075-.001 1.55.167q.147.052.288.12c.455.219.811.578 1.214.984l4.783 4.807c.467.469.882.884 1.106 1.428s.223 1.132.222 1.796v.198c0 1.414 0 2.121-.44 2.56-.439.44-1.146.44-2.56.44H6.25c-1.414 0-2.121 0-2.56-.44-.44-.439-.44-1.146-.44-2.56V9.453c0-1.534 0-2.77.114-3.754.118-1.018.37-1.89.963-2.63q.327-.407.733-.736c.735-.596 1.603-.85 2.615-.968.98-.115 2.387-.115 3.912-.115m7.144 8.258c-.056-.138-.162-.268-.78-.89L13.346 3.99c-.533-.535-.674-.669-.856-.723v.008c0 1.362 0 2.01.117 2.875.12.9.38 1.658.981 2.26.602.602 1.36.86 2.26.981.867.117 1.516.118 2.883.118M5.25 16a.75.75 0 0 1 .75-.75h5a.75.75 0 0 1 0 1.5H9.25V22a.75.75 0 0 1-1.5 0v-5.25H6a.75.75 0 0 1-.75-.75m8 1c0-.966.784-1.75 1.75-1.75h3a.75.75 0 0 1 0 1.5h-3a.25.25 0 0 0-.25.25v1c0 .138.112.25.25.25h2c.966 0 1.75.784 1.75 1.75v1A1.75 1.75 0 0 1 17 22.75h-3a.75.75 0 0 1 0-1.5h3a.25.25 0 0 0 .25-.25v-1a.25.25 0 0 0-.25-.25h-2A1.75 1.75 0 0 1 13.25 18z" clip-rule="evenodd"/></svg>