<svg xmlns="http://www.w3.org/2000/svg" fill="none" viewBox="0 0 24 24"><path fill="currentColor" fill-rule="evenodd" d="M12 1a1 1 0 0 1 1 1v.543c4.958.431 9.002 4.035 9.98 8.754a1 1 0 0 1-.326.96c-.933.806-2.163 1.077-3.192 1.142a9.5 9.5 0 0 1-2.285-.141A11.3 11.3 0 0 1 13 14.457V20.5a2.5 2.5 0 0 1-5 0V20a1 1 0 1 1 2 0v.5a.5.5 0 0 0 1 0v-6.043a11.3 11.3 0 0 1-4.176-1.2 9.5 9.5 0 0 1-2.285.142c-1.03-.065-2.26-.336-3.193-1.142a1 1 0 0 1-.325-.96C1.998 6.577 6.042 2.974 11 2.543V2a1 1 0 0 1 1-1M8.788 5.063c-2.736.996-4.852 3.229-5.648 5.99.418.2.942.313 1.525.35a7.5 7.5 0 0 0 1.419-.052c.402-2.346 1.401-4.4 2.433-5.906q.135-.195.271-.382m6.424 0q.136.186.27.382c1.033 1.507 2.032 3.56 2.434 5.906.413.054.911.084 1.42.052.583-.037 1.106-.15 1.524-.349-.796-2.762-2.911-4.995-5.648-5.991" clip-rule="evenodd"/></svg>