<svg xmlns="http://www.w3.org/2000/svg" fill="none" viewBox="0 0 24 24"><path fill="currentColor" fill-rule="evenodd" d="M6 4a1 1 0 0 0-.749 1.663l.001.001.2.222a49 49 0 0 0 2.263 2.335c.663.638 1.4 1.297 2.088 1.803.343.253.695.483 1.036.655.32.16.73.321 1.161.321.43 0 .84-.16 1.16-.321a7.4 7.4 0 0 0 1.037-.655c.688-.506 1.425-1.165 2.088-1.803a47 47 0 0 0 2.463-2.557l.001-.002A1 1 0 0 0 18 4zm0 16a1 1 0 0 1-.749-1.663l.001-.001.2-.222a49 49 0 0 1 2.263-2.336c.663-.637 1.4-1.296 2.088-1.802a7.4 7.4 0 0 1 1.036-.655c.32-.16.73-.321 1.161-.321.43 0 .84.16 1.16.321.342.172.694.402 1.037.655.688.506 1.425 1.165 2.088 1.802a47 47 0 0 1 2.463 2.558l.001.002A1 1 0 0 1 18 20z" clip-rule="evenodd"/></svg>