<svg xmlns="http://www.w3.org/2000/svg" fill="none" viewBox="0 0 24 24"><path fill="currentColor" fill-rule="evenodd" d="M1.25 4a2.75 2.75 0 1 1 5.5 0 2.75 2.75 0 0 1-5.5 0m16 0a2.75 2.75 0 1 1 5.5 0 2.75 2.75 0 0 1-5.5 0M20 17.25a2.75 2.75 0 1 0 0 5.5 2.75 2.75 0 0 0 0-5.5M1.25 20a2.75 2.75 0 1 1 5.5 0 2.75 2.75 0 0 1-5.5 0M15.098 6.761c-.165-.011-.362-.011-.576-.011H9.478c-.214 0-.41 0-.576.011-.178.012-.373.04-.572.122a1.75 1.75 0 0 0-.947.947c-.082.199-.11.394-.122.572A10 10 0 0 0 7.25 9c0 .214 0 .433.011.598.012.178.04.373.122.572.178.428.519.77.947.947.199.082.394.11.572.122.165.011.362.011.576.011h5.044c.214 0 .41 0 .576-.011.178-.012.373-.04.572-.122a1.75 1.75 0 0 0 .947-.947c.082-.199.11-.394.122-.572.011-.165.011-.362.011-.576 0-.215 0-.455-.011-.62a1.8 1.8 0 0 0-.122-.572 1.75 1.75 0 0 0-.947-.947 1.8 1.8 0 0 0-.572-.122m0 6c-.165-.011-.362-.011-.576-.011H9.478c-.214 0-.41 0-.576.011-.178.012-.373.04-.572.122a1.75 1.75 0 0 0-.947.947c-.082.199-.11.394-.122.572a11 11 0 0 0-.011.62c0 .214 0 .41.011.576.012.178.04.373.122.572.178.428.519.77.947.947.199.082.394.11.572.122.165.011.362.011.576.011h5.044c.214 0 .41 0 .576-.011.178-.012.373-.04.572-.122a1.75 1.75 0 0 0 .947-.947c.082-.199.11-.394.122-.572.011-.165.011-.362.011-.576 0-.215 0-.455-.011-.62a1.8 1.8 0 0 0-.122-.572 1.75 1.75 0 0 0-.947-.947 1.8 1.8 0 0 0-.572-.122" clip-rule="evenodd"/></svg>