<svg xmlns="http://www.w3.org/2000/svg" fill="none" viewBox="0 0 24 24"><path fill="currentColor" fill-rule="evenodd" d="M9 3a1 1 0 0 0-2 0v2.079a1 1 0 1 0 2 0zM3 7a1 1 0 1 0 0 2h2.079a1 1 0 0 0 0-2zm16.648-2.576a4.564 4.564 0 0 0-6.625 0l-.714.743a1 1 0 1 0 1.442 1.386l.714-.743a2.564 2.564 0 0 1 3.74 0c1.06 1.103 1.06 2.906 0 4.009l-3.239 3.371a2.7 2.7 0 0 1-.532.43c-1.235.76-2.843.296-3.58-.912a1 1 0 0 0-1.707 1.042q.268.44.636.826a4.56 4.56 0 0 0 5.698.748c.333-.204.645-.454.927-.748l3.24-3.372c1.803-1.876 1.803-4.903 0-6.78m-5.431 5a4.564 4.564 0 0 0-6.625 0l-3.24 3.372c-1.803 1.876-1.803 4.903 0 6.78a4.565 4.565 0 0 0 6.626 0l.713-.743a1 1 0 0 0-1.442-1.386l-.714.743a2.565 2.565 0 0 1-3.74 0c-1.06-1.103-1.06-2.906 0-4.009l3.239-3.371a2.565 2.565 0 0 1 3.74 0q.216.225.373.482a1 1 0 1 0 1.706-1.042 4.8 4.8 0 0 0-.636-.826M17.921 16a1 1 0 0 1 1-1H21a1 1 0 1 1 0 2h-2.079a1 1 0 0 1-1-1M16 17.921a1 1 0 0 1 1 1V21a1 1 0 1 1-2 0v-2.079a1 1 0 0 1 1-1" clip-rule="evenodd"/></svg>