<svg xmlns="http://www.w3.org/2000/svg" fill="none" viewBox="0 0 24 24"><path fill="currentColor" fill-rule="evenodd" d="M10.212 1.25h.076c.67 0 1.229 0 1.681.046.474.048.913.153 1.309.417.3.201.558.459.758.76.265.395.37.835.418 1.308.046.452.046 1.011.046 1.68v.693c0 .186 0 .279.04.348.04.07.135.125.326.237q.268.154.505.39c.51.51.709 1.138.797 1.794.082.611.082 1.375.082 2.262v.066a1 1 0 1 1-2 0c0-.971-.002-1.6-.064-2.062-.059-.433-.153-.57-.229-.645-.076-.077-.212-.17-.646-.23-.462-.061-1.09-.063-2.061-.063h-2c-.971 0-1.599.002-2.061.064-.434.058-.57.152-.646.229-.076.076-.17.212-.229.645-.062.463-.064 1.09-.064 2.062v5.5c0 .977.005 1.32.058 1.585a3 3 0 0 0 2.357 2.357c.2.04.466.055 1.089.057a1 1 0 0 1-.008 2c-.597-.002-1.052-.012-1.471-.096a5 5 0 0 1-3.929-3.928c-.096-.485-.096-1.042-.096-1.86v-5.681c0-.887 0-1.65.082-2.262.088-.656.287-1.284.797-1.794q.238-.236.505-.39c.191-.112.286-.167.326-.237S6 6.34 6 6.154v-.692c0-.67 0-1.229.046-1.681.048-.473.153-.913.417-1.309.201-.3.459-.558.76-.759.395-.264.835-.369 1.308-.417.452-.046 1.011-.046 1.68-.046M9.25 3.148a.75.75 0 1 0 0 1.5h2a.75.75 0 0 0 0-1.5zm6 10.602a4.5 4.5 0 1 0 0 9 4.5 4.5 0 0 0 0-9m1.688 3.825a.75.75 0 1 0-.71-1.321c-.659.354-1.19 1.051-1.52 1.552l-.033.05a3 3 0 0 0-.282-.2l-.154-.085a.75.75 0 0 0-.656 1.348c.03.017.104.063.163.113.118.096.276.253.413.485a.75.75 0 0 0 1.322-.057 8 8 0 0 1 .478-.828c.318-.48.676-.894.98-1.057" clip-rule="evenodd"/></svg>