<svg xmlns="http://www.w3.org/2000/svg" fill="none" viewBox="0 0 24 24"><path fill="currentColor" fill-rule="evenodd" d="M16.203 2.322c-.374.285-.782.693-1.233 1.145l-.353.352c-.151.152-.227.227-.316.245-.09.018-.205-.03-.435-.126a2.4 2.4 0 0 0-.92-.188c-.665 0-1.216.278-1.74.679-.5.38-1.054.935-1.723 1.603l-5.976 5.976a6 6 0 1 0 8.485 8.485l5.976-5.976c.668-.669 1.223-1.223 1.603-1.722.401-.525.679-1.076.679-1.741 0-.331-.069-.634-.188-.92-.096-.23-.143-.345-.126-.435.018-.089.093-.165.245-.316l.352-.352c.452-.452.86-.86 1.145-1.234.313-.41.572-.895.572-1.505s-.26-1.096-.572-1.505c-.285-.375-.693-.782-1.145-1.234l-.086-.086c-.452-.452-.86-.86-1.234-1.145-.41-.313-.895-.572-1.505-.572s-1.095.26-1.505.572m.137 2.602c.51-.509.822-.818 1.076-1.012.118-.09.192-.13.234-.147a.14.14 0 0 1 .058-.015c.01 0 .024 0 .058.015.043.017.116.057.234.147.255.194.567.503 1.076 1.012.509.51.818.821 1.012 1.076.09.118.13.191.147.234a.14.14 0 0 1 .015.058c0 .01 0 .024-.015.058a1 1 0 0 1-.147.234c-.194.255-.503.567-1.012 1.076l-.093.093c-.202.202-.303.302-.427.302-.125 0-.226-.101-.428-.304l-1.88-1.879c-.202-.202-.303-.303-.303-.428 0-.124.1-.225.302-.426zM7 19a2 2 0 1 1 0-4 2 2 0 0 1 0 4" clip-rule="evenodd"/></svg>