<svg xmlns="http://www.w3.org/2000/svg" fill="none" viewBox="0 0 24 24"><path fill="currentColor" fill-rule="evenodd" d="M6.504 3.75c-1.52 0-2.75 1.23-2.75 2.75s1.23 2.75 2.75 2.75 2.75-1.23 2.75-2.75-1.23-2.75-2.75-2.75m8.25 2.75c0-1.52 1.23-2.75 2.75-2.75s2.75 1.23 2.75 2.75-1.23 2.75-2.75 2.75-2.75-1.23-2.75-2.75m-2.75 1.25c-1.79 0-3.25 1.46-3.25 3.25s1.46 3.25 3.25 3.25 3.25-1.46 3.25-3.25-1.46-3.25-3.25-3.25m0 7.5c-1.4 0-2.71.42-3.79 1.15s-1.46 2-1.46 3.1c0 .41.34.75.75.75h9c.41 0 .75-.34.75-.75 0-1.1-.37-2.37-1.46-3.1a6.8 6.8 0 0 0-3.79-1.15m-4.46-4.9a4.49 4.49 0 0 0 1.63 4.16c-.53.19-1.03.44-1.49.74h-5.18c-.41 0-.75-.34-.75-.75 0-1.07.32-2.34 1.3-3.08.98-.73 2.16-1.17 3.45-1.17.36 0 .71.03 1.05.1zm13.949 4.9h-5.18c-.47-.3-.97-.55-1.5-.74a4.49 4.49 0 0 0 1.63-4.16c.34-.07.69-.1 1.05-.1 1.29 0 2.47.44 3.45 1.17.98.74 1.3 2.01 1.3 3.08 0 .41-.34.75-.75.75" clip-rule="evenodd"/></svg>