<svg xmlns="http://www.w3.org/2000/svg" fill="none" viewBox="0 0 24 24"><path fill="currentColor" fill-rule="evenodd" d="M11 1.25a5.25 5.25 0 1 0 0 10.5 5.25 5.25 0 0 0 0-10.5m2.781 21.334c.083-.166-.14-.462-.584-1.054-1.287-1.71-1.703-3.94-1.288-6.129l.003-.016c.017-.094.058-.31.115-.5a2.64 2.64 0 0 1 .68-1.137c.127-.124.074-.36-.102-.385a11.5 11.5 0 0 0-3.21 0 11.3 11.3 0 0 0-4.201 1.474c-.116.07-.26.15-.422.242-.713.402-1.79 1.01-2.53 1.733-.46.452-.9 1.047-.98 1.777-.084.776.254 1.504.934 2.15 1.171 1.117 2.577 2.011 4.395 2.011h6.085c.681 0 1.022 0 1.105-.166m4.217-9.334c-.802 0-1.446.26-1.971.518a20 20 0 0 0-.473.242c-.31.163-.551.29-.832.374-.18.055-.367.112-.498.16a1.3 1.3 0 0 0-.501.306c-.15.158-.22.332-.261.466-.034.111-.062.26-.082.364-.557 2.937.672 5.776 3.685 6.872.273.1.544.198.935.198.39 0 .661-.099.934-.198 3.013-1.096 4.241-3.935 3.684-6.872-.02-.104-.048-.253-.082-.364a1.14 1.14 0 0 0-.26-.466 1.3 1.3 0 0 0-.502-.306c-.13-.049-.318-.105-.498-.16-.281-.085-.523-.212-.833-.374q-.208-.111-.473-.242c-.526-.259-1.17-.518-1.972-.518" clip-rule="evenodd"/></svg>