<svg xmlns="http://www.w3.org/2000/svg" fill="none" viewBox="0 0 24 24"><path fill="currentColor" fill-rule="evenodd" d="M12 3.205a8.795 8.795 0 0 0-6.649 14.553l.059-.11a5.75 5.75 0 0 1 4.992-2.898H13.6a5.75 5.75 0 0 1 4.992 2.897l.058.11A8.795 8.795 0 0 0 12 3.205m7.61 16.388A10.72 10.72 0 0 0 22.75 12c0-5.937-4.813-10.75-10.75-10.75S1.25 6.063 1.25 12 6.063 22.75 12 22.75a11 11 0 0 0 2.166-.218 10.73 10.73 0 0 0 5.444-2.94M8.5 9.5a3.5 3.5 0 1 1 7 0 3.5 3.5 0 0 1-7 0" clip-rule="evenodd"/></svg>