<svg xmlns="http://www.w3.org/2000/svg" fill="none" viewBox="0 0 24 24"><path fill="currentColor" fill-rule="evenodd" d="M7.25 7a4.75 4.75 0 1 1 9.5 0 4.75 4.75 0 0 1-9.5 0m9.95 7.65c.1.058.226.128.369.207.633.352 1.604.891 2.27 1.532.415.4.825.941.9 1.615.08.721-.243 1.387-.86 1.965-1.05.985-2.317 1.781-3.96 1.781H8.081c-1.642 0-2.91-.796-3.96-1.78-.617-.579-.94-1.245-.859-1.966.075-.674.484-1.214.9-1.615.665-.64 1.637-1.18 2.27-1.532q.216-.119.369-.208c3.183-1.865 7.215-1.865 10.398 0m3.728-9.836a1 1 0 0 1 1.413-.042l.748.705.031.03h.001c.17.16.364.343.507.52.168.207.372.531.372.973s-.204.766-.372.974a6 6 0 0 1-.507.52l-.032.03-.748.704a1 1 0 0 1-1.686-.728V8H19a1 1 0 1 1 0-2h1.656v-.494a1 1 0 0 1 .272-.692m-19.27-.042a1 1 0 0 1 1.687.734V6H5a1 1 0 0 1 0 2H3.345v.5a1 1 0 0 1-1.686.728L.91 8.523l-.031-.03a6 6 0 0 1-.508-.52C.204 7.767 0 7.443 0 7s.204-.766.372-.974c.143-.177.337-.359.508-.52l.031-.03z" clip-rule="evenodd"/></svg>