<svg xmlns="http://www.w3.org/2000/svg" fill="none" viewBox="0 0 24 24"><path fill="currentColor" fill-rule="evenodd" d="M9 3.75a3 3 0 1 1 4.59 2.544c2.935.417 4.719 3.68 3.545 6.564a1.67 1.67 0 0 1-1.543 1.059H15.1l-.828 3.485c-.253 1.065-1.175 1.848-2.272 1.848s-2.019-.783-2.272-1.848L8.9 13.917h-.492a1.67 1.67 0 0 1-1.543-1.059c-1.174-2.883.61-6.147 3.545-6.564A3 3 0 0 1 9 3.75m-2 11.5H6a1 1 0 1 0 0 2h1a1 1 0 1 0 0-2m10 0a1 1 0 1 0 0 2h1a1 1 0 1 0 0-2zm-4 6a1 1 0 1 0-2 0v1a1 1 0 1 0 2 0z" clip-rule="evenodd"/></svg>