<svg xmlns="http://www.w3.org/2000/svg" fill="none" viewBox="0 0 24 24"><path fill="currentColor" fill-rule="evenodd" d="M15 1.25H9a.75.75 0 0 0-.316.07l-.298.116c-.655.255-2.023.786-2.27.937-.268.164-.631.428-.8.83a1.1 1.1 0 0 0-.075.547c.015.145.052.286.091.411.075.238.35.907.35.907.62 1.511.447 3.74-1.597 5.145a1.75 1.75 0 0 0-.683.636c-.152.152-.143.845-.143.845s-.01-.11-.009 0v7.225c0 .593.05 1.17.387 1.65.333.476.856.724 1.396.935l2.323.91c.639.25 1.29.45 1.928.26.643-.192 1.074-.721 1.466-1.296l2.46-3.61c.43-.63.78-1.144 1.03-1.596.26-.47.439-.92.493-1.429s-.026-.985-.182-1.5c-.15-.492-.384-1.066-.671-1.768l-.014-.033-3.728-8.692h3.723l-.843 1.967c-.167.389-.25.583-.25.789 0 .205.083.4.25.788l1.997 4.656.091.223c.232.562.464 1.126.64 1.707.185.608.307 1.262.23 1.995-.079.733-.336 1.347-.643 1.903-.278.502-.657 1.057-1.064 1.655l-1.13 1.657c-.185.273-.278.41-.278.563 0 .208.148.403.282.58q.057.075.106.145c.392.575.823 1.104 1.466 1.296.637.19 1.29-.01 1.928-.26l2.323-.91c.54-.211 1.063-.46 1.396-.934.337-.48.387-1.058.387-1.651v-7.225c0-.292-.007-.583-.152-.845-.148-.27-.403-.444-.65-.614l-.033-.022c-2.044-1.406-2.218-3.634-1.597-5.145.14-.34.275-.67.35-.907.098-.311.148-.648.017-.958-.17-.402-.533-.666-.8-.83a6.6 6.6 0 0 0-.982-.47l-1.584-.583A.75.75 0 0 0 15 1.25M10.995 13A1 1 0 0 0 10 14c0 .552.446 1 .995 1h.01c.55 0 .995-.448.995-1s-.446-1-.995-1z" clip-rule="evenodd"/></svg>