<svg xmlns="http://www.w3.org/2000/svg" fill="none" viewBox="0 0 24 24"><path fill="currentColor" d="M5.099 4.746c-.28-1.552.902-2.996 2.486-2.996a2.53 2.53 0 0 1 2.43 1.846l1.347 4.15 1.258-4.169a2.5 2.5 0 0 1 2.406-1.827c1.591 0 2.766 1.47 2.45 3.022l-1.323 4.73c.342.062.614.122.832.193 2.229.726 3.585 2.986 3.2 5.304-.06.366-.199.783-.417 1.442l-.472 1.432c-.357 1.079-.585 1.77-.97 2.33a4.7 4.7 0 0 1-2.55 1.856c-.65.191-1.376.191-2.501.191h-1.76c-1.616 0-2.662 0-3.576-.407a4.7 4.7 0 0 1-1.096-.684c-.769-.64-1.235-1.582-1.958-3.043-.31-.624-.654-1.319-.827-1.755-.181-.455-.297-.878-.307-1.336a3.8 3.8 0 0 1 .132-1.075c.12-.443.335-.824.62-1.221.274-.38.641-.813 1.092-1.342l.957-1.107z"/></svg>