<svg xmlns="http://www.w3.org/2000/svg" fill="none" viewBox="0 0 24 24"><path fill="currentColor" fill-rule="evenodd" d="M10.072 3H8.928c-1.589 0-2.882 0-3.902.137-1.064.143-1.979.452-2.708 1.181S1.28 5.962 1.138 7.026C1 8.046 1 9.34 1 10.928v2.144c0 1.589 0 2.882.137 3.902.143 1.064.452 1.979 1.181 2.708s1.644 1.038 2.708 1.18C6.046 21 7.34 21 8.928 21h1.144c1.589 0 2.882 0 3.902-.137 1.064-.143 1.979-.452 2.708-1.181.706-.706 1.017-1.585 1.166-2.605.458.36.873.664 1.246.89.7.423 1.588.777 2.499.326.896-.445 1.174-1.356 1.29-2.173.116-.822.116-1.927.116-3.256v-1.726c0-1.328 0-2.434-.116-3.255-.116-.817-.393-1.728-1.29-2.173-.91-.451-1.798-.097-2.499.326a13 13 0 0 0-1.245.889c-.15-1.02-.46-1.9-1.167-2.607-.73-.73-1.644-1.038-2.708-1.18C12.954 3 11.66 3 10.072 3m7.922 6.383q.008.72.006 1.545v2.144q.002.827-.006 1.548c.957.789 1.619 1.323 2.134 1.635.272.164.436.223.525.24q.03.006.041.006h.011l.006-.004a.3.3 0 0 0 .039-.061c.048-.094.107-.272.153-.596.094-.665.096-1.626.096-3.057V11.22c0-1.43-.002-2.392-.096-3.056-.046-.324-.105-.503-.153-.596a.3.3 0 0 0-.039-.06l-.006-.005h-.011l-.04.005c-.09.018-.254.077-.526.241-.515.312-1.177.846-2.134 1.635M10 8a1 1 0 0 1 1-1h2a1 1 0 1 1 0 2h-2a1 1 0 0 1-1-1" clip-rule="evenodd"/></svg>