<svg xmlns="http://www.w3.org/2000/svg" fill="none" viewBox="0 0 24 24"><path fill="currentColor" fill-rule="evenodd" d="M13.073 1h-2.146c-1.824 0-3.293 0-4.45.155-1.2.162-2.21.507-3.013 1.31-.802.802-1.147 1.813-1.309 3.013C2 6.634 2 8.103 2 9.927v4.146c0 1.824 0 3.293.155 4.45.162 1.2.507 2.21 1.31 3.012.802.803 1.813 1.148 3.013 1.31C7.634 23 9.103 23 10.927 23h2.146c1.824 0 3.293 0 4.45-.155 1.2-.162 2.21-.507 3.012-1.31.803-.802 1.148-1.812 1.31-3.013.155-1.156.155-2.625.155-4.449V9.927c0-1.824 0-3.293-.155-4.45-.162-1.2-.507-2.21-1.31-3.013-.802-.802-1.812-1.147-3.013-1.309C16.366 1 14.897 1 13.073 1M4.88 3.879c.369-.37.887-.61 1.865-.741C7.751 3.002 9.086 3 11 3h2c1.914 0 3.249.002 4.256.138.978.131 1.496.372 1.865.74.37.37.61.888.742 1.866C19.998 6.751 20 8.086 20 10v.25c0 .471 0 .707-.146.854-.147.146-.383.146-.854.146H5c-.471 0-.707 0-.854-.146C4 10.957 4 10.72 4 10.25V10c0-1.914.002-3.249.138-4.256.131-.978.372-1.496.74-1.865m5.828 10.414a1 1 0 0 1 0 1.414l-.793.793.793.793a1 1 0 0 1-1.414 1.414l-.793-.793-.793.793a1 1 0 0 1-1.414-1.414l.793-.793-.793-.793a1 1 0 1 1 1.414-1.414l.793.793.793-.793a1 1 0 0 1 1.414 0M16.991 14a1 1 0 1 0 0 2h.01a1 1 0 1 0 0-2zm-1.982 3H15a1 1 0 1 0 0 2h.009a1 1 0 1 0 0-2" clip-rule="evenodd"/></svg>