<svg xmlns="http://www.w3.org/2000/svg" fill="none" viewBox="0 0 24 24"><path fill="currentColor" fill-rule="evenodd" d="M15.29 3Q12 3.003 8.71 3c-1.692-.001-3.281.076-4.566 1.282-.738.693-1.227 1.69-1.963 3.191q-.084.172-.172.346c-.279.558-.56 1.12-.735 1.72a7 7 0 0 0-.184.809C1 10.902 1 11.468 1 12.366v2.635l.002.06c.001.759.01 1.396.053 1.93.055.67.173 1.271.463 1.824.34.648.836 1.199 1.447 1.587.533.338 1.114.475 1.747.538 1.166.116 2.494.19 3.66 0a4.85 4.85 0 0 0 2.624-1.347c.234-.231.443-.488.643-.75.201-.266.302-.398.444-.404.142-.005.25.119.468.365.269.304.541.606.835.88a4.82 4.82 0 0 0 2.858 1.297c.997.09 2.055.058 3.047-.041.633-.063 1.214-.2 1.747-.538a4.17 4.17 0 0 0 1.447-1.587c.29-.553.408-1.153.463-1.824.054-.651.053-1.456.053-2.448l.001-.395q.003-.465-.002-.932v-.85c0-.898 0-1.464-.09-2.018a7 7 0 0 0-.184-.81c-.175-.6-.456-1.16-.735-1.718l-.172-.347c-.736-1.5-1.225-2.498-1.963-3.19C18.57 3.075 16.982 2.998 15.29 3m4.643 5.17c-.73-1.48-1.041-2.05-1.446-2.43-.823-.772-1.906-.758-2.975-.744Q15.297 5 15.084 5H8.916q-.212 0-.427-.004c-1.07-.014-2.152-.028-2.975.745-.405.38-.716.95-1.446 2.43a4.5 4.5 0 0 1 .645-.11C5.317 8 6.06 8 6.952 8h10.1c.892 0 1.634 0 2.239.06q.33.034.642.11M15.002 13a1 1 0 0 1 1-1h2a1 1 0 1 1 0 2h-2a1 1 0 0 1-1-1" clip-rule="evenodd"/></svg>