<svg xmlns="http://www.w3.org/2000/svg" fill="none" viewBox="0 0 24 24"><path fill="currentColor" fill-rule="evenodd" d="M12.964 3.69c.08-.04.18-.06.27-.06.32 0 .59.25.59.57v3.55h-8.98zM2.254 8.5v-.19c0-.84.49-1.62 1.26-2l8.57-4.29c.36-.18.75-.27 1.15-.27 1.39 0 2.52 1.1 2.52 2.45v3.55c1.05 0 1.93.02 2.64.12.9.12 1.66.38 2.26.98s.86 1.36.98 2.26c.12.87.12 1.97.12 3.34v1.1c0 1.37 0 2.47-.12 3.34-.12.9-.38 1.66-.98 2.26s-1.36.86-2.26.98c-.87.12-1.97.12-3.34.12h-6.11c-1.37 0-2.47 0-3.34-.12-.9-.12-1.66-.38-2.26-.98s-.86-1.36-.98-2.26c-.12-.87-.12-1.97-.12-3.34V8.5z" clip-rule="evenodd"/></svg>