<svg xmlns="http://www.w3.org/2000/svg" fill="none" viewBox="0 0 24 24"><path fill="currentColor" fill-rule="evenodd" d="M19.634 5.847a.157.157 0 0 1-.178.184c-.44-.08-1.136-.11-1.733-.124a49 49 0 0 0-1.755-.007h-7.25a.286.286 0 0 1-.283-.355 5.752 5.752 0 0 1 11.199.302M7.144 3.25c.372.002.566.015.645.136.089.135-.011.366-.212.828q-.116.268-.21.544c-.074.22-.111.33-.19.386-.078.056-.187.056-.405.056h-2.59a.976.976 0 1 0 0 1.95h11.796c.831-.013 2.651-.007 3.278.116.907.122 1.708.387 2.349 1.026.641.64.907 1.439 1.029 2.344.116.861.116 1.95.116 3.27v2.088c0 1.32 0 2.409-.116 3.27-.122.905-.388 1.704-1.029 2.344s-1.442.905-2.349 1.026c-.863.116-1.955.116-3.278.116H9.974c-1.782 0-3.218 0-4.348-.151-1.173-.158-2.16-.494-2.945-1.277s-1.122-1.767-1.28-2.938c-.126-.939-.147-2.09-.15-3.477L1.25 6.175A2.93 2.93 0 0 1 4.182 3.25zM17.5 13a2 2 0 1 0 0 4 2 2 0 0 0 0-4" clip-rule="evenodd"/></svg>