<svg xmlns="http://www.w3.org/2000/svg" fill="none" viewBox="0 0 24 24"><path fill="currentColor" fill-rule="evenodd" d="M18.833 5.016c.054.203.087.418.106.655.012.156.018.234.046.288a.3.3 0 0 0 .115.12c.052.031.128.041.281.062.907.121 1.708.387 2.35 1.026.64.64.906 1.439 1.028 2.344.116.861.116 1.95.116 3.27v2.088c0 1.32 0 2.409-.116 3.27-.122.905-.388 1.704-1.029 2.344s-1.442.904-2.349 1.026c-.863.116-1.955.116-3.278.116h-6.004c-.84 0-1.604 0-2.295-.016-.477-.011-.716-.017-.797-.178-.08-.162.06-.357.339-.746.193-.27.406-.554.64-.834.524-.628 1.094-1.242 1.659-1.737.59-.518 1.04-.785 1.315-.883a2.5 2.5 0 0 0-1.67-4.713c-1.136.403-2.143 1.136-2.942 1.837-.825.723-1.579 1.547-2.202 2.293a1 1 0 0 1-.107.119.28.28 0 0 1-.253.054 1 1 0 0 1-.16-.07 4 4 0 0 0-.613-.24 3.3 3.3 0 0 0-.888-.136c-.338 0-.508 0-.59-.064a.3.3 0 0 1-.042-.041c-.068-.08-.073-.215-.084-.487-.034-.833-.034-1.784-.034-2.862V5.05a2.93 2.93 0 0 1 2.932-2.925h9.907c.777 0 1.354 0 1.855.133a3.9 3.9 0 0 1 2.764 2.758m-3.27-.875c-.218-.058-.512-.066-1.484-.066H4.306a.976.976 0 1 0 0 1.95h12.185c.191 0 .287 0 .362-.049a.34.34 0 0 0 .12-.157c.029-.085.01-.156-.029-.299a1.95 1.95 0 0 0-1.382-1.379m4.062 9.734a2 2 0 1 0-4 0 2 2 0 0 0 4 0m-9.166 1.943a1 1 0 0 0-.668-1.885c-.878.31-1.717.904-2.454 1.55-.747.655-1.445 1.415-2.039 2.127a30 30 0 0 0-1.143 1.465 4 4 0 0 0-.85-.782 2.6 2.6 0 0 0-.733-.348 1.7 1.7 0 0 0-.447-.07 1 1 0 0 0-.094 1.996c.023.008.08.03.164.086.2.133.595.484 1.036 1.366a1 1 0 0 0 1.738.088l.13-.198a28 28 0 0 1 1.735-2.322c.554-.664 1.179-1.34 1.822-1.905.653-.572 1.27-.98 1.803-1.168" clip-rule="evenodd"/></svg>