<svg xmlns="http://www.w3.org/2000/svg" fill="none" viewBox="0 0 24 24"><path fill="currentColor" fill-rule="evenodd" d="M2.707 1.293a1 1 0 0 0-1.414 1.414l.618.618a2.9 2.9 0 0 0-.661 1.85v7.871c0 1.778 0 3.211.152 4.338.158 1.17.495 2.156 1.28 2.938.784.783 1.771 1.12 2.944 1.277 1.13.151 2.566.151 4.348.151h6.004c1.323 0 2.415 0 3.278-.116a6 6 0 0 0 .805-.16l1.232 1.233a1 1 0 0 0 1.414-1.414zM4.736 6.15 3.313 4.727a.976.976 0 0 0 .868 1.423zm14.078-.354a3.7 3.7 0 0 0-.106-.655 3.9 3.9 0 0 0-2.764-2.758c-.5-.134-1.078-.133-1.855-.133H7.234c-.616 0-.925 0-1.001.185-.077.185.141.403.577.84l.75.75c.087.086.13.13.185.152.055.023.117.023.24.023h5.97c.97 0 1.265.008 1.482.067.675.18 1.202.705 1.382 1.378.039.143.058.214.03.3a.34.34 0 0 1-.12.156c-.076.05-.172.05-.363.05h-5.232c-.616 0-.925 0-1.001.184-.077.185.14.403.577.84l5.394 5.393a2 2 0 0 1 2.828 2.828l3.064 3.065c.102.101.153.152.208.175a.31.31 0 0 0 .374-.126c.03-.052.038-.116.056-.245.116-.862.116-1.95.116-3.271v-2.088c0-1.32 0-2.409-.116-3.27-.122-.905-.388-1.704-1.029-2.344s-1.442-.905-2.349-1.026c-.153-.02-.23-.03-.281-.061a.3.3 0 0 1-.115-.121c-.027-.054-.034-.132-.046-.288" clip-rule="evenodd"/></svg>