<svg xmlns="http://www.w3.org/2000/svg" fill="none" viewBox="0 0 24 24"><path fill="currentColor" fill-rule="evenodd" d="M4.287 3.137C3.02 3.514 2.25 4.681 2.25 5.901v9.21c0 .956 0 1.745.084 2.393.088.687.276 1.277.689 1.819.776 1.018 2.042 1.36 3.57 1.771 2.8.757 5.73 1.204 8.345 1.46 1.288.126 2.404.235 3.256.184.903-.053 1.67-.281 2.328-.883.666-.608.96-1.383 1.097-2.314.131-.89.131-2.018.131-3.412v-2.124c0-1.359 0-2.45-.107-3.306-.11-.883-.344-1.63-.9-2.23-.433-.468-.992-.747-1.637-.93-.286-.08-.428-.12-.49-.217-.061-.095-.039-.238.006-.522.075-.478.125-.995.128-1.513.005-.985-.159-2.162-.863-3.02-.96-1.171-2.395-1.046-3.219-.973-4.874.414-8.428 1.264-10.38 1.843m10.454.032c.48-.04.817-.063 1.1-.018.237.038.39.115.525.28.284.345.448.983.443 1.846a8.6 8.6 0 0 1-.129 1.38c-.04.237-.06.356-.152.427-.091.071-.217.062-.469.043q-.48-.035-1.003-.07c-4.214-.293-7.829-.844-10.179-1.358-.29-.063-.436-.095-.473-.29-.038-.193.048-.251.22-.368a1 1 0 0 1 .234-.112c1.838-.545 5.16-1.359 9.883-1.76M16.5 13a2 2 0 1 1 0 4 2 2 0 0 1 0-4" clip-rule="evenodd"/></svg>