<svg xmlns="http://www.w3.org/2000/svg" fill="none" viewBox="0 0 24 24"><path fill="currentColor" fill-rule="evenodd" d="M9.03 1.75h5.26c.53 0 .96.428.96.955s-.43.954-.96.954H12.5V4.75h.04c.44 0 .83 0 1.16.043.35.048.73.161 1.04.47s.42.684.47 1.04c.04.323.04.719.04 1.152v2.09c0 .433 0 .829-.04 1.152-.05.356-.16.731-.47 1.04s-.69.422-1.04.47c-.33.043-.72.043-1.16.043h-2.08c-.44 0-.83 0-1.16-.043-.35-.048-.73-.161-1.04-.47s-.42-.684-.47-1.04c-.04-.323-.04-.719-.04-1.152V7.5c0-.433 0-.874.04-1.197.05-.356.16-.731.47-1.04s.69-.422 1.04-.47c.33-.043.72-.043 1.16-.043h.04V3.659H9.08c-.63 0-1.03.001-1.33.033-.28.03-.38.078-.45.121s-.16.121-.3.361c-.136.234-.28.55-.499 1.029l-.071.157-2.83 6.323a.975.975 0 0 1-1.28.484.96.96 0 0 1-.49-1.259l2.86-6.366c.23-.514.44-.967.64-1.325.23-.388.51-.739.92-1.005s.85-.37 1.3-.418c.41-.044.91-.044 1.48-.044M7.5 20.25c-.55 0-1 .448-1 1s.45 1 1 1h2.422l.078.004h3l.078-.004H15.5c.55 0 1-.448 1-1s-.45-1-1-1h-1.75v-6.997l-.43.001h-2.64c-.54 0-1.03 0-1.43-.05v7.046zm11.94-5.251a.757.757 0 0 1 1.12 0v.004c.05.054.18.205.25.293.15.178.35.427.55.705.2.276.41.596.57.916.15.295.32.688.32 1.083 0 1.243-1.01 2.25-2.25 2.25A2.25 2.25 0 0 1 17.75 18c0-.395.17-.788.32-1.083.16-.32.37-.64.57-.916.2-.278.4-.527.55-.705.07-.088.2-.239.25-.293zm-1.69-4.249h-1.01c.01-.285.01-.596.01-.923V7.173c0-.327 0-.638-.01-.923h1.76A3.75 3.75 0 0 1 22.25 10v2.5c0 .414-.34.75-.75.75h-3a.753.753 0 0 1-.75-.75z" clip-rule="evenodd"/></svg>