<svg xmlns="http://www.w3.org/2000/svg" fill="none" viewBox="0 0 24 24"><path fill="currentColor" fill-rule="evenodd" d="M3.449 15.431c.137-.01.246.099.464.317l.548.548c3.306 3.512 8.636 3.12 11.859-.316 3.24-3.455 3.24-9.037.002-12.493l-.017-.017-.228-.229-.021-.022a.31.31 0 0 1 .054-.446c.625-.42 1.28-.625 2.067-.473.737.141 1.255.486 1.662 1.033.352.472.623 1.103.92 1.793l.028.067c1.862 4.33 1.024 9.544-2.516 13.081s-8.756 4.374-13.09 2.514l-.067-.029c-.69-.296-1.321-.567-1.793-.918-.548-.407-.893-.925-1.035-1.662-.172-.896.308-1.755.746-2.357l.02-.026c.172-.236.26-.354.397-.365M14.686 4.094c.121.002.218.098.41.29l.14.14c2.689 2.88 2.685 7.557-.01 10.432-2.713 2.893-7.044 3.115-9.68.307l-.016-.017-.617-.617c-.2-.2-.3-.3-.3-.424s.1-.225.3-.425l2.443-2.44c.407-.406.948-.376 1.248-.334.03.004.045.006.062.01l.075.027c.43.164 1.198.313 1.296-.246a.75.75 0 0 1 1.078-.569c.312.156.59.138.856.01.29-.138.583-.422.807-.814.483-.844.428-1.714.016-2.115a.93.93 0 0 1-.271-.805c.029-.215.121-.394.194-.514.15-.246.375-.487.572-.68.242-.242.598-.584.98-.942.197-.184.296-.276.417-.274" clip-rule="evenodd"/></svg>