<svg xmlns="http://www.w3.org/2000/svg" fill="none" viewBox="0 0 24 24"><path fill="currentColor" fill-rule="evenodd" d="M11.58 1.249c.57 0 1.08 0 1.55.17.1.03.2.07.29.12.457.208.806.565 1.202.972l.008.008 4.79 4.81c.47.46.88.88 1.1 1.42.23.55.23 1.14.23 1.8v.2c0 1.41 0 2.12-.44 2.56s-1.15.44-2.56.44H6.25c-1.42 0-2.13 0-2.56-.44-.44-.44-.44-1.15-.44-2.56v-1.3c0-1.53 0-2.77.11-3.75.12-1.02.37-1.89.96-2.63.22-.27.47-.52.74-.74.73-.6 1.6-.85 2.61-.97.979-.11 2.387-.11 3.904-.11zm7.15 8.25c-.06-.14-.17-.27-.78-.89l-4.61-4.63c-.53-.53-.67-.67-.86-.71 0 1.36 0 2.01.12 2.87.12.9.38 1.66.98 2.26s1.36.86 2.26.98c.87.12 1.52.12 2.89.12m-2.01 6.29a.746.746 0 0 0-.93-.51c-.4.12-.63.53-.51.93l1.75 6c.09.32.39.54.72.54h.5c.33 0 .63-.22.72-.54l1.75-6c.12-.4-.11-.81-.51-.93s-.81.11-.93.51L18 20.179zm-11.97.21c0-.41-.34-.75-.75-.75s-.75.34-.75.75v6c0 .32.2.6.49.71.3.1.63.01.84-.23l1.92-2.31 1.92 2.31c.21.24.54.33.84.23a.76.76 0 0 0 .49-.71v-6c0-.41-.34-.75-.75-.75s-.75.34-.75.75v3.93l-1.17-1.41a.78.78 0 0 0-.58-.27c-.22 0-.43.1-.58.27l-1.17 1.41zm8.25-.75a.75.75 0 0 0-.72.54l-1.75 6c-.12.4.11.81.51.93s.81-.11.93-.51l.43-1.46h1.7l.43 1.46c.12.4.53.63.93.51s.63-.53.51-.93l-1.75-6a.75.75 0 0 0-.72-.54zm.25 2.57.42 1.43h-.84z" clip-rule="evenodd"/></svg>