<svg xmlns="http://www.w3.org/2000/svg" fill="none" viewBox="0 0 24 24"><path fill="currentColor" fill-rule="evenodd" d="M18.726 1.25c.312 0 .607 0 .842.027.233.026.596.095.867.394.124.136.218.3.271.48.121.406-.032.758-.143.964s-.37.574-.54.816c-.42.596-.748 1.061-1.226 1.364a3 3 0 0 1-.497.251c-.523.205-1.101.205-1.862.204H15v2.102A7.75 7.75 0 0 1 19.75 15v3.889c0 1.156-.182 2.19-.874 2.91-.699.726-1.74.951-2.987.951H8.11c-1.156 0-2.19-.182-2.91-.874-.726-.699-.951-1.74-.951-2.987V15A7.75 7.75 0 0 1 9 7.852V5.75H7.562c-.76 0-1.338.001-1.862-.204a3 3 0 0 1-.496-.25c-.478-.304-.806-.769-1.226-1.365-.17-.242-.431-.611-.54-.816-.111-.206-.265-.558-.144-.964.054-.18.147-.344.271-.48.271-.299.634-.368.868-.394.235-.027.53-.027.841-.027zM11 5.75v1.564a7.8 7.8 0 0 1 2 0V5.75zm1 6A3.25 3.25 0 0 0 8.75 15a.75.75 0 0 1-1.5 0 4.75 4.75 0 0 1 9.5 0 .75.75 0 0 1-1.5 0A3.25 3.25 0 0 0 12 11.75m1.671 3.586a.75.75 0 1 0-1.342-.671l-1 2a.75.75 0 0 0 1.342.67z" clip-rule="evenodd"/></svg>