<svg xmlns="http://www.w3.org/2000/svg" fill="none" viewBox="0 0 24 24"><path fill="currentColor" fill-rule="evenodd" d="M12 1.25c5.276 0 9.75 4.36 9.75 9.676 0 2.713-1.15 4.995-2.763 6.878-1.608 1.876-3.701 3.389-5.668 4.592l-.012.007-.011.007a2.64 2.64 0 0 1-2.592 0l-.013-.008-.013-.008c-1.96-1.213-4.053-2.721-5.661-4.591-1.615-1.879-2.767-4.155-2.767-6.877C2.25 5.61 6.725 1.25 12 1.25M12.006 14A1 1 0 1 0 12 16a1 1 0 1 0 .006-2m-.011-3.64a5.1 5.1 0 0 0-2.697.784 1 1 0 1 0 1.054 1.7 3.1 3.1 0 0 1 1.643-.483c.581 0 1.14.17 1.65.487a1 1 0 1 0 1.058-1.697 5.1 5.1 0 0 0-2.708-.79m0-3.36c-1.73 0-3.32.64-4.626 1.702a1 1 0 1 0 1.262 1.552C9.623 9.447 10.777 9 11.995 9c1.222 0 2.379.45 3.373 1.261a1 1 0 1 0 1.265-1.549C15.324 7.644 13.729 7 11.995 7" clip-rule="evenodd"/></svg>