<svg xmlns="http://www.w3.org/2000/svg" fill="none" viewBox="0 0 24 24"><path fill="currentColor" fill-rule="evenodd" d="M12 3.75c3.695 0 7.338 1.443 10.645 4.236a1 1 0 1 1-1.29 1.528C18.346 6.974 15.147 5.75 12 5.75S5.654 6.973 2.645 9.514a1 1 0 0 1-1.29-1.528C4.662 5.193 8.305 3.75 12 3.75m7.163 7.251c-4.157-3.678-9.944-3.652-14.303-.02a1 1 0 1 0 1.28 1.537c3.64-3.034 8.32-3.008 11.697-.018a1 1 0 0 0 1.326-1.498m-2.706 3.042c-2.39-2.39-6.524-2.39-8.914 0a1 1 0 1 0 1.414 1.414c1.61-1.61 4.476-1.61 6.086 0a1 1 0 0 0 1.414-1.414M12 16a2.25 2.25 0 1 0 0 4.5 2.25 2.25 0 0 0 0-4.5" clip-rule="evenodd"/></svg>