<svg xmlns="http://www.w3.org/2000/svg" fill="none" viewBox="0 0 24 24"><path fill="currentColor" fill-rule="evenodd" d="m10.25 3.86-2.41.4c-1.15.19-2.09.35-2.82.56-.76.23-1.39.54-1.88 1.11-.49.58-.7 1.25-.8 2.03-.09.76-.09 1.7-.09 2.87v.42h8zm-8 8.89v.42c0 1.17 0 2.11.09 2.87.1.78.31 1.45.8 2.03.49.57 1.12.88 1.88 1.11.73.21 1.67.37 2.82.56l2.41.4v-7.39zm9.5 7.64 2.2.36c1.57.26 2.83.47 3.83.5 1.03.02 1.91-.14 2.64-.76s1.04-1.46 1.19-2.48c.14-.98.14-2.25.14-3.83v-1.43h-10zm10-9.14V9.82c0-1.58 0-2.85-.14-3.83-.15-1.02-.46-1.86-1.19-2.48s-1.61-.78-2.64-.76c-1 .03-2.26.24-3.83.5l-2.2.36v7.64z" clip-rule="evenodd"/></svg>