<svg xmlns="http://www.w3.org/2000/svg" fill="none" viewBox="0 0 24 24"><path fill="currentColor" fill-rule="evenodd" d="M13.113 1.282C12.814 1.25 12.41 1.25 12 1.25s-.815 0-1.113.032c-.318.034-.658.111-.96.34-.521.392-.655.95-.674 1.383-.014.313.03.664.061.903l.19 1.764c.024.23.057.565.16.867a1.7 1.7 0 0 0 .874 1.02c.155.075.31.119.462.145v1.28a2.25 2.25 0 0 0-1.242 1.822l-1.245.935a1.72 1.72 0 0 0-1.574-.451c-.316.063-.625.201-.84.298l-1.647.725c-.225.094-.555.231-.82.401-.37.236-.79.632-.87 1.284-.047.379.056.714.187 1.009.124.277.328.63.536.99.21.36.413.712.592.957.19.26.43.517.78.665.605.256 1.158.093 1.547-.109.28-.145.565-.36.76-.508l1.453-1.059c.191-.137.466-.335.68-.576.272-.308.485-.727.449-1.276a1.8 1.8 0 0 0-.175-.644l.974-.73q.208.176.455.3v7.733H6a1 1 0 1 0 0 2h12a1 1 0 1 0 0-2h-5v-7.734q.246-.122.455-.3l.974.731a1.8 1.8 0 0 0-.175.644c-.036.549.177.968.45 1.276.213.241.488.439.679.576l1.454 1.059c.194.147.478.363.759.508.39.201.942.365 1.546.11.35-.15.59-.406.78-.666.18-.245.384-.597.593-.958.208-.36.412-.712.536-.99.13-.294.234-.63.188-1.008-.08-.652-.5-1.048-.87-1.284a5.4 5.4 0 0 0-.821-.4l-1.647-.726c-.215-.097-.524-.235-.84-.299a1.72 1.72 0 0 0-1.574.452l-1.245-.934A2.25 2.25 0 0 0 13 8.984v-1.28a1.68 1.68 0 0 0 1.336-1.165c.102-.302.136-.636.159-.867l.19-1.764c.03-.24.076-.59.062-.903-.02-.434-.153-.991-.675-1.384-.302-.228-.642-.305-.96-.34m-5.504 3.19a.926.926 0 0 0 .247-1.315.995.995 0 0 0-1.356-.24C4.24 4.434 2.663 6.856 2.308 9.65a10 10 0 0 0-.056.598c-.033.52.376.969.914 1 .537.032 1-.365 1.032-.885a8 8 0 0 1 .046-.483c.285-2.248 1.553-4.194 3.365-5.409M17.5 2.917a.995.995 0 0 0-1.356.239.926.926 0 0 0 .247 1.314 7.7 7.7 0 0 1 3.365 5.41q.03.239.046.482c.032.52.495.917 1.032.885.538-.031.947-.48.914-1a10 10 0 0 0-.056-.598c-.355-2.795-1.932-5.217-4.192-6.732" clip-rule="evenodd"/></svg>