<svg xmlns="http://www.w3.org/2000/svg" fill="none" viewBox="0 0 24 24"><path fill="currentColor" fill-rule="evenodd" d="M1 11.79a5.77 5.77 0 0 1 4.603-5.656C6.137 3.213 8.686 1 11.75 1c3.386 0 6.143 2.702 6.247 6.076a5.264 5.264 0 0 1 4.503 5.216 5.27 5.27 0 0 1-3.954 5.108c-.37.095-.556.142-.637.052s.003-.315.17-.763c.361-.976.103-2.143-.748-2.84-1.544-1.267-3.467-2.059-5.586-2.059-2.113 0-4.03.788-5.573 2.047-.806.658-1.085 1.74-.804 2.683.148.5.223.75.134.835-.09.085-.285.015-.677-.125A5.77 5.77 0 0 1 1 11.79m10.995 1.71c-1.73 0-3.32.64-4.626 1.702a1 1 0 0 0 1.262 1.551c.992-.806 2.146-1.253 3.364-1.253 1.222 0 2.379.45 3.373 1.261a1 1 0 1 0 1.265-1.549c-1.309-1.069-2.904-1.712-4.638-1.712m0 3.36a5.1 5.1 0 0 0-2.697.784 1 1 0 1 0 1.054 1.7 3.1 3.1 0 0 1 1.643-.483c.581 0 1.14.17 1.65.488a1 1 0 1 0 1.058-1.698 5.1 5.1 0 0 0-2.708-.79M11 21.5a1 1 0 0 1 1-1h.006a1 1 0 1 1 0 2H12a1 1 0 0 1-1-1" clip-rule="evenodd"/></svg>