<svg xmlns="http://www.w3.org/2000/svg" fill="none" viewBox="0 0 24 24"><path fill="currentColor" fill-rule="evenodd" d="M10.597 1.795c.434-.32.905-.554 1.478-.545s1.037.258 1.46.591c.398.314.905.837 1.419 1.367.513.53.95.982 1.251 1.389.32.433.554.905.545 1.478s-.258 1.037-.591 1.46q-.24.3-.572.637l2.433 2.434a3.25 3.25 0 1 1-1.414 1.414L14.15 9.565a9 9 0 0 1-.748.64q-.195.146-.403.261v5.794q.28.01.517.04c.41.056.824.183 1.162.521s.465.752.52 1.162c.051.377.051.845.051 1.37v.294c0 .525 0 .993-.05 1.37-.056.41-.183.824-.521 1.162s-.752.465-1.162.52c-.377.051-.845.051-1.37.051h-.294c-.525 0-.992 0-1.37-.05-.41-.056-.824-.183-1.162-.521s-.465-.752-.52-1.162c-.051-.377-.051-.845-.051-1.37v-.294c0-.525 0-.993.05-1.37.056-.41.183-.823.521-1.162s.752-.465 1.162-.52q.237-.031.517-.041v-5.75a3.3 3.3 0 0 1-.536-.351 8 8 0 0 1-.636-.572L7.394 12.02a3.25 3.25 0 1 1-1.414-1.414L8.435 8.15a9 9 0 0 1-.64-.748c-.32-.433-.554-.905-.545-1.478s.258-1.037.591-1.46c.314-.398.801-.87 1.331-1.384s1.018-.986 1.425-1.286" clip-rule="evenodd"/></svg>