<svg xmlns="http://www.w3.org/2000/svg" fill="none" viewBox="0 0 24 24"><path fill="currentColor" fill-rule="evenodd" d="M21.574 1.83c-.256-.396-.664-.503-.943-.543-.262-.037-.592-.037-.93-.037h-1.796c-.287 0-.554 0-.78.022-.25.025-.51.081-.765.232a1.75 1.75 0 0 0-.568.563 8 8 0 0 0-.373.664l-.015.028L9.682 13.72a7 7 0 0 0-.291.598 1.7 1.7 0 0 0-.14.699c.007.266.085.49.18.69.084.177.202.375.325.581l3.05 5.113c.134.224.26.437.387.607.142.192.315.375.56.511s.492.187.729.21c.214.02.466.02.737.02h2.173c.38 0 .742 0 1.025-.04.29-.041.74-.155.993-.599.26-.457.112-.906-.015-1.174-.12-.255-.319-.55-.523-.854l-.027-.042-3.021-4.501a7 7 0 0 1-.317-.496.5.5 0 0 1-.043-.094.5.5 0 0 1 .032-.097c.045-.114.122-.262.258-.524l5.5-10.535.021-.042c.15-.287.3-.575.385-.822.093-.27.176-.692-.087-1.1M4.276 5.25H4.23c-.319 0-.637 0-.892.038-.278.042-.68.156-.925.557-.244.399-.167.807-.08 1.074.08.246.221.532.364.82l.02.041 1.318 2.659c.115.23.179.361.219.463a1 1 0 0 1 .03.096v.004l-.002.011a1 1 0 0 1-.028.085 7 7 0 0 1-.219.463L2.72 14.22l-.02.04c-.144.29-.286.575-.365.82-.087.268-.164.676.08 1.075.246.4.647.515.925.557.255.038.573.038.892.038h1.214c.27 0 .528 0 .747-.023.244-.025.502-.084.752-.24s.416-.36.547-.569a8 8 0 0 0 .354-.663l1.5-3.028.043-.085c.174-.348.362-.724.362-1.142s-.188-.793-.362-1.142l-.042-.085-1.487-3-.014-.028a8 8 0 0 0-.354-.663 1.7 1.7 0 0 0-.547-.57 1.7 1.7 0 0 0-.752-.24 8 8 0 0 0-.747-.022H4.277" clip-rule="evenodd"/></svg>