<svg xmlns="http://www.w3.org/2000/svg" fill="none" viewBox="0 0 24 24"><path fill="currentColor" fill-rule="evenodd" d="M10.62 15.402a1.3 1.3 0 0 1 1.071-.064c.374.148.605.437.743.738.131.284.198.616.238.952.078.658.078 1.572.078 2.696v.403c0 .437 0 .847-.05 1.18-.058.38-.195.766-.543 1.071a1.46 1.46 0 0 1-1.101.369c-.302-.02-.637-.116-.943-.204l-.052-.015q-.673-.194-1.291-.51l-.045-.024c-.291-.149-.6-.307-.84-.5a1.63 1.63 0 0 1-.598-.966c-.094-.443 0-.827.172-1.177.148-.302.378-.626.62-.966l.028-.04.166-.234.035-.05c.618-.871 1.128-1.589 1.559-2.053.22-.237.469-.464.753-.606m7.245-.253c-1.016-.376-1.86-.67-2.507-.79-.589-.11-1.397-.147-1.875.525l-.017.024-.015.026c-.396.663-.13 1.404.14 1.966.292.608.785 1.38 1.39 2.33l.03.048.028.043c.218.342.428.672.642.912.248.278.578.525 1.045.561l.025.003h.024c.426.005.769-.16 1.052-.398.254-.213.486-.508.71-.807l.016-.02.609-.933.012-.021.023-.042c.17-.3.34-.604.442-.893.121-.347.157-.707.04-1.106l-.005-.02-.006-.018c-.145-.416-.417-.699-.744-.908-.297-.19-.67-.338-1.059-.482M6.7 10.755l.047.022.778.358.056.026c.894.412 1.638.755 2.149 1.083.49.315 1.06.8 1.018 1.574-.043.776-.663 1.195-1.185 1.453-.543.27-1.321.528-2.254.838l-.87.288-.05.017c-.398.133-.784.26-1.12.31-.394.06-.81.027-1.205-.242a1.6 1.6 0 0 1-.663-.96c-.081-.306-.105-.67-.129-1.026l-.003-.052a8.7 8.7 0 0 1 .113-2.079l.009-.05c.062-.35.126-.71.24-1.005.14-.363.37-.672.764-.88.424-.225.84-.211 1.226-.109.327.087.696.257 1.079.434m12.466-2.408.034.038c.366.412.692.86.97 1.337l.027.046c.176.301.36.617.46.915.126.374.14.766-.048 1.179-.2.437-.545.68-.91.835-.317.135-.721.233-1.147.337l-.05.012-.529.129c-1.066.26-1.94.473-2.594.546-.606.068-1.404.067-1.872-.579-.49-.675-.18-1.43.11-1.947.312-.555.84-1.251 1.48-2.092l.037-.05.282-.37.031-.042c.256-.336.503-.661.753-.894.295-.275.652-.479 1.124-.496.441-.016.796.126 1.108.362.254.193.497.467.734.734m-6.818-6.76c-.361-.267-.745-.345-1.136-.336-.333.007-.717.08-1.115.157l-.049.01c-.968.185-1.9.483-2.766.87l-.043.02c-.338.15-.668.297-.924.466-.303.199-.565.467-.698.876-.142.437-.056.829.096 1.17.13.291.342.612.561.944l.028.042 1.46 2.214c.767 1.164 1.384 2.1 1.909 2.714.267.312.553.593.867.778.334.198.732.303 1.163.195.437-.11.738-.399.927-.75.173-.322.26-.71.313-1.105.104-.777.104-1.871.104-3.224v-2.8c0-.42 0-.83-.061-1.168-.073-.402-.246-.785-.636-1.073" clip-rule="evenodd"/></svg>