<svg xmlns="http://www.w3.org/2000/svg" fill="none" viewBox="0 0 24 24"><path fill="currentColor" fill-rule="evenodd" d="M3.9 4.933A10.73 10.73 0 0 1 12 1.25q.864 0 1.69.132c.252.04.378.06.45.159.074.099.055.227.018.484l-.039.254a6.253 6.253 0 0 1-9.97 3.645l-.212-.206c-.182-.179-.272-.268-.277-.387-.004-.119.077-.212.24-.398m11.83-2.837c-.073.07-.093.193-.133.44l-.006.03A7.752 7.752 0 0 1 3.19 7.075l-.055-.047c-.143-.139-.215-.208-.294-.227a.3.3 0 0 0-.234.04c-.068.043-.11.127-.196.295q-.324.639-.563 1.322c-.053.151-.08.227-.063.308s.071.14.18.26c.273.301.52.547.69.703l.007.007a9.22 9.22 0 0 0 6.34 2.514c4.566 0 8.36-3.31 9.113-7.661l.002-.01c.041-.221.098-.544.156-.913.028-.175.042-.263.007-.343-.034-.08-.106-.128-.248-.225a10.7 10.7 0 0 0-1.744-.961c-.215-.093-.322-.14-.42-.116a.3.3 0 0 0-.136.074m-14.43 8.858c.015-.164.214-.232.335-.121A10.72 10.72 0 0 0 9 13.751c5.307 0 9.714-3.844 10.591-8.9a.2.2 0 0 1 .345-.103 10.8 10.8 0 0 1 1.782 2.65.6.6 0 0 1 .07.192.6.6 0 0 1-.035.204 20 20 0 0 1-.634 1.964c-2.003 4.42-6.453 7.493-11.619 7.493a12.7 12.7 0 0 1-6.15-1.578 45 45 0 0 1-1.59-.974c-.1-.064-.15-.096-.184-.144-.034-.05-.046-.105-.071-.217a10.8 10.8 0 0 1-.205-3.384m1.304 6.02c-.057-.033-.122.028-.091.087A10.75 10.75 0 0 0 12 22.75c5.937 0 10.75-4.813 10.75-10.75q0-.849-.127-1.66a.06.06 0 0 0-.116-.012l-.007.018-.006.013c-2.234 4.947-7.21 8.392-12.994 8.392a14.2 14.2 0 0 1-6.882-1.77z" clip-rule="evenodd"/></svg>