<svg xmlns="http://www.w3.org/2000/svg" fill="none" viewBox="0 0 24 24"><path fill="currentColor" fill-rule="evenodd" d="m21.481 16-.604 1.998c-.3.99-.543 1.795-.815 2.422-.284.655-.629 1.189-1.171 1.591-.542.403-1.153.578-1.862.66-.68.079-1.52.079-2.555.079H9.526c-1.034 0-1.875 0-2.555-.079-.708-.082-1.32-.257-1.861-.66-.543-.402-.887-.936-1.171-1.59-.272-.628-.516-1.433-.816-2.423L2.52 16H2a1 1 0 1 1 0-2h1.351c-.218-.874-.069-1.752.302-2.494a4.23 4.23 0 0 1 1.955-1.918c-.036-1.027.214-1.862.723-2.534.606-.799 1.48-1.222 2.197-1.519q.367-.15.67-.266c.466-.18.831-.32 1.155-.525.367-.23.52-.45.538-.83a.7.7 0 0 0-.094-.379c-.077-.136-.229-.315-.526-.504a.964.964 0 0 1-.41-1.086.97.97 0 0 1 .934-.695c1.691 0 3.194.497 4.243 1.333.852.678 1.446 1.63 1.477 2.701a4.06 4.06 0 0 1 1.595 2.037 3.7 3.7 0 0 1 .088 2.229 4.45 4.45 0 0 1 1.933 1.623c.524.8.777 1.808.514 2.827H22a1 1 0 1 1 0 2zm-2.933-2H5.439c-.336-.545-.303-1.117-.045-1.634.31-.622.902-1.06 1.428-1.153a2.1 2.1 0 0 1 1.662.392.976.976 0 0 0 1.365-.166.963.963 0 0 0-.167-1.357 4 4 0 0 0-2.13-.822c.021-.511.168-.826.331-1.042.273-.359.723-.621 1.391-.897q.209-.086.46-.182c.53-.204 1.164-.45 1.66-.762.749-.472 1.384-1.201 1.439-2.372q.011-.24-.02-.474c.4.152.74.346 1.01.56.644.514.823 1.075.719 1.544-.088.393-.413.93-1.276 1.48a.963.963 0 0 0-.295 1.334c.289.45.89.582 1.342.294.668-.425 1.2-.913 1.575-1.454.164.193.3.422.388.674.195.55.147 1.141-.257 1.654a2.04 2.04 0 0 1-1.217.733.967.967 0 1 0 .372 1.898 4 4 0 0 0 1.988-1.015c.479.129 1.004.482 1.34.995.349.534.44 1.148.046 1.772" clip-rule="evenodd"/></svg>