<svg xmlns="http://www.w3.org/2000/svg" fill="none" viewBox="0 0 24 24"><path fill="currentColor" fill-rule="evenodd" d="M13.001 13.75c.397 0 .665.022.85.062.219.049.289.119.338.338.04.185.062.453.062.85v6.25h1.5v-4.1c0-.189 0-.283.058-.341.047-.047.117-.057.24-.059h5.126c.203 0 .305 0 .364.065.059.064.051.165.034.368l-.204 2.47a4.6 4.6 0 0 1-.415 1.597H21a.75.75 0 0 1 0 1.5H3a.75.75 0 0 1 0-1.5h.047a4.6 4.6 0 0 1-.415-1.597l-.204-2.47c-.017-.203-.025-.304.034-.368.05-.054.128-.063.271-.065h5.118c.188 0 .283 0 .341.059s.059.152.059.341v4.1h1.5V15c0-.397.022-.665.062-.85.048-.219.119-.289.338-.338.185-.04.452-.062.85-.062zM12.01 15a1 1 0 1 0-.009 2 1 1 0 1 0 .009-2m9.246-4.921c.086.079.097.21.119.471l.094 1.105.067.79.034.39v.004l.024.267.025.267c.046.493.092.985.108 1.479.006.184.009.276-.05.337s-.154.061-.343.061h-5.183c-.187 0-.281 0-.339-.058-.059-.057-.06-.152-.062-.342a5 5 0 0 0-.096-1.021c-.078-.354-.223-.7-.502-.98-.28-.279-.626-.424-.98-.502-.345-.076-.741-.097-1.171-.097h-2c-.43 0-.826.021-1.172.097-.353.078-.699.223-.979.502-.279.28-.424.626-.502.98a5 5 0 0 0-.096 1.021c-.002.19-.003.285-.062.342s-.152.058-.339.058H2.667c-.189 0-.284 0-.343-.061-.058-.061-.055-.153-.049-.337.016-.494.062-.987.108-1.48l.048-.534c.066-.771.139-1.619.195-2.288.022-.261.034-.392.12-.471.074-.068.18-.077.374-.079h17.657c.262 0 .393 0 .479.079M12.001 1.25c.826 0 1.329.198 2.077.492 2.818 1.108 5.157 2.833 6.631 4.209.277.258.553.515.734.755.21.277.42.7.242 1.209a1.12 1.12 0 0 1-.443.57 1.5 1.5 0 0 1-.56.212c-.299.053-.683.053-1.067.053H4.387c-.384 0-.768 0-1.067-.053a1.5 1.5 0 0 1-.56-.212 1.12 1.12 0 0 1-.443-.57c-.178-.509.032-.932.242-1.209.181-.24.457-.497.733-.755C4.767 4.575 7.106 2.85 9.924 1.742c.748-.294 1.251-.492 2.077-.492" clip-rule="evenodd"/></svg>